<?xml version="1.0" encoding="utf-8"?>
<!-- Generator: Adobe Illustrator 16.0.0, SVG Export Plug-In . SVG Version: 6.00 Build 0)  -->
<!DOCTYPE svg PUBLIC "-//W3C//DTD SVG 1.1//EN" "http://www.w3.org/Graphics/SVG/1.1/DTD/svg11.dtd">
<svg version="1.1" id="Layer_1" xmlns="http://www.w3.org/2000/svg" xmlns:xlink="http://www.w3.org/1999/xlink" x="0px" y="0px"
	 width="136.833px" height="136.834px" viewBox="0 0 136.833 136.834" style="enable-background:new 0 0 136.833 136.834;"
	 xml:space="preserve">
<style type="text/css">
<![CDATA[
	.st0{fill:#47A4A9;}
	.st1{fill:#49A0AE;}
	.st2{fill:#E0E1D4;}
	.st3{fill:#E1B623;}
	.st4{fill:#1467A8;}
	.st5{fill-rule:evenodd;clip-rule:evenodd;fill:#757575;}
	.st6{fill:#E4C025;}
	.st7{fill:#E4DEDF;}
	.st8{fill:#4A4A4A;}
	.st9{fill:#4ABC96;}
	.st10{fill:#E5DBC5;}
	.st11{fill:#19241E;}
	.st12{fill:#E7E7E7;}
	.st13{fill:#E8E1D3;}
	.st14{fill:#E96238;}
	.st15{fill:#E9C29C;}
	.st16{fill:#E9E9EA;}
	.st17{fill-rule:evenodd;clip-rule:evenodd;fill:#DDDDDC;}
	.st18{fill:#4FAFB9;}
	.st19{fill:#B1D4D7;}
	.st20{fill:#B3E0DF;}
	.st21{fill:#B8E3EB;}
	.st22{fill:#ECE9E9;}
	.st23{fill:#ECECEC;}
	.st24{fill:#ED7B3A;}
	.st25{fill:#EDC92C;}
	.st26{fill:#EEB488;}
	.st27{fill:#525252;}
	.st28{fill-rule:evenodd;clip-rule:evenodd;fill:#E4E4E4;}
	.st29{fill-rule:evenodd;clip-rule:evenodd;fill:#4B4A4B;}
	.st30{fill:#BDD2CE;}
	.st31{fill:#BFC1A9;}
	.st32{fill:#F16D53;}
	.st33{fill:#5A5A5A;}
	.st34{fill-rule:evenodd;clip-rule:evenodd;fill:#B5B2B3;}
	.st35{fill:#5C5C5C;}
	.st36{fill:#F7C192;}
	.st37{fill:#959595;}
	.st38{fill:#C4E2E7;}
	.st39{fill:#C6CBC8;}
	.st40{fill:#989897;}
	.st41{fill:#99999A;}
	.st42{opacity:0.2;}
	.st43{opacity:0.6;}
	.st44{opacity:0.8;}
	.st45{opacity:0.9;}
	.st46{fill:#606060;}
	.st47{fill-rule:evenodd;clip-rule:evenodd;fill:#BFC1A9;}
	.st48{fill:#FFFFFF;}
	.st49{fill:none;}
	.st50{fill-rule:evenodd;clip-rule:evenodd;fill:#5A5A5A;}
	.st51{fill:#676767;}
	.st52{fill:#67C3C8;}
	.st53{fill:#CAD8D4;}
	.st54{fill-rule:evenodd;clip-rule:evenodd;fill:#C0BEBF;}
	.st55{fill:#343433;}
	.st56{fill:#343A36;}
	.st57{fill:#353535;}
	.st58{fill:#357180;}
	.st59{fill:#377EC0;}
	.st60{fill:#6B491E;}
	.st61{fill:#6D6D6D;}
	.st62{fill-rule:evenodd;clip-rule:evenodd;fill:#616161;}
	.st63{fill:#D4DFDC;}
	.st64{fill:#D62127;}
	.st65{fill:#D6B429;}
	.st66{fill:#D7D0BC;}
	.st67{fill:#D7DABA;}
	.st68{fill:#3D929A;}
	.st69{fill:#D8E4E1;}
	.st70{fill:#D96527;}
	.st71{fill-rule:evenodd;clip-rule:evenodd;fill:#CDCCCB;}
	.st72{fill:#717171;}
	.st73{fill:#A19F9F;}
	.st74{fill:#A2D4DE;}
	.st75{fill:#DA1F26;}
	.st76{fill:#0C808B;}
	.st77{fill:#A7CACB;}
	.st78{fill:#DBDBDA;}
	.st79{fill:#DD5231;}
	.st80{fill:#409FA4;}
	.st81{fill:#DFBB26;}
	.st82{fill:#444445;}
	.st83{fill:#444545;}
]]>
</style>
<g>
	<g>
		<g>
			<g>
				<circle class="st1" cx="68.416" cy="68.418" r="63.333"/>
			</g>
		</g>
	</g>
	<g>
		<g>
			<g>
				<g>
					<path class="st15" d="M106.403,67.871c0,21.379-17.32,38.701-38.691,38.701S29.021,89.25,29.021,67.871
						c0-21.363,17.32-38.688,38.691-38.688S106.403,46.508,106.403,67.871z"/>
				</g>
				<g>
					<g>
						<path class="st49" d="M90.149,99.393c7.984,0.57,17.691,0.12,23.277-4.295c3.037-2.4,4.514-5.686,4.514-10.043
							c0-6.497-1.227-10.773-3.752-13.072c-1.904-1.732-4.566-2.402-7.824-2.543C105.872,81.801,99.589,92.66,90.149,99.393z"/>
					</g>
					<g>
						<path class="st15" d="M75.382,98.526c0.176-0.741,0.926-1.191,1.662-1.022c0.121,0.027,5.914,1.372,13.105,1.889
							c9.439-6.732,15.723-17.592,16.215-29.953c-3.047-0.129-6.619,0.205-10.602,0.58c-3.867,0.365-8.25,0.779-12.773,0.779
							c-0.764,0-1.379-0.617-1.379-1.38s0.615-1.38,1.379-1.38c4.395,0,8.521-0.391,12.514-0.768
							c3.926-0.367,7.596-0.707,10.871-0.574c-0.621-20.82-17.686-37.515-38.662-37.515c-21.371,0-38.691,17.325-38.691,38.688
							c0,21.379,17.32,38.701,38.691,38.701c6.73,0,13.059-1.721,18.57-4.742c-5.445-0.613-9.461-1.544-9.879-1.643
							C75.663,100.01,75.204,99.269,75.382,98.526z"/>
					</g>
					<g>
						<path class="st15" d="M77.044,97.504c-0.736-0.169-1.486,0.281-1.662,1.022c-0.178,0.742,0.281,1.483,1.021,1.661
							c0.418,0.099,4.434,1.029,9.879,1.643c1.34-0.736,2.631-1.555,3.867-2.438C82.958,98.876,77.165,97.531,77.044,97.504z"/>
					</g>
				</g>
				<g>
					<g>
						<ellipse class="st55" cx="82.309" cy="71.211" rx="5.302" ry="5.6"/>
					</g>
					<g>
						<path class="st48" d="M86.081,69.088c0,1.233-0.947,2.241-2.121,2.241c-1.162,0-2.113-1.008-2.113-2.241
							c0-1.241,0.951-2.24,2.113-2.24C85.134,66.848,86.081,67.847,86.081,69.088z"/>
					</g>
				</g>
				<g>
					<g>
						<ellipse class="st55" cx="53.355" cy="71.211" rx="5.302" ry="5.6"/>
					</g>
					<g>
						<path class="st48" d="M57.073,69.088c0,1.233-0.947,2.241-2.121,2.241c-1.17,0-2.117-1.008-2.117-2.241
							c0-1.241,0.947-2.24,2.117-2.24C56.126,66.848,57.073,67.847,57.073,69.088z"/>
					</g>
				</g>
				<g>
					<path class="st60" d="M106.403,67.871L80.022,44.137c0,0-12.404,0.573-27.385,7.346C38.19,58.016,29.021,67.871,29.021,67.871
						c0-21.363,17.32-38.688,38.691-38.688S106.403,46.508,106.403,67.871z"/>
				</g>
			</g>
		</g>
		<g>
			<g>
				<path class="st33" d="M36.829,67.58h-7.803c0,0.098-0.006,0.193-0.006,0.291c0,1.715,0.121,3.4,0.338,5.055h7.471V67.58z"/>
			</g>
			<g>
				<path class="st33" d="M106.397,67.58h-8.174v5.346h7.842c0.215-1.654,0.338-3.34,0.338-5.055
					C106.403,67.773,106.397,67.678,106.397,67.58z"/>
			</g>
		</g>
		<g>
			<g class="st43">
				<g>
					<path class="st69" d="M54.72,83.668c0,0,6.432,1.65,12.916,1.65c6.48,0,12.508-1.65,12.508-1.65L67.612,64.014L54.72,83.668z"
						/>
				</g>
			</g>
			<g class="st44">
				<path class="st53" d="M72.579,83.904c0,1.632-2.912,2.117-4.977,2.117l0,0c-2.064,0-4.98-0.485-4.98-2.117l2.018-12.577
					c0-1.632,0.898-2.958,2.963-2.958l0,0c2.064,0,2.961,1.326,2.961,2.958L72.579,83.904z"/>
			</g>
			<g class="st44">
				<path class="st30" d="M67.603,86.021L67.603,86.021c-2.064,0-4.98-0.485-4.98-2.117l2.018-12.577
					c0-1.632,0.898-2.958,2.963-2.958l0,0V86.021z"/>
			</g>
			<g>
				<g>
					<g>
						<g>
							<path class="st49" d="M52.638,51.482c-3.016,1.363-5.785,2.873-8.303,4.405c2.297-0.552,5.176-0.915,8.797-0.845h27.586
								c0.594-0.011,1.172-0.011,1.736,0h0.539v0.014c8.441,0.26,12.18,2.862,13.797,4.165L80.022,44.137
								C80.022,44.137,67.618,44.71,52.638,51.482z"/>
						</g>
						<g class="st43">
							<g>
								<path class="st23" d="M98.704,60.943l-1.914-1.722c-1.617-1.303-5.355-3.905-13.797-4.165v-0.014h-0.539
									c-0.564-0.011-1.143-0.011-1.736,0H53.132c-3.621-0.07-6.5,0.293-8.797,0.845c-3.752,2.282-6.912,4.608-9.371,6.604
									c-0.021,0.26-0.039,0.539-0.053,0.863c-0.148,3.547,0.84,0.733,2.283-0.234c1.439-0.967,9.02-5.039,23.445-1.895
									c1.738,0.379,10.836,0.379,12.572,0c14.424-3.145,22.004,0.928,23.445,1.895c1.441,0.968,2.463,3.307,2.25-0.433
									C98.86,61.879,98.792,61.328,98.704,60.943z"/>
							</g>
						</g>
					</g>
					<g>
						<path class="st59" d="M99.554,61.555c-1.32-1.043-6.555-4.423-16.012-4.723v-0.014h-0.529c-0.563-0.013-1.137-0.013-1.727,0
							H53.94c-10.887-0.22-16.846,3.613-18.264,4.736c-1.891,1.498-0.457,13.945,1.107,16.684c1.564,2.737,9.775,7.037,15.053,7.102
							c3.051,0.037,7.492-5.171,10.939-10.844c0.67-0.908,2.676-3.334,4.859-3.334c2.684,0,5.008,3.67,5.008,3.67l-0.008-0.033
							c3.418,5.554,7.762,10.577,10.758,10.541c5.277-0.064,13.486-4.364,15.049-7.102C100.009,75.5,101.442,63.053,99.554,61.555z
							 M51.729,80.994c-3.672-0.045-9.383-3.033-10.471-4.939c-1.088-1.902-2.084-10.559-0.77-11.602
							c1.313-1.041,8.23-5.423,21.393-2.039c1.582,0.407,1.283,1.389,0.951,3.174C61.97,70.163,55.399,81.041,51.729,80.994z
							 M93.97,76.055c-1.088,1.906-6.801,4.895-10.469,4.939c-3.672,0.047-10.244-10.831-11.107-15.406
							c-0.334-1.785-0.631-2.767,0.957-3.174c13.16-3.384,20.074,0.998,21.389,2.039C96.052,65.496,95.058,74.152,93.97,76.055z"/>
					</g>
					<g>
						<g>
							<path class="st69" d="M51.181,80.961c-3.326-0.908-7.313-2.803-9.795-4.725C42.642,78.05,47.634,80.668,51.181,80.961z"/>
						</g>
						<g class="st43">
							<g>
								<path class="st69" d="M62.833,65.588c0.332-1.785,0.631-2.767-0.951-3.174c-13.162-3.384-20.08,0.998-21.393,2.039
									c-1.314,1.043-0.318,9.699,0.77,11.602c0.033,0.059,0.086,0.121,0.127,0.182c2.482,1.922,6.469,3.816,9.795,4.725
									c0.186,0.018,0.371,0.032,0.549,0.033C55.399,81.041,61.97,70.163,62.833,65.588z"/>
							</g>
						</g>
						<g>
							<path class="st69" d="M93.837,76.244c-2.475,1.92-6.443,3.813-9.766,4.717C87.612,80.656,92.573,78.053,93.837,76.244z"/>
						</g>
						<g class="st43">
							<g>
								<path class="st69" d="M94.739,64.453c-1.314-1.041-8.229-5.423-21.389-2.039c-1.588,0.407-1.291,1.389-0.957,3.174
									c0.863,4.575,7.436,15.453,11.107,15.406c0.184-0.002,0.377-0.016,0.57-0.033c3.322-0.904,7.291-2.797,9.766-4.717
									c0.045-0.063,0.098-0.128,0.133-0.189C95.058,74.152,96.052,65.496,94.739,64.453z"/>
							</g>
						</g>
					</g>
				</g>
				<g>
					<path class="st33" d="M96.542,63.369c-1.041-0.824-5.094-3.441-12.389-3.799v-0.032h-1.02c-0.463-0.011-0.938-0.011-1.422,0
						H53.517c-0.488-0.011-0.961-0.011-1.422,0H51.39v0.018c-7.492,0.297-11.648,2.977-12.703,3.813
						c-1.525,1.215-0.369,11.286,0.896,13.502c1.266,2.217,7.912,5.696,12.184,5.751c3.289,0.04,8.564-7.435,11.287-13.314
						l-0.018,0.088c0,0,1.926-4.693,4.6-4.693c1.936,0,3.477,2.46,4.186,3.816c2.59,5.974,8.203,14.144,11.637,14.104
						c4.271-0.055,10.92-3.534,12.184-5.751C96.909,74.655,98.071,64.584,96.542,63.369z M62.833,65.588
						c-0.863,4.575-7.434,15.453-11.104,15.406c-3.672-0.045-9.383-3.033-10.471-4.939c-1.088-1.902-2.084-10.559-0.77-11.602
						c1.313-1.041,8.23-5.423,21.393-2.039C63.464,62.821,63.165,63.803,62.833,65.588z M93.97,76.055
						c-1.088,1.906-6.801,4.895-10.469,4.939c-3.672,0.047-10.244-10.831-11.107-15.406c-0.334-1.785-0.631-2.767,0.957-3.174
						c13.16-3.384,20.074,0.998,21.389,2.039C96.052,65.496,95.058,74.152,93.97,76.055z"/>
				</g>
			</g>
		</g>
		<g>
			<path class="st27" d="M116.384,69.572c-2.33-2.118-5.504-3.19-9.988-3.375l-0.537-0.021l0.025,0.83
				c0.01,0.287,0.02,0.575,0.02,0.865c0,0.52-0.018,1.033-0.039,1.547l-0.021,0.5l0.5,0.021c3.479,0.15,5.865,0.916,7.508,2.413
				c2.416,2.198,3.59,6.353,3.59,12.702c0,4.193-1.414,7.352-4.324,9.651c-0.328,0.26-4.762,3.394-11.387,4.269
				s-7.02,0.313-16.17-0.537v-0.21l-8.129-1.966v0.816c-0.162-0.036-0.256-0.058-0.275-0.063c-0.996-0.229-2.025,0.408-2.26,1.394
				c-0.117,0.487-0.037,0.991,0.225,1.417c0.264,0.43,0.678,0.73,1.168,0.848c0.117,0.027,0.516,0.12,1.143,0.252v0.799l8.129,0.72
				v-0.196c0.221,0.027,0.447,0.054,0.68,0.08c1.416,0.159,2.828,0.285,4.191,0.372l0.443,0.025
				c0.553,0.034,1.111,0.062,1.684,0.083l0.584,0.022c0.719,0.021,1.443,0.036,2.174,0.036c8.984,0,15.758-1.753,20.129-5.21
				c3.818-3.017,5.756-7.257,5.756-12.603C121.2,77.484,119.669,72.564,116.384,69.572z"/>
		</g>
		<g>
			<g>
				<circle class="st33" cx="67.584" cy="98.455" r="11.388"/>
			</g>
			<g>
				<g>
					<circle class="st72" cx="67.583" cy="98.455" r="3.971"/>
				</g>
				<g>
					<path class="st33" d="M64.474,98.455c0-1.719,1.391-3.111,3.111-3.111c1.717,0,3.107,1.393,3.107,3.111
						c0,1.716-1.391,3.108-3.107,3.108C65.864,101.563,64.474,100.171,64.474,98.455z"/>
				</g>
				<g>
					<path class="st27" d="M65.929,96.893c0.789-0.791,1.92-0.936,2.527-0.327c0.609,0.608-2.242,3.466-2.85,2.856
						C64.995,98.813,65.142,97.68,65.929,96.893z"/>
				</g>
			</g>
			<g>
				<g>
					<g>
						<path class="st51" d="M61.188,97.998c0-3.277,2.658-5.936,5.936-5.936v-2.809c-4.83,0-8.744,3.914-8.744,8.744
							c0,0.016,0.002,0.031,0.002,0.046h2.813C61.194,98.029,61.188,98.014,61.188,97.998z"/>
					</g>
				</g>
				<g>
					<g>
						<path class="st51" d="M61.188,98.846c0,3.277,2.658,5.934,5.936,5.934v2.809c-4.83,0-8.744-3.912-8.744-8.742
							c0-0.018,0.002-0.032,0.002-0.048h2.813C61.194,98.813,61.188,98.828,61.188,98.846z"/>
					</g>
				</g>
				<g>
					<g>
						<path class="st51" d="M73.915,97.998c0-3.277-2.658-5.936-5.936-5.936v-2.809c4.828,0,8.744,3.914,8.744,8.744
							c0,0.016-0.002,0.031-0.002,0.046h-2.811C73.911,98.029,73.915,98.014,73.915,97.998z"/>
					</g>
				</g>
				<g>
					<g>
						<path class="st51" d="M73.915,98.846c0,3.277-2.658,5.934-5.936,5.934v2.809c4.828,0,8.744-3.912,8.744-8.742
							c0-0.018-0.002-0.032-0.002-0.048h-2.811C73.911,98.813,73.915,98.828,73.915,98.846z"/>
					</g>
				</g>
			</g>
		</g>
	</g>
</g>
</svg>
