<?xml version="1.0" encoding="utf-8"?>
<!-- Generator: Adobe Illustrator 16.0.0, SVG Export Plug-In . SVG Version: 6.00 Build 0)  -->
<!DOCTYPE svg PUBLIC "-//W3C//DTD SVG 1.1//EN" "http://www.w3.org/Graphics/SVG/1.1/DTD/svg11.dtd">
<svg version="1.1" id="Layer_1" xmlns="http://www.w3.org/2000/svg" xmlns:xlink="http://www.w3.org/1999/xlink" x="0px" y="0px"
	 width="136.833px" height="136.834px" viewBox="0 0 136.833 136.834" style="enable-background:new 0 0 136.833 136.834;"
	 xml:space="preserve">
<style type="text/css">
<![CDATA[
	.st0{fill:#47A4A9;}
	.st1{fill:#49A0AE;}
	.st2{fill:#E0E1D4;}
	.st3{fill:#E1B623;}
	.st4{fill:#1467A8;}
	.st5{fill-rule:evenodd;clip-rule:evenodd;fill:#757575;}
	.st6{fill:#E4C025;}
	.st7{fill:#E4DEDF;}
	.st8{fill:#4A4A4A;}
	.st9{fill:#4ABC96;}
	.st10{fill:#E5DBC5;}
	.st11{fill:#19241E;}
	.st12{fill:#E7E7E7;}
	.st13{fill:#E8E1D3;}
	.st14{fill:#E96238;}
	.st15{fill:#E9C29C;}
	.st16{fill:#E9E9EA;}
	.st17{fill-rule:evenodd;clip-rule:evenodd;fill:#DDDDDC;}
	.st18{fill:#4FAFB9;}
	.st19{fill:#B1D4D7;}
	.st20{fill:#B3E0DF;}
	.st21{fill:#B8E3EB;}
	.st22{fill:#ECE9E9;}
	.st23{fill:#ECECEC;}
	.st24{fill:#ED7B3A;}
	.st25{fill:#EDC92C;}
	.st26{fill:#EEB488;}
	.st27{fill:#525252;}
	.st28{fill-rule:evenodd;clip-rule:evenodd;fill:#E4E4E4;}
	.st29{fill-rule:evenodd;clip-rule:evenodd;fill:#4B4A4B;}
	.st30{fill:#BDD2CE;}
	.st31{fill:#BFC1A9;}
	.st32{fill:#F16D53;}
	.st33{fill:#5A5A5A;}
	.st34{fill-rule:evenodd;clip-rule:evenodd;fill:#B5B2B3;}
	.st35{fill:#5C5C5C;}
	.st36{fill:#F7C192;}
	.st37{fill:#959595;}
	.st38{fill:#C4E2E7;}
	.st39{fill:#C6CBC8;}
	.st40{fill:#989897;}
	.st41{fill:#99999A;}
	.st42{opacity:0.2;}
	.st43{opacity:0.6;}
	.st44{opacity:0.8;}
	.st45{opacity:0.9;}
	.st46{fill:#606060;}
	.st47{fill-rule:evenodd;clip-rule:evenodd;fill:#BFC1A9;}
	.st48{fill:#FFFFFF;}
	.st49{fill:none;}
	.st50{fill-rule:evenodd;clip-rule:evenodd;fill:#5A5A5A;}
	.st51{fill:#676767;}
	.st52{fill:#67C3C8;}
	.st53{fill:#CAD8D4;}
	.st54{fill-rule:evenodd;clip-rule:evenodd;fill:#C0BEBF;}
	.st55{fill:#343433;}
	.st56{fill:#343A36;}
	.st57{fill:#353535;}
	.st58{fill:#357180;}
	.st59{fill:#377EC0;}
	.st60{fill:#6B491E;}
	.st61{fill:#6D6D6D;}
	.st62{fill-rule:evenodd;clip-rule:evenodd;fill:#616161;}
	.st63{fill:#D4DFDC;}
	.st64{fill:#D62127;}
	.st65{fill:#D6B429;}
	.st66{fill:#D7D0BC;}
	.st67{fill:#D7DABA;}
	.st68{fill:#3D929A;}
	.st69{fill:#D8E4E1;}
	.st70{fill:#D96527;}
	.st71{fill-rule:evenodd;clip-rule:evenodd;fill:#CDCCCB;}
	.st72{fill:#717171;}
	.st73{fill:#A19F9F;}
	.st74{fill:#A2D4DE;}
	.st75{fill:#DA1F26;}
	.st76{fill:#0C808B;}
	.st77{fill:#A7CACB;}
	.st78{fill:#DBDBDA;}
	.st79{fill:#DD5231;}
	.st80{fill:#409FA4;}
	.st81{fill:#DFBB26;}
	.st82{fill:#444445;}
	.st83{fill:#444545;}
]]>
</style>
<g>
	<g>
		<circle class="st74" cx="68.416" cy="68.417" r="63.333"/>
	</g>
	<g>
		<g>
			<path class="st56" d="M91.312,31.858c0,0-2.227-3.897-6.959-4.175c0,0-6.959-1.113-6.959-3.897c0,0,0.279-5.011-8.072-5.011l0,0
				l0,0l0,0l0,0c-8.352,0-8.072,5.011-8.072,5.011c0,2.784-6.959,3.897-6.959,3.897c-4.732,0.277-6.959,4.175-6.959,4.175
				l-8.629,17.538c1.67,4.731,8.072,5.288,8.072,5.288l6.959-9.742l2.783,21.712c-5.289,18.93-7.516,46.766-7.516,46.766
				c9.742,4.732,16.424,0,16.424,0c0-12.794,3.891-15.584,3.896-15.588c0.006,0.004,3.896,2.794,3.896,15.588
				c0,0,6.682,4.732,16.424,0c0,0-2.227-27.836-7.516-46.766l2.783-21.712l6.959,9.742c0,0,6.404-0.557,8.072-5.288L91.312,31.858z"
				/>
		</g>
		<g>
			<path class="st41" d="M85.415,39.942c-0.348-1.568-2.662-10.777-9.393-13.852c0.971-0.551,1.51-1.032,1.561-1.08l-0.377-0.408
				c-0.029,0.025-2.961,2.663-7.977,2.663c-2.625,0-4.672-0.723-6.037-1.414l-0.004-0.004l-0.002,0.001
				c-1.242-0.629-1.922-1.234-1.934-1.246l-0.377,0.409c0.051,0.049,0.617,0.556,1.641,1.125c-6.65,3.12-8.941,12.246-9.289,13.806
				c-6.492,0.437-11.684,11.909-11.904,12.402l0.51,0.227c0.053-0.119,5.383-11.905,11.631-12.083l0.221-0.007l0.043-0.216
				c0.014-0.069,0.9-4.339,3.355-8.24c0.816,2.91,4.098,15.016,4.26,21.924c0.057,2.489-0.527,9.457-1.357,17.836
				c-1.895-2.771-3.191-5.203-3.223-5.261l-0.492,0.26c0.131,0.246,1.57,2.946,3.627,5.876c-1.797,18.02-4.635,41.948-4.678,42.305
				l0.553,0.064c0.043-0.353,2.814-23.723,4.617-41.685c2.535,3.481,5.855,7.043,8.84,7.043c2.951,0,6.283-3.49,8.855-6.936
				c1.803,17.946,4.563,41.227,4.605,41.577l0.553-0.064c-0.043-0.355-2.869-24.178-4.668-42.184
				c2.145-2.976,3.66-5.744,3.795-5.994l-0.488-0.266c-0.033,0.059-1.406,2.572-3.391,5.399c-0.836-8.438-1.428-15.47-1.371-17.972
				c0.166-7.075,3.604-19.601,4.314-22.117c2.549,3.953,3.467,8.363,3.48,8.434l0.045,0.216l0.221,0.007
				c6.246,0.178,11.578,11.964,11.631,12.083l0.508-0.227C97.101,51.851,91.909,40.378,85.415,39.942z M76.563,53.936
				c-0.061,2.581,0.564,9.928,1.438,18.672c-2.545,3.506-5.916,7.223-8.771,7.223c-2.889,0-6.25-3.803-8.756-7.343
				c0.865-8.691,1.484-15.982,1.426-18.552c-0.174-7.445-3.926-20.818-4.412-22.528c1.396-2.052,3.252-3.925,5.666-4.939
				c1.416,0.686,3.465,1.354,6.076,1.354c2.664,0,4.742-0.696,6.162-1.396c2.391,0.975,4.234,2.793,5.637,4.801
				C80.978,31.398,76.749,46.019,76.563,53.936z"/>
		</g>
		<g>
			<ellipse class="st11" cx="69.229" cy="21.62" rx="6.236" ry="2.38"/>
		</g>
	</g>
</g>
</svg>
