<?xml version="1.0" encoding="utf-8"?>
<!-- Generator: Adobe Illustrator 16.0.0, SVG Export Plug-In . SVG Version: 6.00 Build 0)  -->
<!DOCTYPE svg PUBLIC "-//W3C//DTD SVG 1.1//EN" "http://www.w3.org/Graphics/SVG/1.1/DTD/svg11.dtd">
<svg version="1.1" id="Layer_1" xmlns="http://www.w3.org/2000/svg" xmlns:xlink="http://www.w3.org/1999/xlink" x="0px" y="0px"
	 width="136.833px" height="136.834px" viewBox="0 0 136.833 136.834" style="enable-background:new 0 0 136.833 136.834;"
	 xml:space="preserve">
<style type="text/css">
<![CDATA[
	.st0{fill:#47A4A9;}
	.st1{fill:#49A0AE;}
	.st2{fill:#E0E1D4;}
	.st3{fill:#E1B623;}
	.st4{fill:#1467A8;}
	.st5{fill-rule:evenodd;clip-rule:evenodd;fill:#757575;}
	.st6{fill:#E4C025;}
	.st7{fill:#E4DEDF;}
	.st8{fill:#4A4A4A;}
	.st9{fill:#4ABC96;}
	.st10{fill:#E5DBC5;}
	.st11{fill:#19241E;}
	.st12{fill:#E7E7E7;}
	.st13{fill:#E8E1D3;}
	.st14{fill:#E96238;}
	.st15{fill:#E9C29C;}
	.st16{fill:#E9E9EA;}
	.st17{fill-rule:evenodd;clip-rule:evenodd;fill:#DDDDDC;}
	.st18{fill:#4FAFB9;}
	.st19{fill:#B1D4D7;}
	.st20{fill:#B3E0DF;}
	.st21{fill:#B8E3EB;}
	.st22{fill:#ECE9E9;}
	.st23{fill:#ECECEC;}
	.st24{fill:#ED7B3A;}
	.st25{fill:#EDC92C;}
	.st26{fill:#EEB488;}
	.st27{fill:#525252;}
	.st28{fill-rule:evenodd;clip-rule:evenodd;fill:#E4E4E4;}
	.st29{fill-rule:evenodd;clip-rule:evenodd;fill:#4B4A4B;}
	.st30{fill:#BDD2CE;}
	.st31{fill:#BFC1A9;}
	.st32{fill:#F16D53;}
	.st33{fill:#5A5A5A;}
	.st34{fill-rule:evenodd;clip-rule:evenodd;fill:#B5B2B3;}
	.st35{fill:#5C5C5C;}
	.st36{fill:#F7C192;}
	.st37{fill:#959595;}
	.st38{fill:#C4E2E7;}
	.st39{fill:#C6CBC8;}
	.st40{fill:#989897;}
	.st41{fill:#99999A;}
	.st42{opacity:0.2;}
	.st43{opacity:0.6;}
	.st44{opacity:0.8;}
	.st45{opacity:0.9;}
	.st46{fill:#606060;}
	.st47{fill-rule:evenodd;clip-rule:evenodd;fill:#BFC1A9;}
	.st48{fill:#FFFFFF;}
	.st49{fill:none;}
	.st50{fill-rule:evenodd;clip-rule:evenodd;fill:#5A5A5A;}
	.st51{fill:#676767;}
	.st52{fill:#67C3C8;}
	.st53{fill:#CAD8D4;}
	.st54{fill-rule:evenodd;clip-rule:evenodd;fill:#C0BEBF;}
	.st55{fill:#343433;}
	.st56{fill:#343A36;}
	.st57{fill:#353535;}
	.st58{fill:#357180;}
	.st59{fill:#377EC0;}
	.st60{fill:#6B491E;}
	.st61{fill:#6D6D6D;}
	.st62{fill-rule:evenodd;clip-rule:evenodd;fill:#616161;}
	.st63{fill:#D4DFDC;}
	.st64{fill:#D62127;}
	.st65{fill:#D6B429;}
	.st66{fill:#D7D0BC;}
	.st67{fill:#D7DABA;}
	.st68{fill:#3D929A;}
	.st69{fill:#D8E4E1;}
	.st70{fill:#D96527;}
	.st71{fill-rule:evenodd;clip-rule:evenodd;fill:#CDCCCB;}
	.st72{fill:#717171;}
	.st73{fill:#A19F9F;}
	.st74{fill:#A2D4DE;}
	.st75{fill:#DA1F26;}
	.st76{fill:#0C808B;}
	.st77{fill:#A7CACB;}
	.st78{fill:#DBDBDA;}
	.st79{fill:#DD5231;}
	.st80{fill:#409FA4;}
	.st81{fill:#DFBB26;}
	.st82{fill:#444445;}
	.st83{fill:#444545;}
]]>
</style>
<g>
	<g>
		<circle class="st58" cx="68.417" cy="68.417" r="63.332"/>
	</g>
	<g>
		<g>
			<g>
				<path class="st53" d="M73.014,22.165h-1.75v-2.701c0-2.643-4.588-2.643-4.588,0v2.701h-2.549v3.5h2.549v6.942
					c0,2.642,4.588,2.642,4.588,0v-6.942h1.75V22.165z"/>
			</g>
			<g>
				<path class="st63" d="M68.971,17.483c-1.148-0.002-2.295,0.659-2.295,1.98v2.701h-2.549v3.5h2.549v6.942
					c0,1.231,1.229,1.889,2.293,1.972L68.971,17.483z"/>
			</g>
			<g>
				<path class="st33" d="M60.404,26.111c-1.497,0-1.497-4.394,0-4.394l3.881,0.34v3.715L60.404,26.111z"/>
			</g>
			<g>
				<path class="st81" d="M71.497,30.481v-2.579h-5.055v2.563c-6.093,0.854-11.548,6.531-11.548,12.369v67.36c0,6.185,28,6.185,28,0
					v-67.36C82.894,37.045,77.53,31.379,71.497,30.481z"/>
			</g>
			<g>
				<path class="st25" d="M68.969,27.902h-2.527v2.563c-6.093,0.854-11.548,6.531-11.548,12.369v67.36
					c0,3.069,6.896,4.638,13.843,4.638L68.969,27.902z"/>
			</g>
			<g>
				<g>
					<circle class="st37" cx="68.999" cy="19.997" r="1.391"/>
				</g>
				<g>
					<circle class="st53" cx="68.999" cy="19.997" r="1.098"/>
				</g>
				<g>
					<circle class="st37" cx="68.999" cy="19.997" r="0.554"/>
				</g>
			</g>
		</g>
		<g>
			<g>
				<g>
					<path class="st83" d="M63.602,23.103c-0.006,0-0.011,0-0.016-0.001l-3.385-0.232c-0.128-0.009-0.225-0.121-0.215-0.25
						c0.009-0.127,0.123-0.221,0.248-0.215l3.384,0.232c0.128,0.008,0.226,0.121,0.216,0.249
						C63.827,23.009,63.724,23.103,63.602,23.103z"/>
				</g>
			</g>
			<g>
				<g>
					<path class="st83" d="M60.219,25.436c0.005,0,0.01,0,0.016,0l3.384-0.234c0.128-0.008,0.226-0.119,0.216-0.248
						c-0.01-0.128-0.124-0.222-0.248-0.217l-3.385,0.234c-0.128,0.008-0.225,0.119-0.215,0.248
						C59.995,25.342,60.096,25.436,60.219,25.436z"/>
				</g>
			</g>
			<g>
				<g>
					<path class="st83" d="M60.2,24.201c0.006,0,0.011,0.001,0.016,0l3.393-0.009c0.129,0,0.232-0.105,0.23-0.234
						c0-0.128-0.109-0.229-0.233-0.232l-3.391,0.01c-0.13,0-0.233,0.105-0.232,0.234C59.982,24.092,60.078,24.192,60.2,24.201z"/>
				</g>
			</g>
		</g>
	</g>
</g>
</svg>
