<?xml version="1.0" encoding="utf-8"?>
<!-- Generator: Adobe Illustrator 16.0.0, SVG Export Plug-In . SVG Version: 6.00 Build 0)  -->
<!DOCTYPE svg PUBLIC "-//W3C//DTD SVG 1.1//EN" "http://www.w3.org/Graphics/SVG/1.1/DTD/svg11.dtd">
<svg version="1.1" id="Layer_1" xmlns="http://www.w3.org/2000/svg" xmlns:xlink="http://www.w3.org/1999/xlink" x="0px" y="0px"
	 width="136.833px" height="136.834px" viewBox="0 0 136.833 136.834" style="enable-background:new 0 0 136.833 136.834;"
	 xml:space="preserve">
<style type="text/css">
<![CDATA[
	.st0{fill:#47A4A9;}
	.st1{fill:#49A0AE;}
	.st2{fill:#E0E1D4;}
	.st3{fill:#E1B623;}
	.st4{fill:#1467A8;}
	.st5{fill-rule:evenodd;clip-rule:evenodd;fill:#757575;}
	.st6{fill:#E4C025;}
	.st7{fill:#E4DEDF;}
	.st8{fill:#4A4A4A;}
	.st9{fill:#4ABC96;}
	.st10{fill:#E5DBC5;}
	.st11{fill:#19241E;}
	.st12{fill:#E7E7E7;}
	.st13{fill:#E8E1D3;}
	.st14{fill:#E96238;}
	.st15{fill:#E9C29C;}
	.st16{fill:#E9E9EA;}
	.st17{fill-rule:evenodd;clip-rule:evenodd;fill:#DDDDDC;}
	.st18{fill:#4FAFB9;}
	.st19{fill:#B1D4D7;}
	.st20{fill:#B3E0DF;}
	.st21{fill:#B8E3EB;}
	.st22{fill:#ECE9E9;}
	.st23{fill:#ECECEC;}
	.st24{fill:#ED7B3A;}
	.st25{fill:#EDC92C;}
	.st26{fill:#EEB488;}
	.st27{fill:#525252;}
	.st28{fill-rule:evenodd;clip-rule:evenodd;fill:#E4E4E4;}
	.st29{fill-rule:evenodd;clip-rule:evenodd;fill:#4B4A4B;}
	.st30{fill:#BDD2CE;}
	.st31{fill:#BFC1A9;}
	.st32{fill:#F16D53;}
	.st33{fill:#5A5A5A;}
	.st34{fill-rule:evenodd;clip-rule:evenodd;fill:#B5B2B3;}
	.st35{fill:#5C5C5C;}
	.st36{fill:#F7C192;}
	.st37{fill:#959595;}
	.st38{fill:#C4E2E7;}
	.st39{fill:#C6CBC8;}
	.st40{fill:#989897;}
	.st41{fill:#99999A;}
	.st42{opacity:0.2;}
	.st43{opacity:0.6;}
	.st44{opacity:0.8;}
	.st45{opacity:0.9;}
	.st46{fill:#606060;}
	.st47{fill-rule:evenodd;clip-rule:evenodd;fill:#BFC1A9;}
	.st48{fill:#FFFFFF;}
	.st49{fill:none;}
	.st50{fill-rule:evenodd;clip-rule:evenodd;fill:#5A5A5A;}
	.st51{fill:#676767;}
	.st52{fill:#67C3C8;}
	.st53{fill:#CAD8D4;}
	.st54{fill-rule:evenodd;clip-rule:evenodd;fill:#C0BEBF;}
	.st55{fill:#343433;}
	.st56{fill:#343A36;}
	.st57{fill:#353535;}
	.st58{fill:#357180;}
	.st59{fill:#377EC0;}
	.st60{fill:#6B491E;}
	.st61{fill:#6D6D6D;}
	.st62{fill-rule:evenodd;clip-rule:evenodd;fill:#616161;}
	.st63{fill:#D4DFDC;}
	.st64{fill:#D62127;}
	.st65{fill:#D6B429;}
	.st66{fill:#D7D0BC;}
	.st67{fill:#D7DABA;}
	.st68{fill:#3D929A;}
	.st69{fill:#D8E4E1;}
	.st70{fill:#D96527;}
	.st71{fill-rule:evenodd;clip-rule:evenodd;fill:#CDCCCB;}
	.st72{fill:#717171;}
	.st73{fill:#A19F9F;}
	.st74{fill:#A2D4DE;}
	.st75{fill:#DA1F26;}
	.st76{fill:#0C808B;}
	.st77{fill:#A7CACB;}
	.st78{fill:#DBDBDA;}
	.st79{fill:#DD5231;}
	.st80{fill:#409FA4;}
	.st81{fill:#DFBB26;}
	.st82{fill:#444445;}
	.st83{fill:#444545;}
]]>
</style>
<g>
	<g>
		<circle class="st1" cx="68.417" cy="68.417" r="63.333"/>
	</g>
	<g>
		<g>
			<path class="st23" d="M111.112,51.347c-1.67-1.599-6.378-6.764-19.078-7.226v-0.021h-0.715c-0.752-0.018-1.521-0.018-2.313,0
				H52.288c-14.619-0.334-20.31,5.524-22.106,7.246c-2.395,2.292-3.032,21.332-0.932,25.519c2.1,4.187,13.222,9.756,20.212,10.865
				c20.807,3.303,22.43,3.084,42.369,0c6.996-1.082,18.113-6.679,20.213-10.865S113.507,53.639,111.112,51.347z"/>
		</g>
		<g>
			<path class="st69" d="M51.832,91.067c0,0,9.39,2.405,18.846,2.405s18.25-2.405,18.25-2.405l-18.28-28.678L51.832,91.067z"/>
		</g>
		<g>
			<path class="st53" d="M77.892,91.407c0,2.382-4.25,3.095-7.264,3.095l0,0c-3.014,0-7.263-0.713-7.263-3.095l2.941-18.35
				c0-2.383,1.308-4.314,4.321-4.314l0,0c3.014,0,4.32,1.932,4.32,4.314L77.892,91.407z"/>
		</g>
		<g>
			<path class="st30" d="M70.628,94.501L70.628,94.501c-3.014,0-7.263-0.713-7.263-3.095l2.941-18.35
				c0-2.383,1.308-4.314,4.321-4.314l0,0V94.501z"/>
		</g>
		<g>
			<path class="st59" d="M117.247,58.799c-1.922-1.523-9.559-6.451-23.359-6.892v-0.02h-0.776c-0.817-0.016-1.654-0.017-2.515,0
				H50.697c-15.886-0.318-24.58,5.271-26.65,6.911c-2.758,2.188-0.666,20.348,1.616,24.341c2.282,3.994,14.262,10.269,21.963,10.363
				c4.451,0.056,10.932-7.543,15.959-15.819c0.979-1.321,3.904-4.868,7.093-4.868c3.918,0,7.31,5.356,7.31,5.356l-0.011-0.047
				c4.988,8.104,11.319,15.433,15.69,15.378c7.701-0.095,19.682-6.369,21.963-10.363C117.913,79.147,120.005,60.987,117.247,58.799z
				 M70.372,63.372c0.102-0.337,0.193-0.665,0.275-0.982c0.082,0.317,0.174,0.646,0.275,0.982H70.372z"/>
		</g>
		<g>
			<path class="st33" d="M112.852,61.448c-1.517-1.203-7.431-5.02-18.071-5.542v-0.05h-1.489c-0.676-0.014-1.364-0.015-2.075,0
				H50.078c-0.711-0.015-1.399-0.014-2.075,0h-1.031v0.026c-10.932,0.433-16.991,4.346-18.529,5.565
				c-2.232,1.77-0.539,16.469,1.308,19.701c1.848,3.231,11.544,8.311,17.777,8.388c4.793,0.06,12.496-10.846,16.467-19.422
				l-0.028,0.123c0,0,2.811-6.844,6.712-6.844h0.001c2.824,0,5.075,3.586,6.104,5.565c3.781,8.718,11.973,20.639,16.984,20.577
				c6.233-0.077,15.93-5.156,17.777-8.388C113.391,77.917,115.083,63.217,112.852,61.448z"/>
		</g>
		<g>
			<path class="st69" d="M63.669,64.683c-1.257,6.679-10.845,22.548-16.201,22.481c-5.355-0.066-13.688-4.43-15.274-7.207
				S29.152,64.55,31.069,63.03c1.918-1.521,12.011-7.913,31.211-2.976C64.594,60.65,64.158,62.081,63.669,64.683z"/>
		</g>
		<g>
			<path class="st69" d="M77.625,64.683c1.257,6.679,10.845,22.548,16.2,22.481c5.356-0.066,13.688-4.43,15.275-7.207
				c1.586-2.777,3.041-15.407,1.123-16.928c-1.917-1.521-12.01-7.913-31.21-2.976C76.7,60.65,77.136,62.081,77.625,64.683z"/>
		</g>
	</g>
</g>
</svg>
