<?xml version="1.0" encoding="utf-8"?>
<!-- Generator: Adobe Illustrator 16.0.0, SVG Export Plug-In . SVG Version: 6.00 Build 0)  -->
<!DOCTYPE svg PUBLIC "-//W3C//DTD SVG 1.1//EN" "http://www.w3.org/Graphics/SVG/1.1/DTD/svg11.dtd">
<svg version="1.1" id="Layer_1" xmlns="http://www.w3.org/2000/svg" xmlns:xlink="http://www.w3.org/1999/xlink" x="0px" y="0px"
	 width="136.833px" height="136.833px" viewBox="0 0 136.833 136.833" style="enable-background:new 0 0 136.833 136.833;"
	 xml:space="preserve">
<style type="text/css">
<![CDATA[
	.st0{fill:#47A4A9;}
	.st1{fill:#49A0AE;}
	.st2{fill:#E0E1D4;}
	.st3{fill:#E1B623;}
	.st4{fill:#1467A8;}
	.st5{fill-rule:evenodd;clip-rule:evenodd;fill:#757575;}
	.st6{fill:#E4C025;}
	.st7{fill:#E4DEDF;}
	.st8{fill:#4A4A4A;}
	.st9{fill:#4ABC96;}
	.st10{fill:#E5DBC5;}
	.st11{fill:#19241E;}
	.st12{fill:#E7E7E7;}
	.st13{fill:#E8E1D3;}
	.st14{fill:#E96238;}
	.st15{fill:#E9C29C;}
	.st16{fill:#E9E9EA;}
	.st17{fill-rule:evenodd;clip-rule:evenodd;fill:#DDDDDC;}
	.st18{fill:#4FAFB9;}
	.st19{fill:#B1D4D7;}
	.st20{fill:#B3E0DF;}
	.st21{fill:#B8E3EB;}
	.st22{fill:#ECE9E9;}
	.st23{fill:#ECECEC;}
	.st24{fill:#ED7B3A;}
	.st25{fill:#EDC92C;}
	.st26{fill:#EEB488;}
	.st27{fill:#525252;}
	.st28{fill-rule:evenodd;clip-rule:evenodd;fill:#E4E4E4;}
	.st29{fill-rule:evenodd;clip-rule:evenodd;fill:#4B4A4B;}
	.st30{fill:#BDD2CE;}
	.st31{fill:#BFC1A9;}
	.st32{fill:#F16D53;}
	.st33{fill:#5A5A5A;}
	.st34{fill-rule:evenodd;clip-rule:evenodd;fill:#B5B2B3;}
	.st35{fill:#5C5C5C;}
	.st36{fill:#F7C192;}
	.st37{fill:#959595;}
	.st38{fill:#C4E2E7;}
	.st39{fill:#C6CBC8;}
	.st40{fill:#989897;}
	.st41{fill:#99999A;}
	.st42{opacity:0.2;}
	.st43{opacity:0.6;}
	.st44{opacity:0.8;}
	.st45{opacity:0.9;}
	.st46{fill:#606060;}
	.st47{fill-rule:evenodd;clip-rule:evenodd;fill:#BFC1A9;}
	.st48{fill:#FFFFFF;}
	.st49{fill:none;}
	.st50{fill-rule:evenodd;clip-rule:evenodd;fill:#5A5A5A;}
	.st51{fill:#676767;}
	.st52{fill:#67C3C8;}
	.st53{fill:#CAD8D4;}
	.st54{fill-rule:evenodd;clip-rule:evenodd;fill:#C0BEBF;}
	.st55{fill:#343433;}
	.st56{fill:#343A36;}
	.st57{fill:#353535;}
	.st58{fill:#357180;}
	.st59{fill:#377EC0;}
	.st60{fill:#6B491E;}
	.st61{fill:#6D6D6D;}
	.st62{fill-rule:evenodd;clip-rule:evenodd;fill:#616161;}
	.st63{fill:#D4DFDC;}
	.st64{fill:#D62127;}
	.st65{fill:#D6B429;}
	.st66{fill:#D7D0BC;}
	.st67{fill:#D7DABA;}
	.st68{fill:#3D929A;}
	.st69{fill:#D8E4E1;}
	.st70{fill:#D96527;}
	.st71{fill-rule:evenodd;clip-rule:evenodd;fill:#CDCCCB;}
	.st72{fill:#717171;}
	.st73{fill:#A19F9F;}
	.st74{fill:#A2D4DE;}
	.st75{fill:#DA1F26;}
	.st76{fill:#0C808B;}
	.st77{fill:#A7CACB;}
	.st78{fill:#DBDBDA;}
	.st79{fill:#DD5231;}
	.st80{fill:#409FA4;}
	.st81{fill:#DFBB26;}
	.st82{fill:#444445;}
	.st83{fill:#444545;}
]]>
</style>
<g>
	<g>
		<circle class="st74" cx="68.417" cy="68.417" r="63.333"/>
	</g>
	<g>
		<path class="st58" d="M127.239,91.932c-9.336,23.334-32.156,39.818-58.824,39.818c-26.781,0-49.68-16.625-58.94-40.117
			C8.057,88.04,38.226,80.604,68.384,80.668C98.544,80.733,128.694,88.297,127.239,91.932z"/>
	</g>
	<g>
		<g>
			<g>
				<rect x="49.526" y="36.168" class="st22" width="37.83" height="23.086"/>
			</g>
			<g>
				<g>
					<g>
						<g>
							<rect x="90.813" y="40.043" class="st27" width="1" height="21.875"/>
						</g>
					</g>
					<g>
						<ellipse class="st27" cx="91.251" cy="39.95" rx="1.063" ry="0.406"/>
					</g>
				</g>
				<g>
					<g>
						<path class="st64" d="M101.825,40.823H91.11c-0.305,0-0.551,0.248-0.551,0.551v6.494c0,0.305,0.246,0.551,0.551,0.551h10.715
							c0.305,0,0.551-0.246,0.551-0.551v-6.494C102.376,41.071,102.13,40.823,101.825,40.823z"/>
					</g>
					<g>
						<g>
							<path class="st48" d="M102.376,47.868v-0.459l-10.48-6.586H91.11c-0.305,0-0.551,0.248-0.551,0.551v0.348l10.66,6.697h0.605
								C102.13,48.418,102.376,48.172,102.376,47.868z"/>
						</g>
					</g>
				</g>
			</g>
			<g>
				<rect x="49.526" y="36.168" class="st12" width="19.063" height="23.086"/>
			</g>
			<g>
				<rect x="51.751" y="39.235" class="st7" width="33.379" height="11.586"/>
			</g>
			<g>
				<rect x="52.864" y="40.467" class="st19" width="31.154" height="9.121"/>
			</g>
			<g>
				<rect x="52.864" y="40.467" class="st77" width="15.576" height="9.121"/>
			</g>
		</g>
		<g>
			<polygon class="st10" points="91.288,98.6 46.04,98.6 31.278,61.668 68.663,57.217 106.048,61.668 			"/>
		</g>
		<g>
			<polygon class="st13" points="91.288,98.6 68.663,98.6 68.663,57.217 106.048,61.668 			"/>
		</g>
		<g>
			<polygon class="st10" points="32.017,64.045 31.278,61.418 68.663,56.967 106.048,61.418 105.163,64.565 68.96,59.934 			"/>
		</g>
		<g>
			<polygon class="st66" points="32.017,64.045 31.278,61.418 68.663,56.967 68.655,59.969 			"/>
		</g>
	</g>
</g>
</svg>
