<?xml version="1.0" encoding="utf-8"?>
<!-- Generator: Adobe Illustrator 16.0.0, SVG Export Plug-In . SVG Version: 6.00 Build 0)  -->
<!DOCTYPE svg PUBLIC "-//W3C//DTD SVG 1.1//EN" "http://www.w3.org/Graphics/SVG/1.1/DTD/svg11.dtd">
<svg version="1.1" id="Layer_1" xmlns="http://www.w3.org/2000/svg" xmlns:xlink="http://www.w3.org/1999/xlink" x="0px" y="0px"
	 width="136.833px" height="136.833px" viewBox="0 0 136.833 136.833" style="enable-background:new 0 0 136.833 136.833;"
	 xml:space="preserve">
<style type="text/css">
<![CDATA[
	.st0{fill:#47A4A9;}
	.st1{fill:#49A0AE;}
	.st2{fill:#E0E1D4;}
	.st3{fill:#E1B623;}
	.st4{fill:#1467A8;}
	.st5{fill-rule:evenodd;clip-rule:evenodd;fill:#757575;}
	.st6{fill:#E4C025;}
	.st7{fill:#E4DEDF;}
	.st8{fill:#4A4A4A;}
	.st9{fill:#4ABC96;}
	.st10{fill:#E5DBC5;}
	.st11{fill:#19241E;}
	.st12{fill:#E7E7E7;}
	.st13{fill:#E8E1D3;}
	.st14{fill:#E96238;}
	.st15{fill:#E9C29C;}
	.st16{fill:#E9E9EA;}
	.st17{fill-rule:evenodd;clip-rule:evenodd;fill:#DDDDDC;}
	.st18{fill:#4FAFB9;}
	.st19{fill:#B1D4D7;}
	.st20{fill:#B3E0DF;}
	.st21{fill:#B8E3EB;}
	.st22{fill:#ECE9E9;}
	.st23{fill:#ECECEC;}
	.st24{fill:#ED7B3A;}
	.st25{fill:#EDC92C;}
	.st26{fill:#EEB488;}
	.st27{fill:#525252;}
	.st28{fill-rule:evenodd;clip-rule:evenodd;fill:#E4E4E4;}
	.st29{fill-rule:evenodd;clip-rule:evenodd;fill:#4B4A4B;}
	.st30{fill:#BDD2CE;}
	.st31{fill:#BFC1A9;}
	.st32{fill:#F16D53;}
	.st33{fill:#5A5A5A;}
	.st34{fill-rule:evenodd;clip-rule:evenodd;fill:#B5B2B3;}
	.st35{fill:#5C5C5C;}
	.st36{fill:#F7C192;}
	.st37{fill:#959595;}
	.st38{fill:#C4E2E7;}
	.st39{fill:#C6CBC8;}
	.st40{fill:#989897;}
	.st41{fill:#99999A;}
	.st42{opacity:0.2;}
	.st43{opacity:0.6;}
	.st44{opacity:0.8;}
	.st45{opacity:0.9;}
	.st46{fill:#606060;}
	.st47{fill-rule:evenodd;clip-rule:evenodd;fill:#BFC1A9;}
	.st48{fill:#FFFFFF;}
	.st49{fill:none;}
	.st50{fill-rule:evenodd;clip-rule:evenodd;fill:#5A5A5A;}
	.st51{fill:#676767;}
	.st52{fill:#67C3C8;}
	.st53{fill:#CAD8D4;}
	.st54{fill-rule:evenodd;clip-rule:evenodd;fill:#C0BEBF;}
	.st55{fill:#343433;}
	.st56{fill:#343A36;}
	.st57{fill:#353535;}
	.st58{fill:#357180;}
	.st59{fill:#377EC0;}
	.st60{fill:#6B491E;}
	.st61{fill:#6D6D6D;}
	.st62{fill-rule:evenodd;clip-rule:evenodd;fill:#616161;}
	.st63{fill:#D4DFDC;}
	.st64{fill:#D62127;}
	.st65{fill:#D6B429;}
	.st66{fill:#D7D0BC;}
	.st67{fill:#D7DABA;}
	.st68{fill:#3D929A;}
	.st69{fill:#D8E4E1;}
	.st70{fill:#D96527;}
	.st71{fill-rule:evenodd;clip-rule:evenodd;fill:#CDCCCB;}
	.st72{fill:#717171;}
	.st73{fill:#A19F9F;}
	.st74{fill:#A2D4DE;}
	.st75{fill:#DA1F26;}
	.st76{fill:#0C808B;}
	.st77{fill:#A7CACB;}
	.st78{fill:#DBDBDA;}
	.st79{fill:#DD5231;}
	.st80{fill:#409FA4;}
	.st81{fill:#DFBB26;}
	.st82{fill:#444445;}
	.st83{fill:#444545;}
]]>
</style>
<g>
	<g>
		<circle class="st9" cx="68.417" cy="68.417" r="63.333"/>
	</g>
	<g>
		<g>
			<g>
				<g>
					<path class="st67" d="M93.828,28.98H43.005c-2.26,0-4.09,1.833-4.09,4.092v70.688c0,2.259,1.83,4.091,4.09,4.091h50.822
						c2.258,0,4.09-1.832,4.09-4.091V33.072C97.917,30.813,96.085,28.98,93.828,28.98z M68.417,35.198
						c-1.063,0-1.925-0.859-1.925-1.925c0-1.063,0.861-1.924,1.925-1.924s1.925,0.86,1.925,1.924
						C70.341,34.338,69.48,35.198,68.417,35.198z"/>
				</g>
			</g>
			<g>
				<path class="st2" d="M93.324,29.762H43.509c-2.216,0-4.01,1.795-4.01,4.01v69.289c0,2.214,1.794,4.01,4.01,4.01h49.814
					c2.215,0,4.01-1.796,4.01-4.01V33.772C97.333,31.557,95.539,29.762,93.324,29.762z M68.417,35.898
					c-1.45,0-2.625-1.175-2.625-2.625c0-1.449,1.175-2.625,2.625-2.625s2.625,1.176,2.625,2.625
					C71.042,34.723,69.867,35.898,68.417,35.898z"/>
			</g>
		</g>
		<g>
			<g>
				<g>
					<path class="st31" d="M75.431,50.915c-0.038-0.224,0.749-0.269,0.733-0.327c-0.255-0.817-6.425-5.547-6.903-5.269
						c-0.482,0.285-1.505,3.527-2.272,4.112c-1.35-2.921-3.224-1.849-3.224-1.849c1.019,1.02,1.14,2.502,1.14,2.502
						s-0.517,1.194-2.023,2.339c0,0,1.617,1.446,3.549-1.144c0.632,0.617,2.325,4.188,2.831,4.487
						c0.418,0.243,6.178-2.838,6.883-4.727C76.184,50.927,75.477,51.201,75.431,50.915z M72.312,50.151
						c-0.271,0-0.491-0.22-0.491-0.491s0.22-0.49,0.491-0.49c0.271,0,0.49,0.219,0.49,0.49S72.583,50.151,72.312,50.151z"/>
				</g>
				<g>
					<g>
						<path class="st31" d="M57.55,50.792c-0.01-0.059-0.595,0.311-0.634,0.067c-0.032-0.189,0.637-0.228,0.623-0.277
							c-0.217-0.694-1.902-2.098-4.206-2.289c-0.074-0.006-0.154,0-0.231-0.003c-0.104-0.075-1.02-0.739-1.427-0.503
							c-0.409,0.242-0.074,0.706-0.041,0.751c-0.607,0.211-1.237,0.564-1.889,1.062c-1.146-2.481-2.738-1.57-2.738-1.57
							c-0.419,0.991,0.339,1.719,0.968,2.125c-0.697,0.206-1.957,0.75-1.719,1.987c0,0,1.374,1.229,3.015-0.972
							c0.536,0.524,1.411,1.234,2.489,1.634l-0.122-0.02c0,0-0.393,0.503,0.037,0.757c0.355,0.207,1.099-0.274,1.353-0.451
							c0.148,0.012,0.298,0.019,0.45,0.014c1.201-0.037,3.445-0.532,4.044-2.137C57.556,50.87,57.559,50.844,57.55,50.792z
							 M55.226,50.46c-0.23,0-0.417-0.187-0.417-0.417s0.187-0.417,0.417-0.417c0.229,0,0.416,0.187,0.416,0.417
							S55.456,50.46,55.226,50.46z"/>
					</g>
				</g>
				<g>
					<g>
						<path class="st31" d="M92.251,50.779c-0.008-0.053-0.539,0.281-0.574,0.062c-0.029-0.172,0.576-0.206,0.564-0.252
							c-0.197-0.629-1.723-1.9-3.811-2.073c-0.066-0.006-0.141,0-0.211-0.003c-0.094-0.068-0.922-0.67-1.291-0.456
							c-0.371,0.22-0.067,0.641-0.036,0.681c-0.552,0.191-1.122,0.511-1.712,0.963c-0.365-0.878-1.189-0.729-1.189-0.729
							c-0.269,0.637,0.218,1.103,0.621,1.363c-0.448,0.133-1.256,0.481-1.103,1.274c0,0,0.586,0.396,1.24-0.487
							c0.486,0.475,1.279,1.118,2.256,1.48l-0.111-0.019c0,0-0.354,0.456,0.034,0.687c0.322,0.188,0.994-0.249,1.225-0.409
							c0.135,0.011,0.27,0.017,0.408,0.012c1.088-0.033,3.121-0.481,3.664-1.935C92.257,50.85,92.259,50.827,92.251,50.779z
							 M90.146,50.763c-0.365,0-0.66-0.295-0.66-0.662c0-0.364,0.295-0.66,0.66-0.66c0.363,0,0.66,0.296,0.66,0.66
							C90.806,50.468,90.509,50.763,90.146,50.763z"/>
					</g>
				</g>
			</g>
			<g>
				<g>
					<g>
						<path class="st31" d="M75.576,94.717c-0.014-0.082-0.831,0.435-0.885,0.095c-0.046-0.265,0.889-0.318,0.87-0.388
							c-0.303-0.971-1.436-2.931-4.654-3.198c-0.104-0.009-0.216,0-0.323-0.004c-0.146-0.105-1.425-2.509-1.994-2.179
							c0,0-0.104,2.462-0.057,2.524c-0.849,0.295-0.36,0.789-1.271,1.483c-1.602-3.467-3.825-2.194-3.825-2.194
							s0.473,2.402,1.352,2.97c-0.974,0.288-2.401,2.776-2.401,2.776s1.92,1.717,4.212-1.357c0.749,0.732,0.603,1.725,2.109,2.283
							l-0.171-0.027l0.052,2.417c0.497,0.289,1.535-1.743,1.891-1.99c0.207,0.017,0.416,0.026,0.629,0.02
							c1.678-0.052,3.591-0.744,4.428-2.986C75.584,94.827,75.588,94.792,75.576,94.717z M73.551,94.255
							c-0.322,0-0.583-0.261-0.583-0.583s0.261-0.583,0.583-0.583c0.32,0,0.581,0.261,0.581,0.583S73.872,94.255,73.551,94.255z"/>
					</g>
				</g>
				<g>
					<g>
						<path class="st31" d="M57.618,94.631c-0.01-0.063-0.645,0.337-0.688,0.073c-0.033-0.205,0.69-0.246,0.675-0.301
							c-0.233-0.752-2.059-2.271-4.552-2.477c-0.08-0.007-0.167,0-0.252-0.004c-0.112-0.082-2.111-2.004-2.552-1.747
							c-0.445,0.263,0.928,1.968,0.965,2.016c-0.66,0.228-1.341,0.609-2.045,1.15c-0.437-1.049-3.15-2.154-3.15-2.154
							c-0.321,0.949,1.988,2.601,2.471,2.913c-0.535,0.157-3.229-0.163-3.046,1.018c0,0,2.429,0.979,3.21-0.077
							c0.582,0.567,1.529,1.336,2.696,1.768l-0.134-0.021c0,0-1.792,1.222-1.328,1.496c0.385,0.224,2.559-0.974,2.834-1.165
							c0.159,0.013,0.321,0.02,0.487,0.014c1.301-0.039,3.729-0.576,4.377-2.312C57.625,94.716,57.627,94.688,57.618,94.631z
							 M54.921,94.613c-0.336,0-0.609-0.272-0.609-0.61c0-0.337,0.273-0.608,0.609-0.608c0.335,0,0.608,0.271,0.608,0.608
							C55.53,94.34,55.256,94.613,54.921,94.613z"/>
					</g>
				</g>
			</g>
			<g>
				<g>
					<path class="st31" d="M57.162,73.261c-0.036-0.216,0.727-0.259,0.711-0.316c0-3.321-8.209-5.372-8.673-5.103
						c-0.467,0.276,2.66,4.062-0.214,3.982c-1.308-2.829-3.122-1.79-3.122-1.79c0.986,0.987,1.104,2.423,1.104,2.423
						s-0.5,1.157-1.96,2.266c0,0,1.566,1.401,3.438-1.107c2.94,0.948,0.265,4.057,0.755,4.346c0.405,0.236,8.652-1.212,8.652-4.577
						C57.852,73.267,57.207,73.539,57.162,73.261z M54.141,72.864c-0.451,0-0.816-0.366-0.816-0.817c0-0.45,0.365-0.815,0.816-0.815
						s0.815,0.365,0.815,0.815C54.957,72.498,54.592,72.864,54.141,72.864z"/>
				</g>
				<g>
					<g>
						<path class="st31" d="M76.278,73.354c-0.041-0.161,0.82-0.193,0.803-0.235c-0.279-0.588-2.45-1.779-5.418-1.941
							c-0.096-0.005-0.198,0-0.298-0.003c-0.135-0.063-1.313-0.626-1.838-0.426c-0.526,0.206-0.096,0.599-0.053,0.638
							c-0.782,0.178-1.594,0.478-2.433,0.898c-1.477-2.104-3.527-1.33-3.527-1.33s0.437,1.456,1.247,1.801
							c-0.898,0.175-2.214,1.686-2.214,1.686s1.77,1.043,3.883-0.823c0.69,0.444,1.817,1.046,3.206,1.386l-0.157-0.018
							c0,0-0.505,0.428,0.048,0.643c0.458,0.175,1.415-0.232,1.742-0.382c0.191,0.009,0.384,0.015,0.58,0.011
							c1.547-0.031,4.438-0.451,5.209-1.813C77.102,73.363,76.329,73.561,76.278,73.354z M73.964,73.221
							c-0.289,0-0.522-0.234-0.522-0.523s0.233-0.523,0.522-0.523c0.29,0,0.523,0.234,0.523,0.523S74.254,73.221,73.964,73.221z"/>
					</g>
				</g>
				<g>
					<g>
						<path class="st31" d="M93.46,73.16c-0.025-0.102,0.516-0.122,0.504-0.148c-0.174-0.37-2.566-1.119-4.434-1.221
							c-0.061-0.003-0.125,0-0.188-0.002c-0.084-0.04-0.824-0.393-1.154-0.268c-0.332,0.13-0.061,0.376-0.033,0.401
							c-0.492,0.111-4.02,0.3-4.547,0.564c-0.928-1.323-2.218-0.836-2.218-0.836s0.274,0.916,0.784,1.132
							c-0.564,0.109-1.392,1.06-1.392,1.06s1.112,0.656,2.44-0.518c0.435,0.28,4.16,0.658,5.033,0.871l-0.098-0.011
							c0,0-0.318,0.269,0.029,0.404c0.287,0.109,0.889-0.146,1.096-0.24c0.119,0.005,0.24,0.01,0.363,0.007
							c0.973-0.02,3.818-0.283,4.303-1.14C93.978,73.165,93.492,73.289,93.46,73.16z M91.41,73.075c-0.182,0-0.33-0.146-0.33-0.328
							c0-0.182,0.148-0.329,0.33-0.329s0.328,0.147,0.328,0.329C91.738,72.929,91.591,73.075,91.41,73.075z"/>
					</g>
				</g>
			</g>
		</g>
		<g>
			<rect x="45.849" y="61.543" class="st31" width="46.75" height="0.5"/>
		</g>
		<g>
			<rect x="59.973" y="42.168" class="st31" width="0.5" height="60.582"/>
		</g>
		<g>
			<rect x="78.473" y="42.168" class="st31" width="0.5" height="60.582"/>
		</g>
		<g>
			<rect x="45.849" y="83.793" class="st31" width="46.75" height="0.5"/>
		</g>
		<g>
			<path class="st31" d="M93.027,95.761l0.156-0.29l-0.371-0.185l-0.186,0.271c-0.08-0.058-0.145-0.121-0.156-0.197
				c-0.035-0.211,0.707-0.805,0.691-0.86c-0.184-0.587-1.314-1.308-2.973-1.714c-0.402-0.425-1.1-0.896-2.281-1.016l0.592,0.74
				c-0.002,0-0.006-0.001-0.008-0.001c-0.084-0.007-0.172,0-0.258-0.003c-0.115-0.084-1.132-0.821-1.584-0.559
				c0,0-0.083,0.784-0.046,0.834c-0.675,0.234-1.374,0.627-2.098,1.179c-1.273-2.756-3.041-1.744-3.041-1.744
				s0.376,1.909,1.075,2.36c-0.774,0.229-1.909,2.207-1.909,2.207s1.526,1.364,3.348-1.079c0.596,0.582,1.567,1.371,2.765,1.814
				l-0.135-0.021l0.041,0.841c0.395,0.229,1.219-0.306,1.502-0.502c0.164,0.014,0.33,0.021,0.5,0.016
				c0.039-0.001,0.09-0.003,0.131-0.004l-0.875,1.095c1.355-0.138,2.074-0.737,2.439-1.198c1.158-0.15,2.363-0.549,2.795-1.708
				c0.039-0.107,0.041-0.136,0.031-0.194C93.171,95.823,93.107,95.794,93.027,95.761z M90.593,94.917
				c-0.256,0-0.463-0.207-0.463-0.464c0-0.256,0.207-0.463,0.463-0.463c0.254,0,0.461,0.207,0.461,0.463
				C91.054,94.71,90.847,94.917,90.593,94.917z"/>
		</g>
	</g>
</g>
</svg>
