<?xml version="1.0" encoding="utf-8"?>
<!-- Generator: Adobe Illustrator 16.0.0, SVG Export Plug-In . SVG Version: 6.00 Build 0)  -->
<!DOCTYPE svg PUBLIC "-//W3C//DTD SVG 1.1//EN" "http://www.w3.org/Graphics/SVG/1.1/DTD/svg11.dtd">
<svg version="1.1" id="Layer_1" xmlns="http://www.w3.org/2000/svg" xmlns:xlink="http://www.w3.org/1999/xlink" x="0px" y="0px"
	 width="136.833px" height="136.834px" viewBox="0 0 136.833 136.834" style="enable-background:new 0 0 136.833 136.834;"
	 xml:space="preserve">
<style type="text/css">
<![CDATA[
	.st0{fill:#47A4A9;}
	.st1{fill:#49A0AE;}
	.st2{fill:#E0E1D4;}
	.st3{fill:#E1B623;}
	.st4{fill:#1467A8;}
	.st5{fill-rule:evenodd;clip-rule:evenodd;fill:#757575;}
	.st6{fill:#E4C025;}
	.st7{fill:#E4DEDF;}
	.st8{fill:#4A4A4A;}
	.st9{fill:#4ABC96;}
	.st10{fill:#E5DBC5;}
	.st11{fill:#19241E;}
	.st12{fill:#E7E7E7;}
	.st13{fill:#E8E1D3;}
	.st14{fill:#E96238;}
	.st15{fill:#E9C29C;}
	.st16{fill:#E9E9EA;}
	.st17{fill-rule:evenodd;clip-rule:evenodd;fill:#DDDDDC;}
	.st18{fill:#4FAFB9;}
	.st19{fill:#B1D4D7;}
	.st20{fill:#B3E0DF;}
	.st21{fill:#B8E3EB;}
	.st22{fill:#ECE9E9;}
	.st23{fill:#ECECEC;}
	.st24{fill:#ED7B3A;}
	.st25{fill:#EDC92C;}
	.st26{fill:#EEB488;}
	.st27{fill:#525252;}
	.st28{fill-rule:evenodd;clip-rule:evenodd;fill:#E4E4E4;}
	.st29{fill-rule:evenodd;clip-rule:evenodd;fill:#4B4A4B;}
	.st30{fill:#BDD2CE;}
	.st31{fill:#BFC1A9;}
	.st32{fill:#F16D53;}
	.st33{fill:#5A5A5A;}
	.st34{fill-rule:evenodd;clip-rule:evenodd;fill:#B5B2B3;}
	.st35{fill:#5C5C5C;}
	.st36{fill:#F7C192;}
	.st37{fill:#959595;}
	.st38{fill:#C4E2E7;}
	.st39{fill:#C6CBC8;}
	.st40{fill:#989897;}
	.st41{fill:#99999A;}
	.st42{opacity:0.2;}
	.st43{opacity:0.6;}
	.st44{opacity:0.8;}
	.st45{opacity:0.9;}
	.st46{fill:#606060;}
	.st47{fill-rule:evenodd;clip-rule:evenodd;fill:#BFC1A9;}
	.st48{fill:#FFFFFF;}
	.st49{fill:none;}
	.st50{fill-rule:evenodd;clip-rule:evenodd;fill:#5A5A5A;}
	.st51{fill:#676767;}
	.st52{fill:#67C3C8;}
	.st53{fill:#CAD8D4;}
	.st54{fill-rule:evenodd;clip-rule:evenodd;fill:#C0BEBF;}
	.st55{fill:#343433;}
	.st56{fill:#343A36;}
	.st57{fill:#353535;}
	.st58{fill:#357180;}
	.st59{fill:#377EC0;}
	.st60{fill:#6B491E;}
	.st61{fill:#6D6D6D;}
	.st62{fill-rule:evenodd;clip-rule:evenodd;fill:#616161;}
	.st63{fill:#D4DFDC;}
	.st64{fill:#D62127;}
	.st65{fill:#D6B429;}
	.st66{fill:#D7D0BC;}
	.st67{fill:#D7DABA;}
	.st68{fill:#3D929A;}
	.st69{fill:#D8E4E1;}
	.st70{fill:#D96527;}
	.st71{fill-rule:evenodd;clip-rule:evenodd;fill:#CDCCCB;}
	.st72{fill:#717171;}
	.st73{fill:#A19F9F;}
	.st74{fill:#A2D4DE;}
	.st75{fill:#DA1F26;}
	.st76{fill:#0C808B;}
	.st77{fill:#A7CACB;}
	.st78{fill:#DBDBDA;}
	.st79{fill:#DD5231;}
	.st80{fill:#409FA4;}
	.st81{fill:#DFBB26;}
	.st82{fill:#444445;}
	.st83{fill:#444545;}
]]>
</style>
<g>
	<g>
		<circle class="st1" cx="68.417" cy="68.417" r="63.332"/>
	</g>
	<g>
		<g>
			<g>
				<path class="st83" d="M86.073,103.489c-5.1,0-9.273-1.447-12.455-4.328c-7.088-6.42-6.371-17.492-6.338-17.96l3.99,0.289
					l-1.994-0.145l1.994,0.142c-0.006,0.096-0.596,9.629,5.047,14.723c3.307,2.985,8.225,3.936,14.617,2.831
					c7.482-1.295,16.117-14.242,15.615-28.377c-0.318-8.943-4.787-24.343-31.141-26.995c-17.111-1.725-38.248,0.585-41.83,21.35
					c-1.271,7.377,1.938,14.993,9.813,23.283l-2.9,2.754c-8.682-9.141-12.334-18.129-10.854-26.717
					c3.203-18.57,19.594-27.327,46.172-24.65c30.473,3.068,34.443,22.585,34.736,30.834c0.531,14.909-8.67,30.685-18.93,32.46
					C89.663,103.32,87.813,103.489,86.073,103.489z"/>
			</g>
		</g>
		<g>
			<path class="st16" d="M46.063,92.59c0,0-0.07,0.369-0.664,0.775c-0.629,0.431-0.91,0.458-0.91,0.458l-2.004-2.559l1.574-1.233
				L46.063,92.59z"/>
		</g>
		<g>
			<path class="st83" d="M46.685,90.183c0,0-0.691,1.151-2.035,2.214s-2.682,1.764-2.682,1.764l-8.236-11.047l3.613-3.045
				L46.685,90.183z"/>
		</g>
	</g>
	<g>
		<g>
			<polygon class="st27" points="66.694,81.488 65.962,69.931 72.581,70.173 71.659,81.668 			"/>
		</g>
		<g>
			<g>
				<path class="st82" d="M79.28,48.414H62.388c-6.014,0-10.887,2.462-10.887,5.499c0,3.038,4.873,5.5,10.887,5.5H79.28
					c6.014,0,10.887-2.462,10.887-5.5C90.167,50.875,85.294,48.414,79.28,48.414z"/>
			</g>
			<g>
				<circle class="st33" cx="70.795" cy="54.412" r="17.265"/>
			</g>
			<g>
				<g>
					<path class="st72" d="M71.015,48.394c3.322,0.12,5.92,2.917,5.797,6.236c-0.119,3.325-2.914,5.92-6.238,5.799
						c-3.32-0.121-5.918-2.912-5.797-6.237C64.899,50.869,67.692,48.271,71.015,48.394z"/>
				</g>
				<g>
					<path class="st33" d="M70.966,49.7c2.604,0.096,4.635,2.281,4.541,4.884c-0.096,2.604-2.281,4.635-4.885,4.54
						c-2.598-0.095-4.633-2.281-4.539-4.884C66.179,51.637,68.366,49.605,70.966,49.7z"/>
				</g>
				<g>
					<path class="st27" d="M73.251,51.992c1.156,1.24,1.314,2.959,0.357,3.849c-0.955,0.889-5.127-3.592-4.17-4.479
						C70.394,50.469,72.104,50.757,73.251,51.992z"/>
				</g>
			</g>
			<g>
				<g>
					<g>
						<path class="st51" d="M71.841,44.749c4.965,0.183,8.846,4.354,8.666,9.322l4.252,0.154c0.27-7.316-5.445-13.465-12.764-13.731
							c-0.023-0.002-0.045,0.002-0.068,0l-0.156,4.259C71.794,44.753,71.815,44.75,71.841,44.749z"/>
					</g>
				</g>
				<g>
					<g>
						<path class="st51" d="M70.556,44.704c-4.965-0.183-9.137,3.695-9.318,8.663l-4.256-0.155
							c0.27-7.316,6.412-13.031,13.73-12.766c0.025,0.001,0.049,0.006,0.072,0.006l-0.156,4.259
							C70.604,44.709,70.581,44.705,70.556,44.704z"/>
					</g>
				</g>
				<g>
					<g>
						<path class="st51" d="M71.136,64.03c4.967,0.181,9.141-3.698,9.322-8.664l4.254,0.154c-0.266,7.315-6.414,13.031-13.73,12.766
							c-0.025-0.001-0.047-0.006-0.07-0.006l0.154-4.259C71.089,64.022,71.11,64.029,71.136,64.03z"/>
					</g>
				</g>
				<g>
					<g>
						<path class="st51" d="M69.853,63.983c-4.967-0.181-8.844-4.355-8.664-9.321l-4.254-0.156
							c-0.268,7.316,5.445,13.466,12.762,13.733c0.025,0.001,0.049-0.001,0.072-0.002l0.156-4.258
							C69.901,63.978,69.878,63.984,69.853,63.983z"/>
					</g>
				</g>
			</g>
		</g>
	</g>
</g>
</svg>
