<?xml version="1.0" encoding="utf-8"?>
<!-- Generator: Adobe Illustrator 16.0.0, SVG Export Plug-In . SVG Version: 6.00 Build 0)  -->
<!DOCTYPE svg PUBLIC "-//W3C//DTD SVG 1.1//EN" "http://www.w3.org/Graphics/SVG/1.1/DTD/svg11.dtd">
<svg version="1.1" id="Layer_1" xmlns="http://www.w3.org/2000/svg" xmlns:xlink="http://www.w3.org/1999/xlink" x="0px" y="0px"
	 width="136.833px" height="136.834px" viewBox="0 0 136.833 136.834" style="enable-background:new 0 0 136.833 136.834;"
	 xml:space="preserve">
<style type="text/css">
<![CDATA[
	.st0{fill:#47A4A9;}
	.st1{fill:#49A0AE;}
	.st2{fill:#E0E1D4;}
	.st3{fill:#E1B623;}
	.st4{fill:#1467A8;}
	.st5{fill-rule:evenodd;clip-rule:evenodd;fill:#757575;}
	.st6{fill:#E4C025;}
	.st7{fill:#E4DEDF;}
	.st8{fill:#4A4A4A;}
	.st9{fill:#4ABC96;}
	.st10{fill:#E5DBC5;}
	.st11{fill:#19241E;}
	.st12{fill:#E7E7E7;}
	.st13{fill:#E8E1D3;}
	.st14{fill:#E96238;}
	.st15{fill:#E9C29C;}
	.st16{fill:#E9E9EA;}
	.st17{fill-rule:evenodd;clip-rule:evenodd;fill:#DDDDDC;}
	.st18{fill:#4FAFB9;}
	.st19{fill:#B1D4D7;}
	.st20{fill:#B3E0DF;}
	.st21{fill:#B8E3EB;}
	.st22{fill:#ECE9E9;}
	.st23{fill:#ECECEC;}
	.st24{fill:#ED7B3A;}
	.st25{fill:#EDC92C;}
	.st26{fill:#EEB488;}
	.st27{fill:#525252;}
	.st28{fill-rule:evenodd;clip-rule:evenodd;fill:#E4E4E4;}
	.st29{fill-rule:evenodd;clip-rule:evenodd;fill:#4B4A4B;}
	.st30{fill:#BDD2CE;}
	.st31{fill:#BFC1A9;}
	.st32{fill:#F16D53;}
	.st33{fill:#5A5A5A;}
	.st34{fill-rule:evenodd;clip-rule:evenodd;fill:#B5B2B3;}
	.st35{fill:#5C5C5C;}
	.st36{fill:#F7C192;}
	.st37{fill:#959595;}
	.st38{fill:#C4E2E7;}
	.st39{fill:#C6CBC8;}
	.st40{fill:#989897;}
	.st41{fill:#99999A;}
	.st42{opacity:0.2;}
	.st43{opacity:0.6;}
	.st44{opacity:0.8;}
	.st45{opacity:0.9;}
	.st46{fill:#606060;}
	.st47{fill-rule:evenodd;clip-rule:evenodd;fill:#BFC1A9;}
	.st48{fill:#FFFFFF;}
	.st49{fill:none;}
	.st50{fill-rule:evenodd;clip-rule:evenodd;fill:#5A5A5A;}
	.st51{fill:#676767;}
	.st52{fill:#67C3C8;}
	.st53{fill:#CAD8D4;}
	.st54{fill-rule:evenodd;clip-rule:evenodd;fill:#C0BEBF;}
	.st55{fill:#343433;}
	.st56{fill:#343A36;}
	.st57{fill:#353535;}
	.st58{fill:#357180;}
	.st59{fill:#377EC0;}
	.st60{fill:#6B491E;}
	.st61{fill:#6D6D6D;}
	.st62{fill-rule:evenodd;clip-rule:evenodd;fill:#616161;}
	.st63{fill:#D4DFDC;}
	.st64{fill:#D62127;}
	.st65{fill:#D6B429;}
	.st66{fill:#D7D0BC;}
	.st67{fill:#D7DABA;}
	.st68{fill:#3D929A;}
	.st69{fill:#D8E4E1;}
	.st70{fill:#D96527;}
	.st71{fill-rule:evenodd;clip-rule:evenodd;fill:#CDCCCB;}
	.st72{fill:#717171;}
	.st73{fill:#A19F9F;}
	.st74{fill:#A2D4DE;}
	.st75{fill:#DA1F26;}
	.st76{fill:#0C808B;}
	.st77{fill:#A7CACB;}
	.st78{fill:#DBDBDA;}
	.st79{fill:#DD5231;}
	.st80{fill:#409FA4;}
	.st81{fill:#DFBB26;}
	.st82{fill:#444445;}
	.st83{fill:#444545;}
]]>
</style>
<g>
	<g>
		<circle class="st58" cx="68.417" cy="68.417" r="63.332"/>
	</g>
	<g>
		<g>
			<g>
				<path class="st83" d="M55.879,70.346c0,0,8.82-0.588,29.696-7.938c0,0,8.231-4.999,9.995,1.175c0,0,2.846,12.085,5.596,15.21
					c0,0,7.5,2.708,10.969,1.06c0,0,4.619-0.572,5.281,0.898c0,0,1.188,2.63-2.734,3.708c0,0-7.055,0.49-15.289-1.471
					c0,0-4.684-0.206-9.977-9.32c0,0-12.76,5.597-29.127,5.498c0,0-14.406-2.646-24.991-13.524l2.352-3.528
					C37.65,62.114,48.529,69.758,55.879,70.346z"/>
			</g>
			<g>
				<path class="st63" d="M92.231,57.977c-0.629-2.077-2.822-3.25-4.896-2.62L67.36,61.472c-2.076,0.628-3.249,2.821-2.62,4.896
					c0.628,2.076,2.821,3.248,4.896,2.62l19.976-6.114C91.688,62.244,92.858,60.051,92.231,57.977z"/>
			</g>
			<g>
				<path class="st39" d="M92.231,57.977L64.74,66.368c0.628,2.076,2.821,3.248,4.896,2.62l19.976-6.114
					C91.688,62.244,92.858,60.051,92.231,57.977z"/>
			</g>
			<g>
				<path class="st83" d="M64.259,69.612L53.38,71.375c0,0-6.321-8.379-7.204-19.552l4.411-1.471
					C50.587,50.353,54.263,64.908,64.259,69.612z"/>
			</g>
			<g>
				<path class="st18" d="M32.211,36.682c0,0,4.558,10.144,13.965,15.142c0,0,5.882-1.029,5.587-2.646
					c-0.294-1.616-13.083-6.763-16.758-11.761L32.211,36.682z"/>
			</g>
			<g>
				<path class="st18" d="M37.713,62.43c0,0,1.396-1.838-0.735-2.646c-1.382-0.523-2.769,0.245-4.386,2.156
					c-1.318,1.56-7.522,12.545-15.755,13.868l-1.616,1.911c0,0,13.672-0.588,20.14-11.761L37.713,62.43z"/>
			</g>
			<g>
				<circle class="st83" cx="100.128" cy="63.143" r="6.763"/>
			</g>
			<g>
				<ellipse class="st83" cx="104.638" cy="67.162" rx="1.911" ry="2.303"/>
			</g>
			<g>
				<path class="st18" d="M107.625,64.614c0,0.893-0.723,1.616-1.617,1.616l0,0c-0.893,0-1.617-0.724-1.617-1.616v-2.059
					c0-0.894,0.725-1.617,1.617-1.617l0,0c0.895,0,1.617,0.724,1.617,1.617V64.614z"/>
			</g>
		</g>
		<g>
			<circle class="st63" cx="109.619" cy="64.927" r="0.868"/>
		</g>
		<g>
			<ellipse class="st63" cx="111.159" cy="60.262" rx="1.814" ry="1.332"/>
		</g>
		<g>
			<path class="st63" d="M109.59,56.535c-1.623,0-2.932-0.838-2.932-1.87c0-1.03,1.309-1.868,2.932-1.868s2.934,0.838,2.934,1.868
				C112.524,55.697,111.213,56.535,109.59,56.535z"/>
		</g>
	</g>
</g>
</svg>
