<?xml version="1.0" encoding="utf-8"?>
<!-- Generator: Adobe Illustrator 16.0.0, SVG Export Plug-In . SVG Version: 6.00 Build 0)  -->
<!DOCTYPE svg PUBLIC "-//W3C//DTD SVG 1.1//EN" "http://www.w3.org/Graphics/SVG/1.1/DTD/svg11.dtd">
<svg version="1.1" id="Layer_1" xmlns="http://www.w3.org/2000/svg" xmlns:xlink="http://www.w3.org/1999/xlink" x="0px" y="0px"
	 width="136.833px" height="136.833px" viewBox="0 0 136.833 136.833" style="enable-background:new 0 0 136.833 136.833;"
	 xml:space="preserve">
<style type="text/css">
<![CDATA[
	.st0{fill:#47A4A9;}
	.st1{fill:#49A0AE;}
	.st2{fill:#E0E1D4;}
	.st3{fill:#E1B623;}
	.st4{fill:#1467A8;}
	.st5{fill-rule:evenodd;clip-rule:evenodd;fill:#757575;}
	.st6{fill:#E4C025;}
	.st7{fill:#E4DEDF;}
	.st8{fill:#4A4A4A;}
	.st9{fill:#4ABC96;}
	.st10{fill:#E5DBC5;}
	.st11{fill:#19241E;}
	.st12{fill:#E7E7E7;}
	.st13{fill:#E8E1D3;}
	.st14{fill:#E96238;}
	.st15{fill:#E9C29C;}
	.st16{fill:#E9E9EA;}
	.st17{fill-rule:evenodd;clip-rule:evenodd;fill:#DDDDDC;}
	.st18{fill:#4FAFB9;}
	.st19{fill:#B1D4D7;}
	.st20{fill:#B3E0DF;}
	.st21{fill:#B8E3EB;}
	.st22{fill:#ECE9E9;}
	.st23{fill:#ECECEC;}
	.st24{fill:#ED7B3A;}
	.st25{fill:#EDC92C;}
	.st26{fill:#EEB488;}
	.st27{fill:#525252;}
	.st28{fill-rule:evenodd;clip-rule:evenodd;fill:#E4E4E4;}
	.st29{fill-rule:evenodd;clip-rule:evenodd;fill:#4B4A4B;}
	.st30{fill:#BDD2CE;}
	.st31{fill:#BFC1A9;}
	.st32{fill:#F16D53;}
	.st33{fill:#5A5A5A;}
	.st34{fill-rule:evenodd;clip-rule:evenodd;fill:#B5B2B3;}
	.st35{fill:#5C5C5C;}
	.st36{fill:#F7C192;}
	.st37{fill:#959595;}
	.st38{fill:#C4E2E7;}
	.st39{fill:#C6CBC8;}
	.st40{fill:#989897;}
	.st41{fill:#99999A;}
	.st42{opacity:0.2;}
	.st43{opacity:0.6;}
	.st44{opacity:0.8;}
	.st45{opacity:0.9;}
	.st46{fill:#606060;}
	.st47{fill-rule:evenodd;clip-rule:evenodd;fill:#BFC1A9;}
	.st48{fill:#FFFFFF;}
	.st49{fill:none;}
	.st50{fill-rule:evenodd;clip-rule:evenodd;fill:#5A5A5A;}
	.st51{fill:#676767;}
	.st52{fill:#67C3C8;}
	.st53{fill:#CAD8D4;}
	.st54{fill-rule:evenodd;clip-rule:evenodd;fill:#C0BEBF;}
	.st55{fill:#343433;}
	.st56{fill:#343A36;}
	.st57{fill:#353535;}
	.st58{fill:#357180;}
	.st59{fill:#377EC0;}
	.st60{fill:#6B491E;}
	.st61{fill:#6D6D6D;}
	.st62{fill-rule:evenodd;clip-rule:evenodd;fill:#616161;}
	.st63{fill:#D4DFDC;}
	.st64{fill:#D62127;}
	.st65{fill:#D6B429;}
	.st66{fill:#D7D0BC;}
	.st67{fill:#D7DABA;}
	.st68{fill:#3D929A;}
	.st69{fill:#D8E4E1;}
	.st70{fill:#D96527;}
	.st71{fill-rule:evenodd;clip-rule:evenodd;fill:#CDCCCB;}
	.st72{fill:#717171;}
	.st73{fill:#A19F9F;}
	.st74{fill:#A2D4DE;}
	.st75{fill:#DA1F26;}
	.st76{fill:#0C808B;}
	.st77{fill:#A7CACB;}
	.st78{fill:#DBDBDA;}
	.st79{fill:#DD5231;}
	.st80{fill:#409FA4;}
	.st81{fill:#DFBB26;}
	.st82{fill:#444445;}
	.st83{fill:#444545;}
]]>
</style>
<g>
	<g>
		<circle class="st58" cx="68.417" cy="68.417" r="63.333"/>
	</g>
	<g>
		<g>
			<path class="st40" d="M62.035,82.397c0,0.755-0.611,1.367-1.367,1.367H22.933c-0.754,0-1.367-0.612-1.367-1.367v-2.734
				c0-0.755,0.613-1.367,1.367-1.367h37.734c0.756,0,1.367,0.612,1.367,1.367V82.397z"/>
		</g>
		<g>
			<path class="st40" d="M25.667,60.886c0.756,0,1.367,0.612,1.367,1.367v19.141c0,0.755-0.611,1.367-1.367,1.367h-2.734
				c-0.754,0-1.367-0.612-1.367-1.367V62.253c0-0.755,0.613-1.367,1.367-1.367H25.667z"/>
		</g>
		<g>
			<path class="st40" d="M64.777,78.308c0.533,0.533,0.533,1.399,0,1.934l-3.133,3.132c-0.533,0.534-1.398,0.534-1.934,0
				l-1.932-1.934c-0.535-0.534-0.535-1.399,0-1.934l3.131-3.132c0.533-0.534,1.4-0.534,1.934,0L64.777,78.308z"/>
		</g>
		<g>
			<g>
				<path class="st25" d="M94.308,66.898l21.754,2.335c0.006-0.272,0.021-0.542,0.021-0.815c0-2.13-0.154-4.223-0.426-6.279
					l-21.35,2.312V66.898z"/>
			</g>
			<g>
				<path class="st25" d="M94.308,61.377l21.016-2.31c-0.418-2.336-1.006-4.612-1.75-6.816l-19.266,6.584V61.377z"/>
			</g>
			<g>
				<path class="st25" d="M94.308,72.418l20.689,7.417c0.5-2.312,0.83-4.685,0.98-7.108l-21.67-2.748V72.418z"/>
			</g>
		</g>
		<g>
			<path class="st73" d="M91.566,71.619c0,3.107-0.385,5.385-4.01,5.385c0,0-4.332,0.228-14.748-3.935l-51.25,0.048
				c0,0,0.008-1.594,0.008-3.562v-7.126c0-1.967,1.07-3.563,4.695-3.563l46.705,0.045c10.133-3.743,14.59-3.93,14.59-3.93
				c3.625,0,4.01,2.278,4.01,5.385V71.619z"/>
		</g>
		<g>
			<path class="st40" d="M89.308,54.335c-1.473,0-2.668,0.249-2.668,1.8V75.87c0,1.551,1.195,1.8,2.668,1.8s2.666-0.249,2.666-1.8
				V56.135C91.974,54.584,90.781,54.335,89.308,54.335z"/>
		</g>
		<g>
			<circle class="st61" cx="66.058" cy="66.084" r="2.916"/>
		</g>
	</g>
</g>
</svg>
