<?xml version="1.0" encoding="utf-8"?>
<!-- Generator: Adobe Illustrator 16.0.0, SVG Export Plug-In . SVG Version: 6.00 Build 0)  -->
<!DOCTYPE svg PUBLIC "-//W3C//DTD SVG 1.1//EN" "http://www.w3.org/Graphics/SVG/1.1/DTD/svg11.dtd">
<svg version="1.1" id="Layer_1" xmlns="http://www.w3.org/2000/svg" xmlns:xlink="http://www.w3.org/1999/xlink" x="0px" y="0px"
	 width="136.833px" height="136.833px" viewBox="0 0 136.833 136.833" style="enable-background:new 0 0 136.833 136.833;"
	 xml:space="preserve">
<style type="text/css">
<![CDATA[
	.st0{fill:#47A4A9;}
	.st1{fill:#49A0AE;}
	.st2{fill:#E0E1D4;}
	.st3{fill:#E1B623;}
	.st4{fill:#1467A8;}
	.st5{fill-rule:evenodd;clip-rule:evenodd;fill:#757575;}
	.st6{fill:#E4C025;}
	.st7{fill:#E4DEDF;}
	.st8{fill:#4A4A4A;}
	.st9{fill:#4ABC96;}
	.st10{fill:#E5DBC5;}
	.st11{fill:#19241E;}
	.st12{fill:#E7E7E7;}
	.st13{fill:#E8E1D3;}
	.st14{fill:#E96238;}
	.st15{fill:#E9C29C;}
	.st16{fill:#E9E9EA;}
	.st17{fill-rule:evenodd;clip-rule:evenodd;fill:#DDDDDC;}
	.st18{fill:#4FAFB9;}
	.st19{fill:#B1D4D7;}
	.st20{fill:#B3E0DF;}
	.st21{fill:#B8E3EB;}
	.st22{fill:#ECE9E9;}
	.st23{fill:#ECECEC;}
	.st24{fill:#ED7B3A;}
	.st25{fill:#EDC92C;}
	.st26{fill:#EEB488;}
	.st27{fill:#525252;}
	.st28{fill-rule:evenodd;clip-rule:evenodd;fill:#E4E4E4;}
	.st29{fill-rule:evenodd;clip-rule:evenodd;fill:#4B4A4B;}
	.st30{fill:#BDD2CE;}
	.st31{fill:#BFC1A9;}
	.st32{fill:#F16D53;}
	.st33{fill:#5A5A5A;}
	.st34{fill-rule:evenodd;clip-rule:evenodd;fill:#B5B2B3;}
	.st35{fill:#5C5C5C;}
	.st36{fill:#F7C192;}
	.st37{fill:#959595;}
	.st38{fill:#C4E2E7;}
	.st39{fill:#C6CBC8;}
	.st40{fill:#989897;}
	.st41{fill:#99999A;}
	.st42{opacity:0.2;}
	.st43{opacity:0.6;}
	.st44{opacity:0.8;}
	.st45{opacity:0.9;}
	.st46{fill:#606060;}
	.st47{fill-rule:evenodd;clip-rule:evenodd;fill:#BFC1A9;}
	.st48{fill:#FFFFFF;}
	.st49{fill:none;}
	.st50{fill-rule:evenodd;clip-rule:evenodd;fill:#5A5A5A;}
	.st51{fill:#676767;}
	.st52{fill:#67C3C8;}
	.st53{fill:#CAD8D4;}
	.st54{fill-rule:evenodd;clip-rule:evenodd;fill:#C0BEBF;}
	.st55{fill:#343433;}
	.st56{fill:#343A36;}
	.st57{fill:#353535;}
	.st58{fill:#357180;}
	.st59{fill:#377EC0;}
	.st60{fill:#6B491E;}
	.st61{fill:#6D6D6D;}
	.st62{fill-rule:evenodd;clip-rule:evenodd;fill:#616161;}
	.st63{fill:#D4DFDC;}
	.st64{fill:#D62127;}
	.st65{fill:#D6B429;}
	.st66{fill:#D7D0BC;}
	.st67{fill:#D7DABA;}
	.st68{fill:#3D929A;}
	.st69{fill:#D8E4E1;}
	.st70{fill:#D96527;}
	.st71{fill-rule:evenodd;clip-rule:evenodd;fill:#CDCCCB;}
	.st72{fill:#717171;}
	.st73{fill:#A19F9F;}
	.st74{fill:#A2D4DE;}
	.st75{fill:#DA1F26;}
	.st76{fill:#0C808B;}
	.st77{fill:#A7CACB;}
	.st78{fill:#DBDBDA;}
	.st79{fill:#DD5231;}
	.st80{fill:#409FA4;}
	.st81{fill:#DFBB26;}
	.st82{fill:#444445;}
	.st83{fill:#444545;}
]]>
</style>
<g>
	<g>
		<circle class="st9" cx="68.417" cy="68.417" r="63.333"/>
	</g>
	<g>
		<g>
			<g>
				<path class="st26" d="M65.212,57.464L54.98,46.718l20.295,7.678l-0.51-15.395l4.604,4.305l9.381,16.035l2.391-6.652l0.168-6.311
					c0,0-5.457-6.652-2.559-9.041l8.189,4.436l3.41,10.744l-3.584,16.375c0,0,10.746,23.367,13.646,30.531l-9.209,4.945
					L65.212,57.464z"/>
			</g>
		</g>
		<g>
			<polygon class="st26" points="41.058,72.042 53.933,64.042 51.392,61.335 			"/>
		</g>
		<g>
			<path class="st26" d="M55.058,80.042l3.25-0.375l5.75-4.625l-0.5,8.25C63.558,83.292,54.433,83.292,55.058,80.042z"/>
		</g>
		<g>
			<path class="st36" d="M36.642,77.207C34.558,75.667,36.9,65.31,36.9,65.31l11.086-10.914l20.979,3.752L54.638,47.232
				l-9.721-5.971c0,0-8.02-3.07-4.266-8.699l22.344,7.846l14.156,14.668l-1.877-9.721l-6.311-9.041c0,0-11.939-6.65-7.676-12.279
				l13.986,3.922l8.018,11.428l6.311,20.297l14.84,42.982l-22.686,11.939L45.085,85.779l-11.939-5.631c0,0,2.666-7.898,13.305-4.773
				c6.107,1.793,12.607,10.461,15.273,2.793c0,0,5.195-7.912-11.52-13.539l-6.146,5.873C44.058,70.501,40.386,79.968,36.642,77.207z
				"/>
		</g>
		<g>
			<g>
				<path class="st56" d="M119.839,105.365l-8.281-8.697c-3.5,0-32,18.5-32,18.5l9.852,13.004
					C101.751,123.835,112.337,115.789,119.839,105.365z"/>
			</g>
		</g>
	</g>
</g>
</svg>
