<?xml version="1.0" encoding="utf-8"?>
<!-- Generator: Adobe Illustrator 16.0.0, SVG Export Plug-In . SVG Version: 6.00 Build 0)  -->
<!DOCTYPE svg PUBLIC "-//W3C//DTD SVG 1.1//EN" "http://www.w3.org/Graphics/SVG/1.1/DTD/svg11.dtd">
<svg version="1.1" id="Layer_1" xmlns="http://www.w3.org/2000/svg" xmlns:xlink="http://www.w3.org/1999/xlink" x="0px" y="0px"
	 width="136.833px" height="136.834px" viewBox="0 0 136.833 136.834" style="enable-background:new 0 0 136.833 136.834;"
	 xml:space="preserve">
<style type="text/css">
<![CDATA[
	.st0{fill:#47A4A9;}
	.st1{fill:#49A0AE;}
	.st2{fill:#E0E1D4;}
	.st3{fill:#E1B623;}
	.st4{fill:#1467A8;}
	.st5{fill-rule:evenodd;clip-rule:evenodd;fill:#757575;}
	.st6{fill:#E4C025;}
	.st7{fill:#E4DEDF;}
	.st8{fill:#4A4A4A;}
	.st9{fill:#4ABC96;}
	.st10{fill:#E5DBC5;}
	.st11{fill:#19241E;}
	.st12{fill:#E7E7E7;}
	.st13{fill:#E8E1D3;}
	.st14{fill:#E96238;}
	.st15{fill:#E9C29C;}
	.st16{fill:#E9E9EA;}
	.st17{fill-rule:evenodd;clip-rule:evenodd;fill:#DDDDDC;}
	.st18{fill:#4FAFB9;}
	.st19{fill:#B1D4D7;}
	.st20{fill:#B3E0DF;}
	.st21{fill:#B8E3EB;}
	.st22{fill:#ECE9E9;}
	.st23{fill:#ECECEC;}
	.st24{fill:#ED7B3A;}
	.st25{fill:#EDC92C;}
	.st26{fill:#EEB488;}
	.st27{fill:#525252;}
	.st28{fill-rule:evenodd;clip-rule:evenodd;fill:#E4E4E4;}
	.st29{fill-rule:evenodd;clip-rule:evenodd;fill:#4B4A4B;}
	.st30{fill:#BDD2CE;}
	.st31{fill:#BFC1A9;}
	.st32{fill:#F16D53;}
	.st33{fill:#5A5A5A;}
	.st34{fill-rule:evenodd;clip-rule:evenodd;fill:#B5B2B3;}
	.st35{fill:#5C5C5C;}
	.st36{fill:#F7C192;}
	.st37{fill:#959595;}
	.st38{fill:#C4E2E7;}
	.st39{fill:#C6CBC8;}
	.st40{fill:#989897;}
	.st41{fill:#99999A;}
	.st42{opacity:0.2;}
	.st43{opacity:0.6;}
	.st44{opacity:0.8;}
	.st45{opacity:0.9;}
	.st46{fill:#606060;}
	.st47{fill-rule:evenodd;clip-rule:evenodd;fill:#BFC1A9;}
	.st48{fill:#FFFFFF;}
	.st49{fill:none;}
	.st50{fill-rule:evenodd;clip-rule:evenodd;fill:#5A5A5A;}
	.st51{fill:#676767;}
	.st52{fill:#67C3C8;}
	.st53{fill:#CAD8D4;}
	.st54{fill-rule:evenodd;clip-rule:evenodd;fill:#C0BEBF;}
	.st55{fill:#343433;}
	.st56{fill:#343A36;}
	.st57{fill:#353535;}
	.st58{fill:#357180;}
	.st59{fill:#377EC0;}
	.st60{fill:#6B491E;}
	.st61{fill:#6D6D6D;}
	.st62{fill-rule:evenodd;clip-rule:evenodd;fill:#616161;}
	.st63{fill:#D4DFDC;}
	.st64{fill:#D62127;}
	.st65{fill:#D6B429;}
	.st66{fill:#D7D0BC;}
	.st67{fill:#D7DABA;}
	.st68{fill:#3D929A;}
	.st69{fill:#D8E4E1;}
	.st70{fill:#D96527;}
	.st71{fill-rule:evenodd;clip-rule:evenodd;fill:#CDCCCB;}
	.st72{fill:#717171;}
	.st73{fill:#A19F9F;}
	.st74{fill:#A2D4DE;}
	.st75{fill:#DA1F26;}
	.st76{fill:#0C808B;}
	.st77{fill:#A7CACB;}
	.st78{fill:#DBDBDA;}
	.st79{fill:#DD5231;}
	.st80{fill:#409FA4;}
	.st81{fill:#DFBB26;}
	.st82{fill:#444445;}
	.st83{fill:#444545;}
]]>
</style>
<g>
	<g>
		<g>
			<g>
				<circle class="st21" cx="68.416" cy="68.418" r="63.333"/>
			</g>
		</g>
	</g>
	<g class="st43">
		<g>
			<g>
				<path class="st68" d="M98.196,74.785c-8.17,0-14.766-3.252-14.766-7.26c0-4,6.596-10.348,14.766-10.348
					c8.174,0,14.777,6.348,14.777,10.348C112.974,71.533,106.37,74.785,98.196,74.785z"/>
			</g>
			<g>
				<g>
					<path class="st80" d="M98.196,71.314c-7.686,0-13.889-2.168-13.889-4.842c0-2.67,6.203-8.91,13.889-8.91
						c7.691,0,13.902,6.24,13.902,8.91C112.099,69.146,105.888,71.314,98.196,71.314z"/>
				</g>
				<g>
					<path class="st0" d="M98.198,66.828c-6.063,0-10.955-1.711-10.955-3.82c0-2.105,4.893-5.445,10.955-5.445
						c6.064,0,10.965,3.34,10.965,5.445C109.163,65.117,104.263,66.828,98.198,66.828z"/>
				</g>
				<g class="st42">
					<path class="st52" d="M98.452,74.031c-7.688,0-7.688-16.564,0-16.564c7.689,0,13.904,5.973,13.904,9.736
						C112.356,70.971,106.142,74.031,98.452,74.031z"/>
				</g>
				<g class="st42">
					<path class="st20" d="M100.825,73.564c-6.268,0-6.268-15.318,0-15.318s11.336,5.521,11.336,9.004
						C112.161,70.736,107.093,73.564,100.825,73.564z"/>
				</g>
				<g class="st42">
					<path class="st48" d="M103.47,71.4c-4.232,0-4.232-10.346,0-10.346s7.654,3.73,7.654,6.08
						C111.124,69.488,107.702,71.4,103.47,71.4z"/>
				</g>
			</g>
		</g>
		<g>
			<g>
				<path class="st68" d="M41.653,69.381c-10.9,0-19.699-4.34-19.699-9.684c0-5.338,8.799-13.809,19.699-13.809
					c10.904,0,19.717,8.471,19.717,13.809C61.37,65.041,52.558,69.381,41.653,69.381z"/>
			</g>
			<g>
				<g>
					<path class="st80" d="M41.653,64.752c-10.252,0-18.529-2.895-18.529-6.461c0-3.561,8.277-11.889,18.529-11.889
						c10.262,0,18.549,8.328,18.549,11.889C60.202,61.857,51.915,64.752,41.653,64.752z"/>
				</g>
				<g>
					<path class="st0" d="M41.655,58.766c-8.086,0-14.615-2.283-14.615-5.096c0-2.809,6.529-7.268,14.615-7.268
						c8.094,0,14.631,4.459,14.631,7.268C56.286,56.482,49.749,58.766,41.655,58.766z"/>
				</g>
				<g class="st42">
					<path class="st52" d="M41.995,68.377c-10.256,0-10.256-22.102,0-22.102c10.258,0,18.551,7.969,18.551,12.99
						C60.546,64.295,52.253,68.377,41.995,68.377z"/>
				</g>
				<g class="st42">
					<path class="st20" d="M45.161,67.754c-8.361,0-8.361-20.438,0-20.438c8.363,0,15.123,7.367,15.123,12.012
						C60.284,63.979,53.524,67.754,45.161,67.754z"/>
				</g>
				<g class="st42">
					<path class="st48" d="M48.688,64.867c-5.646,0-5.646-13.805,0-13.805c5.648,0,10.213,4.977,10.213,8.111
						C58.901,62.314,54.337,64.867,48.688,64.867z"/>
				</g>
			</g>
		</g>
		<g>
			<g>
				<path class="st68" d="M72.944,47.643c-8.963,0-16.201-3.568-16.201-7.965c0-4.389,7.238-11.355,16.201-11.355
					c8.969,0,16.217,6.967,16.217,11.355C89.161,44.074,81.913,47.643,72.944,47.643z"/>
			</g>
			<g>
				<g>
					<path class="st80" d="M72.944,43.834c-8.432,0-15.238-2.379-15.238-5.313c0-2.93,6.807-9.777,15.238-9.777
						c8.439,0,15.256,6.848,15.256,9.777C88.2,41.455,81.384,43.834,72.944,43.834z"/>
				</g>
				<g>
					<path class="st0" d="M72.946,38.912c-6.65,0-12.02-1.879-12.02-4.191c0-2.311,5.369-5.977,12.02-5.977
						c6.656,0,12.033,3.666,12.033,5.977C84.979,37.033,79.603,38.912,72.946,38.912z"/>
				</g>
				<g class="st42">
					<path class="st52" d="M73.226,46.816c-8.434,0-8.434-18.178,0-18.178c8.438,0,15.256,6.555,15.256,10.684
						C88.481,43.459,81.663,46.816,73.226,46.816z"/>
				</g>
				<g class="st42">
					<path class="st20" d="M75.829,46.305c-6.875,0-6.875-16.811,0-16.811c6.879,0,12.438,6.061,12.438,9.879
						C88.267,43.199,82.708,46.305,75.829,46.305z"/>
				</g>
				<g class="st42">
					<path class="st48" d="M78.731,43.93c-4.643,0-4.643-11.352,0-11.352c4.645,0,8.398,4.092,8.398,6.67
						C87.13,41.832,83.376,43.93,78.731,43.93z"/>
				</g>
			</g>
		</g>
		<g>
			<g>
				<circle class="st68" cx="29.812" cy="76.457" r="5.75"/>
			</g>
			<g class="st42">
				<path class="st52" d="M35.562,76.457c0,3.176-2.574,5.75-5.75,5.75c-3.174,0-3.174-11.5,0-11.5
					C32.987,70.707,35.562,73.281,35.562,76.457z"/>
			</g>
			<g class="st42">
				<path class="st52" d="M34.433,76.457c0,2.293-1.859,4.152-4.152,4.152c-2.295,0-2.295-8.307,0-8.307
					C32.573,72.303,34.433,74.164,34.433,76.457z"/>
			</g>
			<g class="st42">
				<path class="st52" d="M35.091,76.318c0,2.916-10.559,2.916-10.559,0c0-2.914,2.365-5.277,5.279-5.277
					C32.728,71.041,35.091,73.404,35.091,76.318z"/>
			</g>
			<g class="st42">
				<path class="st52" d="M33.802,74.279c0,1.58-7.988,1.58-7.988,0c0-1.584,1.789-2.867,3.996-2.867
					C32.015,71.412,33.802,72.695,33.802,74.279z"/>
			</g>
		</g>
		<g>
			<g>
				<circle class="st68" cx="45.485" cy="95.318" r="3.5"/>
			</g>
			<g class="st42">
				<path class="st52" d="M48.985,95.318c0,1.932-1.568,3.5-3.5,3.5c-1.934,0-1.934-7,0-7
					C47.417,91.818,48.985,93.385,48.985,95.318z"/>
			</g>
			<g class="st42">
				<path class="st52" d="M48.298,95.318c0,1.395-1.133,2.527-2.527,2.527c-1.396,0-1.396-5.057,0-5.057
					C47.165,92.789,48.298,93.922,48.298,95.318z"/>
			</g>
			<g class="st42">
				<path class="st52" d="M48.698,95.234c0,1.773-6.428,1.773-6.428,0c0-1.775,1.439-3.213,3.215-3.213
					C47.259,92.021,48.698,93.459,48.698,95.234z"/>
			</g>
			<g class="st42">
				<path class="st52" d="M47.913,93.992c0,0.963-4.861,0.963-4.861,0c0-0.965,1.088-1.744,2.432-1.744
					C46.825,92.248,47.913,93.027,47.913,93.992z"/>
			</g>
		</g>
		<g>
			<g>
				<circle class="st68" cx="69.844" cy="19.318" r="3.88"/>
			</g>
			<g class="st42">
				<path class="st52" d="M73.724,19.318c0,2.141-1.738,3.879-3.881,3.879s-2.143-7.76,0-7.76S73.724,17.174,73.724,19.318z"/>
			</g>
			<g class="st42">
				<path class="st52" d="M72.962,19.318c0,1.545-1.256,2.801-2.803,2.801c-1.549,0-1.549-5.605,0-5.605
					C71.706,16.514,72.962,17.77,72.962,19.318z"/>
			</g>
			<g class="st42">
				<path class="st52" d="M73.405,19.225c0,1.967-7.125,1.967-7.125,0s1.596-3.563,3.563-3.563S73.405,17.258,73.405,19.225z"/>
			</g>
			<g class="st42">
				<path class="st52" d="M72.536,17.848c0,1.066-5.391,1.066-5.391,0c0-1.068,1.207-1.934,2.695-1.934S72.536,16.779,72.536,17.848
					z"/>
			</g>
		</g>
		<g>
			<g>
				<circle class="st68" cx="103.263" cy="79.65" r="2.699"/>
			</g>
			<g class="st42">
				<path class="st52" d="M105.962,79.65c0,1.49-1.209,2.699-2.699,2.699s-1.49-5.398,0-5.398S105.962,78.16,105.962,79.65z"/>
			</g>
			<g class="st42">
				<path class="st52" d="M105.433,79.65c0,1.076-0.873,1.949-1.949,1.949c-1.078,0-1.078-3.898,0-3.898
					C104.56,77.701,105.433,78.574,105.433,79.65z"/>
			</g>
			<g class="st42">
				<path class="st52" d="M105.741,79.586c0,1.369-4.957,1.369-4.957,0s1.109-2.477,2.479-2.477S105.741,78.217,105.741,79.586z"/>
			</g>
			<g class="st42">
				<path class="st52" d="M105.136,78.629c0,0.742-3.75,0.742-3.75,0c0-0.744,0.84-1.346,1.877-1.346
					C104.298,77.283,105.136,77.885,105.136,78.629z"/>
			</g>
		</g>
		<g>
			<g>
				<circle class="st68" cx="67.844" cy="95.771" r="3.88"/>
			</g>
			<g class="st42">
				<path class="st52" d="M71.724,95.771c0,2.141-1.738,3.879-3.881,3.879s-2.143-7.76,0-7.76S71.724,93.627,71.724,95.771z"/>
			</g>
			<g class="st42">
				<path class="st52" d="M70.962,95.771c0,1.545-1.256,2.801-2.803,2.801c-1.549,0-1.549-5.605,0-5.605
					C69.706,92.967,70.962,94.223,70.962,95.771z"/>
			</g>
			<g class="st42">
				<path class="st52" d="M71.405,95.678c0,1.967-7.125,1.967-7.125,0s1.596-3.563,3.563-3.563S71.405,93.711,71.405,95.678z"/>
			</g>
			<g class="st42">
				<path class="st52" d="M70.536,94.301c0,1.066-5.391,1.066-5.391,0c0-1.068,1.207-1.934,2.695-1.934S70.536,93.232,70.536,94.301
					z"/>
			</g>
		</g>
		<g>
			<g>
				<circle class="st68" cx="68.51" cy="53.65" r="3.88"/>
			</g>
			<g class="st42">
				<path class="st52" d="M72.39,53.65c0,2.143-1.736,3.881-3.879,3.881s-2.143-7.76,0-7.76S72.39,51.508,72.39,53.65z"/>
			</g>
			<g class="st42">
				<path class="st52" d="M71.628,53.65c0,1.547-1.254,2.801-2.801,2.801c-1.549,0-1.549-5.604,0-5.604
					C70.374,50.848,71.628,52.104,71.628,53.65z"/>
			</g>
			<g class="st42">
				<path class="st52" d="M72.071,53.557c0,1.967-7.123,1.967-7.123,0s1.596-3.561,3.563-3.561S72.071,51.59,72.071,53.557z"/>
			</g>
			<g class="st42">
				<path class="st52" d="M71.202,52.18c0,1.068-5.389,1.068-5.389,0s1.207-1.934,2.695-1.934S71.202,51.111,71.202,52.18z"/>
			</g>
		</g>
		<g>
			<g>
				<circle class="st68" cx="89.631" cy="52.65" r="3.005"/>
			</g>
			<g class="st42">
				<path class="st52" d="M92.636,52.65c0,1.658-1.346,3.006-3.006,3.006c-1.658,0-1.658-6.01,0-6.01
					C91.29,49.646,92.636,50.99,92.636,52.65z"/>
			</g>
			<g class="st42">
				<path class="st52" d="M92.046,52.65c0,1.197-0.973,2.17-2.17,2.17c-1.199,0-1.199-4.342,0-4.342
					C91.073,50.479,92.046,51.451,92.046,52.65z"/>
			</g>
			<g class="st42">
				<path class="st52" d="M92.39,52.578c0,1.523-5.518,1.523-5.518,0s1.234-2.758,2.758-2.758S92.39,51.055,92.39,52.578z"/>
			</g>
			<g class="st42">
				<path class="st52" d="M91.716,51.512c0,0.826-4.174,0.826-4.174,0c0-0.828,0.934-1.498,2.086-1.498
					C90.782,50.014,91.716,50.684,91.716,51.512z"/>
			</g>
		</g>
		<g>
			<g>
				<circle class="st68" cx="48.844" cy="40.984" r="2.005"/>
			</g>
			<g class="st42">
				<path class="st52" d="M50.849,40.984c0,1.105-0.898,2.004-2.006,2.004s-1.107-4.01,0-4.01S50.849,39.877,50.849,40.984z"/>
			</g>
			<g class="st42">
				<path class="st52" d="M50.454,40.984c0,0.799-0.648,1.447-1.447,1.447c-0.801,0-0.801-2.896,0-2.896
					C49.806,39.535,50.454,40.184,50.454,40.984z"/>
			</g>
			<g class="st42">
				<path class="st52" d="M50.685,40.936c0,1.016-3.682,1.016-3.682,0s0.824-1.84,1.84-1.84
					C49.86,39.096,50.685,39.92,50.685,40.936z"/>
			</g>
			<g class="st42">
				<path class="st52" d="M50.233,40.225c0,0.551-2.783,0.551-2.783,0c0-0.553,0.623-1,1.393-1S50.233,39.672,50.233,40.225z"/>
			</g>
		</g>
		<g>
			<g>
				<circle class="st68" cx="67.844" cy="76.865" r="3.005"/>
			</g>
			<g class="st42">
				<path class="st52" d="M70.849,76.865c0,1.658-1.346,3.004-3.006,3.004c-1.658,0-1.658-6.01,0-6.01
					C69.503,73.859,70.849,75.205,70.849,76.865z"/>
			</g>
			<g class="st42">
				<path class="st52" d="M70.259,76.865c0,1.197-0.973,2.168-2.17,2.168c-1.199,0-1.199-4.34,0-4.34
					C69.286,74.693,70.259,75.666,70.259,76.865z"/>
			</g>
			<g class="st42">
				<path class="st52" d="M70.603,76.793c0,1.521-5.518,1.521-5.518,0c0-1.523,1.234-2.76,2.758-2.76S70.603,75.27,70.603,76.793z"
					/>
			</g>
			<g class="st42">
				<path class="st52" d="M69.929,75.727c0,0.826-4.174,0.826-4.174,0c0-0.828,0.934-1.498,2.086-1.498
					C68.995,74.229,69.929,74.898,69.929,75.727z"/>
			</g>
		</g>
		<g>
			<g>
				<circle class="st68" cx="67.844" cy="114.318" r="3.005"/>
			</g>
			<g class="st42">
				<path class="st52" d="M70.849,114.318c0,1.658-1.346,3.004-3.006,3.004c-1.658,0-1.658-6.01,0-6.01
					C69.503,111.313,70.849,112.658,70.849,114.318z"/>
			</g>
			<g class="st42">
				<path class="st52" d="M70.259,114.318c0,1.197-0.973,2.168-2.17,2.168c-1.199,0-1.199-4.34,0-4.34
					C69.286,112.146,70.259,113.119,70.259,114.318z"/>
			</g>
			<g class="st42">
				<path class="st52" d="M70.603,114.246c0,1.521-5.518,1.521-5.518,0c0-1.523,1.234-2.76,2.758-2.76
					S70.603,112.723,70.603,114.246z"/>
			</g>
			<g class="st42">
				<path class="st52" d="M69.929,113.18c0,0.826-4.174,0.826-4.174,0c0-0.828,0.934-1.498,2.086-1.498
					C68.995,111.682,69.929,112.352,69.929,113.18z"/>
			</g>
		</g>
		<g>
			<g>
				<path class="st68" d="M91.081,95.982c0,2.338-1.898,4.238-4.238,4.238c-2.338,0-4.236-1.9-4.236-4.238
					c0-2.34,1.898-4.236,4.236-4.236C89.183,91.746,91.081,93.643,91.081,95.982z"/>
			</g>
			<g class="st42">
				<path class="st52" d="M91.081,95.982c0,2.338-1.898,4.238-4.238,4.238c-2.338,0-2.338-8.475,0-8.475
					C89.183,91.746,91.081,93.643,91.081,95.982z"/>
			</g>
			<g class="st42">
				<path class="st52" d="M90.249,95.982c0,1.689-1.371,3.059-3.061,3.059c-1.691,0-1.691-6.119,0-6.119
					C88.878,92.922,90.249,94.293,90.249,95.982z"/>
			</g>
			<g class="st42">
				<path class="st52" d="M90.731,95.881c0,2.146-7.777,2.146-7.777,0c0-2.148,1.74-3.889,3.889-3.889S90.731,93.732,90.731,95.881z
					"/>
			</g>
			<g class="st42">
				<path class="st52" d="M89.784,94.377c0,1.166-5.887,1.166-5.887,0s1.318-2.111,2.943-2.111S89.784,93.211,89.784,94.377z"/>
			</g>
		</g>
		<g>
			<g>
				<circle class="st68" cx="29.757" cy="40.15" r="3.133"/>
			</g>
			<g class="st42">
				<path class="st52" d="M32.89,40.15c0,1.729-1.402,3.133-3.133,3.133s-1.73-6.266,0-6.266S32.89,38.42,32.89,40.15z"/>
			</g>
			<g class="st42">
				<path class="st52" d="M32.274,40.15c0,1.248-1.014,2.262-2.262,2.262c-1.252,0-1.252-4.525,0-4.525
					C31.261,37.887,32.274,38.9,32.274,40.15z"/>
			</g>
			<g class="st42">
				<path class="st52" d="M32.632,40.076c0,1.586-5.752,1.586-5.752,0c0-1.588,1.287-2.877,2.877-2.877
					C31.345,37.199,32.632,38.488,32.632,40.076z"/>
			</g>
			<g class="st42">
				<path class="st52" d="M31.929,38.963c0,0.863-4.35,0.863-4.35,0s0.973-1.561,2.176-1.561S31.929,38.1,31.929,38.963z"/>
			</g>
		</g>
		<g>
			<g>
				<circle class="st68" cx="45.176" cy="76.318" r="3.005"/>
			</g>
			<g class="st42">
				<path class="st52" d="M48.181,76.318c0,1.658-1.346,3.004-3.004,3.004c-1.66,0-1.66-6.01,0-6.01
					C46.835,73.313,48.181,74.658,48.181,76.318z"/>
			</g>
			<g class="st42">
				<path class="st52" d="M47.591,76.318c0,1.197-0.971,2.168-2.17,2.168s-1.199-4.34,0-4.34S47.591,75.119,47.591,76.318z"/>
			</g>
			<g class="st42">
				<path class="st52" d="M47.935,76.246c0,1.521-5.518,1.521-5.518,0c0-1.523,1.236-2.76,2.76-2.76S47.935,74.723,47.935,76.246z"
					/>
			</g>
			<g class="st42">
				<path class="st52" d="M47.261,75.18c0,0.826-4.174,0.826-4.174,0c0-0.828,0.936-1.498,2.088-1.498S47.261,74.352,47.261,75.18z"
					/>
			</g>
		</g>
		<g>
			<g>
				<circle class="st68" cx="86.676" cy="77.365" r="2.505"/>
			</g>
			<g class="st42">
				<path class="st52" d="M89.181,77.365c0,1.383-1.121,2.504-2.504,2.504s-1.383-5.01,0-5.01S89.181,75.98,89.181,77.365z"/>
			</g>
			<g class="st42">
				<path class="st52" d="M88.69,77.365c0,0.998-0.811,1.809-1.811,1.809c-0.998,0-0.998-3.619,0-3.619
					C87.88,75.555,88.69,76.365,88.69,77.365z"/>
			</g>
			<g class="st42">
				<path class="st52" d="M88.976,77.305c0,1.27-4.6,1.27-4.6,0s1.031-2.299,2.301-2.299S88.976,76.035,88.976,77.305z"/>
			</g>
			<g class="st42">
				<path class="st52" d="M88.415,76.416c0,0.688-3.48,0.688-3.48,0c0-0.691,0.779-1.25,1.74-1.25S88.415,75.725,88.415,76.416z"/>
			</g>
		</g>
		<g>
			<g>
				<circle class="st68" cx="89.053" cy="31.393" r="2.466"/>
			</g>
			<g class="st42">
				<path class="st52" d="M91.519,31.393c0,1.361-1.104,2.467-2.467,2.467c-1.361,0-1.361-4.932,0-4.932
					C90.415,28.928,91.519,30.031,91.519,31.393z"/>
			</g>
			<g class="st42">
				<path class="st52" d="M91.034,31.393c0,0.982-0.797,1.781-1.779,1.781c-0.986,0-0.986-3.563,0-3.563
					C90.237,29.611,91.034,30.41,91.034,31.393z"/>
			</g>
			<g class="st42">
				<path class="st52" d="M91.315,31.334c0,1.248-4.527,1.248-4.527,0c0-1.25,1.014-2.264,2.264-2.264S91.315,30.084,91.315,31.334z
					"/>
			</g>
			<g class="st42">
				<path class="st52" d="M90.763,30.459c0,0.678-3.424,0.678-3.424,0c0-0.68,0.766-1.229,1.711-1.229
					C89.997,29.23,90.763,29.779,90.763,30.459z"/>
			</g>
		</g>
	</g>
</g>
</svg>
