<?xml version="1.0" encoding="utf-8"?>
<!-- Generator: Adobe Illustrator 16.0.0, SVG Export Plug-In . SVG Version: 6.00 Build 0)  -->
<!DOCTYPE svg PUBLIC "-//W3C//DTD SVG 1.1//EN" "http://www.w3.org/Graphics/SVG/1.1/DTD/svg11.dtd">
<svg version="1.1" id="Layer_1" xmlns="http://www.w3.org/2000/svg" xmlns:xlink="http://www.w3.org/1999/xlink" x="0px" y="0px"
	 width="136.833px" height="136.833px" viewBox="0 0 136.833 136.833" style="enable-background:new 0 0 136.833 136.833;"
	 xml:space="preserve">
<style type="text/css">
<![CDATA[
	.st0{fill:#47A4A9;}
	.st1{fill:#49A0AE;}
	.st2{fill:#E0E1D4;}
	.st3{fill:#E1B623;}
	.st4{fill:#1467A8;}
	.st5{fill-rule:evenodd;clip-rule:evenodd;fill:#757575;}
	.st6{fill:#E4C025;}
	.st7{fill:#E4DEDF;}
	.st8{fill:#4A4A4A;}
	.st9{fill:#4ABC96;}
	.st10{fill:#E5DBC5;}
	.st11{fill:#19241E;}
	.st12{fill:#E7E7E7;}
	.st13{fill:#E8E1D3;}
	.st14{fill:#E96238;}
	.st15{fill:#E9C29C;}
	.st16{fill:#E9E9EA;}
	.st17{fill-rule:evenodd;clip-rule:evenodd;fill:#DDDDDC;}
	.st18{fill:#4FAFB9;}
	.st19{fill:#B1D4D7;}
	.st20{fill:#B3E0DF;}
	.st21{fill:#B8E3EB;}
	.st22{fill:#ECE9E9;}
	.st23{fill:#ECECEC;}
	.st24{fill:#ED7B3A;}
	.st25{fill:#EDC92C;}
	.st26{fill:#EEB488;}
	.st27{fill:#525252;}
	.st28{fill-rule:evenodd;clip-rule:evenodd;fill:#E4E4E4;}
	.st29{fill-rule:evenodd;clip-rule:evenodd;fill:#4B4A4B;}
	.st30{fill:#BDD2CE;}
	.st31{fill:#BFC1A9;}
	.st32{fill:#F16D53;}
	.st33{fill:#5A5A5A;}
	.st34{fill-rule:evenodd;clip-rule:evenodd;fill:#B5B2B3;}
	.st35{fill:#5C5C5C;}
	.st36{fill:#F7C192;}
	.st37{fill:#959595;}
	.st38{fill:#C4E2E7;}
	.st39{fill:#C6CBC8;}
	.st40{fill:#989897;}
	.st41{fill:#99999A;}
	.st42{opacity:0.2;}
	.st43{opacity:0.6;}
	.st44{opacity:0.8;}
	.st45{opacity:0.9;}
	.st46{fill:#606060;}
	.st47{fill-rule:evenodd;clip-rule:evenodd;fill:#BFC1A9;}
	.st48{fill:#FFFFFF;}
	.st49{fill:none;}
	.st50{fill-rule:evenodd;clip-rule:evenodd;fill:#5A5A5A;}
	.st51{fill:#676767;}
	.st52{fill:#67C3C8;}
	.st53{fill:#CAD8D4;}
	.st54{fill-rule:evenodd;clip-rule:evenodd;fill:#C0BEBF;}
	.st55{fill:#343433;}
	.st56{fill:#343A36;}
	.st57{fill:#353535;}
	.st58{fill:#357180;}
	.st59{fill:#377EC0;}
	.st60{fill:#6B491E;}
	.st61{fill:#6D6D6D;}
	.st62{fill-rule:evenodd;clip-rule:evenodd;fill:#616161;}
	.st63{fill:#D4DFDC;}
	.st64{fill:#D62127;}
	.st65{fill:#D6B429;}
	.st66{fill:#D7D0BC;}
	.st67{fill:#D7DABA;}
	.st68{fill:#3D929A;}
	.st69{fill:#D8E4E1;}
	.st70{fill:#D96527;}
	.st71{fill-rule:evenodd;clip-rule:evenodd;fill:#CDCCCB;}
	.st72{fill:#717171;}
	.st73{fill:#A19F9F;}
	.st74{fill:#A2D4DE;}
	.st75{fill:#DA1F26;}
	.st76{fill:#0C808B;}
	.st77{fill:#A7CACB;}
	.st78{fill:#DBDBDA;}
	.st79{fill:#DD5231;}
	.st80{fill:#409FA4;}
	.st81{fill:#DFBB26;}
	.st82{fill:#444445;}
	.st83{fill:#444545;}
]]>
</style>
<g>
	<g>
		<circle class="st38" cx="68.417" cy="68.417" r="63.333"/>
	</g>
	<g>
		<path class="st74" d="M5.083,68.417c0-5.854,32.684-15.729,64.232-15.75c31.783-0.021,62.434,9.854,62.434,15.75
			c0,34.977-28.355,63.332-63.334,63.332C33.439,131.75,5.083,103.394,5.083,68.417z"/>
	</g>
	<g>
		<g>
			<g>
				<g>
					<path class="st15" d="M82.044,49.304c0,7.545-6.113,13.656-13.654,13.656s-13.654-6.111-13.654-13.656
						c0-7.539,6.113-13.654,13.654-13.654S82.044,41.765,82.044,49.304z"/>
				</g>
				<g>
					<g>
						<path class="st49" d="M76.308,60.427c2.816,0.201,6.244,0.041,8.215-1.516c1.07-0.848,1.592-2.008,1.592-3.545
							c0-2.293-0.432-3.801-1.324-4.611c-0.672-0.613-1.611-0.85-2.76-0.898C81.857,54.218,79.64,58.05,76.308,60.427z"/>
					</g>
					<g>
						<path class="st15" d="M71.097,60.121c0.063-0.262,0.326-0.42,0.586-0.359c0.041,0.01,2.088,0.482,4.625,0.666
							c3.332-2.377,5.549-6.209,5.723-10.57c-1.076-0.047-2.336,0.072-3.74,0.205c-1.365,0.129-2.914,0.273-4.51,0.273
							c-0.268,0-0.486-0.217-0.486-0.486c0-0.268,0.219-0.486,0.486-0.486c1.551,0,3.008-0.137,4.416-0.271
							c1.385-0.129,2.682-0.25,3.838-0.203C81.814,41.542,75.792,35.65,68.39,35.65c-7.541,0-13.654,6.115-13.654,13.654
							c0,7.545,6.113,13.656,13.654,13.656c2.375,0,4.607-0.607,6.553-1.674c-1.922-0.217-3.338-0.545-3.486-0.578
							C71.195,60.644,71.035,60.382,71.097,60.121z"/>
					</g>
					<g>
						<path class="st15" d="M71.683,59.761c-0.26-0.061-0.523,0.098-0.586,0.359s0.098,0.523,0.359,0.588
							c0.148,0.033,1.564,0.361,3.486,0.578c0.473-0.26,0.93-0.549,1.365-0.859C73.771,60.244,71.724,59.771,71.683,59.761z"/>
					</g>
				</g>
				<g>
					<g>
						<ellipse class="st55" cx="73.541" cy="50.482" rx="1.871" ry="1.977"/>
					</g>
					<g>
						<path class="st48" d="M74.873,49.734c0,0.434-0.334,0.789-0.748,0.789c-0.41,0-0.746-0.355-0.746-0.789
							c0-0.439,0.336-0.791,0.746-0.791C74.539,48.943,74.873,49.294,74.873,49.734z"/>
					</g>
				</g>
				<g>
					<g>
						<ellipse class="st55" cx="63.324" cy="50.482" rx="1.871" ry="1.977"/>
					</g>
					<g>
						<path class="st48" d="M64.636,49.734c0,0.434-0.334,0.789-0.748,0.789c-0.412,0-0.748-0.355-0.748-0.789
							c0-0.439,0.336-0.791,0.748-0.791C64.302,48.943,64.636,49.294,64.636,49.734z"/>
					</g>
				</g>
				<g>
					<path class="st60" d="M82.044,49.304l-9.311-8.377c0,0-4.377,0.203-9.664,2.592c-5.098,2.307-8.334,5.785-8.334,5.785
						c0-7.539,6.113-13.654,13.654-13.654S82.044,41.765,82.044,49.304z"/>
				</g>
			</g>
		</g>
		<g>
			<path class="st27" d="M85.447,50.035c-0.877-0.799-2.047-1.09-3.412-1.146c0.002,0.139,0.01,0.277,0.01,0.416
				c0,0.186-0.008,0.369-0.014,0.553c1.148,0.049,2.088,0.285,2.76,0.898c0.893,0.811,1.324,2.318,1.324,4.611
				c0,1.537-0.521,2.697-1.592,3.545c-0.121,0.096-0.248,0.186-0.377,0.27c-0.043,0.027-0.088,0.051-0.133,0.078
				c-0.09,0.055-0.18,0.111-0.275,0.162c-0.055,0.029-0.109,0.055-0.166,0.082c-0.088,0.045-0.176,0.088-0.268,0.129
				c-0.061,0.025-0.125,0.051-0.188,0.076c-0.09,0.037-0.18,0.076-0.271,0.109c-0.064,0.023-0.133,0.045-0.199,0.066
				c-0.092,0.033-0.186,0.063-0.281,0.092c-0.068,0.021-0.139,0.039-0.209,0.059c-0.096,0.025-0.191,0.053-0.291,0.076
				c-0.068,0.018-0.141,0.033-0.211,0.049c-0.102,0.021-0.203,0.043-0.305,0.064c-0.07,0.014-0.143,0.025-0.215,0.039
				c-0.104,0.018-0.209,0.035-0.314,0.051c-0.07,0.012-0.143,0.02-0.213,0.031c-0.109,0.014-0.219,0.027-0.33,0.039
				c-0.068,0.008-0.137,0.016-0.205,0.023c-0.115,0.01-0.23,0.02-0.346,0.029c-0.066,0.006-0.133,0.012-0.199,0.016
				c-0.117,0.008-0.238,0.014-0.357,0.02c-0.063,0.002-0.123,0.006-0.188,0.01c-0.125,0.004-0.25,0.006-0.375,0.01
				c-0.057,0-0.113,0.002-0.17,0.002c-0.133,0.002-0.266,0.002-0.396,0.002c-0.049-0.002-0.098-0.002-0.148-0.002
				c-0.139-0.002-0.277-0.006-0.416-0.008c-0.041-0.002-0.082-0.002-0.123-0.004c-0.148-0.006-0.295-0.012-0.443-0.02
				c-0.029,0-0.059-0.002-0.088-0.004c-0.16-0.01-0.318-0.02-0.475-0.029c-2.555-0.18-4.623-0.658-4.664-0.668
				c-0.26-0.061-0.523,0.098-0.586,0.359s0.098,0.523,0.359,0.588c0.148,0.033,1.564,0.361,3.486,0.578l0,0c0.002,0,0.004,0,0.006,0
				c0.463,0.053,0.957,0.098,1.469,0.131c0.053,0.004,0.105,0.006,0.156,0.01c0.195,0.012,0.391,0.021,0.59,0.029
				c0.068,0.002,0.135,0.004,0.205,0.006c0.252,0.008,0.506,0.014,0.762,0.014c2.533,0,5.229-0.404,6.994-1.801
				c1.305-1.029,1.965-2.479,1.965-4.309C87.089,52.748,86.566,51.054,85.447,50.035z"/>
		</g>
		<g>
			<g>
				<path class="st33" d="M57.492,49.201H54.74c0,0.035-0.004,0.068-0.004,0.104c0,0.604,0.043,1.199,0.121,1.783h2.635V49.201z"/>
			</g>
			<g>
				<path class="st33" d="M82.042,49.201h-2.887v1.887h2.77c0.074-0.584,0.119-1.18,0.119-1.783
					C82.044,49.269,82.042,49.236,82.042,49.201z"/>
			</g>
		</g>
		<g>
			<g class="st43">
				<g>
					<path class="st69" d="M63.806,54.878c0,0,2.27,0.582,4.557,0.582s4.414-0.582,4.414-0.582l-4.422-6.936L63.806,54.878z"/>
				</g>
			</g>
			<g class="st44">
				<path class="st53" d="M70.109,54.962c0,0.574-1.029,0.746-1.758,0.746l0,0c-0.729,0-1.756-0.172-1.756-0.746l0.711-4.439
					c0-0.576,0.316-1.045,1.045-1.045l0,0c0.729,0,1.045,0.469,1.045,1.045L70.109,54.962z"/>
			</g>
			<g class="st44">
				<path class="st30" d="M68.351,55.708L68.351,55.708c-0.729,0-1.756-0.172-1.756-0.746l0.711-4.439
					c0-0.576,0.316-1.045,1.045-1.045l0,0V55.708z"/>
			</g>
			<g>
				<g>
					<g>
						<g>
							<path class="st49" d="M63.07,43.519c-1.063,0.482-2.041,1.016-2.93,1.557c0.811-0.195,1.828-0.324,3.105-0.299h9.734
								c0.209-0.004,0.414-0.004,0.613,0h0.189v0.004c2.979,0.092,4.297,1.01,4.869,1.471l-5.918-5.324
								C72.734,40.927,68.357,41.13,63.07,43.519z"/>
						</g>
						<g class="st43">
							<g>
								<path class="st23" d="M79.328,46.859l-0.676-0.607c-0.572-0.461-1.891-1.379-4.869-1.471v-0.004h-0.189
									c-0.199-0.004-0.404-0.004-0.613,0h-9.734c-1.277-0.025-2.295,0.104-3.105,0.299c-1.322,0.805-2.438,1.625-3.307,2.33
									c-0.006,0.092-0.014,0.189-0.018,0.305c-0.053,1.25,0.297,0.258,0.805-0.082c0.508-0.344,3.184-1.779,8.273-0.67
									c0.613,0.135,3.824,0.135,4.438,0c5.09-1.109,7.766,0.326,8.273,0.67c0.508,0.34,0.869,1.166,0.793-0.154
									C79.382,47.189,79.359,46.994,79.328,46.859z"/>
							</g>
						</g>
					</g>
					<g>
						<path class="st59" d="M79.626,47.074c-0.465-0.367-2.313-1.561-5.65-1.666v-0.006h-0.188c-0.197-0.002-0.4-0.002-0.607,0
							h-9.65c-3.842-0.076-5.945,1.277-6.445,1.672c-0.668,0.529-0.162,4.922,0.391,5.887c0.551,0.967,3.449,2.484,5.313,2.508
							c1.076,0.012,2.643-1.824,3.861-3.826c0.236-0.32,0.943-1.178,1.713-1.178c0.947,0,1.768,1.295,1.768,1.295l-0.002-0.012
							c1.207,1.961,2.738,3.732,3.795,3.721c1.863-0.023,4.76-1.541,5.313-2.508C79.787,51.996,80.292,47.603,79.626,47.074z
							 M62.751,53.933c-1.297-0.016-3.313-1.068-3.697-1.742c-0.383-0.672-0.734-3.727-0.271-4.094
							c0.465-0.367,2.906-1.914,7.549-0.719c0.561,0.143,0.455,0.488,0.336,1.119C66.363,50.113,64.044,53.951,62.751,53.933z
							 M77.656,52.191c-0.385,0.674-2.4,1.727-3.693,1.742c-1.297,0.018-3.615-3.82-3.92-5.436
							c-0.119-0.631-0.223-0.977,0.338-1.119c4.643-1.195,7.082,0.352,7.547,0.719C78.39,48.464,78.041,51.519,77.656,52.191z"/>
					</g>
					<g>
						<g>
							<path class="st69" d="M62.556,53.921c-1.174-0.318-2.58-0.988-3.455-1.666C59.542,52.894,61.306,53.82,62.556,53.921z"/>
						</g>
						<g class="st43">
							<g>
								<path class="st69" d="M66.667,48.498c0.119-0.631,0.225-0.977-0.336-1.119c-4.643-1.195-7.084,0.352-7.549,0.719
									c-0.463,0.367-0.111,3.422,0.271,4.094c0.014,0.021,0.031,0.043,0.047,0.064c0.875,0.678,2.281,1.348,3.455,1.666
									c0.066,0.008,0.133,0.012,0.195,0.012C64.044,53.951,66.363,50.113,66.667,48.498z"/>
							</g>
						</g>
						<g>
							<path class="st69" d="M77.609,52.257c-0.873,0.678-2.273,1.346-3.445,1.664C75.412,53.814,77.164,52.896,77.609,52.257z"/>
						</g>
						<g class="st43">
							<g>
								<path class="st69" d="M77.927,48.097c-0.465-0.367-2.904-1.914-7.547-0.719c-0.561,0.143-0.457,0.488-0.338,1.119
									c0.305,1.615,2.623,5.453,3.92,5.436c0.064,0,0.133-0.004,0.201-0.012c1.172-0.318,2.572-0.986,3.445-1.664
									c0.016-0.021,0.035-0.043,0.047-0.066C78.041,51.519,78.39,48.464,77.927,48.097z"/>
							</g>
						</g>
					</g>
				</g>
				<g>
					<path class="st33" d="M78.564,47.714c-0.367-0.289-1.799-1.213-4.373-1.34v-0.012h-0.357c-0.164-0.004-0.332-0.004-0.502,0
						H63.38c-0.172-0.004-0.338-0.004-0.502,0H62.63v0.006c-2.645,0.105-4.109,1.051-4.482,1.346
						c-0.539,0.428-0.131,3.982,0.316,4.764c0.447,0.783,2.793,2.012,4.301,2.031c1.158,0.014,3.021-2.625,3.982-4.699l-0.008,0.031
						c0,0,0.68-1.656,1.623-1.656c0.684,0,1.229,0.867,1.477,1.346c0.914,2.109,2.896,4.992,4.107,4.979
						c1.508-0.02,3.854-1.248,4.299-2.031C78.693,51.697,79.103,48.142,78.564,47.714z M66.667,48.498
						c-0.305,1.615-2.623,5.453-3.916,5.436c-1.297-0.016-3.313-1.068-3.697-1.742c-0.383-0.672-0.734-3.727-0.271-4.094
						c0.465-0.367,2.906-1.914,7.549-0.719C66.892,47.521,66.787,47.867,66.667,48.498z M77.656,52.191
						c-0.385,0.674-2.4,1.727-3.693,1.742c-1.297,0.018-3.615-3.82-3.92-5.436c-0.119-0.631-0.223-0.977,0.338-1.119
						c4.643-1.195,7.082,0.352,7.547,0.719C78.39,48.464,78.041,51.519,77.656,52.191z"/>
				</g>
			</g>
		</g>
		<g>
			<polygon class="st27" points="74.511,61.31 71.998,61.087 71.998,59.546 74.511,60.156 			"/>
		</g>
		<g>
			<g>
				<circle class="st33" cx="68.344" cy="60.095" r="4.019"/>
			</g>
			<g>
				<g>
					<circle class="st72" cx="68.344" cy="60.095" r="1.401"/>
				</g>
				<g>
					<circle class="st33" cx="68.345" cy="60.095" r="1.098"/>
				</g>
				<g>
					<path class="st27" d="M67.761,59.544c0.277-0.279,0.678-0.33,0.893-0.115s-0.793,1.223-1.006,1.008
						C67.431,60.222,67.484,59.824,67.761,59.544z"/>
				</g>
			</g>
			<g>
				<g>
					<g>
						<path class="st51" d="M66.089,59.935c0-1.156,0.936-2.096,2.094-2.096v-0.99c-1.703,0-3.086,1.381-3.086,3.086
							c0,0.006,0.002,0.01,0.002,0.016h0.99C66.089,59.945,66.089,59.941,66.089,59.935z"/>
					</g>
				</g>
				<g>
					<g>
						<path class="st51" d="M66.089,60.234c0,1.156,0.936,2.094,2.094,2.094v0.992c-1.703,0-3.086-1.381-3.086-3.086
							c0-0.006,0.002-0.012,0.002-0.018h0.99C66.089,60.222,66.089,60.228,66.089,60.234z"/>
					</g>
				</g>
				<g>
					<g>
						<path class="st51" d="M70.58,59.935c0-1.156-0.939-2.096-2.096-2.096v-0.99c1.705,0,3.086,1.381,3.086,3.086
							c0,0.006,0,0.01,0,0.016h-0.992C70.578,59.945,70.58,59.941,70.58,59.935z"/>
					</g>
				</g>
				<g>
					<g>
						<path class="st51" d="M70.58,60.234c0,1.156-0.939,2.094-2.096,2.094v0.992c1.705,0,3.086-1.381,3.086-3.086
							c0-0.006,0-0.012,0-0.018h-0.992C70.578,60.222,70.58,60.228,70.58,60.234z"/>
					</g>
				</g>
			</g>
		</g>
	</g>
	<g>
		<g>
			<g>
				<g>
					<path class="st15" d="M116.806,55.46c0,7.545-6.115,13.656-13.656,13.656S89.498,63.005,89.498,55.46
						c0-7.539,6.111-13.652,13.652-13.652S116.806,47.921,116.806,55.46z"/>
				</g>
				<g>
					<g>
						<path class="st49" d="M111.07,66.583c2.816,0.203,6.242,0.043,8.213-1.516c1.072-0.846,1.592-2.006,1.592-3.543
							c0-2.293-0.432-3.803-1.322-4.613c-0.672-0.611-1.611-0.848-2.762-0.898C116.617,60.375,114.4,64.208,111.07,66.583z"/>
					</g>
					<g>
						<path class="st15" d="M105.857,66.279c0.063-0.262,0.328-0.42,0.588-0.361c0.041,0.01,2.086,0.484,4.625,0.666
							c3.33-2.375,5.547-6.209,5.721-10.57c-1.074-0.045-2.336,0.072-3.74,0.205c-1.365,0.129-2.912,0.275-4.508,0.275
							c-0.27,0-0.486-0.219-0.486-0.486c0-0.27,0.217-0.488,0.486-0.488c1.551,0,3.006-0.137,4.416-0.27
							c1.383-0.131,2.68-0.25,3.836-0.203c-0.221-7.348-6.242-13.238-13.645-13.238c-7.541,0-13.652,6.113-13.652,13.652
							c0,7.545,6.111,13.656,13.652,13.656c2.375,0,4.609-0.605,6.555-1.672c-1.922-0.217-3.338-0.545-3.486-0.58
							C105.957,66.802,105.796,66.541,105.857,66.279z"/>
					</g>
					<g>
						<path class="st15" d="M106.445,65.917c-0.26-0.059-0.525,0.1-0.588,0.361c-0.061,0.262,0.1,0.523,0.361,0.586
							c0.148,0.035,1.564,0.363,3.486,0.58c0.473-0.26,0.928-0.549,1.365-0.861C108.531,66.402,106.486,65.927,106.445,65.917z"/>
					</g>
				</g>
				<g>
					<g>
						<path class="st55" d="M110.171,56.64c0,1.092-0.838,1.975-1.871,1.975s-1.869-0.883-1.869-1.975
							c0-1.094,0.836-1.979,1.869-1.979S110.171,55.546,110.171,56.64z"/>
					</g>
					<g>
						<path class="st48" d="M109.632,55.89c0,0.434-0.332,0.791-0.748,0.791c-0.41,0-0.746-0.357-0.746-0.791
							c0-0.438,0.336-0.791,0.746-0.791C109.3,55.099,109.632,55.453,109.632,55.89z"/>
					</g>
				</g>
				<g>
					<g>
						<path class="st55" d="M99.955,56.64c0,1.092-0.836,1.975-1.869,1.975s-1.871-0.883-1.871-1.975
							c0-1.094,0.838-1.979,1.871-1.979S99.955,55.546,99.955,56.64z"/>
					</g>
					<g>
						<path class="st48" d="M99.398,55.89c0,0.434-0.336,0.791-0.75,0.791c-0.412,0-0.746-0.357-0.746-0.791
							c0-0.438,0.334-0.791,0.746-0.791C99.062,55.099,99.398,55.453,99.398,55.89z"/>
					</g>
				</g>
				<g>
					<path class="st60" d="M116.806,55.46l-9.311-8.375c0,0-4.377,0.201-9.664,2.592c-5.098,2.307-8.334,5.783-8.334,5.783
						c0-7.539,6.111-13.652,13.652-13.652S116.806,47.921,116.806,55.46z"/>
				</g>
			</g>
		</g>
		<g>
			<path class="st27" d="M120.208,56.191c-0.879-0.797-2.049-1.088-3.414-1.145c0.004,0.139,0.012,0.275,0.012,0.414
				c0,0.186-0.008,0.369-0.016,0.553c1.15,0.051,2.09,0.287,2.762,0.898c0.891,0.811,1.322,2.32,1.322,4.613
				c0,1.537-0.52,2.697-1.592,3.543c-0.119,0.096-0.246,0.186-0.377,0.27c-0.043,0.027-0.086,0.053-0.131,0.078
				c-0.092,0.057-0.18,0.113-0.275,0.162c-0.055,0.029-0.111,0.055-0.168,0.082c-0.088,0.045-0.174,0.09-0.268,0.131
				c-0.061,0.025-0.123,0.049-0.186,0.076c-0.09,0.037-0.18,0.074-0.271,0.107c-0.066,0.023-0.135,0.045-0.201,0.068
				c-0.092,0.031-0.184,0.063-0.279,0.092c-0.07,0.02-0.139,0.037-0.209,0.059c-0.098,0.025-0.193,0.051-0.291,0.076
				c-0.07,0.018-0.141,0.031-0.211,0.047c-0.102,0.023-0.203,0.043-0.307,0.064c-0.07,0.014-0.143,0.027-0.213,0.039
				c-0.105,0.02-0.209,0.035-0.314,0.053c-0.072,0.01-0.143,0.02-0.215,0.029c-0.109,0.014-0.219,0.029-0.328,0.041
				c-0.068,0.008-0.139,0.016-0.207,0.021c-0.113,0.012-0.229,0.021-0.346,0.031c-0.064,0.004-0.131,0.01-0.197,0.014
				c-0.119,0.008-0.238,0.014-0.359,0.021c-0.063,0.002-0.123,0.004-0.186,0.008c-0.125,0.004-0.25,0.006-0.375,0.01
				c-0.059,0.002-0.115,0.004-0.172,0.004c-0.131,0.002-0.264,0.002-0.396,0c-0.047,0-0.096,0-0.146,0
				c-0.139-0.002-0.279-0.006-0.418-0.01c-0.039,0-0.08-0.002-0.121-0.004c-0.15-0.006-0.297-0.01-0.443-0.018
				c-0.031-0.002-0.059-0.002-0.09-0.004c-0.158-0.01-0.316-0.02-0.473-0.031c-2.557-0.178-4.623-0.658-4.664-0.668
				c-0.26-0.059-0.525,0.1-0.588,0.361c-0.061,0.262,0.1,0.523,0.361,0.586c0.148,0.035,1.564,0.363,3.486,0.58l0,0
				c0,0,0.002,0,0.004,0c0.465,0.053,0.959,0.098,1.471,0.131c0.053,0.004,0.104,0.006,0.156,0.008
				c0.193,0.012,0.389,0.021,0.588,0.029c0.068,0.002,0.137,0.006,0.207,0.008c0.252,0.008,0.504,0.014,0.762,0.014
				c2.533,0,5.229-0.404,6.994-1.801c1.303-1.029,1.963-2.479,1.963-4.309C121.849,58.906,121.328,57.21,120.208,56.191z"/>
		</g>
		<g>
			<g>
				<path class="st33" d="M92.251,55.359H89.5c0,0.033-0.002,0.068-0.002,0.102c0,0.605,0.043,1.201,0.119,1.785h2.635V55.359z"/>
			</g>
			<g>
				<path class="st33" d="M116.802,55.359h-2.885v1.887h2.768c0.076-0.584,0.121-1.18,0.121-1.785
					C116.806,55.427,116.802,55.392,116.802,55.359z"/>
			</g>
		</g>
		<g>
			<g class="st43">
				<g>
					<path class="st69" d="M98.566,61.037c0,0,2.27,0.582,4.557,0.582s4.416-0.582,4.416-0.582l-4.422-6.938L98.566,61.037z"/>
				</g>
			</g>
			<g class="st44">
				<path class="st53" d="M104.869,61.119c0,0.576-1.027,0.748-1.758,0.748l0,0c-0.727,0-1.756-0.172-1.756-0.748l0.711-4.439
					c0-0.576,0.318-1.043,1.045-1.043l0,0c0.73,0,1.047,0.467,1.047,1.043L104.869,61.119z"/>
			</g>
			<g class="st44">
				<path class="st30" d="M103.111,61.867L103.111,61.867c-0.727,0-1.756-0.172-1.756-0.748l0.711-4.439
					c0-0.576,0.318-1.043,1.045-1.043l0,0V61.867z"/>
			</g>
			<g>
				<g>
					<g>
						<g>
							<path class="st49" d="M97.832,49.677c-1.064,0.48-2.041,1.014-2.93,1.555c0.811-0.195,1.826-0.322,3.104-0.297h9.734
								c0.211-0.006,0.414-0.006,0.613,0h0.191v0.004c2.979,0.092,4.297,1.01,4.867,1.469l-5.916-5.322
								C107.496,47.085,103.119,47.287,97.832,49.677z"/>
						</g>
						<g class="st43">
							<g>
								<path class="st23" d="M114.087,53.015l-0.676-0.607c-0.57-0.459-1.889-1.377-4.867-1.469v-0.004h-0.191
									c-0.199-0.006-0.402-0.006-0.613,0h-9.734c-1.277-0.025-2.293,0.102-3.104,0.297c-1.324,0.805-2.439,1.625-3.307,2.33
									c-0.008,0.092-0.014,0.189-0.02,0.307c-0.053,1.25,0.297,0.258,0.807-0.084c0.508-0.342,3.184-1.777,8.273-0.668
									c0.613,0.133,3.824,0.133,4.436,0c5.09-1.109,7.766,0.326,8.275,0.668c0.506,0.342,0.869,1.166,0.793-0.152
									C114.144,53.347,114.119,53.152,114.087,53.015z"/>
							</g>
						</g>
					</g>
					<g>
						<path class="st59" d="M114.388,53.232c-0.467-0.369-2.313-1.561-5.652-1.666V51.56h-0.186c-0.199-0.004-0.402-0.004-0.609,0
							h-9.648c-3.842-0.078-5.945,1.275-6.445,1.672c-0.668,0.529-0.164,4.922,0.391,5.887c0.551,0.967,3.449,2.484,5.311,2.506
							c1.078,0.014,2.645-1.824,3.861-3.826c0.236-0.32,0.943-1.176,1.713-1.176c0.949,0,1.768,1.295,1.768,1.295l-0.002-0.012
							c1.207,1.959,2.738,3.732,3.797,3.719c1.863-0.021,4.76-1.539,5.311-2.506C114.548,58.154,115.054,53.761,114.388,53.232z
							 M97.511,60.091c-1.297-0.016-3.311-1.07-3.695-1.742c-0.383-0.672-0.734-3.727-0.271-4.094s2.904-1.916,7.549-0.721
							c0.559,0.145,0.453,0.49,0.336,1.119C101.125,56.269,98.806,60.109,97.511,60.091z M112.417,58.349
							c-0.385,0.672-2.4,1.727-3.695,1.742c-1.295,0.018-3.613-3.822-3.92-5.438c-0.117-0.629-0.223-0.975,0.338-1.119
							c4.645-1.195,7.084,0.354,7.549,0.721C113.152,54.623,112.8,57.677,112.417,58.349z"/>
					</g>
					<g>
						<g>
							<path class="st69" d="M97.318,60.08c-1.176-0.32-2.582-0.988-3.457-1.666C94.304,59.052,96.066,59.976,97.318,60.08z"/>
						</g>
						<g class="st43">
							<g>
								<path class="st69" d="M101.429,54.654c0.117-0.629,0.223-0.975-0.336-1.119c-4.645-1.195-7.086,0.354-7.549,0.721
									s-0.111,3.422,0.271,4.094c0.012,0.02,0.029,0.041,0.045,0.064c0.875,0.678,2.281,1.346,3.457,1.666
									c0.064,0.006,0.131,0.012,0.193,0.012C98.806,60.109,101.125,56.269,101.429,54.654z"/>
							</g>
						</g>
						<g>
							<path class="st69" d="M112.371,58.416c-0.873,0.678-2.273,1.346-3.445,1.664C110.173,59.972,111.923,59.054,112.371,58.416z"
								/>
						</g>
						<g class="st43">
							<g>
								<path class="st69" d="M112.689,54.255c-0.465-0.367-2.904-1.916-7.549-0.721c-0.561,0.145-0.455,0.49-0.338,1.119
									c0.307,1.615,2.625,5.455,3.92,5.438c0.064,0,0.133-0.006,0.203-0.012c1.172-0.318,2.572-0.986,3.445-1.664
									c0.016-0.021,0.033-0.045,0.047-0.066C112.8,57.677,113.152,54.623,112.689,54.255z"/>
							</g>
						</g>
					</g>
				</g>
				<g>
					<path class="st33" d="M113.324,53.871c-0.367-0.289-1.797-1.213-4.371-1.338v-0.014h-0.359c-0.164-0.002-0.33-0.002-0.502,0
						h-9.949c-0.172-0.002-0.34-0.002-0.502,0h-0.25v0.008c-2.643,0.104-4.109,1.049-4.482,1.344
						c-0.537,0.43-0.131,3.984,0.316,4.766s2.793,2.012,4.301,2.029c1.16,0.016,3.021-2.623,3.982-4.699L101.5,56
						c0,0,0.682-1.656,1.623-1.656c0.684,0,1.229,0.867,1.479,1.346c0.912,2.107,2.895,4.992,4.105,4.977
						c1.51-0.018,3.855-1.248,4.301-2.029C113.455,57.855,113.865,54.3,113.324,53.871z M101.429,54.654
						c-0.305,1.615-2.623,5.455-3.918,5.438c-1.297-0.016-3.311-1.07-3.695-1.742c-0.383-0.672-0.734-3.727-0.271-4.094
						s2.904-1.916,7.549-0.721C101.652,53.679,101.546,54.025,101.429,54.654z M112.417,58.349c-0.385,0.672-2.4,1.727-3.695,1.742
						c-1.295,0.018-3.613-3.822-3.92-5.438c-0.117-0.629-0.223-0.975,0.338-1.119c4.645-1.195,7.084,0.354,7.549,0.721
						C113.152,54.623,112.8,57.677,112.417,58.349z"/>
				</g>
			</g>
		</g>
		<g>
			<polygon class="st27" points="109.273,67.468 106.757,67.246 106.757,65.705 109.273,66.312 			"/>
		</g>
		<g>
			<g>
				<circle class="st33" cx="103.106" cy="66.253" r="4.019"/>
			</g>
			<g>
				<g>
					<circle class="st72" cx="103.106" cy="66.253" r="1.401"/>
				</g>
				<g>
					<circle class="st33" cx="103.105" cy="66.253" r="1.098"/>
				</g>
				<g>
					<path class="st27" d="M102.521,65.703c0.279-0.279,0.68-0.33,0.893-0.115c0.215,0.215-0.791,1.223-1.006,1.008
						C102.191,66.38,102.244,65.98,102.521,65.703z"/>
				</g>
			</g>
			<g>
				<g>
					<g>
						<path class="st51" d="M100.849,66.091c0-1.156,0.938-2.094,2.094-2.094v-0.992c-1.703,0-3.084,1.381-3.084,3.086
							c0,0.008,0,0.012,0,0.018h0.992C100.851,66.103,100.849,66.099,100.849,66.091z"/>
					</g>
				</g>
				<g>
					<g>
						<path class="st51" d="M100.849,66.39c0,1.158,0.938,2.096,2.094,2.096v0.99c-1.703,0-3.084-1.381-3.084-3.086
							c0-0.006,0-0.01,0-0.016h0.992C100.851,66.38,100.849,66.384,100.849,66.39z"/>
					</g>
				</g>
				<g>
					<g>
						<path class="st51" d="M105.339,66.091c0-1.156-0.938-2.094-2.094-2.094v-0.992c1.703,0,3.084,1.381,3.084,3.086
							c0,0.008,0,0.012,0,0.018h-0.992C105.337,66.103,105.339,66.099,105.339,66.091z"/>
					</g>
				</g>
				<g>
					<g>
						<path class="st51" d="M105.339,66.39c0,1.158-0.938,2.096-2.094,2.096v0.99c1.703,0,3.084-1.381,3.084-3.086
							c0-0.006,0-0.01,0-0.016h-0.992C105.337,66.38,105.339,66.384,105.339,66.39z"/>
					</g>
				</g>
			</g>
		</g>
	</g>
	<g>
		<g>
			<g>
				<g>
					<path class="st15" d="M47.302,55.46c0,7.545-6.115,13.656-13.656,13.656S19.994,63.005,19.994,55.46
						c0-7.539,6.111-13.652,13.652-13.652S47.302,47.921,47.302,55.46z"/>
				</g>
				<g>
					<g>
						<path class="st49" d="M41.566,66.583c2.816,0.203,6.242,0.043,8.213-1.516c1.072-0.846,1.592-2.006,1.592-3.543
							c0-2.293-0.432-3.803-1.322-4.613c-0.672-0.611-1.611-0.848-2.762-0.898C47.113,60.375,44.896,64.208,41.566,66.583z"/>
					</g>
					<g>
						<path class="st15" d="M36.353,66.279c0.063-0.262,0.328-0.42,0.588-0.361c0.041,0.01,2.086,0.484,4.625,0.666
							c3.33-2.375,5.547-6.209,5.721-10.57c-1.074-0.045-2.336,0.072-3.74,0.205c-1.365,0.129-2.912,0.275-4.508,0.275
							c-0.27,0-0.486-0.219-0.486-0.486c0-0.27,0.217-0.488,0.486-0.488c1.551,0,3.006-0.137,4.416-0.27
							c1.383-0.131,2.68-0.25,3.836-0.203c-0.221-7.348-6.242-13.238-13.645-13.238c-7.541,0-13.652,6.113-13.652,13.652
							c0,7.545,6.111,13.656,13.652,13.656c2.375,0,4.609-0.605,6.555-1.672c-1.922-0.217-3.338-0.545-3.486-0.58
							C36.453,66.802,36.292,66.541,36.353,66.279z"/>
					</g>
					<g>
						<path class="st15" d="M36.941,65.917c-0.26-0.059-0.525,0.1-0.588,0.361c-0.061,0.262,0.1,0.523,0.361,0.586
							c0.148,0.035,1.564,0.363,3.486,0.58c0.473-0.26,0.928-0.549,1.365-0.861C39.027,66.402,36.982,65.927,36.941,65.917z"/>
					</g>
				</g>
				<g>
					<g>
						<path class="st55" d="M40.667,56.64c0,1.092-0.838,1.975-1.871,1.975s-1.869-0.883-1.869-1.975
							c0-1.094,0.836-1.979,1.869-1.979S40.667,55.546,40.667,56.64z"/>
					</g>
					<g>
						<path class="st48" d="M40.128,55.89c0,0.434-0.332,0.791-0.748,0.791c-0.41,0-0.746-0.357-0.746-0.791
							c0-0.438,0.336-0.791,0.746-0.791C39.796,55.099,40.128,55.453,40.128,55.89z"/>
					</g>
				</g>
				<g>
					<g>
						<path class="st55" d="M30.451,56.64c0,1.092-0.836,1.975-1.869,1.975s-1.871-0.883-1.871-1.975
							c0-1.094,0.838-1.979,1.871-1.979S30.451,55.546,30.451,56.64z"/>
					</g>
					<g>
						<path class="st48" d="M29.894,55.89c0,0.434-0.336,0.791-0.75,0.791c-0.412,0-0.746-0.357-0.746-0.791
							c0-0.438,0.334-0.791,0.746-0.791C29.558,55.099,29.894,55.453,29.894,55.89z"/>
					</g>
				</g>
				<g>
					<path class="st60" d="M47.302,55.46l-9.311-8.375c0,0-4.377,0.201-9.664,2.592c-5.098,2.307-8.334,5.783-8.334,5.783
						c0-7.539,6.111-13.652,13.652-13.652S47.302,47.921,47.302,55.46z"/>
				</g>
			</g>
		</g>
		<g>
			<path class="st27" d="M50.705,56.191c-0.879-0.797-2.049-1.088-3.414-1.145c0.004,0.139,0.012,0.275,0.012,0.414
				c0,0.186-0.008,0.369-0.016,0.553c1.15,0.051,2.09,0.287,2.762,0.898c0.891,0.811,1.322,2.32,1.322,4.613
				c0,1.537-0.52,2.697-1.592,3.543c-0.119,0.096-0.246,0.186-0.377,0.27c-0.043,0.027-0.086,0.053-0.131,0.078
				c-0.092,0.057-0.18,0.113-0.275,0.162c-0.055,0.029-0.111,0.055-0.168,0.082c-0.088,0.045-0.174,0.09-0.268,0.131
				c-0.061,0.025-0.123,0.049-0.186,0.076c-0.09,0.037-0.18,0.074-0.271,0.107c-0.066,0.023-0.135,0.045-0.201,0.068
				c-0.092,0.031-0.184,0.063-0.279,0.092c-0.07,0.02-0.139,0.037-0.209,0.059c-0.098,0.025-0.193,0.051-0.291,0.076
				c-0.07,0.018-0.141,0.031-0.211,0.047c-0.102,0.023-0.203,0.043-0.307,0.064c-0.07,0.014-0.143,0.027-0.213,0.039
				c-0.105,0.02-0.209,0.035-0.314,0.053c-0.072,0.01-0.143,0.02-0.215,0.029c-0.109,0.014-0.219,0.029-0.328,0.041
				c-0.068,0.008-0.139,0.016-0.207,0.021c-0.113,0.012-0.229,0.021-0.346,0.031c-0.064,0.004-0.131,0.01-0.197,0.014
				c-0.119,0.008-0.238,0.014-0.359,0.021c-0.063,0.002-0.123,0.004-0.186,0.008c-0.125,0.004-0.25,0.006-0.375,0.01
				c-0.059,0.002-0.115,0.004-0.172,0.004c-0.131,0.002-0.264,0.002-0.396,0c-0.047,0-0.096,0-0.146,0
				c-0.139-0.002-0.279-0.006-0.418-0.01c-0.039,0-0.08-0.002-0.121-0.004c-0.15-0.006-0.297-0.01-0.443-0.018
				c-0.031-0.002-0.059-0.002-0.09-0.004c-0.158-0.01-0.316-0.02-0.473-0.031c-2.557-0.178-4.623-0.658-4.664-0.668
				c-0.26-0.059-0.525,0.1-0.588,0.361c-0.061,0.262,0.1,0.523,0.361,0.586c0.148,0.035,1.564,0.363,3.486,0.58l0,0
				c0,0,0.002,0,0.004,0c0.465,0.053,0.959,0.098,1.471,0.131c0.053,0.004,0.104,0.006,0.156,0.008
				c0.193,0.012,0.389,0.021,0.588,0.029c0.068,0.002,0.137,0.006,0.207,0.008c0.252,0.008,0.504,0.014,0.762,0.014
				c2.533,0,5.229-0.404,6.994-1.801c1.303-1.029,1.963-2.479,1.963-4.309C52.345,58.906,51.824,57.21,50.705,56.191z"/>
		</g>
		<g>
			<g>
				<path class="st33" d="M22.748,55.359h-2.752c0,0.033-0.002,0.068-0.002,0.102c0,0.605,0.043,1.201,0.119,1.785h2.635V55.359z"/>
			</g>
			<g>
				<path class="st33" d="M47.298,55.359h-2.885v1.887h2.768c0.076-0.584,0.121-1.18,0.121-1.785
					C47.302,55.427,47.298,55.392,47.298,55.359z"/>
			</g>
		</g>
		<g>
			<g class="st43">
				<g>
					<path class="st69" d="M29.062,61.037c0,0,2.27,0.582,4.557,0.582s4.416-0.582,4.416-0.582l-4.422-6.938L29.062,61.037z"/>
				</g>
			</g>
			<g class="st44">
				<path class="st53" d="M35.365,61.119c0,0.576-1.027,0.748-1.758,0.748l0,0c-0.727,0-1.756-0.172-1.756-0.748l0.711-4.439
					c0-0.576,0.318-1.043,1.045-1.043l0,0c0.73,0,1.047,0.467,1.047,1.043L35.365,61.119z"/>
			</g>
			<g class="st44">
				<path class="st30" d="M33.607,61.867L33.607,61.867c-0.727,0-1.756-0.172-1.756-0.748l0.711-4.439
					c0-0.576,0.318-1.043,1.045-1.043l0,0V61.867z"/>
			</g>
			<g>
				<g>
					<g>
						<g>
							<path class="st49" d="M28.328,49.677c-1.064,0.48-2.041,1.014-2.93,1.555c0.811-0.195,1.826-0.322,3.104-0.297h9.734
								c0.211-0.006,0.414-0.006,0.613,0h0.191v0.004c2.979,0.092,4.297,1.01,4.867,1.469l-5.916-5.322
								C37.992,47.085,33.615,47.287,28.328,49.677z"/>
						</g>
						<g class="st43">
							<g>
								<path class="st23" d="M44.583,53.015l-0.676-0.607c-0.57-0.459-1.889-1.377-4.867-1.469v-0.004h-0.191
									c-0.199-0.006-0.402-0.006-0.613,0h-9.734c-1.277-0.025-2.293,0.102-3.104,0.297c-1.324,0.805-2.439,1.625-3.307,2.33
									c-0.008,0.092-0.014,0.189-0.02,0.307c-0.053,1.25,0.297,0.258,0.807-0.084c0.508-0.342,3.184-1.777,8.273-0.668
									c0.613,0.133,3.824,0.133,4.436,0c5.09-1.109,7.766,0.326,8.275,0.668c0.506,0.342,0.869,1.166,0.793-0.152
									C44.64,53.347,44.615,53.152,44.583,53.015z"/>
							</g>
						</g>
					</g>
					<g>
						<path class="st59" d="M44.884,53.232c-0.467-0.369-2.313-1.561-5.652-1.666V51.56h-0.186c-0.199-0.004-0.402-0.004-0.609,0
							h-9.648c-3.842-0.078-5.945,1.275-6.445,1.672c-0.668,0.529-0.164,4.922,0.391,5.887c0.551,0.967,3.449,2.484,5.311,2.506
							c1.078,0.014,2.645-1.824,3.861-3.826c0.236-0.32,0.943-1.176,1.713-1.176c0.949,0,1.768,1.295,1.768,1.295l-0.002-0.012
							c1.207,1.959,2.738,3.732,3.797,3.719c1.863-0.021,4.76-1.539,5.311-2.506C45.044,58.154,45.55,53.761,44.884,53.232z
							 M28.007,60.091c-1.297-0.016-3.311-1.07-3.695-1.742c-0.383-0.672-0.734-3.727-0.271-4.094s2.904-1.916,7.549-0.721
							c0.559,0.145,0.453,0.49,0.336,1.119C31.621,56.269,29.302,60.109,28.007,60.091z M42.914,58.349
							c-0.385,0.672-2.4,1.727-3.695,1.742c-1.295,0.018-3.613-3.822-3.92-5.438c-0.117-0.629-0.223-0.975,0.338-1.119
							c4.645-1.195,7.084,0.354,7.549,0.721C43.648,54.623,43.296,57.677,42.914,58.349z"/>
					</g>
					<g>
						<g>
							<path class="st69" d="M27.814,60.08c-1.176-0.32-2.582-0.988-3.457-1.666C24.8,59.052,26.562,59.976,27.814,60.08z"/>
						</g>
						<g class="st43">
							<g>
								<path class="st69" d="M31.925,54.654c0.117-0.629,0.223-0.975-0.336-1.119c-4.645-1.195-7.086,0.354-7.549,0.721
									s-0.111,3.422,0.271,4.094c0.012,0.02,0.029,0.041,0.045,0.064c0.875,0.678,2.281,1.346,3.457,1.666
									c0.064,0.006,0.131,0.012,0.193,0.012C29.302,60.109,31.621,56.269,31.925,54.654z"/>
							</g>
						</g>
						<g>
							<path class="st69" d="M42.867,58.416c-0.873,0.678-2.273,1.346-3.445,1.664C40.669,59.972,42.419,59.054,42.867,58.416z"/>
						</g>
						<g class="st43">
							<g>
								<path class="st69" d="M43.185,54.255c-0.465-0.367-2.904-1.916-7.549-0.721c-0.561,0.145-0.455,0.49-0.338,1.119
									c0.307,1.615,2.625,5.455,3.92,5.438c0.064,0,0.133-0.006,0.203-0.012c1.172-0.318,2.572-0.986,3.445-1.664
									c0.016-0.021,0.033-0.045,0.047-0.066C43.296,57.677,43.648,54.623,43.185,54.255z"/>
							</g>
						</g>
					</g>
				</g>
				<g>
					<path class="st33" d="M43.82,53.871c-0.367-0.289-1.797-1.213-4.371-1.338v-0.014h-0.359c-0.164-0.002-0.33-0.002-0.502,0
						h-9.949c-0.172-0.002-0.34-0.002-0.502,0h-0.25v0.008c-2.643,0.104-4.109,1.049-4.482,1.344
						c-0.537,0.43-0.131,3.984,0.316,4.766s2.793,2.012,4.301,2.029c1.16,0.016,3.021-2.623,3.982-4.699L31.996,56
						c0,0,0.682-1.656,1.623-1.656c0.684,0,1.229,0.867,1.479,1.346c0.912,2.107,2.895,4.992,4.105,4.977
						c1.51-0.018,3.855-1.248,4.301-2.029C43.951,57.855,44.361,54.3,43.82,53.871z M31.925,54.654
						c-0.305,1.615-2.623,5.455-3.918,5.438c-1.297-0.016-3.311-1.07-3.695-1.742c-0.383-0.672-0.734-3.727-0.271-4.094
						s2.904-1.916,7.549-0.721C32.148,53.679,32.042,54.025,31.925,54.654z M42.914,58.349c-0.385,0.672-2.4,1.727-3.695,1.742
						c-1.295,0.018-3.613-3.822-3.92-5.438c-0.117-0.629-0.223-0.975,0.338-1.119c4.645-1.195,7.084,0.354,7.549,0.721
						C43.648,54.623,43.296,57.677,42.914,58.349z"/>
				</g>
			</g>
		</g>
		<g>
			<polygon class="st27" points="39.769,67.468 37.253,67.246 37.253,65.705 39.769,66.312 			"/>
		</g>
		<g>
			<g>
				<circle class="st33" cx="33.602" cy="66.253" r="4.019"/>
			</g>
			<g>
				<g>
					<circle class="st72" cx="33.602" cy="66.253" r="1.401"/>
				</g>
				<g>
					<circle class="st33" cx="33.601" cy="66.253" r="1.098"/>
				</g>
				<g>
					<path class="st27" d="M33.017,65.703c0.279-0.279,0.68-0.33,0.893-0.115c0.215,0.215-0.791,1.223-1.006,1.008
						C32.687,66.38,32.74,65.98,33.017,65.703z"/>
				</g>
			</g>
			<g>
				<g>
					<g>
						<path class="st51" d="M31.345,66.091c0-1.156,0.938-2.094,2.094-2.094v-0.992c-1.703,0-3.084,1.381-3.084,3.086
							c0,0.008,0,0.012,0,0.018h0.992C31.347,66.103,31.345,66.099,31.345,66.091z"/>
					</g>
				</g>
				<g>
					<g>
						<path class="st51" d="M31.345,66.39c0,1.158,0.938,2.096,2.094,2.096v0.99c-1.703,0-3.084-1.381-3.084-3.086
							c0-0.006,0-0.01,0-0.016h0.992C31.347,66.38,31.345,66.384,31.345,66.39z"/>
					</g>
				</g>
				<g>
					<g>
						<path class="st51" d="M35.835,66.091c0-1.156-0.938-2.094-2.094-2.094v-0.992c1.703,0,3.084,1.381,3.084,3.086
							c0,0.008,0,0.012,0,0.018h-0.992C35.833,66.103,35.835,66.099,35.835,66.091z"/>
					</g>
				</g>
				<g>
					<g>
						<path class="st51" d="M35.835,66.39c0,1.158-0.938,2.096-2.094,2.096v0.99c1.703,0,3.084-1.381,3.084-3.086
							c0-0.006,0-0.01,0-0.016h-0.992C35.833,66.38,35.835,66.384,35.835,66.39z"/>
					</g>
				</g>
			</g>
		</g>
	</g>
	<g>
		<g>
			<g>
				<g>
					<path class="st35" d="M87.294,111.367c0,0-8.922-1.344-8.922-4.703H59.921c0,3.359-8.904,4.703-8.904,4.703
						c-5.711,0.334-8.398,5.037-8.398,5.037l-3.908,7.945c8.861,4.715,18.967,7.4,29.705,7.4c11.213,0,21.74-2.918,30.877-8.029
						l-3.6-7.316C95.693,116.404,93.005,111.701,87.294,111.367z"/>
				</g>
			</g>
			<g>
				<g>
					<path class="st8" d="M87.294,111.041c0,0-8.922-1.018-8.922-4.377c0,0-2.127,4.174-4.717,5.506s-6.412,1-9.168,0
						c-2.756-1.002-4.566-5.506-4.566-5.506c0,3.359-8.904,4.377-8.904,4.377l-0.143,18.24c5.568,1.605,11.453,2.469,17.541,2.469
						c10.775,0,18.816-2.838,18.816-2.838L87.294,111.041z"/>
				</g>
			</g>
			<g>
				<g>
					<g>
						<path class="st53" d="M72.175,114.126h-1.072v-1.654c0-1.619-2.811-1.619-2.811,0v1.654h-1.561v2.145h1.561v4.252
							c0,1.617,2.811,1.617,2.811,0v-4.252h1.072V114.126z"/>
					</g>
					<g>
						<path class="st63" d="M69.699,111.259c-0.703-0.002-1.406,0.404-1.406,1.213v1.654h-1.561v2.145h1.561v4.252
							c0,0.754,0.752,1.156,1.404,1.207L69.699,111.259z"/>
					</g>
					<g>
						<path class="st33" d="M64.451,116.544c-0.916,0-0.916-2.691,0-2.691l2.377,0.207v2.275L64.451,116.544z"/>
					</g>
					<g>
						<g>
							<path class="st81" d="M71.246,119.22v-1.58h-1.549l-0.037,14.08c2.908-0.055,5.768-0.305,8.566-0.74v-4.193
								C78.226,123.242,74.941,119.771,71.246,119.22z"/>
						</g>
						<g>
							<path class="st25" d="M69.66,131.72l0.037-14.08H68.15v1.57c-3.732,0.523-7.074,4-7.074,7.576v4.525
								c2.41,0.277,4.855,0.438,7.34,0.438C68.833,131.75,69.246,131.728,69.66,131.72z"/>
						</g>
					</g>
				</g>
				<g>
					<g>
						<g>
							<path class="st83" d="M66.41,114.703c-0.004,0-0.006,0-0.01-0.002l-2.072-0.143c-0.078-0.006-0.139-0.074-0.133-0.152
								s0.076-0.137,0.152-0.133l2.072,0.143c0.078,0.006,0.139,0.074,0.133,0.152C66.548,114.644,66.486,114.703,66.41,114.703z"/>
						</g>
					</g>
					<g>
						<g>
							<path class="st83" d="M64.337,116.13c0.004,0,0.006,0,0.01,0l2.072-0.143c0.078-0.006,0.139-0.074,0.133-0.154
								c-0.006-0.076-0.076-0.135-0.152-0.131l-2.072,0.143c-0.078,0.004-0.139,0.074-0.133,0.152
								C64.201,116.074,64.263,116.13,64.337,116.13z"/>
						</g>
					</g>
					<g>
						<g>
							<path class="st83" d="M64.326,115.375c0.004,0,0.008,0,0.01,0l2.078-0.006c0.078,0,0.143-0.064,0.141-0.145
								c0-0.078-0.066-0.139-0.143-0.141l-2.076,0.004c-0.08,0-0.143,0.066-0.143,0.145
								C64.193,115.306,64.251,115.369,64.326,115.375z"/>
						</g>
					</g>
				</g>
			</g>
			<g>
				<path class="st27" d="M69.88,111.855l-2.41-0.006c-10.969-0.018-15.141-0.252-18.404-4.432c-1.959-2.51-2.023-2.855-1.188-6.25
					c0.523-2.133,7.465-3.24,9.424-3.24c0.576,0,1.146,0.016,1.691,0.051c0.008-0.002,0.068-0.006,0.072,0.002
					c0.199-0.006,0.387-0.088,0.523-0.234c0.139-0.145,0.211-0.336,0.205-0.535c-0.012-0.432-0.4-0.715-0.771-0.73l-0.152-0.004
					c-0.24-0.01-0.705-0.029-1.309-0.029c-2.973,0-10.395,1.332-11.141,4.363c-0.949,3.855-0.754,4.695,1.461,7.531
					c3.695,4.73,8.514,4.975,20.463,5.01l1.533,0.004c0.412,0,0.748-0.334,0.75-0.746C70.628,112.195,70.294,111.857,69.88,111.855z
					"/>
			</g>
			<g>
				<path class="st15" d="M53.847,88.033c0,9.33,7.018,16.889,15.674,16.889c8.654,0,15.67-7.559,15.67-16.889
					c0-9.324-7.016-16.887-15.67-16.887C60.865,71.146,53.847,78.708,53.847,88.033z"/>
			</g>
			<g>
				<rect x="60.142" y="101.335" class="st15" width="18.082" height="5.328"/>
			</g>
			<g>
				<path class="st60" d="M53.224,88.576c0,0,2.695,14.467,16.482,14.467c13.785,0,16.109-14.467,16.109-14.467
					c0-9.957-7.297-18.035-16.295-18.035C60.521,70.541,53.224,78.619,53.224,88.576z"/>
			</g>
		</g>
		<g>
			<g class="st45">
				<g>
					<path class="st23" d="M85.671,86.291c-2.475,0.467-6.186,1.08-10.123,1.441c-1.363-0.41-3.514-0.561-5.941-0.561
						s-4.578,0.15-5.939,0.559c-4.355-0.422-8.186-1.191-10.268-1.662c-0.104,0.822-0.176,1.654-0.176,2.508
						c0,0,0.031,0.166,0.102,0.451c2.08,0.449,5.961,1.209,10.15,1.652c1.346,0.869,3.588,1.574,6.131,1.574
						c2.539,0,4.777-0.703,6.125-1.57c3.771-0.373,7.463-0.975,9.941-1.424c0.102-0.432,0.143-0.684,0.143-0.684
						C85.816,87.8,85.757,87.041,85.671,86.291z M69.607,91.003c-2.094,0-3.791-0.939-3.791-1.652s1.697-0.932,3.791-0.932
						s3.791,0.219,3.791,0.932S71.701,91.003,69.607,91.003z"/>
				</g>
			</g>
			<g>
				<g>
					<path class="st60" d="M56.474,85.011l0.08,0.314c-0.221,0.059-0.375,0.107-0.375,0.107l-0.893,3.494
						c0,0,0.83-0.869,1.711-1.887l0.377,1.463c0,0,0.34-1.289,0.635-2.691c0.223-0.303,0.236-0.486,0.119-0.584
						c0.045-0.23,0.086-0.461,0.123-0.686C58.539,82.832,56.474,85.011,56.474,85.011z"/>
				</g>
				<g>
					<path class="st60" d="M70.89,84.513l0.082,0.314c-0.221,0.057-0.375,0.105-0.375,0.105l-0.893,3.496
						c0,0,0.83-0.869,1.709-1.887l0.377,1.463c0,0,0.342-1.289,0.635-2.691c0.223-0.305,0.236-0.488,0.119-0.584
						c0.045-0.232,0.088-0.461,0.125-0.686C72.957,82.333,70.89,84.513,70.89,84.513z"/>
				</g>
				<g>
					<path class="st60" d="M69.126,89.437l-0.068,0.201c0.186,0.037,0.314,0.068,0.314,0.068l0.748,2.23
						c0,0-0.695-0.555-1.432-1.205l-0.318,0.934c0,0-0.283-0.822-0.531-1.717c-0.186-0.193-0.197-0.311-0.1-0.373
						c-0.037-0.146-0.072-0.293-0.104-0.438C67.396,88.046,69.126,89.437,69.126,89.437z"/>
				</g>
				<g>
					<path class="st60" d="M82.519,86.156l-0.066,0.252c0.176,0.049,0.299,0.088,0.299,0.088l0.686,2.816
						c0,0-0.658-0.705-1.355-1.531l-0.316,1.172c0,0-0.262-1.039-0.486-2.168c-0.176-0.246-0.184-0.393-0.09-0.469
						c-0.035-0.188-0.064-0.373-0.092-0.553C80.882,84.386,82.519,86.156,82.519,86.156z"/>
				</g>
			</g>
		</g>
	</g>
</g>
</svg>
