<?xml version="1.0" encoding="utf-8"?>
<!-- Generator: Adobe Illustrator 16.0.0, SVG Export Plug-In . SVG Version: 6.00 Build 0)  -->
<!DOCTYPE svg PUBLIC "-//W3C//DTD SVG 1.1//EN" "http://www.w3.org/Graphics/SVG/1.1/DTD/svg11.dtd">
<svg version="1.1" id="Layer_1" xmlns="http://www.w3.org/2000/svg" xmlns:xlink="http://www.w3.org/1999/xlink" x="0px" y="0px"
	 width="136.833px" height="136.834px" viewBox="0 0 136.833 136.834" style="enable-background:new 0 0 136.833 136.834;"
	 xml:space="preserve">
<style type="text/css">
<![CDATA[
	.st0{fill:#47A4A9;}
	.st1{fill:#49A0AE;}
	.st2{fill:#E0E1D4;}
	.st3{fill:#E1B623;}
	.st4{fill:#1467A8;}
	.st5{fill-rule:evenodd;clip-rule:evenodd;fill:#757575;}
	.st6{fill:#E4C025;}
	.st7{fill:#E4DEDF;}
	.st8{fill:#4A4A4A;}
	.st9{fill:#4ABC96;}
	.st10{fill:#E5DBC5;}
	.st11{fill:#19241E;}
	.st12{fill:#E7E7E7;}
	.st13{fill:#E8E1D3;}
	.st14{fill:#E96238;}
	.st15{fill:#E9C29C;}
	.st16{fill:#E9E9EA;}
	.st17{fill-rule:evenodd;clip-rule:evenodd;fill:#DDDDDC;}
	.st18{fill:#4FAFB9;}
	.st19{fill:#B1D4D7;}
	.st20{fill:#B3E0DF;}
	.st21{fill:#B8E3EB;}
	.st22{fill:#ECE9E9;}
	.st23{fill:#ECECEC;}
	.st24{fill:#ED7B3A;}
	.st25{fill:#EDC92C;}
	.st26{fill:#EEB488;}
	.st27{fill:#525252;}
	.st28{fill-rule:evenodd;clip-rule:evenodd;fill:#E4E4E4;}
	.st29{fill-rule:evenodd;clip-rule:evenodd;fill:#4B4A4B;}
	.st30{fill:#BDD2CE;}
	.st31{fill:#BFC1A9;}
	.st32{fill:#F16D53;}
	.st33{fill:#5A5A5A;}
	.st34{fill-rule:evenodd;clip-rule:evenodd;fill:#B5B2B3;}
	.st35{fill:#5C5C5C;}
	.st36{fill:#F7C192;}
	.st37{fill:#959595;}
	.st38{fill:#C4E2E7;}
	.st39{fill:#C6CBC8;}
	.st40{fill:#989897;}
	.st41{fill:#99999A;}
	.st42{opacity:0.2;}
	.st43{opacity:0.6;}
	.st44{opacity:0.8;}
	.st45{opacity:0.9;}
	.st46{fill:#606060;}
	.st47{fill-rule:evenodd;clip-rule:evenodd;fill:#BFC1A9;}
	.st48{fill:#FFFFFF;}
	.st49{fill:none;}
	.st50{fill-rule:evenodd;clip-rule:evenodd;fill:#5A5A5A;}
	.st51{fill:#676767;}
	.st52{fill:#67C3C8;}
	.st53{fill:#CAD8D4;}
	.st54{fill-rule:evenodd;clip-rule:evenodd;fill:#C0BEBF;}
	.st55{fill:#343433;}
	.st56{fill:#343A36;}
	.st57{fill:#353535;}
	.st58{fill:#357180;}
	.st59{fill:#377EC0;}
	.st60{fill:#6B491E;}
	.st61{fill:#6D6D6D;}
	.st62{fill-rule:evenodd;clip-rule:evenodd;fill:#616161;}
	.st63{fill:#D4DFDC;}
	.st64{fill:#D62127;}
	.st65{fill:#D6B429;}
	.st66{fill:#D7D0BC;}
	.st67{fill:#D7DABA;}
	.st68{fill:#3D929A;}
	.st69{fill:#D8E4E1;}
	.st70{fill:#D96527;}
	.st71{fill-rule:evenodd;clip-rule:evenodd;fill:#CDCCCB;}
	.st72{fill:#717171;}
	.st73{fill:#A19F9F;}
	.st74{fill:#A2D4DE;}
	.st75{fill:#DA1F26;}
	.st76{fill:#0C808B;}
	.st77{fill:#A7CACB;}
	.st78{fill:#DBDBDA;}
	.st79{fill:#DD5231;}
	.st80{fill:#409FA4;}
	.st81{fill:#DFBB26;}
	.st82{fill:#444445;}
	.st83{fill:#444545;}
]]>
</style>
<g>
	<g>
		<circle class="st9" cx="68.417" cy="68.417" r="63.332"/>
	</g>
	<g>
		<g>
			<g>
				<g>
					<path class="st53" d="M68.657,116.447c-1.566,0-7.566-0.296-12.234-5.781c-2.27-2.667-3.469-6.192-3.469-10.195
						c0-2.227,1.508-4.031,3.371-4.031c1.861,0,3.369,1.805,3.369,4.031c0,1.868,0.463,3.28,1.453,4.444
						c2.5,2.939,6.02,3.521,7.66,3.469c9.486-0.001,11.418-5.313,11.418-13.289c0-2.227,1.51-4.031,3.371-4.031
						s3.371,1.805,3.371,4.031c0,14.168-6.09,21.351-18.102,21.351C68.817,116.446,68.747,116.447,68.657,116.447z"/>
				</g>
			</g>
			<g>
				<g>
					<path class="st53" d="M64.473,97.918c0,1.381-1.119,2.5-2.5,2.5c0,0-3.646,1.021-6.135,1.021c-2.49,0-5.615-1.021-5.615-1.021
						c-1.381,0-2.5-1.119-2.5-2.5l0,0c0-1.381,1.119-2.5,2.5-2.5c0,0,3.209,1.021,5.699,1.021c2.488,0,6.051-1.021,6.051-1.021
						C63.354,95.418,64.473,96.538,64.473,97.918L64.473,97.918z"/>
				</g>
				<g>
					<ellipse class="st53" cx="54.098" cy="96.231" rx="1.063" ry="1.688"/>
				</g>
				<g>
					<ellipse class="st53" cx="58.223" cy="96.231" rx="1.063" ry="1.688"/>
				</g>
			</g>
		</g>
		<g>
			<g>
				<g>
					<path class="st59" d="M83.561,97.043c-2.227,0-4.031-1.805-4.031-4.031V22.944c0-2.227,8.063-2.227,8.063,0v70.068
						C87.592,95.239,85.788,97.043,83.561,97.043z"/>
				</g>
			</g>
			<g>
				<g>
					<path class="st4" d="M79.53,36.232V22.944c0-2.227,8.063-2.227,8.063,0v13.288H79.53z"/>
				</g>
			</g>
			<g>
				<path class="st33" d="M79.53,88.45v4.479c0,2.226,8.063,2.226,8.063,0V88.45H79.53z"/>
			</g>
			<g>
				<rect x="79.53" y="34.439" class="st33" width="8.063" height="4.479"/>
			</g>
			<g>
				<path class="st33" d="M79.081,92.769v2.557c0,2.557,8.811,2.557,8.811,0v-2.557C87.891,90.212,79.081,90.212,79.081,92.769z"/>
			</g>
		</g>
	</g>
</g>
</svg>
