<?xml version="1.0" encoding="utf-8"?>
<!-- Generator: Adobe Illustrator 16.0.0, SVG Export Plug-In . SVG Version: 6.00 Build 0)  -->
<!DOCTYPE svg PUBLIC "-//W3C//DTD SVG 1.1//EN" "http://www.w3.org/Graphics/SVG/1.1/DTD/svg11.dtd">
<svg version="1.1" id="Layer_1" xmlns="http://www.w3.org/2000/svg" xmlns:xlink="http://www.w3.org/1999/xlink" x="0px" y="0px"
	 width="136.833px" height="136.833px" viewBox="0 0 136.833 136.833" style="enable-background:new 0 0 136.833 136.833;"
	 xml:space="preserve">
<style type="text/css">
<![CDATA[
	.st0{fill:#47A4A9;}
	.st1{fill:#49A0AE;}
	.st2{fill:#E0E1D4;}
	.st3{fill:#E1B623;}
	.st4{fill:#1467A8;}
	.st5{fill-rule:evenodd;clip-rule:evenodd;fill:#757575;}
	.st6{fill:#E4C025;}
	.st7{fill:#E4DEDF;}
	.st8{fill:#4A4A4A;}
	.st9{fill:#4ABC96;}
	.st10{fill:#E5DBC5;}
	.st11{fill:#19241E;}
	.st12{fill:#E7E7E7;}
	.st13{fill:#E8E1D3;}
	.st14{fill:#E96238;}
	.st15{fill:#E9C29C;}
	.st16{fill:#E9E9EA;}
	.st17{fill-rule:evenodd;clip-rule:evenodd;fill:#DDDDDC;}
	.st18{fill:#4FAFB9;}
	.st19{fill:#B1D4D7;}
	.st20{fill:#B3E0DF;}
	.st21{fill:#B8E3EB;}
	.st22{fill:#ECE9E9;}
	.st23{fill:#ECECEC;}
	.st24{fill:#ED7B3A;}
	.st25{fill:#EDC92C;}
	.st26{fill:#EEB488;}
	.st27{fill:#525252;}
	.st28{fill-rule:evenodd;clip-rule:evenodd;fill:#E4E4E4;}
	.st29{fill-rule:evenodd;clip-rule:evenodd;fill:#4B4A4B;}
	.st30{fill:#BDD2CE;}
	.st31{fill:#BFC1A9;}
	.st32{fill:#F16D53;}
	.st33{fill:#5A5A5A;}
	.st34{fill-rule:evenodd;clip-rule:evenodd;fill:#B5B2B3;}
	.st35{fill:#5C5C5C;}
	.st36{fill:#F7C192;}
	.st37{fill:#959595;}
	.st38{fill:#C4E2E7;}
	.st39{fill:#C6CBC8;}
	.st40{fill:#989897;}
	.st41{fill:#99999A;}
	.st42{opacity:0.2;}
	.st43{opacity:0.6;}
	.st44{opacity:0.8;}
	.st45{opacity:0.9;}
	.st46{fill:#606060;}
	.st47{fill-rule:evenodd;clip-rule:evenodd;fill:#BFC1A9;}
	.st48{fill:#FFFFFF;}
	.st49{fill:none;}
	.st50{fill-rule:evenodd;clip-rule:evenodd;fill:#5A5A5A;}
	.st51{fill:#676767;}
	.st52{fill:#67C3C8;}
	.st53{fill:#CAD8D4;}
	.st54{fill-rule:evenodd;clip-rule:evenodd;fill:#C0BEBF;}
	.st55{fill:#343433;}
	.st56{fill:#343A36;}
	.st57{fill:#353535;}
	.st58{fill:#357180;}
	.st59{fill:#377EC0;}
	.st60{fill:#6B491E;}
	.st61{fill:#6D6D6D;}
	.st62{fill-rule:evenodd;clip-rule:evenodd;fill:#616161;}
	.st63{fill:#D4DFDC;}
	.st64{fill:#D62127;}
	.st65{fill:#D6B429;}
	.st66{fill:#D7D0BC;}
	.st67{fill:#D7DABA;}
	.st68{fill:#3D929A;}
	.st69{fill:#D8E4E1;}
	.st70{fill:#D96527;}
	.st71{fill-rule:evenodd;clip-rule:evenodd;fill:#CDCCCB;}
	.st72{fill:#717171;}
	.st73{fill:#A19F9F;}
	.st74{fill:#A2D4DE;}
	.st75{fill:#DA1F26;}
	.st76{fill:#0C808B;}
	.st77{fill:#A7CACB;}
	.st78{fill:#DBDBDA;}
	.st79{fill:#DD5231;}
	.st80{fill:#409FA4;}
	.st81{fill:#DFBB26;}
	.st82{fill:#444445;}
	.st83{fill:#444545;}
]]>
</style>
<g>
	<g>
		<circle class="st74" cx="68.417" cy="68.417" r="63.333"/>
	</g>
	<g>
		<g>
			<path class="st67" d="M110.511,88.175c0,1.934-1.568,3.502-3.502,3.502H31.44c-1.935,0-3.502-1.568-3.502-3.502V46.162
				c0-1.934,1.567-3.502,3.502-3.502h75.568c1.934,0,3.502,1.568,3.502,3.502V88.175z"/>
		</g>
		<g>
			<path class="st76" d="M110.511,88.175c0,1.934-1.568,3.502-3.502,3.502H31.44c-1.935,0-3.502-1.568-3.502-3.502V52.859h82.572
				V88.175z"/>
		</g>
		<g>
			<g>
				<path class="st67" d="M80.368,73.986c-0.342-0.68-2.604-0.121-2.604-0.121c-2.08,0.502-5.263-0.617-5.263-0.617
					c-0.97-0.672-1.739-2.588-2.241-4.205c0.483,0.256,1.039,0.391,1.622,0.365c0.583-0.023,1.118-0.205,1.575-0.494
					c0.158,0.127,0.348,0.205,0.549,0.195c0.5-0.02,0.884-0.529,0.856-1.127c-0.007-0.168-0.046-0.32-0.106-0.458
					c0.339-0.091,0.58-0.405,0.564-0.771l-0.041-0.971c-0.015-0.333-0.238-0.605-0.538-0.695c-0.474-1.263-1.714-2.135-3.134-2.072
					c-1.414,0.06-2.57,1.029-2.938,2.319c-0.237-0.12-0.495-0.181-0.765-0.197c0.129-0.378,0.144-0.798,0-1.21
					c-0.339-0.973-1.397-1.477-2.368-1.139l-9.321,3.301c-0.971,0.334-1.478,1.399-1.14,2.366c0.136,0.39,0.394,0.7,0.71,0.917
					c-0.501,0.148-0.961,0.275-1.379,0.388c-4.197-2.132-6.119-7.861-6.329-8.524c0.34-0.192,0.565-0.41,0.514-0.645
					c-0.174-0.76-6.326-2.932-8.166-5.223l-1.335-0.289c0,0,2.361,4.707,6.911,6.875c0.47,3.83,2.263,6.896,3.209,8.285
					c-2.977-0.76-6.36-2.824-6.94-3.188c0.125-0.234,0.369-0.872-0.456-1.146c-0.663-0.22-1.306,0.175-2.029,1.109
					c-0.593,0.764-3.304,6.088-7.168,6.882l-0.725,0.933c0,0,6.451-0.555,9.284-5.971l0.044-0.07
					c5.218,4.859,12.013,5.809,12.013,5.809c7.741-0.283,14.334-3.539,14.334-3.539c2.689,4.203,4.236,4.552,4.236,4.552
					c3.932,0.762,7.258,0.385,7.258,0.385C80.895,75.407,80.368,73.986,80.368,73.986z"/>
			</g>
			<g>
				<path class="st67" d="M75.86,66.88c0.011,0.228,0.201,0.402,0.428,0.391c0.228-0.011,0.402-0.199,0.395-0.426
					c-0.012-0.229-0.203-0.404-0.43-0.395C76.026,66.458,75.852,66.65,75.86,66.88z"/>
			</g>
			<g>
				<path class="st67" d="M76.044,64.662c0.018,0.348,0.412,0.614,0.887,0.593c0.477-0.021,0.846-0.317,0.831-0.667
					c-0.015-0.348-0.41-0.615-0.884-0.594C76.401,64.017,76.03,64.312,76.044,64.662z"/>
			</g>
			<g>
				<path class="st67" d="M76.086,62.896c0.768-0.034,1.37-0.457,1.349-0.947c-0.02-0.484-0.657-0.855-1.424-0.821
					c-0.769,0.033-1.37,0.453-1.35,0.94C74.683,62.557,75.32,62.927,76.086,62.896z"/>
			</g>
		</g>
		<g>
			<path class="st31" d="M85.985,45.302H53.68c-1.385,0-2.507,1.123-2.507,2.508s1.122,2.506,2.507,2.506h32.306
				c1.385,0,2.506-1.121,2.506-2.506S87.37,45.302,85.985,45.302z"/>
		</g>
		<g>
			<g>
				<path class="st67" d="M94.573,67.173c0.426-0.273,0.941-0.766,0.657-1.436c0,0-1.084-0.613-1.862,1.061
					c-0.441-0.334-0.872-0.574-1.285-0.717c0.023-0.029,0.25-0.344-0.027-0.508c-0.276-0.16-0.9,0.289-0.969,0.34
					c-0.054,0.002-0.107-0.002-0.16,0.002c-1.566,0.131-2.712,1.078-2.858,1.547c-0.011,0.033,0.444,0.061,0.424,0.188
					c-0.027,0.166-0.425-0.086-0.433-0.045c-0.005,0.035-0.004,0.053,0.021,0.117c0.406,1.086,1.932,1.42,2.748,1.445
					c0.104,0.004,0.206-0.002,0.307-0.01c0.172,0.119,0.679,0.445,0.92,0.305c0.292-0.17,0.024-0.512,0.024-0.512l-0.083,0.014
					c0.734-0.27,1.328-0.75,1.693-1.104c1.115,1.486,2.051,0.656,2.051,0.656C95.902,67.681,95.046,67.312,94.573,67.173z"/>
			</g>
			<g>
				<path class="st67" d="M100.933,61.986c0.426-0.273,0.941-0.766,0.657-1.436c0,0-1.083-0.615-1.862,1.061
					c-0.441-0.336-0.872-0.574-1.284-0.717c0.022-0.031,0.25-0.344-0.028-0.508c-0.275-0.16-0.9,0.289-0.969,0.34
					c-0.054,0.002-0.107-0.002-0.16,0.002c-1.565,0.129-2.712,1.078-2.858,1.547c-0.01,0.033,0.445,0.061,0.424,0.188
					c-0.027,0.164-0.425-0.086-0.432-0.045c-0.006,0.035-0.004,0.053,0.021,0.117c0.406,1.084,1.932,1.42,2.748,1.445
					c0.104,0.002,0.207-0.002,0.307-0.01c0.172,0.119,0.68,0.445,0.92,0.305c0.293-0.172,0.024-0.512,0.024-0.512l-0.082,0.014
					c0.733-0.27,1.327-0.75,1.693-1.104c1.115,1.486,2.05,0.656,2.05,0.656C102.262,62.494,101.405,62.125,100.933,61.986z"/>
			</g>
			<g>
				<path class="st67" d="M90.409,59.986c0.426-0.273,0.941-0.768,0.657-1.436c0,0-1.083-0.615-1.862,1.061
					c-0.442-0.336-0.873-0.574-1.283-0.719c0.021-0.027,0.249-0.342-0.029-0.506c-0.275-0.16-0.9,0.289-0.969,0.34
					c-0.054,0.002-0.107-0.002-0.16,0.002c-1.565,0.129-2.712,1.078-2.858,1.547c-0.009,0.033,0.445,0.061,0.424,0.188
					c-0.026,0.166-0.425-0.086-0.432-0.045c-0.006,0.035-0.003,0.053,0.021,0.117c0.406,1.084,1.932,1.42,2.748,1.445
					c0.104,0.002,0.207-0.002,0.308-0.01c0.171,0.119,0.679,0.445,0.919,0.303c0.292-0.17,0.024-0.51,0.024-0.51l-0.082,0.014
					c0.733-0.27,1.327-0.75,1.693-1.104c1.115,1.486,2.05,0.656,2.05,0.656C91.738,60.494,90.882,60.125,90.409,59.986z"/>
			</g>
		</g>
		<g>
			<g>
				<path class="st67" d="M41.187,89.556c0,0-0.676-10.471-3.377-11.82c0,0-1.014-2.027,0.338-1.521c0,0,3.884,5.742,4.222,13.174
					L41.187,89.556z"/>
			</g>
			<g>
				<path class="st67" d="M44.537,89.556c0,0,0.677-10.471,3.379-11.82c0,0,1.013-2.027-0.339-1.521c0,0-3.884,5.742-4.221,13.174
					L44.537,89.556z"/>
			</g>
			<g>
				<path class="st67" d="M43.554,89.636c0,0-1.091-6.988,0.488-8.273c0,0,0.37-1.484-0.444-0.949c0,0-1.714,4.348-0.846,9.287
					L43.554,89.636z"/>
			</g>
			<g>
				<path class="st67" d="M40.411,82.46c0.317-1.625,0.4-3.26-0.274-4.021c0,0-0.147-1.588,0.694-0.801c0,0,0.7,2.939,0.102,6.422
					L40.411,82.46z"/>
			</g>
			<g>
				<path class="st67" d="M41.394,88.511c-1.338-1.787-2.899-3.348-4.271-3.359c0,0-1.721-1.289-0.173-1.418
					c0,0,3.573,1.955,6.512,5.703L41.394,88.511z"/>
			</g>
			<g>
				<path class="st67" d="M44.236,88.625c1.141-1.904,2.494-3.611,3.752-3.764c0,0,1.516-1.453,0.091-1.418
					c0,0-3.185,2.309-5.696,6.314L44.236,88.625z"/>
			</g>
			<g>
				<path class="st67" d="M41.228,87.783c-0.566-2.158-1.569-4.617-3.115-5.258c0,0-1.354-2.25,0.455-1.684
					c0,0,2.917,4.002,4.228,8.578L41.228,87.783z"/>
			</g>
			<g>
				<path class="st67" d="M44.507,83.306c0.317-1.627,0.4-3.262-0.275-4.023c0,0-0.147-1.588,0.694-0.801
					c0,0,0.701,2.941,0.103,6.424L44.507,83.306z"/>
			</g>
			<g>
				<path class="st67" d="M43.789,88.16c0.318-1.625,0.401-3.26-0.276-4.021c0,0-0.146-1.588,0.695-0.801c0,0,0.7,2.939,0.103,6.422
					L43.789,88.16z"/>
			</g>
			<g>
				<path class="st67" d="M42.69,89.568c0,0-1.517-9.709,0.679-11.494c0,0,0.514-2.061-0.617-1.322c0,0-2.382,6.043-1.176,12.904
					L42.69,89.568z"/>
			</g>
			<g>
				<path class="st67" d="M45.039,89.341c0.038-0.049,0.076-0.098,0.076-0.154c0-0.291-0.569-0.523-1.272-0.523
					c-0.006,0-0.01,0-0.016,0c-0.231-0.098-0.554-0.162-0.914-0.162c-0.35,0-0.666,0.059-0.896,0.152
					c-0.12-0.018-0.243-0.029-0.377-0.029c-0.662,0-1.189,0.209-1.249,0.475c-0.304,0.096-0.513,0.24-0.513,0.412
					c0,0.26,0.465,0.463,1.063,0.506c0.206,0.176,0.635,0.301,1.14,0.301c0.478,0,0.876-0.113,1.095-0.273
					c0.233,0.115,0.569,0.193,0.962,0.193c0.701,0,1.272-0.236,1.272-0.525C45.409,89.568,45.268,89.437,45.039,89.341z"/>
			</g>
		</g>
		<g>
			<g>
				<g>
					<g>
						<circle class="st48" cx="99.189" cy="81.85" r="6.697"/>
					</g>
					<g>
						<circle class="st4" cx="99.189" cy="81.85" r="6.362"/>
					</g>
					<g>
						<g>
							<path class="st48" d="M99.188,88.044c-1.304,0-2.008-3.191-2.008-6.194s0.704-6.194,2.008-6.194
								c1.306,0,2.01,3.191,2.01,6.194S100.494,88.044,99.188,88.044z M99.188,75.99c-0.791,0-1.674,2.406-1.674,5.86
								s0.883,5.86,1.674,5.86c0.793,0,1.675-2.406,1.675-5.86S99.981,75.99,99.188,75.99z"/>
						</g>
					</g>
					<g>
						<g>
							<path class="st48" d="M99.188,88.044c-2.492,0-4.52-2.778-4.52-6.194c0-3.415,2.027-6.194,4.52-6.194
								c2.494,0,4.521,2.779,4.521,6.194C103.71,85.266,101.683,88.044,99.188,88.044z M99.188,75.99
								c-2.32,0-4.208,2.629-4.208,5.86s1.888,5.86,4.208,5.86c2.322,0,4.209-2.629,4.209-5.86S101.511,75.99,99.188,75.99z"/>
						</g>
					</g>
				</g>
			</g>
		</g>
		<g>
			<g>
				<path class="st48" d="M104.497,83.427c-0.082-0.176-0.31-0.176-0.385-0.176c-0.168,0-0.35,0.041-0.357,0.041
					c-0.054,0.014-0.118,0.019-0.189,0.019c-0.334,0-0.723-0.132-0.82-0.165c-0.094-0.08-0.193-0.266-0.285-0.523
					c0.031,0.004,0.063,0.006,0.097,0.006h0.001c0.115-0.002,0.229-0.029,0.334-0.076c0.039,0.017,0.08,0.024,0.123,0.024
					c0.088-0.001,0.172-0.038,0.236-0.104c0.075-0.077,0.117-0.186,0.115-0.299c0-0.006,0-0.01,0-0.016
					c0.067-0.061,0.107-0.148,0.105-0.246l-0.004-0.207c-0.002-0.11-0.058-0.209-0.145-0.268c-0.134-0.308-0.439-0.508-0.792-0.508
					c-0.252,0.002-0.481,0.115-0.638,0.301c-0.001-0.004-0.002-0.01-0.004-0.014c-0.092-0.289-0.411-0.458-0.707-0.364l-2.016,0.654
					c-0.143,0.041-0.259,0.14-0.329,0.272c-0.069,0.135-0.083,0.289-0.038,0.434c0.006,0.014,0.011,0.028,0.016,0.043
					c-0.67-0.41-1.018-1.294-1.125-1.617c0.087-0.082,0.094-0.168,0.082-0.232c-0.027-0.135-0.17-0.219-0.617-0.463
					c-0.393-0.213-0.931-0.505-1.133-0.772l-0.035-0.047l-0.674-0.163l0.146,0.31c0.021,0.042,0.487,1.025,1.436,1.549
					c0.066,0.554,0.254,1.034,0.432,1.386c-0.368-0.156-0.72-0.365-0.913-0.488c0.004-0.049-0.002-0.096-0.018-0.141
					c-0.023-0.061-0.078-0.144-0.212-0.191c-0.251-0.094-0.495,0.117-0.624,0.275c-0.022,0.025-0.059,0.081-0.105,0.152
					c-0.221,0.332-0.738,1.111-1.373,1.225l-0.061,0.011l-0.436,0.534l0.373-0.023c0.059-0.002,1.348-0.093,2.061-1.146
					c1.09,0.978,2.423,1.209,2.51,1.222c1.402-0.014,2.628-0.47,3.025-0.634c0.516,0.818,0.846,0.937,0.912,0.953
					c0.516,0.115,0.984,0.139,1.287,0.139c0.199,0,0.316-0.01,0.35-0.016c0.178-0.053,0.303-0.146,0.369-0.274
					C104.562,83.628,104.509,83.462,104.497,83.427z"/>
			</g>
			<g>
				<path class="st75" d="M104.349,83.496c-0.07-0.148-0.559-0.043-0.559-0.043c-0.449,0.098-1.125-0.162-1.125-0.162
					c-0.203-0.149-0.359-0.565-0.456-0.914c0.103,0.058,0.22,0.09,0.346,0.088c0.125-0.003,0.241-0.039,0.341-0.097
					c0.033,0.026,0.073,0.046,0.117,0.044c0.106,0,0.191-0.107,0.189-0.236c-0.001-0.036-0.008-0.068-0.021-0.097
					c0.073-0.019,0.128-0.085,0.126-0.163l-0.004-0.208c-0.001-0.071-0.047-0.132-0.111-0.154c-0.094-0.272-0.355-0.466-0.659-0.462
					s-0.558,0.207-0.644,0.481c-0.05-0.028-0.105-0.042-0.163-0.047c0.03-0.081,0.036-0.171,0.007-0.259
					c-0.066-0.211-0.291-0.326-0.5-0.26l-2.018,0.656c-0.211,0.063-0.326,0.289-0.26,0.498c0.027,0.084,0.082,0.154,0.148,0.2
					c-0.109,0.031-0.208,0.054-0.299,0.077c-0.888-0.483-1.266-1.723-1.307-1.865c0.074-0.039,0.122-0.085,0.113-0.135
					c-0.032-0.164-1.34-0.666-1.721-1.169l-0.284-0.069c0,0,0.479,1.023,1.44,1.514c0.079,0.825,0.447,1.492,0.641,1.797
					c-0.634-0.182-1.348-0.645-1.469-0.723c0.027-0.051,0.084-0.188-0.092-0.25c-0.141-0.052-0.281,0.031-0.441,0.227
					c-0.133,0.159-0.744,1.285-1.577,1.434l-0.16,0.195c0,0,1.386-0.082,2.024-1.225l0.01-0.016
					c1.091,1.072,2.543,1.314,2.543,1.314c1.661-0.017,3.094-0.676,3.094-0.676c0.552,0.918,0.881,1,0.881,1
					c0.84,0.188,1.555,0.125,1.555,0.125C104.452,83.802,104.349,83.496,104.349,83.496z"/>
			</g>
		</g>
	</g>
</g>
</svg>
