<?xml version="1.0" encoding="utf-8"?>
<!-- Generator: Adobe Illustrator 16.0.0, SVG Export Plug-In . SVG Version: 6.00 Build 0)  -->
<!DOCTYPE svg PUBLIC "-//W3C//DTD SVG 1.1//EN" "http://www.w3.org/Graphics/SVG/1.1/DTD/svg11.dtd">
<svg version="1.1" id="Layer_1" xmlns="http://www.w3.org/2000/svg" xmlns:xlink="http://www.w3.org/1999/xlink" x="0px" y="0px"
	 width="136.833px" height="136.833px" viewBox="0 0 136.833 136.833" style="enable-background:new 0 0 136.833 136.833;"
	 xml:space="preserve">
<style type="text/css">
<![CDATA[
	.st0{fill:#47A4A9;}
	.st1{fill:#49A0AE;}
	.st2{fill:#E0E1D4;}
	.st3{fill:#E1B623;}
	.st4{fill:#1467A8;}
	.st5{fill-rule:evenodd;clip-rule:evenodd;fill:#757575;}
	.st6{fill:#E4C025;}
	.st7{fill:#E4DEDF;}
	.st8{fill:#4A4A4A;}
	.st9{fill:#4ABC96;}
	.st10{fill:#E5DBC5;}
	.st11{fill:#19241E;}
	.st12{fill:#E7E7E7;}
	.st13{fill:#E8E1D3;}
	.st14{fill:#E96238;}
	.st15{fill:#E9C29C;}
	.st16{fill:#E9E9EA;}
	.st17{fill-rule:evenodd;clip-rule:evenodd;fill:#DDDDDC;}
	.st18{fill:#4FAFB9;}
	.st19{fill:#B1D4D7;}
	.st20{fill:#B3E0DF;}
	.st21{fill:#B8E3EB;}
	.st22{fill:#ECE9E9;}
	.st23{fill:#ECECEC;}
	.st24{fill:#ED7B3A;}
	.st25{fill:#EDC92C;}
	.st26{fill:#EEB488;}
	.st27{fill:#525252;}
	.st28{fill-rule:evenodd;clip-rule:evenodd;fill:#E4E4E4;}
	.st29{fill-rule:evenodd;clip-rule:evenodd;fill:#4B4A4B;}
	.st30{fill:#BDD2CE;}
	.st31{fill:#BFC1A9;}
	.st32{fill:#F16D53;}
	.st33{fill:#5A5A5A;}
	.st34{fill-rule:evenodd;clip-rule:evenodd;fill:#B5B2B3;}
	.st35{fill:#5C5C5C;}
	.st36{fill:#F7C192;}
	.st37{fill:#959595;}
	.st38{fill:#C4E2E7;}
	.st39{fill:#C6CBC8;}
	.st40{fill:#989897;}
	.st41{fill:#99999A;}
	.st42{opacity:0.2;}
	.st43{opacity:0.6;}
	.st44{opacity:0.8;}
	.st45{opacity:0.9;}
	.st46{fill:#606060;}
	.st47{fill-rule:evenodd;clip-rule:evenodd;fill:#BFC1A9;}
	.st48{fill:#FFFFFF;}
	.st49{fill:none;}
	.st50{fill-rule:evenodd;clip-rule:evenodd;fill:#5A5A5A;}
	.st51{fill:#676767;}
	.st52{fill:#67C3C8;}
	.st53{fill:#CAD8D4;}
	.st54{fill-rule:evenodd;clip-rule:evenodd;fill:#C0BEBF;}
	.st55{fill:#343433;}
	.st56{fill:#343A36;}
	.st57{fill:#353535;}
	.st58{fill:#357180;}
	.st59{fill:#377EC0;}
	.st60{fill:#6B491E;}
	.st61{fill:#6D6D6D;}
	.st62{fill-rule:evenodd;clip-rule:evenodd;fill:#616161;}
	.st63{fill:#D4DFDC;}
	.st64{fill:#D62127;}
	.st65{fill:#D6B429;}
	.st66{fill:#D7D0BC;}
	.st67{fill:#D7DABA;}
	.st68{fill:#3D929A;}
	.st69{fill:#D8E4E1;}
	.st70{fill:#D96527;}
	.st71{fill-rule:evenodd;clip-rule:evenodd;fill:#CDCCCB;}
	.st72{fill:#717171;}
	.st73{fill:#A19F9F;}
	.st74{fill:#A2D4DE;}
	.st75{fill:#DA1F26;}
	.st76{fill:#0C808B;}
	.st77{fill:#A7CACB;}
	.st78{fill:#DBDBDA;}
	.st79{fill:#DD5231;}
	.st80{fill:#409FA4;}
	.st81{fill:#DFBB26;}
	.st82{fill:#444445;}
	.st83{fill:#444545;}
]]>
</style>
<g>
	<g>
		<circle class="st1" cx="68.417" cy="68.417" r="63.333"/>
	</g>
	<g>
		<g>
			<g>
				<path class="st67" d="M93.828,28.98H43.005c-2.26,0-4.09,1.833-4.09,4.092v70.688c0,2.259,1.83,4.091,4.09,4.091h50.822
					c2.259,0,4.09-1.832,4.09-4.091V33.072C97.917,30.813,96.086,28.98,93.828,28.98z M68.417,35.135
					c-1.029,0-1.863-0.832-1.863-1.863c0-1.029,0.834-1.862,1.863-1.862s1.863,0.833,1.863,1.862
					C70.28,34.303,69.446,35.135,68.417,35.135z"/>
			</g>
		</g>
		<g>
			<path class="st2" d="M93.324,29.762H43.509c-2.216,0-4.01,1.795-4.01,4.01v69.289c0,2.214,1.794,4.01,4.01,4.01h49.814
				c2.215,0,4.01-1.796,4.01-4.01V33.772C97.333,31.557,95.539,29.762,93.324,29.762z M68.417,35.813
				c-1.404,0-2.541-1.137-2.541-2.541c0-1.402,1.137-2.541,2.541-2.541s2.541,1.139,2.541,2.541
				C70.958,34.676,69.821,35.813,68.417,35.813z"/>
		</g>
	</g>
	<g>
		<path class="st31" d="M85.409,45.808h-34.13c-0.691,0-1.252,0.562-1.252,1.253c0,0.692,0.561,1.253,1.252,1.253h34.13
			c0.691,0,1.253-0.561,1.253-1.253C86.662,46.37,86.1,45.808,85.409,45.808z"/>
	</g>
	<g>
		<path class="st31" d="M85.409,51.308h-34.13c-0.691,0-1.252,0.562-1.252,1.253c0,0.692,0.561,1.253,1.252,1.253h34.13
			c0.691,0,1.253-0.561,1.253-1.253C86.662,51.87,86.1,51.308,85.409,51.308z"/>
	</g>
	<g>
		<path class="st31" d="M85.409,56.808h-34.13c-0.691,0-1.252,0.562-1.252,1.253c0,0.692,0.561,1.253,1.252,1.253h34.13
			c0.691,0,1.253-0.561,1.253-1.253C86.662,57.37,86.1,56.808,85.409,56.808z"/>
	</g>
	<g>
		<path class="st31" d="M85.409,62.308h-34.13c-0.691,0-1.252,0.562-1.252,1.253c0,0.692,0.561,1.253,1.252,1.253h34.13
			c0.691,0,1.253-0.561,1.253-1.253C86.662,62.87,86.1,62.308,85.409,62.308z"/>
	</g>
	<g>
		<g>
			<g>
				<path class="st31" d="M89.255,99.545L89.255,99.545c-0.964,0-2.331-0.504-3.397-2.885c-1.005,0.584-2.506,1.29-4.217,1.552
					c0.062,0.167,0.168,0.544,0.028,0.854c-0.084,0.186-0.241,0.316-0.468,0.386c-0.635,0.191-1.582-0.696-2.069-1.233
					c-0.254-0.041-0.482-0.088-0.696-0.146c-1.957-0.533-5.361-2.19-5.713-5.017c-0.021-0.18-0.019-0.239,0.027-0.342l0.027-0.061
					l0.079-0.007c0.061,0,0.12,0.04,0.282,0.157c0.154,0.111,0.412,0.297,0.546,0.297c0.029,0,0.041-0.008,0.051-0.036
					c0.021-0.045-0.067-0.151-0.592-0.398c-0.203-0.096-0.279-0.131-0.302-0.201l-0.012-0.043l0.023-0.048
					c0.535-0.896,2.997-2.197,6.051-2.197c0.547,0,1.093,0.042,1.627,0.124c0.071,0.012,0.142,0.031,0.213,0.048
					c0.044,0.011,0.09,0.023,0.134,0.031c0.353-0.143,1.172-0.444,1.823-0.444c0.322,0,0.565,0.076,0.723,0.225
					c0.169,0.163,0.251,0.349,0.245,0.55c-0.01,0.305-0.225,0.57-0.368,0.715c0.829,0.55,1.649,1.308,2.442,2.258
					c1.069-1.315,2.179-1.982,3.301-1.982c1.053,0,1.706,0.6,1.732,0.625l0.025,0.022l0.007,0.034
					c0.225,1.328-0.562,2.401-2.215,3.037c1.125,0.687,2.663,2.016,1.844,3.83l-0.015,0.03l-0.031,0.018
					C90.374,99.306,89.92,99.545,89.255,99.545z M85.954,96.37L86,96.474c1.027,2.37,2.338,2.868,3.256,2.868
					c0.518,0,0.903-0.16,1.011-0.21c0.765-1.753-0.896-3.035-1.958-3.646l-0.193-0.111l0.21-0.074
					c1.184-0.412,2.537-1.243,2.289-2.849c-0.125-0.105-0.712-0.548-1.569-0.548c-1.084,0-2.167,0.673-3.22,2.003l-0.079,0.099
					l-0.079-0.098c-0.839-1.021-1.709-1.824-2.587-2.382l-0.116-0.075l0.104-0.09c0.065-0.054,0.388-0.343,0.397-0.658
					c0.005-0.144-0.055-0.272-0.183-0.396c-0.116-0.111-0.313-0.167-0.581-0.167c-0.651,0-1.523,0.336-1.774,0.44l-0.028,0.012
					l-0.031-0.007c-0.057-0.01-0.114-0.024-0.172-0.04c-0.066-0.016-0.133-0.033-0.196-0.044c-0.523-0.081-1.059-0.12-1.595-0.12
					c-2.896,0-5.23,1.172-5.827,2.025c0.042,0.021,0.102,0.05,0.153,0.073c0.361,0.172,0.811,0.382,0.693,0.664
					c-0.043,0.103-0.128,0.159-0.239,0.159c-0.199,0-0.458-0.186-0.663-0.335c-0.036-0.025-0.075-0.053-0.107-0.074
					c0,0.03,0.002,0.072,0.011,0.138c0.337,2.718,3.657,4.324,5.564,4.844c0.216,0.057,0.448,0.105,0.71,0.147l0.037,0.005
					l0.023,0.027c0.33,0.366,1.162,1.22,1.743,1.22c0.05,0,0.097-0.006,0.14-0.02c0.17-0.052,0.281-0.141,0.341-0.275
					c0.114-0.251,0.009-0.586-0.039-0.714l-0.136-0.011l-0.005-0.203c1.863-0.222,3.504-1.006,4.551-1.626L85.954,96.37z"/>
			</g>
		</g>
		<g>
			<g>
				<g>
					<path class="st31" d="M50.248,85.638c-1.081-0.921-2.326-2.479-1.29-4.238c0,0,3.222-1.32,4.761,3.635
						c1.351-0.773,2.625-1.282,3.82-1.526c-0.053-0.094-0.567-1.049,0.263-1.405c0.826-0.342,2.383,1.135,2.562,1.304
						c0.144,0.023,0.296,0.033,0.434,0.062c4.288,0.935,7.113,3.996,7.348,5.355c0.012,0.097-1.257,0.003-1.243,0.368
						c0.013,0.467,1.205-0.081,1.209,0.029c0.005,0.104-0.007,0.149-0.096,0.323c-1.526,2.87-5.874,3.244-8.143,3.015
						c-0.287-0.028-0.567-0.078-0.843-0.139c-0.523,0.27-2.042,0.991-2.659,0.513c-0.744-0.585,0.117-1.434,0.117-1.434l0.226,0.066
						c-1.93-1.02-3.399-2.574-4.277-3.693c-3.635,3.732-5.917,1.077-5.917,1.077C46.379,86.561,48.886,85.853,50.248,85.638z"/>
				</g>
			</g>
			<g>
				<g>
					<g>
						<path class="st47" d="M48.042,89.174c-0.014,0.008,0.091,0.06,0.102,0.059c0.022,0,0.047-0.049,0.078-0.049
							c0.042-0.002,0.065,0.025,0.153,0.024c0.069-0.005,0.141-0.056,0.225-0.079c0.04-0.013,0.094,0.003,0.15-0.017l0.064-0.018
							c0.006-0.004,0.014-0.033,0.019-0.035c0.03-0.009,0.075,0.007,0.106-0.008c0.039-0.016,0.063-0.048,0.099-0.062
							c0.009-0.002,0.046-0.021,0.039-0.021c0.016-0.005,0.024,0.016,0.045,0.007c0.052-0.02,0.132-0.067,0.215-0.114l0.253-0.131
							c0.025-0.014,0.044-0.047,0.05-0.052c0.032-0.019,0.077-0.01,0.106-0.028c0.079-0.04,0.189-0.169,0.311-0.183
							c0.03-0.005,0.065,0.045,0.101,0.038l0.041-0.024c0.025,0.021-0.062,0.251-0.09,0.289c-0.029,0.045-0.093,0.103-0.139,0.158
							c-0.013,0.015-0.019,0.017-0.039,0.034l-0.038,0.033c-0.019,0.023-0.002,0.059-0.02,0.08
							c-0.034,0.035-0.094,0.053-0.127,0.085l-0.072,0.093c-0.017,0.016-0.05,0.021-0.067,0.041c-0.006,0.006,0.017,0.022,0.01,0.03
							c-0.007,0.01-0.04,0.009-0.048,0.015c-0.062,0.054-0.125,0.106-0.168,0.163c0.111,0.011,0.189-0.057,0.265-0.109
							c0.122-0.079,0.228-0.149,0.368-0.262l0.141-0.121l0.193-0.175c0.012-0.011,0.02-0.034,0.036-0.04
							c0.04-0.015,0.023-0.009,0.08-0.064c0.061-0.058,0.139-0.061,0.16,0.016c0.028,0.092-0.23,0.263-0.188,0.302
							c0.075,0.063,0.259-0.192,0.292-0.233c0.073-0.071,0.146-0.104,0.169-0.13c0.015-0.016,0.014-0.038,0.023-0.057
							c0.053-0.094,0.205-0.234,0.29-0.362c0.125-0.156,0.527-0.595,0.783-0.872c0.042-0.005,0.013,0.095,0.049,0.111
							c0.08,0.046-0.112,0.278-0.149,0.438c0.013,0.014,0.073-0.04,0.109-0.078c0.051-0.056,0.046-0.084,0.071-0.115l0.207-0.25
							l0.081-0.124l0.082-0.097c0.008-0.004,0.016,0.001,0.025,0.011c0.051,0.043,0.104,0.067,0.153,0.112l0.203,0.228l0.223,0.194
							c0.081,0.068,0.194,0.147,0.239,0.209c0.097,0.131-0.024,0.03,0.024,0.104c0.096,0.112,0.02-0.047,0.148,0.076
							c0.029,0.025,0.103,0.128,0.148,0.195c0.039,0.058,0.072,0.117,0.082,0.143c0.007,0.017,0.02,0.063,0.02,0.093
							c-0.001,0.07-0.099,0.08-0.096,0.162c0.003,0.032,0.029,0.077,0.059,0.134c0.026,0.049,0.056,0.146,0.147,0.202
							c0.05,0.03,0.025-0.009,0.071,0.047c0.021,0.026,0.176,0.12,0.23,0.159l0.128,0.104c0.013,0.008,0.054,0.01,0.062,0.014
							c0.021,0.015,0.038,0.043,0.06,0.056l0.391,0.26c0.012,0.008,0.053,0.007,0.062,0.012c0.042,0.025,0.085,0.078,0.133,0.094
							c0.045,0.015,0.075,0.056,0.158,0.104c0.024,0.013,0.069,0.016,0.085,0.023c0.117,0.063,0.22,0.16,0.378,0.255
							c0.031,0.018,0.073,0.018,0.107,0.034c0.099,0.047,0.193,0.106,0.26,0.169c0.093,0.076,0.177,0.17,0.146,0.221
							c-0.01,0.021-0.063,0.042-0.142,0.046c-0.062,0.001-0.221-0.059-0.129,0.052c0.074,0.089,0.243,0.208,0.427,0.299l0.121,0.098
							c0.038,0.032,0.069,0.037,0.124,0.082c-0.007-0.006-0.007,0.021,0.009,0.026c0.032,0.011,0.084,0.054,0.144,0.106l0.088,0.086
							c0.002,0.029-0.036,0.057-0.047,0.085l-0.04,0.071c-0.003,0.005,0.009,0-0.001,0.021c-0.007,0.012-0.027,0.033-0.025,0.025
							c-0.022,0.063-0.012,0.086-0.029,0.148c-0.017,0.056-0.054,0.159-0.069,0.243c-0.008,0.052-0.018,0.1-0.019,0.155
							c-0.098,0.203-0.015,0.181-0.041,0.258c0.01,0.053-0.066,0.034,0.036,0.131c0.017,0.013,0.097,0.059,0.064,0.038
							c-0.003-0.005,0.04,0.106,0.061,0.12c0.042,0.107-0.175,0.264,0.105,0.245c0.034-0.004,0.053-0.03,0.086-0.036
							c0.034-0.005,0.104,0,0.133-0.006c0.044-0.013,0.069-0.041,0.08-0.045c0.067-0.023,0.171-0.021,0.236-0.045
							c0.012-0.004,0.014-0.031,0.023-0.035c0.039-0.015,0.095-0.011,0.155-0.032l0.102-0.049c0.021-0.01,0.084-0.015,0.078-0.012
							c0.091-0.039,0.096-0.086,0.173-0.084c0.023,0.01,0.036,0.03,0.04,0.06c0.143,0.012-0.075-0.017,0.052-0.012
							c0.035,0.001,0.05,0.016,0.087,0.013c0.025,0.02-0.024,0.041-0.038,0.078c-0.01,0.022,0.005,0.062-0.01,0.084
							c-0.031,0.052-0.132,0.087-0.12,0.107c0.07,0.125,0.337-0.067,0.406-0.109l0.427-0.228l0.259-0.175l0.071-0.045l0.291-0.176
							l0.117-0.071c0.014-0.002,0.026,0,0.04-0.001c-0.007,0,0.012-0.026,0.031-0.014c0.074,0.048,0.069,0.007,0.142-0.004
							c0.076-0.01,0.143,0.012,0.225,0.002c0.014-0.002,0.049-0.029,0.057-0.029l0.192-0.006l0.191-0.009
							c0.189-0.017,0.337-0.048,0.572-0.058c0.01,0,0.065,0.021,0.109,0.016c0.133-0.015,0.371,0,0.464,0.019
							c0.102,0.021,0.113,0.027,0.168,0.057c0.063,0.034,0.083,0.163,0.011,0.211c-0.015,0.01-0.073,0.028-0.082,0.038
							c-0.017,0.021,0.015,0.058,0.006,0.081c-0.006,0.012-0.065,0.04-0.055,0.052c0.059,0.067,0.273,0.02,0.395-0.009
							c0.128-0.031,0.266-0.03,0.357-0.097c0.026-0.018,0.232-0.053,0.328-0.084l0.107-0.048c0.022-0.007,0.062-0.001,0.082-0.01
							c0.01-0.004,0.018-0.034,0.022-0.036c0.041-0.013,0.114-0.011,0.166-0.025c0.046-0.012,0.066-0.039,0.105-0.047
							c0.051-0.014,0.078,0.001,0.138-0.009c0.087-0.013,0.191-0.063,0.295-0.087l0.301-0.047c0.172-0.031,0.394-0.119,0.514-0.11
							c0.04,0.003,0.016,0.04,0.043,0.056c0.029,0.016,0.102,0.012,0.104,0.055c0.001,0.028-0.034,0.097-0.023,0.127
							c0.001,0.004,0.039,0.005,0.036,0.023c-0.001,0.013-0.062,0.107-0.08,0.141c-0.014,0.029-0.019,0.046-0.038,0.076
							c-0.036,0.059-0.055,0.084,0.063,0.12c0.028,0.01,0.101,0.031,0.13,0.031c0.054-0.001,0.188-0.049,0.26-0.06l0.152-0.015
							c0.145-0.034,0.374-0.11,0.539-0.175l0.16-0.083c0.482-0.184,1.052-0.491,1.366-0.848c0.047-0.056,0.12-0.086,0.21-0.18
							c0.096-0.099,0.174-0.207,0.258-0.31c0.066-0.076,0.147-0.141,0.221-0.245c0.015-0.021,0.011-0.041,0.035-0.063
							c0.009-0.01,0.049-0.033,0.037-0.018c0.064-0.09,0.059-0.126,0.1-0.192c0.118-0.164,0.398-0.608,0.4-0.649
							c-0.005,0.007,0.046-0.028,0.046-0.028c-0.007,0.007,0.041-0.032,0.027-0.03c0.028-0.004,0.014,0.074,0.029,0.065
							c0.04-0.053,0.213-0.231,0.104-0.403c-0.099-0.122-0.256-0.195-0.365-0.256l-0.071-0.044
							c-0.023,0.003-0.021-0.131-0.228,0.143c-0.032,0.004-0.068-0.008-0.067-0.007l-0.003-0.001l-0.001-0.001h-0.002v-0.002h-0.001
							l0.168,0.086l0.021,0.024c0.016,0.012,0.029,0.046,0.049,0.019l0.348-0.264l0.109-0.077c0.027-0.01,0.008-0.044,0.061-0.059
							l-0.015-0.088l-0.061-0.279c-0.016-0.096,0.048-0.182,0.026-0.263c-0.046-0.185-0.21-0.382-0.348-0.587
							c-0.036-0.05-0.059-0.113-0.094-0.166l-0.341-0.447c-0.081-0.115-0.123-0.252-0.214-0.366
							c-0.142-0.184-0.379-0.398-0.605-0.604c-0.215-0.201-0.44-0.401-0.668-0.571l-0.344-0.221
							c-0.259-0.18-0.512-0.392-0.742-0.514c-0.047-0.025-0.112-0.032-0.164-0.065c-0.114-0.071-0.192-0.168-0.381-0.267
							c-0.257-0.137-0.633-0.299-0.952-0.43l-0.182-0.088l-0.277-0.087c-0.04-0.018-0.081-0.059-0.126-0.074l-0.392-0.106
							L62.353,83.6l-0.526-0.147c-0.02-0.007-0.068-0.016-0.084-0.025c-0.002-0.001-0.02-0.039-0.017-0.039
							c-0.023-0.007-0.09,0.001-0.147-0.012l-0.443-0.124c-0.069-0.021-0.252-0.045-0.319-0.076
							c-0.032-0.016-0.062-0.026-0.085-0.046c-0.058-0.093-0.069-0.167-0.003-0.233c-0.008,0.009,0.041-0.029,0.04-0.029
							c0.012-0.003,0.029,0.019,0.042,0.015c0.032-0.013,0.053-0.043,0.07-0.047h0.005c0.012,0,0.039,0.01,0.06,0.002
							c0.008-0.003,0.018-0.026,0.023-0.027c0.006-0.004,0.016,0.007,0.022,0.005c0.022-0.01,0.018-0.041,0.059-0.055
							c0.029-0.007,0.09,0.004,0.123-0.004c0.122-0.024,0.325-0.058,0.123-0.118c-0.026-0.008-0.068,0.001-0.12-0.015
							c-0.104-0.032-0.114-0.063-0.114-0.062c-0.01-0.001-0.027,0.021-0.045,0.023l-0.004,0.001
							c-0.015-0.004-0.019-0.021-0.043-0.017c-0.058-0.025-0.057-0.023-0.139-0.094c-0.072-0.063-0.139-0.078-0.238-0.144
							c-0.11-0.071-0.215-0.154-0.331-0.221l-0.388-0.2c-0.15-0.076-0.315-0.173-0.486-0.24c-0.047-0.021-0.108-0.022-0.163-0.045
							c-0.077-0.026-0.131-0.069-0.216-0.097c-0.099-0.031-0.254-0.069-0.396-0.082c-0.101-0.017-0.262-0.037-0.44-0.042
							c-0.299-0.02-0.76,0.147-0.991,0.357c-0.054,0.044-0.077,0.087-0.118,0.122c-0.05,0.045-0.128,0.089-0.178,0.136l-0.259,0.266
							c-0.066,0.056-0.292,0.189-0.378,0.34c-0.049,0.081-0.219,0.234-0.352,0.397l-0.066,0.099c-0.04,0.05-0.11,0.099-0.147,0.146
							c-0.029,0.037-0.023,0.077-0.051,0.112c-0.036,0.05-0.091,0.081-0.125,0.128c-0.113,0.161-0.18,0.265-0.31,0.512
							c0.009-0.075-0.124,0.316,0.002,0.487l1.654,2.234l-0.757-2.615l-0.086-0.294c-0.054-0.188-0.181-0.405-0.226-0.563
							c-0.025-0.096-0.062-0.247-0.051-0.282c0.011-0.045,0.097-0.062,0.101-0.09c0.006-0.042-0.016-0.123-0.032-0.2
							c-0.038-0.149-0.059-0.209-0.219-0.442c-0.007-0.01-0.047-0.036-0.073-0.071c-0.021-0.029-0.052-0.097-0.046-0.09
							c-0.037-0.042-0.074-0.05-0.106-0.087c-0.044-0.054-0.081-0.112-0.126-0.154c-0.04-0.038-0.092-0.064-0.137-0.104
							l-0.089-0.099c-0.041-0.038-0.101-0.062-0.143-0.093c-0.109-0.075-0.182-0.171-0.295-0.219
							c-0.019-0.009-0.064-0.012-0.071-0.015c-0.045-0.025-0.087-0.075-0.131-0.104c-0.037-0.023-0.086-0.032-0.126-0.048
							c-0.026-0.011-0.057-0.046-0.082-0.055c-0.011-0.005-0.038,0.013-0.046,0.009c-0.072-0.034-0.155-0.093-0.229-0.12
							c-0.175-0.078-0.435-0.108-0.569-0.222c-0.025-0.074,0.104,0.033,0.105-0.008c-0.057-0.046-0.088-0.037-0.143-0.076
							c-0.06-0.041-0.039-0.078-0.101-0.104c-0.059-0.027-0.163-0.029-0.225-0.04c-0.104-0.021-0.218-0.072-0.341-0.089
							l-0.255-0.021c-0.274-0.034-0.673-0.06-0.965-0.084c-0.052-0.004-0.068-0.024-0.123-0.031
							c-0.089-0.015-0.177,0.001-0.249-0.01c-0.114-0.019-0.184-0.068-0.286-0.08c-0.183-0.025-0.422,0.021-0.624,0.03
							c-0.049,0.002-0.111-0.01-0.158-0.005c-0.126,0.015-0.239,0.055-0.367,0.077c-0.163,0.034-0.275,0.022-0.581,0.109
							c-0.239,0.071-0.501,0.164-0.69,0.255c-0.091,0.14-0.222,0.246-0.335,0.427c-0.067,0.1-0.149,0.282-0.221,0.479
							c-0.059,0.136-0.091,0.305-0.129,0.46c0-0.003,0.017,0.013,0.008,0.042c-0.093,0.316-0.083,0.837-0.021,1.136
							c0.011,0.068-0.006,0.085,0.009,0.158c0.016,0.098,0.047,0.187,0.071,0.299c0.019,0.071,0.052,0.124,0.068,0.178
							c0.06,0.158,0.091,0.277,0.179,0.443c0.031,0.056,0.031,0.102,0.065,0.168l0.171,0.27c-0.004-0.008,0.031,0.001,0.031,0.022
							c0,0.11,0.205,0.203,0.281,0.304c0.056,0.077,0.082,0.161,0.143,0.269c0.153,0.259,0.462,0.592,0.769,0.879
							c0.053,0.047,0.19,0.129,0.17,0.191c-0.218-0.209-0.47-0.403-0.688-0.633c-0.033-0.031-0.063-0.098-0.098-0.133
							c-0.05-0.054-0.107-0.081-0.156-0.129c-0.038-0.037-0.047-0.088-0.094-0.143c-0.02-0.026-0.058-0.047-0.096-0.097
							c-0.043-0.054-0.068-0.122-0.108-0.176c-0.155-0.213-0.345-0.441-0.46-0.68c-0.017-0.032-0.055-0.099-0.064-0.133
							c-0.008-0.03,0.018-0.03,0-0.082c-0.015-0.042-0.046-0.037-0.058-0.057c-0.022-0.045-0.008-0.069-0.013-0.077
							c-0.148-0.318-0.244-0.767-0.272-1.269c-0.014-0.139-0.031-0.277-0.018-0.412c0.041-0.428,0.16-0.667,0.29-1.033
							c0.026-0.082,0.101-0.311,0.144-0.377c0.014-0.021,0.041-0.015,0.052-0.029c0.073-0.102,0.096-0.18,0.177-0.265
							c0.067-0.043,0.081-0.133,0.254-0.163c0.136-0.048,0.275-0.117,0.438-0.167c0.12-0.037,0.243-0.048,0.359-0.078
							c0.243-0.051,0.399-0.113,0.606-0.148c0.067-0.011,0.146,0,0.225-0.01c0.115-0.013,0.239-0.049,0.376-0.059l0.193,0.009
							c0.174-0.001,0.209-0.036,0.288,0.007l0.033,0.03c0.043,0.008,0.12-0.017,0.16-0.006c0.015,0.004,0.017,0.041,0.032,0.046
							l0.192,0.045c0.05,0.009,0.132-0.006,0.22,0c0.138,0.017,0.192,0.041,0.38,0.055c0.024,0.001,0.037-0.018,0.065-0.01
							l0.348,0.061c0.063,0.007,0.133-0.01,0.197,0c0.084,0.013,0.204,0.045,0.317,0.071c0.326,0.073,0.559,0.061,0.732,0.218
							c0.029,0.027,0.039,0.013,0.055,0.043c0.015,0.028-0.006,0.017,0.018,0.042c0.05,0.056,0.105,0.078,0.201,0.116
							c0.02,0.009,0.046,0.001,0.066,0.019c0.009,0.005-0.01,0.018,0.021,0.03c0.063,0.023,0.136,0.023,0.201,0.056
							c0.125,0.067,0.242,0.158,0.344,0.214c0.051,0.027,0.121,0.04,0.164,0.063c0.083,0.051,0.166,0.127,0.245,0.188l0.256,0.178
							l0.127,0.116c0.036,0.03,0.091,0.057,0.117,0.082c0.097,0.088,0.153,0.205,0.232,0.295c-0.025,0.05-0.081-0.056-0.106-0.006
							c0.098,0.116,0.103-0.016,0.153,0.013c0.126,0.173,0.238,0.365,0.32,0.519c0.045,0.106,0.039,0.146,0.051,0.273
							c0.011,0.117,0.011,0.129-0.026,0.23c-0.01,0.024-0.048,0.079-0.048,0.091c0.003,0.052,0.06,0.148,0.097,0.265l0.03,0.155
							c0.045,0.148,0.12,0.316,0.192,0.489l-1.172,0.497c-0.054-0.104-0.09-0.254-0.074-0.395c0.009-0.07,0.025-0.135,0.047-0.19
							l0.014-0.033l0.046-0.096l0.074-0.125c0.084-0.135,0.169-0.224,0.231-0.313c0.043-0.061,0.071-0.14,0.107-0.184
							c0.045-0.057,0.11-0.086,0.16-0.14c0.062-0.065,0.142-0.151,0.186-0.233c0.018-0.029,0.012-0.059,0.037-0.087
							c0.038-0.045,0.117-0.074,0.146-0.107c0.069-0.088,0.113-0.198,0.185-0.283c0.193-0.223,0.578-0.448,0.794-0.678
							c0.016-0.055,0.595-0.349,0.738-0.387c0.088-0.048,0.009-0.041,0.229-0.049c0.215-0.012,0.368-0.002,0.567,0.001
							c0.162,0.016,0.097,0.038,0.21,0.074l0.288,0.07c0.055,0.012,0.1,0.01,0.142,0.025c0.086,0.033,0.197,0.1,0.274,0.134
							c0.087,0.037,0.179,0.047,0.255,0.085c0.05,0.023,0.072,0.066,0.157,0.113c0.045,0.024,0.061,0.009,0.125,0.04l0.159,0.103
							l0.145,0.062c0.156,0.06,0.368,0.213,0.612,0.374c0.051,0.034,0.081,0.033,0.143,0.074l0.022,0.006l0.016-0.003
							c-0.033-0.013,0.104,0,0.234,0.042l0.119,0.033c0.031,0.013,0.03,0.036,0.049,0.046c0.078,0.041,0.085,0.029,0.135,0.087
							l0.05,0.049c0.023,0.069-0.05,0.163-0.084,0.18c-0.013,0.006-0.096-0.034-0.116-0.032c-0.031,0.003-0.062,0.045-0.107,0.055
							c-0.021,0.005-0.067-0.011-0.089-0.007l-0.065,0.017c-0.09,0.014-0.219,0.01-0.26,0.035l-0.148,0.082
							c0.057,0.052,0.101,0.031,0.237,0.074c0.051,0.016,0.107,0.062,0.16,0.074c0.069,0.022,0.132,0.009,0.204,0.023
							c0.118,0.021,0.236,0.089,0.357,0.123l0.362,0.103c0.069,0.019,0.145,0.016,0.203,0.036c0.062,0.021,0.1,0.061,0.157,0.076
							l0.142,0.036c0.036,0.007,0.08,0,0.121,0.014c0.072,0.023,0.137,0.075,0.21,0.103c0.06,0.023,0.102,0.016,0.172,0.039
							c0.162,0.053,0.321,0.163,0.458,0.192c0.035,0.007,0.056-0.004,0.093,0.008c0.09,0.029,0.168,0.089,0.262,0.131
							c0.064,0.03,0.108,0.026,0.173,0.052c0.043,0.019,0.036,0.038,0.068,0.056c0.026,0.015,0.123,0.032,0.171,0.057
							c0.039,0.021,0.037,0.044,0.068,0.057c0.054,0.022,0.101,0.021,0.143,0.044c0.049,0.025,0.066,0.057,0.12,0.09l0.135,0.059
							l0.241,0.169c0.053,0.033,0.107,0.048,0.155,0.081l0.141,0.112c0.168,0.111,0.377,0.212,0.513,0.343l0.085,0.082
							c0.046,0.031,0.089,0.036,0.137,0.063c0.137,0.081,0.231,0.176,0.347,0.277l0.349,0.278c0.194,0.173,0.382,0.369,0.57,0.567
							c0.152,0.161,0.284,0.262,0.387,0.426c0.049,0.078,0.044,0.165,0.111,0.264l0.166,0.196c0.093,0.11,0.194,0.256,0.242,0.32
							c0.06,0.101,0.137,0.228,0.204,0.366c0.127,0.224,0.241,0.521,0.236,0.604c-0.005,0.062-0.131,0.041-0.138,0.083
							c-0.024,0.02,0.068,0.188-0.049,0.287c-0.075,0.067-0.146,0.117-0.154,0.138c-0.02,0.036-0.063,0.077-0.176,0.17
							c-0.041,0.034-0.063,0.087-0.108,0.121c-0.021,0.035-0.036-0.026-0.057-0.046l-0.015-0.021l-0.006-0.011l-0.003-0.003
							l-0.001-0.001l-0.294-0.151l0,0l0.002,0.002l0.007,0.002l0.034,0.006l0.028,0.001l0.014-0.001h0.002l0.002-0.001l0,0
							l0.212-0.168l0.01-0.007l0.034-0.023c0.185-0.039,0.172,0.092,0.253,0.11c0.076,0.054,0.155,0.09,0.213,0.144
							c0.032,0.034,0.053,0.075,0.077,0.126c0.044,0.095,0.028,0.165,0.021,0.212c-0.01,0.035-0.066,0.211-0.089,0.249
							c0.014,0.004-0.166,0.157-0.178,0.162c-0.077,0.028-0.034-0.087-0.103-0.02c-0.046,0.039-0.118,0.173-0.221,0.309
							c-0.043,0.063-0.025,0.093-0.071,0.176c-0.021,0.041-0.103,0.113-0.176,0.204l-0.104,0.164
							c-0.079,0.096-0.175,0.161-0.265,0.275c-0.01,0.011-0.02,0.059-0.025,0.064c-0.035,0.036-0.086,0.065-0.121,0.099
							c-0.044,0.044-0.064,0.092-0.103,0.125c-0.165,0.152-0.325,0.262-0.485,0.394c-0.073,0.056-0.145,0.12-0.198,0.152
							c-0.063,0.04-0.118,0.045-0.17,0.074c-0.101,0.06-0.116,0.095-0.177,0.129c-0.054,0.03-0.117,0.037-0.173,0.063l-0.16,0.094
							l-0.175,0.054c-0.051,0.022-0.053,0.043-0.107,0.063c-0.073,0.027-0.15,0.027-0.238,0.056
							c-0.044,0.013-0.09,0.051-0.136,0.066l-0.323,0.072c-0.052,0.015-0.098,0.05-0.139,0.06c-0.057,0.012-0.115,0.008-0.181,0.018
							c-0.092,0.011-0.195,0.026-0.176,0.029c-0.105-0.012-0.182-0.096-0.193-0.168c-0.009-0.04,0.032-0.079,0.056-0.132
							c0.012-0.031,0-0.046,0.011-0.07c0.026-0.061,0.029-0.067,0.015-0.173c-0.01-0.068,0.019-0.077-0.08-0.081
							c-0.081-0.002-0.039,0.029-0.158,0.057c-0.069,0.018-0.141,0.014-0.222,0.035c-0.063,0.018-0.134,0.05-0.188,0.058
							c-0.058,0.008-0.1-0.015-0.144-0.005c-0.07,0.018-0.21,0.064-0.293,0.102c-0.027,0.012-0.039,0.021-0.08,0.031
							c-0.076,0.018-0.124,0-0.197,0.013c-0.038,0.006-0.109,0.036-0.162,0.056c-0.049,0.016-0.136,0.038-0.163,0.054
							c-0.031,0.016-0.051,0.062-0.104,0.077c-0.168,0.05-0.283,0.018-0.446,0.076c-0.033,0.012-0.063,0.007-0.084,0.022
							c-0.007,0.005-0.021,0.033-0.026,0.035c-0.041,0.014-0.053-0.017-0.087-0.011c-0.02,0.005-0.019,0.031-0.055,0.036
							c-0.281,0.04-0.587,0.009-0.489-0.188l0.026-0.049c0,0,0.021-0.046,0.026-0.051c0.016-0.014,0.124-0.033,0.137-0.055
							c0.001-0.004-0.031-0.044-0.03-0.064c0-0.012,0.049-0.044,0.024-0.066c-0.024-0.021-0.045-0.001-0.082-0.013
							c-0.009-0.003-0.025-0.03-0.03-0.031l-0.356-0.007l-0.219,0.019c-0.104,0-0.225-0.007-0.385,0.011l-0.139,0.011
							c-0.034,0.006-0.076,0.025-0.11,0.028c-0.221,0.021-0.463,0-0.592,0.008c-0.037,0.004-0.071,0.009-0.101,0.022
							c-0.051,0.047-0.088,0.094-0.127,0.118c-0.007,0.005-0.087,0.03-0.165,0.072c-0.023,0.011-0.055,0.055-0.065,0.06
							c-0.038,0.018-0.06,0-0.084,0.015c-0.034,0.021-0.012,0.033-0.062,0.074c-0.036,0.029-0.087,0.033-0.125,0.061l-0.091,0.082
							c-0.018,0.017-0.047,0.063-0.065,0.074c-0.028,0.016-0.078,0.017-0.108,0.031c-0.014,0.009-0.034,0.042-0.045,0.047L58.315,93
							c-0.104,0.059-0.185,0.125-0.28,0.172c-0.14,0.063-0.265,0.115-0.336,0.1c-0.041-0.009-0.012-0.04-0.04-0.06
							c-0.016-0.012-0.052-0.002-0.063-0.024c-0.041-0.088,0.064-0.211,0.07-0.274c-0.123,0.015-0.199,0.094-0.289,0.122
							c-0.073,0.025-0.153,0.03-0.219,0.048l-0.258,0.095c-0.03,0.009-0.062,0.005-0.089,0.01l-0.064,0.022
							c-0.024,0.005-0.067-0.005-0.094,0c-0.064,0.012-0.029,0.021-0.203-0.012c-0.157-0.051-0.157-0.06-0.172-0.13
							c-0.025-0.081,0.172-0.188,0.125-0.282c-0.043-0.08-0.115-0.078-0.169-0.166c-0.001-0.003,0.01-0.034-0.003-0.05
							c-0.019-0.016-0.035-0.031-0.021-0.086c0.021-0.062,0.052-0.011,0.108-0.067c-0.004-0.064,0.003-0.109,0.063-0.212
							l0.049-0.198c0.016-0.042,0.003-0.073,0.018-0.112c0.023-0.073,0.077-0.159,0.127-0.236l0.046-0.069
							c0.018-0.026,0.047-0.053,0.059-0.078l-0.106-0.073l-0.238-0.162c-0.004-0.003-0.041-0.006-0.058-0.025
							c-0.006-0.007,0.019-0.007-0.009-0.023c-0.038-0.025-0.077-0.027-0.118-0.046l-0.012-0.008
							c-0.096-0.033-0.445-0.241-0.499-0.302l-0.027-0.059c-0.061-0.089-0.025-0.211,0.111-0.258
							c0.063-0.023,0.077-0.039-0.042-0.129c-0.017-0.013-0.046-0.007-0.075-0.032c-0.022-0.02-0.086-0.069-0.153-0.11
							c-0.086-0.049-0.152-0.061-0.179-0.078c-0.137-0.102-0.033-0.102-0.169-0.134c-0.108-0.024-0.305-0.185-0.471-0.289
							l-0.289-0.171l-0.133-0.102c-0.033-0.021-0.028,0.028-0.053,0.016c0.006,0.004-0.08-0.072-0.131-0.104
							c-0.07-0.046-0.163-0.1-0.271-0.2c-0.046-0.042-0.056-0.079-0.085-0.11c-0.096-0.104-0.189-0.166-0.209-0.299
							c0-0.005,0.007-0.037,0.005-0.042c-0.035-0.065-0.01-0.032-0.009-0.104l-0.012-0.062c0.012-0.078,0.099-0.075,0.046-0.17
							c-0.064-0.113-0.442-0.434-0.564-0.543c-0.134-0.128-0.164-0.192-0.247-0.229c-0.056-0.023-0.064-0.064-0.163-0.151
							c-0.017-0.007-0.036-0.02-0.069-0.02H52.45c-0.037,0.049-0.057,0.097-0.074,0.12c-0.035,0.046-0.085,0.071-0.121,0.117
							l-0.069,0.115l-0.091,0.112l-0.129,0.188c-0.037,0.04-0.045,0.017-0.076,0.046c-0.055,0.053-0.112,0.157-0.179,0.119
							c-0.034-0.017-0.072-0.003-0.082-0.015c-0.038-0.049,0.002-0.113,0.089-0.302c0.002-0.007,0.204-0.327,0.162-0.334
							c-0.102,0-0.219,0.251-0.365,0.432c-0.159,0.177-0.325,0.313-0.339,0.406c-0.013,0.063-0.091,0.071-0.145,0.166l-0.023,0.058
							c-0.027,0.03-0.087,0.049-0.111,0.076c-0.023,0.028,0.012,0.041-0.018,0.07l-0.082,0.072
							c-0.058,0.052-0.152,0.087-0.184,0.112c-0.032,0.028,0.02,0.033,0,0.056c-0.018,0.024-0.118,0.077-0.156,0.109
							c-0.014,0.012-0.027,0.078-0.131,0.101c-0.095-0.037-0.08-0.1-0.025-0.169c0.013-0.016,0.009-0.038,0.033-0.053
							c0.008-0.004,0.046,0.002,0.055-0.009c0.009-0.015-0.007-0.041,0-0.057c0.014-0.032,0.083-0.103,0.064-0.15
							c-0.064,0.034-0.083,0.065-0.119,0.106c-0.008,0.009-0.041,0.015-0.046,0.023c-0.015,0.021-0.002,0.043-0.024,0.066
							c-0.023,0.024-0.083,0.044-0.109,0.072c-0.06,0.066-0.087,0.148-0.194,0.208c-0.045,0.026-0.108,0.021-0.129,0.034
							c-0.047,0.028-0.048,0.073-0.1,0.119c-0.027,0.038-0.416,0.244-0.558,0.221c-0.002,0-0.089-0.067-0.094-0.089
							c-0.008-0.036,0.032-0.033,0.046-0.055c0.016-0.025,0.008,0-0.003-0.016c-0.036-0.057,0.064-0.041,0.116-0.085
							c0.019-0.017,0.015-0.067,0.035-0.091l0.045-0.025c0.063-0.064,0.212-0.149,0.29-0.232c0.036-0.037,0.057-0.082,0.088-0.114
							c0.017-0.019,0.086-0.056,0.093-0.09c0.002-0.006-0.018-0.025-0.012-0.03c0.04-0.045,0.121-0.075,0.153-0.117
							c0.04-0.057,0.014-0.082,0.042-0.131c-0.043-0.048-0.072,0.036-0.118,0.021c-0.004-0.021,0.061-0.033,0.049-0.058
							c-0.036-0.014-0.07,0.037-0.049,0.058c0.052,0.05-0.105,0.07-0.132,0.092c-0.021,0.015-0.006,0.032-0.031,0.048
							c-0.03,0.021-0.075,0.019-0.105,0.037c-0.054,0.032-0.118,0.093-0.194,0.129c-0.052,0.03-0.291,0.08-0.337,0.122
							c-0.011,0.01,0.002,0.044-0.016,0.05c-0.021,0.01-0.077,0.004-0.132,0.019c-0.054,0.008-0.104,0.061-0.153,0.072
							c-0.029,0.01-0.087-0.024-0.112-0.017c-0.027,0.006-0.043,0.021-0.069,0.031l-0.067,0.011
							c-0.011,0.004-0.018,0.029-0.025,0.03c-0.014,0.002-0.035-0.008-0.046-0.004c-0.06,0.019-0.055,0.019-0.168,0.026
							c-0.081,0.022-0.596,0.044-0.635-0.105c-0.024-0.086,0.002-0.096,0.123-0.108c0.025-0.001,0.024,0.013,0.047,0.003
							c0.024-0.009,0.07,0.015,0.101-0.016c-0.087-0.057-0.198-0.038-0.294-0.052c-0.046-0.005-0.098-0.008-0.146-0.021
							c-0.116-0.033-0.168-0.049-0.258-0.065c-0.031-0.008-0.078-0.008-0.107-0.021c-0.029-0.011-0.044-0.045-0.07-0.06
							c-0.013-0.006-0.053-0.002-0.058-0.006c-0.033-0.026-0.076-0.059-0.082-0.103l-0.004-0.037
							c0.058-0.027,0.096-0.062,0.168-0.075c-0.006-0.021-0.01-0.035-0.035-0.069c-0.011-0.019-0.036-0.02-0.047-0.041
							c-0.013-0.021-0.004-0.062-0.011-0.086c-0.008-0.02-0.037-0.034-0.043-0.055c-0.021-0.054-0.025-0.094-0.037-0.168
							c-0.015-0.074-0.036-0.147-0.036-0.19c-0.003-0.029,0.042-0.102,0.05-0.145c0.001-0.003-0.045-0.054,0.007-0.107
							s0.092-0.03,0.126,0c0.048,0.049-0.019,0.219,0.042,0.247c0.019-0.001,0.014-0.021,0.015-0.044l0.01-0.07
							c0.005-0.053-0.003-0.098-0.004-0.154c0-0.026,0.01-0.03,0.009-0.051c-0.016-0.067,0.035-0.368,0.122-0.457
							c0.04-0.04,0.028-0.033,0.092-0.058c0.028-0.011,0.038,0.006,0.074-0.035c0.088-0.097,0.06-0.166,0.108-0.264l0.081-0.111
							c0.047-0.069,0.064-0.112,0.141-0.129c0.015-0.004,0.048,0.01,0.063-0.005c0.067-0.062,0.128-0.184,0.21-0.288l0.116-0.14
							l0.131-0.121c0.064-0.068,0.112-0.165,0.204-0.251c0.022-0.022,0.058-0.029,0.076-0.05c0.046-0.055,0.165-0.139,0.236-0.21
							c0.121-0.035-0.033,0.033,0.122-0.008c0.06-0.016,0.065-0.002,0.104-0.067c-0.008-0.035-0.104,0.025-0.147,0.03
							c0.023-0.064,0.134-0.098,0.204-0.15c0.05-0.04,0.133-0.154,0.2-0.176c0.072-0.021,0.018,0.018,0.084-0.038l0.077-0.07
							c0.073-0.059,0.241-0.139,0.358-0.211c0.029-0.02,0.054-0.054,0.081-0.066c0.023-0.011,0.066-0.006,0.091-0.016
							c0.019-0.01,0.055-0.066,0.177-0.063c0.035,0.021-0.021,0.066-0.021,0.069c0.001,0.011,0.053,0.021,0.037,0.043
							c-0.026,0.039-0.193,0.099-0.281,0.149c-0.021,0.012-0.025,0.027-0.054,0.043l-0.191,0.106l-0.014-0.063
							c-0.099,0-0.005,0.065-0.037,0.108c0.018-0.025-0.124,0.093-0.13,0.097c-0.024,0.014-0.173,0.063-0.188,0.101
							c-0.031,0.071-0.017,0-0.106,0.063l-0.07,0.073c-0.036,0.032-0.099,0.067-0.148,0.115l-0.05,0.033
							c-0.025,0.068-0.006,0.005-0.099,0.07c-0.012,0.008-0.007,0.033-0.016,0.039c-0.036,0.025-0.097,0.058-0.123,0.083
							c-0.043,0.038-0.056,0.099-0.097,0.145c-0.023,0.026-0.081,0.05-0.117,0.085l-0.056,0.081
							c-0.022,0.021-0.056,0.027-0.051,0.023c-0.02,0.019,0.002,0.027-0.011,0.041c-0.067,0.074-0.171,0.163-0.235,0.257
							c-0.037,0.054-0.049,0.113-0.084,0.165c-0.016,0.025-0.063,0.054-0.077,0.074c-0.041,0.05-0.066,0.132-0.108,0.198
							c-0.025,0.048-0.073,0.097-0.1,0.147c-0.005,0.01,0.008,0.033,0.005,0.041c-0.023,0.04-0.06,0.076-0.069,0.133
							c-0.004,0.029-0.041,0.118-0.046,0.172c-0.009,0.046-0.036,0.112-0.041,0.184c-0.009,0.066,0.01,0.089-0.004,0.121
							c-0.015,0.031-0.078,0.064-0.098,0.104c-0.055,0.092-0.015,0.234,0.001,0.331c0.003,0.015-0.003,0.042,0.002,0.06l0.027,0.082
							c0.01,0.047,0.03,0.069,0.053,0.075c0.01,0.006,0.007,0.01,0.015,0.013c0.013,0.008,0.064,0.014,0.064,0.02
							c0,0.005-0.036,0.019-0.051,0.033c-0.064,0.019-0.064-0.008-0.15,0.012c0.023,0.001,0.04,0.015,0.067,0.015
							c0.009,0.001,0.021,0.005,0.032,0.011c0.019,0.005,0.05,0.002,0.069-0.003l0.032-0.016c0.011-0.002,0.012,0.01,0.029,0.003
							c0.011-0.006,0.043-0.04,0.041-0.031L47.635,88.5c-0.004,0.003-0.007,0.022,0.001,0.021c-0.06,0.077-0.104,0.09-0.174,0.117
							c-0.032,0.048,0.049,0.022,0.078,0.015c0.013-0.007,0.042-0.018,0.086-0.004c0.036,0.009,0.072,0.037,0.111,0.041
							c0.024,0.002,0.029-0.01,0.05-0.012l0.163,0.001c0.072-0.006,0.149-0.035,0.198-0.019l0.086,0.092
							c0.001,0.025-0.034,0.023-0.07,0.05c-0.077,0.055-0.021,0.034-0.128,0.031c-0.014-0.001-0.037,0.016-0.048,0.018l-0.104-0.004
							c-0.074,0.001-0.146,0.018-0.21,0.013c-0.063-0.006-0.133-0.042-0.19-0.051c-0.026-0.004-0.04,0.015-0.064,0.019
							c-0.016,0.005-0.051-0.012-0.061,0.02c0.013,0.048,0.063,0.025,0.129,0.042l0.093,0.014l0.046,0.006
							c0.011-0.001,0.029-0.021,0.035-0.02c0.022,0.003,0.051,0.034,0.075,0.038c0.014,0,0.028-0.023,0.033-0.022l0.103,0.025
							l0.108,0.004c0.073,0.002,0.118,0.021,0.188,0.004c0.026-0.007,0.048-0.032,0.068-0.034c0.064-0.009,0.122,0.006,0.178-0.001
							c0.065-0.018,0.116-0.04,0.197-0.066l0.056-0.031c0.033-0.009,0.045,0.013,0.073,0c0.069-0.024,0.16-0.095,0.237-0.104
							l0.139,0.027c0.021,0.025-0.051,0.114-0.133,0.169c-0.129,0.099-0.294,0.143-0.467,0.194l-0.111,0.039l-0.131,0.013
							C48.231,89.155,48.152,89.212,48.042,89.174z"/>
					</g>
				</g>
			</g>
		</g>
	</g>
	<g>
		<g>
			<path class="st33" d="M102.474,45.712h-1V33.418c0-8.007-1.841-12.818-5.47-14.3c-9.229-3.764-27.242,14.466-27.423,14.649
				l-0.715-0.699c0.759-0.773,18.668-18.894,28.516-14.876c4.042,1.65,6.092,6.772,6.092,15.226V45.712z"/>
		</g>
	</g>
	<g>
		<g>
			<g>
				<path class="st34" d="M101.162,88.138L101.162,88.138c0.022,0.057,0.158,0.366,0.7,0.366c0.529,0,0.665-0.31,0.687-0.366l0,0
					l1.535-6.181c0,0-0.466-0.974-2.163-0.973c-1.696,0-2.249,0.98-2.249,0.98L101.162,88.138z"/>
			</g>
			<g>
				<path class="st54" d="M101.862,88.504c0.529,0,1.594-7.364,1.594-7.364l-3.043-0.057
					C100.413,81.083,101.32,88.504,101.862,88.504z"/>
			</g>
			<g>
				<path class="st71" d="M101.862,88.504c0.529,0,0.762-7.364,0.762-7.364l-1.381-0.057
					C101.243,81.083,101.32,88.504,101.862,88.504z"/>
			</g>
			<g>
				<ellipse class="st29" cx="101.871" cy="88.094" rx="0.578" ry="0.34"/>
			</g>
			<g>
				<g>
					<path class="st46" d="M101.373,87.919c0,0,0.309,1.711,0.473,1.71c0.172,0,0.474-1.752,0.474-1.752
						c-0.113-0.07-0.273-0.123-0.448-0.123C101.662,87.754,101.485,87.827,101.373,87.919z"/>
				</g>
			</g>
			<g>
				<path class="st28" d="M99.287,52.546c0,0,0.859-1.002,2.475-1.002c1.964,0,2.644,1.002,2.644,1.002l0.007,8.185
					c0,0-1.288,0.219-2.563,0.219c-1.275,0.001-2.558-0.219-2.558-0.219L99.287,52.546z"/>
			</g>
			<g>
				<path class="st62" d="M99.667,45.421c0,0,0.767-1.002,2.095-1.002c1.922,0,2.316,1.002,2.316,1.002l0.007,36.544
					c0,0-0.962-0.581-2.236-0.581c-1.275,0.001-2.177,0.581-2.177,0.581L99.667,45.421z"/>
			</g>
			<g>
				<path class="st50" d="M99.667,45.421c0,0,0.453-1.003,2.177-1.003l0.005,36.966c-1.275,0.001-2.177,0.581-2.177,0.581
					L99.667,45.421z"/>
			</g>
			<g>
				<path class="st62" d="M99.671,81.246c0,0,0.98-0.542,2.249-0.542c1.268,0,2.164,0.542,2.164,0.542v0.72
					c0,0-0.962-0.581-2.236-0.581c-1.274,0.001-2.177,0.581-2.177,0.581V81.246z"/>
			</g>
			<g>
				<path class="st5" d="M99.671,81.26c0,0,0.98-0.558,2.249-0.557c1.269-0.001,2.164,0.557,2.164,0.557l0.001-0.409
					c0,0-0.962-0.636-2.237-0.636c-1.274-0.002-2.178,0.637-2.178,0.637L99.671,81.26z"/>
			</g>
			<g>
				<path class="st5" d="M99.671,80.499c0,0,0.98-0.698,2.249-0.698c1.268,0.002,2.164,0.698,2.164,0.698l0.001-0.407
					c0,0-0.963-0.735-2.235-0.736c-1.276,0-2.179,0.736-2.179,0.736V80.499z"/>
			</g>
		</g>
		<g>
			<path class="st28" d="M99.667,45.421c0,0,0.479-1.002,2.095-1.002c1.964,0,2.316,1.002,2.316,1.002l0.007,13.83
				c0,0-0.962-0.581-2.236-0.581c-1.275,0.001-2.177,0.581-2.177,0.581L99.667,45.421z"/>
		</g>
		<g>
			<path class="st17" d="M99.667,45.421c0,0,0.542-1.002,2.095-1.002l0.087,14.251c-1.275,0.001-2.177,0.581-2.177,0.581
				L99.667,45.421z"/>
		</g>
		<g>
			<path class="st28" d="M99.287,52.546c0,0,0.859-1.002,2.475-1.002c1.964,0,2.644,1.002,2.644,1.002l0.007,8.185
				c0,0-1.289-0.581-2.563-0.581c-1.275,0.001-2.557,0.581-2.557,0.581L99.287,52.546z"/>
		</g>
		<g>
			<path class="st17" d="M99.287,52.546c0,0,0.922-1.002,2.475-1.002l0.087,8.605c-1.275,0.001-2.557,0.581-2.557,0.581
				L99.287,52.546z"/>
		</g>
	</g>
</g>
</svg>
