<?xml version="1.0" encoding="utf-8"?>
<!-- Generator: Adobe Illustrator 16.0.0, SVG Export Plug-In . SVG Version: 6.00 Build 0)  -->
<!DOCTYPE svg PUBLIC "-//W3C//DTD SVG 1.1//EN" "http://www.w3.org/Graphics/SVG/1.1/DTD/svg11.dtd">
<svg version="1.1" id="Layer_1" xmlns="http://www.w3.org/2000/svg" xmlns:xlink="http://www.w3.org/1999/xlink" x="0px" y="0px"
	 width="136.833px" height="136.834px" viewBox="0 0 136.833 136.834" style="enable-background:new 0 0 136.833 136.834;"
	 xml:space="preserve">
<style type="text/css">
<![CDATA[
	.st0{fill:#47A4A9;}
	.st1{fill:#49A0AE;}
	.st2{fill:#E0E1D4;}
	.st3{fill:#E1B623;}
	.st4{fill:#1467A8;}
	.st5{fill-rule:evenodd;clip-rule:evenodd;fill:#757575;}
	.st6{fill:#E4C025;}
	.st7{fill:#E4DEDF;}
	.st8{fill:#4A4A4A;}
	.st9{fill:#4ABC96;}
	.st10{fill:#E5DBC5;}
	.st11{fill:#19241E;}
	.st12{fill:#E7E7E7;}
	.st13{fill:#E8E1D3;}
	.st14{fill:#E96238;}
	.st15{fill:#E9C29C;}
	.st16{fill:#E9E9EA;}
	.st17{fill-rule:evenodd;clip-rule:evenodd;fill:#DDDDDC;}
	.st18{fill:#4FAFB9;}
	.st19{fill:#B1D4D7;}
	.st20{fill:#B3E0DF;}
	.st21{fill:#B8E3EB;}
	.st22{fill:#ECE9E9;}
	.st23{fill:#ECECEC;}
	.st24{fill:#ED7B3A;}
	.st25{fill:#EDC92C;}
	.st26{fill:#EEB488;}
	.st27{fill:#525252;}
	.st28{fill-rule:evenodd;clip-rule:evenodd;fill:#E4E4E4;}
	.st29{fill-rule:evenodd;clip-rule:evenodd;fill:#4B4A4B;}
	.st30{fill:#BDD2CE;}
	.st31{fill:#BFC1A9;}
	.st32{fill:#F16D53;}
	.st33{fill:#5A5A5A;}
	.st34{fill-rule:evenodd;clip-rule:evenodd;fill:#B5B2B3;}
	.st35{fill:#5C5C5C;}
	.st36{fill:#F7C192;}
	.st37{fill:#959595;}
	.st38{fill:#C4E2E7;}
	.st39{fill:#C6CBC8;}
	.st40{fill:#989897;}
	.st41{fill:#99999A;}
	.st42{opacity:0.2;}
	.st43{opacity:0.6;}
	.st44{opacity:0.8;}
	.st45{opacity:0.9;}
	.st46{fill:#606060;}
	.st47{fill-rule:evenodd;clip-rule:evenodd;fill:#BFC1A9;}
	.st48{fill:#FFFFFF;}
	.st49{fill:none;}
	.st50{fill-rule:evenodd;clip-rule:evenodd;fill:#5A5A5A;}
	.st51{fill:#676767;}
	.st52{fill:#67C3C8;}
	.st53{fill:#CAD8D4;}
	.st54{fill-rule:evenodd;clip-rule:evenodd;fill:#C0BEBF;}
	.st55{fill:#343433;}
	.st56{fill:#343A36;}
	.st57{fill:#353535;}
	.st58{fill:#357180;}
	.st59{fill:#377EC0;}
	.st60{fill:#6B491E;}
	.st61{fill:#6D6D6D;}
	.st62{fill-rule:evenodd;clip-rule:evenodd;fill:#616161;}
	.st63{fill:#D4DFDC;}
	.st64{fill:#D62127;}
	.st65{fill:#D6B429;}
	.st66{fill:#D7D0BC;}
	.st67{fill:#D7DABA;}
	.st68{fill:#3D929A;}
	.st69{fill:#D8E4E1;}
	.st70{fill:#D96527;}
	.st71{fill-rule:evenodd;clip-rule:evenodd;fill:#CDCCCB;}
	.st72{fill:#717171;}
	.st73{fill:#A19F9F;}
	.st74{fill:#A2D4DE;}
	.st75{fill:#DA1F26;}
	.st76{fill:#0C808B;}
	.st77{fill:#A7CACB;}
	.st78{fill:#DBDBDA;}
	.st79{fill:#DD5231;}
	.st80{fill:#409FA4;}
	.st81{fill:#DFBB26;}
	.st82{fill:#444445;}
	.st83{fill:#444545;}
]]>
</style>
<g>
	<g>
		<circle class="st1" cx="68.417" cy="68.417" r="63.333"/>
	</g>
	<g>
		<g>
			<g>
				<g>
					<g>
						<path class="st25" d="M84.474,104.847c0.85-2.311,11.4-3.974,12.92-2.039c0.85-2.311,9.52-4.534,10.959-3.713l-16.924-49.49
							c-3.324-11.233-5.699-28.018-13.703-26.755c-8.002,1.263-5.163,17.154-4.801,29.675l-0.869,52.522
							c0.031,0.195,0.074,0.385,0.125,0.573C73.271,103.922,82.954,102.913,84.474,104.847z"/>
					</g>
				</g>
				<g>
					<g>
						<path class="st3" d="M75.211,43.961c1.675,10.621,2.182,15.789,8.179,14.843c5.998-0.946,4.972-5.528,3.217-16.643
							c0,0-2.281-17.063-8.338-16.107C72.21,27.011,75.211,43.961,75.211,43.961z"/>
					</g>
				</g>
				<g>
					<g>
						<path class="st33" d="M76.229,42.621c0.197,1.254,9.248,0.177,8.996-1.42c0,0-1.975-14.566-6.757-13.812
							C73.688,28.143,76.229,42.621,76.229,42.621z"/>
					</g>
				</g>
				<g>
					
						<ellipse transform="matrix(0.9878 -0.1559 0.1559 0.9878 -7.8177 13.6358)" class="st33" cx="83.046" cy="56.671" rx="3.293" ry="0.911"/>
				</g>
			</g>
			<g>
				<path class="st3" d="M84.003,99.277c-0.551-5.637-1.079-11.273-1.588-16.913c-0.262-2.82-0.568-5.636-0.734-8.463
					c-0.143-2.829-0.303-5.656-0.289-8.495c0.002-0.023,0.02-0.041,0.041-0.04c0.021,0,0.037,0.013,0.041,0.034
					c0.449,2.805,0.725,5.623,1.016,8.438c0.271,2.818,0.398,5.648,0.572,8.475c0.364,5.65,0.705,11.304,1.022,16.957
					c0.003,0.022-0.016,0.043-0.038,0.044C84.024,99.314,84.005,99.297,84.003,99.277z"/>
			</g>
			<g>
				<path class="st3" d="M96.011,97.388c-1.438-5.478-2.855-10.96-4.249-16.448c-0.706-2.742-1.455-5.475-2.065-8.238
					c-0.59-2.769-1.197-5.535-1.632-8.342c-0.004-0.022,0.011-0.043,0.033-0.046c0.021-0.004,0.04,0.008,0.045,0.026
					c0.888,2.697,1.607,5.436,2.341,8.172c0.715,2.74,1.289,5.514,1.908,8.276c1.256,5.521,2.487,11.049,3.697,16.581
					c0.006,0.022-0.008,0.044-0.031,0.05C96.038,97.423,96.017,97.41,96.011,97.388z"/>
			</g>
		</g>
		<g>
			<g>
				<g>
					<g>
						<path class="st25" d="M51.776,104.847c-0.852-2.311-11.4-3.974-12.921-2.039c-0.85-2.311-9.521-4.534-10.959-3.713
							l16.925-49.49c3.322-11.233,5.697-28.018,13.701-26.755c8.003,1.263,5.164,17.154,4.803,29.675l0.868,52.522
							c-0.03,0.195-0.074,0.385-0.126,0.573C62.979,103.922,53.295,102.913,51.776,104.847z"/>
					</g>
				</g>
				<g>
					<g>
						<path class="st3" d="M61.039,43.961c-1.676,10.621-2.183,15.789-8.181,14.843s-4.971-5.528-3.216-16.643
							c0,0,2.282-17.063,8.338-16.107C64.039,27.011,61.039,43.961,61.039,43.961z"/>
					</g>
				</g>
				<g>
					<g>
						<path class="st33" d="M60.021,42.621c-0.199,1.254-9.248,0.177-8.996-1.42c0,0,1.974-14.566,6.756-13.812
							C62.561,28.143,60.021,42.621,60.021,42.621z"/>
					</g>
				</g>
				<g>
					
						<ellipse transform="matrix(-0.9878 -0.1559 0.1559 -0.9878 96.9226 120.9412)" class="st33" cx="53.203" cy="56.671" rx="3.293" ry="0.911"/>
				</g>
			</g>
			<g>
				<path class="st3" d="M52.245,99.277c0.552-5.637,1.08-11.273,1.588-16.913c0.262-2.82,0.568-5.636,0.734-8.463
					c0.143-2.829,0.303-5.656,0.289-8.495c0-0.023-0.018-0.041-0.041-0.04c-0.021,0-0.037,0.013-0.039,0.034
					c-0.449,2.805-0.726,5.623-1.016,8.438c-0.271,2.818-0.4,5.648-0.574,8.475c-0.363,5.65-0.703,11.304-1.021,16.957
					c-0.002,0.022,0.016,0.043,0.037,0.044C52.224,99.314,52.243,99.297,52.245,99.277z"/>
			</g>
			<g>
				<path class="st3" d="M40.239,97.388c1.437-5.478,2.854-10.96,4.248-16.448c0.705-2.742,1.455-5.475,2.066-8.238
					c0.59-2.769,1.195-5.535,1.632-8.342c0.003-0.022-0.012-0.043-0.034-0.046c-0.021-0.004-0.039,0.008-0.045,0.026
					c-0.889,2.697-1.607,5.436-2.342,8.172c-0.714,2.74-1.287,5.514-1.908,8.276C42.602,86.31,41.37,91.837,40.16,97.37
					c-0.005,0.022,0.007,0.044,0.03,0.05C40.211,97.423,40.233,97.41,40.239,97.388z"/>
			</g>
		</g>
	</g>
</g>
</svg>
