<?xml version="1.0" encoding="utf-8"?>
<!-- Generator: Adobe Illustrator 16.0.0, SVG Export Plug-In . SVG Version: 6.00 Build 0)  -->
<!DOCTYPE svg PUBLIC "-//W3C//DTD SVG 1.1//EN" "http://www.w3.org/Graphics/SVG/1.1/DTD/svg11.dtd">
<svg version="1.1" id="Layer_1" xmlns="http://www.w3.org/2000/svg" xmlns:xlink="http://www.w3.org/1999/xlink" x="0px" y="0px"
	 width="136.833px" height="136.834px" viewBox="0 0 136.833 136.834" style="enable-background:new 0 0 136.833 136.834;"
	 xml:space="preserve">
<style type="text/css">
<![CDATA[
	.st0{fill:#47A4A9;}
	.st1{fill:#49A0AE;}
	.st2{fill:#E0E1D4;}
	.st3{fill:#E1B623;}
	.st4{fill:#1467A8;}
	.st5{fill-rule:evenodd;clip-rule:evenodd;fill:#757575;}
	.st6{fill:#E4C025;}
	.st7{fill:#E4DEDF;}
	.st8{fill:#4A4A4A;}
	.st9{fill:#4ABC96;}
	.st10{fill:#E5DBC5;}
	.st11{fill:#19241E;}
	.st12{fill:#E7E7E7;}
	.st13{fill:#E8E1D3;}
	.st14{fill:#E96238;}
	.st15{fill:#E9C29C;}
	.st16{fill:#E9E9EA;}
	.st17{fill-rule:evenodd;clip-rule:evenodd;fill:#DDDDDC;}
	.st18{fill:#4FAFB9;}
	.st19{fill:#B1D4D7;}
	.st20{fill:#B3E0DF;}
	.st21{fill:#B8E3EB;}
	.st22{fill:#ECE9E9;}
	.st23{fill:#ECECEC;}
	.st24{fill:#ED7B3A;}
	.st25{fill:#EDC92C;}
	.st26{fill:#EEB488;}
	.st27{fill:#525252;}
	.st28{fill-rule:evenodd;clip-rule:evenodd;fill:#E4E4E4;}
	.st29{fill-rule:evenodd;clip-rule:evenodd;fill:#4B4A4B;}
	.st30{fill:#BDD2CE;}
	.st31{fill:#BFC1A9;}
	.st32{fill:#F16D53;}
	.st33{fill:#5A5A5A;}
	.st34{fill-rule:evenodd;clip-rule:evenodd;fill:#B5B2B3;}
	.st35{fill:#5C5C5C;}
	.st36{fill:#F7C192;}
	.st37{fill:#959595;}
	.st38{fill:#C4E2E7;}
	.st39{fill:#C6CBC8;}
	.st40{fill:#989897;}
	.st41{fill:#99999A;}
	.st42{opacity:0.2;}
	.st43{opacity:0.6;}
	.st44{opacity:0.8;}
	.st45{opacity:0.9;}
	.st46{fill:#606060;}
	.st47{fill-rule:evenodd;clip-rule:evenodd;fill:#BFC1A9;}
	.st48{fill:#FFFFFF;}
	.st49{fill:none;}
	.st50{fill-rule:evenodd;clip-rule:evenodd;fill:#5A5A5A;}
	.st51{fill:#676767;}
	.st52{fill:#67C3C8;}
	.st53{fill:#CAD8D4;}
	.st54{fill-rule:evenodd;clip-rule:evenodd;fill:#C0BEBF;}
	.st55{fill:#343433;}
	.st56{fill:#343A36;}
	.st57{fill:#353535;}
	.st58{fill:#357180;}
	.st59{fill:#377EC0;}
	.st60{fill:#6B491E;}
	.st61{fill:#6D6D6D;}
	.st62{fill-rule:evenodd;clip-rule:evenodd;fill:#616161;}
	.st63{fill:#D4DFDC;}
	.st64{fill:#D62127;}
	.st65{fill:#D6B429;}
	.st66{fill:#D7D0BC;}
	.st67{fill:#D7DABA;}
	.st68{fill:#3D929A;}
	.st69{fill:#D8E4E1;}
	.st70{fill:#D96527;}
	.st71{fill-rule:evenodd;clip-rule:evenodd;fill:#CDCCCB;}
	.st72{fill:#717171;}
	.st73{fill:#A19F9F;}
	.st74{fill:#A2D4DE;}
	.st75{fill:#DA1F26;}
	.st76{fill:#0C808B;}
	.st77{fill:#A7CACB;}
	.st78{fill:#DBDBDA;}
	.st79{fill:#DD5231;}
	.st80{fill:#409FA4;}
	.st81{fill:#DFBB26;}
	.st82{fill:#444445;}
	.st83{fill:#444545;}
]]>
</style>
<g>
	<g>
		<circle class="st9" cx="68.417" cy="68.417" r="63.332"/>
	</g>
	<g>
		<g>
			<g>
				<g>
					<path class="st83" d="M85.565,110.489c-5.1,0-9.273-1.447-12.455-4.328c-7.088-6.42-6.371-17.492-6.338-17.96l3.99,0.289
						l-1.994-0.145l1.994,0.142c-0.006,0.096-0.596,9.629,5.047,14.723c3.307,2.985,8.225,3.936,14.617,2.831
						c7.482-1.295,16.117-14.242,15.615-28.377c-0.318-8.943-4.787-24.343-31.141-26.995c-17.111-1.725-38.248,0.585-41.83,21.35
						c-1.271,7.377,1.938,14.993,9.813,23.283l-2.9,2.754c-8.682-9.141-12.334-18.129-10.854-26.717
						c3.203-18.57,19.594-27.327,46.172-24.65c30.473,3.068,34.443,22.585,34.736,30.834c0.531,14.909-8.67,30.685-18.93,32.46
						C89.155,110.32,87.305,110.489,85.565,110.489z"/>
				</g>
			</g>
			<g>
				<path class="st16" d="M45.555,99.59c0,0-0.07,0.369-0.664,0.775c-0.629,0.431-0.91,0.458-0.91,0.458l-2.004-2.559l1.574-1.233
					L45.555,99.59z"/>
			</g>
			<g>
				<path class="st83" d="M46.176,97.183c0,0-0.691,1.151-2.035,2.214s-2.682,1.764-2.682,1.764l-8.236-11.047l3.613-3.045
					L46.176,97.183z"/>
			</g>
		</g>
		<g>
			<g>
				<polygon class="st83" points="71.76,90.302 65.774,90.303 61.018,76.345 76.516,76.345 				"/>
			</g>
			<g>
				<path class="st83" d="M70.102,25.678h-3c-7.457,0-13.5,4.875-13.5,12s1.436,10.073,1.436,14.495s-1.477,9.13-1.436,15.505
					c0.039,6.375,6.043,12,13.5,12h3c7.455,0,13.209-5.25,13.5-12c0.289-6.75-1.436-11.259-1.436-15.671s1.436-7.454,1.436-14.329
					S77.557,25.678,70.102,25.678z"/>
			</g>
			<g>
				<g>
					<circle class="st39" cx="68.767" cy="65.012" r="9.833"/>
				</g>
				<g>
					<g>
						<path class="st14" d="M68.766,74.845c-5.43,0-9.832-4.402-9.832-9.833h9.832V74.845z"/>
					</g>
					<g>
						<path class="st79" d="M68.766,74.845c-2.863,0-5.441-1.224-7.238-3.178l7.238-6.655V74.845z"/>
					</g>
					<g>
						<path class="st32" d="M61.813,58.058c-1.779,1.779-2.879,4.237-2.879,6.953h9.832L61.813,58.058z"/>
					</g>
				</g>
				<g>
					<circle class="st78" cx="68.767" cy="65.012" r="7.749"/>
				</g>
				<g>
					<g>
						<circle class="st83" cx="68.767" cy="65.012" r="1.999"/>
					</g>
					<g>
						<polygon class="st83" points="70.098,64.509 67.598,64.509 68.766,58.677 						"/>
					</g>
				</g>
			</g>
			<g>
				<g>
					<circle class="st39" cx="68.767" cy="40.262" r="9.833"/>
				</g>
				<g>
					<circle class="st78" cx="68.767" cy="40.262" r="7.749"/>
				</g>
				<g>
					<g>
						<circle class="st83" cx="68.766" cy="40.262" r="1.416"/>
					</g>
					<g>
						<polygon class="st83" points="70.004,39.822 67.504,39.822 68.672,33.99 						"/>
					</g>
					<g>
						<g>
							<circle class="st83" cx="68.704" cy="32.513" r="0.625"/>
						</g>
						<g>
							<circle class="st83" cx="68.704" cy="48.053" r="0.625"/>
						</g>
						<g>
							<circle class="st83" cx="76.475" cy="40.284" r="0.625"/>
						</g>
						<g>
							<circle class="st83" cx="60.934" cy="40.284" r="0.625"/>
						</g>
					</g>
				</g>
			</g>
		</g>
	</g>
</g>
</svg>
