<?xml version="1.0" encoding="utf-8"?>
<!-- Generator: Adobe Illustrator 16.0.0, SVG Export Plug-In . SVG Version: 6.00 Build 0)  -->
<!DOCTYPE svg PUBLIC "-//W3C//DTD SVG 1.1//EN" "http://www.w3.org/Graphics/SVG/1.1/DTD/svg11.dtd">
<svg version="1.1" id="Layer_1" xmlns="http://www.w3.org/2000/svg" xmlns:xlink="http://www.w3.org/1999/xlink" x="0px" y="0px"
	 width="136.914px" height="136.913px" viewBox="0 0 136.914 136.913" enable-background="new 0 0 136.914 136.913"
	 xml:space="preserve">
<g>
	<g>
		<g>
			<circle fill="#49A0AE" cx="68.457" cy="68.457" r="63.333"/>
		</g>
	</g>
	<g>
		<g>
			<path fill="#FFFFFF" d="M120.451,65.305c-4.813-4.813-9.625-9.627-14.438-14.439c-3.417-3.418-8.702,1.906-5.275,5.332
				c2.673,2.674,5.346,5.347,8.02,8.021c-8.62,0-17.241,0-25.861,0c-4.843,0-4.886,7.502-0.054,7.502c8.639,0,17.278,0,25.917,0
				c-2.683,2.683-5.367,5.366-8.05,8.049c-3.418,3.417,1.906,8.701,5.332,5.275c4.813-4.812,9.625-9.624,14.438-14.436
				C121.93,69.158,121.89,66.743,120.451,65.305z"/>
		</g>
		<g>
			<path fill="#FFFFFF" d="M54.132,64.218c-8.638,0-17.276,0-25.914,0c2.683-2.683,5.365-5.366,8.048-8.049
				c3.418-3.418-1.906-8.702-5.332-5.275c-4.813,4.813-9.625,9.626-14.438,14.439c-1.45,1.45-1.411,3.865,0.028,5.304
				c4.813,4.813,9.625,9.624,14.438,14.436c3.418,3.418,8.702-1.906,5.275-5.332c-2.674-2.674-5.348-5.347-8.021-8.021
				c8.621,0,17.241,0,25.862,0C58.921,71.72,58.964,64.218,54.132,64.218z"/>
		</g>
	</g>
	<circle fill="#FFFFFF" cx="68.457" cy="68.455" r="6.444"/>
</g>
</svg>
