<?xml version="1.0" encoding="utf-8"?>
<!-- Generator: Adobe Illustrator 16.0.0, SVG Export Plug-In . SVG Version: 6.00 Build 0)  -->
<!DOCTYPE svg PUBLIC "-//W3C//DTD SVG 1.1//EN" "http://www.w3.org/Graphics/SVG/1.1/DTD/svg11.dtd">
<svg version="1.1" id="Layer_1" xmlns="http://www.w3.org/2000/svg" xmlns:xlink="http://www.w3.org/1999/xlink" x="0px" y="0px"
	 width="136.913px" height="136.913px" viewBox="0 0 136.913 136.913" enable-background="new 0 0 136.913 136.913"
	 xml:space="preserve">
<g>
	<g>
		<g>
			<circle fill="#65A844" cx="68.456" cy="68.457" r="63.333"/>
		</g>
	</g>
	<g>
		<path fill="#FFFFFF" d="M49.945,101.801c0,1.738-1.41,3.146-3.148,3.146H34.385c-1.738,0-3.146-1.408-3.146-3.146V80.447
			c0-1.738,1.408-3.146,3.146-3.146h12.412c1.738,0,3.148,1.408,3.148,3.146V101.801z"/>
		<path fill="#FFFFFF" d="M75.945,101.801c0,1.738-1.41,3.146-3.148,3.146H60.385c-1.738,0-3.146-1.408-3.146-3.146V64.947
			c0-1.738,1.408-3.146,3.146-3.146h12.412c1.738,0,3.148,1.408,3.148,3.146V101.801z"/>
		<path fill="#FFFFFF" d="M113.202,50.047c0.29-0.583,0.283-1.293-0.226-1.91c-0.062-0.086-0.132-0.165-0.21-0.238
			c-5.892-5.892-11.784-11.783-17.677-17.675c-0.725-0.725-1.932-0.705-2.651,0.014c-5.917,5.918-11.833,11.836-17.75,17.754
			c-1.145,1.146-0.303,3.194,1.319,3.194c2.633,0,5.265,0,7.896,0v50.615c0,1.738,1.408,3.146,3.146,3.146h12.412
			c1.738,0,3.148-1.408,3.148-3.146V51.186c2.952,0,5.904,0,8.855,0c0.082-0.001,0.161-0.007,0.24-0.02
			C112.478,51.097,112.979,50.633,113.202,50.047z"/>
	</g>
</g>
</svg>
