<?xml version="1.0" encoding="utf-8"?>
<!-- Generator: Adobe Illustrator 16.0.0, SVG Export Plug-In . SVG Version: 6.00 Build 0)  -->
<!DOCTYPE svg PUBLIC "-//W3C//DTD SVG 1.1//EN" "http://www.w3.org/Graphics/SVG/1.1/DTD/svg11.dtd">
<svg version="1.1" id="Layer_1" xmlns="http://www.w3.org/2000/svg" xmlns:xlink="http://www.w3.org/1999/xlink" x="0px" y="0px"
	 width="136.913px" height="136.913px" viewBox="0 0 136.913 136.913" enable-background="new 0 0 136.913 136.913"
	 xml:space="preserve">
<g>
	<g>
		<g>
			<circle fill="#E79E2D" cx="68.456" cy="68.457" r="63.333"/>
		</g>
	</g>
	<g>
		<g>
			<g>
				<path fill="#FFFFFF" d="M60.686,72.146c-6.091,0-12.182,0-18.273,0c-3.874,0-3.908,6.002-0.043,6.002c3.683,0,7.365,0,11.049,0
					c-4.315,4.314-8.631,8.629-12.945,12.943c-2.734,2.734,1.524,6.962,4.266,4.221c4.308-4.308,8.616-8.615,12.924-12.923
					c0,3.67,0,7.339-0.001,11.008c0,3.874,6.001,3.908,6.002,0.043c0-6.09,0.001-12.181,0.002-18.271
					C63.665,73.542,62.328,72.146,60.686,72.146z"/>
				<path fill="#FFFFFF" d="M76.75,62.036c6.091,0,12.182,0.001,18.273,0.002c3.874,0,3.908-6.001,0.043-6.002
					c-3.683,0-7.365-0.001-11.048-0.001c4.314-4.314,8.63-8.63,12.944-12.944c2.734-2.734-1.524-6.962-4.266-4.221
					c-4.308,4.308-8.616,8.616-12.924,12.924c0-3.669,0-7.338,0.001-11.007c0-3.874-6.001-3.908-6.002-0.043
					c0,6.09-0.001,12.18-0.002,18.27C73.771,60.64,75.107,62.035,76.75,62.036z"/>
				<path fill="#FFFFFF" d="M95.064,72.146c-6.09,0-12.18-0.001-18.27-0.002c-1.626,0-3.021,1.337-3.022,2.979
					c0,6.091-0.001,12.182-0.002,18.273c0,3.874,6.001,3.908,6.002,0.043c0-3.683,0.001-7.365,0.001-11.048
					c4.314,4.314,8.63,8.63,12.944,12.944c2.734,2.734,6.962-1.524,4.221-4.266c-4.308-4.308-8.616-8.616-12.924-12.924
					c3.669,0,7.338,0,11.007,0.001C98.896,78.147,98.93,72.146,95.064,72.146z"/>
				<path fill="#FFFFFF" d="M42.369,62.036c6.09,0,12.181,0.001,18.271,0.002c1.626,0,3.022-1.337,3.022-2.979
					c0-6.091,0-12.182,0-18.273c0-3.874-6.002-3.908-6.002-0.043c0,3.683,0,7.365,0,11.049c-4.314-4.315-8.629-8.631-12.943-12.945
					c-2.734-2.734-6.962,1.524-4.221,4.266c4.308,4.308,8.615,8.616,12.923,12.924c-3.67,0-7.339,0-11.008-0.001
					C38.538,56.034,38.504,62.035,42.369,62.036z"/>
			</g>
		</g>
	</g>
	<path fill="#FFFFFF" d="M110.112,34.527c0-0.343-0.062-0.646-0.146-0.928c-1.081-5.877-5.567-7.798-11.206-7.798
		c-6.021,0-12.043,0-18.064,0c-14.166,0-28.332,0-42.498,0c-5.908,0-10.636,2.071-11.397,8.683c-0.392,3.397,0,7.071,0,10.485
		c0,15.225,0,30.45,0,45.676c0,3.653-0.268,7.413,0.151,11.049c0.72,6.253,6.523,7.42,11.644,7.42c14.329,0,28.657,0,42.986,0
		c5.849,0,11.697,0,17.546,0c5.397,0,10.985-2.309,10.985-8.704c0-11.477,0-22.953,0-34.429c0-10.244,0-20.489,0-30.733
		C110.138,35.024,110.143,34.786,110.112,34.527z M101.43,103.112c-3.397,0.392-7.071,0-10.485,0c-7.654,0-15.31,0-22.965,0
		c-7.57,0-15.141,0-22.711,0c-2.324,0-11.97,1.631-12.467-2.683c-0.392-3.397,0-7.071,0-10.485c0-7.654,0-15.31,0-22.965
		c0-7.57,0-15.141,0-22.711c0-2.325-1.632-11.969,2.683-12.465c3.397-0.392,7.071,0,10.485,0c7.654,0,15.31,0,22.965,0
		c7.57,0,15.141,0,22.711,0c2.322,0,11.969-1.631,12.465,2.681c0,11.15,0,22.3,0,33.45c0,7.57,0,15.141,0,22.711
		C104.11,92.968,105.741,102.616,101.43,103.112z"/>
</g>
</svg>
