<?xml version="1.0" encoding="utf-8"?>
<!-- Generator: Adobe Illustrator 16.0.0, SVG Export Plug-In . SVG Version: 6.00 Build 0)  -->
<!DOCTYPE svg PUBLIC "-//W3C//DTD SVG 1.1//EN" "http://www.w3.org/Graphics/SVG/1.1/DTD/svg11.dtd">
<svg version="1.1" id="Layer_1" xmlns="http://www.w3.org/2000/svg" xmlns:xlink="http://www.w3.org/1999/xlink" x="0px" y="0px"
	 width="136.914px" height="136.914px" viewBox="0 0 136.914 136.914" enable-background="new 0 0 136.914 136.914"
	 xml:space="preserve">
<g>
	<g>
		<g>
			<path fill="#344E5D" d="M5.124,68.458c0-34.981,28.355-63.333,63.332-63.333c34.979,0,63.334,28.353,63.334,63.333
				c0,34.976-28.355,63.331-63.334,63.331C33.479,131.789,5.124,103.434,5.124,68.458z"/>
		</g>
	</g>
	<path fill="#F7F7F7" d="M71.639,24.75v-8.422c0,0,0.064-0.692-0.444-0.89c-0.509-0.198-1.081,0.211-1.081,0.211L45.033,30.393
		c0,0-0.565,0.34-0.565,0.819c0,0.579,0.565,0.876,0.565,0.876l25.166,14.828c0,0,0.487,0.297,0.976,0
		c0.486-0.296,0.465-0.766,0.465-0.766V38.29c15.256,1.59,27.152,14.487,27.152,30.168c0,16.751-13.582,30.333-30.334,30.333
		c-16.754,0-30.335-13.582-30.335-30.333c0-4.766,1.102-9.273,3.06-13.285c0,0,2.535-5.675-2.715-8.259s-8.361,0.261-9.002,1.503
		c-3.094,6.006-4.842,12.819-4.842,20.042c0,24.208,19.625,43.833,43.834,43.833c24.208,0,43.834-19.625,43.834-43.833
		C112.292,45.318,94.36,26.382,71.639,24.75z"/>
	<circle fill="#F7F7F7" cx="68.458" cy="68.458" r="5.877"/>
</g>
</svg>
