<?xml version="1.0" encoding="utf-8"?>
<!-- Generator: Adobe Illustrator 16.0.0, SVG Export Plug-In . SVG Version: 6.00 Build 0)  -->
<!DOCTYPE svg PUBLIC "-//W3C//DTD SVG 1.1//EN" "http://www.w3.org/Graphics/SVG/1.1/DTD/svg11.dtd">
<svg version="1.1" id="Layer_1" xmlns="http://www.w3.org/2000/svg" xmlns:xlink="http://www.w3.org/1999/xlink" x="0px" y="0px"
	 width="136.914px" height="136.914px" viewBox="0 0 136.914 136.914" enable-background="new 0 0 136.914 136.914"
	 xml:space="preserve">
<g>
	<g>
		<g>
			<path fill="#344E5D" d="M5.124,68.458c0-34.981,28.355-63.334,63.332-63.334c34.979,0,63.334,28.353,63.334,63.334
				c0,34.977-28.355,63.332-63.334,63.332C33.479,131.79,5.124,103.435,5.124,68.458z"/>
		</g>
	</g>
	<path fill="#F7F7F7" d="M107.448,48.416c-0.64-1.242-3.752-4.087-9.002-1.503s-2.714,8.26-2.714,8.26
		c1.957,4.012,3.059,8.52,3.059,13.285c0,16.752-13.581,30.334-30.335,30.334c-16.752,0-30.334-13.582-30.334-30.334
		c0-15.681,11.896-28.579,27.152-30.169v7.861c0,0-0.021,0.47,0.466,0.766c0.487,0.297,0.975,0,0.975,0L91.88,32.088
		c0,0,0.565-0.297,0.565-0.876c0-0.479-0.565-0.819-0.565-0.819L66.799,15.648c0,0-0.572-0.409-1.081-0.211
		c-0.508,0.197-0.444,0.89-0.444,0.89v8.422c-22.721,1.632-40.651,20.568-40.651,43.708c0,24.209,19.625,43.834,43.833,43.834
		c24.209,0,43.835-19.625,43.835-43.834C112.291,61.235,110.542,54.423,107.448,48.416z"/>
	<circle fill="#F7F7F7" cx="68.457" cy="68.458" r="5.877"/>
</g>
</svg>
