<?xml version="1.0" encoding="utf-8"?>
<!-- Generator: Adobe Illustrator 16.0.0, SVG Export Plug-In . SVG Version: 6.00 Build 0)  -->
<!DOCTYPE svg PUBLIC "-//W3C//DTD SVG 1.1//EN" "http://www.w3.org/Graphics/SVG/1.1/DTD/svg11.dtd">
<svg version="1.1" id="Layer_1" xmlns="http://www.w3.org/2000/svg" xmlns:xlink="http://www.w3.org/1999/xlink" x="0px" y="0px"
	 width="136.914px" height="136.914px" viewBox="0 0 136.914 136.914" enable-background="new 0 0 136.914 136.914"
	 xml:space="preserve">
<g>
	<g>
		<g>
			<circle fill="#357180" cx="68.457" cy="68.458" r="63.333"/>
		</g>
	</g>
	<path fill="#FFFFFF" d="M93.44,34.864c-7.223-4.63-14.445-9.259-21.668-13.889c-0.773-0.496-1.521-0.334-2.041,0.126
		c-0.45,0.291-0.772,0.781-0.772,1.484c0,3.018,0,6.035,0,9.054c-21.786,1.026-38.874,18.483-39.297,40.437
		c-0.431,22.355,18.784,40.072,40.49,40.49c6.774,0.131,6.762-10.369,0-10.5c-16.6-0.32-29.671-13.391-29.99-29.99
		c-0.313-16.188,13.18-29.021,28.797-29.936c0,2.74,0,5.481,0,8.223c0,1.383,1.601,2.416,2.825,1.631
		c7.223-4.63,14.445-9.259,21.668-13.889C94.668,37.325,94.648,35.639,93.44,34.864z"/>
</g>
</svg>
