<?xml version="1.0" encoding="utf-8"?>
<!-- Generator: Adobe Illustrator 16.0.0, SVG Export Plug-In . SVG Version: 6.00 Build 0)  -->
<!DOCTYPE svg PUBLIC "-//W3C//DTD SVG 1.1//EN" "http://www.w3.org/Graphics/SVG/1.1/DTD/svg11.dtd">
<svg version="1.1" id="Layer_1" xmlns="http://www.w3.org/2000/svg" xmlns:xlink="http://www.w3.org/1999/xlink" x="0px" y="0px"
	 width="136.914px" height="136.913px" viewBox="0 0 136.914 136.913" enable-background="new 0 0 136.914 136.913"
	 xml:space="preserve">
<g>
	<g>
		<g>
			<circle fill="#1FA85B" cx="68.457" cy="68.457" r="63.333"/>
		</g>
	</g>
	<path fill="#FFFFFF" d="M110.453,43.716c-0.358-0.392-0.875-0.632-1.505-0.579c-0.17,0.004-0.336,0.029-0.495,0.079
		c-6.82,1.457-13.64,2.915-20.46,4.371c-1.417,0.303-1.798,2.181-0.833,3.145c1.8,1.801,3.601,3.602,5.401,5.401
		c-7.828,7.827-15.655,15.654-23.482,23.481c-0.116-0.004-0.23-0.007-0.346-0.005C60.9,71.777,53.069,63.946,45.237,56.115
		c1.799-1.799,3.598-3.599,5.397-5.397c0.955-0.955,0.557-2.83-0.838-3.128c-6.832-1.459-13.664-2.918-20.496-4.377
		c-0.149-0.044-0.303-0.066-0.46-0.071c-0.619-0.053-1.132,0.175-1.491,0.552c-0.391,0.356-0.631,0.872-0.58,1.501
		c0.003,0.173,0.029,0.341,0.08,0.503c1.457,6.818,2.915,13.638,4.372,20.456c0.303,1.417,2.18,1.798,3.144,0.834
		c1.856-1.856,3.712-3.712,5.568-5.568c7.772,7.772,15.546,15.546,23.319,23.318c-0.003,0.09-0.013,0.176-0.013,0.269
		c0,5.696,0,11.393,0,17.088c0,7.266,11.253,7.329,11.253,0.082c0-5.696,0-11.393,0-17.088c0-0.092-0.009-0.178-0.013-0.268
		c7.795-7.794,15.59-15.589,23.384-23.383c1.854,1.854,3.709,3.709,5.563,5.563c0.955,0.955,2.83,0.557,3.127-0.838
		c1.459-6.831,2.918-13.663,4.377-20.494c0.045-0.149,0.067-0.304,0.072-0.462C111.057,44.588,110.83,44.075,110.453,43.716z"/>
</g>
</svg>
