<?xml version="1.0" encoding="utf-8"?>
<!-- Generator: Adobe Illustrator 16.0.0, SVG Export Plug-In . SVG Version: 6.00 Build 0)  -->
<!DOCTYPE svg PUBLIC "-//W3C//DTD SVG 1.1//EN" "http://www.w3.org/Graphics/SVG/1.1/DTD/svg11.dtd">
<svg version="1.1" id="Layer_1" xmlns="http://www.w3.org/2000/svg" xmlns:xlink="http://www.w3.org/1999/xlink" x="0px" y="0px"
	 width="136.913px" height="136.914px" viewBox="0 0 136.913 136.914" enable-background="new 0 0 136.913 136.914"
	 xml:space="preserve">
<g>
	<g>
		<g>
			<path fill="#6EC2CB" d="M5.124,68.458c0-34.982,28.355-63.334,63.332-63.334c34.979,0,63.334,28.352,63.334,63.334
				c0,34.975-28.355,63.332-63.334,63.332C33.479,131.79,5.124,103.433,5.124,68.458z"/>
		</g>
	</g>
	<path fill="#FFFFFF" d="M105.659,65.897c-1.4,0-2.74,0.264-3.996,0.732c-1.395-9.711-9.014-17.135-18.209-17.135
		c-2.992,0-5.816,0.795-8.316,2.191c-3.984-6.992-11.037-11.643-19.078-11.643c-10.33,0-19.016,7.684-21.672,18.143
		c-7.598,1.598-13.342,8.951-13.342,17.795c0,10.012,7.355,18.127,16.428,18.127c1.012,0,1.996-0.113,2.959-0.307
		c0.371,0.063,0.75,0.105,1.139,0.105h62.605c0.816,0,1.602-0.145,2.338-0.408c6.52-0.488,11.674-6.459,11.674-13.777
		C118.188,72.087,112.579,65.897,105.659,65.897z"/>
	<g>
		<line fill="#4ABC96" x1="69.698" y1="33.427" x2="69.698" y2="66.679"/>
		<path fill="#6EC2CB" d="M87.677,63.928c-3.492,0-6.984,0-10.477,0c0-10.149,0-20.298,0-30.447c0-9.687-15.004-9.772-15.004-0.108
			c0,10.185,0,20.371,0,30.556c-3.332,0-6.664,0-9.996,0c-0.073,0.001-0.145,0.008-0.217,0.019
			c-0.774,0.068-1.277,0.533-1.501,1.121c-0.29,0.582-0.283,1.292,0.225,1.908c0.063,0.089,0.137,0.171,0.218,0.247
			c5.89,5.889,11.779,11.779,17.67,17.668c0.725,0.725,1.932,0.706,2.651-0.014c5.917-5.918,11.833-11.836,17.75-17.754
			C90.141,65.978,89.299,63.928,87.677,63.928z"/>
	</g>
</g>
</svg>
