<?xml version="1.0" encoding="utf-8"?>
<!-- Generator: Adobe Illustrator 16.0.0, SVG Export Plug-In . SVG Version: 6.00 Build 0)  -->
<!DOCTYPE svg PUBLIC "-//W3C//DTD SVG 1.1//EN" "http://www.w3.org/Graphics/SVG/1.1/DTD/svg11.dtd">
<svg version="1.1" id="Layer_1" xmlns="http://www.w3.org/2000/svg" xmlns:xlink="http://www.w3.org/1999/xlink" x="0px" y="0px"
	 width="136.914px" height="136.914px" viewBox="0 0 136.914 136.914" enable-background="new 0 0 136.914 136.914"
	 xml:space="preserve">
<g>
	<g>
		<g>
			<circle fill="#357180" cx="68.457" cy="68.457" r="63.333"/>
		</g>
	</g>
	<path fill="#FFFFFF" d="M43.473,34.863c7.223-4.629,14.445-9.259,21.668-13.889c0.773-0.496,1.521-0.334,2.041,0.126
		c0.451,0.291,0.772,0.781,0.772,1.484c0,3.018,0,6.036,0,9.054c21.786,1.027,38.874,18.484,39.298,40.438
		c0.43,22.354-18.785,40.072-40.49,40.49c-6.775,0.131-6.763-10.371,0-10.5c16.599-0.32,29.67-13.391,29.99-29.99
		c0.312-16.189-13.18-29.023-28.798-29.938c0,2.741,0,5.482,0,8.223c0,1.383-1.601,2.416-2.825,1.631
		c-7.223-4.629-14.445-9.259-21.668-13.889C42.245,37.325,42.265,35.638,43.473,34.863z"/>
</g>
</svg>
