<?xml version="1.0" encoding="utf-8"?>
<!-- Generator: Adobe Illustrator 16.0.0, SVG Export Plug-In . SVG Version: 6.00 Build 0)  -->
<!DOCTYPE svg PUBLIC "-//W3C//DTD SVG 1.1//EN" "http://www.w3.org/Graphics/SVG/1.1/DTD/svg11.dtd">
<svg version="1.1" id="Layer_1" xmlns="http://www.w3.org/2000/svg" xmlns:xlink="http://www.w3.org/1999/xlink" x="0px" y="0px"
	 width="136.913px" height="136.914px" viewBox="0 0 136.913 136.914" enable-background="new 0 0 136.913 136.914"
	 xml:space="preserve">
<g>
	<g>
		<g>
			<path fill="#4ABC96" d="M5.124,68.458c0-34.982,28.355-63.334,63.332-63.334c34.979,0,63.334,28.352,63.334,63.334
				c0,34.975-28.355,63.332-63.334,63.332C33.479,131.79,5.124,103.433,5.124,68.458z"/>
		</g>
	</g>
	<g>
		<path fill="#FFFFFF" d="M98.16,80.529c0,3.764,0,7.527,0,11.292c-19.166,0-38.333,0-57.498,0c0-3.746,0-7.492,0-11.238
			c0-4.843-7.502-4.886-7.502-0.054c0,5.005,0,10.01,0,15.016c0,1.034,0.354,1.836,0.893,2.432c0.596,0.794,1.53,1.346,2.831,1.346
			c21.667,0,43.334,0,65,0c1.034,0,1.836-0.354,2.432-0.893c0.795-0.596,1.347-1.531,1.347-2.832c0-5.005,0-10.01,0-15.016
			C105.662,75.74,98.16,75.697,98.16,80.529z"/>
		<path fill="#FFFFFF" d="M86.224,55.137c-4.118,0-8.235,0-12.353,0c0-6.236,0-12.472,0-18.707c0-7.265-11.252-7.329-11.252-0.081
			c0,6.263,0,12.525,0,18.788c-3.957,0-7.914,0-11.871,0c-0.073,0.001-0.145,0.008-0.216,0.019
			c-0.776,0.067-1.279,0.533-1.503,1.122c-0.291,0.584-0.284,1.297,0.229,1.915c0.058,0.08,0.123,0.153,0.194,0.222
			C55.35,64.309,61.245,70.205,67.141,76.1c0.726,0.725,1.933,0.706,2.652-0.014c5.917-5.918,11.833-11.836,17.75-17.754
			C88.688,57.187,87.846,55.137,86.224,55.137z"/>
	</g>
</g>
</svg>
