<?xml version="1.0" encoding="utf-8"?>
<!-- Generator: Adobe Illustrator 16.0.0, SVG Export Plug-In . SVG Version: 6.00 Build 0)  -->
<!DOCTYPE svg PUBLIC "-//W3C//DTD SVG 1.1//EN" "http://www.w3.org/Graphics/SVG/1.1/DTD/svg11.dtd">
<svg version="1.1" id="Layer_1" xmlns="http://www.w3.org/2000/svg" xmlns:xlink="http://www.w3.org/1999/xlink" x="0px" y="0px"
	 width="136.913px" height="136.913px" viewBox="0 0 136.913 136.913" enable-background="new 0 0 136.913 136.913"
	 xml:space="preserve">
<g>
	<g>
		<g>
			<path fill="#344E5D" d="M5.123,68.458c0-34.982,28.355-63.334,63.332-63.334c34.979,0,63.334,28.352,63.334,63.334
				c0,34.975-28.355,63.332-63.334,63.332C33.479,131.79,5.123,103.433,5.123,68.458z"/>
		</g>
	</g>
	<g>
		<path fill="#FFFFFF" d="M110.416,77.196c-3.807-5.939-7.613-11.878-11.42-17.816c-0.779-1.217-2.467-1.197-3.241,0.012
			c-3.806,5.938-7.611,11.878-11.418,17.816c-0.496,0.774-0.334,1.521,0.127,2.042c0.292,0.449,0.781,0.771,1.483,0.771
			c2.598,0,5.195,0,7.792,0c0.068,4.829-0.59,9.887-6.243,10.267c-3.725,0.251-7.552,0-11.282,0c-6.602,0-13.203,0-19.805,0
			c-4.766,0-9.957,1.015-13.293-3.106c-3.038-3.753-8.29,1.607-5.275,5.332c4.491,5.55,10.57,5.276,16.95,5.276
			c7.714,0,15.428,0,23.143,0c5.542,0,11.316,0.694,16.412-1.863c6.176-3.099,6.817-9.688,6.8-15.905c2.547,0,5.093,0,7.64,0
			C110.168,80.021,111.201,78.421,110.416,77.196z"/>
		<path fill="#FFFFFF" d="M98.437,43.022c-4.491-5.55-10.57-5.276-16.95-5.276c-7.714,0-15.428,0-23.143,0
			c-5.542,0-11.316-0.694-16.412,1.863c-6.176,3.099-6.817,9.688-6.8,15.905c-2.519,0-5.037,0-7.556,0
			c-1.383,0-2.416,1.6-1.631,2.824c3.807,5.939,7.613,11.878,11.42,17.816c0.779,1.217,2.467,1.197,3.241-0.012
			c3.806-5.938,7.611-11.878,11.418-17.816c0.496-0.773,0.334-1.521-0.127-2.042c-0.292-0.449-0.781-0.771-1.483-0.771
			c-2.626,0-5.251,0-7.876,0c-0.068-4.829,0.59-9.887,6.243-10.267c3.725-0.251,7.552,0,11.282,0c6.602,0,13.203,0,19.805,0
			c4.766,0,9.957-1.015,13.293,3.106C96.199,52.107,101.451,46.747,98.437,43.022z"/>
	</g>
</g>
</svg>
