<?xml version="1.0" encoding="utf-8"?>
<!-- Generator: Adobe Illustrator 16.0.0, SVG Export Plug-In . SVG Version: 6.00 Build 0)  -->
<!DOCTYPE svg PUBLIC "-//W3C//DTD SVG 1.1//EN" "http://www.w3.org/Graphics/SVG/1.1/DTD/svg11.dtd">
<svg version="1.1" id="Layer_1" xmlns="http://www.w3.org/2000/svg" xmlns:xlink="http://www.w3.org/1999/xlink" x="0px" y="0px"
	 width="136.914px" height="136.913px" viewBox="0 0 136.914 136.913" enable-background="new 0 0 136.914 136.913"
	 xml:space="preserve">
<g>
	<g>
		<g>
			<circle fill="#1FA85B" cx="68.456" cy="68.457" r="63.333"/>
		</g>
	</g>
	<g>
		<g>
			<g>
				<path fill="#FFFFFF" d="M111.428,49.321c0.011-0.528-0.201-1.058-0.697-1.458c-0.036-0.031-0.074-0.06-0.111-0.089
					c-0.023-0.016-0.039-0.034-0.063-0.05c-0.034-0.021-0.067-0.044-0.102-0.065c-0.016-0.01-0.03-0.021-0.046-0.03
					c-8.573-5.555-17.145-11.109-25.717-16.664c-1.196-0.774-2.813,0.251-2.813,1.61c0,4.26,0,8.519,0,12.778
					c-7.54,0-15.079,0-22.619,0c-0.068,0-0.126,0.016-0.193,0.02c-1.169-0.031-2.336,0.503-3.082,1.856
					c-1.632,2.966-3.265,5.933-4.897,8.898c-2.331,4.235,4.159,7.994,6.495,3.75c1.288-2.341,2.577-4.682,3.865-7.022
					c6.811,0,13.621,0,20.431,0c0,4.412,0,8.823,0,13.235c0,1.378,1.603,2.423,2.825,1.631c8.56-5.545,17.119-11.089,25.678-16.635
					c0.062-0.033,0.119-0.073,0.176-0.114c0.003-0.002,0.007-0.005,0.01-0.007c0.003-0.002,0.005-0.005,0.008-0.007
					c0.06-0.043,0.117-0.086,0.171-0.136C111.255,50.411,111.457,49.862,111.428,49.321z"/>
			</g>
		</g>
		<path fill="#FFFFFF" d="M75.038,74.813c-1.288,2.341-2.577,4.682-3.865,7.022c-6.811,0-13.621,0-20.431,0
			c0-4.411,0-8.822,0-13.233c0-1.378-1.603-2.423-2.825-1.631c-8.56,5.545-17.119,11.089-25.677,16.635
			c-0.062,0.033-0.119,0.073-0.177,0.114c-0.003,0.002-0.007,0.005-0.01,0.007c-0.003,0.002-0.005,0.005-0.008,0.007
			c-0.06,0.043-0.117,0.086-0.171,0.136c-0.507,0.412-0.709,0.961-0.68,1.502c-0.011,0.528,0.201,1.058,0.697,1.458
			c0.036,0.031,0.074,0.06,0.111,0.089c0.023,0.016,0.039,0.034,0.063,0.05c0.034,0.021,0.067,0.044,0.102,0.065
			c0.016,0.01,0.03,0.021,0.046,0.03c8.573,5.555,17.145,11.109,25.717,16.664c1.196,0.774,2.813-0.251,2.813-1.61
			c0-4.26,0-8.521,0-12.78c7.54,0,15.079,0,22.619,0c0.068,0,0.126-0.016,0.193-0.02c1.169,0.031,2.336-0.503,3.082-1.856
			c1.632-2.966,3.265-5.933,4.897-8.898C83.864,74.328,77.374,70.569,75.038,74.813z"/>
	</g>
</g>
</svg>
