<?xml version="1.0" encoding="utf-8"?>
<!-- Generator: Adobe Illustrator 16.0.0, SVG Export Plug-In . SVG Version: 6.00 Build 0)  -->
<!DOCTYPE svg PUBLIC "-//W3C//DTD SVG 1.1//EN" "http://www.w3.org/Graphics/SVG/1.1/DTD/svg11.dtd">
<svg version="1.1" id="Layer_1" xmlns="http://www.w3.org/2000/svg" xmlns:xlink="http://www.w3.org/1999/xlink" x="0px" y="0px"
	 width="136.913px" height="136.913px" viewBox="0 0 136.913 136.913" enable-background="new 0 0 136.913 136.913"
	 xml:space="preserve">
<g>
	<g>
		<g>
			<path fill="#357180" d="M5.124,68.457c0-34.982,28.355-63.334,63.332-63.334c34.979,0,63.334,28.352,63.334,63.334
				c0,34.975-28.355,63.332-63.334,63.332C33.479,131.789,5.124,103.432,5.124,68.457z"/>
		</g>
	</g>
	<path fill="#FFFFFF" d="M96.168,85.263c-9.707,0-19.414,0-29.121,0c-5.22,0-10.438,0-15.658,0c-4.357,0-8.967-1.13-8.967-6.58
		c0-5.402,0-10.804,0-16.205c0-4.845,0.229-10.629,6.716-10.629c8.939,0,17.88,0,26.82,0c0,3.004,0,6.009,0,9.013
		c0,1.383,1.6,2.416,2.824,1.631c7.223-4.629,14.445-9.259,21.668-13.889c1.217-0.779,1.197-2.466-0.012-3.241
		c-7.223-4.629-14.445-9.259-21.668-13.889c-0.773-0.496-1.521-0.334-2.042,0.127c-0.449,0.291-0.771,0.781-0.771,1.483
		c0,2.504,0,5.009,0,7.513c-4.207,0-8.414,0-12.621,0c-5.635,0-11.711-0.648-17.305,0.263C27.789,43.832,31.17,64.854,31.17,78.305
		c0,9.141,6.799,17.63,16.277,18.14c4.316,0.232,8.671,0.07,12.991,0.07c11.883,0,23.766,0,35.649,0
		C103.353,96.515,103.416,85.263,96.168,85.263z"/>
</g>
</svg>
