<?xml version="1.0" encoding="utf-8"?>
<!-- Generator: Adobe Illustrator 16.0.0, SVG Export Plug-In . SVG Version: 6.00 Build 0)  -->
<!DOCTYPE svg PUBLIC "-//W3C//DTD SVG 1.1//EN" "http://www.w3.org/Graphics/SVG/1.1/DTD/svg11.dtd">
<svg version="1.1" id="Layer_1" xmlns="http://www.w3.org/2000/svg" xmlns:xlink="http://www.w3.org/1999/xlink" x="0px" y="0px"
	 width="136.913px" height="136.913px" viewBox="0 0 136.913 136.913" enable-background="new 0 0 136.913 136.913"
	 xml:space="preserve">
<g>
	<g>
		<g>
			<path fill="#357180" d="M5.123,68.458c0-34.982,28.355-63.334,63.332-63.334c34.979,0,63.334,28.352,63.334,63.334
				c0,34.975-28.355,63.332-63.334,63.332C33.479,131.79,5.123,103.433,5.123,68.458z"/>
		</g>
	</g>
	<path fill="#FFFFFF" d="M91.56,41.074c-5.354-1.472-12.076-0.477-17.521-0.477c-4.566,0-9.134,0-13.7,0c0-2.495,0-4.99,0-7.485
		c0-0.691-0.31-1.18-0.746-1.479c-0.525-0.479-1.289-0.657-2.078-0.151C50.291,36.11,43.068,40.74,35.846,45.37
		c-1.217,0.779-1.197,2.466,0.012,3.241C43.08,53.24,50.303,57.87,57.525,62.5c1.198,0.768,2.813-0.246,2.813-1.61
		c0-3.014,0-6.026,0-9.04c8.817,0,17.636,0,26.452,0c5.703,0,7.084,4.242,7.084,9.019c0,5.813,0,11.625,0,17.438
		c0,4.955-3.599,6.958-8.001,6.958c-5.19,0-10.381,0-15.571,0c-10.031,0-20.063,0-30.093,0c-7.266,0-7.329,11.252-0.082,11.252
		c11.588,0,23.176,0,34.764,0c4.181,0,8.36,0,12.541,0c9.761,0,17.694-8.133,17.694-17.832
		C105.126,65.114,108.575,45.751,91.56,41.074z"/>
</g>
</svg>
