<?xml version="1.0" encoding="utf-8"?>
<!-- Generator: Adobe Illustrator 16.0.0, SVG Export Plug-In . SVG Version: 6.00 Build 0)  -->
<!DOCTYPE svg PUBLIC "-//W3C//DTD SVG 1.1//EN" "http://www.w3.org/Graphics/SVG/1.1/DTD/svg11.dtd">
<svg version="1.1" id="Layer_1" xmlns="http://www.w3.org/2000/svg" xmlns:xlink="http://www.w3.org/1999/xlink" x="0px" y="0px"
	 width="136.914px" height="136.913px" viewBox="0 0 136.914 136.913" enable-background="new 0 0 136.914 136.913"
	 xml:space="preserve">
<g>
	<g>
		<g>
			<circle fill="#E79E2D" cx="68.457" cy="68.457" r="63.333"/>
		</g>
	</g>
	<g>
		<g>
			<path fill="#FFFFFF" d="M49.116,43.766c3.668,0,7.336-0.001,11.004-0.001c3.875-0.001,3.909-6.002,0.043-6.002
				c-6.091,0.001-12.182,0.002-18.272,0.002c-1.625,0.001-3.022,1.337-3.022,2.979c0,6.09,0.001,12.18,0.002,18.27
				c0,3.874,6.001,3.908,6.001,0.043c0-3.684,0-7.367-0.001-11.05c4.315,4.315,8.63,8.631,12.946,12.946
				c2.734,2.734,6.961-1.524,4.221-4.266C57.73,52.38,53.423,48.073,49.116,43.766z"/>
		</g>
		<g>
			<path fill="#FFFFFF" d="M97.521,75.166c0-3.874-6.001-3.908-6.001-0.043c0,3.684,0,7.367,0.001,11.051
				c-4.315-4.315-8.63-8.631-12.946-12.945c-2.734-2.734-6.962,1.525-4.221,4.266c4.308,4.308,8.615,8.614,12.922,12.921
				c-3.668,0-7.337,0-11.005,0c-3.875,0-3.909,6.002-0.043,6.002c6.091,0,12.182,0,18.272,0c1.626,0,3.022-1.337,3.022-2.979
				C97.522,87.348,97.522,81.257,97.521,75.166z"/>
		</g>
		<path fill="#FFFFFF" d="M109.859,33.422c-2.09-5.849-6.633-6.622-12.011-6.622c-14.478,0-28.956,0-43.435,0
			c-5.542,0-11.084,0-16.626,0c-5.515,0-9.8,2.13-10.842,7.768c-0.084,0.279-0.145,0.578-0.145,0.917
			c-0.03,0.261-0.025,0.501,0,0.727c0,10.908,0,21.815,0,32.724c0,11.059-1.117,22.757,0.15,33.76
			c0.72,6.253,6.524,7.418,11.643,7.418c6.188,0,12.376,0,18.564,0c13.989,0,27.978,0,41.967,0c5.397,0,10.986-2.307,10.986-8.702
			c0-3.743,0-7.486,0-11.229c0-15.212,0-30.423,0-45.635C110.113,41.35,110.979,36.556,109.859,33.422z M104.112,45.226
			c0,7.57,0,15.141,0,22.711c0,11.149,0,22.3,0,33.45c0,4.301-10.494,2.724-12.423,2.724c-7.57,0-15.14,0-22.71,0
			c-11.15,0-22.3,0-33.451,0c-4.302,0-2.725-10.491-2.725-12.422c0-7.57,0-15.141,0-22.711c0-11.149,0-22.3,0-33.45
			c0.504-4.379,10.035-2.726,12.423-2.726c7.57,0,15.14,0,22.71,0c11.15,0,22.3,0,33.451,0
			C105.688,32.802,104.112,43.295,104.112,45.226z"/>
	</g>
</g>
</svg>
