<?xml version="1.0" encoding="utf-8"?>
<!-- Generator: Adobe Illustrator 16.0.0, SVG Export Plug-In . SVG Version: 6.00 Build 0)  -->
<!DOCTYPE svg PUBLIC "-//W3C//DTD SVG 1.1//EN" "http://www.w3.org/Graphics/SVG/1.1/DTD/svg11.dtd">
<svg version="1.1" id="Layer_1" xmlns="http://www.w3.org/2000/svg" xmlns:xlink="http://www.w3.org/1999/xlink" x="0px" y="0px"
	 width="136.913px" height="136.914px" viewBox="0 0 136.913 136.914" enable-background="new 0 0 136.913 136.914"
	 xml:space="preserve">
<g>
	<g>
		<g>
			<path fill="#357180" d="M131.789,68.458c0-34.981-28.355-63.333-63.332-63.333c-34.979,0-63.334,28.353-63.334,63.333
				c0,34.976,28.355,63.332,63.334,63.332C103.434,131.789,131.789,103.434,131.789,68.458z"/>
		</g>
	</g>
	<g>
		<g>
			<path fill="#FFFFFF" d="M90.44,49.161c-4.577,4.576-9.153,9.152-13.73,13.729c-2.267-2.266-4.532-4.532-6.798-6.797
				c-1.322-1.323-2.831-1.768-4.254-1.619c-1.258,0.019-2.551,0.51-3.702,1.662c-5.325,5.325-10.65,10.65-15.976,15.975
				c-1.558-1.558-3.115-3.115-4.673-4.673c-1.255-1.255-2.76-1.325-3.994-0.75c-0.025,0.009-0.05,0.02-0.075,0.029
				c-0.002,0.001-0.004,0.001-0.006,0.002c-1.289,0.459-2.313,1.573-2.313,3.356c0,5.758,0,11.516,0,17.273
				c0,2.033,1.671,3.778,3.724,3.778c5.758,0,11.515,0,17.271,0c3.298,0,5.002-4.08,2.665-6.417
				c-1.548-1.548-3.096-3.096-4.644-4.644c4.007-4.007,8.013-8.013,12.02-12.019c2.266,2.265,4.531,4.531,6.797,6.796
				c1.322,1.322,2.83,1.768,4.252,1.619c1.258-0.019,2.553-0.51,3.704-1.661c5.91-5.91,11.82-11.819,17.73-17.729
				C103.566,51.948,95.58,44.022,90.44,49.161z"/>
		</g>
	</g>
</g>
</svg>
