<?xml version="1.0" encoding="utf-8"?>
<!-- Generator: Adobe Illustrator 16.0.0, SVG Export Plug-In . SVG Version: 6.00 Build 0)  -->
<!DOCTYPE svg PUBLIC "-//W3C//DTD SVG 1.1//EN" "http://www.w3.org/Graphics/SVG/1.1/DTD/svg11.dtd">
<svg version="1.1" id="Layer_1" xmlns="http://www.w3.org/2000/svg" xmlns:xlink="http://www.w3.org/1999/xlink" x="0px" y="0px"
	 width="136.914px" height="136.914px" viewBox="0 0 136.914 136.914" enable-background="new 0 0 136.914 136.914"
	 xml:space="preserve">
<g>
	<g>
		<g>
			<circle fill="#EDC92C" cx="68.457" cy="68.457" r="63.333"/>
		</g>
	</g>
	<g>
		<g>
			<path fill="#FFFFFF" d="M110.037,56.993c-19.027,0-38.053,0-57.08,0c0-3.454,0-6.907,0-10.36c0-6.596-8.16-10.004-12.834-5.33
				C32.9,48.525,25.678,55.749,18.455,62.972c-2.899,2.899-2.821,7.73,0.057,10.608c7.223,7.222,14.445,14.445,21.668,21.667
				c2.526,2.526,5.561,2.66,8.039,1.485c2.633-0.892,4.738-3.144,4.738-6.763c0-3.49,0-6.98,0-10.471c18.973,0,37.945,0,56.917,0
				C124.404,79.498,124.532,56.993,110.037,56.993z"/>
		</g>
	</g>
</g>
</svg>
