<?xml version="1.0" encoding="utf-8"?>
<!-- Generator: Adobe Illustrator 16.0.0, SVG Export Plug-In . SVG Version: 6.00 Build 0)  -->
<!DOCTYPE svg PUBLIC "-//W3C//DTD SVG 1.1//EN" "http://www.w3.org/Graphics/SVG/1.1/DTD/svg11.dtd">
<svg version="1.1" id="Layer_1" xmlns="http://www.w3.org/2000/svg" xmlns:xlink="http://www.w3.org/1999/xlink" x="0px" y="0px"
	 width="136.913px" height="136.913px" viewBox="0 0 136.913 136.913" enable-background="new 0 0 136.913 136.913"
	 xml:space="preserve">
<g>
	<g>
		<g>
			<circle fill="#497336" cx="68.456" cy="68.457" r="63.333"/>
		</g>
	</g>
	<g>
		<path fill="#FFFFFF" d="M50.597,75.78c-1.586-6.114-3.172-12.229-4.758-18.344c-0.259-0.995-1.313-1.581-2.297-1.326
			c-6.112,1.587-12.226,3.174-18.338,4.76c-1.598,0.415-1.85,2.613-0.452,3.436c1.948,1.146,3.896,2.292,5.845,3.438l-6.88,11.919
			c-0.691,1.201-0.691,3.236,0.002,4.436l6.668,11.547c0.107-0.633,0.355-1.285,0.732-1.949l11.087-19.124
			c1.829,1.076,3.659,2.151,5.488,3.228c0.096,0.064,0.196,0.117,0.302,0.159c0.769,0.377,1.492,0.168,1.986-0.311
			C50.497,77.247,50.81,76.601,50.597,75.78z"/>
		<path fill="#FFFFFF" d="M63.254,91.837c0.025-3.977-3.217-7.394-7.184-7.542V84.26h-17.35l-5.713,9.818
			c-0.459,0.807-0.688,1.568-0.701,2.254c-0.023,1.025,0.443,1.863,1.316,2.381c0.504,0.248,1.023,0.428,1.543,0.514
			c0.096,0.016,0.203,0.027,0.303,0.031l1.076,0.025h17.991c0.013,0,0.024,0.002,0.037,0.002c0.375,0,0.75,0,1.125,0
			c0.013,0,0.025-0.002,0.038-0.002h0.334v-0.017C59.989,99.07,63.228,95.817,63.254,91.837z"/>
		<g>
			<path fill="#FFFFFF" d="M92.266,30.248c-1.961,1.12-3.921,2.241-5.881,3.361l-6.926-11.893c-0.699-1.195-2.465-2.207-3.85-2.203
				l-13.334,0.051c0.494,0.408,0.939,0.947,1.328,1.604l11.088,19.125c-1.896,1.083-3.792,2.167-5.688,3.25
				c-0.005,0.003-0.008,0.007-0.013,0.009c-0.01,0.007-0.02,0.015-0.029,0.021c-0.769,0.464-0.974,1.207-0.818,1.89
				c0.072,0.663,0.477,1.278,1.314,1.507c6.094,1.662,12.188,3.323,18.281,4.984c0.985,0.269,2.035-0.328,2.304-1.313
				c1.66-6.093,3.32-12.187,4.98-18.279C95.46,30.758,93.689,29.434,92.266,30.248z"/>
			<path fill="#FFFFFF" d="M60.725,20.889c-0.879-0.529-1.838-0.541-2.721-0.039c-0.465,0.313-0.879,0.676-1.213,1.084
				c-0.061,0.074-0.125,0.162-0.178,0.246l-0.557,0.922l-9.701,16.945l0.016,0.009c-1.791,3.504-0.546,7.945,2.902,9.936
				c3.443,1.988,7.982,0.854,10.086-2.498l0.033,0.019l8.621-15.059l-5.682-9.836C61.859,21.818,61.313,21.242,60.725,20.889z"/>
		</g>
		<path fill="#FFFFFF" d="M110.297,84.684l-22.105,0.063c0.007-2.117,0.014-4.235,0.021-6.354c0.008-0.13,0.001-0.258-0.021-0.385
			c-0.078-0.791-0.573-1.294-1.188-1.5c-0.578-0.261-1.27-0.232-1.87,0.279c-0.042,0.031-0.083,0.063-0.122,0.1
			c-0.003,0.002-0.005,0.003-0.007,0.005c-4.481,4.452-8.962,8.904-13.443,13.355c-0.729,0.725-0.701,1.933,0.015,2.652
			c4.451,4.479,8.902,8.96,13.354,13.439c1.145,1.153,3.188,0.297,3.193-1.319c0.008-2.269,0.016-4.537,0.022-6.805l13.761-0.064
			c1.387-0.01,3.145-1.035,3.832-2.238l6.611-11.58C111.748,84.559,111.059,84.674,110.297,84.684z"/>
		<path fill="#FFFFFF" d="M113.033,78.4c-0.035-0.09-0.078-0.191-0.125-0.277l-0.521-0.943l-9.105-15.602
			c-0.006-0.011-0.011-0.021-0.017-0.032c-0.188-0.323-0.378-0.647-0.566-0.971c-0.007-0.011-0.015-0.021-0.021-0.031l-0.133-0.228
			l-0.012,0.007c-2.134-3.328-6.67-4.433-10.103-2.42c-3.432,2.012-4.653,6.477-2.827,9.966l-0.033,0.02l8.746,14.984l11.357-0.014
			c0.93-0.012,1.701-0.197,2.301-0.531c0.896-0.496,1.387-1.322,1.393-2.338C113.328,79.432,113.221,78.891,113.033,78.4z"/>
	</g>
</g>
</svg>
