<?xml version="1.0" encoding="utf-8"?>
<!-- Generator: Adobe Illustrator 16.0.0, SVG Export Plug-In . SVG Version: 6.00 Build 0)  -->
<!DOCTYPE svg PUBLIC "-//W3C//DTD SVG 1.1//EN" "http://www.w3.org/Graphics/SVG/1.1/DTD/svg11.dtd">
<svg version="1.1" id="Layer_1" xmlns="http://www.w3.org/2000/svg" xmlns:xlink="http://www.w3.org/1999/xlink" x="0px" y="0px"
	 width="136.602px" height="135.696px" viewBox="0 0 136.602 135.696" enable-background="new 0 0 136.602 135.696"
	 xml:space="preserve">
<g>
	<g>
		<g>
			<circle fill="#49A0AE" cx="68.301" cy="67.849" r="63.333"/>
		</g>
	</g>
	<g>
		<g>
			<path fill="#FFFFFF" d="M110.48,59.64c-7.223-7.223-14.445-14.446-21.668-21.669c-6.869-6.869-19.166-1.816-19.166,7.918
				c0,3.499,0,6.997,0,10.496c-11.647,0-23.294,0-34.942,0c-14.529,0-14.658,22.505-0.162,22.505c11.701,0,23.403,0,35.104,0
				c0,3.053,0,6.105,0,9.158c-0.058,0.694-0.042,1.383,0.043,2.063c0.32,4.83,3.224,7.929,6.854,9.284
				c3.558,1.747,7.91,1.702,11.642-1.528c0.602-0.458,1.154-0.983,1.644-1.578c6.912-6.912,13.824-13.824,20.736-20.735
				C114.915,71.203,114.797,63.957,110.48,59.64z"/>
		</g>
	</g>
</g>
</svg>
