<?xml version="1.0" encoding="utf-8"?>
<!-- Generator: Adobe Illustrator 16.0.0, SVG Export Plug-In . SVG Version: 6.00 Build 0)  -->
<!DOCTYPE svg PUBLIC "-//W3C//DTD SVG 1.1//EN" "http://www.w3.org/Graphics/SVG/1.1/DTD/svg11.dtd">
<svg version="1.1" id="Layer_1" xmlns="http://www.w3.org/2000/svg" xmlns:xlink="http://www.w3.org/1999/xlink" x="0px" y="0px"
	 width="136.913px" height="136.914px" viewBox="0 0 136.913 136.914" enable-background="new 0 0 136.913 136.914"
	 xml:space="preserve">
<g>
	<g>
		<g>
			<path fill="#357180" d="M5.124,68.458c0-34.982,28.355-63.334,63.332-63.334c34.979,0,63.334,28.353,63.334,63.334
				c0,34.976-28.355,63.333-63.334,63.333C33.479,131.791,5.124,103.434,5.124,68.458z"/>
		</g>
	</g>
	<path fill="#F7F7F7" d="M107.448,48.416c-0.64-1.242-3.752-4.087-9.002-1.503s-2.714,8.258-2.714,8.258
		c1.957,4.014,3.059,8.52,3.059,13.287c0,16.753-13.581,30.335-30.335,30.335c-16.752,0-30.334-13.582-30.334-30.335
		c0-15.681,11.896-28.579,27.152-30.169v7.861c0,0-0.021,0.47,0.466,0.766c0.487,0.297,0.975,0,0.975,0L91.88,32.087
		c0,0,0.565-0.297,0.565-0.876c0-0.479-0.565-0.819-0.565-0.819L66.799,15.648c0,0-0.572-0.409-1.081-0.211
		c-0.508,0.197-0.444,0.89-0.444,0.89v8.422c-22.721,1.632-40.651,20.568-40.651,43.709c0,24.208,19.625,43.833,43.833,43.833
		c24.209,0,43.835-19.625,43.835-43.833C112.291,61.233,110.542,54.421,107.448,48.416z"/>
</g>
</svg>
