<?xml version="1.0" encoding="utf-8"?>
<!-- Generator: Adobe Illustrator 16.0.0, SVG Export Plug-In . SVG Version: 6.00 Build 0)  -->
<!DOCTYPE svg PUBLIC "-//W3C//DTD SVG 1.1//EN" "http://www.w3.org/Graphics/SVG/1.1/DTD/svg11.dtd">
<svg version="1.1" id="Layer_1" xmlns="http://www.w3.org/2000/svg" xmlns:xlink="http://www.w3.org/1999/xlink" x="0px" y="0px"
	 width="136.913px" height="136.913px" viewBox="0 0 136.913 136.913" enable-background="new 0 0 136.913 136.913"
	 xml:space="preserve">
<g>
	<g>
		<g>
			<circle fill="#65A844" cx="68.456" cy="68.457" r="63.333"/>
		</g>
	</g>
	<g>
		<g>
			<path fill="#FFFFFF" d="M75.705,54.877c0-8.37-0.001-16.74-0.002-25.109c0-1.017-0.835-1.889-1.861-1.889
				c-8.369,0-16.737,0.001-25.105,0.002c-1.649,0-2.501,2.039-1.333,3.208c3.298,3.298,6.597,6.597,9.896,9.896
				c-5.507,5.506-11.014,11.012-16.52,16.519c-3.418,3.418,1.906,8.702,5.332,5.275c5.497-5.497,10.994-10.994,16.49-16.491
				c3.304,3.304,6.606,6.606,9.909,9.909c0.627,0.627,1.378,0.662,1.995,0.376C75.171,56.353,75.705,55.789,75.705,54.877z"/>
		</g>
		<g>
			<path fill="#FFFFFF" d="M49.945,101.801c0,1.738-1.408,3.146-3.146,3.146H34.385c-1.736,0-3.146-1.408-3.146-3.146V80.447
				c0-1.738,1.41-3.146,3.146-3.146h12.414c1.738,0,3.146,1.408,3.146,3.146V101.801z"/>
			<path fill="#FFFFFF" d="M75.945,101.801c0,1.738-1.408,3.146-3.146,3.146H60.385c-1.736,0-3.146-1.408-3.146-3.146V64.947
				c0-1.738,1.41-3.146,3.146-3.146h12.414c1.738,0,3.146,1.408,3.146,3.146V101.801z"/>
			<path fill="#FFFFFF" d="M102.611,101.801c0,1.738-1.408,3.146-3.146,3.146H87.051c-1.736,0-3.146-1.408-3.146-3.146V49.447
				c0-1.738,1.41-3.146,3.146-3.146h12.414c1.738,0,3.146,1.408,3.146,3.146V101.801z"/>
		</g>
	</g>
</g>
</svg>
