<?xml version="1.0" encoding="utf-8"?>
<!-- Generator: Adobe Illustrator 16.0.0, SVG Export Plug-In . SVG Version: 6.00 Build 0)  -->
<!DOCTYPE svg PUBLIC "-//W3C//DTD SVG 1.1//EN" "http://www.w3.org/Graphics/SVG/1.1/DTD/svg11.dtd">
<svg version="1.1" id="Layer_1" xmlns="http://www.w3.org/2000/svg" xmlns:xlink="http://www.w3.org/1999/xlink" x="0px" y="0px"
	 width="136.913px" height="136.914px" viewBox="0 0 136.913 136.914" enable-background="new 0 0 136.913 136.914"
	 xml:space="preserve">
<g>
	<g>
		<g>
			<path fill="#344E5D" d="M5.123,68.458c0-34.981,28.355-63.333,63.332-63.333c34.979,0,63.334,28.353,63.334,63.333
				c0,34.976-28.355,63.332-63.334,63.332C33.479,131.789,5.123,103.434,5.123,68.458z"/>
		</g>
	</g>
	<path fill="#FFFFFF" d="M114.451,49.072c-2.642,0.006-5.283,0.013-7.925,0.02c-5.941-13.321-17.603-22.943-32.333-25.251
		c-16.412-2.571-32.12,5.051-41.486,18.461c-4.16,5.955,5.617,11.531,9.742,5.625c12.846-18.391,40.274-16.729,51.546,1.196
		c-2.44,0.006-4.881,0.012-7.321,0.018c-0.683,0.001-1.168,0.306-1.468,0.734c-0.49,0.526-0.677,1.294-0.163,2.09
		c4.647,7.211,9.295,14.423,13.943,21.634c0.781,1.212,2.467,1.202,3.241-0.012c4.611-7.234,9.223-14.468,13.834-21.703
		C116.824,50.688,115.819,49.069,114.451,49.072z"/>
</g>
<path fill="#FFFFFF" d="M94.566,88.662c-12.746,18.251-39.854,16.755-51.285-0.778c2.339-0.006,4.678-0.012,7.017-0.018
	c0.681-0.002,1.165-0.304,1.466-0.731c0.491-0.525,0.679-1.295,0.165-2.093c-4.646-7.211-9.294-14.424-13.941-21.634
	c-0.78-1.212-2.467-1.202-3.241,0.012c-4.611,7.234-9.224,14.468-13.836,21.703c-0.763,1.197,0.242,2.816,1.61,2.813
	c2.724-0.007,5.447-0.014,8.171-0.021c5.999,13.102,17.559,22.551,32.133,24.834c16.412,2.571,32.12-5.051,41.484-18.461
	C108.468,88.331,98.69,82.756,94.566,88.662z"/>
</svg>
