<?xml version="1.0" encoding="utf-8"?>
<!-- Generator: Adobe Illustrator 16.0.0, SVG Export Plug-In . SVG Version: 6.00 Build 0)  -->
<!DOCTYPE svg PUBLIC "-//W3C//DTD SVG 1.1//EN" "http://www.w3.org/Graphics/SVG/1.1/DTD/svg11.dtd">
<svg version="1.1" id="Layer_1" xmlns="http://www.w3.org/2000/svg" xmlns:xlink="http://www.w3.org/1999/xlink" x="0px" y="0px"
	 width="136.914px" height="136.914px" viewBox="0 0 136.914 136.914" enable-background="new 0 0 136.914 136.914"
	 xml:space="preserve">
<g>
	<g>
		<g>
			<circle fill="#4ABC96" cx="68.457" cy="68.457" r="63.333"/>
		</g>
	</g>
	<g>
		<g>
			<path fill="#FFFFFF" d="M95.639,60.743c-11.629,0-23.258,0-34.886,0c2.963-2.963,5.926-5.926,8.889-8.89
				c6.835-6.835-3.813-17.404-10.665-10.551c-7.223,7.223-14.445,14.446-21.668,21.669c-2.899,2.899-2.821,7.73,0.057,10.608
				c7.223,7.222,14.445,14.445,21.668,21.667c6.835,6.835,17.404-3.813,10.551-10.665c-2.945-2.945-5.89-5.89-8.835-8.834
				c11.594,0,23.188,0,34.781,0C105.217,75.747,105.303,60.743,95.639,60.743z"/>
		</g>
	</g>
</g>
</svg>
