<?xml version="1.0" encoding="utf-8"?>
<!-- Generator: Adobe Illustrator 16.0.0, SVG Export Plug-In . SVG Version: 6.00 Build 0)  -->
<!DOCTYPE svg PUBLIC "-//W3C//DTD SVG 1.1//EN" "http://www.w3.org/Graphics/SVG/1.1/DTD/svg11.dtd">
<svg version="1.1" id="Layer_1" xmlns="http://www.w3.org/2000/svg" xmlns:xlink="http://www.w3.org/1999/xlink" x="0px" y="0px"
	 width="136.913px" height="136.913px" viewBox="0 0 136.913 136.913" enable-background="new 0 0 136.913 136.913"
	 xml:space="preserve">
<g>
	<g>
		<g>
			<path fill="#344E5D" d="M131.789,68.458c0-34.982-28.355-63.334-63.332-63.334c-34.979,0-63.334,28.352-63.334,63.334
				c0,34.975,28.355,63.332,63.334,63.332C103.434,131.79,131.789,103.433,131.789,68.458z"/>
		</g>
	</g>
	<g>
		<path fill="#FFFFFF" d="M93.768,87.209c-3.212,3.964-7.846,3.078-12.413,3.078c-6.563,0-13.124,0-19.687,0
			c-4.055,0-8.109,0-12.164,0c-5.718,0-6.397-5.353-6.334-10.267c2.589,0,5.179,0,7.768,0c0.69,0,1.179-0.31,1.479-0.745
			c0.48-0.525,0.658-1.289,0.152-2.079c-3.807-5.939-7.613-11.878-11.42-17.816c-0.779-1.217-2.466-1.197-3.241,0.012
			c-3.807,5.938-7.613,11.878-11.42,17.816c-0.768,1.198,0.245,2.813,1.61,2.813c2.552,0,5.104,0,7.656,0
			c-0.032,5.779,0.512,11.647,5.785,15.209c4.924,3.326,10.888,2.56,16.534,2.56c7.742,0,15.484,0,23.228,0
			c6.642,0,13.105,0.488,17.799-5.305C102.112,88.766,96.818,83.443,93.768,87.209z"/>
		<path fill="#FFFFFF" d="M109.363,55.515c-2.523,0-5.048,0-7.572,0c0.033-5.779-0.512-11.647-5.785-15.209
			c-4.924-3.326-10.888-2.56-16.534-2.56c-7.742,0-15.484,0-23.228,0c-6.642,0-13.105-0.488-17.799,5.305
			c-3.013,3.719,2.282,9.041,5.332,5.275c3.212-3.964,7.846-3.078,12.413-3.078c6.563,0,13.124,0,19.687,0c4.055,0,8.109,0,12.164,0
			c5.718,0,6.396,5.353,6.334,10.267c-2.617,0-5.234,0-7.852,0c-0.69,0-1.179,0.31-1.479,0.745c-0.48,0.525-0.659,1.289-0.152,2.079
			c3.807,5.939,7.613,11.878,11.42,17.816c0.779,1.217,2.466,1.197,3.241-0.012c3.807-5.938,7.613-11.878,11.42-17.816
			C111.741,57.129,110.729,55.515,109.363,55.515z"/>
	</g>
</g>
</svg>
