<?xml version="1.0" encoding="utf-8"?>
<!-- Generator: Adobe Illustrator 16.0.0, SVG Export Plug-In . SVG Version: 6.00 Build 0)  -->
<!DOCTYPE svg PUBLIC "-//W3C//DTD SVG 1.1//EN" "http://www.w3.org/Graphics/SVG/1.1/DTD/svg11.dtd">
<svg version="1.1" id="Layer_1" xmlns="http://www.w3.org/2000/svg" xmlns:xlink="http://www.w3.org/1999/xlink" x="0px" y="0px"
	 width="136.914px" height="136.914px" viewBox="0 0 136.914 136.914" enable-background="new 0 0 136.914 136.914"
	 xml:space="preserve">
<g>
	<g>
		<g>
			<circle fill="#EDC92C" cx="68.457" cy="68.457" r="63.333"/>
		</g>
	</g>
	<path fill="#FFFFFF" d="M118.589,62.915c-12.744-11.865-25.488-23.73-38.232-35.596c-7.061-6.573-17.653,4.053-10.552,10.665
		c8.156,7.593,16.311,15.186,24.467,22.779c-0.136-0.006-0.266-0.02-0.406-0.02c-22.222,0-44.444,0-66.666,0
		c-9.687,0-9.772,15.004-0.108,15.004c22.222,0,44.444,0,66.666,0c0.182,0,0.354-0.016,0.528-0.026
		c-8.179,7.614-16.358,15.229-24.538,22.843c-7.082,6.593,3.59,17.138,10.665,10.552c12.744-11.864,25.489-23.729,38.233-35.593
		C121.572,70.799,121.49,65.616,118.589,62.915z"/>
</g>
</svg>
