<?xml version="1.0" encoding="utf-8"?>
<!-- Generator: Adobe Illustrator 16.0.0, SVG Export Plug-In . SVG Version: 6.00 Build 0)  -->
<!DOCTYPE svg PUBLIC "-//W3C//DTD SVG 1.1//EN" "http://www.w3.org/Graphics/SVG/1.1/DTD/svg11.dtd">
<svg version="1.1" id="Layer_1" xmlns="http://www.w3.org/2000/svg" xmlns:xlink="http://www.w3.org/1999/xlink" x="0px" y="0px"
	 width="136.913px" height="136.914px" viewBox="0 0 136.913 136.914" enable-background="new 0 0 136.913 136.914"
	 xml:space="preserve">
<g>
	<g>
		<g>
			<circle fill="#65A844" cx="68.457" cy="68.457" r="63.333"/>
		</g>
	</g>
	<g>
		<path fill="#FFFFFF" d="M110.025,60.744c-20.268,0-40.534,0-60.803,0c0-4.713,0-9.426,0-14.139c0-3.297-4.08-5.002-6.417-2.665
			c-7.223,7.223-14.445,14.446-21.668,21.669c-1.45,1.45-1.411,3.865,0.028,5.304c7.223,7.222,14.445,14.444,21.668,21.667
			c1.255,1.255,2.76,1.325,3.994,0.749c0.025-0.008,0.05-0.02,0.074-0.028c0.003-0.001,0.006-0.002,0.009-0.004
			c1.288-0.459,2.312-1.573,2.312-3.356c0-4.731,0-9.463,0-14.194c20.231,0,40.463,0,60.695,0
			C119.604,75.747,119.689,60.744,110.025,60.744z"/>
	</g>
</g>
</svg>
