<?xml version="1.0" encoding="utf-8"?>
<!-- Generator: Adobe Illustrator 16.0.0, SVG Export Plug-In . SVG Version: 6.00 Build 0)  -->
<!DOCTYPE svg PUBLIC "-//W3C//DTD SVG 1.1//EN" "http://www.w3.org/Graphics/SVG/1.1/DTD/svg11.dtd">
<svg version="1.1" id="Layer_1" xmlns="http://www.w3.org/2000/svg" xmlns:xlink="http://www.w3.org/1999/xlink" x="0px" y="0px"
	 width="136.913px" height="136.914px" viewBox="0 0 136.913 136.914" enable-background="new 0 0 136.913 136.914"
	 xml:space="preserve">
<g>
	<g>
		<g>
			<circle fill="#65A844" cx="68.457" cy="68.457" r="63.333"/>
		</g>
	</g>
	<g>
		<path fill="#FFFFFF" d="M115.967,65.581c-7.223-7.223-14.445-14.446-21.668-21.669c-2.29-2.29-6.389-0.605-6.389,2.64
			c0,4.731,0,9.461,0,14.192c-20.231,0-40.463,0-60.695,0c-9.686,0-9.771,15.003-0.107,15.003c20.268,0,40.534,0,60.803,0
			c0,4.693,0,9.387,0,14.08c0.003,0.146,0.016,0.289,0.037,0.433c0.135,1.551,1.065,2.559,2.244,3.005
			c1.167,0.581,2.589,0.565,3.823-0.457c0.165-0.119,0.316-0.253,0.458-0.401c7.174-7.174,14.349-14.347,21.522-21.521
			C117.445,69.435,117.406,67.02,115.967,65.581z"/>
	</g>
</g>
</svg>
