<?xml version="1.0" encoding="utf-8"?>
<!-- Generator: Adobe Illustrator 16.0.0, SVG Export Plug-In . SVG Version: 6.00 Build 0)  -->
<!DOCTYPE svg PUBLIC "-//W3C//DTD SVG 1.1//EN" "http://www.w3.org/Graphics/SVG/1.1/DTD/svg11.dtd">
<svg version="1.1" id="Layer_1" xmlns="http://www.w3.org/2000/svg" xmlns:xlink="http://www.w3.org/1999/xlink" x="0px" y="0px"
	 width="136.913px" height="136.914px" viewBox="0 0 136.913 136.914" enable-background="new 0 0 136.913 136.914"
	 xml:space="preserve">
<g>
	<g>
		<g>
			<g>
				<path fill="#344E5D" d="M131.789,68.458c0-34.981-28.355-63.333-63.332-63.333c-34.979,0-63.334,28.353-63.334,63.333
					c0,34.976,28.355,63.331,63.334,63.331C103.434,131.789,131.789,103.434,131.789,68.458z"/>
			</g>
		</g>
		<path fill="#FFFFFF" d="M115.951,84.691c-4.611-7.234-9.224-14.469-13.836-21.702c-0.778-1.222-2.465-1.192-3.241,0.012
			c-4.646,7.211-9.294,14.423-13.941,21.634c-0.503,0.78-0.333,1.533,0.139,2.054c0.292,0.442,0.778,0.757,1.472,0.759
			c2.447,0.006,4.894,0.012,7.34,0.018c-11.29,17.938-38.693,19.582-51.556,1.161c-4.12-5.899-13.868-0.266-9.705,5.697
			c9.082,13.005,23.999,20.45,39.94,18.625c15.339-1.757,27.719-11.676,33.866-25.452c2.63,0.007,5.261,0.013,7.892,0.02
			C115.707,87.52,116.731,85.914,115.951,84.691z"/>
	</g>
	<path fill="#FFFFFF" d="M104.187,42.267c-9.084-13.005-24-20.451-39.942-18.625c-15.492,1.773-27.957,11.881-34.038,25.875
		c-3.271-0.008-6.545-0.016-9.816-0.024c-1.387-0.004-2.412,1.601-1.631,2.824c4.611,7.234,9.223,14.469,13.834,21.703
		c0.779,1.221,2.465,1.191,3.242-0.012c4.646-7.212,9.295-14.423,13.941-21.634c0.502-0.78,0.333-1.532-0.137-2.053
		c-0.292-0.442-0.778-0.758-1.473-0.76c-1.831-0.004-3.662-0.009-5.494-0.013c11.124-18.331,38.846-20.142,51.809-1.583
		C98.602,53.862,108.351,48.229,104.187,42.267z"/>
</g>
</svg>
