<?xml version="1.0" encoding="utf-8"?>
<!-- Generator: Adobe Illustrator 16.0.0, SVG Export Plug-In . SVG Version: 6.00 Build 0)  -->
<!DOCTYPE svg PUBLIC "-//W3C//DTD SVG 1.1//EN" "http://www.w3.org/Graphics/SVG/1.1/DTD/svg11.dtd">
<svg version="1.1" id="Layer_1" xmlns="http://www.w3.org/2000/svg" xmlns:xlink="http://www.w3.org/1999/xlink" x="0px" y="0px"
	 width="136.914px" height="136.913px" viewBox="0 0 136.914 136.913" enable-background="new 0 0 136.914 136.913"
	 xml:space="preserve">
<g>
	<g>
		<g>
			<circle fill="#1FA85B" cx="73.58" cy="68.457" r="63.333"/>
		</g>
	</g>
	<g>
		<g>
			<g>
				<path fill="#FFFFFF" d="M117.188,84.07c-0.036-0.031-0.074-0.06-0.111-0.089c-0.023-0.016-0.039-0.034-0.063-0.05
					c-0.034-0.021-0.067-0.044-0.101-0.065c-0.016-0.01-0.03-0.021-0.047-0.03c-5.869-3.802-11.738-7.604-17.607-11.406
					c-1.196-0.774-2.813,0.251-2.813,1.61c0,2.644,0,5.287,0,7.931c-4.262,0-8.523,0-12.784,0
					c-6.23-10.87-12.46-21.739-18.689-32.608c-0.644-1.123-1.914-1.855-3.208-1.853c-10.611,0.028-21.222,0.056-31.833,0.084
					c-4.842,0.013-4.886,7.515-0.054,7.502c9.896-0.026,19.793-0.052,29.689-0.078c6.229,10.868,12.458,21.735,18.686,32.603
					c0.256,0.446,0.564,0.785,0.897,1.06c0.042,0.035,0.077,0.076,0.12,0.108c0.162,0.121,0.332,0.215,0.504,0.301
					c0.041,0.021,0.075,0.047,0.118,0.066c0.196,0.087,0.397,0.148,0.602,0.195c0.299,0.073,0.616,0.122,0.967,0.122
					c4.995,0,9.99,0,14.984,0c0,2.524,0,5.049,0,7.573c0,1.378,1.603,2.423,2.825,1.631c5.856-3.794,11.712-7.588,17.568-11.383
					c0.062-0.033,0.119-0.073,0.176-0.114c0.003-0.002,0.007-0.005,0.01-0.007c0.003-0.002,0.005-0.005,0.008-0.007
					c0.059-0.043,0.117-0.086,0.171-0.136c0.507-0.412,0.709-0.961,0.68-1.502C117.896,85,117.683,84.471,117.188,84.07z"/>
				<path fill="#FFFFFF" d="M61.915,77.935c-0.778,1.343-1.557,2.686-2.335,4.028c-9.883-0.026-19.766-0.052-29.649-0.078
					c-4.844-0.013-4.885,7.489-0.054,7.502c10.611,0.028,21.222,0.056,31.833,0.084c1.342,0.004,2.602-0.715,3.274-1.876
					c1.142-1.97,2.284-3.94,3.426-5.91C70.838,77.496,64.342,73.747,61.915,77.935z"/>
				<path fill="#FFFFFF" d="M117.186,49.94c-0.034-0.03-0.069-0.057-0.105-0.084c-0.024-0.017-0.042-0.037-0.067-0.054
					c-0.036-0.023-0.072-0.047-0.109-0.07c-0.012-0.008-0.024-0.017-0.037-0.024c-5.87-3.802-11.739-7.605-17.609-11.409
					c-1.196-0.774-2.813,0.251-2.813,1.61c0,2.533,0,5.067,0,7.601c-4.977,0-9.954,0-14.931,0c-0.087,0-0.161,0.02-0.245,0.024
					c-0.033,0.002-0.065,0.007-0.099,0.01c-0.782,0.063-1.432,0.316-1.937,0.717c-0.4,0.293-0.744,0.669-0.995,1.125
					c-1.121,2.036-2.242,4.071-3.362,6.107c-0.985,1.789-0.424,4.085,1.373,5.123c1.743,1.006,4.137,0.417,5.123-1.373
					c0.776-1.411,1.553-2.821,2.33-4.231c4.248,0,8.495,0,12.743,0c0,2.635,0,5.269,0,7.903c0,1.378,1.603,2.423,2.825,1.631
					c5.856-3.794,11.712-7.587,17.568-11.381c0.062-0.033,0.119-0.073,0.177-0.114c0.003-0.002,0.007-0.005,0.01-0.007
					c0.003-0.002,0.005-0.005,0.008-0.007c0.059-0.043,0.117-0.086,0.171-0.136c0.507-0.412,0.709-0.96,0.68-1.502
					C117.896,50.871,117.683,50.34,117.186,49.94z"/>
			</g>
		</g>
	</g>
</g>
</svg>
