<?xml version="1.0" encoding="utf-8"?>
<!-- Generator: Adobe Illustrator 16.0.0, SVG Export Plug-In . SVG Version: 6.00 Build 0)  -->
<!DOCTYPE svg PUBLIC "-//W3C//DTD SVG 1.1//EN" "http://www.w3.org/Graphics/SVG/1.1/DTD/svg11.dtd">
<svg version="1.1" id="Layer_1" xmlns="http://www.w3.org/2000/svg" xmlns:xlink="http://www.w3.org/1999/xlink" x="0px" y="0px"
	 width="136.914px" height="136.914px" viewBox="0 0 136.914 136.914" enable-background="new 0 0 136.914 136.914"
	 xml:space="preserve">
<g>
	<g>
		<g>
			<circle fill="#49A0AE" cx="68.457" cy="68.457" r="63.333"/>
		</g>
	</g>
	<g>
		<path fill="#FFFFFF" d="M107.998,62.915c-7.223-7.223-14.445-14.446-21.668-21.669c-6.835-6.836-17.403,3.813-10.551,10.665
			c2.944,2.944,5.888,5.888,8.832,8.833c-16.593,0-33.186,0-49.778,0c-9.687,0-9.772,15.004-0.108,15.004c16.63,0,33.259,0,49.889,0
			c-2.964,2.964-5.928,5.928-8.892,8.892c-6.836,6.835,3.813,17.403,10.665,10.551c7.223-7.222,14.445-14.444,21.668-21.667
			C110.955,70.623,110.876,65.792,107.998,62.915z"/>
	</g>
</g>
</svg>
