<?xml version="1.0" encoding="utf-8"?>
<!-- Generator: Adobe Illustrator 16.0.0, SVG Export Plug-In . SVG Version: 6.00 Build 0)  -->
<!DOCTYPE svg PUBLIC "-//W3C//DTD SVG 1.1//EN" "http://www.w3.org/Graphics/SVG/1.1/DTD/svg11.dtd">
<svg version="1.1" id="Layer_1" xmlns="http://www.w3.org/2000/svg" xmlns:xlink="http://www.w3.org/1999/xlink" x="0px" y="0px"
	 width="136.913px" height="136.913px" viewBox="0 0 136.913 136.913" enable-background="new 0 0 136.913 136.913"
	 xml:space="preserve">
<g>
	<g>
		<g>
			<path fill="#49A0AE" d="M131.789,68.458c0-34.982-28.355-63.334-63.332-63.334c-34.979,0-63.334,28.352-63.334,63.334
				c0,34.975,28.355,63.332,63.334,63.332C103.434,131.79,131.789,103.433,131.789,68.458z"/>
		</g>
	</g>
	<g>
		<path fill="#FFFFFF" d="M103.182,78.267c-4.611-7.234-9.223-14.468-13.834-21.701c-0.778-1.222-2.465-1.192-3.241,0.012
			C81.459,63.789,76.812,71,72.163,78.212c-0.503,0.78-0.333,1.532,0.138,2.053c0.292,0.442,0.778,0.759,1.473,0.76
			c3.378,0.008,6.756,0.016,10.135,0.024c-1.306,5.854-3.813,11.379-8.109,15.738c-7.795,7.911-17.367,2.609-22.313-5.481
			c-2.516-4.118-8.997-0.34-6.469,3.797c6.47,10.586,18.042,17.019,29.756,10.356c8.545-4.86,12.938-14.644,14.76-24.393
			c3.34,0.009,6.679,0.017,10.018,0.024C102.938,81.095,103.962,79.49,103.182,78.267z"/>
		<path fill="#FFFFFF" d="M89.779,41.415c-6.472-10.586-18.042-17.021-29.758-10.357c-8.546,4.859-12.938,14.644-14.76,24.392
			c-3.339-0.008-6.679-0.017-10.018-0.024c-1.387-0.004-2.411,1.601-1.631,2.824c4.611,7.234,9.223,14.469,13.834,21.703
			c0.778,1.222,2.465,1.192,3.241-0.012c4.647-7.212,9.295-14.423,13.943-21.635c0.503-0.78,0.333-1.533-0.139-2.054
			c-0.292-0.442-0.778-0.757-1.472-0.759c-3.378-0.009-6.756-0.017-10.135-0.025c1.306-5.854,3.813-11.379,8.109-15.738
			c7.796-7.912,17.367-2.607,22.314,5.482C85.827,49.329,92.309,45.551,89.779,41.415z"/>
	</g>
</g>
</svg>
