<?xml version="1.0" encoding="utf-8"?>
<!-- Generator: Adobe Illustrator 16.0.0, SVG Export Plug-In . SVG Version: 6.00 Build 0)  -->
<!DOCTYPE svg PUBLIC "-//W3C//DTD SVG 1.1//EN" "http://www.w3.org/Graphics/SVG/1.1/DTD/svg11.dtd">
<svg version="1.1" id="Layer_1" xmlns="http://www.w3.org/2000/svg" xmlns:xlink="http://www.w3.org/1999/xlink" x="0px" y="0px"
	 width="136.913px" height="136.914px" viewBox="0 0 136.913 136.914" enable-background="new 0 0 136.913 136.914"
	 xml:space="preserve">
<g>
	<g>
		<g>
			<path fill="#357180" d="M5.123,68.458c0-34.981,28.355-63.333,63.332-63.333c34.979,0,63.334,28.353,63.334,63.333
				c0,34.976-28.355,63.332-63.334,63.332C33.479,131.789,5.123,103.434,5.123,68.458z"/>
		</g>
	</g>
	<g>
		<g>
			<path fill="#FFFFFF" d="M99.854,69.757c-0.135-1.549-1.065-2.556-2.242-3.003c-1.167-0.582-2.589-0.567-3.824,0.455
				c-0.167,0.121-0.32,0.257-0.464,0.407c-1.498,1.498-2.996,2.997-4.494,4.495c-5.339-5.339-10.679-10.678-16.018-16.018
				c-1.323-1.323-2.832-1.768-4.256-1.618c-1.257,0.019-2.55,0.511-3.7,1.661c-2.252,2.251-4.504,4.503-6.756,6.754
				c-4.591-4.59-9.182-9.181-13.772-13.772c-5.127-5.126-13.053,2.859-7.914,7.999c5.91,5.909,11.819,11.818,17.729,17.728
				c1.322,1.322,2.83,1.768,4.252,1.619c1.258-0.019,2.553-0.51,3.704-1.661c2.253-2.252,4.504-4.503,6.756-6.755
				c4.007,4.007,8.013,8.013,12.02,12.019c-1.558,1.558-3.115,3.115-4.673,4.673c-2.29,2.29-0.605,6.389,2.639,6.389
				c5.758,0,11.516,0,17.273,0c2.033,0,3.778-1.671,3.778-3.724c0-5.738,0-11.476,0-17.214
				C99.889,70.045,99.876,69.901,99.854,69.757z"/>
		</g>
	</g>
</g>
</svg>
