<?xml version="1.0" encoding="utf-8"?>
<!-- Generator: Adobe Illustrator 16.0.0, SVG Export Plug-In . SVG Version: 6.00 Build 0)  -->
<!DOCTYPE svg PUBLIC "-//W3C//DTD SVG 1.1//EN" "http://www.w3.org/Graphics/SVG/1.1/DTD/svg11.dtd">
<svg version="1.1" id="Layer_1" xmlns="http://www.w3.org/2000/svg" xmlns:xlink="http://www.w3.org/1999/xlink" x="0px" y="0px"
	 width="136.914px" height="136.913px" viewBox="0 0 136.914 136.913" enable-background="new 0 0 136.914 136.913"
	 xml:space="preserve">
<g>
	<g>
		<g>
			<circle fill="#E79E2D" cx="68.457" cy="68.457" r="63.333"/>
		</g>
	</g>
	<g>
		<g>
			<path fill="#FFFFFF" d="M108.062,64.957c-4.307-4.307-8.614-8.612-12.921-12.918c-2.735-2.734-6.962,1.525-4.221,4.266
				c2.596,2.596,5.192,5.19,7.788,7.786c-8.796,0-17.592,0-26.388,0c-0.007,0-0.013-0.002-0.02-0.002c-0.192,0-0.385,0-0.578,0
				c0-8.995,0-17.989,0-26.984c2.603,2.603,5.206,5.205,7.808,7.808c2.734,2.734,6.962-1.525,4.221-4.266
				c-4.307-4.307-8.614-8.613-12.921-12.92c-1.16-1.16-3.092-1.129-4.243,0.022c-4.306,4.307-8.612,8.613-12.918,12.92
				c-2.734,2.734,1.525,6.962,4.266,4.221c2.596-2.596,5.191-5.191,7.787-7.788c0,8.996,0,17.991,0,26.987
				c-8.996,0-17.991,0-26.987,0c2.603-2.603,5.205-5.205,7.808-7.809c2.734-2.734-1.525-6.962-4.266-4.221
				c-4.307,4.308-8.613,8.614-12.92,12.922c-1.16,1.16-1.129,3.092,0.022,4.243c4.307,4.307,8.614,8.612,12.921,12.918
				c2.735,2.734,6.962-1.525,4.221-4.266c-2.596-2.596-5.192-5.19-7.788-7.786c8.996,0,17.991,0,26.987,0c0,8.995,0,17.989,0,26.984
				c-2.603-2.603-5.206-5.205-7.809-7.808c-2.734-2.734-6.962,1.525-4.221,4.266c4.308,4.307,8.615,8.613,12.922,12.92
				c1.16,1.16,3.092,1.129,4.243-0.022c4.306-4.307,8.612-8.613,12.918-12.92c2.734-2.734-1.525-6.962-4.266-4.221
				c-2.596,2.596-5.191,5.191-7.787,7.788c0-8.995,0-17.99,0-26.985c8.995,0,17.989,0,26.984,0
				c-2.602,2.603-5.205,5.204-7.807,7.807c-2.734,2.734,1.525,6.962,4.266,4.221c4.307-4.307,8.613-8.613,12.92-12.92
				C109.244,68.04,109.213,66.107,108.062,64.957z"/>
		</g>
	</g>
</g>
</svg>
