<?xml version="1.0" encoding="utf-8"?>
<!-- Generator: Adobe Illustrator 16.0.0, SVG Export Plug-In . SVG Version: 6.00 Build 0)  -->
<!DOCTYPE svg PUBLIC "-//W3C//DTD SVG 1.1//EN" "http://www.w3.org/Graphics/SVG/1.1/DTD/svg11.dtd">
<svg version="1.1" id="Layer_1" xmlns="http://www.w3.org/2000/svg" xmlns:xlink="http://www.w3.org/1999/xlink" x="0px" y="0px"
	 width="136.913px" height="136.914px" viewBox="0 0 136.913 136.914" enable-background="new 0 0 136.913 136.914"
	 xml:space="preserve">
<g>
	<g>
		<g>
			<circle fill="#65A844" cx="68" cy="69.365" r="63.333"/>
		</g>
	</g>
	<path fill="#FFFFFF" d="M109.568,61.651c-22.703,0-45.406,0-68.11,0c2.964-2.963,5.927-5.927,8.89-8.89
		c6.835-6.836-3.813-17.404-10.666-10.552c-7.223,7.223-14.445,14.446-21.668,21.669c-2.899,2.9-2.82,7.73,0.058,10.608
		c7.223,7.222,14.445,14.445,21.668,21.667c6.836,6.835,17.403-3.813,10.551-10.665c-2.945-2.945-5.891-5.89-8.835-8.835
		c22.668,0,45.337,0,68.006,0C119.146,76.654,119.232,61.651,109.568,61.651z"/>
</g>
</svg>
