<?xml version="1.0" encoding="utf-8"?>
<!-- Generator: Adobe Illustrator 16.0.0, SVG Export Plug-In . SVG Version: 6.00 Build 0)  -->
<!DOCTYPE svg PUBLIC "-//W3C//DTD SVG 1.1//EN" "http://www.w3.org/Graphics/SVG/1.1/DTD/svg11.dtd">
<svg version="1.1" id="Layer_1" xmlns="http://www.w3.org/2000/svg" xmlns:xlink="http://www.w3.org/1999/xlink" x="0px" y="0px"
	 width="136.914px" height="136.914px" viewBox="0 0 136.914 136.914" enable-background="new 0 0 136.914 136.914"
	 xml:space="preserve">
<g>
	<g>
		<g>
			<circle fill="#49A0AE" cx="68.457" cy="68.457" r="63.333"/>
		</g>
	</g>
	<g>
		<g>
			<path fill="#FFFFFF" d="M104.114,56.993c-11.701,0-23.403,0-35.104,0c0-3.444,0-6.889,0-10.333
				c0-9.893-12.24-15.006-19.251-7.995c-7.223,7.223-14.445,14.446-21.668,21.669c-4.349,4.35-4.231,11.595,0.085,15.913
				c7.223,7.222,14.445,14.444,21.668,21.667c3.79,3.79,8.342,3.99,12.06,2.227c3.949-1.338,7.106-4.715,7.106-10.145
				c0-3.499,0-6.999,0-10.498c11.647,0,23.294,0,34.942,0C118.481,79.498,118.609,56.993,104.114,56.993z"/>
		</g>
	</g>
</g>
</svg>
