<?xml version="1.0" encoding="utf-8"?>
<!-- Generator: Adobe Illustrator 16.0.0, SVG Export Plug-In . SVG Version: 6.00 Build 0)  -->
<!DOCTYPE svg PUBLIC "-//W3C//DTD SVG 1.1//EN" "http://www.w3.org/Graphics/SVG/1.1/DTD/svg11.dtd">
<svg version="1.1" id="Layer_1" xmlns="http://www.w3.org/2000/svg" xmlns:xlink="http://www.w3.org/1999/xlink" x="0px" y="0px"
	 width="136.914px" height="136.914px" viewBox="0 0 136.914 136.914" enable-background="new 0 0 136.914 136.914"
	 xml:space="preserve">
<g>
	<g>
		<g>
			<circle fill="#4ABC96" cx="68.457" cy="68.457" r="63.333"/>
		</g>
	</g>
	<g>
		<g>
			<path fill="#FFFFFF" d="M95.666,56.993c-6.927,0-13.854,0-20.781,0c-1.113,0-2.13,0.146-3.074,0.389c0-3.583,0-7.166,0-10.75
				c0-6.596-8.16-10.004-12.834-5.33c-7.223,7.223-14.445,14.446-21.668,21.669c-2.899,2.899-2.821,7.73,0.057,10.608
				c7.223,7.222,14.445,14.445,21.668,21.667c2.526,2.526,5.561,2.66,8.039,1.485c2.633-0.892,4.739-3.143,4.739-6.763
				c0-3.607,0-7.213,0-10.82c0.897,0.219,1.861,0.35,2.912,0.35c6.927,0,13.854,0,20.781,0
				C110.033,79.498,110.162,56.993,95.666,56.993z"/>
		</g>
	</g>
</g>
</svg>
