<?xml version="1.0" encoding="utf-8"?>
<!-- Generator: Adobe Illustrator 16.0.0, SVG Export Plug-In . SVG Version: 6.00 Build 0)  -->
<!DOCTYPE svg PUBLIC "-//W3C//DTD SVG 1.1//EN" "http://www.w3.org/Graphics/SVG/1.1/DTD/svg11.dtd">
<svg version="1.1" id="Layer_1" xmlns="http://www.w3.org/2000/svg" xmlns:xlink="http://www.w3.org/1999/xlink" x="0px" y="0px"
	 width="136.913px" height="136.913px" viewBox="0 0 136.913 136.913" enable-background="new 0 0 136.913 136.913"
	 xml:space="preserve">
<g>
	<g>
		<g>
			<circle fill="#E79E2D" cx="68.457" cy="68.457" r="63.333"/>
		</g>
	</g>
	<g>
		<g>
			<g>
				<path fill="#FFFFFF" d="M60.163,37.765c-6.091,0-12.183,0-18.273,0c-1.626,0-3.022,1.337-3.022,2.979
					c0.001,6.09,0.002,12.181,0.002,18.271c0.001,3.874,6.002,3.908,6.002,0.043c-0.001-3.684-0.001-7.367-0.001-11.051
					c4.315,4.315,8.631,8.631,12.946,12.945c2.734,2.734,6.962-1.525,4.221-4.266c-4.308-4.308-8.615-8.614-12.922-12.921
					c3.668,0,7.337,0,11.005,0C63.994,43.767,64.028,37.765,60.163,37.765z"/>
				<path fill="#FFFFFF" d="M91.52,75.125c0.001,3.684,0.001,7.366,0.001,11.05c-4.315-4.315-8.631-8.631-12.946-12.946
					c-2.734-2.734-6.962,1.524-4.221,4.266c4.308,4.308,8.614,8.614,12.922,12.922c-3.669,0-7.337,0.001-11.005,0.001
					c-3.874,0.001-3.908,6.002-0.043,6.002c6.091-0.001,12.183-0.002,18.273-0.002c1.626-0.001,3.022-1.337,3.022-2.979
					c-0.001-6.09-0.002-12.18-0.002-18.27C97.521,71.294,91.52,71.26,91.52,75.125z"/>
				<path fill="#FFFFFF" d="M76.229,43.769c3.684-0.001,7.366-0.001,11.05-0.001c-4.315,4.314-8.631,8.63-12.946,12.944
					c-2.734,2.734,1.524,6.962,4.266,4.221c4.308-4.307,8.614-8.613,12.922-12.92c0,3.667,0.001,7.335,0.001,11.003
					c0.001,3.874,6.002,3.908,6.002,0.043c-0.001-6.09-0.002-12.181-0.002-18.271c0-1.626-1.337-3.022-2.979-3.022
					c-6.09,0.001-12.18,0.002-18.27,0.002C72.398,37.768,72.364,43.769,76.229,43.769z"/>
				<path fill="#FFFFFF" d="M60.163,90.415c-3.684,0.001-7.367,0.001-11.05,0.001c4.314-4.314,8.63-8.63,12.944-12.944
					c2.734-2.734-1.524-6.962-4.266-4.221c-4.308,4.307-8.614,8.614-12.921,12.921c0-3.668,0-7.336,0-11.004
					c0-3.874-6.002-3.908-6.002-0.043c0,6.09,0,12.181,0,18.271c0,1.626,1.337,3.022,2.979,3.022
					c6.091-0.001,12.181-0.002,18.271-0.002C63.994,96.416,64.028,90.415,60.163,90.415z"/>
			</g>
		</g>
	</g>
	<path fill="#FFFFFF" d="M109.859,31.422c-2.091-5.848-6.635-6.62-12.012-6.62c-14.478,0-28.956,0-43.435,0
		c-5.542,0-11.084,0-16.627,0c-5.514,0-9.8,2.128-10.842,7.766c-0.084,0.279-0.145,0.577-0.145,0.917c-0.03,0.261-0.025,0.5,0,0.726
		c0,10.908,0,21.816,0,32.725c0,11.059-1.116,22.757,0.151,33.76c0.72,6.253,6.522,7.42,11.643,7.42c6.188,0,12.376,0,18.564,0
		c13.989,0,27.979,0,41.968,0c5.397,0,10.987-2.309,10.987-8.704c0-3.743,0-7.486,0-11.229c0-15.212,0-30.423,0-45.635
		C110.113,39.35,110.979,34.555,109.859,31.422z M104.111,43.226c0,7.57,0,15.141,0,22.711c0,11.149,0,22.3,0,33.45
		c0,4.303-10.492,2.726-12.424,2.726c-7.57,0-15.141,0-22.711,0c-11.149,0-22.3,0-33.45,0c-4.302,0-2.725-10.493-2.725-12.424
		c0-7.57,0-15.141,0-22.711c0-11.149,0-22.3,0-33.45c0.504-4.376,10.036-2.724,12.423-2.724c7.57,0,15.141,0,22.711,0
		c11.149,0,22.3,0,33.45,0C105.689,30.804,104.111,41.294,104.111,43.226z"/>
</g>
</svg>
