<?xml version="1.0" encoding="utf-8"?>
<!-- Generator: Adobe Illustrator 16.0.0, SVG Export Plug-In . SVG Version: 6.00 Build 0)  -->
<!DOCTYPE svg PUBLIC "-//W3C//DTD SVG 1.1//EN" "http://www.w3.org/Graphics/SVG/1.1/DTD/svg11.dtd">
<svg version="1.1" id="Layer_1" xmlns="http://www.w3.org/2000/svg" xmlns:xlink="http://www.w3.org/1999/xlink" x="0px" y="0px"
	 width="136.913px" height="136.914px" viewBox="0 0 136.913 136.914" enable-background="new 0 0 136.913 136.914"
	 xml:space="preserve">
<g>
	<g>
		<g>
			<circle fill="#357180" cx="68.457" cy="68.457" r="63.333"/>
		</g>
	</g>
	<path fill="#FFFFFF" d="M101.562,63.802c-12.93-12.929-25.859-25.858-38.789-38.787c-4.579-4.58-12.777-1.211-12.777,5.278
		c0,25.6,0,51.2,0,76.799c-0.037,0.457-0.027,0.91,0.028,1.358c0.211,3.225,2.148,5.294,4.57,6.198
		c2.369,1.163,5.267,1.134,7.753-1.013c0.408-0.309,0.781-0.664,1.112-1.067C76.179,99.85,88.898,87.13,101.618,74.41
		C104.519,71.511,104.439,66.68,101.562,63.802z"/>
</g>
</svg>
