<?xml version="1.0" encoding="utf-8"?>
<!-- Generator: Adobe Illustrator 16.0.0, SVG Export Plug-In . SVG Version: 6.00 Build 0)  -->
<!DOCTYPE svg PUBLIC "-//W3C//DTD SVG 1.1//EN" "http://www.w3.org/Graphics/SVG/1.1/DTD/svg11.dtd">
<svg version="1.1" id="Layer_1" xmlns="http://www.w3.org/2000/svg" xmlns:xlink="http://www.w3.org/1999/xlink" x="0px" y="0px"
	 width="136.914px" height="136.913px" viewBox="0 0 136.914 136.913" enable-background="new 0 0 136.914 136.913"
	 xml:space="preserve">
<g>
	<g>
		<g>
			<circle fill="#1FA85B" cx="68.457" cy="68.457" r="63.333"/>
		</g>
	</g>
	<path fill="#FFFFFF" d="M94.544,79.29c-7.44-6.016-14.881-12.03-22.321-18.046c0-4.272,0-8.546,0-12.818c2.524,0,5.049,0,7.573,0
		c1.377,0,2.423-1.602,1.631-2.824c-3.795-5.857-7.59-11.714-11.385-17.57c-0.032-0.06-0.071-0.115-0.11-0.171
		c-0.003-0.005-0.006-0.01-0.01-0.015c-0.003-0.004-0.006-0.007-0.009-0.012c-0.042-0.058-0.084-0.113-0.133-0.166
		c-0.411-0.508-0.959-0.71-1.5-0.682c-0.529-0.013-1.061,0.2-1.461,0.698c-0.031,0.034-0.058,0.071-0.086,0.108
		c-0.017,0.023-0.036,0.04-0.052,0.064c-0.022,0.035-0.045,0.069-0.067,0.104c-0.009,0.015-0.02,0.027-0.028,0.042
		c-3.802,5.87-7.604,11.739-11.407,17.609c-0.774,1.196,0.251,2.813,1.61,2.813c2.644,0,5.288,0,7.932,0c0,4.285,0,8.57,0,12.855
		c-7.437,6.013-14.873,12.024-22.31,18.037c-3.046,2.462-2.537,5.251-2.521,8.935c0.021,4.9,0.042,9.801,0.063,14.7
		c0.021,4.842,7.522,4.887,7.502,0.055c-0.026-6.039-0.052-12.079-0.078-18.118c7.037-5.689,14.074-11.379,21.11-17.067
		c7.04,5.691,14.079,11.382,21.118,17.072c-0.025,6.02-0.051,12.039-0.077,18.059c-0.021,4.845,7.481,4.885,7.502,0.055
		c0.021-4.9,0.042-9.801,0.063-14.701C97.109,84.597,97.614,81.771,94.544,79.29z"/>
</g>
</svg>
