<?xml version="1.0" encoding="utf-8"?>
<!-- Generator: Adobe Illustrator 16.0.0, SVG Export Plug-In . SVG Version: 6.00 Build 0)  -->
<!DOCTYPE svg PUBLIC "-//W3C//DTD SVG 1.1//EN" "http://www.w3.org/Graphics/SVG/1.1/DTD/svg11.dtd">
<svg version="1.1" id="Layer_1" xmlns="http://www.w3.org/2000/svg" xmlns:xlink="http://www.w3.org/1999/xlink" x="0px" y="0px"
	 width="136.914px" height="136.913px" viewBox="0 0 136.914 136.913" enable-background="new 0 0 136.914 136.913"
	 xml:space="preserve">
<g>
	<g>
		<g>
			<circle fill="#E79E2D" cx="68.457" cy="68.457" r="63.333"/>
		</g>
	</g>
	<g>
		<g>
			<path fill="#FFFFFF" d="M60.687,90.415c-3.683,0-7.365,0-11.048,0c4.315-4.314,8.63-8.629,12.945-12.943
				c2.734-2.734-1.524-6.962-4.266-4.221c-4.308,4.308-8.616,8.615-12.924,12.923c0-3.669,0-7.338,0.001-11.008
				c0-3.874-6.001-3.908-6.001-0.043c-0.001,6.09-0.001,12.181-0.002,18.271c0,1.626,1.336,3.022,2.979,3.022
				c6.091,0,12.182,0,18.273,0C64.518,96.417,64.552,90.415,60.687,90.415z"/>
		</g>
		<g>
			<path fill="#FFFFFF" d="M95.067,37.765c-6.091,0-12.182-0.001-18.273-0.002c-3.875,0-3.909,6.001-0.043,6.002
				c3.683,0,7.365,0.001,11.048,0.001c-4.315,4.314-8.63,8.63-12.944,12.944c-2.734,2.734,1.525,6.962,4.266,4.221
				c4.308-4.309,8.616-8.616,12.924-12.925c0,3.67,0,7.339-0.001,11.008c0,3.874,6.001,3.908,6.001,0.043
				c0.001-6.09,0.001-12.18,0.002-18.27C98.047,39.161,96.71,37.766,95.067,37.765z"/>
		</g>
		<path fill="#FFFFFF" d="M110.113,35.527c0-0.343-0.061-0.645-0.146-0.928c-1.08-5.878-5.566-7.8-11.206-7.8
			c-6.021,0-12.043,0-18.065,0c-14.166,0-28.332,0-42.497,0c-5.91,0-10.636,2.073-11.397,8.685c-0.392,3.397,0,7.071,0,10.485
			c0,15.225,0,30.45,0,45.676c0,3.653-0.269,7.413,0.15,11.049c0.721,6.253,6.525,7.418,11.644,7.418c14.329,0,28.658,0,42.986,0
			c5.849,0,11.697,0,17.545,0c5.397,0,10.985-2.307,10.985-8.702c0-11.477,0-22.953,0-34.429c0-10.244,0-20.489,0-30.733
			C110.138,36.024,110.143,35.786,110.113,35.527z M101.431,104.11c-3.397,0.392-7.072,0-10.485,0c-7.655,0-15.31,0-22.965,0
			c-7.57,0-15.141,0-22.711,0c-2.322,0-11.97,1.631-12.467-2.681c-0.391-3.397,0-7.071,0-10.485c0-7.654,0-15.31,0-22.965
			c0-7.57,0-15.141,0-22.711c0-2.324-1.631-11.97,2.683-12.467c3.397-0.392,7.072,0,10.485,0c7.655,0,15.31,0,22.965,0
			c7.57,0,15.141,0,22.711,0c2.325,0,11.968-1.632,12.465,2.683c0,11.15,0,22.3,0,33.45c0,7.57,0,15.141,0,22.711
			C104.112,93.968,105.742,103.614,101.431,104.11z"/>
	</g>
</g>
</svg>
