<?xml version="1.0" encoding="utf-8"?>
<!-- Generator: Adobe Illustrator 16.0.0, SVG Export Plug-In . SVG Version: 6.00 Build 0)  -->
<!DOCTYPE svg PUBLIC "-//W3C//DTD SVG 1.1//EN" "http://www.w3.org/Graphics/SVG/1.1/DTD/svg11.dtd">
<svg version="1.1" id="Layer_1" xmlns="http://www.w3.org/2000/svg" xmlns:xlink="http://www.w3.org/1999/xlink" x="0px" y="0px"
	 width="136.913px" height="136.914px" viewBox="0 0 136.913 136.914" enable-background="new 0 0 136.913 136.914"
	 xml:space="preserve">
<g>
	<g>
		<g>
			<circle fill="#EDC92C" cx="68.457" cy="68.457" r="63.333"/>
		</g>
	</g>
	<path fill="#FFFFFF" d="M113.368,60.743c-22.222,0-44.444,0-66.666,0c-0.18,0-0.351,0.016-0.524,0.025
		c8.178-7.613,16.355-15.227,24.533-22.841c7.082-6.593-3.59-17.138-10.665-10.552c-12.744,11.865-25.489,23.73-38.233,35.596
		c-2.925,2.724-2.844,7.907,0.057,10.608c12.744,11.864,25.488,23.729,38.232,35.593c7.061,6.573,17.653-4.053,10.552-10.665
		c-8.157-7.594-16.314-15.187-24.471-22.781c0.137,0.006,0.269,0.02,0.41,0.02c22.222,0,44.444,0,66.666,0
		C122.946,75.747,123.031,60.743,113.368,60.743z"/>
</g>
</svg>
