<?xml version="1.0" encoding="utf-8"?>
<!-- Generator: Adobe Illustrator 16.0.0, SVG Export Plug-In . SVG Version: 6.00 Build 0)  -->
<!DOCTYPE svg PUBLIC "-//W3C//DTD SVG 1.1//EN" "http://www.w3.org/Graphics/SVG/1.1/DTD/svg11.dtd">
<svg version="1.1" id="Layer_1" xmlns="http://www.w3.org/2000/svg" xmlns:xlink="http://www.w3.org/1999/xlink" x="0px" y="0px"
	 width="136.914px" height="136.914px" viewBox="0 0 136.914 136.914" enable-background="new 0 0 136.914 136.914"
	 xml:space="preserve">
<g>
	<g>
		<g>
			<circle fill="#EDC92C" cx="68.457" cy="68.457" r="63.333"/>
		</g>
	</g>
	<g>
		<g>
			<path fill="#FFFFFF" d="M118.588,62.915c-7.223-7.223-14.445-14.446-21.668-21.669c-4.579-4.58-12.777-1.211-12.777,5.278
				c0,3.49,0,6.979,0,10.469c-18.973,0-37.945,0-56.917,0c-14.529,0-14.658,22.505-0.162,22.505c19.027,0,38.053,0,57.08,0
				c0,3.192,0,6.384,0,9.576c-0.039,0.463-0.028,0.924,0.029,1.378c0.214,3.219,2.15,5.285,4.57,6.188
				c2.371,1.164,5.271,1.134,7.757-1.017c0.404-0.307,0.773-0.659,1.102-1.057c7.015-7.014,14.03-14.029,21.044-21.043
				C121.545,70.623,121.466,65.792,118.588,62.915z"/>
		</g>
	</g>
</g>
</svg>
