<?xml version="1.0" encoding="utf-8"?>
<!-- Generator: Adobe Illustrator 16.0.0, SVG Export Plug-In . SVG Version: 6.00 Build 0)  -->
<!DOCTYPE svg PUBLIC "-//W3C//DTD SVG 1.1//EN" "http://www.w3.org/Graphics/SVG/1.1/DTD/svg11.dtd">
<svg version="1.1" id="Layer_1" xmlns="http://www.w3.org/2000/svg" xmlns:xlink="http://www.w3.org/1999/xlink" x="0px" y="0px"
	 width="136.914px" height="136.913px" viewBox="0 0 136.914 136.913" enable-background="new 0 0 136.914 136.913"
	 xml:space="preserve">
<g>
	<g>
		<g>
			<circle fill="#49A0AE" cx="68.457" cy="68.457" r="63.333"/>
		</g>
	</g>
	<g>
		<g>
			<path fill="#FFFFFF" d="M117.84,64.22c-8.639,0-17.278,0-25.917,0c2.683-2.683,5.367-5.366,8.05-8.049
				c3.418-3.417-1.906-8.701-5.332-5.275c-4.813,4.812-9.625,9.624-14.438,14.436c-1.45,1.449-1.411,3.865,0.028,5.304
				c4.813,4.813,9.625,9.625,14.438,14.438c3.418,3.418,8.702-1.906,5.275-5.332c-2.673-2.673-5.346-5.346-8.019-8.019
				c8.62,0,17.24,0,25.86,0C122.629,71.722,122.672,64.22,117.84,64.22z"/>
		</g>
		<g>
			<path fill="#FFFFFF" d="M56.743,65.303c-4.813-4.813-9.625-9.624-14.438-14.436c-3.418-3.418-8.702,1.906-5.275,5.332
				c2.674,2.674,5.348,5.347,8.021,8.021c-8.621,0-17.241,0-25.862,0c-4.843,0-4.886,7.502-0.054,7.502c8.638,0,17.275,0,25.913,0
				c-2.682,2.683-5.365,5.364-8.047,8.047c-3.418,3.418,1.906,8.702,5.332,5.275c4.813-4.813,9.625-9.625,14.438-14.438
				C58.222,69.157,58.183,66.741,56.743,65.303z"/>
		</g>
	</g>
	<circle fill="#FFFFFF" cx="68.457" cy="68.455" r="6.444"/>
</g>
</svg>
