<?xml version="1.0" encoding="utf-8"?>
<!-- Generator: Adobe Illustrator 16.0.0, SVG Export Plug-In . SVG Version: 6.00 Build 0)  -->
<!DOCTYPE svg PUBLIC "-//W3C//DTD SVG 1.1//EN" "http://www.w3.org/Graphics/SVG/1.1/DTD/svg11.dtd">
<svg version="1.1" id="Layer_1" xmlns="http://www.w3.org/2000/svg" xmlns:xlink="http://www.w3.org/1999/xlink" x="0px" y="0px"
	 width="136.913px" height="136.913px" viewBox="0 0 136.913 136.913" enable-background="new 0 0 136.913 136.913"
	 xml:space="preserve">
<g>
	<g>
		<g>
			<path fill="#49A0AE" d="M5.123,68.458c0-34.982,28.355-63.334,63.332-63.334c34.979,0,63.334,28.352,63.334,63.334
				c0,34.975-28.355,63.332-63.334,63.332C33.479,131.79,5.123,103.433,5.123,68.458z"/>
		</g>
	</g>
	<g>
		<path fill="#FFFFFF" d="M83.412,91.329c-4.824,7.894-13.387,12.887-21.468,6.221c-4.914-4.055-7.625-10.165-8.978-16.501
			c3.381-0.009,6.762-0.017,10.143-0.024c0.684-0.001,1.169-0.306,1.47-0.736c0.488-0.525,0.674-1.293,0.161-2.088
			c-4.646-7.212-9.294-14.424-13.941-21.635c-0.78-1.212-2.467-1.202-3.241,0.012c-4.611,7.233-9.224,14.468-13.836,21.701
			c-0.763,1.197,0.242,2.816,1.61,2.813c3.354-0.008,6.706-0.016,10.06-0.024c1.792,9.293,6.003,18.03,13.837,23.798
			c11.3,8.322,24.352,0.567,30.68-9.785C92.435,90.945,85.933,87.205,83.412,91.329z"/>
		<path fill="#FFFFFF" d="M101.695,55.425c-3.354,0.008-6.707,0.017-10.061,0.024c-1.793-9.292-6.004-18.029-13.838-23.797
			c-11.301-8.321-24.351-0.566-30.678,9.786c-2.526,4.134,3.976,7.874,6.496,3.75C58.439,37.295,67,32.301,75.081,38.968
			c4.914,4.054,7.626,10.164,8.979,16.5c-3.381,0.009-6.763,0.017-10.144,0.025c-0.682,0.002-1.167,0.305-1.467,0.733
			c-0.491,0.525-0.678,1.295-0.164,2.091c4.647,7.212,9.295,14.424,13.943,21.635c0.781,1.212,2.467,1.202,3.241-0.012
			c4.611-7.234,9.224-14.469,13.836-21.703C104.068,57.04,103.063,55.421,101.695,55.425z"/>
	</g>
</g>
</svg>
