<?xml version="1.0" encoding="utf-8"?>
<!-- Generator: Adobe Illustrator 16.0.0, SVG Export Plug-In . SVG Version: 6.00 Build 0)  -->
<!DOCTYPE svg PUBLIC "-//W3C//DTD SVG 1.1//EN" "http://www.w3.org/Graphics/SVG/1.1/DTD/svg11.dtd">
<svg version="1.1" id="Layer_1" xmlns="http://www.w3.org/2000/svg" xmlns:xlink="http://www.w3.org/1999/xlink" x="0px" y="0px"
	 width="136.914px" height="136.914px" viewBox="0 0 136.914 136.914" enable-background="new 0 0 136.914 136.914"
	 xml:space="preserve">
<g>
	<g>
		<g>
			<circle fill="#4ABC96" cx="68.457" cy="68.457" r="63.333"/>
		</g>
	</g>
	<g>
		<g>
			<path fill="#FFFFFF" d="M100.882,62.915c-7.223-7.223-14.445-14.446-21.668-21.669c-4.579-4.58-12.777-1.211-12.777,5.278
				c0,3.606,0,7.212,0,10.818c-0.897-0.219-1.861-0.35-2.912-0.35c-6.927,0-13.854,0-20.781,0c-14.529,0-14.658,22.505-0.162,22.505
				c6.927,0,13.854,0,20.781,0c1.112,0,2.13-0.146,3.074-0.389c0,3.322,0,6.644,0,9.965c-0.039,0.463-0.028,0.924,0.029,1.378
				c0.214,3.219,2.15,5.285,4.57,6.188c2.371,1.164,5.271,1.134,7.757-1.017c0.404-0.307,0.773-0.659,1.102-1.057
				c7.015-7.014,14.03-14.029,21.044-21.043C103.839,70.623,103.76,65.792,100.882,62.915z"/>
		</g>
	</g>
</g>
</svg>
