<?xml version="1.0" encoding="utf-8"?>
<!-- Generator: Adobe Illustrator 16.0.0, SVG Export Plug-In . SVG Version: 6.00 Build 0)  -->
<!DOCTYPE svg PUBLIC "-//W3C//DTD SVG 1.1//EN" "http://www.w3.org/Graphics/SVG/1.1/DTD/svg11.dtd">
<svg version="1.1" id="Layer_1" xmlns="http://www.w3.org/2000/svg" xmlns:xlink="http://www.w3.org/1999/xlink" x="0px" y="0px"
	 width="136.914px" height="136.914px" viewBox="0 0 136.914 136.914" enable-background="new 0 0 136.914 136.914"
	 xml:space="preserve">
<g>
	<g>
		<g>
			<path fill="#357180" d="M5.124,68.458c0-34.982,28.355-63.334,63.332-63.334c34.979,0,63.334,28.353,63.334,63.334
				c0,34.976-28.355,63.333-63.334,63.333C33.479,131.791,5.124,103.434,5.124,68.458z"/>
		</g>
	</g>
	<path fill="#F7F7F7" d="M71.638,24.749v-8.422c0,0,0.064-0.692-0.444-0.89c-0.509-0.198-1.08,0.211-1.08,0.211L45.032,30.392
		c0,0-0.564,0.34-0.564,0.819c0,0.579,0.564,0.876,0.564,0.876l25.166,14.828c0,0,0.487,0.297,0.976,0
		c0.486-0.296,0.465-0.766,0.465-0.766v-7.861c15.258,1.59,27.152,14.488,27.152,30.169c0,16.753-13.581,30.335-30.334,30.335
		S38.122,85.211,38.122,68.458c0-4.768,1.102-9.273,3.06-13.287c0,0,2.536-5.674-2.714-8.258s-8.362,0.261-9.002,1.503
		c-3.095,6.006-4.843,12.818-4.843,20.042c0,24.208,19.625,43.833,43.834,43.833c24.208,0,43.834-19.625,43.834-43.833
		C112.291,45.317,94.36,26.381,71.638,24.749z"/>
</g>
</svg>
