<?xml version="1.0" encoding="utf-8"?>
<!-- Generator: Adobe Illustrator 16.0.0, SVG Export Plug-In . SVG Version: 6.00 Build 0)  -->
<!DOCTYPE svg PUBLIC "-//W3C//DTD SVG 1.1//EN" "http://www.w3.org/Graphics/SVG/1.1/DTD/svg11.dtd">
<svg version="1.1" id="Layer_1" xmlns="http://www.w3.org/2000/svg" xmlns:xlink="http://www.w3.org/1999/xlink" x="0px" y="0px"
	 width="136.913px" height="136.913px" viewBox="0 0 136.913 136.913" enable-background="new 0 0 136.913 136.913"
	 xml:space="preserve">
<g>
	<g>
		<g>
			<circle fill="#D62127" cx="68.456" cy="68.457" r="63.333"/>
		</g>
	</g>
	<g>
		<g>
			<path fill="#FFFFFF" d="M110.927,42.185c-0.069-0.771-0.533-1.272-1.121-1.496c-0.584-0.292-1.298-0.284-1.916,0.23
				c-0.076,0.056-0.147,0.118-0.214,0.187c-3.277,3.277-6.555,6.555-9.832,9.832c-5.507-5.506-11.013-11.012-16.519-16.518
				c-3.418-3.418-8.702,1.906-5.275,5.332c5.497,5.496,10.993,10.993,16.489,16.49c-3.303,3.303-6.605,6.605-9.909,9.909
				c-1.146,1.146-0.303,3.194,1.319,3.194c8.369,0.001,16.738,0.002,25.107,0.002c1.017,0,1.889-0.835,1.889-1.861
				c0-8.354,0-16.709,0-25.063C110.944,42.344,110.938,42.264,110.927,42.185z"/>
		</g>
		<g>
			<path fill="#FFFFFF" d="M83.904,101.801c0,1.738,1.408,3.146,3.146,3.146h12.414c1.736,0,3.146-1.408,3.146-3.146V80.447
				c0-1.738-1.41-3.146-3.146-3.146H87.051c-1.738,0-3.146,1.408-3.146,3.146V101.801z"/>
			<path fill="#FFFFFF" d="M57.904,101.801c0,1.738,1.408,3.146,3.146,3.146h12.414c1.736,0,3.146-1.408,3.146-3.146V64.947
				c0-1.738-1.41-3.146-3.146-3.146H61.051c-1.738,0-3.146,1.408-3.146,3.146V101.801z"/>
			<path fill="#FFFFFF" d="M31.238,101.801c0,1.738,1.408,3.146,3.146,3.146h12.414c1.736,0,3.146-1.408,3.146-3.146V49.447
				c0-1.738-1.41-3.146-3.146-3.146H34.385c-1.738,0-3.146,1.408-3.146,3.146V101.801z"/>
		</g>
	</g>
</g>
</svg>
