<?xml version="1.0" encoding="utf-8"?>
<!-- Generator: Adobe Illustrator 16.0.0, SVG Export Plug-In . SVG Version: 6.00 Build 0)  -->
<!DOCTYPE svg PUBLIC "-//W3C//DTD SVG 1.1//EN" "http://www.w3.org/Graphics/SVG/1.1/DTD/svg11.dtd">
<svg version="1.1" id="Layer_1" xmlns="http://www.w3.org/2000/svg" xmlns:xlink="http://www.w3.org/1999/xlink" x="0px" y="0px"
	 width="136.833px" height="136.834px" viewBox="0 0 136.833 136.834" style="enable-background:new 0 0 136.833 136.834;"
	 xml:space="preserve">
<style type="text/css">
<![CDATA[
	.st0{fill:#7AC3A7;}
	.st1{fill:#AA9C87;}
	.st2{fill:#AAAAAA;}
	.st3{fill:#494A4A;}
	.st4{fill:#AC782B;}
	.st5{fill:#49A0AE;}
	.st6{fill:#AD6F2D;}
	.st7{fill-rule:evenodd;clip-rule:evenodd;fill:#3EB5B5;}
	.st8{fill:#AE8A50;}
	.st9{fill:#7F8092;}
	.st10{fill:#AEADAD;}
	.st11{fill:#AEAEAF;}
	.st12{fill:#129949;}
	.st13{fill:#E1E1E1;}
	.st14{fill:#E2DD3E;}
	.st15{fill-rule:evenodd;clip-rule:evenodd;fill:#757575;}
	.st16{fill:#E4E4E4;}
	.st17{fill:#E57931;}
	.st18{fill:#4AA0A5;}
	.st19{fill:#4B4A4B;}
	.st20{fill:#E79E2D;}
	.st21{fill-rule:evenodd;clip-rule:evenodd;fill:#DBB626;}
	.st22{fill:#E7E760;}
	.st23{fill:#19A855;}
	.st24{fill:#E84849;}
	.st25{fill:#4E4F50;}
	.st26{fill:#4EA3B1;}
	.st27{fill:#E9CA92;}
	.st28{fill:#E9E8A1;}
	.st29{fill:#E9E8A3;}
	.st30{fill:#B03738;}
	.st31{fill:#818282;}
	.st32{fill:#81BCB9;}
	.st33{fill:#B19353;}
	.st34{fill:#825E2D;}
	.st35{fill:#B1B1B2;}
	.st36{fill:#B2B2B2;}
	.st37{opacity:0.15;}
	.st38{fill:#848698;}
	.st39{fill:#B3DCE2;}
	.st40{fill:#B4B4B5;}
	.st41{fill:#1A3940;}
	.st42{fill:#B6E2EB;}
	.st43{fill:#888888;}
	.st44{fill:#B7DFD2;}
	.st45{fill:#1D1E1E;}
	.st46{fill:#ED3351;}
	.st47{fill:#EDC92C;}
	.st48{fill:#EDE8C9;}
	.st49{fill:#1FA85B;}
	.st50{fill-rule:evenodd;clip-rule:evenodd;fill:#AEAEAF;}
	.st51{fill:#EEDD7A;}
	.st52{fill:#52BA73;}
	.st53{fill:#56385F;}
	.st54{fill:#56939A;}
	.st55{fill:#8AC5C4;}
	.st56{fill:#575757;}
	.st57{fill-rule:evenodd;clip-rule:evenodd;fill:#4B4A4B;}
	.st58{fill:#8CD3DA;}
	.st59{fill:#8D8D8C;}
	.st60{fill:#8D9091;}
	.st61{fill-rule:evenodd;clip-rule:evenodd;fill:#E8C790;}
	.st62{fill:#202121;}
	.st63{fill-rule:evenodd;clip-rule:evenodd;fill:#E9CA92;}
	.st64{fill:#BEBC6A;}
	.st65{fill:#F06668;}
	.st66{fill:#BFBEBE;}
	.st67{fill:#F0D359;}
	.st68{fill:#F0F1AF;}
	.st69{fill-rule:evenodd;clip-rule:evenodd;fill:#B14D26;}
	.st70{fill:#22C48A;}
	.st71{fill:#F1D250;}
	.st72{fill:#F1E089;}
	.st73{fill:#F1F1B3;}
	.st74{fill:#F2BE3E;}
	.st75{fill:#F37C2A;}
	.st76{fill:#256533;}
	.st77{fill:#F4D967;}
	.st78{fill:#F4E028;}
	.st79{fill:#F4F5F5;}
	.st80{fill-rule:evenodd;clip-rule:evenodd;fill:#B5B2B3;}
	.st81{fill:#F5D827;}
	.st82{fill:#F5E554;}
	.st83{fill:#276D69;}
	.st84{fill-rule:evenodd;clip-rule:evenodd;fill:#B6AE8F;}
	.st85{fill:#F6A2A3;}
	.st86{fill-rule:evenodd;clip-rule:evenodd;fill:#1CAAB9;}
	.st87{fill-rule:evenodd;clip-rule:evenodd;fill:#888888;}
	.st88{fill:#F7D98B;}
	.st89{fill:#F7E497;}
	.st90{fill:#F8DE71;}
	.st91{fill-rule:evenodd;clip-rule:evenodd;fill:#ECE1D0;}
	.st92{fill:#F9F29A;}
	.st93{fill-rule:evenodd;clip-rule:evenodd;fill:#EDC92C;}
	.st94{clip-path:url(#SVGID_2_);}
	.st95{fill:#90682F;}
	.st96{fill:#C0C0C0;}
	.st97{fill:#93793D;}
	.st98{fill:#939292;}
	.st99{fill:#93D1BD;}
	.st100{fill:#949897;}
	.st101{fill:#94D0D0;}
	.st102{fill:#954E9D;}
	.st103{fill:#958469;}
	.st104{fill:#C4BC98;}
	.st105{fill:#C698C5;}
	.st106{fill:#2C6973;}
	.st107{fill:#FAF2F2;}
	.st108{fill:#C7E8ED;}
	.st109{fill:#2E2F2F;}
	.st110{fill:#2F8442;}
	.st111{opacity:0.3;}
	.st112{fill:#606060;}
	.st113{fill:#616A89;}
	.st114{fill:#61BECD;}
	.st115{fill:#FFC200;}
	.st116{fill:#FFFFFF;}
	.st117{fill:#626463;}
	.st118{fill:#63A2AC;}
	.st119{fill-rule:evenodd;clip-rule:evenodd;fill:#F2E8D3;}
	.st120{fill:none;}
	.st121{fill:#9A7338;}
	.st122{fill-rule:evenodd;clip-rule:evenodd;fill:#F5D8A4;}
	.st123{fill-rule:evenodd;clip-rule:evenodd;fill:#F5DFB5;}
	.st124{fill:#9B7842;}
	.st125{fill:#67B8CB;}
	.st126{fill:#9D5D26;}
	.st127{fill:#9D9E9F;}
	.st128{fill:#CDCCCB;}
	.st129{fill:#9EA3B6;}
	.st130{fill:#9F77AA;}
	.st131{fill-rule:evenodd;clip-rule:evenodd;fill:#C0BEBF;}
	.st132{fill-rule:evenodd;clip-rule:evenodd;fill:#C15E28;}
	.st133{fill:#343433;}
	.st134{fill:#355957;}
	.st135{fill:#357180;}
	.st136{fill:#35B167;}
	.st137{fill-rule:evenodd;clip-rule:evenodd;fill:#97A0A0;}
	.st138{fill:#6C6C6B;}
	.st139{fill:#6CC077;}
	.st140{fill:#6EC2CB;}
	.st141{fill:#6FB698;}
	.st142{fill-rule:evenodd;clip-rule:evenodd;fill:#616161;}
	.st143{fill:#D0D1D1;}
	.st144{fill-rule:evenodd;clip-rule:evenodd;fill:#FFF4E4;}
	.st145{fill:#D2CBA6;}
	.st146{fill:#D2D2D2;}
	.st147{fill:#D68828;}
	.st148{fill:#D68A28;}
	.st149{fill:#3D3428;}
	.st150{fill:#3D4040;}
	.st151{fill:#3D969F;}
	.st152{fill-rule:evenodd;clip-rule:evenodd;fill:#CDCCCB;}
	.st153{fill:#A0D5D9;}
	.st154{fill:#A2D4DE;}
	.st155{fill:#A3D4AA;}
	.st156{fill:#A48A47;}
	.st157{fill:#75B7BB;}
	.st158{fill:#776850;}
	.st159{fill:#DAC425;}
	.st160{fill:#DBBD40;}
	.st161{fill:#DBC55E;}
	.st162{fill:#DBDBDA;}
	.st163{fill:#DBF0F5;}
	.st164{fill:#DCDBDC;}
	.st165{fill:#DDDDDC;}
	.st166{fill-rule:evenodd;clip-rule:evenodd;fill:#6EC2CB;}
	.st167{fill:#DFBFDB;}
	.st168{fill:#DFCC6B;}
	.st169{fill:#448590;}
]]>
</style>
<g>
	<g>
		<circle class="st47" cx="69.794" cy="69.981" r="63.333"/>
	</g>
	<g>
		<g>
			<path class="st10" d="M33.398,107.651c-0.049,0.016-0.096,0.027-0.143,0.041C33.303,107.679,33.35,107.667,33.398,107.651z"/>
		</g>
		<g>
			<path class="st10" d="M34.426,107.222c-0.039,0.02-0.076,0.039-0.113,0.057C34.35,107.261,34.387,107.241,34.426,107.222z"/>
		</g>
		<g>
			<path class="st10" d="M34.945,106.954c-0.049,0.027-0.098,0.055-0.146,0.08C34.848,107.009,34.896,106.981,34.945,106.954z"/>
		</g>
		<g>
			<path class="st10" d="M31.828,107.825c-0.057-0.01-0.113-0.02-0.166-0.033C31.715,107.806,31.771,107.815,31.828,107.825z"/>
		</g>
		<g>
			<path class="st10" d="M32.977,107.771c-0.057,0.014-0.113,0.023-0.17,0.033C32.863,107.792,32.92,107.784,32.977,107.771z"/>
		</g>
		<g>
			<path class="st10" d="M87.652,52.466l-8.385-8.387c-7.48,8.781-50.584,59.992-48.818,62.76c0.205,0.324,0.441,0.553,0.699,0.719
				c-0.041-0.025-0.082-0.047-0.121-0.076L87.652,52.466z"/>
		</g>
		<g>
			<path class="st10" d="M32.191,107.862c-0.059-0.002-0.117-0.004-0.174-0.01C32.074,107.858,32.133,107.86,32.191,107.862z"/>
		</g>
		<g>
			<path class="st10" d="M31.484,107.729c-0.053-0.02-0.105-0.037-0.156-0.063C31.379,107.692,31.432,107.71,31.484,107.729z"/>
		</g>
		<g>
			<path class="st10" d="M32.574,107.841c-0.059,0.008-0.117,0.012-0.176,0.016C32.457,107.853,32.516,107.849,32.574,107.841z"/>
		</g>
		<g>
			<path class="st10" d="M36.516,106.032c-0.031,0.02-0.061,0.037-0.09,0.057C36.455,106.069,36.484,106.052,36.516,106.032z"/>
		</g>
		<g>
			<path class="st10" d="M37.061,105.688c-0.002,0.002-0.004,0.002-0.004,0.004C37.059,105.692,37.059,105.69,37.061,105.688z"/>
		</g>
		<g>
			<path class="st10" d="M35.98,106.36c-0.043,0.027-0.086,0.053-0.131,0.078C35.895,106.413,35.938,106.388,35.98,106.36z"/>
		</g>
		<g>
			<path class="st10" d="M35.455,106.671c-0.047,0.027-0.096,0.055-0.143,0.082C35.359,106.726,35.408,106.698,35.455,106.671z"/>
		</g>
		<g>
			<path class="st96" d="M37.057,105.692c-0.184,0.115-0.363,0.229-0.541,0.34C36.693,105.921,36.873,105.808,37.057,105.692z"/>
		</g>
		<g>
			<path class="st96" d="M37.654,105.312c-0.201,0.129-0.398,0.254-0.594,0.377C37.256,105.565,37.453,105.44,37.654,105.312z"/>
		</g>
		<g>
			<path class="st96" d="M32.807,107.804c-0.078,0.016-0.156,0.029-0.232,0.037C32.65,107.833,32.729,107.819,32.807,107.804z"/>
		</g>
		<g>
			<path class="st96" d="M32.398,107.856c-0.07,0.004-0.139,0.006-0.207,0.006C32.26,107.862,32.328,107.86,32.398,107.856z"/>
		</g>
		<g>
			<path class="st96" d="M35.313,106.753c-0.123,0.07-0.246,0.137-0.367,0.201C35.066,106.89,35.189,106.823,35.313,106.753z"/>
		</g>
		<g>
			<path class="st96" d="M34.313,107.278c-0.318,0.15-0.623,0.275-0.914,0.373C33.689,107.554,33.994,107.429,34.313,107.278z"/>
		</g>
		<g>
			<path class="st96" d="M35.85,106.438c-0.133,0.08-0.264,0.156-0.395,0.232C35.586,106.597,35.717,106.519,35.85,106.438z"/>
		</g>
		<g>
			<path class="st96" d="M36.426,106.089c-0.15,0.092-0.299,0.184-0.445,0.271C36.127,106.272,36.275,106.181,36.426,106.089z"/>
		</g>
		<g>
			<path class="st96" d="M33.256,107.692c-0.094,0.029-0.188,0.057-0.279,0.078C33.068,107.749,33.162,107.722,33.256,107.692z"/>
		</g>
		<g>
			<path class="st96" d="M34.799,107.034c-0.127,0.066-0.25,0.129-0.373,0.188C34.549,107.163,34.672,107.101,34.799,107.034z"/>
		</g>
		<g>
			<polygon class="st96" points="95.045,65.948 91.354,56.165 90.689,55.503 			"/>
		</g>
		<g>
			<path class="st96" d="M32.018,107.853c-0.064-0.004-0.127-0.016-0.189-0.027C31.891,107.837,31.953,107.849,32.018,107.853z"/>
		</g>
		<g>
			<path class="st96" d="M31.328,107.667c-0.063-0.031-0.121-0.07-0.18-0.109C31.207,107.597,31.266,107.636,31.328,107.667z"/>
		</g>
		<g>
			<path class="st96" d="M31.662,107.792c-0.061-0.018-0.119-0.041-0.178-0.063C31.543,107.751,31.602,107.774,31.662,107.792z"/>
		</g>
		<g>
			<path class="st96" d="M87.652,52.466l-56.625,55.016c0.039,0.029,0.08,0.051,0.121,0.076c0.059,0.039,0.117,0.078,0.18,0.109
				c0.051,0.025,0.104,0.043,0.156,0.063c0.059,0.021,0.117,0.045,0.178,0.063c0.053,0.014,0.109,0.023,0.166,0.033
				c0.063,0.012,0.125,0.023,0.189,0.027c0.057,0.006,0.115,0.008,0.174,0.01c0.068,0,0.137-0.002,0.207-0.006
				c0.059-0.004,0.117-0.008,0.176-0.016c0.076-0.008,0.154-0.021,0.232-0.037c0.057-0.01,0.113-0.02,0.17-0.033
				c0.092-0.021,0.186-0.049,0.279-0.078c0.047-0.014,0.094-0.025,0.143-0.041c0.291-0.098,0.596-0.223,0.914-0.373
				c0.037-0.018,0.074-0.037,0.113-0.057c0.123-0.059,0.246-0.121,0.373-0.188c0.049-0.025,0.098-0.053,0.146-0.08
				c0.121-0.064,0.244-0.131,0.367-0.201c0.047-0.027,0.096-0.055,0.143-0.082c0.131-0.076,0.262-0.152,0.395-0.232
				c0.045-0.025,0.088-0.051,0.131-0.078c0.146-0.088,0.295-0.18,0.445-0.271c0.029-0.02,0.059-0.037,0.09-0.057
				c0.178-0.111,0.357-0.225,0.541-0.34c0-0.002,0.002-0.002,0.004-0.004c0.195-0.123,0.393-0.248,0.594-0.377l53.541-34.176
				c3.209-2.051,4.117-2.629,3.85-5.188l-4.355-10.445L87.652,52.466z"/>
		</g>
		<g>
			<path class="st124" d="M92.389,48.464l22.715-22.713c-3.621-3.707-7.686-6.975-12.119-9.707L81.475,37.55L92.389,48.464z"/>
		</g>
		<g>
			<path class="st8" d="M92.389,48.464l10.938,10.938l21.225-21.229c-2.635-4.527-5.813-8.697-9.447-12.422L92.389,48.464z"/>
		</g>
		<g>
			<path class="st95" d="M100.883,59.476l-9.752-9.752l0,0l-4.889-4.891l2.672,6.408l0.426-0.414l2.014,5.338l8.219,8.219
				c0.773,0.773,2.033,0.773,2.807,0l1.561-1.559c0.773-0.779,0.773-2.033,0-2.811l-0.613-0.613l-0.074,0.074
				C102.598,60.128,101.539,60.128,100.883,59.476z"/>
		</g>
		<g>
			<path class="st95" d="M82.561,41.151l-1.158-1.158c-0.654-0.654-0.654-1.715,0-2.371l0.072-0.072l-0.611-0.611
				c-0.779-0.775-2.033-0.775-2.811,0.002l-1.559,1.559c-0.773,0.773-0.773,2.033,0,2.807l2.773,2.773
				c0.373-0.438,0.658-0.77,0.844-0.986C81.051,42.003,81.852,41.376,82.561,41.151z"/>
		</g>
		<g>
			<path class="st95" d="M88.914,51.241l-2.672-6.408l-3.682-3.682c-0.709,0.225-1.51,0.852-2.449,1.941
				c-0.186,0.217-0.471,0.549-0.844,0.986l8.385,8.387L88.914,51.241z"/>
		</g>
		<g>
			<polygon class="st95" points="88.914,51.241 90.689,55.503 91.354,56.165 89.34,50.827 			"/>
		</g>
		<g>
			<polygon class="st95" points="90.689,55.503 88.914,51.241 87.652,52.466 			"/>
		</g>
		<g>
			<path class="st95" d="M81.402,39.993l1.158,1.158c1.416-0.447,2.465,0.738,3.504,3.254l0.178,0.428l4.889,4.891l1.258-1.26
				L81.475,37.55l-0.072,0.072C80.748,38.278,80.748,39.339,81.402,39.993z"/>
		</g>
		<g>
			<path class="st95" d="M82.561,41.151l3.682,3.682l-0.178-0.428C85.025,41.89,83.977,40.704,82.561,41.151z"/>
		</g>
		<g>
			<polygon class="st95" points="100.883,59.476 91.131,49.724 91.131,49.724 			"/>
		</g>
		<g>
			<path class="st95" d="M91.131,49.724l9.752,9.752c0.656,0.652,1.715,0.652,2.369,0l0.074-0.074L92.389,48.464L91.131,49.724z"/>
		</g>
	</g>
	<g>
		<circle class="st120" cx="69.794" cy="69.981" r="63.333"/>
	</g>
</g>
</svg>
