<?xml version="1.0" encoding="utf-8"?>
<!-- Generator: Adobe Illustrator 16.0.0, SVG Export Plug-In . SVG Version: 6.00 Build 0)  -->
<!DOCTYPE svg PUBLIC "-//W3C//DTD SVG 1.1//EN" "http://www.w3.org/Graphics/SVG/1.1/DTD/svg11.dtd">
<svg version="1.1" id="Layer_1" xmlns="http://www.w3.org/2000/svg" xmlns:xlink="http://www.w3.org/1999/xlink" x="0px" y="0px"
	 width="136.833px" height="136.833px" viewBox="0 0 136.833 136.833" style="enable-background:new 0 0 136.833 136.833;"
	 xml:space="preserve">
<style type="text/css">
<![CDATA[
	.st0{fill:#7AC3A7;}
	.st1{fill:#AA9C87;}
	.st2{fill:#AAAAAA;}
	.st3{fill:#494A4A;}
	.st4{fill:#AC782B;}
	.st5{fill:#49A0AE;}
	.st6{fill:#AD6F2D;}
	.st7{fill-rule:evenodd;clip-rule:evenodd;fill:#3EB5B5;}
	.st8{fill:#AE8A50;}
	.st9{fill:#7F8092;}
	.st10{fill:#AEADAD;}
	.st11{fill:#AEAEAF;}
	.st12{fill:#129949;}
	.st13{fill:#E1E1E1;}
	.st14{fill:#E2DD3E;}
	.st15{fill-rule:evenodd;clip-rule:evenodd;fill:#757575;}
	.st16{fill:#E4E4E4;}
	.st17{fill:#E57931;}
	.st18{fill:#4AA0A5;}
	.st19{fill:#4B4A4B;}
	.st20{fill:#E79E2D;}
	.st21{fill-rule:evenodd;clip-rule:evenodd;fill:#DBB626;}
	.st22{fill:#E7E760;}
	.st23{fill:#19A855;}
	.st24{fill:#E84849;}
	.st25{fill:#4E4F50;}
	.st26{fill:#4EA3B1;}
	.st27{fill:#E9CA92;}
	.st28{fill:#E9E8A1;}
	.st29{fill:#E9E8A3;}
	.st30{fill:#B03738;}
	.st31{fill:#818282;}
	.st32{fill:#81BCB9;}
	.st33{fill:#B19353;}
	.st34{fill:#825E2D;}
	.st35{fill:#B1B1B2;}
	.st36{fill:#B2B2B2;}
	.st37{opacity:0.15;}
	.st38{fill:#848698;}
	.st39{fill:#B3DCE2;}
	.st40{fill:#B4B4B5;}
	.st41{fill:#1A3940;}
	.st42{fill:#B6E2EB;}
	.st43{fill:#888888;}
	.st44{fill:#B7DFD2;}
	.st45{fill:#1D1E1E;}
	.st46{fill:#ED3351;}
	.st47{fill:#EDC92C;}
	.st48{fill:#EDE8C9;}
	.st49{fill:#1FA85B;}
	.st50{fill-rule:evenodd;clip-rule:evenodd;fill:#AEAEAF;}
	.st51{fill:#EEDD7A;}
	.st52{fill:#52BA73;}
	.st53{fill:#56385F;}
	.st54{fill:#56939A;}
	.st55{fill:#8AC5C4;}
	.st56{fill:#575757;}
	.st57{fill-rule:evenodd;clip-rule:evenodd;fill:#4B4A4B;}
	.st58{fill:#8CD3DA;}
	.st59{fill:#8D8D8C;}
	.st60{fill:#8D9091;}
	.st61{fill-rule:evenodd;clip-rule:evenodd;fill:#E8C790;}
	.st62{fill:#202121;}
	.st63{fill-rule:evenodd;clip-rule:evenodd;fill:#E9CA92;}
	.st64{fill:#BEBC6A;}
	.st65{fill:#F06668;}
	.st66{fill:#BFBEBE;}
	.st67{fill:#F0D359;}
	.st68{fill:#F0F1AF;}
	.st69{fill-rule:evenodd;clip-rule:evenodd;fill:#B14D26;}
	.st70{fill:#22C48A;}
	.st71{fill:#F1D250;}
	.st72{fill:#F1E089;}
	.st73{fill:#F1F1B3;}
	.st74{fill:#F2BE3E;}
	.st75{fill:#F37C2A;}
	.st76{fill:#256533;}
	.st77{fill:#F4D967;}
	.st78{fill:#F4E028;}
	.st79{fill:#F4F5F5;}
	.st80{fill-rule:evenodd;clip-rule:evenodd;fill:#B5B2B3;}
	.st81{fill:#F5D827;}
	.st82{fill:#F5E554;}
	.st83{fill:#276D69;}
	.st84{fill-rule:evenodd;clip-rule:evenodd;fill:#B6AE8F;}
	.st85{fill:#F6A2A3;}
	.st86{fill-rule:evenodd;clip-rule:evenodd;fill:#1CAAB9;}
	.st87{fill-rule:evenodd;clip-rule:evenodd;fill:#888888;}
	.st88{fill:#F7D98B;}
	.st89{fill:#F7E497;}
	.st90{fill:#F8DE71;}
	.st91{fill-rule:evenodd;clip-rule:evenodd;fill:#ECE1D0;}
	.st92{fill:#F9F29A;}
	.st93{fill-rule:evenodd;clip-rule:evenodd;fill:#EDC92C;}
	.st94{clip-path:url(#SVGID_2_);}
	.st95{fill:#90682F;}
	.st96{fill:#C0C0C0;}
	.st97{fill:#93793D;}
	.st98{fill:#939292;}
	.st99{fill:#93D1BD;}
	.st100{fill:#949897;}
	.st101{fill:#94D0D0;}
	.st102{fill:#954E9D;}
	.st103{fill:#958469;}
	.st104{fill:#C4BC98;}
	.st105{fill:#C698C5;}
	.st106{fill:#2C6973;}
	.st107{fill:#FAF2F2;}
	.st108{fill:#C7E8ED;}
	.st109{fill:#2E2F2F;}
	.st110{fill:#2F8442;}
	.st111{opacity:0.3;}
	.st112{fill:#606060;}
	.st113{fill:#616A89;}
	.st114{fill:#61BECD;}
	.st115{fill:#FFC200;}
	.st116{fill:#FFFFFF;}
	.st117{fill:#626463;}
	.st118{fill:#63A2AC;}
	.st119{fill-rule:evenodd;clip-rule:evenodd;fill:#F2E8D3;}
	.st120{fill:none;}
	.st121{fill:#9A7338;}
	.st122{fill-rule:evenodd;clip-rule:evenodd;fill:#F5D8A4;}
	.st123{fill-rule:evenodd;clip-rule:evenodd;fill:#F5DFB5;}
	.st124{fill:#9B7842;}
	.st125{fill:#67B8CB;}
	.st126{fill:#9D5D26;}
	.st127{fill:#9D9E9F;}
	.st128{fill:#CDCCCB;}
	.st129{fill:#9EA3B6;}
	.st130{fill:#9F77AA;}
	.st131{fill-rule:evenodd;clip-rule:evenodd;fill:#C0BEBF;}
	.st132{fill-rule:evenodd;clip-rule:evenodd;fill:#C15E28;}
	.st133{fill:#343433;}
	.st134{fill:#355957;}
	.st135{fill:#357180;}
	.st136{fill:#35B167;}
	.st137{fill-rule:evenodd;clip-rule:evenodd;fill:#97A0A0;}
	.st138{fill:#6C6C6B;}
	.st139{fill:#6CC077;}
	.st140{fill:#6EC2CB;}
	.st141{fill:#6FB698;}
	.st142{fill-rule:evenodd;clip-rule:evenodd;fill:#616161;}
	.st143{fill:#D0D1D1;}
	.st144{fill-rule:evenodd;clip-rule:evenodd;fill:#FFF4E4;}
	.st145{fill:#D2CBA6;}
	.st146{fill:#D2D2D2;}
	.st147{fill:#D68828;}
	.st148{fill:#D68A28;}
	.st149{fill:#3D3428;}
	.st150{fill:#3D4040;}
	.st151{fill:#3D969F;}
	.st152{fill-rule:evenodd;clip-rule:evenodd;fill:#CDCCCB;}
	.st153{fill:#A0D5D9;}
	.st154{fill:#A2D4DE;}
	.st155{fill:#A3D4AA;}
	.st156{fill:#A48A47;}
	.st157{fill:#75B7BB;}
	.st158{fill:#776850;}
	.st159{fill:#DAC425;}
	.st160{fill:#DBBD40;}
	.st161{fill:#DBC55E;}
	.st162{fill:#DBDBDA;}
	.st163{fill:#DBF0F5;}
	.st164{fill:#DCDBDC;}
	.st165{fill:#DDDDDC;}
	.st166{fill-rule:evenodd;clip-rule:evenodd;fill:#6EC2CB;}
	.st167{fill:#DFBFDB;}
	.st168{fill:#DFCC6B;}
	.st169{fill:#448590;}
]]>
</style>
<g>
	<g>
		<circle class="st24" cx="69.082" cy="70.748" r="63.333"/>
	</g>
	<g>
		<g>
			<g>
				<path class="st19" d="M106.062,69.509C89.39,52.188,72.054,52.898,71.214,52.945c-0.846-0.047-18.176-0.757-34.848,16.564
					c0.17-0.145-1.172,1.158-1.119,2.789l0,0c0,0,0,0,0,0.004c-0.053,1.627,1.289,2.928,1.119,2.785
					c16.672,17.32,34.002,16.609,34.848,16.564c0.84,0.045,18.176,0.756,34.848-16.564c-0.17,0.143,1.17-1.158,1.119-2.785
					c0-0.004,0-0.004,0-0.004l0,0C107.231,70.667,105.892,69.365,106.062,69.509z"/>
			</g>
			<g>
				<path class="st116" d="M102.632,69.783c-15.029-15.617-30.66-14.975-31.418-14.932c-0.764-0.043-16.389-0.685-31.42,14.932
					c0.154-0.131-1.055,1.047-1.008,2.516l0,0c0,0,0,0,0,0.004c-0.047,1.467,1.162,2.641,1.008,2.51
					c15.031,15.617,30.656,14.975,31.42,14.936c0.758,0.039,16.389,0.682,31.418-14.936c-0.152,0.131,1.057-1.043,1.008-2.51
					c0-0.004,0-0.004,0-0.004l0,0C103.688,70.83,102.479,69.652,102.632,69.783z"/>
			</g>
			<g>
				<circle class="st19" cx="71.506" cy="72.414" r="12.476"/>
			</g>
			<g>
				<path class="st116" d="M81.692,67.037c0,2.894-2.344,5.242-5.24,5.242c-2.898,0-5.246-2.348-5.246-5.242
					c0-2.896,2.348-5.244,5.246-5.244C79.349,61.793,81.692,64.141,81.692,67.037z"/>
			</g>
		</g>
		<g>
			<path class="st116" d="M45.548,45.322h-6.371v-6.371c0-1.083-1.676-1.964-2.76-1.964c-1.082,0-2.791,0.881-2.791,1.964v6.371
				h-6.369c-1.086,0-1.965,1.676-1.965,2.76c0,1.081,0.879,2.792,1.965,2.792h6.369v6.37c0,1.084,1.709,1.965,2.791,1.965
				c1.084,0,2.76-0.881,2.76-1.965v-6.37h6.371c1.084,0,1.963-1.711,1.963-2.792C47.511,46.998,46.632,45.322,45.548,45.322z"/>
			<path class="st116" d="M36.417,59.709c-1.325,0-3.291-1.035-3.291-2.465v-5.87h-5.869c-1.43,0-2.465-1.966-2.465-3.292
				c0-1.313,1.035-3.26,2.465-3.26h5.869v-5.871c0-1.43,1.966-2.464,3.291-2.464c1.313,0,3.26,1.034,3.26,2.464v5.871h5.871
				c1.429,0,2.463,1.947,2.463,3.26c0,1.326-1.034,3.292-2.463,3.292h-5.871v5.87C39.677,58.674,37.729,59.709,36.417,59.709z
				 M27.257,45.822c-0.693,0-1.465,1.348-1.465,2.26c0,0.926,0.771,2.292,1.465,2.292h6.869v6.87c0,0.693,1.365,1.465,2.291,1.465
				c0.913,0,2.26-0.771,2.26-1.465v-6.87h6.871c0.692,0,1.463-1.366,1.463-2.292c0-0.912-0.771-2.26-1.463-2.26h-6.871v-6.871
				c0-0.693-1.347-1.464-2.26-1.464c-0.926,0-2.291,0.771-2.291,1.464v6.871H27.257z"/>
		</g>
		<g class="st37">
			<path class="st107" d="M55.104,72.414c0-9.057,7.342-16.401,16.4-16.401c5.994,0,6.744,32.801,0,32.801
				C62.446,88.814,55.104,81.472,55.104,72.414z"/>
		</g>
	</g>
</g>
</svg>
