<?xml version="1.0" encoding="utf-8"?>
<!-- Generator: Adobe Illustrator 16.0.0, SVG Export Plug-In . SVG Version: 6.00 Build 0)  -->
<!DOCTYPE svg PUBLIC "-//W3C//DTD SVG 1.1//EN" "http://www.w3.org/Graphics/SVG/1.1/DTD/svg11.dtd">
<svg version="1.1" id="Layer_1" xmlns="http://www.w3.org/2000/svg" xmlns:xlink="http://www.w3.org/1999/xlink" x="0px" y="0px"
	 width="136.833px" height="136.834px" viewBox="0 0 136.833 136.834" style="enable-background:new 0 0 136.833 136.834;"
	 xml:space="preserve">
<style type="text/css">
<![CDATA[
	.st0{fill:#7AC3A7;}
	.st1{fill:#AA9C87;}
	.st2{fill:#AAAAAA;}
	.st3{fill:#494A4A;}
	.st4{fill:#AC782B;}
	.st5{fill:#49A0AE;}
	.st6{fill:#AD6F2D;}
	.st7{fill-rule:evenodd;clip-rule:evenodd;fill:#3EB5B5;}
	.st8{fill:#AE8A50;}
	.st9{fill:#7F8092;}
	.st10{fill:#AEADAD;}
	.st11{fill:#AEAEAF;}
	.st12{fill:#129949;}
	.st13{fill:#E1E1E1;}
	.st14{fill:#E2DD3E;}
	.st15{fill-rule:evenodd;clip-rule:evenodd;fill:#757575;}
	.st16{fill:#E4E4E4;}
	.st17{fill:#E57931;}
	.st18{fill:#4AA0A5;}
	.st19{fill:#4B4A4B;}
	.st20{fill:#E79E2D;}
	.st21{fill-rule:evenodd;clip-rule:evenodd;fill:#DBB626;}
	.st22{fill:#E7E760;}
	.st23{fill:#19A855;}
	.st24{fill:#E84849;}
	.st25{fill:#4E4F50;}
	.st26{fill:#4EA3B1;}
	.st27{fill:#E9CA92;}
	.st28{fill:#E9E8A1;}
	.st29{fill:#E9E8A3;}
	.st30{fill:#B03738;}
	.st31{fill:#818282;}
	.st32{fill:#81BCB9;}
	.st33{fill:#B19353;}
	.st34{fill:#825E2D;}
	.st35{fill:#B1B1B2;}
	.st36{fill:#B2B2B2;}
	.st37{opacity:0.15;}
	.st38{fill:#848698;}
	.st39{fill:#B3DCE2;}
	.st40{fill:#B4B4B5;}
	.st41{fill:#1A3940;}
	.st42{fill:#B6E2EB;}
	.st43{fill:#888888;}
	.st44{fill:#B7DFD2;}
	.st45{fill:#1D1E1E;}
	.st46{fill:#ED3351;}
	.st47{fill:#EDC92C;}
	.st48{fill:#EDE8C9;}
	.st49{fill:#1FA85B;}
	.st50{fill-rule:evenodd;clip-rule:evenodd;fill:#AEAEAF;}
	.st51{fill:#EEDD7A;}
	.st52{fill:#52BA73;}
	.st53{fill:#56385F;}
	.st54{fill:#56939A;}
	.st55{fill:#8AC5C4;}
	.st56{fill:#575757;}
	.st57{fill-rule:evenodd;clip-rule:evenodd;fill:#4B4A4B;}
	.st58{fill:#8CD3DA;}
	.st59{fill:#8D8D8C;}
	.st60{fill:#8D9091;}
	.st61{fill-rule:evenodd;clip-rule:evenodd;fill:#E8C790;}
	.st62{fill:#202121;}
	.st63{fill-rule:evenodd;clip-rule:evenodd;fill:#E9CA92;}
	.st64{fill:#BEBC6A;}
	.st65{fill:#F06668;}
	.st66{fill:#BFBEBE;}
	.st67{fill:#F0D359;}
	.st68{fill:#F0F1AF;}
	.st69{fill-rule:evenodd;clip-rule:evenodd;fill:#B14D26;}
	.st70{fill:#22C48A;}
	.st71{fill:#F1D250;}
	.st72{fill:#F1E089;}
	.st73{fill:#F1F1B3;}
	.st74{fill:#F2BE3E;}
	.st75{fill:#F37C2A;}
	.st76{fill:#256533;}
	.st77{fill:#F4D967;}
	.st78{fill:#F4E028;}
	.st79{fill:#F4F5F5;}
	.st80{fill-rule:evenodd;clip-rule:evenodd;fill:#B5B2B3;}
	.st81{fill:#F5D827;}
	.st82{fill:#F5E554;}
	.st83{fill:#276D69;}
	.st84{fill-rule:evenodd;clip-rule:evenodd;fill:#B6AE8F;}
	.st85{fill:#F6A2A3;}
	.st86{fill-rule:evenodd;clip-rule:evenodd;fill:#1CAAB9;}
	.st87{fill-rule:evenodd;clip-rule:evenodd;fill:#888888;}
	.st88{fill:#F7D98B;}
	.st89{fill:#F7E497;}
	.st90{fill:#F8DE71;}
	.st91{fill-rule:evenodd;clip-rule:evenodd;fill:#ECE1D0;}
	.st92{fill:#F9F29A;}
	.st93{fill-rule:evenodd;clip-rule:evenodd;fill:#EDC92C;}
	.st94{clip-path:url(#SVGID_2_);}
	.st95{fill:#90682F;}
	.st96{fill:#C0C0C0;}
	.st97{fill:#93793D;}
	.st98{fill:#939292;}
	.st99{fill:#93D1BD;}
	.st100{fill:#949897;}
	.st101{fill:#94D0D0;}
	.st102{fill:#954E9D;}
	.st103{fill:#958469;}
	.st104{fill:#C4BC98;}
	.st105{fill:#C698C5;}
	.st106{fill:#2C6973;}
	.st107{fill:#FAF2F2;}
	.st108{fill:#C7E8ED;}
	.st109{fill:#2E2F2F;}
	.st110{fill:#2F8442;}
	.st111{opacity:0.3;}
	.st112{fill:#606060;}
	.st113{fill:#616A89;}
	.st114{fill:#61BECD;}
	.st115{fill:#FFC200;}
	.st116{fill:#FFFFFF;}
	.st117{fill:#626463;}
	.st118{fill:#63A2AC;}
	.st119{fill-rule:evenodd;clip-rule:evenodd;fill:#F2E8D3;}
	.st120{fill:none;}
	.st121{fill:#9A7338;}
	.st122{fill-rule:evenodd;clip-rule:evenodd;fill:#F5D8A4;}
	.st123{fill-rule:evenodd;clip-rule:evenodd;fill:#F5DFB5;}
	.st124{fill:#9B7842;}
	.st125{fill:#67B8CB;}
	.st126{fill:#9D5D26;}
	.st127{fill:#9D9E9F;}
	.st128{fill:#CDCCCB;}
	.st129{fill:#9EA3B6;}
	.st130{fill:#9F77AA;}
	.st131{fill-rule:evenodd;clip-rule:evenodd;fill:#C0BEBF;}
	.st132{fill-rule:evenodd;clip-rule:evenodd;fill:#C15E28;}
	.st133{fill:#343433;}
	.st134{fill:#355957;}
	.st135{fill:#357180;}
	.st136{fill:#35B167;}
	.st137{fill-rule:evenodd;clip-rule:evenodd;fill:#97A0A0;}
	.st138{fill:#6C6C6B;}
	.st139{fill:#6CC077;}
	.st140{fill:#6EC2CB;}
	.st141{fill:#6FB698;}
	.st142{fill-rule:evenodd;clip-rule:evenodd;fill:#616161;}
	.st143{fill:#D0D1D1;}
	.st144{fill-rule:evenodd;clip-rule:evenodd;fill:#FFF4E4;}
	.st145{fill:#D2CBA6;}
	.st146{fill:#D2D2D2;}
	.st147{fill:#D68828;}
	.st148{fill:#D68A28;}
	.st149{fill:#3D3428;}
	.st150{fill:#3D4040;}
	.st151{fill:#3D969F;}
	.st152{fill-rule:evenodd;clip-rule:evenodd;fill:#CDCCCB;}
	.st153{fill:#A0D5D9;}
	.st154{fill:#A2D4DE;}
	.st155{fill:#A3D4AA;}
	.st156{fill:#A48A47;}
	.st157{fill:#75B7BB;}
	.st158{fill:#776850;}
	.st159{fill:#DAC425;}
	.st160{fill:#DBBD40;}
	.st161{fill:#DBC55E;}
	.st162{fill:#DBDBDA;}
	.st163{fill:#DBF0F5;}
	.st164{fill:#DCDBDC;}
	.st165{fill:#DDDDDC;}
	.st166{fill-rule:evenodd;clip-rule:evenodd;fill:#6EC2CB;}
	.st167{fill:#DFBFDB;}
	.st168{fill:#DFCC6B;}
	.st169{fill:#448590;}
]]>
</style>
<g>
	<g>
		<circle class="st42" cx="68.333" cy="69.981" r="63.333"/>
	</g>
	<g>
		<path class="st26" d="M45.363,39.734c0.003-0.019,0.004-0.034,0.008-0.054C45.367,39.699,45.366,39.716,45.363,39.734z"/>
		<path class="st26" d="M36.402,78.372c-0.039,0.007-0.079,0.016-0.118,0.022c0.313,2.103,0.787,4.146,1.402,6.116
			c2.048-1.391,4.729-1.664,7.206-1.491c-0.304-0.789-0.571-1.599-0.813-2.421C42.812,79.458,39.61,77.826,36.402,78.372z"/>
		<path class="st26" d="M102.521,63.274c0.018-0.002,0.036-0.004,0.054-0.006c-4.439-15.682-19.629-28.082-31.66-27.871
			c-11.619,0.205-22.012,4.172-25.531,4.688c0,0-0.012-0.033-0.022-0.081c0.024,0.309,0.167,0.605,0.44,0.794l26.12,7.115
			c0.485,0.34,1.152,0.219,1.49-0.268l-1.123-6.219c10.83,1.085,19.84,9.261,23.209,20.294
			C97.43,62.74,99.943,63.531,102.521,63.274z"/>
		<path class="st26" d="M41.984,91.96c-0.257,0.188-0.511,0.394-0.76,0.609c1.673,2.879,3.686,5.491,5.98,7.763
			c0.217-0.703,0.498-1.363,0.858-1.962c1.051-1.748,2.882-2.907,4.801-3.684c-1.411-1.261-2.708-2.671-3.866-4.214
			C47.272,90.165,44.248,90.305,41.984,91.96z"/>
		<path class="st26" d="M37.036,64.566c-0.428,1.642-0.78,3.28-0.994,4.811c2.303-0.254,4.652,0.54,6.714,1.67
			c0.007-0.915,0.061-1.824,0.142-2.728C42.01,67.044,39.78,65.096,37.036,64.566z"/>
		<path class="st26" d="M87.801,101.382c0.419,0.604,0.907,1.193,1.493,1.727c2.598-2.016,4.932-4.419,6.93-7.141
			c-2.386-1.019-4.287-3.047-5.75-5.246c-1.23,1.604-2.61,3.063-4.116,4.353C86.184,96.873,86.433,99.395,87.801,101.382z"/>
		<path class="st26" d="M41.264,52.288c-0.296,0.708-0.881,2.135-1.563,3.974c1.948,0.704,3.691,2.092,5.114,3.58
			c0.262-0.7,0.548-1.389,0.857-2.067C45.305,56.334,43.786,53.647,41.264,52.288z"/>
		<path class="st26" d="M101.018,86.495c0.086,0.028,0.173,0.055,0.26,0.082c1.351-3.619,2.201-7.521,2.469-11.599
			c-0.323,0.059-0.646,0.111-0.969,0.144c-2.031,0.205-4.062-0.244-5.977-1.041c-0.222,2.673-0.758,5.246-1.573,7.672
			C96.392,83.545,98.394,85.614,101.018,86.495z"/>
		<path class="st26" d="M72.085,107.706c0.322,0.687,0.718,1.375,1.246,2.011c2.914-0.331,5.718-1.076,8.369-2.173
			c-0.578-0.521-1.091-1.083-1.511-1.695c-1.208-1.757-1.563-3.983-1.518-6.167c-2.166,0.831-4.455,1.364-6.83,1.558
			C71.317,102.871,71.041,105.467,72.085,107.706z"/>
		<path class="st26" d="M54.494,102.968c-0.411,0.688-0.775,1.448-0.991,2.308c3.188,1.942,6.689,3.327,10.394,4.053
			c-0.714-2.809,0.135-6.046,1.105-8.484c-1.782-0.357-3.503-0.907-5.146-1.632C58.282,99.582,55.808,100.777,54.494,102.968z"/>
		<path class="st125" d="M45.371,39.681c0.03-0.13,0.081-0.257,0.161-0.373C45.438,39.45,45.396,39.571,45.371,39.681z"/>
		<path class="st125" d="M45.36,40.004c-0.008-0.09-0.013-0.18,0.003-0.27C45.345,39.851,45.347,39.945,45.36,40.004z"/>
		<path class="st125" d="M37.708,55.8c0.686,0.059,1.348,0.229,1.992,0.462c0.683-1.839,1.268-3.266,1.563-3.974
			c-0.179-0.097-0.349-0.205-0.537-0.287c-1.956-0.844-4.327-1.352-7.424,0.376c-0.835,1.607-1.566,3.261-2.179,4.956
			C33.347,56.2,35.607,55.617,37.708,55.8z"/>
		<path class="st125" d="M70.914,35.397c12.031-0.211,27.221,12.189,31.66,27.871c2.276-0.232,4.707-0.881,6.883-3.09
			c-4.835-17.172-20.548-29.832-39.203-30.02l-1.248-6.914c-0.485-0.34-1.152-0.219-1.489,0.268L45.532,39.308
			c-0.08,0.116-0.131,0.243-0.161,0.373c-0.004,0.02-0.005,0.035-0.008,0.054c-0.016,0.09-0.011,0.18-0.003,0.27
			c0.011,0.048,0.022,0.081,0.022,0.081C48.902,39.569,59.295,35.603,70.914,35.397z"/>
		<path class="st125" d="M101.277,86.577c1.971,0.622,4.225,0.928,6.854-0.195c1.816-4.601,2.833-9.601,2.862-14.832
			c-2.325,1.765-4.788,2.979-7.248,3.429C103.479,79.057,102.628,82.958,101.277,86.577z"/>
		<path class="st125" d="M47.205,100.332c-2.295-2.271-4.308-4.884-5.98-7.763c-1.336,1.156-2.473,2.773-2.677,5.459
			c2.392,2.796,5.144,5.274,8.193,7.349C46.601,103.562,46.741,101.841,47.205,100.332z"/>
		<path class="st125" d="M63.896,109.328c-3.704-0.726-7.205-2.11-10.394-4.053c-0.278,1.105-0.289,2.386,0.193,3.908
			c3.641,1.557,7.55,2.601,11.636,3.047c-0.396-0.523-0.738-1.069-1.003-1.64C64.14,110.185,64.006,109.76,63.896,109.328z"/>
		<path class="st125" d="M37.486,84.634c0.063-0.046,0.135-0.079,0.2-0.123c-0.615-1.971-1.089-4.014-1.402-6.116
			c-2.099,0.38-4.342,1.247-6.034,4.199c0.786,2.755,1.849,5.393,3.163,7.881C34.335,87.995,35.7,85.935,37.486,84.634z"/>
		<path class="st125" d="M73.331,109.717c0.744,0.896,1.768,1.682,3.269,2.199c2.866-0.477,5.63-1.251,8.265-2.288
			c-1.2-0.581-2.269-1.277-3.164-2.084C79.049,108.641,76.245,109.386,73.331,109.717z"/>
		<path class="st125" d="M96.878,96.218c-0.222-0.074-0.44-0.158-0.654-0.25c-1.998,2.722-4.332,5.125-6.93,7.141
			c0.996,0.904,2.299,1.627,4.17,1.885c3.278-2.307,6.203-5.078,8.683-8.219C100.269,96.927,98.483,96.759,96.878,96.218z"/>
		<path class="st125" d="M36.042,69.377c0.214-1.53,0.566-3.169,0.994-4.811c-0.254-0.05-0.506-0.107-0.769-0.13
			c-2.236-0.184-4.78,0.096-7.292,2.975l-0.095-0.082c-0.127,1.32-0.215,2.647-0.215,3.986c0,0.676,0.019,1.346,0.051,2.014
			c2.112-2.076,4.479-3.508,6.895-3.914C35.754,69.391,35.898,69.393,36.042,69.377z"/>
	</g>
</g>
</svg>
