<?xml version="1.0" encoding="utf-8"?>
<!-- Generator: Adobe Illustrator 16.0.0, SVG Export Plug-In . SVG Version: 6.00 Build 0)  -->
<!DOCTYPE svg PUBLIC "-//W3C//DTD SVG 1.1//EN" "http://www.w3.org/Graphics/SVG/1.1/DTD/svg11.dtd">
<svg version="1.1" id="Layer_1" xmlns="http://www.w3.org/2000/svg" xmlns:xlink="http://www.w3.org/1999/xlink" x="0px" y="0px"
	 width="136.833px" height="136.833px" viewBox="0 0 136.833 136.833" style="enable-background:new 0 0 136.833 136.833;"
	 xml:space="preserve">
<style type="text/css">
<![CDATA[
	.st0{fill:#7AC3A7;}
	.st1{fill:#AA9C87;}
	.st2{fill:#AAAAAA;}
	.st3{fill:#494A4A;}
	.st4{fill:#AC782B;}
	.st5{fill:#49A0AE;}
	.st6{fill:#AD6F2D;}
	.st7{fill-rule:evenodd;clip-rule:evenodd;fill:#3EB5B5;}
	.st8{fill:#AE8A50;}
	.st9{fill:#7F8092;}
	.st10{fill:#AEADAD;}
	.st11{fill:#AEAEAF;}
	.st12{fill:#129949;}
	.st13{fill:#E1E1E1;}
	.st14{fill:#E2DD3E;}
	.st15{fill-rule:evenodd;clip-rule:evenodd;fill:#757575;}
	.st16{fill:#E4E4E4;}
	.st17{fill:#E57931;}
	.st18{fill:#4AA0A5;}
	.st19{fill:#4B4A4B;}
	.st20{fill:#E79E2D;}
	.st21{fill-rule:evenodd;clip-rule:evenodd;fill:#DBB626;}
	.st22{fill:#E7E760;}
	.st23{fill:#19A855;}
	.st24{fill:#E84849;}
	.st25{fill:#4E4F50;}
	.st26{fill:#4EA3B1;}
	.st27{fill:#E9CA92;}
	.st28{fill:#E9E8A1;}
	.st29{fill:#E9E8A3;}
	.st30{fill:#B03738;}
	.st31{fill:#818282;}
	.st32{fill:#81BCB9;}
	.st33{fill:#B19353;}
	.st34{fill:#825E2D;}
	.st35{fill:#B1B1B2;}
	.st36{fill:#B2B2B2;}
	.st37{opacity:0.15;}
	.st38{fill:#848698;}
	.st39{fill:#B3DCE2;}
	.st40{fill:#B4B4B5;}
	.st41{fill:#1A3940;}
	.st42{fill:#B6E2EB;}
	.st43{fill:#888888;}
	.st44{fill:#B7DFD2;}
	.st45{fill:#1D1E1E;}
	.st46{fill:#ED3351;}
	.st47{fill:#EDC92C;}
	.st48{fill:#EDE8C9;}
	.st49{fill:#1FA85B;}
	.st50{fill-rule:evenodd;clip-rule:evenodd;fill:#AEAEAF;}
	.st51{fill:#EEDD7A;}
	.st52{fill:#52BA73;}
	.st53{fill:#56385F;}
	.st54{fill:#56939A;}
	.st55{fill:#8AC5C4;}
	.st56{fill:#575757;}
	.st57{fill-rule:evenodd;clip-rule:evenodd;fill:#4B4A4B;}
	.st58{fill:#8CD3DA;}
	.st59{fill:#8D8D8C;}
	.st60{fill:#8D9091;}
	.st61{fill-rule:evenodd;clip-rule:evenodd;fill:#E8C790;}
	.st62{fill:#202121;}
	.st63{fill-rule:evenodd;clip-rule:evenodd;fill:#E9CA92;}
	.st64{fill:#BEBC6A;}
	.st65{fill:#F06668;}
	.st66{fill:#BFBEBE;}
	.st67{fill:#F0D359;}
	.st68{fill:#F0F1AF;}
	.st69{fill-rule:evenodd;clip-rule:evenodd;fill:#B14D26;}
	.st70{fill:#22C48A;}
	.st71{fill:#F1D250;}
	.st72{fill:#F1E089;}
	.st73{fill:#F1F1B3;}
	.st74{fill:#F2BE3E;}
	.st75{fill:#F37C2A;}
	.st76{fill:#256533;}
	.st77{fill:#F4D967;}
	.st78{fill:#F4E028;}
	.st79{fill:#F4F5F5;}
	.st80{fill-rule:evenodd;clip-rule:evenodd;fill:#B5B2B3;}
	.st81{fill:#F5D827;}
	.st82{fill:#F5E554;}
	.st83{fill:#276D69;}
	.st84{fill-rule:evenodd;clip-rule:evenodd;fill:#B6AE8F;}
	.st85{fill:#F6A2A3;}
	.st86{fill-rule:evenodd;clip-rule:evenodd;fill:#1CAAB9;}
	.st87{fill-rule:evenodd;clip-rule:evenodd;fill:#888888;}
	.st88{fill:#F7D98B;}
	.st89{fill:#F7E497;}
	.st90{fill:#F8DE71;}
	.st91{fill-rule:evenodd;clip-rule:evenodd;fill:#ECE1D0;}
	.st92{fill:#F9F29A;}
	.st93{fill-rule:evenodd;clip-rule:evenodd;fill:#EDC92C;}
	.st94{clip-path:url(#SVGID_2_);}
	.st95{fill:#90682F;}
	.st96{fill:#C0C0C0;}
	.st97{fill:#93793D;}
	.st98{fill:#939292;}
	.st99{fill:#93D1BD;}
	.st100{fill:#949897;}
	.st101{fill:#94D0D0;}
	.st102{fill:#954E9D;}
	.st103{fill:#958469;}
	.st104{fill:#C4BC98;}
	.st105{fill:#C698C5;}
	.st106{fill:#2C6973;}
	.st107{fill:#FAF2F2;}
	.st108{fill:#C7E8ED;}
	.st109{fill:#2E2F2F;}
	.st110{fill:#2F8442;}
	.st111{opacity:0.3;}
	.st112{fill:#606060;}
	.st113{fill:#616A89;}
	.st114{fill:#61BECD;}
	.st115{fill:#FFC200;}
	.st116{fill:#FFFFFF;}
	.st117{fill:#626463;}
	.st118{fill:#63A2AC;}
	.st119{fill-rule:evenodd;clip-rule:evenodd;fill:#F2E8D3;}
	.st120{fill:none;}
	.st121{fill:#9A7338;}
	.st122{fill-rule:evenodd;clip-rule:evenodd;fill:#F5D8A4;}
	.st123{fill-rule:evenodd;clip-rule:evenodd;fill:#F5DFB5;}
	.st124{fill:#9B7842;}
	.st125{fill:#67B8CB;}
	.st126{fill:#9D5D26;}
	.st127{fill:#9D9E9F;}
	.st128{fill:#CDCCCB;}
	.st129{fill:#9EA3B6;}
	.st130{fill:#9F77AA;}
	.st131{fill-rule:evenodd;clip-rule:evenodd;fill:#C0BEBF;}
	.st132{fill-rule:evenodd;clip-rule:evenodd;fill:#C15E28;}
	.st133{fill:#343433;}
	.st134{fill:#355957;}
	.st135{fill:#357180;}
	.st136{fill:#35B167;}
	.st137{fill-rule:evenodd;clip-rule:evenodd;fill:#97A0A0;}
	.st138{fill:#6C6C6B;}
	.st139{fill:#6CC077;}
	.st140{fill:#6EC2CB;}
	.st141{fill:#6FB698;}
	.st142{fill-rule:evenodd;clip-rule:evenodd;fill:#616161;}
	.st143{fill:#D0D1D1;}
	.st144{fill-rule:evenodd;clip-rule:evenodd;fill:#FFF4E4;}
	.st145{fill:#D2CBA6;}
	.st146{fill:#D2D2D2;}
	.st147{fill:#D68828;}
	.st148{fill:#D68A28;}
	.st149{fill:#3D3428;}
	.st150{fill:#3D4040;}
	.st151{fill:#3D969F;}
	.st152{fill-rule:evenodd;clip-rule:evenodd;fill:#CDCCCB;}
	.st153{fill:#A0D5D9;}
	.st154{fill:#A2D4DE;}
	.st155{fill:#A3D4AA;}
	.st156{fill:#A48A47;}
	.st157{fill:#75B7BB;}
	.st158{fill:#776850;}
	.st159{fill:#DAC425;}
	.st160{fill:#DBBD40;}
	.st161{fill:#DBC55E;}
	.st162{fill:#DBDBDA;}
	.st163{fill:#DBF0F5;}
	.st164{fill:#DCDBDC;}
	.st165{fill:#DDDDDC;}
	.st166{fill-rule:evenodd;clip-rule:evenodd;fill:#6EC2CB;}
	.st167{fill:#DFBFDB;}
	.st168{fill:#DFCC6B;}
	.st169{fill:#448590;}
]]>
</style>
<g>
	<g>
		<path class="st70" d="M4.633,72.171c0-35.078,28.438-63.515,63.518-63.515c35.078,0,63.516,28.438,63.516,63.515
			c0,35.082-28.438,63.518-63.516,63.518C33.07,135.689,4.633,107.253,4.633,72.171z"/>
	</g>
	<g>
		<g>
			<g>
				<polygon class="st88" points="49.162,36.378 37.637,76.599 37.549,79.166 62.461,78.552 62.344,76.605 				"/>
			</g>
		</g>
		<g>
			<g>
				<polygon class="st117" points="49.094,36.152 44.078,53.719 54.886,53.719 				"/>
			</g>
		</g>
		<g>
			<g>
				<g>
					<path class="st24" d="M60.687,74.484l-3.628,4.07l-0.022,56.146c1.776,0.313,3.576,0.557,5.4,0.721l0.024-56.869L60.687,74.484
						z"/>
				</g>
			</g>
			<g>
				<g>
					<path class="st24" d="M48.708,132.646l0.025-54.096l-3.724-4.066l-3.43,4.068l-0.02,51.303
						C43.872,130.921,46.256,131.859,48.708,132.646z"/>
				</g>
			</g>
			<g>
				<g>
					<path class="st65" d="M41.58,78.552l-3.014-4.07l-1.05,4.068l-0.022,49.256c1.326,0.73,2.685,1.41,4.066,2.049L41.58,78.552z"
						/>
				</g>
			</g>
			<g>
				<g>
					<path class="st65" d="M57.036,134.701l0.022-56.146l-4.167-4.07l-4.158,4.066l-0.025,54.096
						C51.409,133.515,54.19,134.199,57.036,134.701z"/>
				</g>
			</g>
		</g>
	</g>
	<g>
		<g>
			<path class="st83" d="M92.838,64.881c-1.098,11.265-4.859,8.617-8.814,8.617c-3.879,0-7.48,2.52-8.813-8.615
				c-1.326-11.087,8.813-30.047,8.813-30.047S93.92,53.782,92.838,64.881z"/>
		</g>
		<g>
			<path class="st134" d="M84.023,73.498c-3.879,0-7.48,2.52-8.813-8.615c-1.326-11.087,8.813-30.047,8.813-30.047V73.498z"/>
		</g>
		<g>
			<g>
				<g>
					<path class="st20" d="M78.574,73.623l-4.994,56.488l-0.29,3.99c0.162-1.523,0.29-2.945,0.29-3.662l4.994-56.77
						c0-0.92,2.906-1.322,5.816-1.295c0,0,0,48.49-0.002,61.211c3.737-0.984,7.337-2.305,10.771-3.92l-4.954-56.043
						C90.205,72.015,78.574,71.792,78.574,73.623z"/>
				</g>
			</g>
			<g>
				<g>
					<path class="st148" d="M73.29,134.101c-0.049,0.455-0.101,0.918-0.152,1.375c0.018-0.002,0.035-0.002,0.053-0.004
						L73.29,134.101z"/>
				</g>
			</g>
			<g>
				<g>
					<path class="st148" d="M84.389,133.585c0.002-12.721,0.002-61.211,0.002-61.211c-2.91-0.027-5.816,0.375-5.816,1.295
						l-4.994,56.77c0,0.717-0.128,2.139-0.29,3.662l-0.1,1.371C77.028,135.169,80.773,134.541,84.389,133.585z"/>
				</g>
			</g>
		</g>
		<g>
			<path class="st128" d="M78.889,73.617l-4.248,45.551l19.85,0.105l-3.973-45.656C90.518,72.091,78.889,71.882,78.889,73.617z"/>
		</g>
		<g>
			<path class="st35" d="M78.574,73.597l-3.934,45.57l9.758-0.021c0,0,0.393-46.77-0.008-46.77
				C81.484,72.376,78.574,72.728,78.574,73.597z"/>
		</g>
		<g>
			<path class="st66" d="M77.859,83.117l-2.949,33.098l19.365,0.27l-2.951-33.207C91.324,82.119,77.861,81.796,77.859,83.117z"/>
		</g>
		<g>
			<path class="st2" d="M78.574,73.597l-3.719,42.832l9.57-0.121c0,0,0.262-43.932-0.035-43.932
				C81.484,72.376,78.574,72.728,78.574,73.597z"/>
		</g>
	</g>
	<g>
		<path class="st120" d="M4.633,72.171c0-35.078,28.438-63.515,63.518-63.515c35.078,0,63.516,28.438,63.516,63.515
			c0,35.082-28.438,63.518-63.516,63.518C33.07,135.689,4.633,107.253,4.633,72.171z"/>
	</g>
</g>
</svg>
