<?xml version="1.0" encoding="utf-8"?>
<!-- Generator: Adobe Illustrator 16.0.0, SVG Export Plug-In . SVG Version: 6.00 Build 0)  -->
<!DOCTYPE svg PUBLIC "-//W3C//DTD SVG 1.1//EN" "http://www.w3.org/Graphics/SVG/1.1/DTD/svg11.dtd">
<svg version="1.1" id="Layer_1" xmlns="http://www.w3.org/2000/svg" xmlns:xlink="http://www.w3.org/1999/xlink" x="0px" y="0px"
	 width="136.833px" height="136.834px" viewBox="0 0 136.833 136.834" style="enable-background:new 0 0 136.833 136.834;"
	 xml:space="preserve">
<style type="text/css">
<![CDATA[
	.st0{fill:#7AC3A7;}
	.st1{fill:#AA9C87;}
	.st2{fill:#AAAAAA;}
	.st3{fill:#494A4A;}
	.st4{fill:#AC782B;}
	.st5{fill:#49A0AE;}
	.st6{fill:#AD6F2D;}
	.st7{fill-rule:evenodd;clip-rule:evenodd;fill:#3EB5B5;}
	.st8{fill:#AE8A50;}
	.st9{fill:#7F8092;}
	.st10{fill:#AEADAD;}
	.st11{fill:#AEAEAF;}
	.st12{fill:#129949;}
	.st13{fill:#E1E1E1;}
	.st14{fill:#E2DD3E;}
	.st15{fill-rule:evenodd;clip-rule:evenodd;fill:#757575;}
	.st16{fill:#E4E4E4;}
	.st17{fill:#E57931;}
	.st18{fill:#4AA0A5;}
	.st19{fill:#4B4A4B;}
	.st20{fill:#E79E2D;}
	.st21{fill-rule:evenodd;clip-rule:evenodd;fill:#DBB626;}
	.st22{fill:#E7E760;}
	.st23{fill:#19A855;}
	.st24{fill:#E84849;}
	.st25{fill:#4E4F50;}
	.st26{fill:#4EA3B1;}
	.st27{fill:#E9CA92;}
	.st28{fill:#E9E8A1;}
	.st29{fill:#E9E8A3;}
	.st30{fill:#B03738;}
	.st31{fill:#818282;}
	.st32{fill:#81BCB9;}
	.st33{fill:#B19353;}
	.st34{fill:#825E2D;}
	.st35{fill:#B1B1B2;}
	.st36{fill:#B2B2B2;}
	.st37{opacity:0.15;}
	.st38{fill:#848698;}
	.st39{fill:#B3DCE2;}
	.st40{fill:#B4B4B5;}
	.st41{fill:#1A3940;}
	.st42{fill:#B6E2EB;}
	.st43{fill:#888888;}
	.st44{fill:#B7DFD2;}
	.st45{fill:#1D1E1E;}
	.st46{fill:#ED3351;}
	.st47{fill:#EDC92C;}
	.st48{fill:#EDE8C9;}
	.st49{fill:#1FA85B;}
	.st50{fill-rule:evenodd;clip-rule:evenodd;fill:#AEAEAF;}
	.st51{fill:#EEDD7A;}
	.st52{fill:#52BA73;}
	.st53{fill:#56385F;}
	.st54{fill:#56939A;}
	.st55{fill:#8AC5C4;}
	.st56{fill:#575757;}
	.st57{fill-rule:evenodd;clip-rule:evenodd;fill:#4B4A4B;}
	.st58{fill:#8CD3DA;}
	.st59{fill:#8D8D8C;}
	.st60{fill:#8D9091;}
	.st61{fill-rule:evenodd;clip-rule:evenodd;fill:#E8C790;}
	.st62{fill:#202121;}
	.st63{fill-rule:evenodd;clip-rule:evenodd;fill:#E9CA92;}
	.st64{fill:#BEBC6A;}
	.st65{fill:#F06668;}
	.st66{fill:#BFBEBE;}
	.st67{fill:#F0D359;}
	.st68{fill:#F0F1AF;}
	.st69{fill-rule:evenodd;clip-rule:evenodd;fill:#B14D26;}
	.st70{fill:#22C48A;}
	.st71{fill:#F1D250;}
	.st72{fill:#F1E089;}
	.st73{fill:#F1F1B3;}
	.st74{fill:#F2BE3E;}
	.st75{fill:#F37C2A;}
	.st76{fill:#256533;}
	.st77{fill:#F4D967;}
	.st78{fill:#F4E028;}
	.st79{fill:#F4F5F5;}
	.st80{fill-rule:evenodd;clip-rule:evenodd;fill:#B5B2B3;}
	.st81{fill:#F5D827;}
	.st82{fill:#F5E554;}
	.st83{fill:#276D69;}
	.st84{fill-rule:evenodd;clip-rule:evenodd;fill:#B6AE8F;}
	.st85{fill:#F6A2A3;}
	.st86{fill-rule:evenodd;clip-rule:evenodd;fill:#1CAAB9;}
	.st87{fill-rule:evenodd;clip-rule:evenodd;fill:#888888;}
	.st88{fill:#F7D98B;}
	.st89{fill:#F7E497;}
	.st90{fill:#F8DE71;}
	.st91{fill-rule:evenodd;clip-rule:evenodd;fill:#ECE1D0;}
	.st92{fill:#F9F29A;}
	.st93{fill-rule:evenodd;clip-rule:evenodd;fill:#EDC92C;}
	.st94{clip-path:url(#SVGID_2_);}
	.st95{fill:#90682F;}
	.st96{fill:#C0C0C0;}
	.st97{fill:#93793D;}
	.st98{fill:#939292;}
	.st99{fill:#93D1BD;}
	.st100{fill:#949897;}
	.st101{fill:#94D0D0;}
	.st102{fill:#954E9D;}
	.st103{fill:#958469;}
	.st104{fill:#C4BC98;}
	.st105{fill:#C698C5;}
	.st106{fill:#2C6973;}
	.st107{fill:#FAF2F2;}
	.st108{fill:#C7E8ED;}
	.st109{fill:#2E2F2F;}
	.st110{fill:#2F8442;}
	.st111{opacity:0.3;}
	.st112{fill:#606060;}
	.st113{fill:#616A89;}
	.st114{fill:#61BECD;}
	.st115{fill:#FFC200;}
	.st116{fill:#FFFFFF;}
	.st117{fill:#626463;}
	.st118{fill:#63A2AC;}
	.st119{fill-rule:evenodd;clip-rule:evenodd;fill:#F2E8D3;}
	.st120{fill:none;}
	.st121{fill:#9A7338;}
	.st122{fill-rule:evenodd;clip-rule:evenodd;fill:#F5D8A4;}
	.st123{fill-rule:evenodd;clip-rule:evenodd;fill:#F5DFB5;}
	.st124{fill:#9B7842;}
	.st125{fill:#67B8CB;}
	.st126{fill:#9D5D26;}
	.st127{fill:#9D9E9F;}
	.st128{fill:#CDCCCB;}
	.st129{fill:#9EA3B6;}
	.st130{fill:#9F77AA;}
	.st131{fill-rule:evenodd;clip-rule:evenodd;fill:#C0BEBF;}
	.st132{fill-rule:evenodd;clip-rule:evenodd;fill:#C15E28;}
	.st133{fill:#343433;}
	.st134{fill:#355957;}
	.st135{fill:#357180;}
	.st136{fill:#35B167;}
	.st137{fill-rule:evenodd;clip-rule:evenodd;fill:#97A0A0;}
	.st138{fill:#6C6C6B;}
	.st139{fill:#6CC077;}
	.st140{fill:#6EC2CB;}
	.st141{fill:#6FB698;}
	.st142{fill-rule:evenodd;clip-rule:evenodd;fill:#616161;}
	.st143{fill:#D0D1D1;}
	.st144{fill-rule:evenodd;clip-rule:evenodd;fill:#FFF4E4;}
	.st145{fill:#D2CBA6;}
	.st146{fill:#D2D2D2;}
	.st147{fill:#D68828;}
	.st148{fill:#D68A28;}
	.st149{fill:#3D3428;}
	.st150{fill:#3D4040;}
	.st151{fill:#3D969F;}
	.st152{fill-rule:evenodd;clip-rule:evenodd;fill:#CDCCCB;}
	.st153{fill:#A0D5D9;}
	.st154{fill:#A2D4DE;}
	.st155{fill:#A3D4AA;}
	.st156{fill:#A48A47;}
	.st157{fill:#75B7BB;}
	.st158{fill:#776850;}
	.st159{fill:#DAC425;}
	.st160{fill:#DBBD40;}
	.st161{fill:#DBC55E;}
	.st162{fill:#DBDBDA;}
	.st163{fill:#DBF0F5;}
	.st164{fill:#DCDBDC;}
	.st165{fill:#DDDDDC;}
	.st166{fill-rule:evenodd;clip-rule:evenodd;fill:#6EC2CB;}
	.st167{fill:#DFBFDB;}
	.st168{fill:#DFCC6B;}
	.st169{fill:#448590;}
]]>
</style>
<g>
	<g>
		<circle class="st115" cx="68.024" cy="70.244" r="63.333"/>
	</g>
	<g>
		<g>
			<path class="st150" d="M71.359,65.096c4.842,4.842,10.33-3.162,13.361-6.193c2.902-2.902,5.805-5.806,8.707-8.708
				c0.27,3.034,0.561,6.069,1.008,9.073c0.709,4.775,6.623,6.559,8.805,2.352c0.225-0.299,0.369-0.674,0.426-1.111
				c0.1-0.407,0.102-0.781,0.021-1.116c-0.078-3.935-0.156-7.87-0.234-11.806c-0.076-3.836,0.439-8.005-0.965-11.607
				c-0.055-0.203-0.125-0.41-0.23-0.619c-0.283-0.567-1.213-2.399-0.029-0.031c-0.338-0.674-0.959-1.062-1.643-1.206
				c-3.316-1.258-6.994-0.841-10.545-0.912c-4.41-0.088-8.82-0.175-13.23-0.265c-5.096-0.102-5.277,6.447-1.555,8.627
				c1.859,1.09,4.848,0.965,6.912,1.177c1.328,0.137,2.656,0.261,3.986,0.391c-2.885,2.883-5.768,5.767-8.65,8.649
				C74.477,54.816,66.531,60.268,71.359,65.096z"/>
		</g>
		<g>
			<path class="st150" d="M30.543,59.83c-0.102,5.096,6.445,5.277,8.625,1.555c1.09-1.859,0.965-4.846,1.176-6.912
				c0.137-1.327,0.262-2.656,0.391-3.984c2.883,2.883,5.766,5.768,8.65,8.65c3.025,3.027,8.479,10.972,13.309,6.143
				c4.84-4.84-3.164-10.328-6.195-13.36c-2.902-2.902-5.805-5.805-8.709-8.707c3.035-0.271,6.07-0.562,9.074-1.008
				c4.775-0.71,6.555-6.621,2.354-8.806c-0.299-0.223-0.674-0.367-1.111-0.426c-0.408-0.1-0.783-0.102-1.121-0.021
				c-3.934,0.078-7.867,0.156-11.803,0.234c-3.824,0.076-7.982-0.436-11.578,0.954c-0.166,0.042-0.328,0.106-0.488,0.187
				c-0.053,0.022-0.107,0.035-0.158,0.06c0.008,0.004,0.018,0.007,0.027,0.011c-0.029,0.016-0.057,0.028-0.084,0.045
				c0.178-0.242,0.139-0.266-0.51,0.383c-0.416,0.416-0.635,0.881-0.719,1.352c-1.201,3.283-0.795,6.916-0.865,10.423
				C30.719,51.011,30.631,55.42,30.543,59.83z"/>
		</g>
		<g>
			<path class="st150" d="M32.426,104.254c0,0,0-0.002-0.002-0.002C32.822,104.648,33.193,105.021,32.426,104.254z"/>
		</g>
		<g>
			<path class="st150" d="M32.422,104.25c0.002,0,0.002,0.001,0.002,0.001C32.008,103.834,31.57,103.398,32.422,104.25z"/>
		</g>
		<g>
			<path class="st150" d="M62.879,73.949c-4.842-4.842-10.33,3.162-13.361,6.193c-2.902,2.903-5.805,5.807-8.707,8.709
				c-0.27-3.035-0.561-6.07-1.008-9.074c-0.709-4.774-6.621-6.555-8.805-2.354c-0.223,0.3-0.369,0.676-0.426,1.113
				c-0.102,0.408-0.102,0.783-0.021,1.119c0.078,3.934,0.156,7.868,0.234,11.803c0.074,3.762-0.42,7.843,0.885,11.396
				c0.082,0.474,0.301,0.942,0.721,1.362c0.014,0.015,0.021,0.022,0.035,0.037c0.416,0.412,0.879,0.632,1.346,0.715
				c3.285,1.204,6.92,0.797,10.426,0.867c4.41,0.088,8.82,0.176,13.23,0.264c5.096,0.101,5.277-6.446,1.555-8.627
				c-1.859-1.09-4.848-0.964-6.912-1.176c-1.328-0.137-2.656-0.26-3.986-0.391c2.885-2.883,5.768-5.766,8.65-8.649
				C59.764,84.229,67.707,78.777,62.879,73.949z"/>
		</g>
		<g>
			<path class="st150" d="M103.697,79.213c0.102-5.096-6.445-5.278-8.627-1.555c-1.088,1.859-0.963,4.846-1.176,6.911
				c-0.137,1.328-0.26,2.657-0.391,3.985c-2.883-2.884-5.766-5.768-8.648-8.65c-3.027-3.027-8.48-10.972-13.309-6.143
				c-4.842,4.84,3.162,10.329,6.193,13.359c2.904,2.903,5.807,5.806,8.709,8.708c-3.035,0.271-6.07,0.562-9.074,1.008
				c-4.775,0.71-6.555,6.621-2.352,8.806c0.299,0.223,0.674,0.367,1.109,0.426c0.41,0.1,0.785,0.102,1.121,0.021
				c3.934-0.078,7.869-0.156,11.803-0.234c3.762-0.075,7.844,0.418,11.396-0.885c0.475-0.082,0.943-0.301,1.363-0.721
				c0.648-0.65,0.625-0.688,0.381-0.508c0.016-0.028,0.029-0.058,0.045-0.086c0.004,0.01,0.008,0.019,0.012,0.027
				c0.023-0.054,0.039-0.109,0.063-0.163c0.076-0.151,0.137-0.308,0.18-0.467c1.291-3.333,0.867-7.036,0.938-10.611
				C103.521,88.032,103.609,83.623,103.697,79.213z"/>
		</g>
	</g>
</g>
</svg>
