<?xml version="1.0" encoding="utf-8"?>
<!-- Generator: Adobe Illustrator 16.0.0, SVG Export Plug-In . SVG Version: 6.00 Build 0)  -->
<!DOCTYPE svg PUBLIC "-//W3C//DTD SVG 1.1//EN" "http://www.w3.org/Graphics/SVG/1.1/DTD/svg11.dtd">
<svg version="1.1" id="Layer_1" xmlns="http://www.w3.org/2000/svg" xmlns:xlink="http://www.w3.org/1999/xlink" x="0px" y="0px"
	 width="136.833px" height="136.834px" viewBox="0 0 136.833 136.834" style="enable-background:new 0 0 136.833 136.834;"
	 xml:space="preserve">
<style type="text/css">
<![CDATA[
	.st0{fill:#7AC3A7;}
	.st1{fill:#AA9C87;}
	.st2{fill:#AAAAAA;}
	.st3{fill:#494A4A;}
	.st4{fill:#AC782B;}
	.st5{fill:#49A0AE;}
	.st6{fill:#AD6F2D;}
	.st7{fill-rule:evenodd;clip-rule:evenodd;fill:#3EB5B5;}
	.st8{fill:#AE8A50;}
	.st9{fill:#7F8092;}
	.st10{fill:#AEADAD;}
	.st11{fill:#AEAEAF;}
	.st12{fill:#129949;}
	.st13{fill:#E1E1E1;}
	.st14{fill:#E2DD3E;}
	.st15{fill-rule:evenodd;clip-rule:evenodd;fill:#757575;}
	.st16{fill:#E4E4E4;}
	.st17{fill:#E57931;}
	.st18{fill:#4AA0A5;}
	.st19{fill:#4B4A4B;}
	.st20{fill:#E79E2D;}
	.st21{fill-rule:evenodd;clip-rule:evenodd;fill:#DBB626;}
	.st22{fill:#E7E760;}
	.st23{fill:#19A855;}
	.st24{fill:#E84849;}
	.st25{fill:#4E4F50;}
	.st26{fill:#4EA3B1;}
	.st27{fill:#E9CA92;}
	.st28{fill:#E9E8A1;}
	.st29{fill:#E9E8A3;}
	.st30{fill:#B03738;}
	.st31{fill:#818282;}
	.st32{fill:#81BCB9;}
	.st33{fill:#B19353;}
	.st34{fill:#825E2D;}
	.st35{fill:#B1B1B2;}
	.st36{fill:#B2B2B2;}
	.st37{opacity:0.15;}
	.st38{fill:#848698;}
	.st39{fill:#B3DCE2;}
	.st40{fill:#B4B4B5;}
	.st41{fill:#1A3940;}
	.st42{fill:#B6E2EB;}
	.st43{fill:#888888;}
	.st44{fill:#B7DFD2;}
	.st45{fill:#1D1E1E;}
	.st46{fill:#ED3351;}
	.st47{fill:#EDC92C;}
	.st48{fill:#EDE8C9;}
	.st49{fill:#1FA85B;}
	.st50{fill-rule:evenodd;clip-rule:evenodd;fill:#AEAEAF;}
	.st51{fill:#EEDD7A;}
	.st52{fill:#52BA73;}
	.st53{fill:#56385F;}
	.st54{fill:#56939A;}
	.st55{fill:#8AC5C4;}
	.st56{fill:#575757;}
	.st57{fill-rule:evenodd;clip-rule:evenodd;fill:#4B4A4B;}
	.st58{fill:#8CD3DA;}
	.st59{fill:#8D8D8C;}
	.st60{fill:#8D9091;}
	.st61{fill-rule:evenodd;clip-rule:evenodd;fill:#E8C790;}
	.st62{fill:#202121;}
	.st63{fill-rule:evenodd;clip-rule:evenodd;fill:#E9CA92;}
	.st64{fill:#BEBC6A;}
	.st65{fill:#F06668;}
	.st66{fill:#BFBEBE;}
	.st67{fill:#F0D359;}
	.st68{fill:#F0F1AF;}
	.st69{fill-rule:evenodd;clip-rule:evenodd;fill:#B14D26;}
	.st70{fill:#22C48A;}
	.st71{fill:#F1D250;}
	.st72{fill:#F1E089;}
	.st73{fill:#F1F1B3;}
	.st74{fill:#F2BE3E;}
	.st75{fill:#F37C2A;}
	.st76{fill:#256533;}
	.st77{fill:#F4D967;}
	.st78{fill:#F4E028;}
	.st79{fill:#F4F5F5;}
	.st80{fill-rule:evenodd;clip-rule:evenodd;fill:#B5B2B3;}
	.st81{fill:#F5D827;}
	.st82{fill:#F5E554;}
	.st83{fill:#276D69;}
	.st84{fill-rule:evenodd;clip-rule:evenodd;fill:#B6AE8F;}
	.st85{fill:#F6A2A3;}
	.st86{fill-rule:evenodd;clip-rule:evenodd;fill:#1CAAB9;}
	.st87{fill-rule:evenodd;clip-rule:evenodd;fill:#888888;}
	.st88{fill:#F7D98B;}
	.st89{fill:#F7E497;}
	.st90{fill:#F8DE71;}
	.st91{fill-rule:evenodd;clip-rule:evenodd;fill:#ECE1D0;}
	.st92{fill:#F9F29A;}
	.st93{fill-rule:evenodd;clip-rule:evenodd;fill:#EDC92C;}
	.st94{clip-path:url(#SVGID_2_);}
	.st95{fill:#90682F;}
	.st96{fill:#C0C0C0;}
	.st97{fill:#93793D;}
	.st98{fill:#939292;}
	.st99{fill:#93D1BD;}
	.st100{fill:#949897;}
	.st101{fill:#94D0D0;}
	.st102{fill:#954E9D;}
	.st103{fill:#958469;}
	.st104{fill:#C4BC98;}
	.st105{fill:#C698C5;}
	.st106{fill:#2C6973;}
	.st107{fill:#FAF2F2;}
	.st108{fill:#C7E8ED;}
	.st109{fill:#2E2F2F;}
	.st110{fill:#2F8442;}
	.st111{opacity:0.3;}
	.st112{fill:#606060;}
	.st113{fill:#616A89;}
	.st114{fill:#61BECD;}
	.st115{fill:#FFC200;}
	.st116{fill:#FFFFFF;}
	.st117{fill:#626463;}
	.st118{fill:#63A2AC;}
	.st119{fill-rule:evenodd;clip-rule:evenodd;fill:#F2E8D3;}
	.st120{fill:none;}
	.st121{fill:#9A7338;}
	.st122{fill-rule:evenodd;clip-rule:evenodd;fill:#F5D8A4;}
	.st123{fill-rule:evenodd;clip-rule:evenodd;fill:#F5DFB5;}
	.st124{fill:#9B7842;}
	.st125{fill:#67B8CB;}
	.st126{fill:#9D5D26;}
	.st127{fill:#9D9E9F;}
	.st128{fill:#CDCCCB;}
	.st129{fill:#9EA3B6;}
	.st130{fill:#9F77AA;}
	.st131{fill-rule:evenodd;clip-rule:evenodd;fill:#C0BEBF;}
	.st132{fill-rule:evenodd;clip-rule:evenodd;fill:#C15E28;}
	.st133{fill:#343433;}
	.st134{fill:#355957;}
	.st135{fill:#357180;}
	.st136{fill:#35B167;}
	.st137{fill-rule:evenodd;clip-rule:evenodd;fill:#97A0A0;}
	.st138{fill:#6C6C6B;}
	.st139{fill:#6CC077;}
	.st140{fill:#6EC2CB;}
	.st141{fill:#6FB698;}
	.st142{fill-rule:evenodd;clip-rule:evenodd;fill:#616161;}
	.st143{fill:#D0D1D1;}
	.st144{fill-rule:evenodd;clip-rule:evenodd;fill:#FFF4E4;}
	.st145{fill:#D2CBA6;}
	.st146{fill:#D2D2D2;}
	.st147{fill:#D68828;}
	.st148{fill:#D68A28;}
	.st149{fill:#3D3428;}
	.st150{fill:#3D4040;}
	.st151{fill:#3D969F;}
	.st152{fill-rule:evenodd;clip-rule:evenodd;fill:#CDCCCB;}
	.st153{fill:#A0D5D9;}
	.st154{fill:#A2D4DE;}
	.st155{fill:#A3D4AA;}
	.st156{fill:#A48A47;}
	.st157{fill:#75B7BB;}
	.st158{fill:#776850;}
	.st159{fill:#DAC425;}
	.st160{fill:#DBBD40;}
	.st161{fill:#DBC55E;}
	.st162{fill:#DBDBDA;}
	.st163{fill:#DBF0F5;}
	.st164{fill:#DCDBDC;}
	.st165{fill:#DDDDDC;}
	.st166{fill-rule:evenodd;clip-rule:evenodd;fill:#6EC2CB;}
	.st167{fill:#DFBFDB;}
	.st168{fill:#DFCC6B;}
	.st169{fill:#448590;}
]]>
</style>
<g>
	<g>
		<circle class="st5" cx="68.833" cy="70.691" r="63.333"/>
	</g>
	<g>
		<g>
			<g>
				<path class="st122" d="M93.901,103.447c0,2.513-2.037,4.553-4.551,4.553H46.362c-2.514,0-4.552-2.04-4.552-4.553l-5.942-54.172
					c0-2.514,63.977-2.514,63.977,0L93.901,103.447z"/>
			</g>
			<g>
				<path class="st122" d="M38.528,51.068c0,0,0.832-25.521,29.307-25.521c28.476,0,29.35,25.521,29.35,25.521l2.66-1.793
					c0,0,1.093-28.615-32.012-28.615c-33.104,0-31.965,28.615-31.965,28.615L38.528,51.068z"/>
			</g>
			<g>
				<g>
					<path class="st27" d="M67.833,25.547V20.66c-33.104,0-31.965,28.615-31.965,28.615l5.942,54.172
						c0,2.513,2.038,4.553,4.552,4.553h21.471l-0.114-60.914c-11.819,0-23.521,0.648-28.874,1.337
						C39.962,41.902,45.032,25.547,67.833,25.547z"/>
				</g>
			</g>
			<g>
				<path class="st63" d="M39.623,49.945c0,0.732-0.343,1.324-0.767,1.324h-2.75c-0.424,0-0.766-0.592-0.766-1.324v-2.262
					c0-0.73,0.342-1.324,0.766-1.324h2.75c0.424,0,0.767,0.594,0.767,1.324V49.945z"/>
			</g>
			<g>
				<path class="st122" d="M100.421,49.945c0,0.732-0.343,1.324-0.767,1.324h-2.75c-0.423,0-0.767-0.592-0.767-1.324v-2.262
					c0-0.73,0.344-1.324,0.767-1.324h2.75c0.424,0,0.767,0.594,0.767,1.324V49.945z"/>
			</g>
			<g>
				<path class="st93" d="M40.774,48.239c0,0,9.273,24.526,19.863,8.636c0,0,3.994-4.834,8.191,0.231
					c4.197,5.066,3.201,11.219,3.997,14.276c0.599,2.305,5.505,7.498,7.094-2.764c1.997-12.895,6.094-11.857,8.292-10.362
					c2.197,1.497,4.877,0.604,5.794-3.684c0.917-4.292,1.175-6.364,1.175-6.364S66.55,45.704,40.774,48.239z"/>
			</g>
			<g>
				<path class="st21" d="M40.774,48.239c0,0,9.273,24.526,19.863,8.636c0,0,3.37-4.08,7.17-0.819l0.17-8.97
					C60.458,47.129,48.69,47.459,40.774,48.239z"/>
			</g>
		</g>
	</g>
</g>
</svg>
