<?xml version="1.0" encoding="utf-8"?>
<!-- Generator: Adobe Illustrator 16.0.0, SVG Export Plug-In . SVG Version: 6.00 Build 0)  -->
<!DOCTYPE svg PUBLIC "-//W3C//DTD SVG 1.1//EN" "http://www.w3.org/Graphics/SVG/1.1/DTD/svg11.dtd">
<svg version="1.1" id="Layer_1" xmlns="http://www.w3.org/2000/svg" xmlns:xlink="http://www.w3.org/1999/xlink" x="0px" y="0px"
	 width="136.833px" height="136.833px" viewBox="0 0 136.833 136.833" style="enable-background:new 0 0 136.833 136.833;"
	 xml:space="preserve">
<style type="text/css">
<![CDATA[
	.st0{fill:#7AC3A7;}
	.st1{fill:#AA9C87;}
	.st2{fill:#AAAAAA;}
	.st3{fill:#494A4A;}
	.st4{fill:#AC782B;}
	.st5{fill:#49A0AE;}
	.st6{fill:#AD6F2D;}
	.st7{fill-rule:evenodd;clip-rule:evenodd;fill:#3EB5B5;}
	.st8{fill:#AE8A50;}
	.st9{fill:#7F8092;}
	.st10{fill:#AEADAD;}
	.st11{fill:#AEAEAF;}
	.st12{fill:#129949;}
	.st13{fill:#E1E1E1;}
	.st14{fill:#E2DD3E;}
	.st15{fill-rule:evenodd;clip-rule:evenodd;fill:#757575;}
	.st16{fill:#E4E4E4;}
	.st17{fill:#E57931;}
	.st18{fill:#4AA0A5;}
	.st19{fill:#4B4A4B;}
	.st20{fill:#E79E2D;}
	.st21{fill-rule:evenodd;clip-rule:evenodd;fill:#DBB626;}
	.st22{fill:#E7E760;}
	.st23{fill:#19A855;}
	.st24{fill:#E84849;}
	.st25{fill:#4E4F50;}
	.st26{fill:#4EA3B1;}
	.st27{fill:#E9CA92;}
	.st28{fill:#E9E8A1;}
	.st29{fill:#E9E8A3;}
	.st30{fill:#B03738;}
	.st31{fill:#818282;}
	.st32{fill:#81BCB9;}
	.st33{fill:#B19353;}
	.st34{fill:#825E2D;}
	.st35{fill:#B1B1B2;}
	.st36{fill:#B2B2B2;}
	.st37{opacity:0.15;}
	.st38{fill:#848698;}
	.st39{fill:#B3DCE2;}
	.st40{fill:#B4B4B5;}
	.st41{fill:#1A3940;}
	.st42{fill:#B6E2EB;}
	.st43{fill:#888888;}
	.st44{fill:#B7DFD2;}
	.st45{fill:#1D1E1E;}
	.st46{fill:#ED3351;}
	.st47{fill:#EDC92C;}
	.st48{fill:#EDE8C9;}
	.st49{fill:#1FA85B;}
	.st50{fill-rule:evenodd;clip-rule:evenodd;fill:#AEAEAF;}
	.st51{fill:#EEDD7A;}
	.st52{fill:#52BA73;}
	.st53{fill:#56385F;}
	.st54{fill:#56939A;}
	.st55{fill:#8AC5C4;}
	.st56{fill:#575757;}
	.st57{fill-rule:evenodd;clip-rule:evenodd;fill:#4B4A4B;}
	.st58{fill:#8CD3DA;}
	.st59{fill:#8D8D8C;}
	.st60{fill:#8D9091;}
	.st61{fill-rule:evenodd;clip-rule:evenodd;fill:#E8C790;}
	.st62{fill:#202121;}
	.st63{fill-rule:evenodd;clip-rule:evenodd;fill:#E9CA92;}
	.st64{fill:#BEBC6A;}
	.st65{fill:#F06668;}
	.st66{fill:#BFBEBE;}
	.st67{fill:#F0D359;}
	.st68{fill:#F0F1AF;}
	.st69{fill-rule:evenodd;clip-rule:evenodd;fill:#B14D26;}
	.st70{fill:#22C48A;}
	.st71{fill:#F1D250;}
	.st72{fill:#F1E089;}
	.st73{fill:#F1F1B3;}
	.st74{fill:#F2BE3E;}
	.st75{fill:#F37C2A;}
	.st76{fill:#256533;}
	.st77{fill:#F4D967;}
	.st78{fill:#F4E028;}
	.st79{fill:#F4F5F5;}
	.st80{fill-rule:evenodd;clip-rule:evenodd;fill:#B5B2B3;}
	.st81{fill:#F5D827;}
	.st82{fill:#F5E554;}
	.st83{fill:#276D69;}
	.st84{fill-rule:evenodd;clip-rule:evenodd;fill:#B6AE8F;}
	.st85{fill:#F6A2A3;}
	.st86{fill-rule:evenodd;clip-rule:evenodd;fill:#1CAAB9;}
	.st87{fill-rule:evenodd;clip-rule:evenodd;fill:#888888;}
	.st88{fill:#F7D98B;}
	.st89{fill:#F7E497;}
	.st90{fill:#F8DE71;}
	.st91{fill-rule:evenodd;clip-rule:evenodd;fill:#ECE1D0;}
	.st92{fill:#F9F29A;}
	.st93{fill-rule:evenodd;clip-rule:evenodd;fill:#EDC92C;}
	.st94{clip-path:url(#SVGID_2_);}
	.st95{fill:#90682F;}
	.st96{fill:#C0C0C0;}
	.st97{fill:#93793D;}
	.st98{fill:#939292;}
	.st99{fill:#93D1BD;}
	.st100{fill:#949897;}
	.st101{fill:#94D0D0;}
	.st102{fill:#954E9D;}
	.st103{fill:#958469;}
	.st104{fill:#C4BC98;}
	.st105{fill:#C698C5;}
	.st106{fill:#2C6973;}
	.st107{fill:#FAF2F2;}
	.st108{fill:#C7E8ED;}
	.st109{fill:#2E2F2F;}
	.st110{fill:#2F8442;}
	.st111{opacity:0.3;}
	.st112{fill:#606060;}
	.st113{fill:#616A89;}
	.st114{fill:#61BECD;}
	.st115{fill:#FFC200;}
	.st116{fill:#FFFFFF;}
	.st117{fill:#626463;}
	.st118{fill:#63A2AC;}
	.st119{fill-rule:evenodd;clip-rule:evenodd;fill:#F2E8D3;}
	.st120{fill:none;}
	.st121{fill:#9A7338;}
	.st122{fill-rule:evenodd;clip-rule:evenodd;fill:#F5D8A4;}
	.st123{fill-rule:evenodd;clip-rule:evenodd;fill:#F5DFB5;}
	.st124{fill:#9B7842;}
	.st125{fill:#67B8CB;}
	.st126{fill:#9D5D26;}
	.st127{fill:#9D9E9F;}
	.st128{fill:#CDCCCB;}
	.st129{fill:#9EA3B6;}
	.st130{fill:#9F77AA;}
	.st131{fill-rule:evenodd;clip-rule:evenodd;fill:#C0BEBF;}
	.st132{fill-rule:evenodd;clip-rule:evenodd;fill:#C15E28;}
	.st133{fill:#343433;}
	.st134{fill:#355957;}
	.st135{fill:#357180;}
	.st136{fill:#35B167;}
	.st137{fill-rule:evenodd;clip-rule:evenodd;fill:#97A0A0;}
	.st138{fill:#6C6C6B;}
	.st139{fill:#6CC077;}
	.st140{fill:#6EC2CB;}
	.st141{fill:#6FB698;}
	.st142{fill-rule:evenodd;clip-rule:evenodd;fill:#616161;}
	.st143{fill:#D0D1D1;}
	.st144{fill-rule:evenodd;clip-rule:evenodd;fill:#FFF4E4;}
	.st145{fill:#D2CBA6;}
	.st146{fill:#D2D2D2;}
	.st147{fill:#D68828;}
	.st148{fill:#D68A28;}
	.st149{fill:#3D3428;}
	.st150{fill:#3D4040;}
	.st151{fill:#3D969F;}
	.st152{fill-rule:evenodd;clip-rule:evenodd;fill:#CDCCCB;}
	.st153{fill:#A0D5D9;}
	.st154{fill:#A2D4DE;}
	.st155{fill:#A3D4AA;}
	.st156{fill:#A48A47;}
	.st157{fill:#75B7BB;}
	.st158{fill:#776850;}
	.st159{fill:#DAC425;}
	.st160{fill:#DBBD40;}
	.st161{fill:#DBC55E;}
	.st162{fill:#DBDBDA;}
	.st163{fill:#DBF0F5;}
	.st164{fill:#DCDBDC;}
	.st165{fill:#DDDDDC;}
	.st166{fill-rule:evenodd;clip-rule:evenodd;fill:#6EC2CB;}
	.st167{fill:#DFBFDB;}
	.st168{fill:#DFCC6B;}
	.st169{fill:#448590;}
]]>
</style>
<g>
	<g>
		<circle class="st16" cx="68.083" cy="72.238" r="63.333"/>
	</g>
	<g>
		<polygon class="st156" points="70.414,106.8 36.248,92.357 36.248,54.619 70.414,69.062 		"/>
	</g>
	<g>
		<polygon class="st33" points="104.582,54.619 70.416,40.175 36.248,54.619 70.414,69.062 		"/>
	</g>
	<g>
		<polygon class="st97" points="104.582,92.357 70.416,106.8 70.416,69.062 104.582,54.619 		"/>
	</g>
	<g>
		<g>
			<path class="st140" d="M70.422,107.808c2.07,0,1.533-2.884,1.533-4.181c0-1.24,0-70.482,0-71.724
				c0.705,0.592,3.332,2.991,4.068,3.538c1.172,0.869,2.818-0.014,2.385-1.379c-0.016-0.111-0.064-0.223-0.146-0.329
				c-0.064-0.108-0.145-0.188-0.232-0.243c-0.859-0.824-3.631-3.462-4.49-4.287c-0.836-0.803-1.615-1.805-2.686-2.275
				c-0.055-0.031-0.115-0.061-0.184-0.082c-0.182-0.061-0.443-0.021-0.621,0.092c-0.977,0.44-1.674,1.316-2.449,2.06
				c-0.961,0.924-3.779,3.695-4.74,4.618c-1.111,1.068,0.25,2.506,1.512,2.178c0.629-0.166,3.1-2.678,3.586-3.074
				c0.313-0.254,0.623-0.512,0.936-0.768c0,1.232,0,70.466,0,71.698C68.893,104.944,68.357,107.808,70.422,107.808z"/>
		</g>
	</g>
	<g>
		<g>
			<path class="st140" d="M68.738,106.808c0.789,1.912,3.25,0.316,4.449-0.179c1.146-0.473,40.119-16.644,41.266-17.116
				c-0.277,0.879-1.494,4.221-1.719,5.109c-0.355,1.416,1.088,2.602,2.184,1.68c0.1-0.059,0.182-0.145,0.248-0.262
				c0.076-0.102,0.121-0.205,0.137-0.309c0.436-1.107,1.816-4.674,2.252-5.784c0.424-1.079,1.051-2.182,1.078-3.351
				c0.008-0.063,0.012-0.13,0.008-0.201c-0.014-0.19-0.15-0.418-0.322-0.537c-0.781-0.737-1.855-1.047-2.838-1.479
				c-1.221-0.536-4.857-2.085-6.078-2.622c-1.41-0.621-2.221,1.188-1.436,2.228c0.393,0.519,3.656,1.845,4.209,2.143
				c0.354,0.192,0.711,0.38,1.064,0.571c-1.139,0.471-40.102,16.638-41.242,17.109C70.803,104.3,67.951,104.899,68.738,106.808z"/>
		</g>
	</g>
	<g>
		<g>
			<path class="st140" d="M71.631,106.808c-0.789,1.912-3.25,0.316-4.447-0.179c-1.146-0.473-40.119-16.644-41.268-17.116
				c0.277,0.879,1.494,4.221,1.719,5.109c0.357,1.416-1.088,2.602-2.184,1.68c-0.098-0.059-0.182-0.145-0.248-0.262
				c-0.076-0.102-0.119-0.205-0.137-0.309c-0.434-1.107-1.816-4.674-2.25-5.784c-0.424-1.079-1.053-2.182-1.08-3.351
				c-0.008-0.063-0.01-0.13-0.006-0.201c0.012-0.19,0.148-0.418,0.322-0.537c0.779-0.737,1.855-1.047,2.838-1.479
				c1.219-0.536,4.857-2.085,6.076-2.622c1.412-0.621,2.223,1.188,1.436,2.228c-0.391,0.519-3.654,1.845-4.209,2.143
				c-0.352,0.192-0.709,0.38-1.064,0.571c1.139,0.471,40.104,16.638,41.242,17.109C69.566,104.3,72.418,104.899,71.631,106.808z"/>
		</g>
	</g>
</g>
<g>
	<circle class="st166" cx="70.301" cy="104.321" r="5"/>
</g>
</svg>
