<?xml version="1.0" encoding="utf-8"?>
<!-- Generator: Adobe Illustrator 16.0.0, SVG Export Plug-In . SVG Version: 6.00 Build 0)  -->
<!DOCTYPE svg PUBLIC "-//W3C//DTD SVG 1.1//EN" "http://www.w3.org/Graphics/SVG/1.1/DTD/svg11.dtd">
<svg version="1.1" id="Layer_1" xmlns="http://www.w3.org/2000/svg" xmlns:xlink="http://www.w3.org/1999/xlink" x="0px" y="0px"
	 width="136.833px" height="136.833px" viewBox="0 0 136.833 136.833" style="enable-background:new 0 0 136.833 136.833;"
	 xml:space="preserve">
<style type="text/css">
<![CDATA[
	.st0{fill:#7AC3A7;}
	.st1{fill:#AA9C87;}
	.st2{fill:#AAAAAA;}
	.st3{fill:#494A4A;}
	.st4{fill:#AC782B;}
	.st5{fill:#49A0AE;}
	.st6{fill:#AD6F2D;}
	.st7{fill-rule:evenodd;clip-rule:evenodd;fill:#3EB5B5;}
	.st8{fill:#AE8A50;}
	.st9{fill:#7F8092;}
	.st10{fill:#AEADAD;}
	.st11{fill:#AEAEAF;}
	.st12{fill:#129949;}
	.st13{fill:#E1E1E1;}
	.st14{fill:#E2DD3E;}
	.st15{fill-rule:evenodd;clip-rule:evenodd;fill:#757575;}
	.st16{fill:#E4E4E4;}
	.st17{fill:#E57931;}
	.st18{fill:#4AA0A5;}
	.st19{fill:#4B4A4B;}
	.st20{fill:#E79E2D;}
	.st21{fill-rule:evenodd;clip-rule:evenodd;fill:#DBB626;}
	.st22{fill:#E7E760;}
	.st23{fill:#19A855;}
	.st24{fill:#E84849;}
	.st25{fill:#4E4F50;}
	.st26{fill:#4EA3B1;}
	.st27{fill:#E9CA92;}
	.st28{fill:#E9E8A1;}
	.st29{fill:#E9E8A3;}
	.st30{fill:#B03738;}
	.st31{fill:#818282;}
	.st32{fill:#81BCB9;}
	.st33{fill:#B19353;}
	.st34{fill:#825E2D;}
	.st35{fill:#B1B1B2;}
	.st36{fill:#B2B2B2;}
	.st37{opacity:0.15;}
	.st38{fill:#848698;}
	.st39{fill:#B3DCE2;}
	.st40{fill:#B4B4B5;}
	.st41{fill:#1A3940;}
	.st42{fill:#B6E2EB;}
	.st43{fill:#888888;}
	.st44{fill:#B7DFD2;}
	.st45{fill:#1D1E1E;}
	.st46{fill:#ED3351;}
	.st47{fill:#EDC92C;}
	.st48{fill:#EDE8C9;}
	.st49{fill:#1FA85B;}
	.st50{fill-rule:evenodd;clip-rule:evenodd;fill:#AEAEAF;}
	.st51{fill:#EEDD7A;}
	.st52{fill:#52BA73;}
	.st53{fill:#56385F;}
	.st54{fill:#56939A;}
	.st55{fill:#8AC5C4;}
	.st56{fill:#575757;}
	.st57{fill-rule:evenodd;clip-rule:evenodd;fill:#4B4A4B;}
	.st58{fill:#8CD3DA;}
	.st59{fill:#8D8D8C;}
	.st60{fill:#8D9091;}
	.st61{fill-rule:evenodd;clip-rule:evenodd;fill:#E8C790;}
	.st62{fill:#202121;}
	.st63{fill-rule:evenodd;clip-rule:evenodd;fill:#E9CA92;}
	.st64{fill:#BEBC6A;}
	.st65{fill:#F06668;}
	.st66{fill:#BFBEBE;}
	.st67{fill:#F0D359;}
	.st68{fill:#F0F1AF;}
	.st69{fill-rule:evenodd;clip-rule:evenodd;fill:#B14D26;}
	.st70{fill:#22C48A;}
	.st71{fill:#F1D250;}
	.st72{fill:#F1E089;}
	.st73{fill:#F1F1B3;}
	.st74{fill:#F2BE3E;}
	.st75{fill:#F37C2A;}
	.st76{fill:#256533;}
	.st77{fill:#F4D967;}
	.st78{fill:#F4E028;}
	.st79{fill:#F4F5F5;}
	.st80{fill-rule:evenodd;clip-rule:evenodd;fill:#B5B2B3;}
	.st81{fill:#F5D827;}
	.st82{fill:#F5E554;}
	.st83{fill:#276D69;}
	.st84{fill-rule:evenodd;clip-rule:evenodd;fill:#B6AE8F;}
	.st85{fill:#F6A2A3;}
	.st86{fill-rule:evenodd;clip-rule:evenodd;fill:#1CAAB9;}
	.st87{fill-rule:evenodd;clip-rule:evenodd;fill:#888888;}
	.st88{fill:#F7D98B;}
	.st89{fill:#F7E497;}
	.st90{fill:#F8DE71;}
	.st91{fill-rule:evenodd;clip-rule:evenodd;fill:#ECE1D0;}
	.st92{fill:#F9F29A;}
	.st93{fill-rule:evenodd;clip-rule:evenodd;fill:#EDC92C;}
	.st94{clip-path:url(#SVGID_2_);}
	.st95{fill:#90682F;}
	.st96{fill:#C0C0C0;}
	.st97{fill:#93793D;}
	.st98{fill:#939292;}
	.st99{fill:#93D1BD;}
	.st100{fill:#949897;}
	.st101{fill:#94D0D0;}
	.st102{fill:#954E9D;}
	.st103{fill:#958469;}
	.st104{fill:#C4BC98;}
	.st105{fill:#C698C5;}
	.st106{fill:#2C6973;}
	.st107{fill:#FAF2F2;}
	.st108{fill:#C7E8ED;}
	.st109{fill:#2E2F2F;}
	.st110{fill:#2F8442;}
	.st111{opacity:0.3;}
	.st112{fill:#606060;}
	.st113{fill:#616A89;}
	.st114{fill:#61BECD;}
	.st115{fill:#FFC200;}
	.st116{fill:#FFFFFF;}
	.st117{fill:#626463;}
	.st118{fill:#63A2AC;}
	.st119{fill-rule:evenodd;clip-rule:evenodd;fill:#F2E8D3;}
	.st120{fill:none;}
	.st121{fill:#9A7338;}
	.st122{fill-rule:evenodd;clip-rule:evenodd;fill:#F5D8A4;}
	.st123{fill-rule:evenodd;clip-rule:evenodd;fill:#F5DFB5;}
	.st124{fill:#9B7842;}
	.st125{fill:#67B8CB;}
	.st126{fill:#9D5D26;}
	.st127{fill:#9D9E9F;}
	.st128{fill:#CDCCCB;}
	.st129{fill:#9EA3B6;}
	.st130{fill:#9F77AA;}
	.st131{fill-rule:evenodd;clip-rule:evenodd;fill:#C0BEBF;}
	.st132{fill-rule:evenodd;clip-rule:evenodd;fill:#C15E28;}
	.st133{fill:#343433;}
	.st134{fill:#355957;}
	.st135{fill:#357180;}
	.st136{fill:#35B167;}
	.st137{fill-rule:evenodd;clip-rule:evenodd;fill:#97A0A0;}
	.st138{fill:#6C6C6B;}
	.st139{fill:#6CC077;}
	.st140{fill:#6EC2CB;}
	.st141{fill:#6FB698;}
	.st142{fill-rule:evenodd;clip-rule:evenodd;fill:#616161;}
	.st143{fill:#D0D1D1;}
	.st144{fill-rule:evenodd;clip-rule:evenodd;fill:#FFF4E4;}
	.st145{fill:#D2CBA6;}
	.st146{fill:#D2D2D2;}
	.st147{fill:#D68828;}
	.st148{fill:#D68A28;}
	.st149{fill:#3D3428;}
	.st150{fill:#3D4040;}
	.st151{fill:#3D969F;}
	.st152{fill-rule:evenodd;clip-rule:evenodd;fill:#CDCCCB;}
	.st153{fill:#A0D5D9;}
	.st154{fill:#A2D4DE;}
	.st155{fill:#A3D4AA;}
	.st156{fill:#A48A47;}
	.st157{fill:#75B7BB;}
	.st158{fill:#776850;}
	.st159{fill:#DAC425;}
	.st160{fill:#DBBD40;}
	.st161{fill:#DBC55E;}
	.st162{fill:#DBDBDA;}
	.st163{fill:#DBF0F5;}
	.st164{fill:#DCDBDC;}
	.st165{fill:#DDDDDC;}
	.st166{fill-rule:evenodd;clip-rule:evenodd;fill:#6EC2CB;}
	.st167{fill:#DFBFDB;}
	.st168{fill:#DFCC6B;}
	.st169{fill:#448590;}
]]>
</style>
<g>
	<g>
		<circle class="st115" cx="68.832" cy="70.3" r="63.333"/>
	</g>
	<g>
		<g>
			<path class="st150" d="M103.983,35.067c-4.654-4.656-9.928,3.037-12.84,5.951c-2.791,2.791-5.578,5.579-8.367,8.367
				c-0.264-2.916-0.541-5.832-0.969-8.72c-0.684-4.587-6.367-6.302-8.463-2.259c-0.217,0.286-0.355,0.646-0.412,1.067
				c-0.094,0.394-0.094,0.751-0.02,1.071c0.076,3.782,0.148,7.565,0.227,11.349c0.072,3.685-0.422,7.691,0.926,11.153
				c0.053,0.196,0.123,0.396,0.221,0.597c0.273,0.545,1.17,2.306,0.031,0.028c0.324,0.648,0.918,1.022,1.578,1.16
				c3.186,1.209,6.723,0.809,10.135,0.878c4.24,0.084,8.477,0.166,12.717,0.253c4.895,0.098,5.07-6.194,1.492-8.289
				c-1.785-1.052-4.658-0.927-6.643-1.129c-1.277-0.133-2.555-0.254-3.832-0.379c2.771-2.772,5.543-5.54,8.314-8.313
				C100.989,44.946,108.624,39.704,103.983,35.067z"/>
		</g>
		<g>
			<path class="st150" d="M64.146,40.256c0.1-4.892-6.193-5.07-8.289-1.491c-1.047,1.787-0.926,4.657-1.133,6.645
				c-0.131,1.273-0.248,2.551-0.373,3.828c-2.773-2.771-5.541-5.545-8.313-8.314c-2.91-2.909-8.15-10.545-12.791-5.901
				c-4.65,4.649,3.041,9.925,5.953,12.84c2.789,2.786,5.58,5.576,8.371,8.368c-2.916,0.256-5.836,0.538-8.723,0.965
				c-4.586,0.684-6.297,6.365-2.258,8.467c0.285,0.209,0.646,0.352,1.066,0.406c0.391,0.097,0.752,0.099,1.078,0.021
				c3.779-0.074,7.559-0.151,11.342-0.225c3.676-0.071,7.672,0.418,11.127-0.92c0.16-0.039,0.318-0.098,0.469-0.177
				c0.049-0.02,0.105-0.032,0.152-0.06c-0.008,0-0.016-0.006-0.025-0.006c0.027-0.017,0.055-0.029,0.08-0.047
				c-0.172,0.233-0.135,0.257,0.49-0.367c0.4-0.4,0.609-0.848,0.691-1.301c1.152-3.152,0.762-6.646,0.832-10.016
				C63.978,48.735,64.063,44.499,64.146,40.256z"/>
		</g>
		<g>
			<path class="st150" d="M33.599,102.14c0,0,0-0.006-0.004-0.006C33.979,102.517,34.337,102.876,33.599,102.14z"/>
		</g>
		<g>
			<path class="st150" d="M33.595,102.134L33.595,102.134C33.194,101.732,32.778,101.316,33.595,102.134z"/>
		</g>
		<g>
			<path class="st150" d="M33.2,105.755c4.654,4.654,9.928-3.037,12.842-5.953c2.791-2.789,5.578-5.576,8.367-8.369
				c0.262,2.916,0.541,5.834,0.973,8.725c0.68,4.582,6.361,6.297,8.459,2.258c0.217-0.289,0.354-0.65,0.41-1.07
				c0.098-0.391,0.098-0.752,0.02-1.074c-0.076-3.779-0.148-7.563-0.227-11.346c-0.068-3.613,0.404-7.533-0.848-10.949
				c-0.078-0.455-0.289-0.906-0.691-1.311c-0.016-0.014-0.023-0.023-0.037-0.035c-0.396-0.395-0.84-0.605-1.291-0.688
				c-3.16-1.154-6.65-0.764-10.021-0.834c-4.236-0.082-8.477-0.168-12.713-0.252c-4.9-0.096-5.074,6.193-1.494,8.291
				c1.787,1.049,4.656,0.926,6.641,1.131c1.277,0.129,2.555,0.248,3.832,0.373c-2.771,2.771-5.543,5.541-8.316,8.311
				C36.196,95.875,28.562,101.115,33.2,105.755z"/>
		</g>
		<g>
			<path class="st150" d="M73.038,100.56c-0.094,4.896,6.197,5.074,8.293,1.494c1.047-1.787,0.926-4.656,1.131-6.641
				c0.129-1.277,0.248-2.555,0.373-3.83c2.771,2.773,5.543,5.541,8.314,8.313c2.906,2.91,8.148,10.547,12.791,5.902
				c4.65-4.65-3.041-9.924-5.953-12.838c-2.791-2.787-5.582-5.578-8.371-8.369c2.916-0.258,5.832-0.539,8.719-0.967
				c4.592-0.684,6.303-6.365,2.264-8.465c-0.287-0.213-0.646-0.352-1.068-0.408c-0.393-0.1-0.756-0.1-1.076-0.02
				c-3.779,0.07-7.563,0.146-11.344,0.223c-3.615,0.072-7.537-0.4-10.955,0.852c-0.453,0.078-0.906,0.287-1.307,0.691
				c-0.623,0.625-0.602,0.664-0.367,0.486c-0.014,0.029-0.027,0.059-0.045,0.086c-0.002-0.014-0.006-0.02-0.01-0.027
				c-0.021,0.053-0.037,0.105-0.059,0.158c-0.076,0.145-0.133,0.295-0.174,0.447c-1.24,3.205-0.834,6.76-0.902,10.199
				C73.21,92.083,73.124,96.324,73.038,100.56z"/>
		</g>
	</g>
</g>
</svg>
