<?xml version="1.0" encoding="utf-8"?>
<!-- Generator: Adobe Illustrator 16.0.0, SVG Export Plug-In . SVG Version: 6.00 Build 0)  -->
<!DOCTYPE svg PUBLIC "-//W3C//DTD SVG 1.1//EN" "http://www.w3.org/Graphics/SVG/1.1/DTD/svg11.dtd">
<svg version="1.1" id="Layer_1" xmlns="http://www.w3.org/2000/svg" xmlns:xlink="http://www.w3.org/1999/xlink" x="0px" y="0px"
	 width="136.833px" height="136.833px" viewBox="0 0 136.833 136.833" style="enable-background:new 0 0 136.833 136.833;"
	 xml:space="preserve">
<style type="text/css">
<![CDATA[
	.st0{fill:#7AC3A7;}
	.st1{fill:#AA9C87;}
	.st2{fill:#AAAAAA;}
	.st3{fill:#494A4A;}
	.st4{fill:#AC782B;}
	.st5{fill:#49A0AE;}
	.st6{fill:#AD6F2D;}
	.st7{fill-rule:evenodd;clip-rule:evenodd;fill:#3EB5B5;}
	.st8{fill:#AE8A50;}
	.st9{fill:#7F8092;}
	.st10{fill:#AEADAD;}
	.st11{fill:#AEAEAF;}
	.st12{fill:#129949;}
	.st13{fill:#E1E1E1;}
	.st14{fill:#E2DD3E;}
	.st15{fill-rule:evenodd;clip-rule:evenodd;fill:#757575;}
	.st16{fill:#E4E4E4;}
	.st17{fill:#E57931;}
	.st18{fill:#4AA0A5;}
	.st19{fill:#4B4A4B;}
	.st20{fill:#E79E2D;}
	.st21{fill-rule:evenodd;clip-rule:evenodd;fill:#DBB626;}
	.st22{fill:#E7E760;}
	.st23{fill:#19A855;}
	.st24{fill:#E84849;}
	.st25{fill:#4E4F50;}
	.st26{fill:#4EA3B1;}
	.st27{fill:#E9CA92;}
	.st28{fill:#E9E8A1;}
	.st29{fill:#E9E8A3;}
	.st30{fill:#B03738;}
	.st31{fill:#818282;}
	.st32{fill:#81BCB9;}
	.st33{fill:#B19353;}
	.st34{fill:#825E2D;}
	.st35{fill:#B1B1B2;}
	.st36{fill:#B2B2B2;}
	.st37{opacity:0.15;}
	.st38{fill:#848698;}
	.st39{fill:#B3DCE2;}
	.st40{fill:#B4B4B5;}
	.st41{fill:#1A3940;}
	.st42{fill:#B6E2EB;}
	.st43{fill:#888888;}
	.st44{fill:#B7DFD2;}
	.st45{fill:#1D1E1E;}
	.st46{fill:#ED3351;}
	.st47{fill:#EDC92C;}
	.st48{fill:#EDE8C9;}
	.st49{fill:#1FA85B;}
	.st50{fill-rule:evenodd;clip-rule:evenodd;fill:#AEAEAF;}
	.st51{fill:#EEDD7A;}
	.st52{fill:#52BA73;}
	.st53{fill:#56385F;}
	.st54{fill:#56939A;}
	.st55{fill:#8AC5C4;}
	.st56{fill:#575757;}
	.st57{fill-rule:evenodd;clip-rule:evenodd;fill:#4B4A4B;}
	.st58{fill:#8CD3DA;}
	.st59{fill:#8D8D8C;}
	.st60{fill:#8D9091;}
	.st61{fill-rule:evenodd;clip-rule:evenodd;fill:#E8C790;}
	.st62{fill:#202121;}
	.st63{fill-rule:evenodd;clip-rule:evenodd;fill:#E9CA92;}
	.st64{fill:#BEBC6A;}
	.st65{fill:#F06668;}
	.st66{fill:#BFBEBE;}
	.st67{fill:#F0D359;}
	.st68{fill:#F0F1AF;}
	.st69{fill-rule:evenodd;clip-rule:evenodd;fill:#B14D26;}
	.st70{fill:#22C48A;}
	.st71{fill:#F1D250;}
	.st72{fill:#F1E089;}
	.st73{fill:#F1F1B3;}
	.st74{fill:#F2BE3E;}
	.st75{fill:#F37C2A;}
	.st76{fill:#256533;}
	.st77{fill:#F4D967;}
	.st78{fill:#F4E028;}
	.st79{fill:#F4F5F5;}
	.st80{fill-rule:evenodd;clip-rule:evenodd;fill:#B5B2B3;}
	.st81{fill:#F5D827;}
	.st82{fill:#F5E554;}
	.st83{fill:#276D69;}
	.st84{fill-rule:evenodd;clip-rule:evenodd;fill:#B6AE8F;}
	.st85{fill:#F6A2A3;}
	.st86{fill-rule:evenodd;clip-rule:evenodd;fill:#1CAAB9;}
	.st87{fill-rule:evenodd;clip-rule:evenodd;fill:#888888;}
	.st88{fill:#F7D98B;}
	.st89{fill:#F7E497;}
	.st90{fill:#F8DE71;}
	.st91{fill-rule:evenodd;clip-rule:evenodd;fill:#ECE1D0;}
	.st92{fill:#F9F29A;}
	.st93{fill-rule:evenodd;clip-rule:evenodd;fill:#EDC92C;}
	.st94{clip-path:url(#SVGID_2_);}
	.st95{fill:#90682F;}
	.st96{fill:#C0C0C0;}
	.st97{fill:#93793D;}
	.st98{fill:#939292;}
	.st99{fill:#93D1BD;}
	.st100{fill:#949897;}
	.st101{fill:#94D0D0;}
	.st102{fill:#954E9D;}
	.st103{fill:#958469;}
	.st104{fill:#C4BC98;}
	.st105{fill:#C698C5;}
	.st106{fill:#2C6973;}
	.st107{fill:#FAF2F2;}
	.st108{fill:#C7E8ED;}
	.st109{fill:#2E2F2F;}
	.st110{fill:#2F8442;}
	.st111{opacity:0.3;}
	.st112{fill:#606060;}
	.st113{fill:#616A89;}
	.st114{fill:#61BECD;}
	.st115{fill:#FFC200;}
	.st116{fill:#FFFFFF;}
	.st117{fill:#626463;}
	.st118{fill:#63A2AC;}
	.st119{fill-rule:evenodd;clip-rule:evenodd;fill:#F2E8D3;}
	.st120{fill:none;}
	.st121{fill:#9A7338;}
	.st122{fill-rule:evenodd;clip-rule:evenodd;fill:#F5D8A4;}
	.st123{fill-rule:evenodd;clip-rule:evenodd;fill:#F5DFB5;}
	.st124{fill:#9B7842;}
	.st125{fill:#67B8CB;}
	.st126{fill:#9D5D26;}
	.st127{fill:#9D9E9F;}
	.st128{fill:#CDCCCB;}
	.st129{fill:#9EA3B6;}
	.st130{fill:#9F77AA;}
	.st131{fill-rule:evenodd;clip-rule:evenodd;fill:#C0BEBF;}
	.st132{fill-rule:evenodd;clip-rule:evenodd;fill:#C15E28;}
	.st133{fill:#343433;}
	.st134{fill:#355957;}
	.st135{fill:#357180;}
	.st136{fill:#35B167;}
	.st137{fill-rule:evenodd;clip-rule:evenodd;fill:#97A0A0;}
	.st138{fill:#6C6C6B;}
	.st139{fill:#6CC077;}
	.st140{fill:#6EC2CB;}
	.st141{fill:#6FB698;}
	.st142{fill-rule:evenodd;clip-rule:evenodd;fill:#616161;}
	.st143{fill:#D0D1D1;}
	.st144{fill-rule:evenodd;clip-rule:evenodd;fill:#FFF4E4;}
	.st145{fill:#D2CBA6;}
	.st146{fill:#D2D2D2;}
	.st147{fill:#D68828;}
	.st148{fill:#D68A28;}
	.st149{fill:#3D3428;}
	.st150{fill:#3D4040;}
	.st151{fill:#3D969F;}
	.st152{fill-rule:evenodd;clip-rule:evenodd;fill:#CDCCCB;}
	.st153{fill:#A0D5D9;}
	.st154{fill:#A2D4DE;}
	.st155{fill:#A3D4AA;}
	.st156{fill:#A48A47;}
	.st157{fill:#75B7BB;}
	.st158{fill:#776850;}
	.st159{fill:#DAC425;}
	.st160{fill:#DBBD40;}
	.st161{fill:#DBC55E;}
	.st162{fill:#DBDBDA;}
	.st163{fill:#DBF0F5;}
	.st164{fill:#DCDBDC;}
	.st165{fill:#DDDDDC;}
	.st166{fill-rule:evenodd;clip-rule:evenodd;fill:#6EC2CB;}
	.st167{fill:#DFBFDB;}
	.st168{fill:#DFCC6B;}
	.st169{fill:#448590;}
]]>
</style>
<g>
	<g>
		<path class="st24" d="M6.276,72.238c0-35.239,28.566-63.805,63.807-63.805s63.807,28.566,63.807,63.805
			c0,35.242-28.566,63.807-63.807,63.807S6.276,107.48,6.276,72.238z"/>
	</g>
	<g>
		<path class="st120" d="M6.276,72.238c0-35.239,28.566-63.805,63.807-63.805s63.807,28.566,63.807,63.805
			c0,35.242-28.566,63.807-63.807,63.807S6.276,107.48,6.276,72.238z"/>
	</g>
	<g>
		<g>
			<g>
				<g>
					<path class="st20" d="M82.685,80.384l20.697-20.699c5.342-5.341-0.021-8.64-5.363-13.98l-72.337,72.335
						c2.913,2.824,6.094,5.373,9.502,7.605l35.349-42.441C74.702,84.619,79.177,83.894,82.685,80.384z"/>
				</g>
			</g>
			<g>
				<g>
					<path class="st148" d="M25.682,118.041l72.337-72.335c-5.34-5.341-8.639-10.704-13.98-5.362L63.341,61.042
						c-3.508,3.507-4.234,7.979-2.82,12.153l-42.846,35.424C20.036,112.015,22.72,115.169,25.682,118.041z"/>
				</g>
			</g>
		</g>
		<g>
			<path class="st128" d="M98.735,44.991c-5.342-5.343-9.355-9.99-14.697-4.648L63.341,61.042
				c-2.521,2.521,16.82,21.866,19.344,19.342l20.697-20.699C108.724,54.345,104.075,50.331,98.735,44.991z"/>
		</g>
		<g>
			<path class="st2" d="M98.735,44.991c-5.342-5.343-9.355-9.99-14.697-4.648L63.341,61.042c-1.262,1.26,2.945,6.726,7.779,11.561
				L98.735,44.991z"/>
		</g>
		<g>
			<path class="st36" d="M64.638,79.404c-3.541-3.541-4.799-8.027-4.799-8.027L48.763,82.679
				c-1.363,1.361,10.975,13.594,12.338,12.23l11.18-11.18C72.28,83.73,68.181,82.947,64.638,79.404z"/>
		</g>
		<g>
			<path class="st60" d="M64.446,79.214c-3.389-3.506-4.607-7.838-4.607-7.838L48.763,82.679c-0.682,0.682,1.887,4.008,5.094,7.215
				L64.446,79.214z"/>
		</g>
		<g>
			<path class="st150" d="M89.241,28.384L71.921,52.46c-2.521,2.521,16.822,21.866,19.344,19.344l24.078-17.323
				C120.681,49.143,94.583,23.044,89.241,28.384z"/>
		</g>
		<g>
			<path class="st133" d="M89.241,28.384L71.921,52.46c-1.24,1.24,2.807,6.549,7.543,11.325L106.3,37.433
				C99.774,30.906,91.913,25.715,89.241,28.384z"/>
		</g>
		<g>
			<path class="st45" d="M77.046,56.003c-0.213,0-0.428-0.067-0.608-0.207c-0.438-0.336-0.521-0.964-0.185-1.402l17.279-22.527
				c0.335-0.439,0.964-0.521,1.401-0.185c0.438,0.336,0.521,0.964,0.185,1.402L77.839,55.611
				C77.643,55.868,77.346,56.003,77.046,56.003z"/>
		</g>
		<g>
			<path class="st109" d="M89.081,68.036c-0.3,0-0.597-0.135-0.793-0.391c-0.336-0.438-0.254-1.066,0.184-1.402l22.525-17.279
				c0.439-0.336,1.067-0.253,1.402,0.185c0.336,0.438,0.254,1.066-0.184,1.402L89.69,67.83
				C89.509,67.969,89.294,68.036,89.081,68.036z"/>
		</g>
		<g>
			<path class="st109" d="M85.028,63.985c-0.271,0-0.541-0.11-0.738-0.326c-0.373-0.408-0.344-1.04,0.064-1.413l21.811-19.901
				c0.408-0.373,1.041-0.343,1.412,0.065c0.373,0.408,0.344,1.04-0.064,1.413L85.702,63.724
				C85.511,63.899,85.269,63.985,85.028,63.985z"/>
		</g>
		<g>
			<path class="st45" d="M80.86,59.815c-0.24,0-0.482-0.086-0.674-0.261c-0.408-0.372-0.438-1.005-0.064-1.413l19.9-21.811
				c0.371-0.407,1.006-0.437,1.412-0.065c0.408,0.372,0.438,1.005,0.064,1.413l-19.9,21.811
				C81.401,59.706,81.132,59.815,80.86,59.815z"/>
		</g>
	</g>
	<g>
		<path class="st120" d="M6.276,72.238c0-35.239,28.566-63.805,63.807-63.805s63.807,28.566,63.807,63.805
			c0,35.242-28.566,63.807-63.807,63.807S6.276,107.48,6.276,72.238z"/>
	</g>
</g>
</svg>
