<?xml version="1.0" encoding="utf-8"?>
<!-- Generator: Adobe Illustrator 16.0.0, SVG Export Plug-In . SVG Version: 6.00 Build 0)  -->
<!DOCTYPE svg PUBLIC "-//W3C//DTD SVG 1.1//EN" "http://www.w3.org/Graphics/SVG/1.1/DTD/svg11.dtd">
<svg version="1.1" id="Layer_1" xmlns="http://www.w3.org/2000/svg" xmlns:xlink="http://www.w3.org/1999/xlink" x="0px" y="0px"
	 width="136.833px" height="136.834px" viewBox="0 0 136.833 136.834" style="enable-background:new 0 0 136.833 136.834;"
	 xml:space="preserve">
<style type="text/css">
<![CDATA[
	.st0{fill:#7AC3A7;}
	.st1{fill:#AA9C87;}
	.st2{fill:#AAAAAA;}
	.st3{fill:#494A4A;}
	.st4{fill:#AC782B;}
	.st5{fill:#49A0AE;}
	.st6{fill:#AD6F2D;}
	.st7{fill-rule:evenodd;clip-rule:evenodd;fill:#3EB5B5;}
	.st8{fill:#AE8A50;}
	.st9{fill:#7F8092;}
	.st10{fill:#AEADAD;}
	.st11{fill:#AEAEAF;}
	.st12{fill:#129949;}
	.st13{fill:#E1E1E1;}
	.st14{fill:#E2DD3E;}
	.st15{fill-rule:evenodd;clip-rule:evenodd;fill:#757575;}
	.st16{fill:#E4E4E4;}
	.st17{fill:#E57931;}
	.st18{fill:#4AA0A5;}
	.st19{fill:#4B4A4B;}
	.st20{fill:#E79E2D;}
	.st21{fill-rule:evenodd;clip-rule:evenodd;fill:#DBB626;}
	.st22{fill:#E7E760;}
	.st23{fill:#19A855;}
	.st24{fill:#E84849;}
	.st25{fill:#4E4F50;}
	.st26{fill:#4EA3B1;}
	.st27{fill:#E9CA92;}
	.st28{fill:#E9E8A1;}
	.st29{fill:#E9E8A3;}
	.st30{fill:#B03738;}
	.st31{fill:#818282;}
	.st32{fill:#81BCB9;}
	.st33{fill:#B19353;}
	.st34{fill:#825E2D;}
	.st35{fill:#B1B1B2;}
	.st36{fill:#B2B2B2;}
	.st37{opacity:0.15;}
	.st38{fill:#848698;}
	.st39{fill:#B3DCE2;}
	.st40{fill:#B4B4B5;}
	.st41{fill:#1A3940;}
	.st42{fill:#B6E2EB;}
	.st43{fill:#888888;}
	.st44{fill:#B7DFD2;}
	.st45{fill:#1D1E1E;}
	.st46{fill:#ED3351;}
	.st47{fill:#EDC92C;}
	.st48{fill:#EDE8C9;}
	.st49{fill:#1FA85B;}
	.st50{fill-rule:evenodd;clip-rule:evenodd;fill:#AEAEAF;}
	.st51{fill:#EEDD7A;}
	.st52{fill:#52BA73;}
	.st53{fill:#56385F;}
	.st54{fill:#56939A;}
	.st55{fill:#8AC5C4;}
	.st56{fill:#575757;}
	.st57{fill-rule:evenodd;clip-rule:evenodd;fill:#4B4A4B;}
	.st58{fill:#8CD3DA;}
	.st59{fill:#8D8D8C;}
	.st60{fill:#8D9091;}
	.st61{fill-rule:evenodd;clip-rule:evenodd;fill:#E8C790;}
	.st62{fill:#202121;}
	.st63{fill-rule:evenodd;clip-rule:evenodd;fill:#E9CA92;}
	.st64{fill:#BEBC6A;}
	.st65{fill:#F06668;}
	.st66{fill:#BFBEBE;}
	.st67{fill:#F0D359;}
	.st68{fill:#F0F1AF;}
	.st69{fill-rule:evenodd;clip-rule:evenodd;fill:#B14D26;}
	.st70{fill:#22C48A;}
	.st71{fill:#F1D250;}
	.st72{fill:#F1E089;}
	.st73{fill:#F1F1B3;}
	.st74{fill:#F2BE3E;}
	.st75{fill:#F37C2A;}
	.st76{fill:#256533;}
	.st77{fill:#F4D967;}
	.st78{fill:#F4E028;}
	.st79{fill:#F4F5F5;}
	.st80{fill-rule:evenodd;clip-rule:evenodd;fill:#B5B2B3;}
	.st81{fill:#F5D827;}
	.st82{fill:#F5E554;}
	.st83{fill:#276D69;}
	.st84{fill-rule:evenodd;clip-rule:evenodd;fill:#B6AE8F;}
	.st85{fill:#F6A2A3;}
	.st86{fill-rule:evenodd;clip-rule:evenodd;fill:#1CAAB9;}
	.st87{fill-rule:evenodd;clip-rule:evenodd;fill:#888888;}
	.st88{fill:#F7D98B;}
	.st89{fill:#F7E497;}
	.st90{fill:#F8DE71;}
	.st91{fill-rule:evenodd;clip-rule:evenodd;fill:#ECE1D0;}
	.st92{fill:#F9F29A;}
	.st93{fill-rule:evenodd;clip-rule:evenodd;fill:#EDC92C;}
	.st94{clip-path:url(#SVGID_2_);}
	.st95{fill:#90682F;}
	.st96{fill:#C0C0C0;}
	.st97{fill:#93793D;}
	.st98{fill:#939292;}
	.st99{fill:#93D1BD;}
	.st100{fill:#949897;}
	.st101{fill:#94D0D0;}
	.st102{fill:#954E9D;}
	.st103{fill:#958469;}
	.st104{fill:#C4BC98;}
	.st105{fill:#C698C5;}
	.st106{fill:#2C6973;}
	.st107{fill:#FAF2F2;}
	.st108{fill:#C7E8ED;}
	.st109{fill:#2E2F2F;}
	.st110{fill:#2F8442;}
	.st111{opacity:0.3;}
	.st112{fill:#606060;}
	.st113{fill:#616A89;}
	.st114{fill:#61BECD;}
	.st115{fill:#FFC200;}
	.st116{fill:#FFFFFF;}
	.st117{fill:#626463;}
	.st118{fill:#63A2AC;}
	.st119{fill-rule:evenodd;clip-rule:evenodd;fill:#F2E8D3;}
	.st120{fill:none;}
	.st121{fill:#9A7338;}
	.st122{fill-rule:evenodd;clip-rule:evenodd;fill:#F5D8A4;}
	.st123{fill-rule:evenodd;clip-rule:evenodd;fill:#F5DFB5;}
	.st124{fill:#9B7842;}
	.st125{fill:#67B8CB;}
	.st126{fill:#9D5D26;}
	.st127{fill:#9D9E9F;}
	.st128{fill:#CDCCCB;}
	.st129{fill:#9EA3B6;}
	.st130{fill:#9F77AA;}
	.st131{fill-rule:evenodd;clip-rule:evenodd;fill:#C0BEBF;}
	.st132{fill-rule:evenodd;clip-rule:evenodd;fill:#C15E28;}
	.st133{fill:#343433;}
	.st134{fill:#355957;}
	.st135{fill:#357180;}
	.st136{fill:#35B167;}
	.st137{fill-rule:evenodd;clip-rule:evenodd;fill:#97A0A0;}
	.st138{fill:#6C6C6B;}
	.st139{fill:#6CC077;}
	.st140{fill:#6EC2CB;}
	.st141{fill:#6FB698;}
	.st142{fill-rule:evenodd;clip-rule:evenodd;fill:#616161;}
	.st143{fill:#D0D1D1;}
	.st144{fill-rule:evenodd;clip-rule:evenodd;fill:#FFF4E4;}
	.st145{fill:#D2CBA6;}
	.st146{fill:#D2D2D2;}
	.st147{fill:#D68828;}
	.st148{fill:#D68A28;}
	.st149{fill:#3D3428;}
	.st150{fill:#3D4040;}
	.st151{fill:#3D969F;}
	.st152{fill-rule:evenodd;clip-rule:evenodd;fill:#CDCCCB;}
	.st153{fill:#A0D5D9;}
	.st154{fill:#A2D4DE;}
	.st155{fill:#A3D4AA;}
	.st156{fill:#A48A47;}
	.st157{fill:#75B7BB;}
	.st158{fill:#776850;}
	.st159{fill:#DAC425;}
	.st160{fill:#DBBD40;}
	.st161{fill:#DBC55E;}
	.st162{fill:#DBDBDA;}
	.st163{fill:#DBF0F5;}
	.st164{fill:#DCDBDC;}
	.st165{fill:#DDDDDC;}
	.st166{fill-rule:evenodd;clip-rule:evenodd;fill:#6EC2CB;}
	.st167{fill:#DFBFDB;}
	.st168{fill:#DFCC6B;}
	.st169{fill:#448590;}
]]>
</style>
<g>
	<g>
		<circle class="st70" cx="67.583" cy="70.691" r="63.333"/>
	</g>
	<g>
		<g>
			<path class="st32" d="M46.361,100.52c-1.367,0-2.602-0.551-3.504-1.439c0.904,0.915,2.16,1.484,3.549,1.484h1.072l-0.025-0.045
				H46.361z"/>
		</g>
		<g>
			<polygon class="st55" points="50.018,100.52 47.453,100.52 47.479,100.564 50.057,100.564 			"/>
		</g>
		<g>
			<path class="st47" d="M102.871,71.742l-3.756-6.67c-0.234,0.986-0.758,1.912-1.584,2.625l-8.541,7.367L68.711,92.557
				l-2.238,5.407l34.498-19.423c0.723-0.407,1.285-0.979,1.709-1.627C103.666,75.405,103.818,73.422,102.871,71.742z"/>
		</g>
		<g>
			<polygon class="st101" points="53.838,100.52 50.018,100.52 50.057,100.564 53.945,100.564 			"/>
		</g>
		<g>
			<path class="st75" d="M98.051,60.658l-10.135-11.75c-0.664-0.771-1.516-1.285-2.43-1.541c0.654,1.261,0.785,2.78,0.201,4.195
				l-3.412,8.238l-6.32,15.264l-9.086,22.298l29.875-28.875l-0.201,0.063l0.988-0.853c0.826-0.713,1.35-1.639,1.584-2.625
				C99.473,63.566,99.141,61.92,98.051,60.658z"/>
		</g>
		<g>
			<path class="st46" d="M102.68,76.914c-0.424,0.648-0.986,1.22-1.709,1.627L66.473,97.964l-0.381,0.214
				c-0.871,1.384-2.395,2.311-4.146,2.335l-0.092,0.052h3.473H98.83c2.758,0,4.992-2.234,4.992-4.992V80.057
				C103.822,78.859,103.383,77.773,102.68,76.914z"/>
		</g>
		<g>
			<path class="st153" d="M59.48,100.52l-0.053,0.045h2.426l0.092-0.052c-0.023,0-0.045,0.007-0.07,0.007H59.48z"/>
		</g>
		<g>
			<polygon class="st153" points="53.838,100.52 53.945,100.564 59.428,100.564 59.48,100.52 			"/>
		</g>
		<g>
			<path class="st135" d="M85.486,47.367c-0.521-1.01-1.369-1.857-2.502-2.326l-14.336-5.936c-1.27-0.526-2.633-0.488-3.813-0.002
				c1.227,0.909,2.033,2.355,2.033,4v17.367v8.004v6.59v19.082v1.382c0,0.976-0.291,1.88-0.777,2.649l0.381-0.214l2.029-4.899
				l0.117-0.077l7.336-17.923l6.32-15.264l3.412-8.238C86.271,50.147,86.141,48.628,85.486,47.367z"/>
		</g>
		<g>
			<path class="st39" d="M41.414,90.547l-0.045-0.054v5.035c0,1.39,0.57,2.646,1.488,3.552c-0.891-0.902-1.443-2.14-1.443-3.508
				V90.547z"/>
		</g>
		<g>
			<path class="st39" d="M41.414,83.188v-0.763l-0.045,0.04v0.772C41.383,83.219,41.4,83.205,41.414,83.188z"/>
		</g>
		<g>
			<polygon class="st39" points="41.414,89.798 41.369,89.717 41.369,90.493 41.414,90.547 			"/>
		</g>
		<g>
			<path class="st39" d="M41.369,83.237v6.479l0.045,0.081v-6.61C41.4,83.205,41.383,83.219,41.369,83.237z"/>
		</g>
		<g>
			<path class="st39" d="M41.928,90.709c-0.031,0.107-0.07,0.213-0.096,0.321l0.797,0.923L41.928,90.709z"/>
		</g>
		<g>
			<path class="st49" d="M64.836,39.104c-0.83-0.615-1.848-0.991-2.961-0.991H46.361c-2.758,0-4.992,2.234-4.992,4.991v39.361
				l0.045-0.04v0.763v6.61v0.749v5.025c0,1.368,0.553,2.605,1.443,3.508c0.902,0.889,2.137,1.439,3.504,1.439h1.092h2.564h3.82
				h5.643h2.395c0.025,0,0.047-0.007,0.07-0.007c1.752-0.024,3.275-0.951,4.146-2.335c0.486-0.77,0.777-1.674,0.777-2.649v-1.382
				V75.064v-6.59v-8.004V43.104C66.869,41.459,66.063,40.013,64.836,39.104z"/>
		</g>
	</g>
	<g>
		<circle class="st32" cx="60.701" cy="94.776" r="3.166"/>
	</g>
</g>
</svg>
