<?xml version="1.0" encoding="utf-8"?>
<!-- Generator: Adobe Illustrator 16.0.0, SVG Export Plug-In . SVG Version: 6.00 Build 0)  -->
<!DOCTYPE svg PUBLIC "-//W3C//DTD SVG 1.1//EN" "http://www.w3.org/Graphics/SVG/1.1/DTD/svg11.dtd">
<svg version="1.1" id="Layer_1" xmlns="http://www.w3.org/2000/svg" xmlns:xlink="http://www.w3.org/1999/xlink" x="0px" y="0px"
	 width="136.833px" height="136.833px" viewBox="0 0 136.833 136.833" style="enable-background:new 0 0 136.833 136.833;"
	 xml:space="preserve">
<style type="text/css">
<![CDATA[
	.st0{fill:#7AC3A7;}
	.st1{fill:#AA9C87;}
	.st2{fill:#AAAAAA;}
	.st3{fill:#494A4A;}
	.st4{fill:#AC782B;}
	.st5{fill:#49A0AE;}
	.st6{fill:#AD6F2D;}
	.st7{fill-rule:evenodd;clip-rule:evenodd;fill:#3EB5B5;}
	.st8{fill:#AE8A50;}
	.st9{fill:#7F8092;}
	.st10{fill:#AEADAD;}
	.st11{fill:#AEAEAF;}
	.st12{fill:#129949;}
	.st13{fill:#E1E1E1;}
	.st14{fill:#E2DD3E;}
	.st15{fill-rule:evenodd;clip-rule:evenodd;fill:#757575;}
	.st16{fill:#E4E4E4;}
	.st17{fill:#E57931;}
	.st18{fill:#4AA0A5;}
	.st19{fill:#4B4A4B;}
	.st20{fill:#E79E2D;}
	.st21{fill-rule:evenodd;clip-rule:evenodd;fill:#DBB626;}
	.st22{fill:#E7E760;}
	.st23{fill:#19A855;}
	.st24{fill:#E84849;}
	.st25{fill:#4E4F50;}
	.st26{fill:#4EA3B1;}
	.st27{fill:#E9CA92;}
	.st28{fill:#E9E8A1;}
	.st29{fill:#E9E8A3;}
	.st30{fill:#B03738;}
	.st31{fill:#818282;}
	.st32{fill:#81BCB9;}
	.st33{fill:#B19353;}
	.st34{fill:#825E2D;}
	.st35{fill:#B1B1B2;}
	.st36{fill:#B2B2B2;}
	.st37{opacity:0.15;}
	.st38{fill:#848698;}
	.st39{fill:#B3DCE2;}
	.st40{fill:#B4B4B5;}
	.st41{fill:#1A3940;}
	.st42{fill:#B6E2EB;}
	.st43{fill:#888888;}
	.st44{fill:#B7DFD2;}
	.st45{fill:#1D1E1E;}
	.st46{fill:#ED3351;}
	.st47{fill:#EDC92C;}
	.st48{fill:#EDE8C9;}
	.st49{fill:#1FA85B;}
	.st50{fill-rule:evenodd;clip-rule:evenodd;fill:#AEAEAF;}
	.st51{fill:#EEDD7A;}
	.st52{fill:#52BA73;}
	.st53{fill:#56385F;}
	.st54{fill:#56939A;}
	.st55{fill:#8AC5C4;}
	.st56{fill:#575757;}
	.st57{fill-rule:evenodd;clip-rule:evenodd;fill:#4B4A4B;}
	.st58{fill:#8CD3DA;}
	.st59{fill:#8D8D8C;}
	.st60{fill:#8D9091;}
	.st61{fill-rule:evenodd;clip-rule:evenodd;fill:#E8C790;}
	.st62{fill:#202121;}
	.st63{fill-rule:evenodd;clip-rule:evenodd;fill:#E9CA92;}
	.st64{fill:#BEBC6A;}
	.st65{fill:#F06668;}
	.st66{fill:#BFBEBE;}
	.st67{fill:#F0D359;}
	.st68{fill:#F0F1AF;}
	.st69{fill-rule:evenodd;clip-rule:evenodd;fill:#B14D26;}
	.st70{fill:#22C48A;}
	.st71{fill:#F1D250;}
	.st72{fill:#F1E089;}
	.st73{fill:#F1F1B3;}
	.st74{fill:#F2BE3E;}
	.st75{fill:#F37C2A;}
	.st76{fill:#256533;}
	.st77{fill:#F4D967;}
	.st78{fill:#F4E028;}
	.st79{fill:#F4F5F5;}
	.st80{fill-rule:evenodd;clip-rule:evenodd;fill:#B5B2B3;}
	.st81{fill:#F5D827;}
	.st82{fill:#F5E554;}
	.st83{fill:#276D69;}
	.st84{fill-rule:evenodd;clip-rule:evenodd;fill:#B6AE8F;}
	.st85{fill:#F6A2A3;}
	.st86{fill-rule:evenodd;clip-rule:evenodd;fill:#1CAAB9;}
	.st87{fill-rule:evenodd;clip-rule:evenodd;fill:#888888;}
	.st88{fill:#F7D98B;}
	.st89{fill:#F7E497;}
	.st90{fill:#F8DE71;}
	.st91{fill-rule:evenodd;clip-rule:evenodd;fill:#ECE1D0;}
	.st92{fill:#F9F29A;}
	.st93{fill-rule:evenodd;clip-rule:evenodd;fill:#EDC92C;}
	.st94{clip-path:url(#SVGID_2_);}
	.st95{fill:#90682F;}
	.st96{fill:#C0C0C0;}
	.st97{fill:#93793D;}
	.st98{fill:#939292;}
	.st99{fill:#93D1BD;}
	.st100{fill:#949897;}
	.st101{fill:#94D0D0;}
	.st102{fill:#954E9D;}
	.st103{fill:#958469;}
	.st104{fill:#C4BC98;}
	.st105{fill:#C698C5;}
	.st106{fill:#2C6973;}
	.st107{fill:#FAF2F2;}
	.st108{fill:#C7E8ED;}
	.st109{fill:#2E2F2F;}
	.st110{fill:#2F8442;}
	.st111{opacity:0.3;}
	.st112{fill:#606060;}
	.st113{fill:#616A89;}
	.st114{fill:#61BECD;}
	.st115{fill:#FFC200;}
	.st116{fill:#FFFFFF;}
	.st117{fill:#626463;}
	.st118{fill:#63A2AC;}
	.st119{fill-rule:evenodd;clip-rule:evenodd;fill:#F2E8D3;}
	.st120{fill:none;}
	.st121{fill:#9A7338;}
	.st122{fill-rule:evenodd;clip-rule:evenodd;fill:#F5D8A4;}
	.st123{fill-rule:evenodd;clip-rule:evenodd;fill:#F5DFB5;}
	.st124{fill:#9B7842;}
	.st125{fill:#67B8CB;}
	.st126{fill:#9D5D26;}
	.st127{fill:#9D9E9F;}
	.st128{fill:#CDCCCB;}
	.st129{fill:#9EA3B6;}
	.st130{fill:#9F77AA;}
	.st131{fill-rule:evenodd;clip-rule:evenodd;fill:#C0BEBF;}
	.st132{fill-rule:evenodd;clip-rule:evenodd;fill:#C15E28;}
	.st133{fill:#343433;}
	.st134{fill:#355957;}
	.st135{fill:#357180;}
	.st136{fill:#35B167;}
	.st137{fill-rule:evenodd;clip-rule:evenodd;fill:#97A0A0;}
	.st138{fill:#6C6C6B;}
	.st139{fill:#6CC077;}
	.st140{fill:#6EC2CB;}
	.st141{fill:#6FB698;}
	.st142{fill-rule:evenodd;clip-rule:evenodd;fill:#616161;}
	.st143{fill:#D0D1D1;}
	.st144{fill-rule:evenodd;clip-rule:evenodd;fill:#FFF4E4;}
	.st145{fill:#D2CBA6;}
	.st146{fill:#D2D2D2;}
	.st147{fill:#D68828;}
	.st148{fill:#D68A28;}
	.st149{fill:#3D3428;}
	.st150{fill:#3D4040;}
	.st151{fill:#3D969F;}
	.st152{fill-rule:evenodd;clip-rule:evenodd;fill:#CDCCCB;}
	.st153{fill:#A0D5D9;}
	.st154{fill:#A2D4DE;}
	.st155{fill:#A3D4AA;}
	.st156{fill:#A48A47;}
	.st157{fill:#75B7BB;}
	.st158{fill:#776850;}
	.st159{fill:#DAC425;}
	.st160{fill:#DBBD40;}
	.st161{fill:#DBC55E;}
	.st162{fill:#DBDBDA;}
	.st163{fill:#DBF0F5;}
	.st164{fill:#DCDBDC;}
	.st165{fill:#DDDDDC;}
	.st166{fill-rule:evenodd;clip-rule:evenodd;fill:#6EC2CB;}
	.st167{fill:#DFBFDB;}
	.st168{fill:#DFCC6B;}
	.st169{fill:#448590;}
]]>
</style>
<g>
	<g>
		<circle class="st115" cx="67.707" cy="70.625" r="63.333"/>
	</g>
	<g>
		<g>
			<path class="st49" d="M90.122,108.201c0,6.291-6.498,12.631-22,12.631c-15.498,0-21.666-6.34-21.666-12.631V55.941h43.666
				V108.201z"/>
		</g>
		<g>
			<path class="st136" d="M68.122,120.832c-15.498,0-21.666-6.34-21.666-12.631V55.941h22.166L68.122,120.832z"/>
		</g>
		<g>
			<path class="st12" d="M90.122,108.201c0,6.291-6.498,12.631-22,12.631c-15.498,0-21.666-6.34-21.666-12.631
				c0,0,4.168,9.332,21.834,9.334C85.956,117.535,90.122,108.201,90.122,108.201z"/>
		</g>
		<g>
			<path class="st23" d="M68.122,120.832c-15.498,0-21.666-6.34-21.666-12.631c0,0,4.168,9.332,21.834,9.334L68.122,120.832z"/>
		</g>
		<g>
			<path class="st59" d="M45.288,55.716c-0.832-3.515,5.834-2.69,16.639-2.69h12.725c10.305,0,17.971-0.63,16.637,2.689
				c-1.332,3.319-11.02,5.487-22.518,5.486C57.271,61.201,46.122,59.229,45.288,55.716z"/>
		</g>
		<g>
			<path class="st127" d="M45.288,55.716c-0.832-3.515,5.834-2.69,16.639-2.69l6.508,0.01l0.125,8.188
				C57.06,61.223,46.122,59.229,45.288,55.716z"/>
		</g>
		<g>
			<path class="st143" d="M74.532,39.668c0,3.354-2.719,6.07-6.072,6.07l0,0c-3.352,0-6.068-2.717-6.07-6.07l0.002-8.531
				c0-3.354,2.717-4.102,6.07-4.102l0,0c3.35,0,6.07,0.747,6.068,4.103L74.532,39.668z"/>
		</g>
		<g>
			<path class="st165" d="M68.46,45.738L68.46,45.738c-3.352,0-6.068-2.717-6.07-6.07l0.002-8.531c0-3.354,2.717-4.102,6.07-4.102
				l0,0L68.46,45.738z"/>
		</g>
		<g>
			<path class="st40" d="M47.755,53.604c2.959-4.744,11.432-14.836,14.854-14.836c0,0,3.328,1.284,5.895,1.285
				c2.566,0,5.467-1.284,5.467-1.284c3.422-0.001,10.457,8.972,14.855,14.835c0,0-10.109,3.469-20.375,3.469
				C58.183,57.071,47.755,53.604,47.755,53.604z"/>
		</g>
		<g>
			<path class="st96" d="M47.755,53.604c2.959-4.744,11.432-14.836,14.854-14.836c0,0,3.328,1.284,5.895,1.285l-0.053,17.02
				C58.183,57.071,47.755,53.604,47.755,53.604z"/>
		</g>
		<g>
			<g>
				<path class="st56" d="M64.856,33.03c0,1.358-1.102,2.461-2.461,2.461V30.57C63.755,30.57,64.856,31.673,64.856,33.03z"/>
			</g>
			<g>
				<path class="st2" d="M63.298,33.031c0,0.498-0.404,0.901-0.902,0.901v-1.804C62.896,32.129,63.298,32.533,63.298,33.031z"/>
			</g>
		</g>
		<g>
			<g>
				<circle class="st52" cx="40.79" cy="31.351" r="2.727"/>
			</g>
			<g>
				<circle class="st52" cx="42.244" cy="37.896" r="2.728"/>
			</g>
			<g>
				<path class="st52" d="M50.063,36.443c0,2.04-1.656,3.695-3.697,3.695c-2.043,0-3.697-1.655-3.697-3.695
					c0-2.044,1.654-3.698,3.697-3.698C48.407,32.745,50.063,34.399,50.063,36.443z"/>
			</g>
			<g>
				<ellipse class="st52" cx="44.184" cy="29.957" rx="3.333" ry="2.668"/>
			</g>
			<g>
				<circle class="st52" cx="46.244" cy="32.685" r="3.333"/>
			</g>
			<g>
				<circle class="st52" cx="39.942" cy="34.987" r="3.697"/>
			</g>
			<g>
				<path class="st52" d="M58.296,32.48c0,0,0.861,0.413,0.826,0.895c-0.068,0.893-0.689,1.099-0.689,1.099
					s-6.584,0.194-9.264,1.401l-0.313-4.198C48.856,31.677,55.269,33.03,58.296,32.48z"/>
			</g>
		</g>
	</g>
</g>
</svg>
