<?xml version="1.0" encoding="utf-8"?>
<!-- Generator: Adobe Illustrator 16.0.0, SVG Export Plug-In . SVG Version: 6.00 Build 0)  -->
<!DOCTYPE svg PUBLIC "-//W3C//DTD SVG 1.1//EN" "http://www.w3.org/Graphics/SVG/1.1/DTD/svg11.dtd">
<svg version="1.1" id="Layer_1" xmlns="http://www.w3.org/2000/svg" xmlns:xlink="http://www.w3.org/1999/xlink" x="0px" y="0px"
	 width="136.833px" height="136.834px" viewBox="0 0 136.833 136.834" style="enable-background:new 0 0 136.833 136.834;"
	 xml:space="preserve">
<style type="text/css">
<![CDATA[
	.st0{fill:#7AC3A7;}
	.st1{fill:#AA9C87;}
	.st2{fill:#AAAAAA;}
	.st3{fill:#494A4A;}
	.st4{fill:#AC782B;}
	.st5{fill:#49A0AE;}
	.st6{fill:#AD6F2D;}
	.st7{fill-rule:evenodd;clip-rule:evenodd;fill:#3EB5B5;}
	.st8{fill:#AE8A50;}
	.st9{fill:#7F8092;}
	.st10{fill:#AEADAD;}
	.st11{fill:#AEAEAF;}
	.st12{fill:#129949;}
	.st13{fill:#E1E1E1;}
	.st14{fill:#E2DD3E;}
	.st15{fill-rule:evenodd;clip-rule:evenodd;fill:#757575;}
	.st16{fill:#E4E4E4;}
	.st17{fill:#E57931;}
	.st18{fill:#4AA0A5;}
	.st19{fill:#4B4A4B;}
	.st20{fill:#E79E2D;}
	.st21{fill-rule:evenodd;clip-rule:evenodd;fill:#DBB626;}
	.st22{fill:#E7E760;}
	.st23{fill:#19A855;}
	.st24{fill:#E84849;}
	.st25{fill:#4E4F50;}
	.st26{fill:#4EA3B1;}
	.st27{fill:#E9CA92;}
	.st28{fill:#E9E8A1;}
	.st29{fill:#E9E8A3;}
	.st30{fill:#B03738;}
	.st31{fill:#818282;}
	.st32{fill:#81BCB9;}
	.st33{fill:#B19353;}
	.st34{fill:#825E2D;}
	.st35{fill:#B1B1B2;}
	.st36{fill:#B2B2B2;}
	.st37{opacity:0.15;}
	.st38{fill:#848698;}
	.st39{fill:#B3DCE2;}
	.st40{fill:#B4B4B5;}
	.st41{fill:#1A3940;}
	.st42{fill:#B6E2EB;}
	.st43{fill:#888888;}
	.st44{fill:#B7DFD2;}
	.st45{fill:#1D1E1E;}
	.st46{fill:#ED3351;}
	.st47{fill:#EDC92C;}
	.st48{fill:#EDE8C9;}
	.st49{fill:#1FA85B;}
	.st50{fill-rule:evenodd;clip-rule:evenodd;fill:#AEAEAF;}
	.st51{fill:#EEDD7A;}
	.st52{fill:#52BA73;}
	.st53{fill:#56385F;}
	.st54{fill:#56939A;}
	.st55{fill:#8AC5C4;}
	.st56{fill:#575757;}
	.st57{fill-rule:evenodd;clip-rule:evenodd;fill:#4B4A4B;}
	.st58{fill:#8CD3DA;}
	.st59{fill:#8D8D8C;}
	.st60{fill:#8D9091;}
	.st61{fill-rule:evenodd;clip-rule:evenodd;fill:#E8C790;}
	.st62{fill:#202121;}
	.st63{fill-rule:evenodd;clip-rule:evenodd;fill:#E9CA92;}
	.st64{fill:#BEBC6A;}
	.st65{fill:#F06668;}
	.st66{fill:#BFBEBE;}
	.st67{fill:#F0D359;}
	.st68{fill:#F0F1AF;}
	.st69{fill-rule:evenodd;clip-rule:evenodd;fill:#B14D26;}
	.st70{fill:#22C48A;}
	.st71{fill:#F1D250;}
	.st72{fill:#F1E089;}
	.st73{fill:#F1F1B3;}
	.st74{fill:#F2BE3E;}
	.st75{fill:#F37C2A;}
	.st76{fill:#256533;}
	.st77{fill:#F4D967;}
	.st78{fill:#F4E028;}
	.st79{fill:#F4F5F5;}
	.st80{fill-rule:evenodd;clip-rule:evenodd;fill:#B5B2B3;}
	.st81{fill:#F5D827;}
	.st82{fill:#F5E554;}
	.st83{fill:#276D69;}
	.st84{fill-rule:evenodd;clip-rule:evenodd;fill:#B6AE8F;}
	.st85{fill:#F6A2A3;}
	.st86{fill-rule:evenodd;clip-rule:evenodd;fill:#1CAAB9;}
	.st87{fill-rule:evenodd;clip-rule:evenodd;fill:#888888;}
	.st88{fill:#F7D98B;}
	.st89{fill:#F7E497;}
	.st90{fill:#F8DE71;}
	.st91{fill-rule:evenodd;clip-rule:evenodd;fill:#ECE1D0;}
	.st92{fill:#F9F29A;}
	.st93{fill-rule:evenodd;clip-rule:evenodd;fill:#EDC92C;}
	.st94{clip-path:url(#SVGID_2_);}
	.st95{fill:#90682F;}
	.st96{fill:#C0C0C0;}
	.st97{fill:#93793D;}
	.st98{fill:#939292;}
	.st99{fill:#93D1BD;}
	.st100{fill:#949897;}
	.st101{fill:#94D0D0;}
	.st102{fill:#954E9D;}
	.st103{fill:#958469;}
	.st104{fill:#C4BC98;}
	.st105{fill:#C698C5;}
	.st106{fill:#2C6973;}
	.st107{fill:#FAF2F2;}
	.st108{fill:#C7E8ED;}
	.st109{fill:#2E2F2F;}
	.st110{fill:#2F8442;}
	.st111{opacity:0.3;}
	.st112{fill:#606060;}
	.st113{fill:#616A89;}
	.st114{fill:#61BECD;}
	.st115{fill:#FFC200;}
	.st116{fill:#FFFFFF;}
	.st117{fill:#626463;}
	.st118{fill:#63A2AC;}
	.st119{fill-rule:evenodd;clip-rule:evenodd;fill:#F2E8D3;}
	.st120{fill:none;}
	.st121{fill:#9A7338;}
	.st122{fill-rule:evenodd;clip-rule:evenodd;fill:#F5D8A4;}
	.st123{fill-rule:evenodd;clip-rule:evenodd;fill:#F5DFB5;}
	.st124{fill:#9B7842;}
	.st125{fill:#67B8CB;}
	.st126{fill:#9D5D26;}
	.st127{fill:#9D9E9F;}
	.st128{fill:#CDCCCB;}
	.st129{fill:#9EA3B6;}
	.st130{fill:#9F77AA;}
	.st131{fill-rule:evenodd;clip-rule:evenodd;fill:#C0BEBF;}
	.st132{fill-rule:evenodd;clip-rule:evenodd;fill:#C15E28;}
	.st133{fill:#343433;}
	.st134{fill:#355957;}
	.st135{fill:#357180;}
	.st136{fill:#35B167;}
	.st137{fill-rule:evenodd;clip-rule:evenodd;fill:#97A0A0;}
	.st138{fill:#6C6C6B;}
	.st139{fill:#6CC077;}
	.st140{fill:#6EC2CB;}
	.st141{fill:#6FB698;}
	.st142{fill-rule:evenodd;clip-rule:evenodd;fill:#616161;}
	.st143{fill:#D0D1D1;}
	.st144{fill-rule:evenodd;clip-rule:evenodd;fill:#FFF4E4;}
	.st145{fill:#D2CBA6;}
	.st146{fill:#D2D2D2;}
	.st147{fill:#D68828;}
	.st148{fill:#D68A28;}
	.st149{fill:#3D3428;}
	.st150{fill:#3D4040;}
	.st151{fill:#3D969F;}
	.st152{fill-rule:evenodd;clip-rule:evenodd;fill:#CDCCCB;}
	.st153{fill:#A0D5D9;}
	.st154{fill:#A2D4DE;}
	.st155{fill:#A3D4AA;}
	.st156{fill:#A48A47;}
	.st157{fill:#75B7BB;}
	.st158{fill:#776850;}
	.st159{fill:#DAC425;}
	.st160{fill:#DBBD40;}
	.st161{fill:#DBC55E;}
	.st162{fill:#DBDBDA;}
	.st163{fill:#DBF0F5;}
	.st164{fill:#DCDBDC;}
	.st165{fill:#DDDDDC;}
	.st166{fill-rule:evenodd;clip-rule:evenodd;fill:#6EC2CB;}
	.st167{fill:#DFBFDB;}
	.st168{fill:#DFCC6B;}
	.st169{fill:#448590;}
]]>
</style>
<g>
	<g>
		<circle class="st70" cx="69.333" cy="70.3" r="63.333"/>
	</g>
	<g>
		<g>
			<g>
				<g>
					<path class="st6" d="M111.268,52.202c-0.008-0.124-0.025-0.252-0.068-0.387c-0.033-0.139-0.08-0.258-0.137-0.368
						c-6.109-17.999-35.494-13.885-49.043-10.059c-13.086,3.696-37.873,15.45-33.848,32.96c1.607,6.996,9.232,10.531,15.469,12.211
						c10.916,2.942,23.021,1.234,33.707-1.783C90.338,81.106,114.836,69.498,111.268,52.202z M99.551,68.73
						c-6.408,6.065-14.561,10.24-23.121,12.854c-8.879,2.709-18.465,3.78-27.684,2.53c-6.654-0.9-14.84-3.682-17.066-10.729
						c-1.934-6.128,3.18-12.245,7.258-16.104c6.592-6.238,15.664-9.909,24.322-12.181c10-2.623,17.793-3.668,26.756-2.451
						c6.467,0.876,14.428,3.576,16.59,10.428C108.035,59.304,103.811,64.702,99.551,68.73z"/>
				</g>
			</g>
		</g>
		<g>
			<g>
				<g>
					<path class="st22" d="M78.244,110.038c-0.77-0.148-1.271-0.893-1.125-1.66L69.92,64.8c0.148-0.77,0.891-1.271,1.664-1.123
						l38.047,22.697c0.77,0.148,1.273,0.892,1.125,1.66l-21.287,3.568L78.244,110.038z"/>
				</g>
			</g>
			<g>
				<g>
					<path class="st14" d="M78.244,110.038c-0.77-0.148-1.271-0.893-1.125-1.66L69.92,64.8c0.074-0.383,0.297-0.703,0.598-0.904
						c0.301-0.204,18.951,27.707,18.951,27.707L78.244,110.038z"/>
				</g>
			</g>
		</g>
		<g>
			<g>
				<path class="st6" d="M48.851,92.418l-1.896-1.631c4.391-5.106,13.704-5.673,14.099-5.694l0.138,2.496
					C61.104,87.594,52.543,88.123,48.851,92.418z"/>
			</g>
		</g>
		<g>
			<g>
				<path class="st126" d="M52.248,100.966c-0.048,0-0.096-0.003-0.144-0.008c-0.685-0.078-1.178-0.696-1.101-1.381
					c0.012-0.117,0.631-6.645-4.239-13.602c-0.396-0.565-0.258-1.345,0.308-1.741c0.563-0.395,1.346-0.259,1.741,0.308
					c5.458,7.798,4.709,15.012,4.675,15.315C53.415,100.495,52.875,100.966,52.248,100.966z"/>
			</g>
		</g>
		<g>
			<g>
				<g>
					<path class="st126" d="M42.895,95.217c-2.172,0-4.479-0.732-6.498-2.063c-4.609-3.034-6.479-8.359-4.168-11.87
						c1.223-1.856,3.426-2.921,6.047-2.921c2.172,0,4.48,0.732,6.498,2.063c4.609,3.032,6.48,8.354,4.172,11.863
						C47.721,94.149,45.516,95.217,42.895,95.217z M38.275,80.863c-1.764,0-3.207,0.654-3.959,1.796
						c-1.553,2.358-0.002,6.13,3.455,8.407c1.615,1.063,3.436,1.649,5.123,1.649c1.791,0,3.199-0.639,3.963-1.801
						c1.525-2.317-0.059-6.165-3.459-8.401C41.783,81.449,39.965,80.863,38.275,80.863z"/>
				</g>
			</g>
		</g>
		<g>
			<g>
				<g>
					<path class="st120" d="M34.377,82.58c-0.018,0.027-0.041,0.052-0.061,0.079c-1.553,2.358-0.002,6.13,3.455,8.407
						c1.615,1.063,3.436,1.649,5.123,1.649c1.791,0,3.199-0.639,3.963-1.801c0.652-0.992,0.732-2.266,0.346-3.572
						c-1.197-0.215-2.389-0.467-3.563-0.783C40.596,85.739,37.223,84.472,34.377,82.58z"/>
				</g>
			</g>
			<g>
				<g>
					<path class="st120" d="M38.275,80.863c-0.016,0-0.033,0.002-0.049,0.003c1.908,1.067,4.031,1.844,6.166,2.396
						c-0.313-0.264-0.641-0.518-0.994-0.749C41.783,81.449,39.965,80.863,38.275,80.863z"/>
				</g>
			</g>
			<g>
				<g>
					<path class="st120" d="M44.773,80.426c1.533,1.009,2.754,2.272,3.629,3.637c0.113,0.017,0.23,0.036,0.344,0.052
						c9.219,1.25,18.805,0.179,27.684-2.53c8.561-2.613,16.713-6.788,23.121-12.854c4.26-4.028,8.484-9.427,7.055-15.653
						c-2.162-6.852-10.123-9.552-16.59-10.428c-8.963-1.217-16.756-0.172-26.756,2.451c-8.658,2.271-17.73,5.942-24.322,12.181
						c-4.078,3.858-9.191,9.976-7.258,16.104c0.705,2.233,2.012,4.034,3.674,5.486c0.885-0.327,1.867-0.508,2.922-0.508
						C40.447,78.363,42.756,79.096,44.773,80.426z"/>
				</g>
			</g>
			<g>
				<g>
					<path class="st126" d="M44.393,83.263c1.408,1.187,2.389,2.65,2.811,4.08c0.877,0.154,1.756,0.293,2.643,0.397
						c-0.189-1.238-0.686-2.495-1.443-3.678C47.1,83.874,45.746,83.612,44.393,83.263z"/>
				</g>
			</g>
			<g>
				<g>
					<path class="st6" d="M38.227,80.866c-1.033-0.578-2.004-1.236-2.873-1.995c-1.219,0.452-2.236,1.2-2.959,2.197
						c0.621,0.543,1.285,1.048,1.982,1.512C35.135,81.501,36.527,80.878,38.227,80.866z"/>
				</g>
			</g>
		</g>
	</g>
</g>
</svg>
