<?xml version="1.0" encoding="utf-8"?>
<!-- Generator: Adobe Illustrator 16.0.0, SVG Export Plug-In . SVG Version: 6.00 Build 0)  -->
<!DOCTYPE svg PUBLIC "-//W3C//DTD SVG 1.1//EN" "http://www.w3.org/Graphics/SVG/1.1/DTD/svg11.dtd">
<svg version="1.1" id="Layer_1" xmlns="http://www.w3.org/2000/svg" xmlns:xlink="http://www.w3.org/1999/xlink" x="0px" y="0px"
	 width="136.833px" height="136.833px" viewBox="0 0 136.833 136.833" style="enable-background:new 0 0 136.833 136.833;"
	 xml:space="preserve">
<style type="text/css">
<![CDATA[
	.st0{fill:#7AC3A7;}
	.st1{fill:#AA9C87;}
	.st2{fill:#AAAAAA;}
	.st3{fill:#494A4A;}
	.st4{fill:#AC782B;}
	.st5{fill:#49A0AE;}
	.st6{fill:#AD6F2D;}
	.st7{fill-rule:evenodd;clip-rule:evenodd;fill:#3EB5B5;}
	.st8{fill:#AE8A50;}
	.st9{fill:#7F8092;}
	.st10{fill:#AEADAD;}
	.st11{fill:#AEAEAF;}
	.st12{fill:#129949;}
	.st13{fill:#E1E1E1;}
	.st14{fill:#E2DD3E;}
	.st15{fill-rule:evenodd;clip-rule:evenodd;fill:#757575;}
	.st16{fill:#E4E4E4;}
	.st17{fill:#E57931;}
	.st18{fill:#4AA0A5;}
	.st19{fill:#4B4A4B;}
	.st20{fill:#E79E2D;}
	.st21{fill-rule:evenodd;clip-rule:evenodd;fill:#DBB626;}
	.st22{fill:#E7E760;}
	.st23{fill:#19A855;}
	.st24{fill:#E84849;}
	.st25{fill:#4E4F50;}
	.st26{fill:#4EA3B1;}
	.st27{fill:#E9CA92;}
	.st28{fill:#E9E8A1;}
	.st29{fill:#E9E8A3;}
	.st30{fill:#B03738;}
	.st31{fill:#818282;}
	.st32{fill:#81BCB9;}
	.st33{fill:#B19353;}
	.st34{fill:#825E2D;}
	.st35{fill:#B1B1B2;}
	.st36{fill:#B2B2B2;}
	.st37{opacity:0.15;}
	.st38{fill:#848698;}
	.st39{fill:#B3DCE2;}
	.st40{fill:#B4B4B5;}
	.st41{fill:#1A3940;}
	.st42{fill:#B6E2EB;}
	.st43{fill:#888888;}
	.st44{fill:#B7DFD2;}
	.st45{fill:#1D1E1E;}
	.st46{fill:#ED3351;}
	.st47{fill:#EDC92C;}
	.st48{fill:#EDE8C9;}
	.st49{fill:#1FA85B;}
	.st50{fill-rule:evenodd;clip-rule:evenodd;fill:#AEAEAF;}
	.st51{fill:#EEDD7A;}
	.st52{fill:#52BA73;}
	.st53{fill:#56385F;}
	.st54{fill:#56939A;}
	.st55{fill:#8AC5C4;}
	.st56{fill:#575757;}
	.st57{fill-rule:evenodd;clip-rule:evenodd;fill:#4B4A4B;}
	.st58{fill:#8CD3DA;}
	.st59{fill:#8D8D8C;}
	.st60{fill:#8D9091;}
	.st61{fill-rule:evenodd;clip-rule:evenodd;fill:#E8C790;}
	.st62{fill:#202121;}
	.st63{fill-rule:evenodd;clip-rule:evenodd;fill:#E9CA92;}
	.st64{fill:#BEBC6A;}
	.st65{fill:#F06668;}
	.st66{fill:#BFBEBE;}
	.st67{fill:#F0D359;}
	.st68{fill:#F0F1AF;}
	.st69{fill-rule:evenodd;clip-rule:evenodd;fill:#B14D26;}
	.st70{fill:#22C48A;}
	.st71{fill:#F1D250;}
	.st72{fill:#F1E089;}
	.st73{fill:#F1F1B3;}
	.st74{fill:#F2BE3E;}
	.st75{fill:#F37C2A;}
	.st76{fill:#256533;}
	.st77{fill:#F4D967;}
	.st78{fill:#F4E028;}
	.st79{fill:#F4F5F5;}
	.st80{fill-rule:evenodd;clip-rule:evenodd;fill:#B5B2B3;}
	.st81{fill:#F5D827;}
	.st82{fill:#F5E554;}
	.st83{fill:#276D69;}
	.st84{fill-rule:evenodd;clip-rule:evenodd;fill:#B6AE8F;}
	.st85{fill:#F6A2A3;}
	.st86{fill-rule:evenodd;clip-rule:evenodd;fill:#1CAAB9;}
	.st87{fill-rule:evenodd;clip-rule:evenodd;fill:#888888;}
	.st88{fill:#F7D98B;}
	.st89{fill:#F7E497;}
	.st90{fill:#F8DE71;}
	.st91{fill-rule:evenodd;clip-rule:evenodd;fill:#ECE1D0;}
	.st92{fill:#F9F29A;}
	.st93{fill-rule:evenodd;clip-rule:evenodd;fill:#EDC92C;}
	.st94{clip-path:url(#SVGID_2_);}
	.st95{fill:#90682F;}
	.st96{fill:#C0C0C0;}
	.st97{fill:#93793D;}
	.st98{fill:#939292;}
	.st99{fill:#93D1BD;}
	.st100{fill:#949897;}
	.st101{fill:#94D0D0;}
	.st102{fill:#954E9D;}
	.st103{fill:#958469;}
	.st104{fill:#C4BC98;}
	.st105{fill:#C698C5;}
	.st106{fill:#2C6973;}
	.st107{fill:#FAF2F2;}
	.st108{fill:#C7E8ED;}
	.st109{fill:#2E2F2F;}
	.st110{fill:#2F8442;}
	.st111{opacity:0.3;}
	.st112{fill:#606060;}
	.st113{fill:#616A89;}
	.st114{fill:#61BECD;}
	.st115{fill:#FFC200;}
	.st116{fill:#FFFFFF;}
	.st117{fill:#626463;}
	.st118{fill:#63A2AC;}
	.st119{fill-rule:evenodd;clip-rule:evenodd;fill:#F2E8D3;}
	.st120{fill:none;}
	.st121{fill:#9A7338;}
	.st122{fill-rule:evenodd;clip-rule:evenodd;fill:#F5D8A4;}
	.st123{fill-rule:evenodd;clip-rule:evenodd;fill:#F5DFB5;}
	.st124{fill:#9B7842;}
	.st125{fill:#67B8CB;}
	.st126{fill:#9D5D26;}
	.st127{fill:#9D9E9F;}
	.st128{fill:#CDCCCB;}
	.st129{fill:#9EA3B6;}
	.st130{fill:#9F77AA;}
	.st131{fill-rule:evenodd;clip-rule:evenodd;fill:#C0BEBF;}
	.st132{fill-rule:evenodd;clip-rule:evenodd;fill:#C15E28;}
	.st133{fill:#343433;}
	.st134{fill:#355957;}
	.st135{fill:#357180;}
	.st136{fill:#35B167;}
	.st137{fill-rule:evenodd;clip-rule:evenodd;fill:#97A0A0;}
	.st138{fill:#6C6C6B;}
	.st139{fill:#6CC077;}
	.st140{fill:#6EC2CB;}
	.st141{fill:#6FB698;}
	.st142{fill-rule:evenodd;clip-rule:evenodd;fill:#616161;}
	.st143{fill:#D0D1D1;}
	.st144{fill-rule:evenodd;clip-rule:evenodd;fill:#FFF4E4;}
	.st145{fill:#D2CBA6;}
	.st146{fill:#D2D2D2;}
	.st147{fill:#D68828;}
	.st148{fill:#D68A28;}
	.st149{fill:#3D3428;}
	.st150{fill:#3D4040;}
	.st151{fill:#3D969F;}
	.st152{fill-rule:evenodd;clip-rule:evenodd;fill:#CDCCCB;}
	.st153{fill:#A0D5D9;}
	.st154{fill:#A2D4DE;}
	.st155{fill:#A3D4AA;}
	.st156{fill:#A48A47;}
	.st157{fill:#75B7BB;}
	.st158{fill:#776850;}
	.st159{fill:#DAC425;}
	.st160{fill:#DBBD40;}
	.st161{fill:#DBC55E;}
	.st162{fill:#DBDBDA;}
	.st163{fill:#DBF0F5;}
	.st164{fill:#DCDBDC;}
	.st165{fill:#DDDDDC;}
	.st166{fill-rule:evenodd;clip-rule:evenodd;fill:#6EC2CB;}
	.st167{fill:#DFBFDB;}
	.st168{fill:#DFCC6B;}
	.st169{fill:#448590;}
]]>
</style>
<g>
	<g>
		<circle class="st115" cx="71.583" cy="71.244" r="63.333"/>
	</g>
	<g>
		<g>
			<path class="st137" d="M84.15,46.107l2.566,3.109l0.068-0.057c2.873-2.473,3.459-2.979,6.621,0.859l2.654,3.213
				c2.352,2.85,2.266,3.006,0.814,5.729L83.52,78.304c-0.57,0.826-0.047,1.27,0.77,2.209c0.33,0.375,0.713,0.813,0.988,1.152
				l0.426,0.516l8.221-6.779l0.52,7.588l-1.17,0.965l14.832,17.979c0.703,0.852,0.576,2.119-0.271,2.822l-5.676,4.678
				c-0.85,0.705-2.121,0.582-2.82-0.268L84.506,91.189l-1.223,1.006l-7.5-1.826l8.164-6.738l-0.43-0.516
				c-0.457-0.553-0.721-0.855-0.947-1.117c-1.748-2.006-2.531-2.67-1.148-4.662l13.449-19.445c0.77-1.449,0.814-1.527-0.57-3.207
				l-2.654-3.213c-1.688-2.047-1.971-1.801-3.383-0.59l-0.102,0.088l2.371,2.875c1.113,1.346,0.918,3.359-0.428,4.471L54.52,87.671
				c-1.35,1.113-3.361,0.92-4.473-0.432l-2.363-2.857l-2.576,2.129c0,0-0.576,0.004-1.096-0.625
				c-0.518-0.631-0.354-1.137-0.354-1.137l2.576-2.125l-2.568-3.119c-1.115-1.348-0.918-3.359,0.428-4.471l35.588-29.359
				C81.029,44.564,83.043,44.758,84.15,46.107L84.15,46.107z M48,74.232l1.564,1.881l31.412-26.087l-1.561-1.883L48,74.232z"/>
		</g>
		<g>
			<path class="st86" d="M84.15,46.107l6.383,7.736c1.113,1.346,0.918,3.359-0.428,4.471L54.52,87.671
				c-1.35,1.113-3.361,0.92-4.473-0.432l-2.363-2.857l-1.449-1.758l-2.568-3.119c-1.115-1.348-0.918-3.359,0.428-4.471
				l35.588-29.359C81.029,44.564,83.043,44.758,84.15,46.107L84.15,46.107z"/>
		</g>
		<g>
			<path class="st7" d="M84.15,46.107l3.396,4.117l-40.57,33.298l-0.742-0.898l-2.568-3.119c-1.115-1.348-0.918-3.359,0.428-4.471
				l35.588-29.359C81.029,44.564,83.043,44.758,84.15,46.107L84.15,46.107z"/>
		</g>
		<g>
			<path class="st137" d="M86.717,49.217l0.068-0.057c2.873-2.473,3.459-2.979,6.621,0.859l2.654,3.213
				c2.352,2.85,2.266,3.006,0.814,5.729L83.52,78.304c-0.57,0.826-0.047,1.27,0.77,2.209c0.33,0.375,0.713,0.813,0.988,1.152
				l0.426,0.516l-1.756,1.449l-0.43-0.516c-0.457-0.553-0.721-0.855-0.947-1.117c-1.748-2.006-2.531-2.67-1.148-4.662l13.449-19.445
				c0.77-1.449,0.814-1.527-0.57-3.207l-2.654-3.213c-1.688-2.047-1.971-1.801-3.383-0.59l-0.102,0.088L86.717,49.217z"/>
		</g>
		<g>
			<path class="st86" d="M43.424,50.615c-2.783-0.703-5.85-0.125-8.221,1.83l0,0c-3.951,3.26-4.518,9.16-1.258,13.109l5.84,7.076
				L52.76,61.928l1.393-1.15l10.398-8.576l2.572-2.123l3.543-2.92l1.5-1.236l6.107-5.045L66.205,26.246
				c-1.729-2.094-4.852-2.393-6.947-0.668l0,0c-2.094,1.727-2.395,4.855-0.666,6.947l3.342,4.055
				c-1.043,0.037-2.086,0.406-2.951,1.117l0,0c-0.43,0.357-0.785,0.77-1.063,1.225l-2.561-3.104
				c-3.26-3.955-9.156-4.518-13.107-1.258l0,0c-3.951,3.258-4.516,9.158-1.256,13.107L43.424,50.615L43.424,50.615z"/>
		</g>
		<g>
			<path class="st69" d="M85.703,82.181c0,0,6.641-6.865,8.221-6.779c1.578,0.088,1.279,6.828,0.52,7.588
				c-0.758,0.76-1.17,0.965-1.17,0.965l14.832,17.979c0.703,0.852,0.576,2.119-0.271,2.822l-5.676,4.678
				c-0.85,0.705-2.121,0.582-2.82-0.268L84.506,91.189c0,0-0.129-0.088-1.223,1.006c-1.096,1.096-7.5-0.283-7.5-1.826
				s8.164-6.738,8.164-6.738L85.703,82.181z"/>
		</g>
		<g>
			<path class="st132" d="M105.217,106.914l-3.059,2.52c-0.85,0.705-2.121,0.582-2.82-0.268L84.506,91.189
				c0,0-0.129-0.088-1.223,1.006c-1.096,1.096-7.5-0.283-7.5-1.826s8.164-6.738,8.164-6.738l0.914-0.754L105.217,106.914z"/>
		</g>
	</g>
</g>
</svg>
