<?xml version="1.0" encoding="utf-8"?>
<!-- Generator: Adobe Illustrator 16.0.0, SVG Export Plug-In . SVG Version: 6.00 Build 0)  -->
<!DOCTYPE svg PUBLIC "-//W3C//DTD SVG 1.1//EN" "http://www.w3.org/Graphics/SVG/1.1/DTD/svg11.dtd">
<svg version="1.1" id="Layer_1" xmlns="http://www.w3.org/2000/svg" xmlns:xlink="http://www.w3.org/1999/xlink" x="0px" y="0px"
	 width="136.833px" height="136.834px" viewBox="0 0 136.833 136.834" style="enable-background:new 0 0 136.833 136.834;"
	 xml:space="preserve">
<style type="text/css">
<![CDATA[
	.st0{fill:#7AC3A7;}
	.st1{fill:#AA9C87;}
	.st2{fill:#AAAAAA;}
	.st3{fill:#494A4A;}
	.st4{fill:#AC782B;}
	.st5{fill:#49A0AE;}
	.st6{fill:#AD6F2D;}
	.st7{fill-rule:evenodd;clip-rule:evenodd;fill:#3EB5B5;}
	.st8{fill:#AE8A50;}
	.st9{fill:#7F8092;}
	.st10{fill:#AEADAD;}
	.st11{fill:#AEAEAF;}
	.st12{fill:#129949;}
	.st13{fill:#E1E1E1;}
	.st14{fill:#E2DD3E;}
	.st15{fill-rule:evenodd;clip-rule:evenodd;fill:#757575;}
	.st16{fill:#E4E4E4;}
	.st17{fill:#E57931;}
	.st18{fill:#4AA0A5;}
	.st19{fill:#4B4A4B;}
	.st20{fill:#E79E2D;}
	.st21{fill-rule:evenodd;clip-rule:evenodd;fill:#DBB626;}
	.st22{fill:#E7E760;}
	.st23{fill:#19A855;}
	.st24{fill:#E84849;}
	.st25{fill:#4E4F50;}
	.st26{fill:#4EA3B1;}
	.st27{fill:#E9CA92;}
	.st28{fill:#E9E8A1;}
	.st29{fill:#E9E8A3;}
	.st30{fill:#B03738;}
	.st31{fill:#818282;}
	.st32{fill:#81BCB9;}
	.st33{fill:#B19353;}
	.st34{fill:#825E2D;}
	.st35{fill:#B1B1B2;}
	.st36{fill:#B2B2B2;}
	.st37{opacity:0.15;}
	.st38{fill:#848698;}
	.st39{fill:#B3DCE2;}
	.st40{fill:#B4B4B5;}
	.st41{fill:#1A3940;}
	.st42{fill:#B6E2EB;}
	.st43{fill:#888888;}
	.st44{fill:#B7DFD2;}
	.st45{fill:#1D1E1E;}
	.st46{fill:#ED3351;}
	.st47{fill:#EDC92C;}
	.st48{fill:#EDE8C9;}
	.st49{fill:#1FA85B;}
	.st50{fill-rule:evenodd;clip-rule:evenodd;fill:#AEAEAF;}
	.st51{fill:#EEDD7A;}
	.st52{fill:#52BA73;}
	.st53{fill:#56385F;}
	.st54{fill:#56939A;}
	.st55{fill:#8AC5C4;}
	.st56{fill:#575757;}
	.st57{fill-rule:evenodd;clip-rule:evenodd;fill:#4B4A4B;}
	.st58{fill:#8CD3DA;}
	.st59{fill:#8D8D8C;}
	.st60{fill:#8D9091;}
	.st61{fill-rule:evenodd;clip-rule:evenodd;fill:#E8C790;}
	.st62{fill:#202121;}
	.st63{fill-rule:evenodd;clip-rule:evenodd;fill:#E9CA92;}
	.st64{fill:#BEBC6A;}
	.st65{fill:#F06668;}
	.st66{fill:#BFBEBE;}
	.st67{fill:#F0D359;}
	.st68{fill:#F0F1AF;}
	.st69{fill-rule:evenodd;clip-rule:evenodd;fill:#B14D26;}
	.st70{fill:#22C48A;}
	.st71{fill:#F1D250;}
	.st72{fill:#F1E089;}
	.st73{fill:#F1F1B3;}
	.st74{fill:#F2BE3E;}
	.st75{fill:#F37C2A;}
	.st76{fill:#256533;}
	.st77{fill:#F4D967;}
	.st78{fill:#F4E028;}
	.st79{fill:#F4F5F5;}
	.st80{fill-rule:evenodd;clip-rule:evenodd;fill:#B5B2B3;}
	.st81{fill:#F5D827;}
	.st82{fill:#F5E554;}
	.st83{fill:#276D69;}
	.st84{fill-rule:evenodd;clip-rule:evenodd;fill:#B6AE8F;}
	.st85{fill:#F6A2A3;}
	.st86{fill-rule:evenodd;clip-rule:evenodd;fill:#1CAAB9;}
	.st87{fill-rule:evenodd;clip-rule:evenodd;fill:#888888;}
	.st88{fill:#F7D98B;}
	.st89{fill:#F7E497;}
	.st90{fill:#F8DE71;}
	.st91{fill-rule:evenodd;clip-rule:evenodd;fill:#ECE1D0;}
	.st92{fill:#F9F29A;}
	.st93{fill-rule:evenodd;clip-rule:evenodd;fill:#EDC92C;}
	.st94{clip-path:url(#SVGID_2_);}
	.st95{fill:#90682F;}
	.st96{fill:#C0C0C0;}
	.st97{fill:#93793D;}
	.st98{fill:#939292;}
	.st99{fill:#93D1BD;}
	.st100{fill:#949897;}
	.st101{fill:#94D0D0;}
	.st102{fill:#954E9D;}
	.st103{fill:#958469;}
	.st104{fill:#C4BC98;}
	.st105{fill:#C698C5;}
	.st106{fill:#2C6973;}
	.st107{fill:#FAF2F2;}
	.st108{fill:#C7E8ED;}
	.st109{fill:#2E2F2F;}
	.st110{fill:#2F8442;}
	.st111{opacity:0.3;}
	.st112{fill:#606060;}
	.st113{fill:#616A89;}
	.st114{fill:#61BECD;}
	.st115{fill:#FFC200;}
	.st116{fill:#FFFFFF;}
	.st117{fill:#626463;}
	.st118{fill:#63A2AC;}
	.st119{fill-rule:evenodd;clip-rule:evenodd;fill:#F2E8D3;}
	.st120{fill:none;}
	.st121{fill:#9A7338;}
	.st122{fill-rule:evenodd;clip-rule:evenodd;fill:#F5D8A4;}
	.st123{fill-rule:evenodd;clip-rule:evenodd;fill:#F5DFB5;}
	.st124{fill:#9B7842;}
	.st125{fill:#67B8CB;}
	.st126{fill:#9D5D26;}
	.st127{fill:#9D9E9F;}
	.st128{fill:#CDCCCB;}
	.st129{fill:#9EA3B6;}
	.st130{fill:#9F77AA;}
	.st131{fill-rule:evenodd;clip-rule:evenodd;fill:#C0BEBF;}
	.st132{fill-rule:evenodd;clip-rule:evenodd;fill:#C15E28;}
	.st133{fill:#343433;}
	.st134{fill:#355957;}
	.st135{fill:#357180;}
	.st136{fill:#35B167;}
	.st137{fill-rule:evenodd;clip-rule:evenodd;fill:#97A0A0;}
	.st138{fill:#6C6C6B;}
	.st139{fill:#6CC077;}
	.st140{fill:#6EC2CB;}
	.st141{fill:#6FB698;}
	.st142{fill-rule:evenodd;clip-rule:evenodd;fill:#616161;}
	.st143{fill:#D0D1D1;}
	.st144{fill-rule:evenodd;clip-rule:evenodd;fill:#FFF4E4;}
	.st145{fill:#D2CBA6;}
	.st146{fill:#D2D2D2;}
	.st147{fill:#D68828;}
	.st148{fill:#D68A28;}
	.st149{fill:#3D3428;}
	.st150{fill:#3D4040;}
	.st151{fill:#3D969F;}
	.st152{fill-rule:evenodd;clip-rule:evenodd;fill:#CDCCCB;}
	.st153{fill:#A0D5D9;}
	.st154{fill:#A2D4DE;}
	.st155{fill:#A3D4AA;}
	.st156{fill:#A48A47;}
	.st157{fill:#75B7BB;}
	.st158{fill:#776850;}
	.st159{fill:#DAC425;}
	.st160{fill:#DBBD40;}
	.st161{fill:#DBC55E;}
	.st162{fill:#DBDBDA;}
	.st163{fill:#DBF0F5;}
	.st164{fill:#DCDBDC;}
	.st165{fill:#DDDDDC;}
	.st166{fill-rule:evenodd;clip-rule:evenodd;fill:#6EC2CB;}
	.st167{fill:#DFBFDB;}
	.st168{fill:#DFCC6B;}
	.st169{fill:#448590;}
]]>
</style>
<g>
	<g>
		<circle class="st70" cx="68.149" cy="69.981" r="63.333"/>
	</g>
	<g>
		<g>
			<path class="st47" d="M86.818,88.577l15.016-50.664c-0.08-0.871-0.936-1.725-1.725-1.725L49.447,51.206
				c-0.494,0-2.313,1.635-2.57,2.018c-0.381,0.256-14.248,31.641-14.248,31.641c0,0.789,19.568,20.355,20.355,20.355
				c0,0,31.563-13.689,31.818-14.072C85.186,90.892,86.818,89.071,86.818,88.577z"/>
		</g>
		<g>
			<path class="st71" d="M101.268,36.755c-0.258-0.256-0.723-0.525-1.158-0.566L49.447,51.206c-0.494,0-2.313,1.635-2.57,2.018
				c-0.381,0.256-14.248,31.641-14.248,31.641c0,0.383,5.084,5.664,9.939,10.527L101.268,36.755z"/>
		</g>
		<g>
			<g>
				<path class="st124" d="M50.627,106.983l-9.826-9.826l-17.519,17.52c3.696,3.711,7.854,6.961,12.373,9.668l14.97-14.969
					C51.287,108.714,51.287,107.644,50.627,106.983z"/>
			</g>
			<g>
				<path class="st8" d="M1.465,116.8"/>
			</g>
			<g>
				<polygon class="st8" points="40.801,97.157 30.953,87.312 40.801,97.157 				"/>
			</g>
			<g>
				<path class="st8" d="M40.801,97.157l-9.848-9.846c-0.66-0.662-1.73-0.662-2.391,0l-14.918,14.918
					c2.694,4.545,5.932,8.727,9.638,12.447L40.801,97.157z"/>
			</g>
		</g>
		<g>
			<path class="st160" d="M60.986,80.313c-0.268,0.266-1.752-0.793-2.104-1.146l0,0c-0.354-0.35-1.412-1.838-1.148-2.102
				l42.963-40.988c0.268-0.264,0.768-0.193,1.119,0.156l0,0c0.352,0.354,0.422,0.854,0.156,1.119L60.986,80.313z"/>
		</g>
		<g>
			<path class="st160" d="M61.881,82.329c-2.051,2.055-5.082,2.352-6.766,0.668c-1.684-1.686-1.387-4.715,0.664-6.768
				c2.055-2.051,5.082-2.348,6.766-0.664C64.23,77.247,63.934,80.278,61.881,82.329z"/>
		</g>
		<g>
			<path class="st67" d="M61.258,81.708c-1.633,1.637-4.045,1.871-5.387,0.529c-1.34-1.338-1.102-3.75,0.531-5.385
				c1.635-1.635,4.047-1.869,5.387-0.529S62.893,80.075,61.258,81.708z"/>
		</g>
		<g>
			<path class="st67" d="M102.088,36.692c0,0-0.07-0.256-0.271-0.459c-0.201-0.201-0.459-0.27-0.459-0.27L58.574,77.802
				c-0.268,0.266,0.156,1.115,0.357,1.316c0.201,0.203,1.053,0.625,1.318,0.359L102.088,36.692z"/>
		</g>
		<g>
			<path class="st90" d="M101.816,36.233c-0.201-0.201-0.459-0.27-0.459-0.27l-40.6,39.703c-1.344-0.506-3.084-0.084-4.355,1.186
				c-1.633,1.635-1.871,4.047-0.531,5.385L101.816,36.233z"/>
		</g>
		<g>
			<path class="st151" d="M53.066,109.007c-0.723,0.725-1.895,0.725-2.617,0.002l-21.52-21.52c-0.725-0.725-0.725-1.896,0-2.619
				l1.453-1.455c0.723-0.721,1.895-0.721,2.617,0l21.52,21.521c0.725,0.723,0.725,1.895,0,2.617L53.066,109.007z"/>
		</g>
		<g>
			<path class="st18" d="M39.699,98.259l-10.77-10.77c-0.725-0.725-0.725-1.896,0-2.619l1.453-1.455
				c0.723-0.721,1.895-0.721,2.617,0l10.771,10.771L39.699,98.259z"/>
		</g>
	</g>
	<g>
		<circle class="st120" cx="68.149" cy="69.981" r="63.333"/>
	</g>
</g>
</svg>
