<?xml version="1.0" encoding="utf-8"?>
<!-- Generator: Adobe Illustrator 16.0.0, SVG Export Plug-In . SVG Version: 6.00 Build 0)  -->
<!DOCTYPE svg PUBLIC "-//W3C//DTD SVG 1.1//EN" "http://www.w3.org/Graphics/SVG/1.1/DTD/svg11.dtd">
<svg version="1.1" id="Layer_1" xmlns="http://www.w3.org/2000/svg" xmlns:xlink="http://www.w3.org/1999/xlink" x="0px" y="0px"
	 width="136.833px" height="136.834px" viewBox="0 0 136.833 136.834" style="enable-background:new 0 0 136.833 136.834;"
	 xml:space="preserve">
<style type="text/css">
<![CDATA[
	.st0{fill:#E22928;}
	.st1{fill:#81C241;}
	.st2{fill:#ED3533;}
	.st3{fill:#EFEFEF;}
	.st4{fill:#F0AE1D;}
	.st5{fill:#5E9A42;}
	.st6{fill:#FFC10E;}
	.st7{fill:#FFFFFF;}
	.st8{fill:#CA2027;}
	.st9{fill:#9B1C1F;}
	.st10{fill:#67AF45;}
	.st11{fill:#CCCBCB;}
	.st12{fill:#333333;}
	.st13{fill:#D22327;}
	.st14{fill:#A2D4DE;}
	.st15{fill:#75CDDE;}
]]>
</style>
<g>
	<g>
		<g>
			<circle class="st1" cx="68.416" cy="68.417" r="63.333"/>
		</g>
	</g>
	<g>
		<circle class="st5" cx="68.417" cy="90.147" r="7.551"/>
	</g>
	<g>
		<circle class="st12" cx="49.174" cy="46.575" r="9.946"/>
	</g>
	<g>
		<circle class="st12" cx="86.777" cy="46.575" r="9.946"/>
	</g>
	<g>
		<path class="st10" d="M59.585,79.322c0,11.924-9.67,21.598-21.596,21.598c-11.924,0-21.594-9.674-21.594-21.598
			c0-11.926,9.67-21.596,21.594-21.596C49.915,57.727,59.585,67.396,59.585,79.322z"/>
	</g>
	<g>
		<path class="st10" d="M120.558,79.322c0,11.924-9.67,21.598-21.596,21.598c-11.928,0-21.598-9.674-21.598-21.598
			c0-11.926,9.67-21.596,21.598-21.596C110.888,57.727,120.558,67.396,120.558,79.322z"/>
	</g>
</g>
</svg>
