<?xml version="1.0" encoding="utf-8"?>
<!-- Generator: Adobe Illustrator 16.0.0, SVG Export Plug-In . SVG Version: 6.00 Build 0)  -->
<!DOCTYPE svg PUBLIC "-//W3C//DTD SVG 1.1//EN" "http://www.w3.org/Graphics/SVG/1.1/DTD/svg11.dtd">
<svg version="1.1" id="Layer_1" xmlns="http://www.w3.org/2000/svg" xmlns:xlink="http://www.w3.org/1999/xlink" x="0px" y="0px"
	 width="136.913px" height="136.914px" viewBox="0 0 136.913 136.914" enable-background="new 0 0 136.913 136.914"
	 xml:space="preserve">
<g>
	<g>
		<g>
			<g>
				<circle fill="#65A844" cx="68.456" cy="68.458" r="63.333"/>
			</g>
		</g>
	</g>
	<g>
		<path fill="#E9DEC3" d="M95.498,45.341c-6.525-7.627-16.215-12.468-27.041-12.468c-19.652,0-35.584,15.931-35.584,35.583
			c0,11.139,5.123,21.078,13.135,27.603c6.123,4.987,13.936,7.98,22.449,7.98c19.652,0,35.582-15.93,35.582-35.583
			C104.039,59.629,100.82,51.56,95.498,45.341z"/>
		<g>
			<path fill="#F6EDDC" d="M84.908,85.132c11.174-11.172,14.83-26.77,10.641-39.791c-6.527-7.627-16.215-12.468-27.041-12.468
				c-19.652,0-35.584,15.931-35.584,35.583c0,11.139,5.121,21.078,13.135,27.603C58.883,99.783,74.004,96.038,84.908,85.132z"/>
		</g>
		<g>
			<g>
				<path fill="#8E7D5C" d="M98.164,48.882c-0.316-0.478-0.645-0.945-0.982-1.406c-5.906,2.306-17.76,6.324-28.627,6.324
					c-10.453,0-22.486-3.717-29.023-6.056c-0.334,0.466-0.656,0.94-0.969,1.424c6.549,2.365,19.08,6.301,29.992,6.301
					C79.916,55.469,92.273,51.206,98.164,48.882z"/>
			</g>
			<g>
				<circle fill="#3A3A39" cx="85.547" cy="48.487" r="1.438"/>
				<circle fill="#3A3A39" cx="85.547" cy="55.19" r="1.438"/>
				<g>
					<path fill="#DC3735" d="M85.709,55.862c-0.156,0-0.313-0.043-0.453-0.134c-0.387-0.251-0.498-0.767-0.248-1.154
						c0.273-0.422,0.98-1.713,0.98-2.607c0-0.921-0.746-2.465-1.008-2.933c-0.225-0.402-0.08-0.911,0.322-1.136
						c0.4-0.225,0.91-0.082,1.135,0.321c0.125,0.224,1.221,2.228,1.221,3.747c0,1.548-1.119,3.318-1.248,3.516
						C86.25,55.728,85.982,55.862,85.709,55.862z"/>
				</g>
			</g>
			<g>
				<circle fill="#3A3A39" cx="50.764" cy="48.864" r="1.438"/>
				<circle fill="#3A3A39" cx="50.764" cy="55.567" r="1.438"/>
				<g>
					<path fill="#DC3735" d="M50.926,56.239c-0.156,0-0.313-0.043-0.453-0.134c-0.387-0.251-0.498-0.767-0.248-1.154
						c0.273-0.422,0.979-1.713,0.979-2.607c0-0.921-0.744-2.465-1.006-2.933c-0.225-0.402-0.08-0.911,0.322-1.136
						c0.4-0.225,0.91-0.082,1.135,0.321c0.125,0.224,1.219,2.228,1.219,3.747c0,1.548-1.119,3.318-1.246,3.516
						C51.467,56.105,51.199,56.239,50.926,56.239z"/>
				</g>
			</g>
			<g>
				<circle fill="#3A3A39" cx="93.688" cy="46.372" r="1.438"/>
				<circle fill="#3A3A39" cx="93.688" cy="53.074" r="1.438"/>
				<g>
					<path fill="#DC3735" d="M93.852,53.747c-0.156,0-0.314-0.044-0.453-0.134c-0.387-0.251-0.498-0.768-0.248-1.154
						c0.273-0.422,0.979-1.713,0.979-2.608c0-0.92-0.746-2.464-1.006-2.932c-0.225-0.403-0.082-0.911,0.32-1.137
						c0.402-0.224,0.912-0.081,1.137,0.322c0.125,0.224,1.219,2.228,1.219,3.746c0,1.548-1.119,3.319-1.246,3.517
						C94.393,53.613,94.123,53.747,93.852,53.747z"/>
				</g>
			</g>
			<g>
				<circle fill="#3A3A39" cx="42.649" cy="46.61" r="1.438"/>
				<path fill="#3A3A39" d="M44.088,53.312c0,0.352-0.127,0.673-0.336,0.923c-0.264,0.314-0.66,0.516-1.104,0.516
					c-0.793,0-1.438-0.645-1.438-1.438s0.645-1.438,1.438-1.438C43.443,51.875,44.088,52.518,44.088,53.312z"/>
				<g>
					<path fill="#DC3735" d="M42.813,53.985c-0.156,0-0.314-0.044-0.453-0.134c-0.387-0.251-0.498-0.768-0.248-1.154
						c0.271-0.422,0.979-1.713,0.979-2.608c0-0.92-0.746-2.464-1.006-2.932c-0.227-0.403-0.082-0.911,0.32-1.137
						c0.402-0.224,0.912-0.081,1.137,0.322c0.125,0.224,1.219,2.228,1.219,3.746c0,1.548-1.119,3.319-1.246,3.517
						C43.354,53.851,43.084,53.985,42.813,53.985z"/>
				</g>
			</g>
			<g>
				<circle fill="#3A3A39" cx="67.54" cy="50.922" r="1.438"/>
				<circle fill="#3A3A39" cx="67.54" cy="57.625" r="1.438"/>
				<g>
					<path fill="#DC3735" d="M67.703,58.298c-0.156,0-0.313-0.043-0.453-0.134c-0.387-0.25-0.498-0.768-0.248-1.154
						c0.273-0.422,0.979-1.713,0.979-2.607c0-0.921-0.744-2.465-1.006-2.934c-0.225-0.402-0.082-0.911,0.32-1.136
						c0.402-0.224,0.912-0.08,1.137,0.322c0.125,0.225,1.219,2.229,1.219,3.747c0,1.547-1.119,3.318-1.246,3.515
						C68.244,58.165,67.977,58.298,67.703,58.298z"/>
				</g>
			</g>
			<g>
				<circle fill="#3A3A39" cx="77.156" cy="50.422" r="1.438"/>
				<circle fill="#3A3A39" cx="77.156" cy="57.125" r="1.438"/>
				<g>
					<path fill="#DC3735" d="M77.32,57.797c-0.156,0-0.314-0.044-0.453-0.134c-0.389-0.251-0.498-0.768-0.248-1.154
						c0.271-0.422,0.979-1.713,0.979-2.608c0-0.92-0.746-2.464-1.006-2.932c-0.227-0.403-0.082-0.912,0.32-1.137
						c0.4-0.224,0.912-0.081,1.137,0.321c0.125,0.225,1.219,2.229,1.219,3.747c0,1.548-1.119,3.319-1.248,3.517
						C77.859,57.664,77.592,57.797,77.32,57.797z"/>
				</g>
			</g>
			<g>
				<circle fill="#3A3A39" cx="58.16" cy="50.422" r="1.438"/>
				<circle fill="#3A3A39" cx="58.16" cy="57.125" r="1.438"/>
				<g>
					<path fill="#DC3735" d="M58.322,57.797c-0.154,0-0.313-0.044-0.453-0.134c-0.387-0.251-0.496-0.768-0.248-1.154
						c0.273-0.422,0.98-1.713,0.98-2.608c0-0.92-0.746-2.464-1.008-2.932c-0.225-0.403-0.08-0.912,0.322-1.137
						c0.402-0.224,0.91-0.081,1.137,0.321c0.125,0.225,1.219,2.229,1.219,3.747c0,1.548-1.121,3.319-1.248,3.517
						C58.865,57.664,58.596,57.797,58.322,57.797z"/>
				</g>
			</g>
		</g>
		<g>
			<g>
				<path fill="#8E7D5C" d="M67.129,81.116c-10.865,0-22.643,3.9-28.803,6.272c0.305,0.483,0.625,0.955,0.951,1.422
					c6.125-2.337,17.443-6.025,27.852-6.025c11.113,0,24.006,4.198,30.186,6.479c0.336-0.465,0.66-0.938,0.975-1.42
					C92.16,85.562,78.727,81.116,67.129,81.116z"/>
			</g>
			<g>
				<circle fill="#3A3A39" cx="50.763" cy="87.848" r="1.438"/>
				<circle fill="#3A3A39" cx="50.763" cy="81.145" r="1.438"/>
				<g>
					<path fill="#DC3735" d="M50.6,80.473c0.156,0,0.313,0.043,0.453,0.134c0.389,0.251,0.498,0.767,0.248,1.154
						c-0.271,0.422-0.979,1.713-0.979,2.607c0,0.921,0.746,2.465,1.006,2.933c0.227,0.402,0.08,0.911-0.32,1.136
						c-0.402,0.225-0.912,0.082-1.137-0.321c-0.125-0.224-1.219-2.228-1.219-3.747c0-1.548,1.119-3.318,1.248-3.516
						C50.059,80.607,50.326,80.473,50.6,80.473z"/>
				</g>
			</g>
			<g>
				<circle fill="#3A3A39" cx="85.875" cy="87.973" r="1.438"/>
				<circle fill="#3A3A39" cx="85.875" cy="81.27" r="1.438"/>
				<g>
					<path fill="#DC3735" d="M85.713,80.598c0.156,0,0.313,0.043,0.453,0.134c0.387,0.251,0.498,0.767,0.248,1.154
						c-0.273,0.422-0.979,1.713-0.979,2.607c0,0.921,0.744,2.465,1.006,2.933c0.225,0.402,0.08,0.911-0.322,1.136
						c-0.4,0.225-0.91,0.082-1.135-0.321c-0.125-0.224-1.219-2.228-1.219-3.747c0-1.548,1.119-3.318,1.246-3.516
						C85.172,80.732,85.439,80.598,85.713,80.598z"/>
				</g>
			</g>
			<g>
				<circle fill="#3A3A39" cx="42.871" cy="90.213" r="1.438"/>
				<circle fill="#3A3A39" cx="42.871" cy="83.511" r="1.438"/>
				<g>
					<path fill="#DC3735" d="M42.709,82.838c0.156,0,0.313,0.044,0.453,0.134c0.387,0.251,0.496,0.768,0.248,1.154
						c-0.273,0.422-0.98,1.713-0.98,2.608c0,0.92,0.746,2.464,1.008,2.932c0.225,0.403,0.08,0.911-0.322,1.137
						c-0.4,0.224-0.91,0.081-1.137-0.322c-0.125-0.224-1.219-2.228-1.219-3.746c0-1.548,1.121-3.319,1.248-3.517
						C42.168,82.972,42.436,82.838,42.709,82.838z"/>
				</g>
			</g>
			<g>
				<circle fill="#3A3A39" cx="94.17" cy="90.367" r="1.438"/>
				<path fill="#3A3A39" d="M92.732,83.665c0-0.352,0.127-0.673,0.334-0.923c0.266-0.314,0.662-0.516,1.104-0.516
					c0.795,0,1.438,0.645,1.438,1.438s-0.643,1.438-1.438,1.438S92.732,84.458,92.732,83.665z"/>
				<g>
					<path fill="#DC3735" d="M94.008,82.992c0.156,0,0.313,0.044,0.453,0.134c0.387,0.251,0.496,0.768,0.248,1.154
						c-0.273,0.422-0.98,1.713-0.98,2.608c0,0.92,0.746,2.464,1.008,2.932c0.225,0.403,0.08,0.911-0.322,1.137
						c-0.4,0.224-0.91,0.081-1.137-0.322c-0.125-0.224-1.219-2.228-1.219-3.746c0-1.548,1.121-3.319,1.248-3.517
						C93.467,83.125,93.734,82.992,94.008,82.992z"/>
				</g>
			</g>
			<g>
				<circle fill="#3A3A39" cx="68.145" cy="85.663" r="1.438"/>
				<circle fill="#3A3A39" cx="68.145" cy="78.959" r="1.438"/>
				<g>
					<path fill="#DC3735" d="M67.982,78.287c0.154,0,0.313,0.043,0.453,0.134c0.387,0.25,0.496,0.768,0.248,1.154
						c-0.273,0.422-0.98,1.713-0.98,2.607c0,0.921,0.746,2.465,1.008,2.934c0.225,0.402,0.08,0.911-0.322,1.136
						c-0.4,0.224-0.91,0.08-1.137-0.322c-0.123-0.225-1.219-2.229-1.219-3.747c0-1.547,1.121-3.318,1.248-3.515
						C67.441,78.42,67.709,78.287,67.982,78.287z"/>
				</g>
			</g>
			<g>
				<circle fill="#3A3A39" cx="59.403" cy="85.788" r="1.438"/>
				<circle fill="#3A3A39" cx="59.403" cy="79.085" r="1.438"/>
				<g>
					<path fill="#DC3735" d="M59.24,78.413c0.156,0,0.313,0.044,0.453,0.134c0.387,0.251,0.498,0.768,0.248,1.154
						c-0.273,0.422-0.98,1.713-0.98,2.608c0,0.92,0.746,2.464,1.008,2.932c0.225,0.403,0.08,0.912-0.322,1.137
						c-0.4,0.224-0.91,0.081-1.135-0.321c-0.125-0.225-1.221-2.229-1.221-3.747c0-1.548,1.121-3.319,1.248-3.517
						C58.699,78.546,58.967,78.413,59.24,78.413z"/>
				</g>
			</g>
			<g>
				<circle fill="#3A3A39" cx="77.098" cy="85.882" r="1.438"/>
				<circle fill="#3A3A39" cx="77.098" cy="79.18" r="1.438"/>
				<g>
					<path fill="#DC3735" d="M76.936,78.507c0.154,0,0.313,0.044,0.453,0.134c0.387,0.251,0.496,0.768,0.248,1.154
						c-0.273,0.422-0.98,1.713-0.98,2.608c0,0.92,0.746,2.464,1.008,2.932c0.225,0.403,0.08,0.912-0.322,1.137
						c-0.402,0.224-0.91,0.081-1.137-0.321c-0.125-0.225-1.219-2.229-1.219-3.747c0-1.548,1.121-3.319,1.248-3.517
						C76.393,78.641,76.662,78.507,76.936,78.507z"/>
				</g>
			</g>
		</g>
	</g>
</g>
</svg>
