<?xml version="1.0" encoding="utf-8"?>
<!-- Generator: Adobe Illustrator 16.0.0, SVG Export Plug-In . SVG Version: 6.00 Build 0)  -->
<!DOCTYPE svg PUBLIC "-//W3C//DTD SVG 1.1//EN" "http://www.w3.org/Graphics/SVG/1.1/DTD/svg11.dtd">
<svg version="1.1" id="Layer_1" xmlns="http://www.w3.org/2000/svg" xmlns:xlink="http://www.w3.org/1999/xlink" x="0px" y="0px"
	 width="136.914px" height="136.914px" viewBox="0 0 136.914 136.914" enable-background="new 0 0 136.914 136.914"
	 xml:space="preserve">
<g>
	<g>
		<g>
			<g>
				<circle fill="#A44A24" cx="68.457" cy="68.457" r="63.333"/>
			</g>
			<g>
				<path fill="none" d="M34.829,79.668c-0.106-0.332-0.205-0.668-0.303-1.005C34.624,79,34.722,79.335,34.829,79.668z"/>
				<path fill="none" d="M36.106,83.033c-0.142-0.323-0.277-0.649-0.409-0.978C35.829,82.384,35.964,82.71,36.106,83.033z"/>
				<path fill="none" d="M35.426,81.37c-0.125-0.327-0.242-0.658-0.356-0.99C35.184,80.712,35.301,81.043,35.426,81.37z"/>
				<path fill="none" d="M34.318,77.931c-0.09-0.34-0.171-0.685-0.252-1.028C34.147,77.246,34.228,77.591,34.318,77.931z"/>
				<path fill="none" d="M33.174,70.671c-0.033-0.623-0.051-1.251-0.051-1.882C33.124,69.42,33.141,70.048,33.174,70.671z"/>
				<path fill="none" d="M33.321,72.527c-0.043-0.412-0.071-0.829-0.101-1.245C33.25,71.698,33.278,72.115,33.321,72.527z"/>
				<path fill="none" d="M33.895,76.161c-0.074-0.352-0.137-0.707-0.201-1.063C33.758,75.454,33.821,75.81,33.895,76.161z"/>
				<path fill="none" d="M33.562,74.358c-0.059-0.369-0.104-0.742-0.15-1.115C33.458,73.616,33.503,73.989,33.562,74.358z"/>
				<path fill="none" d="M39.639,89.273c-0.224-0.315-0.443-0.632-0.656-0.953C39.196,88.643,39.416,88.958,39.639,89.273z"/>
				<path fill="none" d="M40.725,90.728c-0.25-0.317-0.497-0.637-0.736-0.962C40.228,90.091,40.475,90.41,40.725,90.728z"/>
				<path fill="none" d="M43.188,93.541c-0.335-0.344-0.665-0.691-0.985-1.048C42.523,92.85,42.853,93.197,43.188,93.541z"/>
				<path fill="none" d="M41.902,92.146c-0.284-0.325-0.566-0.653-0.839-0.988C41.335,91.492,41.617,91.82,41.902,92.146z"/>
				<path fill="none" d="M44.668,94.984c-0.431-0.394-0.85-0.798-1.26-1.212C43.819,94.187,44.238,94.591,44.668,94.984z"/>
				<path fill="none" d="M37.712,86.239c-0.179-0.316-0.354-0.636-0.524-0.959C37.358,85.604,37.534,85.923,37.712,86.239z"/>
				<path fill="none" d="M36.869,84.656c-0.16-0.318-0.314-0.641-0.465-0.966C36.554,84.016,36.709,84.337,36.869,84.656z"/>
				<path fill="none" d="M38.636,87.778c-0.2-0.315-0.396-0.632-0.587-0.954C38.24,87.146,38.436,87.463,38.636,87.778z"/>
				<path fill="none" d="M68.623,33.29c0.627,0,1.25,0.017,1.868,0.049C69.873,33.307,69.25,33.29,68.623,33.29z"/>
				<path fill="none" d="M84.838,37.213c0.408,0.21,0.813,0.427,1.211,0.651C85.651,37.64,85.247,37.423,84.838,37.213z"/>
				<path fill="none" d="M89.293,39.938c0.423,0.304,0.839,0.615,1.247,0.937C90.131,40.553,89.716,40.241,89.293,39.938z"/>
				<path fill="none" d="M87.853,38.956c0.419,0.271,0.832,0.55,1.238,0.837C88.685,39.506,88.272,39.227,87.853,38.956z"/>
				<path fill="none" d="M86.368,38.048c0.414,0.239,0.823,0.486,1.227,0.742C87.191,38.535,86.782,38.287,86.368,38.048z"/>
				<path fill="none" d="M90.684,40.987c0.425,0.338,0.843,0.686,1.252,1.043C91.527,41.673,91.11,41.325,90.684,40.987z"/>
				<path fill="none" d="M92.024,42.106c0.426,0.374,0.844,0.758,1.252,1.152C92.868,42.864,92.451,42.48,92.024,42.106z"/>
				<path fill="none" d="M74.817,33.84c0.381,0.066,0.763,0.133,1.139,0.212C75.579,33.973,75.198,33.906,74.817,33.84z"/>
				<path fill="none" d="M83.266,36.452c0.401,0.183,0.801,0.37,1.194,0.567C84.066,36.822,83.667,36.635,83.266,36.452z"/>
				<path fill="none" d="M76.583,34.197c0.382,0.087,0.763,0.175,1.14,0.275C77.346,34.373,76.965,34.284,76.583,34.197z"/>
				<path fill="none" d="M72.995,33.567c0.39,0.048,0.779,0.095,1.164,0.154C73.774,33.662,73.384,33.615,72.995,33.567z"/>
				<path fill="none" d="M71.072,33.384c0.423,0.028,0.847,0.057,1.266,0.101C71.918,33.44,71.495,33.412,71.072,33.384z"/>
				<path fill="none" d="M81.654,35.769c0.396,0.157,0.789,0.317,1.178,0.487C82.443,36.086,82.049,35.925,81.654,35.769z"/>
				<path fill="none" d="M78.311,34.639c0.385,0.109,0.77,0.221,1.149,0.342C79.081,34.859,78.696,34.748,78.311,34.639z"/>
				<path fill="none" d="M80,35.164c0.39,0.132,0.779,0.267,1.163,0.411C80.779,35.431,80.391,35.296,80,35.164z"/>
			</g>
		</g>
	</g>
	<g>
		<path fill="#CCCD2B" d="M95.498,45.342c-6.525-7.627-16.215-12.468-27.041-12.468c-19.651,0-35.583,15.931-35.583,35.583
			c0,11.139,5.122,21.078,13.134,27.603c6.124,4.987,13.937,7.98,22.449,7.98c19.653,0,35.583-15.93,35.583-35.583
			C104.04,59.63,100.82,51.561,95.498,45.342z"/>
		<g>
			<path fill="#D3DE32" d="M84.859,85.133c11.172-11.172,14.829-26.77,10.639-39.791c-6.525-7.627-16.215-12.468-27.041-12.468
				c-19.651,0-35.583,15.931-35.583,35.583c0,11.139,5.122,21.078,13.134,27.603C58.833,99.783,73.955,96.038,84.859,85.133z"/>
		</g>
		<g>
			<g>
				<path fill="#BDBF31" d="M93.165,84.443c-4.905-0.553-17.708-4.042-17.708-4.042c-2.06-0.47-3.822-1.105-5.17-2.541
					c1.403,1.833,3.428,3.206,5.849,3.759c0,0,12.803,3.489,17.707,4.042c1.053,0.119,3.199,0.021,5.915-0.205
					c0.16-0.292,0.309-0.592,0.46-0.889C96.971,84.861,94.359,84.578,93.165,84.443z"/>
				<path fill="#BDBF31" d="M99.307,59.692c-3.85-0.226-17.976-4.104-17.976-4.104c-7.738-1.767-15.7,3.637-17.467,11.375
					l-0.152,0.667c-1.075,4.71,0.314,9.41,3.304,12.772c-2.526-3.288-3.627-7.635-2.635-11.983l0.152-0.666
					c1.768-7.739,9.5-12.598,17.238-10.831c0,0,14.126,3.879,17.975,4.104c0.588,0.034,1.774-0.027,3.355-0.155
					c-0.064-0.277-0.263-0.945-0.333-1.22C100.953,59.807,99.952,59.73,99.307,59.692z"/>
				<path fill="#FFFFFF" d="M92.926,89.064c-5.879-0.633-18.383-4.195-18.383-4.195c-3.028-0.691-5.605-2.305-7.527-4.466
					c1.97,2.563,4.807,4.482,8.196,5.257c0,0,12.505,3.562,18.383,4.195c0.759,0.082,1.896,0.081,3.29,0.019
					c0.217-0.284,0.425-0.573,0.632-0.863C95.523,89.137,93.908,89.171,92.926,89.064z"/>
				<path fill="#FFFFFF" d="M98.834,64.431c-4.814-0.336-18.654-4.258-18.654-4.258c-5.512-1.259-11.018,2.201-12.275,7.713
					l-0.152,0.667c-0.788,3.452,0.275,6.902,2.534,9.308c-1.791-2.339-2.569-5.427-1.864-8.518l0.152-0.667
					c1.258-5.511,6.764-8.971,12.275-7.713c0,0,13.84,3.922,18.654,4.259c0.818,0.058,2.349-0.015,4.307-0.17
					c-0.03-0.28-0.07-0.557-0.106-0.836C101.47,64.403,99.731,64.493,98.834,64.431z"/>
				<path fill="#FFFFFF" d="M93.842,85.661c-4.904-0.553-17.707-4.042-17.707-4.042c-2.421-0.553-4.445-1.926-5.849-3.759
					c-2.259-2.405-3.322-5.855-2.534-9.308l0.152-0.667c1.258-5.512,6.764-8.972,12.275-7.713c0,0,13.84,3.922,18.654,4.258
					c0.896,0.063,2.636-0.027,4.87-0.215c-0.147-1.133-0.35-2.248-0.603-3.345c-1.581,0.128-2.768,0.189-3.355,0.155
					c-3.849-0.225-17.975-4.104-17.975-4.104c-7.738-1.767-15.471,3.092-17.238,10.831l-0.152,0.666
					c-0.992,4.349,0.108,8.695,2.635,11.983c1.922,2.161,4.499,3.774,7.527,4.466c0,0,12.504,3.563,18.383,4.195
					c0.981,0.106,2.597,0.072,4.591-0.054c0.813-1.138,1.566-2.321,2.24-3.555C97.042,85.682,94.895,85.78,93.842,85.661z"/>
			</g>
		</g>
	</g>
</g>
</svg>
