<?xml version="1.0" encoding="utf-8"?>
<!-- Generator: Adobe Illustrator 16.0.0, SVG Export Plug-In . SVG Version: 6.00 Build 0)  -->
<!DOCTYPE svg PUBLIC "-//W3C//DTD SVG 1.1//EN" "http://www.w3.org/Graphics/SVG/1.1/DTD/svg11.dtd">
<svg version="1.1" id="Layer_1" xmlns="http://www.w3.org/2000/svg" xmlns:xlink="http://www.w3.org/1999/xlink" x="0px" y="0px"
	 width="136.914px" height="136.914px" viewBox="0 0 136.914 136.914" enable-background="new 0 0 136.914 136.914"
	 xml:space="preserve">
<g>
	<g>
		<circle fill="#A2D4DE" cx="68.458" cy="68.458" r="63.333"/>
	</g>
	<g>
		<path fill="#65A844" d="M5.125,68.458h126.666c0,34.977-28.355,63.332-63.334,63.332C33.48,131.79,5.125,103.434,5.125,68.458z"/>
	</g>
	<g>
		<g>
			<path fill="#FFFFFF" d="M34.082,45.461h66.979c4.439,0,8.037,3.598,8.037,8.036v45.274h4.41V49.695
				c0-4.928-3.996-8.923-8.924-8.923H30.225c-4.928,0-8.924,3.995-8.924,8.923v49.077h4.744V53.498
				C26.045,49.059,29.645,45.461,34.082,45.461z"/>
		</g>
		<g>
			<polygon fill="#FFFFFF" points="47.061,76.738 88.99,76.738 109.291,98.438 112.053,98.438 91.197,73.773 44.646,73.773 
				22.928,98.106 25.898,98.106 			"/>
		</g>
		<g>
			<g>
				<g>
					
						<rect x="19.839" y="59.543" transform="matrix(0.5073 0.8617 -0.8617 0.5073 69.7687 -1.9534)" fill="#FFFFFF" width="33.508" height="1"/>
				</g>
				<g>
					
						<rect x="82.464" y="59.543" transform="matrix(-0.5073 0.8617 -0.8617 -0.5073 201.2967 5.0046)" fill="#FFFFFF" width="33.508" height="1"/>
				</g>
				<g>
					<rect x="66.969" y="43.605" fill="#FFFFFF" width="1" height="31.5"/>
				</g>
				<g>
					
						<rect x="74.343" y="43.604" transform="matrix(0.999 0.0449 -0.0449 0.999 2.739 -3.2989)" fill="#FFFFFF" width="1.001" height="31.501"/>
				</g>
				<g>
					
						<rect x="80.968" y="43.605" transform="matrix(0.9973 0.0733 -0.0733 0.9973 4.5719 -5.8143)" fill="#FFFFFF" width="0.999" height="31.5"/>
				</g>
				<g>
					
						<rect x="89.593" y="43.606" transform="matrix(0.96 0.28 -0.28 0.96 20.2233 -22.852)" fill="#FFFFFF" width="1.001" height="31.5"/>
				</g>
				<g>
					
						<rect x="60.518" y="43.604" transform="matrix(-0.999 0.045 -0.045 -0.999 124.6423 115.9053)" fill="#FFFFFF" width="0.999" height="31.501"/>
				</g>
				<g>
					
						<rect x="53.891" y="43.605" transform="matrix(-0.9973 0.0732 -0.0732 -0.9973 112.9814 114.5699)" fill="#FFFFFF" width="1.001" height="31.5"/>
				</g>
				<g>
					
						<rect x="45.268" y="43.606" transform="matrix(-0.9598 0.2805 -0.2805 -0.9598 106.3482 103.4886)" fill="#FFFFFF" width="0.999" height="31.499"/>
				</g>
				<g>
					<rect x="31.344" y="50.73" fill="#FFFFFF" width="73.375" height="1"/>
				</g>
				<g>
					<rect x="34.969" y="56.855" fill="#FFFFFF" width="66.125" height="1"/>
				</g>
				<g>
					<rect x="38.219" y="62.605" fill="#FFFFFF" width="59.625" height="1"/>
				</g>
				<g>
					<rect x="41.678" y="67.98" fill="#FFFFFF" width="52.707" height="1"/>
				</g>
			</g>
			<g>
				<g>
					<g>
						
							<rect x="89.667" y="77.606" transform="matrix(0.6508 0.7593 -0.7593 0.6508 95.041 -50.4302)" fill="#FFFFFF" width="25.354" height="0.999"/>
					</g>
					<g>
						
							<rect x="94.489" y="69.855" transform="matrix(0.6809 0.7323 -0.7323 0.6809 84.7748 -53.8752)" fill="#FFFFFF" width="19.458" height="1.001"/>
					</g>
					<g>
						
							<rect x="99.377" y="60.793" transform="matrix(0.7395 0.6731 -0.6731 0.7395 68.8624 -55.3663)" fill="#FFFFFF" width="13.184" height="1"/>
					</g>
					<g>
						
							<rect x="103.569" y="52.543" transform="matrix(0.8459 0.5333 -0.5333 0.8459 44.7686 -48.8735)" fill="#FFFFFF" width="6.797" height="1"/>
					</g>
					<g>
						
							<rect x="102.032" y="49.244" transform="matrix(0.8445 0.5356 -0.5356 0.8445 50.885 -44.7712)" fill="#FFFFFF" width="0.999" height="31.973"/>
					</g>
					<g>
						
							<rect x="104.218" y="57.282" transform="matrix(0.8465 0.5325 -0.5325 0.8465 54.2046 -44.7634)" fill="#FFFFFF" width="1.001" height="28.647"/>
					</g>
					<g>
						
							<rect x="105.531" y="70.397" transform="matrix(0.8473 0.5311 -0.5311 0.8473 58.6271 -44.1078)" fill="#FFFFFF" width="1" height="19.04"/>
					</g>
					<g>
						
							<rect x="107.78" y="80.569" transform="matrix(0.8335 0.5524 -0.5524 0.8335 65.9715 -45.3723)" fill="#FFFFFF" width="1.001" height="12.446"/>
					</g>
				</g>
				<g>
					<g>
						
							<rect x="20.918" y="77.605" transform="matrix(-0.6508 0.7593 -0.7593 -0.6508 114.7596 103.428)" fill="#FFFFFF" width="25.354" height="1"/>
					</g>
					<g>
						
							<rect x="21.991" y="69.855" transform="matrix(-0.6809 0.7323 -0.7323 -0.6809 104.8425 95.0333)" fill="#FFFFFF" width="19.458" height="1.001"/>
					</g>
					<g>
						
							<rect x="23.378" y="60.792" transform="matrix(-0.7395 0.6731 -0.6731 -0.7395 93.3914 86.445)" fill="#FFFFFF" width="13.184" height="1.001"/>
					</g>
					<g>
						
							<rect x="25.571" y="52.543" transform="matrix(-0.8459 0.5333 -0.5333 -0.8459 81.7636 82.4629)" fill="#FFFFFF" width="6.797" height="1"/>
					</g>
					<g>
						
							<rect x="32.907" y="49.244" transform="matrix(-0.845 0.5347 -0.5347 -0.845 96.5174 102.4872)" fill="#FFFFFF" width="1.001" height="31.973"/>
					</g>
					<g>
						
							<rect x="30.72" y="57.282" transform="matrix(-0.8459 0.5333 -0.5333 -0.8459 95.8179 115.5256)" fill="#FFFFFF" width="1" height="28.647"/>
					</g>
					<g>
						
							<rect x="29.408" y="70.397" transform="matrix(-0.8468 0.5319 -0.5319 -0.8468 97.7429 131.682)" fill="#FFFFFF" width="0.999" height="19.04"/>
					</g>
					<g>
						
							<rect x="27.157" y="80.569" transform="matrix(-0.8335 0.5524 -0.5524 -0.8335 98.659 143.8591)" fill="#FFFFFF" width="1.001" height="12.446"/>
					</g>
				</g>
			</g>
		</g>
	</g>
</g>
</svg>
