<?xml version="1.0" encoding="utf-8"?>
<!-- Generator: Adobe Illustrator 16.0.0, SVG Export Plug-In . SVG Version: 6.00 Build 0)  -->
<!DOCTYPE svg PUBLIC "-//W3C//DTD SVG 1.1//EN" "http://www.w3.org/Graphics/SVG/1.1/DTD/svg11.dtd">
<svg version="1.1" id="Layer_1" xmlns="http://www.w3.org/2000/svg" xmlns:xlink="http://www.w3.org/1999/xlink" x="0px" y="0px"
	 width="136.913px" height="136.914px" viewBox="0 0 136.913 136.914" enable-background="new 0 0 136.913 136.914"
	 xml:space="preserve">
<g>
	<g>
		<g>
			<circle fill="#F2B800" cx="68.456" cy="68.457" r="63.333"/>
		</g>
	</g>
	<g>
		<path fill="#6B7177" d="M117.25,64.623H21.277c-2.678,0-4.848,2.17-4.848,4.846c0,2.678,2.17,4.848,4.848,4.848h95.973
			c2.676,0,4.846-2.17,4.846-4.848C122.096,66.793,119.926,64.623,117.25,64.623z"/>
		<path fill="#646A6E" d="M16.43,69.469c0,2.678,2.17,4.848,4.848,4.848h95.973c2.676,0,4.846-2.17,4.846-4.848H16.43z"/>
		<path fill="#414548" d="M113.939,53.242c-2.078,0-3.764,0.625-3.764,2.703v27.855c0,2.078,1.686,2.705,3.764,2.705
			s3.764-0.627,3.764-2.705V55.945C117.703,53.867,116.018,53.242,113.939,53.242z"/>
		<path fill="#313335" d="M113.939,53.242c-2.078,0-3.764,0.625-3.764,2.703v27.855c0,2.078,1.686,2.705,3.764,2.705V53.242z"/>
		<path fill="#414548" d="M25.023,53.242c2.08,0,3.766,0.625,3.766,2.703v27.855c0,2.078-1.686,2.705-3.766,2.705
			c-2.078,0-3.764-0.627-3.764-2.705V55.945C21.26,53.867,22.945,53.242,25.023,53.242z"/>
		<path fill="#313335" d="M25.023,53.242v33.264c-2.078,0-3.764-0.627-3.764-2.705V55.945C21.26,53.867,22.945,53.242,25.023,53.242
			z"/>
		<path fill="#393C3F" d="M105.357,48.457c-2.678,0-4.848,0.805-4.848,3.482v35.867c0,2.678,2.17,3.484,4.848,3.484
			c2.676,0,4.846-0.807,4.846-3.484V51.939C110.203,49.262,108.033,48.457,105.357,48.457z"/>
		<path fill="#303335" d="M105.357,48.457c-2.678,0-4.848,0.805-4.848,3.482v35.867c0,2.678,2.17,3.484,4.848,3.484V48.457z"/>
		<path fill="#393C3F" d="M33.607,48.457c2.678,0,4.848,0.805,4.848,3.482v35.867c0,2.678-2.17,3.484-4.848,3.484
			s-4.848-0.807-4.848-3.484V51.939C28.76,49.262,30.93,48.457,33.607,48.457z"/>
		<path fill="#303335" d="M33.607,48.457v42.834c-2.678,0-4.848-0.807-4.848-3.484V51.939C28.76,49.262,30.93,48.457,33.607,48.457z
			"/>
	</g>
</g>
</svg>
