<?xml version="1.0" encoding="utf-8"?>
<!-- Generator: Adobe Illustrator 16.0.0, SVG Export Plug-In . SVG Version: 6.00 Build 0)  -->
<!DOCTYPE svg PUBLIC "-//W3C//DTD SVG 1.1//EN" "http://www.w3.org/Graphics/SVG/1.1/DTD/svg11.dtd">
<svg version="1.1" id="Layer_1" xmlns="http://www.w3.org/2000/svg" xmlns:xlink="http://www.w3.org/1999/xlink" x="0px" y="0px"
	 width="136.914px" height="136.914px" viewBox="0 0 136.914 136.914" enable-background="new 0 0 136.914 136.914"
	 xml:space="preserve">
<g>
	<g>
		<g>
			<circle fill="#A2D4DE" cx="68" cy="69.365" r="63.333"/>
		</g>
		<g>
			<path fill="#65A844" d="M4.667,69.365h126.666c0,34.977-28.355,63.332-63.334,63.332C33.022,132.697,4.667,104.342,4.667,69.365z
				"/>
		</g>
		<g>
			<g>
				<path fill="#51554C" d="M93.697,74.574l24.443-43.881c-1.435-1.857-2.971-3.633-4.6-5.318L87.977,71.268L93.697,74.574z"/>
			</g>
			<path fill="#51554C" d="M88.388,90.295c0,7.725-14.15,16.289-31.605,16.289c-10.889,0-31.605-5.666-31.605-18.945
				c0-4.516,14.15-9.029,31.605-9.029S88.388,82.57,88.388,90.295z"/>
			<polygon fill="#51554C" points="88.122,91.889 94.673,74.006 87.768,70.643 79.446,81.973 			"/>
			<path fill="#737373" d="M86.42,90.621c0,6.992-13.172,14.746-29.42,14.746c-10.136,0-29.42-5.129-29.42-17.15
				c0-4.088,13.172-8.176,29.42-8.176C73.248,80.041,86.42,83.627,86.42,90.621z"/>
			<g>
				<path fill="#909090" d="M77.594,90.895c0,0.621-0.504,1.125-1.125,1.125h-39.5c-0.621,0-1.125-0.504-1.125-1.125l0,0
					c0-0.621,0.504-1.125,1.125-1.125h39.5C77.09,89.77,77.594,90.273,77.594,90.895L77.594,90.895z"/>
				<path fill="#909090" d="M74.094,95.395H39.469c-0.621,0-1.125,0.504-1.125,1.125s0.504,1.125,1.125,1.125h34.625
					c0.621,0,1.125-0.504,1.125-1.125S74.715,95.395,74.094,95.395z"/>
				<path fill="#909090" d="M71.469,84.145H41.344c-0.621,0-1.125,0.504-1.125,1.125s0.504,1.125,1.125,1.125h30.125
					c0.621,0,1.125-0.504,1.125-1.125S72.09,84.145,71.469,84.145z"/>
			</g>
			<polygon fill="#737373" points="86.172,91.688 92.271,75.039 88.033,72.678 79.547,83.908 			"/>
		</g>
	</g>
</g>
</svg>
