<?xml version="1.0" encoding="utf-8"?>
<!-- Generator: Adobe Illustrator 16.0.0, SVG Export Plug-In . SVG Version: 6.00 Build 0)  -->
<!DOCTYPE svg PUBLIC "-//W3C//DTD SVG 1.1//EN" "http://www.w3.org/Graphics/SVG/1.1/DTD/svg11.dtd">
<svg version="1.1" id="Layer_1" xmlns="http://www.w3.org/2000/svg" xmlns:xlink="http://www.w3.org/1999/xlink" x="0px" y="0px"
	 width="136.913px" height="136.914px" viewBox="0 0 136.913 136.914" enable-background="new 0 0 136.913 136.914"
	 xml:space="preserve">
<g>
	<g>
		<g>
			<defs>
				<circle id="SVGID_3_" cx="68.456" cy="68.458" r="63.333"/>
			</defs>
			<clipPath id="SVGID_2_">
				<use xlink:href="#SVGID_3_"  overflow="visible"/>
			</clipPath>
			<g clip-path="url(#SVGID_2_)">
				<circle fill="#357180" cx="68.456" cy="68.458" r="63.333"/>
			</g>
		</g>
	</g>
	<g>
		<path fill="#DAD2B1" d="M101.203,40.47c-7.902-9.235-19.635-15.097-32.742-15.097c-23.793,0-43.082,19.289-43.082,43.083
			c0,13.486,6.201,25.521,15.9,33.42c7.416,6.039,16.875,9.663,27.182,9.663c23.795,0,43.084-19.288,43.084-43.083
			C111.545,57.77,107.646,48,101.203,40.47z"/>
		<g>
			<path fill="#EAE1BC" d="M88.32,88.647c13.527-13.526,17.955-32.41,12.883-48.177c-7.902-9.235-19.635-15.097-32.742-15.097
				c-23.793,0-43.082,19.289-43.082,43.083c0,13.486,6.201,25.521,15.9,33.42C56.811,106.384,75.117,101.851,88.32,88.647z"/>
		</g>
		<g>
			<path fill="#D0C69E" d="M100.037,97.757c-5.936,5.239-11.92,8.805-13.459,9.687c-2.225-3.285-4.686-7.972-6.949-12.696
				c20.557-12.832,26.98-31.563,28.99-41.892c-0.334-0.86-0.697-1.707-1.084-2.539c-1.418,9.285-6.951,29.482-28.563,43.05
				c-3.48-7.387-6.369-14.51-6.994-16.066c6.715-5.73,21.221-35.111,24.389-41.655c-0.396-0.337-0.807-0.657-1.215-0.98
				c-0.648,1.337-1.977,4.051-3.715,7.493C81.004,30.543,62.58,28.319,53.793,27.94c-1.193,0.432-2.357,0.92-3.498,1.451
				c5.791,0.009,28.914,0.91,40.402,14.228c-2.541,5-5.781,11.192-9.016,16.893C69.326,49.323,35.43,49.485,29.723,49.593
				c-0.246,0.505-0.477,1.018-0.703,1.533c0.719-0.025,39.439-1.024,51.898,10.721c-3.973,6.901-7.842,12.829-10.281,14.594
				c-37.828-1.829-44.543-9.424-44.607-9.501l-0.594-0.624c-0.109,1.141-0.055,1.77-0.055,2.098
				c0.834,0.722,2.781,2.082,6.836,3.573c-1.416,7.354-0.391,16.27,0.152,19.974c0.35,0.535,0.705,1.066,1.078,1.584l0.693-0.127
				C34.117,93.297,32,81.52,33.664,72.491c3.783,1.262,9.1,2.572,16.531,3.634c1.529,20.231,9.336,30.886,13.395,35.132
				c0.793,0.09,1.592,0.159,2.398,0.205c-3.035-2.796-12.51-13.183-14.252-35.129c5.24,0.698,11.475,1.27,18.875,1.626
				c1.23,3.074,8.619,21.271,14.619,30.196C90.887,105.763,95.92,102.191,100.037,97.757z"/>
		</g>
	</g>
</g>
</svg>
