<?xml version="1.0" encoding="utf-8"?>
<!-- Generator: Adobe Illustrator 16.0.0, SVG Export Plug-In . SVG Version: 6.00 Build 0)  -->
<!DOCTYPE svg PUBLIC "-//W3C//DTD SVG 1.1//EN" "http://www.w3.org/Graphics/SVG/1.1/DTD/svg11.dtd">
<svg version="1.1" id="Layer_1" xmlns="http://www.w3.org/2000/svg" xmlns:xlink="http://www.w3.org/1999/xlink" x="0px" y="0px"
	 width="136px" height="135.1px" viewBox="0 0 136 135.1" enable-background="new 0 0 136 135.1" xml:space="preserve">
<g>
	<g>
		<g>
			<circle fill="#A2D4DE" cx="68" cy="67.551" r="63.333"/>
		</g>
		<g>
			<path fill="#65A844" d="M4.667,67.551h126.666c0,34.977-28.355,63.332-63.334,63.332C33.022,130.883,4.667,102.527,4.667,67.551z
				"/>
		</g>
		<g>
			<g>
				<path fill="#51554C" d="M93.697,72.76l24.443-43.881c-1.435-1.857-2.971-3.633-4.6-5.318L87.977,69.453L93.697,72.76z"/>
			</g>
			<path fill="#51554C" d="M88.388,88.48c0,7.725-14.15,16.289-31.605,16.289c-10.889,0-31.605-5.666-31.605-18.945
				c0-4.516,14.15-9.029,31.605-9.029S88.388,80.756,88.388,88.48z"/>
			<polygon fill="#51554C" points="88.122,90.074 94.673,72.191 87.768,68.828 79.446,80.158 			"/>
			<path fill="#737373" d="M86.42,88.807c0,6.992-13.172,14.746-29.42,14.746c-10.136,0-29.42-5.129-29.42-17.15
				c0-4.088,13.172-8.176,29.42-8.176C73.248,78.227,86.42,81.813,86.42,88.807z"/>
			<g>
				<path fill="#909090" d="M77.594,89.08c0,0.621-0.504,1.125-1.125,1.125h-39.5c-0.621,0-1.125-0.504-1.125-1.125l0,0
					c0-0.621,0.504-1.125,1.125-1.125h39.5C77.09,87.955,77.594,88.459,77.594,89.08L77.594,89.08z"/>
				<path fill="#909090" d="M74.094,93.58H39.469c-0.621,0-1.125,0.504-1.125,1.125s0.504,1.125,1.125,1.125h34.625
					c0.621,0,1.125-0.504,1.125-1.125S74.715,93.58,74.094,93.58z"/>
				<path fill="#909090" d="M71.469,82.33H41.344c-0.621,0-1.125,0.504-1.125,1.125s0.504,1.125,1.125,1.125h30.125
					c0.621,0,1.125-0.504,1.125-1.125S72.09,82.33,71.469,82.33z"/>
			</g>
			<polygon fill="#737373" points="86.172,89.873 92.271,73.225 88.033,70.863 79.547,82.094 			"/>
		</g>
	</g>
</g>
</svg>
