<?xml version="1.0" encoding="utf-8"?>
<!-- Generator: Adobe Illustrator 16.0.0, SVG Export Plug-In . SVG Version: 6.00 Build 0)  -->
<!DOCTYPE svg PUBLIC "-//W3C//DTD SVG 1.1//EN" "http://www.w3.org/Graphics/SVG/1.1/DTD/svg11.dtd">
<svg version="1.1" id="Layer_1" xmlns="http://www.w3.org/2000/svg" xmlns:xlink="http://www.w3.org/1999/xlink" x="0px" y="0px"
	 width="136.914px" height="136.914px" viewBox="0 0 136.914 136.914" enable-background="new 0 0 136.914 136.914"
	 xml:space="preserve">
<g>
	<circle fill="#D7DABA" cx="68.457" cy="68.457" r="63.333"/>
	<g>
		<path fill="#62A043" d="M60.559,37.787c4.687-2.215,12.284-2.215,16.971,0l54.036,25.545c-0.331-4.131-1.057-8.145-2.142-12.014
			L77.529,26.787c-4.687-2.215-12.284-2.215-16.971,0L7.308,51.961c-1.036,3.85-1.712,7.844-2.003,11.945L60.559,37.787z"/>
		<path fill="#48843E" d="M77.529,53.287l53.45,25.268c0.527-3.289,0.811-6.66,0.811-10.098c0-1.727-0.089-3.434-0.225-5.125
			L77.529,37.787c-4.687-2.215-12.284-2.215-16.971,0L5.305,63.906c-0.107,1.506-0.181,3.02-0.181,4.551
			c0,3.617,0.319,7.158,0.901,10.609l54.533-25.779C65.245,51.072,72.843,51.072,77.529,53.287z"/>
		<path fill="#62A043" d="M68.456,131.791c31.541,0,57.687-23.061,62.523-53.236l-53.45-25.268c-4.687-2.215-12.284-2.215-16.971,0
			L6.025,79.066C11.075,108.99,37.096,131.791,68.456,131.791z"/>
	</g>
	<g>
		<g>
			<path fill="#AE722D" d="M55.544,86.607c2.362,2.363,4.285,4.273,10.589-2.029l54.315-52.271c-1.442-2.07-3.002-4.051-4.676-5.932
				L55.544,86.607z"/>
			<path fill="#B67736" d="M55.544,86.607l60.229-60.232c-1.667-1.873-3.443-3.645-5.319-5.309L57.574,76.018
				C51.27,82.322,53.18,84.242,55.544,86.607z"/>
		</g>
		<path fill="#357180" d="M54.908,79.045c-2.93,3.988-3.05,3.877,0.636,7.563c3.565,3.566,3.728,3.721,7.754,0.5
			C63.338,87.076,54.908,79.045,54.908,79.045z"/>
	</g>
	<g>
		<path fill="#B1793A" d="M80.504,30.48c0,0.279-5.932,3.664-5.932,3.664l-8.026-2.67c-0.549,0-5.576-11.928-5.576-11.928
			l5.576-3.023h12.965c0.549,0,0.993,0.443,0.993,0.992V30.48z"/>
		<path fill="#BB813C" d="M75.186,19.547c-0.549,0-14.216,0-14.216,0l5.576-3.023h12.965c0.234,0,0.448,0.08,0.618,0.215
			c0.228,0.182,0.375,0.463,0.375,0.777L75.186,19.547z"/>
		<path fill="#2A6671" d="M75.565,33.15c0,0.547-0.444,0.994-0.993,0.994H61.607c-0.549,0-0.993-0.447-0.993-0.994V20.186
			c0-0.549,0.444-0.992,0.993-0.992h12.965c0.549,0,0.993,0.443,0.993,0.992V33.15z"/>
		<circle fill="#47989F" cx="68.044" cy="26.355" r="4.671"/>
		<path fill="#387E88" d="M63.373,26.355c0-2.58,2.092-4.672,4.671-4.672v9.344C65.465,31.027,63.373,28.936,63.373,26.355z"/>
	</g>
</g>
</svg>
