<?xml version="1.0" encoding="utf-8"?>
<!-- Generator: Adobe Illustrator 16.0.0, SVG Export Plug-In . SVG Version: 6.00 Build 0)  -->
<!DOCTYPE svg PUBLIC "-//W3C//DTD SVG 1.1//EN" "http://www.w3.org/Graphics/SVG/1.1/DTD/svg11.dtd">
<svg version="1.1" id="Layer_1" xmlns="http://www.w3.org/2000/svg" xmlns:xlink="http://www.w3.org/1999/xlink" x="0px" y="0px"
	 width="136.914px" height="136.914px" viewBox="0 0 136.914 136.914" enable-background="new 0 0 136.914 136.914"
	 xml:space="preserve">
<g>
	<g>
		<g>
			<g>
				<circle fill="#C6B298" cx="68.457" cy="68.458" r="63.333"/>
			</g>
		</g>
	</g>
	<g>
		<path fill="#EA6A25" d="M101.577,40.146c-7.993-9.343-19.86-15.271-33.12-15.271c-24.069,0-43.583,19.513-43.583,43.583
			c0,13.644,6.272,25.817,16.086,33.809c7.501,6.108,17.069,9.774,27.497,9.774c24.071,0,43.583-19.512,43.583-43.583
			C112.04,57.647,108.095,47.763,101.577,40.146z"/>
		<g>
			<path fill="#F37C2A" d="M88.547,88.882c13.684-13.685,18.162-32.787,13.03-48.736c-7.993-9.343-19.86-15.271-33.12-15.271
				c-24.069,0-43.583,19.513-43.583,43.583c0,13.644,6.272,25.817,16.086,33.809C56.67,106.826,75.19,102.24,88.547,88.882z"/>
		</g>
		<path fill="#3A3A39" d="M111.891,71.891c0.052-0.656,0.09-1.315,0.112-1.979c-2.52-1.85-6.552-3.569-11.273-5.122
			c0.504-4.355,0.448-8.281,0.014-11.789l7.696-1.923c-0.219-0.506-0.442-1.01-0.68-1.506l-7.245,1.811
			c-1.064-6.569-3.423-11.57-5.683-15.055c-1.489-2.298-3.038-4.13-4.409-5.537c-1.607-0.939-3.274-1.789-5.004-2.521l-0.158,0.255
			c0.043,0.027,4.404,2.795,8.254,8.759c2.151,3.338,4.4,8.135,5.409,14.449c-10.923,1.55-30.094-15.658-30.28-15.825
			c-5.549-5.192-11.488-7.477-15.061-8.456c-0.89,0.323-1.763,0.681-2.624,1.059c2.435,0.462,9.877,2.317,16.585,8.593
			c0.782,0.707,18.216,16.362,29.968,16.362c0.561,0,1.104-0.048,1.636-0.122c0.395,3.266,0.448,6.909,0.006,10.941
			c-15.28-4.762-36.439-7.828-37.736-8.013c-22.34-2.649-31.951,1.391-35.816,4.243c-0.151,0.82-0.278,1.647-0.382,2.482
			c1.969-2.121,10.024-8.194,35.986-5.115c0.316,0.045,22.429,3.248,37.76,8.019c0,0.001,0,0.001,0,0.001l-0.007,0.071
			c-0.003,0.067-0.275,4.867-2.075,11.403c-5.25-2.332-11.471-0.475-12.205-0.239c-2.405,0.471-24.123,8.573-26.62,9.506
			l-0.046,0.019c-10.725,4.769-23.984,4.847-26.548,4.814c0.345,0.552,0.7,1.097,1.068,1.631c4.208-0.015,16.053-0.484,26.117-4.948
			c9.87-3.69,25.017-9.237,26.344-9.429l0.141-0.031c0.073-0.024,6.36-2.046,11.293,0.256c-0.658,2.184-1.477,4.514-2.516,6.909
			c-3.927,9.061-11.738,20.682-26.818,26.118c0.453,0.014,0.905,0.034,1.361,0.034c1.043,0,2.074-0.05,3.099-0.121
			c13.082-6.093,20.146-16.84,23.851-25.386c1.01-2.33,1.815-4.588,2.472-6.711c0.264,0.188,0.526,0.377,0.774,0.599
			c0.391,0.441,5.327,6.239,4.948,13.809c0.561-0.764,1.093-1.55,1.604-2.351c-0.572-7.252-5.154-12.338-5.378-12.58l-0.055-0.055
			c-0.449-0.405-0.926-0.743-1.411-1.053c1.674-5.931,2.106-10.485,2.199-11.756C105.632,68.082,109.792,69.929,111.891,71.891z"/>
	</g>
</g>
</svg>
