<?xml version="1.0" encoding="utf-8"?>
<!-- Generator: Adobe Illustrator 16.0.0, SVG Export Plug-In . SVG Version: 6.00 Build 0)  -->
<!DOCTYPE svg PUBLIC "-//W3C//DTD SVG 1.1//EN" "http://www.w3.org/Graphics/SVG/1.1/DTD/svg11.dtd">
<svg version="1.1" id="Layer_1" xmlns="http://www.w3.org/2000/svg" xmlns:xlink="http://www.w3.org/1999/xlink" x="0px" y="0px"
	 width="136.914px" height="136.914px" viewBox="0 0 136.914 136.914" enable-background="new 0 0 136.914 136.914"
	 xml:space="preserve">
<g>
	<g>
		<g>
			<g>
				<circle fill="#48843E" cx="68.457" cy="68.457" r="63.333"/>
			</g>
		</g>
	</g>
	<g>
		<path fill="#DB9A28" d="M95.498,45.342c-6.526-7.628-16.215-12.468-27.041-12.468c-19.651,0-35.583,15.931-35.583,35.583
			c0,11.139,5.121,21.078,13.134,27.603c6.123,4.986,13.936,7.98,22.449,7.98c19.652,0,35.583-15.931,35.583-35.583
			C104.04,59.629,100.819,51.561,95.498,45.342z"/>
		<g>
			<path fill="#E3AA24" d="M84.909,85.133c11.172-11.173,14.829-26.77,10.639-39.791c-6.525-7.628-16.215-12.468-27.041-12.468
				c-19.651,0-35.583,15.931-35.583,35.583c0,11.139,5.122,21.078,13.134,27.603C58.884,99.782,74.005,96.038,84.909,85.133z"/>
		</g>
		<g>
			
				<ellipse transform="matrix(0.8732 0.4873 -0.4873 0.8732 36.272 -20.8462)" fill="#FFFFFF" cx="58.204" cy="59.294" rx="16.833" ry="20.55"/>
			<g>
				<path fill="#3A3A39" d="M67.964,56.452l-8.121-4.533l-2.224,2.924c0.488,0.189,0.876,0.404,1.39,0.691
					c1.999,1.115,3.812,2.711,4.676,4.568c0.994,1.928,1.006,4.18-0.341,6.592c-2.143,3.841-7.39,5.367-13.026,2.221
					c-2.548-1.42-4.355-3.18-5.18-4.429l2.922-3.116c0.655,0.948,2.238,2.581,4.139,3.643c2.03,1.131,4.721,1.384,5.942-0.807
					c1.187-2.125,0.204-4.38-3.982-6.716c-1.16-0.649-2.004-1.034-2.911-1.375l7.394-10.068l11.535,6.437L67.964,56.452z"/>
			</g>
		</g>
	</g>
</g>
</svg>
