<?xml version="1.0" encoding="utf-8"?>
<!-- Generator: Adobe Illustrator 16.0.0, SVG Export Plug-In . SVG Version: 6.00 Build 0)  -->
<!DOCTYPE svg PUBLIC "-//W3C//DTD SVG 1.1//EN" "http://www.w3.org/Graphics/SVG/1.1/DTD/svg11.dtd">
<svg version="1.1" id="Layer_1" xmlns="http://www.w3.org/2000/svg" xmlns:xlink="http://www.w3.org/1999/xlink" x="0px" y="0px"
	 width="136.913px" height="136.914px" viewBox="0 0 136.913 136.914" enable-background="new 0 0 136.913 136.914"
	 xml:space="preserve">
<g>
	<g>
		<circle fill="#65A844" cx="68.456" cy="68.457" r="63.333"/>
	</g>
	<g>
		<g>
			<defs>
				<path id="SVGID_1_" d="M91.588,45.843c19.256,19.256,15.857,53.88,11.996,57.741S65.1,110.846,45.842,91.589
					S28.795,38.896,33.846,33.847S72.332,26.585,91.588,45.843z"/>
			</defs>
			<clipPath id="SVGID_2_">
				<use xlink:href="#SVGID_1_"  overflow="visible"/>
			</clipPath>
			<path clip-path="url(#SVGID_2_)" fill="#AB4925" d="M91.588,45.843c19.256,19.256,15.857,53.88,11.996,57.741
				S65.1,110.846,45.842,91.589S28.795,38.896,33.846,33.847S72.332,26.585,91.588,45.843z"/>
			<g clip-path="url(#SVGID_2_)">
				<path fill="#F1EFF1" d="M107.174,76.457c0,0-2.469,0.872-9.75,6.543c-7.283,5.67-23.283,23.781-23.283,23.781
					c2.994,0.554,5.936,0.904,8.746,1.096c0,0,13.66-14.165,17.547-17.316c3.885-3.151,7.549-5.723,7.549-5.723
					C107.871,82.162,107.613,79.347,107.174,76.457z"/>
				<path fill="#F1EFF1" d="M61.016,29.801c0,0-10.625,2.076-15.545,5.727c-4.92,3.651-16.006,23.238-16.006,23.238
					c0.338,2.538,0.824,5.143,1.475,7.769c0,0,15.65-24.425,20.273-27.785c4.621-3.361,17.781-7.146,17.781-7.146
					C66.314,30.827,63.639,30.233,61.016,29.801z"/>
			</g>
			<g clip-path="url(#SVGID_2_)">
				<path fill="#923E1F" d="M102.535,104.667c-5.305,0-27.025-7.767-44.514-25.258c-18.604-18.602-27.764-43.162-24.77-46.155
					c0.416-0.417,1.098-0.619,2.086-0.619c6.705,0,27.166,8.483,44.07,25.387c18.697,18.698,27.236,43.689,24.77,46.156
					C103.844,104.511,103.324,104.667,102.535,104.667z M35.338,34.316c-0.715,0-0.906,0.133-0.908,0.136
					c-1.361,1.873,5.168,24.158,24.779,43.771c17.15,17.148,38.215,24.763,43.326,24.763c0.211,0,0.35-0.016,0.432-0.03
					c0.635-2.637-5.879-24.879-24.746-43.746C60.732,41.72,40.457,34.316,35.338,34.316z"/>
			</g>
			<g clip-path="url(#SVGID_2_)">
				<path fill="#D8D8D7" d="M94.568,79.081c-0.602,0-1.348-0.391-1.949-1.022c-0.123-0.145-10.443-12.469-13.943-16.11
					c-3.504-3.646-15.305-14.562-15.422-14.672c-0.432-0.449-0.734-0.945-0.869-1.414c-0.164-0.566-0.08-1.044,0.24-1.347
					c0.572-0.554,1.803-0.214,2.711,0.736c0.09,0.083,11.148,10.209,15.477,14.727c4.33,4.518,13.834,15.981,13.93,16.097
					c0.393,0.41,0.693,0.906,0.832,1.377c0.162,0.562,0.076,1.042-0.244,1.345C95.139,78.981,94.873,79.081,94.568,79.081z
					 M63.389,45.07c-0.061,0-0.141,0.01-0.184,0.051c-0.076,0.074-0.082,0.271-0.016,0.505c0.1,0.339,0.336,0.722,0.654,1.052
					c0.1,0.093,11.918,11.025,15.436,14.687c3.521,3.664,13.861,16.011,13.965,16.136c0.484,0.506,1.02,0.741,1.324,0.741
					c0.061,0,0.139-0.009,0.184-0.051c0.076-0.072,0.082-0.271,0.012-0.505c-0.098-0.338-0.334-0.723-0.648-1.051
					c-0.115-0.14-9.6-11.579-13.908-16.075c-4.311-4.497-15.348-14.605-15.459-14.708C64.225,45.306,63.693,45.07,63.389,45.07z"/>
			</g>
			<g clip-path="url(#SVGID_2_)">
				<g>
					<path fill="#EAEAE9" d="M70.402,45.18c0.098,0.186,0.146,0.398,0.127,0.621c-0.053,0.618-0.596,1.074-1.213,1.023
						c-0.672-0.058-2.65-0.082-3.713,0.482c-1.092,0.58-2.453,2.441-2.844,3.045c-0.334,0.522-1.031,0.669-1.551,0.336
						c-0.52-0.336-0.674-1.03-0.336-1.553c0.186-0.287,1.875-2.852,3.676-3.812c1.838-0.975,4.645-0.765,4.961-0.736
						C69.902,44.623,70.23,44.855,70.402,45.18z"/>
				</g>
			</g>
			<g clip-path="url(#SVGID_2_)">
				<g>
					<path fill="#EAEAE9" d="M74.463,49.556c0.102,0.186,0.148,0.398,0.127,0.622c-0.051,0.618-0.596,1.073-1.211,1.022
						c-0.674-0.058-2.65-0.081-3.713,0.482c-1.094,0.581-2.455,2.441-2.844,3.046c-0.336,0.522-1.031,0.669-1.553,0.336
						c-0.52-0.336-0.674-1.03-0.336-1.552c0.186-0.289,1.875-2.852,3.678-3.813c1.836-0.976,4.645-0.765,4.961-0.737
						C73.963,48.999,74.291,49.231,74.463,49.556z"/>
				</g>
			</g>
			<g clip-path="url(#SVGID_2_)">
				<g>
					<path fill="#EAEAE9" d="M80.379,54.772c0.1,0.185,0.148,0.398,0.127,0.622c-0.051,0.617-0.596,1.073-1.213,1.021
						c-0.672-0.057-2.65-0.081-3.713,0.482c-1.092,0.583-2.453,2.442-2.844,3.046c-0.334,0.521-1.029,0.669-1.551,0.335
						c-0.518-0.335-0.674-1.029-0.336-1.552c0.188-0.287,1.875-2.852,3.678-3.812c1.836-0.976,4.645-0.763,4.959-0.736
						C79.881,54.215,80.207,54.448,80.379,54.772z"/>
				</g>
			</g>
			<g clip-path="url(#SVGID_2_)">
				<g>
					<path fill="#EAEAE9" d="M88.85,63.83c0.119,0.172,0.191,0.379,0.197,0.603c0.018,0.618-0.471,1.135-1.09,1.153
						c-0.676,0.018-2.641,0.218-3.633,0.899c-1.02,0.702-2.164,2.706-2.48,3.349c-0.273,0.557-0.949,0.781-1.506,0.51
						c-0.553-0.275-0.781-0.946-0.508-1.504c0.152-0.309,1.539-3.046,3.221-4.204c1.715-1.178,4.529-1.286,4.846-1.294
						C88.289,63.333,88.643,63.526,88.85,63.83z"/>
				</g>
			</g>
			<g clip-path="url(#SVGID_2_)">
				<g>
					<path fill="#EAEAE9" d="M84.789,58.892c0.119,0.175,0.191,0.382,0.197,0.604c0.016,0.62-0.471,1.135-1.09,1.153
						c-0.674,0.02-2.641,0.22-3.635,0.9c-1.018,0.702-2.16,2.704-2.479,3.349c-0.275,0.556-0.949,0.78-1.504,0.509
						c-0.555-0.274-0.785-0.946-0.51-1.505c0.152-0.306,1.541-3.044,3.221-4.203c1.715-1.177,4.527-1.285,4.846-1.294
						C84.23,58.396,84.58,58.589,84.789,58.892z"/>
				</g>
			</g>
			<g clip-path="url(#SVGID_2_)">
				<g>
					<path fill="#EAEAE9" d="M92.699,68.048c0.129,0.166,0.213,0.368,0.23,0.592c0.051,0.619-0.408,1.159-1.025,1.212
						c-0.674,0.055-2.627,0.363-3.58,1.097c-0.979,0.755-2.01,2.817-2.293,3.479c-0.244,0.571-0.904,0.832-1.475,0.591
						c-0.568-0.245-0.836-0.903-0.59-1.476c0.135-0.314,1.371-3.124,2.988-4.372c1.646-1.269,4.449-1.532,4.766-1.557
						C92.113,67.583,92.477,67.757,92.699,68.048z"/>
				</g>
			</g>
			<g clip-path="url(#SVGID_2_)">
				<g>
					<path fill="#EAEAE9" d="M97.111,73.075c0.125,0.168,0.201,0.373,0.213,0.597c0.037,0.62-0.438,1.148-1.057,1.185
						c-0.674,0.039-2.635,0.293-3.605,1.001c-1,0.729-2.084,2.766-2.385,3.417c-0.26,0.563-0.928,0.808-1.49,0.552
						c-0.561-0.259-0.813-0.925-0.551-1.489c0.143-0.311,1.453-3.086,3.102-4.293c1.68-1.226,4.49-1.412,4.807-1.43
						C96.537,72.594,96.893,72.778,97.111,73.075z"/>
				</g>
			</g>
		</g>
	</g>
</g>
</svg>
