<?xml version="1.0" encoding="utf-8"?>
<!-- Generator: Adobe Illustrator 16.0.0, SVG Export Plug-In . SVG Version: 6.00 Build 0)  -->
<!DOCTYPE svg PUBLIC "-//W3C//DTD SVG 1.1//EN" "http://www.w3.org/Graphics/SVG/1.1/DTD/svg11.dtd">
<svg version="1.1" id="Layer_1" xmlns="http://www.w3.org/2000/svg" xmlns:xlink="http://www.w3.org/1999/xlink" x="0px" y="0px"
	 width="136.913px" height="136.914px" viewBox="0 0 136.913 136.914" enable-background="new 0 0 136.913 136.914"
	 xml:space="preserve">
<g>
	<g>
		<circle fill="#A2D4DE" cx="68.456" cy="68.457" r="63.333"/>
	</g>
	<g>
		<path fill="#65A844" d="M5.123,68.457h126.666c0,34.977-28.355,63.334-63.334,63.334C33.479,131.791,5.123,103.434,5.123,68.457z"
			/>
	</g>
	<path fill="#FFFFFF" d="M44.875,111.855c0,0.967-0.783,1.75-1.75,1.75l0,0c-0.967,0-1.75-0.783-1.75-1.75V29.354
		c0-0.967,0.783-1.75,1.75-1.75l0,0c0.967,0,1.75,0.783,1.75,1.75V111.855z"/>
	<path fill="#FFFFFF" d="M95.543,111.855c0,0.967-0.783,1.75-1.75,1.75l0,0c-0.967,0-1.75-0.783-1.75-1.75V29.354
		c0-0.967,0.783-1.75,1.75-1.75l0,0c0.967,0,1.75,0.783,1.75,1.75V111.855z"/>
	<g>
		<path fill="#B6B6B7" d="M41.375,94.688v17.168c0,0.967,0.783,1.75,1.75,1.75s1.75-0.783,1.75-1.75V94.688
			C44.875,93.721,41.375,93.721,41.375,94.688z"/>
		<path fill="#B6B6B7" d="M92.043,94.688v17.168c0,0.967,0.783,1.75,1.75,1.75s1.75-0.783,1.75-1.75V94.688
			C95.543,93.721,92.043,93.721,92.043,94.688z"/>
	</g>
	<path fill="#FFFFFF" d="M93.541,81.688c0.967,0,1.75,0.783,1.75,1.75l0,0c0,0.967-0.783,1.75-1.75,1.75H43.625
		c-0.967,0-1.75-0.783-1.75-1.75l0,0c0-0.967,0.783-1.75,1.75-1.75H93.541z"/>
	<g>
		<path fill="#676E2F" d="M42.742,113.813c0.559-4.182-3.344-8.082-3.344-8.082c1.393,2.787,1.951,8.082,1.951,8.082H42.742z"/>
		<path fill="#676E2F" d="M43.83,113.855c-0.557-4.182,3.344-8.082,3.344-8.082c-1.393,2.787-1.951,8.082-1.951,8.082H43.83z"/>
		<path fill="#676E2F" d="M42.25,113.793c-2.08-4,3.75-10.625,3.75-10.625c-2.063,6.438-1.813,10.688-1.813,10.688L42.25,113.793z"
			/>
	</g>
	<g>
		<path fill="#676E2F" d="M94.369,113.813c-0.43-3.225,2.58-6.234,2.58-6.234c-1.074,2.15-1.504,6.234-1.504,6.234H94.369z"/>
		<path fill="#676E2F" d="M93.762,113.918c0.668-5-3.998-9.666-3.998-9.666c1.666,3.332,2.334,9.666,2.334,9.666H93.762z"/>
		<path fill="#676E2F" d="M94.994,113.813c1.434-2.758-2.586-7.326-2.586-7.326c1.422,4.438,1.25,7.369,1.25,7.369L94.994,113.813z"
			/>
	</g>
</g>
</svg>
