<?xml version="1.0" encoding="utf-8"?>
<!-- Generator: Adobe Illustrator 16.0.0, SVG Export Plug-In . SVG Version: 6.00 Build 0)  -->
<!DOCTYPE svg PUBLIC "-//W3C//DTD SVG 1.1//EN" "http://www.w3.org/Graphics/SVG/1.1/DTD/svg11.dtd">
<svg version="1.1" id="Layer_1" xmlns="http://www.w3.org/2000/svg" xmlns:xlink="http://www.w3.org/1999/xlink" x="0px" y="0px"
	 width="136.913px" height="136.914px" viewBox="0 0 136.913 136.914" enable-background="new 0 0 136.913 136.914"
	 xml:space="preserve">
<g>
	<g>
		<g>
			<circle fill="#65A844" cx="68.456" cy="68.457" r="63.333"/>
		</g>
		<g>
			<path fill="#D7DABA" d="M64.748,38.518c2.104-1.51,5.518-1.51,7.625,0l58.291,41.797c0.168-0.887,0.324-1.775,0.455-2.674
				L72.373,35.518c-2.107-1.51-5.521-1.51-7.625,0L5.813,77.775c0.131,0.898,0.289,1.787,0.459,2.67L64.748,38.518z"/>
			<path fill="#65A844" d="M72.373,43.143l57.416,41.168c0.338-1.314,0.621-2.65,0.875-3.996L72.373,38.518
				c-2.107-1.51-5.521-1.51-7.625,0L6.271,80.445c0.258,1.344,0.547,2.676,0.889,3.988l57.588-41.291
				C66.852,41.633,70.266,41.633,72.373,43.143z"/>
			<path fill="#BB813C" d="M68.455,131.789c29.504,0,54.295-20.174,61.334-47.479L72.373,43.143c-2.107-1.51-5.521-1.51-7.625,0
				L7.16,84.434C14.24,111.676,38.998,131.789,68.455,131.789z"/>
			<path fill="#AE6E29" d="M76.355,37.615l-7.316-5.969c-0.543-0.441-1.418-0.441-1.961,0l-7.318,5.969
				c-0.543,0.441-0.543,1.156,0,1.598l7.318,5.967c0.543,0.443,1.418,0.443,1.961,0l7.316-5.967
				C76.898,38.771,76.898,38.057,76.355,37.615z"/>
		</g>
		<g>
			<g>
				<path fill="#9F6227" d="M104.381,100.871c-0.65-0.65-1.705-0.65-2.355,0l-0.002,0.002C96.691,95.211,75.607,72.83,73.41,70.631
					L43.074,35.723c-2.518-2.516-6.092-2.014-8.609,0.504l-0.336,0.334l-0.424,0.424c-2.518,2.518-3.021,6.096-0.504,8.611
					l34.908,30.338c2.195,2.195,24.646,23.232,30.316,28.545c-0.629,0.65-0.627,1.688,0.016,2.33c0.65,0.65,1.705,0.65,2.355,0
					l1.635-1.633l1.949-1.949C105.031,102.576,105.031,101.521,104.381,100.871z"/>
				<path fill="#A86629" d="M34.129,36.561l-0.424,0.424c-2.518,2.518-3.021,6.096-0.504,8.611l34.908,30.338
					c2.195,2.195,24.646,23.232,30.316,28.545c-0.629,0.65-0.627,1.688,0.016,2.33c0.65,0.65,1.705,0.65,2.355,0l1.635-1.633
					L34.129,36.561z"/>
			</g>
			<path fill="#EDC92C" d="M104.381,100.871c-0.65-0.65-1.705-0.65-2.355,0l-0.002,0.002c-2.602-2.764-8.957-9.508-15.035-15.945
				c0,0-4.641,4.467-4.59,4.516c6.469,6.076,13.254,12.436,16.027,15.035c-0.629,0.65-0.627,1.688,0.016,2.33
				c0.65,0.65,1.705,0.65,2.355,0l1.635-1.633l1.949-1.949C105.031,102.576,105.031,101.521,104.381,100.871z"/>
			<path fill="#985424" d="M104.381,100.871c-0.65-0.65-1.705-0.65-2.355,0l-0.002,0.002c-2.469-2.621-8.313-8.824-14.094-14.949
				l-4.496,4.49c6.145,5.773,12.367,11.604,14.992,14.064c-0.629,0.65-0.627,1.688,0.016,2.33c0.65,0.65,1.705,0.65,2.355,0
				l1.635-1.633l1.949-1.949C105.031,102.576,105.031,101.521,104.381,100.871z"/>
		</g>
	</g>
</g>
</svg>
