<?xml version="1.0" encoding="utf-8"?>
<!-- Generator: Adobe Illustrator 16.0.0, SVG Export Plug-In . SVG Version: 6.00 Build 0)  -->
<!DOCTYPE svg PUBLIC "-//W3C//DTD SVG 1.1//EN" "http://www.w3.org/Graphics/SVG/1.1/DTD/svg11.dtd">
<svg version="1.1" id="Layer_1" xmlns="http://www.w3.org/2000/svg" xmlns:xlink="http://www.w3.org/1999/xlink" x="0px" y="0px"
	 width="136.914px" height="136.914px" viewBox="0 0 136.914 136.914" enable-background="new 0 0 136.914 136.914"
	 xml:space="preserve">
<g>
	<g>
		<circle fill="#65A844" cx="68.457" cy="68.457" r="63.333"/>
	</g>
	<path fill="#E8E7E7" d="M68.456,32.957c-19.604,0-35.499,15.894-35.499,35.499c0,16.699,11.533,30.696,27.065,34.483
		c2.704,0.659,5.526,1.017,8.434,1.017c2.802,0,5.523-0.335,8.138-0.948c15.683-3.68,27.362-17.747,27.362-34.552
		C103.956,48.851,88.063,32.957,68.456,32.957z"/>
	<g>
		<path fill="#E4E4E4" d="M56.853,102.208c-0.394-0.136-0.783-0.279-1.17-0.429C56.069,101.929,56.459,102.071,56.853,102.208z"/>
		<path fill="#E4E4E4" d="M103.948,69.925c-0.02,0.428-0.046,0.853-0.078,1.275C103.902,70.777,103.931,70.353,103.948,69.925z"/>
		<path fill="#E4E4E4" d="M102.547,58.399c0.074,0.255,0.148,0.51,0.217,0.767c0.381,1.423,0.672,2.883,0.877,4.369
			c-0.326-2.384-0.887-4.691-1.657-6.901c0.018,0.054,0.035,0.106,0.054,0.16C102.219,57.323,102.389,57.858,102.547,58.399z"/>
		<path fill="#E4E4E4" d="M98.896,86.88c-0.186,0.309-0.382,0.61-0.576,0.913C98.514,87.49,98.71,87.188,98.896,86.88z"/>
		<path fill="#E4E4E4" d="M46.093,96.172c-0.017-0.005-0.034-0.01-0.052-0.015l0,0c0,0,0,0-0.001-0.001
			c1.472,1.206,3.045,2.29,4.699,3.248c-0.032-0.018-0.065-0.037-0.097-0.056C49.038,98.412,47.525,97.34,46.093,96.172z"/>
		<path fill="#E4E4E4" d="M102.022,80.163c-0.103,0.294-0.204,0.587-0.313,0.878C101.818,80.75,101.921,80.457,102.022,80.163z"/>
		<path fill="#E4E4E4" d="M97.32,47.646c-0.54-0.755-1.106-1.489-1.702-2.199c0.433,0.511,0.851,1.034,1.252,1.571
			C97.024,47.224,97.171,47.437,97.32,47.646z"/>
		<path fill="#E4E4E4" d="M52.219,100.216c0.576,0.298,1.162,0.581,1.756,0.849c-0.126-0.058-0.254-0.114-0.38-0.173
			C53.131,100.676,52.672,100.45,52.219,100.216z"/>
		<path fill="#E4E4E4" d="M88.881,97.668c-1.308,0.926-2.681,1.765-4.11,2.509C86.201,99.433,87.573,98.594,88.881,97.668z"/>
		<path fill="#E4E4E4" d="M55.436,101.681c-0.396-0.156-0.791-0.318-1.181-0.489C54.645,101.362,55.039,101.524,55.436,101.681z"/>
		<path fill="#E4E4E4" d="M103.912,66.27c0.044,0.724,0.073,1.452,0.073,2.187C103.985,67.722,103.956,66.993,103.912,66.27z"/>
		<path fill="#E4E4E4" d="M70.644,104.093c-0.725,0.045-1.452,0.074-2.187,0.074C69.191,104.167,69.919,104.138,70.644,104.093z"/>
		<path fill="#E4E4E4" d="M95.54,45.354c-0.027-0.032-0.056-0.064-0.084-0.097c0.001,0.002,0.002,0.004,0.003,0.006
			C95.484,45.295,95.514,45.323,95.54,45.354z"/>
		<path fill="#E4E4E4" d="M73.093,103.854c-0.805,0.104-1.617,0.188-2.437,0.237C71.476,104.042,72.288,103.96,73.093,103.854z"/>
		<path fill="#E4E4E4" d="M103.698,63.989c0.071,0.568,0.128,1.142,0.171,1.718C103.826,65.131,103.77,64.558,103.698,63.989z"/>
		<path fill="#E4E4E4" d="M101.009,54.145c0.321,0.735,0.62,1.483,0.892,2.243C101.629,55.628,101.329,54.881,101.009,54.145z"/>
		<path fill="#E4E4E4" d="M98.015,88.271c-0.223,0.335-0.456,0.662-0.689,0.989C97.559,88.933,97.792,88.605,98.015,88.271z"/>
		<path fill="#E4E4E4" d="M65.618,104.043c-2.962-0.235-5.82-0.836-8.532-1.756c3.146,1.068,6.485,1.707,9.956,1.844
			c-0.376-0.017-0.752-0.038-1.126-0.064C65.816,104.06,65.717,104.051,65.618,104.043z"/>
		<path fill="#E4E4E4" d="M97.082,89.604c-0.263,0.357-0.533,0.707-0.808,1.054C96.549,90.311,96.82,89.961,97.082,89.604z"/>
		<path fill="#E4E4E4" d="M91.136,95.943c-0.617,0.516-1.257,1.005-1.909,1.478C89.879,96.947,90.519,96.459,91.136,95.943z"/>
		<path fill="#E4E4E4" d="M92.854,94.403c-0.388,0.368-0.784,0.728-1.188,1.078C92.069,95.131,92.466,94.771,92.854,94.403z"/>
		<path fill="#E4E4E4" d="M95.068,92.105c-0.335,0.379-0.678,0.752-1.028,1.116C94.391,92.856,94.733,92.485,95.068,92.105z"/>
		<path fill="#E4E4E4" d="M103.285,75.53c-0.039,0.197-0.086,0.393-0.129,0.588C103.199,75.922,103.246,75.728,103.285,75.53z"/>
		<path fill="#E4E4E4" d="M99.72,85.434c-0.158,0.295-0.329,0.582-0.496,0.872c0.875-1.52,1.64-3.109,2.287-4.76
			c-0.492,1.253-1.047,2.473-1.671,3.652C99.799,85.276,99.761,85.356,99.72,85.434z"/>
		<path fill="#E4E4E4" d="M103.854,71.416c-0.044,0.545-0.102,1.086-0.17,1.624c0.073-0.574,0.133-1.153,0.179-1.736
			C103.859,71.342,103.856,71.379,103.854,71.416z"/>
		<path fill="#E4E4E4" d="M103.621,73.537c-0.015,0.12-0.028,0.241-0.046,0.361C103.593,73.778,103.604,73.657,103.621,73.537z"/>
		<path fill="#E4E4E4" d="M93.986,93.278c-0.364,0.378-0.737,0.748-1.117,1.11C93.249,94.026,93.622,93.656,93.986,93.278z"/>
		<path fill="#E4E4E4" d="M96.1,90.881c-0.301,0.373-0.609,0.739-0.923,1.099C95.49,91.619,95.8,91.254,96.1,90.881z"/>
		<path fill="#E4E4E4" d="M99.923,51.876c0.355,0.68,0.688,1.375,1,2.08C100.611,53.251,100.278,52.557,99.923,51.876z"/>
		<path fill="#E4E4E4" d="M102.503,78.671c-0.081,0.269-0.163,0.537-0.249,0.803C102.34,79.208,102.422,78.939,102.503,78.671z"/>
		<path fill="#E4E4E4" d="M81.623,101.623c-1.874,0.752-3.822,1.354-5.837,1.779c-0.803,0.169-1.615,0.307-2.437,0.42
			c3.925-0.544,7.643-1.731,11.049-3.453c-0.726,0.366-1.463,0.716-2.217,1.033C81.997,101.48,81.809,101.549,81.623,101.623z"/>
		<path fill="#E4E4E4" d="M52.19,100.201c-0.452-0.234-0.897-0.478-1.338-0.731C51.293,99.724,51.738,99.967,52.19,100.201z"/>
		<path fill="#E4E4E4" d="M97.324,47.651c0.948,1.326,1.809,2.721,2.572,4.174C99.134,50.371,98.272,48.979,97.324,47.651z"/>
		<path fill="#E4E4E4" d="M102.926,77.121c-0.061,0.244-0.126,0.486-0.191,0.729C102.8,77.607,102.865,77.365,102.926,77.121z"/>
		<path fill="#FFFFFF" d="M33.146,72.372c0.014,0.129,0.027,0.259,0.043,0.388c-0.007-0.055-0.009-0.11-0.015-0.164
			C33.165,72.521,33.153,72.447,33.146,72.372z"/>
		<path fill="#FFFFFF" d="M32.984,70.425c0.004,0.062,0.006,0.123,0.01,0.185c-0.002-0.033-0.001-0.067-0.003-0.101
			C32.989,70.48,32.986,70.453,32.984,70.425z"/>
		<path fill="#FFFFFF" d="M33.021,70.935c0.004,0.041,0.008,0.081,0.011,0.121c-0.001-0.014-0.002-0.027-0.003-0.042
			C33.027,70.987,33.024,70.962,33.021,70.935z"/>
		<path fill="#FFFFFF" d="M33.409,74.296c0.032,0.194,0.064,0.39,0.1,0.583c-0.009-0.048-0.014-0.098-0.021-0.146
			C33.461,74.588,33.434,74.442,33.409,74.296z"/>
		<path fill="#FFFFFF" d="M83.402,36.059c0.068,0.032,0.138,0.062,0.205,0.094C83.539,36.12,83.471,36.091,83.402,36.059z"/>
		<path fill="#FFFFFF" d="M33.217,72.953c0.006,0.048,0.014,0.095,0.021,0.143c-0.002-0.016-0.004-0.031-0.007-0.047
			C33.227,73.017,33.221,72.985,33.217,72.953z"/>
		<path fill="#FFFFFF" d="M34.844,80.021c0.057,0.167,0.11,0.337,0.169,0.502c-0.013-0.035-0.023-0.071-0.036-0.107
			C34.931,80.284,34.887,80.152,34.844,80.021z"/>
		<path fill="#FFFFFF" d="M70.384,32.8c0.205,0.011,0.406,0.031,0.611,0.047C70.79,32.831,70.589,32.811,70.384,32.8z"/>
		<path fill="#FFFFFF" d="M72.289,32.955c0.234,0.025,0.466,0.06,0.698,0.089C72.754,33.015,72.523,32.98,72.289,32.955z"/>
		<path fill="#FFFFFF" d="M33.528,74.972c0.003,0.021,0.008,0.04,0.012,0.061c-0.001-0.006-0.002-0.012-0.003-0.019
			C33.534,75,33.53,74.985,33.528,74.972z"/>
		<path fill="#FFFFFF" d="M77.872,34.022c0.209,0.058,0.418,0.117,0.626,0.179C78.29,34.14,78.081,34.08,77.872,34.022z"/>
		<path fill="#FFFFFF" d="M81.52,35.248c0.144,0.057,0.288,0.111,0.43,0.17C81.808,35.359,81.663,35.305,81.52,35.248z"/>
		<path fill="#FFFFFF" d="M76.031,33.566c0.228,0.051,0.453,0.104,0.679,0.158C76.484,33.67,76.259,33.617,76.031,33.566z"/>
		<path fill="#FFFFFF" d="M41.917,92.188c-0.063-0.072-0.124-0.146-0.188-0.219C41.793,92.042,41.854,92.116,41.917,92.188z"/>
		<path fill="#FFFFFF" d="M40.726,90.768c-0.086-0.107-0.171-0.218-0.256-0.327C40.555,90.55,40.64,90.66,40.726,90.768z"/>
		<path fill="#FFFFFF" d="M39.601,89.276c-0.09-0.125-0.179-0.25-0.268-0.377C39.422,89.026,39.511,89.151,39.601,89.276z"/>
		<path fill="#FFFFFF" d="M33.938,76.911c-0.057-0.236-0.11-0.475-0.163-0.713C33.828,76.437,33.882,76.674,33.938,76.911z"/>
		<path fill="#FFFFFF" d="M80.047,34.699c0.065,0.022,0.132,0.046,0.198,0.067c-0.183-0.064-0.365-0.125-0.549-0.187
			c0.112,0.037,0.225,0.076,0.337,0.114C80.038,34.696,80.042,34.697,80.047,34.699z"/>
		<polyline fill="#FFFFFF" points="95.456,45.257 95.449,45.249 95.456,45.258 		"/>
		<path fill="#FFFFFF" d="M38.538,87.704c-0.082-0.128-0.164-0.254-0.243-0.383C38.374,87.45,38.456,87.576,38.538,87.704z"/>
		<path fill="#FFFFFF" d="M34.431,78.738c-0.064-0.214-0.123-0.43-0.183-0.646C34.308,78.309,34.366,78.524,34.431,78.738z"/>
		<path fill="#FFFFFF" d="M36.493,84.06c-0.002-0.006-0.006-0.013-0.009-0.02C36.487,84.047,36.491,84.054,36.493,84.06z"/>
		<path fill="#FFFFFF" d="M74.725,33.311c0.051,0.009,0.102,0.019,0.151,0.027c-0.234-0.043-0.468-0.088-0.704-0.127
			c0.129,0.021,0.258,0.048,0.387,0.07C74.614,33.29,74.669,33.301,74.725,33.311z"/>
		<path fill="#FFFFFF" d="M37.528,86.023c-0.061-0.107-0.124-0.213-0.184-0.321C37.404,85.811,37.468,85.916,37.528,86.023z"/>
		<path fill="#FFFFFF" d="M35.683,82.261c-0.013-0.032-0.024-0.065-0.039-0.098C35.658,82.195,35.67,82.229,35.683,82.261z"/>
		<path fill="#FFFFFF" d="M91.462,41.252c0.009,0.008,0.017,0.016,0.026,0.023C91.479,41.268,91.471,41.26,91.462,41.252z"/>
		<path fill="#FFFFFF" d="M92.844,42.499c0.019,0.019,0.037,0.036,0.056,0.054C92.881,42.535,92.862,42.518,92.844,42.499z"/>
		<path fill="#FFFFFF" d="M94.177,43.834c0.013,0.013,0.025,0.026,0.038,0.04C94.202,43.86,94.189,43.847,94.177,43.834z"/>
		<path fill="#FFFFFF" d="M93.761,43.416c-0.285-0.29-0.567-0.583-0.861-0.863c-0.019-0.018-0.037-0.035-0.056-0.054
			c-0.229-0.217-0.468-0.422-0.701-0.633C92.697,42.366,93.237,42.883,93.761,43.416z"/>
		<path fill="#FFFFFF" d="M91.749,41.512c-0.088-0.077-0.172-0.16-0.261-0.236c-0.01-0.008-0.018-0.016-0.026-0.023
			c-0.551-0.47-1.118-0.919-1.696-1.355C90.447,40.41,91.107,40.95,91.749,41.512z"/>
		<path fill="#FFFFFF" d="M83.834,36.267c-0.075-0.037-0.149-0.078-0.227-0.114c-0.067-0.032-0.137-0.062-0.205-0.094
			c-0.176-0.082-0.357-0.156-0.535-0.235C83.191,35.968,83.516,36.113,83.834,36.267z"/>
		<path fill="#FFFFFF" d="M46.595,40.317c-0.654,0.515-1.296,1.047-1.913,1.605c0.07-0.06,0.139-0.119,0.207-0.18
			C45.441,41.25,46.012,40.775,46.595,40.317z"/>
		<path fill="#FFFFFF" d="M32.929,68.456c0,0.661,0.021,1.317,0.056,1.969c0.002,0.028,0.005,0.056,0.007,0.084
			C32.952,69.829,32.929,69.146,32.929,68.456z"/>
		<path fill="#FFFFFF" d="M33.431,62.494c0.309-1.845,0.76-3.642,1.338-5.379c-0.761,2.284-1.299,4.67-1.587,7.135
			c0.058-0.491,0.121-0.981,0.198-1.467C33.395,62.687,33.414,62.591,33.431,62.494z"/>
		<path fill="#FFFFFF" d="M40.261,90.16c0.07,0.093,0.138,0.188,0.209,0.28c0.085,0.109,0.17,0.22,0.256,0.327
			c0.012,0.015,0.024,0.028,0.036,0.043C40.59,90.597,40.426,90.378,40.261,90.16z"/>
		<path fill="#FFFFFF" d="M34.983,80.436c-0.002-0.007-0.005-0.014-0.007-0.021c0.013,0.036,0.023,0.072,0.036,0.107
			c0.198,0.554,0.408,1.101,0.631,1.641c0.015,0.032,0.026,0.065,0.039,0.098c0.251,0.602,0.519,1.195,0.802,1.779
			c0.003,0.007,0.007,0.014,0.009,0.02c0.271,0.557,0.555,1.104,0.852,1.643c0.06,0.108,0.123,0.214,0.184,0.321
			c0.003,0.005,0.006,0.01,0.009,0.016C36.533,84.261,35.675,82.389,34.983,80.436z"/>
		<path fill="#FFFFFF" d="M39.096,88.542c0.08,0.118,0.156,0.24,0.237,0.357c0.089,0.127,0.178,0.252,0.268,0.377
			c0.02,0.027,0.04,0.054,0.061,0.082C39.469,89.09,39.281,88.816,39.096,88.542z"/>
		<path fill="#FFFFFF" d="M33.23,73.049c0.003,0.016,0.005,0.031,0.007,0.047c0.051,0.402,0.106,0.803,0.172,1.2
			c0.024,0.146,0.052,0.292,0.078,0.438C33.388,74.177,33.304,73.614,33.23,73.049z"/>
		<path fill="#FFFFFF" d="M37.595,86.137c0.228,0.398,0.458,0.796,0.7,1.185c0.079,0.129,0.161,0.255,0.243,0.383
			c0.012,0.019,0.025,0.037,0.037,0.056C38.234,87.229,37.908,86.687,37.595,86.137z"/>
		<path fill="#FFFFFF" d="M78.632,34.243c-0.045-0.013-0.089-0.028-0.134-0.042c-0.208-0.062-0.417-0.121-0.626-0.179
			c-0.094-0.025-0.189-0.048-0.284-0.072C77.938,34.043,78.286,34.14,78.632,34.243z"/>
		<path fill="#FFFFFF" d="M73.057,33.055c-0.023-0.003-0.046-0.008-0.069-0.011c-0.232-0.029-0.464-0.063-0.698-0.089
			c-0.122-0.013-0.246-0.019-0.367-0.03C72.302,32.961,72.68,33.005,73.057,33.055z"/>
		<path fill="#FFFFFF" d="M33.537,75.014c0.001,0.007,0.002,0.013,0.003,0.019c0.072,0.391,0.15,0.779,0.235,1.166
			c0.053,0.238,0.106,0.477,0.163,0.713c0.003,0.007,0.005,0.015,0.007,0.022C33.791,76.3,33.656,75.659,33.537,75.014z"/>
		<path fill="#FFFFFF" d="M80.033,34.694c-0.112-0.038-0.225-0.077-0.337-0.114c-0.198-0.066-0.399-0.126-0.6-0.189
			C79.41,34.489,79.724,34.588,80.033,34.694z"/>
		<path fill="#FFFFFF" d="M74.559,33.281c-0.129-0.022-0.258-0.049-0.387-0.07c-0.212-0.034-0.426-0.059-0.639-0.09
			C73.876,33.171,74.219,33.222,74.559,33.281z"/>
		<path fill="#FFFFFF" d="M77.085,33.82c-0.125-0.031-0.249-0.065-0.375-0.096c-0.226-0.055-0.451-0.107-0.679-0.158
			c-0.383-0.083-0.768-0.157-1.155-0.229c-0.05-0.009-0.101-0.019-0.151-0.027C75.521,33.453,76.308,33.625,77.085,33.82z"/>
		<path fill="#FFFFFF" d="M82.094,35.482c-0.049-0.021-0.096-0.044-0.145-0.064c-0.142-0.059-0.286-0.113-0.43-0.17
			c-0.157-0.063-0.317-0.119-0.477-0.18C81.395,35.202,81.747,35.337,82.094,35.482z"/>
		<path fill="#FFFFFF" d="M84.871,36.792c0.792,0.416,1.565,0.86,2.321,1.333C86.437,37.651,85.662,37.208,84.871,36.792z"/>
		<path fill="#FFFFFF" d="M33.029,71.014c0.001,0.015,0.002,0.028,0.003,0.042c0.031,0.44,0.065,0.881,0.113,1.316
			c0.008,0.075,0.02,0.148,0.028,0.224C33.112,72.072,33.067,71.544,33.029,71.014z"/>
		<path fill="#FFFFFF" d="M34.103,77.534c0.048,0.187,0.095,0.374,0.146,0.559c0.06,0.216,0.118,0.432,0.183,0.646
			c0.091,0.307,0.193,0.608,0.293,0.911C34.495,78.954,34.289,78.248,34.103,77.534z"/>
		<path fill="#FFFFFF" d="M71.469,32.887c-0.158-0.014-0.314-0.029-0.474-0.04c-0.205-0.016-0.406-0.036-0.611-0.047
			c-0.404-0.021-0.813-0.026-1.22-0.034C69.938,32.78,70.707,32.822,71.469,32.887z"/>
		<path fill="#FFFFFF" d="M32.974,66.683c0.026-0.545,0.068-1.086,0.119-1.624C33.042,65.597,32.999,66.138,32.974,66.683z"/>
		<path fill="#FFFFFF" d="M87.474,38.308c0.674,0.43,1.332,0.884,1.975,1.358C88.806,39.191,88.147,38.738,87.474,38.308z"/>
		<path fill="#FFFFFF" d="M62.318,33.287c0.522-0.091,1.049-0.171,1.578-0.239C63.367,33.116,62.841,33.196,62.318,33.287z"/>
		<path fill="#FFFFFF" d="M60.396,33.68c0.512-0.119,1.028-0.229,1.549-0.325C61.425,33.451,60.908,33.561,60.396,33.68z"/>
		<path fill="#FFFFFF" d="M58.448,34.191c0.532-0.156,1.068-0.301,1.609-0.434C59.517,33.891,58.98,34.035,58.448,34.191z"/>
		<path fill="#FFFFFF" d="M64.246,33.003c0.559-0.065,1.122-0.118,1.688-0.158C65.368,32.885,64.805,32.938,64.246,33.003z"/>
		<path fill="#FFFFFF" d="M52.859,36.367c1.714-0.844,3.508-1.551,5.364-2.111C56.366,34.816,54.574,35.523,52.859,36.367z"/>
		<path fill="#FFFFFF" d="M46.041,96.157c0.018,0.005,0.035,0.01,0.052,0.015c-0.104-0.086-0.219-0.162-0.323-0.25
			C45.861,95.999,45.948,96.081,46.041,96.157z"/>
		<path fill="#FFFFFF" d="M66.192,32.825c0.646-0.041,1.295-0.066,1.95-0.072C67.487,32.759,66.838,32.784,66.192,32.825z"/>
		<path fill="#FFFFFF" d="M34.782,57.075c0.58-1.734,1.288-3.41,2.115-5.014C36.07,53.665,35.362,55.34,34.782,57.075z"/>
		<path fill="#FFFFFF" d="M43.424,93.779c-0.66-0.659-1.292-1.345-1.898-2.053c0.069,0.08,0.134,0.163,0.204,0.243
			c0.063,0.072,0.124,0.146,0.188,0.219C42.401,92.735,42.906,93.263,43.424,93.779z"/>
		<path fill="#FFFFFF" d="M33.102,64.933c0.022-0.223,0.053-0.442,0.078-0.664C33.154,64.49,33.124,64.71,33.102,64.933z"/>
		<path fill="#FFFFFF" d="M37.165,51.534c0.452-0.842,0.942-1.659,1.457-2.458C38.107,49.875,37.617,50.692,37.165,51.534z"/>
		<path fill="#FFFFFF" d="M40.62,46.28c0.558-0.708,1.14-1.396,1.748-2.058C41.759,44.885,41.178,45.573,40.62,46.28z"/>
		<path fill="#FFFFFF" d="M94.471,44.159c0.335,0.362,0.666,0.729,0.988,1.104c-0.001-0.002-0.002-0.004-0.003-0.006
			c-0.002-0.003-0.005-0.006-0.007-0.009C95.132,44.878,94.802,44.518,94.471,44.159z"/>
		<path fill="#FFFFFF" d="M38.789,48.813c0.499-0.76,1.027-1.496,1.58-2.214C39.816,47.317,39.288,48.054,38.789,48.813z"/>
		<path fill="#FFFFFF" d="M42.602,43.978c0.641-0.684,1.302-1.348,1.993-1.979C43.903,42.63,43.242,43.294,42.602,43.978z"/>
		<path fill="#FFFFFF" d="M46.689,40.242c1.794-1.399,3.726-2.631,5.77-3.669C50.415,37.611,48.483,38.842,46.689,40.242z"/>
		<path fill="#FFFFFF" d="M43.602,93.951c0.635,0.625,1.292,1.225,1.972,1.802C44.894,95.177,44.236,94.576,43.602,93.951z"/>
		<polygon fill="#FFFFFF" points="46.038,96.156 46.04,96.156 46.04,96.156 		"/>
		<rect x="46.04" y="96.157" fill="#FFFFFF" width="0.001" height="0"/>
		<path fill="#FFFFFF" d="M33.409,74.296c-0.065-0.397-0.121-0.798-0.172-1.2C33.288,73.498,33.345,73.898,33.409,74.296z"/>
		<path fill="#FFFFFF" d="M81.043,35.068c0.159,0.061,0.319,0.117,0.477,0.18c-0.412-0.164-0.827-0.323-1.247-0.472
			c0.073,0.024,0.147,0.048,0.22,0.075C80.679,34.918,80.858,34.998,81.043,35.068z"/>
		<path fill="#FFFFFF" d="M38.804,88.121c0.172,0.263,0.351,0.521,0.529,0.778c-0.081-0.117-0.157-0.239-0.237-0.357
			C39,88.4,38.897,88.264,38.804,88.121z"/>
		<path fill="#FFFFFF" d="M82.867,35.823c0.178,0.079,0.359,0.153,0.535,0.235c-0.479-0.224-0.963-0.438-1.453-0.641
			c0.049,0.021,0.096,0.044,0.145,0.064C82.354,35.591,82.61,35.708,82.867,35.823z"/>
		<path fill="#FFFFFF" d="M70.384,32.8c-0.485-0.026-0.974-0.036-1.464-0.042c0.081,0.001,0.162,0.006,0.244,0.008
			C69.571,32.773,69.979,32.778,70.384,32.8z"/>
		<path fill="#FFFFFF" d="M41.427,91.619c-0.166-0.195-0.334-0.39-0.496-0.589C41.093,91.229,41.261,91.424,41.427,91.619z"/>
		<path fill="#FFFFFF" d="M73.125,33.062c-0.046-0.006-0.092-0.011-0.138-0.018c0.023,0.003,0.046,0.008,0.069,0.011
			C73.079,33.058,73.103,33.059,73.125,33.062z"/>
		<path fill="#FFFFFF" d="M71.922,32.925c0.121,0.012,0.245,0.018,0.367,0.03c-0.429-0.046-0.861-0.078-1.294-0.108
			c0.159,0.011,0.315,0.026,0.474,0.04C71.62,32.898,71.771,32.909,71.922,32.925z"/>
		<path fill="#FFFFFF" d="M74.172,33.211c-0.299-0.048-0.599-0.089-0.9-0.13c0.088,0.012,0.174,0.027,0.262,0.04
			C73.746,33.152,73.96,33.177,74.172,33.211z"/>
		<path fill="#FFFFFF" d="M32.984,70.425c-0.035-0.651-0.056-1.308-0.056-1.969C32.929,69.117,32.949,69.773,32.984,70.425z"/>
		<path fill="#FFFFFF" d="M95.449,45.249c-0.394-0.461-0.798-0.912-1.213-1.353c0.08,0.086,0.154,0.177,0.234,0.263
			C94.802,44.518,95.132,44.878,95.449,45.249z"/>
		<path fill="#FFFFFF" d="M79.097,34.391c0.2,0.063,0.401,0.123,0.6,0.189c-0.396-0.133-0.795-0.26-1.198-0.379
			c0.045,0.014,0.089,0.029,0.134,0.042C78.787,34.29,78.941,34.342,79.097,34.391z"/>
		<path fill="#FFFFFF" d="M39.601,89.276c0.072,0.102,0.142,0.205,0.216,0.306c-0.054-0.073-0.102-0.15-0.155-0.224
			C39.641,89.33,39.62,89.304,39.601,89.276z"/>
		<path fill="#FFFFFF" d="M77.588,33.95c0.095,0.024,0.19,0.047,0.284,0.072c-0.385-0.106-0.771-0.205-1.162-0.298
			c0.126,0.03,0.25,0.064,0.375,0.096C77.253,33.862,77.421,33.905,77.588,33.95z"/>
		<path fill="#FFFFFF" d="M40.726,90.768c0.063,0.079,0.122,0.159,0.186,0.237c-0.052-0.063-0.099-0.131-0.149-0.194
			C40.75,90.796,40.737,90.782,40.726,90.768z"/>
		<path fill="#FFFFFF" d="M39.832,89.604c0.207,0.283,0.423,0.56,0.638,0.836c-0.071-0.092-0.139-0.188-0.209-0.28
			C40.118,89.975,39.971,89.793,39.832,89.604z"/>
		<path fill="#FFFFFF" d="M33.775,76.198c-0.085-0.387-0.163-0.775-0.235-1.166C33.612,75.424,33.69,75.812,33.775,76.198z"/>
		<path fill="#FFFFFF" d="M33.146,72.372c-0.048-0.436-0.082-0.876-0.113-1.316C33.063,71.496,33.098,71.937,33.146,72.372z"/>
		<path fill="#FFFFFF" d="M36.484,84.04c-0.283-0.584-0.551-1.178-0.802-1.779C35.934,82.862,36.201,83.456,36.484,84.04z"/>
		<path fill="#FFFFFF" d="M74.876,33.338c0.388,0.071,0.772,0.146,1.155,0.229C75.648,33.483,75.264,33.409,74.876,33.338z"/>
		<path fill="#FFFFFF" d="M34.012,77.228c-0.021-0.088-0.04-0.177-0.061-0.266c-0.003-0.009-0.004-0.02-0.006-0.028
			c-0.002-0.008-0.004-0.016-0.007-0.022c0.097,0.396,0.2,0.79,0.31,1.182c-0.051-0.185-0.098-0.372-0.146-0.559
			C34.075,77.431,34.037,77.331,34.012,77.228z"/>
		<path fill="#FFFFFF" d="M35.644,82.163c-0.223-0.54-0.433-1.087-0.631-1.641C35.211,81.076,35.421,81.623,35.644,82.163z"/>
		<path fill="#FFFFFF" d="M41.429,91.621c0.1,0.117,0.2,0.233,0.301,0.349c-0.07-0.08-0.135-0.163-0.204-0.243
			C41.494,91.689,41.46,91.657,41.429,91.621z"/>
		<path fill="#FFFFFF" d="M37.345,85.702c-0.297-0.539-0.581-1.086-0.852-1.643C36.764,84.616,37.048,85.163,37.345,85.702z"/>
		<path fill="#FFFFFF" d="M37.528,86.023c0.004,0.007,0.008,0.015,0.012,0.021c-0.001-0.002-0.002-0.004-0.003-0.006
			C37.534,86.033,37.531,86.028,37.528,86.023z"/>
		<path fill="#FFFFFF" d="M45.573,95.753c-0.68-0.577-1.337-1.177-1.972-1.802c-0.059-0.059-0.12-0.113-0.178-0.172
			c-0.518-0.517-1.022-1.044-1.507-1.591c1.267,1.43,2.646,2.758,4.123,3.968c0,0,0.001,0,0.001,0.001
			c-0.093-0.076-0.18-0.158-0.271-0.235C45.703,95.866,45.639,95.809,45.573,95.753z"/>
		<path fill="#FFFFFF" d="M37.557,86.073c0.238,0.421,0.482,0.838,0.738,1.248c-0.242-0.389-0.473-0.786-0.7-1.185
			C37.583,86.115,37.569,86.095,37.557,86.073z"/>
		<path fill="#FFFFFF" d="M93.979,43.626c-0.352-0.366-0.712-0.723-1.079-1.073c0.294,0.28,0.576,0.573,0.861,0.863
			C93.831,43.488,93.909,43.553,93.979,43.626z"/>
		<path fill="#FFFFFF" d="M38.538,87.704c0.021,0.034,0.043,0.067,0.064,0.102c-0.01-0.015-0.018-0.03-0.027-0.046
			C38.563,87.741,38.55,87.723,38.538,87.704z"/>
		<path fill="#FFFFFF" d="M34.431,78.738c0.104,0.348,0.216,0.69,0.33,1.034c-0.014-0.04-0.023-0.082-0.037-0.123
			C34.624,79.347,34.521,79.045,34.431,78.738z"/>
		<path fill="#FFFFFF" d="M92.844,42.499c-0.31-0.293-0.623-0.582-0.942-0.863c0.083,0.073,0.158,0.156,0.241,0.23
			C92.376,42.077,92.615,42.282,92.844,42.499z"/>
		<path fill="#FFFFFF" d="M87.192,38.125c0.095,0.06,0.188,0.122,0.281,0.183c0.674,0.431,1.332,0.884,1.975,1.358
			c0.105,0.077,0.213,0.151,0.317,0.23c0.578,0.437,1.146,0.886,1.696,1.355c-2.042-1.745-4.281-3.261-6.682-4.512
			c0.03,0.017,0.06,0.036,0.091,0.052C85.662,37.208,86.437,37.651,87.192,38.125z"/>
		<path fill="#FFFFFF" d="M84.077,36.379c-0.155-0.077-0.313-0.152-0.47-0.227c0.077,0.036,0.151,0.077,0.227,0.114
			C83.914,36.306,83.997,36.339,84.077,36.379z"/>
		<path fill="#FFFFFF" d="M91.898,41.633c-0.136-0.12-0.272-0.239-0.41-0.357c0.089,0.076,0.173,0.159,0.261,0.236
			C91.797,41.554,91.85,41.591,91.898,41.633z"/>
		<polygon fill="none" points="91.136,95.943 91.137,95.942 91.137,95.942 		"/>
		<path fill="none" d="M89.227,97.421c-0.114,0.083-0.229,0.166-0.346,0.247C88.997,97.586,89.112,97.504,89.227,97.421z"/>
		<path fill="none" d="M84.771,100.177c-0.123,0.064-0.247,0.129-0.372,0.192C84.523,100.306,84.647,100.241,84.771,100.177z"/>
		<path fill="#FFFFFF" d="M46.525,88.81c-2.141,0-4.017,1.12-5.093,2.805c0.031,0.037,0.062,0.075,0.093,0.112
			c0.606,0.708,1.238,1.394,1.898,2.053c0.058,0.059,0.119,0.113,0.178,0.172c0.635,0.625,1.292,1.226,1.972,1.802
			c0.065,0.056,0.13,0.114,0.196,0.169c0.104,0.088,0.219,0.164,0.323,0.25c1.946,0.564,3.942,0.956,5.972,1.176
			c0.33-0.75,0.516-1.579,0.516-2.452C52.58,91.535,49.869,88.81,46.525,88.81z"/>
		<polygon fill="#FFFFFF" points="41.429,91.621 41.429,91.621 41.429,91.621 		"/>
		<path fill="#FFFFFF" d="M45.573,95.753c0.065,0.056,0.13,0.113,0.196,0.169C45.703,95.867,45.639,95.809,45.573,95.753z"/>
		<path fill="#FFFFFF" d="M41.433,91.614c-0.002,0.002-0.003,0.005-0.004,0.007l0,0c0.031,0.036,0.065,0.068,0.097,0.105
			C41.494,91.689,41.464,91.651,41.433,91.614z"/>
		<path fill="#FFFFFF" d="M43.602,93.951c-0.059-0.059-0.12-0.113-0.178-0.172C43.481,93.838,43.543,93.893,43.602,93.951z"/>
		<ellipse fill="#FFFFFF" cx="60.228" cy="56.455" rx="6.055" ry="6.085"/>
		<path fill="#FFFFFF" d="M34.983,80.436c0.691,1.953,1.55,3.825,2.554,5.604c0.019,0.033,0.039,0.064,0.058,0.098
			c0.313,0.55,0.64,1.092,0.98,1.623c0.01,0.016,0.02,0.03,0.029,0.045c0.156-0.541,0.245-1.11,0.245-1.701
			C38.85,83.52,37.244,81.317,34.983,80.436z"/>
		<polygon fill="#FFFFFF" points="38.603,87.806 38.604,87.808 38.604,87.808 		"/>
		<path fill="#FFFFFF" d="M37.557,86.073c-0.005-0.01-0.011-0.019-0.017-0.028C37.546,86.055,37.552,86.063,37.557,86.073z"/>
		<path fill="#FFFFFF" d="M38.604,87.805c-0.01-0.015-0.02-0.029-0.029-0.045c0.01,0.016,0.018,0.031,0.027,0.046
			c0,0,0.001,0.001,0.002,0.002C38.604,87.807,38.604,87.806,38.604,87.805z"/>
		<path fill="#FFFFFF" d="M37.537,86.039c0.001,0.002,0.002,0.004,0.003,0.006c0.006,0.01,0.012,0.019,0.017,0.028
			c0.013,0.021,0.026,0.042,0.038,0.063C37.576,86.104,37.556,86.072,37.537,86.039z"/>
		<path fill="none" d="M57.086,102.287c-0.078-0.025-0.156-0.052-0.233-0.079C56.93,102.235,57.008,102.262,57.086,102.287z"/>
		<path fill="none" d="M55.683,101.779c-0.082-0.032-0.164-0.065-0.247-0.099C55.519,101.714,55.601,101.747,55.683,101.779z"/>
		<polygon fill="none" points="54.252,101.19 54.255,101.191 54.252,101.19 		"/>
		<path fill="#FFFFFF" d="M55.413,97.552c2.969,0.046,5.971-0.266,8.944-0.932c-1.074-0.976-2.493-1.575-4.056-1.575
			C58.291,95.045,56.514,96.034,55.413,97.552z"/>
		<ellipse fill="#FFFFFF" cx="60.302" cy="70.928" rx="6.053" ry="6.086"/>
		<ellipse fill="#FFFFFF" cx="60.302" cy="86.181" rx="6.053" ry="6.085"/>
		<ellipse fill="#FFFFFF" cx="46.451" cy="65.17" rx="6.055" ry="6.085"/>
		<ellipse fill="#FFFFFF" cx="46.525" cy="79.643" rx="6.054" ry="6.085"/>
		<path fill="none" d="M103.641,63.535c0.021,0.15,0.039,0.303,0.058,0.454C103.68,63.838,103.661,63.686,103.641,63.535z"/>
		<path fill="none" d="M103.869,65.707c0.015,0.188,0.032,0.374,0.043,0.563C103.901,66.081,103.884,65.895,103.869,65.707z"/>
		<path fill="none" d="M103.985,68.456c0,0.493-0.018,0.981-0.037,1.469C103.971,69.438,103.985,68.949,103.985,68.456z"/>
		<polygon fill="none" points="103.869,71.21 103.87,71.2 103.869,71.21 		"/>
		<path fill="#FFFFFF" d="M82.176,41.729c0,3.359,2.711,6.085,6.054,6.085c2.682,0,4.951-1.755,5.747-4.181
			c-0.07-0.073-0.145-0.145-0.216-0.218c-0.523-0.533-1.063-1.05-1.618-1.55c-0.132-0.118-0.261-0.239-0.394-0.354
			c-0.642-0.562-1.302-1.102-1.983-1.615c-0.104-0.079-0.212-0.153-0.317-0.23c-0.643-0.475-1.301-0.929-1.975-1.358
			c-0.094-0.061-0.187-0.123-0.281-0.183c-0.756-0.473-1.529-0.917-2.321-1.333c-0.033-0.017-0.068-0.033-0.103-0.051
			C83.203,37.84,82.176,39.663,82.176,41.729z"/>
		<path fill="#FFFFFF" d="M91.898,41.633c0.001,0.001,0.002,0.002,0.003,0.003C91.9,41.635,91.899,41.634,91.898,41.633z"/>
		<polygon fill="#FFFFFF" points="84.78,36.74 84.774,36.737 84.774,36.737 		"/>
		<polygon fill="#FFFFFF" points="93.979,43.627 93.979,43.626 93.979,43.627 		"/>
		<path fill="#FFFFFF" d="M84.769,36.741c0.034,0.018,0.069,0.034,0.103,0.051c-0.031-0.016-0.061-0.035-0.091-0.052
			c-0.002-0.001-0.004-0.002-0.006-0.003C84.771,36.738,84.771,36.74,84.769,36.741z"/>
		<path fill="#FFFFFF" d="M92.143,41.866c-0.083-0.074-0.158-0.157-0.241-0.23c-0.001-0.001-0.002-0.002-0.003-0.003
			c-0.049-0.042-0.102-0.079-0.149-0.121C91.882,41.627,92.011,41.748,92.143,41.866z"/>
		<path fill="#FFFFFF" d="M87.192,38.125c0.095,0.06,0.188,0.122,0.281,0.183C87.38,38.247,87.287,38.185,87.192,38.125z"/>
		<path fill="#FFFFFF" d="M93.977,43.634c0.001-0.003,0.002-0.005,0.003-0.007l-0.001-0.001c-0.069-0.073-0.147-0.138-0.218-0.21
			C93.832,43.489,93.906,43.561,93.977,43.634z"/>
		<path fill="#FFFFFF" d="M89.448,39.666c0.105,0.077,0.213,0.151,0.317,0.23C89.661,39.817,89.554,39.743,89.448,39.666z"/>
		<path fill="#FFFFFF" d="M33.487,74.733c0.008,0.048,0.013,0.098,0.021,0.146c0.006,0.031,0.014,0.062,0.02,0.093
			c0.002,0.014,0.006,0.028,0.009,0.042C33.52,74.921,33.504,74.827,33.487,74.733z"/>
		<path fill="#FFFFFF" d="M32.991,70.509c0.002,0.033,0.001,0.067,0.003,0.101c0.006,0.109,0.021,0.217,0.027,0.325
			c0.003,0.027,0.006,0.053,0.008,0.079C33.018,70.845,33,70.678,32.991,70.509z"/>
		<path fill="#FFFFFF" d="M33.174,72.596c0.006,0.054,0.008,0.109,0.015,0.164c0.008,0.064,0.02,0.128,0.028,0.193
			c0.004,0.032,0.01,0.063,0.014,0.096C33.212,72.897,33.191,72.747,33.174,72.596z"/>
		<path fill="#FFFFFF" d="M33.029,71.014c0.038,0.53,0.083,1.059,0.145,1.582c0.018,0.151,0.038,0.302,0.057,0.453
			c0.073,0.565,0.157,1.128,0.257,1.685c0.017,0.094,0.032,0.188,0.05,0.28c0.119,0.646,0.254,1.286,0.408,1.92
			c0.002,0.009,0.005,0.019,0.007,0.028c2.752-0.571,4.822-3.022,4.822-5.959c0-3.232-2.508-5.867-5.673-6.064
			c-0.004,0.04-0.005,0.08-0.009,0.12c-0.051,0.538-0.093,1.079-0.119,1.624c-0.029,0.588-0.045,1.179-0.045,1.773
			c0,0.689,0.023,1.373,0.063,2.053C33,70.678,33.018,70.845,33.029,71.014z"/>
		<path fill="#FFFFFF" d="M33.021,70.935c-0.007-0.108-0.021-0.216-0.027-0.325C33,70.719,33.015,70.826,33.021,70.935z"/>
		<path fill="#FFFFFF" d="M32.929,68.456c0-0.595,0.016-1.186,0.045-1.773C32.944,67.27,32.929,67.861,32.929,68.456z"/>
		<path fill="#FFFFFF" d="M33.102,64.938c-0.004,0.04-0.005,0.08-0.009,0.12C33.097,65.019,33.098,64.979,33.102,64.938
			L33.102,64.938z"/>
		<path fill="#FFFFFF" d="M33.528,74.972c-0.006-0.031-0.014-0.062-0.02-0.093C33.515,74.909,33.522,74.94,33.528,74.972z"/>
		<path fill="#FFFFFF" d="M33.217,72.953c-0.009-0.065-0.021-0.129-0.028-0.193C33.196,72.824,33.208,72.888,33.217,72.953z"/>
		<path fill="#FFFFFF" d="M33.945,76.934c0.002,0.009,0.003,0.02,0.006,0.028h0.001C33.95,76.952,33.947,76.942,33.945,76.934z"/>
		<path fill="none" d="M103.285,75.53c0.108-0.539,0.206-1.082,0.289-1.629l0,0C103.491,74.448,103.394,74.991,103.285,75.53z"/>
		<path fill="none" d="M101.71,81.041c-0.063,0.169-0.133,0.337-0.199,0.505C101.577,81.378,101.646,81.21,101.71,81.041z"/>
		<path fill="none" d="M103.156,76.118c-0.073,0.336-0.147,0.671-0.23,1.003C103.009,76.789,103.083,76.454,103.156,76.118z"/>
		<path fill="none" d="M102.254,79.474c-0.075,0.231-0.152,0.46-0.231,0.689C102.102,79.934,102.179,79.705,102.254,79.474z"/>
		<path fill="none" d="M102.734,77.851c-0.075,0.274-0.151,0.548-0.231,0.82C102.583,78.398,102.659,78.125,102.734,77.851z"/>
		<path fill="none" d="M99.896,51.825c0.009,0.017,0.017,0.034,0.026,0.051C99.913,51.859,99.905,51.842,99.896,51.825z"/>
		<polygon fill="none" points="101.901,56.391 101.9,56.388 101.901,56.391 		"/>
		<polygon fill="none" points="97.324,47.651 97.324,47.65 97.324,47.65 		"/>
		<path fill="none" d="M100.923,53.956c0.028,0.063,0.059,0.125,0.086,0.188C100.981,54.081,100.951,54.019,100.923,53.956z"/>
		<path fill="#FFFFFF" d="M96.689,50.455c0.006,0.471,0.078,0.923,0.187,1.361C96.821,51.361,96.761,50.907,96.689,50.455z"/>
		<polygon fill="#FFFFFF" points="80.033,34.694 80.047,34.699 80.047,34.699 		"/>
		<path fill="#FFFFFF" d="M74.559,33.281c0.056,0.009,0.11,0.02,0.166,0.029C74.669,33.301,74.614,33.29,74.559,33.281z"/>
		<path fill="#FFFFFF" d="M79.097,34.391c-0.155-0.049-0.31-0.101-0.465-0.147c-0.346-0.104-0.694-0.2-1.044-0.293
			c-0.167-0.045-0.335-0.088-0.503-0.13c-0.777-0.195-1.563-0.367-2.36-0.51c-0.056-0.01-0.11-0.021-0.166-0.029
			c-0.34-0.06-0.683-0.11-1.025-0.16c-0.159-0.022-0.317-0.046-0.477-0.066c-0.377-0.05-0.755-0.094-1.135-0.13
			c-0.15-0.016-0.302-0.026-0.453-0.038c-0.762-0.064-1.53-0.106-2.305-0.121c-0.085-0.002-0.169-0.006-0.253-0.007
			c-0.541,0.91-0.858,1.972-0.858,3.11c0,3.36,2.711,6.086,6.055,6.086c3.343,0,6.054-2.726,6.054-6.086
			c0-0.4-0.041-0.791-0.114-1.17c-0.005-0.002-0.009-0.003-0.014-0.005C79.724,34.588,79.41,34.489,79.097,34.391z"/>
		<path fill="#FFFFFF" d="M73.125,33.062c0.049,0.007,0.099,0.013,0.146,0.02C73.224,33.074,73.174,33.068,73.125,33.062z"/>
		<polygon fill="#FFFFFF" points="68.92,32.758 68.911,32.757 68.911,32.757 		"/>
		<path fill="#FFFFFF" d="M77.085,33.82c0.168,0.042,0.336,0.085,0.503,0.13C77.421,33.905,77.253,33.862,77.085,33.82z"/>
		<path fill="#FFFFFF" d="M78.632,34.243c0.155,0.047,0.31,0.099,0.465,0.147C78.941,34.342,78.787,34.29,78.632,34.243z"/>
		<path fill="#FFFFFF" d="M68.911,32.759c0.084,0.001,0.168,0.005,0.253,0.007c-0.082-0.002-0.163-0.007-0.244-0.008
			c-0.003-0.001-0.006-0.001-0.009-0.001C68.911,32.758,68.911,32.758,68.911,32.759z"/>
		<path fill="#FFFFFF" d="M73.533,33.121c-0.088-0.013-0.174-0.028-0.262-0.04c-0.048-0.007-0.098-0.013-0.146-0.02
			c-0.022-0.003-0.046-0.004-0.068-0.007C73.216,33.075,73.374,33.099,73.533,33.121z"/>
		<path fill="#FFFFFF" d="M71.469,32.887c0.151,0.012,0.303,0.022,0.453,0.038C71.771,32.909,71.62,32.898,71.469,32.887z"/>
		<path fill="#FFFFFF" d="M38.774,56.455c0-1.731-0.722-3.289-1.876-4.397c0,0.001-0.001,0.003-0.001,0.004
			c-0.827,1.604-1.535,3.279-2.115,5.014c-0.004,0.013-0.009,0.026-0.014,0.04c-0.578,1.737-1.029,3.534-1.338,5.379
			C36.439,62.141,38.774,59.573,38.774,56.455z"/>
		<polygon fill="#FFFFFF" points="36.898,52.058 36.897,52.062 36.898,52.058 		"/>
		<path fill="#FFFFFF" d="M34.769,57.115c0.005-0.014,0.01-0.027,0.014-0.04C34.778,57.088,34.773,57.102,34.769,57.115z"/>
		<path fill="#FFFFFF" d="M46.451,41.955c3.106,0,5.663-2.354,6.01-5.383c0,0-0.001,0-0.002,0.001
			c-2.044,1.038-3.976,2.27-5.77,3.669c-0.032,0.025-0.063,0.051-0.095,0.075c-0.583,0.458-1.153,0.933-1.706,1.426
			C45.388,41.877,45.909,41.955,46.451,41.955z"/>
		<path fill="#FFFFFF" d="M46.595,40.317c0.032-0.024,0.063-0.05,0.095-0.075C46.657,40.268,46.627,40.293,46.595,40.317z"/>
		<polygon fill="#FFFFFF" points="52.461,36.572 52.459,36.573 52.46,36.572 		"/>
		<ellipse fill="#FFFFFF" cx="46.451" cy="50.445" rx="6.055" ry="6.085"/>
		<path fill="#FFFFFF" d="M88.229,64.919c-3.343,0-6.054,2.723-6.054,6.084c0,3.36,2.711,6.085,6.054,6.085
			c1.393,0,2.672-0.477,3.694-1.271c0.902-1.611,1.685-3.265,2.354-4.944C94.207,67.571,91.529,64.919,88.229,64.919z"/>
		<path fill="#FFFFFF" d="M89.07,80.235c-0.275-0.038-0.555-0.065-0.841-0.065c-3.343,0-6.054,2.723-6.054,6.084
			c0,0.437,0.048,0.86,0.134,1.271c0.862-0.739,1.707-1.512,2.524-2.333C86.396,83.621,87.803,81.96,89.07,80.235z"/>
		<ellipse fill="#FFFFFF" cx="74.107" cy="50.445" rx="6.055" ry="6.085"/>
		<ellipse fill="#FFFFFF" cx="88.305" cy="56.379" rx="6.055" ry="6.085"/>
		<ellipse fill="#FFFFFF" cx="74.182" cy="79.719" rx="6.054" ry="6.085"/>
		<ellipse fill="#FFFFFF" cx="74.182" cy="65.094" rx="6.054" ry="6.085"/>
		<path fill="#FFFFFF" d="M74.182,88.81c-3.344,0-6.055,2.726-6.055,6.086c0,0.228,0.016,0.452,0.039,0.673
			c3.539-1.17,6.985-2.853,10.223-5.044C77.3,89.465,75.817,88.81,74.182,88.81z"/>
		<ellipse fill="#FFFFFF" cx="60.228" cy="41.73" rx="6.055" ry="6.084"/>
		<path fill="none" d="M98.319,87.793c-0.102,0.158-0.2,0.32-0.305,0.478C98.119,88.113,98.218,87.951,98.319,87.793z"/>
		<polygon fill="none" points="103.683,73.051 103.684,73.04 103.683,73.051 		"/>
		<path fill="none" d="M97.325,89.26c-0.082,0.114-0.16,0.23-0.243,0.344C97.165,89.491,97.243,89.374,97.325,89.26z"/>
		<polygon fill="none" points="70.644,104.093 70.647,104.093 70.647,104.093 		"/>
		<polygon fill="none" points="91.665,95.482 91.666,95.481 91.665,95.482 		"/>
		<polygon fill="none" points="50.845,99.466 50.853,99.47 50.845,99.466 		"/>
		<path fill="none" d="M99.224,86.306c-0.11,0.191-0.215,0.386-0.328,0.574C99.009,86.691,99.113,86.497,99.224,86.306z"/>
		<path fill="none" d="M95.54,45.354c0.026,0.031,0.053,0.061,0.078,0.092C95.593,45.415,95.566,45.386,95.54,45.354z"/>
		<path fill="none" d="M92.869,94.389c-0.005,0.005-0.011,0.01-0.016,0.015C92.858,94.398,92.864,94.394,92.869,94.389z"/>
		<path fill="none" d="M96.274,90.657c-0.059,0.074-0.116,0.15-0.175,0.224C96.158,90.808,96.216,90.731,96.274,90.657z"/>
		<path fill="none" d="M52.219,100.216c-0.009-0.005-0.019-0.01-0.028-0.015C52.2,100.206,52.21,100.211,52.219,100.216z"/>
		<path fill="none" d="M68.457,104.167c-0.475,0-0.944-0.018-1.415-0.036C67.512,104.152,67.982,104.167,68.457,104.167z"/>
		<path fill="none" d="M95.177,91.979c-0.037,0.042-0.072,0.084-0.108,0.126C95.104,92.063,95.14,92.021,95.177,91.979z"/>
		<path fill="none" d="M94.04,93.222c-0.018,0.019-0.035,0.038-0.054,0.057C94.005,93.26,94.022,93.24,94.04,93.222z"/>
		<path fill="#FFFFFF" d="M96.675,62.126c0.434-2.785,0.561-5.58,0.383-8.333c-0.654-1.022-1.035-2.238-1.035-3.546
			c0-0.646,0.102-1.265,0.275-1.854c-0.232-1.057-0.511-2.101-0.839-3.129c-0.322-0.376-0.653-0.742-0.988-1.104
			c-0.082-0.088-0.158-0.181-0.24-0.269c-0.945,2.464-3.315,4.214-6.099,4.214c-3.612,0-6.539-2.942-6.539-6.573
			c0-2.086,0.97-3.94,2.479-5.145c-0.08-0.039-0.157-0.081-0.237-0.12c-0.318-0.153-0.643-0.299-0.967-0.443
			c-0.257-0.115-0.513-0.232-0.773-0.341c-0.347-0.146-0.699-0.28-1.051-0.414c-0.184-0.07-0.365-0.142-0.55-0.208
			c0.032,0.267,0.056,0.536,0.056,0.812c0,3.63-2.928,6.573-6.539,6.573c-3.612,0-6.54-2.943-6.54-6.573
			c0-1.05,0.251-2.039,0.687-2.919c-0.005,0-0.01,0-0.014,0c-0.655,0.006-1.305,0.031-1.95,0.072
			c-0.086,0.005-0.172,0.014-0.258,0.02c-0.566,0.04-1.13,0.093-1.688,0.158c-0.117,0.015-0.232,0.03-0.35,0.045
			c-0.529,0.068-1.056,0.148-1.578,0.239c-0.125,0.022-0.249,0.044-0.373,0.067c-0.521,0.097-1.037,0.206-1.549,0.325
			c-0.112,0.026-0.227,0.051-0.339,0.078c-0.541,0.133-1.077,0.277-1.609,0.434c-0.074,0.022-0.15,0.042-0.225,0.064
			c-1.856,0.561-3.65,1.268-5.364,2.111c-0.002,0-0.003,0.001-0.005,0.002c-0.346,3.302-3.124,5.876-6.502,5.876
			c-0.609,0-1.197-0.09-1.757-0.247c0,0,0,0-0.001,0c-0.691,0.632-1.353,1.296-1.993,1.979c-0.077,0.082-0.156,0.162-0.233,0.245
			c-0.608,0.662-1.19,1.35-1.748,2.058c-0.084,0.105-0.168,0.212-0.251,0.319c-0.553,0.718-1.081,1.454-1.58,2.214
			c-0.057,0.087-0.111,0.176-0.167,0.263c-0.515,0.799-1.005,1.616-1.457,2.458c0,0.001,0,0.001,0,0.001
			c1.229,1.195,1.997,2.867,1.997,4.723c0,3.372-2.528,6.148-5.782,6.525c-0.077,0.485-0.141,0.976-0.198,1.467
			c0,0.004-0.001,0.007-0.001,0.011c3.351,0.284,5.981,3.104,5.981,6.545c0,3.147-2.201,5.774-5.142,6.419
			c0.026,0.104,0.055,0.206,0.082,0.31c0.187,0.714,0.393,1.42,0.621,2.115c0.015,0.043,0.027,0.086,0.042,0.129
			c2.558,0.893,4.396,3.33,4.396,6.204c0,0.744-0.13,1.457-0.356,2.124c0.096,0.146,0.191,0.291,0.29,0.436
			c0.186,0.274,0.373,0.548,0.565,0.816c0.195,0.271,0.396,0.536,0.6,0.802c0.165,0.218,0.329,0.437,0.501,0.65
			c0.056,0.07,0.115,0.137,0.172,0.207c1.177-1.745,3.164-2.893,5.419-2.893c3.612,0,6.54,2.942,6.54,6.573
			c0,0.956-0.206,1.862-0.572,2.681c0.753,0.075,1.51,0.126,2.27,0.154c1.154-1.857,3.198-3.098,5.539-3.098
			c1.876,0,3.563,0.798,4.757,2.07c0.896-0.214,1.788-0.468,2.677-0.746c-0.057-0.346-0.093-0.699-0.093-1.062
			c0-3.631,2.928-6.573,6.54-6.573c1.899,0,3.604,0.819,4.799,2.119c1.047-0.728,2.072-1.507,3.069-2.341
			c-0.185-0.607-0.285-1.253-0.285-1.921c0-3.63,2.927-6.573,6.539-6.573c0.487,0,0.96,0.058,1.417,0.159
			c0.735-1.043,1.418-2.109,2.048-3.195c-1.006,0.635-2.191,1.006-3.465,1.006c-3.612,0-6.539-2.943-6.539-6.573
			s2.927-6.574,6.539-6.574c3.334,0,6.08,2.511,6.483,5.753c0.568-1.528,1.05-3.075,1.427-4.634c-0.008-0.126-0.02-0.25-0.02-0.378
			C96.022,63.951,96.261,62.988,96.675,62.126z M46.353,86.095c-3.612,0-6.539-2.943-6.539-6.573s2.927-6.573,6.539-6.573
			s6.54,2.943,6.54,6.573S49.965,86.095,46.353,86.095z M46.353,71.546c-3.612,0-6.539-2.942-6.539-6.573
			c0-3.63,2.927-6.574,6.539-6.574s6.54,2.944,6.54,6.574C52.893,68.604,49.965,71.546,46.353,71.546z M46.353,56.82
			c-3.612,0-6.539-2.942-6.539-6.573c0-3.629,2.927-6.573,6.539-6.573s6.54,2.944,6.54,6.573
			C52.893,53.878,49.965,56.82,46.353,56.82z M60.129,92.556c-3.611,0-6.539-2.942-6.539-6.573c0-3.63,2.928-6.573,6.539-6.573
			c3.612,0,6.54,2.943,6.54,6.573C66.669,89.613,63.741,92.556,60.129,92.556z M60.129,77.379c-3.611,0-6.539-2.943-6.539-6.573
			s2.928-6.574,6.539-6.574c3.612,0,6.54,2.944,6.54,6.574S63.741,77.379,60.129,77.379z M60.129,62.831
			c-3.611,0-6.539-2.943-6.539-6.573c0-3.631,2.928-6.573,6.539-6.573c3.612,0,6.54,2.942,6.54,6.573
			C66.669,59.888,63.741,62.831,60.129,62.831z M60.129,48.104c-3.611,0-6.539-2.942-6.539-6.573c0-3.63,2.928-6.572,6.539-6.572
			c3.612,0,6.54,2.942,6.54,6.572C66.669,45.162,63.741,48.104,60.129,48.104z M74.01,86.095c-3.612,0-6.54-2.943-6.54-6.573
			s2.928-6.573,6.54-6.573c3.611,0,6.539,2.943,6.539,6.573S77.621,86.095,74.01,86.095z M74.01,71.546
			c-3.612,0-6.54-2.942-6.54-6.573c0-3.63,2.928-6.574,6.54-6.574c3.611,0,6.539,2.944,6.539,6.574
			C80.549,68.604,77.621,71.546,74.01,71.546z M74.01,56.82c-3.612,0-6.54-2.942-6.54-6.573c0-3.629,2.928-6.573,6.54-6.573
			c3.611,0,6.539,2.944,6.539,6.573C80.549,53.878,77.621,56.82,74.01,56.82z M88.132,62.831c-3.612,0-6.539-2.943-6.539-6.573
			c0-3.631,2.927-6.573,6.539-6.573c3.611,0,6.54,2.942,6.54,6.573C94.672,59.888,91.743,62.831,88.132,62.831z"/>
		<path fill="#FFFFFF" d="M39.832,89.604c-0.005-0.008-0.011-0.015-0.016-0.022C39.821,89.59,39.827,89.597,39.832,89.604z"/>
		<path fill="#FFFFFF" d="M65.935,32.845c0.086-0.006,0.172-0.015,0.258-0.02C66.106,32.831,66.021,32.839,65.935,32.845z"/>
		<polygon fill="#FFFFFF" points="94.236,43.896 94.23,43.891 94.23,43.891 		"/>
		<polygon fill="#FFFFFF" points="33.182,64.25 33.181,64.261 33.181,64.261 		"/>
		<polygon fill="#FFFFFF" points="44.596,41.998 44.595,41.998 44.596,41.998 		"/>
		<polygon fill="#FFFFFF" points="37.165,51.534 37.165,51.535 37.165,51.535 		"/>
		<polygon fill="#FFFFFF" points="52.859,36.367 52.854,36.369 52.854,36.369 		"/>
		<polygon fill="#FFFFFF" points="38.802,88.118 38.804,88.121 38.802,88.118 		"/>
		<polygon fill="#FFFFFF" points="84.079,36.38 84.078,36.379 84.079,36.38 		"/>
		<path fill="#FFFFFF" d="M38.622,49.076c0.056-0.087,0.11-0.176,0.167-0.263C38.732,48.9,38.678,48.988,38.622,49.076z"/>
		<polygon fill="#FFFFFF" points="68.156,32.753 68.143,32.753 68.156,32.753 		"/>
		<path fill="#FFFFFF" d="M40.369,46.6c0.083-0.107,0.167-0.214,0.251-0.319C40.536,46.386,40.452,46.492,40.369,46.6z"/>
		<path fill="#FFFFFF" d="M60.058,33.758c0.112-0.027,0.227-0.052,0.339-0.078C60.283,33.706,60.17,33.73,60.058,33.758z"/>
		<path fill="#FFFFFF" d="M58.224,34.256c0.074-0.022,0.15-0.042,0.225-0.064C58.374,34.214,58.298,34.233,58.224,34.256z"/>
		<path fill="#FFFFFF" d="M40.911,91.005c0.006,0.007,0.011,0.015,0.017,0.021l0,0C40.922,91.02,40.917,91.012,40.911,91.005z"/>
		<path fill="#FFFFFF" d="M42.368,44.223c0.077-0.083,0.156-0.163,0.233-0.245C42.524,44.06,42.445,44.14,42.368,44.223z"/>
		<path fill="#FFFFFF" d="M61.945,33.354c0.124-0.023,0.248-0.045,0.373-0.067C62.193,33.31,62.069,33.331,61.945,33.354z"/>
		<polygon fill="#FFFFFF" points="34.761,79.772 34.762,79.776 34.762,79.776 		"/>
		<path fill="#FFFFFF" d="M63.896,33.048c0.117-0.015,0.232-0.03,0.35-0.045C64.129,33.018,64.014,33.033,63.896,33.048z"/>
		<path fill="#FFFFFF" d="M39.661,89.358c0.054,0.073,0.102,0.15,0.155,0.224c0.005,0.008,0.011,0.015,0.016,0.022
			c0.139,0.188,0.286,0.37,0.429,0.556C40.058,89.895,39.856,89.629,39.661,89.358z"/>
		<path fill="#FFFFFF" d="M40.934,91.018c-0.057-0.07-0.116-0.137-0.172-0.207c0.051,0.063,0.098,0.131,0.149,0.194
			c0.006,0.007,0.011,0.015,0.017,0.021C40.93,91.023,40.932,91.021,40.934,91.018z"/>
		<path fill="#FFFFFF" d="M34.766,79.778c-0.015-0.043-0.027-0.086-0.042-0.129c0.014,0.041,0.023,0.083,0.037,0.123
			c0,0.001,0,0.002,0.001,0.004C34.763,79.776,34.765,79.777,34.766,79.778z"/>
		<path fill="#FFFFFF" d="M38.806,88.106c-0.002,0.004-0.002,0.008-0.004,0.012c0.001,0.001,0.001,0.002,0.002,0.003
			c0.094,0.143,0.196,0.279,0.292,0.421C38.997,88.397,38.901,88.252,38.806,88.106z"/>
		<path fill="#FFFFFF" d="M34.103,77.534c-0.027-0.104-0.056-0.206-0.082-0.31c-0.003,0.001-0.006,0.002-0.009,0.003
			C34.037,77.331,34.075,77.431,34.103,77.534z"/>
		<path fill="#FFFFFF" d="M82.867,35.823c-0.257-0.115-0.513-0.232-0.773-0.341C82.354,35.591,82.61,35.708,82.867,35.823z"/>
		<path fill="#FFFFFF" d="M84.071,36.387c0.003-0.002,0.005-0.005,0.008-0.007c0-0.001-0.001-0.001-0.001-0.001
			c-0.081-0.04-0.164-0.073-0.244-0.112C83.914,36.306,83.991,36.348,84.071,36.387z"/>
		<path fill="#FFFFFF" d="M94.23,43.891c0.082,0.088,0.158,0.181,0.24,0.269c-0.08-0.086-0.154-0.177-0.234-0.263
			C94.234,43.895,94.232,43.893,94.23,43.891L94.23,43.891z"/>
		<path fill="#FFFFFF" d="M80.493,34.86c0.185,0.066,0.366,0.138,0.55,0.208c-0.185-0.07-0.364-0.15-0.551-0.217
			C80.493,34.854,80.492,34.857,80.493,34.86z"/>
		<path fill="#CDCDCE" d="M60.129,49.685c-3.611,0-6.539,2.942-6.539,6.573c0,3.63,2.928,6.573,6.539,6.573
			c3.612,0,6.54-2.943,6.54-6.573C66.669,52.627,63.741,49.685,60.129,49.685z M60.228,62.54c-3.344,0-6.055-2.725-6.055-6.085
			c0-3.361,2.711-6.086,6.055-6.086c3.343,0,6.055,2.725,6.055,6.086C66.282,59.815,63.57,62.54,60.228,62.54z"/>
		<path fill="#CDCDCE" d="M60.129,34.959c-3.611,0-6.539,2.942-6.539,6.572c0,3.631,2.928,6.573,6.539,6.573
			c3.612,0,6.54-2.942,6.54-6.573C66.669,37.901,63.741,34.959,60.129,34.959z M60.228,47.814c-3.344,0-6.055-2.726-6.055-6.085
			c0-3.361,2.711-6.084,6.055-6.084c3.343,0,6.055,2.723,6.055,6.084C66.282,45.089,63.57,47.814,60.228,47.814z"/>
		<path fill="#CDCDCE" d="M60.129,64.231c-3.611,0-6.539,2.944-6.539,6.574s2.928,6.573,6.539,6.573c3.612,0,6.54-2.943,6.54-6.573
			S63.741,64.231,60.129,64.231z M60.302,77.014c-3.343,0-6.053-2.725-6.053-6.087c0-3.361,2.71-6.085,6.053-6.085
			c3.345,0,6.055,2.724,6.055,6.085C66.356,74.289,63.646,77.014,60.302,77.014z"/>
		<path fill="#CDCDCE" d="M60.129,79.409c-3.611,0-6.539,2.943-6.539,6.573c0,3.631,2.928,6.573,6.539,6.573
			c3.612,0,6.54-2.942,6.54-6.573C66.669,82.353,63.741,79.409,60.129,79.409z M60.302,92.266c-3.343,0-6.053-2.726-6.053-6.085
			c0-3.363,2.71-6.085,6.053-6.085c3.345,0,6.055,2.722,6.055,6.085C66.356,89.54,63.646,92.266,60.302,92.266z"/>
		<path fill="#CDCDCE" d="M38.774,56.455c0,3.118-2.335,5.686-5.344,6.039c-0.017,0.097-0.036,0.192-0.051,0.289
			c3.254-0.377,5.782-3.153,5.782-6.525c0-1.855-0.768-3.527-1.997-4.723c-0.093,0.172-0.177,0.349-0.267,0.522
			C38.053,53.166,38.774,54.724,38.774,56.455z"/>
		<path fill="#CDCDCE" d="M37.165,51.535L37.165,51.535c-0.093,0.172-0.177,0.349-0.267,0.522l0,0
			C36.988,51.884,37.072,51.707,37.165,51.535z"/>
		<path fill="#CDCDCE" d="M38.774,71.003c0,2.937-2.07,5.388-4.822,5.959c0.021,0.089,0.047,0.175,0.068,0.263
			c2.94-0.645,5.142-3.271,5.142-6.419c0-3.44-2.631-6.261-5.981-6.545c-0.001,0.003-0.001,0.005-0.001,0.008
			c-0.025,0.222-0.056,0.441-0.078,0.664c0,0.002,0,0.004,0,0.006C36.267,65.136,38.774,67.771,38.774,71.003z"/>
		<polygon fill="#CDCDCE" points="33.181,64.261 33.18,64.269 33.181,64.261 		"/>
		<polygon fill="#CDCDCE" points="33.102,64.933 33.102,64.938 33.102,64.938 		"/>
		<path fill="#CDCDCE" d="M33.951,76.962c0.021,0.089,0.039,0.178,0.061,0.266c0.003-0.001,0.006-0.002,0.009-0.003
			C33.999,77.137,33.974,77.051,33.951,76.962L33.951,76.962z"/>
		<path fill="#CDCDCE" d="M34.842,80.014c0.001,0.002,0.001,0.005,0.002,0.007c0.043,0.132,0.087,0.264,0.133,0.395
			C34.93,80.282,34.887,80.146,34.842,80.014z"/>
		<path fill="#CDCDCE" d="M34.977,80.415c0.002,0.007,0.005,0.014,0.007,0.021c2.261,0.882,3.866,3.084,3.866,5.668
			c0,0.591-0.089,1.16-0.245,1.701c0.066,0.102,0.135,0.2,0.201,0.302c0.227-0.667,0.356-1.38,0.356-2.124
			c0-2.874-1.839-5.312-4.396-6.204c0.025,0.078,0.05,0.157,0.076,0.235C34.887,80.146,34.93,80.282,34.977,80.415z"/>
		<path fill="#CDCDCE" d="M34.762,79.776L34.762,79.776c0.026,0.082,0.055,0.163,0.082,0.244c-0.001-0.002-0.001-0.005-0.002-0.007
			C34.814,79.935,34.787,79.855,34.762,79.776z"/>
		<path fill="#CDCDCE" d="M38.604,87.808L38.604,87.808c0.066,0.104,0.131,0.208,0.197,0.311l0,0
			C38.735,88.016,38.671,87.911,38.604,87.808z"/>
		<path fill="#CDCDCE" d="M38.604,87.808c0.066,0.104,0.131,0.208,0.197,0.311c0.002-0.004,0.002-0.008,0.004-0.012
			c-0.066-0.102-0.135-0.2-0.201-0.302C38.604,87.806,38.604,87.807,38.604,87.808z"/>
		<path fill="#CDCDCE" d="M34.842,80.014c-0.026-0.078-0.051-0.157-0.076-0.235c-0.001-0.001-0.003-0.002-0.004-0.002
			C34.787,79.855,34.814,79.935,34.842,80.014z"/>
		<path fill="#CDCDCE" d="M53.975,101.064c0.092,0.042,0.184,0.085,0.277,0.126l0,0C54.158,101.149,54.067,101.105,53.975,101.064z"
			/>
		<path fill="#CDCDCE" d="M66.356,101.13c0,1.056-0.269,2.048-0.738,2.913c0.099,0.008,0.198,0.017,0.298,0.023
			c0.479-0.914,0.753-1.954,0.753-3.059c0-1.744-0.681-3.325-1.783-4.502c-0.177,0.042-0.353,0.075-0.528,0.114
			C65.582,97.734,66.356,99.338,66.356,101.13z"/>
		<path fill="#CDCDCE" d="M54.249,101.13c0-1.34,0.435-2.573,1.164-3.578c-0.275-0.004-0.55-0.008-0.823-0.019
			c-0.608,0.979-0.974,2.125-0.995,3.358c0.126,0.059,0.254,0.115,0.38,0.173c0.093,0.041,0.184,0.085,0.277,0.126
			C54.252,101.17,54.249,101.15,54.249,101.13z"/>
		<path fill="#CDCDCE" d="M60.129,94.436c-2.341,0-4.385,1.24-5.539,3.098c0.273,0.011,0.548,0.015,0.823,0.019
			c1.101-1.518,2.878-2.507,4.889-2.507c1.563,0,2.981,0.6,4.056,1.575c0.176-0.039,0.352-0.072,0.528-0.114
			C63.692,95.233,62.005,94.436,60.129,94.436z"/>
		<path fill="#CDCDCE" d="M88.132,49.685c-3.612,0-6.539,2.942-6.539,6.573c0,3.63,2.927,6.573,6.539,6.573
			c3.611,0,6.54-2.943,6.54-6.573C94.672,52.627,91.743,49.685,88.132,49.685z M88.305,62.464c-3.343,0-6.055-2.725-6.055-6.084
			c0-3.363,2.712-6.086,6.055-6.086c3.344,0,6.054,2.723,6.054,6.086C94.358,59.739,91.648,62.464,88.305,62.464z"/>
		<path fill="#CDCDCE" d="M94.221,43.88c-0.002-0.002-0.004-0.004-0.006-0.006c-0.013-0.014-0.025-0.027-0.038-0.04
			c-0.002-0.002-0.004-0.004-0.006-0.006C94.188,43.846,94.204,43.863,94.221,43.88z"/>
		<path fill="#CDCDCE" d="M94.171,43.828c-0.063-0.066-0.131-0.129-0.194-0.194c-0.796,2.426-3.065,4.181-5.747,4.181
			c-3.343,0-6.054-2.726-6.054-6.085c0-2.066,1.027-3.89,2.593-4.988c-0.23-0.121-0.464-0.239-0.697-0.354
			c-1.509,1.204-2.479,3.059-2.479,5.145c0,3.631,2.927,6.573,6.539,6.573c2.783,0,5.153-1.75,6.099-4.214
			c-0.004-0.003-0.007-0.007-0.01-0.011C94.204,43.863,94.188,43.846,94.171,43.828z"/>
		<path fill="#CDCDCE" d="M94.23,43.891L94.23,43.891c-0.005-0.006-0.011-0.011-0.016-0.017c0.002,0.002,0.004,0.004,0.006,0.006
			C94.224,43.884,94.227,43.887,94.23,43.891z"/>
		<path fill="#CDCDCE" d="M84.774,36.737L84.774,36.737c-0.231-0.12-0.462-0.242-0.695-0.357l0,0
			C84.313,36.495,84.543,36.617,84.774,36.737z"/>
		<path fill="#CDCDCE" d="M94.171,43.828c0.002,0.002,0.004,0.004,0.006,0.006c-0.065-0.069-0.131-0.139-0.197-0.207l0,0
			C94.044,43.693,94.107,43.761,94.171,43.828z"/>
		<polygon fill="#CDCDCE" points="94.221,43.88 94.23,43.891 94.23,43.891 		"/>
		<path fill="#CDCDCE" d="M93.979,43.627c-0.001,0.002-0.002,0.004-0.003,0.007c0.063,0.065,0.132,0.128,0.194,0.194
			C94.107,43.761,94.044,43.693,93.979,43.627z"/>
		<path fill="#CDCDCE" d="M84.774,36.737c-0.231-0.12-0.462-0.242-0.695-0.357c-0.003,0.002-0.005,0.005-0.008,0.007
			c0.233,0.115,0.467,0.233,0.697,0.354C84.771,36.74,84.771,36.738,84.774,36.737z"/>
		<path fill="#CDCDCE" d="M94.284,71.003c0,1.961-0.927,3.7-2.36,4.813c-0.104,0.188-0.22,0.371-0.327,0.557
			c1.845-1.162,3.075-3.218,3.075-5.567c0-0.278-0.023-0.552-0.057-0.821c-0.11,0.296-0.221,0.593-0.338,0.888
			C94.278,70.916,94.284,70.959,94.284,71.003z"/>
		<path fill="#CDCDCE" d="M88.132,64.231c-3.612,0-6.539,2.944-6.539,6.574s2.927,6.573,6.539,6.573
			c1.273,0,2.459-0.371,3.465-1.006c0.107-0.186,0.223-0.369,0.327-0.557c-1.022,0.795-2.302,1.271-3.694,1.271
			c-3.343,0-6.054-2.725-6.054-6.085c0-3.361,2.711-6.084,6.054-6.084c3.3,0,5.978,2.652,6.048,5.953
			c0.117-0.295,0.228-0.592,0.338-0.888C94.212,66.742,91.466,64.231,88.132,64.231z"/>
		<path fill="#CDCDCE" d="M94.284,86.254c0,3.361-2.711,6.087-6.055,6.087c-2.909,0-5.338-2.065-5.92-4.816
			c-0.145,0.125-0.286,0.257-0.432,0.379c0.817,2.693,3.307,4.652,6.254,4.652c3.611,0,6.54-2.942,6.54-6.573
			c0-3.141-2.193-5.763-5.123-6.414c-0.157,0.224-0.316,0.445-0.479,0.667C92.015,80.647,94.284,83.18,94.284,86.254z"/>
		<path fill="#CDCDCE" d="M81.593,85.982c0,0.668,0.101,1.313,0.285,1.921c0.146-0.122,0.287-0.254,0.432-0.379
			c-0.086-0.41-0.134-0.834-0.134-1.271c0-3.361,2.711-6.084,6.054-6.084c0.286,0,0.565,0.027,0.841,0.065
			c0.162-0.222,0.321-0.443,0.479-0.667c-0.457-0.102-0.93-0.159-1.417-0.159C84.52,79.409,81.593,82.353,81.593,85.982z"/>
		<path fill="#CDCDCE" d="M91.137,95.942L91.137,95.942c0.18-0.149,0.353-0.307,0.528-0.46l0,0
			C91.489,95.636,91.315,95.793,91.137,95.942z"/>
		<path fill="#CDCDCE" d="M82.176,101.279c0-3.36,2.711-6.084,6.054-6.084c1.054,0,2.044,0.271,2.907,0.747
			c0.179-0.149,0.353-0.307,0.528-0.46c-1.021-0.659-2.23-1.047-3.533-1.047c-3.612,0-6.539,2.942-6.539,6.572
			c0,0.208,0.012,0.413,0.03,0.615c0.186-0.074,0.374-0.143,0.559-0.221C82.182,101.361,82.176,101.321,82.176,101.279z"/>
		<path fill="#CDCDCE" d="M74.01,58.398c-3.612,0-6.54,2.944-6.54,6.574c0,3.631,2.928,6.573,6.54,6.573
			c3.611,0,6.539-2.942,6.539-6.573C80.549,61.343,77.621,58.398,74.01,58.398z M74.182,71.18c-3.344,0-6.054-2.725-6.054-6.086
			c0-3.36,2.71-6.085,6.054-6.085s6.055,2.725,6.055,6.085C80.236,68.455,77.525,71.18,74.182,71.18z"/>
		<path fill="#CDCDCE" d="M74.01,43.674c-3.612,0-6.54,2.944-6.54,6.573c0,3.631,2.928,6.573,6.54,6.573
			c3.611,0,6.539-2.942,6.539-6.573C80.549,46.618,77.621,43.674,74.01,43.674z M74.107,56.53c-3.344,0-6.055-2.726-6.055-6.086
			c0-3.361,2.711-6.084,6.055-6.084c3.343,0,6.054,2.723,6.054,6.084C80.161,53.805,77.45,56.53,74.107,56.53z"/>
		<path fill="#CDCDCE" d="M80.047,34.699c0.066,0.022,0.133,0.044,0.198,0.067l0,0C80.179,34.745,80.112,34.722,80.047,34.699
			L80.047,34.699z"/>
		<path fill="#CDCDCE" d="M67.47,35.672c0,3.63,2.928,6.573,6.54,6.573c3.611,0,6.539-2.943,6.539-6.573
			c0-0.275-0.023-0.545-0.056-0.812c-0.083-0.03-0.164-0.064-0.248-0.094c-0.065-0.023-0.132-0.045-0.198-0.067
			c0.073,0.379,0.114,0.77,0.114,1.17c0,3.36-2.711,6.086-6.054,6.086c-3.344,0-6.055-2.726-6.055-6.086
			c0-1.139,0.317-2.2,0.858-3.11c-0.152-0.002-0.303-0.014-0.454-0.014c-0.102,0-0.201,0.007-0.301,0.008
			C67.721,33.633,67.47,34.622,67.47,35.672z"/>
		<path fill="#CDCDCE" d="M80.272,34.776c-0.009-0.003-0.019-0.007-0.027-0.01l0,0C80.255,34.771,80.264,34.772,80.272,34.776z"/>
		<path fill="#CDCDCE" d="M68.911,32.757c-0.152-0.002-0.303-0.012-0.454-0.012C68.608,32.745,68.759,32.755,68.911,32.757
			L68.911,32.757z"/>
		<path fill="#CDCDCE" d="M68.457,32.745c-0.102,0-0.2,0.007-0.301,0.008l0,0C68.256,32.752,68.355,32.745,68.457,32.745z"/>
		<path fill="#CDCDCE" d="M80.493,34.86c-0.001-0.003,0-0.006-0.001-0.009c-0.072-0.027-0.146-0.051-0.22-0.075
			c-0.009-0.004-0.018-0.006-0.027-0.01C80.329,34.796,80.41,34.83,80.493,34.86z"/>
		<path fill="#CDCDCE" d="M68.911,32.757c-0.152-0.002-0.303-0.012-0.454-0.012c0.151,0,0.302,0.012,0.454,0.014
			C68.911,32.758,68.911,32.758,68.911,32.757z"/>
		<path fill="#CDCDCE" d="M74.01,72.948c-3.612,0-6.54,2.943-6.54,6.573s2.928,6.573,6.54,6.573c3.611,0,6.539-2.943,6.539-6.573
			S77.621,72.948,74.01,72.948z M74.182,85.804c-3.344,0-6.054-2.725-6.054-6.086s2.71-6.084,6.054-6.084s6.055,2.723,6.055,6.084
			S77.525,85.804,74.182,85.804z"/>
		<path fill="#CDCDCE" d="M80.235,94.896c0,3.36-2.71,6.085-6.054,6.085c-3.117,0-5.682-2.368-6.016-5.412
			c-0.201,0.066-0.402,0.129-0.604,0.191c0.506,3.124,3.195,5.512,6.447,5.512c3.611,0,6.539-2.943,6.539-6.573
			c0-1.722-0.663-3.283-1.74-4.454c-0.14,0.096-0.28,0.187-0.42,0.28C79.525,91.631,80.235,93.179,80.235,94.896z"/>
		<path fill="#CDCDCE" d="M74.01,88.125c-3.612,0-6.54,2.942-6.54,6.573c0,0.362,0.036,0.716,0.093,1.062
			c0.201-0.063,0.402-0.125,0.604-0.191c-0.023-0.221-0.039-0.445-0.039-0.673c0-3.36,2.711-6.086,6.055-6.086
			c1.636,0,3.118,0.655,4.207,1.715c0.14-0.094,0.28-0.185,0.42-0.28C77.613,88.944,75.909,88.125,74.01,88.125z"/>
		<path fill="#CDCDCE" d="M103.862,71.304c0.002-0.03,0.005-0.063,0.007-0.094l0,0C103.867,71.241,103.864,71.273,103.862,71.304z"
			/>
		<path fill="#CDCDCE" d="M102.66,71.332c-3.344,0-6.054-2.726-6.054-6.086c0-3.363,2.71-6.085,6.054-6.085
			c0.035,0,0.068,0.005,0.104,0.005c-0.068-0.257-0.143-0.512-0.217-0.767c-2.589,0.006-4.817,1.528-5.872,3.727
			c-0.167,1.077-0.375,2.153-0.633,3.225c0.195,3.454,3.035,6.195,6.521,6.195c0.441,0,0.874-0.046,1.291-0.13
			c0.003-0.037,0.006-0.074,0.009-0.112c0.002-0.03,0.005-0.063,0.007-0.094C103.479,71.289,103.074,71.332,102.66,71.332z"/>
		<path fill="#CDCDCE" d="M96.022,64.973c0,0.128,0.012,0.252,0.02,0.378c0.258-1.071,0.466-2.147,0.633-3.225
			C96.261,62.988,96.022,63.951,96.022,64.973z"/>
		<path fill="#CDCDCE" d="M101.983,56.634c-0.027-0.082-0.054-0.163-0.082-0.243l0,0C101.93,56.471,101.954,56.553,101.983,56.634z"
			/>
		<polygon fill="#CDCDCE" points="97.324,47.65 97.32,47.646 97.324,47.65 		"/>
		<path fill="#CDCDCE" d="M96.876,51.816c0.078,0.656,0.139,1.315,0.182,1.977c1.074,1.679,2.888,2.834,4.979,3.001
			c-0.019-0.054-0.036-0.106-0.054-0.16c-0.029-0.081-0.054-0.163-0.082-0.243C99.435,56.048,97.461,54.208,96.876,51.816z"/>
		<path fill="#CDCDCE" d="M96.298,48.393c0.149,0.683,0.281,1.37,0.392,2.063c-0.001-0.029-0.009-0.058-0.009-0.087
			c0-0.978,0.235-1.898,0.644-2.718c-0.001-0.001-0.003-0.003-0.004-0.005c-0.149-0.209-0.296-0.422-0.45-0.628
			C96.628,47.447,96.44,47.91,96.298,48.393z"/>
		<path fill="#CDCDCE" d="M97.058,53.793c-0.043-0.661-0.104-1.32-0.182-1.977c-0.108-0.438-0.181-0.891-0.187-1.361
			c-0.11-0.692-0.242-1.38-0.392-2.063c-0.174,0.59-0.275,1.209-0.275,1.854C96.022,51.555,96.403,52.771,97.058,53.793z"/>
		<path fill="#CDCDCE" d="M103.621,73.537c0.02-0.162,0.04-0.324,0.062-0.486l0,0C103.661,73.213,103.645,73.376,103.621,73.537z"/>
		<polygon fill="#CDCDCE" points="103.574,73.901 103.575,73.898 103.574,73.901 		"/>
		<path fill="#CDCDCE" d="M102.563,72.948c-3.612,0-6.54,2.943-6.54,6.573c0,2.604,1.512,4.849,3.697,5.912
			c0.041-0.077,0.079-0.157,0.12-0.235c-1.797-1.056-3.01-3.011-3.01-5.255c0-3.36,2.711-6.085,6.055-6.085
			c0.233,0,0.463,0.017,0.689,0.043c0-0.001,0-0.002,0.001-0.003c0.018-0.12,0.031-0.241,0.046-0.361
			c0.023-0.161,0.04-0.324,0.062-0.486C103.317,72.987,102.944,72.948,102.563,72.948z"/>
		<polygon fill="#CDCDCE" points="70.647,104.093 70.656,104.092 70.647,104.093 		"/>
		<path fill="#CDCDCE" d="M73.35,103.822c-0.086,0.012-0.172,0.021-0.257,0.032C73.178,103.844,73.264,103.834,73.35,103.822z"/>
		<path fill="#CDCDCE" d="M74.01,103.15c-1.231,0-2.379,0.348-3.362,0.942c0.003,0,0.006,0,0.009-0.001
			c0.819-0.05,1.632-0.133,2.437-0.237c0.085-0.011,0.171-0.021,0.257-0.032c0.821-0.113,1.634-0.251,2.437-0.42
			C75.221,103.242,74.626,103.15,74.01,103.15z"/>
		<path fill="#CDCDCE" d="M46.353,58.398c-3.612,0-6.539,2.944-6.539,6.574c0,3.631,2.927,6.573,6.539,6.573s6.54-2.942,6.54-6.573
			C52.893,61.343,49.965,58.398,46.353,58.398z M46.451,71.256c-3.344,0-6.055-2.726-6.055-6.086c0-3.362,2.711-6.085,6.055-6.085
			c3.343,0,6.054,2.723,6.054,6.085C52.505,68.53,49.794,71.256,46.451,71.256z"/>
		<path fill="#CDCDCE" d="M46.353,43.674c-3.612,0-6.539,2.944-6.539,6.573c0,3.631,2.927,6.573,6.539,6.573s6.54-2.942,6.54-6.573
			C52.893,46.618,49.965,43.674,46.353,43.674z M46.451,56.53c-3.344,0-6.055-2.726-6.055-6.086c0-3.361,2.711-6.084,6.055-6.084
			c3.343,0,6.054,2.723,6.054,6.084C52.505,53.805,49.794,56.53,46.451,56.53z"/>
		<path fill="#CDCDCE" d="M46.353,42.245c3.378,0,6.156-2.574,6.502-5.876c-0.133,0.065-0.262,0.136-0.394,0.203
			c-0.347,3.029-2.903,5.383-6.01,5.383c-0.542,0-1.063-0.078-1.563-0.212c-0.068,0.061-0.137,0.12-0.207,0.18
			c-0.027,0.026-0.058,0.05-0.086,0.075C45.155,42.155,45.743,42.245,46.353,42.245z"/>
		<path fill="#CDCDCE" d="M52.854,36.369L52.854,36.369c-0.132,0.065-0.262,0.136-0.394,0.203l0,0
			C52.593,36.505,52.722,36.435,52.854,36.369z"/>
		<path fill="#CDCDCE" d="M44.682,41.923c-0.028,0.025-0.058,0.05-0.086,0.075l0,0C44.624,41.973,44.654,41.949,44.682,41.923z"/>
		<path fill="#CDCDCE" d="M46.353,72.948c-3.612,0-6.539,2.943-6.539,6.573s2.927,6.573,6.539,6.573s6.54-2.943,6.54-6.573
			S49.965,72.948,46.353,72.948z M46.525,85.729c-3.344,0-6.054-2.726-6.054-6.087s2.71-6.084,6.054-6.084s6.055,2.723,6.055,6.084
			S49.869,85.729,46.525,85.729z"/>
		<path fill="#CDCDCE" d="M50.739,99.404c0.035,0.021,0.071,0.041,0.105,0.062l0,0C50.811,99.445,50.774,99.425,50.739,99.404z"/>
		<path fill="#CDCDCE" d="M52.32,97.379c-0.086-0.009-0.171-0.021-0.256-0.031c-0.337,0.762-0.823,1.44-1.422,2.001
			c0.031,0.019,0.064,0.038,0.097,0.056c0.035,0.021,0.071,0.041,0.105,0.062C51.464,98.877,51.967,98.169,52.32,97.379z"/>
		<path fill="#CDCDCE" d="M46.353,88.125c-2.255,0-4.242,1.147-5.419,2.893c0.164,0.201,0.331,0.399,0.499,0.597
			c1.076-1.685,2.952-2.805,5.093-2.805c3.344,0,6.055,2.726,6.055,6.086c0,0.873-0.186,1.702-0.516,2.452
			c0.085,0.01,0.17,0.022,0.256,0.031c0.366-0.818,0.572-1.725,0.572-2.681C52.893,91.067,49.965,88.125,46.353,88.125z"/>
		<polygon fill="#CDCDCE" points="41.427,91.619 41.429,91.621 41.429,91.621 		"/>
		<polygon fill="#CDCDCE" points="40.928,91.026 40.931,91.03 40.928,91.026 		"/>
		<path fill="#CDCDCE" d="M41.433,91.614c-0.168-0.197-0.335-0.396-0.499-0.597c-0.002,0.003-0.004,0.006-0.006,0.009
			c0.001,0.001,0.002,0.002,0.003,0.004c0.162,0.199,0.33,0.394,0.496,0.589c0.001,0.001,0.001,0.001,0.002,0.002
			C41.43,91.619,41.431,91.616,41.433,91.614z"/>
	</g>
	<path fill="#EED22F" d="M74.775,107.087l-6.513,0.801l-6.104-0.801l2.654,4.87l1.114,19.77c0.841,0.033,1.681,0.063,2.529,0.063
		c0.81,0,1.611-0.03,2.414-0.061l1.233-19.821L74.775,107.087z"/>
	<path fill="#E6C41F" d="M74.775,107.087c1.16,0,2.102-1.275,2.102-2.85c0-0.314-0.047-0.612-0.116-0.896
		c-2.614,0.614-5.337,0.948-8.138,0.948c-2.907,0-5.729-0.357-8.435-1.017c-0.081,0.303-0.132,0.625-0.132,0.965
		c0,1.574,0.941,2.85,2.102,2.85l6.104,0.801L74.775,107.087z"/>
</g>
</svg>
