<?xml version="1.0" encoding="utf-8"?>
<!-- Generator: Adobe Illustrator 16.0.0, SVG Export Plug-In . SVG Version: 6.00 Build 0)  -->
<!DOCTYPE svg PUBLIC "-//W3C//DTD SVG 1.1//EN" "http://www.w3.org/Graphics/SVG/1.1/DTD/svg11.dtd">
<svg version="1.1" id="Layer_1" xmlns="http://www.w3.org/2000/svg" xmlns:xlink="http://www.w3.org/1999/xlink" x="0px" y="0px"
	 width="136.913px" height="136.914px" viewBox="0 0 136.913 136.914" enable-background="new 0 0 136.913 136.914"
	 xml:space="preserve">
<g>
	<g>
		<g>
			<circle fill="#357180" cx="68.456" cy="68.457" r="63.333"/>
		</g>
		<g>
			<g>
				<rect x="11.555" y="54.152" fill="none" width="18.041" height="9.189"/>
				<rect x="55.135" y="54.152" fill="none" width="18.041" height="9.189"/>
				<rect x="33.346" y="54.152" fill="none" width="18.039" height="9.189"/>
				<rect x="76.924" y="110.668" fill="none" width="14.783" height="10.309"/>
				<rect x="76.924" y="96.611" fill="none" width="14.783" height="10.309"/>
				<rect x="76.924" y="81.85" fill="none" width="14.783" height="11.012"/>
				<rect x="76.924" y="54.152" fill="none" width="14.783" height="9.189"/>
				<rect x="76.924" y="67.09" fill="none" width="14.783" height="11.012"/>
				<rect x="33.346" y="67.09" fill="none" width="18.039" height="11.012"/>
				<rect x="55.135" y="110.668" fill="none" width="18.041" height="10.309"/>
				<rect x="55.135" y="81.85" fill="none" width="18.041" height="11.012"/>
				<rect x="55.135" y="67.09" fill="none" width="18.041" height="11.012"/>
				<rect x="33.346" y="81.85" fill="none" width="18.039" height="11.012"/>
				<rect x="55.135" y="96.611" fill="none" width="18.041" height="10.309"/>
				<rect x="11.555" y="67.09" fill="none" width="18.041" height="11.012"/>
				<rect x="11.555" y="81.85" fill="none" width="18.041" height="11.012"/>
				<rect x="33.346" y="110.668" fill="none" width="18.039" height="10.309"/>
				<rect x="33.346" y="96.611" fill="none" width="18.039" height="10.309"/>
				<path fill="#DDDDDC" d="M91.707,124.727v-3.75H76.924v-10.309h14.783v-3.748H76.924V96.611h14.783v-3.75H76.924V81.85h14.783
					v-3.748H76.924V67.09h14.783v-3.748H76.924v-9.189h-3.748v9.189H55.135v-9.189h-3.75v9.189H33.346v-9.189h-3.75v9.189H11.555
					v-9.189H7.808v9.189H5.347c-0.099,1.24-0.162,2.488-0.189,3.748h2.65v11.012H5.853c0.193,1.264,0.436,2.51,0.703,3.748h1.252
					v4.867c1.031,3.43,2.347,6.736,3.917,9.895h17.87v10.309H18.153c0.987,1.289,2.019,2.539,3.101,3.748h8.342v7.779
					c3.057,2.381,6.336,4.484,9.805,6.279h11.984v4.717c1.236,0.346,2.484,0.66,3.75,0.932v-5.648h18.041v6.871
					c1.26-0.094,2.51-0.223,3.748-0.387v-6.484H91.707z M29.596,92.861H11.555V81.85h18.041V92.861z M29.596,78.102H11.555V67.09
					h18.041V78.102z M51.385,120.977H33.346v-10.309h18.039V120.977z M51.385,106.92H33.346V96.611h18.039V106.92z M51.385,92.861
					H33.346V81.85h18.039V92.861z M51.385,78.102H33.346V67.09h18.039V78.102z M73.176,120.977H55.135v-10.309h18.041V120.977z
					 M73.176,106.92H55.135V96.611h18.041V106.92z M73.176,92.861H55.135V81.85h18.041V92.861z M73.176,78.102H55.135V67.09h18.041
					V78.102z"/>
			</g>
			<g>
				
					<rect x="108.45" y="25.368" transform="matrix(0.6721 0.7405 -0.7405 0.6721 63.4135 -68.8551)" fill="#4D4D4D" width="1.999" height="23.607"/>
			</g>
			<g>
				<path fill="#4D4D4D" d="M91.936,45.5v81.775c4.008-1.602,7.814-3.594,11.369-5.941V45.5
					C103.305,42.359,91.936,42.359,91.936,45.5z"/>
			</g>
			<g>
				<path fill="#FFFFFF" d="M103.377,42.719L10.558,42.68c-1.614,3.623-2.895,7.424-3.811,11.369l96.63,0.039V42.719z"/>
			</g>
		</g>
	</g>
</g>
</svg>
