<?xml version="1.0" encoding="utf-8"?>
<!-- Generator: Adobe Illustrator 16.0.0, SVG Export Plug-In . SVG Version: 6.00 Build 0)  -->
<!DOCTYPE svg PUBLIC "-//W3C//DTD SVG 1.1//EN" "http://www.w3.org/Graphics/SVG/1.1/DTD/svg11.dtd">
<svg version="1.1" id="Layer_1" xmlns="http://www.w3.org/2000/svg" xmlns:xlink="http://www.w3.org/1999/xlink" x="0px" y="0px"
	 width="136.914px" height="136.914px" viewBox="0 0 136.914 136.914" enable-background="new 0 0 136.914 136.914"
	 xml:space="preserve">
<g>
	<g>
		<circle fill="#D7DABA" cx="68.458" cy="68.458" r="63.333"/>
	</g>
	<path fill="#A44A24" d="M5.125,68.458h126.666c0,34.977-28.355,63.333-63.334,63.333C33.48,131.791,5.125,103.434,5.125,68.458z"/>
	<g>
		<g>
			<rect x="61.441" y="51.246" fill="#F37C2A" width="12.219" height="6.937"/>
			<rect x="50.969" y="30.393" fill="#3A3A39" width="33.166" height="26.484"/>
			<rect x="53.625" y="32.514" fill="#FFFFFF" width="27.854" height="22.244"/>
		</g>
		<g>
			<g>
				<g>
					<path fill="#FFFFFF" d="M67.992,97.802c-7.303,0-13.223,1.951-13.223,4.359s5.92,4.359,13.223,4.359
						c7.301,0,13.223-1.951,13.223-4.359S75.293,97.802,67.992,97.802z M67.992,104.131c-6.662,0-12.063-1.252-12.063-2.796
						c0-1.545,5.4-2.796,12.063-2.796s12.063,1.251,12.063,2.796C80.055,102.879,74.654,104.131,67.992,104.131z"/>
				</g>
			</g>
			<g>
				<g>
					
						<rect x="44.005" y="77.734" transform="matrix(0.0707 0.9975 -0.9975 0.0707 137.2629 9.0066)" fill="#EFEFEF" width="39.585" height="0.867"/>
				</g>
				<g>
					
						<rect x="72.2" y="58.375" transform="matrix(0.9976 0.0698 -0.0698 0.9976 5.6338 -4.8796)" fill="#EFEFEF" width="0.867" height="39.586"/>
				</g>
				<g>
					
						<rect x="79.359" y="59.917" transform="matrix(0.9851 0.1721 -0.1721 0.9851 14.8891 -12.5413)" fill="#EFEFEF" width="0.868" height="39.41"/>
				</g>
				<g>
					
						<rect x="37.08" y="79.022" transform="matrix(0.1442 0.9895 -0.9895 0.1442 127.2864 11.7304)" fill="#EFEFEF" width="39.563" height="0.866"/>
				</g>
				<g>
					<path fill="#EFEFEF" d="M86.611,67.018c-0.082-0.036-8.328-3.545-18.844-3.545c-10.514,0-18.535,3.507-18.615,3.543
						l-0.354-0.793c0.082-0.037,8.264-3.618,18.969-3.618c10.703,0,19.105,3.58,19.189,3.616L86.611,67.018z"/>
				</g>
				<g>
					<path fill="#EFEFEF" d="M85.969,73.333c-0.08-0.034-8.043-3.423-18.197-3.423c-10.164,0-17.9,3.387-17.977,3.421l-0.352-0.793
						c0.078-0.035,7.982-3.495,18.328-3.495c10.342,0,18.461,3.459,18.541,3.493L85.969,73.333z"/>
				</g>
				<g>
					<path fill="#EFEFEF" d="M84.832,80.944c-0.072-0.033-7.537-3.208-17.055-3.208c-9.525,0-16.775,3.174-16.848,3.206
						l-0.352-0.794c0.074-0.032,7.492-3.279,17.199-3.279c9.705,0,17.324,3.245,17.4,3.278L84.832,80.944z"/>
				</g>
				<g>
					<path fill="#EFEFEF" d="M83.061,87.654c-0.066-0.028-6.75-2.871-15.271-2.871c-8.52,0-15.023,2.841-15.086,2.87l-0.354-0.794
						c0.066-0.028,6.727-2.943,15.439-2.943c8.709,0,15.547,2.913,15.617,2.942L83.061,87.654z"/>
				</g>
				<g>
					<path fill="#EFEFEF" d="M82.174,94.199c-0.063-0.027-6.355-2.704-14.381-2.704c-8.033,0-14.145,2.675-14.205,2.702
						l-0.352-0.793c0.063-0.027,6.344-2.777,14.557-2.777s14.662,2.748,14.727,2.776L82.174,94.199z"/>
				</g>
				<g>
					<g>
						<path fill="#EFEFEF" d="M55.93,101.335c0-1.545,5.4-2.796,12.063-2.796s12.063,1.251,12.063,2.796
							c0,0.09-0.023,0.18-0.059,0.267h1.096c-0.834-2.144-6.373-3.8-13.1-3.8s-12.268,1.656-13.102,3.8h1.098
							C55.953,101.515,55.93,101.425,55.93,101.335z"/>
					</g>
				</g>
			</g>
			<g>
				<g>
					
						<rect x="32.986" y="83.043" transform="matrix(0.2025 0.9793 -0.9793 0.2025 123.0686 16.1275)" fill="#FFFFFF" width="37.294" height="1.157"/>
				</g>
				<g>
					
						<rect x="83.717" y="64.974" transform="matrix(0.9795 0.2015 -0.2015 0.9795 18.575 -15.2679)" fill="#FFFFFF" width="1.159" height="37.295"/>
				</g>
				<g>
					<rect x="67.781" y="68.492" fill="#FFFFFF" width="0.867" height="37.474"/>
				</g>
				<g>
					
						<rect x="75.948" y="68.493" transform="matrix(0.996 0.0888 -0.0888 0.996 7.9893 -6.4416)" fill="#FFFFFF" width="0.869" height="36.13"/>
				</g>
				<g>
					
						<rect x="41.761" y="86.125" transform="matrix(0.0898 0.996 -0.996 0.0898 140.6591 19.197)" fill="#FFFFFF" width="36.13" height="0.867"/>
				</g>
				<g>
					<path fill="#FFFFFF" d="M67.992,76.617c-10.703,0-19.105-3.579-19.188-3.615l0.344-0.797c0.082,0.036,8.328,3.545,18.844,3.545
						c10.523,0,18.535-3.508,18.615-3.544L86.959,73C86.879,73.036,78.699,76.617,67.992,76.617z"/>
				</g>
				<g>
					<path fill="#FFFFFF" d="M67.982,82.49c-9.709,0-17.33-3.248-17.406-3.28l0.344-0.796c0.074,0.031,7.541,3.208,17.063,3.208
						c9.518,0,16.781-3.175,16.854-3.207l0.352,0.793C85.113,79.24,77.693,82.49,67.982,82.49z"/>
				</g>
				<g>
					<path fill="#FFFFFF" d="M67.977,88.949c-9.211,0-16.443-3.08-16.516-3.111l0.346-0.796c0.07,0.03,7.146,3.04,16.17,3.04
						c9.031,0,15.904-3.008,15.973-3.038l0.352,0.793C84.232,85.867,77.189,88.949,67.977,88.949z"/>
				</g>
				<g>
					<path fill="#FFFFFF" d="M67.965,94.822c-8.215,0-14.666-2.748-14.73-2.775l0.344-0.797c0.063,0.026,6.359,2.705,14.387,2.705
						c8.037,0,14.15-2.677,14.211-2.703l0.354,0.793C82.467,92.073,76.184,94.822,67.965,94.822z"/>
				</g>
				<g>
					<path fill="#FFFFFF" d="M67.963,100.296c-7.848,0-14.008-2.625-14.07-2.651l0.344-0.797c0.061,0.025,6.068,2.581,13.727,2.581
						c7.654,0,13.498-2.554,13.555-2.579l0.354,0.793C81.627,97.751,75.811,100.296,67.963,100.296z"/>
				</g>
			</g>
			<g>
				<g>
					<path fill="#F37C2A" d="M67.992,57.754c-11.615,0-21.029,3.105-21.029,6.935c0,3.831,9.414,6.936,21.029,6.936
						c11.613,0,21.029-3.104,21.029-6.936C89.021,60.86,79.605,57.754,67.992,57.754z M67.992,67.822
						c-10.596,0-19.184-1.99-19.184-4.446c0-2.457,8.588-4.447,19.184-4.447s19.184,1.99,19.184,4.447
						C87.176,65.832,78.588,67.822,67.992,67.822z"/>
				</g>
			</g>
		</g>
	</g>
</g>
</svg>
