<?xml version="1.0" encoding="utf-8"?>
<!-- Generator: Adobe Illustrator 16.0.0, SVG Export Plug-In . SVG Version: 6.00 Build 0)  -->
<!DOCTYPE svg PUBLIC "-//W3C//DTD SVG 1.1//EN" "http://www.w3.org/Graphics/SVG/1.1/DTD/svg11.dtd">
<svg version="1.1" id="Layer_1" xmlns="http://www.w3.org/2000/svg" xmlns:xlink="http://www.w3.org/1999/xlink" x="0px" y="0px"
	 width="136.834px" height="136.834px" viewBox="0 0 136.834 136.834" style="enable-background:new 0 0 136.834 136.834;"
	 xml:space="preserve">
<style type="text/css">
<![CDATA[
	.st0{fill:#473D2E;}
	.st1{opacity:0.25;fill:#EFEFEF;}
	.st2{fill:#7B6854;}
	.st3{fill:#AAAAAA;}
	.st4{fill:#48B15A;}
	.st5{fill:#49A0AE;}
	.st6{fill:#AD2728;}
	.st7{fill:none;stroke:#888887;stroke-miterlimit:10;}
	.st8{fill-rule:evenodd;clip-rule:evenodd;fill:#3F3F3E;}
	.st9{fill-rule:evenodd;clip-rule:evenodd;fill:#3F7D92;}
	.st10{fill:#AEACAC;}
	.st11{fill:#E58E8F;}
	.st12{fill:#4ABC96;}
	.st13{fill:#E5E65D;}
	.st14{fill:#4B4A4B;}
	.st15{fill:#E6E768;}
	.st16{fill:#E79E2D;}
	.st17{fill:#E7E7E7;}
	.st18{fill:#E84849;}
	.st19{fill:#E8E7E7;}
	.st20{fill:#4E4E4E;}
	.st21{fill:#E9E4B1;}
	.st22{fill:#E9E9EA;}
	.st23{fill:#80702C;}
	.st24{fill:#807F7F;}
	.st25{fill:#818282;}
	.st26{fill:#82725A;}
	.st27{opacity:0.15;}
	.st28{fill:#83CECA;}
	.st29{fill:#B3DCE2;}
	.st30{fill:#1A3940;}
	.st31{fill:#B5B6B6;}
	.st32{fill:#B6E2EB;}
	.st33{fill:#886A29;}
	.st34{fill:#EBEDEF;}
	.st35{fill:#EBF6F9;}
	.st36{fill-rule:evenodd;clip-rule:evenodd;fill:#7D8880;}
	.st37{fill:#B9B9BA;}
	.st38{fill:#EDC92C;}
	.st39{fill:#504A2A;}
	.st40{fill:#EFC849;}
	.st41{fill:#55B966;}
	.st42{fill-rule:evenodd;clip-rule:evenodd;fill:#4B4A4B;}
	.st43{fill:#577D87;}
	.st44{fill:#58595A;}
	.st45{fill:#BBBCBB;}
	.st46{fill-rule:evenodd;clip-rule:evenodd;fill:#E84849;}
	.st47{fill:#202121;}
	.st48{fill:#F06668;}
	.st49{fill:#BFBEBE;}
	.st50{fill-rule:evenodd;clip-rule:evenodd;fill:#82725A;}
	.st51{fill:#231F20;}
	.st52{fill:#F2BE3E;}
	.st53{fill:#F2DE62;}
	.st54{fill:#F2EF8F;}
	.st55{fill:#F4E028;}
	.st56{fill:#5A5B5D;}
	.st57{fill-rule:evenodd;clip-rule:evenodd;fill:#B5B2B3;}
	.st58{opacity:0.4;clip-path:url(#SVGID_4_);fill:url(#SVGID_5_);}
	.st59{fill:#5B4F3F;}
	.st60{fill:#F6A2A3;}
	.st61{fill:#F6F6E7;}
	.st62{fill:#F7D98B;}
	.st63{fill:#5E8492;}
	.st64{fill:#F9F29A;}
	.st65{fill:#969595;}
	.st66{fill:#988534;}
	.st67{fill:#99999A;}
	.st68{fill:#FDF2F7;}
	.st69{fill:#FDF7FA;}
	.st70{fill:#2F6E77;}
	.st71{fill:#2F8442;}
	.st72{fill:#606060;}
	.st73{fill:#60C3B6;}
	.st74{fill-rule:evenodd;clip-rule:evenodd;fill:#F06668;}
	.st75{fill:none;stroke:#818282;stroke-miterlimit:10;}
	.st76{fill:#FFFFFF;}
	.st77{fill:#626463;}
	.st78{fill:#63BD6E;}
	.st79{fill-rule:evenodd;clip-rule:evenodd;fill:#245861;}
	.st80{fill:none;}
	.st81{fill:#9A866F;}
	.st82{clip-path:url(#SVGID_2_);fill:#90B9C0;}
	.st83{fill-rule:evenodd;clip-rule:evenodd;fill:#5B4F3F;}
	.st84{fill:#9B7842;}
	.st85{fill:#67B7C3;}
	.st86{fill:#67B8CB;}
	.st87{fill:#CC2027;}
	.st88{fill:#CDCDCE;}
	.st89{fill:#CE2F2E;}
	.st90{fill:#9F77AA;}
	.st91{opacity:0.7;fill:#FFFFFF;}
	.st92{fill-rule:evenodd;clip-rule:evenodd;fill:#C0BEBF;}
	.st93{fill:#333535;}
	.st94{fill:#357180;}
	.st95{opacity:0.4;clip-path:url(#SVGID_10_);fill:url(#SVGID_11_);}
	.st96{clip-path:url(#SVGID_2_);fill:#FFFFFF;}
	.st97{fill:#6CC077;}
	.st98{fill:#6EC2CB;}
	.st99{fill:#020202;}
	.st100{fill:#D32027;}
	.st101{fill:#D4A160;}
	.st102{fill:#D6E4F4;}
	.st103{fill:#D7D7D7;}
	.st104{fill:#D88080;}
	.st105{opacity:0.4;clip-path:url(#SVGID_7_);fill:url(#SVGID_8_);}
	.st106{fill-rule:evenodd;clip-rule:evenodd;fill:#CDCCCB;}
	.st107{fill:#A07238;}
	.st108{fill:#A2D4DE;}
	.st109{fill:#A3D4AA;}
	.st110{fill:#74C59C;}
	.st111{fill-rule:evenodd;clip-rule:evenodd;fill:#357180;}
	.st112{fill:#A4A5A4;}
	.st113{fill:#A5B6B9;}
	.st114{fill:#DAC425;}
	.st115{fill:#DBF0F5;}
	.st116{fill:#0EA24A;}
	.st117{fill:#DDDDDC;}
	.st118{fill:#DDDFDF;}
	.st119{fill:#40BCA3;}
	.st120{fill:#43A0AA;}
]]>
</style>
<g>
	<g>
		<circle class="st38" cx="68.417" cy="68.416" r="63.333"/>
	</g>
	<g>
		<path class="st20" d="M112.87,81.987c0.861,5.609-0.839,7.927-6.446,8.787l-69.406,10.653c-5.607,0.861-7.925-0.839-8.785-6.447
			l-6.821-41.555c-0.861-5.609,0.837-7.926,6.446-8.787l69.406-10.653c5.607-0.86,7.925,0.839,8.785,6.448L112.87,81.987z"/>
		<path class="st109" d="M108.604,81.921c0.414,2.662-1.408,5.157-4.07,5.572l0,0l-2.873-18.419l0,0
			c2.664-0.415,5.158,1.408,5.573,4.069L108.604,81.921z"/>
		<path class="st97" d="M106.049,65.415c0.413,2.665-1.408,5.159-4.069,5.574l0,0L99.106,52.57l0,0
			c2.663-0.415,5.158,1.407,5.572,4.069L106.049,65.415z"/>
		<path class="st60" d="M32.261,93.546c0.438,2.659,2.949,4.461,5.607,4.023l0,0l-3.027-18.395l0,0
			c-2.659,0.439-4.459,2.948-4.022,5.607L32.261,93.546z"/>
		<path class="st48" d="M29.53,77.071c0.438,2.659,2.948,4.459,5.607,4.022l0,0L32.111,62.7l0,0
			c-2.659,0.438-4.461,2.948-4.021,5.605L29.53,77.071z"/>
		<path class="st18" d="M27.168,61.715c0.438,2.659,2.949,4.46,5.607,4.023l0,0L29.75,47.344l0,0
			c-2.661,0.438-4.461,2.949-4.022,5.607L27.168,61.715z"/>
		<g>
			
				<rect x="67.457" y="39.637" transform="matrix(0.9875 -0.1577 0.1577 0.9875 -9.2187 14.0991)" class="st35" width="33.603" height="51.037"/>
			<polygon class="st35" points="70.604,92.502 37.616,97.8 29.569,47.401 62.557,42.104 			"/>
			<g>
				<g>
					<g>
						
							<rect x="34.569" y="52.447" transform="matrix(0.9875 -0.1578 0.1578 0.9875 -7.8407 7.7716)" class="st25" width="20.921" height="1.649"/>
						
							<rect x="35.295" y="56.516" transform="matrix(0.9875 -0.1578 0.1578 0.9875 -8.4742 7.9377)" class="st25" width="20.919" height="1.647"/>
						
							<rect x="35.977" y="60.838" transform="matrix(0.9875 -0.1578 0.1578 0.9875 -9.1494 8.1015)" class="st25" width="20.921" height="1.649"/>
					</g>
					<g>
						
							<rect x="36.468" y="65.022" transform="matrix(0.9875 -0.1578 0.1578 0.9875 -9.8009 8.2287)" class="st25" width="20.921" height="1.649"/>
						
							<rect x="37.194" y="69.091" transform="matrix(0.9875 -0.1578 0.1578 0.9875 -10.4346 8.3949)" class="st25" width="20.919" height="1.647"/>
						
							<rect x="37.877" y="73.413" transform="matrix(0.9875 -0.1578 0.1578 0.9875 -11.1102 8.5588)" class="st25" width="20.921" height="1.649"/>
					</g>
					<g>
						
							<rect x="38.47" y="77.751" transform="matrix(0.9875 -0.1578 0.1578 0.9875 -11.7837 8.7036)" class="st25" width="20.922" height="1.649"/>
						
							<rect x="39.196" y="81.821" transform="matrix(0.9875 -0.1578 0.1578 0.9875 -12.4175 8.8698)" class="st25" width="20.92" height="1.647"/>
						
							<rect x="39.878" y="86.143" transform="matrix(0.9875 -0.1578 0.1578 0.9875 -13.0899 9.0308)" class="st25" width="20.922" height="1.648"/>
					</g>
				</g>
				<g>
					
						<rect x="72.292" y="47.47" transform="matrix(0.9875 -0.1577 0.1577 0.9875 -6.5813 13.6568)" class="st25" width="20.921" height="1.648"/>
					
						<rect x="73.018" y="51.538" transform="matrix(0.9875 -0.1577 0.1577 0.9875 -7.2139 13.8221)" class="st25" width="20.921" height="1.647"/>
					
						<rect x="73.701" y="55.862" transform="matrix(0.9875 -0.1578 0.1578 0.9875 -7.8896 13.9889)" class="st25" width="20.92" height="1.647"/>
					
						<rect x="74.432" y="60.792" transform="matrix(0.9875 -0.1577 0.1577 0.9875 -8.711 13.4142)" class="st25" width="11.534" height="1.647"/>
				</g>
			</g>
		</g>
		<path class="st71" d="M103.495,50.091l-1.37-8.777c-0.415-2.66-2.909-4.482-5.574-4.068l-1.202,0.248l3.006,18.295l1.066-0.152
			l0.003,0.028C102.087,55.249,103.909,52.754,103.495,50.091z"/>
		<g>
			<circle class="st20" cx="58.62" cy="47.712" r="1.048"/>
			<circle class="st20" cx="68.821" cy="45.986" r="1.048"/>
			<g>
				<path class="st7" d="M68.796,46.004c-0.223-1.276-2.804-2.693-5.6-2.207c-2.799,0.486-4.754,2.691-4.532,3.968"/>
			</g>
		</g>
		<g>
			<circle class="st20" cx="65.168" cy="89.889" r="1.048"/>
			<circle class="st20" cx="75.37" cy="88.163" r="1.048"/>
			<g>
				<path class="st7" d="M75.344,88.181c-0.224-1.276-2.803-2.693-5.599-2.207c-2.799,0.486-4.754,2.691-4.532,3.967"/>
			</g>
		</g>
		<g>
			<circle class="st20" cx="61.239" cy="65.002" r="1.048"/>
			<circle class="st20" cx="71.441" cy="63.275" r="1.047"/>
			<g>
				<path class="st7" d="M71.414,63.295c-0.224-1.276-2.801-2.693-5.599-2.209c-2.799,0.486-4.754,2.691-4.532,3.969"/>
			</g>
		</g>
		<g>
			<circle class="st20" cx="62.549" cy="73.386" r="1.048"/>
			<circle class="st20" cx="72.751" cy="71.66" r="1.047"/>
			<g>
				<path class="st7" d="M72.725,71.678c-0.222-1.277-2.803-2.693-5.6-2.207c-2.798,0.485-4.755,2.69-4.531,3.966"/>
			</g>
		</g>
		<g>
			<circle class="st20" cx="63.859" cy="81.376" r="1.047"/>
			<circle class="st20" cx="74.061" cy="79.649" r="1.048"/>
			<g>
				<path class="st7" d="M74.034,79.668c-0.223-1.277-2.802-2.692-5.598-2.208c-2.799,0.485-4.756,2.691-4.534,3.968"/>
			</g>
		</g>
		<g>
			<circle class="st20" cx="59.798" cy="56.095" r="1.048"/>
			<circle class="st20" cx="70" cy="54.369" r="1.047"/>
			<g>
				<path class="st7" d="M69.974,54.388c-0.222-1.277-2.803-2.692-5.599-2.208c-2.799,0.486-4.756,2.691-4.532,3.968"/>
			</g>
		</g>
	</g>
</g>
</svg>
