<?xml version="1.0" encoding="utf-8"?>
<!-- Generator: Adobe Illustrator 16.0.0, SVG Export Plug-In . SVG Version: 6.00 Build 0)  -->
<!DOCTYPE svg PUBLIC "-//W3C//DTD SVG 1.1//EN" "http://www.w3.org/Graphics/SVG/1.1/DTD/svg11.dtd">
<svg version="1.1" id="Layer_1" xmlns="http://www.w3.org/2000/svg" xmlns:xlink="http://www.w3.org/1999/xlink" x="0px" y="0px"
	 width="136.833px" height="136.834px" viewBox="0 0 136.833 136.834" style="enable-background:new 0 0 136.833 136.834;"
	 xml:space="preserve">
<style type="text/css">
<![CDATA[
	.st0{fill:#473D2E;}
	.st1{opacity:0.25;fill:#EFEFEF;}
	.st2{fill:#7B6854;}
	.st3{fill:#AAAAAA;}
	.st4{fill:#48B15A;}
	.st5{fill:#49A0AE;}
	.st6{fill:#AD2728;}
	.st7{fill:none;stroke:#888887;stroke-miterlimit:10;}
	.st8{fill-rule:evenodd;clip-rule:evenodd;fill:#3F3F3E;}
	.st9{fill-rule:evenodd;clip-rule:evenodd;fill:#3F7D92;}
	.st10{fill:#AEACAC;}
	.st11{fill:#E58E8F;}
	.st12{fill:#4ABC96;}
	.st13{fill:#E5E65D;}
	.st14{fill:#4B4A4B;}
	.st15{fill:#E6E768;}
	.st16{fill:#E79E2D;}
	.st17{fill:#E7E7E7;}
	.st18{fill:#E84849;}
	.st19{fill:#E8E7E7;}
	.st20{fill:#4E4E4E;}
	.st21{fill:#E9E4B1;}
	.st22{fill:#E9E9EA;}
	.st23{fill:#80702C;}
	.st24{fill:#807F7F;}
	.st25{fill:#818282;}
	.st26{fill:#82725A;}
	.st27{opacity:0.15;}
	.st28{fill:#83CECA;}
	.st29{fill:#B3DCE2;}
	.st30{fill:#1A3940;}
	.st31{fill:#B5B6B6;}
	.st32{fill:#B6E2EB;}
	.st33{fill:#886A29;}
	.st34{fill:#EBEDEF;}
	.st35{fill:#EBF6F9;}
	.st36{fill-rule:evenodd;clip-rule:evenodd;fill:#7D8880;}
	.st37{fill:#B9B9BA;}
	.st38{fill:#EDC92C;}
	.st39{fill:#504A2A;}
	.st40{fill:#EFC849;}
	.st41{fill:#55B966;}
	.st42{fill-rule:evenodd;clip-rule:evenodd;fill:#4B4A4B;}
	.st43{fill:#577D87;}
	.st44{fill:#58595A;}
	.st45{fill:#BBBCBB;}
	.st46{fill-rule:evenodd;clip-rule:evenodd;fill:#E84849;}
	.st47{fill:#202121;}
	.st48{fill:#F06668;}
	.st49{fill:#BFBEBE;}
	.st50{fill-rule:evenodd;clip-rule:evenodd;fill:#82725A;}
	.st51{fill:#231F20;}
	.st52{fill:#F2BE3E;}
	.st53{fill:#F2DE62;}
	.st54{fill:#F2EF8F;}
	.st55{fill:#F4E028;}
	.st56{fill:#5A5B5D;}
	.st57{fill-rule:evenodd;clip-rule:evenodd;fill:#B5B2B3;}
	.st58{opacity:0.4;clip-path:url(#SVGID_4_);fill:url(#SVGID_5_);}
	.st59{fill:#5B4F3F;}
	.st60{fill:#F6A2A3;}
	.st61{fill:#F6F6E7;}
	.st62{fill:#F7D98B;}
	.st63{fill:#5E8492;}
	.st64{fill:#F9F29A;}
	.st65{fill:#969595;}
	.st66{fill:#988534;}
	.st67{fill:#99999A;}
	.st68{fill:#FDF2F7;}
	.st69{fill:#FDF7FA;}
	.st70{fill:#2F6E77;}
	.st71{fill:#2F8442;}
	.st72{fill:#606060;}
	.st73{fill:#60C3B6;}
	.st74{fill-rule:evenodd;clip-rule:evenodd;fill:#F06668;}
	.st75{fill:none;stroke:#818282;stroke-miterlimit:10;}
	.st76{fill:#FFFFFF;}
	.st77{fill:#626463;}
	.st78{fill:#63BD6E;}
	.st79{fill-rule:evenodd;clip-rule:evenodd;fill:#245861;}
	.st80{fill:none;}
	.st81{fill:#9A866F;}
	.st82{clip-path:url(#SVGID_2_);fill:#90B9C0;}
	.st83{fill-rule:evenodd;clip-rule:evenodd;fill:#5B4F3F;}
	.st84{fill:#9B7842;}
	.st85{fill:#67B7C3;}
	.st86{fill:#67B8CB;}
	.st87{fill:#CC2027;}
	.st88{fill:#CDCDCE;}
	.st89{fill:#CE2F2E;}
	.st90{fill:#9F77AA;}
	.st91{opacity:0.7;fill:#FFFFFF;}
	.st92{fill-rule:evenodd;clip-rule:evenodd;fill:#C0BEBF;}
	.st93{fill:#333535;}
	.st94{fill:#357180;}
	.st95{opacity:0.4;clip-path:url(#SVGID_10_);fill:url(#SVGID_11_);}
	.st96{clip-path:url(#SVGID_2_);fill:#FFFFFF;}
	.st97{fill:#6CC077;}
	.st98{fill:#6EC2CB;}
	.st99{fill:#020202;}
	.st100{fill:#D32027;}
	.st101{fill:#D4A160;}
	.st102{fill:#D6E4F4;}
	.st103{fill:#D7D7D7;}
	.st104{fill:#D88080;}
	.st105{opacity:0.4;clip-path:url(#SVGID_7_);fill:url(#SVGID_8_);}
	.st106{fill-rule:evenodd;clip-rule:evenodd;fill:#CDCCCB;}
	.st107{fill:#A07238;}
	.st108{fill:#A2D4DE;}
	.st109{fill:#A3D4AA;}
	.st110{fill:#74C59C;}
	.st111{fill-rule:evenodd;clip-rule:evenodd;fill:#357180;}
	.st112{fill:#A4A5A4;}
	.st113{fill:#A5B6B9;}
	.st114{fill:#DAC425;}
	.st115{fill:#DBF0F5;}
	.st116{fill:#0EA24A;}
	.st117{fill:#DDDDDC;}
	.st118{fill:#DDDFDF;}
	.st119{fill:#40BCA3;}
	.st120{fill:#43A0AA;}
]]>
</style>
<g>
	<g>
		<g>
			<circle class="st12" cx="68.417" cy="68.416" r="63.333"/>
		</g>
	</g>
	<g>
		<path class="st20" d="M102.571,93.675c1.222,7.948-1.189,11.233-9.138,12.454l-49.166,7.546L31.25,33.193l49.202-7.554
			c7.948-1.22,11.233,1.188,12.45,9.14L102.571,93.675z"/>
		<path class="st44" d="M104.608,90.764c1.222,7.951-1.189,11.234-9.138,12.454l-49.166,7.547L33.286,30.283l49.203-7.554
			c7.947-1.219,11.232,1.189,12.45,9.14L104.608,90.764z"/>
		<g>
			<path class="st7" d="M39.926,40.821"/>
			<path class="st7" d="M33.5,46.444"/>
		</g>
		<g>
			<g>
				<path class="st93" d="M40.076,41.09c0.138,0.81-0.405,1.577-1.215,1.712c-0.81,0.138-1.577-0.407-1.714-1.217
					c-0.135-0.809,0.409-1.575,1.218-1.712S39.939,40.281,40.076,41.09z"/>
			</g>
			<path class="st75" d="M33.576,47.409c-3.13,0.444-6.026-1.734-6.471-4.863c-0.443-3.129,1.735-6.025,4.864-6.469
				c3.13-0.442,6.025,1.734,6.47,4.863"/>
		</g>
		<g>
			<g>
				<path class="st93" d="M42.413,55.813c0.138,0.808-0.407,1.575-1.216,1.712c-0.81,0.136-1.577-0.409-1.715-1.217
					c-0.135-0.812,0.409-1.577,1.219-1.712C41.51,54.458,42.275,55.003,42.413,55.813z"/>
			</g>
			<path class="st75" d="M35.911,62.13c-3.13,0.444-6.026-1.734-6.47-4.863c-0.442-3.129,1.735-6.025,4.864-6.469
				c3.13-0.442,6.025,1.734,6.47,4.865"/>
		</g>
		<g>
			<g>
				<path class="st93" d="M44.883,71.25c0.138,0.809-0.407,1.576-1.217,1.712c-0.81,0.138-1.576-0.408-1.714-1.217
					c-0.134-0.81,0.409-1.577,1.219-1.712C43.979,69.895,44.745,70.44,44.883,71.25z"/>
			</g>
			<path class="st75" d="M38.381,77.568c-3.129,0.442-6.025-1.736-6.47-4.865c-0.442-3.127,1.734-6.025,4.864-6.468
				c3.13-0.444,6.026,1.732,6.47,4.864"/>
		</g>
		<g>
			<g>
				<path class="st93" d="M47.404,86.671c0.138,0.809-0.407,1.576-1.217,1.712c-0.809,0.138-1.576-0.407-1.714-1.217
					c-0.134-0.809,0.409-1.575,1.219-1.712C46.502,85.317,47.267,85.862,47.404,86.671z"/>
			</g>
			<path class="st75" d="M40.902,92.99c-3.129,0.444-6.025-1.734-6.47-4.864c-0.442-3.129,1.735-6.025,4.864-6.469
				c3.13-0.444,6.026,1.734,6.47,4.863"/>
		</g>
		<g>
			<g>
				<circle class="st93" cx="48.41" cy="102.356" r="1.486"/>
			</g>
			<path class="st75" d="M43.373,108.426c-3.13,0.444-6.025-1.734-6.47-4.863c-0.442-3.129,1.734-6.025,4.863-6.469
				c3.13-0.442,6.026,1.734,6.471,4.863"/>
		</g>
		
			<rect x="47.142" y="41.621" transform="matrix(0.9877 -0.1563 0.1563 0.9877 -7.5699 11.2869)" class="st20" width="41.701" height="24.325"/>
		
			<rect x="49.18" y="43.929" transform="matrix(0.9877 -0.1563 0.1563 0.9877 -7.5502 11.2803)" class="st76" width="37.587" height="19.469"/>
		<g>
			<g>
				<g>
					
						<rect x="51.346" y="46.516" transform="matrix(0.9875 -0.1577 0.1577 0.9875 -6.6333 11.1282)" class="st25" width="30.906" height="1.686"/>
					
						<rect x="52.123" y="50.673" transform="matrix(0.9875 -0.1577 0.1577 0.9875 -7.2794 11.303)" class="st25" width="30.905" height="1.686"/>
					
						<rect x="52.818" y="55.099" transform="matrix(0.9875 -0.1577 0.1577 0.9875 -7.9685 11.4678)" class="st25" width="30.906" height="1.684"/>
					<polygon class="st25" points="70.659,60.811 53.836,63.497 53.565,61.833 70.395,59.144 					"/>
				</g>
			</g>
		</g>
	</g>
</g>
</svg>
