<?xml version="1.0" encoding="utf-8"?>
<!-- Generator: Adobe Illustrator 16.0.0, SVG Export Plug-In . SVG Version: 6.00 Build 0)  -->
<!DOCTYPE svg PUBLIC "-//W3C//DTD SVG 1.1//EN" "http://www.w3.org/Graphics/SVG/1.1/DTD/svg11.dtd">
<svg version="1.1" id="Layer_1" xmlns="http://www.w3.org/2000/svg" xmlns:xlink="http://www.w3.org/1999/xlink" x="0px" y="0px"
	 width="136.833px" height="136.834px" viewBox="0 0 136.833 136.834" style="enable-background:new 0 0 136.833 136.834;"
	 xml:space="preserve">
<style type="text/css">
<![CDATA[
	.st0{fill:#473D2E;}
	.st1{opacity:0.25;fill:#EFEFEF;}
	.st2{fill:#7B6854;}
	.st3{fill:#AAAAAA;}
	.st4{fill:#48B15A;}
	.st5{fill:#49A0AE;}
	.st6{fill:#AD2728;}
	.st7{fill:none;stroke:#888887;stroke-miterlimit:10;}
	.st8{fill-rule:evenodd;clip-rule:evenodd;fill:#3F3F3E;}
	.st9{fill-rule:evenodd;clip-rule:evenodd;fill:#3F7D92;}
	.st10{fill:#AEACAC;}
	.st11{fill:#E58E8F;}
	.st12{fill:#4ABC96;}
	.st13{fill:#E5E65D;}
	.st14{fill:#4B4A4B;}
	.st15{fill:#E6E768;}
	.st16{fill:#E79E2D;}
	.st17{fill:#E7E7E7;}
	.st18{fill:#E84849;}
	.st19{fill:#E8E7E7;}
	.st20{fill:#4E4E4E;}
	.st21{fill:#E9E4B1;}
	.st22{fill:#E9E9EA;}
	.st23{fill:#80702C;}
	.st24{fill:#807F7F;}
	.st25{fill:#818282;}
	.st26{fill:#82725A;}
	.st27{opacity:0.15;}
	.st28{fill:#83CECA;}
	.st29{fill:#B3DCE2;}
	.st30{fill:#1A3940;}
	.st31{fill:#B5B6B6;}
	.st32{fill:#B6E2EB;}
	.st33{fill:#886A29;}
	.st34{fill:#EBEDEF;}
	.st35{fill:#EBF6F9;}
	.st36{fill-rule:evenodd;clip-rule:evenodd;fill:#7D8880;}
	.st37{fill:#B9B9BA;}
	.st38{fill:#EDC92C;}
	.st39{fill:#504A2A;}
	.st40{fill:#EFC849;}
	.st41{fill:#55B966;}
	.st42{fill-rule:evenodd;clip-rule:evenodd;fill:#4B4A4B;}
	.st43{fill:#577D87;}
	.st44{fill:#58595A;}
	.st45{fill:#BBBCBB;}
	.st46{fill-rule:evenodd;clip-rule:evenodd;fill:#E84849;}
	.st47{fill:#202121;}
	.st48{fill:#F06668;}
	.st49{fill:#BFBEBE;}
	.st50{fill-rule:evenodd;clip-rule:evenodd;fill:#82725A;}
	.st51{fill:#231F20;}
	.st52{fill:#F2BE3E;}
	.st53{fill:#F2DE62;}
	.st54{fill:#F2EF8F;}
	.st55{fill:#F4E028;}
	.st56{fill:#5A5B5D;}
	.st57{fill-rule:evenodd;clip-rule:evenodd;fill:#B5B2B3;}
	.st58{opacity:0.4;clip-path:url(#SVGID_4_);fill:url(#SVGID_5_);}
	.st59{fill:#5B4F3F;}
	.st60{fill:#F6A2A3;}
	.st61{fill:#F6F6E7;}
	.st62{fill:#F7D98B;}
	.st63{fill:#5E8492;}
	.st64{fill:#F9F29A;}
	.st65{fill:#969595;}
	.st66{fill:#988534;}
	.st67{fill:#99999A;}
	.st68{fill:#FDF2F7;}
	.st69{fill:#FDF7FA;}
	.st70{fill:#2F6E77;}
	.st71{fill:#2F8442;}
	.st72{fill:#606060;}
	.st73{fill:#60C3B6;}
	.st74{fill-rule:evenodd;clip-rule:evenodd;fill:#F06668;}
	.st75{fill:none;stroke:#818282;stroke-miterlimit:10;}
	.st76{fill:#FFFFFF;}
	.st77{fill:#626463;}
	.st78{fill:#63BD6E;}
	.st79{fill-rule:evenodd;clip-rule:evenodd;fill:#245861;}
	.st80{fill:none;}
	.st81{fill:#9A866F;}
	.st82{clip-path:url(#SVGID_2_);fill:#90B9C0;}
	.st83{fill-rule:evenodd;clip-rule:evenodd;fill:#5B4F3F;}
	.st84{fill:#9B7842;}
	.st85{fill:#67B7C3;}
	.st86{fill:#67B8CB;}
	.st87{fill:#CC2027;}
	.st88{fill:#CDCDCE;}
	.st89{fill:#CE2F2E;}
	.st90{fill:#9F77AA;}
	.st91{opacity:0.7;fill:#FFFFFF;}
	.st92{fill-rule:evenodd;clip-rule:evenodd;fill:#C0BEBF;}
	.st93{fill:#333535;}
	.st94{fill:#357180;}
	.st95{opacity:0.4;clip-path:url(#SVGID_10_);fill:url(#SVGID_11_);}
	.st96{clip-path:url(#SVGID_2_);fill:#FFFFFF;}
	.st97{fill:#6CC077;}
	.st98{fill:#6EC2CB;}
	.st99{fill:#020202;}
	.st100{fill:#D32027;}
	.st101{fill:#D4A160;}
	.st102{fill:#D6E4F4;}
	.st103{fill:#D7D7D7;}
	.st104{fill:#D88080;}
	.st105{opacity:0.4;clip-path:url(#SVGID_7_);fill:url(#SVGID_8_);}
	.st106{fill-rule:evenodd;clip-rule:evenodd;fill:#CDCCCB;}
	.st107{fill:#A07238;}
	.st108{fill:#A2D4DE;}
	.st109{fill:#A3D4AA;}
	.st110{fill:#74C59C;}
	.st111{fill-rule:evenodd;clip-rule:evenodd;fill:#357180;}
	.st112{fill:#A4A5A4;}
	.st113{fill:#A5B6B9;}
	.st114{fill:#DAC425;}
	.st115{fill:#DBF0F5;}
	.st116{fill:#0EA24A;}
	.st117{fill:#DDDDDC;}
	.st118{fill:#DDDFDF;}
	.st119{fill:#40BCA3;}
	.st120{fill:#43A0AA;}
]]>
</style>
<g>
	<g>
		<g>
			<circle class="st12" cx="68.417" cy="68.416" r="63.333"/>
		</g>
	</g>
	<g>
		<polygon class="st45" points="108.078,37.464 109.385,39.059 107.865,49.911 107.323,49.802 106.998,38.517 		"/>
		<g>
			<g>
				<polygon class="st10" points="107.506,49.477 30.244,49.516 34.32,96.533 113.258,96.494 				"/>
				<polygon class="st100" points="107.504,49.477 30.244,49.516 30.815,37.503 108.078,37.464 				"/>
				<polygon class="st45" points="107.506,49.477 30.244,49.516 31.797,99.611 109.06,99.573 				"/>
				<polygon class="st34" points="107.506,49.477 30.244,49.516 27.603,97.4 93.724,97.367 96.906,89.228 103.459,89.827 				"/>
				<g>
					<path class="st77" d="M66.896,84.837H48.249c0.213-1.841,0.863-3.573,1.946-5.196s3.114-3.538,6.095-5.745
						c1.821-1.353,2.986-2.38,3.494-3.083c0.51-0.702,0.764-1.368,0.764-1.999c0-0.682-0.251-1.264-0.754-1.748
						c-0.504-0.483-1.139-0.725-1.901-0.725c-0.794,0-1.441,0.25-1.945,0.748c-0.503,0.499-0.842,1.378-1.016,2.64l-6.226-0.503
						c0.244-1.75,0.692-3.115,1.343-4.097c0.651-0.982,1.57-1.734,2.756-2.258c1.185-0.524,2.824-0.786,4.92-0.786
						c2.188,0,3.89,0.25,5.105,0.748c1.215,0.498,2.172,1.264,2.868,2.296c0.697,1.033,1.045,2.189,1.045,3.471
						c0,1.364-0.398,2.666-1.197,3.907c-0.798,1.241-2.252,2.604-4.356,4.09c-1.252,0.864-2.088,1.47-2.511,1.816
						c-0.422,0.345-0.918,0.798-1.488,1.358h9.705V84.837z"/>
					<path class="st77" d="M87.542,67.502l-6.181,0.763c-0.163-0.865-0.434-1.475-0.815-1.831S79.693,65.9,79.134,65.9
						c-1.007,0-1.791,0.508-2.35,1.525c-0.407,0.732-0.707,2.299-0.901,4.7c0.743-0.753,1.507-1.31,2.289-1.671
						c0.784-0.361,1.689-0.542,2.717-0.542c1.993,0,3.681,0.712,5.059,2.136c1.379,1.424,2.067,3.23,2.067,5.417
						c0,1.475-0.348,2.823-1.044,4.044c-0.697,1.221-1.663,2.144-2.9,2.77c-1.235,0.625-2.785,0.938-4.646,0.938
						c-2.238,0-4.034-0.381-5.387-1.145c-1.354-0.763-2.434-1.981-3.242-3.654s-1.213-3.889-1.213-6.646
						c0-4.039,0.849-6.997,2.548-8.873c1.699-1.877,4.054-2.816,7.065-2.816c1.779,0,3.188,0.206,4.219,0.618
						c1.033,0.412,1.89,1.015,2.571,1.808C86.666,65.305,87.186,66.302,87.542,67.502z M76.098,77.467
						c0,1.21,0.305,2.159,0.915,2.846s1.358,1.03,2.243,1.03c0.813,0,1.495-0.311,2.044-0.931c0.55-0.621,0.824-1.546,0.824-2.777
						c0-1.261-0.284-2.222-0.854-2.884c-0.569-0.662-1.276-0.992-2.121-0.992c-0.864,0-1.588,0.32-2.173,0.961
						C76.391,75.361,76.098,76.276,76.098,77.467z"/>
				</g>
			</g>
			<polygon class="st10" points="93.362,97.362 96.906,89.228 103.417,89.662 			"/>
		</g>
	</g>
</g>
</svg>
