<?xml version="1.0" encoding="utf-8"?>
<!-- Generator: Adobe Illustrator 16.0.0, SVG Export Plug-In . SVG Version: 6.00 Build 0)  -->
<!DOCTYPE svg PUBLIC "-//W3C//DTD SVG 1.1//EN" "http://www.w3.org/Graphics/SVG/1.1/DTD/svg11.dtd">
<svg version="1.1" id="Layer_1" xmlns="http://www.w3.org/2000/svg" xmlns:xlink="http://www.w3.org/1999/xlink" x="0px" y="0px"
	 width="136.833px" height="136.834px" viewBox="0 0 136.833 136.834" style="enable-background:new 0 0 136.833 136.834;"
	 xml:space="preserve">
<style type="text/css">
<![CDATA[
	.st0{fill:#473D2E;}
	.st1{opacity:0.25;fill:#EFEFEF;}
	.st2{fill:#7B6854;}
	.st3{fill:#AAAAAA;}
	.st4{fill:#48B15A;}
	.st5{fill:#49A0AE;}
	.st6{fill:#AD2728;}
	.st7{fill:none;stroke:#888887;stroke-miterlimit:10;}
	.st8{fill-rule:evenodd;clip-rule:evenodd;fill:#3F3F3E;}
	.st9{fill-rule:evenodd;clip-rule:evenodd;fill:#3F7D92;}
	.st10{fill:#AEACAC;}
	.st11{fill:#E58E8F;}
	.st12{fill:#4ABC96;}
	.st13{fill:#E5E65D;}
	.st14{fill:#4B4A4B;}
	.st15{fill:#E6E768;}
	.st16{fill:#E79E2D;}
	.st17{fill:#E7E7E7;}
	.st18{fill:#E84849;}
	.st19{fill:#E8E7E7;}
	.st20{fill:#4E4E4E;}
	.st21{fill:#E9E4B1;}
	.st22{fill:#E9E9EA;}
	.st23{fill:#80702C;}
	.st24{fill:#807F7F;}
	.st25{fill:#818282;}
	.st26{fill:#82725A;}
	.st27{opacity:0.15;}
	.st28{fill:#83CECA;}
	.st29{fill:#B3DCE2;}
	.st30{fill:#1A3940;}
	.st31{fill:#B5B6B6;}
	.st32{fill:#B6E2EB;}
	.st33{fill:#886A29;}
	.st34{fill:#EBEDEF;}
	.st35{fill:#EBF6F9;}
	.st36{fill-rule:evenodd;clip-rule:evenodd;fill:#7D8880;}
	.st37{fill:#B9B9BA;}
	.st38{fill:#EDC92C;}
	.st39{fill:#504A2A;}
	.st40{fill:#EFC849;}
	.st41{fill:#55B966;}
	.st42{fill-rule:evenodd;clip-rule:evenodd;fill:#4B4A4B;}
	.st43{fill:#577D87;}
	.st44{fill:#58595A;}
	.st45{fill:#BBBCBB;}
	.st46{fill-rule:evenodd;clip-rule:evenodd;fill:#E84849;}
	.st47{fill:#202121;}
	.st48{fill:#F06668;}
	.st49{fill:#BFBEBE;}
	.st50{fill-rule:evenodd;clip-rule:evenodd;fill:#82725A;}
	.st51{fill:#231F20;}
	.st52{fill:#F2BE3E;}
	.st53{fill:#F2DE62;}
	.st54{fill:#F2EF8F;}
	.st55{fill:#F4E028;}
	.st56{fill:#5A5B5D;}
	.st57{fill-rule:evenodd;clip-rule:evenodd;fill:#B5B2B3;}
	.st58{opacity:0.4;clip-path:url(#SVGID_4_);fill:url(#SVGID_5_);}
	.st59{fill:#5B4F3F;}
	.st60{fill:#F6A2A3;}
	.st61{fill:#F6F6E7;}
	.st62{fill:#F7D98B;}
	.st63{fill:#5E8492;}
	.st64{fill:#F9F29A;}
	.st65{fill:#969595;}
	.st66{fill:#988534;}
	.st67{fill:#99999A;}
	.st68{fill:#FDF2F7;}
	.st69{fill:#FDF7FA;}
	.st70{fill:#2F6E77;}
	.st71{fill:#2F8442;}
	.st72{fill:#606060;}
	.st73{fill:#60C3B6;}
	.st74{fill-rule:evenodd;clip-rule:evenodd;fill:#F06668;}
	.st75{fill:none;stroke:#818282;stroke-miterlimit:10;}
	.st76{fill:#FFFFFF;}
	.st77{fill:#626463;}
	.st78{fill:#63BD6E;}
	.st79{fill-rule:evenodd;clip-rule:evenodd;fill:#245861;}
	.st80{fill:none;}
	.st81{fill:#9A866F;}
	.st82{clip-path:url(#SVGID_2_);fill:#90B9C0;}
	.st83{fill-rule:evenodd;clip-rule:evenodd;fill:#5B4F3F;}
	.st84{fill:#9B7842;}
	.st85{fill:#67B7C3;}
	.st86{fill:#67B8CB;}
	.st87{fill:#CC2027;}
	.st88{fill:#CDCDCE;}
	.st89{fill:#CE2F2E;}
	.st90{fill:#9F77AA;}
	.st91{opacity:0.7;fill:#FFFFFF;}
	.st92{fill-rule:evenodd;clip-rule:evenodd;fill:#C0BEBF;}
	.st93{fill:#333535;}
	.st94{fill:#357180;}
	.st95{opacity:0.4;clip-path:url(#SVGID_10_);fill:url(#SVGID_11_);}
	.st96{clip-path:url(#SVGID_2_);fill:#FFFFFF;}
	.st97{fill:#6CC077;}
	.st98{fill:#6EC2CB;}
	.st99{fill:#020202;}
	.st100{fill:#D32027;}
	.st101{fill:#D4A160;}
	.st102{fill:#D6E4F4;}
	.st103{fill:#D7D7D7;}
	.st104{fill:#D88080;}
	.st105{opacity:0.4;clip-path:url(#SVGID_7_);fill:url(#SVGID_8_);}
	.st106{fill-rule:evenodd;clip-rule:evenodd;fill:#CDCCCB;}
	.st107{fill:#A07238;}
	.st108{fill:#A2D4DE;}
	.st109{fill:#A3D4AA;}
	.st110{fill:#74C59C;}
	.st111{fill-rule:evenodd;clip-rule:evenodd;fill:#357180;}
	.st112{fill:#A4A5A4;}
	.st113{fill:#A5B6B9;}
	.st114{fill:#DAC425;}
	.st115{fill:#DBF0F5;}
	.st116{fill:#0EA24A;}
	.st117{fill:#DDDDDC;}
	.st118{fill:#DDDFDF;}
	.st119{fill:#40BCA3;}
	.st120{fill:#43A0AA;}
]]>
</style>
<g>
	<g>
		<g>
			<circle class="st52" cx="68.417" cy="68.417" r="63.333"/>
		</g>
	</g>
	<g>
		<g>
			<rect x="28.492" y="61.179" class="st8" width="81.962" height="21.433"/>
			<g>
				<path class="st50" d="M28.506,62.369c0,0,23.334,9.175,40.798,9.175c19.086,0,41.137-9.261,41.137-9.261V51
					c0-5.724-5.638-5.47-5.638-5.47h-70.94c-5.553,0-5.356,5.47-5.356,5.47V62.369z M74.886,68.864l-11.024-0.086
					c0,0,0.084-1.222,0.084-2.734c0-1.51,1.226-2.736,2.735-2.736h5.471c1.511,0,2.734,1.226,2.734,2.736
					C74.886,67.557,74.886,68.864,74.886,68.864z M110.44,91.912V65.447c0,0-17.748,8.86-41.253,8.86
					c-21.621,0-40.682-9.119-40.682-9.119v26.724c0,5.556,5.27,5.471,5.27,5.471h71.112C110.781,97.383,110.44,91.912,110.44,91.912
					z M74.801,79.806c0,1.506-1.223,2.646-2.734,2.646h-5.471c-1.51,0-2.734-1.14-2.734-2.646c0-1.515,0-2.823,0-2.823l11.024-0.086
					C74.886,76.897,74.801,78.292,74.801,79.806z"/>
			</g>
			<g>
				<path class="st83" d="M28.506,62.369c0,0,23.334,9.175,40.798,9.175c19.086,0,41.137-9.261,41.137-9.261V51
					c0-5.724-5.638-5.47-5.638-5.47h-70.94c-5.553,0-5.356,5.47-5.356,5.47V62.369z M74.886,68.864l-11.024-0.086
					c0,0,0.084-1.222,0.084-2.734c0-1.51,1.226-2.736,2.735-2.736h5.471c1.511,0,2.734,1.226,2.734,2.736
					C74.886,67.557,74.886,68.864,74.886,68.864z"/>
			</g>
		</g>
		<path class="st8" d="M83.006,45.53v-5.554c0-5.641-5.298-5.385-5.298-5.385H61.126c-5.214,0-5.384,5.47-5.384,5.47v5.468H83.006z
			 M61.126,42.625c0-2.478,2.735-2.649,2.735-2.649h11.024c2.907,0,2.736,2.989,2.736,2.989l-0.085,2.564H61.126V42.625z"/>
	</g>
</g>
</svg>
