<?xml version="1.0" encoding="utf-8"?>
<!-- Generator: Adobe Illustrator 16.0.0, SVG Export Plug-In . SVG Version: 6.00 Build 0)  -->
<!DOCTYPE svg PUBLIC "-//W3C//DTD SVG 1.1//EN" "http://www.w3.org/Graphics/SVG/1.1/DTD/svg11.dtd">
<svg version="1.1" id="Layer_1" xmlns="http://www.w3.org/2000/svg" xmlns:xlink="http://www.w3.org/1999/xlink" x="0px" y="0px"
	 width="136.833px" height="136.834px" viewBox="0 0 136.833 136.834" style="enable-background:new 0 0 136.833 136.834;"
	 xml:space="preserve">
<style type="text/css">
<![CDATA[
	.st0{fill:#473D2E;}
	.st1{opacity:0.25;fill:#EFEFEF;}
	.st2{fill:#7B6854;}
	.st3{fill:#AAAAAA;}
	.st4{fill:#48B15A;}
	.st5{fill:#49A0AE;}
	.st6{fill:#AD2728;}
	.st7{fill:none;stroke:#888887;stroke-miterlimit:10;}
	.st8{fill-rule:evenodd;clip-rule:evenodd;fill:#3F3F3E;}
	.st9{fill-rule:evenodd;clip-rule:evenodd;fill:#3F7D92;}
	.st10{fill:#AEACAC;}
	.st11{fill:#E58E8F;}
	.st12{fill:#4ABC96;}
	.st13{fill:#E5E65D;}
	.st14{fill:#4B4A4B;}
	.st15{fill:#E6E768;}
	.st16{fill:#E79E2D;}
	.st17{fill:#E7E7E7;}
	.st18{fill:#E84849;}
	.st19{fill:#E8E7E7;}
	.st20{fill:#4E4E4E;}
	.st21{fill:#E9E4B1;}
	.st22{fill:#E9E9EA;}
	.st23{fill:#80702C;}
	.st24{fill:#807F7F;}
	.st25{fill:#818282;}
	.st26{fill:#82725A;}
	.st27{opacity:0.15;}
	.st28{fill:#83CECA;}
	.st29{fill:#B3DCE2;}
	.st30{fill:#1A3940;}
	.st31{fill:#B5B6B6;}
	.st32{fill:#B6E2EB;}
	.st33{fill:#886A29;}
	.st34{fill:#EBEDEF;}
	.st35{fill:#EBF6F9;}
	.st36{fill-rule:evenodd;clip-rule:evenodd;fill:#7D8880;}
	.st37{fill:#B9B9BA;}
	.st38{fill:#EDC92C;}
	.st39{fill:#504A2A;}
	.st40{fill:#EFC849;}
	.st41{fill:#55B966;}
	.st42{fill-rule:evenodd;clip-rule:evenodd;fill:#4B4A4B;}
	.st43{fill:#577D87;}
	.st44{fill:#58595A;}
	.st45{fill:#BBBCBB;}
	.st46{fill-rule:evenodd;clip-rule:evenodd;fill:#E84849;}
	.st47{fill:#202121;}
	.st48{fill:#F06668;}
	.st49{fill:#BFBEBE;}
	.st50{fill-rule:evenodd;clip-rule:evenodd;fill:#82725A;}
	.st51{fill:#231F20;}
	.st52{fill:#F2BE3E;}
	.st53{fill:#F2DE62;}
	.st54{fill:#F2EF8F;}
	.st55{fill:#F4E028;}
	.st56{fill:#5A5B5D;}
	.st57{fill-rule:evenodd;clip-rule:evenodd;fill:#B5B2B3;}
	.st58{opacity:0.4;clip-path:url(#SVGID_4_);fill:url(#SVGID_5_);}
	.st59{fill:#5B4F3F;}
	.st60{fill:#F6A2A3;}
	.st61{fill:#F6F6E7;}
	.st62{fill:#F7D98B;}
	.st63{fill:#5E8492;}
	.st64{fill:#F9F29A;}
	.st65{fill:#969595;}
	.st66{fill:#988534;}
	.st67{fill:#99999A;}
	.st68{fill:#FDF2F7;}
	.st69{fill:#FDF7FA;}
	.st70{fill:#2F6E77;}
	.st71{fill:#2F8442;}
	.st72{fill:#606060;}
	.st73{fill:#60C3B6;}
	.st74{fill-rule:evenodd;clip-rule:evenodd;fill:#F06668;}
	.st75{fill:none;stroke:#818282;stroke-miterlimit:10;}
	.st76{fill:#FFFFFF;}
	.st77{fill:#626463;}
	.st78{fill:#63BD6E;}
	.st79{fill-rule:evenodd;clip-rule:evenodd;fill:#245861;}
	.st80{fill:none;}
	.st81{fill:#9A866F;}
	.st82{clip-path:url(#SVGID_2_);fill:#90B9C0;}
	.st83{fill-rule:evenodd;clip-rule:evenodd;fill:#5B4F3F;}
	.st84{fill:#9B7842;}
	.st85{fill:#67B7C3;}
	.st86{fill:#67B8CB;}
	.st87{fill:#CC2027;}
	.st88{fill:#CDCDCE;}
	.st89{fill:#CE2F2E;}
	.st90{fill:#9F77AA;}
	.st91{opacity:0.7;fill:#FFFFFF;}
	.st92{fill-rule:evenodd;clip-rule:evenodd;fill:#C0BEBF;}
	.st93{fill:#333535;}
	.st94{fill:#357180;}
	.st95{opacity:0.4;clip-path:url(#SVGID_10_);fill:url(#SVGID_11_);}
	.st96{clip-path:url(#SVGID_2_);fill:#FFFFFF;}
	.st97{fill:#6CC077;}
	.st98{fill:#6EC2CB;}
	.st99{fill:#020202;}
	.st100{fill:#D32027;}
	.st101{fill:#D4A160;}
	.st102{fill:#D6E4F4;}
	.st103{fill:#D7D7D7;}
	.st104{fill:#D88080;}
	.st105{opacity:0.4;clip-path:url(#SVGID_7_);fill:url(#SVGID_8_);}
	.st106{fill-rule:evenodd;clip-rule:evenodd;fill:#CDCCCB;}
	.st107{fill:#A07238;}
	.st108{fill:#A2D4DE;}
	.st109{fill:#A3D4AA;}
	.st110{fill:#74C59C;}
	.st111{fill-rule:evenodd;clip-rule:evenodd;fill:#357180;}
	.st112{fill:#A4A5A4;}
	.st113{fill:#A5B6B9;}
	.st114{fill:#DAC425;}
	.st115{fill:#DBF0F5;}
	.st116{fill:#0EA24A;}
	.st117{fill:#DDDDDC;}
	.st118{fill:#DDDFDF;}
	.st119{fill:#40BCA3;}
	.st120{fill:#43A0AA;}
]]>
</style>
<g>
	<g>
		<g>
			<circle class="st94" cx="68.417" cy="68.416" r="63.333"/>
		</g>
	</g>
	<g>
		<g>
			<path class="st47" d="M102.589,105.474c0,5.959-4.832,10.792-10.792,10.792H46.832c-5.96,0-10.792-4.832-10.792-10.792V35.328
				c0-5.959,4.832-10.792,10.792-10.792h44.965c5.96,0,10.792,4.832,10.792,10.792V105.474z"/>
			<path class="st20" d="M52.413,106.684c0,0.822-0.665,1.488-1.487,1.488h-6.202c-0.822,0-1.489-0.666-1.489-1.488v-6.196
				c0-0.823,0.667-1.489,1.489-1.489h6.202c0.822,0,1.487,0.667,1.487,1.489V106.684z"/>
			<path class="st20" d="M63.115,106.684c0,0.822-0.665,1.488-1.486,1.488h-6.203c-0.822,0-1.489-0.666-1.489-1.488v-6.196
				c0-0.823,0.667-1.489,1.489-1.489h6.203c0.821,0,1.486,0.667,1.486,1.489V106.684z"/>
			<path class="st20" d="M73.817,106.684c0,0.822-0.665,1.488-1.486,1.488h-6.203c-0.821,0-1.489-0.666-1.489-1.488v-6.196
				c0-0.823,0.668-1.489,1.489-1.489h6.203c0.821,0,1.486,0.667,1.486,1.489V106.684z"/>
			<path class="st20" d="M52.413,95.981c0,0.822-0.665,1.488-1.487,1.488h-6.202c-0.822,0-1.489-0.667-1.489-1.488v-6.196
				c0-0.822,0.667-1.488,1.489-1.488h6.202c0.822,0,1.487,0.667,1.487,1.488V95.981z"/>
			<path class="st20" d="M63.115,95.981c0,0.822-0.665,1.488-1.486,1.488h-6.203c-0.822,0-1.489-0.667-1.489-1.488v-6.196
				c0-0.822,0.667-1.488,1.489-1.488h6.203c0.821,0,1.486,0.667,1.486,1.488V95.981z"/>
			<path class="st20" d="M73.817,95.981c0,0.822-0.665,1.488-1.486,1.488h-6.203c-0.821,0-1.489-0.667-1.489-1.488v-6.196
				c0-0.822,0.668-1.488,1.489-1.488h6.203c0.821,0,1.486,0.667,1.486,1.488V95.981z"/>
			<path class="st20" d="M52.413,85.279c0,0.822-0.665,1.488-1.487,1.488h-6.202c-0.822,0-1.489-0.667-1.489-1.488v-6.196
				c0-0.822,0.667-1.488,1.489-1.488h6.202c0.822,0,1.487,0.667,1.487,1.488V85.279z"/>
			<path class="st20" d="M63.115,85.279c0,0.822-0.665,1.488-1.486,1.488h-6.203c-0.822,0-1.489-0.667-1.489-1.488v-6.196
				c0-0.822,0.667-1.488,1.489-1.488h6.203c0.821,0,1.486,0.667,1.486,1.488V85.279z"/>
			<path class="st20" d="M73.817,85.279c0,0.822-0.665,1.488-1.486,1.488h-6.203c-0.821,0-1.489-0.667-1.489-1.488v-6.196
				c0-0.822,0.668-1.488,1.489-1.488h6.203c0.821,0,1.486,0.667,1.486,1.488V85.279z"/>
			<path class="st20" d="M52.413,74.577c0,0.822-0.665,1.488-1.487,1.488h-6.202c-0.822,0-1.489-0.667-1.489-1.488v-6.196
				c0-0.822,0.667-1.488,1.489-1.488h6.202c0.822,0,1.487,0.667,1.487,1.488V74.577z"/>
			<path class="st20" d="M95.581,58.389c0,0.822-0.666,1.489-1.488,1.489H44.724c-0.822,0-1.489-0.667-1.489-1.489V34.207
				c0-0.822,0.667-1.488,1.489-1.488h49.369c0.822,0,1.488,0.667,1.488,1.488V58.389z"/>
			<path class="st110" d="M93.782,56.144c0,0.765-0.62,1.386-1.386,1.386H46.421c-0.767,0-1.388-0.621-1.388-1.386V36.452
				c0-0.765,0.621-1.386,1.388-1.386h45.976c0.766,0,1.386,0.621,1.386,1.386V56.144z"/>
			<path class="st20" d="M63.115,74.577c0,0.822-0.665,1.488-1.486,1.488h-6.203c-0.822,0-1.489-0.667-1.489-1.488v-6.196
				c0-0.822,0.667-1.488,1.489-1.488h6.203c0.821,0,1.486,0.667,1.486,1.488V74.577z"/>
			<path class="st20" d="M73.817,74.577c0,0.822-0.665,1.488-1.486,1.488h-6.203c-0.821,0-1.489-0.667-1.489-1.488v-6.196
				c0-0.822,0.668-1.488,1.489-1.488h6.203c0.821,0,1.486,0.667,1.486,1.488V74.577z"/>
			<path class="st16" d="M93.914,98.999H83.212h-0.896H77.01c-0.822,0-1.49,0.667-1.49,1.489v6.196c0,0.822,0.668,1.488,1.49,1.488
				h5.307h0.896h10.702c0.821,0,1.488-0.666,1.488-1.488v-6.196C95.402,99.665,94.735,98.999,93.914,98.999z"/>
			<path class="st78" d="M84.699,95.981c0,0.822-0.666,1.488-1.487,1.488H77.01c-0.822,0-1.49-0.667-1.49-1.488v-6.196
				c0-0.822,0.668-1.488,1.49-1.488h6.202c0.821,0,1.487,0.667,1.487,1.488V95.981z"/>
			<path class="st78" d="M95.402,95.981c0,0.822-0.667,1.488-1.488,1.488h-6.203c-0.821,0-1.488-0.667-1.488-1.488v-6.196
				c0-0.822,0.667-1.488,1.488-1.488h6.203c0.821,0,1.488,0.667,1.488,1.488V95.981z"/>
			<path class="st86" d="M84.699,85.279c0,0.822-0.666,1.488-1.487,1.488H77.01c-0.822,0-1.49-0.667-1.49-1.488v-6.196
				c0-0.822,0.668-1.488,1.49-1.488h6.202c0.821,0,1.487,0.667,1.487,1.488V85.279z"/>
			<path class="st86" d="M95.402,85.279c0,0.822-0.667,1.488-1.488,1.488h-6.203c-0.821,0-1.488-0.667-1.488-1.488v-6.196
				c0-0.822,0.667-1.488,1.488-1.488h6.203c0.821,0,1.488,0.667,1.488,1.488V85.279z"/>
			<path class="st18" d="M84.699,74.577c0,0.822-0.666,1.488-1.487,1.488H77.01c-0.822,0-1.49-0.667-1.49-1.488v-6.196
				c0-0.822,0.668-1.488,1.49-1.488h6.202c0.821,0,1.487,0.667,1.487,1.488V74.577z"/>
			<path class="st18" d="M95.402,74.577c0,0.822-0.667,1.488-1.488,1.488h-6.203c-0.821,0-1.488-0.667-1.488-1.488v-6.196
				c0-0.822,0.667-1.488,1.488-1.488h6.203c0.821,0,1.488,0.667,1.488,1.488V74.577z"/>
		</g>
		<g>
			<path class="st27" d="M45.113,56.144V36.452c0-0.765,0.622-1.386,1.388-1.386h20.095L89.061,57.53h-42.56
				C45.735,57.53,45.113,56.909,45.113,56.144z"/>
		</g>
	</g>
</g>
</svg>
