<?xml version="1.0" encoding="utf-8"?>
<!-- Generator: Adobe Illustrator 16.0.0, SVG Export Plug-In . SVG Version: 6.00 Build 0)  -->
<!DOCTYPE svg PUBLIC "-//W3C//DTD SVG 1.1//EN" "http://www.w3.org/Graphics/SVG/1.1/DTD/svg11.dtd">
<svg version="1.1" id="Layer_1" xmlns="http://www.w3.org/2000/svg" xmlns:xlink="http://www.w3.org/1999/xlink" x="0px" y="0px"
	 width="136.833px" height="136.833px" viewBox="0 0 136.833 136.833" style="enable-background:new 0 0 136.833 136.833;"
	 xml:space="preserve">
<style type="text/css">
<![CDATA[
	.st0{fill:#473D2E;}
	.st1{opacity:0.25;fill:#EFEFEF;}
	.st2{fill:#7B6854;}
	.st3{fill:#AAAAAA;}
	.st4{fill:#48B15A;}
	.st5{fill:#49A0AE;}
	.st6{fill:#AD2728;}
	.st7{fill:none;stroke:#888887;stroke-miterlimit:10;}
	.st8{fill-rule:evenodd;clip-rule:evenodd;fill:#3F3F3E;}
	.st9{fill-rule:evenodd;clip-rule:evenodd;fill:#3F7D92;}
	.st10{fill:#AEACAC;}
	.st11{fill:#E58E8F;}
	.st12{fill:#4ABC96;}
	.st13{fill:#E5E65D;}
	.st14{fill:#4B4A4B;}
	.st15{fill:#E6E768;}
	.st16{fill:#E79E2D;}
	.st17{fill:#E7E7E7;}
	.st18{fill:#E84849;}
	.st19{fill:#E8E7E7;}
	.st20{fill:#4E4E4E;}
	.st21{fill:#E9E4B1;}
	.st22{fill:#E9E9EA;}
	.st23{fill:#80702C;}
	.st24{fill:#807F7F;}
	.st25{fill:#818282;}
	.st26{fill:#82725A;}
	.st27{opacity:0.15;}
	.st28{fill:#83CECA;}
	.st29{fill:#B3DCE2;}
	.st30{fill:#1A3940;}
	.st31{fill:#B5B6B6;}
	.st32{fill:#B6E2EB;}
	.st33{fill:#886A29;}
	.st34{fill:#EBEDEF;}
	.st35{fill:#EBF6F9;}
	.st36{fill-rule:evenodd;clip-rule:evenodd;fill:#7D8880;}
	.st37{fill:#B9B9BA;}
	.st38{fill:#EDC92C;}
	.st39{fill:#504A2A;}
	.st40{fill:#EFC849;}
	.st41{fill:#55B966;}
	.st42{fill-rule:evenodd;clip-rule:evenodd;fill:#4B4A4B;}
	.st43{fill:#577D87;}
	.st44{fill:#58595A;}
	.st45{fill:#BBBCBB;}
	.st46{fill-rule:evenodd;clip-rule:evenodd;fill:#E84849;}
	.st47{fill:#202121;}
	.st48{fill:#F06668;}
	.st49{fill:#BFBEBE;}
	.st50{fill-rule:evenodd;clip-rule:evenodd;fill:#82725A;}
	.st51{fill:#231F20;}
	.st52{fill:#F2BE3E;}
	.st53{fill:#F2DE62;}
	.st54{fill:#F2EF8F;}
	.st55{fill:#F4E028;}
	.st56{fill:#5A5B5D;}
	.st57{fill-rule:evenodd;clip-rule:evenodd;fill:#B5B2B3;}
	.st58{opacity:0.4;clip-path:url(#SVGID_4_);fill:url(#SVGID_5_);}
	.st59{fill:#5B4F3F;}
	.st60{fill:#F6A2A3;}
	.st61{fill:#F6F6E7;}
	.st62{fill:#F7D98B;}
	.st63{fill:#5E8492;}
	.st64{fill:#F9F29A;}
	.st65{fill:#969595;}
	.st66{fill:#988534;}
	.st67{fill:#99999A;}
	.st68{fill:#FDF2F7;}
	.st69{fill:#FDF7FA;}
	.st70{fill:#2F6E77;}
	.st71{fill:#2F8442;}
	.st72{fill:#606060;}
	.st73{fill:#60C3B6;}
	.st74{fill-rule:evenodd;clip-rule:evenodd;fill:#F06668;}
	.st75{fill:none;stroke:#818282;stroke-miterlimit:10;}
	.st76{fill:#FFFFFF;}
	.st77{fill:#626463;}
	.st78{fill:#63BD6E;}
	.st79{fill-rule:evenodd;clip-rule:evenodd;fill:#245861;}
	.st80{fill:none;}
	.st81{fill:#9A866F;}
	.st82{clip-path:url(#SVGID_2_);fill:#90B9C0;}
	.st83{fill-rule:evenodd;clip-rule:evenodd;fill:#5B4F3F;}
	.st84{fill:#9B7842;}
	.st85{fill:#67B7C3;}
	.st86{fill:#67B8CB;}
	.st87{fill:#CC2027;}
	.st88{fill:#CDCDCE;}
	.st89{fill:#CE2F2E;}
	.st90{fill:#9F77AA;}
	.st91{opacity:0.7;fill:#FFFFFF;}
	.st92{fill-rule:evenodd;clip-rule:evenodd;fill:#C0BEBF;}
	.st93{fill:#333535;}
	.st94{fill:#357180;}
	.st95{opacity:0.4;clip-path:url(#SVGID_10_);fill:url(#SVGID_11_);}
	.st96{clip-path:url(#SVGID_2_);fill:#FFFFFF;}
	.st97{fill:#6CC077;}
	.st98{fill:#6EC2CB;}
	.st99{fill:#020202;}
	.st100{fill:#D32027;}
	.st101{fill:#D4A160;}
	.st102{fill:#D6E4F4;}
	.st103{fill:#D7D7D7;}
	.st104{fill:#D88080;}
	.st105{opacity:0.4;clip-path:url(#SVGID_7_);fill:url(#SVGID_8_);}
	.st106{fill-rule:evenodd;clip-rule:evenodd;fill:#CDCCCB;}
	.st107{fill:#A07238;}
	.st108{fill:#A2D4DE;}
	.st109{fill:#A3D4AA;}
	.st110{fill:#74C59C;}
	.st111{fill-rule:evenodd;clip-rule:evenodd;fill:#357180;}
	.st112{fill:#A4A5A4;}
	.st113{fill:#A5B6B9;}
	.st114{fill:#DAC425;}
	.st115{fill:#DBF0F5;}
	.st116{fill:#0EA24A;}
	.st117{fill:#DDDDDC;}
	.st118{fill:#DDDFDF;}
	.st119{fill:#40BCA3;}
	.st120{fill:#43A0AA;}
]]>
</style>
<g>
	<g>
		<g>
			<circle class="st12" cx="68.417" cy="68.416" r="63.333"/>
		</g>
	</g>
	<g>
		<g>
			<g>
				<path class="st109" d="M98.742,50.192c0,1.614-1.309,2.921-2.922,2.921H77.562c-1.613,0-2.922-1.308-2.922-2.921V39.604
					c0-1.613,1.309-2.921,2.922-2.921h18.257c1.614,0,2.922,1.308,2.922,2.921V50.192z"/>
				<path class="st109" d="M107.11,84.201c0,5.249-4.255,9.504-9.504,9.504H38.208c-5.25,0-9.505-4.255-9.505-9.504v-34.45
					c0-5.249,4.255-9.504,9.505-9.504h59.398c5.249,0,9.504,4.255,9.504,9.504V84.201z"/>
			</g>
			<g>
				
					<rect x="81.963" y="38.076" transform="matrix(0.7072 -0.707 0.707 0.7072 -8.9218 73.9479)" class="st27" width="5.709" height="19.339"/>
				<g>
					<path class="st60" d="M80.921,51.678c0,1.613-1.309,2.921-2.922,2.921H59.742c-1.614,0-2.922-1.308-2.922-2.921V41.089
						c0-1.613,1.309-2.922,2.922-2.922h18.257c1.613,0,2.922,1.309,2.922,2.922V51.678z"/>
				</g>
				<path class="st60" d="M107.11,86.28c0,5.249-4.255,9.504-9.504,9.504H38.208c-5.25,0-9.505-4.255-9.505-9.504V51.829
					c0-5.248,4.255-9.504,9.505-9.504h59.398c5.249,0,9.504,4.256,9.504,9.504V86.28z"/>
			</g>
			
				<rect x="63.614" y="39.793" transform="matrix(0.7072 -0.707 0.707 0.7072 -15.5088 61.4721)" class="st27" width="5.709" height="19.338"/>
			<g>
				<path class="st64" d="M63.101,53.855c0,1.613-1.309,2.922-2.922,2.922H41.921c-1.613,0-2.922-1.309-2.922-2.922V43.267
					c0-1.613,1.309-2.921,2.922-2.921h18.257c1.614,0,2.922,1.309,2.922,2.921V53.855z"/>
				<path class="st64" d="M107.11,98.16H28.703V54.206c0-5.248,4.255-9.504,9.505-9.504h59.398c5.249,0,9.504,4.256,9.504,9.504
					V98.16z"/>
			</g>
		</g>
		<g>
			<g>
				<path class="st107" d="M103.105,103.835c1.001,1.001,1.001,2.627,0,3.628l0,0c-1.003,1.003-2.626,1.003-3.628,0L80.699,88.686
					c-0.999-1-0.999-2.624,0.002-3.627l0,0c1-1.001,2.623-1.001,3.627,0.001L103.105,103.835z"/>
				<path class="st101" d="M103.793,101.327c0.875,0.877,0.06,3.115-1.825,5l0,0c-1.885,1.885-4.124,2.701-4.999,1.824L77.025,88.21
					c-0.876-0.877-0.059-3.116,1.826-5l0,0c1.881-1.885,4.12-2.703,5-1.824L103.793,101.327z"/>
				<circle class="st73" cx="68.564" cy="72.923" r="18.443"/>
				<circle class="st28" cx="70.341" cy="71.835" r="14.489"/>
				<path class="st107" d="M77.859,89.132l2.622,2.623c0,0,5.292-2.394,6.103-7.546l-1.902-1.903h-2.46L77.859,89.132z"/>
				<g>
					<g>
						<path class="st34" d="M54.267,87.22c7.896,7.897,20.699,7.897,28.593,0c7.898-7.898,7.898-20.698,0.002-28.594
							c-7.896-7.896-20.7-7.896-28.596,0C46.369,66.521,46.369,79.322,54.267,87.22z M79.257,62.229
							c5.905,5.904,5.907,15.48,0,21.387c-5.904,5.906-15.482,5.906-21.386,0c-5.907-5.907-5.907-15.483-0.001-21.387
							C63.776,56.321,73.354,56.324,79.257,62.229z"/>
					</g>
				</g>
				<path class="st91" d="M66.585,82.93c0.825,0.378,1.808,0.019,2.188-0.807c0.385-0.828,0.019-1.81-0.804-2.189
					c0,0-0.038-0.016-0.183-0.096c-1.047-0.572-5.492-3.329-6.035-9.158c-0.069-0.707-0.571-1.264-1.22-1.436
					c-0.183-0.047-0.377-0.066-0.58-0.047c-0.906,0.091-1.573,0.894-1.482,1.801C59.354,79.591,66.419,82.845,66.585,82.93z"/>
			</g>
		</g>
	</g>
</g>
</svg>
