<?xml version="1.0" encoding="utf-8"?>
<!-- Generator: Adobe Illustrator 16.0.0, SVG Export Plug-In . SVG Version: 6.00 Build 0)  -->
<!DOCTYPE svg PUBLIC "-//W3C//DTD SVG 1.1//EN" "http://www.w3.org/Graphics/SVG/1.1/DTD/svg11.dtd">
<svg version="1.1" id="Layer_1" xmlns="http://www.w3.org/2000/svg" xmlns:xlink="http://www.w3.org/1999/xlink" x="0px" y="0px"
	 width="136.833px" height="136.834px" viewBox="0 0 136.833 136.834" style="enable-background:new 0 0 136.833 136.834;"
	 xml:space="preserve">
<style type="text/css">
<![CDATA[
	.st0{fill:#473D2E;}
	.st1{opacity:0.25;fill:#EFEFEF;}
	.st2{fill:#7B6854;}
	.st3{fill:#AAAAAA;}
	.st4{fill:#48B15A;}
	.st5{fill:#49A0AE;}
	.st6{fill:#AD2728;}
	.st7{fill:none;stroke:#888887;stroke-miterlimit:10;}
	.st8{fill-rule:evenodd;clip-rule:evenodd;fill:#3F3F3E;}
	.st9{fill-rule:evenodd;clip-rule:evenodd;fill:#3F7D92;}
	.st10{fill:#AEACAC;}
	.st11{fill:#E58E8F;}
	.st12{fill:#4ABC96;}
	.st13{fill:#E5E65D;}
	.st14{fill:#4B4A4B;}
	.st15{fill:#E6E768;}
	.st16{fill:#E79E2D;}
	.st17{fill:#E7E7E7;}
	.st18{fill:#E84849;}
	.st19{fill:#E8E7E7;}
	.st20{fill:#4E4E4E;}
	.st21{fill:#E9E4B1;}
	.st22{fill:#E9E9EA;}
	.st23{fill:#80702C;}
	.st24{fill:#807F7F;}
	.st25{fill:#818282;}
	.st26{fill:#82725A;}
	.st27{opacity:0.15;}
	.st28{fill:#83CECA;}
	.st29{fill:#B3DCE2;}
	.st30{fill:#1A3940;}
	.st31{fill:#B5B6B6;}
	.st32{fill:#B6E2EB;}
	.st33{fill:#886A29;}
	.st34{fill:#EBEDEF;}
	.st35{fill:#EBF6F9;}
	.st36{fill-rule:evenodd;clip-rule:evenodd;fill:#7D8880;}
	.st37{fill:#B9B9BA;}
	.st38{fill:#EDC92C;}
	.st39{fill:#504A2A;}
	.st40{fill:#EFC849;}
	.st41{fill:#55B966;}
	.st42{fill-rule:evenodd;clip-rule:evenodd;fill:#4B4A4B;}
	.st43{fill:#577D87;}
	.st44{fill:#58595A;}
	.st45{fill:#BBBCBB;}
	.st46{fill-rule:evenodd;clip-rule:evenodd;fill:#E84849;}
	.st47{fill:#202121;}
	.st48{fill:#F06668;}
	.st49{fill:#BFBEBE;}
	.st50{fill-rule:evenodd;clip-rule:evenodd;fill:#82725A;}
	.st51{fill:#231F20;}
	.st52{fill:#F2BE3E;}
	.st53{fill:#F2DE62;}
	.st54{fill:#F2EF8F;}
	.st55{fill:#F4E028;}
	.st56{fill:#5A5B5D;}
	.st57{fill-rule:evenodd;clip-rule:evenodd;fill:#B5B2B3;}
	.st58{opacity:0.4;clip-path:url(#SVGID_4_);fill:url(#SVGID_5_);}
	.st59{fill:#5B4F3F;}
	.st60{fill:#F6A2A3;}
	.st61{fill:#F6F6E7;}
	.st62{fill:#F7D98B;}
	.st63{fill:#5E8492;}
	.st64{fill:#F9F29A;}
	.st65{fill:#969595;}
	.st66{fill:#988534;}
	.st67{fill:#99999A;}
	.st68{fill:#FDF2F7;}
	.st69{fill:#FDF7FA;}
	.st70{fill:#2F6E77;}
	.st71{fill:#2F8442;}
	.st72{fill:#606060;}
	.st73{fill:#60C3B6;}
	.st74{fill-rule:evenodd;clip-rule:evenodd;fill:#F06668;}
	.st75{fill:none;stroke:#818282;stroke-miterlimit:10;}
	.st76{fill:#FFFFFF;}
	.st77{fill:#626463;}
	.st78{fill:#63BD6E;}
	.st79{fill-rule:evenodd;clip-rule:evenodd;fill:#245861;}
	.st80{fill:none;}
	.st81{fill:#9A866F;}
	.st82{clip-path:url(#SVGID_2_);fill:#90B9C0;}
	.st83{fill-rule:evenodd;clip-rule:evenodd;fill:#5B4F3F;}
	.st84{fill:#9B7842;}
	.st85{fill:#67B7C3;}
	.st86{fill:#67B8CB;}
	.st87{fill:#CC2027;}
	.st88{fill:#CDCDCE;}
	.st89{fill:#CE2F2E;}
	.st90{fill:#9F77AA;}
	.st91{opacity:0.7;fill:#FFFFFF;}
	.st92{fill-rule:evenodd;clip-rule:evenodd;fill:#C0BEBF;}
	.st93{fill:#333535;}
	.st94{fill:#357180;}
	.st95{opacity:0.4;clip-path:url(#SVGID_10_);fill:url(#SVGID_11_);}
	.st96{clip-path:url(#SVGID_2_);fill:#FFFFFF;}
	.st97{fill:#6CC077;}
	.st98{fill:#6EC2CB;}
	.st99{fill:#020202;}
	.st100{fill:#D32027;}
	.st101{fill:#D4A160;}
	.st102{fill:#D6E4F4;}
	.st103{fill:#D7D7D7;}
	.st104{fill:#D88080;}
	.st105{opacity:0.4;clip-path:url(#SVGID_7_);fill:url(#SVGID_8_);}
	.st106{fill-rule:evenodd;clip-rule:evenodd;fill:#CDCCCB;}
	.st107{fill:#A07238;}
	.st108{fill:#A2D4DE;}
	.st109{fill:#A3D4AA;}
	.st110{fill:#74C59C;}
	.st111{fill-rule:evenodd;clip-rule:evenodd;fill:#357180;}
	.st112{fill:#A4A5A4;}
	.st113{fill:#A5B6B9;}
	.st114{fill:#DAC425;}
	.st115{fill:#DBF0F5;}
	.st116{fill:#0EA24A;}
	.st117{fill:#DDDDDC;}
	.st118{fill:#DDDFDF;}
	.st119{fill:#40BCA3;}
	.st120{fill:#43A0AA;}
]]>
</style>
<g>
	<path class="st40" d="M5.083,68.415c0-34.979,28.355-63.332,63.332-63.332c34.979,0,63.334,28.354,63.334,63.332
		c0,34.98-28.355,63.336-63.334,63.336C33.439,131.751,5.083,103.396,5.083,68.415z"/>
	<g>
		<path class="st40" d="M14.796,102.105c0.992,1.575,2.045,3.106,3.168,4.585v-4.585H14.796z"/>
		<path class="st40" d="M17.964,30.143c-1.354,1.782-2.621,3.634-3.783,5.557h3.783V30.143z"/>
		<path class="st94" d="M39.485,82.946c-0.058-1.919-1.623-3.461-3.555-3.461h-3.94c-1.934,0-3.5,1.542-3.556,3.461h-0.011v25.966
			h11.073V82.946H39.485z"/>
		<path class="st94" d="M57.076,74.247c-0.091-1.89-1.637-3.396-3.548-3.396h-3.94c-1.911,0-3.458,1.506-3.55,3.396h-0.018v34.665
			h11.073V74.247H57.076z"/>
		<path class="st94" d="M74.687,61.922c-0.021-1.951-1.607-3.526-3.562-3.526h-3.941c-1.958,0-3.541,1.575-3.563,3.526h-0.003v0.023
			c0,0.007-0.001,0.011-0.001,0.015c0,0.007,0.001,0.011,0.001,0.017v46.936h11.073v-46.99H74.687z"/>
		<path class="st94" d="M92.295,53.39c0-0.023-0.007-0.042-0.007-0.063v-0.04h-0.002c-0.056-1.921-1.622-3.465-3.556-3.465h-3.94
			c-1.936,0-3.502,1.544-3.556,3.465h-0.017v55.625h11.072V53.449C92.288,53.429,92.295,53.408,92.295,53.39z"/>
		<path class="st94" d="M109.889,43.918c0-0.008-0.003-0.015-0.003-0.022v-0.099h-0.009c-0.066-1.912-1.626-3.444-3.555-3.444h-3.94
			c-1.928,0-3.488,1.532-3.553,3.444h-0.015v65.115h11.072V43.94C109.886,43.934,109.889,43.925,109.889,43.918z"/>
		<path class="st76" d="M13.55,35.699v1.098c0.211-0.366,0.413-0.737,0.631-1.098H13.55z"/>
		<path class="st76" d="M109.886,108.912H98.813h-6.525H81.216h-6.525H63.618h-6.525H46.021h-6.525H28.423h-7.127V26.109
			c-1.165,1.297-2.276,2.643-3.332,4.033v5.557h-3.783c-0.218,0.36-0.42,0.731-0.631,1.098v2.404h4.414v6.979H13.55v3.507h4.414
			v6.978H13.55v3.503h4.414v6.981H13.55v3.504h4.414v6.977H13.55v3.508h4.414v6.979H13.55v3.506h4.414v6.98H13.55v1.433
			c0.403,0.698,0.817,1.39,1.246,2.07h3.168v4.585c1.476,1.941,3.066,3.79,4.751,5.547h5.603v4.412h3.504v-4.412h6.979v4.412h3.504
			v-4.412h6.973v4.412h3.512v-4.412h6.974v4.412h3.503v-4.412h6.98v4.412h3.503v-4.412h6.98v4.412h3.501v-4.412h6.984v4.412h3.503
			v-4.412h6.978v4.412h3.506v-4.412h8.914c1.032-1.075,2.034-2.179,2.988-3.325H109.886z"/>
	</g>
</g>
</svg>
