<?xml version="1.0" encoding="utf-8"?>
<!-- Generator: Adobe Illustrator 16.0.0, SVG Export Plug-In . SVG Version: 6.00 Build 0)  -->
<!DOCTYPE svg PUBLIC "-//W3C//DTD SVG 1.1//EN" "http://www.w3.org/Graphics/SVG/1.1/DTD/svg11.dtd">
<svg version="1.1" id="Layer_1" xmlns="http://www.w3.org/2000/svg" xmlns:xlink="http://www.w3.org/1999/xlink" x="0px" y="0px"
	 width="136.833px" height="136.834px" viewBox="0 0 136.833 136.834" style="enable-background:new 0 0 136.833 136.834;"
	 xml:space="preserve">
<style type="text/css">
<![CDATA[
	.st0{fill:#473D2E;}
	.st1{opacity:0.25;fill:#EFEFEF;}
	.st2{fill:#7B6854;}
	.st3{fill:#AAAAAA;}
	.st4{fill:#48B15A;}
	.st5{fill:#49A0AE;}
	.st6{fill:#AD2728;}
	.st7{fill:none;stroke:#888887;stroke-miterlimit:10;}
	.st8{fill-rule:evenodd;clip-rule:evenodd;fill:#3F3F3E;}
	.st9{fill-rule:evenodd;clip-rule:evenodd;fill:#3F7D92;}
	.st10{fill:#AEACAC;}
	.st11{fill:#E58E8F;}
	.st12{fill:#4ABC96;}
	.st13{fill:#E5E65D;}
	.st14{fill:#4B4A4B;}
	.st15{fill:#E6E768;}
	.st16{fill:#E79E2D;}
	.st17{fill:#E7E7E7;}
	.st18{fill:#E84849;}
	.st19{fill:#E8E7E7;}
	.st20{fill:#4E4E4E;}
	.st21{fill:#E9E4B1;}
	.st22{fill:#E9E9EA;}
	.st23{fill:#80702C;}
	.st24{fill:#807F7F;}
	.st25{fill:#818282;}
	.st26{fill:#82725A;}
	.st27{opacity:0.15;}
	.st28{fill:#83CECA;}
	.st29{fill:#B3DCE2;}
	.st30{fill:#1A3940;}
	.st31{fill:#B5B6B6;}
	.st32{fill:#B6E2EB;}
	.st33{fill:#886A29;}
	.st34{fill:#EBEDEF;}
	.st35{fill:#EBF6F9;}
	.st36{fill-rule:evenodd;clip-rule:evenodd;fill:#7D8880;}
	.st37{fill:#B9B9BA;}
	.st38{fill:#EDC92C;}
	.st39{fill:#504A2A;}
	.st40{fill:#EFC849;}
	.st41{fill:#55B966;}
	.st42{fill-rule:evenodd;clip-rule:evenodd;fill:#4B4A4B;}
	.st43{fill:#577D87;}
	.st44{fill:#58595A;}
	.st45{fill:#BBBCBB;}
	.st46{fill-rule:evenodd;clip-rule:evenodd;fill:#E84849;}
	.st47{fill:#202121;}
	.st48{fill:#F06668;}
	.st49{fill:#BFBEBE;}
	.st50{fill-rule:evenodd;clip-rule:evenodd;fill:#82725A;}
	.st51{fill:#231F20;}
	.st52{fill:#F2BE3E;}
	.st53{fill:#F2DE62;}
	.st54{fill:#F2EF8F;}
	.st55{fill:#F4E028;}
	.st56{fill:#5A5B5D;}
	.st57{fill-rule:evenodd;clip-rule:evenodd;fill:#B5B2B3;}
	.st58{opacity:0.4;clip-path:url(#SVGID_4_);fill:url(#SVGID_5_);}
	.st59{fill:#5B4F3F;}
	.st60{fill:#F6A2A3;}
	.st61{fill:#F6F6E7;}
	.st62{fill:#F7D98B;}
	.st63{fill:#5E8492;}
	.st64{fill:#F9F29A;}
	.st65{fill:#969595;}
	.st66{fill:#988534;}
	.st67{fill:#99999A;}
	.st68{fill:#FDF2F7;}
	.st69{fill:#FDF7FA;}
	.st70{fill:#2F6E77;}
	.st71{fill:#2F8442;}
	.st72{fill:#606060;}
	.st73{fill:#60C3B6;}
	.st74{fill-rule:evenodd;clip-rule:evenodd;fill:#F06668;}
	.st75{fill:none;stroke:#818282;stroke-miterlimit:10;}
	.st76{fill:#FFFFFF;}
	.st77{fill:#626463;}
	.st78{fill:#63BD6E;}
	.st79{fill-rule:evenodd;clip-rule:evenodd;fill:#245861;}
	.st80{fill:none;}
	.st81{fill:#9A866F;}
	.st82{clip-path:url(#SVGID_2_);fill:#90B9C0;}
	.st83{fill-rule:evenodd;clip-rule:evenodd;fill:#5B4F3F;}
	.st84{fill:#9B7842;}
	.st85{fill:#67B7C3;}
	.st86{fill:#67B8CB;}
	.st87{fill:#CC2027;}
	.st88{fill:#CDCDCE;}
	.st89{fill:#CE2F2E;}
	.st90{fill:#9F77AA;}
	.st91{opacity:0.7;fill:#FFFFFF;}
	.st92{fill-rule:evenodd;clip-rule:evenodd;fill:#C0BEBF;}
	.st93{fill:#333535;}
	.st94{fill:#357180;}
	.st95{opacity:0.4;clip-path:url(#SVGID_10_);fill:url(#SVGID_11_);}
	.st96{clip-path:url(#SVGID_2_);fill:#FFFFFF;}
	.st97{fill:#6CC077;}
	.st98{fill:#6EC2CB;}
	.st99{fill:#020202;}
	.st100{fill:#D32027;}
	.st101{fill:#D4A160;}
	.st102{fill:#D6E4F4;}
	.st103{fill:#D7D7D7;}
	.st104{fill:#D88080;}
	.st105{opacity:0.4;clip-path:url(#SVGID_7_);fill:url(#SVGID_8_);}
	.st106{fill-rule:evenodd;clip-rule:evenodd;fill:#CDCCCB;}
	.st107{fill:#A07238;}
	.st108{fill:#A2D4DE;}
	.st109{fill:#A3D4AA;}
	.st110{fill:#74C59C;}
	.st111{fill-rule:evenodd;clip-rule:evenodd;fill:#357180;}
	.st112{fill:#A4A5A4;}
	.st113{fill:#A5B6B9;}
	.st114{fill:#DAC425;}
	.st115{fill:#DBF0F5;}
	.st116{fill:#0EA24A;}
	.st117{fill:#DDDDDC;}
	.st118{fill:#DDDFDF;}
	.st119{fill:#40BCA3;}
	.st120{fill:#43A0AA;}
]]>
</style>
<g>
	<g>
		<g>
			<circle class="st32" cx="68.417" cy="68.416" r="63.333"/>
		</g>
	</g>
	<g>
		<path class="st49" d="M75.484,52.503h7.124c0.699,0,1.268-0.568,1.268-1.267V35.364c0-0.702-0.568-1.268-1.268-1.268h-7.124
			c-0.699,0-1.266,0.565-1.266,1.268v15.872C74.219,51.935,74.786,52.503,75.484,52.503z M88.069,31.36H51.254
			c0,0-3.365,24.465,1.191,24.465h34.625C91.625,55.825,88.069,31.36,88.069,31.36z"/>
		<path class="st94" d="M75.484,52.503h7.124c0.699,0,1.268-0.568,1.268-1.267V35.364c0-0.702-0.568-1.268-1.268-1.268h-7.124
			c-0.699,0-1.266,0.565-1.266,1.268v15.872C74.219,51.935,74.786,52.503,75.484,52.503z M93.9,31.36h-5.831v21.25
			c0,1.753-1.42,3.173-3.174,3.173H54.424c-1.75,0-3.17-1.42-3.17-3.173V31.36h-8.702c-4.557,0-8.247,3.693-8.247,8.247v51.669
			c0,4.556,3.689,8.247,8.247,8.247h52.764c4.554,0,8.245-3.691,8.245-8.247V41.02L93.9,31.36z"/>
		<path class="st70" d="M92.623,71.471L92.623,71.471c0,0-0.178,0-42.416,0c-1.481,0.09-2.077,0.677-2.541,1.392
			c-0.441,0.722-0.563,1.623-0.583,1.945c-0.008,0.091-0.003,0.111-0.003,0.111v20.229c0,0.613-0.5,1.108-1.109,1.108
			c-0.613,0-1.114-0.495-1.114-1.108V74.919c0.005-0.091-0.005-1.312,0.631-2.682c0.597-1.37,2.114-2.906,4.623-2.983h0.015h0.034
			c42.286-0.004,42.464-0.004,42.464-0.004v0.004c0.614,0,1.109,0.495,1.109,1.111C93.732,70.976,93.237,71.471,92.623,71.471z"/>
		<g>
			<defs>
				<path id="SVGID_3_" d="M88.069,31.36v21.25c0,1.753-1.42,3.173-3.174,3.173H54.424c-1.75,0-3.17-1.42-3.17-3.173V31.36"/>
			</defs>
			<clipPath id="SVGID_2_">
				<use xlink:href="#SVGID_3_"  style="overflow:visible;"/>
			</clipPath>
			
				<linearGradient id="SVGID_4_" gradientUnits="userSpaceOnUse" x1="136.5684" y1="94.8594" x2="177.9629" y2="94.8594" gradientTransform="matrix(1.2129 -0.3209 0.1787 1.2419 -130.1479 -18.4147)">
				<stop  offset="0" style="stop-color:#959397"/>
				<stop  offset="0.2344" style="stop-color:#A6A4AA"/>
				<stop  offset="0.7312" style="stop-color:#C4C2CC"/>
				<stop  offset="1" style="stop-color:#D0CED9"/>
			</linearGradient>
			<polygon style="opacity:0.4;clip-path:url(#SVGID_2_);fill:url(#SVGID_4_);" points="75.591,76.125 53.281,61.359 79.509,21.726 
				101.821,36.494 			"/>
		</g>
	</g>
</g>
</svg>
