<?xml version="1.0" encoding="utf-8"?>
<!-- Generator: Adobe Illustrator 16.0.0, SVG Export Plug-In . SVG Version: 6.00 Build 0)  -->
<!DOCTYPE svg PUBLIC "-//W3C//DTD SVG 1.1//EN" "http://www.w3.org/Graphics/SVG/1.1/DTD/svg11.dtd">
<svg version="1.1" id="Layer_1" xmlns="http://www.w3.org/2000/svg" xmlns:xlink="http://www.w3.org/1999/xlink" x="0px" y="0px"
	 width="136.833px" height="136.834px" viewBox="0 0 136.833 136.834" style="enable-background:new 0 0 136.833 136.834;"
	 xml:space="preserve">
<style type="text/css">
<![CDATA[
	.st0{fill:#473D2E;}
	.st1{opacity:0.25;fill:#EFEFEF;}
	.st2{fill:#7B6854;}
	.st3{fill:#AAAAAA;}
	.st4{fill:#48B15A;}
	.st5{fill:#49A0AE;}
	.st6{fill:#AD2728;}
	.st7{fill:none;stroke:#888887;stroke-miterlimit:10;}
	.st8{fill-rule:evenodd;clip-rule:evenodd;fill:#3F3F3E;}
	.st9{fill-rule:evenodd;clip-rule:evenodd;fill:#3F7D92;}
	.st10{fill:#AEACAC;}
	.st11{fill:#E58E8F;}
	.st12{fill:#4ABC96;}
	.st13{fill:#E5E65D;}
	.st14{fill:#4B4A4B;}
	.st15{fill:#E6E768;}
	.st16{fill:#E79E2D;}
	.st17{fill:#E7E7E7;}
	.st18{fill:#E84849;}
	.st19{fill:#E8E7E7;}
	.st20{fill:#4E4E4E;}
	.st21{fill:#E9E4B1;}
	.st22{fill:#E9E9EA;}
	.st23{fill:#80702C;}
	.st24{fill:#807F7F;}
	.st25{fill:#818282;}
	.st26{fill:#82725A;}
	.st27{opacity:0.15;}
	.st28{fill:#83CECA;}
	.st29{fill:#B3DCE2;}
	.st30{fill:#1A3940;}
	.st31{fill:#B5B6B6;}
	.st32{fill:#B6E2EB;}
	.st33{fill:#886A29;}
	.st34{fill:#EBEDEF;}
	.st35{fill:#EBF6F9;}
	.st36{fill-rule:evenodd;clip-rule:evenodd;fill:#7D8880;}
	.st37{fill:#B9B9BA;}
	.st38{fill:#EDC92C;}
	.st39{fill:#504A2A;}
	.st40{fill:#EFC849;}
	.st41{fill:#55B966;}
	.st42{fill-rule:evenodd;clip-rule:evenodd;fill:#4B4A4B;}
	.st43{fill:#577D87;}
	.st44{fill:#58595A;}
	.st45{fill:#BBBCBB;}
	.st46{fill-rule:evenodd;clip-rule:evenodd;fill:#E84849;}
	.st47{fill:#202121;}
	.st48{fill:#F06668;}
	.st49{fill:#BFBEBE;}
	.st50{fill-rule:evenodd;clip-rule:evenodd;fill:#82725A;}
	.st51{fill:#231F20;}
	.st52{fill:#F2BE3E;}
	.st53{fill:#F2DE62;}
	.st54{fill:#F2EF8F;}
	.st55{fill:#F4E028;}
	.st56{fill:#5A5B5D;}
	.st57{fill-rule:evenodd;clip-rule:evenodd;fill:#B5B2B3;}
	.st58{opacity:0.4;clip-path:url(#SVGID_4_);fill:url(#SVGID_5_);}
	.st59{fill:#5B4F3F;}
	.st60{fill:#F6A2A3;}
	.st61{fill:#F6F6E7;}
	.st62{fill:#F7D98B;}
	.st63{fill:#5E8492;}
	.st64{fill:#F9F29A;}
	.st65{fill:#969595;}
	.st66{fill:#988534;}
	.st67{fill:#99999A;}
	.st68{fill:#FDF2F7;}
	.st69{fill:#FDF7FA;}
	.st70{fill:#2F6E77;}
	.st71{fill:#2F8442;}
	.st72{fill:#606060;}
	.st73{fill:#60C3B6;}
	.st74{fill-rule:evenodd;clip-rule:evenodd;fill:#F06668;}
	.st75{fill:none;stroke:#818282;stroke-miterlimit:10;}
	.st76{fill:#FFFFFF;}
	.st77{fill:#626463;}
	.st78{fill:#63BD6E;}
	.st79{fill-rule:evenodd;clip-rule:evenodd;fill:#245861;}
	.st80{fill:none;}
	.st81{fill:#9A866F;}
	.st82{clip-path:url(#SVGID_2_);fill:#90B9C0;}
	.st83{fill-rule:evenodd;clip-rule:evenodd;fill:#5B4F3F;}
	.st84{fill:#9B7842;}
	.st85{fill:#67B7C3;}
	.st86{fill:#67B8CB;}
	.st87{fill:#CC2027;}
	.st88{fill:#CDCDCE;}
	.st89{fill:#CE2F2E;}
	.st90{fill:#9F77AA;}
	.st91{opacity:0.7;fill:#FFFFFF;}
	.st92{fill-rule:evenodd;clip-rule:evenodd;fill:#C0BEBF;}
	.st93{fill:#333535;}
	.st94{fill:#357180;}
	.st95{opacity:0.4;clip-path:url(#SVGID_10_);fill:url(#SVGID_11_);}
	.st96{clip-path:url(#SVGID_2_);fill:#FFFFFF;}
	.st97{fill:#6CC077;}
	.st98{fill:#6EC2CB;}
	.st99{fill:#020202;}
	.st100{fill:#D32027;}
	.st101{fill:#D4A160;}
	.st102{fill:#D6E4F4;}
	.st103{fill:#D7D7D7;}
	.st104{fill:#D88080;}
	.st105{opacity:0.4;clip-path:url(#SVGID_7_);fill:url(#SVGID_8_);}
	.st106{fill-rule:evenodd;clip-rule:evenodd;fill:#CDCCCB;}
	.st107{fill:#A07238;}
	.st108{fill:#A2D4DE;}
	.st109{fill:#A3D4AA;}
	.st110{fill:#74C59C;}
	.st111{fill-rule:evenodd;clip-rule:evenodd;fill:#357180;}
	.st112{fill:#A4A5A4;}
	.st113{fill:#A5B6B9;}
	.st114{fill:#DAC425;}
	.st115{fill:#DBF0F5;}
	.st116{fill:#0EA24A;}
	.st117{fill:#DDDDDC;}
	.st118{fill:#DDDFDF;}
	.st119{fill:#40BCA3;}
	.st120{fill:#43A0AA;}
]]>
</style>
<g>
	<g>
		<g>
			<circle class="st94" cx="68.417" cy="68.416" r="63.333"/>
		</g>
	</g>
	<g>
		<g>
			
				<rect x="37.845" y="28.978" transform="matrix(0.1577 0.9875 -0.9875 0.1577 123.9409 -7.8785)" class="st35" width="57.488" height="79.469"/>
			<g>
				<polygon class="st115" points="108.178,88.122 33.811,100.363 25.382,48.704 99.749,36.463 				"/>
				<g>
					<path class="st97" d="M105.824,79.023l-11.72-8.404c0,0-3.494-3.24-6.147-2.649c-2.388,0.535-4.706,4.015-5.144,4.702
						l-3.928-2.818c0,0-4.097-3.802-7.206-3.105c-3.109,0.695-6.138,5.684-6.138,5.684L64.68,73.63l-7.395-5.306
						c0,0-5.033-4.671-8.853-3.817c-3.821,0.854-7.545,6.988-7.545,6.988L31.96,83.938l2.563,15.519l72.688-11.967L105.824,79.023z"
						/>
					<path class="st86" d="M69.214,54.88c-0.004-0.085,0.041-0.166,0.024-0.252c-0.219-1.324-1.826-2.16-3.589-1.871
						c-0.232,0.039-0.426,0.137-0.641,0.208c-0.643-0.616-1.689-0.951-2.844-0.761c-1.495,0.246-2.549,1.254-2.655,2.36
						c-1.404,0.526-2.34,1.652-2.146,2.831c0.183,1.115,1.308,1.874,2.699,1.994c0.621,0.944,1.982,1.485,3.489,1.238
						c1.366-0.225,2.423-1.027,2.825-1.986c0.372,0.06,0.765,0.066,1.174-0.002c1.566-0.256,2.678-1.418,2.487-2.595
						C69.958,55.562,69.633,55.178,69.214,54.88z"/>
					<path class="st86" d="M84.643,55.432c-0.021-0.059-0.069-0.104-0.078-0.163c-0.154-0.939,0.738-1.872,1.99-2.077
						c0.166-0.028,0.319-0.006,0.477-0.006c0.293-0.563,0.924-1.027,1.74-1.161c1.065-0.177,2.003,0.263,2.328,0.983
						c1.065,0.036,1.951,0.58,2.088,1.418c0.131,0.793-0.456,1.559-1.36,1.958c-0.202,0.774-0.998,1.45-2.067,1.626
						c-0.971,0.16-1.866-0.141-2.355-0.691c-0.237,0.123-0.501,0.217-0.79,0.265c-1.114,0.184-2.127-0.345-2.264-1.181
						C84.291,56.061,84.422,55.729,84.643,55.432z"/>
				</g>
			</g>
		</g>
		<g>
			<path class="st99" d="M76.244,65.97c0-0.933-0.415-1.687-0.926-1.687h-3.887c-0.511,0-0.926,0.754-0.926,1.687
				s0.415,1.688,0.926,1.688h3.887C75.829,67.657,76.244,66.902,76.244,65.97"/>
			<path class="st51" d="M115.654,71.665c0-1.634-1.324-2.957-2.955-2.957H70.647c-1.632,0-2.955,1.323-2.955,2.957V93.65
				c0,1.631,1.323,2.955,2.955,2.955h42.052c1.631,0,2.955-1.324,2.955-2.955V71.665z"/>
			<path class="st51" d="M88.339,69.569c0-1.982-1.34-3.593-2.991-3.593H70.684c-1.653,0-2.992,1.61-2.992,3.593v8.536
				c0,1.984,1.338,3.592,2.992,3.592h14.664c1.651,0,2.991-1.607,2.991-3.592V69.569z"/>
			<path class="st99" d="M106.399,82.584c0-8.133-6.593-14.727-14.727-14.727c-8.132,0-14.727,6.594-14.727,14.727
				c0,8.134,6.595,14.728,14.727,14.728C99.806,97.312,106.399,90.718,106.399,82.584"/>
			<path class="st51" d="M105.652,82.586c0-7.722-6.258-13.98-13.978-13.98s-13.979,6.259-13.979,13.98
				c0,7.719,6.259,13.979,13.979,13.979S105.652,90.305,105.652,82.586"/>
			<path class="st65" d="M104.903,82.584c0-7.306-5.923-13.23-13.229-13.23c-7.307,0-13.23,5.925-13.23,13.23
				c0,7.308,5.923,13.23,13.23,13.23C98.98,95.814,104.903,89.892,104.903,82.584"/>
			<path class="st51" d="M104.308,82.586c0-6.979-5.658-12.634-12.635-12.634S79.04,75.606,79.04,82.586
				c0,6.977,5.656,12.632,12.633,12.632S104.308,89.563,104.308,82.586"/>
			<path class="st99" d="M103.37,82.584c0-6.413-5.199-11.611-11.612-11.611c-6.412,0-11.611,5.198-11.611,11.611
				s5.199,11.612,11.611,11.612C98.17,94.196,103.37,88.997,103.37,82.584"/>
			<path class="st51" d="M102.78,82.584c0-6.086-4.935-11.021-11.022-11.021c-6.086,0-11.021,4.935-11.021,11.021
				c0,6.088,4.935,11.021,11.021,11.021C97.846,93.605,102.78,88.672,102.78,82.584"/>
			<path class="st56" d="M102.189,82.584c0-5.761-4.67-10.431-10.432-10.431c-5.761,0-10.43,4.67-10.43,10.431
				c0,5.762,4.669,10.431,10.43,10.431C97.52,93.015,102.189,88.346,102.189,82.584"/>
			<path class="st51" d="M101.719,82.584c0-5.501-4.459-9.961-9.961-9.961c-5.501,0-9.96,4.46-9.96,9.961s4.459,9.962,9.96,9.962
				C97.26,92.546,101.719,88.085,101.719,82.584"/>
			<path class="st113" d="M100.396,82.584c0-4.771-3.868-8.637-8.639-8.637c-4.77,0-8.637,3.866-8.637,8.637
				c0,4.77,3.867,8.639,8.637,8.639C96.528,91.223,100.396,87.354,100.396,82.584"/>
			<path class="st76" d="M92.979,79.683c0,2.29-1.857,4.146-4.146,4.146c-2.291,0-4.146-1.856-4.146-4.146
				c0-2.289,1.855-4.146,4.146-4.146C91.123,75.537,92.979,77.394,92.979,79.683"/>
			<path class="st86" d="M70.348,67.657c-0.598,0-1.081,0.484-1.081,1.08v0.813v0.061l1.954-1.953H70.348z"/>
			<path class="st86" d="M78.699,68.737c0-0.596-0.483-1.08-1.081-1.08h-1.419l-6.177,6.176c0.104,0.033,0.211,0.056,0.326,0.056
				h5.124l3.227-3.226V68.737z"/>
			<path class="st102" d="M71.221,67.657l-1.954,1.953v0.801v2.396c0,0.483,0.318,0.887,0.755,1.025l6.177-6.176H71.221z"/>
			<path class="st102" d="M78.699,72.808v-2.145l-3.227,3.226h2.146C78.215,73.889,78.699,73.405,78.699,72.808"/>
		</g>
	</g>
</g>
</svg>
