<?xml version="1.0" encoding="utf-8"?>
<!-- Generator: Adobe Illustrator 16.0.0, SVG Export Plug-In . SVG Version: 6.00 Build 0)  -->
<!DOCTYPE svg PUBLIC "-//W3C//DTD SVG 1.1//EN" "http://www.w3.org/Graphics/SVG/1.1/DTD/svg11.dtd">
<svg version="1.1" id="Layer_1" xmlns="http://www.w3.org/2000/svg" xmlns:xlink="http://www.w3.org/1999/xlink" x="0px" y="0px"
	 width="136.833px" height="136.834px" viewBox="0 0 136.833 136.834" style="enable-background:new 0 0 136.833 136.834;"
	 xml:space="preserve">
<style type="text/css">
<![CDATA[
	.st0{fill:#473D2E;}
	.st1{opacity:0.25;fill:#EFEFEF;}
	.st2{fill:#7B6854;}
	.st3{fill:#AAAAAA;}
	.st4{fill:#48B15A;}
	.st5{fill:#49A0AE;}
	.st6{fill:#AD2728;}
	.st7{fill:none;stroke:#888887;stroke-miterlimit:10;}
	.st8{fill-rule:evenodd;clip-rule:evenodd;fill:#3F3F3E;}
	.st9{fill-rule:evenodd;clip-rule:evenodd;fill:#3F7D92;}
	.st10{fill:#AEACAC;}
	.st11{fill:#E58E8F;}
	.st12{fill:#4ABC96;}
	.st13{fill:#E5E65D;}
	.st14{fill:#4B4A4B;}
	.st15{fill:#E6E768;}
	.st16{fill:#E79E2D;}
	.st17{fill:#E7E7E7;}
	.st18{fill:#E84849;}
	.st19{fill:#E8E7E7;}
	.st20{fill:#4E4E4E;}
	.st21{fill:#E9E4B1;}
	.st22{fill:#E9E9EA;}
	.st23{fill:#80702C;}
	.st24{fill:#807F7F;}
	.st25{fill:#818282;}
	.st26{fill:#82725A;}
	.st27{opacity:0.15;}
	.st28{fill:#83CECA;}
	.st29{fill:#B3DCE2;}
	.st30{fill:#1A3940;}
	.st31{fill:#B5B6B6;}
	.st32{fill:#B6E2EB;}
	.st33{fill:#886A29;}
	.st34{fill:#EBEDEF;}
	.st35{fill:#EBF6F9;}
	.st36{fill-rule:evenodd;clip-rule:evenodd;fill:#7D8880;}
	.st37{fill:#B9B9BA;}
	.st38{fill:#EDC92C;}
	.st39{fill:#504A2A;}
	.st40{fill:#EFC849;}
	.st41{fill:#55B966;}
	.st42{fill-rule:evenodd;clip-rule:evenodd;fill:#4B4A4B;}
	.st43{fill:#577D87;}
	.st44{fill:#58595A;}
	.st45{fill:#BBBCBB;}
	.st46{fill-rule:evenodd;clip-rule:evenodd;fill:#E84849;}
	.st47{fill:#202121;}
	.st48{fill:#F06668;}
	.st49{fill:#BFBEBE;}
	.st50{fill-rule:evenodd;clip-rule:evenodd;fill:#82725A;}
	.st51{fill:#231F20;}
	.st52{fill:#F2BE3E;}
	.st53{fill:#F2DE62;}
	.st54{fill:#F2EF8F;}
	.st55{fill:#F4E028;}
	.st56{fill:#5A5B5D;}
	.st57{fill-rule:evenodd;clip-rule:evenodd;fill:#B5B2B3;}
	.st58{opacity:0.4;clip-path:url(#SVGID_4_);fill:url(#SVGID_5_);}
	.st59{fill:#5B4F3F;}
	.st60{fill:#F6A2A3;}
	.st61{fill:#F6F6E7;}
	.st62{fill:#F7D98B;}
	.st63{fill:#5E8492;}
	.st64{fill:#F9F29A;}
	.st65{fill:#969595;}
	.st66{fill:#988534;}
	.st67{fill:#99999A;}
	.st68{fill:#FDF2F7;}
	.st69{fill:#FDF7FA;}
	.st70{fill:#2F6E77;}
	.st71{fill:#2F8442;}
	.st72{fill:#606060;}
	.st73{fill:#60C3B6;}
	.st74{fill-rule:evenodd;clip-rule:evenodd;fill:#F06668;}
	.st75{fill:none;stroke:#818282;stroke-miterlimit:10;}
	.st76{fill:#FFFFFF;}
	.st77{fill:#626463;}
	.st78{fill:#63BD6E;}
	.st79{fill-rule:evenodd;clip-rule:evenodd;fill:#245861;}
	.st80{fill:none;}
	.st81{fill:#9A866F;}
	.st82{clip-path:url(#SVGID_2_);fill:#90B9C0;}
	.st83{fill-rule:evenodd;clip-rule:evenodd;fill:#5B4F3F;}
	.st84{fill:#9B7842;}
	.st85{fill:#67B7C3;}
	.st86{fill:#67B8CB;}
	.st87{fill:#CC2027;}
	.st88{fill:#CDCDCE;}
	.st89{fill:#CE2F2E;}
	.st90{fill:#9F77AA;}
	.st91{opacity:0.7;fill:#FFFFFF;}
	.st92{fill-rule:evenodd;clip-rule:evenodd;fill:#C0BEBF;}
	.st93{fill:#333535;}
	.st94{fill:#357180;}
	.st95{opacity:0.4;clip-path:url(#SVGID_10_);fill:url(#SVGID_11_);}
	.st96{clip-path:url(#SVGID_2_);fill:#FFFFFF;}
	.st97{fill:#6CC077;}
	.st98{fill:#6EC2CB;}
	.st99{fill:#020202;}
	.st100{fill:#D32027;}
	.st101{fill:#D4A160;}
	.st102{fill:#D6E4F4;}
	.st103{fill:#D7D7D7;}
	.st104{fill:#D88080;}
	.st105{opacity:0.4;clip-path:url(#SVGID_7_);fill:url(#SVGID_8_);}
	.st106{fill-rule:evenodd;clip-rule:evenodd;fill:#CDCCCB;}
	.st107{fill:#A07238;}
	.st108{fill:#A2D4DE;}
	.st109{fill:#A3D4AA;}
	.st110{fill:#74C59C;}
	.st111{fill-rule:evenodd;clip-rule:evenodd;fill:#357180;}
	.st112{fill:#A4A5A4;}
	.st113{fill:#A5B6B9;}
	.st114{fill:#DAC425;}
	.st115{fill:#DBF0F5;}
	.st116{fill:#0EA24A;}
	.st117{fill:#DDDDDC;}
	.st118{fill:#DDDFDF;}
	.st119{fill:#40BCA3;}
	.st120{fill:#43A0AA;}
]]>
</style>
<g>
	<g>
		<g>
			<circle class="st29" cx="68.417" cy="68.416" r="63.333"/>
		</g>
	</g>
	<g>
		<g>
			<rect x="22.915" y="97.574" class="st16" width="76.187" height="4.519"/>
			<polygon class="st52" points="99.102,97.716 22.915,97.716 36.474,84.521 112.659,84.521 			"/>
			<polygon class="st16" points="99.102,97.716 99.062,102.074 112.619,88.878 112.659,84.521 			"/>
		</g>
		<g>
			<g>
				<polygon class="st48" points="50.287,41.867 50.287,39.219 49.619,39.221 33.946,47.127 38.13,47.126 48.62,41.867 				"/>
				<polygon class="st76" points="60.443,41.863 48.678,41.863 38.13,47.146 50.563,47.146 				"/>
				<polygon class="st48" points="65.822,38.837 50.644,47.126 50.645,94.551 65.823,84.729 				"/>
				<rect x="33.792" y="47.126" class="st60" width="16.853" height="47.425"/>
				<polygon class="st60" points="65.874,38.837 65.407,38.871 49.288,47.126 50.637,47.113 				"/>
				<polygon class="st60" points="49.619,39.221 33.792,47.126 35.142,47.127 50.274,39.219 				"/>
			</g>
			<g>
				<polygon class="st11" points="50.002,41.851 50.29,41.851 50.29,39.219 49.987,39.386 				"/>
				<polygon class="st11" points="50.002,41.851 50.29,41.851 50.29,39.219 49.987,39.386 				"/>
				<polygon class="st11" points="50.002,41.851 50.29,41.851 50.29,39.219 49.987,39.386 				"/>
			</g>
			<polygon class="st104" points="50.287,39.219 34.875,47.127 35.747,47.127 49.979,39.807 			"/>
			<g>
				<polygon class="st117" points="40.893,47.131 40.056,47.131 49.377,41.895 50.334,41.896 				"/>
			</g>
			<g>
				<polygon class="st117" points="44.221,47.131 43.385,47.131 52.707,41.895 53.664,41.896 				"/>
			</g>
			<g>
				<polygon class="st117" points="47.672,47.131 46.836,47.131 56.156,41.895 57.113,41.896 				"/>
			</g>
			<rect x="35.142" y="49.311" class="st48" width="14.164" height="8.717"/>
			<rect x="36.308" y="50.401" class="st76" width="11.832" height="6.538"/>
			<circle class="st48" cx="41.921" cy="67.107" r="4.357"/>
			<circle class="st60" cx="41.921" cy="67.107" r="3.713"/>
			<circle class="st48" cx="41.921" cy="82.119" r="4.357"/>
			<circle class="st60" cx="41.921" cy="82.119" r="3.713"/>
		</g>
		<g>
			<g>
				<polygon class="st94" points="71.593,31.213 71.594,28.566 70.926,28.567 55.252,36.475 59.437,36.473 69.927,31.213 				"/>
				<polygon class="st76" points="81.75,31.211 69.984,31.211 59.437,36.493 71.868,36.494 				"/>
				<polygon class="st94" points="87.129,28.184 71.949,36.473 71.95,93.583 87.129,83.759 				"/>
				<rect x="55.099" y="36.473" class="st86" width="16.852" height="57.109"/>
				<polygon class="st86" points="87.18,28.184 86.713,28.218 70.594,36.473 71.944,36.46 				"/>
				<polygon class="st86" points="70.926,28.567 55.099,36.473 56.448,36.475 71.58,28.566 				"/>
			</g>
			<g>
				<polygon class="st11" points="71.309,31.198 71.596,31.198 71.596,28.566 71.293,28.732 				"/>
				<polygon class="st11" points="71.309,31.198 71.596,31.198 71.596,28.566 71.293,28.732 				"/>
				<polygon class="st85" points="71.309,31.198 71.596,31.198 71.596,28.566 71.293,28.732 				"/>
			</g>
			<polygon class="st120" points="71.594,28.566 56.181,36.475 57.053,36.475 71.284,29.153 			"/>
			<g>
				<polygon class="st117" points="62.198,36.478 61.362,36.478 70.684,31.241 71.641,31.243 				"/>
			</g>
			<g>
				<polygon class="st117" points="65.527,36.478 64.692,36.478 74.014,31.241 74.971,31.243 				"/>
			</g>
			<g>
				<polygon class="st117" points="68.978,36.478 68.143,36.478 77.463,31.241 78.42,31.243 				"/>
			</g>
			<rect x="56.448" y="38.658" class="st94" width="14.164" height="8.716"/>
			<rect x="57.613" y="39.749" class="st76" width="11.834" height="6.536"/>
			<circle class="st94" cx="63.227" cy="60.005" r="4.358"/>
			<circle class="st94" cx="63.227" cy="78.406" r="4.358"/>
		</g>
		<polygon class="st27" points="106.082,84.54 97.729,93.028 83.188,93.519 91.683,84.466 		"/>
		<g>
			<g>
				<polygon class="st71" points="86.008,45.594 85.617,43.664 85.129,43.764 74.866,51.843 77.919,51.226 84.792,45.841 				"/>
				<polygon class="st76" points="93.414,44.092 84.833,45.83 77.921,51.239 86.988,49.404 				"/>
				<polygon class="st71" points="96.89,41.09 87.045,49.377 95.48,91.029 105.099,81.624 				"/>
				
					<rect x="63.868" y="65.177" transform="matrix(-0.1985 -0.9801 0.9801 -0.1985 31.9859 169.0524)" class="st97" width="42.498" height="12.542"/>
				<polygon class="st97" points="96.927,41.083 96.593,41.176 86.055,49.578 87.037,49.368 				"/>
				<polygon class="st97" points="85.129,43.764 74.753,51.866 75.738,51.667 85.606,43.665 				"/>
			</g>
			<g>
				<polygon class="st11" points="85.798,45.625 86.008,45.582 85.618,43.663 85.422,43.828 				"/>
				<polygon class="st11" points="85.798,45.625 86.008,45.582 85.618,43.663 85.422,43.828 				"/>
				<polygon class="st97" points="85.798,45.625 86.008,45.582 85.618,43.663 85.422,43.828 				"/>
			</g>
			<polygon class="st4" points="85.617,43.664 75.544,51.708 76.181,51.578 85.479,44.138 			"/>
			<g>
				<polygon class="st117" points="79.933,50.821 79.323,50.945 85.349,45.749 86.046,45.608 				"/>
			</g>
			<g>
				<polygon class="st117" points="82.36,50.33 81.751,50.453 87.776,45.257 88.475,45.117 				"/>
			</g>
			<g>
				<polygon class="st117" points="84.877,49.82 84.268,49.943 90.293,44.749 90.99,44.606 				"/>
			</g>
			
				<rect x="76.6" y="52.15" transform="matrix(0.9801 -0.1985 0.1985 0.9801 -9.3652 17.3505)" class="st71" width="10.54" height="6.486"/>
			
				<rect x="77.468" y="52.961" transform="matrix(0.9801 -0.1985 0.1985 0.9801 -9.3646 17.349)" class="st76" width="8.806" height="4.865"/>
			<circle class="st71" cx="84.158" cy="67.828" r="3.243"/>
			<circle class="st71" cx="86.875" cy="81.249" r="3.243"/>
		</g>
	</g>
</g>
</svg>
