<?xml version="1.0" encoding="utf-8"?>
<!-- Generator: Adobe Illustrator 16.0.0, SVG Export Plug-In . SVG Version: 6.00 Build 0)  -->
<!DOCTYPE svg PUBLIC "-//W3C//DTD SVG 1.1//EN" "http://www.w3.org/Graphics/SVG/1.1/DTD/svg11.dtd">
<svg version="1.1" id="Layer_1" xmlns="http://www.w3.org/2000/svg" xmlns:xlink="http://www.w3.org/1999/xlink" x="0px" y="0px"
	 width="136.833px" height="136.834px" viewBox="0 0 136.833 136.834" style="enable-background:new 0 0 136.833 136.834;"
	 xml:space="preserve">
<style type="text/css">
<![CDATA[
	.st0{fill:#473D2E;}
	.st1{opacity:0.25;fill:#EFEFEF;}
	.st2{fill:#7B6854;}
	.st3{fill:#AAAAAA;}
	.st4{fill:#48B15A;}
	.st5{fill:#49A0AE;}
	.st6{fill:#AD2728;}
	.st7{fill:none;stroke:#888887;stroke-miterlimit:10;}
	.st8{fill-rule:evenodd;clip-rule:evenodd;fill:#3F3F3E;}
	.st9{fill-rule:evenodd;clip-rule:evenodd;fill:#3F7D92;}
	.st10{fill:#AEACAC;}
	.st11{fill:#E58E8F;}
	.st12{fill:#4ABC96;}
	.st13{fill:#E5E65D;}
	.st14{fill:#4B4A4B;}
	.st15{fill:#E6E768;}
	.st16{fill:#E79E2D;}
	.st17{fill:#E7E7E7;}
	.st18{fill:#E84849;}
	.st19{fill:#E8E7E7;}
	.st20{fill:#4E4E4E;}
	.st21{fill:#E9E4B1;}
	.st22{fill:#E9E9EA;}
	.st23{fill:#80702C;}
	.st24{fill:#807F7F;}
	.st25{fill:#818282;}
	.st26{fill:#82725A;}
	.st27{opacity:0.15;}
	.st28{fill:#83CECA;}
	.st29{fill:#B3DCE2;}
	.st30{fill:#1A3940;}
	.st31{fill:#B5B6B6;}
	.st32{fill:#B6E2EB;}
	.st33{fill:#886A29;}
	.st34{fill:#EBEDEF;}
	.st35{fill:#EBF6F9;}
	.st36{fill-rule:evenodd;clip-rule:evenodd;fill:#7D8880;}
	.st37{fill:#B9B9BA;}
	.st38{fill:#EDC92C;}
	.st39{fill:#504A2A;}
	.st40{fill:#EFC849;}
	.st41{fill:#55B966;}
	.st42{fill-rule:evenodd;clip-rule:evenodd;fill:#4B4A4B;}
	.st43{fill:#577D87;}
	.st44{fill:#58595A;}
	.st45{fill:#BBBCBB;}
	.st46{fill-rule:evenodd;clip-rule:evenodd;fill:#E84849;}
	.st47{fill:#202121;}
	.st48{fill:#F06668;}
	.st49{fill:#BFBEBE;}
	.st50{fill-rule:evenodd;clip-rule:evenodd;fill:#82725A;}
	.st51{fill:#231F20;}
	.st52{fill:#F2BE3E;}
	.st53{fill:#F2DE62;}
	.st54{fill:#F2EF8F;}
	.st55{fill:#F4E028;}
	.st56{fill:#5A5B5D;}
	.st57{fill-rule:evenodd;clip-rule:evenodd;fill:#B5B2B3;}
	.st58{opacity:0.4;clip-path:url(#SVGID_4_);fill:url(#SVGID_5_);}
	.st59{fill:#5B4F3F;}
	.st60{fill:#F6A2A3;}
	.st61{fill:#F6F6E7;}
	.st62{fill:#F7D98B;}
	.st63{fill:#5E8492;}
	.st64{fill:#F9F29A;}
	.st65{fill:#969595;}
	.st66{fill:#988534;}
	.st67{fill:#99999A;}
	.st68{fill:#FDF2F7;}
	.st69{fill:#FDF7FA;}
	.st70{fill:#2F6E77;}
	.st71{fill:#2F8442;}
	.st72{fill:#606060;}
	.st73{fill:#60C3B6;}
	.st74{fill-rule:evenodd;clip-rule:evenodd;fill:#F06668;}
	.st75{fill:none;stroke:#818282;stroke-miterlimit:10;}
	.st76{fill:#FFFFFF;}
	.st77{fill:#626463;}
	.st78{fill:#63BD6E;}
	.st79{fill-rule:evenodd;clip-rule:evenodd;fill:#245861;}
	.st80{fill:none;}
	.st81{fill:#9A866F;}
	.st82{clip-path:url(#SVGID_2_);fill:#90B9C0;}
	.st83{fill-rule:evenodd;clip-rule:evenodd;fill:#5B4F3F;}
	.st84{fill:#9B7842;}
	.st85{fill:#67B7C3;}
	.st86{fill:#67B8CB;}
	.st87{fill:#CC2027;}
	.st88{fill:#CDCDCE;}
	.st89{fill:#CE2F2E;}
	.st90{fill:#9F77AA;}
	.st91{opacity:0.7;fill:#FFFFFF;}
	.st92{fill-rule:evenodd;clip-rule:evenodd;fill:#C0BEBF;}
	.st93{fill:#333535;}
	.st94{fill:#357180;}
	.st95{opacity:0.4;clip-path:url(#SVGID_10_);fill:url(#SVGID_11_);}
	.st96{clip-path:url(#SVGID_2_);fill:#FFFFFF;}
	.st97{fill:#6CC077;}
	.st98{fill:#6EC2CB;}
	.st99{fill:#020202;}
	.st100{fill:#D32027;}
	.st101{fill:#D4A160;}
	.st102{fill:#D6E4F4;}
	.st103{fill:#D7D7D7;}
	.st104{fill:#D88080;}
	.st105{opacity:0.4;clip-path:url(#SVGID_7_);fill:url(#SVGID_8_);}
	.st106{fill-rule:evenodd;clip-rule:evenodd;fill:#CDCCCB;}
	.st107{fill:#A07238;}
	.st108{fill:#A2D4DE;}
	.st109{fill:#A3D4AA;}
	.st110{fill:#74C59C;}
	.st111{fill-rule:evenodd;clip-rule:evenodd;fill:#357180;}
	.st112{fill:#A4A5A4;}
	.st113{fill:#A5B6B9;}
	.st114{fill:#DAC425;}
	.st115{fill:#DBF0F5;}
	.st116{fill:#0EA24A;}
	.st117{fill:#DDDDDC;}
	.st118{fill:#DDDFDF;}
	.st119{fill:#40BCA3;}
	.st120{fill:#43A0AA;}
]]>
</style>
<g>
	<g>
		<circle class="st32" cx="68.417" cy="68.416" r="63.333"/>
	</g>
	<g>
		<path class="st49" d="M74.064,51.734h7.124c0.699,0,1.268-0.569,1.268-1.269v-15.87c0-0.703-0.568-1.269-1.268-1.269h-7.124
			c-0.699,0-1.265,0.565-1.265,1.269v15.87C72.8,51.165,73.365,51.734,74.064,51.734z M86.649,30.592H49.835
			c0,0-3.366,24.465,1.191,24.465h34.625C90.205,55.057,86.649,30.592,86.649,30.592z"/>
		<path class="st94" d="M74.064,51.734h7.124c0.699,0,1.268-0.569,1.268-1.269v-15.87c0-0.703-0.568-1.269-1.268-1.269h-7.124
			c-0.699,0-1.265,0.565-1.265,1.269v15.87C72.8,51.165,73.365,51.734,74.064,51.734z M92.48,30.592h-5.831v21.25
			c0,1.752-1.42,3.173-3.174,3.173H53.005c-1.75,0-3.17-1.421-3.17-3.173v-21.25h-8.703c-4.557,0-8.246,3.692-8.246,8.247v51.669
			c0,4.556,3.689,8.246,8.246,8.246h52.765c4.554,0,8.245-3.69,8.245-8.246V40.25L92.48,30.592z"/>
		<path class="st70" d="M91.203,70.702L91.203,70.702c0,0-0.178,0-42.415,0c-1.481,0.09-2.078,0.676-2.542,1.391
			c-0.441,0.722-0.563,1.624-0.582,1.945c-0.009,0.09-0.004,0.111-0.004,0.111v20.23c0,0.612-0.5,1.108-1.109,1.108
			c-0.613,0-1.114-0.496-1.114-1.108v-20.23c0.005-0.09-0.005-1.311,0.631-2.682c0.598-1.37,2.115-2.906,4.624-2.983h0.014h0.034
			c42.286-0.003,42.464-0.003,42.464-0.003v0.003c0.614,0,1.11,0.496,1.11,1.111C92.313,70.206,91.817,70.702,91.203,70.702z"/>
		<g>
			<defs>
				<path id="SVGID_9_" d="M86.649,30.592v21.25c0,1.752-1.42,3.173-3.174,3.173H53.005c-1.75,0-3.17-1.421-3.17-3.173v-21.25"/>
			</defs>
			<clipPath id="SVGID_2_">
				<use xlink:href="#SVGID_9_"  style="overflow:visible;"/>
			</clipPath>
			
				<linearGradient id="SVGID_4_" gradientUnits="userSpaceOnUse" x1="71.0527" y1="158.2793" x2="112.4463" y2="158.2793" gradientTransform="matrix(1.2129 -0.3209 0.1787 1.2419 -63.4354 -118.9693)">
				<stop  offset="0" style="stop-color:#959397"/>
				<stop  offset="0.2344" style="stop-color:#A6A4AA"/>
				<stop  offset="0.7312" style="stop-color:#C4C2CC"/>
				<stop  offset="1" style="stop-color:#D0CED9"/>
			</linearGradient>
			<polygon style="opacity:0.4;clip-path:url(#SVGID_2_);fill:url(#SVGID_4_);" points="74.172,75.355 51.862,60.591 78.09,20.957 
				100.402,35.726 			"/>
		</g>
		<g>
			<circle class="st18" cx="91.555" cy="92.377" r="16.284"/>
			<g>
				<rect x="83.421" y="90.092" class="st76" width="17.314" height="4.98"/>
			</g>
		</g>
	</g>
</g>
</svg>
