<?xml version="1.0" encoding="utf-8"?>
<!-- Generator: Adobe Illustrator 16.0.0, SVG Export Plug-In . SVG Version: 6.00 Build 0)  -->
<!DOCTYPE svg PUBLIC "-//W3C//DTD SVG 1.1//EN" "http://www.w3.org/Graphics/SVG/1.1/DTD/svg11.dtd">
<svg version="1.1" id="Layer_1" xmlns="http://www.w3.org/2000/svg" xmlns:xlink="http://www.w3.org/1999/xlink" x="0px" y="0px"
	 width="136.833px" height="136.833px" viewBox="0 0 136.833 136.833" style="enable-background:new 0 0 136.833 136.833;"
	 xml:space="preserve">
<style type="text/css">
<![CDATA[
	.st0{fill:#473D2E;}
	.st1{opacity:0.25;fill:#EFEFEF;}
	.st2{fill:#7B6854;}
	.st3{fill:#AAAAAA;}
	.st4{fill:#48B15A;}
	.st5{fill:#49A0AE;}
	.st6{fill:#AD2728;}
	.st7{fill:none;stroke:#888887;stroke-miterlimit:10;}
	.st8{fill-rule:evenodd;clip-rule:evenodd;fill:#3F3F3E;}
	.st9{fill-rule:evenodd;clip-rule:evenodd;fill:#3F7D92;}
	.st10{fill:#AEACAC;}
	.st11{fill:#E58E8F;}
	.st12{fill:#4ABC96;}
	.st13{fill:#E5E65D;}
	.st14{fill:#4B4A4B;}
	.st15{fill:#E6E768;}
	.st16{fill:#E79E2D;}
	.st17{fill:#E7E7E7;}
	.st18{fill:#E84849;}
	.st19{fill:#E8E7E7;}
	.st20{fill:#4E4E4E;}
	.st21{fill:#E9E4B1;}
	.st22{fill:#E9E9EA;}
	.st23{fill:#80702C;}
	.st24{fill:#807F7F;}
	.st25{fill:#818282;}
	.st26{fill:#82725A;}
	.st27{opacity:0.15;}
	.st28{fill:#83CECA;}
	.st29{fill:#B3DCE2;}
	.st30{fill:#1A3940;}
	.st31{fill:#B5B6B6;}
	.st32{fill:#B6E2EB;}
	.st33{fill:#886A29;}
	.st34{fill:#EBEDEF;}
	.st35{fill:#EBF6F9;}
	.st36{fill-rule:evenodd;clip-rule:evenodd;fill:#7D8880;}
	.st37{fill:#B9B9BA;}
	.st38{fill:#EDC92C;}
	.st39{fill:#504A2A;}
	.st40{fill:#EFC849;}
	.st41{fill:#55B966;}
	.st42{fill-rule:evenodd;clip-rule:evenodd;fill:#4B4A4B;}
	.st43{fill:#577D87;}
	.st44{fill:#58595A;}
	.st45{fill:#BBBCBB;}
	.st46{fill-rule:evenodd;clip-rule:evenodd;fill:#E84849;}
	.st47{fill:#202121;}
	.st48{fill:#F06668;}
	.st49{fill:#BFBEBE;}
	.st50{fill-rule:evenodd;clip-rule:evenodd;fill:#82725A;}
	.st51{fill:#231F20;}
	.st52{fill:#F2BE3E;}
	.st53{fill:#F2DE62;}
	.st54{fill:#F2EF8F;}
	.st55{fill:#F4E028;}
	.st56{fill:#5A5B5D;}
	.st57{fill-rule:evenodd;clip-rule:evenodd;fill:#B5B2B3;}
	.st58{opacity:0.4;clip-path:url(#SVGID_4_);fill:url(#SVGID_5_);}
	.st59{fill:#5B4F3F;}
	.st60{fill:#F6A2A3;}
	.st61{fill:#F6F6E7;}
	.st62{fill:#F7D98B;}
	.st63{fill:#5E8492;}
	.st64{fill:#F9F29A;}
	.st65{fill:#969595;}
	.st66{fill:#988534;}
	.st67{fill:#99999A;}
	.st68{fill:#FDF2F7;}
	.st69{fill:#FDF7FA;}
	.st70{fill:#2F6E77;}
	.st71{fill:#2F8442;}
	.st72{fill:#606060;}
	.st73{fill:#60C3B6;}
	.st74{fill-rule:evenodd;clip-rule:evenodd;fill:#F06668;}
	.st75{fill:none;stroke:#818282;stroke-miterlimit:10;}
	.st76{fill:#FFFFFF;}
	.st77{fill:#626463;}
	.st78{fill:#63BD6E;}
	.st79{fill-rule:evenodd;clip-rule:evenodd;fill:#245861;}
	.st80{fill:none;}
	.st81{fill:#9A866F;}
	.st82{clip-path:url(#SVGID_2_);fill:#90B9C0;}
	.st83{fill-rule:evenodd;clip-rule:evenodd;fill:#5B4F3F;}
	.st84{fill:#9B7842;}
	.st85{fill:#67B7C3;}
	.st86{fill:#67B8CB;}
	.st87{fill:#CC2027;}
	.st88{fill:#CDCDCE;}
	.st89{fill:#CE2F2E;}
	.st90{fill:#9F77AA;}
	.st91{opacity:0.7;fill:#FFFFFF;}
	.st92{fill-rule:evenodd;clip-rule:evenodd;fill:#C0BEBF;}
	.st93{fill:#333535;}
	.st94{fill:#357180;}
	.st95{opacity:0.4;clip-path:url(#SVGID_10_);fill:url(#SVGID_11_);}
	.st96{clip-path:url(#SVGID_2_);fill:#FFFFFF;}
	.st97{fill:#6CC077;}
	.st98{fill:#6EC2CB;}
	.st99{fill:#020202;}
	.st100{fill:#D32027;}
	.st101{fill:#D4A160;}
	.st102{fill:#D6E4F4;}
	.st103{fill:#D7D7D7;}
	.st104{fill:#D88080;}
	.st105{opacity:0.4;clip-path:url(#SVGID_7_);fill:url(#SVGID_8_);}
	.st106{fill-rule:evenodd;clip-rule:evenodd;fill:#CDCCCB;}
	.st107{fill:#A07238;}
	.st108{fill:#A2D4DE;}
	.st109{fill:#A3D4AA;}
	.st110{fill:#74C59C;}
	.st111{fill-rule:evenodd;clip-rule:evenodd;fill:#357180;}
	.st112{fill:#A4A5A4;}
	.st113{fill:#A5B6B9;}
	.st114{fill:#DAC425;}
	.st115{fill:#DBF0F5;}
	.st116{fill:#0EA24A;}
	.st117{fill:#DDDDDC;}
	.st118{fill:#DDDFDF;}
	.st119{fill:#40BCA3;}
	.st120{fill:#43A0AA;}
]]>
</style>
<g>
	<g>
		<g>
			<circle class="st12" cx="68.417" cy="68.416" r="63.333"/>
		</g>
	</g>
	<g>
		<g>
			<g>
				<path class="st109" d="M98.123,52.313c0,1.614-1.309,2.922-2.922,2.922H76.943c-1.613,0-2.922-1.309-2.922-2.922V41.724
					c0-1.613,1.309-2.921,2.922-2.921H95.2c1.614,0,2.922,1.308,2.922,2.921V52.313z"/>
				<path class="st109" d="M106.491,86.321c0,5.25-4.255,9.504-9.504,9.504H37.588c-5.249,0-9.504-4.254-9.504-9.504V51.87
					c0-5.248,4.255-9.504,9.504-9.504h59.398c5.249,0,9.504,4.256,9.504,9.504V86.321z"/>
			</g>
			<g>
				
					<rect x="81.343" y="40.196" transform="matrix(0.7071 -0.7071 0.7071 0.7071 -10.5992 74.1422)" class="st27" width="5.709" height="19.339"/>
				<g>
					<path class="st60" d="M80.301,53.798c0,1.613-1.309,2.922-2.922,2.922H59.123c-1.613,0-2.922-1.309-2.922-2.922V43.209
						c0-1.613,1.309-2.921,2.922-2.921h18.256c1.613,0,2.922,1.308,2.922,2.921V53.798z"/>
				</g>
				<path class="st60" d="M106.491,88.4c0,5.249-4.255,9.504-9.504,9.504H37.588c-5.249,0-9.504-4.255-9.504-9.504V53.95
					c0-5.249,4.255-9.504,9.504-9.504h59.398c5.249,0,9.504,4.255,9.504,9.504V88.4z"/>
			</g>
			
				<rect x="62.994" y="41.912" transform="matrix(0.7071 -0.7071 0.7071 0.7071 -17.1875 61.6648)" class="st27" width="5.71" height="19.339"/>
			<g>
				<path class="st64" d="M62.481,55.977c0,1.613-1.309,2.921-2.922,2.921H41.302c-1.613,0-2.922-1.308-2.922-2.921v-10.59
					c0-1.613,1.309-2.921,2.922-2.921h18.257c1.613,0,2.922,1.308,2.922,2.921V55.977z"/>
				<path class="st64" d="M106.491,100.28H28.084V56.326c0-5.249,4.255-9.504,9.504-9.504h32.617h26.782
					c5.249,0,9.504,4.255,9.504,9.504V100.28z"/>
			</g>
		</g>
		<g>
			<g>
				<g>
					<path class="st33" d="M77.552,76.491l2.707-0.012l0.003,1.01l-2.708,0.012L77.552,76.491z"/>
					<path class="st33" d="M80.141,77.501l2.708-0.012l0.001,1.01l-2.707,0.011L80.141,77.501z"/>
					<path class="st33" d="M77.552,78.47l2.707-0.013l0.003,1.01l-2.708,0.012L77.552,78.47z"/>
					<path class="st33" d="M80.141,79.479l2.708-0.012l0.001,1.01l-2.707,0.012L80.141,79.479z"/>
					<path class="st33" d="M77.552,80.405l2.707-0.012l0.003,1.01l-2.708,0.011L77.552,80.405z"/>
					<path class="st33" d="M80.141,81.415l2.708-0.011l0.001,1.01l-2.707,0.012L80.141,81.415z"/>
				</g>
				<g>
					<path class="st33" d="M77.552,82.299l2.707-0.012l0.003,1.01l-2.708,0.011L77.552,82.299z"/>
					<path class="st33" d="M80.141,83.309l2.708-0.011l0.001,1.009l-2.707,0.012L80.141,83.309z"/>
					<path class="st33" d="M77.552,84.277l2.707-0.012l0.003,1.011l-2.708,0.011L77.552,84.277z"/>
					<path class="st33" d="M80.141,85.286l2.708-0.011l0.001,1.009l-2.707,0.012L80.141,85.286z"/>
					<path class="st33" d="M77.552,86.212l2.707-0.011l0.003,1.009l-2.708,0.012L77.552,86.212z"/>
					<path class="st33" d="M80.141,87.222l2.708-0.012l0.001,1.011l-2.707,0.011L80.141,87.222z"/>
				</g>
				<g>
					<path class="st33" d="M77.552,88.106l2.707-0.011l0.003,1.009l-2.708,0.012L77.552,88.106z"/>
					<path class="st33" d="M80.141,89.116l2.708-0.012l0.001,1.01l-2.707,0.012L80.141,89.116z"/>
					<path class="st33" d="M77.552,90.084l2.707-0.011l0.003,1.009l-2.708,0.012L77.552,90.084z"/>
					<path class="st33" d="M80.141,91.094l2.708-0.012l0.001,1.01l-2.707,0.012L80.141,91.094z"/>
					<path class="st33" d="M77.552,92.02l2.707-0.012l0.003,1.01l-2.708,0.012L77.552,92.02z"/>
					<path class="st33" d="M80.141,93.03l2.708-0.012l0.001,1.01l-2.707,0.011L80.141,93.03z"/>
				</g>
				<g>
					<path class="st33" d="M77.552,93.977l2.707-0.011l0.003,1.009l-2.708,0.012L77.552,93.977z"/>
					<path class="st33" d="M80.141,94.986l2.708-0.012l0.001,1.01l-2.707,0.012L80.141,94.986z"/>
					<path class="st33" d="M77.552,95.954l2.707-0.011l0.003,1.009l-2.708,0.012L77.552,95.954z"/>
					<path class="st33" d="M80.141,96.964l2.708-0.012l0.001,1.011l-2.707,0.011L80.141,96.964z"/>
					<path class="st33" d="M77.552,97.89l2.707-0.011l0.003,1.01L77.554,98.9L77.552,97.89z"/>
					<path class="st33" d="M80.141,98.9l2.708-0.011l0.001,1.009l-2.707,0.011L80.141,98.9z"/>
				</g>
				<g>
					<path class="st33" d="M77.552,99.91l2.707-0.011l-0.022,0.375l-2.684,0.016V99.91z"/>
				</g>
			</g>
			<polygon class="st60" points="81.436,60.658 78.995,60.658 65.698,46.677 94.815,46.677 			"/>
			<g>
				<path class="st33" d="M76.06,59.668l1.906-1.922l0.715,0.713l-1.904,1.923L76.06,59.668z"/>
				<path class="st33" d="M74.797,58.153l1.904-1.922l0.717,0.712l-1.904,1.922L74.797,58.153z"/>
				<path class="st33" d="M73.452,56.89l1.904-1.921l0.717,0.712l-1.906,1.922L73.452,56.89z"/>
				<path class="st33" d="M72.103,55.544l1.905-1.922l0.717,0.713l-1.906,1.922L72.103,55.544z"/>
				<path class="st33" d="M70.841,54.029l1.905-1.922l0.717,0.713l-1.906,1.922L70.841,54.029z"/>
				<path class="st33" d="M69.495,52.766l1.905-1.921l0.717,0.712l-1.906,1.923L69.495,52.766z"/>
				<path class="st33" d="M68.147,51.42l1.904-1.923l0.716,0.713l-1.903,1.923L68.147,51.42z"/>
				<path class="st33" d="M66.885,49.904l1.905-1.921l0.715,0.712l-1.904,1.922L66.885,49.904z"/>
				<path class="st33" d="M65.54,48.643l1.819-1.803l0.205-0.001l0.597,0.595l-1.905,1.922L65.54,48.643z"/>
				<path class="st33" d="M64.275,47.379l0.566-0.571l1.411,0.013l-1.26,1.271L64.275,47.379z"/>
			</g>
			<g>
				<path class="st33" d="M83.416,60.382l-1.906-1.923l0.716-0.713l1.906,1.922L83.416,60.382z"/>
				<path class="st33" d="M84.678,58.865l-1.906-1.922l0.716-0.712l1.905,1.922L84.678,58.865z"/>
				<path class="st33" d="M86.024,57.603l-1.904-1.922l0.714-0.712l1.906,1.921L86.024,57.603z"/>
				<path class="st33" d="M87.371,56.257l-1.905-1.922l0.716-0.713l1.906,1.922L87.371,56.257z"/>
				<path class="st33" d="M88.634,54.742l-1.904-1.922l0.714-0.713l1.905,1.922L88.634,54.742z"/>
				<path class="st33" d="M89.981,53.48l-1.906-1.923l0.715-0.712l1.904,1.921L89.981,53.48z"/>
				<path class="st33" d="M91.329,52.133l-1.907-1.923l0.717-0.713l1.905,1.923L91.329,52.133z"/>
				<path class="st33" d="M92.591,50.617l-1.905-1.922l0.715-0.712l1.905,1.921L92.591,50.617z"/>
				<path class="st33" d="M93.937,49.355l-1.905-1.922l0.599-0.595l0.203,0.001l1.819,1.803L93.937,49.355z"/>
				<path class="st33" d="M95.199,48.093l-1.26-1.271l1.411-0.013l0.565,0.571L95.199,48.093z"/>
			</g>
			<path class="st39" d="M82.802,64.668l0.51-3.751l-2.21-2.135h-1.898l-2.212,2.135l0.516,3.759v6.919
				c-0.019,0.185-0.028,0.392-0.028,0.649v2.77c0,0.257,0.009,0.464,0.028,0.649v0.044h0.003c0.088,0.843,0.426,0.982,1.623,0.982
				h2.021c1.195,0,1.535-0.14,1.624-0.982h0.025V75.29c0.001-0.091,0.005-0.173,0.005-0.275v-2.77c0-0.102-0.004-0.185-0.005-0.275
				V64.668z M81.882,74.533c0,0.968-0.119,1.095-1.081,1.095h-1.317c-0.96,0-1.081-0.126-1.081-1.095v-1.807
				c0-0.968,0.121-1.095,1.081-1.095h1.317c0.962,0,1.081,0.126,1.081,1.095V74.533z"/>
		</g>
	</g>
</g>
</svg>
