<?xml version="1.0" encoding="utf-8"?>
<!-- Generator: Adobe Illustrator 16.0.0, SVG Export Plug-In . SVG Version: 6.00 Build 0)  -->
<!DOCTYPE svg PUBLIC "-//W3C//DTD SVG 1.1//EN" "http://www.w3.org/Graphics/SVG/1.1/DTD/svg11.dtd">
<svg version="1.1" id="Layer_1" xmlns="http://www.w3.org/2000/svg" xmlns:xlink="http://www.w3.org/1999/xlink" x="0px" y="0px"
	 width="136.833px" height="136.834px" viewBox="0 0 136.833 136.834" style="enable-background:new 0 0 136.833 136.834;"
	 xml:space="preserve">
<style type="text/css">
<![CDATA[
	.st0{fill:#473D2E;}
	.st1{opacity:0.25;fill:#EFEFEF;}
	.st2{fill:#7B6854;}
	.st3{fill:#AAAAAA;}
	.st4{fill:#48B15A;}
	.st5{fill:#49A0AE;}
	.st6{fill:#AD2728;}
	.st7{fill:none;stroke:#888887;stroke-miterlimit:10;}
	.st8{fill-rule:evenodd;clip-rule:evenodd;fill:#3F3F3E;}
	.st9{fill-rule:evenodd;clip-rule:evenodd;fill:#3F7D92;}
	.st10{fill:#AEACAC;}
	.st11{fill:#E58E8F;}
	.st12{fill:#4ABC96;}
	.st13{fill:#E5E65D;}
	.st14{fill:#4B4A4B;}
	.st15{fill:#E6E768;}
	.st16{fill:#E79E2D;}
	.st17{fill:#E7E7E7;}
	.st18{fill:#E84849;}
	.st19{fill:#E8E7E7;}
	.st20{fill:#4E4E4E;}
	.st21{fill:#E9E4B1;}
	.st22{fill:#E9E9EA;}
	.st23{fill:#80702C;}
	.st24{fill:#807F7F;}
	.st25{fill:#818282;}
	.st26{fill:#82725A;}
	.st27{opacity:0.15;}
	.st28{fill:#83CECA;}
	.st29{fill:#B3DCE2;}
	.st30{fill:#1A3940;}
	.st31{fill:#B5B6B6;}
	.st32{fill:#B6E2EB;}
	.st33{fill:#886A29;}
	.st34{fill:#EBEDEF;}
	.st35{fill:#EBF6F9;}
	.st36{fill-rule:evenodd;clip-rule:evenodd;fill:#7D8880;}
	.st37{fill:#B9B9BA;}
	.st38{fill:#EDC92C;}
	.st39{fill:#504A2A;}
	.st40{fill:#EFC849;}
	.st41{fill:#55B966;}
	.st42{fill-rule:evenodd;clip-rule:evenodd;fill:#4B4A4B;}
	.st43{fill:#577D87;}
	.st44{fill:#58595A;}
	.st45{fill:#BBBCBB;}
	.st46{fill-rule:evenodd;clip-rule:evenodd;fill:#E84849;}
	.st47{fill:#202121;}
	.st48{fill:#F06668;}
	.st49{fill:#BFBEBE;}
	.st50{fill-rule:evenodd;clip-rule:evenodd;fill:#82725A;}
	.st51{fill:#231F20;}
	.st52{fill:#F2BE3E;}
	.st53{fill:#F2DE62;}
	.st54{fill:#F2EF8F;}
	.st55{fill:#F4E028;}
	.st56{fill:#5A5B5D;}
	.st57{fill-rule:evenodd;clip-rule:evenodd;fill:#B5B2B3;}
	.st58{opacity:0.4;clip-path:url(#SVGID_4_);fill:url(#SVGID_5_);}
	.st59{fill:#5B4F3F;}
	.st60{fill:#F6A2A3;}
	.st61{fill:#F6F6E7;}
	.st62{fill:#F7D98B;}
	.st63{fill:#5E8492;}
	.st64{fill:#F9F29A;}
	.st65{fill:#969595;}
	.st66{fill:#988534;}
	.st67{fill:#99999A;}
	.st68{fill:#FDF2F7;}
	.st69{fill:#FDF7FA;}
	.st70{fill:#2F6E77;}
	.st71{fill:#2F8442;}
	.st72{fill:#606060;}
	.st73{fill:#60C3B6;}
	.st74{fill-rule:evenodd;clip-rule:evenodd;fill:#F06668;}
	.st75{fill:none;stroke:#818282;stroke-miterlimit:10;}
	.st76{fill:#FFFFFF;}
	.st77{fill:#626463;}
	.st78{fill:#63BD6E;}
	.st79{fill-rule:evenodd;clip-rule:evenodd;fill:#245861;}
	.st80{fill:none;}
	.st81{fill:#9A866F;}
	.st82{clip-path:url(#SVGID_2_);fill:#90B9C0;}
	.st83{fill-rule:evenodd;clip-rule:evenodd;fill:#5B4F3F;}
	.st84{fill:#9B7842;}
	.st85{fill:#67B7C3;}
	.st86{fill:#67B8CB;}
	.st87{fill:#CC2027;}
	.st88{fill:#CDCDCE;}
	.st89{fill:#CE2F2E;}
	.st90{fill:#9F77AA;}
	.st91{opacity:0.7;fill:#FFFFFF;}
	.st92{fill-rule:evenodd;clip-rule:evenodd;fill:#C0BEBF;}
	.st93{fill:#333535;}
	.st94{fill:#357180;}
	.st95{opacity:0.4;clip-path:url(#SVGID_10_);fill:url(#SVGID_11_);}
	.st96{clip-path:url(#SVGID_2_);fill:#FFFFFF;}
	.st97{fill:#6CC077;}
	.st98{fill:#6EC2CB;}
	.st99{fill:#020202;}
	.st100{fill:#D32027;}
	.st101{fill:#D4A160;}
	.st102{fill:#D6E4F4;}
	.st103{fill:#D7D7D7;}
	.st104{fill:#D88080;}
	.st105{opacity:0.4;clip-path:url(#SVGID_7_);fill:url(#SVGID_8_);}
	.st106{fill-rule:evenodd;clip-rule:evenodd;fill:#CDCCCB;}
	.st107{fill:#A07238;}
	.st108{fill:#A2D4DE;}
	.st109{fill:#A3D4AA;}
	.st110{fill:#74C59C;}
	.st111{fill-rule:evenodd;clip-rule:evenodd;fill:#357180;}
	.st112{fill:#A4A5A4;}
	.st113{fill:#A5B6B9;}
	.st114{fill:#DAC425;}
	.st115{fill:#DBF0F5;}
	.st116{fill:#0EA24A;}
	.st117{fill:#DDDDDC;}
	.st118{fill:#DDDFDF;}
	.st119{fill:#40BCA3;}
	.st120{fill:#43A0AA;}
]]>
</style>
<g>
	<g>
		<g>
			<circle class="st94" cx="68.417" cy="68.416" r="63.333"/>
		</g>
	</g>
	<g>
		<g>
			<path class="st61" d="M99.01,103.516c0,4.31-3.493,7.804-7.802,7.804H45.695c-4.31,0-7.803-3.494-7.803-7.804V40.014
				c0-4.31,3.493-7.804,7.803-7.804h45.513c4.309,0,7.802,3.494,7.802,7.804V103.516z"/>
		</g>
		<rect x="47.212" y="55.297" transform="matrix(1 -0.0012 0.0012 1 -0.0686 0.0747)" class="st31" width="29.084" height="2.964"/>
		<rect x="46.719" y="72.622" transform="matrix(1 -0.0012 0.0012 1 -0.092 0.0762)" class="st31" width="29.082" height="2.963"/>
		<rect x="46.428" y="89.52" transform="matrix(1 -0.0012 0.0012 1 -0.113 0.0758)" class="st31" width="29.081" height="2.962"/>
		<path class="st88" d="M89.84,58.269c0.011,1.483-1.188,2.69-2.67,2.697l-3.578,0.018c-1.482,0.008-2.692-1.188-2.7-2.672
			l-0.017-3.578c-0.006-1.482,1.192-2.69,2.672-2.697l3.58-0.018c1.48-0.007,2.688,1.188,2.697,2.672L89.84,58.269z"/>
		<path class="st88" d="M89.766,75.854c0.007,1.483-1.188,2.689-2.671,2.697l-3.579,0.018c-1.482,0.007-2.69-1.189-2.698-2.671
			l-0.016-3.58c-0.007-1.482,1.189-2.69,2.671-2.698l3.578-0.016c1.483-0.007,2.691,1.188,2.698,2.671L89.766,75.854z"/>
		<g>
			<path class="st97" d="M80.389,87.65l3.001-0.062l1.557,4.74l2.41-8.15l2.912-0.057l-4.038,10.94l-2.557,0.053L80.389,87.65z"/>
		</g>
		<path class="st67" d="M64.645,25.381c0,0,1.507-0.928,3.94-0.928c2.435,0,4.288,0.928,4.288,0.928s-1.97-2.317-4.403-2.317
			C66.035,23.063,64.645,25.381,64.645,25.381z"/>
		<g>
			<path class="st67" d="M45.667,33.556c-0.02,4.055,3.259,5.499,7.316,5.516l31.366,0.142c4.054,0.018,7.349-1.398,7.366-5.452
				L45.667,33.556z"/>
			<path class="st3" d="M84.399,27.662l-10.122-0.045c0.001-0.013,0.003-0.025,0.003-0.04c0.015-3.136-2.517-5.689-5.653-5.702
				c-3.138-0.015-5.689,2.518-5.704,5.653c0,0.013,0.001,0.026,0.001,0.039l-9.891-0.046c-4.055-0.017-7.346,1.399-7.365,5.454
				c-0.016,4.054,3.24,4.572,7.293,4.592l31.371,0.14c4.051,0.02,7.369-0.472,7.386-4.526
				C91.736,29.125,88.455,27.681,84.399,27.662z M64.431,27.534c0.008-2.304,1.886-4.164,4.189-4.154
				c2.303,0.011,4.163,1.887,4.153,4.192c0,0.013-0.003,0.025-0.005,0.04c-0.029,2.285-1.894,4.123-4.186,4.112
				c-2.289-0.009-4.14-1.865-4.15-4.152C64.431,27.56,64.429,27.548,64.431,27.534z"/>
		</g>
	</g>
</g>
</svg>
