<?xml version="1.0" encoding="utf-8"?>
<!-- Generator: Adobe Illustrator 16.0.0, SVG Export Plug-In . SVG Version: 6.00 Build 0)  -->
<!DOCTYPE svg PUBLIC "-//W3C//DTD SVG 1.1//EN" "http://www.w3.org/Graphics/SVG/1.1/DTD/svg11.dtd">
<svg version="1.1" id="Layer_1" xmlns="http://www.w3.org/2000/svg" xmlns:xlink="http://www.w3.org/1999/xlink" x="0px" y="0px"
	 width="136.833px" height="136.834px" viewBox="0 0 136.833 136.834" style="enable-background:new 0 0 136.833 136.834;"
	 xml:space="preserve">
<style type="text/css">
<![CDATA[
	.st0{fill:#473D2E;}
	.st1{opacity:0.25;fill:#EFEFEF;}
	.st2{fill:#7B6854;}
	.st3{fill:#AAAAAA;}
	.st4{fill:#48B15A;}
	.st5{fill:#49A0AE;}
	.st6{fill:#AD2728;}
	.st7{fill:none;stroke:#888887;stroke-miterlimit:10;}
	.st8{fill-rule:evenodd;clip-rule:evenodd;fill:#3F3F3E;}
	.st9{fill-rule:evenodd;clip-rule:evenodd;fill:#3F7D92;}
	.st10{fill:#AEACAC;}
	.st11{fill:#E58E8F;}
	.st12{fill:#4ABC96;}
	.st13{fill:#E5E65D;}
	.st14{fill:#4B4A4B;}
	.st15{fill:#E6E768;}
	.st16{fill:#E79E2D;}
	.st17{fill:#E7E7E7;}
	.st18{fill:#E84849;}
	.st19{fill:#E8E7E7;}
	.st20{fill:#4E4E4E;}
	.st21{fill:#E9E4B1;}
	.st22{fill:#E9E9EA;}
	.st23{fill:#80702C;}
	.st24{fill:#807F7F;}
	.st25{fill:#818282;}
	.st26{fill:#82725A;}
	.st27{opacity:0.15;}
	.st28{fill:#83CECA;}
	.st29{fill:#B3DCE2;}
	.st30{fill:#1A3940;}
	.st31{fill:#B5B6B6;}
	.st32{fill:#B6E2EB;}
	.st33{fill:#886A29;}
	.st34{fill:#EBEDEF;}
	.st35{fill:#EBF6F9;}
	.st36{fill-rule:evenodd;clip-rule:evenodd;fill:#7D8880;}
	.st37{fill:#B9B9BA;}
	.st38{fill:#EDC92C;}
	.st39{fill:#504A2A;}
	.st40{fill:#EFC849;}
	.st41{fill:#55B966;}
	.st42{fill-rule:evenodd;clip-rule:evenodd;fill:#4B4A4B;}
	.st43{fill:#577D87;}
	.st44{fill:#58595A;}
	.st45{fill:#BBBCBB;}
	.st46{fill-rule:evenodd;clip-rule:evenodd;fill:#E84849;}
	.st47{fill:#202121;}
	.st48{fill:#F06668;}
	.st49{fill:#BFBEBE;}
	.st50{fill-rule:evenodd;clip-rule:evenodd;fill:#82725A;}
	.st51{fill:#231F20;}
	.st52{fill:#F2BE3E;}
	.st53{fill:#F2DE62;}
	.st54{fill:#F2EF8F;}
	.st55{fill:#F4E028;}
	.st56{fill:#5A5B5D;}
	.st57{fill-rule:evenodd;clip-rule:evenodd;fill:#B5B2B3;}
	.st58{opacity:0.4;clip-path:url(#SVGID_4_);fill:url(#SVGID_5_);}
	.st59{fill:#5B4F3F;}
	.st60{fill:#F6A2A3;}
	.st61{fill:#F6F6E7;}
	.st62{fill:#F7D98B;}
	.st63{fill:#5E8492;}
	.st64{fill:#F9F29A;}
	.st65{fill:#969595;}
	.st66{fill:#988534;}
	.st67{fill:#99999A;}
	.st68{fill:#FDF2F7;}
	.st69{fill:#FDF7FA;}
	.st70{fill:#2F6E77;}
	.st71{fill:#2F8442;}
	.st72{fill:#606060;}
	.st73{fill:#60C3B6;}
	.st74{fill-rule:evenodd;clip-rule:evenodd;fill:#F06668;}
	.st75{fill:none;stroke:#818282;stroke-miterlimit:10;}
	.st76{fill:#FFFFFF;}
	.st77{fill:#626463;}
	.st78{fill:#63BD6E;}
	.st79{fill-rule:evenodd;clip-rule:evenodd;fill:#245861;}
	.st80{fill:none;}
	.st81{fill:#9A866F;}
	.st82{clip-path:url(#SVGID_2_);fill:#90B9C0;}
	.st83{fill-rule:evenodd;clip-rule:evenodd;fill:#5B4F3F;}
	.st84{fill:#9B7842;}
	.st85{fill:#67B7C3;}
	.st86{fill:#67B8CB;}
	.st87{fill:#CC2027;}
	.st88{fill:#CDCDCE;}
	.st89{fill:#CE2F2E;}
	.st90{fill:#9F77AA;}
	.st91{opacity:0.7;fill:#FFFFFF;}
	.st92{fill-rule:evenodd;clip-rule:evenodd;fill:#C0BEBF;}
	.st93{fill:#333535;}
	.st94{fill:#357180;}
	.st95{opacity:0.4;clip-path:url(#SVGID_10_);fill:url(#SVGID_11_);}
	.st96{clip-path:url(#SVGID_2_);fill:#FFFFFF;}
	.st97{fill:#6CC077;}
	.st98{fill:#6EC2CB;}
	.st99{fill:#020202;}
	.st100{fill:#D32027;}
	.st101{fill:#D4A160;}
	.st102{fill:#D6E4F4;}
	.st103{fill:#D7D7D7;}
	.st104{fill:#D88080;}
	.st105{opacity:0.4;clip-path:url(#SVGID_7_);fill:url(#SVGID_8_);}
	.st106{fill-rule:evenodd;clip-rule:evenodd;fill:#CDCCCB;}
	.st107{fill:#A07238;}
	.st108{fill:#A2D4DE;}
	.st109{fill:#A3D4AA;}
	.st110{fill:#74C59C;}
	.st111{fill-rule:evenodd;clip-rule:evenodd;fill:#357180;}
	.st112{fill:#A4A5A4;}
	.st113{fill:#A5B6B9;}
	.st114{fill:#DAC425;}
	.st115{fill:#DBF0F5;}
	.st116{fill:#0EA24A;}
	.st117{fill:#DDDDDC;}
	.st118{fill:#DDDFDF;}
	.st119{fill:#40BCA3;}
	.st120{fill:#43A0AA;}
]]>
</style>
<g>
	<g>
		<g>
			<circle class="st52" cx="68.417" cy="68.417" r="63.054"/>
		</g>
	</g>
	<g>
		<polygon class="st54" points="109.077,100.83 39.534,111.935 30.568,57.01 100.111,45.905 		"/>
		<g>
			
				<rect x="39.699" y="63.25" transform="matrix(0.9875 -0.1578 0.1578 0.9875 -9.4109 11.4108)" class="st66" width="54.953" height="3.477"/>
			
				<rect x="41.268" y="71.826" transform="matrix(0.9875 -0.1577 0.1577 0.9875 -10.7424 11.7635)" class="st66" width="54.953" height="3.475"/>
			
				<rect x="42.706" y="80.945" transform="matrix(0.9875 -0.1577 0.1577 0.9875 -12.1644 12.1064)" class="st66" width="54.955" height="3.477"/>
			<polygon class="st66" points="74.662,92.793 44.745,97.573 44.193,94.14 74.111,89.36 			"/>
		</g>
		<g>
			<g>
				<polygon class="st36" points="65.53,59.241 63.917,49.195 67.326,49.195 65.667,59.241 				"/>
				<g>
					<polygon class="st74" points="58.112,24.715 58.691,25.713 62.367,29.068 60.534,42.503 61.238,48.639 63.864,50.129 
						68.849,50.251 72.506,48.124 70.114,44.259 68.755,29.621 68.825,27.62 72.095,25.626 72.494,24.607 					"/>
					<path class="st46" d="M71.654,49.41c-1.222,0.809-2.719,1.334-4.354,1.512l-0.55,0.047c-0.063,0.005-0.124,0.014-0.187,0.014
						l-0.505,0.015c-1.003-0.005-1.972-0.137-2.865-0.399c-3.347-0.971-5.759-3.568-5.804-6.649
						c-0.023-1.728,0.884-2.087,2.585-3.201l1.986-11.509c-1.611-0.546-2.887-2.391-3.54-3.794c2.206,1.839,4.799,2.277,6.652,2.295
						c0.063,0.465,0.236,1.787,0.243,1.982c1.183,0.004,2.163-0.17,2.844-0.357l0.002-0.007l0.325-2.033
						c1.449-0.372,2.719-0.971,3.607-1.699c-0.534,1.203-1.411,2.658-2.531,3.198c0,0,1.427,8.173,1.995,11.597
						c1.839,1.055,3.363,1.501,3.39,3.286C74.983,46.004,73.688,48.064,71.654,49.41z M68.194,29.727
						c-0.701,0.187-1.686,0.359-2.874,0.354l-0.079,15.766c0.512,0.046,1.028,0.064,1.533,0.023c1.073-0.09,2.04-0.401,2.833-0.882
						L68.194,29.727z M71.831,48.314l-2.112-2.977c-0.829,0.485-1.819,0.798-2.915,0.89c-0.53,0.045-1.071,0.021-1.611-0.027
						l-1.531,3.357l-0.011,0.025c0.827,0.162,1.699,0.244,2.604,0.232c2.121-0.031,4.061-0.572,5.568-1.449L71.831,48.314z
						 M66.129,27.354c-1.855,0.136-5.356-0.031-8.017-2.639c-0.174-0.334-0.282-0.682-0.286-1.046
						c-0.005-0.394,0.101-0.776,0.293-1.141c0.897-1.667,3.742-2.91,7.132-2.96c3.39-0.045,6.268,1.122,7.208,2.761
						c0.208,0.359,0.322,0.739,0.329,1.134c0.005,0.396-0.099,0.78-0.295,1.145c-0.021,0.061-0.05,0.135-0.075,0.199
						C71.304,26.123,68.768,27.162,66.129,27.354z"/>
				</g>
			</g>
		</g>
	</g>
</g>
</svg>
