<?xml version="1.0" encoding="utf-8"?>
<!-- Generator: Adobe Illustrator 16.0.0, SVG Export Plug-In . SVG Version: 6.00 Build 0)  -->
<!DOCTYPE svg PUBLIC "-//W3C//DTD SVG 1.1//EN" "http://www.w3.org/Graphics/SVG/1.1/DTD/svg11.dtd">
<svg version="1.1" id="Layer_1" xmlns="http://www.w3.org/2000/svg" xmlns:xlink="http://www.w3.org/1999/xlink" x="0px" y="0px"
	 width="136.913px" height="136.914px" viewBox="0 0 136.913 136.914" enable-background="new 0 0 136.913 136.914"
	 xml:space="preserve">
<g>
	<g>
		<g>
			<g>
				<g>
					<circle fill="#EDC92C" cx="68.456" cy="68.458" r="63.333"/>
				</g>
			</g>
		</g>
	</g>
	<g>
		<g>
			<path fill="#202121" d="M92.734,105.342c0,5.819-2.961,8.782-8.781,8.779l-29.855,0.003c-5.82,0-8.781-2.963-8.781-8.782V33.338
				c0-5.817,2.961-8.779,8.781-8.779h29.855c5.82,0,8.781,2.962,8.781,8.779V105.342z"/>
		</g>
		<g>
			<g>
				<path fill="#121212" d="M72.668,107.976c0,1.94-1.574,3.514-3.514,3.514c-1.941,0-3.512-1.573-3.512-3.514
					s1.572-3.508,3.512-3.508S72.668,106.035,72.668,107.976z"/>
			</g>
			<g>
				<path fill="#202121" d="M69.674,109.347h-1.037c-0.227,0-0.441-0.089-0.602-0.251c-0.162-0.162-0.25-0.377-0.248-0.605v-1.031
					c0-0.47,0.381-0.852,0.85-0.852h1.037c0.469,0,0.852,0.382,0.852,0.852v1.033C70.525,108.963,70.143,109.347,69.674,109.347z
					 M68.637,107.107c-0.193,0-0.35,0.157-0.35,0.352v1.033c-0.002,0.096,0.035,0.184,0.102,0.251
					c0.066,0.066,0.154,0.104,0.248,0.104h1.037c0.193,0,0.352-0.159,0.352-0.354v-1.033c0-0.194-0.158-0.352-0.352-0.352H68.637z"
					/>
			</g>
		</g>
		<g>
			<path d="M74.588,31.143c0,0.566-0.461,1.024-1.025,1.024H64.49c-0.566,0-1.025-0.458-1.025-1.024l0,0
				c0-0.565,0.459-1.022,1.025-1.022h9.072C74.127,30.12,74.588,30.577,74.588,31.143L74.588,31.143z"/>
		</g>
		<g>
			<rect x="47.514" y="35.754" fill="#676767" width="42.807" height="65.418"/>
		</g>
	</g>
</g>
</svg>
