<?xml version="1.0" encoding="utf-8"?>
<!-- Generator: Adobe Illustrator 16.0.0, SVG Export Plug-In . SVG Version: 6.00 Build 0)  -->
<!DOCTYPE svg PUBLIC "-//W3C//DTD SVG 1.1//EN" "http://www.w3.org/Graphics/SVG/1.1/DTD/svg11.dtd">
<svg version="1.1" id="Layer_1" xmlns="http://www.w3.org/2000/svg" xmlns:xlink="http://www.w3.org/1999/xlink" x="0px" y="0px"
	 width="136.913px" height="136.914px" viewBox="0 0 136.913 136.914" enable-background="new 0 0 136.913 136.914"
	 xml:space="preserve">
<g>
	<g>
		<g>
			<g>
				<g>
					<circle fill="#5B4F3F" cx="68.456" cy="68.457" r="63.333"/>
				</g>
			</g>
		</g>
	</g>
	<g>
		<g>
			<path fill="#8F8376" d="M60.865,49.098c0,1.047-0.871,1.893-1.941,1.893l0,0c-1.072-0.002-1.939-0.85-1.939-1.896l0.021-18.916
				c0-1.045,0.871-1.893,1.941-1.893l0,0c1.072,0.002,1.939,0.852,1.939,1.898L60.865,49.098z"/>
		</g>
		<g>
			<path fill="#8F8376" d="M61.332,78.289c0,1.043-0.871,1.891-1.943,1.891l0,0c-1.07,0-1.939-0.85-1.938-1.898l0.023-18.914
				c0-1.045,0.869-1.893,1.939-1.893l0,0c1.072,0.002,1.939,0.85,1.939,1.898L61.332,78.289z"/>
		</g>
		<g>
			<path fill="#8F8376" d="M103.531,78.289c0,1.043-0.871,1.891-1.941,1.891l0,0c-1.072,0-1.939-0.85-1.939-1.898l0.021-18.914
				c0-1.045,0.871-1.893,1.941-1.893l0,0c1.072,0.002,1.941,0.85,1.939,1.898L103.531,78.289z"/>
		</g>
		<g>
			<path fill="#8F8376" d="M39.531,78.289c0,1.043-0.871,1.891-1.941,1.891l0,0c-1.07,0-1.939-0.85-1.938-1.898l0.021-18.914
				c0-1.045,0.869-1.893,1.941-1.893l0,0c1.072,0.002,1.939,0.85,1.938,1.898L39.531,78.289z"/>
		</g>
		<g>
			<g>
				<path fill="#8F8376" d="M40.672,28.246h-5.139c-3.094,0-6.072,2.449-6.072,5.473v11.859c0,3.021,2.979,5.471,6.072,5.471h5.139
					c3.098,0,6.074-2.449,6.074-5.471V33.719C46.746,30.695,43.77,28.246,40.672,28.246z M43.164,43.543
					c0,1.988-1.555,3.598-3.471,3.598h-3.18c-1.916,0-3.471-1.609-3.471-3.598v-7.791c0-1.986,1.555-3.598,3.471-3.598h3.18
					c1.916,0,3.471,1.611,3.471,3.598V43.543z"/>
			</g>
		</g>
		<g>
			<g>
				<path fill="#8F8376" d="M40.672,86.17h-5.139c-3.094,0-6.072,2.449-6.072,5.471V103.5c0,3.021,2.979,5.473,6.072,5.473h5.139
					c3.098,0,6.074-2.451,6.074-5.473V91.641C46.746,88.619,43.77,86.17,40.672,86.17z M43.164,101.467
					c0,1.984-1.555,3.598-3.471,3.598h-3.18c-1.916,0-3.471-1.613-3.471-3.598v-7.793c0-1.986,1.555-3.596,3.471-3.596h3.18
					c1.916,0,3.471,1.609,3.471,3.596V101.467z"/>
			</g>
		</g>
		<g>
			<g>
				<path fill="#8F8376" d="M62.16,86.17h-5.137c-3.096,0-6.074,2.449-6.074,5.471V103.5c0,3.021,2.979,5.473,6.074,5.473h5.137
					c3.098,0,6.074-2.451,6.074-5.473V91.641C68.234,88.619,65.258,86.17,62.16,86.17z M64.652,101.467
					c0,1.984-1.553,3.598-3.469,3.598h-3.182c-1.916,0-3.471-1.613-3.471-3.598v-7.793c0-1.986,1.555-3.596,3.471-3.596h3.182
					c1.916,0,3.469,1.609,3.469,3.596V101.467z"/>
			</g>
		</g>
		<g>
			<g>
				<path fill="#8F8376" d="M82.404,28.246h-5.139c-3.096,0-6.072,2.449-6.072,5.473v11.859c0,3.021,2.977,5.471,6.072,5.471h5.139
					c3.096,0,6.072-2.449,6.072-5.471V33.719C88.477,30.695,85.5,28.246,82.404,28.246z M84.896,43.543
					c0,1.988-1.555,3.598-3.471,3.598h-3.182c-1.916,0-3.471-1.609-3.471-3.598v-7.791c0-1.986,1.555-3.598,3.471-3.598h3.182
					c1.916,0,3.471,1.611,3.471,3.598V43.543z"/>
			</g>
		</g>
		<g>
			<g>
				<path fill="#8F8376" d="M82.404,57.436h-5.139c-3.096,0-6.072,2.451-6.072,5.473v11.857c0,3.023,2.977,5.475,6.072,5.475h5.139
					c3.096,0,6.072-2.451,6.072-5.475V62.908C88.477,59.887,85.5,57.436,82.404,57.436z M84.896,72.732
					c0,1.988-1.555,3.598-3.471,3.598h-3.182c-1.916,0-3.471-1.609-3.471-3.598v-7.793c0-1.984,1.555-3.596,3.471-3.596h3.182
					c1.916,0,3.471,1.611,3.471,3.596V72.732z"/>
			</g>
		</g>
		<g>
			<g>
				<path fill="#8F8376" d="M103.893,28.246h-5.139c-3.096,0-6.072,2.449-6.072,5.473v11.859c0,3.021,2.977,5.471,6.072,5.471h5.139
					c3.096,0,6.072-2.449,6.072-5.471V33.719C109.965,30.695,106.988,28.246,103.893,28.246z M106.385,43.543
					c0,1.988-1.555,3.598-3.469,3.598h-3.184c-1.916,0-3.469-1.609-3.469-3.598v-7.791c0-1.986,1.553-3.598,3.469-3.598h3.184
					c1.914,0,3.469,1.611,3.469,3.598V43.543z"/>
			</g>
		</g>
		<g>
			<path fill="#8F8376" d="M81.887,106.869c-0.002,1.045-0.871,1.893-1.943,1.893l0,0c-1.07,0-1.938-0.852-1.938-1.896l0.021-18.916
				c0.002-1.047,0.871-1.893,1.941-1.893l0,0c1.072,0,1.939,0.85,1.939,1.896L81.887,106.869z"/>
		</g>
		<g>
			<path fill="#8F8376" d="M103.686,106.869c0,1.045-0.869,1.893-1.941,1.893l0,0c-1.07,0-1.939-0.852-1.938-1.896l0.021-18.916
				c0-1.047,0.871-1.893,1.941-1.893l0,0c1.072,0,1.941,0.85,1.939,1.896L103.686,106.869z"/>
		</g>
	</g>
</g>
</svg>
