<?xml version="1.0" encoding="utf-8"?>
<!-- Generator: Adobe Illustrator 16.0.0, SVG Export Plug-In . SVG Version: 6.00 Build 0)  -->
<!DOCTYPE svg PUBLIC "-//W3C//DTD SVG 1.1//EN" "http://www.w3.org/Graphics/SVG/1.1/DTD/svg11.dtd">
<svg version="1.1" id="Layer_1" xmlns="http://www.w3.org/2000/svg" xmlns:xlink="http://www.w3.org/1999/xlink" x="0px" y="0px"
	 width="136.913px" height="136.914px" viewBox="0 0 136.913 136.914" enable-background="new 0 0 136.913 136.914"
	 xml:space="preserve">
<g>
	<g>
		<g>
			<g>
				<g>
					<circle fill="#D62127" cx="68.456" cy="68.458" r="63.333"/>
				</g>
			</g>
		</g>
	</g>
	<g>
		<g>
			<g>
				<g>
					<path fill="#F18A89" d="M35.982,53.939c4.9,4.714,9.863,7.679,15.799,3.286c5.975-4.419,6.607-9.325,6.607-9.325
						s-0.563-9.406,22.105,10.981c20.4,22.678,10.992,22.117,10.992,22.117s-4.906,0.633-9.326,6.607
						c-4.393,5.936-1.293,10.768,3.285,15.797c14.648,16.096,23.529-2.193,23.529-2.193c10.369-17.455-6.918-38.2-20.254-50.559
						C76.359,37.317,55.625,20.045,38.178,30.413C38.178,30.413,19.658,38.234,35.982,53.939z"/>
				</g>
			</g>
			<g>
				<g>
					<path fill="#404040" d="M100.857,109.296c0.012-0.006,0.02-0.016,0.031-0.02c-0.133,0.053-0.266,0.104-0.4,0.152
						C100.611,109.384,100.736,109.343,100.857,109.296z"/>
				</g>
			</g>
		</g>
		<g>
			<g>
				<g>
					<path fill="#EC6C6D" d="M54.182,99.87c-3.904-0.002-7.809-0.002-11.713-0.002c-2.121,0.002-3.895-1.771-3.895-3.896
						c0-3.893,0-7.791,0-11.686c0-5.029,7.791-5.031,7.791-0.002c0,3.898-0.002,7.793,0,11.688
						c-1.299-1.297-2.596-2.596-3.896-3.895c3.906,0.002,7.809,0.002,11.713,0.002C59.211,92.079,59.211,99.868,54.182,99.87
						L54.182,99.87z"/>
				</g>
			</g>
			<g>
				<g>
					<path fill="#EC6C6D" d="M60.932,88.577c-2.768,0-5.535,0-8.301,0c-1.504,0-2.762-1.258-2.762-2.76
						c-0.002-2.764-0.002-5.525,0-8.287c0-3.561,5.521-3.561,5.521,0c0,2.764,0,5.527,0.002,8.289
						c-0.922-0.924-1.842-1.844-2.762-2.766c2.766,0.004,5.533,0,8.301,0.002C64.496,83.054,64.498,88.577,60.932,88.577
						L60.932,88.577z"/>
				</g>
			</g>
			<g>
				<g>
					<path fill="#EC6C6D" d="M67.344,79.847c-2.186,0-4.373,0-6.559,0c-1.191,0-2.184-0.992-2.184-2.184
						c-0.002-2.182-0.002-4.363,0-6.547c0-2.815,4.363-2.815,4.363,0c0,2.184,0,4.367,0.002,6.549
						c-0.729-0.729-1.455-1.455-2.184-2.184c2.188,0.002,4.373,0,6.561,0C70.16,75.481,70.162,79.847,67.344,79.847L67.344,79.847z"
						/>
				</g>
			</g>
			<g>
				<g>
					<path fill="#EC6C6D" d="M72.346,72.841c-1.686,0-3.369,0-5.055,0c-0.916,0-1.682-0.766-1.682-1.68c0-1.682,0-3.364,0-5.046
						c0-2.169,3.361-2.169,3.361,0c0.002,1.682,0.002,3.364,0.002,5.046c-0.561-0.563-1.121-1.123-1.682-1.682
						c1.686,0,3.369,0,5.055,0C74.514,69.479,74.516,72.841,72.346,72.841L72.346,72.841z"/>
				</g>
			</g>
		</g>
	</g>
</g>
</svg>
