<?xml version="1.0" encoding="utf-8"?>
<!-- Generator: Adobe Illustrator 16.0.0, SVG Export Plug-In . SVG Version: 6.00 Build 0)  -->
<!DOCTYPE svg PUBLIC "-//W3C//DTD SVG 1.1//EN" "http://www.w3.org/Graphics/SVG/1.1/DTD/svg11.dtd">
<svg version="1.1" id="Layer_1" xmlns="http://www.w3.org/2000/svg" xmlns:xlink="http://www.w3.org/1999/xlink" x="0px" y="0px"
	 width="136.913px" height="136.914px" viewBox="0 0 136.913 136.914" enable-background="new 0 0 136.913 136.914"
	 xml:space="preserve">
<g>
	<g>
		<g>
			<g>
				<g>
					<circle fill="#1FA85B" cx="68.457" cy="68.458" r="63.333"/>
				</g>
			</g>
		</g>
	</g>
	<g>
		<g>
			<path fill="#CFC7BE" d="M100.896,51.466c0-18.42-14.635-35.168-32.686-35.168c-18.053,0-32.686,16.748-32.686,35.168
				c0,0,0.59,3.609,4.086,3.532c3.951-0.085,4.373-3.532,4.373-3.532c0-0.984,0.057-1.964,0.166-2.937
				c0.047-0.417-1.822-0.874-1.709-1.757c0.094-0.74,2.031-0.359,2.121-0.79c2.412-11.428,12.084-21.052,23.648-21.052
				c13.379,0,24.225,12.883,24.225,26.535l0.068,10.068l8.51,1.368L100.896,51.466z"/>
		</g>
		<g>
			<g>
				<path fill="#F4E028" d="M101.065,103.333c0,3.861-3.197,6.989-7.143,6.989H42.747c-3.945,0-7.141-3.128-7.141-6.989V61.982
					c0-3.86,65.459-3.86,65.459,0V103.333z"/>
			</g>
			<g>
				<g>
					<path fill="#DAC425" d="M75.903,78.736c0-4.03-3.266-7.296-7.295-7.296c-4.031,0-7.295,3.266-7.295,7.296
						c0,3.073,1.902,5.697,4.59,6.771v6.729c0,1.427,1.158,2.583,2.584,2.583c1.428,0,2.584-1.156,2.584-2.583v-6.64
						C73.886,84.585,75.903,81.899,75.903,78.736z"/>
				</g>
				<g>
					<path fill="#D0B82B" d="M61.04,78.736c0-4.03,3.268-7.296,7.297-7.296c0,0-5.086,3.391-5.086,7.421
						c0,4.104,3.838,6.535,3.838,6.535v6.915c0,1.427,1.367,2.508,1.367,2.508c-1.428,0-2.584-1.156-2.584-2.583v-6.64
						C63.058,84.585,61.04,81.899,61.04,78.736z"/>
				</g>
			</g>
		</g>
		<g>
			<polygon fill="#F8E349" points="89.157,110.322 80.038,110.322 80.038,59.254 89.157,59.71 			"/>
		</g>
		<g>
			<g>
				<path fill="#E8E7E7" d="M80.038,18.807v9.715c3.785,2.44,6.939,5.964,9.119,10.067V24.804
					C86.456,22.31,83.38,20.267,80.038,18.807z"/>
			</g>
		</g>
	</g>
</g>
</svg>
