<?xml version="1.0" encoding="utf-8"?>
<!-- Generator: Adobe Illustrator 16.0.0, SVG Export Plug-In . SVG Version: 6.00 Build 0)  -->
<!DOCTYPE svg PUBLIC "-//W3C//DTD SVG 1.1//EN" "http://www.w3.org/Graphics/SVG/1.1/DTD/svg11.dtd">
<svg version="1.1" id="Layer_1" xmlns="http://www.w3.org/2000/svg" xmlns:xlink="http://www.w3.org/1999/xlink" x="0px" y="0px"
	 width="136.913px" height="136.913px" viewBox="0 0 136.913 136.913" enable-background="new 0 0 136.913 136.913"
	 xml:space="preserve">
<g>
	<g>
		<g>
			<g>
				<g>
					<circle fill="#1FA85B" cx="68.456" cy="68.457" r="63.333"/>
				</g>
			</g>
		</g>
	</g>
	<g>
		<g>
			<path fill="#BB813C" d="M100.916,84.924c0,17.756-14.395,22.76-32.152,22.76s-32.152-5.004-32.152-22.76
				c0-17.758,14.395-41.545,32.152-41.545S100.916,67.166,100.916,84.924z"/>
		</g>
		<g>
			<polygon fill="#BB813C" points="68.045,42.242 68.938,42.242 73.289,42.242 83.645,29.295 83.645,24.338 76.484,24.338 
				76.484,21.525 68.938,21.525 68.045,21.525 60.5,21.525 60.5,24.338 53.34,24.338 53.34,29.295 63.697,42.242 			"/>
		</g>
		<g>
			<polygon fill="#A06D35" points="76.484,24.338 69.744,40.949 80.639,24.363 			"/>
		</g>
		<g>
			<polygon fill="#A06D35" points="60.555,24.338 67.295,40.949 56.4,24.363 			"/>
		</g>
		<g>
			<polygon fill="#A06D35" points="63.777,50.58 68.137,46.045 61.094,50.572 			"/>
		</g>
		<g>
			<polygon fill="#A06D35" points="74.076,50.58 69.719,46.045 76.762,50.572 			"/>
		</g>
		<g>
			<path fill="#8D602F" d="M74.885,43.537c0,0.768-0.623,1.391-1.393,1.391h-9.641c-0.77,0-1.393-0.623-1.393-1.391l0,0
				c0-0.768,0.623-1.393,1.393-1.393h9.641C74.262,42.145,74.885,42.77,74.885,43.537L74.885,43.537z"/>
		</g>
		<g>
			<polygon fill="#A06D35" points="67.457,21.672 69.744,21.672 68.449,40.277 			"/>
		</g>
		<g>
			<g>
				<path fill="#8D602F" d="M80.486,67.912c0,2.242-2.543,3.838-2.691,3.639c-1.896-2.193-5.137-3.84-8.428-3.84
					c-3.342,0-5.385,1.496-5.385,3.74c0,2.594,2.742,3.291,6.582,4.139c4.588,0.998,10.621,2.844,10.621,9.375
					c0,5.037-3.49,8.527-9.326,9.426v1.943c0,2.295-0.896,3.391-2.891,3.391h-0.25c-2.094,0-2.842-1.047-2.842-3.391V94.49
					c-6.035-0.648-9.475-3.391-9.475-6.184c0-2.145,2.393-3.689,2.592-3.49c1.896,2.293,5.586,4.188,9.475,4.188
					c3.541,0,5.586-1.496,5.586-3.74c0-2.742-3.092-3.49-6.732-4.338c-4.389-0.947-10.172-2.691-10.172-9.275
					c0-4.787,3.391-8.227,8.775-9.225V60.58c0-2.293,0.848-3.391,2.844-3.391h0.299c2.043,0,2.842,1.047,2.842,3.391v1.697
					C77.445,62.875,80.486,65.367,80.486,67.912z"/>
			</g>
		</g>
	</g>
</g>
</svg>
