<?xml version="1.0" encoding="utf-8"?>
<!-- Generator: Adobe Illustrator 16.0.0, SVG Export Plug-In . SVG Version: 6.00 Build 0)  -->
<!DOCTYPE svg PUBLIC "-//W3C//DTD SVG 1.1//EN" "http://www.w3.org/Graphics/SVG/1.1/DTD/svg11.dtd">
<svg version="1.1" id="Layer_1" xmlns="http://www.w3.org/2000/svg" xmlns:xlink="http://www.w3.org/1999/xlink" x="0px" y="0px"
	 width="136.914px" height="136.914px" viewBox="0 0 136.914 136.914" enable-background="new 0 0 136.914 136.914"
	 xml:space="preserve">
<g>
	<g>
		<g>
			<g>
				<g>
					<circle fill="#A2D4DE" cx="68.185" cy="69.183" r="63.333"/>
				</g>
			</g>
		</g>
	</g>
	<g>
		<g>
			<path fill="#FFFFFF" d="M92.422,55.373c0-11.665-9.457-21.122-21.123-21.122c-7.539,0-14.15,3.953-17.889,9.895
				c-2.344-1.187-4.992-1.86-7.799-1.86c-8.621,0-15.764,6.309-17.072,14.56c-1.178-0.396-2.436-0.62-3.746-0.62
				c-6.488,0-11.75,5.26-11.75,11.75c0,6.217,4.834,11.293,10.947,11.708c0.691,0.225,1.428,0.346,2.191,0.346h58.703
				c4.027,0,7.293-3.367,7.293-7.518V58.594C92.338,57.543,92.422,56.469,92.422,55.373z"/>
		</g>
		<g>
			<path fill="#A2D4DE" d="M112.678,73.408c-1.131,0-2.215,0.193-3.23,0.537c-1.129-7.119-7.291-12.561-14.727-12.561
				c-2.42,0-4.705,0.58-6.727,1.605c-3.223-5.126-8.928-8.534-15.43-8.534c-8.355,0-15.381,5.632-17.529,13.301
				c-6.143,1.17-10.789,6.561-10.789,13.043c0,7.338,5.949,13.289,13.287,13.289c0.816,0,1.613-0.084,2.391-0.225
				c0.303,0.045,0.607,0.076,0.922,0.076h50.635c0.658,0,1.293-0.105,1.891-0.301c5.271-0.355,9.441-4.734,9.441-10.098
				C122.813,77.945,118.275,73.408,112.678,73.408z"/>
		</g>
		<g>
			<path fill="#FFFFFF" d="M112.182,75.752c-1.098,0-2.15,0.188-3.135,0.52c-1.096-6.907-7.074-12.188-14.289-12.188
				c-2.348,0-4.564,0.564-6.527,1.558c-3.127-4.973-8.662-8.28-14.971-8.28c-8.107,0-14.924,5.465-17.01,12.906
				c-5.961,1.135-10.469,6.367-10.469,12.656c0,7.119,5.773,12.895,12.893,12.895c0.793,0,1.566-0.082,2.32-0.219
				c0.293,0.043,0.59,0.072,0.895,0.072h49.131c0.639,0,1.256-0.1,1.834-0.289c5.115-0.346,9.162-4.594,9.162-9.799
				C122.016,80.154,117.613,75.752,112.182,75.752z"/>
		</g>
	</g>
</g>
</svg>
