<?xml version="1.0" encoding="utf-8"?>
<!-- Generator: Adobe Illustrator 16.0.0, SVG Export Plug-In . SVG Version: 6.00 Build 0)  -->
<!DOCTYPE svg PUBLIC "-//W3C//DTD SVG 1.1//EN" "http://www.w3.org/Graphics/SVG/1.1/DTD/svg11.dtd">
<svg version="1.1" id="Layer_1" xmlns="http://www.w3.org/2000/svg" xmlns:xlink="http://www.w3.org/1999/xlink" x="0px" y="0px"
	 width="136px" height="135.099px" viewBox="0 0 136 135.099" enable-background="new 0 0 136 135.099" xml:space="preserve">
<g>
	<g>
		<g>
			<g>
				<g>
					<circle fill="#E84849" cx="68" cy="67.55" r="63.333"/>
				</g>
			</g>
		</g>
	</g>
	<g>
		<g>
			<g>
				<path fill="#CFC7BE" d="M101.253,61.379c0-18.42-14.635-35.168-32.686-35.168c-18.053,0-32.686,16.748-32.686,35.168h8.459
					c0-13.652,10.848-26.535,24.227-26.535c13.381,0,24.227,12.883,24.227,26.535H101.253z"/>
			</g>
			<g>
				<path fill="#F4E028" d="M101.271,102.607c0,3.861-3.195,6.99-7.141,6.99H42.952c-3.945,0-7.141-3.129-7.141-6.99V61.256
					c0-3.859,65.459-3.859,65.459,0V102.607z"/>
			</g>
			<g>
				<path fill="#DAC425" d="M76.108,78.01c0-4.029-3.266-7.295-7.295-7.295s-7.295,3.266-7.295,7.295
					c0,3.074,1.902,5.697,4.59,6.772v6.729c0,1.426,1.158,2.582,2.584,2.582c1.428,0,2.584-1.156,2.584-2.582v-6.641
					C74.091,83.859,76.108,81.174,76.108,78.01z"/>
			</g>
			<g>
				<path fill="#D0B82B" d="M61.245,78.01c0-4.029,3.268-7.295,7.297-7.295c0,0-5.086,3.391-5.086,7.42
					c0,4.104,3.838,6.536,3.838,6.536v6.914c0,1.428,1.367,2.508,1.367,2.508c-1.426,0-2.584-1.156-2.584-2.582v-6.641
					C63.263,83.859,61.245,81.174,61.245,78.01z"/>
			</g>
		</g>
		<g>
			<polygon fill="#F8E349" points="89.364,109.597 80.245,109.597 80.245,58.529 89.364,58.985 			"/>
		</g>
		<g>
			<g>
				<path fill="#E8E7E7" d="M80.245,28.653v9.682c3.764,2.388,6.914,5.843,9.119,9.879V34.572
					C86.657,32.103,83.579,30.089,80.245,28.653z"/>
			</g>
		</g>
	</g>
</g>
</svg>
