<?xml version="1.0" encoding="utf-8"?>
<!-- Generator: Adobe Illustrator 16.0.0, SVG Export Plug-In . SVG Version: 6.00 Build 0)  -->
<!DOCTYPE svg PUBLIC "-//W3C//DTD SVG 1.1//EN" "http://www.w3.org/Graphics/SVG/1.1/DTD/svg11.dtd">
<svg version="1.1" id="Layer_1" xmlns="http://www.w3.org/2000/svg" xmlns:xlink="http://www.w3.org/1999/xlink" x="0px" y="0px"
	 width="136.913px" height="136.914px" viewBox="0 0 136.913 136.914" enable-background="new 0 0 136.913 136.914"
	 xml:space="preserve">
<g>
	<g>
		<g>
			<g>
				<g>
					<circle fill="#344E5D" cx="68.457" cy="68.457" r="63.333"/>
				</g>
			</g>
		</g>
	</g>
	<g>
		<g>
			<g>
				<path fill="#8F8376" d="M68.995,26.466c-1.512,0-2.736,1.224-2.736,2.734v88.021c0,1.511,1.225,2.735,2.736,2.735
					c1.51,0,2.734-1.225,2.734-2.735V29.2C71.729,27.689,70.505,26.466,68.995,26.466z"/>
			</g>
			<g>
				<path fill="#8F8376" d="M67.894,98.839c-1.037,1.036-1.037,2.72,0,3.757l14.627,14.627c1.035,1.036,2.719,1.038,3.756,0
					c1.039-1.038,1.039-2.721,0-3.76L71.651,98.838C70.614,97.8,68.931,97.8,67.894,98.839z"/>
			</g>
			<g>
				<path fill="#8F8376" d="M70.054,98.839c-1.037-1.038-2.719-1.038-3.758,0l-14.625,14.626c-1.037,1.036-1.039,2.72,0,3.758
					c1.037,1.038,2.719,1.038,3.758,0l14.625-14.626C71.093,101.559,71.093,99.875,70.054,98.839z"/>
			</g>
			<g>
				<g>
					<path fill="#597C7C" d="M114.009,87.699c0,2.9-2.352,5.251-5.25,5.251H31.29c-2.902,0-5.254-2.351-5.254-5.251V35.834
						c0-2.901,2.352-5.252,5.254-5.252h77.469c2.898,0,5.25,2.351,5.25,5.252V87.699z"/>
				</g>
			</g>
			<g>
				<g>
					<path fill="#FFFFFF" d="M109.995,84.478c0,2.636-2.137,4.772-4.773,4.772H34.825c-2.637,0-4.773-2.137-4.773-4.772V39.055
						c0-2.635,2.137-4.771,4.773-4.771h70.396c2.637,0,4.773,2.137,4.773,4.771V84.478z"/>
				</g>
			</g>
			<g>
				<defs>
					<path id="SVGID_11_" d="M114.009,87.699c0,2.9-2.352,5.251-5.25,5.251H31.29c-2.902,0-5.254-2.351-5.254-5.251V35.834
						c0-2.901,2.352-5.252,5.254-5.252h77.469c2.898,0,5.25,2.351,5.25,5.252V87.699z"/>
				</defs>
				<clipPath id="SVGID_2_">
					<use xlink:href="#SVGID_11_"  overflow="visible"/>
				</clipPath>
			</g>
			<g>
				<path fill="#78A4A4" d="M101.368,51.689c0,1.099-0.891,1.99-1.99,1.99H82.134c-1.1,0-1.99-0.892-1.99-1.99
					c0-1.1,0.891-1.99,1.99-1.99h17.244C100.478,49.699,101.368,50.59,101.368,51.689"/>
			</g>
			<g>
				<path fill="#78A4A4" d="M101.368,60.042c0,1.099-0.891,1.989-1.99,1.989H82.134c-1.1,0-1.99-0.891-1.99-1.989
					c0-1.101,0.891-1.991,1.99-1.991h17.244C100.478,58.051,101.368,58.941,101.368,60.042"/>
			</g>
			<g>
				<path fill="#78A4A4" d="M101.368,68.866c0,1.099-0.891,1.989-1.99,1.989H82.134c-1.1,0-1.99-0.891-1.99-1.989
					c0-1.101,0.891-1.99,1.99-1.99h17.244C100.478,66.876,101.368,67.766,101.368,68.866"/>
			</g>
		</g>
		<g>
			<g>
				<path fill="#F4E028" d="M57.206,56.42"/>
			</g>
			<g>
				<path fill="#78A4A4" d="M38.005,55.958c0-0.1,0.01-0.199,0.018-0.297c-0.031,0.165-0.049,0.335-0.045,0.514
					c0.012,0.461,0.027,6.105,0.027,6.529c0,4.531,7.82,8.205,17.471,8.205v-6.746C45.825,64.163,38.005,60.489,38.005,55.958z"/>
			</g>
			<g>
				<rect x="55.321" y="55.943" fill="#78A4A4" width="17.664" height="6.579"/>
			</g>
			<g>
				<path fill="#DDD374" d="M74.675,64.436c0-0.426,0.018-6.069,0.033-6.533c0.002-0.073-0.006-0.143-0.01-0.212h-0.023
					c0,4.531-7.82,8.206-17.469,8.206v6.744C66.854,72.641,74.675,68.968,74.675,64.436z"/>
			</g>
			<g>
				<path fill="#EFE87F" d="M57.206,65.896c9.648,0,17.469-3.675,17.469-8.206H57.206V65.896z"/>
			</g>
			<g>
				<path fill="#ABC7C8" d="M72.923,55.595c-0.404-4.363-8.061-7.842-17.447-7.842c-9.436,0-17.119,3.515-17.453,7.908
					c-0.008,0.098-0.018,0.197-0.018,0.297c0,4.531,7.82,8.205,17.471,8.205v-8.204h17.469v-0.001
					C72.944,55.837,72.935,55.716,72.923,55.595z"/>
			</g>
		</g>
	</g>
</g>
</svg>
