<?xml version="1.0" encoding="utf-8"?>
<!-- Generator: Adobe Illustrator 16.0.0, SVG Export Plug-In . SVG Version: 6.00 Build 0)  -->
<!DOCTYPE svg PUBLIC "-//W3C//DTD SVG 1.1//EN" "http://www.w3.org/Graphics/SVG/1.1/DTD/svg11.dtd">
<svg version="1.1" id="Layer_1" xmlns="http://www.w3.org/2000/svg" xmlns:xlink="http://www.w3.org/1999/xlink" x="0px" y="0px"
	 width="136.914px" height="136.914px" viewBox="0 0 136.914 136.914" enable-background="new 0 0 136.914 136.914"
	 xml:space="preserve">
<g>
	<g>
		<g>
			<g>
				<g>
					<circle fill="#5B4F3F" cx="68.457" cy="68.457" r="63.333"/>
				</g>
			</g>
		</g>
	</g>
	<g>
		<g>
			<path fill="#DEBA24" d="M104.042,38.824c-5.192,0.35-9.808,0.022-13.846-0.714C75.97,35.518,68.871,27.936,68.64,27.683
				c0-0.014-0.002-0.031-0.002-0.031l-0.014,0.016l-0.016-0.016c0,0,0,0.018,0,0.031c-0.311,0.341-13.055,13.969-38.896,10.819
				c0,29.572,0,38.293,0,38.293c-0.15,2.497,1.38,8.682,6.044,15.754c1.719,2.608,3.865,5.335,6.514,8.046
				c6.109,6.252,14.875,12.405,27.223,16.731c36.781-15.591,38.046-40.531,38.046-40.531s0-8.721,0-38.293
				C106.34,38.648,105.182,38.747,104.042,38.824z"/>
		</g>
		<g>
			<path fill="#EDC11B" d="M68.64,27.683c0-0.014-0.002-0.031-0.002-0.031l-0.014,0.016l-0.016-0.016c0,0,0,0.018,0,0.031
				c-0.311,0.341-13.055,13.969-38.896,10.819c0,29.572,0,38.293,0,38.293c-0.15,2.497,1.38,8.682,6.044,15.754
				c1.719,2.608,3.865,5.335,6.514,8.046c6.109,6.252,14.875,12.405,27.223,16.731C69.493,117.326,68.871,27.936,68.64,27.683z"/>
		</g>
		<g>
			<g>
				<path fill="#CC3432" d="M90.196,38.11L35.756,92.549c1.719,2.608,3.865,5.335,6.514,8.046l61.771-61.771
					C98.849,39.174,94.234,38.847,90.196,38.11z"/>
			</g>
		</g>
		<g>
			<g>
				<path fill="#D03838" d="M68.999,59.308L35.756,92.549c1.719,2.608,3.865,5.335,6.514,8.046l26.804-26.802L68.999,59.308z"/>
			</g>
		</g>
	</g>
</g>
</svg>
