<?xml version="1.0" encoding="utf-8"?>
<!-- Generator: Adobe Illustrator 16.0.0, SVG Export Plug-In . SVG Version: 6.00 Build 0)  -->
<!DOCTYPE svg PUBLIC "-//W3C//DTD SVG 1.1//EN" "http://www.w3.org/Graphics/SVG/1.1/DTD/svg11.dtd">
<svg version="1.1" id="Layer_1" xmlns="http://www.w3.org/2000/svg" xmlns:xlink="http://www.w3.org/1999/xlink" x="0px" y="0px"
	 width="136.914px" height="136.913px" viewBox="0 0 136.914 136.913" enable-background="new 0 0 136.914 136.913"
	 xml:space="preserve">
<g>
	<g>
		<g>
			<g>
				<g>
					<circle fill="#4ABC96" cx="68.457" cy="68.457" r="63.333"/>
				</g>
			</g>
		</g>
	</g>
	<g>
		<g>
			<g>
				<path fill="#202121" d="M88.629,104.365c0,5.35-2.724,8.072-8.075,8.072h-27.45c-5.352,0-8.075-2.723-8.075-8.072V38.156
					c0-5.35,2.724-8.072,8.075-8.072h27.45c5.352,0,8.075,2.723,8.075,8.072V104.365z"/>
			</g>
			<g>
				<g>
					<circle fill="#121212" cx="66.947" cy="106.785" r="3.23"/>
				</g>
				<g>
					<path fill="#202121" d="M67.424,108.066h-0.953c-0.215,0-0.417-0.084-0.568-0.236c-0.152-0.154-0.235-0.355-0.233-0.572v-0.949
						c0-0.441,0.359-0.801,0.802-0.801h0.953c0.219,0,0.419,0.082,0.569,0.234c0.151,0.152,0.233,0.354,0.232,0.568v0.949
						C68.226,107.705,67.865,108.066,67.424,108.066z M67.431,106.008h-0.96c-0.167,0-0.302,0.135-0.302,0.301v0.951
						c-0.001,0.084,0.03,0.16,0.088,0.217c0.057,0.059,0.133,0.09,0.214,0.09h0.953c0.166,0,0.302-0.137,0.302-0.307v-0.951
						c0-0.082-0.03-0.158-0.087-0.215C67.582,106.039,67.509,106.008,67.431,106.008z"/>
				</g>
			</g>
			<g>
				<path d="M71.941,36.139c0,0.52-0.423,0.941-0.941,0.941h-8.343c-0.52,0-0.942-0.422-0.942-0.941l0,0
					c0-0.52,0.423-0.941,0.942-0.941H71C71.519,35.197,71.941,35.619,71.941,36.139L71.941,36.139z"/>
			</g>
			<g>
				<rect x="47.048" y="40.377" fill="#67B8CB" width="39.359" height="60.15"/>
			</g>
		</g>
		<g>
			<g>
				<polygon fill="#BBBCBB" points="70.383,62.197 89.964,68.824 103.185,52.99 112.252,42.07 56.958,57.588 				"/>
			</g>
			<g>
				<g>
					<polygon fill="#E7E7E7" points="123.146,80.895 67.853,96.412 56.942,57.527 90.053,69.24 112.235,42.012 					"/>
				</g>
				<g>
					<g>
						<polygon fill="#BBBCBB" points="112.252,42.07 111.244,41.963 67.511,95.191 67.853,96.412 70.653,95.625 113.035,44.867 
													"/>
					</g>
				</g>
				<g>
					<g>
						<polygon fill="#BBBCBB" points="56.958,57.588 57.762,56.973 122.804,79.676 123.146,80.895 120.346,81.68 57.741,60.385 
													"/>
					</g>
				</g>
			</g>
			<g>
				<polygon fill="#E7E7E7" points="90.479,70.766 56.844,57.18 112.137,41.662 				"/>
			</g>
		</g>
	</g>
</g>
</svg>
