<?xml version="1.0" encoding="utf-8"?>
<!-- Generator: Adobe Illustrator 16.0.0, SVG Export Plug-In . SVG Version: 6.00 Build 0)  -->
<!DOCTYPE svg PUBLIC "-//W3C//DTD SVG 1.1//EN" "http://www.w3.org/Graphics/SVG/1.1/DTD/svg11.dtd">
<svg version="1.1" id="Layer_1" xmlns="http://www.w3.org/2000/svg" xmlns:xlink="http://www.w3.org/1999/xlink" x="0px" y="0px"
	 width="136.913px" height="136.914px" viewBox="0 0 136.913 136.914" enable-background="new 0 0 136.913 136.914"
	 xml:space="preserve">
<g>
	<g>
		<g>
			<g>
				<g>
					<circle fill="#49A0AE" cx="68.457" cy="68.458" r="63.333"/>
				</g>
			</g>
		</g>
	</g>
	<g>
		<g opacity="0.15">
			<g>
				<path d="M54.667,61.513l-2.799-2.782C52.794,59.901,53.739,60.819,54.667,61.513z"/>
			</g>
		</g>
		<g>
			<g>
				<path fill="#D7DFDF" d="M51.843,44.747l-3.016,2.384c-2.082,1.646-1.883,5.371,1.438,9.57l1.604,2.029
					c3.318,4.199,6.896,5.255,8.98,3.608l3.016-2.384c2.082-1.646,1.881-5.37-1.439-9.57l-1.602-2.028
					C57.505,44.156,53.925,43.101,51.843,44.747z M61.122,51.062c2.609,3.3,2.768,6.227,1.129,7.521l-2.367,1.872
					c-1.639,1.294-4.449,0.464-7.059-2.835l-1.258-1.594c-2.607-3.301-2.766-6.227-1.129-7.521l2.369-1.872
					c1.637-1.294,4.447-0.465,7.055,2.835L61.122,51.062z"/>
			</g>
		</g>
		<g>
			<path fill="#D7DFDF" d="M85.278,57.857c-0.566,0.438-1.514,0.165-2.115-0.611l0,0c-0.605-0.776-0.635-1.762-0.07-2.202
				l12.287-9.553c0.566-0.439,1.514-0.167,2.117,0.609l0,0c0.604,0.776,0.635,1.763,0.068,2.202L85.278,57.857z"/>
		</g>
		<g>
			<path fill="#D7DFDF" d="M74.759,61.751c0.68,0.221,0.986,1.159,0.684,2.095l0,0c-0.305,0.934-1.104,1.514-1.785,1.293
				l-14.803-4.811c-0.682-0.222-0.988-1.159-0.684-2.095l0,0c0.303-0.935,1.104-1.513,1.783-1.293L74.759,61.751z"/>
		</g>
		<g>
			<g>
				<g>
					<path fill="#CFC7BE" d="M92.995,77.843c0-14.135-11.229-26.985-25.08-26.985S42.833,63.708,42.833,77.843h6.492
						c0-10.477,8.324-20.362,18.59-20.362s18.59,9.886,18.59,20.362H92.995z"/>
				</g>
				<g>
					<path fill="#F4E028" d="M93.009,109.479c0,2.962-2.453,5.362-5.48,5.362h-39.27c-3.025,0-5.479-2.4-5.479-5.362V77.747
						c0-2.962,50.229-2.962,50.229,0V109.479z"/>
				</g>
				<g>
					<path fill="#DAC425" d="M73.7,90.604c0-3.092-2.504-5.598-5.596-5.598s-5.6,2.506-5.6,5.598c0,2.358,1.461,4.372,3.523,5.196
						v5.163c0,1.094,0.889,1.982,1.984,1.982c1.094,0,1.982-0.889,1.982-1.982v-5.095C72.153,95.093,73.7,93.031,73.7,90.604z"/>
				</g>
				<g>
					<path fill="#D0B82B" d="M62.296,90.604c0-3.092,2.506-5.598,5.6-5.598c0,0-3.902,2.602-3.902,5.694
						c0,3.148,2.945,5.015,2.945,5.015v5.306c0,1.096,1.049,1.925,1.049,1.925c-1.096,0-1.982-0.889-1.982-1.982v-5.095
						C63.845,95.093,62.296,93.031,62.296,90.604z"/>
				</g>
			</g>
			<g>
				<polygon fill="#F8E349" points="83.872,114.841 76.874,114.841 76.874,75.655 83.872,76.004 				"/>
			</g>
			<g>
				<g>
					<path fill="#E8E7E7" d="M76.874,52.729v7.43c2.889,1.831,5.309,4.483,6.998,7.579V57.271
						C81.796,55.378,79.435,53.832,76.874,52.729z"/>
				</g>
			</g>
		</g>
		<g>
			<path fill="#D7DFDF" d="M53.263,47.602c0.488,0.523,0.301,1.492-0.42,2.162l0,0c-0.717,0.67-1.697,0.79-2.186,0.266L40.048,38.64
				c-0.488-0.523-0.303-1.492,0.418-2.163l0,0c0.719-0.669,1.697-0.787,2.188-0.264L53.263,47.602z"/>
		</g>
		<g>
			<g>
				<path fill="#D7DFDF" d="M106.188,39.204c0.701,0.688,1.678,0.833,2.178,0.322l9.932-10.121
					c-0.738-0.939-1.498-1.858-2.287-2.754l-10.186,10.38C105.323,37.543,105.485,38.516,106.188,39.204z"/>
			</g>
		</g>
		<g>
			<g>
				<path fill="#D7DFDF" d="M110.665,37.933l-2.385-3.017c-1.645-2.082-5.369-1.881-9.57,1.438l-2.027,1.603
					c-4.199,3.319-5.258,6.897-3.609,8.98l2.385,3.016c1.645,2.083,5.369,1.882,9.57-1.438l2.027-1.604
					C111.255,43.594,112.312,40.016,110.665,37.933z M104.351,47.213c-3.301,2.607-6.227,2.767-7.52,1.129l-1.873-2.369
					c-1.295-1.638-0.465-4.447,2.836-7.056l1.592-1.259c3.303-2.609,6.227-2.768,7.521-1.13l1.873,2.369
					c1.293,1.637,0.465,4.447-2.836,7.057L104.351,47.213z"/>
			</g>
		</g>
		<g>
			<g>
				<path fill="#D7DFDF" d="M32.628,27.708c0.855-0.486,1.26-1.386,0.908-2.007l-4.061-7.142c-0.949,0.744-1.879,1.513-2.785,2.309
					l3.746,6.593C30.792,28.082,31.772,28.193,32.628,27.708z"/>
			</g>
			<g>
				<path fill="#D7DFDF" d="M114.78,27.917l3.078,2.303c0.457,0.343,0.984,0.549,1.555,0.634c-1.83-2.478-3.836-4.817-6.002-7
					C113.167,25.646,113.661,27.079,114.78,27.917z"/>
			</g>
		</g>
		<g>
			<g>
				<path fill="#D7DFDF" d="M32.021,22.748l-3.016,2.384c-2.082,1.646-1.881,5.37,1.439,9.57l1.602,2.028
					c3.318,4.2,6.898,5.256,8.98,3.609l3.016-2.384c2.082-1.646,1.883-5.371-1.438-9.57l-1.604-2.029
					C37.683,22.157,34.104,21.102,32.021,22.748z M41.3,29.062c2.609,3.301,2.768,6.227,1.131,7.521l-2.369,1.872
					c-1.637,1.294-4.447,0.465-7.057-2.835l-1.26-1.594c-2.607-3.3-2.766-6.227-1.127-7.521l2.367-1.872
					c1.639-1.294,4.449-0.464,7.057,2.835L41.3,29.062z"/>
			</g>
		</g>
		<g>
			<g>
				<path fill="#D7DFDF" d="M87.577,55.576l-2.385-3.017c-1.646-2.083-5.371-1.881-9.57,1.438l-2.029,1.603
					c-4.199,3.319-5.256,6.896-3.609,8.979l2.385,3.017c1.646,2.083,5.371,1.881,9.57-1.438l2.029-1.604
					C88.167,61.236,89.222,57.659,87.577,55.576z M81.261,64.856c-3.299,2.607-6.227,2.766-7.52,1.129l-1.871-2.37
					c-1.295-1.637-0.465-4.447,2.834-7.055l1.594-1.26c3.301-2.608,6.227-2.767,7.521-1.13l1.871,2.37
					c1.293,1.636,0.465,4.447-2.834,7.056L81.261,64.856z"/>
			</g>
		</g>
	</g>
</g>
</svg>
