<?xml version="1.0" encoding="utf-8"?>
<!-- Generator: Adobe Illustrator 16.0.0, SVG Export Plug-In . SVG Version: 6.00 Build 0)  -->
<!DOCTYPE svg PUBLIC "-//W3C//DTD SVG 1.1//EN" "http://www.w3.org/Graphics/SVG/1.1/DTD/svg11.dtd">
<svg version="1.1" id="Layer_1" xmlns="http://www.w3.org/2000/svg" xmlns:xlink="http://www.w3.org/1999/xlink" x="0px" y="0px"
	 width="136.913px" height="136.913px" viewBox="0 0 136.913 136.913" enable-background="new 0 0 136.913 136.913"
	 xml:space="preserve">
<g>
	<g>
		<g>
			<circle fill="#4ABC96" cx="68.456" cy="68.457" r="63.333"/>
		</g>
	</g>
	<g>
		<g>
			<path fill="#CC3432" d="M97.35,59.209c0-15.613-12.654-28.271-28.271-28.271c-15.611,0-28.271,12.658-28.271,28.271
				c0,12.625,8.273,23.313,19.701,26.949l8.504,18.803l8.439-18.738C88.98,82.654,97.35,71.908,97.35,59.209z M69.078,71.156
				c-6.602,0-11.945-5.35-11.945-11.947c0-6.6,5.344-11.947,11.945-11.947c6.6,0,11.949,5.348,11.949,11.947
				C81.027,65.807,75.678,71.156,69.078,71.156z"/>
		</g>
		<g>
			<path fill="#BA2E2D" d="M69.014,106.176l-8.871-19.609c-11.875-3.881-19.836-14.846-19.836-27.357
				c0-15.865,12.906-28.771,28.771-28.771S97.85,43.344,97.85,59.209c0,12.619-8.041,23.609-20.035,27.424L69.014,106.176z
				 M69.078,31.438c-15.314,0-27.771,12.459-27.771,27.771c0,12.148,7.777,22.787,19.352,26.473l0.213,0.066l8.141,17.996
				l8.076-17.934l0.217-0.066C88.994,82.125,96.85,71.463,96.85,59.209C96.85,43.896,84.391,31.438,69.078,31.438z M69.078,71.656
				c-6.863,0-12.445-5.584-12.445-12.447s5.582-12.447,12.445-12.447c6.865,0,12.449,5.584,12.449,12.447
				S75.943,71.656,69.078,71.656z M69.078,47.762c-6.311,0-11.445,5.137-11.445,11.447c0,6.314,5.135,11.447,11.445,11.447
				c6.313,0,11.449-5.133,11.449-11.447C80.527,52.898,75.391,47.762,69.078,47.762z"/>
		</g>
	</g>
	<g>
		<path fill="#DC4747" d="M60.658,85.682l0.213,0.066l8.098,17.902V71.652c-6.813-0.061-12.336-5.617-12.336-12.443
			s5.523-12.381,12.336-12.441V31.441C53.705,31.5,41.307,43.934,41.307,59.209C41.307,71.357,49.084,81.996,60.658,85.682z"/>
	</g>
</g>
</svg>
