<?xml version="1.0" encoding="utf-8"?>
<!-- Generator: Adobe Illustrator 16.0.0, SVG Export Plug-In . SVG Version: 6.00 Build 0)  -->
<!DOCTYPE svg PUBLIC "-//W3C//DTD SVG 1.1//EN" "http://www.w3.org/Graphics/SVG/1.1/DTD/svg11.dtd">
<svg version="1.1" id="Layer_1" xmlns="http://www.w3.org/2000/svg" xmlns:xlink="http://www.w3.org/1999/xlink" x="0px" y="0px"
	 width="136.913px" height="136.913px" viewBox="0 0 136.913 136.913" enable-background="new 0 0 136.913 136.913"
	 xml:space="preserve">
<g>
	<g>
		<g>
			<g>
				<g>
					<circle fill="#344E5D" cx="68.456" cy="68.457" r="63.333"/>
				</g>
			</g>
		</g>
	</g>
	<g>
		<g>
			<path fill="#DEBA24" d="M94.643,98.025c0,3.639-2.949,6.588-6.586,6.588h-39.02c-3.637,0-6.586-2.949-6.586-6.588l-8.207-21.404
				c0-3.637,2.947-6.586,6.586-6.586h55.434c3.639,0,6.586,2.949,6.586,6.586L94.643,98.025z"/>
		</g>
		<g>
			<path fill="#DEBA24" d="M55.889,91.885c1.604,2.924,0.535,6.594-2.389,8.197l0,0c-2.924,1.605-6.594,0.535-8.197-2.387
				L24.674,59.16c-1.604-2.924-0.535-6.594,2.389-8.197l0,0c2.922-1.605,6.592-0.535,8.197,2.387L55.889,91.885z"/>
		</g>
		<g>
			<path fill="#DEBA24" d="M81.207,91.885c-1.605,2.924-0.537,6.594,2.387,8.197l0,0c2.922,1.605,6.594,0.535,8.197-2.387
				L112.42,59.16c1.604-2.924,0.535-6.594-2.389-8.197l0,0c-2.922-1.605-6.592-0.535-8.197,2.387L81.207,91.885z"/>
		</g>
		<g>
			<path fill="#DEBA24" d="M75.283,91.859c0.014,3.336-2.676,6.051-6.01,6.066l0,0c-3.336,0.016-6.051-2.674-6.066-6.01
				l0.252-43.707c-0.016-3.336,2.676-6.051,6.01-6.066l0,0c3.334-0.016,6.049,2.674,6.066,6.008L75.283,91.859z"/>
		</g>
		<g>
			<path fill="#DEBA24" d="M32.506,50.824c0,0,18.479,11.436,32.383-6.494l-1.006,26.436l-19.395,2.195L32.506,50.824z"/>
		</g>
		<g>
			<path fill="#DEBA24" d="M104.955,50.641c0,0-16.465,12.35-30.371-5.578l-0.73,26.16l19.393,2.195L104.955,50.641z"/>
		</g>
		<g>
			<circle fill="#DEBA24" cx="25.188" cy="50.275" r="8.324"/>
		</g>
		<g>
			<circle fill="#DEBA24" cx="69.188" cy="41.037" r="8.324"/>
		</g>
		<g>
			<circle fill="#DEBA24" cx="111.725" cy="50.092" r="8.324"/>
		</g>
		<g>
			<path fill="#B8972F" d="M94.643,98.025c0,3.639-2.949,6.588-6.586,6.588h-39.02c-3.637,0-6.586-2.949-6.586-6.588
				c0,0,15.18-2.814,26.057-2.814S94.643,98.025,94.643,98.025z"/>
		</g>
		<g opacity="0.4">
			<g>
				<path fill="#F6E568" d="M71.68,87.092c0,0.682-0.896,1.234-2.006,1.234l0,0c-1.107,0-2.006-0.553-2.006-1.234V63.631
					c0-0.682,0.898-1.234,2.006-1.234l0,0c1.109,0,2.006,0.553,2.006,1.234V87.092z"/>
			</g>
		</g>
		<g opacity="0.4">
			<g>
				<path fill="#F6E568" d="M84.363,90.08c-0.371,0.57-1.441,0.529-2.389-0.09l0,0c-0.947-0.619-1.412-1.586-1.039-2.154
					l10.369-15.838c0.373-0.57,1.443-0.529,2.391,0.09l0,0c0.945,0.621,1.41,1.584,1.037,2.154L84.363,90.08z"/>
			</g>
		</g>
		<g opacity="0.4">
			<g>
				<path fill="#F6E568" d="M53.484,90.08c0.373,0.57,1.443,0.529,2.391-0.09l0,0c0.945-0.619,1.41-1.586,1.037-2.154L46.543,71.998
					c-0.373-0.57-1.443-0.529-2.391,0.09l0,0c-0.945,0.621-1.41,1.584-1.037,2.154L53.484,90.08z"/>
			</g>
		</g>
		<g opacity="0.4">
			<g>
				<path fill="#F6E568" d="M18.484,52.205c-1.463-1.463,0.143-5.514,1.605-6.979c1.465-1.461,5.006-2.85,6.469-1.387
					C28.02,45.303,19.947,53.666,18.484,52.205z"/>
			</g>
		</g>
		<g opacity="0.4">
			<g>
				<path fill="#F6E568" d="M62.441,42.688c-1.463-1.463,0.143-5.514,1.605-6.977s5.004-2.85,6.467-1.387
					S63.904,44.15,62.441,42.688z"/>
			</g>
		</g>
		<g opacity="0.4">
			<g>
				<path fill="#F6E568" d="M105.039,51.525c-1.465-1.463,0.143-5.514,1.605-6.979c1.463-1.461,5.004-2.85,6.467-1.387
					S106.5,52.986,105.039,51.525z"/>
			</g>
		</g>
	</g>
</g>
</svg>
