<?xml version="1.0" encoding="utf-8"?>
<!-- Generator: Adobe Illustrator 16.0.0, SVG Export Plug-In . SVG Version: 6.00 Build 0)  -->
<!DOCTYPE svg PUBLIC "-//W3C//DTD SVG 1.1//EN" "http://www.w3.org/Graphics/SVG/1.1/DTD/svg11.dtd">
<svg version="1.1" id="Layer_1" xmlns="http://www.w3.org/2000/svg" xmlns:xlink="http://www.w3.org/1999/xlink" x="0px" y="0px"
	 width="136.914px" height="136.913px" viewBox="0 0 136.914 136.913" enable-background="new 0 0 136.914 136.913"
	 xml:space="preserve">
<g>
	<g>
		<g>
			<g>
				<g>
					<g>
						<circle fill="#EDC92C" cx="68.184" cy="69.182" r="63.333"/>
					</g>
				</g>
			</g>
		</g>
	</g>
	<g>
		<g>
			<g>
				<path fill="#B03738" d="M111.623,87.977c2.225,0,4.028,1.805,4.028,4.029v3.684c0,2.225-1.804,4.028-4.028,4.028H26.607
					c-2.225,0-4.028-1.804-4.028-4.028v-3.684c0-2.225,1.804-4.029,4.028-4.029H111.623z"/>
			</g>
			<g>
				<circle fill="#E84849" cx="88.025" cy="94.001" r="8.901"/>
				<path fill="#FFFFFF" d="M88.025,104.402c-5.735,0-10.401-4.666-10.401-10.4c0-5.735,4.666-10.401,10.401-10.401
					c5.735,0,10.4,4.666,10.4,10.401C98.426,99.736,93.76,104.402,88.025,104.402z M88.025,86.601c-4.081,0-7.401,3.32-7.401,7.401
					s3.32,7.4,7.401,7.4c4.081,0,7.4-3.319,7.4-7.4S92.106,86.601,88.025,86.601z"/>
			</g>
		</g>
	</g>
</g>
<g>
	<g>
		<g>
			<g>
				<g>
					<g>
						<path fill="#E84849" d="M88.283,70.737c0,1.482-1.201,2.684-2.684,2.684h-10.38c-1.482,0-2.684-1.201-2.684-2.684V30.176
							c0-1.481,1.201-2.684,2.684-2.684h10.38c1.482,0,2.684,1.202,2.684,2.684V70.737z"/>
					</g>
				</g>
			</g>
			<g>
				<path fill="#E84849" d="M64.378,70.737c0,1.482-1.201,2.684-2.684,2.684h-10.38c-1.482,0-2.684-1.201-2.684-2.684V30.176
					c0-1.481,1.202-2.684,2.684-2.684h10.38c1.482,0,2.684,1.202,2.684,2.684V70.737z"/>
			</g>
		</g>
	</g>
</g>
</svg>
