<?xml version="1.0" encoding="utf-8"?>
<!-- Generator: Adobe Illustrator 16.0.0, SVG Export Plug-In . SVG Version: 6.00 Build 0)  -->
<!DOCTYPE svg PUBLIC "-//W3C//DTD SVG 1.1//EN" "http://www.w3.org/Graphics/SVG/1.1/DTD/svg11.dtd">
<svg version="1.1" id="Layer_1" xmlns="http://www.w3.org/2000/svg" xmlns:xlink="http://www.w3.org/1999/xlink" x="0px" y="0px"
	 width="136.913px" height="136.914px" viewBox="0 0 136.913 136.914" enable-background="new 0 0 136.913 136.914"
	 xml:space="preserve">
<g>
	<g>
		<g>
			<g>
				<g>
					<circle fill="#344E5D" cx="68.456" cy="68.457" r="63.333"/>
				</g>
			</g>
		</g>
	</g>
	<g>
		<g>
			<path fill="#83CECA" d="M44.125,103.215c0-14.354,11.637-29.701,25.988-29.701c14.354,0,25.99,15.348,25.99,29.701
				s-11.637,19.801-25.99,19.801C55.762,123.016,44.125,117.568,44.125,103.215z"/>
		</g>
		<g>
			<path fill="#72C8BC" d="M45.982,102.861c0,0,48.264-9.857,48.264,0c0,13.326-10.805,18.387-24.133,18.387
				C56.787,121.248,45.982,116.188,45.982,102.861z"/>
		</g>
		<g>
			<path fill="#83CECA" d="M74.857,79.406c0,1.572-0.768,2.846-1.717,2.846h-7.086c-0.947,0-1.715-1.273-1.715-2.846V52.845
				c0-1.572,0.768-2.847,1.715-2.847h7.086c0.949,0,1.717,1.274,1.717,2.847V79.406z"/>
		</g>
		<g>
			<path fill="#83CECA" d="M69.598,44.637c-5.979,0-8.352,0.702-8.352,3.094c0,0.068,0.02,0.138,0.025,0.207
				c0.271,2.294,2.52,6.601,8.326,6.601c5.809,0,8.059-4.307,8.33-6.601c0.006-0.069,0.025-0.139,0.025-0.207
				C77.953,45.339,75.58,44.637,69.598,44.637z"/>
			<g>
				<path fill="#4EBFB0" d="M69.598,48.762c4.488,0,6.27-0.526,6.27-2.319c0-0.542-1.68-1.237-5.961-1.237
					c-4.279,0-6.574,0.386-6.574,1.237C63.332,48.236,65.111,48.762,69.598,48.762z"/>
			</g>
		</g>
		<g>
			<path fill="#9FD8D6" d="M49.654,98.238c-2.813-3.301,1.219-11.498,4.518-14.309c3.305-2.816,10.936-5.125,13.746-1.824
				C70.732,85.404,52.465,101.541,49.654,98.238z"/>
		</g>
		<g>
			<g>
				<circle fill="#CBE9E6" cx="70.089" cy="34.843" r="6.47"/>
			</g>
			<g>
				<path fill="#DFF1EF" d="M65.01,35.638c-1.031-1.208,0.447-4.211,1.654-5.239c1.209-1.031,4.008-1.877,5.035-0.668
					C72.73,30.939,66.039,36.849,65.01,35.638z"/>
			</g>
		</g>
		<g>
			<g>
				<circle fill="#CBE9E6" cx="65.475" cy="20.607" r="4.621"/>
			</g>
			<g>
				<path fill="#DFF1EF" d="M61.848,21.176c-0.736-0.863,0.318-3.01,1.18-3.743c0.865-0.736,2.863-1.342,3.598-0.476
					C67.363,17.819,62.582,22.04,61.848,21.176z"/>
			</g>
		</g>
		<g>
			<g>
				<circle fill="#CBE9E6" cx="79.087" cy="24.012" r="4.991"/>
			</g>
			<g>
				<path fill="#DFF1EF" d="M75.17,24.626c-0.797-0.932,0.342-3.249,1.275-4.043s3.092-1.447,3.885-0.515
					C81.125,21.002,75.963,25.56,75.17,24.626z"/>
			</g>
		</g>
		<g>
			<g>
				<g>
					<path fill="#FFFFFF" d="M65.604,56.706c-0.355,0-0.654-0.26-0.67-0.591c-0.018-0.342,0.271-0.631,0.639-0.646
						c0.496-0.022,4.844-0.209,5.188-0.209c0.371,0,0.67,0.277,0.67,0.62c0,0.341-0.299,0.618-0.67,0.618
						c-0.236,0-3.193,0.123-5.123,0.204C65.625,56.706,65.615,56.706,65.604,56.706z"/>
				</g>
			</g>
			<g>
				<g>
					<path fill="#FFFFFF" d="M65.604,60.417c-0.355,0-0.654-0.258-0.67-0.59c-0.018-0.341,0.271-0.631,0.639-0.646
						c0.496-0.022,4.844-0.207,5.188-0.207c0.371,0,0.67,0.275,0.67,0.618c0,0.342-0.299,0.618-0.67,0.618
						c-0.236,0-3.193,0.123-5.123,0.206C65.625,60.417,65.615,60.417,65.604,60.417z"/>
				</g>
			</g>
			<g>
				<g>
					<path fill="#FFFFFF" d="M65.604,64.13c-0.355,0-0.654-0.259-0.67-0.591c-0.018-0.342,0.271-0.63,0.639-0.646
						c0.496-0.021,4.844-0.207,5.188-0.207c0.371,0,0.67,0.276,0.67,0.617c0,0.343-0.299,0.62-0.67,0.62
						c-0.236,0-3.193,0.122-5.123,0.205C65.625,64.13,65.615,64.13,65.604,64.13z"/>
				</g>
			</g>
			<g>
				<g>
					<path fill="#FFFFFF" d="M65.604,67.842c-0.355,0-0.654-0.258-0.67-0.588c-0.018-0.344,0.271-0.633,0.639-0.648
						c0.496-0.021,4.844-0.208,5.188-0.208c0.371,0,0.67,0.276,0.67,0.62c0,0.342-0.299,0.619-0.67,0.619
						c-0.236,0-3.193,0.123-5.123,0.205C65.625,67.842,65.615,67.842,65.604,67.842z"/>
				</g>
			</g>
			<g>
				<g>
					<path fill="#FFFFFF" d="M65.604,71.555c-0.355,0-0.654-0.258-0.67-0.59c-0.018-0.34,0.271-0.629,0.639-0.645
						c0.496-0.023,4.844-0.209,5.188-0.209c0.371,0,0.67,0.277,0.67,0.619s-0.299,0.619-0.67,0.619
						c-0.236,0-3.193,0.123-5.123,0.205C65.625,71.555,65.615,71.555,65.604,71.555z"/>
				</g>
			</g>
		</g>
	</g>
</g>
</svg>
