<?xml version="1.0" encoding="utf-8"?>
<!-- Generator: Adobe Illustrator 16.0.0, SVG Export Plug-In . SVG Version: 6.00 Build 0)  -->
<!DOCTYPE svg PUBLIC "-//W3C//DTD SVG 1.1//EN" "http://www.w3.org/Graphics/SVG/1.1/DTD/svg11.dtd">
<svg version="1.1" id="Layer_1" xmlns="http://www.w3.org/2000/svg" xmlns:xlink="http://www.w3.org/1999/xlink" x="0px" y="0px"
	 width="136.914px" height="136.914px" viewBox="0 0 136.914 136.914" enable-background="new 0 0 136.914 136.914"
	 xml:space="preserve">
<g>
	<g>
		<g>
			<g>
				<g>
					<circle fill="#4ABC96" cx="68.457" cy="68.458" r="63.333"/>
				</g>
			</g>
		</g>
	</g>
	<g>
		<g>
			<g>
				<path fill="#E0E4E3" d="M117.659,47.202c0-5.997-4.862-10.859-10.86-10.859H33.947c-5.997,0-10.859,4.862-10.859,10.859v45.175
					c0,5.996,4.862,10.859,10.859,10.859h72.852c5.998,0,10.86-4.863,10.86-10.859V47.202z"/>
			</g>
			<g>
				<g>
					<g>
						<path fill="#D1D3D3" d="M117.587,45.992c-0.603-5.427-5.2-9.649-10.789-9.649H33.947c-5.997,0-10.859,4.862-10.859,10.859
							v2.196h94.5V45.992z"/>
					</g>
				</g>
				<g>
					<circle fill="#E84849" cx="31.753" cy="42.672" r="2.375"/>
				</g>
				<g>
					<circle fill="#EFC849" cx="40.753" cy="42.672" r="2.375"/>
				</g>
				<g>
					<circle fill="#37B34C" cx="49.753" cy="42.672" r="2.375"/>
				</g>
			</g>
			<g>
				<g>
					<path fill="#9ED8D8" d="M97.07,94.251H96.88c-0.451-1.376-1.005-2.704-1.651-3.979l0.136-0.135
						c2.406-2.405,5.834-9.343,2.363-12.813l-2.115-2.115c-3.471-3.47-10.217-0.235-12.813,2.362l-0.136,0.136
						c-1.274-0.646-2.604-1.199-3.979-1.65v-0.189c0-3.402-2.482-10.73-7.391-10.73h-2.99c-4.906,0-7.391,7.057-7.391,10.73v0.19
						c-1.375,0.45-2.703,1.004-3.977,1.649L56.8,77.57c-2.021-2.021-9.344-5.832-12.813-2.361l-2.115,2.114
						c-3.471,3.47,0.148,10.6,2.361,12.813l0.137,0.137c-0.646,1.274-1.199,2.602-1.65,3.978h-0.189
						c-2.859,0-10.73,2.483-10.73,7.391v1.381c0.694,0.139,1.411,0.214,2.146,0.214h19.358c0-0.033-0.005-0.065-0.005-0.1
						c0-9.113,7.387-16.5,16.5-16.5s16.5,7.387,16.5,16.5c0,0.034-0.005,0.066-0.005,0.1h20.503c0.338,0,0.672-0.021,1.002-0.051
						v-1.544C107.8,96.734,100.744,94.251,97.07,94.251z"/>
				</g>
			</g>
		</g>
	</g>
</g>
</svg>
