<?xml version="1.0" encoding="utf-8"?>
<!-- Generator: Adobe Illustrator 16.0.0, SVG Export Plug-In . SVG Version: 6.00 Build 0)  -->
<!DOCTYPE svg PUBLIC "-//W3C//DTD SVG 1.1//EN" "http://www.w3.org/Graphics/SVG/1.1/DTD/svg11.dtd">
<svg version="1.1" id="Layer_1" xmlns="http://www.w3.org/2000/svg" xmlns:xlink="http://www.w3.org/1999/xlink" x="0px" y="0px"
	 width="136.913px" height="136.914px" viewBox="0 0 136.913 136.914" enable-background="new 0 0 136.913 136.914"
	 xml:space="preserve">
<g>
	<g>
		<g>
			<g>
				<g>
					<circle fill="#5B4F3F" cx="68.456" cy="68.458" r="63.333"/>
				</g>
			</g>
		</g>
	</g>
	<g>
		<g>
			<path fill="#76C271" d="M94.393,111.2c0,2.896-2.35,5.246-5.248,5.246H50.23c-2.898,0-5.248-2.35-5.248-5.246V75.019
				c0-2.898,2.35-5.248,5.248-5.248h38.914c2.898,0,5.248,2.35,5.248,5.248V111.2z"/>
		</g>
		<g>
			<path fill="#67BD61" d="M92.74,109.989c0,2.705-2.191,4.898-4.896,4.898H51.531c-2.705,0-4.896-2.193-4.896-4.898v-8.035
				c0-2.705,4.57-7.621,17.152-5.988c13.646,1.773,24.057-1.246,24.057-1.246c2.705,0,4.896,2.191,4.896,4.896V109.989z"/>
		</g>
		<g>
			<path fill="#76C271" d="M77.545,75.144c0,1.486-1.162,2.689-2.594,2.689H64.256c-1.43,0-2.592-1.203-2.592-2.689v-25.1
				c0-1.486,1.162-2.688,2.592-2.688h10.695c1.432,0,2.594,1.202,2.594,2.688V75.144z"/>
		</g>
		<g>
			<path fill="#76C271" d="M69.605,42.287c-9.027,0-12.607,0.664-12.607,2.925c0,0.064,0.027,0.13,0.037,0.195
				c0.408,2.166,3.805,6.236,12.57,6.236s12.164-4.07,12.572-6.236c0.01-0.065,0.037-0.131,0.037-0.195
				C82.215,42.951,78.635,42.287,69.605,42.287z"/>
			<g>
				<path fill="#5DBB63" d="M69.605,46.185c6.775,0,9.461-0.496,9.461-2.19c0-0.512-2.535-1.169-8.996-1.169
					c-6.459,0-9.924,0.364-9.924,1.169C60.146,45.688,62.832,46.185,69.605,46.185z"/>
			</g>
		</g>
		<g>
			<path fill="#A6D4A0" d="M50.564,90.489c-2.236-2.625-1.58-12.594,1.045-14.83c2.627-2.238,12.043-1.891,14.277,0.738
				C68.125,79.022,52.801,93.116,50.564,90.489z"/>
		</g>
		<g>
			<g>
				<circle fill="#CBE9E6" cx="70.068" cy="33.034" r="6.113"/>
			</g>
			<g>
				<path fill="#DFF1EF" d="M65.27,33.783c-0.975-1.142,0.42-3.979,1.563-4.951c1.145-0.973,3.787-1.773,4.76-0.631
					S66.242,34.929,65.27,33.783z"/>
			</g>
		</g>
		<g>
			<g>
				<circle fill="#CBE9E6" cx="65.708" cy="19.58" r="4.368"/>
			</g>
			<g>
				<path fill="#DFF1EF" d="M62.281,20.117c-0.697-0.815,0.301-2.844,1.115-3.537c0.818-0.695,2.705-1.268,3.398-0.448
					C67.492,16.944,62.975,20.934,62.281,20.117z"/>
			</g>
		</g>
		<g>
			<g>
				<circle fill="#CBE9E6" cx="78.571" cy="22.798" r="4.716"/>
			</g>
			<g>
				<path fill="#DFF1EF" d="M74.871,23.379c-0.754-0.882,0.322-3.071,1.205-3.82c0.883-0.753,2.922-1.367,3.67-0.488
					C80.498,19.953,75.619,24.261,74.871,23.379z"/>
			</g>
		</g>
		<g>
			<g>
				<g>
					<path fill="#FFFFFF" d="M63.232,53.691c-0.533,0-0.977-0.245-1.002-0.56c-0.027-0.322,0.404-0.596,0.953-0.608
						c0.742-0.021,7.234-0.197,7.744-0.197c0.553,0,1.004,0.262,1.004,0.585s-0.451,0.586-1.004,0.586
						c-0.354,0-4.768,0.114-7.648,0.192C63.266,53.691,63.248,53.691,63.232,53.691z"/>
				</g>
			</g>
			<g>
				<g>
					<path fill="#FFFFFF" d="M63.232,57.198c-0.533,0-0.977-0.242-1.002-0.558c-0.027-0.322,0.404-0.596,0.953-0.611
						c0.742-0.019,7.234-0.193,7.744-0.193c0.553,0,1.004,0.259,1.004,0.584c0,0.323-0.451,0.583-1.004,0.583
						c-0.354,0-4.768,0.117-7.648,0.195C63.266,57.198,63.248,57.198,63.232,57.198z"/>
				</g>
			</g>
			<g>
				<g>
					<path fill="#FFFFFF" d="M63.232,60.707c-0.533,0-0.977-0.245-1.002-0.558c-0.027-0.322,0.404-0.596,0.953-0.61
						c0.742-0.02,7.234-0.195,7.744-0.195c0.553,0,1.004,0.26,1.004,0.583c0,0.322-0.451,0.585-1.004,0.585
						c-0.354,0-4.768,0.117-7.648,0.195C63.266,60.707,63.248,60.707,63.232,60.707z"/>
				</g>
			</g>
			<g>
				<g>
					<path fill="#FFFFFF" d="M63.232,64.216c-0.533,0-0.977-0.245-1.002-0.558c-0.027-0.322,0.404-0.596,0.953-0.611
						c0.742-0.021,7.234-0.197,7.744-0.197c0.553,0,1.004,0.263,1.004,0.586c0,0.322-0.451,0.585-1.004,0.585
						c-0.354,0-4.768,0.117-7.648,0.195C63.266,64.216,63.248,64.216,63.232,64.216z"/>
				</g>
			</g>
			<g>
				<g>
					<path fill="#FFFFFF" d="M63.232,67.725c-0.533,0-0.977-0.246-1.002-0.559c-0.027-0.322,0.404-0.596,0.953-0.611
						c0.742-0.02,7.234-0.197,7.744-0.197c0.553,0,1.004,0.263,1.004,0.585s-0.451,0.586-1.004,0.586
						c-0.354,0-4.768,0.117-7.648,0.193C63.266,67.725,63.248,67.725,63.232,67.725z"/>
				</g>
			</g>
		</g>
	</g>
</g>
</svg>
