<?xml version="1.0" encoding="utf-8"?>
<!-- Generator: Adobe Illustrator 16.0.0, SVG Export Plug-In . SVG Version: 6.00 Build 0)  -->
<!DOCTYPE svg PUBLIC "-//W3C//DTD SVG 1.1//EN" "http://www.w3.org/Graphics/SVG/1.1/DTD/svg11.dtd">
<svg version="1.1" id="Layer_1" xmlns="http://www.w3.org/2000/svg" xmlns:xlink="http://www.w3.org/1999/xlink" x="0px" y="0px"
	 width="136.914px" height="136.913px" viewBox="0 0 136.914 136.913" enable-background="new 0 0 136.914 136.913"
	 xml:space="preserve">
<g>
	<g>
		<g>
			<g>
				<g>
					<g>
						<circle fill="#EDC92C" cx="68.457" cy="68.457" r="63.333"/>
					</g>
				</g>
			</g>
		</g>
	</g>
	<g>
		<g>
			<path fill="#E84849" d="M65.034,21.863c-2.281,0-4.131,1.084-4.131,3.365V76.16c0,2.281,1.85,3.365,4.131,3.365
				c4.812,0,25.588-24.291,25.588-28.57C90.622,46.674,67.209,21.863,65.034,21.863z"/>
		</g>
		<g>
			<g>
				<path fill="#B03738" d="M111.896,87.252c2.225,0,4.028,1.805,4.028,4.029v3.684c0,2.225-1.804,4.027-4.028,4.027H26.881
					c-2.225,0-4.028-1.803-4.028-4.027v-3.684c0-2.225,1.804-4.029,4.028-4.029H111.896z"/>
			</g>
			<g>
				<circle fill="#E84849" cx="88.299" cy="93.276" r="8.901"/>
				<path fill="#FFFFFF" d="M88.299,103.678c-5.735,0-10.401-4.666-10.401-10.4c0-5.736,4.666-10.402,10.401-10.402
					c5.734,0,10.4,4.666,10.4,10.402C98.699,99.012,94.033,103.678,88.299,103.678z M88.299,85.875c-4.081,0-7.401,3.32-7.401,7.402
					c0,4.08,3.32,7.4,7.401,7.4c4.08,0,7.4-3.32,7.4-7.4C95.699,89.195,92.379,85.875,88.299,85.875z"/>
			</g>
		</g>
	</g>
</g>
</svg>
