<?xml version="1.0" encoding="utf-8"?>
<!-- Generator: Adobe Illustrator 16.0.0, SVG Export Plug-In . SVG Version: 6.00 Build 0)  -->
<!DOCTYPE svg PUBLIC "-//W3C//DTD SVG 1.1//EN" "http://www.w3.org/Graphics/SVG/1.1/DTD/svg11.dtd">
<svg version="1.1" id="Layer_1" xmlns="http://www.w3.org/2000/svg" xmlns:xlink="http://www.w3.org/1999/xlink" x="0px" y="0px"
	 width="136.914px" height="136.914px" viewBox="0 0 136.914 136.914" enable-background="new 0 0 136.914 136.914"
	 xml:space="preserve">
<g>
	<g>
		<g>
			<g>
				<g>
					<circle fill="#4ABC96" cx="68.457" cy="68.457" r="63.333"/>
				</g>
			</g>
		</g>
	</g>
	<g>
		<g>
			<g>
				<defs>
					<path id="SVGID_1_" d="M90.23,111.4c5.638,0,10.21-4.57,10.21-10.21V32.695c0-5.64-4.572-10.21-10.21-10.21H47.755
						c-5.638,0-10.21,4.57-10.21,10.21v68.495c0,5.64,4.572,10.21,10.21,10.21H90.23z"/>
				</defs>
				<clipPath id="SVGID_2_">
					<use xlink:href="#SVGID_1_"  overflow="visible"/>
				</clipPath>
				<g clip-path="url(#SVGID_2_)">
					<path fill="#E0E4E3" d="M90.23,111.4c5.638,0,10.21-4.57,10.21-10.21V32.695c0-5.64-4.572-10.21-10.21-10.21H47.755
						c-5.638,0-10.21,4.57-10.21,10.21v68.495c0,5.64,4.572,10.21,10.21,10.21H90.23z"/>
				</g>
				<g clip-path="url(#SVGID_2_)">
					<g>
						<path fill="#9ED8D8" d="M74.493,128.474v-0.124c0.901-0.296,1.771-0.659,2.608-1.083l0.088,0.09
							c1.578,1.577,6.127,3.825,8.401,1.549l1.387-1.387c2.275-2.276,0.154-6.699-1.549-8.401l-0.089-0.089
							c0.424-0.835,0.786-1.708,1.082-2.609h0.124c2.23,0,7.035-1.627,7.035-4.845v-1.961c0-3.217-4.626-4.846-7.035-4.846h-0.124
							c-0.296-0.901-0.658-1.772-1.082-2.607l0.089-0.09c1.326-1.325,3.824-6.126,1.549-8.4l-1.386-1.388
							c-2.275-2.275-6.95,0.098-8.402,1.549L77.1,93.92c-0.836-0.423-1.706-0.786-2.607-1.081v-0.125
							c0-1.874-1.629-7.035-4.847-7.035h-1.96c-3.219,0-4.847,4.983-4.847,7.035v0.125c-0.902,0.295-1.772,0.658-2.608,1.081
							l-0.089-0.089c-1.326-1.326-6.126-3.824-8.401-1.549l-1.386,1.388c-2.275,2.274,0.097,6.949,1.549,8.4l0.089,0.089
							c-0.424,0.836-0.787,1.707-1.082,2.608h-0.125c-1.874,0-7.035,1.629-7.035,4.846v1.961c0,3.218,4.982,4.845,7.035,4.845h0.124
							c0.296,0.901,0.659,1.774,1.083,2.609l-0.089,0.089c-1.578,1.577-3.824,6.125-1.549,8.401l1.387,1.387
							c2.275,2.274,6.698,0.153,8.4-1.549l0.089-0.089c0.836,0.423,1.706,0.786,2.608,1.082v0.124c0,2.23,1.628,7.036,4.847,7.036
							h1.96C72.864,135.51,74.493,130.883,74.493,128.474z M57.847,110.594c0-5.975,4.843-10.818,10.818-10.818
							s10.818,4.844,10.818,10.818c0,5.976-4.843,10.818-10.818,10.818S57.847,116.569,57.847,110.594z"/>
					</g>
				</g>
			</g>
		</g>
		<g>
			<path fill="#78A4A4" d="M95.361,34.797c0,1.209-0.98,2.191-2.191,2.191H74.183c-1.21,0-2.192-0.982-2.192-2.191
				c0-1.211,0.982-2.192,2.192-2.192h18.986C94.38,32.604,95.361,33.586,95.361,34.797"/>
		</g>
		<g>
			<path fill="#78A4A4" d="M95.361,43.993c0,1.21-0.98,2.19-2.191,2.19H74.183c-1.21,0-2.192-0.98-2.192-2.19
				c0-1.211,0.982-2.191,2.192-2.191h18.986C94.38,41.802,95.361,42.782,95.361,43.993"/>
		</g>
		<g>
			<path fill="#78A4A4" d="M95.361,53.71c0,1.209-0.98,2.19-2.191,2.19H74.183c-1.21,0-2.192-0.981-2.192-2.19
				c0-1.212,0.982-2.191,2.192-2.191h18.986C94.38,51.519,95.361,52.498,95.361,53.71"/>
		</g>
		<g>
			<path fill="#78A4A4" d="M95.361,63.727c0,1.15-0.933,2.084-2.084,2.084H45.174c-1.152,0-2.084-0.934-2.084-2.084
				s0.932-2.085,2.084-2.085h48.103C94.428,61.642,95.361,62.576,95.361,63.727"/>
		</g>
		<g>
			<path fill="#78A4A4" d="M95.361,74.068c0,1.15-0.933,2.084-2.084,2.084H45.174c-1.152,0-2.084-0.934-2.084-2.084
				s0.932-2.084,2.084-2.084h48.103C94.428,71.984,95.361,72.918,95.361,74.068"/>
		</g>
		<g>
			<path fill="#9ED8D8" d="M65.825,51.503c0,1.846-1.496,3.342-3.343,3.342H46.603c-1.847,0-3.343-1.496-3.343-3.342V35.624
				c0-1.848,1.496-3.344,3.343-3.344h15.879c1.847,0,3.343,1.496,3.343,3.344V51.503z"/>
		</g>
	</g>
</g>
</svg>
