<?xml version="1.0" encoding="utf-8"?>
<!-- Generator: Adobe Illustrator 16.0.0, SVG Export Plug-In . SVG Version: 6.00 Build 0)  -->
<!DOCTYPE svg PUBLIC "-//W3C//DTD SVG 1.1//EN" "http://www.w3.org/Graphics/SVG/1.1/DTD/svg11.dtd">
<svg version="1.1" id="Layer_1" xmlns="http://www.w3.org/2000/svg" xmlns:xlink="http://www.w3.org/1999/xlink" x="0px" y="0px"
	 width="136.914px" height="136.914px" viewBox="0 0 136.914 136.914" enable-background="new 0 0 136.914 136.914"
	 xml:space="preserve">
<g>
	<g>
		<g>
			<g>
				<g>
					<circle fill="#344E5D" cx="68.457" cy="68.458" r="63.333"/>
				</g>
			</g>
		</g>
	</g>
	<g>
		<g>
			<path fill-rule="evenodd" clip-rule="evenodd" fill="#59A29F" d="M77.086,35.245c0,0,4.6-13.286,2.336-14.535
				c-4.45-1.542-13.624-1.425-17.04,0c-3.416,1.423,2.571,14.535,2.571,14.535H77.086z"/>
		</g>
		<g>
			<path fill-rule="evenodd" clip-rule="evenodd" fill="#7FCDCC" d="M71.309,19.558c-3.311,0.008-7.202,0.433-8.927,1.152
				c-3.416,1.423,2.571,14.535,2.571,14.535h6.277L71.309,19.558z"/>
		</g>
		<g>
			<path fill-rule="evenodd" clip-rule="evenodd" fill="#63AAA5" d="M65.002,34.912l-11.729,70.862L71,120.499l16.361-14.725
				L77.076,34.912H65.002z"/>
		</g>
		<g>
			<path fill-rule="evenodd" clip-rule="evenodd" fill="#97D6D5" d="M65.002,34.912l-11.729,70.862L71,120.499l0.152-85.587H65.002z
				"/>
		</g>
	</g>
</g>
</svg>
