<?xml version="1.0" encoding="utf-8"?>
<!-- Generator: Adobe Illustrator 16.0.0, SVG Export Plug-In . SVG Version: 6.00 Build 0)  -->
<!DOCTYPE svg PUBLIC "-//W3C//DTD SVG 1.1//EN" "http://www.w3.org/Graphics/SVG/1.1/DTD/svg11.dtd">
<svg version="1.1" id="Layer_1" xmlns="http://www.w3.org/2000/svg" xmlns:xlink="http://www.w3.org/1999/xlink" x="0px" y="0px"
	 width="136.913px" height="136.914px" viewBox="0 0 136.913 136.914" enable-background="new 0 0 136.913 136.914"
	 xml:space="preserve">
<g>
	<g>
		<g>
			<g>
				<g>
					<circle fill="#D62127" cx="68.456" cy="68.457" r="63.333"/>
				</g>
			</g>
		</g>
	</g>
	<g>
		<g>
			<polygon fill="#299ECC" points="55.963,105.787 66.213,26.459 69.021,22.941 70.537,22.866 74.18,26.459 84.432,105.787 
				69.654,118.057 			"/>
		</g>
		<g>
			<g>
				<polygon fill="#48C7F4" points="63.391,48.299 75.727,38.423 75.184,34.234 64.059,43.143 				"/>
			</g>
			<g>
				<g>
					<polygon fill="#48C7F4" points="71.791,24.104 65.91,28.813 65.303,33.512 74.148,26.431 					"/>
				</g>
			</g>
			<g>
				<polygon fill="#48C7F4" points="61.506,62.88 77.256,50.268 76.715,46.079 62.174,57.722 				"/>
			</g>
			<g>
				<polygon fill="#48C7F4" points="59.623,77.459 78.787,62.112 78.246,57.924 60.289,72.301 				"/>
			</g>
			<g>
				<polygon fill="#48C7F4" points="57.738,92.037 80.316,73.957 79.775,69.77 58.406,86.881 				"/>
			</g>
			<g>
				<polygon fill="#48C7F4" points="55.963,105.787 56.504,106.096 81.848,85.803 81.307,81.613 56.521,101.461 				"/>
			</g>
			<g>
				<polygon fill="#48C7F4" points="64.137,113.127 83.379,97.646 82.838,93.459 61.328,110.652 				"/>
			</g>
		</g>
		<g>
			<path fill="#344E5D" d="M62.855,19.966l2.58,11.563h9.658L77,19.966C77.135,16.747,62.717,17.018,62.855,19.966z"/>
		</g>
		<g>
			<polyline fill="#4B4A4B" points="65.303,33.512 54.432,80.904 58.541,85.836 			"/>
		</g>
	</g>
</g>
</svg>
