<?xml version="1.0" encoding="utf-8"?>
<!-- Generator: Adobe Illustrator 16.0.0, SVG Export Plug-In . SVG Version: 6.00 Build 0)  -->
<!DOCTYPE svg PUBLIC "-//W3C//DTD SVG 1.1//EN" "http://www.w3.org/Graphics/SVG/1.1/DTD/svg11.dtd">
<svg version="1.1" id="Layer_1" xmlns="http://www.w3.org/2000/svg" xmlns:xlink="http://www.w3.org/1999/xlink" x="0px" y="0px"
	 width="136.914px" height="136.913px" viewBox="0 0 136.914 136.913" enable-background="new 0 0 136.914 136.913"
	 xml:space="preserve">
<g>
	<g>
		<g>
			<g>
				<g>
					<circle fill="#EDC92C" cx="68.457" cy="68.457" r="63.333"/>
				</g>
			</g>
		</g>
	</g>
	<g>
		<g>
			<g>
				<path fill="#202121" d="M88.611,102.365c0,5.35-2.724,8.072-8.074,8.072H53.086c-5.352,0-8.074-2.723-8.074-8.072V36.156
					c0-5.35,2.723-8.072,8.074-8.072h27.451c5.351,0,8.074,2.723,8.074,8.072V102.365z"/>
			</g>
			<g>
				<g>
					<circle fill="#121212" cx="66.93" cy="104.785" r="3.229"/>
				</g>
				<g>
					<path fill="#202121" d="M67.407,106.066h-0.954c-0.214,0-0.416-0.084-0.567-0.236c-0.152-0.152-0.235-0.355-0.234-0.57v-0.951
						c0-0.441,0.359-0.801,0.802-0.801h0.954c0.219,0,0.417,0.082,0.567,0.232c0.151,0.152,0.234,0.355,0.234,0.57v0.949
						C68.209,105.705,67.849,106.066,67.407,106.066z M67.414,104.008h-0.961c-0.167,0-0.302,0.135-0.302,0.301v0.951
						c-0.001,0.082,0.031,0.16,0.089,0.217c0.057,0.059,0.133,0.09,0.213,0.09h0.954c0.166,0,0.302-0.137,0.302-0.307v-0.951
						c0-0.082-0.031-0.158-0.089-0.215C67.565,104.037,67.491,104.008,67.414,104.008z"/>
				</g>
			</g>
			<g>
				<path d="M71.925,34.139c0,0.52-0.422,0.941-0.941,0.941H62.64c-0.52,0-0.941-0.422-0.941-0.941l0,0
					c0-0.52,0.422-0.941,0.941-0.941h8.344C71.503,33.197,71.925,33.619,71.925,34.139L71.925,34.139z"/>
			</g>
			<g>
				<rect x="47.03" y="38.377" fill="#67B8CB" width="39.36" height="60.15"/>
			</g>
		</g>
		<g>
			<g>
				<path fill="#357180" d="M101.994,38.859c-13.997,0-25.346,8.637-25.346,19.281c0,3.543,1.277,6.848,3.463,9.699l-3.382,11.361
					l14.113-3.764c3.368,1.26,7.144,1.986,11.151,1.986c14,0,25.346-8.631,25.346-19.283
					C127.34,47.496,115.994,38.859,101.994,38.859z"/>
			</g>
			<g>
				<g>
					<circle fill="#67B8CB" cx="91.966" cy="58.219" r="3.086"/>
				</g>
				<g>
					<circle fill="#67B8CB" cx="102.068" cy="58.219" r="3.086"/>
				</g>
				<g>
					<circle fill="#67B8CB" cx="112.169" cy="58.219" r="3.086"/>
				</g>
			</g>
		</g>
	</g>
</g>
</svg>
