<?xml version="1.0" encoding="utf-8"?>
<!-- Generator: Adobe Illustrator 16.0.0, SVG Export Plug-In . SVG Version: 6.00 Build 0)  -->
<!DOCTYPE svg PUBLIC "-//W3C//DTD SVG 1.1//EN" "http://www.w3.org/Graphics/SVG/1.1/DTD/svg11.dtd">
<svg version="1.1" id="Layer_1" xmlns="http://www.w3.org/2000/svg" xmlns:xlink="http://www.w3.org/1999/xlink" x="0px" y="0px"
	 width="136.913px" height="136.913px" viewBox="0 0 136.913 136.913" enable-background="new 0 0 136.913 136.913"
	 xml:space="preserve">
<g>
	<g>
		<g>
			<g>
				<circle fill="#F37C2A" cx="68.456" cy="68.457" r="63.333"/>
			</g>
		</g>
	</g>
	<g>
		<g id="_32237776_1_">
			<path fill="#DDDCD9" d="M33.619,38.699h67.729c2.275,0,4.137,1.861,4.137,4.137v53.598c0,2.273-1.863,4.135-4.137,4.135H33.619
				c-2.275,0-4.137-1.861-4.137-4.135V42.836C29.482,40.561,31.344,38.699,33.619,38.699L33.619,38.699z"/>
		</g>
		<g>
			<g>
				<path fill="#626463" d="M47.352,70.053c0,0.793-0.645,1.438-1.438,1.438H34.176c-0.793,0-1.438-0.645-1.438-1.438v-6.348
					c0-0.795,0.645-1.438,1.438-1.438h11.738c0.793,0,1.438,0.643,1.438,1.438V70.053z"/>
			</g>
			<g>
				<path fill="#626463" d="M65.734,70.053c0,0.793-0.643,1.438-1.438,1.438H52.561c-0.795,0-1.439-0.645-1.439-1.438v-6.348
					c0-0.795,0.645-1.438,1.439-1.438h11.736c0.795,0,1.438,0.643,1.438,1.438V70.053z"/>
			</g>
			<g>
				<path fill="#626463" d="M83.881,70.053c0,0.793-0.643,1.438-1.438,1.438H70.707c-0.795,0-1.438-0.645-1.438-1.438v-6.348
					c0-0.795,0.643-1.438,1.438-1.438h11.736c0.795,0,1.438,0.643,1.438,1.438V70.053z"/>
			</g>
			<g>
				<path fill="#626463" d="M102.264,70.053c0,0.793-0.643,1.438-1.438,1.438H89.09c-0.793,0-1.438-0.645-1.438-1.438v-6.348
					c0-0.795,0.645-1.438,1.438-1.438h11.736c0.795,0,1.438,0.643,1.438,1.438V70.053z"/>
			</g>
		</g>
		<g>
			<g>
				<path fill="#626463" d="M47.352,82.553c0,0.793-0.645,1.438-1.438,1.438H34.176c-0.793,0-1.438-0.645-1.438-1.438v-6.348
					c0-0.795,0.645-1.438,1.438-1.438h11.738c0.793,0,1.438,0.643,1.438,1.438V82.553z"/>
			</g>
			<g>
				<path fill="#626463" d="M65.734,82.553c0,0.793-0.643,1.438-1.438,1.438H52.561c-0.795,0-1.439-0.645-1.439-1.438v-6.348
					c0-0.795,0.645-1.438,1.439-1.438h11.736c0.795,0,1.438,0.643,1.438,1.438V82.553z"/>
			</g>
			<g>
				<path fill="#626463" d="M83.881,82.553c0,0.793-0.643,1.438-1.438,1.438H70.707c-0.795,0-1.438-0.645-1.438-1.438v-6.348
					c0-0.795,0.643-1.438,1.438-1.438h11.736c0.795,0,1.438,0.643,1.438,1.438V82.553z"/>
			</g>
			<g>
				<path fill="#626463" d="M102.264,82.553c0,0.793-0.643,1.438-1.438,1.438H89.09c-0.793,0-1.438-0.645-1.438-1.438v-6.348
					c0-0.795,0.645-1.438,1.438-1.438h11.736c0.795,0,1.438,0.643,1.438,1.438V82.553z"/>
			</g>
		</g>
		<g>
			<g>
				<path fill="#626463" d="M47.352,95.053c0,0.793-0.645,1.438-1.438,1.438H34.176c-0.793,0-1.438-0.645-1.438-1.438v-6.348
					c0-0.795,0.645-1.438,1.438-1.438h11.738c0.793,0,1.438,0.643,1.438,1.438V95.053z"/>
			</g>
			<g>
				<path fill="#626463" d="M65.734,95.053c0,0.793-0.643,1.438-1.438,1.438H52.561c-0.795,0-1.439-0.645-1.439-1.438v-6.348
					c0-0.795,0.645-1.438,1.439-1.438h11.736c0.795,0,1.438,0.643,1.438,1.438V95.053z"/>
			</g>
			<g>
				<path fill="#626463" d="M83.881,95.053c0,0.793-0.643,1.438-1.438,1.438H70.707c-0.795,0-1.438-0.645-1.438-1.438v-6.348
					c0-0.795,0.643-1.438,1.438-1.438h11.736c0.795,0,1.438,0.643,1.438,1.438V95.053z"/>
			</g>
			<g>
				<path fill="#626463" d="M102.264,95.053c0,0.793-0.643,1.438-1.438,1.438H89.09c-0.793,0-1.438-0.645-1.438-1.438v-6.348
					c0-0.795,0.645-1.438,1.438-1.438h11.736c0.795,0,1.438,0.643,1.438,1.438V95.053z"/>
			</g>
		</g>
		<g id="_32237800_1_">
			<path fill="#D32027" d="M33.619,38.699h67.729c2.275,0,4.137,1.861,4.137,4.137v14.303H29.482V42.836
				C29.482,40.561,31.344,38.699,33.619,38.699L33.619,38.699z"/>
		</g>
		<g id="_32237272_1_" opacity="0.15">
			<path d="M88.242,38.699v7.715c0,1.936-1.584,3.518-3.518,3.518h-3.021c-1.936,0-3.518-1.582-3.518-3.518v-7.715H88.242
				L88.242,38.699z M46.727,38.699h10.055v7.715c0,1.936-1.582,3.518-3.516,3.518h-3.023c-1.934,0-3.516-1.582-3.516-3.518V38.699
				L46.727,38.699z"/>
		</g>
		<g id="_32234584_1_">
			<path fill="#FFFFFF" d="M81.703,29.049h3.021c0.969,0,1.764,0.795,1.764,1.764v15.602c0,0.971-0.795,1.764-1.764,1.764h-3.021
				c-0.971,0-1.764-0.793-1.764-1.764V30.813C79.939,29.844,80.732,29.049,81.703,29.049z M50.242,29.049h3.023
				c0.969,0,1.762,0.795,1.762,1.764v15.602c0,0.971-0.793,1.764-1.762,1.764h-3.023c-0.969,0-1.764-0.793-1.764-1.764V30.813
				C48.479,29.844,49.273,29.049,50.242,29.049z"/>
		</g>
	</g>
</g>
</svg>
