<?xml version="1.0" encoding="utf-8"?>
<!-- Generator: Adobe Illustrator 16.0.0, SVG Export Plug-In . SVG Version: 6.00 Build 0)  -->
<!DOCTYPE svg PUBLIC "-//W3C//DTD SVG 1.1//EN" "http://www.w3.org/Graphics/SVG/1.1/DTD/svg11.dtd">
<svg version="1.1" id="Layer_1" xmlns="http://www.w3.org/2000/svg" xmlns:xlink="http://www.w3.org/1999/xlink" x="0px" y="0px"
	 width="136.914px" height="136.914px" viewBox="0 0 136.914 136.914" enable-background="new 0 0 136.914 136.914"
	 xml:space="preserve">
<g>
	<g>
		<g>
			<g>
				<g>
					<circle fill="#EDC92C" cx="68.457" cy="68.458" r="63.333"/>
				</g>
			</g>
		</g>
	</g>
	<g>
		<g>
			<g>
				<path fill="#7FCDCC" d="M49.62,88.604c0,3.635-2.681,6.58-5.987,6.58H27.286c-3.309,0-5.99-2.945-5.99-6.58
					c0,0,1.372-14.254,2.495-17.816c1.123-3.563,2.683-6.581,5.991-6.581h11.854c3.308,0,5.116,2.193,5.99,6.581
					C48.499,75.173,49.62,88.604,49.62,88.604z"/>
			</g>
			<g>
				<g>
					<polygon fill="#FFFFFF" points="31.708,89.757 34.577,67.061 35.362,66.054 35.787,66.031 36.808,67.061 39.678,89.757 
						35.54,93.267 					"/>
				</g>
				<g>
					<g>
						<polygon fill="#8DD3D5" points="33.787,73.31 37.239,70.483 37.087,69.286 33.975,71.833 						"/>
					</g>
					<g>
						<polygon fill="#8DD3D5" points="33.26,77.481 37.668,73.872 37.517,72.675 33.447,76.005 						"/>
					</g>
					<g>
						<polygon fill="#8DD3D5" points="32.733,81.651 38.097,77.261 37.946,76.063 32.921,80.177 						"/>
					</g>
					<g>
						<polygon fill="#8DD3D5" points="32.206,85.821 38.525,80.649 38.374,79.452 32.392,84.347 						"/>
					</g>
					<g>
						<polygon fill="#8DD3D5" points="31.708,89.757 31.859,89.843 38.954,84.038 38.803,82.841 31.864,88.519 						"/>
					</g>
					<g>
						<polygon fill="#8DD3D5" points="33.995,91.854 39.382,87.427 39.23,86.228 33.211,91.147 						"/>
					</g>
				</g>
				<g>
					<ellipse fill="#6FC5BC" cx="35.648" cy="66.506" rx="1.859" ry="1.883"/>
				</g>
			</g>
			<g>
				<g>
					<circle fill="#E9C29C" cx="35.312" cy="50.548" r="12.071"/>
				</g>
				<g>
					<path fill="#904F22" d="M47.383,50.548l-8.231-7.406c0,0-1.751,2.903-6.427,5.017c-4.507,2.038-9.483,2.39-9.483,2.39
						c0-6.667,5.402-12.07,12.071-12.07C41.979,38.478,47.383,43.881,47.383,50.548z"/>
				</g>
				<g>
					<ellipse fill="#343433" cx="31.694" cy="52.341" rx="1.654" ry="1.747"/>
				</g>
				<g>
					<ellipse fill="#343433" cx="38.86" cy="52.341" rx="1.654" ry="1.747"/>
				</g>
				<g>
					<ellipse fill="#FFFFFF" cx="39.377" cy="51.679" rx="0.661" ry="0.699"/>
				</g>
				<g>
					<ellipse fill="#FFFFFF" cx="32.194" cy="51.679" rx="0.662" ry="0.699"/>
				</g>
			</g>
		</g>
		<g>
			<g>
				<path fill="#7FCDCC" d="M88.311,99.2c0,5.402-3.986,9.781-8.903,9.781H55.106c-4.919,0-8.905-4.379-8.905-9.781
					c0,0,2.04-21.189,3.71-26.486c1.67-5.297,3.986-9.781,8.905-9.781h17.622c4.918,0,7.606,3.26,8.904,9.781
					C86.641,79.233,88.311,99.2,88.311,99.2z"/>
			</g>
			<g>
				<g>
					<polygon fill="#FFFFFF" points="61.68,100.913 65.945,67.172 67.113,65.677 67.743,65.644 69.261,67.172 73.526,100.913 
						67.376,106.132 					"/>
				</g>
				<g>
					<g>
						<polygon fill="#8DD3D5" points="64.771,76.462 69.902,72.261 69.678,70.481 65.049,74.269 						"/>
					</g>
					<g>
						<polygon fill="#8DD3D5" points="63.986,82.665 70.541,77.3 70.315,75.519 64.265,80.47 						"/>
					</g>
					<g>
						<polygon fill="#8DD3D5" points="63.202,88.864 71.178,82.337 70.952,80.556 63.48,86.673 						"/>
					</g>
					<g>
						<polygon fill="#8DD3D5" points="62.419,95.065 71.814,87.374 71.59,85.595 62.695,92.872 						"/>
					</g>
					<g>
						<polygon fill="#8DD3D5" points="61.68,100.913 61.904,101.044 72.451,92.413 72.226,90.632 61.912,99.071 						"/>
					</g>
					<g>
						<polygon fill="#8DD3D5" points="65.08,104.034 73.09,97.45 72.863,95.669 63.913,102.981 						"/>
					</g>
				</g>
				<g>
					<ellipse fill="#6FC5BC" cx="67.538" cy="66.35" rx="2.764" ry="2.8"/>
				</g>
			</g>
			<g>
				<g>
					<circle fill="#E9C29C" cx="67.037" cy="42.625" r="17.945"/>
				</g>
				<g>
					<path fill="#904F22" d="M84.982,42.625L72.746,31.613c0,0-2.604,4.315-9.555,7.458c-6.701,3.029-14.1,3.554-14.1,3.554
						c0-9.912,8.032-17.945,17.945-17.945C76.948,24.68,84.982,32.713,84.982,42.625z"/>
				</g>
				<g>
					<ellipse fill="#343433" cx="61.659" cy="45.29" rx="2.458" ry="2.598"/>
				</g>
				<g>
					<ellipse fill="#343433" cx="72.313" cy="45.29" rx="2.458" ry="2.598"/>
				</g>
				<g>
					<ellipse fill="#FFFFFF" cx="73.082" cy="44.306" rx="0.983" ry="1.038"/>
				</g>
				<g>
					<ellipse fill="#FFFFFF" cx="62.4" cy="44.306" rx="0.983" ry="1.038"/>
				</g>
			</g>
		</g>
		<g>
			<g>
				<path fill="#7FCDCC" d="M113.591,88.604c0,3.635-2.682,6.58-5.99,6.58H91.255c-3.308,0-5.989-2.945-5.989-6.58
					c0,0,1.372-14.254,2.495-17.816c1.123-3.563,2.682-6.581,5.99-6.581h11.854c3.307,0,5.115,2.193,5.988,6.581
					C112.467,75.173,113.591,88.604,113.591,88.604z"/>
			</g>
			<g>
				<g>
					<polygon fill="#FFFFFF" points="95.677,89.757 98.547,67.061 99.331,66.054 99.756,66.031 100.775,67.061 103.646,89.757 
						99.509,93.267 					"/>
				</g>
				<g>
					<g>
						<polygon fill="#8DD3D5" points="97.756,73.31 101.209,70.483 101.057,69.286 97.943,71.833 						"/>
					</g>
					<g>
						<polygon fill="#8DD3D5" points="97.229,77.481 101.638,73.872 101.485,72.675 97.415,76.005 						"/>
					</g>
					<g>
						<polygon fill="#8DD3D5" points="96.701,81.651 102.065,77.261 101.914,76.063 96.889,80.177 						"/>
					</g>
					<g>
						<polygon fill="#8DD3D5" points="96.174,85.821 102.493,80.649 102.343,79.452 96.359,84.347 						"/>
					</g>
					<g>
						<polygon fill="#8DD3D5" points="95.677,89.757 95.827,89.843 102.923,84.038 102.771,82.841 95.832,88.519 						"/>
					</g>
					<g>
						<polygon fill="#8DD3D5" points="97.964,91.854 103.353,87.427 103.2,86.228 97.179,91.147 						"/>
					</g>
				</g>
				<g>
					<ellipse fill="#6FC5BC" cx="99.617" cy="66.506" rx="1.858" ry="1.883"/>
				</g>
			</g>
			<g>
				<g>
					<circle fill="#E9C29C" cx="99.281" cy="50.548" r="12.072"/>
				</g>
				<g>
					<path fill="#904F22" d="M111.353,50.548l-8.231-7.406c0,0-1.752,2.903-6.428,5.017c-4.508,2.038-9.484,2.39-9.484,2.39
						c0-6.667,5.403-12.07,12.071-12.07C105.947,38.478,111.353,43.881,111.353,50.548z"/>
				</g>
				<g>
					<ellipse fill="#343433" cx="95.662" cy="52.341" rx="1.653" ry="1.747"/>
				</g>
				<g>
					<ellipse fill="#343433" cx="102.83" cy="52.341" rx="1.653" ry="1.747"/>
				</g>
				<g>
					<ellipse fill="#FFFFFF" cx="103.346" cy="51.679" rx="0.661" ry="0.699"/>
				</g>
				<g>
					<ellipse fill="#FFFFFF" cx="96.161" cy="51.679" rx="0.661" ry="0.699"/>
				</g>
			</g>
		</g>
	</g>
</g>
</svg>
