<?xml version="1.0" encoding="utf-8"?>
<!-- Generator: Adobe Illustrator 16.0.0, SVG Export Plug-In . SVG Version: 6.00 Build 0)  -->
<!DOCTYPE svg PUBLIC "-//W3C//DTD SVG 1.1//EN" "http://www.w3.org/Graphics/SVG/1.1/DTD/svg11.dtd">
<svg version="1.1" id="Layer_1" xmlns="http://www.w3.org/2000/svg" xmlns:xlink="http://www.w3.org/1999/xlink" x="0px" y="0px"
	 width="136.914px" height="136.914px" viewBox="0 0 136.914 136.914" enable-background="new 0 0 136.914 136.914"
	 xml:space="preserve">
<g>
	<g>
		<g>
			<g>
				<g>
					<circle fill="#4ABC96" cx="68.457" cy="68.458" r="63.333"/>
				</g>
			</g>
		</g>
	</g>
	<g>
		<g>
			<g>
				<path fill="#344E5D" d="M85.083,113.454c0,4.412-3.259,7.992-7.276,7.992H57.949c-4.019,0-7.277-3.58-7.277-7.992
					c0,0,1.668-17.316,3.031-21.646c1.365-4.326,3.259-7.99,7.277-7.99h14.401c4.018,0,6.216,2.664,7.275,7.99
					C83.719,97.138,85.083,113.454,85.083,113.454z"/>
			</g>
			<g>
				<g>
					<polygon fill="#FFFFFF" points="63.32,114.853 66.807,87.282 67.761,86.06 68.275,86.032 69.516,87.282 73.002,114.853 
						67.976,119.116 					"/>
				</g>
				<g>
					<g>
						<polygon fill="#8DD3D5" points="65.847,94.872 70.041,91.438 69.856,89.983 66.074,93.079 						"/>
					</g>
					<g>
						<polygon fill="#8DD3D5" points="65.206,99.94 70.563,95.558 70.377,94.103 65.434,98.147 						"/>
					</g>
					<g>
						<polygon fill="#8DD3D5" points="64.565,105.007 71.082,99.673 70.898,98.218 64.793,103.216 						"/>
					</g>
					<g>
						<polygon fill="#8DD3D5" points="63.926,110.073 71.604,103.79 71.418,102.335 64.151,108.28 						"/>
					</g>
					<g>
						<polygon fill="#8DD3D5" points="63.32,114.853 63.505,114.96 72.123,107.907 71.939,106.45 63.511,113.349 						"/>
					</g>
					<g>
						<polygon fill="#8DD3D5" points="66.1,117.403 72.645,112.022 72.46,110.567 65.146,116.542 						"/>
					</g>
				</g>
				<g>
					<ellipse fill="#6FC5BC" cx="68.107" cy="86.608" rx="2.258" ry="2.289"/>
				</g>
			</g>
			<g>
				<g>
					<circle fill="#E9C29C" cx="67.699" cy="67.221" r="14.664"/>
				</g>
				<g>
					<path fill="#A46434" d="M82.363,67.221l-9.998-8.998c0,0-2.13,3.525-7.809,6.094c-5.476,2.476-11.521,2.904-11.521,2.904
						c0-8.098,6.563-14.664,14.664-14.664C75.799,52.558,82.363,59.123,82.363,67.221z"/>
				</g>
				<g>
					<ellipse fill="#343433" cx="63.304" cy="69.401" rx="2.009" ry="2.121"/>
				</g>
				<g>
					<ellipse fill="#343433" cx="72.011" cy="69.401" rx="2.009" ry="2.121"/>
				</g>
				<g>
					<ellipse fill="#FFFFFF" cx="72.639" cy="68.596" rx="0.803" ry="0.848"/>
				</g>
				<g>
					<ellipse fill="#FFFFFF" cx="63.91" cy="68.596" rx="0.803" ry="0.848"/>
				</g>
			</g>
		</g>
		<g>
			<g>
				<g>
					<path fill="#DFF1ED" d="M94.976,33.48c0,9.453-10.536,15.104-26.292,15.104c-15.757,0-25.846-5.65-25.846-15.104
						c0-12.419,10.089-16.447,25.846-16.447C84.439,17.033,94.976,21.397,94.976,33.48z"/>
				</g>
			</g>
			<g>
				<path fill="#E4F3F0" d="M94.976,33.48l-52.091-0.053c0,9.629,10.216,15.387,26.172,15.387c6.799,0,10.779-1.049,15.714-2.992
					c2.687,3.433-0.392,7.299-0.971,7.971c-0.058,0.066-0.114,0.214-0.065,0.258c0.119,0.111,0.344,0.031,0.492-0.021
					c7.221-2.419,7.569-8.403,7.066-11.951C94.071,39.729,94.976,36.874,94.976,33.48z"/>
			</g>
			<g>
				<circle fill="#CCE4DE" cx="55.817" cy="34.04" r="3.356"/>
			</g>
			<g>
				<circle fill="#CCE4DE" cx="68.125" cy="34.04" r="3.356"/>
			</g>
			<g>
				<circle fill="#CCE4DE" cx="80.208" cy="34.04" r="3.356"/>
			</g>
		</g>
	</g>
</g>
</svg>
