<?xml version="1.0" encoding="utf-8"?>
<!-- Generator: Adobe Illustrator 16.0.0, SVG Export Plug-In . SVG Version: 6.00 Build 0)  -->
<!DOCTYPE svg PUBLIC "-//W3C//DTD SVG 1.1//EN" "http://www.w3.org/Graphics/SVG/1.1/DTD/svg11.dtd">
<svg version="1.1" id="Layer_1" xmlns="http://www.w3.org/2000/svg" xmlns:xlink="http://www.w3.org/1999/xlink" x="0px" y="0px"
	 width="136.913px" height="136.913px" viewBox="0 0 136.913 136.913" enable-background="new 0 0 136.913 136.913"
	 xml:space="preserve">
<g>
	<g>
		<g>
			<g>
				<g>
					<circle fill="#E84849" cx="68.456" cy="68.457" r="63.333"/>
				</g>
			</g>
		</g>
	</g>
	<g>
		<g>
			<g>
				<path fill="#BB813C" d="M101.654,83.656c0,17.756-14.395,22.76-32.152,22.76c-17.756,0-32.152-5.004-32.152-22.76
					c0-17.758,14.396-41.545,32.152-41.545C87.26,42.111,101.654,65.898,101.654,83.656z"/>
			</g>
			<g>
				<polygon fill="#BB813C" points="68.783,40.975 69.678,40.975 74.027,40.975 84.383,28.027 84.383,23.07 77.223,23.07 
					77.223,20.258 69.678,20.258 68.783,20.258 61.238,20.258 61.238,23.07 54.078,23.07 54.078,28.027 64.436,40.975 				"/>
			</g>
			<g>
				<polygon fill="#A06D35" points="77.223,23.07 70.482,39.682 81.377,23.096 				"/>
			</g>
			<g>
				<polygon fill="#A06D35" points="61.293,23.07 68.033,39.682 57.139,23.096 				"/>
			</g>
			<g>
				<polygon fill="#A06D35" points="64.516,49.313 68.875,44.777 61.832,49.305 				"/>
			</g>
			<g>
				<polygon fill="#A06D35" points="74.814,49.313 70.459,44.777 77.5,49.305 				"/>
			</g>
			<g>
				<path fill="#8D602F" d="M75.623,42.27c0,0.768-0.623,1.391-1.393,1.391H64.59c-0.77,0-1.391-0.623-1.391-1.391l0,0
					c0-0.768,0.621-1.393,1.391-1.393h9.641C75,40.877,75.623,41.502,75.623,42.27L75.623,42.27z"/>
			</g>
			<g>
				<polygon fill="#A06D35" points="68.197,20.404 70.482,20.404 69.188,39.01 				"/>
			</g>
		</g>
		<g>
			<g>
				<path fill="#8D602F" d="M66.734,86.199h13.561c2.244,0,3.191,0.797,3.191,2.643v0.348c0,1.895-0.947,2.742-3.191,2.742H59.154
					c-2.193,0-3.191-0.797-3.191-2.742v-0.348c0-1.846,0.998-2.643,3.191-2.643h1.197l1.246-6.682h-2.045
					c-1.494,0-2.492-0.898-2.492-2.295v-0.598c0-1.445,0.998-2.344,2.492-2.344h2.992l0.998-5.434
					c1.146-6.434,4.887-9.824,10.92-9.824c5.982,0,9.324,3.141,9.324,6.682c0,3.74-4.039,3.541-4.09,3.441
					c-0.498-2.742-2.045-4.439-4.986-4.439s-4.338,1.498-4.986,4.986l-0.848,4.588h6.582c1.496,0,2.494,0.898,2.494,2.344v0.598
					c0,1.447-0.998,2.295-2.494,2.295H67.93L66.734,86.199z"/>
			</g>
		</g>
	</g>
</g>
</svg>
