<?xml version="1.0" encoding="utf-8"?>
<!-- Generator: Adobe Illustrator 16.0.0, SVG Export Plug-In . SVG Version: 6.00 Build 0)  -->
<!DOCTYPE svg PUBLIC "-//W3C//DTD SVG 1.1//EN" "http://www.w3.org/Graphics/SVG/1.1/DTD/svg11.dtd">
<svg version="1.1" id="Layer_1" xmlns="http://www.w3.org/2000/svg" xmlns:xlink="http://www.w3.org/1999/xlink" x="0px" y="0px"
	 width="136.914px" height="136.914px" viewBox="0 0 136.914 136.914" enable-background="new 0 0 136.914 136.914"
	 xml:space="preserve">
<g>
	<g>
		<g>
			<g>
				<g>
					<circle fill="#1FA85B" cx="68.457" cy="68.457" r="63.333"/>
				</g>
			</g>
		</g>
	</g>
	<g>
		<g>
			<path fill="#DDA027" d="M92.19,109.949c0.236,3.617-0.449,6.627-2.494,6.811c-2.046,0.184-12.771-10.931-15.985-10.644
				c-3.214,0.288-11.141,13.895-13.824,13.311c-2.686-0.582-3.116-2.667-3.354-6.283l2.099-39.698
				c-0.239-3.615,2.711-6.826,6.584-7.174l12.275-1.1c3.873-0.347,7.206,2.304,7.441,5.918L92.19,109.949z"/>
		</g>
		<g>
			<path fill="#DA9027" d="M86.185,108.323c0.048,3.641-3.229,8.426-5.271,8.569c-2.044,0.142-9.688-13.014-12.899-12.79
				c-3.211,0.224-11.8,13.737-14.439,13.098c-2.638-0.64-2.957-2.747-3.005-6.381l4.157-39.848
				c-0.046-3.637,3.053-6.806,6.922-7.076l12.262-0.858c3.868-0.271,7.045,2.457,7.092,6.095L86.185,108.323z"/>
		</g>
		<g>
			<path fill="#DEBA24" d="M83.621,110.561c-0.187,3.634-1.216,6.566-3.263,6.54c-2.048-0.029-11.37-12.213-14.588-12.252
				c-3.217-0.042-12.652,12.724-15.243,11.864c-2.59-0.854-2.774-2.98-2.588-6.61l6.711-39.396c0.188-3.632,3.481-6.536,7.358-6.486
				l12.284,0.158c3.876,0.05,6.868,3.034,6.681,6.667L83.621,110.561z"/>
		</g>
		<g>
			<path fill="#CC3432" d="M94.06,65.553c0,4.419-3.581,7.999-7.998,7.999H52.733c-4.417,0-7.998-3.58-7.998-7.999V32.226
				c0-4.417,3.581-7.998,7.998-7.998h33.328c4.417,0,7.998,3.581,7.998,7.998V65.553z"/>
		</g>
		<g>
			<path fill="#CC3432" d="M75.054,78.112c-3.124,3.123-8.189,3.123-11.313,0L40.175,54.547c-3.123-3.124-3.123-8.189,0-11.313
				l23.566-23.565c3.123-3.123,8.188-3.123,11.313,0L98.62,43.233c3.122,3.124,3.122,8.189,0,11.313L75.054,78.112z"/>
		</g>
		<g>
			<circle fill="#DDA027" cx="69.397" cy="48.89" r="21.997"/>
		</g>
		<g>
			<circle fill="#DEBA24" cx="69.397" cy="48.89" r="17.331"/>
		</g>
		<g opacity="0.4">
			<g>
				<path fill="#F6E568" d="M55.302,50.713c-2.708-2.706,0.264-10.201,2.971-12.907c2.707-2.707,9.26-5.275,11.965-2.568
					C72.944,37.943,58.008,53.419,55.302,50.713z"/>
			</g>
		</g>
	</g>
</g>
</svg>
