<?xml version="1.0" encoding="utf-8"?>
<!-- Generator: Adobe Illustrator 16.0.0, SVG Export Plug-In . SVG Version: 6.00 Build 0)  -->
<!DOCTYPE svg PUBLIC "-//W3C//DTD SVG 1.1//EN" "http://www.w3.org/Graphics/SVG/1.1/DTD/svg11.dtd">
<svg version="1.1" id="Layer_1" xmlns="http://www.w3.org/2000/svg" xmlns:xlink="http://www.w3.org/1999/xlink" x="0px" y="0px"
	 width="136.913px" height="136.914px" viewBox="0 0 136.913 136.914" enable-background="new 0 0 136.913 136.914"
	 xml:space="preserve">
<g>
	<g>
		<g>
			<g>
				<g>
					<circle fill="#EDC92C" cx="68.456" cy="68.457" r="63.333"/>
				</g>
			</g>
		</g>
	</g>
	<g>
		<g>
			<path fill="#36A5DD" d="M67.336,74.556c0,3.403-2.76,6.162-6.162,6.162L28.822,90.988c-3.404,0-6.162-2.759-6.162-6.162V52.475
				c0-3.403,2.758-6.162,6.162-6.162l32.352,10.271c3.402,0,6.162,2.759,6.162,6.162V74.556z"/>
		</g>
		<g>
			<path fill="#36A5DD" d="M72.984,74.556c0,3.403,2.758,6.162,6.162,6.162l32.352,10.271c3.402,0,6.162-2.759,6.162-6.162V52.475
				c0-3.403-2.76-6.162-6.162-6.162L79.146,56.583c-3.404,0-6.162,2.759-6.162,6.162V74.556z"/>
		</g>
		<g>
			<path fill="#1F92D0" d="M77.879,55.042h-14.41c-1.324,0-2.557,0.379-3.607,1.024c1,5.382,1.621,14.879-1.039,25.414
				c0.383,0.35,0.803,0.658,1.258,0.914c1.002,0.564,2.156,0.891,3.389,0.891h14.41c3.818,0,6.916-3.097,6.916-6.916v-14.41
				C84.795,58.14,81.697,55.042,77.879,55.042z"/>
		</g>
		<g>
			<path fill="#249BCB" d="M86.098,72.667c-0.012,0.499,0.205,0.868,0.488,0.823l13.072-5.882c0.281-0.044,0.521-0.483,0.533-0.982
				l0,0c0.012-0.498-0.207-0.865-0.49-0.822L86.82,63.952c-0.283,0.045-0.521,0.483-0.533,0.982L86.098,72.667z"/>
		</g>
		<g>
			<path fill="#249BCB" d="M58.674,73.041c0.014,0.499-0.205,0.868-0.488,0.823l-13.072-5.882c-0.281-0.044-0.52-0.483-0.531-0.982
				l0,0c-0.012-0.498,0.207-0.865,0.488-0.822l12.883-1.852c0.281,0.045,0.52,0.483,0.533,0.982L58.674,73.041z"/>
		</g>
	</g>
</g>
</svg>
