<?xml version="1.0" encoding="utf-8"?>
<!-- Generator: Adobe Illustrator 16.0.0, SVG Export Plug-In . SVG Version: 6.00 Build 0)  -->
<!DOCTYPE svg PUBLIC "-//W3C//DTD SVG 1.1//EN" "http://www.w3.org/Graphics/SVG/1.1/DTD/svg11.dtd">
<svg version="1.1" id="Layer_1" xmlns="http://www.w3.org/2000/svg" xmlns:xlink="http://www.w3.org/1999/xlink" x="0px" y="0px"
	 width="136.913px" height="136.913px" viewBox="0 0 136.913 136.913" enable-background="new 0 0 136.913 136.913"
	 xml:space="preserve">
<g>
	<g>
		<g>
			<circle fill="#A2D4DE" cx="68.456" cy="68.457" r="63.333"/>
		</g>
	</g>
	<g>
		<g>
			<g>
				<path fill="#6CC077" d="M30.49,64.387c0,0-9.879,21.545-7.936,26.725c0,0-1.619,24.295,42.922,21.865
					c0,0,5.297,12.547,17.043,17.227c17.85-4.049,32.836-15.623,41.434-31.225L94.145,27.945L12.627,38.541
					C8.92,45.445,6.465,53.117,5.543,61.254C10.172,62.734,22.797,66.342,30.49,64.387z"/>
			</g>
		</g>
		<g>
			<g>
				<path fill="#FFFFFF" d="M66.91,112.539c-1.846-6.053-3.934-21.848,16.494-37.734c7.158-5.57,7.893-11.627,7.246-15.727
					c-1.227-7.791-8.619-15.225-18.83-18.938c-14.713-5.352-24.271,5.371-31.951,13.984c-3.531,3.959-6.865,7.699-9.912,8.859
					C23.713,65.361,12.637,62.365,5.703,60c-0.137,1.016-0.248,2.037-0.336,3.068c7.355,2.457,18.73,5.361,25.658,2.719
					c3.73-1.42,7.137-5.24,11.082-9.666c7.447-8.352,15.889-17.816,28.688-13.16c9.201,3.346,15.832,9.855,16.893,16.584
					c0.746,4.736-1.373,9.193-6.125,12.893c-21.898,17.031-19.549,34.33-17.521,40.977c2.674,8.768,8.867,14.051,16.361,17.236
					c1.75-0.334,3.473-0.744,5.168-1.219C76.99,126.779,69.738,121.814,66.91,112.539z"/>
			</g>
		</g>
		<g>
			<g>
				<g>
					<path fill="#FFFFFF" d="M57.197,113.41c-13.514,0-25.229-2.504-31.229-9.703c-8.623-10.346-5.482-28.041,7.637-43.035
						l2.195,1.92C22.25,78.078,21.725,94.061,28.209,101.84c15.139,18.168,72.449,3.32,94.025-2.27l1.834-0.477l1.092,2.709
						l-2.195,0.588C109.012,106.006,80.441,113.41,57.197,113.41z"/>
				</g>
			</g>
		</g>
		<g>
			<g>
				<g>
					<path fill="#CC3432" d="M59.51,38.742c-6.156,0-11.148,4.994-11.148,11.152c0,8.109,10.521,18.951,11.469,18.951
						c0.945,0,10.828-11.797,10.828-18.951C70.658,43.736,65.668,38.742,59.51,38.742z M59.457,53.621
						c-2.418,0-4.375-1.906-4.375-4.26c0-2.35,1.957-4.256,4.375-4.256c2.416,0,4.375,1.906,4.375,4.256
						C63.832,51.715,61.873,53.621,59.457,53.621z"/>
				</g>
				<g>
					<path fill="#BA2E2D" d="M59.83,69.346c-1.4,0-11.969-11.199-11.969-19.451c0-6.426,5.227-11.652,11.648-11.652
						c6.424,0,11.648,5.227,11.648,11.652C71.158,57.135,61.223,69.346,59.83,69.346z M59.51,39.242
						c-5.871,0-10.648,4.777-10.648,10.652c0,7.58,9.393,17.533,10.957,18.414c1.494-0.971,10.34-11.73,10.34-18.414
						C70.158,44.02,65.381,39.242,59.51,39.242z M59.457,54.121c-2.688,0-4.875-2.135-4.875-4.76c0-2.623,2.188-4.756,4.875-4.756
						s4.875,2.133,4.875,4.756C64.332,51.986,62.145,54.121,59.457,54.121z M59.457,45.605c-2.137,0-3.875,1.684-3.875,3.756
						s1.738,3.76,3.875,3.76s3.875-1.688,3.875-3.76S61.594,45.605,59.457,45.605z"/>
				</g>
			</g>
		</g>
	</g>
</g>
</svg>
