<?xml version="1.0" encoding="utf-8"?>
<!-- Generator: Adobe Illustrator 16.0.0, SVG Export Plug-In . SVG Version: 6.00 Build 0)  -->
<!DOCTYPE svg PUBLIC "-//W3C//DTD SVG 1.1//EN" "http://www.w3.org/Graphics/SVG/1.1/DTD/svg11.dtd">
<svg version="1.1" id="Layer_1" xmlns="http://www.w3.org/2000/svg" xmlns:xlink="http://www.w3.org/1999/xlink" x="0px" y="0px"
	 width="136.914px" height="136.913px" viewBox="0 0 136.914 136.913" enable-background="new 0 0 136.914 136.913"
	 xml:space="preserve">
<g>
	<g>
		<g>
			<g>
				<circle fill="#1FA85B" cx="68.184" cy="69.183" r="63.333"/>
			</g>
		</g>
	</g>
</g>
<g>
	<g>
		<g>
			<g>
				<path fill="#81C78B" d="M103.173,83.153c-4.9-4.713-9.861-7.678-15.798-3.285c-5.974,4.419-6.606,9.326-6.606,9.326
					s0.561,9.404-22.107-10.983C38.261,55.534,47.67,56.095,47.67,56.095s4.905-0.632,9.326-6.605
					c4.393-5.937,1.292-10.77-3.286-15.8c-14.648-16.094-23.528,2.195-23.528,2.195C19.812,53.34,37.099,74.084,50.435,86.442
					c12.361,13.335,33.096,30.606,50.543,20.237C100.978,106.68,119.497,98.859,103.173,83.153z"/>
			</g>
		</g>
		<g>
			<g>
				<path fill="#404040" d="M38.298,27.8c-0.012,0.004-0.019,0.014-0.031,0.019c0.132-0.055,0.266-0.104,0.4-0.153
					C38.544,27.71,38.419,27.751,38.298,27.8z"/>
			</g>
		</g>
	</g>
	<g>
		<g>
			<g>
				<path fill="#63BD71" d="M84.311,35.053c3.905,0.002,7.809,0.001,11.713,0.001c2.121-0.001,3.895,1.771,3.896,3.896
					c-0.001,3.894-0.001,7.791-0.001,11.687c0,5.028-7.79,5.03-7.79,0.001c0-3.896,0.001-7.792,0-11.688
					c1.298,1.297,2.597,2.596,3.896,3.896c-3.905-0.002-7.809-0.002-11.713-0.002C79.282,42.844,79.281,35.054,84.311,35.053
					L84.311,35.053z"/>
			</g>
		</g>
		<g>
			<g>
				<path fill="#63BD71" d="M77.561,46.344c2.768,0.001,5.535,0,8.301,0c1.505,0,2.763,1.259,2.763,2.762
					c0.001,2.762,0.001,5.524-0.001,8.285c0,3.562-5.521,3.562-5.521,0c0-2.763,0-5.525-0.002-8.287
					c0.923,0.925,1.842,1.844,2.763,2.764c-2.767-0.002-5.534,0-8.302,0C73.998,51.867,73.996,46.344,77.561,46.344L77.561,46.344z"
					/>
			</g>
		</g>
		<g>
			<g>
				<path fill="#63BD71" d="M71.148,55.075c2.187,0.001,4.375,0,6.56-0.001c1.19,0.001,2.183,0.994,2.183,2.184
					c0.001,2.182,0.001,4.365,0,6.547c0,2.815-4.363,2.815-4.363,0c0-2.184,0-4.366-0.002-6.548
					c0.729,0.729,1.456,1.456,2.184,2.183c-2.187-0.001-4.374,0-6.561,0C68.333,59.439,68.332,55.075,71.148,55.075L71.148,55.075z"
					/>
			</g>
		</g>
		<g>
			<g>
				<path fill="#63BD71" d="M66.147,62.082c1.685,0,3.37,0,5.055-0.002c0.917,0.002,1.682,0.768,1.682,1.681
					c0,1.683,0,3.364,0,5.047c0,2.168-3.362,2.168-3.362,0c0-1.684,0-3.365-0.001-5.047c0.562,0.563,1.122,1.123,1.682,1.683
					c-1.685-0.001-3.37,0-5.055-0.001C63.978,65.443,63.977,62.082,66.147,62.082L66.147,62.082z"/>
			</g>
		</g>
	</g>
</g>
</svg>
