<?xml version="1.0" encoding="utf-8"?>
<!-- Generator: Adobe Illustrator 16.0.0, SVG Export Plug-In . SVG Version: 6.00 Build 0)  -->
<!DOCTYPE svg PUBLIC "-//W3C//DTD SVG 1.1//EN" "http://www.w3.org/Graphics/SVG/1.1/DTD/svg11.dtd">
<svg version="1.1" id="Layer_1" xmlns="http://www.w3.org/2000/svg" xmlns:xlink="http://www.w3.org/1999/xlink" x="0px" y="0px"
	 width="136.913px" height="136.914px" viewBox="0 0 136.913 136.914" enable-background="new 0 0 136.913 136.914"
	 xml:space="preserve">
<g>
	<g>
		<g>
			<circle fill="#4ABC96" cx="68.457" cy="68.457" r="63.333"/>
		</g>
	</g>
	<g>
		<g>
			<g>
				<g>
					<g>
						<path fill="#037F7C" d="M76.815,62.017c-11.297-11.296-18.854-7.949-35.148,8.347c-16.297,16.296-19.645,23.853-8.348,35.149
							c11.299,11.298,18.854,7.95,35.15-8.346C84.767,80.87,88.112,73.314,76.815,62.017z M39.903,98.931
							c-7.877-7.879-4.133-11.736,7.232-23.099c11.361-11.364,15.219-15.108,23.098-7.231c7.875,7.877,4.131,11.735-7.232,23.098
							C51.638,103.062,47.78,106.807,39.903,98.931z"/>
					</g>
				</g>
			</g>
			<g>
				<g>
					<path fill="#FFFFFF" d="M35.03,88.454l-1.654-5.209c-6.248,7.023-6.994,11.166-1.652,16.755l4.129-3.828
						C33.083,93.277,32.997,91.26,35.03,88.454z"/>
				</g>
			</g>
			<g>
				<g>
					<path fill="#F4E028" d="M55.821,67.645c0.855,2.951,2.9,5.914,6.176,9.19c11.299,11.297,18.854,7.949,35.15-8.347
						s19.645-23.853,8.348-35.149s-18.854-7.949-35.15,8.347c-6.111,6.111-10.678,11.402-13.059,15.714c0,0,1.26-0.674,2.697-1.2
						c0.867-0.317,1.857-0.53,2.51-0.654c2.541-0.484,5.127,0.296,5.127,0.296c1.93-2.371,4.781-5.276,8.193-8.688
						c11.361-11.363,15.219-15.108,23.098-7.23c7.877,7.877,4.133,11.734-7.232,23.099c-11.363,11.362-15.221,15.107-23.098,7.23
						c-2.029-2.029-3.287-3.791-3.842-5.481c-0.01-0.033-1.141-0.451-2.605-0.357c-0.902,0.058-2.633,0.592-3.943,1.48
						C56.862,66.795,55.813,67.612,55.821,67.645z"/>
				</g>
			</g>
			<g>
				<g>
					<path fill="#FFFFFF" d="M103.942,49.938l1.654,5.21c6.248-7.023,6.994-11.167,1.65-16.755l-4.127,3.827
						C105.888,45.114,105.976,47.133,103.942,49.938z"/>
				</g>
			</g>
		</g>
	</g>
</g>
</svg>
