<?xml version="1.0" encoding="utf-8"?>
<!-- Generator: Adobe Illustrator 16.0.0, SVG Export Plug-In . SVG Version: 6.00 Build 0)  -->
<!DOCTYPE svg PUBLIC "-//W3C//DTD SVG 1.1//EN" "http://www.w3.org/Graphics/SVG/1.1/DTD/svg11.dtd">
<svg version="1.1" id="Layer_1" xmlns="http://www.w3.org/2000/svg" xmlns:xlink="http://www.w3.org/1999/xlink" x="0px" y="0px"
	 width="136.913px" height="136.913px" viewBox="0 0 136.913 136.913" enable-background="new 0 0 136.913 136.913"
	 xml:space="preserve">
<g>
	<g>
		<g>
			<g>
				<g>
					<circle fill="#EDC92C" cx="68.456" cy="68.457" r="63.333"/>
				</g>
			</g>
		</g>
	</g>
	<g>
		<g>
			<g>
				<path fill="#BB813C" d="M101.191,87.268c0,17.756-14.395,22.76-32.152,22.76s-32.152-5.004-32.152-22.76
					c0-17.758,14.395-41.545,32.152-41.545S101.191,69.51,101.191,87.268z"/>
			</g>
			<g>
				<polygon fill="#BB813C" points="68.32,44.586 69.215,44.586 73.564,44.586 83.92,31.639 83.92,26.682 76.76,26.682 
					76.76,23.869 69.215,23.869 68.32,23.869 60.775,23.869 60.775,26.682 53.615,26.682 53.615,31.639 63.973,44.586 				"/>
			</g>
			<g>
				<polygon fill="#A06D35" points="76.76,26.682 70.02,43.293 80.914,26.707 				"/>
			</g>
			<g>
				<polygon fill="#A06D35" points="60.83,26.682 67.57,43.293 56.676,26.707 				"/>
			</g>
			<g>
				<polygon fill="#A06D35" points="64.053,52.924 68.412,48.389 61.369,52.916 				"/>
			</g>
			<g>
				<polygon fill="#A06D35" points="74.352,52.924 69.994,48.389 77.037,52.916 				"/>
			</g>
			<g>
				<path fill="#8D602F" d="M75.16,45.881c0,0.768-0.623,1.391-1.393,1.391h-9.641c-0.77,0-1.393-0.623-1.393-1.391l0,0
					c0-0.768,0.623-1.393,1.393-1.393h9.641C74.537,44.488,75.16,45.113,75.16,45.881L75.16,45.881z"/>
			</g>
			<g>
				<polygon fill="#A06D35" points="67.732,24.016 70.02,24.016 68.725,42.621 				"/>
			</g>
		</g>
		<g>
			<g>
				<path fill="#8D602F" d="M59.65,85.504c-1.846,0-2.643-0.898-2.643-2.094v-0.549c0-1.146,0.797-2.094,2.643-2.094h4.836
					c0.051,0-7.779-12.018-7.779-12.018c-0.248-0.398,0.748-3.041,4.24-3.041c1.494,0,2.643,0.748,3.488,2.543l5.535,10.42
					l5.686-10.42c0.996-1.895,2.143-2.594,3.59-2.594c2.99,0,4.088,2.742,3.889,3.092l-7.779,12.018h4.787
					c1.895,0,2.693,0.947,2.693,2.094v0.549c0,1.195-0.799,2.094-2.693,2.094h-6.93v2.643h6.93c1.895,0,2.693,0.898,2.693,2.094
					v0.549c0,1.146-0.799,2.094-2.693,2.094h-6.93v2.293c0,2.244-0.848,3.393-2.941,3.393h-0.75c-2.043,0-2.842-1.148-2.842-3.393
					v-2.293H59.65c-1.846,0-2.643-0.947-2.643-2.094V90.24c0-1.195,0.797-2.094,2.643-2.094h7.029v-2.643H59.65z"/>
			</g>
		</g>
	</g>
</g>
</svg>
