<?xml version="1.0" encoding="utf-8"?>
<!-- Generator: Adobe Illustrator 16.0.0, SVG Export Plug-In . SVG Version: 6.00 Build 0)  -->
<!DOCTYPE svg PUBLIC "-//W3C//DTD SVG 1.1//EN" "http://www.w3.org/Graphics/SVG/1.1/DTD/svg11.dtd">
<svg version="1.1" id="Layer_1" xmlns="http://www.w3.org/2000/svg" xmlns:xlink="http://www.w3.org/1999/xlink" x="0px" y="0px"
	 width="136.914px" height="136.914px" viewBox="0 0 136.914 136.914" enable-background="new 0 0 136.914 136.914"
	 xml:space="preserve">
<g>
	<g>
		<g>
			<g>
				<g>
					<circle fill="#344E5D" cx="68.457" cy="68.457" r="63.333"/>
				</g>
			</g>
		</g>
	</g>
	<g>
		<g>
			<g>
				<ellipse fill="#F6A2A3" cx="67.206" cy="78.753" rx="39.682" ry="37.581"/>
			</g>
			<g>
				<g>
					<path fill="#F6A2A3" d="M102.149,56.943c-5.708,0-10.334,4.627-10.334,10.335c0,5.707,4.626,10.334,10.334,10.334
						c5.707,0,10.335-4.627,10.335-10.334C112.484,61.57,107.856,56.943,102.149,56.943z M102.149,74.606
						c-4.048,0-7.329-3.281-7.329-7.328c0-4.048,3.281-7.328,7.329-7.328c4.047,0,7.327,3.28,7.327,7.328
						C109.477,71.325,106.196,74.606,102.149,74.606z"/>
				</g>
			</g>
			<g>
				<path fill="#F9C7C7" d="M89.808,103.435c-3.875-2.296-2.677-11.703-0.379-15.578c2.3-3.873,9.02-8.704,12.889-6.408
					C106.194,83.744,93.68,105.73,89.808,103.435z"/>
			</g>
			<g>
				<g>
					<path fill="none" d="M104.493,64.063c-1.706,0.704-2.908,2.382-2.908,4.343c0,2.594,2.104,4.697,4.697,4.697
						c2.596,0,4.698-2.104,4.698-4.697c0-1.302-0.53-2.479-1.386-3.329l-3.629,1.859L104.493,64.063z"/>
				</g>
			</g>
			<g>
				<path fill="#F6A2A3" d="M104.824,58.233c-0.772,1.206-1.084,2.705-0.751,4.213c0.667,3.008,3.643,4.905,6.649,4.24
					c3.008-0.666,4.905-3.644,4.238-6.648c-0.503-2.273,2.011-5.366,3.05-0.676c1.037,4.69-1.924,9.334-6.613,10.372
					c-4.69,1.038-9.333-1.923-10.372-6.613c-0.443-2.002-0.152-3.994,0.686-5.702L104.824,58.233z"/>
			</g>
			<g>
				<g>
					
						<ellipse transform="matrix(0.9786 -0.2057 0.2057 0.9786 -13.0142 10.516)" fill="#E69091" cx="44.057" cy="67.834" rx="7.772" ry="9.35"/>
				</g>
				<g>
					
						<ellipse transform="matrix(0.9786 -0.2057 0.2057 0.9786 -13.1098 10.6659)" fill="#FFFFFF" cx="44.732" cy="68.372" rx="7.184" ry="8.644"/>
				</g>
				<g>
					
						<ellipse transform="matrix(0.9786 -0.2057 0.2057 0.9786 -13.516 10.8209)" fill="#343433" cx="45.272" cy="70.399" rx="5.259" ry="6.937"/>
				</g>
				<g>
					<ellipse fill="#FFFFFF" cx="44.609" cy="66.913" rx="1.659" ry="1.106"/>
				</g>
			</g>
			<g>
				<g>
					
						<ellipse transform="matrix(-0.9786 -0.2058 0.2058 -0.9786 129.3399 149.7619)" fill="#E69091" cx="72.457" cy="68.156" rx="7.772" ry="9.351"/>
				</g>
				<g>
					
						<ellipse transform="matrix(-0.9786 -0.2058 0.2058 -0.9786 127.8886 150.6872)" fill="#FFFFFF" cx="71.781" cy="68.692" rx="7.184" ry="8.645"/>
				</g>
				<g>
					
						<ellipse transform="matrix(-0.9786 -0.2057 0.2057 -0.9786 126.408 154.5869)" fill="#343433" cx="71.241" cy="70.722" rx="5.259" ry="6.938"/>
				</g>
				<g>
					<ellipse fill="#FFFFFF" cx="71.903" cy="67.235" rx="1.659" ry="1.104"/>
				</g>
			</g>
			<g>
				<g>
					<ellipse fill="#E69091" cx="58.749" cy="85.187" rx="16.252" ry="16.009"/>
				</g>
				<g>
					<g>
						<path fill="#F6A2A3" d="M73.062,84.217c0,8.842-7.277,4.365-16.253,4.365c-8.977,0-16.253,4.477-16.253-4.365
							c0-8.845,7.276-16.012,16.253-16.012C65.784,68.205,73.062,75.372,73.062,84.217z"/>
					</g>
					<g>
						<ellipse fill="#E69091" cx="61.384" cy="82.438" rx="2.793" ry="2.751"/>
					</g>
					<g>
						<ellipse fill="#E69091" cx="51.958" cy="82.438" rx="2.793" ry="2.751"/>
					</g>
				</g>
			</g>
			<g>
				<path fill="#D16B6B" d="M55.403,48.689h7.642c0,0,7.641-5.512,10.271-5.512l-6.89-0.877
					C66.427,42.301,59.788,42.678,55.403,48.689z"/>
			</g>
			<g>
				<g>
					<path fill="#D16B6B" d="M67.777,43.554l3.039,0.387c0.998-0.46,1.887-0.763,2.5-0.763l-6.89-0.877
						c0,0-6.639,0.377-11.023,6.389h3.513C62.441,43.856,67.777,43.554,67.777,43.554z"/>
				</g>
				<g>
					<path fill="#AF4949" d="M67.777,43.554c0,0-5.336,0.303-8.861,5.136h4.129c0,0,4.49-3.237,7.771-4.749L67.777,43.554z"/>
				</g>
			</g>
			<g>
				<g>
					<g>
						<path fill="#DAC425" d="M64.834,38.724c-3.932,0.439-7.626-3.748-8.251-9.352c-0.625-5.604,2.056-10.503,5.989-10.941
							c3.934-0.439,7.008-1.81,8.253,9.353C72.085,39.084,68.769,38.285,64.834,38.724z"/>
					</g>
					<g>
						
							<ellipse transform="matrix(0.1108 0.9938 -0.9938 0.1108 87.2659 -41.0127)" fill="#F4E028" cx="66.552" cy="28.26" rx="10.209" ry="7.166"/>
					</g>
					<g>
						<path fill="#F9F29A" d="M59.689,24.294c0,0-0.515,2.049-0.334,4.083l-2.845,0.348c0,0-0.36-2.388,0.356-4.102L59.689,24.294z"
							/>
					</g>
				</g>
				<g>
					<g>
						<path fill="#EDE7DD" d="M66.552,20.543v0.849c0.561,0.058,1.041,0.173,1.441,0.346c0.4,0.172,0.749,0.434,1.048,0.784
							c0.235,0.267,0.417,0.541,0.545,0.824c0.129,0.283,0.192,0.542,0.192,0.777c0,0.262-0.096,0.488-0.286,0.68
							s-0.423,0.287-0.695,0.287c-0.513,0-0.844-0.279-0.996-0.833c-0.174-0.654-0.589-1.088-1.249-1.304v3.267
							c0.649,0.178,1.166,0.339,1.55,0.486c0.386,0.146,0.73,0.358,1.033,0.637c0.325,0.287,0.575,0.631,0.75,1.03
							c0.176,0.401,0.263,0.839,0.263,1.315c0,0.597-0.141,1.155-0.42,1.676c-0.28,0.521-0.692,0.947-1.237,1.276
							c-0.544,0.33-1.19,0.525-1.938,0.589v1.955c0,0.309-0.03,0.534-0.091,0.675c-0.06,0.142-0.191,0.212-0.395,0.212
							c-0.189,0-0.321-0.058-0.398-0.173c-0.074-0.115-0.114-0.293-0.114-0.534v-2.119c-0.611-0.068-1.146-0.212-1.604-0.432
							c-0.456-0.22-0.84-0.493-1.146-0.82c-0.308-0.327-0.533-0.667-0.679-1.021c-0.147-0.354-0.221-0.7-0.221-1.04
							c0-0.252,0.099-0.478,0.295-0.68c0.195-0.201,0.44-0.302,0.733-0.302c0.236,0,0.436,0.055,0.597,0.165
							c0.163,0.109,0.274,0.264,0.338,0.463c0.142,0.43,0.265,0.758,0.368,0.984c0.106,0.229,0.265,0.436,0.476,0.625
							c0.212,0.188,0.494,0.332,0.843,0.432v-3.65c-0.701-0.194-1.286-0.409-1.757-0.648c-0.471-0.237-0.854-0.577-1.146-1.016
							c-0.293-0.44-0.439-1.005-0.439-1.695c0-0.901,0.285-1.639,0.859-2.215c0.573-0.575,1.401-0.91,2.483-1.004V20.56
							c0-0.44,0.165-0.659,0.496-0.659C66.385,19.9,66.552,20.114,66.552,20.543z M65.554,25.928v-3.006
							c-0.439,0.131-0.78,0.303-1.026,0.519c-0.247,0.215-0.37,0.539-0.37,0.973c0,0.414,0.115,0.726,0.346,0.939
							C64.733,25.564,65.084,25.756,65.554,25.928z M66.552,28.261v3.438c0.528-0.104,0.937-0.316,1.225-0.636
							c0.288-0.318,0.432-0.69,0.432-1.114c0-0.456-0.14-0.807-0.42-1.057C67.509,28.644,67.097,28.433,66.552,28.261z"/>
					</g>
				</g>
			</g>
			<g>
				<g>
					<path fill="#F3BAB9" d="M73.279,53.67c2.915-2.184,7.747-5.688,9.169-6.021c1.239-0.292,2.326,0.219,2.858,1.52
						c0.605,1.489,0.389,7.203,0.18,10.804c0.785,0.815,1.451,1.669,2.001,2.542c0.234-3.227,1.003-14.994-0.03-17.53
						c-0.705-1.727-2.148-2.403-3.794-2.017c-2.756,0.646-15.198,10.295-15.198,10.295c-0.027,0.052-0.042,0.106-0.065,0.16
						C69.934,53.294,71.581,53.374,73.279,53.67z"/>
				</g>
				<g>
					<path fill="#E69091" d="M85.486,59.973c0.209-3.601,0.426-9.314-0.18-10.804c-0.532-1.301-1.619-1.812-2.858-1.52
						c-1.422,0.332-6.254,3.837-9.169,6.021c1.602,0.279,3.247,0.742,4.883,1.42C81.112,56.313,83.612,58.031,85.486,59.973z"/>
				</g>
			</g>
			<g>
				<g>
					<path fill="#F3BAB9" d="M45.329,53.67c-2.915-2.184-7.748-5.688-9.169-6.021c-1.239-0.292-2.326,0.219-2.858,1.52
						c-0.606,1.489-0.389,7.203-0.18,10.804c-0.786,0.815-1.451,1.669-2.001,2.542c-0.234-3.227-1.003-14.994,0.031-17.53
						c0.704-1.727,2.146-2.403,3.793-2.017c2.756,0.646,15.198,10.295,15.198,10.295c0.027,0.052,0.042,0.106,0.065,0.16
						C48.675,53.294,47.027,53.374,45.329,53.67z"/>
				</g>
				<g>
					<path fill="#E69091" d="M33.122,59.973c-0.209-3.601-0.427-9.314,0.18-10.804c0.532-1.301,1.619-1.812,2.858-1.52
						c1.421,0.332,6.254,3.837,9.169,6.021c-1.603,0.279-3.247,0.742-4.884,1.42C37.495,56.313,34.996,58.031,33.122,59.973z"/>
				</g>
			</g>
		</g>
	</g>
</g>
</svg>
