<?xml version="1.0" encoding="utf-8"?>
<!-- Generator: Adobe Illustrator 16.0.0, SVG Export Plug-In . SVG Version: 6.00 Build 0)  -->
<!DOCTYPE svg PUBLIC "-//W3C//DTD SVG 1.1//EN" "http://www.w3.org/Graphics/SVG/1.1/DTD/svg11.dtd">
<svg version="1.1" id="Layer_1" xmlns="http://www.w3.org/2000/svg" xmlns:xlink="http://www.w3.org/1999/xlink" x="0px" y="0px"
	 width="136.913px" height="136.914px" viewBox="0 0 136.913 136.914" enable-background="new 0 0 136.913 136.914"
	 xml:space="preserve">
<g>
	<g>
		<g>
			<g>
				<g>
					<circle fill="#EDC92C" cx="68.456" cy="68.457" r="63.333"/>
				</g>
			</g>
		</g>
	</g>
	<g>
		<g>
			<path fill="#4B4A4B" d="M115.654,66.205c-22.363-27.264-45.619-26.145-46.746-26.07c-1.135-0.074-24.383-1.193-46.748,26.07
				c0.229-0.229-1.57,1.825-1.5,4.391l0,0c0,0,0,0,0,0.008c-0.07,2.559,1.729,4.608,1.5,4.381
				c22.365,27.264,45.613,26.145,46.748,26.074c1.127,0.07,24.383,1.189,46.746-26.074c-0.227,0.228,1.57-1.822,1.5-4.381
				c0-0.008,0-0.008,0-0.008l0,0C117.225,68.03,115.428,65.977,115.654,66.205z"/>
		</g>
		<g>
			<path fill="#FFFFFF" d="M111.055,66.638C90.891,42.057,69.924,43.065,68.908,43.133c-1.023-0.067-21.982-1.076-42.146,23.505
				c0.205-0.206-1.416,1.646-1.354,3.958l0,0c0,0,0,0,0,0.007c-0.063,2.308,1.559,4.155,1.354,3.95
				c20.164,24.581,41.123,23.572,42.146,23.509c1.016,0.063,21.982,1.072,42.146-23.509c-0.205,0.205,1.416-1.643,1.352-3.95
				c0-0.007,0-0.007,0-0.007l0,0C112.471,68.283,110.85,66.432,111.055,66.638z"/>
		</g>
		<g>
			<circle fill="#1F92D0" cx="69.297" cy="70.75" r="22"/>
		</g>
		<g>
			<circle fill="#36A5DD" cx="69.297" cy="70.75" r="20"/>
		</g>
		<g>
			<circle fill="#4B4A4B" cx="69.297" cy="70.75" r="14.5"/>
		</g>
		<g>
			<circle fill="#FFFFFF" cx="75.046" cy="64.5" r="6.095"/>
		</g>
	</g>
</g>
</svg>
