<?xml version="1.0" encoding="utf-8"?>
<!-- Generator: Adobe Illustrator 16.0.0, SVG Export Plug-In . SVG Version: 6.00 Build 0)  -->
<!DOCTYPE svg PUBLIC "-//W3C//DTD SVG 1.1//EN" "http://www.w3.org/Graphics/SVG/1.1/DTD/svg11.dtd">
<svg version="1.1" id="Layer_1" xmlns="http://www.w3.org/2000/svg" xmlns:xlink="http://www.w3.org/1999/xlink" x="0px" y="0px"
	 width="136.913px" height="136.913px" viewBox="0 0 136.913 136.913" enable-background="new 0 0 136.913 136.913"
	 xml:space="preserve">
<g>
	<g>
		<g>
			<g>
				<g>
					<circle fill="#D1AFD2" cx="68.184" cy="69.182" r="63.333"/>
				</g>
			</g>
		</g>
	</g>
	<g>
		<g>
			<path fill="#BB813C" d="M101.909,86.648c0,17.756-14.396,22.76-32.152,22.76s-32.152-5.004-32.152-22.76
				c0-17.758,14.396-41.545,32.152-41.545S101.909,68.891,101.909,86.648z"/>
		</g>
		<g>
			<polygon fill="#BB813C" points="69.037,43.967 69.932,43.967 74.282,43.967 84.637,31.02 84.637,26.063 77.478,26.063 
				77.478,23.25 69.932,23.25 69.037,23.25 61.492,23.25 61.492,26.063 54.333,26.063 54.333,31.02 64.69,43.967 			"/>
		</g>
		<g>
			<polygon fill="#A06D35" points="77.478,26.063 70.736,42.674 81.631,26.088 			"/>
		</g>
		<g>
			<polygon fill="#A06D35" points="61.547,26.063 68.288,42.674 57.394,26.088 			"/>
		</g>
		<g>
			<polygon fill="#A06D35" points="64.771,52.305 69.129,47.77 62.087,52.297 			"/>
		</g>
		<g>
			<polygon fill="#A06D35" points="75.069,52.305 70.713,47.77 77.754,52.297 			"/>
		</g>
		<g>
			<path fill="#8D602F" d="M75.878,45.262c0,0.768-0.623,1.391-1.393,1.391h-9.642c-0.769,0-1.391-0.623-1.391-1.391l0,0
				c0-0.768,0.622-1.393,1.391-1.393h9.642C75.255,43.869,75.878,44.494,75.878,45.262L75.878,45.262z"/>
		</g>
		<g>
			<polygon fill="#A06D35" points="68.451,23.396 70.736,23.396 69.441,42.002 			"/>
		</g>
		<g>
			<g>
				<path fill="#8D602F" d="M56.878,78.664c-1.746,0-2.493-0.848-2.493-1.994v-0.498c0-1.098,0.747-1.945,2.493-1.945h2.193
					c1.495-6.781,6.581-10.869,13.562-10.869c6.683,0,10.671,3.291,10.671,6.482c0,2.592-3.241,3.738-3.44,3.488
					c-1.795-2.592-3.689-3.988-7.23-3.988c-3.141,0-5.483,1.746-6.531,4.887h7.929c1.744,0,2.492,0.848,2.492,1.945v0.498
					c0,1.146-0.748,1.994-2.492,1.994h-8.527v2.893h8.527c1.744,0,2.492,0.848,2.492,1.943V84c0,1.098-0.748,1.943-2.492,1.943
					h-7.929c1.048,3.143,3.49,4.986,6.731,4.986c3.54,0,5.435-1.496,7.08-4.238c0.249-0.299,3.54,0.898,3.54,3.49
					c0,2.842-3.44,6.732-10.67,6.732c-7.23,0-12.316-4.039-13.762-10.971c0.05,0-2.144,0-2.144,0c-1.746,0-2.493-0.846-2.493-1.943
					v-0.5c0-1.096,0.747-1.943,2.493-1.943h1.744v-2.893H56.878z"/>
			</g>
		</g>
	</g>
</g>
</svg>
