<?xml version="1.0" encoding="utf-8"?>
<!-- Generator: Adobe Illustrator 16.0.0, SVG Export Plug-In . SVG Version: 6.00 Build 0)  -->
<!DOCTYPE svg PUBLIC "-//W3C//DTD SVG 1.1//EN" "http://www.w3.org/Graphics/SVG/1.1/DTD/svg11.dtd">
<svg version="1.1" id="Layer_1" xmlns="http://www.w3.org/2000/svg" xmlns:xlink="http://www.w3.org/1999/xlink" x="0px" y="0px"
	 width="136.914px" height="136.914px" viewBox="0 0 136.914 136.914" enable-background="new 0 0 136.914 136.914"
	 xml:space="preserve">
<g>
	<g>
		<g>
			<g>
				<g>
					<circle fill="#D62127" cx="68.457" cy="68.458" r="63.333"/>
				</g>
			</g>
		</g>
	</g>
	<g>
		<g>
			<path fill="#7FCDCC" d="M94.364,105.649c0,6.336-4.676,11.471-10.442,11.471H55.423c-5.768,0-10.443-5.135-10.443-11.471
				c0,0,2.393-24.852,4.351-31.063c1.959-6.211,4.676-11.471,10.444-11.471h20.667c5.767,0,8.92,3.824,10.441,11.471
				C92.406,82.233,94.364,105.649,94.364,105.649z"/>
		</g>
		<g>
			<g>
				<polygon fill="#FFFFFF" points="63.132,107.659 68.135,68.088 69.504,66.334 70.243,66.295 72.022,68.088 77.025,107.659 
					69.813,113.776 				"/>
			</g>
			<g>
				<g>
					<polygon fill="#8DD3D5" points="66.757,78.983 72.776,74.056 72.512,71.968 67.083,76.411 					"/>
				</g>
				<g>
					<polygon fill="#8DD3D5" points="65.838,86.257 73.524,79.964 73.259,77.876 66.164,83.685 					"/>
				</g>
				<g>
					<polygon fill="#8DD3D5" points="64.918,93.526 74.271,85.872 74.007,83.782 65.244,90.956 					"/>
				</g>
				<g>
					<polygon fill="#8DD3D5" points="63.999,100.8 75.019,91.778 74.754,89.692 64.324,98.228 					"/>
				</g>
				<g>
					<polygon fill="#8DD3D5" points="63.132,107.659 63.396,107.812 75.764,97.69 75.501,95.601 63.404,105.499 					"/>
				</g>
				<g>
					<polygon fill="#8DD3D5" points="67.12,111.319 76.514,103.597 76.248,101.509 65.751,110.083 					"/>
				</g>
			</g>
			<g>
				<ellipse fill="#6FC5BC" cx="70.002" cy="67.124" rx="3.241" ry="3.284"/>
			</g>
		</g>
		<g>
			<g>
				<circle fill="#E9C29C" cx="69.415" cy="39.299" r="21.046"/>
			</g>
			<g>
				<path fill="#A46434" d="M90.461,39.299l-14.35-12.913c0,0-3.056,5.061-11.206,8.747c-7.858,3.553-16.536,4.166-16.536,4.166
					c0-11.623,9.421-21.045,21.046-21.045C81.039,18.254,90.461,27.676,90.461,39.299z"/>
			</g>
			<g>
				<ellipse fill="#343433" cx="63.107" cy="42.426" rx="2.883" ry="3.046"/>
			</g>
			<g>
				<ellipse fill="#343433" cx="75.603" cy="42.426" rx="2.883" ry="3.046"/>
			</g>
			<g>
				<ellipse fill="#FFFFFF" cx="76.504" cy="41.271" rx="1.152" ry="1.218"/>
			</g>
			<g>
				<ellipse fill="#FFFFFF" cx="63.977" cy="41.271" rx="1.153" ry="1.218"/>
			</g>
		</g>
	</g>
</g>
</svg>
