<?xml version="1.0" encoding="utf-8"?>
<!-- Generator: Adobe Illustrator 16.0.0, SVG Export Plug-In . SVG Version: 6.00 Build 0)  -->
<!DOCTYPE svg PUBLIC "-//W3C//DTD SVG 1.1//EN" "http://www.w3.org/Graphics/SVG/1.1/DTD/svg11.dtd">
<svg version="1.1" id="Layer_1" xmlns="http://www.w3.org/2000/svg" xmlns:xlink="http://www.w3.org/1999/xlink" x="0px" y="0px"
	 width="136.914px" height="136.914px" viewBox="0 0 136.914 136.914" enable-background="new 0 0 136.914 136.914"
	 xml:space="preserve">
<g>
	<g>
		<g>
			<g>
				<g>
					<circle fill="#4ABC96" cx="68.457" cy="68.457" r="63.333"/>
				</g>
			</g>
		</g>
	</g>
	<g>
		<g>
			<path fill="#505251" d="M76.772,105.905c-2.032-5.91-3.182-7.449-7.041-7.449c-3.809,0-5.131,1.954-7.038,7.449
				c-6.502,0.63-11.064,2.107-11.064,3.828c0,2.295,8.104,4.154,18.103,4.154s18.103-1.859,18.103-4.154
				C87.833,108.013,83.272,106.536,76.772,105.905z"/>
		</g>
		<g>
			<g>
				<path fill="#3D4040" d="M115.543,95.148c0,3.024-2.452,5.476-5.476,5.476c0,0-22.531,3.174-41.524,3.174
					c-14.541,0-39.251-3.174-39.251-3.174c-3.024,0-5.477-2.451-5.477-5.476V41.07c0-3.024,2.452-5.476,5.477-5.476h80.775
					c3.023,0,5.476,2.451,5.476,5.476V95.148z"/>
			</g>
		</g>
		<g>
			<rect x="27.516" y="39.548" fill="#5DC0C1" width="84.134" height="56.905"/>
		</g>
		<g>
			<circle fill="#FDF2F7" cx="52.655" cy="69.303" r="4.383"/>
		</g>
		<g>
			<circle fill="#FDF2F7" cx="74.76" cy="61.841" r="4.383"/>
		</g>
		<g>
			<circle fill="#FDF2F7" cx="96.584" cy="51.955" r="4.384"/>
		</g>
		<g>
			<g>
				<g>
					<path fill="#357180" d="M111.45,43.434c-3.806-0.975-6.607,2.007-10.156,5.777c-0.257,0.272-0.519,0.55-0.783,0.829
						c0.284,0.581,0.458,1.226,0.458,1.915c0,2.42-1.964,4.383-4.385,4.383c-0.805,0-1.549-0.232-2.196-0.61
						c-3.788,2.894-8.579,5.292-15.248,5.901c-0.005,0-0.012,0.002-0.017,0.002c0.003,0.071,0.021,0.138,0.021,0.21
						c0,2.421-1.963,4.384-4.384,4.384c-1.921,0-3.536-1.245-4.128-2.965c-2.494,0.593-4.971,1.234-6.882,1.73l-1.698,0.438
						c-2.071,0.528-3.936,1.048-5.647,1.634c0.395,0.657,0.635,1.418,0.635,2.241c0,2.42-1.962,4.383-4.383,4.383
						c-1.789,0-3.321-1.074-4.003-2.609c-3.043,2.377-5.748,5.784-8.724,11.139c-2.099,3.777-4.326,5.69-6.621,5.69
						c-0.046,0-0.091,0-0.136-0.002c-2.864-0.094-4.896-3.127-5.656-4.464v13.014h84.134V43.492L111.45,43.434z"/>
				</g>
				<g>
					<g>
						<path fill="#FDF7FA" d="M27.506,81.497v1.956c0.76,1.338,2.844,4.384,5.708,4.478c0.045,0.002,0.09,0.003,0.135,0.003
							c2.296,0,4.522-1.914,6.621-5.69c6.533-11.755,11.758-14.143,22.123-16.788l1.697-0.438
							c4.356-1.129,11.648-3.018,15.391-3.361c11.447-1.046,17.384-7.351,22.153-12.417c3.551-3.771,6.499-6.748,10.305-5.774
							l-0.007-0.871c-4.307-1.101-7.194,2.051-10.945,6.035C96.02,53.586,90.211,59.755,79.1,60.77
							c-3.814,0.35-11.149,2.25-15.532,3.387l-1.694,0.437c-10.624,2.711-15.979,5.159-22.681,17.218
							c-1.965,3.535-3.968,5.303-5.948,5.231c-3.055-0.099-5.19-4.531-5.211-4.576L27.506,81.497z"/>
					</g>
					<g>
						<polygon fill="#FDF7FA" points="27.516,83.439 27.516,83.439 27.511,83.431 						"/>
					</g>
				</g>
			</g>
		</g>
	</g>
</g>
</svg>
