<?xml version="1.0" encoding="utf-8"?>
<!-- Generator: Adobe Illustrator 16.0.0, SVG Export Plug-In . SVG Version: 6.00 Build 0)  -->
<!DOCTYPE svg PUBLIC "-//W3C//DTD SVG 1.1//EN" "http://www.w3.org/Graphics/SVG/1.1/DTD/svg11.dtd">
<svg version="1.1" id="Layer_1" xmlns="http://www.w3.org/2000/svg" xmlns:xlink="http://www.w3.org/1999/xlink" x="0px" y="0px"
	 width="136.913px" height="136.914px" viewBox="0 0 136.913 136.914" enable-background="new 0 0 136.913 136.914"
	 xml:space="preserve">
<g>
	<g>
		<g>
			<g>
				<g>
					<circle fill="#49A0AE" cx="68.456" cy="68.458" r="63.333"/>
				</g>
			</g>
		</g>
	</g>
	<g>
		<g>
			<g>
				<g>
					<path fill="#A2D4DE" d="M102.371,83.325c-4.9-4.713-9.861-7.678-15.799-3.285c-5.973,4.42-6.605,9.326-6.605,9.326
						s0.561,9.404-22.107-10.982c-20.4-22.678-10.99-22.117-10.99-22.117s4.904-0.632,9.324-6.605
						c4.393-5.937,1.293-10.77-3.285-15.8c-14.648-16.094-23.527,2.195-23.527,2.195c-10.371,17.455,6.916,38.2,20.252,50.558
						c12.361,13.336,33.096,30.607,50.543,20.238C100.176,106.853,118.695,99.032,102.371,83.325z"/>
				</g>
			</g>
			<g>
				<g>
					<path fill="#404040" d="M37.496,27.972c-0.012,0.004-0.018,0.014-0.029,0.019c0.131-0.055,0.266-0.104,0.398-0.153
						C37.742,27.882,37.617,27.923,37.496,27.972z"/>
				</g>
			</g>
		</g>
		<g>
			<g>
				<g>
					<path fill="#7DCDCC" d="M85.711,69.862L85.711,69.862c-0.934,0-1.693-0.758-1.693-1.694c0.002-5.417-1.51-9.586-4.492-12.392
						c-4.756-4.474-11.813-4.098-11.883-4.095c-0.938,0.05-1.736-0.65-1.795-1.582c-0.059-0.933,0.646-1.735,1.578-1.797
						c0.348-0.018,8.549-0.492,14.395,4.983c3.705,3.471,5.584,8.479,5.584,14.882C87.404,69.104,86.646,69.862,85.711,69.862z"/>
				</g>
			</g>
			<g>
				<g>
					<path fill="#7DCDCC" d="M79.162,69.917L79.162,69.917c-0.701,0-1.27-0.568-1.27-1.27c0-3.565-0.99-6.307-2.945-8.147
						c-3.121-2.938-7.764-2.695-7.811-2.69c-0.703,0.052-1.301-0.489-1.346-1.188c-0.043-0.698,0.484-1.301,1.184-1.347
						c0.232-0.014,5.754-0.332,9.693,3.357c2.498,2.34,3.764,5.71,3.764,10.015C80.432,69.349,79.863,69.917,79.162,69.917z"/>
				</g>
			</g>
			<g>
				<g>
					<path fill="#7DCDCC" d="M93.811,70.528L93.811,70.528c-1.168,0-2.115-0.947-2.115-2.116c0-8.026-2.254-14.205-6.697-18.366
						c-7.096-6.646-17.461-6.051-17.566-6.043c-1.174,0.056-2.174-0.808-2.252-1.974c-0.076-1.166,0.809-2.174,1.975-2.251
						c0.5-0.03,12.316-0.71,20.738,7.177c5.332,4.994,8.035,12.215,8.035,21.457C95.928,69.581,94.98,70.528,93.811,70.528z"/>
				</g>
			</g>
			<g>
				<g>
					<path fill="#7DCDCC" d="M103.049,73.036L103.049,73.036c-1.404,0-2.539-1.137-2.539-2.539c0-11.589-3.266-20.523-9.709-26.559
						c-10.275-9.624-25.275-8.756-25.428-8.749c-1.408,0.105-2.609-0.968-2.699-2.368c-0.092-1.4,0.967-2.608,2.367-2.7
						c0.701-0.05,17.367-1.003,29.232,10.11c7.508,7.033,11.316,17.217,11.314,30.266C105.588,71.899,104.451,73.036,103.049,73.036
						z"/>
				</g>
			</g>
		</g>
	</g>
</g>
</svg>
