<?xml version="1.0" encoding="utf-8"?>
<!-- Generator: Adobe Illustrator 16.0.0, SVG Export Plug-In . SVG Version: 6.00 Build 0)  -->
<!DOCTYPE svg PUBLIC "-//W3C//DTD SVG 1.1//EN" "http://www.w3.org/Graphics/SVG/1.1/DTD/svg11.dtd">
<svg version="1.1" id="Layer_1" xmlns="http://www.w3.org/2000/svg" xmlns:xlink="http://www.w3.org/1999/xlink" x="0px" y="0px"
	 width="136.913px" height="136.914px" viewBox="0 0 136.913 136.914" enable-background="new 0 0 136.913 136.914"
	 xml:space="preserve">
<g>
	<g>
		<g>
			<g>
				<g>
					<circle fill="#EDC92C" cx="68.456" cy="68.458" r="63.333"/>
				</g>
			</g>
		</g>
	</g>
	<g>
		<g>
			<g>
				<path fill="#F4DD90" d="M104.766,84.71c-4.9-4.713-9.861-7.678-15.799-3.285c-5.973,4.42-6.605,9.326-6.605,9.326
					s0.561,9.404-22.107-10.982c-20.398-22.678-10.99-22.117-10.99-22.117s4.906-0.632,9.326-6.605
					c4.393-5.937,1.291-10.77-3.287-15.8c-14.648-16.094-23.527,2.195-23.527,2.195c-10.371,17.455,6.916,38.2,20.252,50.558
					c12.359,13.336,33.096,30.607,50.543,20.238C102.57,108.237,121.09,100.417,104.766,84.71z"/>
			</g>
		</g>
		<g>
			<g>
				<path fill="#404040" d="M39.891,29.356c-0.012,0.004-0.018,0.014-0.029,0.019c0.131-0.055,0.266-0.104,0.398-0.153
					C40.137,29.267,40.012,29.308,39.891,29.356z"/>
			</g>
		</g>
	</g>
</g>
</svg>
