<?xml version="1.0" encoding="utf-8"?>
<!-- Generator: Adobe Illustrator 16.0.0, SVG Export Plug-In . SVG Version: 6.00 Build 0)  -->
<!DOCTYPE svg PUBLIC "-//W3C//DTD SVG 1.1//EN" "http://www.w3.org/Graphics/SVG/1.1/DTD/svg11.dtd">
<svg version="1.1" id="Layer_1" xmlns="http://www.w3.org/2000/svg" xmlns:xlink="http://www.w3.org/1999/xlink" x="0px" y="0px"
	 width="136.914px" height="136.913px" viewBox="0 0 136.914 136.913" enable-background="new 0 0 136.914 136.913"
	 xml:space="preserve">
<g>
	<g>
		<g>
			<circle fill="#EDC92C" cx="68.457" cy="68.457" r="63.333"/>
		</g>
	</g>
	<g>
		<g>
			<g>
				<g>
					<path fill-rule="evenodd" clip-rule="evenodd" fill="#67B8CB" d="M102.87,40.797c-6.068,0-27.586,0.002-27.586,0.002v11.328
						c0,0,22.625,0,27.822,0c5.195,0,8.736-3.879,8.736-5.783S108.938,40.797,102.87,40.797z"/>
				</g>
			</g>
			<g>
				<g>
					<path fill-rule="evenodd" clip-rule="evenodd" fill="#67B8CB" d="M36.425,40.797c-6.068,0-8.973,3.643-8.973,5.547
						s3.541,5.783,8.736,5.783c5.197,0,27.822,0,27.822,0V40.799C64.011,40.799,42.493,40.797,36.425,40.797z"/>
				</g>
			</g>
			<g>
				<g>
					<path fill-rule="evenodd" clip-rule="evenodd" fill="#BB813C" d="M75.271,37.965v69.277c0,3.764-3.082,4.248-5.428,4.248
						s-5.779-0.016-5.779-4.248V37.965H75.271z"/>
				</g>
			</g>
			<g>
				<g>
					<path fill-rule="evenodd" clip-rule="evenodd" fill="#A26828" d="M69.61,32.656c2.342,0,5.66,3.35,5.66,5.693
						c0,0-9.254-0.182-11.324,0C63.946,36.006,67.261,32.656,69.61,32.656z"/>
				</g>
			</g>
		</g>
		<g>
			<path fill-rule="evenodd" clip-rule="evenodd" fill="#C9E2E8" d="M102.677,46.168c0,0.518-0.42,0.938-0.938,0.938H79.114
				c-0.518,0-0.938-0.42-0.938-0.938l0,0c0-0.518,0.42-0.938,0.938-0.938h22.625C102.257,45.23,102.677,45.65,102.677,46.168
				L102.677,46.168z"/>
		</g>
		<g>
			<path fill-rule="evenodd" clip-rule="evenodd" fill="#C9E2E8" d="M60.302,46.168c0,0.518-0.42,0.938-0.938,0.938H36.739
				c-0.518,0-0.938-0.42-0.938-0.938l0,0c0-0.518,0.42-0.938,0.938-0.938h22.625C59.882,45.23,60.302,45.65,60.302,46.168
				L60.302,46.168z"/>
		</g>
	</g>
</g>
</svg>
