<?xml version="1.0" encoding="utf-8"?>
<!-- Generator: Adobe Illustrator 16.0.0, SVG Export Plug-In . SVG Version: 6.00 Build 0)  -->
<!DOCTYPE svg PUBLIC "-//W3C//DTD SVG 1.1//EN" "http://www.w3.org/Graphics/SVG/1.1/DTD/svg11.dtd">
<svg version="1.1" id="Layer_1" xmlns="http://www.w3.org/2000/svg" xmlns:xlink="http://www.w3.org/1999/xlink" x="0px" y="0px"
	 width="136.914px" height="136.913px" viewBox="0 0 136.914 136.913" enable-background="new 0 0 136.914 136.913"
	 xml:space="preserve">
<g>
	<g>
		<g>
			<g>
				<g>
					<circle fill="#A2D4DE" cx="68.457" cy="68.457" r="63.333"/>
				</g>
			</g>
		</g>
	</g>
	<g>
		<g>
			<g>
				<g>
					<g>
						<path fill="#E35656" d="M56.92,63.287c0,0.93-0.758,1.688-1.689,1.688l0,0c-0.931,0-1.688-0.758-1.688-1.688V44.908
							c0-0.934,0.757-1.689,1.688-1.689l0,0c0.932,0,1.689,0.756,1.689,1.689V63.287z"/>
					</g>
					<g>
						<path fill="#E35656" d="M83.983,63.287c0,0.93-0.756,1.688-1.688,1.688l0,0c-0.932,0-1.688-0.758-1.688-1.688V44.908
							c0-0.934,0.757-1.689,1.688-1.689l0,0c0.932,0,1.688,0.756,1.688,1.689V63.287z"/>
					</g>
					<g>
						<g>
							<path fill="#D84544" d="M86.451,59.992c0,0-6.545-1.348-17.582-1.348c-11.038,0-18.342,1.348-18.342,1.348
								C34.072,75.076,33.524,94.631,33.524,94.631c0,4.043,1.475,4.578,3.29,4.578h63.349c1.817,0,3.29-0.535,3.29-4.578
								C103.453,94.631,102.905,73.979,86.451,59.992z"/>
						</g>
						<g>
							<path fill="#CC3432" d="M103.453,97.563c0,1.816-1.473,3.291-3.29,3.291H36.814c-1.815,0-3.29-1.475-3.29-3.291V92.9
								c0-1.818,2.021-4.113,3.839-4.113h62.252c1.816,0,3.838,2.295,3.838,4.113V97.563z"/>
						</g>
						<g>
							<path fill="#E35656" d="M82.877,74.459c0,6.793-5.987,12.027-13.71,12.027c-7.725,0-13.712-5.234-13.712-12.027
								s5.987-11.752,13.712-11.752C76.89,62.707,82.877,67.666,82.877,74.459z"/>
						</g>
						<g>
							<g>
								<path fill="#E17F7F" d="M72.124,65.934c0,1.18-1.292,2.086-2.957,2.086c-1.666,0-2.959-0.906-2.959-2.086
									c0-1.178,1.293-2.037,2.959-2.037C70.832,63.896,72.124,64.756,72.124,65.934z"/>
							</g>
							<g>
								<path fill="#D54D4C" d="M71.645,65.738c0,0.766-1.081,1.354-2.478,1.354s-2.479-0.588-2.479-1.354
									c0-0.768,1.083-1.326,2.479-1.326S71.645,64.971,71.645,65.738z"/>
							</g>
						</g>
						<g>
							<g>
								<path fill="#E17F7F" d="M65.2,69.021c0,1.178-1.292,2.086-2.957,2.086c-1.667,0-2.96-0.908-2.96-2.086
									c0-1.18,1.293-2.041,2.96-2.041C63.908,66.98,65.2,67.842,65.2,69.021z"/>
							</g>
							<g>
								<path fill="#D54D4C" d="M64.721,68.822c0,0.766-1.083,1.355-2.478,1.355c-1.397,0-2.479-0.59-2.479-1.355
									s1.082-1.324,2.479-1.324C63.638,67.498,64.721,68.057,64.721,68.822z"/>
							</g>
						</g>
						<g>
							<g>
								<path fill="#E17F7F" d="M79.118,69.021c0,1.178-1.292,2.086-2.959,2.086s-2.958-0.908-2.958-2.086
									c0-1.18,1.291-2.041,2.958-2.041S79.118,67.842,79.118,69.021z"/>
							</g>
							<g>
								<path fill="#D54D4C" d="M78.638,68.822c0,0.766-1.081,1.355-2.479,1.355c-1.396,0-2.479-0.59-2.479-1.355
									s1.083-1.324,2.479-1.324C77.557,67.498,78.638,68.057,78.638,68.822z"/>
							</g>
						</g>
						<g>
							<g>
								<path fill="#E17F7F" d="M65.2,79.99c0,1.178-1.292,2.084-2.957,2.084c-1.667,0-2.96-0.906-2.96-2.084
									c0-1.182,1.293-2.041,2.96-2.041C63.908,77.949,65.2,78.809,65.2,79.99z"/>
							</g>
							<g>
								<path fill="#D54D4C" d="M64.721,79.791c0,0.766-1.083,1.355-2.478,1.355c-1.397,0-2.479-0.59-2.479-1.355
									c0-0.768,1.082-1.326,2.479-1.326C63.638,78.465,64.721,79.023,64.721,79.791z"/>
							</g>
						</g>
						<g>
							<g>
								<path fill="#E17F7F" d="M79.118,79.99c0,1.178-1.292,2.084-2.959,2.084s-2.958-0.906-2.958-2.084
									c0-1.182,1.291-2.041,2.958-2.041S79.118,78.809,79.118,79.99z"/>
							</g>
							<g>
								<path fill="#D54D4C" d="M78.638,79.791c0,0.766-1.081,1.355-2.479,1.355c-1.396,0-2.479-0.59-2.479-1.355
									c0-0.768,1.083-1.326,2.479-1.326C77.557,78.465,78.638,79.023,78.638,79.791z"/>
							</g>
						</g>
						<g>
							<g>
								<path fill="#E17F7F" d="M72.124,83.211c0,1.18-1.292,2.086-2.957,2.086c-1.666,0-2.959-0.906-2.959-2.086
									c0-1.178,1.293-2.039,2.959-2.039C70.832,81.172,72.124,82.033,72.124,83.211z"/>
							</g>
							<g>
								<path fill="#D54D4C" d="M71.645,83.014c0,0.766-1.081,1.355-2.478,1.355s-2.479-0.59-2.479-1.355s1.083-1.326,2.479-1.326
									S71.645,82.248,71.645,83.014z"/>
							</g>
						</g>
						<g>
							<g>
								<path fill="#E17F7F" d="M81.175,74.574c0,1.178-1.292,2.086-2.959,2.086c-1.665,0-2.958-0.908-2.958-2.086
									s1.293-2.039,2.958-2.039C79.883,72.535,81.175,73.396,81.175,74.574z"/>
							</g>
							<g>
								<path fill="#D54D4C" d="M80.695,74.375c0,0.768-1.082,1.355-2.479,1.355c-1.396,0-2.478-0.588-2.478-1.355
									c0-0.764,1.081-1.326,2.478-1.326C79.613,73.049,80.695,73.611,80.695,74.375z"/>
							</g>
						</g>
						<g>
							<g>
								<path fill="#E17F7F" d="M63.007,74.574c0,1.178-1.292,2.086-2.96,2.086c-1.666,0-2.957-0.908-2.957-2.086
									s1.291-2.039,2.957-2.039C61.715,72.535,63.007,73.396,63.007,74.574z"/>
							</g>
							<g>
								<path fill="#D54D4C" d="M62.526,74.375c0,0.768-1.082,1.355-2.479,1.355c-1.395,0-2.477-0.588-2.477-1.355
									c0-0.764,1.082-1.326,2.477-1.326C61.444,73.049,62.526,73.611,62.526,74.375z"/>
							</g>
						</g>
					</g>
				</g>
				<g>
					<g>
						<path fill="#E35656" d="M56.92,63.287c0,0.93-0.758,1.688-1.689,1.688l0,0c-0.931,0-1.688-0.758-1.688-1.688V44.908
							c0-0.934,0.757-1.689,1.688-1.689l0,0c0.932,0,1.689,0.756,1.689,1.689V63.287z"/>
					</g>
					<g>
						<path fill="#E35656" d="M83.983,63.287c0,0.93-0.756,1.688-1.688,1.688l0,0c-0.932,0-1.688-0.758-1.688-1.688V44.908
							c0-0.934,0.757-1.689,1.688-1.689l0,0c0.932,0,1.688,0.756,1.688,1.689V63.287z"/>
					</g>
					<g>
						<g>
							<path fill="#D84544" d="M86.451,59.992c0,0-6.545-1.348-17.582-1.348c-11.038,0-18.342,1.348-18.342,1.348
								C34.072,75.076,33.524,94.631,33.524,94.631c0,4.043,1.475,4.578,3.29,4.578h63.349c1.817,0,3.29-0.535,3.29-4.578
								C103.453,94.631,102.905,73.979,86.451,59.992z"/>
						</g>
						<g>
							<path fill="#CC3432" d="M103.453,97.563c0,1.816-1.473,3.291-3.29,3.291H36.814c-1.815,0-3.29-1.475-3.29-3.291V92.9
								c0-1.818,2.021-4.113,3.839-4.113h62.252c1.816,0,3.838,2.295,3.838,4.113V97.563z"/>
						</g>
						<g>
							<path fill="#EEA7A7" d="M82.877,74.459c0,6.793-5.987,12.027-13.71,12.027c-7.725,0-13.712-5.234-13.712-12.027
								s5.987-11.752,13.712-11.752C76.89,62.707,82.877,67.666,82.877,74.459z"/>
						</g>
						<g>
							<g>
								<path fill="#E17F7F" d="M72.124,65.934c0,1.18-1.292,2.086-2.957,2.086c-1.666,0-2.959-0.906-2.959-2.086
									c0-1.178,1.293-2.037,2.959-2.037C70.832,63.896,72.124,64.756,72.124,65.934z"/>
							</g>
							<g>
								<path fill="#CC3432" d="M71.645,65.738c0,0.766-1.081,1.354-2.478,1.354s-2.479-0.588-2.479-1.354
									c0-0.768,1.083-1.326,2.479-1.326S71.645,64.971,71.645,65.738z"/>
							</g>
						</g>
						<g>
							<g>
								<path fill="#E17F7F" d="M65.2,69.021c0,1.178-1.292,2.086-2.957,2.086c-1.667,0-2.96-0.908-2.96-2.086
									c0-1.18,1.293-2.041,2.96-2.041C63.908,66.98,65.2,67.842,65.2,69.021z"/>
							</g>
							<g>
								<path fill="#CC3432" d="M64.721,68.822c0,0.766-1.083,1.355-2.478,1.355c-1.397,0-2.479-0.59-2.479-1.355
									s1.082-1.324,2.479-1.324C63.638,67.498,64.721,68.057,64.721,68.822z"/>
							</g>
						</g>
						<g>
							<g>
								<path fill="#E17F7F" d="M79.118,69.021c0,1.178-1.292,2.086-2.959,2.086s-2.958-0.908-2.958-2.086
									c0-1.18,1.291-2.041,2.958-2.041S79.118,67.842,79.118,69.021z"/>
							</g>
							<g>
								<path fill="#CC3432" d="M78.638,68.822c0,0.766-1.081,1.355-2.479,1.355c-1.396,0-2.479-0.59-2.479-1.355
									s1.083-1.324,2.479-1.324C77.557,67.498,78.638,68.057,78.638,68.822z"/>
							</g>
						</g>
						<g>
							<g>
								<path fill="#E17F7F" d="M65.2,79.99c0,1.178-1.292,2.084-2.957,2.084c-1.667,0-2.96-0.906-2.96-2.084
									c0-1.182,1.293-2.041,2.96-2.041C63.908,77.949,65.2,78.809,65.2,79.99z"/>
							</g>
							<g>
								<path fill="#CC3432" d="M64.721,79.791c0,0.766-1.083,1.355-2.478,1.355c-1.397,0-2.479-0.59-2.479-1.355
									c0-0.768,1.082-1.326,2.479-1.326C63.638,78.465,64.721,79.023,64.721,79.791z"/>
							</g>
						</g>
						<g>
							<g>
								<path fill="#E17F7F" d="M79.118,79.99c0,1.178-1.292,2.084-2.959,2.084s-2.958-0.906-2.958-2.084
									c0-1.182,1.291-2.041,2.958-2.041S79.118,78.809,79.118,79.99z"/>
							</g>
							<g>
								<path fill="#CC3432" d="M78.638,79.791c0,0.766-1.081,1.355-2.479,1.355c-1.396,0-2.479-0.59-2.479-1.355
									c0-0.768,1.083-1.326,2.479-1.326C77.557,78.465,78.638,79.023,78.638,79.791z"/>
							</g>
						</g>
						<g>
							<g>
								<path fill="#E17F7F" d="M72.124,83.211c0,1.18-1.292,2.086-2.957,2.086c-1.666,0-2.959-0.906-2.959-2.086
									c0-1.178,1.293-2.039,2.959-2.039C70.832,81.172,72.124,82.033,72.124,83.211z"/>
							</g>
							<g>
								<path fill="#CC3432" d="M71.645,83.014c0,0.766-1.081,1.355-2.478,1.355s-2.479-0.59-2.479-1.355s1.083-1.326,2.479-1.326
									S71.645,82.248,71.645,83.014z"/>
							</g>
						</g>
						<g>
							<g>
								<path fill="#E17F7F" d="M81.175,74.574c0,1.178-1.292,2.086-2.959,2.086c-1.665,0-2.958-0.908-2.958-2.086
									s1.293-2.039,2.958-2.039C79.883,72.535,81.175,73.396,81.175,74.574z"/>
							</g>
							<g>
								<path fill="#CC3432" d="M80.695,74.375c0,0.768-1.082,1.355-2.479,1.355c-1.396,0-2.478-0.588-2.478-1.355
									c0-0.764,1.081-1.326,2.478-1.326C79.613,73.049,80.695,73.611,80.695,74.375z"/>
							</g>
						</g>
						<g>
							<g>
								<path fill="#E17F7F" d="M63.007,74.574c0,1.178-1.292,2.086-2.96,2.086c-1.666,0-2.957-0.908-2.957-2.086
									s1.291-2.039,2.957-2.039C61.715,72.535,63.007,73.396,63.007,74.574z"/>
							</g>
							<g>
								<path fill="#CC3432" d="M62.526,74.375c0,0.768-1.082,1.355-2.479,1.355c-1.395,0-2.477-0.588-2.477-1.355
									c0-0.764,1.082-1.326,2.477-1.326C61.444,73.049,62.526,73.611,62.526,74.375z"/>
							</g>
						</g>
					</g>
				</g>
			</g>
			<g>
				<g>
					<g>
						<path fill="#CC3432" d="M32.29,71.721c5.271-0.102,9.616-1.195,10.464-6.857c0.853-5.699-1.491-8.736-1.491-8.736
							s3.948-4.848,27.554-6.1c23.617,1.25,27.563,6.1,27.563,6.1s-2.342,3.037-1.49,8.736c0.845,5.662,5.195,6.613,10.464,6.859
							c16.854,0.793,11.694-14.104,11.694-14.104c-3.883-15.254-33.731-18.658-47.819-18.125
							c-14.087-0.531-44.752,2.877-48.632,18.125C20.596,57.619,14.73,72.061,32.29,71.721z"/>
					</g>
				</g>
			</g>
		</g>
		<g>
			<g>
				<g>
					<path fill="#BA2E2D" d="M94.889,64.863c0.845,5.662,5.195,6.613,10.464,6.859c8.774,0.412,11.582-3.426,12.258-7.203
						c0,0-5.539,3.352-10.561,3.352C102.027,67.871,94.889,64.863,94.889,64.863z"/>
				</g>
			</g>
		</g>
		<g>
			<g>
				<g>
					<path fill="#BA2E2D" d="M42.766,64.852c-0.854,5.732-5.256,6.693-10.587,6.943c-8.879,0.418-11.72-3.467-12.403-7.289
						c0,0,5.604,3.391,10.687,3.391C35.542,67.896,42.766,64.852,42.766,64.852z"/>
				</g>
			</g>
		</g>
	</g>
</g>
</svg>
