<?xml version="1.0" encoding="utf-8"?>
<!-- Generator: Adobe Illustrator 16.0.0, SVG Export Plug-In . SVG Version: 6.00 Build 0)  -->
<!DOCTYPE svg PUBLIC "-//W3C//DTD SVG 1.1//EN" "http://www.w3.org/Graphics/SVG/1.1/DTD/svg11.dtd">
<svg version="1.1" id="Layer_1" xmlns="http://www.w3.org/2000/svg" xmlns:xlink="http://www.w3.org/1999/xlink" x="0px" y="0px"
	 width="136.833px" height="136.833px" viewBox="0 0 136.833 136.833" style="enable-background:new 0 0 136.833 136.833;"
	 xml:space="preserve">
<style type="text/css">
<![CDATA[
	.st0{fill:#AA7243;}
	.st1{fill:#49A0AE;}
	.st2{fill:#E0E4E0;}
	.st3{fill:#E17A2D;}
	.st4{fill:#E3A93F;}
	.st5{fill:#E3AA24;}
	.st6{fill:#E3B071;}
	.st7{fill:#4ABC96;}
	.st8{fill:#E5F2E6;}
	.st9{fill:#E79E2D;}
	.st10{fill:#E7DD7F;}
	.st11{fill:#E84849;}
	.st12{fill:#E9B634;}
	.st13{fill:#E9C29C;}
	.st14{fill:#E9E9EA;}
	.st15{fill:#818282;}
	.st16{fill:#B17B48;}
	.st17{fill:#B25E27;}
	.st18{fill:#EADEDF;}
	.st19{fill:#EAE744;}
	.st20{fill:#ECB050;}
	.st21{fill:#EDAF1E;}
	.st22{fill:#EDC92C;}
	.st23{opacity:0.15;fill:#FFFFFF;}
	.st24{fill:#8AB53F;}
	.st25{fill:#202121;}
	.st26{fill:#BEB8B1;}
	.st27{fill:#BF2626;}
	.st28{fill:#F06668;}
	.st29{fill:#F1E85F;}
	.st30{fill:#F37C2A;}
	.st31{fill:#F3C9A1;}
	.st32{fill:#F3EA83;}
	.st33{fill:#F3ED73;}
	.st34{fill:#F4E028;}
	.st35{fill:#F4F5F5;}
	.st36{fill:#5B4F3F;}
	.st37{fill:#F6A2A3;}
	.st38{fill:#F8CC19;}
	.st39{fill:#F8D12E;}
	.st40{fill:#F8D958;}
	.st41{fill:#5E5F5E;}
	.st42{fill:#F9EED1;}
	.st43{fill:#908985;}
	.st44{fill:#C02026;}
	.st45{opacity:0.2;fill:#FFFFFF;}
	.st46{fill:#C2C4C1;}
	.st47{fill:#2D6370;}
	.st48{fill:#996B39;}
	.st49{fill:#99CA41;}
	.st50{opacity:0.8;}
	.st51{fill:#614C32;}
	.st52{fill:#FFC10D;}
	.st53{fill:#FFFFFF;}
	.st54{fill:#626463;}
	.st55{fill:none;}
	.st56{fill:#CA7B29;}
	.st57{fill:#69C6D4;}
	.st58{fill:#9DDAEC;}
	.st59{fill:#9F2322;}
	.st60{fill:#343433;}
	.st61{fill:#344E5D;}
	.st62{fill:#367180;}
	.st63{fill:#D1E8F8;}
	.st64{fill:#3A3A3A;}
	.st65{fill:#D62127;}
	.st66{fill:#D7D7D7;}
	.st67{fill:#3D3B3B;}
	.st68{fill:#D89F29;}
	.st69{fill:#70BFC8;}
	.st70{fill:#A19F9F;}
	.st71{fill:#D62127;stroke:#D62127;stroke-width:2;stroke-linecap:round;stroke-linejoin:round;stroke-miterlimit:10;}
	.st72{fill:#A2D4DE;}
	.st73{fill:#A3DADA;}
	.st74{fill:#DA8727;}
	.st75{fill:#A6D0EE;}
	.st76{fill:#DB4A4B;}
	.st77{fill:#DBB626;}
	.st78{fill:#DDD555;}
	.st79{fill:#DDDDDC;}
]]>
</style>
<g>
	<g>
		<circle class="st5" cx="68.417" cy="68.417" r="63.333"/>
	</g>
	<g>
		<path class="st36" d="M110.287,65.207c-6.248-6.248-14.991-8.471-23.021-6.682c4.127-4.438,6.654-10.387,6.654-16.926
			c0-10.76-6.832-19.922-16.395-23.391c6.601,3.165,11.157,9.908,11.157,17.717c0,10.846-8.791,19.639-19.637,19.639
			c-10.845,0-19.638-8.793-19.638-19.639c0-7.809,4.559-14.553,11.158-17.717C51.003,21.676,44.17,30.839,44.17,41.599
			c0,6.615,2.587,12.622,6.8,17.078c-8.207-2.062-17.258,0.113-23.675,6.53c-7.608,7.608-9.256,18.918-4.945,28.131
			c-2.43-6.905-0.885-14.896,4.637-20.416c7.669-7.67,20.104-7.671,27.772-0.001c7.669,7.668,7.67,20.104,0,27.771
			c-5.522,5.523-13.514,7.067-20.419,4.639c9.214,4.311,20.524,2.662,28.134-4.947c3.091-3.092,5.193-6.794,6.318-10.719
			c1.123,3.925,3.227,7.628,6.316,10.72c7.608,7.608,18.919,9.255,28.131,4.945c-6.904,2.429-14.895,0.884-20.416-4.638
			c-7.669-7.668-7.669-20.103,0-27.771c7.668-7.669,20.103-7.67,27.771,0c5.523,5.521,7.068,13.513,4.638,20.418
			C119.543,84.126,117.896,72.816,110.287,65.207z"/>
		<g>
			<path class="st55" d="M77.113,87.988c7.589-3.104,12.953-10.566,12.953-19.26c0-0.133-0.008-0.266-0.01-0.398
				c-2.64,0.949-5.117,2.477-7.232,4.592C78.689,77.056,76.789,82.576,77.113,87.988z"/>
			<path class="st55" d="M87.265,58.525c0.035-0.007,0.069-0.012,0.104-0.02c-0.01-0.02-0.021-0.039-0.033-0.059
				C87.312,58.472,87.289,58.5,87.265,58.525z"/>
			<path class="st55" d="M54.759,72.921c-1.863-1.863-4.008-3.27-6.295-4.227c0,0.012-0.001,0.021-0.001,0.033
				c0,8.336,4.932,15.54,12.029,18.854C60.7,82.301,58.791,76.953,54.759,72.921z"/>
			<path class="st55" d="M80.958,51.535c-3.336-2.274-7.361-3.607-11.694-3.607c-4.433,0-8.542,1.397-11.921,3.77
				c3.27,2.429,7.316,3.867,11.702,3.867C73.525,55.564,77.653,54.06,80.958,51.535z"/>
			<path class="st36" d="M48.463,68.728c0-0.012,0.001-0.021,0.001-0.033c-1.946-0.814-3.996-1.301-6.067-1.461
				c-0.027,0.494-0.044,0.992-0.044,1.494c0,11.304,7.01,20.996,16.906,24.975c0.739-1.973,1.152-4.039,1.233-6.12
				C53.395,84.268,48.463,77.064,48.463,68.728z"/>
			<path class="st36" d="M57.343,51.697c3.379-2.372,7.488-3.77,11.921-3.77c4.333,0,8.358,1.333,11.694,3.607
				c1.641-1.254,3.078-2.762,4.254-4.465c-4.467-3.299-9.983-5.252-15.948-5.252c-6.093,0-11.718,2.038-16.233,5.465
				C54.229,48.97,55.684,50.462,57.343,51.697z"/>
			<path class="st36" d="M90.066,68.728c0,8.693-5.364,16.155-12.953,19.26c0.123,2.055,0.565,4.094,1.332,6.037
				c10.332-3.762,17.73-13.682,17.73-25.297c0-0.52-0.02-1.033-0.049-1.545c-2.059,0.061-4.109,0.441-6.07,1.146
				C90.058,68.462,90.066,68.595,90.066,68.728z"/>
		</g>
		<circle class="st5" cx="68.391" cy="68.509" r="9.237"/>
	</g>
</g>
</svg>
