<?xml version="1.0" encoding="utf-8"?>
<!-- Generator: Adobe Illustrator 16.0.0, SVG Export Plug-In . SVG Version: 6.00 Build 0)  -->
<!DOCTYPE svg PUBLIC "-//W3C//DTD SVG 1.1//EN" "http://www.w3.org/Graphics/SVG/1.1/DTD/svg11.dtd">
<svg version="1.1" id="Layer_1" xmlns="http://www.w3.org/2000/svg" xmlns:xlink="http://www.w3.org/1999/xlink" x="0px" y="0px"
	 width="136.833px" height="136.834px" viewBox="0 0 136.833 136.834" style="enable-background:new 0 0 136.833 136.834;"
	 xml:space="preserve">
<style type="text/css">
<![CDATA[
	.st0{fill:#AA7243;}
	.st1{fill:#49A0AE;}
	.st2{fill:#E0E4E0;}
	.st3{fill:#E17A2D;}
	.st4{fill:#E3A93F;}
	.st5{fill:#E3AA24;}
	.st6{fill:#E3B071;}
	.st7{fill:#4ABC96;}
	.st8{fill:#E5F2E6;}
	.st9{fill:#E79E2D;}
	.st10{fill:#E7DD7F;}
	.st11{fill:#E84849;}
	.st12{fill:#E9B634;}
	.st13{fill:#E9C29C;}
	.st14{fill:#E9E9EA;}
	.st15{fill:#818282;}
	.st16{fill:#B17B48;}
	.st17{fill:#B25E27;}
	.st18{fill:#EADEDF;}
	.st19{fill:#EAE744;}
	.st20{fill:#ECB050;}
	.st21{fill:#EDAF1E;}
	.st22{fill:#EDC92C;}
	.st23{opacity:0.15;fill:#FFFFFF;}
	.st24{fill:#8AB53F;}
	.st25{fill:#202121;}
	.st26{fill:#BEB8B1;}
	.st27{fill:#BF2626;}
	.st28{fill:#F06668;}
	.st29{fill:#F1E85F;}
	.st30{fill:#F37C2A;}
	.st31{fill:#F3C9A1;}
	.st32{fill:#F3EA83;}
	.st33{fill:#F3ED73;}
	.st34{fill:#F4E028;}
	.st35{fill:#F4F5F5;}
	.st36{fill:#5B4F3F;}
	.st37{fill:#F6A2A3;}
	.st38{fill:#F8CC19;}
	.st39{fill:#F8D12E;}
	.st40{fill:#F8D958;}
	.st41{fill:#5E5F5E;}
	.st42{fill:#F9EED1;}
	.st43{fill:#908985;}
	.st44{fill:#C02026;}
	.st45{opacity:0.2;fill:#FFFFFF;}
	.st46{fill:#C2C4C1;}
	.st47{fill:#2D6370;}
	.st48{fill:#996B39;}
	.st49{fill:#99CA41;}
	.st50{opacity:0.8;}
	.st51{fill:#614C32;}
	.st52{fill:#FFC10D;}
	.st53{fill:#FFFFFF;}
	.st54{fill:#626463;}
	.st55{fill:none;}
	.st56{fill:#CA7B29;}
	.st57{fill:#69C6D4;}
	.st58{fill:#9DDAEC;}
	.st59{fill:#9F2322;}
	.st60{fill:#343433;}
	.st61{fill:#344E5D;}
	.st62{fill:#367180;}
	.st63{fill:#D1E8F8;}
	.st64{fill:#3A3A3A;}
	.st65{fill:#D62127;}
	.st66{fill:#D7D7D7;}
	.st67{fill:#3D3B3B;}
	.st68{fill:#D89F29;}
	.st69{fill:#70BFC8;}
	.st70{fill:#A19F9F;}
	.st71{fill:#D62127;stroke:#D62127;stroke-width:2;stroke-linecap:round;stroke-linejoin:round;stroke-miterlimit:10;}
	.st72{fill:#A2D4DE;}
	.st73{fill:#A3DADA;}
	.st74{fill:#DA8727;}
	.st75{fill:#A6D0EE;}
	.st76{fill:#DB4A4B;}
	.st77{fill:#DBB626;}
	.st78{fill:#DDD555;}
	.st79{fill:#DDDDDC;}
]]>
</style>
<g>
	<g>
		<circle class="st11" cx="68.416" cy="68.417" r="63.333"/>
	</g>
	<g>
		<g>
			<g>
				<path class="st13" d="M97.806,76.113c0,15.495-12.555,28.051-28.045,28.051c-15.488,0-28.045-12.556-28.045-28.051
					c0-15.485,12.557-28.043,28.045-28.043C85.251,48.07,97.806,60.627,97.806,76.113z"/>
				<ellipse class="st60" cx="61.355" cy="80.284" rx="3.843" ry="4.059"/>
				<ellipse class="st60" cx="78.008" cy="80.284" rx="3.843" ry="4.059"/>
				<path class="st53" d="M80.741,78.744c0,0.895-0.686,1.625-1.535,1.625c-0.846,0-1.533-0.73-1.533-1.625
					c0-0.898,0.688-1.623,1.533-1.623C80.056,77.121,80.741,77.845,80.741,78.744z"/>
				<path class="st53" d="M64.052,78.744c0,0.895-0.688,1.625-1.539,1.625c-0.848,0-1.535-0.73-1.535-1.625
					c0-0.898,0.688-1.623,1.535-1.623C63.364,77.121,64.052,77.845,64.052,78.744z"/>
				<path class="st17" d="M97.806,76.113L78.685,58.91c0,0-4.074,6.744-14.932,11.653c-10.473,4.735-22.037,5.55-22.037,5.55
					c0-15.485,12.557-28.043,28.045-28.043C85.251,48.07,97.806,60.627,97.806,76.113z"/>
			</g>
		</g>
	</g>
	<g>
		<path class="st22" d="M96.47,66.211c0,0,8.811-38.052-26.709-38.052S43.056,66.211,43.056,66.211H96.47z"/>
		<g>
			<circle class="st27" cx="69.128" cy="42.628" r="10.084"/>
			<g>
				<path class="st3" d="M67.163,39.791c0.783-2.043,0.631-5.127,0.631-5.127s2.09,0.874,3.531,3.278
					c1.354,2.255,0.072,5.616,0.072,5.616c1-0.996,1.369-1.994,1.402-3.193c1.121,1.791,1.986,3.84,1.986,5.915
					c0,2.567-2.334,4.646-5.215,4.647c-2.883-0.002-5.219-2.08-5.219-4.647C64.353,43.781,66.237,42.196,67.163,39.791z"/>
				<g class="st50">
					<path class="st34" d="M68.185,44.162c0.432-1.238,0.35-3.107,0.35-3.107s4.135,3.143,3.84,7.044
						c-0.117,1.552-1.281,2.817-2.867,2.817c-1.58,0-2.863-1.262-2.863-2.817C66.644,46.582,67.677,45.621,68.185,44.162z"/>
				</g>
				<g class="st50">
					<path class="st53" d="M68.673,46.583c0.273-0.785,0.221-1.969,0.221-1.969s2.619,1.992,2.432,4.461
						c-0.074,0.985-0.811,1.786-1.814,1.788c-1.002-0.002-1.814-0.8-1.814-1.788C67.696,48.117,68.351,47.507,68.673,46.583z"/>
				</g>
			</g>
		</g>
		<path class="st77" d="M106.253,62.961c0,5.523-16.342,3.917-36.5,3.917s-36.5,1.606-36.5-3.917s16.342-5.62,36.5-5.62
			S106.253,57.438,106.253,62.961z"/>
	</g>
</g>
</svg>
