<?xml version="1.0" encoding="utf-8"?>
<!-- Generator: Adobe Illustrator 16.0.0, SVG Export Plug-In . SVG Version: 6.00 Build 0)  -->
<!DOCTYPE svg PUBLIC "-//W3C//DTD SVG 1.1//EN" "http://www.w3.org/Graphics/SVG/1.1/DTD/svg11.dtd">
<svg version="1.1" id="Layer_1" xmlns="http://www.w3.org/2000/svg" xmlns:xlink="http://www.w3.org/1999/xlink" x="0px" y="0px"
	 width="136.833px" height="136.833px" viewBox="0 0 136.833 136.833" style="enable-background:new 0 0 136.833 136.833;"
	 xml:space="preserve">
<style type="text/css">
<![CDATA[
	.st0{fill:#AA7243;}
	.st1{fill:#49A0AE;}
	.st2{fill:#E0E4E0;}
	.st3{fill:#E17A2D;}
	.st4{fill:#E3A93F;}
	.st5{fill:#E3AA24;}
	.st6{fill:#E3B071;}
	.st7{fill:#4ABC96;}
	.st8{fill:#E5F2E6;}
	.st9{fill:#E79E2D;}
	.st10{fill:#E7DD7F;}
	.st11{fill:#E84849;}
	.st12{fill:#E9B634;}
	.st13{fill:#E9C29C;}
	.st14{fill:#E9E9EA;}
	.st15{fill:#818282;}
	.st16{fill:#B17B48;}
	.st17{fill:#B25E27;}
	.st18{fill:#EADEDF;}
	.st19{fill:#EAE744;}
	.st20{fill:#ECB050;}
	.st21{fill:#EDAF1E;}
	.st22{fill:#EDC92C;}
	.st23{opacity:0.15;fill:#FFFFFF;}
	.st24{fill:#8AB53F;}
	.st25{fill:#202121;}
	.st26{fill:#BEB8B1;}
	.st27{fill:#BF2626;}
	.st28{fill:#F06668;}
	.st29{fill:#F1E85F;}
	.st30{fill:#F37C2A;}
	.st31{fill:#F3C9A1;}
	.st32{fill:#F3EA83;}
	.st33{fill:#F3ED73;}
	.st34{fill:#F4E028;}
	.st35{fill:#F4F5F5;}
	.st36{fill:#5B4F3F;}
	.st37{fill:#F6A2A3;}
	.st38{fill:#F8CC19;}
	.st39{fill:#F8D12E;}
	.st40{fill:#F8D958;}
	.st41{fill:#5E5F5E;}
	.st42{fill:#F9EED1;}
	.st43{fill:#908985;}
	.st44{fill:#C02026;}
	.st45{opacity:0.2;fill:#FFFFFF;}
	.st46{fill:#C2C4C1;}
	.st47{fill:#2D6370;}
	.st48{fill:#996B39;}
	.st49{fill:#99CA41;}
	.st50{opacity:0.8;}
	.st51{fill:#614C32;}
	.st52{fill:#FFC10D;}
	.st53{fill:#FFFFFF;}
	.st54{fill:#626463;}
	.st55{fill:none;}
	.st56{fill:#CA7B29;}
	.st57{fill:#69C6D4;}
	.st58{fill:#9DDAEC;}
	.st59{fill:#9F2322;}
	.st60{fill:#343433;}
	.st61{fill:#344E5D;}
	.st62{fill:#367180;}
	.st63{fill:#D1E8F8;}
	.st64{fill:#3A3A3A;}
	.st65{fill:#D62127;}
	.st66{fill:#D7D7D7;}
	.st67{fill:#3D3B3B;}
	.st68{fill:#D89F29;}
	.st69{fill:#70BFC8;}
	.st70{fill:#A19F9F;}
	.st71{fill:#D62127;stroke:#D62127;stroke-width:2;stroke-linecap:round;stroke-linejoin:round;stroke-miterlimit:10;}
	.st72{fill:#A2D4DE;}
	.st73{fill:#A3DADA;}
	.st74{fill:#DA8727;}
	.st75{fill:#A6D0EE;}
	.st76{fill:#DB4A4B;}
	.st77{fill:#DBB626;}
	.st78{fill:#DDD555;}
	.st79{fill:#DDDDDC;}
]]>
</style>
<g>
	<g>
		<g>
			<g>
				<g>
					<g>
						<circle class="st1" cx="68.417" cy="68.417" r="63.333"/>
					</g>
				</g>
			</g>
		</g>
		<g>
			<path class="st64" d="M95.238,59.908C83.755,45.835,72.4,42.259,61.648,42.045c-11.432-0.229-23.945,3.546-32.316,16.585
				l-0.025-0.001c0,0-4.814,2.766-9.955,3.518c-3.811,0.557-5.143,3.781-5.215,7.328c-0.09,4.602,2.729,7.234,17.037,9.801
				c0,0,84.049,1.68,86.963,1.738c2.025,0.039,2.277-4.012,2.277-4.012C120.714,61.902,101.768,60.086,95.238,59.908z"/>
			<g>
				<path class="st66" d="M95.238,59.908C83.755,45.835,72.4,42.259,61.648,42.045c-11.213-0.226-23.458,3.426-31.822,15.87
					l22,21.686c13.354,0.315,30.334,0.694,43.667,0.961V59.917C95.409,59.914,95.318,59.91,95.238,59.908z"/>
			</g>
			<path class="st15" d="M71.021,78.551c28.244,0.057,49.172-0.072,49.172-0.072s0.023,0.316,0.102,1.205
				c0.098,1.117-0.471,1.871-1.293,1.854l-87.754-1.754l-0.131-2.029C39.734,77.588,42.777,78.495,71.021,78.551z"/>
			<path class="st25" d="M112.117,77.938c0.115-5.736-4.441-10.48-10.178-10.594S91.46,71.786,91.347,77.522
				C91.232,83.258,95.789,88,101.523,88.116C107.261,88.227,112.001,83.672,112.117,77.938z"/>
			<circle class="st25" cx="40.942" cy="76.514" r="10.388"/>
			<circle class="st15" cx="101.732" cy="77.731" r="5.065"/>
			<circle class="st15" cx="40.942" cy="76.515" r="5.066"/>
			<path class="st73" d="M63.332,59.272l26.682,0.533c-9.029-11.148-17.957-13.967-26.41-14.137L63.332,59.272z"/>
			<path class="st73" d="M60.123,59.208l-26.682-0.531c9.465-10.779,18.498-13.242,26.955-13.074l-0.144,7.142L60.123,59.208z"/>
		</g>
	</g>
	<g>
		<path class="st22" d="M63.91,42.282h-4v-3.333c0-1.105,0.895-2.002,2-2.002l0,0c1.104,0,2,0.896,2,2.002V42.282z"/>
		<path class="st30" d="M61.972,42.282H59.91v-3.333c0-1.105,0.895-2.002,2-2.002l0,0L61.972,42.282z"/>
	</g>
	<g>
		<path class="st9" d="M76.398,65.89c0.799-1.178-0.037-3.176-1.898-2.516c-1.799,0.641-3.783-0.723-3.87-0.783v-0.004l-0.009-0.003
			l0,0l0,0l0,0l0,0l-0.006,0.003v0.004c-0.088,0.061-2.072,1.424-3.873,0.783c-1.859-0.66-2.696,1.338-1.897,2.516
			c0.868,1.277,1.014,1.902,1.014,2.152c-0.003,0.674-2.501,2.109-0.55,5.285c0.725,1.178,1.207,1.014,3.918,1.277
			c0,0,1.227,0.447,1.395,1.251v-0.368v0.368c0.17-0.804,1.395-1.251,1.395-1.251c2.712-0.264,3.195-0.1,3.921-1.277
			c1.949-3.176-0.548-4.611-0.552-5.285C75.384,67.792,75.531,67.167,76.398,65.89z"/>
		<path class="st52" d="M74.083,68.121c-0.054-0.17-0.202-0.293-0.381-0.319l-1.848-0.269l-0.827-1.676
			c-0.158-0.324-0.688-0.324-0.846,0l-0.827,1.676l-1.85,0.269c-0.177,0.026-0.323,0.149-0.38,0.319
			c-0.056,0.172-0.009,0.361,0.12,0.486l1.338,1.303l-0.315,1.84c-0.032,0.178,0.041,0.357,0.187,0.463
			c0.146,0.105,0.338,0.118,0.497,0.035l1.654-0.869l1.652,0.869c0.068,0.036,0.144,0.055,0.219,0.055
			c0.099,0,0.195-0.031,0.278-0.09c0.146-0.105,0.219-0.285,0.188-0.463l-0.315-1.84l1.337-1.303
			C74.093,68.482,74.14,68.292,74.083,68.121z"/>
	</g>
</g>
</svg>
