<?xml version="1.0" encoding="utf-8"?>
<!-- Generator: Adobe Illustrator 16.0.0, SVG Export Plug-In . SVG Version: 6.00 Build 0)  -->
<!DOCTYPE svg PUBLIC "-//W3C//DTD SVG 1.1//EN" "http://www.w3.org/Graphics/SVG/1.1/DTD/svg11.dtd">
<svg version="1.1" id="Layer_1" xmlns="http://www.w3.org/2000/svg" xmlns:xlink="http://www.w3.org/1999/xlink" x="0px" y="0px"
	 width="136.833px" height="136.833px" viewBox="0 0 136.833 136.833" style="enable-background:new 0 0 136.833 136.833;"
	 xml:space="preserve">
<style type="text/css">
<![CDATA[
	.st0{fill:#AA7243;}
	.st1{fill:#49A0AE;}
	.st2{fill:#E0E4E0;}
	.st3{fill:#E17A2D;}
	.st4{fill:#E3A93F;}
	.st5{fill:#E3AA24;}
	.st6{fill:#E3B071;}
	.st7{fill:#4ABC96;}
	.st8{fill:#E5F2E6;}
	.st9{fill:#E79E2D;}
	.st10{fill:#E7DD7F;}
	.st11{fill:#E84849;}
	.st12{fill:#E9B634;}
	.st13{fill:#E9C29C;}
	.st14{fill:#E9E9EA;}
	.st15{fill:#818282;}
	.st16{fill:#B17B48;}
	.st17{fill:#B25E27;}
	.st18{fill:#EADEDF;}
	.st19{fill:#EAE744;}
	.st20{fill:#ECB050;}
	.st21{fill:#EDAF1E;}
	.st22{fill:#EDC92C;}
	.st23{opacity:0.15;fill:#FFFFFF;}
	.st24{fill:#8AB53F;}
	.st25{fill:#202121;}
	.st26{fill:#BEB8B1;}
	.st27{fill:#BF2626;}
	.st28{fill:#F06668;}
	.st29{fill:#F1E85F;}
	.st30{fill:#F37C2A;}
	.st31{fill:#F3C9A1;}
	.st32{fill:#F3EA83;}
	.st33{fill:#F3ED73;}
	.st34{fill:#F4E028;}
	.st35{fill:#F4F5F5;}
	.st36{fill:#5B4F3F;}
	.st37{fill:#F6A2A3;}
	.st38{fill:#F8CC19;}
	.st39{fill:#F8D12E;}
	.st40{fill:#F8D958;}
	.st41{fill:#5E5F5E;}
	.st42{fill:#F9EED1;}
	.st43{fill:#908985;}
	.st44{fill:#C02026;}
	.st45{opacity:0.2;fill:#FFFFFF;}
	.st46{fill:#C2C4C1;}
	.st47{fill:#2D6370;}
	.st48{fill:#996B39;}
	.st49{fill:#99CA41;}
	.st50{opacity:0.8;}
	.st51{fill:#614C32;}
	.st52{fill:#FFC10D;}
	.st53{fill:#FFFFFF;}
	.st54{fill:#626463;}
	.st55{fill:none;}
	.st56{fill:#CA7B29;}
	.st57{fill:#69C6D4;}
	.st58{fill:#9DDAEC;}
	.st59{fill:#9F2322;}
	.st60{fill:#343433;}
	.st61{fill:#344E5D;}
	.st62{fill:#367180;}
	.st63{fill:#D1E8F8;}
	.st64{fill:#3A3A3A;}
	.st65{fill:#D62127;}
	.st66{fill:#D7D7D7;}
	.st67{fill:#3D3B3B;}
	.st68{fill:#D89F29;}
	.st69{fill:#70BFC8;}
	.st70{fill:#A19F9F;}
	.st71{fill:#D62127;stroke:#D62127;stroke-width:2;stroke-linecap:round;stroke-linejoin:round;stroke-miterlimit:10;}
	.st72{fill:#A2D4DE;}
	.st73{fill:#A3DADA;}
	.st74{fill:#DA8727;}
	.st75{fill:#A6D0EE;}
	.st76{fill:#DB4A4B;}
	.st77{fill:#DBB626;}
	.st78{fill:#DDD555;}
	.st79{fill:#DDDDDC;}
]]>
</style>
<g>
	<g>
		<g>
			<g>
				<g>
					<circle class="st61" cx="68.417" cy="68.417" r="63.333"/>
				</g>
			</g>
		</g>
	</g>
	<g>
		<g>
			<path class="st2" d="M79.225,90.888c0-2.091-1.171-3.787-2.616-3.787h-8.297v44.646c0.035,0,0.07,0.003,0.105,0.003
				c1.918,0,3.813-0.101,5.688-0.267V97.83C74.105,97.83,79.225,92.98,79.225,90.888z"/>
			<path class="st79" d="M68.312,87.101h-8.301c-1.443,0-2.614,1.696-2.614,3.787c0,2.092,5.122,6.941,5.122,6.941v33.638
				c1.908,0.177,3.839,0.277,5.793,0.28V87.101z"/>
		</g>
		<g>
			<path class="st8" d="M42.186,36.739c-0.698,0-1.265,0.566-1.265,1.265v39.359c0.828,0.496,1.673,0.967,2.529,1.418V38.003
				C43.451,37.305,42.884,36.739,42.186,36.739z"/>
			<path class="st8" d="M94.437,36.739c-0.698,0-1.264,0.566-1.264,1.265v40.944c0.855-0.451,1.699-0.922,2.527-1.417V38.003
				C95.701,37.305,95.134,36.739,94.437,36.739z"/>
			<path class="st8" d="M68.312,36.739c-0.698,0-1.265,0.566-1.265,1.265v43.777c0.424,0.01,0.845,0.032,1.271,0.032
				c0.422,0,0.838-0.022,1.258-0.032V38.003C69.576,37.305,69.009,36.739,68.312,36.739z"/>
		</g>
		<g>
			<rect x="26.358" y="44.21" class="st72" width="82.803" height="45.069"/>
			<g>
				<path class="st57" d="M63.8,68.472c17.234-0.942,33.273-0.13,45.11,2.813V70.39c-10.505-2.849-24.683-4.2-40.298-4.2
					c-16.738,0-31.825,1.552-42.505,4.838v3.495C35.511,71.302,48.775,69.294,63.8,68.472z"/>
				<path class="st69" d="M68.613,70.66c15.615,0,29.793,1.352,40.298,4.2v-3.575c-11.837-2.942-27.876-3.755-45.11-2.813
					c-15.025,0.822-28.289,2.83-37.692,6.051v0.974C36.788,72.211,51.875,70.66,68.613,70.66z"/>
				<path class="st33" d="M26.108,75.497v0.698c11.624-3.103,27.638-4.113,44.985-3.373c14.924,0.637,28.203,2.457,37.817,5.508
					v-3.47c-10.505-2.849-24.683-4.2-40.298-4.2C51.875,70.66,36.788,72.211,26.108,75.497z"/>
				<path class="st32" d="M64.529,76.512c16.674-1.182,32.38-0.683,44.382,1.884V78.33c-9.614-3.051-22.894-4.871-37.817-5.508
					c-17.348-0.74-33.361,0.271-44.985,3.373v6.676c2.239-0.59,4.634-1.117,7.177-1.574C41.765,78.958,52.542,77.363,64.529,76.512z
					"/>
				<path class="st10" d="M108.911,83.888v-5.492c-12.002-2.566-27.708-3.065-44.382-1.884c-11.987,0.851-22.764,2.446-31.244,4.784
					c9.435-1.696,20.809-2.486,33.045-2.445C83.162,78.908,98.292,80.529,108.911,83.888z"/>
				<path class="st33" d="M33.285,81.296c-2.543,0.457-4.938,0.984-7.177,1.574v0.814C28.261,82.818,30.659,82.021,33.285,81.296z"
					/>
				<path class="st33" d="M66.33,78.851c-12.236-0.041-23.61,0.749-33.045,2.445c-2.626,0.725-5.023,1.521-7.177,2.389v5.717h82.803
					v-5.514C98.292,80.529,83.162,78.908,66.33,78.851z"/>
			</g>
			<path class="st46" d="M110.16,91.324H25.359c-0.828,0-1.5-0.672-1.5-1.5V43.667c0-0.828,0.672-1.5,1.5-1.5h84.801
				c0.828,0,1.5,0.672,1.5,1.5v46.156C111.66,90.652,110.988,91.324,110.16,91.324z M26.859,88.324h81.801V45.167H26.859V88.324z"/>
		</g>
		<g>
			<g>
				<path class="st48" d="M90.032,76.812c-0.14,0-0.268-0.092-0.308-0.232l-1.715-5.969c-0.049-0.17,0.05-0.348,0.22-0.396
					s0.348,0.049,0.396,0.219l1.714,5.97c0.049,0.17-0.049,0.347-0.219,0.396C90.091,76.808,90.06,76.812,90.032,76.812z"/>
			</g>
			<g>
				<path class="st6" d="M80.843,82.011c-0.062,0-0.122-0.017-0.176-0.053c-0.148-0.097-0.189-0.295-0.092-0.443l12.963-19.73
					c0.098-0.148,0.297-0.189,0.443-0.092c0.148,0.098,0.189,0.295,0.093,0.443l-12.964,19.73
					C81.049,81.96,80.947,82.011,80.843,82.011z"/>
			</g>
			<g>
				<path class="st48" d="M99.006,79.234c-0.136,0-0.263-0.088-0.306-0.225l-5.275-16.867c-0.053-0.17,0.041-0.35,0.21-0.402
					c0.171-0.053,0.349,0.041,0.401,0.21l5.275,16.868c0.053,0.168-0.041,0.348-0.209,0.4
					C99.071,79.228,99.039,79.234,99.006,79.234z"/>
			</g>
			<g>
				<path class="st48" d="M99.787,79.464c-0.027,0-0.055-0.004-0.081-0.01l-9.968-2.582c-0.172-0.044-0.274-0.219-0.23-0.391
					c0.045-0.17,0.22-0.273,0.391-0.229l9.969,2.581c0.171,0.044,0.273,0.219,0.229,0.391
					C100.058,79.369,99.929,79.464,99.787,79.464z"/>
			</g>
			<g>
				<path class="st0" d="M99.007,79.234c-0.023,0-0.047-0.003-0.07-0.008l-9.402-2.102c-0.174-0.039-0.281-0.21-0.244-0.383
					c0.039-0.172,0.211-0.281,0.383-0.242l9.403,2.101c0.173,0.039,0.282,0.21,0.243,0.384
					C99.287,79.132,99.154,79.234,99.007,79.234z"/>
			</g>
			<g>
				<path class="st16" d="M90.953,84.093c-0.025,0-0.053-0.002-0.08-0.01l-9.967-2.58c-0.172-0.045-0.275-0.221-0.23-0.391
					c0.045-0.172,0.219-0.273,0.391-0.23l9.969,2.58c0.17,0.045,0.273,0.221,0.229,0.391C91.226,83.998,91.096,84.093,90.953,84.093
					z"/>
			</g>
			<g>
				<path class="st16" d="M90.174,77.275c-0.026,0-0.052-0.003-0.078-0.01l-9.259-2.315c-0.173-0.043-0.277-0.216-0.234-0.388
					s0.217-0.276,0.389-0.233l9.26,2.315c0.172,0.043,0.276,0.217,0.232,0.388C90.449,77.177,90.318,77.275,90.174,77.275z"/>
			</g>
			<g>
				<path class="st63" d="M93.326,62.495c-2.734,11.563-8.012,12.557-10.65,12.255l-1.583-0.395l-0.161,0.641l8.316,2.083
					l0.393-0.588l5.448,1.265c6.093-1.625,7.319-14.193,7.319-14.193L93.326,62.495z"/>
			</g>
			<g>
				<path class="st75" d="M87.949,76.722l1.299,0.356l0.393-0.588l5.448,1.265c6.093-1.625,7.319-14.193,7.319-14.193l-2.012-0.213
					C100.128,79.447,87.949,76.722,87.949,76.722z"/>
			</g>
			<g>
				<path class="st75" d="M93.326,62.495c-2.734,11.563-8.012,12.557-10.65,12.255l-1.583-0.395l-0.161,0.641l1.995,0.48
					c0,0,8.84,2.338,12.181-12.768L93.326,62.495z"/>
			</g>
			<g>
				<path class="st6" d="M90.53,84.79c-0.054,0-0.108-0.013-0.159-0.042c-0.153-0.088-0.206-0.284-0.119-0.438l12.109-21.155
					c0.088-0.153,0.284-0.208,0.438-0.119c0.154,0.088,0.207,0.284,0.119,0.438L90.808,84.628
					C90.75,84.732,90.641,84.79,90.53,84.79z"/>
			</g>
			<g>
				<path class="st75" d="M96.941,62.939l1.816,0.197c0,0-0.677,13.746-12.145,13.248l-1.639-0.392
					C84.974,75.993,95.712,76.134,96.941,62.939z"/>
			</g>
		</g>
		<g>
			<circle class="st38" cx="38.478" cy="55.945" r="7.833"/>
			<g>
				<circle class="st39" cx="38.98" cy="55.819" r="6.577"/>
				<circle class="st40" cx="39.314" cy="55.461" r="5.068"/>
			</g>
		</g>
		<g>
			<ellipse class="st8" cx="68.207" cy="37.371" rx="6.426" ry="2.107"/>
			<g>
				<polygon class="st45" points="82.427,86.461 54.197,86.461 61.781,37.371 74.843,37.371 				"/>
				<polygon class="st23" points="82.427,86.461 61.781,37.371 74.843,37.371 				"/>
				<polygon class="st23" points="54.197,86.461 61.781,37.371 74.843,37.371 				"/>
			</g>
		</g>
		<g>
			<ellipse class="st8" cx="94.332" cy="37.371" rx="6.426" ry="2.107"/>
			<g>
				<polygon class="st45" points="110.66,84.247 80.322,84.247 87.906,37.371 100.968,37.371 				"/>
				<polygon class="st23" points="110.66,84.247 87.906,37.371 100.968,37.371 				"/>
				<polygon class="st23" points="80.322,84.247 87.906,37.371 100.968,37.371 				"/>
			</g>
		</g>
		<g>
			<ellipse class="st8" cx="42.081" cy="37.371" rx="6.426" ry="2.107"/>
			<g>
				<polygon class="st45" points="56.302,84.247 24.91,84.247 35.655,37.371 48.718,37.371 				"/>
				<polygon class="st23" points="56.302,84.247 35.655,37.371 48.718,37.371 				"/>
				<polygon class="st23" points="24.91,84.247 35.655,37.371 48.718,37.371 				"/>
			</g>
		</g>
	</g>
</g>
</svg>
