<?xml version="1.0" encoding="utf-8"?>
<!-- Generator: Adobe Illustrator 16.0.0, SVG Export Plug-In . SVG Version: 6.00 Build 0)  -->
<!DOCTYPE svg PUBLIC "-//W3C//DTD SVG 1.1//EN" "http://www.w3.org/Graphics/SVG/1.1/DTD/svg11.dtd">
<svg version="1.1" id="Layer_1" xmlns="http://www.w3.org/2000/svg" xmlns:xlink="http://www.w3.org/1999/xlink" x="0px" y="0px"
	 width="136.833px" height="136.833px" viewBox="0 0 136.833 136.833" style="enable-background:new 0 0 136.833 136.833;"
	 xml:space="preserve">
<style type="text/css">
<![CDATA[
	.st0{fill:#AA7243;}
	.st1{fill:#49A0AE;}
	.st2{fill:#E0E4E0;}
	.st3{fill:#E17A2D;}
	.st4{fill:#E3A93F;}
	.st5{fill:#E3AA24;}
	.st6{fill:#E3B071;}
	.st7{fill:#4ABC96;}
	.st8{fill:#E5F2E6;}
	.st9{fill:#E79E2D;}
	.st10{fill:#E7DD7F;}
	.st11{fill:#E84849;}
	.st12{fill:#E9B634;}
	.st13{fill:#E9C29C;}
	.st14{fill:#E9E9EA;}
	.st15{fill:#818282;}
	.st16{fill:#B17B48;}
	.st17{fill:#B25E27;}
	.st18{fill:#EADEDF;}
	.st19{fill:#EAE744;}
	.st20{fill:#ECB050;}
	.st21{fill:#EDAF1E;}
	.st22{fill:#EDC92C;}
	.st23{opacity:0.15;fill:#FFFFFF;}
	.st24{fill:#8AB53F;}
	.st25{fill:#202121;}
	.st26{fill:#BEB8B1;}
	.st27{fill:#BF2626;}
	.st28{fill:#F06668;}
	.st29{fill:#F1E85F;}
	.st30{fill:#F37C2A;}
	.st31{fill:#F3C9A1;}
	.st32{fill:#F3EA83;}
	.st33{fill:#F3ED73;}
	.st34{fill:#F4E028;}
	.st35{fill:#F4F5F5;}
	.st36{fill:#5B4F3F;}
	.st37{fill:#F6A2A3;}
	.st38{fill:#F8CC19;}
	.st39{fill:#F8D12E;}
	.st40{fill:#F8D958;}
	.st41{fill:#5E5F5E;}
	.st42{fill:#F9EED1;}
	.st43{fill:#908985;}
	.st44{fill:#C02026;}
	.st45{opacity:0.2;fill:#FFFFFF;}
	.st46{fill:#C2C4C1;}
	.st47{fill:#2D6370;}
	.st48{fill:#996B39;}
	.st49{fill:#99CA41;}
	.st50{opacity:0.8;}
	.st51{fill:#614C32;}
	.st52{fill:#FFC10D;}
	.st53{fill:#FFFFFF;}
	.st54{fill:#626463;}
	.st55{fill:none;}
	.st56{fill:#CA7B29;}
	.st57{fill:#69C6D4;}
	.st58{fill:#9DDAEC;}
	.st59{fill:#9F2322;}
	.st60{fill:#343433;}
	.st61{fill:#344E5D;}
	.st62{fill:#367180;}
	.st63{fill:#D1E8F8;}
	.st64{fill:#3A3A3A;}
	.st65{fill:#D62127;}
	.st66{fill:#D7D7D7;}
	.st67{fill:#3D3B3B;}
	.st68{fill:#D89F29;}
	.st69{fill:#70BFC8;}
	.st70{fill:#A19F9F;}
	.st71{fill:#D62127;stroke:#D62127;stroke-width:2;stroke-linecap:round;stroke-linejoin:round;stroke-miterlimit:10;}
	.st72{fill:#A2D4DE;}
	.st73{fill:#A3DADA;}
	.st74{fill:#DA8727;}
	.st75{fill:#A6D0EE;}
	.st76{fill:#DB4A4B;}
	.st77{fill:#DBB626;}
	.st78{fill:#DDD555;}
	.st79{fill:#DDDDDC;}
]]>
</style>
<g>
	<g>
		<g>
			<circle class="st7" cx="68.417" cy="68.417" r="63.333"/>
		</g>
	</g>
	<g>
		<g>
			<path class="st13" d="M97.806,76.113c0,15.495-12.555,28.051-28.045,28.051c-15.489,0-28.045-12.556-28.045-28.051
				c0-15.485,12.556-28.043,28.045-28.043C85.251,48.07,97.806,60.627,97.806,76.113z"/>
			<ellipse class="st60" cx="61.355" cy="80.284" rx="3.842" ry="4.059"/>
			<ellipse class="st60" cx="78.007" cy="80.284" rx="3.843" ry="4.059"/>
			<path class="st53" d="M80.742,78.744c0,0.895-0.686,1.625-1.536,1.625c-0.845,0-1.533-0.73-1.533-1.625
				c0-0.898,0.688-1.623,1.533-1.623C80.056,77.121,80.742,77.845,80.742,78.744z"/>
			<path class="st53" d="M64.051,78.744c0,0.895-0.687,1.625-1.538,1.625c-0.848,0-1.535-0.73-1.535-1.625
				c0-0.898,0.688-1.623,1.535-1.623C63.365,77.121,64.051,77.845,64.051,78.744z"/>
			<path class="st17" d="M97.806,76.113L78.685,58.91c0,0-4.074,6.744-14.933,11.653c-10.472,4.735-22.036,5.55-22.036,5.55
				c0-15.485,12.556-28.043,28.045-28.043C85.251,48.07,97.806,60.627,97.806,76.113z"/>
		</g>
	</g>
	<path class="st62" d="M96.47,70.982l12.193-14.271L94.696,39.945L69.761,29.711l-25.371,10.5L30.796,56.717l12.259,14.265
		C43.055,58.339,96.47,58.339,96.47,70.982z"/>
	<g>
		<path class="st9" d="M75.855,40.129c0.929-1.365-0.041-3.686-2.202-2.92c-2.091,0.743-4.396-0.841-4.496-0.908v-0.006
			l-0.009-0.002l0,0h-0.001l0,0l0,0l-0.009,0.002v0.006c-0.1,0.067-2.405,1.651-4.496,0.908c-2.16-0.766-3.132,1.555-2.203,2.92
			c1.009,1.484,1.177,2.211,1.177,2.502c-0.004,0.782-2.904,2.449-0.64,6.139c0.843,1.365,1.403,1.176,4.553,1.482
			c0,0,1.422,0.518,1.618,1.451v-0.427l0.001,0.427c0.196-0.934,1.618-1.451,1.618-1.451c3.148-0.307,3.711-0.117,4.553-1.482
			c2.266-3.689-0.635-5.356-0.64-6.139C74.679,42.34,74.848,41.614,75.855,40.129z"/>
		<path class="st52" d="M73.168,42.723c-0.063-0.198-0.235-0.343-0.441-0.373l-2.147-0.312l-0.96-1.946
			c-0.185-0.375-0.798-0.375-0.982,0l-0.961,1.946L65.53,42.35c-0.206,0.03-0.377,0.175-0.442,0.373
			c-0.063,0.198-0.01,0.416,0.139,0.563l1.554,1.514l-0.366,2.137c-0.036,0.206,0.049,0.414,0.218,0.537
			c0.17,0.121,0.394,0.139,0.577,0.041l1.921-1.01l1.92,1.01c0.079,0.042,0.167,0.063,0.253,0.063c0.115,0,0.228-0.036,0.323-0.104
			c0.169-0.123,0.254-0.331,0.218-0.537l-0.366-2.137l1.554-1.514C73.18,43.139,73.234,42.921,73.168,42.723z"/>
	</g>
	<path class="st47" d="M97.806,70.211h-56.09c0-8.333,12.556-15.5,28.045-15.5C85.251,54.711,97.806,61.545,97.806,70.211z"/>
	<g>
		<path class="st52" d="M69.761,59.378c12.573,0,23.212,4.503,26.772,10.833h1.272c0-8.666-12.555-15.5-28.045-15.5
			c-15.489,0-28.045,7.167-28.045,15.5h1.349C46.696,64.039,57.273,59.378,69.761,59.378z"/>
	</g>
</g>
</svg>
