<?xml version="1.0" encoding="utf-8"?>
<!-- Generator: Adobe Illustrator 16.0.0, SVG Export Plug-In . SVG Version: 6.00 Build 0)  -->
<!DOCTYPE svg PUBLIC "-//W3C//DTD SVG 1.1//EN" "http://www.w3.org/Graphics/SVG/1.1/DTD/svg11.dtd">
<svg version="1.1" id="Layer_1" xmlns="http://www.w3.org/2000/svg" xmlns:xlink="http://www.w3.org/1999/xlink" x="0px" y="0px"
	 width="136.833px" height="136.834px" viewBox="0 0 136.833 136.834" style="enable-background:new 0 0 136.833 136.834;"
	 xml:space="preserve">
<style type="text/css">
<![CDATA[
	.st0{fill:#AA7243;}
	.st1{fill:#49A0AE;}
	.st2{fill:#E0E4E0;}
	.st3{fill:#E17A2D;}
	.st4{fill:#E3A93F;}
	.st5{fill:#E3AA24;}
	.st6{fill:#E3B071;}
	.st7{fill:#4ABC96;}
	.st8{fill:#E5F2E6;}
	.st9{fill:#E79E2D;}
	.st10{fill:#E7DD7F;}
	.st11{fill:#E84849;}
	.st12{fill:#E9B634;}
	.st13{fill:#E9C29C;}
	.st14{fill:#E9E9EA;}
	.st15{fill:#818282;}
	.st16{fill:#B17B48;}
	.st17{fill:#B25E27;}
	.st18{fill:#EADEDF;}
	.st19{fill:#EAE744;}
	.st20{fill:#ECB050;}
	.st21{fill:#EDAF1E;}
	.st22{fill:#EDC92C;}
	.st23{opacity:0.15;fill:#FFFFFF;}
	.st24{fill:#8AB53F;}
	.st25{fill:#202121;}
	.st26{fill:#BEB8B1;}
	.st27{fill:#BF2626;}
	.st28{fill:#F06668;}
	.st29{fill:#F1E85F;}
	.st30{fill:#F37C2A;}
	.st31{fill:#F3C9A1;}
	.st32{fill:#F3EA83;}
	.st33{fill:#F3ED73;}
	.st34{fill:#F4E028;}
	.st35{fill:#F4F5F5;}
	.st36{fill:#5B4F3F;}
	.st37{fill:#F6A2A3;}
	.st38{fill:#F8CC19;}
	.st39{fill:#F8D12E;}
	.st40{fill:#F8D958;}
	.st41{fill:#5E5F5E;}
	.st42{fill:#F9EED1;}
	.st43{fill:#908985;}
	.st44{fill:#C02026;}
	.st45{opacity:0.2;fill:#FFFFFF;}
	.st46{fill:#C2C4C1;}
	.st47{fill:#2D6370;}
	.st48{fill:#996B39;}
	.st49{fill:#99CA41;}
	.st50{opacity:0.8;}
	.st51{fill:#614C32;}
	.st52{fill:#FFC10D;}
	.st53{fill:#FFFFFF;}
	.st54{fill:#626463;}
	.st55{fill:none;}
	.st56{fill:#CA7B29;}
	.st57{fill:#69C6D4;}
	.st58{fill:#9DDAEC;}
	.st59{fill:#9F2322;}
	.st60{fill:#343433;}
	.st61{fill:#344E5D;}
	.st62{fill:#367180;}
	.st63{fill:#D1E8F8;}
	.st64{fill:#3A3A3A;}
	.st65{fill:#D62127;}
	.st66{fill:#D7D7D7;}
	.st67{fill:#3D3B3B;}
	.st68{fill:#D89F29;}
	.st69{fill:#70BFC8;}
	.st70{fill:#A19F9F;}
	.st71{fill:#D62127;stroke:#D62127;stroke-width:2;stroke-linecap:round;stroke-linejoin:round;stroke-miterlimit:10;}
	.st72{fill:#A2D4DE;}
	.st73{fill:#A3DADA;}
	.st74{fill:#DA8727;}
	.st75{fill:#A6D0EE;}
	.st76{fill:#DB4A4B;}
	.st77{fill:#DBB626;}
	.st78{fill:#DDD555;}
	.st79{fill:#DDDDDC;}
]]>
</style>
<g>
	<g>
		<circle class="st49" cx="68.417" cy="68.417" r="63.333"/>
	</g>
	<g>
		<path class="st43" d="M68.417,5.083c-34.978,0-63.333,28.354-63.333,63.333c0,24.479,13.897,45.699,34.224,56.242l85.352-85.352
			C114.117,18.98,92.896,5.083,68.417,5.083z"/>
	</g>
	<g>
		<path class="st53" d="M20.757,57.015c-0.516-0.975-1.726-1.35-2.703-0.832l-12.718,6.73c-0.132,1.535-0.21,3.084-0.231,4.648
			l14.82-7.844C20.902,59.202,21.274,57.992,20.757,57.015z"/>
		<path class="st53" d="M91.521,17.299L73.155,27.02c-0.977,0.517-1.349,1.727-0.832,2.703c0.358,0.678,1.052,1.064,1.77,1.064
			c0.315,0,0.636-0.074,0.934-0.232l18.366-9.721c0.977-0.517,1.349-1.727,0.832-2.703C93.708,17.157,92.498,16.781,91.521,17.299z"
			/>
		<path class="st53" d="M54.788,36.741l-18.366,9.722c-0.977,0.517-1.349,1.727-0.832,2.703c0.358,0.678,1.052,1.064,1.77,1.064
			c0.315,0,0.636-0.074,0.934-0.232l18.366-9.722c0.977-0.517,1.349-1.727,0.832-2.703C56.975,36.597,55.765,36.223,54.788,36.741z"
			/>
	</g>
	<g>
		<g>
			<path class="st51" d="M97.207,112.183c0,1.72-1.393,3.109-3.107,3.109l0,0c-1.717,0-3.107-1.39-3.107-3.109V50.371
				c0-1.717,1.391-3.107,3.107-3.107l0,0c1.715,0,3.107,1.391,3.107,3.107V112.183z"/>
			<g>
				<g>
					<circle class="st11" cx="94.063" cy="51.369" r="21.155"/>
				</g>
				<circle class="st35" cx="94.063" cy="51.369" r="16.812"/>
			</g>
			<g>
				
					<rect x="91.985" y="31.871" transform="matrix(0.7073 -0.7069 0.7069 0.7073 -8.7415 81.6282)" class="st11" width="4.443" height="39"/>
			</g>
		</g>
		<path class="st24" d="M101.763,109.765c-0.266-0.251-0.668-0.287-0.976-0.094l-3.592,2.285l-2.022-4.717
			c-0.124-0.291-0.41-0.479-0.727-0.482c-0.002,0-0.003,0-0.006,0c-0.314,0-0.6,0.187-0.729,0.473l-2.154,4.852l-5.203-0.538
			c-0.331-0.027-0.657,0.147-0.802,0.45c-0.145,0.305-0.082,0.668,0.156,0.906l3.687,3.686c0.148,0.15,0.351,0.234,0.563,0.234
			h8.069c0.288,0,0.554-0.156,0.694-0.406l3.188-5.68C102.089,110.417,102.03,110.017,101.763,109.765z"/>
	</g>
</g>
</svg>
