<?xml version="1.0" encoding="utf-8"?>
<!-- Generator: Adobe Illustrator 16.0.0, SVG Export Plug-In . SVG Version: 6.00 Build 0)  -->
<!DOCTYPE svg PUBLIC "-//W3C//DTD SVG 1.1//EN" "http://www.w3.org/Graphics/SVG/1.1/DTD/svg11.dtd">
<svg version="1.1" id="Layer_1" xmlns="http://www.w3.org/2000/svg" xmlns:xlink="http://www.w3.org/1999/xlink" x="0px" y="0px"
	 width="136.833px" height="136.834px" viewBox="0 0 136.833 136.834" style="enable-background:new 0 0 136.833 136.834;"
	 xml:space="preserve">
<style type="text/css">
<![CDATA[
	.st0{fill:#AA7243;}
	.st1{fill:#49A0AE;}
	.st2{fill:#E0E4E0;}
	.st3{fill:#E17A2D;}
	.st4{fill:#E3A93F;}
	.st5{fill:#E3AA24;}
	.st6{fill:#E3B071;}
	.st7{fill:#4ABC96;}
	.st8{fill:#E5F2E6;}
	.st9{fill:#E79E2D;}
	.st10{fill:#E7DD7F;}
	.st11{fill:#E84849;}
	.st12{fill:#E9B634;}
	.st13{fill:#E9C29C;}
	.st14{fill:#E9E9EA;}
	.st15{fill:#818282;}
	.st16{fill:#B17B48;}
	.st17{fill:#B25E27;}
	.st18{fill:#EADEDF;}
	.st19{fill:#EAE744;}
	.st20{fill:#ECB050;}
	.st21{fill:#EDAF1E;}
	.st22{fill:#EDC92C;}
	.st23{opacity:0.15;fill:#FFFFFF;}
	.st24{fill:#8AB53F;}
	.st25{fill:#202121;}
	.st26{fill:#BEB8B1;}
	.st27{fill:#BF2626;}
	.st28{fill:#F06668;}
	.st29{fill:#F1E85F;}
	.st30{fill:#F37C2A;}
	.st31{fill:#F3C9A1;}
	.st32{fill:#F3EA83;}
	.st33{fill:#F3ED73;}
	.st34{fill:#F4E028;}
	.st35{fill:#F4F5F5;}
	.st36{fill:#5B4F3F;}
	.st37{fill:#F6A2A3;}
	.st38{fill:#F8CC19;}
	.st39{fill:#F8D12E;}
	.st40{fill:#F8D958;}
	.st41{fill:#5E5F5E;}
	.st42{fill:#F9EED1;}
	.st43{fill:#908985;}
	.st44{fill:#C02026;}
	.st45{opacity:0.2;fill:#FFFFFF;}
	.st46{fill:#C2C4C1;}
	.st47{fill:#2D6370;}
	.st48{fill:#996B39;}
	.st49{fill:#99CA41;}
	.st50{opacity:0.8;}
	.st51{fill:#614C32;}
	.st52{fill:#FFC10D;}
	.st53{fill:#FFFFFF;}
	.st54{fill:#626463;}
	.st55{fill:none;}
	.st56{fill:#CA7B29;}
	.st57{fill:#69C6D4;}
	.st58{fill:#9DDAEC;}
	.st59{fill:#9F2322;}
	.st60{fill:#343433;}
	.st61{fill:#344E5D;}
	.st62{fill:#367180;}
	.st63{fill:#D1E8F8;}
	.st64{fill:#3A3A3A;}
	.st65{fill:#D62127;}
	.st66{fill:#D7D7D7;}
	.st67{fill:#3D3B3B;}
	.st68{fill:#D89F29;}
	.st69{fill:#70BFC8;}
	.st70{fill:#A19F9F;}
	.st71{fill:#D62127;stroke:#D62127;stroke-width:2;stroke-linecap:round;stroke-linejoin:round;stroke-miterlimit:10;}
	.st72{fill:#A2D4DE;}
	.st73{fill:#A3DADA;}
	.st74{fill:#DA8727;}
	.st75{fill:#A6D0EE;}
	.st76{fill:#DB4A4B;}
	.st77{fill:#DBB626;}
	.st78{fill:#DDD555;}
	.st79{fill:#DDDDDC;}
]]>
</style>
<g>
	<g>
		<circle class="st7" cx="68.416" cy="68.417" r="63.333"/>
	</g>
	<g>
		<g>
			<circle class="st36" cx="68.417" cy="74.75" r="32.666"/>
		</g>
		<g>
			<path class="st12" d="M67.374,39.039c-0.828,0-1.5-0.673-1.5-1.5v-0.382c-0.004-3.022-0.006-5.876,1.846-7.731
				c1.158-1.158,2.844-1.721,5.154-1.721H86.54c0.828,0,1.5,0.672,1.5,1.5s-0.672,1.5-1.5,1.5H72.874
				c-1.475,0-2.465,0.275-3.031,0.841c-0.975,0.976-0.973,3.122-0.969,5.608v0.385C68.874,38.366,68.202,39.039,67.374,39.039z"/>
		</g>
		<g>
			<path class="st12" d="M73.792,27.705h-0.918c-1.154,0-2.154,0.141-3.008,0.426l1.402,2.292L73.792,27.705z"/>
			<polygon class="st12" points="76.685,27.705 73.897,30.705 76.427,30.705 79.212,27.705 			"/>
			<path class="st12" d="M65.874,37.157v0.382c0,0.827,0.672,1.5,1.5,1.5s1.5-0.673,1.5-1.5v-0.385
				c-0.002-0.351,0-0.692,0.002-1.028l-2.852-2.685C65.88,34.608,65.872,35.864,65.874,37.157z"/>
			<polygon class="st12" points="82.104,27.705 79.319,30.705 81.933,30.705 84.718,27.705 			"/>
			<path class="st12" d="M67.72,29.425c-0.488,0.488-0.84,1.05-1.105,1.661l2.443,2.3c0.111-0.635,0.291-1.169,0.578-1.571
				l-1.623-2.649C67.915,29.25,67.813,29.333,67.72,29.425z"/>
			<path class="st12" d="M87.374,27.958l-2.549,2.746h1.715c0.828,0,1.5-0.672,1.5-1.5C88.04,28.685,87.776,28.227,87.374,27.958z"
				/>
			<path class="st68" d="M86.54,27.705h-1.822l-2.785,3h2.893l2.549-2.746C87.136,27.798,86.849,27.705,86.54,27.705z"/>
			<polygon class="st68" points="79.212,27.705 76.427,30.705 79.319,30.705 82.104,27.705 			"/>
			<path class="st68" d="M73.792,27.705l-2.523,2.718l-1.402-2.292c-0.719,0.24-1.33,0.588-1.854,1.035l1.623,2.649
				c0.066-0.093,0.129-0.191,0.207-0.27c0.566-0.565,1.557-0.841,3.031-0.841h1.023l2.787-3H73.792z"/>
			<path class="st68" d="M66.024,33.441l2.852,2.685c0.008-1.021,0.045-1.953,0.182-2.739l-2.443-2.3
				C66.304,31.803,66.128,32.598,66.024,33.441z"/>
		</g>
		<path class="st36" d="M77.54,46.341c0,2.715-19.666,2.715-19.666,0v-5.686c0-2.716,2.201-4.917,4.916-4.917h9.834
			c2.715,0,4.916,2.201,4.916,4.917V46.341z"/>
		<g>
			<polygon class="st74" points="91.054,24.592 89.716,28.539 92.206,31.876 88.042,31.824 85.636,35.224 84.399,31.248 
				80.421,30.009 83.823,27.605 83.771,23.439 87.108,25.93 			"/>
			<polygon class="st12" points="89.485,26.162 88.669,28.564 90.187,30.597 87.651,30.565 86.187,32.635 85.433,30.213 
				83.011,29.46 85.081,27.996 85.048,25.459 87.083,26.977 			"/>
		</g>
	</g>
	<g>
		<path class="st26" d="M48.899,63.429c-1.902-1.895-1.387-5.498,1.148-8.041c2.537-2.546,6.133-3.073,8.037-1.177
			c1.902,1.895,1.389,5.495-1.15,8.04C54.401,64.796,50.802,65.324,48.899,63.429z"/>
	</g>
</g>
</svg>
