<?xml version="1.0" encoding="utf-8"?>
<!-- Generator: Adobe Illustrator 16.0.0, SVG Export Plug-In . SVG Version: 6.00 Build 0)  -->
<!DOCTYPE svg PUBLIC "-//W3C//DTD SVG 1.1//EN" "http://www.w3.org/Graphics/SVG/1.1/DTD/svg11.dtd">
<svg version="1.1" id="Layer_1" xmlns="http://www.w3.org/2000/svg" xmlns:xlink="http://www.w3.org/1999/xlink" x="0px" y="0px"
	 width="136.833px" height="136.834px" viewBox="0 0 136.833 136.834" style="enable-background:new 0 0 136.833 136.834;"
	 xml:space="preserve">
<style type="text/css">
<![CDATA[
	.st0{fill:#AA7243;}
	.st1{fill:#49A0AE;}
	.st2{fill:#E0E4E0;}
	.st3{fill:#E17A2D;}
	.st4{fill:#E3A93F;}
	.st5{fill:#E3AA24;}
	.st6{fill:#E3B071;}
	.st7{fill:#4ABC96;}
	.st8{fill:#E5F2E6;}
	.st9{fill:#E79E2D;}
	.st10{fill:#E7DD7F;}
	.st11{fill:#E84849;}
	.st12{fill:#E9B634;}
	.st13{fill:#E9C29C;}
	.st14{fill:#E9E9EA;}
	.st15{fill:#818282;}
	.st16{fill:#B17B48;}
	.st17{fill:#B25E27;}
	.st18{fill:#EADEDF;}
	.st19{fill:#EAE744;}
	.st20{fill:#ECB050;}
	.st21{fill:#EDAF1E;}
	.st22{fill:#EDC92C;}
	.st23{opacity:0.15;fill:#FFFFFF;}
	.st24{fill:#8AB53F;}
	.st25{fill:#202121;}
	.st26{fill:#BEB8B1;}
	.st27{fill:#BF2626;}
	.st28{fill:#F06668;}
	.st29{fill:#F1E85F;}
	.st30{fill:#F37C2A;}
	.st31{fill:#F3C9A1;}
	.st32{fill:#F3EA83;}
	.st33{fill:#F3ED73;}
	.st34{fill:#F4E028;}
	.st35{fill:#F4F5F5;}
	.st36{fill:#5B4F3F;}
	.st37{fill:#F6A2A3;}
	.st38{fill:#F8CC19;}
	.st39{fill:#F8D12E;}
	.st40{fill:#F8D958;}
	.st41{fill:#5E5F5E;}
	.st42{fill:#F9EED1;}
	.st43{fill:#908985;}
	.st44{fill:#C02026;}
	.st45{opacity:0.2;fill:#FFFFFF;}
	.st46{fill:#C2C4C1;}
	.st47{fill:#2D6370;}
	.st48{fill:#996B39;}
	.st49{fill:#99CA41;}
	.st50{opacity:0.8;}
	.st51{fill:#614C32;}
	.st52{fill:#FFC10D;}
	.st53{fill:#FFFFFF;}
	.st54{fill:#626463;}
	.st55{fill:none;}
	.st56{fill:#CA7B29;}
	.st57{fill:#69C6D4;}
	.st58{fill:#9DDAEC;}
	.st59{fill:#9F2322;}
	.st60{fill:#343433;}
	.st61{fill:#344E5D;}
	.st62{fill:#367180;}
	.st63{fill:#D1E8F8;}
	.st64{fill:#3A3A3A;}
	.st65{fill:#D62127;}
	.st66{fill:#D7D7D7;}
	.st67{fill:#3D3B3B;}
	.st68{fill:#D89F29;}
	.st69{fill:#70BFC8;}
	.st70{fill:#A19F9F;}
	.st71{fill:#D62127;stroke:#D62127;stroke-width:2;stroke-linecap:round;stroke-linejoin:round;stroke-miterlimit:10;}
	.st72{fill:#A2D4DE;}
	.st73{fill:#A3DADA;}
	.st74{fill:#DA8727;}
	.st75{fill:#A6D0EE;}
	.st76{fill:#DB4A4B;}
	.st77{fill:#DBB626;}
	.st78{fill:#DDD555;}
	.st79{fill:#DDDDDC;}
]]>
</style>
<g>
	<g>
		<circle class="st1" cx="68.416" cy="68.417" r="63.333"/>
	</g>
	<g>
		<circle class="st28" cx="69.237" cy="80.399" r="36.309"/>
		<circle class="st37" cx="69.237" cy="80.399" r="32.809"/>
		<ellipse class="st14" cx="69.238" cy="80.399" rx="31.198" ry="30.479"/>
		<g>
			<circle class="st54" cx="69.47" cy="80.132" r="5.04"/>
			<path class="st54" d="M69.788,80.959c-0.41,0.411-1.074,0.409-1.484,0l0,0c-0.41-0.41-0.41-1.075,0-1.485L81.71,66.069
				c0.41-0.411,1.074-0.41,1.484,0l0,0c0.41,0.409,0.41,1.074,0,1.484L69.788,80.959z"/>
			<path class="st54" d="M68.304,80.79c-0.41-0.41-0.41-1.074,0-1.484l0,0c0.41-0.41,1.074-0.41,1.484,0l16.971,16.969
				c0.41,0.41,0.41,1.076,0,1.486l0,0c-0.41,0.409-1.076,0.409-1.486,0L68.304,80.79z"/>
		</g>
		<path class="st54" d="M50.821,50.971c0.574,0.576-0.119,2.202-1.551,3.633l0,0c-1.43,1.43-3.057,2.125-3.631,1.549l-5.867-5.866
			c-0.574-0.575,0.119-2.202,1.549-3.632l0,0c1.432-1.431,3.059-2.125,3.633-1.55L50.821,50.971z"/>
		<path class="st54" d="M72.831,45.393c0,0.814-1.641,1.473-3.662,1.473l0,0c-2.023,0-3.664-0.658-3.664-1.473v-8.297
			c0-0.813,1.641-1.473,3.664-1.473l0,0c2.021,0,3.662,0.66,3.662,1.473V45.393z"/>
		<path class="st54" d="M73.317,35.083c0.813,0,1.471,0.879,1.471,1.964l0,0c0,1.084-0.658,1.964-1.471,1.964h-8.299
			c-0.813,0-1.471-0.88-1.471-1.964l0,0c0-1.085,0.658-1.964,1.471-1.964H73.317z"/>
		<path class="st54" d="M92.921,56.182c-0.574,0.574-2.201-0.119-3.631-1.551l0,0c-1.432-1.43-2.125-3.057-1.551-3.631l5.867-5.867
			c0.576-0.575,2.201,0.119,3.633,1.549l0,0c1.43,1.432,2.123,3.057,1.549,3.633L92.921,56.182z"/>
		<path class="st54" d="M98.843,110.374c0.574,0.575-0.119,2.201-1.551,3.633l0,0c-1.43,1.43-3.057,2.124-3.631,1.549l-5.867-5.867
			c-0.576-0.574,0.119-2.201,1.549-3.631l0,0c1.432-1.432,3.057-2.125,3.633-1.551L98.843,110.374z"/>
		<path class="st54" d="M44.345,115.444c-0.574,0.575-2.201-0.119-3.631-1.549l0,0c-1.432-1.431-2.125-3.057-1.551-3.633
			l5.867-5.866c0.574-0.575,2.201,0.119,3.633,1.55l0,0c1.43,1.43,2.123,3.057,1.549,3.631L44.345,115.444z"/>
		<path class="st76" d="M51.743,36.798c6.01,5.824-15.08,27.59-21.09,21.765c-6.012-5.823-6.162-15.416-0.338-21.428
			C36.138,31.125,45.731,30.975,51.743,36.798z"/>
		<path class="st76" d="M108.065,58.352c-5.822,6.011-27.59-15.079-21.764-21.09c5.822-6.01,15.416-6.161,21.428-0.338
			C113.739,42.749,113.89,52.342,108.065,58.352z"/>
		<circle class="st54" cx="31.914" cy="37.989" r="3.493"/>
		<path class="st54" d="M106.755,36.489c-3.145,0-6.857-3.248-11.158-7.011c-6.607-5.781-14.832-12.977-26.176-12.977
			c-0.029,0-0.057,0.007-0.086,0.009c-0.029-0.002-0.057-0.009-0.086-0.009c-11.346,0-19.568,7.195-26.178,12.977
			c-4.299,3.763-8.014,7.011-11.156,7.011c-0.83,0-1.5,0.672-1.5,1.5c0,0.829,0.67,1.5,1.5,1.5c4.271,0,8.377-3.592,13.133-7.753
			c6.555-5.734,13.984-12.234,24.201-12.234c0.029,0,0.057-0.006,0.086-0.009c0.029,0.003,0.057,0.009,0.086,0.009
			c10.217,0,17.646,6.5,24.201,12.234c4.756,4.161,8.861,7.753,13.133,7.753c0.828,0,1.5-0.671,1.5-1.5
			C108.255,37.161,107.583,36.489,106.755,36.489z"/>
		<circle class="st54" cx="106.755" cy="37.989" r="3.494"/>
	</g>
</g>
</svg>
