<?xml version="1.0" encoding="utf-8"?>
<!-- Generator: Adobe Illustrator 16.0.0, SVG Export Plug-In . SVG Version: 6.00 Build 0)  -->
<!DOCTYPE svg PUBLIC "-//W3C//DTD SVG 1.1//EN" "http://www.w3.org/Graphics/SVG/1.1/DTD/svg11.dtd">
<svg version="1.1" id="Layer_1" xmlns="http://www.w3.org/2000/svg" xmlns:xlink="http://www.w3.org/1999/xlink" x="0px" y="0px"
	 width="136.833px" height="136.833px" viewBox="0 0 136.833 136.833" style="enable-background:new 0 0 136.833 136.833;"
	 xml:space="preserve">
<style type="text/css">
<![CDATA[
	.st0{fill:#AA7243;}
	.st1{fill:#49A0AE;}
	.st2{fill:#E0E4E0;}
	.st3{fill:#E17A2D;}
	.st4{fill:#E3A93F;}
	.st5{fill:#E3AA24;}
	.st6{fill:#E3B071;}
	.st7{fill:#4ABC96;}
	.st8{fill:#E5F2E6;}
	.st9{fill:#E79E2D;}
	.st10{fill:#E7DD7F;}
	.st11{fill:#E84849;}
	.st12{fill:#E9B634;}
	.st13{fill:#E9C29C;}
	.st14{fill:#E9E9EA;}
	.st15{fill:#818282;}
	.st16{fill:#B17B48;}
	.st17{fill:#B25E27;}
	.st18{fill:#EADEDF;}
	.st19{fill:#EAE744;}
	.st20{fill:#ECB050;}
	.st21{fill:#EDAF1E;}
	.st22{fill:#EDC92C;}
	.st23{opacity:0.15;fill:#FFFFFF;}
	.st24{fill:#8AB53F;}
	.st25{fill:#202121;}
	.st26{fill:#BEB8B1;}
	.st27{fill:#BF2626;}
	.st28{fill:#F06668;}
	.st29{fill:#F1E85F;}
	.st30{fill:#F37C2A;}
	.st31{fill:#F3C9A1;}
	.st32{fill:#F3EA83;}
	.st33{fill:#F3ED73;}
	.st34{fill:#F4E028;}
	.st35{fill:#F4F5F5;}
	.st36{fill:#5B4F3F;}
	.st37{fill:#F6A2A3;}
	.st38{fill:#F8CC19;}
	.st39{fill:#F8D12E;}
	.st40{fill:#F8D958;}
	.st41{fill:#5E5F5E;}
	.st42{fill:#F9EED1;}
	.st43{fill:#908985;}
	.st44{fill:#C02026;}
	.st45{opacity:0.2;fill:#FFFFFF;}
	.st46{fill:#C2C4C1;}
	.st47{fill:#2D6370;}
	.st48{fill:#996B39;}
	.st49{fill:#99CA41;}
	.st50{opacity:0.8;}
	.st51{fill:#614C32;}
	.st52{fill:#FFC10D;}
	.st53{fill:#FFFFFF;}
	.st54{fill:#626463;}
	.st55{fill:none;}
	.st56{fill:#CA7B29;}
	.st57{fill:#69C6D4;}
	.st58{fill:#9DDAEC;}
	.st59{fill:#9F2322;}
	.st60{fill:#343433;}
	.st61{fill:#344E5D;}
	.st62{fill:#367180;}
	.st63{fill:#D1E8F8;}
	.st64{fill:#3A3A3A;}
	.st65{fill:#D62127;}
	.st66{fill:#D7D7D7;}
	.st67{fill:#3D3B3B;}
	.st68{fill:#D89F29;}
	.st69{fill:#70BFC8;}
	.st70{fill:#A19F9F;}
	.st71{fill:#D62127;stroke:#D62127;stroke-width:2;stroke-linecap:round;stroke-linejoin:round;stroke-miterlimit:10;}
	.st72{fill:#A2D4DE;}
	.st73{fill:#A3DADA;}
	.st74{fill:#DA8727;}
	.st75{fill:#A6D0EE;}
	.st76{fill:#DB4A4B;}
	.st77{fill:#DBB626;}
	.st78{fill:#DDD555;}
	.st79{fill:#DDDDDC;}
]]>
</style>
<g>
	<g>
		<circle class="st11" cx="68.417" cy="68.417" r="63.333"/>
	</g>
	<g>
		<path class="st31" d="M89.915,83.825c0,4.625-1.957,18.214-2.707,18.214h-30.25c-1.382,0-2.917-7.252-3.75-9.418l-0.001-8.568
			c0-4.625,1.591-10.805,6.215-10.805h24.286c4.625,0,6.207,1.582,6.207,6.207V83.825z"/>
		<g>
			<path class="st31" d="M53.179,92.436c0,0-7.51-10.37-9.608-14.634c-1.068-2.177-0.659-7.518-1.031-12.764
				c-0.358-5.038-2.005-9.56-0.782-10.658c3.346-3.01,7.41,2.923,7.777,3.643c3.123,6.123,3.738,15.287,3.738,15.287l5.932,7.396
				L53.179,92.436z"/>
		</g>
		<polygon class="st31" points="89.915,83.634 52.455,90.205 52.455,57.062 89.915,61.398 		"/>
		<g>
			<path class="st31" d="M61.726,60.107c0,2.557-2.072,4.627-4.625,4.627l0,0c-2.557,0-4.627-2.07-4.627-4.627V30.091
				c0-2.555,2.07-4.627,4.627-4.627l0,0c2.553,0,4.625,2.072,4.625,4.627V60.107z"/>
		</g>
		<g>
			<path class="st31" d="M71.122,60.107c0,2.557-2.071,4.627-4.625,4.627l0,0c-2.556,0-4.628-2.07-4.628-4.627V22.865
				c0-2.555,2.072-4.628,4.628-4.628l0,0c2.554,0,4.625,2.073,4.625,4.628V60.107z"/>
		</g>
		<g>
			<path class="st31" d="M80.518,60.107c0,2.557-2.071,4.627-4.626,4.627l0,0c-2.555,0-4.628-2.07-4.628-4.627V28.646
				c0-2.555,2.073-4.627,4.628-4.627l0,0c2.555,0,4.626,2.072,4.626,4.627V60.107z"/>
		</g>
		<g>
			<path class="st31" d="M89.915,60.83c0,2.555-2.073,4.627-4.626,4.627l0,0c-2.557,0-4.628-2.072-4.628-4.627V44.546
				c0-2.555,2.071-4.627,4.628-4.627l0,0c2.553,0,4.626,2.072,4.626,4.627V60.83z"/>
		</g>
		<rect x="54.162" y="99.848" class="st18" width="34.022" height="26.022"/>
		<g>
			<path class="st59" d="M89.232,103.099H53.681c-0.626,0-1.133,0.51-1.133,1.135v25.512c5.071,1.309,10.389,2.005,15.868,2.005
				c7.718,0,15.11-1.384,21.95-3.912v-23.604C90.367,103.609,89.86,103.099,89.232,103.099z"/>
		</g>
	</g>
</g>
</svg>
