<?xml version="1.0" encoding="utf-8"?>
<!-- Generator: Adobe Illustrator 16.0.0, SVG Export Plug-In . SVG Version: 6.00 Build 0)  -->
<!DOCTYPE svg PUBLIC "-//W3C//DTD SVG 1.1//EN" "http://www.w3.org/Graphics/SVG/1.1/DTD/svg11.dtd">
<svg version="1.1" id="Layer_1" xmlns="http://www.w3.org/2000/svg" xmlns:xlink="http://www.w3.org/1999/xlink" x="0px" y="0px"
	 width="136.833px" height="136.833px" viewBox="0 0 136.833 136.833" style="enable-background:new 0 0 136.833 136.833;"
	 xml:space="preserve">
<style type="text/css">
<![CDATA[
	.st0{fill:#AA7243;}
	.st1{fill:#49A0AE;}
	.st2{fill:#E0E4E0;}
	.st3{fill:#E17A2D;}
	.st4{fill:#E3A93F;}
	.st5{fill:#E3AA24;}
	.st6{fill:#E3B071;}
	.st7{fill:#4ABC96;}
	.st8{fill:#E5F2E6;}
	.st9{fill:#E79E2D;}
	.st10{fill:#E7DD7F;}
	.st11{fill:#E84849;}
	.st12{fill:#E9B634;}
	.st13{fill:#E9C29C;}
	.st14{fill:#E9E9EA;}
	.st15{fill:#818282;}
	.st16{fill:#B17B48;}
	.st17{fill:#B25E27;}
	.st18{fill:#EADEDF;}
	.st19{fill:#EAE744;}
	.st20{fill:#ECB050;}
	.st21{fill:#EDAF1E;}
	.st22{fill:#EDC92C;}
	.st23{opacity:0.15;fill:#FFFFFF;}
	.st24{fill:#8AB53F;}
	.st25{fill:#202121;}
	.st26{fill:#BEB8B1;}
	.st27{fill:#BF2626;}
	.st28{fill:#F06668;}
	.st29{fill:#F1E85F;}
	.st30{fill:#F37C2A;}
	.st31{fill:#F3C9A1;}
	.st32{fill:#F3EA83;}
	.st33{fill:#F3ED73;}
	.st34{fill:#F4E028;}
	.st35{fill:#F4F5F5;}
	.st36{fill:#5B4F3F;}
	.st37{fill:#F6A2A3;}
	.st38{fill:#F8CC19;}
	.st39{fill:#F8D12E;}
	.st40{fill:#F8D958;}
	.st41{fill:#5E5F5E;}
	.st42{fill:#F9EED1;}
	.st43{fill:#908985;}
	.st44{fill:#C02026;}
	.st45{opacity:0.2;fill:#FFFFFF;}
	.st46{fill:#C2C4C1;}
	.st47{fill:#2D6370;}
	.st48{fill:#996B39;}
	.st49{fill:#99CA41;}
	.st50{opacity:0.8;}
	.st51{fill:#614C32;}
	.st52{fill:#FFC10D;}
	.st53{fill:#FFFFFF;}
	.st54{fill:#626463;}
	.st55{fill:none;}
	.st56{fill:#CA7B29;}
	.st57{fill:#69C6D4;}
	.st58{fill:#9DDAEC;}
	.st59{fill:#9F2322;}
	.st60{fill:#343433;}
	.st61{fill:#344E5D;}
	.st62{fill:#367180;}
	.st63{fill:#D1E8F8;}
	.st64{fill:#3A3A3A;}
	.st65{fill:#D62127;}
	.st66{fill:#D7D7D7;}
	.st67{fill:#3D3B3B;}
	.st68{fill:#D89F29;}
	.st69{fill:#70BFC8;}
	.st70{fill:#A19F9F;}
	.st71{fill:#D62127;stroke:#D62127;stroke-width:2;stroke-linecap:round;stroke-linejoin:round;stroke-miterlimit:10;}
	.st72{fill:#A2D4DE;}
	.st73{fill:#A3DADA;}
	.st74{fill:#DA8727;}
	.st75{fill:#A6D0EE;}
	.st76{fill:#DB4A4B;}
	.st77{fill:#DBB626;}
	.st78{fill:#DDD555;}
	.st79{fill:#DDDDDC;}
]]>
</style>
<g>
	<g>
		<circle class="st61" cx="68.416" cy="68.417" r="63.333"/>
	</g>
	<g>
		<ellipse class="st42" cx="68.206" cy="54.596" rx="36.004" ry="33.538"/>
		<path class="st42" d="M95.058,72.351l-27.234,0.878l-27.236-0.878c0,0-6.904,14.797,0,15.783c0,0,10.357,3.452,12.824,5.424
			h11.068h6.686h11.07c2.465-1.972,12.822-5.424,12.822-5.424C101.964,87.148,95.058,72.351,95.058,72.351z"/>
		<path class="st42" d="M82.669,98.312c0,0.476-2.004,1.209-4.725,1.846c-0.076,0.018-0.791-2.012-0.891-2.037
			c-0.123-0.03-0.414,2.324-0.49,2.34c-2.521,0.516-5.418,0.918-7.869,0.98c-0.221,0.006-0.439-1.81-0.652-1.81
			c-0.189,0-0.381,1.815-0.576,1.812c-2.055-0.048-4.42-0.338-6.607-0.735c-0.186-0.034-0.33-2.397-0.512-2.433
			c-0.217-0.042-0.805,2.176-0.867,2.164c-3.301-0.693-5.904-1.579-5.904-2.127V87.32c0-1.004,1.26-1.815,2.814-1.815h23.463
			c1.555,0,2.816,0.812,2.816,1.815V98.312z"/>
		<path class="st42" d="M87.538,98.825c0,4.979-0.813,10.124-4.801,14.255c-2.779,2.78-9.438,4.771-14.695,4.771
			c-5.281,0-12.23-2.276-14.746-4.79c-3.957-4.117-4.75-9.238-4.75-14.235c0-3.023,4.793,8.47,19.496,8.47
			S87.538,95.801,87.538,98.825z"/>
		<path class="st61" d="M62.206,67.749c0,4.085-4.121,5.836-9.205,5.836c-5.086,0-9.209-1.751-9.209-5.836
			c0-2.179,4.123-7.397,9.209-7.397C58.085,60.351,62.206,64.09,62.206,67.749z"/>
		<path class="st61" d="M74.372,67.749c0,4.085,4.121,5.836,9.205,5.836s9.207-1.751,9.207-5.836c0-2.179-4.123-7.397-9.207-7.397
			S74.372,64.09,74.372,67.749z"/>
		<path class="st61" d="M68.411,67.666c0,0-5.424,6.535-5.424,15.536c0,0,6.104-4.993,11.344,0.247
			C74.331,83.449,73.468,72.721,68.411,67.666z"/>
	</g>
</g>
</svg>
