<?xml version="1.0" encoding="utf-8"?>
<!-- Generator: Adobe Illustrator 16.0.0, SVG Export Plug-In . SVG Version: 6.00 Build 0)  -->
<!DOCTYPE svg PUBLIC "-//W3C//DTD SVG 1.1//EN" "http://www.w3.org/Graphics/SVG/1.1/DTD/svg11.dtd">
<svg version="1.1" id="Layer_1" xmlns="http://www.w3.org/2000/svg" xmlns:xlink="http://www.w3.org/1999/xlink" x="0px" y="0px"
	 width="136.833px" height="136.833px" viewBox="0 0 136.833 136.833" style="enable-background:new 0 0 136.833 136.833;"
	 xml:space="preserve">
<style type="text/css">
<![CDATA[
	.st0{fill:#AA7243;}
	.st1{fill:#49A0AE;}
	.st2{fill:#E0E4E0;}
	.st3{fill:#E17A2D;}
	.st4{fill:#E3A93F;}
	.st5{fill:#E3AA24;}
	.st6{fill:#E3B071;}
	.st7{fill:#4ABC96;}
	.st8{fill:#E5F2E6;}
	.st9{fill:#E79E2D;}
	.st10{fill:#E7DD7F;}
	.st11{fill:#E84849;}
	.st12{fill:#E9B634;}
	.st13{fill:#E9C29C;}
	.st14{fill:#E9E9EA;}
	.st15{fill:#818282;}
	.st16{fill:#B17B48;}
	.st17{fill:#B25E27;}
	.st18{fill:#EADEDF;}
	.st19{fill:#EAE744;}
	.st20{fill:#ECB050;}
	.st21{fill:#EDAF1E;}
	.st22{fill:#EDC92C;}
	.st23{opacity:0.15;fill:#FFFFFF;}
	.st24{fill:#8AB53F;}
	.st25{fill:#202121;}
	.st26{fill:#BEB8B1;}
	.st27{fill:#BF2626;}
	.st28{fill:#F06668;}
	.st29{fill:#F1E85F;}
	.st30{fill:#F37C2A;}
	.st31{fill:#F3C9A1;}
	.st32{fill:#F3EA83;}
	.st33{fill:#F3ED73;}
	.st34{fill:#F4E028;}
	.st35{fill:#F4F5F5;}
	.st36{fill:#5B4F3F;}
	.st37{fill:#F6A2A3;}
	.st38{fill:#F8CC19;}
	.st39{fill:#F8D12E;}
	.st40{fill:#F8D958;}
	.st41{fill:#5E5F5E;}
	.st42{fill:#F9EED1;}
	.st43{fill:#908985;}
	.st44{fill:#C02026;}
	.st45{opacity:0.2;fill:#FFFFFF;}
	.st46{fill:#C2C4C1;}
	.st47{fill:#2D6370;}
	.st48{fill:#996B39;}
	.st49{fill:#99CA41;}
	.st50{opacity:0.8;}
	.st51{fill:#614C32;}
	.st52{fill:#FFC10D;}
	.st53{fill:#FFFFFF;}
	.st54{fill:#626463;}
	.st55{fill:none;}
	.st56{fill:#CA7B29;}
	.st57{fill:#69C6D4;}
	.st58{fill:#9DDAEC;}
	.st59{fill:#9F2322;}
	.st60{fill:#343433;}
	.st61{fill:#344E5D;}
	.st62{fill:#367180;}
	.st63{fill:#D1E8F8;}
	.st64{fill:#3A3A3A;}
	.st65{fill:#D62127;}
	.st66{fill:#D7D7D7;}
	.st67{fill:#3D3B3B;}
	.st68{fill:#D89F29;}
	.st69{fill:#70BFC8;}
	.st70{fill:#A19F9F;}
	.st71{fill:#D62127;stroke:#D62127;stroke-width:2;stroke-linecap:round;stroke-linejoin:round;stroke-miterlimit:10;}
	.st72{fill:#A2D4DE;}
	.st73{fill:#A3DADA;}
	.st74{fill:#DA8727;}
	.st75{fill:#A6D0EE;}
	.st76{fill:#DB4A4B;}
	.st77{fill:#DBB626;}
	.st78{fill:#DDD555;}
	.st79{fill:#DDDDDC;}
]]>
</style>
<g>
	<g>
		<circle class="st61" cx="68.416" cy="68.417" r="63.333"/>
	</g>
	<g>
		<g>
			<ellipse class="st42" cx="31.973" cy="39.304" rx="8.075" ry="6.28"/>
			<ellipse class="st42" cx="38.69" cy="32.586" rx="6.279" ry="8.075"/>
		</g>
		<g>
			<path class="st42" d="M31.294,38.625l67.111,67.111c1.797,1.798,8.311-4.715,6.512-6.513L37.806,32.111
				C36.009,30.314,29.495,36.827,31.294,38.625z"/>
			<ellipse class="st42" cx="97.726" cy="105.056" rx="6.281" ry="8.075"/>
			<path class="st42" d="M96.366,98.341c0-3.471,3.617-6.281,8.076-6.283c4.461,0.002,8.074,2.813,8.074,6.283
				c0,3.467-3.613,6.277-8.074,6.279C99.983,104.621,96.366,101.808,96.366,98.341z"/>
		</g>
	</g>
	<g>
		<g>
			<ellipse class="st42" cx="38.69" cy="105.056" rx="6.279" ry="8.074"/>
			<ellipse class="st42" cx="31.973" cy="98.337" rx="8.075" ry="6.279"/>
		</g>
		<g>
			<path class="st42" d="M38.011,105.734l67.111-67.109c1.797-1.799-4.715-8.313-6.514-6.514L31.497,99.222
				C29.7,101.021,36.212,107.535,38.011,105.734z"/>
			<path class="st42" d="M96.366,39.302c0.002,3.471,3.617,6.281,8.078,6.281c4.459,0,8.074-2.811,8.072-6.281
				c0-3.467-3.613-6.277-8.072-6.279C99.983,33.025,96.368,35.833,96.366,39.302z"/>
			<path class="st42" d="M97.728,40.662c-3.471,0-6.281-3.617-6.283-8.076c0.002-4.461,2.813-8.074,6.283-8.074
				c3.467,0,6.277,3.613,6.279,8.074C104.007,37.044,101.194,40.662,97.728,40.662z"/>
		</g>
		<path class="st61" d="M95.331,58.9c0-13.798-12.02-25.023-26.791-25.023c-14.773,0-26.791,11.226-26.791,25.023
			c0,5.335,1.77,10.416,5.123,14.713c-1.477,4.078-1.713,7.011-0.705,8.721c0.514,0.871,1.354,1.425,2.273,1.54
			c1.33,0.437,6.846,2.375,8.619,3.534v2.807c0,0.733,0.387,1.531,5.074,2.51l0.154,0.014c0.117,0,0.227-0.016,0.324-0.047
			c0.119,0.101,0.275,0.185,0.484,0.225c1.744,0.316,3.48,0.509,4.9,0.543h0.012c0.164,0,0.314-0.032,0.447-0.095
			c0.137,0.062,0.289,0.093,0.459,0.093c1.66-0.043,3.777-0.307,5.803-0.722c0.223-0.044,0.383-0.129,0.502-0.241
			c0.104,0.028,0.178,0.028,0.352,0.04l0.172-0.022c3.477-0.814,4.156-1.459,4.156-2.297v-3.057c1.4-0.781,4.189-1.909,7.924-3.201
			c0.043-0.015,0.088-0.03,0.133-0.049c1.068-0.162,1.875-0.685,2.395-1.553c0.979-1.632,0.803-4.412-0.523-8.268
			C93.429,69.696,95.331,64.45,95.331,58.9z"/>
	</g>
	<g>
		<ellipse class="st42" cx="68.539" cy="59.273" rx="24.671" ry="22.98"/>
		<path class="st42" d="M86.94,71.439l-18.664,0.602l-18.662-0.602c0,0-4.73,10.139,0,10.814c0,0,7.098,2.367,8.787,3.718h7.584
			h4.582h7.586c1.689-1.351,8.787-3.718,8.787-3.718C91.671,81.578,86.94,71.439,86.94,71.439z"/>
		<path class="st42" d="M78.282,89.228c0,0.326-1.373,0.828-3.236,1.265c-0.053,0.013-0.543-1.378-0.611-1.396
			c-0.084-0.021-0.283,1.593-0.336,1.604c-1.727,0.354-3.713,0.629-5.393,0.672c-0.15,0.004-0.301-1.24-0.447-1.24
			c-0.129,0-0.26,1.244-0.395,1.242c-1.408-0.033-3.027-0.232-4.527-0.504c-0.127-0.024-0.225-1.643-0.352-1.668
			c-0.148-0.029-0.551,1.492-0.592,1.482c-2.262-0.474-4.047-1.081-4.047-1.457v-7.532c0-0.687,0.863-1.243,1.93-1.243h16.076
			c1.066,0,1.93,0.557,1.93,1.243V89.228z"/>
		<path class="st42" d="M81.165,91.375c0,3.254-0.531,6.615-3.137,9.313c-1.816,1.817-6.166,3.116-9.602,3.116
			c-3.449,0-7.99-1.486-9.633-3.129c-2.586-2.689-3.104-6.035-3.104-9.301c0-1.975,3.131,5.533,12.736,5.533
			S81.165,89.4,81.165,91.375z"/>
		<path class="st61" d="M64.429,68.285c0,2.801-2.824,4-6.309,4s-6.309-1.199-6.309-4c0-1.492,2.824-5.068,6.309-5.068
			S64.429,65.779,64.429,68.285z"/>
		<path class="st61" d="M72.765,68.285c0,2.801,2.824,4,6.307,4c3.484,0,6.311-1.199,6.311-4c0-1.492-2.826-5.068-6.311-5.068
			C75.589,63.216,72.765,65.779,72.765,68.285z"/>
		<path class="st61" d="M68.681,68.228c0,0-3.717,4.479-3.717,10.646c0,0,4.182-3.422,7.773,0.169
			C72.737,79.043,72.144,71.693,68.681,68.228z"/>
	</g>
</g>
</svg>
