<?xml version="1.0" encoding="utf-8"?>
<!-- Generator: Adobe Illustrator 16.0.0, SVG Export Plug-In . SVG Version: 6.00 Build 0)  -->
<!DOCTYPE svg PUBLIC "-//W3C//DTD SVG 1.1//EN" "http://www.w3.org/Graphics/SVG/1.1/DTD/svg11.dtd">
<svg version="1.1" id="Layer_1" xmlns="http://www.w3.org/2000/svg" xmlns:xlink="http://www.w3.org/1999/xlink" x="0px" y="0px"
	 width="136.833px" height="136.834px" viewBox="0 0 136.833 136.834" style="enable-background:new 0 0 136.833 136.834;"
	 xml:space="preserve">
<style type="text/css">
<![CDATA[
	.st0{fill:#4699A1;}
	.st1{fill:#473C30;}
	.st2{fill:#AAAAAA;}
	.st3{fill-rule:evenodd;clip-rule:evenodd;fill:#D7AF8F;}
	.st4{fill:#49596B;}
	.st5{fill:#7D3719;}
	.st6{fill:#49A0AE;}
	.st7{fill:#AFAFA3;}
	.st8{fill:#E3AA24;}
	.st9{fill:#4ABC96;}
	.st10{fill:#181E1D;}
	.st11{fill:#E6BE20;}
	.st12{fill:#E79E2D;}
	.st13{fill:#E7E7D6;}
	.st14{fill:#E84849;}
	.st15{fill:#E9C29C;}
	.st16{fill:#E9E9EA;}
	.st17{fill:#807F7F;}
	.st18{fill:#809598;}
	.st19{fill:#81725B;}
	.st20{fill:#B1D4D7;}
	.st21{fill:#83CECA;}
	.st22{fill:#B58755;}
	.st23{fill:#B6B6B7;}
	.st24{fill:#1D8D45;}
	.st25{fill:#1D9E49;}
	.st26{fill:#ECE1D0;}
	.st27{fill:#ECEDEA;}
	.st28{fill:#B9B9BA;}
	.st29{fill:#EDC92C;}
	.st30{fill:#1FA85B;}
	.st31{fill:#526B70;}
	.st32{fill:#575757;}
	.st33{fill:#BB5538;}
	.st34{fill:#8C402B;}
	.st35{fill:#8C5228;}
	.st36{fill:#BC992F;}
	.st37{fill:#8D8D8D;}
	.st38{fill-rule:evenodd;clip-rule:evenodd;fill:#E8C790;}
	.st39{fill:#8E6E52;}
	.st40{fill:#202121;}
	.st41{fill:#202B2D;}
	.st42{fill-rule:evenodd;clip-rule:evenodd;fill:#E9C29C;}
	.st43{fill:#BF8A67;}
	.st44{fill:#21AC4B;}
	.st45{fill:#BFBEBE;}
	.st46{fill:#BFC1A9;}
	.st47{fill:#242D2B;}
	.st48{fill:#F37C2A;}
	.st49{fill:#27636D;}
	.st50{fill:#5B4F3F;}
	.st51{fill:#28333B;}
	.st52{fill:#F6DA66;}
	.st53{fill-rule:evenodd;clip-rule:evenodd;fill:#ECE1D0;}
	.st54{fill:#5E5F5E;}
	.st55{fill:url(#SVGID_1_);}
	.st56{fill:#C48F2C;}
	.st57{fill:#2A3633;}
	.st58{fill:#2A646E;}
	.st59{fill:#C5C3AE;}
	.st60{fill:#2B2B2A;}
	.st61{fill:#606060;}
	.st62{fill-rule:evenodd;clip-rule:evenodd;fill:#BEBEBE;}
	.st63{fill:#FFFFFF;}
	.st64{fill-rule:evenodd;clip-rule:evenodd;fill:#F2E8D3;}
	.st65{fill:#65A844;}
	.st66{fill-rule:evenodd;clip-rule:evenodd;fill:#F5DFB5;}
	.st67{fill:#CBCBC5;}
	.st68{fill:#9E7C5A;}
	.st69{fill:#9E9F9F;}
	.st70{fill:#CDCCCB;}
	.st71{fill:#CDCDCE;}
	.st72{fill:#9F77AA;}
	.st73{fill:#327477;}
	.st74{fill:#333738;}
	.st75{fill:#343433;}
	.st76{fill:#344E5D;}
	.st77{fill:#357180;}
	.st78{fill:#36454F;}
	.st79{fill:#383939;}
	.st80{fill:#6C533E;}
	.st81{fill:#6CC077;}
	.st82{fill:#6D5D49;}
	.st83{fill:#6EC2CB;}
	.st84{fill:#6F8284;}
	.st85{fill:#028CA3;}
	.st86{fill:#D1962A;}
	.st87{fill:#D1AFD2;}
	.st88{fill:#036A7B;}
	.st89{fill:#039A88;}
	.st90{fill:#D3E8E9;}
	.st91{fill:#D5CEA9;}
	.st92{fill:#3B7F89;}
	.st93{fill:#D62127;}
	.st94{fill:#3C4D5B;}
	.st95{fill:#D7AE29;}
	.st96{fill:#D7B129;}
	.st97{fill:#D7D7BF;}
	.st98{fill:#D7D7D7;}
	.st99{fill:#D7DABA;}
	.st100{fill:#70BFC8;}
	.st101{fill:#A2D4DE;}
	.st102{fill:#A480B1;}
	.st103{fill:#A48A75;}
	.st104{fill:#786451;}
	.st105{fill:#DBF0F5;}
	.st106{fill:#797979;}
	.st107{fill:#DCDCC6;}
	.st108{fill:#DCDCD2;}
	.st109{fill:#DCDDD8;}
	.st110{fill:#DDDDDC;}
	.st111{fill:#DFBA24;}
	.st112{fill:#DFDFDF;}
	.st113{fill:#435364;}
	.st114{fill:#43B665;}
]]>
</style>
<g>
	<g>
		<g>
			<g>
				<g>
					<g>
						<g>
							<g>
								<circle class="st77" cx="68.416" cy="68.417" r="63.333"/>
							</g>
						</g>
					</g>
				</g>
			</g>
		</g>
		<g>
			<g>
				<g>
					<g>
						<g>
							<path class="st2" d="M37.126,48.338c2.176-5.909,9.484-6.064,9.484-6.064c-3.73-3.266-7.93-2.955-7.93-2.955
								c3.887-6.842,9.641-3.887,9.641-3.887c-0.154-1.4-4.664-6.843-4.664-6.843c4.51-0.155,8.863,4.51,8.863,4.51
								c-0.156-2.333,1.711-6.376,1.711-6.376c5.287,1.089,10.729,5.909,10.729,5.909l1.244-4.51l2.885,3.342l2.248-2.72
								c-0.313,1.556,0.977,5.589,0.977,5.589c3.311-8.873,15.506-7.144,15.506-7.144c-2.955,1.711-2.178,4.51-2.178,4.51
								c6.221-2.799,11.818,1.866,11.818,1.866c-5.287,0.155-6.998,2.177-6.998,2.177c10.109-0.311,11.664,6.531,11.664,6.531
								c-5.287-0.777-5.91,2.488-5.91,2.488c7.309,2.177,5.133,9.952,5.133,9.952c-2.021-3.11-5.6-2.8-5.6-2.8
								c3.266,5.132,0.313,7.775,0.313,7.775c-0.777-3.732-7.035-4.374-7.035-4.374c1.982,2.157,0.193,8.262,0.193,8.262
								c-1.09-1.711-4.51-3.266-4.51-3.266l-17.416,0.442v0.024c-0.041-0.008-0.078-0.014-0.119-0.021l-0.814,0.021l0.012-0.162
								c-13.221-2.249-16.496,2.649-16.496,2.649c-1.709-6.687,0.313-8.241,0.313-8.241c-5.287,0.312-9.797,4.82-9.797,4.82
								c0.621-5.131,2.488-10.729,2.488-10.729C41.169,48.029,37.126,48.338,37.126,48.338z"/>
						</g>
					</g>
				</g>
			</g>
		</g>
		<g>
			<g>
				<g>
					<g>
						<g>
							<g>
								<path class="st39" d="M91.317,108.167c0,5.483-4.049,9.93-9.041,9.93h-24.67c-4.992,0-9.041-4.446-9.041-9.93
									c0,0,2.07-21.511,3.768-26.892c1.693-5.375,4.047-9.928,9.041-9.928h3.053h5.324h6.264h3.25
									c4.992,0,7.721,3.309,9.039,9.928C89.622,87.897,91.317,108.167,91.317,108.167z"/>
							</g>
						</g>
					</g>
				</g>
			</g>
			<g>
				<g>
					<g>
						<g>
							<g>
								<g>
									<path class="st15" d="M81.778,108.172l1.33,9.925c4.992,0,9.041-4.446,9.041-9.93L81.778,108.172z"/>
								</g>
							</g>
						</g>
					</g>
				</g>
				<g>
					<g>
						<g>
							<g>
								<g>
									<path class="st68" d="M80.097,71.348h-3.25l4.941,36.821l10.361-0.002c0,0-1.695-20.271-3.014-26.892
										C87.817,74.657,85.089,71.348,80.097,71.348z"/>
								</g>
							</g>
						</g>
					</g>
				</g>
			</g>
			<g>
				<g>
					<g>
						<g>
							<g>
								<g>
									<path class="st15" d="M58.884,108.172l-1.328,9.925c-4.994,0-9.041-4.446-9.041-9.93L58.884,108.172z"/>
								</g>
							</g>
						</g>
					</g>
				</g>
				<g>
					<g>
						<g>
							<g>
								<g>
									<path class="st68" d="M60.567,71.348h3.25l-4.943,36.821l-10.359-0.002c0,0,1.695-20.271,3.014-26.892
										C52.847,74.657,55.575,71.348,60.567,71.348z"/>
								</g>
							</g>
						</g>
					</g>
				</g>
			</g>
			<g>
				<g>
					<g>
						<g>
							<g>
								<g>
									<path class="st15" d="M87.938,50.729c0,10.066-8.156,18.222-18.219,18.222c-10.064,0-18.219-8.155-18.219-18.222
										c0-10.061,8.154-18.218,18.219-18.218C79.782,32.511,87.938,40.668,87.938,50.729z"/>
								</g>
							</g>
						</g>
					</g>
				</g>
				<g>
					<g>
						<g>
							<g>
								<g>
									<g>
										<ellipse class="st75" cx="64.259" cy="49.313" rx="2.496" ry="2.636"/>
									</g>
								</g>
							</g>
						</g>
					</g>
					<g>
						<g>
							<g>
								<g>
									<g>
										<ellipse class="st75" cx="75.075" cy="49.313" rx="2.496" ry="2.636"/>
									</g>
								</g>
							</g>
						</g>
					</g>
					<g>
						<g>
							<g>
								<g>
									<g>
										<ellipse class="st63" cx="75.855" cy="48.313" rx="0.997" ry="1.055"/>
									</g>
								</g>
							</g>
						</g>
					</g>
					<g>
						<g>
							<g>
								<g>
									<g>
										<ellipse class="st63" cx="65.011" cy="48.313" rx="0.998" ry="1.055"/>
									</g>
								</g>
							</g>
						</g>
					</g>
				</g>
			</g>
			<g>
				<g>
					<g>
						<g>
							<g>
								<g>
									<polygon class="st103" points="70.751,118.131 69.751,118.131 69.751,75.898 67.333,71.348 73.169,71.348 70.751,75.866 
																			"/>
								</g>
							</g>
						</g>
					</g>
				</g>
			</g>
		</g>
		<g>
			<g>
				<g>
					<g>
						<g>
							<g>
								<path class="st2" d="M69.948,55.838c6.053,0,9.838,4.535,9.453,5.327c-0.186,0.381-0.607-0.417-2.26-0.238
									c-1.781,0.193-4.25,1.349-7.066,1.349c-2.914,0-5.525-1.121-7.398-1.313c-1.619-0.165-2.049,0.635-2.264,0.202
									C59.954,60.232,63.897,55.838,69.948,55.838z"/>
							</g>
						</g>
					</g>
				</g>
			</g>
			<g>
				<g>
					<g>
						<g>
							<g>
								<path class="st2" d="M77.981,60.151c-0.502,0-0.941,0.138-1.199,0.346c-0.084-0.008-0.17-0.014-0.26-0.014
									c-0.482,0-0.908,0.129-1.168,0.325c-0.262-0.147-0.631-0.241-1.041-0.241c-0.566,0-1.053,0.178-1.287,0.435
									c-0.25-0.113-0.568-0.185-0.922-0.185c-0.504,0-0.945,0.141-1.203,0.352c-0.25-0.113-0.568-0.185-0.922-0.185
									c-0.352,0-0.67,0.071-0.92,0.184c-0.258-0.211-0.699-0.351-1.203-0.351c-0.354,0-0.672,0.071-0.922,0.185
									c-0.234-0.257-0.721-0.435-1.287-0.435c-0.367,0-0.697,0.076-0.951,0.197c-0.254-0.218-0.701-0.364-1.217-0.364
									c-0.266,0-0.512,0.042-0.725,0.109c-0.254-0.118-0.58-0.192-0.941-0.192c-0.793,0-1.438,0.346-1.438,0.771
									s0.645,0.771,1.438,0.771c0.268,0,0.514-0.041,0.727-0.109c0.252,0.118,0.578,0.192,0.939,0.192
									c0.367,0,0.697-0.076,0.951-0.197c0.254,0.218,0.703,0.364,1.217,0.364c0.352,0,0.672-0.071,0.922-0.185
									c0.234,0.257,0.719,0.435,1.287,0.435c0.352,0,0.67-0.07,0.92-0.184c0.258,0.211,0.699,0.351,1.203,0.351
									c0.506,0,0.947-0.141,1.203-0.352c0.25,0.113,0.57,0.185,0.922,0.185c0.568,0,1.055-0.178,1.287-0.435
									c0.25,0.113,0.57,0.185,0.922,0.185c0.484,0,0.908-0.129,1.17-0.325c0.262,0.147,0.629,0.241,1.039,0.241
									c0.502,0,0.941-0.138,1.199-0.346c0.084,0.008,0.17,0.014,0.26,0.014c0.793,0,1.438-0.346,1.438-0.771
									S78.774,60.151,77.981,60.151z"/>
							</g>
						</g>
					</g>
				</g>
			</g>
		</g>
	</g>
	<g>
		<g>
			<g>
				<g>
					<g>
						<ellipse class="st15" cx="70.063" cy="55.87" rx="4.182" ry="2.803"/>
					</g>
				</g>
			</g>
		</g>
	</g>
	<g>
		<g>
			<g>
				<g>
					<g>
						<path class="st80" d="M67.505,77.67c-6.947,0-5.869-6.322-5.869-6.322h8.115L67.505,77.67z"/>
					</g>
				</g>
			</g>
		</g>
	</g>
	<g>
		<g>
			<g>
				<g>
					<g>
						<path class="st80" d="M73.097,77.67c6.947,0,5.871-6.322,5.871-6.322h-8.186L73.097,77.67z"/>
					</g>
				</g>
			</g>
		</g>
	</g>
	<g>
		<g>
			<g>
				<g>
					<g>
						<g>
							<path class="st2" d="M79.634,44.202c-0.086,0.52-0.578,0.87-1.098,0.784l-4.635-0.771c-0.52-0.087-0.871-0.577-0.785-1.098
								l0,0c0.088-0.52,0.578-0.871,1.098-0.784l4.635,0.771C79.368,43.19,79.72,43.682,79.634,44.202L79.634,44.202z"/>
						</g>
					</g>
				</g>
			</g>
		</g>
		<g>
			<g>
				<g>
					<g>
						<g>
							<path class="st2" d="M78.757,44.533c-0.152-0.025-0.291-0.006-0.381,0.045c-0.023-0.007-0.051-0.014-0.078-0.018
								c-0.146-0.024-0.281-0.006-0.369,0.039c-0.072-0.058-0.18-0.104-0.303-0.125c-0.174-0.028-0.33,0.001-0.412,0.067
								c-0.07-0.047-0.164-0.085-0.27-0.103c-0.154-0.025-0.295-0.005-0.383,0.046c-0.07-0.047-0.164-0.085-0.271-0.103
								c-0.105-0.018-0.205-0.013-0.287,0.009c-0.066-0.076-0.193-0.141-0.346-0.166c-0.107-0.018-0.207-0.013-0.289,0.01
								c-0.057-0.09-0.195-0.168-0.367-0.197c-0.111-0.019-0.217-0.011-0.299,0.012c-0.066-0.078-0.193-0.145-0.35-0.171
								c-0.082-0.014-0.158-0.013-0.225-0.004c-0.072-0.048-0.166-0.087-0.275-0.105c-0.24-0.04-0.453,0.032-0.475,0.162
								c-0.021,0.129,0.156,0.266,0.396,0.306c0.08,0.014,0.158,0.014,0.225,0.004c0.07,0.048,0.166,0.087,0.275,0.105
								c0.111,0.018,0.215,0.011,0.299-0.013c0.064,0.079,0.193,0.146,0.35,0.172c0.105,0.018,0.207,0.013,0.289-0.01
								c0.057,0.09,0.195,0.168,0.367,0.196c0.107,0.018,0.205,0.013,0.289-0.01c0.066,0.078,0.193,0.142,0.346,0.167
								s0.293,0.005,0.383-0.045c0.068,0.047,0.162,0.084,0.27,0.102c0.172,0.029,0.328-0.001,0.412-0.066
								c0.068,0.048,0.162,0.084,0.27,0.103c0.146,0.024,0.281,0.007,0.369-0.04c0.072,0.059,0.18,0.105,0.305,0.125
								c0.15,0.026,0.291,0.006,0.379-0.043c0.025,0.006,0.051,0.013,0.078,0.017c0.24,0.04,0.453-0.032,0.475-0.161
								C79.175,44.709,78.997,44.573,78.757,44.533z"/>
						</g>
					</g>
				</g>
			</g>
		</g>
	</g>
	<g>
		<g>
			<g>
				<g>
					<g>
						<g>
							<path class="st2" d="M66.542,43.071c0.094,0.52-0.25,1.015-0.77,1.109l-4.623,0.836c-0.518,0.094-1.014-0.25-1.107-0.769l0,0
								c-0.094-0.518,0.25-1.015,0.77-1.108l4.623-0.836C65.952,42.209,66.448,42.553,66.542,43.071L66.542,43.071z"/>
						</g>
					</g>
				</g>
			</g>
		</g>
		<g>
			<g>
				<g>
					<g>
						<g>
							<path class="st2" d="M65.827,43.679c-0.15,0.027-0.275,0.093-0.342,0.17c-0.025,0.002-0.053,0.006-0.08,0.011
								c-0.145,0.026-0.268,0.089-0.334,0.162c-0.088-0.031-0.205-0.039-0.328-0.017c-0.172,0.031-0.309,0.111-0.365,0.202
								c-0.082-0.021-0.184-0.024-0.287-0.006c-0.154,0.028-0.279,0.095-0.346,0.172c-0.082-0.021-0.182-0.024-0.289-0.005
								c-0.105,0.02-0.199,0.058-0.268,0.105c-0.09-0.05-0.23-0.066-0.383-0.04c-0.105,0.02-0.199,0.059-0.268,0.106
								c-0.086-0.064-0.242-0.093-0.412-0.062c-0.111,0.02-0.207,0.062-0.277,0.111c-0.09-0.051-0.232-0.071-0.387-0.043
								c-0.082,0.015-0.152,0.04-0.215,0.072c-0.082-0.021-0.186-0.026-0.293-0.007c-0.24,0.043-0.416,0.183-0.393,0.313
								c0.023,0.128,0.236,0.198,0.477,0.154c0.08-0.015,0.152-0.04,0.213-0.072c0.082,0.021,0.186,0.026,0.295,0.007
								c0.109-0.021,0.205-0.062,0.275-0.112c0.09,0.052,0.232,0.072,0.389,0.043c0.105-0.019,0.199-0.058,0.268-0.105
								c0.084,0.065,0.242,0.092,0.412,0.062c0.107-0.02,0.199-0.059,0.27-0.106c0.088,0.05,0.23,0.067,0.381,0.04
								c0.154-0.027,0.279-0.095,0.344-0.172c0.084,0.021,0.184,0.024,0.289,0.006c0.172-0.031,0.311-0.111,0.367-0.202
								c0.08,0.021,0.182,0.024,0.287,0.006c0.146-0.026,0.268-0.09,0.336-0.162c0.088,0.03,0.203,0.038,0.326,0.016
								c0.152-0.027,0.277-0.093,0.344-0.17c0.025-0.002,0.053-0.006,0.08-0.011c0.24-0.043,0.414-0.183,0.391-0.311
								C66.282,43.705,66.067,43.635,65.827,43.679z"/>
						</g>
					</g>
				</g>
			</g>
		</g>
	</g>
</g>
</svg>
