<?xml version="1.0" encoding="utf-8"?>
<!-- Generator: Adobe Illustrator 16.0.0, SVG Export Plug-In . SVG Version: 6.00 Build 0)  -->
<!DOCTYPE svg PUBLIC "-//W3C//DTD SVG 1.1//EN" "http://www.w3.org/Graphics/SVG/1.1/DTD/svg11.dtd">
<svg version="1.1" id="Layer_1" xmlns="http://www.w3.org/2000/svg" xmlns:xlink="http://www.w3.org/1999/xlink" x="0px" y="0px"
	 width="136.833px" height="136.834px" viewBox="0 0 136.833 136.834" style="enable-background:new 0 0 136.833 136.834;"
	 xml:space="preserve">
<style type="text/css">
<![CDATA[
	.st0{fill:#4699A1;}
	.st1{fill:#473C30;}
	.st2{fill:#AAAAAA;}
	.st3{fill-rule:evenodd;clip-rule:evenodd;fill:#D7AF8F;}
	.st4{fill:#49596B;}
	.st5{fill:#7D3719;}
	.st6{fill:#49A0AE;}
	.st7{fill:#AFAFA3;}
	.st8{fill:#E3AA24;}
	.st9{fill:#4ABC96;}
	.st10{fill:#181E1D;}
	.st11{fill:#E6BE20;}
	.st12{fill:#E79E2D;}
	.st13{fill:#E7E7D6;}
	.st14{fill:#E84849;}
	.st15{fill:#E9C29C;}
	.st16{fill:#E9E9EA;}
	.st17{fill:#807F7F;}
	.st18{fill:#809598;}
	.st19{fill:#81725B;}
	.st20{fill:#B1D4D7;}
	.st21{fill:#83CECA;}
	.st22{fill:#B58755;}
	.st23{fill:#B6B6B7;}
	.st24{fill:#1D8D45;}
	.st25{fill:#1D9E49;}
	.st26{fill:#ECE1D0;}
	.st27{fill:#ECEDEA;}
	.st28{fill:#B9B9BA;}
	.st29{fill:#EDC92C;}
	.st30{fill:#1FA85B;}
	.st31{fill:#526B70;}
	.st32{fill:#575757;}
	.st33{fill:#BB5538;}
	.st34{fill:#8C402B;}
	.st35{fill:#8C5228;}
	.st36{fill:#BC992F;}
	.st37{fill:#8D8D8D;}
	.st38{fill-rule:evenodd;clip-rule:evenodd;fill:#E8C790;}
	.st39{fill:#8E6E52;}
	.st40{fill:#202121;}
	.st41{fill:#202B2D;}
	.st42{fill-rule:evenodd;clip-rule:evenodd;fill:#E9C29C;}
	.st43{fill:#BF8A67;}
	.st44{fill:#21AC4B;}
	.st45{fill:#BFBEBE;}
	.st46{fill:#BFC1A9;}
	.st47{fill:#242D2B;}
	.st48{fill:#F37C2A;}
	.st49{fill:#27636D;}
	.st50{fill:#5B4F3F;}
	.st51{fill:#28333B;}
	.st52{fill:#F6DA66;}
	.st53{fill-rule:evenodd;clip-rule:evenodd;fill:#ECE1D0;}
	.st54{fill:#5E5F5E;}
	.st55{fill:url(#SVGID_1_);}
	.st56{fill:#C48F2C;}
	.st57{fill:#2A3633;}
	.st58{fill:#2A646E;}
	.st59{fill:#C5C3AE;}
	.st60{fill:#2B2B2A;}
	.st61{fill:#606060;}
	.st62{fill-rule:evenodd;clip-rule:evenodd;fill:#BEBEBE;}
	.st63{fill:#FFFFFF;}
	.st64{fill-rule:evenodd;clip-rule:evenodd;fill:#F2E8D3;}
	.st65{fill:#65A844;}
	.st66{fill-rule:evenodd;clip-rule:evenodd;fill:#F5DFB5;}
	.st67{fill:#CBCBC5;}
	.st68{fill:#9E7C5A;}
	.st69{fill:#9E9F9F;}
	.st70{fill:#CDCCCB;}
	.st71{fill:#CDCDCE;}
	.st72{fill:#9F77AA;}
	.st73{fill:#327477;}
	.st74{fill:#333738;}
	.st75{fill:#343433;}
	.st76{fill:#344E5D;}
	.st77{fill:#357180;}
	.st78{fill:#36454F;}
	.st79{fill:#383939;}
	.st80{fill:#6C533E;}
	.st81{fill:#6CC077;}
	.st82{fill:#6D5D49;}
	.st83{fill:#6EC2CB;}
	.st84{fill:#6F8284;}
	.st85{fill:#028CA3;}
	.st86{fill:#D1962A;}
	.st87{fill:#D1AFD2;}
	.st88{fill:#036A7B;}
	.st89{fill:#039A88;}
	.st90{fill:#D3E8E9;}
	.st91{fill:#D5CEA9;}
	.st92{fill:#3B7F89;}
	.st93{fill:#D62127;}
	.st94{fill:#3C4D5B;}
	.st95{fill:#D7AE29;}
	.st96{fill:#D7B129;}
	.st97{fill:#D7D7BF;}
	.st98{fill:#D7D7D7;}
	.st99{fill:#D7DABA;}
	.st100{fill:#70BFC8;}
	.st101{fill:#A2D4DE;}
	.st102{fill:#A480B1;}
	.st103{fill:#A48A75;}
	.st104{fill:#786451;}
	.st105{fill:#DBF0F5;}
	.st106{fill:#797979;}
	.st107{fill:#DCDCC6;}
	.st108{fill:#DCDCD2;}
	.st109{fill:#DCDDD8;}
	.st110{fill:#DDDDDC;}
	.st111{fill:#DFBA24;}
	.st112{fill:#DFDFDF;}
	.st113{fill:#435364;}
	.st114{fill:#43B665;}
]]>
</style>
<g>
	<circle class="st9" cx="68.417" cy="68.417" r="63.333"/>
	<g>
		<g>
			<path class="st47" d="M39.041,61.975l-3.986,14.884c0,0,6.797,16.645,33.169,16.644c26.369,0,33.334-16.643,33.334-16.643
				l-3.986-14.885H39.041z"/>
		</g>
		<g>
			<path class="st57" d="M39.041,61.975l-3.986,14.884c0,0,6.797,16.645,33.169,16.644l-0.2-31.527H39.041z"/>
		</g>
		<g>
			<path class="st10" d="M39.041,61.975l-1.233,4.301l26.983,7.88c2.066,0.63,5.413,0.63,7.478,0l26.536-7.741l-1.233-4.439H39.041z
				"/>
		</g>
		<path class="st57" d="M72.269,72.615c-2.065,0.63-5.412,0.63-7.478,0L19.096,58.632c-2.065-0.633-2.065-1.655,0-2.287
			l45.694-13.982c2.064-0.633,5.413-0.633,7.476,0l45.695,13.982c2.065,0.632,2.065,1.654,0,2.288L72.269,72.615z"/>
		<path class="st36" d="M94.383,65.814c-0.342,0-0.62,0.279-0.62,0.62V91.55c0,0.341,0.277,0.619,0.62,0.619s0.62-0.278,0.62-0.619
			V66.434C95.003,66.093,94.726,65.814,94.383,65.814z"/>
		<path class="st36" d="M94.549,65.834l-25.93-8.095c-0.326-0.103-0.674,0.08-0.777,0.406c-0.103,0.327,0.08,0.675,0.406,0.777
			l25.929,8.092c0.327,0.104,0.674-0.078,0.777-0.403C95.057,66.284,94.875,65.935,94.549,65.834z"/>
		<g>
			<path class="st36" d="M96.066,79.692c0,1.078-0.773,1.954-1.727,1.954s-1.727-0.876-1.727-1.954c0-1.082,0.773-1.956,1.727-1.956
				S96.066,78.61,96.066,79.692z"/>
			<path class="st36" d="M93.776,81.298c0,0-1.709,1.971-1.709,3.166c0,0.496-0.018,3.269-0.031,5.289
				c-0.008,1.222-0.917,2.168-0.917,2.168c0,0.688,6.438,0.688,6.438,0c0,0-0.909-0.919-0.918-2.112
				c-0.015-1.972-0.036-4.693-0.036-5.255c0-1.285-1.703-3.257-1.703-3.257L93.776,81.298z"/>
		</g>
		<ellipse class="st60" cx="68.647" cy="58.465" rx="3.241" ry="2.005"/>
	</g>
</g>
</svg>
