<?xml version="1.0" encoding="utf-8"?>
<!-- Generator: Adobe Illustrator 16.0.0, SVG Export Plug-In . SVG Version: 6.00 Build 0)  -->
<!DOCTYPE svg PUBLIC "-//W3C//DTD SVG 1.1//EN" "http://www.w3.org/Graphics/SVG/1.1/DTD/svg11.dtd">
<svg version="1.1" id="Layer_1" xmlns="http://www.w3.org/2000/svg" xmlns:xlink="http://www.w3.org/1999/xlink" x="0px" y="0px"
	 width="136.833px" height="136.833px" viewBox="0 0 136.833 136.833" style="enable-background:new 0 0 136.833 136.833;"
	 xml:space="preserve">
<style type="text/css">
<![CDATA[
	.st0{fill:#4699A1;}
	.st1{fill:#473C30;}
	.st2{fill:#AAAAAA;}
	.st3{fill-rule:evenodd;clip-rule:evenodd;fill:#D7AF8F;}
	.st4{fill:#49596B;}
	.st5{fill:#7D3719;}
	.st6{fill:#49A0AE;}
	.st7{fill:#AFAFA3;}
	.st8{fill:#E3AA24;}
	.st9{fill:#4ABC96;}
	.st10{fill:#181E1D;}
	.st11{fill:#E6BE20;}
	.st12{fill:#E79E2D;}
	.st13{fill:#E7E7D6;}
	.st14{fill:#E84849;}
	.st15{fill:#E9C29C;}
	.st16{fill:#E9E9EA;}
	.st17{fill:#807F7F;}
	.st18{fill:#809598;}
	.st19{fill:#81725B;}
	.st20{fill:#B1D4D7;}
	.st21{fill:#83CECA;}
	.st22{fill:#B58755;}
	.st23{fill:#B6B6B7;}
	.st24{fill:#1D8D45;}
	.st25{fill:#1D9E49;}
	.st26{fill:#ECE1D0;}
	.st27{fill:#ECEDEA;}
	.st28{fill:#B9B9BA;}
	.st29{fill:#EDC92C;}
	.st30{fill:#1FA85B;}
	.st31{fill:#526B70;}
	.st32{fill:#575757;}
	.st33{fill:#BB5538;}
	.st34{fill:#8C402B;}
	.st35{fill:#8C5228;}
	.st36{fill:#BC992F;}
	.st37{fill:#8D8D8D;}
	.st38{fill-rule:evenodd;clip-rule:evenodd;fill:#E8C790;}
	.st39{fill:#8E6E52;}
	.st40{fill:#202121;}
	.st41{fill:#202B2D;}
	.st42{fill-rule:evenodd;clip-rule:evenodd;fill:#E9C29C;}
	.st43{fill:#BF8A67;}
	.st44{fill:#21AC4B;}
	.st45{fill:#BFBEBE;}
	.st46{fill:#BFC1A9;}
	.st47{fill:#242D2B;}
	.st48{fill:#F37C2A;}
	.st49{fill:#27636D;}
	.st50{fill:#5B4F3F;}
	.st51{fill:#28333B;}
	.st52{fill:#F6DA66;}
	.st53{fill-rule:evenodd;clip-rule:evenodd;fill:#ECE1D0;}
	.st54{fill:#5E5F5E;}
	.st55{fill:url(#SVGID_1_);}
	.st56{fill:#C48F2C;}
	.st57{fill:#2A3633;}
	.st58{fill:#2A646E;}
	.st59{fill:#C5C3AE;}
	.st60{fill:#2B2B2A;}
	.st61{fill:#606060;}
	.st62{fill-rule:evenodd;clip-rule:evenodd;fill:#BEBEBE;}
	.st63{fill:#FFFFFF;}
	.st64{fill-rule:evenodd;clip-rule:evenodd;fill:#F2E8D3;}
	.st65{fill:#65A844;}
	.st66{fill-rule:evenodd;clip-rule:evenodd;fill:#F5DFB5;}
	.st67{fill:#CBCBC5;}
	.st68{fill:#9E7C5A;}
	.st69{fill:#9E9F9F;}
	.st70{fill:#CDCCCB;}
	.st71{fill:#CDCDCE;}
	.st72{fill:#9F77AA;}
	.st73{fill:#327477;}
	.st74{fill:#333738;}
	.st75{fill:#343433;}
	.st76{fill:#344E5D;}
	.st77{fill:#357180;}
	.st78{fill:#36454F;}
	.st79{fill:#383939;}
	.st80{fill:#6C533E;}
	.st81{fill:#6CC077;}
	.st82{fill:#6D5D49;}
	.st83{fill:#6EC2CB;}
	.st84{fill:#6F8284;}
	.st85{fill:#028CA3;}
	.st86{fill:#D1962A;}
	.st87{fill:#D1AFD2;}
	.st88{fill:#036A7B;}
	.st89{fill:#039A88;}
	.st90{fill:#D3E8E9;}
	.st91{fill:#D5CEA9;}
	.st92{fill:#3B7F89;}
	.st93{fill:#D62127;}
	.st94{fill:#3C4D5B;}
	.st95{fill:#D7AE29;}
	.st96{fill:#D7B129;}
	.st97{fill:#D7D7BF;}
	.st98{fill:#D7D7D7;}
	.st99{fill:#D7DABA;}
	.st100{fill:#70BFC8;}
	.st101{fill:#A2D4DE;}
	.st102{fill:#A480B1;}
	.st103{fill:#A48A75;}
	.st104{fill:#786451;}
	.st105{fill:#DBF0F5;}
	.st106{fill:#797979;}
	.st107{fill:#DCDCC6;}
	.st108{fill:#DCDCD2;}
	.st109{fill:#DCDDD8;}
	.st110{fill:#DDDDDC;}
	.st111{fill:#DFBA24;}
	.st112{fill:#DFDFDF;}
	.st113{fill:#435364;}
	.st114{fill:#43B665;}
]]>
</style>
<g>
	<g>
		<g>
			<g>
				<g>
					<g>
						<g>
							<g>
								<circle class="st6" cx="68.417" cy="68.417" r="63.333"/>
							</g>
						</g>
					</g>
				</g>
			</g>
		</g>
	</g>
	<g>
		<g>
			<g>
				<g>
					<g>
						<g>
							<g>
								<g>
									<g>
										<path class="st3" d="M98.38,71.09c-2.269,6.866-11.613,13.007-20.076,8.329c-0.137,2.604-0.126,5.076,0.641,7.048
											c0.446,1.146,1.431,1.732,1.282,2.776c-3.787-0.999-2.204-6.103-2.776-10.038c-0.389-2.673-3.683-3.989-2.99-7.048
											c-1.947,0.26-3.802,0.612-5.767,0.854c0.204,2.769,3.184,3.809,4.271,6.193c1.043,2.288,1.347,4.686,2.563,6.834
											c1.169,2.069,2.817,3.163,3.844,5.34c-4.967-1.809-5.303-7.601-7.475-11.96c-1.221-2.45-4.014-3.42-4.271-6.193
											c-4.017,0.029-6.406-1.567-7.048-4.912c-1.626-1.222-3.998-1.698-3.631-4.912c-1.793-0.636-2.823-0.594-4.058,0.427
											c-4.266-0.604-8.547,0.65-10.892-2.136c-0.331-0.393-0.331-1.115-0.641-1.709c-0.987-1.886-2.69-3.853-2.99-5.767
											c-0.457-2.912,0.455-6.018,1.921-8.542c-0.18-2.602,1.098-3.744,2.35-4.913c1.125-3.646,3.189-6.351,5.98-8.329
											c0.668,0.044,1.568-0.145,1.922,0.213c1.746-1.813,3.433-3.686,7.048-3.63c2.781-2.628,7.006-2.353,10.892-2.35
											c1.046,0.001,1.971-0.482,2.99-0.428c0.549,0.03,1.137,0.594,1.708,0.641c0.874,0.074,1.903-0.683,2.777-0.641
											c0.499,0.024,1.519,0.506,2.136,0.641c1.034,0.227,1.876,0.233,2.563,0.428c0.634,0.179,1.083,0.853,1.709,1.067
											c0.261,0.091,0.857-0.253,1.068-0.213c1.968,0.367,4.2,2.14,5.553,3.203c0.589-0.254,0.75-0.605,1.495-0.214
											c2.839,1.014,4.644,3.656,6.834,5.767c2.844,2.742,6.208,6.437,5.98,11.961c2.049,1.045,2.801,5.962,1.495,8.329
											c0.915,6.42-1.484,11.313-4.913,14.096C99.182,71.427,98.882,71.158,98.38,71.09z M70.188,27.307
											c0.584,0.183,3.069,3.289,0.641,4.058c-0.422-0.484,0.227-1.193,0-2.136c-2.491-3.064-8.872-1.668-11.96,0
											c-0.059,0.375,0.601,1.065,0,1.282c-2.188-1.478-5.719,0.615-7.262,2.349c-0.619,0.746,0.119,1.532-0.854,1.923
											c-0.756-0.17-0.252-1.598-1.281-1.495c-3.143,1.484-4.651,4.604-5.98,7.902c0.713-0.215,0.7,0.296,0.641,0.854
											c-2.619-0.391-3.163,2.362-2.563,4.485c-3.235,1.84-2.76,10.244,0.427,12.388c0.478-1.031,2.163-2.846,3.417-1.709
											c-1.443,0.692-3.091,1.181-2.99,3.418c2.225,2.452,9.36,3.004,11.96,1.067c0.866,0.131,1.257,0.736,2.35,0.641
											c0.392-0.248,0.148-1.134,1.067-0.854c-0.152,3.356,1.016,5.392,3.631,5.979c0.319,6.17,8.306,4.925,13.241,3.845
											c-0.338-1.312,1.351-0.992,1.709-2.136c-0.345-1.222-1.772-1.359-1.922-2.776c1.46,0.462,2.499,1.346,2.563,3.204
											c-0.095,0.76-0.865,0.843-1.282,1.281c4.079-0.348,9.72-2.821,8.543-7.688c-0.314-1.299-1.558-1.378-2.136-2.776
											c4.57,0.705,3.149,8.267-0.213,9.184c3.442-0.188,5.41-1.852,7.261-3.632c0.015-0.731-0.29-1.366,0-2.135
											c0.361-0.952,1.399-0.698,2.136-1.495c0.294-0.317,0.313-1.246,0.641-1.708c0.93-1.307,2.169-2.079,2.99-1.923
											c-0.968,1.596-2.931,2.195-3.204,4.485C87.827,64,90.732,66.9,92.614,67.672c2.536,1.042,5.625,1.968,7.261,2.563
											c0.264-0.449,0.591-0.833,0.854-1.282c-0.571-0.282-1.25-0.457-1.068-1.495c1.046-0.19,1.003,0.706,2.136,0.428
											c0.775-1.006,1.214-2.345,1.708-3.631c0.126-0.838-1.172-0.251-0.854-1.281c1.495-0.042,1.338-2.896,1.281-5.125
											c-0.65-0.024-1.457,0.886-1.708,0c0.051-1.018,1.39-0.747,1.922-1.282c0.382-2.292,0.467-5.978-1.495-6.62
											c-0.264,0.519-0.181,1.386-0.854,1.494c-1.395-1.325,1.107-2.063,0.641-3.845c-0.01-0.702-0.913-0.51-0.854-1.281
											c0.406-2.982-1.829-5.137-3.204-7.048c-3.694-0.833-3.088,3.729-5.126,3.844c1.01-1.837,1.184-4.511,4.058-4.484
											c0.112-1.109-0.919-1.075-1.495-1.495c-1.725-1.977-3.159-4.244-5.98-5.125c0.155,0.779,1.616,2.661,0.214,2.99
											c-0.852-3.35-3.769-4.634-6.834-5.768c0.167,1.036,1.178,3.941-0.213,4.485c-0.664-0.998-0.103-3.131-0.854-4.485
											c-1.061-0.812-2.97-1.503-4.271-0.854c-0.246-0.536-0.894-0.672-1.281-1.067C73.688,27.997,72.522,27.4,70.188,27.307z
											 M89.624,66.605c-1.906,1.679-4.179,3.577-6.834,3.844c-0.549,0.056-1.124-0.477-1.709-0.427
											c-1.826,0.155-3.593,2.438-5.98,1.709c0.674,5.892,4.868,9.026,11.106,8.329c5.583-0.625,9.44-5.245,11.106-9.397
											C95.121,68.939,91.506,68.638,89.624,66.605z"/>
									</g>
								</g>
							</g>
						</g>
					</g>
					<g>
						<g>
							<g>
								<g>
									<g>
										<path class="st42" d="M76.596,27.307c0.387,0.396,1.035,0.531,1.281,1.067c1.302-0.648,3.211,0.043,4.271,0.854
											c0.752,1.354,0.191,3.487,0.854,4.485c1.392-0.544,0.381-3.449,0.213-4.485c3.066,1.134,5.983,2.418,6.834,5.768
											c1.402-0.329-0.059-2.211-0.214-2.99c2.822,0.881,4.255,3.148,5.98,5.125c0.576,0.42,1.607,0.386,1.495,1.495
											c-2.875-0.026-3.048,2.647-4.058,4.484c2.038-0.115,1.432-4.677,5.126-3.844c1.375,1.911,3.61,4.065,3.204,7.048
											c-0.059,0.771,0.845,0.579,0.854,1.281c0.466,1.781-2.036,2.52-0.641,3.845c0.674-0.108,0.591-0.976,0.854-1.494
											c1.962,0.643,1.877,4.328,1.495,6.62c-0.532,0.535-1.872,0.265-1.922,1.282c0.251,0.886,1.059-0.024,1.708,0
											c0.057,2.229,0.214,5.083-1.281,5.125c-0.318,1.03,0.98,0.443,0.854,1.281c-0.494,1.286-0.934,2.625-1.708,3.631
											c-1.132,0.278-1.09-0.618-2.136-0.428c-0.183,1.038,0.497,1.213,1.068,1.495c-0.263,0.449-0.591,0.833-0.854,1.282
											c-1.637-0.596-4.726-1.521-7.261-2.563C90.732,66.9,87.827,64,91.76,63.188c0.273-2.29,2.236-2.89,3.204-4.485
											c-0.821-0.156-2.061,0.616-2.99,1.923c-0.329,0.462-0.347,1.391-0.641,1.708c-0.737,0.797-1.775,0.543-2.136,1.495
											c-0.29,0.769,0.015,1.403,0,2.135c-1.851,1.78-3.819,3.443-7.261,3.632c3.362-0.917,4.783-8.479,0.213-9.184
											c0.578,1.398,1.822,1.478,2.136,2.776c1.176,4.867-4.465,7.341-8.543,7.688c0.417-0.438,1.187-0.521,1.282-1.281
											c-0.064-1.858-1.103-2.742-2.563-3.204c0.15,1.417,1.578,1.555,1.922,2.776c-0.358,1.144-2.047,0.824-1.709,2.136
											c-4.936,1.08-12.922,2.325-13.241-3.845c-2.616-0.588-3.783-2.623-3.631-5.979c-0.919-0.279-0.675,0.606-1.067,0.854
											c-1.093,0.096-1.483-0.51-2.35-0.641c-2.601,1.937-9.736,1.385-11.96-1.067c-0.101-2.237,1.547-2.726,2.99-3.418
											c-1.254-1.137-2.939,0.678-3.417,1.709c-3.187-2.144-3.662-10.548-0.427-12.388c-0.6-2.123-0.056-4.876,2.563-4.485
											c0.06-0.558,0.072-1.068-0.641-0.854c1.329-3.299,2.837-6.418,5.98-7.902c1.029-0.103,0.525,1.325,1.281,1.495
											c0.974-0.391,0.235-1.177,0.854-1.923c1.542-1.733,5.073-3.826,7.262-2.349c0.601-0.217-0.059-0.907,0-1.282
											c3.088-1.668,9.469-3.064,11.96,0c0.227,0.942-0.422,1.651,0,2.136c2.429-0.769-0.056-3.875-0.641-4.058
											C72.522,27.4,73.688,27.997,76.596,27.307z M73.605,36.064c-4.605,0.117-8.099,8.463-1.495,8.97
											c0.278,1.53,1.712,2.946,3.203,2.563c-0.934-1.06-2.448-1.538-2.776-3.203c-6.251-0.406-2.655-7.708,1.709-7.688
											c-0.289-4.561,2.802-5.742,5.339-7.476c-0.305-0.051-0.36-0.352-0.641-0.427C76.422,30.48,73.397,31.655,73.605,36.064z
											 M59.51,31.151c0.677,1.174,2.167,1.535,2.349,3.204c3.746-0.686,7.336,0.252,9.184,2.137
											c-0.272-2.777-5.271-3.384-8.757-2.99C61.894,32.29,60.79,30.775,59.51,31.151z M82.79,36.705
											c1.963-0.955,3.483,0.894,4.698,0.641C87.013,36.121,83.375,34.563,82.79,36.705z M46.909,38.2
											c0.706,0.44,1.479-0.568,2.777-0.214c1.222,0.699,1.744,2.101,2.135,3.631c3.623-0.42,5.293,1.114,5.767,3.845
											c0.98-0.083,1.375-0.485,2.135-0.428c2.607,0.2,3.313,3.692,4.699,4.485c-0.313-2.487-2.581-5.933-6.408-4.913
											c0.086-1.438-0.9-1.806-1.281-2.776c1.197-1.373,4.404,0.083,5.339-0.64c-1.539-1.406-4.724-0.801-6.194,0.213
											c-0.873-0.551-2.122-0.726-3.631-0.641C52.363,38.074,48.689,35.748,46.909,38.2z M87.701,43.752
											c0.265,2.472-1.169,3.245-3.63,2.99c-0.227,2.179-2.668,3.744-4.913,2.563c-0.671,1.754-3.621,1.025-4.485,0
											c0.595,4.172-7.941,2.48-10.465,4.912c-1.983-2.075-6.594-1.521-7.262-4.912c-1.02-0.511-3.413-1.154-4.058,0.214
											c3.473-0.86,4.517,2.23,6.407,3.631c2.681-0.261,3.693,1.147,5.126,2.136c2.305-2.892,9.233-1.161,11.105-4.485
											c0.485,0.369,1.193,0.516,2.136,0.427c0.768-0.229,1.324-0.668,1.922-1.067c2.124,1.094,4.52-0.766,5.126-2.563
											c2.596,0.034,3.977-1.148,3.631-4.058c1.111-0.383,2.475-0.515,2.563-1.922c-2.394,2.103-6.385,1.131-7.262-1.709
											C83.078,42.276,85.595,43.351,87.701,43.752z M90.051,48.666c-1.779,3.346-4.754,5.497-8.756,6.62
											c1.649,1.196,3.04-0.618,4.912,0c0.726,0.841,0.494,2.639,1.068,3.631c2.128,0.171,5.88,1.112,5.766-1.067
											c-1.288,0.931-3.196,0.534-5.125,0.426c-0.578-0.631-0.358-2.062-0.641-2.989c-0.387-0.539-1.403-0.448-1.709-1.068
											c1.836-1.581,4.212-2.622,5.34-4.912c1.92-0.215,3.302-0.969,3.63-2.776c-0.045-0.239-0.237-0.333-0.427-0.428
											C93.474,47.674,92.305,48.711,90.051,48.666z M42.851,49.091c3.61-0.237,5.038,3.486,6.621,5.98
											c-1.089,0.335-2.295,0.552-2.563,1.708c0.999,0.361,1.772-1.167,3.204-1.067c1.905,1.085,4.262,1.718,5.126,3.845
											c0.73-0.776-0.742-2.017-0.427-2.35c1.748-0.146,2.669,1.553,3.844,1.281c-0.458-1.339-3.029-2.544-4.485-1.495
											c-1.147-1.132-2.111-0.728-3.204-1.495c-2.89-2.027-3.177-7.893-8.33-7.261C42.622,48.61,42.685,48.902,42.851,49.091z
											 M59.937,60.625c0.966,0.371,1.181-0.548,2.136-0.642c2.489-0.242,3.901,1.371,4.058,4.059
											c2.289-0.719,4.508,0.277,5.339,1.708c1.433-1.747,4.701-0.694,5.98-0.213c-0.499-1.9-4.262-1.802-5.767-0.855
											c-1.108-1.064-2.954-1.916-4.912-1.494C66.925,59.812,61.797,57.536,59.937,60.625z M98.38,61.265
											c0.716,0.708-0.018,2.866,0.854,3.417c0.585-0.667,0.138-1.538,0.427-2.135c1.039-0.336,2.399,0.719,2.349-0.428
											c-0.555-0.648-1.917-0.407-2.776-0.213c-0.119-1.377-0.797-2.193-2.135-2.35C96.962,60.691,98.221,60.429,98.38,61.265z
											 M73.605,69.595c-0.677-3.163-4.787-0.762-7.475-1.281c-2.032-0.395-1.817-1.832-3.631-2.563
											C62.66,70.513,70.603,67.661,73.605,69.595z"/>
									</g>
								</g>
							</g>
						</g>
					</g>
					<g>
						<g>
							<g>
								<g>
									<g>
										<g>
											<path class="st3" d="M78.945,28.802c0.28,0.075,0.336,0.376,0.641,0.427c-2.537,1.733-5.628,2.915-5.339,7.476
												c-4.364-0.02-7.96,7.282-1.709,7.688c0.328,1.665,1.842,2.144,2.776,3.203c-1.491,0.384-2.925-1.032-3.203-2.563
												c-6.604-0.507-3.111-8.853,1.495-8.97C73.397,31.655,76.422,30.48,78.945,28.802z"/>
										</g>
									</g>
								</g>
							</g>
						</g>
						<g>
							<g>
								<g>
									<g>
										<g>
											<path class="st3" d="M62.286,33.501c3.486-0.394,8.485,0.213,8.757,2.99c-1.848-1.885-5.438-2.822-9.184-2.137
												c-0.182-1.669-1.672-2.03-2.349-3.204C60.79,30.775,61.894,32.29,62.286,33.501z"/>
										</g>
									</g>
								</g>
							</g>
						</g>
						<g>
							<g>
								<g>
									<g>
										<g>
											<path class="st3" d="M87.488,37.345c-1.215,0.253-2.735-1.596-4.698-0.641C83.375,34.563,87.013,36.121,87.488,37.345z"
												/>
										</g>
									</g>
								</g>
							</g>
						</g>
						<g>
							<g>
								<g>
									<g>
										<g>
											<path class="st3" d="M52.248,40.762c1.509-0.085,2.758,0.09,3.631,0.641c1.47-1.014,4.655-1.619,6.194-0.213
												c-0.936,0.723-4.142-0.733-5.339,0.64c0.381,0.971,1.368,1.338,1.281,2.776c3.827-1.02,6.094,2.426,6.408,4.913
												c-1.386-0.793-2.092-4.285-4.699-4.485c-0.761-0.058-1.155,0.345-2.135,0.428c-0.474-2.73-2.144-4.265-5.767-3.845
												c-0.391-1.53-0.913-2.932-2.135-3.631c-1.297-0.354-2.071,0.654-2.777,0.214C48.689,35.748,52.363,38.074,52.248,40.762z
												"/>
										</g>
									</g>
								</g>
							</g>
						</g>
						<g>
							<g>
								<g>
									<g>
										<g>
											<path class="st3" d="M83.644,39.908c0.876,2.84,4.868,3.812,7.262,1.709c-0.088,1.407-1.452,1.539-2.563,1.922
												c0.346,2.909-1.035,4.092-3.631,4.058c-0.606,1.798-3.002,3.657-5.126,2.563c-0.598,0.399-1.154,0.839-1.922,1.067
												c-0.942,0.089-1.651-0.058-2.136-0.427c-1.873,3.324-8.8,1.594-11.105,4.485c-1.433-0.988-2.445-2.396-5.126-2.136
												c-1.89-1.4-2.934-4.491-6.407-3.631c0.646-1.368,3.038-0.725,4.058-0.214c0.668,3.391,5.278,2.837,7.262,4.912
												c2.524-2.432,11.06-0.74,10.465-4.912c0.864,1.025,3.814,1.754,4.485,0c2.245,1.182,4.686-0.384,4.913-2.563
												c2.461,0.255,3.895-0.519,3.63-2.99C85.595,43.351,83.078,42.276,83.644,39.908z"/>
										</g>
									</g>
								</g>
							</g>
						</g>
						<g>
							<g>
								<g>
									<g>
										<g>
											<path class="st3" d="M94.109,46.101c0.19,0.095,0.382,0.188,0.427,0.428c-0.328,1.808-1.71,2.562-3.63,2.776
												c-1.128,2.29-3.503,3.331-5.34,4.912c0.306,0.62,1.322,0.529,1.709,1.068c0.283,0.928,0.063,2.358,0.641,2.989
												c1.93,0.108,3.837,0.505,5.125-0.426c0.114,2.18-3.638,1.238-5.766,1.067c-0.574-0.992-0.342-2.79-1.068-3.631
												c-1.873-0.618-3.263,1.196-4.912,0c4.002-1.123,6.978-3.274,8.756-6.62C92.305,48.711,93.474,47.674,94.109,46.101z"/>
										</g>
									</g>
								</g>
							</g>
						</g>
						<g>
							<g>
								<g>
									<g>
										<g>
											<path class="st3" d="M42.637,48.238c5.153-0.632,5.44,5.233,8.33,7.261c1.093,0.768,2.056,0.363,3.204,1.495
												c1.456-1.049,4.027,0.156,4.485,1.495c-1.175,0.271-2.096-1.427-3.844-1.281c-0.315,0.333,1.158,1.573,0.427,2.35
												c-0.864-2.127-3.221-2.76-5.126-3.845c-1.431-0.1-2.205,1.429-3.204,1.067c0.268-1.156,1.474-1.373,2.563-1.708
												c-1.583-2.494-3.01-6.218-6.621-5.98C42.685,48.902,42.622,48.61,42.637,48.238z"/>
										</g>
									</g>
								</g>
							</g>
						</g>
						<g>
							<g>
								<g>
									<g>
										<g>
											<path class="st3" d="M66.771,63.188c1.958-0.422,3.804,0.43,4.912,1.494c1.504-0.946,5.268-1.045,5.767,0.855
												c-1.279-0.481-4.548-1.534-5.98,0.213c-0.832-1.431-3.05-2.427-5.339-1.708c-0.156-2.688-1.568-4.301-4.058-4.059
												c-0.955,0.094-1.169,1.013-2.136,0.642C61.797,57.536,66.925,59.812,66.771,63.188z"/>
										</g>
									</g>
								</g>
							</g>
						</g>
						<g>
							<g>
								<g>
									<g>
										<g>
											<path class="st3" d="M97.099,59.557c1.338,0.156,2.017,0.973,2.135,2.35c0.859-0.194,2.222-0.436,2.776,0.213
												c0.05,1.146-1.31,0.092-2.349,0.428c-0.289,0.597,0.158,1.468-0.427,2.135c-0.872-0.551-0.138-2.709-0.854-3.417
												C98.221,60.429,96.962,60.691,97.099,59.557z"/>
										</g>
									</g>
								</g>
							</g>
						</g>
						<g>
							<g>
								<g>
									<g>
										<g>
											<path class="st3" d="M62.5,65.75c1.813,0.731,1.599,2.169,3.631,2.563c2.688,0.52,6.798-1.882,7.475,1.281
												C70.603,67.661,62.66,70.513,62.5,65.75z"/>
										</g>
									</g>
								</g>
							</g>
						</g>
					</g>
					<g>
						<g>
							<g>
								<g>
									<g>
										<path class="st42" d="M97.313,70.663c-1.666,4.152-5.523,8.772-11.106,9.397c-6.238,0.697-10.432-2.438-11.106-8.329
											c2.387,0.729,4.154-1.554,5.98-1.709c0.585-0.05,1.16,0.482,1.709,0.427c2.656-0.267,4.929-2.165,6.834-3.844
											C91.506,68.638,95.121,68.939,97.313,70.663z"/>
									</g>
								</g>
							</g>
						</g>
					</g>
					<g>
						<g>
							<g>
								<g>
									<g>
										<path class="st62" d="M99.662,108.039c-1.813-4.266-5.277-11.773-6.621-17.727c-1.601-7.091,6.985-15.475,10.039-19.649
											c3.795-5.188,5.264-14.054,3.204-22.425c-1.757-7.137-6.286-11.887-11.96-15.805c-6.604-4.56-15.236-8.296-26.697-7.476
											c-4.987,0.357-10.941,2.153-15.164,4.059c-7.667,3.458-14.201,10.022-15.377,19.649c-0.255,2.086,0.352,4.313,0.214,6.833
											c-0.388,7.095-6.046,9.521-9.397,14.523c1.948,3.163,9.434,4.873,4.912,10.038c0.629,1.222,2.95,0.752,3.631,1.922
											c0.154,1.721-1.926,1.206-2.349,2.35c1.108,1.65,2.102,1.602,2.563,3.204c1.29,4.484-3.67,9.932,2.99,10.892
											c5.935,0.855,12.505-2.446,18.795-1.281c1.669,1.261,2.426,3.687,2.99,6.408c0.495,2.387,1.752,5.297,0.854,7.047
											c-2.176-0.412-2.177-3.443-2.563-5.553c-0.444-2.427-0.834-4.612-2.135-5.979c-8.441-1.138-15.815,4.041-21.571,0.214
											c-0.99-0.659-1.945-2.157-2.136-3.204c-0.456-2.494,1.353-4.647,0.854-7.475c-0.377-2.142-4.084-2.949-1.922-5.98
											c-2.873-0.604-1.855-4.553-0.427-5.98c-1.582-2.928-6.265-2.458-6.407-6.407c-0.107-2.973,3.033-4.236,4.485-5.768
											c1.612-1.697,4.271-5.35,4.699-7.688c0.447-2.443-0.295-4.819-0.214-6.62c0.482-10.613,7.15-17.909,14.951-21.998
											c4.401-2.308,10.067-4.021,14.95-4.912c12.083-2.207,24.76,2.961,32.677,8.97c7.589,5.76,12.397,14.095,11.747,25.843
											c-0.405,7.307-2.528,11.322-6.193,15.805c-1.627,1.989-3.261,3.961-4.699,6.193c-1.432,2.224-3.721,5.812-3.417,9.184
											c0.284,3.147,1.934,6.613,2.99,9.611c1.059,3.008,2.898,5.765,2.99,9.184H99.662z"/>
									</g>
								</g>
							</g>
						</g>
					</g>
				</g>
			</g>
		</g>
	</g>
</g>
</svg>
