<?xml version="1.0" encoding="utf-8"?>
<!-- Generator: Adobe Illustrator 16.0.0, SVG Export Plug-In . SVG Version: 6.00 Build 0)  -->
<!DOCTYPE svg PUBLIC "-//W3C//DTD SVG 1.1//EN" "http://www.w3.org/Graphics/SVG/1.1/DTD/svg11.dtd">
<svg version="1.1" id="Layer_1" xmlns="http://www.w3.org/2000/svg" xmlns:xlink="http://www.w3.org/1999/xlink" x="0px" y="0px"
	 width="136.833px" height="136.833px" viewBox="0 0 136.833 136.833" style="enable-background:new 0 0 136.833 136.833;"
	 xml:space="preserve">
<style type="text/css">
<![CDATA[
	.st0{fill:#4699A1;}
	.st1{fill:#473C30;}
	.st2{fill:#AAAAAA;}
	.st3{fill-rule:evenodd;clip-rule:evenodd;fill:#D7AF8F;}
	.st4{fill:#49596B;}
	.st5{fill:#7D3719;}
	.st6{fill:#49A0AE;}
	.st7{fill:#AFAFA3;}
	.st8{fill:#E3AA24;}
	.st9{fill:#4ABC96;}
	.st10{fill:#181E1D;}
	.st11{fill:#E6BE20;}
	.st12{fill:#E79E2D;}
	.st13{fill:#E7E7D6;}
	.st14{fill:#E84849;}
	.st15{fill:#E9C29C;}
	.st16{fill:#E9E9EA;}
	.st17{fill:#807F7F;}
	.st18{fill:#809598;}
	.st19{fill:#81725B;}
	.st20{fill:#B1D4D7;}
	.st21{fill:#83CECA;}
	.st22{fill:#B58755;}
	.st23{fill:#B6B6B7;}
	.st24{fill:#1D8D45;}
	.st25{fill:#1D9E49;}
	.st26{fill:#ECE1D0;}
	.st27{fill:#ECEDEA;}
	.st28{fill:#B9B9BA;}
	.st29{fill:#EDC92C;}
	.st30{fill:#1FA85B;}
	.st31{fill:#526B70;}
	.st32{fill:#575757;}
	.st33{fill:#BB5538;}
	.st34{fill:#8C402B;}
	.st35{fill:#8C5228;}
	.st36{fill:#BC992F;}
	.st37{fill:#8D8D8D;}
	.st38{fill-rule:evenodd;clip-rule:evenodd;fill:#E8C790;}
	.st39{fill:#8E6E52;}
	.st40{fill:#202121;}
	.st41{fill:#202B2D;}
	.st42{fill-rule:evenodd;clip-rule:evenodd;fill:#E9C29C;}
	.st43{fill:#BF8A67;}
	.st44{fill:#21AC4B;}
	.st45{fill:#BFBEBE;}
	.st46{fill:#BFC1A9;}
	.st47{fill:#242D2B;}
	.st48{fill:#F37C2A;}
	.st49{fill:#27636D;}
	.st50{fill:#5B4F3F;}
	.st51{fill:#28333B;}
	.st52{fill:#F6DA66;}
	.st53{fill-rule:evenodd;clip-rule:evenodd;fill:#ECE1D0;}
	.st54{fill:#5E5F5E;}
	.st55{fill:url(#SVGID_1_);}
	.st56{fill:#C48F2C;}
	.st57{fill:#2A3633;}
	.st58{fill:#2A646E;}
	.st59{fill:#C5C3AE;}
	.st60{fill:#2B2B2A;}
	.st61{fill:#606060;}
	.st62{fill-rule:evenodd;clip-rule:evenodd;fill:#BEBEBE;}
	.st63{fill:#FFFFFF;}
	.st64{fill-rule:evenodd;clip-rule:evenodd;fill:#F2E8D3;}
	.st65{fill:#65A844;}
	.st66{fill-rule:evenodd;clip-rule:evenodd;fill:#F5DFB5;}
	.st67{fill:#CBCBC5;}
	.st68{fill:#9E7C5A;}
	.st69{fill:#9E9F9F;}
	.st70{fill:#CDCCCB;}
	.st71{fill:#CDCDCE;}
	.st72{fill:#9F77AA;}
	.st73{fill:#327477;}
	.st74{fill:#333738;}
	.st75{fill:#343433;}
	.st76{fill:#344E5D;}
	.st77{fill:#357180;}
	.st78{fill:#36454F;}
	.st79{fill:#383939;}
	.st80{fill:#6C533E;}
	.st81{fill:#6CC077;}
	.st82{fill:#6D5D49;}
	.st83{fill:#6EC2CB;}
	.st84{fill:#6F8284;}
	.st85{fill:#028CA3;}
	.st86{fill:#D1962A;}
	.st87{fill:#D1AFD2;}
	.st88{fill:#036A7B;}
	.st89{fill:#039A88;}
	.st90{fill:#D3E8E9;}
	.st91{fill:#D5CEA9;}
	.st92{fill:#3B7F89;}
	.st93{fill:#D62127;}
	.st94{fill:#3C4D5B;}
	.st95{fill:#D7AE29;}
	.st96{fill:#D7B129;}
	.st97{fill:#D7D7BF;}
	.st98{fill:#D7D7D7;}
	.st99{fill:#D7DABA;}
	.st100{fill:#70BFC8;}
	.st101{fill:#A2D4DE;}
	.st102{fill:#A480B1;}
	.st103{fill:#A48A75;}
	.st104{fill:#786451;}
	.st105{fill:#DBF0F5;}
	.st106{fill:#797979;}
	.st107{fill:#DCDCC6;}
	.st108{fill:#DCDCD2;}
	.st109{fill:#DCDDD8;}
	.st110{fill:#DDDDDC;}
	.st111{fill:#DFBA24;}
	.st112{fill:#DFDFDF;}
	.st113{fill:#435364;}
	.st114{fill:#43B665;}
]]>
</style>
<g>
	<g>
		<g>
			<g>
				<g>
					<g>
						<g>
							<circle class="st83" cx="68.417" cy="68.417" r="63.333"/>
						</g>
					</g>
				</g>
			</g>
		</g>
	</g>
	<g>
		<g>
			<g>
				<g>
					<g>
						<g>
							<g>
								<path class="st78" d="M96.724,76.097c-0.293,2.113-2.071,3.614-3.971,3.352l-2.294-0.317
									c-1.9-0.263-3.204-2.189-2.911-4.305l7.867-26.053l-2.311-12.749c0.292-2.114,1.806-5.926,3.707-5.661
									c0,0,9.232,1.502,7.737,19.986C104.009,57.021,96.724,76.097,96.724,76.097z"/>
							</g>
						</g>
					</g>
				</g>
			</g>
			<g>
				<g>
					<g>
						<g>
							<g>
								<path class="st94" d="M96.238,75.279c-0.293,2.113-2.166,3.602-4.184,3.321l-2.436-0.336
									c-2.019-0.28-3.417-2.22-3.125-4.333l7.879-26.053l-2.311-12.749c0.292-2.114,2.166-3.601,4.183-3.323l2.437,0.337
									c3.497,0.047,5.573,12.944,5.393,17.392C103.896,53.981,96.238,75.279,96.238,75.279z"/>
							</g>
						</g>
					</g>
				</g>
			</g>
			<g>
				<g>
					<g>
						<g>
							<g>
								<path class="st113" d="M85.901,55.628c-1.443,1.572-3.887,1.679-5.46,0.237l-1.899-1.741
									c-1.573-1.443-1.678-3.887-0.236-5.461l4.949-10.24l10.287-6.375c1.443-1.572,3.888-1.679,5.46-0.236l1.899,1.74
									c1.573,1.443,1.678,3.888,0.237,5.461L90.64,45.618L85.901,55.628z"/>
							</g>
						</g>
					</g>
				</g>
			</g>
			<g>
				<g>
					<g>
						<g>
							<g>
								<path class="st4" d="M85.184,54.537c-1.509,1.509-3.956,1.509-5.465,0l-1.822-1.821c-1.509-1.51-1.509-3.956,0-5.466
									c0,0-2.557-2.072,5.387-10.017c7.943-7.942,14.509-7.433,16.018-5.923c0,0,4.7,3.883,1.822,7.286L90.352,44.74
									L85.184,54.537z"/>
							</g>
						</g>
					</g>
				</g>
			</g>
		</g>
		<g>
			<g>
				<g>
					<g>
						<g>
							<g>
								<path class="st78" d="M39.989,76.097c0.293,2.113,2.071,3.614,3.971,3.352l2.294-0.317c1.9-0.263,3.204-2.189,2.911-4.305
									l-7.867-26.053l2.311-12.749c-0.292-2.114-1.807-5.926-3.707-5.661c0,0-9.232,1.502-7.737,19.986
									C32.704,57.021,39.989,76.097,39.989,76.097z"/>
							</g>
						</g>
					</g>
				</g>
			</g>
			<g>
				<g>
					<g>
						<g>
							<g>
								<path class="st94" d="M40.475,75.279c0.293,2.113,2.166,3.602,4.184,3.321l2.436-0.336c2.019-0.28,3.417-2.22,3.125-4.333
									L42.34,47.878l2.311-12.749c-0.292-2.114-2.166-3.601-4.183-3.323l-2.437,0.337c-3.497,0.047-5.573,12.944-5.393,17.392
									C32.817,53.981,40.475,75.279,40.475,75.279z"/>
							</g>
						</g>
					</g>
				</g>
			</g>
			<g>
				<g>
					<g>
						<g>
							<g>
								<path class="st113" d="M50.812,55.628c1.443,1.572,3.887,1.679,5.46,0.237l1.899-1.741c1.573-1.443,1.678-3.887,0.236-5.461
									l-4.949-10.24l-10.287-6.375c-1.442-1.572-3.887-1.679-5.459-0.236l-1.899,1.74c-1.573,1.443-1.679,3.888-0.237,5.461
									l10.497,6.604L50.812,55.628z"/>
							</g>
						</g>
					</g>
				</g>
			</g>
			<g>
				<g>
					<g>
						<g>
							<g>
								<path class="st4" d="M51.529,54.537c1.509,1.509,3.956,1.509,5.465,0l1.822-1.821c1.509-1.51,1.509-3.956,0-5.466
									c0,0,2.557-2.072-5.387-10.017C45.485,29.291,38.919,29.8,37.41,31.31c0,0-4.7,3.883-1.822,7.286l10.773,6.144
									L51.529,54.537z"/>
							</g>
						</g>
					</g>
				</g>
			</g>
		</g>
		<g>
			<g>
				<g>
					<g>
						<g>
							<g>
								<path class="st51" d="M80.452,42.008l-0.56-5.231c-1.84-6.538-8.081-6.665-11.197-6.665c-2.884,0-9.484,0.254-11.197,6.665
									l-0.56,5.231c0,0-0.399,2.024,4.641,2.024h14.234C80.853,44.033,80.452,42.008,80.452,42.008z M73.377,41.651h-9.363
									c-3.315,0-3.053-1.33-3.053-1.33l0.369-3.442c1.127-4.219,5.47-4.385,7.366-4.385c2.051,0,6.155,0.084,7.366,4.385
									l0.368,3.442C76.429,40.321,76.693,41.651,73.377,41.651z"/>
							</g>
						</g>
					</g>
				</g>
			</g>
		</g>
		<g>
			<g>
				<g>
					<g>
						<g>
							<path class="st4" d="M100.246,98.422L98.743,71.8c-4.938-33.277-21.684-33.923-30.048-33.923
								c-7.739,0-25.452,1.288-30.047,33.923l-1.503,26.622c0,0-1.074,10.306,12.452,10.306h38.197
								C101.319,108.728,100.246,98.422,100.246,98.422z"/>
						</g>
					</g>
				</g>
			</g>
		</g>
		<g>
			<g>
				<g>
					<g>
						<g>
							<path class="st94" d="M91.231,69.276c-3.704-24.958-16.264-25.439-22.537-25.439c-5.805,0-19.088,0.965-22.535,25.439H91.231
								z"/>
						</g>
					</g>
				</g>
			</g>
		</g>
		<g>
			<g>
				<g>
					<g>
						<g>
							<path class="st4" d="M87.528,67.187C84.433,46.33,73.937,45.925,68.695,45.925c-4.851,0-15.952,0.809-18.832,21.262H87.528z"
								/>
						</g>
					</g>
				</g>
			</g>
		</g>
		<g>
			<g>
				<g>
					<g>
						<g>
							<path class="st94" d="M92.932,82.642c0,0,0.825-7.916-9.565-7.916H54.024c-10.39,0-9.565,7.916-9.565,7.916v9.957
								c0,0-0.825,7.917,9.565,7.917h29.343c10.39,0,9.565-7.917,9.565-7.917V82.642z"/>
						</g>
					</g>
				</g>
			</g>
		</g>
		<g>
			<g>
				<g>
					<g>
						<g>
							<path class="st4" d="M51.865,78.456c2.766,18.641,12.146,19.001,16.83,19.001c4.335,0,14.256-0.721,16.831-19.001H51.865z"/>
						</g>
					</g>
				</g>
			</g>
		</g>
	</g>
</g>
</svg>
