<?xml version="1.0" encoding="utf-8"?>
<!-- Generator: Adobe Illustrator 16.0.0, SVG Export Plug-In . SVG Version: 6.00 Build 0)  -->
<!DOCTYPE svg PUBLIC "-//W3C//DTD SVG 1.1//EN" "http://www.w3.org/Graphics/SVG/1.1/DTD/svg11.dtd">
<svg version="1.1" id="Layer_1" xmlns="http://www.w3.org/2000/svg" xmlns:xlink="http://www.w3.org/1999/xlink" x="0px" y="0px"
	 width="136.833px" height="136.833px" viewBox="0 0 136.833 136.833" style="enable-background:new 0 0 136.833 136.833;"
	 xml:space="preserve">
<style type="text/css">
<![CDATA[
	.st0{fill:#4699A1;}
	.st1{fill:#473C30;}
	.st2{fill:#AAAAAA;}
	.st3{fill-rule:evenodd;clip-rule:evenodd;fill:#D7AF8F;}
	.st4{fill:#49596B;}
	.st5{fill:#7D3719;}
	.st6{fill:#49A0AE;}
	.st7{fill:#AFAFA3;}
	.st8{fill:#E3AA24;}
	.st9{fill:#4ABC96;}
	.st10{fill:#181E1D;}
	.st11{fill:#E6BE20;}
	.st12{fill:#E79E2D;}
	.st13{fill:#E7E7D6;}
	.st14{fill:#E84849;}
	.st15{fill:#E9C29C;}
	.st16{fill:#E9E9EA;}
	.st17{fill:#807F7F;}
	.st18{fill:#809598;}
	.st19{fill:#81725B;}
	.st20{fill:#B1D4D7;}
	.st21{fill:#83CECA;}
	.st22{fill:#B58755;}
	.st23{fill:#B6B6B7;}
	.st24{fill:#1D8D45;}
	.st25{fill:#1D9E49;}
	.st26{fill:#ECE1D0;}
	.st27{fill:#ECEDEA;}
	.st28{fill:#B9B9BA;}
	.st29{fill:#EDC92C;}
	.st30{fill:#1FA85B;}
	.st31{fill:#526B70;}
	.st32{fill:#575757;}
	.st33{fill:#BB5538;}
	.st34{fill:#8C402B;}
	.st35{fill:#8C5228;}
	.st36{fill:#BC992F;}
	.st37{fill:#8D8D8D;}
	.st38{fill-rule:evenodd;clip-rule:evenodd;fill:#E8C790;}
	.st39{fill:#8E6E52;}
	.st40{fill:#202121;}
	.st41{fill:#202B2D;}
	.st42{fill-rule:evenodd;clip-rule:evenodd;fill:#E9C29C;}
	.st43{fill:#BF8A67;}
	.st44{fill:#21AC4B;}
	.st45{fill:#BFBEBE;}
	.st46{fill:#BFC1A9;}
	.st47{fill:#242D2B;}
	.st48{fill:#F37C2A;}
	.st49{fill:#27636D;}
	.st50{fill:#5B4F3F;}
	.st51{fill:#28333B;}
	.st52{fill:#F6DA66;}
	.st53{fill-rule:evenodd;clip-rule:evenodd;fill:#ECE1D0;}
	.st54{fill:#5E5F5E;}
	.st55{fill:url(#SVGID_1_);}
	.st56{fill:#C48F2C;}
	.st57{fill:#2A3633;}
	.st58{fill:#2A646E;}
	.st59{fill:#C5C3AE;}
	.st60{fill:#2B2B2A;}
	.st61{fill:#606060;}
	.st62{fill-rule:evenodd;clip-rule:evenodd;fill:#BEBEBE;}
	.st63{fill:#FFFFFF;}
	.st64{fill-rule:evenodd;clip-rule:evenodd;fill:#F2E8D3;}
	.st65{fill:#65A844;}
	.st66{fill-rule:evenodd;clip-rule:evenodd;fill:#F5DFB5;}
	.st67{fill:#CBCBC5;}
	.st68{fill:#9E7C5A;}
	.st69{fill:#9E9F9F;}
	.st70{fill:#CDCCCB;}
	.st71{fill:#CDCDCE;}
	.st72{fill:#9F77AA;}
	.st73{fill:#327477;}
	.st74{fill:#333738;}
	.st75{fill:#343433;}
	.st76{fill:#344E5D;}
	.st77{fill:#357180;}
	.st78{fill:#36454F;}
	.st79{fill:#383939;}
	.st80{fill:#6C533E;}
	.st81{fill:#6CC077;}
	.st82{fill:#6D5D49;}
	.st83{fill:#6EC2CB;}
	.st84{fill:#6F8284;}
	.st85{fill:#028CA3;}
	.st86{fill:#D1962A;}
	.st87{fill:#D1AFD2;}
	.st88{fill:#036A7B;}
	.st89{fill:#039A88;}
	.st90{fill:#D3E8E9;}
	.st91{fill:#D5CEA9;}
	.st92{fill:#3B7F89;}
	.st93{fill:#D62127;}
	.st94{fill:#3C4D5B;}
	.st95{fill:#D7AE29;}
	.st96{fill:#D7B129;}
	.st97{fill:#D7D7BF;}
	.st98{fill:#D7D7D7;}
	.st99{fill:#D7DABA;}
	.st100{fill:#70BFC8;}
	.st101{fill:#A2D4DE;}
	.st102{fill:#A480B1;}
	.st103{fill:#A48A75;}
	.st104{fill:#786451;}
	.st105{fill:#DBF0F5;}
	.st106{fill:#797979;}
	.st107{fill:#DCDCC6;}
	.st108{fill:#DCDCD2;}
	.st109{fill:#DCDDD8;}
	.st110{fill:#DDDDDC;}
	.st111{fill:#DFBA24;}
	.st112{fill:#DFDFDF;}
	.st113{fill:#435364;}
	.st114{fill:#43B665;}
]]>
</style>
<g>
	<g>
		<g>
			<g>
				<g>
					<g>
						<g>
							<circle class="st9" cx="68.416" cy="68.417" r="63.333"/>
						</g>
					</g>
				</g>
			</g>
		</g>
		<g>
			<g>
				<g>
					<g>
						<g>
							<path class="st111" d="M13.767,36.42c-4.748,8.094-7.744,17.332-8.484,27.205h33.15c0.553,0,1,0.447,1,1s-0.447,1-1,1H5.153
								c-0.039,0.926-0.07,1.855-0.07,2.791c0,0.487,0.027,0.969,0.037,1.453h33.313c0.553,0,1,0.447,1,1s-0.447,1-1,1H5.181
								c0.072,1.355,0.201,2.696,0.357,4.028h32.895c0.553,0,1,0.447,1,1s-0.447,1-1,1H5.792c0.396,2.632,0.967,5.205,1.676,7.721
								h37.639l1.955,4.754h36.225c2.627,0,5.963-3.553,5.963-6.179c0,0,2.439-2.415,3.299-9.735
								c0-19.163-4.508-39.343-4.508-39.343l-0.516,1.305H13.767z"/>
						</g>
					</g>
				</g>
			</g>
		</g>
	</g>
	<g>
		<g>
			<g>
				<g>
					<g>
						<g>
							<g>
								<g>
									<g>
										<path class="st111" d="M119.247,80.2c0,5.708-4.627,10.335-10.334,10.335H92.862c-5.709,0-10.334-4.627-10.334-10.335
											V68.715c0-5.707,2.877-10.19,8.584-10.19l17.801,4.02c5.74,1.723,10.334,3.158,10.334,10.335V80.2z"/>
									</g>
								</g>
							</g>
						</g>
					</g>
					<g>
						<g>
							<g>
								<g>
									<g>
										<polygon class="st111" points="86.735,94.698 48.839,94.698 43.386,90.677 46.544,79.769 86.735,79.769 										"/>
									</g>
								</g>
							</g>
						</g>
					</g>
					<g>
						<g>
							<g>
								<g>
									<g>
										<path class="st75" d="M118.673,83.62c0,2.625-2.111,6.753-4.736,6.753h-8.973c-2.625,0-4.754-2.128-4.754-4.754h15.879
											L118.673,83.62z"/>
									</g>
								</g>
							</g>
						</g>
					</g>
					<g>
						<g>
							<g>
								<g>
									<g>
										<g>
											<path class="st95" d="M113.952,85.403l-4.682,0.323l-20.168,8.972h-4.234l-0.598-1.318
												c-2.203-8.196,2.654-16.626,10.852-18.829C103.321,72.347,111.749,77.206,113.952,85.403z"/>
										</g>
									</g>
								</g>
							</g>
						</g>
						<g>
							<g>
								<g>
									<g>
										<g>
											<circle class="st40" cx="98.805" cy="89.977" r="11.062"/>
										</g>
									</g>
								</g>
							</g>
						</g>
						<g>
							<g>
								<g>
									<g>
										<g>
											<circle class="st54" cx="98.805" cy="89.977" r="5.081"/>
										</g>
									</g>
								</g>
							</g>
						</g>
					</g>
					<g>
						<g>
							<g>
								<g>
									<g>
										<g>
											<path class="st75" d="M83.132,90.373H49.966V50.186c0-2.906,2.193-5.263,4.9-5.263h23.365c2.705,0,4.9,2.356,4.9,5.263
												V90.373z"/>
										</g>
									</g>
								</g>
							</g>
						</g>
						<g>
							<g>
								<g>
									<g>
										<g>
											<path class="st20" d="M81.841,90.373H51.257V53.317c0-2.681,2.021-4.853,4.52-4.853h21.545
												c2.496,0,4.52,2.172,4.52,4.853V90.373z"/>
										</g>
									</g>
								</g>
							</g>
						</g>
						<g>
							<g>
								<g>
									<g>
										<g>
											<rect x="65.696" y="46.324" class="st75" width="0.889" height="44.038"/>
										</g>
									</g>
								</g>
							</g>
						</g>
					</g>
					<g>
						<g>
							<g>
								<g>
									<g>
										<path class="st20" d="M15.179,47.353c0-1.614,1.309-2.923,2.922-2.923h18.264c1.613,0,2.922,1.309,2.922,2.923v8.015
											c0,1.614-1.309,2.923-2.922,2.923H18.101c-1.613,0-2.922-1.309-2.922-2.923V47.353z"/>
									</g>
								</g>
							</g>
						</g>
					</g>
					<g>
						<g>
							<g>
								<g>
									<g>
										<rect x="15.753" y="50.061" class="st90" width="23.039" height="2"/>
									</g>
								</g>
							</g>
						</g>
					</g>
				</g>
				<g>
					<g>
						<g>
							<g>
								<g>
									<path class="st75" d="M91.503,58.453c0,0.308-2.34,0.247-4.016-1.711c-0.928-1.081-0.576-8.638-0.182-18.087
										c0.107-2.584,0.734-3.539,0.734-3.539S91.503,44.325,91.503,58.453z"/>
								</g>
							</g>
						</g>
					</g>
				</g>
				<g>
					<g>
						<g>
							<g>
								<g>
									<path class="st20" d="M91.544,56.156c0,0.288-1.865,0.036-3.049-1.794c-1.184-1.829-0.467-20.12-0.467-20.12
										S91.544,42.947,91.544,56.156z"/>
								</g>
							</g>
						</g>
					</g>
				</g>
			</g>
		</g>
		<g>
			<g>
				<g>
					<g>
						<g>
							<g>
								<path class="st75" d="M48.839,94.698l-1.777-4.325h-4.107C43.323,90.741,48.839,94.698,48.839,94.698z"/>
							</g>
						</g>
					</g>
				</g>
			</g>
			<g>
				<g>
					<g>
						<g>
							<g>
								<path class="st75" d="M47.062,90.373l-1.955-4.754H7.468c0.453,1.609,0.955,3.199,1.529,4.754h33.957H47.062z"/>
							</g>
						</g>
					</g>
				</g>
			</g>
			<g>
				<g>
					<g>
						<g>
							<g>
								<path class="st75" d="M39.433,70.87c0-0.553-0.447-1-1-1H5.12c0.016,0.668,0.025,1.337,0.061,2h33.252
									C38.985,71.87,39.433,71.422,39.433,70.87z"/>
							</g>
						</g>
					</g>
				</g>
			</g>
			<g>
				<g>
					<g>
						<g>
							<g>
								<path class="st75" d="M39.433,64.625c0-0.553-0.447-1-1-1H5.282c-0.049,0.665-0.1,1.329-0.129,2h33.279
									C38.985,65.625,39.433,65.178,39.433,64.625z"/>
							</g>
						</g>
					</g>
				</g>
			</g>
			<g>
				<g>
					<g>
						<g>
							<g>
								<path class="st75" d="M39.433,76.898c0-0.553-0.447-1-1-1H5.538c0.078,0.669,0.154,1.338,0.254,2h32.641
									C38.985,77.898,39.433,77.451,39.433,76.898z"/>
							</g>
						</g>
					</g>
				</g>
			</g>
			<g>
				<g>
					<g>
						<g>
							<g>
								<path class="st52" d="M87.524,36.42l0.516-1.305c0-2.625-2.127-4.753-4.754-4.753H17.792
									c-1.457,1.935-2.795,3.96-4.025,6.058H87.524z"/>
							</g>
						</g>
					</g>
				</g>
			</g>
		</g>
	</g>
</g>
</svg>
