<?xml version="1.0" encoding="utf-8"?>
<!-- Generator: Adobe Illustrator 16.0.0, SVG Export Plug-In . SVG Version: 6.00 Build 0)  -->
<!DOCTYPE svg PUBLIC "-//W3C//DTD SVG 1.1//EN" "http://www.w3.org/Graphics/SVG/1.1/DTD/svg11.dtd">
<svg version="1.1" id="Layer_1" xmlns="http://www.w3.org/2000/svg" xmlns:xlink="http://www.w3.org/1999/xlink" x="0px" y="0px"
	 width="136.833px" height="136.834px" viewBox="0 0 136.833 136.834" style="enable-background:new 0 0 136.833 136.834;"
	 xml:space="preserve">
<style type="text/css">
<![CDATA[
	.st0{fill:#4699A1;}
	.st1{fill:#473C30;}
	.st2{fill:#AAAAAA;}
	.st3{fill-rule:evenodd;clip-rule:evenodd;fill:#D7AF8F;}
	.st4{fill:#49596B;}
	.st5{fill:#7D3719;}
	.st6{fill:#49A0AE;}
	.st7{fill:#AFAFA3;}
	.st8{fill:#E3AA24;}
	.st9{fill:#4ABC96;}
	.st10{fill:#181E1D;}
	.st11{fill:#E6BE20;}
	.st12{fill:#E79E2D;}
	.st13{fill:#E7E7D6;}
	.st14{fill:#E84849;}
	.st15{fill:#E9C29C;}
	.st16{fill:#E9E9EA;}
	.st17{fill:#807F7F;}
	.st18{fill:#809598;}
	.st19{fill:#81725B;}
	.st20{fill:#B1D4D7;}
	.st21{fill:#83CECA;}
	.st22{fill:#B58755;}
	.st23{fill:#B6B6B7;}
	.st24{fill:#1D8D45;}
	.st25{fill:#1D9E49;}
	.st26{fill:#ECE1D0;}
	.st27{fill:#ECEDEA;}
	.st28{fill:#B9B9BA;}
	.st29{fill:#EDC92C;}
	.st30{fill:#1FA85B;}
	.st31{fill:#526B70;}
	.st32{fill:#575757;}
	.st33{fill:#BB5538;}
	.st34{fill:#8C402B;}
	.st35{fill:#8C5228;}
	.st36{fill:#BC992F;}
	.st37{fill:#8D8D8D;}
	.st38{fill-rule:evenodd;clip-rule:evenodd;fill:#E8C790;}
	.st39{fill:#8E6E52;}
	.st40{fill:#202121;}
	.st41{fill:#202B2D;}
	.st42{fill-rule:evenodd;clip-rule:evenodd;fill:#E9C29C;}
	.st43{fill:#BF8A67;}
	.st44{fill:#21AC4B;}
	.st45{fill:#BFBEBE;}
	.st46{fill:#BFC1A9;}
	.st47{fill:#242D2B;}
	.st48{fill:#F37C2A;}
	.st49{fill:#27636D;}
	.st50{fill:#5B4F3F;}
	.st51{fill:#28333B;}
	.st52{fill:#F6DA66;}
	.st53{fill-rule:evenodd;clip-rule:evenodd;fill:#ECE1D0;}
	.st54{fill:#5E5F5E;}
	.st55{fill:url(#SVGID_1_);}
	.st56{fill:#C48F2C;}
	.st57{fill:#2A3633;}
	.st58{fill:#2A646E;}
	.st59{fill:#C5C3AE;}
	.st60{fill:#2B2B2A;}
	.st61{fill:#606060;}
	.st62{fill-rule:evenodd;clip-rule:evenodd;fill:#BEBEBE;}
	.st63{fill:#FFFFFF;}
	.st64{fill-rule:evenodd;clip-rule:evenodd;fill:#F2E8D3;}
	.st65{fill:#65A844;}
	.st66{fill-rule:evenodd;clip-rule:evenodd;fill:#F5DFB5;}
	.st67{fill:#CBCBC5;}
	.st68{fill:#9E7C5A;}
	.st69{fill:#9E9F9F;}
	.st70{fill:#CDCCCB;}
	.st71{fill:#CDCDCE;}
	.st72{fill:#9F77AA;}
	.st73{fill:#327477;}
	.st74{fill:#333738;}
	.st75{fill:#343433;}
	.st76{fill:#344E5D;}
	.st77{fill:#357180;}
	.st78{fill:#36454F;}
	.st79{fill:#383939;}
	.st80{fill:#6C533E;}
	.st81{fill:#6CC077;}
	.st82{fill:#6D5D49;}
	.st83{fill:#6EC2CB;}
	.st84{fill:#6F8284;}
	.st85{fill:#028CA3;}
	.st86{fill:#D1962A;}
	.st87{fill:#D1AFD2;}
	.st88{fill:#036A7B;}
	.st89{fill:#039A88;}
	.st90{fill:#D3E8E9;}
	.st91{fill:#D5CEA9;}
	.st92{fill:#3B7F89;}
	.st93{fill:#D62127;}
	.st94{fill:#3C4D5B;}
	.st95{fill:#D7AE29;}
	.st96{fill:#D7B129;}
	.st97{fill:#D7D7BF;}
	.st98{fill:#D7D7D7;}
	.st99{fill:#D7DABA;}
	.st100{fill:#70BFC8;}
	.st101{fill:#A2D4DE;}
	.st102{fill:#A480B1;}
	.st103{fill:#A48A75;}
	.st104{fill:#786451;}
	.st105{fill:#DBF0F5;}
	.st106{fill:#797979;}
	.st107{fill:#DCDCC6;}
	.st108{fill:#DCDCD2;}
	.st109{fill:#DCDDD8;}
	.st110{fill:#DDDDDC;}
	.st111{fill:#DFBA24;}
	.st112{fill:#DFDFDF;}
	.st113{fill:#435364;}
	.st114{fill:#43B665;}
]]>
</style>
<g>
	<circle class="st99" cx="68.417" cy="68.417" r="63.333"/>
	<g>
		<path class="st73" d="M99.739,101.112c0,0.967-0.783,1.748-1.747,1.748H39.274c-0.964,0-1.747-0.781-1.747-1.748V32.333
			c0-0.965,0.783-1.748,1.747-1.748h58.718c0.964,0,1.747,0.783,1.747,1.748V101.112z"/>
		<path class="st92" d="M99.739,105.836c0,0.965-0.783,1.747-1.747,1.747H42.581l0-64.929h55.41c0.964,0,1.747,0.783,1.747,1.748
			V105.836z"/>
		<rect x="41.873" y="41.746" class="st0" width="1.063" height="65.838"/>
		<path class="st58" d="M42.049,30.585h-2.775c-0.964,0-1.747,0.783-1.747,1.748v73.503c0,0.965,0.783,1.747,1.747,1.747h2.775
			V30.585z"/>
		<path class="st16" d="M96.59,42.632H43.496c-1.81,0-3.277-1.469-3.277-3.279V37.2c0-1.81,1.467-3.277,3.277-3.277h49.817
			c1.81,0,3.277,1.468,3.277,3.277L96.59,42.632z"/>
		<g>
			<path class="st58" d="M81.113,72.324H61.469c-2.319,0-4.205-1.887-4.205-4.205V57.924c0-2.317,1.886-4.204,4.205-4.204h19.644
				c2.318,0,4.205,1.887,4.205,4.204v10.194C85.317,70.437,83.431,72.324,81.113,72.324z"/>
		</g>
		<path class="st58" d="M87.854,82.818c0,0.754-0.587,1.366-1.312,1.366h-31.09c-0.725,0-1.313-0.612-1.313-1.366l0,0
			c0-0.756,0.588-1.367,1.313-1.367h31.09C87.268,81.451,87.854,82.062,87.854,82.818L87.854,82.818z"/>
		<path class="st58" d="M87.854,87.888c0,0.754-0.587,1.366-1.312,1.366h-31.09c-0.725,0-1.313-0.612-1.313-1.366l0,0
			c0-0.754,0.588-1.366,1.313-1.366h31.09C87.268,86.522,87.854,87.134,87.854,87.888L87.854,87.888z"/>
		<path class="st58" d="M82.331,95.43c0,0.506-0.396,0.918-0.883,0.918H60.546c-0.488,0-0.883-0.412-0.883-0.918l0,0
			c0-0.507,0.396-0.919,0.883-0.919h20.902C81.936,94.511,82.331,94.923,82.331,95.43L82.331,95.43z"/>
	</g>
</g>
</svg>
