<?xml version="1.0" encoding="utf-8"?>
<!-- Generator: Adobe Illustrator 16.0.0, SVG Export Plug-In . SVG Version: 6.00 Build 0)  -->
<!DOCTYPE svg PUBLIC "-//W3C//DTD SVG 1.1//EN" "http://www.w3.org/Graphics/SVG/1.1/DTD/svg11.dtd">
<svg version="1.1" id="Layer_1" xmlns="http://www.w3.org/2000/svg" xmlns:xlink="http://www.w3.org/1999/xlink" x="0px" y="0px"
	 width="136.833px" height="136.833px" viewBox="0 0 136.833 136.833" style="enable-background:new 0 0 136.833 136.833;"
	 xml:space="preserve">
<style type="text/css">
<![CDATA[
	.st0{fill:#4699A1;}
	.st1{fill:#473C30;}
	.st2{fill:#AAAAAA;}
	.st3{fill-rule:evenodd;clip-rule:evenodd;fill:#D7AF8F;}
	.st4{fill:#49596B;}
	.st5{fill:#7D3719;}
	.st6{fill:#49A0AE;}
	.st7{fill:#AFAFA3;}
	.st8{fill:#E3AA24;}
	.st9{fill:#4ABC96;}
	.st10{fill:#181E1D;}
	.st11{fill:#E6BE20;}
	.st12{fill:#E79E2D;}
	.st13{fill:#E7E7D6;}
	.st14{fill:#E84849;}
	.st15{fill:#E9C29C;}
	.st16{fill:#E9E9EA;}
	.st17{fill:#807F7F;}
	.st18{fill:#809598;}
	.st19{fill:#81725B;}
	.st20{fill:#B1D4D7;}
	.st21{fill:#83CECA;}
	.st22{fill:#B58755;}
	.st23{fill:#B6B6B7;}
	.st24{fill:#1D8D45;}
	.st25{fill:#1D9E49;}
	.st26{fill:#ECE1D0;}
	.st27{fill:#ECEDEA;}
	.st28{fill:#B9B9BA;}
	.st29{fill:#EDC92C;}
	.st30{fill:#1FA85B;}
	.st31{fill:#526B70;}
	.st32{fill:#575757;}
	.st33{fill:#BB5538;}
	.st34{fill:#8C402B;}
	.st35{fill:#8C5228;}
	.st36{fill:#BC992F;}
	.st37{fill:#8D8D8D;}
	.st38{fill-rule:evenodd;clip-rule:evenodd;fill:#E8C790;}
	.st39{fill:#8E6E52;}
	.st40{fill:#202121;}
	.st41{fill:#202B2D;}
	.st42{fill-rule:evenodd;clip-rule:evenodd;fill:#E9C29C;}
	.st43{fill:#BF8A67;}
	.st44{fill:#21AC4B;}
	.st45{fill:#BFBEBE;}
	.st46{fill:#BFC1A9;}
	.st47{fill:#242D2B;}
	.st48{fill:#F37C2A;}
	.st49{fill:#27636D;}
	.st50{fill:#5B4F3F;}
	.st51{fill:#28333B;}
	.st52{fill:#F6DA66;}
	.st53{fill-rule:evenodd;clip-rule:evenodd;fill:#ECE1D0;}
	.st54{fill:#5E5F5E;}
	.st55{fill:url(#SVGID_1_);}
	.st56{fill:#C48F2C;}
	.st57{fill:#2A3633;}
	.st58{fill:#2A646E;}
	.st59{fill:#C5C3AE;}
	.st60{fill:#2B2B2A;}
	.st61{fill:#606060;}
	.st62{fill-rule:evenodd;clip-rule:evenodd;fill:#BEBEBE;}
	.st63{fill:#FFFFFF;}
	.st64{fill-rule:evenodd;clip-rule:evenodd;fill:#F2E8D3;}
	.st65{fill:#65A844;}
	.st66{fill-rule:evenodd;clip-rule:evenodd;fill:#F5DFB5;}
	.st67{fill:#CBCBC5;}
	.st68{fill:#9E7C5A;}
	.st69{fill:#9E9F9F;}
	.st70{fill:#CDCCCB;}
	.st71{fill:#CDCDCE;}
	.st72{fill:#9F77AA;}
	.st73{fill:#327477;}
	.st74{fill:#333738;}
	.st75{fill:#343433;}
	.st76{fill:#344E5D;}
	.st77{fill:#357180;}
	.st78{fill:#36454F;}
	.st79{fill:#383939;}
	.st80{fill:#6C533E;}
	.st81{fill:#6CC077;}
	.st82{fill:#6D5D49;}
	.st83{fill:#6EC2CB;}
	.st84{fill:#6F8284;}
	.st85{fill:#028CA3;}
	.st86{fill:#D1962A;}
	.st87{fill:#D1AFD2;}
	.st88{fill:#036A7B;}
	.st89{fill:#039A88;}
	.st90{fill:#D3E8E9;}
	.st91{fill:#D5CEA9;}
	.st92{fill:#3B7F89;}
	.st93{fill:#D62127;}
	.st94{fill:#3C4D5B;}
	.st95{fill:#D7AE29;}
	.st96{fill:#D7B129;}
	.st97{fill:#D7D7BF;}
	.st98{fill:#D7D7D7;}
	.st99{fill:#D7DABA;}
	.st100{fill:#70BFC8;}
	.st101{fill:#A2D4DE;}
	.st102{fill:#A480B1;}
	.st103{fill:#A48A75;}
	.st104{fill:#786451;}
	.st105{fill:#DBF0F5;}
	.st106{fill:#797979;}
	.st107{fill:#DCDCC6;}
	.st108{fill:#DCDCD2;}
	.st109{fill:#DCDDD8;}
	.st110{fill:#DDDDDC;}
	.st111{fill:#DFBA24;}
	.st112{fill:#DFDFDF;}
	.st113{fill:#435364;}
	.st114{fill:#43B665;}
]]>
</style>
<g>
	<g>
		<g>
			<g>
				<g>
					<g>
						<circle class="st76" cx="68.416" cy="68.417" r="63.333"/>
					</g>
				</g>
			</g>
		</g>
	</g>
	<g>
		<g>
			<g>
				<g>
					<g>
						<g>
							<g>
								<path class="st107" d="M109.78,95.749c0,1.26-1.021,2.281-2.281,2.281H73.534c-1.26,0-2.281-1.021-2.281-2.281V77.022
									c0-1.26,1.021-2.281,2.281-2.281h33.965c1.26,0,2.281,1.021,2.281,2.281V95.749z"/>
							</g>
						</g>
					</g>
				</g>
			</g>
		</g>
	</g>
	<g>
		<g>
			<g>
				<g>
					<g>
						<g>
							<path class="st23" d="M98.831,85.402c0.58,0,1.08-0.171,1.498-0.511c0.42-0.341,0.629-0.829,0.629-1.467
								c0-0.485-0.166-0.903-0.5-1.253c-0.336-0.351-0.785-0.525-1.354-0.525c-0.385,0-0.701,0.054-0.951,0.161
								c-0.248,0.107-0.445,0.249-0.592,0.426c-0.145,0.177-0.281,0.403-0.41,0.681s-0.248,0.539-0.355,0.785
								c-0.063,0.133-0.176,0.236-0.34,0.313c-0.164,0.075-0.354,0.113-0.568,0.113c-0.252,0-0.484-0.103-0.695-0.308
								s-0.316-0.478-0.316-0.818c0-0.327,0.1-0.673,0.297-1.035c0.199-0.363,0.49-0.708,0.871-1.036
								c0.383-0.328,0.857-0.592,1.424-0.79c0.568-0.198,1.201-0.298,1.902-0.298c0.611,0,1.17,0.083,1.674,0.251
								c0.504,0.167,0.943,0.408,1.314,0.724c0.373,0.314,0.652,0.681,0.842,1.097c0.189,0.417,0.285,0.864,0.285,1.344
								c0,0.631-0.139,1.171-0.412,1.622s-0.668,0.892-1.178,1.32c0.492,0.265,0.906,0.567,1.244,0.908s0.592,0.717,0.762,1.13
								s0.256,0.859,0.256,1.339c0,0.574-0.115,1.129-0.346,1.665s-0.57,1.014-1.018,1.434c-0.447,0.419-0.979,0.747-1.594,0.983
								s-1.295,0.354-2.039,0.354c-0.756,0-1.436-0.135-2.033-0.406c-0.6-0.271-1.094-0.61-1.48-1.018
								c-0.389-0.406-0.682-0.827-0.881-1.263c-0.199-0.435-0.297-0.795-0.297-1.078c0-0.365,0.117-0.661,0.354-0.885
								s0.531-0.336,0.885-0.336c0.178,0,0.348,0.053,0.512,0.156c0.164,0.104,0.271,0.229,0.32,0.374
								c0.328,0.876,0.68,1.527,1.055,1.953c0.377,0.426,0.904,0.639,1.586,0.639c0.391,0,0.768-0.097,1.131-0.288
								c0.361-0.192,0.662-0.478,0.898-0.856c0.236-0.378,0.354-0.816,0.354-1.315c0-0.737-0.201-1.316-0.605-1.735
								c-0.402-0.419-0.965-0.629-1.684-0.629c-0.125,0-0.32,0.012-0.586,0.037s-0.436,0.038-0.512,0.038
								c-0.346,0-0.615-0.087-0.803-0.261c-0.189-0.173-0.285-0.414-0.285-0.723c0-0.303,0.115-0.548,0.342-0.733
								c0.227-0.187,0.564-0.279,1.012-0.279H98.831z"/>
						</g>
					</g>
				</g>
			</g>
		</g>
	</g>
	<g>
		<g>
			<g>
				<g>
					<g>
						<g>
							<g>
								<path class="st107" d="M55.562,95.749c0,1.26-1.021,2.281-2.281,2.281H32.534c-1.26,0-2.281-1.021-2.281-2.281V69.311
									c0-1.26,1.021-2.281,2.281-2.281H53.28c1.26,0,2.281,1.021,2.281,2.281V95.749z"/>
							</g>
						</g>
					</g>
				</g>
			</g>
		</g>
	</g>
	<g>
		<g>
			<g>
				<g>
					<g>
						<g>
							<path class="st23" d="M41.409,86.583h4.938c0.492,0,0.867,0.101,1.125,0.303c0.26,0.202,0.389,0.477,0.389,0.823
								c0,0.31-0.104,0.57-0.309,0.785c-0.203,0.215-0.516,0.321-0.932,0.321h-6.963c-0.473,0-0.842-0.131-1.105-0.393
								c-0.266-0.262-0.398-0.568-0.398-0.922c0-0.228,0.086-0.528,0.256-0.903c0.17-0.376,0.355-0.671,0.559-0.885
								c0.838-0.87,1.596-1.616,2.27-2.237c0.676-0.621,1.158-1.029,1.447-1.226c0.518-0.365,0.949-0.733,1.291-1.102
								c0.346-0.369,0.605-0.748,0.787-1.136c0.18-0.388,0.27-0.768,0.27-1.14c0-0.403-0.098-0.765-0.289-1.083
								c-0.193-0.318-0.455-0.566-0.785-0.743c-0.332-0.177-0.693-0.264-1.084-0.264c-0.826,0-1.475,0.362-1.949,1.087
								c-0.063,0.095-0.168,0.354-0.316,0.775c-0.148,0.423-0.314,0.748-0.502,0.975c-0.186,0.228-0.459,0.341-0.816,0.341
								c-0.316,0-0.578-0.104-0.787-0.313c-0.207-0.208-0.311-0.49-0.311-0.852c0-0.435,0.098-0.889,0.293-1.362
								c0.195-0.473,0.486-0.901,0.875-1.286c0.387-0.385,0.879-0.695,1.475-0.932c0.598-0.236,1.295-0.355,2.096-0.355
								c0.965,0,1.789,0.151,2.469,0.454c0.441,0.202,0.83,0.479,1.164,0.833s0.596,0.762,0.781,1.225
								c0.186,0.464,0.279,0.945,0.279,1.443c0,0.782-0.193,1.493-0.582,2.133c-0.389,0.641-0.783,1.142-1.188,1.505
								c-0.404,0.362-1.08,0.932-2.029,1.707c-0.949,0.776-1.6,1.379-1.953,1.808C41.72,86.138,41.565,86.343,41.409,86.583z"/>
						</g>
					</g>
				</g>
			</g>
		</g>
	</g>
	<g>
		<g>
			<g>
				<g>
					<g>
						<g>
							<g>
								<path class="st107" d="M87.177,98.03H53.948V51.022c0-1.26,1.021-2.281,2.281-2.281h28.666c1.26,0,2.281,1.021,2.281,2.281
									V98.03z"/>
							</g>
						</g>
					</g>
				</g>
			</g>
		</g>
	</g>
	<g>
		<g>
			<g>
				<g>
					<g>
						<g>
							<g>
								<g>
									<path class="st86" d="M83.579,25.12c0-0.85-0.512-1.538-1.141-1.538l-5.293,1.147c-0.629,0-2.129,0.688-2.129,1.537v5.64
										c0,0.849,1.209,1.537,2.129,1.537c0.922,0,1.936-0.52,3.859-2.499C83.997,27.866,83.579,25.12,83.579,25.12z
										 M79.882,30.241c-1.197,1.231-1.826,1.553-2.4,1.553c-0.572,0-1.322,0.005-1.322-0.522v-4.382
										c0-0.528,0.932-0.512,1.322-0.512l3.201-1.146c0.391,0,0.709,0.428,0.709,0.956C81.392,26.187,81.741,28.327,79.882,30.241
										z"/>
								</g>
							</g>
						</g>
					</g>
				</g>
			</g>
			<g>
				<g>
					<g>
						<g>
							<g>
								<g>
									<path class="st86" d="M59.61,30.944c1.924,1.979,2.939,2.499,3.859,2.499s2.129-0.688,2.129-1.537v-5.64
										c0-0.849-1.498-1.537-2.129-1.537l-5.293-1.147c-0.629,0-1.139,0.688-1.139,1.538C57.038,25.12,56.618,27.866,59.61,30.944
										z M59.226,26.187c0-0.528,0.316-0.956,0.709-0.956l3.199,1.146c0.391,0,1.322-0.017,1.322,0.512v4.382
										c0,0.527-0.75,0.522-1.322,0.522s-1.203-0.321-2.398-1.553C58.874,28.327,59.226,26.187,59.226,26.187z"/>
								</g>
							</g>
						</g>
					</g>
				</g>
			</g>
			<g>
				<g>
					<g>
						<g>
							<g>
								<path class="st8" d="M77.53,25.885c0-1.229-0.996-2.228-2.227-2.228h-10.02c-1.23,0-2.227,0.998-2.227,2.228v6.557
									c0,0.05,0.004,0.1,0.008,0.15c-0.006,0.103-0.008,0.207-0.008,0.312c0,4.149,3.24,7.513,7.236,7.513
									s7.236-3.363,7.236-7.513c0-0.104-0.002-0.209-0.008-0.312c0.004-0.051,0.008-0.101,0.008-0.15V25.885z"/>
							</g>
						</g>
					</g>
				</g>
			</g>
			<g>
				<g>
					<g>
						<g>
							<g>
								<path class="st8" d="M72.427,46.034c0,1.153-0.934,2.088-2.086,2.088l0,0c-1.154,0-2.088-0.935-2.088-2.088l-1.33-6.648
									c0-1.153,2.264-2.088,3.418-2.088l0,0c1.152,0,3.418,0.935,3.418,2.088L72.427,46.034z"/>
							</g>
						</g>
					</g>
				</g>
			</g>
			<g>
				<g>
					<g>
						<g>
							<g>
								<g>
									<path class="st8" d="M75.304,47.38c0-1.826-2.242-2.877-5.01-2.877s-5.01,1.051-5.01,2.877c0,0.024,0,0.059,0,0.093h10.02
										C75.304,47.439,75.304,47.405,75.304,47.38z"/>
								</g>
							</g>
						</g>
					</g>
				</g>
				<g>
					<g>
						<g>
							<g>
								<g>
									<path class="st56" d="M66.825,48.709h6.938c0.852,0,1.541-0.454,1.541-1.113c0,0,0-0.061,0-0.123h-10.02
										c0,0.063,0,0.123,0,0.123C65.284,48.193,65.974,48.709,66.825,48.709z"/>
								</g>
							</g>
						</g>
					</g>
				</g>
			</g>
			<g>
				<g>
					<g>
						<g>
							<g>
								<ellipse class="st8" cx="70.341" cy="40.544" rx="4.129" ry="1.855"/>
							</g>
						</g>
					</g>
				</g>
			</g>
		</g>
		<g>
			<g>
				<g>
					<g>
						<g>
							<g>
								<path class="st67" d="M73.821,30.208c0,0.185-0.148,0.334-0.334,0.334h-6.426c-0.184,0-0.334-0.149-0.334-0.334v-3.057
									c0-0.183,0.15-0.332,0.334-0.332h6.426c0.186,0,0.334,0.149,0.334,0.332V30.208z"/>
							</g>
						</g>
					</g>
				</g>
			</g>
			<g>
				<g>
					<g>
						<g>
							<g>
								<path class="st107" d="M73.509,29.947c0,0.169-0.135,0.305-0.305,0.305h-5.859c-0.168,0-0.305-0.136-0.305-0.305V27.47
									c0-0.166,0.137-0.303,0.305-0.303h5.859c0.17,0,0.305,0.137,0.305,0.303V29.947z"/>
							</g>
						</g>
					</g>
				</g>
			</g>
			<g>
				<g>
					<g>
						<g>
							<g>
								<g>
									<path class="st67" d="M72.646,27.892c0,0.146-0.119,0.266-0.266,0.266h-4.344c-0.146,0-0.266-0.119-0.266-0.266l0,0
										c0-0.146,0.119-0.266,0.266-0.266h4.344C72.526,27.626,72.646,27.746,72.646,27.892L72.646,27.892z"/>
								</g>
							</g>
						</g>
					</g>
				</g>
				<g>
					<g>
						<g>
							<g>
								<g>
									<path class="st67" d="M72.646,29.548c0,0.146-0.119,0.266-0.266,0.266h-4.344c-0.146,0-0.266-0.119-0.266-0.266l0,0
										c0-0.146,0.119-0.266,0.266-0.266h4.344C72.526,29.283,72.646,29.402,72.646,29.548L72.646,29.548z"/>
								</g>
							</g>
						</g>
					</g>
				</g>
				<g>
					<g>
						<g>
							<g>
								<g>
									<path class="st67" d="M72.646,28.705c0,0.146-0.119,0.266-0.266,0.266h-4.344c-0.146,0-0.266-0.119-0.266-0.266l0,0
										c0-0.146,0.119-0.266,0.266-0.266h4.344C72.526,28.439,72.646,28.558,72.646,28.705L72.646,28.705z"/>
								</g>
							</g>
						</g>
					</g>
				</g>
			</g>
		</g>
	</g>
	<g>
		<g>
			<g>
				<g>
					<g>
						<g>
							<path class="st23" d="M69.323,64.899V56.29c-1.604,1.229-2.682,1.845-3.236,1.845c-0.266,0-0.5-0.105-0.705-0.317
								c-0.205-0.211-0.307-0.455-0.307-0.733c0-0.321,0.1-0.558,0.303-0.709c0.201-0.151,0.557-0.347,1.068-0.587
								c0.764-0.359,1.373-0.737,1.83-1.135s0.863-0.842,1.217-1.334s0.582-0.795,0.689-0.908s0.309-0.171,0.605-0.171
								c0.334,0,0.604,0.13,0.805,0.389s0.303,0.615,0.303,1.069V64.53c0,1.268-0.432,1.9-1.295,1.9
								c-0.387,0-0.695-0.129-0.928-0.387C69.438,65.785,69.323,65.403,69.323,64.899z"/>
						</g>
					</g>
				</g>
			</g>
		</g>
	</g>
</g>
</svg>
