<?xml version="1.0" encoding="utf-8"?>
<!-- Generator: Adobe Illustrator 16.0.0, SVG Export Plug-In . SVG Version: 6.00 Build 0)  -->
<!DOCTYPE svg PUBLIC "-//W3C//DTD SVG 1.1//EN" "http://www.w3.org/Graphics/SVG/1.1/DTD/svg11.dtd">
<svg version="1.1" id="Layer_1" xmlns="http://www.w3.org/2000/svg" xmlns:xlink="http://www.w3.org/1999/xlink" x="0px" y="0px"
	 width="136.833px" height="136.834px" viewBox="0 0 136.833 136.834" style="enable-background:new 0 0 136.833 136.834;"
	 xml:space="preserve">
<style type="text/css">
<![CDATA[
	.st0{fill:#4699A1;}
	.st1{fill:#473C30;}
	.st2{fill:#AAAAAA;}
	.st3{fill-rule:evenodd;clip-rule:evenodd;fill:#D7AF8F;}
	.st4{fill:#49596B;}
	.st5{fill:#7D3719;}
	.st6{fill:#49A0AE;}
	.st7{fill:#AFAFA3;}
	.st8{fill:#E3AA24;}
	.st9{fill:#4ABC96;}
	.st10{fill:#181E1D;}
	.st11{fill:#E6BE20;}
	.st12{fill:#E79E2D;}
	.st13{fill:#E7E7D6;}
	.st14{fill:#E84849;}
	.st15{fill:#E9C29C;}
	.st16{fill:#E9E9EA;}
	.st17{fill:#807F7F;}
	.st18{fill:#809598;}
	.st19{fill:#81725B;}
	.st20{fill:#B1D4D7;}
	.st21{fill:#83CECA;}
	.st22{fill:#B58755;}
	.st23{fill:#B6B6B7;}
	.st24{fill:#1D8D45;}
	.st25{fill:#1D9E49;}
	.st26{fill:#ECE1D0;}
	.st27{fill:#ECEDEA;}
	.st28{fill:#B9B9BA;}
	.st29{fill:#EDC92C;}
	.st30{fill:#1FA85B;}
	.st31{fill:#526B70;}
	.st32{fill:#575757;}
	.st33{fill:#BB5538;}
	.st34{fill:#8C402B;}
	.st35{fill:#8C5228;}
	.st36{fill:#BC992F;}
	.st37{fill:#8D8D8D;}
	.st38{fill-rule:evenodd;clip-rule:evenodd;fill:#E8C790;}
	.st39{fill:#8E6E52;}
	.st40{fill:#202121;}
	.st41{fill:#202B2D;}
	.st42{fill-rule:evenodd;clip-rule:evenodd;fill:#E9C29C;}
	.st43{fill:#BF8A67;}
	.st44{fill:#21AC4B;}
	.st45{fill:#BFBEBE;}
	.st46{fill:#BFC1A9;}
	.st47{fill:#242D2B;}
	.st48{fill:#F37C2A;}
	.st49{fill:#27636D;}
	.st50{fill:#5B4F3F;}
	.st51{fill:#28333B;}
	.st52{fill:#F6DA66;}
	.st53{fill-rule:evenodd;clip-rule:evenodd;fill:#ECE1D0;}
	.st54{fill:#5E5F5E;}
	.st55{fill:url(#SVGID_1_);}
	.st56{fill:#C48F2C;}
	.st57{fill:#2A3633;}
	.st58{fill:#2A646E;}
	.st59{fill:#C5C3AE;}
	.st60{fill:#2B2B2A;}
	.st61{fill:#606060;}
	.st62{fill-rule:evenodd;clip-rule:evenodd;fill:#BEBEBE;}
	.st63{fill:#FFFFFF;}
	.st64{fill-rule:evenodd;clip-rule:evenodd;fill:#F2E8D3;}
	.st65{fill:#65A844;}
	.st66{fill-rule:evenodd;clip-rule:evenodd;fill:#F5DFB5;}
	.st67{fill:#CBCBC5;}
	.st68{fill:#9E7C5A;}
	.st69{fill:#9E9F9F;}
	.st70{fill:#CDCCCB;}
	.st71{fill:#CDCDCE;}
	.st72{fill:#9F77AA;}
	.st73{fill:#327477;}
	.st74{fill:#333738;}
	.st75{fill:#343433;}
	.st76{fill:#344E5D;}
	.st77{fill:#357180;}
	.st78{fill:#36454F;}
	.st79{fill:#383939;}
	.st80{fill:#6C533E;}
	.st81{fill:#6CC077;}
	.st82{fill:#6D5D49;}
	.st83{fill:#6EC2CB;}
	.st84{fill:#6F8284;}
	.st85{fill:#028CA3;}
	.st86{fill:#D1962A;}
	.st87{fill:#D1AFD2;}
	.st88{fill:#036A7B;}
	.st89{fill:#039A88;}
	.st90{fill:#D3E8E9;}
	.st91{fill:#D5CEA9;}
	.st92{fill:#3B7F89;}
	.st93{fill:#D62127;}
	.st94{fill:#3C4D5B;}
	.st95{fill:#D7AE29;}
	.st96{fill:#D7B129;}
	.st97{fill:#D7D7BF;}
	.st98{fill:#D7D7D7;}
	.st99{fill:#D7DABA;}
	.st100{fill:#70BFC8;}
	.st101{fill:#A2D4DE;}
	.st102{fill:#A480B1;}
	.st103{fill:#A48A75;}
	.st104{fill:#786451;}
	.st105{fill:#DBF0F5;}
	.st106{fill:#797979;}
	.st107{fill:#DCDCC6;}
	.st108{fill:#DCDCD2;}
	.st109{fill:#DCDDD8;}
	.st110{fill:#DDDDDC;}
	.st111{fill:#DFBA24;}
	.st112{fill:#DFDFDF;}
	.st113{fill:#435364;}
	.st114{fill:#43B665;}
]]>
</style>
<g>
	<g>
		<g>
			<g>
				<g>
					<g>
						<circle class="st76" cx="68.417" cy="68.417" r="63.333"/>
					</g>
				</g>
			</g>
		</g>
	</g>
	<g>
		<g>
			<g>
				<g>
					<g>
						<g>
							<path class="st70" d="M93.273,46.749H8.888c-0.396,1.09-0.756,2.195-1.094,3.311h85.479V46.749z"/>
						</g>
					</g>
				</g>
			</g>
		</g>
		<g>
			<g>
				<g>
					<g>
						<g>
							<path class="st70" d="M12.783,63.304c0,0.676-0.15,1.314-0.408,1.895h80.898v-3.313H12.539
								C12.683,62.337,12.783,62.806,12.783,63.304z"/>
						</g>
					</g>
				</g>
			</g>
		</g>
		<g>
			<g>
				<g>
					<g>
						<g>
							<path class="st70" d="M11.957,77.505c0,0.705-0.168,1.369-0.449,1.969h81.766v-3.309H11.738
								C11.867,76.593,11.957,77.036,11.957,77.505z"/>
						</g>
					</g>
				</g>
			</g>
		</g>
		<g>
			<g>
				<g>
					<g>
						<g>
							<path class="st70" d="M11.541,91.237c0,0.748-0.191,1.445-0.504,2.07h82.236v-3.309h-81.92
								C11.462,90.396,11.541,90.806,11.541,91.237z"/>
						</g>
					</g>
				</g>
			</g>
		</g>
		<g>
			<g>
				<g>
					<g>
						<g>
							<path class="st70" d="M23.308,105.438c0,0.652-0.135,1.273-0.377,1.838h70.342v-3.313H23.048
								C23.205,104.431,23.308,104.921,23.308,105.438z"/>
						</g>
					</g>
				</g>
			</g>
		</g>
		<g>
			<g>
				<g>
					<g>
						<g>
							<path class="st70" d="M93.273,118.864H30.136c1.549,1.176,3.152,2.279,4.809,3.313h58.328V118.864z"/>
						</g>
					</g>
				</g>
			</g>
		</g>
	</g>
	<g>
		<g>
			<g>
				<g>
					<g>
						<g>
							<g>
								<g>
									<circle class="st14" cx="57.796" cy="48.403" r="4.67"/>
								</g>
							</g>
						</g>
					</g>
				</g>
				<g>
					<g>
						<g>
							<g>
								<g>
									<path class="st63" d="M54.07,49.159c-0.822-0.822-0.105-2.867,0.711-3.688c0.824-0.818,2.869-1.535,3.689-0.713
										C59.292,45.577,54.892,49.981,54.07,49.159z"/>
								</g>
							</g>
						</g>
					</g>
				</g>
			</g>
			<g>
				<g>
					<g>
						<g>
							<g>
								<g>
									<circle class="st14" cx="47.61" cy="48.403" r="4.669"/>
								</g>
							</g>
						</g>
					</g>
				</g>
				<g>
					<g>
						<g>
							<g>
								<g>
									<path class="st63" d="M43.888,49.159c-0.822-0.822-0.107-2.867,0.715-3.688c0.82-0.818,2.863-1.535,3.684-0.713
										C49.109,45.577,44.707,49.981,43.888,49.159z"/>
								</g>
							</g>
						</g>
					</g>
				</g>
			</g>
			<g>
				<g>
					<g>
						<g>
							<g>
								<g>
									<circle class="st14" cx="67.532" cy="48.403" r="4.669"/>
								</g>
							</g>
						</g>
					</g>
				</g>
				<g>
					<g>
						<g>
							<g>
								<g>
									<path class="st63" d="M63.808,49.159c-0.822-0.822-0.107-2.867,0.713-3.688c0.822-0.818,2.867-1.535,3.686-0.713
										C69.029,45.577,64.626,49.981,63.808,49.159z"/>
								</g>
							</g>
						</g>
					</g>
				</g>
			</g>
			<g>
				<g>
					<g>
						<g>
							<g>
								<g>
									<circle class="st14" cx="77.165" cy="48.403" r="4.671"/>
								</g>
							</g>
						</g>
					</g>
				</g>
				<g>
					<g>
						<g>
							<g>
								<g>
									<path class="st63" d="M73.441,49.159c-0.822-0.822-0.107-2.867,0.713-3.688c0.82-0.818,2.865-1.535,3.688-0.713
										C78.664,45.577,74.261,49.981,73.441,49.159z"/>
								</g>
							</g>
						</g>
					</g>
				</g>
			</g>
			<g>
				<g>
					<g>
						<g>
							<g>
								<g>
									<circle class="st14" cx="86.996" cy="48.403" r="4.67"/>
								</g>
							</g>
						</g>
					</g>
				</g>
				<g>
					<g>
						<g>
							<g>
								<g>
									<path class="st63" d="M83.271,49.159c-0.82-0.822-0.107-2.867,0.713-3.688c0.822-0.818,2.869-1.535,3.686-0.713
										C88.492,45.577,84.093,49.981,83.271,49.159z"/>
								</g>
							</g>
						</g>
					</g>
				</g>
			</g>
		</g>
		<g>
			<g>
				<g>
					<g>
						<g>
							<g>
								<g>
									<circle class="st14" cx="29.239" cy="63.304" r="4.669"/>
								</g>
							</g>
						</g>
					</g>
				</g>
				<g>
					<g>
						<g>
							<g>
								<g>
									<path class="st63" d="M25.513,64.056c-0.824-0.818-0.107-2.863,0.713-3.684c0.822-0.822,2.867-1.537,3.689-0.717
										C30.734,60.478,26.333,64.88,25.513,64.056z"/>
								</g>
							</g>
						</g>
					</g>
				</g>
			</g>
			<g>
				<g>
					<g>
						<g>
							<g>
								<g>
									<path class="st14" d="M14.384,63.304c0-2.578,2.092-4.67,4.672-4.67c2.576,0,4.668,2.092,4.668,4.67
										c0,2.58-2.092,4.668-4.668,4.668C16.476,67.972,14.384,65.884,14.384,63.304z"/>
								</g>
							</g>
						</g>
					</g>
				</g>
				<g>
					<g>
						<g>
							<g>
								<g>
									<path class="st63" d="M15.332,64.056c-0.824-0.818-0.107-2.863,0.713-3.684c0.822-0.822,2.865-1.537,3.688-0.717
										C20.55,60.478,16.152,64.88,15.332,64.056z"/>
								</g>
							</g>
						</g>
					</g>
				</g>
			</g>
			<g>
				<g>
					<g>
						<g>
							<g>
								<g>
									<circle class="st14" cx="67.532" cy="63.304" r="4.669"/>
								</g>
							</g>
						</g>
					</g>
				</g>
				<g>
					<g>
						<g>
							<g>
								<g>
									<path class="st63" d="M63.808,64.056c-0.822-0.818-0.107-2.863,0.713-3.684c0.822-0.822,2.867-1.537,3.686-0.717
										C69.029,60.478,64.626,64.88,63.808,64.056z"/>
								</g>
							</g>
						</g>
					</g>
				</g>
			</g>
			<g>
				<g>
					<g>
						<g>
							<g>
								<g>
									<circle class="st14" cx="77.165" cy="63.304" r="4.671"/>
								</g>
							</g>
						</g>
					</g>
				</g>
				<g>
					<g>
						<g>
							<g>
								<g>
									<path class="st63" d="M73.441,64.056c-0.822-0.818-0.107-2.863,0.713-3.684c0.82-0.822,2.865-1.537,3.688-0.717
										C78.664,60.478,74.261,64.88,73.441,64.056z"/>
								</g>
							</g>
						</g>
					</g>
				</g>
			</g>
			<g>
				<g>
					<g>
						<g>
							<g>
								<g>
									<circle class="st14" cx="86.996" cy="63.304" r="4.67"/>
								</g>
							</g>
						</g>
					</g>
				</g>
				<g>
					<g>
						<g>
							<g>
								<g>
									<path class="st63" d="M83.271,64.056c-0.82-0.818-0.107-2.863,0.713-3.684c0.822-0.822,2.869-1.537,3.686-0.717
										C88.492,60.478,84.093,64.88,83.271,64.056z"/>
								</g>
							</g>
						</g>
					</g>
				</g>
			</g>
		</g>
		<g>
			<g>
				<g>
					<g>
						<g>
							<g>
								<g>
									<path class="st14" d="M23.326,77.505c0-2.578,2.092-4.668,4.672-4.668c2.576,0,4.668,2.09,4.668,4.668
										c0,2.58-2.092,4.668-4.668,4.668C25.417,82.173,23.326,80.085,23.326,77.505z"/>
								</g>
							</g>
						</g>
					</g>
				</g>
				<g>
					<g>
						<g>
							<g>
								<g>
									<path class="st63" d="M24.271,78.259c-0.82-0.82-0.107-2.865,0.713-3.686c0.822-0.82,2.867-1.537,3.689-0.717
										C29.492,74.679,25.093,79.079,24.271,78.259z"/>
								</g>
							</g>
						</g>
					</g>
				</g>
			</g>
			<g>
				<g>
					<g>
						<g>
							<g>
								<g>
									<circle class="st14" cx="17.813" cy="77.505" r="4.671"/>
								</g>
							</g>
						</g>
					</g>
				</g>
				<g>
					<g>
						<g>
							<g>
								<g>
									<path class="st63" d="M14.087,78.259c-0.82-0.82-0.107-2.865,0.715-3.686s2.865-1.537,3.688-0.717
										C19.31,74.679,14.91,79.079,14.087,78.259z"/>
								</g>
							</g>
						</g>
					</g>
				</g>
			</g>
			<g>
				<g>
					<g>
						<g>
							<g>
								<g>
									<circle class="st14" cx="67.532" cy="77.505" r="4.669"/>
								</g>
							</g>
						</g>
					</g>
				</g>
				<g>
					<g>
						<g>
							<g>
								<g>
									<path class="st63" d="M63.808,78.259c-0.822-0.82-0.107-2.865,0.713-3.686c0.822-0.82,2.867-1.537,3.686-0.717
										C69.029,74.679,64.626,79.079,63.808,78.259z"/>
								</g>
							</g>
						</g>
					</g>
				</g>
			</g>
			<g>
				<g>
					<g>
						<g>
							<g>
								<g>
									<circle class="st14" cx="77.165" cy="77.505" r="4.671"/>
								</g>
							</g>
						</g>
					</g>
				</g>
				<g>
					<g>
						<g>
							<g>
								<g>
									<path class="st63" d="M73.441,78.259c-0.822-0.82-0.107-2.865,0.713-3.686s2.865-1.537,3.688-0.717
										C78.664,74.679,74.261,79.079,73.441,78.259z"/>
								</g>
							</g>
						</g>
					</g>
				</g>
			</g>
			<g>
				<g>
					<g>
						<g>
							<g>
								<g>
									<circle class="st14" cx="86.996" cy="77.505" r="4.67"/>
								</g>
							</g>
						</g>
					</g>
				</g>
				<g>
					<g>
						<g>
							<g>
								<g>
									<path class="st63" d="M83.271,78.259c-0.82-0.82-0.107-2.865,0.713-3.686c0.822-0.82,2.869-1.537,3.686-0.717
										C88.492,74.679,84.093,79.079,83.271,78.259z"/>
								</g>
							</g>
						</g>
					</g>
				</g>
			</g>
		</g>
		<g>
			<g>
				<g>
					<g>
						<g>
							<g>
								<g>
									<path class="st14" d="M53.126,91.237c0-2.576,2.09-4.668,4.668-4.668s4.672,2.092,4.672,4.668
										c0,2.582-2.094,4.672-4.672,4.672S53.126,93.819,53.126,91.237z"/>
								</g>
							</g>
						</g>
					</g>
				</g>
				<g>
					<g>
						<g>
							<g>
								<g>
									<path class="st63" d="M54.07,91.993c-0.822-0.82-0.105-2.867,0.711-3.686c0.824-0.82,2.869-1.537,3.689-0.715
										C59.292,88.413,54.892,92.815,54.07,91.993z"/>
								</g>
							</g>
						</g>
					</g>
				</g>
			</g>
			<g>
				<g>
					<g>
						<g>
							<g>
								<g>
									<path class="st14" d="M12.728,91.237c0-2.576,2.09-4.668,4.672-4.668c2.578,0,4.668,2.092,4.668,4.668
										c0,2.582-2.09,4.672-4.668,4.672C14.818,95.909,12.728,93.819,12.728,91.237z"/>
								</g>
							</g>
						</g>
					</g>
				</g>
				<g>
					<g>
						<g>
							<g>
								<g>
									<path class="st63" d="M13.675,91.993c-0.822-0.82-0.107-2.867,0.711-3.686c0.822-0.82,2.867-1.537,3.689-0.715
										C18.896,88.413,14.494,92.815,13.675,91.993z"/>
								</g>
							</g>
						</g>
					</g>
				</g>
			</g>
			<g>
				<g>
					<g>
						<g>
							<g>
								<g>
									<path class="st14" d="M62.863,91.237c0-2.576,2.09-4.668,4.668-4.668c2.58,0,4.67,2.092,4.67,4.668
										c0,2.582-2.09,4.672-4.67,4.672C64.953,95.909,62.863,93.819,62.863,91.237z"/>
								</g>
							</g>
						</g>
					</g>
				</g>
				<g>
					<g>
						<g>
							<g>
								<g>
									<path class="st63" d="M63.808,91.993c-0.822-0.82-0.107-2.867,0.713-3.686c0.822-0.82,2.867-1.537,3.686-0.715
										C69.029,88.413,64.626,92.815,63.808,91.993z"/>
								</g>
							</g>
						</g>
					</g>
				</g>
			</g>
			<g>
				<g>
					<g>
						<g>
							<g>
								<g>
									<path class="st14" d="M72.494,91.237c0-2.576,2.094-4.668,4.672-4.668s4.67,2.092,4.67,4.668
										c0,2.582-2.092,4.672-4.67,4.672S72.494,93.819,72.494,91.237z"/>
								</g>
							</g>
						</g>
					</g>
				</g>
				<g>
					<g>
						<g>
							<g>
								<g>
									<path class="st63" d="M73.441,91.993c-0.822-0.82-0.107-2.867,0.713-3.686c0.82-0.82,2.865-1.537,3.688-0.715
										C78.664,88.413,74.261,92.815,73.441,91.993z"/>
								</g>
							</g>
						</g>
					</g>
				</g>
			</g>
			<g>
				<g>
					<g>
						<g>
							<g>
								<g>
									<path class="st14" d="M82.326,91.237c0-2.576,2.092-4.668,4.67-4.668s4.67,2.092,4.67,4.668
										c0,2.582-2.092,4.672-4.67,4.672S82.326,93.819,82.326,91.237z"/>
								</g>
							</g>
						</g>
					</g>
				</g>
				<g>
					<g>
						<g>
							<g>
								<g>
									<path class="st63" d="M83.271,91.993c-0.82-0.82-0.107-2.867,0.713-3.686c0.822-0.82,2.869-1.537,3.686-0.715
										C88.492,88.413,84.093,92.815,83.271,91.993z"/>
								</g>
							</g>
						</g>
					</g>
				</g>
			</g>
		</g>
		<g>
			<g>
				<g>
					<g>
						<g>
							<g>
								<g>
									<path class="st14" d="M24.158,105.438c0-2.576,2.086-4.668,4.668-4.668c2.578,0,4.668,2.092,4.668,4.668
										c0,2.58-2.09,4.672-4.668,4.672C26.244,110.11,24.158,108.019,24.158,105.438z"/>
								</g>
							</g>
						</g>
					</g>
				</g>
				<g>
					<g>
						<g>
							<g>
								<g>
									<path class="st63" d="M25.099,106.192c-0.822-0.818-0.105-2.865,0.713-3.684c0.822-0.82,2.867-1.537,3.689-0.715
										C30.322,102.612,25.921,107.015,25.099,106.192z"/>
								</g>
							</g>
						</g>
					</g>
				</g>
			</g>
			<g>
				<g>
					<g>
						<g>
							<g>
								<g>
									<path class="st22" d="M97.238,42.313c-2.189,0-3.965,1.777-3.965,3.969v0.467v3.311v11.826v3.313v10.967v3.309v10.525
										v3.309v10.656v3.313v11.588v3.313v4.504c2.75-1.174,5.4-2.535,7.932-4.07V46.282
										C101.205,44.091,99.429,42.313,97.238,42.313z"/>
								</g>
							</g>
						</g>
					</g>
				</g>
				<g>
					<g>
						<g>
							<g>
								<g>
									<path class="st91" d="M12.539,61.886c-0.602-1.881-2.344-3.252-4.424-3.252c-0.869,0-1.672,0.254-2.369,0.666
										c-0.031,0.215-0.055,0.434-0.082,0.648c0.969-0.604,2.453-0.965,3.125-0.293c0.34,0.34-0.217,1.291-1.039,2.23
										c-0.766,0.877-1.76,1.738-2.494,2.096c-0.029,0.406-0.07,0.809-0.092,1.217c-0.027,0.551-0.027,1.107-0.041,1.662
										c0.813,0.684,1.848,1.111,2.992,1.111c1.902,0,3.531-1.141,4.26-2.773c0.258-0.58,0.408-1.219,0.408-1.895
										C12.783,62.806,12.683,62.337,12.539,61.886z"/>
								</g>
							</g>
						</g>
					</g>
				</g>
				<g>
					<g>
						<g>
							<g>
								<g>
									<path class="st63" d="M8.789,59.655c-0.672-0.672-2.156-0.311-3.125,0.293c-0.086,0.645-0.18,1.287-0.246,1.938
										c-0.072,0.693-0.115,1.396-0.162,2.096c0.734-0.357,1.729-1.219,2.494-2.096C8.572,60.946,9.128,59.995,8.789,59.655z"/>
								</g>
							</g>
						</g>
					</g>
				</g>
				<g>
					<g>
						<g>
							<g>
								<g>
									<path class="st91" d="M11.738,76.165c-0.58-1.92-2.342-3.328-4.451-3.328c-0.719,0-1.391,0.176-1.998,0.465
										c0.016,0.193,0.027,0.389,0.045,0.584c0.926-0.424,2.066-0.594,2.629-0.029c0.348,0.35-0.248,1.344-1.109,2.309
										c-0.352,0.395-0.744,0.781-1.139,1.121c0.104,0.732,0.223,1.461,0.35,2.188c0.156,0.883,0.326,1.758,0.518,2.627
										c0.232,0.037,0.463,0.072,0.705,0.072c1.871,0,3.477-1.107,4.221-2.699c0.281-0.6,0.449-1.264,0.449-1.969
										C11.957,77.036,11.867,76.593,11.738,76.165z"/>
								</g>
							</g>
						</g>
					</g>
				</g>
				<g>
					<g>
						<g>
							<g>
								<g>
									<path class="st63" d="M7.962,73.856c-0.563-0.564-1.703-0.395-2.629,0.029c0.064,0.764,0.146,1.523,0.238,2.279
										c0.045,0.375,0.09,0.748,0.143,1.121c0.395-0.34,0.787-0.727,1.139-1.121C7.714,75.2,8.31,74.206,7.962,73.856z"/>
								</g>
							</g>
						</g>
					</g>
				</g>
				<g>
					<g>
						<g>
							<g>
								<g>
									<path class="st91" d="M11.353,89.999c-0.469-1.691-1.85-3.002-3.59-3.34c0.338,1.127,0.699,2.24,1.098,3.34
										c0.404,1.117,0.842,2.221,1.307,3.309c0.115,0.27,0.244,0.533,0.363,0.801c0.193-0.248,0.363-0.516,0.506-0.801
										c0.313-0.625,0.504-1.322,0.504-2.07C11.541,90.806,11.462,90.396,11.353,89.999z"/>
								</g>
							</g>
						</g>
					</g>
				</g>
				<g>
					<g>
						<g>
							<g>
								<g>
									<path class="st14" d="M23.048,103.964c-0.619-1.85-2.346-3.193-4.406-3.193c-1.457,0-2.74,0.682-3.596,1.725
										c0.086,0.137,0.174,0.273,0.262,0.41c0.104-0.15,0.211-0.287,0.322-0.396c0.822-0.82,2.865-1.537,3.688-0.715
										c0.332,0.332-0.195,1.25-0.99,2.17c-0.412,0.479-0.893,0.953-1.369,1.352c0.477,0.664,0.965,1.318,1.465,1.961
										c0.656,0.84,1.33,1.664,2.025,2.471c1.115-0.469,2.008-1.359,2.482-2.471c0.242-0.564,0.377-1.186,0.377-1.838
										C23.308,104.921,23.205,104.431,23.048,103.964z"/>
								</g>
							</g>
						</g>
					</g>
				</g>
				<g>
					<g>
						<g>
							<g>
								<g>
									<path class="st63" d="M19.318,101.794c-0.822-0.822-2.865-0.105-3.688,0.715c-0.111,0.109-0.219,0.246-0.322,0.396
										c0.23,0.354,0.453,0.711,0.689,1.059c0.311,0.459,0.639,0.902,0.961,1.352c0.477-0.398,0.957-0.873,1.369-1.352
										C19.123,103.044,19.65,102.126,19.318,101.794z"/>
								</g>
							</g>
						</g>
					</g>
				</g>
			</g>
			<g>
				<g>
					<g>
						<g>
							<g>
								<g>
									<path class="st14" d="M33.892,105.438c0-2.576,2.09-4.668,4.668-4.668c2.582,0,4.67,2.092,4.67,4.668
										c0,2.58-2.088,4.672-4.67,4.672C35.982,110.11,33.892,108.019,33.892,105.438z"/>
								</g>
							</g>
						</g>
					</g>
				</g>
				<g>
					<g>
						<g>
							<g>
								<g>
									<path class="st63" d="M34.837,106.192c-0.822-0.818-0.105-2.865,0.713-3.684c0.822-0.82,2.865-1.537,3.688-0.715
										C40.058,102.612,35.658,107.015,34.837,106.192z"/>
								</g>
							</g>
						</g>
					</g>
				</g>
			</g>
			<g>
				<g>
					<g>
						<g>
							<g>
								<g>
									<path class="st14" d="M43.525,105.438c0-2.576,2.092-4.668,4.668-4.668c2.582,0,4.67,2.092,4.67,4.668
										c0,2.58-2.088,4.672-4.67,4.672C45.617,110.11,43.525,108.019,43.525,105.438z"/>
								</g>
							</g>
						</g>
					</g>
				</g>
				<g>
					<g>
						<g>
							<g>
								<g>
									<path class="st63" d="M44.47,106.192c-0.822-0.818-0.107-2.865,0.715-3.684c0.82-0.82,2.865-1.537,3.686-0.715
										C49.693,102.612,45.292,107.015,44.47,106.192z"/>
								</g>
							</g>
						</g>
					</g>
				</g>
			</g>
			<g>
				<g>
					<g>
						<g>
							<g>
								<g>
									<circle class="st14" cx="86.996" cy="105.438" r="4.67"/>
								</g>
							</g>
						</g>
					</g>
				</g>
				<g>
					<g>
						<g>
							<g>
								<g>
									<path class="st63" d="M83.271,106.192c-0.82-0.818-0.107-2.865,0.713-3.684c0.822-0.82,2.869-1.537,3.686-0.715
										C88.492,102.612,84.093,107.015,83.271,106.192z"/>
								</g>
							</g>
						</g>
					</g>
				</g>
			</g>
		</g>
		<g>
			<g>
				<g>
					<g>
						<g>
							<g>
								<path class="st91" d="M52.218,120.21c0-2.576,2.09-4.67,4.67-4.67c2.578,0,4.67,2.094,4.67,4.67
									c0,2.58-2.092,4.67-4.67,4.67C54.308,124.88,52.218,122.79,52.218,120.21z"/>
							</g>
						</g>
					</g>
				</g>
			</g>
			<g>
				<g>
					<g>
						<g>
							<g>
								<path class="st63" d="M53.164,120.964c-0.822-0.818-0.107-2.867,0.711-3.686c0.822-0.82,2.869-1.535,3.689-0.713
									C58.386,117.386,53.982,121.786,53.164,120.964z"/>
							</g>
						</g>
					</g>
				</g>
			</g>
		</g>
		<g>
			<g>
				<g>
					<g>
						<g>
							<g>
								<path class="st91" d="M42.416,120.21c0-2.576,2.092-4.67,4.674-4.67c2.574,0,4.666,2.094,4.666,4.67
									c0,2.58-2.092,4.67-4.666,4.67C44.507,124.88,42.416,122.79,42.416,120.21z"/>
							</g>
						</g>
					</g>
				</g>
			</g>
			<g>
				<g>
					<g>
						<g>
							<g>
								<path class="st63" d="M43.363,120.964c-0.822-0.818-0.107-2.867,0.715-3.686c0.822-0.82,2.865-1.535,3.684-0.713
									C48.583,117.386,44.183,121.786,43.363,120.964z"/>
							</g>
						</g>
					</g>
				</g>
			</g>
		</g>
		<g>
			<g>
				<g>
					<g>
						<g>
							<g>
								<path class="st91" d="M62.312,120.21c0-2.576,2.092-4.67,4.67-4.67s4.67,2.094,4.67,4.67c0,2.58-2.092,4.67-4.67,4.67
									S62.312,122.79,62.312,120.21z"/>
							</g>
						</g>
					</g>
				</g>
			</g>
			<g>
				<g>
					<g>
						<g>
							<g>
								<path class="st63" d="M63.257,120.964c-0.82-0.818-0.107-2.867,0.715-3.686c0.822-0.82,2.865-1.535,3.688-0.713
									C68.478,117.386,64.08,121.786,63.257,120.964z"/>
							</g>
						</g>
					</g>
				</g>
			</g>
		</g>
		<g>
			<g>
				<g>
					<g>
						<g>
							<g>
								<path class="st91" d="M72.386,120.21c0-2.576,2.092-4.67,4.668-4.67c2.58,0,4.672,2.094,4.672,4.67
									c0,2.58-2.092,4.67-4.672,4.67C74.478,124.88,72.386,122.79,72.386,120.21z"/>
							</g>
						</g>
					</g>
				</g>
			</g>
			<g>
				<g>
					<g>
						<g>
							<g>
								<path class="st63" d="M73.332,120.964c-0.822-0.818-0.107-2.867,0.715-3.686c0.818-0.82,2.865-1.535,3.684-0.713
									C78.552,117.386,74.154,121.786,73.332,120.964z"/>
							</g>
						</g>
					</g>
				</g>
			</g>
		</g>
		<g>
			<g>
				<g>
					<g>
						<g>
							<g>
								<path class="st91" d="M82.488,120.21c0-2.576,2.092-4.67,4.668-4.67c2.58,0,4.672,2.094,4.672,4.67
									c0,2.58-2.092,4.67-4.672,4.67C84.58,124.88,82.488,122.79,82.488,120.21z"/>
							</g>
						</g>
					</g>
				</g>
			</g>
			<g>
				<g>
					<g>
						<g>
							<g>
								<path class="st63" d="M83.433,120.964c-0.822-0.818-0.107-2.867,0.713-3.686c0.824-0.82,2.867-1.535,3.686-0.713
									C88.654,117.386,84.255,121.786,83.433,120.964z"/>
							</g>
						</g>
					</g>
				</g>
			</g>
		</g>
	</g>
</g>
</svg>
