<?xml version="1.0" encoding="utf-8"?>
<!-- Generator: Adobe Illustrator 16.0.0, SVG Export Plug-In . SVG Version: 6.00 Build 0)  -->
<!DOCTYPE svg PUBLIC "-//W3C//DTD SVG 1.1//EN" "http://www.w3.org/Graphics/SVG/1.1/DTD/svg11.dtd">
<svg version="1.1" id="Layer_1" xmlns="http://www.w3.org/2000/svg" xmlns:xlink="http://www.w3.org/1999/xlink" x="0px" y="0px"
	 width="136.833px" height="136.833px" viewBox="0 0 136.833 136.833" style="enable-background:new 0 0 136.833 136.833;"
	 xml:space="preserve">
<style type="text/css">
<![CDATA[
	.st0{fill:#4699A1;}
	.st1{fill:#473C30;}
	.st2{fill:#AAAAAA;}
	.st3{fill-rule:evenodd;clip-rule:evenodd;fill:#D7AF8F;}
	.st4{fill:#49596B;}
	.st5{fill:#7D3719;}
	.st6{fill:#49A0AE;}
	.st7{fill:#AFAFA3;}
	.st8{fill:#E3AA24;}
	.st9{fill:#4ABC96;}
	.st10{fill:#181E1D;}
	.st11{fill:#E6BE20;}
	.st12{fill:#E79E2D;}
	.st13{fill:#E7E7D6;}
	.st14{fill:#E84849;}
	.st15{fill:#E9C29C;}
	.st16{fill:#E9E9EA;}
	.st17{fill:#807F7F;}
	.st18{fill:#809598;}
	.st19{fill:#81725B;}
	.st20{fill:#B1D4D7;}
	.st21{fill:#83CECA;}
	.st22{fill:#B58755;}
	.st23{fill:#B6B6B7;}
	.st24{fill:#1D8D45;}
	.st25{fill:#1D9E49;}
	.st26{fill:#ECE1D0;}
	.st27{fill:#ECEDEA;}
	.st28{fill:#B9B9BA;}
	.st29{fill:#EDC92C;}
	.st30{fill:#1FA85B;}
	.st31{fill:#526B70;}
	.st32{fill:#575757;}
	.st33{fill:#BB5538;}
	.st34{fill:#8C402B;}
	.st35{fill:#8C5228;}
	.st36{fill:#BC992F;}
	.st37{fill:#8D8D8D;}
	.st38{fill-rule:evenodd;clip-rule:evenodd;fill:#E8C790;}
	.st39{fill:#8E6E52;}
	.st40{fill:#202121;}
	.st41{fill:#202B2D;}
	.st42{fill-rule:evenodd;clip-rule:evenodd;fill:#E9C29C;}
	.st43{fill:#BF8A67;}
	.st44{fill:#21AC4B;}
	.st45{fill:#BFBEBE;}
	.st46{fill:#BFC1A9;}
	.st47{fill:#242D2B;}
	.st48{fill:#F37C2A;}
	.st49{fill:#27636D;}
	.st50{fill:#5B4F3F;}
	.st51{fill:#28333B;}
	.st52{fill:#F6DA66;}
	.st53{fill-rule:evenodd;clip-rule:evenodd;fill:#ECE1D0;}
	.st54{fill:#5E5F5E;}
	.st55{fill:url(#SVGID_1_);}
	.st56{fill:#C48F2C;}
	.st57{fill:#2A3633;}
	.st58{fill:#2A646E;}
	.st59{fill:#C5C3AE;}
	.st60{fill:#2B2B2A;}
	.st61{fill:#606060;}
	.st62{fill-rule:evenodd;clip-rule:evenodd;fill:#BEBEBE;}
	.st63{fill:#FFFFFF;}
	.st64{fill-rule:evenodd;clip-rule:evenodd;fill:#F2E8D3;}
	.st65{fill:#65A844;}
	.st66{fill-rule:evenodd;clip-rule:evenodd;fill:#F5DFB5;}
	.st67{fill:#CBCBC5;}
	.st68{fill:#9E7C5A;}
	.st69{fill:#9E9F9F;}
	.st70{fill:#CDCCCB;}
	.st71{fill:#CDCDCE;}
	.st72{fill:#9F77AA;}
	.st73{fill:#327477;}
	.st74{fill:#333738;}
	.st75{fill:#343433;}
	.st76{fill:#344E5D;}
	.st77{fill:#357180;}
	.st78{fill:#36454F;}
	.st79{fill:#383939;}
	.st80{fill:#6C533E;}
	.st81{fill:#6CC077;}
	.st82{fill:#6D5D49;}
	.st83{fill:#6EC2CB;}
	.st84{fill:#6F8284;}
	.st85{fill:#028CA3;}
	.st86{fill:#D1962A;}
	.st87{fill:#D1AFD2;}
	.st88{fill:#036A7B;}
	.st89{fill:#039A88;}
	.st90{fill:#D3E8E9;}
	.st91{fill:#D5CEA9;}
	.st92{fill:#3B7F89;}
	.st93{fill:#D62127;}
	.st94{fill:#3C4D5B;}
	.st95{fill:#D7AE29;}
	.st96{fill:#D7B129;}
	.st97{fill:#D7D7BF;}
	.st98{fill:#D7D7D7;}
	.st99{fill:#D7DABA;}
	.st100{fill:#70BFC8;}
	.st101{fill:#A2D4DE;}
	.st102{fill:#A480B1;}
	.st103{fill:#A48A75;}
	.st104{fill:#786451;}
	.st105{fill:#DBF0F5;}
	.st106{fill:#797979;}
	.st107{fill:#DCDCC6;}
	.st108{fill:#DCDCD2;}
	.st109{fill:#DCDDD8;}
	.st110{fill:#DDDDDC;}
	.st111{fill:#DFBA24;}
	.st112{fill:#DFDFDF;}
	.st113{fill:#435364;}
	.st114{fill:#43B665;}
]]>
</style>
<g>
	<g>
		<g>
			<g>
				<g>
					<g>
						<g>
							<circle class="st99" cx="68.416" cy="68.417" r="63.333"/>
						</g>
					</g>
				</g>
			</g>
		</g>
	</g>
	<g>
		<g>
			<g>
				<g>
					<g>
						<g>
							<g>
								<path class="st77" d="M87.812,61.759c0,1.26-1.021,2.281-2.281,2.281H51.563c-1.26,0-2.281-1.021-2.281-2.281V27.793
									c0-1.26,1.021-2.281,2.281-2.281H85.53c1.26,0,2.281,1.021,2.281,2.281V61.759z"/>
							</g>
						</g>
					</g>
				</g>
			</g>
			<g>
				<g>
					<g>
						<g>
							<g>
								<g>
									<path class="st27" d="M75.479,54.084l-1.289-3.386H63.222l-1.287,3.46c-0.504,1.35-0.934,2.261-1.289,2.732
										c-0.355,0.473-0.938,0.709-1.748,0.709c-0.688,0-1.295-0.252-1.822-0.755s-0.791-1.073-0.791-1.711
										c0-0.368,0.061-0.748,0.184-1.142c0.123-0.392,0.326-0.938,0.607-1.638l6.902-17.521c0.195-0.503,0.432-1.107,0.709-1.813
										c0.275-0.706,0.57-1.292,0.883-1.758s0.725-0.844,1.232-1.132c0.51-0.288,1.139-0.433,1.887-0.433
										c0.76,0,1.396,0.145,1.904,0.433c0.51,0.288,0.92,0.66,1.234,1.113c0.313,0.454,0.576,0.942,0.791,1.463
										c0.215,0.522,0.488,1.218,0.818,2.089l7.049,17.41c0.553,1.325,0.828,2.289,0.828,2.89c0,0.626-0.26,1.199-0.783,1.721
										c-0.52,0.521-1.148,0.782-1.885,0.782c-0.43,0-0.799-0.076-1.105-0.23c-0.307-0.152-0.564-0.361-0.771-0.626
										c-0.209-0.263-0.434-0.668-0.672-1.214C75.856,54.984,75.651,54.502,75.479,54.084z M64.657,46.595h8.063L68.651,35.46
										L64.657,46.595z"/>
								</g>
							</g>
						</g>
					</g>
				</g>
			</g>
		</g>
		<g>
			<g>
				<g>
					<g>
						<g>
							<g>
								<path class="st93" d="M67.519,101.988c0,1.26-1.023,2.281-2.281,2.281H31.271c-1.26,0-2.281-1.021-2.281-2.281V68.022
									c0-1.26,1.021-2.281,2.281-2.281h33.967c1.258,0,2.281,1.021,2.281,2.281V101.988z"/>
							</g>
						</g>
					</g>
				</g>
			</g>
			<g>
				<g>
					<g>
						<g>
							<g>
								<g>
									<path class="st27" d="M49.442,98.206h-8.244c-1.191,0-2.041-0.267-2.549-0.801c-0.51-0.533-0.764-1.383-0.764-2.549V74.575
										c0-1.189,0.26-2.045,0.781-2.567c0.521-0.521,1.365-0.781,2.531-0.781h8.742c1.287,0,2.404,0.08,3.348,0.239
										c0.945,0.159,1.791,0.466,2.541,0.919c0.637,0.382,1.201,0.862,1.693,1.445c0.49,0.583,0.865,1.228,1.121,1.933
										c0.258,0.706,0.387,1.451,0.387,2.236c0,2.699-1.35,4.674-4.049,5.926c3.547,1.129,5.32,3.325,5.32,6.589
										c0,1.509-0.389,2.867-1.16,4.076c-0.773,1.208-1.816,2.102-3.129,2.678c-0.822,0.344-1.768,0.586-2.834,0.727
										C52.11,98.135,50.866,98.206,49.442,98.206z M43.351,75.33v6.976h5.006c1.363,0,2.414-0.13,3.156-0.387
										c0.742-0.258,1.311-0.748,1.703-1.472c0.307-0.516,0.459-1.093,0.459-1.731c0-1.36-0.484-2.267-1.453-2.714
										c-0.971-0.448-2.447-0.672-4.436-0.672H43.351z M49.038,86.224h-5.688v7.877h5.871c3.693,0,5.539-1.331,5.539-3.993
										c0-1.361-0.479-2.349-1.436-2.963C52.37,86.533,50.938,86.224,49.038,86.224z"/>
								</g>
							</g>
						</g>
					</g>
				</g>
			</g>
		</g>
		<g>
			<g>
				<g>
					<g>
						<g>
							<g>
								<path class="st65" d="M108.104,101.988c0,1.26-1.021,2.281-2.281,2.281H71.858c-1.26,0-2.281-1.021-2.281-2.281V68.022
									c0-1.26,1.021-2.281,2.281-2.281h33.965c1.26,0,2.281,1.021,2.281,2.281V101.988z"/>
							</g>
						</g>
					</g>
				</g>
			</g>
			<g>
				<g>
					<g>
						<g>
							<g>
								<g>
									<path class="st27" d="M100.821,90.801c0,0.86-0.213,1.789-0.635,2.789c-0.424,1-1.09,1.981-1.998,2.944
										c-0.908,0.964-2.066,1.745-3.477,2.347c-1.412,0.602-3.057,0.901-4.934,0.901c-1.424,0-2.717-0.135-3.883-0.404
										s-2.225-0.69-3.174-1.261c-0.953-0.57-1.826-1.322-2.625-2.255c-0.711-0.847-1.318-1.794-1.82-2.843
										c-0.504-1.05-0.881-2.169-1.133-3.358c-0.25-1.19-0.377-2.454-0.377-3.792c0-2.171,0.316-4.116,0.949-5.834
										c0.631-1.718,1.535-3.187,2.713-4.408c1.18-1.22,2.559-2.149,4.141-2.788c1.584-0.637,3.27-0.957,5.063-0.957
										c2.184,0,4.129,0.437,5.834,1.308s3.012,1.947,3.92,3.229c0.906,1.282,1.361,2.494,1.361,3.635
										c0,0.626-0.221,1.178-0.662,1.656s-0.977,0.718-1.602,0.718c-0.699,0-1.223-0.166-1.574-0.496
										c-0.35-0.332-0.738-0.902-1.168-1.712c-0.713-1.338-1.549-2.337-2.512-3c-0.963-0.662-2.15-0.994-3.563-0.994
										c-2.244,0-4.033,0.853-5.363,2.559c-1.332,1.705-1.998,4.129-1.998,7.27c0,2.098,0.295,3.843,0.883,5.235
										c0.59,1.393,1.424,2.433,2.504,3.119c1.08,0.688,2.344,1.03,3.791,1.03c1.57,0,2.898-0.389,3.984-1.168
										s1.906-1.924,2.457-3.432c0.232-0.712,0.521-1.292,0.865-1.74c0.344-0.447,0.896-0.671,1.656-0.671
										c0.65,0,1.209,0.228,1.674,0.681C100.587,89.563,100.821,90.127,100.821,90.801z"/>
								</g>
							</g>
						</g>
					</g>
				</g>
			</g>
		</g>
	</g>
</g>
</svg>
