<?xml version="1.0" encoding="utf-8"?>
<!-- Generator: Adobe Illustrator 16.0.0, SVG Export Plug-In . SVG Version: 6.00 Build 0)  -->
<!DOCTYPE svg PUBLIC "-//W3C//DTD SVG 1.1//EN" "http://www.w3.org/Graphics/SVG/1.1/DTD/svg11.dtd">
<svg version="1.1" id="Layer_1" xmlns="http://www.w3.org/2000/svg" xmlns:xlink="http://www.w3.org/1999/xlink" x="0px" y="0px"
	 width="136.833px" height="136.834px" viewBox="0 0 136.833 136.834" style="enable-background:new 0 0 136.833 136.834;"
	 xml:space="preserve">
<style type="text/css">
<![CDATA[
	.st0{fill:#7A5628;}
	.st1{fill:#49A0AE;}
	.st2{fill:#ACA8A9;}
	.st3{fill:#7DB6B7;}
	.st4{fill:#11100E;}
	.st5{fill:#7FCDCC;}
	.st6{fill:#E0DAD2;}
	.st7{fill:#E1E1E1;}
	.st8{fill:#13B3CA;}
	.st9{fill:#E3E4E5;}
	.st10{fill:#15B5AC;}
	.st11{fill:#E4B894;}
	.st12{fill:#E4C88F;}
	.st13{fill:#E4DED0;}
	.st14{fill:#4A86C5;}
	.st15{fill:#4ABC96;}
	.st16{fill:#171413;}
	.st17{fill:#E5CE27;}
	.st18{fill:#187070;}
	.st19{fill:#E7CB7C;}
	.st20{fill:#E7DDB3;}
	.st21{fill:#E7E9EA;}
	.st22{fill:#E84849;}
	.st23{fill:#E89423;}
	.st24{fill:#E8CC7C;}
	.st25{fill:#E8EAEB;}
	.st26{fill:#E97539;}
	.st27{fill:#E9C29C;}
	.st28{fill:#E9DC96;}
	.st29{fill:#B16E29;}
	.st30{opacity:0.01;}
	.st31{opacity:0.45;}
	.st32{fill:#1A1919;}
	.st33{fill:#B69B30;}
	.st34{fill:#EADD97;}
	.st35{fill:#EB9682;}
	.st36{fill:#B7B7B7;}
	.st37{fill:#EBD9A9;}
	.st38{fill:#1DA049;}
	.st39{fill:#1E1913;}
	.st40{fill:#1E1B17;}
	.st41{fill:#ECDAAA;}
	.st42{fill:#ECE6D5;}
	.st43{fill:#ED3351;}
	.st44{fill:#B9B9BA;}
	.st45{fill:#EDECED;}
	.st46{fill:#1FA85B;}
	.st47{fill:#EEE17F;}
	.st48{fill:#EEE4B8;}
	.st49{fill-rule:evenodd;clip-rule:evenodd;fill:#7FCDCC;}
	.st50{fill:#515252;}
	.st51{fill:#543A1A;}
	.st52{fill:#BB2025;}
	.st53{fill:#8C652E;}
	.st54{fill:#8C8C8C;}
	.st55{fill:#212121;}
	.st56{fill:#BF2126;}
	.st57{fill:#BFBEBE;}
	.st58{fill:#F0C418;}
	.st59{fill:#F0CF6A;}
	.st60{fill:#F0E3C8;}
	.st61{fill:#F1D069;}
	.st62{fill:#F1E4C8;}
	.st63{fill:#F2D083;}
	.st64{fill:#F3BB70;}
	.st65{fill:#F3C715;}
	.st66{fill:#F3D183;}
	.st67{fill:#258C8E;}
	.st68{fill:#25999B;}
	.st69{fill:#F4E028;}
	.st70{fill:#F59798;}
	.st71{fill:#F5DE57;}
	.st72{fill:#F6A2A3;}
	.st73{fill:#F6F7F7;}
	.st74{fill:#28999B;}
	.st75{fill:#F7DF56;}
	.st76{fill:#29A5AE;}
	.st77{fill:#F8B85C;}
	.st78{fill:#F8D648;}
	.st79{fill:#F8DC62;}
	.st80{fill:#F8E69B;}
	.st81{fill:#F8E9AB;}
	.st82{fill:#F8F3DC;}
	.st83{fill:#F9A11C;}
	.st84{fill:#F9A72F;}
	.st85{fill:#F9A731;}
	.st86{fill:#F9E478;}
	.st87{fill:#F9EC34;}
	.st88{fill:#92C7CB;}
	.st89{fill:#93574E;}
	.st90{fill:#939291;}
	.st91{fill:#C2D2D3;}
	.st92{fill:#C42126;}
	.st93{fill:#C47267;}
	.st94{fill:#C4C3C3;}
	.st95{fill:#C5A72E;}
	.st96{fill:#2B2B2B;}
	.st97{fill:#2B5C64;}
	.st98{fill:#FACB83;}
	.st99{fill:#2D2D2D;}
	.st100{fill:#FBEC68;}
	.st101{fill:#2D646D;}
	.st102{fill:#FBF3CE;}
	.st103{fill:#C8802A;}
	.st104{fill:#99999A;}
	.st105{fill:#C8C8C8;}
	.st106{fill-rule:evenodd;clip-rule:evenodd;fill:#59A29F;}
	.st107{fill:#99CED5;}
	.st108{fill:#FDF3D0;}
	.st109{fill:#2F8442;}
	.st110{fill:#60441D;}
	.st111{opacity:0.5;}
	.st112{opacity:0.6;}
	.st113{opacity:0.8;}
	.st114{fill:#FFCE80;}
	.st115{fill:#FFEBBF;}
	.st116{fill:#FFEEA5;}
	.st117{fill:#FFFFFA;}
	.st118{fill:#FFFFFF;}
	.st119{fill:#644421;}
	.st120{fill:none;}
	.st121{fill:#65A844;}
	.st122{fill:#CB4645;}
	.st123{fill:#69C8CF;}
	.st124{fill:#CCCBCB;}
	.st125{fill:#30302F;}
	.st126{fill:#9F7534;}
	.st127{fill:#9F77AA;}
	.st128{fill:#CECECD;}
	.st129{fill:#CECFD0;}
	.st130{fill:#336C75;}
	.st131{fill:#343433;}
	.st132{fill:#344E5D;}
	.st133{fill:#353535;}
	.st134{fill:#357180;}
	.st135{fill:#377CA5;}
	.st136{fill:#383939;}
	.st137{fill-rule:evenodd;clip-rule:evenodd;fill:#97D6D5;}
	.st138{fill:#388388;}
	.st139{fill:#6E5538;}
	.st140{fill:#00A79E;}
	.st141{fill:#D0A288;}
	.st142{fill:#D0E8D0;}
	.st143{fill:#D1AF2B;}
	.st144{fill:#D2B488;}
	.st145{fill:#D2D2D2;}
	.st146{fill-rule:evenodd;clip-rule:evenodd;fill:#63AAA5;}
	.st147{fill:#D3B85F;}
	.st148{fill:#D3B95F;}
	.st149{fill:#D3D3D3;}
	.st150{fill:#D54027;}
	.st151{fill:#3AB780;}
	.st152{fill:#D5BA8A;}
	.st153{fill:#D62127;}
	.st154{fill:#D68936;}
	.st155{fill:#3CB881;}
	.st156{fill:#D7D7D7;}
	.st157{fill:#D7DABA;}
	.st158{fill:#D8D8D7;}
	.st159{fill:#714D22;}
	.st160{fill:#A0D9DC;}
	.st161{fill:#A2D4DE;}
	.st162{fill:#A46434;}
	.st163{fill:#A4A4A4;}
	.st164{fill:#A6A5A5;}
	.st165{fill:#DAA9A3;}
	.st166{fill:#DBBA33;}
	.st167{fill:#DBD3BB;}
	.st168{fill:#DBDDDC;}
	.st169{fill:#DCBF8D;}
	.st170{fill:#DCC172;}
	.st171{fill:#DCDFE0;}
	.st172{fill:#DDC272;}
	.st173{fill:#DDD2A5;}
	.st174{fill:#DDDDDC;}
	.st175{fill:#DDDFE0;}
	.st176{fill:#414141;}
	.st177{fill:#DFC191;}
	.st178{fill:#DFDDDC;}
	.st179{fill:#DFE0E0;}
	.st180{fill:#DFE0E1;}
]]>
</style>
<g>
	<g>
		<g>
			<g>
				<g>
					<g>
						<circle class="st155" cx="68.416" cy="68.417" r="63.333"/>
					</g>
				</g>
			</g>
		</g>
	</g>
	<g>
		<g>
			<path class="st82" d="M32.052,95.991c-0.389-8.198,1.104-22.072,1.104-22.072l71.279-6.575c0,0,0.564,15.052-1.684,25.34
				C101.835,96.865,32.179,98.679,32.052,95.991z"/>
		</g>
		<g>
			<path class="st48" d="M32.257,86.806c0-5.894,0.898-12.888,0.898-12.888l71.279-6.575c0,0-0.113,7.459-0.113,13.957
				c0,1.96-17.711,2.838-35.574,3.227C50.579,84.921,32.257,86.806,32.257,86.806z"/>
		</g>
		<g>
			<path class="st173" d="M98.384,97.765c-6.838,4.209-62.598,3.156-65.229,0c-0.992-1.19-1.236-2.957-1.154-7.979
				c0.008-0.474,71.74-3.262,71.74-3.262C102.962,93.283,101.411,95.902,98.384,97.765z"/>
		</g>
		<g>
			<path class="st23" d="M98.384,101.535c-6.838,4.209-62.598,3.156-65.229,0c-0.578-0.693-0.902-2.865-1.057-5.551
				c-0.055-0.96,21.98-0.089,39.684-0.779c17.701-0.691,31.072-2.944,30.826-1.896C101.696,97.203,100.353,100.324,98.384,101.535z"
				/>
		</g>
		<g>
			<path class="st82" d="M80.499,50.773L33.155,73.918c0,0,71.279-1.052,71.279-6.575S80.499,50.773,80.499,50.773z"/>
		</g>
		<g>
			
				<ellipse transform="matrix(0.9458 -0.3246 0.3246 0.9458 -17.9637 20.3168)" class="st82" cx="51.911" cy="63.999" rx="4.57" ry="3.581"/>
		</g>
		<g>
			
				<ellipse transform="matrix(0.9458 -0.3247 0.3247 0.9458 -19.5303 18.4074)" class="st82" cx="45.392" cy="67.725" rx="4.184" ry="3.279"/>
		</g>
		<g>
			
				<ellipse transform="matrix(0.9458 -0.3246 0.3246 0.9458 -16.2755 22.3666)" class="st82" cx="58.897" cy="59.963" rx="4.863" ry="3.811"/>
		</g>
		<g>
			
				<ellipse transform="matrix(0.9458 -0.3247 0.3247 0.9458 -14.823 24.2502)" class="st82" cx="65.262" cy="56.547" rx="5.157" ry="4.043"/>
		</g>
		<g>
			
				<ellipse transform="matrix(0.9459 -0.3245 0.3245 0.9459 -12.8367 26.8093)" class="st82" cx="73.956" cy="51.889" rx="5.745" ry="4.503"/>
		</g>
		<g>
			
				<ellipse transform="matrix(0.9986 0.0531 -0.0531 0.9986 3.9726 -3.1195)" class="st82" cx="60.695" cy="73.207" rx="5.812" ry="4.556"/>
		</g>
		<g>
			
				<ellipse transform="matrix(0.9986 0.0532 -0.0532 0.9986 3.9871 -2.5894)" class="st82" cx="50.611" cy="73.564" rx="5.321" ry="4.172"/>
		</g>
		<g>
			
				<ellipse transform="matrix(0.9986 0.0532 -0.0532 0.9986 3.92 -3.7013)" class="st82" cx="71.477" cy="71.774" rx="6.186" ry="4.849"/>
		</g>
		<g>
			
				<ellipse transform="matrix(0.9986 0.0533 -0.0533 0.9986 3.908 -4.361)" class="st82" cx="83.715" cy="71.087" rx="6.559" ry="5.143"/>
		</g>
		<g>
			
				<ellipse transform="matrix(0.9986 0.0532 -0.0532 0.9986 3.83 -5.0191)" class="st82" cx="96.185" cy="69.425" rx="7.305" ry="5.727"/>
		</g>
		<g>
			<g>
				<g>
					<path class="st26" d="M78.425,35.341c-1.482,0-2.688,0.533-2.688,2.018v23.145c0,1.484,1.205,2.688,2.688,2.688
						c1.486,0,2.689-1.204,2.689-2.688V37.359C81.114,35.875,79.911,35.341,78.425,35.341z"/>
				</g>
			</g>
			<g>
				<g>
					<path class="st75" d="M76.778,26.32c0.51-1.459,0.41-3.663,0.41-3.663s4.871,3.706,4.525,8.302
						c-0.139,1.829-1.512,3.32-3.375,3.322c-1.867-0.002-3.377-1.487-3.377-3.322C74.962,29.172,76.181,28.04,76.778,26.32z"/>
				</g>
				<g class="st113">
					<g>
						<path class="st118" d="M77.354,29.172c0.32-0.923,0.258-2.319,0.258-2.319s3.086,2.349,2.867,5.261
							c-0.086,1.159-0.957,2.104-2.139,2.104c-1.182-0.001-2.141-0.943-2.141-2.104C76.2,30.981,76.974,30.262,77.354,29.172z"/>
					</g>
				</g>
			</g>
		</g>
	</g>
</g>
</svg>
