<?xml version="1.0" encoding="utf-8"?>
<!-- Generator: Adobe Illustrator 16.0.0, SVG Export Plug-In . SVG Version: 6.00 Build 0)  -->
<!DOCTYPE svg PUBLIC "-//W3C//DTD SVG 1.1//EN" "http://www.w3.org/Graphics/SVG/1.1/DTD/svg11.dtd">
<svg version="1.1" id="Layer_1" xmlns="http://www.w3.org/2000/svg" xmlns:xlink="http://www.w3.org/1999/xlink" x="0px" y="0px"
	 width="136.833px" height="136.834px" viewBox="0 0 136.833 136.834" style="enable-background:new 0 0 136.833 136.834;"
	 xml:space="preserve">
<style type="text/css">
<![CDATA[
	.st0{fill:#7A5628;}
	.st1{fill:#49A0AE;}
	.st2{fill:#ACA8A9;}
	.st3{fill:#7DB6B7;}
	.st4{fill:#11100E;}
	.st5{fill:#7FCDCC;}
	.st6{fill:#E0DAD2;}
	.st7{fill:#E1E1E1;}
	.st8{fill:#13B3CA;}
	.st9{fill:#E3E4E5;}
	.st10{fill:#15B5AC;}
	.st11{fill:#E4B894;}
	.st12{fill:#E4C88F;}
	.st13{fill:#E4DED0;}
	.st14{fill:#4A86C5;}
	.st15{fill:#4ABC96;}
	.st16{fill:#171413;}
	.st17{fill:#E5CE27;}
	.st18{fill:#187070;}
	.st19{fill:#E7CB7C;}
	.st20{fill:#E7DDB3;}
	.st21{fill:#E7E9EA;}
	.st22{fill:#E84849;}
	.st23{fill:#E89423;}
	.st24{fill:#E8CC7C;}
	.st25{fill:#E8EAEB;}
	.st26{fill:#E97539;}
	.st27{fill:#E9C29C;}
	.st28{fill:#E9DC96;}
	.st29{fill:#B16E29;}
	.st30{opacity:0.01;}
	.st31{opacity:0.45;}
	.st32{fill:#1A1919;}
	.st33{fill:#B69B30;}
	.st34{fill:#EADD97;}
	.st35{fill:#EB9682;}
	.st36{fill:#B7B7B7;}
	.st37{fill:#EBD9A9;}
	.st38{fill:#1DA049;}
	.st39{fill:#1E1913;}
	.st40{fill:#1E1B17;}
	.st41{fill:#ECDAAA;}
	.st42{fill:#ECE6D5;}
	.st43{fill:#ED3351;}
	.st44{fill:#B9B9BA;}
	.st45{fill:#EDECED;}
	.st46{fill:#1FA85B;}
	.st47{fill:#EEE17F;}
	.st48{fill:#EEE4B8;}
	.st49{fill-rule:evenodd;clip-rule:evenodd;fill:#7FCDCC;}
	.st50{fill:#515252;}
	.st51{fill:#543A1A;}
	.st52{fill:#BB2025;}
	.st53{fill:#8C652E;}
	.st54{fill:#8C8C8C;}
	.st55{fill:#212121;}
	.st56{fill:#BF2126;}
	.st57{fill:#BFBEBE;}
	.st58{fill:#F0C418;}
	.st59{fill:#F0CF6A;}
	.st60{fill:#F0E3C8;}
	.st61{fill:#F1D069;}
	.st62{fill:#F1E4C8;}
	.st63{fill:#F2D083;}
	.st64{fill:#F3BB70;}
	.st65{fill:#F3C715;}
	.st66{fill:#F3D183;}
	.st67{fill:#258C8E;}
	.st68{fill:#25999B;}
	.st69{fill:#F4E028;}
	.st70{fill:#F59798;}
	.st71{fill:#F5DE57;}
	.st72{fill:#F6A2A3;}
	.st73{fill:#F6F7F7;}
	.st74{fill:#28999B;}
	.st75{fill:#F7DF56;}
	.st76{fill:#29A5AE;}
	.st77{fill:#F8B85C;}
	.st78{fill:#F8D648;}
	.st79{fill:#F8DC62;}
	.st80{fill:#F8E69B;}
	.st81{fill:#F8E9AB;}
	.st82{fill:#F8F3DC;}
	.st83{fill:#F9A11C;}
	.st84{fill:#F9A72F;}
	.st85{fill:#F9A731;}
	.st86{fill:#F9E478;}
	.st87{fill:#F9EC34;}
	.st88{fill:#92C7CB;}
	.st89{fill:#93574E;}
	.st90{fill:#939291;}
	.st91{fill:#C2D2D3;}
	.st92{fill:#C42126;}
	.st93{fill:#C47267;}
	.st94{fill:#C4C3C3;}
	.st95{fill:#C5A72E;}
	.st96{fill:#2B2B2B;}
	.st97{fill:#2B5C64;}
	.st98{fill:#FACB83;}
	.st99{fill:#2D2D2D;}
	.st100{fill:#FBEC68;}
	.st101{fill:#2D646D;}
	.st102{fill:#FBF3CE;}
	.st103{fill:#C8802A;}
	.st104{fill:#99999A;}
	.st105{fill:#C8C8C8;}
	.st106{fill-rule:evenodd;clip-rule:evenodd;fill:#59A29F;}
	.st107{fill:#99CED5;}
	.st108{fill:#FDF3D0;}
	.st109{fill:#2F8442;}
	.st110{fill:#60441D;}
	.st111{opacity:0.5;}
	.st112{opacity:0.6;}
	.st113{opacity:0.8;}
	.st114{fill:#FFCE80;}
	.st115{fill:#FFEBBF;}
	.st116{fill:#FFEEA5;}
	.st117{fill:#FFFFFA;}
	.st118{fill:#FFFFFF;}
	.st119{fill:#644421;}
	.st120{fill:none;}
	.st121{fill:#65A844;}
	.st122{fill:#CB4645;}
	.st123{fill:#69C8CF;}
	.st124{fill:#CCCBCB;}
	.st125{fill:#30302F;}
	.st126{fill:#9F7534;}
	.st127{fill:#9F77AA;}
	.st128{fill:#CECECD;}
	.st129{fill:#CECFD0;}
	.st130{fill:#336C75;}
	.st131{fill:#343433;}
	.st132{fill:#344E5D;}
	.st133{fill:#353535;}
	.st134{fill:#357180;}
	.st135{fill:#377CA5;}
	.st136{fill:#383939;}
	.st137{fill-rule:evenodd;clip-rule:evenodd;fill:#97D6D5;}
	.st138{fill:#388388;}
	.st139{fill:#6E5538;}
	.st140{fill:#00A79E;}
	.st141{fill:#D0A288;}
	.st142{fill:#D0E8D0;}
	.st143{fill:#D1AF2B;}
	.st144{fill:#D2B488;}
	.st145{fill:#D2D2D2;}
	.st146{fill-rule:evenodd;clip-rule:evenodd;fill:#63AAA5;}
	.st147{fill:#D3B85F;}
	.st148{fill:#D3B95F;}
	.st149{fill:#D3D3D3;}
	.st150{fill:#D54027;}
	.st151{fill:#3AB780;}
	.st152{fill:#D5BA8A;}
	.st153{fill:#D62127;}
	.st154{fill:#D68936;}
	.st155{fill:#3CB881;}
	.st156{fill:#D7D7D7;}
	.st157{fill:#D7DABA;}
	.st158{fill:#D8D8D7;}
	.st159{fill:#714D22;}
	.st160{fill:#A0D9DC;}
	.st161{fill:#A2D4DE;}
	.st162{fill:#A46434;}
	.st163{fill:#A4A4A4;}
	.st164{fill:#A6A5A5;}
	.st165{fill:#DAA9A3;}
	.st166{fill:#DBBA33;}
	.st167{fill:#DBD3BB;}
	.st168{fill:#DBDDDC;}
	.st169{fill:#DCBF8D;}
	.st170{fill:#DCC172;}
	.st171{fill:#DCDFE0;}
	.st172{fill:#DDC272;}
	.st173{fill:#DDD2A5;}
	.st174{fill:#DDDDDC;}
	.st175{fill:#DDDFE0;}
	.st176{fill:#414141;}
	.st177{fill:#DFC191;}
	.st178{fill:#DFDDDC;}
	.st179{fill:#DFE0E0;}
	.st180{fill:#DFE0E1;}
]]>
</style>
<g>
	<g>
		<g>
			<g>
				<circle class="st1" cx="68.416" cy="68.417" r="63.333"/>
			</g>
		</g>
	</g>
	<g>
		<g>
			<g>
				<path class="st9" d="M86.146,29.747c-0.479-1.749-34.281-1.752-35.213,0c-0.932,1.751-1.686,2.453-1.686,14.894
					s5.617,39.536,5.617,46.178s-2.992,27.438-2.566,28.466c0.428,1.027,6.541,2.213,16.557,2.213
					c10.018,0,15.166-1.186,15.926-2.213c0.76-1.028-2.566-23.405-2.566-28.466c0-7.907,5.619-35.636,5.619-46.178
					C87.833,34.098,86.624,31.495,86.146,29.747z"/>
			</g>
			<g>
				<path class="st79" d="M85.942,30.407H51.136c0,0-1.889,13.602-0.836,21.436c0,5.988,5.313,32.775,5.313,38.765
					s-2.1,23.331-1.717,24.259c0.385,0.927,5.896,1.996,14.93,1.996c9.031,0,13.672-1.069,14.357-1.996
					c0.684-0.928-1.717-19.695-1.717-24.259c0-7.13,5.102-32.449,5.102-39.009C87.409,41.233,85.942,30.407,85.942,30.407z"/>
			</g>
			<g>
				<path class="st78" d="M85.942,30.407c0,0-32.43,83.531-32.047,84.459c0.385,0.927,5.896,1.996,14.93,1.996
					c9.031,0,13.672-1.069,14.357-1.996c0.684-0.928-1.717-19.695-1.717-24.259c0-7.13,5.102-32.449,5.102-39.009
					C87.409,41.233,85.942,30.407,85.942,30.407z"/>
			</g>
			<g>
				<path class="st81" d="M86.304,34.099c0,0-7.129,0.948-18.027,0.948c-10.9,0-17.291-0.633-17.291-0.633s0-2.108,0-4.955
					c0-4.427,34.832-4.927,34.832-0.079C86.132,30.724,86.304,34.099,86.304,34.099z"/>
			</g>
			<g>
				<path class="st168" d="M47.183,30.584c0,0-2.057,4.786,1.135,8.261c3.193,3.473,6.457-0.854,8.299-2.781
					c8.199-8.568,29.438-3.742,29.438-3.742c0.41-4.041-0.494-8.689-7.412-10.021c-5.902-1.139-9.688,1.068-11.738,0.801
					c-2.053-0.268-7.535-2.137-10.832-1.067C50.716,23.77,48.093,28.446,47.183,30.584z"/>
			</g>
			<g>
				<path class="st108" d="M47.136,30.157c0,0-2.064,4.785,1.143,8.259s6.488-0.854,8.34-2.78
					c8.238-8.568,29.578-3.742,29.578-3.742c0.41-4.042-0.498-8.689-7.447-10.021c-5.932-1.137-9.734,1.068-11.797,0.801
					c-2.061-0.268-7.57-2.136-10.883-1.067C50.687,23.342,48.052,28.019,47.136,30.157z"/>
			</g>
		</g>
		<g>
			<path class="st50" d="M78.712,47.78c0,1.165,1.008,2.109-0.158,2.109l-10.291-0.304L57.892,49.89
				c-1.164,0-0.158-0.944-0.158-2.109l0,0c0-1.164-1.006-2.108,0.158-2.108c0,0,6.732-0.304,10.451-0.304
				c3.715,0,10.211,0.304,10.211,0.304C79.72,45.672,78.712,46.616,78.712,47.78L78.712,47.78z"/>
			<path class="st118" d="M78.554,50.015H78.55l-10.291-0.304l-10.363,0.304c-0.319,0-0.514-0.066-0.615-0.209
				c-0.152-0.214-0.049-0.518,0.083-0.901c0.115-0.335,0.245-0.714,0.245-1.124c0-0.409-0.13-0.789-0.245-1.123
				c-0.132-0.384-0.235-0.688-0.083-0.901c0.102-0.143,0.296-0.209,0.611-0.209c0.062-0.003,6.772-0.304,10.451-0.304
				c3.675,0,10.151,0.301,10.217,0.304h0.001c0.31,0,0.504,0.067,0.605,0.209c0.152,0.214,0.049,0.517-0.084,0.901
				c-0.114,0.334-0.245,0.714-0.245,1.123c0,0.41,0.131,0.789,0.245,1.124c0.133,0.384,0.236,0.688,0.084,0.901
				C79.064,49.948,78.869,50.015,78.554,50.015z M68.343,45.493c-3.674,0-10.378,0.301-10.445,0.304
				c-0.224,0-0.365,0.036-0.414,0.104c-0.077,0.109,0.017,0.384,0.116,0.675c0.115,0.335,0.259,0.753,0.259,1.204
				c0,0.451-0.144,0.869-0.259,1.205c-0.1,0.291-0.193,0.566-0.116,0.675c0.049,0.068,0.19,0.104,0.408,0.104l10.367-0.304
				l10.297,0.304c0.218,0,0.358-0.037,0.407-0.104c0.077-0.109-0.017-0.384-0.117-0.675c-0.115-0.336-0.259-0.754-0.259-1.205
				c0-0.451,0.144-0.869,0.259-1.204c0.101-0.291,0.194-0.566,0.117-0.675c-0.049-0.068-0.19-0.104-0.409-0.104
				C78.483,45.794,72.012,45.493,68.343,45.493z"/>
		</g>
		<g>
			<polygon class="st150" points="68.382,39.864 69.13,41.376 70.798,41.618 69.589,42.796 69.874,44.458 68.382,43.673 
				66.89,44.458 67.175,42.796 65.966,41.618 67.636,41.376 			"/>
		</g>
		<g>
			<g>
				<path class="st38" d="M61.897,53.232c-0.359,0-0.668-0.27-0.707-0.635c-0.043-0.392,0.238-0.743,0.629-0.787
					c0.143-0.016,3.545-0.39,6.404-0.39c2.857,0,6.26,0.374,6.402,0.39c0.393,0.044,0.674,0.396,0.631,0.787
					s-0.391,0.669-0.789,0.63c-0.033-0.004-3.469-0.383-6.244-0.383c-2.781,0-6.213,0.379-6.246,0.383
					C61.95,53.23,61.923,53.232,61.897,53.232z"/>
			</g>
		</g>
		<g>
			<g>
				<path class="st118" d="M60.228,48.673c-0.455,0-0.844-0.322-0.896-0.76c-0.053-0.467,0.301-0.889,0.797-0.94
					c0.18-0.02,5.385-0.221,8.096-0.221c2.709,0,7.914,0.201,8.094,0.221c0.496,0.052,0.852,0.474,0.797,0.94
					c-0.055,0.469-0.492,0.8-0.996,0.754c-0.043-0.005-5.262-0.209-7.895-0.209c-2.637,0-7.854,0.204-7.896,0.209
					C60.294,48.671,60.259,48.673,60.228,48.673z"/>
			</g>
		</g>
	</g>
</g>
</svg>
