<?xml version="1.0" encoding="utf-8"?>
<!-- Generator: Adobe Illustrator 16.0.0, SVG Export Plug-In . SVG Version: 6.00 Build 0)  -->
<!DOCTYPE svg PUBLIC "-//W3C//DTD SVG 1.1//EN" "http://www.w3.org/Graphics/SVG/1.1/DTD/svg11.dtd">
<svg version="1.1" id="Layer_1" xmlns="http://www.w3.org/2000/svg" xmlns:xlink="http://www.w3.org/1999/xlink" x="0px" y="0px"
	 width="136.833px" height="136.833px" viewBox="0 0 136.833 136.833" style="enable-background:new 0 0 136.833 136.833;"
	 xml:space="preserve">
<style type="text/css">
<![CDATA[
	.st0{fill:#7A5628;}
	.st1{fill:#49A0AE;}
	.st2{fill:#ACA8A9;}
	.st3{fill:#7DB6B7;}
	.st4{fill:#11100E;}
	.st5{fill:#7FCDCC;}
	.st6{fill:#E0DAD2;}
	.st7{fill:#E1E1E1;}
	.st8{fill:#13B3CA;}
	.st9{fill:#E3E4E5;}
	.st10{fill:#15B5AC;}
	.st11{fill:#E4B894;}
	.st12{fill:#E4C88F;}
	.st13{fill:#E4DED0;}
	.st14{fill:#4A86C5;}
	.st15{fill:#4ABC96;}
	.st16{fill:#171413;}
	.st17{fill:#E5CE27;}
	.st18{fill:#187070;}
	.st19{fill:#E7CB7C;}
	.st20{fill:#E7DDB3;}
	.st21{fill:#E7E9EA;}
	.st22{fill:#E84849;}
	.st23{fill:#E89423;}
	.st24{fill:#E8CC7C;}
	.st25{fill:#E8EAEB;}
	.st26{fill:#E97539;}
	.st27{fill:#E9C29C;}
	.st28{fill:#E9DC96;}
	.st29{fill:#B16E29;}
	.st30{opacity:0.01;}
	.st31{opacity:0.45;}
	.st32{fill:#1A1919;}
	.st33{fill:#B69B30;}
	.st34{fill:#EADD97;}
	.st35{fill:#EB9682;}
	.st36{fill:#B7B7B7;}
	.st37{fill:#EBD9A9;}
	.st38{fill:#1DA049;}
	.st39{fill:#1E1913;}
	.st40{fill:#1E1B17;}
	.st41{fill:#ECDAAA;}
	.st42{fill:#ECE6D5;}
	.st43{fill:#ED3351;}
	.st44{fill:#B9B9BA;}
	.st45{fill:#EDECED;}
	.st46{fill:#1FA85B;}
	.st47{fill:#EEE17F;}
	.st48{fill:#EEE4B8;}
	.st49{fill-rule:evenodd;clip-rule:evenodd;fill:#7FCDCC;}
	.st50{fill:#515252;}
	.st51{fill:#543A1A;}
	.st52{fill:#BB2025;}
	.st53{fill:#8C652E;}
	.st54{fill:#8C8C8C;}
	.st55{fill:#212121;}
	.st56{fill:#BF2126;}
	.st57{fill:#BFBEBE;}
	.st58{fill:#F0C418;}
	.st59{fill:#F0CF6A;}
	.st60{fill:#F0E3C8;}
	.st61{fill:#F1D069;}
	.st62{fill:#F1E4C8;}
	.st63{fill:#F2D083;}
	.st64{fill:#F3BB70;}
	.st65{fill:#F3C715;}
	.st66{fill:#F3D183;}
	.st67{fill:#258C8E;}
	.st68{fill:#25999B;}
	.st69{fill:#F4E028;}
	.st70{fill:#F59798;}
	.st71{fill:#F5DE57;}
	.st72{fill:#F6A2A3;}
	.st73{fill:#F6F7F7;}
	.st74{fill:#28999B;}
	.st75{fill:#F7DF56;}
	.st76{fill:#29A5AE;}
	.st77{fill:#F8B85C;}
	.st78{fill:#F8D648;}
	.st79{fill:#F8DC62;}
	.st80{fill:#F8E69B;}
	.st81{fill:#F8E9AB;}
	.st82{fill:#F8F3DC;}
	.st83{fill:#F9A11C;}
	.st84{fill:#F9A72F;}
	.st85{fill:#F9A731;}
	.st86{fill:#F9E478;}
	.st87{fill:#F9EC34;}
	.st88{fill:#92C7CB;}
	.st89{fill:#93574E;}
	.st90{fill:#939291;}
	.st91{fill:#C2D2D3;}
	.st92{fill:#C42126;}
	.st93{fill:#C47267;}
	.st94{fill:#C4C3C3;}
	.st95{fill:#C5A72E;}
	.st96{fill:#2B2B2B;}
	.st97{fill:#2B5C64;}
	.st98{fill:#FACB83;}
	.st99{fill:#2D2D2D;}
	.st100{fill:#FBEC68;}
	.st101{fill:#2D646D;}
	.st102{fill:#FBF3CE;}
	.st103{fill:#C8802A;}
	.st104{fill:#99999A;}
	.st105{fill:#C8C8C8;}
	.st106{fill-rule:evenodd;clip-rule:evenodd;fill:#59A29F;}
	.st107{fill:#99CED5;}
	.st108{fill:#FDF3D0;}
	.st109{fill:#2F8442;}
	.st110{fill:#60441D;}
	.st111{opacity:0.5;}
	.st112{opacity:0.6;}
	.st113{opacity:0.8;}
	.st114{fill:#FFCE80;}
	.st115{fill:#FFEBBF;}
	.st116{fill:#FFEEA5;}
	.st117{fill:#FFFFFA;}
	.st118{fill:#FFFFFF;}
	.st119{fill:#644421;}
	.st120{fill:none;}
	.st121{fill:#65A844;}
	.st122{fill:#CB4645;}
	.st123{fill:#69C8CF;}
	.st124{fill:#CCCBCB;}
	.st125{fill:#30302F;}
	.st126{fill:#9F7534;}
	.st127{fill:#9F77AA;}
	.st128{fill:#CECECD;}
	.st129{fill:#CECFD0;}
	.st130{fill:#336C75;}
	.st131{fill:#343433;}
	.st132{fill:#344E5D;}
	.st133{fill:#353535;}
	.st134{fill:#357180;}
	.st135{fill:#377CA5;}
	.st136{fill:#383939;}
	.st137{fill-rule:evenodd;clip-rule:evenodd;fill:#97D6D5;}
	.st138{fill:#388388;}
	.st139{fill:#6E5538;}
	.st140{fill:#00A79E;}
	.st141{fill:#D0A288;}
	.st142{fill:#D0E8D0;}
	.st143{fill:#D1AF2B;}
	.st144{fill:#D2B488;}
	.st145{fill:#D2D2D2;}
	.st146{fill-rule:evenodd;clip-rule:evenodd;fill:#63AAA5;}
	.st147{fill:#D3B85F;}
	.st148{fill:#D3B95F;}
	.st149{fill:#D3D3D3;}
	.st150{fill:#D54027;}
	.st151{fill:#3AB780;}
	.st152{fill:#D5BA8A;}
	.st153{fill:#D62127;}
	.st154{fill:#D68936;}
	.st155{fill:#3CB881;}
	.st156{fill:#D7D7D7;}
	.st157{fill:#D7DABA;}
	.st158{fill:#D8D8D7;}
	.st159{fill:#714D22;}
	.st160{fill:#A0D9DC;}
	.st161{fill:#A2D4DE;}
	.st162{fill:#A46434;}
	.st163{fill:#A4A4A4;}
	.st164{fill:#A6A5A5;}
	.st165{fill:#DAA9A3;}
	.st166{fill:#DBBA33;}
	.st167{fill:#DBD3BB;}
	.st168{fill:#DBDDDC;}
	.st169{fill:#DCBF8D;}
	.st170{fill:#DCC172;}
	.st171{fill:#DCDFE0;}
	.st172{fill:#DDC272;}
	.st173{fill:#DDD2A5;}
	.st174{fill:#DDDDDC;}
	.st175{fill:#DDDFE0;}
	.st176{fill:#414141;}
	.st177{fill:#DFC191;}
	.st178{fill:#DFDDDC;}
	.st179{fill:#DFE0E0;}
	.st180{fill:#DFE0E1;}
]]>
</style>
<g>
	<g>
		<g>
			<circle class="st134" cx="68.417" cy="68.417" r="63.333"/>
		</g>
	</g>
	<g>
		<g>
			<g>
				<path class="st139" d="M72.244,34.737c0.703,0.086,1.366,0.299,1.965,0.617"/>
			</g>
		</g>
		<g>
			<g>
				<path class="st139" d="M67.371,72.219c-1.007,0-1.821,0.9-1.821,2.006v43.929c0,1.108,0.814,2.007,1.821,2.007
					c1.005,0,1.819-0.898,1.819-2.007V74.225C69.19,73.12,68.375,72.219,67.371,72.219z"/>
			</g>
			<g>
				<g>
					<path class="st54" d="M71.827,101.887c-0.29,0-0.578-0.125-0.775-0.367l-5-6.125c-0.35-0.429-0.286-1.059,0.142-1.407
						c0.43-0.351,1.059-0.287,1.407,0.142l5,6.125c0.35,0.429,0.286,1.059-0.142,1.407
						C72.272,101.813,72.048,101.887,71.827,101.887z"/>
				</g>
			</g>
			<g>
				<g>
					<path class="st71" d="M78.511,103.094c0.955,1.057,2.784,1.949,2.784,1.949s-5.151,2.308-8.718,0.002
						c-1.421-0.921-2.023-2.689-1.201-4.201c0.825-1.51,2.693-2.078,4.18-1.268C77.001,100.365,77.382,101.852,78.511,103.094z"/>
				</g>
				<g class="st113">
					<g>
						<path class="st118" d="M75.947,102.303c0.606,0.666,1.763,1.232,1.763,1.232s-3.263,1.463-5.523,0
							c-0.899-0.582-1.281-1.704-0.76-2.66s1.709-1.316,2.648-0.805C74.992,100.57,75.231,101.514,75.947,102.303z"/>
					</g>
				</g>
			</g>
		</g>
		<g>
			<g>
				<path class="st78" d="M77.22,93.301c0,3.133-19.538,3.133-19.538,0V40.362c0-3.132,2.54-5.672,5.672-5.672h8.193
					c3.133,0,5.673,2.54,5.673,5.672V93.301z"/>
			</g>
			<g>
				<g>
					<polygon class="st65" points="77.22,51.681 57.682,71.219 57.682,76.876 77.22,57.338 					"/>
				</g>
				<g>
					<path class="st65" d="M74.208,35.354c-0.599-0.318-1.262-0.531-1.965-0.617L57.682,49.298v5.656l18.063-18.063L74.208,35.354z"
						/>
				</g>
				<g>
					<polygon class="st65" points="77.22,62.288 57.682,81.826 57.682,87.482 77.22,67.944 					"/>
				</g>
				<g>
					<polygon class="st65" points="77.22,40.369 57.682,59.907 57.682,65.563 77.22,46.025 					"/>
				</g>
				<g>
					<path class="st65" d="M63.354,34.69c-3.132,0-5.672,2.54-5.672,5.672v3.28l8.952-8.952H63.354z"/>
				</g>
				<g>
					<path class="st65" d="M77.22,72.542L57.682,92.08v1.222c0,0.737,1.09,1.299,2.745,1.689L77.22,78.198V72.542z"/>
				</g>
				<g>
					<path class="st65" d="M77.22,83.147L64.796,95.571c1.855,0.113,3.846,0.104,5.682-0.025l6.742-6.742V83.147z"/>
				</g>
			</g>
		</g>
		<g>
			<path class="st92" d="M77.783,31.181l-7.447-12.804c-1.639-2.272-4.295-2.272-5.932,0l-7.447,12.804
				c-1.893,2.272-1.893,5.956,0,8.228h20.826C79.673,37.137,79.673,33.454,77.783,31.181z"/>
		</g>
		<g>
			<path class="st52" d="M67.451,16.674c-1.101-0.029-2.208,0.538-3.047,1.703l-7.447,12.804c-1.893,2.272-1.893,5.956,0,8.228
				h10.494V16.674z"/>
		</g>
	</g>
</g>
</svg>
