<?xml version="1.0" encoding="utf-8"?>
<!-- Generator: Adobe Illustrator 16.0.0, SVG Export Plug-In . SVG Version: 6.00 Build 0)  -->
<!DOCTYPE svg PUBLIC "-//W3C//DTD SVG 1.1//EN" "http://www.w3.org/Graphics/SVG/1.1/DTD/svg11.dtd">
<svg version="1.1" id="Layer_1" xmlns="http://www.w3.org/2000/svg" xmlns:xlink="http://www.w3.org/1999/xlink" x="0px" y="0px"
	 width="136.833px" height="136.834px" viewBox="0 0 136.833 136.834" style="enable-background:new 0 0 136.833 136.834;"
	 xml:space="preserve">
<style type="text/css">
<![CDATA[
	.st0{fill:#7A5628;}
	.st1{fill:#49A0AE;}
	.st2{fill:#ACA8A9;}
	.st3{fill:#7DB6B7;}
	.st4{fill:#11100E;}
	.st5{fill:#7FCDCC;}
	.st6{fill:#E0DAD2;}
	.st7{fill:#E1E1E1;}
	.st8{fill:#13B3CA;}
	.st9{fill:#E3E4E5;}
	.st10{fill:#15B5AC;}
	.st11{fill:#E4B894;}
	.st12{fill:#E4C88F;}
	.st13{fill:#E4DED0;}
	.st14{fill:#4A86C5;}
	.st15{fill:#4ABC96;}
	.st16{fill:#171413;}
	.st17{fill:#E5CE27;}
	.st18{fill:#187070;}
	.st19{fill:#E7CB7C;}
	.st20{fill:#E7DDB3;}
	.st21{fill:#E7E9EA;}
	.st22{fill:#E84849;}
	.st23{fill:#E89423;}
	.st24{fill:#E8CC7C;}
	.st25{fill:#E8EAEB;}
	.st26{fill:#E97539;}
	.st27{fill:#E9C29C;}
	.st28{fill:#E9DC96;}
	.st29{fill:#B16E29;}
	.st30{opacity:0.01;}
	.st31{opacity:0.45;}
	.st32{fill:#1A1919;}
	.st33{fill:#B69B30;}
	.st34{fill:#EADD97;}
	.st35{fill:#EB9682;}
	.st36{fill:#B7B7B7;}
	.st37{fill:#EBD9A9;}
	.st38{fill:#1DA049;}
	.st39{fill:#1E1913;}
	.st40{fill:#1E1B17;}
	.st41{fill:#ECDAAA;}
	.st42{fill:#ECE6D5;}
	.st43{fill:#ED3351;}
	.st44{fill:#B9B9BA;}
	.st45{fill:#EDECED;}
	.st46{fill:#1FA85B;}
	.st47{fill:#EEE17F;}
	.st48{fill:#EEE4B8;}
	.st49{fill-rule:evenodd;clip-rule:evenodd;fill:#7FCDCC;}
	.st50{fill:#515252;}
	.st51{fill:#543A1A;}
	.st52{fill:#BB2025;}
	.st53{fill:#8C652E;}
	.st54{fill:#8C8C8C;}
	.st55{fill:#212121;}
	.st56{fill:#BF2126;}
	.st57{fill:#BFBEBE;}
	.st58{fill:#F0C418;}
	.st59{fill:#F0CF6A;}
	.st60{fill:#F0E3C8;}
	.st61{fill:#F1D069;}
	.st62{fill:#F1E4C8;}
	.st63{fill:#F2D083;}
	.st64{fill:#F3BB70;}
	.st65{fill:#F3C715;}
	.st66{fill:#F3D183;}
	.st67{fill:#258C8E;}
	.st68{fill:#25999B;}
	.st69{fill:#F4E028;}
	.st70{fill:#F59798;}
	.st71{fill:#F5DE57;}
	.st72{fill:#F6A2A3;}
	.st73{fill:#F6F7F7;}
	.st74{fill:#28999B;}
	.st75{fill:#F7DF56;}
	.st76{fill:#29A5AE;}
	.st77{fill:#F8B85C;}
	.st78{fill:#F8D648;}
	.st79{fill:#F8DC62;}
	.st80{fill:#F8E69B;}
	.st81{fill:#F8E9AB;}
	.st82{fill:#F8F3DC;}
	.st83{fill:#F9A11C;}
	.st84{fill:#F9A72F;}
	.st85{fill:#F9A731;}
	.st86{fill:#F9E478;}
	.st87{fill:#F9EC34;}
	.st88{fill:#92C7CB;}
	.st89{fill:#93574E;}
	.st90{fill:#939291;}
	.st91{fill:#C2D2D3;}
	.st92{fill:#C42126;}
	.st93{fill:#C47267;}
	.st94{fill:#C4C3C3;}
	.st95{fill:#C5A72E;}
	.st96{fill:#2B2B2B;}
	.st97{fill:#2B5C64;}
	.st98{fill:#FACB83;}
	.st99{fill:#2D2D2D;}
	.st100{fill:#FBEC68;}
	.st101{fill:#2D646D;}
	.st102{fill:#FBF3CE;}
	.st103{fill:#C8802A;}
	.st104{fill:#99999A;}
	.st105{fill:#C8C8C8;}
	.st106{fill-rule:evenodd;clip-rule:evenodd;fill:#59A29F;}
	.st107{fill:#99CED5;}
	.st108{fill:#FDF3D0;}
	.st109{fill:#2F8442;}
	.st110{fill:#60441D;}
	.st111{opacity:0.5;}
	.st112{opacity:0.6;}
	.st113{opacity:0.8;}
	.st114{fill:#FFCE80;}
	.st115{fill:#FFEBBF;}
	.st116{fill:#FFEEA5;}
	.st117{fill:#FFFFFA;}
	.st118{fill:#FFFFFF;}
	.st119{fill:#644421;}
	.st120{fill:none;}
	.st121{fill:#65A844;}
	.st122{fill:#CB4645;}
	.st123{fill:#69C8CF;}
	.st124{fill:#CCCBCB;}
	.st125{fill:#30302F;}
	.st126{fill:#9F7534;}
	.st127{fill:#9F77AA;}
	.st128{fill:#CECECD;}
	.st129{fill:#CECFD0;}
	.st130{fill:#336C75;}
	.st131{fill:#343433;}
	.st132{fill:#344E5D;}
	.st133{fill:#353535;}
	.st134{fill:#357180;}
	.st135{fill:#377CA5;}
	.st136{fill:#383939;}
	.st137{fill-rule:evenodd;clip-rule:evenodd;fill:#97D6D5;}
	.st138{fill:#388388;}
	.st139{fill:#6E5538;}
	.st140{fill:#00A79E;}
	.st141{fill:#D0A288;}
	.st142{fill:#D0E8D0;}
	.st143{fill:#D1AF2B;}
	.st144{fill:#D2B488;}
	.st145{fill:#D2D2D2;}
	.st146{fill-rule:evenodd;clip-rule:evenodd;fill:#63AAA5;}
	.st147{fill:#D3B85F;}
	.st148{fill:#D3B95F;}
	.st149{fill:#D3D3D3;}
	.st150{fill:#D54027;}
	.st151{fill:#3AB780;}
	.st152{fill:#D5BA8A;}
	.st153{fill:#D62127;}
	.st154{fill:#D68936;}
	.st155{fill:#3CB881;}
	.st156{fill:#D7D7D7;}
	.st157{fill:#D7DABA;}
	.st158{fill:#D8D8D7;}
	.st159{fill:#714D22;}
	.st160{fill:#A0D9DC;}
	.st161{fill:#A2D4DE;}
	.st162{fill:#A46434;}
	.st163{fill:#A4A4A4;}
	.st164{fill:#A6A5A5;}
	.st165{fill:#DAA9A3;}
	.st166{fill:#DBBA33;}
	.st167{fill:#DBD3BB;}
	.st168{fill:#DBDDDC;}
	.st169{fill:#DCBF8D;}
	.st170{fill:#DCC172;}
	.st171{fill:#DCDFE0;}
	.st172{fill:#DDC272;}
	.st173{fill:#DDD2A5;}
	.st174{fill:#DDDDDC;}
	.st175{fill:#DDDFE0;}
	.st176{fill:#414141;}
	.st177{fill:#DFC191;}
	.st178{fill:#DFDDDC;}
	.st179{fill:#DFE0E0;}
	.st180{fill:#DFE0E1;}
]]>
</style>
<g>
	<g>
		<g>
			<circle class="st134" cx="68.416" cy="68.418" r="63.333"/>
		</g>
	</g>
	<g>
		<g>
			<g>
				<path class="st176" d="M85.325,59.634c-1.359-0.952-5.215-1.556-9.824-1.825c0,0-4.146,2.163-6.289,2.172
					c-2.172,0.008-6.367-2.121-6.367-2.121c-4.459,0.293-8.195,0.89-9.617,1.774c-3.227,2.075-14.543,14.185-14.295,35.546
					c0.021,1.896,1.566,3.418,3.457,3.418c0.014,0,0.027,0,0.041,0c1.91-0.021,3.441-1.588,3.418-3.498
					c-0.105-9.154,3.236-16.1,7.363-20.701c-0.867,6.285-1.574,24.085-1.574,24.085c0,4.382,3.234,4.39,7.225,4.39h19.711
					c3.988,0,7.223-0.008,7.223-4.39c0,0-0.674-18.522-1.441-25.128c4.568,4.564,8.463,11.872,8.35,21.744
					c-0.023,1.91,1.508,3.477,3.418,3.498c0.014,0,0.027,0,0.041,0c1.891,0,3.436-1.521,3.457-3.418
					C99.868,73.818,88.552,61.709,85.325,59.634z"/>
			</g>
			<g>
				<g>
					<path class="st11" d="M69.11,65.053c4.277,0,6.014-5.756,6.391-7.242c-1.998-0.117-2.021-6.045-6.279-6.045
						c-4.129,0-4.281,5.957-6.279,6.086C63.294,59.397,64.87,65.053,69.11,65.053z"/>
				</g>
			</g>
		</g>
		<g>
			<g>
				<g>
					<circle class="st27" cx="68.54" cy="42.014" r="14.557"/>
				</g>
				<g>
					<path class="st162" d="M83.097,42.014l-9.926-8.932c0,0-2.113,3.5-7.75,6.051c-5.436,2.457-11.438,2.881-11.438,2.881
						c0-8.039,6.516-14.557,14.557-14.557C76.579,27.457,83.097,33.975,83.097,42.014z"/>
				</g>
				<g>
					<ellipse class="st131" cx="64.177" cy="44.178" rx="1.994" ry="2.105"/>
				</g>
				<g>
					<ellipse class="st131" cx="72.819" cy="44.178" rx="1.994" ry="2.105"/>
				</g>
				<g>
					<ellipse class="st118" cx="73.442" cy="43.379" rx="0.797" ry="0.842"/>
				</g>
				<g>
					<path class="st118" d="M65.575,43.379c0,0.465-0.355,0.842-0.799,0.842c-0.439,0-0.795-0.377-0.795-0.842
						c0-0.466,0.355-0.844,0.795-0.844C65.22,42.535,65.575,42.913,65.575,43.379z"/>
				</g>
			</g>
			<g>
				<g>
					<g>
						<path class="st176" d="M68.511,26.493c8.547,0,15.578,5.575,16.467,17.979h0.096c-0.115-13.317-3.881-21.1-16.41-21.1
							c-12.115,0-16.6,7.782-16.713,21.1h0.094C52.933,32.068,59.964,26.493,68.511,26.493z"/>
					</g>
				</g>
			</g>
			<g>
				<g>
					<path class="st176" d="M80.983,43.996c-0.16,3.242-0.229,5.119,2.781,5.951c2.938,0.813,5.201-2.204,5.359-5.446
						c0.16-3.245-1.77-6.044-4.781-6.297S81.142,40.751,80.983,43.996z"/>
				</g>
			</g>
			<g>
				<g>
					<path class="st176" d="M55.972,43.996c0.16,3.242,0.229,5.119-2.781,5.951c-2.936,0.813-5.201-2.204-5.361-5.446
						c-0.158-3.245,1.771-6.044,4.783-6.297S55.812,40.751,55.972,43.996z"/>
				</g>
			</g>
		</g>
		<g>
			<g>
				<path class="st96" d="M113.624,103.567c0,1.956-34.814,1.956-34.814,0v-1.77c0-1.954,1.586-3.541,3.541-3.541h27.734
					c1.955,0,3.539,1.587,3.539,3.541V103.567z"/>
			</g>
			<g>
				<path class="st96" d="M59.675,103.222c0,1.956-34.814,1.956-34.814,0v-1.77c0-1.955,1.584-3.541,3.541-3.541h27.732
					c1.955,0,3.541,1.586,3.541,3.541V103.222z"/>
			</g>
			<g>
				<path class="st96" d="M115.526,109.492c0,5.292-94.219,5.292-94.219,0v-4.789c0-5.291,94.219-5.291,94.219,0V109.492z"/>
			</g>
		</g>
	</g>
</g>
</svg>
