<?xml version="1.0" encoding="utf-8"?>
<!-- Generator: Adobe Illustrator 16.0.0, SVG Export Plug-In . SVG Version: 6.00 Build 0)  -->
<!DOCTYPE svg PUBLIC "-//W3C//DTD SVG 1.1//EN" "http://www.w3.org/Graphics/SVG/1.1/DTD/svg11.dtd">
<svg version="1.1" id="Layer_1" xmlns="http://www.w3.org/2000/svg" xmlns:xlink="http://www.w3.org/1999/xlink" x="0px" y="0px"
	 width="136.833px" height="136.833px" viewBox="0 0 136.833 136.833" style="enable-background:new 0 0 136.833 136.833;"
	 xml:space="preserve">
<style type="text/css">
<![CDATA[
	.st0{fill:#7A5628;}
	.st1{fill:#49A0AE;}
	.st2{fill:#ACA8A9;}
	.st3{fill:#7DB6B7;}
	.st4{fill:#11100E;}
	.st5{fill:#7FCDCC;}
	.st6{fill:#E0DAD2;}
	.st7{fill:#E1E1E1;}
	.st8{fill:#13B3CA;}
	.st9{fill:#E3E4E5;}
	.st10{fill:#15B5AC;}
	.st11{fill:#E4B894;}
	.st12{fill:#E4C88F;}
	.st13{fill:#E4DED0;}
	.st14{fill:#4A86C5;}
	.st15{fill:#4ABC96;}
	.st16{fill:#171413;}
	.st17{fill:#E5CE27;}
	.st18{fill:#187070;}
	.st19{fill:#E7CB7C;}
	.st20{fill:#E7DDB3;}
	.st21{fill:#E7E9EA;}
	.st22{fill:#E84849;}
	.st23{fill:#E89423;}
	.st24{fill:#E8CC7C;}
	.st25{fill:#E8EAEB;}
	.st26{fill:#E97539;}
	.st27{fill:#E9C29C;}
	.st28{fill:#E9DC96;}
	.st29{fill:#B16E29;}
	.st30{opacity:0.01;}
	.st31{opacity:0.45;}
	.st32{fill:#1A1919;}
	.st33{fill:#B69B30;}
	.st34{fill:#EADD97;}
	.st35{fill:#EB9682;}
	.st36{fill:#B7B7B7;}
	.st37{fill:#EBD9A9;}
	.st38{fill:#1DA049;}
	.st39{fill:#1E1913;}
	.st40{fill:#1E1B17;}
	.st41{fill:#ECDAAA;}
	.st42{fill:#ECE6D5;}
	.st43{fill:#ED3351;}
	.st44{fill:#B9B9BA;}
	.st45{fill:#EDECED;}
	.st46{fill:#1FA85B;}
	.st47{fill:#EEE17F;}
	.st48{fill:#EEE4B8;}
	.st49{fill-rule:evenodd;clip-rule:evenodd;fill:#7FCDCC;}
	.st50{fill:#515252;}
	.st51{fill:#543A1A;}
	.st52{fill:#BB2025;}
	.st53{fill:#8C652E;}
	.st54{fill:#8C8C8C;}
	.st55{fill:#212121;}
	.st56{fill:#BF2126;}
	.st57{fill:#BFBEBE;}
	.st58{fill:#F0C418;}
	.st59{fill:#F0CF6A;}
	.st60{fill:#F0E3C8;}
	.st61{fill:#F1D069;}
	.st62{fill:#F1E4C8;}
	.st63{fill:#F2D083;}
	.st64{fill:#F3BB70;}
	.st65{fill:#F3C715;}
	.st66{fill:#F3D183;}
	.st67{fill:#258C8E;}
	.st68{fill:#25999B;}
	.st69{fill:#F4E028;}
	.st70{fill:#F59798;}
	.st71{fill:#F5DE57;}
	.st72{fill:#F6A2A3;}
	.st73{fill:#F6F7F7;}
	.st74{fill:#28999B;}
	.st75{fill:#F7DF56;}
	.st76{fill:#29A5AE;}
	.st77{fill:#F8B85C;}
	.st78{fill:#F8D648;}
	.st79{fill:#F8DC62;}
	.st80{fill:#F8E69B;}
	.st81{fill:#F8E9AB;}
	.st82{fill:#F8F3DC;}
	.st83{fill:#F9A11C;}
	.st84{fill:#F9A72F;}
	.st85{fill:#F9A731;}
	.st86{fill:#F9E478;}
	.st87{fill:#F9EC34;}
	.st88{fill:#92C7CB;}
	.st89{fill:#93574E;}
	.st90{fill:#939291;}
	.st91{fill:#C2D2D3;}
	.st92{fill:#C42126;}
	.st93{fill:#C47267;}
	.st94{fill:#C4C3C3;}
	.st95{fill:#C5A72E;}
	.st96{fill:#2B2B2B;}
	.st97{fill:#2B5C64;}
	.st98{fill:#FACB83;}
	.st99{fill:#2D2D2D;}
	.st100{fill:#FBEC68;}
	.st101{fill:#2D646D;}
	.st102{fill:#FBF3CE;}
	.st103{fill:#C8802A;}
	.st104{fill:#99999A;}
	.st105{fill:#C8C8C8;}
	.st106{fill-rule:evenodd;clip-rule:evenodd;fill:#59A29F;}
	.st107{fill:#99CED5;}
	.st108{fill:#FDF3D0;}
	.st109{fill:#2F8442;}
	.st110{fill:#60441D;}
	.st111{opacity:0.5;}
	.st112{opacity:0.6;}
	.st113{opacity:0.8;}
	.st114{fill:#FFCE80;}
	.st115{fill:#FFEBBF;}
	.st116{fill:#FFEEA5;}
	.st117{fill:#FFFFFA;}
	.st118{fill:#FFFFFF;}
	.st119{fill:#644421;}
	.st120{fill:none;}
	.st121{fill:#65A844;}
	.st122{fill:#CB4645;}
	.st123{fill:#69C8CF;}
	.st124{fill:#CCCBCB;}
	.st125{fill:#30302F;}
	.st126{fill:#9F7534;}
	.st127{fill:#9F77AA;}
	.st128{fill:#CECECD;}
	.st129{fill:#CECFD0;}
	.st130{fill:#336C75;}
	.st131{fill:#343433;}
	.st132{fill:#344E5D;}
	.st133{fill:#353535;}
	.st134{fill:#357180;}
	.st135{fill:#377CA5;}
	.st136{fill:#383939;}
	.st137{fill-rule:evenodd;clip-rule:evenodd;fill:#97D6D5;}
	.st138{fill:#388388;}
	.st139{fill:#6E5538;}
	.st140{fill:#00A79E;}
	.st141{fill:#D0A288;}
	.st142{fill:#D0E8D0;}
	.st143{fill:#D1AF2B;}
	.st144{fill:#D2B488;}
	.st145{fill:#D2D2D2;}
	.st146{fill-rule:evenodd;clip-rule:evenodd;fill:#63AAA5;}
	.st147{fill:#D3B85F;}
	.st148{fill:#D3B95F;}
	.st149{fill:#D3D3D3;}
	.st150{fill:#D54027;}
	.st151{fill:#3AB780;}
	.st152{fill:#D5BA8A;}
	.st153{fill:#D62127;}
	.st154{fill:#D68936;}
	.st155{fill:#3CB881;}
	.st156{fill:#D7D7D7;}
	.st157{fill:#D7DABA;}
	.st158{fill:#D8D8D7;}
	.st159{fill:#714D22;}
	.st160{fill:#A0D9DC;}
	.st161{fill:#A2D4DE;}
	.st162{fill:#A46434;}
	.st163{fill:#A4A4A4;}
	.st164{fill:#A6A5A5;}
	.st165{fill:#DAA9A3;}
	.st166{fill:#DBBA33;}
	.st167{fill:#DBD3BB;}
	.st168{fill:#DBDDDC;}
	.st169{fill:#DCBF8D;}
	.st170{fill:#DCC172;}
	.st171{fill:#DCDFE0;}
	.st172{fill:#DDC272;}
	.st173{fill:#DDD2A5;}
	.st174{fill:#DDDDDC;}
	.st175{fill:#DDDFE0;}
	.st176{fill:#414141;}
	.st177{fill:#DFC191;}
	.st178{fill:#DFDDDC;}
	.st179{fill:#DFE0E0;}
	.st180{fill:#DFE0E1;}
]]>
</style>
<g>
	<g>
		<g>
			<g>
				<g>
					<g>
						<path class="st121" d="M5.081,68.417c0-34.982,28.355-63.336,63.336-63.336c34.979,0,63.334,28.354,63.334,63.336
							c0,34.979-28.355,63.336-63.334,63.336C33.437,131.752,5.081,103.395,5.081,68.417z"/>
					</g>
				</g>
			</g>
		</g>
	</g>
	<g>
		<g>
			<g>
				<g>
					<path class="st109" d="M45.28,57.204c0,0,14.539,43.715,20.08,64.928l1.643-0.639c0,0-17.529-54.643-20.063-64.094
						C44.71,49.065,45.28,57.204,45.28,57.204z"/>
				</g>
				<g>
					<path class="st109" d="M90.458,57.354c0,0-16.889,43.713-18.717,65.561l1.738,0.316c0,0,6.316-34.271,18.479-65.141
						C95.12,50.065,90.458,57.354,90.458,57.354z"/>
				</g>
				<g>
					<path class="st109" d="M76.692,55.567c0,0-1.311,43.652,0.229,63.17l1.453,0.23c0,0-1.49-55.365-0.252-62.969
						S76.692,55.567,76.692,55.567z"/>
				</g>
				<g>
					<path class="st109" d="M61.286,54.188c0,0-0.307,45.549,1.295,65.883l1.539-0.059c0,0-2.635-57.453-1.344-65.373
						C64.067,46.717,61.286,54.188,61.286,54.188z"/>
				</g>
				<g>
					<path class="st109" d="M54.489,41.959c0,0,5.045,32.818,8.889,47.197l1.863-0.334c0,0-9.5-40.883-9.623-46.738
						S54.489,41.959,54.489,41.959z"/>
				</g>
				<g>
					<path class="st109" d="M68.315,35.764c0,0-3.363,61.766,0.426,83.359l1.736-0.473c0,0-1.096-73.951-0.521-82.557
						C70.528,27.487,68.315,35.764,68.315,35.764z"/>
				</g>
			</g>
			<g class="st113">
				<path class="st6" d="M83.112,114.227H55.001c-2.244,0,3.391-14.76,3.391-14.76L39.198,62.682c0-4.268,3.459-7.725,7.727-7.725
					h44.104c4.268,0,7.727,3.457,7.727,7.725L79.562,99.147C79.562,99.147,85.022,114.227,83.112,114.227z"/>
			</g>
			<g class="st111">
				<path class="st6" d="M69.843,114.227H55.001c-1.91,0,3.391-14.76,3.391-14.76L39.198,62.682c0-4.268,3.459-7.725,7.727-7.725
					l35.477,17.656L69.843,114.227z"/>
			</g>
			<g>
				<g>
					<g>
						<g>
							<g>
								<path class="st72" d="M49.603,40.725c0.246,2.971-1.145,6.09-3.16,6.254c-2.016,0.166-3.895-2.684-4.139-5.654
									s1.24-4.936,3.256-5.102C47.575,36.059,49.358,37.754,49.603,40.725z"/>
							</g>
							<g>
								<path class="st22" d="M48.776,41.852c0.18,2.178-0.85,4.328-2.326,4.449c-1.479,0.121-2.846-1.834-3.023-4.01
									c-0.18-2.178,0.898-3.754,2.375-3.873C47.28,38.295,48.599,39.674,48.776,41.852z"/>
							</g>
						</g>
						<g>
							<g>
								<path class="st72" d="M54.591,45.469c-1.928,2.273-5.113,3.496-6.656,2.188c-1.545-1.309-0.857-4.652,1.07-6.926
									c1.93-2.271,4.367-2.613,5.91-1.305S56.519,43.196,54.591,45.469z"/>
							</g>
							<g>
								<path class="st22" d="M53.21,45.68c-1.414,1.668-3.662,2.461-4.793,1.502c-1.129-0.959-0.715-3.309,0.697-4.973
									c1.414-1.668,3.291-2.02,4.422-1.061C54.665,42.108,54.624,44.016,53.21,45.68z"/>
							</g>
						</g>
						<g>
							<g>
								<path class="st72" d="M45.823,56.827c-1.387-2.639-1.324-6.051,0.465-6.99c1.793-0.941,4.635,0.949,6.018,3.588
									c1.387,2.641,0.787,5.027-1.004,5.967C49.513,60.333,47.206,59.465,45.823,56.827z"/>
							</g>
							<g>
								<path class="st22" d="M46.142,55.469c-1.014-1.938-0.906-4.318,0.406-5.008c1.313-0.688,3.336,0.578,4.35,2.512
									c1.016,1.934,0.639,3.807-0.676,4.494C48.909,58.157,47.157,57.401,46.142,55.469z"/>
							</g>
						</g>
						<g>
							<g>
								<path class="st72" d="M38.073,46.811c2.967-0.281,6.1,1.07,6.291,3.084c0.189,2.012-2.637,3.926-5.604,4.205
									c-2.969,0.281-4.951-1.182-5.141-3.191C33.431,48.895,35.106,47.09,38.073,46.811z"/>
							</g>
							<g>
								<path class="st22" d="M39.208,47.624c2.176-0.205,4.34,0.797,4.479,2.273s-1.799,2.865-3.975,3.07s-3.764-0.852-3.902-2.33
									C35.671,49.161,37.034,47.827,39.208,47.624z"/>
							</g>
						</g>
						<g>
							<g>
								<path class="st72" d="M42.333,40.842c2.293,1.9,3.557,5.07,2.266,6.629c-1.289,1.559-4.641,0.912-6.936-0.986
									c-2.297-1.902-2.666-4.336-1.377-5.895S40.036,38.944,42.333,40.842z"/>
							</g>
							<g>
								<path class="st22" d="M42.562,42.221c1.684,1.391,2.504,3.631,1.559,4.771c-0.945,1.145-3.299,0.754-4.982-0.637
									c-1.684-1.395-2.059-3.266-1.113-4.406C38.97,40.807,40.878,40.827,42.562,42.221z"/>
							</g>
						</g>
						<g>
							<g>
								<path class="st72" d="M53.786,54.872c-2.98,0-5.977-1.637-5.979-3.658c0-2.023,2.994-3.664,5.973-3.666
									c2.98-0.004,4.818,1.637,4.82,3.656C58.603,53.227,56.767,54.868,53.786,54.872z"/>
							</g>
							<g>
								<path class="st22" d="M52.731,53.956c-2.186,0.002-4.248-1.199-4.248-2.682c-0.002-1.482,2.059-2.686,4.242-2.686
									c2.186-0.004,3.668,1.197,3.67,2.682C56.396,52.752,54.915,53.954,52.731,53.956z"/>
							</g>
						</g>
						<g>
							<g>
								<path class="st72" d="M39.103,54.817c0.889-2.844,3.344-5.215,5.273-4.613c1.932,0.604,2.605,3.947,1.719,6.793
									c-0.889,2.846-3,4.111-4.93,3.51C39.233,59.905,38.216,57.661,39.103,54.817z"/>
							</g>
							<g>
								<path class="st22" d="M40.29,54.083c0.65-2.086,2.41-3.695,3.826-3.252c1.416,0.441,1.949,2.764,1.301,4.852
									c-0.65,2.084-2.24,3.141-3.656,2.699C40.345,57.942,39.642,56.168,40.29,54.083z"/>
							</g>
						</g>
						<g>
							
								<ellipse transform="matrix(-0.9966 0.0818 -0.0818 -0.9966 95.4719 95.336)" class="st69" cx="45.782" cy="49.625" rx="4.809" ry="4.261"/>
						</g>
						<g>
							
								<ellipse transform="matrix(-0.9967 0.0816 -0.0816 -0.9967 95.4612 95.3456)" class="st17" cx="45.781" cy="49.625" rx="3.17" ry="2.809"/>
						</g>
					</g>
				</g>
			</g>
			<g>
				<g>
					<g>
						<g>
							<g>
								<path class="st72" d="M100.017,43.252c-0.758,2.883-3.107,5.361-5.063,4.846c-1.955-0.514-2.779-3.826-2.021-6.709
									s2.811-4.24,4.768-3.729C99.655,38.176,100.772,40.37,100.017,43.252z"/>
							</g>
							<g>
								<path class="st22" d="M98.86,44.04c-0.555,2.113-2.24,3.799-3.674,3.422c-1.434-0.379-2.072-2.676-1.518-4.787
									c0.557-2.115,2.096-3.24,3.531-2.863C98.632,40.188,99.417,41.926,98.86,44.04z"/>
							</g>
						</g>
						<g>
							<g>
								<path class="st72" d="M103.142,49.385c-2.574,1.5-5.986,1.596-7.006-0.152c-1.02-1.744,0.74-4.672,3.314-6.174
									c2.574-1.5,4.986-1.012,6.008,0.734C106.476,45.542,105.714,47.883,103.142,49.385z"/>
							</g>
							<g>
								<path class="st22" d="M101.769,49.125c-1.887,1.102-4.271,1.102-5.02-0.18c-0.748-1.277,0.428-3.357,2.313-4.457
									c1.887-1.102,3.775-0.809,4.521,0.471C104.329,46.241,103.655,48.024,101.769,49.125z"/>
							</g>
						</g>
						<g>
							<g>
								<path class="st72" d="M91.093,57.178c-0.428-2.947,0.766-6.146,2.766-6.436c2.002-0.291,4.055,2.436,4.482,5.387
									c0.428,2.947-0.932,5-2.934,5.291C93.407,61.713,91.522,60.129,91.093,57.178z"/>
							</g>
							<g>
								<path class="st22" d="M91.849,56.004c-0.314-2.162,0.58-4.375,2.047-4.586c1.467-0.213,2.951,1.652,3.266,3.814
									s-0.664,3.803-2.131,4.014C93.563,59.461,92.163,58.165,91.849,56.004z"/>
							</g>
						</g>
						<g>
							<g>
								<path class="st72" d="M87.118,45.157c2.891,0.721,5.396,3.037,4.906,5c-0.492,1.961-3.793,2.826-6.684,2.104
									c-2.893-0.725-4.275-2.762-3.787-4.723C82.046,45.577,84.226,44.432,87.118,45.157z"/>
							</g>
							<g>
								<path class="st22" d="M87.917,46.299c2.121,0.529,3.828,2.195,3.469,3.633c-0.361,1.439-2.652,2.105-4.771,1.574
									c-2.119-0.529-3.266-2.055-2.904-3.494C84.069,46.573,85.798,45.768,87.917,46.299z"/>
							</g>
						</g>
						<g>
							<g>
								<path class="st72" d="M93.12,40.944c1.531,2.555,1.666,5.965-0.068,7.006s-4.68-0.684-6.211-3.238
									c-1.537-2.557-1.074-4.975,0.662-6.016C89.235,37.653,91.587,38.389,93.12,40.944z"/>
							</g>
							<g>
								<path class="st22" d="M92.876,42.321c1.125,1.871,1.154,4.256-0.117,5.018c-1.273,0.764-3.361-0.385-4.486-2.258
									c-1.125-1.875-0.855-3.764,0.416-4.525C89.96,39.792,91.753,40.446,92.876,42.321z"/>
							</g>
						</g>
						<g>
							<g>
								<path class="st72" d="M99.255,57.983c-2.813-0.99-5.092-3.531-4.42-5.438c0.672-1.908,4.041-2.461,6.85-1.469
									c2.813,0.986,4,3.143,3.33,5.051C104.343,58.036,102.065,58.971,99.255,57.983z"/>
							</g>
							<g>
								<path class="st22" d="M98.565,56.77c-2.063-0.725-3.607-2.543-3.115-3.941s2.834-1.85,4.895-1.123
									c2.061,0.725,3.061,2.35,2.57,3.75C102.421,56.852,100.624,57.493,98.565,56.77z"/>
							</g>
						</g>
						<g>
							<g>
								<path class="st72" d="M85.425,53.047c1.785-2.385,4.889-3.805,6.508-2.596c1.621,1.211,1.143,4.59-0.639,6.979
									c-1.783,2.387-4.197,2.877-5.816,1.67C83.856,57.891,83.642,55.436,85.425,53.047z"/>
							</g>
							<g>
								<path class="st22" d="M86.79,52.752c1.307-1.752,3.504-2.684,4.689-1.797c1.188,0.889,0.92,3.256-0.387,5.01
									c-1.309,1.748-3.156,2.217-4.346,1.328C85.558,56.409,85.483,54.502,86.79,52.752z"/>
							</g>
						</g>
						<g>
							
								<ellipse transform="matrix(-0.9671 -0.2544 0.2544 -0.9671 171.0114 122.8667)" class="st69" cx="93.451" cy="50.375" rx="4.81" ry="4.262"/>
						</g>
						<g>
							
								<ellipse transform="matrix(-0.9671 -0.2545 0.2545 -0.9671 171.0068 122.87)" class="st17" cx="93.451" cy="50.374" rx="3.17" ry="2.809"/>
						</g>
					</g>
				</g>
			</g>
			<g>
				<g>
					<g>
						<g>
							<g>
								<path class="st72" d="M82.354,42.696c-0.252,2.648-1.965,5.172-3.762,5c-1.799-0.17-3.002-2.973-2.75-5.619
									c0.252-2.652,1.867-4.145,3.664-3.977C81.304,38.274,82.606,40.047,82.354,42.696z"/>
							</g>
							<g>
								<path class="st22" d="M81.45,43.555c-0.186,1.943-1.428,3.672-2.746,3.547c-1.318-0.127-2.211-2.061-2.027-4.002
									c0.188-1.941,1.381-3.158,2.699-3.031S81.636,41.614,81.45,43.555z"/>
							</g>
						</g>
						<g>
							<g>
								<path class="st72" d="M85.993,47.649c-2.053,1.695-5.047,2.27-6.195,0.879c-1.152-1.393-0.021-4.227,2.029-5.922
									c2.053-1.693,4.25-1.611,5.4-0.217C88.378,43.782,88.044,45.954,85.993,47.649z"/>
							</g>
							<g>
								<path class="st22" d="M84.745,47.618c-1.504,1.242-3.605,1.59-4.449,0.566c-0.842-1.02-0.107-3.02,1.395-4.262
									c1.506-1.242,3.211-1.258,4.055-0.236C86.587,44.706,86.251,46.377,84.745,47.618z"/>
							</g>
						</g>
						<g>
							<g>
								<path class="st72" d="M76.499,56.254c-0.801-2.533-0.213-5.527,1.51-6.07c1.723-0.545,3.926,1.564,4.727,4.102
									c0.803,2.537-0.1,4.541-1.822,5.086C79.194,59.918,77.304,58.793,76.499,56.254z"/>
							</g>
							<g>
								<path class="st22" d="M76.995,55.114c-0.588-1.863-0.119-3.941,1.143-4.34s2.84,1.031,3.428,2.893
									c0.59,1.859-0.035,3.447-1.299,3.844C79.005,57.911,77.583,56.971,76.995,55.114z"/>
							</g>
						</g>
						<g>
							<g>
								<path class="st72" d="M71.261,46.233c2.652,0.221,5.195,1.898,5.047,3.701c-0.15,1.797-2.936,3.037-5.588,2.816
									s-4.166-1.816-4.018-3.615S68.608,46.012,71.261,46.233z"/>
							</g>
							<g>
								<path class="st22" d="M72.132,47.125c1.945,0.162,3.689,1.383,3.58,2.701c-0.111,1.32-2.033,2.238-3.979,2.076
									c-1.943-0.16-3.174-1.34-3.063-2.66C68.78,47.92,70.187,46.963,72.132,47.125z"/>
							</g>
						</g>
						<g>
							<g>
								<path class="st72" d="M75.944,41.655c1.717,2.031,2.33,5.018,0.951,6.184c-1.379,1.17-4.225,0.074-5.943-1.955
									c-1.721-2.035-1.662-4.23-0.283-5.398C72.046,39.317,74.224,39.625,75.944,41.655z"/>
							</g>
							<g>
								<path class="st22" d="M75.929,42.905c1.26,1.486,1.631,3.584,0.621,4.438C75.536,48.2,73.53,47.489,72.269,46
									c-1.262-1.49-1.297-3.191-0.285-4.049C72.993,41.096,74.667,41.415,75.929,42.905z"/>
							</g>
						</g>
						<g>
							<g>
								<path class="st72" d="M83.808,55.788c-2.619-0.467-4.996-2.377-4.68-4.154c0.318-1.777,3.207-2.752,5.826-2.283
									c2.621,0.463,3.979,2.193,3.662,3.971C88.3,55.1,86.429,56.254,83.808,55.788z"/>
							</g>
							<g>
								<path class="st22" d="M83.026,54.819c-1.922-0.342-3.547-1.723-3.314-3.025c0.23-1.303,2.232-2.039,4.152-1.695
									c1.92,0.342,3.035,1.631,2.805,2.934C86.435,54.334,84.944,55.159,83.026,54.819z"/>
							</g>
						</g>
						<g>
							<g>
								<path class="st72" d="M70.907,53.432c1.23-2.359,3.76-4.057,5.361-3.227c1.604,0.836,1.67,3.881,0.443,6.242
									s-3.283,3.143-4.885,2.311C70.226,57.928,69.681,55.793,70.907,53.432z"/>
							</g>
							<g>
								<path class="st22" d="M72.067,52.975c0.9-1.73,2.701-2.869,3.875-2.258s1.279,2.736,0.381,4.469
									c-0.9,1.73-2.461,2.41-3.639,1.799C71.509,56.375,71.169,54.708,72.067,52.975z"/>
							</g>
						</g>
						<g>
							
								<ellipse transform="matrix(-0.9955 -0.0948 0.0948 -0.9955 150.1104 106.9717)" class="st69" cx="77.597" cy="49.919" rx="4.295" ry="3.807"/>
						</g>
						<g>
							
								<ellipse transform="matrix(-0.9955 -0.0949 0.0949 -0.9955 150.1084 106.9705)" class="st17" cx="77.597" cy="49.917" rx="2.831" ry="2.508"/>
						</g>
					</g>
				</g>
			</g>
			<g>
				<g>
					<g>
						<g>
							<g>
								<path class="st72" d="M69.05,44.292c-0.262,2.76-2.047,5.389-3.918,5.209c-1.875-0.178-3.129-3.096-2.865-5.855
									c0.262-2.762,1.945-4.316,3.818-4.143C67.956,39.684,69.313,41.532,69.05,44.292z"/>
							</g>
							<g>
								<path class="st22" d="M68.108,45.186c-0.193,2.023-1.488,3.824-2.859,3.695c-1.375-0.133-2.305-2.146-2.113-4.168
									c0.193-2.025,1.438-3.291,2.811-3.158C67.319,41.686,68.302,43.163,68.108,45.186z"/>
							</g>
						</g>
						<g>
							<g>
								<path class="st72" d="M72.841,49.452c-2.139,1.764-5.256,2.363-6.455,0.916c-1.199-1.451-0.021-4.406,2.115-6.17
									c2.139-1.766,4.428-1.678,5.627-0.227S74.979,47.686,72.841,49.452z"/>
							</g>
							<g>
								<path class="st22" d="M71.542,49.418c-1.568,1.295-3.756,1.656-4.635,0.592c-0.879-1.063-0.113-3.146,1.453-4.441
									c1.568-1.293,3.344-1.311,4.221-0.246C73.46,46.385,73.108,48.125,71.542,49.418z"/>
							</g>
						</g>
						<g>
							<g>
								<path class="st72" d="M62.95,58.417c-0.836-2.641-0.223-5.758,1.572-6.322c1.795-0.568,4.088,1.627,4.924,4.271
									c0.838,2.643-0.104,4.73-1.896,5.299S63.788,61.063,62.95,58.417z"/>
							</g>
							<g>
								<path class="st22" d="M63.466,57.227c-0.611-1.939-0.123-4.105,1.191-4.52c1.314-0.416,2.959,1.074,3.572,3.014
									c0.613,1.938-0.039,3.59-1.354,4.002C65.56,60.143,64.079,59.163,63.466,57.227z"/>
							</g>
						</g>
						<g>
							<g>
								<path class="st72" d="M57.493,47.977c2.764,0.229,5.412,1.977,5.256,3.855c-0.156,1.871-3.057,3.162-5.82,2.934
									c-2.764-0.23-4.34-1.893-4.186-3.768C52.899,49.127,54.729,47.747,57.493,47.977z"/>
							</g>
							<g>
								<path class="st22" d="M58.399,48.907c2.027,0.168,3.844,1.441,3.73,2.814c-0.115,1.375-2.117,2.332-4.145,2.162
									c-2.025-0.168-3.307-1.396-3.191-2.773S56.374,48.737,58.399,48.907z"/>
							</g>
						</g>
						<g>
							<g>
								<path class="st72" d="M62.372,43.208c1.789,2.115,2.426,5.227,0.99,6.441c-1.436,1.217-4.4,0.076-6.189-2.037
									c-1.795-2.119-1.732-4.408-0.297-5.625S60.579,41.092,62.372,43.208z"/>
							</g>
							<g>
								<path class="st22" d="M62.356,44.508c1.313,1.549,1.699,3.734,0.645,4.625c-1.053,0.893-3.145,0.15-4.459-1.398
									c-1.314-1.553-1.35-3.326-0.297-4.219S61.04,42.956,62.356,44.508z"/>
							</g>
						</g>
						<g>
							<g>
								<path class="st72" d="M70.563,57.93c-2.729-0.486-5.203-2.477-4.875-4.328c0.332-1.852,3.342-2.867,6.07-2.379
									c2.73,0.484,4.145,2.287,3.814,4.139C75.245,57.213,73.294,58.417,70.563,57.93z"/>
							</g>
							<g>
								<path class="st22" d="M69.751,56.92c-2.004-0.355-3.695-1.793-3.453-3.15c0.24-1.359,2.324-2.125,4.324-1.768
									c2.002,0.355,3.162,1.699,2.924,3.057C73.302,56.417,71.749,57.274,69.751,56.92z"/>
							</g>
						</g>
						<g>
							<g>
								<path class="st72" d="M57.126,55.475c1.279-2.457,3.916-4.225,5.586-3.359c1.668,0.869,1.738,4.041,0.461,6.504
									c-1.279,2.459-3.422,3.273-5.09,2.406C56.413,60.161,55.847,57.938,57.126,55.475z"/>
							</g>
							<g>
								<path class="st22" d="M58.335,54.999c0.936-1.803,2.813-2.988,4.035-2.352c1.225,0.637,1.332,2.852,0.396,4.656
									c-0.938,1.803-2.564,2.51-3.791,1.875C57.753,58.543,57.397,56.803,58.335,54.999z"/>
							</g>
						</g>
						<g>
							
								<ellipse transform="matrix(-0.9955 -0.0949 0.0949 -0.9955 122.9784 109.483)" class="st69" cx="64.094" cy="51.816" rx="4.474" ry="3.966"/>
						</g>
						<g>
							
								<ellipse transform="matrix(-0.9955 -0.095 0.095 -0.9955 122.9708 109.485)" class="st17" cx="64.093" cy="51.814" rx="2.949" ry="2.612"/>
						</g>
					</g>
				</g>
			</g>
			<g>
				<g>
					<g>
						<g>
							<g>
								<path class="st72" d="M57.933,32.211c0.176,2.016-0.756,4.141-2.123,4.26c-1.369,0.119-2.654-1.809-2.832-3.822
									c-0.178-2.018,0.824-3.357,2.191-3.479C56.538,29.051,57.755,30.198,57.933,32.211z"/>
							</g>
							<g>
								<path class="st22" d="M57.376,32.981c0.129,1.477-0.563,2.939-1.564,3.029c-1.004,0.086-1.938-1.232-2.068-2.711
									c-0.129-1.479,0.596-2.553,1.6-2.639C56.345,30.573,57.245,31.502,57.376,32.981z"/>
							</g>
						</g>
						<g>
							<g>
								<path class="st72" d="M61.337,35.415c-1.301,1.549-3.461,2.393-4.512,1.512c-1.053-0.883-0.6-3.158,0.701-4.709
									c1.301-1.549,2.953-1.789,4.006-0.906S62.636,33.864,61.337,35.415z"/>
							</g>
							<g>
								<path class="st22" d="M60.399,35.565c-0.953,1.135-2.477,1.684-3.248,1.035c-0.771-0.645-0.498-2.242,0.453-3.379
									c0.955-1.137,2.229-1.383,2.998-0.736C61.374,33.131,61.353,34.428,60.399,35.565z"/>
							</g>
						</g>
						<g>
							<g>
								<path class="st72" d="M55.425,43.159c-0.949-1.785-0.92-4.104,0.291-4.746c1.213-0.646,3.15,0.625,4.1,2.412
									c0.951,1.787,0.553,3.41-0.658,4.055C57.944,45.526,56.378,44.946,55.425,43.159z"/>
							</g>
							<g>
								<path class="st22" d="M55.638,42.235c-0.695-1.309-0.633-2.928,0.256-3.4c0.889-0.471,2.268,0.379,2.963,1.689
									c0.697,1.309,0.449,2.582-0.441,3.053C57.526,44.051,56.335,43.543,55.638,42.235z"/>
							</g>
						</g>
						<g>
							<g>
								<path class="st72" d="M50.128,36.389c2.014-0.203,4.145,0.701,4.281,2.07c0.135,1.365-1.775,2.676-3.787,2.875
									c-2.014,0.203-3.367-0.783-3.504-2.146C46.981,37.823,48.112,36.59,50.128,36.389z"/>
							</g>
							<g>
								<path class="st22" d="M50.899,36.938c1.477-0.15,2.949,0.523,3.051,1.523c0.1,1.002-1.211,1.953-2.688,2.102
									c-1.477,0.146-2.559-0.564-2.658-1.568C48.505,37.993,49.425,37.083,50.899,36.938z"/>
							</g>
						</g>
						<g>
							<g>
								<path class="st72" d="M52.995,32.319c1.566,1.283,2.434,3.43,1.564,4.492c-0.869,1.064-3.148,0.639-4.713-0.643
									c-1.568-1.281-1.826-2.934-0.957-3.996C49.759,31.108,51.431,31.04,52.995,32.319z"/>
							</g>
							<g>
								<path class="st22" d="M53.157,33.254c1.146,0.939,1.713,2.455,1.074,3.234c-0.639,0.781-2.236,0.525-3.385-0.412
									c-1.148-0.941-1.41-2.209-0.771-2.988S52.007,32.315,53.157,33.254z"/>
							</g>
						</g>
						<g>
							<g>
								<path class="st72" d="M60.825,41.801c-2.023,0.012-4.063-1.088-4.072-2.461c-0.008-1.373,2.018-2.5,4.041-2.512
									c2.023-0.014,3.277,1.092,3.285,2.465C64.089,40.667,62.849,41.788,60.825,41.801z"/>
							</g>
							<g>
								<path class="st22" d="M60.106,41.182c-1.484,0.012-2.889-0.797-2.895-1.803s1.387-1.832,2.871-1.84
									c1.482-0.01,2.492,0.799,2.5,1.807C62.591,40.35,61.589,41.174,60.106,41.182z"/>
							</g>
						</g>
						<g>
							<g>
								<path class="st72" d="M50.854,41.819c0.594-1.932,2.252-3.553,3.564-3.15c1.314,0.402,1.783,2.67,1.193,4.605
									c-0.592,1.936-2.021,2.803-3.334,2.402C50.966,45.274,50.265,43.754,50.854,41.819z"/>
							</g>
							<g>
								<path class="st22" d="M51.661,41.317c0.432-1.418,1.621-2.518,2.584-2.223s1.334,1.871,0.9,3.289s-1.506,2.143-2.471,1.846
									C51.712,43.938,51.226,42.735,51.661,41.317z"/>
							</g>
						</g>
						<g>
							
								<ellipse transform="matrix(-0.9962 0.0873 -0.0873 -0.9962 113.8726 71.5585)" class="st69" cx="55.371" cy="38.27" rx="3.265" ry="2.894"/>
						</g>
						<g>
							
								<ellipse transform="matrix(-0.9962 0.0876 -0.0876 -0.9962 113.8813 71.5411)" class="st17" cx="55.371" cy="38.269" rx="2.152" ry="1.907"/>
						</g>
					</g>
				</g>
			</g>
			<g>
				<g>
					<g>
						<g>
							<g>
								<path class="st72" d="M74.017,23.223c0,2.98-1.639,5.975-3.66,5.975c-2.023,0-3.664-2.994-3.664-5.975
									s1.641-4.818,3.664-4.818C72.378,18.405,74.017,20.243,74.017,23.223z"/>
							</g>
							<g>
								<path class="st22" d="M73.101,24.278c0,2.184-1.201,4.244-2.684,4.244s-2.684-2.061-2.684-4.244
									c0-2.186,1.201-3.666,2.684-3.666S73.101,22.092,73.101,24.278z"/>
							</g>
						</g>
						<g>
							<g>
								<path class="st72" d="M78.599,28.36c-2.105,2.105-5.383,3.064-6.813,1.633c-1.43-1.428-0.473-4.705,1.635-6.813
									s4.566-2.248,5.996-0.816C80.847,23.793,80.706,26.25,78.599,28.36z"/>
							</g>
							<g>
								<path class="st22" d="M77.206,28.456c-1.545,1.547-3.85,2.154-4.9,1.105c-1.047-1.049-0.439-3.355,1.104-4.9
									c1.545-1.545,3.443-1.742,4.492-0.693C78.95,25.014,78.751,26.913,77.206,28.456z"/>
							</g>
						</g>
						<g>
							<g>
								<path class="st72" d="M68.931,38.961c-1.164-2.744-0.824-6.141,1.037-6.93c1.863-0.791,4.541,1.326,5.705,4.068
									c1.164,2.744,0.371,5.076-1.49,5.865C72.321,42.756,70.095,41.704,68.931,38.961z"/>
							</g>
							<g>
								<path class="st22" d="M69.362,37.633c-0.854-2.012-0.553-4.377,0.813-4.957c1.365-0.578,3.277,0.848,4.131,2.859
									c0.852,2.01,0.324,3.846-1.041,4.424C71.899,40.54,70.216,39.643,69.362,37.633z"/>
							</g>
						</g>
						<g>
							<g>
								<path class="st72" d="M62.026,28.344c2.98-0.037,5.994,1.566,6.018,3.588c0.025,2.023-2.947,3.699-5.928,3.734
									c-2.98,0.037-4.838-1.584-4.861-3.604C57.229,30.042,59.048,28.381,62.026,28.344z"/>
							</g>
							<g>
								<path class="st22" d="M63.093,29.247c2.184-0.027,4.26,1.15,4.277,2.633s-2.027,2.709-4.213,2.734
									c-2.184,0.027-3.68-1.156-3.697-2.639C59.44,30.491,60.909,29.272,63.093,29.247z"/>
							</g>
						</g>
						<g>
							<g>
								<path class="st72" d="M66.761,22.745c2.131,2.082,3.131,5.346,1.717,6.791c-1.412,1.449-4.699,0.529-6.832-1.551
									c-2.133-2.082-2.303-4.539-0.891-5.986S64.628,20.665,66.761,22.745z"/>
							</g>
							<g>
								<path class="st22" d="M66.876,24.137c1.564,1.523,2.199,3.822,1.164,4.883c-1.037,1.063-3.35,0.482-4.914-1.043
									s-1.785-3.422-0.748-4.482C63.413,22.434,65.312,22.61,66.876,24.137z"/>
							</g>
						</g>
						<g>
							<g>
								<path class="st72" d="M77.028,37.663c-2.971-0.242-5.822-2.119-5.658-4.135c0.166-2.016,3.281-3.406,6.252-3.164
									c2.971,0.24,4.668,2.023,4.504,4.039C81.964,36.418,79.999,37.903,77.028,37.663z"/>
							</g>
							<g>
								<path class="st22" d="M76.052,36.665c-2.178-0.178-4.135-1.541-4.014-3.02c0.119-1.479,2.271-2.51,4.449-2.332
									c2.176,0.176,3.557,1.496,3.436,2.973C79.804,35.764,78.228,36.84,76.052,36.665z"/>
							</g>
						</g>
						<g>
							<g>
								<path class="st72" d="M62.399,36.409c1.117-2.762,3.758-4.924,5.633-4.166s2.273,4.146,1.156,6.91s-3.326,3.852-5.201,3.094
									C62.114,41.491,61.282,39.17,62.399,36.409z"/>
							</g>
							<g>
								<path class="st22" d="M63.644,35.774c0.818-2.025,2.705-3.486,4.078-2.93c1.375,0.557,1.717,2.914,0.898,4.941
									c-0.818,2.025-2.488,2.949-3.863,2.393C63.382,39.624,62.825,37.799,63.644,35.774z"/>
							</g>
						</g>
						<g>
							<ellipse class="st69" cx="69.481" cy="31.78" rx="4.809" ry="4.264"/>
						</g>
						<g>
							<ellipse class="st17" cx="69.481" cy="31.78" rx="3.17" ry="2.811"/>
						</g>
					</g>
				</g>
			</g>
			<g>
				<g>
					<g>
						<g>
							<g>
								<path class="st72" d="M84.843,31.858c0.176,2.016-0.756,4.141-2.123,4.26c-1.369,0.119-2.656-1.809-2.832-3.822
									c-0.178-2.018,0.824-3.357,2.191-3.479C83.446,28.698,84.665,29.844,84.843,31.858z"/>
							</g>
							<g>
								<path class="st22" d="M84.284,32.627c0.129,1.477-0.561,2.939-1.563,3.029c-1.004,0.086-1.938-1.232-2.068-2.711
									s0.596-2.553,1.598-2.639C83.255,30.219,84.155,31.149,84.284,32.627z"/>
							</g>
						</g>
						<g>
							<g>
								<path class="st72" d="M88.245,35.061c-1.299,1.549-3.459,2.393-4.512,1.512c-1.053-0.883-0.598-3.158,0.703-4.709
									c1.299-1.549,2.953-1.789,4.006-0.906S89.546,33.51,88.245,35.061z"/>
							</g>
							<g>
								<path class="st22" d="M87.308,35.211c-0.953,1.135-2.477,1.684-3.248,1.035c-0.77-0.645-0.496-2.242,0.455-3.379
									c0.953-1.137,2.227-1.383,2.996-0.736C88.284,32.778,88.263,34.075,87.308,35.211z"/>
							</g>
						</g>
						<g>
							<g>
								<path class="st72" d="M82.335,42.805c-0.949-1.785-0.922-4.104,0.291-4.746c1.213-0.646,3.15,0.625,4.1,2.412
									c0.951,1.787,0.553,3.41-0.66,4.055C84.854,45.172,83.286,44.592,82.335,42.805z"/>
							</g>
							<g>
								<path class="st22" d="M82.548,41.883c-0.697-1.311-0.633-2.93,0.256-3.402c0.889-0.471,2.266,0.379,2.963,1.689
									c0.695,1.309,0.447,2.582-0.441,3.053C84.437,43.698,83.245,43.19,82.548,41.883z"/>
							</g>
						</g>
						<g>
							<g>
								<path class="st72" d="M77.036,36.036c2.014-0.203,4.145,0.701,4.283,2.07c0.135,1.365-1.777,2.676-3.789,2.875
									c-2.014,0.203-3.365-0.783-3.504-2.146C73.892,37.469,75.022,36.237,77.036,36.036z"/>
							</g>
							<g>
								<path class="st22" d="M77.81,36.584c1.477-0.15,2.949,0.523,3.049,1.523c0.102,1.002-1.211,1.953-2.686,2.102
									c-1.477,0.146-2.559-0.564-2.658-1.568C75.413,37.639,76.333,36.729,77.81,36.584z"/>
							</g>
						</g>
						<g>
							<g>
								<path class="st72" d="M79.905,31.965c1.564,1.283,2.434,3.43,1.564,4.492c-0.869,1.064-3.148,0.639-4.713-0.643
									c-1.568-1.281-1.828-2.934-0.957-3.996C76.669,30.754,78.339,30.686,79.905,31.965z"/>
							</g>
							<g>
								<path class="st22" d="M80.065,32.901c1.148,0.939,1.715,2.455,1.076,3.234c-0.639,0.781-2.236,0.525-3.385-0.412
									c-1.148-0.941-1.41-2.209-0.771-2.988C77.622,31.956,78.917,31.961,80.065,32.901z"/>
							</g>
						</g>
						<g>
							<g>
								<path class="st72" d="M87.735,41.448c-2.025,0.012-4.064-1.088-4.072-2.459c-0.008-1.375,2.016-2.502,4.041-2.514
									c2.023-0.014,3.277,1.092,3.285,2.465C90.999,40.313,89.759,41.434,87.735,41.448z"/>
							</g>
							<g>
								<path class="st22" d="M87.017,40.829c-1.484,0.012-2.889-0.797-2.895-1.803c-0.008-1.006,1.387-1.832,2.869-1.84
									c1.482-0.01,2.494,0.799,2.502,1.807C89.499,39.997,88.499,40.821,87.017,40.829z"/>
							</g>
						</g>
						<g>
							<g>
								<path class="st72" d="M77.765,41.465c0.594-1.932,2.252-3.553,3.564-3.15s1.783,2.67,1.193,4.605
									c-0.592,1.936-2.023,2.803-3.336,2.402C77.874,44.92,77.173,43.401,77.765,41.465z"/>
							</g>
							<g>
								<path class="st22" d="M78.569,40.965c0.434-1.42,1.623-2.52,2.586-2.225c0.961,0.295,1.334,1.871,0.9,3.289
									s-1.508,2.143-2.471,1.848C78.62,43.584,78.136,42.381,78.569,40.965z"/>
							</g>
						</g>
						<g>
							
								<ellipse transform="matrix(-0.9962 0.0873 -0.0873 -0.9962 167.5593 68.5028)" class="st69" cx="82.281" cy="37.917" rx="3.265" ry="2.894"/>
						</g>
						<g>
							
								<ellipse transform="matrix(-0.9962 0.0875 -0.0875 -0.9962 167.5641 68.4819)" class="st17" cx="82.28" cy="37.916" rx="2.153" ry="1.907"/>
						</g>
					</g>
				</g>
			</g>
		</g>
		<g>
			<g>
				<path class="st22" d="M79.562,99.147l0.623-1.186l-12.916,1.42l-9.662-1.42l0.785,1.506c0,0-0.055,0.141-0.146,0.391
					l9.682,1.418l11.887-1.418C79.657,99.409,79.562,99.147,79.562,99.147z"/>
			</g>
		</g>
	</g>
</g>
</svg>
