<?xml version="1.0" encoding="utf-8"?>
<!-- Generator: Adobe Illustrator 16.0.0, SVG Export Plug-In . SVG Version: 6.00 Build 0)  -->
<!DOCTYPE svg PUBLIC "-//W3C//DTD SVG 1.1//EN" "http://www.w3.org/Graphics/SVG/1.1/DTD/svg11.dtd">
<svg version="1.1" id="Layer_1" xmlns="http://www.w3.org/2000/svg" xmlns:xlink="http://www.w3.org/1999/xlink" x="0px" y="0px"
	 width="136.833px" height="136.833px" viewBox="0 0 136.833 136.833" style="enable-background:new 0 0 136.833 136.833;"
	 xml:space="preserve">
<style type="text/css">
<![CDATA[
	.st0{fill:#7A5628;}
	.st1{fill:#49A0AE;}
	.st2{fill:#ACA8A9;}
	.st3{fill:#7DB6B7;}
	.st4{fill:#11100E;}
	.st5{fill:#7FCDCC;}
	.st6{fill:#E0DAD2;}
	.st7{fill:#E1E1E1;}
	.st8{fill:#13B3CA;}
	.st9{fill:#E3E4E5;}
	.st10{fill:#15B5AC;}
	.st11{fill:#E4B894;}
	.st12{fill:#E4C88F;}
	.st13{fill:#E4DED0;}
	.st14{fill:#4A86C5;}
	.st15{fill:#4ABC96;}
	.st16{fill:#171413;}
	.st17{fill:#E5CE27;}
	.st18{fill:#187070;}
	.st19{fill:#E7CB7C;}
	.st20{fill:#E7DDB3;}
	.st21{fill:#E7E9EA;}
	.st22{fill:#E84849;}
	.st23{fill:#E89423;}
	.st24{fill:#E8CC7C;}
	.st25{fill:#E8EAEB;}
	.st26{fill:#E97539;}
	.st27{fill:#E9C29C;}
	.st28{fill:#E9DC96;}
	.st29{fill:#B16E29;}
	.st30{opacity:0.01;}
	.st31{opacity:0.45;}
	.st32{fill:#1A1919;}
	.st33{fill:#B69B30;}
	.st34{fill:#EADD97;}
	.st35{fill:#EB9682;}
	.st36{fill:#B7B7B7;}
	.st37{fill:#EBD9A9;}
	.st38{fill:#1DA049;}
	.st39{fill:#1E1913;}
	.st40{fill:#1E1B17;}
	.st41{fill:#ECDAAA;}
	.st42{fill:#ECE6D5;}
	.st43{fill:#ED3351;}
	.st44{fill:#B9B9BA;}
	.st45{fill:#EDECED;}
	.st46{fill:#1FA85B;}
	.st47{fill:#EEE17F;}
	.st48{fill:#EEE4B8;}
	.st49{fill-rule:evenodd;clip-rule:evenodd;fill:#7FCDCC;}
	.st50{fill:#515252;}
	.st51{fill:#543A1A;}
	.st52{fill:#BB2025;}
	.st53{fill:#8C652E;}
	.st54{fill:#8C8C8C;}
	.st55{fill:#212121;}
	.st56{fill:#BF2126;}
	.st57{fill:#BFBEBE;}
	.st58{fill:#F0C418;}
	.st59{fill:#F0CF6A;}
	.st60{fill:#F0E3C8;}
	.st61{fill:#F1D069;}
	.st62{fill:#F1E4C8;}
	.st63{fill:#F2D083;}
	.st64{fill:#F3BB70;}
	.st65{fill:#F3C715;}
	.st66{fill:#F3D183;}
	.st67{fill:#258C8E;}
	.st68{fill:#25999B;}
	.st69{fill:#F4E028;}
	.st70{fill:#F59798;}
	.st71{fill:#F5DE57;}
	.st72{fill:#F6A2A3;}
	.st73{fill:#F6F7F7;}
	.st74{fill:#28999B;}
	.st75{fill:#F7DF56;}
	.st76{fill:#29A5AE;}
	.st77{fill:#F8B85C;}
	.st78{fill:#F8D648;}
	.st79{fill:#F8DC62;}
	.st80{fill:#F8E69B;}
	.st81{fill:#F8E9AB;}
	.st82{fill:#F8F3DC;}
	.st83{fill:#F9A11C;}
	.st84{fill:#F9A72F;}
	.st85{fill:#F9A731;}
	.st86{fill:#F9E478;}
	.st87{fill:#F9EC34;}
	.st88{fill:#92C7CB;}
	.st89{fill:#93574E;}
	.st90{fill:#939291;}
	.st91{fill:#C2D2D3;}
	.st92{fill:#C42126;}
	.st93{fill:#C47267;}
	.st94{fill:#C4C3C3;}
	.st95{fill:#C5A72E;}
	.st96{fill:#2B2B2B;}
	.st97{fill:#2B5C64;}
	.st98{fill:#FACB83;}
	.st99{fill:#2D2D2D;}
	.st100{fill:#FBEC68;}
	.st101{fill:#2D646D;}
	.st102{fill:#FBF3CE;}
	.st103{fill:#C8802A;}
	.st104{fill:#99999A;}
	.st105{fill:#C8C8C8;}
	.st106{fill-rule:evenodd;clip-rule:evenodd;fill:#59A29F;}
	.st107{fill:#99CED5;}
	.st108{fill:#FDF3D0;}
	.st109{fill:#2F8442;}
	.st110{fill:#60441D;}
	.st111{opacity:0.5;}
	.st112{opacity:0.6;}
	.st113{opacity:0.8;}
	.st114{fill:#FFCE80;}
	.st115{fill:#FFEBBF;}
	.st116{fill:#FFEEA5;}
	.st117{fill:#FFFFFA;}
	.st118{fill:#FFFFFF;}
	.st119{fill:#644421;}
	.st120{fill:none;}
	.st121{fill:#65A844;}
	.st122{fill:#CB4645;}
	.st123{fill:#69C8CF;}
	.st124{fill:#CCCBCB;}
	.st125{fill:#30302F;}
	.st126{fill:#9F7534;}
	.st127{fill:#9F77AA;}
	.st128{fill:#CECECD;}
	.st129{fill:#CECFD0;}
	.st130{fill:#336C75;}
	.st131{fill:#343433;}
	.st132{fill:#344E5D;}
	.st133{fill:#353535;}
	.st134{fill:#357180;}
	.st135{fill:#377CA5;}
	.st136{fill:#383939;}
	.st137{fill-rule:evenodd;clip-rule:evenodd;fill:#97D6D5;}
	.st138{fill:#388388;}
	.st139{fill:#6E5538;}
	.st140{fill:#00A79E;}
	.st141{fill:#D0A288;}
	.st142{fill:#D0E8D0;}
	.st143{fill:#D1AF2B;}
	.st144{fill:#D2B488;}
	.st145{fill:#D2D2D2;}
	.st146{fill-rule:evenodd;clip-rule:evenodd;fill:#63AAA5;}
	.st147{fill:#D3B85F;}
	.st148{fill:#D3B95F;}
	.st149{fill:#D3D3D3;}
	.st150{fill:#D54027;}
	.st151{fill:#3AB780;}
	.st152{fill:#D5BA8A;}
	.st153{fill:#D62127;}
	.st154{fill:#D68936;}
	.st155{fill:#3CB881;}
	.st156{fill:#D7D7D7;}
	.st157{fill:#D7DABA;}
	.st158{fill:#D8D8D7;}
	.st159{fill:#714D22;}
	.st160{fill:#A0D9DC;}
	.st161{fill:#A2D4DE;}
	.st162{fill:#A46434;}
	.st163{fill:#A4A4A4;}
	.st164{fill:#A6A5A5;}
	.st165{fill:#DAA9A3;}
	.st166{fill:#DBBA33;}
	.st167{fill:#DBD3BB;}
	.st168{fill:#DBDDDC;}
	.st169{fill:#DCBF8D;}
	.st170{fill:#DCC172;}
	.st171{fill:#DCDFE0;}
	.st172{fill:#DDC272;}
	.st173{fill:#DDD2A5;}
	.st174{fill:#DDDDDC;}
	.st175{fill:#DDDFE0;}
	.st176{fill:#414141;}
	.st177{fill:#DFC191;}
	.st178{fill:#DFDDDC;}
	.st179{fill:#DFE0E0;}
	.st180{fill:#DFE0E1;}
]]>
</style>
<g>
	<g>
		<g>
			<g>
				<g>
					<g>
						<path class="st15" d="M5.081,68.417c0-34.982,28.357-63.336,63.338-63.336c34.977,0,63.334,28.354,63.334,63.336
							c0,34.978-28.357,63.335-63.334,63.335C33.438,131.752,5.081,103.395,5.081,68.417z"/>
					</g>
				</g>
			</g>
		</g>
	</g>
	<g>
		<g>
			<g>
				<g>
					<path class="st95" d="M57.542,27.01c-15.896,0-28.783,12.885-28.783,28.781s12.887,28.781,28.783,28.781
						c15.895,0,28.781-12.885,28.781-28.781S73.437,27.01,57.542,27.01z M57.542,77.691c-12.096,0-21.9-9.804-21.9-21.899
						s9.805-21.899,21.9-21.899c12.094,0,21.898,9.804,21.898,21.899S69.636,77.691,57.542,77.691z"/>
				</g>
			</g>
			<g>
				<g>
					<path class="st166" d="M79.292,52.26c-15.896,0-28.783,12.885-28.783,28.781c0,15.896,12.887,28.78,28.783,28.78
						c15.895,0,28.781-12.885,28.781-28.78C108.073,65.145,95.187,52.26,79.292,52.26z M79.292,102.941
						c-12.096,0-21.9-9.805-21.9-21.899c0-12.096,9.805-21.899,21.9-21.899c12.094,0,21.898,9.804,21.898,21.899
						C101.19,93.136,91.386,102.941,79.292,102.941z"/>
				</g>
			</g>
		</g>
		<g>
			<g>
				<path class="st120" d="M76.431,59.351c-8.711,1.14-15.799,7.384-18.17,15.644C67.341,74.659,74.802,68.042,76.431,59.351z"/>
			</g>
			<g>
				<path class="st120" d="M57.679,84.569c1.688,10.417,10.719,18.372,21.613,18.372c12.094,0,21.898-9.805,21.898-21.899
					c0-9.759-6.385-18.021-15.201-20.852C83.878,73.954,72.017,84.502,57.679,84.569z"/>
			</g>
			<g>
				<path class="st120" d="M57.542,36.555c-10.625,0-19.236,8.611-19.236,19.236c0,8.467,5.475,15.643,13.072,18.214
					C54.294,62.397,64.263,53.59,76.464,52.4C74.86,43.395,67.005,36.555,57.542,36.555z"/>
			</g>
			<g>
				<path class="st166" d="M86.194,53.098c0.082,0.887,0.129,1.785,0.129,2.693c0,1.496-0.113,2.965-0.334,4.398
					c8.816,2.83,15.201,11.093,15.201,20.852c0,12.095-9.805,21.899-21.898,21.899c-10.895,0-19.926-7.955-21.613-18.372
					c-0.186-1.148-0.287-2.326-0.287-3.527c0-0.592,0.025-1.177,0.072-1.756c-0.029-0.436-0.055-0.872-0.055-1.314
					c0-1.002,0.078-1.985,0.227-2.945c0.211-0.001,0.416-0.023,0.625-0.031c2.371-8.26,9.459-14.504,18.17-15.644
					c0.037-0.206,0.09-0.406,0.123-0.614c0.146-0.961,0.225-1.943,0.225-2.945c0-1.055-0.09-2.09-0.252-3.1
					c-0.018-0.098-0.045-0.193-0.063-0.292c-12.201,1.19-22.17,9.997-25.086,21.605c0.094,0.032,0.184,0.072,0.279,0.103
					c-0.193,1.26-0.293,2.549-0.293,3.863c0,0.797,0.041,1.586,0.113,2.365c-0.316-0.078-0.621-0.182-0.932-0.271
					c-0.01,0.326-0.037,0.648-0.037,0.977c0,0.908,0.047,1.806,0.131,2.692c1.357,14.633,13.664,26.088,28.652,26.088
					c15.895,0,28.781-12.885,28.781-28.78C108.073,67.526,98.755,56.192,86.194,53.098z"/>
			</g>
			<g>
				<g>
					<circle class="st120" cx="79.292" cy="81.042" r="19.236"/>
				</g>
				<g>
					<path class="st166" d="M86.194,53.098c0.082,0.887,0.129,1.785,0.129,2.693c0,0.321-0.025,0.637-0.035,0.955
						c10.559,3.035,18.285,12.76,18.285,24.295c0,13.962-11.318,25.28-25.281,25.28c-13.965,0-25.283-11.318-25.283-25.28
						c0-13.113,9.984-23.895,22.766-25.158c0-0.031,0.004-0.061,0.004-0.092c0-1.055-0.09-2.09-0.252-3.1
						c-0.018-0.098-0.045-0.193-0.063-0.292c-12.201,1.19-22.17,9.997-25.086,21.605c0.094,0.032,0.184,0.072,0.279,0.103
						c-0.193,1.26-0.293,2.549-0.293,3.863c0,0.797,0.041,1.586,0.113,2.365c-0.316-0.078-0.621-0.182-0.932-0.271
						c-0.01,0.326-0.037,0.648-0.037,0.977c0,0.908,0.047,1.806,0.131,2.692c1.357,14.633,13.664,26.088,28.652,26.088
						c15.895,0,28.781-12.885,28.781-28.78C108.073,67.526,98.755,56.192,86.194,53.098z"/>
				</g>
				<g>
					<path class="st143" d="M54.009,81.042c0,13.962,11.318,25.28,25.283,25.28c13.963,0,25.281-11.318,25.281-25.28
						c0-11.535-7.727-21.26-18.285-24.295c-0.039,1.165-0.127,2.318-0.299,3.443c8.816,2.83,15.201,11.093,15.201,20.852
						c0,12.095-9.805,21.899-21.898,21.899c-10.895,0-19.926-7.955-21.613-18.372c-0.186-1.148-0.287-2.326-0.287-3.527
						c0-0.592,0.025-1.177,0.072-1.756c-0.029-0.436-0.055-0.872-0.055-1.314c0-1.002,0.078-1.985,0.227-2.945
						c0.211-0.001,0.416-0.023,0.625-0.031c2.371-8.26,9.459-14.504,18.17-15.644c0.643-0.091,2.754-0.206,2.754-0.206
						c0.244-0.719,0.227-2.626,0.256-3.354c0,0-0.637-0.072-2.666,0.092C63.993,57.147,54.009,67.928,54.009,81.042z"/>
				</g>
			</g>
			<g>
				<path class="st166" d="M50.546,80.065c0.311,0.09,0.615,0.193,0.932,0.271c-0.072-0.779-0.113-1.568-0.113-2.365
					c0-1.314,0.1-2.604,0.293-3.863c-0.096-0.03-0.186-0.07-0.279-0.103c-0.217,0.864-0.398,1.744-0.535,2.638
					C50.671,77.762,50.585,78.907,50.546,80.065z"/>
			</g>
			<g>
				<path class="st166" d="M58.261,74.995c-0.209,0.008-0.414,0.03-0.625,0.031c-0.148,0.96-0.227,1.943-0.227,2.945
					c0,0.442,0.025,0.879,0.055,1.314c0.043-0.538,0.104-1.071,0.184-1.598C57.79,76.767,58.007,75.874,58.261,74.995z"/>
			</g>
			<g>
				<path class="st95" d="M50.546,80.065c-10.555-3.037-18.287-12.74-18.287-24.273c0-13.963,11.318-25.281,25.283-25.281
					c13.164,0,23.975,10.063,25.168,22.916c0.072,0.778,0.113,1.567,0.113,2.365c0,1.314-0.1,2.604-0.293,3.863
					c-1.855,12.09-12.273,21.356-24.867,21.414c-0.096-0.585-0.156-1.182-0.199-1.783c-0.047,0.579-0.072,1.164-0.072,1.756
					c0,1.201,0.102,2.379,0.287,3.527c14.338-0.066,26.199-10.615,28.311-24.379c0.221-1.434,0.334-2.902,0.334-4.398
					c0-0.908-0.047-1.807-0.129-2.693C84.835,38.465,72.528,27.01,57.542,27.01c-15.896,0-28.783,12.885-28.783,28.781
					c0,13.517,9.318,24.85,21.881,27.942c-0.084-0.887-0.131-1.784-0.131-2.692C50.509,80.713,50.536,80.391,50.546,80.065z"/>
			</g>
			<g>
				<path class="st33" d="M82.53,59.655c0.193-1.26,0.293-2.549,0.293-3.863c0-0.798-0.041-1.587-0.113-2.365
					C81.517,40.573,70.706,30.51,57.542,30.51c-13.965,0-25.283,11.318-25.283,25.281c0,11.533,7.732,21.236,18.287,24.273
					c0.039-1.158,0.125-2.303,0.297-3.422c-8.816-2.83-15.201-11.092-15.201-20.852c0-12.096,9.805-21.899,21.9-21.899
					c10.891,0,19.924,7.954,21.611,18.37c0.188,1.15,0.287,2.328,0.287,3.529c0,1.141-0.088,2.26-0.256,3.354
					c-1.607,10.469-10.631,18.491-21.537,18.543c-0.08,0.526-0.141,1.06-0.184,1.598c0.043,0.602,0.104,1.198,0.199,1.783
					C70.257,81.011,80.675,71.745,82.53,59.655z"/>
			</g>
		</g>
	</g>
</g>
</svg>
