<?xml version="1.0" encoding="utf-8"?>
<!-- Generator: Adobe Illustrator 16.0.0, SVG Export Plug-In . SVG Version: 6.00 Build 0)  -->
<!DOCTYPE svg PUBLIC "-//W3C//DTD SVG 1.1//EN" "http://www.w3.org/Graphics/SVG/1.1/DTD/svg11.dtd">
<svg version="1.1" id="Layer_1" xmlns="http://www.w3.org/2000/svg" xmlns:xlink="http://www.w3.org/1999/xlink" x="0px" y="0px"
	 width="136.833px" height="136.834px" viewBox="0 0 136.833 136.834" style="enable-background:new 0 0 136.833 136.834;"
	 xml:space="preserve">
<style type="text/css">
<![CDATA[
	.st0{fill:#7A5628;}
	.st1{fill:#49A0AE;}
	.st2{fill:#ACA8A9;}
	.st3{fill:#7DB6B7;}
	.st4{fill:#11100E;}
	.st5{fill:#7FCDCC;}
	.st6{fill:#E0DAD2;}
	.st7{fill:#E1E1E1;}
	.st8{fill:#13B3CA;}
	.st9{fill:#E3E4E5;}
	.st10{fill:#15B5AC;}
	.st11{fill:#E4B894;}
	.st12{fill:#E4C88F;}
	.st13{fill:#E4DED0;}
	.st14{fill:#4A86C5;}
	.st15{fill:#4ABC96;}
	.st16{fill:#171413;}
	.st17{fill:#E5CE27;}
	.st18{fill:#187070;}
	.st19{fill:#E7CB7C;}
	.st20{fill:#E7DDB3;}
	.st21{fill:#E7E9EA;}
	.st22{fill:#E84849;}
	.st23{fill:#E89423;}
	.st24{fill:#E8CC7C;}
	.st25{fill:#E8EAEB;}
	.st26{fill:#E97539;}
	.st27{fill:#E9C29C;}
	.st28{fill:#E9DC96;}
	.st29{fill:#B16E29;}
	.st30{opacity:0.01;}
	.st31{opacity:0.45;}
	.st32{fill:#1A1919;}
	.st33{fill:#B69B30;}
	.st34{fill:#EADD97;}
	.st35{fill:#EB9682;}
	.st36{fill:#B7B7B7;}
	.st37{fill:#EBD9A9;}
	.st38{fill:#1DA049;}
	.st39{fill:#1E1913;}
	.st40{fill:#1E1B17;}
	.st41{fill:#ECDAAA;}
	.st42{fill:#ECE6D5;}
	.st43{fill:#ED3351;}
	.st44{fill:#B9B9BA;}
	.st45{fill:#EDECED;}
	.st46{fill:#1FA85B;}
	.st47{fill:#EEE17F;}
	.st48{fill:#EEE4B8;}
	.st49{fill-rule:evenodd;clip-rule:evenodd;fill:#7FCDCC;}
	.st50{fill:#515252;}
	.st51{fill:#543A1A;}
	.st52{fill:#BB2025;}
	.st53{fill:#8C652E;}
	.st54{fill:#8C8C8C;}
	.st55{fill:#212121;}
	.st56{fill:#BF2126;}
	.st57{fill:#BFBEBE;}
	.st58{fill:#F0C418;}
	.st59{fill:#F0CF6A;}
	.st60{fill:#F0E3C8;}
	.st61{fill:#F1D069;}
	.st62{fill:#F1E4C8;}
	.st63{fill:#F2D083;}
	.st64{fill:#F3BB70;}
	.st65{fill:#F3C715;}
	.st66{fill:#F3D183;}
	.st67{fill:#258C8E;}
	.st68{fill:#25999B;}
	.st69{fill:#F4E028;}
	.st70{fill:#F59798;}
	.st71{fill:#F5DE57;}
	.st72{fill:#F6A2A3;}
	.st73{fill:#F6F7F7;}
	.st74{fill:#28999B;}
	.st75{fill:#F7DF56;}
	.st76{fill:#29A5AE;}
	.st77{fill:#F8B85C;}
	.st78{fill:#F8D648;}
	.st79{fill:#F8DC62;}
	.st80{fill:#F8E69B;}
	.st81{fill:#F8E9AB;}
	.st82{fill:#F8F3DC;}
	.st83{fill:#F9A11C;}
	.st84{fill:#F9A72F;}
	.st85{fill:#F9A731;}
	.st86{fill:#F9E478;}
	.st87{fill:#F9EC34;}
	.st88{fill:#92C7CB;}
	.st89{fill:#93574E;}
	.st90{fill:#939291;}
	.st91{fill:#C2D2D3;}
	.st92{fill:#C42126;}
	.st93{fill:#C47267;}
	.st94{fill:#C4C3C3;}
	.st95{fill:#C5A72E;}
	.st96{fill:#2B2B2B;}
	.st97{fill:#2B5C64;}
	.st98{fill:#FACB83;}
	.st99{fill:#2D2D2D;}
	.st100{fill:#FBEC68;}
	.st101{fill:#2D646D;}
	.st102{fill:#FBF3CE;}
	.st103{fill:#C8802A;}
	.st104{fill:#99999A;}
	.st105{fill:#C8C8C8;}
	.st106{fill-rule:evenodd;clip-rule:evenodd;fill:#59A29F;}
	.st107{fill:#99CED5;}
	.st108{fill:#FDF3D0;}
	.st109{fill:#2F8442;}
	.st110{fill:#60441D;}
	.st111{opacity:0.5;}
	.st112{opacity:0.6;}
	.st113{opacity:0.8;}
	.st114{fill:#FFCE80;}
	.st115{fill:#FFEBBF;}
	.st116{fill:#FFEEA5;}
	.st117{fill:#FFFFFA;}
	.st118{fill:#FFFFFF;}
	.st119{fill:#644421;}
	.st120{fill:none;}
	.st121{fill:#65A844;}
	.st122{fill:#CB4645;}
	.st123{fill:#69C8CF;}
	.st124{fill:#CCCBCB;}
	.st125{fill:#30302F;}
	.st126{fill:#9F7534;}
	.st127{fill:#9F77AA;}
	.st128{fill:#CECECD;}
	.st129{fill:#CECFD0;}
	.st130{fill:#336C75;}
	.st131{fill:#343433;}
	.st132{fill:#344E5D;}
	.st133{fill:#353535;}
	.st134{fill:#357180;}
	.st135{fill:#377CA5;}
	.st136{fill:#383939;}
	.st137{fill-rule:evenodd;clip-rule:evenodd;fill:#97D6D5;}
	.st138{fill:#388388;}
	.st139{fill:#6E5538;}
	.st140{fill:#00A79E;}
	.st141{fill:#D0A288;}
	.st142{fill:#D0E8D0;}
	.st143{fill:#D1AF2B;}
	.st144{fill:#D2B488;}
	.st145{fill:#D2D2D2;}
	.st146{fill-rule:evenodd;clip-rule:evenodd;fill:#63AAA5;}
	.st147{fill:#D3B85F;}
	.st148{fill:#D3B95F;}
	.st149{fill:#D3D3D3;}
	.st150{fill:#D54027;}
	.st151{fill:#3AB780;}
	.st152{fill:#D5BA8A;}
	.st153{fill:#D62127;}
	.st154{fill:#D68936;}
	.st155{fill:#3CB881;}
	.st156{fill:#D7D7D7;}
	.st157{fill:#D7DABA;}
	.st158{fill:#D8D8D7;}
	.st159{fill:#714D22;}
	.st160{fill:#A0D9DC;}
	.st161{fill:#A2D4DE;}
	.st162{fill:#A46434;}
	.st163{fill:#A4A4A4;}
	.st164{fill:#A6A5A5;}
	.st165{fill:#DAA9A3;}
	.st166{fill:#DBBA33;}
	.st167{fill:#DBD3BB;}
	.st168{fill:#DBDDDC;}
	.st169{fill:#DCBF8D;}
	.st170{fill:#DCC172;}
	.st171{fill:#DCDFE0;}
	.st172{fill:#DDC272;}
	.st173{fill:#DDD2A5;}
	.st174{fill:#DDDDDC;}
	.st175{fill:#DDDFE0;}
	.st176{fill:#414141;}
	.st177{fill:#DFC191;}
	.st178{fill:#DFDDDC;}
	.st179{fill:#DFE0E0;}
	.st180{fill:#DFE0E1;}
]]>
</style>
<g>
	<g>
		<g>
			<g>
				<g>
					<g>
						<circle class="st7" cx="68.416" cy="68.417" r="63.333"/>
					</g>
				</g>
			</g>
		</g>
	</g>
	<g>
		<path class="st134" d="M78.065,60.312c0,0.248-0.201,0.449-0.449,0.449h-3.398c-0.248,0-0.449-0.201-0.449-0.449v-6.117
			c0-0.248,0.199-0.449,0.449-0.449h3.398c0.248,0,0.449,0.201,0.449,0.449V60.312z"/>
	</g>
	<g>
		<path class="st1" d="M45.267,57.896c0.174,0.176,0.174,0.461,0,0.637l-2.404,2.402c-0.176,0.176-0.461,0.176-0.635,0l-4.326-4.324
			c-0.176-0.176-0.176-0.461,0-0.637l2.404-2.402c0.176-0.176,0.459-0.176,0.635,0L45.267,57.896z"/>
	</g>
	<g>
		<path class="st83" d="M56.94,60.935c-0.176,0.176-0.459,0.176-0.635,0l-2.404-2.402c-0.176-0.176-0.176-0.461,0-0.637l4.326-4.324
			c0.176-0.176,0.459-0.176,0.635,0l2.404,2.402c0.176,0.176,0.176,0.461,0,0.637L56.94,60.935z"/>
	</g>
	<g>
		<path class="st43" d="M24.29,60.935c-0.176,0.176-0.461,0.176-0.637,0l-2.402-2.402c-0.176-0.176-0.176-0.461,0-0.637l4.324-4.324
			c0.176-0.176,0.461-0.176,0.637,0l2.402,2.402c0.176,0.176,0.176,0.461,0,0.637L24.29,60.935z"/>
	</g>
	<g>
		<path class="st43" d="M98.267,57.896c0.174,0.176,0.174,0.461,0,0.637l-2.404,2.402c-0.176,0.176-0.461,0.176-0.635,0
			l-4.326-4.324c-0.176-0.176-0.176-0.461,0-0.637l2.404-2.402c0.176-0.176,0.459-0.176,0.635,0L98.267,57.896z"/>
	</g>
	<g>
		<path class="st134" d="M79.599,24.599c0.176,0.176,0.176,0.46,0,0.636l-2.402,2.403c-0.176,0.176-0.461,0.176-0.637,0
			l-4.324-4.325c-0.176-0.176-0.176-0.46,0-0.636l2.402-2.403c0.176-0.175,0.461-0.175,0.637,0L79.599,24.599z"/>
	</g>
	<g>
		<path class="st1" d="M45.267,24.599c0.174,0.176,0.174,0.46,0,0.636l-2.404,2.403c-0.176,0.176-0.461,0.176-0.635,0l-4.326-4.325
			c-0.176-0.176-0.176-0.46,0-0.636l2.404-2.403c0.176-0.176,0.459-0.176,0.635,0L45.267,24.599z"/>
	</g>
	<g>
		<path class="st83" d="M56.94,27.638c-0.176,0.176-0.459,0.176-0.635,0l-2.404-2.403c-0.176-0.176-0.176-0.46,0-0.636l4.326-4.325
			c0.176-0.175,0.459-0.175,0.635,0l2.404,2.403c0.176,0.176,0.176,0.461,0,0.636L56.94,27.638z"/>
	</g>
	<g>
		<path class="st43" d="M96.733,27.015c0,0.247-0.201,0.449-0.451,0.449h-3.398c-0.248,0-0.449-0.202-0.449-0.449v-6.117
			c0-0.248,0.201-0.449,0.449-0.449h3.398c0.25,0,0.451,0.2,0.451,0.449V27.015z"/>
	</g>
	<g>
		<path class="st83" d="M109.94,60.935c-0.176,0.176-0.459,0.176-0.635,0l-2.404-2.402c-0.176-0.176-0.176-0.461,0-0.637
			l4.326-4.324c0.176-0.176,0.459-0.176,0.635,0l2.404,2.402c0.176,0.176,0.176,0.461,0,0.637L109.94,60.935z"/>
	</g>
	<g>
		<path class="st134" d="M95.933,40.765c0.176,0.176,0.176,0.461,0,0.637l-2.404,2.402c-0.176,0.176-0.459,0.176-0.635,0
			l-4.326-4.324c-0.176-0.176-0.176-0.461,0-0.637l2.404-2.402c0.176-0.176,0.459-0.176,0.635,0L95.933,40.765z"/>
	</g>
	<g>
		<path class="st1" d="M61.599,40.765c0.176,0.176,0.176,0.461,0,0.637l-2.402,2.402c-0.176,0.176-0.461,0.176-0.637,0l-4.324-4.324
			c-0.176-0.176-0.176-0.461,0-0.637l2.402-2.402c0.176-0.176,0.461-0.176,0.637,0L61.599,40.765z"/>
	</g>
	<g>
		<path class="st83" d="M73.274,43.804c-0.176,0.176-0.461,0.176-0.637,0l-2.402-2.402c-0.176-0.176-0.176-0.461,0-0.637
			l4.324-4.324c0.176-0.176,0.461-0.176,0.637,0l2.402,2.402c0.176,0.176,0.176,0.461,0,0.637L73.274,43.804z"/>
	</g>
	<g>
		<path class="st43" d="M40.622,43.804c-0.176,0.176-0.459,0.176-0.635,0l-2.404-2.402c-0.176-0.176-0.176-0.461,0-0.637
			l4.326-4.324c0.176-0.176,0.459-0.176,0.635,0l2.404,2.402c0.176,0.176,0.176,0.461,0,0.637L40.622,43.804z"/>
	</g>
	<g>
		<path class="st43" d="M113.065,43.181c0,0.248-0.201,0.449-0.449,0.449h-3.398c-0.248,0-0.449-0.201-0.449-0.449v-6.117
			c0-0.248,0.201-0.449,0.449-0.449h3.398c0.248,0,0.449,0.201,0.449,0.449V43.181z"/>
	</g>
	<g>
		<path class="st83" d="M27.733,43.181c0,0.248-0.201,0.449-0.449,0.449h-3.4c-0.248,0-0.449-0.201-0.449-0.449v-6.117
			c0-0.248,0.201-0.449,0.449-0.449h3.4c0.248,0,0.449,0.201,0.449,0.449V43.181z"/>
	</g>
	<g>
		<path class="st134" d="M79.599,73.062c0.176-0.176,0.176-0.459,0-0.635l-2.402-2.404c-0.176-0.175-0.461-0.175-0.637,0
			l-4.324,4.326c-0.176,0.176-0.176,0.459,0,0.635l2.402,2.404c0.176,0.175,0.461,0.175,0.637,0L79.599,73.062z"/>
	</g>
	<g>
		<path class="st134" d="M43.733,70.647c0-0.248-0.201-0.449-0.451-0.45h-3.398c-0.248,0.001-0.449,0.202-0.449,0.45v6.116
			c0,0.248,0.201,0.449,0.449,0.449h3.398c0.25,0,0.451-0.2,0.451-0.449V70.647z"/>
	</g>
	<g>
		<path class="st83" d="M56.94,70.022c-0.176-0.175-0.459-0.175-0.635,0l-2.404,2.404c-0.176,0.176-0.176,0.459,0,0.635l4.326,4.326
			c0.176,0.175,0.459,0.175,0.635,0l2.404-2.404c0.176-0.176,0.176-0.46,0-0.635L56.94,70.022z"/>
	</g>
	<g>
		<path class="st43" d="M24.29,70.022c-0.176-0.175-0.461-0.175-0.637,0l-2.402,2.404c-0.176,0.176-0.176,0.459,0,0.635l4.324,4.326
			c0.176,0.175,0.461,0.175,0.637,0l2.402-2.404c0.176-0.176,0.176-0.46,0-0.635L24.29,70.022z"/>
	</g>
	<g>
		<g>
			<path class="st83" d="M24.19,27.638l4.326-4.325c0.176-0.175,0.176-0.46,0-0.636l-1.857-1.856
				c-1.76,1.544-3.439,3.175-5.02,4.903l1.916,1.914C23.731,27.813,24.015,27.813,24.19,27.638z"/>
		</g>
		<g>
			<path class="st83" d="M108.235,25.234l2.402,2.403c0.176,0.176,0.461,0.176,0.637,0l2.939-2.941
				c-0.988-1.035-2.004-2.048-3.061-3.016l-2.918,2.918C108.06,24.774,108.06,25.059,108.235,25.234z"/>
		</g>
		<g>
			<path class="st1" d="M58.56,11.138c0.176,0.176,0.461,0.176,0.637,0l2.402-2.403c0.176-0.176,0.176-0.46,0-0.636l-2.346-2.347
				c-1.721,0.249-3.412,0.576-5.084,0.961c0.02,0.034,0.037,0.07,0.066,0.1L58.56,11.138z"/>
		</g>
		<g>
			<path class="st83" d="M70.235,8.734l2.402,2.403c0.176,0.176,0.461,0.176,0.637,0l4.324-4.325c0.176-0.175,0.176-0.46,0-0.636
				l-0.484-0.484c-1.338-0.184-2.689-0.322-4.053-0.421l-2.826,2.827C70.06,8.274,70.06,8.559,70.235,8.734z"/>
		</g>
		<g>
			<path class="st134" d="M9.446,60.935l2.402-2.402c0.176-0.176,0.176-0.461,0-0.637l-4.324-4.324
				c-0.176-0.176-0.461-0.176-0.637,0l-0.047,0.047c-0.352,1.465-0.654,2.945-0.9,4.447l2.869,2.869
				C8.985,61.11,9.271,61.11,9.446,60.935z"/>
		</g>
		<g>
			<path class="st43" d="M127.81,53.571l-4.324,4.324c-0.176,0.176-0.176,0.461,0,0.637l2.402,2.402
				c0.176,0.176,0.461,0.176,0.637,0l4.143-4.143c-0.076-0.407-0.141-0.818-0.223-1.223l-1.998-1.998
				C128.271,53.396,127.985,53.396,127.81,53.571z"/>
		</g>
	</g>
	<g>
		<path class="st43" d="M96.733,70.646c0-0.247-0.201-0.448-0.451-0.449h-3.398c-0.248,0.001-0.449,0.202-0.449,0.449v6.117
			c0,0.248,0.201,0.449,0.449,0.449h3.398c0.25,0,0.451-0.2,0.451-0.449V70.646z"/>
	</g>
	<g>
		<path class="st83" d="M109.94,70.022c-0.176-0.175-0.459-0.175-0.635,0l-2.404,2.404c-0.176,0.176-0.176,0.459,0,0.635
			l4.326,4.326c0.176,0.175,0.459,0.175,0.635,0l2.404-2.404c0.176-0.176,0.176-0.46,0-0.635L109.94,70.022z"/>
	</g>
	<g>
		<path class="st1" d="M57.274,87.153c-0.176-0.175-0.461-0.175-0.637,0l-2.402,2.404c-0.176,0.176-0.176,0.46,0,0.635l4.324,4.325
			c0.176,0.176,0.461,0.176,0.637,0l2.402-2.403c0.176-0.176,0.176-0.459,0-0.635L57.274,87.153z"/>
	</g>
	<g>
		<path class="st83" d="M76.065,87.777c0-0.247-0.201-0.449-0.449-0.449h-3.398c-0.248,0-0.449,0.201-0.449,0.449v6.117
			c0,0.248,0.201,0.449,0.449,0.449h3.398c0.248,0,0.449-0.201,0.449-0.449V87.777z"/>
	</g>
	<g>
		<g>
			<path class="st101" d="M64.091,107.035h4.701v-5.667h-4.701c-4.33,0-7.84,1-7.84,2.673v5.667
				C56.251,108.035,59.761,107.035,64.091,107.035z"/>
		</g>
		<g>
			<path class="st134" d="M64.091,107.035c-4.33,0-7.84,1-7.84,2.673v20.863c3.938,0.767,8.002,1.18,12.166,1.18
				c0.125,0,0.25-0.009,0.375-0.01v-24.706H64.091z"/>
		</g>
		<g>
			<path class="st97" d="M72.911,107.035c4.328,0,7.84,0.667,7.84,2.673v-5.667c0-2.006-3.512-2.673-7.84-2.673h-4.119v5.667H72.911
				z"/>
		</g>
		<g>
			<path class="st130" d="M72.911,107.035h-4.119v24.706c4.09-0.023,8.086-0.436,11.959-1.2v-20.833
				C80.751,107.702,77.239,107.035,72.911,107.035z"/>
		</g>
	</g>
</g>
</svg>
