<?xml version="1.0" encoding="utf-8"?>
<!-- Generator: Adobe Illustrator 16.0.0, SVG Export Plug-In . SVG Version: 6.00 Build 0)  -->
<!DOCTYPE svg PUBLIC "-//W3C//DTD SVG 1.1//EN" "http://www.w3.org/Graphics/SVG/1.1/DTD/svg11.dtd">
<svg version="1.1" id="Layer_1" xmlns="http://www.w3.org/2000/svg" xmlns:xlink="http://www.w3.org/1999/xlink" x="0px" y="0px"
	 width="136.833px" height="136.834px" viewBox="0 0 136.833 136.834" style="enable-background:new 0 0 136.833 136.834;"
	 xml:space="preserve">
<style type="text/css">
<![CDATA[
	.st0{fill:#7A5628;}
	.st1{fill:#49A0AE;}
	.st2{fill:#ACA8A9;}
	.st3{fill:#7DB6B7;}
	.st4{fill:#11100E;}
	.st5{fill:#7FCDCC;}
	.st6{fill:#E0DAD2;}
	.st7{fill:#E1E1E1;}
	.st8{fill:#13B3CA;}
	.st9{fill:#E3E4E5;}
	.st10{fill:#15B5AC;}
	.st11{fill:#E4B894;}
	.st12{fill:#E4C88F;}
	.st13{fill:#E4DED0;}
	.st14{fill:#4A86C5;}
	.st15{fill:#4ABC96;}
	.st16{fill:#171413;}
	.st17{fill:#E5CE27;}
	.st18{fill:#187070;}
	.st19{fill:#E7CB7C;}
	.st20{fill:#E7DDB3;}
	.st21{fill:#E7E9EA;}
	.st22{fill:#E84849;}
	.st23{fill:#E89423;}
	.st24{fill:#E8CC7C;}
	.st25{fill:#E8EAEB;}
	.st26{fill:#E97539;}
	.st27{fill:#E9C29C;}
	.st28{fill:#E9DC96;}
	.st29{fill:#B16E29;}
	.st30{opacity:0.01;}
	.st31{opacity:0.45;}
	.st32{fill:#1A1919;}
	.st33{fill:#B69B30;}
	.st34{fill:#EADD97;}
	.st35{fill:#EB9682;}
	.st36{fill:#B7B7B7;}
	.st37{fill:#EBD9A9;}
	.st38{fill:#1DA049;}
	.st39{fill:#1E1913;}
	.st40{fill:#1E1B17;}
	.st41{fill:#ECDAAA;}
	.st42{fill:#ECE6D5;}
	.st43{fill:#ED3351;}
	.st44{fill:#B9B9BA;}
	.st45{fill:#EDECED;}
	.st46{fill:#1FA85B;}
	.st47{fill:#EEE17F;}
	.st48{fill:#EEE4B8;}
	.st49{fill-rule:evenodd;clip-rule:evenodd;fill:#7FCDCC;}
	.st50{fill:#515252;}
	.st51{fill:#543A1A;}
	.st52{fill:#BB2025;}
	.st53{fill:#8C652E;}
	.st54{fill:#8C8C8C;}
	.st55{fill:#212121;}
	.st56{fill:#BF2126;}
	.st57{fill:#BFBEBE;}
	.st58{fill:#F0C418;}
	.st59{fill:#F0CF6A;}
	.st60{fill:#F0E3C8;}
	.st61{fill:#F1D069;}
	.st62{fill:#F1E4C8;}
	.st63{fill:#F2D083;}
	.st64{fill:#F3BB70;}
	.st65{fill:#F3C715;}
	.st66{fill:#F3D183;}
	.st67{fill:#258C8E;}
	.st68{fill:#25999B;}
	.st69{fill:#F4E028;}
	.st70{fill:#F59798;}
	.st71{fill:#F5DE57;}
	.st72{fill:#F6A2A3;}
	.st73{fill:#F6F7F7;}
	.st74{fill:#28999B;}
	.st75{fill:#F7DF56;}
	.st76{fill:#29A5AE;}
	.st77{fill:#F8B85C;}
	.st78{fill:#F8D648;}
	.st79{fill:#F8DC62;}
	.st80{fill:#F8E69B;}
	.st81{fill:#F8E9AB;}
	.st82{fill:#F8F3DC;}
	.st83{fill:#F9A11C;}
	.st84{fill:#F9A72F;}
	.st85{fill:#F9A731;}
	.st86{fill:#F9E478;}
	.st87{fill:#F9EC34;}
	.st88{fill:#92C7CB;}
	.st89{fill:#93574E;}
	.st90{fill:#939291;}
	.st91{fill:#C2D2D3;}
	.st92{fill:#C42126;}
	.st93{fill:#C47267;}
	.st94{fill:#C4C3C3;}
	.st95{fill:#C5A72E;}
	.st96{fill:#2B2B2B;}
	.st97{fill:#2B5C64;}
	.st98{fill:#FACB83;}
	.st99{fill:#2D2D2D;}
	.st100{fill:#FBEC68;}
	.st101{fill:#2D646D;}
	.st102{fill:#FBF3CE;}
	.st103{fill:#C8802A;}
	.st104{fill:#99999A;}
	.st105{fill:#C8C8C8;}
	.st106{fill-rule:evenodd;clip-rule:evenodd;fill:#59A29F;}
	.st107{fill:#99CED5;}
	.st108{fill:#FDF3D0;}
	.st109{fill:#2F8442;}
	.st110{fill:#60441D;}
	.st111{opacity:0.5;}
	.st112{opacity:0.6;}
	.st113{opacity:0.8;}
	.st114{fill:#FFCE80;}
	.st115{fill:#FFEBBF;}
	.st116{fill:#FFEEA5;}
	.st117{fill:#FFFFFA;}
	.st118{fill:#FFFFFF;}
	.st119{fill:#644421;}
	.st120{fill:none;}
	.st121{fill:#65A844;}
	.st122{fill:#CB4645;}
	.st123{fill:#69C8CF;}
	.st124{fill:#CCCBCB;}
	.st125{fill:#30302F;}
	.st126{fill:#9F7534;}
	.st127{fill:#9F77AA;}
	.st128{fill:#CECECD;}
	.st129{fill:#CECFD0;}
	.st130{fill:#336C75;}
	.st131{fill:#343433;}
	.st132{fill:#344E5D;}
	.st133{fill:#353535;}
	.st134{fill:#357180;}
	.st135{fill:#377CA5;}
	.st136{fill:#383939;}
	.st137{fill-rule:evenodd;clip-rule:evenodd;fill:#97D6D5;}
	.st138{fill:#388388;}
	.st139{fill:#6E5538;}
	.st140{fill:#00A79E;}
	.st141{fill:#D0A288;}
	.st142{fill:#D0E8D0;}
	.st143{fill:#D1AF2B;}
	.st144{fill:#D2B488;}
	.st145{fill:#D2D2D2;}
	.st146{fill-rule:evenodd;clip-rule:evenodd;fill:#63AAA5;}
	.st147{fill:#D3B85F;}
	.st148{fill:#D3B95F;}
	.st149{fill:#D3D3D3;}
	.st150{fill:#D54027;}
	.st151{fill:#3AB780;}
	.st152{fill:#D5BA8A;}
	.st153{fill:#D62127;}
	.st154{fill:#D68936;}
	.st155{fill:#3CB881;}
	.st156{fill:#D7D7D7;}
	.st157{fill:#D7DABA;}
	.st158{fill:#D8D8D7;}
	.st159{fill:#714D22;}
	.st160{fill:#A0D9DC;}
	.st161{fill:#A2D4DE;}
	.st162{fill:#A46434;}
	.st163{fill:#A4A4A4;}
	.st164{fill:#A6A5A5;}
	.st165{fill:#DAA9A3;}
	.st166{fill:#DBBA33;}
	.st167{fill:#DBD3BB;}
	.st168{fill:#DBDDDC;}
	.st169{fill:#DCBF8D;}
	.st170{fill:#DCC172;}
	.st171{fill:#DCDFE0;}
	.st172{fill:#DDC272;}
	.st173{fill:#DDD2A5;}
	.st174{fill:#DDDDDC;}
	.st175{fill:#DDDFE0;}
	.st176{fill:#414141;}
	.st177{fill:#DFC191;}
	.st178{fill:#DFDDDC;}
	.st179{fill:#DFE0E0;}
	.st180{fill:#DFE0E1;}
]]>
</style>
<g>
	<g>
		<g>
			<g>
				<g>
					<g>
						<path class="st22" d="M5.081,68.417c0-34.982,28.356-63.336,63.337-63.336c34.978,0,63.334,28.354,63.334,63.336
							c0,34.979-28.356,63.335-63.334,63.335C33.438,131.752,5.081,103.396,5.081,68.417z"/>
					</g>
				</g>
			</g>
		</g>
	</g>
	<g>
		<g>
			<g>
				<path class="st175" d="M53.149,22.124c0,11.848,0.263,52.899,15.633,52.899s15.633-41.052,15.633-52.899
					C84.415,17.342,53.149,16.679,53.149,22.124z"/>
			</g>
			<g>
				<ellipse class="st129" cx="68.575" cy="115.934" rx="12.908" ry="5.385"/>
			</g>
			<g>
				<ellipse class="st156" cx="68.575" cy="115.451" rx="12.908" ry="4.9"/>
			</g>
			<g>
				<path class="st9" d="M72.233,115.105c0,0-2.48-18.762-2.48-24.911s0.87-13.743,0.87-13.743h-4.049c0,0,0.869,8.296,0.869,13.743
					c0,5.446-2.48,24.911-2.48,24.911s1.196,1.381,3.681,1.381C71.129,116.486,72.233,115.105,72.233,115.105z"/>
			</g>
			<g>
				<polygon class="st9" points="72.678,73.887 64.825,73.887 66.678,76.634 70.537,76.634 				"/>
			</g>
			<g>
				<path class="st180" d="M83.959,22.564c0,11.502-30.354,11.502-30.354,0C53.605,17.278,83.959,17.922,83.959,22.564z"/>
			</g>
			<g>
				<path class="st25" d="M83.959,22.564c0,11.502-0.256,51.908-15.177,51.908S53.605,34.066,53.605,22.564
					c0,0,3.557,1.893,15.65,1.893C81.351,24.457,83.959,22.564,83.959,22.564z"/>
			</g>
			<g>
				<path class="st25" d="M83.959,22.564c0,11.502-0.256,51.908-15.177,51.908S53.605,34.066,53.605,22.564
					c0,0,3.557,1.893,15.65,1.893C81.351,24.457,83.959,22.564,83.959,22.564z"/>
			</g>
			<g>
				<path class="st62" d="M83.188,31.843c-0.833,12.503-0.896,15.084-2.455,24.294c-1.416,8.362-5.765,17.345-11.947,17.345
					c-6.163,0-10.009-7.892-11.94-16.227c-2.02-8.708-2.236-17.381-2.439-25.281c0,0,8.874-2.071,14.714-1.867
					C74.961,30.312,83.188,31.843,83.188,31.843z"/>
			</g>
			<g>
				<g>
					<path class="st62" d="M64.282,31.843c-0.037,0.555-0.105,1.089-0.106,1.607C64.211,32.927,64.245,32.407,64.282,31.843z"/>
				</g>
				<g>
					<path class="st62" d="M64.176,33.451c-0.001,0.006-0.001,0.014-0.001,0.02c0,0,0,0,0-0.001
						C64.175,33.463,64.176,33.457,64.176,33.451z"/>
				</g>
			</g>
			<g>
				<path class="st148" d="M83.188,31.843c-0.833,12.503-0.896,15.084-2.455,24.294c-1.416,8.362-5.765,17.345-11.947,17.345
					c-6.163,0-10.009-7.892-11.94-16.227c-2.02-8.708-2.236-17.381-2.439-25.281c0,0,4.473,2.817,14.714,2.817
					C78.599,34.792,83.188,31.843,83.188,31.843z"/>
			</g>
			<g>
				<g>
					<path class="st62" d="M64.175,33.473c0-0.001,0-0.001,0-0.003c0-0.006,0-0.014,0.001-0.02c0-0.006,0.001-0.012,0.001-0.017
						C64.176,33.447,64.175,33.46,64.175,33.473z"/>
				</g>
				<g>
					<path class="st148" d="M64.282,31.843c-0.037,0.549-0.103,1.076-0.105,1.591C64.211,32.915,64.245,32.401,64.282,31.843z"/>
				</g>
			</g>
			<g>
				<path class="st24" d="M73.888,71.259c-1.511,1.392-3.221,2.223-5.102,2.223c-6.163,0-10.009-7.892-11.94-16.227
					c-2.02-8.708-2.236-17.381-2.439-25.281c0,0,4.473,2.817,14.714,2.817c2.37,0,4.434-0.185,6.197-0.46L73.888,71.259z"/>
			</g>
			<g>
				<path class="st34" d="M68.786,73.482c-6.163,0-10.009-7.892-11.94-16.227c-2.02-8.708-2.236-17.381-2.439-25.281
					c0,0,4.473,2.817,14.714,2.817L68.786,73.482z"/>
			</g>
			<g>
				<path class="st41" d="M68.786,73.482c-0.771,0-1.505-0.123-2.203-0.355L64.67,34.601c1.342,0.119,2.823,0.19,4.45,0.19
					L68.786,73.482z"/>
			</g>
		</g>
		<g class="st31">
			<g>
				<ellipse class="st62" cx="59.237" cy="38.958" rx="1.322" ry="1.474"/>
			</g>
			<g>
				<ellipse class="st62" cx="66.351" cy="44.194" rx="1.321" ry="1.474"/>
			</g>
			<g>
				<ellipse class="st62" cx="74.381" cy="39.263" rx="1.322" ry="1.473"/>
			</g>
			<g>
				<ellipse class="st62" cx="59.642" cy="51.105" rx="1.321" ry="1.475"/>
			</g>
			<g>
				<ellipse class="st62" cx="60.659" cy="62.744" rx="1.322" ry="1.474"/>
			</g>
			<g>
				<ellipse class="st62" cx="67.419" cy="56.391" rx="1.321" ry="1.474"/>
			</g>
			<g>
				<ellipse class="st62" cx="74.075" cy="50.394" rx="1.321" ry="1.473"/>
			</g>
			<g>
				<ellipse class="st62" cx="80.224" cy="44.194" rx="1.322" ry="1.474"/>
			</g>
			<g>
				<ellipse class="st62" cx="68.079" cy="68.539" rx="1.322" ry="1.473"/>
			</g>
			<g>
				<ellipse class="st62" cx="74.33" cy="61.982" rx="1.321" ry="1.473"/>
			</g>
		</g>
		<g>
			<path class="st62" d="M83.188,31.843c0,0-8.228-1.531-14.068-1.736c-5.84-0.204-14.714,1.867-14.714,1.867
				s4.473,2.817,14.714,2.817C78.599,34.792,83.188,31.843,83.188,31.843z"/>
		</g>
		<g>
			<g>
				<path class="st148" d="M70.004,73.357c-0.063,0.014-0.131,0.022-0.196,0.033C69.873,73.379,69.94,73.371,70.004,73.357z"/>
			</g>
			<g>
				<path class="st148" d="M71.129,73.029c-0.06,0.022-0.119,0.048-0.179,0.069C71.01,73.077,71.069,73.051,71.129,73.029z"/>
			</g>
			<g>
				<path class="st148" d="M73.146,71.876c-0.062,0.047-0.125,0.094-0.188,0.139C73.021,71.97,73.085,71.923,73.146,71.876z"/>
			</g>
			<g>
				<path class="st148" d="M83.188,31.843c-0.037,0.541-0.101,1.061-0.104,1.568C83.118,32.899,83.151,32.392,83.188,31.843z"/>
			</g>
			<g>
				<path class="st148" d="M72.082,72.585c-0.026,0.016-0.053,0.026-0.079,0.041C72.029,72.612,72.056,72.601,72.082,72.585z"/>
			</g>
			<g>
				<path class="st172" d="M69.808,73.39c-0.335,0.055-0.674,0.092-1.021,0.092C69.134,73.482,69.473,73.445,69.808,73.39z"/>
			</g>
			<g>
				<path class="st172" d="M72.958,72.015c-0.285,0.209-0.577,0.404-0.876,0.57C72.381,72.419,72.673,72.224,72.958,72.015z"/>
			</g>
			<g>
				<path class="st172" d="M70.95,73.098c-0.31,0.11-0.624,0.196-0.946,0.259C70.326,73.294,70.641,73.208,70.95,73.098z"/>
			</g>
			<g>
				<path class="st172" d="M73.888,71.259v-0.011c-0.242,0.224-0.488,0.435-0.741,0.628C73.398,71.683,73.647,71.482,73.888,71.259z
					"/>
			</g>
			<g>
				<path class="st172" d="M72.003,72.626c-0.285,0.154-0.577,0.287-0.874,0.402C71.426,72.914,71.718,72.781,72.003,72.626z"/>
			</g>
			<g>
				<path class="st41" d="M66.99,34.746c0.683,0.027,1.387,0.046,2.13,0.046C68.377,34.792,67.673,34.773,66.99,34.746z"/>
			</g>
			<g>
				<path class="st41" d="M65.011,34.624c0.433,0.035,0.882,0.063,1.344,0.089C65.894,34.687,65.443,34.659,65.011,34.624z"/>
			</g>
			<g>
				<path class="st34" d="M83.08,33.476c0-0.001,0.001-0.002,0.001-0.003c0-0.013,0.001-0.026,0.002-0.039
					c0-0.008,0.002-0.016,0.002-0.022C83.083,33.432,83.082,33.455,83.08,33.476z"/>
			</g>
			<g>
				<path class="st61" d="M75.386,34.32l-0.068,0.012l-0.078,2.01c4.124-0.576,7.827-1.537,7.841-2.865
					c0.002-0.021,0.003-0.044,0.005-0.064c0.003-0.508,0.066-1.027,0.104-1.568C83.188,31.843,80.63,33.487,75.386,34.32z"/>
			</g>
			<g>
				<path class="st66" d="M75.239,36.341l0.078-2.01c-1.764,0.275-3.827,0.46-6.197,0.46l-0.018,2.12
					C70.979,36.823,73.158,36.63,75.239,36.341z"/>
			</g>
			<g>
				<path class="st34" d="M66.354,34.712c0.212,0.012,0.418,0.023,0.636,0.033C66.772,34.736,66.566,34.724,66.354,34.712z"/>
			</g>
			<g>
				<path class="st116" d="M64.781,36.822l-0.111-2.221c0.107,0.01,0.231,0.014,0.341,0.022c-7.329-0.601-10.604-2.649-10.604-2.649
					c0.011,0.395,0.032,0.792,0.032,1.191C54.438,35.06,59.805,36.419,64.781,36.822z"/>
			</g>
			<g>
				<path class="st115" d="M64.781,36.822c1.428,0.116,2.828,0.157,4.056,0.104c0.086-0.003,0.179-0.009,0.266-0.014l0.018-2.12
					c-0.743,0-1.447-0.019-2.13-0.046c-0.218-0.01-0.424-0.021-0.636-0.033c-0.462-0.025-0.911-0.054-1.344-0.089
					c-0.109-0.009-0.233-0.013-0.341-0.022L64.781,36.822z"/>
			</g>
		</g>
	</g>
</g>
</svg>
