<?xml version="1.0" encoding="utf-8"?>
<!-- Generator: Adobe Illustrator 16.0.0, SVG Export Plug-In . SVG Version: 6.00 Build 0)  -->
<!DOCTYPE svg PUBLIC "-//W3C//DTD SVG 1.1//EN" "http://www.w3.org/Graphics/SVG/1.1/DTD/svg11.dtd">
<svg version="1.1" id="Layer_1" xmlns="http://www.w3.org/2000/svg" xmlns:xlink="http://www.w3.org/1999/xlink" x="0px" y="0px"
	 width="136.833px" height="136.833px" viewBox="0 0 136.833 136.833" style="enable-background:new 0 0 136.833 136.833;"
	 xml:space="preserve">
<style type="text/css">
<![CDATA[
	.st0{fill:#7A5628;}
	.st1{fill:#49A0AE;}
	.st2{fill:#ACA8A9;}
	.st3{fill:#7DB6B7;}
	.st4{fill:#11100E;}
	.st5{fill:#7FCDCC;}
	.st6{fill:#E0DAD2;}
	.st7{fill:#E1E1E1;}
	.st8{fill:#13B3CA;}
	.st9{fill:#E3E4E5;}
	.st10{fill:#15B5AC;}
	.st11{fill:#E4B894;}
	.st12{fill:#E4C88F;}
	.st13{fill:#E4DED0;}
	.st14{fill:#4A86C5;}
	.st15{fill:#4ABC96;}
	.st16{fill:#171413;}
	.st17{fill:#E5CE27;}
	.st18{fill:#187070;}
	.st19{fill:#E7CB7C;}
	.st20{fill:#E7DDB3;}
	.st21{fill:#E7E9EA;}
	.st22{fill:#E84849;}
	.st23{fill:#E89423;}
	.st24{fill:#E8CC7C;}
	.st25{fill:#E8EAEB;}
	.st26{fill:#E97539;}
	.st27{fill:#E9C29C;}
	.st28{fill:#E9DC96;}
	.st29{fill:#B16E29;}
	.st30{opacity:0.01;}
	.st31{opacity:0.45;}
	.st32{fill:#1A1919;}
	.st33{fill:#B69B30;}
	.st34{fill:#EADD97;}
	.st35{fill:#EB9682;}
	.st36{fill:#B7B7B7;}
	.st37{fill:#EBD9A9;}
	.st38{fill:#1DA049;}
	.st39{fill:#1E1913;}
	.st40{fill:#1E1B17;}
	.st41{fill:#ECDAAA;}
	.st42{fill:#ECE6D5;}
	.st43{fill:#ED3351;}
	.st44{fill:#B9B9BA;}
	.st45{fill:#EDECED;}
	.st46{fill:#1FA85B;}
	.st47{fill:#EEE17F;}
	.st48{fill:#EEE4B8;}
	.st49{fill-rule:evenodd;clip-rule:evenodd;fill:#7FCDCC;}
	.st50{fill:#515252;}
	.st51{fill:#543A1A;}
	.st52{fill:#BB2025;}
	.st53{fill:#8C652E;}
	.st54{fill:#8C8C8C;}
	.st55{fill:#212121;}
	.st56{fill:#BF2126;}
	.st57{fill:#BFBEBE;}
	.st58{fill:#F0C418;}
	.st59{fill:#F0CF6A;}
	.st60{fill:#F0E3C8;}
	.st61{fill:#F1D069;}
	.st62{fill:#F1E4C8;}
	.st63{fill:#F2D083;}
	.st64{fill:#F3BB70;}
	.st65{fill:#F3C715;}
	.st66{fill:#F3D183;}
	.st67{fill:#258C8E;}
	.st68{fill:#25999B;}
	.st69{fill:#F4E028;}
	.st70{fill:#F59798;}
	.st71{fill:#F5DE57;}
	.st72{fill:#F6A2A3;}
	.st73{fill:#F6F7F7;}
	.st74{fill:#28999B;}
	.st75{fill:#F7DF56;}
	.st76{fill:#29A5AE;}
	.st77{fill:#F8B85C;}
	.st78{fill:#F8D648;}
	.st79{fill:#F8DC62;}
	.st80{fill:#F8E69B;}
	.st81{fill:#F8E9AB;}
	.st82{fill:#F8F3DC;}
	.st83{fill:#F9A11C;}
	.st84{fill:#F9A72F;}
	.st85{fill:#F9A731;}
	.st86{fill:#F9E478;}
	.st87{fill:#F9EC34;}
	.st88{fill:#92C7CB;}
	.st89{fill:#93574E;}
	.st90{fill:#939291;}
	.st91{fill:#C2D2D3;}
	.st92{fill:#C42126;}
	.st93{fill:#C47267;}
	.st94{fill:#C4C3C3;}
	.st95{fill:#C5A72E;}
	.st96{fill:#2B2B2B;}
	.st97{fill:#2B5C64;}
	.st98{fill:#FACB83;}
	.st99{fill:#2D2D2D;}
	.st100{fill:#FBEC68;}
	.st101{fill:#2D646D;}
	.st102{fill:#FBF3CE;}
	.st103{fill:#C8802A;}
	.st104{fill:#99999A;}
	.st105{fill:#C8C8C8;}
	.st106{fill-rule:evenodd;clip-rule:evenodd;fill:#59A29F;}
	.st107{fill:#99CED5;}
	.st108{fill:#FDF3D0;}
	.st109{fill:#2F8442;}
	.st110{fill:#60441D;}
	.st111{opacity:0.5;}
	.st112{opacity:0.6;}
	.st113{opacity:0.8;}
	.st114{fill:#FFCE80;}
	.st115{fill:#FFEBBF;}
	.st116{fill:#FFEEA5;}
	.st117{fill:#FFFFFA;}
	.st118{fill:#FFFFFF;}
	.st119{fill:#644421;}
	.st120{fill:none;}
	.st121{fill:#65A844;}
	.st122{fill:#CB4645;}
	.st123{fill:#69C8CF;}
	.st124{fill:#CCCBCB;}
	.st125{fill:#30302F;}
	.st126{fill:#9F7534;}
	.st127{fill:#9F77AA;}
	.st128{fill:#CECECD;}
	.st129{fill:#CECFD0;}
	.st130{fill:#336C75;}
	.st131{fill:#343433;}
	.st132{fill:#344E5D;}
	.st133{fill:#353535;}
	.st134{fill:#357180;}
	.st135{fill:#377CA5;}
	.st136{fill:#383939;}
	.st137{fill-rule:evenodd;clip-rule:evenodd;fill:#97D6D5;}
	.st138{fill:#388388;}
	.st139{fill:#6E5538;}
	.st140{fill:#00A79E;}
	.st141{fill:#D0A288;}
	.st142{fill:#D0E8D0;}
	.st143{fill:#D1AF2B;}
	.st144{fill:#D2B488;}
	.st145{fill:#D2D2D2;}
	.st146{fill-rule:evenodd;clip-rule:evenodd;fill:#63AAA5;}
	.st147{fill:#D3B85F;}
	.st148{fill:#D3B95F;}
	.st149{fill:#D3D3D3;}
	.st150{fill:#D54027;}
	.st151{fill:#3AB780;}
	.st152{fill:#D5BA8A;}
	.st153{fill:#D62127;}
	.st154{fill:#D68936;}
	.st155{fill:#3CB881;}
	.st156{fill:#D7D7D7;}
	.st157{fill:#D7DABA;}
	.st158{fill:#D8D8D7;}
	.st159{fill:#714D22;}
	.st160{fill:#A0D9DC;}
	.st161{fill:#A2D4DE;}
	.st162{fill:#A46434;}
	.st163{fill:#A4A4A4;}
	.st164{fill:#A6A5A5;}
	.st165{fill:#DAA9A3;}
	.st166{fill:#DBBA33;}
	.st167{fill:#DBD3BB;}
	.st168{fill:#DBDDDC;}
	.st169{fill:#DCBF8D;}
	.st170{fill:#DCC172;}
	.st171{fill:#DCDFE0;}
	.st172{fill:#DDC272;}
	.st173{fill:#DDD2A5;}
	.st174{fill:#DDDDDC;}
	.st175{fill:#DDDFE0;}
	.st176{fill:#414141;}
	.st177{fill:#DFC191;}
	.st178{fill:#DFDDDC;}
	.st179{fill:#DFE0E0;}
	.st180{fill:#DFE0E1;}
]]>
</style>
<g>
	<g>
		<g>
			<g>
				<g>
					<g>
						<path class="st127" d="M5.082,68.417c0-34.982,28.355-63.336,63.336-63.336c34.979,0,63.334,28.354,63.334,63.336
							c0,34.979-28.355,63.334-63.334,63.334C33.437,131.751,5.082,103.396,5.082,68.417z"/>
					</g>
				</g>
			</g>
		</g>
	</g>
	<g>
		<g>
			<g>
				<g>
					<path class="st171" d="M70.022,49.152c-2.783,11.517-12.678,51.358-27.617,47.749c-14.941-3.609-5.557-43.574-2.773-55.091
						C40.752,37.163,71.301,43.86,70.022,49.152z"/>
				</g>
				<g>
					<polygon class="st9" points="38.883,94.882 46.516,96.727 44.071,98.961 40.319,98.055 					"/>
				</g>
				<g>
					<path class="st179" d="M39.971,42.345c-2.701,11.181,26.803,18.308,29.504,7.128C70.717,44.334,41.061,37.833,39.971,42.345z"
						/>
				</g>
				<g>
					<path class="st21" d="M39.971,42.345C37.27,53.526,28.03,92.862,42.534,96.366s24.24-35.713,26.941-46.893
						c0,0-3.902,1.004-15.656-1.836C42.061,44.797,39.971,42.345,39.971,42.345z"/>
				</g>
				<g>
					<path class="st21" d="M39.971,42.345C37.27,53.526,28.03,92.862,42.534,96.366s24.24-35.713,26.941-46.893
						c0,0-3.902,1.004-15.656-1.836C42.061,44.797,39.971,42.345,39.971,42.345z"/>
				</g>
				<g>
					<path class="st60" d="M38.54,51.545c-2.125,12.35-2.672,14.873-3.318,24.191c-0.586,8.461,1.531,18.214,7.541,19.666
						c5.99,1.447,11.582-5.321,15.416-12.969c4.008-7.99,6.256-16.37,8.309-24.002c0,0-8.139-4.098-13.863-5.271
						C46.897,51.991,38.54,51.545,38.54,51.545z"/>
				</g>
				<g>
					<g>
						<path class="st60" d="M56.918,55.986c-0.096,0.548-0.154,1.083-0.275,1.587C56.733,57.056,56.821,56.542,56.918,55.986z"/>
					</g>
					<g>
						<path class="st60" d="M56.643,57.573c0,0-0.002,0.014-0.002,0.02v-0.001C56.641,57.585,56.643,57.579,56.643,57.573z"/>
					</g>
				</g>
				<g>
					<path class="st147" d="M38.54,51.545c-2.125,12.35-2.672,14.873-3.318,24.191c-0.586,8.461,1.531,18.214,7.541,19.666
						c5.99,1.447,11.582-5.321,15.416-12.969c4.008-7.99,6.256-16.37,8.309-24.002c0,0-5.01,1.688-14.965-0.717
						C42.309,55.491,38.54,51.545,38.54,51.545z"/>
				</g>
				<g>
					<g>
						<path class="st60" d="M56.639,57.595l0.002-0.003c0-0.006,0.002-0.014,0.002-0.014c0.002-0.012,0.002-0.018,0.004-0.021
							C56.645,57.569,56.643,57.583,56.639,57.595z"/>
					</g>
					<g>
						<path class="st147" d="M56.918,55.986c-0.094,0.542-0.154,1.069-0.271,1.571C56.735,57.043,56.823,56.536,56.918,55.986z"/>
					</g>
				</g>
				<g>
					<path class="st19" d="M38.325,92.043c1.143,1.708,2.609,2.917,4.438,3.359c5.99,1.447,11.582-5.321,15.416-12.969
						c4.008-7.99,6.256-16.37,8.309-24.002c0,0-5.01,1.688-14.965-0.717c-2.303-0.557-4.266-1.221-5.914-1.902L38.325,92.043z"/>
				</g>
				<g>
					<path class="st28" d="M42.762,95.403c5.99,1.447,11.582-5.321,15.416-12.969c4.008-7.99,6.256-16.37,8.309-24.002
						c0,0-5.01,1.688-14.965-0.717L42.762,95.403z"/>
				</g>
				<g>
					<path class="st37" d="M42.762,95.403c0.75,0.181,1.492,0.233,2.225,0.172l10.906-37c-1.332-0.199-2.789-0.477-4.371-0.859
						L42.762,95.403z"/>
				</g>
			</g>
			<g class="st31">
				<g>
					
						<ellipse transform="matrix(-0.972 -0.2349 0.2349 -0.972 103.5663 140.5083)" class="st60" cx="60.151" cy="64.086" rx="1.322" ry="1.474"/>
				</g>
				<g>
					
						<ellipse transform="matrix(-0.9721 -0.2347 0.2347 -0.9721 86.7185 145.3304)" class="st60" cx="52.007" cy="67.505" rx="1.321" ry="1.474"/>
				</g>
				<g>
					
						<ellipse transform="matrix(-0.972 -0.2351 0.2351 -0.972 75.1497 130.6108)" class="st60" cx="45.359" cy="60.827" rx="1.321" ry="1.473"/>
				</g>
				<g>
					
						<ellipse transform="matrix(-0.9721 -0.2347 0.2347 -0.9721 94.432 162.8362)" class="st60" cx="56.906" cy="75.799" rx="1.321" ry="1.474"/>
				</g>
				<g>
					
						<ellipse transform="matrix(-0.9721 -0.2345 0.2345 -0.9721 84.5102 183.7964)" class="st60" cx="53.184" cy="86.873" rx="1.322" ry="1.473"/>
				</g>
				<g>
					
						<ellipse transform="matrix(-0.9721 -0.2347 0.2347 -0.9721 76.299 167.3012)" class="st60" cx="48.105" cy="79.11" rx="1.321" ry="1.474"/>
				</g>
				<g>
					
						<ellipse transform="matrix(-0.9721 -0.2347 0.2347 -0.9721 68.0505 151.5344)" class="st60" cx="43.042" cy="71.718" rx="1.321" ry="1.473"/>
				</g>
				<g>
					
						<ellipse transform="matrix(-0.9721 -0.2345 0.2345 -0.9721 60.9015 135.7368)" class="st60" cx="38.522" cy="64.247" rx="1.322" ry="1.474"/>
				</g>
				<g>
					
						<ellipse transform="matrix(-0.9721 -0.2347 0.2347 -0.9721 66.6733 189.4623)" class="st60" cx="44.611" cy="90.764" rx="1.321" ry="1.472"/>
				</g>
				<g>
					
						<ellipse transform="matrix(-0.972 -0.2351 0.2351 -0.972 59.5338 172.9408)" class="st60" cx="40.074" cy="82.922" rx="1.321" ry="1.473"/>
				</g>
			</g>
			<g>
				<path class="st60" d="M38.54,51.545c0,0,8.357,0.445,14.084,1.616c5.725,1.173,13.863,5.271,13.863,5.271
					s-5.01,1.688-14.965-0.717C42.309,55.491,38.54,51.545,38.54,51.545z"/>
			</g>
			<g>
				<g>
					<path class="st147" d="M41.608,94.995c0.059,0.028,0.121,0.053,0.184,0.078C41.729,95.047,41.667,95.023,41.608,94.995z"/>
				</g>
				<g>
					<path class="st147" d="M40.59,94.412c0.053,0.036,0.105,0.075,0.158,0.109C40.696,94.487,40.643,94.448,40.59,94.412z"/>
				</g>
				<g>
					<path class="st147" d="M38.901,92.818c0.049,0.06,0.1,0.12,0.15,0.179C39,92.938,38.95,92.877,38.901,92.818z"/>
				</g>
				<g>
					<path class="st147" d="M38.54,51.545c-0.09,0.535-0.15,1.055-0.268,1.549C38.36,52.588,38.448,52.088,38.54,51.545z"/>
				</g>
				<g>
					<path class="st147" d="M39.768,93.756c0.023,0.021,0.045,0.039,0.068,0.059C39.813,93.795,39.792,93.778,39.768,93.756z"/>
				</g>
				<g>
					<path class="st170" d="M41.792,95.073c0.313,0.133,0.633,0.248,0.971,0.33C42.424,95.321,42.104,95.206,41.792,95.073z"/>
				</g>
				<g>
					<path class="st170" d="M39.051,92.997c0.229,0.271,0.467,0.529,0.717,0.76C39.518,93.526,39.28,93.267,39.051,92.997z"/>
				</g>
				<g>
					<path class="st170" d="M40.749,94.521c0.275,0.181,0.561,0.337,0.859,0.474C41.309,94.858,41.024,94.702,40.749,94.521z"/>
				</g>
				<g>
					<path class="st170" d="M38.325,92.043l0.002-0.01c0.184,0.273,0.373,0.537,0.574,0.784
						C38.702,92.571,38.506,92.317,38.325,92.043z"/>
				</g>
				<g>
					<path class="st170" d="M39.836,93.815c0.24,0.217,0.492,0.415,0.754,0.597C40.329,94.23,40.077,94.032,39.836,93.815z"/>
				</g>
				<g>
					<path class="st37" d="M53.604,58.17c-0.67-0.133-1.359-0.281-2.082-0.455C52.245,57.889,52.934,58.038,53.604,58.17z"/>
				</g>
				<g>
					<path class="st37" d="M55.557,58.517c-0.43-0.067-0.873-0.146-1.328-0.229C54.684,58.372,55.127,58.45,55.557,58.517z"/>
				</g>
				<g>
					<path class="st28" d="M38.262,53.159v-0.004c0.002-0.012,0.006-0.025,0.008-0.037c0,0,0.002-0.016,0.002-0.023
						C38.27,53.116,38.266,53.137,38.262,53.159z"/>
				</g>
				<g>
					<path class="st59" d="M45.543,55.786l0.064,0.027l-0.396,1.972c-3.873-1.528-7.248-3.332-6.949-4.626
						c0.004-0.021,0.008-0.043,0.01-0.064c0.117-0.494,0.178-1.014,0.268-1.549C38.54,51.545,40.641,53.745,45.543,55.786z"/>
				</g>
				<g>
					<path class="st63" d="M45.211,57.785l0.396-1.972c1.648,0.682,3.611,1.346,5.914,1.902l-0.48,2.064
						C49.239,59.253,47.167,58.555,45.211,57.785z"/>
				</g>
				<g>
					<path class="st28" d="M54.229,58.288c-0.207-0.038-0.41-0.075-0.625-0.117C53.819,58.212,54.022,58.25,54.229,58.288z"/>
				</g>
				<g>
					<path class="st116" d="M55.264,60.708l0.629-2.133c-0.105-0.016-0.229-0.041-0.336-0.058c7.266,1.138,10.93-0.085,10.93-0.085
						c-0.104,0.381-0.217,0.762-0.311,1.15C65.731,61.424,60.196,61.485,55.264,60.708z"/>
				</g>
				<g>
					<path class="st115" d="M55.264,60.708c-1.416-0.223-2.787-0.512-3.967-0.852c-0.084-0.023-0.172-0.051-0.256-0.076l0.48-2.064
						c0.723,0.174,1.412,0.322,2.082,0.455c0.215,0.042,0.418,0.079,0.625,0.117c0.455,0.084,0.898,0.162,1.328,0.229
						c0.107,0.017,0.23,0.042,0.336,0.058L55.264,60.708z"/>
				</g>
			</g>
		</g>
		<g>
			<g>
				<g>
					<path class="st171" d="M66.258,44.652c2.783,11.517,12.678,51.358,27.617,47.749c14.941-3.609,5.557-43.574,2.773-55.091
						C95.528,32.663,64.979,39.36,66.258,44.652z"/>
				</g>
				<g>
					<g>
						<path class="st9" d="M44.215,98.807l-3.936-0.951c0,0-0.938,7.585-2.383,13.563c-0.563,2.33-1.941,6.432-3.414,10.572
							c1.221,0.771,2.461,1.514,3.736,2.203c0.641-4.916,1.365-9.926,1.924-12.232C41.422,106.667,44.215,98.807,44.215,98.807z"/>
					</g>
					<g>
						<path class="st9" d="M96,93.356l-3.936,0.951c0,0,2.793,7.86,4.072,13.155c0.727,3.006,1.736,10.594,2.475,16.59
							c1.563-0.854,3.08-1.777,4.561-2.756c-1.916-5.236-4.053-11.326-4.789-14.377C96.938,100.942,96,93.356,96,93.356z"/>
					</g>
				</g>
				<g>
					<polygon class="st9" points="97.397,90.382 89.764,92.227 92.209,94.461 95.961,93.555 					"/>
				</g>
				<g>
					<path class="st179" d="M96.309,37.845c2.701,11.181-26.803,18.308-29.504,7.128C65.563,39.834,95.219,33.333,96.309,37.845z"/>
				</g>
				<g>
					<path class="st21" d="M96.309,37.845c2.701,11.181,11.941,50.517-2.563,54.021s-24.24-35.713-26.941-46.893
						c0,0,3.902,1.004,15.656-1.836C94.219,40.297,96.309,37.845,96.309,37.845z"/>
				</g>
				<g>
					<path class="st21" d="M96.309,37.845c2.701,11.181,11.941,50.517-2.563,54.021s-24.24-35.713-26.941-46.893
						c0,0,3.902,1.004,15.656-1.836C94.219,40.297,96.309,37.845,96.309,37.845z"/>
				</g>
				<g>
					<path class="st60" d="M97.741,47.045c2.125,12.35,2.672,14.873,3.318,24.191c0.586,8.461-1.531,18.214-7.541,19.666
						c-5.99,1.447-11.582-5.321-15.416-12.969c-4.008-7.99-6.256-16.37-8.309-24.002c0,0,8.139-4.098,13.863-5.271
						C89.383,47.491,97.741,47.045,97.741,47.045z"/>
				</g>
				<g>
					<g>
						<path class="st60" d="M79.362,51.486c0.096,0.548,0.154,1.083,0.275,1.587C79.547,52.556,79.459,52.042,79.362,51.486z"/>
					</g>
					<g>
						<path class="st60" d="M79.637,53.073c0,0,0.002,0.014,0.002,0.02v-0.001C79.639,53.085,79.637,53.079,79.637,53.073z"/>
					</g>
				</g>
				<g>
					<path class="st147" d="M97.741,47.045c2.125,12.35,2.672,14.873,3.318,24.191c0.586,8.461-1.531,18.214-7.541,19.666
						c-5.99,1.447-11.582-5.321-15.416-12.969c-4.008-7.99-6.256-16.37-8.309-24.002c0,0,5.01,1.688,14.965-0.717
						C93.971,50.991,97.741,47.045,97.741,47.045z"/>
				</g>
				<g>
					<g>
						<path class="st60" d="M79.641,53.095l-0.002-0.003c0-0.006-0.002-0.014-0.002-0.014c-0.002-0.012-0.002-0.018-0.004-0.021
							C79.635,53.069,79.637,53.083,79.641,53.095z"/>
					</g>
					<g>
						<path class="st147" d="M79.362,51.486c0.094,0.542,0.154,1.069,0.271,1.571C79.545,52.543,79.458,52.036,79.362,51.486z"/>
					</g>
				</g>
				<g>
					<path class="st19" d="M97.956,87.543c-1.143,1.708-2.609,2.917-4.438,3.359c-5.99,1.447-11.582-5.321-15.416-12.969
						c-4.008-7.99-6.256-16.37-8.309-24.002c0,0,5.01,1.688,14.965-0.717c2.303-0.557,4.266-1.221,5.914-1.902L97.956,87.543z"/>
				</g>
				<g>
					<path class="st28" d="M93.518,90.903c-5.99,1.447-11.582-5.321-15.416-12.969c-4.008-7.99-6.256-16.37-8.309-24.002
						c0,0,5.01,1.688,14.965-0.717L93.518,90.903z"/>
				</g>
				<g>
					<path class="st37" d="M93.518,90.903c-0.75,0.181-1.492,0.233-2.225,0.172l-10.906-37c1.332-0.199,2.789-0.477,4.371-0.859
						L93.518,90.903z"/>
				</g>
			</g>
			<g class="st31">
				<g>
					
						<ellipse transform="matrix(0.972 -0.2349 0.2349 0.972 -11.8659 19.5483)" class="st60" cx="76.129" cy="59.586" rx="1.322" ry="1.474"/>
				</g>
				<g>
					
						<ellipse transform="matrix(0.9721 -0.2347 0.2347 0.9721 -12.4333 21.5388)" class="st60" cx="84.273" cy="63.005" rx="1.321" ry="1.474"/>
				</g>
				<g>
					
						<ellipse transform="matrix(0.972 -0.235 0.235 0.972 -10.6923 22.9492)" class="st60" cx="90.921" cy="56.327" rx="1.321" ry="1.473"/>
				</g>
				<g>
					
						<ellipse transform="matrix(0.9721 -0.2347 0.2347 0.9721 -14.5168 20.6208)" class="st60" cx="79.375" cy="71.299" rx="1.321" ry="1.474"/>
				</g>
				<g>
					
						<ellipse transform="matrix(0.9721 -0.2345 0.2345 0.9721 -17.0014 21.7863)" class="st60" cx="83.096" cy="82.373" rx="1.322" ry="1.473"/>
				</g>
				<g>
					
						<ellipse transform="matrix(0.9721 -0.2347 0.2347 0.9721 -15.0482 22.7788)" class="st60" cx="88.175" cy="74.61" rx="1.321" ry="1.474"/>
				</g>
				<g>
					
						<ellipse transform="matrix(0.9721 -0.2347 0.2347 0.9721 -13.1717 23.7605)" class="st60" cx="93.238" cy="67.218" rx="1.321" ry="1.473"/>
				</g>
				<g>
					
						<ellipse transform="matrix(0.9721 -0.2345 0.2345 0.9721 -11.286 24.5939)" class="st60" cx="97.758" cy="59.747" rx="1.322" ry="1.474"/>
				</g>
				<g>
					
						<ellipse transform="matrix(0.9721 -0.2347 0.2347 0.9721 -17.6856 23.9244)" class="st60" cx="91.669" cy="86.264" rx="1.321" ry="1.472"/>
				</g>
				<g>
					
						<ellipse transform="matrix(0.972 -0.235 0.235 0.972 -15.7378 24.8105)" class="st60" cx="96.207" cy="78.422" rx="1.321" ry="1.473"/>
				</g>
			</g>
			<g>
				<path class="st60" d="M97.741,47.045c0,0-8.357,0.445-14.084,1.616c-5.725,1.173-13.863,5.271-13.863,5.271
					s5.01,1.688,14.965-0.717C93.971,50.991,97.741,47.045,97.741,47.045z"/>
			</g>
			<g>
				<g>
					<path class="st147" d="M94.672,90.495c-0.059,0.028-0.121,0.053-0.184,0.078C94.551,90.547,94.614,90.523,94.672,90.495z"/>
				</g>
				<g>
					<path class="st147" d="M95.69,89.912c-0.053,0.036-0.105,0.075-0.158,0.109C95.584,89.987,95.637,89.948,95.69,89.912z"/>
				</g>
				<g>
					<path class="st147" d="M97.379,88.318c-0.049,0.06-0.1,0.12-0.15,0.179C97.28,88.438,97.331,88.377,97.379,88.318z"/>
				</g>
				<g>
					<path class="st147" d="M97.741,47.045c0.09,0.535,0.15,1.055,0.268,1.549C97.92,48.088,97.833,47.588,97.741,47.045z"/>
				</g>
				<g>
					<path class="st147" d="M96.512,89.256c-0.023,0.021-0.045,0.039-0.068,0.059C96.467,89.295,96.489,89.278,96.512,89.256z"/>
				</g>
				<g>
					<path class="st170" d="M94.489,90.573c-0.313,0.133-0.633,0.248-0.971,0.33C93.856,90.821,94.176,90.706,94.489,90.573z"/>
				</g>
				<g>
					<path class="st170" d="M97.229,88.497c-0.229,0.271-0.467,0.529-0.717,0.76C96.762,89.026,97,88.767,97.229,88.497z"/>
				</g>
				<g>
					<path class="st170" d="M95.532,90.021c-0.275,0.181-0.561,0.337-0.859,0.474C94.971,90.358,95.256,90.202,95.532,90.021z"/>
				</g>
				<g>
					<path class="st170" d="M97.956,87.543l-0.002-0.01c-0.184,0.273-0.373,0.537-0.574,0.784
						C97.579,88.071,97.774,87.817,97.956,87.543z"/>
				</g>
				<g>
					<path class="st170" d="M96.444,89.315c-0.24,0.217-0.492,0.415-0.754,0.597C95.952,89.73,96.204,89.532,96.444,89.315z"/>
				</g>
				<g>
					<path class="st37" d="M82.676,53.67c0.67-0.133,1.359-0.281,2.082-0.455C84.036,53.389,83.346,53.538,82.676,53.67z"/>
				</g>
				<g>
					<path class="st37" d="M80.723,54.017c0.43-0.067,0.873-0.146,1.328-0.229C81.596,53.872,81.153,53.95,80.723,54.017z"/>
				</g>
				<g>
					<path class="st28" d="M98.018,48.659v-0.004c-0.002-0.012-0.006-0.025-0.008-0.037c0,0-0.002-0.016-0.002-0.023
						C98.01,48.616,98.014,48.637,98.018,48.659z"/>
				</g>
				<g>
					<path class="st59" d="M90.737,51.286l-0.064,0.027l0.396,1.972c3.873-1.528,7.248-3.332,6.949-4.626
						c-0.004-0.021-0.008-0.043-0.01-0.064c-0.117-0.494-0.178-1.014-0.268-1.549C97.741,47.045,95.639,49.245,90.737,51.286z"/>
				</g>
				<g>
					<path class="st63" d="M91.069,53.285l-0.396-1.972c-1.648,0.682-3.611,1.346-5.914,1.902l0.48,2.064
						C87.042,54.753,89.114,54.055,91.069,53.285z"/>
				</g>
				<g>
					<path class="st28" d="M82.051,53.788c0.207-0.038,0.41-0.075,0.625-0.117C82.461,53.712,82.258,53.75,82.051,53.788z"/>
				</g>
				<g>
					<path class="st116" d="M81.016,56.208l-0.629-2.133c0.105-0.016,0.229-0.041,0.336-0.058c-7.266,1.138-10.93-0.085-10.93-0.085
						c0.104,0.381,0.217,0.762,0.311,1.15C70.549,56.924,76.084,56.985,81.016,56.208z"/>
				</g>
				<g>
					<path class="st115" d="M81.016,56.208c1.416-0.223,2.787-0.512,3.967-0.852c0.084-0.023,0.172-0.051,0.256-0.076l-0.48-2.064
						c-0.723,0.174-1.412,0.322-2.082,0.455c-0.215,0.042-0.418,0.079-0.625,0.117c-0.455,0.084-0.898,0.162-1.328,0.229
						c-0.107,0.017-0.23,0.042-0.336,0.058L81.016,56.208z"/>
				</g>
			</g>
		</g>
	</g>
</g>
</svg>
