<?xml version="1.0" encoding="utf-8"?>
<!-- Generator: Adobe Illustrator 16.0.0, SVG Export Plug-In . SVG Version: 6.00 Build 0)  -->
<!DOCTYPE svg PUBLIC "-//W3C//DTD SVG 1.1//EN" "http://www.w3.org/Graphics/SVG/1.1/DTD/svg11.dtd">
<svg version="1.1" id="Layer_1" xmlns="http://www.w3.org/2000/svg" xmlns:xlink="http://www.w3.org/1999/xlink" x="0px" y="0px"
	 width="136.833px" height="136.834px" viewBox="0 0 136.833 136.834" style="enable-background:new 0 0 136.833 136.834;"
	 xml:space="preserve">
<style type="text/css">
<![CDATA[
	.st0{fill:#7A5628;}
	.st1{fill:#49A0AE;}
	.st2{fill:#ACA8A9;}
	.st3{fill:#7DB6B7;}
	.st4{fill:#11100E;}
	.st5{fill:#7FCDCC;}
	.st6{fill:#E0DAD2;}
	.st7{fill:#E1E1E1;}
	.st8{fill:#13B3CA;}
	.st9{fill:#E3E4E5;}
	.st10{fill:#15B5AC;}
	.st11{fill:#E4B894;}
	.st12{fill:#E4C88F;}
	.st13{fill:#E4DED0;}
	.st14{fill:#4A86C5;}
	.st15{fill:#4ABC96;}
	.st16{fill:#171413;}
	.st17{fill:#E5CE27;}
	.st18{fill:#187070;}
	.st19{fill:#E7CB7C;}
	.st20{fill:#E7DDB3;}
	.st21{fill:#E7E9EA;}
	.st22{fill:#E84849;}
	.st23{fill:#E89423;}
	.st24{fill:#E8CC7C;}
	.st25{fill:#E8EAEB;}
	.st26{fill:#E97539;}
	.st27{fill:#E9C29C;}
	.st28{fill:#E9DC96;}
	.st29{fill:#B16E29;}
	.st30{opacity:0.01;}
	.st31{opacity:0.45;}
	.st32{fill:#1A1919;}
	.st33{fill:#B69B30;}
	.st34{fill:#EADD97;}
	.st35{fill:#EB9682;}
	.st36{fill:#B7B7B7;}
	.st37{fill:#EBD9A9;}
	.st38{fill:#1DA049;}
	.st39{fill:#1E1913;}
	.st40{fill:#1E1B17;}
	.st41{fill:#ECDAAA;}
	.st42{fill:#ECE6D5;}
	.st43{fill:#ED3351;}
	.st44{fill:#B9B9BA;}
	.st45{fill:#EDECED;}
	.st46{fill:#1FA85B;}
	.st47{fill:#EEE17F;}
	.st48{fill:#EEE4B8;}
	.st49{fill-rule:evenodd;clip-rule:evenodd;fill:#7FCDCC;}
	.st50{fill:#515252;}
	.st51{fill:#543A1A;}
	.st52{fill:#BB2025;}
	.st53{fill:#8C652E;}
	.st54{fill:#8C8C8C;}
	.st55{fill:#212121;}
	.st56{fill:#BF2126;}
	.st57{fill:#BFBEBE;}
	.st58{fill:#F0C418;}
	.st59{fill:#F0CF6A;}
	.st60{fill:#F0E3C8;}
	.st61{fill:#F1D069;}
	.st62{fill:#F1E4C8;}
	.st63{fill:#F2D083;}
	.st64{fill:#F3BB70;}
	.st65{fill:#F3C715;}
	.st66{fill:#F3D183;}
	.st67{fill:#258C8E;}
	.st68{fill:#25999B;}
	.st69{fill:#F4E028;}
	.st70{fill:#F59798;}
	.st71{fill:#F5DE57;}
	.st72{fill:#F6A2A3;}
	.st73{fill:#F6F7F7;}
	.st74{fill:#28999B;}
	.st75{fill:#F7DF56;}
	.st76{fill:#29A5AE;}
	.st77{fill:#F8B85C;}
	.st78{fill:#F8D648;}
	.st79{fill:#F8DC62;}
	.st80{fill:#F8E69B;}
	.st81{fill:#F8E9AB;}
	.st82{fill:#F8F3DC;}
	.st83{fill:#F9A11C;}
	.st84{fill:#F9A72F;}
	.st85{fill:#F9A731;}
	.st86{fill:#F9E478;}
	.st87{fill:#F9EC34;}
	.st88{fill:#92C7CB;}
	.st89{fill:#93574E;}
	.st90{fill:#939291;}
	.st91{fill:#C2D2D3;}
	.st92{fill:#C42126;}
	.st93{fill:#C47267;}
	.st94{fill:#C4C3C3;}
	.st95{fill:#C5A72E;}
	.st96{fill:#2B2B2B;}
	.st97{fill:#2B5C64;}
	.st98{fill:#FACB83;}
	.st99{fill:#2D2D2D;}
	.st100{fill:#FBEC68;}
	.st101{fill:#2D646D;}
	.st102{fill:#FBF3CE;}
	.st103{fill:#C8802A;}
	.st104{fill:#99999A;}
	.st105{fill:#C8C8C8;}
	.st106{fill-rule:evenodd;clip-rule:evenodd;fill:#59A29F;}
	.st107{fill:#99CED5;}
	.st108{fill:#FDF3D0;}
	.st109{fill:#2F8442;}
	.st110{fill:#60441D;}
	.st111{opacity:0.5;}
	.st112{opacity:0.6;}
	.st113{opacity:0.8;}
	.st114{fill:#FFCE80;}
	.st115{fill:#FFEBBF;}
	.st116{fill:#FFEEA5;}
	.st117{fill:#FFFFFA;}
	.st118{fill:#FFFFFF;}
	.st119{fill:#644421;}
	.st120{fill:none;}
	.st121{fill:#65A844;}
	.st122{fill:#CB4645;}
	.st123{fill:#69C8CF;}
	.st124{fill:#CCCBCB;}
	.st125{fill:#30302F;}
	.st126{fill:#9F7534;}
	.st127{fill:#9F77AA;}
	.st128{fill:#CECECD;}
	.st129{fill:#CECFD0;}
	.st130{fill:#336C75;}
	.st131{fill:#343433;}
	.st132{fill:#344E5D;}
	.st133{fill:#353535;}
	.st134{fill:#357180;}
	.st135{fill:#377CA5;}
	.st136{fill:#383939;}
	.st137{fill-rule:evenodd;clip-rule:evenodd;fill:#97D6D5;}
	.st138{fill:#388388;}
	.st139{fill:#6E5538;}
	.st140{fill:#00A79E;}
	.st141{fill:#D0A288;}
	.st142{fill:#D0E8D0;}
	.st143{fill:#D1AF2B;}
	.st144{fill:#D2B488;}
	.st145{fill:#D2D2D2;}
	.st146{fill-rule:evenodd;clip-rule:evenodd;fill:#63AAA5;}
	.st147{fill:#D3B85F;}
	.st148{fill:#D3B95F;}
	.st149{fill:#D3D3D3;}
	.st150{fill:#D54027;}
	.st151{fill:#3AB780;}
	.st152{fill:#D5BA8A;}
	.st153{fill:#D62127;}
	.st154{fill:#D68936;}
	.st155{fill:#3CB881;}
	.st156{fill:#D7D7D7;}
	.st157{fill:#D7DABA;}
	.st158{fill:#D8D8D7;}
	.st159{fill:#714D22;}
	.st160{fill:#A0D9DC;}
	.st161{fill:#A2D4DE;}
	.st162{fill:#A46434;}
	.st163{fill:#A4A4A4;}
	.st164{fill:#A6A5A5;}
	.st165{fill:#DAA9A3;}
	.st166{fill:#DBBA33;}
	.st167{fill:#DBD3BB;}
	.st168{fill:#DBDDDC;}
	.st169{fill:#DCBF8D;}
	.st170{fill:#DCC172;}
	.st171{fill:#DCDFE0;}
	.st172{fill:#DDC272;}
	.st173{fill:#DDD2A5;}
	.st174{fill:#DDDDDC;}
	.st175{fill:#DDDFE0;}
	.st176{fill:#414141;}
	.st177{fill:#DFC191;}
	.st178{fill:#DFDDDC;}
	.st179{fill:#DFE0E0;}
	.st180{fill:#DFE0E1;}
]]>
</style>
<g>
	<g>
		<g>
			<g>
				<g>
					<g>
						<circle class="st22" cx="68.417" cy="68.418" r="63.333"/>
					</g>
				</g>
			</g>
			<g>
				<g>
					<path class="st14" d="M128.735,87.744c0.232-0.724,0.443-1.457,0.65-2.192C129.178,86.289,128.961,87.02,128.735,87.744z"/>
				</g>
				<g>
					<polygon class="st135" points="129.389,85.538 129.389,85.538 129.385,85.552 					"/>
				</g>
			</g>
		</g>
	</g>
	<g>
		<g>
			<g>
				<g>
					<g>
						<path class="st18" d="M65.708,36.279c0,0-7.842,4.227,2.271,13.045C67.979,49.324,51.249,40.792,65.708,36.279z"/>
					</g>
					<g>
						<g>
							<path class="st76" d="M58.762,38.303c-2.725,4.955,7.975,11.715,7.975,11.715l1.242-0.693
								c-1.205-0.832-8.361-5.977-7.031-9.584c1.318-3.578,5.883-2.72,7.264,0.689c1.219,3.017,2.299,6.573,2.248,7.502l1.09-0.611
								c0,0,0.861-4.225-1.045-8.938C68.596,33.668,61.311,33.66,58.762,38.303z"/>
						</g>
					</g>
				</g>
				<g>
					<g>
						<path class="st18" d="M77.463,37.355c0,0,6.951,4.643-1.895,14.714C75.569,52.069,90.254,42.227,77.463,37.355z"/>
					</g>
					<g>
						<g>
							<path class="st76" d="M83.608,39.532c2.441,5.539-6.938,13.301-6.938,13.301l-1.102-0.764
								c1.055-0.954,7.324-6.847,6.123-10.886c-1.193-4.009-5.213-2.979-6.402,0.879c-1.049,3.411-1.973,7.432-1.92,8.475
								l-0.967-0.672c0,0-0.795-4.741,0.848-10.074C74.893,34.459,81.321,34.345,83.608,39.532z"/>
						</g>
					</g>
				</g>
				<g>
					<g>
						<path class="st18" d="M74.698,30.846c0,0-10.789-0.045-5.133,15.613C69.565,46.459,56.704,27.178,74.698,30.846z"/>
					</g>
					<g>
						<g>
							<path class="st76" d="M66.137,28.924c-5.766,3.8,1.703,17.558,1.703,17.558l1.725-0.022
								c-0.801-1.625-5.438-11.507-1.936-14.66c3.475-3.129,7.836,0.525,7.33,5.074c-0.447,4.022-1.359,8.555-1.951,9.541
								l1.514-0.021c0,0,3.363-4.104,4.063-10.394S71.538,25.365,66.137,28.924z"/>
						</g>
					</g>
				</g>
				<g>
					<g>
						<g>
							<g>
								<path class="st76" d="M92.229,50.56c-3.799,5.765-17.557-1.703-17.557-1.703l0.021-1.725
									c1.625,0.801,11.328,5.269,14.66,1.938c1.109-1.111-1.539-7.271-5.074-7.332c-4.047-0.071-9.264,1.308-13.682,8.558
									l0.021-4.156c0,0,8.244-7.327,14.533-8.026C91.442,37.412,95.788,45.16,92.229,50.56z"/>
							</g>
						</g>
					</g>
					<g>
						<path class="st18" d="M70.598,50.295c0,0,4.984-9.476,14.801-8.344c0,0-4.273-1.203-6.871-0.662
							c-1.359,0.283-5.607,2.549-7.908,4.85L70.598,50.295z"/>
					</g>
				</g>
				<g>
					<g>
						<g>
							<g>
								<path class="st76" d="M51.487,52.372c4.744,5.015,16.992-4.733,16.992-4.733l-0.322-1.694
									c-1.461,1.071-10.238,7.159-14.1,4.459c-1.285-0.901,0.25-7.427,3.721-8.103c3.975-0.774,9.352-0.324,14.963,6.045
									l-0.744-4.088c0,0-9.395-5.781-15.709-5.375S47.042,47.674,51.487,52.372z"/>
							</g>
						</g>
					</g>
					<g>
						<path class="st18" d="M72.741,48.346c0,0-6.557-8.465-16.027-5.641c0,0,4-1.927,6.652-1.847
							c1.387,0.042,5.965,1.534,8.631,3.399L72.741,48.346z"/>
					</g>
				</g>
			</g>
			<g>
				<path class="st161" d="M104.174,55.72H35.36c-1.182,0-2.141,0.959-2.141,2.143v38.556c0,1.182,0.959,2.141,2.141,2.141h34.338
					h0.141h34.336c1.184,0,2.141-0.958,2.141-2.141V57.862C106.315,56.68,105.358,55.72,104.174,55.72z"/>
			</g>
			<g>
				<path class="st107" d="M104.174,55.72H69.842l0.006,42.839h34.326c1.184,0,2.141-0.958,2.141-2.141V57.862
					C106.315,56.68,105.358,55.72,104.174,55.72z"/>
			</g>
			<g>
				<path class="st3" d="M106.52,53.24l-36.678-6.994v-0.029l-0.074,0.015l-0.076-0.015v0.029L33.014,53.24
					c-1.262,0-2.287,1.023-2.287,2.288v6.751c0,1.262,1.025,2.287,2.287,2.287l36.754-7.009l36.752,7.009
					c1.264,0,2.287-1.023,2.287-2.287v-6.751C108.807,54.265,107.784,53.24,106.52,53.24z"/>
			</g>
			<g>
				<path class="st88" d="M108.807,61.033c0,1.264,0.076,2.363-0.83,2.287l-38.285-7.023V44.972l36.828,7.022
					c1.264,0,2.287,1.024,2.287,2.287V61.033z"/>
			</g>
			<g>
				<path class="st161" d="M30.727,54.281c0-1.264,1.025-2.287,2.287-2.287l36.828-7.022v11.325l-38.436,7.326
					c-0.68,0-0.68-1.328-0.68-2.59V54.281z"/>
			</g>
			<g>
				<g>
					<polygon class="st68" points="94.612,98.887 83.737,98.887 83.737,60.205 84.417,59.168 95.368,61.207 94.612,62.244 					"/>
				</g>
				<g>
					<polygon class="st67" points="83.737,60.205 84.417,59.168 95.368,61.207 94.612,62.242 					"/>
				</g>
				<g>
					<polygon class="st68" points="95.368,49.842 84.417,47.727 84.417,59.168 95.368,61.207 					"/>
				</g>
			</g>
			<g>
				<g>
					<polygon class="st76" points="44.454,98.887 55.327,98.887 55.327,60.264 54.647,59.168 43.698,61.206 44.454,62.301 					"/>
				</g>
				<g>
					<polygon class="st74" points="55.327,60.264 54.647,59.168 43.698,61.206 44.454,62.301 					"/>
				</g>
				<g>
					<polygon class="st76" points="43.698,49.955 54.674,47.86 54.647,59.168 43.698,61.206 					"/>
				</g>
			</g>
		</g>
	</g>
</g>
</svg>
