<?xml version="1.0" encoding="utf-8"?>
<!-- Generator: Adobe Illustrator 16.0.0, SVG Export Plug-In . SVG Version: 6.00 Build 0)  -->
<!DOCTYPE svg PUBLIC "-//W3C//DTD SVG 1.1//EN" "http://www.w3.org/Graphics/SVG/1.1/DTD/svg11.dtd">
<svg version="1.1" id="Layer_1" xmlns="http://www.w3.org/2000/svg" xmlns:xlink="http://www.w3.org/1999/xlink" x="0px" y="0px"
	 width="136.833px" height="136.833px" viewBox="0 0 136.833 136.833" style="enable-background:new 0 0 136.833 136.833;"
	 xml:space="preserve">
<style type="text/css">
<![CDATA[
	.st0{fill:#7A5628;}
	.st1{fill:#49A0AE;}
	.st2{fill:#ACA8A9;}
	.st3{fill:#7DB6B7;}
	.st4{fill:#11100E;}
	.st5{fill:#7FCDCC;}
	.st6{fill:#E0DAD2;}
	.st7{fill:#E1E1E1;}
	.st8{fill:#13B3CA;}
	.st9{fill:#E3E4E5;}
	.st10{fill:#15B5AC;}
	.st11{fill:#E4B894;}
	.st12{fill:#E4C88F;}
	.st13{fill:#E4DED0;}
	.st14{fill:#4A86C5;}
	.st15{fill:#4ABC96;}
	.st16{fill:#171413;}
	.st17{fill:#E5CE27;}
	.st18{fill:#187070;}
	.st19{fill:#E7CB7C;}
	.st20{fill:#E7DDB3;}
	.st21{fill:#E7E9EA;}
	.st22{fill:#E84849;}
	.st23{fill:#E89423;}
	.st24{fill:#E8CC7C;}
	.st25{fill:#E8EAEB;}
	.st26{fill:#E97539;}
	.st27{fill:#E9C29C;}
	.st28{fill:#E9DC96;}
	.st29{fill:#B16E29;}
	.st30{opacity:0.01;}
	.st31{opacity:0.45;}
	.st32{fill:#1A1919;}
	.st33{fill:#B69B30;}
	.st34{fill:#EADD97;}
	.st35{fill:#EB9682;}
	.st36{fill:#B7B7B7;}
	.st37{fill:#EBD9A9;}
	.st38{fill:#1DA049;}
	.st39{fill:#1E1913;}
	.st40{fill:#1E1B17;}
	.st41{fill:#ECDAAA;}
	.st42{fill:#ECE6D5;}
	.st43{fill:#ED3351;}
	.st44{fill:#B9B9BA;}
	.st45{fill:#EDECED;}
	.st46{fill:#1FA85B;}
	.st47{fill:#EEE17F;}
	.st48{fill:#EEE4B8;}
	.st49{fill-rule:evenodd;clip-rule:evenodd;fill:#7FCDCC;}
	.st50{fill:#515252;}
	.st51{fill:#543A1A;}
	.st52{fill:#BB2025;}
	.st53{fill:#8C652E;}
	.st54{fill:#8C8C8C;}
	.st55{fill:#212121;}
	.st56{fill:#BF2126;}
	.st57{fill:#BFBEBE;}
	.st58{fill:#F0C418;}
	.st59{fill:#F0CF6A;}
	.st60{fill:#F0E3C8;}
	.st61{fill:#F1D069;}
	.st62{fill:#F1E4C8;}
	.st63{fill:#F2D083;}
	.st64{fill:#F3BB70;}
	.st65{fill:#F3C715;}
	.st66{fill:#F3D183;}
	.st67{fill:#258C8E;}
	.st68{fill:#25999B;}
	.st69{fill:#F4E028;}
	.st70{fill:#F59798;}
	.st71{fill:#F5DE57;}
	.st72{fill:#F6A2A3;}
	.st73{fill:#F6F7F7;}
	.st74{fill:#28999B;}
	.st75{fill:#F7DF56;}
	.st76{fill:#29A5AE;}
	.st77{fill:#F8B85C;}
	.st78{fill:#F8D648;}
	.st79{fill:#F8DC62;}
	.st80{fill:#F8E69B;}
	.st81{fill:#F8E9AB;}
	.st82{fill:#F8F3DC;}
	.st83{fill:#F9A11C;}
	.st84{fill:#F9A72F;}
	.st85{fill:#F9A731;}
	.st86{fill:#F9E478;}
	.st87{fill:#F9EC34;}
	.st88{fill:#92C7CB;}
	.st89{fill:#93574E;}
	.st90{fill:#939291;}
	.st91{fill:#C2D2D3;}
	.st92{fill:#C42126;}
	.st93{fill:#C47267;}
	.st94{fill:#C4C3C3;}
	.st95{fill:#C5A72E;}
	.st96{fill:#2B2B2B;}
	.st97{fill:#2B5C64;}
	.st98{fill:#FACB83;}
	.st99{fill:#2D2D2D;}
	.st100{fill:#FBEC68;}
	.st101{fill:#2D646D;}
	.st102{fill:#FBF3CE;}
	.st103{fill:#C8802A;}
	.st104{fill:#99999A;}
	.st105{fill:#C8C8C8;}
	.st106{fill-rule:evenodd;clip-rule:evenodd;fill:#59A29F;}
	.st107{fill:#99CED5;}
	.st108{fill:#FDF3D0;}
	.st109{fill:#2F8442;}
	.st110{fill:#60441D;}
	.st111{opacity:0.5;}
	.st112{opacity:0.6;}
	.st113{opacity:0.8;}
	.st114{fill:#FFCE80;}
	.st115{fill:#FFEBBF;}
	.st116{fill:#FFEEA5;}
	.st117{fill:#FFFFFA;}
	.st118{fill:#FFFFFF;}
	.st119{fill:#644421;}
	.st120{fill:none;}
	.st121{fill:#65A844;}
	.st122{fill:#CB4645;}
	.st123{fill:#69C8CF;}
	.st124{fill:#CCCBCB;}
	.st125{fill:#30302F;}
	.st126{fill:#9F7534;}
	.st127{fill:#9F77AA;}
	.st128{fill:#CECECD;}
	.st129{fill:#CECFD0;}
	.st130{fill:#336C75;}
	.st131{fill:#343433;}
	.st132{fill:#344E5D;}
	.st133{fill:#353535;}
	.st134{fill:#357180;}
	.st135{fill:#377CA5;}
	.st136{fill:#383939;}
	.st137{fill-rule:evenodd;clip-rule:evenodd;fill:#97D6D5;}
	.st138{fill:#388388;}
	.st139{fill:#6E5538;}
	.st140{fill:#00A79E;}
	.st141{fill:#D0A288;}
	.st142{fill:#D0E8D0;}
	.st143{fill:#D1AF2B;}
	.st144{fill:#D2B488;}
	.st145{fill:#D2D2D2;}
	.st146{fill-rule:evenodd;clip-rule:evenodd;fill:#63AAA5;}
	.st147{fill:#D3B85F;}
	.st148{fill:#D3B95F;}
	.st149{fill:#D3D3D3;}
	.st150{fill:#D54027;}
	.st151{fill:#3AB780;}
	.st152{fill:#D5BA8A;}
	.st153{fill:#D62127;}
	.st154{fill:#D68936;}
	.st155{fill:#3CB881;}
	.st156{fill:#D7D7D7;}
	.st157{fill:#D7DABA;}
	.st158{fill:#D8D8D7;}
	.st159{fill:#714D22;}
	.st160{fill:#A0D9DC;}
	.st161{fill:#A2D4DE;}
	.st162{fill:#A46434;}
	.st163{fill:#A4A4A4;}
	.st164{fill:#A6A5A5;}
	.st165{fill:#DAA9A3;}
	.st166{fill:#DBBA33;}
	.st167{fill:#DBD3BB;}
	.st168{fill:#DBDDDC;}
	.st169{fill:#DCBF8D;}
	.st170{fill:#DCC172;}
	.st171{fill:#DCDFE0;}
	.st172{fill:#DDC272;}
	.st173{fill:#DDD2A5;}
	.st174{fill:#DDDDDC;}
	.st175{fill:#DDDFE0;}
	.st176{fill:#414141;}
	.st177{fill:#DFC191;}
	.st178{fill:#DFDDDC;}
	.st179{fill:#DFE0E0;}
	.st180{fill:#DFE0E1;}
]]>
</style>
<g>
	<g>
		<g>
			<g>
				<g>
					<g>
						<path class="st15" d="M5.081,68.417c0-34.982,28.357-63.336,63.338-63.336c34.977,0,63.334,28.354,63.334,63.336
							c0,34.979-28.357,63.336-63.334,63.336C33.438,131.752,5.081,103.395,5.081,68.417z"/>
					</g>
				</g>
			</g>
		</g>
	</g>
	<g>
		<g>
			<g>
				<path class="st109" d="M68.237,38.491c0,0-1.148,52.285,2.85,75.074l2.932-0.268c0,0-4.656-65.377-4.051-74.459
					C70.573,29.754,68.237,38.491,68.237,38.491z"/>
			</g>
		</g>
		<g>
			<g>
				<g>
					<g>
						<g>
							<path class="st72" d="M74.972,23.055c0,3.641-2.002,7.299-4.473,7.299s-4.473-3.658-4.473-7.299s2.002-5.885,4.473-5.885
								S74.972,19.415,74.972,23.055z"/>
						</g>
						<g>
							<path class="st22" d="M73.853,24.344c0,2.668-1.467,5.184-3.277,5.184s-3.279-2.516-3.279-5.184
								c0-2.67,1.469-4.479,3.279-4.479S73.853,21.674,73.853,24.344z"/>
						</g>
					</g>
					<g>
						<g>
							<path class="st72" d="M80.569,29.329c-2.574,2.572-6.574,3.744-8.322,1.996c-1.748-1.744-0.576-5.748,1.998-8.322
								c2.572-2.574,5.576-2.744,7.324-0.998C83.315,23.752,83.144,26.754,80.569,29.329z"/>
						</g>
						<g>
							<path class="st22" d="M78.868,29.448c-1.887,1.887-4.703,2.631-5.986,1.348c-1.279-1.279-0.537-4.098,1.348-5.982
								c1.889-1.889,4.207-2.131,5.486-0.85C80.997,25.245,80.755,27.561,78.868,29.448z"/>
						</g>
					</g>
					<g>
						<g>
							<path class="st72" d="M68.761,42.28c-1.422-3.352-1.008-7.5,1.268-8.465c2.273-0.967,5.545,1.619,6.967,4.971
								s0.453,6.197-1.82,7.164C72.901,46.915,70.183,45.629,68.761,42.28z"/>
						</g>
						<g>
							<path class="st22" d="M69.286,40.657c-1.043-2.457-0.674-5.346,0.994-6.053c1.666-0.709,4.002,1.035,5.043,3.49
								c1.043,2.457,0.398,4.697-1.27,5.404S70.329,43.112,69.286,40.657z"/>
						</g>
					</g>
					<g>
						<g>
							<path class="st72" d="M60.327,29.311c3.639-0.045,7.32,1.912,7.35,4.383s-3.602,4.518-7.24,4.561
								c-3.641,0.045-5.91-1.934-5.939-4.4C54.466,31.383,56.688,29.356,60.327,29.311z"/>
						</g>
						<g>
							<path class="st22" d="M61.63,30.413c2.666-0.033,5.201,1.406,5.225,3.217c0.02,1.811-2.479,3.309-5.146,3.34
								c-2.668,0.033-4.496-1.412-4.518-3.225C57.169,31.934,58.96,30.444,61.63,30.413z"/>
						</g>
					</g>
					<g>
						<g>
							<path class="st72" d="M66.11,22.471c2.602,2.543,3.822,6.529,2.096,8.295c-1.725,1.77-5.74,0.646-8.344-1.895
								c-2.607-2.543-2.813-5.543-1.088-7.311C60.499,19.792,63.505,19.93,66.11,22.471z"/>
						</g>
						<g>
							<path class="st22" d="M66.249,24.172c1.91,1.861,2.686,4.67,1.422,5.965c-1.266,1.297-4.092,0.59-6.002-1.273
								c-1.91-1.865-2.18-4.18-0.914-5.475C62.019,22.092,64.339,22.307,66.249,24.172z"/>
						</g>
					</g>
					<g>
						<g>
							<path class="st72" d="M78.651,40.694c-3.629-0.297-7.111-2.59-6.912-5.051c0.201-2.461,4.008-4.162,7.637-3.865
								c3.629,0.293,5.703,2.473,5.502,4.934C84.679,39.174,82.278,40.987,78.651,40.694z"/>
						</g>
						<g>
							<path class="st22" d="M77.458,39.473c-2.66-0.215-5.051-1.883-4.902-3.688c0.146-1.805,2.773-3.064,5.434-2.848
								c2.658,0.215,4.346,1.826,4.197,3.631C82.04,38.374,80.116,39.69,77.458,39.473z"/>
						</g>
					</g>
					<g>
						<g>
							<path class="st72" d="M60.782,39.161c1.363-3.373,4.59-6.014,6.879-5.088c2.291,0.926,2.777,5.064,1.414,8.439
								c-1.365,3.375-4.063,4.705-6.354,3.781C60.433,45.368,59.417,42.536,60.782,39.161z"/>
						</g>
						<g>
							<path class="st22" d="M62.3,38.385c1-2.473,3.305-4.258,4.982-3.578c1.68,0.68,2.098,3.561,1.098,6.037
								c-1,2.473-3.039,3.6-4.719,2.922C61.981,43.086,61.302,40.86,62.3,38.385z"/>
						</g>
					</g>
					<g>
						<ellipse class="st69" cx="69.432" cy="33.506" rx="5.874" ry="5.205"/>
					</g>
					<g>
						<ellipse class="st17" cx="69.432" cy="33.506" rx="3.872" ry="3.432"/>
					</g>
				</g>
			</g>
		</g>
	</g>
	<g class="st112">
		<path class="st6" d="M74.278,81.299c0.043-0.164,0.074-0.332,0.074-0.51V52.651c0-1.115-0.906-2.021-2.023-2.021H66.04
			c-1.117,0-2.021,0.906-2.021,2.021V80.79c0,0.105,0.016,0.209,0.031,0.311c-5.02,1.436-8.697,6.049-8.697,11.529v13.666
			c0,6.627,5.373,12,12,12h3c6.629,0,12-5.373,12-12V92.629C82.353,87.379,78.976,82.928,74.278,81.299z"/>
	</g>
	<g class="st111">
		<path class="st91" d="M55.353,92.629v13.666c0,6.627,5.373,12,12,12h3c6.629,0,12-5.373,12-12V92.629H55.353z"/>
	</g>
</g>
</svg>
