<?xml version="1.0" encoding="utf-8"?>
<!-- Generator: Adobe Illustrator 16.0.0, SVG Export Plug-In . SVG Version: 6.00 Build 0)  -->
<!DOCTYPE svg PUBLIC "-//W3C//DTD SVG 1.1//EN" "http://www.w3.org/Graphics/SVG/1.1/DTD/svg11.dtd">
<svg version="1.1" id="Layer_1" xmlns="http://www.w3.org/2000/svg" xmlns:xlink="http://www.w3.org/1999/xlink" x="0px" y="0px"
	 width="136.833px" height="136.833px" viewBox="0 0 136.833 136.833" style="enable-background:new 0 0 136.833 136.833;"
	 xml:space="preserve">
<style type="text/css">
<![CDATA[
	.st0{fill:#7A5628;}
	.st1{fill:#49A0AE;}
	.st2{fill:#ACA8A9;}
	.st3{fill:#7DB6B7;}
	.st4{fill:#11100E;}
	.st5{fill:#7FCDCC;}
	.st6{fill:#E0DAD2;}
	.st7{fill:#E1E1E1;}
	.st8{fill:#13B3CA;}
	.st9{fill:#E3E4E5;}
	.st10{fill:#15B5AC;}
	.st11{fill:#E4B894;}
	.st12{fill:#E4C88F;}
	.st13{fill:#E4DED0;}
	.st14{fill:#4A86C5;}
	.st15{fill:#4ABC96;}
	.st16{fill:#171413;}
	.st17{fill:#E5CE27;}
	.st18{fill:#187070;}
	.st19{fill:#E7CB7C;}
	.st20{fill:#E7DDB3;}
	.st21{fill:#E7E9EA;}
	.st22{fill:#E84849;}
	.st23{fill:#E89423;}
	.st24{fill:#E8CC7C;}
	.st25{fill:#E8EAEB;}
	.st26{fill:#E97539;}
	.st27{fill:#E9C29C;}
	.st28{fill:#E9DC96;}
	.st29{fill:#B16E29;}
	.st30{opacity:0.01;}
	.st31{opacity:0.45;}
	.st32{fill:#1A1919;}
	.st33{fill:#B69B30;}
	.st34{fill:#EADD97;}
	.st35{fill:#EB9682;}
	.st36{fill:#B7B7B7;}
	.st37{fill:#EBD9A9;}
	.st38{fill:#1DA049;}
	.st39{fill:#1E1913;}
	.st40{fill:#1E1B17;}
	.st41{fill:#ECDAAA;}
	.st42{fill:#ECE6D5;}
	.st43{fill:#ED3351;}
	.st44{fill:#B9B9BA;}
	.st45{fill:#EDECED;}
	.st46{fill:#1FA85B;}
	.st47{fill:#EEE17F;}
	.st48{fill:#EEE4B8;}
	.st49{fill-rule:evenodd;clip-rule:evenodd;fill:#7FCDCC;}
	.st50{fill:#515252;}
	.st51{fill:#543A1A;}
	.st52{fill:#BB2025;}
	.st53{fill:#8C652E;}
	.st54{fill:#8C8C8C;}
	.st55{fill:#212121;}
	.st56{fill:#BF2126;}
	.st57{fill:#BFBEBE;}
	.st58{fill:#F0C418;}
	.st59{fill:#F0CF6A;}
	.st60{fill:#F0E3C8;}
	.st61{fill:#F1D069;}
	.st62{fill:#F1E4C8;}
	.st63{fill:#F2D083;}
	.st64{fill:#F3BB70;}
	.st65{fill:#F3C715;}
	.st66{fill:#F3D183;}
	.st67{fill:#258C8E;}
	.st68{fill:#25999B;}
	.st69{fill:#F4E028;}
	.st70{fill:#F59798;}
	.st71{fill:#F5DE57;}
	.st72{fill:#F6A2A3;}
	.st73{fill:#F6F7F7;}
	.st74{fill:#28999B;}
	.st75{fill:#F7DF56;}
	.st76{fill:#29A5AE;}
	.st77{fill:#F8B85C;}
	.st78{fill:#F8D648;}
	.st79{fill:#F8DC62;}
	.st80{fill:#F8E69B;}
	.st81{fill:#F8E9AB;}
	.st82{fill:#F8F3DC;}
	.st83{fill:#F9A11C;}
	.st84{fill:#F9A72F;}
	.st85{fill:#F9A731;}
	.st86{fill:#F9E478;}
	.st87{fill:#F9EC34;}
	.st88{fill:#92C7CB;}
	.st89{fill:#93574E;}
	.st90{fill:#939291;}
	.st91{fill:#C2D2D3;}
	.st92{fill:#C42126;}
	.st93{fill:#C47267;}
	.st94{fill:#C4C3C3;}
	.st95{fill:#C5A72E;}
	.st96{fill:#2B2B2B;}
	.st97{fill:#2B5C64;}
	.st98{fill:#FACB83;}
	.st99{fill:#2D2D2D;}
	.st100{fill:#FBEC68;}
	.st101{fill:#2D646D;}
	.st102{fill:#FBF3CE;}
	.st103{fill:#C8802A;}
	.st104{fill:#99999A;}
	.st105{fill:#C8C8C8;}
	.st106{fill-rule:evenodd;clip-rule:evenodd;fill:#59A29F;}
	.st107{fill:#99CED5;}
	.st108{fill:#FDF3D0;}
	.st109{fill:#2F8442;}
	.st110{fill:#60441D;}
	.st111{opacity:0.5;}
	.st112{opacity:0.6;}
	.st113{opacity:0.8;}
	.st114{fill:#FFCE80;}
	.st115{fill:#FFEBBF;}
	.st116{fill:#FFEEA5;}
	.st117{fill:#FFFFFA;}
	.st118{fill:#FFFFFF;}
	.st119{fill:#644421;}
	.st120{fill:none;}
	.st121{fill:#65A844;}
	.st122{fill:#CB4645;}
	.st123{fill:#69C8CF;}
	.st124{fill:#CCCBCB;}
	.st125{fill:#30302F;}
	.st126{fill:#9F7534;}
	.st127{fill:#9F77AA;}
	.st128{fill:#CECECD;}
	.st129{fill:#CECFD0;}
	.st130{fill:#336C75;}
	.st131{fill:#343433;}
	.st132{fill:#344E5D;}
	.st133{fill:#353535;}
	.st134{fill:#357180;}
	.st135{fill:#377CA5;}
	.st136{fill:#383939;}
	.st137{fill-rule:evenodd;clip-rule:evenodd;fill:#97D6D5;}
	.st138{fill:#388388;}
	.st139{fill:#6E5538;}
	.st140{fill:#00A79E;}
	.st141{fill:#D0A288;}
	.st142{fill:#D0E8D0;}
	.st143{fill:#D1AF2B;}
	.st144{fill:#D2B488;}
	.st145{fill:#D2D2D2;}
	.st146{fill-rule:evenodd;clip-rule:evenodd;fill:#63AAA5;}
	.st147{fill:#D3B85F;}
	.st148{fill:#D3B95F;}
	.st149{fill:#D3D3D3;}
	.st150{fill:#D54027;}
	.st151{fill:#3AB780;}
	.st152{fill:#D5BA8A;}
	.st153{fill:#D62127;}
	.st154{fill:#D68936;}
	.st155{fill:#3CB881;}
	.st156{fill:#D7D7D7;}
	.st157{fill:#D7DABA;}
	.st158{fill:#D8D8D7;}
	.st159{fill:#714D22;}
	.st160{fill:#A0D9DC;}
	.st161{fill:#A2D4DE;}
	.st162{fill:#A46434;}
	.st163{fill:#A4A4A4;}
	.st164{fill:#A6A5A5;}
	.st165{fill:#DAA9A3;}
	.st166{fill:#DBBA33;}
	.st167{fill:#DBD3BB;}
	.st168{fill:#DBDDDC;}
	.st169{fill:#DCBF8D;}
	.st170{fill:#DCC172;}
	.st171{fill:#DCDFE0;}
	.st172{fill:#DDC272;}
	.st173{fill:#DDD2A5;}
	.st174{fill:#DDDDDC;}
	.st175{fill:#DDDFE0;}
	.st176{fill:#414141;}
	.st177{fill:#DFC191;}
	.st178{fill:#DFDDDC;}
	.st179{fill:#DFE0E0;}
	.st180{fill:#DFE0E1;}
]]>
</style>
<g>
	<g>
		<g>
			<g>
				<g>
					<g>
						<path class="st84" d="M5.081,68.417c0-34.982,28.356-63.336,63.337-63.336c34.978,0,63.334,28.354,63.334,63.336
							c0,34.979-28.356,63.336-63.334,63.336C33.438,131.752,5.081,103.395,5.081,68.417z"/>
					</g>
				</g>
			</g>
		</g>
	</g>
	<g>
		<g>
			<g>
				<g>
					<path class="st126" d="M85.271,104.137c0-6.289,2.316-8.129,2.316-13.166c0-11.109-8.501-13.584-18.986-13.584
						c-10.486,0-18.987,2.475-18.987,13.584c0,5.037,2.316,7.074,2.316,13.166c0,6.09-7.185,11.939-7.185,20.189
						c0,1.033,0.079,1.988,0.193,2.91c7.263,2.902,15.18,4.516,23.479,4.516c8.445,0,16.498-1.668,23.865-4.668
						c0.102-0.877,0.172-1.783,0.172-2.758C92.455,116.077,85.271,110.426,85.271,104.137z"/>
				</g>
			</g>
			<g>
				<circle class="st53" cx="68.458" cy="95.231" r="8.315"/>
			</g>
			<g>
				<circle class="st119" cx="68.458" cy="95.231" r="6.165"/>
			</g>
			<g>
				<g>
					<path class="st119" d="M68.432,101.395c-0.276,0-0.542-0.035-0.811-0.063C67.887,101.37,68.155,101.395,68.432,101.395z"/>
				</g>
				<g>
					<path class="st119" d="M68.457,101.397c0.303,0,0.597-0.029,0.887-0.07c-0.295,0.031-0.586,0.07-0.891,0.07
						C68.453,101.397,68.456,101.397,68.457,101.397z"/>
				</g>
				<g>
					<path class="st159" d="M68.449,101.397h0.004c-0.008,0-0.014-0.002-0.021-0.002C68.438,101.395,68.443,101.397,68.449,101.397z
						"/>
				</g>
				<g>
					<path class="st159" d="M73.209,91.305l-0.01-0.758L71.858,30.93h-6.704l-1.34,59.531l-0.009,0.734l-0.096,7.967
						c0.963,1.16,2.344,1.957,3.911,2.17c0.269,0.027,0.534,0.063,0.811,0.063c0.008,0,0.014,0.002,0.021,0.002
						c0.305,0,0.596-0.039,0.891-0.07c1.603-0.232,3.002-1.074,3.959-2.291L73.209,91.305z"/>
				</g>
			</g>
		</g>
		<g>
			<g>
				<path class="st159" d="M68.436,17.93c-2.393,0-4.332,0.881-4.332,3.502V30.1c0,2.621,1.939,4.748,4.332,4.748
					s4.333-2.127,4.333-4.748v-8.668C72.769,18.811,70.828,17.93,68.436,17.93z"/>
			</g>
			<g>
				<path class="st159" d="M68.436,17.561c-0.142,0-0.644-0.33-1.194-0.318c-0.513,0.01-1.686,1.701-1.686,1.701
					c0,2.621,1.288,4.748,2.88,4.748s2.881-2.127,2.881-4.748c0,0-1.234-1.711-1.74-1.709
					C69.052,17.239,68.594,17.561,68.436,17.561z"/>
			</g>
		</g>
		<g>
			<path class="st53" d="M79.975,120.223c0,0.791-0.642,1.434-1.433,1.434H58.999c-0.79,0-1.432-0.643-1.432-1.434l0,0
				c0-0.791,0.642-1.432,1.432-1.432h19.543C79.333,118.792,79.975,119.432,79.975,120.223L79.975,120.223z"/>
		</g>
		<g>
			<path class="st0" d="M75.729,120.223c0,0.49-0.399,0.889-0.89,0.889H62.701c-0.49,0-0.89-0.398-0.89-0.889l0,0
				c0-0.49,0.399-0.889,0.89-0.889H74.84C75.33,119.334,75.729,119.733,75.729,120.223L75.729,120.223z"/>
		</g>
		<g class="st111">
			<g>
				<g>
					<polygon class="st145" points="65.139,120.426 64.758,120.426 65.705,27.635 66.007,27.635 					"/>
				</g>
			</g>
			<g>
				<g>
					<polygon class="st145" points="70.834,120.344 70.454,120.344 69.971,23.897 70.271,23.897 					"/>
				</g>
			</g>
			<g>
				<g>
					<polygon class="st145" points="72.277,120.348 71.896,120.348 70.99,27.698 71.291,27.698 					"/>
				</g>
			</g>
			<g>
				<g>
					<polygon class="st145" points="66.633,120.366 66.252,120.366 66.783,23.944 67.085,23.944 					"/>
				</g>
			</g>
			<g>
				<g>
					<polygon class="st145" points="69.433,120.426 69.052,120.426 68.907,20.295 69.209,20.295 					"/>
				</g>
			</g>
			<g>
				<g>
					<polygon class="st145" points="67.928,120.426 67.547,120.426 67.835,20.329 68.137,20.329 					"/>
				</g>
			</g>
		</g>
		<g>
			<g>
				<path class="st110" d="M73.39,21.182c-0.268,0-0.483-0.098-0.483-0.223v-1.211c0-0.125,0.216-0.225,0.483-0.225l0,0
					c0.269,0,0.484,0.1,0.484,0.225v1.211C73.874,21.084,73.658,21.182,73.39,21.182L73.39,21.182z"/>
			</g>
			<g>
				<path class="st110" d="M73.39,25.053c-0.268,0-0.483-0.098-0.483-0.223V23.62c0-0.125,0.216-0.225,0.483-0.225l0,0
					c0.269,0,0.484,0.1,0.484,0.225v1.211C73.874,24.956,73.658,25.053,73.39,25.053L73.39,25.053z"/>
			</g>
			<g>
				<g>
					<path class="st110" d="M73.114,27.426h-1.755c-0.267,0-0.483,0.217-0.483,0.484s0.217,0.484,0.483,0.484h1.755
						c0.268,0,0.483-0.217,0.483-0.484S73.382,27.426,73.114,27.426z"/>
				</g>
				<g>
					<path class="st110" d="M73.39,28.741c-0.268,0-0.483-0.1-0.483-0.223v-1.211c0-0.125,0.216-0.227,0.483-0.227l0,0
						c0.269,0,0.484,0.102,0.484,0.227v1.211C73.874,28.641,73.658,28.741,73.39,28.741L73.39,28.741z"/>
				</g>
			</g>
			<g>
				<path class="st110" d="M63.414,21.182c0.268,0,0.483-0.098,0.483-0.223v-1.211c0-0.125-0.216-0.225-0.483-0.225l0,0
					c-0.268,0-0.484,0.1-0.484,0.225v1.211C62.93,21.084,63.146,21.182,63.414,21.182L63.414,21.182z"/>
			</g>
			<g>
				<path class="st110" d="M63.414,25.053c0.268,0,0.483-0.098,0.483-0.223V23.62c0-0.125-0.216-0.225-0.483-0.225l0,0
					c-0.268,0-0.484,0.1-0.484,0.225v1.211C62.93,24.956,63.146,25.053,63.414,25.053L63.414,25.053z"/>
			</g>
			<g>
				<g>
					<g>
						<path class="st110" d="M73.598,20.352c0-0.268-0.216-0.482-0.483-0.482h-4.033c-0.268,0-0.483,0.215-0.483,0.482
							c0,0.27,0.216,0.484,0.483,0.484h4.033C73.382,20.836,73.598,20.622,73.598,20.352z"/>
					</g>
					<g>
						<path class="st110" d="M73.114,23.741h-2.797c-0.268,0-0.484,0.215-0.484,0.484c0,0.268,0.217,0.482,0.484,0.482h2.797
							c0.268,0,0.483-0.215,0.483-0.482C73.598,23.956,73.382,23.741,73.114,23.741z"/>
					</g>
					<g>
						<path class="st110" d="M67.953,19.87H63.69c-0.268,0-0.484,0.215-0.484,0.482c0,0.27,0.217,0.484,0.484,0.484h4.263
							c0.268,0,0.483-0.215,0.483-0.484C68.437,20.084,68.221,19.87,67.953,19.87z"/>
					</g>
					<g>
						<path class="st110" d="M66.727,23.741H63.69c-0.268,0-0.484,0.215-0.484,0.484c0,0.268,0.217,0.482,0.484,0.482h3.036
							c0.27,0,0.484-0.215,0.484-0.482C67.211,23.956,66.996,23.741,66.727,23.741z"/>
					</g>
					<g>
						<path class="st110" d="M65.685,27.426H63.69c-0.268,0-0.484,0.217-0.484,0.484s0.217,0.484,0.484,0.484h1.994
							c0.269,0,0.483-0.217,0.483-0.484S65.953,27.426,65.685,27.426z"/>
					</g>
				</g>
				<g>
					<path class="st110" d="M63.414,28.741c0.268,0,0.483-0.1,0.483-0.223v-1.211c0-0.125-0.216-0.227-0.483-0.227l0,0
						c-0.268,0-0.484,0.102-0.484,0.227v1.211C62.93,28.641,63.146,28.741,63.414,28.741L63.414,28.741z"/>
				</g>
			</g>
		</g>
		<g>
			<g>
				<circle class="st51" cx="67.757" cy="20.375" r="0.632"/>
			</g>
			<g>
				<circle class="st51" cx="69.21" cy="20.375" r="0.632"/>
			</g>
			<g>
				<circle class="st51" cx="66.841" cy="24.2" r="0.632"/>
			</g>
			<g>
				<circle class="st51" cx="70.126" cy="24.2" r="0.632"/>
			</g>
			<g>
				<circle class="st51" cx="65.798" cy="27.926" r="0.632"/>
			</g>
			<g>
				<circle class="st51" cx="71.168" cy="27.926" r="0.633"/>
			</g>
		</g>
	</g>
</g>
</svg>
