<?xml version="1.0" encoding="utf-8"?>
<!-- Generator: Adobe Illustrator 16.0.0, SVG Export Plug-In . SVG Version: 6.00 Build 0)  -->
<!DOCTYPE svg PUBLIC "-//W3C//DTD SVG 1.1//EN" "http://www.w3.org/Graphics/SVG/1.1/DTD/svg11.dtd">
<svg version="1.1" id="Layer_1" xmlns="http://www.w3.org/2000/svg" xmlns:xlink="http://www.w3.org/1999/xlink" x="0px" y="0px"
	 width="136.833px" height="136.833px" viewBox="0 0 136.833 136.833" style="enable-background:new 0 0 136.833 136.833;"
	 xml:space="preserve">
<style type="text/css">
<![CDATA[
	.st0{fill:#7A5628;}
	.st1{fill:#49A0AE;}
	.st2{fill:#ACA8A9;}
	.st3{fill:#7DB6B7;}
	.st4{fill:#11100E;}
	.st5{fill:#7FCDCC;}
	.st6{fill:#E0DAD2;}
	.st7{fill:#E1E1E1;}
	.st8{fill:#13B3CA;}
	.st9{fill:#E3E4E5;}
	.st10{fill:#15B5AC;}
	.st11{fill:#E4B894;}
	.st12{fill:#E4C88F;}
	.st13{fill:#E4DED0;}
	.st14{fill:#4A86C5;}
	.st15{fill:#4ABC96;}
	.st16{fill:#171413;}
	.st17{fill:#E5CE27;}
	.st18{fill:#187070;}
	.st19{fill:#E7CB7C;}
	.st20{fill:#E7DDB3;}
	.st21{fill:#E7E9EA;}
	.st22{fill:#E84849;}
	.st23{fill:#E89423;}
	.st24{fill:#E8CC7C;}
	.st25{fill:#E8EAEB;}
	.st26{fill:#E97539;}
	.st27{fill:#E9C29C;}
	.st28{fill:#E9DC96;}
	.st29{fill:#B16E29;}
	.st30{opacity:0.01;}
	.st31{opacity:0.45;}
	.st32{fill:#1A1919;}
	.st33{fill:#B69B30;}
	.st34{fill:#EADD97;}
	.st35{fill:#EB9682;}
	.st36{fill:#B7B7B7;}
	.st37{fill:#EBD9A9;}
	.st38{fill:#1DA049;}
	.st39{fill:#1E1913;}
	.st40{fill:#1E1B17;}
	.st41{fill:#ECDAAA;}
	.st42{fill:#ECE6D5;}
	.st43{fill:#ED3351;}
	.st44{fill:#B9B9BA;}
	.st45{fill:#EDECED;}
	.st46{fill:#1FA85B;}
	.st47{fill:#EEE17F;}
	.st48{fill:#EEE4B8;}
	.st49{fill-rule:evenodd;clip-rule:evenodd;fill:#7FCDCC;}
	.st50{fill:#515252;}
	.st51{fill:#543A1A;}
	.st52{fill:#BB2025;}
	.st53{fill:#8C652E;}
	.st54{fill:#8C8C8C;}
	.st55{fill:#212121;}
	.st56{fill:#BF2126;}
	.st57{fill:#BFBEBE;}
	.st58{fill:#F0C418;}
	.st59{fill:#F0CF6A;}
	.st60{fill:#F0E3C8;}
	.st61{fill:#F1D069;}
	.st62{fill:#F1E4C8;}
	.st63{fill:#F2D083;}
	.st64{fill:#F3BB70;}
	.st65{fill:#F3C715;}
	.st66{fill:#F3D183;}
	.st67{fill:#258C8E;}
	.st68{fill:#25999B;}
	.st69{fill:#F4E028;}
	.st70{fill:#F59798;}
	.st71{fill:#F5DE57;}
	.st72{fill:#F6A2A3;}
	.st73{fill:#F6F7F7;}
	.st74{fill:#28999B;}
	.st75{fill:#F7DF56;}
	.st76{fill:#29A5AE;}
	.st77{fill:#F8B85C;}
	.st78{fill:#F8D648;}
	.st79{fill:#F8DC62;}
	.st80{fill:#F8E69B;}
	.st81{fill:#F8E9AB;}
	.st82{fill:#F8F3DC;}
	.st83{fill:#F9A11C;}
	.st84{fill:#F9A72F;}
	.st85{fill:#F9A731;}
	.st86{fill:#F9E478;}
	.st87{fill:#F9EC34;}
	.st88{fill:#92C7CB;}
	.st89{fill:#93574E;}
	.st90{fill:#939291;}
	.st91{fill:#C2D2D3;}
	.st92{fill:#C42126;}
	.st93{fill:#C47267;}
	.st94{fill:#C4C3C3;}
	.st95{fill:#C5A72E;}
	.st96{fill:#2B2B2B;}
	.st97{fill:#2B5C64;}
	.st98{fill:#FACB83;}
	.st99{fill:#2D2D2D;}
	.st100{fill:#FBEC68;}
	.st101{fill:#2D646D;}
	.st102{fill:#FBF3CE;}
	.st103{fill:#C8802A;}
	.st104{fill:#99999A;}
	.st105{fill:#C8C8C8;}
	.st106{fill-rule:evenodd;clip-rule:evenodd;fill:#59A29F;}
	.st107{fill:#99CED5;}
	.st108{fill:#FDF3D0;}
	.st109{fill:#2F8442;}
	.st110{fill:#60441D;}
	.st111{opacity:0.5;}
	.st112{opacity:0.6;}
	.st113{opacity:0.8;}
	.st114{fill:#FFCE80;}
	.st115{fill:#FFEBBF;}
	.st116{fill:#FFEEA5;}
	.st117{fill:#FFFFFA;}
	.st118{fill:#FFFFFF;}
	.st119{fill:#644421;}
	.st120{fill:none;}
	.st121{fill:#65A844;}
	.st122{fill:#CB4645;}
	.st123{fill:#69C8CF;}
	.st124{fill:#CCCBCB;}
	.st125{fill:#30302F;}
	.st126{fill:#9F7534;}
	.st127{fill:#9F77AA;}
	.st128{fill:#CECECD;}
	.st129{fill:#CECFD0;}
	.st130{fill:#336C75;}
	.st131{fill:#343433;}
	.st132{fill:#344E5D;}
	.st133{fill:#353535;}
	.st134{fill:#357180;}
	.st135{fill:#377CA5;}
	.st136{fill:#383939;}
	.st137{fill-rule:evenodd;clip-rule:evenodd;fill:#97D6D5;}
	.st138{fill:#388388;}
	.st139{fill:#6E5538;}
	.st140{fill:#00A79E;}
	.st141{fill:#D0A288;}
	.st142{fill:#D0E8D0;}
	.st143{fill:#D1AF2B;}
	.st144{fill:#D2B488;}
	.st145{fill:#D2D2D2;}
	.st146{fill-rule:evenodd;clip-rule:evenodd;fill:#63AAA5;}
	.st147{fill:#D3B85F;}
	.st148{fill:#D3B95F;}
	.st149{fill:#D3D3D3;}
	.st150{fill:#D54027;}
	.st151{fill:#3AB780;}
	.st152{fill:#D5BA8A;}
	.st153{fill:#D62127;}
	.st154{fill:#D68936;}
	.st155{fill:#3CB881;}
	.st156{fill:#D7D7D7;}
	.st157{fill:#D7DABA;}
	.st158{fill:#D8D8D7;}
	.st159{fill:#714D22;}
	.st160{fill:#A0D9DC;}
	.st161{fill:#A2D4DE;}
	.st162{fill:#A46434;}
	.st163{fill:#A4A4A4;}
	.st164{fill:#A6A5A5;}
	.st165{fill:#DAA9A3;}
	.st166{fill:#DBBA33;}
	.st167{fill:#DBD3BB;}
	.st168{fill:#DBDDDC;}
	.st169{fill:#DCBF8D;}
	.st170{fill:#DCC172;}
	.st171{fill:#DCDFE0;}
	.st172{fill:#DDC272;}
	.st173{fill:#DDD2A5;}
	.st174{fill:#DDDDDC;}
	.st175{fill:#DDDFE0;}
	.st176{fill:#414141;}
	.st177{fill:#DFC191;}
	.st178{fill:#DFDDDC;}
	.st179{fill:#DFE0E0;}
	.st180{fill:#DFE0E1;}
]]>
</style>
<g>
	<g>
		<g>
			<circle class="st134" cx="68.417" cy="68.417" r="63.333"/>
		</g>
	</g>
	<g>
		<g>
			<polygon class="st71" points="87.996,99.238 90.015,103.33 94.531,103.986 91.263,107.171 92.035,111.667 87.996,109.544 
				83.957,111.667 84.728,107.171 81.46,103.986 85.976,103.33 			"/>
		</g>
		<g>
			<polygon class="st71" points="28.496,70.738 30.515,74.83 35.031,75.486 31.763,78.671 32.535,83.167 28.496,81.044 
				24.457,83.167 25.228,78.671 21.96,75.486 26.476,74.83 			"/>
		</g>
		<g>
			<polygon class="st71" points="86.746,19.488 88.765,23.58 93.281,24.236 90.013,27.421 90.785,31.917 86.746,29.794 
				82.707,31.917 83.478,27.421 80.21,24.236 84.726,23.58 			"/>
		</g>
		<g>
			<polygon class="st102" points="109.316,42.49 108.75,45.605 110.994,47.837 107.857,48.261 106.427,51.085 105.054,48.234 
				101.925,47.746 104.214,45.558 103.71,42.433 106.498,43.935 			"/>
		</g>
		<g>
			<polygon class="st71" points="63.753,61.359 63.289,63.921 65.134,65.759 62.554,66.109 61.376,68.431 60.246,66.085 
				57.673,65.683 59.556,63.884 59.14,61.312 61.435,62.546 			"/>
		</g>
		<g>
			<polygon class="st80" points="75.513,57.033 75.048,59.595 76.894,61.433 74.314,61.783 73.136,64.105 72.005,61.759 
				69.433,61.357 71.316,59.558 70.9,56.986 73.195,58.22 			"/>
		</g>
		<g>
			<polygon class="st102" points="72.833,69.269 72.369,71.832 74.214,73.669 71.634,74.019 70.457,76.341 69.326,73.996 
				66.753,73.593 68.636,71.794 68.22,69.222 70.515,70.457 			"/>
		</g>
		<g>
			<polygon class="st102" points="34.816,41.74 34.25,44.855 36.494,47.087 33.357,47.511 31.927,50.335 30.554,47.484 
				27.425,46.996 29.714,44.808 29.21,41.683 31.998,43.185 			"/>
		</g>
		<g>
			<polygon class="st71" points="111.316,75.49 110.75,78.605 112.994,80.837 109.857,81.261 108.427,84.085 107.054,81.234 
				103.925,80.746 106.214,78.558 105.71,75.433 108.498,76.935 			"/>
		</g>
		<g>
			<polygon class="st102" points="55.316,102.74 54.75,105.855 56.994,108.087 53.857,108.511 52.427,111.335 51.054,108.484 
				47.925,107.996 50.214,105.808 49.71,102.683 52.498,104.185 			"/>
		</g>
		<g>
			<g>
				<g>
					<path class="st86" d="M58.148,56.732c0,0-6.221-10.301-12.287-15.971c-6.066-5.668-15.508-10.604-15.508-10.604
						C45.191,29.656,57.634,41.554,58.148,56.732z"/>
				</g>
			</g>
			<g>
				<g>
					<path class="st86" d="M61.066,79.111c0,0-10.623,5.656-16.611,11.408c-5.986,5.752-11.426,14.912-11.426,14.912
						C33.328,90.587,45.88,78.804,61.066,79.111z"/>
				</g>
			</g>
			<g>
				<path class="st86" d="M53.916,67.683c0,0-11.303-4.135-19.582-4.754s-18.732,1.445-18.732,1.445
					C26.855,54.689,44.007,56.171,53.916,67.683z"/>
			</g>
		</g>
		<g>
			<g>
				<g>
					<path class="st86" d="M78.646,56.826c0,0,6.166-10.334,12.203-16.035c6.035-5.701,15.451-10.688,15.451-10.688
						C91.458,29.681,79.078,41.646,78.646,56.826z"/>
				</g>
				<g>
					<path class="st86" d="M69.462,52.214c0,0-0.494-12.021,1.438-20.098s7.082-17.404,7.082-17.404
						C65.33,22.484,61.515,39.273,69.462,52.214z"/>
				</g>
			</g>
			<g>
				<g>
					<path class="st86" d="M75.847,79.22c0,0,10.652,5.6,16.672,11.318c6.018,5.721,11.504,14.854,11.504,14.854
						C103.646,90.55,91.031,78.833,75.847,79.22z"/>
				</g>
				<g>
					<path class="st86" d="M68.302,83.914c0,0,1.809,11.898,0.775,20.137c-1.037,8.236-5.139,18.07-5.139,18.07
						C75.667,113.015,77.621,95.91,68.302,83.914z"/>
				</g>
			</g>
			<g>
				<path class="st86" d="M82.937,67.753c0,0,11.279-4.193,19.557-4.855c8.275-0.666,18.738,1.344,18.738,1.344
					C109.927,54.617,92.783,56.191,82.937,67.753z"/>
			</g>
		</g>
		<g>
			<path class="st58" d="M62.578,52.871c0,0-0.205-5.738-1.42-9.51c-1.213-3.77-4.006-8.021-4.006-8.021
				C63.455,38.574,65.884,46.421,62.578,52.871z"/>
		</g>
		<g>
			<path class="st58" d="M53.609,61.619c0,0-3.344-4.668-6.439-7.141c-3.096-2.471-7.771-4.471-7.771-4.471
				C46.437,49.218,52.8,54.417,53.609,61.619z"/>
		</g>
		<g>
			<path class="st58" d="M57.677,75.794c0,0-5.664-0.938-9.602-0.494c-3.936,0.443-8.656,2.338-8.656,2.338
				C43.837,72.099,52.013,71.275,57.677,75.794z"/>
		</g>
		<g>
			<path class="st58" d="M64.287,83.818c0,0-3.904,4.207-5.709,7.736c-1.803,3.527-2.828,8.51-2.828,8.51
				C53.57,93.322,57.392,86.048,64.287,83.818z"/>
		</g>
		<g>
			<path class="st58" d="M74.375,53.066c0,0,0.047-5.742,1.156-9.547c1.109-3.801,3.783-8.129,3.783-8.129
				C73.103,38.798,70.892,46.71,74.375,53.066z"/>
		</g>
		<g>
			<path class="st58" d="M83.212,61.689c0,0,3.316-4.688,6.4-7.176c3.082-2.486,7.748-4.512,7.748-4.512
				C90.316,49.251,83.982,54.484,83.212,61.689z"/>
		</g>
		<g>
			<path class="st58" d="M79.218,75.886c0,0,5.66-0.967,9.6-0.545c3.938,0.422,8.668,2.291,8.668,2.291
				C93.039,72.119,84.859,71.337,79.218,75.886z"/>
		</g>
		<g>
			<path class="st58" d="M73.72,83.14c0,0,2.916,4.945,3.922,8.779c1.006,3.83,0.941,8.918,0.941,8.918
				C82.156,94.718,79.98,86.794,73.72,83.14z"/>
		</g>
	</g>
</g>
</svg>
