<?xml version="1.0" encoding="utf-8"?>
<!-- Generator: Adobe Illustrator 16.0.0, SVG Export Plug-In . SVG Version: 6.00 Build 0)  -->
<!DOCTYPE svg PUBLIC "-//W3C//DTD SVG 1.1//EN" "http://www.w3.org/Graphics/SVG/1.1/DTD/svg11.dtd">
<svg version="1.1" id="Layer_1" xmlns="http://www.w3.org/2000/svg" xmlns:xlink="http://www.w3.org/1999/xlink" x="0px" y="0px"
	 width="136.833px" height="136.833px" viewBox="0 0 136.833 136.833" style="enable-background:new 0 0 136.833 136.833;"
	 xml:space="preserve">
<style type="text/css">
<![CDATA[
	.st0{fill:#7A5628;}
	.st1{fill:#49A0AE;}
	.st2{fill:#ACA8A9;}
	.st3{fill:#7DB6B7;}
	.st4{fill:#11100E;}
	.st5{fill:#7FCDCC;}
	.st6{fill:#E0DAD2;}
	.st7{fill:#E1E1E1;}
	.st8{fill:#13B3CA;}
	.st9{fill:#E3E4E5;}
	.st10{fill:#15B5AC;}
	.st11{fill:#E4B894;}
	.st12{fill:#E4C88F;}
	.st13{fill:#E4DED0;}
	.st14{fill:#4A86C5;}
	.st15{fill:#4ABC96;}
	.st16{fill:#171413;}
	.st17{fill:#E5CE27;}
	.st18{fill:#187070;}
	.st19{fill:#E7CB7C;}
	.st20{fill:#E7DDB3;}
	.st21{fill:#E7E9EA;}
	.st22{fill:#E84849;}
	.st23{fill:#E89423;}
	.st24{fill:#E8CC7C;}
	.st25{fill:#E8EAEB;}
	.st26{fill:#E97539;}
	.st27{fill:#E9C29C;}
	.st28{fill:#E9DC96;}
	.st29{fill:#B16E29;}
	.st30{opacity:0.01;}
	.st31{opacity:0.45;}
	.st32{fill:#1A1919;}
	.st33{fill:#B69B30;}
	.st34{fill:#EADD97;}
	.st35{fill:#EB9682;}
	.st36{fill:#B7B7B7;}
	.st37{fill:#EBD9A9;}
	.st38{fill:#1DA049;}
	.st39{fill:#1E1913;}
	.st40{fill:#1E1B17;}
	.st41{fill:#ECDAAA;}
	.st42{fill:#ECE6D5;}
	.st43{fill:#ED3351;}
	.st44{fill:#B9B9BA;}
	.st45{fill:#EDECED;}
	.st46{fill:#1FA85B;}
	.st47{fill:#EEE17F;}
	.st48{fill:#EEE4B8;}
	.st49{fill-rule:evenodd;clip-rule:evenodd;fill:#7FCDCC;}
	.st50{fill:#515252;}
	.st51{fill:#543A1A;}
	.st52{fill:#BB2025;}
	.st53{fill:#8C652E;}
	.st54{fill:#8C8C8C;}
	.st55{fill:#212121;}
	.st56{fill:#BF2126;}
	.st57{fill:#BFBEBE;}
	.st58{fill:#F0C418;}
	.st59{fill:#F0CF6A;}
	.st60{fill:#F0E3C8;}
	.st61{fill:#F1D069;}
	.st62{fill:#F1E4C8;}
	.st63{fill:#F2D083;}
	.st64{fill:#F3BB70;}
	.st65{fill:#F3C715;}
	.st66{fill:#F3D183;}
	.st67{fill:#258C8E;}
	.st68{fill:#25999B;}
	.st69{fill:#F4E028;}
	.st70{fill:#F59798;}
	.st71{fill:#F5DE57;}
	.st72{fill:#F6A2A3;}
	.st73{fill:#F6F7F7;}
	.st74{fill:#28999B;}
	.st75{fill:#F7DF56;}
	.st76{fill:#29A5AE;}
	.st77{fill:#F8B85C;}
	.st78{fill:#F8D648;}
	.st79{fill:#F8DC62;}
	.st80{fill:#F8E69B;}
	.st81{fill:#F8E9AB;}
	.st82{fill:#F8F3DC;}
	.st83{fill:#F9A11C;}
	.st84{fill:#F9A72F;}
	.st85{fill:#F9A731;}
	.st86{fill:#F9E478;}
	.st87{fill:#F9EC34;}
	.st88{fill:#92C7CB;}
	.st89{fill:#93574E;}
	.st90{fill:#939291;}
	.st91{fill:#C2D2D3;}
	.st92{fill:#C42126;}
	.st93{fill:#C47267;}
	.st94{fill:#C4C3C3;}
	.st95{fill:#C5A72E;}
	.st96{fill:#2B2B2B;}
	.st97{fill:#2B5C64;}
	.st98{fill:#FACB83;}
	.st99{fill:#2D2D2D;}
	.st100{fill:#FBEC68;}
	.st101{fill:#2D646D;}
	.st102{fill:#FBF3CE;}
	.st103{fill:#C8802A;}
	.st104{fill:#99999A;}
	.st105{fill:#C8C8C8;}
	.st106{fill-rule:evenodd;clip-rule:evenodd;fill:#59A29F;}
	.st107{fill:#99CED5;}
	.st108{fill:#FDF3D0;}
	.st109{fill:#2F8442;}
	.st110{fill:#60441D;}
	.st111{opacity:0.5;}
	.st112{opacity:0.6;}
	.st113{opacity:0.8;}
	.st114{fill:#FFCE80;}
	.st115{fill:#FFEBBF;}
	.st116{fill:#FFEEA5;}
	.st117{fill:#FFFFFA;}
	.st118{fill:#FFFFFF;}
	.st119{fill:#644421;}
	.st120{fill:none;}
	.st121{fill:#65A844;}
	.st122{fill:#CB4645;}
	.st123{fill:#69C8CF;}
	.st124{fill:#CCCBCB;}
	.st125{fill:#30302F;}
	.st126{fill:#9F7534;}
	.st127{fill:#9F77AA;}
	.st128{fill:#CECECD;}
	.st129{fill:#CECFD0;}
	.st130{fill:#336C75;}
	.st131{fill:#343433;}
	.st132{fill:#344E5D;}
	.st133{fill:#353535;}
	.st134{fill:#357180;}
	.st135{fill:#377CA5;}
	.st136{fill:#383939;}
	.st137{fill-rule:evenodd;clip-rule:evenodd;fill:#97D6D5;}
	.st138{fill:#388388;}
	.st139{fill:#6E5538;}
	.st140{fill:#00A79E;}
	.st141{fill:#D0A288;}
	.st142{fill:#D0E8D0;}
	.st143{fill:#D1AF2B;}
	.st144{fill:#D2B488;}
	.st145{fill:#D2D2D2;}
	.st146{fill-rule:evenodd;clip-rule:evenodd;fill:#63AAA5;}
	.st147{fill:#D3B85F;}
	.st148{fill:#D3B95F;}
	.st149{fill:#D3D3D3;}
	.st150{fill:#D54027;}
	.st151{fill:#3AB780;}
	.st152{fill:#D5BA8A;}
	.st153{fill:#D62127;}
	.st154{fill:#D68936;}
	.st155{fill:#3CB881;}
	.st156{fill:#D7D7D7;}
	.st157{fill:#D7DABA;}
	.st158{fill:#D8D8D7;}
	.st159{fill:#714D22;}
	.st160{fill:#A0D9DC;}
	.st161{fill:#A2D4DE;}
	.st162{fill:#A46434;}
	.st163{fill:#A4A4A4;}
	.st164{fill:#A6A5A5;}
	.st165{fill:#DAA9A3;}
	.st166{fill:#DBBA33;}
	.st167{fill:#DBD3BB;}
	.st168{fill:#DBDDDC;}
	.st169{fill:#DCBF8D;}
	.st170{fill:#DCC172;}
	.st171{fill:#DCDFE0;}
	.st172{fill:#DDC272;}
	.st173{fill:#DDD2A5;}
	.st174{fill:#DDDDDC;}
	.st175{fill:#DDDFE0;}
	.st176{fill:#414141;}
	.st177{fill:#DFC191;}
	.st178{fill:#DFDDDC;}
	.st179{fill:#DFE0E0;}
	.st180{fill:#DFE0E1;}
]]>
</style>
<g>
	<g>
		<g>
			<g>
				<g>
					<g>
						<path class="st157" d="M5.082,68.417c0-34.982,28.355-63.336,63.336-63.336c34.979,0,63.334,28.354,63.334,63.336
							c0,34.979-28.355,63.334-63.334,63.334C33.437,131.751,5.082,103.396,5.082,68.417z"/>
					</g>
				</g>
			</g>
		</g>
	</g>
	<g>
		<g>
			<path class="st22" d="M87.976,53.152c0,0,12.758-6.15,19.32-5.729l-5.514,5.758l5.137,1.303l-4.672,3.928l11.061,3.033
				c-1.41,3.891-19.705,7.021-19.705,7.021L87.976,53.152z"/>
		</g>
		<g>
			<path class="st22" d="M49.308,53.152c0,0-12.756-6.15-19.32-5.729l5.514,5.758l-5.135,1.303l4.67,3.928l-11.061,3.033
				c1.412,3.891,19.707,7.021,19.707,7.021L49.308,53.152z"/>
		</g>
		<g>
			<path class="st22" d="M41.134,64.787c0,0-13.891,2.758-18.883,7.041l7.871,1.285l-3.32,4.129l6.094,0.328l-7.012,9.076
				c3.467,2.262,19.965-6.244,19.965-6.244L41.134,64.787z"/>
		</g>
		<g>
			<path class="st22" d="M94.966,64.787c0,0,13.891,2.758,18.883,7.041l-7.869,1.285l3.32,4.129l-6.096,0.328l7.014,9.076
				c-3.469,2.262-19.967-6.244-19.967-6.244L94.966,64.787z"/>
		</g>
		<g>
			<g>
				<g>
					<path class="st27" d="M98.503,75.933c0,16.615-13.465,30.08-30.078,30.08c-16.615,0-30.08-13.465-30.08-30.08
						c0-16.611,13.465-30.078,30.08-30.078C85.039,45.855,98.503,59.322,98.503,75.933z"/>
				</g>
			</g>
		</g>
		<g>
			<g>
				<path class="st78" d="M88.298,45.947c-1.627-6.389-39.25-6.389-40.877,0c-0.037-0.141-0.063-0.285-0.063-0.432v0.863v7.283
					v0.865c0-0.146,0.025-0.291,0.063-0.432c1.627,6.389,39.25,6.389,40.877,0c0.037,0.141,0.061,0.285,0.061,0.432v-0.865v-7.283
					v-0.863C88.359,45.662,88.335,45.806,88.298,45.947z"/>
			</g>
			<g>
				<path class="st78" d="M84.871,47.525c0,5.781-34.021,5.781-34.021,0v-9.158c0-5.781,4.688-10.469,10.467-10.469h13.086
					c5.781,0,10.469,4.688,10.469,10.469V47.525z"/>
			</g>
			<g>
				<g>
					<path class="st127" d="M50.849,40.765v6.76c0,5.781,34.021,5.781,34.021,0v-6.76C84.871,46.546,50.849,46.546,50.849,40.765z"
						/>
				</g>
			</g>
		</g>
		<g>
			<g>
				<path class="st118" d="M54.734,72.085c0-0.076,0.033-2.186,0.047-2.258c0.236-2.537,2.242-4.529,4.707-4.529
					c2.463,0,4.465,1.992,4.701,4.531c0.014,0.07,0.047,2.18,0.047,2.256c0,0.047-0.012,0.092-0.014,0.139
					c0.002,0.047,0.014,0.09,0.014,0.139c0,0.076-0.033,2.777-0.047,2.852c-0.236,2.537-2.242,4.529-4.707,4.529
					c-2.463,0-4.465-1.992-4.701-4.529c-0.014-0.074-0.047-2.777-0.047-2.852c0-0.049,0.012-0.092,0.014-0.139
					C54.746,72.177,54.734,72.132,54.734,72.085z"/>
			</g>
			<g>
				<ellipse class="st131" cx="59.41" cy="74.779" rx="4.121" ry="4.354"/>
			</g>
			<g>
				<path class="st118" d="M62.3,73.13c0,0.959-0.736,1.74-1.65,1.74c-0.908,0-1.645-0.781-1.645-1.74
					c0-0.963,0.736-1.742,1.645-1.742C61.564,71.388,62.3,72.167,62.3,73.13z"/>
			</g>
			<g>
				<path class="st22" d="M63.894,66.671c-0.34-1.287-1.076-2.471-2.271-3.359c-0.307-0.211-0.645-0.41-1.031-0.545
					c-0.191-0.064-0.395-0.113-0.604-0.15c-0.203-0.027-0.324-0.051-0.523-0.07c-0.744-0.09-1.492-0.064-2.26,0.127
					c-0.768,0.18-1.496,0.609-2.02,1.164c-0.541,0.545-0.865,1.191-1.115,1.82c-0.471,1.275-0.635,2.553-0.676,3.848
					c0.592-1.164,1.064-2.363,1.699-3.398c0.621-1.057,1.436-1.799,2.488-2.016c0.525-0.119,1.129-0.113,1.705-0.078
					c0.135,0.008,0.342,0.037,0.467,0.049c0.121,0.018,0.242,0.037,0.365,0.074c0.246,0.064,0.506,0.154,0.758,0.285
					C61.91,64.937,62.871,65.794,63.894,66.671z"/>
			</g>
		</g>
		<g>
			<path class="st22" d="M79.736,82.529c-1.199,0-3.168,0.969-4.672,1.9c-1.678-1.621-3.881-2.672-6.324-2.861
				c-0.117-0.008-1.016-0.008-1.133,0c-2.443,0.189-4.646,1.24-6.324,2.861c-1.504-0.932-3.475-1.9-4.672-1.9
				c-3.998,0-7.236,3.313-7.236,7.398c0,4.09,4.154,6.199,7.432,6.799c3.105,0.568,0.828,6.002,11.146,6.002
				c0.074,0,0.365,0,0.439,0c8.215,0,8.088-5.219,11.148-6.002c3.129-0.801,7.432-2.709,7.432-6.799
				C86.972,85.841,83.732,82.529,79.736,82.529z"/>
		</g>
		<g>
			<path class="st118" d="M79.103,83.255c-1.133,0-2.994,0.896-4.416,1.758c-1.586-1.498-3.67-2.471-5.979-2.645
				c-0.111-0.008-0.959-0.008-1.07,0c-2.311,0.174-4.393,1.146-5.979,2.645c-1.422-0.861-3.283-1.758-4.416-1.758
				c-3.779,0-6.842,3.063-6.842,6.84c0,3.779,3.928,5.73,7.025,6.285c2.936,0.525,0.783,5.547,10.537,5.547c0.07,0,0.346,0,0.416,0
				c7.764,0,7.645-4.824,10.537-5.547c2.959-0.74,7.025-2.506,7.025-6.285C85.943,86.318,82.88,83.255,79.103,83.255z"/>
		</g>
		<g>
			<g>
				<g>
					<circle class="st22" cx="60.172" cy="91.13" r="1.979"/>
				</g>
				<g>
					<circle class="st22" cx="75.61" cy="91.13" r="1.979"/>
				</g>
			</g>
			<g>
				<g>
					<path class="st22" d="M68.416,95.865c-3.721,0-7.082-1.873-8.918-3.48c-0.625-0.545-0.688-1.494-0.143-2.117
						c0.545-0.621,1.492-0.686,2.115-0.143c0.307,0.264,7.047,5.959,12.818,0.08c0.582-0.592,1.531-0.602,2.121-0.02
						c0.592,0.58,0.6,1.531,0.02,2.121C73.853,94.929,71.044,95.865,68.416,95.865z"/>
				</g>
			</g>
		</g>
		<g>
			<circle class="st22" cx="68.36" cy="82.63" r="6.167"/>
		</g>
		<g>
			<circle class="st118" cx="65.86" cy="79.755" r="1.167"/>
		</g>
		<g>
			<g>
				<path class="st22" d="M72.861,66.671c0.338-1.287,1.074-2.471,2.27-3.359c0.307-0.211,0.646-0.41,1.031-0.545
					c0.191-0.064,0.396-0.113,0.604-0.15c0.205-0.027,0.326-0.051,0.523-0.07c0.744-0.09,1.492-0.064,2.26,0.127
					c0.768,0.18,1.498,0.609,2.02,1.164c0.541,0.545,0.867,1.191,1.115,1.82c0.471,1.275,0.637,2.553,0.678,3.848
					c-0.592-1.164-1.064-2.363-1.699-3.398c-0.621-1.057-1.436-1.799-2.49-2.016c-0.525-0.119-1.127-0.113-1.705-0.078
					c-0.133,0.008-0.34,0.037-0.467,0.049c-0.119,0.018-0.24,0.037-0.363,0.074c-0.246,0.064-0.506,0.154-0.76,0.285
					C74.845,64.937,73.882,65.794,72.861,66.671z"/>
			</g>
			<g>
				<g>
					<path class="st118" d="M82.019,72.085c0-0.076-0.033-2.186-0.047-2.258c-0.236-2.537-2.24-4.529-4.705-4.529
						s-4.467,1.992-4.701,4.531c-0.016,0.07-0.047,2.18-0.047,2.256c0,0.047,0.012,0.092,0.012,0.139s-0.012,0.09-0.012,0.139
						c0,0.076,0.033,2.777,0.047,2.852c0.236,2.537,2.24,4.529,4.705,4.529c2.463,0,4.465-1.992,4.701-4.529
						c0.014-0.074,0.047-2.777,0.047-2.852c0-0.049-0.012-0.092-0.014-0.139C82.007,72.177,82.019,72.132,82.019,72.085z"/>
				</g>
				<g>
					<ellipse class="st131" cx="77.269" cy="74.779" rx="4.121" ry="4.354"/>
				</g>
				<g>
					<path class="st118" d="M80.203,73.13c0,0.959-0.736,1.74-1.648,1.74c-0.906,0-1.645-0.781-1.645-1.74
						c0-0.963,0.738-1.742,1.645-1.742C79.466,71.388,80.203,72.167,80.203,73.13z"/>
				</g>
			</g>
		</g>
	</g>
</g>
</svg>
