<?xml version="1.0" encoding="utf-8"?>
<!-- Generator: Adobe Illustrator 16.0.0, SVG Export Plug-In . SVG Version: 6.00 Build 0)  -->
<!DOCTYPE svg PUBLIC "-//W3C//DTD SVG 1.1//EN" "http://www.w3.org/Graphics/SVG/1.1/DTD/svg11.dtd">
<svg version="1.1" id="Layer_1" xmlns="http://www.w3.org/2000/svg" xmlns:xlink="http://www.w3.org/1999/xlink" x="0px" y="0px"
	 width="136.833px" height="136.833px" viewBox="0 0 136.833 136.833" style="enable-background:new 0 0 136.833 136.833;"
	 xml:space="preserve">
<style type="text/css">
<![CDATA[
	.st0{fill:#7A5628;}
	.st1{fill:#49A0AE;}
	.st2{fill:#ACA8A9;}
	.st3{fill:#7DB6B7;}
	.st4{fill:#11100E;}
	.st5{fill:#7FCDCC;}
	.st6{fill:#E0DAD2;}
	.st7{fill:#E1E1E1;}
	.st8{fill:#13B3CA;}
	.st9{fill:#E3E4E5;}
	.st10{fill:#15B5AC;}
	.st11{fill:#E4B894;}
	.st12{fill:#E4C88F;}
	.st13{fill:#E4DED0;}
	.st14{fill:#4A86C5;}
	.st15{fill:#4ABC96;}
	.st16{fill:#171413;}
	.st17{fill:#E5CE27;}
	.st18{fill:#187070;}
	.st19{fill:#E7CB7C;}
	.st20{fill:#E7DDB3;}
	.st21{fill:#E7E9EA;}
	.st22{fill:#E84849;}
	.st23{fill:#E89423;}
	.st24{fill:#E8CC7C;}
	.st25{fill:#E8EAEB;}
	.st26{fill:#E97539;}
	.st27{fill:#E9C29C;}
	.st28{fill:#E9DC96;}
	.st29{fill:#B16E29;}
	.st30{opacity:0.01;}
	.st31{opacity:0.45;}
	.st32{fill:#1A1919;}
	.st33{fill:#B69B30;}
	.st34{fill:#EADD97;}
	.st35{fill:#EB9682;}
	.st36{fill:#B7B7B7;}
	.st37{fill:#EBD9A9;}
	.st38{fill:#1DA049;}
	.st39{fill:#1E1913;}
	.st40{fill:#1E1B17;}
	.st41{fill:#ECDAAA;}
	.st42{fill:#ECE6D5;}
	.st43{fill:#ED3351;}
	.st44{fill:#B9B9BA;}
	.st45{fill:#EDECED;}
	.st46{fill:#1FA85B;}
	.st47{fill:#EEE17F;}
	.st48{fill:#EEE4B8;}
	.st49{fill-rule:evenodd;clip-rule:evenodd;fill:#7FCDCC;}
	.st50{fill:#515252;}
	.st51{fill:#543A1A;}
	.st52{fill:#BB2025;}
	.st53{fill:#8C652E;}
	.st54{fill:#8C8C8C;}
	.st55{fill:#212121;}
	.st56{fill:#BF2126;}
	.st57{fill:#BFBEBE;}
	.st58{fill:#F0C418;}
	.st59{fill:#F0CF6A;}
	.st60{fill:#F0E3C8;}
	.st61{fill:#F1D069;}
	.st62{fill:#F1E4C8;}
	.st63{fill:#F2D083;}
	.st64{fill:#F3BB70;}
	.st65{fill:#F3C715;}
	.st66{fill:#F3D183;}
	.st67{fill:#258C8E;}
	.st68{fill:#25999B;}
	.st69{fill:#F4E028;}
	.st70{fill:#F59798;}
	.st71{fill:#F5DE57;}
	.st72{fill:#F6A2A3;}
	.st73{fill:#F6F7F7;}
	.st74{fill:#28999B;}
	.st75{fill:#F7DF56;}
	.st76{fill:#29A5AE;}
	.st77{fill:#F8B85C;}
	.st78{fill:#F8D648;}
	.st79{fill:#F8DC62;}
	.st80{fill:#F8E69B;}
	.st81{fill:#F8E9AB;}
	.st82{fill:#F8F3DC;}
	.st83{fill:#F9A11C;}
	.st84{fill:#F9A72F;}
	.st85{fill:#F9A731;}
	.st86{fill:#F9E478;}
	.st87{fill:#F9EC34;}
	.st88{fill:#92C7CB;}
	.st89{fill:#93574E;}
	.st90{fill:#939291;}
	.st91{fill:#C2D2D3;}
	.st92{fill:#C42126;}
	.st93{fill:#C47267;}
	.st94{fill:#C4C3C3;}
	.st95{fill:#C5A72E;}
	.st96{fill:#2B2B2B;}
	.st97{fill:#2B5C64;}
	.st98{fill:#FACB83;}
	.st99{fill:#2D2D2D;}
	.st100{fill:#FBEC68;}
	.st101{fill:#2D646D;}
	.st102{fill:#FBF3CE;}
	.st103{fill:#C8802A;}
	.st104{fill:#99999A;}
	.st105{fill:#C8C8C8;}
	.st106{fill-rule:evenodd;clip-rule:evenodd;fill:#59A29F;}
	.st107{fill:#99CED5;}
	.st108{fill:#FDF3D0;}
	.st109{fill:#2F8442;}
	.st110{fill:#60441D;}
	.st111{opacity:0.5;}
	.st112{opacity:0.6;}
	.st113{opacity:0.8;}
	.st114{fill:#FFCE80;}
	.st115{fill:#FFEBBF;}
	.st116{fill:#FFEEA5;}
	.st117{fill:#FFFFFA;}
	.st118{fill:#FFFFFF;}
	.st119{fill:#644421;}
	.st120{fill:none;}
	.st121{fill:#65A844;}
	.st122{fill:#CB4645;}
	.st123{fill:#69C8CF;}
	.st124{fill:#CCCBCB;}
	.st125{fill:#30302F;}
	.st126{fill:#9F7534;}
	.st127{fill:#9F77AA;}
	.st128{fill:#CECECD;}
	.st129{fill:#CECFD0;}
	.st130{fill:#336C75;}
	.st131{fill:#343433;}
	.st132{fill:#344E5D;}
	.st133{fill:#353535;}
	.st134{fill:#357180;}
	.st135{fill:#377CA5;}
	.st136{fill:#383939;}
	.st137{fill-rule:evenodd;clip-rule:evenodd;fill:#97D6D5;}
	.st138{fill:#388388;}
	.st139{fill:#6E5538;}
	.st140{fill:#00A79E;}
	.st141{fill:#D0A288;}
	.st142{fill:#D0E8D0;}
	.st143{fill:#D1AF2B;}
	.st144{fill:#D2B488;}
	.st145{fill:#D2D2D2;}
	.st146{fill-rule:evenodd;clip-rule:evenodd;fill:#63AAA5;}
	.st147{fill:#D3B85F;}
	.st148{fill:#D3B95F;}
	.st149{fill:#D3D3D3;}
	.st150{fill:#D54027;}
	.st151{fill:#3AB780;}
	.st152{fill:#D5BA8A;}
	.st153{fill:#D62127;}
	.st154{fill:#D68936;}
	.st155{fill:#3CB881;}
	.st156{fill:#D7D7D7;}
	.st157{fill:#D7DABA;}
	.st158{fill:#D8D8D7;}
	.st159{fill:#714D22;}
	.st160{fill:#A0D9DC;}
	.st161{fill:#A2D4DE;}
	.st162{fill:#A46434;}
	.st163{fill:#A4A4A4;}
	.st164{fill:#A6A5A5;}
	.st165{fill:#DAA9A3;}
	.st166{fill:#DBBA33;}
	.st167{fill:#DBD3BB;}
	.st168{fill:#DBDDDC;}
	.st169{fill:#DCBF8D;}
	.st170{fill:#DCC172;}
	.st171{fill:#DCDFE0;}
	.st172{fill:#DDC272;}
	.st173{fill:#DDD2A5;}
	.st174{fill:#DDDDDC;}
	.st175{fill:#DDDFE0;}
	.st176{fill:#414141;}
	.st177{fill:#DFC191;}
	.st178{fill:#DFDDDC;}
	.st179{fill:#DFE0E0;}
	.st180{fill:#DFE0E1;}
]]>
</style>
<g>
	<g>
		<g>
			<g>
				<g>
					<g>
						<path class="st127" d="M5.081,68.417c0-34.982,28.355-63.336,63.336-63.336c34.979,0,63.334,28.354,63.334,63.336
							c0,34.979-28.355,63.334-63.334,63.334C33.437,131.751,5.081,103.396,5.081,68.417z"/>
					</g>
				</g>
			</g>
		</g>
	</g>
	<g>
		<g>
			<path class="st176" d="M94.604,59.542H80.149c-1.592,0-2.217,3.389-2.217,4.721l0.793,22.178l0.049,17.437
				c0,0.217,1.068,0.313,1.078,0.512c0.043,1.029,0.256,1.412,1.199,1.412h2.127c0.924,0,1.375-0.352,1.508-1.348
				c0.029-0.217,0.594-0.479,0.594-0.717c0,0-0.146-17.286-0.143-17.435c0.271-8.996,0.666-18.215,1.148-18.361
				c0.947-0.285,1.473-0.285,2.182,0c0.363,0.146,0.764,9.441,1.068,18.473c0.004,0.143-0.059,17.321-0.059,17.321
				c0,0.221,0.561,0.465,0.586,0.668c0.123,1.021,0.574,1.398,1.514,1.398h2.125c0.984,0,1.174-0.447,1.207-1.543
				c0.004-0.158,1.072-0.211,1.072-0.381l0.053-17.507l0.787-22.107C96.821,62.93,96.198,59.542,94.604,59.542z"/>
		</g>
		<g>
			<g>
				<path class="st125" d="M98.821,62.075l-11.453,0.582l-11.436-0.572c-0.039,0.207-0.063,0.396-0.063,0.557l0.035,0.861
					l11.418,0.43l11.525-0.439l0.037-0.852C98.886,62.479,98.862,62.288,98.821,62.075z"/>
			</g>
		</g>
		<g>
			<path class="st133" d="M74.487,36.348l0.477,27.309c0,0.955,2.625,1.035,9.066,1.035V31.028
				C77.534,31.17,74.487,31.194,74.487,36.348z"/>
		</g>
		<g>
			<path class="st133" d="M90.903,31.032v33.615c6.443,0,8.781-0.227,8.781-0.99l0.477-27.309
				C100.161,31.766,97.261,31.2,90.903,31.032z"/>
		</g>
		<g>
			<path class="st142" d="M87.468,33.079c-1.439,0-3.438-2.051-3.438-2.051v31.803l6.873-0.045V31.032
				C90.745,30.874,88.907,33.079,87.468,33.079z"/>
		</g>
		<g>
			<g>
				<path class="st5" d="M87.468,33.079c-1.439,0-3.438-2.051-3.438-2.051v1.33c0,0,1.998,2.051,3.438,2.051
					s3.436-2.047,3.436-2.047v-1.33C90.745,30.874,88.907,33.079,87.468,33.079z"/>
			</g>
		</g>
		<g>
			<g>
				<path class="st106" d="M88.401,34.661c0,0,0.67-1.936,0.34-2.117c-0.648-0.227-1.986-0.207-2.482,0
					c-0.498,0.207,0.375,2.117,0.375,2.117H88.401z"/>
			</g>
			<g>
				<path class="st49" d="M87.56,32.375c-0.482,0-1.049,0.061-1.301,0.168c-0.498,0.207,0.375,2.117,0.375,2.117h0.914L87.56,32.375
					z"/>
			</g>
			<g>
				<path class="st146" d="M86.64,34.612l-1.707,17.523l2.582,2.145l2.383-2.145l-1.498-17.523H86.64z"/>
			</g>
			<g>
				<path class="st137" d="M86.64,34.612l-1.707,17.523l2.582,2.145l0.021-19.668H86.64z"/>
			</g>
		</g>
		<g>
			<path class="st125" d="M95.712,105.093c0,0.738-1.389,0.752-3.102,0.752s-3.104-0.014-3.104-0.752s1.391-2.041,3.104-2.041
				S95.712,104.355,95.712,105.093z"/>
		</g>
		<g>
			<path class="st125" d="M85.331,105.093c0,0.738-1.389,0.752-3.102,0.752s-3.102-0.014-3.102-0.752s1.389-2.041,3.102-2.041
				S85.331,104.355,85.331,105.093z"/>
		</g>
		<g>
			<g>
				<g>
					<path class="st32" d="M79.163,38.354l-2.791,28.334c-0.248,1.006-5.725,0.188-5.725-1.008l5.309-32.48L79.163,38.354z"/>
				</g>
			</g>
			<g>
				<path class="st133" d="M74.392,35.393l-3.688,29.826c0,0,2.172-0.07,5.107,0.922l3.352-27.787l1.527-1.271l1.051-5.984
					C75.927,30.452,74.927,32.747,74.392,35.393z"/>
			</g>
		</g>
		<g>
			<g>
				<g>
					<path class="st32" d="M95.653,38.354l2.791,28.334c0.248,1.006,5.727,0.188,5.727-1.008L98.86,33.2L95.653,38.354z"/>
				</g>
			</g>
			<g>
				<path class="st133" d="M100.427,35.393l3.686,29.826c0,0-2.172-0.07-5.107,0.922l-3.352-27.787l-1.527-1.271l-1.049-5.984
					C98.89,30.452,99.89,32.747,100.427,35.393z"/>
			</g>
		</g>
		<g>
			<g>
				<path class="st42" d="M61.052,58.018c0-0.225-0.01-0.443-0.023-0.662l3.795-17.414c0-3.096-1.926-5.605-4.928-5.605
					c0,0-4.76,2.102-6.566,2.102s-6.564-2.102-6.564-2.102c-3.002,0-4.928,2.51-4.928,5.605l3.795,17.414
					c-0.016,0.219-0.023,0.438-0.023,0.662c0,0-19.262,47.077-10.799,47.077h37.043C80.313,105.095,61.052,58.018,61.052,58.018z"/>
			</g>
			<g>
				<path class="st167" d="M60.448,105.103c0,0.729-1.271,0.742-2.842,0.742c-1.572,0-2.844-0.014-2.844-0.742
					c0-0.73,1.271-2.016,2.844-2.016C59.177,103.087,60.448,104.373,60.448,105.103z"/>
			</g>
			<g>
				<g>
					<path class="st13" d="M53.546,58.208h-8.014c-1.293,3.188-18.879,46.888-10.723,46.888h14.625
						C57.589,105.095,54.837,61.395,53.546,58.208z"/>
				</g>
				<g>
					<path class="st13" d="M53.329,36.438c-1.807,0-6.564-2.102-6.564-2.102c-3.002,0-4.928,2.51-4.928,5.605l3.611,16.57h8.186
						C53.634,56.512,55.136,36.438,53.329,36.438z"/>
				</g>
				<g>
					<path class="st167" d="M61.052,58.018c0-0.225-0.01-0.443-0.023-0.662l0.184-0.844H45.448l0.184,0.844
						c-0.016,0.219-0.023,0.438-0.023,0.662c0,0-0.029,0.07-0.076,0.189h15.596C61.081,58.088,61.052,58.018,61.052,58.018z"/>
				</g>
			</g>
			<g>
				<path class="st167" d="M50.933,105.103c0,0.729-1.273,0.742-2.842,0.742c-1.57,0-2.846-0.014-2.846-0.742
					c0-0.73,1.275-2.016,2.846-2.016C49.659,103.087,50.933,104.373,50.933,105.103z"/>
			</g>
		</g>
	</g>
</g>
</svg>
