<?xml version="1.0" encoding="utf-8"?>
<!-- Generator: Adobe Illustrator 16.0.0, SVG Export Plug-In . SVG Version: 6.00 Build 0)  -->
<!DOCTYPE svg PUBLIC "-//W3C//DTD SVG 1.1//EN" "http://www.w3.org/Graphics/SVG/1.1/DTD/svg11.dtd">
<svg version="1.1" id="Layer_1" xmlns="http://www.w3.org/2000/svg" xmlns:xlink="http://www.w3.org/1999/xlink" x="0px" y="0px"
	 width="136.833px" height="136.833px" viewBox="0 0 136.833 136.833" style="enable-background:new 0 0 136.833 136.833;"
	 xml:space="preserve">
<style type="text/css">
<![CDATA[
	.st0{fill:#7A5628;}
	.st1{fill:#49A0AE;}
	.st2{fill:#ACA8A9;}
	.st3{fill:#7DB6B7;}
	.st4{fill:#11100E;}
	.st5{fill:#7FCDCC;}
	.st6{fill:#E0DAD2;}
	.st7{fill:#E1E1E1;}
	.st8{fill:#13B3CA;}
	.st9{fill:#E3E4E5;}
	.st10{fill:#15B5AC;}
	.st11{fill:#E4B894;}
	.st12{fill:#E4C88F;}
	.st13{fill:#E4DED0;}
	.st14{fill:#4A86C5;}
	.st15{fill:#4ABC96;}
	.st16{fill:#171413;}
	.st17{fill:#E5CE27;}
	.st18{fill:#187070;}
	.st19{fill:#E7CB7C;}
	.st20{fill:#E7DDB3;}
	.st21{fill:#E7E9EA;}
	.st22{fill:#E84849;}
	.st23{fill:#E89423;}
	.st24{fill:#E8CC7C;}
	.st25{fill:#E8EAEB;}
	.st26{fill:#E97539;}
	.st27{fill:#E9C29C;}
	.st28{fill:#E9DC96;}
	.st29{fill:#B16E29;}
	.st30{opacity:0.01;}
	.st31{opacity:0.45;}
	.st32{fill:#1A1919;}
	.st33{fill:#B69B30;}
	.st34{fill:#EADD97;}
	.st35{fill:#EB9682;}
	.st36{fill:#B7B7B7;}
	.st37{fill:#EBD9A9;}
	.st38{fill:#1DA049;}
	.st39{fill:#1E1913;}
	.st40{fill:#1E1B17;}
	.st41{fill:#ECDAAA;}
	.st42{fill:#ECE6D5;}
	.st43{fill:#ED3351;}
	.st44{fill:#B9B9BA;}
	.st45{fill:#EDECED;}
	.st46{fill:#1FA85B;}
	.st47{fill:#EEE17F;}
	.st48{fill:#EEE4B8;}
	.st49{fill-rule:evenodd;clip-rule:evenodd;fill:#7FCDCC;}
	.st50{fill:#515252;}
	.st51{fill:#543A1A;}
	.st52{fill:#BB2025;}
	.st53{fill:#8C652E;}
	.st54{fill:#8C8C8C;}
	.st55{fill:#212121;}
	.st56{fill:#BF2126;}
	.st57{fill:#BFBEBE;}
	.st58{fill:#F0C418;}
	.st59{fill:#F0CF6A;}
	.st60{fill:#F0E3C8;}
	.st61{fill:#F1D069;}
	.st62{fill:#F1E4C8;}
	.st63{fill:#F2D083;}
	.st64{fill:#F3BB70;}
	.st65{fill:#F3C715;}
	.st66{fill:#F3D183;}
	.st67{fill:#258C8E;}
	.st68{fill:#25999B;}
	.st69{fill:#F4E028;}
	.st70{fill:#F59798;}
	.st71{fill:#F5DE57;}
	.st72{fill:#F6A2A3;}
	.st73{fill:#F6F7F7;}
	.st74{fill:#28999B;}
	.st75{fill:#F7DF56;}
	.st76{fill:#29A5AE;}
	.st77{fill:#F8B85C;}
	.st78{fill:#F8D648;}
	.st79{fill:#F8DC62;}
	.st80{fill:#F8E69B;}
	.st81{fill:#F8E9AB;}
	.st82{fill:#F8F3DC;}
	.st83{fill:#F9A11C;}
	.st84{fill:#F9A72F;}
	.st85{fill:#F9A731;}
	.st86{fill:#F9E478;}
	.st87{fill:#F9EC34;}
	.st88{fill:#92C7CB;}
	.st89{fill:#93574E;}
	.st90{fill:#939291;}
	.st91{fill:#C2D2D3;}
	.st92{fill:#C42126;}
	.st93{fill:#C47267;}
	.st94{fill:#C4C3C3;}
	.st95{fill:#C5A72E;}
	.st96{fill:#2B2B2B;}
	.st97{fill:#2B5C64;}
	.st98{fill:#FACB83;}
	.st99{fill:#2D2D2D;}
	.st100{fill:#FBEC68;}
	.st101{fill:#2D646D;}
	.st102{fill:#FBF3CE;}
	.st103{fill:#C8802A;}
	.st104{fill:#99999A;}
	.st105{fill:#C8C8C8;}
	.st106{fill-rule:evenodd;clip-rule:evenodd;fill:#59A29F;}
	.st107{fill:#99CED5;}
	.st108{fill:#FDF3D0;}
	.st109{fill:#2F8442;}
	.st110{fill:#60441D;}
	.st111{opacity:0.5;}
	.st112{opacity:0.6;}
	.st113{opacity:0.8;}
	.st114{fill:#FFCE80;}
	.st115{fill:#FFEBBF;}
	.st116{fill:#FFEEA5;}
	.st117{fill:#FFFFFA;}
	.st118{fill:#FFFFFF;}
	.st119{fill:#644421;}
	.st120{fill:none;}
	.st121{fill:#65A844;}
	.st122{fill:#CB4645;}
	.st123{fill:#69C8CF;}
	.st124{fill:#CCCBCB;}
	.st125{fill:#30302F;}
	.st126{fill:#9F7534;}
	.st127{fill:#9F77AA;}
	.st128{fill:#CECECD;}
	.st129{fill:#CECFD0;}
	.st130{fill:#336C75;}
	.st131{fill:#343433;}
	.st132{fill:#344E5D;}
	.st133{fill:#353535;}
	.st134{fill:#357180;}
	.st135{fill:#377CA5;}
	.st136{fill:#383939;}
	.st137{fill-rule:evenodd;clip-rule:evenodd;fill:#97D6D5;}
	.st138{fill:#388388;}
	.st139{fill:#6E5538;}
	.st140{fill:#00A79E;}
	.st141{fill:#D0A288;}
	.st142{fill:#D0E8D0;}
	.st143{fill:#D1AF2B;}
	.st144{fill:#D2B488;}
	.st145{fill:#D2D2D2;}
	.st146{fill-rule:evenodd;clip-rule:evenodd;fill:#63AAA5;}
	.st147{fill:#D3B85F;}
	.st148{fill:#D3B95F;}
	.st149{fill:#D3D3D3;}
	.st150{fill:#D54027;}
	.st151{fill:#3AB780;}
	.st152{fill:#D5BA8A;}
	.st153{fill:#D62127;}
	.st154{fill:#D68936;}
	.st155{fill:#3CB881;}
	.st156{fill:#D7D7D7;}
	.st157{fill:#D7DABA;}
	.st158{fill:#D8D8D7;}
	.st159{fill:#714D22;}
	.st160{fill:#A0D9DC;}
	.st161{fill:#A2D4DE;}
	.st162{fill:#A46434;}
	.st163{fill:#A4A4A4;}
	.st164{fill:#A6A5A5;}
	.st165{fill:#DAA9A3;}
	.st166{fill:#DBBA33;}
	.st167{fill:#DBD3BB;}
	.st168{fill:#DBDDDC;}
	.st169{fill:#DCBF8D;}
	.st170{fill:#DCC172;}
	.st171{fill:#DCDFE0;}
	.st172{fill:#DDC272;}
	.st173{fill:#DDD2A5;}
	.st174{fill:#DDDDDC;}
	.st175{fill:#DDDFE0;}
	.st176{fill:#414141;}
	.st177{fill:#DFC191;}
	.st178{fill:#DFDDDC;}
	.st179{fill:#DFE0E0;}
	.st180{fill:#DFE0E1;}
]]>
</style>
<g>
	<g>
		<g>
			<g>
				<g>
					<g>
						<path class="st1" d="M5.081,68.417c0-34.982,28.356-63.336,63.337-63.336c34.978,0,63.334,28.354,63.334,63.336
							c0,34.979-28.356,63.336-63.334,63.336C33.438,131.752,5.081,103.395,5.081,68.417z"/>
					</g>
				</g>
			</g>
		</g>
	</g>
	<g>
		<g>
			<g>
				<g>
					<path class="st56" d="M39.935,100.502l0.006-1.105l9.756-3.057c1.887-0.59,3.035-1.283,3.343-2.656
						c0.291-1.283-0.235-2.695-1.402-3.779c-1.056-0.979-1.008-2.289-0.834-2.893c0.493-1.703,3.043-2.908,5.199-3.309
						c3.275-0.609,6.76-2.113,7.033-4.236c0.309-2.391-3.139-5.148-5.208-6.553l0.551-0.219c1.635,0.994,5.82,3.314,5.412,6.467
						c-0.327,2.533-4.254,4.973-7.725,5.615c-2.351,0.436-4.311,1.623-4.659,2.818c-0.171,0.602,0.126,0.814,0.766,1.404
						c1.354,1.254,1.894,3.311,1.55,4.834c-0.368,1.631-1.748,2.893-3.881,3.564L39.935,100.502z"/>
				</g>
			</g>
			<g>
				<g>
					<path class="st122" d="M39.945,99.413l-0.057-0.596l9.909-3.107c1.887-0.592,3.098-1.674,3.408-3.047
						c0.29-1.281-0.238-2.695-1.405-3.781c-1.058-0.977-1.069-1.9-0.895-2.5c0.491-1.703,3.04-2.912,5.2-3.309
						c3.271-0.607,6.818-2.504,7.095-4.627c0.351-2.707-3.485-4.885-4.823-5.75l0.423,0.002c1.76,1.168,5.462,2.957,5.093,5.836
						c-0.329,2.531-4.192,4.58-7.662,5.223c-2.349,0.438-4.311,1.619-4.657,2.818c-0.175,0.604,0.061,1.203,0.7,1.797
						c1.354,1.256,1.955,2.916,1.611,4.443c-0.37,1.625-1.743,2.889-3.88,3.559L39.945,99.413z"/>
				</g>
			</g>
		</g>
		<g>
			<g>
				<path class="st56" d="M81.353,47.963c0-6.502-3.875-11.5-10.25-12.76c-3.696-0.73-8.58,2.969-11.79,2.969
					s-7.538-3.975-12.284-2.969c-6.926,1.469-9.676,5.457-9.676,12.135c0,10.012,15.971,23.668,15.971,23.668
					c3.301,2.477,8.057,2.352,11.159,0C64.482,71.006,81.353,57.715,81.353,47.963z"/>
			</g>
			<g>
				<path class="st153" d="M57.868,72.368c0.452-0.451,1.185-0.451,1.637,0l0.818,0.818c0.452,0.453,0.452,1.186,0,1.637h-3.272
					c-0.452-0.451-0.452-1.184,0-1.637L57.868,72.368z"/>
			</g>
			<g>
				<path class="st70" d="M42.446,50.745c-2.994-2.992-2.994-7.848,0-10.842s7.85-2.994,10.844,0S45.44,53.739,42.446,50.745z"/>
			</g>
		</g>
		<g>
			<g>
				<g>
					<path class="st56" d="M57.485,99.559l-0.492-0.732l5.078-6.402c0.982-1.238,1.431-2.211,1.019-3.258
						c-0.384-0.979-1.366-1.676-2.625-1.869c-1.138-0.174-1.695-1.063-1.85-1.539c-0.438-1.348,0.706-3.289,1.953-4.521
						c1.892-1.873,3.521-4.432,2.748-5.959c-0.868-1.721-4.387-1.996-6.386-1.996l0.266-0.391c1.527-0.078,5.337-0.424,6.482,1.846
						c0.922,1.822-0.581,5.199-2.586,7.182c-1.359,1.344-2.123,3.008-1.815,3.955c0.155,0.475,0.448,0.482,1.136,0.586
						c1.459,0.221,2.738,1.338,3.195,2.502c0.488,1.242,0.143,2.695-0.967,4.096L57.485,99.559z"/>
				</g>
			</g>
			<g>
				<g>
					<path class="st122" d="M57.003,98.834l-0.305-0.369l5.156-6.504c0.983-1.238,1.298-2.498,0.886-3.545
						c-0.384-0.979-1.366-1.676-2.626-1.869c-1.138-0.172-1.561-0.777-1.715-1.252c-0.439-1.348,0.704-3.291,1.953-4.523
						c1.891-1.871,3.387-4.717,2.615-6.244c-0.983-1.949-4.497-1.666-5.771-1.637l0.281-0.188c1.688-0.02,4.939-0.5,5.987,1.572
						c0.919,1.82-0.716,4.91-2.722,6.893c-1.357,1.344-2.123,3.006-1.814,3.955c0.154,0.477,0.58,0.768,1.27,0.873
						c1.459,0.223,2.603,1.051,3.061,2.215c0.486,1.24,0.145,2.695-0.968,4.096L57.003,98.834z"/>
				</g>
			</g>
		</g>
	</g>
	<g>
		<g>
			<g>
				<g>
					<path class="st56" d="M68.822,112.002l0.005-0.963l8.498-2.662c1.643-0.514,2.644-1.119,2.912-2.314
						c0.254-1.117-0.205-2.346-1.222-3.291c-0.919-0.852-0.878-1.994-0.727-2.52c0.429-1.482,2.65-2.533,4.529-2.881
						c2.853-0.531,5.887-1.842,6.125-3.691c0.27-2.082-2.733-4.484-4.536-5.709l0.48-0.188c1.423,0.865,5.069,2.885,4.713,5.631
						c-0.284,2.207-3.704,4.332-6.728,4.893c-2.048,0.379-3.755,1.412-4.058,2.455c-0.15,0.521,0.109,0.709,0.666,1.223
						c1.179,1.092,1.649,2.883,1.35,4.211c-0.32,1.42-1.521,2.52-3.38,3.104L68.822,112.002z"/>
				</g>
			</g>
			<g>
				<g>
					<path class="st122" d="M68.832,111.053l-0.05-0.518l8.631-2.707c1.644-0.516,2.699-1.459,2.969-2.654
						c0.253-1.117-0.207-2.346-1.224-3.293c-0.921-0.852-0.932-1.656-0.778-2.18c0.427-1.482,2.647-2.535,4.529-2.881
						c2.849-0.529,5.938-2.182,6.18-4.031c0.305-2.357-3.036-4.254-4.201-5.006l0.367,0.002c1.534,1.016,4.758,2.574,4.436,5.08
						c-0.285,2.207-3.65,3.99-6.673,4.551c-2.046,0.381-3.755,1.41-4.057,2.453c-0.153,0.527,0.052,1.049,0.609,1.566
						c1.181,1.094,1.703,2.541,1.404,3.869c-0.323,1.418-1.52,2.518-3.38,3.102L68.832,111.053z"/>
				</g>
			</g>
		</g>
		<g>
			<g>
				<path class="st153" d="M104.899,66.241c0-5.664-3.376-10.018-8.929-11.115c-3.219-0.635-7.473,2.586-10.269,2.586
					c-2.797,0-6.566-3.463-10.701-2.586c-6.032,1.279-8.428,4.754-8.428,10.57c0,8.719,13.912,20.615,13.912,20.615
					c2.874,2.156,7.017,2.049,9.719,0C90.204,86.311,104.899,74.735,104.899,66.241z"/>
			</g>
			<g>
				<path class="st153" d="M84.442,87.499c0.395-0.395,1.032-0.395,1.426,0l0.713,0.711c0.395,0.395,0.395,1.031,0,1.426h-2.85
					c-0.395-0.395-0.395-1.031,0-1.426L84.442,87.499z"/>
			</g>
			<g>
				<path class="st70" d="M71.011,68.663c-2.608-2.607-2.608-6.836,0-9.443c2.607-2.609,6.837-2.609,9.444,0
					C83.063,61.827,73.618,71.272,71.011,68.663z"/>
			</g>
		</g>
		<g>
			<g>
				<g>
					<path class="st56" d="M84.11,111.182l-0.429-0.639l4.423-5.576c0.855-1.08,1.245-1.926,0.887-2.838
						c-0.334-0.854-1.19-1.459-2.287-1.629c-0.99-0.15-1.476-0.926-1.61-1.34c-0.383-1.174,0.614-2.865,1.702-3.938
						c1.646-1.633,3.066-3.861,2.393-5.191c-0.755-1.498-3.82-1.74-5.563-1.74l0.232-0.34c1.33-0.066,4.648-0.367,5.646,1.609
						c0.803,1.586-0.507,4.529-2.252,6.254c-1.185,1.17-1.85,2.621-1.581,3.447c0.135,0.412,0.391,0.418,0.988,0.51
						c1.271,0.191,2.386,1.164,2.784,2.178c0.425,1.084,0.124,2.35-0.842,3.568L84.11,111.182z"/>
				</g>
			</g>
			<g>
				<g>
					<path class="st122" d="M83.689,110.551l-0.266-0.322l4.491-5.666c0.856-1.078,1.131-2.176,0.771-3.088
						c-0.334-0.852-1.189-1.459-2.287-1.627c-0.99-0.15-1.359-0.678-1.494-1.092c-0.382-1.174,0.614-2.865,1.701-3.939
						c1.647-1.629,2.951-4.109,2.278-5.439c-0.856-1.697-3.917-1.451-5.026-1.426l0.245-0.162c1.47-0.018,4.302-0.436,5.214,1.369
						c0.802,1.586-0.623,4.277-2.369,6.004c-1.184,1.17-1.85,2.619-1.582,3.445c0.135,0.414,0.506,0.668,1.107,0.76
						c1.27,0.193,2.266,0.916,2.664,1.928c0.424,1.084,0.127,2.35-0.843,3.568L83.689,110.551z"/>
				</g>
			</g>
		</g>
	</g>
</g>
</svg>
