<?xml version="1.0" encoding="utf-8"?>
<!-- Generator: Adobe Illustrator 16.0.0, SVG Export Plug-In . SVG Version: 6.00 Build 0)  -->
<!DOCTYPE svg PUBLIC "-//W3C//DTD SVG 1.1//EN" "http://www.w3.org/Graphics/SVG/1.1/DTD/svg11.dtd">
<svg version="1.1" id="Layer_1" xmlns="http://www.w3.org/2000/svg" xmlns:xlink="http://www.w3.org/1999/xlink" x="0px" y="0px"
	 width="136.913px" height="136.914px" viewBox="0 0 136.913 136.914" enable-background="new 0 0 136.913 136.914"
	 xml:space="preserve">
<g>
	<path fill="#5CB1E3" d="M82.897,120.317c-4.082,7.105-7.95,11.473-14.441,11.473c14.693,0,28.205-5.016,38.95-13.412
		c-0.838,0.656-1.692,1.291-2.564,1.902L82.897,120.317z"/>
	<path fill="#5CB1E3" d="M109.894,116.331c-0.8,0.693-1.618,1.365-2.452,2.02C108.277,117.696,109.094,117.024,109.894,116.331z"/>
	<path fill="#5CB1E3" d="M130.068,83.104c-0.164,0.689-0.336,1.375-0.521,2.055C129.732,84.479,129.904,83.794,130.068,83.104z"/>
	<path fill="#5CB1E3" d="M131.789,68.458c0,1.148-0.033,2.289-0.094,3.422C131.756,70.747,131.789,69.606,131.789,68.458z"/>
	<path fill="#5CB1E3" d="M127.093,92.397c-0.335,0.818-0.688,1.625-1.056,2.426C126.405,94.022,126.759,93.216,127.093,92.397z"/>
	<path fill="#5CB1E3" d="M128.237,89.376c-0.262,0.744-0.537,1.482-0.826,2.215C127.699,90.858,127.976,90.122,128.237,89.376z"/>
	<path fill="#5CB1E3" d="M131.613,72.958c-0.055,0.771-0.111,1.541-0.193,2.303C131.502,74.499,131.559,73.729,131.613,72.958z"/>
	<path fill="#5CB1E3" d="M125.802,95.345c-3.793,8.064-9.235,15.203-15.896,20.975C116.567,110.546,122.012,103.415,125.802,95.345z
		"/>
	<path fill="#5CB1E3" d="M131.264,76.493c-0.09,0.705-0.18,1.41-0.293,2.107C131.084,77.903,131.176,77.198,131.264,76.493z"/>
	<path fill="#5CB1E3" d="M130.748,79.851c-0.125,0.686-0.254,1.369-0.402,2.047C130.492,81.22,130.623,80.536,130.748,79.851z"/>
	<path fill="#5CB1E3" d="M129.23,86.276c-0.207,0.707-0.428,1.41-0.658,2.107C128.803,87.687,129.023,86.985,129.23,86.276z"/>
	<path fill="#5CB1E3" d="M130.971,78.601c-0.068,0.42-0.148,0.834-0.223,1.25C130.822,79.435,130.902,79.021,130.971,78.601z"/>
	<path fill="#5CB1E3" d="M128.572,88.384c-0.109,0.332-0.22,0.662-0.335,0.992C128.352,89.046,128.462,88.716,128.572,88.384z"/>
	<path fill="#5CB1E3" d="M129.547,85.159c-0.102,0.375-0.209,0.746-0.316,1.117C129.34,85.905,129.445,85.534,129.547,85.159z"/>
	<path fill="#5CB1E3" d="M130.346,81.897c-0.086,0.404-0.184,0.807-0.277,1.207C130.164,82.704,130.26,82.302,130.346,81.897z"/>
	<path fill="#5CB1E3" d="M127.411,91.591c-0.105,0.27-0.208,0.539-0.317,0.807C127.203,92.13,127.305,91.86,127.411,91.591z"/>
	<path fill="#5CB1E3" d="M126.038,94.823c-0.079,0.174-0.154,0.35-0.235,0.521C125.883,95.173,125.958,94.997,126.038,94.823z"/>
	<polygon fill="#5CB1E3" points="109.901,116.325 109.907,116.319 109.901,116.325 	"/>
	<path fill="#5CB1E3" d="M131.42,75.261c-0.043,0.414-0.104,0.822-0.156,1.232C131.316,76.083,131.377,75.675,131.42,75.261z"/>
	<path fill="#5CB1E3" d="M131.695,71.88c-0.02,0.361-0.057,0.719-0.082,1.078C131.639,72.599,131.676,72.241,131.695,71.88z"/>
	<path fill="#5CB1E3" d="M125.802,95.345c0.081-0.172,0.156-0.348,0.235-0.521c0.367-0.801,0.721-1.607,1.056-2.426
		c0.109-0.268,0.212-0.537,0.317-0.807c0.289-0.732,0.564-1.471,0.826-2.215c0.115-0.33,0.227-0.66,0.335-0.992
		c0.23-0.697,0.451-1.4,0.658-2.107c0.107-0.371,0.215-0.742,0.316-1.117c0.186-0.68,0.357-1.365,0.521-2.055
		c0.094-0.4,0.191-0.803,0.277-1.207c0.148-0.678,0.277-1.361,0.402-2.047c0.074-0.416,0.154-0.83,0.223-1.25
		c0.113-0.697,0.203-1.402,0.293-2.107c0.053-0.41,0.113-0.818,0.156-1.232c0.082-0.762,0.139-1.531,0.193-2.303
		c0.025-0.359,0.063-0.717,0.082-1.078c0.061-1.133,0.094-2.273,0.094-3.422c0-34.98-28.355-63.334-63.333-63.334
		c18.792,0,23.925,35.617,22.524,69.453l18.921,41.748c0.002-0.002,0.004-0.004,0.006-0.006
		C116.567,110.548,122.009,103.409,125.802,95.345z"/>
	<path fill="#F8FBFB" d="M107.442,118.351c-0.012,0.008-0.023,0.018-0.036,0.027C107.418,118.368,107.43,118.358,107.442,118.351z"
		/>
	<polygon fill="#F8FBFB" points="109.894,116.331 109.901,116.325 109.901,116.325 	"/>
	<path fill="#E4E4E4" d="M92.925,70.872c-0.168,4.076-0.484,8.111-0.945,12.039l13.667,36.666h-1.4l0.595,0.703
		c0.872-0.611,1.727-1.246,2.564-1.902c0.013-0.01,0.024-0.02,0.036-0.027c0.834-0.654,1.652-1.326,2.452-2.02
		c0.003-0.002,0.005-0.004,0.007-0.006L92.925,70.872z"/>
	<path fill="#0B0B0B" d="M104.247,119.577h1.4l-13-34.416c-0.553,4.707-1.276,10.307-2.25,14.584L104.247,119.577z"/>
	<path fill="#F8D12E" d="M83.064,120.317l21.777-0.037l-0.595-0.703l-13.85-19.832C88.703,107.188,86.032,115.151,83.064,120.317z"
		/>
	<path fill="#FFFFFF" d="M22.403,111.907c-4.564-4.834-8.377-10.385-11.249-16.467C14.024,101.524,17.838,107.073,22.403,111.907z"
		/>
	<path fill="#FFFFFF" d="M29.706,118.534c-0.83-0.643-1.645-1.307-2.441-1.992C28.061,117.226,28.875,117.892,29.706,118.534z"/>
	<path fill="#FFFFFF" d="M27.258,116.538c-0.836-0.717-1.652-1.457-2.45-2.215C25.606,115.081,26.421,115.821,27.258,116.538z"/>
	<path fill="#FFFFFF" d="M10.984,95.063c-0.395-0.85-0.772-1.709-1.13-2.578C10.211,93.354,10.59,94.214,10.984,95.063z"/>
	<path fill="#FFFFFF" d="M24.754,114.271c-0.789-0.752-1.557-1.523-2.305-2.314C23.198,112.749,23.965,113.519,24.754,114.271z"/>
	<path fill="#FFFFFF" d="M6.579,81.95c-0.148-0.68-0.279-1.367-0.405-2.055C6.299,80.583,6.43,81.269,6.579,81.95z"/>
	<path fill="#FFFFFF" d="M5.495,75.284c-0.082-0.764-0.139-1.535-0.193-2.307C5.356,73.749,5.413,74.521,5.495,75.284z"/>
	<path fill="#FFFFFF" d="M5.219,71.892c-0.061-1.137-0.096-2.281-0.096-3.434C5.124,69.61,5.159,70.755,5.219,71.892z"/>
	<path fill="#FFFFFF" d="M9.556,91.729c-0.298-0.752-0.585-1.512-0.854-2.277C8.971,90.218,9.258,90.978,9.556,91.729z"/>
	<path fill="#6CC4EE" d="M84.312,120.317l-52.06,0.092c10.263,7.166,22.737,11.381,36.203,11.381
		C74.947,131.79,80.23,127.423,84.312,120.317z"/>
	<path fill="#FFFFFF" d="M5.949,78.638c-0.113-0.699-0.206-1.404-0.296-2.111C5.743,77.233,5.835,77.938,5.949,78.638z"/>
	<path fill="#FFFFFF" d="M32.25,120.407c-0.864-0.602-1.711-1.227-2.542-1.871C30.54,119.181,31.387,119.806,32.25,120.407z"/>
	<path fill="#FFFFFF" d="M8.373,88.478c-0.235-0.705-0.46-1.418-0.671-2.135C7.913,87.062,8.137,87.771,8.373,88.478z"/>
	<path fill="#FFFFFF" d="M7.385,85.228c-0.188-0.686-0.363-1.375-0.527-2.068C7.022,83.853,7.198,84.542,7.385,85.228z"/>
	<path fill="#FFFFFF" d="M6.858,83.159c-0.096-0.402-0.191-0.805-0.279-1.209C6.667,82.354,6.762,82.757,6.858,83.159z"/>
	<path fill="#FFFFFF" d="M5.653,76.526C5.6,76.112,5.54,75.702,5.495,75.284C5.54,75.702,5.6,76.112,5.653,76.526z"/>
	<path fill="#FFFFFF" d="M7.702,86.343c-0.109-0.369-0.215-0.742-0.316-1.115C7.487,85.601,7.592,85.974,7.702,86.343z"/>
	<polygon fill="#FFFFFF" points="27.258,116.538 27.261,116.54 27.261,116.54 	"/>
	<path fill="#FFFFFF" d="M8.702,89.452c-0.113-0.324-0.221-0.648-0.329-0.975C8.481,88.804,8.588,89.128,8.702,89.452z"/>
	<path fill="#FFFFFF" d="M5.301,72.978c-0.025-0.363-0.063-0.723-0.082-1.086C5.239,72.255,5.276,72.614,5.301,72.978z"/>
	<path fill="#FFFFFF" d="M6.173,79.896c-0.077-0.42-0.157-0.836-0.225-1.258C6.017,79.06,6.096,79.476,6.173,79.896z"/>
	<path fill="#FFFFFF" d="M24.808,114.323c-0.019-0.018-0.036-0.035-0.054-0.053C24.772,114.288,24.79,114.306,24.808,114.323z"/>
	<path fill="#FFFFFF" d="M9.854,92.485c-0.103-0.25-0.198-0.504-0.298-0.756C9.656,91.981,9.75,92.235,9.854,92.485z"/>
	<path fill="#FFFFFF" d="M22.45,111.956c-0.016-0.016-0.031-0.031-0.047-0.049C22.418,111.925,22.434,111.94,22.45,111.956z"/>
	<path fill="#FFFFFF" d="M11.154,95.44c-0.059-0.125-0.112-0.252-0.17-0.377C11.042,95.188,11.095,95.315,11.154,95.44z"/>
	<path fill="#6CC4EE" d="M5.124,68.458c0,1.152,0.035,2.297,0.096,3.434c0.02,0.363,0.057,0.723,0.082,1.086
		c0.055,0.771,0.111,1.543,0.193,2.307c0.045,0.418,0.105,0.828,0.158,1.242c0.09,0.707,0.183,1.412,0.296,2.111
		c0.067,0.422,0.147,0.838,0.225,1.258c0.126,0.688,0.257,1.375,0.405,2.055c0.088,0.404,0.184,0.807,0.279,1.209
		c0.164,0.693,0.339,1.383,0.527,2.068c0.102,0.373,0.207,0.746,0.316,1.115c0.211,0.717,0.436,1.43,0.671,2.135
		c0.108,0.326,0.216,0.65,0.329,0.975c0.27,0.766,0.557,1.525,0.854,2.277c0.1,0.252,0.195,0.506,0.298,0.756
		c0.357,0.869,0.735,1.729,1.13,2.578c0.058,0.125,0.111,0.252,0.17,0.377c2.872,6.082,6.685,11.633,11.249,16.467
		c0.016,0.018,0.031,0.033,0.047,0.049c0.748,0.791,1.516,1.563,2.305,2.314c0.018,0.018,0.035,0.035,0.054,0.053
		c0.798,0.758,1.614,1.498,2.45,2.215c0,0,0.002,0.002,0.003,0.002L68.457,6.245l26.081,69.273
		c1.4-33.836-7.29-70.395-26.082-70.395C33.479,5.124,5.124,33.478,5.124,68.458z"/>
	<polygon fill="#FFFFFF" points="32.25,120.407 32.252,120.409 32.252,120.409 	"/>
	<path fill="#FFFFFF" d="M29.708,118.536c-0.001,0-0.002,0-0.003-0.002C29.707,118.536,29.708,118.536,29.708,118.536z"/>
	<polygon fill="#FFFFFF" points="27.261,116.54 27.264,116.542 27.261,116.54 	"/>
	<path fill="#FFFFFF" d="M27.261,116.54c0.001,0.002,0.002,0.002,0.003,0.002c0.797,0.686,1.611,1.35,2.441,1.992
		c0.001,0.002,0.002,0.002,0.003,0.002c0.831,0.645,1.678,1.27,2.542,1.871c0,0.002,0.001,0.002,0.002,0.002l0.698-0.832h-1.302
		L68.5,20.911l25.092,66.646c0.461-3.928,0.777-7.963,0.945-12.039L68.457,6.245L27.261,116.54z"/>
	<path fill="#151515" d="M31.649,119.577h1.302l35.506-51.119l22.846,32.631c0.974-4.277,1.737-8.824,2.29-13.531L68.5,20.911
		L31.649,119.577z"/>
	<polygon fill="#FFFFFF" points="32.252,120.409 32.252,120.409 32.252,120.409 	"/>
	<path fill="#F8D648" d="M68.457,68.458l-35.506,51.119l-0.698,0.832l0,0l52.06-0.092c2.968-5.166,5.296-11.785,6.99-19.229
		L68.457,68.458z"/>
</g>
</svg>
