<?xml version="1.0" encoding="utf-8"?>
<!-- Generator: Adobe Illustrator 16.0.0, SVG Export Plug-In . SVG Version: 6.00 Build 0)  -->
<!DOCTYPE svg PUBLIC "-//W3C//DTD SVG 1.1//EN" "http://www.w3.org/Graphics/SVG/1.1/DTD/svg11.dtd">
<svg version="1.1" id="Layer_1" xmlns="http://www.w3.org/2000/svg" xmlns:xlink="http://www.w3.org/1999/xlink" x="0px" y="0px"
	 width="136.602px" height="135.696px" viewBox="0 0 136.602 135.696" enable-background="new 0 0 136.602 135.696"
	 xml:space="preserve">
<g>
	<g>
		<path fill="#258F44" d="M68.3,131.181c21.602,0,40.666-10.822,52.098-27.332H87.583C83.385,119.792,78.786,131.181,68.3,131.181z"
			/>
		<path fill="#258F44" d="M86.491,31.847h33.906c0.359,0.52,0.709,1.047,1.053,1.578C110.161,16.03,90.581,4.515,68.3,4.515
			C78.786,4.515,82.293,15.905,86.491,31.847z"/>
		<path fill="#E4E4E4" d="M87.583,31.847c0.621,2.355,1.176,4.803,1.658,7.334h35.527c-0.931-1.83-1.948-3.607-3.045-5.33
			c-0.091-0.143-0.182-0.283-0.273-0.426c-0.344-0.531-0.693-1.059-1.053-1.578H87.583z"/>
		<path fill="#E4E4E4" d="M121.444,102.28c0.096-0.148,0.191-0.297,0.286-0.445c1.094-1.721,2.109-3.494,3.038-5.32H89.241
			c-0.482,2.531-1.037,4.98-1.658,7.334h32.814c0.001-0.002,0.002-0.002,0.004-0.004
			C120.757,103.329,121.103,102.808,121.444,102.28z"/>
		<path fill="#B31F30" d="M89.241,39.181c3.402,17.832,3.402,39.504,0,57.334h35.527c0.82-1.611,1.574-3.264,2.258-4.949
			c0.005-0.014,0.01-0.027,0.016-0.041c0.404-1.002,0.782-2.02,1.137-3.049c0.082-0.238,0.164-0.477,0.242-0.715
			c0.238-0.719,0.463-1.443,0.676-2.172c0.12-0.41,0.24-0.822,0.352-1.238c0.113-0.42,0.223-0.842,0.328-1.266
			c0.175-0.707,0.342-1.418,0.492-2.133c0.068-0.32,0.127-0.645,0.19-0.967c0.128-0.658,0.248-1.322,0.355-1.988
			c0.036-0.223,0.077-0.443,0.11-0.668c0.129-0.861,0.236-1.73,0.331-2.604c0.025-0.232,0.051-0.465,0.073-0.697
			c0.087-0.896,0.157-1.799,0.206-2.707c0.01-0.182,0.017-0.363,0.024-0.547c0.045-0.971,0.074-1.943,0.074-2.926
			c0-0.98-0.029-1.955-0.074-2.926c-0.008-0.182-0.015-0.365-0.024-0.547c-0.049-0.908-0.119-1.809-0.206-2.707
			c-0.022-0.232-0.048-0.465-0.073-0.697c-0.095-0.871-0.201-1.74-0.331-2.6c-0.033-0.227-0.074-0.449-0.111-0.674
			c-0.107-0.666-0.227-1.326-0.354-1.982c-0.063-0.324-0.123-0.65-0.191-0.973c-0.15-0.713-0.316-1.422-0.491-2.127
			c-0.106-0.426-0.216-0.852-0.331-1.275c-0.109-0.406-0.227-0.809-0.344-1.213c-0.216-0.738-0.442-1.473-0.684-2.201
			c-0.078-0.232-0.156-0.465-0.236-0.697c-0.359-1.041-0.741-2.07-1.152-3.086c0-0.002-0.001-0.004-0.002-0.004
			c-0.684-1.691-1.438-3.344-2.26-4.959H89.241z"/>
		<path fill="#258F44" d="M16.202,103.847c-0.357-0.518-0.705-1.041-1.047-1.568C15.498,102.806,15.845,103.329,16.202,103.847z"/>
		<path fill="#2A9847" d="M15.149,33.429c0.344-0.531,0.693-1.061,1.055-1.582h74.119C86.125,15.905,78.786,4.515,68.3,4.515
			C46.019,4.515,26.438,16.032,15.149,33.429z"/>
		<path fill="#2A9847" d="M90.323,103.849H16.204c11.432,16.51,30.496,27.332,52.096,27.332
			C78.786,131.181,86.125,119.792,90.323,103.849z"/>
		<path fill="#F3F2F2" d="M91.981,39.181c-0.482-2.531-1.037-4.979-1.658-7.334H16.204c-0.361,0.521-0.711,1.051-1.055,1.582
			c-0.091,0.139-0.18,0.279-0.269,0.418c-1.098,1.725-2.116,3.504-3.048,5.334H91.981z"/>
		<polygon fill="#258F44" points="16.204,103.849 16.204,103.849 16.202,103.847 		"/>
		<path fill="#F3F2F2" d="M14.874,101.839c0.094,0.146,0.187,0.293,0.281,0.439c0.342,0.527,0.689,1.051,1.047,1.568l0.002,0.002
			h74.119c0.621-2.354,1.176-4.803,1.658-7.334H11.833C12.763,98.343,13.778,100.118,14.874,101.839z"/>
		<path fill="#C11F40" d="M91.981,39.181H11.833c-0.821,1.615-1.576,3.268-2.26,4.959c-0.001,0-0.002,0.002-0.002,0.004
			c-0.411,1.016-0.793,2.047-1.152,3.086c-0.08,0.232-0.158,0.465-0.236,0.697c-0.241,0.729-0.468,1.463-0.684,2.201
			c-0.117,0.404-0.234,0.807-0.344,1.213c-0.115,0.424-0.225,0.85-0.331,1.275c-0.175,0.705-0.341,1.414-0.491,2.127
			c-0.068,0.322-0.128,0.648-0.191,0.973c-0.127,0.656-0.246,1.316-0.354,1.982c-0.037,0.225-0.078,0.447-0.111,0.674
			c-0.129,0.859-0.236,1.727-0.33,2.598c-0.025,0.234-0.052,0.467-0.074,0.699c-0.087,0.898-0.157,1.799-0.206,2.707
			c-0.01,0.182-0.017,0.365-0.024,0.547c-0.045,0.971-0.074,1.945-0.074,2.926c0,0.982,0.029,1.955,0.074,2.926
			c0.008,0.184,0.015,0.365,0.024,0.547c0.049,0.908,0.119,1.811,0.206,2.707c0.022,0.234,0.049,0.467,0.073,0.699
			c0.095,0.871,0.202,1.74,0.331,2.602c0.033,0.225,0.074,0.445,0.11,0.668c0.107,0.666,0.228,1.33,0.355,1.988
			c0.063,0.322,0.122,0.646,0.19,0.967c0.15,0.715,0.317,1.426,0.492,2.133c0.105,0.424,0.215,0.846,0.328,1.266
			c0.111,0.416,0.231,0.828,0.352,1.238c0.213,0.729,0.438,1.453,0.676,2.172c0.078,0.238,0.159,0.477,0.241,0.715
			c0.355,1.027,0.732,2.047,1.138,3.049c0.006,0.014,0.011,0.027,0.016,0.041c0.684,1.686,1.438,3.338,2.258,4.949h80.148
			C95.384,78.685,95.384,57.013,91.981,39.181z"/>
	</g>
	<polygon fill="#F0C219" points="68.015,46.437 73.056,61.952 89.372,61.952 76.171,71.542 81.213,87.06 68.015,77.468 
		54.816,87.06 59.858,71.542 46.657,61.952 62.974,61.952 	"/>
</g>
</svg>
