<?xml version="1.0" encoding="utf-8"?>
<!-- Generator: Adobe Illustrator 16.0.0, SVG Export Plug-In . SVG Version: 6.00 Build 0)  -->
<!DOCTYPE svg PUBLIC "-//W3C//DTD SVG 1.1//EN" "http://www.w3.org/Graphics/SVG/1.1/DTD/svg11.dtd">
<svg version="1.1" id="Layer_1" xmlns="http://www.w3.org/2000/svg" xmlns:xlink="http://www.w3.org/1999/xlink" x="0px" y="0px"
	 width="136.913px" height="136.914px" viewBox="0 0 136.913 136.914" enable-background="new 0 0 136.913 136.914"
	 xml:space="preserve">
<g>
	<path fill="#D32027" d="M79.051,23.53h32.631c-11.365-10.834-26.74-17.5-43.683-17.5C76.167,6.03,74.697,12.94,79.051,23.53z"/>
	<path fill="#D32027" d="M67.999,132.698c16.942,0,32.317-6.666,43.683-17.5H76.051C71.698,125.788,76.168,132.698,67.999,132.698z"
		/>
	<path fill="#EFECEC" d="M123.871,99.198H84.716c-1.181,5.869-2.732,11.299-4.665,16h31.631
		C116.543,110.563,120.675,105.171,123.871,99.198z"/>
	<path fill="#EFECEC" d="M83.051,39.53h40.82c-3.196-5.973-7.328-11.365-12.189-16H78.386C80.318,28.229,81.869,33.661,83.051,39.53
		z"/>
	<path fill="#163D68" d="M75.051,99.198h48.82c4.757-8.891,7.462-19.045,7.462-29.834s-2.705-20.943-7.462-29.834h-48.82
		C78.76,57.966,78.76,80.761,75.051,99.198z"/>
	<path fill="#E73B36" d="M86.78,115.198H24.318c11.365,10.834,26.74,17.5,43.681,17.5C76.168,132.698,82.428,125.788,86.78,115.198z
		"/>
	<path fill="#E73B36" d="M86.78,23.53c-4.354-10.59-10.613-17.5-18.781-17.5c-16.94,0-32.315,6.666-43.681,17.5H86.78z"/>
	<path fill="#F3F4F5" d="M86.78,23.53H24.318c-4.861,4.635-8.993,10.027-12.189,16h79.316C90.264,33.661,88.713,28.229,86.78,23.53z
		"/>
	<path fill="#F3F4F5" d="M24.318,115.198H86.78c1.933-4.701,3.484-10.131,4.665-16H12.129
		C15.325,105.171,19.457,110.563,24.318,115.198z"/>
	<path fill="#14477D" d="M91.445,39.53H12.129c-4.757,8.891-7.462,19.045-7.462,29.834s2.705,20.943,7.462,29.834h79.316
		C95.154,80.761,95.154,57.966,91.445,39.53z"/>
</g>
</svg>
