<?xml version="1.0" encoding="utf-8"?>
<!-- Generator: Adobe Illustrator 16.0.0, SVG Export Plug-In . SVG Version: 6.00 Build 0)  -->
<!DOCTYPE svg PUBLIC "-//W3C//DTD SVG 1.1//EN" "http://www.w3.org/Graphics/SVG/1.1/DTD/svg11.dtd">
<svg version="1.1" id="Layer_1" xmlns="http://www.w3.org/2000/svg" xmlns:xlink="http://www.w3.org/1999/xlink" x="0px" y="0px"
	 width="136.913px" height="136.914px" viewBox="0 0 136.913 136.914" enable-background="new 0 0 136.913 136.914"
	 xml:space="preserve">
<g>
	<path fill="#E4E4E4" d="M91.966,68.457h39.824c0-34.98-28.355-63.334-63.334-63.334C85.944,5.123,91.968,36.791,91.966,68.457z"/>
	<path fill="#F3F4F5" d="M5.124,68.457h89.564C94.69,36.791,85.944,5.123,68.456,5.123C33.479,5.123,5.124,33.477,5.124,68.457z"/>
	<path fill="#D84141" d="M90.634,68.457c0,31.666-4.689,63.332-22.178,63.332c34.979,0,63.334-28.355,63.334-63.332H90.634z"/>
	<path fill="#DC4D4E" d="M94.688,68.457H5.124c0,34.977,28.355,63.332,63.332,63.332C85.944,131.789,94.688,100.123,94.688,68.457z"
		/>
</g>
</svg>
