<?xml version="1.0" encoding="utf-8"?>
<!-- Generator: Adobe Illustrator 16.0.0, SVG Export Plug-In . SVG Version: 6.00 Build 0)  -->
<!DOCTYPE svg PUBLIC "-//W3C//DTD SVG 1.1//EN" "http://www.w3.org/Graphics/SVG/1.1/DTD/svg11.dtd">
<svg version="1.1" id="Layer_1" xmlns="http://www.w3.org/2000/svg" xmlns:xlink="http://www.w3.org/1999/xlink" x="0px" y="0px"
	 width="136.914px" height="136.913px" viewBox="0 0 136.914 136.913" enable-background="new 0 0 136.914 136.913"
	 xml:space="preserve">
<g>
	<g>
		<g>
			<path fill="#029D49" d="M9.979,44.115C6.855,51.609,5.124,59.83,5.124,68.457s1.731,16.848,4.854,24.342l47.657-24.342
				L9.979,44.115z"/>
			<path fill="#FBD015" d="M131.79,68.457c0,0.926-0.03,1.842-0.07,2.758C131.765,70.301,131.79,69.383,131.79,68.457z"/>
			<path fill="#FBD015" d="M131.72,65.699c0.04,0.916,0.07,1.834,0.07,2.758C131.79,67.533,131.765,66.613,131.72,65.699z"/>
		</g>
		<g>
			<path fill="#CD2029" d="M14.935,34.615C8.73,44.406,5.124,56.008,5.124,68.457s3.606,24.051,9.811,33.842l42.701-33.842
				L14.935,34.615z"/>
		</g>
	</g>
	<g>
		<path fill="#029D49" d="M89.636,50.625L131.548,63.1c0.072,0.861,0.131,1.729,0.172,2.6c0.04,0.916,0.07,1.834,0.07,2.758
			c0-34.98-28.355-63.334-63.334-63.334C82.622,5.123,86.943,25.9,89.636,50.625z"/>
		<path fill="#029D49" d="M131.72,71.215c-0.041,0.871-0.1,1.736-0.172,2.6L89.386,86.289c-2.691,24.723-6.764,45.5-20.93,45.5
			c34.979,0,63.334-28.355,63.334-63.332C131.79,69.383,131.76,70.299,131.72,71.215z"/>
		<path fill="#FBD015" d="M131.548,63.1L92.636,50.25c1.263,11.6-5.737,27.15-7,38.75l45.912-15.186
			c0.072-0.863,0.131-1.729,0.172-2.6c0.04-0.916,0.07-1.832,0.07-2.758c0-0.924-0.03-1.842-0.07-2.758
			C131.679,64.828,131.62,63.961,131.548,63.1z"/>
		<path fill="#029D49" d="M14.704,101.938c-0.359-0.572-0.704-1.156-1.045-1.742C14,100.781,14.346,101.363,14.704,101.938z"/>
		<path fill="#029D49" d="M11.126,41.537c0.257-0.545,0.526-1.084,0.799-1.621C11.652,40.453,11.383,40.992,11.126,41.537z"/>
		<path fill="#029D49" d="M12.362,39.059c0.291-0.553,0.59-1.1,0.896-1.643C12.952,37.959,12.653,38.506,12.362,39.059z"/>
		<path fill="#029D49" d="M11.928,97.004c-0.274-0.539-0.545-1.082-0.803-1.631C11.383,95.922,11.654,96.463,11.928,97.004z"/>
		<path fill="#029D49" d="M9.979,44.113c0.236-0.568,0.492-1.127,0.744-1.686C10.472,42.986,10.216,43.545,9.979,44.113z"/>
		<path fill="#029D49" d="M10.727,94.494c-0.253-0.563-0.509-1.123-0.747-1.693C10.218,93.371,10.474,93.932,10.727,94.494z"/>
		<path fill="#029D49" d="M13.663,36.713c0.339-0.584,0.683-1.164,1.039-1.736C14.346,35.549,14.001,36.129,13.663,36.713z"/>
		<path fill="#029D49" d="M13.261,99.502c-0.309-0.545-0.607-1.096-0.9-1.652C12.652,98.406,12.953,98.957,13.261,99.502z"/>
		<path fill="#14A755" d="M93.741,86.289l-72.798,24.02c11.605,13.166,28.583,21.48,47.513,21.48
			C82.622,131.789,91.05,111.012,93.741,86.289z"/>
		<path fill="#14A755" d="M20.944,26.604l72.797,24.021C91.049,25.9,82.622,5.123,68.456,5.123
			C49.527,5.123,32.55,13.439,20.944,26.604z"/>
		<path fill="#029D49" d="M20.939,110.305c-2.202-2.5-4.208-5.176-6-7.998C16.73,105.131,18.736,107.805,20.939,110.305z"/>
		<path fill="#029D49" d="M14.942,34.604c1.786-2.814,3.785-5.482,5.979-7.975C18.727,29.121,16.728,31.787,14.942,34.604z"/>
		<path fill="#029D49" d="M12.36,97.85c-0.146-0.279-0.29-0.563-0.433-0.846C12.07,97.287,12.214,97.57,12.36,97.85z"/>
		<path fill="#029D49" d="M13.659,100.195c-0.133-0.23-0.268-0.461-0.398-0.693C13.392,99.734,13.525,99.965,13.659,100.195z"/>
		<path fill="#029D49" d="M14.939,102.307c-0.078-0.123-0.159-0.244-0.235-0.369C14.78,102.063,14.861,102.184,14.939,102.307z"/>
		<polygon fill="#029D49" points="20.943,110.309 20.943,110.309 20.939,110.305 		"/>
		<path fill="#029D49" d="M14.702,34.977c0.079-0.125,0.161-0.248,0.24-0.373C14.863,34.729,14.781,34.852,14.702,34.977z"/>
		<path fill="#029D49" d="M13.259,37.416c0.133-0.236,0.268-0.471,0.404-0.703C13.526,36.945,13.392,37.18,13.259,37.416z"/>
		<path fill="#029D49" d="M11.125,95.373c-0.138-0.291-0.266-0.586-0.398-0.879C10.859,94.787,10.987,95.082,11.125,95.373z"/>
		<path fill="#029D49" d="M20.943,26.604c-0.008,0.008-0.015,0.018-0.022,0.025C20.929,26.621,20.937,26.611,20.943,26.604
			L20.943,26.604z"/>
		<path fill="#029D49" d="M11.925,39.916c0.145-0.287,0.289-0.572,0.438-0.857C12.214,39.344,12.069,39.629,11.925,39.916z"/>
		<polygon fill="#029D49" points="9.979,92.799 9.979,92.801 9.979,92.799 		"/>
		<path fill="#029D49" d="M10.724,42.428c0.135-0.297,0.264-0.596,0.402-0.891C10.987,41.832,10.858,42.131,10.724,42.428z"/>
		<polygon fill="#029D49" points="9.979,44.115 9.979,44.115 9.979,44.113 		"/>
		<path fill="#FCD943" d="M93.741,50.625L20.944,26.604c-0.008,0.008-0.016,0.018-0.023,0.025c-2.193,2.492-4.192,5.16-5.979,7.975
			c-0.079,0.125-0.161,0.248-0.24,0.373c-0.356,0.572-0.7,1.152-1.039,1.736c-0.137,0.232-0.271,0.467-0.404,0.703
			c-0.307,0.543-0.605,1.09-0.896,1.643c-0.148,0.285-0.293,0.57-0.438,0.857c-0.272,0.537-0.542,1.076-0.799,1.621
			c-0.139,0.295-0.268,0.594-0.402,0.891c-0.252,0.559-0.508,1.117-0.744,1.686c0,0,0,0-0.001,0.002l47.657,24.342L9.979,92.799
			l0.001,0.002c0.238,0.57,0.494,1.131,0.747,1.693c0.133,0.293,0.261,0.588,0.398,0.879c0.258,0.549,0.528,1.092,0.803,1.631
			c0.143,0.283,0.286,0.566,0.433,0.846c0.293,0.557,0.592,1.107,0.9,1.652c0.131,0.232,0.266,0.463,0.398,0.693
			c0.341,0.586,0.686,1.17,1.045,1.742c0.076,0.125,0.157,0.246,0.235,0.369c1.792,2.822,3.798,5.498,6,7.998
			c0.001,0.002,0.003,0.004,0.003,0.004l72.799-24.02C95.004,74.689,95.004,62.225,93.741,50.625z"/>
	</g>
</g>
</svg>
