<?xml version="1.0" encoding="utf-8"?>
<!-- Generator: Adobe Illustrator 16.0.0, SVG Export Plug-In . SVG Version: 6.00 Build 0)  -->
<!DOCTYPE svg PUBLIC "-//W3C//DTD SVG 1.1//EN" "http://www.w3.org/Graphics/SVG/1.1/DTD/svg11.dtd">
<svg version="1.1" id="Layer_1" xmlns="http://www.w3.org/2000/svg" xmlns:xlink="http://www.w3.org/1999/xlink" x="0px" y="0px"
	 width="136.913px" height="136.913px" viewBox="0 0 136.913 136.913" enable-background="new 0 0 136.913 136.913"
	 xml:space="preserve">
<g>
	<g>
		<g>
			<circle fill="#FFFFFF" cx="68.456" cy="68.457" r="63.333"/>
		</g>
		<g>
			<path fill="#E4E4E4" d="M128.17,47.34H89.148c1.695,13.529,1.705,28.436,0.033,41.982h39.072
				c2.281-6.535,3.535-13.553,3.535-20.865C131.789,61.049,130.506,53.945,128.17,47.34z"/>
			<path fill="#258F44" d="M89.148,47.34h39.021c-0.006-0.02-0.012-0.037-0.02-0.055C120.045,24.43,99.195,7.615,74.145,5.383
				C83.838,10.697,86.67,27.533,89.148,47.34z"/>
			<path fill="#D32027" d="M74.145,131.527c25.096-2.236,45.975-19.109,54.049-42.025c0.021-0.061,0.039-0.121,0.061-0.18H89.182
				C86.723,109.236,83.879,126.191,74.145,131.527z"/>
		</g>
	</g>
	<g>
		<path fill="#EFEFEF" d="M92.41,47.34H55.787v41.982h36.654C94.115,75.775,94.104,60.869,92.41,47.34z"/>
		<path fill="#359846" d="M55.787,47.34H92.41c-2.48-19.807-8.572-36.643-18.266-41.957c-1.875-0.166-3.771-0.26-5.689-0.26
			c-15.881,0-30.385,5.855-41.498,15.514l28.83,26.428V47.34z"/>
		<path fill="#DB2727" d="M55.787,89.396l-29.082,26.658c11.146,9.791,25.75,15.734,41.75,15.734c1.918,0,3.814-0.094,5.689-0.262
			c9.734-5.336,15.838-22.291,18.297-42.205H55.787V89.396z"/>
		<path fill="#151515" d="M26.957,20.637c-8.166,7.096-14.504,16.244-18.195,26.648c-0.006,0.018-0.012,0.035-0.02,0.055
			c-2.336,6.605-3.619,13.709-3.619,21.117c0,7.313,1.256,14.33,3.535,20.865c0.021,0.059,0.041,0.119,0.061,0.18
			c3.646,10.35,9.91,19.459,17.986,26.553l29.082-26.658v-0.074V47.34v-0.275L26.957,20.637z"/>
	</g>
</g>
</svg>
