<?xml version="1.0" encoding="utf-8"?>
<!-- Generator: Adobe Illustrator 16.0.0, SVG Export Plug-In . SVG Version: 6.00 Build 0)  -->
<!DOCTYPE svg PUBLIC "-//W3C//DTD SVG 1.1//EN" "http://www.w3.org/Graphics/SVG/1.1/DTD/svg11.dtd">
<svg version="1.1" id="Layer_1" xmlns="http://www.w3.org/2000/svg" xmlns:xlink="http://www.w3.org/1999/xlink" x="0px" y="0px"
	 width="136.914px" height="136.914px" viewBox="0 0 136.914 136.914" enable-background="new 0 0 136.914 136.914"
	 xml:space="preserve">
<g>
	<g>
		<path fill="#CD2029" d="M68.487,5.124c-0.018,0-0.034,0-0.052,0V131.79c0.018,0,0.034-0.002,0.052-0.002
			c34.955-0.027,63.282-28.371,63.282-63.33C131.769,33.495,103.442,5.153,68.487,5.124z"/>
		<path fill="#DA1E34" d="M68.435,5.124c-5.032,0-9.921,0.604-14.614,1.713c5.443,2.139,13.937,5.352,14.666,5.627v0.037
			l-18.879,6.713l18.879,7.344v0.037l-18.879,6.711l18.879,7.342v0.037l-18.879,6.715l18.879,7.342v0.037l-18.879,6.713
			l18.879,7.342v0.039l-18.879,6.711l18.879,7.344v0.037l-18.879,6.713l18.879,7.342v0.037l-18.879,6.713l18.879,6.924v0.037
			l-18.879,7.133l18.879,7.34v0.037c-0.662,0.223-8.113,2.74-13.988,4.992c4.486,1.01,9.146,1.559,13.937,1.559
			C103.414,131.79,103.414,5.124,68.435,5.124z"/>
	</g>
	<path fill="#EFEFEF" d="M68.529,125.118l-18.879-7.34l18.879-7.131v-0.039l-18.879-6.924l18.879-6.711v-0.039L49.65,89.593
		l18.879-6.711v-0.039L49.65,75.499l18.879-6.711v-0.039l-18.879-7.34l18.879-6.713v-0.039L49.65,47.315l18.879-6.713v-0.039
		L49.65,33.222l18.879-6.709v-0.039L49.65,19.13l18.879-6.711V12.38c-0.729-0.275-9.223-3.486-14.666-5.625
		c-27.928,6.6-48.718,31.672-48.718,61.619c0,30.186,21.127,55.424,49.396,61.775c5.875-2.254,13.326-4.77,13.988-4.992V125.118z"/>
</g>
</svg>
