<?xml version="1.0" encoding="utf-8"?>
<!-- Generator: Adobe Illustrator 16.0.0, SVG Export Plug-In . SVG Version: 6.00 Build 0)  -->
<!DOCTYPE svg PUBLIC "-//W3C//DTD SVG 1.1//EN" "http://www.w3.org/Graphics/SVG/1.1/DTD/svg11.dtd">
<svg version="1.1" id="Layer_1" xmlns="http://www.w3.org/2000/svg" xmlns:xlink="http://www.w3.org/1999/xlink" x="0px" y="0px"
	 width="136.914px" height="136.913px" viewBox="0 0 136.914 136.913" enable-background="new 0 0 136.914 136.913"
	 xml:space="preserve">
<g>
	<g>
		<rect x="5.409" y="74.379" fill="#C42126" width="126.096" height="0"/>
		<rect x="11.977" y="39.808" fill="#C42126" width="112.958" height="0.002"/>
		<rect x="7.485" y="51.332" fill="#C42126" width="121.943" height="0.002"/>
		<rect x="19.765" y="108.947" fill="#C42126" width="97.385" height="0.002"/>
		<polygon fill="#C42126" points="32.344,120.473 104.57,120.473 104.574,120.471 32.34,120.471 		"/>
		<path fill="#C42126" d="M68.456,5.123c-1.244,0-2.478,0.047-3.703,0.117h7.407C70.934,5.17,69.7,5.123,68.456,5.123z"/>
		<rect x="5.385" y="62.855" fill="#C42126" width="126.145" height="0.002"/>
	</g>
	<g>
		<path fill="#E4E4E4" d="M89.271,28.285h28.146c-3.592-4.373-7.767-8.244-12.392-11.521H84.413
			C86.292,20.07,87.907,23.971,89.271,28.285z"/>
		<path fill="#DC3027" d="M84.413,16.764h20.612C95.637,10.109,84.366,5.943,72.16,5.24h-1.95
			C75.955,5.961,80.69,10.213,84.413,16.764z"/>
		<path fill="#E4E4E4" d="M129.428,51.332c-1.126-4.018-2.636-7.871-4.492-11.521H92.142c0.705,3.697,1.261,7.563,1.673,11.521
			H129.428z"/>
		<path fill="#DC3027" d="M92.142,39.809h32.793c-2.094-4.119-4.61-7.984-7.518-11.523H89.271
			C90.403,31.867,91.364,35.732,92.142,39.809z"/>
		<path fill="#E4E4E4" d="M94.588,74.379h36.917c0.182-1.951,0.285-3.924,0.285-5.922c0-1.889-0.099-3.754-0.261-5.6H94.596
			C94.722,66.689,94.72,70.549,94.588,74.379z"/>
		<path fill="#DC3027" d="M131.529,62.855c-0.347-3.957-1.06-7.807-2.101-11.521H93.814c0.394,3.773,0.654,7.633,0.781,11.521
			H131.529z"/>
		<path fill="#E4E4E4" d="M92.077,97.426h32.693c1.882-3.65,3.416-7.504,4.566-11.523H93.783
			C93.362,89.865,92.793,93.729,92.077,97.426z"/>
		<path fill="#DC3027" d="M129.337,85.902c1.063-3.715,1.801-7.564,2.168-11.523H94.588c-0.135,3.893-0.403,7.752-0.805,11.523
			H129.337z"/>
		<path fill="#E4E4E4" d="M104.574,120.471c4.692-3.264,8.926-7.139,12.575-11.521H89.171c-1.389,4.33-3.038,8.225-4.951,11.521
			H104.574z"/>
		<path fill="#DC3027" d="M89.171,108.947h27.979c2.942-3.533,5.496-7.398,7.621-11.521H92.077
			C91.289,101.504,90.317,105.371,89.171,108.947z"/>
		<path fill="#DC3027" d="M66.167,131.746c-0.132-0.006-0.264-0.01-0.396-0.016C65.902,131.736,66.034,131.74,66.167,131.746z"/>
		<path fill="#DC3027" d="M68.456,131.789c13.427,0,25.868-4.189,36.114-11.316H84.219
			C80.149,127.484,74.897,131.789,68.456,131.789z"/>
		<path fill="#C42126" d="M68.456,131.789c-0.767,0-1.529-0.018-2.289-0.043C66.934,131.771,67.698,131.789,68.456,131.789z"/>
		<path fill="#F3F4F5" d="M84.413,16.764H31.889c-4.626,3.277-8.8,7.148-12.393,11.521h69.775
			C87.907,23.971,86.292,20.07,84.413,16.764z"/>
		<path fill="#E73525" d="M31.889,16.764h52.524C80.69,10.213,75.955,5.961,70.21,5.24h-5.457
			C52.547,5.943,41.276,10.109,31.889,16.764z"/>
		<path fill="#F3F4F5" d="M7.486,51.332h86.328c-0.412-3.959-0.968-7.824-1.673-11.521H11.978
			C10.122,43.461,8.612,47.314,7.486,51.332z"/>
		<path fill="#E73525" d="M19.496,28.285c-2.906,3.539-5.424,7.404-7.517,11.523h80.162c-0.777-4.076-1.738-7.941-2.87-11.523
			H19.496z"/>
		<path fill="#F3F4F5" d="M5.124,68.457c0,1.998,0.104,3.971,0.285,5.922h89.179c0.132-3.83,0.134-7.689,0.008-11.521H5.385
			C5.223,64.703,5.124,66.568,5.124,68.457z"/>
		<path fill="#E73525" d="M5.385,62.855h89.211c-0.127-3.889-0.388-7.748-0.781-11.521H7.485
			C6.444,55.049,5.731,58.898,5.385,62.855z"/>
		<path fill="#F3F4F5" d="M93.783,85.902H7.577c1.15,4.02,2.685,7.873,4.566,11.523h79.934
			C92.793,93.729,93.362,89.865,93.783,85.902z"/>
		<path fill="#E73525" d="M7.577,85.902h86.206c0.401-3.771,0.67-7.631,0.805-11.523H5.409C5.776,78.338,6.515,82.188,7.577,85.902z
			"/>
		<path fill="#F3F4F5" d="M32.34,120.471h51.88c1.913-3.297,3.563-7.191,4.951-11.521H19.765
			C23.414,113.332,27.647,117.207,32.34,120.471z"/>
		<path fill="#E73525" d="M12.144,97.426c2.125,4.123,4.679,7.988,7.621,11.521h69.406c1.146-3.576,2.118-7.443,2.906-11.521H12.144
			z"/>
		<path fill="#E73525" d="M65.771,131.73c0.133,0.006,0.265,0.01,0.396,0.016c0.76,0.025,1.522,0.043,2.289,0.043
			c6.441,0,11.693-4.305,15.763-11.316H32.344C41.902,127.121,53.373,131.211,65.771,131.73z"/>
	</g>
	<g>
		<path fill="#384DA0" d="M67.147,5.156C34.692,5.816,8.24,30.877,5.393,62.752h61.755V5.156z"/>
	</g>
	<polygon fill="#FAF9FB" points="41.006,18.127 45.461,31.838 59.878,31.838 48.214,40.311 52.669,54.021 41.006,45.549 
		29.343,54.021 33.798,40.311 22.134,31.838 36.551,31.838 	"/>
</g>
</svg>
