<?xml version="1.0" encoding="utf-8"?>
<!-- Generator: Adobe Illustrator 16.0.0, SVG Export Plug-In . SVG Version: 6.00 Build 0)  -->
<!DOCTYPE svg PUBLIC "-//W3C//DTD SVG 1.1//EN" "http://www.w3.org/Graphics/SVG/1.1/DTD/svg11.dtd">
<svg version="1.1" id="Layer_1" xmlns="http://www.w3.org/2000/svg" xmlns:xlink="http://www.w3.org/1999/xlink" x="0px" y="0px"
	 width="136.914px" height="136.914px" viewBox="0 0 136.914 136.914" enable-background="new 0 0 136.914 136.914"
	 xml:space="preserve">
<g>
	<g>
		<circle fill="#FFFFFF" cx="68.457" cy="68.458" r="63.333"/>
	</g>
	<g>
		<path fill="#E4E4E4" d="M128.171,47.341H89.149c1.694,13.529,1.705,28.435,0.032,41.982h39.073
			c2.28-6.535,3.535-13.553,3.535-20.865C131.79,61.05,130.507,53.947,128.171,47.341z"/>
		<path fill="#24AC4B" d="M89.149,47.341h39.021c-0.007-0.02-0.013-0.037-0.02-0.055c-8.106-22.855-28.955-39.67-54.006-41.902
			C83.839,10.699,86.67,27.535,89.149,47.341z"/>
		<path fill="#338BC1" d="M74.146,131.528c25.096-2.236,45.975-19.109,54.049-42.025c0.021-0.061,0.039-0.121,0.061-0.18H89.182
			C86.723,109.237,83.88,126.192,74.146,131.528z"/>
		<path fill="#F3F4F5" d="M5.124,68.458c0,7.313,1.255,14.33,3.535,20.865h83.784c1.672-13.547,1.661-28.453-0.033-41.982H8.743
			C6.407,53.947,5.124,61.05,5.124,68.458z"/>
		<path fill="#2DB24A" d="M8.763,47.287c-0.007,0.018-0.013,0.035-0.02,0.055H92.41c-2.479-19.807-8.571-36.643-18.265-41.957
			c-1.875-0.166-3.771-0.26-5.689-0.26C40.905,5.125,17.475,22.72,8.763,47.287z"/>
		<path fill="#3D91CF" d="M92.443,89.323H8.659c0.021,0.059,0.04,0.119,0.061,0.18c8.678,24.629,32.14,42.287,59.736,42.287
			c1.918,0,3.814-0.094,5.689-0.262C83.88,126.192,89.983,109.237,92.443,89.323z"/>
	</g>
</g>
</svg>
