<?xml version="1.0" encoding="utf-8"?>
<!-- Generator: Adobe Illustrator 16.0.0, SVG Export Plug-In . SVG Version: 6.00 Build 0)  -->
<!DOCTYPE svg PUBLIC "-//W3C//DTD SVG 1.1//EN" "http://www.w3.org/Graphics/SVG/1.1/DTD/svg11.dtd">
<svg version="1.1" id="Layer_1" xmlns="http://www.w3.org/2000/svg" xmlns:xlink="http://www.w3.org/1999/xlink" x="0px" y="0px"
	 width="136.913px" height="136.914px" viewBox="0 0 136.913 136.914" enable-background="new 0 0 136.913 136.914"
	 xml:space="preserve">
<g>
	<g>
		<circle fill="#FFFFFF" cx="68.457" cy="68.458" r="63.333"/>
	</g>
	<path fill="#D32027" d="M5.124,68.458c0,23.805,13.141,44.532,32.557,55.351V13.104C18.265,23.924,5.124,44.65,5.124,68.458z"/>
	<g>
		<path fill="#FFFFFF" d="M68.456,131.79c-0.729,0-1.43-0.025-2.145-0.037C67.022,131.777,67.737,131.79,68.456,131.79z"/>
		<path fill="#E7E7E7" d="M68.456,5.124c-0.02,0-0.037,0.001-0.057,0.001C68.419,5.125,68.437,5.124,68.456,5.124
			c34.979,0,34.979,126.667,0,126.667c11.152,0,21.623-2.893,30.725-7.953V13.076C90.079,8.016,79.608,5.124,68.456,5.124z"/>
		<path fill="#B52025" d="M99.181,13.076v110.761c19.445-10.811,32.609-31.554,32.609-55.379
			C131.79,44.63,118.626,23.887,99.181,13.076z"/>
		<path fill="#F3F1F2" d="M68.456,5.124c-0.02,0-0.037,0-0.057,0c-11.15,0.01-21.621,2.912-30.719,7.98v110.704
			c8.527,4.751,18.262,7.599,28.631,7.944c0.715,0.012,1.416,0.037,2.145,0.037C103.435,131.79,103.435,5.124,68.456,5.124z"/>
	</g>
	<path fill-rule="evenodd" clip-rule="evenodd" fill="#D32027" d="M93.034,67.313c-0.871-0.832-2.658-0.74-2.977-2.123
		c-0.422-3.397,1.141-5.375,2.127-7.645c-4.99,1.167-8.924,3.088-8.92-2.548c-2.865,3.503-5.945,7.006-7.217,6.37
		c-1.807-1.062,1.734-10.078,2.121-14.862c-1.748,0.798-5.096,2.548-5.096,2.548s-3.043-5.952-4.654-8.888v-0.032
		c-0.006,0.006-0.006,0.011-0.008,0.016c-0.004-0.004-0.004-0.01-0.008-0.016v0.032c-1.613,2.936-4.654,8.888-4.654,8.888
		s-3.35-1.75-5.096-2.548c0.385,4.785,3.926,13.801,2.119,14.862c-1.273,0.637-4.352-2.867-7.215-6.37
		c0,5.636-3.932,3.715-8.92,2.548c0.984,2.269,2.547,4.247,2.121,7.645c-0.314,1.383-2.102,1.291-2.973,2.123
		c5.789,5.787,15.822,10.085,11.043,14.863l12.885-1.202c0.422,4.354-0.941,9.697,0.242,12.67c0.277,0,0.186,0,0.447,0
		c0.004,0,0.01,0,0.016,0c0.26,0,0.164,0,0.439,0c1.207-3.08-0.172-8.315,0.25-12.67l12.883,1.202
		C77.214,77.398,87.247,73.1,93.034,67.313z"/>
</g>
</svg>
