<?xml version="1.0" encoding="utf-8"?>
<!-- Generator: Adobe Illustrator 16.0.0, SVG Export Plug-In . SVG Version: 6.00 Build 0)  -->
<!DOCTYPE svg PUBLIC "-//W3C//DTD SVG 1.1//EN" "http://www.w3.org/Graphics/SVG/1.1/DTD/svg11.dtd">
<svg version="1.1" id="Layer_1" xmlns="http://www.w3.org/2000/svg" xmlns:xlink="http://www.w3.org/1999/xlink" x="0px" y="0px"
	 width="136.913px" height="136.913px" viewBox="0 0 136.913 136.913" enable-background="new 0 0 136.913 136.913"
	 xml:space="preserve">
<g>
	<g>
		<g>
			<circle fill="#FFFFFF" cx="68.456" cy="68.457" r="63.333"/>
		</g>
	</g>
	<g>
		<path fill="#258F44" d="M87.264,81.09h43.264c0.826-4.082,1.262-8.307,1.262-12.633c0-4.332-0.438-8.563-1.266-12.65h-43.26
			C87.891,64.135,87.891,72.762,87.264,81.09z"/>
		<path fill="#E8BD1F" d="M130.512,55.74c-1.898-9.313-5.84-17.879-11.334-25.217H83c2.158,7.533,3.578,16.191,4.264,25.217H130.512
			z"/>
		<path fill="#258F44" d="M83,30.457h36.125C107.953,15.584,90.383,5.809,70.504,5.176h-1.139C78.928,5.791,78.855,16.029,83,30.457
			z"/>
		<path fill="#258F44" d="M68.455,131.791c20.666,0,39.016-9.902,50.576-25.217H83C78.719,121.396,78.471,131.791,68.455,131.791z"
			/>
		<path fill="#E8BD1F" d="M119.139,106.439c5.531-7.369,9.492-15.984,11.387-25.348H87.283C86.6,90.166,85.172,98.873,83,106.439
			H119.139z"/>
		<path fill="#FFFFFF" d="M68.455,131.791c-20.664,0-39.014-9.902-50.572-25.217h72.01c0.014-0.045,0.025-0.09,0.039-0.135H17.775
			C12.244,99.07,8.283,90.455,6.387,81.092h87.828V81.09H6.387c-0.826-4.082-1.264-8.307-1.264-12.633
			c0-4.332,0.438-8.563,1.268-12.65h87.822c-0.002-0.023-0.004-0.045-0.004-0.066H6.402c1.898-9.313,5.838-17.879,11.334-25.217
			h72.209c-0.006-0.021-0.012-0.045-0.02-0.066H17.789C28.961,15.584,46.529,5.809,66.408,5.176h2.957
			c-0.303-0.02-0.602-0.053-0.91-0.053"/>
		<path fill="#2A9847" d="M5.123,68.457c0,4.326,0.438,8.551,1.264,12.633h87.828c0.627-8.328,0.627-16.955-0.002-25.283H6.391
			C5.561,59.895,5.123,64.125,5.123,68.457z"/>
		<path fill="#F7C910" d="M6.402,55.74h87.807c-0.686-9.025-2.105-17.684-4.264-25.217H17.736
			C12.24,37.861,8.301,46.428,6.402,55.74z"/>
		<path fill="#2A9847" d="M17.789,30.457h72.137C85.781,16.029,78.928,5.791,69.365,5.176h-2.957
			C46.529,5.809,28.961,15.584,17.789,30.457z"/>
		<path fill="#2A9847" d="M68.455,131.791c10.016,0,17.158-10.395,21.438-25.217h-72.01
			C29.441,121.889,47.791,131.791,68.455,131.791z"/>
		<path fill="#F7C910" d="M17.775,106.439h72.156c2.172-7.566,3.6-16.273,4.283-25.348H6.387
			C8.283,90.455,12.244,99.07,17.775,106.439z"/>
	</g>
	<g>
		<path fill="#D32027" d="M67.975,5.137C33.221,5.396,5.123,33.639,5.123,68.457c0,4.041,0.541,8.801,1.264,12.633h61.588V5.137z"/>
	</g>
	<polygon fill="#F3F2F2" points="38.725,31.275 42.719,43.568 55.646,43.568 45.189,51.166 49.184,63.461 38.725,55.863 
		28.264,63.461 32.26,51.166 21.803,43.568 34.73,43.568 	"/>
</g>
</svg>
