<?xml version="1.0" encoding="utf-8"?>
<!-- Generator: Adobe Illustrator 16.0.0, SVG Export Plug-In . SVG Version: 6.00 Build 0)  -->
<!DOCTYPE svg PUBLIC "-//W3C//DTD SVG 1.1//EN" "http://www.w3.org/Graphics/SVG/1.1/DTD/svg11.dtd">
<svg version="1.1" id="Layer_1" xmlns="http://www.w3.org/2000/svg" xmlns:xlink="http://www.w3.org/1999/xlink" x="0px" y="0px"
	 width="136.914px" height="136.914px" viewBox="0 0 136.914 136.914" enable-background="new 0 0 136.914 136.914"
	 xml:space="preserve">
<g>
	<g>
		<circle fill="#FFFFFF" cx="68.457" cy="68.458" r="63.333"/>
	</g>
	<g>
		<path fill="#C42B27" d="M128.17,47.341c-0.007-0.02-0.013-0.037-0.02-0.055c-8.106-22.855-28.955-39.67-54.006-41.902
			c9.693,5.314,9.734,120.809,0,126.145c25.096-2.236,45.975-19.109,54.049-42.025c0.021-0.061,0.039-0.121,0.061-0.18
			c2.28-6.535,3.535-13.553,3.535-20.865C131.79,61.05,130.506,53.946,128.17,47.341z"/>
		<path fill="#CC3434" d="M92.41,47.341C89.93,27.534,83.838,10.698,74.145,5.384c-1.802-0.16-3.623-0.248-5.464-0.254v126.654
			c1.841-0.008,3.662-0.096,5.464-0.256c9.734-5.336,15.838-22.291,18.297-42.205C94.115,75.776,94.104,60.87,92.41,47.341z"/>
		<path fill="#E9E9EA" d="M68.456,5.124c-27.551,0-50.981,17.596-59.693,42.162c-0.007,0.018-0.013,0.035-0.02,0.055
			C6.407,53.946,5.124,61.05,5.124,68.458c0,7.313,1.255,14.33,3.535,20.865c0.021,0.059,0.04,0.119,0.061,0.18
			c8.678,24.629,32.14,42.287,59.736,42.287c0.075,0,0.149-0.006,0.226-0.006V5.13C68.605,5.128,68.531,5.124,68.456,5.124z"/>
	</g>
</g>
</svg>
