<?xml version="1.0" encoding="utf-8"?>
<!-- Generator: Adobe Illustrator 16.0.0, SVG Export Plug-In . SVG Version: 6.00 Build 0)  -->
<!DOCTYPE svg PUBLIC "-//W3C//DTD SVG 1.1//EN" "http://www.w3.org/Graphics/SVG/1.1/DTD/svg11.dtd">
<svg version="1.1" id="Layer_1" xmlns="http://www.w3.org/2000/svg" xmlns:xlink="http://www.w3.org/1999/xlink" x="0px" y="0px"
	 width="136.914px" height="136.913px" viewBox="0 0 136.914 136.913" enable-background="new 0 0 136.914 136.913"
	 xml:space="preserve">
<g>
	<path fill="#2174BA" d="M5.124,68.458c0,22.523,11.77,42.289,29.484,53.516V14.938C16.894,26.167,5.124,45.931,5.124,68.458z"/>
	<g>
		<path fill="#1C8C44" d="M102.306,14.938v107.035c17.715-11.227,29.484-30.992,29.484-53.516
			C131.79,45.931,120.021,26.167,102.306,14.938z"/>
		<path fill="#FBD015" d="M65.903,5.179c0.144-0.006,0.288-0.012,0.432-0.016C66.19,5.167,66.047,5.173,65.903,5.179z"/>
		<path fill="#F3C715" d="M68.456,5.124c14.516,0,23,21.816,25.469,47.338l0.705,11.717c0.824,33.027-7.896,67.611-26.174,67.611
			c12.453,0,24.057-3.609,33.85-9.816V14.938C92.513,8.731,80.909,5.124,68.456,5.124z"/>
		<path fill="#FBD015" d="M66.335,131.751c-0.144-0.004-0.287-0.01-0.432-0.016C66.048,131.741,66.191,131.747,66.335,131.751z"/>
		<path fill="#1C8C44" d="M97.569,58.948l-3.645-6.486c0.372,3.842,0.607,7.768,0.705,11.717L97.569,58.948z"/>
		<path fill="#1A9647" d="M66.335,5.163c0.705-0.023,1.411-0.039,2.121-0.039C67.753,5.124,67.046,5.14,66.335,5.163z"/>
		<path fill="#1A9647" d="M68.456,131.79c-0.71,0-1.416-0.016-2.121-0.039C67.046,131.774,67.753,131.79,68.456,131.79z"/>
		<path fill="#FFD52B" d="M94.63,64.179L84.052,83.007L70.537,58.948l13.515-24.061l9.873,17.574
			C91.456,26.94,82.972,5.124,68.456,5.124c-0.71,0-1.416,0.016-2.121,0.039c-0.144,0.004-0.288,0.01-0.432,0.016
			c-11.484,0.457-22.175,3.979-31.295,9.76v107.035c9.12,5.781,19.811,9.305,31.295,9.762c0.145,0.006,0.288,0.012,0.432,0.016
			c0.705,0.023,1.411,0.039,2.121,0.039C86.733,131.79,95.454,97.206,94.63,64.179z"/>
		<path fill="#1A9647" d="M70.537,58.948l13.515,24.059L94.63,64.179c-0.098-3.949-0.333-7.875-0.705-11.717l-9.873-17.574
			L70.537,58.948z"/>
	</g>
	<g>
		<polygon fill="#1A9647" points="53.073,34.888 39.556,58.948 53.073,83.007 66.587,58.948 		"/>
		<polygon fill="#1A9647" points="68.673,61.255 55.157,85.312 68.673,109.372 82.188,85.312 		"/>
	</g>
</g>
</svg>
