<?xml version="1.0" encoding="utf-8"?>
<!-- Generator: Adobe Illustrator 16.0.0, SVG Export Plug-In . SVG Version: 6.00 Build 0)  -->
<!DOCTYPE svg PUBLIC "-//W3C//DTD SVG 1.1//EN" "http://www.w3.org/Graphics/SVG/1.1/DTD/svg11.dtd">
<svg version="1.1" id="Layer_1" xmlns="http://www.w3.org/2000/svg" xmlns:xlink="http://www.w3.org/1999/xlink" x="0px" y="0px"
	 width="136.914px" height="136.913px" viewBox="0 0 136.914 136.913" enable-background="new 0 0 136.914 136.913"
	 xml:space="preserve">
<g>
	<g>
		<path fill="#4371B7" d="M91.876,47.938l28.492-15.742c1.146,1.635,2.214,3.328,3.203,5.072
			C112.688,18.078,92.092,5.123,68.456,5.123C81.921,5.123,88.778,24.852,91.876,47.938z"/>
		<path fill="#4371B7" d="M131.77,69.266L90.894,91.732c-3.139,22.912-9.048,40.057-22.438,40.057
			c34.979,0,63.334-28.355,63.334-63.332C131.79,68.729,131.772,68.996,131.77,69.266z"/>
		<path fill="#F8D12E" d="M93.463,83.324c-0.216,2.465-0.492,4.896-0.819,7.283l39.126-21.342c0.003-0.27,0.021-0.537,0.021-0.809
			c0-0.998-0.029-1.99-0.075-2.979c-0.046-0.928-0.114-1.852-0.196-2.771c-0.004-0.045-0.006-0.09-0.01-0.133L93.463,83.324z"/>
		<path fill="#F8D12E" d="M91.918,47.666c0.285,2.115,0.528,4.264,0.726,6.441l30.935-16.828c-0.003-0.004-0.005-0.008-0.005-0.008
			c-0.991-1.748-2.059-3.441-3.205-5.076L91.918,47.666z"/>
		<path fill="#DC1F28" d="M92.977,54.004c0.503,10.072,0.892,19.891,0.042,29.604l38.49-21.033
			c-0.001-0.006-0.002-0.012-0.002-0.018c-0.844-9.125-3.625-17.682-7.926-25.271c0,0-0.002-0.004,0.372-0.381L92.977,54.004z"/>
		<path fill="#4371B7" d="M131.519,62.707c0.082,0.92,0.15,1.844,0.196,2.771C131.672,64.549,131.601,63.627,131.519,62.707z"/>
		<path fill="#4371B7" d="M123.581,37.285c4.301,7.59,7.082,16.146,7.926,25.271C130.663,53.432,127.882,44.873,123.581,37.285z"/>
		<path fill="#F8D12E" d="M131.519,62.707c-0.004-0.045-0.006-0.09-0.01-0.135v0.002C131.513,62.617,131.515,62.662,131.519,62.707z
			"/>
		<path fill="#F8D12E" d="M131.715,65.479c0.046,0.988,0.075,1.98,0.075,2.979C131.79,67.459,131.764,66.467,131.715,65.479z"/>
		<polygon fill="#F8D12E" points="123.578,37.279 123.573,37.271 123.578,37.279 		"/>
		<polygon fill="#DC1F28" points="123.581,37.285 123.578,37.279 123.578,37.279 		"/>
		<path fill="#DC1F28" d="M131.509,62.572c0,0-0.002-0.01-0.002-0.016c0,0.006,0.001,0.012,0.002,0.018V62.572z"/>
		<path fill="#4371B7" d="M32.099,120.297c-0.903-0.635-1.789-1.293-2.657-1.973C30.31,119.004,31.194,119.662,32.099,120.297z"/>
		<path fill="#467EC0" d="M93.242,90.311L34.915,122.17c-0.941-0.59-1.865-1.203-2.772-1.84
			c10.283,7.213,22.799,11.459,36.313,11.459C81.846,131.789,90.104,113.223,93.242,90.311z"/>
		<path fill="#467EC0" d="M5.124,68.457c0,19.055,8.428,36.131,21.746,47.742c-5.863-5.109-10.775-11.277-14.438-18.211
			c-0.934-1.768-1.787-3.582-2.553-5.441l83.414-45.563C90.196,23.896,81.921,5.123,68.456,5.123
			C33.479,5.123,5.124,33.477,5.124,68.457z"/>
		<path fill="#4371B7" d="M29.439,118.322c-0.875-0.684-1.731-1.393-2.568-2.121C27.708,116.93,28.564,117.637,29.439,118.322z"/>
		<path fill="#4371B7" d="M32.143,120.33c-0.015-0.012-0.03-0.021-0.044-0.033C32.112,120.309,32.128,120.318,32.143,120.33z"/>
		<polygon fill="#4371B7" points="29.44,118.324 29.441,118.324 29.44,118.324 		"/>
		<path fill="#F8D852" d="M29.44,118.324L29.44,118.324c0.869,0.68,1.755,1.338,2.658,1.973c0.014,0.012,0.029,0.021,0.044,0.033
			c0.907,0.637,1.831,1.25,2.772,1.84l58.327-31.859c0.327-2.387,0.604-4.818,0.819-7.283L29.44,118.324z"/>
		<path fill="#F8D852" d="M93.294,46.984L9.88,92.547c0.766,1.859,1.619,3.674,2.553,5.441L94.02,53.424
			C93.822,51.248,93.579,49.1,93.294,46.984z"/>
		<polygon fill="#4371B7" points="29.439,118.322 29.44,118.324 29.44,118.324 		"/>
		<path fill="#4371B7" d="M26.871,116.201l-0.001-0.002L26.871,116.201z"/>
		<path fill="#E31C42" d="M94.062,83.027c0.85-9.713,0.835-19.906-0.042-29.604L12.433,97.988
			c3.662,6.934,8.574,13.102,14.438,18.211l0.001,0.002c0.837,0.729,1.693,1.438,2.568,2.121l0.001,0.002L94.062,83.027z"/>
	</g>
	<polygon fill="#F8D12E" points="42.002,24.559 46.221,37.543 59.874,37.543 48.828,45.566 53.047,58.551 42.002,50.527 
		30.957,58.551 35.175,45.566 24.13,37.543 37.783,37.543 	"/>
</g>
</svg>
