<?xml version="1.0" encoding="utf-8"?>
<!-- Generator: Adobe Illustrator 16.0.0, SVG Export Plug-In . SVG Version: 6.00 Build 0)  -->
<!DOCTYPE svg PUBLIC "-//W3C//DTD SVG 1.1//EN" "http://www.w3.org/Graphics/SVG/1.1/DTD/svg11.dtd">
<svg version="1.1" id="Layer_1" xmlns="http://www.w3.org/2000/svg" xmlns:xlink="http://www.w3.org/1999/xlink" x="0px" y="0px"
	 width="136.913px" height="136.914px" viewBox="0 0 136.913 136.914" enable-background="new 0 0 136.913 136.914"
	 xml:space="preserve">
<g>
	<path fill="#518D51" d="M89.57,8.743l-7.391,20.49c6.822,22.516,6.822,55.932,0,78.447l7.391,20.49
		c24.596-8.697,42.219-32.143,42.219-59.715C131.789,40.886,114.166,17.44,89.57,8.743z"/>
	<path fill="#F3C515" d="M89.57,29.233V8.743c-6.605-2.336-13.709-3.619-21.115-3.619C78.221,5.124,64.68,38.222,89.57,29.233z"/>
	<path fill="#F3C515" d="M68.455,131.79c7.406,0,14.51-1.283,21.115-3.619v-20.49C64.93,105.222,68.455,131.79,68.455,131.79z"/>
	<path fill="#DB2727" d="M5.123,68.456c0,27.664,17.744,51.172,42.465,59.799V8.659C22.867,17.286,5.123,40.794,5.123,68.456z"/>
	<path fill="#5FA15E" d="M89.57,29.233v78.447C96.393,85.165,96.393,51.749,89.57,29.233z"/>
	<path fill="#F8D12E" d="M89.57,107.681V29.233C85.258,15.001,78.221,5.124,68.455,5.124c-7.314,0-14.33,1.256-20.867,3.535v119.596
		c6.537,2.281,13.553,3.535,20.867,3.535C78.221,131.79,85.258,121.913,89.57,107.681z"/>
</g>
</svg>
