<?xml version="1.0" encoding="utf-8"?>
<!-- Generator: Adobe Illustrator 16.0.0, SVG Export Plug-In . SVG Version: 6.00 Build 0)  -->
<!DOCTYPE svg PUBLIC "-//W3C//DTD SVG 1.1//EN" "http://www.w3.org/Graphics/SVG/1.1/DTD/svg11.dtd">
<svg version="1.1" id="Layer_1" xmlns="http://www.w3.org/2000/svg" xmlns:xlink="http://www.w3.org/1999/xlink" x="0px" y="0px"
	 width="136.914px" height="136.913px" viewBox="0 0 136.914 136.913" enable-background="new 0 0 136.914 136.913"
	 xml:space="preserve">
<g>
	<path fill="#3DAAE0" d="M91.967,68.457h39.823c0-34.98-28.355-63.334-63.334-63.334C85.945,5.123,91.968,36.791,91.967,68.457z"/>
	<path fill="#44C1EF" d="M5.124,68.457h89.565C94.69,36.791,85.945,5.123,68.456,5.123C33.479,5.123,5.124,33.477,5.124,68.457z"/>
	<path fill="#E8BD1F" d="M90.634,68.457c0,31.666-4.688,63.332-22.178,63.332c34.979,0,63.334-28.355,63.334-63.332H90.634z"/>
	<path fill="#FDCE0C" d="M94.689,68.457H5.124c0,34.977,28.355,63.332,63.332,63.332C85.945,131.789,94.689,100.123,94.689,68.457z"
		/>
</g>
</svg>
