<?xml version="1.0" encoding="utf-8"?>
<!-- Generator: Adobe Illustrator 16.0.0, SVG Export Plug-In . SVG Version: 6.00 Build 0)  -->
<!DOCTYPE svg PUBLIC "-//W3C//DTD SVG 1.1//EN" "http://www.w3.org/Graphics/SVG/1.1/DTD/svg11.dtd">
<svg version="1.1" id="Layer_1" xmlns="http://www.w3.org/2000/svg" xmlns:xlink="http://www.w3.org/1999/xlink" x="0px" y="0px"
	 width="136.366px" height="135.463px" viewBox="0 0 136.366 135.463" enable-background="new 0 0 136.366 135.463"
	 xml:space="preserve">
<g>
	<path fill="#C42B27" d="M89.298,8.018l-7.391,20.49c6.822,22.516,6.822,55.931,0,78.447l7.391,20.49
		c24.595-8.697,42.219-32.143,42.219-59.714C131.517,40.161,113.893,16.715,89.298,8.018z"/>
	<path fill="#E1B623" d="M89.298,28.508V8.018c-6.605-2.336-13.709-3.619-21.115-3.619C77.948,4.399,64.407,37.497,89.298,28.508z"
		/>
	<path fill="#E1B623" d="M68.183,131.064c7.406,0,14.51-1.283,21.115-3.619v-20.49C64.657,104.496,68.183,131.064,68.183,131.064z"
		/>
	<path fill="#14477D" d="M4.85,67.731c0,27.664,17.744,51.171,42.466,59.798V7.934C22.594,16.561,4.85,40.069,4.85,67.731z"/>
	<path fill="#E73B36" d="M89.298,28.508v78.447C96.12,84.439,96.12,51.024,89.298,28.508z"/>
	<path fill="#FFD72E" d="M89.298,106.955V28.508C84.985,14.276,77.948,4.399,68.183,4.399c-7.314,0-14.331,1.256-20.867,3.535
		v119.595c6.536,2.281,13.553,3.535,20.867,3.535C77.948,131.064,84.985,121.188,89.298,106.955z"/>
</g>
</svg>
