<?xml version="1.0" encoding="utf-8"?>
<!-- Generator: Adobe Illustrator 16.0.0, SVG Export Plug-In . SVG Version: 6.00 Build 0)  -->
<!DOCTYPE svg PUBLIC "-//W3C//DTD SVG 1.1//EN" "http://www.w3.org/Graphics/SVG/1.1/DTD/svg11.dtd">
<svg version="1.1" id="Layer_1" xmlns="http://www.w3.org/2000/svg" xmlns:xlink="http://www.w3.org/1999/xlink" x="0px" y="0px"
	 width="136.914px" height="136.914px" viewBox="0 0 136.914 136.914" enable-background="new 0 0 136.914 136.914"
	 xml:space="preserve">
<g>
	<g>
		<g>
			<circle fill="#FFFFFF" cx="68.47" cy="68.459" r="63.333"/>
		</g>
		<g>
			<path fill="#E4E4E4" d="M128.184,47.341H89.162c1.694,13.53,1.705,28.436,0.032,41.983h39.073
				c2.28-6.535,3.535-13.553,3.535-20.865C131.803,61.051,130.52,53.947,128.184,47.341z"/>
			<path fill="#C42B27" d="M89.162,47.341h39.021c-0.007-0.02-0.013-0.037-0.02-0.055c-8.106-22.855-28.955-39.67-54.006-41.902
				C83.852,10.699,86.683,27.535,89.162,47.341z"/>
			<path fill="#0B0B0B" d="M74.158,131.529c25.096-2.236,45.975-19.109,54.049-42.025c0.021-0.061,0.039-0.121,0.061-0.18H89.194
				C86.735,109.238,83.893,126.193,74.158,131.529z"/>
			<path fill="#F3F4F5" d="M5.137,68.459c0,7.313,1.255,14.33,3.535,20.865h83.783c1.673-13.547,1.662-28.453-0.032-41.983H8.756
				C6.42,53.947,5.137,61.051,5.137,68.459z"/>
			<path fill="#CC3434" d="M8.775,47.287c-0.007,0.018-0.013,0.035-0.02,0.055h83.667c-2.479-19.807-8.571-36.643-18.265-41.957
				c-1.875-0.166-3.771-0.26-5.689-0.26C40.918,5.125,17.487,22.72,8.775,47.287z"/>
			<path fill="#151515" d="M92.455,89.324H8.672c0.021,0.059,0.04,0.119,0.061,0.18c8.678,24.629,32.14,42.287,59.736,42.287
				c1.918,0,3.814-0.094,5.689-0.262C83.893,126.193,89.996,109.238,92.455,89.324z"/>
		</g>
	</g>
	<g>
		<path fill="#0D8C45" d="M68.444,68.598L12.655,38.595h-0.002c-4.812,8.93-7.542,19.147-7.542,30.002
			c0,10.762,2.692,20.895,7.43,29.77l55.903-29.76"/>
	</g>
</g>
</svg>
