<?xml version="1.0" encoding="utf-8"?>
<!-- Generator: Adobe Illustrator 16.0.0, SVG Export Plug-In . SVG Version: 6.00 Build 0)  -->
<!DOCTYPE svg PUBLIC "-//W3C//DTD SVG 1.1//EN" "http://www.w3.org/Graphics/SVG/1.1/DTD/svg11.dtd">
<svg version="1.1" id="Layer_1" xmlns="http://www.w3.org/2000/svg" xmlns:xlink="http://www.w3.org/1999/xlink" x="0px" y="0px"
	 width="136.913px" height="136.914px" viewBox="0 0 136.913 136.914" enable-background="new 0 0 136.913 136.914"
	 xml:space="preserve">
<g>
	<path fill="#EFECEC" d="M84.515,27.176c14.875,7.328,29.445,22.451,29.91,40.045h17.334c-0.662-34.408-28.738-62.098-63.303-62.098
		C77.634,5.124,80.177,14.056,84.515,27.176z"/>
	<path fill="#D32027" d="M88.743,27.176c3.725,11.263,2.811,25.611,2.938,40.045h22.744C113.96,49.627,103.618,34.504,88.743,27.176
		z"/>
	<path fill="#D32027" d="M131.759,67.222h-17.334c0.01,0.412,0.031,0.821,0.031,1.235c0,18.068-13.785,33.408-28.941,40.932
		c-4.32,13.154-7.756,22.401-17.059,22.401c34.979,0,63.334-28.355,63.334-63.333C131.79,68.043,131.767,67.634,131.759,67.222z"/>
	<path fill="#EFECEC" d="M88.878,109.675c15.156-7.523,25.578-23.15,25.578-41.218c0-0.414-0.021-0.824-0.031-1.235H91.681
		C91.813,82.453,92.784,97.779,88.878,109.675z"/>
	<path fill="#F3F4F5" d="M5.155,67.222h17.334c0.656-24.833,20.977-44.764,45.967-44.764c7.285,0,14.168,1.704,20.287,4.719
		C84.405,14.056,77.634,5.124,68.456,5.124C33.894,5.124,5.815,32.814,5.155,67.222z"/>
	<path fill="#E73B36" d="M88.743,27.176c-6.119-3.015-13.002-4.719-20.287-4.719c-24.99,0-45.311,19.931-45.967,44.764h72.033
		C94.396,52.788,92.468,38.439,88.743,27.176z"/>
	<path fill="#E73B36" d="M88.878,109.675c-6.154,3.055-13.086,4.781-20.422,4.781c-25.404,0-45.998-20.595-45.998-45.999
		c0-0.414,0.02-0.824,0.031-1.235H5.155c-0.008,0.413-0.031,0.821-0.031,1.236c0,34.977,28.355,63.333,63.332,63.333
		C77.759,131.79,84.558,122.829,88.878,109.675z"/>
	<path fill="#F3F4F5" d="M94.522,67.222H22.489c-0.012,0.412-0.031,0.821-0.031,1.235c0,25.404,20.594,45.999,45.998,45.999
		c7.336,0,14.268-1.727,20.422-4.781C92.784,97.779,94.655,82.453,94.522,67.222z"/>
</g>
</svg>
