<?xml version="1.0" encoding="utf-8"?>
<!-- Generator: Adobe Illustrator 16.0.0, SVG Export Plug-In . SVG Version: 6.00 Build 0)  -->
<!DOCTYPE svg PUBLIC "-//W3C//DTD SVG 1.1//EN" "http://www.w3.org/Graphics/SVG/1.1/DTD/svg11.dtd">
<svg version="1.1" id="Layer_1" xmlns="http://www.w3.org/2000/svg" xmlns:xlink="http://www.w3.org/1999/xlink" x="0px" y="0px"
	 width="136.913px" height="136.914px" viewBox="0 0 136.913 136.914" enable-background="new 0 0 136.913 136.914"
	 xml:space="preserve">
<g>
	<g>
		<path fill="#252F6B" d="M68.455,5.124v126.666c34.979,0,63.334-28.355,63.334-63.332C131.789,33.477,103.434,5.124,68.455,5.124z"
			/>
		<path fill="#273375" d="M68.455,5.124c-34.977,0-63.332,28.354-63.332,63.333c0,34.977,28.355,63.332,63.332,63.332
			C103.434,131.789,103.434,5.124,68.455,5.124z"/>
	</g>
	<polygon fill="#F3F4F5" points="48.557,102.209 52.828,96.885 46.23,98.08 43.941,91.689 41.453,98.08 34.717,96.885 
		38.998,102.092 34.553,107.293 41.328,106.229 43.613,112.488 46.102,106.232 53.012,107.467 	"/>
	<polygon fill="#F3F4F5" points="99.039,106.912 101.461,103.895 97.721,104.572 96.424,100.951 95.014,104.572 91.197,103.895 
		93.623,106.844 91.105,109.793 94.943,109.189 96.238,112.734 97.648,109.191 101.564,109.891 	"/>
	<polygon fill="#F3F4F5" points="99.039,40.245 101.461,37.227 97.721,37.905 96.424,34.284 95.014,37.905 91.197,37.227 
		93.623,40.178 91.105,43.125 94.943,42.522 96.238,46.069 97.648,42.524 101.564,43.223 	"/>
	<polygon fill="#F3F4F5" points="114.707,57.491 117.127,54.473 113.389,55.151 112.092,51.53 110.682,55.151 106.863,54.473 
		109.289,57.424 106.771,60.372 110.609,59.768 111.904,63.315 113.314,59.77 117.23,60.469 	"/>
	<polygon fill="#F3F4F5" points="85.486,65.158 87.908,62.141 84.168,62.819 82.871,59.198 81.461,62.819 77.645,62.141 
		80.07,65.09 77.553,68.039 81.391,67.436 82.686,70.98 84.096,67.438 88.012,68.137 	"/>
	<g>
		<polygon fill="none" points="68.457,64.465 69.906,65.914 68.457,64.465 		"/>
		<polygon fill="none" points="68.457,7.739 68.457,7.737 51.129,25.063 		"/>
		<path fill="none" d="M68.457,68.457v-0.855c-0.266,0.291-0.541,0.572-0.813,0.855H68.457z"/>
		<polygon fill="none" points="57.814,53.825 68.457,64.465 68.457,64.465 54.668,50.676 		"/>
		
			<rect x="13.132" y="61.141" transform="matrix(0.7071 -0.7071 0.7071 0.7071 -36.356 34.5086)" fill="none" width="20.694" height="0"/>
		<polygon fill="none" points="68.457,16.379 68.457,16.379 48.088,36.747 		"/>
		<polygon fill="none" points="30.906,53.713 33.943,50.676 30.906,53.713 		"/>
		<path fill="#29337A" d="M18.424,29.649c-0.994,1.281-1.943,2.596-2.84,3.951h6.789L18.424,29.649z"/>
		<polygon fill="#29337A" points="51.129,68.457 57.23,68.457 51.129,62.356 		"/>
		<path fill="#29337A" d="M30.906,17.461c-1.453,1.072-2.852,2.209-4.207,3.398l4.207,4.205V17.461z"/>
		<polygon fill="#29337A" points="24.803,68.457 30.906,68.457 30.906,62.354 		"/>
		<path fill="#29337A" d="M68.455,5.124c-6.01,0-11.816,0.855-17.326,2.42v17.52L68.457,7.737V5.124H68.455z"/>
		<polygon fill="#29337A" points="68.457,62.618 68.457,53.825 59.664,53.825 		"/>
		<path fill="#29337A" d="M7.736,68.457l14.635-14.632H6.842c-1.113,4.699-1.719,9.594-1.719,14.632H7.736z"/>
		<polygon fill="#29337A" points="59.658,33.6 68.457,33.6 68.457,24.803 		"/>
		<polygon fill="#FFFFFF" points="68.457,64.465 68.457,62.618 59.664,53.825 68.457,53.825 68.457,50.676 54.668,50.676 		"/>
		<path fill="#FFFFFF" d="M22.373,33.6h-6.789c-0.678,1.027-1.322,2.078-1.941,3.146H26.98l-7.916-7.914
			c-0.217,0.27-0.43,0.543-0.641,0.816L22.373,33.6z"/>
		<polygon fill="#FFFFFF" points="30.906,62.354 30.906,68.457 34.053,68.457 34.053,57.747 23.344,68.457 24.803,68.457 		"/>
		<path fill="#FFFFFF" d="M51.129,7.543c-1.061,0.301-2.109,0.629-3.146,0.982v21.146L68.457,9.198V7.739L51.129,25.063V7.543z"/>
		<path fill="#FFFFFF" d="M30.795,53.825l0.111-0.111l0,0l3.037-3.037H7.672c-0.303,1.039-0.58,2.088-0.83,3.148h15.529
			L7.736,68.457h8.426L30.795,53.825L30.795,53.825z"/>
		<polygon fill="#FFFFFF" points="7.736,68.457 22.371,53.825 7.736,68.457 		"/>
		<polygon fill="#FFFFFF" points="68.457,36.747 68.457,33.6 59.658,33.6 68.457,24.803 68.457,16.379 48.088,36.747 		"/>
		<polygon fill="#FFFFFF" points="68.457,24.803 59.658,33.6 68.457,24.803 		"/>
		<path fill="#FFFFFF" d="M30.906,25.065l-4.207-4.205c-1.492,1.311-2.924,2.691-4.287,4.137l8.494,8.494l0,0l0.09,0.092
			l3.057,3.057V15.293c-1.07,0.695-2.123,1.412-3.146,2.168V25.065z"/>
		<polygon fill="#FFFFFF" points="51.129,62.356 57.23,68.457 65.268,68.457 47.982,51.172 47.982,68.457 51.129,68.457 		"/>
		<rect x="30.851" y="53.69" fill="#D32030" width="0" height="0.157"/>
		
			<rect x="30.772" y="53.769" transform="matrix(0.7071 -0.7071 0.7071 0.7071 -28.9845 37.5632)" fill="#D32030" width="0.157" height="0"/>
		<polygon fill="#D32030" points="30.906,33.491 30.996,33.583 30.906,33.491 		"/>
		<path fill="#D32030" d="M57.814,53.825l-3.146-3.148h13.789v-13.93H48.088l-0.105,0.107v-0.107h0.105l20.369-20.367V9.198
			L47.982,29.672V8.526c-4.949,1.691-9.619,3.973-13.93,6.768v21.346l0.109,0.107h-0.109v-0.107l-3.057-3.057l0.018,0.018h-0.107
			v-0.109l-8.494-8.494c-1.166,1.234-2.283,2.512-3.348,3.836l7.916,7.914H13.643c-2.52,4.344-4.535,9.012-5.971,13.93h26.271
			l0.109-0.111v0.111h-0.109l-3.037,3.037v0.111h-0.111L16.162,68.457h7.182l10.709-10.71v10.71h13.93V51.172l17.285,17.285h2.377
			c0.271-0.283,0.547-0.564,0.813-0.855v-3.137L57.814,53.825z"/>
		<polygon fill="#D32030" points="47.982,29.672 68.457,9.198 68.457,9.198 		"/>
		<polygon fill="#D32030" points="30.906,53.825 30.906,53.713 30.795,53.825 		"/>
		<polygon fill="#D32030" points="34.053,50.565 33.943,50.676 34.053,50.676 		"/>
		<polygon fill="#D32030" points="47.982,36.854 48.088,36.747 47.982,36.747 		"/>
		<polygon fill="#D32030" points="30.906,33.6 31.014,33.6 30.996,33.583 30.906,33.491 		"/>
		<polygon fill="#D32030" points="34.162,36.747 34.053,36.639 34.053,36.747 		"/>
	</g>
</g>
</svg>
