<?xml version="1.0" encoding="utf-8"?>
<!-- Generator: Adobe Illustrator 16.0.0, SVG Export Plug-In . SVG Version: 6.00 Build 0)  -->
<!DOCTYPE svg PUBLIC "-//W3C//DTD SVG 1.1//EN" "http://www.w3.org/Graphics/SVG/1.1/DTD/svg11.dtd">
<svg version="1.1" id="Layer_1" xmlns="http://www.w3.org/2000/svg" xmlns:xlink="http://www.w3.org/1999/xlink" x="0px" y="0px"
	 width="136.913px" height="136.914px" viewBox="0 0 136.913 136.914" enable-background="new 0 0 136.913 136.914"
	 xml:space="preserve">
<g>
	<path fill="#518D51" d="M89.115,9.65l-7.391,20.492c6.822,22.514,6.822,55.93,0,78.445l7.391,20.49
		c24.594-8.697,42.219-32.141,42.219-59.715C131.334,41.792,113.709,18.347,89.115,9.65z"/>
	<path fill="#E4E4E4" d="M89.115,30.142V9.65C82.51,7.314,75.406,6.031,68,6.031C77.766,6.031,64.225,39.128,89.115,30.142z"/>
	<path fill="#E4E4E4" d="M68,132.697c7.406,0,14.51-1.283,21.115-3.619v-20.49C64.475,106.128,68,132.697,68,132.697z"/>
	<path fill="#589F58" d="M4.666,69.363c0,27.666,17.744,51.174,42.467,59.799V9.568C22.41,18.195,4.666,41.701,4.666,69.363z"/>
	<path fill="#589F58" d="M89.115,30.142v78.445C95.938,86.072,95.938,52.656,89.115,30.142z"/>
	<path fill="#F3F4F5" d="M89.115,108.587V30.142C84.803,15.908,77.766,6.031,68,6.031c-7.314,0-14.332,1.256-20.867,3.537v119.594
		c6.535,2.281,13.553,3.535,20.867,3.535C77.766,132.697,84.803,122.82,89.115,108.587z"/>
</g>
</svg>
