<?xml version="1.0" encoding="utf-8"?>
<!-- Generator: Adobe Illustrator 16.0.0, SVG Export Plug-In . SVG Version: 6.00 Build 0)  -->
<!DOCTYPE svg PUBLIC "-//W3C//DTD SVG 1.1//EN" "http://www.w3.org/Graphics/SVG/1.1/DTD/svg11.dtd">
<svg version="1.1" id="Layer_1" xmlns="http://www.w3.org/2000/svg" xmlns:xlink="http://www.w3.org/1999/xlink" x="0px" y="0px"
	 width="136.914px" height="136.913px" viewBox="0 0 136.914 136.913" enable-background="new 0 0 136.914 136.913"
	 xml:space="preserve">
<g>
	<g>
		<circle fill="#FFFFFF" cx="68.457" cy="68.457" r="63.333"/>
	</g>
	<g>
		<path fill="#0B0B0B" d="M128.171,47.34H89.149c1.694,13.529,1.705,28.436,0.032,41.982h39.073
			c2.28-6.535,3.535-13.553,3.535-20.865C131.79,61.049,130.507,53.945,128.171,47.34z"/>
		<path fill="#338BC1" d="M89.149,47.34h39.021c-0.007-0.02-0.013-0.037-0.02-0.055C120.045,24.43,99.196,7.615,74.146,5.383
			C83.839,10.697,86.67,27.533,89.149,47.34z"/>
		<path fill="#E4E4E4" d="M74.146,131.527c25.096-2.236,45.975-19.109,54.049-42.025c0.021-0.061,0.039-0.121,0.061-0.18H89.182
			C86.723,109.236,83.88,126.191,74.146,131.527z"/>
		<path fill="#151515" d="M5.124,68.457c0,7.313,1.255,14.33,3.535,20.865h83.783c1.673-13.547,1.662-28.453-0.032-41.982H8.743
			C6.407,53.945,5.124,61.049,5.124,68.457z"/>
		<path fill="#3D91CF" d="M8.763,47.285c-0.007,0.018-0.013,0.035-0.02,0.055H92.41c-2.479-19.807-8.571-36.643-18.265-41.957
			c-1.875-0.166-3.771-0.26-5.689-0.26C40.905,5.123,17.475,22.719,8.763,47.285z"/>
		<path fill="#F3F4F5" d="M92.442,89.322H8.659c0.021,0.059,0.04,0.119,0.061,0.18c8.678,24.629,32.14,42.287,59.736,42.287
			c1.918,0,3.814-0.094,5.689-0.262C83.88,126.191,89.983,109.236,92.442,89.322z"/>
	</g>
</g>
</svg>
