<?xml version="1.0" encoding="utf-8"?>
<!-- Generator: Adobe Illustrator 16.0.0, SVG Export Plug-In . SVG Version: 6.00 Build 0)  -->
<!DOCTYPE svg PUBLIC "-//W3C//DTD SVG 1.1//EN" "http://www.w3.org/Graphics/SVG/1.1/DTD/svg11.dtd">
<svg version="1.1" id="Layer_1" xmlns="http://www.w3.org/2000/svg" xmlns:xlink="http://www.w3.org/1999/xlink" x="0px" y="0px"
	 width="136.602px" height="135.696px" viewBox="0 0 136.602 135.696" enable-background="new 0 0 136.602 135.696"
	 xml:space="preserve">
<g>
	<g>
		<g>
			<circle fill="#FFFFFF" cx="68.301" cy="67.849" r="63.333"/>
		</g>
		<g>
			<path fill="#EFECEC" d="M128.015,46.732c-0.007-0.02-0.013-0.037-0.02-0.056C119.889,23.822,99.04,7.008,73.989,4.775
				c9.693,5.314,12.524,22.15,15.004,41.957c1.694,13.529,1.705,28.436,0.032,41.982c-2.459,19.914-5.302,36.869-15.036,42.205
				c25.096-2.236,45.975-19.109,54.049-42.025c0.021-0.061,0.039-0.121,0.061-0.18c2.28-6.536,3.535-13.553,3.535-20.866
				C131.634,60.441,130.351,53.338,128.015,46.732z"/>
			<path fill="#F3F4F5" d="M92.254,46.732C89.774,26.926,83.683,10.09,73.989,4.775c-1.875-0.166-3.771-0.261-5.689-0.261
				c-27.551,0-50.981,17.597-59.693,42.162c-0.007,0.019-0.013,0.036-0.02,0.056c-2.336,6.605-3.619,13.709-3.619,21.116
				c0,7.313,1.255,14.33,3.535,20.866c0.021,0.059,0.04,0.119,0.061,0.18c8.678,24.629,32.14,42.287,59.736,42.287
				c1.918,0,3.814-0.094,5.689-0.262c9.734-5.336,15.838-22.291,18.297-42.205C93.959,75.168,93.948,60.262,92.254,46.732z"/>
		</g>
	</g>
	<g>
		<g>
			<path fill="#BE2126" d="M130.561,56.279H87.443c0.477,7.262,0.51,14.718,0.082,22h43.24c0.566-3.394,0.868-6.876,0.868-10.431
				C131.634,63.895,131.258,60.03,130.561,56.279z"/>
		</g>
		<path fill="#D32027" d="M93.146,56.279H62.525V4.784c-7.834,0.708-15.252,2.845-22,6.146v45.35H6.041
			c-0.697,3.751-1.073,7.615-1.073,11.569c0,3.555,0.302,7.037,0.868,10.431h34.689v46.486c6.748,3.301,14.166,5.438,22,6.146
			V78.279h30.703C93.656,70.997,93.623,63.541,93.146,56.279z"/>
	</g>
</g>
</svg>
