<?xml version="1.0" encoding="utf-8"?>
<!-- Generator: Adobe Illustrator 16.0.0, SVG Export Plug-In . SVG Version: 6.00 Build 0)  -->
<!DOCTYPE svg PUBLIC "-//W3C//DTD SVG 1.1//EN" "http://www.w3.org/Graphics/SVG/1.1/DTD/svg11.dtd">
<svg version="1.1" id="Layer_1" xmlns="http://www.w3.org/2000/svg" xmlns:xlink="http://www.w3.org/1999/xlink" x="0px" y="0px"
	 width="136.913px" height="136.913px" viewBox="0 0 136.913 136.913" enable-background="new 0 0 136.913 136.913"
	 xml:space="preserve">
<g>
	<g>
		<path fill="#D32027" d="M91.967,68.458h39.822c0-34.98-28.355-63.334-63.334-63.334C85.945,5.124,91.967,36.79,91.967,68.458z"/>
		<path fill="#DB2727" d="M5.123,68.458h89.566c0-31.668-8.744-63.334-26.234-63.334C33.479,5.124,5.123,33.478,5.123,68.458z"/>
		<path fill="#258F44" d="M90.633,68.458c0,31.666-4.688,63.332-22.178,63.332c34.979,0,63.334-28.355,63.334-63.332H90.633z"/>
		<path fill="#359846" d="M94.689,68.458H5.123c0,34.977,28.355,63.332,63.332,63.332C85.945,131.79,94.689,100.124,94.689,68.458z"
			/>
	</g>
	<polygon fill="#F8D12E" points="68.205,51.298 72.299,63.899 85.551,63.899 74.83,71.688 78.926,84.292 68.205,76.503 
		57.484,84.292 61.578,71.688 50.857,63.899 64.109,63.899 	"/>
</g>
</svg>
