<?xml version="1.0" encoding="utf-8"?>
<!-- Generator: Adobe Illustrator 16.0.0, SVG Export Plug-In . SVG Version: 6.00 Build 0)  -->
<!DOCTYPE svg PUBLIC "-//W3C//DTD SVG 1.1//EN" "http://www.w3.org/Graphics/SVG/1.1/DTD/svg11.dtd">
<svg version="1.1" id="Layer_1" xmlns="http://www.w3.org/2000/svg" xmlns:xlink="http://www.w3.org/1999/xlink" x="0px" y="0px"
	 width="136.913px" height="136.913px" viewBox="0 0 136.913 136.913" enable-background="new 0 0 136.913 136.913"
	 xml:space="preserve">
<g>
	<g>
		<path fill="#29337A" d="M16.277,32.571c-4.084,5.928-7.188,12.584-9.07,19.738h28.809L16.277,32.571z"/>
		<path fill="#29337A" d="M50.719,7.659c-7.297,2.125-14.055,5.516-20.006,9.939l20.006,20.006V7.659z"/>
		<path fill="#29337A" d="M32.201,120.372c5.582,3.906,11.818,6.93,18.518,8.881v-27.396L32.201,120.372z"/>
		<path fill="#29337A" d="M7.934,87.157c2.094,6.783,5.303,13.076,9.404,18.674l18.674-18.674H7.934z"/>
		<path fill="#FFFFFF" d="M17.322,31.101c-0.354,0.484-0.703,0.975-1.045,1.471L36.016,52.31H7.207
			c-0.467,1.777-0.848,3.588-1.162,5.424h37.912L17.322,31.101z"/>
		<path fill="#FFFFFF" d="M30.732,119.327c0.482,0.359,0.977,0.701,1.469,1.045l18.518-18.516v27.396
			c1.779,0.52,3.586,0.969,5.424,1.33V93.917L30.732,119.327z"/>
		<path fill="#FFFFFF" d="M6.527,81.733c0.393,1.838,0.857,3.648,1.406,5.424h28.078l-18.674,18.674
			c2.031,2.775,4.283,5.379,6.73,7.787l31.885-31.885H6.527z"/>
		<path fill="#FFFFFF" d="M50.719,7.659v29.945L30.713,17.599c-2.758,2.051-5.336,4.328-7.725,6.793l33.154,33.154V6.329
			C54.305,6.692,52.498,7.142,50.719,7.659z"/>
		<polygon fill="#D32030" points="50.719,86.966 50.529,87.157 50.719,87.157 		"/>
		<polygon fill="#D32030" points="55.953,81.733 56.143,81.733 56.143,81.542 		"/>
		<polygon fill="#D32030" points="80.326,57.733 80.143,57.733 80.143,57.917 		"/>
		<polygon fill="#D32030" points="50.906,52.31 50.719,52.122 50.719,52.31 		"/>
		<polygon fill="#D32030" points="56.143,57.546 56.143,57.733 56.33,57.733 		"/>
	</g>
	<g>
		<path fill="#252F6C" d="M85.566,115.233v14.197c6.787-1.9,13.115-4.895,18.775-8.797l-15.383-15.383
			C87.729,109.569,87.279,111.802,85.566,115.233z"/>
		<path fill="#252F6C" d="M89.039,34.13l16.793-16.793c-6.033-4.418-12.877-7.785-20.266-9.855v14.584
			C87.541,26.021,87.707,29.026,89.039,34.13z"/>
		<path fill="#252F6C" d="M119.314,106.2c4.229-5.689,7.525-12.111,9.666-19.043h-28.709L119.314,106.2z"/>
		<path fill="#252F6C" d="M129.705,52.31c-1.922-7.305-5.119-14.086-9.332-20.107L100.264,52.31H129.705z"/>
		<path fill="#E7E7E7" d="M92.736,82.806l4.352,4.352l20.832,20.832c0.473-0.592,0.943-1.182,1.395-1.789l-19.043-19.043h28.709
			c0.547-1.775,1.012-3.586,1.404-5.424H93.143C93.082,82.503,92.809,82.042,92.736,82.806z"/>
		<path fill="#E7E7E7" d="M88.381,37.306l18.881-18.883c-0.473-0.367-0.947-0.732-1.43-1.086L89.039,34.13
			C89.213,34.794,88.219,36.626,88.381,37.306z"/>
		<path fill="#E7E7E7" d="M85.566,20.899V7.481c-1.777-0.498-3.586-0.92-5.424-1.264v6.545C82.16,14.95,83.969,17.698,85.566,20.899
			z"/>
		<path fill="#E7E7E7" d="M92.309,57.733h38.559c-0.313-1.836-0.695-3.646-1.162-5.424h-29.441l20.109-20.107
			c-1.977-2.824-4.174-5.48-6.574-7.941L91.15,46.909C91.76,51.017,92.033,53.403,92.309,57.733z"/>
		<path fill="#E7E7E7" d="M88.043,104.333l16.299,16.301c2.711-1.867,5.264-3.945,7.646-6.201L90.549,92.993
			C89.865,96.958,89.053,100.788,88.043,104.333z"/>
		<path fill="#E7E7E7" d="M80.143,123.399v7.295c1.838-0.342,3.646-0.766,5.424-1.264v-14.197
			C83.969,118.435,82.16,121.214,80.143,123.399z"/>
		<path fill="#D71F28" d="M91.15,46.909l22.648-22.648c-2.039-2.094-4.225-4.043-6.537-5.838L89.465,36.222
			C90.256,39.528,90.615,43.312,91.15,46.909z"/>
		<path fill="#D32030" d="M65.295,5.202c1.055-0.051,2.107-0.078,3.16-0.078C67.396,5.124,66.342,5.151,65.295,5.202z"/>
		<path fill="#D32030" d="M68.455,131.79c-1.053,0-2.105-0.029-3.158-0.08C66.344,131.763,67.396,131.79,68.455,131.79z"/>
		<path fill="#D32030" d="M68.455,131.79c3.996,0,7.898-0.387,11.688-1.096v-7.295C76.816,127.005,72.924,131.79,68.455,131.79z"/>
		<path fill="#D71F28" d="M130.867,57.733H92.809c0.504,7.943,0.443,16.111-0.182,24h37.758c0.914-4.283,1.404-8.721,1.404-13.275
			C131.789,64.8,131.463,61.222,130.867,57.733z"/>
		<path fill="#D71F28" d="M92.736,82.806c-0.352,3.742-1.578,6.658-2.188,10.188l21.439,21.439c2.121-2.01,4.104-4.16,5.932-6.443
			L97.088,87.157L92.736,82.806z"/>
		<path fill="#D32030" d="M80.143,13.233V6.218c-3.789-0.707-7.691-1.094-11.688-1.094C72.924,5.124,76.816,9.628,80.143,13.233z"/>
		<path fill="#29337A" d="M85.566,117.972c1.713-3.432,3.182-7.383,4.412-11.701l-4.412-4.412V117.972z"/>
		<path fill="#29337A" d="M90.527,32.642c-1.334-5.104-2.986-9.744-4.961-13.699v18.658L90.527,32.642z"/>
		<path fill="#FFFFFF" d="M93.965,84.034c0.072-0.764,0.137-1.531,0.199-2.301h-2.5L93.965,84.034z"/>
		<path fill="#FFFFFF" d="M85.566,37.601V18.942c-1.598-3.201-3.406-5.951-5.424-8.137v34.738l10.893-10.893
			c-0.164-0.68-0.336-1.346-0.508-2.01L85.566,37.601z"/>
		<path fill="#FFFFFF" d="M80.326,57.733h14.02c-0.275-4.33-0.713-8.59-1.322-12.697L80.326,57.733z"/>
		<path fill="#FFFFFF" d="M80.143,126.108c2.018-2.188,3.826-4.936,5.424-8.137v-16.113l4.412,4.412
			c1.012-3.547,1.861-7.336,2.547-11.301L80.143,82.587V126.108z"/>
		<path fill="#E51D35" d="M80.143,126.108V82.587L92.525,94.97c0.609-3.531,1.088-7.193,1.439-10.936l-2.301-2.301h2.5
			c0.625-7.889,0.686-16.057,0.182-24h-14.02l12.697-12.697c-0.535-3.598-1.197-7.078-1.988-10.385L80.143,45.544V10.806
			C76.816,7.2,72.924,5.124,68.455,5.124c-1.053,0-2.105,0.027-3.16,0.078c-3.115,0.156-6.17,0.539-9.152,1.127v51.217
			L22.988,24.392c-2.037,2.102-3.932,4.342-5.666,6.709L38.531,52.31l5.426,5.424H6.045C5.451,61.222,5.123,64.8,5.123,68.458
			c0,4.555,0.492,8.992,1.404,13.275h49.426l-31.885,31.885c2.088,2.051,4.311,3.961,6.664,5.709l25.41-25.41v36.666
			c2.982,0.588,6.039,0.971,9.154,1.127c1.053,0.051,2.105,0.08,3.158,0.08C72.924,131.79,76.816,129.714,80.143,126.108z"/>
	</g>
</g>
</svg>
