<?xml version="1.0" encoding="utf-8"?>
<!-- Generator: Adobe Illustrator 16.0.0, SVG Export Plug-In . SVG Version: 6.00 Build 0)  -->
<!DOCTYPE svg PUBLIC "-//W3C//DTD SVG 1.1//EN" "http://www.w3.org/Graphics/SVG/1.1/DTD/svg11.dtd">
<svg version="1.1" id="Layer_1" xmlns="http://www.w3.org/2000/svg" xmlns:xlink="http://www.w3.org/1999/xlink" x="0px" y="0px"
	 width="136.366px" height="135.463px" viewBox="0 0 136.366 135.463" enable-background="new 0 0 136.366 135.463"
	 xml:space="preserve">
<g>
	<path fill="#F3F4F5" d="M4.85,67.732c0,22.938,12.195,43.027,30.455,54.141V13.591C17.045,24.703,4.85,44.793,4.85,67.732z"/>
	<g>
		<path fill="#036535" d="M68.182,4.398c0,0,23.516,86.297,24.487,87.268c6.404-0.574,12.674-3.199,17.739-7.926
			c4.067-3.797,6.836-8.467,8.295-13.443c-0.371,9.201-4.22,18.266-11.484,25.045c-4.986,4.654-10.938,7.627-17.158,8.949
			l-21.879,26.773c34.979,0,63.334-28.355,63.334-63.332C131.516,32.751,103.161,4.398,68.182,4.398z"/>
		<path fill="#036535" d="M66.132,131.029c-0.152-0.004-0.306-0.012-0.458-0.018C65.827,131.018,65.979,131.025,66.132,131.029z"/>
		<path fill="#036535" d="M65.674,4.451c0.152-0.006,0.306-0.012,0.458-0.016C65.979,4.439,65.827,4.445,65.674,4.451z"/>
		<path fill="#F3F4F5" d="M107.219,95.342c7.265-6.779,11.113-15.844,11.484-25.045c-1.459,4.977-4.228,9.646-8.295,13.443
			c-5.065,4.727-11.335,7.352-17.739,7.926c-0.675,4.426-1.542,8.672-2.608,12.625C96.281,102.969,102.233,99.996,107.219,95.342z"
			/>
		<path fill="#263778" d="M66.132,4.435c0.681-0.021,1.364-0.037,2.05-0.037C67.502,4.398,66.819,4.414,66.132,4.435z"/>
		<path fill="#263778" d="M68.182,131.064c-0.686,0-1.369-0.014-2.05-0.035C66.819,131.051,67.502,131.064,68.182,131.064z"/>
		<path fill="#0C723E" d="M90.061,104.291c-12.034,2.559-25.074-1.07-34.079-10.721C42.321,78.932,43.113,55.994,57.75,42.334
			c7.264-6.78,16.572-9.995,25.775-9.731c-5.066,1.111-9.914,3.551-13.982,7.348c-12.092,11.285-12.746,30.236-1.461,42.328
			c6.557,7.025,15.702,10.182,24.587,9.387c5.668-37.182-2.491-87.268-24.487-87.268c-0.686,0-1.369,0.016-2.05,0.037
			c-0.152,0.004-0.306,0.01-0.458,0.016C54.582,4.884,44.22,8.166,35.305,13.591v108.282c8.915,5.424,19.276,8.707,30.369,9.139
			c0.152,0.006,0.306,0.014,0.458,0.018c0.681,0.021,1.364,0.035,2.05,0.035C78.546,131.064,85.839,119.943,90.061,104.291z"/>
		<path fill="#F3F4F5" d="M68.083,82.279c-11.285-12.092-10.631-31.043,1.461-42.328c4.068-3.797,8.916-6.237,13.982-7.348
			c-9.203-0.264-18.512,2.951-25.775,9.731c-14.638,13.66-15.43,36.598-1.769,51.236c9.005,9.65,22.045,13.279,34.079,10.721
			c1.066-3.953,1.934-8.199,2.608-12.625C83.785,92.461,74.639,89.305,68.083,82.279z"/>
	</g>
	<polygon fill="#F3F4F5" points="99.244,40.963 104.463,46.92 111.743,43.797 107.688,50.602 112.909,56.561 105.183,54.809 
		101.129,61.613 100.407,53.727 92.684,51.973 99.964,48.85 	"/>
</g>
</svg>
