<?xml version="1.0" encoding="utf-8"?>
<!-- Generator: Adobe Illustrator 16.0.0, SVG Export Plug-In . SVG Version: 6.00 Build 0)  -->
<!DOCTYPE svg PUBLIC "-//W3C//DTD SVG 1.1//EN" "http://www.w3.org/Graphics/SVG/1.1/DTD/svg11.dtd">
<svg version="1.1" id="Layer_1" xmlns="http://www.w3.org/2000/svg" xmlns:xlink="http://www.w3.org/1999/xlink" x="0px" y="0px"
	 width="136.914px" height="136.914px" viewBox="0 0 136.914 136.914" enable-background="new 0 0 136.914 136.914"
	 xml:space="preserve">
<g>
	<g>
		<g>
			<circle fill="#FFFFFF" cx="68.457" cy="68.459" r="63.333"/>
		</g>
		<g>
			<path fill="#E4E4E4" d="M128.171,47.341c-0.007-0.02-0.013-0.037-0.02-0.055c-8.106-22.855-28.955-39.67-54.006-41.902
				c9.693,5.314,12.524,22.15,15.004,41.957c1.694,13.53,1.705,28.436,0.032,41.983c-2.459,19.914-5.302,36.869-15.036,42.205
				c25.096-2.236,45.975-19.109,54.049-42.025c0.021-0.061,0.039-0.121,0.061-0.18c2.28-6.535,3.535-13.553,3.535-20.865
				C131.79,61.051,130.507,53.947,128.171,47.341z"/>
			<path fill="#F3F4F5" d="M92.41,47.341c-2.479-19.807-8.571-36.643-18.265-41.957c-1.875-0.166-3.771-0.26-5.689-0.26
				c-27.551,0-50.981,17.596-59.693,42.162c-0.007,0.018-0.013,0.035-0.02,0.055c-2.336,6.605-3.619,13.709-3.619,21.118
				c0,7.313,1.255,14.33,3.535,20.865c0.021,0.059,0.04,0.119,0.061,0.18c8.678,24.629,32.14,42.287,59.736,42.287
				c1.918,0,3.814-0.094,5.689-0.262c9.734-5.336,15.838-22.291,18.297-42.205C94.115,75.777,94.104,60.871,92.41,47.341z"/>
		</g>
	</g>
	<g>
		<path fill="#254B97" d="M130.941,78.75c0.078-0.471,0.142-0.945,0.208-1.418c0.075-0.525,0.146-1.053,0.208-1.582
			c0.05-0.438,0.096-0.875,0.137-1.313c0.061-0.625,0.107-1.252,0.148-1.881c0.023-0.359,0.051-0.717,0.068-1.076
			c0.048-1.002,0.079-2.008,0.079-3.021c0-1.137-0.04-2.262-0.101-3.383c-0.02-0.367-0.051-0.73-0.077-1.098
			c-0.054-0.756-0.119-1.51-0.2-2.26c-0.045-0.414-0.092-0.826-0.145-1.238c-0.095-0.738-0.205-1.471-0.324-2.201
			c-0.06-0.363-0.112-0.73-0.178-1.092c-0.018-0.1-0.03-0.201-0.049-0.299h-0.013c-0.183-0.985-0.376-1.967-0.603-2.936h-26.495
			H90.58c0.063,0.973,0.096,1.957,0.146,2.936H87.6c0.477,7.262,0.51,14.719,0.082,22h3.113c-0.041,0.881-0.062,1.768-0.113,2.646
			h13.027h26.722c0.184-0.875,0.339-1.76,0.486-2.646h0.005C130.93,78.842,130.935,78.797,130.941,78.75z"/>
		<path fill="#3757A6" d="M93.303,56.889h-0.006c-0.051-0.979-0.083-1.963-0.146-2.936H65.217V5.207
			c-0.852,0.043-1.692,0.125-2.535,0.201V5.394c-0.145,0.014-0.286,0.035-0.43,0.049C61.664,5.5,61.08,5.57,60.498,5.642
			c-0.53,0.066-1.057,0.141-1.582,0.221c-0.559,0.084-1.116,0.168-1.67,0.268c-0.599,0.107-1.191,0.232-1.784,0.355
			c-0.481,0.102-0.966,0.191-1.442,0.303c-0.984,0.23-1.959,0.484-2.925,0.76c-0.42,0.121-0.833,0.254-1.249,0.383
			c-0.643,0.197-1.281,0.4-1.914,0.617c-0.418,0.143-0.834,0.293-1.248,0.445c-0.65,0.238-1.295,0.488-1.936,0.748
			c-0.364,0.146-0.73,0.291-1.091,0.445c-0.846,0.359-1.681,0.738-2.507,1.135c-0.143,0.068-0.287,0.129-0.429,0.197
			c-0.014,0.008-0.026,0.014-0.04,0.02v0.002c-1.031,0.504-2.048,1.033-3.047,1.592v40.82H6.813
			c-0.227,0.969-0.42,1.951-0.603,2.936H6.197c-0.019,0.098-0.031,0.199-0.049,0.299c-0.065,0.361-0.118,0.729-0.178,1.092
			c-0.119,0.73-0.229,1.463-0.324,2.201c-0.053,0.412-0.1,0.824-0.145,1.238c-0.081,0.75-0.146,1.504-0.2,2.26
			c-0.026,0.367-0.058,0.73-0.077,1.098c-0.061,1.121-0.101,2.246-0.101,3.383c0,1.014,0.031,2.02,0.079,3.02
			c0.018,0.361,0.045,0.721,0.068,1.08c0.041,0.627,0.088,1.254,0.148,1.877c0.041,0.439,0.087,0.879,0.137,1.314
			c0.063,0.529,0.133,1.055,0.207,1.58c0.067,0.475,0.131,0.949,0.209,1.42c0.007,0.047,0.012,0.092,0.02,0.139h0.005
			c0.147,0.887,0.303,1.771,0.486,2.646h31.151v42.248c0.999,0.557,2.016,1.086,3.047,1.59v0.002
			c0.004,0.002,0.008,0.004,0.013,0.006c0.206,0.102,0.42,0.191,0.628,0.289c0.763,0.363,1.532,0.715,2.312,1.047
			c0.382,0.164,0.768,0.316,1.152,0.471c0.622,0.252,1.247,0.494,1.88,0.727c0.423,0.156,0.848,0.309,1.275,0.455
			c0.628,0.215,1.264,0.416,1.9,0.613c0.417,0.127,0.83,0.262,1.251,0.383c0.98,0.279,1.97,0.539,2.97,0.771
			c0.449,0.105,0.906,0.189,1.359,0.283c0.609,0.129,1.219,0.256,1.835,0.365c0.544,0.098,1.093,0.182,1.642,0.266
			c0.535,0.08,1.072,0.156,1.612,0.223c0.576,0.072,1.153,0.141,1.734,0.197c0.146,0.016,0.29,0.037,0.437,0.051v-0.016
			c0.843,0.076,1.684,0.16,2.535,0.203V81.535h28.035c0.052-0.879,0.072-1.766,0.113-2.646h0.02
			C93.813,71.607,93.779,64.15,93.303,56.889z"/>
	</g>
</g>
</svg>
