<?xml version="1.0" encoding="utf-8"?>
<!-- Generator: Adobe Illustrator 16.0.0, SVG Export Plug-In . SVG Version: 6.00 Build 0)  -->
<!DOCTYPE svg PUBLIC "-//W3C//DTD SVG 1.1//EN" "http://www.w3.org/Graphics/SVG/1.1/DTD/svg11.dtd">
<svg version="1.1" id="Layer_1" xmlns="http://www.w3.org/2000/svg" xmlns:xlink="http://www.w3.org/1999/xlink" x="0px" y="0px"
	 width="136.913px" height="136.914px" viewBox="0 0 136.913 136.914" enable-background="new 0 0 136.913 136.914"
	 xml:space="preserve">
<g>
	<path fill="#518D51" d="M82.776,23.381l12.361-12.363c-8.109-3.773-17.146-5.895-26.682-5.895
		C75.94,5.123,78.493,14.262,82.776,23.381z"/>
	<path fill="#DB2727" d="M125.896,41.775L88.366,79.305c-0.805,30.064-3.268,52.484-19.91,52.484
		c34.979,0,63.334-28.355,63.334-63.332C131.79,58.922,129.669,49.887,125.896,41.775z"/>
	<path fill="#F3C515" d="M89.7,77.973l36.195-36.197c-6.297-13.531-17.227-24.461-30.758-30.758L81.179,24.979
		C87.386,38.195,90.226,58.373,89.7,77.973z"/>
	<path fill="#5C9A5C" d="M5.124,68.457c0,9.535,2.119,18.57,5.895,26.682l75.082-75.084C81.819,10.936,75.94,5.123,68.456,5.123
		C33.479,5.123,5.124,33.477,5.124,68.457z"/>
	<path fill="#E03736" d="M94.622,73.049l-52.846,52.846c8.109,3.775,17.145,5.895,26.68,5.895
		C85.099,131.789,93.817,103.113,94.622,73.049z"/>
	<path fill="#F8D12E" d="M86.101,20.055L11.019,95.139c6.297,13.531,17.227,24.461,30.758,30.756l52.846-52.846
		C95.147,53.449,92.308,33.273,86.101,20.055z"/>
</g>
</svg>
