<?xml version="1.0" encoding="utf-8"?>
<!-- Generator: Adobe Illustrator 16.0.0, SVG Export Plug-In . SVG Version: 6.00 Build 0)  -->
<!DOCTYPE svg PUBLIC "-//W3C//DTD SVG 1.1//EN" "http://www.w3.org/Graphics/SVG/1.1/DTD/svg11.dtd">
<svg version="1.1" id="Layer_1" xmlns="http://www.w3.org/2000/svg" xmlns:xlink="http://www.w3.org/1999/xlink" x="0px" y="0px"
	 width="136.914px" height="136.914px" viewBox="0 0 136.914 136.914" enable-background="new 0 0 136.914 136.914"
	 xml:space="preserve">
<g>
	<g>
		<path fill="#214391" d="M68.456,5.124V131.79c34.979,0,63.334-28.355,63.334-63.332C131.79,33.478,103.435,5.124,68.456,5.124z"/>
		<path fill="#2B479D" d="M68.456,5.124c-34.977,0-63.332,28.354-63.332,63.334c0,34.977,28.355,63.332,63.332,63.332
			C103.435,131.79,103.435,5.124,68.456,5.124z"/>
	</g>
	<g>
		<polygon fill="#F8D12E" points="68.348,16.108 69.893,20.862 74.893,20.862 70.848,23.8 72.393,28.554 68.348,25.614 
			64.304,28.554 65.849,23.8 61.803,20.862 66.803,20.862 		"/>
		<polygon fill="#F8D12E" points="68.348,105.854 69.893,110.61 74.893,110.61 70.848,113.548 72.393,118.302 68.348,115.364 
			64.304,118.302 65.849,113.548 61.803,110.61 66.803,110.61 		"/>
		<polygon fill="#F8D12E" points="92.979,24.062 94.523,28.817 99.523,28.817 95.478,31.757 97.023,36.511 92.979,33.571 
			88.934,36.511 90.479,31.757 86.435,28.817 91.435,28.817 		"/>
		<polygon fill="#F8D12E" points="109.784,40.642 111.328,45.396 116.328,45.396 112.283,48.335 113.828,53.089 109.784,50.151 
			105.739,53.089 107.284,48.335 103.239,45.396 108.238,45.396 		"/>
		<polygon fill="#F8D12E" points="110.184,82.532 111.728,87.288 116.728,87.288 112.683,90.226 114.229,94.979 110.184,92.042 
			106.139,94.979 107.684,90.226 103.639,87.288 108.639,87.288 		"/>
		<polygon fill="#F8D12E" points="27.521,40.642 29.065,45.396 34.064,45.396 30.02,48.335 31.564,53.089 27.521,50.151 
			23.476,53.089 25.021,48.335 20.977,45.396 25.977,45.396 		"/>
		<polygon fill="#F8D12E" points="113.679,60.62 115.223,65.374 120.223,65.374 116.178,68.312 117.723,73.067 113.679,70.13 
			109.634,73.067 111.18,68.312 107.134,65.374 112.133,65.374 		"/>
		<polygon fill="#F8D12E" points="23.701,60.62 25.245,65.374 30.244,65.374 26.199,68.312 27.745,73.067 23.701,70.13 
			19.656,73.067 21.201,68.312 17.156,65.374 22.156,65.374 		"/>
		<polygon fill="#F8D12E" points="26.979,82.532 28.523,87.288 33.522,87.288 29.478,90.226 31.022,94.979 26.979,92.042 
			22.934,94.979 24.479,90.226 20.434,87.288 25.434,87.288 		"/>
		<polygon fill="#F8D12E" points="93.704,99.819 95.248,104.573 100.248,104.573 96.202,107.513 97.748,112.267 93.704,109.329 
			89.658,112.267 91.204,107.513 87.159,104.573 92.159,104.573 		"/>
		<polygon fill="#F8D12E" points="44.515,24.062 46.059,28.817 51.059,28.817 47.014,31.757 48.56,36.511 44.515,33.571 
			40.471,36.511 42.016,31.757 37.971,28.817 42.97,28.817 		"/>
		<polygon fill="#F8D12E" points="42.691,99.515 44.236,104.271 49.236,104.271 45.191,107.208 46.736,111.962 42.691,109.026 
			38.647,111.962 40.192,107.208 36.147,104.271 41.146,104.271 		"/>
	</g>
</g>
</svg>
