<?xml version="1.0" encoding="utf-8"?>
<!-- Generator: Adobe Illustrator 16.0.0, SVG Export Plug-In . SVG Version: 6.00 Build 0)  -->
<!DOCTYPE svg PUBLIC "-//W3C//DTD SVG 1.1//EN" "http://www.w3.org/Graphics/SVG/1.1/DTD/svg11.dtd">
<svg version="1.1" id="Layer_1" xmlns="http://www.w3.org/2000/svg" xmlns:xlink="http://www.w3.org/1999/xlink" x="0px" y="0px"
	 width="136.913px" height="136.914px" viewBox="0 0 136.913 136.914" enable-background="new 0 0 136.913 136.914"
	 xml:space="preserve">
<path fill="#FFFFFF" d="M63.217,17.3c-0.687,0-1.366,0.029-2.047,0.051h4.095C64.583,17.33,63.903,17.3,63.217,17.3z"/>
<g>
	<g>
		<g>
			<circle fill="#FFFFFF" cx="68.462" cy="68.458" r="63.333"/>
		</g>
	</g>
	<g>
		<g>
			<circle fill="#FFFFFF" cx="68.462" cy="68.458" r="63.333"/>
		</g>
	</g>
	<g>
		<path fill="#DE2126" d="M87.27,81.089h43.264c0.826-4.082,1.262-8.305,1.262-12.631c0-4.334-0.438-8.563-1.266-12.652H87.27
			C87.896,64.134,87.896,72.761,87.27,81.089z"/>
		<path fill="#EFECEC" d="M130.518,55.741c-1.898-9.313-5.84-17.881-11.334-25.217H83.006c2.158,7.531,3.578,16.191,4.264,25.217
			H130.518z"/>
		<path fill="#DE2126" d="M83.006,30.458h36.125C107.959,15.585,90.389,5.808,70.51,5.175h-1.139
			C78.934,5.792,78.861,16.028,83.006,30.458z"/>
		<path fill="#DE2126" d="M68.461,131.79c20.666,0,39.016-9.902,50.576-25.215H83.006C78.725,121.397,78.477,131.79,68.461,131.79z"
			/>
		<path fill="#EFECEC" d="M119.145,106.438c5.531-7.369,9.492-15.982,11.387-25.346H87.289c-0.684,9.074-2.111,17.781-4.283,25.346
			H119.145z"/>
		<path fill="#FFFFFF" d="M68.461,131.79c-20.664,0-39.014-9.902-50.572-25.215h72.01c0.014-0.045,0.025-0.092,0.039-0.137H17.781
			C12.25,99.069,8.289,90.456,6.393,81.093h87.828c0-0.002,0-0.002,0-0.004H6.393c-0.826-4.082-1.264-8.305-1.264-12.631
			c0-4.334,0.438-8.563,1.268-12.652h87.822c-0.002-0.021-0.004-0.043-0.004-0.064H6.408c1.898-9.313,5.838-17.881,11.334-25.217
			h72.209c-0.006-0.021-0.012-0.045-0.02-0.066H17.795c11.172-14.873,28.74-24.65,48.619-25.283h2.957
			c-0.303-0.02-0.602-0.051-0.91-0.051"/>
		<path fill="#E73B36" d="M5.129,68.458c0,4.326,0.438,8.549,1.264,12.631h87.828c0.627-8.328,0.627-16.955-0.002-25.283H6.396
			C5.566,59.896,5.129,64.124,5.129,68.458z"/>
		<path fill="#EFEFEF" d="M6.408,55.741h87.807c-0.686-9.025-2.105-17.686-4.264-25.217H17.742
			C12.246,37.86,8.307,46.429,6.408,55.741z"/>
		<path fill="#E73B36" d="M17.795,30.458h72.137C85.787,16.028,78.934,5.792,69.371,5.175h-2.957
			C46.535,5.808,28.967,15.585,17.795,30.458z"/>
		<path fill="#E73B36" d="M68.461,131.79c10.016,0,17.158-10.393,21.438-25.215h-72.01C29.447,121.888,47.797,131.79,68.461,131.79z
			"/>
		<path fill="#EFEFEF" d="M17.781,106.438h72.156c2.172-7.564,3.6-16.271,4.283-25.346H6.393
			C8.289,90.456,12.25,99.069,17.781,106.438z"/>
	</g>
	<g>
		<path fill="#2A7CBB" d="M68.451,68.46l-55.789-30l-0.002-0.002c-4.813,8.93-7.543,19.146-7.543,30.002
			c0,10.764,2.693,20.895,7.43,29.771L68.451,68.47"/>
	</g>
	<polygon fill="#FFFFFF" points="24.547,52.712 27.855,62.894 38.561,62.894 29.9,69.185 33.209,79.366 24.547,73.075 
		15.887,79.366 19.195,69.185 10.533,62.894 21.24,62.894 	"/>
</g>
</svg>
