<?xml version="1.0" encoding="utf-8"?>
<!-- Generator: Adobe Illustrator 16.0.0, SVG Export Plug-In . SVG Version: 6.00 Build 0)  -->
<!DOCTYPE svg PUBLIC "-//W3C//DTD SVG 1.1//EN" "http://www.w3.org/Graphics/SVG/1.1/DTD/svg11.dtd">
<svg version="1.1" id="Layer_1" xmlns="http://www.w3.org/2000/svg" xmlns:xlink="http://www.w3.org/1999/xlink" x="0px" y="0px"
	 width="136.913px" height="136.914px" viewBox="0 0 136.913 136.914" enable-background="new 0 0 136.913 136.914"
	 xml:space="preserve">
<g>
	<path fill="#C42126" d="M68.455,131.789c20.264,0,38.289-9.525,49.881-24.332H84.98C80.674,121.811,78.271,131.789,68.455,131.789z
		"/>
	<path fill="#C42126" d="M64.699,131.68c-0.012,0-0.023-0.002-0.035-0.002C64.676,131.678,64.688,131.68,64.699,131.68z"/>
	<path fill="#C42126" d="M84.98,29.456h33.357C106.744,14.651,88.719,5.124,68.455,5.124C78.271,5.124,80.674,15.102,84.98,29.456z"
		/>
	<path fill="#C42126" d="M64.664,5.237c0.012,0,0.023-0.002,0.035-0.002C64.688,5.235,64.676,5.235,64.664,5.237z"/>
	<path fill="#FFC40C" d="M118.338,29.456H84.98c6.732,22.438,6.732,55.566,0,78.001h33.355c8.42-10.752,13.453-24.283,13.453-39
		C131.789,53.741,126.756,40.209,118.338,29.456z"/>
	<path fill="#C42126" d="M68.455,131.789c-1.26,0-2.512-0.037-3.756-0.109C65.961,131.75,67.215,131.789,68.455,131.789z"/>
	<path fill="#C42126" d="M64.699,5.235c1.244-0.074,2.496-0.111,3.756-0.111C67.215,5.124,65.961,5.165,64.699,5.235z"/>
	<path fill="#D32030" d="M89.639,107.457H18.576c10.863,13.877,27.379,23.115,46.088,24.221c0.012,0,0.023,0.002,0.035,0.002
		c1.244,0.072,2.496,0.109,3.756,0.109C78.271,131.789,85.332,121.811,89.639,107.457z"/>
	<path fill="#D32030" d="M18.576,29.456h71.063C85.332,15.102,78.271,5.124,68.455,5.124c-1.26,0-2.512,0.037-3.756,0.111
		c-0.012,0-0.023,0.002-0.035,0.002C45.955,6.342,29.439,15.581,18.576,29.456z"/>
	<path fill="#FFD034" d="M5.123,68.457c0,14.717,5.033,28.248,13.453,39h71.063c6.732-22.436,6.732-55.564,0-78.001H18.576
		C10.156,40.209,5.123,53.741,5.123,68.457z"/>
</g>
</svg>
