<?xml version="1.0" encoding="utf-8"?>
<!-- Generator: Adobe Illustrator 16.0.0, SVG Export Plug-In . SVG Version: 6.00 Build 0)  -->
<!DOCTYPE svg PUBLIC "-//W3C//DTD SVG 1.1//EN" "http://www.w3.org/Graphics/SVG/1.1/DTD/svg11.dtd">
<svg version="1.1" id="Layer_1" xmlns="http://www.w3.org/2000/svg" xmlns:xlink="http://www.w3.org/1999/xlink" x="0px" y="0px"
	 width="136.913px" height="136.913px" viewBox="0 0 136.913 136.913" enable-background="new 0 0 136.913 136.913"
	 xml:space="preserve">
<g>
	<g>
		<circle fill="#FFFFFF" cx="68.456" cy="68.457" r="63.333"/>
	</g>
	<g>
		<path fill="#D02027" d="M128.17,47.34c-0.006-0.02-0.012-0.037-0.02-0.055C120.045,24.43,99.195,7.615,74.145,5.383
			c9.693,5.314,9.734,120.809,0,126.145c25.096-2.236,45.975-19.109,54.049-42.023c0.021-0.063,0.039-0.123,0.061-0.182
			c2.281-6.535,3.535-13.553,3.535-20.865C131.789,61.049,130.506,53.945,128.17,47.34z"/>
		<path fill="#DB2727" d="M92.41,47.34c-2.48-19.807-8.572-36.643-18.266-41.957c-1.801-0.158-3.623-0.246-5.463-0.254
			c-0.076,0-0.15-0.006-0.227-0.006c-27.551,0-50.98,17.596-59.693,42.162c-0.006,0.018-0.012,0.035-0.02,0.055
			c-2.336,6.605-3.619,13.709-3.619,21.117c0,7.313,1.256,14.33,3.535,20.865c0.021,0.059,0.041,0.119,0.061,0.182
			c8.678,24.627,32.141,42.285,59.736,42.285c0.076,0,0.15-0.004,0.227-0.006c1.84-0.006,3.662-0.094,5.463-0.256
			c9.734-5.336,15.838-22.291,18.297-42.205C94.115,75.775,94.104,60.869,92.41,47.34z"/>
	</g>
	<g>
		<g>
			<path fill="#F3F4F5" d="M34.877,39.156c0-8.586,6.961-15.547,15.549-15.547c2.889,0,5.592,0.789,7.91,2.162
				c-3.4-3.359-8.072-5.436-13.23-5.436c-10.395,0-18.82,8.426-18.82,18.82s8.426,18.82,18.82,18.82c5.158,0,9.83-2.078,13.23-5.438
				c-2.318,1.373-5.021,2.164-7.91,2.164C41.838,54.703,34.877,47.742,34.877,39.156z"/>
		</g>
		<polygon fill="#F3F4F5" points="68.156,28.988 72.023,35.289 79.211,33.557 74.414,39.184 78.281,45.482 71.451,42.66 
			66.652,48.285 67.225,40.914 60.395,38.092 67.582,36.361 		"/>
	</g>
</g>
</svg>
