<?xml version="1.0" encoding="utf-8"?>
<!-- Generator: Adobe Illustrator 16.0.0, SVG Export Plug-In . SVG Version: 6.00 Build 0)  -->
<!DOCTYPE svg PUBLIC "-//W3C//DTD SVG 1.1//EN" "http://www.w3.org/Graphics/SVG/1.1/DTD/svg11.dtd">
<svg version="1.1" id="Layer_1" xmlns="http://www.w3.org/2000/svg" xmlns:xlink="http://www.w3.org/1999/xlink" x="0px" y="0px"
	 width="136.913px" height="136.914px" viewBox="0 0 136.913 136.914" enable-background="new 0 0 136.913 136.914"
	 xml:space="preserve">
<g>
	<g>
		<g>
			<circle fill="#FFFFFF" cx="68.457" cy="68.458" r="63.333"/>
		</g>
		<g>
			<path fill="#2B479D" d="M128.171,47.341c-0.008-0.02-0.014-0.037-0.02-0.055C120.044,24.431,99.196,7.617,74.146,5.384
				c9.693,5.314,12.523,22.151,15.004,41.957c1.693,13.529,1.705,28.436,0.031,41.982c-2.459,19.914-5.301,36.869-15.035,42.205
				c25.096-2.236,45.975-19.109,54.049-42.025c0.02-0.061,0.039-0.121,0.061-0.18c2.279-6.536,3.535-13.553,3.535-20.866
				C131.79,61.05,130.507,53.947,128.171,47.341z"/>
			<path fill="#3757A6" d="M92.409,47.341c-2.479-19.806-8.57-36.643-18.264-41.957c-1.875-0.166-3.771-0.261-5.689-0.261
				c-27.551,0-50.982,17.597-59.693,42.163c-0.008,0.018-0.014,0.036-0.02,0.055C6.407,53.947,5.124,61.05,5.124,68.458
				c0,7.313,1.254,14.33,3.535,20.866c0.021,0.059,0.039,0.119,0.061,0.18c8.678,24.628,32.139,42.287,59.736,42.287
				c1.918,0,3.814-0.094,5.689-0.262c9.734-5.336,15.838-22.291,18.297-42.205C94.114,75.777,94.104,60.871,92.409,47.341z"/>
		</g>
		<g>
			<path fill="#FFD72E" d="M93.681,81.535c0.537-9.13,0.496-18.478-0.102-27.582H65.216V5.206
				c-9.98,0.502-19.344,3.327-27.582,7.926v40.821H6.812c-1.092,4.66-1.688,9.511-1.688,14.504c0,4.484,0.473,8.856,1.359,13.078
				h31.15v42.247c8.238,4.599,17.602,7.423,27.582,7.926V81.535H93.681z"/>
			<path fill="#FFD00A" d="M130.101,53.953h-26.494H90.579c0.598,9.104,0.639,18.452,0.102,27.582h13.027h26.723
				c0.887-4.221,1.359-8.594,1.359-13.078C131.79,63.464,131.194,58.613,130.101,53.953z"/>
		</g>
	</g>
	<g>
		<g>
			<path fill="#BE2126" d="M130.716,56.888H87.599c0.477,7.262,0.51,14.718,0.082,22h43.24c0.566-3.393,0.869-6.876,0.869-10.431
				C131.79,64.503,131.413,60.64,130.716,56.888z"/>
		</g>
		<path fill="#D32027" d="M93.302,56.888H62.681V5.393c-7.834,0.708-15.252,2.845-22,6.146v45.35H6.196
			c-0.697,3.751-1.072,7.615-1.072,11.569c0,3.555,0.301,7.038,0.867,10.431h34.689v46.486c6.748,3.302,14.166,5.438,22,6.146
			V78.888h30.703C93.812,71.606,93.778,64.15,93.302,56.888z"/>
	</g>
</g>
</svg>
