<?xml version="1.0" encoding="utf-8"?>
<!-- Generator: Adobe Illustrator 16.0.0, SVG Export Plug-In . SVG Version: 6.00 Build 0)  -->
<!DOCTYPE svg PUBLIC "-//W3C//DTD SVG 1.1//EN" "http://www.w3.org/Graphics/SVG/1.1/DTD/svg11.dtd">
<svg version="1.1" id="Layer_1" xmlns="http://www.w3.org/2000/svg" xmlns:xlink="http://www.w3.org/1999/xlink" x="0px" y="0px"
	 width="136.914px" height="136.914px" viewBox="0 0 136.914 136.914" enable-background="new 0 0 136.914 136.914"
	 xml:space="preserve">
<g>
	<g>
		<circle fill="#FFFFFF" cx="68.457" cy="68.459" r="63.333"/>
	</g>
	<g>
		<path fill="#E4E4E4" d="M128.171,47.341c-0.007-0.02-0.013-0.037-0.02-0.055c-8.106-22.855-28.955-39.67-54.006-41.902
			c9.693,5.314,9.734,120.809,0,126.145c25.096-2.236,45.975-19.109,54.049-42.025c0.021-0.061,0.039-0.121,0.061-0.18
			c2.28-6.535,3.535-13.553,3.535-20.865C131.79,61.051,130.507,53.947,128.171,47.341z"/>
		<path fill="#F3F4F5" d="M92.41,47.341c-2.479-19.807-8.571-36.643-18.265-41.957c-1.802-0.16-3.623-0.248-5.464-0.254v126.655
			c1.841-0.008,3.662-0.096,5.464-0.256c9.734-5.336,15.838-22.291,18.297-42.205C94.115,75.777,94.104,60.871,92.41,47.341z"/>
		<path fill="#036535" d="M68.456,5.125c-27.551,0-50.981,17.596-59.693,42.162c-0.007,0.018-0.013,0.035-0.02,0.055
			c-2.336,6.606-3.619,13.709-3.619,21.118c0,7.313,1.255,14.33,3.535,20.865c0.021,0.059,0.04,0.119,0.061,0.18
			c8.678,24.629,32.14,42.287,59.736,42.287c0.075,0,0.149-0.006,0.226-0.006V5.13C68.605,5.128,68.531,5.125,68.456,5.125z"/>
	</g>
	<g>
		<g>
			<path fill="#E61E25" d="M50.15,69.859c0-13.043,10.573-23.618,23.616-23.618c4.388,0,8.497,1.203,12.015,3.287
				c-5.164-5.104-12.26-8.258-20.096-8.258c-15.789,0-28.587,12.799-28.587,28.588s12.798,28.59,28.587,28.59
				c7.836,0,14.932-3.156,20.096-8.26c-3.518,2.084-7.627,3.285-12.015,3.285C60.724,93.475,50.15,82.902,50.15,69.859z"/>
		</g>
		<polygon fill="#E61E25" points="86.568,54.854 86.217,66.076 96.781,69.881 85.996,73.012 85.645,84.236 79.332,74.949 
			68.549,78.082 75.43,69.207 69.119,59.922 79.687,63.727 		"/>
	</g>
</g>
</svg>
