<?xml version="1.0" encoding="utf-8"?>
<!-- Generator: Adobe Illustrator 16.0.0, SVG Export Plug-In . SVG Version: 6.00 Build 0)  -->
<!DOCTYPE svg PUBLIC "-//W3C//DTD SVG 1.1//EN" "http://www.w3.org/Graphics/SVG/1.1/DTD/svg11.dtd">
<svg version="1.1" id="Layer_1" xmlns="http://www.w3.org/2000/svg" xmlns:xlink="http://www.w3.org/1999/xlink" x="0px" y="0px"
	 width="136.913px" height="136.914px" viewBox="0 0 136.913 136.914" enable-background="new 0 0 136.913 136.914"
	 xml:space="preserve">
<g>
	<g>
		<path fill="#F0C816" d="M68.456,131.79c-0.014,0-0.027-0.002-0.041-0.002c16.223,0.012,32.447-6.17,44.824-18.547L92.868,92.87
			C89.477,114.589,81.344,131.79,68.456,131.79z"/>
		<path fill="#077D48" d="M113.239,23.673C100.869,11.304,84.655,5.12,68.442,5.124h0.014c22.092,0,24.412,87.746,24.412,87.746
			l20.371,20.371C137.974,88.506,137.973,48.407,113.239,23.673z"/>
		<path fill="#FFD72E" d="M92.868,92.87L23.672,23.675c-24.732,24.732-24.732,64.833,0,89.564
			c12.356,12.355,28.548,18.539,44.742,18.549c0.014,0,0.027,0.002,0.041,0.002C81.344,131.79,89.477,114.589,92.868,92.87z"/>
		<path fill="#008E56" d="M92.868,92.87c5.813-37.229-2.32-87.746-24.412-87.746h-0.014c-16.203,0.004-32.406,6.187-44.77,18.551
			L92.868,92.87z"/>
	</g>
	<polygon fill="#D32027" points="68.348,49.071 72.443,61.674 85.695,61.674 74.974,69.462 79.069,82.065 68.348,74.276 
		57.627,82.065 61.722,69.462 51.001,61.674 64.253,61.674 	"/>
</g>
</svg>
