<?xml version="1.0" encoding="utf-8"?>
<!-- Generator: Adobe Illustrator 16.0.0, SVG Export Plug-In . SVG Version: 6.00 Build 0)  -->
<!DOCTYPE svg PUBLIC "-//W3C//DTD SVG 1.1//EN" "http://www.w3.org/Graphics/SVG/1.1/DTD/svg11.dtd">
<svg version="1.1" id="Layer_1" xmlns="http://www.w3.org/2000/svg" xmlns:xlink="http://www.w3.org/1999/xlink" x="0px" y="0px"
	 width="136.913px" height="136.914px" viewBox="0 0 136.913 136.914" enable-background="new 0 0 136.913 136.914"
	 xml:space="preserve">
<g>
	<g>
		<g>
			<path fill="#F3F2F2" d="M5.124,68.451c0-10.855,2.73-21.072,7.541-30.002L131.79,68.451L14.071,100.924
				C8.39,91.428,5.124,80.32,5.124,68.451z"/>
		</g>
	</g>
	<g>
		<path fill="#338BC1" d="M88.007,68.451h43.783c0-34.98-28.355-63.334-63.334-63.334C85.944,5.117,88.007,36.785,88.007,68.451z"/>
		<path fill="#258F44" d="M68.456,131.785c-0.375,0-0.74-0.006-1.109-0.01c0.369,0.008,0.738,0.02,1.109,0.02
			c34.979,0,63.334-28.354,63.334-63.334H86.507C86.505,100.125,85.942,131.785,68.456,131.785z"/>
		<path fill="#3D91CF" d="M12.667,38.449l55.789,30.002h26.232c0-31.666-8.744-63.334-26.232-63.334
			C44.333,5.117,23.36,18.604,12.667,38.449z"/>
		<path fill="#359846" d="M94.688,68.461H68.456L12.54,98.229c10.492,19.668,31.057,33.139,54.807,33.547
			c0.369,0.004,0.734,0.01,1.109,0.01C85.942,131.785,94.687,100.125,94.688,68.461z"/>
	</g>
	<polygon fill="#D32027" points="27.849,52.619 31.235,63.043 42.194,63.043 33.327,69.484 36.714,79.908 27.849,73.465 
		18.981,79.908 22.368,69.484 13.501,63.043 24.462,63.043 	"/>
</g>
</svg>
