<?xml version="1.0" encoding="utf-8"?>
<!-- Generator: Adobe Illustrator 16.0.0, SVG Export Plug-In . SVG Version: 6.00 Build 0)  -->
<!DOCTYPE svg PUBLIC "-//W3C//DTD SVG 1.1//EN" "http://www.w3.org/Graphics/SVG/1.1/DTD/svg11.dtd">
<svg version="1.1" id="Layer_1" xmlns="http://www.w3.org/2000/svg" xmlns:xlink="http://www.w3.org/1999/xlink" x="0px" y="0px"
	 width="136.913px" height="136.913px" viewBox="0 0 136.913 136.913" enable-background="new 0 0 136.913 136.913"
	 xml:space="preserve">
<g>
	<g>
		<path fill="#2AAADB" d="M128.184,47.341c-0.008-0.02-0.014-0.037-0.02-0.055c-0.014-0.037-0.029-0.072-0.041-0.109
			c0.02,0.055,0.037,0.109,0.057,0.164H128.184z"/>
		<path fill="#2AAADB" d="M125.42,40.757c0.051,0.105,0.105,0.209,0.156,0.314C125.525,40.966,125.471,40.862,125.42,40.757z"/>
		<path fill="#2AAADB" d="M127.344,45.106c0.029,0.074,0.057,0.146,0.084,0.219C127.4,45.253,127.373,45.181,127.344,45.106z"/>
		<path fill="#2AAADB" d="M124.297,38.565c0.111,0.209,0.225,0.416,0.336,0.627C124.521,38.981,124.408,38.774,124.297,38.565z"/>
		<path fill="#FFFFFF" d="M124.633,39.192c0.27,0.518,0.531,1.039,0.787,1.564C125.164,40.231,124.902,39.71,124.633,39.192z"/>
		<path fill="#FFFFFF" d="M123.85,37.733h-0.01c0.152,0.275,0.307,0.553,0.457,0.832C124.146,38.288,124.002,38.009,123.85,37.733z"
			/>
		<path fill="#FFFFFF" d="M125.576,41.071c0.635,1.32,1.225,2.666,1.768,4.035C126.799,43.737,126.211,42.392,125.576,41.071z"/>
		<path fill="#FFFFFF" d="M127.428,45.325c0.24,0.613,0.473,1.23,0.695,1.852C127.9,46.556,127.67,45.938,127.428,45.325z"/>
		<g>
			<path fill="#54B848" d="M129.063,86.911c-0.07,0.232-0.143,0.467-0.215,0.699C128.92,87.378,128.992,87.144,129.063,86.911z"/>
			<path fill="#54B848" d="M125.576,41.071c0.303,0.629,0.594,1.266,0.875,1.906c-0.551-1.25-1.141-2.479-1.768-3.684
				c0.252,0.484,0.498,0.973,0.736,1.463C125.471,40.862,125.525,40.966,125.576,41.071z"/>
			<path fill="#54B848" d="M129.852,84.095c-0.02,0.08-0.037,0.16-0.057,0.238C129.814,84.255,129.832,84.175,129.852,84.095z"/>
			<path fill="#54B848" d="M124.313,98.343c-0.068,0.127-0.133,0.258-0.203,0.385C124.18,98.601,124.244,98.472,124.313,98.343z"/>
			<path fill="#54B848" d="M130.564,80.944c-0.043,0.219-0.09,0.436-0.137,0.654C130.475,81.38,130.521,81.163,130.564,80.944z"/>
			<path fill="#54B848" d="M125.684,95.636c-0.109,0.227-0.221,0.451-0.332,0.678C125.463,96.087,125.574,95.862,125.684,95.636z"/>
			<path fill="#54B848" d="M126.99,92.688c-0.088,0.211-0.172,0.424-0.262,0.633C126.818,93.112,126.902,92.899,126.99,92.688z"/>
			<path fill="#54B848" d="M128.014,90.073c-0.068,0.186-0.141,0.367-0.209,0.551C127.873,90.44,127.945,90.259,128.014,90.073z"/>
			<path fill="#54B848" d="M130.941,58.081c0.084,0.506,0.16,1.012,0.23,1.52C131.102,59.093,131.025,58.587,130.941,58.081z"/>
			<path fill="#54B848" d="M130.385,55.128c0.123,0.568,0.229,1.143,0.336,1.717C130.615,56.271,130.506,55.696,130.385,55.128z"/>
			<path fill="#54B848" d="M131.367,61.132c0.053,0.447,0.104,0.896,0.146,1.346C131.471,62.026,131.418,61.579,131.367,61.132z"/>
			<path fill="#54B848" d="M126.502,43.089c0.258,0.59,0.504,1.186,0.744,1.785C127.006,44.274,126.76,43.679,126.502,43.089z"/>
			<path fill="#54B848" d="M131.117,77.747c-0.025,0.174-0.049,0.35-0.074,0.525C131.068,78.097,131.092,77.921,131.117,77.747z"/>
			<path fill="#54B848" d="M131.486,74.786c-0.016,0.162-0.037,0.32-0.055,0.48C131.449,75.106,131.471,74.948,131.486,74.786z"/>
			<path fill="#54B848" d="M131.729,71.366c-0.01,0.209-0.018,0.418-0.029,0.629C131.711,71.784,131.719,71.575,131.729,71.366z"/>
			<path fill="#54B848" d="M131.656,64.354c0.023,0.361,0.053,0.721,0.07,1.082C131.709,65.075,131.678,64.716,131.656,64.354z"/>
			<path fill="#54B848" d="M128.18,47.341c0.811,2.289,1.486,4.643,2.033,7.045c-0.691-3.049-1.602-6.012-2.715-8.873
				c0.215,0.551,0.426,1.105,0.625,1.664C128.143,47.231,128.16,47.286,128.18,47.341z"/>
			<path fill="#3CB44A" d="M91.824,98.733c-3.871,18.869-11.652,33.057-23.355,33.057c24.012,0,44.898-13.363,55.639-33.057h-0.025
				H91.824z"/>
			<path fill="#3CB44A" d="M91.732,37.733h32.107c0.152,0.275,0.307,0.553,0.457,0.832c0.105,0.195,0.211,0.391,0.314,0.59
				C114.035,18.933,92.871,5.124,68.469,5.124C80.078,5.124,87.83,19.085,91.732,37.733z"/>
			<path fill="#54B848" d="M10.209,93.321c-0.09-0.209-0.174-0.422-0.262-0.633C10.035,92.899,10.119,93.112,10.209,93.321z"/>
			<path fill="#54B848" d="M9.133,90.624c-0.068-0.184-0.141-0.365-0.207-0.551C8.992,90.259,9.064,90.44,9.133,90.624z"/>
			<path fill="#54B848" d="M8.092,87.61c-0.074-0.232-0.145-0.467-0.217-0.699C7.947,87.144,8.018,87.378,8.092,87.61z"/>
			<path fill="#54B848" d="M11.588,96.315c-0.111-0.227-0.225-0.453-0.334-0.682C11.363,95.862,11.475,96.089,11.588,96.315z"/>
			<path fill="#54B848" d="M7.145,84.333c-0.021-0.078-0.039-0.158-0.059-0.238C7.105,84.175,7.123,84.255,7.145,84.333z"/>
			<path fill="#54B848" d="M91.824,98.733H12.83c10.74,19.693,31.627,33.057,55.639,33.057
				C80.172,131.79,87.953,117.603,91.824,98.733z"/>
			<path fill="#54B848" d="M12.828,98.729c-0.07-0.129-0.135-0.262-0.205-0.391C12.693,98.468,12.758,98.601,12.828,98.729z"/>
			<path fill="#54B848" d="M9.832,44.517c0.186-0.455,0.377-0.908,0.572-1.357C10.209,43.61,10.018,44.062,9.832,44.517z"/>
			<path fill="#54B848" d="M10.818,42.243c0.357-0.783,0.729-1.559,1.117-2.324C11.547,40.685,11.176,41.46,10.818,42.243z"/>
			<path fill="#54B848" d="M6.982,53.269c0.074-0.301,0.145-0.604,0.223-0.902C7.127,52.665,7.057,52.968,6.982,53.269z"/>
			<path fill="#54B848" d="M12.322,39.161c0.25-0.479,0.504-0.957,0.766-1.428h78.645C87.83,19.085,80.078,5.124,68.469,5.124
				C44.064,5.124,22.898,18.935,12.322,39.161z"/>
			<path fill="#54B848" d="M6.51,81.599c-0.047-0.219-0.092-0.436-0.137-0.654C6.418,81.163,6.465,81.38,6.51,81.599z"/>
			<path fill="#54B848" d="M6.369,55.993c0.059-0.291,0.123-0.578,0.184-0.867C6.492,55.415,6.428,55.702,6.369,55.993z"/>
			<path fill="#54B848" d="M7.84,50.126c0.117-0.387,0.24-0.771,0.365-1.156C8.08,49.354,7.957,49.739,7.84,50.126z"/>
			<path fill="#54B848" d="M8.682,47.562c0.219-0.627,0.447-1.25,0.686-1.867C9.129,46.312,8.9,46.935,8.682,47.562z"/>
			<path fill="#54B848" d="M5.209,65.562c0.01-0.225,0.02-0.449,0.033-0.674C5.23,65.112,5.219,65.337,5.209,65.562z"/>
			<path fill="#54B848" d="M5.807,59.28c0.035-0.25,0.07-0.502,0.109-0.75C5.877,58.78,5.842,59.03,5.807,59.28z"/>
			<path fill="#54B848" d="M5.506,75.267c-0.018-0.16-0.037-0.318-0.055-0.48C5.469,74.948,5.488,75.106,5.506,75.267z"/>
			<path fill="#54B848" d="M5.24,71.995c-0.012-0.211-0.021-0.42-0.031-0.629C5.219,71.575,5.229,71.784,5.24,71.995z"/>
			<path fill="#54B848" d="M5.453,62.114c0.018-0.17,0.039-0.336,0.057-0.506C5.492,61.778,5.469,61.944,5.453,62.114z"/>
			<path fill="#54B848" d="M5.896,78.272c-0.027-0.176-0.051-0.352-0.076-0.525C5.846,77.921,5.869,78.097,5.896,78.272z"/>
			<path fill="#FDCE07" d="M126.451,42.978c0.016,0.037,0.033,0.074,0.051,0.111C126.484,43.052,126.467,43.015,126.451,42.978z"/>
			<path fill="#FDCE07" d="M131.043,78.272c-0.141,0.896-0.301,1.787-0.479,2.672C130.742,80.06,130.902,79.169,131.043,78.272z"/>
			<path fill="#FDCE07" d="M126.729,93.321c-0.332,0.779-0.682,1.551-1.045,2.314C126.047,94.872,126.396,94.101,126.729,93.321z"/>
			<path fill="#FDCE07" d="M127.805,90.624c-0.26,0.695-0.531,1.383-0.814,2.064C127.273,92.007,127.545,91.319,127.805,90.624z"/>
			<path fill="#FDCE07" d="M129.795,84.333c-0.225,0.869-0.473,1.725-0.732,2.578C129.322,86.058,129.57,85.202,129.795,84.333z"/>
			<path fill="#FDCE07" d="M124.633,39.192c-0.008-0.014-0.014-0.025-0.021-0.037c0.025,0.045,0.047,0.092,0.072,0.139
				C124.666,39.259,124.65,39.226,124.633,39.192z"/>
			<path fill="#FDCE07" d="M130.428,81.599c-0.176,0.838-0.365,1.67-0.576,2.496C130.063,83.269,130.252,82.437,130.428,81.599z"/>
			<path fill="#FDCE07" d="M128.848,87.61c-0.264,0.828-0.539,1.65-0.834,2.463C128.309,89.261,128.584,88.438,128.848,87.61z"/>
			<path fill="#FDCE07" d="M125.352,96.313c-0.334,0.684-0.68,1.361-1.039,2.029C124.672,97.675,125.018,96.997,125.352,96.313z"/>
			<path fill="#FDCE07" d="M131.432,75.267c-0.088,0.832-0.193,1.658-0.314,2.48C131.238,76.925,131.344,76.099,131.432,75.267z"/>
			<path fill="#FDCE07" d="M127.428,45.325c-0.027-0.072-0.055-0.145-0.084-0.219c-0.031-0.078-0.066-0.154-0.098-0.232
				c0.086,0.211,0.17,0.424,0.252,0.639C127.475,45.45,127.453,45.388,127.428,45.325z"/>
			<path fill="#FDCE07" d="M130.213,54.386c0.057,0.248,0.119,0.494,0.172,0.742C130.332,54.88,130.27,54.634,130.213,54.386z"/>
			<path fill="#FDCE07" d="M131.514,62.478c0.057,0.623,0.102,1.25,0.143,1.877C131.615,63.728,131.572,63.101,131.514,62.478z"/>
			<path fill="#FDCE07" d="M131.727,65.437c0.047,1.002,0.076,2.008,0.076,3.021C131.803,67.444,131.773,66.438,131.727,65.437z"/>
			<path fill="#FDCE07" d="M130.721,56.845c0.076,0.41,0.152,0.822,0.221,1.236C130.873,57.667,130.797,57.255,130.721,56.845z"/>
			<path fill="#FDCE07" d="M131.699,71.995c-0.053,0.936-0.121,1.867-0.213,2.791C131.578,73.862,131.646,72.931,131.699,71.995z"/>
			<polygon fill="#FDCE07" points="124.109,98.728 124.107,98.733 124.107,98.733 			"/>
			<path fill="#FDCE07" d="M131.803,68.458c0,0.975-0.031,1.943-0.074,2.908C131.771,70.401,131.803,69.433,131.803,68.458z"/>
			<path fill="#FDCE07" d="M131.172,59.601c0.072,0.51,0.137,1.02,0.195,1.531C131.309,60.62,131.244,60.11,131.172,59.601z"/>
			<path fill="#EDC11B" d="M124.313,98.343c0.359-0.668,0.705-1.346,1.039-2.029c0.111-0.227,0.223-0.451,0.332-0.678
				c0.363-0.764,0.713-1.535,1.045-2.314c0.09-0.209,0.174-0.422,0.262-0.633c0.283-0.682,0.555-1.369,0.814-2.064
				c0.068-0.184,0.141-0.365,0.209-0.551c0.295-0.813,0.57-1.635,0.834-2.463c0.072-0.232,0.145-0.467,0.215-0.699
				c0.26-0.854,0.508-1.709,0.732-2.578c0.02-0.078,0.037-0.158,0.057-0.238c0.211-0.826,0.4-1.658,0.576-2.496
				c0.047-0.219,0.094-0.436,0.137-0.654c0.178-0.885,0.338-1.775,0.479-2.672c0.025-0.176,0.049-0.352,0.074-0.525
				c0.121-0.822,0.227-1.648,0.314-2.48c0.018-0.16,0.039-0.318,0.055-0.48c0.092-0.924,0.16-1.855,0.213-2.791
				c0.012-0.211,0.02-0.42,0.029-0.629c0.043-0.965,0.074-1.934,0.074-2.908c0-1.014-0.029-2.02-0.076-3.021
				c-0.018-0.361-0.047-0.721-0.07-1.082c-0.041-0.627-0.086-1.254-0.143-1.877c-0.043-0.449-0.094-0.898-0.146-1.346
				c-0.059-0.512-0.123-1.021-0.195-1.531c-0.07-0.508-0.146-1.014-0.23-1.52c-0.068-0.414-0.145-0.826-0.221-1.236
				c-0.107-0.574-0.213-1.148-0.336-1.717c-0.053-0.248-0.115-0.494-0.172-0.742c-0.547-2.402-1.223-4.756-2.033-7.045
				c-0.02-0.055-0.037-0.109-0.057-0.164c-0.199-0.559-0.41-1.113-0.625-1.664c-0.082-0.215-0.166-0.428-0.252-0.639
				c-0.24-0.6-0.486-1.195-0.744-1.785c-0.018-0.037-0.035-0.074-0.051-0.111c-0.281-0.641-0.572-1.277-0.875-1.906
				c-0.051-0.105-0.105-0.209-0.156-0.314c-0.238-0.49-0.484-0.979-0.736-1.463c-0.025-0.047-0.047-0.094-0.072-0.139
				c-0.104-0.199-0.209-0.395-0.314-0.59c-0.15-0.279-0.305-0.557-0.457-0.832H91.732c3.922,18.734,3.951,42.191,0.092,61h32.258
				h0.025c0-0.002,0.002-0.004,0.002-0.006C124.18,98.601,124.244,98.47,124.313,98.343z"/>
			<path fill="#FDCE07" d="M6.553,55.126c0.135-0.623,0.277-1.242,0.43-1.857C6.83,53.884,6.688,54.503,6.553,55.126z"/>
			<path fill="#FDCE07" d="M7.205,52.366c0.197-0.752,0.412-1.498,0.635-2.24C7.617,50.868,7.402,51.614,7.205,52.366z"/>
			<path fill="#FDCE07" d="M5.451,74.786c-0.092-0.924-0.16-1.855-0.211-2.791C5.291,72.931,5.359,73.862,5.451,74.786z"/>
			<path fill="#FDCE07" d="M5.82,77.747c-0.121-0.822-0.227-1.648-0.314-2.48C5.594,76.099,5.699,76.925,5.82,77.747z"/>
			<path fill="#FDCE07" d="M5.209,71.366c-0.043-0.965-0.072-1.934-0.072-2.908C5.137,69.433,5.166,70.401,5.209,71.366z"/>
			<path fill="#FDCE07" d="M6.373,80.944c-0.176-0.885-0.338-1.775-0.477-2.672C6.035,79.169,6.197,80.06,6.373,80.944z"/>
			<path fill="#FDCE07" d="M7.086,84.095c-0.209-0.826-0.398-1.658-0.576-2.496C6.688,82.437,6.877,83.269,7.086,84.095z"/>
			<path fill="#FDCE07" d="M5.242,64.888c0.051-0.93,0.119-1.855,0.211-2.773C5.361,63.032,5.293,63.958,5.242,64.888z"/>
			<path fill="#FDCE07" d="M5.51,61.608c0.084-0.781,0.184-1.557,0.297-2.328C5.693,60.052,5.594,60.829,5.51,61.608z"/>
			<path fill="#FDCE07" d="M5.916,58.53c0.135-0.852,0.285-1.697,0.453-2.537C6.201,56.833,6.051,57.679,5.916,58.53z"/>
			<path fill="#FDCE07" d="M7.875,86.911c-0.258-0.854-0.508-1.709-0.73-2.578C7.367,85.202,7.617,86.058,7.875,86.911z"/>
			<path fill="#FDCE07" d="M5.137,68.458c0-0.971,0.029-1.936,0.072-2.896C5.166,66.522,5.137,67.487,5.137,68.458z"/>
			<path fill="#FDCE07" d="M8.926,90.073c-0.297-0.813-0.572-1.635-0.834-2.463C8.354,88.438,8.629,89.261,8.926,90.073z"/>
			<polygon fill="#FDCE07" points="12.83,98.733 12.83,98.733 12.828,98.729 			"/>
			<path fill="#FDCE07" d="M11.936,39.919c0.127-0.254,0.256-0.508,0.387-0.758C12.191,39.413,12.063,39.665,11.936,39.919z"/>
			<path fill="#FDCE07" d="M9.367,45.694c0.152-0.395,0.305-0.787,0.465-1.178C9.672,44.907,9.52,45.3,9.367,45.694z"/>
			<path fill="#FDCE07" d="M10.404,43.159c0.135-0.307,0.275-0.611,0.414-0.916C10.68,42.548,10.539,42.853,10.404,43.159z"/>
			<path fill="#FDCE07" d="M8.205,48.97c0.152-0.473,0.313-0.939,0.477-1.408C8.518,48.03,8.357,48.499,8.205,48.97z"/>
			<path fill="#FDCE07" d="M9.947,92.688c-0.283-0.682-0.555-1.369-0.814-2.064C9.393,91.319,9.664,92.007,9.947,92.688z"/>
			<path fill="#FDCE07" d="M11.254,95.634c-0.363-0.764-0.713-1.533-1.045-2.313C10.543,94.101,10.891,94.87,11.254,95.634z"/>
			<path fill="#FDCE07" d="M12.623,98.339c-0.357-0.668-0.701-1.342-1.035-2.023C11.922,96.997,12.266,97.671,12.623,98.339z"/>
			<path fill="#FDCE07" d="M12.322,39.161c-0.131,0.25-0.26,0.504-0.387,0.758c-0.389,0.766-0.76,1.541-1.117,2.324
				c-0.139,0.305-0.279,0.609-0.414,0.916c-0.195,0.449-0.387,0.902-0.572,1.357c-0.16,0.391-0.313,0.783-0.465,1.178
				c-0.238,0.617-0.467,1.24-0.686,1.867c-0.164,0.469-0.324,0.936-0.477,1.408c-0.125,0.385-0.248,0.77-0.365,1.156
				c-0.223,0.742-0.438,1.488-0.635,2.24c-0.078,0.299-0.148,0.602-0.223,0.902c-0.152,0.615-0.295,1.234-0.43,1.857
				c-0.061,0.289-0.125,0.576-0.184,0.867c-0.168,0.84-0.318,1.686-0.453,2.537c-0.039,0.248-0.074,0.5-0.109,0.75
				c-0.113,0.771-0.213,1.547-0.297,2.328c-0.018,0.17-0.039,0.336-0.057,0.506c-0.092,0.918-0.16,1.844-0.211,2.773
				c-0.014,0.225-0.023,0.449-0.033,0.674c-0.043,0.961-0.072,1.926-0.072,2.896c0,0.975,0.029,1.943,0.072,2.908
				c0.01,0.209,0.02,0.418,0.031,0.629c0.051,0.936,0.119,1.867,0.211,2.791c0.018,0.162,0.037,0.32,0.055,0.48
				c0.088,0.832,0.193,1.658,0.314,2.48c0.025,0.174,0.049,0.35,0.076,0.525c0.139,0.896,0.301,1.787,0.477,2.672
				c0.045,0.219,0.09,0.436,0.137,0.654c0.178,0.838,0.367,1.67,0.576,2.496c0.02,0.08,0.037,0.16,0.059,0.238
				c0.223,0.869,0.473,1.725,0.73,2.578c0.072,0.232,0.143,0.467,0.217,0.699c0.262,0.828,0.537,1.65,0.834,2.463
				c0.066,0.186,0.139,0.367,0.207,0.551c0.26,0.695,0.531,1.383,0.814,2.064c0.088,0.211,0.172,0.424,0.262,0.633
				c0.332,0.779,0.682,1.549,1.045,2.313c0.109,0.229,0.223,0.455,0.334,0.682c0.334,0.682,0.678,1.355,1.035,2.023
				c0.07,0.129,0.135,0.262,0.205,0.391c0,0.002,0.002,0.002,0.002,0.004h78.994c3.859-18.809,3.83-42.266-0.092-61H13.088
				C12.826,38.204,12.572,38.683,12.322,39.161z"/>
		</g>
	</g>
	<path fill="#3757A6" d="M12.654,38.595h-0.002c-4.811,8.93-7.541,19.146-7.541,30.002c0,10.762,2.691,20.895,7.43,29.77
		l36.123-29.76v-0.01L12.654,38.595z"/>
	<polygon fill="#151515" points="68.066,52.534 71.314,62.536 81.834,62.536 73.324,68.718 76.574,78.72 68.066,72.538 
		59.557,78.72 62.807,68.718 54.299,62.536 64.816,62.536 	"/>
	<polygon fill="#151515" points="104.98,52.534 108.23,62.536 118.748,62.536 110.24,68.718 113.49,78.72 104.98,72.538 
		96.471,78.72 99.723,68.718 91.213,62.536 101.732,62.536 	"/>
</g>
</svg>
