<?xml version="1.0" encoding="utf-8"?>
<!-- Generator: Adobe Illustrator 16.0.0, SVG Export Plug-In . SVG Version: 6.00 Build 0)  -->
<!DOCTYPE svg PUBLIC "-//W3C//DTD SVG 1.1//EN" "http://www.w3.org/Graphics/SVG/1.1/DTD/svg11.dtd">
<svg version="1.1" id="Layer_1" xmlns="http://www.w3.org/2000/svg" xmlns:xlink="http://www.w3.org/1999/xlink" x="0px" y="0px"
	 width="136.914px" height="136.914px" viewBox="0 0 136.914 136.914" enable-background="new 0 0 136.914 136.914"
	 xml:space="preserve">
<g>
	<g>
		<circle fill="#FFFFFF" cx="68.457" cy="68.458" r="63.333"/>
	</g>
	<g>
		<circle fill="#FFFFFF" cx="68.457" cy="68.458" r="63.333"/>
	</g>
	<g>
		<path fill="#258F44" d="M128.171,47.341c-0.007-0.02-0.013-0.037-0.02-0.055c-8.106-22.855-28.955-39.67-54.006-41.902
			c9.693,5.314,12.524,22.15,15.004,41.957c1.694,13.529,1.705,28.436,0.032,41.983c-2.459,19.914-5.302,36.869-15.036,42.205
			c25.096-2.236,45.975-19.109,54.049-42.025c0.021-0.061,0.039-0.121,0.061-0.18c2.28-6.535,3.535-13.553,3.535-20.866
			C131.79,61.05,130.507,53.947,128.171,47.341z"/>
		<path fill="#359846" d="M92.41,47.341c-2.479-19.807-8.571-36.643-18.265-41.957c-1.875-0.166-3.771-0.26-5.689-0.26
			c-27.551,0-50.981,17.596-59.693,42.162c-0.007,0.018-0.013,0.035-0.02,0.055C6.407,53.947,5.124,61.05,5.124,68.458
			c0,7.313,1.255,14.331,3.535,20.866c0.021,0.059,0.04,0.119,0.061,0.18c8.678,24.629,32.14,42.287,59.736,42.287
			c1.918,0,3.814-0.094,5.689-0.262c9.734-5.336,15.838-22.291,18.297-42.205C94.115,75.777,94.104,60.871,92.41,47.341z"/>
	</g>
	<g>
		<circle fill="#EC1C24" cx="68.457" cy="68.457" r="23.333"/>
	</g>
</g>
</svg>
