<?xml version="1.0" encoding="utf-8"?>
<!-- Generator: Adobe Illustrator 16.0.0, SVG Export Plug-In . SVG Version: 6.00 Build 0)  -->
<!DOCTYPE svg PUBLIC "-//W3C//DTD SVG 1.1//EN" "http://www.w3.org/Graphics/SVG/1.1/DTD/svg11.dtd">
<svg version="1.1" id="Layer_1" xmlns="http://www.w3.org/2000/svg" xmlns:xlink="http://www.w3.org/1999/xlink" x="0px" y="0px"
	 width="136.913px" height="136.913px" viewBox="0 0 136.913 136.913" enable-background="new 0 0 136.913 136.913"
	 xml:space="preserve">
<g>
	<g>
		<g>
			<circle fill="#FFFFFF" cx="68.47" cy="68.458" r="63.333"/>
		</g>
		<g>
			<path fill="#E4E4E4" d="M128.184,47.341H89.162c1.693,13.529,1.705,28.436,0.031,41.982h39.074
				c2.279-6.535,3.535-13.553,3.535-20.865C131.803,61.05,130.52,53.946,128.184,47.341z"/>
			<path fill="#0B0B0B" d="M89.162,47.341h39.021c-0.008-0.02-0.014-0.037-0.02-0.055c-8.107-22.855-28.955-39.67-54.006-41.902
				C83.852,10.698,86.682,27.534,89.162,47.341z"/>
			<path fill="#086936" d="M74.158,131.528c25.096-2.236,45.975-19.109,54.049-42.025c0.02-0.061,0.039-0.121,0.061-0.18H89.193
				C86.734,109.237,83.893,126.192,74.158,131.528z"/>
			<path fill="#F3F4F5" d="M5.137,68.458c0,7.313,1.254,14.33,3.535,20.865h83.783c1.672-13.547,1.662-28.453-0.033-41.982H8.756
				C6.42,53.946,5.137,61.05,5.137,68.458z"/>
			<path fill="#151515" d="M8.775,47.286c-0.008,0.018-0.014,0.035-0.02,0.055h83.666c-2.479-19.807-8.57-36.643-18.264-41.957
				c-1.875-0.166-3.771-0.26-5.689-0.26C40.918,5.124,17.486,22.72,8.775,47.286z"/>
			<path fill="#0C763C" d="M92.455,89.323H8.672c0.021,0.059,0.039,0.119,0.061,0.18c8.678,24.629,32.139,42.287,59.736,42.287
				c1.918,0,3.814-0.094,5.689-0.262C83.893,126.192,89.996,109.237,92.455,89.323z"/>
		</g>
	</g>
	<g>
		<path fill="#CD2029" d="M68.443,68.597L12.654,38.595h-0.002c-4.811,8.93-7.541,19.146-7.541,30.002
			c0,10.764,2.691,20.895,7.43,29.77l55.902-29.76"/>
	</g>
	<g>
		<g>
			<path fill-rule="evenodd" clip-rule="evenodd" fill="#FFFFFF" d="M21.93,75.702c1.303-1.131,2.572-2.295,3.797-3.504
				c1.348,1.021,2.643,2.615,3.895,3.406c-0.018-1.766-0.303-3.268-0.293-5.063c1.633-0.313,3.32-0.574,5.063-0.777
				c-1.238-1.164-2.84-1.963-4.186-3.018c0.764-1.574,1.65-3.023,2.531-4.479c-1.545,0.174-3.271,1.01-4.965,1.361
				c-0.752-1.488-1.297-3.182-1.947-4.77c-0.77,1.471-1.305,3.174-1.947,4.77c-1.795-0.377-3.328-1.02-5.063-1.459
				c0.865,1.504,1.672,3.066,2.629,4.477c-1.346,1.121-3.008,1.926-4.283,3.117c1.734,0.146,3.221,0.543,4.965,0.682
				C22.375,72.128,21.895,73.911,21.93,75.702z"/>
		</g>
	</g>
</g>
</svg>
