<?xml version="1.0" encoding="utf-8"?>
<!-- Generator: Adobe Illustrator 16.0.0, SVG Export Plug-In . SVG Version: 6.00 Build 0)  -->
<!DOCTYPE svg PUBLIC "-//W3C//DTD SVG 1.1//EN" "http://www.w3.org/Graphics/SVG/1.1/DTD/svg11.dtd">
<svg version="1.1" id="Layer_1" xmlns="http://www.w3.org/2000/svg" xmlns:xlink="http://www.w3.org/1999/xlink" x="0px" y="0px"
	 width="136.913px" height="136.913px" viewBox="0 0 136.913 136.913" enable-background="new 0 0 136.913 136.913"
	 xml:space="preserve">
<g>
	<g>
		<g>
			<circle fill="#FFFFFF" cx="68.456" cy="68.457" r="63.333"/>
		</g>
	</g>
	<g>
		<path fill="#FFFFFF" d="M68.455,5.123c-0.457,0-0.92,0.008-1.381,0.018c0.498-0.01,0.998-0.012,1.498-0.01
			C68.533,5.131,68.494,5.123,68.455,5.123z"/>
		<path fill="#D02027" d="M68.779,131.771c6.488-0.035,12.973-1.057,19.205-3.072l-9.74-9.742
			C74.525,124.236,74.195,131.648,68.779,131.771z"/>
		<path fill="#DB2727" d="M82.482,123.195L8.215,48.928C1.133,70.838,6.273,95.84,23.672,113.24
			c12.451,12.449,28.791,18.619,45.107,18.531C74.195,131.648,78.764,128.475,82.482,123.195z"/>
		<path fill="#D02027" d="M113.238,23.674C100.902,11.336,84.742,5.158,68.572,5.131C82.75,5.246,85.654,26.215,88.287,51.063
			l40.9,35.4C135.553,64.926,130.236,40.67,113.238,23.674z"/>
		<path fill="#D02027" d="M66.936,5.143c0.045,0,0.092,0,0.139-0.002C67.027,5.143,66.98,5.143,66.936,5.143z"/>
		<path fill="#DB2727" d="M93.787,51.063C91.156,26.215,82.75,5.246,68.572,5.131c-0.5-0.002-1,0-1.498,0.01
			c-0.047,0.002-0.094,0.002-0.139,0.002c-5.561,0.133-11.107,0.994-16.484,2.584L93.787,51.063z"/>
		<path fill="#E4E4E4" d="M82.482,123.195l5.502,5.504c2.078-0.672,4.129-1.451,6.141-2.344l-8.502-8.502
			C84.654,119.809,83.607,121.598,82.482,123.195z"/>
		<path fill="#FFFFFF" d="M8.215,48.928l74.268,74.268c1.125-1.598,2.172-3.387,3.141-5.342L10.559,42.787
			C9.666,44.801,8.887,46.852,8.215,48.928z"/>
		<path fill="#E4E4E4" d="M94.488,60.248l32.475,32.477c0.852-2.057,1.6-4.145,2.225-6.262l-35.4-35.4
			C94.107,54.078,94.338,57.15,94.488,60.248z"/>
		<path fill="#FFFFFF" d="M44.189,9.949l50.299,50.299c-0.15-3.098-0.381-6.17-0.701-9.186L50.451,7.727
			C48.334,8.352,46.244,9.098,44.189,9.949z"/>
		<path fill="#0B0B0B" d="M80.152,112.381l13.973,13.975c6.932-3.072,13.432-7.432,19.113-13.115
			c6.066-6.064,10.635-13.057,13.725-20.516L89.016,54.775C90.037,75.971,87.084,98.402,80.152,112.381z"/>
		<path fill="#151515" d="M23.672,23.674c-5.682,5.684-10.041,12.182-13.113,19.113l75.064,75.066
			c6.932-13.979,9.887-36.41,8.865-57.605L44.189,9.949C36.73,13.041,29.738,17.609,23.672,23.674z"/>
	</g>
</g>
</svg>
