<?xml version="1.0" encoding="utf-8"?>
<!-- Generator: Adobe Illustrator 16.0.0, SVG Export Plug-In . SVG Version: 6.00 Build 0)  -->
<!DOCTYPE svg PUBLIC "-//W3C//DTD SVG 1.1//EN" "http://www.w3.org/Graphics/SVG/1.1/DTD/svg11.dtd">
<svg version="1.1" id="Layer_1" xmlns="http://www.w3.org/2000/svg" xmlns:xlink="http://www.w3.org/1999/xlink" x="0px" y="0px"
	 width="136.913px" height="136.914px" viewBox="0 0 136.913 136.914" enable-background="new 0 0 136.913 136.914"
	 xml:space="preserve">
<g>
	<g>
		<path fill="#D32027" d="M68.457,5.124L68.455,131.79c34.979,0,63.334-28.355,63.334-63.332
			C131.789,33.478,103.436,5.124,68.457,5.124z"/>
		<polygon fill="#EFECEC" points="5.123,68.456 5.123,68.458 68.457,68.456 		"/>
		<polygon fill="#EFECEC" points="68.457,5.124 68.457,5.124 68.457,5.124 		"/>
		<path fill="#DB2727" d="M68.457,5.124L68.457,5.124v63.332L5.123,68.458c0,34.977,28.357,63.332,63.332,63.332
			C103.434,131.79,103.436,5.126,68.457,5.124z"/>
		<polygon fill="#EFECEC" points="68.457,5.124 68.455,5.124 68.457,5.124 		"/>
		<path fill="#EFECEC" d="M68.455,5.124c-34.975,0-63.33,28.354-63.332,63.332h63.334L68.455,5.124z"/>
		<polygon fill="#EFECEC" points="68.457,5.124 68.455,5.124 68.457,68.456 		"/>
	</g>
	<g>
		<rect x="35.645" y="23.733" fill="#D32027" width="12" height="36"/>
		<rect x="23.645" y="35.733" fill="#D32027" width="36" height="12"/>
	</g>
</g>
</svg>
