<?xml version="1.0" encoding="utf-8"?>
<!-- Generator: Adobe Illustrator 16.0.0, SVG Export Plug-In . SVG Version: 6.00 Build 0)  -->
<!DOCTYPE svg PUBLIC "-//W3C//DTD SVG 1.1//EN" "http://www.w3.org/Graphics/SVG/1.1/DTD/svg11.dtd">
<svg version="1.1" id="Layer_1" xmlns="http://www.w3.org/2000/svg" xmlns:xlink="http://www.w3.org/1999/xlink" x="0px" y="0px"
	 width="136.913px" height="136.913px" viewBox="0 0 136.913 136.913" enable-background="new 0 0 136.913 136.913"
	 xml:space="preserve">
<g>
	<g>
		<circle fill="#FFFFFF" cx="68.456" cy="68.458" r="63.333"/>
	</g>
	<g>
		<path fill="#3DAAE0" d="M128.17,47.341c-0.006-0.02-0.012-0.037-0.02-0.055c-8.105-22.855-28.955-39.67-54.006-41.902
			c9.693,5.314,12.525,22.15,15.004,41.957c1.695,13.529,1.705,28.436,0.033,41.982c-2.459,19.914-5.303,36.869-15.037,42.205
			c25.096-2.236,45.975-19.109,54.049-42.025c0.021-0.061,0.039-0.121,0.061-0.18c2.281-6.535,3.535-13.553,3.535-20.865
			C131.789,61.05,130.506,53.946,128.17,47.341z"/>
		<path fill="#44C1EF" d="M92.41,47.341c-2.48-19.807-8.572-36.643-18.266-41.957c-1.875-0.166-3.771-0.26-5.689-0.26
			c-27.551,0-50.98,17.596-59.693,42.162c-0.006,0.018-0.012,0.035-0.02,0.055C6.406,53.946,5.123,61.05,5.123,68.458
			c0,7.313,1.256,14.33,3.535,20.865c0.021,0.059,0.041,0.119,0.061,0.18c8.678,24.629,32.141,42.287,59.736,42.287
			c1.918,0,3.814-0.094,5.689-0.262c9.734-5.336,15.838-22.291,18.297-42.205C94.115,75.776,94.104,60.87,92.41,47.341z"/>
	</g>
	<g>
		<path fill="#E8BD1F" d="M106.291,68.458c0-12.482-6.045-23.549-15.365-30.439c0.588,3.006,1.084,6.125,1.484,9.322
			c1.693,13.529,1.705,28.436,0.031,41.982c-0.404,3.285-0.912,6.486-1.516,9.572C100.246,92.003,106.291,80.938,106.291,68.458z"/>
		<path fill="#FDCE0C" d="M92.41,47.341c-0.4-3.197-0.896-6.316-1.484-9.322c-6.285-4.646-14.055-7.396-22.469-7.396
			c-20.895,0-37.836,16.938-37.836,37.836c0,20.895,16.941,37.834,37.836,37.834c8.414,0,16.186-2.75,22.469-7.396
			c0.604-3.086,1.111-6.287,1.516-9.572C94.115,75.776,94.104,60.87,92.41,47.341z"/>
	</g>
</g>
</svg>
