<?xml version="1.0" encoding="utf-8"?>
<!-- Generator: Adobe Illustrator 16.0.0, SVG Export Plug-In . SVG Version: 6.00 Build 0)  -->
<!DOCTYPE svg PUBLIC "-//W3C//DTD SVG 1.1//EN" "http://www.w3.org/Graphics/SVG/1.1/DTD/svg11.dtd">
<svg version="1.1" id="Layer_1" xmlns="http://www.w3.org/2000/svg" xmlns:xlink="http://www.w3.org/1999/xlink" x="0px" y="0px"
	 width="136.914px" height="136.914px" viewBox="0 0 136.914 136.914" enable-background="new 0 0 136.914 136.914"
	 xml:space="preserve">
<g>
	<path fill="#DF1E26" d="M89.571,8.744l-7.391,20.49c6.822,22.516,6.822,55.932,0,78.448l7.391,20.49
		c24.595-8.697,42.219-32.143,42.219-59.715C131.79,40.886,114.166,17.441,89.571,8.744z"/>
	<path fill="#E1B623" d="M89.571,29.234V8.744c-6.605-2.336-13.709-3.619-21.115-3.619C78.222,5.125,64.681,38.222,89.571,29.234z"
		/>
	<path fill="#E1B623" d="M68.456,131.791c7.406,0,14.51-1.283,21.115-3.619v-20.49C64.931,105.223,68.456,131.791,68.456,131.791z"
		/>
	<path fill="#1F429A" d="M5.123,68.457c0,27.665,17.744,51.172,42.466,59.799V8.66C22.867,17.287,5.123,40.794,5.123,68.457z"/>
	<path fill="#ED2524" d="M89.571,29.234v78.448C96.394,85.166,96.394,51.75,89.571,29.234z"/>
	<path fill="#F3C515" d="M89.571,107.682V29.234C85.259,15.001,78.222,5.125,68.456,5.125c-7.314,0-14.331,1.256-20.867,3.535
		v119.596c6.536,2.281,13.553,3.535,20.867,3.535C78.222,131.791,85.259,121.914,89.571,107.682z"/>
</g>
</svg>
