<?xml version="1.0" encoding="utf-8"?>
<!-- Generator: Adobe Illustrator 16.0.0, SVG Export Plug-In . SVG Version: 6.00 Build 0)  -->
<!DOCTYPE svg PUBLIC "-//W3C//DTD SVG 1.1//EN" "http://www.w3.org/Graphics/SVG/1.1/DTD/svg11.dtd">
<svg version="1.1" id="Layer_1" xmlns="http://www.w3.org/2000/svg" xmlns:xlink="http://www.w3.org/1999/xlink" x="0px" y="0px"
	 width="136.914px" height="136.913px" viewBox="0 0 136.914 136.913" enable-background="new 0 0 136.914 136.913"
	 xml:space="preserve">
<g>
	<g>
		<g>
			<circle fill="#FFFFFF" cx="68.457" cy="68.457" r="63.333"/>
		</g>
		<g>
			<path fill="#BE2126" d="M128.171,47.34c-0.007-0.02-0.013-0.037-0.02-0.055C120.045,24.43,99.196,7.615,74.146,5.383
				c9.693,5.314,12.524,22.15,15.004,41.957c1.694,13.529,1.705,28.436,0.032,41.982c-2.459,19.914-5.302,36.869-15.036,42.205
				c25.096-2.236,45.975-19.109,54.049-42.025c0.021-0.061,0.039-0.121,0.061-0.18c2.28-6.535,3.535-13.553,3.535-20.865
				C131.79,61.049,130.507,53.945,128.171,47.34z"/>
			<path fill="#CD2227" d="M92.41,47.34c-2.479-19.807-8.571-36.643-18.265-41.957c-1.875-0.166-3.771-0.26-5.689-0.26
				c-27.551,0-50.981,17.596-59.693,42.162c-0.007,0.018-0.013,0.035-0.02,0.055c-2.336,6.605-3.619,13.709-3.619,21.117
				c0,7.313,1.255,14.33,3.535,20.865c0.021,0.059,0.04,0.119,0.061,0.18c8.678,24.629,32.14,42.287,59.736,42.287
				c1.918,0,3.814-0.094,5.689-0.262c9.734-5.336,15.838-22.291,18.297-42.205C94.115,75.775,94.104,60.869,92.41,47.34z"/>
		</g>
	</g>
	<g>
		<g>
			<path fill="#E4E4E4" d="M130.717,56.887H87.6c0.477,7.262,0.51,14.719,0.082,22h43.24c0.566-3.393,0.868-6.875,0.868-10.43
				C131.79,64.502,131.414,60.639,130.717,56.887z"/>
		</g>
		<path fill="#F3F4F5" d="M93.303,56.887H62.682V5.393c-7.834,0.707-15.252,2.844-22,6.145v45.35H6.197
			c-0.697,3.752-1.073,7.615-1.073,11.57c0,3.555,0.302,7.037,0.868,10.43h34.689v46.486c6.748,3.301,14.166,5.438,22,6.146V78.887
			h30.703C93.813,71.605,93.779,64.148,93.303,56.887z"/>
	</g>
</g>
</svg>
