<?xml version="1.0" encoding="utf-8"?>
<!-- Generator: Adobe Illustrator 16.0.0, SVG Export Plug-In . SVG Version: 6.00 Build 0)  -->
<!DOCTYPE svg PUBLIC "-//W3C//DTD SVG 1.1//EN" "http://www.w3.org/Graphics/SVG/1.1/DTD/svg11.dtd">
<svg version="1.1" id="Layer_1" xmlns="http://www.w3.org/2000/svg" xmlns:xlink="http://www.w3.org/1999/xlink" x="0px" y="0px"
	 width="136.913px" height="136.914px" viewBox="0 0 136.913 136.914" enable-background="new 0 0 136.913 136.914"
	 xml:space="preserve">
<g>
	<g>
		<g>
			<circle fill="#FFFFFF" cx="68.456" cy="68.457" r="63.333"/>
		</g>
	</g>
	<g>
		<path fill="#F3F4F5" d="M58.625,5.887C31.521,10.111,10.113,31.52,5.887,58.623h52.738V5.887z"/>
		<path fill="#F3F4F5" d="M5.887,78.289c4.225,27.104,25.635,48.514,52.738,52.738V78.289H5.887z"/>
	</g>
	<g>
		<g>
			<g>
				<rect x="34.9" y="27.133" fill="#DA1E37" width="5.41" height="21.5"/>
			</g>
			<g>
				<rect x="26.855" y="35.176" fill="#DA1E37" width="21.5" height="5.412"/>
			</g>
		</g>
		<g>
			<g>
				<rect x="34.9" y="89.633" fill="#DA1E37" width="5.41" height="21.5"/>
			</g>
			<g>
				<rect x="26.855" y="97.676" fill="#DA1E37" width="21.5" height="5.412"/>
			</g>
		</g>
	</g>
	<g>
		<path fill="#E4E4E4" d="M92.025,97.676h18.33v5.412H90.828c-2.73,10.996-6.908,19.973-12.537,24.807v3.131
			c27.102-4.227,48.51-25.635,52.734-52.736H91.521C91.131,85.008,93.221,91.572,92.025,97.676z"/>
		<path fill="#E4E4E4" d="M91.154,35.176h19.201v5.412H92.281c1.051,5.719-0.371,11.811-0.01,18.035h38.754
			c-4.225-27.102-25.633-48.51-52.734-52.736v3.131C84.148,14.051,88.436,23.566,91.154,35.176z"/>
		<path fill="#CF2028" d="M64.334,131.645c-0.469-0.029-0.939-0.064-1.408-0.104C63.393,131.582,63.863,131.615,64.334,131.645z"/>
		<path fill="#CF2028" d="M62.926,5.373c0.469-0.039,0.939-0.076,1.408-0.105C63.863,5.299,63.393,5.332,62.926,5.373z"/>
		<path fill="#CF2028" d="M65.555,5.197c0.969-0.043,1.936-0.074,2.9-0.074C67.482,5.123,66.518,5.152,65.555,5.197z"/>
		<path fill="#CF2028" d="M131.025,58.623H92.271c0.377,6.51,0.377,13.158,0,19.666h38.754c0.5-3.203,0.764-6.486,0.764-9.832
			S131.525,61.828,131.025,58.623z"/>
		<path fill="#CF2028" d="M68.455,131.789c3.346,0,6.631-0.264,9.836-0.764v-3.131C75.395,130.385,72.119,131.789,68.455,131.789z"
			/>
		<path fill="#CF2028" d="M78.291,5.887c-3.205-0.5-6.49-0.764-9.836-0.764c3.664,0,6.939,1.406,9.836,3.895V5.887z"/>
		<path fill="#CF2028" d="M68.455,131.789c-0.965,0-1.932-0.029-2.9-0.072C66.518,131.762,67.482,131.789,68.455,131.789z"/>
		<path fill="#CF2028" d="M110.355,40.588v-5.412H90.229c0.412,1.76,0.787,3.566,1.127,5.412H110.355z"/>
		<path fill="#CF2028" d="M110.355,103.088v-5.412h-19.25c-0.361,1.852-0.762,3.656-1.197,5.412H110.355z"/>
		<path fill="#FFFFFF" d="M64.334,5.268c0.406-0.025,0.813-0.053,1.221-0.07C65.148,5.215,64.742,5.242,64.334,5.268z"/>
		<path fill="#FFFFFF" d="M65.555,131.717c-0.408-0.018-0.814-0.045-1.221-0.072C64.742,131.67,65.148,131.699,65.555,131.717z"/>
		<path fill="#F3F4F5" d="M78.291,127.895c5.629-4.834,9.807-13.811,12.537-24.807h-1.973v-5.412h3.17
			c1.195-6.104,1.984-12.668,2.375-19.387H78.291V127.895z"/>
		<path fill="#F3F4F5" d="M88.855,40.588v-5.412h2.299c-2.719-11.609-7.006-21.125-12.863-26.158v49.605H94.4
			c-0.361-6.225-1.068-12.316-2.119-18.035H88.855z"/>
		<path fill="#DA1E37" d="M78.291,78.289H94.4c0.377-6.508,0.377-13.156,0-19.666H78.291V9.018
			c-2.896-2.488-6.172-3.895-9.836-3.895c-0.965,0-1.932,0.031-2.9,0.074c-0.408,0.018-0.814,0.045-1.221,0.07
			c-0.469,0.029-0.939,0.066-1.408,0.105c-1.447,0.127-2.883,0.293-4.301,0.514v52.736H5.887c-0.5,3.205-0.764,6.488-0.764,9.834
			s0.264,6.629,0.764,9.832h52.738v52.738c1.418,0.221,2.854,0.387,4.301,0.514c0.469,0.039,0.939,0.074,1.408,0.104
			c0.406,0.027,0.813,0.055,1.221,0.072c0.969,0.043,1.936,0.072,2.9,0.072c3.664,0,6.939-1.404,9.836-3.895V78.289z"/>
		<path fill="#DA1E37" d="M88.855,40.588h3.426c-0.34-1.846-0.715-3.652-1.127-5.412h-2.299V40.588z"/>
		<path fill="#DA1E37" d="M88.855,103.088h1.973c0.436-1.756,0.836-3.561,1.197-5.412h-3.17V103.088z"/>
	</g>
	<g>
		<rect x="96.9" y="89.633" fill="#CF2028" width="5.41" height="21.5"/>
	</g>
	<g>
		<rect x="96.9" y="27.133" fill="#CF2028" width="5.41" height="21.5"/>
	</g>
</g>
</svg>
