<?xml version="1.0" encoding="utf-8"?>
<!-- Generator: Adobe Illustrator 16.0.0, SVG Export Plug-In . SVG Version: 6.00 Build 0)  -->
<!DOCTYPE svg PUBLIC "-//W3C//DTD SVG 1.1//EN" "http://www.w3.org/Graphics/SVG/1.1/DTD/svg11.dtd">
<svg version="1.1" id="Layer_1" xmlns="http://www.w3.org/2000/svg" xmlns:xlink="http://www.w3.org/1999/xlink" x="0px" y="0px"
	 width="136.914px" height="136.914px" viewBox="0 0 136.914 136.914" enable-background="new 0 0 136.914 136.914"
	 xml:space="preserve">
<g>
	<g>
		<g>
			<circle fill="#FFFFFF" cx="68.457" cy="68.458" r="63.333"/>
		</g>
		<g>
			<path fill="#BE2126" d="M128.17,47.341c-0.007-0.02-0.013-0.037-0.02-0.055c-8.106-22.855-28.955-39.67-54.006-41.902
				c9.693,5.314,12.524,22.15,15.004,41.957c1.694,13.529,1.705,28.436,0.032,41.982c-2.459,19.914-5.302,36.869-15.036,42.205
				c25.096-2.236,45.975-19.109,54.049-42.025c0.021-0.061,0.039-0.121,0.061-0.18c2.28-6.535,3.535-13.553,3.535-20.865
				C131.79,61.05,130.506,53.946,128.17,47.341z"/>
			<path fill="#D32027" d="M92.41,47.341C89.93,27.534,83.838,10.698,74.145,5.384c-1.875-0.166-3.771-0.26-5.689-0.26
				c-27.551,0-50.981,17.596-59.693,42.162c-0.007,0.018-0.013,0.035-0.02,0.055C6.407,53.946,5.124,61.05,5.124,68.458
				c0,7.313,1.255,14.33,3.535,20.865c0.021,0.059,0.04,0.119,0.061,0.18c8.678,24.629,32.14,42.287,59.736,42.287
				c1.918,0,3.814-0.094,5.689-0.262c9.734-5.336,15.838-22.291,18.297-42.205C94.115,75.776,94.104,60.87,92.41,47.341z"/>
		</g>
		<g>
			<path fill="#F3F4F5" d="M93.681,81.534c0.537-9.129,0.495-18.477-0.102-27.582H65.216V5.206
				c-9.98,0.502-19.344,3.326-27.582,7.926v40.82H6.812c-1.093,4.66-1.688,9.512-1.688,14.506c0,4.482,0.473,8.855,1.359,13.076
				h31.151v42.248c8.238,4.598,17.602,7.422,27.582,7.926V81.534H93.681z"/>
			<path fill="#E4E4E4" d="M130.101,53.952h-26.495h-10.36c0.597,9.105,0.639,18.453,0.102,27.582h10.361h26.722
				c0.887-4.221,1.359-8.594,1.359-13.076C131.79,63.464,131.194,58.612,130.101,53.952z"/>
		</g>
	</g>
	<g>
		<g>
			<path fill="#2B479D" d="M130.716,56.888H87.599c0.477,7.262,0.51,14.719,0.082,22h43.24c0.566-3.393,0.868-6.875,0.868-10.43
				C131.79,64.503,131.414,60.64,130.716,56.888z"/>
		</g>
		<path fill="#3757A6" d="M93.302,56.888H62.681V5.394c-7.834,0.707-15.252,2.844-22,6.145v45.35H6.197
			C5.5,60.64,5.124,64.503,5.124,68.458c0,3.555,0.302,7.037,0.868,10.43h34.689v46.486c6.748,3.301,14.166,5.438,22,6.146V78.888
			h30.703C93.812,71.606,93.779,64.149,93.302,56.888z"/>
	</g>
</g>
</svg>
