<?xml version="1.0" encoding="utf-8"?>
<!-- Generator: Adobe Illustrator 16.0.0, SVG Export Plug-In . SVG Version: 6.00 Build 0)  -->
<!DOCTYPE svg PUBLIC "-//W3C//DTD SVG 1.1//EN" "http://www.w3.org/Graphics/SVG/1.1/DTD/svg11.dtd">
<svg version="1.1" id="Layer_1" xmlns="http://www.w3.org/2000/svg" xmlns:xlink="http://www.w3.org/1999/xlink" x="0px" y="0px"
	 width="136.913px" height="136.914px" viewBox="0 0 136.913 136.914" enable-background="new 0 0 136.913 136.914"
	 xml:space="preserve">
<g>
	<g>
		<g>
			<circle fill="#D62427" cx="68.456" cy="68.458" r="63.333"/>
		</g>
	</g>
	<g>
		<g>
			<path fill="#DC3027" d="M5.123,68.458c0-34.981,28.355-63.334,63.332-63.334c34.979,0,34.979,126.667,0,126.667
				C33.479,131.79,5.123,103.435,5.123,68.458z"/>
		</g>
	</g>
	<g>
		<polygon fill="#F8D12E" points="41.656,22.561 44.611,31.661 54.18,31.661 46.439,37.282 49.396,46.382 41.656,40.759 
			33.916,46.382 36.873,37.282 29.133,31.661 38.699,31.661 		"/>
		<polygon fill="#F8D12E" points="63.975,17.385 63.043,20.577 65.789,22.45 62.467,22.547 61.537,25.741 60.414,22.61 
			57.09,22.711 59.721,20.676 58.598,17.547 61.346,19.42 		"/>
		<polygon fill="#F8D12E" points="63.975,45.972 63.043,49.163 65.789,51.036 62.467,51.134 61.537,54.327 60.414,51.196 
			57.09,51.298 59.721,49.263 58.598,46.134 61.346,48.005 		"/>
		<polygon fill="#F8D12E" points="72.078,26.098 71.146,29.29 73.893,31.163 70.57,31.262 69.639,34.454 68.516,31.323 
			65.193,31.424 67.822,29.389 66.701,26.26 69.449,28.133 		"/>
		<polygon fill="#F8D12E" points="72.078,37.752 71.146,40.944 73.893,42.817 70.57,42.915 69.639,46.108 68.516,42.978 
			65.193,43.079 67.822,41.044 66.701,37.915 69.449,39.786 		"/>
	</g>
</g>
</svg>
