<?xml version="1.0" encoding="utf-8"?>
<!-- Generator: Adobe Illustrator 16.0.0, SVG Export Plug-In . SVG Version: 6.00 Build 0)  -->
<!DOCTYPE svg PUBLIC "-//W3C//DTD SVG 1.1//EN" "http://www.w3.org/Graphics/SVG/1.1/DTD/svg11.dtd">
<svg version="1.1" id="Layer_1" xmlns="http://www.w3.org/2000/svg" xmlns:xlink="http://www.w3.org/1999/xlink" x="0px" y="0px"
	 width="136.913px" height="136.914px" viewBox="0 0 136.913 136.914" enable-background="new 0 0 136.913 136.914"
	 xml:space="preserve">
<g>
	<g>
		<path fill="#E8BD1F" d="M89.571,8.742l-7.391,20.492c6.822,22.514,6.822,55.93,0,78.445l7.391,20.49
			c24.595-8.697,42.219-32.141,42.219-59.715C131.79,40.885,114.166,17.439,89.571,8.742z"/>
		<path fill="#D32027" d="M89.571,29.234V8.742c-6.605-2.336-13.709-3.619-21.115-3.619C78.222,5.123,64.681,38.221,89.571,29.234z"
			/>
		<path fill="#D32027" d="M68.456,131.789c7.406,0,14.51-1.283,21.115-3.619v-20.49C64.931,105.221,68.456,131.789,68.456,131.789z"
			/>
		<path fill="#359846" d="M5.123,68.455c0,27.666,17.744,51.172,42.466,59.799V8.66C22.867,17.287,5.123,40.793,5.123,68.455z"/>
		<path fill="#F8D12E" d="M89.571,29.234v78.445C96.394,85.164,96.394,51.748,89.571,29.234z"/>
		<path fill="#DB2727" d="M89.571,107.68V29.234C85.259,15,78.222,5.123,68.456,5.123c-7.314,0-14.331,1.256-20.867,3.537v119.594
			c6.536,2.281,13.553,3.535,20.867,3.535C78.222,131.789,85.259,121.912,89.571,107.68z"/>
	</g>
	<polygon fill="#F8D12E" points="68.093,54.678 71.479,65.102 82.439,65.102 73.572,71.543 76.959,81.967 68.093,75.523 
		59.227,81.967 62.613,71.543 53.746,65.102 64.706,65.102 	"/>
</g>
</svg>
