<?xml version="1.0" encoding="utf-8"?>
<!-- Generator: Adobe Illustrator 16.0.0, SVG Export Plug-In . SVG Version: 6.00 Build 0)  -->
<!DOCTYPE svg PUBLIC "-//W3C//DTD SVG 1.1//EN" "http://www.w3.org/Graphics/SVG/1.1/DTD/svg11.dtd">
<svg version="1.1" id="Layer_1" xmlns="http://www.w3.org/2000/svg" xmlns:xlink="http://www.w3.org/1999/xlink" x="0px" y="0px"
	 width="136.913px" height="136.913px" viewBox="0 0 136.913 136.913" enable-background="new 0 0 136.913 136.913"
	 xml:space="preserve">
<g>
	<path fill="#258F44" d="M31.244,68.457c0-4.904,0.959-9.582,2.682-13.869L11.719,40.316c-4.215,8.479-6.596,18.029-6.596,28.141
		S7.506,88.119,11.719,96.6l22.207-14.273C32.203,78.039,31.244,73.361,31.244,68.457z"/>
	<g>
		<path fill="#C32126" d="M92.135,39.773c1.148,0.951,2.248,1.961,3.275,3.041l22.209-14.273
			C106.006,14.256,88.301,5.123,68.455,5.123C80.486,5.123,88.379,20.111,92.135,39.773z"/>
		<path fill="#D32027" d="M64.742,5.23c0.012,0,0.021,0,0.033-0.002C64.764,5.23,64.754,5.23,64.742,5.23z"/>
		<path fill="#238240" d="M125.195,40.316l-22.207,14.271c1.725,4.287,2.682,8.965,2.682,13.869s-0.957,9.582-2.682,13.869
			l22.205,14.271c4.215-8.479,6.596-18.029,6.596-28.141S129.408,48.795,125.195,40.316z"/>
		<path fill="#D32027" d="M64.773,131.684c-0.01,0-0.02,0-0.029-0.002C64.754,131.684,64.764,131.684,64.773,131.684z"/>
		<path fill="#C32126" d="M92.135,97.139c-3.756,19.664-11.648,34.65-23.68,34.65c19.844,0,37.549-9.133,49.162-23.416L95.408,94.1
			C94.381,95.18,93.283,96.189,92.135,97.139z"/>
		<path fill="#E4E4E4" d="M105.67,68.457c0-4.904-0.957-9.582-2.682-13.869l22.207-14.271c-2.094-4.213-4.639-8.16-7.576-11.775
			L95.41,42.814c-1.027-1.08-2.127-2.09-3.275-3.041c2.01,10.527,2.83,22.395,2.467,34.02h3.334l-2.848,5.359l3.033,5.225h-4.189
			c-0.422,4.393-1.018,8.68-1.797,12.762c1.148-0.949,2.246-1.959,3.273-3.039l22.209,14.273c2.939-3.615,5.482-7.563,7.576-11.775
			l-22.205-14.271C104.713,78.039,105.67,73.361,105.67,68.457z"/>
		<path fill="#C32126" d="M96.721,83.57l-2.391-4.117c-0.09,1.381-0.195,2.754-0.32,4.117H96.721z"/>
		<path fill="#C32126" d="M96.596,74.6h-2.018c-0.051,1.4-0.123,2.795-0.207,4.186L96.596,74.6z"/>
		<path fill="#258F44" d="M97.266,74.197l-2.639,4.965l2.793,4.811h-3.449c-0.012,0.135-0.025,0.27-0.039,0.404h4.189l-3.033-5.225
			l2.848-5.359h-3.334c-0.004,0.135-0.006,0.27-0.01,0.404H97.266z"/>
		<path fill="#258F44" d="M94.627,79.162l2.639-4.965h-2.674c-0.004,0.135-0.01,0.268-0.014,0.402h2.018l-2.225,4.186
			c-0.014,0.223-0.027,0.445-0.041,0.668l2.391,4.117H94.01c-0.012,0.135-0.025,0.268-0.039,0.402h3.449L94.627,79.162z"/>
		<path fill="#258F44" d="M64.775,5.229c1.217-0.068,2.445-0.105,3.68-0.105C67.238,5.123,66.01,5.162,64.775,5.229z"/>
		<path fill="#258F44" d="M68.455,131.789c-1.234,0-2.463-0.035-3.682-0.105C66.01,131.752,67.238,131.789,68.455,131.789z"/>
		<path fill="#D32027" d="M19.295,28.541l22.209,14.273c6.779-7.123,16.344-11.57,26.953-11.57c9.002,0,17.242,3.209,23.678,8.529
			c-3.756-19.662-11.648-34.65-23.68-34.65c-1.234,0-2.463,0.037-3.68,0.105C64.764,5.23,64.754,5.23,64.742,5.23
			C46.412,6.291,30.178,15.152,19.295,28.541z"/>
		<path fill="#D32027" d="M92.135,97.139c-6.434,5.32-14.676,8.531-23.678,8.531c-10.607,0-20.172-4.447-26.951-11.57
			l-22.209,14.273c10.883,13.389,27.115,22.248,45.447,23.309c0.01,0.002,0.02,0.002,0.029,0.002
			c1.219,0.07,2.447,0.105,3.682,0.105C80.486,131.789,88.379,116.803,92.135,97.139z"/>
		<path fill="#F3F2F2" d="M41.504,42.814L19.295,28.541c-2.939,3.615-5.482,7.563-7.576,11.775l22.207,14.271
			c-1.723,4.287-2.682,8.965-2.682,13.869s0.959,9.582,2.682,13.869L11.719,96.6c2.094,4.211,4.639,8.158,7.578,11.773L41.506,94.1
			c6.779,7.123,16.344,11.57,26.951,11.57c9.002,0,17.244-3.211,23.678-8.531c0.779-4.082,1.375-8.369,1.797-12.762H91.9l-3.18,5.02
			l-3.016-5.027l-6.043-0.166L82.68,79l-2.855-5.207h6.043l3.182-5.195l3.018,5.195h2.535c0.363-11.625-0.457-23.492-2.467-34.02
			c-6.436-5.32-14.676-8.529-23.678-8.529C57.848,31.244,48.283,35.691,41.504,42.814z"/>
		<path fill="#D32027" d="M89.031,70.17l-2.713,4.43h-5.133l2.42,4.412l-2.566,4.422l5.129,0.143l2.572,4.285l2.717-4.291h2.553
			c0.125-1.363,0.23-2.736,0.32-4.117l-0.164-0.283l0.205-0.385c0.084-1.391,0.156-2.785,0.207-4.186h-2.977L89.031,70.17z"/>
		<path fill="#258F44" d="M89.049,68.598l-3.182,5.195h-6.043L82.68,79l-3.018,5.203l6.043,0.166l3.016,5.027l3.18-5.02h2.031
			c0.014-0.135,0.027-0.27,0.039-0.404H91.68l-2.949,4.656l-2.795-4.656l-5.586-0.154l2.793-4.813l-2.639-4.809h5.588l2.947-4.813
			l2.795,4.813h2.758c0.004-0.135,0.006-0.27,0.01-0.404h-2.535L89.049,68.598z"/>
		<path fill="#258F44" d="M94.33,79.453c0.014-0.223,0.027-0.445,0.041-0.668l-0.205,0.385L94.33,79.453z"/>
		<path fill="#258F44" d="M91.457,83.57l-2.717,4.291l-2.572-4.285l-5.129-0.143l2.566-4.422l-2.42-4.412h5.133l2.713-4.43
			l2.57,4.43h2.977c0.004-0.135,0.01-0.268,0.014-0.402h-2.758l-2.795-4.813l-2.947,4.813h-5.588l2.639,4.809l-2.793,4.813
			l5.586,0.154l2.795,4.656l2.949-4.656h2.291c0.014-0.135,0.027-0.268,0.039-0.402H91.457z"/>
	</g>
	<g>
		<g>
			<g>
				<polygon fill-rule="evenodd" clip-rule="evenodd" fill="#D32027" points="69.105,57.828 72.055,53.172 77.797,53.172 
					75.004,48.359 77.643,43.395 72.211,43.395 69.416,38.584 66.469,43.395 60.881,43.395 63.52,48.205 60.727,53.018 
					66.313,53.172 				"/>
				<path fill="#258F44" d="M69.098,58.596l-3.018-5.027L60.037,53.4l3.02-5.201l-2.855-5.207h6.041l3.184-5.195l3.018,5.195h5.869
					l-2.848,5.359l3.031,5.223h-6.219L69.098,58.596z M61.414,52.633l5.131,0.143l2.57,4.285l2.719-4.291h5.264l-2.557-4.4
					l2.432-4.572h-4.994l-2.572-4.428l-2.711,4.428h-5.133l2.42,4.414L61.414,52.633z"/>
			</g>
		</g>
	</g>
	<g>
		<g>
			<g>
				<polygon fill-rule="evenodd" clip-rule="evenodd" fill="#D32027" points="49.277,88.629 52.227,83.973 57.969,83.973 
					55.176,79.162 57.814,74.197 52.383,74.197 49.588,69.385 46.641,74.197 41.053,74.197 43.691,79.006 40.898,83.818 
					46.484,83.973 				"/>
				<path fill="#258F44" d="M49.27,89.396l-3.018-5.027l-6.043-0.166L43.229,79l-2.855-5.207h6.041l3.184-5.195l3.018,5.195h5.869
					l-2.848,5.359l3.031,5.225h-6.219L49.27,89.396z M41.586,83.434l5.131,0.143l2.57,4.285l2.719-4.291h5.264l-2.555-4.4l2.43-4.57
					H52.15l-2.572-4.43l-2.711,4.43h-5.133l2.42,4.412L41.586,83.434z"/>
			</g>
		</g>
	</g>
</g>
</svg>
