<?xml version="1.0" encoding="utf-8"?>
<!-- Generator: Adobe Illustrator 16.0.0, SVG Export Plug-In . SVG Version: 6.00 Build 0)  -->
<!DOCTYPE svg PUBLIC "-//W3C//DTD SVG 1.1//EN" "http://www.w3.org/Graphics/SVG/1.1/DTD/svg11.dtd">
<svg version="1.1" id="Layer_1" xmlns="http://www.w3.org/2000/svg" xmlns:xlink="http://www.w3.org/1999/xlink" x="0px" y="0px"
	 width="136.913px" height="136.914px" viewBox="0 0 136.913 136.914" enable-background="new 0 0 136.913 136.914"
	 xml:space="preserve">
<g>
	<g>
		<g>
			<circle fill="#FFFFFF" cx="68.456" cy="68.458" r="63.333"/>
		</g>
		<g>
			<path fill="#1C468C" d="M128.17,47.341c-0.006-0.02-0.012-0.037-0.02-0.055c-8.105-22.855-28.955-39.67-54.006-41.902
				c9.693,5.314,12.525,22.15,15.004,41.957c1.695,13.529,1.705,28.435,0.033,41.982c-2.459,19.914-5.303,36.869-15.037,42.205
				c25.096-2.236,45.975-19.109,54.049-42.025c0.021-0.061,0.039-0.121,0.061-0.18c2.281-6.535,3.535-13.553,3.535-20.865
				C131.789,61.05,130.506,53.947,128.17,47.341z"/>
			<path fill="#27509F" d="M92.41,47.341c-2.48-19.807-8.572-36.643-18.266-41.957c-1.875-0.166-3.771-0.26-5.689-0.26
				c-27.551,0-50.98,17.596-59.693,42.162c-0.006,0.018-0.012,0.035-0.02,0.055C6.406,53.947,5.123,61.05,5.123,68.458
				c0,7.313,1.256,14.33,3.535,20.865c0.021,0.059,0.041,0.119,0.061,0.18c8.678,24.629,32.141,42.287,59.736,42.287
				c1.918,0,3.814-0.094,5.689-0.262c9.734-5.336,15.838-22.291,18.297-42.205C94.115,75.776,94.104,60.871,92.41,47.341z"/>
		</g>
	</g>
	<g>
		<path fill="#F1B91B" d="M130.941,78.749c0.078-0.471,0.141-0.945,0.207-1.418c0.076-0.525,0.146-1.053,0.209-1.582
			c0.049-0.438,0.096-0.875,0.137-1.313c0.061-0.625,0.107-1.252,0.148-1.881c0.023-0.359,0.051-0.717,0.068-1.076
			c0.047-1.002,0.078-2.008,0.078-3.021c0-1.137-0.039-2.261-0.1-3.382c-0.02-0.367-0.051-0.73-0.078-1.098
			c-0.053-0.756-0.119-1.51-0.199-2.26c-0.045-0.414-0.092-0.826-0.145-1.238c-0.096-0.738-0.205-1.471-0.324-2.201
			c-0.061-0.363-0.113-0.73-0.178-1.092c-0.018-0.1-0.031-0.201-0.049-0.299h-0.014c-0.182-0.984-0.375-1.967-0.602-2.936h-26.496
			H90.58c0.063,0.973,0.096,1.957,0.146,2.936H87.6c0.477,7.262,0.51,14.718,0.082,22h3.113c-0.041,0.881-0.063,1.768-0.113,2.646
			h13.027h26.721c0.184-0.875,0.34-1.76,0.486-2.646h0.006C130.93,78.841,130.934,78.796,130.941,78.749z"/>
		<path fill="#FAC80D" d="M93.303,56.888h-0.029c-0.051-0.979-0.084-1.963-0.146-2.936h-27.91V5.207
			c-0.852,0.043-1.693,0.125-2.535,0.201V5.394c-0.145,0.014-0.287,0.035-0.43,0.049C61.664,5.5,61.08,5.57,60.498,5.642
			c-0.531,0.066-1.057,0.141-1.582,0.221c-0.559,0.084-1.117,0.168-1.67,0.268c-0.6,0.107-1.191,0.232-1.785,0.355
			c-0.48,0.102-0.965,0.191-1.441,0.303c-0.984,0.23-1.959,0.484-2.926,0.76c-0.42,0.121-0.832,0.254-1.248,0.383
			c-0.643,0.197-1.281,0.4-1.914,0.617c-0.418,0.143-0.834,0.293-1.248,0.445c-0.65,0.238-1.295,0.488-1.936,0.748
			c-0.365,0.146-0.73,0.291-1.092,0.445c-0.846,0.359-1.68,0.738-2.506,1.135c-0.143,0.068-0.287,0.129-0.43,0.197
			c-0.014,0.008-0.025,0.014-0.039,0.02v0.002c-1.031,0.504-2.049,1.033-3.047,1.592v40.82H6.813
			c-0.227,0.969-0.42,1.951-0.604,2.936H6.197c-0.02,0.098-0.031,0.199-0.049,0.299c-0.066,0.361-0.119,0.729-0.178,1.092
			c-0.119,0.73-0.23,1.463-0.324,2.201c-0.053,0.412-0.1,0.824-0.145,1.238c-0.082,0.75-0.146,1.504-0.201,2.26
			c-0.025,0.367-0.057,0.73-0.076,1.098c-0.061,1.121-0.102,2.246-0.102,3.382c0,1.014,0.031,2.02,0.08,3.02
			c0.018,0.361,0.045,0.721,0.068,1.08c0.041,0.627,0.088,1.254,0.148,1.877c0.041,0.439,0.086,0.879,0.137,1.314
			c0.063,0.529,0.133,1.055,0.207,1.58c0.066,0.475,0.131,0.949,0.209,1.42c0.006,0.047,0.012,0.092,0.02,0.139h0.004
			c0.148,0.887,0.303,1.771,0.486,2.646h31.152v42.248c0.998,0.557,2.016,1.086,3.047,1.59v0.002
			c0.004,0.002,0.008,0.004,0.012,0.006c0.207,0.102,0.42,0.191,0.629,0.289c0.762,0.363,1.531,0.715,2.311,1.047
			c0.383,0.164,0.768,0.316,1.152,0.471c0.623,0.252,1.248,0.494,1.881,0.727c0.422,0.156,0.848,0.309,1.275,0.455
			c0.627,0.215,1.264,0.416,1.9,0.613c0.416,0.127,0.83,0.262,1.25,0.383c0.98,0.279,1.971,0.539,2.971,0.771
			c0.449,0.105,0.906,0.189,1.359,0.283c0.609,0.129,1.219,0.256,1.834,0.365c0.545,0.098,1.094,0.182,1.643,0.266
			c0.535,0.08,1.072,0.156,1.611,0.223c0.576,0.072,1.154,0.141,1.734,0.197c0.146,0.016,0.291,0.037,0.438,0.051v-0.016
			c0.842,0.076,1.684,0.16,2.535,0.203V81.534h28.012c0.051-0.879,0.072-1.766,0.113-2.646h0.043
			C93.813,71.606,93.779,64.15,93.303,56.888z"/>
	</g>
</g>
</svg>
