<?xml version="1.0" encoding="utf-8"?>
<!-- Generator: Adobe Illustrator 16.0.0, SVG Export Plug-In . SVG Version: 6.00 Build 0)  -->
<!DOCTYPE svg PUBLIC "-//W3C//DTD SVG 1.1//EN" "http://www.w3.org/Graphics/SVG/1.1/DTD/svg11.dtd">
<svg version="1.1" id="Layer_1" xmlns="http://www.w3.org/2000/svg" xmlns:xlink="http://www.w3.org/1999/xlink" x="0px" y="0px"
	 width="136.913px" height="136.913px" viewBox="0 0 136.913 136.913" enable-background="new 0 0 136.913 136.913"
	 xml:space="preserve">
<g>
	<g>
		<g>
			<circle fill="#FFFFFF" cx="68.47" cy="68.458" r="63.333"/>
		</g>
		<g>
			<path fill="#C32127" d="M128.184,47.341H89.162c1.693,13.529,1.705,28.436,0.031,41.982h39.074
				c2.279-6.535,3.535-13.553,3.535-20.865C131.803,61.05,130.52,53.946,128.184,47.341z"/>
			<path fill="#CD2029" d="M5.137,68.458c0,7.313,1.254,14.33,3.535,20.865h83.783c1.672-13.547,1.662-28.453-0.033-41.982H8.756
				C6.42,53.946,5.137,61.05,5.137,68.458z"/>
			<g>
				<path fill="#0B0B0B" d="M88.566,42.733h3.855h33.918c-9.129-20.51-28.826-35.27-52.182-37.35
					C83.09,10.28,85.76,24.962,88.566,42.733z"/>
				<path fill="#198441" d="M89.193,93.983c-2.795,17.859-6.07,32.631-15.035,37.545c23.428-2.088,43.178-16.936,52.27-37.545
					H92.455H89.193z"/>
				<path fill="#E4E4E4" d="M91.768,42.733c0.24,1.516,0.459,3.051,0.654,4.607h35.762c-0.008-0.02-0.014-0.037-0.02-0.055
					c-0.549-1.547-1.162-3.064-1.824-4.553H92.422H91.768z"/>
				<path fill="#E4E4E4" d="M128.268,89.323H92.455c-0.195,1.574-0.414,3.127-0.654,4.66h0.654h33.973
					c0.646-1.467,1.242-2.959,1.779-4.48C128.227,89.442,128.246,89.382,128.268,89.323z"/>
				<path fill="#151515" d="M74.158,5.384c-1.875-0.166-3.771-0.26-5.689-0.26c-25.818,0-48.016,15.451-57.877,37.609h77.975h0.596
					h2.605C88.961,24.962,83.09,10.28,74.158,5.384z"/>
				<path fill="#F3F4F5" d="M91.768,42.733h-2.605h-0.596H10.592c-0.662,1.488-1.27,3.006-1.816,4.553
					c-0.008,0.018-0.014,0.035-0.02,0.055h80.406h3.26C92.227,45.784,92.008,44.249,91.768,42.733z"/>
				<path fill="#1A9647" d="M89.193,93.983H88.6H10.508c9.816,22.262,32.068,37.807,57.961,37.807c1.918,0,3.814-0.094,5.689-0.262
					c8.965-4.914,14.848-19.686,17.643-37.545H89.193z"/>
				<path fill="#F3F4F5" d="M89.193,89.323H8.672c0.021,0.059,0.039,0.119,0.061,0.18c0.535,1.521,1.129,3.016,1.775,4.48H88.6
					h0.594h2.607c0.24-1.533,0.459-3.086,0.654-4.66H89.193z"/>
			</g>
		</g>
	</g>
	<g>
		<path fill="#214391" d="M68.443,68.597L12.654,38.595h-0.002c-4.811,8.93-7.541,19.146-7.541,30.002
			c0,10.764,2.691,20.895,7.43,29.77l55.902-29.76"/>
	</g>
	<polygon fill="#F8D12E" points="21.168,54.251 27.42,62.612 37.305,59.247 31.285,67.776 37.541,76.138 27.566,73.05 
		21.549,81.583 21.402,71.142 11.43,68.056 21.313,64.69 	"/>
</g>
</svg>
