<?xml version="1.0" encoding="utf-8"?>
<!-- Generator: Adobe Illustrator 16.0.0, SVG Export Plug-In . SVG Version: 6.00 Build 0)  -->
<!DOCTYPE svg PUBLIC "-//W3C//DTD SVG 1.1//EN" "http://www.w3.org/Graphics/SVG/1.1/DTD/svg11.dtd">
<svg version="1.1" id="Layer_1" xmlns="http://www.w3.org/2000/svg" xmlns:xlink="http://www.w3.org/1999/xlink" x="0px" y="0px"
	 width="136.913px" height="136.914px" viewBox="0 0 136.913 136.914" enable-background="new 0 0 136.913 136.914"
	 xml:space="preserve">
<g>
	<path fill="#263778" d="M68.455,131.789c18.375,0,34.914-7.832,46.484-20.332H84.146C79.775,123.627,77.33,131.789,68.455,131.789z
		"/>
	<path fill="#263778" d="M85.646,25.455h29.293C103.369,12.957,86.83,5.123,68.455,5.123C77.33,5.123,81.275,13.285,85.646,25.455z"
		/>
	<path fill="#E4E4E4" d="M87.396,40.576h37.932c-2.725-5.545-6.236-10.633-10.389-15.121H83.438
		C85.072,30.008,86.393,35.119,87.396,40.576z"/>
	<path fill="#E4E4E4" d="M85.396,111.457h29.543c4.152-4.486,7.664-9.574,10.389-15.121H89.355
		C88.352,101.795,87.031,106.906,85.396,111.457z"/>
	<path fill="#CD2029" d="M125.328,40.576H88.396c3.207,17.42,3.207,38.342,0,55.76h36.932c4.133-8.412,6.461-17.871,6.461-27.879
		C131.789,58.451,129.461,48.99,125.328,40.576z"/>
	<path fill="#214183" d="M88.32,111.457H21.975c11.568,12.5,28.107,20.332,46.48,20.332C77.33,131.789,83.949,123.627,88.32,111.457
		z"/>
	<path fill="#214183" d="M21.973,25.455H88.32C83.949,13.285,77.33,5.123,68.455,5.123C50.082,5.123,33.543,12.957,21.973,25.455z"
		/>
	<path fill="#F3F2F2" d="M21.973,25.455c-4.152,4.488-7.664,9.576-10.389,15.121h80.695c-1.006-5.457-2.324-10.568-3.959-15.121
		H21.973z"/>
	<path fill="#F3F2F2" d="M21.975,111.457H88.32c1.635-4.551,2.953-9.662,3.959-15.121H11.586
		C14.309,101.883,17.82,106.971,21.975,111.457z"/>
	<path fill="#D71F37" d="M5.123,68.457c0,10.008,2.33,19.467,6.463,27.879h80.693c3.207-17.418,3.207-38.34,0-55.76H11.584
		C7.453,48.99,5.123,58.451,5.123,68.457z"/>
</g>
</svg>
