<?xml version="1.0" encoding="utf-8"?>
<!-- Generator: Adobe Illustrator 16.0.0, SVG Export Plug-In . SVG Version: 6.00 Build 0)  -->
<!DOCTYPE svg PUBLIC "-//W3C//DTD SVG 1.1//EN" "http://www.w3.org/Graphics/SVG/1.1/DTD/svg11.dtd">
<svg version="1.1" id="Layer_1" xmlns="http://www.w3.org/2000/svg" xmlns:xlink="http://www.w3.org/1999/xlink" x="0px" y="0px"
	 width="136.913px" height="136.914px" viewBox="0 0 136.913 136.914" enable-background="new 0 0 136.913 136.914"
	 xml:space="preserve">
<g>
	<g>
		<path fill="#DB2727" d="M55.756,71.789H43.563L5.504,75.354c0.748,6.898,2.609,13.461,5.391,19.514l34.439-16.746L55.756,71.789z"
			/>
		<path fill="#DB2727" d="M64.906,74.557l-15.877,9.646l-30.756,22.869c9.16,11.887,22.439,20.434,37.711,23.482l8.922-49.406
			V74.557z"/>
		<path fill="#DB2727" d="M64.906,61.904v-6.592L56.063,6.344c-15.18,3.012-28.396,11.453-37.564,23.211l30.531,22.703
			L64.906,61.904z"/>
		<path fill="#DB2727" d="M55.754,64.672l-10.42-6.33L11.063,41.678c-2.814,6.021-4.707,12.559-5.502,19.434l38.002,3.561H55.754z"
			/>
		<path fill="#FDE73D" d="M55.756,71.789l5.855-3.559l-5.857-3.559H43.563L5.561,61.111c-0.279,2.412-0.438,4.859-0.438,7.346
			c0,2.332,0.135,4.631,0.381,6.896l38.059-3.564H55.756z"/>
		<path fill="#FDE73D" d="M64.906,74.557v-2.768h-9.15l-10.422,6.332L10.895,94.867c2.004,4.357,4.482,8.447,7.379,12.205
			l30.756-22.869L64.906,74.557z"/>
		<polygon fill="#FDE500" points="64.906,71.789 64.906,74.557 68.465,72.395 67.469,71.789 		"/>
		<polygon fill="#FDE500" points="72.023,64.672 72.023,61.904 68.465,64.066 69.461,64.672 		"/>
		<polygon fill="#FDE500" points="75.318,68.23 81.178,64.672 72.023,64.672 72.023,66.229 		"/>
		<polygon fill="#FDE500" points="61.611,68.23 55.756,71.789 64.906,71.789 64.906,70.232 		"/>
		<polygon fill="#FDE500" points="72.023,66.229 72.023,64.672 69.461,64.672 		"/>
		<polygon fill="#FDE500" points="64.906,70.232 64.906,71.789 67.469,71.789 		"/>
		<path fill="#FDE73D" d="M55.754,64.672h9.152v-2.768l-15.877-9.646L18.498,29.555c-2.91,3.73-5.412,7.791-7.436,12.123
			l34.271,16.664L55.754,64.672z"/>
		<polygon fill="#FDE500" points="68.465,72.395 72.023,74.557 72.023,71.789 69.463,71.789 		"/>
		<polygon fill="#FDE500" points="68.465,64.066 64.906,61.904 64.906,64.672 67.469,64.672 		"/>
		<polygon fill="#FDE500" points="72.023,70.232 72.023,71.789 81.174,71.789 75.318,68.23 		"/>
		<polygon fill="#FDE500" points="64.906,64.672 55.754,64.672 61.611,68.23 64.906,66.229 		"/>
		<polygon fill="#FDE500" points="69.463,71.789 72.023,71.789 72.023,70.232 		"/>
		<polygon fill="#FDE500" points="67.469,64.672 64.906,64.672 64.906,66.229 		"/>
		<polygon fill="#FDE500" points="67.469,71.789 68.465,72.395 69.463,71.789 		"/>
		<polygon fill="#FDE500" points="69.461,64.672 68.465,64.066 67.469,64.672 		"/>
		<polygon fill="#FDE500" points="72.023,70.232 75.318,68.23 72.023,66.229 		"/>
		<polygon fill="#FDE500" points="64.906,66.229 61.611,68.23 64.906,70.232 		"/>
		<polygon fill="#FDE500" points="69.461,64.672 67.469,64.672 64.906,66.229 64.906,70.232 67.469,71.789 69.463,71.789 
			72.023,70.232 72.023,66.229 		"/>
	</g>
	<g>
		<path fill="#CD2027" d="M93.967,64.566l37.385-3.453c-0.793-6.873-2.684-13.408-5.498-19.43L93.467,57.482
			C93.635,59.973,93.91,62.043,93.967,64.566z"/>
		<path fill="#CD2027" d="M92.301,48.982l26.121-19.42C109.256,17.807,96.045,9.363,80.867,6.348l-0.9,5.301
			C86.869,19.07,90.289,33.025,92.301,48.982z"/>
		<path fill="#CD2027" d="M93.801,79.148l32.221,15.711c2.779-6.051,4.641-12.609,5.387-19.508l-37.441-3.453
			C93.916,74.426,93.963,76.652,93.801,79.148z"/>
		<path fill="#CD2027" d="M80.145,126.107l0.803,4.445c15.266-3.055,28.541-11.602,37.699-23.488L92.133,87.316
			C90.154,103.391,87.068,118.604,80.145,126.107z"/>
		<path fill="#FDE500" d="M68.455,131.789c4.277,0,8.453-0.43,12.492-1.236l-1.064-5.986
			C76.557,128.172,72.924,131.789,68.455,131.789z"/>
		<path fill="#FDE500" d="M79.967,11.648l0.9-5.301c-4.014-0.799-8.162-1.225-12.412-1.225C72.893,5.123,76.654,8.09,79.967,11.648z
			"/>
		<path fill="#FDE500" d="M131.352,61.113l-37.385,3.453c0.057,2.449-0.283,4.799-0.334,7.25l37.775,3.535
			c0.246-2.266,0.381-4.563,0.381-6.895C131.789,65.973,131.631,63.525,131.352,61.113z"/>
		<path fill="#FDE500" d="M93.467,57.482l32.387-15.799c-2.023-4.33-4.523-8.391-7.432-12.121l-25.705,19.17
			C93.082,51.643,93.262,54.473,93.467,57.482z"/>
		<path fill="#FDE500" d="M92.633,87.732l26.014,19.332c2.895-3.758,5.373-7.848,7.375-12.205L93.801,79.148
			C93.604,82.164,92.992,84.814,92.633,87.732z"/>
		<path fill="#DB2727" d="M91.596,58.342l-10.418,6.33h12.191l1.27-0.119c-0.057-2.523-0.168-5.037-0.336-7.527L91.596,58.342z"/>
		<path fill="#DB2727" d="M93.449,48.133c-2.012-15.957-6.471-29.982-13.373-37.404l-8.053,44.584v6.592L87.9,52.258L93.449,48.133z
			"/>
		<path fill="#DB2727" d="M81.174,71.789l10.422,6.332l2.734,1.328c0.162-2.496,0.27-5.014,0.32-7.541l-1.281-0.119H81.174z"/>
		<path fill="#DB2727" d="M72.023,74.557v6.592l8.121,44.959c6.924-7.504,11.373-21.668,13.354-37.742L87.9,84.203L72.023,74.557z"
			/>
		<path fill="#FDE73D" d="M80.145,126.107l-8.121-44.959v-6.592l-3.559-2.162l-3.559,2.162v6.592l-8.922,49.406
			c4.033,0.807,8.201,1.234,12.471,1.234C72.924,131.789,76.816,129.713,80.145,126.107z"/>
		<path fill="#FDE73D" d="M64.906,55.313v6.592l3.559,2.162l3.559-2.162v-6.592l8.053-44.584c-3.313-3.559-7.184-5.605-11.621-5.605
			c-4.242,0-8.383,0.426-12.393,1.221L64.906,55.313z"/>
		<path fill="#FDE73D" d="M81.178,64.672l-5.859,3.559l5.855,3.559h12.195l1.281,0.119c0.051-2.449,0.045-4.906-0.012-7.355
			l-1.27,0.119H81.178z"/>
		<path fill="#FDE73D" d="M94.303,57.025c-0.203-3.01-0.488-5.982-0.854-8.893L87.9,52.258l-15.877,9.646v2.768h9.154l10.418-6.33
			L94.303,57.025z"/>
		<path fill="#FDE73D" d="M81.174,71.789h-9.15v2.768L87.9,84.203l5.598,4.162c0.359-2.92,0.635-5.9,0.832-8.916l-2.734-1.328
			L81.174,71.789z"/>
	</g>
	<g>
		<g>
			<circle fill="#DB2727" cx="68.456" cy="68.457" r="22.833"/>
		</g>
	</g>
	<g>
		<circle fill="#FDE500" cx="68.456" cy="68.457" r="18.333"/>
	</g>
</g>
</svg>
