<?xml version="1.0" encoding="utf-8"?>
<!-- Generator: Adobe Illustrator 16.0.0, SVG Export Plug-In . SVG Version: 6.00 Build 0)  -->
<!DOCTYPE svg PUBLIC "-//W3C//DTD SVG 1.1//EN" "http://www.w3.org/Graphics/SVG/1.1/DTD/svg11.dtd">
<svg version="1.1" id="Layer_1" xmlns="http://www.w3.org/2000/svg" xmlns:xlink="http://www.w3.org/1999/xlink" x="0px" y="0px"
	 width="136.913px" height="136.913px" viewBox="0 0 136.913 136.913" enable-background="new 0 0 136.913 136.913"
	 xml:space="preserve">
<g>
	<g>
		<g>
			<circle fill="#FFFFFF" cx="68.456" cy="68.458" r="63.333"/>
		</g>
		<g>
			<circle fill="#FFFFFF" cx="68.456" cy="68.458" r="63.333"/>
		</g>
		<g>
			<path fill="#2AAADB" d="M128.17,47.341c-0.006-0.02-0.012-0.037-0.02-0.055c-8.105-22.855-28.955-39.67-54.006-41.902
				c9.693,5.314,12.525,22.15,15.004,41.957c1.695,13.529,1.705,28.436,0.033,41.982c-2.459,19.914-5.303,36.869-15.037,42.205
				c25.096-2.236,45.975-19.109,54.049-42.025c0.021-0.061,0.039-0.121,0.061-0.18c2.281-6.535,3.535-13.553,3.535-20.865
				C131.789,61.05,130.506,53.946,128.17,47.341z"/>
			<path fill="#45AFE3" d="M92.41,47.341c-2.48-19.807-8.572-36.643-18.266-41.957c-1.875-0.166-3.771-0.26-5.689-0.26
				c-27.551,0-50.98,17.596-59.693,42.162c-0.006,0.018-0.012,0.035-0.02,0.055C6.406,53.946,5.123,61.05,5.123,68.458
				c0,7.313,1.256,14.33,3.535,20.865c0.021,0.059,0.041,0.119,0.061,0.18c8.678,24.629,32.141,42.287,59.736,42.287
				c1.918,0,3.814-0.094,5.689-0.262c9.734-5.336,15.838-22.291,18.297-42.205C94.115,75.776,94.104,60.87,92.41,47.341z"/>
		</g>
	</g>
	<polygon fill="#F3F4F5" points="66.645,25.202 69.328,33.464 78.016,33.464 70.986,38.571 73.672,46.833 66.645,41.726 
		59.615,46.833 62.299,38.571 55.27,33.464 63.959,33.464 	"/>
	<polygon fill="#F3F4F5" points="66.645,90.376 69.328,98.636 78.016,98.636 70.986,103.743 73.672,112.007 66.645,106.899 
		59.615,112.007 62.299,103.743 55.27,98.636 63.959,98.636 	"/>
	<polygon fill="#F3F4F5" points="101.979,58.126 104.662,66.388 113.35,66.388 106.32,71.495 109.006,79.757 101.979,74.649 
		94.949,79.757 97.633,71.495 90.604,66.388 99.293,66.388 	"/>
	<polygon fill="#F3F4F5" points="34.311,58.126 36.994,66.388 45.682,66.388 38.652,71.495 41.338,79.757 34.311,74.649 
		27.281,79.757 29.965,71.495 22.938,66.388 31.625,66.388 	"/>
</g>
</svg>
