<?xml version="1.0" encoding="utf-8"?>
<!-- Generator: Adobe Illustrator 16.0.0, SVG Export Plug-In . SVG Version: 6.00 Build 0)  -->
<!DOCTYPE svg PUBLIC "-//W3C//DTD SVG 1.1//EN" "http://www.w3.org/Graphics/SVG/1.1/DTD/svg11.dtd">
<svg version="1.1" id="Layer_1" xmlns="http://www.w3.org/2000/svg" xmlns:xlink="http://www.w3.org/1999/xlink" x="0px" y="0px"
	 width="136.914px" height="136.914px" viewBox="0 0 136.914 136.914" enable-background="new 0 0 136.914 136.914"
	 xml:space="preserve">
<g>
	<path fill="#0B0B0B" d="M18.229,29.897C10.017,40.577,5.124,53.942,5.124,68.458c0,14.514,4.894,27.877,13.105,38.559L56.79,68.456
		L18.229,29.897z"/>
	<g>
		<path fill="#258F44" d="M68.456,131.79c14.515,0,27.88-4.895,38.561-13.107L87.35,99.019
			C83.241,115.919,79.342,131.79,68.456,131.79z"/>
		<path fill="#258F44" d="M65.919,131.737c-0.092-0.004-0.183-0.008-0.274-0.012C65.737,131.729,65.828,131.733,65.919,131.737z"/>
		<path fill="#258F44" d="M86.314,38.931l20.702-20.701C96.334,10.017,82.97,5.124,68.456,5.124
			C79.342,5.124,82.205,22.028,86.314,38.931z"/>
		<path fill="#258F44" d="M65.645,5.187c0.092-0.004,0.183-0.006,0.274-0.01C65.828,5.181,65.737,5.183,65.645,5.187z"/>
		<path fill="#0B0B0B" d="M118.684,29.897L89.231,59.349c0.77,9.186,1.057,9.314,0.287,18.502l29.166,29.166
			c8.212-10.682,13.105-24.045,13.105-38.559C131.79,53.942,126.896,40.577,118.684,29.897z"/>
		<path fill="#F3C515" d="M87.35,99.019l19.666,19.664c4.378-3.365,8.302-7.289,11.668-11.666L89.518,77.851
			C88.923,84.948,88.864,92.794,87.35,99.019z"/>
		<path fill="#F3C515" d="M91.481,57.099l27.203-27.201c-3.366-4.379-7.29-8.303-11.668-11.668L87.564,37.681
			C89.078,43.905,90.886,49.999,91.481,57.099z"/>
		<path fill="#FFFFFF" d="M68.456,131.79c-0.85,0-1.695-0.02-2.536-0.053C66.772,131.769,67.62,131.79,68.456,131.79z"/>
		<path fill="#FFFFFF" d="M65.919,5.177c0.841-0.033,1.687-0.053,2.536-0.053C67.62,5.124,66.772,5.146,65.919,5.177z"/>
		<path fill="#339846" d="M90.948,102.616L68.457,80.124l-38.56,38.561c9.986,7.678,22.322,12.453,35.748,13.041
			c0.092,0.004,0.183,0.008,0.274,0.012c0.841,0.033,1.687,0.053,2.536,0.053C79.342,131.79,86.838,119.517,90.948,102.616z"/>
		<path fill="#339846" d="M68.457,56.788l22.491-22.49C86.838,17.396,79.342,5.124,68.456,5.124c-0.85,0-1.695,0.02-2.536,0.053
			c-0.092,0.004-0.183,0.006-0.274,0.01C52.219,5.774,39.884,10.55,29.897,18.229L68.457,56.788z"/>
		<path fill="#151515" d="M94.108,82.44c0.77-9.188,0.77-18.781,0-27.969L80.124,68.456L94.108,82.44z"/>
		<path fill="#F8CD1B" d="M68.457,56.788l-38.56-38.559c-4.378,3.365-8.302,7.289-11.668,11.668L56.79,68.456l-38.561,38.561
			c3.366,4.377,7.289,8.301,11.668,11.668l38.56-38.561l22.491,22.492c1.514-6.225,2.565-13.078,3.16-20.176L80.124,68.456
			l13.984-13.984c-0.595-7.098-1.646-13.951-3.16-20.174L68.457,56.788z"/>
	</g>
</g>
</svg>
