<?xml version="1.0" encoding="utf-8"?>
<!-- Generator: Adobe Illustrator 16.0.0, SVG Export Plug-In . SVG Version: 6.00 Build 0)  -->
<!DOCTYPE svg PUBLIC "-//W3C//DTD SVG 1.1//EN" "http://www.w3.org/Graphics/SVG/1.1/DTD/svg11.dtd">
<svg version="1.1" id="Layer_1" xmlns="http://www.w3.org/2000/svg" xmlns:xlink="http://www.w3.org/1999/xlink" x="0px" y="0px"
	 width="136.914px" height="136.914px" viewBox="0 0 136.914 136.914" enable-background="new 0 0 136.914 136.914"
	 xml:space="preserve">
<g>
	<g>
		<circle fill="#FFFFFF" cx="68.457" cy="68.457" r="63.333"/>
	</g>
	<g>
		<path fill="#CED9E4" d="M128.171,47.341H89.149c1.694,13.529,1.705,28.436,0.032,41.982h39.073
			c2.28-6.536,3.535-13.553,3.535-20.866C131.79,61.05,130.507,53.946,128.171,47.341z"/>
		<path fill="#C42B27" d="M89.149,47.341h39.021c-0.007-0.02-0.013-0.037-0.02-0.056C120.045,24.431,99.196,7.616,74.146,5.384
			C83.839,10.698,86.67,27.534,89.149,47.341z"/>
		<path fill="#189647" d="M74.146,131.529c25.096-2.236,45.975-19.109,54.049-42.026c0.021-0.061,0.039-0.121,0.061-0.18H89.182
			C86.723,109.238,83.88,126.193,74.146,131.529z"/>
		<path fill="#CED9E4" d="M5.124,68.457c0,7.313,1.255,14.33,3.535,20.866h83.783c1.673-13.547,1.662-28.453-0.032-41.982H8.743
			C6.407,53.946,5.124,61.05,5.124,68.457z"/>
		<g>
			<path fill="#14477D" d="M129.431,51.341H76.91c1.694,10.951,1.705,23.018,0.032,33.982h52.559
				c1.481-5.372,2.289-11.023,2.289-16.866C131.79,62.523,130.957,56.787,129.431,51.341z"/>
			<path fill="#205688" d="M92.41,51.341H7.483c-1.526,5.446-2.359,11.183-2.359,17.116c0,5.843,0.808,11.494,2.289,16.866h85.029
				C94.115,74.358,94.104,62.292,92.41,51.341z"/>
		</g>
		<path fill="#CC3434" d="M8.763,47.285c-0.007,0.019-0.013,0.036-0.02,0.056H92.41c-2.479-19.807-8.571-36.643-18.265-41.957
			c-1.875-0.166-3.771-0.261-5.689-0.261C40.905,5.123,17.475,22.72,8.763,47.285z"/>
		<path fill="#259F49" d="M92.442,89.323H8.659c0.021,0.059,0.04,0.119,0.061,0.18c8.678,24.63,32.14,42.288,59.736,42.288
			c1.918,0,3.814-0.094,5.689-0.262C83.88,126.193,89.983,109.238,92.442,89.323z"/>
	</g>
</g>
</svg>
