<?xml version="1.0" encoding="utf-8"?>
<!-- Generator: Adobe Illustrator 16.0.0, SVG Export Plug-In . SVG Version: 6.00 Build 0)  -->
<!DOCTYPE svg PUBLIC "-//W3C//DTD SVG 1.1//EN" "http://www.w3.org/Graphics/SVG/1.1/DTD/svg11.dtd">
<svg version="1.1" id="Layer_1" xmlns="http://www.w3.org/2000/svg" xmlns:xlink="http://www.w3.org/1999/xlink" x="0px" y="0px"
	 width="136.914px" height="136.914px" viewBox="0 0 136.914 136.914" enable-background="new 0 0 136.914 136.914"
	 xml:space="preserve">
<g>
	<g>
		<g>
			<circle fill="#FFFFFF" cx="68.457" cy="68.458" r="63.333"/>
		</g>
	</g>
	<g>
		<path fill="#258F44" d="M68.456,5.124c-34.977,0-63.332,28.354-63.332,63.334c0,9.533,2.12,18.57,5.895,26.68l84.12-84.119
			C87.028,7.243,77.991,5.124,68.456,5.124z"/>
		<path fill="#079FD7" d="M41.776,125.896c8.109,3.773,17.145,5.895,26.68,5.895c34.979,0,63.334-28.355,63.334-63.332
			c0-9.537-2.12-18.572-5.895-26.682L41.776,125.896z"/>
		<g>
			<path fill="#F8D12E" d="M96.822,11.833c-1.442-0.723-2.913-1.395-4.416-2.01L9.824,92.405c0.614,1.502,1.286,2.975,2.01,4.416
				L96.822,11.833z"/>
			<path fill="#F8D12E" d="M125.08,40.093l-84.987,84.986c1.441,0.725,2.913,1.396,4.416,2.01l82.582-82.582
				C126.476,43.005,125.804,41.534,125.08,40.093z"/>
			<path fill="#0B0B0B" d="M96.822,11.833L11.834,96.821c6.122,12.197,16.062,22.137,28.259,28.258l84.987-84.986
				C118.958,27.896,109.019,17.956,96.822,11.833z"/>
		</g>
	</g>
</g>
</svg>
