<?xml version="1.0" encoding="utf-8"?>
<!-- Generator: Adobe Illustrator 16.0.0, SVG Export Plug-In . SVG Version: 6.00 Build 0)  -->
<!DOCTYPE svg PUBLIC "-//W3C//DTD SVG 1.1//EN" "http://www.w3.org/Graphics/SVG/1.1/DTD/svg11.dtd">
<svg version="1.1" id="Layer_1" xmlns="http://www.w3.org/2000/svg" xmlns:xlink="http://www.w3.org/1999/xlink" x="0px" y="0px"
	 width="136.914px" height="136.914px" viewBox="0 0 136.914 136.914" enable-background="new 0 0 136.914 136.914"
	 xml:space="preserve">
<g>
	<g>
		<path fill="#F3C515" d="M86.991,68.458h44.799c0-34.98-28.355-63.334-63.334-63.334C85.945,5.124,86.991,36.79,86.991,68.458z"/>
		<path fill="#D02027" d="M82.842,68.458c0,31.666-14.386,63.332-14.386,63.332c34.979,0,63.334-28.355,63.334-63.332H82.842z"/>
		<path fill="#F8D12E" d="M21.658,68.458h73.031c0-31.668-8.744-63.334-26.233-63.334C33.479,5.124,21.658,33.478,21.658,68.458z"/>
		<path fill="#DB2727" d="M94.689,68.458H22.992c0,34.977,10.487,63.332,45.464,63.332C85.945,131.79,94.689,100.124,94.689,68.458z
			"/>
	</g>
	<g>
		<path fill="#359846" d="M52.507,7.151C25.251,14.222,5.124,38.987,5.124,68.458c0,29.467,20.128,54.232,47.384,61.305
			L52.507,7.151L52.507,7.151z"/>
	</g>
</g>
</svg>
