<?xml version="1.0" encoding="utf-8"?>
<!-- Generator: Adobe Illustrator 16.0.0, SVG Export Plug-In . SVG Version: 6.00 Build 0)  -->
<!DOCTYPE svg PUBLIC "-//W3C//DTD SVG 1.1//EN" "http://www.w3.org/Graphics/SVG/1.1/DTD/svg11.dtd">
<svg version="1.1" id="Layer_1" xmlns="http://www.w3.org/2000/svg" xmlns:xlink="http://www.w3.org/1999/xlink" x="0px" y="0px"
	 width="136.914px" height="136.914px" viewBox="0 0 136.914 136.914" enable-background="new 0 0 136.914 136.914"
	 xml:space="preserve">
<g>
	<rect x="12.969" y="98.995" fill="#359846" width="110.977" height="0"/>
	<g>
		<path fill="#FBD015" d="M86.806,65.747h44.916C130.3,32.026,102.525,5.124,68.456,5.124C85.446,5.124,86.321,35.009,86.806,65.747
			z"/>
		<path fill="#21428C" d="M86.806,98.995h37.14c4.995-9.057,7.845-19.463,7.845-30.537c0-0.908-0.03-1.811-0.068-2.711h-42.01
			C89.894,77.216,88.922,88.796,86.806,98.995z"/>
		<path fill="#CD202A" d="M66.43,131.755c-0.162-0.004-0.325-0.012-0.487-0.018C66.104,131.743,66.267,131.751,66.43,131.755z"/>
		<path fill="#CD202A" d="M68.456,131.79c23.903,0,44.707-13.246,55.489-32.795H85.472C81.582,117.735,80.105,131.79,68.456,131.79z
			"/>
		<path fill="#FFFFFF" d="M68.456,131.79c-0.679,0-1.354-0.014-2.026-0.035C67.106,131.776,67.782,131.79,68.456,131.79z"/>
		<path fill="#FCD73E" d="M5.192,65.747h89.474c-0.484-30.738-9.22-60.623-26.21-60.623C34.389,5.124,6.614,32.026,5.192,65.747z"/>
		<path fill="#1D4F95" d="M94.666,65.747H5.192c-0.038,0.9-0.068,1.803-0.068,2.711c0,11.074,2.85,21.48,7.845,30.537H91.76
			C93.876,88.796,94.848,77.216,94.666,65.747z"/>
		<path fill="#D11F3E" d="M65.942,131.737c0.162,0.006,0.325,0.014,0.487,0.018c0.673,0.021,1.348,0.035,2.026,0.035
			c11.649,0,19.413-14.055,23.303-32.795h-78.79C23.371,117.854,43.102,130.845,65.942,131.737z"/>
	</g>
</g>
</svg>
