<?xml version="1.0" encoding="utf-8"?>
<!-- Generator: Adobe Illustrator 16.0.0, SVG Export Plug-In . SVG Version: 6.00 Build 0)  -->
<!DOCTYPE svg PUBLIC "-//W3C//DTD SVG 1.1//EN" "http://www.w3.org/Graphics/SVG/1.1/DTD/svg11.dtd">
<svg version="1.1" id="Layer_1" xmlns="http://www.w3.org/2000/svg" xmlns:xlink="http://www.w3.org/1999/xlink" x="0px" y="0px"
	 width="136.913px" height="136.914px" viewBox="0 0 136.913 136.914" enable-background="new 0 0 136.913 136.914"
	 xml:space="preserve">
<g>
	<g>
		<g>
			<circle fill="#FFFFFF" cx="68.456" cy="68.457" r="63.333"/>
		</g>
	</g>
	<g>
		<path fill="#FFFFFF" d="M68.455,5.123c-0.193,0-0.385,0.014-0.578,0.016h1.158C68.842,5.137,68.65,5.123,68.455,5.123z"/>
		<path fill="#FFFFFF" d="M68.455,131.791c0.363,0,0.721-0.021,1.082-0.027h-2.162C67.736,131.77,68.094,131.791,68.455,131.791z"/>
	</g>
	<g>
		<g>
			<path fill="#0B0B0B" d="M124.592,39.139H83.504c1.455,7.404,10.822,15.49,11.092,23.709l6.174-1.707l-5.57,6.99l4.928,7.455
				l-5.518-2.066c-0.248,8.4-9.615,16.678-11.102,24.244h41.09c4.586-8.766,7.191-18.729,7.191-29.307
				C131.789,57.875,129.18,47.906,124.592,39.139z"/>
			<path fill="#151515" d="M5.123,68.457c0,10.578,2.607,20.541,7.193,29.307H92.01c1.486-7.566,2.352-15.844,2.6-24.244
				l-2.852-1.068l-5.57,6.99l0.396-8.93l-8.367-3.137l8.615-2.381l0.396-8.928l4.926,7.455l2.441-0.674
				c-0.27-8.219-1.135-16.305-2.59-23.709H12.322C7.732,47.906,5.123,57.875,5.123,68.457z"/>
			<path fill="#CD2027" d="M86.508,39.139h38.084c-10.496-20.053-31.406-33.783-55.557-34h-0.322
				C80.467,5.352,82.732,19.934,86.508,39.139z"/>
			<path fill="#E61E25" d="M12.322,39.139h79.684c-3.773-19.205-11.539-33.787-23.293-34h-0.836
				C43.727,5.355,22.816,19.086,12.322,39.139z"/>
			<path fill="#208943" d="M68.938,131.764h0.6c23.941-0.402,44.641-14.082,55.061-34h-36.09
				C84.758,116.852,80.568,131.369,68.938,131.764z"/>
			<path fill="#269D49" d="M92.01,97.764H12.316c10.42,19.918,31.117,33.598,55.059,34h1.563
				C80.568,131.369,88.26,116.852,92.01,97.764z"/>
			<path fill="#EFECEC" d="M94.609,73.52l5.518,2.066l-4.928-7.455l5.57-6.99l-6.174,1.707
				C94.711,66.396,94.715,69.969,94.609,73.52z"/>
			<path fill="#EFECEC" d="M87.229,56.066l-0.396,8.928l-8.615,2.381l8.367,3.137l-0.396,8.93l5.57-6.99l2.852,1.068
				c0.105-3.551,0.102-7.123-0.014-10.672l-2.441,0.674L87.229,56.066z"/>
		</g>
		<g>
			<path fill="#EFECEC" d="M55.563,68.266c0-10.381,8.414-18.797,18.797-18.797c3.492,0,6.762,0.955,9.563,2.615
				c-4.111-4.063-9.758-6.572-15.994-6.572c-12.566,0-22.754,10.186-22.754,22.754c0,12.564,10.188,22.754,22.754,22.754
				c6.236,0,11.883-2.512,15.994-6.574c-2.801,1.658-6.07,2.615-9.563,2.615C63.977,87.061,55.563,78.646,55.563,68.266z"/>
		</g>
	</g>
</g>
</svg>
