<?xml version="1.0" encoding="utf-8"?>
<!-- Generator: Adobe Illustrator 16.0.0, SVG Export Plug-In . SVG Version: 6.00 Build 0)  -->
<!DOCTYPE svg PUBLIC "-//W3C//DTD SVG 1.1//EN" "http://www.w3.org/Graphics/SVG/1.1/DTD/svg11.dtd">
<svg version="1.1" id="Layer_1" xmlns="http://www.w3.org/2000/svg" xmlns:xlink="http://www.w3.org/1999/xlink" x="0px" y="0px"
	 width="136.913px" height="136.914px" viewBox="0 0 136.913 136.914" enable-background="new 0 0 136.913 136.914"
	 xml:space="preserve">
<g>
	<g>
		<polygon fill="#EFECEC" points="68.457,5.124 68.457,5.124 68.457,5.124 		"/>
		<polygon fill="#EFECEC" points="68.457,5.124 68.455,5.124 68.457,5.124 		"/>
	</g>
	<path fill="#3757A6" d="M28.682,117.729h79.549c0.01-0.008,0.018-0.014,0.027-0.021H28.656
		C28.664,117.716,28.674,117.722,28.682,117.729z"/>
	<g>
		<path fill="#EFECEC" d="M90.395,33.196h30.676c-3.578-5.326-7.947-10.072-12.934-14.086H85.373
			C87.383,23.173,89.055,27.946,90.395,33.196z"/>
		<path fill="#EFECEC" d="M94.262,61.366h37.123c-0.545-4.885-1.645-9.602-3.234-14.086h-35.09
			C93.664,51.847,94.064,56.579,94.262,61.366z"/>
		<path fill="#EFECEC" d="M93.074,89.538h35.107c1.584-4.486,2.678-9.201,3.215-14.086H94.266
			C94.07,80.239,93.674,84.97,93.074,89.538z"/>
		<path fill="#EFECEC" d="M85.418,117.708h22.84c4.963-4.016,9.311-8.764,12.871-14.084H90.418
			C89.084,108.87,87.42,113.642,85.418,117.708z"/>
		<g>
			<path fill="#3757A6" d="M83.369,19.11h24.768C97.279,10.368,83.484,5.124,68.457,5.124l0,0h-0.002
				c-0.066,0-0.131,0.004-0.197,0.004C75.445,5.167,79.145,10.565,83.369,19.11z"/>
			<path fill="#3757A6" d="M91.369,47.28h36.781c-1.779-5.016-4.164-9.742-7.08-14.084H88.703
				C89.828,37.604,90.717,42.343,91.369,47.28z"/>
			<path fill="#3757A6" d="M131.385,61.366H92.369c0.195,4.68,0.197,9.406,0.004,14.086h39.023c0.252-2.299,0.393-4.629,0.393-6.994
				C131.789,66.06,131.645,63.696,131.385,61.366z"/>
			<path fill="#3757A6" d="M88.381,103.624h32.748c2.906-4.346,5.283-9.072,7.053-14.086H91.037
				C90.387,94.474,89.5,99.214,88.381,103.624z"/>
			<path fill="#3757A6" d="M68.258,131.786c0.066,0,0.131,0.004,0.197,0.004c15.07,0,28.902-5.273,39.775-14.061H83.537
				C79.309,126.315,75.465,131.747,68.258,131.786z"/>
		</g>
		<path fill="#4166AF" d="M85.373,19.11c-4.225-8.545-9.928-13.943-17.115-13.982c-14.949,0.047-28.67,5.277-39.48,13.982H85.373z"
			/>
		<path fill="#EFEFEF" d="M85.373,19.11H28.777c-4.986,4.014-9.355,8.76-12.934,14.086h74.551
			C89.055,27.946,87.383,23.173,85.373,19.11z"/>
		<path fill="#4166AF" d="M90.395,33.196H15.844c-2.916,4.342-5.301,9.068-7.08,14.084h84.297
			C92.408,42.343,91.518,37.604,90.395,33.196z"/>
		<path fill="#EFEFEF" d="M8.764,47.28c-1.59,4.484-2.689,9.201-3.234,14.086h88.732c-0.197-4.787-0.598-9.52-1.201-14.086H8.764z"
			/>
		<path fill="#4166AF" d="M5.123,68.456v0.002c0,2.365,0.141,4.695,0.395,6.994h88.748c0.193-4.68,0.191-9.406-0.004-14.086H5.529
			C5.27,63.696,5.123,66.06,5.123,68.456z"/>
		<path fill="#EFEFEF" d="M8.732,89.538h84.342c0.6-4.568,0.996-9.299,1.191-14.086H5.518C6.053,80.337,7.148,85.052,8.732,89.538z"
			/>
		<path fill="#4166AF" d="M15.785,103.624h74.633c1.119-4.41,2.006-9.15,2.656-14.086H8.732
			C10.502,94.552,12.877,99.278,15.785,103.624z"/>
		<path fill="#EFEFEF" d="M15.785,103.624c3.559,5.32,7.906,10.068,12.871,14.084h56.762c2.002-4.066,3.666-8.838,5-14.084H15.785z"
			/>
		<path fill="#4166AF" d="M68.258,131.786c7.207-0.039,12.922-5.471,17.15-14.057H28.682
			C39.508,126.478,53.266,131.739,68.258,131.786z"/>
	</g>
	<path fill="#3757A6" d="M68.455,5.124c-34.975,0-63.33,28.354-63.332,63.332l0.395,6.996h62.939L68.455,5.124z"/>
	<g>
		<path fill="#3757A6" d="M31.588,16.978c-6.182,4.436-11.539,9.947-15.781,16.275h15.781V16.978z"/>
		<path fill="#3757A6" d="M8.779,47.233C6.42,53.87,5.123,61.011,5.123,68.456l0.395,6.996h26.07V47.233H8.779z"/>
		<path fill="#3757A6" d="M68.457,33.253L68.455,5.124c-8.072,0-15.787,1.527-22.887,4.281v23.848H68.457z"/>
		<rect x="45.568" y="47.233" fill="#3757A6" width="22.889" height="28.219"/>
		<path fill="#EFEFEF" d="M45.568,33.253V9.405c-5,1.939-9.689,4.492-13.98,7.572v16.275H15.807
			c-2.889,4.314-5.258,9.004-7.027,13.98h22.809v28.219v0.5h13.98v-0.5V47.233h22.889v-13.98H45.568z"/>
	</g>
</g>
</svg>
