<?xml version="1.0" encoding="utf-8"?>
<!-- Generator: Adobe Illustrator 16.0.0, SVG Export Plug-In . SVG Version: 6.00 Build 0)  -->
<!DOCTYPE svg PUBLIC "-//W3C//DTD SVG 1.1//EN" "http://www.w3.org/Graphics/SVG/1.1/DTD/svg11.dtd">
<svg version="1.1" id="Layer_1" xmlns="http://www.w3.org/2000/svg" xmlns:xlink="http://www.w3.org/1999/xlink" x="0px" y="0px"
	 width="136.914px" height="136.913px" viewBox="0 0 136.914 136.913" enable-background="new 0 0 136.914 136.913"
	 xml:space="preserve">
<g>
	<g>
		<rect x="5.409" y="74.378" fill="#C42126" width="126.096" height="0.002"/>
		<rect x="11.977" y="39.808" fill="#C42126" width="112.958" height="0.002"/>
		<rect x="7.485" y="51.331" fill="#C42126" width="121.943" height="0.002"/>
		<rect x="19.765" y="108.948" fill="#C42126" width="97.385" height="0"/>
		<polygon fill="#C42126" points="32.344,120.474 104.57,120.474 104.574,120.47 32.34,120.47 		"/>
		<path fill="#C42126" d="M68.456,5.124c-1.244,0-2.478,0.045-3.703,0.115h7.407C70.934,5.169,69.7,5.124,68.456,5.124z"/>
		<rect x="5.385" y="62.854" fill="#C42126" width="126.145" height="0.002"/>
	</g>
	<g>
		<path fill="#E7E7E7" d="M87.175,28.284h30.242c-3.592-4.373-7.767-8.244-12.392-11.521H82.316
			C84.195,20.069,85.811,23.97,87.175,28.284z"/>
		<path fill="#DC3027" d="M82.316,16.763h22.709C95.637,10.11,84.366,5.944,72.16,5.239h-1.95
			C75.955,5.962,78.594,10.214,82.316,16.763z"/>
		<path fill="#E7E7E7" d="M129.428,51.331c-1.126-4.016-2.636-7.869-4.492-11.521H90.144c0.705,3.699,1.261,7.563,1.673,11.521
			H129.428z"/>
		<path fill="#DC3027" d="M88.187,39.808h36.748c-2.094-4.119-4.61-7.984-7.518-11.523H85.316
			C86.448,31.868,87.409,35.733,88.187,39.808z"/>
		<path fill="#E7E7E7" d="M93.149,74.378h38.355c0.182-1.949,0.285-3.924,0.285-5.92c0-1.889-0.099-3.754-0.261-5.602H93.158
			C93.283,66.688,93.281,70.548,93.149,74.378z"/>
		<path fill="#DC3027" d="M131.529,62.854c-0.347-3.957-1.06-7.807-2.101-11.521H90.201c0.394,3.773,0.654,7.633,0.781,11.521
			H131.529z"/>
		<path fill="#E7E7E7" d="M89.482,97.425h35.288c1.882-3.648,3.416-7.504,4.566-11.523H91.188
			C90.768,89.866,90.198,93.729,89.482,97.425z"/>
		<path fill="#DC3027" d="M129.337,85.901c1.063-3.713,1.801-7.563,2.168-11.521H91.954c-0.135,3.891-0.403,7.75-0.805,11.521
			H129.337z"/>
		<path fill="#E7E7E7" d="M104.574,120.47c4.692-3.264,8.926-7.139,12.575-11.521H87.434c-1.389,4.332-3.038,8.227-4.951,11.521
			H104.574z"/>
		<path fill="#DC3027" d="M86.316,108.948h30.833c2.942-3.535,5.496-7.4,7.621-11.523H89.223
			C88.434,101.503,87.463,105.37,86.316,108.948z"/>
		<path fill="#DC3027" d="M66.161,131.745c-0.128-0.004-0.256-0.01-0.384-0.014C65.905,131.735,66.033,131.741,66.161,131.745z"/>
		<path fill="#DC3027" d="M68.456,131.79c13.427,0,25.868-4.191,36.114-11.316H81.649C77.581,127.483,74.897,131.79,68.456,131.79z"
			/>
		<path fill="#C42126" d="M68.456,131.79c-0.769,0-1.533-0.018-2.295-0.045C66.931,131.771,67.696,131.79,68.456,131.79z"/>
		<path fill="#F3F4F5" d="M84.413,16.763H31.889c-4.626,3.277-8.8,7.148-12.393,11.521h69.775
			C87.907,23.97,86.292,20.069,84.413,16.763z"/>
		<path fill="#E73625" d="M31.889,16.763h52.524C80.69,10.214,75.955,5.962,70.21,5.239h-5.457
			C52.547,5.944,41.276,10.11,31.889,16.763z"/>
		<path fill="#F3F4F5" d="M7.486,51.331h86.328c-0.412-3.959-0.968-7.822-1.673-11.521H11.978
			C10.122,43.462,8.612,47.315,7.486,51.331z"/>
		<path fill="#E73625" d="M19.496,28.284c-2.906,3.539-5.424,7.404-7.517,11.523h80.162c-0.777-4.074-1.738-7.939-2.87-11.523
			H19.496z"/>
		<path fill="#F3F4F5" d="M5.124,68.458c0,1.996,0.104,3.971,0.285,5.92h89.179c0.132-3.83,0.134-7.689,0.009-11.521H5.385
			C5.223,64.704,5.124,66.569,5.124,68.458z"/>
		<path fill="#E73625" d="M5.385,62.854h89.211c-0.127-3.889-0.388-7.748-0.781-11.521H7.485
			C6.444,55.048,5.731,58.897,5.385,62.854z"/>
		<path fill="#F3F4F5" d="M93.783,85.901H7.577c1.15,4.02,2.685,7.875,4.566,11.523h79.934
			C92.793,93.729,93.362,89.866,93.783,85.901z"/>
		<path fill="#E73625" d="M7.577,85.901h86.206c0.401-3.771,0.67-7.631,0.805-11.521H5.409C5.776,78.339,6.515,82.188,7.577,85.901z
			"/>
		<path fill="#F3F4F5" d="M32.34,120.47h51.88c1.913-3.295,3.563-7.189,4.951-11.521H19.765
			C23.414,113.331,27.647,117.206,32.34,120.47z"/>
		<path fill="#E73625" d="M12.144,97.425c2.125,4.123,4.679,7.988,7.621,11.523h69.406c1.146-3.578,2.117-7.445,2.906-11.523H12.144
			z"/>
		<path fill="#E73625" d="M65.777,131.731c0.128,0.004,0.256,0.01,0.384,0.014c0.762,0.027,1.526,0.045,2.295,0.045
			c6.441,0,11.693-4.307,15.762-11.316H32.344C41.903,127.122,53.377,131.214,65.777,131.731z"/>
	</g>
	<g>
		<path fill="#283991" d="M67.147,5.157C34.692,5.817,8.24,30.876,5.393,62.751h61.755V5.157z"/>
	</g>
	<g>
		<polygon fill="#EFEFEF" points="17.796,41.007 18.761,43.978 21.887,43.978 19.358,45.815 20.324,48.788 17.796,46.95 
			15.269,48.788 16.233,45.815 13.705,43.978 16.831,43.978 		"/>
		<polygon fill="#EFEFEF" points="17.796,51.503 18.761,54.476 21.887,54.476 19.358,56.313 20.324,59.286 17.796,57.448 
			15.269,59.286 16.233,56.313 13.705,54.476 16.831,54.476 		"/>
		<polygon fill="#EFEFEF" points="28.294,25.259 29.259,28.231 32.384,28.231 29.856,30.069 30.821,33.04 28.294,31.204 
			25.766,33.04 26.731,30.069 24.202,28.231 27.328,28.231 		"/>
		<polygon fill="#EFEFEF" points="28.294,35.757 29.259,38.729 32.384,38.729 29.856,40.565 30.821,43.538 28.294,41.702 
			25.766,43.538 26.731,40.565 24.202,38.729 27.328,38.729 		"/>
		<polygon fill="#EFEFEF" points="28.294,46.255 29.259,49.228 32.384,49.228 29.856,51.063 30.821,54.036 28.294,52.198 
			25.766,54.036 26.731,51.063 24.202,49.228 27.328,49.228 		"/>
		<g>
			<path fill="#EFEFEF" d="M9.826,54.036L8.86,51.063l2.528-1.836H8.264l-0.07-0.217c-0.343,1.061-0.653,2.135-0.939,3.221
				l0.044-0.033L9.826,54.036z"/>
			<path fill="#EFEFEF" d="M15.269,38.29l2.527-1.838l2.528,1.838l-0.966-2.973l2.528-1.838h-3.126l-0.965-2.971l-0.965,2.971
				h-1.152c-0.214,0.324-0.421,0.65-0.629,0.979l1.184,0.859L15.269,38.29z"/>
			<path fill="#EFEFEF" d="M28.294,20.706l2.527,1.836l-0.965-2.971l2.527-1.838h-1.805c-1.533,1.146-3.012,2.359-4.433,3.639
				l-0.381,1.17L28.294,20.706z"/>
			<path fill="#EFEFEF" d="M36.264,17.294l2.528-1.838l2.527,1.838l-0.965-2.973l2.527-1.836h-3.125l-0.131-0.4
				c-1.059,0.541-2.107,1.104-3.131,1.703l0.734,0.533L36.264,17.294z"/>
		</g>
		<polygon fill="#EFEFEF" points="38.792,20.011 39.757,22.981 42.882,22.981 40.354,24.819 41.319,27.792 38.792,25.954 
			36.264,27.792 37.229,24.819 34.7,22.981 37.826,22.981 		"/>
		<polygon fill="#EFEFEF" points="38.792,30.509 39.757,33.479 42.882,33.479 40.354,35.317 41.319,38.29 38.792,36.452 
			36.264,38.29 37.229,35.317 34.7,33.479 37.826,33.479 		"/>
		<polygon fill="#EFEFEF" points="38.792,41.007 39.757,43.978 42.882,43.978 40.354,45.815 41.319,48.788 38.792,46.95 
			36.264,48.788 37.229,45.815 34.7,43.978 37.826,43.978 		"/>
		<polygon fill="#EFEFEF" points="38.792,51.503 39.757,54.476 42.882,54.476 40.354,56.313 41.319,59.286 38.792,57.448 
			36.264,59.286 37.229,56.313 34.7,54.476 37.826,54.476 		"/>
		<polygon fill="#EFEFEF" points="49.29,14.761 50.255,17.733 53.38,17.733 50.853,19.571 51.817,22.542 49.29,20.706 
			46.761,22.542 47.727,19.571 45.198,17.733 48.324,17.733 		"/>
		<polygon fill="#EFEFEF" points="49.29,25.259 50.255,28.231 53.38,28.231 50.853,30.069 51.817,33.04 49.29,31.204 46.761,33.04 
			47.727,30.069 45.198,28.231 48.324,28.231 		"/>
		<polygon fill="#EFEFEF" points="49.29,35.757 50.255,38.729 53.38,38.729 50.853,40.565 51.817,43.538 49.29,41.702 
			46.761,43.538 47.727,40.565 45.198,38.729 48.324,38.729 		"/>
		<polygon fill="#EFEFEF" points="49.29,46.255 50.255,49.228 53.38,49.228 50.853,51.063 51.817,54.036 49.29,52.198 
			46.761,54.036 47.727,51.063 45.198,49.228 48.324,49.228 		"/>
		<polygon fill="#EFEFEF" points="59.788,9.513 60.753,12.485 63.878,12.485 61.35,14.321 62.315,17.294 59.788,15.456 
			57.259,17.294 58.225,14.321 55.696,12.485 58.821,12.485 		"/>
		<polygon fill="#EFEFEF" points="59.788,20.011 60.753,22.981 63.878,22.981 61.35,24.819 62.315,27.792 59.788,25.954 
			57.259,27.792 58.225,24.819 55.696,22.981 58.821,22.981 		"/>
		<polygon fill="#EFEFEF" points="59.788,30.509 60.753,33.479 63.878,33.479 61.35,35.317 62.315,38.29 59.788,36.452 
			57.259,38.29 58.225,35.317 55.696,33.479 58.821,33.479 		"/>
		<polygon fill="#EFEFEF" points="59.788,41.007 60.753,43.978 63.878,43.978 61.35,45.815 62.315,48.788 59.788,46.95 
			57.259,48.788 58.225,45.815 55.696,43.978 58.821,43.978 		"/>
		<polygon fill="#EFEFEF" points="59.788,51.503 60.753,54.476 63.878,54.476 61.35,56.313 62.315,59.286 59.788,57.448 
			57.259,59.286 58.225,56.313 55.696,54.476 58.821,54.476 		"/>
	</g>
</g>
</svg>
