<?xml version="1.0" encoding="utf-8"?>
<!-- Generator: Adobe Illustrator 16.0.0, SVG Export Plug-In . SVG Version: 6.00 Build 0)  -->
<!DOCTYPE svg PUBLIC "-//W3C//DTD SVG 1.1//EN" "http://www.w3.org/Graphics/SVG/1.1/DTD/svg11.dtd">
<svg version="1.1" id="Layer_1" xmlns="http://www.w3.org/2000/svg" xmlns:xlink="http://www.w3.org/1999/xlink" x="0px" y="0px"
	 width="136px" height="135.099px" viewBox="0 0 136 135.099" enable-background="new 0 0 136 135.099" xml:space="preserve">
<g>
	<path fill="#518D51" d="M89.115,7.835l-7.391,20.492c6.822,22.514,6.822,55.93,0,78.445l7.391,20.49
		c24.594-8.697,42.219-32.141,42.219-59.715C131.334,39.978,113.709,16.532,89.115,7.835z"/>
	<path fill="#E4E4E4" d="M89.115,28.327V7.835C82.51,5.499,75.406,4.216,68,4.216C77.766,4.216,64.225,37.313,89.115,28.327z"/>
	<path fill="#E4E4E4" d="M68,130.882c7.406,0,14.51-1.283,21.115-3.619v-20.49C64.475,104.313,68,130.882,68,130.882z"/>
	<path fill="#589F58" d="M4.666,67.548c0,27.666,17.744,51.174,42.467,59.799V7.753C22.41,16.38,4.666,39.886,4.666,67.548z"/>
	<path fill="#589F58" d="M89.115,28.327v78.445C95.938,84.257,95.938,50.841,89.115,28.327z"/>
	<path fill="#F3F4F5" d="M89.115,106.772V28.327C84.803,14.093,77.766,4.216,68,4.216c-7.314,0-14.332,1.256-20.867,3.537v119.594
		c6.535,2.281,13.553,3.535,20.867,3.535C77.766,130.882,84.803,121.005,89.115,106.772z"/>
</g>
</svg>
