<?xml version="1.0" encoding="utf-8"?>
<!-- Generator: Adobe Illustrator 16.0.0, SVG Export Plug-In . SVG Version: 6.00 Build 0)  -->
<!DOCTYPE svg PUBLIC "-//W3C//DTD SVG 1.1//EN" "http://www.w3.org/Graphics/SVG/1.1/DTD/svg11.dtd">
<svg version="1.1" id="Layer_1" xmlns="http://www.w3.org/2000/svg" xmlns:xlink="http://www.w3.org/1999/xlink" x="0px" y="0px"
	 width="136.914px" height="136.914px" viewBox="0 0 136.914 136.914" enable-background="new 0 0 136.914 136.914"
	 xml:space="preserve">
<g>
	<path fill="#C42B27" d="M89.299,9.469l-7.391,20.49c6.822,22.516,6.822,55.931,0,78.447l7.391,20.49
		c24.595-8.697,42.219-32.143,42.219-59.714C131.518,41.612,113.894,18.167,89.299,9.469z"/>
	<path fill="#E1B623" d="M89.299,29.959V9.469C82.693,7.133,75.59,5.85,68.184,5.85C77.949,5.85,64.408,38.948,89.299,29.959z"/>
	<path fill="#E1B623" d="M68.184,132.516c7.406,0,14.51-1.283,21.115-3.619v-20.49C64.658,105.947,68.184,132.516,68.184,132.516z"
		/>
	<path fill="#14477D" d="M4.851,69.182c0,27.664,17.744,51.171,42.466,59.798V9.385C22.595,18.012,4.851,41.52,4.851,69.182z"/>
	<path fill="#E73B36" d="M89.299,29.959v78.447C96.121,85.891,96.121,52.475,89.299,29.959z"/>
	<path fill="#FFD72E" d="M89.299,108.406V29.959C84.986,15.727,77.949,5.85,68.184,5.85c-7.314,0-14.331,1.256-20.867,3.535V128.98
		c6.536,2.281,13.553,3.535,20.867,3.535C77.949,132.516,84.986,122.639,89.299,108.406z"/>
</g>
</svg>
