<?xml version="1.0" encoding="utf-8"?>
<!-- Generator: Adobe Illustrator 16.0.0, SVG Export Plug-In . SVG Version: 6.00 Build 0)  -->
<!DOCTYPE svg PUBLIC "-//W3C//DTD SVG 1.1//EN" "http://www.w3.org/Graphics/SVG/1.1/DTD/svg11.dtd">
<svg version="1.1" id="Layer_1" xmlns="http://www.w3.org/2000/svg" xmlns:xlink="http://www.w3.org/1999/xlink" x="0px" y="0px"
	 width="136.914px" height="136.914px" viewBox="0 0 136.914 136.914" enable-background="new 0 0 136.914 136.914"
	 xml:space="preserve">
<g>
	<path fill="#F3F4F5" d="M4.851,69.184c0,22.938,12.195,43.027,30.455,54.141V15.042C17.046,26.154,4.851,46.244,4.851,69.184z"/>
	<g>
		<path fill="#036535" d="M68.183,5.849c0,0,23.516,86.297,24.487,87.268c6.404-0.574,12.674-3.199,17.739-7.926
			c4.067-3.797,6.836-8.467,8.295-13.443c-0.371,9.201-4.22,18.266-11.484,25.045c-4.986,4.654-10.938,7.627-17.158,8.949
			l-21.879,26.773c34.979,0,63.334-28.355,63.334-63.332C131.517,34.203,103.162,5.849,68.183,5.849z"/>
		<path fill="#036535" d="M66.133,132.48c-0.152-0.004-0.306-0.012-0.458-0.018C65.828,132.469,65.98,132.477,66.133,132.48z"/>
		<path fill="#036535" d="M65.675,5.902c0.152-0.006,0.306-0.012,0.458-0.016C65.98,5.89,65.828,5.896,65.675,5.902z"/>
		<path fill="#F3F4F5" d="M107.22,96.793c7.265-6.779,11.113-15.844,11.484-25.045c-1.459,4.977-4.228,9.646-8.295,13.443
			c-5.065,4.727-11.335,7.352-17.739,7.926c-0.675,4.426-1.542,8.672-2.608,12.625C96.282,104.42,102.234,101.447,107.22,96.793z"/>
		<path fill="#263778" d="M66.133,5.886c0.681-0.021,1.364-0.037,2.05-0.037C67.503,5.849,66.82,5.865,66.133,5.886z"/>
		<path fill="#263778" d="M68.183,132.516c-0.686,0-1.369-0.014-2.05-0.035C66.82,132.502,67.503,132.516,68.183,132.516z"/>
		<path fill="#0C723E" d="M90.062,105.742c-12.034,2.559-25.074-1.07-34.079-10.721c-13.661-14.639-12.869-37.576,1.769-51.236
			c7.264-6.78,16.572-9.995,25.775-9.731c-5.066,1.111-9.914,3.551-13.982,7.348C57.453,52.688,56.798,71.639,68.083,83.73
			c6.557,7.025,15.702,10.182,24.587,9.387c5.668-37.182-2.491-87.268-24.487-87.268c-0.686,0-1.369,0.016-2.05,0.037
			c-0.152,0.004-0.306,0.01-0.458,0.016c-11.093,0.434-21.454,3.715-30.369,9.141v108.282c8.915,5.424,19.276,8.707,30.369,9.139
			c0.152,0.006,0.306,0.014,0.458,0.018c0.681,0.021,1.364,0.035,2.05,0.035C78.547,132.516,85.84,121.395,90.062,105.742z"/>
		<path fill="#F3F4F5" d="M68.083,83.73c-11.285-12.092-10.631-31.043,1.461-42.328c4.068-3.797,8.916-6.237,13.982-7.348
			c-9.203-0.264-18.512,2.951-25.775,9.731c-14.638,13.66-15.43,36.598-1.769,51.236c9.005,9.65,22.045,13.279,34.079,10.721
			c1.066-3.953,1.934-8.199,2.608-12.625C83.786,93.912,74.64,90.756,68.083,83.73z"/>
	</g>
	<polygon fill="#F3F4F5" points="99.245,42.414 104.464,48.371 111.744,45.248 107.689,52.053 112.91,58.012 105.184,56.26 
		101.13,63.064 100.408,55.178 92.685,53.424 99.965,50.301 	"/>
</g>
</svg>
