<?xml version="1.0" encoding="utf-8"?>
<!-- Generator: Adobe Illustrator 16.0.0, SVG Export Plug-In . SVG Version: 6.00 Build 0)  -->
<!DOCTYPE svg PUBLIC "-//W3C//DTD SVG 1.1//EN" "http://www.w3.org/Graphics/SVG/1.1/DTD/svg11.dtd">
<svg version="1.1" id="Layer_1" xmlns="http://www.w3.org/2000/svg" xmlns:xlink="http://www.w3.org/1999/xlink" x="0px" y="0px"
	 width="136.913px" height="136.913px" viewBox="0 0 136.913 136.913" enable-background="new 0 0 136.913 136.913"
	 xml:space="preserve">
<g>
	<g>
		<g>
			<circle fill="#FFFFFF" cx="68.456" cy="68.457" r="63.333"/>
		</g>
		<g>
			<path fill="#EFECEC" d="M128.17,47.34H89.148c1.695,13.529,1.705,28.436,0.033,41.982h39.072
				c2.281-6.535,3.535-13.553,3.535-20.865C131.789,61.049,130.506,53.945,128.17,47.34z"/>
			<path fill="#C42B27" d="M89.148,47.34h39.021c-0.006-0.02-0.012-0.037-0.02-0.055C120.045,24.43,99.195,7.615,74.145,5.383
				C83.838,10.697,86.67,27.533,89.148,47.34z"/>
			<path fill="#0B0B0B" d="M74.145,131.527c25.096-2.236,45.975-19.109,54.049-42.025c0.021-0.061,0.039-0.121,0.061-0.18H89.182
				C86.723,109.236,83.879,126.191,74.145,131.527z"/>
			<path fill="#EFEFEF" d="M5.123,68.457c0,7.313,1.256,14.33,3.535,20.865h83.783c1.674-13.547,1.662-28.453-0.031-41.982H8.742
				C6.406,53.945,5.123,61.049,5.123,68.457z"/>
			<path fill="#CC3434" d="M8.762,47.285c-0.006,0.018-0.012,0.035-0.02,0.055H92.41c-2.48-19.807-8.572-36.643-18.266-41.957
				c-1.875-0.166-3.771-0.26-5.689-0.26C40.904,5.123,17.475,22.719,8.762,47.285z"/>
			<path fill="#151515" d="M92.441,89.322H8.658c0.021,0.059,0.041,0.119,0.061,0.18c8.678,24.629,32.141,42.287,59.736,42.287
				c1.918,0,3.814-0.094,5.689-0.262C83.879,126.191,89.982,109.236,92.441,89.322z"/>
		</g>
	</g>
	<g>
		<path fill-rule="evenodd" clip-rule="evenodd" fill="#EEBC31" d="M80.816,83.188c-0.766-0.205-1.902-0.037-2.818-0.092
			c-0.174,0.102-0.152,0.402-0.23,0.602c0.09,0.186,0.277,0.084,0.463,0.23c0.289,0.277,0.486,0.652,0.924,0.785
			c-0.377,0.395-0.367,1.174-0.924,1.387c0.094,0.908-0.496,1.068-1.387,1.246c-4.264,0.85-10.895,0.936-15.428,0.322
			c-0.563-0.074-2.215-0.32-2.635-0.691c-0.166-0.15-0.266-0.373-0.23-0.787c-0.535-0.266-0.541-1.061-0.969-1.432
			c0.598-0.203,0.713-0.887,1.387-1.016c0.02-0.283-0.102-0.424-0.141-0.646c-0.951,0.051-2.107-0.107-2.91,0.092
			c0.074-1.033,0.098-2.207,0.186-3.418c0.117-1.619,0.1-3.516,0.23-5.127c0.068-0.822,0.041-1.672,0.094-2.494
			c0.096-1.561,0.027-3.111,0.139-4.574c0.119-1.578,0.064-3.264,0.184-4.756c0.123-1.547,0.549-2.783,2.355-2.635
			c2.141,0.178,3.486,1.971,5.82,1.986c1.084-0.67,1.873-3.273,1.57-5.219c-0.139-0.9-1.092-2.201-2.031-1.709
			c-0.139-1.518,1.307-1.314,2.262-0.832c0.291-0.182,0.377-0.438,0.693-0.508c0.783-0.174,1.789,0.182,2.172,0.416
			c0.727,0.445,1.064,1.432,1.063,2.68c-0.002,0.646-0.146,1.289-0.094,1.939c0.115,1.379,0.584,2.5,1.156,3.188
			c2.168,0.199,3.762-1.732,5.865-1.941c0.895-0.088,1.641,0.248,2.033,0.832c0.598,2.219,0.408,4.67,0.6,7.16
			c0.115,1.492,0.047,3.051,0.139,4.574C80.563,76.193,80.666,79.65,80.816,83.188z M70.422,59.029
			c-0.094-1.254,0.254-2.598-0.184-3.742c-0.205-0.195-0.324-0.477-0.602-0.6c-0.23,0-0.461,0-0.691,0
			c-0.346,0.186-0.473,0.57-0.832,0.646c-0.854,0.182-0.922-0.629-1.57-0.877c-0.168-0.066-0.396-0.029-0.602-0.094
			c-0.619-0.189-0.986-0.41-1.293,0.463c1.131-0.066,2.141,0.299,2.402,1.248c-0.646-0.18-0.465,0.4-0.416,0.783
			c0.238,1.904-0.186,3.438-0.832,4.482c-0.307,0.498-0.701,0.887-0.924,1.34c0.672-0.125,1.279-0.086,1.617-0.51
			c0.453-0.564,0.355-1.771,0.646-2.447c-0.027,1.434-0.434,2.492-1.107,3.279c1.646-0.232,1.932-1.605,2.078-3.279
			c0.121,0.83-0.1,1.719-0.371,2.309c0.213,0.266,0.334,0.623,0.648,0.787c0.26-0.217,0.453-0.502,0.6-0.832
			c-0.24-0.545-0.525-1.535-0.277-2.264c-0.021,1.777,0.465,3.047,1.988,3.279c-0.613-0.775-1.205-2.059-1.018-3.326
			c0.053,0.994,0.293,1.801,0.6,2.541c0.424,0.27,0.959,0.428,1.619,0.463C71.164,61.779,70.541,60.584,70.422,59.029z
			 M67.514,54.826c0,0.061,0,0.123,0,0.184c0.111-0.018,0.1,0.086,0.229,0.047c0.041-0.053,0.063-0.123,0.047-0.23
			C67.73,54.764,67.572,54.764,67.514,54.826z M58.598,60.322c-1.021,0.08-1.572,0.934-1.57,1.941
			c0.447-0.154,0.873-0.572,1.34-0.555c-0.25,6.951-0.555,13.275-0.832,20.141c-0.402,0.379-0.916,0.652-1.201,1.154
			c0.832,0,1.664,0,2.494,0c0.131-1.102,1.369-1.328,2.402-1.018c0.49-1.695,0.988-3.383,1.434-5.127
			c-0.459,0.281-0.693,0.785-1.156,1.063c0.166-4.445,0.391-8.771,0.555-13.303c0.713,0.555,1.871,0.588,3.002,0.416
			c1.354-0.207,2.525-0.957,3.371-1.479c0.887,0.787,2.512,1.445,4.158,1.57c1.025,0.078,1.498-0.256,2.125-0.416
			c0.096,4.529,0.42,8.959,0.508,13.258c-0.377-0.348-0.688-0.76-1.107-1.064c0.408,1.748,0.939,3.373,1.385,5.082
			c1.076-0.34,2.264-0.045,2.449,1.018c0.814-0.031,1.754,0.061,2.492-0.047c-0.291-0.516-1.008-0.664-1.199-1.201
			c-0.217-0.605-0.059-1.527-0.092-2.311c-0.254-5.586-0.609-12.184-0.74-17.781c0.523,0.123,0.855,0.438,1.34,0.6
			c-0.104-1.113-0.566-1.871-1.617-1.941c-2.391-0.16-3.77,2.039-6.189,1.986c0,0.293,0.471,0.359,0.416,0.555
			c-0.463-0.033-1.148-0.068-1.617-0.23c-0.045,0.256,0.42,0.373,0.461,0.691c-0.918-0.156-1.607-0.543-2.17-1.061
			c-0.215,0.307-0.408,0.639-0.693,0.877c-0.244-0.277-0.395-0.654-0.693-0.877c-0.486,0.561-1.162,0.932-2.123,1.016
			c0.135-0.234,0.414-0.324,0.461-0.646c-0.426,0.148-1.135,0.246-1.617,0.186c0.143-0.168,0.387-0.23,0.416-0.51
			C62.494,62.373,60.895,60.145,58.598,60.322z M63.078,65.313c0.092,5.064,2.023,8.693,5.357,10.67
			c3.178-2.09,5.195-5.584,5.221-10.67c-1.629-0.021-2.777-0.258-3.787-0.693c-0.568-0.244-1.115-0.693-1.57-0.832
			C67.043,64.779,65.324,65.311,63.078,65.313z M63.17,68.684c-0.043,2.244-0.402,4.984-0.23,7.299
			c0.471-1.248,0.34-2.83,0.416-4.48c0.051-1.105,0.277-2.223-0.139-2.957C63.219,68.609,63.195,68.646,63.17,68.684z
			 M73.426,72.842c0,1.242,0.061,2.453,0.461,3.186c0.047-2.457-0.262-5.012-0.275-7.438c-0.061-0.002-0.064-0.057-0.139-0.045
			C73.152,69.764,73.426,71.336,73.426,72.842z M63.91,75.475c0.398-0.449,0.842-0.852,1.201-1.342c-0.061-1-0.303-1.82-0.832-2.354
			C64.135,72.965,62.994,74.496,63.91,75.475z M71.67,74.18c0.434,0.4,0.805,1.104,1.293,1.295c0.689-1.123-0.305-2.328-0.414-3.604
			c-0.061-0.002-0.066-0.061-0.141-0.045C71.949,72.395,71.68,73.158,71.67,74.18z M65.48,76.26
			c0.426-0.453,0.795-0.963,1.154-1.479c-0.574-0.457-0.992-1.07-1.523-1.572C65.23,74.23,65.297,75.301,65.48,76.26z
			 M70.146,74.826c0.404,0.473,0.689,1.066,1.201,1.434c0.094-1,0.17-2.016,0.322-2.957c-0.004-0.057-0.014-0.109-0.092-0.094
			C71.15,73.799,70.641,74.307,70.146,74.826z M63.771,75.75c-0.057-0.297-0.213-0.494-0.277-0.783
			c-0.398,0.531-0.445,1.326-0.646,2.031c-0.074,0.258-0.252,0.469-0.23,0.74c0.529-0.227,0.746-0.764,1.293-0.971
			c0.098,0.457,0.326,0.781,0.461,1.201c0.428-0.205,0.408-0.855,0.787-1.109c0.209,0.744,0.428,1.48,0.691,2.172
			c0.492-0.416,1.053-0.766,1.201-1.525c-0.277-0.631-0.531-1.285-0.785-1.939c-0.375,0.256-0.613,0.896-0.924,1.063
			c-0.084-0.764-0.033-1.66-0.324-2.217C64.637,74.893,64.246,75.361,63.771,75.75z M71.439,76.674
			c-0.336-0.342-0.568-0.785-0.924-1.107c-0.133,0.303-0.289,0.602-0.416,0.924s-0.355,0.719-0.369,1.016
			c-0.035,0.725,0.764,1.064,1.201,1.525c0.203-0.721,0.293-1.555,0.6-2.172c0.287,0.361,0.416,0.879,0.832,1.109
			c0.213-0.387,0.361-0.84,0.555-1.248c0.395,0.346,0.76,0.721,1.201,1.018c-0.201-0.834-0.453-2.01-0.832-2.818
			c-0.094,0.305-0.217,0.582-0.369,0.83c-0.43-0.416-0.756-0.938-1.248-1.293C71.531,75.135,71.475,75.895,71.439,76.674z
			 M66.727,74.92c-0.748,0.533,0.082,1.615,0.371,2.219c0.131-0.533,0.252-1.074,0.369-1.619
			C67.213,75.328,66.969,75.125,66.727,74.92z M69.314,75.566c0.139,0.523,0.146,1.178,0.416,1.572
			c0.258-0.545,0.449-1.154,0.691-1.711c-0.131-0.191-0.215-0.432-0.461-0.508C69.85,75.238,69.443,75.264,69.314,75.566z
			 M63.725,76.951c-0.363,0.377-0.713,0.766-1.201,1.018c-0.322,0.932,0.344,1.723,0.646,2.447c0.42-0.305,0.6-0.85,1.018-1.154
			c0.168,0.541,0.283,1.133,0.555,1.57c0.453-0.318,0.713-1.07,1.152-1.246c0.102,0.5,0.096,1.105,0.371,1.432
			c0.164-0.883,0.375-1.719,0.553-2.588c-0.373,0.076-0.645,0.646-1.016,0.879c-0.256-0.668-0.422-1.424-0.691-2.08
			c-0.363,0.254-0.414,0.82-0.74,1.109C64.184,77.848,64.051,77.305,63.725,76.951z M72.316,78.338
			c-0.264-0.383-0.42-0.871-0.832-1.109c-0.166,0.695-0.355,1.369-0.506,2.08c-0.385-0.221-0.643-0.805-1.018-0.879
			c0.186,0.906,0.291,1.895,0.646,2.633c0.076-0.539,0.168-1.064,0.324-1.523c0.416,0.4,0.633,0.998,1.154,1.293
			c0.145-0.549,0.342-1.043,0.508-1.57c0.391,0.334,0.576,0.871,1.018,1.154c0.256-0.742,0.906-1.434,0.645-2.4
			c-0.48-0.305-0.838-0.732-1.293-1.064C72.693,77.359,72.596,77.938,72.316,78.338z M67.283,81.986
			c-0.238,0.133-0.406,0.336-0.648,0.463c-0.098-0.115-0.383-0.492-0.461-0.324c-0.064,0.184-0.072,0.422-0.139,0.602
			c0.441,0.041,1.313-0.129,1.523,0.277c0.625-0.086,1.129,0.117,1.617,0c0.182-0.045,0.324-0.242,0.508-0.277
			c0.344-0.068,0.678,0.061,1.018,0c-0.063-0.201-0.014-0.51-0.141-0.646c-0.303-0.012-0.25,0.332-0.553,0.322
			c-0.158-0.211-0.443-0.297-0.602-0.508c-0.176-1.285-0.287-2.639-0.553-3.834c-0.105,1.277,0.188,2.551,0.137,3.926
			c-0.248,0.213-0.367,0.557-0.646,0.74c-0.105-0.309-0.525-0.467-0.602-0.877c-0.201-1.129,0.42-2.879,0.141-3.789
			C67.623,79.309,67.566,80.762,67.283,81.986z M61.369,82.033c0.197,0.125,0.426,0.221,0.785,0.184
			c0.303-0.357,0.51-0.813,0.877-1.107c0.164,0.498,0.336,0.99,0.557,1.432c0.105,0,0.215,0,0.322,0
			c0.25-0.303,0.389-0.719,0.646-1.016c0.162,0.361,0.24,0.807,0.414,1.154c0.211,0.084,0.553,0.033,0.832,0.047
			c0.467-0.791,0.285-2.047-0.045-2.863c-0.424,0.377-0.674,0.926-1.109,1.293c-0.188-0.535-0.256-1.191-0.602-1.57
			c-0.322,0.367-0.611,0.771-0.922,1.154c-0.328-0.58-0.42-1.398-0.879-1.848C61.998,79.982,61.684,81.008,61.369,82.033z
			 M73.611,80.74c-0.32-0.389-0.551-0.869-0.971-1.154c-0.271,0.451-0.313,1.135-0.602,1.57c-0.355-0.4-0.676-1.076-1.107-1.248
			c-0.213,0.943-0.492,2.031,0.047,2.818c0.264-0.012,0.588,0.035,0.785-0.047c0.213-0.324,0.248-0.828,0.461-1.154
			c0.195,0.344,0.404,0.672,0.6,1.016c0.125,0,0.248,0,0.369,0c0.207-0.486,0.35-1.037,0.602-1.479
			c0.25,0.443,0.549,0.836,0.877,1.201c0.258-0.066,0.584-0.063,0.693-0.277c-0.313-0.996-0.574-2.043-0.877-3.047
			c-0.047,0-0.092,0-0.139,0C74.131,79.566,73.873,80.156,73.611,80.74z M62.293,82.311c0.389,0.045,0.684,0.178,1.109,0.184
			c-0.146-0.393-0.217-0.861-0.508-1.107C62.738,81.738,62.412,81.922,62.293,82.311z M73.379,82.494
			c0.264,0.023,0.709-0.146,1.063-0.184c-0.035-0.279-0.395-0.617-0.6-0.877C73.551,81.65,73.49,82.1,73.379,82.494z M64.094,82.588
			c0.152,0.094,0.469,0.025,0.693,0.047c-0.088-0.268-0.072-0.637-0.322-0.74C64.328,82.113,64.166,82.303,64.094,82.588z
			 M71.994,82.635c0.215,0,0.432,0,0.646,0c-0.061-0.342-0.176-0.627-0.463-0.74C72.166,82.17,71.928,82.43,71.994,82.635z
			 M76.475,81.986c-1.08,0.236-2.484,0.645-3.834,0.787c-1.039,0.107-1.969,0.139-2.957,0.092c-0.271,0.293-0.131,0.629,0.047,0.924
			c0.939,0.141,1.994,0.076,2.91-0.047c-0.051-0.98,1.113-1.223,1.246-0.184c0.998-0.219,2.115-0.32,2.91-0.74
			C76.805,82.428,76.803,82.043,76.475,81.986z M63.264,82.68c-0.793-0.113-1.861-0.488-2.588-0.646
			c-0.412-0.09-0.535-0.016-0.691,0.184c0,0.217,0,0.434,0,0.648c0.85,0.35,1.895,0.506,2.91,0.693
			c0.086-1.043,1.258-0.848,1.199,0.184c1.004,0.121,1.883,0.188,2.912,0.047c0.205-0.324,0.34-0.563,0.092-0.924
			C65.863,82.893,64.758,82.896,63.264,82.68z M59.061,83.234c0.32-0.082,0.568-0.232,0.785-0.416
			c-0.021-0.225,0.047-0.541-0.047-0.693C59.281,82.197,58.912,82.652,59.061,83.234z M76.936,82.865
			c0.232,0.152,0.467,0.305,0.785,0.369c0.109-0.545-0.221-1.037-0.738-1.109C76.887,82.291,76.957,82.625,76.936,82.865z
			 M63.494,84.111c0.1-0.115,0.242-0.188,0.369-0.277c0.033-0.371-0.014-0.662-0.184-0.83
			C62.867,82.891,62.898,84.021,63.494,84.111z M72.871,83.789c0.066,0.16,0.279,0.195,0.461,0.322
			c0.189-0.104,0.279-0.307,0.416-0.461C73.725,82.637,72.563,83.051,72.871,83.789z M62.801,83.697
			c-1.23-0.041-2.469-0.904-3.557-0.369c-0.035,0.225-0.201,0.32-0.139,0.645c-0.521-0.055-1.121,0.639-1.154,0.879
			c-0.072,0.525,0.451,0.906,0.738,1.248c-0.033,0.324,0.029,0.555,0.139,0.736c3.91,1.295,10.371,1.322,15.197,0.787
			c1.418-0.158,3.678-0.303,4.066-1.109c0-0.184,0-0.369,0-0.555c0.512-0.135,0.594-0.697,0.738-1.201
			c-0.41-0.268-0.549-0.805-1.201-0.83c0.129-0.186-0.09-0.355-0.092-0.555c-0.576-0.49-1.264-0.131-2.078,0.045
			c-1.119,0.244-1.852,0.246-2.127,1.064c-0.115-0.285-0.391-0.41-0.6-0.602c-0.883,0.129-2.045,0.223-2.955,0.047
			c-0.24,0.375-0.768,0.463-0.832,1.016c-0.131-0.346-0.35-0.605-0.324-1.109c-0.152,0-0.309,0-0.461,0
			c-0.066,0.43-0.16,0.826-0.371,1.109c-0.037-0.563-0.586-0.613-0.783-1.016c-0.893,0.207-2.172,0.02-2.959,0
			c-0.316,0.098-0.451,0.377-0.691,0.555C63.32,84.072,62.986,83.959,62.801,83.697z M67.836,83.141
			c0.057,0.238,0.215,0.371,0.324,0.557c0.563,0.115,0.613-0.279,0.785-0.557C68.674,83.066,68.107,83.066,67.836,83.141z
			 M67.189,83.928c0.197,0.201,0.393,0.408,0.693,0.508c0.18-0.479,0.055-1.189-0.463-1.248
			C67.461,83.553,67.15,83.564,67.189,83.928z M69.176,83.188c-0.287,0.207-0.648,0.975-0.186,1.248
			c0.176-0.227,0.49-0.311,0.602-0.602C69.398,83.674,69.441,83.275,69.176,83.188z"/>
		<path fill-rule="evenodd" clip-rule="evenodd" fill="#EEBC31" d="M59.383,79.955c-0.498,0.439-1.08,1.043-1.57,1.338
			c0.219-6.305,0.621-12.783,0.832-19.307c0.477,0.217,1,0.783,1.432,1.201C59.877,68.828,59.615,73.998,59.383,79.955z"/>
		<path fill-rule="evenodd" clip-rule="evenodd" fill="#EEBC31" d="M78.969,81.248c-0.264,0.051-0.521-0.381-0.785-0.602
			c-0.299-0.248-0.65-0.455-0.832-0.738c-0.291-4.758-0.221-9.779-0.602-14.318c-0.057-0.705-0.199-1.932-0.092-2.357
			c0.145-0.563,1.1-0.777,1.387-1.291C78.398,67.736,78.639,75.006,78.969,81.248z"/>
		<path fill-rule="evenodd" clip-rule="evenodd" fill="#EEBC31" d="M60.492,63.512c0.443,0.248,0.764,0.619,1.154,0.924
			c-0.111,3.713-0.344,8.158-0.508,11.869c-0.023,0.543,0.133,1.398-0.047,1.895c-0.195,0.537-0.949,0.826-1.293,1.293
			C60,74.113,60.314,68.783,60.492,63.512z"/>
		<path fill-rule="evenodd" clip-rule="evenodd" fill="#EEBC31" d="M76.936,79.4c-0.061,0.064-0.189-0.098-0.277-0.186
			c-0.273-0.27-0.654-0.686-0.924-0.969c-0.234-4.518-0.412-9.232-0.6-13.719c0.26-0.418,0.703-0.652,1.063-0.971
			C76.467,68.416,76.703,74.188,76.936,79.4z"/>
		<path fill-rule="evenodd" clip-rule="evenodd" fill="#EEBC31" d="M73.24,65.543c-0.07,4.732-1.922,8.086-4.85,10.115
			c-2.992-2.057-4.742-5.357-5.035-10.115c2.111-0.014,3.906-0.59,5.035-1.432C69.529,65.066,71.223,65.465,73.24,65.543z
			 M66.727,65.219c-0.082,1.891-0.045,4.438-0.045,6.514c0,0.758-0.156,1.648,0,2.217c0.082,0.297,0.541,0.572,0.785,0.785
			c0.316,0.277,0.574,0.527,0.877,0.693c0.451-0.354,1.551-0.895,1.711-1.479c0.15-0.559,0-1.418,0-2.17c0-2.162,0-4.604,0-6.561
			c-0.6-0.295-1.164-0.623-1.756-0.924C67.875,64.705,67.182,64.842,66.727,65.219z"/>
		<path fill-rule="evenodd" clip-rule="evenodd" fill="#EEBC31" d="M60.354,82.264c0.289,0.096,0.746,0.023,0.785,0.371
			c-0.244,0.09-0.441-0.227-0.785-0.186C60.354,82.387,60.354,82.326,60.354,82.264z"/>
		<path fill-rule="evenodd" clip-rule="evenodd" fill="#EEBC31" d="M76.428,82.357c-0.201,0.168-0.523,0.213-0.785,0.322
			C75.635,82.357,76.262,82.201,76.428,82.357z"/>
		<path fill-rule="evenodd" clip-rule="evenodd" fill="#EEBC31" d="M61.74,82.727c0.389,0.043,0.76,0.102,0.969,0.322
			C62.406,83.061,61.801,82.986,61.74,82.727z"/>
		<path fill-rule="evenodd" clip-rule="evenodd" fill="#EEBC31" d="M75.043,82.773c-0.135,0.164-0.699,0.318-1.018,0.275
			C74.24,82.865,74.707,82.684,75.043,82.773z"/>
		<path fill-rule="evenodd" clip-rule="evenodd" fill="#EEBC31" d="M72.502,83.373c-0.242,0.076-0.775,0.076-1.018,0
			C71.564,83.061,72.398,83.088,72.502,83.373z"/>
		<path fill-rule="evenodd" clip-rule="evenodd" fill="#EEBC31" d="M65.389,83.234c-0.09,0.342-0.74,0.123-1.109,0.184
			C64.309,83.004,65.08,83.234,65.389,83.234z"/>
		<path fill-rule="evenodd" clip-rule="evenodd" fill="#EEBC31" d="M66.773,83.328c-0.225,0.119-0.711,0.201-0.971,0.137
			C65.895,83.215,66.506,83.244,66.773,83.328z"/>
		<path fill-rule="evenodd" clip-rule="evenodd" fill="#EEBC31" d="M70.932,83.512c-0.354-0.018-0.648-0.092-0.971-0.139
			C70.135,83.209,70.932,83.195,70.932,83.512z"/>
		<path fill-rule="evenodd" clip-rule="evenodd" fill="#EEBC31" d="M77.307,85.268c0.209-0.006,0.096-0.336,0.322-0.324
			c-0.033,0.141,0.047,0.168,0.045,0.277c-0.268,0.143-0.498,0.213-0.83,0.092c-0.363,0.193-0.813,0.859-1.293,0.369
			c-0.332,0.055-0.283,0.486-0.555,0.602c-0.369-0.291-0.686-0.148-1.248-0.094c-0.166,0.189-0.18,0.527-0.508,0.555
			c0.02-0.211,0.273-0.188,0.277-0.414c-0.051-0.15-0.314-0.086-0.416-0.186c-0.086-0.379,0.209-0.377,0.324-0.555
			c0.211,0.051,0.229,0.293,0.277,0.51c0.172,0.002,0.291-0.047,0.416-0.094c0.039-0.268,0.176-0.439,0.322-0.6
			c-0.008-0.256-0.166-0.604-0.139-0.74c0.264,0.061,0.137,0.512,0.277,0.693c0.355-0.033,0.566,0.082,0.646,0.322
			c0.359-0.137,0.467-0.555,0.924-0.553c0.201,0,0.309,0.176,0.508,0.139c0.055-0.613-0.105-1.873-0.877-1.387
			c0.035-0.242,0.377-0.18,0.646-0.184C76.91,84.029,76.445,85.311,77.307,85.268z M75.689,85.637
			c0.213,0.191,0.748,0.088,0.693-0.277C76.252,85.127,75.598,85.227,75.689,85.637z M74.766,85.867
			c0.105-0.033,0.234-0.041,0.322-0.092C75.088,85.248,74.35,85.51,74.766,85.867z M74.35,86.006
			c0.115,0.008,0.143-0.072,0.23-0.094c-0.002-0.15,0.02-0.324-0.139-0.322C74.357,85.672,74.225,85.857,74.35,86.006z M73.24,86.1
			c0.143,0.064,0.209,0.02,0.324-0.047c0-0.109-0.08-0.137-0.047-0.277C73.326,85.785,73.205,85.861,73.24,86.1z M74.811,86.1
			c0.146,0.123,0.338-0.006,0.324-0.188C74.992,85.941,74.809,85.924,74.811,86.1z"/>
		<path fill-rule="evenodd" clip-rule="evenodd" fill="#EEBC31" d="M60.537,83.928c0,0.076,0,0.154,0,0.23
			c-0.066,0.072-0.236,0.041-0.369,0.047c-0.039-0.164-0.006-0.115-0.045-0.277C60.25,83.816,60.393,83.844,60.537,83.928z"/>
		<path fill-rule="evenodd" clip-rule="evenodd" fill="#EEBC31" d="M60.445,84.482c0.006,0.082-0.057,0.098-0.047,0.184
			c-0.188,0.004-0.361-0.006-0.369-0.184C60.105,84.412,60.371,84.412,60.445,84.482z"/>
		<path fill-rule="evenodd" clip-rule="evenodd" fill="#EEBC31" d="M70.146,84.852c0.061,0,0.123,0,0.184,0
			c0.068,0.066,0.068,0.303,0,0.369c-0.061,0-0.123,0-0.184,0C70.078,85.154,70.078,84.918,70.146,84.852z"/>
		<path fill-rule="evenodd" clip-rule="evenodd" fill="#EEBC31" d="M65.064,84.943c0.143,0.602,0.246,1.9-0.277,1.986
			c-0.521,0.084-0.371-0.703-0.877-0.74c-0.309,0.113-0.691,0.244-1.016,0.094c-0.23,0.016-0.193,0.299-0.416,0.324
			c0.297-0.307,0.172-0.697,0.139-1.064c0.248,0.029,0.283,0.271,0.277,0.557c0.133,0.279,0.689,0.092,0.877,0
			c-0.1-0.195-0.225-0.363-0.324-0.557c0.283-0.074,0.283-0.336,0.555-0.322c0.451,0.021,0.561,0.719,0.092,0.924
			c0.303,0.113,0.34,0.492,0.602,0.646C65.305,86.66,64.859,85.479,65.064,84.943z M63.68,85.682
			c-0.008,0.176,0.152,0.277,0.322,0.371C64.781,85.703,63.709,84.941,63.68,85.682z"/>
		<path fill-rule="evenodd" clip-rule="evenodd" fill="#EEBC31" d="M65.666,84.943c0.15,0.318-0.053,1.047-0.094,1.479
			C65.439,86.119,65.6,85.35,65.666,84.943z"/>
		<path fill-rule="evenodd" clip-rule="evenodd" fill="#EEBC31" d="M70.793,84.943c0.309,0.307-0.055,1.287,0.322,1.523
			c0.316-0.094,0.529-0.051,0.602-0.322c0.064-0.24-0.268-0.383-0.092-0.555c0.412,0.02,0.139,0.6,0.092,0.832
			c-0.482,0.129-0.975,0.174-1.387,0.092c0.025-0.236,0.273-0.25,0.463-0.324C70.967,85.791,70.693,85.266,70.793,84.943z"/>
		<path fill-rule="evenodd" clip-rule="evenodd" fill="#EEBC31" d="M70.516,85.498c0.029,0.27-0.559,0.115-0.369-0.047
			C70.213,85.389,70.512,85.357,70.516,85.498z"/>
		<path fill-rule="evenodd" clip-rule="evenodd" fill="#EEBC31" d="M72.225,87.023c0.063-0.248,0.215-0.4,0.324-0.602
			c-0.129-0.258-0.637-0.5-0.279-0.832C72.98,85.695,72.646,86.854,72.225,87.023z M72.27,85.82
			c0.023,0.178,0.096,0.307,0.279,0.324C72.66,86.008,72.451,85.666,72.27,85.82z"/>
		<path fill-rule="evenodd" clip-rule="evenodd" fill="#EEBC31" d="M77.352,85.775c-0.002,0.27-0.33,0.18-0.461,0.092
			C76.963,85.609,77.199,85.686,77.352,85.775z"/>
		<path fill-rule="evenodd" clip-rule="evenodd" fill="#EEBC31" d="M66.959,85.729c0.422,0.295,1.197,0.455,1.754,0.23
			c0.135,0.129,0.121,0.404,0.232,0.555c0.055-0.053,0.162-0.053,0.277-0.047c-0.096-0.549,0.668-0.684,0.646-0.092
			c-0.141,0.262-0.555,0.246-0.971,0.232c-0.189,0.104-0.189,0.395-0.369,0.506c-0.205-0.072-0.375-0.18-0.416-0.414
			c-0.641-0.133-0.725-0.053-1.479-0.092c-0.186,0.219-0.365,0.672-0.646,0.646c0.135-0.236,0.398-0.34,0.463-0.646
			c-0.086-0.176-0.408-0.314-0.232-0.602c0.443-0.072,0.227,0.514,0.6,0.508C67.211,86.354,66.91,85.986,66.959,85.729z
			 M67.098,86.514c0.25,0.002,0.674,0.008,1.016,0.047c0.145,0.117,0.162,0.361,0.369,0.416c0.152-0.201,0.414-0.58,0.186-0.877
			C68.16,86.521,67.049,85.553,67.098,86.514z M69.406,86.467c0.24,0.041,0.328-0.072,0.324-0.277
			C69.555,85.955,69.242,86.227,69.406,86.467z"/>
		<path fill-rule="evenodd" clip-rule="evenodd" fill="#EEBC31" d="M60.215,85.959c0.146-0.039,0.143,0.072,0.23,0.094
			c0.006,0.141-0.057,0.221-0.092,0.322C60.086,86.338,60.086,86.105,60.215,85.959z"/>
		<path fill-rule="evenodd" clip-rule="evenodd" fill="#EEBC31" d="M61,86.145c0.195,0.32-0.275,0.492-0.416,0.23
			C60.602,86.178,60.748,86.107,61,86.145z"/>
		<path fill-rule="evenodd" clip-rule="evenodd" fill="#EEBC31" d="M61.693,86.514c-0.045,0.002-0.037,0.057-0.047,0.094
			c-0.107,0-0.215,0-0.324,0C61.104,86.227,61.711,86.092,61.693,86.514z"/>
		<path fill-rule="evenodd" clip-rule="evenodd" fill="#EEBC31" d="M70.746,86.791c0.246,0.006,0.217,0.4,0.047,0.463
			C70.605,87.229,70.619,86.873,70.746,86.791z"/>
		<path fill-rule="evenodd" clip-rule="evenodd" fill="#EEBC31" d="M71.393,87.254c-0.135-0.051-0.273-0.098-0.322-0.23
			C71.211,86.582,71.777,86.977,71.393,87.254z"/>
		<path fill-rule="evenodd" clip-rule="evenodd" fill="#EEBC31" d="M60.77,83.928c0.047,0,0.092,0,0.139,0
			c0.014,0.637-0.951,1.725,0.139,1.801c0.178-0.113,0.08-0.504,0.322-0.555c0.027,0.244-0.094,0.338-0.139,0.508
			c0.211,0.592,1.275,0.256,0.832-0.414c0.518,0.008,0.111,0.561,0.045,0.785c-0.299,0.141-0.729-0.008-0.969-0.186
			c-0.514-0.041-0.967-0.143-1.016-0.646C60.584,85.035,60.686,84.49,60.77,83.928z"/>
	</g>
</g>
</svg>
