<?xml version="1.0" encoding="utf-8"?>
<!-- Generator: Adobe Illustrator 16.0.0, SVG Export Plug-In . SVG Version: 6.00 Build 0)  -->
<!DOCTYPE svg PUBLIC "-//W3C//DTD SVG 1.1//EN" "http://www.w3.org/Graphics/SVG/1.1/DTD/svg11.dtd">
<svg version="1.1" id="Layer_1" xmlns="http://www.w3.org/2000/svg" xmlns:xlink="http://www.w3.org/1999/xlink" x="0px" y="0px"
	 width="136.913px" height="136.914px" viewBox="0 0 136.913 136.914" enable-background="new 0 0 136.913 136.914"
	 xml:space="preserve">
<g>
	<g>
		<circle fill="#FFFFFF" cx="68.457" cy="68.458" r="63.333"/>
	</g>
	<g>
		<path fill="#0B0B0B" d="M128.171,47.341H89.149c1.693,13.529,1.705,28.436,0.031,41.982h39.074
			c2.279-6.535,3.535-13.553,3.535-20.865C131.79,61.05,130.507,53.946,128.171,47.341z"/>
		<path fill="#151515" d="M5.124,68.458c0,7.313,1.254,14.33,3.535,20.865h83.783c1.672-13.547,1.662-28.453-0.033-41.982H8.743
			C6.407,53.946,5.124,61.05,5.124,68.458z"/>
		<g>
			<path fill="#66A4D2" d="M88.554,42.733h3.855h33.918c-9.129-20.51-28.826-35.27-52.182-37.35
				C83.077,10.28,85.747,24.962,88.554,42.733z"/>
			<path fill="#66A4D2" d="M89.181,93.983c-2.795,17.859-6.07,32.631-15.035,37.545c23.428-2.088,43.178-16.936,52.27-37.545H92.442
				H89.181z"/>
			<path fill="#E4E4E4" d="M91.755,42.733c0.24,1.516,0.459,3.051,0.654,4.607h35.762c-0.008-0.02-0.014-0.037-0.02-0.055
				c-0.549-1.547-1.162-3.064-1.824-4.553H92.409H91.755z"/>
			<path fill="#E4E4E4" d="M128.255,89.323H92.442c-0.195,1.574-0.414,3.127-0.654,4.66h0.654h33.973
				c0.646-1.467,1.242-2.959,1.779-4.48C128.214,89.442,128.233,89.382,128.255,89.323z"/>
			<path fill="#75ABDC" d="M74.146,5.384c-1.875-0.166-3.771-0.26-5.689-0.26c-25.818,0-48.016,15.451-57.877,37.609h77.975h0.596
				h2.605C88.948,24.962,83.077,10.28,74.146,5.384z"/>
			<path fill="#F3F4F5" d="M91.755,42.733h-2.605h-0.596H10.579c-0.662,1.488-1.27,3.006-1.816,4.553
				c-0.008,0.018-0.014,0.035-0.02,0.055h80.406h3.26C92.214,45.784,91.995,44.249,91.755,42.733z"/>
			<path fill="#75ABDC" d="M89.181,93.983h-0.594H10.495c9.816,22.262,32.068,37.807,57.961,37.807c1.918,0,3.814-0.094,5.689-0.262
				c8.965-4.914,14.848-19.686,17.643-37.545H89.181z"/>
			<path fill="#F3F4F5" d="M89.181,89.323H8.659c0.021,0.059,0.039,0.119,0.061,0.18c0.535,1.521,1.129,3.016,1.775,4.48h78.092
				h0.594h2.607c0.24-1.533,0.459-3.086,0.654-4.66H89.181z"/>
		</g>
	</g>
</g>
</svg>
