<?xml version="1.0" encoding="utf-8"?>
<!-- Generator: Adobe Illustrator 16.0.0, SVG Export Plug-In . SVG Version: 6.00 Build 0)  -->
<!DOCTYPE svg PUBLIC "-//W3C//DTD SVG 1.1//EN" "http://www.w3.org/Graphics/SVG/1.1/DTD/svg11.dtd">
<svg version="1.1" id="Layer_1" xmlns="http://www.w3.org/2000/svg" xmlns:xlink="http://www.w3.org/1999/xlink" x="0px" y="0px"
	 width="136.914px" height="136.913px" viewBox="0 0 136.914 136.913" enable-background="new 0 0 136.914 136.913"
	 xml:space="preserve">
<g>
	<g>
		<g>
			<circle fill="#FFFFFF" cx="68.457" cy="68.458" r="63.333"/>
		</g>
		<g>
			<circle fill="#FFFFFF" cx="68.457" cy="68.458" r="63.333"/>
		</g>
		<g>
			<path fill="#EFECEC" d="M128.171,47.341H89.149c1.694,13.529,1.705,28.436,0.032,41.982h39.073
				c2.28-6.535,3.535-13.553,3.535-20.865C131.79,61.05,130.507,53.946,128.171,47.341z"/>
			<path fill="#338BC1" d="M89.149,47.341h39.021c-0.007-0.02-0.013-0.037-0.02-0.055c-8.106-22.855-28.955-39.67-54.006-41.902
				C83.839,10.698,86.67,27.534,89.149,47.341z"/>
			<path fill="#338BC1" d="M74.146,131.528c25.096-2.236,45.975-19.109,54.049-42.025c0.021-0.061,0.039-0.121,0.061-0.18H89.182
				C86.723,109.237,83.88,126.192,74.146,131.528z"/>
			<path fill="#F3F2F2" d="M5.124,68.458c0,7.313,1.255,14.33,3.535,20.865h83.783c1.673-13.547,1.662-28.453-0.032-41.982H8.743
				C6.407,53.946,5.124,61.05,5.124,68.458z"/>
			<path fill="#3D91CF" d="M8.763,47.286c-0.007,0.018-0.013,0.035-0.02,0.055H92.41c-2.479-19.807-8.571-36.643-18.265-41.957
				c-1.875-0.166-3.771-0.26-5.689-0.26C40.905,5.124,17.475,22.72,8.763,47.286z"/>
			<path fill="#3D91CF" d="M92.442,89.323H8.659c0.021,0.059,0.04,0.119,0.061,0.18c8.678,24.629,32.14,42.287,59.736,42.287
				c1.918,0,3.814-0.094,5.689-0.262C83.88,126.192,89.983,109.237,92.442,89.323z"/>
		</g>
	</g>
	<polygon fill="#3D91CF" points="37.986,50.095 39.877,55.915 45.999,55.915 41.046,59.515 42.938,65.337 37.986,61.737 
		33.033,65.337 34.924,59.515 29.972,55.915 36.094,55.915 	"/>
	<polygon fill="#3D91CF" points="37.986,70.534 39.877,76.354 45.999,76.354 41.046,79.954 42.938,85.776 37.986,82.177 
		33.033,85.776 34.924,79.954 29.972,76.354 36.094,76.354 	"/>
	<polygon fill="#3D91CF" points="68.312,60.245 70.202,66.067 76.324,66.067 71.371,69.665 73.263,75.487 68.312,71.89 
		63.358,75.487 65.249,69.665 60.297,66.067 66.419,66.067 	"/>
	<g>
		<path fill="none" d="M93.395,58.349c0.103,1.799,0.176,3.607,0.224,5.422L95,59.515L93.395,58.349z"/>
		<path fill="#338BC1" d="M95,59.515l-1.382,4.256c0.011,0.395,0.011,0.789,0.019,1.184l4.426-3.217l4.951,3.6l-1.892-5.822
			l4.953-3.6h-6.122l-1.891-5.82l-1.893,5.82h-2.941c0.059,0.811,0.119,1.617,0.166,2.434L95,59.515z"/>
		<path fill="#338BC1" d="M93.109,65.337l0.527-0.383c-0.008-0.395-0.008-0.789-0.019-1.184L93.109,65.337z"/>
		<path fill="#3D91CF" d="M93.395,58.349c-0.047-0.816-0.107-1.623-0.166-2.434h-3.181L93.395,58.349z"/>
		<path fill="#338BC1" d="M99.953,76.354l-1.891-5.82l-1.893,5.82h-2.675c-0.036,0.811-0.06,1.623-0.106,2.428L95,79.954
			l-1.891,5.822l4.953-3.6l4.951,3.6l-1.892-5.822l4.953-3.6H99.953z"/>
		<path fill="#3D91CF" d="M90.048,76.354l3.341,2.428c0.047-0.805,0.07-1.617,0.106-2.428H90.048z"/>
	</g>
</g>
</svg>
