<?xml version="1.0" encoding="utf-8"?>
<!-- Generator: Adobe Illustrator 16.0.0, SVG Export Plug-In . SVG Version: 6.00 Build 0)  -->
<!DOCTYPE svg PUBLIC "-//W3C//DTD SVG 1.1//EN" "http://www.w3.org/Graphics/SVG/1.1/DTD/svg11.dtd">
<svg version="1.1" id="Layer_1" xmlns="http://www.w3.org/2000/svg" xmlns:xlink="http://www.w3.org/1999/xlink" x="0px" y="0px"
	 width="136.914px" height="136.914px" viewBox="0 0 136.914 136.914" enable-background="new 0 0 136.914 136.914"
	 xml:space="preserve">
<g>
	<g>
		<g>
			<circle fill="#FFFFFF" cx="68.457" cy="68.458" r="63.333"/>
		</g>
	</g>
	<g>
		<path fill="#163D68" d="M86.145,36.859h37.191c-10.322-17.887-29.123-30.252-50.919-31.6h-2.094
			C80.725,6.654,82.404,19.662,86.145,36.859z"/>
		<path fill="#EFECEC" d="M87.77,68.453h44.021c-0.001-11.51-3.088-22.293-8.454-31.594H84.618
			C86.718,46.513,87.77,57.482,87.77,68.453z"/>
		<path fill="#359846" d="M84.645,100.051h38.693c5.366-9.301,8.452-20.082,8.452-31.592v-0.002H87.795
			C87.795,79.43,86.744,90.396,84.645,100.051z"/>
		<path fill="#FFD72E" d="M70.199,131.676h1.936c21.907-1.254,40.818-13.646,51.188-31.598H83.27
			C79.513,117.334,80.666,130.371,70.199,131.676z"/>
		<path fill="#14477D" d="M13.578,36.859h77.96c-3.74-17.197-10.813-30.205-21.215-31.6h-5.827
			C42.701,6.607,23.9,18.972,13.578,36.859z"/>
		<path fill="#EFEFEF" d="M13.578,36.859C8.212,46.16,5.125,56.943,5.124,68.453h89.565c0-10.971-1.052-21.939-3.151-31.594H13.578z
			"/>
		<path fill="#3DA248" d="M5.124,68.457v0.002c0,11.51,3.086,22.292,8.452,31.592h77.963c2.1-9.654,3.15-20.621,3.15-31.594H5.124z"
			/>
		<path fill="#F8D544" d="M64.778,131.676h5.421c10.467-1.305,17.577-14.342,21.334-31.598H13.592
			C23.96,118.029,42.871,130.422,64.778,131.676z"/>
	</g>
	<polygon fill="#FFFFFF" points="46.58,11.533 49.298,19.896 58.094,19.896 50.978,25.066 53.696,33.431 46.58,28.261 
		39.464,33.431 42.183,25.066 35.066,19.896 43.862,19.896 	"/>
	<g>
		<path fill="#DF1E26" d="M68.456,5.125c-2.874,0-5.698,0.209-8.472,0.58v125.506c2.773,0.369,5.598,0.58,8.472,0.58
			c2.832,0,5.614-0.205,8.349-0.564V5.689C74.07,5.33,71.288,5.125,68.456,5.125z"/>
	</g>
</g>
</svg>
