<?xml version="1.0" encoding="utf-8"?>
<!-- Generator: Adobe Illustrator 16.0.0, SVG Export Plug-In . SVG Version: 6.00 Build 0)  -->
<!DOCTYPE svg PUBLIC "-//W3C//DTD SVG 1.1//EN" "http://www.w3.org/Graphics/SVG/1.1/DTD/svg11.dtd">
<svg version="1.1" id="Layer_1" xmlns="http://www.w3.org/2000/svg" xmlns:xlink="http://www.w3.org/1999/xlink" x="0px" y="0px"
	 width="136.914px" height="136.914px" viewBox="0 0 136.914 136.914" enable-background="new 0 0 136.914 136.914"
	 xml:space="preserve">
<g>
	<g>
		<path fill="#D32027" d="M89.571,8.743l-7.391,20.49c6.822,22.516,6.822,55.932,0,78.447l7.391,20.49
			c24.595-8.697,42.219-32.143,42.219-59.715S114.166,17.439,89.571,8.743z"/>
		<path fill="#F8D12E" d="M89.571,29.233V8.743c-6.605-2.336-13.709-3.619-21.115-3.619C78.222,5.124,64.681,38.222,89.571,29.233z"
			/>
		<path fill="#F8D12E" d="M68.456,131.79c7.406,0,14.51-1.283,21.115-3.619v-20.49C64.931,105.222,68.456,131.79,68.456,131.79z"/>
		<path fill="#14B36F" d="M5.123,68.456c0,27.664,17.744,51.172,42.466,59.799V8.659C22.867,17.286,5.123,40.792,5.123,68.456z"/>
		<path fill="#E73B36" d="M89.571,29.233v78.447C96.394,85.165,96.394,51.749,89.571,29.233z"/>
		<path fill="#FFDC4D" d="M89.571,107.681V29.233C85.259,15.001,78.222,5.124,68.456,5.124c-7.314,0-14.331,1.254-20.867,3.535
			v119.596c6.536,2.279,13.553,3.535,20.867,3.535C78.222,131.79,85.259,121.913,89.571,107.681z"/>
	</g>
	<polygon fill="#14B36F" points="68.864,51.911 72.959,64.514 86.211,64.514 75.49,72.302 79.585,84.905 68.864,77.116 
		58.144,84.905 62.238,72.302 51.518,64.514 64.77,64.514 	"/>
</g>
</svg>
