<?xml version="1.0" encoding="utf-8"?>
<!-- Generator: Adobe Illustrator 16.0.0, SVG Export Plug-In . SVG Version: 6.00 Build 0)  -->
<!DOCTYPE svg PUBLIC "-//W3C//DTD SVG 1.1//EN" "http://www.w3.org/Graphics/SVG/1.1/DTD/svg11.dtd">
<svg version="1.1" id="Layer_1" xmlns="http://www.w3.org/2000/svg" xmlns:xlink="http://www.w3.org/1999/xlink" x="0px" y="0px"
	 width="136.914px" height="136.914px" viewBox="0 0 136.914 136.914" enable-background="new 0 0 136.914 136.914"
	 xml:space="preserve">
<g>
	<path fill="#E1E1E1" d="M68.508,125.203l-18.879-7.34l18.879-7.133v-0.037l-18.879-6.924l18.879-6.713V97.02l-18.879-7.342
		l18.879-6.713v-0.037l-18.879-7.344l18.879-6.711v-0.039l-18.879-7.342l18.879-6.713v-0.037L49.629,47.4l18.879-6.715v-0.037
		l-18.879-7.342l18.879-6.711v-0.037l-18.879-7.344l18.879-6.713v-0.037c-0.729-0.275-9.223-3.488-14.666-5.627
		C25.914,13.439,5.124,38.511,5.124,68.458c0,30.186,21.127,55.422,49.396,61.774c5.875-2.252,13.326-4.77,13.988-4.992V125.203z"/>
	<g>
		<path fill="#70193C" d="M68.508,5.125c-0.018,0-0.034,0-0.052,0v126.667c0.018,0,0.034-0.002,0.052-0.002
			c34.955-0.027,63.282-28.371,63.282-63.331C131.79,33.496,103.463,5.154,68.508,5.125z"/>
		<path fill="#7D224B" d="M68.456,5.125c-5.032,0-9.921,0.604-14.614,1.713c5.443,2.139,13.937,5.352,14.666,5.627v0.037
			l-18.879,6.713l18.879,7.344v0.037l-18.879,6.711l18.879,7.342v0.037L49.629,47.4l18.879,7.342v0.037l-18.879,6.713l18.879,7.342
			v0.039l-18.879,6.711l18.879,7.344v0.037l-18.879,6.713l18.879,7.342v0.037l-18.879,6.713l18.879,6.924v0.037l-18.879,7.133
			l18.879,7.34v0.037c-0.662,0.223-8.113,2.74-13.988,4.992c4.486,1.01,9.146,1.559,13.937,1.559
			C103.435,131.791,103.435,5.125,68.456,5.125z"/>
	</g>
</g>
</svg>
