<?xml version="1.0" encoding="utf-8"?>
<!-- Generator: Adobe Illustrator 16.0.0, SVG Export Plug-In . SVG Version: 6.00 Build 0)  -->
<!DOCTYPE svg PUBLIC "-//W3C//DTD SVG 1.1//EN" "http://www.w3.org/Graphics/SVG/1.1/DTD/svg11.dtd">
<svg version="1.1" id="Layer_1" xmlns="http://www.w3.org/2000/svg" xmlns:xlink="http://www.w3.org/1999/xlink" x="0px" y="0px"
	 width="136.913px" height="136.914px" viewBox="0 0 136.913 136.914" enable-background="new 0 0 136.913 136.914"
	 xml:space="preserve">
<g>
	<g>
		<circle fill="#FFFFFF" cx="68.456" cy="68.458" r="63.333"/>
	</g>
	<g>
		<path fill="#EFECEC" d="M128.17,47.341H89.148c1.695,13.529,1.705,28.436,0.033,41.982h39.072
			c2.281-6.535,3.535-13.553,3.535-20.865C131.789,61.05,130.506,53.946,128.17,47.341z"/>
		<path fill="#E97E24" d="M89.148,47.341h39.021c-0.006-0.02-0.012-0.037-0.02-0.055c-8.105-22.855-28.955-39.67-54.006-41.902
			C83.838,10.698,86.67,27.534,89.148,47.341z"/>
		<path fill="#258F44" d="M74.145,131.528c25.096-2.236,45.975-19.109,54.049-42.025c0.021-0.061,0.039-0.121,0.061-0.18H89.182
			C86.723,109.237,83.879,126.192,74.145,131.528z"/>
		<path fill="#EFEFEF" d="M5.123,68.458c0,7.313,1.256,14.33,3.535,20.865h83.783c1.674-13.547,1.662-28.453-0.031-41.982H8.742
			C6.406,53.946,5.123,61.05,5.123,68.458z"/>
		<path fill="#EA8634" d="M8.762,47.286c-0.006,0.018-0.012,0.035-0.02,0.055H92.41c-2.48-19.807-8.572-36.643-18.266-41.957
			c-1.875-0.166-3.771-0.26-5.689-0.26C40.904,5.124,17.475,22.72,8.762,47.286z"/>
		<path fill="#359846" d="M92.441,89.323H8.658c0.021,0.059,0.041,0.119,0.061,0.18c8.678,24.629,32.141,42.287,59.736,42.287
			c1.918,0,3.814-0.094,5.689-0.262C83.879,126.192,89.982,109.237,92.441,89.323z"/>
	</g>
</g>
</svg>
