<?xml version="1.0" encoding="utf-8"?>
<!-- Generator: Adobe Illustrator 16.0.0, SVG Export Plug-In . SVG Version: 6.00 Build 0)  -->
<!DOCTYPE svg PUBLIC "-//W3C//DTD SVG 1.1//EN" "http://www.w3.org/Graphics/SVG/1.1/DTD/svg11.dtd">
<svg version="1.1" id="Layer_1" xmlns="http://www.w3.org/2000/svg" xmlns:xlink="http://www.w3.org/1999/xlink" x="0px" y="0px"
	 width="136.913px" height="136.914px" viewBox="0 0 136.913 136.914" enable-background="new 0 0 136.913 136.914"
	 xml:space="preserve">
<g>
	<g>
		<g>
			<circle fill="#FFFFFF" cx="68.456" cy="68.457" r="63.333"/>
		</g>
		<g>
			<path fill="#214391" d="M128.17,47.34c-0.006-0.02-0.012-0.037-0.02-0.055C120.045,24.43,99.195,7.616,74.145,5.383
				c9.693,5.314,12.525,22.15,15.004,41.957c1.695,13.529,1.705,28.435,0.033,41.982c-2.459,19.914-5.303,36.869-15.037,42.205
				c25.096-2.236,45.975-19.109,54.049-42.025c0.021-0.061,0.039-0.121,0.061-0.18c2.281-6.535,3.535-13.553,3.535-20.865
				C131.789,61.049,130.506,53.946,128.17,47.34z"/>
			<path fill="#2B479D" d="M92.41,47.34c-2.48-19.807-8.572-36.643-18.266-41.957c-1.875-0.166-3.771-0.26-5.689-0.26
				c-27.551,0-50.98,17.596-59.693,42.162c-0.006,0.018-0.012,0.035-0.02,0.055c-2.336,6.605-3.619,13.709-3.619,21.117
				c0,7.313,1.256,14.33,3.535,20.865c0.021,0.059,0.041,0.119,0.061,0.18c8.678,24.629,32.141,42.287,59.736,42.287
				c1.918,0,3.814-0.094,5.689-0.262c9.734-5.336,15.838-22.291,18.297-42.205C94.115,75.775,94.104,60.87,92.41,47.34z"/>
		</g>
		<g>
			<path fill="#F3F4F5" d="M130.102,53.954h-26.496H90.58c0.596,9.104,0.639,18.451,0.102,27.58h13.027h26.721
				c0.887-4.221,1.359-8.592,1.359-13.076C131.789,63.463,131.193,58.614,130.102,53.954z"/>
			<path fill="#F3F4F5" d="M93.682,81.533c0.537-9.129,0.494-18.476-0.102-27.58H65.217V5.206
				c-9.98,0.502-19.344,3.326-27.582,7.926v40.822H6.813c-1.094,4.66-1.689,9.51-1.689,14.503c0,4.484,0.473,8.855,1.359,13.076
				h31.152v42.248c8.238,4.6,17.602,7.424,27.582,7.926V81.533H93.682z"/>
		</g>
	</g>
	<g>
		<g>
			<path fill="#E21D39" d="M130.717,56.887H87.6c0.477,7.262,0.51,14.718,0.082,22h43.24c0.566-3.393,0.867-6.875,0.867-10.43
				C131.789,64.502,131.414,60.639,130.717,56.887z"/>
		</g>
		<path fill="#ED2A3D" d="M93.303,56.887H62.682V5.393c-7.834,0.709-15.252,2.844-22,6.145v45.35H6.197
			c-0.697,3.752-1.074,7.615-1.074,11.57c0,3.555,0.303,7.037,0.869,10.43h34.689v46.486c6.748,3.303,14.166,5.439,22,6.146V78.887
			h30.703C93.813,71.605,93.779,64.149,93.303,56.887z"/>
	</g>
</g>
</svg>
