<?xml version="1.0" encoding="utf-8"?>
<!-- Generator: Adobe Illustrator 16.0.0, SVG Export Plug-In . SVG Version: 6.00 Build 0)  -->
<!DOCTYPE svg PUBLIC "-//W3C//DTD SVG 1.1//EN" "http://www.w3.org/Graphics/SVG/1.1/DTD/svg11.dtd">
<svg version="1.1" id="Layer_1" xmlns="http://www.w3.org/2000/svg" xmlns:xlink="http://www.w3.org/1999/xlink" x="0px" y="0px"
	 width="136.913px" height="136.913px" viewBox="0 0 136.913 136.913" enable-background="new 0 0 136.913 136.913"
	 xml:space="preserve">
<g>
	<g>
		<path fill="#F3C515" d="M86.99,68.457h44.799c0-34.98-28.355-63.334-63.334-63.334C85.945,5.123,86.99,36.789,86.99,68.457z"/>
		<path fill="#258F44" d="M82.842,68.457c0,31.666-14.387,63.332-14.387,63.332c34.979,0,63.334-28.355,63.334-63.332H82.842z"/>
		<path fill="#F8D12E" d="M21.658,68.457h73.031c0-31.668-8.744-63.334-26.234-63.334C33.479,5.123,21.658,33.477,21.658,68.457z"/>
		<path fill="#359846" d="M94.689,68.457H22.992c0,34.977,10.486,63.332,45.463,63.332C85.945,131.789,94.689,100.123,94.689,68.457
			z"/>
	</g>
	<g>
		<path fill="#DB2727" d="M52.506,7.15C25.25,14.221,5.123,38.986,5.123,68.457c0,29.467,20.129,54.232,47.385,61.305V7.15H52.506z"
			/>
	</g>
	<polygon fill="#151515" points="28.859,46.99 32.953,59.592 46.205,59.592 35.484,67.381 39.58,79.984 28.859,72.195 
		18.139,79.984 22.232,67.381 11.512,59.592 24.764,59.592 	"/>
</g>
</svg>
