<?xml version="1.0" encoding="utf-8"?>
<!-- Generator: Adobe Illustrator 16.0.0, SVG Export Plug-In . SVG Version: 6.00 Build 0)  -->
<!DOCTYPE svg PUBLIC "-//W3C//DTD SVG 1.1//EN" "http://www.w3.org/Graphics/SVG/1.1/DTD/svg11.dtd">
<svg version="1.1" id="Layer_1" xmlns="http://www.w3.org/2000/svg" xmlns:xlink="http://www.w3.org/1999/xlink" x="0px" y="0px"
	 width="136.914px" height="136.914px" viewBox="0 0 136.914 136.914" enable-background="new 0 0 136.914 136.914"
	 xml:space="preserve">
<g>
	<g>
		<g>
			<path fill="#14477D" d="M5.124,68.452c0-10.855,2.73-21.072,7.542-30.002L131.79,68.452L14.071,100.924
				C8.39,91.429,5.124,80.321,5.124,68.452z"/>
		</g>
	</g>
	<g>
		<path fill="#EFECEC" d="M94.689,68.452h37.101c0-34.98-28.355-63.334-63.334-63.334C85.945,5.118,94.689,36.785,94.689,68.452z"/>
		<path fill="#D32027" d="M68.456,131.785c-0.374,0-0.739-0.006-1.109-0.01c0.37,0.008,0.738,0.02,1.109,0.02
			c34.979,0,63.334-28.354,63.334-63.333H94.689C94.688,100.125,85.943,131.785,68.456,131.785z"/>
		<path fill="#F3F4F5" d="M12.667,38.45l55.79,30.002h26.232c0-31.667-8.744-63.334-26.233-63.334
			C44.333,5.118,23.36,18.604,12.667,38.45z"/>
		<path fill="#DB2F2A" d="M94.689,68.462H68.457L12.541,98.229c10.491,19.668,31.057,33.139,54.806,33.547
			c0.37,0.004,0.735,0.01,1.109,0.01C85.943,131.785,94.688,100.125,94.689,68.462z"/>
	</g>
</g>
</svg>
