<?xml version="1.0" encoding="utf-8"?>
<!-- Generator: Adobe Illustrator 16.0.0, SVG Export Plug-In . SVG Version: 6.00 Build 0)  -->
<!DOCTYPE svg PUBLIC "-//W3C//DTD SVG 1.1//EN" "http://www.w3.org/Graphics/SVG/1.1/DTD/svg11.dtd">
<svg version="1.1" id="Layer_1" xmlns="http://www.w3.org/2000/svg" xmlns:xlink="http://www.w3.org/1999/xlink" x="0px" y="0px"
	 width="136.914px" height="136.913px" viewBox="0 0 136.914 136.913" enable-background="new 0 0 136.914 136.913"
	 xml:space="preserve">
<g>
	<path fill="#BB2029" d="M91.967,68.458h39.823c0-34.98-28.355-63.334-63.334-63.334C85.945,5.124,91.968,36.79,91.967,68.458z"/>
	<path fill="#CD2029" d="M5.124,68.458h89.565C94.69,36.79,85.945,5.124,68.456,5.124C33.479,5.124,5.124,33.478,5.124,68.458z"/>
	<path fill="#E4E4E4" d="M90.634,68.458c0,31.666-4.688,63.332-22.178,63.332c34.979,0,63.334-28.355,63.334-63.332H90.634z"/>
	<path fill="#F3F4F5" d="M94.689,68.458H5.124c0,34.977,28.355,63.332,63.332,63.332C85.945,131.79,94.689,100.124,94.689,68.458z"
		/>
</g>
</svg>
