<?xml version="1.0" encoding="utf-8"?>
<!-- Generator: Adobe Illustrator 16.0.0, SVG Export Plug-In . SVG Version: 6.00 Build 0)  -->
<!DOCTYPE svg PUBLIC "-//W3C//DTD SVG 1.1//EN" "http://www.w3.org/Graphics/SVG/1.1/DTD/svg11.dtd">
<svg version="1.1" id="Layer_1" xmlns="http://www.w3.org/2000/svg" xmlns:xlink="http://www.w3.org/1999/xlink" x="0px" y="0px"
	 width="136px" height="135.099px" viewBox="0 0 136 135.099" enable-background="new 0 0 136 135.099" xml:space="preserve">
<g>
	<path fill="#D32027" d="M79.051,21.715h32.631c-11.365-10.834-26.74-17.5-43.683-17.5C76.167,4.215,74.697,11.125,79.051,21.715z"
		/>
	<path fill="#D32027" d="M67.999,130.883c16.942,0,32.317-6.666,43.683-17.5H76.051C71.698,123.973,76.168,130.883,67.999,130.883z"
		/>
	<path fill="#EFECEC" d="M123.871,97.383H84.716c-1.181,5.869-2.732,11.299-4.665,16h31.631
		C116.543,108.749,120.675,103.356,123.871,97.383z"/>
	<path fill="#EFECEC" d="M83.051,37.715h40.82c-3.196-5.973-7.328-11.365-12.189-16H78.386
		C80.318,26.415,81.869,31.846,83.051,37.715z"/>
	<path fill="#163D68" d="M75.051,97.383h48.82c4.757-8.891,7.462-19.045,7.462-29.834s-2.705-20.943-7.462-29.834h-48.82
		C78.76,56.151,78.76,78.946,75.051,97.383z"/>
	<path fill="#E73B36" d="M86.78,113.383H24.318c11.365,10.834,26.74,17.5,43.681,17.5C76.168,130.883,82.428,123.973,86.78,113.383z
		"/>
	<path fill="#E73B36" d="M86.78,21.715c-4.354-10.59-10.613-17.5-18.781-17.5c-16.94,0-32.315,6.666-43.681,17.5H86.78z"/>
	<path fill="#F3F4F5" d="M86.78,21.715H24.318c-4.861,4.635-8.993,10.027-12.189,16h79.316
		C90.264,31.846,88.713,26.415,86.78,21.715z"/>
	<path fill="#F3F4F5" d="M24.318,113.383H86.78c1.933-4.701,3.484-10.131,4.665-16H12.129
		C15.325,103.356,19.457,108.749,24.318,113.383z"/>
	<path fill="#14477D" d="M91.445,37.715H12.129C7.372,46.606,4.667,56.76,4.667,67.549s2.705,20.943,7.462,29.834h79.316
		C95.154,78.946,95.154,56.151,91.445,37.715z"/>
</g>
</svg>
