<?xml version="1.0" encoding="utf-8"?>
<!-- Generator: Adobe Illustrator 16.0.0, SVG Export Plug-In . SVG Version: 6.00 Build 0)  -->
<!DOCTYPE svg PUBLIC "-//W3C//DTD SVG 1.1//EN" "http://www.w3.org/Graphics/SVG/1.1/DTD/svg11.dtd">
<svg version="1.1" id="Layer_1" xmlns="http://www.w3.org/2000/svg" xmlns:xlink="http://www.w3.org/1999/xlink" x="0px" y="0px"
	 width="136.914px" height="136.914px" viewBox="0 0 136.914 136.914" enable-background="new 0 0 136.914 136.914"
	 xml:space="preserve">
<g>
	<path fill="#D32027" d="M89.572,8.743l-7.391,20.49c6.822,22.516,6.822,55.932,0,78.447l7.391,20.49
		c24.595-8.697,42.219-32.143,42.219-59.715C131.791,40.885,114.167,17.439,89.572,8.743z"/>
	<path fill="#E7E7E7" d="M89.572,29.233V8.743c-6.605-2.336-13.709-3.619-21.115-3.619C78.222,5.124,64.681,38.222,89.572,29.233z"
		/>
	<path fill="#E7E7E7" d="M68.457,131.79c7.406,0,14.51-1.283,21.115-3.619v-20.49C64.931,105.222,68.457,131.79,68.457,131.79z"/>
	<path fill="#E73B36" d="M5.124,68.456c0,27.664,17.744,51.172,42.466,59.799V8.659C22.868,17.286,5.124,40.793,5.124,68.456z"/>
	<path fill="#E73B36" d="M89.572,29.233v78.447C96.394,85.165,96.394,51.749,89.572,29.233z"/>
	<path fill="#F3F1F2" d="M89.572,107.681V29.233C85.259,15.001,78.222,5.124,68.457,5.124c-7.314,0-14.331,1.255-20.867,3.535
		v119.596c6.536,2.28,13.553,3.535,20.867,3.535C78.222,131.79,85.259,121.913,89.572,107.681z"/>
</g>
</svg>
