<?xml version="1.0" encoding="utf-8"?>
<!-- Generator: Adobe Illustrator 16.0.0, SVG Export Plug-In . SVG Version: 6.00 Build 0)  -->
<!DOCTYPE svg PUBLIC "-//W3C//DTD SVG 1.1//EN" "http://www.w3.org/Graphics/SVG/1.1/DTD/svg11.dtd">
<svg version="1.1" id="Layer_1" xmlns="http://www.w3.org/2000/svg" xmlns:xlink="http://www.w3.org/1999/xlink" x="0px" y="0px"
	 width="136.913px" height="136.913px" viewBox="0 0 136.913 136.913" enable-background="new 0 0 136.913 136.913"
	 xml:space="preserve">
<g>
	<g>
		<g>
			<circle fill="#FFFFFF" cx="68.456" cy="68.457" r="63.333"/>
		</g>
		<g>
			<path fill="#338BC1" d="M128.17,47.34c-0.006-0.018-0.012-0.037-0.02-0.055C120.045,24.43,99.195,7.615,74.145,5.383
				c9.693,5.314,12.525,22.15,15.004,41.957c1.695,13.529,1.705,28.436,0.033,41.982c-2.459,19.916-5.303,36.869-15.037,42.205
				c25.096-2.236,45.975-19.109,54.049-42.025c0.021-0.061,0.039-0.121,0.061-0.18c2.281-6.535,3.535-13.553,3.535-20.865
				C131.789,61.049,130.506,53.945,128.17,47.34z"/>
			<path fill="#3D91CF" d="M92.41,47.34c-2.48-19.807-8.572-36.643-18.266-41.957c-1.875-0.166-3.771-0.26-5.689-0.26
				c-27.551,0-50.98,17.596-59.693,42.162c-0.006,0.018-0.012,0.037-0.02,0.055c-2.336,6.605-3.619,13.709-3.619,21.117
				c0,7.313,1.256,14.33,3.535,20.865c0.021,0.059,0.041,0.119,0.061,0.18c8.678,24.629,32.141,42.287,59.736,42.287
				c1.918,0,3.814-0.094,5.689-0.262c9.734-5.336,15.838-22.289,18.297-42.205C94.115,75.775,94.104,60.869,92.41,47.34z"/>
		</g>
	</g>
	<polygon fill="#FAF9FB" points="67.889,35.998 75.412,59.152 99.762,59.152 80.063,73.461 87.586,96.619 67.889,82.309 
		48.191,96.619 55.715,73.461 36.018,59.152 60.365,59.152 	"/>
</g>
</svg>
