<?xml version="1.0" encoding="utf-8"?>
<!-- Generator: Adobe Illustrator 16.0.0, SVG Export Plug-In . SVG Version: 6.00 Build 0)  -->
<!DOCTYPE svg PUBLIC "-//W3C//DTD SVG 1.1//EN" "http://www.w3.org/Graphics/SVG/1.1/DTD/svg11.dtd">
<svg version="1.1" id="Layer_1" xmlns="http://www.w3.org/2000/svg" xmlns:xlink="http://www.w3.org/1999/xlink" x="0px" y="0px"
	 width="136.914px" height="136.914px" viewBox="0 0 136.914 136.914" enable-background="new 0 0 136.914 136.914"
	 xml:space="preserve">
<g>
	<g>
		<path fill="#EFECEC" d="M94.689,68.457h37.101c0-34.98-28.355-63.334-63.334-63.334C85.945,5.123,94.689,36.79,94.689,68.457z"/>
		<path fill="#DB2F2A" d="M82.842,68.457c0,31.668-14.386,63.334-14.386,63.334c34.979,0,63.334-28.357,63.334-63.334H82.842z"/>
		<path fill="#F3F4F5" d="M5.124,68.457h89.565c0-31.667-8.744-63.334-26.233-63.334C33.479,5.123,5.124,33.477,5.124,68.457z"/>
		<path fill="#E13E3E" d="M94.689,68.457H5.124c0,34.977,28.355,63.334,63.332,63.334C85.945,131.791,94.689,100.125,94.689,68.457z
			"/>
	</g>
	<g>
		<path fill="#3757A6" d="M52.508,7.151C25.252,14.222,5.124,38.986,5.124,68.457h47.384V7.151z"/>
	</g>
	<polygon fill="#FFFFFF" points="32.216,29.037 35.523,39.218 46.229,39.218 37.568,45.51 40.877,55.691 32.216,49.399 
		23.555,55.691 26.863,45.51 18.202,39.218 28.908,39.218 	"/>
</g>
</svg>
