<?xml version="1.0" encoding="utf-8"?>
<!-- Generator: Adobe Illustrator 16.0.0, SVG Export Plug-In . SVG Version: 6.00 Build 0)  -->
<!DOCTYPE svg PUBLIC "-//W3C//DTD SVG 1.1//EN" "http://www.w3.org/Graphics/SVG/1.1/DTD/svg11.dtd">
<svg version="1.1" id="Layer_1" xmlns="http://www.w3.org/2000/svg" xmlns:xlink="http://www.w3.org/1999/xlink" x="0px" y="0px"
	 width="136.913px" height="136.914px" viewBox="0 0 136.913 136.914" enable-background="new 0 0 136.913 136.914"
	 xml:space="preserve">
<g>
	<path fill="#008E56" d="M89.571,8.743l-7.391,20.491c6.822,22.515,6.822,55.931,0,78.447l7.391,20.49
		c24.595-8.697,42.219-32.143,42.219-59.715C131.79,40.884,114.166,17.439,89.571,8.743z"/>
	<path fill="#E7E7E7" d="M89.571,29.233V8.743c-6.605-2.336-13.709-3.619-21.115-3.619C78.222,5.124,64.681,38.221,89.571,29.233z"
		/>
	<path fill="#E7E7E7" d="M68.456,131.79c7.406,0,14.51-1.283,21.115-3.619v-20.49C64.931,105.222,68.456,131.79,68.456,131.79z"/>
	<path fill="#E97E24" d="M5.123,68.456c0,27.665,17.744,51.172,42.466,59.799V8.659C22.867,17.286,5.123,40.793,5.123,68.456z"/>
	<path fill="#14B36F" d="M89.571,29.233v78.447C96.394,85.165,96.394,51.749,89.571,29.233z"/>
	<path fill="#F3F1F2" d="M89.571,107.681V29.233c-4.313-14.232-11.35-24.11-21.115-24.11c-7.314,0-14.331,1.255-20.867,3.536
		v119.596c6.536,2.279,13.553,3.535,20.867,3.535C78.222,131.79,85.259,121.913,89.571,107.681z"/>
</g>
</svg>
