<?xml version="1.0" encoding="utf-8"?>
<!-- Generator: Adobe Illustrator 16.0.0, SVG Export Plug-In . SVG Version: 6.00 Build 0)  -->
<!DOCTYPE svg PUBLIC "-//W3C//DTD SVG 1.1//EN" "http://www.w3.org/Graphics/SVG/1.1/DTD/svg11.dtd">
<svg version="1.1" id="Layer_1" xmlns="http://www.w3.org/2000/svg" xmlns:xlink="http://www.w3.org/1999/xlink" x="0px" y="0px"
	 width="136.833px" height="136.833px" viewBox="0 0 136.833 136.833" style="enable-background:new 0 0 136.833 136.833;"
	 xml:space="preserve">
<style type="text/css">
<![CDATA[
	.st0{fill:#AAA79B;}
	.st1{fill:#AAAAAA;}
	.st2{fill:#49A0AE;}
	.st3{fill:#AD9030;}
	.st4{fill:#AE7B3E;}
	.st5{fill:#117F4A;}
	.st6{fill:#E03740;}
	.st7{opacity:0.15;fill:#F0EFED;}
	.st8{fill:#E13B3B;}
	.st9{fill:#E1C821;}
	.st10{fill:#E1DEDB;}
	.st11{fill:#E2C448;}
	.st12{fill:#E34F50;}
	.st13{fill:#4ABC96;}
	.st14{fill:#E5E5E5;}
	.st15{fill:#E7E7E7;}
	.st16{fill:#E84849;}
	.st17{fill:#E8E4AA;}
	.st18{fill:#E9C11E;}
	.st19{fill:#E9E9EA;}
	.st20{fill:#B19353;}
	.st21{clip-path:url(#SVGID_2_);fill:#AAAAAA;}
	.st22{fill:#B29C76;}
	.st23{fill:#838383;}
	.st24{fill:#B2B0A6;}
	.st25{fill:#B2B2B2;}
	.st26{fill:#B4B4B5;}
	.st27{fill:#867257;}
	.st28{fill:#86847D;}
	.st29{fill:#1B7A9A;}
	.st30{fill:#B6B3A1;}
	.st31{fill:#B6B6B7;}
	.st32{fill:#B6C2CB;}
	.st33{fill:#1C4C51;}
	.st34{fill:#888888;}
	.st35{fill:#EB9682;}
	.st36{fill:#898579;}
	.st37{fill:#B8D4D8;}
	.st38{fill:#ECE17E;}
	.st39{fill:#B9972F;}
	.st40{fill:#B9A57C;}
	.st41{fill:#B9B9BA;}
	.st42{fill:#EDC92C;}
	.st43{fill:#EDEBE7;}
	.st44{fill:#525252;}
	.st45{opacity:0.15;fill:#FFFFFF;}
	.st46{fill:#565453;}
	.st47{fill:#575656;}
	.st48{fill-rule:evenodd;clip-rule:evenodd;fill:#4B4A4B;}
	.st49{clip-path:url(#SVGID_4_);fill:#AAAAAA;}
	.st50{fill:#BAE2DD;}
	.st51{fill:#BBBCBB;}
	.st52{fill:#BDB36D;}
	.st53{fill:#202121;}
	.st54{clip-path:url(#SVGID_2_);fill:#1B7A9A;}
	.st55{fill:#239563;}
	.st56{fill:#F37C2A;}
	.st57{fill:#255860;}
	.st58{fill:#F3EED5;}
	.st59{fill:#F4E028;}
	.st60{fill:#F4F4EE;}
	.st61{fill:#5ABE8F;}
	.st62{fill:#F6F2E4;}
	.st63{fill:#5C5853;}
	.st64{fill:#5C5C5C;}
	.st65{fill-rule:evenodd;clip-rule:evenodd;fill:#EB6C25;}
	.st66{fill:#2992AD;}
	.st67{fill:#5E5F5E;}
	.st68{fill:#F9F29A;}
	.st69{clip-path:url(#SVGID_2_);}
	.st70{clip-path:url(#SVGID_4_);}
	.st71{fill:#C0BFBC;}
	.st72{fill:#C0C0C0;}
	.st73{fill:#C1914F;}
	.st74{fill:#93793D;}
	.st75{fill:#C3C3C3;}
	.st76{fill:#C3D5C7;}
	.st77{fill:#C4A830;}
	.st78{clip-path:url(#SVGID_4_);fill:#1B7A9A;}
	.st79{fill:#C698C5;}
	.st80{fill:#972627;}
	.st81{fill:#C6C5C5;}
	.st82{fill:#C74A39;}
	.st83{fill:#C84027;}
	.st84{opacity:0.1;}
	.st85{fill:#616161;}
	.st86{fill:#FFCE00;}
	.st87{fill:#FFF5F4;}
	.st88{fill:#FFFFFF;}
	.st89{fill:#63BD6E;}
	.st90{fill-rule:evenodd;clip-rule:evenodd;fill:#F37C2A;}
	.st91{fill:none;}
	.st92{fill:#65A844;}
	.st93{fill:#667580;}
	.st94{fill:#CAE8E4;}
	.st95{fill:#9C9C9C;}
	.st96{fill:#CBBD7D;}
	.st97{fill:#CC4028;}
	.st98{fill:#CCC375;}
	.st99{fill:#CCC788;}
	.st100{fill:#9DDAEC;}
	.st101{fill:#CDAB2D;}
	.st102{fill:#CDCCCB;}
	.st103{fill:#CDCDCE;}
	.st104{fill:#CDE7D5;}
	.st105{fill:#9F77AA;}
	.st106{fill:#CECBCB;}
	.st107{fill:#357180;}
	.st108{fill:#6BA297;}
	.st109{fill:#6EC2CB;}
	.st110{fill:#D0D1D1;}
	.st111{fill:#D1974F;}
	.st112{fill:#D1AFD2;}
	.st113{fill:#D22027;}
	.st114{fill:#D2B63D;}
	.st115{fill:#D2D2D2;}
	.st116{fill:#D32033;}
	.st117{clip-path:url(#SVGID_2_);fill:#CDCDCE;}
	.st118{fill:#D51F31;}
	.st119{fill:#D5C7C3;}
	.st120{fill:#D5D6D5;}
	.st121{fill:#3B3A38;}
	.st122{fill:#3B6DA2;}
	.st123{fill:#D6CB78;}
	.st124{fill:#D73D3D;}
	.st125{fill:#D7B029;}
	.st126{fill:#D8D8D7;}
	.st127{fill:#A03D3D;}
	.st128{fill:#A09592;}
	.st129{fill:#717171;}
	.st130{fill:#A19F9F;}
	.st131{fill:#727172;}
	.st132{fill:#F9F29A;stroke:#E1C821;stroke-miterlimit:10;}
	.st133{fill:#A2D1C9;}
	.st134{fill:#A33B3B;}
	.st135{fill:#A48A47;}
	.st136{fill:#DAC425;}
	.st137{fill:#786547;}
	.st138{fill:#787878;}
	.st139{fill:#A7A8A7;}
	.st140{fill-rule:evenodd;clip-rule:evenodd;fill:#6DABB5;}
	.st141{fill:#DCD99D;}
	.st142{fill:#DD5231;}
	.st143{clip-path:url(#SVGID_4_);fill:#CDCDCE;}
	.st144{fill:#DDDACA;}
	.st145{fill:#DDDCD6;}
	.st146{fill:#DDDDDC;}
	.st147{fill:#404040;}
	.st148{fill:#DEBA24;}
	.st149{fill:#DFBFDB;}
	.st150{fill:#DFD48A;}
	.st151{fill:#DFDFDF;}
	.st152{fill:#444545;}
	.st153{fill:#45423F;}
]]>
</style>
<g>
	<g>
		<circle class="st16" cx="68.417" cy="68.417" r="63.333"/>
		<g>
			<rect x="40.384" y="51.004" class="st17" width="57.461" height="44.004"/>
			<path class="st52" d="M88.237,93.19h-15.73V70.803c0-2.098,1.725-3.801,3.854-3.801h8.025c2.129,0,3.852,1.703,3.852,3.801V93.19
				z"/>
			<path class="st98" d="M86.966,93.008H73.78V71.399c0-1.756,1.447-3.186,3.23-3.186h6.725c1.783,0,3.23,1.43,3.23,3.186V93.008z"
				/>
			<path class="st98" d="M59.077,67.002h-8.289c-2.197,0-3.979,1.746-3.979,3.896v1.328v1.68v1.322c0,2.152,1.781,3.896,3.979,3.896
				h8.287c2.197,0,3.979-1.744,3.979-3.896v-1.322v-1.68v-1.328C63.054,68.749,61.272,67.002,59.077,67.002z"/>
			<g>
				<path class="st128" d="M69.175,32.739c-0.162,0-0.322,0-0.484,0c0.152,0.553,0.242,1.127,0.242,1.719
					C68.933,33.866,69.022,33.292,69.175,32.739z"/>
				<path class="st128" d="M51.808,32.739c-0.162,0-0.322,0-0.482,0c0.152,0.553,0.242,1.127,0.242,1.719
					C51.567,33.866,51.657,33.292,51.808,32.739z"/>
				<path class="st128" d="M86.54,32.739c-0.162,0-0.318,0-0.484,0c0.152,0.553,0.242,1.127,0.242,1.719
					C86.298,33.866,86.388,33.292,86.54,32.739z"/>
				<path class="st82" d="M51.325,32.739c-2.371,0-4.383,0-5.836,0c-8.713,0-11.287,19.889-11.287,19.889v2.559
					c0,4.117,3.887,7.457,8.682,7.457c2.563,0,4.859-0.961,6.451-2.477c1.383-1.32,2.232-3.063,2.232-4.98V34.458
					C51.567,33.866,51.478,33.292,51.325,32.739z"/>
				<path class="st119" d="M68.69,32.739c-6.068,0-12.15,0-16.883,0c-0.15,0.553-0.24,1.127-0.24,1.719v20.729
					c0,1.918,0.85,3.66,2.232,4.98c1.592,1.516,3.887,2.477,6.449,2.477c2.564,0,4.859-0.961,6.451-2.477
					c1.383-1.32,2.232-3.063,2.232-4.98V34.458C68.933,33.866,68.843,33.292,68.69,32.739z"/>
				<path class="st82" d="M86.056,32.739c-4.602,0-10.713,0-16.881,0c-0.152,0.553-0.242,1.127-0.242,1.719v20.729
					c0,1.918,0.85,3.66,2.232,4.98c1.592,1.516,3.887,2.477,6.449,2.477c2.564,0,4.859-0.961,6.449-2.477
					c1.385-1.32,2.234-3.063,2.234-4.98V34.458C86.298,33.866,86.208,33.292,86.056,32.739z"/>
				<path class="st119" d="M103.663,49.833c-1.566-5.475-5.666-17.094-12.258-17.094c-1.242,0-2.912,0-4.865,0
					c-0.152,0.553-0.242,1.127-0.242,1.719v20.729c0,1.918,0.85,3.66,2.232,4.98c1.592,1.516,3.887,2.477,6.449,2.477
					c4.52,0,8.232-2.967,8.643-6.758C104.099,54.897,104.146,51.52,103.663,49.833z"/>
			</g>
			<path class="st141" d="M107.144,96.774c0,2.162-1.754,3.914-3.916,3.914H35.778c-2.162,0-3.914-1.752-3.914-3.914l0,0
				c0-2.162,1.752-3.914,3.914-3.914h67.449C105.39,92.86,107.144,94.612,107.144,96.774L107.144,96.774z"/>
		</g>
	</g>
</g>
</svg>
