<?xml version="1.0" encoding="utf-8"?>
<!-- Generator: Adobe Illustrator 16.0.0, SVG Export Plug-In . SVG Version: 6.00 Build 0)  -->
<!DOCTYPE svg PUBLIC "-//W3C//DTD SVG 1.1//EN" "http://www.w3.org/Graphics/SVG/1.1/DTD/svg11.dtd">
<svg version="1.1" id="Layer_1" xmlns="http://www.w3.org/2000/svg" xmlns:xlink="http://www.w3.org/1999/xlink" x="0px" y="0px"
	 width="136.833px" height="136.833px" viewBox="0 0 136.833 136.833" style="enable-background:new 0 0 136.833 136.833;"
	 xml:space="preserve">
<style type="text/css">
<![CDATA[
	.st0{fill:#AAA79B;}
	.st1{fill:#AAAAAA;}
	.st2{fill:#49A0AE;}
	.st3{fill:#AD9030;}
	.st4{fill:#AE7B3E;}
	.st5{fill:#117F4A;}
	.st6{fill:#E03740;}
	.st7{opacity:0.15;fill:#F0EFED;}
	.st8{fill:#E13B3B;}
	.st9{fill:#E1C821;}
	.st10{fill:#E1DEDB;}
	.st11{fill:#E2C448;}
	.st12{fill:#E34F50;}
	.st13{fill:#4ABC96;}
	.st14{fill:#E5E5E5;}
	.st15{fill:#E7E7E7;}
	.st16{fill:#E84849;}
	.st17{fill:#E8E4AA;}
	.st18{fill:#E9C11E;}
	.st19{fill:#E9E9EA;}
	.st20{fill:#B19353;}
	.st21{clip-path:url(#SVGID_2_);fill:#AAAAAA;}
	.st22{fill:#B29C76;}
	.st23{fill:#838383;}
	.st24{fill:#B2B0A6;}
	.st25{fill:#B2B2B2;}
	.st26{fill:#B4B4B5;}
	.st27{fill:#867257;}
	.st28{fill:#86847D;}
	.st29{fill:#1B7A9A;}
	.st30{fill:#B6B3A1;}
	.st31{fill:#B6B6B7;}
	.st32{fill:#B6C2CB;}
	.st33{fill:#1C4C51;}
	.st34{fill:#888888;}
	.st35{fill:#EB9682;}
	.st36{fill:#898579;}
	.st37{fill:#B8D4D8;}
	.st38{fill:#ECE17E;}
	.st39{fill:#B9972F;}
	.st40{fill:#B9A57C;}
	.st41{fill:#B9B9BA;}
	.st42{fill:#EDC92C;}
	.st43{fill:#EDEBE7;}
	.st44{fill:#525252;}
	.st45{opacity:0.15;fill:#FFFFFF;}
	.st46{fill:#565453;}
	.st47{fill:#575656;}
	.st48{fill-rule:evenodd;clip-rule:evenodd;fill:#4B4A4B;}
	.st49{clip-path:url(#SVGID_4_);fill:#AAAAAA;}
	.st50{fill:#BAE2DD;}
	.st51{fill:#BBBCBB;}
	.st52{fill:#BDB36D;}
	.st53{fill:#202121;}
	.st54{clip-path:url(#SVGID_2_);fill:#1B7A9A;}
	.st55{fill:#239563;}
	.st56{fill:#F37C2A;}
	.st57{fill:#255860;}
	.st58{fill:#F3EED5;}
	.st59{fill:#F4E028;}
	.st60{fill:#F4F4EE;}
	.st61{fill:#5ABE8F;}
	.st62{fill:#F6F2E4;}
	.st63{fill:#5C5853;}
	.st64{fill:#5C5C5C;}
	.st65{fill-rule:evenodd;clip-rule:evenodd;fill:#EB6C25;}
	.st66{fill:#2992AD;}
	.st67{fill:#5E5F5E;}
	.st68{fill:#F9F29A;}
	.st69{clip-path:url(#SVGID_2_);}
	.st70{clip-path:url(#SVGID_4_);}
	.st71{fill:#C0BFBC;}
	.st72{fill:#C0C0C0;}
	.st73{fill:#C1914F;}
	.st74{fill:#93793D;}
	.st75{fill:#C3C3C3;}
	.st76{fill:#C3D5C7;}
	.st77{fill:#C4A830;}
	.st78{clip-path:url(#SVGID_4_);fill:#1B7A9A;}
	.st79{fill:#C698C5;}
	.st80{fill:#972627;}
	.st81{fill:#C6C5C5;}
	.st82{fill:#C74A39;}
	.st83{fill:#C84027;}
	.st84{opacity:0.1;}
	.st85{fill:#616161;}
	.st86{fill:#FFCE00;}
	.st87{fill:#FFF5F4;}
	.st88{fill:#FFFFFF;}
	.st89{fill:#63BD6E;}
	.st90{fill-rule:evenodd;clip-rule:evenodd;fill:#F37C2A;}
	.st91{fill:none;}
	.st92{fill:#65A844;}
	.st93{fill:#667580;}
	.st94{fill:#CAE8E4;}
	.st95{fill:#9C9C9C;}
	.st96{fill:#CBBD7D;}
	.st97{fill:#CC4028;}
	.st98{fill:#CCC375;}
	.st99{fill:#CCC788;}
	.st100{fill:#9DDAEC;}
	.st101{fill:#CDAB2D;}
	.st102{fill:#CDCCCB;}
	.st103{fill:#CDCDCE;}
	.st104{fill:#CDE7D5;}
	.st105{fill:#9F77AA;}
	.st106{fill:#CECBCB;}
	.st107{fill:#357180;}
	.st108{fill:#6BA297;}
	.st109{fill:#6EC2CB;}
	.st110{fill:#D0D1D1;}
	.st111{fill:#D1974F;}
	.st112{fill:#D1AFD2;}
	.st113{fill:#D22027;}
	.st114{fill:#D2B63D;}
	.st115{fill:#D2D2D2;}
	.st116{fill:#D32033;}
	.st117{clip-path:url(#SVGID_2_);fill:#CDCDCE;}
	.st118{fill:#D51F31;}
	.st119{fill:#D5C7C3;}
	.st120{fill:#D5D6D5;}
	.st121{fill:#3B3A38;}
	.st122{fill:#3B6DA2;}
	.st123{fill:#D6CB78;}
	.st124{fill:#D73D3D;}
	.st125{fill:#D7B029;}
	.st126{fill:#D8D8D7;}
	.st127{fill:#A03D3D;}
	.st128{fill:#A09592;}
	.st129{fill:#717171;}
	.st130{fill:#A19F9F;}
	.st131{fill:#727172;}
	.st132{fill:#F9F29A;stroke:#E1C821;stroke-miterlimit:10;}
	.st133{fill:#A2D1C9;}
	.st134{fill:#A33B3B;}
	.st135{fill:#A48A47;}
	.st136{fill:#DAC425;}
	.st137{fill:#786547;}
	.st138{fill:#787878;}
	.st139{fill:#A7A8A7;}
	.st140{fill-rule:evenodd;clip-rule:evenodd;fill:#6DABB5;}
	.st141{fill:#DCD99D;}
	.st142{fill:#DD5231;}
	.st143{clip-path:url(#SVGID_4_);fill:#CDCDCE;}
	.st144{fill:#DDDACA;}
	.st145{fill:#DDDCD6;}
	.st146{fill:#DDDDDC;}
	.st147{fill:#404040;}
	.st148{fill:#DEBA24;}
	.st149{fill:#DFBFDB;}
	.st150{fill:#DFD48A;}
	.st151{fill:#DFDFDF;}
	.st152{fill:#444545;}
	.st153{fill:#45423F;}
]]>
</style>
<g>
	<g>
		<circle class="st13" cx="68.416" cy="68.417" r="63.333"/>
		<g>
			<g>
				<path class="st41" d="M92.476,95.575c-0.01,1.916-1.57,3.469-3.486,3.469H43.063c-1.914,0-3.457-1.553-3.447-3.469l0.385-67.59
					c0.012-1.914,1.572-3.465,3.486-3.465h45.926c1.916,0,3.459,1.551,3.447,3.465L92.476,95.575z"/>
				<path class="st41" d="M46.591,105.489c-0.002,0.248-0.203,0.449-0.451,0.449H40.19c-0.248,0-0.449-0.201-0.447-0.449
					l0.072-12.539c0.002-0.246,0.203-0.449,0.451-0.449h5.949c0.248,0,0.447,0.203,0.447,0.449L46.591,105.489z"/>
				<path class="st41" d="M92.558,105.489c-0.002,0.248-0.203,0.449-0.451,0.449h-5.949c-0.248,0-0.449-0.201-0.447-0.449
					l0.072-12.539c0.002-0.246,0.203-0.449,0.451-0.449h5.949c0.248,0,0.447,0.203,0.447,0.449L92.558,105.489z"/>
			</g>
			<g>
				<path class="st81" d="M93.433,95.575c-0.01,1.916-1.57,3.469-3.484,3.469H44.021c-1.914,0-3.457-1.553-3.445-3.469l0.385-67.59
					c0.01-1.914,1.57-3.465,3.484-3.465h45.928c1.914,0,3.457,1.551,3.447,3.465L93.433,95.575z"/>
				<path class="st81" d="M47.548,105.489c0,0.248-0.203,0.449-0.451,0.449h-5.949c-0.248,0-0.447-0.201-0.445-0.449l0.07-12.539
					c0.002-0.246,0.205-0.449,0.451-0.449h5.949c0.248,0,0.447,0.203,0.447,0.449L47.548,105.489z"/>
				<path class="st81" d="M93.515,105.489c0,0.248-0.203,0.449-0.451,0.449h-5.949c-0.248,0-0.447-0.201-0.445-0.449l0.07-12.539
					c0.002-0.246,0.205-0.449,0.451-0.449h5.949c0.248,0,0.449,0.203,0.447,0.449L93.515,105.489z"/>
			</g>
			<g>
				<path class="st41" d="M104.442,95.575c0.297,1.916-1.014,3.469-2.928,3.469H55.587c-1.914,0-3.707-1.553-4.004-3.469
					l-10.482-67.59c-0.299-1.914,1.012-3.465,2.928-3.465h45.926c1.914,0,3.707,1.551,4.004,3.465L104.442,95.575z"/>
				<path class="st41" d="M60.151,105.489c0.039,0.248-0.131,0.449-0.379,0.449h-5.949c-0.248,0-0.48-0.201-0.52-0.449L51.36,92.95
					c-0.039-0.246,0.131-0.449,0.379-0.449h5.949c0.248,0,0.48,0.203,0.518,0.449L60.151,105.489z"/>
				<path class="st41" d="M106.118,105.489c0.039,0.248-0.131,0.449-0.379,0.449h-5.951c-0.246,0-0.479-0.201-0.518-0.449
					L97.327,92.95c-0.039-0.246,0.131-0.449,0.379-0.449h5.949c0.248,0,0.479,0.203,0.52,0.449L106.118,105.489z"/>
			</g>
			<g>
				<path class="st146" d="M105.974,95.575c0.299,1.916-1.012,3.469-2.928,3.469H57.12c-1.914,0-3.707-1.553-4.004-3.469
					l-10.484-67.59c-0.297-1.914,1.014-3.465,2.928-3.465h45.928c1.914,0,3.707,1.551,4.004,3.465L105.974,95.575z"/>
				<path class="st46" d="M99.138,88.28c0.232,1.502-0.795,2.719-2.297,2.719H60.829c-1.5,0-2.906-1.217-3.139-2.719L49.47,35.282
					c-0.234-1.5,0.793-2.717,2.297-2.717h36.01c1.502,0,2.908,1.217,3.141,2.717L99.138,88.28z"/>
				<path class="st146" d="M61.683,105.489c0.039,0.248-0.131,0.449-0.379,0.449h-5.949c-0.248,0-0.479-0.201-0.518-0.449
					L52.892,92.95c-0.039-0.246,0.131-0.449,0.379-0.449h5.951c0.246,0,0.479,0.203,0.518,0.449L61.683,105.489z"/>
				<path class="st146" d="M107.649,105.489c0.041,0.248-0.131,0.449-0.379,0.449h-5.949c-0.248,0-0.479-0.201-0.518-0.449
					L98.858,92.95c-0.039-0.246,0.133-0.449,0.379-0.449h5.951c0.246,0,0.479,0.203,0.518,0.449L107.649,105.489z"/>
			</g>
			<g>
				<path class="st146" d="M86.829,39.323c0,0.564-0.457,1.021-1.02,1.021H56.44c-0.564,0-1.021-0.457-1.021-1.021l0,0
					c0-0.564,0.457-1.021,1.021-1.021H85.81C86.372,38.301,86.829,38.758,86.829,39.323L86.829,39.323z"/>
				<path class="st146" d="M87.851,45.452c0,0.564-0.457,1.021-1.021,1.021H57.462c-0.564,0-1.021-0.457-1.021-1.021l0,0
					c0-0.564,0.457-1.021,1.021-1.021h29.367C87.394,44.43,87.851,44.887,87.851,45.452L87.851,45.452z"/>
				<path class="st146" d="M88.874,51.581c0,0.564-0.457,1.021-1.021,1.021H58.483c-0.564,0-1.021-0.457-1.021-1.021l0,0
					c0-0.564,0.457-1.021,1.021-1.021h29.369C88.417,50.559,88.874,51.016,88.874,51.581L88.874,51.581z"/>
			</g>
		</g>
	</g>
</g>
</svg>
