<?xml version="1.0" encoding="utf-8"?>
<!-- Generator: Adobe Illustrator 16.0.0, SVG Export Plug-In . SVG Version: 6.00 Build 0)  -->
<!DOCTYPE svg PUBLIC "-//W3C//DTD SVG 1.1//EN" "http://www.w3.org/Graphics/SVG/1.1/DTD/svg11.dtd">
<svg version="1.1" id="Layer_1" xmlns="http://www.w3.org/2000/svg" xmlns:xlink="http://www.w3.org/1999/xlink" x="0px" y="0px"
	 width="136.833px" height="136.834px" viewBox="0 0 136.833 136.834" style="enable-background:new 0 0 136.833 136.834;"
	 xml:space="preserve">
<style type="text/css">
<![CDATA[
	.st0{fill:#AAA79B;}
	.st1{fill:#AAAAAA;}
	.st2{fill:#49A0AE;}
	.st3{fill:#AD9030;}
	.st4{fill:#AE7B3E;}
	.st5{fill:#117F4A;}
	.st6{fill:#E03740;}
	.st7{opacity:0.15;fill:#F0EFED;}
	.st8{fill:#E13B3B;}
	.st9{fill:#E1C821;}
	.st10{fill:#E1DEDB;}
	.st11{fill:#E2C448;}
	.st12{fill:#E34F50;}
	.st13{fill:#4ABC96;}
	.st14{fill:#E5E5E5;}
	.st15{fill:#E7E7E7;}
	.st16{fill:#E84849;}
	.st17{fill:#E8E4AA;}
	.st18{fill:#E9C11E;}
	.st19{fill:#E9E9EA;}
	.st20{fill:#B19353;}
	.st21{clip-path:url(#SVGID_2_);fill:#AAAAAA;}
	.st22{fill:#B29C76;}
	.st23{fill:#838383;}
	.st24{fill:#B2B0A6;}
	.st25{fill:#B2B2B2;}
	.st26{fill:#B4B4B5;}
	.st27{fill:#867257;}
	.st28{fill:#86847D;}
	.st29{fill:#1B7A9A;}
	.st30{fill:#B6B3A1;}
	.st31{fill:#B6B6B7;}
	.st32{fill:#B6C2CB;}
	.st33{fill:#1C4C51;}
	.st34{fill:#888888;}
	.st35{fill:#EB9682;}
	.st36{fill:#898579;}
	.st37{fill:#B8D4D8;}
	.st38{fill:#ECE17E;}
	.st39{fill:#B9972F;}
	.st40{fill:#B9A57C;}
	.st41{fill:#B9B9BA;}
	.st42{fill:#EDC92C;}
	.st43{fill:#EDEBE7;}
	.st44{fill:#525252;}
	.st45{opacity:0.15;fill:#FFFFFF;}
	.st46{fill:#565453;}
	.st47{fill:#575656;}
	.st48{fill-rule:evenodd;clip-rule:evenodd;fill:#4B4A4B;}
	.st49{clip-path:url(#SVGID_4_);fill:#AAAAAA;}
	.st50{fill:#BAE2DD;}
	.st51{fill:#BBBCBB;}
	.st52{fill:#BDB36D;}
	.st53{fill:#202121;}
	.st54{clip-path:url(#SVGID_2_);fill:#1B7A9A;}
	.st55{fill:#239563;}
	.st56{fill:#F37C2A;}
	.st57{fill:#255860;}
	.st58{fill:#F3EED5;}
	.st59{fill:#F4E028;}
	.st60{fill:#F4F4EE;}
	.st61{fill:#5ABE8F;}
	.st62{fill:#F6F2E4;}
	.st63{fill:#5C5853;}
	.st64{fill:#5C5C5C;}
	.st65{fill-rule:evenodd;clip-rule:evenodd;fill:#EB6C25;}
	.st66{fill:#2992AD;}
	.st67{fill:#5E5F5E;}
	.st68{fill:#F9F29A;}
	.st69{clip-path:url(#SVGID_2_);}
	.st70{clip-path:url(#SVGID_4_);}
	.st71{fill:#C0BFBC;}
	.st72{fill:#C0C0C0;}
	.st73{fill:#C1914F;}
	.st74{fill:#93793D;}
	.st75{fill:#C3C3C3;}
	.st76{fill:#C3D5C7;}
	.st77{fill:#C4A830;}
	.st78{clip-path:url(#SVGID_4_);fill:#1B7A9A;}
	.st79{fill:#C698C5;}
	.st80{fill:#972627;}
	.st81{fill:#C6C5C5;}
	.st82{fill:#C74A39;}
	.st83{fill:#C84027;}
	.st84{opacity:0.1;}
	.st85{fill:#616161;}
	.st86{fill:#FFCE00;}
	.st87{fill:#FFF5F4;}
	.st88{fill:#FFFFFF;}
	.st89{fill:#63BD6E;}
	.st90{fill-rule:evenodd;clip-rule:evenodd;fill:#F37C2A;}
	.st91{fill:none;}
	.st92{fill:#65A844;}
	.st93{fill:#667580;}
	.st94{fill:#CAE8E4;}
	.st95{fill:#9C9C9C;}
	.st96{fill:#CBBD7D;}
	.st97{fill:#CC4028;}
	.st98{fill:#CCC375;}
	.st99{fill:#CCC788;}
	.st100{fill:#9DDAEC;}
	.st101{fill:#CDAB2D;}
	.st102{fill:#CDCCCB;}
	.st103{fill:#CDCDCE;}
	.st104{fill:#CDE7D5;}
	.st105{fill:#9F77AA;}
	.st106{fill:#CECBCB;}
	.st107{fill:#357180;}
	.st108{fill:#6BA297;}
	.st109{fill:#6EC2CB;}
	.st110{fill:#D0D1D1;}
	.st111{fill:#D1974F;}
	.st112{fill:#D1AFD2;}
	.st113{fill:#D22027;}
	.st114{fill:#D2B63D;}
	.st115{fill:#D2D2D2;}
	.st116{fill:#D32033;}
	.st117{clip-path:url(#SVGID_2_);fill:#CDCDCE;}
	.st118{fill:#D51F31;}
	.st119{fill:#D5C7C3;}
	.st120{fill:#D5D6D5;}
	.st121{fill:#3B3A38;}
	.st122{fill:#3B6DA2;}
	.st123{fill:#D6CB78;}
	.st124{fill:#D73D3D;}
	.st125{fill:#D7B029;}
	.st126{fill:#D8D8D7;}
	.st127{fill:#A03D3D;}
	.st128{fill:#A09592;}
	.st129{fill:#717171;}
	.st130{fill:#A19F9F;}
	.st131{fill:#727172;}
	.st132{fill:#F9F29A;stroke:#E1C821;stroke-miterlimit:10;}
	.st133{fill:#A2D1C9;}
	.st134{fill:#A33B3B;}
	.st135{fill:#A48A47;}
	.st136{fill:#DAC425;}
	.st137{fill:#786547;}
	.st138{fill:#787878;}
	.st139{fill:#A7A8A7;}
	.st140{fill-rule:evenodd;clip-rule:evenodd;fill:#6DABB5;}
	.st141{fill:#DCD99D;}
	.st142{fill:#DD5231;}
	.st143{clip-path:url(#SVGID_4_);fill:#CDCDCE;}
	.st144{fill:#DDDACA;}
	.st145{fill:#DDDCD6;}
	.st146{fill:#DDDDDC;}
	.st147{fill:#404040;}
	.st148{fill:#DEBA24;}
	.st149{fill:#DFBFDB;}
	.st150{fill:#DFD48A;}
	.st151{fill:#DFDFDF;}
	.st152{fill:#444545;}
	.st153{fill:#45423F;}
]]>
</style>
<g>
	<g>
		<circle class="st56" cx="68.417" cy="68.417" r="63.333"/>
		<g>
			<path class="st29" d="M88.215,79.669c0,2.115-1.717,3.832-3.833,3.832H26.089c-2.117,0-3.833-1.717-3.833-3.832V44.692
				c0-2.115,1.716-3.832,3.833-3.832h58.293c2.116,0,3.833,1.717,3.833,3.832V79.669z"/>
			<rect x="23.637" y="50.879" class="st1" width="63.242" height="7.572"/>
			<path class="st66" d="M58.375,64.797c0,0.799-0.647,1.447-1.447,1.447H28.425c-0.8,0-1.447-0.648-1.447-1.447l0,0
				c0-0.799,0.647-1.447,1.447-1.447h28.503C57.728,63.35,58.375,63.999,58.375,64.797L58.375,64.797z"/>
		</g>
		<path class="st56" d="M114.046,96.81c0,2.119-1.719,3.838-3.839,3.838H51.848c-2.119,0-3.839-1.719-3.839-3.838V61.792
			c0-2.118,1.72-3.837,3.839-3.837h58.359c2.12,0,3.839,1.719,3.839,3.837V96.81z"/>
		<g>
			<g>
				<defs>
					<path id="SVGID_1_" d="M115.015,97.886c0,2.115-1.716,3.832-3.833,3.832H52.889c-2.116,0-3.833-1.717-3.833-3.832V62.909
						c0-2.115,1.717-3.832,3.833-3.832h58.293c2.117,0,3.833,1.717,3.833,3.832V97.886z"/>
				</defs>
				<clipPath id="SVGID_2_">
					<use xlink:href="#SVGID_1_"  style="overflow:visible;"/>
				</clipPath>
				<path class="st54" d="M115.015,97.886c0,2.115-1.716,3.832-3.833,3.832H52.889c-2.116,0-3.833-1.717-3.833-3.832V62.909
					c0-2.115,1.717-3.832,3.833-3.832h58.293c2.117,0,3.833,1.717,3.833,3.832V97.886z"/>
				<g class="st69">
					<path class="st66" d="M96.269,71.442c0,0-5.363,1.109-7.285,0.08c0,0-1.28-1.662-4.882-0.236c0,0-6.322,3.799-6.402,7.6
						c0,0-1.762,7.521,4.882,8.551c0,0,6.964-2.295,7.845,0.396c0,0,0.24,3.324,0.88,4.037c0,0,1.04,1.529,0.961,2.453
						c0,0-0.721,3.088,0.24,5.463c0,0,0.641,2.059,0.56,2.691c0,0,6.083-1.74,8.004-7.441c0,0,1.12-3.959,1.201-4.988
						c0,0,1.601-4.59,2.001-6.018c0,0,1.44-4.273-0.961-3.719c0,0-1.681-1.586-2.882-2.771C99.231,76.353,96.91,71.84,96.269,71.442
						z"/>
					<path class="st66" d="M101.631,77.382l-6.724-6.174c0,0,1.439-1.27,0.961-1.98c-0.48-0.713-1.521,0.236-2.401,0.236
						s-2.081,0.713-2.562,0.08c-0.479-0.634-0.801-0.475-1.279-0.08c-0.48,0.396-1.361,1.031-1.441,0.633
						c-0.082-0.395-1.521-0.236-1.602-0.633c-0.079-0.395,0.24-1.503-0.479-1.266c-0.72,0.236-1.761,1.029-1.923,1.426
						c-0.158,0.395-0.719,1.584-1.279,1.584s-2.001,0.314-2.242-0.16c-0.238-0.475-0.72-2.059-0.238-2.533
						c0.479-0.477,2.829,0.025,2.72-0.554c-0.108-0.579-0.385-1.855-0.031-2.035c0.353-0.181,1.312-2.239,1.952-2.478
						s2.323,0.633,2.562,0.078c0,0,0.08-1.661-0.238-1.899c-0.321-0.237-0.562-0.95-1.122-0.872c-0.561,0.081-0.8,0.635-0.4,0.872
						c0.4,0.238,0.721,1.187,0.48,1.187c-0.239,0-2.401,0.16-2.48-0.395c-0.08-0.554,0.239-1.9,0.959-2.375
						c0.721-0.475,2.242-0.396,2.723-0.158c0.48,0.236,1.039-0.238,1.2-0.634c0.161-0.395-2.274-1.722-2.996-1.722
						c0,0,18.97,1.418,22.226,20.809c0,0-2.021-6.659-3.381-7.053c0,0-0.721,0.474-1.201,0.395c-0.48-0.078-2.882-1.584-3.041-1.186
						c-0.162,0.396,1.12,1.74,2.48,1.898s1.441,0.318,1.521,1.03c0.079,0.712,0.319,1.819,0.159,2.533
						C104.353,76.669,103.392,78.808,101.631,77.382z"/>
					<path class="st66" d="M81.782,63.29c0,0-0.641,0.396-0.96,0.949C80.5,64.792,80.5,65.268,80.5,65.268s0.407,0.236,0.816,0.238
						c0.41,0,1.506-0.396,1.506-0.949C82.822,64,81.782,63.29,81.782,63.29z"/>
					<path class="st66" d="M80.822,58.54c0,0-1.922,2.296-2.882,2.533c-0.962,0.238-2.562,1.027-2.961,1.346
						c-0.401,0.318-1.763-0.238-0.962-0.871c0.801-0.635,2.961-2.057,2.481-2.217c-0.479-0.158-2.642,1.346-3.521,1.98
						c-0.88,0.632-1.601,1.58-2.001,2.215c-0.401,0.635-0.32,2.297-1.201,2.614c-0.879,0.315-4.722,1.897-6.003,3.009
						c-1.281,1.106-2.659,1.925-3.221,3.033c-0.56,1.109,0.284-1.771,0.778-2.83c0,0,3.404-6.063,11.167-9.861
						C72.497,59.491,78.42,57.985,80.822,58.54z"/>
					<path class="st66" d="M58.41,86.407c0,0-0.802-4.275,0.079-4.672c0.882-0.396,1.146-0.479,1.922,0.316
						c0.774,0.797,1.841,2.139,2.24,2.852c0.4,0.711,1.842,1.582,1.842,2.137s-0.321,1.9,0,2.533c0.319,0.635,0.8,0.713,1.521,1.029
						c0.721,0.314,2.081,0.791,2.883,1.506c0.799,0.711,1.919,1.582,1.679,2.531c-0.238,0.951-0.72,2.377-0.56,2.93
						c0.159,0.555,0.721,1.504,0.081,1.9c-0.642,0.395-1.121,0.316-1.042,1.027c0.081,0.715,0.883,2.928,1.123,3.322
						C70.177,103.819,60.198,99.575,58.41,86.407z"/>
					<path class="st66" d="M59.502,77.608c0.16-0.551,0.561-3.323,0.08-3.323c-0.939,3.465-0.906,3.42-1.281,6.016"/>
				</g>
				<path class="st21" d="M66.812,89.962c0,0.977-0.469,1.77-1.048,1.77H55.123c-0.579,0-1.048-0.793-1.048-1.77l0,0
					c0-0.977,0.469-1.77,1.048-1.77h10.642C66.343,88.192,66.812,88.985,66.812,89.962L66.812,89.962z"/>
				<path class="st21" d="M81.394,89.962c0,0.977-0.47,1.77-1.049,1.77H69.703c-0.577,0-1.047-0.793-1.047-1.77l0,0
					c0-0.977,0.47-1.77,1.047-1.77h10.643C80.924,88.192,81.394,88.985,81.394,89.962L81.394,89.962z"/>
				<path class="st21" d="M95.866,89.962c0,0.977-0.47,1.77-1.049,1.77H84.175c-0.577,0-1.048-0.793-1.048-1.77l0,0
					c0-0.977,0.471-1.77,1.048-1.77h10.642C95.396,88.192,95.866,88.985,95.866,89.962L95.866,89.962z"/>
				<path class="st21" d="M110.218,89.962c0,0.979-0.47,1.775-1.051,1.775H98.497c-0.58,0-1.05-0.797-1.05-1.775l0,0
					c0-0.98,0.47-1.773,1.05-1.773h10.671C109.749,88.188,110.218,88.981,110.218,89.962L110.218,89.962z"/>
				<g class="st69">
					<rect x="55.114" y="71.845" class="st51" width="11.356" height="1.315"/>
					<rect x="55.114" y="69.49" class="st51" width="11.356" height="1.108"/>
					<g>
						<path class="st103" d="M59.346,72.78c0,0.708,0.614,1.281,1.373,1.281c0.758,0,1.373-0.573,1.373-1.281v-4.535h-2.746V72.78z"
							/>
						<path class="st51" d="M59.505,66.721h-2.829c-0.863,0-1.563,0.652-1.563,1.457v0.066h4.232V67.31
							C59.346,67.096,59.408,66.897,59.505,66.721z"/>
						<path class="st51" d="M66.47,68.178c0-0.805-0.699-1.457-1.562-1.457h-2.977c0.099,0.176,0.16,0.375,0.16,0.589v0.935h4.378
							V68.178z"/>
						<path class="st103" d="M61.932,66.721h-2.427c-0.098,0.176-0.159,0.375-0.159,0.589v0.935h2.746V67.31
							C62.092,67.096,62.031,66.897,61.932,66.721z"/>
					</g>
					<path class="st51" d="M55.114,74.554c0,0.804,0.699,1.457,1.563,1.457h8.232c0.862,0,1.562-0.653,1.562-1.457v-0.147H55.114
						V74.554z"/>
					<rect x="55.114" y="68.245" class="st103" width="11.356" height="1.245"/>
					<rect x="55.114" y="70.598" class="st103" width="11.356" height="1.247"/>
					<rect x="55.114" y="73.161" class="st103" width="11.356" height="1.246"/>
				</g>
				<path class="st117" d="M101.397,63.014c-2.072,0-3.962,0.789-5.383,2.078c-1.35-1.142-3.096-1.832-5.003-1.832
					c-4.284,0-7.757,3.473-7.757,7.757c0,4.285,3.473,7.755,7.757,7.755c1.907,0,3.653-0.691,5.003-1.83
					c1.421,1.291,3.311,2.078,5.383,2.078c4.419,0,8.002-3.583,8.002-8.003C109.399,66.598,105.816,63.014,101.397,63.014z
					 M106.708,76.327c-1.36,1.359-3.238,2.199-5.311,2.199c-1.929,0-3.683-0.727-5.013-1.922c0.272-0.262,0.53-0.545,0.763-0.846
					h-1.574c-0.193-0.237-0.37-0.485-0.531-0.744h2.616c0.167-0.274,0.316-0.566,0.447-0.862h-3.534
					c-0.109-0.24-0.208-0.49-0.292-0.744h4.11c0.09-0.279,0.167-0.566,0.227-0.86h-4.571c-0.052-0.245-0.09-0.491-0.116-0.743h4.798
					c0.027-0.26,0.04-0.523,0.04-0.788c0-0.024-0.001-0.05-0.001-0.073h-4.879c0.005-0.252,0.02-0.499,0.044-0.744h4.794
					c-0.031-0.291-0.079-0.58-0.141-0.863h-4.505c0.057-0.251,0.125-0.499,0.208-0.74h4.094c-0.098-0.297-0.212-0.585-0.342-0.864
					h-3.397c0.125-0.255,0.265-0.503,0.418-0.741h2.583c-0.186-0.302-0.391-0.59-0.612-0.863h-1.332
					c0.124-0.145,0.254-0.285,0.388-0.422c1.361-1.358,3.237-2.199,5.312-2.199c2.072,0,3.95,0.841,5.311,2.199
					c1.358,1.361,2.198,3.238,2.198,5.312C108.906,73.092,108.066,74.966,106.708,76.327z M109.422,76.86
					c-0.155-0.15-0.347-0.227-0.567-0.227c-0.222,0-0.413,0.076-0.569,0.227c-0.155,0.15-0.232,0.342-0.232,0.574
					c0,0.223,0.077,0.41,0.232,0.561c0.156,0.154,0.348,0.229,0.569,0.229c0.221,0,0.412-0.074,0.567-0.229
					c0.157-0.15,0.236-0.338,0.236-0.561C109.659,77.202,109.58,77.011,109.422,76.86z M109.319,77.905
					c-0.128,0.131-0.282,0.195-0.464,0.195s-0.338-0.064-0.471-0.195c-0.131-0.131-0.196-0.287-0.196-0.471
					c0-0.201,0.065-0.365,0.196-0.49c0.133-0.127,0.289-0.189,0.471-0.189s0.336,0.063,0.464,0.189
					c0.124,0.125,0.188,0.289,0.188,0.49C109.507,77.618,109.443,77.774,109.319,77.905z M109.218,77.21
					c0-0.162-0.111-0.242-0.333-0.242h-0.332v0.92h0.137v-0.391h0.143l0.229,0.391h0.157l-0.242-0.424
					C109.137,77.464,109.218,77.382,109.218,77.21z M108.839,77.358h-0.149v-0.27h0.195c0.131,0,0.196,0.041,0.196,0.121
					C109.082,77.31,109.002,77.358,108.839,77.358z"/>
			</g>
		</g>
	</g>
</g>
</svg>
