<?xml version="1.0" encoding="utf-8"?>
<!-- Generator: Adobe Illustrator 16.0.0, SVG Export Plug-In . SVG Version: 6.00 Build 0)  -->
<!DOCTYPE svg PUBLIC "-//W3C//DTD SVG 1.1//EN" "http://www.w3.org/Graphics/SVG/1.1/DTD/svg11.dtd">
<svg version="1.1" id="Layer_1" xmlns="http://www.w3.org/2000/svg" xmlns:xlink="http://www.w3.org/1999/xlink" x="0px" y="0px"
	 width="136.833px" height="136.834px" viewBox="0 0 136.833 136.834" style="enable-background:new 0 0 136.833 136.834;"
	 xml:space="preserve">
<style type="text/css">
<![CDATA[
	.st0{fill:#AAA79B;}
	.st1{fill:#AAAAAA;}
	.st2{fill:#49A0AE;}
	.st3{fill:#AD9030;}
	.st4{fill:#AE7B3E;}
	.st5{fill:#117F4A;}
	.st6{fill:#E03740;}
	.st7{opacity:0.15;fill:#F0EFED;}
	.st8{fill:#E13B3B;}
	.st9{fill:#E1C821;}
	.st10{fill:#E1DEDB;}
	.st11{fill:#E2C448;}
	.st12{fill:#E34F50;}
	.st13{fill:#4ABC96;}
	.st14{fill:#E5E5E5;}
	.st15{fill:#E7E7E7;}
	.st16{fill:#E84849;}
	.st17{fill:#E8E4AA;}
	.st18{fill:#E9C11E;}
	.st19{fill:#E9E9EA;}
	.st20{fill:#B19353;}
	.st21{clip-path:url(#SVGID_2_);fill:#AAAAAA;}
	.st22{fill:#B29C76;}
	.st23{fill:#838383;}
	.st24{fill:#B2B0A6;}
	.st25{fill:#B2B2B2;}
	.st26{fill:#B4B4B5;}
	.st27{fill:#867257;}
	.st28{fill:#86847D;}
	.st29{fill:#1B7A9A;}
	.st30{fill:#B6B3A1;}
	.st31{fill:#B6B6B7;}
	.st32{fill:#B6C2CB;}
	.st33{fill:#1C4C51;}
	.st34{fill:#888888;}
	.st35{fill:#EB9682;}
	.st36{fill:#898579;}
	.st37{fill:#B8D4D8;}
	.st38{fill:#ECE17E;}
	.st39{fill:#B9972F;}
	.st40{fill:#B9A57C;}
	.st41{fill:#B9B9BA;}
	.st42{fill:#EDC92C;}
	.st43{fill:#EDEBE7;}
	.st44{fill:#525252;}
	.st45{opacity:0.15;fill:#FFFFFF;}
	.st46{fill:#565453;}
	.st47{fill:#575656;}
	.st48{fill-rule:evenodd;clip-rule:evenodd;fill:#4B4A4B;}
	.st49{clip-path:url(#SVGID_4_);fill:#AAAAAA;}
	.st50{fill:#BAE2DD;}
	.st51{fill:#BBBCBB;}
	.st52{fill:#BDB36D;}
	.st53{fill:#202121;}
	.st54{clip-path:url(#SVGID_2_);fill:#1B7A9A;}
	.st55{fill:#239563;}
	.st56{fill:#F37C2A;}
	.st57{fill:#255860;}
	.st58{fill:#F3EED5;}
	.st59{fill:#F4E028;}
	.st60{fill:#F4F4EE;}
	.st61{fill:#5ABE8F;}
	.st62{fill:#F6F2E4;}
	.st63{fill:#5C5853;}
	.st64{fill:#5C5C5C;}
	.st65{fill-rule:evenodd;clip-rule:evenodd;fill:#EB6C25;}
	.st66{fill:#2992AD;}
	.st67{fill:#5E5F5E;}
	.st68{fill:#F9F29A;}
	.st69{clip-path:url(#SVGID_2_);}
	.st70{clip-path:url(#SVGID_4_);}
	.st71{fill:#C0BFBC;}
	.st72{fill:#C0C0C0;}
	.st73{fill:#C1914F;}
	.st74{fill:#93793D;}
	.st75{fill:#C3C3C3;}
	.st76{fill:#C3D5C7;}
	.st77{fill:#C4A830;}
	.st78{clip-path:url(#SVGID_4_);fill:#1B7A9A;}
	.st79{fill:#C698C5;}
	.st80{fill:#972627;}
	.st81{fill:#C6C5C5;}
	.st82{fill:#C74A39;}
	.st83{fill:#C84027;}
	.st84{opacity:0.1;}
	.st85{fill:#616161;}
	.st86{fill:#FFCE00;}
	.st87{fill:#FFF5F4;}
	.st88{fill:#FFFFFF;}
	.st89{fill:#63BD6E;}
	.st90{fill-rule:evenodd;clip-rule:evenodd;fill:#F37C2A;}
	.st91{fill:none;}
	.st92{fill:#65A844;}
	.st93{fill:#667580;}
	.st94{fill:#CAE8E4;}
	.st95{fill:#9C9C9C;}
	.st96{fill:#CBBD7D;}
	.st97{fill:#CC4028;}
	.st98{fill:#CCC375;}
	.st99{fill:#CCC788;}
	.st100{fill:#9DDAEC;}
	.st101{fill:#CDAB2D;}
	.st102{fill:#CDCCCB;}
	.st103{fill:#CDCDCE;}
	.st104{fill:#CDE7D5;}
	.st105{fill:#9F77AA;}
	.st106{fill:#CECBCB;}
	.st107{fill:#357180;}
	.st108{fill:#6BA297;}
	.st109{fill:#6EC2CB;}
	.st110{fill:#D0D1D1;}
	.st111{fill:#D1974F;}
	.st112{fill:#D1AFD2;}
	.st113{fill:#D22027;}
	.st114{fill:#D2B63D;}
	.st115{fill:#D2D2D2;}
	.st116{fill:#D32033;}
	.st117{clip-path:url(#SVGID_2_);fill:#CDCDCE;}
	.st118{fill:#D51F31;}
	.st119{fill:#D5C7C3;}
	.st120{fill:#D5D6D5;}
	.st121{fill:#3B3A38;}
	.st122{fill:#3B6DA2;}
	.st123{fill:#D6CB78;}
	.st124{fill:#D73D3D;}
	.st125{fill:#D7B029;}
	.st126{fill:#D8D8D7;}
	.st127{fill:#A03D3D;}
	.st128{fill:#A09592;}
	.st129{fill:#717171;}
	.st130{fill:#A19F9F;}
	.st131{fill:#727172;}
	.st132{fill:#F9F29A;stroke:#E1C821;stroke-miterlimit:10;}
	.st133{fill:#A2D1C9;}
	.st134{fill:#A33B3B;}
	.st135{fill:#A48A47;}
	.st136{fill:#DAC425;}
	.st137{fill:#786547;}
	.st138{fill:#787878;}
	.st139{fill:#A7A8A7;}
	.st140{fill-rule:evenodd;clip-rule:evenodd;fill:#6DABB5;}
	.st141{fill:#DCD99D;}
	.st142{fill:#DD5231;}
	.st143{clip-path:url(#SVGID_4_);fill:#CDCDCE;}
	.st144{fill:#DDDACA;}
	.st145{fill:#DDDCD6;}
	.st146{fill:#DDDDDC;}
	.st147{fill:#404040;}
	.st148{fill:#DEBA24;}
	.st149{fill:#DFBFDB;}
	.st150{fill:#DFD48A;}
	.st151{fill:#DFDFDF;}
	.st152{fill:#444545;}
	.st153{fill:#45423F;}
]]>
</style>
<g>
	<g>
		<circle class="st107" cx="68.417" cy="68.415" r="63.333"/>
		<g>
			<path class="st16" d="M106.917,80.739c0,3.314-6.937,6-10.25,6l-21-0.092v-31.75c0-3.314,3.187-6,6.5-6h14.5c3.313,0,6,2.686,6,6
				L106.917,80.739z"/>
			<path class="st100" d="M100.167,65.802l-20.044-0.07V55.647c0-2.572,0.973-3.262,3.544-3.262h11.75
				c2.571,0,3.25,1.012,3.452,3.262L100.167,65.802z"/>
			<path class="st120" d="M76.417,86.739H32.973c-4.173,0-7.556-3.383-7.556-7.555V48.452c0-4.172,3.383-5.555,7.556-5.555h35.889
				c4.173,0,7.556,1.383,7.556,5.555V86.739z"/>
			<path class="st106" d="M76.417,86.739H32.973c-4.173,0-7.556-3.383-7.556-7.555V50.313c0-4.172,51-4.172,51,0V86.739z"/>
			<path class="st16" d="M111.417,82.296c0,2.453-1.99,4.443-4.444,4.443H85.862c-2.454,0-4.444-1.99-4.444-4.443V70.397
				c0-2.453,1.99-4.443,4.444-4.443h21.111c2.454,0,4.444,1.99,4.444,4.443V82.296z"/>
			<path class="st106" d="M115.417,85.896c0,1.295-1.05,2.344-2.345,2.344H25.762c-1.295,0-2.345-1.049-2.345-2.344v-2.959
				c0-1.295,1.05-2.346,2.345-2.346h87.311c1.295,0,2.345,1.051,2.345,2.346V85.896z"/>
			<path class="st16" d="M104.428,85.896c0,1.295-1.05,2.344-2.345,2.344H25.762c-1.295,0-2.345-1.049-2.345-2.344v-3.439
				c0-1.295,1.05-2.344,2.345-2.344h76.321c1.295,0,2.345,1.049,2.345,2.344V85.896z"/>
			<g>
				<g>
					<circle class="st53" cx="93.818" cy="91.196" r="9.844"/>
				</g>
				<circle class="st67" cx="93.818" cy="91.196" r="5.857"/>
				<circle class="st130" cx="93.819" cy="91.194" r="2.189"/>
			</g>
			<g>
				<g>
					<circle class="st53" cx="46.818" cy="91.196" r="9.844"/>
				</g>
				<path class="st67" d="M52.675,91.196c0,3.232-2.621,5.854-5.855,5.854s-5.857-2.621-5.857-5.854
					c0-3.236,2.623-5.857,5.857-5.857S52.675,87.96,52.675,91.196z"/>
				<circle class="st130" cx="46.819" cy="91.194" r="2.189"/>
			</g>
			<g>
				<path class="st8" d="M93.667,84.151c3.386,0,7.441,1.988,9.212,4.912l5.513-0.002c-1.838-6.73-7.729-11.662-14.725-11.662
					S80.78,82.331,78.942,89.062l5.513,0.002C86.225,86.14,90.281,84.151,93.667,84.151z"/>
				<path class="st8" d="M47,84.151c3.386,0,7.142,1.988,8.84,4.91h5.885C59.887,82.331,53.997,77.399,47,77.399
					s-12.887,4.932-14.725,11.662l5.885,0.002C39.859,86.14,43.615,84.151,47,84.151z"/>
			</g>
		</g>
	</g>
</g>
</svg>
