<?xml version="1.0" encoding="utf-8"?>
<!-- Generator: Adobe Illustrator 16.0.0, SVG Export Plug-In . SVG Version: 6.00 Build 0)  -->
<!DOCTYPE svg PUBLIC "-//W3C//DTD SVG 1.1//EN" "http://www.w3.org/Graphics/SVG/1.1/DTD/svg11.dtd">
<svg version="1.1" id="Layer_1" xmlns="http://www.w3.org/2000/svg" xmlns:xlink="http://www.w3.org/1999/xlink" x="0px" y="0px"
	 width="136.833px" height="136.834px" viewBox="0 0 136.833 136.834" style="enable-background:new 0 0 136.833 136.834;"
	 xml:space="preserve">
<style type="text/css">
<![CDATA[
	.st0{fill:#AAA79B;}
	.st1{fill:#AAAAAA;}
	.st2{fill:#49A0AE;}
	.st3{fill:#AD9030;}
	.st4{fill:#AE7B3E;}
	.st5{fill:#117F4A;}
	.st6{fill:#E03740;}
	.st7{opacity:0.15;fill:#F0EFED;}
	.st8{fill:#E13B3B;}
	.st9{fill:#E1C821;}
	.st10{fill:#E1DEDB;}
	.st11{fill:#E2C448;}
	.st12{fill:#E34F50;}
	.st13{fill:#4ABC96;}
	.st14{fill:#E5E5E5;}
	.st15{fill:#E7E7E7;}
	.st16{fill:#E84849;}
	.st17{fill:#E8E4AA;}
	.st18{fill:#E9C11E;}
	.st19{fill:#E9E9EA;}
	.st20{fill:#B19353;}
	.st21{clip-path:url(#SVGID_2_);fill:#AAAAAA;}
	.st22{fill:#B29C76;}
	.st23{fill:#838383;}
	.st24{fill:#B2B0A6;}
	.st25{fill:#B2B2B2;}
	.st26{fill:#B4B4B5;}
	.st27{fill:#867257;}
	.st28{fill:#86847D;}
	.st29{fill:#1B7A9A;}
	.st30{fill:#B6B3A1;}
	.st31{fill:#B6B6B7;}
	.st32{fill:#B6C2CB;}
	.st33{fill:#1C4C51;}
	.st34{fill:#888888;}
	.st35{fill:#EB9682;}
	.st36{fill:#898579;}
	.st37{fill:#B8D4D8;}
	.st38{fill:#ECE17E;}
	.st39{fill:#B9972F;}
	.st40{fill:#B9A57C;}
	.st41{fill:#B9B9BA;}
	.st42{fill:#EDC92C;}
	.st43{fill:#EDEBE7;}
	.st44{fill:#525252;}
	.st45{opacity:0.15;fill:#FFFFFF;}
	.st46{fill:#565453;}
	.st47{fill:#575656;}
	.st48{fill-rule:evenodd;clip-rule:evenodd;fill:#4B4A4B;}
	.st49{clip-path:url(#SVGID_4_);fill:#AAAAAA;}
	.st50{fill:#BAE2DD;}
	.st51{fill:#BBBCBB;}
	.st52{fill:#BDB36D;}
	.st53{fill:#202121;}
	.st54{clip-path:url(#SVGID_2_);fill:#1B7A9A;}
	.st55{fill:#239563;}
	.st56{fill:#F37C2A;}
	.st57{fill:#255860;}
	.st58{fill:#F3EED5;}
	.st59{fill:#F4E028;}
	.st60{fill:#F4F4EE;}
	.st61{fill:#5ABE8F;}
	.st62{fill:#F6F2E4;}
	.st63{fill:#5C5853;}
	.st64{fill:#5C5C5C;}
	.st65{fill-rule:evenodd;clip-rule:evenodd;fill:#EB6C25;}
	.st66{fill:#2992AD;}
	.st67{fill:#5E5F5E;}
	.st68{fill:#F9F29A;}
	.st69{clip-path:url(#SVGID_2_);}
	.st70{clip-path:url(#SVGID_4_);}
	.st71{fill:#C0BFBC;}
	.st72{fill:#C0C0C0;}
	.st73{fill:#C1914F;}
	.st74{fill:#93793D;}
	.st75{fill:#C3C3C3;}
	.st76{fill:#C3D5C7;}
	.st77{fill:#C4A830;}
	.st78{clip-path:url(#SVGID_4_);fill:#1B7A9A;}
	.st79{fill:#C698C5;}
	.st80{fill:#972627;}
	.st81{fill:#C6C5C5;}
	.st82{fill:#C74A39;}
	.st83{fill:#C84027;}
	.st84{opacity:0.1;}
	.st85{fill:#616161;}
	.st86{fill:#FFCE00;}
	.st87{fill:#FFF5F4;}
	.st88{fill:#FFFFFF;}
	.st89{fill:#63BD6E;}
	.st90{fill-rule:evenodd;clip-rule:evenodd;fill:#F37C2A;}
	.st91{fill:none;}
	.st92{fill:#65A844;}
	.st93{fill:#667580;}
	.st94{fill:#CAE8E4;}
	.st95{fill:#9C9C9C;}
	.st96{fill:#CBBD7D;}
	.st97{fill:#CC4028;}
	.st98{fill:#CCC375;}
	.st99{fill:#CCC788;}
	.st100{fill:#9DDAEC;}
	.st101{fill:#CDAB2D;}
	.st102{fill:#CDCCCB;}
	.st103{fill:#CDCDCE;}
	.st104{fill:#CDE7D5;}
	.st105{fill:#9F77AA;}
	.st106{fill:#CECBCB;}
	.st107{fill:#357180;}
	.st108{fill:#6BA297;}
	.st109{fill:#6EC2CB;}
	.st110{fill:#D0D1D1;}
	.st111{fill:#D1974F;}
	.st112{fill:#D1AFD2;}
	.st113{fill:#D22027;}
	.st114{fill:#D2B63D;}
	.st115{fill:#D2D2D2;}
	.st116{fill:#D32033;}
	.st117{clip-path:url(#SVGID_2_);fill:#CDCDCE;}
	.st118{fill:#D51F31;}
	.st119{fill:#D5C7C3;}
	.st120{fill:#D5D6D5;}
	.st121{fill:#3B3A38;}
	.st122{fill:#3B6DA2;}
	.st123{fill:#D6CB78;}
	.st124{fill:#D73D3D;}
	.st125{fill:#D7B029;}
	.st126{fill:#D8D8D7;}
	.st127{fill:#A03D3D;}
	.st128{fill:#A09592;}
	.st129{fill:#717171;}
	.st130{fill:#A19F9F;}
	.st131{fill:#727172;}
	.st132{fill:#F9F29A;stroke:#E1C821;stroke-miterlimit:10;}
	.st133{fill:#A2D1C9;}
	.st134{fill:#A33B3B;}
	.st135{fill:#A48A47;}
	.st136{fill:#DAC425;}
	.st137{fill:#786547;}
	.st138{fill:#787878;}
	.st139{fill:#A7A8A7;}
	.st140{fill-rule:evenodd;clip-rule:evenodd;fill:#6DABB5;}
	.st141{fill:#DCD99D;}
	.st142{fill:#DD5231;}
	.st143{clip-path:url(#SVGID_4_);fill:#CDCDCE;}
	.st144{fill:#DDDACA;}
	.st145{fill:#DDDCD6;}
	.st146{fill:#DDDDDC;}
	.st147{fill:#404040;}
	.st148{fill:#DEBA24;}
	.st149{fill:#DFBFDB;}
	.st150{fill:#DFD48A;}
	.st151{fill:#DFDFDF;}
	.st152{fill:#444545;}
	.st153{fill:#45423F;}
]]>
</style>
<g>
	<g>
		<circle class="st16" cx="68.417" cy="68.417" r="63.333"/>
		<g>
			<path class="st32" d="M101.96,102.372c0,2.252-1.825,4.078-4.076,4.078H38.759c-2.253,0-4.077-1.826-4.077-4.078V31.538
				c0-2.253,1.824-4.079,4.077-4.079h59.125c2.251,0,4.076,1.826,4.076,4.079V102.372z"/>
			<path class="st93" d="M100.07,62.294c0,2.126-1.724,3.851-3.849,3.851H40.419c-2.124,0-3.847-1.725-3.847-3.851V34.204
				c0-2.128,1.723-3.848,3.847-3.848h55.802c2.125,0,3.849,1.72,3.849,3.848V62.294z"/>
			<path class="st115" d="M97.906,60.758c0,1.98-1.605,3.588-3.586,3.588H42.323c-1.98,0-3.586-1.607-3.586-3.588V35.602
				c0-1.98,1.605-3.584,3.586-3.584H94.32c1.98,0,3.586,1.604,3.586,3.584V60.758z"/>
			<path class="st72" d="M81.829,43.237l16.077-7.512c0-1.977-1.605-3.586-3.586-3.586H42.323c-1.979,0-3.586,1.609-3.586,3.586
				l16.076,7.51c0,0.838,0,16.119,0,16.958l-16.076,0.565c0,1.98,1.605,3.588,3.586,3.588H94.32c1.98,0,3.586-1.607,3.586-3.588
				l-16.077-0.563C81.829,59.356,81.829,44.075,81.829,43.237z"/>
			<path class="st139" d="M80.041,58.282c0,1.082-0.879,1.96-1.962,1.96H58.983c-1.082,0-1.96-0.878-1.96-1.96V44.527
				c0-1.079,0.878-1.96,1.96-1.96h19.096c1.083,0,1.962,0.881,1.962,1.96V58.282z"/>
			<path class="st31" d="M76.577,56.212c0,0.756-0.614,1.372-1.371,1.372H61.857c-0.757,0-1.371-0.616-1.371-1.372v-9.616
				c0-0.756,0.614-1.371,1.371-1.371h13.349c0.757,0,1.371,0.615,1.371,1.371V56.212z"/>
			<path class="st95" d="M74.276,48.196c0,0.37-0.301,0.67-0.671,0.67h-9.956c-0.37,0-0.67-0.3-0.67-0.67l0,0
				c0-0.371,0.3-0.67,0.67-0.67h9.956C73.975,47.526,74.276,47.825,74.276,48.196L74.276,48.196z"/>
			<path class="st95" d="M74.276,51.068c0,0.369-0.301,0.669-0.671,0.669h-9.956c-0.37,0-0.67-0.3-0.67-0.669l0,0
				c0-0.37,0.3-0.671,0.67-0.671h9.956C73.975,50.397,74.276,50.698,74.276,51.068L74.276,51.068z"/>
			<path class="st95" d="M74.276,54.012c0,0.369-0.301,0.669-0.671,0.669h-9.956c-0.37,0-0.67-0.3-0.67-0.669l0,0
				c0-0.371,0.3-0.672,0.67-0.672h9.956C73.975,53.34,74.276,53.641,74.276,54.012L74.276,54.012z"/>
			<path class="st93" d="M104.346,105.382c0,2.412-1.955,4.369-4.366,4.369H36.664c-2.411,0-4.367-1.957-4.367-4.369v-4.174
				c0-2.412,1.956-4.365,4.367-4.365H99.98c2.411,0,4.366,1.953,4.366,4.365V105.382z"/>
			<path class="st23" d="M96.693,56.243c0,0.672-0.291,1.215-0.648,1.215h-12.22c-0.357,0-0.647-0.543-0.647-1.215l0,0
				c0-0.671,0.29-1.216,0.647-1.216h12.22C96.402,55.027,96.693,55.572,96.693,56.243L96.693,56.243z"/>
			<path class="st23" d="M96.044,49.235h-6.11c-0.358,0-0.647,0.289-0.647,0.648c0,0.355,0.289,0.646,0.647,0.646h6.11
				c0.357,0,0.648-0.291,0.648-0.646C96.693,49.524,96.402,49.235,96.044,49.235z"/>
			<path class="st23" d="M96.044,44.73h-6.11c-0.358,0-0.647,0.29-0.647,0.647c0,0.358,0.289,0.648,0.647,0.648h6.11
				c0.357,0,0.648-0.29,0.648-0.648C96.693,45.02,96.402,44.73,96.044,44.73z"/>
			<g>
				<path class="st14" d="M57.972,86.364l-0.724-1.906h-6.17l-0.725,1.949c-0.284,0.758-0.524,1.27-0.725,1.535
					c-0.201,0.268-0.528,0.4-0.984,0.4c-0.386,0-0.728-0.143-1.023-0.424c-0.298-0.283-0.445-0.605-0.445-0.963
					c0-0.209,0.034-0.422,0.103-0.645c0.069-0.219,0.185-0.527,0.343-0.92l3.882-9.854c0.109-0.283,0.243-0.624,0.398-1.021
					c0.154-0.395,0.319-0.726,0.497-0.989c0.175-0.261,0.406-0.474,0.693-0.635c0.285-0.164,0.64-0.244,1.061-0.244
					c0.427,0,0.786,0.08,1.071,0.244c0.286,0.161,0.519,0.369,0.693,0.625c0.178,0.256,0.325,0.529,0.445,0.824
					c0.12,0.293,0.274,0.684,0.461,1.174l3.965,9.793c0.31,0.746,0.466,1.285,0.466,1.623c0,0.354-0.146,0.678-0.44,0.971
					c-0.292,0.291-0.647,0.439-1.061,0.439c-0.241,0-0.449-0.045-0.621-0.131c-0.173-0.086-0.318-0.203-0.435-0.352
					c-0.118-0.146-0.244-0.375-0.379-0.684C58.185,86.87,58.07,86.601,57.972,86.364z M51.885,82.153h4.534l-2.287-6.264
					L51.885,82.153z"/>
				<path class="st14" d="M71.502,75.444h-3.354V86.47c0,0.633-0.142,1.104-0.424,1.41c-0.283,0.309-0.648,0.463-1.098,0.463
					c-0.456,0-0.826-0.156-1.113-0.467c-0.286-0.311-0.429-0.779-0.429-1.406V75.444h-3.354c-0.525,0-0.915-0.117-1.17-0.347
					c-0.255-0.231-0.383-0.536-0.383-0.917c0-0.393,0.133-0.702,0.397-0.932c0.267-0.227,0.65-0.34,1.155-0.34h9.771
					c0.531,0,0.927,0.115,1.185,0.352c0.26,0.234,0.389,0.541,0.389,0.92c0,0.381-0.13,0.686-0.393,0.917
					C72.42,75.327,72.026,75.444,71.502,75.444z"/>
				<path class="st14" d="M80.022,85.796l-2.432-9.668v10.475c0,0.58-0.131,1.016-0.389,1.305c-0.261,0.291-0.603,0.436-1.031,0.436
					c-0.414,0-0.751-0.143-1.014-0.43s-0.394-0.723-0.394-1.311V74.595c0-0.661,0.172-1.109,0.518-1.341
					c0.346-0.23,0.81-0.346,1.397-0.346h0.952c0.574,0,0.989,0.052,1.247,0.154s0.451,0.291,0.574,0.559
					c0.125,0.27,0.267,0.706,0.425,1.314l2.205,8.313l2.206-8.313c0.158-0.608,0.299-1.045,0.424-1.314
					c0.123-0.268,0.315-0.456,0.574-0.559c0.258-0.103,0.674-0.154,1.247-0.154h0.953c0.587,0,1.051,0.115,1.396,0.346
					c0.346,0.231,0.519,0.68,0.519,1.341v12.007c0,0.58-0.13,1.016-0.389,1.305c-0.259,0.291-0.605,0.436-1.041,0.436
					c-0.406,0-0.741-0.145-1.003-0.436c-0.262-0.289-0.395-0.725-0.395-1.305V76.128l-2.433,9.668
					c-0.159,0.629-0.288,1.088-0.388,1.381s-0.285,0.563-0.555,0.805c-0.269,0.24-0.642,0.361-1.117,0.361
					c-0.358,0-0.662-0.078-0.91-0.234c-0.25-0.154-0.442-0.354-0.58-0.596c-0.139-0.24-0.247-0.508-0.327-0.801
					C80.186,86.417,80.105,86.112,80.022,85.796z"/>
			</g>
		</g>
	</g>
</g>
</svg>
