<?xml version="1.0" encoding="utf-8"?>
<!-- Generator: Adobe Illustrator 16.0.0, SVG Export Plug-In . SVG Version: 6.00 Build 0)  -->
<!DOCTYPE svg PUBLIC "-//W3C//DTD SVG 1.1//EN" "http://www.w3.org/Graphics/SVG/1.1/DTD/svg11.dtd">
<svg version="1.1" id="Layer_1" xmlns="http://www.w3.org/2000/svg" xmlns:xlink="http://www.w3.org/1999/xlink" x="0px" y="0px"
	 width="136.833px" height="136.834px" viewBox="0 0 136.833 136.834" style="enable-background:new 0 0 136.833 136.834;"
	 xml:space="preserve">
<style type="text/css">
<![CDATA[
	.st0{fill:#AAA79B;}
	.st1{fill:#AAAAAA;}
	.st2{fill:#49A0AE;}
	.st3{fill:#AD9030;}
	.st4{fill:#AE7B3E;}
	.st5{fill:#117F4A;}
	.st6{fill:#E03740;}
	.st7{opacity:0.15;fill:#F0EFED;}
	.st8{fill:#E13B3B;}
	.st9{fill:#E1C821;}
	.st10{fill:#E1DEDB;}
	.st11{fill:#E2C448;}
	.st12{fill:#E34F50;}
	.st13{fill:#4ABC96;}
	.st14{fill:#E5E5E5;}
	.st15{fill:#E7E7E7;}
	.st16{fill:#E84849;}
	.st17{fill:#E8E4AA;}
	.st18{fill:#E9C11E;}
	.st19{fill:#E9E9EA;}
	.st20{fill:#B19353;}
	.st21{clip-path:url(#SVGID_2_);fill:#AAAAAA;}
	.st22{fill:#B29C76;}
	.st23{fill:#838383;}
	.st24{fill:#B2B0A6;}
	.st25{fill:#B2B2B2;}
	.st26{fill:#B4B4B5;}
	.st27{fill:#867257;}
	.st28{fill:#86847D;}
	.st29{fill:#1B7A9A;}
	.st30{fill:#B6B3A1;}
	.st31{fill:#B6B6B7;}
	.st32{fill:#B6C2CB;}
	.st33{fill:#1C4C51;}
	.st34{fill:#888888;}
	.st35{fill:#EB9682;}
	.st36{fill:#898579;}
	.st37{fill:#B8D4D8;}
	.st38{fill:#ECE17E;}
	.st39{fill:#B9972F;}
	.st40{fill:#B9A57C;}
	.st41{fill:#B9B9BA;}
	.st42{fill:#EDC92C;}
	.st43{fill:#EDEBE7;}
	.st44{fill:#525252;}
	.st45{opacity:0.15;fill:#FFFFFF;}
	.st46{fill:#565453;}
	.st47{fill:#575656;}
	.st48{fill-rule:evenodd;clip-rule:evenodd;fill:#4B4A4B;}
	.st49{clip-path:url(#SVGID_4_);fill:#AAAAAA;}
	.st50{fill:#BAE2DD;}
	.st51{fill:#BBBCBB;}
	.st52{fill:#BDB36D;}
	.st53{fill:#202121;}
	.st54{clip-path:url(#SVGID_2_);fill:#1B7A9A;}
	.st55{fill:#239563;}
	.st56{fill:#F37C2A;}
	.st57{fill:#255860;}
	.st58{fill:#F3EED5;}
	.st59{fill:#F4E028;}
	.st60{fill:#F4F4EE;}
	.st61{fill:#5ABE8F;}
	.st62{fill:#F6F2E4;}
	.st63{fill:#5C5853;}
	.st64{fill:#5C5C5C;}
	.st65{fill-rule:evenodd;clip-rule:evenodd;fill:#EB6C25;}
	.st66{fill:#2992AD;}
	.st67{fill:#5E5F5E;}
	.st68{fill:#F9F29A;}
	.st69{clip-path:url(#SVGID_2_);}
	.st70{clip-path:url(#SVGID_4_);}
	.st71{fill:#C0BFBC;}
	.st72{fill:#C0C0C0;}
	.st73{fill:#C1914F;}
	.st74{fill:#93793D;}
	.st75{fill:#C3C3C3;}
	.st76{fill:#C3D5C7;}
	.st77{fill:#C4A830;}
	.st78{clip-path:url(#SVGID_4_);fill:#1B7A9A;}
	.st79{fill:#C698C5;}
	.st80{fill:#972627;}
	.st81{fill:#C6C5C5;}
	.st82{fill:#C74A39;}
	.st83{fill:#C84027;}
	.st84{opacity:0.1;}
	.st85{fill:#616161;}
	.st86{fill:#FFCE00;}
	.st87{fill:#FFF5F4;}
	.st88{fill:#FFFFFF;}
	.st89{fill:#63BD6E;}
	.st90{fill-rule:evenodd;clip-rule:evenodd;fill:#F37C2A;}
	.st91{fill:none;}
	.st92{fill:#65A844;}
	.st93{fill:#667580;}
	.st94{fill:#CAE8E4;}
	.st95{fill:#9C9C9C;}
	.st96{fill:#CBBD7D;}
	.st97{fill:#CC4028;}
	.st98{fill:#CCC375;}
	.st99{fill:#CCC788;}
	.st100{fill:#9DDAEC;}
	.st101{fill:#CDAB2D;}
	.st102{fill:#CDCCCB;}
	.st103{fill:#CDCDCE;}
	.st104{fill:#CDE7D5;}
	.st105{fill:#9F77AA;}
	.st106{fill:#CECBCB;}
	.st107{fill:#357180;}
	.st108{fill:#6BA297;}
	.st109{fill:#6EC2CB;}
	.st110{fill:#D0D1D1;}
	.st111{fill:#D1974F;}
	.st112{fill:#D1AFD2;}
	.st113{fill:#D22027;}
	.st114{fill:#D2B63D;}
	.st115{fill:#D2D2D2;}
	.st116{fill:#D32033;}
	.st117{clip-path:url(#SVGID_2_);fill:#CDCDCE;}
	.st118{fill:#D51F31;}
	.st119{fill:#D5C7C3;}
	.st120{fill:#D5D6D5;}
	.st121{fill:#3B3A38;}
	.st122{fill:#3B6DA2;}
	.st123{fill:#D6CB78;}
	.st124{fill:#D73D3D;}
	.st125{fill:#D7B029;}
	.st126{fill:#D8D8D7;}
	.st127{fill:#A03D3D;}
	.st128{fill:#A09592;}
	.st129{fill:#717171;}
	.st130{fill:#A19F9F;}
	.st131{fill:#727172;}
	.st132{fill:#F9F29A;stroke:#E1C821;stroke-miterlimit:10;}
	.st133{fill:#A2D1C9;}
	.st134{fill:#A33B3B;}
	.st135{fill:#A48A47;}
	.st136{fill:#DAC425;}
	.st137{fill:#786547;}
	.st138{fill:#787878;}
	.st139{fill:#A7A8A7;}
	.st140{fill-rule:evenodd;clip-rule:evenodd;fill:#6DABB5;}
	.st141{fill:#DCD99D;}
	.st142{fill:#DD5231;}
	.st143{clip-path:url(#SVGID_4_);fill:#CDCDCE;}
	.st144{fill:#DDDACA;}
	.st145{fill:#DDDCD6;}
	.st146{fill:#DDDDDC;}
	.st147{fill:#404040;}
	.st148{fill:#DEBA24;}
	.st149{fill:#DFBFDB;}
	.st150{fill:#DFD48A;}
	.st151{fill:#DFDFDF;}
	.st152{fill:#444545;}
	.st153{fill:#45423F;}
]]>
</style>
<g>
	<g>
		<circle class="st92" cx="68.416" cy="68.417" r="63.333"/>
		<g>
			<path class="st30" d="M42.337,55.444c-1.174,0.91-3.078,0.91-4.252,0l0,0c-1.174-0.912-1.174-2.389,0-3.301l28.248-21.92
				c1.176-0.912,3.078-0.91,4.252,0l0,0c1.174,0.91,1.174,2.387,0,3.299L42.337,55.444z"/>
			<path class="st30" d="M98.833,52.144c1.174,0.91,1.174,2.389,0,3.299l0,0c-1.174,0.912-3.078,0.912-4.252,0l-28.246-21.92
				c-1.176-0.912-1.176-2.389,0-3.301l0,0c1.172-0.91,3.076-0.91,4.25,0L98.833,52.144z"/>
			<path class="st58" d="M114.499,79.818c0,5.256-4.26,9.516-9.518,9.516H32.015c-5.256,0-9.518-4.26-9.518-9.516V60.667
				c0-5.256,4.262-9.516,9.518-9.516h72.967c5.258,0,9.518,4.26,9.518,9.516V79.818z"/>
			<path class="st122" d="M110.999,77.666c0,4.855-3.936,8.793-8.793,8.793H34.792c-4.857,0-8.795-3.938-8.795-8.793v-14.5
				c0-4.855,3.938-8.791,8.795-8.791h67.414c4.857,0,8.793,3.936,8.793,8.791V77.666z"/>
			<g>
				<path class="st58" d="M43.933,60.997c1.781,0,3.311,0.361,4.588,1.084s2.244,1.75,2.9,3.082s0.984,2.896,0.984,4.693
					c0,1.328-0.18,2.535-0.539,3.621s-0.898,2.027-1.617,2.824c-0.719,0.797-1.602,1.407-2.648,1.829s-2.246,0.633-3.598,0.633
					c-1.344,0-2.547-0.217-3.609-0.65s-1.949-1.045-2.66-1.834c-0.711-0.789-1.248-1.738-1.611-2.848s-0.545-2.309-0.545-3.598
					c0-1.32,0.189-2.531,0.568-3.633s0.928-2.039,1.646-2.813s1.594-1.365,2.625-1.775S42.62,60.997,43.933,60.997z M48.878,69.833
					c0-1.258-0.203-2.348-0.609-3.27s-0.986-1.619-1.74-2.092s-1.619-0.709-2.596-0.709c-0.695,0-1.338,0.131-1.928,0.393
					s-1.098,0.643-1.523,1.143s-0.762,1.139-1.008,1.916s-0.369,1.65-0.369,2.619c0,0.977,0.123,1.859,0.369,2.648
					s0.594,1.443,1.043,1.963s0.965,0.908,1.547,1.166s1.221,0.387,1.916,0.387c0.891,0,1.709-0.223,2.455-0.668
					s1.34-1.133,1.781-2.063S48.878,71.192,48.878,69.833z"/>
				<path class="st58" d="M62.05,71.778h-3.188v4.864c0,0.695-0.164,1.223-0.492,1.582s-0.742,0.539-1.242,0.539
					c-0.523,0-0.945-0.178-1.266-0.533s-0.48-0.877-0.48-1.564V63.423c0-0.766,0.176-1.313,0.527-1.641s0.91-0.492,1.676-0.492
					h4.465c1.32,0,2.336,0.102,3.047,0.305c0.703,0.195,1.311,0.52,1.822,0.973s0.9,1.008,1.166,1.664s0.398,1.395,0.398,2.215
					c0,1.75-0.539,3.076-1.617,3.979S64.183,71.778,62.05,71.778z M61.206,63.903h-2.344v5.25h2.344c0.82,0,1.506-0.086,2.057-0.258
					s0.971-0.453,1.26-0.844s0.434-0.902,0.434-1.535c0-0.758-0.223-1.375-0.668-1.852C63.788,64.157,62.761,63.903,61.206,63.903z"
					/>
				<path class="st58" d="M82.71,63.974h-7.84v4.219h7.219c0.531,0,0.928,0.119,1.189,0.357s0.393,0.553,0.393,0.943
					s-0.129,0.709-0.387,0.955s-0.656,0.369-1.195,0.369H74.87v4.887h8.109c0.547,0,0.959,0.127,1.236,0.381
					s0.416,0.592,0.416,1.014c0,0.406-0.139,0.736-0.416,0.99s-0.689,0.381-1.236,0.381h-9.457c-0.758,0-1.303-0.168-1.635-0.504
					s-0.498-0.879-0.498-1.629V63.423c0-0.5,0.074-0.908,0.223-1.225s0.381-0.547,0.697-0.691s0.721-0.217,1.213-0.217h9.188
					c0.555,0,0.967,0.123,1.236,0.369s0.404,0.568,0.404,0.967c0,0.406-0.135,0.732-0.404,0.979S83.265,63.974,82.71,63.974z"/>
				<path class="st58" d="M91.933,63.083l6.691,10.125V62.989c0-0.664,0.143-1.162,0.428-1.494s0.67-0.498,1.154-0.498
					c0.5,0,0.895,0.166,1.184,0.498s0.434,0.83,0.434,1.494v13.512c0,1.508-0.625,2.262-1.875,2.262
					c-0.313,0-0.594-0.045-0.844-0.135s-0.484-0.232-0.703-0.428s-0.422-0.424-0.609-0.686s-0.375-0.529-0.563-0.803l-6.527-10.008
					v10.067c0,0.656-0.152,1.152-0.457,1.488s-0.695,0.504-1.172,0.504c-0.492,0-0.887-0.17-1.184-0.51s-0.445-0.834-0.445-1.482
					V63.517c0-0.563,0.063-1.004,0.188-1.324c0.148-0.352,0.395-0.639,0.738-0.861s0.715-0.334,1.113-0.334
					c0.313,0,0.58,0.051,0.803,0.152s0.418,0.238,0.586,0.41s0.34,0.395,0.516,0.668S91.745,62.786,91.933,63.083z"/>
			</g>
			<circle class="st36" cx="68.665" cy="33.167" r="5.166"/>
			<path class="st45" d="M110.999,77.666c0,4.855-3.936,8.793-8.793,8.793H34.792c-4.857,0-8.795-3.938-8.795-8.793v-7.5
				l85.002-0.25V77.666z"/>
		</g>
	</g>
</g>
</svg>
