<?xml version="1.0" encoding="utf-8"?>
<!-- Generator: Adobe Illustrator 16.0.0, SVG Export Plug-In . SVG Version: 6.00 Build 0)  -->
<!DOCTYPE svg PUBLIC "-//W3C//DTD SVG 1.1//EN" "http://www.w3.org/Graphics/SVG/1.1/DTD/svg11.dtd">
<svg version="1.1" id="Layer_1" xmlns="http://www.w3.org/2000/svg" xmlns:xlink="http://www.w3.org/1999/xlink" x="0px" y="0px"
	 width="136.833px" height="136.833px" viewBox="0 0 136.833 136.833" style="enable-background:new 0 0 136.833 136.833;"
	 xml:space="preserve">
<style type="text/css">
<![CDATA[
	.st0{fill:#AAA79B;}
	.st1{fill:#AAAAAA;}
	.st2{fill:#49A0AE;}
	.st3{fill:#AD9030;}
	.st4{fill:#AE7B3E;}
	.st5{fill:#117F4A;}
	.st6{fill:#E03740;}
	.st7{opacity:0.15;fill:#F0EFED;}
	.st8{fill:#E13B3B;}
	.st9{fill:#E1C821;}
	.st10{fill:#E1DEDB;}
	.st11{fill:#E2C448;}
	.st12{fill:#E34F50;}
	.st13{fill:#4ABC96;}
	.st14{fill:#E5E5E5;}
	.st15{fill:#E7E7E7;}
	.st16{fill:#E84849;}
	.st17{fill:#E8E4AA;}
	.st18{fill:#E9C11E;}
	.st19{fill:#E9E9EA;}
	.st20{fill:#B19353;}
	.st21{clip-path:url(#SVGID_2_);fill:#AAAAAA;}
	.st22{fill:#B29C76;}
	.st23{fill:#838383;}
	.st24{fill:#B2B0A6;}
	.st25{fill:#B2B2B2;}
	.st26{fill:#B4B4B5;}
	.st27{fill:#867257;}
	.st28{fill:#86847D;}
	.st29{fill:#1B7A9A;}
	.st30{fill:#B6B3A1;}
	.st31{fill:#B6B6B7;}
	.st32{fill:#B6C2CB;}
	.st33{fill:#1C4C51;}
	.st34{fill:#888888;}
	.st35{fill:#EB9682;}
	.st36{fill:#898579;}
	.st37{fill:#B8D4D8;}
	.st38{fill:#ECE17E;}
	.st39{fill:#B9972F;}
	.st40{fill:#B9A57C;}
	.st41{fill:#B9B9BA;}
	.st42{fill:#EDC92C;}
	.st43{fill:#EDEBE7;}
	.st44{fill:#525252;}
	.st45{opacity:0.15;fill:#FFFFFF;}
	.st46{fill:#565453;}
	.st47{fill:#575656;}
	.st48{fill-rule:evenodd;clip-rule:evenodd;fill:#4B4A4B;}
	.st49{clip-path:url(#SVGID_4_);fill:#AAAAAA;}
	.st50{fill:#BAE2DD;}
	.st51{fill:#BBBCBB;}
	.st52{fill:#BDB36D;}
	.st53{fill:#202121;}
	.st54{clip-path:url(#SVGID_2_);fill:#1B7A9A;}
	.st55{fill:#239563;}
	.st56{fill:#F37C2A;}
	.st57{fill:#255860;}
	.st58{fill:#F3EED5;}
	.st59{fill:#F4E028;}
	.st60{fill:#F4F4EE;}
	.st61{fill:#5ABE8F;}
	.st62{fill:#F6F2E4;}
	.st63{fill:#5C5853;}
	.st64{fill:#5C5C5C;}
	.st65{fill-rule:evenodd;clip-rule:evenodd;fill:#EB6C25;}
	.st66{fill:#2992AD;}
	.st67{fill:#5E5F5E;}
	.st68{fill:#F9F29A;}
	.st69{clip-path:url(#SVGID_2_);}
	.st70{clip-path:url(#SVGID_4_);}
	.st71{fill:#C0BFBC;}
	.st72{fill:#C0C0C0;}
	.st73{fill:#C1914F;}
	.st74{fill:#93793D;}
	.st75{fill:#C3C3C3;}
	.st76{fill:#C3D5C7;}
	.st77{fill:#C4A830;}
	.st78{clip-path:url(#SVGID_4_);fill:#1B7A9A;}
	.st79{fill:#C698C5;}
	.st80{fill:#972627;}
	.st81{fill:#C6C5C5;}
	.st82{fill:#C74A39;}
	.st83{fill:#C84027;}
	.st84{opacity:0.1;}
	.st85{fill:#616161;}
	.st86{fill:#FFCE00;}
	.st87{fill:#FFF5F4;}
	.st88{fill:#FFFFFF;}
	.st89{fill:#63BD6E;}
	.st90{fill-rule:evenodd;clip-rule:evenodd;fill:#F37C2A;}
	.st91{fill:none;}
	.st92{fill:#65A844;}
	.st93{fill:#667580;}
	.st94{fill:#CAE8E4;}
	.st95{fill:#9C9C9C;}
	.st96{fill:#CBBD7D;}
	.st97{fill:#CC4028;}
	.st98{fill:#CCC375;}
	.st99{fill:#CCC788;}
	.st100{fill:#9DDAEC;}
	.st101{fill:#CDAB2D;}
	.st102{fill:#CDCCCB;}
	.st103{fill:#CDCDCE;}
	.st104{fill:#CDE7D5;}
	.st105{fill:#9F77AA;}
	.st106{fill:#CECBCB;}
	.st107{fill:#357180;}
	.st108{fill:#6BA297;}
	.st109{fill:#6EC2CB;}
	.st110{fill:#D0D1D1;}
	.st111{fill:#D1974F;}
	.st112{fill:#D1AFD2;}
	.st113{fill:#D22027;}
	.st114{fill:#D2B63D;}
	.st115{fill:#D2D2D2;}
	.st116{fill:#D32033;}
	.st117{clip-path:url(#SVGID_2_);fill:#CDCDCE;}
	.st118{fill:#D51F31;}
	.st119{fill:#D5C7C3;}
	.st120{fill:#D5D6D5;}
	.st121{fill:#3B3A38;}
	.st122{fill:#3B6DA2;}
	.st123{fill:#D6CB78;}
	.st124{fill:#D73D3D;}
	.st125{fill:#D7B029;}
	.st126{fill:#D8D8D7;}
	.st127{fill:#A03D3D;}
	.st128{fill:#A09592;}
	.st129{fill:#717171;}
	.st130{fill:#A19F9F;}
	.st131{fill:#727172;}
	.st132{fill:#F9F29A;stroke:#E1C821;stroke-miterlimit:10;}
	.st133{fill:#A2D1C9;}
	.st134{fill:#A33B3B;}
	.st135{fill:#A48A47;}
	.st136{fill:#DAC425;}
	.st137{fill:#786547;}
	.st138{fill:#787878;}
	.st139{fill:#A7A8A7;}
	.st140{fill-rule:evenodd;clip-rule:evenodd;fill:#6DABB5;}
	.st141{fill:#DCD99D;}
	.st142{fill:#DD5231;}
	.st143{clip-path:url(#SVGID_4_);fill:#CDCDCE;}
	.st144{fill:#DDDACA;}
	.st145{fill:#DDDCD6;}
	.st146{fill:#DDDDDC;}
	.st147{fill:#404040;}
	.st148{fill:#DEBA24;}
	.st149{fill:#DFBFDB;}
	.st150{fill:#DFD48A;}
	.st151{fill:#DFDFDF;}
	.st152{fill:#444545;}
	.st153{fill:#45423F;}
]]>
</style>
<g>
	<g>
		<circle class="st112" cx="68.416" cy="68.417" r="63.333"/>
		<g>
			<path class="st96" d="M69.276,17.517c2.465,0,4.463,1.744,4.463,3.9v21.676c0,2.152-1.998,3.898-4.463,3.898l0,0
				c-2.467,0-4.465-1.746-4.465-3.898V21.417C64.812,19.261,66.81,17.517,69.276,17.517L69.276,17.517z"/>
			<g>
				<path class="st39" d="M68.685,27.328c-3.236,0-23.281,18.5-23.281,25.145v49.117c0,6.643,3.789,10.025,10.432,10.025h26.063
					c6.643,0,10.025-3.383,10.025-10.025V52.472C91.923,45.828,71.921,27.328,68.685,27.328z M69.536,50.466
					c-2.584,0-4.678-2.094-4.678-4.678s2.094-4.678,4.678-4.678s4.678,2.094,4.678,4.678S72.12,50.466,69.536,50.466z"/>
			</g>
			<g>
				<path class="st148" d="M67.788,28.062c-2.584,0-22.506,17.977-22.506,24.461v47.945c0,6.482,3.301,9.785,9.783,9.785h25.441
					c6.484,0,9.785-3.303,9.785-9.785V52.523C90.292,46.039,70.37,28.062,67.788,28.062z M68.44,50.566
					c-2.521,0-4.568-2.043-4.568-4.564c0-2.523,2.047-4.568,4.568-4.568s4.564,2.045,4.564,4.568
					C73.005,48.523,70.962,50.566,68.44,50.566z"/>
			</g>
			<g>
				<path class="st125" d="M45.282,100.468c0,6.482,3.301,9.785,9.783,9.785h25.441c6.484,0,9.785-3.303,9.785-9.785V52.523
					L45.282,100.468z M68.44,50.566c-2.521,0-4.568-2.043-4.568-4.564c0-2.523,2.047-4.568,4.568-4.568s4.564,2.045,4.564,4.568
					C73.005,48.523,70.962,50.566,68.44,50.566z"/>
			</g>
			<path class="st88" d="M53.792,64.488c0-3.414,2.568-6.184,5.732-6.184h18.867c3.166,0,5.732,2.77,5.732,6.184v34.525
				c0,3.416-2.566,6.184-5.732,6.184H59.524c-3.164,0-5.732-2.768-5.732-6.184V64.488z"/>
			<path class="st81" d="M59.21,62.013c-1.006,0-1.818,0.814-1.818,1.818v35.504c0,1.002,0.813,1.816,1.818,1.816
				c1.002,0,1.816-0.814,1.816-1.816V63.832C61.026,62.828,60.212,62.013,59.21,62.013z"/>
			<path class="st81" d="M67.038,62.013c-1.006,0-1.818,0.814-1.818,1.818v35.504c0,1.002,0.813,1.816,1.818,1.816
				c1.002,0,1.814-0.814,1.814-1.816V63.832C68.853,62.828,68.04,62.013,67.038,62.013z"/>
			<path class="st81" d="M74.864,62.013c-1.004,0-1.816,0.814-1.816,1.818v35.504c0,1.002,0.813,1.816,1.816,1.816
				s1.816-0.814,1.816-1.816V63.832C76.681,62.828,75.868,62.013,74.864,62.013z"/>
			<path class="st150" d="M70.192,17.517c2.162,0,3.914,1.752,3.914,3.914v21.77c0,2.162-1.752,3.914-3.914,3.914l0,0
				c-2.16,0-3.914-1.752-3.914-3.914v-21.77C66.278,19.269,68.032,17.517,70.192,17.517L70.192,17.517z"/>
		</g>
	</g>
</g>
</svg>
