<?xml version="1.0" encoding="utf-8"?>
<!-- Generator: Adobe Illustrator 16.0.0, SVG Export Plug-In . SVG Version: 6.00 Build 0)  -->
<!DOCTYPE svg PUBLIC "-//W3C//DTD SVG 1.1//EN" "http://www.w3.org/Graphics/SVG/1.1/DTD/svg11.dtd">
<svg version="1.1" id="Layer_1" xmlns="http://www.w3.org/2000/svg" xmlns:xlink="http://www.w3.org/1999/xlink" x="0px" y="0px"
	 width="136.833px" height="136.834px" viewBox="0 0 136.833 136.834" style="enable-background:new 0 0 136.833 136.834;"
	 xml:space="preserve">
<style type="text/css">
<![CDATA[
	.st0{fill:#AAA79B;}
	.st1{fill:#AAAAAA;}
	.st2{fill:#49A0AE;}
	.st3{fill:#AD9030;}
	.st4{fill:#AE7B3E;}
	.st5{fill:#117F4A;}
	.st6{fill:#E03740;}
	.st7{opacity:0.15;fill:#F0EFED;}
	.st8{fill:#E13B3B;}
	.st9{fill:#E1C821;}
	.st10{fill:#E1DEDB;}
	.st11{fill:#E2C448;}
	.st12{fill:#E34F50;}
	.st13{fill:#4ABC96;}
	.st14{fill:#E5E5E5;}
	.st15{fill:#E7E7E7;}
	.st16{fill:#E84849;}
	.st17{fill:#E8E4AA;}
	.st18{fill:#E9C11E;}
	.st19{fill:#E9E9EA;}
	.st20{fill:#B19353;}
	.st21{clip-path:url(#SVGID_2_);fill:#AAAAAA;}
	.st22{fill:#B29C76;}
	.st23{fill:#838383;}
	.st24{fill:#B2B0A6;}
	.st25{fill:#B2B2B2;}
	.st26{fill:#B4B4B5;}
	.st27{fill:#867257;}
	.st28{fill:#86847D;}
	.st29{fill:#1B7A9A;}
	.st30{fill:#B6B3A1;}
	.st31{fill:#B6B6B7;}
	.st32{fill:#B6C2CB;}
	.st33{fill:#1C4C51;}
	.st34{fill:#888888;}
	.st35{fill:#EB9682;}
	.st36{fill:#898579;}
	.st37{fill:#B8D4D8;}
	.st38{fill:#ECE17E;}
	.st39{fill:#B9972F;}
	.st40{fill:#B9A57C;}
	.st41{fill:#B9B9BA;}
	.st42{fill:#EDC92C;}
	.st43{fill:#EDEBE7;}
	.st44{fill:#525252;}
	.st45{opacity:0.15;fill:#FFFFFF;}
	.st46{fill:#565453;}
	.st47{fill:#575656;}
	.st48{fill-rule:evenodd;clip-rule:evenodd;fill:#4B4A4B;}
	.st49{clip-path:url(#SVGID_4_);fill:#AAAAAA;}
	.st50{fill:#BAE2DD;}
	.st51{fill:#BBBCBB;}
	.st52{fill:#BDB36D;}
	.st53{fill:#202121;}
	.st54{clip-path:url(#SVGID_2_);fill:#1B7A9A;}
	.st55{fill:#239563;}
	.st56{fill:#F37C2A;}
	.st57{fill:#255860;}
	.st58{fill:#F3EED5;}
	.st59{fill:#F4E028;}
	.st60{fill:#F4F4EE;}
	.st61{fill:#5ABE8F;}
	.st62{fill:#F6F2E4;}
	.st63{fill:#5C5853;}
	.st64{fill:#5C5C5C;}
	.st65{fill-rule:evenodd;clip-rule:evenodd;fill:#EB6C25;}
	.st66{fill:#2992AD;}
	.st67{fill:#5E5F5E;}
	.st68{fill:#F9F29A;}
	.st69{clip-path:url(#SVGID_2_);}
	.st70{clip-path:url(#SVGID_4_);}
	.st71{fill:#C0BFBC;}
	.st72{fill:#C0C0C0;}
	.st73{fill:#C1914F;}
	.st74{fill:#93793D;}
	.st75{fill:#C3C3C3;}
	.st76{fill:#C3D5C7;}
	.st77{fill:#C4A830;}
	.st78{clip-path:url(#SVGID_4_);fill:#1B7A9A;}
	.st79{fill:#C698C5;}
	.st80{fill:#972627;}
	.st81{fill:#C6C5C5;}
	.st82{fill:#C74A39;}
	.st83{fill:#C84027;}
	.st84{opacity:0.1;}
	.st85{fill:#616161;}
	.st86{fill:#FFCE00;}
	.st87{fill:#FFF5F4;}
	.st88{fill:#FFFFFF;}
	.st89{fill:#63BD6E;}
	.st90{fill-rule:evenodd;clip-rule:evenodd;fill:#F37C2A;}
	.st91{fill:none;}
	.st92{fill:#65A844;}
	.st93{fill:#667580;}
	.st94{fill:#CAE8E4;}
	.st95{fill:#9C9C9C;}
	.st96{fill:#CBBD7D;}
	.st97{fill:#CC4028;}
	.st98{fill:#CCC375;}
	.st99{fill:#CCC788;}
	.st100{fill:#9DDAEC;}
	.st101{fill:#CDAB2D;}
	.st102{fill:#CDCCCB;}
	.st103{fill:#CDCDCE;}
	.st104{fill:#CDE7D5;}
	.st105{fill:#9F77AA;}
	.st106{fill:#CECBCB;}
	.st107{fill:#357180;}
	.st108{fill:#6BA297;}
	.st109{fill:#6EC2CB;}
	.st110{fill:#D0D1D1;}
	.st111{fill:#D1974F;}
	.st112{fill:#D1AFD2;}
	.st113{fill:#D22027;}
	.st114{fill:#D2B63D;}
	.st115{fill:#D2D2D2;}
	.st116{fill:#D32033;}
	.st117{clip-path:url(#SVGID_2_);fill:#CDCDCE;}
	.st118{fill:#D51F31;}
	.st119{fill:#D5C7C3;}
	.st120{fill:#D5D6D5;}
	.st121{fill:#3B3A38;}
	.st122{fill:#3B6DA2;}
	.st123{fill:#D6CB78;}
	.st124{fill:#D73D3D;}
	.st125{fill:#D7B029;}
	.st126{fill:#D8D8D7;}
	.st127{fill:#A03D3D;}
	.st128{fill:#A09592;}
	.st129{fill:#717171;}
	.st130{fill:#A19F9F;}
	.st131{fill:#727172;}
	.st132{fill:#F9F29A;stroke:#E1C821;stroke-miterlimit:10;}
	.st133{fill:#A2D1C9;}
	.st134{fill:#A33B3B;}
	.st135{fill:#A48A47;}
	.st136{fill:#DAC425;}
	.st137{fill:#786547;}
	.st138{fill:#787878;}
	.st139{fill:#A7A8A7;}
	.st140{fill-rule:evenodd;clip-rule:evenodd;fill:#6DABB5;}
	.st141{fill:#DCD99D;}
	.st142{fill:#DD5231;}
	.st143{clip-path:url(#SVGID_4_);fill:#CDCDCE;}
	.st144{fill:#DDDACA;}
	.st145{fill:#DDDCD6;}
	.st146{fill:#DDDDDC;}
	.st147{fill:#404040;}
	.st148{fill:#DEBA24;}
	.st149{fill:#DFBFDB;}
	.st150{fill:#DFD48A;}
	.st151{fill:#DFDFDF;}
	.st152{fill:#444545;}
	.st153{fill:#45423F;}
]]>
</style>
<g>
	<g>
		<circle class="st105" cx="68.417" cy="68.417" r="63.333"/>
		<g>
			<g>
				<g>
					<path class="st105" d="M116.296,56.458c-7.403,1.371-16.617,3.08-31.706,0.396c-3.732-0.663-7.642,0.734-11.421,2.087
						c-1.697,0.607-3.453,1.236-5.188,1.679l-1.626,0.414c-14.781,3.753-30.064,7.634-39.319,24.291
						c-3.174,5.713-6.573,8.605-10.105,8.605c-0.071,0-0.142,0-0.213-0.002c-4.906-0.161-8.195-5.858-8.982-7.368
						c7.803,26.133,32.011,45.19,60.682,45.19c34.978,0,63.333-28.355,63.333-63.333c0-4.415-0.455-8.723-1.314-12.883
						C125.604,54.735,121.418,55.509,116.296,56.458z"/>
				</g>
				<g>
					<path class="st105" d="M131.356,61.418c0.11,0.98,0.188,1.97,0.252,2.963C131.545,63.387,131.464,62.398,131.356,61.418z"/>
					<path class="st105" d="M131.65,64.939c0.064,1.151,0.099,2.31,0.099,3.477C131.75,67.25,131.713,66.091,131.65,64.939z"/>
					<path class="st105" d="M130.865,57.903c0.178,1.055,0.325,2.121,0.45,3.193C131.192,60.023,131.042,58.959,130.865,57.903z"/>
					<path class="st105" d="M62.386,131.457c-0.283-0.027-0.565-0.055-0.848-0.085C61.82,131.402,62.103,131.43,62.386,131.457z"/>
					<path class="st105" d="M59.001,131.049c-0.104-0.015-0.208-0.028-0.311-0.043C58.794,131.021,58.898,131.034,59.001,131.049z"
						/>
					<path class="st105" d="M130.853,57.836c-0.129-0.771-0.26-1.541-0.417-2.302c-0.012-0.002-0.024-0.002-0.037-0.005
						C130.558,56.295,130.721,57.06,130.853,57.836z"/>
					<path class="st105" d="M65.431,131.674c-0.293-0.013-0.584-0.035-0.876-0.053C64.847,131.639,65.138,131.661,65.431,131.674z"
						/>
					<path class="st149" d="M130.436,55.534L130.436,55.534c-0.073-0.352-0.16-0.698-0.242-1.047c0,0.001,0,0.002,0.001,0.004
						C130.273,54.839,130.363,55.183,130.436,55.534z"/>
					<path class="st149" d="M130.194,54.486c-0.081-0.347-0.157-0.696-0.241-1.043l0,0C130.037,53.79,130.116,54.138,130.194,54.486
						L130.194,54.486z"/>
					<path class="st149" d="M130.399,55.529c0.012,0.002,0.024,0.003,0.037,0.005c-0.073-0.351-0.163-0.695-0.241-1.043
						C130.271,54.833,130.328,55.184,130.399,55.529z"/>
					<path class="st149" d="M115.931,54.492c-7.244,1.343-16.261,3.014-30.991,0.394c-4.259-0.761-8.42,0.731-12.445,2.173
						c-1.73,0.619-3.364,1.204-5.008,1.624l-1.625,0.413c-15.192,3.857-30.901,7.847-40.575,25.258
						c-2.843,5.115-5.693,7.65-8.501,7.574c-3.282-0.104-6.973-3.37-8.568-4.958c2.286,3.463,9.781,12.557,17.943-2.131
						c9.804-17.644,25.943-21.199,41.572-25.187c5.594-1.428,11.306-4.801,17.031-3.781c24.877,4.425,33.325-3.178,45.429-1.383
						c-0.078-0.349-0.157-0.697-0.241-1.043C125.092,52.797,120.785,53.591,115.931,54.492z"/>
					<polygon class="st79" points="130.194,54.486 130.194,54.486 130.194,54.487 					"/>
					<path class="st79" d="M130.853,57.836c0.004,0.022,0.008,0.045,0.012,0.067C130.861,57.881,130.856,57.858,130.853,57.836z"/>
					<path class="st79" d="M61.538,131.372c-0.85-0.092-1.697-0.197-2.537-0.323C59.842,131.173,60.688,131.281,61.538,131.372z"/>
					<path class="st79" d="M64.555,131.622c-0.727-0.043-1.45-0.097-2.169-0.165C63.106,131.524,63.829,131.578,64.555,131.622z"/>
					<path class="st79" d="M68.417,131.75c-1.001,0-1.996-0.029-2.985-0.076C66.422,131.72,67.417,131.75,68.417,131.75z"/>
					<path class="st79" d="M131.315,61.096c0.013,0.107,0.029,0.214,0.041,0.322C131.344,61.31,131.328,61.204,131.315,61.096z"/>
					<path class="st79" d="M131.608,64.381c0.012,0.187,0.032,0.371,0.042,0.559C131.64,64.752,131.62,64.567,131.608,64.381z"/>
					<path class="st79" d="M131.65,64.939c-0.01-0.188-0.031-0.372-0.042-0.559c-0.064-0.993-0.142-1.983-0.252-2.963
						c-0.012-0.108-0.028-0.214-0.041-0.322c-0.125-1.072-0.272-2.138-0.45-3.193c-0.004-0.022-0.008-0.045-0.012-0.067
						c-0.131-0.776-0.294-1.541-0.454-2.307c-4.816-0.788-8.994-0.018-14.103,0.93c-7.403,1.371-16.617,3.08-31.706,0.396
						c-3.732-0.663-7.642,0.734-11.421,2.087c-1.697,0.607-3.453,1.236-5.188,1.679l-1.626,0.414
						c-14.781,3.753-30.064,7.634-39.319,24.291c-3.174,5.713-6.573,8.605-10.105,8.605c-0.071,0-0.142,0-0.213-0.002
						c-2.694-0.088-5.484-1.614-7.587-3.22c7.92,21.054,26.724,36.778,49.561,40.298c0.104,0.016,0.208,0.028,0.311,0.043
						c0.84,0.125,1.687,0.23,2.537,0.323c0.282,0.03,0.565,0.058,0.848,0.085c0.719,0.068,1.443,0.121,2.169,0.165
						c0.292,0.018,0.583,0.04,0.876,0.053c0.99,0.046,1.984,0.076,2.985,0.076c34.978,0,63.333-28.355,63.333-63.333
						C131.75,67.249,131.714,66.09,131.65,64.939z"/>
					<path class="st79" d="M8.218,86.969c-0.37-0.562-0.608-0.979-0.685-1.119c0.056,0.196,0.109,0.392,0.167,0.587
						C7.832,86.578,8.006,86.757,8.218,86.969z"/>
					<rect x="130.192" y="54.488" class="st79" width="0.004" height="0"/>
					<path class="st79" d="M130.194,54.486c-12.104-1.795-20.552,5.809-45.429,1.383c-5.726-1.02-11.438,2.354-17.031,3.781
						c-15.629,3.988-31.769,7.543-41.572,25.187C18,99.526,10.504,90.433,8.218,86.969c-0.212-0.212-0.386-0.391-0.518-0.532
						c0.428,1.445,0.903,2.87,1.429,4.27c2.103,1.606,4.894,3.132,7.587,3.22c0.071,0.002,0.142,0.002,0.213,0.002
						c3.533,0,6.932-2.893,10.105-8.605c9.254-16.657,24.538-20.538,39.319-24.291l1.626-0.414c1.735-0.442,3.491-1.071,5.188-1.679
						c3.779-1.353,7.688-2.75,11.421-2.087c15.089,2.685,24.303,0.976,31.706-0.396c5.109-0.947,9.287-1.718,14.103-0.93
						c-0.071-0.345-0.127-0.695-0.204-1.038C130.194,54.489,130.194,54.488,130.194,54.486z"/>
				</g>
				<g>
					<g>
						<path class="st136" d="M105.655,98.869c0,8.324-14.369,15.074-32.095,15.074c-17.725,0-32.094-6.75-32.094-15.074
							c0-8.326-3.209-15.076,32.094-15.076C109.302,83.793,105.655,90.543,105.655,98.869z"/>
						<ellipse class="st59" cx="73.561" cy="92.838" rx="32.094" ry="15.076"/>
						<path class="st68" d="M58.778,106.26c0,0,6.224,1.557,12.643,1.654l0.098,6.029c0,0-7.586,0.193-12.692-1.703L58.778,106.26z"
							/>
					</g>
					<g>
						<path class="st136" d="M104.488,88.738c0,8.324-14.37,15.074-32.095,15.074c-17.726,0-32.094-6.75-32.094-15.074
							c0-8.326-3.209-15.076,32.094-15.076C108.134,73.663,104.488,80.412,104.488,88.738z"/>
						<ellipse class="st59" cx="72.394" cy="82.707" rx="32.094" ry="15.076"/>
						<path class="st68" d="M57.61,96.129c0,0,6.226,1.555,12.645,1.654l0.097,6.029c0,0-7.586,0.195-12.692-1.701L57.61,96.129z"/>
					</g>
					<g>
						<path class="st136" d="M105.655,79.648c0,8.326-14.369,15.074-32.095,15.074c-17.725,0-32.094-6.748-32.094-15.074
							c0-8.324-3.209-15.074,32.094-15.074C109.302,64.575,105.655,71.325,105.655,79.648z"/>
						<ellipse class="st59" cx="73.561" cy="73.62" rx="32.094" ry="15.074"/>
						<path class="st68" d="M58.778,87.041c0,0,6.224,1.557,12.643,1.652l0.098,6.029c0,0-7.586,0.195-12.692-1.701L58.778,87.041z"
							/>
					</g>
					<g>
						<path class="st136" d="M104.488,70.561c0,8.326-14.37,15.076-32.095,15.076c-17.726,0-32.094-6.75-32.094-15.076
							c0-8.324-3.209-15.074,32.094-15.074C108.134,55.487,104.488,62.237,104.488,70.561z"/>
						<ellipse class="st59" cx="72.394" cy="64.532" rx="32.094" ry="15.076"/>
						<path class="st68" d="M57.61,77.953c0,0,6.226,1.555,12.645,1.654l0.097,6.029c0,0-7.586,0.193-12.692-1.703L57.61,77.953z"/>
					</g>
					<g>
						<path class="st136" d="M103.32,61.475c0,8.324-14.368,15.072-32.093,15.072c-17.727,0-32.096-6.748-32.096-15.072
							c0-8.326-3.209-15.076,32.096-15.076C106.967,46.399,103.32,53.149,103.32,61.475z"/>
						<ellipse class="st59" cx="71.226" cy="55.444" rx="32.094" ry="15.074"/>
						<path class="st68" d="M56.443,68.865c0,0,6.225,1.556,12.644,1.653l0.097,6.029c0,0-7.585,0.195-12.69-1.701L56.443,68.865z"
							/>
					</g>
					<g>
						<path class="st136" d="M104.488,52.385c0,8.325-14.37,15.075-32.095,15.075c-17.726,0-32.094-6.75-32.094-15.075
							c0-8.324-3.209-15.074,32.094-15.074C108.134,37.311,104.488,44.061,104.488,52.385z"/>
						<ellipse class="st59" cx="72.394" cy="46.356" rx="32.094" ry="15.074"/>
						<ellipse class="st132" cx="72.394" cy="45.674" rx="26.88" ry="12.629"/>
						<path class="st68" d="M57.61,59.777c0,0,6.226,1.558,12.645,1.653l0.097,6.03c0,0-7.586,0.194-12.692-1.702L57.61,59.777z"/>
					</g>
				</g>
				<circle class="st149" cx="26.162" cy="84.838" r="3.028"/>
				<circle class="st149" cx="14.979" cy="91.826" r="3.029"/>
				<circle class="st149" cx="35.013" cy="73.657" r="3.028"/>
				<circle class="st149" cx="108.161" cy="56.418" r="3.028"/>
				<circle class="st149" cx="124.002" cy="54.554" r="3.029"/>
			</g>
		</g>
	</g>
</g>
</svg>
