<?xml version="1.0" encoding="utf-8"?>
<!-- Generator: Adobe Illustrator 16.0.0, SVG Export Plug-In . SVG Version: 6.00 Build 0)  -->
<!DOCTYPE svg PUBLIC "-//W3C//DTD SVG 1.1//EN" "http://www.w3.org/Graphics/SVG/1.1/DTD/svg11.dtd">
<svg version="1.1" id="Layer_1" xmlns="http://www.w3.org/2000/svg" xmlns:xlink="http://www.w3.org/1999/xlink" x="0px" y="0px"
	 width="136.833px" height="136.834px" viewBox="0 0 136.833 136.834" style="enable-background:new 0 0 136.833 136.834;"
	 xml:space="preserve">
<style type="text/css">
<![CDATA[
	.st0{fill:#AAA79B;}
	.st1{fill:#AAAAAA;}
	.st2{fill:#49A0AE;}
	.st3{fill:#AD9030;}
	.st4{fill:#AE7B3E;}
	.st5{fill:#117F4A;}
	.st6{fill:#E03740;}
	.st7{opacity:0.15;fill:#F0EFED;}
	.st8{fill:#E13B3B;}
	.st9{fill:#E1C821;}
	.st10{fill:#E1DEDB;}
	.st11{fill:#E2C448;}
	.st12{fill:#E34F50;}
	.st13{fill:#4ABC96;}
	.st14{fill:#E5E5E5;}
	.st15{fill:#E7E7E7;}
	.st16{fill:#E84849;}
	.st17{fill:#E8E4AA;}
	.st18{fill:#E9C11E;}
	.st19{fill:#E9E9EA;}
	.st20{fill:#B19353;}
	.st21{clip-path:url(#SVGID_2_);fill:#AAAAAA;}
	.st22{fill:#B29C76;}
	.st23{fill:#838383;}
	.st24{fill:#B2B0A6;}
	.st25{fill:#B2B2B2;}
	.st26{fill:#B4B4B5;}
	.st27{fill:#867257;}
	.st28{fill:#86847D;}
	.st29{fill:#1B7A9A;}
	.st30{fill:#B6B3A1;}
	.st31{fill:#B6B6B7;}
	.st32{fill:#B6C2CB;}
	.st33{fill:#1C4C51;}
	.st34{fill:#888888;}
	.st35{fill:#EB9682;}
	.st36{fill:#898579;}
	.st37{fill:#B8D4D8;}
	.st38{fill:#ECE17E;}
	.st39{fill:#B9972F;}
	.st40{fill:#B9A57C;}
	.st41{fill:#B9B9BA;}
	.st42{fill:#EDC92C;}
	.st43{fill:#EDEBE7;}
	.st44{fill:#525252;}
	.st45{opacity:0.15;fill:#FFFFFF;}
	.st46{fill:#565453;}
	.st47{fill:#575656;}
	.st48{fill-rule:evenodd;clip-rule:evenodd;fill:#4B4A4B;}
	.st49{clip-path:url(#SVGID_4_);fill:#AAAAAA;}
	.st50{fill:#BAE2DD;}
	.st51{fill:#BBBCBB;}
	.st52{fill:#BDB36D;}
	.st53{fill:#202121;}
	.st54{clip-path:url(#SVGID_2_);fill:#1B7A9A;}
	.st55{fill:#239563;}
	.st56{fill:#F37C2A;}
	.st57{fill:#255860;}
	.st58{fill:#F3EED5;}
	.st59{fill:#F4E028;}
	.st60{fill:#F4F4EE;}
	.st61{fill:#5ABE8F;}
	.st62{fill:#F6F2E4;}
	.st63{fill:#5C5853;}
	.st64{fill:#5C5C5C;}
	.st65{fill-rule:evenodd;clip-rule:evenodd;fill:#EB6C25;}
	.st66{fill:#2992AD;}
	.st67{fill:#5E5F5E;}
	.st68{fill:#F9F29A;}
	.st69{clip-path:url(#SVGID_2_);}
	.st70{clip-path:url(#SVGID_4_);}
	.st71{fill:#C0BFBC;}
	.st72{fill:#C0C0C0;}
	.st73{fill:#C1914F;}
	.st74{fill:#93793D;}
	.st75{fill:#C3C3C3;}
	.st76{fill:#C3D5C7;}
	.st77{fill:#C4A830;}
	.st78{clip-path:url(#SVGID_4_);fill:#1B7A9A;}
	.st79{fill:#C698C5;}
	.st80{fill:#972627;}
	.st81{fill:#C6C5C5;}
	.st82{fill:#C74A39;}
	.st83{fill:#C84027;}
	.st84{opacity:0.1;}
	.st85{fill:#616161;}
	.st86{fill:#FFCE00;}
	.st87{fill:#FFF5F4;}
	.st88{fill:#FFFFFF;}
	.st89{fill:#63BD6E;}
	.st90{fill-rule:evenodd;clip-rule:evenodd;fill:#F37C2A;}
	.st91{fill:none;}
	.st92{fill:#65A844;}
	.st93{fill:#667580;}
	.st94{fill:#CAE8E4;}
	.st95{fill:#9C9C9C;}
	.st96{fill:#CBBD7D;}
	.st97{fill:#CC4028;}
	.st98{fill:#CCC375;}
	.st99{fill:#CCC788;}
	.st100{fill:#9DDAEC;}
	.st101{fill:#CDAB2D;}
	.st102{fill:#CDCCCB;}
	.st103{fill:#CDCDCE;}
	.st104{fill:#CDE7D5;}
	.st105{fill:#9F77AA;}
	.st106{fill:#CECBCB;}
	.st107{fill:#357180;}
	.st108{fill:#6BA297;}
	.st109{fill:#6EC2CB;}
	.st110{fill:#D0D1D1;}
	.st111{fill:#D1974F;}
	.st112{fill:#D1AFD2;}
	.st113{fill:#D22027;}
	.st114{fill:#D2B63D;}
	.st115{fill:#D2D2D2;}
	.st116{fill:#D32033;}
	.st117{clip-path:url(#SVGID_2_);fill:#CDCDCE;}
	.st118{fill:#D51F31;}
	.st119{fill:#D5C7C3;}
	.st120{fill:#D5D6D5;}
	.st121{fill:#3B3A38;}
	.st122{fill:#3B6DA2;}
	.st123{fill:#D6CB78;}
	.st124{fill:#D73D3D;}
	.st125{fill:#D7B029;}
	.st126{fill:#D8D8D7;}
	.st127{fill:#A03D3D;}
	.st128{fill:#A09592;}
	.st129{fill:#717171;}
	.st130{fill:#A19F9F;}
	.st131{fill:#727172;}
	.st132{fill:#F9F29A;stroke:#E1C821;stroke-miterlimit:10;}
	.st133{fill:#A2D1C9;}
	.st134{fill:#A33B3B;}
	.st135{fill:#A48A47;}
	.st136{fill:#DAC425;}
	.st137{fill:#786547;}
	.st138{fill:#787878;}
	.st139{fill:#A7A8A7;}
	.st140{fill-rule:evenodd;clip-rule:evenodd;fill:#6DABB5;}
	.st141{fill:#DCD99D;}
	.st142{fill:#DD5231;}
	.st143{clip-path:url(#SVGID_4_);fill:#CDCDCE;}
	.st144{fill:#DDDACA;}
	.st145{fill:#DDDCD6;}
	.st146{fill:#DDDDDC;}
	.st147{fill:#404040;}
	.st148{fill:#DEBA24;}
	.st149{fill:#DFBFDB;}
	.st150{fill:#DFD48A;}
	.st151{fill:#DFDFDF;}
	.st152{fill:#444545;}
	.st153{fill:#45423F;}
]]>
</style>
<g>
	<g>
		<circle class="st86" cx="68.417" cy="68.417" r="63.333"/>
		<g>
			<path class="st44" d="M105.179,91.818c0,4.297-1.008,4.215-5.51,4.215H38.931c-4.504,0-8.154-3.484-8.154-7.781V51.726
				c0-4.297,3.65-7.782,8.154-7.782h60.304c4.503,0,5.944,1.54,5.944,5.837V91.818z"/>
			<path class="st152" d="M103.593,90.521c0,4.297-1.236,4.215-5.546,4.215H40.168c-4.312,0-7.807-3.484-7.807-7.781v-33.23
				c0-4.297,3.495-7.782,7.807-7.782h58.386c4.313,0,5.039,1.972,5.039,6.269V90.521z"/>
			<g>
				<g>
					<g>
						
							<rect x="47.791" y="46.47" transform="matrix(0.9912 0.1322 -0.1322 0.9912 8.2679 -9.2282)" class="st89" width="51.678" height="22.362"/>
						<path class="st5" d="M97.03,71.019l-49.485-6.598l2.686-20.143l49.485,6.6L97.03,71.019z M99.207,51.341l-48.608-6.48
							l-2.547,19.1l48.611,6.479L99.207,51.341z"/>
						<circle class="st5" cx="73.629" cy="57.65" r="8.819"/>
					</g>
				</g>
				<g>
					<path class="st89" d="M72.428,64.925l0.192-1.438c-0.586-0.166-1.051-0.391-1.391-0.676c-0.342-0.282-0.614-0.699-0.816-1.246
						c-0.206-0.547-0.28-1.201-0.227-1.958l1.233-0.101c-0.013,0.773,0.077,1.362,0.265,1.764c0.265,0.555,0.633,0.891,1.095,1.01
						l0.612-4.572c-0.476-0.174-0.949-0.471-1.422-0.887c-0.347-0.301-0.591-0.691-0.734-1.169
						c-0.145-0.479-0.178-1.008-0.101-1.585c0.136-1.023,0.545-1.811,1.229-2.361c0.465-0.369,1.1-0.551,1.899-0.543l0.092-0.687
						l0.707,0.095l-0.093,0.686c0.679,0.18,1.198,0.496,1.55,0.953c0.455,0.592,0.679,1.354,0.666,2.281l-1.268,0.049
						c0.006-0.575-0.084-1.029-0.267-1.357c-0.183-0.329-0.463-0.568-0.841-0.719l-0.553,4.146c0.576,0.255,0.956,0.45,1.142,0.584
						c0.345,0.246,0.614,0.525,0.807,0.84c0.195,0.314,0.329,0.672,0.403,1.077c0.077,0.401,0.085,0.827,0.026,1.273
						c-0.137,1.001-0.509,1.798-1.123,2.393c-0.614,0.593-1.342,0.856-2.183,0.788l-0.192,1.453L72.428,64.925z M74.106,52.354
						c-0.476,0.024-0.868,0.202-1.188,0.532c-0.315,0.328-0.506,0.738-0.57,1.229c-0.064,0.489-0.008,0.916,0.175,1.278
						c0.183,0.36,0.532,0.676,1.051,0.944L74.106,52.354z M73.487,62.375c0.473-0.004,0.89-0.195,1.249-0.575
						c0.357-0.377,0.578-0.871,0.66-1.48c0.072-0.523,0.021-0.956-0.151-1.298c-0.17-0.346-0.563-0.687-1.172-1.021L73.487,62.375z"
						/>
				</g>
			</g>
			<g>
				<g>
					<g>
						
							<rect x="42.117" y="41.606" transform="matrix(0.9105 -0.4134 0.4134 0.9105 -15.7432 32.8156)" class="st89" width="51.678" height="22.359"/>
						<path class="st5" d="M94.886,51.719l-45.46,20.637l-8.399-18.503l45.459-20.636L94.886,51.719z M86.3,33.878L41.647,54.15
							l7.966,17.547l44.654-20.273L86.3,33.878z"/>
						<circle class="st5" cx="67.957" cy="52.787" r="8.82"/>
					</g>
				</g>
				<g>
					<path class="st89" d="M70.793,59.592l-0.599-1.318c-0.586,0.169-1.1,0.224-1.537,0.163c-0.439-0.061-0.892-0.266-1.354-0.625
						c-0.462-0.355-0.873-0.869-1.229-1.54l0.992-0.74c0.401,0.663,0.789,1.116,1.159,1.356c0.52,0.33,1.008,0.422,1.465,0.275
						l-1.907-4.199c-0.495,0.104-1.054,0.104-1.673,0c-0.455-0.07-0.868-0.272-1.243-0.602c-0.376-0.33-0.687-0.76-0.926-1.289
						c-0.427-0.941-0.496-1.825-0.211-2.655c0.198-0.561,0.641-1.049,1.324-1.468L64.77,46.32l0.647-0.294l0.287,0.63
						c0.669-0.207,1.277-0.211,1.817-0.014c0.701,0.263,1.295,0.789,1.775,1.584l-1.048,0.711c-0.304-0.489-0.619-0.824-0.948-1.008
						s-0.694-0.238-1.093-0.164l1.729,3.809c0.622-0.09,1.049-0.125,1.277-0.109c0.422,0.025,0.8,0.119,1.131,0.285
						c0.332,0.161,0.632,0.395,0.912,0.695c0.278,0.303,0.509,0.658,0.694,1.07c0.419,0.92,0.524,1.793,0.318,2.622
						c-0.208,0.83-0.686,1.438-1.434,1.825l0.606,1.334L70.793,59.592z M65.551,48.044c-0.389,0.273-0.628,0.633-0.723,1.079
						c-0.093,0.446-0.038,0.896,0.167,1.346c0.203,0.45,0.479,0.78,0.825,0.991c0.347,0.209,0.812,0.291,1.391,0.244L65.551,48.044z
						 M70.341,56.87c0.398-0.253,0.647-0.636,0.753-1.149c0.103-0.51,0.028-1.045-0.227-1.607c-0.216-0.48-0.488-0.819-0.814-1.02
						c-0.329-0.201-0.84-0.283-1.537-0.244L70.341,56.87z"/>
				</g>
			</g>
			<g>
				<path class="st85" d="M101.777,95.385c0,4.297-1.701,5.512-5.998,5.512H35.153c-4.297,0-4.376-0.404-4.376-4.701V52.158
					c0,0,0.05-1.055,0.102-1.709c0.113-1.479,1.195-2.938,1.195-2.938s0.648,2.703,2.484,3.457c2.877,1.184,5.11,1.082,5.11,1.082
					h56.11c4.297,0,5.998,0.564,5.998,4.861V95.385z"/>
				<g>
					<g>
						<path class="st129" d="M35.912,54.998L35.912,54.998l-4-0.002c-0.552,0-1-0.448-1-1c0-0.553,0.448-1,1-1h0l4,0.002
							c0.552,0,1,0.448,1,1C36.911,54.55,36.464,54.998,35.912,54.998z"/>
					</g>
					<g>
						<path class="st129" d="M94.321,99.699h-1.975c-0.552,0-1-0.447-1-1s0.448-1,1-1h1.975c3.333,0,3.885-0.291,4.172-1.361
							c0.143-0.533,0.687-0.854,1.225-0.707c0.533,0.143,0.85,0.689,0.707,1.225C99.663,99.699,97.068,99.699,94.321,99.699z
							 M84.29,99.699h-8.057c-0.552,0-1-0.447-1-1s0.448-1,1-1h8.057c0.552,0,1,0.447,1,1S84.842,99.699,84.29,99.699z
							 M68.177,99.699h-8.056c-0.552,0-1-0.447-1-1s0.448-1,1-1h8.056c0.552,0,1,0.447,1,1S68.729,99.699,68.177,99.699z
							 M52.064,99.699h-8.056c-0.552,0-1-0.447-1-1s0.448-1,1-1h8.056c0.552,0,1,0.447,1,1S52.616,99.699,52.064,99.699z
							 M99.669,89.559c-0.552,0-1-0.447-1-1v-8.057c0-0.553,0.448-1,1-1s1,0.447,1,1v8.057
							C100.669,89.111,100.222,89.559,99.669,89.559z M99.669,73.445c-0.552,0-1-0.447-1-1v-8.056c0-0.552,0.448-1,1-1s1,0.448,1,1
							v8.056C100.669,72.998,100.222,73.445,99.669,73.445z M99.361,57.363c-0.424,0-0.818-0.272-0.953-0.699
							c-0.284-0.897-0.771-1.641-3.872-1.641l-2.23-0.001c-0.552-0.001-1-0.448-1-1.001c0-0.552,0.448-0.999,1-0.999h0l2.23,0.001
							c2.502,0,4.934,0.368,5.778,3.038c0.167,0.526-0.125,1.089-0.652,1.255C99.563,57.347,99.461,57.363,99.361,57.363z
							 M84.25,55.019L84.25,55.019l-8.057-0.004c-0.552,0-1-0.448-1-1c0-0.553,0.448-1,1-1h0l8.057,0.004c0.552,0,1,0.447,1,1
							S84.803,55.019,84.25,55.019z M68.138,55.011L68.138,55.011l-8.057-0.004c-0.552,0-1-0.447-1-1s0.448-1,1-1h0l8.057,0.004
							c0.552,0.001,1,0.449,1,1.001S68.69,55.011,68.138,55.011z M52.025,55.004L52.025,55.004l-8.057-0.003
							c-0.552,0-1-0.449-1-1.001s0.448-0.999,1-0.999h0l8.057,0.003c0.552,0,1,0.448,1,1.001
							C53.025,54.557,52.577,55.004,52.025,55.004z"/>
					</g>
					<g>
						<path class="st129" d="M35.912,99.699h-4c-0.552,0-1-0.447-1-1s0.448-1,1-1h4c0.552,0,1,0.447,1,1
							S36.464,99.699,35.912,99.699z"/>
					</g>
				</g>
				<path class="st85" d="M97.935,93.484c0,3.645-1.28,3.92-5.012,3.92H30.884V55.183l62.239,0.027c3.734,0,4.812,1.031,4.812,4.675
					V93.484z"/>
			</g>
			<g>
				<path class="st131" d="M105.315,78.148H85.861c-1.257,0-3.605-2.254-3.605-6.803c0-4.549,2.349-6.674,3.605-6.674h19.454
					C105.96,64.671,105.891,78.148,105.315,78.148z"/>
				<path class="st47" d="M105.315,79.229H85.861c-1.257,0-3.605-2.252-3.605-6.801c0-4.549,2.349-6.675,3.605-6.675h19.454
					C105.96,65.752,105.891,79.229,105.315,79.229z"/>
				<ellipse class="st123" cx="88.377" cy="72.529" rx="2.54" ry="2.971"/>
				<ellipse class="st38" cx="88.377" cy="72.529" rx="2.045" ry="2.395"/>
			</g>
		</g>
	</g>
</g>
</svg>
