<?xml version="1.0" encoding="utf-8"?>
<!-- Generator: Adobe Illustrator 16.0.0, SVG Export Plug-In . SVG Version: 6.00 Build 0)  -->
<!DOCTYPE svg PUBLIC "-//W3C//DTD SVG 1.1//EN" "http://www.w3.org/Graphics/SVG/1.1/DTD/svg11.dtd">
<svg version="1.1" id="Layer_1" xmlns="http://www.w3.org/2000/svg" xmlns:xlink="http://www.w3.org/1999/xlink" x="0px" y="0px"
	 width="136.833px" height="136.833px" viewBox="0 0 136.833 136.833" style="enable-background:new 0 0 136.833 136.833;"
	 xml:space="preserve">
<style type="text/css">
<![CDATA[
	.st0{fill:#AAA79B;}
	.st1{fill:#AAAAAA;}
	.st2{fill:#49A0AE;}
	.st3{fill:#AD9030;}
	.st4{fill:#AE7B3E;}
	.st5{fill:#117F4A;}
	.st6{fill:#E03740;}
	.st7{opacity:0.15;fill:#F0EFED;}
	.st8{fill:#E13B3B;}
	.st9{fill:#E1C821;}
	.st10{fill:#E1DEDB;}
	.st11{fill:#E2C448;}
	.st12{fill:#E34F50;}
	.st13{fill:#4ABC96;}
	.st14{fill:#E5E5E5;}
	.st15{fill:#E7E7E7;}
	.st16{fill:#E84849;}
	.st17{fill:#E8E4AA;}
	.st18{fill:#E9C11E;}
	.st19{fill:#E9E9EA;}
	.st20{fill:#B19353;}
	.st21{clip-path:url(#SVGID_2_);fill:#AAAAAA;}
	.st22{fill:#B29C76;}
	.st23{fill:#838383;}
	.st24{fill:#B2B0A6;}
	.st25{fill:#B2B2B2;}
	.st26{fill:#B4B4B5;}
	.st27{fill:#867257;}
	.st28{fill:#86847D;}
	.st29{fill:#1B7A9A;}
	.st30{fill:#B6B3A1;}
	.st31{fill:#B6B6B7;}
	.st32{fill:#B6C2CB;}
	.st33{fill:#1C4C51;}
	.st34{fill:#888888;}
	.st35{fill:#EB9682;}
	.st36{fill:#898579;}
	.st37{fill:#B8D4D8;}
	.st38{fill:#ECE17E;}
	.st39{fill:#B9972F;}
	.st40{fill:#B9A57C;}
	.st41{fill:#B9B9BA;}
	.st42{fill:#EDC92C;}
	.st43{fill:#EDEBE7;}
	.st44{fill:#525252;}
	.st45{opacity:0.15;fill:#FFFFFF;}
	.st46{fill:#565453;}
	.st47{fill:#575656;}
	.st48{fill-rule:evenodd;clip-rule:evenodd;fill:#4B4A4B;}
	.st49{clip-path:url(#SVGID_4_);fill:#AAAAAA;}
	.st50{fill:#BAE2DD;}
	.st51{fill:#BBBCBB;}
	.st52{fill:#BDB36D;}
	.st53{fill:#202121;}
	.st54{clip-path:url(#SVGID_2_);fill:#1B7A9A;}
	.st55{fill:#239563;}
	.st56{fill:#F37C2A;}
	.st57{fill:#255860;}
	.st58{fill:#F3EED5;}
	.st59{fill:#F4E028;}
	.st60{fill:#F4F4EE;}
	.st61{fill:#5ABE8F;}
	.st62{fill:#F6F2E4;}
	.st63{fill:#5C5853;}
	.st64{fill:#5C5C5C;}
	.st65{fill-rule:evenodd;clip-rule:evenodd;fill:#EB6C25;}
	.st66{fill:#2992AD;}
	.st67{fill:#5E5F5E;}
	.st68{fill:#F9F29A;}
	.st69{clip-path:url(#SVGID_2_);}
	.st70{clip-path:url(#SVGID_4_);}
	.st71{fill:#C0BFBC;}
	.st72{fill:#C0C0C0;}
	.st73{fill:#C1914F;}
	.st74{fill:#93793D;}
	.st75{fill:#C3C3C3;}
	.st76{fill:#C3D5C7;}
	.st77{fill:#C4A830;}
	.st78{clip-path:url(#SVGID_4_);fill:#1B7A9A;}
	.st79{fill:#C698C5;}
	.st80{fill:#972627;}
	.st81{fill:#C6C5C5;}
	.st82{fill:#C74A39;}
	.st83{fill:#C84027;}
	.st84{opacity:0.1;}
	.st85{fill:#616161;}
	.st86{fill:#FFCE00;}
	.st87{fill:#FFF5F4;}
	.st88{fill:#FFFFFF;}
	.st89{fill:#63BD6E;}
	.st90{fill-rule:evenodd;clip-rule:evenodd;fill:#F37C2A;}
	.st91{fill:none;}
	.st92{fill:#65A844;}
	.st93{fill:#667580;}
	.st94{fill:#CAE8E4;}
	.st95{fill:#9C9C9C;}
	.st96{fill:#CBBD7D;}
	.st97{fill:#CC4028;}
	.st98{fill:#CCC375;}
	.st99{fill:#CCC788;}
	.st100{fill:#9DDAEC;}
	.st101{fill:#CDAB2D;}
	.st102{fill:#CDCCCB;}
	.st103{fill:#CDCDCE;}
	.st104{fill:#CDE7D5;}
	.st105{fill:#9F77AA;}
	.st106{fill:#CECBCB;}
	.st107{fill:#357180;}
	.st108{fill:#6BA297;}
	.st109{fill:#6EC2CB;}
	.st110{fill:#D0D1D1;}
	.st111{fill:#D1974F;}
	.st112{fill:#D1AFD2;}
	.st113{fill:#D22027;}
	.st114{fill:#D2B63D;}
	.st115{fill:#D2D2D2;}
	.st116{fill:#D32033;}
	.st117{clip-path:url(#SVGID_2_);fill:#CDCDCE;}
	.st118{fill:#D51F31;}
	.st119{fill:#D5C7C3;}
	.st120{fill:#D5D6D5;}
	.st121{fill:#3B3A38;}
	.st122{fill:#3B6DA2;}
	.st123{fill:#D6CB78;}
	.st124{fill:#D73D3D;}
	.st125{fill:#D7B029;}
	.st126{fill:#D8D8D7;}
	.st127{fill:#A03D3D;}
	.st128{fill:#A09592;}
	.st129{fill:#717171;}
	.st130{fill:#A19F9F;}
	.st131{fill:#727172;}
	.st132{fill:#F9F29A;stroke:#E1C821;stroke-miterlimit:10;}
	.st133{fill:#A2D1C9;}
	.st134{fill:#A33B3B;}
	.st135{fill:#A48A47;}
	.st136{fill:#DAC425;}
	.st137{fill:#786547;}
	.st138{fill:#787878;}
	.st139{fill:#A7A8A7;}
	.st140{fill-rule:evenodd;clip-rule:evenodd;fill:#6DABB5;}
	.st141{fill:#DCD99D;}
	.st142{fill:#DD5231;}
	.st143{clip-path:url(#SVGID_4_);fill:#CDCDCE;}
	.st144{fill:#DDDACA;}
	.st145{fill:#DDDCD6;}
	.st146{fill:#DDDDDC;}
	.st147{fill:#404040;}
	.st148{fill:#DEBA24;}
	.st149{fill:#DFBFDB;}
	.st150{fill:#DFD48A;}
	.st151{fill:#DFDFDF;}
	.st152{fill:#444545;}
	.st153{fill:#45423F;}
]]>
</style>
<g>
	<g>
		<circle class="st107" cx="68.416" cy="68.417" r="63.333"/>
		<g>
			<path class="st42" d="M107.854,82.438c0,3.143-2.549,5.693-5.691,5.693H36.694c-3.143,0-5.693-2.551-5.693-5.693V56.819
				c0-3.143,2.551-5.691,5.693-5.691h65.469c3.143,0,5.691,2.549,5.691,5.691V82.438z"/>
			<path class="st42" d="M36.616,87.813c-3.145,0-5.693-2.549-5.693-5.691V42.588c0-3.146,2.549-5.693,5.693-5.693h17.551
				c3.145,0,5.693,2.547,5.693,5.693v39.533c0,3.143-2.549,5.691-5.693,5.691H36.616z"/>
			<path class="st42" d="M84.872,64.016c0,0.871-0.707,1.58-1.58,1.58l0,0c-0.875,0-1.582-0.709-1.582-1.58V39.03
				c0-0.873,0.707-1.582,1.582-1.582l0,0c0.873,0,1.58,0.709,1.58,1.582V64.016z"/>
			<path class="st42" d="M76.573,44.168c-2.229,0-4.035-1.807-4.035-4.035v-3.473c0-2.229,1.807-4.035,4.035-4.035h12.439
				c2.229,0,4.035,1.807,4.035,4.035v3.473c0,2.229-1.807,4.035-4.035,4.035H76.573z"/>
			<path class="st61" d="M76.808,43.151c-1.834,0-2.926-1.488-2.926-3.324v-2.859c0-1.836,1.092-3.324,2.926-3.324H89.22
				c1.836,0,2.689,1.488,2.689,3.324v2.859c0,1.836-0.854,3.324-2.689,3.324H76.808z"/>
			<path class="st55" d="M88.552,36.436c0,0.207-0.168,0.375-0.375,0.375H77.302c-0.207,0-0.375-0.168-0.375-0.375l0,0
				c0-0.207,0.168-0.375,0.375-0.375h10.875C88.384,36.061,88.552,36.229,88.552,36.436L88.552,36.436z"/>
			<path class="st55" d="M88.552,38.936c0,0.207-0.168,0.375-0.375,0.375H77.302c-0.207,0-0.375-0.168-0.375-0.375l0,0
				c0-0.207,0.168-0.375,0.375-0.375h10.875C88.384,38.561,88.552,38.729,88.552,38.936L88.552,38.936z"/>
			<path class="st101" d="M112.452,91.639c0,3.52-2.854,6.375-6.375,6.375H32.778c-3.52,0-6.375-2.855-6.375-6.375v-4.963
				c0-3.52,2.855-6.373,6.375-6.373h73.299c3.521,0,6.375,2.854,6.375,6.373V91.639z"/>
			<path class="st18" d="M112.452,92.825c0,3.52-2.854,6.375-6.375,6.375H32.778c-3.52,0-6.375-2.855-6.375-6.375v-4.963
				c0-3.52,2.855-6.373,6.375-6.373h73.299c3.521,0,6.375,2.854,6.375,6.373V92.825z"/>
			<g>
				<path class="st101" d="M35.509,51.997c-0.654,0-1.186-0.529-1.186-1.186l0,0c0-0.656,0.531-1.188,1.186-1.188h18.738
					c0.656,0,1.188,0.531,1.188,1.188l0,0c0,0.656-0.531,1.186-1.188,1.186H35.509z"/>
				<g>
					<path class="st144" d="M41.517,45.334c0,0-1.469-3.035-2.133-3.301c-0.201,0.178-0.371,0.365-0.477,0.572
						c-2.135,4.27,0.158,6.998,0.158,6.998h11.623c0,0-1.541-3.004,0.119-6.088L41.517,45.334z"/>
					<path class="st62" d="M50.769,42.016c-1.502-0.951-9.529-1.607-11.385,0.018c0.664,0.266,2.133,3.301,2.133,3.301h9.172h2.453
						C53.142,45.334,52.271,42.963,50.769,42.016z"/>
				</g>
				<path class="st71" d="M51.388,43.807c0.225,0.23,0.271,0.416,0.105,0.416h-8.771c-0.168,0-0.486-0.186-0.711-0.416l0,0
					c-0.225-0.229-0.273-0.416-0.105-0.416h8.771C50.843,43.391,51.163,43.579,51.388,43.807L51.388,43.807z"/>
			</g>
			<g>
				<g>
					<path class="st61" d="M77.636,59.198c0,0.666-0.541,1.209-1.211,1.209h-3.84c-0.672,0-1.213-0.543-1.213-1.209v-3.842
						c0-0.668,0.541-1.211,1.213-1.211h3.84c0.67,0,1.211,0.543,1.211,1.211V59.198z"/>
					<path class="st61" d="M86.552,59.198c0,0.666-0.543,1.209-1.211,1.209h-3.84c-0.67,0-1.213-0.543-1.213-1.209v-3.842
						c0-0.668,0.543-1.211,1.213-1.211h3.84c0.668,0,1.211,0.543,1.211,1.211V59.198z"/>
					<path class="st61" d="M95.56,59.198c0,0.666-0.543,1.209-1.213,1.209h-3.84c-0.67,0-1.213-0.543-1.213-1.209v-3.842
						c0-0.668,0.543-1.211,1.213-1.211h3.84c0.67,0,1.213,0.543,1.213,1.211V59.198z"/>
				</g>
				<g>
					<path class="st61" d="M77.636,67.489c0,0.668-0.541,1.211-1.211,1.211h-3.84c-0.672,0-1.213-0.543-1.213-1.211v-3.842
						c0-0.668,0.541-1.213,1.213-1.213h3.84c0.67,0,1.211,0.545,1.211,1.213V67.489z"/>
					<path class="st61" d="M86.552,67.489c0,0.668-0.543,1.211-1.211,1.211h-3.84c-0.67,0-1.213-0.543-1.213-1.211v-3.842
						c0-0.668,0.543-1.213,1.213-1.213h3.84c0.668,0,1.211,0.545,1.211,1.213V67.489z"/>
					<path class="st61" d="M95.56,67.489c0,0.668-0.543,1.211-1.213,1.211h-3.84c-0.67,0-1.213-0.543-1.213-1.211v-3.842
						c0-0.668,0.543-1.213,1.213-1.213h3.84c0.67,0,1.213,0.545,1.213,1.213V67.489z"/>
				</g>
				<g>
					<path class="st61" d="M77.636,76.151c0,0.668-0.541,1.211-1.211,1.211h-3.84c-0.672,0-1.213-0.543-1.213-1.211v-3.842
						c0-0.672,0.541-1.213,1.213-1.213h3.84c0.67,0,1.211,0.541,1.211,1.213V76.151z"/>
					<path class="st61" d="M86.552,76.151c0,0.668-0.543,1.211-1.211,1.211h-3.84c-0.67,0-1.213-0.543-1.213-1.211v-3.842
						c0-0.672,0.543-1.213,1.213-1.213h3.84c0.668,0,1.211,0.541,1.211,1.213V76.151z"/>
					<path class="st61" d="M95.56,76.151c0,0.668-0.543,1.211-1.213,1.211h-3.84c-0.67,0-1.213-0.543-1.213-1.211v-3.842
						c0-0.672,0.543-1.213,1.213-1.213h3.84c0.67,0,1.213,0.541,1.213,1.213V76.151z"/>
				</g>
			</g>
			<g>
				<circle class="st101" cx="69.385" cy="90.739" r="2.847"/>
				<ellipse class="st3" cx="69.384" cy="90.739" rx="0.52" ry="1.779"/>
			</g>
		</g>
	</g>
</g>
</svg>
