<?xml version="1.0" encoding="utf-8"?>
<!-- Generator: Adobe Illustrator 16.0.0, SVG Export Plug-In . SVG Version: 6.00 Build 0)  -->
<!DOCTYPE svg PUBLIC "-//W3C//DTD SVG 1.1//EN" "http://www.w3.org/Graphics/SVG/1.1/DTD/svg11.dtd">
<svg version="1.1" id="Layer_1" xmlns="http://www.w3.org/2000/svg" xmlns:xlink="http://www.w3.org/1999/xlink" x="0px" y="0px"
	 width="136.833px" height="136.833px" viewBox="0 0 136.833 136.833" style="enable-background:new 0 0 136.833 136.833;"
	 xml:space="preserve">
<style type="text/css">
<![CDATA[
	.st0{fill:#AAA79B;}
	.st1{fill:#AAAAAA;}
	.st2{fill:#49A0AE;}
	.st3{fill:#AD9030;}
	.st4{fill:#AE7B3E;}
	.st5{fill:#117F4A;}
	.st6{fill:#E03740;}
	.st7{opacity:0.15;fill:#F0EFED;}
	.st8{fill:#E13B3B;}
	.st9{fill:#E1C821;}
	.st10{fill:#E1DEDB;}
	.st11{fill:#E2C448;}
	.st12{fill:#E34F50;}
	.st13{fill:#4ABC96;}
	.st14{fill:#E5E5E5;}
	.st15{fill:#E7E7E7;}
	.st16{fill:#E84849;}
	.st17{fill:#E8E4AA;}
	.st18{fill:#E9C11E;}
	.st19{fill:#E9E9EA;}
	.st20{fill:#B19353;}
	.st21{clip-path:url(#SVGID_2_);fill:#AAAAAA;}
	.st22{fill:#B29C76;}
	.st23{fill:#838383;}
	.st24{fill:#B2B0A6;}
	.st25{fill:#B2B2B2;}
	.st26{fill:#B4B4B5;}
	.st27{fill:#867257;}
	.st28{fill:#86847D;}
	.st29{fill:#1B7A9A;}
	.st30{fill:#B6B3A1;}
	.st31{fill:#B6B6B7;}
	.st32{fill:#B6C2CB;}
	.st33{fill:#1C4C51;}
	.st34{fill:#888888;}
	.st35{fill:#EB9682;}
	.st36{fill:#898579;}
	.st37{fill:#B8D4D8;}
	.st38{fill:#ECE17E;}
	.st39{fill:#B9972F;}
	.st40{fill:#B9A57C;}
	.st41{fill:#B9B9BA;}
	.st42{fill:#EDC92C;}
	.st43{fill:#EDEBE7;}
	.st44{fill:#525252;}
	.st45{opacity:0.15;fill:#FFFFFF;}
	.st46{fill:#565453;}
	.st47{fill:#575656;}
	.st48{fill-rule:evenodd;clip-rule:evenodd;fill:#4B4A4B;}
	.st49{clip-path:url(#SVGID_4_);fill:#AAAAAA;}
	.st50{fill:#BAE2DD;}
	.st51{fill:#BBBCBB;}
	.st52{fill:#BDB36D;}
	.st53{fill:#202121;}
	.st54{clip-path:url(#SVGID_2_);fill:#1B7A9A;}
	.st55{fill:#239563;}
	.st56{fill:#F37C2A;}
	.st57{fill:#255860;}
	.st58{fill:#F3EED5;}
	.st59{fill:#F4E028;}
	.st60{fill:#F4F4EE;}
	.st61{fill:#5ABE8F;}
	.st62{fill:#F6F2E4;}
	.st63{fill:#5C5853;}
	.st64{fill:#5C5C5C;}
	.st65{fill-rule:evenodd;clip-rule:evenodd;fill:#EB6C25;}
	.st66{fill:#2992AD;}
	.st67{fill:#5E5F5E;}
	.st68{fill:#F9F29A;}
	.st69{clip-path:url(#SVGID_2_);}
	.st70{clip-path:url(#SVGID_4_);}
	.st71{fill:#C0BFBC;}
	.st72{fill:#C0C0C0;}
	.st73{fill:#C1914F;}
	.st74{fill:#93793D;}
	.st75{fill:#C3C3C3;}
	.st76{fill:#C3D5C7;}
	.st77{fill:#C4A830;}
	.st78{clip-path:url(#SVGID_4_);fill:#1B7A9A;}
	.st79{fill:#C698C5;}
	.st80{fill:#972627;}
	.st81{fill:#C6C5C5;}
	.st82{fill:#C74A39;}
	.st83{fill:#C84027;}
	.st84{opacity:0.1;}
	.st85{fill:#616161;}
	.st86{fill:#FFCE00;}
	.st87{fill:#FFF5F4;}
	.st88{fill:#FFFFFF;}
	.st89{fill:#63BD6E;}
	.st90{fill-rule:evenodd;clip-rule:evenodd;fill:#F37C2A;}
	.st91{fill:none;}
	.st92{fill:#65A844;}
	.st93{fill:#667580;}
	.st94{fill:#CAE8E4;}
	.st95{fill:#9C9C9C;}
	.st96{fill:#CBBD7D;}
	.st97{fill:#CC4028;}
	.st98{fill:#CCC375;}
	.st99{fill:#CCC788;}
	.st100{fill:#9DDAEC;}
	.st101{fill:#CDAB2D;}
	.st102{fill:#CDCCCB;}
	.st103{fill:#CDCDCE;}
	.st104{fill:#CDE7D5;}
	.st105{fill:#9F77AA;}
	.st106{fill:#CECBCB;}
	.st107{fill:#357180;}
	.st108{fill:#6BA297;}
	.st109{fill:#6EC2CB;}
	.st110{fill:#D0D1D1;}
	.st111{fill:#D1974F;}
	.st112{fill:#D1AFD2;}
	.st113{fill:#D22027;}
	.st114{fill:#D2B63D;}
	.st115{fill:#D2D2D2;}
	.st116{fill:#D32033;}
	.st117{clip-path:url(#SVGID_2_);fill:#CDCDCE;}
	.st118{fill:#D51F31;}
	.st119{fill:#D5C7C3;}
	.st120{fill:#D5D6D5;}
	.st121{fill:#3B3A38;}
	.st122{fill:#3B6DA2;}
	.st123{fill:#D6CB78;}
	.st124{fill:#D73D3D;}
	.st125{fill:#D7B029;}
	.st126{fill:#D8D8D7;}
	.st127{fill:#A03D3D;}
	.st128{fill:#A09592;}
	.st129{fill:#717171;}
	.st130{fill:#A19F9F;}
	.st131{fill:#727172;}
	.st132{fill:#F9F29A;stroke:#E1C821;stroke-miterlimit:10;}
	.st133{fill:#A2D1C9;}
	.st134{fill:#A33B3B;}
	.st135{fill:#A48A47;}
	.st136{fill:#DAC425;}
	.st137{fill:#786547;}
	.st138{fill:#787878;}
	.st139{fill:#A7A8A7;}
	.st140{fill-rule:evenodd;clip-rule:evenodd;fill:#6DABB5;}
	.st141{fill:#DCD99D;}
	.st142{fill:#DD5231;}
	.st143{clip-path:url(#SVGID_4_);fill:#CDCDCE;}
	.st144{fill:#DDDACA;}
	.st145{fill:#DDDCD6;}
	.st146{fill:#DDDDDC;}
	.st147{fill:#404040;}
	.st148{fill:#DEBA24;}
	.st149{fill:#DFBFDB;}
	.st150{fill:#DFD48A;}
	.st151{fill:#DFDFDF;}
	.st152{fill:#444545;}
	.st153{fill:#45423F;}
]]>
</style>
<g>
	<g>
		<circle class="st56" cx="68.417" cy="68.417" r="63.333"/>
		<g>
			<g>
				<path class="st110" d="M42.027,47.934c0-5.135,4.162-9.299,9.297-9.299h36.705c5.137,0,9.299,4.164,9.299,9.299v9.043h3.305
					c0.002-0.086,0.014-0.174,0.014-0.262v-10.74c0-5.75-4.662-10.412-10.414-10.412H49.123c-5.752,0-10.414,4.662-10.414,10.412
					v10.74c0,0.088,0.01,0.176,0.014,0.262h3.305V47.934z"/>
			</g>
			<path class="st134" d="M86.025,38.018c0,1.086-0.883,1.969-1.973,1.969H55.326c-1.09,0-1.973-0.883-1.973-1.969v-2.109
				c0-1.09,0.883-1.973,1.973-1.973h28.727c1.09,0,1.973,0.883,1.973,1.973V38.018z"/>
			<path class="st120" d="M111.482,61.807c0.379-0.654,0.615-1.402,0.615-2.215c0-2.434-1.977-4.41-4.412-4.41H31.671
				c-2.438,0-4.412,1.977-4.412,4.41c0,0.729,0.191,1.404,0.506,2.008l10.078,36.738c0.049,0.184,0.125,0.354,0.201,0.521
				c0.438,1.318,1.664,2.275,3.129,2.275h57.01c1.633,0,2.98-1.184,3.252-2.738c0.004-0.021,0.016-0.039,0.021-0.059L111.482,61.807
				z M95.642,94.52h-9.027l2.137-13.887h10.703L95.642,94.52z M72.785,94.52V80.633h9.797L80.443,94.52H72.785z M59.025,94.52
				l-2.137-13.887h9.795V94.52H59.025z M43.658,94.52l-3.809-13.887h10.867l2.137,13.887H43.658z M48.158,64.004l1.879,12.219
				H38.638l-3.354-12.219H48.158z M104.017,64.004l-3.354,12.219h-11.23l1.879-12.219H104.017z M83.257,76.223H72.785V64.004h12.354
				L83.257,76.223z M66.683,76.223H56.21l-1.879-12.219h12.352V76.223z"/>
			<g>
				<polygon class="st91" points="59.025,94.52 66.683,94.52 66.683,80.633 56.888,80.633 				"/>
				<polygon class="st91" points="39.849,80.633 43.658,94.52 52.853,94.52 50.716,80.633 				"/>
				<polygon class="st91" points="48.158,64.004 35.285,64.004 38.638,76.223 50.037,76.223 				"/>
				<path class="st91" d="M53.462,38.635h-2.139c-5.135,0-9.297,4.164-9.297,9.299v7.248h27.85V39.987H55.326
					C54.455,39.987,53.724,39.418,53.462,38.635z"/>
				<polygon class="st91" points="54.332,64.004 56.21,76.223 66.683,76.223 66.683,64.004 				"/>
				<path class="st7" d="M42.027,55.182v-7.248c0-5.135,4.162-9.299,9.297-9.299h2.139c0.262,0.783,0.992,1.352,1.863,1.352h14.551
					v-6.051H55.326c-0.971,0-1.773,0.703-1.938,1.627h-4.266c-5.752,0-10.414,4.662-10.414,10.412v9.207h-7.037
					c-2.438,0-4.412,1.977-4.412,4.41c0,0.729,0.191,1.404,0.506,2.008l10.078,36.738c0.049,0.184,0.125,0.354,0.201,0.521
					c0.438,1.318,1.664,2.275,3.129,2.275h28.703V55.182H42.027z M38.638,76.223l-3.354-12.219h12.873l1.879,12.219H38.638z
					 M43.658,94.52l-3.809-13.887h10.867l2.137,13.887H43.658z M66.683,94.52h-7.658l-2.137-13.887h9.795V94.52z M56.21,76.223
					l-1.879-12.219h12.352v12.219H56.21z"/>
			</g>
		</g>
	</g>
</g>
</svg>
