<?xml version="1.0" encoding="utf-8"?>
<!-- Generator: Adobe Illustrator 16.0.0, SVG Export Plug-In . SVG Version: 6.00 Build 0)  -->
<!DOCTYPE svg PUBLIC "-//W3C//DTD SVG 1.1//EN" "http://www.w3.org/Graphics/SVG/1.1/DTD/svg11.dtd">
<svg version="1.1" id="Layer_1" xmlns="http://www.w3.org/2000/svg" xmlns:xlink="http://www.w3.org/1999/xlink" x="0px" y="0px"
	 width="136.833px" height="136.834px" viewBox="0 0 136.833 136.834" style="enable-background:new 0 0 136.833 136.834;"
	 xml:space="preserve">
<style type="text/css">
<![CDATA[
	.st0{fill:#AAA79B;}
	.st1{fill:#AAAAAA;}
	.st2{fill:#49A0AE;}
	.st3{fill:#AD9030;}
	.st4{fill:#AE7B3E;}
	.st5{fill:#117F4A;}
	.st6{fill:#E03740;}
	.st7{opacity:0.15;fill:#F0EFED;}
	.st8{fill:#E13B3B;}
	.st9{fill:#E1C821;}
	.st10{fill:#E1DEDB;}
	.st11{fill:#E2C448;}
	.st12{fill:#E34F50;}
	.st13{fill:#4ABC96;}
	.st14{fill:#E5E5E5;}
	.st15{fill:#E7E7E7;}
	.st16{fill:#E84849;}
	.st17{fill:#E8E4AA;}
	.st18{fill:#E9C11E;}
	.st19{fill:#E9E9EA;}
	.st20{fill:#B19353;}
	.st21{clip-path:url(#SVGID_2_);fill:#AAAAAA;}
	.st22{fill:#B29C76;}
	.st23{fill:#838383;}
	.st24{fill:#B2B0A6;}
	.st25{fill:#B2B2B2;}
	.st26{fill:#B4B4B5;}
	.st27{fill:#867257;}
	.st28{fill:#86847D;}
	.st29{fill:#1B7A9A;}
	.st30{fill:#B6B3A1;}
	.st31{fill:#B6B6B7;}
	.st32{fill:#B6C2CB;}
	.st33{fill:#1C4C51;}
	.st34{fill:#888888;}
	.st35{fill:#EB9682;}
	.st36{fill:#898579;}
	.st37{fill:#B8D4D8;}
	.st38{fill:#ECE17E;}
	.st39{fill:#B9972F;}
	.st40{fill:#B9A57C;}
	.st41{fill:#B9B9BA;}
	.st42{fill:#EDC92C;}
	.st43{fill:#EDEBE7;}
	.st44{fill:#525252;}
	.st45{opacity:0.15;fill:#FFFFFF;}
	.st46{fill:#565453;}
	.st47{fill:#575656;}
	.st48{fill-rule:evenodd;clip-rule:evenodd;fill:#4B4A4B;}
	.st49{clip-path:url(#SVGID_4_);fill:#AAAAAA;}
	.st50{fill:#BAE2DD;}
	.st51{fill:#BBBCBB;}
	.st52{fill:#BDB36D;}
	.st53{fill:#202121;}
	.st54{clip-path:url(#SVGID_2_);fill:#1B7A9A;}
	.st55{fill:#239563;}
	.st56{fill:#F37C2A;}
	.st57{fill:#255860;}
	.st58{fill:#F3EED5;}
	.st59{fill:#F4E028;}
	.st60{fill:#F4F4EE;}
	.st61{fill:#5ABE8F;}
	.st62{fill:#F6F2E4;}
	.st63{fill:#5C5853;}
	.st64{fill:#5C5C5C;}
	.st65{fill-rule:evenodd;clip-rule:evenodd;fill:#EB6C25;}
	.st66{fill:#2992AD;}
	.st67{fill:#5E5F5E;}
	.st68{fill:#F9F29A;}
	.st69{clip-path:url(#SVGID_2_);}
	.st70{clip-path:url(#SVGID_4_);}
	.st71{fill:#C0BFBC;}
	.st72{fill:#C0C0C0;}
	.st73{fill:#C1914F;}
	.st74{fill:#93793D;}
	.st75{fill:#C3C3C3;}
	.st76{fill:#C3D5C7;}
	.st77{fill:#C4A830;}
	.st78{clip-path:url(#SVGID_4_);fill:#1B7A9A;}
	.st79{fill:#C698C5;}
	.st80{fill:#972627;}
	.st81{fill:#C6C5C5;}
	.st82{fill:#C74A39;}
	.st83{fill:#C84027;}
	.st84{opacity:0.1;}
	.st85{fill:#616161;}
	.st86{fill:#FFCE00;}
	.st87{fill:#FFF5F4;}
	.st88{fill:#FFFFFF;}
	.st89{fill:#63BD6E;}
	.st90{fill-rule:evenodd;clip-rule:evenodd;fill:#F37C2A;}
	.st91{fill:none;}
	.st92{fill:#65A844;}
	.st93{fill:#667580;}
	.st94{fill:#CAE8E4;}
	.st95{fill:#9C9C9C;}
	.st96{fill:#CBBD7D;}
	.st97{fill:#CC4028;}
	.st98{fill:#CCC375;}
	.st99{fill:#CCC788;}
	.st100{fill:#9DDAEC;}
	.st101{fill:#CDAB2D;}
	.st102{fill:#CDCCCB;}
	.st103{fill:#CDCDCE;}
	.st104{fill:#CDE7D5;}
	.st105{fill:#9F77AA;}
	.st106{fill:#CECBCB;}
	.st107{fill:#357180;}
	.st108{fill:#6BA297;}
	.st109{fill:#6EC2CB;}
	.st110{fill:#D0D1D1;}
	.st111{fill:#D1974F;}
	.st112{fill:#D1AFD2;}
	.st113{fill:#D22027;}
	.st114{fill:#D2B63D;}
	.st115{fill:#D2D2D2;}
	.st116{fill:#D32033;}
	.st117{clip-path:url(#SVGID_2_);fill:#CDCDCE;}
	.st118{fill:#D51F31;}
	.st119{fill:#D5C7C3;}
	.st120{fill:#D5D6D5;}
	.st121{fill:#3B3A38;}
	.st122{fill:#3B6DA2;}
	.st123{fill:#D6CB78;}
	.st124{fill:#D73D3D;}
	.st125{fill:#D7B029;}
	.st126{fill:#D8D8D7;}
	.st127{fill:#A03D3D;}
	.st128{fill:#A09592;}
	.st129{fill:#717171;}
	.st130{fill:#A19F9F;}
	.st131{fill:#727172;}
	.st132{fill:#F9F29A;stroke:#E1C821;stroke-miterlimit:10;}
	.st133{fill:#A2D1C9;}
	.st134{fill:#A33B3B;}
	.st135{fill:#A48A47;}
	.st136{fill:#DAC425;}
	.st137{fill:#786547;}
	.st138{fill:#787878;}
	.st139{fill:#A7A8A7;}
	.st140{fill-rule:evenodd;clip-rule:evenodd;fill:#6DABB5;}
	.st141{fill:#DCD99D;}
	.st142{fill:#DD5231;}
	.st143{clip-path:url(#SVGID_4_);fill:#CDCDCE;}
	.st144{fill:#DDDACA;}
	.st145{fill:#DDDCD6;}
	.st146{fill:#DDDDDC;}
	.st147{fill:#404040;}
	.st148{fill:#DEBA24;}
	.st149{fill:#DFBFDB;}
	.st150{fill:#DFD48A;}
	.st151{fill:#DFDFDF;}
	.st152{fill:#444545;}
	.st153{fill:#45423F;}
]]>
</style>
<g>
	<g>
		<circle class="st35" cx="68.416" cy="68.417" r="63.333"/>
		<g>
			<path class="st96" d="M118.175,68.177c0,2.098-1.484,3.797-3.316,3.797H97.667c-1.83,0-3.316-1.699-3.316-3.797l0,0
				c0-2.098,1.486-3.799,3.316-3.799h17.191C116.69,64.378,118.175,66.08,118.175,68.177L118.175,68.177z"/>
			<g>
				<path class="st83" d="M110.778,67.445c0-2.754-15.738-19.805-21.389-19.805H33.903c-5.65,0-8.529,3.225-8.529,8.875v22.17
					c0,5.65,2.879,8.527,8.529,8.527H89.39C95.04,87.212,110.778,70.197,110.778,67.445z M91.095,68.169
					c0-2.199,1.781-3.98,3.98-3.98c2.197,0,3.979,1.781,3.979,3.98c0,2.197-1.781,3.979-3.979,3.979
					C92.876,72.148,91.095,70.367,91.095,68.169z"/>
			</g>
			<g>
				<path class="st142" d="M110.155,66.681c0-2.197-15.293-19.143-20.809-19.143h-54.49c-5.514,0-8.322,2.809-8.322,8.322v21.641
					c0,5.516,2.809,8.324,8.322,8.324h54.49C94.862,85.826,110.155,68.878,110.155,66.681z M91.011,67.238
					c0-2.146,1.738-3.885,3.883-3.885c2.146,0,3.887,1.738,3.887,3.885c0,2.143-1.74,3.883-3.887,3.883
					C92.749,71.121,91.011,69.38,91.011,67.238z"/>
			</g>
			<g>
				<path class="st91" d="M94.894,71.121c2.146,0,3.887-1.74,3.887-3.883c0-0.613-0.154-1.188-0.408-1.703
					c-2.088-0.076-4.389-0.143-6.844-0.201c-0.32,0.564-0.518,1.209-0.518,1.904C91.011,69.38,92.749,71.121,94.894,71.121z"/>
				<path class="st97" d="M98.372,65.535c0.254,0.516,0.408,1.09,0.408,1.703c0,2.143-1.74,3.883-3.887,3.883
					c-2.145,0-3.883-1.74-3.883-3.883c0-0.695,0.197-1.34,0.518-1.904c-24.641-0.586-64.994-0.342-64.994-0.342v12.51
					c0,5.516,2.809,8.324,8.322,8.324h54.49c5.516,0,20.809-16.947,20.809-19.145C110.155,66.162,105.493,65.794,98.372,65.535z"/>
			</g>
			<g>
				<path class="st87" d="M45.806,69.492c0,0.803-0.207,1.521-0.619,2.162c-0.414,0.639-1.021,1.139-1.814,1.5
					c-0.799,0.363-1.74,0.543-2.832,0.543c-1.309,0-2.391-0.246-3.242-0.74c-0.6-0.357-1.09-0.832-1.469-1.424
					c-0.375-0.596-0.564-1.172-0.564-1.736c0-0.322,0.113-0.602,0.34-0.834c0.225-0.23,0.516-0.35,0.863-0.35
					c0.285,0,0.523,0.092,0.721,0.271c0.195,0.18,0.361,0.451,0.502,0.807c0.168,0.42,0.35,0.773,0.547,1.059
					c0.195,0.281,0.473,0.518,0.828,0.699c0.355,0.186,0.822,0.275,1.4,0.275c0.797,0,1.445-0.184,1.941-0.555
					c0.498-0.369,0.746-0.832,0.746-1.387c0-0.441-0.133-0.799-0.402-1.072c-0.268-0.277-0.615-0.486-1.039-0.631
					c-0.426-0.145-0.994-0.297-1.705-0.463c-0.955-0.221-1.752-0.484-2.395-0.781c-0.641-0.297-1.15-0.705-1.527-1.221
					s-0.566-1.158-0.566-1.924c0-0.727,0.199-1.379,0.598-1.945c0.398-0.564,0.975-1.002,1.729-1.307s1.639-0.455,2.658-0.455
					c0.814,0,1.52,0.1,2.111,0.305c0.596,0.199,1.086,0.467,1.48,0.801c0.393,0.338,0.68,0.688,0.859,1.057
					c0.182,0.367,0.271,0.725,0.271,1.076c0,0.316-0.113,0.609-0.338,0.863c-0.229,0.256-0.51,0.385-0.848,0.385
					c-0.307,0-0.541-0.078-0.699-0.23c-0.16-0.154-0.334-0.406-0.521-0.756c-0.242-0.502-0.531-0.891-0.869-1.172
					c-0.336-0.279-0.881-0.42-1.629-0.42c-0.693,0-1.252,0.154-1.676,0.457c-0.426,0.305-0.641,0.674-0.641,1.098
					c0,0.266,0.074,0.496,0.219,0.689c0.145,0.191,0.344,0.357,0.596,0.498c0.254,0.137,0.512,0.244,0.77,0.324
					c0.26,0.08,0.689,0.193,1.285,0.346c0.748,0.172,1.424,0.365,2.031,0.578c0.604,0.209,1.121,0.467,1.549,0.77
					c0.424,0.299,0.756,0.68,0.994,1.143S45.806,68.822,45.806,69.492z"/>
				<path class="st87" d="M56.569,71.97l-0.635-1.664h-5.389l-0.635,1.699c-0.246,0.662-0.459,1.111-0.633,1.344
					c-0.176,0.232-0.463,0.348-0.859,0.348c-0.338,0-0.637-0.123-0.896-0.371c-0.258-0.246-0.389-0.527-0.389-0.838
					c0-0.184,0.031-0.369,0.09-0.564c0.061-0.189,0.16-0.459,0.299-0.803l3.393-8.613c0.096-0.248,0.213-0.545,0.348-0.893
					c0.137-0.346,0.281-0.633,0.436-0.861c0.154-0.23,0.355-0.416,0.605-0.559c0.252-0.141,0.561-0.211,0.928-0.211
					c0.375,0,0.686,0.07,0.936,0.211c0.252,0.143,0.453,0.324,0.605,0.549c0.154,0.223,0.283,0.461,0.389,0.717
					c0.105,0.258,0.24,0.602,0.404,1.029l3.465,8.557c0.271,0.652,0.408,1.123,0.408,1.42c0,0.309-0.129,0.588-0.385,0.846
					s-0.566,0.385-0.928,0.385c-0.211,0-0.393-0.037-0.543-0.113c-0.15-0.072-0.277-0.176-0.381-0.307
					c-0.102-0.131-0.213-0.328-0.33-0.598S56.653,72.175,56.569,71.97z M51.249,68.289h3.963l-1.998-5.473L51.249,68.289z"/>
				<path class="st87" d="M64.042,61.611v9.654h5.447c0.432,0,0.766,0.104,0.998,0.316c0.232,0.211,0.35,0.475,0.35,0.795
					c0,0.326-0.117,0.59-0.344,0.791c-0.23,0.203-0.564,0.305-1.004,0.305h-6.486c-0.586,0-1.008-0.131-1.264-0.391
					c-0.256-0.258-0.383-0.678-0.383-1.258V61.611c0-0.543,0.119-0.949,0.365-1.221c0.244-0.27,0.564-0.406,0.963-0.406
					c0.404,0,0.732,0.133,0.98,0.402C63.917,60.654,64.042,61.062,64.042,61.611z"/>
				<path class="st87" d="M81.339,62.283h-6.053v3.256h5.572c0.41,0,0.717,0.09,0.918,0.275c0.203,0.184,0.305,0.426,0.305,0.727
					c0,0.303-0.1,0.549-0.301,0.738c-0.199,0.189-0.508,0.285-0.922,0.285h-5.572v3.771h6.26c0.422,0,0.74,0.1,0.955,0.295
					c0.215,0.197,0.32,0.457,0.32,0.781c0,0.316-0.105,0.568-0.32,0.766c-0.215,0.195-0.533,0.295-0.955,0.295h-7.301
					c-0.584,0-1.004-0.131-1.26-0.391c-0.258-0.258-0.387-0.678-0.387-1.258v-9.967c0-0.387,0.059-0.701,0.174-0.947
					c0.113-0.244,0.293-0.422,0.537-0.533s0.557-0.166,0.936-0.166h7.094c0.428,0,0.744,0.094,0.953,0.285
					c0.209,0.189,0.313,0.438,0.313,0.746c0,0.313-0.104,0.564-0.313,0.756C82.083,62.185,81.767,62.283,81.339,62.283z"/>
			</g>
			<path class="st150" d="M118.175,68.957c0,1.84-1.49,3.33-3.328,3.33H97.575c-1.838,0-3.328-1.49-3.328-3.33l0,0
				c0-1.838,1.49-3.33,3.328-3.33h17.271C116.685,65.626,118.175,67.119,118.175,68.957L118.175,68.957z"/>
		</g>
	</g>
</g>
</svg>
