<?xml version="1.0" encoding="utf-8"?>
<!-- Generator: Adobe Illustrator 16.0.0, SVG Export Plug-In . SVG Version: 6.00 Build 0)  -->
<!DOCTYPE svg PUBLIC "-//W3C//DTD SVG 1.1//EN" "http://www.w3.org/Graphics/SVG/1.1/DTD/svg11.dtd">
<svg version="1.1" id="Layer_1" xmlns="http://www.w3.org/2000/svg" xmlns:xlink="http://www.w3.org/1999/xlink" x="0px" y="0px"
	 width="136.833px" height="136.833px" viewBox="0 0 136.833 136.833" style="enable-background:new 0 0 136.833 136.833;"
	 xml:space="preserve">
<style type="text/css">
<![CDATA[
	.st0{fill:#AAA79B;}
	.st1{fill:#AAAAAA;}
	.st2{fill:#49A0AE;}
	.st3{fill:#AD9030;}
	.st4{fill:#AE7B3E;}
	.st5{fill:#117F4A;}
	.st6{fill:#E03740;}
	.st7{opacity:0.15;fill:#F0EFED;}
	.st8{fill:#E13B3B;}
	.st9{fill:#E1C821;}
	.st10{fill:#E1DEDB;}
	.st11{fill:#E2C448;}
	.st12{fill:#E34F50;}
	.st13{fill:#4ABC96;}
	.st14{fill:#E5E5E5;}
	.st15{fill:#E7E7E7;}
	.st16{fill:#E84849;}
	.st17{fill:#E8E4AA;}
	.st18{fill:#E9C11E;}
	.st19{fill:#E9E9EA;}
	.st20{fill:#B19353;}
	.st21{clip-path:url(#SVGID_2_);fill:#AAAAAA;}
	.st22{fill:#B29C76;}
	.st23{fill:#838383;}
	.st24{fill:#B2B0A6;}
	.st25{fill:#B2B2B2;}
	.st26{fill:#B4B4B5;}
	.st27{fill:#867257;}
	.st28{fill:#86847D;}
	.st29{fill:#1B7A9A;}
	.st30{fill:#B6B3A1;}
	.st31{fill:#B6B6B7;}
	.st32{fill:#B6C2CB;}
	.st33{fill:#1C4C51;}
	.st34{fill:#888888;}
	.st35{fill:#EB9682;}
	.st36{fill:#898579;}
	.st37{fill:#B8D4D8;}
	.st38{fill:#ECE17E;}
	.st39{fill:#B9972F;}
	.st40{fill:#B9A57C;}
	.st41{fill:#B9B9BA;}
	.st42{fill:#EDC92C;}
	.st43{fill:#EDEBE7;}
	.st44{fill:#525252;}
	.st45{opacity:0.15;fill:#FFFFFF;}
	.st46{fill:#565453;}
	.st47{fill:#575656;}
	.st48{fill-rule:evenodd;clip-rule:evenodd;fill:#4B4A4B;}
	.st49{clip-path:url(#SVGID_4_);fill:#AAAAAA;}
	.st50{fill:#BAE2DD;}
	.st51{fill:#BBBCBB;}
	.st52{fill:#BDB36D;}
	.st53{fill:#202121;}
	.st54{clip-path:url(#SVGID_2_);fill:#1B7A9A;}
	.st55{fill:#239563;}
	.st56{fill:#F37C2A;}
	.st57{fill:#255860;}
	.st58{fill:#F3EED5;}
	.st59{fill:#F4E028;}
	.st60{fill:#F4F4EE;}
	.st61{fill:#5ABE8F;}
	.st62{fill:#F6F2E4;}
	.st63{fill:#5C5853;}
	.st64{fill:#5C5C5C;}
	.st65{fill-rule:evenodd;clip-rule:evenodd;fill:#EB6C25;}
	.st66{fill:#2992AD;}
	.st67{fill:#5E5F5E;}
	.st68{fill:#F9F29A;}
	.st69{clip-path:url(#SVGID_2_);}
	.st70{clip-path:url(#SVGID_4_);}
	.st71{fill:#C0BFBC;}
	.st72{fill:#C0C0C0;}
	.st73{fill:#C1914F;}
	.st74{fill:#93793D;}
	.st75{fill:#C3C3C3;}
	.st76{fill:#C3D5C7;}
	.st77{fill:#C4A830;}
	.st78{clip-path:url(#SVGID_4_);fill:#1B7A9A;}
	.st79{fill:#C698C5;}
	.st80{fill:#972627;}
	.st81{fill:#C6C5C5;}
	.st82{fill:#C74A39;}
	.st83{fill:#C84027;}
	.st84{opacity:0.1;}
	.st85{fill:#616161;}
	.st86{fill:#FFCE00;}
	.st87{fill:#FFF5F4;}
	.st88{fill:#FFFFFF;}
	.st89{fill:#63BD6E;}
	.st90{fill-rule:evenodd;clip-rule:evenodd;fill:#F37C2A;}
	.st91{fill:none;}
	.st92{fill:#65A844;}
	.st93{fill:#667580;}
	.st94{fill:#CAE8E4;}
	.st95{fill:#9C9C9C;}
	.st96{fill:#CBBD7D;}
	.st97{fill:#CC4028;}
	.st98{fill:#CCC375;}
	.st99{fill:#CCC788;}
	.st100{fill:#9DDAEC;}
	.st101{fill:#CDAB2D;}
	.st102{fill:#CDCCCB;}
	.st103{fill:#CDCDCE;}
	.st104{fill:#CDE7D5;}
	.st105{fill:#9F77AA;}
	.st106{fill:#CECBCB;}
	.st107{fill:#357180;}
	.st108{fill:#6BA297;}
	.st109{fill:#6EC2CB;}
	.st110{fill:#D0D1D1;}
	.st111{fill:#D1974F;}
	.st112{fill:#D1AFD2;}
	.st113{fill:#D22027;}
	.st114{fill:#D2B63D;}
	.st115{fill:#D2D2D2;}
	.st116{fill:#D32033;}
	.st117{clip-path:url(#SVGID_2_);fill:#CDCDCE;}
	.st118{fill:#D51F31;}
	.st119{fill:#D5C7C3;}
	.st120{fill:#D5D6D5;}
	.st121{fill:#3B3A38;}
	.st122{fill:#3B6DA2;}
	.st123{fill:#D6CB78;}
	.st124{fill:#D73D3D;}
	.st125{fill:#D7B029;}
	.st126{fill:#D8D8D7;}
	.st127{fill:#A03D3D;}
	.st128{fill:#A09592;}
	.st129{fill:#717171;}
	.st130{fill:#A19F9F;}
	.st131{fill:#727172;}
	.st132{fill:#F9F29A;stroke:#E1C821;stroke-miterlimit:10;}
	.st133{fill:#A2D1C9;}
	.st134{fill:#A33B3B;}
	.st135{fill:#A48A47;}
	.st136{fill:#DAC425;}
	.st137{fill:#786547;}
	.st138{fill:#787878;}
	.st139{fill:#A7A8A7;}
	.st140{fill-rule:evenodd;clip-rule:evenodd;fill:#6DABB5;}
	.st141{fill:#DCD99D;}
	.st142{fill:#DD5231;}
	.st143{clip-path:url(#SVGID_4_);fill:#CDCDCE;}
	.st144{fill:#DDDACA;}
	.st145{fill:#DDDCD6;}
	.st146{fill:#DDDDDC;}
	.st147{fill:#404040;}
	.st148{fill:#DEBA24;}
	.st149{fill:#DFBFDB;}
	.st150{fill:#DFD48A;}
	.st151{fill:#DFDFDF;}
	.st152{fill:#444545;}
	.st153{fill:#45423F;}
]]>
</style>
<g>
	<g>
		<circle class="st86" cx="68.416" cy="68.416" r="63.333"/>
		<g>
			<g>
				<g>
					<path class="st147" d="M64.606,73.162c0.355,1.492-0.574,2.992-2.066,3.344l0,0c-1.492,0.352-2.99-0.574-3.344-2.066
						l-4.811-20.238c-0.355-1.492,0.572-2.99,2.064-3.344l0,0c1.494-0.352,2.99,0.574,3.344,2.068L64.606,73.162z"/>
					<path class="st147" d="M36.669,73.162c-0.354,1.492,0.574,2.992,2.066,3.344l0,0c1.492,0.352,2.99-0.574,3.344-2.066
						l4.811-20.238c0.355-1.492-0.572-2.99-2.064-3.344l0,0c-1.494-0.352-2.99,0.574-3.344,2.068L36.669,73.162z"/>
					<path class="st147" d="M48.825,101.228c0,1.111-0.902,2.012-2.012,2.012l0,0c-1.113,0-2.014-0.9-2.014-2.012l-1.209-28.166
						c0-1.113,1.443-2.014,3.223-2.014v0.002c1.109,0,3.219,0.898,3.219,2.012L48.825,101.228z"/>
					<path class="st147" d="M56.247,101.228c0,1.111-0.902,2.012-2.012,2.012l0,0c-1.111,0-2.014-0.9-2.014-2.012l-1.207-28.166
						c0-1.113,1.441-2.014,3.221-2.014v0.002c1.109,0,3.219,0.898,3.219,2.012L56.247,101.228z"/>
				</g>
				<g>
					<path class="st127" d="M62.505,64.027l-5.408,1.277l-2.711-11.104c-0.355-1.492,0.572-2.99,2.064-3.344l0,0
						c1.494-0.352,2.99,0.574,3.344,2.068L62.505,64.027z"/>
					<path class="st127" d="M38.771,64.027l5.408,1.277l2.711-11.104c0.355-1.492-0.572-2.99-2.064-3.344l0,0
						c-1.494-0.352-2.99,0.574-3.344,2.068L38.771,64.027z"/>
					<path class="st127" d="M50.427,51.724c-2.996,0-5.219-0.771-5.219-0.771l-5.691,31.711c0,1.643,4.977,2.77,11.115,2.77
						s11.115-1.002,11.115-2.771l-5.693-31.709C56.054,50.953,53.423,51.724,50.427,51.724z"/>
				</g>
				<circle class="st147" cx="50.632" cy="41.164" r="8.842"/>
			</g>
			<g class="st84">
				<path class="st126" d="M50.427,51.724c-2.996,0-5.219-0.771-5.219-0.771l-0.006,0.035c-0.123-0.049-0.246-0.1-0.377-0.131
					c-1.494-0.352-2.99,0.574-3.344,2.068l-2.711,11.102l0.066,0.016l-2.168,9.119c-0.354,1.492,0.574,2.992,2.066,3.344
					c0.682,0.16,1.359,0.043,1.934-0.26l-1.152,6.418c0,0.988,1.811,1.787,4.584,2.27l0.699,16.295c0,1.111,0.9,2.012,2.014,2.012
					c1.109,0,2.012-0.9,2.012-2.012l0.678-15.809c0.371,0.008,0.748,0.014,1.129,0.014L50.427,51.724z"/>
				<path class="st126" d="M50.632,50.005V32.322c-4.883,0-8.842,3.957-8.842,8.842C41.79,46.046,45.749,50.005,50.632,50.005z"/>
			</g>
		</g>
		<g>
			<g>
				<circle class="st147" cx="86.726" cy="41.164" r="8.842"/>
				<g>
					<path class="st147" d="M100.323,73.837c0.131,1.529-1.008,2.875-2.537,3.002l0,0c-1.527,0.129-2.871-1.006-3.002-2.535
						l-1.775-20.727c-0.131-1.529,1.008-2.873,2.537-3.004l0,0c1.527-0.125,2.871,1.01,3.002,2.539L100.323,73.837z"/>
					<path class="st147" d="M72.903,73.837c-0.131,1.529,1.008,2.875,2.537,3.002l0,0c1.527,0.129,2.871-1.006,3.002-2.535
						l1.775-20.727c0.131-1.529-1.008-2.873-2.537-3.004l0,0c-1.527-0.125-2.871,1.01-3.002,2.539L72.903,73.837z"/>
					<path class="st147" d="M84.729,99.552c0,1.111-4.656,1.113-4.656,0l-0.893-26.49c0-1.113,1.441-2.014,3.221-2.014v0.002
						c1.111,0,3.221,0.898,3.221,2.012L84.729,99.552z"/>
					<path class="st147" d="M93.55,99.552c0,1.111-4.615,1.111-4.615,0l-0.912-26.49c0-1.113,1.441-2.014,3.221-2.014v0.002
						c1.111,0,3.221,0.898,3.221,2.012L93.55,99.552z"/>
					<rect x="82.399" y="76.251" class="st147" width="8.779" height="3.979"/>
					<path class="st147" d="M84.54,101.228c0,1.111-0.902,2.012-2.012,2.012l0,0c-1.113,0-2.014-0.9-2.014-2.012l-1.209-28.166
						c0-1.113,1.443-2.014,3.223-2.014v0.002c1.109,0,3.219,0.898,3.219,2.012L84.54,101.228z"/>
					<path class="st147" d="M93.13,101.228c0,1.111-0.902,2.012-2.012,2.012l0,0c-1.111,0-2.014-0.9-2.014-2.012l-1.207-28.166
						c0-1.113,1.441-2.014,3.221-2.014v0.002c1.109,0,3.219,0.898,3.219,2.012L93.13,101.228z"/>
				</g>
				<g>
					<path class="st127" d="M99.259,60.294c0.131,1.529-5.408,1.996-5.539,0.467l-0.67-7.311c-0.131-1.527,1.008-2.871,2.537-3.002
						l0,0c1.527-0.125,2.871,1.01,3.002,2.539L99.259,60.294z"/>
					<path class="st127" d="M73.851,60.107c-0.131,1.529,5.408,1.996,5.539,0.467l0.785-7.123c0.131-1.527-1.008-2.871-2.537-3.002
						l0,0c-1.527-0.125-2.871,1.01-3.002,2.539L73.851,60.107z"/>
					<path class="st127" d="M86.554,52.044c-4.328,0-4.463-1.596-9.033-1.596l0.672,24.818c0,1.711,2.5,2.002,8.189,2.021l0,0
						c0.104,0,0.195,0,0.297,0s0.193,0,0.297,0l0,0c5.672-0.02,7.939-0.311,7.939-2.021l0.672-24.818
						C91.019,50.449,90.788,52.044,86.554,52.044z"/>
				</g>
			</g>
			<g class="st84">
				<path class="st126" d="M86.726,50.005V32.322c-4.883,0-8.842,3.957-8.842,8.842C77.884,46.046,81.843,50.005,86.726,50.005z"/>
				<path class="st126" d="M86.554,52.044c-4.283,0-4.467-1.561-8.9-1.592c-0.004-0.002-0.01-0.004-0.016-0.004
					c-0.021-0.002-0.043,0.002-0.064,0.002c-0.018,0-0.033-0.002-0.053-0.002v0.002c-1.477-0.059-2.758,1.049-2.885,2.537
					l-0.785,7.119c-0.016,0.186,0.055,0.354,0.186,0.506l-1.133,13.225c-0.131,1.529,1.008,2.875,2.537,3.002
					c1.199,0.102,2.277-0.584,2.752-1.619v0.047c0,0.646,0.359,1.09,1.109,1.395l0.771,22.891c0,0.197,0.15,0.355,0.391,0.484
					l0.051,1.191c0,1.111,0.9,2.012,2.014,2.012c1.109,0,2.012-0.9,2.012-2.012l0.059-1.391c0.076-0.086,0.131-0.18,0.131-0.285
					l0.43-12.789l0.281-6.533h1.285L86.554,52.044z"/>
			</g>
		</g>
	</g>
</g>
</svg>
