<?xml version="1.0" encoding="utf-8"?>
<!-- Generator: Adobe Illustrator 16.0.0, SVG Export Plug-In . SVG Version: 6.00 Build 0)  -->
<!DOCTYPE svg PUBLIC "-//W3C//DTD SVG 1.1//EN" "http://www.w3.org/Graphics/SVG/1.1/DTD/svg11.dtd">
<svg version="1.1" id="Layer_1" xmlns="http://www.w3.org/2000/svg" xmlns:xlink="http://www.w3.org/1999/xlink" x="0px" y="0px"
	 width="136.833px" height="136.833px" viewBox="0 0 136.833 136.833" style="enable-background:new 0 0 136.833 136.833;"
	 xml:space="preserve">
<style type="text/css">
<![CDATA[
	.st0{fill:#AAA79B;}
	.st1{fill:#AAAAAA;}
	.st2{fill:#49A0AE;}
	.st3{fill:#AD9030;}
	.st4{fill:#AE7B3E;}
	.st5{fill:#117F4A;}
	.st6{fill:#E03740;}
	.st7{opacity:0.15;fill:#F0EFED;}
	.st8{fill:#E13B3B;}
	.st9{fill:#E1C821;}
	.st10{fill:#E1DEDB;}
	.st11{fill:#E2C448;}
	.st12{fill:#E34F50;}
	.st13{fill:#4ABC96;}
	.st14{fill:#E5E5E5;}
	.st15{fill:#E7E7E7;}
	.st16{fill:#E84849;}
	.st17{fill:#E8E4AA;}
	.st18{fill:#E9C11E;}
	.st19{fill:#E9E9EA;}
	.st20{fill:#B19353;}
	.st21{clip-path:url(#SVGID_2_);fill:#AAAAAA;}
	.st22{fill:#B29C76;}
	.st23{fill:#838383;}
	.st24{fill:#B2B0A6;}
	.st25{fill:#B2B2B2;}
	.st26{fill:#B4B4B5;}
	.st27{fill:#867257;}
	.st28{fill:#86847D;}
	.st29{fill:#1B7A9A;}
	.st30{fill:#B6B3A1;}
	.st31{fill:#B6B6B7;}
	.st32{fill:#B6C2CB;}
	.st33{fill:#1C4C51;}
	.st34{fill:#888888;}
	.st35{fill:#EB9682;}
	.st36{fill:#898579;}
	.st37{fill:#B8D4D8;}
	.st38{fill:#ECE17E;}
	.st39{fill:#B9972F;}
	.st40{fill:#B9A57C;}
	.st41{fill:#B9B9BA;}
	.st42{fill:#EDC92C;}
	.st43{fill:#EDEBE7;}
	.st44{fill:#525252;}
	.st45{opacity:0.15;fill:#FFFFFF;}
	.st46{fill:#565453;}
	.st47{fill:#575656;}
	.st48{fill-rule:evenodd;clip-rule:evenodd;fill:#4B4A4B;}
	.st49{clip-path:url(#SVGID_4_);fill:#AAAAAA;}
	.st50{fill:#BAE2DD;}
	.st51{fill:#BBBCBB;}
	.st52{fill:#BDB36D;}
	.st53{fill:#202121;}
	.st54{clip-path:url(#SVGID_2_);fill:#1B7A9A;}
	.st55{fill:#239563;}
	.st56{fill:#F37C2A;}
	.st57{fill:#255860;}
	.st58{fill:#F3EED5;}
	.st59{fill:#F4E028;}
	.st60{fill:#F4F4EE;}
	.st61{fill:#5ABE8F;}
	.st62{fill:#F6F2E4;}
	.st63{fill:#5C5853;}
	.st64{fill:#5C5C5C;}
	.st65{fill-rule:evenodd;clip-rule:evenodd;fill:#EB6C25;}
	.st66{fill:#2992AD;}
	.st67{fill:#5E5F5E;}
	.st68{fill:#F9F29A;}
	.st69{clip-path:url(#SVGID_2_);}
	.st70{clip-path:url(#SVGID_4_);}
	.st71{fill:#C0BFBC;}
	.st72{fill:#C0C0C0;}
	.st73{fill:#C1914F;}
	.st74{fill:#93793D;}
	.st75{fill:#C3C3C3;}
	.st76{fill:#C3D5C7;}
	.st77{fill:#C4A830;}
	.st78{clip-path:url(#SVGID_4_);fill:#1B7A9A;}
	.st79{fill:#C698C5;}
	.st80{fill:#972627;}
	.st81{fill:#C6C5C5;}
	.st82{fill:#C74A39;}
	.st83{fill:#C84027;}
	.st84{opacity:0.1;}
	.st85{fill:#616161;}
	.st86{fill:#FFCE00;}
	.st87{fill:#FFF5F4;}
	.st88{fill:#FFFFFF;}
	.st89{fill:#63BD6E;}
	.st90{fill-rule:evenodd;clip-rule:evenodd;fill:#F37C2A;}
	.st91{fill:none;}
	.st92{fill:#65A844;}
	.st93{fill:#667580;}
	.st94{fill:#CAE8E4;}
	.st95{fill:#9C9C9C;}
	.st96{fill:#CBBD7D;}
	.st97{fill:#CC4028;}
	.st98{fill:#CCC375;}
	.st99{fill:#CCC788;}
	.st100{fill:#9DDAEC;}
	.st101{fill:#CDAB2D;}
	.st102{fill:#CDCCCB;}
	.st103{fill:#CDCDCE;}
	.st104{fill:#CDE7D5;}
	.st105{fill:#9F77AA;}
	.st106{fill:#CECBCB;}
	.st107{fill:#357180;}
	.st108{fill:#6BA297;}
	.st109{fill:#6EC2CB;}
	.st110{fill:#D0D1D1;}
	.st111{fill:#D1974F;}
	.st112{fill:#D1AFD2;}
	.st113{fill:#D22027;}
	.st114{fill:#D2B63D;}
	.st115{fill:#D2D2D2;}
	.st116{fill:#D32033;}
	.st117{clip-path:url(#SVGID_2_);fill:#CDCDCE;}
	.st118{fill:#D51F31;}
	.st119{fill:#D5C7C3;}
	.st120{fill:#D5D6D5;}
	.st121{fill:#3B3A38;}
	.st122{fill:#3B6DA2;}
	.st123{fill:#D6CB78;}
	.st124{fill:#D73D3D;}
	.st125{fill:#D7B029;}
	.st126{fill:#D8D8D7;}
	.st127{fill:#A03D3D;}
	.st128{fill:#A09592;}
	.st129{fill:#717171;}
	.st130{fill:#A19F9F;}
	.st131{fill:#727172;}
	.st132{fill:#F9F29A;stroke:#E1C821;stroke-miterlimit:10;}
	.st133{fill:#A2D1C9;}
	.st134{fill:#A33B3B;}
	.st135{fill:#A48A47;}
	.st136{fill:#DAC425;}
	.st137{fill:#786547;}
	.st138{fill:#787878;}
	.st139{fill:#A7A8A7;}
	.st140{fill-rule:evenodd;clip-rule:evenodd;fill:#6DABB5;}
	.st141{fill:#DCD99D;}
	.st142{fill:#DD5231;}
	.st143{clip-path:url(#SVGID_4_);fill:#CDCDCE;}
	.st144{fill:#DDDACA;}
	.st145{fill:#DDDCD6;}
	.st146{fill:#DDDDDC;}
	.st147{fill:#404040;}
	.st148{fill:#DEBA24;}
	.st149{fill:#DFBFDB;}
	.st150{fill:#DFD48A;}
	.st151{fill:#DFDFDF;}
	.st152{fill:#444545;}
	.st153{fill:#45423F;}
]]>
</style>
<g>
	<g>
		<circle class="st16" cx="68.417" cy="68.416" r="63.333"/>
		<g>
			<path class="st37" d="M97.308,48.115l-48.637-3.926c-2.104,0-4.465,1.609-3.809,3.588l7.854,27.547
				c0.891,2.482,2.945,2.51,5.049,2.51h36.689c2.104,0,3.807-1.607,3.807-3.586l2.854-22.053
				C101.115,50.214,99.947,48.339,97.308,48.115z M92.97,71.482c0,1.566-1.346,2.838-3.012,2.838H60.933
				c-1.664,0-3.289-0.021-3.994-1.986l-6.213-21.791c-0.518-1.566,1.35-2.838,3.014-2.838l38.477,3.105
				c2.088,0.178,3.012,1.658,3.012,3.225L92.97,71.482z"/>
		</g>
		<circle class="st48" cx="84.466" cy="94.13" r="6.223"/>
		<path class="st48" d="M53.72,87.908c-3.439,0-6.223,2.785-6.223,6.223c0,3.436,2.783,6.223,6.223,6.223
			c3.438,0,6.223-2.787,6.223-6.223C59.943,90.693,57.158,87.908,53.72,87.908z"/>
		<path class="st140" d="M40.464,44.058c0,1.396-1.201,2.527-2.682,2.527h-9.559c-1.482,0-2.682-1.131-2.682-2.527l0,0
			c0-1.395,1.199-2.523,2.682-2.523h9.559C39.263,41.535,40.464,42.664,40.464,44.058L40.464,44.058z"/>
		<path class="st140" d="M95.957,83.589c0,1.395-1.201,2.525-2.682,2.525H49.207c-1.48,0-2.68-1.131-2.68-2.525l0,0
			c0-1.395,1.199-2.525,2.68-2.525h44.068C94.755,81.064,95.957,82.195,95.957,83.589L95.957,83.589z"/>
		<path class="st140" d="M51.539,81.925l-11.383-38.42c-0.393-1.346-1.867-2.135-3.297-1.766c-1.428,0.371-2.268,1.76-1.873,3.105
			l11.383,38.42c0.393,1.346,1.869,2.137,3.295,1.766C51.093,84.66,51.933,83.271,51.539,81.925z"/>
		<path class="st37" d="M99.263,57.998c-0.041,0.75-1.514,1.287-3.289,1.197l-44.443-2.201c-1.775-0.09-3.18-0.768-3.139-1.52l0,0
			c0.043-0.75,1.516-1.287,3.291-1.199l44.443,2.205C97.902,56.568,99.304,57.248,99.263,57.998L99.263,57.998z"/>
		<path class="st37" d="M97.326,66.343c-0.021,0.75-1.303,1.328-2.867,1.287l-39.113-0.975c-1.564-0.041-2.814-0.68-2.793-1.432l0,0
			c0.02-0.75,1.305-1.326,2.867-1.289l39.115,0.977C96.099,64.951,97.347,65.591,97.326,66.343L97.326,66.343z"/>
		<path class="st64" d="M48.564,95.679c-1.158-1.156,0.113-4.365,1.271-5.523s3.963-2.258,5.121-1.1
			C56.115,90.216,49.722,96.839,48.564,95.679z"/>
		<path class="st64" d="M79.089,95.679c-1.158-1.156,0.113-4.365,1.271-5.523c1.16-1.158,3.963-2.258,5.123-1.1
			C86.64,90.216,80.248,96.839,79.089,95.679z"/>
	</g>
</g>
</svg>
