<?xml version="1.0" encoding="utf-8"?>
<!-- Generator: Adobe Illustrator 16.0.0, SVG Export Plug-In . SVG Version: 6.00 Build 0)  -->
<!DOCTYPE svg PUBLIC "-//W3C//DTD SVG 1.1//EN" "http://www.w3.org/Graphics/SVG/1.1/DTD/svg11.dtd">
<svg version="1.1" id="Layer_1" xmlns="http://www.w3.org/2000/svg" xmlns:xlink="http://www.w3.org/1999/xlink" x="0px" y="0px"
	 width="136.833px" height="136.834px" viewBox="0 0 136.833 136.834" style="enable-background:new 0 0 136.833 136.834;"
	 xml:space="preserve">
<style type="text/css">
<![CDATA[
	.st0{fill:#AAA79B;}
	.st1{fill:#AAAAAA;}
	.st2{fill:#49A0AE;}
	.st3{fill:#AD9030;}
	.st4{fill:#AE7B3E;}
	.st5{fill:#117F4A;}
	.st6{fill:#E03740;}
	.st7{opacity:0.15;fill:#F0EFED;}
	.st8{fill:#E13B3B;}
	.st9{fill:#E1C821;}
	.st10{fill:#E1DEDB;}
	.st11{fill:#E2C448;}
	.st12{fill:#E34F50;}
	.st13{fill:#4ABC96;}
	.st14{fill:#E5E5E5;}
	.st15{fill:#E7E7E7;}
	.st16{fill:#E84849;}
	.st17{fill:#E8E4AA;}
	.st18{fill:#E9C11E;}
	.st19{fill:#E9E9EA;}
	.st20{fill:#B19353;}
	.st21{clip-path:url(#SVGID_2_);fill:#AAAAAA;}
	.st22{fill:#B29C76;}
	.st23{fill:#838383;}
	.st24{fill:#B2B0A6;}
	.st25{fill:#B2B2B2;}
	.st26{fill:#B4B4B5;}
	.st27{fill:#867257;}
	.st28{fill:#86847D;}
	.st29{fill:#1B7A9A;}
	.st30{fill:#B6B3A1;}
	.st31{fill:#B6B6B7;}
	.st32{fill:#B6C2CB;}
	.st33{fill:#1C4C51;}
	.st34{fill:#888888;}
	.st35{fill:#EB9682;}
	.st36{fill:#898579;}
	.st37{fill:#B8D4D8;}
	.st38{fill:#ECE17E;}
	.st39{fill:#B9972F;}
	.st40{fill:#B9A57C;}
	.st41{fill:#B9B9BA;}
	.st42{fill:#EDC92C;}
	.st43{fill:#EDEBE7;}
	.st44{fill:#525252;}
	.st45{opacity:0.15;fill:#FFFFFF;}
	.st46{fill:#565453;}
	.st47{fill:#575656;}
	.st48{fill-rule:evenodd;clip-rule:evenodd;fill:#4B4A4B;}
	.st49{clip-path:url(#SVGID_4_);fill:#AAAAAA;}
	.st50{fill:#BAE2DD;}
	.st51{fill:#BBBCBB;}
	.st52{fill:#BDB36D;}
	.st53{fill:#202121;}
	.st54{clip-path:url(#SVGID_2_);fill:#1B7A9A;}
	.st55{fill:#239563;}
	.st56{fill:#F37C2A;}
	.st57{fill:#255860;}
	.st58{fill:#F3EED5;}
	.st59{fill:#F4E028;}
	.st60{fill:#F4F4EE;}
	.st61{fill:#5ABE8F;}
	.st62{fill:#F6F2E4;}
	.st63{fill:#5C5853;}
	.st64{fill:#5C5C5C;}
	.st65{fill-rule:evenodd;clip-rule:evenodd;fill:#EB6C25;}
	.st66{fill:#2992AD;}
	.st67{fill:#5E5F5E;}
	.st68{fill:#F9F29A;}
	.st69{clip-path:url(#SVGID_2_);}
	.st70{clip-path:url(#SVGID_4_);}
	.st71{fill:#C0BFBC;}
	.st72{fill:#C0C0C0;}
	.st73{fill:#C1914F;}
	.st74{fill:#93793D;}
	.st75{fill:#C3C3C3;}
	.st76{fill:#C3D5C7;}
	.st77{fill:#C4A830;}
	.st78{clip-path:url(#SVGID_4_);fill:#1B7A9A;}
	.st79{fill:#C698C5;}
	.st80{fill:#972627;}
	.st81{fill:#C6C5C5;}
	.st82{fill:#C74A39;}
	.st83{fill:#C84027;}
	.st84{opacity:0.1;}
	.st85{fill:#616161;}
	.st86{fill:#FFCE00;}
	.st87{fill:#FFF5F4;}
	.st88{fill:#FFFFFF;}
	.st89{fill:#63BD6E;}
	.st90{fill-rule:evenodd;clip-rule:evenodd;fill:#F37C2A;}
	.st91{fill:none;}
	.st92{fill:#65A844;}
	.st93{fill:#667580;}
	.st94{fill:#CAE8E4;}
	.st95{fill:#9C9C9C;}
	.st96{fill:#CBBD7D;}
	.st97{fill:#CC4028;}
	.st98{fill:#CCC375;}
	.st99{fill:#CCC788;}
	.st100{fill:#9DDAEC;}
	.st101{fill:#CDAB2D;}
	.st102{fill:#CDCCCB;}
	.st103{fill:#CDCDCE;}
	.st104{fill:#CDE7D5;}
	.st105{fill:#9F77AA;}
	.st106{fill:#CECBCB;}
	.st107{fill:#357180;}
	.st108{fill:#6BA297;}
	.st109{fill:#6EC2CB;}
	.st110{fill:#D0D1D1;}
	.st111{fill:#D1974F;}
	.st112{fill:#D1AFD2;}
	.st113{fill:#D22027;}
	.st114{fill:#D2B63D;}
	.st115{fill:#D2D2D2;}
	.st116{fill:#D32033;}
	.st117{clip-path:url(#SVGID_2_);fill:#CDCDCE;}
	.st118{fill:#D51F31;}
	.st119{fill:#D5C7C3;}
	.st120{fill:#D5D6D5;}
	.st121{fill:#3B3A38;}
	.st122{fill:#3B6DA2;}
	.st123{fill:#D6CB78;}
	.st124{fill:#D73D3D;}
	.st125{fill:#D7B029;}
	.st126{fill:#D8D8D7;}
	.st127{fill:#A03D3D;}
	.st128{fill:#A09592;}
	.st129{fill:#717171;}
	.st130{fill:#A19F9F;}
	.st131{fill:#727172;}
	.st132{fill:#F9F29A;stroke:#E1C821;stroke-miterlimit:10;}
	.st133{fill:#A2D1C9;}
	.st134{fill:#A33B3B;}
	.st135{fill:#A48A47;}
	.st136{fill:#DAC425;}
	.st137{fill:#786547;}
	.st138{fill:#787878;}
	.st139{fill:#A7A8A7;}
	.st140{fill-rule:evenodd;clip-rule:evenodd;fill:#6DABB5;}
	.st141{fill:#DCD99D;}
	.st142{fill:#DD5231;}
	.st143{clip-path:url(#SVGID_4_);fill:#CDCDCE;}
	.st144{fill:#DDDACA;}
	.st145{fill:#DDDCD6;}
	.st146{fill:#DDDDDC;}
	.st147{fill:#404040;}
	.st148{fill:#DEBA24;}
	.st149{fill:#DFBFDB;}
	.st150{fill:#DFD48A;}
	.st151{fill:#DFDFDF;}
	.st152{fill:#444545;}
	.st153{fill:#45423F;}
]]>
</style>
<g>
	<g>
		<circle class="st105" cx="68.417" cy="68.417" r="63.333"/>
		<g>
			<g>
				<g>
					<g>
						<path class="st136" d="M52.243,72.932c0,3.704-6.393,6.706-14.276,6.706c-7.883,0-14.274-3.002-14.274-6.706
							c0-3.703-1.427-6.705,14.274-6.705C53.864,66.227,52.243,69.229,52.243,72.932z"/>
						<ellipse class="st59" cx="37.968" cy="70.25" rx="14.275" ry="6.704"/>
						<path class="st68" d="M31.393,76.22c0,0,2.767,0.691,5.623,0.734l0.044,2.684c0,0-3.375,0.086-5.646-0.758L31.393,76.22z"/>
					</g>
					<g>
						<path class="st136" d="M51.724,68.426c0,3.702-6.392,6.703-14.276,6.703c-7.884,0-14.275-3.001-14.275-6.703
							c0-3.705-1.427-6.705,14.275-6.705C53.346,61.721,51.724,64.721,51.724,68.426z"/>
						<ellipse class="st59" cx="37.448" cy="65.744" rx="14.276" ry="6.705"/>
						<path class="st68" d="M30.871,71.712c0,0,2.77,0.694,5.625,0.736l0.044,2.681c0,0-3.374,0.09-5.646-0.756L30.871,71.712z"/>
					</g>
					<g>
						<path class="st136" d="M52.243,64.383c0,3.705-6.393,6.706-14.276,6.706c-7.883,0-14.274-3.001-14.274-6.706
							c0-3.703-1.427-6.705,14.274-6.705C53.864,57.678,52.243,60.68,52.243,64.383z"/>
						<ellipse class="st59" cx="37.968" cy="61.702" rx="14.275" ry="6.704"/>
						<path class="st68" d="M31.393,67.67c0,0,2.767,0.694,5.623,0.735l0.044,2.684c0,0-3.375,0.085-5.646-0.757L31.393,67.67z"/>
					</g>
					<g>
						<path class="st136" d="M51.724,60.341c0,3.704-6.392,6.705-14.276,6.705c-7.884,0-14.275-3.001-14.275-6.705
							c0-3.702-1.427-6.706,14.275-6.706C53.346,53.635,51.724,56.639,51.724,60.341z"/>
						<ellipse class="st59" cx="37.448" cy="57.66" rx="14.276" ry="6.706"/>
						<path class="st68" d="M30.871,63.629c0,0,2.77,0.691,5.625,0.736l0.044,2.681c0,0-3.374,0.087-5.646-0.757L30.871,63.629z"/>
					</g>
					<g>
						<path class="st136" d="M51.204,56.299c0,3.703-6.391,6.705-14.275,6.705c-7.885,0-14.274-3.002-14.274-6.705
							s-1.429-6.706,14.274-6.706C52.827,49.593,51.204,52.596,51.204,56.299z"/>
						<ellipse class="st59" cx="36.929" cy="53.618" rx="14.275" ry="6.703"/>
						<path class="st68" d="M30.353,59.586c0,0,2.769,0.693,5.625,0.734l0.042,2.684c0,0-3.374,0.086-5.645-0.758L30.353,59.586z"/>
					</g>
					<g>
						<path class="st136" d="M51.724,52.256c0,3.703-6.392,6.707-14.276,6.707c-7.884,0-14.275-3.004-14.275-6.707
							s-1.427-6.705,14.275-6.705C53.346,45.551,51.724,48.553,51.724,52.256z"/>
						<ellipse class="st59" cx="37.448" cy="49.575" rx="14.276" ry="6.705"/>
						<ellipse class="st132" cx="37.448" cy="49.271" rx="11.956" ry="5.617"/>
						<path class="st68" d="M30.871,55.544c0,0,2.77,0.692,5.625,0.735l0.044,2.684c0,0-3.374,0.085-5.646-0.758L30.871,55.544z"/>
					</g>
				</g>
				<g>
					<g>
						<path class="st136" d="M118.353,72.105c0,3.703-6.391,6.707-14.275,6.707c-7.885,0-14.275-3.004-14.275-6.707
							c0-3.702-1.427-6.704,14.275-6.704C119.975,65.401,118.353,68.403,118.353,72.105z"/>
						<path class="st59" d="M118.353,69.422c0,3.704-6.391,6.708-14.275,6.708c-7.885,0-14.275-3.003-14.275-6.708
							c0-3.701,6.39-6.705,14.275-6.705C111.961,62.717,118.353,65.721,118.353,69.422z"/>
						<path class="st68" d="M97.501,75.394c0,0,2.769,0.691,5.625,0.736l0.042,2.682c0,0-3.373,0.084-5.645-0.76L97.501,75.394z"/>
					</g>
					<g>
						<path class="st136" d="M117.834,67.599c0,3.702-6.393,6.705-14.276,6.705c-7.883,0-14.275-3.003-14.275-6.705
							c0-3.704-1.429-6.704,14.275-6.704C119.457,60.895,117.834,63.895,117.834,67.599z"/>
						<path class="st59" d="M117.834,64.917c0,3.704-6.393,6.707-14.276,6.707c-7.883,0-14.275-3.003-14.275-6.707
							c0-3.701,6.392-6.705,14.275-6.705C111.442,58.211,117.834,61.215,117.834,64.917z"/>
						<path class="st68" d="M96.982,70.885c0,0,2.77,0.693,5.625,0.738l0.043,2.681c0,0-3.375,0.088-5.646-0.756L96.982,70.885z"/>
					</g>
					<g>
						<path class="st136" d="M118.353,63.557c0,3.704-6.391,6.705-14.275,6.705c-7.885,0-14.275-3.001-14.275-6.705
							c0-3.703-1.427-6.705,14.275-6.705C119.975,56.852,118.353,59.854,118.353,63.557z"/>
						<ellipse class="st59" cx="104.078" cy="60.875" rx="14.275" ry="6.703"/>
						<path class="st68" d="M97.501,66.844c0,0,2.769,0.693,5.625,0.734l0.042,2.684c0,0-3.373,0.086-5.645-0.756L97.501,66.844z"/>
					</g>
					<g>
						<path class="st136" d="M117.834,59.514c0,3.704-6.393,6.705-14.276,6.705c-7.883,0-14.275-3.001-14.275-6.705
							c0-3.701-1.429-6.705,14.275-6.705C119.457,52.809,117.834,55.813,117.834,59.514z"/>
						<ellipse class="st59" cx="103.559" cy="56.833" rx="14.276" ry="6.707"/>
						<path class="st68" d="M96.982,62.802c0,0,2.77,0.692,5.625,0.737l0.043,2.68c0,0-3.375,0.088-5.646-0.756L96.982,62.802z"/>
					</g>
					<g>
						<path class="st136" d="M117.313,55.473c0,3.703-6.39,6.704-14.275,6.704c-7.883,0-14.274-3.001-14.274-6.704
							c0-3.704-1.427-6.705,14.274-6.705C118.937,48.768,117.313,51.769,117.313,55.473z"/>
						<ellipse class="st59" cx="103.039" cy="52.792" rx="14.275" ry="6.704"/>
						<path class="st68" d="M96.464,58.759c0,0,2.769,0.693,5.623,0.736l0.042,2.682c0,0-3.373,0.087-5.644-0.757L96.464,58.759z"/>
					</g>
					<g>
						<path class="st136" d="M117.834,51.431c0,3.702-6.393,6.705-14.276,6.705c-7.883,0-14.275-3.003-14.275-6.705
							c0-3.704-1.429-6.706,14.275-6.706C119.457,44.725,117.834,47.727,117.834,51.431z"/>
						<ellipse class="st59" cx="103.559" cy="48.749" rx="14.276" ry="6.705"/>
						<ellipse class="st132" cx="103.558" cy="48.444" rx="11.956" ry="5.617"/>
						<path class="st68" d="M96.982,54.717c0,0,2.77,0.692,5.625,0.736l0.043,2.683c0,0-3.375,0.085-5.646-0.757L96.982,54.717z"/>
					</g>
				</g>
				<g>
					<g>
						<path class="st136" d="M65.188,68.268c0,3.704-6.393,6.705-14.276,6.705c-7.884,0-14.275-3.001-14.275-6.705
							c0-3.701-1.427-6.705,14.275-6.705C66.811,61.563,65.188,64.567,65.188,68.268z"/>
						<ellipse class="st59" cx="50.913" cy="65.586" rx="14.275" ry="6.706"/>
						<path class="st68" d="M44.337,71.556c0,0,2.767,0.692,5.623,0.736l0.044,2.681c0,0-3.375,0.088-5.646-0.756L44.337,71.556z"/>
					</g>
					<g>
						<path class="st136" d="M64.668,63.762c0,3.704-6.391,6.705-14.276,6.705c-7.883,0-14.275-3.001-14.275-6.705
							c0-3.703-1.427-6.704,14.275-6.704C66.291,57.058,64.668,60.059,64.668,63.762z"/>
						<ellipse class="st59" cx="50.393" cy="61.081" rx="14.276" ry="6.706"/>
						<path class="st68" d="M43.817,67.05c0,0,2.769,0.692,5.624,0.736l0.043,2.681c0,0-3.374,0.087-5.646-0.756L43.817,67.05z"/>
					</g>
					<g>
						<path class="st136" d="M65.188,59.721c0,3.703-6.393,6.704-14.276,6.704c-7.884,0-14.275-3.001-14.275-6.704
							s-1.427-6.705,14.275-6.705C66.811,53.016,65.188,56.018,65.188,59.721z"/>
						<ellipse class="st59" cx="50.913" cy="57.04" rx="14.275" ry="6.704"/>
						<path class="st68" d="M44.337,63.007c0,0,2.767,0.692,5.623,0.736l0.044,2.682c0,0-3.375,0.087-5.646-0.757L44.337,63.007z"/>
					</g>
					<g>
						<path class="st136" d="M64.668,55.677c0,3.704-6.391,6.707-14.276,6.707c-7.883,0-14.275-3.003-14.275-6.707
							c0-3.702-1.427-6.704,14.275-6.704C66.291,48.973,64.668,51.975,64.668,55.677z"/>
						<ellipse class="st59" cx="50.393" cy="52.997" rx="14.276" ry="6.705"/>
						<path class="st68" d="M43.817,58.965c0,0,2.769,0.692,5.624,0.736l0.043,2.683c0,0-3.374,0.085-5.646-0.759L43.817,58.965z"/>
					</g>
					<g>
						<path class="st136" d="M64.149,51.636c0,3.704-6.392,6.705-14.274,6.705c-7.886,0-14.275-3.001-14.275-6.705
							s-1.429-6.706,14.275-6.706C65.771,44.93,64.149,47.932,64.149,51.636z"/>
						<ellipse class="st59" cx="49.874" cy="48.954" rx="14.275" ry="6.705"/>
						<path class="st68" d="M43.298,54.924c0,0,2.769,0.69,5.625,0.734l0.042,2.683c0,0-3.374,0.086-5.644-0.758L43.298,54.924z"/>
					</g>
					<g>
						<path class="st136" d="M64.668,47.593c0,3.703-6.391,6.706-14.276,6.706c-7.883,0-14.275-3.003-14.275-6.706
							c0-3.704-1.427-6.705,14.275-6.705C66.291,40.888,64.668,43.889,64.668,47.593z"/>
						<path class="st59" d="M64.668,44.913c0,3.701-6.391,6.703-14.276,6.703c-7.883,0-14.275-3.002-14.275-6.703
							c0-3.705,6.392-6.705,14.275-6.705C58.277,38.208,64.668,41.208,64.668,44.913z"/>
						<ellipse class="st132" cx="50.393" cy="44.608" rx="11.957" ry="5.617"/>
						<path class="st68" d="M43.817,50.881c0,0,2.769,0.693,5.624,0.734l0.043,2.684c0,0-3.374,0.086-5.646-0.758L43.817,50.881z"/>
					</g>
				</g>
				<g>
					<g>
						<path class="st136" d="M84.576,54.44c0,3.703-6.393,6.705-14.276,6.705s-14.274-3.002-14.274-6.705s-1.428-6.705,14.274-6.705
							C86.197,47.735,84.576,50.737,84.576,54.44z"/>
						<ellipse class="st59" cx="70.301" cy="51.758" rx="14.275" ry="6.705"/>
						<path class="st68" d="M63.725,57.727c0,0,2.767,0.693,5.623,0.736l0.044,2.682c0,0-3.374,0.085-5.646-0.757L63.725,57.727z"/>
					</g>
					<g>
						<path class="st136" d="M84.057,49.934c0,3.701-6.392,6.705-14.276,6.705c-7.884,0-14.275-3.004-14.275-6.705
							c0-3.704-1.427-6.705,14.275-6.705C85.679,43.229,84.057,46.23,84.057,49.934z"/>
						<path class="st59" d="M84.057,47.251c0,3.704-6.392,6.706-14.276,6.706c-7.884,0-14.275-3.002-14.275-6.706
							c0-3.7,6.391-6.704,14.275-6.704C77.665,40.547,84.057,43.551,84.057,47.251z"/>
						<path class="st68" d="M63.204,53.221c0,0,2.77,0.693,5.625,0.736l0.044,2.682c0,0-3.374,0.087-5.646-0.757L63.204,53.221z"/>
					</g>
					<g>
						<path class="st136" d="M84.576,45.891c0,3.704-6.393,6.705-14.276,6.705s-14.274-3.001-14.274-6.705
							c0-3.703-1.428-6.705,14.274-6.705C86.197,39.186,84.576,42.188,84.576,45.891z"/>
						<ellipse class="st59" cx="70.301" cy="43.209" rx="14.275" ry="6.705"/>
						<path class="st68" d="M63.725,49.178c0,0,2.767,0.693,5.623,0.736l0.044,2.682c0,0-3.374,0.087-5.646-0.757L63.725,49.178z"/>
					</g>
					<g>
						<path class="st136" d="M84.057,41.85c0,3.703-6.392,6.705-14.276,6.705c-7.884,0-14.275-3.002-14.275-6.705
							s-1.427-6.705,14.275-6.705C85.679,35.145,84.057,38.147,84.057,41.85z"/>
						<path class="st59" d="M84.057,39.167c0,3.705-6.392,6.707-14.276,6.707c-7.884,0-14.275-3.002-14.275-6.707
							c0-3.701,6.391-6.705,14.275-6.705C77.665,32.461,84.057,35.465,84.057,39.167z"/>
						<path class="st68" d="M63.204,45.138c0,0,2.77,0.69,5.625,0.735l0.044,2.682c0,0-3.374,0.087-5.646-0.758L63.204,45.138z"/>
					</g>
					<g>
						<path class="st136" d="M83.537,37.807c0,3.702-6.392,6.705-14.275,6.705c-7.885,0-14.274-3.003-14.274-6.705
							c0-3.703-1.429-6.705,14.274-6.705C85.159,31.102,83.537,34.104,83.537,37.807z"/>
						<ellipse class="st59" cx="69.262" cy="35.125" rx="14.275" ry="6.705"/>
						<path class="st68" d="M62.686,41.095c0,0,2.769,0.69,5.625,0.735l0.042,2.682c0,0-3.375,0.086-5.644-0.758L62.686,41.095z"/>
					</g>
					<g>
						<path class="st136" d="M84.057,33.764c0,3.705-6.392,6.706-14.276,6.706c-7.884,0-14.275-3.001-14.275-6.706
							c0-3.702-1.427-6.703,14.275-6.703C85.679,27.061,84.057,30.062,84.057,33.764z"/>
						<ellipse class="st59" cx="69.781" cy="31.083" rx="14.276" ry="6.707"/>
						<ellipse class="st132" cx="69.78" cy="30.78" rx="11.956" ry="5.617"/>
						<path class="st68" d="M63.204,37.052c0,0,2.77,0.691,5.625,0.737l0.044,2.681c0,0-3.374,0.087-5.646-0.757L63.204,37.052z"/>
					</g>
				</g>
				<g>
					<g>
						<path class="st136" d="M100.059,69.743c0,3.703-6.391,6.706-14.275,6.706c-7.885,0-14.275-3.002-14.275-6.706
							c0-3.701-1.427-6.705,14.275-6.705C101.681,63.038,100.059,66.042,100.059,69.743z"/>
						<ellipse class="st59" cx="85.784" cy="67.061" rx="14.275" ry="6.705"/>
						<path class="st68" d="M79.208,73.031c0,0,2.769,0.692,5.625,0.735l0.042,2.682c0,0-3.372,0.086-5.644-0.758L79.208,73.031z"/>
					</g>
					<g>
						<path class="st136" d="M99.541,65.237c0,3.702-6.393,6.705-14.276,6.705c-7.884,0-14.274-3.003-14.274-6.705
							c0-3.703-1.429-6.705,14.274-6.705C101.163,58.532,99.541,61.534,99.541,65.237z"/>
						<ellipse class="st59" cx="85.266" cy="62.555" rx="14.275" ry="6.705"/>
						<path class="st68" d="M78.688,68.524c0,0,2.771,0.693,5.625,0.736l0.044,2.682c0,0-3.375,0.087-5.646-0.758L78.688,68.524z"/>
					</g>
					<g>
						<path class="st136" d="M100.059,61.194c0,3.704-6.391,6.707-14.275,6.707c-7.885,0-14.275-3.003-14.275-6.707
							c0-3.703-1.427-6.705,14.275-6.705C101.681,54.489,100.059,57.491,100.059,61.194z"/>
						<ellipse class="st59" cx="85.784" cy="58.512" rx="14.275" ry="6.705"/>
						<path class="st68" d="M79.208,64.482c0,0,2.769,0.692,5.625,0.735l0.042,2.684c0,0-3.372,0.085-5.644-0.758L79.208,64.482z"/>
					</g>
					<g>
						<path class="st136" d="M99.541,57.151c0,3.704-6.393,6.707-14.276,6.707c-7.884,0-14.274-3.003-14.274-6.707
							c0-3.701-1.429-6.703,14.274-6.703C101.163,50.448,99.541,53.45,99.541,57.151z"/>
						<ellipse class="st59" cx="85.266" cy="54.47" rx="14.275" ry="6.705"/>
						<path class="st68" d="M78.688,60.44c0,0,2.771,0.691,5.625,0.735l0.044,2.683c0,0-3.375,0.086-5.646-0.758L78.688,60.44z"/>
					</g>
					<g>
						<path class="st136" d="M99.021,53.11c0,3.703-6.391,6.705-14.276,6.705c-7.883,0-14.274-3.002-14.274-6.705
							s-1.427-6.705,14.274-6.705C100.643,46.405,99.021,49.407,99.021,53.11z"/>
						<ellipse class="st59" cx="84.746" cy="50.427" rx="14.275" ry="6.706"/>
						<path class="st68" d="M78.17,56.397c0,0,2.769,0.693,5.623,0.736l0.042,2.682c0,0-3.373,0.086-5.645-0.757L78.17,56.397z"/>
					</g>
					<g>
						<path class="st136" d="M99.541,49.068c0,3.702-6.393,6.705-14.276,6.705c-7.884,0-14.274-3.003-14.274-6.705
							c0-3.704-1.429-6.706,14.274-6.706C101.163,42.362,99.541,45.364,99.541,49.068z"/>
						<ellipse class="st59" cx="85.266" cy="46.385" rx="14.275" ry="6.705"/>
						<ellipse class="st132" cx="85.265" cy="46.083" rx="11.956" ry="5.617"/>
						<path class="st68" d="M78.688,52.356c0,0,2.771,0.69,5.625,0.734l0.044,2.683c0,0-3.375,0.087-5.646-0.757L78.688,52.356z"/>
					</g>
				</g>
				<g>
					<g>
						<path class="st136" d="M84.18,82.786c0,3.703-6.393,6.705-14.276,6.705c-7.884,0-14.275-3.002-14.275-6.705
							s-1.427-6.705,14.275-6.705C85.802,76.081,84.18,79.083,84.18,82.786z"/>
						<ellipse class="st59" cx="69.904" cy="80.104" rx="14.275" ry="6.705"/>
						<path class="st68" d="M63.329,86.073c0,0,2.769,0.693,5.624,0.736l0.044,2.682c0,0-3.375,0.086-5.646-0.756L63.329,86.073z"/>
					</g>
					<g>
						<path class="st136" d="M83.66,78.28c0,3.703-6.391,6.705-14.274,6.705c-7.885,0-14.276-3.002-14.276-6.705
							c0-3.704-1.428-6.704,14.276-6.704C85.282,71.577,83.66,74.577,83.66,78.28z"/>
						<ellipse class="st59" cx="69.385" cy="75.599" rx="14.275" ry="6.705"/>
						<path class="st68" d="M62.81,81.567c0,0,2.77,0.693,5.625,0.736l0.042,2.682c0,0-3.375,0.088-5.645-0.756L62.81,81.567z"/>
					</g>
					<g>
						<path class="st136" d="M84.18,74.238c0,3.705-6.393,6.705-14.276,6.705c-7.884,0-14.275-3-14.275-6.705
							c0-3.702-1.427-6.706,14.275-6.706C85.802,67.532,84.18,70.536,84.18,74.238z"/>
						<ellipse class="st59" cx="69.904" cy="71.556" rx="14.275" ry="6.705"/>
						<path class="st68" d="M63.329,77.526c0,0,2.769,0.691,5.624,0.734l0.044,2.682c0,0-3.375,0.088-5.646-0.756L63.329,77.526z"/>
					</g>
					<g>
						<path class="st136" d="M83.66,70.196c0,3.703-6.391,6.706-14.274,6.706c-7.885,0-14.276-3.002-14.276-6.706
							s-1.428-6.706,14.276-6.706C85.282,63.49,83.66,66.493,83.66,70.196z"/>
						<ellipse class="st59" cx="69.385" cy="67.514" rx="14.275" ry="6.705"/>
						<path class="st68" d="M62.81,73.485c0,0,2.77,0.69,5.625,0.734l0.042,2.682c0,0-3.375,0.086-5.645-0.758L62.81,73.485z"/>
					</g>
					<g>
						<path class="st136" d="M83.141,66.154c0,3.702-6.391,6.706-14.274,6.706c-7.884,0-14.275-3.004-14.275-6.706
							c0-3.704-1.429-6.705,14.275-6.705C84.763,59.449,83.141,62.45,83.141,66.154z"/>
						<ellipse class="st59" cx="68.866" cy="63.471" rx="14.275" ry="6.705"/>
						<path class="st68" d="M62.291,69.44c0,0,2.767,0.693,5.623,0.736l0.042,2.684c0,0-3.374,0.084-5.644-0.76L62.291,69.44z"/>
					</g>
					<g>
						<path class="st136" d="M83.66,62.112c0,3.703-6.391,6.705-14.274,6.705c-7.885,0-14.276-3.002-14.276-6.705
							s-1.428-6.706,14.276-6.706C85.282,55.406,83.66,58.409,83.66,62.112z"/>
						<ellipse class="st59" cx="69.385" cy="59.428" rx="14.275" ry="6.705"/>
						<ellipse class="st132" cx="69.385" cy="59.126" rx="11.957" ry="5.617"/>
						<path class="st68" d="M62.81,65.399c0,0,2.77,0.691,5.625,0.734l0.042,2.684c0,0-3.375,0.086-5.645-0.758L62.81,65.399z"/>
					</g>
				</g>
			</g>
			<g>
				<g>
					<g>
						
							<rect x="34.582" y="71.122" transform="matrix(0.972 -0.2348 0.2348 0.972 -18.4977 19.3817)" class="st89" width="75.126" height="32.502"/>
						<path class="st5" d="M110.89,93.21l-70.552,17.041l-6.935-28.715l70.55-17.042L110.89,93.21z M103.506,65.389l-69.3,16.739
							l6.577,27.229l69.3-16.738L103.506,65.389z"/>
						<circle class="st5" cx="72.144" cy="87.373" r="14.07"/>
					</g>
					<g>
						
							<rect x="34.583" y="71.352" transform="matrix(0.9925 -0.1225 0.1225 0.9925 -10.1909 9.5006)" class="st89" width="75.125" height="32.503"/>
						<path class="st5" d="M109.972,97.817l-72.033,8.891L34.32,77.39l72.033-8.891L109.972,97.817z M105.807,69.336l-70.754,8.733
							l3.431,27.801l70.755-8.734L105.807,69.336z"/>
						<circle class="st5" cx="72.145" cy="87.604" r="14.07"/>
					</g>
					<g>
						<rect x="34.582" y="72.496" class="st89" width="75.127" height="32.505"/>
						<path class="st5" d="M108.435,103.519H35.856v-29.54h72.579V103.519z M107.792,74.743H36.499v28.012h71.292V74.743z"/>
						<circle class="st5" cx="72.145" cy="88.749" r="12.822"/>
					</g>
				</g>
				<g>
					<path class="st89" d="M71.812,99.464v-2.107c-0.877-0.127-1.59-0.363-2.134-0.705c-0.545-0.344-1.018-0.891-1.417-1.641
						c-0.399-0.75-0.632-1.676-0.698-2.777l1.755-0.385c0.133,1.119,0.374,1.949,0.72,2.492c0.492,0.75,1.083,1.166,1.774,1.244
						V88.88c-0.718-0.158-1.457-0.494-2.215-1.004c-0.559-0.367-0.987-0.883-1.286-1.545s-0.449-1.416-0.449-2.264
						c0-1.5,0.439-2.713,1.316-3.639c0.599-0.623,1.478-1.006,2.634-1.148v-1.006h1.038v1.006c1.012,0.127,1.817,0.486,2.415,1.076
						c0.771,0.768,1.237,1.82,1.396,3.16l-1.815,0.314c-0.105-0.832-0.321-1.467-0.648-1.906c-0.326-0.439-0.774-0.729-1.348-0.875
						v6.082c0.878,0.256,1.463,0.463,1.757,0.623c0.545,0.287,0.988,0.639,1.327,1.055c0.339,0.414,0.601,0.906,0.787,1.471
						C76.907,90.849,77,91.46,77,92.114c0,1.469-0.385,2.689-1.156,3.662c-0.773,0.975-1.771,1.492-2.995,1.557v2.131H71.812z
						 M71.812,81.028c-0.677,0.127-1.213,0.457-1.605,0.992c-0.392,0.535-0.588,1.162-0.588,1.879c0,0.719,0.166,1.322,0.499,1.809
						c0.333,0.486,0.898,0.875,1.695,1.16V81.028z M72.849,95.585c0.679-0.096,1.24-0.451,1.687-1.066
						c0.445-0.613,0.667-1.367,0.667-2.262c0-0.768-0.156-1.381-0.468-1.844c-0.313-0.461-0.941-0.879-1.887-1.246V95.585z"/>
				</g>
			</g>
		</g>
	</g>
</g>
</svg>
