<?xml version="1.0" encoding="utf-8"?>
<!-- Generator: Adobe Illustrator 16.0.0, SVG Export Plug-In . SVG Version: 6.00 Build 0)  -->
<!DOCTYPE svg PUBLIC "-//W3C//DTD SVG 1.1//EN" "http://www.w3.org/Graphics/SVG/1.1/DTD/svg11.dtd">
<svg version="1.1" id="Layer_1" xmlns="http://www.w3.org/2000/svg" xmlns:xlink="http://www.w3.org/1999/xlink" x="0px" y="0px"
	 width="136.833px" height="136.834px" viewBox="0 0 136.833 136.834" style="enable-background:new 0 0 136.833 136.834;"
	 xml:space="preserve">
<style type="text/css">
<![CDATA[
	.st0{fill:#AAA79B;}
	.st1{fill:#AAAAAA;}
	.st2{fill:#49A0AE;}
	.st3{fill:#AD9030;}
	.st4{fill:#AE7B3E;}
	.st5{fill:#117F4A;}
	.st6{fill:#E03740;}
	.st7{opacity:0.15;fill:#F0EFED;}
	.st8{fill:#E13B3B;}
	.st9{fill:#E1C821;}
	.st10{fill:#E1DEDB;}
	.st11{fill:#E2C448;}
	.st12{fill:#E34F50;}
	.st13{fill:#4ABC96;}
	.st14{fill:#E5E5E5;}
	.st15{fill:#E7E7E7;}
	.st16{fill:#E84849;}
	.st17{fill:#E8E4AA;}
	.st18{fill:#E9C11E;}
	.st19{fill:#E9E9EA;}
	.st20{fill:#B19353;}
	.st21{clip-path:url(#SVGID_2_);fill:#AAAAAA;}
	.st22{fill:#B29C76;}
	.st23{fill:#838383;}
	.st24{fill:#B2B0A6;}
	.st25{fill:#B2B2B2;}
	.st26{fill:#B4B4B5;}
	.st27{fill:#867257;}
	.st28{fill:#86847D;}
	.st29{fill:#1B7A9A;}
	.st30{fill:#B6B3A1;}
	.st31{fill:#B6B6B7;}
	.st32{fill:#B6C2CB;}
	.st33{fill:#1C4C51;}
	.st34{fill:#888888;}
	.st35{fill:#EB9682;}
	.st36{fill:#898579;}
	.st37{fill:#B8D4D8;}
	.st38{fill:#ECE17E;}
	.st39{fill:#B9972F;}
	.st40{fill:#B9A57C;}
	.st41{fill:#B9B9BA;}
	.st42{fill:#EDC92C;}
	.st43{fill:#EDEBE7;}
	.st44{fill:#525252;}
	.st45{opacity:0.15;fill:#FFFFFF;}
	.st46{fill:#565453;}
	.st47{fill:#575656;}
	.st48{fill-rule:evenodd;clip-rule:evenodd;fill:#4B4A4B;}
	.st49{clip-path:url(#SVGID_4_);fill:#AAAAAA;}
	.st50{fill:#BAE2DD;}
	.st51{fill:#BBBCBB;}
	.st52{fill:#BDB36D;}
	.st53{fill:#202121;}
	.st54{clip-path:url(#SVGID_2_);fill:#1B7A9A;}
	.st55{fill:#239563;}
	.st56{fill:#F37C2A;}
	.st57{fill:#255860;}
	.st58{fill:#F3EED5;}
	.st59{fill:#F4E028;}
	.st60{fill:#F4F4EE;}
	.st61{fill:#5ABE8F;}
	.st62{fill:#F6F2E4;}
	.st63{fill:#5C5853;}
	.st64{fill:#5C5C5C;}
	.st65{fill-rule:evenodd;clip-rule:evenodd;fill:#EB6C25;}
	.st66{fill:#2992AD;}
	.st67{fill:#5E5F5E;}
	.st68{fill:#F9F29A;}
	.st69{clip-path:url(#SVGID_2_);}
	.st70{clip-path:url(#SVGID_4_);}
	.st71{fill:#C0BFBC;}
	.st72{fill:#C0C0C0;}
	.st73{fill:#C1914F;}
	.st74{fill:#93793D;}
	.st75{fill:#C3C3C3;}
	.st76{fill:#C3D5C7;}
	.st77{fill:#C4A830;}
	.st78{clip-path:url(#SVGID_4_);fill:#1B7A9A;}
	.st79{fill:#C698C5;}
	.st80{fill:#972627;}
	.st81{fill:#C6C5C5;}
	.st82{fill:#C74A39;}
	.st83{fill:#C84027;}
	.st84{opacity:0.1;}
	.st85{fill:#616161;}
	.st86{fill:#FFCE00;}
	.st87{fill:#FFF5F4;}
	.st88{fill:#FFFFFF;}
	.st89{fill:#63BD6E;}
	.st90{fill-rule:evenodd;clip-rule:evenodd;fill:#F37C2A;}
	.st91{fill:none;}
	.st92{fill:#65A844;}
	.st93{fill:#667580;}
	.st94{fill:#CAE8E4;}
	.st95{fill:#9C9C9C;}
	.st96{fill:#CBBD7D;}
	.st97{fill:#CC4028;}
	.st98{fill:#CCC375;}
	.st99{fill:#CCC788;}
	.st100{fill:#9DDAEC;}
	.st101{fill:#CDAB2D;}
	.st102{fill:#CDCCCB;}
	.st103{fill:#CDCDCE;}
	.st104{fill:#CDE7D5;}
	.st105{fill:#9F77AA;}
	.st106{fill:#CECBCB;}
	.st107{fill:#357180;}
	.st108{fill:#6BA297;}
	.st109{fill:#6EC2CB;}
	.st110{fill:#D0D1D1;}
	.st111{fill:#D1974F;}
	.st112{fill:#D1AFD2;}
	.st113{fill:#D22027;}
	.st114{fill:#D2B63D;}
	.st115{fill:#D2D2D2;}
	.st116{fill:#D32033;}
	.st117{clip-path:url(#SVGID_2_);fill:#CDCDCE;}
	.st118{fill:#D51F31;}
	.st119{fill:#D5C7C3;}
	.st120{fill:#D5D6D5;}
	.st121{fill:#3B3A38;}
	.st122{fill:#3B6DA2;}
	.st123{fill:#D6CB78;}
	.st124{fill:#D73D3D;}
	.st125{fill:#D7B029;}
	.st126{fill:#D8D8D7;}
	.st127{fill:#A03D3D;}
	.st128{fill:#A09592;}
	.st129{fill:#717171;}
	.st130{fill:#A19F9F;}
	.st131{fill:#727172;}
	.st132{fill:#F9F29A;stroke:#E1C821;stroke-miterlimit:10;}
	.st133{fill:#A2D1C9;}
	.st134{fill:#A33B3B;}
	.st135{fill:#A48A47;}
	.st136{fill:#DAC425;}
	.st137{fill:#786547;}
	.st138{fill:#787878;}
	.st139{fill:#A7A8A7;}
	.st140{fill-rule:evenodd;clip-rule:evenodd;fill:#6DABB5;}
	.st141{fill:#DCD99D;}
	.st142{fill:#DD5231;}
	.st143{clip-path:url(#SVGID_4_);fill:#CDCDCE;}
	.st144{fill:#DDDACA;}
	.st145{fill:#DDDCD6;}
	.st146{fill:#DDDDDC;}
	.st147{fill:#404040;}
	.st148{fill:#DEBA24;}
	.st149{fill:#DFBFDB;}
	.st150{fill:#DFD48A;}
	.st151{fill:#DFDFDF;}
	.st152{fill:#444545;}
	.st153{fill:#45423F;}
]]>
</style>
<g>
	<g>
		<circle class="st86" cx="68.416" cy="68.417" r="63.333"/>
		<g>
			<path class="st30" d="M42.896,55.444c-1.174,0.91-3.078,0.91-4.252,0l0,0c-1.174-0.912-1.174-2.389,0-3.301l28.246-21.92
				c1.176-0.912,3.078-0.91,4.252,0l0,0c1.176,0.91,1.176,2.388,0,3.299L42.896,55.444z"/>
			<path class="st30" d="M99.392,52.143c1.172,0.91,1.172,2.389,0,3.299l0,0c-1.176,0.912-3.078,0.912-4.254,0l-28.246-21.92
				c-1.176-0.912-1.174-2.389,0-3.301l0,0c1.174-0.91,3.076-0.91,4.25,0L99.392,52.143z"/>
			<path class="st58" d="M115.056,79.816c0,5.256-4.26,9.518-9.518,9.518H32.573c-5.258,0-9.518-4.262-9.518-9.518v-19.15
				c0-5.256,4.26-9.516,9.518-9.516h72.965c5.258,0,9.518,4.26,9.518,9.516V79.816z"/>
			<circle class="st36" cx="69.223" cy="33.167" r="5.167"/>
			<path class="st127" d="M111.306,77.664c0,4.857-3.936,8.793-8.793,8.793H35.099c-4.857,0-8.793-3.936-8.793-8.793v-14.5
				c0-4.855,3.936-8.791,8.793-8.791h67.414c4.857,0,8.793,3.936,8.793,8.791V77.664z"/>
			<g>
				<path class="st58" d="M43.589,72.545c0,0.43-0.105,0.895-0.316,1.395c-0.213,0.498-0.545,0.99-0.998,1.472
					c-0.455,0.481-1.033,0.872-1.738,1.173c-0.705,0.3-1.527,0.449-2.467,0.449c-0.711,0-1.359-0.066-1.941-0.201
					s-1.109-0.344-1.586-0.629c-0.475-0.286-0.912-0.661-1.311-1.127c-0.355-0.423-0.66-0.896-0.91-1.421
					c-0.252-0.525-0.439-1.086-0.566-1.68c-0.125-0.595-0.188-1.227-0.188-1.893c0-1.088,0.158-2.06,0.473-2.918
					c0.316-0.859,0.768-1.594,1.357-2.203c0.588-0.611,1.279-1.074,2.07-1.395c0.789-0.318,1.633-0.478,2.529-0.478
					c1.092,0,2.064,0.219,2.916,0.653c0.852,0.436,1.506,0.975,1.959,1.615s0.68,1.246,0.68,1.814c0,0.314-0.109,0.59-0.33,0.828
					c-0.221,0.241-0.488,0.36-0.801,0.36c-0.35,0-0.611-0.083-0.787-0.249c-0.174-0.166-0.367-0.451-0.584-0.855
					c-0.355-0.668-0.773-1.168-1.256-1.5c-0.48-0.33-1.074-0.496-1.779-0.496c-1.121,0-2.016,0.428-2.682,1.279
					c-0.666,0.854-0.998,2.063-0.998,3.634c0,1.048,0.148,1.921,0.441,2.616c0.295,0.695,0.711,1.217,1.252,1.559
					c0.539,0.344,1.17,0.516,1.895,0.516c0.785,0,1.449-0.195,1.992-0.584s0.951-0.961,1.227-1.715
					c0.117-0.357,0.262-0.646,0.434-0.869c0.172-0.225,0.447-0.337,0.826-0.337c0.326,0,0.605,0.114,0.838,0.341
					S43.589,72.208,43.589,72.545z"/>
				<path class="st58" d="M48.722,64.746v9.815h5.539c0.441,0,0.779,0.107,1.016,0.321c0.236,0.216,0.354,0.484,0.354,0.81
					c0,0.332-0.115,0.601-0.35,0.805c-0.232,0.205-0.572,0.308-1.02,0.308h-6.596c-0.596,0-1.023-0.133-1.285-0.396
					c-0.26-0.264-0.391-0.689-0.391-1.279V64.746c0-0.552,0.125-0.966,0.373-1.241c0.248-0.277,0.576-0.415,0.98-0.415
					c0.41,0,0.744,0.138,0.998,0.409S48.722,64.186,48.722,64.746z"/>
				<path class="st58" d="M62.419,63.089c1.398,0,2.6,0.284,3.602,0.851s1.762,1.373,2.277,2.42
					c0.514,1.045,0.771,2.272,0.771,3.683c0,1.044-0.141,1.991-0.422,2.845c-0.283,0.853-0.705,1.59-1.27,2.217
					c-0.564,0.625-1.258,1.104-2.08,1.436c-0.82,0.33-1.764,0.494-2.824,0.494c-1.055,0-1.998-0.168-2.832-0.509
					c-0.834-0.34-1.529-0.82-2.09-1.438c-0.557-0.62-0.979-1.364-1.264-2.235s-0.428-1.813-0.428-2.824
					c0-1.037,0.148-1.988,0.445-2.854c0.299-0.863,0.729-1.6,1.293-2.207c0.564-0.605,1.25-1.07,2.061-1.393
					C60.468,63.25,61.39,63.089,62.419,63.089z M66.302,70.026c0-0.988-0.16-1.844-0.479-2.567s-0.775-1.271-1.367-1.642
					c-0.59-0.37-1.27-0.557-2.037-0.557c-0.545,0-1.051,0.104-1.514,0.307c-0.463,0.206-0.859,0.506-1.195,0.898
					c-0.334,0.393-0.598,0.893-0.791,1.504s-0.289,1.295-0.289,2.057c0,0.766,0.096,1.459,0.289,2.078
					c0.193,0.62,0.465,1.135,0.818,1.541c0.354,0.408,0.758,0.713,1.215,0.916c0.457,0.201,0.957,0.303,1.504,0.303
					c0.699,0,1.342-0.175,1.928-0.523c0.584-0.352,1.051-0.891,1.398-1.62C66.128,71.991,66.302,71.092,66.302,70.026z"/>
				<path class="st58" d="M81.653,72.758c0,0.815-0.211,1.547-0.629,2.197c-0.42,0.65-1.035,1.16-1.844,1.527
					c-0.811,0.369-1.771,0.55-2.881,0.55c-1.33,0-2.428-0.25-3.293-0.751c-0.613-0.363-1.111-0.846-1.494-1.449
					c-0.385-0.604-0.576-1.193-0.576-1.763c0-0.331,0.115-0.614,0.346-0.852c0.23-0.235,0.521-0.353,0.879-0.353
					c0.287,0,0.531,0.092,0.73,0.275s0.369,0.457,0.512,0.818c0.172,0.43,0.357,0.789,0.555,1.076
					c0.201,0.287,0.48,0.527,0.844,0.715c0.359,0.186,0.836,0.279,1.426,0.279c0.809,0,1.467-0.188,1.973-0.566
					c0.504-0.377,0.758-0.848,0.758-1.41c0-0.447-0.137-0.813-0.408-1.092c-0.273-0.279-0.627-0.491-1.059-0.64
					c-0.432-0.147-1.01-0.302-1.734-0.47c-0.969-0.227-1.779-0.49-2.434-0.795c-0.652-0.304-1.17-0.718-1.553-1.242
					c-0.385-0.523-0.576-1.176-0.576-1.953c0-0.742,0.203-1.402,0.607-1.978c0.404-0.577,0.99-1.021,1.758-1.331
					c0.766-0.309,1.668-0.464,2.705-0.464c0.826,0,1.541,0.104,2.146,0.309c0.604,0.204,1.105,0.479,1.504,0.817
					c0.398,0.34,0.691,0.699,0.875,1.072c0.184,0.374,0.275,0.74,0.275,1.096c0,0.324-0.115,0.617-0.346,0.879
					c-0.23,0.26-0.516,0.389-0.859,0.389c-0.313,0-0.551-0.077-0.713-0.234c-0.162-0.154-0.34-0.411-0.529-0.767
					c-0.246-0.51-0.541-0.907-0.883-1.192c-0.344-0.285-0.895-0.428-1.654-0.428c-0.707,0-1.275,0.156-1.707,0.465
					c-0.434,0.311-0.648,0.684-0.648,1.118c0,0.271,0.072,0.502,0.221,0.7c0.146,0.194,0.348,0.364,0.605,0.504
					c0.258,0.141,0.52,0.252,0.781,0.332c0.266,0.08,0.699,0.197,1.309,0.35c0.76,0.178,1.447,0.373,2.063,0.589
					c0.619,0.214,1.143,0.476,1.574,0.78c0.434,0.308,0.77,0.695,1.012,1.166C81.532,71.5,81.653,72.077,81.653,72.758z"/>
				<path class="st58" d="M92.858,65.426h-6.154v3.313h5.666c0.418,0,0.729,0.092,0.936,0.281c0.203,0.184,0.307,0.432,0.307,0.738
					s-0.102,0.557-0.303,0.75c-0.203,0.193-0.516,0.29-0.939,0.29h-5.666v3.836h6.365c0.428,0,0.754,0.099,0.971,0.3
					c0.217,0.197,0.326,0.463,0.326,0.795c0,0.318-0.109,0.578-0.326,0.777c-0.217,0.199-0.543,0.298-0.971,0.298h-7.424
					c-0.594,0-1.021-0.133-1.283-0.396c-0.26-0.264-0.391-0.689-0.391-1.279V64.994c0-0.393,0.059-0.714,0.176-0.961
					c0.115-0.249,0.299-0.431,0.547-0.544s0.564-0.17,0.951-0.17h7.213c0.436,0,0.758,0.098,0.971,0.289
					c0.211,0.195,0.316,0.447,0.316,0.761c0,0.317-0.105,0.575-0.316,0.767C93.616,65.331,93.294,65.426,92.858,65.426z"/>
				<path class="st58" d="M98.229,63.319h3.561c0.926,0,1.721,0.086,2.383,0.258s1.262,0.494,1.803,0.968
					c1.404,1.2,2.105,3.027,2.105,5.481c0,0.809-0.07,1.549-0.211,2.217s-0.359,1.272-0.652,1.808
					c-0.295,0.534-0.672,1.017-1.133,1.438c-0.361,0.326-0.756,0.586-1.186,0.783c-0.428,0.195-0.891,0.332-1.385,0.412
					c-0.494,0.082-1.051,0.121-1.67,0.121h-3.561c-0.496,0-0.869-0.074-1.121-0.224c-0.252-0.151-0.416-0.363-0.492-0.635
					c-0.076-0.275-0.115-0.629-0.115-1.063v-9.889c0-0.59,0.131-1.015,0.396-1.278C97.216,63.452,97.642,63.319,98.229,63.319z
					 M99.288,65.481v9.153h2.07c0.453,0,0.809-0.013,1.066-0.038c0.258-0.023,0.523-0.084,0.799-0.182
					c0.277-0.1,0.516-0.236,0.719-0.416c0.914-0.771,1.371-2.104,1.371-3.99c0-1.332-0.201-2.327-0.604-2.992
					c-0.4-0.662-0.896-1.082-1.486-1.265c-0.586-0.181-1.299-0.271-2.133-0.271H99.288z"/>
			</g>
			<path class="st45" d="M111.306,77.664c0,4.857-3.936,8.793-8.793,8.793H35.099c-4.857,0-8.793-3.936-8.793-8.793v-7.5l85-0.249
				V77.664z"/>
		</g>
	</g>
</g>
</svg>
