<?xml version="1.0" encoding="utf-8"?>
<!-- Generator: Adobe Illustrator 16.0.0, SVG Export Plug-In . SVG Version: 6.00 Build 0)  -->
<!DOCTYPE svg PUBLIC "-//W3C//DTD SVG 1.1//EN" "http://www.w3.org/Graphics/SVG/1.1/DTD/svg11.dtd">
<svg version="1.1" id="Layer_1" xmlns="http://www.w3.org/2000/svg" xmlns:xlink="http://www.w3.org/1999/xlink" x="0px" y="0px"
	 width="136.833px" height="136.834px" viewBox="0 0 136.833 136.834" style="enable-background:new 0 0 136.833 136.834;"
	 xml:space="preserve">
<style type="text/css">
<![CDATA[
	.st0{fill-rule:evenodd;clip-rule:evenodd;fill:#08090B;}
	.st1{fill:#7BCCC7;}
	.st2{fill:#48584B;}
	.st3{fill:#AC782B;}
	.st4{fill:#49A0AE;}
	.st5{fill:#121212;}
	.st6{fill:#E1E1E1;}
	.st7{fill:#E3E2E2;}
	.st8{fill:none;stroke:#202121;stroke-width:0.5;stroke-miterlimit:10;}
	.st9{fill:#E4E4E4;}
	.st10{fill:#4ABC96;}
	.st11{fill:#E5E5E5;}
	.st12{fill:#4B4A4B;}
	.st13{fill:#E84849;stroke:#FFFFFF;stroke-width:3;}
	.st14{fill:none;stroke:#121212;stroke-miterlimit:10;}
	.st15{fill:#E79E2D;}
	.st16{fill:#E7E7E7;}
	.st17{fill:#4D4D4D;}
	.st18{fill:#4D8A97;}
	.st19{fill:#E84849;}
	.st20{fill:#807F7F;}
	.st21{fill:#B03738;}
	.st22{fill:#818282;}
	.st23{fill:#81C681;}
	.st24{opacity:0.5;fill:#202121;}
	.st25{fill:#B2B2B2;}
	.st26{fill:#B2D0CC;}
	.st27{fill:#83CECA;}
	.st28{fill:#1A1919;}
	.st29{fill:#B5DBAF;}
	.st30{fill:#EB9682;}
	.st31{fill:#EBEDEF;}
	.st32{fill:#B8B9BA;}
	.st33{fill:#ECA448;}
	.st34{fill:#1E261F;}
	.st35{fill:#ECECEC;}
	.st36{fill:#EDBF00;}
	.st37{fill:#EDC92C;}
	.st38{fill:#EDEEEF;}
	.st39{fill:#505251;}
	.st40{fill:#EFC849;}
	.st41{opacity:0.15;fill:#626463;}
	.st42{opacity:0.3;fill:url(#SVGID_16_);}
	.st43{opacity:0.3;fill:url(#SVGID_17_);}
	.st44{opacity:0.3;fill:url(#SVGID_27_);}
	.st45{opacity:0.3;fill:url(#SVGID_28_);}
	.st46{opacity:0.3;fill:url(#SVGID_33_);}
	.st47{opacity:0.3;fill:url(#SVGID_34_);}
	.st48{opacity:0.3;fill:url(#SVGID_37_);}
	.st49{opacity:0.3;fill:url(#SVGID_38_);}
	.st50{fill:none;stroke:#B8B9BA;stroke-width:0.5;stroke-miterlimit:10;}
	.st51{fill:#202121;}
	.st52{fill:#232C25;}
	.st53{fill:#F28400;}
	.st54{fill:#256533;}
	.st55{fill:#F3F4F5;}
	.st56{fill:#263A45;}
	.st57{fill:#265E67;}
	.st58{fill:#F5E554;}
	.st59{fill:#F6A2A3;}
	.st60{fill:#28302A;}
	.st61{fill:#5CA39B;}
	.st62{fill:#5E7564;}
	.st63{fill-rule:evenodd;clip-rule:evenodd;fill:#EDC92C;}
	.st64{opacity:0.2;fill:#FFFFFF;}
	.st65{fill:url(#SVGID_1_);}
	.st66{fill:url(#SVGID_2_);}
	.st67{fill:url(#SVGID_3_);}
	.st68{fill:url(#SVGID_4_);}
	.st69{fill:url(#SVGID_5_);}
	.st70{fill:url(#SVGID_6_);}
	.st71{fill:url(#SVGID_7_);}
	.st72{fill:#C2DFDD;}
	.st73{fill:#C5E2E5;}
	.st74{fill:#98979B;}
	.st75{fill:#989897;}
	.st76{fill:#989A9A;}
	.st77{fill:#C9C9C8;}
	.st78{fill:#2F3A32;}
	.st79{fill:#2F8442;}
	.st80{opacity:0.7;}
	.st81{fill:#60C3B6;}
	.st82{fill:#FFFFFF;}
	.st83{fill:#626463;}
	.st84{fill:#636463;}
	.st85{fill-rule:evenodd;clip-rule:evenodd;fill:#F37C2A;}
	.st86{fill:none;}
	.st87{fill:#676767;}
	.st88{fill:#676969;}
	.st89{fill:#67B4AD;}
	.st90{fill:#67B8CB;}
	.st91{fill:#CBCBC9;}
	.st92{fill:#CCCBCF;}
	.st93{fill:#CCE9E9;}
	.st94{fill:#CDCCCB;}
	.st95{fill:#CDE9E6;}
	.st96{fill:#30302F;}
	.st97{fill-rule:evenodd;clip-rule:evenodd;fill:#F9C645;}
	.st98{opacity:0.7;fill:#FFFFFF;}
	.st99{fill:#343433;}
	.st100{fill:#343434;}
	.st101{fill:#344E5D;}
	.st102{fill:#357180;}
	.st103{opacity:0.25;fill:#DFF1F5;}
	.st104{fill:#6CC077;}
	.st105{fill:#6EBCB5;}
	.st106{fill:none;stroke:#67B8CB;stroke-width:0.5;stroke-miterlimit:10;}
	.st107{fill:#D2D2D2;}
	.st108{fill:#D3D4E3;}
	.st109{fill:#D4A160;}
	.st110{fill:#08090B;}
	.st111{fill:#3CB881;}
	.st112{fill:#D7DABA;}
	.st113{fill:#3D4040;}
	.st114{fill:url(#SVGID_10_);}
	.st115{fill:url(#SVGID_11_);}
	.st116{fill:url(#SVGID_12_);}
	.st117{fill:url(#SVGID_13_);}
	.st118{fill:url(#SVGID_22_);}
	.st119{fill:url(#SVGID_23_);}
	.st120{fill:url(#SVGID_24_);}
	.st121{fill:url(#SVGID_29_);}
	.st122{fill:url(#SVGID_30_);}
	.st123{fill:url(#SVGID_41_);}
	.st124{opacity:0.1;fill:#FFFFFF;}
	.st125{fill:#A07238;}
	.st126{fill:#717171;}
	.st127{clip-path:url(#SVGID_15_);}
	.st128{clip-path:url(#SVGID_19_);}
	.st129{clip-path:url(#SVGID_21_);}
	.st130{clip-path:url(#SVGID_26_);}
	.st131{clip-path:url(#SVGID_32_);}
	.st132{clip-path:url(#SVGID_36_);}
	.st133{clip-path:url(#SVGID_40_);}
	.st134{fill:#A4A5A4;}
	.st135{fill:#767676;}
	.st136{fill:#767879;}
	.st137{fill:#DBF0F5;}
	.st138{fill:#DC494A;}
	.st139{fill:#DCDBDC;}
	.st140{fill:#0EA24A;}
	.st141{fill:#404040;}
	.st142{fill:#DFDFDF;}
	.st143{fill:#447A74;}
]]>
</style>
<g>
	<g>
		<g>
			<g>
				<circle class="st36" cx="68.416" cy="68.417" r="63.333"/>
			</g>
		</g>
	</g>
	<g>
		<g>
			<path class="st51" d="M92.626,104.497c0,5.815-2.082,7.897-7.898,7.897H53.136c-5.814,0-7.898-2.082-7.898-7.897V30.782
				c0-5.815,2.084-7.897,7.898-7.897h31.592c5.816,0,7.898,2.082,7.898,7.897V104.497z"/>
			<g>
				<path d="M73.849,25.881c0,0.333-0.391,0.6-0.871,0.6h-7.719c-0.482,0-0.873-0.267-0.873-0.6l0,0c0-0.33,0.391-0.599,0.873-0.599
					h7.719C73.458,25.283,73.849,25.551,73.849,25.881L73.849,25.881z"/>
				<circle cx="75.136" cy="25.925" r="0.658"/>
				<circle cx="76.892" cy="25.925" r="0.658"/>
				<circle cx="83.198" cy="26.2" r="0.885"/>
			</g>
			<path class="st14" d="M73.741,108.142c0,0.892-0.543,1.615-1.213,1.615h-7.117c-0.668,0-1.211-0.724-1.211-1.615v-1.146
				c0-0.893,0.543-1.615,1.211-1.615h7.117c0.67,0,1.213,0.723,1.213,1.615V108.142z"/>
			<linearGradient id="SVGID_1_" gradientUnits="userSpaceOnUse" x1="68.8223" y1="31.4399" x2="68.8223" y2="102.9604">
				<stop  offset="0" style="stop-color:#5978BA"/>
				<stop  offset="0.703" style="stop-color:#4E9DB8"/>
				<stop  offset="1" style="stop-color:#379CC9"/>
			</linearGradient>
			<rect x="47.433" y="31.44" class="st65" width="42.779" height="71.521"/>
			<g>
				<circle class="st82" cx="68.918" cy="86.368" r="1.206"/>
				<circle class="st82" cx="73.306" cy="86.368" r="0.768"/>
				<circle class="st82" cx="76.815" cy="86.368" r="0.768"/>
				<circle class="st82" cx="61.02" cy="86.368" r="0.769"/>
				<circle class="st82" cx="64.53" cy="86.368" r="0.768"/>
			</g>
			<rect x="47.433" y="31.44" class="st24" width="42.76" height="3.585"/>
			<circle class="st82" cx="83.795" cy="33.123" r="0.913"/>
			<circle class="st82" cx="49.625" cy="33.123" r="0.913"/>
			<circle class="st82" cx="87.963" cy="33.123" r="0.913"/>
			<g>
				<defs>
					<rect id="SVGID_42_" x="47.433" y="31.44" width="42.779" height="71.521"/>
				</defs>
				<clipPath id="SVGID_2_">
					<use xlink:href="#SVGID_42_"  style="overflow:visible;"/>
				</clipPath>
			</g>
			<g>
				<path class="st29" d="M57.911,79.797c0,0.814-0.66,1.474-1.475,1.474h-4.305c-0.816,0-1.477-0.659-1.477-1.474v-4.306
					c0-0.816,0.66-1.477,1.477-1.477h4.305c0.814,0,1.475,0.66,1.475,1.477V79.797z"/>
				<path class="st59" d="M67.675,79.797c0,0.814-0.662,1.474-1.477,1.474h-4.303c-0.816,0-1.477-0.659-1.477-1.474v-4.306
					c0-0.816,0.66-1.477,1.477-1.477h4.303c0.814,0,1.477,0.66,1.477,1.477V79.797z"/>
				<path class="st90" d="M77.437,79.797c0,0.814-0.66,1.474-1.475,1.474h-4.305c-0.814,0-1.477-0.659-1.477-1.474v-4.306
					c0-0.816,0.662-1.477,1.477-1.477h4.305c0.814,0,1.475,0.66,1.475,1.477V79.797z"/>
				<path class="st58" d="M87.2,79.797c0,0.814-0.662,1.474-1.477,1.474h-4.305c-0.816,0-1.475-0.659-1.475-1.474v-4.306
					c0-0.816,0.658-1.477,1.475-1.477h4.305c0.814,0,1.477,0.66,1.477,1.477V79.797z"/>
			</g>
			<g>
				<defs>
					<path id="SVGID_44_" d="M87.089,59.614c0,0.813-0.658,1.474-1.475,1.474H52.351c-0.814,0-1.477-0.66-1.477-1.474V40.39
						c0-0.815,0.662-1.477,1.477-1.477h33.264c0.816,0,1.475,0.661,1.475,1.477V59.614z"/>
				</defs>
				<clipPath id="SVGID_3_">
					<use xlink:href="#SVGID_44_"  style="overflow:visible;"/>
				</clipPath>
			</g>
			<path class="st106" d="M87.089,67.512c0,0.813-0.658,1.473-1.475,1.473H52.351c-0.814,0-1.477-0.659-1.477-1.473v-1.674
				c0-0.815,0.662-1.476,1.477-1.476h33.264c0.816,0,1.475,0.66,1.475,1.476V67.512z"/>
			<g>
				<circle class="st137" cx="83.652" cy="66.212" r="1.095"/>
				<path class="st137" d="M85.634,68.208c-0.086,0.085-0.25,0.061-0.365-0.056l-1.232-1.232c-0.113-0.114-0.139-0.277-0.055-0.363
					l0.109-0.109c0.086-0.087,0.25-0.061,0.367,0.056l1.23,1.23c0.115,0.116,0.141,0.279,0.053,0.365L85.634,68.208z"/>
			</g>
			<g>
				<path class="st90" d="M56.235,96.276c0,0.662-0.537,1.2-1.201,1.2h-3.506c-0.664,0-1.201-0.538-1.201-1.2v-3.508
					c0-0.663,0.537-1.201,1.201-1.201h3.506c0.664,0,1.201,0.538,1.201,1.201V96.276z"/>
				<path class="st58" d="M64.188,96.276c0,0.662-0.541,1.2-1.203,1.2h-3.506c-0.664,0-1.201-0.538-1.201-1.2v-3.508
					c0-0.663,0.537-1.201,1.201-1.201h3.506c0.662,0,1.203,0.538,1.203,1.201V96.276z"/>
				<path class="st29" d="M72.138,96.276c0,0.662-0.539,1.2-1.201,1.2h-3.506c-0.662,0-1.203-0.538-1.203-1.2v-3.508
					c0-0.663,0.541-1.201,1.203-1.201h3.506c0.662,0,1.201,0.538,1.201,1.201V96.276z"/>
				<path class="st108" d="M80.089,96.276c0,0.662-0.537,1.2-1.201,1.2h-3.506c-0.666,0-1.201-0.538-1.201-1.2v-3.508
					c0-0.663,0.535-1.201,1.201-1.201h3.506c0.664,0,1.201,0.538,1.201,1.201V96.276z"/>
				<path class="st59" d="M87.987,96.276c0,0.662-0.539,1.2-1.201,1.2H83.28c-0.666,0-1.201-0.538-1.201-1.2v-3.508
					c0-0.663,0.535-1.201,1.201-1.201h3.506c0.662,0,1.201,0.538,1.201,1.201V96.276z"/>
			</g>
		</g>
	</g>
	<g>
		<path class="st104" d="M52.351,61.087h33.264c0.816,0,1.475-0.66,1.475-1.474v-5.349l-2.754-2.754c0,0-1.564-2.017-3.018-1.935
			c-1.309,0.075-2.836,1.713-3.129,2.037l-1.832-1.832c0,0-1.832-2.363-3.535-2.269c-1.707,0.098-3.74,2.472-3.74,2.472
			l-0.559,0.558l-3.447-3.448c0,0-2.254-2.904-4.348-2.786s-4.596,3.034-4.596,3.034l-5.258,5.256v7.016
			C50.874,60.427,51.536,61.087,52.351,61.087z"/>
		<path class="st137" d="M60.728,44.308c2.094-0.118,4.348,2.786,4.348,2.786l3.447,3.448l0.559-0.558c0,0,2.033-2.374,3.74-2.472
			c1.703-0.095,3.535,2.269,3.535,2.269l1.832,1.832c0.293-0.324,1.82-1.962,3.129-2.037c1.453-0.082,3.018,1.935,3.018,1.935
			l2.754,2.754V40.39c0-0.815-0.658-1.477-1.475-1.477H52.351c-0.814,0-1.477,0.661-1.477,1.477v12.208l5.258-5.256
			C56.132,47.342,58.634,44.426,60.728,44.308z"/>
	</g>
</g>
</svg>
