<?xml version="1.0" encoding="utf-8"?>
<!-- Generator: Adobe Illustrator 16.0.0, SVG Export Plug-In . SVG Version: 6.00 Build 0)  -->
<!DOCTYPE svg PUBLIC "-//W3C//DTD SVG 1.1//EN" "http://www.w3.org/Graphics/SVG/1.1/DTD/svg11.dtd">
<svg version="1.1" id="Layer_1" xmlns="http://www.w3.org/2000/svg" xmlns:xlink="http://www.w3.org/1999/xlink" x="0px" y="0px"
	 width="136.833px" height="136.834px" viewBox="0 0 136.833 136.834" style="enable-background:new 0 0 136.833 136.834;"
	 xml:space="preserve">
<style type="text/css">
<![CDATA[
	.st0{fill-rule:evenodd;clip-rule:evenodd;fill:#08090B;}
	.st1{fill:#7BCCC7;}
	.st2{fill:#48584B;}
	.st3{fill:#AC782B;}
	.st4{fill:#49A0AE;}
	.st5{fill:#121212;}
	.st6{fill:#E1E1E1;}
	.st7{fill:#E3E2E2;}
	.st8{fill:none;stroke:#202121;stroke-width:0.5;stroke-miterlimit:10;}
	.st9{fill:#E4E4E4;}
	.st10{fill:#4ABC96;}
	.st11{fill:#E5E5E5;}
	.st12{fill:#4B4A4B;}
	.st13{fill:#E84849;stroke:#FFFFFF;stroke-width:3;}
	.st14{fill:none;stroke:#121212;stroke-miterlimit:10;}
	.st15{fill:#E79E2D;}
	.st16{fill:#E7E7E7;}
	.st17{fill:#4D4D4D;}
	.st18{fill:#4D8A97;}
	.st19{fill:#E84849;}
	.st20{fill:#807F7F;}
	.st21{fill:#B03738;}
	.st22{fill:#818282;}
	.st23{fill:#81C681;}
	.st24{opacity:0.5;fill:#202121;}
	.st25{fill:#B2B2B2;}
	.st26{fill:#B2D0CC;}
	.st27{fill:#83CECA;}
	.st28{fill:#1A1919;}
	.st29{fill:#B5DBAF;}
	.st30{fill:#EB9682;}
	.st31{fill:#EBEDEF;}
	.st32{fill:#B8B9BA;}
	.st33{fill:#ECA448;}
	.st34{fill:#1E261F;}
	.st35{fill:#ECECEC;}
	.st36{fill:#EDBF00;}
	.st37{fill:#EDC92C;}
	.st38{fill:#EDEEEF;}
	.st39{fill:#505251;}
	.st40{fill:#EFC849;}
	.st41{opacity:0.15;fill:#626463;}
	.st42{opacity:0.3;fill:url(#SVGID_16_);}
	.st43{opacity:0.3;fill:url(#SVGID_17_);}
	.st44{opacity:0.3;fill:url(#SVGID_27_);}
	.st45{opacity:0.3;fill:url(#SVGID_28_);}
	.st46{opacity:0.3;fill:url(#SVGID_33_);}
	.st47{opacity:0.3;fill:url(#SVGID_34_);}
	.st48{opacity:0.3;fill:url(#SVGID_37_);}
	.st49{opacity:0.3;fill:url(#SVGID_38_);}
	.st50{fill:none;stroke:#B8B9BA;stroke-width:0.5;stroke-miterlimit:10;}
	.st51{fill:#202121;}
	.st52{fill:#232C25;}
	.st53{fill:#F28400;}
	.st54{fill:#256533;}
	.st55{fill:#F3F4F5;}
	.st56{fill:#263A45;}
	.st57{fill:#265E67;}
	.st58{fill:#F5E554;}
	.st59{fill:#F6A2A3;}
	.st60{fill:#28302A;}
	.st61{fill:#5CA39B;}
	.st62{fill:#5E7564;}
	.st63{fill-rule:evenodd;clip-rule:evenodd;fill:#EDC92C;}
	.st64{opacity:0.2;fill:#FFFFFF;}
	.st65{fill:url(#SVGID_1_);}
	.st66{fill:url(#SVGID_2_);}
	.st67{fill:url(#SVGID_3_);}
	.st68{fill:url(#SVGID_4_);}
	.st69{fill:url(#SVGID_5_);}
	.st70{fill:url(#SVGID_6_);}
	.st71{fill:url(#SVGID_7_);}
	.st72{fill:#C2DFDD;}
	.st73{fill:#C5E2E5;}
	.st74{fill:#98979B;}
	.st75{fill:#989897;}
	.st76{fill:#989A9A;}
	.st77{fill:#C9C9C8;}
	.st78{fill:#2F3A32;}
	.st79{fill:#2F8442;}
	.st80{opacity:0.7;}
	.st81{fill:#60C3B6;}
	.st82{fill:#FFFFFF;}
	.st83{fill:#626463;}
	.st84{fill:#636463;}
	.st85{fill-rule:evenodd;clip-rule:evenodd;fill:#F37C2A;}
	.st86{fill:none;}
	.st87{fill:#676767;}
	.st88{fill:#676969;}
	.st89{fill:#67B4AD;}
	.st90{fill:#67B8CB;}
	.st91{fill:#CBCBC9;}
	.st92{fill:#CCCBCF;}
	.st93{fill:#CCE9E9;}
	.st94{fill:#CDCCCB;}
	.st95{fill:#CDE9E6;}
	.st96{fill:#30302F;}
	.st97{fill-rule:evenodd;clip-rule:evenodd;fill:#F9C645;}
	.st98{opacity:0.7;fill:#FFFFFF;}
	.st99{fill:#343433;}
	.st100{fill:#343434;}
	.st101{fill:#344E5D;}
	.st102{fill:#357180;}
	.st103{opacity:0.25;fill:#DFF1F5;}
	.st104{fill:#6CC077;}
	.st105{fill:#6EBCB5;}
	.st106{fill:none;stroke:#67B8CB;stroke-width:0.5;stroke-miterlimit:10;}
	.st107{fill:#D2D2D2;}
	.st108{fill:#D3D4E3;}
	.st109{fill:#D4A160;}
	.st110{fill:#08090B;}
	.st111{fill:#3CB881;}
	.st112{fill:#D7DABA;}
	.st113{fill:#3D4040;}
	.st114{fill:url(#SVGID_10_);}
	.st115{fill:url(#SVGID_11_);}
	.st116{fill:url(#SVGID_12_);}
	.st117{fill:url(#SVGID_13_);}
	.st118{fill:url(#SVGID_22_);}
	.st119{fill:url(#SVGID_23_);}
	.st120{fill:url(#SVGID_24_);}
	.st121{fill:url(#SVGID_29_);}
	.st122{fill:url(#SVGID_30_);}
	.st123{fill:url(#SVGID_41_);}
	.st124{opacity:0.1;fill:#FFFFFF;}
	.st125{fill:#A07238;}
	.st126{fill:#717171;}
	.st127{clip-path:url(#SVGID_15_);}
	.st128{clip-path:url(#SVGID_19_);}
	.st129{clip-path:url(#SVGID_21_);}
	.st130{clip-path:url(#SVGID_26_);}
	.st131{clip-path:url(#SVGID_32_);}
	.st132{clip-path:url(#SVGID_36_);}
	.st133{clip-path:url(#SVGID_40_);}
	.st134{fill:#A4A5A4;}
	.st135{fill:#767676;}
	.st136{fill:#767879;}
	.st137{fill:#DBF0F5;}
	.st138{fill:#DC494A;}
	.st139{fill:#DCDBDC;}
	.st140{fill:#0EA24A;}
	.st141{fill:#404040;}
	.st142{fill:#DFDFDF;}
	.st143{fill:#447A74;}
]]>
</style>
<g>
	<g>
		<g>
			<g>
				<circle class="st36" cx="68.417" cy="68.417" r="63.333"/>
			</g>
		</g>
	</g>
	<g>
		<path class="st55" d="M74.13,51.577c-0.127-2.422-0.822-5.659-3.231-8.34c-2.793-3.109-7.068-4.688-12.708-4.688v6.012
			c3.597,0,6.18,0.838,7.683,2.492c1.231,1.356,1.646,3.11,1.753,4.523h-4.479l7.665,10.735l7.667-10.735H74.13z"/>
		<g>
			<path class="st51" d="M110.585,66.365c3.896,0,5.879,1.983,5.878,5.88l0.001,19.988c0,3.896-1.982,5.88-5.879,5.88H62.377
				c-3.897,0-5.879-1.983-5.879-5.88V72.245c0-3.896,1.981-5.88,5.879-5.88H110.585z"/>
			<g>
				<circle class="st5" cx="112.349" cy="82.152" r="2.351"/>
				<path class="st8" d="M112.696,81.403c0.223,0,0.403,0.181,0.403,0.402V82.5c0,0.222-0.181,0.402-0.403,0.401h-0.693
					c-0.224,0-0.403-0.18-0.403-0.401v-0.694c-0.001-0.222,0.18-0.402,0.403-0.402H112.696z"/>
			</g>
			<path d="M60.908,78.515c0.379,0,0.686,0.309,0.686,0.687v6.074c0,0.379-0.307,0.687-0.686,0.687l0,0
				c-0.379,0-0.687-0.308-0.687-0.687v-6.074C60.221,78.824,60.529,78.515,60.908,78.515L60.908,78.515z"/>
			<rect x="63.994" y="67.982" class="st90" width="43.799" height="28.66"/>
		</g>
		<g>
			<path class="st51" d="M52.116,92.521c0,3.896-1.983,5.879-5.88,5.878L26.248,98.4c-3.897,0-5.88-1.982-5.88-5.879V44.312
				c0-3.896,1.982-5.879,5.88-5.879h19.988c3.896,0,5.88,1.982,5.88,5.879V92.521z"/>
			<g>
				<circle class="st5" cx="36.329" cy="94.284" r="2.352"/>
				<path class="st8" d="M37.078,94.631c0,0.223-0.181,0.402-0.402,0.402h-0.694c-0.222,0-0.403-0.18-0.402-0.402v-0.694
					c0-0.223,0.181-0.403,0.402-0.403h0.694c0.222,0,0.402,0.181,0.402,0.403V94.631z"/>
			</g>
			<path d="M39.965,42.842c0,0.379-0.308,0.687-0.686,0.687h-6.075c-0.379,0-0.687-0.308-0.687-0.687l0,0
				c0-0.379,0.308-0.686,0.687-0.686h6.075C39.658,42.157,39.965,42.463,39.965,42.842L39.965,42.842z"/>
			<rect x="21.838" y="45.929" class="st90" width="28.66" height="43.798"/>
		</g>
	</g>
</g>
</svg>
