<?xml version="1.0" encoding="utf-8"?>
<!-- Generator: Adobe Illustrator 16.0.0, SVG Export Plug-In . SVG Version: 6.00 Build 0)  -->
<!DOCTYPE svg PUBLIC "-//W3C//DTD SVG 1.1//EN" "http://www.w3.org/Graphics/SVG/1.1/DTD/svg11.dtd">
<svg version="1.1" id="Layer_1" xmlns="http://www.w3.org/2000/svg" xmlns:xlink="http://www.w3.org/1999/xlink" x="0px" y="0px"
	 width="136.833px" height="136.834px" viewBox="0 0 136.833 136.834" style="enable-background:new 0 0 136.833 136.834;"
	 xml:space="preserve">
<style type="text/css">
<![CDATA[
	.st0{fill-rule:evenodd;clip-rule:evenodd;fill:#08090B;}
	.st1{fill:#7BCCC7;}
	.st2{fill:#48584B;}
	.st3{fill:#AC782B;}
	.st4{fill:#49A0AE;}
	.st5{fill:#121212;}
	.st6{fill:#E1E1E1;}
	.st7{fill:#E3E2E2;}
	.st8{fill:none;stroke:#202121;stroke-width:0.5;stroke-miterlimit:10;}
	.st9{fill:#E4E4E4;}
	.st10{fill:#4ABC96;}
	.st11{fill:#E5E5E5;}
	.st12{fill:#4B4A4B;}
	.st13{fill:#E84849;stroke:#FFFFFF;stroke-width:3;}
	.st14{fill:none;stroke:#121212;stroke-miterlimit:10;}
	.st15{fill:#E79E2D;}
	.st16{fill:#E7E7E7;}
	.st17{fill:#4D4D4D;}
	.st18{fill:#4D8A97;}
	.st19{fill:#E84849;}
	.st20{fill:#807F7F;}
	.st21{fill:#B03738;}
	.st22{fill:#818282;}
	.st23{fill:#81C681;}
	.st24{opacity:0.5;fill:#202121;}
	.st25{fill:#B2B2B2;}
	.st26{fill:#B2D0CC;}
	.st27{fill:#83CECA;}
	.st28{fill:#1A1919;}
	.st29{fill:#B5DBAF;}
	.st30{fill:#EB9682;}
	.st31{fill:#EBEDEF;}
	.st32{fill:#B8B9BA;}
	.st33{fill:#ECA448;}
	.st34{fill:#1E261F;}
	.st35{fill:#ECECEC;}
	.st36{fill:#EDBF00;}
	.st37{fill:#EDC92C;}
	.st38{fill:#EDEEEF;}
	.st39{fill:#505251;}
	.st40{fill:#EFC849;}
	.st41{opacity:0.15;fill:#626463;}
	.st42{opacity:0.3;fill:url(#SVGID_16_);}
	.st43{opacity:0.3;fill:url(#SVGID_17_);}
	.st44{opacity:0.3;fill:url(#SVGID_27_);}
	.st45{opacity:0.3;fill:url(#SVGID_28_);}
	.st46{opacity:0.3;fill:url(#SVGID_33_);}
	.st47{opacity:0.3;fill:url(#SVGID_34_);}
	.st48{opacity:0.3;fill:url(#SVGID_37_);}
	.st49{opacity:0.3;fill:url(#SVGID_38_);}
	.st50{fill:none;stroke:#B8B9BA;stroke-width:0.5;stroke-miterlimit:10;}
	.st51{fill:#202121;}
	.st52{fill:#232C25;}
	.st53{fill:#F28400;}
	.st54{fill:#256533;}
	.st55{fill:#F3F4F5;}
	.st56{fill:#263A45;}
	.st57{fill:#265E67;}
	.st58{fill:#F5E554;}
	.st59{fill:#F6A2A3;}
	.st60{fill:#28302A;}
	.st61{fill:#5CA39B;}
	.st62{fill:#5E7564;}
	.st63{fill-rule:evenodd;clip-rule:evenodd;fill:#EDC92C;}
	.st64{opacity:0.2;fill:#FFFFFF;}
	.st65{fill:url(#SVGID_1_);}
	.st66{fill:url(#SVGID_2_);}
	.st67{fill:url(#SVGID_3_);}
	.st68{fill:url(#SVGID_4_);}
	.st69{fill:url(#SVGID_5_);}
	.st70{fill:url(#SVGID_6_);}
	.st71{fill:url(#SVGID_7_);}
	.st72{fill:#C2DFDD;}
	.st73{fill:#C5E2E5;}
	.st74{fill:#98979B;}
	.st75{fill:#989897;}
	.st76{fill:#989A9A;}
	.st77{fill:#C9C9C8;}
	.st78{fill:#2F3A32;}
	.st79{fill:#2F8442;}
	.st80{opacity:0.7;}
	.st81{fill:#60C3B6;}
	.st82{fill:#FFFFFF;}
	.st83{fill:#626463;}
	.st84{fill:#636463;}
	.st85{fill-rule:evenodd;clip-rule:evenodd;fill:#F37C2A;}
	.st86{fill:none;}
	.st87{fill:#676767;}
	.st88{fill:#676969;}
	.st89{fill:#67B4AD;}
	.st90{fill:#67B8CB;}
	.st91{fill:#CBCBC9;}
	.st92{fill:#CCCBCF;}
	.st93{fill:#CCE9E9;}
	.st94{fill:#CDCCCB;}
	.st95{fill:#CDE9E6;}
	.st96{fill:#30302F;}
	.st97{fill-rule:evenodd;clip-rule:evenodd;fill:#F9C645;}
	.st98{opacity:0.7;fill:#FFFFFF;}
	.st99{fill:#343433;}
	.st100{fill:#343434;}
	.st101{fill:#344E5D;}
	.st102{fill:#357180;}
	.st103{opacity:0.25;fill:#DFF1F5;}
	.st104{fill:#6CC077;}
	.st105{fill:#6EBCB5;}
	.st106{fill:none;stroke:#67B8CB;stroke-width:0.5;stroke-miterlimit:10;}
	.st107{fill:#D2D2D2;}
	.st108{fill:#D3D4E3;}
	.st109{fill:#D4A160;}
	.st110{fill:#08090B;}
	.st111{fill:#3CB881;}
	.st112{fill:#D7DABA;}
	.st113{fill:#3D4040;}
	.st114{fill:url(#SVGID_10_);}
	.st115{fill:url(#SVGID_11_);}
	.st116{fill:url(#SVGID_12_);}
	.st117{fill:url(#SVGID_13_);}
	.st118{fill:url(#SVGID_22_);}
	.st119{fill:url(#SVGID_23_);}
	.st120{fill:url(#SVGID_24_);}
	.st121{fill:url(#SVGID_29_);}
	.st122{fill:url(#SVGID_30_);}
	.st123{fill:url(#SVGID_41_);}
	.st124{opacity:0.1;fill:#FFFFFF;}
	.st125{fill:#A07238;}
	.st126{fill:#717171;}
	.st127{clip-path:url(#SVGID_15_);}
	.st128{clip-path:url(#SVGID_19_);}
	.st129{clip-path:url(#SVGID_21_);}
	.st130{clip-path:url(#SVGID_26_);}
	.st131{clip-path:url(#SVGID_32_);}
	.st132{clip-path:url(#SVGID_36_);}
	.st133{clip-path:url(#SVGID_40_);}
	.st134{fill:#A4A5A4;}
	.st135{fill:#767676;}
	.st136{fill:#767879;}
	.st137{fill:#DBF0F5;}
	.st138{fill:#DC494A;}
	.st139{fill:#DCDBDC;}
	.st140{fill:#0EA24A;}
	.st141{fill:#404040;}
	.st142{fill:#DFDFDF;}
	.st143{fill:#447A74;}
]]>
</style>
<g>
	<g>
		<g>
			<g>
				<circle class="st10" cx="68.416" cy="68.417" r="63.333"/>
			</g>
		</g>
	</g>
	<g>
		<g>
			<g>
				<linearGradient id="SVGID_1_" gradientUnits="userSpaceOnUse" x1="55.4736" y1="105.7305" x2="81.6201" y2="105.7305">
					<stop  offset="0" style="stop-color:#959397"/>
					<stop  offset="0.2344" style="stop-color:#A6A4AA"/>
					<stop  offset="0.7312" style="stop-color:#C4C2CC"/>
					<stop  offset="1" style="stop-color:#D0CED9"/>
				</linearGradient>
				<path class="st65" d="M81.62,113.852c0,0.806-0.654,0.622-1.461,0.622H56.935c-0.809,0-1.461,0.184-1.461-0.622v-0.996
					l3.414-5.134l-0.063-9.292c0-0.807,0.652-1.461,1.461-1.461h16.521c0.805,0,1.461,0.654,1.461,1.461l-0.057,9.319l3.408,5.106
					V113.852z"/>
				<linearGradient id="SVGID_2_" gradientUnits="userSpaceOnUse" x1="68.5469" y1="96.1318" x2="68.5469" y2="113.4976">
					<stop  offset="0.1152" style="stop-color:#959397"/>
					<stop  offset="0.1422" style="stop-color:#99989B"/>
					<stop  offset="0.3725" style="stop-color:#BABAB7"/>
					<stop  offset="0.497" style="stop-color:#C6C7C2"/>
					<stop  offset="0.6242" style="stop-color:#78767C"/>
					<stop  offset="1" style="stop-color:#97969E"/>
				</linearGradient>
				<path class="st66" d="M81.62,112.855c0,0.808-0.654,0.624-1.461,0.624H56.935c-0.809,0-1.461,0.184-1.461-0.624l3.414-5.972
					l-0.063-9.291c0-0.809,0.652-1.461,1.461-1.461h16.521c0.805,0,1.461,0.652,1.461,1.461l-0.057,9.319L81.62,112.855z"/>
			</g>
			<g>
				<g>
					<linearGradient id="SVGID_3_" gradientUnits="userSpaceOnUse" x1="22.5303" y1="67.9512" x2="114.5635" y2="67.9512">
						<stop  offset="0" style="stop-color:#959397"/>
						<stop  offset="0.2344" style="stop-color:#A6A4AA"/>
						<stop  offset="0.7312" style="stop-color:#C4C2CC"/>
						<stop  offset="1" style="stop-color:#D0CED9"/>
					</linearGradient>
					<path class="st67" d="M114.563,95.081c0,3.035-2.459,5.494-5.492,5.494H28.024c-3.035,0-5.494-2.459-5.494-5.494v-54.26
						c0-3.035,2.459-5.494,5.494-5.494h81.047c3.033,0,5.492,2.459,5.492,5.494V95.081z"/>
					<g>
						<rect x="26.479" y="39.019" class="st110" width="83.967" height="45.754"/>
						<linearGradient id="SVGID_4_" gradientUnits="userSpaceOnUse" x1="26.4795" y1="61.8955" x2="110.4463" y2="61.8955">
							<stop  offset="0" style="stop-color:#7F55A2"/>
							<stop  offset="0.7333" style="stop-color:#694380"/>
							<stop  offset="1" style="stop-color:#7C2F80"/>
						</linearGradient>
						<rect x="26.479" y="39.019" class="st68" width="83.967" height="45.754"/>
					</g>
					<g>
						<polygon class="st92" points="93.698,84.613 43.386,84.613 47.938,81.351 89.146,81.351 						"/>
						<g>
							<g>
								<ellipse class="st74" cx="50.067" cy="83.08" rx="1.336" ry="0.669"/>
								<circle class="st59" cx="50.068" cy="81.232" r="1.651"/>
							</g>
							<g>
								<ellipse class="st74" cx="59.502" cy="83.08" rx="1.337" ry="0.669"/>
								<circle class="st58" cx="59.502" cy="81.232" r="1.651"/>
							</g>
							<g>
								<ellipse class="st74" cx="68.936" cy="83.08" rx="1.337" ry="0.669"/>
								<circle class="st29" cx="68.935" cy="81.232" r="1.65"/>
							</g>
							<g>
								<ellipse class="st74" cx="78.368" cy="83.08" rx="1.336" ry="0.669"/>
								<circle class="st104" cx="78.369" cy="81.232" r="1.651"/>
							</g>
							<g>
								<ellipse class="st74" cx="87.802" cy="83.08" rx="1.336" ry="0.669"/>
								<circle class="st90" cx="87.802" cy="81.232" r="1.65"/>
							</g>
							<g>
								<g>
									<ellipse class="st74" cx="54.785" cy="83.08" rx="1.335" ry="0.669"/>
								</g>
								
									<rect x="53.411" y="79.622" transform="matrix(-0.7071 0.7071 -0.7071 -0.7071 150.7993 99.531)" class="st90" width="2.751" height="2.751"/>
							</g>
							<g>
								<g>
									<ellipse class="st74" cx="64.22" cy="83.08" rx="1.336" ry="0.669"/>
								</g>
								
									<rect x="62.844" y="79.622" transform="matrix(-0.7071 0.7071 -0.7071 -0.7071 166.9035 92.8604)" class="st104" width="2.751" height="2.751"/>
							</g>
							<g>
								<g>
									<ellipse class="st74" cx="73.651" cy="83.08" rx="1.336" ry="0.669"/>
								</g>
								
									<rect x="72.278" y="79.622" transform="matrix(-0.7071 0.7071 -0.7071 -0.7071 183.0077 86.1899)" class="st59" width="2.751" height="2.751"/>
							</g>
							<g>
								<g>
									<ellipse class="st74" cx="83.085" cy="83.08" rx="1.336" ry="0.669"/>
								</g>
								
									<rect x="81.711" y="79.622" transform="matrix(-0.7071 0.7071 -0.7071 -0.7071 199.1118 79.5193)" class="st58" width="2.751" height="2.751"/>
							</g>
						</g>
					</g>
				</g>
				<g>
					<path class="st0" d="M70.11,90.968c0.086,0.467-0.137,0.849-0.379,1.107c-0.207,0.224-0.486,0.399-0.873,0.379
						c-0.076-0.814,0.574-1.384,1.242-1.486C70.104,90.968,70.106,90.968,70.11,90.968z"/>
					<path class="st0" d="M71.294,93.147c-0.422,0.303-0.729,0.701-0.682,1.374c0.043,0.575,0.416,0.965,0.861,1.173
						c-0.104,0.302-0.225,0.57-0.379,0.814c-0.197,0.315-0.484,0.783-0.906,0.873c-0.486,0.1-0.787-0.275-1.316-0.237
						c-0.402,0.032-0.768,0.363-1.174,0.227c-0.195-0.068-0.404-0.278-0.537-0.437c-0.41-0.494-0.795-1.262-0.893-2.001
						c-0.084-0.634,0-1.186,0.256-1.607c0.268-0.439,0.768-0.858,1.432-0.783c0.164,0.019,0.328,0.077,0.48,0.136
						c0.127,0.049,0.299,0.146,0.457,0.146c0.152-0.002,0.342-0.104,0.49-0.157c0.172-0.063,0.354-0.13,0.537-0.145
						C70.597,92.46,71.005,92.792,71.294,93.147z"/>
				</g>
				<g>
					<defs>
						<path id="SVGID_14_" d="M114.563,95.081c0,3.035-2.459,5.494-5.492,5.494H28.024c-3.035,0-5.494-2.459-5.494-5.494v-54.26
							c0-3.035,2.459-5.494,5.494-5.494h81.047c3.033,0,5.492,2.459,5.492,5.494V95.081z"/>
					</defs>
					<clipPath id="SVGID_5_">
						<use xlink:href="#SVGID_14_"  style="overflow:visible;"/>
					</clipPath>
					<g style="clip-path:url(#SVGID_5_);">
						<polygon class="st86" points="26.479,84.772 60.536,84.772 92.511,39.019 26.479,39.019 						"/>
						<path class="st110" d="M26.479,84.772V39.019h66.031l2.58-3.691H28.024c-3.035,0-5.494,2.459-5.494,5.494v47.656h35.418
							l2.588-3.705H26.479z"/>
						
							<linearGradient id="SVGID_6_" gradientUnits="userSpaceOnUse" x1="-608.4624" y1="367.752" x2="-498.163" y2="367.752" gradientTransform="matrix(0.4028 0.2815 -1.1042 1.58 730.625 -352.08)">
							<stop  offset="0" style="stop-color:#959397"/>
							<stop  offset="0.2344" style="stop-color:#A6A4AA"/>
							<stop  offset="0.7312" style="stop-color:#C4C2CC"/>
							<stop  offset="1" style="stop-color:#D0CED9"/>
						</linearGradient>
						<polygon style="opacity:0.3;fill:url(#SVGID_6_);" points="110.446,84.772 110.446,39.019 92.511,39.019 60.536,84.772 						
							"/>
						<path class="st110" d="M114.563,40.821c0-3.035-2.459-5.494-5.492-5.494h-13.98l-2.58,3.691h17.936v45.754h-49.91
							l-2.588,3.705h56.615V40.821z"/>
						
							<linearGradient id="SVGID_7_" gradientUnits="userSpaceOnUse" x1="-608.4624" y1="368.0859" x2="-498.1656" y2="368.0859" gradientTransform="matrix(0.4028 0.2815 -1.1042 1.58 730.625 -352.08)">
							<stop  offset="0" style="stop-color:#959397"/>
							<stop  offset="0.2344" style="stop-color:#A6A4AA"/>
							<stop  offset="0.7312" style="stop-color:#C4C2CC"/>
							<stop  offset="1" style="stop-color:#D0CED9"/>
						</linearGradient>
						<path style="opacity:0.3;fill:url(#SVGID_7_);" d="M114.563,40.821c0-3.035-2.459-5.494-5.492-5.494h-13.98l-2.58,3.691
							h17.936v45.754h-49.91l-2.588,3.705h56.615V40.821z"/>
					</g>
				</g>
			</g>
		</g>
	</g>
</g>
</svg>
