<?xml version="1.0" encoding="utf-8"?>
<!-- Generator: Adobe Illustrator 16.0.0, SVG Export Plug-In . SVG Version: 6.00 Build 0)  -->
<!DOCTYPE svg PUBLIC "-//W3C//DTD SVG 1.1//EN" "http://www.w3.org/Graphics/SVG/1.1/DTD/svg11.dtd">
<svg version="1.1" id="Layer_1" xmlns="http://www.w3.org/2000/svg" xmlns:xlink="http://www.w3.org/1999/xlink" x="0px" y="0px"
	 width="136.833px" height="136.834px" viewBox="0 0 136.833 136.834" style="enable-background:new 0 0 136.833 136.834;"
	 xml:space="preserve">
<style type="text/css">
<![CDATA[
	.st0{fill-rule:evenodd;clip-rule:evenodd;fill:#08090B;}
	.st1{fill:#7BCCC7;}
	.st2{fill:#48584B;}
	.st3{fill:#AC782B;}
	.st4{fill:#49A0AE;}
	.st5{fill:#121212;}
	.st6{fill:#E1E1E1;}
	.st7{fill:#E3E2E2;}
	.st8{fill:none;stroke:#202121;stroke-width:0.5;stroke-miterlimit:10;}
	.st9{fill:#E4E4E4;}
	.st10{fill:#4ABC96;}
	.st11{fill:#E5E5E5;}
	.st12{fill:#4B4A4B;}
	.st13{fill:#E84849;stroke:#FFFFFF;stroke-width:3;}
	.st14{fill:none;stroke:#121212;stroke-miterlimit:10;}
	.st15{fill:#E79E2D;}
	.st16{fill:#E7E7E7;}
	.st17{fill:#4D4D4D;}
	.st18{fill:#4D8A97;}
	.st19{fill:#E84849;}
	.st20{fill:#807F7F;}
	.st21{fill:#B03738;}
	.st22{fill:#818282;}
	.st23{fill:#81C681;}
	.st24{opacity:0.5;fill:#202121;}
	.st25{fill:#B2B2B2;}
	.st26{fill:#B2D0CC;}
	.st27{fill:#83CECA;}
	.st28{fill:#1A1919;}
	.st29{fill:#B5DBAF;}
	.st30{fill:#EB9682;}
	.st31{fill:#EBEDEF;}
	.st32{fill:#B8B9BA;}
	.st33{fill:#ECA448;}
	.st34{fill:#1E261F;}
	.st35{fill:#ECECEC;}
	.st36{fill:#EDBF00;}
	.st37{fill:#EDC92C;}
	.st38{fill:#EDEEEF;}
	.st39{fill:#505251;}
	.st40{fill:#EFC849;}
	.st41{opacity:0.15;fill:#626463;}
	.st42{opacity:0.3;fill:url(#SVGID_16_);}
	.st43{opacity:0.3;fill:url(#SVGID_17_);}
	.st44{opacity:0.3;fill:url(#SVGID_27_);}
	.st45{opacity:0.3;fill:url(#SVGID_28_);}
	.st46{opacity:0.3;fill:url(#SVGID_33_);}
	.st47{opacity:0.3;fill:url(#SVGID_34_);}
	.st48{opacity:0.3;fill:url(#SVGID_37_);}
	.st49{opacity:0.3;fill:url(#SVGID_38_);}
	.st50{fill:none;stroke:#B8B9BA;stroke-width:0.5;stroke-miterlimit:10;}
	.st51{fill:#202121;}
	.st52{fill:#232C25;}
	.st53{fill:#F28400;}
	.st54{fill:#256533;}
	.st55{fill:#F3F4F5;}
	.st56{fill:#263A45;}
	.st57{fill:#265E67;}
	.st58{fill:#F5E554;}
	.st59{fill:#F6A2A3;}
	.st60{fill:#28302A;}
	.st61{fill:#5CA39B;}
	.st62{fill:#5E7564;}
	.st63{fill-rule:evenodd;clip-rule:evenodd;fill:#EDC92C;}
	.st64{opacity:0.2;fill:#FFFFFF;}
	.st65{fill:url(#SVGID_1_);}
	.st66{fill:url(#SVGID_2_);}
	.st67{fill:url(#SVGID_3_);}
	.st68{fill:url(#SVGID_4_);}
	.st69{fill:url(#SVGID_5_);}
	.st70{fill:url(#SVGID_6_);}
	.st71{fill:url(#SVGID_7_);}
	.st72{fill:#C2DFDD;}
	.st73{fill:#C5E2E5;}
	.st74{fill:#98979B;}
	.st75{fill:#989897;}
	.st76{fill:#989A9A;}
	.st77{fill:#C9C9C8;}
	.st78{fill:#2F3A32;}
	.st79{fill:#2F8442;}
	.st80{opacity:0.7;}
	.st81{fill:#60C3B6;}
	.st82{fill:#FFFFFF;}
	.st83{fill:#626463;}
	.st84{fill:#636463;}
	.st85{fill-rule:evenodd;clip-rule:evenodd;fill:#F37C2A;}
	.st86{fill:none;}
	.st87{fill:#676767;}
	.st88{fill:#676969;}
	.st89{fill:#67B4AD;}
	.st90{fill:#67B8CB;}
	.st91{fill:#CBCBC9;}
	.st92{fill:#CCCBCF;}
	.st93{fill:#CCE9E9;}
	.st94{fill:#CDCCCB;}
	.st95{fill:#CDE9E6;}
	.st96{fill:#30302F;}
	.st97{fill-rule:evenodd;clip-rule:evenodd;fill:#F9C645;}
	.st98{opacity:0.7;fill:#FFFFFF;}
	.st99{fill:#343433;}
	.st100{fill:#343434;}
	.st101{fill:#344E5D;}
	.st102{fill:#357180;}
	.st103{opacity:0.25;fill:#DFF1F5;}
	.st104{fill:#6CC077;}
	.st105{fill:#6EBCB5;}
	.st106{fill:none;stroke:#67B8CB;stroke-width:0.5;stroke-miterlimit:10;}
	.st107{fill:#D2D2D2;}
	.st108{fill:#D3D4E3;}
	.st109{fill:#D4A160;}
	.st110{fill:#08090B;}
	.st111{fill:#3CB881;}
	.st112{fill:#D7DABA;}
	.st113{fill:#3D4040;}
	.st114{fill:url(#SVGID_10_);}
	.st115{fill:url(#SVGID_11_);}
	.st116{fill:url(#SVGID_12_);}
	.st117{fill:url(#SVGID_13_);}
	.st118{fill:url(#SVGID_22_);}
	.st119{fill:url(#SVGID_23_);}
	.st120{fill:url(#SVGID_24_);}
	.st121{fill:url(#SVGID_29_);}
	.st122{fill:url(#SVGID_30_);}
	.st123{fill:url(#SVGID_41_);}
	.st124{opacity:0.1;fill:#FFFFFF;}
	.st125{fill:#A07238;}
	.st126{fill:#717171;}
	.st127{clip-path:url(#SVGID_15_);}
	.st128{clip-path:url(#SVGID_19_);}
	.st129{clip-path:url(#SVGID_21_);}
	.st130{clip-path:url(#SVGID_26_);}
	.st131{clip-path:url(#SVGID_32_);}
	.st132{clip-path:url(#SVGID_36_);}
	.st133{clip-path:url(#SVGID_40_);}
	.st134{fill:#A4A5A4;}
	.st135{fill:#767676;}
	.st136{fill:#767879;}
	.st137{fill:#DBF0F5;}
	.st138{fill:#DC494A;}
	.st139{fill:#DCDBDC;}
	.st140{fill:#0EA24A;}
	.st141{fill:#404040;}
	.st142{fill:#DFDFDF;}
	.st143{fill:#447A74;}
]]>
</style>
<g>
	<g>
		<g>
			<g>
				<path class="st10" d="M5.083,68.418c0-34.98,28.355-63.334,63.334-63.334c34.977,0,63.332,28.354,63.332,63.334
					c0,34.975-28.355,63.332-63.332,63.332C33.438,131.75,5.083,103.393,5.083,68.418z"/>
			</g>
		</g>
	</g>
	<g>
		<g>
			<g>
				<linearGradient id="SVGID_1_" gradientUnits="userSpaceOnUse" x1="54.3037" y1="100.1533" x2="80.4502" y2="100.1533">
					<stop  offset="0" style="stop-color:#959397"/>
					<stop  offset="0.2344" style="stop-color:#A6A4AA"/>
					<stop  offset="0.7312" style="stop-color:#C4C2CC"/>
					<stop  offset="1" style="stop-color:#D0CED9"/>
				</linearGradient>
				<path class="st65" d="M80.45,108.275c0,0.805-0.656,0.621-1.461,0.621H55.765c-0.809,0-1.461,0.184-1.461-0.621v-0.996
					l3.414-5.135l-0.063-9.291c0-0.807,0.652-1.461,1.461-1.461h16.521c0.805,0,1.463,0.654,1.463,1.461l-0.061,9.32l3.41,5.105
					V108.275z"/>
				<linearGradient id="SVGID_2_" gradientUnits="userSpaceOnUse" x1="67.377" y1="90.5547" x2="67.377" y2="107.9204">
					<stop  offset="0.1152" style="stop-color:#959397"/>
					<stop  offset="0.1422" style="stop-color:#99989B"/>
					<stop  offset="0.3725" style="stop-color:#BABAB7"/>
					<stop  offset="0.497" style="stop-color:#C6C7C2"/>
					<stop  offset="0.6242" style="stop-color:#78767C"/>
					<stop  offset="1" style="stop-color:#97969E"/>
				</linearGradient>
				<path class="st66" d="M80.45,107.279c0,0.807-0.656,0.623-1.461,0.623H55.765c-0.809,0-1.461,0.184-1.461-0.623l3.414-5.973
					l-0.063-9.291c0-0.809,0.652-1.461,1.461-1.461h16.521c0.805,0,1.463,0.652,1.463,1.461l-0.061,9.32L80.45,107.279z"/>
			</g>
			<g>
				<g>
					<linearGradient id="SVGID_3_" gradientUnits="userSpaceOnUse" x1="21.3584" y1="62.3745" x2="113.3936" y2="62.3745">
						<stop  offset="0" style="stop-color:#959397"/>
						<stop  offset="0.2344" style="stop-color:#A6A4AA"/>
						<stop  offset="0.7312" style="stop-color:#C4C2CC"/>
						<stop  offset="1" style="stop-color:#D0CED9"/>
					</linearGradient>
					<path class="st67" d="M113.394,89.504c0,3.035-2.459,5.494-5.494,5.494H26.853c-3.035,0-5.494-2.459-5.494-5.494V35.246
						c0-3.035,2.459-5.495,5.494-5.495h81.047c3.035,0,5.494,2.46,5.494,5.495V89.504z"/>
					<rect x="25.31" y="33.362" class="st99" width="83.967" height="0.288"/>
				</g>
				<g>
					<path class="st0" d="M68.94,85.391c0.086,0.467-0.139,0.85-0.379,1.107c-0.209,0.225-0.486,0.4-0.873,0.379
						c-0.076-0.814,0.572-1.383,1.24-1.486C68.935,85.391,68.937,85.391,68.94,85.391z"/>
					<path class="st0" d="M70.126,87.57c-0.426,0.303-0.73,0.701-0.682,1.375c0.039,0.574,0.414,0.965,0.859,1.172
						c-0.104,0.303-0.227,0.57-0.379,0.814c-0.199,0.316-0.484,0.783-0.906,0.873c-0.484,0.1-0.787-0.275-1.318-0.236
						c-0.402,0.031-0.766,0.363-1.172,0.227c-0.197-0.068-0.404-0.279-0.537-0.438c-0.412-0.494-0.797-1.262-0.895-2
						c-0.084-0.635,0.002-1.186,0.258-1.607c0.268-0.439,0.766-0.859,1.43-0.783c0.164,0.018,0.33,0.076,0.48,0.135
						c0.129,0.049,0.299,0.146,0.459,0.146c0.15-0.002,0.342-0.105,0.49-0.158c0.172-0.063,0.352-0.129,0.537-0.145
						C69.425,86.883,69.835,87.215,70.126,87.57z"/>
				</g>
				<g>
					<defs>
						<path id="SVGID_25_" d="M113.394,89.504c0,3.035-2.459,5.494-5.494,5.494H26.853c-3.035,0-5.494-2.459-5.494-5.494V35.246
							c0-3.035,2.459-5.495,5.494-5.495h81.047c3.035,0,5.494,2.46,5.494,5.495V89.504z"/>
					</defs>
					<clipPath id="SVGID_4_">
						<use xlink:href="#SVGID_25_"  style="overflow:visible;"/>
					</clipPath>
					<g style="clip-path:url(#SVGID_4_);">
						<path class="st110" d="M113.394,35.246c0-3.035-2.459-5.495-5.494-5.495H93.921l-2.58,3.692h17.936v45.752h-49.91L56.778,82.9
							h56.615V35.246z"/>
						<g>
							<polygon class="st86" points="109.276,79.195 109.276,33.443 91.341,33.443 59.366,79.195 							"/>
							<path class="st110" d="M25.31,79.195V33.443h66.031l2.58-3.692H26.853c-3.035,0-5.494,2.46-5.494,5.495V82.9h35.42
								l2.588-3.705H25.31z"/>
							<polygon class="st87" points="25.31,79.195 59.366,79.195 91.341,33.443 25.31,33.443 							"/>
							
								<linearGradient id="SVGID_5_" gradientUnits="userSpaceOnUse" x1="-721.5688" y1="412.6221" x2="-611.2725" y2="412.6221" gradientTransform="matrix(0.4028 0.2815 -1.1042 1.58 824.1918 -396.1843)">
								<stop  offset="0" style="stop-color:#959397"/>
								<stop  offset="0.2344" style="stop-color:#A6A4AA"/>
								<stop  offset="0.7312" style="stop-color:#C4C2CC"/>
								<stop  offset="1" style="stop-color:#D0CED9"/>
							</linearGradient>
							<path style="opacity:0.3;fill:url(#SVGID_5_);" d="M107.899,29.751H93.921l-2.58,3.692h17.936v45.752h-49.91L56.778,82.9
								h56.615V35.246C113.394,32.211,110.935,29.751,107.899,29.751z"/>
						</g>
						<polygon class="st87" points="109.276,79.195 109.276,33.443 91.341,33.443 59.366,79.195 						"/>
						
							<linearGradient id="SVGID_6_" gradientUnits="userSpaceOnUse" x1="-721.5688" y1="412.2881" x2="-611.2697" y2="412.2881" gradientTransform="matrix(0.4028 0.2815 -1.1042 1.58 824.1918 -396.1843)">
							<stop  offset="0" style="stop-color:#959397"/>
							<stop  offset="0.2344" style="stop-color:#A6A4AA"/>
							<stop  offset="0.7312" style="stop-color:#C4C2CC"/>
							<stop  offset="1" style="stop-color:#D0CED9"/>
						</linearGradient>
						<polygon style="opacity:0.3;fill:url(#SVGID_6_);" points="109.276,79.195 109.276,33.443 91.341,33.443 59.366,79.195 						
							"/>
					</g>
				</g>
			</g>
		</g>
	</g>
</g>
</svg>
