<?xml version="1.0" encoding="utf-8"?>
<!-- Generator: Adobe Illustrator 16.0.0, SVG Export Plug-In . SVG Version: 6.00 Build 0)  -->
<!DOCTYPE svg PUBLIC "-//W3C//DTD SVG 1.1//EN" "http://www.w3.org/Graphics/SVG/1.1/DTD/svg11.dtd">
<svg version="1.1" id="Layer_1" xmlns="http://www.w3.org/2000/svg" xmlns:xlink="http://www.w3.org/1999/xlink" x="0px" y="0px"
	 width="136.833px" height="136.833px" viewBox="0 0 136.833 136.833" style="enable-background:new 0 0 136.833 136.833;"
	 xml:space="preserve">
<style type="text/css">
<![CDATA[
	.st0{fill-rule:evenodd;clip-rule:evenodd;fill:#08090B;}
	.st1{fill:#7BCCC7;}
	.st2{fill:#48584B;}
	.st3{fill:#AC782B;}
	.st4{fill:#49A0AE;}
	.st5{fill:#121212;}
	.st6{fill:#E1E1E1;}
	.st7{fill:#E3E2E2;}
	.st8{fill:none;stroke:#202121;stroke-width:0.5;stroke-miterlimit:10;}
	.st9{fill:#E4E4E4;}
	.st10{fill:#4ABC96;}
	.st11{fill:#E5E5E5;}
	.st12{fill:#4B4A4B;}
	.st13{fill:#E84849;stroke:#FFFFFF;stroke-width:3;}
	.st14{fill:none;stroke:#121212;stroke-miterlimit:10;}
	.st15{fill:#E79E2D;}
	.st16{fill:#E7E7E7;}
	.st17{fill:#4D4D4D;}
	.st18{fill:#4D8A97;}
	.st19{fill:#E84849;}
	.st20{fill:#807F7F;}
	.st21{fill:#B03738;}
	.st22{fill:#818282;}
	.st23{fill:#81C681;}
	.st24{opacity:0.5;fill:#202121;}
	.st25{fill:#B2B2B2;}
	.st26{fill:#B2D0CC;}
	.st27{fill:#83CECA;}
	.st28{fill:#1A1919;}
	.st29{fill:#B5DBAF;}
	.st30{fill:#EB9682;}
	.st31{fill:#EBEDEF;}
	.st32{fill:#B8B9BA;}
	.st33{fill:#ECA448;}
	.st34{fill:#1E261F;}
	.st35{fill:#ECECEC;}
	.st36{fill:#EDBF00;}
	.st37{fill:#EDC92C;}
	.st38{fill:#EDEEEF;}
	.st39{fill:#505251;}
	.st40{fill:#EFC849;}
	.st41{opacity:0.15;fill:#626463;}
	.st42{opacity:0.3;fill:url(#SVGID_16_);}
	.st43{opacity:0.3;fill:url(#SVGID_17_);}
	.st44{opacity:0.3;fill:url(#SVGID_27_);}
	.st45{opacity:0.3;fill:url(#SVGID_28_);}
	.st46{opacity:0.3;fill:url(#SVGID_33_);}
	.st47{opacity:0.3;fill:url(#SVGID_34_);}
	.st48{opacity:0.3;fill:url(#SVGID_37_);}
	.st49{opacity:0.3;fill:url(#SVGID_38_);}
	.st50{fill:none;stroke:#B8B9BA;stroke-width:0.5;stroke-miterlimit:10;}
	.st51{fill:#202121;}
	.st52{fill:#232C25;}
	.st53{fill:#F28400;}
	.st54{fill:#256533;}
	.st55{fill:#F3F4F5;}
	.st56{fill:#263A45;}
	.st57{fill:#265E67;}
	.st58{fill:#F5E554;}
	.st59{fill:#F6A2A3;}
	.st60{fill:#28302A;}
	.st61{fill:#5CA39B;}
	.st62{fill:#5E7564;}
	.st63{fill-rule:evenodd;clip-rule:evenodd;fill:#EDC92C;}
	.st64{opacity:0.2;fill:#FFFFFF;}
	.st65{fill:url(#SVGID_1_);}
	.st66{fill:url(#SVGID_2_);}
	.st67{fill:url(#SVGID_3_);}
	.st68{fill:url(#SVGID_4_);}
	.st69{fill:url(#SVGID_5_);}
	.st70{fill:url(#SVGID_6_);}
	.st71{fill:url(#SVGID_7_);}
	.st72{fill:#C2DFDD;}
	.st73{fill:#C5E2E5;}
	.st74{fill:#98979B;}
	.st75{fill:#989897;}
	.st76{fill:#989A9A;}
	.st77{fill:#C9C9C8;}
	.st78{fill:#2F3A32;}
	.st79{fill:#2F8442;}
	.st80{opacity:0.7;}
	.st81{fill:#60C3B6;}
	.st82{fill:#FFFFFF;}
	.st83{fill:#626463;}
	.st84{fill:#636463;}
	.st85{fill-rule:evenodd;clip-rule:evenodd;fill:#F37C2A;}
	.st86{fill:none;}
	.st87{fill:#676767;}
	.st88{fill:#676969;}
	.st89{fill:#67B4AD;}
	.st90{fill:#67B8CB;}
	.st91{fill:#CBCBC9;}
	.st92{fill:#CCCBCF;}
	.st93{fill:#CCE9E9;}
	.st94{fill:#CDCCCB;}
	.st95{fill:#CDE9E6;}
	.st96{fill:#30302F;}
	.st97{fill-rule:evenodd;clip-rule:evenodd;fill:#F9C645;}
	.st98{opacity:0.7;fill:#FFFFFF;}
	.st99{fill:#343433;}
	.st100{fill:#343434;}
	.st101{fill:#344E5D;}
	.st102{fill:#357180;}
	.st103{opacity:0.25;fill:#DFF1F5;}
	.st104{fill:#6CC077;}
	.st105{fill:#6EBCB5;}
	.st106{fill:none;stroke:#67B8CB;stroke-width:0.5;stroke-miterlimit:10;}
	.st107{fill:#D2D2D2;}
	.st108{fill:#D3D4E3;}
	.st109{fill:#D4A160;}
	.st110{fill:#08090B;}
	.st111{fill:#3CB881;}
	.st112{fill:#D7DABA;}
	.st113{fill:#3D4040;}
	.st114{fill:url(#SVGID_10_);}
	.st115{fill:url(#SVGID_11_);}
	.st116{fill:url(#SVGID_12_);}
	.st117{fill:url(#SVGID_13_);}
	.st118{fill:url(#SVGID_22_);}
	.st119{fill:url(#SVGID_23_);}
	.st120{fill:url(#SVGID_24_);}
	.st121{fill:url(#SVGID_29_);}
	.st122{fill:url(#SVGID_30_);}
	.st123{fill:url(#SVGID_41_);}
	.st124{opacity:0.1;fill:#FFFFFF;}
	.st125{fill:#A07238;}
	.st126{fill:#717171;}
	.st127{clip-path:url(#SVGID_15_);}
	.st128{clip-path:url(#SVGID_19_);}
	.st129{clip-path:url(#SVGID_21_);}
	.st130{clip-path:url(#SVGID_26_);}
	.st131{clip-path:url(#SVGID_32_);}
	.st132{clip-path:url(#SVGID_36_);}
	.st133{clip-path:url(#SVGID_40_);}
	.st134{fill:#A4A5A4;}
	.st135{fill:#767676;}
	.st136{fill:#767879;}
	.st137{fill:#DBF0F5;}
	.st138{fill:#DC494A;}
	.st139{fill:#DCDBDC;}
	.st140{fill:#0EA24A;}
	.st141{fill:#404040;}
	.st142{fill:#DFDFDF;}
	.st143{fill:#447A74;}
]]>
</style>
<g>
	<g>
		<g>
			<g>
				<circle class="st36" cx="68.417" cy="68.417" r="63.333"/>
			</g>
		</g>
	</g>
	<g>
		<g>
			<g>
				<path class="st88" d="M100.605,42.694c0,0.46-0.373,0.833-0.832,0.833l0,0c-0.459,0-0.832-0.373-0.832-0.833v-5.228
					c0-0.459,0.373-0.832,0.832-0.832l0,0c0.459,0,0.832,0.373,0.832,0.832V42.694z"/>
				<path class="st88" d="M100.605,54.874c0,0.788-0.373,1.428-0.832,1.428l0,0c-0.459,0-0.832-0.64-0.832-1.428v-8.97
					c0-0.786,0.373-1.426,0.832-1.426l0,0c0.459,0,0.832,0.64,0.832,1.426V54.874z"/>
			</g>
			<g>
				<g>
					<path class="st51" d="M99.883,109.743c0,3.525-2.858,6.385-6.384,6.385H43.084c-3.526,0-6.384-2.859-6.384-6.385V33.658
						c0-3.525,2.858-6.385,6.384-6.385h50.415c3.526,0,6.384,2.859,6.384,6.385V109.743z"/>
					<path d="M72.583,30.959c0,0.331-0.391,0.599-0.872,0.599h-7.719c-0.481,0-0.872-0.268-0.872-0.599l0,0
						c0-0.33,0.39-0.599,0.872-0.599h7.719C72.192,30.361,72.583,30.629,72.583,30.959L72.583,30.959z"/>
					<linearGradient id="SVGID_1_" gradientUnits="userSpaceOnUse" x1="37.5776" y1="102.3057" x2="99.0066" y2="40.8767">
						<stop  offset="0" style="stop-color:#5C6EB3"/>
						<stop  offset="0.7333" style="stop-color:#3E4280"/>
						<stop  offset="1" style="stop-color:#3E4280"/>
					</linearGradient>
					<rect x="43.72" y="34.733" class="st65" width="49.143" height="73.715"/>
					<rect x="43.72" y="94.406" class="st103" width="49.143" height="14.042"/>
					<path class="st90" d="M54.092,90.398c0,0.723-0.586,1.309-1.309,1.309h-3.817c-0.723,0-1.309-0.586-1.309-1.309v-3.817
						c0-0.723,0.586-1.309,1.309-1.309h3.817c0.723,0,1.309,0.586,1.309,1.309V90.398z"/>
					<path class="st58" d="M65.652,90.398c0,0.723-0.586,1.309-1.309,1.309h-3.817c-0.724,0-1.309-0.586-1.309-1.309v-3.817
						c0-0.723,0.585-1.309,1.309-1.309h3.817c0.723,0,1.309,0.586,1.309,1.309V90.398z"/>
					<path class="st104" d="M77.213,90.398c0,0.723-0.586,1.309-1.309,1.309h-3.817c-0.723,0-1.309-0.586-1.309-1.309v-3.817
						c0-0.723,0.586-1.309,1.309-1.309h3.817c0.723,0,1.309,0.586,1.309,1.309V90.398z"/>
					<path class="st29" d="M88.773,90.398c0,0.723-0.585,1.309-1.309,1.309h-3.817c-0.723,0-1.309-0.586-1.309-1.309v-3.817
						c0-0.723,0.586-1.309,1.309-1.309h3.817c0.723,0,1.309,0.586,1.309,1.309V90.398z"/>
					<path class="st59" d="M54.092,102.02c0,0.722-0.586,1.308-1.309,1.308h-3.817c-0.723,0-1.309-0.586-1.309-1.308v-3.818
						c0-0.723,0.586-1.309,1.309-1.309h3.817c0.723,0,1.309,0.586,1.309,1.309V102.02z"/>
					<path class="st29" d="M65.652,102.02c0,0.722-0.586,1.308-1.309,1.308h-3.817c-0.724,0-1.309-0.586-1.309-1.308v-3.818
						c0-0.723,0.585-1.309,1.309-1.309h3.817c0.723,0,1.309,0.586,1.309,1.309V102.02z"/>
					<path class="st58" d="M77.213,102.02c0,0.722-0.586,1.308-1.309,1.308h-3.817c-0.723,0-1.309-0.586-1.309-1.308v-3.818
						c0-0.723,0.586-1.309,1.309-1.309h3.817c0.723,0,1.309,0.586,1.309,1.309V102.02z"/>
					<path class="st90" d="M88.773,102.02c0,0.722-0.585,1.308-1.309,1.308h-3.817c-0.723,0-1.309-0.586-1.309-1.308v-3.818
						c0-0.723,0.586-1.309,1.309-1.309h3.817c0.723,0,1.309,0.586,1.309,1.309V102.02z"/>
					<rect x="43.767" y="34.836" class="st24" width="48.921" height="3.583"/>
					<circle class="st82" cx="85.842" cy="36.518" r="0.913"/>
					<circle class="st82" cx="46.695" cy="36.518" r="0.914"/>
					<circle class="st82" cx="90.01" cy="36.518" r="0.913"/>
				</g>
			</g>
			<path class="st106" d="M88.724,75.611c0,0.924-0.749,1.674-1.674,1.674H49.252c-0.927,0-1.678-0.75-1.678-1.674v-1.901
				c0-0.928,0.751-1.678,1.678-1.678H87.05c0.926,0,1.674,0.75,1.674,1.678V75.611z"/>
			<g>
				<circle class="st137" cx="84.819" cy="74.133" r="1.245"/>
				<path class="st137" d="M87.07,76.401c-0.096,0.097-0.282,0.069-0.414-0.063l-1.4-1.399c-0.13-0.131-0.159-0.316-0.062-0.413
					l0.125-0.125c0.096-0.1,0.283-0.069,0.416,0.063l1.398,1.399c0.132,0.133,0.16,0.316,0.062,0.414L87.07,76.401z"/>
			</g>
			<g>
				<path class="st104" d="M49.301,68.213h37.764c0.926,0,1.673-0.749,1.673-1.673v-6.072l-3.126-3.127c0,0-1.776-2.289-3.427-2.195
					c-1.486,0.084-3.219,1.943-3.551,2.313l-2.08-2.08c0,0-2.081-2.684-4.015-2.576c-1.938,0.111-4.247,2.807-4.247,2.807
					l-0.633,0.633l-3.914-3.914c0,0-2.56-3.298-4.937-3.164c-2.376,0.135-5.218,3.445-5.218,3.445l-5.967,5.967v7.965
					C47.625,67.464,48.375,68.213,49.301,68.213z"/>
				<path class="st137" d="M58.81,49.164c2.377-0.134,4.937,3.164,4.937,3.164l3.914,3.914l0.633-0.633c0,0,2.309-2.695,4.247-2.807
					c1.934-0.107,4.015,2.576,4.015,2.576l2.08,2.08c0.332-0.369,2.065-2.229,3.551-2.313c1.651-0.094,3.427,2.195,3.427,2.195
					l3.126,3.127V44.716c0-0.926-0.748-1.677-1.673-1.677H49.301c-0.926,0-1.676,0.751-1.676,1.677v13.859l5.967-5.967
					C53.592,52.609,56.434,49.298,58.81,49.164z"/>
			</g>
		</g>
	</g>
</g>
</svg>
