<?xml version="1.0" encoding="utf-8"?>
<!-- Generator: Adobe Illustrator 16.0.0, SVG Export Plug-In . SVG Version: 6.00 Build 0)  -->
<!DOCTYPE svg PUBLIC "-//W3C//DTD SVG 1.1//EN" "http://www.w3.org/Graphics/SVG/1.1/DTD/svg11.dtd">
<svg version="1.1" id="Layer_1" xmlns="http://www.w3.org/2000/svg" xmlns:xlink="http://www.w3.org/1999/xlink" x="0px" y="0px"
	 width="136.833px" height="136.834px" viewBox="0 0 136.833 136.834" style="enable-background:new 0 0 136.833 136.834;"
	 xml:space="preserve">
<style type="text/css">
<![CDATA[
	.st0{fill-rule:evenodd;clip-rule:evenodd;fill:#08090B;}
	.st1{fill:#7BCCC7;}
	.st2{fill:#48584B;}
	.st3{fill:#AC782B;}
	.st4{fill:#49A0AE;}
	.st5{fill:#121212;}
	.st6{fill:#E1E1E1;}
	.st7{fill:#E3E2E2;}
	.st8{fill:none;stroke:#202121;stroke-width:0.5;stroke-miterlimit:10;}
	.st9{fill:#E4E4E4;}
	.st10{fill:#4ABC96;}
	.st11{fill:#E5E5E5;}
	.st12{fill:#4B4A4B;}
	.st13{fill:#E84849;stroke:#FFFFFF;stroke-width:3;}
	.st14{fill:none;stroke:#121212;stroke-miterlimit:10;}
	.st15{fill:#E79E2D;}
	.st16{fill:#E7E7E7;}
	.st17{fill:#4D4D4D;}
	.st18{fill:#4D8A97;}
	.st19{fill:#E84849;}
	.st20{fill:#807F7F;}
	.st21{fill:#B03738;}
	.st22{fill:#818282;}
	.st23{fill:#81C681;}
	.st24{opacity:0.5;fill:#202121;}
	.st25{fill:#B2B2B2;}
	.st26{fill:#B2D0CC;}
	.st27{fill:#83CECA;}
	.st28{fill:#1A1919;}
	.st29{fill:#B5DBAF;}
	.st30{fill:#EB9682;}
	.st31{fill:#EBEDEF;}
	.st32{fill:#B8B9BA;}
	.st33{fill:#ECA448;}
	.st34{fill:#1E261F;}
	.st35{fill:#ECECEC;}
	.st36{fill:#EDBF00;}
	.st37{fill:#EDC92C;}
	.st38{fill:#EDEEEF;}
	.st39{fill:#505251;}
	.st40{fill:#EFC849;}
	.st41{opacity:0.15;fill:#626463;}
	.st42{opacity:0.3;fill:url(#SVGID_16_);}
	.st43{opacity:0.3;fill:url(#SVGID_17_);}
	.st44{opacity:0.3;fill:url(#SVGID_27_);}
	.st45{opacity:0.3;fill:url(#SVGID_28_);}
	.st46{opacity:0.3;fill:url(#SVGID_33_);}
	.st47{opacity:0.3;fill:url(#SVGID_34_);}
	.st48{opacity:0.3;fill:url(#SVGID_37_);}
	.st49{opacity:0.3;fill:url(#SVGID_38_);}
	.st50{fill:none;stroke:#B8B9BA;stroke-width:0.5;stroke-miterlimit:10;}
	.st51{fill:#202121;}
	.st52{fill:#232C25;}
	.st53{fill:#F28400;}
	.st54{fill:#256533;}
	.st55{fill:#F3F4F5;}
	.st56{fill:#263A45;}
	.st57{fill:#265E67;}
	.st58{fill:#F5E554;}
	.st59{fill:#F6A2A3;}
	.st60{fill:#28302A;}
	.st61{fill:#5CA39B;}
	.st62{fill:#5E7564;}
	.st63{fill-rule:evenodd;clip-rule:evenodd;fill:#EDC92C;}
	.st64{opacity:0.2;fill:#FFFFFF;}
	.st65{fill:url(#SVGID_1_);}
	.st66{fill:url(#SVGID_2_);}
	.st67{fill:url(#SVGID_3_);}
	.st68{fill:url(#SVGID_4_);}
	.st69{fill:url(#SVGID_5_);}
	.st70{fill:url(#SVGID_6_);}
	.st71{fill:url(#SVGID_7_);}
	.st72{fill:#C2DFDD;}
	.st73{fill:#C5E2E5;}
	.st74{fill:#98979B;}
	.st75{fill:#989897;}
	.st76{fill:#989A9A;}
	.st77{fill:#C9C9C8;}
	.st78{fill:#2F3A32;}
	.st79{fill:#2F8442;}
	.st80{opacity:0.7;}
	.st81{fill:#60C3B6;}
	.st82{fill:#FFFFFF;}
	.st83{fill:#626463;}
	.st84{fill:#636463;}
	.st85{fill-rule:evenodd;clip-rule:evenodd;fill:#F37C2A;}
	.st86{fill:none;}
	.st87{fill:#676767;}
	.st88{fill:#676969;}
	.st89{fill:#67B4AD;}
	.st90{fill:#67B8CB;}
	.st91{fill:#CBCBC9;}
	.st92{fill:#CCCBCF;}
	.st93{fill:#CCE9E9;}
	.st94{fill:#CDCCCB;}
	.st95{fill:#CDE9E6;}
	.st96{fill:#30302F;}
	.st97{fill-rule:evenodd;clip-rule:evenodd;fill:#F9C645;}
	.st98{opacity:0.7;fill:#FFFFFF;}
	.st99{fill:#343433;}
	.st100{fill:#343434;}
	.st101{fill:#344E5D;}
	.st102{fill:#357180;}
	.st103{opacity:0.25;fill:#DFF1F5;}
	.st104{fill:#6CC077;}
	.st105{fill:#6EBCB5;}
	.st106{fill:none;stroke:#67B8CB;stroke-width:0.5;stroke-miterlimit:10;}
	.st107{fill:#D2D2D2;}
	.st108{fill:#D3D4E3;}
	.st109{fill:#D4A160;}
	.st110{fill:#08090B;}
	.st111{fill:#3CB881;}
	.st112{fill:#D7DABA;}
	.st113{fill:#3D4040;}
	.st114{fill:url(#SVGID_10_);}
	.st115{fill:url(#SVGID_11_);}
	.st116{fill:url(#SVGID_12_);}
	.st117{fill:url(#SVGID_13_);}
	.st118{fill:url(#SVGID_22_);}
	.st119{fill:url(#SVGID_23_);}
	.st120{fill:url(#SVGID_24_);}
	.st121{fill:url(#SVGID_29_);}
	.st122{fill:url(#SVGID_30_);}
	.st123{fill:url(#SVGID_41_);}
	.st124{opacity:0.1;fill:#FFFFFF;}
	.st125{fill:#A07238;}
	.st126{fill:#717171;}
	.st127{clip-path:url(#SVGID_15_);}
	.st128{clip-path:url(#SVGID_19_);}
	.st129{clip-path:url(#SVGID_21_);}
	.st130{clip-path:url(#SVGID_26_);}
	.st131{clip-path:url(#SVGID_32_);}
	.st132{clip-path:url(#SVGID_36_);}
	.st133{clip-path:url(#SVGID_40_);}
	.st134{fill:#A4A5A4;}
	.st135{fill:#767676;}
	.st136{fill:#767879;}
	.st137{fill:#DBF0F5;}
	.st138{fill:#DC494A;}
	.st139{fill:#DCDBDC;}
	.st140{fill:#0EA24A;}
	.st141{fill:#404040;}
	.st142{fill:#DFDFDF;}
	.st143{fill:#447A74;}
]]>
</style>
<g>
	<g>
		<g>
			<g>
				<circle class="st111" cx="68.416" cy="68.417" r="63.333"/>
			</g>
		</g>
	</g>
	<g>
		<g>
			<g>
				<path class="st135" d="M108.54,60.205c-5.926-21.241-13.766-26.68-21.001-24.661c-1.745,0.486-3.294,1.368-4.559,2.715
					c-3.517,1.058-8.213,2.153-12.601,2.153c-4.676,0-9.704-1.244-13.277-2.36c-1.323-1.563-2.99-2.561-4.893-3.093
					c-7.236-2.019-15.076,3.421-21.002,24.662c-5.926,21.24-4.863,40.095,2.372,42.115c5.995,1.672,15.22-6.987,21.278-22.683
					c3.232-0.99,9.465-3.833,14.938-3.833c4.932,0,11.162,0.461,15.064,1.5c7.13,16.345,15.5,26.387,21.609,24.682
					C113.706,99.382,114.466,81.447,108.54,60.205z"/>
				<path class="st35" d="M108.54,58.45c-5.926-21.241-13.766-26.681-21.001-24.661c-1.745,0.487-3.294,1.367-4.559,2.715
					c-3.517,1.059-8.213,2.153-12.601,2.153c-4.676,0-9.704-1.244-13.277-2.361c-1.323-1.562-2.99-2.561-4.893-3.092
					c-7.236-2.019-15.076,3.421-21.002,24.662s-4.863,40.096,2.372,42.115c5.995,1.672,14.343-8.742,20.401-24.438
					c3.232-0.99,10.342-2.955,15.814-2.955c4.932,0,11.721,1.596,15.623,2.635c6.082,16.202,14.641,27.046,20.749,25.343
					C113.404,98.546,114.466,79.691,108.54,58.45z"/>
				<g>
					<g>
						<ellipse class="st6" cx="47.345" cy="46.61" rx="5.777" ry="6.308"/>
						<circle class="st22" cx="47.345" cy="46.336" r="5.191"/>
						<circle class="st17" cx="47.345" cy="46.336" r="3.876"/>
					</g>
					<g>
						<ellipse class="st6" cx="59.704" cy="62.276" rx="8.483" ry="8.85"/>
						<g>
							<defs>
								<circle id="SVGID_18_" cx="59.63" cy="61.693" r="7.605"/>
							</defs>
							<clipPath id="SVGID_1_">
								<use xlink:href="#SVGID_18_"  style="overflow:visible;"/>
							</clipPath>
							<g style="clip-path:url(#SVGID_1_);">
								<g>
									<path class="st84" d="M52.497,64.311c0.794,2.163,2.537,3.864,4.73,4.595v-4.595H52.497z"/>
									<path class="st84" d="M62.146,68.864c2.141-0.75,3.838-2.428,4.619-4.554h-4.619V68.864z"/>
									<path class="st84" d="M57.228,54.481c-2.318,0.772-4.143,2.626-4.865,4.967h4.865V54.481z"/>
									<path class="st84" d="M66.897,59.448c-0.71-2.303-2.488-4.132-4.752-4.926v4.926H66.897z"/>
									<path class="st17" d="M66.897,59.448h-4.752v-4.926c-0.789-0.276-1.633-0.435-2.516-0.435c-0.84,0-1.646,0.142-2.402,0.394
										v4.967h-4.865c-0.219,0.71-0.338,1.464-0.338,2.245c0,0.921,0.172,1.8,0.473,2.617h4.73v4.595
										c0.756,0.252,1.563,0.394,2.402,0.394c0.883,0,1.727-0.158,2.516-0.435v-4.554h4.619c0.299-0.817,0.471-1.696,0.471-2.617
										C67.235,60.912,67.117,60.158,66.897,59.448z"/>
								</g>
								
									<rect x="55.338" y="57.621" transform="matrix(-0.7072 -0.707 0.707 -0.7072 58.0223 147.8571)" class="st17" width="8.584" height="8.584"/>
							</g>
						</g>
					</g>
					<g>
						<g>
							<ellipse class="st6" cx="82.154" cy="64.398" rx="5.777" ry="6.582"/>
							<circle class="st22" cx="82.227" cy="64.106" r="5.192"/>
						</g>
						<circle class="st17" cx="82.228" cy="64.106" r="3.875"/>
					</g>
					<g>
						<circle class="st25" cx="77.73" cy="47.104" r="1.486"/>
						<circle class="st25" cx="62.702" cy="47.104" r="1.486"/>
						<circle class="st135" cx="70.38" cy="47.214" r="4.314"/>
						<g>
							<defs>
								<circle id="SVGID_20_" cx="70.381" cy="47.214" r="3.876"/>
							</defs>
							<clipPath id="SVGID_2_">
								<use xlink:href="#SVGID_20_"  style="overflow:visible;"/>
							</clipPath>
							<g style="clip-path:url(#SVGID_2_);">
								<path class="st25" d="M67.86,44.292c-0.823,0.71-1.355,1.748-1.355,2.922c0,0.739,0.219,1.423,0.578,2.011l2.448-2.926
									L67.86,44.292z"/>
								<path class="st25" d="M70.472,45.211c0.277-0.338,0.523-0.631,0.742-0.88l0.6-0.711c-0.444-0.178-0.926-0.281-1.434-0.281
									c-0.412,0-0.802,0.082-1.174,0.201l0.591,0.764C70.069,44.653,70.294,44.957,70.472,45.211z"/>
								<path class="st25" d="M73.792,49.017c0.287-0.541,0.465-1.148,0.465-1.803c0-1.112-0.475-2.108-1.226-2.814l-1.581,1.808
									L73.792,49.017z"/>
								<path class="st25" d="M70.532,47.301l-2.417,3.045c0.638,0.463,1.417,0.743,2.265,0.743c0.924,0,1.76-0.336,2.425-0.874
									l-1.759-2.235L70.532,47.301z"/>
								<path class="st23" d="M73.792,49.017l-2.342-2.81l1.581-1.808c-0.352-0.331-0.762-0.598-1.218-0.779l-0.6,0.711
									c-0.219,0.249-0.465,0.542-0.742,0.88c-0.178-0.254-0.402-0.558-0.675-0.907l-0.591-0.764
									c-0.502,0.16-0.957,0.416-1.346,0.752l1.671,2.007l-2.448,2.926c0.268,0.439,0.617,0.82,1.032,1.121l2.417-3.045
									l0.514,0.679l1.759,2.235C73.211,49.887,73.546,49.481,73.792,49.017z"/>
							</g>
						</g>
					</g>
					<g>
						<g>
							<circle class="st102" cx="86.177" cy="47.214" r="2.56"/>
							<g>
								<path class="st57" d="M84.54,45.639h1.064l0.555,0.963l0.539-0.963h1.055l-0.975,1.516l1.066,1.613h-1.087l-0.618-1.006
									l-0.617,1.006h-1.081l1.079-1.63L84.54,45.639z"/>
							</g>
						</g>
						<g>
							<circle class="st15" cx="91.441" cy="41.948" r="2.56"/>
							<path class="st3" d="M89.854,40.652h3.406l-1.218,1.819v1.311h-0.969v-1.311L89.854,40.652z"/>
						</g>
						<g>
							<circle class="st19" cx="96.708" cy="47.214" r="2.56"/>
							<path class="st21" d="M95.507,45.626h1.811c0.303,0,0.533,0.073,0.695,0.223s0.243,0.335,0.243,0.556
								c0,0.185-0.058,0.343-0.174,0.476c-0.076,0.088-0.188,0.157-0.337,0.209c0.225,0.055,0.391,0.147,0.496,0.279
								c0.106,0.131,0.158,0.296,0.158,0.496c0,0.161-0.037,0.308-0.112,0.438s-0.179,0.231-0.31,0.308
								c-0.082,0.046-0.203,0.081-0.367,0.103c-0.217,0.028-0.362,0.042-0.434,0.042h-1.67V45.626z"/>
						</g>
						<g>
							<circle class="st79" cx="91.441" cy="52.479" r="2.56"/>
							<path class="st54" d="M92.026,53.283h-1.098L90.776,53.8h-0.987l1.177-3.129h1.055l1.176,3.129h-1.013L92.026,53.283z"/>
						</g>
					</g>
				</g>
			</g>
		</g>
	</g>
</g>
</svg>
