<?xml version="1.0" encoding="utf-8"?>
<!-- Generator: Adobe Illustrator 16.0.0, SVG Export Plug-In . SVG Version: 6.00 Build 0)  -->
<!DOCTYPE svg PUBLIC "-//W3C//DTD SVG 1.1//EN" "http://www.w3.org/Graphics/SVG/1.1/DTD/svg11.dtd">
<svg version="1.1" id="Layer_1" xmlns="http://www.w3.org/2000/svg" xmlns:xlink="http://www.w3.org/1999/xlink" x="0px" y="0px"
	 width="136.833px" height="136.833px" viewBox="0 0 136.833 136.833" style="enable-background:new 0 0 136.833 136.833;"
	 xml:space="preserve">
<style type="text/css">
<![CDATA[
	.st0{fill-rule:evenodd;clip-rule:evenodd;fill:#08090B;}
	.st1{fill:#7BCCC7;}
	.st2{fill:#48584B;}
	.st3{fill:#AC782B;}
	.st4{fill:#49A0AE;}
	.st5{fill:#121212;}
	.st6{fill:#E1E1E1;}
	.st7{fill:#E3E2E2;}
	.st8{fill:none;stroke:#202121;stroke-width:0.5;stroke-miterlimit:10;}
	.st9{fill:#E4E4E4;}
	.st10{fill:#4ABC96;}
	.st11{fill:#E5E5E5;}
	.st12{fill:#4B4A4B;}
	.st13{fill:#E84849;stroke:#FFFFFF;stroke-width:3;}
	.st14{fill:none;stroke:#121212;stroke-miterlimit:10;}
	.st15{fill:#E79E2D;}
	.st16{fill:#E7E7E7;}
	.st17{fill:#4D4D4D;}
	.st18{fill:#4D8A97;}
	.st19{fill:#E84849;}
	.st20{fill:#807F7F;}
	.st21{fill:#B03738;}
	.st22{fill:#818282;}
	.st23{fill:#81C681;}
	.st24{opacity:0.5;fill:#202121;}
	.st25{fill:#B2B2B2;}
	.st26{fill:#B2D0CC;}
	.st27{fill:#83CECA;}
	.st28{fill:#1A1919;}
	.st29{fill:#B5DBAF;}
	.st30{fill:#EB9682;}
	.st31{fill:#EBEDEF;}
	.st32{fill:#B8B9BA;}
	.st33{fill:#ECA448;}
	.st34{fill:#1E261F;}
	.st35{fill:#ECECEC;}
	.st36{fill:#EDBF00;}
	.st37{fill:#EDC92C;}
	.st38{fill:#EDEEEF;}
	.st39{fill:#505251;}
	.st40{fill:#EFC849;}
	.st41{opacity:0.15;fill:#626463;}
	.st42{opacity:0.3;fill:url(#SVGID_16_);}
	.st43{opacity:0.3;fill:url(#SVGID_17_);}
	.st44{opacity:0.3;fill:url(#SVGID_27_);}
	.st45{opacity:0.3;fill:url(#SVGID_28_);}
	.st46{opacity:0.3;fill:url(#SVGID_33_);}
	.st47{opacity:0.3;fill:url(#SVGID_34_);}
	.st48{opacity:0.3;fill:url(#SVGID_37_);}
	.st49{opacity:0.3;fill:url(#SVGID_38_);}
	.st50{fill:none;stroke:#B8B9BA;stroke-width:0.5;stroke-miterlimit:10;}
	.st51{fill:#202121;}
	.st52{fill:#232C25;}
	.st53{fill:#F28400;}
	.st54{fill:#256533;}
	.st55{fill:#F3F4F5;}
	.st56{fill:#263A45;}
	.st57{fill:#265E67;}
	.st58{fill:#F5E554;}
	.st59{fill:#F6A2A3;}
	.st60{fill:#28302A;}
	.st61{fill:#5CA39B;}
	.st62{fill:#5E7564;}
	.st63{fill-rule:evenodd;clip-rule:evenodd;fill:#EDC92C;}
	.st64{opacity:0.2;fill:#FFFFFF;}
	.st65{fill:url(#SVGID_1_);}
	.st66{fill:url(#SVGID_2_);}
	.st67{fill:url(#SVGID_3_);}
	.st68{fill:url(#SVGID_4_);}
	.st69{fill:url(#SVGID_5_);}
	.st70{fill:url(#SVGID_6_);}
	.st71{fill:url(#SVGID_7_);}
	.st72{fill:#C2DFDD;}
	.st73{fill:#C5E2E5;}
	.st74{fill:#98979B;}
	.st75{fill:#989897;}
	.st76{fill:#989A9A;}
	.st77{fill:#C9C9C8;}
	.st78{fill:#2F3A32;}
	.st79{fill:#2F8442;}
	.st80{opacity:0.7;}
	.st81{fill:#60C3B6;}
	.st82{fill:#FFFFFF;}
	.st83{fill:#626463;}
	.st84{fill:#636463;}
	.st85{fill-rule:evenodd;clip-rule:evenodd;fill:#F37C2A;}
	.st86{fill:none;}
	.st87{fill:#676767;}
	.st88{fill:#676969;}
	.st89{fill:#67B4AD;}
	.st90{fill:#67B8CB;}
	.st91{fill:#CBCBC9;}
	.st92{fill:#CCCBCF;}
	.st93{fill:#CCE9E9;}
	.st94{fill:#CDCCCB;}
	.st95{fill:#CDE9E6;}
	.st96{fill:#30302F;}
	.st97{fill-rule:evenodd;clip-rule:evenodd;fill:#F9C645;}
	.st98{opacity:0.7;fill:#FFFFFF;}
	.st99{fill:#343433;}
	.st100{fill:#343434;}
	.st101{fill:#344E5D;}
	.st102{fill:#357180;}
	.st103{opacity:0.25;fill:#DFF1F5;}
	.st104{fill:#6CC077;}
	.st105{fill:#6EBCB5;}
	.st106{fill:none;stroke:#67B8CB;stroke-width:0.5;stroke-miterlimit:10;}
	.st107{fill:#D2D2D2;}
	.st108{fill:#D3D4E3;}
	.st109{fill:#D4A160;}
	.st110{fill:#08090B;}
	.st111{fill:#3CB881;}
	.st112{fill:#D7DABA;}
	.st113{fill:#3D4040;}
	.st114{fill:url(#SVGID_10_);}
	.st115{fill:url(#SVGID_11_);}
	.st116{fill:url(#SVGID_12_);}
	.st117{fill:url(#SVGID_13_);}
	.st118{fill:url(#SVGID_22_);}
	.st119{fill:url(#SVGID_23_);}
	.st120{fill:url(#SVGID_24_);}
	.st121{fill:url(#SVGID_29_);}
	.st122{fill:url(#SVGID_30_);}
	.st123{fill:url(#SVGID_41_);}
	.st124{opacity:0.1;fill:#FFFFFF;}
	.st125{fill:#A07238;}
	.st126{fill:#717171;}
	.st127{clip-path:url(#SVGID_15_);}
	.st128{clip-path:url(#SVGID_19_);}
	.st129{clip-path:url(#SVGID_21_);}
	.st130{clip-path:url(#SVGID_26_);}
	.st131{clip-path:url(#SVGID_32_);}
	.st132{clip-path:url(#SVGID_36_);}
	.st133{clip-path:url(#SVGID_40_);}
	.st134{fill:#A4A5A4;}
	.st135{fill:#767676;}
	.st136{fill:#767879;}
	.st137{fill:#DBF0F5;}
	.st138{fill:#DC494A;}
	.st139{fill:#DCDBDC;}
	.st140{fill:#0EA24A;}
	.st141{fill:#404040;}
	.st142{fill:#DFDFDF;}
	.st143{fill:#447A74;}
]]>
</style>
<g>
	<g>
		<g>
			<g>
				<circle class="st101" cx="68.416" cy="68.417" r="63.333"/>
			</g>
		</g>
	</g>
	<g>
		<g>
			<g>
				<path class="st7" d="M68.415,19.714c-26.893,0-48.701,21.801-48.701,48.699c0,26.896,21.809,48.704,48.701,48.704
					c26.9,0,48.703-21.809,48.703-48.704C117.118,41.515,95.315,19.714,68.415,19.714z M68.948,73.122
					c-2.955,0-5.352-2.397-5.352-5.353c0-2.961,2.396-5.357,5.352-5.357s5.355,2.396,5.355,5.357
					C74.304,70.724,71.903,73.122,68.948,73.122z"/>
			</g>
		</g>
		<g>
			<g>
				<path class="st94" d="M96.985,31.905c-20.16-15.777-49.299-12.227-65.08,7.938c-15.779,20.164-12.223,49.309,7.939,65.086
					c20.166,15.781,49.305,12.221,65.084-7.943S117.155,47.687,96.985,31.905z M66.054,72.256c-2.215-1.732-2.605-4.937-0.873-7.152
					c1.738-2.22,4.941-2.611,7.156-0.878c2.217,1.734,2.609,4.94,0.873,7.159C71.476,73.602,68.269,73.99,66.054,72.256z"/>
			</g>
		</g>
		<g>
			<g>
				<path class="st91" d="M96.44,32.603c-19.777-15.477-48.357-11.994-63.838,7.785c-15.479,19.779-11.99,48.366,7.787,63.841
					c19.781,15.48,48.363,11.99,63.84-7.791C119.708,76.661,116.224,48.083,96.44,32.603z M66.099,72.183
					c-2.174-1.7-2.557-4.843-0.855-7.017c1.703-2.178,4.848-2.561,7.018-0.861c2.174,1.703,2.559,4.846,0.855,7.023
					C71.417,73.501,68.272,73.882,66.099,72.183z"/>
			</g>
		</g>
		<g>
			<path class="st86" d="M64.843,65.708c-1.305,2.158-0.842,4.992,1.193,6.585c2.035,1.592,4.896,1.36,6.68-0.425"/>
			<path class="st107" d="M72.587,71.945c-1.758,1.762-4.58,1.989-6.588,0.42c-2.006-1.571-2.461-4.365-1.176-6.491L32.575,40.636
				c-15.445,19.737-11.965,48.265,7.77,63.706c19.74,15.447,48.26,11.963,63.707-7.773L72.587,71.945z"/>
		</g>
		<path class="st139" d="M68.948,52.293c-8.549,0-15.473,6.928-15.473,15.476c0,8.543,6.924,15.475,15.473,15.475
			s15.477-6.932,15.477-15.475C84.425,59.221,77.497,52.293,68.948,52.293z M68.948,73.122c-2.955,0-5.352-2.397-5.352-5.353
			c0-2.961,2.396-5.357,5.352-5.357s5.355,2.396,5.355,5.357C74.304,70.724,71.903,73.122,68.948,73.122z"/>
		<path class="st139" d="M48.94,63.077L29.729,59.05c2.42-12.175,10.758-22.214,21.895-26.982l9.232,17.477
			C54.771,51.51,50.14,56.686,48.94,63.077z"/>
		<path class="st139" d="M85.214,104.758l-9.24-17.473c6.088-1.972,10.721-7.144,11.916-13.536l19.215,4.03
			C104.688,89.952,96.347,99.985,85.214,104.758z"/>
		<path class="st134" d="M68.948,59.607c-4.508,0-8.16,3.654-8.16,8.162c0,4.505,3.652,8.161,8.16,8.161s8.162-3.656,8.162-8.161
			C77.11,63.261,73.456,59.607,68.948,59.607z M68.946,73.225c-3.01,0-5.453-2.441-5.453-5.454c0-3.017,2.443-5.462,5.453-5.462
			c3.014,0,5.459,2.445,5.459,5.462C74.405,70.784,71.96,73.225,68.946,73.225z"/>
	</g>
</g>
</svg>
