<?xml version="1.0" encoding="utf-8"?>
<!-- Generator: Adobe Illustrator 16.0.0, SVG Export Plug-In . SVG Version: 6.00 Build 0)  -->
<!DOCTYPE svg PUBLIC "-//W3C//DTD SVG 1.1//EN" "http://www.w3.org/Graphics/SVG/1.1/DTD/svg11.dtd">
<svg version="1.1" id="Layer_1" xmlns="http://www.w3.org/2000/svg" xmlns:xlink="http://www.w3.org/1999/xlink" x="0px" y="0px"
	 width="136.833px" height="136.833px" viewBox="0 0 136.833 136.833" style="enable-background:new 0 0 136.833 136.833;"
	 xml:space="preserve">
<style type="text/css">
<![CDATA[
	.st0{fill-rule:evenodd;clip-rule:evenodd;fill:#08090B;}
	.st1{fill:#7BCCC7;}
	.st2{fill:#48584B;}
	.st3{fill:#AC782B;}
	.st4{fill:#49A0AE;}
	.st5{fill:#121212;}
	.st6{fill:#E1E1E1;}
	.st7{fill:#E3E2E2;}
	.st8{fill:none;stroke:#202121;stroke-width:0.5;stroke-miterlimit:10;}
	.st9{fill:#E4E4E4;}
	.st10{fill:#4ABC96;}
	.st11{fill:#E5E5E5;}
	.st12{fill:#4B4A4B;}
	.st13{fill:#E84849;stroke:#FFFFFF;stroke-width:3;}
	.st14{fill:none;stroke:#121212;stroke-miterlimit:10;}
	.st15{fill:#E79E2D;}
	.st16{fill:#E7E7E7;}
	.st17{fill:#4D4D4D;}
	.st18{fill:#4D8A97;}
	.st19{fill:#E84849;}
	.st20{fill:#807F7F;}
	.st21{fill:#B03738;}
	.st22{fill:#818282;}
	.st23{fill:#81C681;}
	.st24{opacity:0.5;fill:#202121;}
	.st25{fill:#B2B2B2;}
	.st26{fill:#B2D0CC;}
	.st27{fill:#83CECA;}
	.st28{fill:#1A1919;}
	.st29{fill:#B5DBAF;}
	.st30{fill:#EB9682;}
	.st31{fill:#EBEDEF;}
	.st32{fill:#B8B9BA;}
	.st33{fill:#ECA448;}
	.st34{fill:#1E261F;}
	.st35{fill:#ECECEC;}
	.st36{fill:#EDBF00;}
	.st37{fill:#EDC92C;}
	.st38{fill:#EDEEEF;}
	.st39{fill:#505251;}
	.st40{fill:#EFC849;}
	.st41{opacity:0.15;fill:#626463;}
	.st42{opacity:0.3;fill:url(#SVGID_16_);}
	.st43{opacity:0.3;fill:url(#SVGID_17_);}
	.st44{opacity:0.3;fill:url(#SVGID_27_);}
	.st45{opacity:0.3;fill:url(#SVGID_28_);}
	.st46{opacity:0.3;fill:url(#SVGID_33_);}
	.st47{opacity:0.3;fill:url(#SVGID_34_);}
	.st48{opacity:0.3;fill:url(#SVGID_37_);}
	.st49{opacity:0.3;fill:url(#SVGID_38_);}
	.st50{fill:none;stroke:#B8B9BA;stroke-width:0.5;stroke-miterlimit:10;}
	.st51{fill:#202121;}
	.st52{fill:#232C25;}
	.st53{fill:#F28400;}
	.st54{fill:#256533;}
	.st55{fill:#F3F4F5;}
	.st56{fill:#263A45;}
	.st57{fill:#265E67;}
	.st58{fill:#F5E554;}
	.st59{fill:#F6A2A3;}
	.st60{fill:#28302A;}
	.st61{fill:#5CA39B;}
	.st62{fill:#5E7564;}
	.st63{fill-rule:evenodd;clip-rule:evenodd;fill:#EDC92C;}
	.st64{opacity:0.2;fill:#FFFFFF;}
	.st65{fill:url(#SVGID_1_);}
	.st66{fill:url(#SVGID_2_);}
	.st67{fill:url(#SVGID_3_);}
	.st68{fill:url(#SVGID_4_);}
	.st69{fill:url(#SVGID_5_);}
	.st70{fill:url(#SVGID_6_);}
	.st71{fill:url(#SVGID_7_);}
	.st72{fill:#C2DFDD;}
	.st73{fill:#C5E2E5;}
	.st74{fill:#98979B;}
	.st75{fill:#989897;}
	.st76{fill:#989A9A;}
	.st77{fill:#C9C9C8;}
	.st78{fill:#2F3A32;}
	.st79{fill:#2F8442;}
	.st80{opacity:0.7;}
	.st81{fill:#60C3B6;}
	.st82{fill:#FFFFFF;}
	.st83{fill:#626463;}
	.st84{fill:#636463;}
	.st85{fill-rule:evenodd;clip-rule:evenodd;fill:#F37C2A;}
	.st86{fill:none;}
	.st87{fill:#676767;}
	.st88{fill:#676969;}
	.st89{fill:#67B4AD;}
	.st90{fill:#67B8CB;}
	.st91{fill:#CBCBC9;}
	.st92{fill:#CCCBCF;}
	.st93{fill:#CCE9E9;}
	.st94{fill:#CDCCCB;}
	.st95{fill:#CDE9E6;}
	.st96{fill:#30302F;}
	.st97{fill-rule:evenodd;clip-rule:evenodd;fill:#F9C645;}
	.st98{opacity:0.7;fill:#FFFFFF;}
	.st99{fill:#343433;}
	.st100{fill:#343434;}
	.st101{fill:#344E5D;}
	.st102{fill:#357180;}
	.st103{opacity:0.25;fill:#DFF1F5;}
	.st104{fill:#6CC077;}
	.st105{fill:#6EBCB5;}
	.st106{fill:none;stroke:#67B8CB;stroke-width:0.5;stroke-miterlimit:10;}
	.st107{fill:#D2D2D2;}
	.st108{fill:#D3D4E3;}
	.st109{fill:#D4A160;}
	.st110{fill:#08090B;}
	.st111{fill:#3CB881;}
	.st112{fill:#D7DABA;}
	.st113{fill:#3D4040;}
	.st114{fill:url(#SVGID_10_);}
	.st115{fill:url(#SVGID_11_);}
	.st116{fill:url(#SVGID_12_);}
	.st117{fill:url(#SVGID_13_);}
	.st118{fill:url(#SVGID_22_);}
	.st119{fill:url(#SVGID_23_);}
	.st120{fill:url(#SVGID_24_);}
	.st121{fill:url(#SVGID_29_);}
	.st122{fill:url(#SVGID_30_);}
	.st123{fill:url(#SVGID_41_);}
	.st124{opacity:0.1;fill:#FFFFFF;}
	.st125{fill:#A07238;}
	.st126{fill:#717171;}
	.st127{clip-path:url(#SVGID_15_);}
	.st128{clip-path:url(#SVGID_19_);}
	.st129{clip-path:url(#SVGID_21_);}
	.st130{clip-path:url(#SVGID_26_);}
	.st131{clip-path:url(#SVGID_32_);}
	.st132{clip-path:url(#SVGID_36_);}
	.st133{clip-path:url(#SVGID_40_);}
	.st134{fill:#A4A5A4;}
	.st135{fill:#767676;}
	.st136{fill:#767879;}
	.st137{fill:#DBF0F5;}
	.st138{fill:#DC494A;}
	.st139{fill:#DCDBDC;}
	.st140{fill:#0EA24A;}
	.st141{fill:#404040;}
	.st142{fill:#DFDFDF;}
	.st143{fill:#447A74;}
]]>
</style>
<g>
	<g>
		<g>
			<g>
				<circle class="st111" cx="68.417" cy="68.417" r="63.333"/>
			</g>
		</g>
	</g>
	<g>
		<path class="st93" d="M92.578,72.833c0,2.354-1.908,4.263-4.263,4.263H48.519c-2.355,0-4.263-1.909-4.263-4.263V55.42
			c0-2.354,1.908-4.264,4.263-4.264h39.796c2.354,0,4.263,1.91,4.263,4.264V72.833z"/>
		<path class="st93" d="M107.321,89.585c0,3.792-3.074,6.865-6.866,6.865H36.379c-3.792,0-6.866-3.073-6.866-6.865V61.552
			c0-3.791,3.074-6.866,6.866-6.866h64.076c3.792,0,6.866,3.075,6.866,6.866V89.585z"/>
		<polygon class="st1" points="94.448,74.711 42.387,74.711 48.108,60.026 88.727,60.026 		"/>
		<polygon class="st105" points="94.448,74.711 42.387,74.711 48.108,66.32 88.727,66.32 		"/>
		<path class="st72" d="M107.321,89.585c0,3.792-3.074,6.865-6.866,6.865H36.379c-3.792,0-6.866-3.073-6.866-6.865V61.552
			c18.594,16.592,60.072,17.735,77.808,0V89.585z"/>
		<g>
			<path class="st95" d="M29.513,61.552v2.86c18.594,16.592,60.072,17.735,77.808,0v-2.86
				C89.584,79.288,48.107,78.144,29.513,61.552z"/>
			<path class="st26" d="M100.455,96.451H36.379c-3.792,0-6.866-3.073-6.866-6.865v2.861c0,3.791,3.074,6.865,6.866,6.865h64.076
				c3.792,0,6.866-3.074,6.866-6.865v-2.861C107.321,93.377,104.247,96.451,100.455,96.451z"/>
		</g>
		<path class="st83" d="M90.23,88.091c0,2.091-1.696,3.786-3.786,3.786H50.748c-2.091,0-3.787-1.695-3.787-3.786v-3.875
			c0-2.092,1.696-3.786,3.787-3.786h35.696c2.09,0,3.786,1.694,3.786,3.786V88.091z"/>
		<polygon class="st16" points="97.024,106.75 40.193,106.75 50.11,85.199 87.679,85.199 		"/>
		<polygon class="st142" points="85.772,30.085 50.681,30.085 48.966,66.32 88.251,66.32 		"/>
		<polygon class="st16" points="85.58,31.419 52.398,31.04 49.606,65.962 87.931,66.67 		"/>
		<polygon class="st38" points="85.008,32.947 51.826,32.183 48.966,66.32 88.684,66.967 		"/>
		<circle class="st89" cx="94.258" cy="61.647" r="2.002"/>
		<circle class="st89" cx="100.361" cy="61.647" r="2.002"/>
		<path class="st61" d="M90.347,60.208c0,0.427-0.345,0.773-0.772,0.773H47.64c-0.427,0-0.773-0.347-0.773-0.773l0,0
			c0-0.427,0.346-0.772,0.773-0.772h41.936C90.002,59.435,90.347,59.781,90.347,60.208L90.347,60.208z"/>
		<g>
			<polygon class="st73" points="90.6,102.722 64.03,102.722 65.207,91.858 86.563,91.858 			"/>
			<g>
				<path class="st104" d="M89.616,101.263l-2.91-2.84c0,0-1.029-1.042-1.985-1.001c-0.863,0.039-1.867,0.885-2.06,1.053
					l-1.206-0.945c0,0-1.207-1.223-2.328-1.171c-1.122,0.051-2.461,1.275-2.461,1.275L76.3,97.921l-2.27-1.78
					c0,0-1.483-1.501-2.861-1.438c-1.378,0.061-3.025,1.566-3.025,1.566l-3.542,2.472l-0.572,3.981l26.292-0.011L89.616,101.263z"/>
				<path class="st90" d="M79.106,94.4c0.001-0.018,0.017-0.035,0.017-0.052c0-0.294-0.403-0.531-0.901-0.531
					c-0.065,0-0.123,0.014-0.185,0.022c-0.148-0.156-0.421-0.266-0.746-0.266c-0.422,0-0.757,0.18-0.836,0.415
					c-0.409,0.063-0.716,0.272-0.716,0.532c0,0.247,0.275,0.452,0.65,0.526c0.128,0.227,0.478,0.391,0.902,0.391
					c0.385,0,0.711-0.134,0.865-0.327c0.1,0.025,0.207,0.041,0.323,0.041c0.442,0,0.799-0.209,0.799-0.471
					C79.278,94.575,79.207,94.481,79.106,94.4z"/>
				<path class="st90" d="M83.315,95.067c-0.003-0.014-0.015-0.024-0.015-0.038c0-0.207,0.288-0.377,0.641-0.377
					c0.046,0,0.086,0.01,0.131,0.016c0.107-0.11,0.3-0.188,0.53-0.188c0.3,0,0.538,0.127,0.594,0.294
					c0.291,0.046,0.51,0.194,0.51,0.38c0,0.176-0.195,0.319-0.462,0.374c-0.091,0.16-0.339,0.276-0.642,0.276
					c-0.273,0-0.503-0.096-0.614-0.232c-0.071,0.018-0.147,0.029-0.229,0.029c-0.314,0-0.568-0.148-0.568-0.335
					C83.191,95.19,83.242,95.123,83.315,95.067z"/>
			</g>
		</g>
		<polygon class="st41" points="47.92,89.641 50.11,85.199 87.679,85.199 89.907,89.641 		"/>
		<polygon class="st143" points="62.052,102.578 47.367,102.578 51.373,91.921 63.411,91.921 		"/>
	</g>
</g>
</svg>
