<?xml version="1.0" encoding="utf-8"?>
<!-- Generator: Adobe Illustrator 16.0.0, SVG Export Plug-In . SVG Version: 6.00 Build 0)  -->
<!DOCTYPE svg PUBLIC "-//W3C//DTD SVG 1.1//EN" "http://www.w3.org/Graphics/SVG/1.1/DTD/svg11.dtd">
<svg version="1.1" id="Layer_1" xmlns="http://www.w3.org/2000/svg" xmlns:xlink="http://www.w3.org/1999/xlink" x="0px" y="0px"
	 width="136.833px" height="136.834px" viewBox="0 0 136.833 136.834" style="enable-background:new 0 0 136.833 136.834;"
	 xml:space="preserve">
<style type="text/css">
<![CDATA[
	.st0{fill-rule:evenodd;clip-rule:evenodd;fill:#08090B;}
	.st1{fill:#7BCCC7;}
	.st2{fill:#48584B;}
	.st3{fill:#AC782B;}
	.st4{fill:#49A0AE;}
	.st5{fill:#121212;}
	.st6{fill:#E1E1E1;}
	.st7{fill:#E3E2E2;}
	.st8{fill:none;stroke:#202121;stroke-width:0.5;stroke-miterlimit:10;}
	.st9{fill:#E4E4E4;}
	.st10{fill:#4ABC96;}
	.st11{fill:#E5E5E5;}
	.st12{fill:#4B4A4B;}
	.st13{fill:#E84849;stroke:#FFFFFF;stroke-width:3;}
	.st14{fill:none;stroke:#121212;stroke-miterlimit:10;}
	.st15{fill:#E79E2D;}
	.st16{fill:#E7E7E7;}
	.st17{fill:#4D4D4D;}
	.st18{fill:#4D8A97;}
	.st19{fill:#E84849;}
	.st20{fill:#807F7F;}
	.st21{fill:#B03738;}
	.st22{fill:#818282;}
	.st23{fill:#81C681;}
	.st24{opacity:0.5;fill:#202121;}
	.st25{fill:#B2B2B2;}
	.st26{fill:#B2D0CC;}
	.st27{fill:#83CECA;}
	.st28{fill:#1A1919;}
	.st29{fill:#B5DBAF;}
	.st30{fill:#EB9682;}
	.st31{fill:#EBEDEF;}
	.st32{fill:#B8B9BA;}
	.st33{fill:#ECA448;}
	.st34{fill:#1E261F;}
	.st35{fill:#ECECEC;}
	.st36{fill:#EDBF00;}
	.st37{fill:#EDC92C;}
	.st38{fill:#EDEEEF;}
	.st39{fill:#505251;}
	.st40{fill:#EFC849;}
	.st41{opacity:0.15;fill:#626463;}
	.st42{opacity:0.3;fill:url(#SVGID_16_);}
	.st43{opacity:0.3;fill:url(#SVGID_17_);}
	.st44{opacity:0.3;fill:url(#SVGID_27_);}
	.st45{opacity:0.3;fill:url(#SVGID_28_);}
	.st46{opacity:0.3;fill:url(#SVGID_33_);}
	.st47{opacity:0.3;fill:url(#SVGID_34_);}
	.st48{opacity:0.3;fill:url(#SVGID_37_);}
	.st49{opacity:0.3;fill:url(#SVGID_38_);}
	.st50{fill:none;stroke:#B8B9BA;stroke-width:0.5;stroke-miterlimit:10;}
	.st51{fill:#202121;}
	.st52{fill:#232C25;}
	.st53{fill:#F28400;}
	.st54{fill:#256533;}
	.st55{fill:#F3F4F5;}
	.st56{fill:#263A45;}
	.st57{fill:#265E67;}
	.st58{fill:#F5E554;}
	.st59{fill:#F6A2A3;}
	.st60{fill:#28302A;}
	.st61{fill:#5CA39B;}
	.st62{fill:#5E7564;}
	.st63{fill-rule:evenodd;clip-rule:evenodd;fill:#EDC92C;}
	.st64{opacity:0.2;fill:#FFFFFF;}
	.st65{fill:url(#SVGID_1_);}
	.st66{fill:url(#SVGID_2_);}
	.st67{fill:url(#SVGID_3_);}
	.st68{fill:url(#SVGID_4_);}
	.st69{fill:url(#SVGID_5_);}
	.st70{fill:url(#SVGID_6_);}
	.st71{fill:url(#SVGID_7_);}
	.st72{fill:#C2DFDD;}
	.st73{fill:#C5E2E5;}
	.st74{fill:#98979B;}
	.st75{fill:#989897;}
	.st76{fill:#989A9A;}
	.st77{fill:#C9C9C8;}
	.st78{fill:#2F3A32;}
	.st79{fill:#2F8442;}
	.st80{opacity:0.7;}
	.st81{fill:#60C3B6;}
	.st82{fill:#FFFFFF;}
	.st83{fill:#626463;}
	.st84{fill:#636463;}
	.st85{fill-rule:evenodd;clip-rule:evenodd;fill:#F37C2A;}
	.st86{fill:none;}
	.st87{fill:#676767;}
	.st88{fill:#676969;}
	.st89{fill:#67B4AD;}
	.st90{fill:#67B8CB;}
	.st91{fill:#CBCBC9;}
	.st92{fill:#CCCBCF;}
	.st93{fill:#CCE9E9;}
	.st94{fill:#CDCCCB;}
	.st95{fill:#CDE9E6;}
	.st96{fill:#30302F;}
	.st97{fill-rule:evenodd;clip-rule:evenodd;fill:#F9C645;}
	.st98{opacity:0.7;fill:#FFFFFF;}
	.st99{fill:#343433;}
	.st100{fill:#343434;}
	.st101{fill:#344E5D;}
	.st102{fill:#357180;}
	.st103{opacity:0.25;fill:#DFF1F5;}
	.st104{fill:#6CC077;}
	.st105{fill:#6EBCB5;}
	.st106{fill:none;stroke:#67B8CB;stroke-width:0.5;stroke-miterlimit:10;}
	.st107{fill:#D2D2D2;}
	.st108{fill:#D3D4E3;}
	.st109{fill:#D4A160;}
	.st110{fill:#08090B;}
	.st111{fill:#3CB881;}
	.st112{fill:#D7DABA;}
	.st113{fill:#3D4040;}
	.st114{fill:url(#SVGID_10_);}
	.st115{fill:url(#SVGID_11_);}
	.st116{fill:url(#SVGID_12_);}
	.st117{fill:url(#SVGID_13_);}
	.st118{fill:url(#SVGID_22_);}
	.st119{fill:url(#SVGID_23_);}
	.st120{fill:url(#SVGID_24_);}
	.st121{fill:url(#SVGID_29_);}
	.st122{fill:url(#SVGID_30_);}
	.st123{fill:url(#SVGID_41_);}
	.st124{opacity:0.1;fill:#FFFFFF;}
	.st125{fill:#A07238;}
	.st126{fill:#717171;}
	.st127{clip-path:url(#SVGID_15_);}
	.st128{clip-path:url(#SVGID_19_);}
	.st129{clip-path:url(#SVGID_21_);}
	.st130{clip-path:url(#SVGID_26_);}
	.st131{clip-path:url(#SVGID_32_);}
	.st132{clip-path:url(#SVGID_36_);}
	.st133{clip-path:url(#SVGID_40_);}
	.st134{fill:#A4A5A4;}
	.st135{fill:#767676;}
	.st136{fill:#767879;}
	.st137{fill:#DBF0F5;}
	.st138{fill:#DC494A;}
	.st139{fill:#DCDBDC;}
	.st140{fill:#0EA24A;}
	.st141{fill:#404040;}
	.st142{fill:#DFDFDF;}
	.st143{fill:#447A74;}
]]>
</style>
<g>
	<g>
		<g>
			<g>
				<circle class="st10" cx="68.416" cy="68.417" r="63.333"/>
			</g>
		</g>
	</g>
	<g>
		<g>
			<g>
				<g>
					<linearGradient id="SVGID_1_" gradientUnits="userSpaceOnUse" x1="54.7002" y1="100.4009" x2="80.8486" y2="100.4009">
						<stop  offset="0" style="stop-color:#47474A"/>
						<stop  offset="0.6196" style="stop-color:#616268"/>
						<stop  offset="1" style="stop-color:#6D6E75"/>
					</linearGradient>
					<path class="st65" d="M80.849,108.522c0,0.807-0.656,0.621-1.463,0.621H56.161c-0.807,0-1.461,0.186-1.461-0.621v-0.996
						l3.416-5.134l-0.063-9.292c0-0.807,0.652-1.461,1.461-1.461h16.52c0.807,0,1.461,0.654,1.461,1.461l-0.057,9.32l3.41,5.105
						V108.522z"/>
					<linearGradient id="SVGID_2_" gradientUnits="userSpaceOnUse" x1="67.7744" y1="90.8037" x2="67.7744" y2="108.1685">
						<stop  offset="0.1152" style="stop-color:#737377"/>
						<stop  offset="0.1889" style="stop-color:#707073"/>
						<stop  offset="0.497" style="stop-color:#656766"/>
						<stop  offset="0.6242" style="stop-color:#4D4D51"/>
						<stop  offset="1" style="stop-color:#343439"/>
					</linearGradient>
					<path class="st66" d="M80.849,107.526c0,0.808-0.656,0.624-1.463,0.624H56.161c-0.807,0-1.461,0.184-1.461-0.624l3.416-5.972
						l-0.063-9.29c0-0.81,0.652-1.461,1.461-1.461h16.52c0.807,0,1.461,0.651,1.461,1.461l-0.057,9.318L80.849,107.526z"/>
				</g>
				<g>
					<g>
						<path class="st110" d="M113.792,89.753c0,3.034-2.461,5.493-5.494,5.493H27.251c-3.035,0-5.494-2.459-5.494-5.493V35.492
							c0-3.034,2.459-5.495,5.494-5.495h81.047c3.033,0,5.494,2.461,5.494,5.495V89.753z"/>
						<rect x="25.708" y="33.609" class="st99" width="83.965" height="0.288"/>
					</g>
					<g>
						<defs>
							<path id="SVGID_31_" d="M113.792,89.753c0,3.034-2.461,5.493-5.494,5.493H27.251c-3.035,0-5.494-2.459-5.494-5.493V35.492
								c0-3.034,2.459-5.495,5.494-5.495h81.047c3.033,0,5.494,2.461,5.494,5.495V89.753z"/>
						</defs>
						<clipPath id="SVGID_3_">
							<use xlink:href="#SVGID_31_"  style="overflow:visible;"/>
						</clipPath>
						<g style="clip-path:url(#SVGID_3_);">
							<path class="st110" d="M91.737,33.69l2.582-3.693H27.251c-3.035,0-5.494,2.461-5.494,5.495v47.657h3.951V33.69H91.737z"/>
							<path class="st110" d="M109.673,33.69v49.459h4.119V35.492c0-3.034-2.461-5.495-5.494-5.495H94.319l-2.582,3.693H109.673z"/>
							
								<linearGradient id="SVGID_4_" gradientUnits="userSpaceOnUse" x1="-511.3076" y1="311.6895" x2="-401.0089" y2="311.6895" gradientTransform="matrix(0.4028 0.2815 -1.1042 1.58 637.0582 -307.9758)">
								<stop  offset="0" style="stop-color:#959397"/>
								<stop  offset="0.2344" style="stop-color:#A6A4AA"/>
								<stop  offset="0.7312" style="stop-color:#C4C2CC"/>
								<stop  offset="1" style="stop-color:#D0CED9"/>
							</linearGradient>
							<path style="opacity:0.3;fill:url(#SVGID_4_);" d="M109.673,33.69v49.459h4.119V35.492c0-3.034-2.461-5.495-5.494-5.495
								H94.319l-2.582,3.693H109.673z"/>
							<polygon class="st87" points="91.737,33.69 25.708,33.69 25.708,83.149 25.708,91.29 51.485,91.29 109.673,91.29 
								109.673,83.149 109.673,33.69 							"/>
							<linearGradient id="SVGID_5_" gradientUnits="userSpaceOnUse" x1="51.4854" y1="62.4902" x2="124.776" y2="62.4902">
								<stop  offset="0" style="stop-color:#959397"/>
								<stop  offset="0.2344" style="stop-color:#A6A4AA"/>
								<stop  offset="0.7312" style="stop-color:#C4C2CC"/>
								<stop  offset="1" style="stop-color:#D0CED9"/>
							</linearGradient>
							<polygon style="opacity:0.3;fill:url(#SVGID_5_);" points="91.737,33.69 57.175,83.149 51.485,91.29 109.673,91.29 
								109.673,83.149 109.673,33.69 							"/>
						</g>
					</g>
				</g>
			</g>
		</g>
	</g>
</g>
</svg>
