<?xml version="1.0" encoding="utf-8"?>
<!-- Generator: Adobe Illustrator 16.0.0, SVG Export Plug-In . SVG Version: 6.00 Build 0)  -->
<!DOCTYPE svg PUBLIC "-//W3C//DTD SVG 1.1//EN" "http://www.w3.org/Graphics/SVG/1.1/DTD/svg11.dtd">
<svg version="1.1" id="Layer_1" xmlns="http://www.w3.org/2000/svg" xmlns:xlink="http://www.w3.org/1999/xlink" x="0px" y="0px"
	 width="136.833px" height="136.834px" viewBox="0 0 136.833 136.834" style="enable-background:new 0 0 136.833 136.834;"
	 xml:space="preserve">
<style type="text/css">
<![CDATA[
	.st0{fill-rule:evenodd;clip-rule:evenodd;fill:#08090B;}
	.st1{fill:#7BCCC7;}
	.st2{fill:#48584B;}
	.st3{fill:#AC782B;}
	.st4{fill:#49A0AE;}
	.st5{fill:#121212;}
	.st6{fill:#E1E1E1;}
	.st7{fill:#E3E2E2;}
	.st8{fill:none;stroke:#202121;stroke-width:0.5;stroke-miterlimit:10;}
	.st9{fill:#E4E4E4;}
	.st10{fill:#4ABC96;}
	.st11{fill:#E5E5E5;}
	.st12{fill:#4B4A4B;}
	.st13{fill:#E84849;stroke:#FFFFFF;stroke-width:3;}
	.st14{fill:none;stroke:#121212;stroke-miterlimit:10;}
	.st15{fill:#E79E2D;}
	.st16{fill:#E7E7E7;}
	.st17{fill:#4D4D4D;}
	.st18{fill:#4D8A97;}
	.st19{fill:#E84849;}
	.st20{fill:#807F7F;}
	.st21{fill:#B03738;}
	.st22{fill:#818282;}
	.st23{fill:#81C681;}
	.st24{opacity:0.5;fill:#202121;}
	.st25{fill:#B2B2B2;}
	.st26{fill:#B2D0CC;}
	.st27{fill:#83CECA;}
	.st28{fill:#1A1919;}
	.st29{fill:#B5DBAF;}
	.st30{fill:#EB9682;}
	.st31{fill:#EBEDEF;}
	.st32{fill:#B8B9BA;}
	.st33{fill:#ECA448;}
	.st34{fill:#1E261F;}
	.st35{fill:#ECECEC;}
	.st36{fill:#EDBF00;}
	.st37{fill:#EDC92C;}
	.st38{fill:#EDEEEF;}
	.st39{fill:#505251;}
	.st40{fill:#EFC849;}
	.st41{opacity:0.15;fill:#626463;}
	.st42{opacity:0.3;fill:url(#SVGID_16_);}
	.st43{opacity:0.3;fill:url(#SVGID_17_);}
	.st44{opacity:0.3;fill:url(#SVGID_27_);}
	.st45{opacity:0.3;fill:url(#SVGID_28_);}
	.st46{opacity:0.3;fill:url(#SVGID_33_);}
	.st47{opacity:0.3;fill:url(#SVGID_34_);}
	.st48{opacity:0.3;fill:url(#SVGID_37_);}
	.st49{opacity:0.3;fill:url(#SVGID_38_);}
	.st50{fill:none;stroke:#B8B9BA;stroke-width:0.5;stroke-miterlimit:10;}
	.st51{fill:#202121;}
	.st52{fill:#232C25;}
	.st53{fill:#F28400;}
	.st54{fill:#256533;}
	.st55{fill:#F3F4F5;}
	.st56{fill:#263A45;}
	.st57{fill:#265E67;}
	.st58{fill:#F5E554;}
	.st59{fill:#F6A2A3;}
	.st60{fill:#28302A;}
	.st61{fill:#5CA39B;}
	.st62{fill:#5E7564;}
	.st63{fill-rule:evenodd;clip-rule:evenodd;fill:#EDC92C;}
	.st64{opacity:0.2;fill:#FFFFFF;}
	.st65{fill:url(#SVGID_1_);}
	.st66{fill:url(#SVGID_2_);}
	.st67{fill:url(#SVGID_3_);}
	.st68{fill:url(#SVGID_4_);}
	.st69{fill:url(#SVGID_5_);}
	.st70{fill:url(#SVGID_6_);}
	.st71{fill:url(#SVGID_7_);}
	.st72{fill:#C2DFDD;}
	.st73{fill:#C5E2E5;}
	.st74{fill:#98979B;}
	.st75{fill:#989897;}
	.st76{fill:#989A9A;}
	.st77{fill:#C9C9C8;}
	.st78{fill:#2F3A32;}
	.st79{fill:#2F8442;}
	.st80{opacity:0.7;}
	.st81{fill:#60C3B6;}
	.st82{fill:#FFFFFF;}
	.st83{fill:#626463;}
	.st84{fill:#636463;}
	.st85{fill-rule:evenodd;clip-rule:evenodd;fill:#F37C2A;}
	.st86{fill:none;}
	.st87{fill:#676767;}
	.st88{fill:#676969;}
	.st89{fill:#67B4AD;}
	.st90{fill:#67B8CB;}
	.st91{fill:#CBCBC9;}
	.st92{fill:#CCCBCF;}
	.st93{fill:#CCE9E9;}
	.st94{fill:#CDCCCB;}
	.st95{fill:#CDE9E6;}
	.st96{fill:#30302F;}
	.st97{fill-rule:evenodd;clip-rule:evenodd;fill:#F9C645;}
	.st98{opacity:0.7;fill:#FFFFFF;}
	.st99{fill:#343433;}
	.st100{fill:#343434;}
	.st101{fill:#344E5D;}
	.st102{fill:#357180;}
	.st103{opacity:0.25;fill:#DFF1F5;}
	.st104{fill:#6CC077;}
	.st105{fill:#6EBCB5;}
	.st106{fill:none;stroke:#67B8CB;stroke-width:0.5;stroke-miterlimit:10;}
	.st107{fill:#D2D2D2;}
	.st108{fill:#D3D4E3;}
	.st109{fill:#D4A160;}
	.st110{fill:#08090B;}
	.st111{fill:#3CB881;}
	.st112{fill:#D7DABA;}
	.st113{fill:#3D4040;}
	.st114{fill:url(#SVGID_10_);}
	.st115{fill:url(#SVGID_11_);}
	.st116{fill:url(#SVGID_12_);}
	.st117{fill:url(#SVGID_13_);}
	.st118{fill:url(#SVGID_22_);}
	.st119{fill:url(#SVGID_23_);}
	.st120{fill:url(#SVGID_24_);}
	.st121{fill:url(#SVGID_29_);}
	.st122{fill:url(#SVGID_30_);}
	.st123{fill:url(#SVGID_41_);}
	.st124{opacity:0.1;fill:#FFFFFF;}
	.st125{fill:#A07238;}
	.st126{fill:#717171;}
	.st127{clip-path:url(#SVGID_15_);}
	.st128{clip-path:url(#SVGID_19_);}
	.st129{clip-path:url(#SVGID_21_);}
	.st130{clip-path:url(#SVGID_26_);}
	.st131{clip-path:url(#SVGID_32_);}
	.st132{clip-path:url(#SVGID_36_);}
	.st133{clip-path:url(#SVGID_40_);}
	.st134{fill:#A4A5A4;}
	.st135{fill:#767676;}
	.st136{fill:#767879;}
	.st137{fill:#DBF0F5;}
	.st138{fill:#DC494A;}
	.st139{fill:#DCDBDC;}
	.st140{fill:#0EA24A;}
	.st141{fill:#404040;}
	.st142{fill:#DFDFDF;}
	.st143{fill:#447A74;}
]]>
</style>
<g>
	<g>
		<g>
			<g>
				<circle class="st10" cx="68.417" cy="68.417" r="63.333"/>
			</g>
		</g>
	</g>
	<g>
		<path class="st56" d="M51.888,115.905c-1.477,1.476-3.871,1.476-5.348,0L22.692,92.057c-1.476-1.476-1.958-7.003-0.482-8.479
			l45.244-45.243c1.478-1.477,4.596-1.719,6.071-0.241L97.373,61.94c1.477,1.477,1.237,7.243-0.241,8.72L51.888,115.905z"/>
		<g>
			<defs>
				<path id="SVGID_39_" d="M114.85,41.131l-0.166-0.166c-0.123-0.197-0.264-0.386-0.435-0.558L94.576,20.735
					c-1.219-1.218-3.194-1.218-4.413,0L50.67,60.227c-1.094,1.095-1.197,2.796-0.327,4.015c-0.87,1.218-0.767,2.918,0.327,4.013
					l19.674,19.672c1.219,1.219,3.193,1.219,4.412,0l39.493-39.491C115.467,47.216,116.069,42.352,114.85,41.131z"/>
			</defs>
			<clipPath id="SVGID_1_">
				<use xlink:href="#SVGID_39_"  style="overflow:visible;"/>
			</clipPath>
			<g style="clip-path:url(#SVGID_1_);">
				<path class="st76" d="M74.756,84.313c-1.219,1.219-3.193,1.219-4.412,0L50.67,64.642c-0.125-0.125-0.229-0.262-0.327-0.401
					c-0.87,1.22-0.767,2.92,0.327,4.014l19.674,19.672c1.219,1.219,3.193,1.219,4.412,0l38.265-38.263l-2.306-1.309L74.756,84.313z"
					/>
				<path class="st77" d="M82.287,32.224l-2.305-1.308L50.67,60.227c-1.094,1.095-1.197,2.795-0.327,4.014
					c0.099-0.139,0.202-0.275,0.327-0.4L82.287,32.224z"/>
				<path class="st77" d="M70.344,84.313c1.219,1.219,3.193,1.219,4.412,0l35.959-35.959L82.287,32.224L50.67,63.84
					c-0.125,0.125-0.229,0.262-0.327,0.4c0.099,0.14,0.202,0.276,0.327,0.401L70.344,84.313z"/>
				<path class="st76" d="M114.85,41.131l-0.165-0.165c0.752,1.205,0.61,2.809-0.436,3.854l-3.534,3.534l2.306,1.309l1.229-1.229
					C115.467,47.216,116.069,42.352,114.85,41.131z"/>
				<path class="st64" d="M114.85,41.131l-0.165-0.165c0.752,1.205,0.61,2.809-0.436,3.854l-3.534,3.534l2.306,1.309l1.229-1.229
					C115.467,47.216,116.069,42.352,114.85,41.131z"/>
				<path class="st77" d="M90.163,24.348c1.219-1.217,3.796-4.108,5.016-2.89l19.507,19.508c-0.123-0.197-0.264-0.387-0.436-0.559
					L94.576,20.735c-1.219-1.218-3.194-1.218-4.413,0L79.982,30.916l2.305,1.308L90.163,24.348z"/>
				<path class="st77" d="M90.163,24.348l-7.876,7.876l28.429,16.131l3.534-3.534c1.046-1.046,1.188-2.649,0.436-3.854
					L95.178,21.458C93.958,20.239,91.381,23.131,90.163,24.348z"/>
				<path class="st64" d="M114.685,40.966c-0.123-0.197-0.264-0.387-0.436-0.559L94.576,20.735c-1.219-1.218-3.194-1.218-4.413,0
					L79.982,30.916l2.305,1.308l28.429,16.131l3.534-3.534C115.295,43.774,115.437,42.171,114.685,40.966z"/>
			</g>
		</g>
		<path class="st101" d="M51.888,112.291c-1.477,1.477-3.871,1.477-5.348,0L22.692,88.443c-1.476-1.477-1.476-3.872,0-5.349
			l45.244-45.243c1.477-1.477,3.872-1.477,5.348,0l23.848,23.848c1.479,1.477,1.479,3.872,0,5.348L51.888,112.291z"/>
		<g>
			<path class="st75" d="M98.487,55.461c-0.356,0.358-0.936,0.358-1.293,0l-3.881-3.879c-0.355-0.357-0.355-0.936,0-1.294
				l2.669-2.665c0.356-0.358,0.937-0.358,1.294,0l3.879,3.878c0.357,0.357,0.357,0.937,0,1.294L98.487,55.461z"/>
			<g>
				<path class="st20" d="M97.495,49.404c-0.316-0.314-0.818-0.322-1.125-0.017l-2.281,2.284c-0.132,0.13-0.193,0.301-0.21,0.475
					l3.315,3.314c0.357,0.358,0.937,0.358,1.293,0L101,52.95c-0.03-0.044-0.05-0.091-0.088-0.13L97.495,49.404z"/>
			</g>
		</g>
		<g>
			<path class="st75" d="M84.696,41.654c-0.357,0.357-0.937,0.357-1.293,0l-3.879-3.878c-0.357-0.357-0.357-0.937,0-1.294
				l2.666-2.667c0.357-0.357,0.938-0.357,1.293,0l3.881,3.88c0.357,0.357,0.357,0.937,0,1.294L84.696,41.654z"/>
			<g>
				<path class="st20" d="M83.704,35.598c-0.314-0.314-0.818-0.322-1.125-0.016l-2.281,2.283c-0.133,0.131-0.193,0.302-0.211,0.475
					l3.316,3.314c0.356,0.357,0.936,0.357,1.293,0l2.512-2.51c-0.028-0.044-0.049-0.092-0.086-0.131L83.704,35.598z"/>
			</g>
		</g>
		<path class="st56" d="M47.461,94.717c1.908-1.907,2.144-4.853,0.709-7.018l2.024-2.023h0.024v-0.024l4.405-4.406l13.122,0.893
			c0.275,0.02,0.545-0.082,0.742-0.277l3.793-3.792l1.918,1.917l5.436-5.436l-5.435-5.436l-5.437,5.438l2.161,2.159l-3.484,3.486
			l-11.016-0.752l15.771-15.771l3.56,3.558l0.693-9.442l-9.415,0.722l3.459,3.458L50.221,82.244l-0.002-10.566l2.945-2.947
			c1.764,1.29,4.249,1.146,5.843-0.449c1.759-1.759,1.761-4.611,0-6.37c-1.76-1.761-4.612-1.759-6.37,0
			c-1.461,1.46-1.705,3.667-0.747,5.383l-3.31,3.309c-0.177,0.177-0.279,0.426-0.279,0.676v12.884l-1.865,1.864
			c-2.148-1.321-4.998-1.057-6.859,0.804c-2.178,2.178-2.178,5.708,0,7.885C41.754,96.893,45.286,96.893,47.461,94.717z"/>
	</g>
</g>
</svg>
