<?xml version="1.0" encoding="utf-8"?>
<!-- Generator: Adobe Illustrator 16.0.0, SVG Export Plug-In . SVG Version: 6.00 Build 0)  -->
<!DOCTYPE svg PUBLIC "-//W3C//DTD SVG 1.1//EN" "http://www.w3.org/Graphics/SVG/1.1/DTD/svg11.dtd">
<svg version="1.1" id="Layer_1" xmlns="http://www.w3.org/2000/svg" xmlns:xlink="http://www.w3.org/1999/xlink" x="0px" y="0px"
	 width="136.833px" height="136.834px" viewBox="0 0 136.833 136.834" style="enable-background:new 0 0 136.833 136.834;"
	 xml:space="preserve">
<style type="text/css">
<![CDATA[
	.st0{fill-rule:evenodd;clip-rule:evenodd;fill:#08090B;}
	.st1{fill:#7BCCC7;}
	.st2{fill:#48584B;}
	.st3{fill:#AC782B;}
	.st4{fill:#49A0AE;}
	.st5{fill:#121212;}
	.st6{fill:#E1E1E1;}
	.st7{fill:#E3E2E2;}
	.st8{fill:none;stroke:#202121;stroke-width:0.5;stroke-miterlimit:10;}
	.st9{fill:#E4E4E4;}
	.st10{fill:#4ABC96;}
	.st11{fill:#E5E5E5;}
	.st12{fill:#4B4A4B;}
	.st13{fill:#E84849;stroke:#FFFFFF;stroke-width:3;}
	.st14{fill:none;stroke:#121212;stroke-miterlimit:10;}
	.st15{fill:#E79E2D;}
	.st16{fill:#E7E7E7;}
	.st17{fill:#4D4D4D;}
	.st18{fill:#4D8A97;}
	.st19{fill:#E84849;}
	.st20{fill:#807F7F;}
	.st21{fill:#B03738;}
	.st22{fill:#818282;}
	.st23{fill:#81C681;}
	.st24{opacity:0.5;fill:#202121;}
	.st25{fill:#B2B2B2;}
	.st26{fill:#B2D0CC;}
	.st27{fill:#83CECA;}
	.st28{fill:#1A1919;}
	.st29{fill:#B5DBAF;}
	.st30{fill:#EB9682;}
	.st31{fill:#EBEDEF;}
	.st32{fill:#B8B9BA;}
	.st33{fill:#ECA448;}
	.st34{fill:#1E261F;}
	.st35{fill:#ECECEC;}
	.st36{fill:#EDBF00;}
	.st37{fill:#EDC92C;}
	.st38{fill:#EDEEEF;}
	.st39{fill:#505251;}
	.st40{fill:#EFC849;}
	.st41{opacity:0.15;fill:#626463;}
	.st42{opacity:0.3;fill:url(#SVGID_16_);}
	.st43{opacity:0.3;fill:url(#SVGID_17_);}
	.st44{opacity:0.3;fill:url(#SVGID_27_);}
	.st45{opacity:0.3;fill:url(#SVGID_28_);}
	.st46{opacity:0.3;fill:url(#SVGID_33_);}
	.st47{opacity:0.3;fill:url(#SVGID_34_);}
	.st48{opacity:0.3;fill:url(#SVGID_37_);}
	.st49{opacity:0.3;fill:url(#SVGID_38_);}
	.st50{fill:none;stroke:#B8B9BA;stroke-width:0.5;stroke-miterlimit:10;}
	.st51{fill:#202121;}
	.st52{fill:#232C25;}
	.st53{fill:#F28400;}
	.st54{fill:#256533;}
	.st55{fill:#F3F4F5;}
	.st56{fill:#263A45;}
	.st57{fill:#265E67;}
	.st58{fill:#F5E554;}
	.st59{fill:#F6A2A3;}
	.st60{fill:#28302A;}
	.st61{fill:#5CA39B;}
	.st62{fill:#5E7564;}
	.st63{fill-rule:evenodd;clip-rule:evenodd;fill:#EDC92C;}
	.st64{opacity:0.2;fill:#FFFFFF;}
	.st65{fill:url(#SVGID_1_);}
	.st66{fill:url(#SVGID_2_);}
	.st67{fill:url(#SVGID_3_);}
	.st68{fill:url(#SVGID_4_);}
	.st69{fill:url(#SVGID_5_);}
	.st70{fill:url(#SVGID_6_);}
	.st71{fill:url(#SVGID_7_);}
	.st72{fill:#C2DFDD;}
	.st73{fill:#C5E2E5;}
	.st74{fill:#98979B;}
	.st75{fill:#989897;}
	.st76{fill:#989A9A;}
	.st77{fill:#C9C9C8;}
	.st78{fill:#2F3A32;}
	.st79{fill:#2F8442;}
	.st80{opacity:0.7;}
	.st81{fill:#60C3B6;}
	.st82{fill:#FFFFFF;}
	.st83{fill:#626463;}
	.st84{fill:#636463;}
	.st85{fill-rule:evenodd;clip-rule:evenodd;fill:#F37C2A;}
	.st86{fill:none;}
	.st87{fill:#676767;}
	.st88{fill:#676969;}
	.st89{fill:#67B4AD;}
	.st90{fill:#67B8CB;}
	.st91{fill:#CBCBC9;}
	.st92{fill:#CCCBCF;}
	.st93{fill:#CCE9E9;}
	.st94{fill:#CDCCCB;}
	.st95{fill:#CDE9E6;}
	.st96{fill:#30302F;}
	.st97{fill-rule:evenodd;clip-rule:evenodd;fill:#F9C645;}
	.st98{opacity:0.7;fill:#FFFFFF;}
	.st99{fill:#343433;}
	.st100{fill:#343434;}
	.st101{fill:#344E5D;}
	.st102{fill:#357180;}
	.st103{opacity:0.25;fill:#DFF1F5;}
	.st104{fill:#6CC077;}
	.st105{fill:#6EBCB5;}
	.st106{fill:none;stroke:#67B8CB;stroke-width:0.5;stroke-miterlimit:10;}
	.st107{fill:#D2D2D2;}
	.st108{fill:#D3D4E3;}
	.st109{fill:#D4A160;}
	.st110{fill:#08090B;}
	.st111{fill:#3CB881;}
	.st112{fill:#D7DABA;}
	.st113{fill:#3D4040;}
	.st114{fill:url(#SVGID_10_);}
	.st115{fill:url(#SVGID_11_);}
	.st116{fill:url(#SVGID_12_);}
	.st117{fill:url(#SVGID_13_);}
	.st118{fill:url(#SVGID_22_);}
	.st119{fill:url(#SVGID_23_);}
	.st120{fill:url(#SVGID_24_);}
	.st121{fill:url(#SVGID_29_);}
	.st122{fill:url(#SVGID_30_);}
	.st123{fill:url(#SVGID_41_);}
	.st124{opacity:0.1;fill:#FFFFFF;}
	.st125{fill:#A07238;}
	.st126{fill:#717171;}
	.st127{clip-path:url(#SVGID_15_);}
	.st128{clip-path:url(#SVGID_19_);}
	.st129{clip-path:url(#SVGID_21_);}
	.st130{clip-path:url(#SVGID_26_);}
	.st131{clip-path:url(#SVGID_32_);}
	.st132{clip-path:url(#SVGID_36_);}
	.st133{clip-path:url(#SVGID_40_);}
	.st134{fill:#A4A5A4;}
	.st135{fill:#767676;}
	.st136{fill:#767879;}
	.st137{fill:#DBF0F5;}
	.st138{fill:#DC494A;}
	.st139{fill:#DCDBDC;}
	.st140{fill:#0EA24A;}
	.st141{fill:#404040;}
	.st142{fill:#DFDFDF;}
	.st143{fill:#447A74;}
]]>
</style>
<g>
	<g>
		<g>
			<g>
				<circle class="st111" cx="68.417" cy="68.417" r="63.333"/>
			</g>
		</g>
	</g>
	<g>
		<path class="st39" d="M75.061,99.134c-2.004-5.826-3.137-7.342-6.939-7.342c-3.756,0-5.059,1.926-6.938,7.342
			c-6.408,0.621-10.906,2.076-10.906,3.773c0,2.262,7.988,4.096,17.844,4.096c9.854,0,17.844-1.834,17.844-4.096
			C85.965,101.21,81.467,99.757,75.061,99.134z"/>
		<circle class="st28" cx="67.828" cy="93.866" r="1.17"/>
		<path class="st113" d="M113.973,53.325c0,0.605-0.492,1.098-1.098,1.098l0,0c-0.605,0-1.096-0.492-1.096-1.098V41.698
			c0-0.605,0.49-1.098,1.096-1.098l0,0c0.605,0,1.098,0.492,1.098,1.098V53.325z"/>
		<g>
			<defs>
				<path id="SVGID_35_" d="M113.275,88.53c0,2.982-2.416,5.398-5.396,5.398c0,0-22.207,3.129-40.928,3.129
					c-14.334,0-38.689-3.129-38.689-3.129c-2.982,0-5.398-2.416-5.398-5.398V35.228c0-2.98,2.416-5.396,5.398-5.396h79.617
					c2.98,0,5.396,2.416,5.396,5.396V88.53z"/>
			</defs>
			<clipPath id="SVGID_1_">
				<use xlink:href="#SVGID_35_"  style="overflow:visible;"/>
			</clipPath>
			<g style="clip-path:url(#SVGID_1_);">
				<path class="st113" d="M26.51,89.817v-56.09h71.486l2.723-3.896H28.262c-2.982,0-5.398,2.416-5.398,5.396V88.53
					c0,2.982,2.416,5.398,5.398,5.398c0,0,13.18,1.692,25.855,2.588l4.682-6.699H26.51z"/>
				<polygon class="st87" points="26.51,89.817 58.799,89.817 97.996,33.728 26.51,33.728 				"/>
				<path class="st113" d="M107.879,93.929c2.98,0,5.396-2.416,5.396-5.398V35.228c0-2.98-2.416-5.396-5.396-5.396h-7.16
					l-2.723,3.896h11.443v56.09H58.799l-4.682,6.699c4.555,0.321,9.045,0.541,12.834,0.541
					C85.672,97.058,107.879,93.929,107.879,93.929z"/>
				
					<linearGradient id="SVGID_2_" gradientUnits="userSpaceOnUse" x1="-344.8672" y1="235.8311" x2="-226.524" y2="235.8311" gradientTransform="matrix(0.4028 0.2815 -1.1042 1.58 478.1879 -214.4398)">
					<stop  offset="0" style="stop-color:#959397"/>
					<stop  offset="0.2344" style="stop-color:#A6A4AA"/>
					<stop  offset="0.7312" style="stop-color:#C4C2CC"/>
					<stop  offset="1" style="stop-color:#D0CED9"/>
				</linearGradient>
				<path style="opacity:0.3;fill:url(#SVGID_2_);" d="M107.879,93.929c2.98,0,5.396-2.416,5.396-5.398V35.228
					c0-2.98-2.416-5.396-5.396-5.396h-7.16l-2.723,3.896h11.443v56.09H58.799l-4.682,6.699c4.555,0.321,9.045,0.541,12.834,0.541
					C85.672,97.058,107.879,93.929,107.879,93.929z"/>
				<polygon class="st87" points="109.439,89.817 109.439,33.728 97.996,33.728 58.799,89.817 				"/>
				
					<linearGradient id="SVGID_3_" gradientUnits="userSpaceOnUse" x1="-344.8667" y1="234.5605" x2="-226.5206" y2="234.5605" gradientTransform="matrix(0.4028 0.2815 -1.1042 1.58 478.1879 -214.4398)">
					<stop  offset="0" style="stop-color:#959397"/>
					<stop  offset="0.2344" style="stop-color:#A6A4AA"/>
					<stop  offset="0.7312" style="stop-color:#C4C2CC"/>
					<stop  offset="1" style="stop-color:#D0CED9"/>
				</linearGradient>
				<polygon style="opacity:0.3;fill:url(#SVGID_3_);" points="109.439,89.817 109.439,33.728 97.996,33.728 58.799,89.817 				"/>
			</g>
		</g>
	</g>
</g>
</svg>
