<?xml version="1.0" encoding="utf-8"?>
<!-- Generator: Adobe Illustrator 16.0.0, SVG Export Plug-In . SVG Version: 6.00 Build 0)  -->
<!DOCTYPE svg PUBLIC "-//W3C//DTD SVG 1.1//EN" "http://www.w3.org/Graphics/SVG/1.1/DTD/svg11.dtd">
<svg version="1.1" id="Layer_1" xmlns="http://www.w3.org/2000/svg" xmlns:xlink="http://www.w3.org/1999/xlink" x="0px" y="0px"
	 width="136.602px" height="135.696px" viewBox="0 0 136.602 135.696" enable-background="new 0 0 136.602 135.696"
	 xml:space="preserve">
<g>
	<g>
		<circle fill="#D7DABA" cx="68.301" cy="67.849" r="63.333"/>
	</g>
	<g>
		<g>
			<path fill="#E84849" d="M43.564,29.587c-2.358,0-4.271,1.912-4.271,4.271v68.351c0,2.359,1.913,4.272,4.271,4.272h49.128
				c2.359,0,4.271-1.913,4.271-4.272V49.37L76.372,29.587H43.564z"/>
		</g>
		<path fill="#D43E3D" d="M96.964,49.37h-16.32c-2.359,0-4.271-1.913-4.271-4.272V29.587L96.964,49.37z"/>
		<path fill="#D43E3D" d="M75.521,77.152c0,2.723-2.207,4.93-4.929,4.93H34.606c-2.723,0-4.929-2.207-4.929-4.93v-15.06
			c0-2.723,2.206-4.929,4.929-4.929h35.985c2.722,0,4.929,2.206,4.929,4.929V77.152z"/>
		<g>
			<path fill="#FFFFFF" d="M48.168,74.014l-0.479-1.258h-4.074l-0.479,1.285c-0.187,0.501-0.347,0.84-0.479,1.015
				c-0.132,0.176-0.349,0.264-0.649,0.264c-0.255,0-0.48-0.094-0.677-0.28c-0.196-0.188-0.294-0.399-0.294-0.636
				c0-0.137,0.022-0.278,0.068-0.424c0.046-0.146,0.121-0.349,0.226-0.608l2.563-6.508c0.073-0.188,0.161-0.411,0.263-0.674
				c0.104-0.262,0.213-0.479,0.328-0.652c0.117-0.174,0.27-0.313,0.459-0.421c0.188-0.106,0.422-0.16,0.7-0.16
				c0.282,0,0.519,0.054,0.708,0.16c0.188,0.107,0.342,0.245,0.457,0.414c0.117,0.168,0.215,0.35,0.295,0.543
				c0.079,0.194,0.181,0.452,0.304,0.776l2.618,6.467c0.205,0.492,0.308,0.85,0.308,1.073c0,0.232-0.097,0.445-0.29,0.639
				c-0.194,0.194-0.428,0.291-0.701,0.291c-0.159,0-0.296-0.028-0.41-0.086c-0.114-0.057-0.21-0.134-0.287-0.232
				c-0.077-0.098-0.16-0.248-0.25-0.451C48.309,74.348,48.231,74.168,48.168,74.014z M44.148,71.231h2.994l-1.511-4.136
				L44.148,71.231z"/>
			<path fill="#FFFFFF" d="M52.598,66.289l2.27,6.72l2.276-6.768c0.118-0.355,0.207-0.603,0.267-0.742
				c0.06-0.139,0.157-0.264,0.294-0.376c0.137-0.111,0.323-0.167,0.561-0.167c0.173,0,0.334,0.043,0.481,0.13
				c0.148,0.086,0.265,0.201,0.35,0.345c0.084,0.144,0.126,0.288,0.126,0.435c0,0.1-0.014,0.208-0.041,0.324
				s-0.062,0.23-0.103,0.342c-0.041,0.112-0.082,0.227-0.123,0.346l-2.427,6.549c-0.087,0.25-0.173,0.488-0.26,0.714
				s-0.187,0.424-0.301,0.595s-0.266,0.312-0.454,0.421c-0.189,0.109-0.421,0.164-0.694,0.164s-0.505-0.054-0.694-0.161
				c-0.188-0.106-0.342-0.248-0.457-0.424c-0.117-0.175-0.218-0.375-0.305-0.598c-0.087-0.224-0.173-0.461-0.26-0.711l-2.386-6.494
				c-0.041-0.119-0.083-0.235-0.126-0.349c-0.044-0.114-0.08-0.237-0.109-0.369c-0.03-0.133-0.045-0.244-0.045-0.335
				c0-0.232,0.094-0.444,0.28-0.636s0.422-0.287,0.704-0.287c0.347,0,0.592,0.105,0.734,0.317
				C52.301,65.485,52.447,65.824,52.598,66.289z"/>
			<path fill="#FFFFFF" d="M60.828,74.082v-7.896c0-0.41,0.094-0.718,0.28-0.923s0.429-0.308,0.725-0.308
				c0.306,0,0.553,0.102,0.741,0.304c0.189,0.203,0.284,0.512,0.284,0.927v7.896c0,0.414-0.095,0.725-0.284,0.93
				c-0.188,0.205-0.436,0.308-0.741,0.308c-0.292,0-0.532-0.104-0.722-0.312C60.923,74.801,60.828,74.492,60.828,74.082z"/>
		</g>
	</g>
</g>
</svg>
