<?xml version="1.0" encoding="utf-8"?>
<!-- Generator: Adobe Illustrator 16.0.0, SVG Export Plug-In . SVG Version: 6.00 Build 0)  -->
<!DOCTYPE svg PUBLIC "-//W3C//DTD SVG 1.1//EN" "http://www.w3.org/Graphics/SVG/1.1/DTD/svg11.dtd">
<svg version="1.1" id="Layer_1" xmlns="http://www.w3.org/2000/svg" xmlns:xlink="http://www.w3.org/1999/xlink" x="0px" y="0px"
	 width="136.833px" height="136.834px" viewBox="0 0 136.833 136.834" style="enable-background:new 0 0 136.833 136.834;"
	 xml:space="preserve">
<style type="text/css">
<![CDATA[
	.st0{fill:#7B3A87;}
	.st1{fill:#7F1325;}
	.st2{fill:#E07325;}
	.st3{fill:#194680;}
	.st4{fill:#837C72;}
	.st5{fill:#B3BD35;}
	.st6{fill:#883637;}
	.st7{fill:#EDC92C;}
	.st8{fill:#EF8A21;}
	.st9{fill:#8B4097;}
	.st10{fill:#588DBF;}
	.st11{fill:#8E2852;}
	.st12{fill:#5B4F3F;}
	.st13{fill:#932B63;}
	.st14{fill:#C33F27;}
	.st15{fill:#C6CB2D;}
	.st16{fill:#C76428;}
	.st17{fill:#FFFFFF;}
	.st18{fill:#647131;}
	.st19{fill:#6D6254;}
	.st20{fill:#6DA0D5;}
	.st21{fill:#00599C;}
	.st22{fill:#D57927;}
	.st23{fill:#D7B528;}
	.st24{fill:#D7DABA;}
	.st25{fill:#D85026;}
	.st26{fill:#A11D2A;}
	.st27{fill:#A14443;}
	.st28{fill:#748838;}
	.st29{fill:#A53460;}
	.st30{fill:#A82E6C;}
]]>
</style>
<g>
	<g>
		<circle class="st24" cx="68.417" cy="68.417" r="63.333"/>
	</g>
	<g>
		<g>
			<path class="st25" d="M43.68,30.156c-2.358,0-4.271,1.912-4.271,4.271v68.352c0,2.359,1.913,4.271,4.271,4.271h49.128
				c2.359,0,4.271-1.912,4.271-4.271v-52.84L76.488,30.156H43.68z"/>
		</g>
		<path class="st14" d="M97.08,49.939h-16.32c-2.359,0-4.271-1.912-4.271-4.271V30.156L97.08,49.939z"/>
		<path class="st14" d="M75.636,77.722c0,2.723-2.207,4.93-4.929,4.93H34.722c-2.723,0-4.929-2.207-4.929-4.93V62.662
			c0-2.723,2.206-4.929,4.929-4.929h35.985c2.722,0,4.929,2.206,4.929,4.929V77.722z"/>
		<g>
			<path class="st17" d="M35.848,66.755v2.871h4.382v-2.871c0-0.41,0.093-0.718,0.276-0.923c0.186-0.205,0.428-0.308,0.729-0.308
				c0.306,0,0.553,0.102,0.742,0.304c0.188,0.203,0.283,0.512,0.283,0.926v7.896c0,0.415-0.096,0.725-0.287,0.93
				s-0.438,0.308-0.738,0.308c-0.306,0-0.549-0.104-0.731-0.311s-0.273-0.516-0.273-0.926v-3.37h-4.382v3.37
				c0,0.415-0.096,0.725-0.287,0.93s-0.438,0.308-0.738,0.308c-0.306,0-0.549-0.104-0.731-0.311s-0.273-0.516-0.273-0.926v-7.896
				c0-0.41,0.09-0.718,0.271-0.923c0.18-0.205,0.425-0.308,0.734-0.308c0.306,0,0.553,0.102,0.742,0.304
				C35.753,66.032,35.848,66.341,35.848,66.755z"/>
			<path class="st17" d="M50.948,67.371h-2.215v7.28c0,0.419-0.094,0.73-0.28,0.933s-0.429,0.304-0.725,0.304
				c-0.301,0-0.546-0.103-0.734-0.308c-0.189-0.205-0.284-0.515-0.284-0.93v-7.28h-2.215c-0.347,0-0.604-0.076-0.772-0.229
				s-0.253-0.354-0.253-0.605c0-0.26,0.088-0.465,0.263-0.615c0.176-0.15,0.43-0.226,0.763-0.226h6.453
				c0.351,0,0.612,0.078,0.782,0.232c0.172,0.155,0.257,0.358,0.257,0.608s-0.087,0.452-0.26,0.605S51.295,67.371,50.948,67.371z"/>
			<path class="st17" d="M56.574,74.207l-1.606-6.385v6.918c0,0.383-0.085,0.67-0.257,0.861c-0.17,0.191-0.397,0.287-0.68,0.287
				c-0.273,0-0.497-0.095-0.67-0.284s-0.26-0.478-0.26-0.865v-7.93c0-0.438,0.114-0.732,0.342-0.885s0.535-0.229,0.923-0.229h0.629
				c0.378,0,0.653,0.034,0.823,0.103c0.172,0.068,0.298,0.191,0.38,0.369s0.176,0.467,0.28,0.868l1.456,5.489l1.456-5.489
				c0.104-0.401,0.198-0.69,0.28-0.868s0.208-0.301,0.38-0.369c0.17-0.068,0.445-0.103,0.823-0.103h0.629
				c0.388,0,0.695,0.076,0.923,0.229s0.342,0.448,0.342,0.885v7.93c0,0.383-0.086,0.67-0.256,0.861
				c-0.172,0.191-0.4,0.287-0.688,0.287c-0.269,0-0.49-0.096-0.663-0.287s-0.26-0.479-0.26-0.861v-6.918l-1.606,6.385
				c-0.104,0.415-0.19,0.719-0.256,0.913c-0.066,0.194-0.188,0.37-0.366,0.53s-0.424,0.239-0.738,0.239
				c-0.237,0-0.438-0.051-0.602-0.154s-0.292-0.233-0.383-0.393s-0.163-0.336-0.216-0.53C56.683,74.618,56.629,74.416,56.574,74.207
				z"/>
			<path class="st17" d="M66.842,66.755v7.294h4.115c0.328,0,0.58,0.08,0.756,0.239c0.175,0.16,0.263,0.36,0.263,0.602
				c0,0.246-0.087,0.445-0.26,0.598s-0.426,0.229-0.759,0.229h-4.901c-0.442,0-0.76-0.098-0.954-0.294
				c-0.193-0.196-0.29-0.513-0.29-0.95v-7.718c0-0.41,0.093-0.718,0.276-0.923c0.186-0.205,0.428-0.308,0.729-0.308
				c0.306,0,0.553,0.102,0.742,0.304C66.747,66.032,66.842,66.341,66.842,66.755z"/>
		</g>
	</g>
</g>
</svg>
