<?xml version="1.0" encoding="utf-8"?>
<!-- Generator: Adobe Illustrator 16.0.0, SVG Export Plug-In . SVG Version: 6.00 Build 0)  -->
<!DOCTYPE svg PUBLIC "-//W3C//DTD SVG 1.1//EN" "http://www.w3.org/Graphics/SVG/1.1/DTD/svg11.dtd">
<svg version="1.1" id="Layer_1" xmlns="http://www.w3.org/2000/svg" xmlns:xlink="http://www.w3.org/1999/xlink" x="0px" y="0px"
	 width="136.913px" height="136.914px" viewBox="0 0 136.913 136.914" enable-background="new 0 0 136.913 136.914"
	 xml:space="preserve">
<g>
	<g>
		<circle fill="#D7DABA" cx="68.457" cy="68.458" r="63.333"/>
	</g>
	<g>
		<g>
			<path fill="#F7981D" d="M43.72,30.196c-2.357,0-4.271,1.912-4.271,4.271v68.351c0,2.359,1.914,4.272,4.271,4.272h49.129
				c2.359,0,4.271-1.913,4.271-4.272V49.979L76.528,30.196H43.72z"/>
		</g>
		<path fill="#E88524" d="M97.12,49.979H80.8c-2.359,0-4.271-1.913-4.271-4.272V30.196L97.12,49.979z"/>
		<path fill="#E88524" d="M75.677,77.762c0,2.723-2.207,4.93-4.93,4.93H34.763c-2.723,0-4.93-2.207-4.93-4.93v-15.06
			c0-2.723,2.207-4.93,4.93-4.93h35.984c2.723,0,4.93,2.207,4.93,4.93V77.762z"/>
		<g>
			<path fill="#FFFFFF" d="M52.783,74.623l-0.479-1.258H48.23l-0.479,1.285c-0.187,0.501-0.347,0.84-0.479,1.015
				s-0.349,0.263-0.649,0.263c-0.255,0-0.48-0.093-0.677-0.28s-0.294-0.399-0.294-0.636c0-0.137,0.022-0.278,0.068-0.424
				s0.121-0.349,0.226-0.608l2.563-6.508c0.073-0.187,0.16-0.411,0.264-0.673c0.102-0.262,0.211-0.479,0.328-0.653
				c0.115-0.173,0.269-0.313,0.457-0.42c0.189-0.107,0.423-0.161,0.701-0.161c0.282,0,0.519,0.054,0.707,0.161
				c0.189,0.107,0.342,0.245,0.459,0.414c0.115,0.168,0.214,0.35,0.293,0.543c0.08,0.194,0.182,0.452,0.305,0.776l2.618,6.467
				c0.205,0.492,0.308,0.85,0.308,1.073c0,0.232-0.097,0.445-0.291,0.639c-0.193,0.194-0.427,0.291-0.7,0.291
				c-0.159,0-0.296-0.028-0.41-0.085s-0.21-0.134-0.287-0.232s-0.161-0.249-0.249-0.451C52.923,74.957,52.847,74.777,52.783,74.623z
				 M48.764,71.84h2.994l-1.511-4.136L48.764,71.84z"/>
			<path fill="#FFFFFF" d="M56.522,74.691v-7.896c0-0.41,0.094-0.718,0.28-0.923s0.429-0.308,0.725-0.308
				c0.306,0,0.553,0.102,0.741,0.304c0.189,0.203,0.284,0.512,0.284,0.926v7.896c0,0.415-0.095,0.725-0.284,0.93
				c-0.188,0.205-0.436,0.308-0.741,0.308c-0.292,0-0.532-0.104-0.722-0.311C56.617,75.41,56.522,75.101,56.522,74.691z"/>
		</g>
	</g>
</g>
</svg>
