<?xml version="1.0" encoding="utf-8"?>
<!-- Generator: Adobe Illustrator 16.0.0, SVG Export Plug-In . SVG Version: 6.00 Build 0)  -->
<!DOCTYPE svg PUBLIC "-//W3C//DTD SVG 1.1//EN" "http://www.w3.org/Graphics/SVG/1.1/DTD/svg11.dtd">
<svg version="1.1" id="Layer_1" xmlns="http://www.w3.org/2000/svg" xmlns:xlink="http://www.w3.org/1999/xlink" x="0px" y="0px"
	 width="136.833px" height="136.834px" viewBox="0 0 136.833 136.834" style="enable-background:new 0 0 136.833 136.834;"
	 xml:space="preserve">
<style type="text/css">
<![CDATA[
	.st0{fill:#7A6F64;}
	.st1{fill:#7D9D3E;}
	.st2{fill:#ACC337;}
	.st3{fill:#E23A37;}
	.st4{fill:#E37A26;}
	.st5{fill:#163749;}
	.st6{fill:#4A6C96;}
	.st7{fill:#E88524;}
	.st8{fill:#B56027;}
	.st9{fill:#88A0D2;}
	.st10{fill:#517AA6;}
	.st11{fill:#588DBF;}
	.st12{fill:#59337F;}
	.st13{fill:#8D964E;}
	.st14{fill:#8F8376;}
	.st15{fill:#21455F;}
	.st16{fill:#BF2026;}
	.st17{fill:#F7981D;}
	.st18{fill:#2A4049;}
	.st19{fill:#96B33D;}
	.st20{fill:#C93332;}
	.st21{fill:#FFFFFF;}
	.st22{fill:#CA2027;}
	.st23{fill:#CB7429;}
	.st24{fill:#9DCB3B;}
	.st25{fill:#344E5D;}
	.st26{fill:#355670;}
	.st27{fill:#396183;}
	.st28{fill:#6DA0D5;}
	.st29{fill:#6E4095;}
	.st30{fill:#6F8BC6;}
	.st31{fill:#D06A28;}
	.st32{fill:#3C5B78;}
	.st33{fill:#D7DABA;}
	.st34{fill:#718839;}
	.st35{fill:#A1B13A;}
	.st36{fill:#73773D;}
	.st37{fill:#DA1F26;}
]]>
</style>
<g>
	<g>
		<circle class="st33" cx="68.417" cy="68.417" r="63.333"/>
	</g>
	<g>
		<g>
			<path class="st17" d="M43.681,30.156c-2.358,0-4.271,1.913-4.271,4.272v68.351c0,2.359,1.913,4.271,4.271,4.271h49.127
				c2.359,0,4.271-1.912,4.271-4.271v-52.84L76.487,30.156H43.681z"/>
		</g>
		<path class="st7" d="M97.079,49.939h-16.32c-2.359,0-4.271-1.913-4.271-4.272V30.156L97.079,49.939z"/>
		<path class="st7" d="M75.636,77.722c0,2.723-2.207,4.93-4.928,4.93H34.723c-2.723,0-4.929-2.207-4.929-4.93V62.662
			c0-2.723,2.206-4.929,4.929-4.929h35.985c2.721,0,4.928,2.206,4.928,4.929V77.722z"/>
		<g>
			<path class="st21" d="M43.44,71.814h-1.859v2.837c0,0.406-0.096,0.713-0.287,0.923s-0.433,0.314-0.725,0.314
				c-0.306,0-0.552-0.104-0.738-0.311s-0.28-0.512-0.28-0.913V66.94c0-0.447,0.103-0.766,0.308-0.957s0.531-0.287,0.978-0.287h2.604
				c0.771,0,1.362,0.059,1.777,0.178c0.41,0.114,0.765,0.303,1.063,0.567c0.299,0.264,0.525,0.588,0.681,0.971
				s0.232,0.813,0.232,1.292c0,1.021-0.314,1.794-0.943,2.321S44.685,71.814,43.44,71.814z M42.948,67.22h-1.367v3.063h1.367
				c0.479,0,0.879-0.05,1.199-0.15c0.322-0.1,0.566-0.264,0.735-0.492s0.253-0.526,0.253-0.896c0-0.442-0.13-0.802-0.39-1.08
				C44.454,67.368,43.855,67.22,42.948,67.22z"/>
			<path class="st21" d="M52.778,71.814h-1.859v2.837c0,0.406-0.096,0.713-0.287,0.923s-0.433,0.314-0.725,0.314
				c-0.306,0-0.552-0.104-0.738-0.311s-0.28-0.512-0.28-0.913V66.94c0-0.447,0.103-0.766,0.308-0.957s0.531-0.287,0.978-0.287h2.604
				c0.771,0,1.362,0.059,1.777,0.178c0.41,0.114,0.765,0.303,1.063,0.567c0.299,0.264,0.525,0.588,0.681,0.971
				s0.232,0.813,0.232,1.292c0,1.021-0.314,1.794-0.943,2.321S54.022,71.814,52.778,71.814z M52.286,67.22h-1.367v3.063h1.367
				c0.479,0,0.879-0.05,1.199-0.15c0.322-0.1,0.566-0.264,0.735-0.492s0.253-0.526,0.253-0.896c0-0.442-0.13-0.802-0.39-1.08
				C53.792,67.368,53.193,67.22,52.286,67.22z"/>
			<path class="st21" d="M65.842,72.709c0,0.606-0.156,1.151-0.468,1.634c-0.313,0.483-0.77,0.861-1.371,1.135
				s-1.314,0.41-2.14,0.41c-0.989,0-1.805-0.187-2.447-0.561c-0.456-0.269-0.826-0.628-1.11-1.077
				c-0.285-0.449-0.428-0.885-0.428-1.309c0-0.246,0.086-0.457,0.256-0.632c0.172-0.175,0.389-0.263,0.653-0.263
				c0.214,0,0.396,0.068,0.544,0.205c0.147,0.137,0.274,0.339,0.379,0.608c0.128,0.319,0.266,0.585,0.414,0.8
				c0.147,0.214,0.356,0.391,0.625,0.53s0.622,0.208,1.06,0.208c0.602,0,1.091-0.14,1.466-0.42c0.377-0.28,0.564-0.63,0.564-1.049
				c0-0.333-0.102-0.603-0.305-0.81c-0.202-0.208-0.465-0.366-0.785-0.475c-0.322-0.109-0.751-0.226-1.289-0.349
				c-0.72-0.168-1.322-0.366-1.809-0.591c-0.484-0.226-0.87-0.533-1.154-0.923c-0.285-0.39-0.428-0.874-0.428-1.453
				c0-0.551,0.15-1.042,0.451-1.47s0.736-0.758,1.306-0.988s1.239-0.345,2.01-0.345c0.615,0,1.147,0.076,1.597,0.229
				c0.448,0.153,0.821,0.355,1.117,0.608s0.513,0.519,0.649,0.796s0.205,0.549,0.205,0.813c0,0.242-0.085,0.459-0.257,0.653
				c-0.17,0.194-0.384,0.291-0.639,0.291c-0.232,0-0.409-0.058-0.529-0.174c-0.121-0.116-0.252-0.307-0.394-0.571
				c-0.183-0.378-0.401-0.673-0.656-0.885s-0.665-0.318-1.23-0.318c-0.524,0-0.946,0.115-1.269,0.345
				c-0.32,0.23-0.481,0.507-0.481,0.831c0,0.201,0.055,0.374,0.164,0.52s0.26,0.271,0.451,0.376s0.385,0.187,0.581,0.246
				s0.52,0.146,0.971,0.26c0.565,0.132,1.076,0.278,1.535,0.438c0.457,0.16,0.848,0.353,1.168,0.581
				c0.322,0.228,0.572,0.516,0.752,0.865C65.752,71.776,65.842,72.204,65.842,72.709z"/>
		</g>
	</g>
</g>
</svg>
