<?xml version="1.0" encoding="utf-8"?>
<!-- Generator: Adobe Illustrator 16.0.0, SVG Export Plug-In . SVG Version: 6.00 Build 0)  -->
<!DOCTYPE svg PUBLIC "-//W3C//DTD SVG 1.1//EN" "http://www.w3.org/Graphics/SVG/1.1/DTD/svg11.dtd">
<svg version="1.1" id="Layer_1" xmlns="http://www.w3.org/2000/svg" xmlns:xlink="http://www.w3.org/1999/xlink" x="0px" y="0px"
	 width="136.833px" height="136.834px" viewBox="0 0 136.833 136.834" style="enable-background:new 0 0 136.833 136.834;"
	 xml:space="preserve">
<style type="text/css">
<![CDATA[
	.st0{fill:#7A6F64;}
	.st1{fill:#7D9D3E;}
	.st2{fill:#ACC337;}
	.st3{fill:#E23A37;}
	.st4{fill:#E37A26;}
	.st5{fill:#163749;}
	.st6{fill:#4A6C96;}
	.st7{fill:#E88524;}
	.st8{fill:#B56027;}
	.st9{fill:#88A0D2;}
	.st10{fill:#517AA6;}
	.st11{fill:#588DBF;}
	.st12{fill:#59337F;}
	.st13{fill:#8D964E;}
	.st14{fill:#8F8376;}
	.st15{fill:#21455F;}
	.st16{fill:#BF2026;}
	.st17{fill:#F7981D;}
	.st18{fill:#2A4049;}
	.st19{fill:#96B33D;}
	.st20{fill:#C93332;}
	.st21{fill:#FFFFFF;}
	.st22{fill:#CA2027;}
	.st23{fill:#CB7429;}
	.st24{fill:#9DCB3B;}
	.st25{fill:#344E5D;}
	.st26{fill:#355670;}
	.st27{fill:#396183;}
	.st28{fill:#6DA0D5;}
	.st29{fill:#6E4095;}
	.st30{fill:#6F8BC6;}
	.st31{fill:#D06A28;}
	.st32{fill:#3C5B78;}
	.st33{fill:#D7DABA;}
	.st34{fill:#718839;}
	.st35{fill:#A1B13A;}
	.st36{fill:#73773D;}
	.st37{fill:#DA1F26;}
]]>
</style>
<g>
	<g>
		<circle class="st33" cx="68.416" cy="68.417" r="63.333"/>
	</g>
	<g>
		<g>
			<path class="st23" d="M43.681,30.156c-2.359,0-4.271,1.912-4.271,4.271v68.352c0,2.359,1.912,4.271,4.271,4.271h49.127
				c2.359,0,4.271-1.912,4.271-4.271v-52.84L76.487,30.156H43.681z"/>
		</g>
		<path class="st8" d="M97.079,49.939h-16.32c-2.359,0-4.271-1.912-4.271-4.271V30.156L97.079,49.939z"/>
		<path class="st8" d="M75.636,77.722c0,2.723-2.207,4.93-4.928,4.93H34.722c-2.723,0-4.928-2.207-4.928-4.93V62.662
			c0-2.723,2.205-4.929,4.928-4.929h35.986c2.721,0,4.928,2.206,4.928,4.929V77.722z"/>
		<g>
			<path class="st21" d="M43.646,65.525c1.039,0,1.932,0.211,2.676,0.632c0.746,0.421,1.31,1.021,1.692,1.798
				s0.574,1.689,0.574,2.738c0,0.775-0.104,1.479-0.314,2.112s-0.524,1.183-0.943,1.647s-0.935,0.82-1.545,1.066
				s-1.311,0.369-2.099,0.369c-0.784,0-1.485-0.126-2.105-0.379s-1.137-0.609-1.552-1.07s-0.728-1.014-0.94-1.661
				c-0.211-0.647-0.317-1.347-0.317-2.099c0-0.77,0.11-1.477,0.331-2.119c0.222-0.643,0.542-1.189,0.961-1.641
				s0.93-0.796,1.531-1.036S42.88,65.525,43.646,65.525z M46.53,70.679c0-0.734-0.118-1.37-0.355-1.907s-0.575-0.944-1.016-1.22
				c-0.439-0.276-0.944-0.414-1.514-0.414c-0.405,0-0.78,0.076-1.125,0.229c-0.344,0.153-0.64,0.375-0.889,0.667
				c-0.248,0.292-0.443,0.664-0.588,1.118c-0.143,0.454-0.215,0.963-0.215,1.528c0,0.57,0.072,1.084,0.215,1.545
				c0.145,0.46,0.347,0.842,0.609,1.145c0.262,0.303,0.563,0.53,0.902,0.68c0.339,0.15,0.712,0.226,1.117,0.226
				c0.52,0,0.997-0.13,1.432-0.39c0.436-0.26,0.782-0.661,1.039-1.203C46.401,72.14,46.53,71.472,46.53,70.679z"/>
			<path class="st21" d="M56.299,67.371h-2.215v7.28c0,0.419-0.094,0.73-0.28,0.933s-0.429,0.304-0.725,0.304
				c-0.301,0-0.546-0.103-0.734-0.308c-0.189-0.205-0.284-0.515-0.284-0.93v-7.28h-2.215c-0.347,0-0.604-0.076-0.772-0.229
				s-0.253-0.354-0.253-0.605c0-0.26,0.088-0.465,0.263-0.615c0.176-0.15,0.43-0.226,0.763-0.226h6.453
				c0.351,0,0.612,0.078,0.782,0.232c0.172,0.155,0.257,0.358,0.257,0.608s-0.087,0.452-0.26,0.605S56.646,67.371,56.299,67.371z"/>
			<path class="st21" d="M62.431,71.814h-1.859v2.837c0,0.406-0.096,0.713-0.287,0.923s-0.433,0.314-0.725,0.314
				c-0.306,0-0.552-0.104-0.738-0.311s-0.28-0.512-0.28-0.913V66.94c0-0.447,0.103-0.766,0.308-0.957s0.531-0.287,0.978-0.287h2.604
				c0.771,0,1.362,0.059,1.777,0.178c0.41,0.114,0.765,0.303,1.063,0.567c0.299,0.264,0.525,0.588,0.681,0.971
				s0.232,0.813,0.232,1.292c0,1.021-0.314,1.794-0.943,2.321S63.675,71.814,62.431,71.814z M61.938,67.22h-1.367v3.063h1.367
				c0.479,0,0.879-0.05,1.199-0.15c0.322-0.1,0.566-0.264,0.735-0.492s0.253-0.526,0.253-0.896c0-0.442-0.13-0.802-0.39-1.08
				C63.444,67.368,62.846,67.22,61.938,67.22z"/>
		</g>
	</g>
</g>
</svg>
