<?xml version="1.0" encoding="utf-8"?>
<!-- Generator: Adobe Illustrator 16.0.0, SVG Export Plug-In . SVG Version: 6.00 Build 0)  -->
<!DOCTYPE svg PUBLIC "-//W3C//DTD SVG 1.1//EN" "http://www.w3.org/Graphics/SVG/1.1/DTD/svg11.dtd">
<svg version="1.1" id="Layer_1" xmlns="http://www.w3.org/2000/svg" xmlns:xlink="http://www.w3.org/1999/xlink" x="0px" y="0px"
	 width="136.913px" height="136.914px" viewBox="0 0 136.913 136.914" enable-background="new 0 0 136.913 136.914"
	 xml:space="preserve">
<g>
	<g>
		<circle fill="#D7DABA" cx="68.457" cy="68.457" r="63.333"/>
	</g>
	<g>
		<g>
			<path fill="#27569B" d="M43.72,30.195c-2.357,0-4.271,1.913-4.271,4.272v68.351c0,2.359,1.914,4.271,4.271,4.271h49.129
				c2.359,0,4.271-1.912,4.271-4.271v-52.84L76.528,30.195H43.72z"/>
		</g>
		<path fill="#224B7D" d="M97.12,49.979H80.8c-2.359,0-4.271-1.912-4.271-4.271V30.195L97.12,49.979z"/>
		<path fill="#203B72" d="M75.677,77.762c0,2.723-2.207,4.93-4.93,4.93H34.763c-2.723,0-4.93-2.207-4.93-4.93v-15.06
			c0-2.723,2.207-4.929,4.93-4.929h35.984c2.723,0,4.93,2.206,4.93,4.929V77.762z"/>
		<g>
			<path fill="#FFFFFF" d="M42.967,71.854h-1.859v2.837c0,0.406-0.096,0.713-0.287,0.923s-0.433,0.314-0.725,0.314
				c-0.306,0-0.552-0.104-0.738-0.311s-0.28-0.512-0.28-0.913V66.98c0-0.447,0.103-0.766,0.308-0.957s0.531-0.287,0.978-0.287h2.604
				c0.771,0,1.362,0.059,1.777,0.178c0.41,0.114,0.765,0.303,1.063,0.567c0.298,0.264,0.524,0.588,0.68,0.971
				s0.232,0.813,0.232,1.292c0,1.021-0.314,1.794-0.943,2.321S44.211,71.854,42.967,71.854z M42.475,67.26h-1.367v3.063h1.367
				c0.479,0,0.878-0.05,1.2-0.15c0.32-0.1,0.565-0.264,0.734-0.492s0.253-0.526,0.253-0.896c0-0.442-0.13-0.802-0.39-1.08
				C43.98,67.408,43.382,67.26,42.475,67.26z"/>
			<path fill="#FFFFFF" d="M56.03,72.75c0,0.606-0.156,1.151-0.469,1.634c-0.312,0.483-0.769,0.861-1.37,1.135
				s-1.314,0.41-2.14,0.41c-0.989,0-1.805-0.187-2.447-0.561c-0.456-0.269-0.826-0.628-1.111-1.077
				c-0.284-0.449-0.427-0.885-0.427-1.309c0-0.246,0.085-0.457,0.257-0.632c0.17-0.175,0.388-0.263,0.652-0.263
				c0.214,0,0.396,0.068,0.543,0.205c0.148,0.137,0.275,0.339,0.38,0.608c0.128,0.319,0.266,0.585,0.413,0.8
				c0.148,0.214,0.357,0.391,0.626,0.53s0.622,0.208,1.06,0.208c0.602,0,1.09-0.14,1.467-0.42c0.375-0.28,0.563-0.63,0.563-1.049
				c0-0.333-0.102-0.603-0.304-0.81c-0.203-0.208-0.465-0.366-0.787-0.475c-0.32-0.109-0.75-0.226-1.288-0.349
				c-0.72-0.168-1.323-0.366-1.808-0.591c-0.486-0.226-0.871-0.533-1.156-0.923c-0.284-0.39-0.427-0.874-0.427-1.453
				c0-0.551,0.15-1.042,0.451-1.47s0.736-0.758,1.306-0.988s1.239-0.345,2.01-0.345c0.615,0,1.147,0.076,1.596,0.229
				c0.449,0.153,0.822,0.355,1.118,0.608s0.513,0.519,0.649,0.796s0.205,0.549,0.205,0.813c0,0.242-0.086,0.459-0.256,0.653
				c-0.172,0.194-0.385,0.291-0.64,0.291c-0.232,0-0.409-0.058-0.53-0.174c-0.12-0.116-0.251-0.307-0.393-0.571
				c-0.183-0.378-0.401-0.673-0.656-0.885s-0.665-0.318-1.23-0.318c-0.524,0-0.947,0.115-1.268,0.345
				c-0.322,0.23-0.482,0.507-0.482,0.831c0,0.201,0.055,0.374,0.164,0.52s0.26,0.271,0.451,0.376s0.385,0.187,0.581,0.246
				s0.52,0.146,0.971,0.26c0.565,0.132,1.077,0.278,1.534,0.438c0.459,0.16,0.848,0.353,1.17,0.581
				c0.32,0.228,0.571,0.516,0.752,0.865C55.94,71.816,56.03,72.244,56.03,72.75z"/>
			<path fill="#FFFFFF" d="M59.011,65.736h2.646c0.688,0,1.278,0.064,1.771,0.191s0.938,0.367,1.34,0.718
				c1.044,0.893,1.565,2.251,1.565,4.074c0,0.602-0.053,1.151-0.157,1.647s-0.267,0.944-0.485,1.343s-0.499,0.755-0.841,1.07
				c-0.269,0.242-0.563,0.435-0.882,0.581s-0.662,0.249-1.028,0.308c-0.367,0.059-0.781,0.089-1.241,0.089h-2.646
				c-0.369,0-0.647-0.056-0.834-0.167s-0.309-0.269-0.365-0.472c-0.058-0.203-0.086-0.466-0.086-0.79V66.98
				c0-0.438,0.098-0.754,0.294-0.95S58.573,65.736,59.011,65.736z M59.797,67.342v6.802h1.538c0.337,0,0.602-0.009,0.793-0.027
				s0.39-0.064,0.595-0.137s0.383-0.175,0.533-0.308c0.679-0.574,1.019-1.563,1.019-2.967c0-0.989-0.149-1.729-0.447-2.222
				c-0.299-0.492-0.667-0.806-1.104-0.94s-0.966-0.202-1.586-0.202H59.797z"/>
		</g>
	</g>
</g>
</svg>
