<?xml version="1.0" encoding="utf-8"?>
<!-- Generator: Adobe Illustrator 16.0.0, SVG Export Plug-In . SVG Version: 6.00 Build 0)  -->
<!DOCTYPE svg PUBLIC "-//W3C//DTD SVG 1.1//EN" "http://www.w3.org/Graphics/SVG/1.1/DTD/svg11.dtd">
<svg version="1.1" id="Layer_1" xmlns="http://www.w3.org/2000/svg" xmlns:xlink="http://www.w3.org/1999/xlink" x="0px" y="0px"
	 width="136.914px" height="136.914px" viewBox="0 0 136.914 136.914" enable-background="new 0 0 136.914 136.914"
	 xml:space="preserve">
<g>
	<g>
		<circle fill="#D7DABA" cx="68.457" cy="68.457" r="63.333"/>
	</g>
	<g>
		<g>
			<g>
				<path fill="#51B748" d="M43.72,30.195c-2.358,0-4.271,1.912-4.271,4.271v68.352c0,2.359,1.913,4.271,4.271,4.271h49.128
					c2.359,0,4.271-1.912,4.271-4.271v-52.84L76.528,30.195H43.72z"/>
			</g>
		</g>
		<path fill="#38AA49" d="M97.12,49.979h-16.32c-2.359,0-4.271-1.912-4.271-4.271V30.195L97.12,49.979z"/>
		<path fill="#38AA49" d="M75.676,77.762c0,2.723-2.207,4.93-4.929,4.93H34.762c-2.723,0-4.929-2.207-4.929-4.93V62.701
			c0-2.723,2.206-4.929,4.929-4.929h35.985c2.722,0,4.929,2.206,4.929,4.929V77.762z"/>
		<g>
			<path fill="#FFFFFF" d="M43.777,74.246l-1.606-6.385v6.918c0,0.383-0.085,0.67-0.257,0.861c-0.17,0.191-0.397,0.287-0.68,0.287
				c-0.273,0-0.497-0.095-0.67-0.284s-0.26-0.478-0.26-0.865v-7.93c0-0.438,0.114-0.732,0.342-0.885s0.535-0.229,0.923-0.229h0.629
				c0.378,0,0.653,0.034,0.823,0.103c0.172,0.068,0.298,0.191,0.38,0.369s0.176,0.467,0.28,0.868l1.456,5.489l1.456-5.489
				c0.104-0.401,0.198-0.69,0.28-0.868s0.208-0.301,0.38-0.369c0.17-0.068,0.445-0.103,0.823-0.103h0.629
				c0.388,0,0.695,0.076,0.923,0.229s0.342,0.448,0.342,0.885v7.93c0,0.383-0.086,0.67-0.256,0.861
				c-0.172,0.191-0.4,0.287-0.688,0.287c-0.269,0-0.49-0.096-0.663-0.287s-0.26-0.479-0.26-0.861v-6.918l-1.606,6.385
				c-0.104,0.415-0.19,0.719-0.256,0.913c-0.066,0.194-0.188,0.37-0.366,0.53s-0.424,0.239-0.738,0.239
				c-0.237,0-0.438-0.051-0.602-0.154s-0.292-0.233-0.383-0.393s-0.163-0.336-0.216-0.53C43.885,74.657,43.832,74.456,43.777,74.246
				z"/>
			<path fill="#FFFFFF" d="M52.137,74.69v-7.896c0-0.41,0.094-0.718,0.28-0.923s0.429-0.308,0.725-0.308
				c0.306,0,0.553,0.102,0.742,0.304c0.188,0.203,0.283,0.512,0.283,0.926v7.896c0,0.415-0.095,0.725-0.283,0.93
				c-0.189,0.205-0.437,0.308-0.742,0.308c-0.292,0-0.532-0.104-0.721-0.311C52.232,75.409,52.137,75.101,52.137,74.69z"/>
			<path fill="#FFFFFF" d="M57.695,65.735h2.646c0.688,0,1.278,0.064,1.771,0.191s0.938,0.367,1.34,0.718
				c1.044,0.893,1.565,2.251,1.565,4.074c0,0.602-0.053,1.151-0.157,1.647s-0.267,0.944-0.485,1.343s-0.499,0.755-0.841,1.07
				c-0.269,0.242-0.563,0.435-0.882,0.581s-0.662,0.249-1.028,0.308c-0.367,0.059-0.781,0.089-1.241,0.089h-2.646
				c-0.369,0-0.647-0.056-0.834-0.167s-0.309-0.269-0.365-0.472c-0.058-0.203-0.086-0.466-0.086-0.79v-7.349
				c0-0.438,0.098-0.754,0.294-0.95S57.257,65.735,57.695,65.735z M58.481,67.342v6.802h1.538c0.337,0,0.602-0.009,0.793-0.027
				s0.39-0.064,0.595-0.137s0.383-0.175,0.533-0.308c0.679-0.574,1.019-1.563,1.019-2.967c0-0.989-0.149-1.729-0.447-2.222
				c-0.299-0.492-0.667-0.806-1.104-0.94s-0.966-0.202-1.586-0.202H58.481z"/>
		</g>
	</g>
</g>
</svg>
