<?xml version="1.0" encoding="utf-8"?>
<!-- Generator: Adobe Illustrator 16.0.0, SVG Export Plug-In . SVG Version: 6.00 Build 0)  -->
<!DOCTYPE svg PUBLIC "-//W3C//DTD SVG 1.1//EN" "http://www.w3.org/Graphics/SVG/1.1/DTD/svg11.dtd">
<svg version="1.1" id="Layer_1" xmlns="http://www.w3.org/2000/svg" xmlns:xlink="http://www.w3.org/1999/xlink" x="0px" y="0px"
	 width="136.833px" height="136.834px" viewBox="0 0 136.833 136.834" style="enable-background:new 0 0 136.833 136.834;"
	 xml:space="preserve">
<style type="text/css">
<![CDATA[
	.st0{fill:#7B3A87;}
	.st1{fill:#7F1325;}
	.st2{fill:#E07325;}
	.st3{fill:#194680;}
	.st4{fill:#837C72;}
	.st5{fill:#B3BD35;}
	.st6{fill:#883637;}
	.st7{fill:#EDC92C;}
	.st8{fill:#EF8A21;}
	.st9{fill:#8B4097;}
	.st10{fill:#588DBF;}
	.st11{fill:#8E2852;}
	.st12{fill:#5B4F3F;}
	.st13{fill:#932B63;}
	.st14{fill:#C33F27;}
	.st15{fill:#C6CB2D;}
	.st16{fill:#C76428;}
	.st17{fill:#FFFFFF;}
	.st18{fill:#647131;}
	.st19{fill:#6D6254;}
	.st20{fill:#6DA0D5;}
	.st21{fill:#00599C;}
	.st22{fill:#D57927;}
	.st23{fill:#D7B528;}
	.st24{fill:#D7DABA;}
	.st25{fill:#D85026;}
	.st26{fill:#A11D2A;}
	.st27{fill:#A14443;}
	.st28{fill:#748838;}
	.st29{fill:#A53460;}
	.st30{fill:#A82E6C;}
]]>
</style>
<g>
	<g>
		<circle class="st24" cx="68.417" cy="68.417" r="63.333"/>
	</g>
	<g>
		<g>
			<path class="st2" d="M43.68,30.156c-2.358,0-4.271,1.912-4.271,4.271v68.352c0,2.359,1.913,4.271,4.271,4.271h49.128
				c2.359,0,4.271-1.912,4.271-4.271v-52.84L76.488,30.156H43.68z"/>
		</g>
		<path class="st16" d="M97.08,49.939h-16.32c-2.359,0-4.271-1.912-4.271-4.271V30.156L97.08,49.939z"/>
		<path class="st16" d="M75.636,77.722c0,2.723-2.207,4.93-4.929,4.93H34.722c-2.723,0-4.929-2.207-4.929-4.93V62.662
			c0-2.723,2.206-4.929,4.929-4.929h35.985c2.722,0,4.929,2.206,4.929,4.929V77.722z"/>
		<g>
			<path class="st17" d="M41.369,66.755v5.25c0,0.456-0.02,0.843-0.058,1.162c-0.039,0.319-0.127,0.643-0.264,0.971
				c-0.228,0.551-0.604,0.981-1.128,1.289s-1.162,0.461-1.914,0.461c-0.679,0-1.245-0.107-1.698-0.321
				c-0.454-0.214-0.819-0.561-1.098-1.039c-0.146-0.255-0.265-0.549-0.355-0.882s-0.137-0.649-0.137-0.95
				c0-0.319,0.089-0.563,0.267-0.731s0.405-0.253,0.684-0.253c0.269,0,0.472,0.078,0.608,0.232s0.241,0.396,0.314,0.725
				c0.077,0.351,0.155,0.631,0.232,0.841s0.207,0.39,0.39,0.54s0.442,0.226,0.779,0.226c0.897,0,1.347-0.659,1.347-1.976v-5.544
				c0-0.41,0.09-0.718,0.27-0.923c0.181-0.205,0.426-0.308,0.735-0.308c0.314,0,0.563,0.103,0.749,0.308
				C41.276,66.038,41.369,66.345,41.369,66.755z"/>
			<path class="st17" d="M49.633,74.583l-0.479-1.258h-4.074l-0.479,1.285c-0.187,0.501-0.347,0.84-0.479,1.015
				s-0.349,0.263-0.649,0.263c-0.255,0-0.48-0.093-0.677-0.28s-0.294-0.399-0.294-0.636c0-0.137,0.022-0.278,0.068-0.424
				s0.121-0.349,0.226-0.608l2.563-6.508c0.073-0.187,0.161-0.411,0.263-0.673c0.104-0.262,0.213-0.479,0.328-0.653
				c0.117-0.173,0.27-0.313,0.459-0.42c0.188-0.107,0.422-0.161,0.7-0.161c0.282,0,0.519,0.054,0.708,0.161
				c0.188,0.107,0.342,0.245,0.457,0.414c0.117,0.168,0.215,0.35,0.295,0.543c0.079,0.194,0.181,0.452,0.304,0.776l2.618,6.467
				c0.205,0.492,0.308,0.85,0.308,1.073c0,0.232-0.097,0.445-0.29,0.639c-0.194,0.194-0.428,0.291-0.701,0.291
				c-0.159,0-0.296-0.028-0.41-0.085s-0.21-0.134-0.287-0.232s-0.16-0.249-0.25-0.451C49.774,74.917,49.697,74.737,49.633,74.583z
				 M45.614,71.8h2.994l-1.511-4.136L45.614,71.8z"/>
			<path class="st17" d="M54.063,66.858l2.27,6.72l2.276-6.768c0.118-0.355,0.207-0.603,0.267-0.742s0.157-0.264,0.294-0.376
				s0.323-0.167,0.561-0.167c0.173,0,0.334,0.043,0.481,0.13c0.148,0.086,0.265,0.202,0.35,0.345
				c0.084,0.144,0.126,0.288,0.126,0.434c0,0.1-0.014,0.208-0.041,0.325s-0.062,0.23-0.103,0.342s-0.082,0.227-0.123,0.345
				l-2.427,6.549c-0.087,0.25-0.173,0.489-0.26,0.714s-0.187,0.424-0.301,0.595s-0.266,0.311-0.454,0.42
				c-0.189,0.109-0.421,0.164-0.694,0.164s-0.505-0.054-0.694-0.161c-0.188-0.107-0.342-0.249-0.457-0.424
				c-0.117-0.175-0.218-0.375-0.305-0.598s-0.173-0.46-0.26-0.711L52.183,67.5c-0.041-0.119-0.083-0.235-0.126-0.349
				c-0.044-0.114-0.08-0.237-0.109-0.369c-0.03-0.132-0.045-0.244-0.045-0.335c0-0.232,0.094-0.444,0.28-0.636
				s0.422-0.287,0.704-0.287c0.347,0,0.592,0.106,0.734,0.318C53.766,66.055,53.913,66.393,54.063,66.858z"/>
			<path class="st17" d="M67.913,74.583l-0.479-1.258H63.36l-0.479,1.285c-0.187,0.501-0.347,0.84-0.479,1.015
				s-0.349,0.263-0.649,0.263c-0.255,0-0.48-0.093-0.677-0.28s-0.294-0.399-0.294-0.636c0-0.137,0.022-0.278,0.068-0.424
				s0.121-0.349,0.226-0.608l2.563-6.508c0.073-0.187,0.161-0.411,0.263-0.673c0.104-0.262,0.213-0.479,0.328-0.653
				c0.117-0.173,0.27-0.313,0.459-0.42c0.188-0.107,0.422-0.161,0.7-0.161c0.282,0,0.519,0.054,0.708,0.161
				c0.188,0.107,0.342,0.245,0.457,0.414c0.117,0.168,0.215,0.35,0.295,0.543c0.079,0.194,0.181,0.452,0.304,0.776l2.618,6.467
				c0.205,0.492,0.308,0.85,0.308,1.073c0,0.232-0.097,0.445-0.29,0.639c-0.194,0.194-0.428,0.291-0.701,0.291
				c-0.159,0-0.296-0.028-0.41-0.085s-0.21-0.134-0.287-0.232s-0.16-0.249-0.25-0.451C68.053,74.917,67.976,74.737,67.913,74.583z
				 M63.893,71.8h2.994l-1.511-4.136L63.893,71.8z"/>
		</g>
	</g>
</g>
</svg>
