<?xml version="1.0" encoding="utf-8"?>
<!-- Generator: Adobe Illustrator 16.0.0, SVG Export Plug-In . SVG Version: 6.00 Build 0)  -->
<!DOCTYPE svg PUBLIC "-//W3C//DTD SVG 1.1//EN" "http://www.w3.org/Graphics/SVG/1.1/DTD/svg11.dtd">
<svg version="1.1" id="Layer_1" xmlns="http://www.w3.org/2000/svg" xmlns:xlink="http://www.w3.org/1999/xlink" x="0px" y="0px"
	 width="136.833px" height="136.833px" viewBox="0 0 136.833 136.833" style="enable-background:new 0 0 136.833 136.833;"
	 xml:space="preserve">
<style type="text/css">
<![CDATA[
	.st0{fill:#7B3A87;}
	.st1{fill:#7F1325;}
	.st2{fill:#E07325;}
	.st3{fill:#194680;}
	.st4{fill:#837C72;}
	.st5{fill:#B3BD35;}
	.st6{fill:#883637;}
	.st7{fill:#EDC92C;}
	.st8{fill:#EF8A21;}
	.st9{fill:#8B4097;}
	.st10{fill:#588DBF;}
	.st11{fill:#8E2852;}
	.st12{fill:#5B4F3F;}
	.st13{fill:#932B63;}
	.st14{fill:#C33F27;}
	.st15{fill:#C6CB2D;}
	.st16{fill:#C76428;}
	.st17{fill:#FFFFFF;}
	.st18{fill:#647131;}
	.st19{fill:#6D6254;}
	.st20{fill:#6DA0D5;}
	.st21{fill:#00599C;}
	.st22{fill:#D57927;}
	.st23{fill:#D7B528;}
	.st24{fill:#D7DABA;}
	.st25{fill:#D85026;}
	.st26{fill:#A11D2A;}
	.st27{fill:#A14443;}
	.st28{fill:#748838;}
	.st29{fill:#A53460;}
	.st30{fill:#A82E6C;}
]]>
</style>
<g>
	<g>
		<circle class="st24" cx="68.417" cy="68.417" r="63.333"/>
	</g>
	<g>
		<g>
			<path class="st12" d="M43.681,30.155c-2.359,0-4.271,1.912-4.271,4.271v68.352c0,2.359,1.912,4.271,4.271,4.271h49.127
				c2.359,0,4.271-1.912,4.271-4.271v-52.84L76.488,30.155H43.681z"/>
		</g>
		<path class="st19" d="M97.08,49.938h-16.32c-2.359,0-4.271-1.912-4.271-4.271V30.155L97.08,49.938z"/>
		<path class="st19" d="M75.636,77.721c0,2.723-2.207,4.93-4.928,4.93H34.722c-2.723,0-4.928-2.207-4.928-4.93V62.661
			c0-2.723,2.205-4.928,4.928-4.928h35.986c2.721,0,4.928,2.205,4.928,4.928V77.721z"/>
		<g>
			<path class="st17" d="M41.105,65.696h2.646c0.688,0,1.278,0.064,1.771,0.191s0.938,0.367,1.34,0.718
				c1.044,0.893,1.565,2.251,1.565,4.074c0,0.602-0.053,1.15-0.157,1.647s-0.267,0.944-0.485,1.343
				c-0.219,0.399-0.499,0.756-0.841,1.07c-0.269,0.242-0.563,0.436-0.882,0.581s-0.662,0.249-1.029,0.308
				c-0.366,0.059-0.78,0.089-1.24,0.089h-2.646c-0.369,0-0.647-0.056-0.834-0.167c-0.187-0.112-0.309-0.27-0.366-0.473
				c-0.057-0.202-0.085-0.465-0.085-0.789V66.94c0-0.438,0.098-0.754,0.294-0.95S40.668,65.696,41.105,65.696z M41.892,67.302v6.802
				h1.538c0.337,0,0.602-0.009,0.793-0.027s0.39-0.063,0.595-0.137s0.383-0.175,0.533-0.308c0.679-0.574,1.019-1.563,1.019-2.967
				c0-0.988-0.149-1.729-0.448-2.222c-0.298-0.492-0.666-0.806-1.104-0.94s-0.966-0.202-1.586-0.202H41.892z"/>
			<path class="st17" d="M56.09,74.583l-0.479-1.258h-4.074l-0.479,1.285c-0.187,0.501-0.347,0.84-0.479,1.015
				c-0.132,0.176-0.349,0.264-0.649,0.264c-0.255,0-0.48-0.094-0.677-0.28s-0.294-0.399-0.294-0.636
				c0-0.137,0.022-0.277,0.068-0.424s0.121-0.349,0.226-0.608l2.563-6.508c0.073-0.187,0.16-0.411,0.264-0.673
				c0.102-0.262,0.211-0.479,0.328-0.653c0.115-0.173,0.269-0.313,0.457-0.42c0.189-0.107,0.423-0.161,0.701-0.161
				c0.282,0,0.519,0.054,0.707,0.161c0.189,0.107,0.342,0.245,0.459,0.414c0.115,0.168,0.214,0.35,0.293,0.543
				c0.08,0.194,0.182,0.452,0.305,0.776l2.618,6.467c0.205,0.492,0.308,0.851,0.308,1.073c0,0.232-0.097,0.445-0.291,0.639
				c-0.193,0.194-0.427,0.291-0.7,0.291c-0.159,0-0.296-0.028-0.41-0.086c-0.114-0.057-0.21-0.134-0.287-0.232
				c-0.077-0.098-0.161-0.248-0.249-0.451C56.229,74.917,56.153,74.738,56.09,74.583z M52.07,71.8h2.994l-1.511-4.136L52.07,71.8z"
				/>
			<path class="st17" d="M65.024,67.371H62.81v7.28c0,0.419-0.094,0.73-0.28,0.933c-0.187,0.203-0.429,0.305-0.725,0.305
				c-0.301,0-0.546-0.103-0.735-0.308c-0.188-0.205-0.283-0.515-0.283-0.93v-7.28h-2.215c-0.347,0-0.604-0.076-0.772-0.229
				s-0.253-0.354-0.253-0.605c0-0.26,0.088-0.465,0.264-0.615c0.175-0.15,0.429-0.226,0.762-0.226h6.453
				c0.351,0,0.611,0.078,0.783,0.232c0.17,0.155,0.256,0.358,0.256,0.608s-0.087,0.452-0.26,0.605S65.371,67.371,65.024,67.371z"/>
		</g>
	</g>
</g>
</svg>
