<?xml version="1.0" encoding="utf-8"?>
<!-- Generator: Adobe Illustrator 16.0.0, SVG Export Plug-In . SVG Version: 6.00 Build 0)  -->
<!DOCTYPE svg PUBLIC "-//W3C//DTD SVG 1.1//EN" "http://www.w3.org/Graphics/SVG/1.1/DTD/svg11.dtd">
<svg version="1.1" id="Layer_1" xmlns="http://www.w3.org/2000/svg" xmlns:xlink="http://www.w3.org/1999/xlink" x="0px" y="0px"
	 width="136.914px" height="136.914px" viewBox="0 0 136.914 136.914" enable-background="new 0 0 136.914 136.914"
	 xml:space="preserve">
<g>
	<g>
		<circle fill="#D7DABA" cx="68.457" cy="68.457" r="63.333"/>
	</g>
	<g>
		<g>
			<path fill="#396C80" d="M43.72,30.195c-2.358,0-4.271,1.912-4.271,4.271v68.352c0,2.359,1.913,4.271,4.271,4.271h49.128
				c2.359,0,4.271-1.912,4.271-4.271v-52.84L76.528,30.195H43.72z"/>
		</g>
		<path fill="#2D5460" d="M97.12,49.979h-16.32c-2.359,0-4.271-1.912-4.271-4.271V30.195L97.12,49.979z"/>
		<path fill="#2D5460" d="M75.676,77.762c0,2.723-2.207,4.93-4.929,4.93H34.762c-2.723,0-4.929-2.207-4.929-4.93V62.701
			c0-2.723,2.206-4.929,4.929-4.929h35.985c2.722,0,4.929,2.206,4.929,4.929V77.762z"/>
		<g>
			<path fill="#FFFFFF" d="M44.932,74.622l-0.479-1.258h-4.074l-0.479,1.285c-0.187,0.501-0.347,0.84-0.479,1.015
				s-0.349,0.263-0.649,0.263c-0.255,0-0.48-0.093-0.677-0.28s-0.294-0.399-0.294-0.636c0-0.137,0.022-0.278,0.068-0.424
				s0.121-0.349,0.226-0.608l2.563-6.508c0.073-0.187,0.16-0.411,0.264-0.673c0.102-0.262,0.211-0.479,0.328-0.653
				c0.115-0.173,0.269-0.313,0.457-0.42c0.189-0.107,0.423-0.161,0.701-0.161c0.282,0,0.519,0.054,0.707,0.161
				c0.189,0.107,0.342,0.245,0.459,0.414c0.115,0.168,0.214,0.35,0.293,0.543c0.08,0.194,0.182,0.452,0.305,0.776l2.618,6.467
				c0.205,0.492,0.308,0.85,0.308,1.073c0,0.232-0.097,0.445-0.291,0.639c-0.193,0.194-0.427,0.291-0.7,0.291
				c-0.159,0-0.296-0.028-0.41-0.085s-0.21-0.134-0.287-0.232s-0.161-0.249-0.249-0.451C45.072,74.956,44.996,74.777,44.932,74.622z
				 M40.913,71.84h2.994l-1.511-4.136L40.913,71.84z"/>
			<path fill="#FFFFFF" d="M55.001,74.622l-0.479-1.258h-4.074l-0.479,1.285c-0.187,0.501-0.347,0.84-0.479,1.015
				s-0.349,0.263-0.649,0.263c-0.255,0-0.48-0.093-0.677-0.28s-0.294-0.399-0.294-0.636c0-0.137,0.022-0.278,0.068-0.424
				s0.121-0.349,0.226-0.608l2.563-6.508c0.073-0.187,0.161-0.411,0.263-0.673c0.104-0.262,0.213-0.479,0.328-0.653
				c0.117-0.173,0.27-0.313,0.459-0.42c0.188-0.107,0.422-0.161,0.7-0.161c0.282,0,0.519,0.054,0.708,0.161
				c0.188,0.107,0.342,0.245,0.457,0.414c0.117,0.168,0.215,0.35,0.295,0.543c0.079,0.194,0.181,0.452,0.304,0.776l2.618,6.467
				c0.205,0.492,0.308,0.85,0.308,1.073c0,0.232-0.097,0.445-0.29,0.639c-0.194,0.194-0.428,0.291-0.701,0.291
				c-0.159,0-0.296-0.028-0.41-0.085s-0.21-0.134-0.287-0.232s-0.16-0.249-0.25-0.451C55.142,74.956,55.065,74.777,55.001,74.622z
				 M50.982,71.84h2.994l-1.511-4.136L50.982,71.84z"/>
			<path fill="#FFFFFF" d="M66.848,72.592c0,0.319-0.079,0.664-0.235,1.036c-0.158,0.372-0.405,0.736-0.742,1.094
				s-0.768,0.648-1.292,0.872s-1.135,0.335-1.832,0.335c-0.528,0-1.01-0.05-1.442-0.15s-0.826-0.256-1.18-0.468
				c-0.353-0.212-0.678-0.491-0.974-0.837c-0.265-0.314-0.49-0.667-0.677-1.056s-0.327-0.806-0.42-1.248
				c-0.094-0.442-0.141-0.912-0.141-1.408c0-0.807,0.117-1.529,0.352-2.167c0.235-0.638,0.571-1.184,1.009-1.637
				s0.95-0.799,1.538-1.036s1.215-0.355,1.88-0.355c0.812,0,1.533,0.162,2.167,0.485s1.119,0.724,1.456,1.2s0.506,0.926,0.506,1.35
				c0,0.232-0.082,0.438-0.246,0.615s-0.362,0.267-0.595,0.267c-0.26,0-0.455-0.062-0.584-0.185
				c-0.131-0.123-0.275-0.335-0.435-0.636c-0.265-0.497-0.575-0.868-0.933-1.114c-0.358-0.246-0.799-0.369-1.323-0.369
				c-0.834,0-1.498,0.317-1.993,0.95c-0.494,0.633-0.741,1.534-0.741,2.7c0,0.779,0.109,1.428,0.328,1.945s0.528,0.903,0.93,1.159
				s0.87,0.383,1.408,0.383c0.583,0,1.077-0.145,1.479-0.434c0.404-0.29,0.708-0.714,0.913-1.275
				c0.087-0.264,0.193-0.479,0.321-0.646s0.333-0.25,0.615-0.25c0.241,0,0.449,0.084,0.622,0.253S66.848,72.341,66.848,72.592z"/>
		</g>
	</g>
</g>
</svg>
