<?xml version="1.0" encoding="utf-8"?>
<!-- Generator: Adobe Illustrator 16.0.0, SVG Export Plug-In . SVG Version: 6.00 Build 0)  -->
<!DOCTYPE svg PUBLIC "-//W3C//DTD SVG 1.1//EN" "http://www.w3.org/Graphics/SVG/1.1/DTD/svg11.dtd">
<svg version="1.1" id="Layer_1" xmlns="http://www.w3.org/2000/svg" xmlns:xlink="http://www.w3.org/1999/xlink" x="0px" y="0px"
	 width="136.833px" height="136.834px" viewBox="0 0 136.833 136.834" style="enable-background:new 0 0 136.833 136.834;"
	 xml:space="preserve">
<style type="text/css">
<![CDATA[
	.st0{fill:#7A6F64;}
	.st1{fill:#7D9D3E;}
	.st2{fill:#ACC337;}
	.st3{fill:#E23A37;}
	.st4{fill:#E37A26;}
	.st5{fill:#163749;}
	.st6{fill:#4A6C96;}
	.st7{fill:#E88524;}
	.st8{fill:#B56027;}
	.st9{fill:#88A0D2;}
	.st10{fill:#517AA6;}
	.st11{fill:#588DBF;}
	.st12{fill:#59337F;}
	.st13{fill:#8D964E;}
	.st14{fill:#8F8376;}
	.st15{fill:#21455F;}
	.st16{fill:#BF2026;}
	.st17{fill:#F7981D;}
	.st18{fill:#2A4049;}
	.st19{fill:#96B33D;}
	.st20{fill:#C93332;}
	.st21{fill:#FFFFFF;}
	.st22{fill:#CA2027;}
	.st23{fill:#CB7429;}
	.st24{fill:#9DCB3B;}
	.st25{fill:#344E5D;}
	.st26{fill:#355670;}
	.st27{fill:#396183;}
	.st28{fill:#6DA0D5;}
	.st29{fill:#6E4095;}
	.st30{fill:#6F8BC6;}
	.st31{fill:#D06A28;}
	.st32{fill:#3C5B78;}
	.st33{fill:#D7DABA;}
	.st34{fill:#718839;}
	.st35{fill:#A1B13A;}
	.st36{fill:#73773D;}
	.st37{fill:#DA1F26;}
]]>
</style>
<g>
	<g>
		<circle class="st33" cx="68.417" cy="68.417" r="63.333"/>
	</g>
	<g>
		<g>
			<g>
				<path class="st2" d="M43.68,30.156c-2.358,0-4.271,1.913-4.271,4.272v68.351c0,2.359,1.913,4.271,4.271,4.271h49.128
					c2.359,0,4.271-1.912,4.271-4.271v-52.84L76.488,30.156H43.68z"/>
			</g>
		</g>
		<path class="st35" d="M97.08,49.939h-16.32c-2.359,0-4.271-1.913-4.271-4.272V30.156L97.08,49.939z"/>
		<path class="st35" d="M75.636,77.722c0,2.723-2.207,4.93-4.929,4.93H34.722c-2.723,0-4.929-2.207-4.929-4.93V62.662
			c0-2.723,2.206-4.929,4.929-4.929h35.985c2.722,0,4.929,2.206,4.929,4.929V77.722z"/>
		<g>
			<path class="st21" d="M42.573,65.524c1.039,0,1.932,0.211,2.676,0.632c0.746,0.421,1.31,1.021,1.692,1.798
				s0.574,1.689,0.574,2.738c0,0.775-0.104,1.479-0.314,2.112s-0.524,1.183-0.943,1.647s-0.935,0.82-1.545,1.066
				s-1.311,0.369-2.099,0.369c-0.784,0-1.485-0.126-2.105-0.379s-1.137-0.609-1.552-1.07s-0.728-1.014-0.94-1.661
				c-0.211-0.647-0.317-1.347-0.317-2.099c0-0.77,0.11-1.477,0.331-2.119c0.222-0.643,0.542-1.189,0.961-1.641
				s0.93-0.796,1.531-1.036S41.807,65.524,42.573,65.524z M45.458,70.679c0-0.734-0.118-1.37-0.355-1.907s-0.575-0.944-1.016-1.22
				c-0.439-0.276-0.944-0.414-1.514-0.414c-0.405,0-0.78,0.076-1.125,0.229c-0.344,0.153-0.64,0.375-0.889,0.667
				c-0.248,0.292-0.443,0.664-0.588,1.118c-0.143,0.454-0.215,0.963-0.215,1.528c0,0.57,0.072,1.084,0.215,1.545
				c0.145,0.46,0.347,0.842,0.609,1.145c0.262,0.303,0.563,0.53,0.902,0.68c0.339,0.15,0.712,0.226,1.117,0.226
				c0.52,0,0.997-0.13,1.432-0.39c0.436-0.26,0.782-0.661,1.039-1.203C45.329,72.139,45.458,71.472,45.458,70.679z"/>
			<path class="st21" d="M50.509,65.695h2.646c0.688,0,1.278,0.064,1.771,0.191s0.938,0.367,1.34,0.718
				c1.044,0.893,1.565,2.251,1.565,4.074c0,0.602-0.053,1.151-0.157,1.647s-0.267,0.944-0.485,1.343s-0.499,0.755-0.841,1.07
				c-0.269,0.242-0.563,0.435-0.882,0.581s-0.662,0.249-1.029,0.308c-0.366,0.059-0.78,0.089-1.24,0.089H50.55
				c-0.369,0-0.647-0.056-0.834-0.167s-0.309-0.269-0.366-0.472c-0.057-0.203-0.085-0.466-0.085-0.79v-7.349
				c0-0.438,0.098-0.754,0.294-0.95S50.072,65.695,50.509,65.695z M51.295,67.302v6.802h1.538c0.337,0,0.602-0.009,0.793-0.027
				s0.39-0.064,0.595-0.137s0.383-0.175,0.533-0.308c0.679-0.574,1.019-1.563,1.019-2.967c0-0.989-0.149-1.729-0.448-2.222
				c-0.298-0.492-0.666-0.806-1.104-0.94s-0.966-0.202-1.586-0.202H51.295z"/>
			<path class="st21" d="M67.23,72.709c0,0.606-0.156,1.151-0.468,1.634c-0.313,0.483-0.77,0.861-1.371,1.135s-1.314,0.41-2.14,0.41
				c-0.989,0-1.805-0.187-2.447-0.561c-0.456-0.269-0.826-0.628-1.11-1.077c-0.285-0.449-0.428-0.885-0.428-1.309
				c0-0.246,0.086-0.457,0.256-0.632c0.172-0.175,0.389-0.263,0.653-0.263c0.214,0,0.396,0.068,0.544,0.205
				c0.147,0.137,0.274,0.339,0.379,0.608c0.128,0.319,0.266,0.585,0.414,0.8c0.147,0.214,0.356,0.391,0.625,0.53
				s0.622,0.208,1.06,0.208c0.602,0,1.091-0.14,1.466-0.42c0.377-0.28,0.564-0.63,0.564-1.049c0-0.333-0.102-0.603-0.305-0.81
				c-0.202-0.208-0.465-0.366-0.785-0.475c-0.322-0.109-0.751-0.226-1.289-0.349c-0.72-0.168-1.322-0.366-1.809-0.591
				c-0.484-0.226-0.87-0.533-1.154-0.923c-0.285-0.39-0.428-0.874-0.428-1.453c0-0.551,0.15-1.042,0.451-1.47
				s0.736-0.758,1.306-0.988s1.239-0.345,2.01-0.345c0.615,0,1.147,0.076,1.597,0.229c0.448,0.153,0.821,0.355,1.117,0.608
				s0.513,0.519,0.649,0.796s0.205,0.549,0.205,0.813c0,0.242-0.085,0.459-0.257,0.653c-0.17,0.194-0.384,0.291-0.639,0.291
				c-0.232,0-0.409-0.058-0.529-0.174c-0.121-0.116-0.252-0.307-0.394-0.571c-0.183-0.378-0.401-0.673-0.656-0.885
				s-0.665-0.318-1.23-0.318c-0.524,0-0.946,0.115-1.269,0.345c-0.32,0.23-0.481,0.507-0.481,0.831c0,0.201,0.055,0.374,0.164,0.52
				s0.26,0.271,0.451,0.376s0.385,0.187,0.581,0.246s0.52,0.146,0.971,0.26c0.565,0.132,1.076,0.278,1.535,0.438
				c0.457,0.16,0.848,0.353,1.168,0.581c0.322,0.228,0.572,0.516,0.752,0.865C67.14,71.776,67.23,72.203,67.23,72.709z"/>
		</g>
	</g>
</g>
</svg>
