<?xml version="1.0" encoding="utf-8"?>
<!-- Generator: Adobe Illustrator 16.0.0, SVG Export Plug-In . SVG Version: 6.00 Build 0)  -->
<!DOCTYPE svg PUBLIC "-//W3C//DTD SVG 1.1//EN" "http://www.w3.org/Graphics/SVG/1.1/DTD/svg11.dtd">
<svg version="1.1" id="Layer_1" xmlns="http://www.w3.org/2000/svg" xmlns:xlink="http://www.w3.org/1999/xlink" x="0px" y="0px"
	 width="136.833px" height="136.833px" viewBox="0 0 136.833 136.833" style="enable-background:new 0 0 136.833 136.833;"
	 xml:space="preserve">
<style type="text/css">
<![CDATA[
	.st0{fill:#7B3A87;}
	.st1{fill:#7F1325;}
	.st2{fill:#E07325;}
	.st3{fill:#194680;}
	.st4{fill:#837C72;}
	.st5{fill:#B3BD35;}
	.st6{fill:#883637;}
	.st7{fill:#EDC92C;}
	.st8{fill:#EF8A21;}
	.st9{fill:#8B4097;}
	.st10{fill:#588DBF;}
	.st11{fill:#8E2852;}
	.st12{fill:#5B4F3F;}
	.st13{fill:#932B63;}
	.st14{fill:#C33F27;}
	.st15{fill:#C6CB2D;}
	.st16{fill:#C76428;}
	.st17{fill:#FFFFFF;}
	.st18{fill:#647131;}
	.st19{fill:#6D6254;}
	.st20{fill:#6DA0D5;}
	.st21{fill:#00599C;}
	.st22{fill:#D57927;}
	.st23{fill:#D7B528;}
	.st24{fill:#D7DABA;}
	.st25{fill:#D85026;}
	.st26{fill:#A11D2A;}
	.st27{fill:#A14443;}
	.st28{fill:#748838;}
	.st29{fill:#A53460;}
	.st30{fill:#A82E6C;}
]]>
</style>
<g>
	<g>
		<circle class="st24" cx="68.417" cy="68.417" r="63.333"/>
	</g>
	<g>
		<g>
			<g>
				<path class="st27" d="M43.679,30.155c-2.357,0-4.271,1.912-4.271,4.271v68.352c0,2.359,1.914,4.271,4.271,4.271h49.129
					c2.359,0,4.271-1.912,4.271-4.271v-52.84L76.488,30.155H43.679z"/>
			</g>
		</g>
		<path class="st6" d="M97.08,49.938h-16.32c-2.359,0-4.271-1.912-4.271-4.271V30.155L97.08,49.938z"/>
		<path class="st6" d="M75.636,77.721c0,2.723-2.207,4.93-4.93,4.93H34.722c-2.723,0-4.93-2.207-4.93-4.93V62.661
			c0-2.723,2.207-4.928,4.93-4.928h35.984c2.723,0,4.93,2.205,4.93,4.928V77.721z"/>
		<g>
			<path class="st17" d="M41.597,74.651v-7.896c0-0.41,0.094-0.718,0.28-0.923s0.429-0.308,0.725-0.308
				c0.306,0,0.553,0.102,0.742,0.304c0.188,0.203,0.283,0.512,0.283,0.926v7.896c0,0.415-0.095,0.725-0.283,0.93
				c-0.189,0.205-0.437,0.308-0.742,0.308c-0.292,0-0.532-0.104-0.721-0.311C41.691,75.37,41.597,75.061,41.597,74.651z"/>
			<path class="st17" d="M54.435,72.552c0,0.318-0.079,0.664-0.235,1.035c-0.158,0.372-0.405,0.736-0.742,1.094
				c-0.337,0.358-0.768,0.648-1.292,0.872s-1.135,0.335-1.832,0.335c-0.528,0-1.01-0.051-1.442-0.15s-0.826-0.256-1.18-0.469
				c-0.353-0.211-0.678-0.49-0.974-0.837c-0.265-0.314-0.49-0.667-0.677-1.056c-0.187-0.391-0.327-0.807-0.42-1.248
				c-0.094-0.441-0.141-0.912-0.141-1.408c0-0.807,0.117-1.529,0.352-2.167c0.235-0.638,0.571-1.184,1.009-1.637
				s0.95-0.799,1.538-1.036s1.215-0.355,1.88-0.355c0.812,0,1.533,0.162,2.167,0.485s1.119,0.724,1.456,1.2s0.506,0.926,0.506,1.35
				c0,0.232-0.082,0.438-0.246,0.615s-0.362,0.267-0.595,0.267c-0.26,0-0.455-0.062-0.584-0.185
				c-0.131-0.123-0.275-0.335-0.435-0.636c-0.265-0.497-0.575-0.868-0.933-1.114c-0.358-0.246-0.799-0.369-1.323-0.369
				c-0.834,0-1.498,0.317-1.993,0.95c-0.494,0.633-0.741,1.534-0.741,2.7c0,0.779,0.109,1.428,0.328,1.945
				c0.219,0.517,0.528,0.902,0.93,1.158s0.87,0.383,1.408,0.383c0.583,0,1.077-0.145,1.479-0.434
				c0.404-0.29,0.708-0.715,0.913-1.275c0.087-0.264,0.193-0.479,0.321-0.646c0.128-0.166,0.333-0.249,0.615-0.249
				c0.241,0,0.449,0.085,0.622,0.253S54.435,72.302,54.435,72.552z"/>
			<path class="st17" d="M63.875,72.709c0,0.606-0.156,1.151-0.469,1.634c-0.312,0.482-0.769,0.861-1.37,1.135
				s-1.314,0.41-2.14,0.41c-0.989,0-1.805-0.188-2.447-0.561c-0.456-0.27-0.826-0.628-1.111-1.076
				c-0.284-0.449-0.427-0.886-0.427-1.31c0-0.246,0.085-0.457,0.257-0.632c0.17-0.176,0.388-0.264,0.652-0.264
				c0.214,0,0.396,0.068,0.543,0.205c0.148,0.137,0.275,0.34,0.38,0.608c0.128,0.319,0.266,0.585,0.413,0.8
				c0.148,0.215,0.357,0.391,0.626,0.529c0.269,0.14,0.622,0.209,1.06,0.209c0.602,0,1.09-0.141,1.467-0.42
				c0.375-0.281,0.563-0.631,0.563-1.05c0-0.333-0.102-0.603-0.304-0.81c-0.203-0.208-0.465-0.366-0.787-0.476
				c-0.32-0.109-0.75-0.226-1.288-0.349c-0.72-0.168-1.323-0.365-1.808-0.592c-0.486-0.225-0.871-0.533-1.156-0.922
				c-0.284-0.391-0.427-0.875-0.427-1.453c0-0.551,0.15-1.042,0.451-1.47s0.736-0.758,1.306-0.988s1.239-0.345,2.01-0.345
				c0.615,0,1.147,0.076,1.596,0.229c0.449,0.153,0.822,0.355,1.118,0.608s0.513,0.519,0.649,0.796s0.205,0.549,0.205,0.813
				c0,0.242-0.086,0.459-0.256,0.653c-0.172,0.194-0.385,0.291-0.64,0.291c-0.232,0-0.409-0.058-0.53-0.174
				c-0.12-0.116-0.251-0.307-0.393-0.571c-0.183-0.378-0.401-0.673-0.656-0.885s-0.665-0.318-1.23-0.318
				c-0.524,0-0.947,0.115-1.268,0.345c-0.322,0.23-0.482,0.507-0.482,0.831c0,0.201,0.055,0.374,0.164,0.52s0.26,0.271,0.451,0.376
				s0.385,0.187,0.581,0.246c0.196,0.059,0.52,0.146,0.971,0.26c0.565,0.133,1.077,0.277,1.534,0.438
				c0.459,0.16,0.848,0.354,1.17,0.581c0.32,0.228,0.571,0.517,0.752,0.864C63.785,71.777,63.875,72.204,63.875,72.709z"/>
		</g>
	</g>
</g>
</svg>
