<?xml version="1.0" encoding="utf-8"?>
<!-- Generator: Adobe Illustrator 16.0.0, SVG Export Plug-In . SVG Version: 6.00 Build 0)  -->
<!DOCTYPE svg PUBLIC "-//W3C//DTD SVG 1.1//EN" "http://www.w3.org/Graphics/SVG/1.1/DTD/svg11.dtd">
<svg version="1.1" id="Layer_1" xmlns="http://www.w3.org/2000/svg" xmlns:xlink="http://www.w3.org/1999/xlink" x="0px" y="0px"
	 width="136.602px" height="135.696px" viewBox="0 0 136.602 135.696" enable-background="new 0 0 136.602 135.696"
	 xml:space="preserve">
<g>
	<g>
		<circle fill="#D7DABA" cx="68.301" cy="67.849" r="63.333"/>
	</g>
	<g>
		<g>
			<g>
				<path fill="#0E7DC1" d="M43.564,29.587c-2.358,0-4.271,1.912-4.271,4.271v68.352c0,2.359,1.913,4.271,4.271,4.271h49.128
					c2.359,0,4.271-1.912,4.271-4.271V49.37L76.372,29.587H43.564z"/>
			</g>
		</g>
		<path fill="#2C9DD8" d="M96.964,49.37h-16.32c-2.359,0-4.271-1.912-4.271-4.271V29.587L96.964,49.37z"/>
		<path fill="#2C9DD8" d="M75.521,77.153c0,2.723-2.207,4.93-4.929,4.93H34.606c-2.723,0-4.929-2.207-4.929-4.93V62.093
			c0-2.723,2.206-4.929,4.929-4.929h35.985c2.722,0,4.929,2.206,4.929,4.929V77.153z"/>
		<g>
			<path fill="#FFFFFF" d="M42.167,73.637l-1.606-6.385v6.918c0,0.383-0.086,0.67-0.256,0.861c-0.172,0.191-0.398,0.287-0.681,0.287
				c-0.273,0-0.497-0.095-0.67-0.284s-0.26-0.478-0.26-0.865v-7.93c0-0.438,0.114-0.732,0.342-0.885s0.535-0.229,0.923-0.229h0.629
				c0.378,0,0.652,0.034,0.824,0.103c0.17,0.068,0.297,0.191,0.379,0.369s0.176,0.467,0.28,0.868l1.456,5.489l1.456-5.489
				c0.104-0.401,0.198-0.69,0.28-0.868s0.209-0.301,0.379-0.369c0.172-0.068,0.446-0.103,0.824-0.103h0.629
				c0.388,0,0.695,0.076,0.923,0.229s0.342,0.448,0.342,0.885v7.93c0,0.383-0.085,0.67-0.257,0.861
				c-0.17,0.191-0.399,0.287-0.687,0.287c-0.269,0-0.49-0.096-0.663-0.287s-0.26-0.479-0.26-0.861v-6.918l-1.606,6.385
				c-0.104,0.415-0.19,0.719-0.257,0.913c-0.065,0.194-0.188,0.37-0.365,0.53s-0.424,0.239-0.738,0.239
				c-0.237,0-0.438-0.051-0.602-0.154s-0.292-0.233-0.383-0.393s-0.163-0.336-0.215-0.53C42.275,74.048,42.222,73.847,42.167,73.637
				z"/>
			<path fill="#FFFFFF" d="M54.335,71.245h-1.859v2.837c0,0.406-0.096,0.713-0.287,0.923s-0.433,0.314-0.725,0.314
				c-0.306,0-0.552-0.104-0.738-0.311s-0.28-0.512-0.28-0.913v-7.725c0-0.447,0.103-0.766,0.308-0.957s0.531-0.287,0.978-0.287
				h2.604c0.771,0,1.362,0.059,1.777,0.178c0.41,0.114,0.765,0.303,1.063,0.567c0.298,0.264,0.524,0.588,0.68,0.971
				s0.232,0.813,0.232,1.292c0,1.021-0.314,1.794-0.943,2.321S55.579,71.245,54.335,71.245z M53.843,66.651h-1.367v3.063h1.367
				c0.479,0,0.878-0.05,1.2-0.15c0.32-0.1,0.565-0.264,0.734-0.492s0.253-0.526,0.253-0.896c0-0.442-0.13-0.802-0.39-1.08
				C55.349,66.799,54.75,66.651,53.843,66.651z"/>
			<path fill="#FFFFFF" d="M62.524,69.098c0.419,0,0.78-0.123,1.083-0.369c0.304-0.246,0.455-0.599,0.455-1.06
				c0-0.351-0.121-0.653-0.362-0.906s-0.567-0.379-0.978-0.379c-0.278,0-0.507,0.039-0.688,0.116
				c-0.18,0.078-0.322,0.18-0.427,0.308S61.404,67.1,61.311,67.3c-0.093,0.201-0.179,0.39-0.256,0.567
				c-0.046,0.096-0.128,0.171-0.246,0.226s-0.255,0.082-0.41,0.082c-0.183,0-0.35-0.074-0.502-0.222
				c-0.153-0.148-0.229-0.345-0.229-0.591c0-0.237,0.071-0.486,0.216-0.749c0.143-0.262,0.353-0.512,0.629-0.749
				c0.275-0.237,0.618-0.427,1.028-0.571s0.868-0.215,1.374-0.215c0.442,0,0.846,0.061,1.21,0.181s0.682,0.295,0.95,0.523
				s0.472,0.492,0.608,0.793s0.205,0.625,0.205,0.971c0,0.456-0.099,0.847-0.298,1.172c-0.197,0.326-0.481,0.644-0.851,0.954
				c0.355,0.191,0.655,0.41,0.899,0.656c0.243,0.246,0.427,0.519,0.55,0.817s0.185,0.621,0.185,0.967
				c0,0.415-0.083,0.816-0.25,1.203c-0.166,0.387-0.411,0.732-0.734,1.036s-0.707,0.54-1.152,0.711
				c-0.443,0.171-0.935,0.256-1.473,0.256c-0.547,0-1.037-0.098-1.47-0.294s-0.79-0.441-1.069-0.735
				c-0.281-0.294-0.492-0.598-0.637-0.913c-0.143-0.314-0.215-0.574-0.215-0.779c0-0.264,0.086-0.478,0.256-0.639
				c0.172-0.162,0.385-0.243,0.64-0.243c0.128,0,0.251,0.038,0.369,0.113s0.196,0.165,0.232,0.27
				c0.237,0.633,0.491,1.104,0.763,1.412c0.271,0.308,0.652,0.461,1.145,0.461c0.282,0,0.555-0.069,0.816-0.208
				c0.263-0.139,0.479-0.345,0.65-0.619c0.17-0.273,0.256-0.59,0.256-0.95c0-0.533-0.146-0.951-0.438-1.254
				s-0.697-0.455-1.217-0.455c-0.091,0-0.232,0.009-0.424,0.027s-0.314,0.027-0.369,0.027c-0.251,0-0.444-0.063-0.581-0.188
				s-0.205-0.3-0.205-0.523c0-0.219,0.082-0.396,0.246-0.53s0.408-0.202,0.731-0.202H62.524z"/>
		</g>
	</g>
</g>
</svg>
