<?xml version="1.0" encoding="utf-8"?>
<!-- Generator: Adobe Illustrator 16.0.0, SVG Export Plug-In . SVG Version: 6.00 Build 0)  -->
<!DOCTYPE svg PUBLIC "-//W3C//DTD SVG 1.1//EN" "http://www.w3.org/Graphics/SVG/1.1/DTD/svg11.dtd">
<svg version="1.1" id="Layer_1" xmlns="http://www.w3.org/2000/svg" xmlns:xlink="http://www.w3.org/1999/xlink" x="0px" y="0px"
	 width="136.913px" height="136.914px" viewBox="0 0 136.913 136.914" enable-background="new 0 0 136.913 136.914"
	 xml:space="preserve">
<g>
	<g>
		<circle fill="#D7DABA" cx="68.457" cy="68.457" r="63.333"/>
	</g>
	<g>
		<g>
			<path fill="#F37C2A" d="M43.72,30.195c-2.357,0-4.271,1.913-4.271,4.272v68.351c0,2.359,1.914,4.271,4.271,4.271h49.129
				c2.359,0,4.271-1.912,4.271-4.271v-52.84L76.528,30.195H43.72z"/>
		</g>
		<path fill="#DC6326" d="M97.12,49.979H80.8c-2.359,0-4.271-1.912-4.271-4.271V30.195L97.12,49.979z"/>
		<path fill="#DC6326" d="M75.677,77.762c0,2.723-2.207,4.93-4.93,4.93H34.763c-2.723,0-4.93-2.207-4.93-4.93v-15.06
			c0-2.723,2.207-4.929,4.93-4.929h35.984c2.723,0,4.93,2.206,4.93,4.929V77.762z"/>
		<g>
			<path fill="#FFFFFF" d="M45.592,67.411h-2.215v7.28c0,0.419-0.094,0.73-0.28,0.933s-0.429,0.304-0.725,0.304
				c-0.301,0-0.546-0.103-0.734-0.308c-0.189-0.205-0.284-0.515-0.284-0.93v-7.28h-2.215c-0.347,0-0.604-0.076-0.772-0.229
				s-0.253-0.354-0.253-0.605c0-0.26,0.088-0.465,0.263-0.615c0.176-0.15,0.43-0.226,0.763-0.226h6.453
				c0.351,0,0.612,0.078,0.782,0.232c0.172,0.155,0.257,0.358,0.257,0.608s-0.087,0.452-0.26,0.605S45.938,67.411,45.592,67.411z"/>
			<path fill="#FFFFFF" d="M56.639,71.683v1.921c0,0.255-0.025,0.459-0.075,0.612s-0.143,0.291-0.277,0.414
				c-0.134,0.123-0.306,0.242-0.516,0.355c-0.606,0.328-1.189,0.567-1.75,0.718s-1.171,0.226-1.832,0.226
				c-0.771,0-1.472-0.119-2.105-0.355s-1.174-0.581-1.62-1.032s-0.79-0.998-1.028-1.641c-0.24-0.643-0.359-1.36-0.359-2.153
				c0-0.779,0.116-1.493,0.349-2.14s0.574-1.196,1.025-1.647s1-0.796,1.647-1.036s1.381-0.359,2.201-0.359
				c0.675,0,1.271,0.09,1.791,0.27s0.941,0.407,1.265,0.68s0.567,0.563,0.731,0.868s0.246,0.577,0.246,0.813
				c0,0.255-0.095,0.473-0.283,0.653c-0.189,0.18-0.416,0.27-0.681,0.27c-0.146,0-0.286-0.034-0.421-0.103
				c-0.134-0.068-0.247-0.164-0.338-0.287c-0.251-0.392-0.463-0.688-0.636-0.889s-0.407-0.369-0.7-0.506
				c-0.295-0.137-0.669-0.205-1.125-0.205c-0.47,0-0.889,0.081-1.258,0.243s-0.685,0.396-0.947,0.704
				c-0.262,0.308-0.462,0.685-0.602,1.131c-0.139,0.447-0.208,0.941-0.208,1.483c0,1.176,0.271,2.081,0.81,2.714
				c0.541,0.633,1.294,0.95,2.26,0.95c0.47,0,0.91-0.062,1.322-0.185c0.413-0.123,0.831-0.298,1.255-0.526v-1.627h-1.572
				c-0.378,0-0.664-0.057-0.858-0.171c-0.193-0.114-0.29-0.308-0.29-0.581c0-0.223,0.081-0.408,0.243-0.554
				c0.161-0.146,0.381-0.219,0.659-0.219h2.304c0.282,0,0.521,0.025,0.718,0.075s0.354,0.162,0.476,0.335
				C56.578,71.077,56.639,71.337,56.639,71.683z"/>
			<path fill="#FFFFFF" d="M64.452,74.623l-0.479-1.258h-4.074l-0.479,1.285c-0.187,0.501-0.347,0.84-0.479,1.015
				s-0.349,0.263-0.649,0.263c-0.255,0-0.48-0.093-0.677-0.28s-0.294-0.399-0.294-0.636c0-0.137,0.022-0.278,0.068-0.424
				s0.121-0.349,0.226-0.608l2.563-6.508c0.073-0.187,0.161-0.411,0.263-0.673c0.104-0.262,0.213-0.479,0.328-0.653
				c0.117-0.173,0.27-0.313,0.459-0.42c0.188-0.107,0.422-0.161,0.7-0.161c0.282,0,0.519,0.054,0.708,0.161
				c0.188,0.107,0.342,0.245,0.457,0.414c0.117,0.168,0.215,0.35,0.295,0.543c0.079,0.194,0.181,0.452,0.304,0.776l2.618,6.467
				c0.205,0.492,0.308,0.85,0.308,1.073c0,0.232-0.097,0.445-0.29,0.639c-0.194,0.194-0.428,0.291-0.701,0.291
				c-0.159,0-0.296-0.028-0.41-0.085s-0.21-0.134-0.287-0.232s-0.16-0.249-0.25-0.451C64.593,74.957,64.516,74.777,64.452,74.623z
				 M60.433,71.84h2.994l-1.511-4.136L60.433,71.84z"/>
		</g>
	</g>
</g>
</svg>
