<?xml version="1.0" encoding="utf-8"?>
<!-- Generator: Adobe Illustrator 16.0.0, SVG Export Plug-In . SVG Version: 6.00 Build 0)  -->
<!DOCTYPE svg PUBLIC "-//W3C//DTD SVG 1.1//EN" "http://www.w3.org/Graphics/SVG/1.1/DTD/svg11.dtd">
<svg version="1.1" id="Layer_1" xmlns="http://www.w3.org/2000/svg" xmlns:xlink="http://www.w3.org/1999/xlink" x="0px" y="0px"
	 width="136.602px" height="135.696px" viewBox="0 0 136.602 135.696" enable-background="new 0 0 136.602 135.696"
	 xml:space="preserve">
<g>
	<g>
		<circle fill="#D7DABA" cx="68.301" cy="67.848" r="63.333"/>
	</g>
	<g>
		<g>
			<path fill="#4ABC96" d="M43.564,29.586c-2.358,0-4.271,1.913-4.271,4.272v68.351c0,2.359,1.913,4.271,4.271,4.271h49.128
				c2.359,0,4.271-1.912,4.271-4.271v-52.84L76.372,29.586H43.564z"/>
		</g>
		<path fill="#41A884" d="M96.964,49.369h-16.32c-2.359,0-4.271-1.912-4.271-4.271V29.586L96.964,49.369z"/>
		<path fill="#41A884" d="M75.521,77.152c0,2.723-2.207,4.93-4.929,4.93H34.606c-2.723,0-4.929-2.207-4.929-4.93v-15.06
			c0-2.723,2.206-4.929,4.929-4.929h35.985c2.722,0,4.929,2.206,4.929,4.929V77.152z"/>
		<g>
			<path fill="#FFFFFF" d="M45.041,66.186v5.25c0,0.456-0.02,0.843-0.059,1.162c-0.038,0.319-0.126,0.643-0.263,0.971
				c-0.228,0.551-0.604,0.981-1.128,1.289s-1.162,0.461-1.914,0.461c-0.679,0-1.245-0.107-1.699-0.321
				c-0.453-0.214-0.818-0.561-1.097-1.039c-0.146-0.255-0.265-0.549-0.355-0.882s-0.137-0.649-0.137-0.95
				c0-0.319,0.089-0.563,0.267-0.731s0.405-0.253,0.684-0.253c0.269,0,0.472,0.078,0.608,0.232s0.241,0.396,0.314,0.725
				c0.077,0.351,0.155,0.631,0.232,0.841s0.207,0.39,0.39,0.54s0.442,0.226,0.779,0.226c0.897,0,1.347-0.659,1.347-1.976v-5.544
				c0-0.41,0.09-0.718,0.271-0.923c0.18-0.205,0.425-0.308,0.734-0.308c0.314,0,0.564,0.103,0.748,0.308
				C44.949,65.468,45.041,65.776,45.041,66.186z"/>
			<path fill="#FFFFFF" d="M51.132,71.245h-1.859v2.837c0,0.406-0.096,0.713-0.287,0.923s-0.433,0.314-0.725,0.314
				c-0.306,0-0.552-0.104-0.738-0.311s-0.28-0.512-0.28-0.913v-7.725c0-0.447,0.103-0.766,0.308-0.957s0.531-0.287,0.978-0.287
				h2.604c0.771,0,1.362,0.059,1.777,0.178c0.41,0.114,0.765,0.303,1.063,0.567c0.298,0.264,0.524,0.588,0.68,0.971
				s0.232,0.813,0.232,1.292c0,1.021-0.314,1.794-0.943,2.321S52.376,71.245,51.132,71.245z M50.64,66.651h-1.367v3.063h1.367
				c0.479,0,0.878-0.05,1.2-0.15c0.32-0.1,0.565-0.264,0.734-0.492s0.253-0.526,0.253-0.896c0-0.442-0.13-0.802-0.39-1.08
				C52.146,66.799,51.547,66.651,50.64,66.651z"/>
			<path fill="#FFFFFF" d="M65.733,71.074v1.921c0,0.255-0.025,0.459-0.075,0.612s-0.143,0.291-0.277,0.414
				c-0.134,0.123-0.306,0.242-0.516,0.355c-0.606,0.328-1.189,0.567-1.75,0.718s-1.171,0.226-1.832,0.226
				c-0.771,0-1.472-0.119-2.105-0.355s-1.174-0.581-1.62-1.032s-0.79-0.998-1.028-1.641c-0.24-0.643-0.359-1.36-0.359-2.153
				c0-0.779,0.116-1.493,0.349-2.14s0.574-1.196,1.025-1.647s1-0.796,1.647-1.036s1.381-0.359,2.201-0.359
				c0.675,0,1.271,0.09,1.791,0.27s0.941,0.407,1.265,0.68s0.567,0.563,0.731,0.868s0.246,0.577,0.246,0.813
				c0,0.255-0.095,0.473-0.283,0.653c-0.189,0.18-0.416,0.27-0.681,0.27c-0.146,0-0.286-0.034-0.421-0.103
				c-0.134-0.068-0.247-0.164-0.338-0.287c-0.251-0.392-0.463-0.688-0.636-0.889s-0.407-0.369-0.7-0.506
				c-0.295-0.137-0.669-0.205-1.125-0.205c-0.47,0-0.889,0.081-1.258,0.243s-0.685,0.396-0.947,0.704
				c-0.262,0.308-0.462,0.685-0.602,1.131c-0.139,0.447-0.208,0.941-0.208,1.483c0,1.176,0.271,2.081,0.81,2.714
				c0.541,0.633,1.294,0.95,2.26,0.95c0.47,0,0.91-0.062,1.322-0.185c0.413-0.123,0.831-0.298,1.255-0.526v-1.627h-1.572
				c-0.378,0-0.664-0.057-0.858-0.171c-0.193-0.114-0.29-0.308-0.29-0.581c0-0.223,0.081-0.408,0.243-0.554
				c0.161-0.146,0.381-0.219,0.659-0.219h2.304c0.282,0,0.521,0.025,0.718,0.075s0.354,0.162,0.476,0.335
				C65.673,70.468,65.733,70.728,65.733,71.074z"/>
		</g>
	</g>
</g>
</svg>
