<?xml version="1.0" encoding="utf-8"?>
<!-- Generator: Adobe Illustrator 16.0.0, SVG Export Plug-In . SVG Version: 6.00 Build 0)  -->
<!DOCTYPE svg PUBLIC "-//W3C//DTD SVG 1.1//EN" "http://www.w3.org/Graphics/SVG/1.1/DTD/svg11.dtd">
<svg version="1.1" id="Layer_1" xmlns="http://www.w3.org/2000/svg" xmlns:xlink="http://www.w3.org/1999/xlink" x="0px" y="0px"
	 width="136.914px" height="136.914px" viewBox="0 0 136.914 136.914" enable-background="new 0 0 136.914 136.914"
	 xml:space="preserve">
<g>
	<g>
		<circle fill="#D7DABA" cx="68.457" cy="68.458" r="63.333"/>
	</g>
	<g>
		<g>
			<g>
				<path fill="#CDA54B" d="M43.72,30.196c-2.358,0-4.271,1.912-4.271,4.271v68.351c0,2.359,1.913,4.272,4.271,4.272h49.128
					c2.359,0,4.271-1.913,4.271-4.272V49.979L76.528,30.196H43.72z"/>
			</g>
		</g>
		<path fill="#AF8A3E" d="M97.12,49.979h-16.32c-2.359,0-4.271-1.913-4.271-4.272V30.196L97.12,49.979z"/>
		<path fill="#AF8A3E" d="M75.676,77.762c0,2.723-2.207,4.93-4.929,4.93H34.762c-2.723,0-4.929-2.207-4.929-4.93v-15.06
			c0-2.723,2.206-4.93,4.929-4.93h35.985c2.722,0,4.929,2.207,4.929,4.93V77.762z"/>
		<g>
			<path fill="#FFFFFF" d="M45.838,67.41h-2.215v7.28c0,0.419-0.094,0.73-0.28,0.933s-0.429,0.304-0.725,0.304
				c-0.301,0-0.546-0.103-0.734-0.308c-0.189-0.205-0.284-0.515-0.284-0.93v-7.28h-2.215c-0.347,0-0.604-0.076-0.772-0.229
				s-0.253-0.354-0.253-0.605c0-0.26,0.088-0.465,0.263-0.615c0.176-0.15,0.43-0.226,0.763-0.226h6.453
				c0.351,0,0.612,0.078,0.782,0.232c0.172,0.155,0.257,0.358,0.257,0.608s-0.087,0.452-0.26,0.605S46.185,67.41,45.838,67.41z"/>
			<path fill="#FFFFFF" d="M56.885,71.683v1.921c0,0.255-0.025,0.459-0.075,0.612s-0.143,0.291-0.277,0.414
				c-0.134,0.123-0.306,0.242-0.516,0.355c-0.606,0.328-1.189,0.567-1.75,0.718s-1.171,0.226-1.832,0.226
				c-0.771,0-1.472-0.119-2.105-0.355s-1.174-0.581-1.62-1.032s-0.79-0.998-1.028-1.641c-0.24-0.643-0.359-1.36-0.359-2.153
				c0-0.779,0.116-1.493,0.349-2.14s0.574-1.196,1.025-1.647s1-0.796,1.647-1.036s1.381-0.359,2.201-0.359
				c0.675,0,1.271,0.09,1.791,0.27s0.941,0.407,1.265,0.68s0.567,0.563,0.731,0.868s0.246,0.577,0.246,0.813
				c0,0.255-0.095,0.473-0.283,0.653c-0.189,0.18-0.416,0.27-0.681,0.27c-0.146,0-0.286-0.034-0.421-0.103
				c-0.134-0.068-0.247-0.164-0.338-0.287c-0.251-0.392-0.463-0.688-0.636-0.889s-0.407-0.369-0.7-0.506
				c-0.295-0.137-0.669-0.205-1.125-0.205c-0.47,0-0.889,0.081-1.258,0.243s-0.685,0.396-0.947,0.704
				c-0.262,0.308-0.462,0.685-0.602,1.131c-0.139,0.447-0.208,0.941-0.208,1.483c0,1.176,0.271,2.081,0.81,2.714
				c0.541,0.633,1.294,0.95,2.26,0.95c0.47,0,0.91-0.062,1.322-0.185c0.413-0.123,0.831-0.298,1.255-0.526v-1.627h-1.572
				c-0.378,0-0.664-0.057-0.858-0.171c-0.193-0.114-0.29-0.308-0.29-0.581c0-0.223,0.081-0.408,0.243-0.554
				c0.161-0.146,0.381-0.219,0.659-0.219h2.304c0.282,0,0.521,0.025,0.718,0.075s0.354,0.162,0.476,0.335
				C56.825,71.077,56.885,71.336,56.885,71.683z"/>
			<path fill="#FFFFFF" d="M58.553,73.419l5.147-6.159h-4.423c-0.31,0-0.544-0.068-0.7-0.205c-0.158-0.137-0.236-0.317-0.236-0.54
				c0-0.232,0.078-0.42,0.236-0.564c0.156-0.144,0.391-0.215,0.7-0.215h5.701c0.738,0,1.107,0.344,1.107,1.032
				c0,0.328-0.062,0.59-0.185,0.786s-0.371,0.513-0.745,0.95l-4.813,5.729h5.305c0.314,0,0.549,0.065,0.704,0.195
				s0.232,0.311,0.232,0.543c0,0.242-0.077,0.433-0.232,0.574s-0.39,0.212-0.704,0.212h-6.508c-0.442,0-0.774-0.099-0.998-0.297
				s-0.335-0.464-0.335-0.796c0-0.114,0.019-0.219,0.055-0.314s0.086-0.186,0.146-0.27c0.063-0.084,0.147-0.191,0.257-0.321
				S58.471,73.515,58.553,73.419z"/>
		</g>
	</g>
</g>
</svg>
