<?xml version="1.0" encoding="utf-8"?>
<!-- Generator: Adobe Illustrator 16.0.0, SVG Export Plug-In . SVG Version: 6.00 Build 0)  -->
<!DOCTYPE svg PUBLIC "-//W3C//DTD SVG 1.1//EN" "http://www.w3.org/Graphics/SVG/1.1/DTD/svg11.dtd">
<svg version="1.1" id="Layer_1" xmlns="http://www.w3.org/2000/svg" xmlns:xlink="http://www.w3.org/1999/xlink" x="0px" y="0px"
	 width="136.833px" height="136.833px" viewBox="0 0 136.833 136.833" style="enable-background:new 0 0 136.833 136.833;"
	 xml:space="preserve">
<style type="text/css">
<![CDATA[
	.st0{fill:#7A6F64;}
	.st1{fill:#7D9D3E;}
	.st2{fill:#ACC337;}
	.st3{fill:#E23A37;}
	.st4{fill:#E37A26;}
	.st5{fill:#163749;}
	.st6{fill:#4A6C96;}
	.st7{fill:#E88524;}
	.st8{fill:#B56027;}
	.st9{fill:#88A0D2;}
	.st10{fill:#517AA6;}
	.st11{fill:#588DBF;}
	.st12{fill:#59337F;}
	.st13{fill:#8D964E;}
	.st14{fill:#8F8376;}
	.st15{fill:#21455F;}
	.st16{fill:#BF2026;}
	.st17{fill:#F7981D;}
	.st18{fill:#2A4049;}
	.st19{fill:#96B33D;}
	.st20{fill:#C93332;}
	.st21{fill:#FFFFFF;}
	.st22{fill:#CA2027;}
	.st23{fill:#CB7429;}
	.st24{fill:#9DCB3B;}
	.st25{fill:#344E5D;}
	.st26{fill:#355670;}
	.st27{fill:#396183;}
	.st28{fill:#6DA0D5;}
	.st29{fill:#6E4095;}
	.st30{fill:#6F8BC6;}
	.st31{fill:#D06A28;}
	.st32{fill:#3C5B78;}
	.st33{fill:#D7DABA;}
	.st34{fill:#718839;}
	.st35{fill:#A1B13A;}
	.st36{fill:#73773D;}
	.st37{fill:#DA1F26;}
]]>
</style>
<g>
	<g>
		<circle class="st33" cx="68.417" cy="68.418" r="63.333"/>
	</g>
	<g>
		<g>
			<path class="st24" d="M43.681,30.156c-2.359,0-4.271,1.912-4.271,4.271v68.351c0,2.359,1.912,4.271,4.271,4.271h49.127
				c2.359,0,4.271-1.912,4.271-4.271V49.939L76.488,30.156H43.681z"/>
		</g>
		<path class="st19" d="M97.08,49.939h-16.32c-2.359,0-4.271-1.912-4.271-4.271V30.156L97.08,49.939z"/>
		<path class="st19" d="M75.636,77.722c0,2.723-2.207,4.93-4.928,4.93H34.722c-2.723,0-4.928-2.207-4.928-4.93v-15.06
			c0-2.723,2.205-4.93,4.928-4.93h35.986c2.721,0,4.928,2.207,4.928,4.93V77.722z"/>
		<g>
			<path class="st21" d="M36.103,73.769l2.242-3.274l-1.887-2.912c-0.178-0.283-0.311-0.525-0.4-0.728
				c-0.088-0.203-0.133-0.397-0.133-0.584c0-0.191,0.086-0.363,0.256-0.516c0.172-0.153,0.38-0.229,0.626-0.229
				c0.282,0,0.503,0.083,0.659,0.25c0.158,0.167,0.375,0.475,0.653,0.926l1.504,2.434l1.606-2.434
				c0.132-0.205,0.245-0.38,0.338-0.526c0.094-0.146,0.184-0.267,0.271-0.362s0.184-0.167,0.29-0.215
				c0.107-0.048,0.231-0.072,0.373-0.072c0.255,0,0.464,0.076,0.625,0.229c0.162,0.153,0.243,0.334,0.243,0.543
				c0,0.305-0.176,0.72-0.526,1.244l-1.976,2.953l2.126,3.274c0.191,0.287,0.33,0.525,0.417,0.715
				c0.087,0.188,0.13,0.367,0.13,0.536c0,0.159-0.039,0.306-0.116,0.438s-0.187,0.237-0.328,0.314s-0.301,0.116-0.479,0.116
				c-0.191,0-0.354-0.04-0.485-0.119c-0.132-0.08-0.239-0.18-0.321-0.298s-0.234-0.349-0.458-0.69l-1.764-2.775l-1.873,2.857
				c-0.146,0.229-0.25,0.387-0.311,0.479c-0.063,0.092-0.136,0.18-0.223,0.267s-0.189,0.155-0.308,0.205s-0.258,0.075-0.417,0.075
				c-0.246,0-0.45-0.075-0.611-0.226c-0.162-0.15-0.243-0.369-0.243-0.656C35.604,74.669,35.77,74.257,36.103,73.769z"/>
			<path class="st21" d="M46.917,66.755v7.294h4.115c0.328,0,0.58,0.079,0.756,0.239c0.175,0.16,0.263,0.359,0.263,0.602
				c0,0.246-0.087,0.445-0.26,0.598c-0.173,0.153-0.426,0.229-0.759,0.229h-4.901c-0.442,0-0.76-0.099-0.954-0.294
				c-0.193-0.195-0.29-0.513-0.29-0.95v-7.718c0-0.41,0.093-0.718,0.276-0.923c0.186-0.205,0.428-0.308,0.729-0.308
				c0.306,0,0.553,0.102,0.742,0.304C46.823,66.032,46.917,66.341,46.917,66.755z"/>
			<path class="st21" d="M60.466,72.709c0,0.606-0.156,1.151-0.469,1.634c-0.312,0.482-0.769,0.861-1.37,1.135
				s-1.314,0.41-2.14,0.41c-0.989,0-1.805-0.188-2.447-0.561c-0.456-0.27-0.826-0.628-1.111-1.076
				c-0.284-0.449-0.427-0.886-0.427-1.31c0-0.246,0.085-0.457,0.257-0.632c0.17-0.176,0.388-0.264,0.652-0.264
				c0.214,0,0.396,0.068,0.543,0.205c0.148,0.137,0.275,0.34,0.38,0.608c0.128,0.319,0.266,0.585,0.413,0.8
				c0.148,0.215,0.357,0.391,0.626,0.529c0.269,0.14,0.622,0.209,1.06,0.209c0.602,0,1.09-0.141,1.467-0.42
				c0.375-0.281,0.563-0.631,0.563-1.05c0-0.333-0.102-0.603-0.304-0.81c-0.203-0.208-0.465-0.366-0.787-0.476
				c-0.32-0.109-0.75-0.226-1.288-0.349c-0.72-0.168-1.323-0.365-1.808-0.592c-0.486-0.225-0.871-0.533-1.156-0.922
				c-0.284-0.391-0.427-0.875-0.427-1.453c0-0.551,0.15-1.042,0.451-1.47s0.736-0.758,1.306-0.988s1.239-0.345,2.01-0.345
				c0.615,0,1.147,0.076,1.596,0.229c0.449,0.153,0.822,0.355,1.118,0.608s0.513,0.519,0.649,0.796s0.205,0.549,0.205,0.813
				c0,0.242-0.086,0.459-0.256,0.653c-0.172,0.194-0.385,0.291-0.64,0.291c-0.232,0-0.409-0.058-0.53-0.174
				c-0.12-0.116-0.251-0.307-0.393-0.571c-0.183-0.378-0.401-0.673-0.656-0.885s-0.665-0.318-1.23-0.318
				c-0.524,0-0.947,0.115-1.268,0.345c-0.322,0.23-0.482,0.507-0.482,0.831c0,0.201,0.055,0.374,0.164,0.52s0.26,0.271,0.451,0.376
				s0.385,0.187,0.581,0.246c0.196,0.059,0.52,0.146,0.971,0.26c0.565,0.133,1.077,0.277,1.534,0.438
				c0.459,0.16,0.848,0.354,1.17,0.581c0.32,0.228,0.571,0.517,0.752,0.864C60.376,71.777,60.466,72.204,60.466,72.709z"/>
			<path class="st21" d="M61.82,73.769l2.242-3.274l-1.887-2.912c-0.178-0.283-0.311-0.525-0.4-0.728
				c-0.088-0.203-0.133-0.397-0.133-0.584c0-0.191,0.086-0.363,0.256-0.516c0.172-0.153,0.38-0.229,0.626-0.229
				c0.282,0,0.503,0.083,0.659,0.25c0.158,0.167,0.375,0.475,0.653,0.926l1.504,2.434l1.606-2.434
				c0.132-0.205,0.245-0.38,0.338-0.526c0.094-0.146,0.184-0.267,0.271-0.362s0.184-0.167,0.29-0.215
				c0.107-0.048,0.231-0.072,0.373-0.072c0.255,0,0.464,0.076,0.625,0.229c0.162,0.153,0.243,0.334,0.243,0.543
				c0,0.305-0.176,0.72-0.526,1.244l-1.976,2.953l2.126,3.274c0.191,0.287,0.33,0.525,0.417,0.715
				c0.087,0.188,0.13,0.367,0.13,0.536c0,0.159-0.039,0.306-0.116,0.438s-0.187,0.237-0.328,0.314s-0.301,0.116-0.479,0.116
				c-0.191,0-0.354-0.04-0.485-0.119c-0.132-0.08-0.239-0.18-0.321-0.298s-0.234-0.349-0.458-0.69l-1.764-2.775l-1.873,2.857
				c-0.146,0.229-0.25,0.387-0.311,0.479c-0.063,0.092-0.136,0.18-0.223,0.267s-0.189,0.155-0.308,0.205s-0.258,0.075-0.417,0.075
				c-0.246,0-0.45-0.075-0.611-0.226c-0.162-0.15-0.243-0.369-0.243-0.656C61.321,74.669,61.487,74.257,61.82,73.769z"/>
		</g>
	</g>
</g>
</svg>
