<?xml version="1.0" encoding="utf-8"?>
<!-- Generator: Adobe Illustrator 16.0.0, SVG Export Plug-In . SVG Version: 6.00 Build 0)  -->
<!DOCTYPE svg PUBLIC "-//W3C//DTD SVG 1.1//EN" "http://www.w3.org/Graphics/SVG/1.1/DTD/svg11.dtd">
<svg version="1.1" id="Layer_1" xmlns="http://www.w3.org/2000/svg" xmlns:xlink="http://www.w3.org/1999/xlink" x="0px" y="0px"
	 width="136.833px" height="136.834px" viewBox="0 0 136.833 136.834" style="enable-background:new 0 0 136.833 136.834;"
	 xml:space="preserve">
<style type="text/css">
<![CDATA[
	.st0{fill:#7A6F64;}
	.st1{fill:#7D9D3E;}
	.st2{fill:#ACC337;}
	.st3{fill:#E23A37;}
	.st4{fill:#E37A26;}
	.st5{fill:#163749;}
	.st6{fill:#4A6C96;}
	.st7{fill:#E88524;}
	.st8{fill:#B56027;}
	.st9{fill:#88A0D2;}
	.st10{fill:#517AA6;}
	.st11{fill:#588DBF;}
	.st12{fill:#59337F;}
	.st13{fill:#8D964E;}
	.st14{fill:#8F8376;}
	.st15{fill:#21455F;}
	.st16{fill:#BF2026;}
	.st17{fill:#F7981D;}
	.st18{fill:#2A4049;}
	.st19{fill:#96B33D;}
	.st20{fill:#C93332;}
	.st21{fill:#FFFFFF;}
	.st22{fill:#CA2027;}
	.st23{fill:#CB7429;}
	.st24{fill:#9DCB3B;}
	.st25{fill:#344E5D;}
	.st26{fill:#355670;}
	.st27{fill:#396183;}
	.st28{fill:#6DA0D5;}
	.st29{fill:#6E4095;}
	.st30{fill:#6F8BC6;}
	.st31{fill:#D06A28;}
	.st32{fill:#3C5B78;}
	.st33{fill:#D7DABA;}
	.st34{fill:#718839;}
	.st35{fill:#A1B13A;}
	.st36{fill:#73773D;}
	.st37{fill:#DA1F26;}
]]>
</style>
<g>
	<g>
		<circle class="st33" cx="68.417" cy="68.417" r="63.333"/>
	</g>
	<g>
		<g>
			<path class="st37" d="M43.68,30.156c-2.358,0-4.271,1.913-4.271,4.272v68.351c0,2.359,1.913,4.271,4.271,4.271h49.128
				c2.359,0,4.271-1.912,4.271-4.271v-52.84L76.488,30.156H43.68z"/>
		</g>
		<path class="st22" d="M97.08,49.939h-16.32c-2.359,0-4.271-1.913-4.271-4.272V30.156L97.08,49.939z"/>
		<path class="st16" d="M75.636,77.722c0,2.723-2.207,4.93-4.929,4.93H34.722c-2.723,0-4.929-2.207-4.929-4.93V62.662
			c0-2.723,2.206-4.929,4.929-4.929h35.985c2.722,0,4.929,2.206,4.929,4.929V77.722z"/>
		<g>
			<path class="st21" d="M43.368,71.814h-1.859v2.837c0,0.406-0.096,0.713-0.287,0.923s-0.433,0.314-0.725,0.314
				c-0.306,0-0.552-0.104-0.738-0.311s-0.28-0.512-0.28-0.913V66.94c0-0.447,0.103-0.766,0.308-0.957s0.531-0.287,0.978-0.287h2.604
				c0.771,0,1.362,0.059,1.777,0.178c0.41,0.114,0.765,0.303,1.063,0.567c0.298,0.264,0.524,0.588,0.68,0.971
				s0.232,0.813,0.232,1.292c0,1.021-0.314,1.794-0.943,2.321S44.612,71.814,43.368,71.814z M42.876,67.22h-1.367v3.063h1.367
				c0.479,0,0.878-0.05,1.2-0.15c0.32-0.1,0.565-0.264,0.734-0.492s0.253-0.526,0.253-0.896c0-0.442-0.13-0.802-0.39-1.08
				C44.382,67.368,43.783,67.22,42.876,67.22z"/>
			<path class="st21" d="M50.074,65.696h2.646c0.688,0,1.278,0.064,1.771,0.191s0.938,0.367,1.34,0.718
				c1.044,0.893,1.565,2.251,1.565,4.074c0,0.602-0.053,1.151-0.157,1.647s-0.267,0.944-0.485,1.343s-0.499,0.755-0.841,1.07
				c-0.269,0.242-0.563,0.435-0.882,0.581s-0.662,0.249-1.028,0.308c-0.367,0.059-0.781,0.089-1.241,0.089h-2.646
				c-0.369,0-0.647-0.056-0.834-0.167s-0.309-0.269-0.365-0.472c-0.058-0.203-0.086-0.466-0.086-0.79V66.94
				c0-0.438,0.098-0.754,0.294-0.95S49.637,65.696,50.074,65.696z M50.86,67.302v6.802h1.538c0.337,0,0.602-0.009,0.793-0.027
				s0.39-0.064,0.595-0.137s0.383-0.175,0.533-0.308c0.679-0.574,1.019-1.563,1.019-2.967c0-0.989-0.149-1.729-0.447-2.222
				c-0.299-0.492-0.667-0.806-1.104-0.94s-0.966-0.202-1.586-0.202H50.86z"/>
			<path class="st21" d="M65.168,67.261h-3.999v2.563h3.343c0.31,0,0.541,0.069,0.693,0.208c0.153,0.139,0.229,0.325,0.229,0.557
				s-0.077,0.417-0.232,0.554s-0.385,0.205-0.69,0.205h-3.343v3.302c0,0.419-0.095,0.73-0.284,0.933
				c-0.188,0.203-0.432,0.304-0.728,0.304c-0.301,0-0.546-0.103-0.735-0.308c-0.188-0.205-0.283-0.515-0.283-0.93V66.94
				c0-0.292,0.043-0.53,0.13-0.714s0.222-0.319,0.407-0.403c0.184-0.084,0.42-0.126,0.707-0.126h4.785
				c0.323,0,0.564,0.072,0.721,0.215c0.158,0.144,0.236,0.332,0.236,0.564c0,0.237-0.078,0.427-0.236,0.571
				C65.732,67.189,65.491,67.261,65.168,67.261z"/>
		</g>
	</g>
</g>
</svg>
