<?xml version="1.0" encoding="utf-8"?>
<!-- Generator: Adobe Illustrator 16.0.0, SVG Export Plug-In . SVG Version: 6.00 Build 0)  -->
<!DOCTYPE svg PUBLIC "-//W3C//DTD SVG 1.1//EN" "http://www.w3.org/Graphics/SVG/1.1/DTD/svg11.dtd">
<svg version="1.1" id="Layer_1" xmlns="http://www.w3.org/2000/svg" xmlns:xlink="http://www.w3.org/1999/xlink" x="0px" y="0px"
	 width="136.914px" height="136.914px" viewBox="0 0 136.914 136.914" enable-background="new 0 0 136.914 136.914"
	 xml:space="preserve">
<g>
	<g>
		<circle fill="#D7DABA" cx="68.457" cy="68.457" r="63.333"/>
	</g>
	<g>
		<g>
			<path fill="#344E5D" d="M43.72,30.195c-2.358,0-4.271,1.913-4.271,4.272v68.351c0,2.359,1.913,4.271,4.271,4.271h49.128
				c2.359,0,4.271-1.912,4.271-4.271v-52.84L76.528,30.195H43.72z"/>
		</g>
		<path fill="#283E49" d="M97.12,49.979h-16.32c-2.359,0-4.271-1.912-4.271-4.271V30.195L97.12,49.979z"/>
		<path fill="#283E49" d="M75.676,77.762c0,2.723-2.207,4.93-4.929,4.93H34.762c-2.723,0-4.929-2.207-4.929-4.93v-15.06
			c0-2.723,2.206-4.929,4.929-4.929h35.985c2.722,0,4.929,2.206,4.929,4.929V77.762z"/>
		<g>
			<path fill="#FFFFFF" d="M42.341,75.757h-3.063c-0.442,0-0.758-0.099-0.947-0.297c-0.188-0.198-0.283-0.514-0.283-0.947V66.98
				c0-0.442,0.097-0.76,0.291-0.954c0.193-0.194,0.507-0.291,0.939-0.291h3.247c0.479,0,0.894,0.03,1.244,0.089
				s0.665,0.173,0.943,0.342c0.237,0.141,0.446,0.32,0.629,0.537s0.321,0.456,0.417,0.718s0.144,0.539,0.144,0.831
				c0,1.002-0.501,1.736-1.504,2.201c1.317,0.419,1.976,1.235,1.976,2.447c0,0.561-0.144,1.065-0.431,1.514s-0.675,0.78-1.162,0.995
				c-0.306,0.127-0.656,0.218-1.053,0.27S42.87,75.757,42.341,75.757z M40.079,67.26v2.591h1.859c0.506,0,0.896-0.048,1.173-0.144
				c0.275-0.096,0.486-0.278,0.632-0.547c0.114-0.191,0.171-0.406,0.171-0.643c0-0.506-0.18-0.842-0.54-1.008
				s-0.909-0.25-1.647-0.25H40.079z M42.191,71.307h-2.112v2.926h2.181c1.372,0,2.058-0.495,2.058-1.483
				c0-0.506-0.178-0.873-0.533-1.101S42.897,71.307,42.191,71.307z"/>
			<path fill="#FFFFFF" d="M51.515,74.247l-1.606-6.385v6.918c0,0.383-0.085,0.67-0.257,0.861c-0.17,0.191-0.397,0.287-0.68,0.287
				c-0.273,0-0.497-0.095-0.67-0.284s-0.26-0.478-0.26-0.865v-7.93c0-0.438,0.114-0.732,0.342-0.885s0.535-0.229,0.923-0.229h0.629
				c0.378,0,0.653,0.034,0.823,0.103c0.172,0.068,0.298,0.191,0.38,0.369s0.176,0.467,0.28,0.868l1.456,5.489l1.456-5.489
				c0.104-0.401,0.198-0.69,0.28-0.868s0.208-0.301,0.38-0.369c0.17-0.068,0.445-0.103,0.823-0.103h0.629
				c0.388,0,0.695,0.076,0.923,0.229s0.342,0.448,0.342,0.885v7.93c0,0.383-0.086,0.67-0.256,0.861
				c-0.172,0.191-0.4,0.287-0.688,0.287c-0.269,0-0.49-0.096-0.663-0.287s-0.26-0.479-0.26-0.861v-6.918l-1.606,6.385
				c-0.104,0.415-0.19,0.719-0.256,0.913c-0.066,0.194-0.188,0.37-0.366,0.53s-0.424,0.239-0.738,0.239
				c-0.237,0-0.438-0.051-0.602-0.154s-0.292-0.233-0.383-0.393s-0.163-0.336-0.216-0.53C51.624,74.658,51.57,74.456,51.515,74.247z
				"/>
			<path fill="#FFFFFF" d="M63.683,71.854h-1.859v2.837c0,0.406-0.096,0.713-0.287,0.923s-0.433,0.314-0.725,0.314
				c-0.306,0-0.552-0.104-0.738-0.311s-0.28-0.512-0.28-0.913V66.98c0-0.447,0.103-0.766,0.308-0.957s0.531-0.287,0.978-0.287h2.604
				c0.771,0,1.362,0.059,1.777,0.178c0.41,0.114,0.765,0.303,1.063,0.567c0.299,0.264,0.525,0.588,0.681,0.971
				s0.232,0.813,0.232,1.292c0,1.021-0.314,1.794-0.943,2.321S64.927,71.854,63.683,71.854z M63.191,67.26h-1.367v3.063h1.367
				c0.479,0,0.879-0.05,1.199-0.15c0.322-0.1,0.566-0.264,0.735-0.492s0.253-0.526,0.253-0.896c0-0.442-0.13-0.802-0.39-1.08
				C64.697,67.408,64.098,67.26,63.191,67.26z"/>
		</g>
	</g>
</g>
</svg>
