<?xml version="1.0" encoding="utf-8"?>
<!-- Generator: Adobe Illustrator 16.0.0, SVG Export Plug-In . SVG Version: 6.00 Build 0)  -->
<!DOCTYPE svg PUBLIC "-//W3C//DTD SVG 1.1//EN" "http://www.w3.org/Graphics/SVG/1.1/DTD/svg11.dtd">
<svg version="1.1" id="Layer_1" xmlns="http://www.w3.org/2000/svg" xmlns:xlink="http://www.w3.org/1999/xlink" x="0px" y="0px"
	 width="136.833px" height="136.834px" viewBox="0 0 136.833 136.834" style="enable-background:new 0 0 136.833 136.834;"
	 xml:space="preserve">
<style type="text/css">
<![CDATA[
	.st0{fill:#7A6F64;}
	.st1{fill:#7D9D3E;}
	.st2{fill:#ACC337;}
	.st3{fill:#E23A37;}
	.st4{fill:#E37A26;}
	.st5{fill:#163749;}
	.st6{fill:#4A6C96;}
	.st7{fill:#E88524;}
	.st8{fill:#B56027;}
	.st9{fill:#88A0D2;}
	.st10{fill:#517AA6;}
	.st11{fill:#588DBF;}
	.st12{fill:#59337F;}
	.st13{fill:#8D964E;}
	.st14{fill:#8F8376;}
	.st15{fill:#21455F;}
	.st16{fill:#BF2026;}
	.st17{fill:#F7981D;}
	.st18{fill:#2A4049;}
	.st19{fill:#96B33D;}
	.st20{fill:#C93332;}
	.st21{fill:#FFFFFF;}
	.st22{fill:#CA2027;}
	.st23{fill:#CB7429;}
	.st24{fill:#9DCB3B;}
	.st25{fill:#344E5D;}
	.st26{fill:#355670;}
	.st27{fill:#396183;}
	.st28{fill:#6DA0D5;}
	.st29{fill:#6E4095;}
	.st30{fill:#6F8BC6;}
	.st31{fill:#D06A28;}
	.st32{fill:#3C5B78;}
	.st33{fill:#D7DABA;}
	.st34{fill:#718839;}
	.st35{fill:#A1B13A;}
	.st36{fill:#73773D;}
	.st37{fill:#DA1F26;}
]]>
</style>
<g>
	<g>
		<circle class="st33" cx="68.417" cy="68.417" r="63.333"/>
	</g>
	<g>
		<g>
			<path class="st14" d="M43.68,30.573c-2.358,0-4.271,1.913-4.271,4.272v68.351c0,2.359,1.913,4.271,4.271,4.271h49.128
				c2.359,0,4.271-1.912,4.271-4.271v-52.84L76.488,30.573H43.68z"/>
		</g>
		<path class="st0" d="M97.08,50.356h-16.32c-2.359,0-4.271-1.913-4.271-4.272V30.573L97.08,50.356z"/>
		<path class="st0" d="M75.636,78.139c0,2.723-2.207,4.93-4.929,4.93H34.722c-2.723,0-4.929-2.207-4.929-4.93V63.079
			c0-2.723,2.206-4.929,4.929-4.929h35.985c2.722,0,4.929,2.206,4.929,4.929V78.139z"/>
		<g>
			<path class="st21" d="M47.086,67.788h-2.215v7.28c0,0.419-0.094,0.73-0.28,0.933s-0.429,0.304-0.725,0.304
				c-0.301,0-0.546-0.103-0.735-0.308c-0.188-0.205-0.283-0.515-0.283-0.93v-7.28h-2.215c-0.347,0-0.604-0.076-0.772-0.229
				s-0.253-0.354-0.253-0.605c0-0.26,0.088-0.465,0.264-0.615c0.175-0.15,0.429-0.226,0.762-0.226h6.453
				c0.351,0,0.611,0.078,0.783,0.232c0.17,0.155,0.256,0.358,0.256,0.608s-0.087,0.452-0.26,0.605S47.433,67.788,47.086,67.788z"/>
			<path class="st21" d="M48.959,74.186l2.242-3.274L49.314,68c-0.178-0.283-0.311-0.525-0.4-0.728
				c-0.088-0.203-0.133-0.397-0.133-0.584c0-0.191,0.086-0.363,0.256-0.516c0.172-0.153,0.38-0.229,0.626-0.229
				c0.282,0,0.503,0.083,0.659,0.25c0.158,0.167,0.375,0.475,0.653,0.926l1.504,2.434l1.606-2.434
				c0.132-0.205,0.245-0.38,0.338-0.526c0.094-0.146,0.184-0.267,0.271-0.362s0.184-0.167,0.29-0.215
				c0.107-0.048,0.231-0.072,0.373-0.072c0.255,0,0.464,0.076,0.625,0.229c0.162,0.153,0.243,0.334,0.243,0.543
				c0,0.305-0.176,0.72-0.526,1.244l-1.976,2.953l2.126,3.274c0.191,0.287,0.33,0.525,0.417,0.714s0.13,0.368,0.13,0.537
				c0,0.16-0.039,0.305-0.116,0.438s-0.187,0.237-0.328,0.314s-0.301,0.116-0.479,0.116c-0.191,0-0.354-0.04-0.485-0.12
				s-0.239-0.179-0.321-0.297s-0.234-0.349-0.458-0.69l-1.764-2.775l-1.873,2.857c-0.146,0.228-0.25,0.387-0.311,0.479
				c-0.063,0.091-0.136,0.18-0.223,0.267s-0.189,0.155-0.308,0.205s-0.258,0.075-0.417,0.075c-0.246,0-0.45-0.075-0.611-0.226
				c-0.162-0.15-0.243-0.369-0.243-0.656C48.46,75.086,48.626,74.674,48.959,74.186z"/>
			<path class="st21" d="M64.292,67.788h-2.215v7.28c0,0.419-0.094,0.73-0.28,0.933s-0.429,0.304-0.725,0.304
				c-0.301,0-0.546-0.103-0.734-0.308c-0.189-0.205-0.284-0.515-0.284-0.93v-7.28h-2.215c-0.347,0-0.604-0.076-0.772-0.229
				s-0.253-0.354-0.253-0.605c0-0.26,0.088-0.465,0.263-0.615c0.176-0.15,0.43-0.226,0.763-0.226h6.453
				c0.351,0,0.612,0.078,0.782,0.232c0.172,0.155,0.257,0.358,0.257,0.608s-0.087,0.452-0.26,0.605S64.639,67.788,64.292,67.788z"/>
		</g>
	</g>
</g>
</svg>
