<?xml version="1.0" encoding="utf-8"?>
<!-- Generator: Adobe Illustrator 16.0.0, SVG Export Plug-In . SVG Version: 6.00 Build 0)  -->
<!DOCTYPE svg PUBLIC "-//W3C//DTD SVG 1.1//EN" "http://www.w3.org/Graphics/SVG/1.1/DTD/svg11.dtd">
<svg version="1.1" id="Layer_1" xmlns="http://www.w3.org/2000/svg" xmlns:xlink="http://www.w3.org/1999/xlink" x="0px" y="0px"
	 width="136.833px" height="136.834px" viewBox="0 0 136.833 136.834" style="enable-background:new 0 0 136.833 136.834;"
	 xml:space="preserve">
<style type="text/css">
<![CDATA[
	.st0{fill:#7B3A87;}
	.st1{fill:#7F1325;}
	.st2{fill:#E07325;}
	.st3{fill:#194680;}
	.st4{fill:#837C72;}
	.st5{fill:#B3BD35;}
	.st6{fill:#883637;}
	.st7{fill:#EDC92C;}
	.st8{fill:#EF8A21;}
	.st9{fill:#8B4097;}
	.st10{fill:#588DBF;}
	.st11{fill:#8E2852;}
	.st12{fill:#5B4F3F;}
	.st13{fill:#932B63;}
	.st14{fill:#C33F27;}
	.st15{fill:#C6CB2D;}
	.st16{fill:#C76428;}
	.st17{fill:#FFFFFF;}
	.st18{fill:#647131;}
	.st19{fill:#6D6254;}
	.st20{fill:#6DA0D5;}
	.st21{fill:#00599C;}
	.st22{fill:#D57927;}
	.st23{fill:#D7B528;}
	.st24{fill:#D7DABA;}
	.st25{fill:#D85026;}
	.st26{fill:#A11D2A;}
	.st27{fill:#A14443;}
	.st28{fill:#748838;}
	.st29{fill:#A53460;}
	.st30{fill:#A82E6C;}
]]>
</style>
<g>
	<g>
		<circle class="st24" cx="68.416" cy="68.417" r="63.333"/>
	</g>
	<g>
		<g>
			<g>
				<path class="st29" d="M43.681,30.156c-2.359,0-4.271,1.912-4.271,4.271v68.352c0,2.359,1.912,4.271,4.271,4.271h49.127
					c2.359,0,4.271-1.912,4.271-4.271v-52.84L76.487,30.156H43.681z"/>
			</g>
		</g>
		<path class="st11" d="M97.079,49.939h-16.32c-2.359,0-4.271-1.912-4.271-4.271V30.156L97.079,49.939z"/>
		<path class="st11" d="M75.636,77.722c0,2.723-2.207,4.93-4.928,4.93H34.722c-2.723,0-4.928-2.207-4.928-4.93V62.662
			c0-2.723,2.205-4.929,4.928-4.929h35.986c2.721,0,4.928,2.206,4.928,4.929V77.722z"/>
		<g>
			<path class="st17" d="M46.732,72.709c0,0.606-0.156,1.151-0.468,1.634c-0.313,0.483-0.77,0.861-1.371,1.135
				s-1.314,0.41-2.14,0.41c-0.989,0-1.805-0.187-2.447-0.561c-0.456-0.269-0.826-0.628-1.11-1.077
				c-0.285-0.449-0.428-0.885-0.428-1.309c0-0.246,0.086-0.457,0.256-0.632c0.172-0.175,0.389-0.263,0.653-0.263
				c0.214,0,0.396,0.068,0.544,0.205c0.147,0.137,0.274,0.339,0.379,0.608c0.128,0.319,0.266,0.585,0.414,0.8
				c0.147,0.214,0.356,0.391,0.625,0.53s0.622,0.208,1.06,0.208c0.602,0,1.091-0.14,1.466-0.42c0.377-0.28,0.564-0.63,0.564-1.049
				c0-0.333-0.102-0.603-0.305-0.81c-0.202-0.208-0.465-0.366-0.785-0.475c-0.322-0.109-0.751-0.226-1.289-0.349
				c-0.72-0.168-1.322-0.366-1.809-0.591c-0.484-0.226-0.87-0.533-1.154-0.923c-0.285-0.39-0.428-0.874-0.428-1.453
				c0-0.551,0.15-1.042,0.451-1.47s0.736-0.758,1.306-0.988s1.239-0.345,2.01-0.345c0.615,0,1.147,0.076,1.597,0.229
				c0.448,0.153,0.821,0.355,1.117,0.608s0.513,0.519,0.649,0.796s0.205,0.549,0.205,0.813c0,0.242-0.085,0.459-0.257,0.653
				c-0.17,0.194-0.384,0.291-0.639,0.291c-0.232,0-0.409-0.058-0.529-0.174c-0.121-0.116-0.252-0.307-0.394-0.571
				c-0.183-0.378-0.401-0.673-0.656-0.885s-0.665-0.318-1.23-0.318c-0.524,0-0.946,0.115-1.269,0.345
				c-0.32,0.23-0.481,0.507-0.481,0.831c0,0.201,0.055,0.374,0.164,0.52s0.26,0.271,0.451,0.376s0.385,0.187,0.581,0.246
				s0.52,0.146,0.971,0.26c0.565,0.132,1.076,0.278,1.535,0.438c0.457,0.16,0.848,0.353,1.168,0.581
				c0.322,0.228,0.572,0.516,0.752,0.865C46.643,71.776,46.732,72.204,46.732,72.709z"/>
			<path class="st17" d="M56.515,74.473c0.296,0.201,0.62,0.396,0.971,0.584s0.583,0.339,0.697,0.451s0.171,0.27,0.171,0.475
				c0,0.146-0.067,0.292-0.202,0.438c-0.134,0.146-0.297,0.219-0.488,0.219c-0.155,0-0.343-0.05-0.564-0.15
				c-0.221-0.1-0.48-0.246-0.779-0.438c-0.298-0.191-0.625-0.415-0.98-0.67c-0.661,0.337-1.472,0.506-2.434,0.506
				c-0.779,0-1.478-0.124-2.096-0.373c-0.617-0.249-1.136-0.606-1.555-1.073s-0.734-1.022-0.947-1.665
				c-0.211-0.643-0.317-1.342-0.317-2.099c0-0.77,0.11-1.477,0.331-2.119c0.222-0.643,0.542-1.189,0.961-1.641
				s0.93-0.796,1.531-1.036s1.285-0.359,2.051-0.359c1.039,0,1.932,0.211,2.676,0.632c0.746,0.421,1.31,1.021,1.692,1.798
				s0.574,1.689,0.574,2.738C57.807,72.283,57.376,73.543,56.515,74.473z M54.922,73.366c0.282-0.324,0.491-0.707,0.626-1.148
				c0.134-0.442,0.201-0.955,0.201-1.538c0-0.734-0.118-1.37-0.355-1.907s-0.575-0.944-1.016-1.22
				c-0.439-0.276-0.944-0.414-1.514-0.414c-0.405,0-0.78,0.076-1.125,0.229c-0.344,0.153-0.64,0.375-0.889,0.667
				c-0.248,0.292-0.443,0.664-0.588,1.118c-0.143,0.454-0.215,0.963-0.215,1.528c0,1.153,0.269,2.041,0.807,2.663
				s1.217,0.933,2.037,0.933c0.337,0,0.684-0.071,1.039-0.212c-0.214-0.16-0.482-0.319-0.803-0.479
				c-0.322-0.16-0.542-0.283-0.66-0.369s-0.178-0.209-0.178-0.369c0-0.137,0.057-0.257,0.171-0.362s0.239-0.157,0.376-0.157
				C53.252,72.327,53.946,72.673,54.922,73.366z"/>
			<path class="st17" d="M61.532,66.755v7.294h4.115c0.328,0,0.58,0.08,0.756,0.239c0.175,0.16,0.263,0.36,0.263,0.602
				c0,0.246-0.087,0.445-0.26,0.598s-0.426,0.229-0.759,0.229h-4.901c-0.442,0-0.76-0.098-0.954-0.294
				c-0.193-0.196-0.29-0.513-0.29-0.95v-7.718c0-0.41,0.093-0.718,0.276-0.923c0.186-0.205,0.428-0.308,0.729-0.308
				c0.306,0,0.553,0.102,0.742,0.304C61.438,66.032,61.532,66.341,61.532,66.755z"/>
		</g>
	</g>
</g>
</svg>
