<?xml version="1.0" encoding="utf-8"?>
<!-- Generator: Adobe Illustrator 16.0.0, SVG Export Plug-In . SVG Version: 6.00 Build 0)  -->
<!DOCTYPE svg PUBLIC "-//W3C//DTD SVG 1.1//EN" "http://www.w3.org/Graphics/SVG/1.1/DTD/svg11.dtd">
<svg version="1.1" id="Layer_1" xmlns="http://www.w3.org/2000/svg" xmlns:xlink="http://www.w3.org/1999/xlink" x="0px" y="0px"
	 width="136.833px" height="136.834px" viewBox="0 0 136.833 136.834" style="enable-background:new 0 0 136.833 136.834;"
	 xml:space="preserve">
<style type="text/css">
<![CDATA[
	.st0{fill:#7A6F64;}
	.st1{fill:#7D9D3E;}
	.st2{fill:#ACC337;}
	.st3{fill:#E23A37;}
	.st4{fill:#E37A26;}
	.st5{fill:#163749;}
	.st6{fill:#4A6C96;}
	.st7{fill:#E88524;}
	.st8{fill:#B56027;}
	.st9{fill:#88A0D2;}
	.st10{fill:#517AA6;}
	.st11{fill:#588DBF;}
	.st12{fill:#59337F;}
	.st13{fill:#8D964E;}
	.st14{fill:#8F8376;}
	.st15{fill:#21455F;}
	.st16{fill:#BF2026;}
	.st17{fill:#F7981D;}
	.st18{fill:#2A4049;}
	.st19{fill:#96B33D;}
	.st20{fill:#C93332;}
	.st21{fill:#FFFFFF;}
	.st22{fill:#CA2027;}
	.st23{fill:#CB7429;}
	.st24{fill:#9DCB3B;}
	.st25{fill:#344E5D;}
	.st26{fill:#355670;}
	.st27{fill:#396183;}
	.st28{fill:#6DA0D5;}
	.st29{fill:#6E4095;}
	.st30{fill:#6F8BC6;}
	.st31{fill:#D06A28;}
	.st32{fill:#3C5B78;}
	.st33{fill:#D7DABA;}
	.st34{fill:#718839;}
	.st35{fill:#A1B13A;}
	.st36{fill:#73773D;}
	.st37{fill:#DA1F26;}
]]>
</style>
<g>
	<g>
		<circle class="st33" cx="68.417" cy="68.417" r="63.333"/>
	</g>
	<g>
		<g>
			<path class="st6" d="M43.68,30.156c-2.358,0-4.271,1.913-4.271,4.272v68.351c0,2.359,1.913,4.271,4.271,4.271h49.128
				c2.359,0,4.271-1.912,4.271-4.271v-52.84L76.488,30.156H43.68z"/>
		</g>
		<path class="st32" d="M97.08,49.939h-16.32c-2.359,0-4.271-1.913-4.271-4.272V30.156L97.08,49.939z"/>
		<path class="st32" d="M75.636,77.722c0,2.723-2.207,4.93-4.929,4.93H34.722c-2.723,0-4.929-2.207-4.929-4.93V62.662
			c0-2.723,2.206-4.929,4.929-4.929h35.985c2.722,0,4.929,2.206,4.929,4.929V77.722z"/>
		<g>
			<path class="st21" d="M38.908,65.696h2.646c0.688,0,1.278,0.064,1.771,0.191s0.938,0.367,1.34,0.718
				c1.044,0.893,1.565,2.251,1.565,4.074c0,0.602-0.053,1.151-0.157,1.647s-0.267,0.944-0.485,1.343s-0.499,0.755-0.841,1.07
				c-0.269,0.242-0.563,0.435-0.882,0.581s-0.662,0.249-1.029,0.308c-0.366,0.059-0.78,0.089-1.24,0.089h-2.646
				c-0.369,0-0.647-0.056-0.834-0.167s-0.309-0.269-0.366-0.472c-0.057-0.203-0.085-0.466-0.085-0.79V66.94
				c0-0.438,0.098-0.754,0.294-0.95S38.471,65.696,38.908,65.696z M39.694,67.302v6.802h1.538c0.337,0,0.602-0.009,0.793-0.027
				s0.39-0.064,0.595-0.137s0.383-0.175,0.533-0.308c0.679-0.574,1.019-1.563,1.019-2.967c0-0.989-0.149-1.729-0.448-2.222
				c-0.298-0.492-0.666-0.806-1.104-0.94s-0.966-0.202-1.586-0.202H39.694z"/>
			<path class="st21" d="M52.423,65.525c1.039,0,1.932,0.211,2.676,0.632c0.746,0.421,1.31,1.021,1.692,1.798
				s0.574,1.689,0.574,2.738c0,0.775-0.104,1.479-0.314,2.112s-0.524,1.183-0.943,1.647s-0.935,0.82-1.545,1.066
				s-1.311,0.369-2.099,0.369c-0.784,0-1.485-0.126-2.105-0.379s-1.137-0.609-1.552-1.07s-0.728-1.014-0.94-1.661
				c-0.211-0.647-0.317-1.347-0.317-2.099c0-0.77,0.11-1.477,0.331-2.119c0.222-0.643,0.542-1.189,0.961-1.641
				s0.93-0.796,1.531-1.036S51.657,65.525,52.423,65.525z M55.308,70.679c0-0.734-0.118-1.37-0.355-1.907s-0.575-0.944-1.016-1.22
				c-0.439-0.276-0.944-0.414-1.514-0.414c-0.405,0-0.78,0.076-1.125,0.229c-0.344,0.153-0.64,0.375-0.889,0.667
				c-0.248,0.292-0.443,0.664-0.588,1.118c-0.143,0.454-0.215,0.963-0.215,1.528c0,0.57,0.072,1.084,0.215,1.545
				c0.145,0.46,0.347,0.842,0.609,1.145c0.262,0.303,0.563,0.53,0.902,0.68c0.339,0.15,0.712,0.226,1.117,0.226
				c0.52,0,0.997-0.13,1.432-0.39c0.436-0.26,0.782-0.661,1.039-1.203C55.179,72.14,55.308,71.472,55.308,70.679z"/>
			<path class="st21" d="M67.64,72.552c0,0.319-0.078,0.664-0.236,1.036c-0.156,0.372-0.404,0.736-0.741,1.094
				s-0.768,0.648-1.292,0.872s-1.135,0.335-1.832,0.335c-0.528,0-1.01-0.05-1.442-0.15s-0.826-0.256-1.179-0.468
				c-0.354-0.212-0.679-0.491-0.975-0.837c-0.265-0.314-0.49-0.667-0.677-1.056s-0.327-0.806-0.421-1.248
				c-0.093-0.442-0.14-0.912-0.14-1.408c0-0.807,0.117-1.529,0.353-2.167c0.234-0.638,0.57-1.184,1.008-1.637
				s0.95-0.799,1.538-1.036s1.215-0.355,1.88-0.355c0.812,0,1.533,0.162,2.167,0.485s1.119,0.724,1.456,1.2s0.506,0.926,0.506,1.35
				c0,0.232-0.082,0.438-0.246,0.615s-0.362,0.267-0.595,0.267c-0.26,0-0.454-0.062-0.585-0.185
				c-0.129-0.123-0.274-0.335-0.434-0.636c-0.265-0.497-0.575-0.868-0.934-1.114c-0.357-0.246-0.798-0.369-1.322-0.369
				c-0.834,0-1.498,0.317-1.992,0.95c-0.495,0.633-0.742,1.534-0.742,2.7c0,0.779,0.109,1.428,0.328,1.945s0.528,0.903,0.93,1.159
				s0.87,0.383,1.408,0.383c0.583,0,1.076-0.145,1.48-0.434c0.402-0.29,0.707-0.714,0.912-1.275
				c0.087-0.264,0.193-0.479,0.321-0.646s0.333-0.25,0.615-0.25c0.241,0,0.449,0.084,0.622,0.253S67.64,72.302,67.64,72.552z"/>
		</g>
	</g>
</g>
</svg>
