<?xml version="1.0" encoding="utf-8"?>
<!-- Generator: Adobe Illustrator 16.0.0, SVG Export Plug-In . SVG Version: 6.00 Build 0)  -->
<!DOCTYPE svg PUBLIC "-//W3C//DTD SVG 1.1//EN" "http://www.w3.org/Graphics/SVG/1.1/DTD/svg11.dtd">
<svg version="1.1" id="Layer_1" xmlns="http://www.w3.org/2000/svg" xmlns:xlink="http://www.w3.org/1999/xlink" x="0px" y="0px"
	 width="136.913px" height="136.914px" viewBox="0 0 136.913 136.914" enable-background="new 0 0 136.913 136.914"
	 xml:space="preserve">
<g>
	<g>
		<circle fill="#D7DABA" cx="68.457" cy="68.457" r="63.333"/>
	</g>
	<g>
		<g>
			<g>
				<path fill="#E79E2D" d="M43.72,30.195c-2.357,0-4.271,1.913-4.271,4.272v68.351c0,2.359,1.914,4.271,4.271,4.271h49.129
					c2.359,0,4.271-1.912,4.271-4.271v-52.84L76.528,30.195H43.72z"/>
			</g>
		</g>
		<path fill="#D58A29" d="M97.12,49.979H80.8c-2.359,0-4.271-1.912-4.271-4.271V30.195L97.12,49.979z"/>
		<path fill="#D58A29" d="M75.677,77.762c0,2.723-2.207,4.93-4.93,4.93H34.763c-2.723,0-4.93-2.207-4.93-4.93v-15.06
			c0-2.723,2.207-4.929,4.93-4.929h35.984c2.723,0,4.93,2.206,4.93,4.929V77.762z"/>
		<g>
			<path fill="#FFFFFF" d="M46.193,67.301H41.62v2.461h4.211c0.31,0,0.541,0.069,0.693,0.208c0.153,0.139,0.229,0.322,0.229,0.55
				s-0.075,0.414-0.226,0.557s-0.383,0.215-0.697,0.215H41.62v2.851h4.73c0.319,0,0.56,0.074,0.721,0.222
				c0.162,0.148,0.243,0.345,0.243,0.591c0,0.237-0.081,0.43-0.243,0.578c-0.161,0.148-0.401,0.222-0.721,0.222h-5.517
				c-0.442,0-0.76-0.098-0.954-0.294c-0.193-0.196-0.29-0.513-0.29-0.95V66.98c0-0.292,0.043-0.53,0.13-0.714
				s0.223-0.319,0.406-0.403c0.186-0.084,0.421-0.126,0.708-0.126h5.359c0.323,0,0.563,0.072,0.722,0.215
				c0.156,0.144,0.235,0.332,0.235,0.564c0,0.237-0.079,0.427-0.235,0.571C46.757,67.229,46.517,67.301,46.193,67.301z"/>
			<path fill="#FFFFFF" d="M52.817,71.854h-1.859v2.837c0,0.406-0.096,0.713-0.287,0.923s-0.433,0.314-0.725,0.314
				c-0.306,0-0.552-0.104-0.738-0.311s-0.28-0.512-0.28-0.913V66.98c0-0.447,0.103-0.766,0.308-0.957s0.531-0.287,0.978-0.287h2.604
				c0.771,0,1.362,0.059,1.777,0.178c0.41,0.114,0.765,0.303,1.063,0.567c0.299,0.264,0.525,0.588,0.681,0.971
				s0.232,0.813,0.232,1.292c0,1.021-0.314,1.794-0.943,2.321S54.062,71.854,52.817,71.854z M52.325,67.26h-1.367v3.063h1.367
				c0.479,0,0.879-0.05,1.199-0.15c0.322-0.1,0.566-0.264,0.735-0.492s0.253-0.526,0.253-0.896c0-0.442-0.13-0.802-0.39-1.08
				C53.831,67.408,53.232,67.26,52.325,67.26z"/>
			<path fill="#FFFFFF" d="M65.881,72.75c0,0.606-0.156,1.151-0.468,1.634c-0.313,0.483-0.77,0.861-1.371,1.135
				s-1.314,0.41-2.14,0.41c-0.989,0-1.805-0.187-2.447-0.561c-0.456-0.269-0.826-0.628-1.11-1.077
				c-0.285-0.449-0.428-0.885-0.428-1.309c0-0.246,0.086-0.457,0.256-0.632c0.172-0.175,0.389-0.263,0.653-0.263
				c0.214,0,0.396,0.068,0.544,0.205c0.147,0.137,0.274,0.339,0.379,0.608c0.128,0.319,0.266,0.585,0.414,0.8
				c0.147,0.214,0.356,0.391,0.625,0.53s0.622,0.208,1.06,0.208c0.602,0,1.091-0.14,1.466-0.42c0.377-0.28,0.564-0.63,0.564-1.049
				c0-0.333-0.102-0.603-0.305-0.81c-0.202-0.208-0.465-0.366-0.785-0.475c-0.322-0.109-0.751-0.226-1.289-0.349
				c-0.72-0.168-1.322-0.366-1.809-0.591c-0.484-0.226-0.87-0.533-1.154-0.923c-0.285-0.39-0.428-0.874-0.428-1.453
				c0-0.551,0.15-1.042,0.451-1.47s0.736-0.758,1.306-0.988s1.239-0.345,2.01-0.345c0.615,0,1.147,0.076,1.597,0.229
				c0.448,0.153,0.821,0.355,1.117,0.608s0.513,0.519,0.649,0.796s0.205,0.549,0.205,0.813c0,0.242-0.085,0.459-0.257,0.653
				c-0.17,0.194-0.384,0.291-0.639,0.291c-0.232,0-0.409-0.058-0.529-0.174c-0.121-0.116-0.252-0.307-0.394-0.571
				c-0.183-0.378-0.401-0.673-0.656-0.885s-0.665-0.318-1.23-0.318c-0.524,0-0.946,0.115-1.269,0.345
				c-0.32,0.23-0.481,0.507-0.481,0.831c0,0.201,0.055,0.374,0.164,0.52s0.26,0.271,0.451,0.376s0.385,0.187,0.581,0.246
				s0.52,0.146,0.971,0.26c0.565,0.132,1.076,0.278,1.535,0.438c0.457,0.16,0.848,0.353,1.168,0.581
				c0.322,0.228,0.572,0.516,0.752,0.865C65.791,71.816,65.881,72.244,65.881,72.75z"/>
		</g>
	</g>
</g>
</svg>
