<?xml version="1.0" encoding="utf-8"?>
<!-- Generator: Adobe Illustrator 16.0.0, SVG Export Plug-In . SVG Version: 6.00 Build 0)  -->
<!DOCTYPE svg PUBLIC "-//W3C//DTD SVG 1.1//EN" "http://www.w3.org/Graphics/SVG/1.1/DTD/svg11.dtd">
<svg version="1.1" id="Layer_1" xmlns="http://www.w3.org/2000/svg" xmlns:xlink="http://www.w3.org/1999/xlink" x="0px" y="0px"
	 width="136.833px" height="136.834px" viewBox="0 0 136.833 136.834" style="enable-background:new 0 0 136.833 136.834;"
	 xml:space="preserve">
<style type="text/css">
<![CDATA[
	.st0{fill:#7A6F64;}
	.st1{fill:#7D9D3E;}
	.st2{fill:#ACC337;}
	.st3{fill:#E23A37;}
	.st4{fill:#E37A26;}
	.st5{fill:#163749;}
	.st6{fill:#4A6C96;}
	.st7{fill:#E88524;}
	.st8{fill:#B56027;}
	.st9{fill:#88A0D2;}
	.st10{fill:#517AA6;}
	.st11{fill:#588DBF;}
	.st12{fill:#59337F;}
	.st13{fill:#8D964E;}
	.st14{fill:#8F8376;}
	.st15{fill:#21455F;}
	.st16{fill:#BF2026;}
	.st17{fill:#F7981D;}
	.st18{fill:#2A4049;}
	.st19{fill:#96B33D;}
	.st20{fill:#C93332;}
	.st21{fill:#FFFFFF;}
	.st22{fill:#CA2027;}
	.st23{fill:#CB7429;}
	.st24{fill:#9DCB3B;}
	.st25{fill:#344E5D;}
	.st26{fill:#355670;}
	.st27{fill:#396183;}
	.st28{fill:#6DA0D5;}
	.st29{fill:#6E4095;}
	.st30{fill:#6F8BC6;}
	.st31{fill:#D06A28;}
	.st32{fill:#3C5B78;}
	.st33{fill:#D7DABA;}
	.st34{fill:#718839;}
	.st35{fill:#A1B13A;}
	.st36{fill:#73773D;}
	.st37{fill:#DA1F26;}
]]>
</style>
<g>
	<g>
		<circle class="st33" cx="68.416" cy="68.417" r="63.333"/>
	</g>
	<g>
		<g>
			<g>
				<path class="st9" d="M43.681,30.156c-2.359,0-4.271,1.913-4.271,4.272v68.351c0,2.359,1.912,4.271,4.271,4.271h49.127
					c2.359,0,4.271-1.912,4.271-4.271v-52.84L76.487,30.156H43.681z"/>
			</g>
		</g>
		<path class="st30" d="M97.079,49.939h-16.32c-2.359,0-4.271-1.913-4.271-4.272V30.156L97.079,49.939z"/>
		<path class="st30" d="M75.636,77.722c0,2.723-2.207,4.93-4.928,4.93H34.722c-2.723,0-4.928-2.207-4.928-4.93V62.662
			c0-2.723,2.205-4.929,4.928-4.929h35.986c2.721,0,4.928,2.206,4.928,4.929V77.722z"/>
		<g>
			<path class="st21" d="M42.996,71.431h-0.711v3.22c0,0.424-0.094,0.736-0.28,0.937s-0.431,0.301-0.731,0.301
				c-0.323,0-0.574-0.105-0.752-0.314s-0.267-0.517-0.267-0.923V66.94c0-0.438,0.098-0.754,0.294-0.95s0.513-0.294,0.95-0.294h3.302
				c0.456,0,0.846,0.02,1.169,0.058s0.615,0.117,0.875,0.236c0.314,0.132,0.593,0.321,0.834,0.567s0.425,0.532,0.551,0.858
				c0.125,0.326,0.188,0.671,0.188,1.036c0,0.748-0.211,1.344-0.633,1.791c-0.421,0.447-1.061,0.763-1.917,0.95
				c0.36,0.191,0.704,0.474,1.032,0.848s0.621,0.771,0.879,1.193c0.257,0.421,0.457,0.802,0.602,1.142
				c0.143,0.339,0.215,0.573,0.215,0.701c0,0.132-0.042,0.263-0.127,0.393c-0.084,0.13-0.199,0.232-0.345,0.308
				s-0.314,0.113-0.506,0.113c-0.228,0-0.419-0.054-0.574-0.161s-0.288-0.243-0.399-0.407c-0.112-0.164-0.264-0.406-0.455-0.725
				l-0.813-1.354c-0.292-0.497-0.553-0.875-0.782-1.135c-0.23-0.26-0.464-0.438-0.701-0.533S43.356,71.431,42.996,71.431z
				 M44.158,67.22h-1.873v2.755h1.818c0.487,0,0.897-0.042,1.23-0.126s0.587-0.228,0.763-0.431c0.175-0.203,0.263-0.482,0.263-0.837
				c0-0.278-0.07-0.523-0.212-0.735s-0.337-0.37-0.588-0.475C45.322,67.271,44.855,67.22,44.158,67.22z"/>
			<path class="st21" d="M56.148,67.371h-2.215v7.28c0,0.419-0.094,0.73-0.28,0.933s-0.429,0.304-0.725,0.304
				c-0.301,0-0.546-0.103-0.734-0.308c-0.189-0.205-0.284-0.515-0.284-0.93v-7.28h-2.215c-0.347,0-0.604-0.076-0.772-0.229
				s-0.253-0.354-0.253-0.605c0-0.26,0.088-0.465,0.263-0.615c0.176-0.15,0.43-0.226,0.763-0.226h6.453
				c0.351,0,0.612,0.078,0.782,0.232c0.172,0.155,0.257,0.358,0.257,0.608s-0.087,0.452-0.26,0.605S56.495,67.371,56.148,67.371z"/>
			<path class="st21" d="M64.379,67.261H60.38v2.563h3.343c0.31,0,0.541,0.069,0.694,0.208c0.152,0.139,0.229,0.325,0.229,0.557
				s-0.077,0.417-0.232,0.554s-0.385,0.205-0.69,0.205H60.38v3.302c0,0.419-0.095,0.73-0.283,0.933
				c-0.189,0.203-0.433,0.304-0.729,0.304c-0.301,0-0.546-0.103-0.734-0.308c-0.189-0.205-0.284-0.515-0.284-0.93V66.94
				c0-0.292,0.043-0.53,0.13-0.714s0.223-0.319,0.406-0.403c0.186-0.084,0.421-0.126,0.708-0.126h4.785
				c0.323,0,0.563,0.072,0.722,0.215c0.156,0.144,0.235,0.332,0.235,0.564c0,0.237-0.079,0.427-0.235,0.571
				C64.942,67.189,64.702,67.261,64.379,67.261z"/>
		</g>
	</g>
</g>
</svg>
