<?xml version="1.0" encoding="utf-8"?>
<!-- Generator: Adobe Illustrator 16.0.0, SVG Export Plug-In . SVG Version: 6.00 Build 0)  -->
<!DOCTYPE svg PUBLIC "-//W3C//DTD SVG 1.1//EN" "http://www.w3.org/Graphics/SVG/1.1/DTD/svg11.dtd">
<svg version="1.1" id="Layer_1" xmlns="http://www.w3.org/2000/svg" xmlns:xlink="http://www.w3.org/1999/xlink" x="0px" y="0px"
	 width="136.914px" height="136.914px" viewBox="0 0 136.914 136.914" enable-background="new 0 0 136.914 136.914"
	 xml:space="preserve">
<g>
	<g>
		<circle fill="#D7DABA" cx="68.457" cy="68.457" r="63.333"/>
	</g>
	<g>
		<g>
			<path fill="#27805A" d="M43.72,30.195c-2.358,0-4.271,1.912-4.271,4.271v68.352c0,2.359,1.913,4.271,4.271,4.271h49.128
				c2.359,0,4.271-1.912,4.271-4.271v-52.84L76.528,30.195H43.72z"/>
		</g>
		<path fill="#1C6044" d="M97.12,49.979h-16.32c-2.359,0-4.271-1.912-4.271-4.271V30.195L97.12,49.979z"/>
		<path fill="#1C6044" d="M75.676,77.762c0,2.723-2.207,4.93-4.929,4.93H34.762c-2.723,0-4.929-2.207-4.929-4.93V62.701
			c0-2.723,2.206-4.929,4.929-4.929h35.985c2.722,0,4.929,2.206,4.929,4.929V77.762z"/>
		<g>
			<path fill="#FFFFFF" d="M44.329,74.622l-0.479-1.258h-4.074l-0.479,1.285c-0.187,0.501-0.347,0.84-0.479,1.015
				s-0.349,0.263-0.649,0.263c-0.255,0-0.48-0.093-0.677-0.28s-0.294-0.399-0.294-0.636c0-0.137,0.022-0.278,0.068-0.424
				s0.121-0.349,0.226-0.608l2.563-6.508c0.073-0.187,0.16-0.411,0.264-0.673c0.102-0.262,0.211-0.479,0.328-0.653
				c0.115-0.173,0.269-0.313,0.457-0.42c0.189-0.107,0.423-0.161,0.701-0.161c0.282,0,0.519,0.054,0.707,0.161
				c0.189,0.107,0.342,0.245,0.459,0.414c0.115,0.168,0.214,0.35,0.293,0.543c0.08,0.194,0.182,0.452,0.305,0.776l2.618,6.467
				c0.205,0.492,0.308,0.85,0.308,1.073c0,0.232-0.097,0.445-0.291,0.639c-0.193,0.194-0.427,0.291-0.7,0.291
				c-0.159,0-0.296-0.028-0.41-0.085s-0.21-0.134-0.287-0.232s-0.161-0.249-0.249-0.451C44.468,74.956,44.392,74.776,44.329,74.622z
				 M40.309,71.839h2.994l-1.511-4.136L40.309,71.839z"/>
			<path fill="#FFFFFF" d="M48.068,74.69v-7.896c0-0.41,0.094-0.718,0.28-0.923s0.429-0.308,0.725-0.308
				c0.306,0,0.553,0.102,0.741,0.304c0.189,0.203,0.284,0.512,0.284,0.926v7.896c0,0.415-0.095,0.725-0.284,0.93
				c-0.188,0.205-0.436,0.308-0.741,0.308c-0.292,0-0.532-0.104-0.722-0.311C48.163,75.409,48.068,75.1,48.068,74.69z"/>
			<path fill="#FFFFFF" d="M58.356,67.3h-3.999v2.563H57.7c0.31,0,0.541,0.069,0.694,0.208c0.152,0.139,0.229,0.325,0.229,0.557
				s-0.077,0.417-0.232,0.554s-0.385,0.205-0.69,0.205h-3.343v3.302c0,0.419-0.095,0.73-0.283,0.933
				c-0.189,0.203-0.433,0.304-0.729,0.304c-0.301,0-0.546-0.103-0.734-0.308c-0.189-0.205-0.284-0.515-0.284-0.93v-7.711
				c0-0.292,0.043-0.53,0.13-0.714s0.223-0.319,0.406-0.403c0.186-0.084,0.421-0.126,0.708-0.126h4.785
				c0.323,0,0.563,0.072,0.722,0.215c0.156,0.144,0.235,0.332,0.235,0.564c0,0.237-0.079,0.427-0.235,0.571
				C58.919,67.229,58.679,67.3,58.356,67.3z"/>
			<path fill="#FFFFFF" d="M66.812,67.3h-3.999v2.563h3.343c0.31,0,0.541,0.069,0.693,0.208c0.153,0.139,0.229,0.325,0.229,0.557
				s-0.077,0.417-0.232,0.554s-0.385,0.205-0.69,0.205h-3.343v3.302c0,0.419-0.095,0.73-0.284,0.933
				c-0.188,0.203-0.432,0.304-0.728,0.304c-0.301,0-0.546-0.103-0.735-0.308c-0.188-0.205-0.283-0.515-0.283-0.93v-7.711
				c0-0.292,0.043-0.53,0.13-0.714s0.222-0.319,0.407-0.403c0.184-0.084,0.42-0.126,0.707-0.126h4.785
				c0.323,0,0.564,0.072,0.721,0.215c0.158,0.144,0.236,0.332,0.236,0.564c0,0.237-0.078,0.427-0.236,0.571
				C67.376,67.229,67.135,67.3,66.812,67.3z"/>
		</g>
	</g>
</g>
</svg>
