<?xml version="1.0" encoding="utf-8"?>
<!-- Generator: Adobe Illustrator 16.0.0, SVG Export Plug-In . SVG Version: 6.00 Build 0)  -->
<!DOCTYPE svg PUBLIC "-//W3C//DTD SVG 1.1//EN" "http://www.w3.org/Graphics/SVG/1.1/DTD/svg11.dtd">
<svg version="1.1" id="Layer_1" xmlns="http://www.w3.org/2000/svg" xmlns:xlink="http://www.w3.org/1999/xlink" x="0px" y="0px"
	 width="136.914px" height="136.914px" viewBox="0 0 136.914 136.914" enable-background="new 0 0 136.914 136.914"
	 xml:space="preserve">
<g>
	<g>
		<circle fill="#D7DABA" cx="68.457" cy="68.458" r="63.333"/>
	</g>
	<g>
		<g>
			<g>
				<path fill="#A8CE38" d="M43.72,30.196c-2.358,0-4.271,1.912-4.271,4.271v68.351c0,2.359,1.913,4.272,4.271,4.272h49.128
					c2.359,0,4.271-1.913,4.271-4.272V49.979L76.528,30.196H43.72z"/>
			</g>
		</g>
		<path fill="#96B73D" d="M97.12,49.979h-16.32c-2.359,0-4.271-1.913-4.271-4.272V30.196L97.12,49.979z"/>
		<path fill="#96B73D" d="M75.676,77.762c0,2.723-2.207,4.93-4.929,4.93H34.762c-2.723,0-4.929-2.207-4.929-4.93v-15.06
			c0-2.723,2.206-4.93,4.929-4.93h35.985c2.722,0,4.929,2.207,4.929,4.93V77.762z"/>
		<g>
			<path fill="#FFFFFF" d="M41.275,74.691v-7.896c0-0.41,0.094-0.718,0.28-0.923s0.429-0.308,0.725-0.308
				c0.306,0,0.553,0.102,0.741,0.304c0.189,0.203,0.284,0.512,0.284,0.926v7.896c0,0.415-0.095,0.725-0.284,0.93
				c-0.188,0.205-0.436,0.308-0.741,0.308c-0.292,0-0.532-0.104-0.722-0.311C41.37,75.41,41.275,75.101,41.275,74.691z"/>
			<path fill="#FFFFFF" d="M53.19,72.75c0,0.606-0.156,1.151-0.468,1.634c-0.313,0.483-0.77,0.861-1.371,1.135
				s-1.314,0.41-2.14,0.41c-0.989,0-1.805-0.187-2.447-0.561c-0.456-0.269-0.826-0.628-1.11-1.077
				c-0.285-0.449-0.428-0.885-0.428-1.309c0-0.246,0.086-0.457,0.256-0.632c0.172-0.175,0.389-0.263,0.653-0.263
				c0.214,0,0.396,0.068,0.544,0.205c0.147,0.137,0.274,0.339,0.379,0.608c0.128,0.319,0.266,0.585,0.414,0.8
				c0.147,0.214,0.356,0.391,0.625,0.53s0.622,0.208,1.06,0.208c0.602,0,1.091-0.14,1.466-0.42c0.377-0.28,0.564-0.63,0.564-1.049
				c0-0.333-0.102-0.603-0.305-0.81c-0.202-0.208-0.465-0.366-0.785-0.475c-0.322-0.109-0.751-0.226-1.289-0.349
				c-0.72-0.168-1.322-0.366-1.809-0.591c-0.484-0.226-0.87-0.533-1.154-0.923c-0.285-0.39-0.428-0.874-0.428-1.453
				c0-0.551,0.15-1.042,0.451-1.47s0.736-0.758,1.306-0.988s1.239-0.345,2.01-0.345c0.615,0,1.147,0.076,1.597,0.229
				c0.448,0.153,0.821,0.355,1.117,0.608s0.513,0.519,0.649,0.796s0.205,0.549,0.205,0.813c0,0.242-0.085,0.459-0.257,0.653
				c-0.17,0.194-0.384,0.291-0.639,0.291c-0.232,0-0.409-0.058-0.529-0.174c-0.121-0.116-0.252-0.307-0.394-0.571
				c-0.183-0.378-0.401-0.673-0.656-0.885s-0.665-0.318-1.23-0.318c-0.524,0-0.946,0.115-1.269,0.345
				c-0.32,0.23-0.481,0.507-0.481,0.831c0,0.201,0.055,0.374,0.164,0.52s0.26,0.271,0.451,0.376s0.385,0.187,0.581,0.246
				s0.52,0.146,0.971,0.26c0.565,0.132,1.076,0.278,1.535,0.438c0.457,0.16,0.848,0.353,1.168,0.581
				c0.322,0.228,0.572,0.516,0.752,0.865C53.1,71.816,53.19,72.244,53.19,72.75z"/>
			<path fill="#FFFFFF" d="M59.322,65.565c1.039,0,1.932,0.211,2.676,0.632c0.746,0.421,1.31,1.021,1.692,1.798
				s0.574,1.689,0.574,2.738c0,0.775-0.104,1.479-0.314,2.112s-0.524,1.183-0.943,1.647s-0.935,0.82-1.545,1.066
				s-1.311,0.369-2.099,0.369c-0.784,0-1.485-0.126-2.105-0.379s-1.137-0.609-1.552-1.07s-0.728-1.014-0.94-1.661
				c-0.211-0.647-0.317-1.347-0.317-2.099c0-0.77,0.11-1.477,0.331-2.119c0.222-0.643,0.542-1.189,0.961-1.641
				s0.93-0.796,1.531-1.036S58.556,65.565,59.322,65.565z M62.207,70.719c0-0.734-0.118-1.37-0.355-1.907s-0.575-0.944-1.016-1.22
				c-0.439-0.276-0.944-0.414-1.514-0.414c-0.405,0-0.78,0.076-1.125,0.229c-0.344,0.153-0.64,0.375-0.889,0.667
				c-0.248,0.292-0.443,0.664-0.588,1.118c-0.143,0.454-0.215,0.963-0.215,1.528c0,0.57,0.072,1.084,0.215,1.545
				c0.145,0.46,0.347,0.842,0.609,1.145c0.262,0.303,0.563,0.53,0.902,0.68c0.339,0.15,0.712,0.226,1.117,0.226
				c0.52,0,0.997-0.13,1.432-0.39c0.436-0.26,0.782-0.661,1.039-1.203C62.078,72.18,62.207,71.512,62.207,70.719z"/>
		</g>
	</g>
</g>
</svg>
