<?xml version="1.0" encoding="utf-8"?>
<!-- Generator: Adobe Illustrator 16.0.0, SVG Export Plug-In . SVG Version: 6.00 Build 0)  -->
<!DOCTYPE svg PUBLIC "-//W3C//DTD SVG 1.1//EN" "http://www.w3.org/Graphics/SVG/1.1/DTD/svg11.dtd">
<svg version="1.1" id="Layer_1" xmlns="http://www.w3.org/2000/svg" xmlns:xlink="http://www.w3.org/1999/xlink" x="0px" y="0px"
	 width="136.914px" height="136.914px" viewBox="0 0 136.914 136.914" enable-background="new 0 0 136.914 136.914"
	 xml:space="preserve">
<g>
	<g>
		<circle fill="#D7DABA" cx="68.457" cy="68.457" r="63.333"/>
	</g>
	<g>
		<g>
			<path fill="#5B4F3F" d="M43.72,30.195c-2.358,0-4.271,1.913-4.271,4.272v68.351c0,2.359,1.913,4.271,4.271,4.271h49.128
				c2.359,0,4.271-1.912,4.271-4.271v-52.84L76.528,30.195H43.72z"/>
		</g>
		<path fill="#483E33" d="M97.12,49.979h-16.32c-2.359,0-4.271-1.912-4.271-4.271V30.195L97.12,49.979z"/>
		<path fill="#483E33" d="M75.676,77.762c0,2.723-2.207,4.93-4.929,4.93H34.762c-2.723,0-4.929-2.207-4.929-4.93v-15.06
			c0-2.723,2.206-4.93,4.929-4.93h35.985c2.722,0,4.929,2.207,4.929,4.93V77.762z"/>
		<g>
			<path fill="#FFFFFF" d="M47.103,67.301h-3.999v2.563h3.343c0.31,0,0.541,0.069,0.693,0.208c0.153,0.139,0.229,0.325,0.229,0.557
				s-0.077,0.417-0.232,0.554s-0.385,0.205-0.69,0.205h-3.343v3.302c0,0.419-0.095,0.73-0.284,0.933
				c-0.188,0.203-0.432,0.304-0.728,0.304c-0.301,0-0.546-0.103-0.735-0.308c-0.188-0.205-0.283-0.515-0.283-0.93V66.98
				c0-0.292,0.043-0.53,0.13-0.714s0.222-0.319,0.407-0.403c0.184-0.084,0.42-0.126,0.707-0.126h4.785
				c0.323,0,0.564,0.072,0.721,0.215c0.158,0.144,0.236,0.332,0.236,0.564c0,0.237-0.078,0.427-0.236,0.571
				C47.667,67.229,47.426,67.301,47.103,67.301z"/>
			<path fill="#FFFFFF" d="M51.56,66.795v7.294h4.115c0.328,0,0.58,0.08,0.756,0.239c0.175,0.16,0.263,0.36,0.263,0.602
				c0,0.246-0.087,0.445-0.26,0.598s-0.426,0.229-0.759,0.229h-4.901c-0.442,0-0.76-0.098-0.954-0.294
				c-0.193-0.196-0.29-0.513-0.29-0.95v-7.718c0-0.41,0.093-0.718,0.276-0.923c0.186-0.205,0.428-0.308,0.729-0.308
				c0.306,0,0.553,0.102,0.742,0.304C51.465,66.072,51.56,66.381,51.56,66.795z"/>
			<path fill="#FFFFFF" d="M57.931,66.898l2.27,6.72l2.276-6.768c0.118-0.355,0.207-0.603,0.267-0.742s0.157-0.264,0.294-0.376
				s0.323-0.167,0.561-0.167c0.173,0,0.334,0.043,0.481,0.13c0.148,0.086,0.265,0.202,0.35,0.345
				c0.084,0.144,0.126,0.288,0.126,0.434c0,0.1-0.014,0.208-0.041,0.325s-0.062,0.23-0.103,0.342s-0.082,0.227-0.123,0.345
				l-2.427,6.549c-0.087,0.25-0.173,0.489-0.26,0.714s-0.187,0.424-0.301,0.595s-0.266,0.311-0.454,0.42
				c-0.189,0.109-0.421,0.164-0.694,0.164s-0.505-0.054-0.694-0.161c-0.188-0.107-0.342-0.249-0.457-0.424
				c-0.117-0.175-0.218-0.375-0.305-0.598s-0.173-0.46-0.26-0.711l-2.386-6.494c-0.041-0.119-0.083-0.235-0.126-0.349
				c-0.044-0.114-0.08-0.237-0.109-0.369c-0.03-0.132-0.045-0.244-0.045-0.335c0-0.232,0.094-0.444,0.28-0.636
				s0.422-0.287,0.704-0.287c0.347,0,0.592,0.106,0.734,0.318C57.634,66.095,57.781,66.433,57.931,66.898z"/>
		</g>
	</g>
</g>
</svg>
