<?xml version="1.0" encoding="utf-8"?>
<!-- Generator: Adobe Illustrator 16.0.0, SVG Export Plug-In . SVG Version: 6.00 Build 0)  -->
<!DOCTYPE svg PUBLIC "-//W3C//DTD SVG 1.1//EN" "http://www.w3.org/Graphics/SVG/1.1/DTD/svg11.dtd">
<svg version="1.1" id="Layer_1" xmlns="http://www.w3.org/2000/svg" xmlns:xlink="http://www.w3.org/1999/xlink" x="0px" y="0px"
	 width="136.913px" height="136.914px" viewBox="0 0 136.913 136.914" enable-background="new 0 0 136.913 136.914"
	 xml:space="preserve">
<g>
	<g>
		<circle fill="#D7DABA" cx="68.457" cy="68.457" r="63.333"/>
	</g>
	<g>
		<g>
			<path fill="#3CB881" d="M43.72,30.195c-2.357,0-4.271,1.913-4.271,4.272v68.351c0,2.359,1.914,4.271,4.271,4.271h49.129
				c2.359,0,4.271-1.912,4.271-4.271v-52.84L76.528,30.195H43.72z"/>
		</g>
		<path fill="#22A56F" d="M97.12,49.979H80.8c-2.359,0-4.271-1.912-4.271-4.271V30.195L97.12,49.979z"/>
		<path fill="#22A56F" d="M75.677,77.762c0,2.723-2.207,4.93-4.93,4.93H34.763c-2.723,0-4.93-2.207-4.93-4.93v-15.06
			c0-2.723,2.207-4.93,4.93-4.93h35.984c2.723,0,4.93,2.207,4.93,4.93V77.762z"/>
		<g>
			<path fill="#FFFFFF" d="M40.937,74.247l-1.606-6.385v6.918c0,0.383-0.085,0.67-0.257,0.861c-0.17,0.191-0.397,0.287-0.68,0.287
				c-0.273,0-0.497-0.095-0.67-0.284s-0.26-0.478-0.26-0.865v-7.93c0-0.438,0.114-0.732,0.342-0.885s0.535-0.229,0.923-0.229h0.629
				c0.378,0,0.653,0.034,0.823,0.103c0.172,0.068,0.298,0.191,0.38,0.369s0.176,0.467,0.28,0.868l1.456,5.489l1.456-5.489
				c0.104-0.401,0.198-0.69,0.28-0.868s0.208-0.301,0.38-0.369c0.17-0.068,0.445-0.103,0.823-0.103h0.629
				c0.388,0,0.695,0.076,0.923,0.229s0.342,0.448,0.342,0.885v7.93c0,0.383-0.086,0.67-0.256,0.861
				c-0.172,0.191-0.4,0.287-0.688,0.287c-0.269,0-0.49-0.096-0.663-0.287s-0.26-0.479-0.26-0.861v-6.918l-1.606,6.385
				c-0.104,0.415-0.19,0.719-0.256,0.913c-0.066,0.194-0.188,0.37-0.366,0.53s-0.424,0.239-0.738,0.239
				c-0.237,0-0.438-0.051-0.602-0.154s-0.292-0.233-0.383-0.393s-0.163-0.336-0.216-0.53C41.045,74.658,40.991,74.456,40.937,74.247
				z"/>
			<path fill="#FFFFFF" d="M53.104,71.854h-1.859v2.837c0,0.406-0.096,0.713-0.287,0.923s-0.433,0.314-0.725,0.314
				c-0.306,0-0.552-0.104-0.738-0.311s-0.28-0.512-0.28-0.913V66.98c0-0.447,0.103-0.766,0.308-0.957s0.531-0.287,0.978-0.287h2.604
				c0.771,0,1.362,0.059,1.777,0.178c0.41,0.114,0.765,0.303,1.063,0.567c0.299,0.264,0.525,0.588,0.681,0.971
				s0.232,0.813,0.232,1.292c0,1.021-0.314,1.794-0.943,2.321S54.349,71.854,53.104,71.854z M52.612,67.26h-1.367v3.063h1.367
				c0.479,0,0.879-0.05,1.199-0.15c0.322-0.1,0.566-0.264,0.735-0.492s0.253-0.526,0.253-0.896c0-0.442-0.13-0.802-0.39-1.08
				C54.118,67.408,53.52,67.26,52.612,67.26z"/>
			<path fill="#FFFFFF" d="M67.706,71.683v1.921c0,0.255-0.025,0.459-0.075,0.612s-0.143,0.291-0.276,0.414
				c-0.135,0.123-0.307,0.242-0.517,0.355c-0.606,0.328-1.189,0.567-1.75,0.718s-1.171,0.226-1.832,0.226
				c-0.771,0-1.472-0.119-2.105-0.355s-1.174-0.581-1.62-1.032s-0.789-0.998-1.029-1.641c-0.238-0.643-0.358-1.36-0.358-2.153
				c0-0.779,0.116-1.493,0.349-2.14s0.574-1.196,1.025-1.647s1-0.796,1.647-1.036s1.381-0.359,2.201-0.359
				c0.675,0,1.271,0.09,1.791,0.27s0.941,0.407,1.265,0.68s0.567,0.563,0.731,0.868s0.246,0.577,0.246,0.813
				c0,0.255-0.095,0.473-0.284,0.653c-0.188,0.18-0.415,0.27-0.68,0.27c-0.146,0-0.286-0.034-0.42-0.103
				c-0.135-0.068-0.248-0.164-0.339-0.287c-0.251-0.392-0.463-0.688-0.636-0.889s-0.406-0.369-0.701-0.506
				c-0.293-0.137-0.668-0.205-1.124-0.205c-0.47,0-0.889,0.081-1.258,0.243s-0.685,0.396-0.946,0.704
				c-0.263,0.308-0.463,0.685-0.602,1.131c-0.14,0.447-0.209,0.941-0.209,1.483c0,1.176,0.27,2.081,0.811,2.714
				c0.539,0.633,1.293,0.95,2.259,0.95c0.47,0,0.91-0.062,1.323-0.185c0.412-0.123,0.83-0.298,1.254-0.526v-1.627h-1.572
				c-0.378,0-0.664-0.057-0.857-0.171c-0.194-0.114-0.291-0.308-0.291-0.581c0-0.223,0.081-0.408,0.242-0.554
				c0.162-0.146,0.382-0.219,0.66-0.219h2.304c0.282,0,0.521,0.025,0.718,0.075s0.354,0.162,0.475,0.335
				C67.646,71.077,67.706,71.337,67.706,71.683z"/>
		</g>
	</g>
</g>
</svg>
