<?xml version="1.0" encoding="utf-8"?>
<!-- Generator: Adobe Illustrator 16.0.0, SVG Export Plug-In . SVG Version: 6.00 Build 0)  -->
<!DOCTYPE svg PUBLIC "-//W3C//DTD SVG 1.1//EN" "http://www.w3.org/Graphics/SVG/1.1/DTD/svg11.dtd">
<svg version="1.1" id="Layer_1" xmlns="http://www.w3.org/2000/svg" xmlns:xlink="http://www.w3.org/1999/xlink" x="0px" y="0px"
	 width="136.833px" height="136.834px" viewBox="0 0 136.833 136.834" style="enable-background:new 0 0 136.833 136.834;"
	 xml:space="preserve">
<style type="text/css">
<![CDATA[
	.st0{fill:#7B3A87;}
	.st1{fill:#7F1325;}
	.st2{fill:#E07325;}
	.st3{fill:#194680;}
	.st4{fill:#837C72;}
	.st5{fill:#B3BD35;}
	.st6{fill:#883637;}
	.st7{fill:#EDC92C;}
	.st8{fill:#EF8A21;}
	.st9{fill:#8B4097;}
	.st10{fill:#588DBF;}
	.st11{fill:#8E2852;}
	.st12{fill:#5B4F3F;}
	.st13{fill:#932B63;}
	.st14{fill:#C33F27;}
	.st15{fill:#C6CB2D;}
	.st16{fill:#C76428;}
	.st17{fill:#FFFFFF;}
	.st18{fill:#647131;}
	.st19{fill:#6D6254;}
	.st20{fill:#6DA0D5;}
	.st21{fill:#00599C;}
	.st22{fill:#D57927;}
	.st23{fill:#D7B528;}
	.st24{fill:#D7DABA;}
	.st25{fill:#D85026;}
	.st26{fill:#A11D2A;}
	.st27{fill:#A14443;}
	.st28{fill:#748838;}
	.st29{fill:#A53460;}
	.st30{fill:#A82E6C;}
]]>
</style>
<g>
	<g>
		<circle class="st24" cx="68.417" cy="68.417" r="63.333"/>
	</g>
	<g>
		<g>
			<path class="st8" d="M43.68,30.156c-2.358,0-4.271,1.912-4.271,4.271v68.352c0,2.359,1.913,4.271,4.271,4.271h49.128
				c2.359,0,4.271-1.912,4.271-4.271v-52.84L76.488,30.156H43.68z"/>
		</g>
		<path class="st22" d="M97.08,49.939h-16.32c-2.359,0-4.271-1.912-4.271-4.271V30.156L97.08,49.939z"/>
		<path class="st22" d="M75.636,77.722c0,2.723-2.207,4.93-4.929,4.93H34.722c-2.723,0-4.929-2.207-4.929-4.93V62.662
			c0-2.723,2.206-4.929,4.929-4.929h35.985c2.722,0,4.929,2.206,4.929,4.929V77.722z"/>
		<g>
			<path class="st17" d="M38.9,73.769l2.242-3.274l-1.887-2.912c-0.178-0.283-0.311-0.525-0.4-0.728
				c-0.088-0.203-0.133-0.397-0.133-0.584c0-0.191,0.086-0.363,0.256-0.516c0.172-0.153,0.38-0.229,0.626-0.229
				c0.282,0,0.503,0.083,0.659,0.25c0.158,0.167,0.375,0.475,0.653,0.926l1.504,2.434l1.606-2.434
				c0.132-0.205,0.245-0.38,0.338-0.526c0.094-0.146,0.184-0.267,0.271-0.362s0.184-0.167,0.29-0.215
				c0.107-0.048,0.231-0.072,0.373-0.072c0.255,0,0.464,0.076,0.625,0.229c0.162,0.153,0.243,0.334,0.243,0.543
				c0,0.305-0.176,0.72-0.526,1.244l-1.976,2.953l2.126,3.274c0.191,0.287,0.33,0.525,0.417,0.714s0.13,0.368,0.13,0.537
				c0,0.16-0.039,0.305-0.116,0.438s-0.187,0.237-0.328,0.314s-0.301,0.116-0.479,0.116c-0.191,0-0.354-0.04-0.485-0.12
				s-0.239-0.179-0.321-0.297s-0.234-0.349-0.458-0.69l-1.764-2.775l-1.873,2.857c-0.146,0.228-0.25,0.387-0.311,0.479
				c-0.063,0.091-0.136,0.18-0.223,0.267s-0.189,0.155-0.308,0.205s-0.258,0.075-0.417,0.075c-0.246,0-0.45-0.075-0.611-0.226
				c-0.162-0.15-0.243-0.369-0.243-0.656C38.401,74.669,38.567,74.257,38.9,73.769z"/>
			<path class="st17" d="M51.109,74.207l-1.606-6.385v6.918c0,0.383-0.085,0.67-0.257,0.861c-0.17,0.191-0.397,0.287-0.68,0.287
				c-0.273,0-0.497-0.095-0.67-0.284s-0.26-0.478-0.26-0.865v-7.93c0-0.438,0.114-0.732,0.342-0.885s0.535-0.229,0.923-0.229h0.629
				c0.378,0,0.653,0.034,0.823,0.103c0.172,0.068,0.298,0.191,0.38,0.369s0.176,0.467,0.28,0.868l1.456,5.489l1.456-5.489
				c0.104-0.401,0.198-0.69,0.28-0.868s0.208-0.301,0.38-0.369c0.17-0.068,0.445-0.103,0.823-0.103h0.629
				c0.388,0,0.695,0.076,0.923,0.229s0.342,0.448,0.342,0.885v7.93c0,0.383-0.086,0.67-0.256,0.861
				c-0.172,0.191-0.4,0.287-0.688,0.287c-0.269,0-0.49-0.096-0.663-0.287s-0.26-0.479-0.26-0.861v-6.918l-1.606,6.385
				c-0.104,0.415-0.19,0.719-0.256,0.913c-0.066,0.194-0.188,0.37-0.366,0.53s-0.424,0.239-0.738,0.239
				c-0.237,0-0.438-0.051-0.602-0.154s-0.292-0.233-0.383-0.393s-0.163-0.336-0.216-0.53C51.218,74.618,51.164,74.416,51.109,74.207
				z"/>
			<path class="st17" d="M61.377,66.755v7.294h4.115c0.328,0,0.58,0.08,0.756,0.239c0.175,0.16,0.263,0.36,0.263,0.602
				c0,0.246-0.087,0.445-0.26,0.598s-0.426,0.229-0.759,0.229h-4.901c-0.442,0-0.76-0.098-0.954-0.294
				c-0.193-0.196-0.29-0.513-0.29-0.95v-7.718c0-0.41,0.093-0.718,0.276-0.923c0.186-0.205,0.428-0.308,0.729-0.308
				c0.306,0,0.553,0.102,0.742,0.304C61.282,66.032,61.377,66.341,61.377,66.755z"/>
		</g>
	</g>
</g>
</svg>
