<?xml version="1.0" encoding="utf-8"?>
<!-- Generator: Adobe Illustrator 16.0.0, SVG Export Plug-In . SVG Version: 6.00 Build 0)  -->
<!DOCTYPE svg PUBLIC "-//W3C//DTD SVG 1.1//EN" "http://www.w3.org/Graphics/SVG/1.1/DTD/svg11.dtd">
<svg version="1.1" id="Layer_1" xmlns="http://www.w3.org/2000/svg" xmlns:xlink="http://www.w3.org/1999/xlink" x="0px" y="0px"
	 width="136.914px" height="136.914px" viewBox="0 0 136.914 136.914" enable-background="new 0 0 136.914 136.914"
	 xml:space="preserve">
<g>
	<g>
		<circle fill="#D7DABA" cx="68.457" cy="68.458" r="63.333"/>
	</g>
	<g>
		<g>
			<path fill="#82469A" d="M43.72,30.196c-2.358,0-4.271,1.912-4.271,4.271v68.351c0,2.359,1.913,4.272,4.271,4.272h49.128
				c2.359,0,4.271-1.913,4.271-4.272V49.979L76.528,30.196H43.72z"/>
		</g>
		<path fill="#693586" d="M97.12,49.979h-16.32c-2.359,0-4.271-1.913-4.271-4.272V30.196L97.12,49.979z"/>
		<path fill="#693586" d="M75.676,77.762c0,2.723-2.207,4.93-4.929,4.93H34.762c-2.723,0-4.929-2.207-4.929-4.93v-15.06
			c0-2.723,2.206-4.93,4.929-4.93h35.985c2.722,0,4.929,2.207,4.929,4.93V77.762z"/>
		<g>
			<path fill="#FFFFFF" d="M41.221,71.471H40.51v3.22c0,0.424-0.094,0.736-0.28,0.937s-0.431,0.301-0.731,0.301
				c-0.323,0-0.574-0.105-0.752-0.314s-0.267-0.517-0.267-0.923V66.98c0-0.438,0.098-0.754,0.294-0.95s0.513-0.294,0.95-0.294h3.302
				c0.456,0,0.846,0.02,1.169,0.058s0.615,0.117,0.875,0.236c0.314,0.132,0.593,0.321,0.834,0.567s0.425,0.532,0.551,0.858
				c0.125,0.326,0.188,0.671,0.188,1.036c0,0.748-0.211,1.344-0.633,1.791c-0.421,0.447-1.061,0.763-1.917,0.95
				c0.36,0.191,0.704,0.474,1.032,0.848s0.621,0.771,0.879,1.193c0.257,0.421,0.457,0.802,0.602,1.142
				c0.143,0.339,0.215,0.573,0.215,0.701c0,0.132-0.042,0.263-0.127,0.393c-0.084,0.13-0.199,0.232-0.345,0.308
				s-0.314,0.113-0.506,0.113c-0.228,0-0.419-0.054-0.574-0.161s-0.288-0.243-0.399-0.407c-0.112-0.164-0.264-0.406-0.455-0.725
				L43.6,73.283c-0.292-0.497-0.553-0.875-0.782-1.135c-0.23-0.26-0.464-0.438-0.701-0.533S41.582,71.471,41.221,71.471z
				 M42.383,67.26H40.51v2.755h1.818c0.487,0,0.897-0.042,1.23-0.126s0.587-0.228,0.763-0.431c0.175-0.203,0.263-0.482,0.263-0.837
				c0-0.278-0.07-0.523-0.212-0.735s-0.337-0.37-0.588-0.475C43.547,67.311,43.081,67.26,42.383,67.26z"/>
			<path fill="#FFFFFF" d="M54.975,74.623l-0.479-1.258h-4.074l-0.479,1.285c-0.187,0.501-0.347,0.84-0.479,1.015
				s-0.349,0.263-0.649,0.263c-0.255,0-0.48-0.093-0.677-0.28s-0.294-0.399-0.294-0.636c0-0.137,0.022-0.278,0.068-0.424
				s0.121-0.349,0.226-0.608l2.563-6.508c0.073-0.187,0.16-0.411,0.264-0.673c0.102-0.262,0.211-0.479,0.328-0.653
				c0.115-0.173,0.269-0.313,0.457-0.42c0.189-0.107,0.423-0.161,0.701-0.161c0.282,0,0.519,0.054,0.707,0.161
				c0.189,0.107,0.342,0.245,0.459,0.414c0.115,0.168,0.214,0.35,0.293,0.543c0.08,0.194,0.182,0.452,0.305,0.776l2.618,6.467
				c0.205,0.492,0.308,0.85,0.308,1.073c0,0.232-0.097,0.445-0.291,0.639c-0.193,0.194-0.427,0.291-0.7,0.291
				c-0.159,0-0.296-0.028-0.41-0.085s-0.21-0.134-0.287-0.232s-0.161-0.249-0.249-0.451C55.115,74.957,55.039,74.777,54.975,74.623z
				 M50.956,71.84h2.994l-1.511-4.136L50.956,71.84z"/>
			<path fill="#FFFFFF" d="M61.36,71.471h-0.711v3.22c0,0.424-0.094,0.736-0.28,0.937s-0.431,0.301-0.731,0.301
				c-0.323,0-0.574-0.105-0.752-0.314s-0.267-0.517-0.267-0.923V66.98c0-0.438,0.098-0.754,0.294-0.95s0.513-0.294,0.95-0.294h3.302
				c0.456,0,0.846,0.02,1.169,0.058s0.615,0.117,0.875,0.236c0.314,0.132,0.593,0.321,0.834,0.567s0.425,0.532,0.551,0.858
				c0.125,0.326,0.188,0.671,0.188,1.036c0,0.748-0.211,1.344-0.633,1.791c-0.421,0.447-1.061,0.763-1.917,0.95
				c0.36,0.191,0.704,0.474,1.032,0.848s0.621,0.771,0.879,1.193c0.257,0.421,0.457,0.802,0.602,1.142
				c0.143,0.339,0.215,0.573,0.215,0.701c0,0.132-0.042,0.263-0.127,0.393c-0.084,0.13-0.199,0.232-0.345,0.308
				s-0.314,0.113-0.506,0.113c-0.228,0-0.419-0.054-0.574-0.161s-0.288-0.243-0.399-0.407c-0.112-0.164-0.264-0.406-0.455-0.725
				l-0.813-1.354c-0.292-0.497-0.553-0.875-0.782-1.135c-0.23-0.26-0.464-0.438-0.701-0.533S61.72,71.471,61.36,71.471z
				 M62.522,67.26h-1.873v2.755h1.818c0.487,0,0.897-0.042,1.23-0.126s0.587-0.228,0.763-0.431c0.175-0.203,0.263-0.482,0.263-0.837
				c0-0.278-0.07-0.523-0.212-0.735s-0.337-0.37-0.588-0.475C63.686,67.311,63.219,67.26,62.522,67.26z"/>
		</g>
	</g>
</g>
</svg>
