<?xml version="1.0" encoding="utf-8"?>
<!-- Generator: Adobe Illustrator 16.0.0, SVG Export Plug-In . SVG Version: 6.00 Build 0)  -->
<!DOCTYPE svg PUBLIC "-//W3C//DTD SVG 1.1//EN" "http://www.w3.org/Graphics/SVG/1.1/DTD/svg11.dtd">
<svg version="1.1" id="Layer_1" xmlns="http://www.w3.org/2000/svg" xmlns:xlink="http://www.w3.org/1999/xlink" x="0px" y="0px"
	 width="136.833px" height="136.834px" viewBox="0 0 136.833 136.834" style="enable-background:new 0 0 136.833 136.834;"
	 xml:space="preserve">
<style type="text/css">
<![CDATA[
	.st0{fill:#7B3A87;}
	.st1{fill:#7F1325;}
	.st2{fill:#E07325;}
	.st3{fill:#194680;}
	.st4{fill:#837C72;}
	.st5{fill:#B3BD35;}
	.st6{fill:#883637;}
	.st7{fill:#EDC92C;}
	.st8{fill:#EF8A21;}
	.st9{fill:#8B4097;}
	.st10{fill:#588DBF;}
	.st11{fill:#8E2852;}
	.st12{fill:#5B4F3F;}
	.st13{fill:#932B63;}
	.st14{fill:#C33F27;}
	.st15{fill:#C6CB2D;}
	.st16{fill:#C76428;}
	.st17{fill:#FFFFFF;}
	.st18{fill:#647131;}
	.st19{fill:#6D6254;}
	.st20{fill:#6DA0D5;}
	.st21{fill:#00599C;}
	.st22{fill:#D57927;}
	.st23{fill:#D7B528;}
	.st24{fill:#D7DABA;}
	.st25{fill:#D85026;}
	.st26{fill:#A11D2A;}
	.st27{fill:#A14443;}
	.st28{fill:#748838;}
	.st29{fill:#A53460;}
	.st30{fill:#A82E6C;}
]]>
</style>
<g>
	<g>
		<circle class="st24" cx="68.417" cy="68.417" r="63.333"/>
	</g>
	<g>
		<g>
			<path class="st9" d="M43.68,30.156c-2.358,0-4.271,1.912-4.271,4.271v68.352c0,2.359,1.913,4.271,4.271,4.271h49.128
				c2.359,0,4.271-1.912,4.271-4.271v-52.84L76.488,30.156H43.68z"/>
		</g>
		<path class="st0" d="M97.08,49.939h-16.32c-2.359,0-4.271-1.912-4.271-4.271V30.156L97.08,49.939z"/>
		<path class="st0" d="M75.636,77.722c0,2.723-2.207,4.93-4.929,4.93H34.722c-2.723,0-4.929-2.207-4.929-4.93V62.662
			c0-2.723,2.206-4.929,4.929-4.929h35.985c2.722,0,4.929,2.206,4.929,4.929V77.722z"/>
		<g>
			<path class="st17" d="M42.791,71.814h-1.859v2.837c0,0.406-0.096,0.713-0.287,0.923s-0.433,0.314-0.725,0.314
				c-0.306,0-0.552-0.104-0.738-0.311s-0.28-0.512-0.28-0.913V66.94c0-0.447,0.103-0.766,0.308-0.957s0.531-0.287,0.978-0.287h2.604
				c0.771,0,1.362,0.059,1.777,0.178c0.41,0.114,0.765,0.303,1.063,0.567c0.298,0.264,0.524,0.588,0.68,0.971
				s0.232,0.813,0.232,1.292c0,1.021-0.314,1.794-0.943,2.321S44.035,71.814,42.791,71.814z M42.299,67.22h-1.367v3.063h1.367
				c0.479,0,0.878-0.05,1.2-0.15c0.32-0.1,0.565-0.264,0.734-0.492s0.253-0.526,0.253-0.896c0-0.442-0.13-0.802-0.39-1.08
				C43.805,67.368,43.206,67.22,42.299,67.22z"/>
			<path class="st17" d="M50.283,66.755v2.871h4.382v-2.871c0-0.41,0.092-0.718,0.277-0.923c0.184-0.205,0.427-0.308,0.728-0.308
				c0.306,0,0.553,0.102,0.741,0.304c0.189,0.203,0.284,0.512,0.284,0.926v7.896c0,0.415-0.096,0.725-0.287,0.93
				s-0.438,0.308-0.738,0.308c-0.306,0-0.549-0.104-0.731-0.311s-0.273-0.516-0.273-0.926v-3.37h-4.382v3.37
				c0,0.415-0.096,0.725-0.287,0.93s-0.438,0.308-0.738,0.308c-0.306,0-0.549-0.104-0.731-0.311s-0.273-0.516-0.273-0.926v-7.896
				c0-0.41,0.09-0.718,0.27-0.923c0.181-0.205,0.426-0.308,0.735-0.308c0.306,0,0.553,0.102,0.741,0.304
				C50.188,66.032,50.283,66.341,50.283,66.755z"/>
			<path class="st17" d="M62.766,71.814h-1.859v2.837c0,0.406-0.096,0.713-0.287,0.923s-0.433,0.314-0.725,0.314
				c-0.306,0-0.552-0.104-0.738-0.311s-0.28-0.512-0.28-0.913V66.94c0-0.447,0.103-0.766,0.308-0.957s0.531-0.287,0.978-0.287h2.604
				c0.771,0,1.362,0.059,1.777,0.178c0.41,0.114,0.765,0.303,1.063,0.567c0.298,0.264,0.524,0.588,0.68,0.971
				s0.232,0.813,0.232,1.292c0,1.021-0.314,1.794-0.943,2.321S64.01,71.814,62.766,71.814z M62.273,67.22h-1.367v3.063h1.367
				c0.479,0,0.878-0.05,1.2-0.15c0.32-0.1,0.565-0.264,0.734-0.492s0.253-0.526,0.253-0.896c0-0.442-0.13-0.802-0.39-1.08
				C63.779,67.368,63.181,67.22,62.273,67.22z"/>
		</g>
	</g>
</g>
</svg>
