<?xml version="1.0" encoding="utf-8"?>
<!-- Generator: Adobe Illustrator 16.0.0, SVG Export Plug-In . SVG Version: 6.00 Build 0)  -->
<!DOCTYPE svg PUBLIC "-//W3C//DTD SVG 1.1//EN" "http://www.w3.org/Graphics/SVG/1.1/DTD/svg11.dtd">
<svg version="1.1" id="Layer_1" xmlns="http://www.w3.org/2000/svg" xmlns:xlink="http://www.w3.org/1999/xlink" x="0px" y="0px"
	 width="136.833px" height="136.834px" viewBox="0 0 136.833 136.834" style="enable-background:new 0 0 136.833 136.834;"
	 xml:space="preserve">
<style type="text/css">
<![CDATA[
	.st0{fill:#7B3A87;}
	.st1{fill:#7F1325;}
	.st2{fill:#E07325;}
	.st3{fill:#194680;}
	.st4{fill:#837C72;}
	.st5{fill:#B3BD35;}
	.st6{fill:#883637;}
	.st7{fill:#EDC92C;}
	.st8{fill:#EF8A21;}
	.st9{fill:#8B4097;}
	.st10{fill:#588DBF;}
	.st11{fill:#8E2852;}
	.st12{fill:#5B4F3F;}
	.st13{fill:#932B63;}
	.st14{fill:#C33F27;}
	.st15{fill:#C6CB2D;}
	.st16{fill:#C76428;}
	.st17{fill:#FFFFFF;}
	.st18{fill:#647131;}
	.st19{fill:#6D6254;}
	.st20{fill:#6DA0D5;}
	.st21{fill:#00599C;}
	.st22{fill:#D57927;}
	.st23{fill:#D7B528;}
	.st24{fill:#D7DABA;}
	.st25{fill:#D85026;}
	.st26{fill:#A11D2A;}
	.st27{fill:#A14443;}
	.st28{fill:#748838;}
	.st29{fill:#A53460;}
	.st30{fill:#A82E6C;}
]]>
</style>
<g>
	<g>
		<circle class="st24" cx="68.416" cy="68.417" r="63.333"/>
	</g>
	<g>
		<g>
			<path class="st30" d="M43.681,30.155c-2.359,0-4.271,1.912-4.271,4.271v68.352c0,2.359,1.912,4.271,4.271,4.271h49.127
				c2.359,0,4.271-1.912,4.271-4.271v-52.84L76.487,30.155H43.681z"/>
		</g>
		<path class="st13" d="M97.079,49.938h-16.32c-2.359,0-4.271-1.912-4.271-4.271V30.155L97.079,49.938z"/>
		<path class="st13" d="M75.636,77.722c0,2.723-2.207,4.93-4.928,4.93H34.722c-2.723,0-4.928-2.207-4.928-4.93V62.661
			c0-2.723,2.205-4.928,4.928-4.928h35.986c2.721,0,4.928,2.205,4.928,4.928V77.722z"/>
		<g>
			<path class="st17" d="M41.359,74.65v-3.179l-2.447-3.794c-0.214-0.342-0.366-0.608-0.454-0.8
				c-0.09-0.191-0.134-0.358-0.134-0.499c0-0.232,0.09-0.433,0.271-0.602c0.18-0.168,0.401-0.253,0.666-0.253
				c0.278,0,0.488,0.079,0.633,0.236c0.143,0.157,0.358,0.471,0.646,0.94l1.873,3.042l1.894-3.042
				c0.114-0.187,0.21-0.344,0.287-0.472s0.163-0.247,0.256-0.359c0.094-0.112,0.197-0.197,0.312-0.256s0.253-0.089,0.417-0.089
				c0.255,0,0.469,0.083,0.639,0.25c0.172,0.167,0.257,0.359,0.257,0.578c0,0.178-0.043,0.355-0.13,0.533s-0.234,0.424-0.444,0.738
				l-2.509,3.849v3.179c0,0.415-0.096,0.725-0.287,0.93s-0.436,0.308-0.731,0.308c-0.301,0-0.545-0.102-0.731-0.304
				S41.359,75.069,41.359,74.65z"/>
			<path class="st17" d="M51.258,74.206l-1.606-6.385v6.918c0,0.383-0.086,0.67-0.256,0.861c-0.172,0.191-0.398,0.287-0.681,0.287
				c-0.273,0-0.497-0.095-0.67-0.284s-0.26-0.478-0.26-0.865v-7.93c0-0.438,0.114-0.732,0.342-0.885s0.535-0.229,0.923-0.229h0.629
				c0.378,0,0.652,0.034,0.824,0.103c0.17,0.068,0.297,0.191,0.379,0.369s0.176,0.467,0.28,0.868l1.456,5.489l1.456-5.489
				c0.104-0.401,0.198-0.69,0.28-0.868s0.209-0.301,0.379-0.369c0.172-0.068,0.446-0.103,0.824-0.103h0.629
				c0.388,0,0.695,0.076,0.923,0.229s0.342,0.448,0.342,0.885v7.93c0,0.383-0.085,0.67-0.257,0.861
				c-0.17,0.191-0.399,0.287-0.687,0.287c-0.269,0-0.49-0.096-0.663-0.287s-0.26-0.479-0.26-0.861v-6.918l-1.606,6.385
				c-0.104,0.415-0.19,0.719-0.257,0.913c-0.065,0.194-0.188,0.37-0.365,0.53s-0.424,0.239-0.738,0.239
				c-0.237,0-0.438-0.051-0.602-0.154s-0.292-0.233-0.383-0.393s-0.163-0.336-0.215-0.53C51.366,74.617,51.313,74.415,51.258,74.206
				z"/>
			<path class="st17" d="M61.525,66.754v7.294h4.115c0.328,0,0.58,0.08,0.755,0.239c0.176,0.16,0.264,0.36,0.264,0.602
				c0,0.246-0.087,0.445-0.26,0.598s-0.426,0.229-0.759,0.229h-4.901c-0.442,0-0.76-0.098-0.953-0.294
				c-0.194-0.196-0.291-0.513-0.291-0.95v-7.718c0-0.41,0.092-0.718,0.277-0.923c0.184-0.205,0.427-0.308,0.728-0.308
				c0.306,0,0.553,0.102,0.741,0.304C61.431,66.031,61.525,66.34,61.525,66.754z"/>
		</g>
	</g>
</g>
</svg>
