<?xml version="1.0" encoding="utf-8"?>
<!-- Generator: Adobe Illustrator 16.0.0, SVG Export Plug-In . SVG Version: 6.00 Build 0)  -->
<!DOCTYPE svg PUBLIC "-//W3C//DTD SVG 1.1//EN" "http://www.w3.org/Graphics/SVG/1.1/DTD/svg11.dtd">
<svg version="1.1" id="Layer_1" xmlns="http://www.w3.org/2000/svg" xmlns:xlink="http://www.w3.org/1999/xlink" x="0px" y="0px"
	 width="136.833px" height="136.834px" viewBox="0 0 136.833 136.834" style="enable-background:new 0 0 136.833 136.834;"
	 xml:space="preserve">
<style type="text/css">
<![CDATA[
	.st0{fill:#7B3A87;}
	.st1{fill:#7F1325;}
	.st2{fill:#E07325;}
	.st3{fill:#194680;}
	.st4{fill:#837C72;}
	.st5{fill:#B3BD35;}
	.st6{fill:#883637;}
	.st7{fill:#EDC92C;}
	.st8{fill:#EF8A21;}
	.st9{fill:#8B4097;}
	.st10{fill:#588DBF;}
	.st11{fill:#8E2852;}
	.st12{fill:#5B4F3F;}
	.st13{fill:#932B63;}
	.st14{fill:#C33F27;}
	.st15{fill:#C6CB2D;}
	.st16{fill:#C76428;}
	.st17{fill:#FFFFFF;}
	.st18{fill:#647131;}
	.st19{fill:#6D6254;}
	.st20{fill:#6DA0D5;}
	.st21{fill:#00599C;}
	.st22{fill:#D57927;}
	.st23{fill:#D7B528;}
	.st24{fill:#D7DABA;}
	.st25{fill:#D85026;}
	.st26{fill:#A11D2A;}
	.st27{fill:#A14443;}
	.st28{fill:#748838;}
	.st29{fill:#A53460;}
	.st30{fill:#A82E6C;}
]]>
</style>
<g>
	<g>
		<circle class="st24" cx="68.416" cy="68.417" r="63.333"/>
	</g>
	<g>
		<g>
			<path class="st20" d="M43.681,30.155c-2.359,0-4.271,1.912-4.271,4.271v68.352c0,2.359,1.912,4.271,4.271,4.271h49.127
				c2.359,0,4.271-1.912,4.271-4.271v-52.84L76.487,30.155H43.681z"/>
		</g>
		<path class="st10" d="M97.079,49.938h-16.32c-2.359,0-4.271-1.912-4.271-4.271V30.155L97.079,49.938z"/>
		<path class="st10" d="M75.636,77.722c0,2.723-2.207,4.93-4.928,4.93H34.722c-2.723,0-4.928-2.207-4.928-4.93V62.661
			c0-2.723,2.205-4.928,4.928-4.928h35.986c2.721,0,4.928,2.205,4.928,4.928V77.722z"/>
		<g>
			<path class="st17" d="M56.914,72.552c0,0.319-0.079,0.664-0.235,1.036c-0.158,0.372-0.405,0.736-0.742,1.094
				s-0.768,0.648-1.292,0.872s-1.135,0.335-1.832,0.335c-0.528,0-1.01-0.05-1.442-0.15s-0.826-0.256-1.18-0.468
				c-0.353-0.212-0.678-0.491-0.974-0.837c-0.265-0.314-0.49-0.667-0.677-1.056s-0.327-0.806-0.42-1.248
				c-0.094-0.442-0.141-0.912-0.141-1.408c0-0.807,0.117-1.529,0.352-2.167c0.235-0.638,0.571-1.184,1.009-1.637
				s0.95-0.799,1.538-1.036s1.215-0.355,1.88-0.355c0.812,0,1.533,0.162,2.167,0.485s1.119,0.724,1.456,1.2s0.506,0.926,0.506,1.35
				c0,0.232-0.082,0.438-0.246,0.615s-0.362,0.267-0.595,0.267c-0.26,0-0.455-0.062-0.584-0.185
				c-0.131-0.123-0.275-0.335-0.435-0.636c-0.265-0.497-0.575-0.868-0.933-1.114c-0.358-0.246-0.799-0.369-1.323-0.369
				c-0.834,0-1.498,0.317-1.993,0.95c-0.494,0.633-0.741,1.534-0.741,2.7c0,0.779,0.109,1.428,0.328,1.945s0.528,0.903,0.93,1.159
				s0.87,0.383,1.408,0.383c0.583,0,1.077-0.145,1.479-0.434c0.404-0.29,0.708-0.714,0.913-1.275
				c0.087-0.264,0.193-0.479,0.321-0.646s0.333-0.25,0.615-0.25c0.241,0,0.449,0.084,0.622,0.253S56.914,72.302,56.914,72.552z"/>
		</g>
	</g>
</g>
</svg>
