<?xml version="1.0" encoding="utf-8"?>
<!-- Generator: Adobe Illustrator 16.0.0, SVG Export Plug-In . SVG Version: 6.00 Build 0)  -->
<!DOCTYPE svg PUBLIC "-//W3C//DTD SVG 1.1//EN" "http://www.w3.org/Graphics/SVG/1.1/DTD/svg11.dtd">
<svg version="1.1" id="Layer_1" xmlns="http://www.w3.org/2000/svg" xmlns:xlink="http://www.w3.org/1999/xlink" x="0px" y="0px"
	 width="136.914px" height="136.914px" viewBox="0 0 136.914 136.914" enable-background="new 0 0 136.914 136.914"
	 xml:space="preserve">
<g>
	<g>
		<circle fill="#D7DABA" cx="68.457" cy="68.457" r="63.333"/>
	</g>
	<g>
		<g>
			<path fill="#1FA85B" d="M43.72,30.195c-2.358,0-4.271,1.913-4.271,4.272v68.351c0,2.359,1.913,4.271,4.271,4.271h49.128
				c2.359,0,4.271-1.912,4.271-4.271v-52.84L76.528,30.195H43.72z"/>
		</g>
		<path fill="#208E4D" d="M97.12,49.979h-16.32c-2.359,0-4.271-1.912-4.271-4.271V30.195L97.12,49.979z"/>
		<path fill="#208E4D" d="M75.676,77.762c0,2.723-2.207,4.93-4.929,4.93H34.762c-2.723,0-4.929-2.207-4.929-4.93v-15.06
			c0-2.723,2.206-4.929,4.929-4.929h35.985c2.722,0,4.929,2.206,4.929,4.929V77.762z"/>
		<g>
			<path fill="#FFFFFF" d="M50.788,71.683v1.921c0,0.255-0.025,0.459-0.075,0.612s-0.143,0.291-0.277,0.414
				c-0.134,0.123-0.306,0.242-0.516,0.355c-0.606,0.328-1.189,0.567-1.75,0.718s-1.171,0.226-1.832,0.226
				c-0.771,0-1.472-0.119-2.105-0.355s-1.174-0.581-1.62-1.032s-0.79-0.998-1.028-1.641c-0.24-0.643-0.359-1.36-0.359-2.153
				c0-0.779,0.116-1.493,0.349-2.14s0.574-1.196,1.025-1.647s1-0.796,1.647-1.036s1.381-0.359,2.201-0.359
				c0.675,0,1.271,0.09,1.791,0.27s0.941,0.407,1.265,0.68s0.567,0.563,0.731,0.868s0.246,0.577,0.246,0.813
				c0,0.255-0.095,0.473-0.283,0.653c-0.189,0.18-0.416,0.27-0.681,0.27c-0.146,0-0.286-0.034-0.421-0.103
				c-0.134-0.068-0.247-0.164-0.338-0.287c-0.251-0.392-0.463-0.688-0.636-0.889s-0.407-0.369-0.7-0.506
				c-0.295-0.137-0.669-0.205-1.125-0.205c-0.47,0-0.889,0.081-1.258,0.243s-0.685,0.396-0.947,0.704
				c-0.262,0.308-0.462,0.685-0.602,1.131c-0.139,0.447-0.208,0.941-0.208,1.483c0,1.176,0.271,2.081,0.81,2.714
				c0.541,0.633,1.294,0.95,2.26,0.95c0.47,0,0.91-0.062,1.322-0.185c0.413-0.123,0.831-0.298,1.255-0.526v-1.627h-1.572
				c-0.378,0-0.664-0.057-0.858-0.171c-0.193-0.114-0.29-0.308-0.29-0.581c0-0.223,0.081-0.408,0.243-0.554
				c0.161-0.146,0.381-0.219,0.659-0.219h2.304c0.282,0,0.521,0.025,0.718,0.075s0.354,0.162,0.476,0.335
				C50.727,71.077,50.788,71.337,50.788,71.683z"/>
			<path fill="#FFFFFF" d="M52.804,74.691v-7.896c0-0.41,0.094-0.718,0.28-0.923s0.429-0.308,0.725-0.308
				c0.306,0,0.553,0.102,0.741,0.304c0.189,0.203,0.284,0.512,0.284,0.926v7.896c0,0.415-0.095,0.725-0.284,0.93
				c-0.188,0.205-0.436,0.308-0.741,0.308c-0.292,0-0.532-0.104-0.722-0.311C52.899,75.41,52.804,75.101,52.804,74.691z"/>
			<path fill="#FFFFFF" d="M63.092,67.301h-3.999v2.563h3.343c0.31,0,0.541,0.069,0.694,0.208c0.152,0.139,0.229,0.325,0.229,0.557
				s-0.077,0.417-0.232,0.554s-0.385,0.205-0.69,0.205h-3.343v3.302c0,0.419-0.095,0.73-0.283,0.933
				c-0.189,0.203-0.433,0.304-0.729,0.304c-0.301,0-0.546-0.103-0.734-0.308c-0.189-0.205-0.284-0.515-0.284-0.93V66.98
				c0-0.292,0.043-0.53,0.13-0.714s0.223-0.319,0.406-0.403c0.186-0.084,0.421-0.126,0.708-0.126h4.785
				c0.323,0,0.563,0.072,0.722,0.215c0.156,0.144,0.235,0.332,0.235,0.564c0,0.237-0.079,0.427-0.235,0.571
				C63.656,67.229,63.416,67.301,63.092,67.301z"/>
		</g>
	</g>
</g>
</svg>
