<?xml version="1.0" encoding="utf-8"?>
<!-- Generator: Adobe Illustrator 16.0.0, SVG Export Plug-In . SVG Version: 6.00 Build 0)  -->
<!DOCTYPE svg PUBLIC "-//W3C//DTD SVG 1.1//EN" "http://www.w3.org/Graphics/SVG/1.1/DTD/svg11.dtd">
<svg version="1.1" id="Layer_1" xmlns="http://www.w3.org/2000/svg" xmlns:xlink="http://www.w3.org/1999/xlink" x="0px" y="0px"
	 width="136.833px" height="136.833px" viewBox="0 0 136.833 136.833" style="enable-background:new 0 0 136.833 136.833;"
	 xml:space="preserve">
<style type="text/css">
<![CDATA[
	.st0{fill:#7B3A87;}
	.st1{fill:#7F1325;}
	.st2{fill:#E07325;}
	.st3{fill:#194680;}
	.st4{fill:#837C72;}
	.st5{fill:#B3BD35;}
	.st6{fill:#883637;}
	.st7{fill:#EDC92C;}
	.st8{fill:#EF8A21;}
	.st9{fill:#8B4097;}
	.st10{fill:#588DBF;}
	.st11{fill:#8E2852;}
	.st12{fill:#5B4F3F;}
	.st13{fill:#932B63;}
	.st14{fill:#C33F27;}
	.st15{fill:#C6CB2D;}
	.st16{fill:#C76428;}
	.st17{fill:#FFFFFF;}
	.st18{fill:#647131;}
	.st19{fill:#6D6254;}
	.st20{fill:#6DA0D5;}
	.st21{fill:#00599C;}
	.st22{fill:#D57927;}
	.st23{fill:#D7B528;}
	.st24{fill:#D7DABA;}
	.st25{fill:#D85026;}
	.st26{fill:#A11D2A;}
	.st27{fill:#A14443;}
	.st28{fill:#748838;}
	.st29{fill:#A53460;}
	.st30{fill:#A82E6C;}
]]>
</style>
<g>
	<g>
		<circle class="st24" cx="68.417" cy="68.417" r="63.333"/>
	</g>
	<g>
		<g>
			<path class="st4" d="M43.681,30.155c-2.359,0-4.271,1.912-4.271,4.271v68.352c0,2.359,1.912,4.271,4.271,4.271h49.127
				c2.359,0,4.271-1.912,4.271-4.271v-52.84L76.488,30.155H43.681z"/>
		</g>
		<path class="st19" d="M97.08,49.938h-16.32c-2.359,0-4.271-1.912-4.271-4.271V30.155L97.08,49.938z"/>
		<path class="st19" d="M75.636,77.721c0,2.723-2.207,4.93-4.928,4.93H34.722c-2.723,0-4.928-2.207-4.928-4.93V62.661
			c0-2.723,2.205-4.928,4.928-4.928h35.986c2.721,0,4.928,2.205,4.928,4.928V77.721z"/>
		<g>
			<path class="st17" d="M46.596,67.261h-4.573v2.461h4.211c0.31,0,0.541,0.069,0.693,0.209c0.153,0.139,0.229,0.322,0.229,0.55
				s-0.075,0.413-0.226,0.558c-0.15,0.143-0.383,0.215-0.697,0.215h-4.211v2.851h4.73c0.319,0,0.56,0.074,0.721,0.222
				c0.162,0.148,0.243,0.346,0.243,0.592c0,0.236-0.081,0.43-0.243,0.578c-0.161,0.147-0.401,0.222-0.721,0.222h-5.517
				c-0.442,0-0.76-0.099-0.954-0.294c-0.193-0.195-0.29-0.513-0.29-0.95V66.94c0-0.292,0.043-0.53,0.13-0.714
				s0.223-0.319,0.406-0.403c0.186-0.084,0.421-0.126,0.708-0.126h5.359c0.323,0,0.563,0.072,0.722,0.215
				c0.156,0.144,0.235,0.332,0.235,0.564c0,0.237-0.079,0.427-0.235,0.571C47.16,67.189,46.919,67.261,46.596,67.261z"/>
			<path class="st17" d="M48.961,73.769l2.242-3.274l-1.887-2.912c-0.178-0.283-0.312-0.525-0.399-0.728
				c-0.09-0.203-0.134-0.397-0.134-0.584c0-0.191,0.085-0.363,0.257-0.516c0.17-0.153,0.379-0.229,0.625-0.229
				c0.282,0,0.502,0.083,0.66,0.25c0.156,0.167,0.374,0.475,0.652,0.926l1.504,2.434l1.606-2.434
				c0.132-0.205,0.245-0.38,0.339-0.526c0.093-0.146,0.183-0.267,0.27-0.362s0.184-0.167,0.291-0.215
				c0.106-0.048,0.23-0.072,0.372-0.072c0.255,0,0.464,0.076,0.626,0.229c0.161,0.153,0.242,0.334,0.242,0.543
				c0,0.305-0.176,0.72-0.526,1.244l-1.976,2.953l2.126,3.274c0.191,0.287,0.33,0.525,0.417,0.715
				c0.087,0.188,0.13,0.367,0.13,0.536c0,0.159-0.039,0.306-0.116,0.438s-0.187,0.237-0.328,0.314s-0.301,0.116-0.479,0.116
				c-0.191,0-0.354-0.04-0.485-0.119c-0.132-0.08-0.239-0.18-0.321-0.298s-0.234-0.349-0.458-0.69l-1.764-2.775l-1.873,2.857
				c-0.146,0.229-0.249,0.387-0.312,0.479c-0.061,0.092-0.135,0.18-0.222,0.267s-0.189,0.155-0.308,0.205s-0.258,0.075-0.417,0.075
				c-0.246,0-0.45-0.075-0.612-0.226c-0.161-0.15-0.242-0.369-0.242-0.656C48.462,74.669,48.628,74.257,48.961,73.769z"/>
			<path class="st17" d="M64.39,67.261h-4.573v2.461h4.211c0.31,0,0.541,0.069,0.694,0.209c0.152,0.139,0.229,0.322,0.229,0.55
				s-0.075,0.413-0.226,0.558c-0.15,0.143-0.383,0.215-0.697,0.215h-4.211v2.851h4.73c0.319,0,0.56,0.074,0.722,0.222
				c0.161,0.148,0.242,0.346,0.242,0.592c0,0.236-0.081,0.43-0.242,0.578c-0.162,0.147-0.402,0.222-0.722,0.222h-5.517
				c-0.442,0-0.76-0.099-0.953-0.294c-0.194-0.195-0.291-0.513-0.291-0.95V66.94c0-0.292,0.043-0.53,0.13-0.714
				s0.222-0.319,0.407-0.403c0.184-0.084,0.42-0.126,0.707-0.126h5.359c0.323,0,0.564,0.072,0.721,0.215
				c0.158,0.144,0.236,0.332,0.236,0.564c0,0.237-0.078,0.427-0.236,0.571C64.955,67.189,64.713,67.261,64.39,67.261z"/>
		</g>
	</g>
</g>
</svg>
