<?xml version="1.0" encoding="utf-8"?>
<!-- Generator: Adobe Illustrator 16.0.0, SVG Export Plug-In . SVG Version: 6.00 Build 0)  -->
<!DOCTYPE svg PUBLIC "-//W3C//DTD SVG 1.1//EN" "http://www.w3.org/Graphics/SVG/1.1/DTD/svg11.dtd">
<svg version="1.1" id="Layer_1" xmlns="http://www.w3.org/2000/svg" xmlns:xlink="http://www.w3.org/1999/xlink" x="0px" y="0px"
	 width="136.914px" height="136.914px" viewBox="0 0 136.914 136.914" enable-background="new 0 0 136.914 136.914"
	 xml:space="preserve">
<g>
	<g>
		<circle fill="#D7DABA" cx="68.457" cy="68.457" r="63.333"/>
	</g>
	<g>
		<g>
			<g>
				<path fill="#368BCA" d="M43.72,30.195c-2.358,0-4.271,1.913-4.271,4.272v68.351c0,2.359,1.913,4.271,4.271,4.271h49.128
					c2.359,0,4.271-1.912,4.271-4.271v-52.84L76.528,30.195H43.72z"/>
			</g>
		</g>
		<path fill="#0E81C2" d="M97.12,49.979h-16.32c-2.359,0-4.271-1.912-4.271-4.271V30.195L97.12,49.979z"/>
		<path fill="#0E81C2" d="M75.676,77.762c0,2.723-2.207,4.93-4.929,4.93H34.762c-2.723,0-4.929-2.207-4.929-4.93v-15.06
			c0-2.723,2.206-4.93,4.929-4.93h35.985c2.722,0,4.929,2.207,4.929,4.93V77.762z"/>
		<g>
			<path fill="#FFFFFF" d="M52.005,74.513c0.296,0.201,0.62,0.396,0.971,0.584s0.583,0.339,0.697,0.451s0.171,0.27,0.171,0.475
				c0,0.146-0.067,0.292-0.202,0.438c-0.134,0.146-0.297,0.219-0.488,0.219c-0.155,0-0.343-0.05-0.564-0.15
				c-0.221-0.1-0.48-0.246-0.779-0.438c-0.298-0.191-0.625-0.415-0.98-0.67c-0.661,0.337-1.472,0.506-2.434,0.506
				c-0.779,0-1.478-0.124-2.096-0.373c-0.617-0.249-1.136-0.606-1.555-1.073s-0.734-1.022-0.947-1.665
				c-0.211-0.643-0.317-1.342-0.317-2.099c0-0.77,0.11-1.477,0.331-2.119c0.222-0.643,0.542-1.189,0.961-1.641
				s0.93-0.796,1.531-1.036s1.285-0.359,2.051-0.359c1.039,0,1.932,0.211,2.676,0.632c0.746,0.421,1.31,1.021,1.692,1.798
				s0.574,1.689,0.574,2.738C53.297,72.323,52.867,73.583,52.005,74.513z M50.413,73.406c0.282-0.324,0.491-0.707,0.626-1.148
				c0.134-0.442,0.201-0.955,0.201-1.538c0-0.734-0.118-1.37-0.355-1.907s-0.575-0.944-1.016-1.22
				c-0.439-0.276-0.944-0.414-1.514-0.414c-0.405,0-0.78,0.076-1.125,0.229c-0.344,0.153-0.64,0.375-0.889,0.667
				c-0.248,0.292-0.443,0.664-0.588,1.118c-0.143,0.454-0.215,0.963-0.215,1.528c0,1.153,0.269,2.041,0.807,2.663
				s1.217,0.933,2.037,0.933c0.337,0,0.684-0.071,1.039-0.212c-0.214-0.16-0.482-0.319-0.803-0.479
				c-0.322-0.16-0.542-0.283-0.66-0.369s-0.178-0.209-0.178-0.369c0-0.137,0.057-0.257,0.171-0.362s0.239-0.157,0.376-0.157
				C48.743,72.367,49.437,72.713,50.413,73.406z"/>
			<path fill="#FFFFFF" d="M61.008,67.411h-2.215v7.28c0,0.419-0.094,0.73-0.28,0.933s-0.429,0.304-0.725,0.304
				c-0.301,0-0.546-0.103-0.734-0.308c-0.189-0.205-0.284-0.515-0.284-0.93v-7.28h-2.215c-0.347,0-0.604-0.076-0.772-0.229
				s-0.253-0.354-0.253-0.605c0-0.26,0.088-0.465,0.263-0.615c0.176-0.15,0.43-0.226,0.763-0.226h6.453
				c0.351,0,0.612,0.078,0.782,0.232c0.172,0.155,0.257,0.358,0.257,0.608s-0.087,0.452-0.26,0.605S61.355,67.411,61.008,67.411z"/>
		</g>
	</g>
</g>
</svg>
