<?xml version="1.0" encoding="utf-8"?>
<!-- Generator: Adobe Illustrator 16.0.0, SVG Export Plug-In . SVG Version: 6.00 Build 0)  -->
<!DOCTYPE svg PUBLIC "-//W3C//DTD SVG 1.1//EN" "http://www.w3.org/Graphics/SVG/1.1/DTD/svg11.dtd">
<svg version="1.1" id="Layer_1" xmlns="http://www.w3.org/2000/svg" xmlns:xlink="http://www.w3.org/1999/xlink" x="0px" y="0px"
	 width="136.833px" height="136.834px" viewBox="0 0 136.833 136.834" style="enable-background:new 0 0 136.833 136.834;"
	 xml:space="preserve">
<style type="text/css">
<![CDATA[
	.st0{fill:#7A6F64;}
	.st1{fill:#7D9D3E;}
	.st2{fill:#ACC337;}
	.st3{fill:#E23A37;}
	.st4{fill:#E37A26;}
	.st5{fill:#163749;}
	.st6{fill:#4A6C96;}
	.st7{fill:#E88524;}
	.st8{fill:#B56027;}
	.st9{fill:#88A0D2;}
	.st10{fill:#517AA6;}
	.st11{fill:#588DBF;}
	.st12{fill:#59337F;}
	.st13{fill:#8D964E;}
	.st14{fill:#8F8376;}
	.st15{fill:#21455F;}
	.st16{fill:#BF2026;}
	.st17{fill:#F7981D;}
	.st18{fill:#2A4049;}
	.st19{fill:#96B33D;}
	.st20{fill:#C93332;}
	.st21{fill:#FFFFFF;}
	.st22{fill:#CA2027;}
	.st23{fill:#CB7429;}
	.st24{fill:#9DCB3B;}
	.st25{fill:#344E5D;}
	.st26{fill:#355670;}
	.st27{fill:#396183;}
	.st28{fill:#6DA0D5;}
	.st29{fill:#6E4095;}
	.st30{fill:#6F8BC6;}
	.st31{fill:#D06A28;}
	.st32{fill:#3C5B78;}
	.st33{fill:#D7DABA;}
	.st34{fill:#718839;}
	.st35{fill:#A1B13A;}
	.st36{fill:#73773D;}
	.st37{fill:#DA1F26;}
]]>
</style>
<g>
	<g>
		<circle class="st33" cx="68.416" cy="68.418" r="63.333"/>
	</g>
	<g>
		<g>
			<path class="st1" d="M43.681,30.155c-2.359,0-4.271,1.912-4.271,4.271v68.353c0,2.359,1.912,4.271,4.271,4.271h49.127
				c2.359,0,4.271-1.912,4.271-4.271v-52.84L76.487,30.155H43.681z"/>
		</g>
		<path class="st34" d="M97.079,49.939h-16.32c-2.359,0-4.271-1.913-4.271-4.272V30.155L97.079,49.939z"/>
		<path class="st34" d="M75.636,77.723c0,2.723-2.207,4.93-4.928,4.93H34.722c-2.723,0-4.928-2.207-4.928-4.93V62.662
			c0-2.723,2.205-4.93,4.928-4.93h35.986c2.721,0,4.928,2.207,4.928,4.93V77.723z"/>
		<g>
			<path class="st21" d="M40.33,73.769l2.242-3.274l-1.887-2.912c-0.178-0.283-0.312-0.525-0.399-0.728
				c-0.09-0.203-0.134-0.397-0.134-0.584c0-0.191,0.085-0.363,0.257-0.516c0.17-0.153,0.379-0.229,0.625-0.229
				c0.282,0,0.502,0.083,0.66,0.25c0.156,0.167,0.374,0.475,0.652,0.926l1.504,2.434l1.606-2.434
				c0.132-0.205,0.245-0.38,0.339-0.526c0.093-0.146,0.183-0.267,0.27-0.362s0.184-0.167,0.291-0.215
				c0.106-0.048,0.23-0.072,0.372-0.072c0.255,0,0.464,0.076,0.626,0.229c0.161,0.153,0.242,0.334,0.242,0.543
				c0,0.305-0.176,0.72-0.526,1.244l-1.976,2.953l2.126,3.274c0.191,0.287,0.33,0.525,0.417,0.714s0.13,0.368,0.13,0.537
				c0,0.16-0.039,0.305-0.116,0.438s-0.187,0.237-0.328,0.314s-0.301,0.116-0.479,0.116c-0.191,0-0.354-0.04-0.485-0.12
				s-0.239-0.179-0.321-0.297s-0.234-0.349-0.458-0.69l-1.764-2.775l-1.873,2.857c-0.146,0.228-0.249,0.387-0.312,0.479
				c-0.061,0.091-0.135,0.18-0.222,0.267s-0.189,0.155-0.308,0.205s-0.258,0.075-0.417,0.075c-0.246,0-0.45-0.075-0.612-0.226
				c-0.161-0.15-0.242-0.369-0.242-0.656C39.831,74.669,39.997,74.257,40.33,73.769z"/>
			<path class="st21" d="M51.145,66.755v7.294h4.115c0.328,0,0.58,0.08,0.755,0.239c0.176,0.16,0.264,0.36,0.264,0.602
				c0,0.246-0.087,0.445-0.26,0.598s-0.426,0.229-0.759,0.229h-4.901c-0.442,0-0.76-0.098-0.953-0.294
				c-0.194-0.196-0.291-0.513-0.291-0.95v-7.718c0-0.41,0.092-0.718,0.277-0.923c0.184-0.205,0.427-0.308,0.728-0.308
				c0.306,0,0.553,0.102,0.741,0.304C51.05,66.032,51.145,66.341,51.145,66.755z"/>
			<path class="st21" d="M64.693,72.709c0,0.606-0.156,1.151-0.468,1.634c-0.313,0.483-0.77,0.861-1.371,1.135
				s-1.314,0.41-2.14,0.41c-0.989,0-1.805-0.187-2.447-0.561c-0.456-0.269-0.826-0.628-1.11-1.077
				c-0.285-0.449-0.428-0.885-0.428-1.309c0-0.246,0.086-0.457,0.256-0.632c0.172-0.175,0.389-0.263,0.653-0.263
				c0.214,0,0.396,0.068,0.544,0.205c0.147,0.137,0.274,0.339,0.379,0.608c0.128,0.319,0.266,0.585,0.414,0.8
				c0.147,0.214,0.356,0.391,0.625,0.53s0.622,0.208,1.06,0.208c0.602,0,1.091-0.14,1.466-0.42c0.377-0.28,0.564-0.63,0.564-1.049
				c0-0.333-0.102-0.603-0.305-0.81c-0.202-0.208-0.465-0.366-0.785-0.475c-0.322-0.109-0.751-0.226-1.289-0.349
				c-0.72-0.168-1.322-0.366-1.809-0.591c-0.484-0.226-0.87-0.533-1.154-0.923c-0.285-0.39-0.428-0.874-0.428-1.453
				c0-0.551,0.15-1.042,0.451-1.47s0.736-0.758,1.306-0.988s1.239-0.345,2.01-0.345c0.615,0,1.147,0.076,1.597,0.229
				c0.448,0.153,0.821,0.355,1.117,0.608s0.513,0.519,0.649,0.796s0.205,0.549,0.205,0.813c0,0.242-0.085,0.459-0.257,0.653
				c-0.17,0.194-0.384,0.291-0.639,0.291c-0.232,0-0.409-0.058-0.529-0.174c-0.121-0.116-0.252-0.307-0.394-0.571
				c-0.183-0.378-0.401-0.673-0.656-0.885s-0.665-0.318-1.23-0.318c-0.524,0-0.946,0.115-1.269,0.345
				c-0.32,0.23-0.481,0.507-0.481,0.831c0,0.201,0.055,0.374,0.164,0.52s0.26,0.271,0.451,0.376s0.385,0.187,0.581,0.246
				s0.52,0.146,0.971,0.26c0.565,0.132,1.076,0.278,1.535,0.438c0.457,0.16,0.848,0.353,1.168,0.581
				c0.322,0.228,0.572,0.516,0.752,0.865C64.604,71.776,64.693,72.204,64.693,72.709z"/>
		</g>
	</g>
</g>
</svg>
