<?xml version="1.0" encoding="utf-8"?>
<!-- Generator: Adobe Illustrator 16.0.0, SVG Export Plug-In . SVG Version: 6.00 Build 0)  -->
<!DOCTYPE svg PUBLIC "-//W3C//DTD SVG 1.1//EN" "http://www.w3.org/Graphics/SVG/1.1/DTD/svg11.dtd">
<svg version="1.1" id="Layer_1" xmlns="http://www.w3.org/2000/svg" xmlns:xlink="http://www.w3.org/1999/xlink" x="0px" y="0px"
	 width="136.914px" height="136.914px" viewBox="0 0 136.914 136.914" enable-background="new 0 0 136.914 136.914"
	 xml:space="preserve">
<g>
	<g>
		<circle fill="#D7DABA" cx="68.457" cy="68.457" r="63.333"/>
	</g>
	<g>
		<g>
			<g>
				<path fill="#2C9DD8" d="M43.72,30.195c-2.358,0-4.271,1.912-4.271,4.271v68.352c0,2.359,1.913,4.271,4.271,4.271h49.128
					c2.359,0,4.271-1.912,4.271-4.271v-52.84L76.528,30.195H43.72z"/>
			</g>
		</g>
		<path fill="#2489B7" d="M97.12,49.979h-16.32c-2.359,0-4.271-1.912-4.271-4.271V30.195L97.12,49.979z"/>
		<path fill="#2489B7" d="M75.676,77.762c0,2.723-2.207,4.93-4.929,4.93H34.762c-2.723,0-4.929-2.207-4.929-4.93V62.701
			c0-2.723,2.206-4.929,4.929-4.929h35.985c2.722,0,4.929,2.206,4.929,4.929V77.762z"/>
		<g>
			<path fill="#FFFFFF" d="M44.632,74.178l-1.62-6.009l-1.641,6.009c-0.128,0.456-0.229,0.783-0.304,0.981
				c-0.076,0.198-0.207,0.376-0.394,0.533s-0.436,0.236-0.745,0.236c-0.251,0-0.457-0.047-0.619-0.14
				c-0.161-0.093-0.292-0.226-0.393-0.396s-0.183-0.374-0.246-0.608S38.55,74.331,38.5,74.13l-1.668-6.747
				c-0.101-0.392-0.15-0.69-0.15-0.896c0-0.26,0.091-0.479,0.273-0.656s0.408-0.267,0.677-0.267c0.369,0,0.617,0.119,0.745,0.355
				s0.239,0.581,0.335,1.032l1.313,5.852l1.47-5.476c0.109-0.419,0.207-0.738,0.294-0.957s0.228-0.408,0.424-0.567
				s0.463-0.239,0.8-0.239c0.342,0,0.607,0.083,0.796,0.25c0.189,0.167,0.32,0.348,0.394,0.543s0.171,0.52,0.294,0.971l1.483,5.476
				l1.313-5.852c0.063-0.305,0.124-0.544,0.181-0.718c0.058-0.173,0.155-0.328,0.295-0.465c0.139-0.137,0.34-0.205,0.604-0.205
				s0.489,0.088,0.673,0.263c0.186,0.175,0.277,0.396,0.277,0.66c0,0.187-0.05,0.485-0.15,0.896l-1.668,6.747
				c-0.114,0.456-0.209,0.79-0.283,1.001c-0.076,0.212-0.203,0.397-0.383,0.557c-0.181,0.16-0.435,0.239-0.763,0.239
				c-0.31,0-0.559-0.078-0.745-0.232s-0.316-0.329-0.39-0.523S44.764,74.647,44.632,74.178z"/>
			<path fill="#FFFFFF" d="M57.081,74.622l-0.479-1.258h-4.074l-0.479,1.285c-0.187,0.501-0.347,0.84-0.479,1.015
				s-0.349,0.263-0.649,0.263c-0.255,0-0.48-0.093-0.677-0.28s-0.294-0.399-0.294-0.636c0-0.137,0.022-0.278,0.068-0.424
				s0.121-0.349,0.226-0.608l2.563-6.508c0.073-0.187,0.16-0.411,0.264-0.673c0.102-0.262,0.211-0.479,0.328-0.653
				c0.115-0.173,0.269-0.313,0.457-0.42c0.189-0.107,0.423-0.161,0.701-0.161c0.282,0,0.519,0.054,0.707,0.161
				c0.189,0.107,0.342,0.245,0.459,0.414c0.115,0.168,0.214,0.35,0.293,0.543c0.08,0.194,0.182,0.452,0.305,0.776l2.618,6.467
				c0.205,0.492,0.308,0.85,0.308,1.073c0,0.232-0.097,0.445-0.291,0.639c-0.193,0.194-0.427,0.291-0.7,0.291
				c-0.159,0-0.296-0.028-0.41-0.085s-0.21-0.134-0.287-0.232s-0.161-0.249-0.249-0.451C57.22,74.956,57.144,74.777,57.081,74.622z
				 M53.061,71.84h2.994l-1.511-4.136L53.061,71.84z"/>
			<path fill="#FFFFFF" d="M61.51,66.897l2.27,6.72l2.276-6.768c0.118-0.355,0.207-0.603,0.267-0.742s0.157-0.264,0.294-0.376
				s0.323-0.167,0.561-0.167c0.173,0,0.334,0.043,0.482,0.13c0.147,0.086,0.264,0.202,0.348,0.345
				c0.085,0.144,0.127,0.288,0.127,0.434c0,0.1-0.014,0.208-0.041,0.325s-0.062,0.23-0.103,0.342s-0.082,0.227-0.123,0.345
				l-2.427,6.549c-0.087,0.25-0.173,0.489-0.26,0.714s-0.187,0.424-0.301,0.595s-0.266,0.311-0.455,0.42
				c-0.188,0.109-0.42,0.164-0.693,0.164s-0.505-0.054-0.693-0.161c-0.189-0.107-0.342-0.249-0.459-0.424
				c-0.115-0.175-0.217-0.375-0.304-0.598s-0.173-0.46-0.26-0.711L59.63,67.54c-0.041-0.119-0.083-0.235-0.127-0.349
				c-0.043-0.114-0.079-0.237-0.109-0.369c-0.029-0.132-0.044-0.244-0.044-0.335c0-0.232,0.094-0.444,0.28-0.636
				s0.422-0.287,0.704-0.287c0.347,0,0.591,0.106,0.735,0.318C61.212,66.094,61.36,66.433,61.51,66.897z"/>
		</g>
	</g>
</g>
</svg>
