<?xml version="1.0" encoding="utf-8"?>
<!-- Generator: Adobe Illustrator 16.0.0, SVG Export Plug-In . SVG Version: 6.00 Build 0)  -->
<!DOCTYPE svg PUBLIC "-//W3C//DTD SVG 1.1//EN" "http://www.w3.org/Graphics/SVG/1.1/DTD/svg11.dtd">
<svg version="1.1" id="Layer_1" xmlns="http://www.w3.org/2000/svg" xmlns:xlink="http://www.w3.org/1999/xlink" x="0px" y="0px"
	 width="136.914px" height="136.914px" viewBox="0 0 136.914 136.914" enable-background="new 0 0 136.914 136.914"
	 xml:space="preserve">
<g>
	<g>
		<circle fill="#D7DABA" cx="68.457" cy="68.457" r="63.333"/>
	</g>
	<g>
		<g>
			<path fill="#F1612F" d="M43.72,30.195c-2.358,0-4.271,1.912-4.271,4.271v68.351c0,2.359,1.913,4.272,4.271,4.272h49.128
				c2.359,0,4.271-1.913,4.271-4.272V49.979L76.528,30.195H43.72z"/>
		</g>
		<path fill="#DE532B" d="M97.12,49.979h-16.32c-2.359,0-4.271-1.913-4.271-4.272V30.195L97.12,49.979z"/>
		<path fill="#DE532B" d="M75.676,77.761c0,2.723-2.207,4.93-4.929,4.93H34.762c-2.723,0-4.929-2.207-4.929-4.93v-15.06
			c0-2.723,2.206-4.929,4.929-4.929h35.985c2.722,0,4.929,2.206,4.929,4.929V77.761z"/>
		<g>
			<path fill="#FFFFFF" d="M40.972,74.246l-1.606-6.385v6.918c0,0.383-0.085,0.67-0.257,0.861c-0.17,0.191-0.397,0.287-0.68,0.287
				c-0.273,0-0.497-0.095-0.67-0.284s-0.26-0.478-0.26-0.865v-7.93c0-0.438,0.114-0.732,0.342-0.885s0.535-0.229,0.923-0.229h0.629
				c0.378,0,0.653,0.034,0.823,0.103c0.172,0.068,0.298,0.191,0.38,0.369s0.176,0.467,0.28,0.868l1.456,5.489l1.456-5.489
				c0.104-0.401,0.198-0.69,0.28-0.868s0.208-0.301,0.38-0.369c0.17-0.068,0.445-0.103,0.823-0.103h0.629
				c0.388,0,0.695,0.076,0.923,0.229s0.342,0.448,0.342,0.885v7.93c0,0.383-0.086,0.67-0.256,0.861
				c-0.172,0.191-0.4,0.287-0.688,0.287c-0.269,0-0.49-0.096-0.663-0.287s-0.26-0.479-0.26-0.861v-6.918l-1.606,6.385
				c-0.104,0.415-0.19,0.719-0.256,0.913c-0.066,0.194-0.188,0.37-0.366,0.53s-0.424,0.239-0.738,0.239
				c-0.237,0-0.438-0.051-0.602-0.154s-0.292-0.233-0.383-0.393s-0.163-0.336-0.216-0.53C41.081,74.657,41.027,74.455,40.972,74.246
				z"/>
			<path fill="#FFFFFF" d="M53.66,65.564c1.039,0,1.932,0.211,2.676,0.632c0.746,0.421,1.31,1.021,1.692,1.798
				s0.574,1.689,0.574,2.738c0,0.775-0.104,1.479-0.314,2.112s-0.524,1.183-0.943,1.647s-0.935,0.82-1.545,1.066
				s-1.311,0.369-2.099,0.369c-0.784,0-1.485-0.126-2.105-0.379s-1.137-0.609-1.552-1.07s-0.728-1.014-0.94-1.661
				c-0.211-0.647-0.317-1.347-0.317-2.099c0-0.77,0.11-1.477,0.331-2.119c0.222-0.643,0.542-1.189,0.961-1.641
				s0.93-0.796,1.531-1.036S52.894,65.564,53.66,65.564z M56.544,70.718c0-0.734-0.118-1.37-0.355-1.907s-0.575-0.944-1.016-1.22
				c-0.439-0.276-0.944-0.414-1.514-0.414c-0.405,0-0.78,0.076-1.125,0.229c-0.344,0.153-0.64,0.375-0.889,0.667
				c-0.248,0.292-0.443,0.664-0.588,1.118c-0.143,0.454-0.215,0.963-0.215,1.528c0,0.57,0.072,1.084,0.215,1.545
				c0.145,0.46,0.347,0.842,0.609,1.145c0.262,0.303,0.563,0.53,0.902,0.68c0.339,0.15,0.712,0.226,1.117,0.226
				c0.52,0,0.997-0.13,1.432-0.39c0.436-0.26,0.782-0.661,1.039-1.203C56.416,72.179,56.544,71.511,56.544,70.718z"/>
			<path fill="#FFFFFF" d="M61.459,66.897l2.27,6.72l2.276-6.768c0.118-0.355,0.207-0.603,0.267-0.742s0.157-0.264,0.294-0.376
				s0.323-0.167,0.561-0.167c0.173,0,0.334,0.043,0.482,0.13c0.147,0.086,0.264,0.202,0.348,0.345
				c0.085,0.144,0.127,0.288,0.127,0.434c0,0.1-0.014,0.208-0.041,0.325s-0.062,0.23-0.103,0.342s-0.082,0.227-0.123,0.345
				l-2.427,6.549c-0.087,0.25-0.173,0.489-0.26,0.714s-0.187,0.424-0.301,0.595s-0.266,0.311-0.455,0.42
				c-0.188,0.109-0.42,0.164-0.693,0.164s-0.505-0.054-0.693-0.161c-0.189-0.107-0.342-0.249-0.459-0.424
				c-0.115-0.175-0.217-0.375-0.304-0.598s-0.173-0.46-0.26-0.711L59.58,67.54c-0.041-0.119-0.083-0.235-0.127-0.349
				c-0.043-0.114-0.079-0.237-0.109-0.369c-0.029-0.132-0.044-0.244-0.044-0.335c0-0.232,0.094-0.444,0.28-0.636
				s0.422-0.287,0.704-0.287c0.347,0,0.591,0.106,0.735,0.318C61.162,66.094,61.309,66.432,61.459,66.897z"/>
		</g>
	</g>
</g>
</svg>
