<?xml version="1.0" encoding="utf-8"?>
<!-- Generator: Adobe Illustrator 16.0.0, SVG Export Plug-In . SVG Version: 6.00 Build 0)  -->
<!DOCTYPE svg PUBLIC "-//W3C//DTD SVG 1.1//EN" "http://www.w3.org/Graphics/SVG/1.1/DTD/svg11.dtd">
<svg version="1.1" id="Layer_1" xmlns="http://www.w3.org/2000/svg" xmlns:xlink="http://www.w3.org/1999/xlink" x="0px" y="0px"
	 width="136.833px" height="136.834px" viewBox="0 0 136.833 136.834" style="enable-background:new 0 0 136.833 136.834;"
	 xml:space="preserve">
<style type="text/css">
<![CDATA[
	.st0{fill:#7B3A87;}
	.st1{fill:#7F1325;}
	.st2{fill:#E07325;}
	.st3{fill:#194680;}
	.st4{fill:#837C72;}
	.st5{fill:#B3BD35;}
	.st6{fill:#883637;}
	.st7{fill:#EDC92C;}
	.st8{fill:#EF8A21;}
	.st9{fill:#8B4097;}
	.st10{fill:#588DBF;}
	.st11{fill:#8E2852;}
	.st12{fill:#5B4F3F;}
	.st13{fill:#932B63;}
	.st14{fill:#C33F27;}
	.st15{fill:#C6CB2D;}
	.st16{fill:#C76428;}
	.st17{fill:#FFFFFF;}
	.st18{fill:#647131;}
	.st19{fill:#6D6254;}
	.st20{fill:#6DA0D5;}
	.st21{fill:#00599C;}
	.st22{fill:#D57927;}
	.st23{fill:#D7B528;}
	.st24{fill:#D7DABA;}
	.st25{fill:#D85026;}
	.st26{fill:#A11D2A;}
	.st27{fill:#A14443;}
	.st28{fill:#748838;}
	.st29{fill:#A53460;}
	.st30{fill:#A82E6C;}
]]>
</style>
<g>
	<g>
		<circle class="st24" cx="68.416" cy="68.418" r="63.333"/>
	</g>
	<g>
		<g>
			<g>
				<path class="st5" d="M43.681,30.156c-2.359,0-4.271,1.912-4.271,4.271v68.352c0,2.359,1.912,4.271,4.271,4.271h49.127
					c2.359,0,4.271-1.912,4.271-4.271v-52.84L76.487,30.156H43.681z"/>
			</g>
		</g>
		<path class="st15" d="M97.079,49.939h-16.32c-2.359,0-4.271-1.912-4.271-4.271V30.156L97.079,49.939z"/>
		<path class="st15" d="M75.636,77.723c0,2.723-2.207,4.93-4.928,4.93H34.722c-2.723,0-4.928-2.207-4.928-4.93V62.662
			c0-2.723,2.205-4.93,4.928-4.93h35.986c2.721,0,4.928,2.207,4.928,4.93V77.723z"/>
		<g>
			<path class="st17" d="M45.598,74.583l-0.479-1.258h-4.074l-0.479,1.285c-0.187,0.501-0.347,0.84-0.479,1.015
				s-0.349,0.263-0.649,0.263c-0.255,0-0.48-0.093-0.677-0.28s-0.294-0.399-0.294-0.636c0-0.137,0.022-0.278,0.068-0.424
				s0.121-0.349,0.226-0.608l2.563-6.508c0.073-0.187,0.16-0.411,0.264-0.673c0.102-0.262,0.211-0.479,0.328-0.653
				c0.115-0.173,0.269-0.313,0.457-0.42c0.189-0.107,0.423-0.161,0.701-0.161c0.282,0,0.519,0.054,0.707,0.161
				c0.189,0.107,0.342,0.245,0.459,0.414c0.115,0.168,0.214,0.35,0.293,0.543c0.08,0.194,0.182,0.452,0.305,0.776l2.618,6.467
				c0.205,0.492,0.308,0.85,0.308,1.073c0,0.232-0.097,0.445-0.291,0.639c-0.193,0.194-0.427,0.291-0.7,0.291
				c-0.159,0-0.296-0.028-0.41-0.085s-0.21-0.134-0.287-0.232s-0.161-0.249-0.249-0.451C45.737,74.917,45.661,74.737,45.598,74.583z
				 M41.578,71.8h2.994l-1.511-4.136L41.578,71.8z"/>
			<path class="st17" d="M56.87,72.709c0,0.606-0.156,1.151-0.469,1.634c-0.312,0.483-0.769,0.861-1.37,1.135s-1.314,0.41-2.14,0.41
				c-0.989,0-1.805-0.187-2.447-0.561c-0.456-0.269-0.826-0.628-1.111-1.077c-0.284-0.449-0.427-0.885-0.427-1.309
				c0-0.246,0.085-0.457,0.257-0.632c0.17-0.175,0.388-0.263,0.652-0.263c0.214,0,0.396,0.068,0.543,0.205
				c0.148,0.137,0.275,0.339,0.38,0.608c0.128,0.319,0.266,0.585,0.413,0.8c0.148,0.214,0.357,0.391,0.626,0.53
				s0.622,0.208,1.06,0.208c0.602,0,1.09-0.14,1.467-0.42c0.375-0.28,0.563-0.63,0.563-1.049c0-0.333-0.102-0.603-0.304-0.81
				c-0.203-0.208-0.465-0.366-0.787-0.475c-0.32-0.109-0.75-0.226-1.288-0.349c-0.72-0.168-1.323-0.366-1.808-0.591
				c-0.486-0.226-0.871-0.533-1.156-0.923c-0.284-0.39-0.427-0.874-0.427-1.453c0-0.551,0.15-1.042,0.451-1.47
				s0.736-0.758,1.306-0.988s1.239-0.345,2.01-0.345c0.615,0,1.147,0.076,1.596,0.229c0.449,0.153,0.822,0.355,1.118,0.608
				s0.513,0.519,0.649,0.796s0.205,0.549,0.205,0.813c0,0.242-0.086,0.459-0.256,0.653c-0.172,0.194-0.385,0.291-0.64,0.291
				c-0.232,0-0.409-0.058-0.53-0.174c-0.12-0.116-0.251-0.307-0.393-0.571c-0.183-0.378-0.401-0.673-0.656-0.885
				s-0.665-0.318-1.23-0.318c-0.524,0-0.947,0.115-1.268,0.345c-0.322,0.23-0.482,0.507-0.482,0.831c0,0.201,0.055,0.374,0.164,0.52
				s0.26,0.271,0.451,0.376s0.385,0.187,0.581,0.246s0.52,0.146,0.971,0.26c0.565,0.132,1.077,0.278,1.534,0.438
				c0.459,0.16,0.848,0.353,1.17,0.581c0.32,0.228,0.571,0.516,0.752,0.865C56.78,71.776,56.87,72.204,56.87,72.709z"/>
			<path class="st17" d="M62.482,71.814h-1.859v2.837c0,0.406-0.096,0.713-0.287,0.923s-0.433,0.314-0.725,0.314
				c-0.306,0-0.552-0.104-0.738-0.311s-0.28-0.512-0.28-0.913V66.94c0-0.447,0.103-0.766,0.308-0.957s0.531-0.287,0.978-0.287h2.604
				c0.771,0,1.362,0.059,1.777,0.178c0.41,0.114,0.765,0.303,1.063,0.567c0.298,0.264,0.524,0.588,0.68,0.971
				s0.232,0.813,0.232,1.292c0,1.021-0.314,1.794-0.943,2.321S63.727,71.814,62.482,71.814z M61.99,67.22h-1.367v3.063h1.367
				c0.479,0,0.878-0.05,1.2-0.15c0.32-0.1,0.565-0.264,0.734-0.492s0.253-0.526,0.253-0.896c0-0.442-0.13-0.802-0.39-1.08
				C63.496,67.368,62.897,67.22,61.99,67.22z"/>
		</g>
	</g>
</g>
</svg>
