<?xml version="1.0" encoding="utf-8"?>
<!-- Generator: Adobe Illustrator 16.0.0, SVG Export Plug-In . SVG Version: 6.00 Build 0)  -->
<!DOCTYPE svg PUBLIC "-//W3C//DTD SVG 1.1//EN" "http://www.w3.org/Graphics/SVG/1.1/DTD/svg11.dtd">
<svg version="1.1" id="Layer_1" xmlns="http://www.w3.org/2000/svg" xmlns:xlink="http://www.w3.org/1999/xlink" x="0px" y="0px"
	 width="136.602px" height="135.696px" viewBox="0 0 136.602 135.696" enable-background="new 0 0 136.602 135.696"
	 xml:space="preserve">
<g>
	<g>
		<circle fill="#D7DABA" cx="68.301" cy="67.849" r="63.333"/>
	</g>
	<g>
		<g>
			<path fill="#F7CE28" d="M43.564,29.587c-2.358,0-4.271,1.912-4.271,4.271v68.351c0,2.359,1.913,4.272,4.271,4.272h49.128
				c2.359,0,4.271-1.913,4.271-4.272V49.37L76.372,29.587H43.564z"/>
		</g>
		<path fill="#DFBB26" d="M96.964,49.37h-16.32c-2.359,0-4.271-1.913-4.271-4.272V29.587L96.964,49.37z"/>
		<path fill="#DFBB26" d="M75.521,77.152c0,2.723-2.207,4.93-4.929,4.93H34.606c-2.723,0-4.929-2.207-4.929-4.93v-15.06
			c0-2.723,2.206-4.93,4.929-4.93h35.985c2.722,0,4.929,2.207,4.929,4.93V77.152z"/>
		<g>
			<path fill="#FFFFFF" d="M41.793,72.81l5.147-6.159h-4.423c-0.31,0-0.543-0.068-0.701-0.205c-0.156-0.137-0.235-0.317-0.235-0.54
				c0-0.232,0.079-0.42,0.235-0.564c0.158-0.144,0.392-0.215,0.701-0.215h5.701c0.738,0,1.107,0.344,1.107,1.032
				c0,0.328-0.062,0.59-0.185,0.786s-0.371,0.513-0.745,0.95l-4.813,5.729h5.305c0.314,0,0.549,0.065,0.704,0.195
				s0.232,0.311,0.232,0.543c0,0.242-0.077,0.433-0.232,0.574s-0.39,0.212-0.704,0.212h-6.508c-0.442,0-0.774-0.099-0.998-0.297
				s-0.335-0.464-0.335-0.796c0-0.114,0.019-0.219,0.055-0.314s0.085-0.186,0.147-0.27c0.061-0.084,0.146-0.191,0.256-0.321
				S41.711,72.906,41.793,72.81z"/>
			<path fill="#FFFFFF" d="M51.186,74.082v-7.896c0-0.41,0.094-0.718,0.28-0.923s0.429-0.308,0.725-0.308
				c0.306,0,0.553,0.102,0.741,0.304c0.189,0.203,0.284,0.512,0.284,0.926v7.896c0,0.415-0.095,0.725-0.284,0.93
				c-0.188,0.205-0.436,0.308-0.741,0.308c-0.292,0-0.532-0.104-0.722-0.311C51.28,74.8,51.186,74.492,51.186,74.082z"/>
			<path fill="#FFFFFF" d="M59.375,71.245h-1.859v2.837c0,0.406-0.096,0.713-0.287,0.923s-0.433,0.314-0.725,0.314
				c-0.306,0-0.552-0.104-0.738-0.311s-0.28-0.512-0.28-0.913v-7.725c0-0.447,0.103-0.766,0.308-0.957s0.531-0.287,0.978-0.287
				h2.604c0.771,0,1.362,0.059,1.777,0.178c0.41,0.114,0.765,0.303,1.063,0.567c0.299,0.264,0.525,0.588,0.681,0.971
				s0.232,0.813,0.232,1.292c0,1.021-0.314,1.794-0.943,2.321S60.619,71.245,59.375,71.245z M58.883,66.651h-1.367v3.063h1.367
				c0.479,0,0.879-0.05,1.199-0.15c0.322-0.1,0.566-0.264,0.735-0.492s0.253-0.526,0.253-0.896c0-0.442-0.13-0.802-0.39-1.08
				C60.389,66.799,59.79,66.651,58.883,66.651z"/>
		</g>
	</g>
</g>
</svg>
