<?xml version="1.0" encoding="utf-8"?>
<!-- Generator: Adobe Illustrator 16.0.0, SVG Export Plug-In . SVG Version: 6.00 Build 0)  -->
<!DOCTYPE svg PUBLIC "-//W3C//DTD SVG 1.1//EN" "http://www.w3.org/Graphics/SVG/1.1/DTD/svg11.dtd">
<svg version="1.1" id="Layer_1" xmlns="http://www.w3.org/2000/svg" xmlns:xlink="http://www.w3.org/1999/xlink" x="0px" y="0px"
	 width="136.914px" height="136.914px" viewBox="0 0 136.914 136.914" enable-background="new 0 0 136.914 136.914"
	 xml:space="preserve">
<g>
	<g>
		<circle fill="#D7DABA" cx="68.457" cy="68.457" r="63.333"/>
	</g>
	<g>
		<g>
			<g>
				<path fill="#43ACDB" d="M43.72,30.195c-2.358,0-4.271,1.913-4.271,4.272v68.351c0,2.359,1.913,4.271,4.271,4.271h49.128
					c2.359,0,4.271-1.912,4.271-4.271v-52.84L76.528,30.195H43.72z"/>
			</g>
		</g>
		<path fill="#3A9EC1" d="M97.12,49.979h-16.32c-2.359,0-4.271-1.912-4.271-4.271V30.195L97.12,49.979z"/>
		<path fill="#3A9EC1" d="M75.676,77.762c0,2.723-2.207,4.93-4.929,4.93H34.762c-2.723,0-4.929-2.207-4.929-4.93v-15.06
			c0-2.723,2.206-4.93,4.929-4.93h35.985c2.722,0,4.929,2.207,4.929,4.93V77.762z"/>
		<g>
			<path fill="#FFFFFF" d="M42.322,74.247l-1.606-6.385v6.918c0,0.383-0.085,0.67-0.257,0.861c-0.17,0.191-0.397,0.287-0.68,0.287
				c-0.273,0-0.497-0.095-0.67-0.284s-0.26-0.478-0.26-0.865v-7.93c0-0.438,0.114-0.732,0.342-0.885s0.535-0.229,0.923-0.229h0.629
				c0.378,0,0.653,0.034,0.823,0.103c0.172,0.068,0.298,0.191,0.38,0.369s0.176,0.467,0.28,0.868l1.456,5.489l1.456-5.489
				c0.104-0.401,0.198-0.69,0.28-0.868s0.208-0.301,0.38-0.369c0.17-0.068,0.445-0.103,0.823-0.103h0.629
				c0.388,0,0.695,0.076,0.923,0.229s0.342,0.448,0.342,0.885v7.93c0,0.383-0.086,0.67-0.256,0.861
				c-0.172,0.191-0.4,0.287-0.688,0.287c-0.269,0-0.49-0.096-0.663-0.287s-0.26-0.479-0.26-0.861v-6.918l-1.606,6.385
				c-0.104,0.415-0.19,0.719-0.256,0.913c-0.066,0.194-0.188,0.37-0.366,0.53s-0.424,0.239-0.738,0.239
				c-0.237,0-0.438-0.051-0.602-0.154s-0.292-0.233-0.383-0.393s-0.163-0.336-0.216-0.53C42.43,74.658,42.376,74.456,42.322,74.247z
				"/>
			<path fill="#FFFFFF" d="M54.49,71.854H52.63v2.837c0,0.406-0.096,0.713-0.287,0.923s-0.433,0.314-0.725,0.314
				c-0.306,0-0.552-0.104-0.738-0.311s-0.28-0.512-0.28-0.913V66.98c0-0.447,0.103-0.766,0.308-0.957s0.531-0.287,0.978-0.287h2.604
				c0.771,0,1.362,0.059,1.777,0.178c0.41,0.114,0.765,0.303,1.063,0.567c0.299,0.264,0.525,0.588,0.681,0.971
				s0.232,0.813,0.232,1.292c0,1.021-0.314,1.794-0.943,2.321S55.734,71.854,54.49,71.854z M53.998,67.26H52.63v3.063h1.367
				c0.479,0,0.879-0.05,1.199-0.15c0.322-0.1,0.566-0.264,0.735-0.492s0.253-0.526,0.253-0.896c0-0.442-0.13-0.802-0.39-1.08
				C55.503,67.408,54.905,67.26,53.998,67.26z"/>
			<path fill="#FFFFFF" d="M63.746,74.889v-1.271h-3.432c-0.433,0-0.758-0.098-0.975-0.294c-0.216-0.196-0.324-0.462-0.324-0.8
				c0-0.086,0.016-0.174,0.048-0.263s0.08-0.182,0.144-0.28s0.13-0.192,0.198-0.284s0.152-0.203,0.253-0.335l3.623-4.847
				c0.237-0.319,0.432-0.55,0.584-0.694c0.153-0.144,0.337-0.215,0.551-0.215c0.692,0,1.039,0.396,1.039,1.189v5.291h0.294
				c0.351,0,0.632,0.048,0.845,0.144c0.211,0.096,0.317,0.305,0.317,0.629c0,0.264-0.087,0.457-0.26,0.578s-0.433,0.181-0.779,0.181
				h-0.417v1.271c0,0.351-0.077,0.612-0.232,0.783s-0.362,0.256-0.622,0.256c-0.255,0-0.462-0.088-0.618-0.263
				C63.824,75.49,63.746,75.231,63.746,74.889z M60.806,72.086h2.939v-3.972L60.806,72.086z"/>
		</g>
	</g>
</g>
</svg>
