<?xml version="1.0" encoding="utf-8"?>
<!-- Generator: Adobe Illustrator 16.0.0, SVG Export Plug-In . SVG Version: 6.00 Build 0)  -->
<!DOCTYPE svg PUBLIC "-//W3C//DTD SVG 1.1//EN" "http://www.w3.org/Graphics/SVG/1.1/DTD/svg11.dtd">
<svg version="1.1" id="Layer_1" xmlns="http://www.w3.org/2000/svg" xmlns:xlink="http://www.w3.org/1999/xlink" x="0px" y="0px"
	 width="136.833px" height="136.833px" viewBox="0 0 136.833 136.833" style="enable-background:new 0 0 136.833 136.833;"
	 xml:space="preserve">
<style type="text/css">
<![CDATA[
	.st0{fill:#7A6F64;}
	.st1{fill:#7D9D3E;}
	.st2{fill:#ACC337;}
	.st3{fill:#E23A37;}
	.st4{fill:#E37A26;}
	.st5{fill:#163749;}
	.st6{fill:#4A6C96;}
	.st7{fill:#E88524;}
	.st8{fill:#B56027;}
	.st9{fill:#88A0D2;}
	.st10{fill:#517AA6;}
	.st11{fill:#588DBF;}
	.st12{fill:#59337F;}
	.st13{fill:#8D964E;}
	.st14{fill:#8F8376;}
	.st15{fill:#21455F;}
	.st16{fill:#BF2026;}
	.st17{fill:#F7981D;}
	.st18{fill:#2A4049;}
	.st19{fill:#96B33D;}
	.st20{fill:#C93332;}
	.st21{fill:#FFFFFF;}
	.st22{fill:#CA2027;}
	.st23{fill:#CB7429;}
	.st24{fill:#9DCB3B;}
	.st25{fill:#344E5D;}
	.st26{fill:#355670;}
	.st27{fill:#396183;}
	.st28{fill:#6DA0D5;}
	.st29{fill:#6E4095;}
	.st30{fill:#6F8BC6;}
	.st31{fill:#D06A28;}
	.st32{fill:#3C5B78;}
	.st33{fill:#D7DABA;}
	.st34{fill:#718839;}
	.st35{fill:#A1B13A;}
	.st36{fill:#73773D;}
	.st37{fill:#DA1F26;}
]]>
</style>
<g>
	<g>
		<circle class="st33" cx="68.416" cy="68.417" r="63.333"/>
	</g>
	<g>
		<g>
			<g>
				<path class="st15" d="M43.68,30.156c-2.358,0-4.271,1.912-4.271,4.271v68.352c0,2.359,1.913,4.271,4.271,4.271h49.127
					c2.359,0,4.271-1.912,4.271-4.271v-52.84L76.487,30.156H43.68z"/>
			</g>
		</g>
		<path class="st5" d="M97.079,49.939h-16.32c-2.359,0-4.271-1.912-4.271-4.271V30.156L97.079,49.939z"/>
		<path class="st5" d="M75.635,77.722c0,2.723-2.207,4.93-4.928,4.93H34.722c-2.723,0-4.929-2.207-4.929-4.93V62.662
			c0-2.723,2.206-4.929,4.929-4.929h35.985c2.721,0,4.928,2.206,4.928,4.929V77.722z"/>
		<g>
			<path class="st21" d="M39.981,65.696h2.646c0.688,0,1.278,0.064,1.771,0.191s0.938,0.367,1.34,0.718
				c1.044,0.893,1.565,2.251,1.565,4.074c0,0.602-0.053,1.15-0.157,1.647s-0.267,0.944-0.485,1.343
				c-0.219,0.399-0.499,0.756-0.841,1.07c-0.269,0.242-0.563,0.436-0.882,0.581s-0.662,0.249-1.028,0.308
				c-0.367,0.059-0.781,0.089-1.241,0.089h-2.646c-0.369,0-0.647-0.056-0.834-0.167c-0.187-0.112-0.309-0.27-0.365-0.473
				c-0.058-0.202-0.086-0.465-0.086-0.789V66.94c0-0.438,0.098-0.754,0.294-0.95S39.543,65.696,39.981,65.696z M40.767,67.302v6.802
				h1.538c0.337,0,0.602-0.009,0.793-0.027s0.39-0.063,0.595-0.137s0.383-0.175,0.533-0.308c0.679-0.574,1.019-1.563,1.019-2.967
				c0-0.988-0.149-1.729-0.447-2.222c-0.299-0.492-0.667-0.806-1.104-0.94s-0.966-0.202-1.586-0.202H40.767z"/>
			<path class="st21" d="M53.496,65.525c1.039,0,1.931,0.211,2.677,0.632c0.744,0.421,1.309,1.021,1.691,1.798
				s0.574,1.689,0.574,2.738c0,0.775-0.104,1.479-0.314,2.112s-0.524,1.183-0.943,1.647s-0.935,0.82-1.545,1.066
				s-1.311,0.369-2.099,0.369c-0.784,0-1.485-0.127-2.105-0.379c-0.62-0.254-1.137-0.609-1.552-1.07s-0.729-1.014-0.939-1.661
				c-0.213-0.647-0.318-1.347-0.318-2.099c0-0.77,0.11-1.477,0.332-2.119c0.221-0.643,0.541-1.189,0.96-1.641
				s0.93-0.796,1.531-1.036S52.73,65.525,53.496,65.525z M56.38,70.679c0-0.734-0.118-1.37-0.355-1.907s-0.575-0.944-1.015-1.22
				c-0.44-0.276-0.945-0.414-1.515-0.414c-0.405,0-0.78,0.076-1.124,0.229c-0.345,0.153-0.641,0.375-0.889,0.667
				c-0.249,0.292-0.445,0.664-0.588,1.118c-0.145,0.454-0.216,0.963-0.216,1.528c0,0.57,0.071,1.084,0.216,1.545
				c0.143,0.461,0.346,0.842,0.607,1.145c0.263,0.304,0.563,0.53,0.902,0.681c0.34,0.15,0.713,0.226,1.118,0.226
				c0.52,0,0.997-0.13,1.433-0.39c0.435-0.26,0.781-0.661,1.039-1.203C56.251,72.14,56.38,71.472,56.38,70.679z"/>
			<path class="st21" d="M66.149,67.371h-2.215v7.28c0,0.419-0.094,0.73-0.28,0.933c-0.187,0.203-0.429,0.305-0.725,0.305
				c-0.301,0-0.546-0.103-0.735-0.308c-0.188-0.205-0.283-0.515-0.283-0.93v-7.28h-2.215c-0.347,0-0.604-0.076-0.772-0.229
				s-0.253-0.354-0.253-0.605c0-0.26,0.088-0.465,0.264-0.615c0.175-0.15,0.429-0.226,0.762-0.226h6.453
				c0.351,0,0.611,0.078,0.783,0.232c0.17,0.155,0.256,0.358,0.256,0.608s-0.087,0.452-0.26,0.605S66.496,67.371,66.149,67.371z"/>
		</g>
	</g>
</g>
</svg>
