<?xml version="1.0" encoding="utf-8"?>
<!-- Generator: Adobe Illustrator 16.0.0, SVG Export Plug-In . SVG Version: 6.00 Build 0)  -->
<!DOCTYPE svg PUBLIC "-//W3C//DTD SVG 1.1//EN" "http://www.w3.org/Graphics/SVG/1.1/DTD/svg11.dtd">
<svg version="1.1" id="Layer_1" xmlns="http://www.w3.org/2000/svg" xmlns:xlink="http://www.w3.org/1999/xlink" x="0px" y="0px"
	 width="136.914px" height="136.914px" viewBox="0 0 136.914 136.914" enable-background="new 0 0 136.914 136.914"
	 xml:space="preserve">
<g>
	<g>
		<circle fill="#D7DABA" cx="68.457" cy="68.457" r="63.333"/>
	</g>
	<g>
		<g>
			<path fill="#49A0AE" d="M43.72,30.195c-2.358,0-4.271,1.913-4.271,4.272v68.351c0,2.359,1.913,4.271,4.271,4.271h49.128
				c2.359,0,4.271-1.912,4.271-4.271v-52.84L76.528,30.195H43.72z"/>
		</g>
		<path fill="#3F929A" d="M97.12,49.979h-16.32c-2.359,0-4.271-1.912-4.271-4.271V30.195L97.12,49.979z"/>
		<path fill="#3F929A" d="M75.676,77.762c0,2.723-2.207,4.93-4.929,4.93H34.762c-2.723,0-4.929-2.207-4.929-4.93v-15.06
			c0-2.723,2.206-4.929,4.929-4.929h35.985c2.722,0,4.929,2.206,4.929,4.929V77.762z"/>
		<g>
			<path fill="#FFFFFF" d="M41.956,71.854h-1.859v2.837c0,0.406-0.096,0.713-0.287,0.923s-0.433,0.314-0.725,0.314
				c-0.306,0-0.552-0.104-0.738-0.311s-0.28-0.512-0.28-0.913V66.98c0-0.447,0.103-0.766,0.308-0.957s0.531-0.287,0.978-0.287h2.604
				c0.771,0,1.362,0.059,1.777,0.178c0.41,0.114,0.765,0.303,1.063,0.567c0.298,0.264,0.524,0.588,0.68,0.971
				s0.232,0.813,0.232,1.292c0,1.021-0.314,1.794-0.943,2.321S43.2,71.854,41.956,71.854z M41.463,67.26h-1.367v3.063h1.367
				c0.479,0,0.878-0.05,1.2-0.15c0.32-0.1,0.565-0.264,0.734-0.492s0.253-0.526,0.253-0.896c0-0.442-0.13-0.802-0.39-1.08
				C42.969,67.408,42.371,67.26,41.463,67.26z"/>
			<path fill="#FFFFFF" d="M50.049,66.782l3.903,5.906v-5.961c0-0.387,0.083-0.678,0.25-0.872c0.166-0.194,0.391-0.291,0.673-0.291
				c0.292,0,0.521,0.097,0.69,0.291s0.253,0.484,0.253,0.872v7.882c0,0.879-0.364,1.319-1.094,1.319
				c-0.183,0-0.347-0.026-0.492-0.079s-0.282-0.136-0.41-0.25s-0.246-0.247-0.355-0.4s-0.219-0.309-0.328-0.468l-3.808-5.838v5.872
				c0,0.383-0.089,0.672-0.267,0.868s-0.405,0.294-0.684,0.294c-0.287,0-0.518-0.099-0.69-0.297s-0.26-0.486-0.26-0.865v-7.731
				c0-0.328,0.036-0.585,0.109-0.772c0.087-0.205,0.23-0.373,0.431-0.502s0.417-0.195,0.649-0.195c0.183,0,0.338,0.03,0.469,0.089
				c0.129,0.059,0.243,0.139,0.342,0.239c0.098,0.1,0.197,0.23,0.301,0.39C49.833,66.442,49.94,66.608,50.049,66.782z"/>
			<path fill="#FFFFFF" d="M67.194,71.683v1.921c0,0.255-0.025,0.459-0.075,0.612s-0.143,0.291-0.277,0.414
				c-0.134,0.123-0.306,0.242-0.516,0.355c-0.606,0.328-1.189,0.567-1.75,0.718s-1.171,0.226-1.832,0.226
				c-0.771,0-1.472-0.119-2.105-0.355s-1.174-0.581-1.62-1.032s-0.79-0.998-1.028-1.641c-0.24-0.643-0.359-1.36-0.359-2.153
				c0-0.779,0.116-1.493,0.349-2.14s0.574-1.196,1.025-1.647s1-0.796,1.647-1.036s1.381-0.359,2.201-0.359
				c0.675,0,1.271,0.09,1.791,0.27s0.941,0.407,1.265,0.68s0.567,0.563,0.731,0.868s0.246,0.577,0.246,0.813
				c0,0.255-0.095,0.473-0.283,0.653c-0.189,0.18-0.416,0.27-0.681,0.27c-0.146,0-0.286-0.034-0.421-0.103
				c-0.134-0.068-0.247-0.164-0.338-0.287c-0.251-0.392-0.463-0.688-0.636-0.889s-0.407-0.369-0.7-0.506
				c-0.295-0.137-0.669-0.205-1.125-0.205c-0.47,0-0.889,0.081-1.258,0.243s-0.685,0.396-0.947,0.704
				c-0.262,0.308-0.462,0.685-0.602,1.131c-0.139,0.447-0.208,0.941-0.208,1.483c0,1.176,0.271,2.081,0.81,2.714
				c0.541,0.633,1.294,0.95,2.26,0.95c0.47,0,0.91-0.062,1.322-0.185c0.413-0.123,0.831-0.298,1.255-0.526v-1.627h-1.572
				c-0.378,0-0.664-0.057-0.858-0.171c-0.193-0.114-0.29-0.308-0.29-0.581c0-0.223,0.081-0.408,0.243-0.554
				c0.161-0.146,0.381-0.219,0.659-0.219h2.304c0.282,0,0.521,0.025,0.718,0.075s0.354,0.162,0.476,0.335
				C67.133,71.077,67.194,71.337,67.194,71.683z"/>
		</g>
	</g>
</g>
</svg>
