<?xml version="1.0" encoding="utf-8"?>
<!-- Generator: Adobe Illustrator 16.0.0, SVG Export Plug-In . SVG Version: 6.00 Build 0)  -->
<!DOCTYPE svg PUBLIC "-//W3C//DTD SVG 1.1//EN" "http://www.w3.org/Graphics/SVG/1.1/DTD/svg11.dtd">
<svg version="1.1" id="Layer_1" xmlns="http://www.w3.org/2000/svg" xmlns:xlink="http://www.w3.org/1999/xlink" x="0px" y="0px"
	 width="136.833px" height="136.834px" viewBox="0 0 136.833 136.834" style="enable-background:new 0 0 136.833 136.834;"
	 xml:space="preserve">
<style type="text/css">
<![CDATA[
	.st0{fill:#7A6F64;}
	.st1{fill:#7D9D3E;}
	.st2{fill:#ACC337;}
	.st3{fill:#E23A37;}
	.st4{fill:#E37A26;}
	.st5{fill:#163749;}
	.st6{fill:#4A6C96;}
	.st7{fill:#E88524;}
	.st8{fill:#B56027;}
	.st9{fill:#88A0D2;}
	.st10{fill:#517AA6;}
	.st11{fill:#588DBF;}
	.st12{fill:#59337F;}
	.st13{fill:#8D964E;}
	.st14{fill:#8F8376;}
	.st15{fill:#21455F;}
	.st16{fill:#BF2026;}
	.st17{fill:#F7981D;}
	.st18{fill:#2A4049;}
	.st19{fill:#96B33D;}
	.st20{fill:#C93332;}
	.st21{fill:#FFFFFF;}
	.st22{fill:#CA2027;}
	.st23{fill:#CB7429;}
	.st24{fill:#9DCB3B;}
	.st25{fill:#344E5D;}
	.st26{fill:#355670;}
	.st27{fill:#396183;}
	.st28{fill:#6DA0D5;}
	.st29{fill:#6E4095;}
	.st30{fill:#6F8BC6;}
	.st31{fill:#D06A28;}
	.st32{fill:#3C5B78;}
	.st33{fill:#D7DABA;}
	.st34{fill:#718839;}
	.st35{fill:#A1B13A;}
	.st36{fill:#73773D;}
	.st37{fill:#DA1F26;}
]]>
</style>
<g>
	<g>
		<circle class="st33" cx="68.417" cy="68.417" r="63.333"/>
	</g>
	<g>
		<g>
			<path class="st25" d="M43.68,30.156c-2.358,0-4.271,1.913-4.271,4.272v68.351c0,2.359,1.913,4.271,4.271,4.271h49.128
				c2.359,0,4.271-1.912,4.271-4.271v-52.84L76.488,30.156H43.68z"/>
		</g>
		<path class="st18" d="M97.08,49.939h-16.32c-2.359,0-4.271-1.913-4.271-4.272V30.156L97.08,49.939z"/>
		<path class="st18" d="M75.636,77.722c0,2.723-2.207,4.93-4.929,4.93H34.722c-2.723,0-4.929-2.207-4.929-4.93V62.662
			c0-2.723,2.206-4.929,4.929-4.929h35.985c2.722,0,4.929,2.206,4.929,4.929V77.722z"/>
		<g>
			<path class="st21" d="M34.681,65.696h2.646c0.688,0,1.278,0.064,1.771,0.191s0.938,0.367,1.34,0.718
				c1.044,0.893,1.565,2.251,1.565,4.074c0,0.602-0.053,1.151-0.157,1.647s-0.267,0.944-0.485,1.343s-0.499,0.755-0.841,1.07
				c-0.269,0.242-0.563,0.435-0.882,0.581s-0.662,0.249-1.028,0.308c-0.367,0.059-0.781,0.089-1.241,0.089h-2.646
				c-0.369,0-0.647-0.056-0.834-0.167s-0.309-0.269-0.365-0.472c-0.058-0.203-0.086-0.466-0.086-0.79V66.94
				c0-0.438,0.098-0.754,0.294-0.95S34.243,65.696,34.681,65.696z M35.467,67.302v6.802h1.538c0.337,0,0.602-0.009,0.793-0.027
				s0.39-0.064,0.595-0.137s0.383-0.175,0.533-0.308c0.679-0.574,1.019-1.563,1.019-2.967c0-0.989-0.149-1.729-0.447-2.222
				c-0.299-0.492-0.667-0.806-1.104-0.94s-0.966-0.202-1.586-0.202H35.467z"/>
			<path class="st21" d="M48.195,65.525c1.039,0,1.931,0.211,2.677,0.632c0.744,0.421,1.309,1.021,1.691,1.798
				s0.574,1.689,0.574,2.738c0,0.775-0.104,1.479-0.314,2.112s-0.524,1.183-0.943,1.647s-0.935,0.82-1.545,1.066
				s-1.311,0.369-2.099,0.369c-0.784,0-1.485-0.126-2.105-0.379s-1.137-0.609-1.552-1.07s-0.729-1.014-0.939-1.661
				c-0.213-0.647-0.318-1.347-0.318-2.099c0-0.77,0.11-1.477,0.332-2.119c0.221-0.643,0.541-1.189,0.96-1.641
				s0.93-0.796,1.531-1.036S47.43,65.525,48.195,65.525z M51.08,70.679c0-0.734-0.118-1.37-0.355-1.907s-0.575-0.944-1.015-1.22
				c-0.44-0.276-0.945-0.414-1.515-0.414c-0.405,0-0.78,0.076-1.124,0.229c-0.345,0.153-0.641,0.375-0.889,0.667
				c-0.249,0.292-0.445,0.664-0.588,1.118c-0.145,0.454-0.216,0.963-0.216,1.528c0,0.57,0.071,1.084,0.216,1.545
				c0.143,0.46,0.346,0.842,0.607,1.145c0.263,0.303,0.563,0.53,0.902,0.68c0.34,0.15,0.713,0.226,1.118,0.226
				c0.52,0,0.997-0.13,1.433-0.39c0.435-0.26,0.781-0.661,1.039-1.203C50.951,72.14,51.08,71.472,51.08,70.679z"/>
			<path class="st21" d="M63.412,72.552c0,0.319-0.079,0.664-0.235,1.036c-0.158,0.372-0.405,0.736-0.742,1.094
				s-0.768,0.648-1.292,0.872s-1.135,0.335-1.832,0.335c-0.528,0-1.01-0.05-1.442-0.15s-0.826-0.256-1.18-0.468
				c-0.353-0.212-0.678-0.491-0.974-0.837c-0.265-0.314-0.49-0.667-0.677-1.056s-0.327-0.806-0.42-1.248
				c-0.094-0.442-0.141-0.912-0.141-1.408c0-0.807,0.117-1.529,0.352-2.167c0.235-0.638,0.571-1.184,1.009-1.637
				s0.95-0.799,1.538-1.036s1.215-0.355,1.88-0.355c0.812,0,1.533,0.162,2.167,0.485s1.119,0.724,1.456,1.2s0.506,0.926,0.506,1.35
				c0,0.232-0.082,0.438-0.246,0.615s-0.362,0.267-0.595,0.267c-0.26,0-0.455-0.062-0.584-0.185
				c-0.131-0.123-0.275-0.335-0.435-0.636c-0.265-0.497-0.575-0.868-0.933-1.114c-0.358-0.246-0.799-0.369-1.323-0.369
				c-0.834,0-1.498,0.317-1.993,0.95c-0.494,0.633-0.741,1.534-0.741,2.7c0,0.779,0.109,1.428,0.328,1.945s0.528,0.903,0.93,1.159
				s0.87,0.383,1.408,0.383c0.583,0,1.077-0.145,1.479-0.434c0.404-0.29,0.708-0.714,0.913-1.275
				c0.087-0.264,0.193-0.479,0.321-0.646s0.333-0.25,0.615-0.25c0.241,0,0.449,0.084,0.622,0.253S63.412,72.302,63.412,72.552z"/>
			<path class="st21" d="M64.868,73.769l2.242-3.274l-1.887-2.912c-0.178-0.283-0.311-0.525-0.4-0.728
				c-0.088-0.203-0.133-0.397-0.133-0.584c0-0.191,0.086-0.363,0.256-0.516c0.172-0.153,0.38-0.229,0.626-0.229
				c0.282,0,0.503,0.083,0.659,0.25c0.158,0.167,0.375,0.475,0.653,0.926l1.504,2.434l1.606-2.434
				c0.132-0.205,0.245-0.38,0.338-0.526c0.094-0.146,0.184-0.267,0.271-0.362s0.184-0.167,0.29-0.215
				c0.107-0.048,0.231-0.072,0.373-0.072c0.255,0,0.464,0.076,0.625,0.229c0.162,0.153,0.243,0.334,0.243,0.543
				c0,0.305-0.176,0.72-0.526,1.244l-1.976,2.953l2.126,3.274c0.191,0.287,0.33,0.525,0.417,0.714s0.13,0.368,0.13,0.537
				c0,0.16-0.039,0.305-0.116,0.438s-0.187,0.237-0.328,0.314s-0.301,0.116-0.479,0.116c-0.191,0-0.354-0.04-0.485-0.12
				s-0.239-0.179-0.321-0.297s-0.234-0.349-0.458-0.69l-1.764-2.775l-1.873,2.857c-0.146,0.228-0.25,0.387-0.311,0.479
				c-0.063,0.091-0.136,0.18-0.223,0.267s-0.189,0.155-0.308,0.205s-0.258,0.075-0.417,0.075c-0.246,0-0.45-0.075-0.611-0.226
				c-0.162-0.15-0.243-0.369-0.243-0.656C64.369,74.669,64.535,74.257,64.868,73.769z"/>
		</g>
	</g>
</g>
</svg>
