<?xml version="1.0" encoding="utf-8"?>
<!-- Generator: Adobe Illustrator 16.0.0, SVG Export Plug-In . SVG Version: 6.00 Build 0)  -->
<!DOCTYPE svg PUBLIC "-//W3C//DTD SVG 1.1//EN" "http://www.w3.org/Graphics/SVG/1.1/DTD/svg11.dtd">
<svg version="1.1" id="Layer_1" xmlns="http://www.w3.org/2000/svg" xmlns:xlink="http://www.w3.org/1999/xlink" x="0px" y="0px"
	 width="136.833px" height="136.834px" viewBox="0 0 136.833 136.834" style="enable-background:new 0 0 136.833 136.834;"
	 xml:space="preserve">
<style type="text/css">
<![CDATA[
	.st0{fill:#7B3A87;}
	.st1{fill:#7F1325;}
	.st2{fill:#E07325;}
	.st3{fill:#194680;}
	.st4{fill:#837C72;}
	.st5{fill:#B3BD35;}
	.st6{fill:#883637;}
	.st7{fill:#EDC92C;}
	.st8{fill:#EF8A21;}
	.st9{fill:#8B4097;}
	.st10{fill:#588DBF;}
	.st11{fill:#8E2852;}
	.st12{fill:#5B4F3F;}
	.st13{fill:#932B63;}
	.st14{fill:#C33F27;}
	.st15{fill:#C6CB2D;}
	.st16{fill:#C76428;}
	.st17{fill:#FFFFFF;}
	.st18{fill:#647131;}
	.st19{fill:#6D6254;}
	.st20{fill:#6DA0D5;}
	.st21{fill:#00599C;}
	.st22{fill:#D57927;}
	.st23{fill:#D7B528;}
	.st24{fill:#D7DABA;}
	.st25{fill:#D85026;}
	.st26{fill:#A11D2A;}
	.st27{fill:#A14443;}
	.st28{fill:#748838;}
	.st29{fill:#A53460;}
	.st30{fill:#A82E6C;}
]]>
</style>
<g>
	<g>
		<circle class="st24" cx="68.416" cy="68.417" r="63.333"/>
	</g>
	<g>
		<g>
			<g>
				<path class="st26" d="M43.681,30.156c-2.359,0-4.271,1.912-4.271,4.271v68.352c0,2.359,1.912,4.271,4.271,4.271h49.127
					c2.359,0,4.271-1.912,4.271-4.271v-52.84L76.487,30.156H43.681z"/>
			</g>
		</g>
		<path class="st1" d="M97.079,49.939h-16.32c-2.359,0-4.271-1.912-4.271-4.271V30.156L97.079,49.939z"/>
		<path class="st1" d="M75.636,77.722c0,2.723-2.207,4.93-4.928,4.93H34.722c-2.723,0-4.928-2.207-4.928-4.93V62.662
			c0-2.723,2.205-4.929,4.928-4.929h35.986c2.721,0,4.928,2.206,4.928,4.929V77.722z"/>
		<g>
			<path class="st17" d="M46.216,71.431h-0.711v3.22c0,0.424-0.094,0.736-0.28,0.937s-0.431,0.301-0.731,0.301
				c-0.323,0-0.574-0.105-0.752-0.314s-0.267-0.517-0.267-0.923V66.94c0-0.438,0.098-0.754,0.294-0.95s0.513-0.294,0.95-0.294h3.302
				c0.456,0,0.846,0.02,1.169,0.058s0.615,0.117,0.875,0.236c0.314,0.132,0.593,0.321,0.834,0.567s0.425,0.532,0.55,0.858
				c0.126,0.326,0.188,0.671,0.188,1.036c0,0.748-0.211,1.344-0.632,1.791c-0.422,0.447-1.062,0.763-1.918,0.95
				c0.36,0.191,0.704,0.474,1.032,0.848s0.621,0.771,0.878,1.193c0.258,0.421,0.459,0.802,0.602,1.142
				c0.145,0.339,0.216,0.573,0.216,0.701c0,0.132-0.042,0.263-0.126,0.393c-0.085,0.13-0.2,0.232-0.346,0.308
				s-0.314,0.113-0.506,0.113c-0.228,0-0.419-0.054-0.574-0.161s-0.288-0.243-0.4-0.407c-0.111-0.164-0.263-0.406-0.454-0.725
				l-0.813-1.354c-0.292-0.497-0.553-0.875-0.783-1.135c-0.229-0.26-0.463-0.438-0.7-0.533S46.576,71.431,46.216,71.431z
				 M47.378,67.22h-1.873v2.755h1.818c0.487,0,0.897-0.042,1.23-0.126s0.587-0.228,0.762-0.431c0.176-0.203,0.264-0.482,0.264-0.837
				c0-0.278-0.07-0.523-0.212-0.735s-0.337-0.37-0.588-0.475C48.542,67.271,48.075,67.22,47.378,67.22z"/>
			<path class="st17" d="M57.837,75.717h-3.063c-0.442,0-0.758-0.099-0.947-0.297c-0.188-0.198-0.283-0.514-0.283-0.947V66.94
				c0-0.442,0.097-0.76,0.291-0.954c0.193-0.194,0.507-0.291,0.939-0.291h3.247c0.479,0,0.894,0.03,1.244,0.089
				s0.665,0.173,0.943,0.342c0.237,0.141,0.446,0.32,0.629,0.537s0.321,0.456,0.417,0.718s0.144,0.539,0.144,0.831
				c0,1.002-0.501,1.736-1.504,2.201c1.317,0.419,1.976,1.235,1.976,2.447c0,0.561-0.144,1.065-0.431,1.514s-0.675,0.78-1.162,0.995
				c-0.306,0.127-0.656,0.218-1.053,0.27S58.365,75.717,57.837,75.717z M55.574,67.22v2.591h1.859c0.506,0,0.896-0.048,1.173-0.144
				c0.275-0.096,0.486-0.278,0.632-0.547c0.114-0.191,0.171-0.406,0.171-0.643c0-0.506-0.18-0.842-0.54-1.008
				s-0.909-0.25-1.647-0.25H55.574z M57.687,71.267h-2.112v2.926h2.181c1.372,0,2.058-0.495,2.058-1.483
				c0-0.506-0.178-0.873-0.533-1.101S58.393,71.267,57.687,71.267z"/>
		</g>
	</g>
</g>
</svg>
