<?xml version="1.0" encoding="utf-8"?>
<!-- Generator: Adobe Illustrator 16.0.0, SVG Export Plug-In . SVG Version: 6.00 Build 0)  -->
<!DOCTYPE svg PUBLIC "-//W3C//DTD SVG 1.1//EN" "http://www.w3.org/Graphics/SVG/1.1/DTD/svg11.dtd">
<svg version="1.1" id="Layer_1" xmlns="http://www.w3.org/2000/svg" xmlns:xlink="http://www.w3.org/1999/xlink" x="0px" y="0px"
	 width="136.914px" height="136.914px" viewBox="0 0 136.914 136.914" enable-background="new 0 0 136.914 136.914"
	 xml:space="preserve">
<g>
	<g>
		<circle fill="#D7DABA" cx="68.457" cy="68.457" r="63.333"/>
	</g>
	<g>
		<g>
			<path fill="#EB9682" d="M43.72,30.195c-2.358,0-4.271,1.913-4.271,4.272v68.351c0,2.359,1.913,4.271,4.271,4.271h49.128
				c2.359,0,4.271-1.912,4.271-4.271v-52.84L76.528,30.195H43.72z"/>
		</g>
		<path fill="#D68A7B" d="M97.12,49.979h-16.32c-2.359,0-4.271-1.912-4.271-4.271V30.195L97.12,49.979z"/>
		<path fill="#D68A7B" d="M75.676,77.762c0,2.723-2.207,4.93-4.929,4.93H34.762c-2.723,0-4.929-2.207-4.929-4.93v-15.06
			c0-2.723,2.206-4.93,4.929-4.93h35.985c2.722,0,4.929,2.207,4.929,4.93V77.762z"/>
		<g>
			<path fill="#FFFFFF" d="M42.174,74.247l-1.606-6.385v6.918c0,0.383-0.086,0.67-0.256,0.861c-0.172,0.191-0.398,0.287-0.681,0.287
				c-0.273,0-0.497-0.095-0.67-0.284s-0.26-0.478-0.26-0.865v-7.93c0-0.438,0.114-0.732,0.342-0.885s0.535-0.229,0.923-0.229h0.629
				c0.378,0,0.652,0.034,0.824,0.103c0.17,0.068,0.297,0.191,0.379,0.369s0.176,0.467,0.28,0.868l1.456,5.489l1.456-5.489
				c0.104-0.401,0.198-0.69,0.28-0.868s0.209-0.301,0.379-0.369c0.172-0.068,0.446-0.103,0.824-0.103h0.629
				c0.388,0,0.695,0.076,0.923,0.229s0.342,0.448,0.342,0.885v7.93c0,0.383-0.085,0.67-0.257,0.861
				c-0.17,0.191-0.399,0.287-0.687,0.287c-0.269,0-0.49-0.096-0.663-0.287s-0.26-0.479-0.26-0.861v-6.918l-1.606,6.385
				c-0.104,0.415-0.19,0.719-0.257,0.913c-0.065,0.194-0.188,0.37-0.365,0.53s-0.424,0.239-0.738,0.239
				c-0.237,0-0.438-0.051-0.602-0.154s-0.292-0.233-0.383-0.393s-0.163-0.336-0.215-0.53C42.283,74.658,42.229,74.456,42.174,74.247
				z"/>
			<path fill="#FFFFFF" d="M54.26,74.889v-1.271h-3.432c-0.433,0-0.758-0.098-0.974-0.294c-0.217-0.196-0.325-0.462-0.325-0.8
				c0-0.086,0.016-0.174,0.048-0.263s0.08-0.182,0.144-0.28s0.13-0.192,0.198-0.284s0.152-0.203,0.253-0.335l3.623-4.847
				c0.237-0.319,0.432-0.55,0.585-0.694c0.152-0.144,0.336-0.215,0.55-0.215c0.692,0,1.039,0.396,1.039,1.189v5.291h0.294
				c0.351,0,0.633,0.048,0.844,0.144c0.213,0.096,0.318,0.305,0.318,0.629c0,0.264-0.087,0.457-0.26,0.578s-0.433,0.181-0.779,0.181
				h-0.417v1.271c0,0.351-0.077,0.612-0.232,0.783s-0.362,0.256-0.622,0.256c-0.255,0-0.461-0.088-0.619-0.263
				C54.339,75.49,54.26,75.231,54.26,74.889z M51.321,72.086h2.939v-3.972L51.321,72.086z"/>
			<path fill="#FFFFFF" d="M60.255,66.898l2.27,6.72l2.276-6.768c0.118-0.355,0.207-0.603,0.267-0.742s0.157-0.264,0.294-0.376
				s0.323-0.167,0.561-0.167c0.173,0,0.334,0.043,0.481,0.13c0.148,0.086,0.265,0.202,0.35,0.345
				c0.084,0.144,0.126,0.288,0.126,0.434c0,0.1-0.014,0.208-0.041,0.325s-0.062,0.23-0.103,0.342s-0.082,0.227-0.123,0.345
				l-2.427,6.549c-0.087,0.25-0.173,0.489-0.26,0.714s-0.187,0.424-0.301,0.595s-0.266,0.311-0.454,0.42
				c-0.189,0.109-0.421,0.164-0.694,0.164s-0.505-0.054-0.694-0.161c-0.188-0.107-0.342-0.249-0.457-0.424
				c-0.117-0.175-0.218-0.375-0.305-0.598s-0.173-0.46-0.26-0.711l-2.386-6.494c-0.041-0.119-0.083-0.235-0.126-0.349
				c-0.044-0.114-0.08-0.237-0.109-0.369c-0.03-0.132-0.045-0.244-0.045-0.335c0-0.232,0.094-0.444,0.28-0.636
				s0.422-0.287,0.704-0.287c0.347,0,0.592,0.106,0.734,0.318C59.958,66.095,60.105,66.433,60.255,66.898z"/>
		</g>
	</g>
</g>
</svg>
