<?xml version="1.0" encoding="utf-8"?>
<!-- Generator: Adobe Illustrator 16.0.0, SVG Export Plug-In . SVG Version: 6.00 Build 0)  -->
<!DOCTYPE svg PUBLIC "-//W3C//DTD SVG 1.1//EN" "http://www.w3.org/Graphics/SVG/1.1/DTD/svg11.dtd">
<svg version="1.1" id="Layer_1" xmlns="http://www.w3.org/2000/svg" xmlns:xlink="http://www.w3.org/1999/xlink" x="0px" y="0px"
	 width="136.913px" height="136.914px" viewBox="0 0 136.913 136.914" enable-background="new 0 0 136.913 136.914"
	 xml:space="preserve">
<g>
	<g>
		<circle fill="#D7DABA" cx="68.457" cy="68.457" r="63.333"/>
	</g>
	<g>
		<g>
			<g>
				<path fill="#D42F3B" d="M43.72,30.195c-2.357,0-4.271,1.913-4.271,4.272v68.351c0,2.359,1.914,4.271,4.271,4.271h49.129
					c2.359,0,4.271-1.912,4.271-4.271v-52.84L76.528,30.195H43.72z"/>
			</g>
		</g>
		<path fill="#BC2B3B" d="M97.12,49.979H80.8c-2.359,0-4.271-1.912-4.271-4.271V30.195L97.12,49.979z"/>
		<path fill="#BC2B3B" d="M75.677,77.762c0,2.723-2.207,4.93-4.93,4.93H34.763c-2.723,0-4.93-2.207-4.93-4.93v-15.06
			c0-2.723,2.207-4.929,4.93-4.929h35.984c2.723,0,4.93,2.206,4.93,4.929V77.762z"/>
		<g>
			<path fill="#FFFFFF" d="M41.217,65.736h2.646c0.688,0,1.278,0.064,1.771,0.191s0.938,0.367,1.34,0.718
				c1.044,0.893,1.565,2.251,1.565,4.074c0,0.602-0.053,1.151-0.157,1.647s-0.267,0.944-0.485,1.343s-0.499,0.755-0.841,1.07
				c-0.269,0.242-0.563,0.435-0.882,0.581s-0.662,0.249-1.029,0.308c-0.366,0.059-0.78,0.089-1.24,0.089h-2.646
				c-0.369,0-0.647-0.056-0.834-0.167s-0.309-0.269-0.366-0.472c-0.057-0.203-0.085-0.466-0.085-0.79V66.98
				c0-0.438,0.098-0.754,0.294-0.95S40.779,65.736,41.217,65.736z M42.003,67.342v6.802h1.538c0.337,0,0.602-0.009,0.793-0.027
				s0.39-0.064,0.595-0.137s0.383-0.175,0.533-0.308c0.679-0.574,1.019-1.563,1.019-2.967c0-0.989-0.149-1.729-0.448-2.222
				c-0.298-0.492-0.666-0.806-1.104-0.94s-0.966-0.202-1.586-0.202H42.003z"/>
			<path fill="#FFFFFF" d="M49.953,73.809l2.242-3.274l-1.887-2.912c-0.178-0.283-0.312-0.525-0.399-0.728
				c-0.09-0.203-0.134-0.397-0.134-0.584c0-0.191,0.085-0.363,0.257-0.516c0.17-0.153,0.379-0.229,0.625-0.229
				c0.282,0,0.502,0.083,0.66,0.25c0.156,0.167,0.374,0.475,0.652,0.926l1.504,2.434l1.606-2.434
				c0.132-0.205,0.245-0.38,0.339-0.526c0.093-0.146,0.183-0.267,0.27-0.362s0.184-0.167,0.291-0.215
				c0.106-0.048,0.23-0.072,0.372-0.072c0.255,0,0.464,0.076,0.626,0.229c0.161,0.153,0.242,0.334,0.242,0.543
				c0,0.305-0.176,0.72-0.526,1.244l-1.976,2.953l2.126,3.274c0.191,0.287,0.33,0.525,0.417,0.714s0.13,0.368,0.13,0.537
				c0,0.16-0.039,0.305-0.116,0.438s-0.187,0.237-0.328,0.314s-0.301,0.116-0.479,0.116c-0.191,0-0.354-0.04-0.485-0.12
				s-0.239-0.179-0.321-0.297s-0.234-0.349-0.458-0.69l-1.764-2.775l-1.873,2.857c-0.146,0.228-0.249,0.387-0.312,0.479
				c-0.061,0.091-0.135,0.18-0.222,0.267s-0.189,0.155-0.308,0.205s-0.258,0.075-0.417,0.075c-0.246,0-0.45-0.075-0.612-0.226
				c-0.161-0.15-0.242-0.369-0.242-0.656C49.454,74.709,49.62,74.297,49.953,73.809z"/>
			<path fill="#FFFFFF" d="M64.767,67.301h-3.999v2.563h3.343c0.31,0,0.541,0.069,0.693,0.208c0.153,0.139,0.229,0.325,0.229,0.557
				s-0.077,0.417-0.232,0.554s-0.385,0.205-0.69,0.205h-3.343v3.302c0,0.419-0.095,0.73-0.284,0.933
				c-0.188,0.203-0.432,0.304-0.728,0.304c-0.301,0-0.546-0.103-0.735-0.308c-0.188-0.205-0.283-0.515-0.283-0.93V66.98
				c0-0.292,0.043-0.53,0.13-0.714s0.222-0.319,0.407-0.403c0.184-0.084,0.42-0.126,0.707-0.126h4.785
				c0.323,0,0.564,0.072,0.721,0.215c0.158,0.144,0.236,0.332,0.236,0.564c0,0.237-0.078,0.427-0.236,0.571
				C65.331,67.229,65.09,67.301,64.767,67.301z"/>
		</g>
	</g>
</g>
</svg>
