<?xml version="1.0" encoding="utf-8"?>
<!-- Generator: Adobe Illustrator 16.0.0, SVG Export Plug-In . SVG Version: 6.00 Build 0)  -->
<!DOCTYPE svg PUBLIC "-//W3C//DTD SVG 1.1//EN" "http://www.w3.org/Graphics/SVG/1.1/DTD/svg11.dtd">
<svg version="1.1" id="Layer_1" xmlns="http://www.w3.org/2000/svg" xmlns:xlink="http://www.w3.org/1999/xlink" x="0px" y="0px"
	 width="136.833px" height="136.834px" viewBox="0 0 136.833 136.834" style="enable-background:new 0 0 136.833 136.834;"
	 xml:space="preserve">
<style type="text/css">
<![CDATA[
	.st0{fill:#7A6F64;}
	.st1{fill:#7D9D3E;}
	.st2{fill:#ACC337;}
	.st3{fill:#E23A37;}
	.st4{fill:#E37A26;}
	.st5{fill:#163749;}
	.st6{fill:#4A6C96;}
	.st7{fill:#E88524;}
	.st8{fill:#B56027;}
	.st9{fill:#88A0D2;}
	.st10{fill:#517AA6;}
	.st11{fill:#588DBF;}
	.st12{fill:#59337F;}
	.st13{fill:#8D964E;}
	.st14{fill:#8F8376;}
	.st15{fill:#21455F;}
	.st16{fill:#BF2026;}
	.st17{fill:#F7981D;}
	.st18{fill:#2A4049;}
	.st19{fill:#96B33D;}
	.st20{fill:#C93332;}
	.st21{fill:#FFFFFF;}
	.st22{fill:#CA2027;}
	.st23{fill:#CB7429;}
	.st24{fill:#9DCB3B;}
	.st25{fill:#344E5D;}
	.st26{fill:#355670;}
	.st27{fill:#396183;}
	.st28{fill:#6DA0D5;}
	.st29{fill:#6E4095;}
	.st30{fill:#6F8BC6;}
	.st31{fill:#D06A28;}
	.st32{fill:#3C5B78;}
	.st33{fill:#D7DABA;}
	.st34{fill:#718839;}
	.st35{fill:#A1B13A;}
	.st36{fill:#73773D;}
	.st37{fill:#DA1F26;}
]]>
</style>
<g>
	<g>
		<circle class="st33" cx="68.416" cy="68.417" r="63.333"/>
	</g>
	<g>
		<g>
			<path class="st29" d="M43.681,30.156c-2.359,0-4.271,1.912-4.271,4.271v68.352c0,2.359,1.912,4.271,4.271,4.271h49.127
				c2.359,0,4.271-1.912,4.271-4.271v-52.84L76.487,30.156H43.681z"/>
		</g>
		<path class="st12" d="M97.079,49.939h-16.32c-2.359,0-4.271-1.912-4.271-4.271V30.156L97.079,49.939z"/>
		<path class="st12" d="M75.636,77.722c0,2.723-2.207,4.93-4.928,4.93H34.722c-2.723,0-4.928-2.207-4.928-4.93V62.662
			c0-2.723,2.205-4.929,4.928-4.929h35.986c2.721,0,4.928,2.206,4.928,4.929V77.722z"/>
		<g>
			<path class="st21" d="M41.376,66.755v3.514l3.985-4.156c0.191-0.201,0.354-0.349,0.489-0.444
				c0.134-0.096,0.313-0.144,0.536-0.144c0.292,0,0.527,0.085,0.708,0.256c0.18,0.171,0.27,0.379,0.27,0.625
				c0,0.296-0.152,0.59-0.458,0.882l-2.468,2.338l2.844,4.074c0.2,0.283,0.351,0.53,0.451,0.742s0.15,0.418,0.15,0.619
				c0,0.223-0.088,0.417-0.264,0.581c-0.175,0.164-0.413,0.246-0.714,0.246c-0.282,0-0.513-0.061-0.69-0.181
				s-0.328-0.281-0.451-0.482s-0.232-0.383-0.328-0.547l-2.399-3.691l-1.661,1.593v2.071c0,0.419-0.096,0.73-0.287,0.933
				s-0.438,0.304-0.738,0.304c-0.173,0-0.34-0.045-0.499-0.137s-0.282-0.214-0.369-0.369c-0.063-0.127-0.103-0.276-0.116-0.444
				s-0.021-0.413-0.021-0.731v-7.451c0-0.41,0.09-0.718,0.271-0.923c0.18-0.205,0.425-0.308,0.734-0.308
				c0.306,0,0.553,0.102,0.742,0.304C41.281,66.032,41.376,66.341,41.376,66.755z"/>
			<path class="st21" d="M56.299,67.261h-4.573v2.461h4.211c0.31,0,0.541,0.069,0.693,0.208c0.153,0.139,0.229,0.322,0.229,0.55
				s-0.075,0.414-0.226,0.557s-0.383,0.215-0.697,0.215h-4.211v2.851h4.73c0.319,0,0.56,0.074,0.721,0.222
				c0.162,0.148,0.243,0.345,0.243,0.591c0,0.237-0.081,0.43-0.243,0.578c-0.161,0.148-0.401,0.222-0.721,0.222h-5.517
				c-0.442,0-0.76-0.098-0.954-0.294c-0.193-0.196-0.29-0.513-0.29-0.95V66.94c0-0.292,0.043-0.53,0.13-0.714
				s0.223-0.319,0.406-0.403c0.186-0.084,0.421-0.126,0.708-0.126h5.359c0.323,0,0.563,0.072,0.722,0.215
				c0.156,0.144,0.235,0.332,0.235,0.564c0,0.237-0.079,0.427-0.235,0.571C56.862,67.189,56.622,67.261,56.299,67.261z"/>
			<path class="st21" d="M61.269,74.651v-3.179l-2.447-3.794c-0.214-0.342-0.365-0.608-0.455-0.8
				c-0.088-0.191-0.133-0.358-0.133-0.499c0-0.232,0.09-0.433,0.27-0.602c0.181-0.168,0.402-0.253,0.667-0.253
				c0.278,0,0.489,0.079,0.632,0.236c0.145,0.157,0.359,0.471,0.646,0.94l1.873,3.042l1.894-3.042
				c0.114-0.187,0.21-0.344,0.287-0.472s0.163-0.247,0.257-0.359c0.093-0.112,0.196-0.197,0.311-0.256s0.253-0.089,0.417-0.089
				c0.255,0,0.468,0.083,0.64,0.25c0.17,0.167,0.256,0.359,0.256,0.578c0,0.178-0.043,0.355-0.13,0.533s-0.234,0.424-0.444,0.738
				l-2.509,3.849v3.179c0,0.415-0.096,0.725-0.287,0.93s-0.436,0.308-0.731,0.308c-0.301,0-0.545-0.102-0.731-0.304
				S61.269,75.07,61.269,74.651z"/>
		</g>
	</g>
</g>
</svg>
