<?xml version="1.0" encoding="utf-8"?>
<!-- Generator: Adobe Illustrator 16.0.0, SVG Export Plug-In . SVG Version: 6.00 Build 0)  -->
<!DOCTYPE svg PUBLIC "-//W3C//DTD SVG 1.1//EN" "http://www.w3.org/Graphics/SVG/1.1/DTD/svg11.dtd">
<svg version="1.1" id="Layer_1" xmlns="http://www.w3.org/2000/svg" xmlns:xlink="http://www.w3.org/1999/xlink" x="0px" y="0px"
	 width="136.833px" height="136.834px" viewBox="0 0 136.833 136.834" style="enable-background:new 0 0 136.833 136.834;"
	 xml:space="preserve">
<style type="text/css">
<![CDATA[
	.st0{fill:#E0E0E0;}
	.st1{fill:#B41F36;}
	.st2{fill:#1A5B80;}
	.st3{fill:#862165;}
	.st4{fill:#1B7EC1;}
	.st5{fill:#EA2227;}
	.st6{fill:#EE3725;}
	.st7{fill:#EE3B3F;}
	.st8{fill-rule:evenodd;clip-rule:evenodd;fill:#E0EFFA;}
	.st9{fill-rule:evenodd;clip-rule:evenodd;fill:#E2E4D5;}
	.st10{fill:#BA6D71;}
	.st11{fill-rule:evenodd;clip-rule:evenodd;fill:#E92F30;}
	.st12{fill:#203D74;}
	.st13{fill:#F16622;}
	.st14{fill:#F16823;}
	.st15{fill:#231F20;}
	.st16{fill:#F26E21;}
	.st17{fill:#F3F2F2;}
	.st18{fill:#F4C82E;}
	.st19{fill-rule:evenodd;clip-rule:evenodd;fill:#1A5B80;}
	.st20{fill-rule:evenodd;clip-rule:evenodd;fill:#1A80AD;}
	.st21{fill:#F5E11C;}
	.st22{fill:#27ADE4;}
	.st23{fill-rule:evenodd;clip-rule:evenodd;fill:#EA2230;}
	.st24{fill-rule:evenodd;clip-rule:evenodd;fill:#EAF3F8;}
	.st25{fill:#F7981D;}
	.st26{fill:#F7AB1B;}
	.st27{fill:#293688;}
	.st28{fill-rule:evenodd;clip-rule:evenodd;fill:#ED1C2E;}
	.st29{fill-rule:evenodd;clip-rule:evenodd;fill:#505F7C;}
	.st30{fill:#931B1D;}
	.st31{fill:#2D78BC;}
	.st32{fill-rule:evenodd;clip-rule:evenodd;fill:#BC202A;}
	.st33{fill-rule:evenodd;clip-rule:evenodd;}
	.st34{fill:#FFDF1B;}
	.st35{fill:#FFFFFF;}
	.st36{fill-rule:evenodd;clip-rule:evenodd;fill:#231F20;}
	.st37{fill:#65B1E2;}
	.st38{fill-rule:evenodd;clip-rule:evenodd;fill:#F4C82E;}
	.st39{fill:#9A847A;}
	.st40{fill:#CA3092;}
	.st41{fill:#CB2026;}
	.st42{fill:#686969;}
	.st43{fill-rule:evenodd;clip-rule:evenodd;fill:#F7981D;}
	.st44{fill:#CC1B69;}
	.st45{fill:#305499;}
	.st46{fill:#329947;}
	.st47{fill:#6BB745;}
	.st48{fill:#003473;}
	.st49{fill:#00529E;}
	.st50{fill:#005595;}
	.st51{fill:#005B84;}
	.st52{fill:#005E88;}
	.st53{fill:#0063A6;}
	.st54{fill:#008061;}
	.st55{fill:#0095C3;}
	.st56{fill:#009DA5;}
	.st57{fill:#00A051;}
	.st58{fill:#D0D1D1;}
	.st59{fill-rule:evenodd;clip-rule:evenodd;fill:#FFFFFF;}
	.st60{fill:#D19EA0;}
	.st61{fill:#0356A2;}
	.st62{fill:#D29EA1;}
	.st63{fill:#0468B2;}
	.st64{fill:#D32259;}
	.st65{fill:#055D77;}
	.st66{fill-rule:evenodd;clip-rule:evenodd;fill:#65B1E2;}
	.st67{fill:#0683C2;}
	.st68{fill:#0872B9;}
	.st69{fill:#3C80AD;}
	.st70{fill-rule:evenodd;clip-rule:evenodd;fill:#32357F;}
	.st71{fill:#A23C42;}
	.st72{fill:#0B161F;}
	.st73{fill:#0C4875;}
	.st74{fill:#0F549D;}
	.st75{fill-rule:evenodd;clip-rule:evenodd;fill:#005595;}
	.st76{fill-rule:evenodd;clip-rule:evenodd;fill:#009DDD;}
	.st77{fill:#DEBBBC;}
	.st78{fill:#43567E;}
	.st79{fill-rule:evenodd;clip-rule:evenodd;fill:#D2D2D2;}
]]>
</style>
<g>
	<g>
		<g>
			<circle class="st17" cx="68.417" cy="68.417" r="63.333"/>
		</g>
	</g>
	<g>
		<g>
			<polygon class="st67" points="90.323,100.579 91.894,100.541 93.433,100.419 94.958,100.23 96.458,99.958 97.929,99.624 
				99.378,99.214 100.788,98.729 102.169,98.191 103.519,97.576 104.829,96.91 106.103,96.173 107.339,95.377 108.538,94.537 
				109.683,93.626 110.79,92.671 111.843,91.662 112.851,90.609 113.808,89.501 114.716,88.349 115.565,87.158 116.354,85.922 
				117.091,84.648 117.757,83.336 118.372,81.988 118.909,80.607 119.396,79.189 119.804,77.749 120.138,76.27 120.413,74.777 
				120.601,73.251 120.722,71.706 120.761,70.136 120.722,68.582 120.601,67.042 120.413,65.525 120.138,64.041 119.804,62.568 
				119.396,61.136 118.909,59.726 118.372,58.353 117.757,57.011 117.091,55.699 116.354,54.433 115.565,53.197 114.716,52.006 
				113.808,50.861 112.851,49.761 111.843,48.708 110.79,47.7 109.683,46.744 108.538,45.841 107.339,45 106.103,44.212 
				104.829,43.476 103.519,42.801 102.169,42.195 100.788,41.648 99.378,41.171 97.929,40.761 96.458,40.427 94.958,40.156 
				93.433,39.965 91.894,39.843 90.323,39.806 88.755,39.843 87.208,39.965 85.69,40.156 84.19,40.427 82.72,40.761 81.271,41.171 
				79.86,41.648 78.481,42.195 77.132,42.801 75.827,43.476 74.554,44.212 73.317,45 72.126,45.841 70.981,46.744 69.874,47.7 
				68.821,48.708 67.819,49.761 66.864,50.861 65.962,52.006 65.112,53.197 64.325,54.433 63.597,55.699 62.921,57.011 
				62.315,58.353 61.776,59.726 61.3,61.136 60.89,62.568 60.548,64.041 60.282,65.525 60.093,67.042 59.972,68.582 59.935,70.136 
				59.972,71.706 60.093,73.251 60.282,74.777 60.548,76.27 60.89,77.749 61.3,79.189 61.776,80.607 62.315,81.988 62.921,83.336 
				63.597,84.648 64.325,85.922 65.112,87.158 65.962,88.349 66.864,89.501 67.819,90.609 68.821,91.662 69.874,92.671 
				70.981,93.626 72.126,94.537 73.317,95.377 74.554,96.173 75.827,96.91 77.132,97.576 78.481,98.191 79.86,98.729 81.271,99.214 
				82.72,99.624 84.19,99.958 85.69,100.23 87.208,100.419 88.755,100.541 			"/>
		</g>
		<g>
			<polygon class="st45" points="50.009,100.579 51.579,100.541 53.126,100.419 54.642,100.23 56.144,99.958 57.614,99.624 
				59.062,99.214 60.472,98.729 61.853,98.191 63.202,97.576 64.507,96.91 65.78,96.173 67.017,95.377 68.206,94.537 69.351,93.626 
				70.458,92.671 71.513,91.662 72.513,90.609 73.468,89.501 74.37,88.349 75.22,87.158 76.009,85.922 76.737,84.648 77.413,83.336 
				78.019,81.988 78.556,80.607 79.034,79.189 79.444,77.749 79.784,76.27 80.05,74.777 80.239,73.251 80.36,71.706 80.399,70.136 
				80.36,68.582 80.239,67.042 80.05,65.525 79.784,64.041 79.444,62.568 79.034,61.136 78.556,59.726 78.019,58.353 77.413,57.011 
				76.737,55.699 76.009,54.433 75.22,53.197 74.37,52.006 73.468,50.861 72.513,49.761 71.513,48.708 70.458,47.7 69.351,46.744 
				68.206,45.841 67.017,45 65.78,44.212 64.507,43.476 63.202,42.801 61.853,42.195 60.472,41.648 59.062,41.171 57.614,40.761 
				56.144,40.427 54.642,40.156 53.126,39.965 51.579,39.843 50.009,39.806 48.438,39.843 46.899,39.965 45.376,40.156 
				43.874,40.427 42.403,40.761 40.956,41.171 39.546,41.648 38.157,42.195 36.815,42.801 35.497,43.476 34.222,44.212 32.987,45 
				31.796,45.841 30.644,46.744 29.544,47.7 28.483,48.708 27.474,49.761 26.519,50.861 25.616,52.006 24.767,53.197 23.97,54.433 
				23.243,55.699 22.567,57.011 21.962,58.353 21.415,59.726 20.938,61.136 20.521,62.568 20.187,64.041 19.915,65.525 
				19.726,67.042 19.603,68.582 19.565,70.136 19.603,71.706 19.726,73.251 19.915,74.777 20.187,76.27 20.521,77.749 
				20.938,79.189 21.415,80.607 21.962,81.988 22.567,83.336 23.243,84.648 23.97,85.922 24.767,87.158 25.616,88.349 
				26.519,89.501 27.474,90.609 28.483,91.662 29.544,92.671 30.644,93.626 31.796,94.537 32.987,95.377 34.222,96.173 
				35.497,96.91 36.815,97.576 38.157,98.191 39.546,98.729 40.956,99.214 42.403,99.624 43.874,99.958 45.376,100.23 
				46.899,100.419 48.438,100.541 			"/>
		</g>
		<g>
			<polygon class="st67" points="66.417,51.377 81.831,51.377 81.831,49.679 67.911,49.679 			"/>
		</g>
		<g>
			<polygon class="st67" points="63.999,54.978 81.831,54.978 81.831,53.28 65.083,53.28 			"/>
		</g>
		<g>
			<polygon class="st67" points="62.2,58.625 81.831,58.625 81.831,56.927 63.021,56.927 			"/>
		</g>
		<g>
			<polygon class="st67" points="61.019,62.228 81.831,62.228 81.831,60.529 61.534,60.529 			"/>
		</g>
		<g>
			<polygon class="st67" points="60.245,65.83 81.831,65.83 81.831,64.13 60.556,64.13 			"/>
		</g>
		<g>
			<polygon class="st67" points="59.935,69.423 81.831,69.423 81.831,67.724 60.04,67.724 			"/>
		</g>
		<g>
			<polygon class="st67" points="60.093,73.017 81.831,73.017 81.831,71.318 59.935,71.318 			"/>
		</g>
		<g>
			<polygon class="st67" points="60.608,76.619 81.831,76.619 81.831,74.92 60.298,74.92 			"/>
		</g>
		<g>
			<polygon class="st67" points="61.632,80.212 81.831,80.212 81.831,78.522 61.116,78.522 			"/>
		</g>
		<g>
			<polygon class="st67" points="63.179,83.814 81.831,83.814 81.831,82.116 62.353,82.116 			"/>
		</g>
		<g>
			<polygon class="st67" points="65.333,87.469 81.831,87.469 81.831,85.718 64.202,85.718 			"/>
		</g>
		<g>
			<polygon class="st67" points="68.267,91.063 81.831,91.063 81.831,89.373 66.772,89.373 			"/>
		</g>
		<g>
			<g>
				<g>
					<polygon class="st35" points="113.329,78.726 113.337,78.689 113.374,78.544 113.421,78.408 113.489,78.287 113.563,78.166 
						113.647,78.052 113.747,77.953 113.853,77.862 113.966,77.779 114.087,77.71 114.216,77.65 114.353,77.605 114.497,77.574 
						114.647,77.551 114.8,77.543 114.944,77.551 115.081,77.574 115.218,77.605 115.347,77.65 115.476,77.71 115.597,77.779 
						115.702,77.862 115.808,77.953 115.899,78.052 115.991,78.166 116.06,78.287 116.128,78.408 116.173,78.544 116.21,78.689 
						116.218,78.726 115.952,78.726 115.884,78.514 115.771,78.318 115.62,78.143 115.444,78 115.247,77.892 115.028,77.825 
						114.8,77.801 114.679,77.81 114.558,77.825 114.437,77.855 114.323,77.892 114.216,77.938 114.118,78 114.019,78.067 
						113.937,78.143 113.853,78.226 113.776,78.318 113.716,78.416 113.663,78.514 113.624,78.628 113.595,78.726 					"/>
				</g>
				<g>
					<polygon class="st35" points="114.231,78.726 114.231,78.318 114.854,78.318 114.974,78.325 115.081,78.347 115.171,78.378 
						115.239,78.423 115.294,78.484 115.331,78.552 115.354,78.635 115.36,78.726 115.149,78.726 115.157,78.673 115.149,78.621 
						115.118,78.583 115.081,78.56 115.036,78.537 114.981,78.53 114.921,78.522 114.86,78.522 114.8,78.522 114.489,78.522 
						114.489,78.726 					"/>
				</g>
				<g>
					<polygon class="st35" points="113.306,78.954 113.313,78.833 113.329,78.726 113.595,78.726 113.587,78.742 113.571,78.863 
						113.563,78.954 					"/>
				</g>
				<g>
					<polygon class="st35" points="114.231,78.954 114.231,78.726 114.489,78.726 114.489,78.931 114.747,78.931 114.839,78.931 
						114.921,78.917 114.989,78.901 115.05,78.878 115.095,78.847 115.126,78.802 115.149,78.742 115.149,78.726 115.36,78.726 
						115.36,78.726 115.354,78.794 115.331,78.863 115.3,78.917 115.271,78.954 					"/>
				</g>
				<g>
					<polygon class="st35" points="115.983,78.954 115.96,78.742 115.952,78.726 116.218,78.726 116.233,78.833 116.241,78.954 
											"/>
				</g>
				<g>
					<polygon class="st35" points="113.306,78.954 113.306,78.984 113.313,79.144 113.337,79.295 113.374,79.447 113.421,79.583 
						113.489,79.712 113.563,79.841 113.647,79.947 113.747,80.053 113.853,80.144 113.966,80.228 114.087,80.304 114.216,80.365 
						114.353,80.41 114.497,80.44 114.647,80.462 114.8,80.47 114.944,80.462 115.081,80.44 115.218,80.41 115.347,80.365 
						115.476,80.304 115.597,80.228 115.702,80.144 115.808,80.053 115.899,79.947 115.991,79.841 116.06,79.712 116.128,79.583 
						116.173,79.447 116.21,79.295 116.233,79.144 116.241,78.984 116.241,78.954 115.983,78.954 115.983,78.984 115.96,79.242 
						115.884,79.478 115.771,79.689 115.62,79.872 115.444,80.015 115.247,80.122 115.028,80.191 114.8,80.212 114.679,80.205 
						114.558,80.191 114.437,80.16 114.323,80.122 114.216,80.076 114.118,80.015 114.019,79.947 113.937,79.872 113.853,79.781 
						113.776,79.689 113.716,79.591 113.663,79.478 113.624,79.363 113.587,79.242 113.571,79.113 113.563,78.984 113.563,78.954 
											"/>
				</g>
				<g>
					<polygon class="st35" points="114.231,78.954 114.231,79.599 114.489,79.599 114.489,79.083 114.747,79.083 115.058,79.599 
						115.315,79.599 115.005,79.083 115.081,79.06 115.149,79.03 115.21,79 115.263,78.961 115.271,78.954 					"/>
				</g>
			</g>
		</g>
		<g>
			<g>
				<g>
					<path class="st35" d="M114.8,80.578l-0.158-0.008l-0.312-0.055l-0.147-0.048l-0.142-0.065l-0.253-0.171l-0.111-0.096
						l-0.197-0.227l-0.153-0.274l-0.054-0.152l-0.04-0.161l-0.025-0.16l-0.009-0.171l0.008-0.162l0.024-0.155l0.089-0.299
						l0.152-0.264l0.09-0.121l0.221-0.208l0.12-0.088l0.268-0.139l0.149-0.05l0.313-0.058l0.162-0.009l0.156,0.008l0.292,0.056
						l0.14,0.048l0.268,0.137l0.229,0.186l0.197,0.227l0.146,0.257l0.093,0.307l0.025,0.153l0.009,0.163l-0.008,0.171l-0.024,0.163
						l-0.086,0.305l-0.145,0.274l-0.197,0.232l-0.225,0.188l-0.131,0.083l-0.141,0.067l-0.14,0.049l-0.291,0.057L114.8,80.578z
						 M114.794,77.651l-0.141,0.008l-0.278,0.051l-0.126,0.042l-0.23,0.121l-0.201,0.162l-0.094,0.094l-0.143,0.214l-0.066,0.118
						l-0.073,0.255l-0.021,0.134l-0.007,0.14l0.008,0.149l0.058,0.283l0.044,0.127l0.134,0.239l0.169,0.192l0.205,0.162l0.114,0.072
						l0.117,0.054l0.124,0.04l0.277,0.048l0.137,0.007l0.139-0.008l0.256-0.05l0.117-0.042l0.118-0.056l0.109-0.07l0.198-0.166
						l0.173-0.201l0.123-0.237l0.072-0.263l0.021-0.143l0.007-0.149l-0.008-0.141l-0.058-0.267l-0.043-0.13l-0.128-0.223
						l-0.169-0.193l-0.198-0.162l-0.229-0.116l-0.118-0.041l-0.256-0.049L114.794,77.651z"/>
				</g>
			</g>
		</g>
		<g>
			<g>
				<g>
					<path class="st35" d="M115.506,79.707h-0.509l-0.311-0.516h-0.09v0.516h-0.473V78.21l0.855,0.007l0.124,0.025l0.103,0.035
						l0.113,0.074l0.055,0.061l0.052,0.089l0.032,0.105l0.01,0.113l-0.006,0.084l-0.029,0.094l-0.107,0.151l-0.16,0.092
						L115.506,79.707z M115.118,79.492h0.007l-0.283-0.471l0.346-0.137l0.051-0.075l0.015-0.092l-0.006-0.075l-0.048-0.107
						l-0.027-0.027l-0.06-0.04l-0.161-0.039l-0.103-0.004h-0.51v1.066h0.043v-0.516h0.426L115.118,79.492z"/>
				</g>
			</g>
		</g>
		<g>
			<g>
				<g>
					<path class="st35" d="M114.849,79.039h-0.467v-0.624l0.704,0.027l0.115,0.073l0.05,0.061l0.015,0.096l-0.016,0.109
						l-0.023,0.061l-0.07,0.095l-0.069,0.043l-0.142,0.042L114.849,79.039z M114.597,78.824l0.306-0.013l0.115-0.041l0.026-0.048
						l0.005-0.046l-0.002-0.01l-0.043-0.024l-0.097-0.013l-0.311,0.001V78.824z"/>
				</g>
			</g>
		</g>
		<g>
			<g>
				<g>
					<path class="st35" d="M114.802,80.32l-0.256-0.022l-0.257-0.074l-0.115-0.049l-0.216-0.139l-0.185-0.182l-0.08-0.096
						l-0.069-0.11l-0.059-0.125l-0.081-0.25l-0.028-0.283l0.024-0.262l0.081-0.249l0.123-0.218l0.085-0.104l0.176-0.169l0.213-0.141
						l0.245-0.094l0.128-0.033l0.261-0.026l0.247,0.024l0.239,0.072l0.218,0.116l0.192,0.154l0.163,0.188l0.125,0.213l0.085,0.247
						l0.029,0.266l-0.023,0.278l-0.081,0.26l-0.121,0.229l-0.162,0.2l-0.19,0.159l-0.215,0.118l-0.237,0.077L114.802,80.32z
						 M114.789,77.908l-0.219,0.023l-0.214,0.063l-0.099,0.042l-0.179,0.119l-0.151,0.147l-0.068,0.084l-0.102,0.178l-0.068,0.21
						l-0.019,0.215l0.022,0.238l0.071,0.215l0.104,0.189l0.223,0.235l0.182,0.117l0.198,0.073l0.114,0.029l0.213,0.018l0.221-0.021
						l0.196-0.065l0.179-0.099l0.158-0.132l0.136-0.167l0.102-0.193l0.068-0.219l0.019-0.234l-0.023-0.222l-0.07-0.204l-0.104-0.177
						l-0.139-0.158l-0.163-0.13l-0.181-0.097l-0.198-0.059L114.789,77.908z"/>
				</g>
			</g>
		</g>
		<g>
			<polygon class="st35" points="112.382,65.98 112.138,65.965 111.913,65.943 111.698,65.919 111.487,65.89 111.282,65.859 
				111.069,65.822 110.851,65.791 110.622,65.753 110.38,65.723 110.114,65.701 109.819,65.685 109.501,65.669 109.151,65.669 
				108.765,65.669 108.333,65.693 107.854,65.723 107.515,65.776 107.188,65.844 106.899,65.943 106.634,66.056 106.399,66.185 
				106.194,66.33 106.021,66.496 105.884,66.671 105.776,66.853 105.708,67.05 105.679,67.254 105.679,67.466 105.724,67.679 
				105.815,67.899 105.937,68.126 106.11,68.346 106.271,68.513 106.452,68.658 106.642,68.794 106.854,68.916 107.081,69.029 
				107.315,69.134 107.567,69.226 107.825,69.325 108.089,69.416 108.362,69.5 108.636,69.589 108.909,69.681 109.183,69.779 
				109.462,69.886 109.728,70 110.001,70.121 110.259,70.257 110.509,70.409 110.751,70.568 110.985,70.757 111.198,70.955 
				111.403,71.183 111.593,71.433 111.759,71.706 111.903,72.001 112.032,72.334 112.132,72.691 112.206,73.085 112.261,73.509 
				112.282,73.972 112.269,74.473 112.229,75.019 112.177,75.421 112.101,75.8 112.011,76.156 111.896,76.498 111.767,76.824 
				111.624,77.126 111.464,77.416 111.282,77.687 111.093,77.938 110.888,78.173 110.675,78.393 110.448,78.605 110.214,78.794 
				109.962,78.969 109.712,79.136 109.446,79.281 109.175,79.417 108.901,79.545 108.62,79.66 108.333,79.757 108.052,79.849 
				107.757,79.933 107.468,80 107.173,80.061 106.884,80.115 106.597,80.16 106.308,80.191 106.021,80.22 105.739,80.244 
				105.458,80.258 105.192,80.265 104.929,80.265 104.563,80.265 104.208,80.265 103.874,80.258 103.556,80.258 103.253,80.251 
				102.956,80.244 102.685,80.236 102.419,80.228 102.161,80.212 101.917,80.198 101.69,80.191 101.47,80.175 101.259,80.152 
				101.054,80.136 100.864,80.115 100.675,80.091 100.499,80.069 100.325,80.046 100.159,80.015 99.999,79.986 99.841,79.955 
				99.688,79.925 99.536,79.894 99.394,79.857 99.249,79.818 99.104,79.781 98.96,79.735 98.817,79.697 98.681,79.652 
				98.536,79.599 98.392,79.552 98.239,79.5 99.015,75.74 99.081,75.762 99.165,75.792 99.257,75.822 99.354,75.853 99.468,75.89 
				99.591,75.921 99.726,75.958 99.862,75.998 100.015,76.035 100.175,76.073 100.349,76.111 100.522,76.149 100.704,76.187 
				100.894,76.224 101.091,76.262 101.296,76.3 101.501,76.331 101.714,76.369 101.933,76.399 102.161,76.429 102.388,76.452 
				102.622,76.474 102.858,76.498 103.093,76.513 103.335,76.528 103.585,76.542 103.829,76.542 104.079,76.55 104.329,76.55 
				104.579,76.542 104.829,76.528 105.079,76.513 105.329,76.482 105.55,76.445 105.755,76.383 105.937,76.308 106.095,76.224 
				106.231,76.126 106.36,76.02 106.468,75.906 106.565,75.785 106.642,75.656 106.71,75.527 106.771,75.39 106.823,75.261 
				106.86,75.125 106.899,74.996 106.931,74.867 106.96,74.601 106.952,74.367 106.899,74.155 106.802,73.957 106.671,73.775 
				106.505,73.609 106.308,73.457 106.089,73.32 105.845,73.185 105.573,73.062 105.284,72.941 104.981,72.82 104.671,72.699 
				104.345,72.57 104.019,72.441 103.685,72.304 103.351,72.16 103.017,72.001 102.69,71.827 102.38,71.644 102.077,71.433 
				101.788,71.212 101.517,70.962 101.267,70.681 101.046,70.378 100.849,70.052 100.675,69.689 100.546,69.287 100.446,68.855 
				100.386,68.384 100.37,67.869 100.401,67.316 100.438,66.974 100.485,66.64 100.546,66.322 100.606,66.011 100.69,65.715 
				100.772,65.427 100.872,65.154 100.985,64.888 101.106,64.63 101.235,64.388 101.388,64.154 101.546,63.933 101.72,63.72 
				101.909,63.524 102.106,63.334 102.327,63.152 102.554,62.986 102.806,62.826 103.071,62.683 103.351,62.546 103.646,62.417 
				103.958,62.303 104.284,62.205 104.632,62.114 105.003,62.031 105.39,61.962 105.792,61.902 106.218,61.849 106.657,61.81 
				107.12,61.788 107.604,61.773 108.112,61.765 108.431,61.765 108.741,61.765 109.03,61.773 109.312,61.78 109.575,61.788 
				109.825,61.795 110.069,61.802 110.296,61.81 110.517,61.826 110.722,61.841 110.917,61.849 111.101,61.863 111.274,61.878 
				111.44,61.894 111.593,61.917 111.745,61.931 111.882,61.947 112.017,61.962 112.138,61.977 112.253,62 112.366,62.015 
				112.472,62.031 112.571,62.045 112.663,62.068 112.745,62.083 112.829,62.098 112.913,62.114 112.987,62.128 113.056,62.136 
				113.124,62.152 113.192,62.167 113.253,62.174 			"/>
		</g>
		<g>
			<g>
				<g>
					<path class="st35" d="M105.193,80.373l-2.777-0.037l-2.104-0.183l-1.233-0.268l-0.963-0.314l0.019-0.092l0.8-3.879l1.106,0.331
						l1.275,0.265l1.554,0.196l0.722,0.044h0.985l0.497-0.029l0.459-0.067l0.191-0.059l0.172-0.071l0.148-0.08l0.248-0.192
						l0.189-0.22l0.134-0.241l0.108-0.256l0.103-0.379l0.027-0.252l-0.009-0.219l-0.05-0.189l-0.09-0.177l-0.121-0.166l-0.155-0.153
						l-0.187-0.144l-0.21-0.13l-0.239-0.132l-0.551-0.239l-1.935-0.782l-0.337-0.16l-0.331-0.177l-0.314-0.185l-0.31-0.215
						l-0.293-0.224l-0.279-0.256l-0.257-0.289l-0.228-0.311l-0.202-0.334l-0.179-0.373l-0.135-0.416l-0.102-0.44l-0.063-0.481
						l-0.017-0.526l0.031-0.562l0.085-0.685l0.122-0.634l0.168-0.593l0.103-0.281l0.237-0.533l0.132-0.247l0.318-0.467l0.178-0.218
						l0.396-0.396l0.227-0.188l0.231-0.17l0.258-0.164l0.556-0.285l0.299-0.131l0.318-0.116l0.332-0.101l0.352-0.092l0.375-0.084
						l0.797-0.13l0.428-0.053l0.443-0.04l0.954-0.038l1.14-0.008l2.709,0.129l1.935,0.294l-0.027,0.117l-0.892,3.895l-0.779-0.066
						l-1.32-0.197l-0.87-0.053h-0.731l-0.903,0.054l-0.33,0.052l-0.32,0.067l-0.276,0.095l-0.259,0.111l-0.225,0.124l-0.195,0.138
						l-0.161,0.156l-0.126,0.164l-0.1,0.17l-0.06,0.178l-0.024,0.184l0.001,0.197l0.043,0.191l0.086,0.2l0.116,0.219l0.163,0.203
						l0.153,0.16l0.356,0.268l0.425,0.226l0.23,0.104l0.765,0.278l1.095,0.364l0.551,0.223l0.275,0.122l0.265,0.14l0.5,0.315
						l0.243,0.196l0.219,0.202l0.212,0.235l0.195,0.257l0.172,0.281L112,71.954l0.133,0.342l0.103,0.366l0.076,0.403l0.056,0.43
						l0.022,0.472l-0.014,0.509l-0.039,0.551l-0.054,0.409l-0.077,0.386l-0.091,0.361l-0.118,0.35l-0.131,0.332l-0.145,0.309
						l-0.164,0.295l-0.187,0.279l-0.192,0.256l-0.21,0.241l-0.217,0.224l-0.23,0.216l-0.24,0.194l-0.51,0.348l-0.549,0.287
						l-0.275,0.13l-0.287,0.117l-0.575,0.192l-0.299,0.085l-0.592,0.13l-0.581,0.1l-0.865,0.084L105.193,80.373z M103.874,80.151
						l1.317,0.007l0.542-0.021l0.852-0.083l0.568-0.097l0.579-0.127l0.567-0.173l0.286-0.097l0.275-0.112l0.537-0.261l0.262-0.143
						l0.492-0.336l0.229-0.185l0.221-0.207l0.209-0.216l0.201-0.231l0.185-0.245l0.179-0.266l0.155-0.282l0.139-0.296l0.127-0.32
						l0.113-0.336l0.087-0.348l0.075-0.374l0.052-0.396l0.038-0.54l0.014-0.496l-0.021-0.455l-0.054-0.415l-0.073-0.388
						l-0.098-0.348l-0.126-0.323l-0.141-0.287l-0.161-0.264l-0.184-0.241l-0.199-0.222l-0.206-0.19l-0.229-0.185l-0.48-0.302
						l-0.253-0.133l-0.53-0.231l-0.818-0.293l-1.323-0.456l-0.472-0.224l-0.218-0.124l-0.386-0.291l-0.17-0.177l-0.181-0.227
						l-0.132-0.244l-0.097-0.229l-0.051-0.232l-0.002-0.234l0.03-0.219l0.073-0.217l0.116-0.201l0.145-0.187l0.185-0.178
						l0.218-0.155l0.244-0.135l0.275-0.118l0.296-0.101l0.339-0.072l0.346-0.054l0.921-0.055h0.742l0.888,0.054l1.908,0.251
						l0.826-3.605l-1.39-0.224l-1.445-0.121l-2.176-0.045l-0.989,0.022l-0.461,0.022l-0.435,0.039l-0.822,0.113l-0.384,0.068
						l-0.71,0.172l-0.322,0.098l-0.307,0.111l-0.564,0.262l-0.262,0.141l-0.245,0.156l-0.221,0.162l-0.216,0.179l-0.378,0.377
						l-0.168,0.206l-0.304,0.446l-0.124,0.234l-0.23,0.515l-0.098,0.268l-0.163,0.577l-0.119,0.62l-0.083,0.667l-0.03,0.547
						l0.016,0.506l0.06,0.46l0.098,0.421l0.127,0.394l0.168,0.35l0.192,0.317l0.216,0.295l0.243,0.273l0.265,0.242l0.281,0.214
						l0.299,0.208l0.304,0.178l0.322,0.173l0.66,0.299l2.161,0.881l0.252,0.139l0.224,0.14l0.206,0.159l0.177,0.175l0.142,0.195
						l0.107,0.214l0.061,0.233l0.011,0.257l-0.03,0.281l-0.11,0.411l-0.118,0.281l-0.15,0.269l-0.106,0.134l-0.113,0.121
						l-0.281,0.218l-0.17,0.091l-0.191,0.08l-0.215,0.065l-0.488,0.072l-0.761,0.038l-0.747-0.008l-1.435-0.114l-1.467-0.244
						l-1.242-0.298l-0.347-0.113l-0.731,3.547l1.2,0.361l1.125,0.195l1.01,0.099L103.874,80.151z"/>
				</g>
			</g>
		</g>
		<g>
			<polygon class="st35" points="45.589,63.357 45.481,63.296 45.368,63.244 45.255,63.183 45.142,63.123 45.026,63.069 
				44.905,63.008 44.776,62.955 44.647,62.894 44.519,62.841 44.382,62.789 44.247,62.736 44.11,62.683 43.966,62.628 
				43.821,62.583 43.669,62.539 43.519,62.485 43.358,62.447 43.2,62.402 43.032,62.364 42.866,62.326 42.692,62.295 42.517,62.257 
				42.343,62.235 42.153,62.205 41.972,62.183 41.782,62.167 41.585,62.144 41.388,62.136 41.183,62.121 40.978,62.121 
				40.767,62.121 40.554,62.121 40.341,62.121 40.128,62.128 39.909,62.136 39.683,62.16 39.462,62.183 39.228,62.212 38.999,62.25 
				38.765,62.295 38.528,62.356 38.294,62.433 38.06,62.515 37.815,62.614 37.581,62.728 37.347,62.849 37.118,62.994 36.884,63.16 
				36.657,63.334 36.437,63.532 36.216,63.751 35.997,63.994 35.784,64.251 35.579,64.541 35.382,64.851 35.185,65.185 
				34.995,65.541 34.813,65.927 34.647,66.345 34.479,66.785 34.329,67.254 34.177,67.763 34.048,68.292 33.919,68.862 
				33.806,69.446 33.729,70.03 33.698,70.606 33.706,71.167 33.767,71.72 33.866,72.251 34.019,72.767 34.214,73.251 34.466,73.714 
				34.761,74.139 35.11,74.534 35.511,74.89 35.966,75.201 36.474,75.466 37.042,75.686 37.673,75.845 37.771,75.869 37.892,75.883 
				38.013,75.906 38.149,75.921 38.302,75.944 38.462,75.958 38.62,75.974 38.794,75.982 38.976,75.998 39.167,76.004 
				39.362,76.004 39.56,76.004 39.765,76.004 39.97,75.998 40.183,75.982 40.394,75.958 40.614,75.937 40.827,75.906 41.046,75.869 
				41.259,75.822 41.479,75.769 41.69,75.716 41.903,75.648 42.116,75.572 42.319,75.489 42.517,75.39 42.714,75.285 42.903,75.17 
				43.085,75.049 43.261,74.913 43.427,74.769 43.587,74.609 42.813,79.136 42.767,79.173 42.714,79.212 42.663,79.257 
				42.601,79.302 42.532,79.356 42.464,79.41 42.396,79.462 42.313,79.515 42.222,79.576 42.124,79.628 42.017,79.689 41.903,79.75 
				41.774,79.811 41.63,79.865 41.479,79.917 41.312,79.97 41.138,80.023 40.94,80.076 40.728,80.122 40.501,80.167 40.259,80.205 
				40.001,80.236 39.72,80.265 39.423,80.296 39.099,80.311 38.757,80.327 38.399,80.333 38.013,80.333 37.604,80.333 
				37.171,80.319 36.718,80.296 36.231,80.265 35.845,80.236 35.458,80.191 35.071,80.115 34.685,80.023 34.29,79.91 33.903,79.781 
				33.524,79.628 33.138,79.447 32.767,79.257 32.396,79.038 32.038,78.802 31.69,78.537 31.349,78.256 31.022,77.953 
				30.704,77.634 30.409,77.287 30.12,76.921 29.854,76.528 29.612,76.119 29.384,75.686 29.173,75.231 28.991,74.753 
				28.831,74.253 28.694,73.738 28.589,73.191 28.505,72.623 28.452,72.039 28.429,71.425 28.444,70.795 28.483,70.136 
				28.558,69.46 28.671,68.755 28.8,68.05 28.952,67.369 29.112,66.708 29.286,66.08 29.468,65.464 29.673,64.881 29.894,64.32 
				30.12,63.782 30.37,63.267 30.628,62.773 30.909,62.303 31.196,61.856 31.509,61.431 31.827,61.029 32.167,60.65 32.524,60.294 
				32.896,59.953 33.282,59.642 33.685,59.353 34.101,59.081 34.54,58.837 34.995,58.611 35.466,58.406 35.95,58.216 36.458,58.058 
				36.981,57.914 37.528,57.792 38.081,57.693 38.657,57.618 39.257,57.556 39.872,57.519 40.501,57.496 40.774,57.496 
				41.046,57.511 41.312,57.519 41.577,57.542 41.835,57.564 42.093,57.595 42.343,57.625 42.593,57.655 42.835,57.693 
				43.079,57.739 43.306,57.777 43.534,57.822 43.761,57.875 43.974,57.92 44.177,57.974 44.382,58.019 44.571,58.072 
				44.761,58.125 44.944,58.171 45.11,58.224 45.276,58.269 45.429,58.315 45.573,58.361 45.71,58.406 45.831,58.444 45.944,58.482 
				46.05,58.519 46.149,58.55 46.233,58.572 46.302,58.595 46.362,58.611 46.415,58.625 			"/>
		</g>
		<g>
			<g>
				<g>
					<path class="st35" d="M38.4,80.441h-0.796l-0.892-0.037l-0.876-0.061l-0.392-0.045l-0.395-0.078l-0.391-0.093l-0.399-0.114
						l-0.392-0.13l-0.385-0.155l-0.393-0.184l-0.374-0.191l-0.377-0.223l-0.362-0.238l-0.354-0.27l-0.345-0.283l-0.331-0.308
						l-0.321-0.321l-0.301-0.354l-0.291-0.368l-0.271-0.4l-0.246-0.415l-0.23-0.437l-0.214-0.46l-0.185-0.485l-0.162-0.505
						l-0.138-0.521l-0.107-0.554l-0.085-0.573l-0.054-0.59l-0.023-0.619l0.016-0.636l0.039-0.663l0.075-0.681l0.113-0.71l0.13-0.708
						l0.313-1.348l0.356-1.249l0.207-0.588l0.223-0.565l0.228-0.54l0.252-0.52l0.259-0.497l0.285-0.475l0.288-0.45l0.316-0.43
						l0.321-0.406l0.344-0.384l0.361-0.36l0.374-0.345l0.393-0.315l0.407-0.292l0.42-0.275l0.446-0.248l0.459-0.229l0.476-0.208
						l0.488-0.191l0.515-0.161l0.527-0.146l0.552-0.123l0.557-0.101l0.582-0.076l0.603-0.062l0.619-0.038l0.909-0.023l1.07,0.069
						l1.007,0.13l1.145,0.229l2.542,0.732l-0.018,0.096l-0.852,4.881l-0.812-0.421l-0.93-0.375l-1.086-0.298l-0.883-0.141
						l-0.784-0.062l-1.262,0.016l-0.896,0.112l-0.231,0.045l-0.23,0.059l-0.46,0.157l-0.239,0.097l-0.459,0.231l-0.221,0.14
						l-0.453,0.335l-0.215,0.192l-0.216,0.216l-0.215,0.238l-0.21,0.254l-0.2,0.283l-0.39,0.637l-0.188,0.352l-0.179,0.382
						l-0.331,0.85l-0.301,0.971l-0.256,1.092l-0.112,0.581l-0.075,0.577l-0.03,0.568l0.008,0.554l0.06,0.542l0.099,0.523l0.15,0.505
						l0.191,0.475l0.247,0.452l0.288,0.415l0.342,0.385l0.392,0.348l0.444,0.302l0.497,0.259l0.558,0.215l0.715,0.178l1.188,0.126
						l0.78,0.006l0.41-0.022l0.854-0.112l0.636-0.151l0.416-0.141l0.198-0.082l0.385-0.199l0.362-0.23l0.331-0.272l0.394-0.394
						l-0.838,4.901l-0.631,0.471l-0.461,0.243l-0.651,0.218l-0.419,0.101l-0.475,0.084l-0.841,0.092L38.4,80.441z M40.769,57.603
						h-0.268l-0.625,0.023l-0.612,0.037l-0.596,0.061l-0.573,0.075l-0.547,0.099l-0.543,0.12l-0.519,0.143l-0.504,0.157
						l-0.478,0.187l-0.467,0.204l-0.45,0.224l-0.436,0.241l-0.409,0.268l-0.398,0.287l-0.382,0.307l-0.365,0.337l-0.354,0.353
						l-0.336,0.375l-0.314,0.397l-0.31,0.421L31,62.361l-0.28,0.467l-0.254,0.489l-0.249,0.512l-0.225,0.533l-0.22,0.56L29.569,65.5
						l-0.354,1.237l-0.312,1.336l-0.128,0.701l-0.112,0.703l-0.074,0.67l-0.038,0.654l-0.016,0.626l0.023,0.607l0.053,0.578
						l0.083,0.563l0.104,0.542l0.135,0.509l0.159,0.495l0.18,0.472l0.208,0.448l0.226,0.428l0.24,0.405l0.262,0.388l0.284,0.358
						l0.293,0.345l0.313,0.312l0.323,0.301l0.337,0.276l0.345,0.263l0.352,0.231l0.366,0.217l0.365,0.186l0.384,0.18l0.373,0.15
						l0.381,0.126l0.39,0.112l0.382,0.091l0.383,0.075l0.379,0.043l1.318,0.083l0.433,0.015l1.146-0.007l0.663-0.03l1.066-0.128
						l0.626-0.142l0.627-0.208l0.434-0.229l0.544-0.403l0.711-4.166l-0.274,0.223l-0.382,0.243l-0.402,0.208l-0.428,0.164
						l-0.216,0.07l-0.654,0.155l-0.439,0.07l-0.652,0.062l-0.811,0.007l-0.875-0.061l-0.645-0.101l-0.632-0.16l-0.581-0.224
						l-0.519-0.271l-0.466-0.317l-0.411-0.365l-0.358-0.403l-0.303-0.435l-0.259-0.473l-0.2-0.496l-0.156-0.525l-0.102-0.542
						L33.6,71.179l-0.009-0.572l0.031-0.583l0.077-0.592l0.114-0.591l0.259-1.104l0.305-0.986l0.337-0.864l0.184-0.393l0.192-0.36
						l0.398-0.651l0.208-0.293l0.218-0.264l0.222-0.246l0.225-0.224l0.226-0.201l0.47-0.349l0.233-0.147l0.479-0.241l0.49-0.186
						l0.236-0.078l0.243-0.063l0.472-0.085l0.688-0.077l1.284-0.016l0.983,0.084l1.058,0.199l0.774,0.229l0.948,0.383l0.563,0.281
						l0.783-4.487l-3.007-0.821l-1.463-0.211l-0.52-0.045L40.769,57.603z"/>
				</g>
			</g>
		</g>
		<g>
			<polygon class="st35" points="50.987,80.167 53.921,62.485 48.364,62.485 45.437,80.167 			"/>
		</g>
		<g>
			<g>
				<g>
					<path class="st35" d="M51.078,80.275H45.31l0.021-0.125l2.943-17.772h5.774l-0.021,0.125L51.078,80.275z M45.563,80.06h5.333
						l2.897-17.468h-5.339L45.563,80.06z"/>
				</g>
			</g>
		</g>
		<g>
			<polygon class="st35" points="54.481,80.167 60.093,80.167 60.14,80.167 62.2,69.423 62.323,69.127 62.466,68.855 62.618,68.604 
				62.784,68.384 62.968,68.171 63.157,67.99 63.354,67.824 63.558,67.679 63.763,67.542 63.968,67.429 64.181,67.33 64.392,67.24 
				64.597,67.164 64.794,67.103 64.991,67.05 65.181,67.003 65.265,66.99 65.37,66.99 65.478,66.99 65.606,67.003 65.735,67.019 
				65.864,67.042 66.001,67.065 66.128,67.095 66.257,67.125 66.38,67.156 66.485,67.178 66.583,67.208 66.659,67.232 66.72,67.247 
				66.759,67.254 66.772,67.262 68.267,62.121 68.001,62.114 67.751,62.106 67.493,62.106 67.251,62.114 67.009,62.121 
				66.772,62.144 66.546,62.167 66.325,62.197 66.106,62.235 65.886,62.273 65.681,62.326 65.478,62.379 65.28,62.44 65.083,62.5 
				64.894,62.576 64.704,62.652 64.528,62.736 64.347,62.819 64.181,62.917 64.005,63.015 63.847,63.123 63.687,63.228 
				63.528,63.349 63.376,63.471 63.233,63.599 63.089,63.728 62.944,63.865 62.808,64.017 62.679,64.161 62.55,64.32 62.421,64.48 
				62.3,64.646 62.505,62.281 57.622,62.281 54.481,80.167 			"/>
		</g>
		<g>
			<g>
				<g>
					<path class="st35" d="M60.229,80.275h-5.875l0.022-0.126l3.156-17.976h5.09l-0.184,2.113l0.426-0.493l0.439-0.402l0.317-0.249
						l0.323-0.216l0.348-0.2l0.751-0.326l0.816-0.231l0.673-0.108l0.466-0.047l0.753-0.015l0.658,0.018l-1.571,5.407l-0.14-0.071
						l-0.982-0.227l-0.25-0.028l-0.268,0.013l-0.57,0.157l-0.405,0.163l-0.209,0.098l-0.199,0.11l-0.397,0.274l-0.19,0.161
						l-0.185,0.177l-0.177,0.206l-0.161,0.214l-0.146,0.242l-0.139,0.267L62.3,69.465L60.229,80.275z M54.609,80.06h5.441
						l2.044-10.657l0.129-0.317l0.146-0.281l0.156-0.257l0.172-0.229l0.188-0.218l0.196-0.189l0.202-0.17l0.418-0.289l0.213-0.118
						l0.434-0.194L64.763,67l0.484-0.117l0.23-0.001l0.541,0.077l0.68,0.172l1.426-4.906l-0.631-0.011l-0.481,0.015l-0.673,0.075
						l-0.435,0.076l-0.79,0.224l-0.723,0.313l-0.646,0.401l-0.303,0.237l-0.425,0.388l-0.514,0.604l-0.346,0.474l0.229-2.633h-4.676
						L54.609,80.06z"/>
				</g>
			</g>
		</g>
		<g>
			<polygon class="st35" points="96.079,80.212 90.628,80.212 91.036,77.597 90.907,77.741 90.778,77.885 90.657,78.029 
				90.536,78.166 90.407,78.302 90.286,78.431 90.157,78.552 90.036,78.673 89.907,78.794 89.771,78.909 89.634,79.023 
				89.491,79.121 89.347,79.227 89.194,79.326 89.036,79.417 88.868,79.5 88.694,79.583 88.505,79.667 88.315,79.735 88.11,79.803 
				87.897,79.872 87.671,79.925 87.429,79.978 87.177,80.031 86.913,80.069 86.632,80.107 86.337,80.136 86.032,80.167 
				85.698,80.183 85.358,80.198 84.993,80.212 84.614,80.212 84.349,80.205 84.083,80.175 83.819,80.129 83.569,80.069 
				83.317,79.994 83.067,79.902 82.833,79.789 82.599,79.66 82.37,79.523 82.151,79.363 81.938,79.189 81.741,79.007 81.544,78.802 
				81.354,78.59 81.181,78.363 81.013,78.121 80.862,77.862 80.71,77.597 80.581,77.316 80.452,77.029 80.347,76.726 80.247,76.407 
				80.155,76.08 80.089,75.747 80.028,75.398 79.981,75.042 79.952,74.677 79.937,74.298 79.937,73.912 79.952,73.517 
				79.989,73.116 80.034,72.707 81.681,62.433 87.132,62.433 85.69,71.523 85.63,71.963 85.608,72.365 85.616,72.744 85.663,73.093 
				85.729,73.404 85.821,73.692 85.942,73.95 86.085,74.177 86.245,74.382 86.427,74.548 86.616,74.693 86.829,74.814 
				87.048,74.905 87.276,74.966 87.511,75.003 87.747,75.019 88.042,75.011 88.353,74.973 88.671,74.92 88.989,74.837 89.315,74.73 
				89.634,74.601 89.952,74.435 90.257,74.246 90.552,74.017 90.825,73.76 91.083,73.464 91.31,73.138 91.515,72.767 91.683,72.357 
				91.817,71.91 91.917,71.425 93.304,62.485 98.755,62.485 			"/>
		</g>
		<g>
			<g>
				<g>
					<path class="st35" d="M96.172,80.32h-5.67l0.372-2.38l-0.51,0.565l-0.661,0.601l-0.45,0.311l-0.337,0.18l-0.368,0.169
						l-0.617,0.209l-0.731,0.162l-0.553,0.078l-0.604,0.061l-1.046,0.045l-0.651-0.008l-0.274-0.03l-0.271-0.047l-0.257-0.062
						l-0.257-0.077l-0.257-0.094l-0.244-0.118l-0.472-0.27l-0.227-0.166l-0.218-0.177l-0.202-0.186l-0.394-0.424l-0.179-0.234
						l-0.171-0.247l-0.308-0.531l-0.263-0.578l-0.21-0.634l-0.093-0.331l-0.129-0.692l-0.048-0.361l-0.03-0.37l-0.016-0.383v-0.391
						l0.016-0.399l0.083-0.818l1.661-10.369h5.669l-1.521,9.652l-0.021,0.393l0.008,0.371l0.046,0.338l0.065,0.302l0.089,0.278
						l0.116,0.245l0.136,0.216l0.154,0.196l0.169,0.152l0.183,0.139l0.2,0.113l0.207,0.085l0.216,0.057l0.223,0.035l0.227,0.014
						l0.285-0.008l0.614-0.089l0.309-0.081l0.32-0.105l0.312-0.126l0.309-0.162l0.298-0.186l0.286-0.222l0.266-0.25l0.25-0.289
						l0.22-0.317l0.199-0.361l0.162-0.399l0.132-0.438l0.097-0.475l1.4-9.026h5.668L96.172,80.32z M81.772,62.541l-1.632,10.183
						l-0.081,0.803l-0.016,0.389v0.382l0.016,0.375l0.029,0.36l0.046,0.351l0.126,0.675l0.188,0.635l0.104,0.3l0.254,0.559
						l0.298,0.514l0.334,0.458l0.379,0.408l0.193,0.177l0.208,0.169l0.214,0.157l0.451,0.258l0.229,0.111l0.24,0.087l0.245,0.073
						l0.245,0.059l0.257,0.044l0.259,0.028l0.633,0.007l1.034-0.045l1.134-0.136l0.712-0.157l0.596-0.202l0.52-0.245l0.3-0.184
						l0.55-0.425l0.62-0.62l0.74-0.836l-0.444,2.849h5.232l2.644-17.513h-5.234l-1.372,8.85l-0.101,0.489l-0.138,0.457l-0.171,0.419
						l-0.211,0.382l-0.232,0.336l-0.265,0.305l-0.281,0.264l-0.303,0.235l-0.313,0.196l-0.325,0.17l-0.328,0.133l-0.333,0.11
						l-0.324,0.085l-0.644,0.094l-0.305,0.008l-0.246-0.016l-0.244-0.039l-0.24-0.063l-0.231-0.096l-0.225-0.127l-0.202-0.152
						l-0.188-0.172L86,74.243l-0.148-0.236l-0.128-0.269l-0.097-0.301l-0.069-0.321l-0.048-0.358l-0.009-0.391l0.021-0.41
						l0.062-0.449l1.422-8.968H81.772z"/>
				</g>
			</g>
		</g>
		<g>
			<polygon class="st35" points="66.675,80.167 72.218,80.167 72.218,80.167 74.325,69.423 74.454,69.127 74.591,68.855 
				74.751,68.604 74.917,68.384 75.099,68.171 75.288,67.99 75.485,67.824 75.683,67.679 75.896,67.542 76.101,67.429 76.312,67.33 
				76.524,67.24 76.729,67.164 76.927,67.103 77.124,67.05 77.313,67.003 77.397,66.99 77.503,66.99 77.608,66.99 77.737,67.003 
				77.866,67.019 77.995,67.042 78.132,67.065 78.261,67.095 78.39,67.125 78.511,67.156 78.616,67.178 78.716,67.208 
				78.792,67.232 78.853,67.247 78.89,67.254 78.905,67.262 80.399,62.121 80.134,62.114 79.884,62.106 79.626,62.106 
				79.384,62.114 79.14,62.121 78.905,62.144 78.677,62.167 78.45,62.197 78.229,62.235 78.019,62.273 77.813,62.326 77.608,62.379 
				77.403,62.44 77.214,62.5 77.017,62.576 76.835,62.652 76.653,62.736 76.479,62.819 76.304,62.917 76.138,63.015 75.972,63.123 
				75.812,63.228 75.659,63.349 75.509,63.471 75.356,63.599 75.212,63.728 75.075,63.865 74.94,64.017 74.812,64.161 74.681,64.32 
				74.554,64.48 74.433,64.646 74.636,62.281 69.806,62.281 66.675,80.167 			"/>
		</g>
		<g>
			<g>
				<g>
					<path class="st35" d="M72.307,80.275h-5.76l0.022-0.126l3.146-17.976h5.037l-0.182,2.111l0.424-0.491l0.29-0.274l0.46-0.375
						l0.504-0.319l0.358-0.186l0.367-0.162l0.396-0.139l0.622-0.168l0.671-0.108l0.466-0.047l0.755-0.015l0.658,0.018l-1.569,5.399
						l-0.143-0.064l-0.983-0.227l-0.25-0.028l-0.266,0.013l-0.57,0.157l-0.407,0.163l-0.207,0.098l-0.199,0.11L75.74,67.77
						l-0.191,0.141l-0.191,0.161l-0.185,0.177l-0.174,0.205l-0.162,0.215l-0.155,0.244l-0.132,0.263l-0.126,0.291L72.307,80.275z
						 M66.803,80.06h5.326l2.091-10.657l0.136-0.318l0.14-0.278l0.165-0.26l0.171-0.227l0.186-0.218l0.197-0.189l0.202-0.17
						l0.203-0.149l0.219-0.14l0.211-0.117l0.434-0.194L76.896,67l0.484-0.117l0.229-0.001l0.541,0.077l0.682,0.172l1.426-4.906
						l-0.631-0.011l-0.483,0.015l-0.679,0.075l-0.426,0.076l-0.791,0.224l-0.37,0.148l-0.352,0.165l-0.654,0.402l-0.588,0.49
						l-0.392,0.424l-0.372,0.477l-0.227,0.311l0.226-2.632h-4.623L66.803,80.06z"/>
				</g>
			</g>
		</g>
		<g>
			<path class="st35" d="M57.622,62.281h4.936H57.622z"/>
		</g>
		<g>
			<g>
				<g>
					<rect x="57.622" y="62.173" class="st35" width="4.936" height="0.215"/>
				</g>
			</g>
		</g>
		<g>
			<path class="st35" d="M69.806,62.281h4.883H69.806z"/>
		</g>
		<g>
			<g>
				<g>
					<rect x="69.806" y="62.173" class="st35" width="4.883" height="0.215"/>
				</g>
			</g>
		</g>
	</g>
</g>
</svg>
