<?xml version="1.0" encoding="utf-8"?>
<!-- Generator: Adobe Illustrator 16.0.0, SVG Export Plug-In . SVG Version: 6.00 Build 0)  -->
<!DOCTYPE svg PUBLIC "-//W3C//DTD SVG 1.1//EN" "http://www.w3.org/Graphics/SVG/1.1/DTD/svg11.dtd">
<svg version="1.1" id="Layer_1" xmlns="http://www.w3.org/2000/svg" xmlns:xlink="http://www.w3.org/1999/xlink" x="0px" y="0px"
	 width="136.833px" height="136.834px" viewBox="0 0 136.833 136.834" style="enable-background:new 0 0 136.833 136.834;"
	 xml:space="preserve">
<style type="text/css">
<![CDATA[
	.st0{fill:#E0E0E0;}
	.st1{fill:#B41F36;}
	.st2{fill:#1A5B80;}
	.st3{fill:#862165;}
	.st4{fill:#1B7EC1;}
	.st5{fill:#EA2227;}
	.st6{fill:#EE3725;}
	.st7{fill:#EE3B3F;}
	.st8{fill-rule:evenodd;clip-rule:evenodd;fill:#E0EFFA;}
	.st9{fill-rule:evenodd;clip-rule:evenodd;fill:#E2E4D5;}
	.st10{fill:#BA6D71;}
	.st11{fill-rule:evenodd;clip-rule:evenodd;fill:#E92F30;}
	.st12{fill:#203D74;}
	.st13{fill:#F16622;}
	.st14{fill:#F16823;}
	.st15{fill:#231F20;}
	.st16{fill:#F26E21;}
	.st17{fill:#F3F2F2;}
	.st18{fill:#F4C82E;}
	.st19{fill-rule:evenodd;clip-rule:evenodd;fill:#1A5B80;}
	.st20{fill-rule:evenodd;clip-rule:evenodd;fill:#1A80AD;}
	.st21{fill:#F5E11C;}
	.st22{fill:#27ADE4;}
	.st23{fill-rule:evenodd;clip-rule:evenodd;fill:#EA2230;}
	.st24{fill-rule:evenodd;clip-rule:evenodd;fill:#EAF3F8;}
	.st25{fill:#F7981D;}
	.st26{fill:#F7AB1B;}
	.st27{fill:#293688;}
	.st28{fill-rule:evenodd;clip-rule:evenodd;fill:#ED1C2E;}
	.st29{fill-rule:evenodd;clip-rule:evenodd;fill:#505F7C;}
	.st30{fill:#931B1D;}
	.st31{fill:#2D78BC;}
	.st32{fill-rule:evenodd;clip-rule:evenodd;fill:#BC202A;}
	.st33{fill-rule:evenodd;clip-rule:evenodd;}
	.st34{fill:#FFDF1B;}
	.st35{fill:#FFFFFF;}
	.st36{fill-rule:evenodd;clip-rule:evenodd;fill:#231F20;}
	.st37{fill:#65B1E2;}
	.st38{fill-rule:evenodd;clip-rule:evenodd;fill:#F4C82E;}
	.st39{fill:#9A847A;}
	.st40{fill:#CA3092;}
	.st41{fill:#CB2026;}
	.st42{fill:#686969;}
	.st43{fill-rule:evenodd;clip-rule:evenodd;fill:#F7981D;}
	.st44{fill:#CC1B69;}
	.st45{fill:#305499;}
	.st46{fill:#329947;}
	.st47{fill:#6BB745;}
	.st48{fill:#003473;}
	.st49{fill:#00529E;}
	.st50{fill:#005595;}
	.st51{fill:#005B84;}
	.st52{fill:#005E88;}
	.st53{fill:#0063A6;}
	.st54{fill:#008061;}
	.st55{fill:#0095C3;}
	.st56{fill:#009DA5;}
	.st57{fill:#00A051;}
	.st58{fill:#D0D1D1;}
	.st59{fill-rule:evenodd;clip-rule:evenodd;fill:#FFFFFF;}
	.st60{fill:#D19EA0;}
	.st61{fill:#0356A2;}
	.st62{fill:#D29EA1;}
	.st63{fill:#0468B2;}
	.st64{fill:#D32259;}
	.st65{fill:#055D77;}
	.st66{fill-rule:evenodd;clip-rule:evenodd;fill:#65B1E2;}
	.st67{fill:#0683C2;}
	.st68{fill:#0872B9;}
	.st69{fill:#3C80AD;}
	.st70{fill-rule:evenodd;clip-rule:evenodd;fill:#32357F;}
	.st71{fill:#A23C42;}
	.st72{fill:#0B161F;}
	.st73{fill:#0C4875;}
	.st74{fill:#0F549D;}
	.st75{fill-rule:evenodd;clip-rule:evenodd;fill:#005595;}
	.st76{fill-rule:evenodd;clip-rule:evenodd;fill:#009DDD;}
	.st77{fill:#DEBBBC;}
	.st78{fill:#43567E;}
	.st79{fill-rule:evenodd;clip-rule:evenodd;fill:#D2D2D2;}
]]>
</style>
<g>
	<g>
		<g>
			<circle class="st18" cx="68.417" cy="68.417" r="63.333"/>
		</g>
	</g>
	<g>
		<g>
			<path class="st29" d="M16.511,82.761h11.644v-9.236c2.487-0.004,4.974,0.023,7.46-0.018c0.371-0.014,0.744-0.01,1.113-0.061
				c1.508-0.098,3.01-0.363,4.303-0.795c1.291-0.432,2.375-1.01,3.288-1.689c0.915-0.68,1.657-1.457,2.261-2.377
				c0.604-0.922,1.066-1.984,1.365-3.189c0.301-1.205,0.438-2.555,0.4-3.861s-0.25-2.572-0.604-3.672
				c-0.355-1.1-0.854-2.037-1.508-2.863c-0.652-0.826-1.459-1.541-2.422-2.133c-0.961-0.588-2.076-1.053-3.441-1.369
				s-2.98-0.457-4.588-0.457H16.511V82.761z M28.155,58.308c1.843,0.037,3.673-0.135,5.525,0.16
				c0.396,0.068,0.786,0.184,1.131,0.334c0.345,0.148,0.645,0.334,0.906,0.549c1.259,1.125,1.491,2.357,1.265,3.748
				c-0.129,0.609-0.375,1.184-0.905,1.732c-0.235,0.242-0.517,0.457-0.847,0.648c-1.148,0.68-2.744,0.811-4.234,0.803h-2.841V58.308
				z"/>
		</g>
		<g>
			<path class="st29" d="M38.671,82.868h11.645v-9.234c2.486-0.008,4.971,0.02,7.461-0.02c0.37-0.016,0.743-0.01,1.111-0.061
				c1.507-0.098,3.009-0.365,4.303-0.795c1.293-0.43,2.375-1.012,3.288-1.689c0.913-0.68,1.657-1.459,2.26-2.379
				s1.065-1.984,1.367-3.189c0.299-1.205,0.437-2.553,0.398-3.859c-0.037-1.307-0.25-2.572-0.604-3.672
				c-0.355-1.102-0.852-2.037-1.504-2.863c-0.654-0.826-1.463-1.543-2.422-2.133c-0.963-0.59-2.077-1.055-3.443-1.371
				c-1.365-0.314-2.981-0.455-4.588-0.455H38.671V82.868z M50.316,58.415c1.84,0.037,3.671-0.133,5.523,0.16
				c0.398,0.066,0.787,0.184,1.131,0.332c0.345,0.152,0.645,0.334,0.906,0.551c1.26,1.123,1.49,2.357,1.265,3.75
				c-0.13,0.607-0.373,1.182-0.905,1.732c-0.234,0.238-0.516,0.455-0.844,0.646c-1.15,0.68-2.744,0.813-4.236,0.803h-2.84V58.415z"
				/>
		</g>
		<g>
			<path class="st38" d="M38.736,73.196c0.503-0.098,1.027-0.172,1.545-0.334c1.145-0.283,2.236-0.771,3.195-1.35
				s1.779-1.268,2.462-2.08c0.681-0.813,1.225-1.748,1.622-2.816c0.396-1.066,0.648-2.262,0.742-3.512
				c0.095-1.248,0.032-2.549-0.178-3.721c-0.212-1.172-0.57-2.217-1.063-3.131c-0.494-0.916-1.119-1.701-1.889-2.389
				c-0.771-0.686-1.684-1.27-2.752-1.723c-1.113-0.473-2.396-0.781-3.686-0.936V73.196z"/>
		</g>
		<g>
			<path class="st29" d="M72.478,53.011h7.098c1.549,0,2.705,0.367,3.475,1.102c0.385,0.367,0.674,0.814,0.866,1.336
				c0.192,0.523,0.29,1.125,0.29,1.803c0,1.395-0.421,2.486-1.259,3.273c-0.421,0.393-0.95,0.686-1.59,0.883
				c-1.185,0.406-2.979,0.268-4.591,0.293v5.129h-4.289V53.011z M76.767,58.901h1.047c0.823,0,1.402-0.143,1.734-0.43
				c0.382-0.332,0.496-0.701,0.5-1.098c0-0.434-0.145-0.801-0.434-1.104c-0.146-0.15-0.352-0.264-0.625-0.338
				c-0.526-0.164-1.439-0.1-2.223-0.113V58.901z"/>
		</g>
		<g>
			<path class="st29" d="M84.298,59.675c0.137-0.641,0.337-1.146,0.598-1.514c0.131-0.184,0.291-0.355,0.477-0.514
				c0.188-0.16,0.405-0.309,0.65-0.443c0.718-0.416,2.239-0.621,3.449-0.613c1.151,0,2.074,0.066,2.771,0.195
				c0.35,0.064,0.67,0.164,0.959,0.299c0.291,0.133,0.553,0.301,0.786,0.506c0.616,0.504,1.052,1.691,1.055,2.688V64.7
				c0.005,0.809,0.071,1.146,0.233,1.563c0.065,0.17,0.146,0.359,0.248,0.566h-3.602c-0.275-0.492-0.296-0.613-0.35-0.85
				c-0.021-0.105-0.043-0.23-0.064-0.375c-0.501,0.48-1.002,0.828-1.5,1.037c-0.746,0.301-1.536,0.412-2.365,0.416
				c-1.194,0-2.101-0.279-2.719-0.83c-0.311-0.277-0.543-0.586-0.698-0.928c-0.153-0.34-0.231-0.713-0.231-1.119
				c0-0.381,0.055-0.727,0.168-1.039c0.109-0.313,0.279-0.592,0.502-0.838c0.223-0.244,0.539-0.457,0.952-0.641
				c0.41-0.182,0.917-0.334,1.517-0.451c1.439-0.289,2.373-0.492,2.801-0.609c0.443-0.121,0.895-0.273,1.357-0.457
				c0-0.471-0.098-0.801-0.292-0.99c-0.272-0.242-0.624-0.275-1.028-0.281c-0.314,0-0.588,0.025-0.824,0.074
				c-0.389,0.1-0.644,0.166-0.922,0.566c-0.099,0.146-0.187,0.33-0.261,0.547L84.298,59.675z M91.292,62.079
				c-0.543,0.193-1.093,0.359-1.65,0.5c-0.389,0.104-0.708,0.207-0.953,0.309c-0.248,0.102-0.422,0.201-0.526,0.303
				c-0.231,0.225-0.319,0.461-0.319,0.707c0,0.303,0.104,0.549,0.314,0.74c0.267,0.232,0.58,0.285,0.928,0.289
				c0.428,0,0.826-0.105,1.193-0.313c0.623-0.344,0.873-0.82,0.955-1.273C91.312,62.987,91.288,62.517,91.292,62.079z"/>
		</g>
		<g>
			<path class="st29" d="M95.097,56.817h4.049l2.064,6.666l1.917-6.666h3.782l-3.974,10.699c-0.226,0.609-0.454,1.121-0.685,1.531
				c-0.23,0.412-0.464,0.725-0.7,0.939c-0.333,0.301-0.753,0.527-1.26,0.678c-0.507,0.152-1.103,0.227-1.783,0.227
				c-0.276,0-0.628-0.018-1.057-0.057c-0.427-0.037-0.93-0.094-1.507-0.17l-0.301-2.676c0.592,0.188,1.207,0.264,1.847,0.266
				c0.45,0,0.817-0.105,1.097-0.313c0.139-0.104,0.269-0.248,0.387-0.436c0.118-0.186,0.227-0.41,0.324-0.68L95.097,56.817z"/>
		</g>
		<g>
			<path class="st29" d="M72.478,69.138h7.098c1.549,0,2.705,0.369,3.475,1.104c0.385,0.367,0.674,0.813,0.866,1.338
				c0.192,0.521,0.29,1.123,0.29,1.801c0,1.396-0.421,2.486-1.259,3.271c-0.421,0.393-0.95,0.688-1.59,0.883
				c-1.185,0.408-2.979,0.27-4.591,0.295v5.129h-4.289V69.138z M76.767,75.03h1.047c0.823,0,1.402-0.143,1.734-0.43
				c0.382-0.332,0.496-0.701,0.5-1.098c0-0.434-0.145-0.801-0.434-1.104c-0.146-0.15-0.352-0.264-0.625-0.338
				c-0.526-0.166-1.439-0.1-2.223-0.115V75.03z"/>
		</g>
		<g>
			<path class="st29" d="M85.738,74.206c0.516-0.496,1.119-0.865,1.817-1.113c0.695-0.248,1.481-0.371,2.358-0.371
				c1.002,0,1.883,0.143,2.639,0.434c0.758,0.293,1.393,0.727,1.904,1.309c0.412,0.469,0.721,0.992,0.928,1.568
				c0.205,0.576,0.309,1.207,0.309,1.893c0,1.539-0.512,2.801-1.532,3.783c-0.511,0.492-1.12,0.861-1.825,1.109
				c-0.706,0.244-1.51,0.367-2.412,0.367c-0.805,0-1.533-0.104-2.183-0.307c-0.651-0.203-1.224-0.512-1.72-0.918
				c-0.611-0.508-1.067-1.092-1.372-1.756c-0.306-0.662-0.456-1.404-0.456-2.225C84.193,76.454,84.707,75.194,85.738,74.206z
				 M88.58,79.952c0.416,0.486,0.873,0.637,1.363,0.639c0.551,0,1.006-0.211,1.361-0.631c0.178-0.209,0.312-0.484,0.399-0.822
				c0.089-0.338,0.132-0.738,0.132-1.205c0-0.865-0.178-1.512-0.537-1.938c-0.408-0.479-0.854-0.633-1.328-0.635
				c-0.56,0-1.021,0.215-1.386,0.646c-0.183,0.215-0.319,0.484-0.411,0.813c-0.09,0.328-0.137,0.713-0.137,1.15
				C88.037,78.864,88.218,79.522,88.58,79.952z"/>
		</g>
		<g>
			<path class="st29" d="M103.138,72.946h3.574v1.631c0.534-0.666,1.076-1.143,1.621-1.428c0.62-0.32,1.287-0.428,1.999-0.428
				c1.062,0,1.894,0.314,2.494,0.945c0.299,0.316,0.524,0.719,0.675,1.207c0.15,0.486,0.225,1.063,0.225,1.721v6.363h-3.855v-5.504
				c0-0.631-0.116-1.074-0.35-1.336c-0.285-0.311-0.615-0.385-0.98-0.391c-0.464,0-0.841,0.176-1.131,0.527
				c-0.145,0.176-0.252,0.422-0.324,0.738s-0.109,0.701-0.109,1.156v4.809h-3.838V72.946z"/>
		</g>
		<g>
			<path class="st29" d="M120.231,69.138v3.809h2.112v2.811h-2.112v3.547c0,0.213,0.011,0.391,0.03,0.529
				c0.021,0.143,0.053,0.248,0.093,0.316c0.361,0.469,0.724,0.32,1.168,0.26c0.199-0.043,0.425-0.102,0.679-0.184l0.283,2.648
				c-0.904,0.197-1.791,0.311-2.658,0.311c-0.955,0-1.66-0.123-2.111-0.367c-0.453-0.246-0.787-0.617-1.004-1.115
				c-0.108-0.25-0.189-0.578-0.243-0.98c-0.056-0.406-0.081-0.885-0.081-1.443v-3.521h-1.415v-2.811h1.415v-1.838L120.231,69.138z"
				/>
		</g>
		<g>
			<rect x="97.266" y="72.946" class="st29" width="3.838" height="10.012"/>
		</g>
	</g>
</g>
</svg>
