<?xml version="1.0" encoding="utf-8"?>
<!-- Generator: Adobe Illustrator 16.0.0, SVG Export Plug-In . SVG Version: 6.00 Build 0)  -->
<!DOCTYPE svg PUBLIC "-//W3C//DTD SVG 1.1//EN" "http://www.w3.org/Graphics/SVG/1.1/DTD/svg11.dtd">
<svg version="1.1" id="Layer_1" xmlns="http://www.w3.org/2000/svg" xmlns:xlink="http://www.w3.org/1999/xlink" x="0px" y="0px"
	 width="136.833px" height="136.833px" viewBox="0 0 136.833 136.833" style="enable-background:new 0 0 136.833 136.833;"
	 xml:space="preserve">
<style type="text/css">
<![CDATA[
	.st0{fill:#E0E0E0;}
	.st1{fill:#B41F36;}
	.st2{fill:#1A5B80;}
	.st3{fill:#862165;}
	.st4{fill:#1B7EC1;}
	.st5{fill:#EA2227;}
	.st6{fill:#EE3725;}
	.st7{fill:#EE3B3F;}
	.st8{fill-rule:evenodd;clip-rule:evenodd;fill:#E0EFFA;}
	.st9{fill-rule:evenodd;clip-rule:evenodd;fill:#E2E4D5;}
	.st10{fill:#BA6D71;}
	.st11{fill-rule:evenodd;clip-rule:evenodd;fill:#E92F30;}
	.st12{fill:#203D74;}
	.st13{fill:#F16622;}
	.st14{fill:#F16823;}
	.st15{fill:#231F20;}
	.st16{fill:#F26E21;}
	.st17{fill:#F3F2F2;}
	.st18{fill:#F4C82E;}
	.st19{fill-rule:evenodd;clip-rule:evenodd;fill:#1A5B80;}
	.st20{fill-rule:evenodd;clip-rule:evenodd;fill:#1A80AD;}
	.st21{fill:#F5E11C;}
	.st22{fill:#27ADE4;}
	.st23{fill-rule:evenodd;clip-rule:evenodd;fill:#EA2230;}
	.st24{fill-rule:evenodd;clip-rule:evenodd;fill:#EAF3F8;}
	.st25{fill:#F7981D;}
	.st26{fill:#F7AB1B;}
	.st27{fill:#293688;}
	.st28{fill-rule:evenodd;clip-rule:evenodd;fill:#ED1C2E;}
	.st29{fill-rule:evenodd;clip-rule:evenodd;fill:#505F7C;}
	.st30{fill:#931B1D;}
	.st31{fill:#2D78BC;}
	.st32{fill-rule:evenodd;clip-rule:evenodd;fill:#BC202A;}
	.st33{fill-rule:evenodd;clip-rule:evenodd;}
	.st34{fill:#FFDF1B;}
	.st35{fill:#FFFFFF;}
	.st36{fill-rule:evenodd;clip-rule:evenodd;fill:#231F20;}
	.st37{fill:#65B1E2;}
	.st38{fill-rule:evenodd;clip-rule:evenodd;fill:#F4C82E;}
	.st39{fill:#9A847A;}
	.st40{fill:#CA3092;}
	.st41{fill:#CB2026;}
	.st42{fill:#686969;}
	.st43{fill-rule:evenodd;clip-rule:evenodd;fill:#F7981D;}
	.st44{fill:#CC1B69;}
	.st45{fill:#305499;}
	.st46{fill:#329947;}
	.st47{fill:#6BB745;}
	.st48{fill:#003473;}
	.st49{fill:#00529E;}
	.st50{fill:#005595;}
	.st51{fill:#005B84;}
	.st52{fill:#005E88;}
	.st53{fill:#0063A6;}
	.st54{fill:#008061;}
	.st55{fill:#0095C3;}
	.st56{fill:#009DA5;}
	.st57{fill:#00A051;}
	.st58{fill:#D0D1D1;}
	.st59{fill-rule:evenodd;clip-rule:evenodd;fill:#FFFFFF;}
	.st60{fill:#D19EA0;}
	.st61{fill:#0356A2;}
	.st62{fill:#D29EA1;}
	.st63{fill:#0468B2;}
	.st64{fill:#D32259;}
	.st65{fill:#055D77;}
	.st66{fill-rule:evenodd;clip-rule:evenodd;fill:#65B1E2;}
	.st67{fill:#0683C2;}
	.st68{fill:#0872B9;}
	.st69{fill:#3C80AD;}
	.st70{fill-rule:evenodd;clip-rule:evenodd;fill:#32357F;}
	.st71{fill:#A23C42;}
	.st72{fill:#0B161F;}
	.st73{fill:#0C4875;}
	.st74{fill:#0F549D;}
	.st75{fill-rule:evenodd;clip-rule:evenodd;fill:#005595;}
	.st76{fill-rule:evenodd;clip-rule:evenodd;fill:#009DDD;}
	.st77{fill:#DEBBBC;}
	.st78{fill:#43567E;}
	.st79{fill-rule:evenodd;clip-rule:evenodd;fill:#D2D2D2;}
]]>
</style>
<g>
	<g>
		<g>
			<circle class="st49" cx="68.416" cy="68.417" r="63.333"/>
		</g>
	</g>
	<g>
		<g>
			<path class="st35" d="M72.919,67.579c10.059,0.049,19.242-8.202,19.242-18.241c0-10.975-9.184-18.563-19.242-18.559h-8.658
				c-10.178-0.004-18.559,7.586-18.559,18.559c0,10.041,8.381,18.29,18.559,18.241H72.919z"/>
		</g>
		<g>
			<path class="st49" d="M68.124,59.112V39.181c4.006,1.536,6.85,5.416,6.857,9.965C74.974,53.695,72.13,57.572,68.124,59.112
				 M53.628,49.146c0.008-4.547,2.848-8.424,6.852-9.965v19.928C56.476,57.569,53.636,53.693,53.628,49.146 M64.302,32.3
				c-9.301,0.002-16.84,7.543-16.842,16.846c0.002,9.303,7.541,16.84,16.842,16.844c9.305-0.004,16.846-7.541,16.846-16.844
				S73.606,32.302,64.302,32.3"/>
		</g>
		<g>
			<path class="st35" d="M26.886,80.137c0,1.499,1.07,1.671,2.023,1.671c4.203,0,5.582-3.169,5.582-6.068
				c0-3.639-2.334-6.264-6.088-6.264c-0.801,0-1.166,0.058-1.518,0.078V80.137z M24.978,71.011c0-1.75-0.912-1.636-1.787-1.653
				v-0.505c0.758,0.036,1.535,0.036,2.295,0.036c0.816,0,1.926-0.036,3.367-0.036c5.037,0,7.779,3.363,7.779,6.809
				c0,1.928-1.127,6.771-8.014,6.771c-0.992,0-1.908-0.038-2.822-0.038c-0.873,0-1.73,0.019-2.605,0.038v-0.505
				c1.166-0.119,1.732-0.156,1.787-1.48V71.011z"/>
		</g>
		<g>
			<path class="st35" d="M39.396,70.545c-0.506,0-0.951-0.467-0.951-0.974c0-0.487,0.467-0.936,0.951-0.936
				c0.506,0,0.955,0.41,0.955,0.936C40.351,70.098,39.921,70.545,39.396,70.545 M37.313,81.927h0.371c0.543,0,0.932,0,0.932-0.645
				v-5.271c0-0.855-0.291-0.974-1.01-1.359v-0.313c0.914-0.273,2.004-0.641,2.08-0.699c0.137-0.079,0.252-0.1,0.352-0.1
				c0.096,0,0.135,0.117,0.135,0.273v7.469c0,0.645,0.43,0.645,0.975,0.645h0.33v0.505c-0.662,0-1.344-0.038-2.041-0.038
				c-0.701,0-1.402,0.019-2.123,0.038V81.927z"/>
		</g>
		<g>
			<path class="st35" d="M43.325,76.128c0-0.719-0.215-0.913-1.127-1.283v-0.369c0.836-0.273,1.633-0.525,2.566-0.936
				c0.061,0,0.115,0.04,0.115,0.194V75c1.111-0.798,2.064-1.46,3.369-1.46c1.654,0,2.238,1.207,2.238,2.725v5.018
				c0,0.645,0.428,0.645,0.971,0.645h0.352v0.505c-0.684,0-1.363-0.038-2.063-0.038c-0.701,0-1.402,0.019-2.102,0.038v-0.505h0.35
				c0.545,0,0.934,0,0.934-0.645v-5.037c0-1.109-0.68-1.653-1.789-1.653c-0.623,0-1.613,0.503-2.26,0.935v5.756
				c0,0.645,0.43,0.645,0.977,0.645h0.35v0.505c-0.68,0-1.363-0.038-2.064-0.038c-0.699,0-1.4,0.019-2.1,0.038v-0.505h0.352
				c0.545,0,0.932,0,0.932-0.645V76.128z"/>
		</g>
		<g>
			<path class="st35" d="M56.733,76.439c0.486,0,0.541-0.253,0.541-0.484c0-0.992-0.602-1.791-1.691-1.791
				c-1.188,0-2.004,0.874-2.236,2.275H56.733z M53.288,77.063c-0.039,0.175-0.039,0.466,0,1.128c0.115,1.85,1.305,3.366,2.859,3.366
				c1.072,0,1.908-0.586,2.627-1.303l0.271,0.272c-0.896,1.186-2.004,2.198-3.598,2.198c-3.094,0-3.719-2.997-3.719-4.241
				c0-3.814,2.568-4.943,3.93-4.943c1.578,0,3.273,0.992,3.289,3.055c0,0.117,0,0.234-0.016,0.352l-0.178,0.116H53.288z"/>
		</g>
		<g>
			<path class="st35" d="M59.397,81.927h0.525c0.541,0,0.934,0,0.934-0.645v-5.465c0-0.603-0.721-0.723-1.014-0.875v-0.291
				c1.422-0.605,2.199-1.111,2.377-1.111c0.115,0,0.172,0.06,0.172,0.254v1.75h0.041c0.486-0.758,1.305-2.004,2.49-2.004
				c0.486,0,1.109,0.331,1.109,1.031c0,0.523-0.371,0.996-0.914,0.996c-0.607,0-0.607-0.473-1.285-0.473
				c-0.332,0-1.422,0.449-1.422,1.617v4.57c0,0.645,0.389,0.645,0.934,0.645h1.09v0.505c-1.07-0.02-1.885-0.038-2.723-0.038
				c-0.797,0-1.615,0.019-2.314,0.038V81.927z"/>
		</g>
		<g>
			<path class="st35" d="M66.888,79.728c0.254,1.284,1.031,2.373,2.451,2.373c1.146,0,1.574-0.7,1.574-1.381
				c0-2.295-4.24-1.555-4.24-4.688c0-1.089,0.877-2.491,3.016-2.491c0.623,0,1.459,0.176,2.219,0.566l0.135,1.98h-0.445
				c-0.195-1.223-0.877-1.922-2.123-1.922c-0.777,0-1.518,0.445-1.518,1.283c0,2.277,4.514,1.574,4.514,4.629
				c0,1.283-1.031,2.647-3.346,2.647c-0.777,0-1.693-0.273-2.371-0.661l-0.217-2.237L66.888,79.728z"/>
		</g>
		<g>
			<path class="st35" d="M90.038,72.373h-0.484c-0.371-2.274-1.986-3.189-4.162-3.189c-2.24,0-5.49,1.497-5.49,6.166
				c0,3.932,2.803,6.752,5.799,6.752c1.926,0,3.523-1.32,3.912-3.365l0.447,0.115l-0.447,2.841
				c-0.818,0.509-3.016,1.033-4.303,1.033c-4.551,0-7.428-2.938-7.428-7.315c0-3.99,3.559-6.852,7.373-6.852
				c1.574,0,3.092,0.509,4.59,1.035L90.038,72.373z"/>
		</g>
		<g>
			<path class="st35" d="M90.741,81.927h0.367c0.547,0,0.936,0,0.936-0.645V70.449c0-1.266-0.289-1.305-1.031-1.519V68.62
				c0.777-0.254,1.596-0.603,2.004-0.839c0.213-0.113,0.369-0.215,0.428-0.215c0.117,0,0.156,0.117,0.156,0.275v13.441
				c0,0.645,0.428,0.645,0.973,0.645h0.328v0.505c-0.658,0-1.34-0.038-2.041-0.038c-0.699,0-1.398,0.019-2.119,0.038V81.927z"/>
		</g>
		<g>
			<path class="st35" d="M103.233,81.361c0,0.352,0.213,0.37,0.543,0.37c0.234,0,0.523-0.019,0.777-0.019v0.409
				c-0.838,0.079-2.432,0.487-2.803,0.604l-0.098-0.058v-1.576c-1.164,0.952-2.061,1.634-3.445,1.634
				c-1.049,0-2.139-0.682-2.139-2.315v-4.98c0-0.508-0.076-0.992-1.164-1.09v-0.371c0.701-0.018,2.254-0.135,2.508-0.135
				c0.217,0,0.217,0.135,0.217,0.564v5.018c0,0.586,0,2.26,1.691,2.26c0.66,0,1.535-0.508,2.352-1.188v-5.236
				c0-0.387-0.934-0.6-1.631-0.795v-0.35c1.748-0.119,2.84-0.273,3.033-0.273c0.158,0,0.158,0.135,0.158,0.352V81.361z"/>
		</g>
		<g>
			<path class="st35" d="M107.103,80.234c0,0.737,0.701,1.986,2.004,1.986c2.082,0,2.957-2.045,2.957-3.777
				c0-2.101-1.596-3.851-3.111-3.851c-0.723,0-1.322,0.468-1.85,0.915V80.234z M107.103,74.943c0.777-0.661,1.83-1.402,2.9-1.402
				c2.258,0,3.617,1.967,3.617,4.087c0,2.548-1.867,5.098-4.65,5.098c-1.438,0-2.197-0.468-2.705-0.682l-0.582,0.448l-0.406-0.215
				c0.17-1.147,0.271-2.275,0.271-3.464v-8.364c0-1.266-0.293-1.305-1.033-1.519V68.62c0.781-0.254,1.596-0.603,2.004-0.837
				c0.215-0.115,0.369-0.215,0.43-0.215c0.117,0,0.154,0.115,0.154,0.273V74.943z"/>
		</g>
		<g>
			<path class="st35" d="M23.169,93.746h0.146c0.381,0,0.783-0.053,0.783-0.604v-5.547c0-0.551-0.402-0.604-0.783-0.604h-0.146
				v-0.318c0.412,0,1.047,0.043,1.566,0.043c0.529,0,1.164-0.043,1.662-0.043v0.318h-0.148c-0.381,0-0.783,0.054-0.783,0.604v5.547
				c0,0.551,0.402,0.604,0.783,0.604h0.148v0.318c-0.508,0-1.145-0.043-1.672-0.043c-0.52,0-1.145,0.043-1.557,0.043V93.746z"/>
		</g>
		<g>
			<path class="st35" d="M26.351,94.018v-0.227h-0.102c-0.379,0-0.828-0.066-0.83-0.649v-5.547c0.002-0.584,0.451-0.648,0.83-0.648
				h0.102v-0.228c-0.488,0-1.102,0.043-1.615,0.043c-0.504,0-1.111-0.041-1.521-0.043v0.228h0.102c0.379,0,0.828,0.064,0.828,0.648
				v5.547c0,0.583-0.449,0.649-0.828,0.649h-0.102v0.227c0.41-0.005,1.008-0.044,1.512-0.044
				C25.239,93.974,25.851,94.015,26.351,94.018 M26.397,94.107c-0.514,0-1.146-0.042-1.672-0.042c-0.52,0-1.143,0.042-1.557,0.042
				h-0.047v-0.045v-0.316v-0.045h0.047h0.146c0.385-0.011,0.734-0.041,0.736-0.559v-5.547c-0.002-0.519-0.352-0.551-0.736-0.558
				h-0.193v-0.047v-0.363h0.047c0.414,0,1.049,0.042,1.566,0.042c0.527,0,1.16-0.042,1.662-0.042h0.047v0.047v0.363h-0.047h-0.148
				c-0.385,0.007-0.736,0.039-0.738,0.558v5.547c0.002,0.518,0.354,0.548,0.738,0.559h0.195v0.045v0.361H26.397z"/>
		</g>
		<g>
			<path class="st35" d="M33.669,91.977l0.021-0.021v-3.97c0-0.867-0.604-0.995-0.92-0.995h-0.234v-0.318
				c0.498,0,0.986,0.043,1.482,0.043c0.434,0,0.869-0.043,1.303-0.043v0.318h-0.158c-0.445,0-0.943,0.086-0.943,1.345v4.816
				c0,0.371,0.01,0.742,0.063,1.069H33.88l-5.451-6.077v4.363c0,0.92,0.18,1.238,0.994,1.238h0.18v0.318
				c-0.453,0-0.908-0.043-1.365-0.043c-0.475,0-0.963,0.043-1.439,0.043v-0.318h0.148c0.73,0,0.951-0.498,0.951-1.344v-4.459
				c0-0.591-0.486-0.952-0.961-0.952h-0.139v-0.318c0.402,0,0.816,0.043,1.217,0.043c0.318,0,0.625-0.043,0.943-0.043L33.669,91.977
				z"/>
		</g>
		<g>
			<path class="st35" d="M33.646,91.955v-0.002l-0.008-0.01L33.646,91.955z M33.669,91.977l0.035-0.032L33.669,91.977z
				 M33.88,94.174h0.35c-0.047-0.317-0.055-0.67-0.055-1.022v-4.816c0-1.27,0.531-1.389,0.988-1.389h0.111v-0.228
				c-0.418,0.002-0.836,0.041-1.256,0.041c-0.484,0-0.957-0.039-1.434-0.041l-0.004,0.228h0.188c0.326,0,0.967,0.143,0.967,1.041
				l-0.012,4l-0.021,0.021l-0.037,0.035l-4.707-5.325c-0.314,0-0.619,0.041-0.945,0.041c-0.387,0-0.783-0.039-1.168-0.041
				l-0.002,0.228h0.094c0.496,0,1.008,0.377,1.008,0.996v4.459c0,0.848-0.236,1.387-0.996,1.392l-0.104-0.005v0.229
				c0.459-0.005,0.93-0.044,1.393-0.044c0.441,0,0.883,0.039,1.318,0.044v-0.225h-0.133c-0.832-0.005-1.039-0.366-1.039-1.286
				v-4.481L33.88,94.174z M34.282,94.266l-0.436-0.015l-5.373-5.988v4.244c0.012,0.92,0.152,1.183,0.949,1.193h0.227v0.045v0.361
				h-0.047c-0.457,0-0.914-0.042-1.365-0.042c-0.473,0-0.959,0.042-1.439,0.042h-0.047v-0.045v-0.361h0.047h0.15
				c0.697-0.006,0.896-0.455,0.904-1.299v-4.459c-0.002-0.561-0.463-0.905-0.916-0.905h-0.186v-0.05v-0.36h0.047
				c0.404,0,0.818,0.042,1.215,0.042c0.316,0,0.621-0.042,0.98-0.027l4.652,5.24v-3.895c-0.006-0.842-0.568-0.943-0.877-0.95h-0.279
				v-0.05v-0.36h0.047c0.5,0,0.988,0.042,1.482,0.042c0.432,0,0.865-0.042,1.303-0.042h0.045v0.047v0.363h-0.045h-0.158
				c-0.438,0.013-0.887,0.05-0.898,1.298v4.816c0,0.37,0.01,0.74,0.063,1.063l0.012,0.052H34.282z"/>
		</g>
		<g>
			<path class="st35" d="M36.907,87.203c-0.795,0-0.826,0.19-0.984,0.963h-0.318c0.043-0.297,0.096-0.592,0.127-0.9
				c0.043-0.297,0.064-0.593,0.064-0.898h0.254c0.086,0.318,0.35,0.306,0.637,0.306h5.461c0.287,0,0.551-0.009,0.57-0.327
				l0.254,0.043c-0.041,0.284-0.084,0.57-0.115,0.857c-0.02,0.285-0.02,0.571-0.02,0.857l-0.318,0.117
				c-0.023-0.391-0.074-1.018-0.785-1.018h-1.734v5.632c0,0.815,0.369,0.911,0.877,0.911h0.201v0.318
				c-0.41,0-1.152-0.043-1.725-0.043c-0.635,0-1.377,0.043-1.789,0.043v-0.318h0.201c0.584,0,0.877-0.053,0.877-0.889v-5.654H36.907
				z"/>
		</g>
		<g>
			<path class="st35" d="M41.079,94.107c-0.416,0-1.156-0.042-1.727-0.042c-0.633,0-1.375,0.042-1.789,0.042h-0.045v-0.043v-0.363
				h0.045h0.201c0.584-0.016,0.818-0.021,0.83-0.844V87.25h-1.688v-0.047v-0.047h1.779v5.701c0,0.85-0.342,0.935-0.922,0.937h-0.156
				v0.223c0.416-0.003,1.131-0.042,1.744-0.042c0.553,0,1.26,0.039,1.68,0.042v-0.223h-0.156c-0.512-0.002-0.922-0.126-0.922-0.959
				v-5.679h1.781c0.711,0.002,0.803,0.605,0.826,1l0.229-0.084c0-0.274,0.002-0.553,0.02-0.832c0.033-0.273,0.072-0.543,0.111-0.814
				L42.759,86.4c-0.049,0.307-0.348,0.324-0.613,0.319h-5.459H36.63c-0.248,0-0.52-0.011-0.613-0.306h-0.176
				c-0.002,0.291-0.021,0.574-0.064,0.857c-0.029,0.291-0.078,0.57-0.115,0.85h0.225c0.141-0.736,0.229-0.975,1.021-0.965v0.047
				v0.047c-0.785,0.013-0.768,0.146-0.941,0.928l-0.006,0.035h-0.037h-0.371l0.006-0.054c0.043-0.296,0.098-0.593,0.129-0.9
				c0.043-0.294,0.063-0.588,0.063-0.892v-0.048h0.047h0.291l0.006,0.034c0.072,0.27,0.268,0.27,0.537,0.274h0.057h5.459
				c0.295-0.005,0.51-0.009,0.527-0.286l0.004-0.05l0.049,0.011l0.299,0.047l-0.008,0.047c-0.041,0.282-0.084,0.568-0.115,0.854
				c-0.02,0.281-0.02,0.566-0.02,0.854v0.031l-0.029,0.014l-0.377,0.137l-0.002-0.063c-0.027-0.396-0.07-0.972-0.738-0.972h-1.689
				v5.585c0.01,0.8,0.326,0.855,0.83,0.866h0.248v0.045v0.361H41.079z"/>
		</g>
		<g>
			<path class="st35" d="M43.31,93.746h0.15c0.381,0,0.781-0.053,0.781-0.604v-5.547c0-0.551-0.4-0.604-0.781-0.604h-0.15v-0.318
				c0.645,0,1.748,0.043,2.635,0.043c0.891,0,1.99-0.043,2.711-0.043c-0.018,0.456-0.008,1.157,0.023,1.621l-0.32,0.084
				c-0.049-0.687-0.176-1.237-1.289-1.237h-1.471v2.772h1.258c0.635,0,0.773-0.358,0.838-0.931h0.316
				c-0.021,0.414-0.033,0.826-0.033,1.238c0,0.402,0.012,0.805,0.033,1.207l-0.316,0.063c-0.064-0.634-0.096-1.047-0.828-1.047
				h-1.268v2.467c0,0.688,0.611,0.688,1.289,0.688c1.27,0,1.832-0.085,2.15-1.292l0.295,0.071c-0.137,0.565-0.264,1.123-0.357,1.687
				c-0.68,0-1.896-0.043-2.848-0.043c-0.955,0-2.215,0.043-2.818,0.043V93.746z"/>
		</g>
		<g>
			<path class="st35" d="M48.935,94.016c0.092-0.534,0.213-1.069,0.344-1.603l-0.209-0.053c-0.318,1.185-0.932,1.289-2.18,1.283
				c-0.668,0-1.336,0-1.34-0.734v-2.512h1.316c0.74-0.008,0.816,0.438,0.867,1.039l0.229-0.047c-0.02-0.391-0.029-0.779-0.029-1.17
				c0-0.396,0.01-0.795,0.029-1.193h-0.229c-0.059,0.553-0.232,0.939-0.877,0.933H45.55v-2.866h1.52
				c1.102-0.009,1.283,0.561,1.33,1.225l0.229-0.059c-0.018-0.301-0.029-0.684-0.029-1.037c0-0.182,0.004-0.354,0.008-0.503
				c-0.719,0.002-1.791,0.041-2.662,0.041c-0.869,0-1.939-0.039-2.588-0.041v0.228h0.104c0.377,0,0.826,0.064,0.828,0.648v5.547
				c-0.002,0.583-0.451,0.646-0.828,0.651h-0.104v0.223c0.617-0.001,1.84-0.042,2.77-0.042
				C47.062,93.974,48.251,94.015,48.935,94.016 M48.974,94.107c-0.68,0-1.896-0.042-2.848-0.042c-0.953,0-2.211,0.042-2.816,0.042
				h-0.045v-0.043v-0.318v-0.045h0.045h0.15c0.383-0.008,0.73-0.041,0.734-0.559v-5.547c-0.004-0.516-0.352-0.551-0.734-0.558
				h-0.195v-0.047v-0.363h0.045c0.646,0,1.748,0.042,2.635,0.042c0.891,0,1.988-0.042,2.711-0.042h0.047L48.7,86.674
				c-0.008,0.16-0.01,0.349-0.01,0.548c0,0.365,0.01,0.766,0.031,1.068v0.039l-0.033,0.011l-0.373,0.095l-0.002-0.053
				c-0.063-0.688-0.156-1.188-1.244-1.197h-1.428v2.681h1.215c0.609-0.006,0.719-0.318,0.791-0.89l0.004-0.041h0.041h0.363v0.047
				c-0.02,0.414-0.033,0.826-0.033,1.238c0,0.402,0.014,0.803,0.033,1.205v0.037l-0.037,0.01l-0.367,0.072l-0.004-0.049
				c-0.072-0.646-0.078-1.001-0.781-1.008h-1.225v2.422c0.002,0.642,0.557,0.64,1.248,0.642c1.273-0.007,1.783-0.069,2.104-1.258
				l0.012-0.043l0.043,0.009l0.34,0.086l-0.01,0.045c-0.139,0.561-0.264,1.12-0.359,1.682l-0.008,0.035H48.974z"/>
		</g>
		<g>
			<path class="st35" d="M52.118,90.25h0.516c1.063,0,1.631-0.401,1.631-1.651c0-0.94-0.602-1.543-1.545-1.543
				c-0.318,0-0.453,0.031-0.602,0.041V90.25z M50.761,87.794c0-0.771-0.422-0.802-0.75-0.802h-0.191v-0.32
				c0.34,0,0.994,0.043,1.641,0.043c0.635,0,1.143-0.043,1.703-0.043c1.334,0,2.521,0.359,2.521,1.865
				c0,0.952-0.635,1.534-1.471,1.863l1.809,2.708c0.299,0.447,0.508,0.573,1.027,0.637v0.318c-0.35,0-0.689-0.043-1.037-0.043
				c-0.328,0-0.668,0.043-0.994,0.043c-0.814-1.068-1.516-2.213-2.203-3.432h-0.697v2.266c0,0.816,0.381,0.848,0.865,0.848h0.191
				v0.318c-0.604,0-1.215-0.043-1.82-0.043c-0.508,0-1.006,0.043-1.535,0.043v-0.318h0.191c0.391,0,0.75-0.179,0.75-0.572V87.794z"
				/>
		</g>
		<g>
			<path class="st35" d="M52.634,90.206c1.049-0.009,1.576-0.372,1.588-1.604c-0.006-0.924-0.58-1.497-1.502-1.502
				c-0.287,0-0.42,0.027-0.557,0.039v3.067H52.634z M52.116,90.296h-0.045v-3.24l0.039-0.006c0.146-0.011,0.289-0.039,0.609-0.039
				c0.963,0,1.59,0.625,1.592,1.59c-0.004,1.265-0.609,1.695-1.678,1.695H52.116z M52.116,90.588h0.725l0.012,0.022
				c0.691,1.215,1.387,2.358,2.166,3.407c0.322,0,0.662-0.044,0.992-0.044c0.338,0,0.666,0.037,0.994,0.042v-0.231
				c-0.498-0.061-0.73-0.21-1.02-0.648l-1.844-2.758l0.055-0.021c0.828-0.325,1.441-0.893,1.443-1.823
				c-0.002-1.469-1.145-1.809-2.477-1.815c-0.557,0-1.064,0.043-1.703,0.043c-0.621,0-1.25-0.041-1.598-0.043v0.228h0.148
				c0.328,0,0.795,0.053,0.795,0.848v5.379c0,0.427-0.396,0.618-0.795,0.62h-0.148v0.223c0.512-0.001,0.994-0.042,1.492-0.042
				c0.592,0,1.188,0.041,1.775,0.042v-0.223h-0.146c-0.482-0.002-0.912-0.062-0.912-0.896v-2.31H52.116z M57.05,94.107
				c-0.355,0-0.691-0.042-1.039-0.042c-0.322,0-0.662,0.042-1.029,0.025c-0.813-1.065-1.508-2.201-2.193-3.41h-0.625v2.218
				c0.012,0.795,0.33,0.79,0.82,0.803h0.238v0.045v0.361h-0.047c-0.607,0-1.221-0.042-1.82-0.042c-0.506,0-1.004,0.042-1.535,0.042
				h-0.047v-0.045v-0.361h0.047h0.191c0.381-0.006,0.703-0.17,0.703-0.527v-5.379c-0.008-0.75-0.375-0.748-0.703-0.757h-0.238
				v-0.047v-0.363h0.047c0.342,0,0.996,0.042,1.641,0.042c0.633,0,1.141-0.042,1.703-0.042c1.336,0.003,2.564,0.37,2.568,1.907
				c0,0.957-0.631,1.553-1.447,1.887l1.775,2.664c0.297,0.438,0.482,0.549,0.998,0.615l0.037,0.004v0.041v0.361H57.05z"/>
		</g>
		<g>
			<path class="st35" d="M64.237,91.977l0.02-0.021v-3.97c0-0.867-0.604-0.995-0.918-0.995h-0.234v-0.318
				c0.498,0,0.984,0.043,1.482,0.043c0.434,0,0.865-0.043,1.305-0.043v0.318h-0.16c-0.445,0-0.943,0.086-0.943,1.345v4.816
				c0,0.371,0.01,0.742,0.064,1.069H64.45l-5.451-6.077v4.363c0,0.92,0.178,1.238,0.994,1.238h0.178v0.318
				c-0.453,0-0.91-0.043-1.363-0.043c-0.479,0-0.965,0.043-1.439,0.043v-0.318h0.145c0.732,0,0.955-0.498,0.955-1.344v-4.459
				c0-0.591-0.486-0.952-0.963-0.952h-0.137v-0.318c0.4,0,0.814,0.043,1.217,0.043c0.314,0,0.623-0.043,0.941-0.043L64.237,91.977z"
				/>
		</g>
		<g>
			<path class="st35" d="M64.212,91.956v-0.003l-0.008-0.008L64.212,91.956z M64.237,91.977l0.033-0.032L64.237,91.977z
				 M64.45,94.174h0.348c-0.047-0.315-0.057-0.67-0.057-1.022v-4.816c0-1.27,0.535-1.387,0.99-1.389h0.109v-0.228
				c-0.414,0.002-0.834,0.041-1.254,0.041c-0.484,0-0.959-0.039-1.438-0.041v0.228h0.189c0.324,0.002,0.965,0.143,0.965,1.039
				l-0.014,4.002l-0.021,0.021l-0.031,0.035l-4.713-5.325c-0.314,0-0.619,0.041-0.939,0.041c-0.393,0-0.789-0.039-1.176-0.041v0.228
				h0.096c0.496,0.002,1.008,0.375,1.008,0.996v4.456c0,0.851-0.24,1.39-1,1.395l-0.104-0.002v0.225
				c0.459-0.003,0.932-0.042,1.396-0.042c0.445,0,0.883,0.039,1.32,0.042v-0.223h-0.133c-0.834-0.002-1.043-0.366-1.045-1.288
				v-4.477L64.45,94.174z M64.853,94.266l-0.438-0.013l-5.373-5.99v4.242c0.014,0.922,0.152,1.185,0.951,1.195h0.223v0.045v0.361
				h-0.045c-0.457,0-0.912-0.042-1.365-0.042c-0.475,0-0.963,0.042-1.438,0.042h-0.049v-0.043v-0.363h0.049h0.145
				c0.701-0.006,0.902-0.455,0.908-1.302v-4.456c-0.002-0.563-0.463-0.905-0.916-0.905h-0.186v-0.047v-0.363h0.049
				c0.402,0,0.816,0.042,1.217,0.042c0.311,0,0.617-0.042,0.975-0.029l4.652,5.242v-3.896c-0.004-0.84-0.566-0.945-0.873-0.948
				h-0.281v-0.047v-0.363h0.047c0.498,0,0.986,0.042,1.482,0.042c0.432,0,0.863-0.042,1.301-0.042h0.047v0.047v0.363h-0.047h-0.156
				c-0.438,0.009-0.887,0.05-0.898,1.298v4.816c0,0.37,0.01,0.738,0.063,1.064l0.006,0.05H64.853z"/>
		</g>
		<g>
			<path class="st35" d="M69.136,87.859h-0.021l-0.982,2.997h1.979L69.136,87.859z M67.593,92.55
				c-0.107,0.359-0.234,0.637-0.234,0.824c0,0.318,0.445,0.371,0.793,0.371h0.119v0.318c-0.426-0.023-0.857-0.043-1.283-0.043
				c-0.381,0-0.76,0.02-1.143,0.043v-0.318h0.064c0.412,0,0.762-0.245,0.918-0.689l1.695-4.856c0.139-0.394,0.33-0.923,0.393-1.313
				c0.338-0.118,0.762-0.328,0.963-0.456c0.033-0.011,0.053-0.021,0.086-0.021c0.029,0,0.049,0,0.072,0.032
				c0.033,0.086,0.063,0.182,0.098,0.264l1.945,5.537c0.129,0.37,0.256,0.762,0.391,1.082c0.127,0.295,0.352,0.422,0.703,0.422
				h0.061v0.318c-0.475-0.023-0.953-0.043-1.459-0.043c-0.52,0-1.049,0.02-1.588,0.043v-0.318h0.115
				c0.242,0,0.658-0.043,0.658-0.307c0-0.139-0.096-0.425-0.215-0.763l-0.412-1.229h-2.404L67.593,92.55z"/>
		</g>
		<g>
			<path class="st35" d="M69.091,87.873l0.023-0.008L69.091,87.873z M68.194,90.809h1.854l-0.924-2.837L68.194,90.809z
				 M68.067,90.901l1.014-3.089h0.033h0.021v0.047l-0.01,0.004l0.01-0.004v-0.047h0.035l1.004,3.089H68.067z M70.229,94.013
				c0.525-0.019,1.039-0.039,1.545-0.039c0.49,0,0.953,0.021,1.412,0.039v-0.222h-0.016c-0.361,0.003-0.611-0.142-0.742-0.452
				c-0.139-0.32-0.266-0.713-0.391-1.082l-1.949-5.538c-0.033-0.084-0.063-0.178-0.092-0.255c-0.008-0.011-0.006-0.011-0.016-0.011
				h-0.018c-0.021,0-0.035,0.007-0.063,0.015c-0.203,0.133-0.629,0.341-0.943,0.424c-0.064,0.4-0.256,0.93-0.393,1.322l-1.693,4.857
				c-0.162,0.461-0.533,0.722-0.967,0.72h-0.014v0.222c0.361-0.019,0.729-0.039,1.096-0.039c0.41,0,0.828,0.021,1.23,0.039v-0.222
				h-0.066c-0.344-0.003-0.826-0.042-0.84-0.415c0.002-0.213,0.131-0.483,0.234-0.84l0.047,0.014l-0.047-0.015l0.35-1.134h2.469
				l0.426,1.26c0.115,0.34,0.215,0.621,0.215,0.777c-0.018,0.324-0.465,0.348-0.703,0.353h-0.072V94.013z M73.231,94.107
				c-0.477-0.02-0.953-0.042-1.457-0.042c-0.52,0-1.045,0.022-1.588,0.042l-0.049,0.004v-0.047v-0.367h0.049h0.115
				c0.246,0,0.607-0.056,0.607-0.258c0.004-0.119-0.09-0.412-0.209-0.748l-0.4-1.199h-2.336l-0.33,1.071
				c-0.105,0.36-0.234,0.642-0.232,0.813c0.004,0.258,0.4,0.32,0.75,0.32h0.162v0.049v0.365l-0.047-0.004
				c-0.424-0.02-0.855-0.042-1.279-0.042c-0.379,0-0.76,0.022-1.139,0.042L65.8,94.111v-0.047v-0.367h0.045h0.061
				c0.398-0.002,0.725-0.225,0.879-0.654l1.693-4.859c0.139-0.393,0.33-0.921,0.422-1.342c0.332-0.113,0.756-0.326,0.961-0.453
				c0.029-0.012,0.059-0.026,0.104-0.026c0.025-0.002,0.08,0.007,0.115,0.062c0.031,0.088,0.064,0.182,0.096,0.268l1.949,5.536
				c0.125,0.372,0.25,0.763,0.389,1.076c0.125,0.282,0.318,0.392,0.658,0.394h0.107v0.049v0.365L73.231,94.107z"/>
		</g>
		<g>
			<path class="st35" d="M73.7,87.203c-0.793,0-0.826,0.19-0.984,0.963h-0.32c0.041-0.297,0.096-0.592,0.129-0.9
				c0.043-0.297,0.064-0.593,0.064-0.898h0.254c0.084,0.318,0.35,0.306,0.633,0.306h5.465c0.283,0,0.549-0.009,0.57-0.327
				l0.254,0.043c-0.041,0.284-0.082,0.57-0.115,0.857c-0.023,0.285-0.023,0.571-0.023,0.857L79.31,88.22
				c-0.021-0.391-0.072-1.018-0.783-1.018H76.79v5.632c0,0.815,0.371,0.911,0.879,0.911h0.201v0.318
				c-0.412,0-1.154-0.043-1.727-0.043c-0.633,0-1.375,0.043-1.787,0.043v-0.318h0.199c0.584,0,0.881-0.053,0.881-0.889v-5.654H73.7z
				"/>
		</g>
		<g>
			<path class="st35" d="M77.87,94.107c-0.416,0-1.156-0.042-1.727-0.042c-0.631,0-1.373,0.042-1.787,0.042H74.31v-0.043v-0.363
				h0.047h0.199c0.584-0.016,0.818-0.021,0.832-0.844V87.25H73.7v-0.047v-0.047h1.781v5.701c0,0.85-0.344,0.932-0.926,0.935h-0.156
				v0.227c0.42-0.005,1.131-0.044,1.744-0.044c0.555,0,1.262,0.039,1.682,0.044l-0.002-0.227h-0.154
				c-0.51-0.003-0.924-0.124-0.924-0.957v-5.679h1.781c0.711,0.002,0.805,0.605,0.824,1l0.23-0.084c0-0.274,0-0.553,0.021-0.83
				c0.031-0.273,0.07-0.545,0.109-0.814l-0.16-0.027c-0.049,0.307-0.35,0.324-0.611,0.319h-5.465h-0.053
				c-0.25,0.002-0.52-0.011-0.615-0.309h-0.172c-0.004,0.294-0.025,0.577-0.066,0.86c-0.027,0.291-0.08,0.573-0.119,0.85h0.227
				c0.139-0.736,0.23-0.978,1.023-0.965v0.047v0.047c-0.785,0.013-0.768,0.146-0.941,0.928l-0.008,0.035h-0.035h-0.373l0.006-0.052
				c0.045-0.298,0.096-0.595,0.129-0.9c0.043-0.296,0.064-0.59,0.064-0.894v-0.048h0.047h0.287l0.01,0.034
				c0.072,0.27,0.266,0.27,0.537,0.274c0.02,0,0.035,0,0.053,0h5.465c0.291-0.005,0.506-0.009,0.525-0.284v-0.052l0.051,0.011
				l0.301,0.047l-0.008,0.047c-0.045,0.282-0.084,0.568-0.117,0.854c-0.02,0.281-0.02,0.567-0.02,0.854v0.031l-0.031,0.014
				l-0.375,0.137l-0.002-0.063c-0.027-0.396-0.068-0.972-0.738-0.972h-1.688v5.585c0.008,0.8,0.324,0.855,0.83,0.866h0.246v0.045
				v0.361H77.87z"/>
		</g>
		<g>
			<path class="st35" d="M80.155,93.746h0.146c0.383,0,0.783-0.053,0.783-0.604v-5.547c0-0.551-0.4-0.604-0.783-0.604h-0.146v-0.318
				c0.414,0,1.047,0.043,1.566,0.043c0.531,0,1.164-0.043,1.664-0.043v0.318h-0.148c-0.383,0-0.785,0.054-0.785,0.604v5.547
				c0,0.551,0.402,0.604,0.785,0.604h0.148v0.318c-0.51,0-1.145-0.043-1.674-0.043c-0.52,0-1.143,0.043-1.557,0.043V93.746z"/>
		</g>
		<g>
			<path class="st35" d="M83.339,94.016v-0.225h-0.102c-0.379,0-0.83-0.066-0.83-0.649v-5.547c0-0.584,0.451-0.648,0.83-0.648h0.102
				v-0.228c-0.49,0.002-1.102,0.041-1.617,0.041c-0.504,0-1.109-0.039-1.52-0.041v0.228h0.1c0.379,0,0.828,0.064,0.83,0.648v5.547
				c-0.002,0.583-0.451,0.649-0.83,0.649h-0.1v0.225c0.408-0.005,1.006-0.042,1.51-0.042C82.224,93.974,82.839,94.013,83.339,94.016
				 M83.384,94.107c-0.51,0-1.145-0.042-1.672-0.042c-0.518,0-1.143,0.042-1.557,0.042h-0.047v-0.043v-0.318v-0.045h0.047h0.146
				c0.383-0.008,0.734-0.041,0.736-0.559v-5.547c-0.002-0.516-0.354-0.551-0.736-0.558h-0.193v-0.047v-0.363h0.047
				c0.414,0,1.049,0.042,1.566,0.042c0.527,0,1.162-0.042,1.662-0.042h0.045v0.047v0.363h-0.045h-0.146
				c-0.389,0.007-0.736,0.042-0.74,0.558v5.547c0.004,0.518,0.352,0.551,0.74,0.559h0.191v0.045v0.361H83.384z"/>
		</g>
		<g>
			<path class="st35" d="M87.767,93.757c2.055,0,2.412-1.813,2.412-3.356c0-1.548-0.834-3.421-2.592-3.421
				c-1.854,0-2.404,1.654-2.404,3.07C85.183,91.945,86.052,93.757,87.767,93.757 M87.604,86.515c2.26,0,4.059,1.398,4.059,3.654
				c0,2.433-1.748,4.052-4.002,4.052c-2.246,0-3.961-1.522-3.961-3.8C83.7,88.22,85.405,86.515,87.604,86.515"/>
		</g>
		<g>
			<path class="st35" d="M85.136,90.05c0.004-1.426,0.561-3.115,2.451-3.115c1.797,0.002,2.635,1.908,2.639,3.466
				c-0.004,1.544-0.367,3.399-2.459,3.399v-0.043V93.71c2.012-0.003,2.363-1.766,2.365-3.31c0-1.534-0.826-3.37-2.545-3.374
				c-1.816,0.002-2.355,1.613-2.357,3.023c0,1.886,0.861,3.656,2.537,3.66v0.047V93.8C86.009,93.799,85.14,91.955,85.136,90.05
				 M83.653,90.421c0.006-2.227,1.727-3.949,3.951-3.953v0.047v0.045c-2.176,0-3.859,1.684-3.861,3.861
				c0.006,2.25,1.695,3.752,3.918,3.753c2.23-0.001,3.953-1.597,3.957-4.009c-0.002-2.227-1.773-3.602-4.014-3.605v-0.045v-0.047
				c2.275,0.002,4.1,1.415,4.102,3.697c-0.002,2.461-1.77,4.098-4.045,4.101C85.396,94.263,83.659,92.723,83.653,90.421"/>
		</g>
		<g>
			<path class="st35" d="M98.794,91.977l0.023-0.021v-3.97c0-0.867-0.605-0.995-0.924-0.995h-0.23v-0.318
				c0.496,0,0.984,0.043,1.48,0.043c0.438,0,0.871-0.043,1.305-0.043v0.318h-0.16c-0.443,0-0.941,0.086-0.941,1.345v4.816
				c0,0.371,0.01,0.742,0.064,1.069h-0.402l-5.453-6.077v4.363c0,0.92,0.178,1.238,0.996,1.238h0.18v0.318
				c-0.457,0-0.912-0.043-1.365-0.043c-0.477,0-0.965,0.043-1.443,0.043v-0.318h0.15c0.732,0,0.953-0.498,0.953-1.344v-4.459
				c0-0.591-0.486-0.952-0.965-0.952h-0.139v-0.318c0.404,0,0.816,0.043,1.219,0.043c0.318,0,0.625-0.043,0.941-0.043L98.794,91.977
				z"/>
		</g>
		<g>
			<path class="st35" d="M98.771,91.956v-0.003l-0.008-0.008L98.771,91.956z M98.794,91.977l0.035-0.032L98.794,91.977z
				 M99.009,94.174h0.346c-0.045-0.317-0.055-0.67-0.055-1.022v-4.816c0-1.273,0.535-1.387,0.988-1.389h0.113v-0.228
				c-0.418,0.002-0.834,0.041-1.258,0.041c-0.482,0-0.955-0.039-1.436-0.041v0.228h0.188c0.326,0.002,0.967,0.145,0.967,1.041
				l-0.012,4l-0.021,0.021l-0.035,0.035l-4.711-5.325c-0.313,0-0.621,0.041-0.941,0.041c-0.391,0-0.787-0.039-1.174-0.041v0.228
				h0.094c0.498,0.002,1.01,0.375,1.01,0.996v4.459c0,0.848-0.236,1.387-0.998,1.392l-0.105-0.002v0.225
				c0.461-0.003,0.932-0.042,1.398-0.042c0.439,0,0.879,0.039,1.318,0.042v-0.223h-0.137c-0.83-0.002-1.039-0.366-1.039-1.286
				v-4.481L99.009,94.174z M99.411,94.266l-0.439-0.015l-5.371-5.988v4.244c0.014,0.92,0.154,1.181,0.947,1.189h0.229v0.049v0.361
				h-0.045c-0.459,0-0.914-0.042-1.365-0.042c-0.477,0-0.961,0.042-1.443,0.042H91.88v-0.045v-0.365h0.043h0.15
				c0.697-0.002,0.898-0.451,0.906-1.295v-4.459c0-0.563-0.463-0.905-0.918-0.905H91.88v-0.047v-0.363h0.043
				c0.406,0,0.82,0.042,1.219,0.042c0.314,0,0.617-0.042,0.979-0.027l4.65,5.24v-3.895c-0.002-0.842-0.566-0.943-0.875-0.95h-0.279
				v-0.047v-0.363h0.047c0.498,0,0.986,0.042,1.48,0.042c0.432,0,0.865-0.042,1.303-0.042h0.047v0.047v0.363h-0.047h-0.158
				c-0.436,0.013-0.885,0.05-0.896,1.298v4.816c0,0.37,0.01,0.74,0.061,1.064l0.008,0.05H99.411z"/>
		</g>
		<g>
			<path class="st35" d="M103.696,87.859h-0.021l-0.984,2.997h1.98L103.696,87.859z M102.149,92.55
				c-0.104,0.359-0.232,0.637-0.232,0.824c0,0.318,0.445,0.371,0.793,0.371h0.117v0.318c-0.424-0.023-0.857-0.043-1.281-0.043
				c-0.381,0-0.762,0.02-1.141,0.043v-0.318h0.061c0.414,0,0.764-0.245,0.92-0.689l1.695-4.856c0.139-0.394,0.33-0.923,0.393-1.313
				c0.34-0.118,0.762-0.328,0.965-0.456c0.029-0.011,0.051-0.021,0.082-0.021c0.033,0,0.053,0,0.074,0.032
				c0.035,0.086,0.064,0.182,0.098,0.264l1.945,5.537c0.127,0.37,0.254,0.762,0.393,1.082c0.127,0.295,0.35,0.422,0.699,0.422h0.063
				v0.318c-0.475-0.023-0.951-0.043-1.459-0.043c-0.52,0-1.049,0.02-1.59,0.043v-0.318h0.117c0.242,0,0.658-0.043,0.658-0.307
				c0-0.139-0.098-0.425-0.215-0.763l-0.41-1.229h-2.404L102.149,92.55z"/>
		</g>
		<g>
			<path class="st35" d="M103.653,87.873l0.021-0.008L103.653,87.873z M102.755,90.809h1.85l-0.92-2.834L102.755,90.809z
				 M102.626,90.901l1.016-3.089h0.033h0.021v0.047l-0.012,0.004l0.012-0.004v-0.047h0.033l1.002,3.089H102.626z M104.79,94.015
				c0.523-0.021,1.039-0.041,1.543-0.041c0.492,0,0.953,0.021,1.414,0.039l-0.002-0.222h-0.018c-0.359,0.002-0.609-0.142-0.74-0.452
				c-0.139-0.32-0.266-0.713-0.391-1.082l-1.949-5.538c-0.033-0.084-0.064-0.178-0.09-0.253c-0.008-0.013-0.008-0.013-0.016-0.013
				h-0.021c-0.023,0-0.031,0.009-0.059,0.015c-0.207,0.129-0.631,0.343-0.943,0.424c-0.066,0.4-0.258,0.928-0.395,1.322
				l-1.695,4.857c-0.162,0.461-0.531,0.722-0.963,0.72h-0.016v0.222c0.363-0.019,0.729-0.039,1.096-0.039
				c0.41,0,0.828,0.021,1.236,0.039v-0.222h-0.072c-0.344-0.003-0.826-0.04-0.84-0.417c0.002-0.211,0.135-0.479,0.236-0.838
				l0.043,0.014l-0.043-0.015l0.35-1.134h2.467l0.424,1.26c0.117,0.34,0.213,0.621,0.213,0.777
				c-0.014,0.324-0.459,0.348-0.699,0.353h-0.07V94.015z M107.79,94.107c-0.479-0.017-0.953-0.042-1.457-0.042
				c-0.518,0-1.049,0.025-1.588,0.042l-0.047,0.004v-0.049v-0.361h0.045h0.117c0.246,0,0.609-0.06,0.611-0.262
				c0.002-0.119-0.094-0.41-0.213-0.748l-0.402-1.199h-2.336l-0.326,1.071c-0.105,0.362-0.234,0.642-0.232,0.812
				c0,0.26,0.396,0.326,0.748,0.326h0.162v0.045v0.365l-0.047-0.004c-0.424-0.017-0.857-0.042-1.279-0.042
				c-0.379,0-0.76,0.025-1.141,0.042l-0.047,0.004v-0.049v-0.361h0.047h0.061c0.393-0.004,0.723-0.23,0.879-0.658l1.693-4.859
				c0.137-0.393,0.328-0.921,0.42-1.342c0.334-0.115,0.758-0.326,0.965-0.453c0.025-0.012,0.057-0.023,0.098-0.023
				c0.029-0.005,0.084,0.004,0.117,0.061c0.031,0.084,0.063,0.18,0.098,0.266l1.947,5.536c0.125,0.372,0.252,0.763,0.391,1.077
				c0.123,0.281,0.314,0.391,0.654,0.396h0.111v0.045v0.365L107.79,94.107z"/>
		</g>
		<g>
			<path class="st35" d="M110.462,93.025c0,0.426,0.293,0.552,0.633,0.594c0.434,0.031,0.91,0.031,1.396-0.021
				c0.445-0.054,0.826-0.308,1.018-0.573c0.168-0.233,0.264-0.529,0.326-0.762h0.309c-0.115,0.604-0.264,1.197-0.393,1.801
				c-0.93,0-1.863-0.043-2.793-0.043c-0.934,0-1.863,0.043-2.795,0.043v-0.318h0.146c0.381,0,0.795-0.053,0.795-0.709v-5.441
				c0-0.551-0.414-0.604-0.795-0.604h-0.146v-0.318c0.559,0,1.111,0.043,1.672,0.043c0.541,0,1.068-0.043,1.609-0.043v0.318h-0.266
				c-0.402,0-0.717,0.013-0.717,0.571V93.025z"/>
		</g>
		<g>
			<path class="st35" d="M113.714,94.016c0.121-0.573,0.26-1.135,0.375-1.708h-0.217c-0.066,0.229-0.16,0.516-0.33,0.745
				c-0.195,0.274-0.588,0.534-1.047,0.591c-0.277,0.027-0.551,0.042-0.813,0.042c-0.205,0-0.402-0.009-0.594-0.022
				c-0.346-0.037-0.678-0.186-0.678-0.639v-5.463c0-0.588,0.373-0.615,0.768-0.615h0.217v-0.228
				c-0.52,0.002-1.033,0.043-1.561,0.043c-0.549,0-1.086-0.041-1.627-0.043v0.228h0.102c0.377,0,0.84,0.064,0.84,0.647v5.442
				c0,0.686-0.461,0.755-0.84,0.755h-0.102v0.225c0.914-0.001,1.83-0.042,2.75-0.042S112.798,94.015,113.714,94.016 M113.751,94.107
				c-0.934,0-1.863-0.042-2.793-0.042c-0.932,0-1.863,0.042-2.799,0.042h-0.043v-0.045v-0.361h0.043h0.15
				c0.381-0.011,0.744-0.037,0.75-0.664v-5.442c-0.006-0.515-0.365-0.55-0.75-0.557h-0.193v-0.047v-0.363h0.043
				c0.564,0,1.115,0.042,1.676,0.042c0.537,0,1.064-0.042,1.609-0.042h0.043v0.047v0.363h-0.043h-0.266
				c-0.41,0.009-0.666-0.007-0.674,0.524v5.463c0.004,0.395,0.26,0.502,0.592,0.549c0.186,0.014,0.383,0.021,0.586,0.021
				c0.26,0,0.529-0.013,0.803-0.042c0.43-0.052,0.803-0.299,0.986-0.553c0.162-0.225,0.254-0.518,0.318-0.747l0.01-0.036h0.035
				h0.363l-0.008,0.057c-0.121,0.605-0.266,1.197-0.395,1.799l-0.01,0.035H113.751z"/>
		</g>
		<g>
			<path class="st35" d="M113.835,87.49h0.133c0.143,0,0.211-0.107,0.211-0.283c0-0.178-0.105-0.24-0.219-0.24h-0.125V87.49z
				 M113.46,88.078v-0.054c0.137-0.02,0.162-0.015,0.162-0.101v-0.825c0-0.114-0.012-0.155-0.158-0.148v-0.056h0.572
				c0.195,0,0.375,0.091,0.375,0.294c0,0.166-0.109,0.288-0.264,0.336l0.184,0.257c0.086,0.113,0.182,0.224,0.246,0.262v0.035
				h-0.219c-0.104,0-0.195-0.219-0.4-0.512h-0.123v0.369c0,0.074,0.025,0.069,0.164,0.089v0.054H113.46z M114.015,88.394
				c0.498,0,0.881-0.424,0.881-0.904c0-0.479-0.377-0.909-0.881-0.909c-0.502,0-0.885,0.431-0.885,0.909
				C113.13,87.97,113.513,88.394,114.015,88.394 M114.015,86.373c0.637,0,1.115,0.492,1.115,1.117c0,0.626-0.479,1.111-1.115,1.111
				s-1.117-0.485-1.117-1.111C112.897,86.865,113.378,86.373,114.015,86.373"/>
		</g>
	</g>
</g>
</svg>
