<?xml version="1.0" encoding="utf-8"?>
<!-- Generator: Adobe Illustrator 16.0.0, SVG Export Plug-In . SVG Version: 6.00 Build 0)  -->
<!DOCTYPE svg PUBLIC "-//W3C//DTD SVG 1.1//EN" "http://www.w3.org/Graphics/SVG/1.1/DTD/svg11.dtd">
<svg version="1.1" id="Layer_1" xmlns="http://www.w3.org/2000/svg" xmlns:xlink="http://www.w3.org/1999/xlink" x="0px" y="0px"
	 width="136.833px" height="136.833px" viewBox="0 0 136.833 136.833" style="enable-background:new 0 0 136.833 136.833;"
	 xml:space="preserve">
<style type="text/css">
<![CDATA[
	.st0{fill:#E0E0E0;}
	.st1{fill:#B41F36;}
	.st2{fill:#1A5B80;}
	.st3{fill:#862165;}
	.st4{fill:#1B7EC1;}
	.st5{fill:#EA2227;}
	.st6{fill:#EE3725;}
	.st7{fill:#EE3B3F;}
	.st8{fill-rule:evenodd;clip-rule:evenodd;fill:#E0EFFA;}
	.st9{fill-rule:evenodd;clip-rule:evenodd;fill:#E2E4D5;}
	.st10{fill:#BA6D71;}
	.st11{fill-rule:evenodd;clip-rule:evenodd;fill:#E92F30;}
	.st12{fill:#203D74;}
	.st13{fill:#F16622;}
	.st14{fill:#F16823;}
	.st15{fill:#231F20;}
	.st16{fill:#F26E21;}
	.st17{fill:#F3F2F2;}
	.st18{fill:#F4C82E;}
	.st19{fill-rule:evenodd;clip-rule:evenodd;fill:#1A5B80;}
	.st20{fill-rule:evenodd;clip-rule:evenodd;fill:#1A80AD;}
	.st21{fill:#F5E11C;}
	.st22{fill:#27ADE4;}
	.st23{fill-rule:evenodd;clip-rule:evenodd;fill:#EA2230;}
	.st24{fill-rule:evenodd;clip-rule:evenodd;fill:#EAF3F8;}
	.st25{fill:#F7981D;}
	.st26{fill:#F7AB1B;}
	.st27{fill:#293688;}
	.st28{fill-rule:evenodd;clip-rule:evenodd;fill:#ED1C2E;}
	.st29{fill-rule:evenodd;clip-rule:evenodd;fill:#505F7C;}
	.st30{fill:#931B1D;}
	.st31{fill:#2D78BC;}
	.st32{fill-rule:evenodd;clip-rule:evenodd;fill:#BC202A;}
	.st33{fill-rule:evenodd;clip-rule:evenodd;}
	.st34{fill:#FFDF1B;}
	.st35{fill:#FFFFFF;}
	.st36{fill-rule:evenodd;clip-rule:evenodd;fill:#231F20;}
	.st37{fill:#65B1E2;}
	.st38{fill-rule:evenodd;clip-rule:evenodd;fill:#F4C82E;}
	.st39{fill:#9A847A;}
	.st40{fill:#CA3092;}
	.st41{fill:#CB2026;}
	.st42{fill:#686969;}
	.st43{fill-rule:evenodd;clip-rule:evenodd;fill:#F7981D;}
	.st44{fill:#CC1B69;}
	.st45{fill:#305499;}
	.st46{fill:#329947;}
	.st47{fill:#6BB745;}
	.st48{fill:#003473;}
	.st49{fill:#00529E;}
	.st50{fill:#005595;}
	.st51{fill:#005B84;}
	.st52{fill:#005E88;}
	.st53{fill:#0063A6;}
	.st54{fill:#008061;}
	.st55{fill:#0095C3;}
	.st56{fill:#009DA5;}
	.st57{fill:#00A051;}
	.st58{fill:#D0D1D1;}
	.st59{fill-rule:evenodd;clip-rule:evenodd;fill:#FFFFFF;}
	.st60{fill:#D19EA0;}
	.st61{fill:#0356A2;}
	.st62{fill:#D29EA1;}
	.st63{fill:#0468B2;}
	.st64{fill:#D32259;}
	.st65{fill:#055D77;}
	.st66{fill-rule:evenodd;clip-rule:evenodd;fill:#65B1E2;}
	.st67{fill:#0683C2;}
	.st68{fill:#0872B9;}
	.st69{fill:#3C80AD;}
	.st70{fill-rule:evenodd;clip-rule:evenodd;fill:#32357F;}
	.st71{fill:#A23C42;}
	.st72{fill:#0B161F;}
	.st73{fill:#0C4875;}
	.st74{fill:#0F549D;}
	.st75{fill-rule:evenodd;clip-rule:evenodd;fill:#005595;}
	.st76{fill-rule:evenodd;clip-rule:evenodd;fill:#009DDD;}
	.st77{fill:#DEBBBC;}
	.st78{fill:#43567E;}
	.st79{fill-rule:evenodd;clip-rule:evenodd;fill:#D2D2D2;}
]]>
</style>
<g>
	<g>
		<g>
			<circle class="st17" cx="68.417" cy="68.417" r="63.333"/>
		</g>
	</g>
	<g>
		<g>
			<g>
				<path class="st7" d="M32.851,57.514c-12.347-0.002-12.826,9.608-12.764,12.104c0,0-0.604,11.236,12.462,11.236
					c11.226,0,11.778-7.05,11.778-7.05l-5.165,0.009c0,0-1.006,3.885-6.593,3.781c-7.182-0.133-7.461-7.092-7.461-7.092h19.897
					C45.006,70.502,46.516,57.517,32.851,57.514z M25.273,67.094c0,0,0.354-6.292,7.456-6.295c7.075-0.002,7.075,6.295,7.075,6.295
					H25.273z"/>
			</g>
		</g>
		<g>
			<g>
				<path class="st63" d="M58.828,57.514c-6.208-0.035-8.879,3.675-8.879,3.675V48.774h-4.977l0.084,26.241
					c0,0-0.03,3.056-0.218,5.075h4.833l0.207-2.947c0,0,2.255,3.711,8.844,3.711c6.591,0,11.793-4.057,11.932-11.583
					C70.792,61.745,65.036,57.547,58.828,57.514z M57.687,77.499c-7.84,0.1-7.713-8.313-7.713-8.313s-0.285-8.1,7.7-8.307
					c7.984-0.208,7.726,8.479,7.726,8.479S65.527,77.401,57.687,77.499z"/>
			</g>
		</g>
		<g>
			<g>
				<path class="st26" d="M93.648,74.912c0.012-3.395,0.111-6.425,0-8.563c-0.131-2.479,0.104-8.461-10.613-8.904
					c0,0-10.274-0.936-11.341,6.711h5.255c0,0,0.408-3.503,5.74-3.402c5.046,0.096,5.966,2.57,5.939,5.613
					c0,0-4.326,0.014-5.769,0.02c-2.602,0.013-11.703,0.302-12.553,5.846c-1.011,6.593,4.872,8.648,9.476,8.623
					c4.605-0.025,7.23-1.404,9.183-3.875l0.208,3.069l4.579-0.027C93.752,80.021,93.634,78.305,93.648,74.912z M80.642,77.681
					c0,0-4.987,0.007-5.281-3.979c-0.312-4.253,7.674-3.996,7.674-3.996l5.643-0.007C88.677,69.699,89.59,77.797,80.642,77.681z"/>
			</g>
		</g>
		<g>
			<polygon class="st47" points="90.925,58.346 96.7,58.346 105.144,75.185 113.607,58.346 118.828,58.346 103.548,88.364 
				97.965,88.364 102.387,80.021 			"/>
		</g>
		<g>
			<g>
				<path class="st15" d="M120.781,59.547v-0.622h-0.191v-0.231h0.191V58.37h0.348v0.324h0.407v0.231h-0.407v0.579
					c0,0.106,0.068,0.148,0.186,0.148c0.078,0,0.147-0.014,0.217-0.04v0.222c-0.086,0.037-0.182,0.061-0.313,0.061
					C120.961,59.895,120.781,59.808,120.781,59.547z"/>
			</g>
			<g>
				<path class="st15" d="M121.889,58.694h0.347v0.179c0.098-0.105,0.229-0.203,0.463-0.203c0.217,0,0.373,0.083,0.453,0.208
					c0.121-0.125,0.281-0.208,0.512-0.208c0.328,0,0.53,0.163,0.53,0.452v0.754h-0.347v-0.672c0-0.188-0.112-0.289-0.309-0.289
					c-0.188,0-0.323,0.104-0.323,0.293v0.668h-0.348v-0.673c0-0.184-0.114-0.288-0.308-0.288c-0.191,0-0.324,0.112-0.324,0.293
					v0.668h-0.347V58.694z"/>
			</g>
		</g>
	</g>
</g>
</svg>
