<?xml version="1.0" encoding="utf-8"?>
<!-- Generator: Adobe Illustrator 16.0.0, SVG Export Plug-In . SVG Version: 6.00 Build 0)  -->
<!DOCTYPE svg PUBLIC "-//W3C//DTD SVG 1.1//EN" "http://www.w3.org/Graphics/SVG/1.1/DTD/svg11.dtd">
<svg version="1.1" id="Layer_1" xmlns="http://www.w3.org/2000/svg" xmlns:xlink="http://www.w3.org/1999/xlink" x="0px" y="0px"
	 width="136.833px" height="136.833px" viewBox="0 0 136.833 136.833" style="enable-background:new 0 0 136.833 136.833;"
	 xml:space="preserve">
<style type="text/css">
<![CDATA[
	.st0{fill:#E0E0E0;}
	.st1{fill:#B41F36;}
	.st2{fill:#1A5B80;}
	.st3{fill:#862165;}
	.st4{fill:#1B7EC1;}
	.st5{fill:#EA2227;}
	.st6{fill:#EE3725;}
	.st7{fill:#EE3B3F;}
	.st8{fill-rule:evenodd;clip-rule:evenodd;fill:#E0EFFA;}
	.st9{fill-rule:evenodd;clip-rule:evenodd;fill:#E2E4D5;}
	.st10{fill:#BA6D71;}
	.st11{fill-rule:evenodd;clip-rule:evenodd;fill:#E92F30;}
	.st12{fill:#203D74;}
	.st13{fill:#F16622;}
	.st14{fill:#F16823;}
	.st15{fill:#231F20;}
	.st16{fill:#F26E21;}
	.st17{fill:#F3F2F2;}
	.st18{fill:#F4C82E;}
	.st19{fill-rule:evenodd;clip-rule:evenodd;fill:#1A5B80;}
	.st20{fill-rule:evenodd;clip-rule:evenodd;fill:#1A80AD;}
	.st21{fill:#F5E11C;}
	.st22{fill:#27ADE4;}
	.st23{fill-rule:evenodd;clip-rule:evenodd;fill:#EA2230;}
	.st24{fill-rule:evenodd;clip-rule:evenodd;fill:#EAF3F8;}
	.st25{fill:#F7981D;}
	.st26{fill:#F7AB1B;}
	.st27{fill:#293688;}
	.st28{fill-rule:evenodd;clip-rule:evenodd;fill:#ED1C2E;}
	.st29{fill-rule:evenodd;clip-rule:evenodd;fill:#505F7C;}
	.st30{fill:#931B1D;}
	.st31{fill:#2D78BC;}
	.st32{fill-rule:evenodd;clip-rule:evenodd;fill:#BC202A;}
	.st33{fill-rule:evenodd;clip-rule:evenodd;}
	.st34{fill:#FFDF1B;}
	.st35{fill:#FFFFFF;}
	.st36{fill-rule:evenodd;clip-rule:evenodd;fill:#231F20;}
	.st37{fill:#65B1E2;}
	.st38{fill-rule:evenodd;clip-rule:evenodd;fill:#F4C82E;}
	.st39{fill:#9A847A;}
	.st40{fill:#CA3092;}
	.st41{fill:#CB2026;}
	.st42{fill:#686969;}
	.st43{fill-rule:evenodd;clip-rule:evenodd;fill:#F7981D;}
	.st44{fill:#CC1B69;}
	.st45{fill:#305499;}
	.st46{fill:#329947;}
	.st47{fill:#6BB745;}
	.st48{fill:#003473;}
	.st49{fill:#00529E;}
	.st50{fill:#005595;}
	.st51{fill:#005B84;}
	.st52{fill:#005E88;}
	.st53{fill:#0063A6;}
	.st54{fill:#008061;}
	.st55{fill:#0095C3;}
	.st56{fill:#009DA5;}
	.st57{fill:#00A051;}
	.st58{fill:#D0D1D1;}
	.st59{fill-rule:evenodd;clip-rule:evenodd;fill:#FFFFFF;}
	.st60{fill:#D19EA0;}
	.st61{fill:#0356A2;}
	.st62{fill:#D29EA1;}
	.st63{fill:#0468B2;}
	.st64{fill:#D32259;}
	.st65{fill:#055D77;}
	.st66{fill-rule:evenodd;clip-rule:evenodd;fill:#65B1E2;}
	.st67{fill:#0683C2;}
	.st68{fill:#0872B9;}
	.st69{fill:#3C80AD;}
	.st70{fill-rule:evenodd;clip-rule:evenodd;fill:#32357F;}
	.st71{fill:#A23C42;}
	.st72{fill:#0B161F;}
	.st73{fill:#0C4875;}
	.st74{fill:#0F549D;}
	.st75{fill-rule:evenodd;clip-rule:evenodd;fill:#005595;}
	.st76{fill-rule:evenodd;clip-rule:evenodd;fill:#009DDD;}
	.st77{fill:#DEBBBC;}
	.st78{fill:#43567E;}
	.st79{fill-rule:evenodd;clip-rule:evenodd;fill:#D2D2D2;}
]]>
</style>
<g>
	<g>
		<g>
			<circle class="st42" cx="68.417" cy="68.417" r="63.333"/>
		</g>
	</g>
	<g>
		<g>
			<path class="st79" d="M62.664,58.595h5.433c0,0,5.379-0.109,5.324,4.781c-0.055,3.639-5.215,4.184-5.215,4.184h-5.542V58.595
				L62.664,58.595z M78.917,76.145c0.152,0.711,0.668,1.493,2.383,1.573c2.281,0.055,3.585-0.814,3.585-0.814v1.684
				c0,0-2.499,0.598-3.694,0.598c-1.25,0-4.943-0.271-4.943-3.693c0-2.771,3.042-3.64,4.78-3.64
				c3.043,0.106,4.509,1.194,4.454,4.291C85.481,76.189,80.476,76.154,78.917,76.145L78.917,76.145z M78.924,74.785h4.169
				c0,0,0-1.574-2.011-1.574C79.569,73.21,79.075,74.025,78.924,74.785L78.924,74.785z M92.11,73.083
				c0.603-0.654,1.615-1.179,3.314-1.179c3.369,0,3.911,2.825,3.857,3.587c-0.055,0.761-0.326,3.64-4.237,3.64
				c-1.478,0-2.382-0.503-2.935-1.13v0.912h-2.662v-9.779h2.662V73.083L92.11,73.083z M94.392,77.611
				c1.576-0.055,2.282-1.413,2.282-2.064c0-0.653-0.38-2.011-2.39-2.011c-1.561,0-2.035,1.178-2.174,1.755V76
				C92.247,76.585,92.726,77.611,94.392,77.611L94.392,77.611z M117.374,77.339l0.055,1.521c0,0-1.25,0.271-2.064,0.271
				c-0.815,0-2.935-0.487-2.935-2.554c0-0.841,0-2.033,0-3.15h-2.228v-1.412h2.228c0-0.979,0-1.686,0-1.686h2.717v1.686h2.228v1.412
				h-2.228v2.716c0,0,0,1.358,1.087,1.358S117.374,77.339,117.374,77.339L117.374,77.339z M109.116,60.062h3.15v7.551h2.663v-7.551
				h3.205v-1.576h-9.019V60.062L109.116,60.062z M108.029,60.442l0.325-1.577c0,0-1.357-0.596-3.747-0.596
				c-2.337,0-6.086,1.304-6.086,4.835c0,3.477,3.966,4.673,6.411,4.673s3.26-0.38,3.26-0.38l-0.271-1.74
				c0,0-1.086,0.327-2.934,0.327c-1.793-0.055-3.641-1.467-3.641-3.041c0.055-1.414,1.684-2.99,3.803-2.99
				C106.78,59.953,108.029,60.442,108.029,60.442L108.029,60.442z M84.015,58.541c0,0,4.457-0.217,4.457,2.391
				c0,2.228-2.555,2.391-2.555,2.391s0.707,0.108,1.033,0.598c0.271,0.434,2.063,3.693,2.063,3.693h-2.715
				c0,0-0.436-0.542-0.652-0.923c-0.164-0.38-0.651-1.194-0.651-1.194s-0.382-1.359-1.685-1.359c-0.033,0-0.564-0.02-0.979-0.035
				v3.512h-2.607v-9.072H84.015L84.015,58.541z M82.331,62.615h1.412c0,0,1.957-0.109,2.065-1.304
				c0.054-1.142-1.901-1.304-1.901-1.304h-1.576V62.615L82.331,62.615z M93.252,64.028h4.346v-1.685h-4.346v-2.064h4.727v-1.738
				H90.59v9.072h7.442v-1.629h-4.78V64.028L93.252,64.028z M103.847,70.982h2.662v-1.848h-2.662V70.982L103.847,70.982z
				 M103.847,78.914h2.662v-6.898h-2.662V78.914L103.847,78.914z M74.834,67.613h2.607v-9.072h-2.607V67.613L74.834,67.613z
				 M62.664,69.896h5.433c0,0,5.379-0.109,5.324,4.781c-0.055,3.64-5.215,4.183-5.215,4.183h-5.542V69.896L62.664,69.896z
				 M65.326,77.175h1.738c0,0,3.585-0.218,3.585-2.986c0-2.773-3.801-3.045-3.801-3.045h-1.522V77.175L65.326,77.175z
				 M65.326,65.875h1.738c0,0,3.585-0.271,3.585-2.988c0-2.824-3.801-3.043-3.801-3.043h-1.522V65.875L65.326,65.875z"/>
		</g>
		<g>
			<path class="st79" d="M38.271,63.996v18.178c0,0-10.541-1.9-10.541-9.127C27.729,67.285,35.532,64.744,38.271,63.996
				L38.271,63.996z M38.271,63.658c-6.336-0.459-20.699,2.51-20.699,9.009c0,4.237,7.605,10.433,19.992,10.594
				c0.49,0,14.561-0.544,14.344-15.647c-0.183-12.686-9.678-14.906-12.714-15.295v-0.771c12.104,0.769,21.624,8.047,21.624,16.882
				c0,9.345-10.648,16.951-23.742,16.951s-23.688-7.606-23.688-16.951s10.595-16.95,23.688-16.95c0.4,0,0.799,0.008,1.195,0.021
				V63.658L38.271,63.658z"/>
		</g>
	</g>
</g>
</svg>
