<?xml version="1.0" encoding="utf-8"?>
<!-- Generator: Adobe Illustrator 16.0.0, SVG Export Plug-In . SVG Version: 6.00 Build 0)  -->
<!DOCTYPE svg PUBLIC "-//W3C//DTD SVG 1.1//EN" "http://www.w3.org/Graphics/SVG/1.1/DTD/svg11.dtd">
<svg version="1.1" id="Layer_1" xmlns="http://www.w3.org/2000/svg" xmlns:xlink="http://www.w3.org/1999/xlink" x="0px" y="0px"
	 width="136.833px" height="136.834px" viewBox="0 0 136.833 136.834" style="enable-background:new 0 0 136.833 136.834;"
	 xml:space="preserve">
<style type="text/css">
<![CDATA[
	.st0{fill:#E0E0E0;}
	.st1{fill:#B41F36;}
	.st2{fill:#1A5B80;}
	.st3{fill:#862165;}
	.st4{fill:#1B7EC1;}
	.st5{fill:#EA2227;}
	.st6{fill:#EE3725;}
	.st7{fill:#EE3B3F;}
	.st8{fill-rule:evenodd;clip-rule:evenodd;fill:#E0EFFA;}
	.st9{fill-rule:evenodd;clip-rule:evenodd;fill:#E2E4D5;}
	.st10{fill:#BA6D71;}
	.st11{fill-rule:evenodd;clip-rule:evenodd;fill:#E92F30;}
	.st12{fill:#203D74;}
	.st13{fill:#F16622;}
	.st14{fill:#F16823;}
	.st15{fill:#231F20;}
	.st16{fill:#F26E21;}
	.st17{fill:#F3F2F2;}
	.st18{fill:#F4C82E;}
	.st19{fill-rule:evenodd;clip-rule:evenodd;fill:#1A5B80;}
	.st20{fill-rule:evenodd;clip-rule:evenodd;fill:#1A80AD;}
	.st21{fill:#F5E11C;}
	.st22{fill:#27ADE4;}
	.st23{fill-rule:evenodd;clip-rule:evenodd;fill:#EA2230;}
	.st24{fill-rule:evenodd;clip-rule:evenodd;fill:#EAF3F8;}
	.st25{fill:#F7981D;}
	.st26{fill:#F7AB1B;}
	.st27{fill:#293688;}
	.st28{fill-rule:evenodd;clip-rule:evenodd;fill:#ED1C2E;}
	.st29{fill-rule:evenodd;clip-rule:evenodd;fill:#505F7C;}
	.st30{fill:#931B1D;}
	.st31{fill:#2D78BC;}
	.st32{fill-rule:evenodd;clip-rule:evenodd;fill:#BC202A;}
	.st33{fill-rule:evenodd;clip-rule:evenodd;}
	.st34{fill:#FFDF1B;}
	.st35{fill:#FFFFFF;}
	.st36{fill-rule:evenodd;clip-rule:evenodd;fill:#231F20;}
	.st37{fill:#65B1E2;}
	.st38{fill-rule:evenodd;clip-rule:evenodd;fill:#F4C82E;}
	.st39{fill:#9A847A;}
	.st40{fill:#CA3092;}
	.st41{fill:#CB2026;}
	.st42{fill:#686969;}
	.st43{fill-rule:evenodd;clip-rule:evenodd;fill:#F7981D;}
	.st44{fill:#CC1B69;}
	.st45{fill:#305499;}
	.st46{fill:#329947;}
	.st47{fill:#6BB745;}
	.st48{fill:#003473;}
	.st49{fill:#00529E;}
	.st50{fill:#005595;}
	.st51{fill:#005B84;}
	.st52{fill:#005E88;}
	.st53{fill:#0063A6;}
	.st54{fill:#008061;}
	.st55{fill:#0095C3;}
	.st56{fill:#009DA5;}
	.st57{fill:#00A051;}
	.st58{fill:#D0D1D1;}
	.st59{fill-rule:evenodd;clip-rule:evenodd;fill:#FFFFFF;}
	.st60{fill:#D19EA0;}
	.st61{fill:#0356A2;}
	.st62{fill:#D29EA1;}
	.st63{fill:#0468B2;}
	.st64{fill:#D32259;}
	.st65{fill:#055D77;}
	.st66{fill-rule:evenodd;clip-rule:evenodd;fill:#65B1E2;}
	.st67{fill:#0683C2;}
	.st68{fill:#0872B9;}
	.st69{fill:#3C80AD;}
	.st70{fill-rule:evenodd;clip-rule:evenodd;fill:#32357F;}
	.st71{fill:#A23C42;}
	.st72{fill:#0B161F;}
	.st73{fill:#0C4875;}
	.st74{fill:#0F549D;}
	.st75{fill-rule:evenodd;clip-rule:evenodd;fill:#005595;}
	.st76{fill-rule:evenodd;clip-rule:evenodd;fill:#009DDD;}
	.st77{fill:#DEBBBC;}
	.st78{fill:#43567E;}
	.st79{fill-rule:evenodd;clip-rule:evenodd;fill:#D2D2D2;}
]]>
</style>
<g>
	<g>
		<g>
			<circle class="st17" cx="68.416" cy="68.417" r="63.333"/>
		</g>
	</g>
	<g>
		<g>
			<g>
				<path class="st8" d="M42.536,59.664c0-13.831,11.209-25.046,25.046-25.046c13.831,0,25.044,11.215,25.044,25.046
					c0,13.833-11.213,25.046-25.044,25.046C53.745,84.71,42.536,73.497,42.536,59.664z"/>
			</g>
			<g>
				<circle class="st66" cx="67.581" cy="59.664" r="19.552"/>
			</g>
			<g>
				<path class="st59" d="M94.517,31.921c0.291,5.382,2.163,9.183,4.521,12.499C84.005,49.691,73.3,59.165,67.5,73.668
					c-2.719-5.334-5.224-11.069-12.578-13.008c2.953-2.279,4.436-3.504,5.495-7.678c3.507,2.523,4.921,4.92,6.286,9.582
					C73.258,49.173,82.86,40.211,94.517,31.921z"/>
			</g>
			<g>
				<path class="st75" d="M91.962,32.502c0.266,4.905,1.969,8.367,4.119,11.39c-13.697,4.804-23.557,13.445-28.84,26.659
					c-3.295-5.027-6.265-10.378-14.299-10.662c2.688-2.077,5.578-3.956,6.542-7.757c3.197,2.299,5.784,5.205,7.029,9.451
					C72.487,49.382,81.34,40.057,91.962,32.502z"/>
			</g>
		</g>
		<g>
			<g>
				<g>
					<path class="st37" d="M40.281,103.641c-1.529,0-2.533-0.115-2.996-0.182l-0.191-0.029V91.154l0.186-0.033
						c0.725-0.127,2.186-0.254,3.578-0.254c1.805,0,2.809,0.193,3.707,0.713c0.98,0.521,1.547,1.465,1.547,2.582
						c0,1.09-0.594,2-1.648,2.559c1.287,0.521,2.063,1.637,2.063,3.012c0,1.098-0.463,2.053-1.342,2.762
						C44.217,103.266,42.611,103.641,40.281,103.641z M40.256,101.145c0.221,0.018,0.492,0.018,0.834,0.018
						c0.635,0,2.111-0.15,2.111-1.537c0-1.273-1.4-1.465-2.236-1.465h-0.709V101.145z M40.928,95.754
						c1.264,0,1.986-0.461,1.986-1.268c0-0.973-0.932-1.176-1.715-1.176c-0.383,0-0.693,0.014-0.943,0.043v2.4H40.928z"/>
				</g>
				<g>
					<path class="st35" d="M40.857,91.092c1.672,0,2.693,0.16,3.592,0.682c0.846,0.451,1.439,1.277,1.439,2.389
						c0,1.061-0.631,2.049-1.994,2.57v0.035c1.385,0.361,2.406,1.42,2.406,2.965c0,1.115-0.502,1.977-1.258,2.586
						c-0.879,0.703-2.354,1.098-4.762,1.098c-1.346,0-2.352-0.09-2.963-0.18V91.344C38.037,91.217,39.475,91.092,40.857,91.092
						 M40.031,95.979h0.896c1.457,0,2.211-0.594,2.211-1.492c0-0.916-0.701-1.4-1.939-1.4c-0.611,0-0.953,0.035-1.168,0.07V95.979
						 M41.09,101.387c1.24,0,2.336-0.486,2.336-1.762c0-1.203-1.096-1.689-2.461-1.689h-0.934v3.414
						C40.301,101.387,40.623,101.387,41.09,101.387 M40.857,90.643c-1.406,0-2.883,0.129-3.617,0.258l-0.371,0.064v0.379v11.893
						v0.389l0.383,0.057c0.469,0.066,1.484,0.184,3.029,0.184c2.418,0,4.02-0.379,5.041-1.193c0.936-0.756,1.428-1.771,1.428-2.939
						c0-1.326-0.672-2.424-1.809-3.035c0.898-0.605,1.395-1.492,1.395-2.535c0-1.199-0.607-2.213-1.668-2.781
						C43.736,90.842,42.703,90.643,40.857,90.643L40.857,90.643z M40.48,93.559c0.203-0.016,0.441-0.023,0.719-0.023
						c1.49,0,1.49,0.717,1.49,0.951c0,0.908-1.104,1.043-1.762,1.043H40.48V93.559L40.48,93.559z M40.48,98.385h0.484
						c0.752,0,2.014,0.162,2.014,1.24c0,1.141-1.184,1.311-1.889,1.311c-0.236,0-0.438,0-0.609-0.004V98.385L40.48,98.385z"/>
				</g>
			</g>
			<g>
				<g>
					<rect x="47.729" y="90.311" class="st37" width="3.18" height="13.203"/>
				</g>
				<g>
					<path class="st35" d="M50.686,90.533v12.758h-2.732V90.533H50.686 M51.135,90.086h-0.449h-2.732h-0.449v0.447v12.758v0.449
						h0.449h2.732h0.449v-0.449V90.533V90.086L51.135,90.086z"/>
				</g>
			</g>
			<g>
				<g>
					<path class="st37" d="M55.822,103.713c-1.238,0-3.314-0.527-3.314-4.051v-5.383h3.18v4.949c0,1.824,0.873,1.824,1.16,1.824
						c0.629,0,1.016-0.434,1.154-0.807c0.063-0.145,0.094-0.313,0.094-0.514v-5.453h3.18v6.189c0,1.188,0.037,2.125,0.072,2.811
						l0.01,0.234h-2.809l-0.096-0.936C58.006,103.082,57.176,103.713,55.822,103.713z"/>
				</g>
				<g>
					<path class="st35" d="M61.051,94.506v5.963c0,1.15,0.037,2.084,0.072,2.822h-2.371l-0.127-1.24h-0.053
						c-0.342,0.539-1.168,1.438-2.75,1.438c-1.795,0-3.09-1.115-3.09-3.826v-5.156h2.73v4.723c0,1.277,0.414,2.049,1.385,2.049
						c0.754,0,1.203-0.52,1.365-0.951c0.072-0.162,0.107-0.359,0.107-0.594v-5.227H61.051 M61.5,94.055h-0.449h-2.73h-0.449v0.451
						v5.227c0,0.17-0.023,0.309-0.07,0.412l-0.004,0.012l-0.006,0.012c-0.041,0.109-0.281,0.66-0.943,0.66
						c-0.256,0-0.936,0-0.936-1.6v-4.723v-0.451h-0.449h-2.73h-0.449v0.451v5.156c0,2.717,1.291,4.273,3.539,4.273
						c1.145,0,1.938-0.424,2.457-0.869l0.025,0.27l0.041,0.404h0.406h2.371h0.471l-0.021-0.473
						c-0.033-0.682-0.072-1.615-0.072-2.799v-5.963V94.055L61.5,94.055z"/>
				</g>
			</g>
			<g>
				<g>
					<path class="st37" d="M67.303,103.693c-3.076,0-4.912-1.756-4.912-4.697c0-2.367,1.457-4.914,4.662-4.914
						c3.053,0,4.141,2.381,4.141,4.607c0,0.447-0.049,0.871-0.096,1.119l-0.031,0.184h-5.588c0.217,0.898,1.301,1.223,2.221,1.223
						c0.887,0,1.611-0.113,2.352-0.365l0.244-0.084l0.443,2.283l-0.168,0.07C69.662,103.502,68.563,103.693,67.303,103.693z
						 M68.199,97.676c-0.049-0.457-0.277-1.33-1.311-1.33c-0.896,0-1.297,0.75-1.424,1.33H68.199z"/>
				</g>
				<g>
					<path class="st35" d="M67.053,94.307c2.838,0,3.916,2.211,3.916,4.383c0,0.469-0.055,0.881-0.09,1.078h-5.66
						c0.072,1.133,1.203,1.672,2.48,1.672c0.934,0,1.688-0.127,2.426-0.377l0.359,1.85c-0.898,0.379-1.996,0.559-3.182,0.559
						c-2.982,0-4.689-1.725-4.689-4.475C62.613,96.768,63.998,94.307,67.053,94.307 M65.201,97.9h3.232
						c0-0.664-0.287-1.779-1.545-1.779C65.74,96.121,65.273,97.182,65.201,97.9 M67.053,93.857c-1.539,0-2.82,0.578-3.713,1.676
						c-0.748,0.916-1.174,2.18-1.174,3.463c0,3.035,1.969,4.922,5.137,4.922c1.289,0,2.42-0.199,3.354-0.592l0.338-0.141
						l-0.07-0.359l-0.359-1.85l-0.098-0.506l-0.488,0.166c-0.715,0.244-1.418,0.354-2.279,0.354c-0.758,0-1.572-0.211-1.893-0.771
						h5.072h0.375l0.066-0.369c0.047-0.26,0.096-0.699,0.096-1.16c0-1.273-0.35-2.438-0.984-3.277
						C69.662,94.395,68.492,93.857,67.053,93.857L67.053,93.857z M65.768,97.451c0.146-0.395,0.459-0.879,1.121-0.879
						c0.701,0,0.959,0.465,1.051,0.879H65.768L65.768,97.451z"/>
				</g>
			</g>
			<g>
				<g>
					<path class="st50" d="M72.553,103.514V91.152l0.186-0.031c0.994-0.168,2.252-0.254,3.74-0.254c1.727,0,2.982,0.332,3.842,1.02
						c0.875,0.676,1.377,1.762,1.377,2.977c0,1.271-0.422,2.35-1.189,3.043c-0.943,0.871-2.355,1.332-4.084,1.332
						c-0.281,0-0.514-0.01-0.709-0.033v4.309H72.553z M75.715,96.652c0.172,0.025,0.385,0.035,0.691,0.035
						c1.332,0,2.129-0.648,2.129-1.732c0-1.004-0.688-1.555-1.932-1.555c-0.451,0-0.729,0.025-0.889,0.049V96.652z"/>
				</g>
				<g>
					<path class="st35" d="M76.479,91.092c1.688,0,2.893,0.322,3.701,0.969c0.789,0.611,1.293,1.617,1.293,2.803
						s-0.377,2.211-1.115,2.875c-0.934,0.863-2.316,1.275-3.934,1.275c-0.359,0-0.682-0.018-0.934-0.07v4.348h-2.711V91.344
						C73.621,91.199,74.807,91.092,76.479,91.092 M76.406,96.912c1.455,0,2.352-0.736,2.352-1.957c0-1.115-0.771-1.779-2.154-1.779
						c-0.539,0-0.916,0.035-1.113,0.09v3.574C75.723,96.895,75.992,96.912,76.406,96.912 M76.479,90.643
						c-1.502,0-2.771,0.086-3.777,0.258l-0.373,0.063v0.381v11.947v0.449h0.451h2.711h0.449v-0.449v-3.84
						c0.145,0.008,0.305,0.012,0.484,0.012c1.785,0,3.25-0.482,4.238-1.395c0.811-0.73,1.26-1.871,1.26-3.205
						c0-1.283-0.535-2.434-1.467-3.156C79.557,90.99,78.256,90.643,76.479,90.643L76.479,90.643z M75.939,93.648
						c0.154-0.014,0.369-0.023,0.664-0.023c0.779,0,1.707,0.23,1.707,1.33c0,1.361-1.332,1.508-1.904,1.508
						c-0.188,0-0.34-0.004-0.467-0.012V93.648L75.939,93.648z"/>
				</g>
			</g>
			<g>
				<g>
					<path class="st50" d="M84.941,103.713c-1.99,0-3.064-1.506-3.064-2.92c0-2.227,1.873-3.525,5.152-3.582
						c-0.057-0.539-0.518-0.811-1.371-0.811c-0.896,0-1.803,0.316-2.305,0.629L83.1,97.188l-0.635-2.217l0.156-0.088
						c0.344-0.191,1.613-0.818,3.521-0.818c2.664,0,4.07,1.395,4.07,4.033v3.072c0,0.947,0.049,1.664,0.139,2.07l0.061,0.273h-2.928
						l-0.125-0.676C86.752,103.404,85.908,103.713,84.941,103.713z M87.123,99.367c-1.395,0.037-2.102,0.426-2.102,1.156
						c0,0.736,0.596,0.816,0.854,0.816c0.539,0,1.047-0.357,1.205-0.85c0.027-0.107,0.043-0.252,0.043-0.398V99.367z"/>
				</g>
				<g>
					<path class="st35" d="M86.143,94.289c2.93,0,3.846,1.725,3.846,3.809v3.072c0,0.826,0.037,1.635,0.143,2.121H87.67
						l-0.162-0.881h-0.053c-0.574,0.701-1.473,1.078-2.514,1.078c-1.779,0-2.84-1.295-2.84-2.695c0-2.281,2.049-3.359,5.156-3.359
						v-0.109c0-0.484-0.252-1.148-1.6-1.148c-0.898,0-1.85,0.305-2.426,0.664l-0.502-1.76
						C83.342,94.738,84.545,94.289,86.143,94.289 M85.875,101.566c0.664,0,1.24-0.451,1.418-1.008
						c0.037-0.145,0.055-0.305,0.055-0.467v-0.951c-1.438,0-2.551,0.342-2.551,1.383C84.797,101.225,85.264,101.566,85.875,101.566
						 M86.143,93.84c-1.908,0-3.176,0.594-3.631,0.848l-0.311,0.174l0.098,0.342l0.502,1.762l0.164,0.572l0.506-0.316
						c0.477-0.297,1.336-0.596,2.188-0.596c0.689,0,0.965,0.182,1.076,0.369c-3.238,0.131-5.082,1.5-5.082,3.799
						c0,1.525,1.152,3.143,3.289,3.143c0.873,0,1.654-0.236,2.268-0.682l0.021,0.117l0.066,0.369h0.373h2.461h0.561l-0.121-0.547
						c-0.086-0.393-0.133-1.092-0.133-2.023v-3.072C90.438,95.352,88.914,93.84,86.143,93.84L86.143,93.84z M85.875,101.115
						c-0.629,0-0.629-0.445-0.629-0.592c0-0.549,0.555-0.859,1.652-0.922v0.49c0,0.121-0.014,0.24-0.037,0.344
						C86.729,100.824,86.307,101.115,85.875,101.115L85.875,101.115z"/>
				</g>
			</g>
			<g>
				<g>
					<path class="st50" d="M91.438,104.789l0.23-0.049c0.342-0.072,0.75-0.232,1.121-0.443c0.383-0.199,0.822-0.625,1.049-1.012
						c0.084-0.137,0.113-0.236,0.113-0.283c0-0.074-0.012-0.172-0.092-0.363L90.5,94.279h3.535l1.361,4.49
						c0.072,0.256,0.16,0.568,0.242,0.879c0.066-0.303,0.141-0.609,0.205-0.885l1.139-4.484h3.402l-2.152,6.086
						c-1.342,3.734-2.201,5.01-3.152,5.859c-1.084,0.959-2.188,1.199-2.75,1.26l-0.193,0.02L91.438,104.789z"/>
				</g>
				<g>
					<path class="st35" d="M100.07,94.506l-2.051,5.783c-1.256,3.504-2.102,4.887-3.09,5.768c-0.934,0.826-1.941,1.131-2.623,1.203
						l-0.592-2.299c0.342-0.072,0.771-0.232,1.186-0.467c0.412-0.217,0.881-0.666,1.131-1.098c0.09-0.143,0.145-0.285,0.145-0.395
						c0-0.107-0.02-0.232-0.109-0.449l-3.232-8.047h3.035l1.313,4.328c0.143,0.504,0.322,1.168,0.43,1.635h0.072
						c0.107-0.484,0.252-1.131,0.377-1.652l1.098-4.311H100.07 M100.703,94.055h-0.633h-2.912h-0.352l-0.086,0.34l-1.094,4.311
						c-0.004,0.01-0.006,0.02-0.006,0.027c-0.004-0.006-0.006-0.014-0.008-0.021l-1.314-4.336l-0.096-0.32h-0.334h-3.035H90.17
						l0.246,0.617l3.234,8.049c0.072,0.17,0.076,0.238,0.076,0.275c-0.004,0.02-0.021,0.078-0.076,0.164l-0.004,0.004l-0.004,0.008
						c-0.207,0.355-0.607,0.744-0.951,0.924l-0.006,0.002l-0.006,0.006c-0.352,0.197-0.738,0.352-1.057,0.418l-0.461,0.096
						l0.117,0.455l0.592,2.301l0.098,0.373l0.385-0.039c0.588-0.063,1.744-0.314,2.873-1.314c1.156-1.029,2.027-2.643,3.219-5.951
						l2.047-5.787L100.703,94.055L100.703,94.055z"/>
				</g>
			</g>
		</g>
	</g>
</g>
</svg>
