<?xml version="1.0" encoding="utf-8"?>
<!-- Generator: Adobe Illustrator 16.0.0, SVG Export Plug-In . SVG Version: 6.00 Build 0)  -->
<!DOCTYPE svg PUBLIC "-//W3C//DTD SVG 1.1//EN" "http://www.w3.org/Graphics/SVG/1.1/DTD/svg11.dtd">
<svg version="1.1" id="Layer_1" xmlns="http://www.w3.org/2000/svg" xmlns:xlink="http://www.w3.org/1999/xlink" x="0px" y="0px"
	 width="136.833px" height="136.834px" viewBox="0 0 136.833 136.834" style="enable-background:new 0 0 136.833 136.834;"
	 xml:space="preserve">
<style type="text/css">
<![CDATA[
	.st0{fill:#E0E0E0;}
	.st1{fill:#B41F36;}
	.st2{fill:#1A5B80;}
	.st3{fill:#862165;}
	.st4{fill:#1B7EC1;}
	.st5{fill:#EA2227;}
	.st6{fill:#EE3725;}
	.st7{fill:#EE3B3F;}
	.st8{fill-rule:evenodd;clip-rule:evenodd;fill:#E0EFFA;}
	.st9{fill-rule:evenodd;clip-rule:evenodd;fill:#E2E4D5;}
	.st10{fill:#BA6D71;}
	.st11{fill-rule:evenodd;clip-rule:evenodd;fill:#E92F30;}
	.st12{fill:#203D74;}
	.st13{fill:#F16622;}
	.st14{fill:#F16823;}
	.st15{fill:#231F20;}
	.st16{fill:#F26E21;}
	.st17{fill:#F3F2F2;}
	.st18{fill:#F4C82E;}
	.st19{fill-rule:evenodd;clip-rule:evenodd;fill:#1A5B80;}
	.st20{fill-rule:evenodd;clip-rule:evenodd;fill:#1A80AD;}
	.st21{fill:#F5E11C;}
	.st22{fill:#27ADE4;}
	.st23{fill-rule:evenodd;clip-rule:evenodd;fill:#EA2230;}
	.st24{fill-rule:evenodd;clip-rule:evenodd;fill:#EAF3F8;}
	.st25{fill:#F7981D;}
	.st26{fill:#F7AB1B;}
	.st27{fill:#293688;}
	.st28{fill-rule:evenodd;clip-rule:evenodd;fill:#ED1C2E;}
	.st29{fill-rule:evenodd;clip-rule:evenodd;fill:#505F7C;}
	.st30{fill:#931B1D;}
	.st31{fill:#2D78BC;}
	.st32{fill-rule:evenodd;clip-rule:evenodd;fill:#BC202A;}
	.st33{fill-rule:evenodd;clip-rule:evenodd;}
	.st34{fill:#FFDF1B;}
	.st35{fill:#FFFFFF;}
	.st36{fill-rule:evenodd;clip-rule:evenodd;fill:#231F20;}
	.st37{fill:#65B1E2;}
	.st38{fill-rule:evenodd;clip-rule:evenodd;fill:#F4C82E;}
	.st39{fill:#9A847A;}
	.st40{fill:#CA3092;}
	.st41{fill:#CB2026;}
	.st42{fill:#686969;}
	.st43{fill-rule:evenodd;clip-rule:evenodd;fill:#F7981D;}
	.st44{fill:#CC1B69;}
	.st45{fill:#305499;}
	.st46{fill:#329947;}
	.st47{fill:#6BB745;}
	.st48{fill:#003473;}
	.st49{fill:#00529E;}
	.st50{fill:#005595;}
	.st51{fill:#005B84;}
	.st52{fill:#005E88;}
	.st53{fill:#0063A6;}
	.st54{fill:#008061;}
	.st55{fill:#0095C3;}
	.st56{fill:#009DA5;}
	.st57{fill:#00A051;}
	.st58{fill:#D0D1D1;}
	.st59{fill-rule:evenodd;clip-rule:evenodd;fill:#FFFFFF;}
	.st60{fill:#D19EA0;}
	.st61{fill:#0356A2;}
	.st62{fill:#D29EA1;}
	.st63{fill:#0468B2;}
	.st64{fill:#D32259;}
	.st65{fill:#055D77;}
	.st66{fill-rule:evenodd;clip-rule:evenodd;fill:#65B1E2;}
	.st67{fill:#0683C2;}
	.st68{fill:#0872B9;}
	.st69{fill:#3C80AD;}
	.st70{fill-rule:evenodd;clip-rule:evenodd;fill:#32357F;}
	.st71{fill:#A23C42;}
	.st72{fill:#0B161F;}
	.st73{fill:#0C4875;}
	.st74{fill:#0F549D;}
	.st75{fill-rule:evenodd;clip-rule:evenodd;fill:#005595;}
	.st76{fill-rule:evenodd;clip-rule:evenodd;fill:#009DDD;}
	.st77{fill:#DEBBBC;}
	.st78{fill:#43567E;}
	.st79{fill-rule:evenodd;clip-rule:evenodd;fill:#D2D2D2;}
]]>
</style>
<g>
	<g>
		<g>
			<circle class="st17" cx="68.416" cy="68.417" r="63.333"/>
		</g>
	</g>
	<g>
		<rect x="39.276" y="72.127" width="14.17" height="23.528"/>
	</g>
	<g>
		<circle cx="46.495" cy="60.366" r="8.02"/>
	</g>
	<g>
		<g>
			<g>
				<path d="M80.284,28.734H29.448v77.096h50.836v-0.016c11.104-0.152,19.9-2.908,26.143-8.221
					c7.594-6.46,11.443-16.658,11.443-30.313c0-6.525-1.014-12.381-3.01-17.4c-1.91-4.801-4.734-8.885-8.391-12.135
					c-6.441-5.724-15.482-8.82-26.186-8.995V28.734z M79.323,33.854c9.852,0,18.063,2.668,23.746,7.719
					c6.422,5.71,9.68,14.36,9.68,25.708c0,22.492-10.934,33.428-33.426,33.428c-1.748,0-40.258,0-44.756,0
					c0-4.587,0-62.268,0-66.854C39.065,33.854,77.575,33.854,79.323,33.854z"/>
			</g>
		</g>
	</g>
	<g>
		<g>
			<path class="st44" d="M77.923,95.683H59.952V40.087h17.971h-0.725c14.988,0,30.943,5.915,30.943,27.87
				c0,23.21-15.955,27.726-30.943,27.726H77.923z"/>
		</g>
	</g>
	<g>
		<g>
			<g>
				<path class="st35" d="M56.853,54.439h4.936c1.113,0,1.961,0.084,2.545,0.255c0.785,0.231,1.455,0.643,2.016,1.231
					c0.559,0.592,0.986,1.313,1.277,2.168c0.291,0.854,0.438,1.908,0.438,3.162c0,1.1-0.139,2.05-0.41,2.846
					c-0.336,0.975-0.813,1.762-1.432,2.364c-0.469,0.456-1.102,0.812-1.896,1.067c-0.598,0.188-1.395,0.283-2.391,0.283h-5.082
					V54.439z M59.55,56.707v8.842h2.021c0.756,0,1.303-0.043,1.637-0.128c0.439-0.108,0.803-0.294,1.092-0.555
					c0.291-0.261,0.525-0.691,0.709-1.29c0.184-0.598,0.275-1.412,0.275-2.443c0-1.033-0.092-1.824-0.275-2.377
					s-0.438-0.982-0.768-1.293c-0.328-0.311-0.748-0.52-1.252-0.629c-0.379-0.085-1.119-0.127-2.223-0.127H59.55z"/>
			</g>
			<g>
				<path class="st35" d="M56.487,54.072v14.109h5.447c1.029,0,1.871-0.102,2.5-0.3c0.848-0.271,1.533-0.659,2.041-1.154
					c0.658-0.64,1.172-1.481,1.523-2.506c0.285-0.833,0.43-1.831,0.43-2.966c0-1.289-0.154-2.392-0.457-3.279
					c-0.309-0.902-0.766-1.676-1.357-2.302c-0.602-0.635-1.336-1.083-2.178-1.331c-0.625-0.182-1.49-0.271-2.648-0.271H56.487z
					 M61.788,54.804c1.072,0,1.895,0.081,2.443,0.24c0.717,0.213,1.34,0.592,1.852,1.133c0.52,0.549,0.922,1.233,1.197,2.033
					c0.277,0.813,0.416,1.837,0.416,3.045c0,1.055-0.131,1.973-0.389,2.728c-0.314,0.913-0.766,1.661-1.342,2.22
					c-0.426,0.414-1.016,0.745-1.754,0.982c-0.557,0.176-1.324,0.265-2.277,0.265c0,0-4.086,0-4.717,0c0-0.673,0-11.974,0-12.646
					C57.847,54.804,61.788,54.804,61.788,54.804z"/>
			</g>
			<g>
				<path class="st35" d="M59.185,56.339v9.574h2.387c0.795,0,1.359-0.045,1.727-0.138c0.494-0.124,0.914-0.339,1.248-0.64
					c0.342-0.309,0.609-0.783,0.814-1.453c0.195-0.639,0.289-1.473,0.289-2.551c0-1.082-0.096-1.896-0.293-2.492
					c-0.201-0.607-0.492-1.094-0.865-1.443c-0.375-0.355-0.855-0.598-1.426-0.721c-0.406-0.092-1.158-0.137-2.299-0.137H59.185z
					 M60.767,57.072c1.334,0,1.9,0.064,2.143,0.118c0.439,0.096,0.803,0.276,1.082,0.538c0.283,0.267,0.508,0.651,0.672,1.143
					c0.168,0.512,0.254,1.272,0.254,2.262c0,0.99-0.086,1.777-0.258,2.338c-0.162,0.53-0.365,0.908-0.604,1.123
					c-0.242,0.22-0.559,0.379-0.938,0.472c-0.303,0.078-0.824,0.118-1.547,0.118c0,0-1.164,0-1.654,0c0-0.644,0-7.468,0-8.111
					C60.274,57.072,60.767,57.072,60.767,57.072z"/>
			</g>
		</g>
		<g>
			<g>
				<path class="st35" d="M71.116,67.816V54.439h9.902v2.268h-7.205v2.962h6.701v2.269h-6.701v3.611h7.461v2.268H71.116z"/>
			</g>
			<g>
				<path class="st35" d="M70.749,54.072v14.109H81.64v-2.998c0,0-6.799,0-7.461,0c0-0.525,0-2.355,0-2.881c0.654,0,6.701,0,6.701,0
					v-2.999c0,0-6.047,0-6.701,0c0-0.482,0-1.749,0-2.231c0.658,0,7.205,0,7.205,0v-3H70.749z M80.651,54.804
					c0,0.416,0,1.119,0,1.535c-0.658,0-7.203,0-7.203,0v3.695c0,0,6.047,0,6.701,0c0,0.415,0,1.121,0,1.535
					c-0.654,0-6.701,0-6.701,0v4.344c0,0,6.797,0,7.459,0c0,0.416,0,1.12,0,1.536c-0.654,0-8.771,0-9.426,0
					c0-0.673,0-11.974,0-12.646C72.134,54.804,79.999,54.804,80.651,54.804z"/>
			</g>
		</g>
		<g>
			<g>
				<path class="st35" d="M96.38,67.816H93.44l-1.166-3.037h-5.344l-1.109,3.037h-2.865l5.199-13.377h2.875L96.38,67.816z
					 M91.407,62.513l-1.844-4.957l-1.807,4.957H91.407z"/>
			</g>
			<g>
				<path class="st35" d="M87.905,54.072l-5.482,14.109h3.654c0,0,0.959-2.627,1.107-3.035c0.441,0,4.404,0,4.838,0
					c0.152,0.399,1.168,3.035,1.168,3.035h3.729l-5.641-14.109H87.905z M90.782,54.804c0.17,0.428,4.691,11.732,5.057,12.646
					c-0.645,0-1.811,0-2.146,0c-0.152-0.398-1.168-3.035-1.168-3.035h-5.852c0,0-0.959,2.629-1.105,3.035c-0.338,0-1.447,0-2.076,0
					c0.352-0.907,4.744-12.212,4.914-12.646C88.782,54.804,90.407,54.804,90.782,54.804z"/>
			</g>
			<g>
				<path class="st35" d="M87.233,62.877h4.699l-2.373-6.379L87.233,62.877z M89.567,58.615c0.4,1.077,1.076,2.898,1.313,3.531
					c-0.641,0-1.963,0-2.602,0C88.509,61.517,89.173,59.694,89.567,58.615z"/>
			</g>
		</g>
		<g>
			<g>
				<path class="st35" d="M98.636,67.816V54.548h2.697v11h6.721v2.268H98.636z"/>
			</g>
			<g>
				<path class="st35" d="M98.271,54.183v13.998h10.15v-2.998c0,0-6.068,0-6.723,0c0-0.685,0-11,0-11H98.271z M100.968,54.914
					c0,0.684,0,11,0,11s6.066,0,6.721,0c0,0.416,0,1.12,0,1.536c-0.648,0-8.039,0-8.688,0c0-0.673,0-11.863,0-12.536
					C99.462,54.914,100.507,54.914,100.968,54.914z"/>
			</g>
		</g>
	</g>
</g>
</svg>
