<?xml version="1.0" encoding="utf-8"?>
<!-- Generator: Adobe Illustrator 16.0.0, SVG Export Plug-In . SVG Version: 6.00 Build 0)  -->
<!DOCTYPE svg PUBLIC "-//W3C//DTD SVG 1.1//EN" "http://www.w3.org/Graphics/SVG/1.1/DTD/svg11.dtd">
<svg version="1.1" id="Layer_1" xmlns="http://www.w3.org/2000/svg" xmlns:xlink="http://www.w3.org/1999/xlink" x="0px" y="0px"
	 width="136.833px" height="136.833px" viewBox="0 0 136.833 136.833" style="enable-background:new 0 0 136.833 136.833;"
	 xml:space="preserve">
<style type="text/css">
<![CDATA[
	.st0{fill:#E0E0E0;}
	.st1{fill:#B41F36;}
	.st2{fill:#1A5B80;}
	.st3{fill:#862165;}
	.st4{fill:#1B7EC1;}
	.st5{fill:#EA2227;}
	.st6{fill:#EE3725;}
	.st7{fill:#EE3B3F;}
	.st8{fill-rule:evenodd;clip-rule:evenodd;fill:#E0EFFA;}
	.st9{fill-rule:evenodd;clip-rule:evenodd;fill:#E2E4D5;}
	.st10{fill:#BA6D71;}
	.st11{fill-rule:evenodd;clip-rule:evenodd;fill:#E92F30;}
	.st12{fill:#203D74;}
	.st13{fill:#F16622;}
	.st14{fill:#F16823;}
	.st15{fill:#231F20;}
	.st16{fill:#F26E21;}
	.st17{fill:#F3F2F2;}
	.st18{fill:#F4C82E;}
	.st19{fill-rule:evenodd;clip-rule:evenodd;fill:#1A5B80;}
	.st20{fill-rule:evenodd;clip-rule:evenodd;fill:#1A80AD;}
	.st21{fill:#F5E11C;}
	.st22{fill:#27ADE4;}
	.st23{fill-rule:evenodd;clip-rule:evenodd;fill:#EA2230;}
	.st24{fill-rule:evenodd;clip-rule:evenodd;fill:#EAF3F8;}
	.st25{fill:#F7981D;}
	.st26{fill:#F7AB1B;}
	.st27{fill:#293688;}
	.st28{fill-rule:evenodd;clip-rule:evenodd;fill:#ED1C2E;}
	.st29{fill-rule:evenodd;clip-rule:evenodd;fill:#505F7C;}
	.st30{fill:#931B1D;}
	.st31{fill:#2D78BC;}
	.st32{fill-rule:evenodd;clip-rule:evenodd;fill:#BC202A;}
	.st33{fill-rule:evenodd;clip-rule:evenodd;}
	.st34{fill:#FFDF1B;}
	.st35{fill:#FFFFFF;}
	.st36{fill-rule:evenodd;clip-rule:evenodd;fill:#231F20;}
	.st37{fill:#65B1E2;}
	.st38{fill-rule:evenodd;clip-rule:evenodd;fill:#F4C82E;}
	.st39{fill:#9A847A;}
	.st40{fill:#CA3092;}
	.st41{fill:#CB2026;}
	.st42{fill:#686969;}
	.st43{fill-rule:evenodd;clip-rule:evenodd;fill:#F7981D;}
	.st44{fill:#CC1B69;}
	.st45{fill:#305499;}
	.st46{fill:#329947;}
	.st47{fill:#6BB745;}
	.st48{fill:#003473;}
	.st49{fill:#00529E;}
	.st50{fill:#005595;}
	.st51{fill:#005B84;}
	.st52{fill:#005E88;}
	.st53{fill:#0063A6;}
	.st54{fill:#008061;}
	.st55{fill:#0095C3;}
	.st56{fill:#009DA5;}
	.st57{fill:#00A051;}
	.st58{fill:#D0D1D1;}
	.st59{fill-rule:evenodd;clip-rule:evenodd;fill:#FFFFFF;}
	.st60{fill:#D19EA0;}
	.st61{fill:#0356A2;}
	.st62{fill:#D29EA1;}
	.st63{fill:#0468B2;}
	.st64{fill:#D32259;}
	.st65{fill:#055D77;}
	.st66{fill-rule:evenodd;clip-rule:evenodd;fill:#65B1E2;}
	.st67{fill:#0683C2;}
	.st68{fill:#0872B9;}
	.st69{fill:#3C80AD;}
	.st70{fill-rule:evenodd;clip-rule:evenodd;fill:#32357F;}
	.st71{fill:#A23C42;}
	.st72{fill:#0B161F;}
	.st73{fill:#0C4875;}
	.st74{fill:#0F549D;}
	.st75{fill-rule:evenodd;clip-rule:evenodd;fill:#005595;}
	.st76{fill-rule:evenodd;clip-rule:evenodd;fill:#009DDD;}
	.st77{fill:#DEBBBC;}
	.st78{fill:#43567E;}
	.st79{fill-rule:evenodd;clip-rule:evenodd;fill:#D2D2D2;}
]]>
</style>
<g>
	<g>
		<g>
			<circle class="st57" cx="68.416" cy="68.417" r="63.333"/>
		</g>
	</g>
	<g>
		<g>
			<path class="st57" d="M121.938,102.257c6.203-9.792,9.811-21.392,9.811-33.84c0-34.98-28.355-63.334-63.334-63.334
				c-34.977,0-63.332,28.354-63.332,63.334c0,12.448,3.605,24.048,9.809,33.84h4.619H121.938z"/>
		</g>
		<g>
			<path class="st15" d="M57.968,70.917c1.299,2.651,3.033,5.087,5.109,7.188l6.549-6.579c-1.387-1.382-2.549-2.994-3.414-4.752
				s-1.434-3.662-1.674-5.605c-0.242-1.945-0.158-3.93,0.248-5.847c0.404-1.917,1.133-3.765,2.141-5.448
				c1.008-1.682,2.293-3.2,3.914-4.52c1.621-1.318,3.576-2.439,5.67-3.163s4.328-1.05,6.547-0.966s4.42,0.579,6.461,1.454
				c2.037,0.875,3.916,2.131,5.506,3.676l6.502-6.523c-2.408-2.408-5.268-4.367-8.391-5.729c-3.119-1.359-6.502-2.121-9.908-2.236
				c-3.404-0.113-6.83,0.42-10.025,1.58c-3.193,1.158-6.156,2.942-8.58,5c-2.424,2.057-4.311,4.387-5.783,6.951
				c-1.471,2.565-2.525,5.365-3.104,8.262c-0.58,2.895-0.684,5.885-0.305,8.813S56.669,68.266,57.968,70.917z"/>
		</g>
		<g>
			<path class="st35" d="M58.479,93.004c3.393,0.105,6.805-0.436,10.002-1.574c2.549-0.917,4.961-2.212,7.131-3.835
				c2.168-1.622,4.092-3.572,5.686-5.763s2.855-4.621,3.736-7.182c1.076-3.156,1.566-6.516,1.43-9.848
				c-0.139-3.333-0.904-6.64-2.252-9.693c-1.344-3.052-3.266-5.85-5.621-8.211l-6.506,6.523c1.332,1.381,2.451,2.972,3.291,4.698
				c0.838,1.727,1.398,3.587,1.654,5.489c0.256,1.904,0.209,3.847-0.15,5.73c-0.359,1.882-1.029,3.703-1.848,5.254
				c-0.818,1.552-1.787,2.834-2.906,3.965s-2.389,2.111-3.768,2.9s-2.867,1.387-4.408,1.775c-2,0.5-4.086,0.664-6.141,0.475
				c-2.053-0.188-4.074-0.729-5.947-1.591c-1.873-0.861-3.6-2.044-5.084-3.476l-6.563,6.474c2.41,2.39,5.268,4.332,8.385,5.681
				C51.714,92.145,55.087,92.899,58.479,93.004z"/>
		</g>
		<g>
			<path class="st15" d="M68.415,131.75c22.529,0,42.297-11.773,53.523-29.493H19.511h-4.619
				C26.12,119.977,45.886,131.75,68.415,131.75z"/>
		</g>
	</g>
	<g>
		<path class="st59" d="M44.364,108.704l-1.684,0.056l0,0c0.113-0.56,0.156-1.144-0.439-1.622c-0.678-0.482-1.33-0.488-1.973-0.449
			c-0.393,0.029-0.842,0.146-1.15,0.266c-0.146,0.057-0.242,0.105-0.332,0.164s-0.176,0.126-0.252,0.201
			c-0.49,0.504-0.479,1.012-0.197,1.424c0.137,0.164,0.281,0.232,0.42,0.271l0,0l3.057,0.805l0,0
			c0.447,0.131,0.963,0.355,1.311,0.768c0.148,0.174,0.268,0.375,0.344,0.592c0.201,0.58,0.113,1.16-0.088,1.695
			c-0.184,0.475-0.598,1.043-1.068,1.473c-0.162,0.148-0.334,0.283-0.559,0.432c-0.223,0.147-0.498,0.307-0.787,0.439
			c-0.922,0.428-1.846,0.539-2.689,0.532c-0.561-0.003-1.178-0.063-1.662-0.167c-0.236-0.049-0.422-0.108-0.602-0.188
			c-0.178-0.08-0.348-0.179-0.504-0.297c-0.156-0.115-0.299-0.251-0.416-0.381c-0.729-0.861-0.857-1.844-0.564-2.678l0,0
			l1.932-0.203l0,0c-0.029,0.129-0.049,0.262-0.061,0.395c-0.027,0.512-0.064,1.039,0.357,1.504
			c0.232,0.227,0.402,0.332,0.689,0.432c0.115,0.039,0.268,0.079,0.422,0.109c0.475,0.092,0.949,0.07,1.424-0.016
			c0.625-0.138,1.264-0.309,1.85-0.915c0.402-0.53,0.553-1.074,0.258-1.54c-0.195-0.28-0.344-0.32-0.514-0.373l0,0l-2.594-0.617l0,0
			c-0.541-0.154-1.084-0.244-1.566-0.711c-0.125-0.119-0.234-0.254-0.328-0.398c-0.15-0.238-0.256-0.508-0.305-0.785
			c-0.098-0.559,0.031-1.125,0.371-1.633c0.17-0.255,0.387-0.505,0.627-0.728c0.242-0.222,0.51-0.417,0.793-0.579
			c0.285-0.16,0.59-0.291,0.957-0.401c0.367-0.109,0.801-0.202,1.238-0.247c0.875-0.09,1.77,0.004,2.607,0.271
			c0.273,0.081,0.531,0.21,0.76,0.382c0.227,0.171,0.424,0.385,0.574,0.625c0.154,0.24,0.262,0.509,0.318,0.788
			C44.438,107.836,44.444,108.276,44.364,108.704L44.364,108.704L44.364,108.704L44.364,108.704z"/>
	</g>
	<g>
		<polygon class="st59" points="54.757,115.561 54.089,108.233 49.491,115.561 47.851,115.561 47.274,105.59 49.062,105.59 
			49.403,112.647 53.903,105.59 55.587,105.59 56.2,112.801 60.595,105.59 62.538,105.59 56.372,115.561 54.757,115.561 
			54.757,115.561 		"/>
	</g>
	<g>
		<polygon class="st59" points="64.216,115.561 62.315,115.561 65.077,105.603 66.884,105.603 64.216,115.561 64.216,115.561 		"/>
	</g>
	<g>
		<polygon class="st59" points="77.573,107.163 74.362,107.163 72.114,115.569 70.245,115.569 72.505,107.163 69.2,107.163 
			69.646,105.603 77.995,105.61 77.573,107.163 77.573,107.163 		"/>
	</g>
	<g>
		<path class="st59" d="M89.245,108.716l-1.746,0.223l0,0c-0.063-0.571-0.184-1.176-0.797-1.677
			c-0.102-0.078-0.213-0.144-0.348-0.205c-0.133-0.063-0.287-0.121-0.445-0.17c-0.158-0.047-0.318-0.084-0.482-0.111
			c-1.049-0.148-2.09,0.038-3.021,0.635c-0.264,0.172-0.512,0.371-0.734,0.597c-0.221,0.224-0.418,0.474-0.586,0.739
			c-0.377,0.559-0.65,1.133-0.844,1.707c-0.186,0.568-0.305,1.105-0.297,1.542c0.002,0.409,0.09,0.823,0.262,1.208
			c0.131,0.271,0.328,0.537,0.633,0.758c0.137,0.097,0.283,0.174,0.453,0.244c0.168,0.069,0.357,0.129,0.551,0.17
			c0.813,0.188,1.719,0.033,2.49-0.301c0.43-0.182,0.914-0.499,1.387-0.919c0.244-0.221,0.471-0.462,0.676-0.72
			c0.205-0.259,0.387-0.533,0.545-0.823l0,0l1.697,0.26l0,0c-0.225,0.448-0.494,0.872-0.805,1.265
			c-0.313,0.391-0.664,0.75-1.049,1.071s-0.803,0.601-1.295,0.851c-0.494,0.248-1.063,0.463-1.65,0.598s-1.195,0.189-1.797,0.158
			c-0.602-0.032-1.197-0.148-1.605-0.262c-0.406-0.114-0.625-0.223-0.83-0.355c-0.203-0.131-0.393-0.285-0.561-0.459
			s-0.316-0.367-0.451-0.6c-0.137-0.234-0.258-0.506-0.352-0.789c-0.191-0.584-0.221-1.189-0.156-1.76
			c0.16-1.344,0.662-2.729,1.811-4.017c0.205-0.229,0.426-0.444,0.674-0.651c0.25-0.207,0.525-0.405,0.816-0.58
			c0.973-0.581,1.939-0.817,2.879-0.91c0.656-0.066,1.377-0.033,1.953,0.058c0.283,0.046,0.518,0.103,0.744,0.183
			c0.227,0.078,0.447,0.176,0.656,0.294c0.396,0.22,0.828,0.554,1.17,1.073c0.162,0.244,0.281,0.517,0.359,0.801
			C89.226,108.125,89.257,108.422,89.245,108.716L89.245,108.716L89.245,108.716L89.245,108.716z"/>
	</g>
	<g>
		<polygon class="st59" points="99.594,115.623 97.719,115.623 98.975,111.183 93.385,111.177 92.184,115.623 90.314,115.623 
			93,105.664 94.889,105.664 93.85,109.635 99.408,109.635 100.498,105.664 102.25,105.664 99.594,115.623 99.594,115.623 		"/>
	</g>
</g>
</svg>
