<?xml version="1.0" encoding="utf-8"?>
<!-- Generator: Adobe Illustrator 16.0.0, SVG Export Plug-In . SVG Version: 6.00 Build 0)  -->
<!DOCTYPE svg PUBLIC "-//W3C//DTD SVG 1.1//EN" "http://www.w3.org/Graphics/SVG/1.1/DTD/svg11.dtd">
<svg version="1.1" id="Layer_1" xmlns="http://www.w3.org/2000/svg" xmlns:xlink="http://www.w3.org/1999/xlink" x="0px" y="0px"
	 width="136.833px" height="136.834px" viewBox="0 0 136.833 136.834" style="enable-background:new 0 0 136.833 136.834;"
	 xml:space="preserve">
<style type="text/css">
<![CDATA[
	.st0{fill:#E0E0E0;}
	.st1{fill:#B41F36;}
	.st2{fill:#1A5B80;}
	.st3{fill:#862165;}
	.st4{fill:#1B7EC1;}
	.st5{fill:#EA2227;}
	.st6{fill:#EE3725;}
	.st7{fill:#EE3B3F;}
	.st8{fill-rule:evenodd;clip-rule:evenodd;fill:#E0EFFA;}
	.st9{fill-rule:evenodd;clip-rule:evenodd;fill:#E2E4D5;}
	.st10{fill:#BA6D71;}
	.st11{fill-rule:evenodd;clip-rule:evenodd;fill:#E92F30;}
	.st12{fill:#203D74;}
	.st13{fill:#F16622;}
	.st14{fill:#F16823;}
	.st15{fill:#231F20;}
	.st16{fill:#F26E21;}
	.st17{fill:#F3F2F2;}
	.st18{fill:#F4C82E;}
	.st19{fill-rule:evenodd;clip-rule:evenodd;fill:#1A5B80;}
	.st20{fill-rule:evenodd;clip-rule:evenodd;fill:#1A80AD;}
	.st21{fill:#F5E11C;}
	.st22{fill:#27ADE4;}
	.st23{fill-rule:evenodd;clip-rule:evenodd;fill:#EA2230;}
	.st24{fill-rule:evenodd;clip-rule:evenodd;fill:#EAF3F8;}
	.st25{fill:#F7981D;}
	.st26{fill:#F7AB1B;}
	.st27{fill:#293688;}
	.st28{fill-rule:evenodd;clip-rule:evenodd;fill:#ED1C2E;}
	.st29{fill-rule:evenodd;clip-rule:evenodd;fill:#505F7C;}
	.st30{fill:#931B1D;}
	.st31{fill:#2D78BC;}
	.st32{fill-rule:evenodd;clip-rule:evenodd;fill:#BC202A;}
	.st33{fill-rule:evenodd;clip-rule:evenodd;}
	.st34{fill:#FFDF1B;}
	.st35{fill:#FFFFFF;}
	.st36{fill-rule:evenodd;clip-rule:evenodd;fill:#231F20;}
	.st37{fill:#65B1E2;}
	.st38{fill-rule:evenodd;clip-rule:evenodd;fill:#F4C82E;}
	.st39{fill:#9A847A;}
	.st40{fill:#CA3092;}
	.st41{fill:#CB2026;}
	.st42{fill:#686969;}
	.st43{fill-rule:evenodd;clip-rule:evenodd;fill:#F7981D;}
	.st44{fill:#CC1B69;}
	.st45{fill:#305499;}
	.st46{fill:#329947;}
	.st47{fill:#6BB745;}
	.st48{fill:#003473;}
	.st49{fill:#00529E;}
	.st50{fill:#005595;}
	.st51{fill:#005B84;}
	.st52{fill:#005E88;}
	.st53{fill:#0063A6;}
	.st54{fill:#008061;}
	.st55{fill:#0095C3;}
	.st56{fill:#009DA5;}
	.st57{fill:#00A051;}
	.st58{fill:#D0D1D1;}
	.st59{fill-rule:evenodd;clip-rule:evenodd;fill:#FFFFFF;}
	.st60{fill:#D19EA0;}
	.st61{fill:#0356A2;}
	.st62{fill:#D29EA1;}
	.st63{fill:#0468B2;}
	.st64{fill:#D32259;}
	.st65{fill:#055D77;}
	.st66{fill-rule:evenodd;clip-rule:evenodd;fill:#65B1E2;}
	.st67{fill:#0683C2;}
	.st68{fill:#0872B9;}
	.st69{fill:#3C80AD;}
	.st70{fill-rule:evenodd;clip-rule:evenodd;fill:#32357F;}
	.st71{fill:#A23C42;}
	.st72{fill:#0B161F;}
	.st73{fill:#0C4875;}
	.st74{fill:#0F549D;}
	.st75{fill-rule:evenodd;clip-rule:evenodd;fill:#005595;}
	.st76{fill-rule:evenodd;clip-rule:evenodd;fill:#009DDD;}
	.st77{fill:#DEBBBC;}
	.st78{fill:#43567E;}
	.st79{fill-rule:evenodd;clip-rule:evenodd;fill:#D2D2D2;}
]]>
</style>
<g>
	<g>
		<g>
			<circle class="st22" cx="68.417" cy="68.417" r="63.333"/>
		</g>
	</g>
	<g>
		<g>
			<g>
				<path class="st31" d="M26.7,57.136l-1.977-4.881l-1.965,4.881 M70.227,55.192c-0.397,0.245-0.866,0.253-1.428,0.253h-3.508
					v-2.719h3.555c0.503,0,1.028,0.021,1.369,0.219c0.374,0.18,0.605,0.56,0.605,1.084C70.821,54.563,70.6,54.994,70.227,55.192
					 M95.244,57.136l-1.997-4.881l-1.986,4.881H95.244z M48.61,62.419h-2.96l-0.011-9.59l-4.186,9.59h-2.535l-4.196-9.598v9.598
					H28.85l-1.109-2.731h-6.01l-1.121,2.731h-3.135l5.169-12.244h4.29l4.909,11.592V50.175h4.711l3.778,8.306l3.47-8.306h4.808
					V62.419L48.61,62.419z M60.405,62.419h-9.644V50.175h9.644v2.551h-6.756v2.207h6.594v2.51h-6.594v2.442h6.756V62.419z
					 M74.002,53.474c0,1.95-1.286,2.961-2.035,3.262c0.632,0.245,1.172,0.675,1.428,1.033c0.408,0.607,0.479,1.152,0.479,2.244
					v2.406h-2.912l-0.011-1.544c0-0.737,0.069-1.798-0.456-2.386c-0.422-0.43-1.064-0.524-2.104-0.524h-3.1v4.454h-2.887V50.175
					h6.641c1.476,0,2.563,0.039,3.495,0.586C73.454,51.31,74.002,52.107,74.002,53.474 M78.622,62.419h-2.945V50.176h2.945V62.419z
					 M112.793,62.419h-4.092l-5.471-9.19v9.19h-5.88l-1.122-2.731h-5.997l-1.091,2.731h-3.378c-1.402,0-3.18-0.315-4.186-1.355
					c-1.015-1.039-1.542-2.447-1.542-4.674c0-1.814,0.314-3.477,1.557-4.786c0.933-0.978,2.395-1.429,4.384-1.429h2.794v2.623
					h-2.736c-1.053,0-1.647,0.159-2.221,0.726c-0.492,0.517-0.83,1.491-0.83,2.774c0,1.311,0.258,2.257,0.795,2.874
					c0.443,0.485,1.251,0.632,2.011,0.632h1.296l4.069-9.628h4.326l4.887,11.581V50.176h4.396l5.074,8.526v-8.526h2.957V62.419z
					 M17.442,64.824h4.932l1.112-2.72h2.489l1.109,2.72h9.705v-2.079l0.867,2.087h5.037l0.866-2.118v2.11h24.118l-0.012-4.465h0.467
					c0.327,0.012,0.422,0.043,0.422,0.59v3.875h12.474v-1.039c1.007,0.547,2.572,1.039,4.632,1.039h5.247l1.123-2.72h2.49
					l1.098,2.72h10.112V62.24l1.532,2.584h8.104V47.748h-8.021v2.017l-1.122-2.017h-8.23v2.017l-1.03-2.017H85.846
					c-1.859,0-3.495,0.264-4.817,0.997v-0.997h-7.671v0.997c-0.84-0.756-1.985-0.997-3.26-0.997H42.073l-1.88,4.41l-1.931-4.41
					h-8.828v2.017l-0.97-2.017h-7.527l-3.497,8.119l-4.009,8.957H17.442z"/>
			</g>
			<g>
				<path class="st35" d="M26.7,58.136l-1.977-4.881l-1.965,4.881 M70.227,56.192c-0.397,0.245-0.866,0.253-1.428,0.253h-3.508
					v-2.719h3.555c0.503,0,1.028,0.021,1.369,0.219c0.374,0.18,0.605,0.56,0.605,1.084C70.821,55.563,70.6,55.994,70.227,56.192
					 M95.244,58.136l-1.997-4.881l-1.986,4.881H95.244z M48.61,63.419h-2.96l-0.011-9.59l-4.186,9.59h-2.535l-4.196-9.598v9.598
					H28.85l-1.109-2.731h-6.01l-1.121,2.731h-3.135l5.169-12.244h4.29l4.909,11.592V51.175h4.711l3.778,8.306l3.47-8.306h4.808
					V63.419L48.61,63.419z M60.405,63.419h-9.644V51.175h9.644v2.551h-6.756v2.207h6.594v2.51h-6.594v2.442h6.756V63.419z
					 M74.002,54.474c0,1.95-1.286,2.961-2.035,3.262c0.632,0.245,1.172,0.675,1.428,1.033c0.408,0.607,0.479,1.152,0.479,2.244
					v2.406h-2.912l-0.011-1.544c0-0.737,0.069-1.798-0.456-2.386c-0.422-0.43-1.064-0.524-2.104-0.524h-3.1v4.454h-2.887V51.175
					h6.641c1.476,0,2.563,0.039,3.495,0.586C73.454,52.31,74.002,53.107,74.002,54.474 M78.622,63.419h-2.945V51.176h2.945V63.419z
					 M112.793,63.419h-4.092l-5.471-9.19v9.19h-5.88l-1.122-2.731h-5.997l-1.091,2.731h-3.378c-1.402,0-3.18-0.315-4.186-1.355
					c-1.015-1.039-1.542-2.447-1.542-4.674c0-1.814,0.314-3.477,1.557-4.786c0.933-0.978,2.395-1.429,4.384-1.429h2.794v2.623
					h-2.736c-1.053,0-1.647,0.159-2.221,0.726c-0.492,0.517-0.83,1.491-0.83,2.774c0,1.311,0.258,2.257,0.795,2.874
					c0.443,0.485,1.251,0.632,2.011,0.632h1.296l4.069-9.628h4.326l4.887,11.581V51.176h4.396l5.074,8.526v-8.526h2.957V63.419z
					 M17.442,65.824h4.932l1.112-2.72h2.489l1.109,2.72h9.705v-2.079l0.867,2.087h5.037l0.866-2.118v2.11h24.118l-0.012-4.465h0.467
					c0.327,0.012,0.422,0.043,0.422,0.59v3.875h12.474v-1.039c1.007,0.547,2.572,1.039,4.632,1.039h5.247l1.123-2.72h2.49
					l1.098,2.72h10.112V63.24l1.532,2.584h8.104V48.748h-8.021v2.017l-1.122-2.017h-8.23v2.017l-1.03-2.017H85.846
					c-1.859,0-3.495,0.264-4.817,0.997v-0.997h-7.671v0.997c-0.84-0.756-1.985-0.997-3.26-0.997H42.073l-1.88,4.41l-1.931-4.41
					h-8.828v2.017l-0.97-2.017h-7.527l-3.497,8.119l-4.009,8.957H17.442z"/>
			</g>
		</g>
		<g>
			<g>
				<path class="st31" d="M121.842,76.369v-7.834h-1.998l0,0h-5.234c-1.613,0-2.786,0.391-3.615,0.998v-0.998h-7.906
					c-1.264,0-2.749,0.316-3.449,0.998v-0.998H85.52v0.998c-1.123-0.82-3.02-0.998-3.894-0.998h-9.313v0.998
					c-0.889-0.871-2.865-0.998-4.07-0.998H57.821l-2.385,2.613l-2.234-2.613H37.633v17.074h15.275l2.458-2.654l2.314,2.654
					l9.417,0.01v-4.018h0.925c1.249,0.02,2.722-0.031,4.022-0.6v4.607h7.767v-4.451h0.376c0.478,0,0.524,0.021,0.524,0.504v3.947
					h23.592c1.499,0,3.065-0.389,3.933-1.092v1.092h7.482c1.558,0,3.079-0.221,4.236-0.787v-0.018c1.69-1.09,2.814-3,2.814-5.18
					C122.77,78.427,122.428,77.312,121.842,76.369z M68.151,79.101h-3.604v4.105h-5.613l-3.557-4.052l-3.695,4.052H40.241V70.968
					h11.617l3.553,4.011l3.674-4.011h9.229c2.291,0,4.866,0.643,4.866,4.031C73.18,78.4,70.675,79.101,68.151,79.101z
					 M85.532,78.546c0.408,0.597,0.467,1.154,0.479,2.234v2.426h-2.898v-1.531c0-0.736,0.069-1.826-0.468-2.396
					c-0.423-0.438-1.064-0.544-2.119-0.544h-3.087v4.471h-2.901V70.968h6.668c1.462,0,2.526,0.065,3.475,0.578
					c0.912,0.557,1.485,1.32,1.485,2.717c0,1.953-1.287,2.951-2.047,3.256C84.759,77.759,85.286,78.189,85.532,78.546z M97.405,73.5
					h-6.764v2.225h6.599v2.497h-6.599v2.435l6.764,0.012v2.539h-9.639V70.968h9.639V73.5z M104.76,83.207h-5.625v-2.625h5.604
					c0.548,0,0.936-0.072,1.18-0.304c0.197-0.188,0.341-0.464,0.341-0.796c0-0.357-0.154-0.641-0.353-0.811
					c-0.222-0.188-0.525-0.271-1.028-0.271c-2.701-0.092-6.084,0.084-6.084-3.789c0-1.775,1.102-3.643,4.129-3.643h5.791v2.605
					h-5.298c-0.525,0-0.867,0.02-1.158,0.22c-0.315,0.199-0.434,0.492-0.434,0.882c0,0.461,0.27,0.775,0.632,0.912
					c0.306,0.106,0.632,0.137,1.124,0.137l1.556,0.045c1.567,0.037,2.644,0.313,3.298,0.983c0.563,0.588,0.863,1.332,0.863,2.591
					C109.297,81.977,107.674,83.207,104.76,83.207z M119.625,82.025c-0.761,0.779-1.988,1.182-3.589,1.182h-5.578v-2.625h5.555
					c0.552,0,0.938-0.072,1.17-0.304c0.201-0.188,0.341-0.464,0.341-0.796c0-0.357-0.14-0.641-0.353-0.811
					c-0.209-0.188-0.514-0.271-1.018-0.271c-2.712-0.092-6.095,0.084-6.095-3.789c0-1.775,1.112-3.643,4.144-3.643h5.643v2.604
					h-5.153c-0.524,0-0.874,0.021-1.169,0.221c-0.305,0.198-0.422,0.492-0.422,0.88c0,0.463,0.257,0.775,0.632,0.912
					c0.306,0.108,0.632,0.139,1.112,0.139l1.565,0.043c1.58,0.039,2.635,0.314,3.276,0.985c0.117,0.093,0.188,0.198,0.27,0.302
					c-0.033-0.043-0.065-0.084-0.099-0.127c0.5,0.67,0.801,1.503,0.801,2.408C120.658,80.373,120.263,81.314,119.625,82.025z
					 M50.359,73.5l3.16,3.566l-3.3,3.59h-7.102v-2.435h6.341v-2.497h-6.341V73.5H50.359z M57.237,77.108l4.435-4.825v9.811
					L57.237,77.108z M70.081,75c0,1.061-0.691,1.616-1.801,1.616h-3.732V73.5h3.767C69.356,73.5,70.081,73.929,70.081,75z
					 M82.971,74.822c0,0.523-0.224,0.945-0.599,1.174c-0.386,0.232-0.864,0.252-1.425,0.252h-3.51V73.5h3.556
					c0.515,0,1.03,0.011,1.379,0.221C82.748,73.918,82.971,74.297,82.971,74.822z"/>
			</g>
			<g>
				<path class="st35" d="M121.842,77.369v-7.834h-1.998l0,0h-5.234c-1.613,0-2.786,0.391-3.615,0.998v-0.998h-7.906
					c-1.264,0-2.749,0.316-3.449,0.998v-0.998H85.52v0.998c-1.123-0.82-3.02-0.998-3.894-0.998h-9.313v0.998
					c-0.889-0.871-2.865-0.998-4.07-0.998H57.821l-2.385,2.613l-2.234-2.613H37.633v17.074h15.275l2.458-2.654l2.314,2.654
					l9.417,0.01v-4.018h0.925c1.249,0.02,2.722-0.031,4.022-0.6v4.607h7.767v-4.451h0.376c0.478,0,0.524,0.021,0.524,0.504v3.947
					h23.592c1.499,0,3.065-0.389,3.933-1.092v1.092h7.482c1.558,0,3.079-0.221,4.236-0.787v-0.018c1.69-1.09,2.814-3,2.814-5.18
					C122.77,79.427,122.428,78.312,121.842,77.369z M68.151,80.101h-3.604v4.105h-5.613l-3.557-4.052l-3.695,4.052H40.241V71.968
					h11.617l3.553,4.011l3.674-4.011h9.229c2.291,0,4.866,0.643,4.866,4.031C73.18,79.4,70.675,80.101,68.151,80.101z
					 M85.532,79.546c0.408,0.597,0.467,1.154,0.479,2.234v2.426h-2.898v-1.531c0-0.736,0.069-1.826-0.468-2.396
					c-0.423-0.438-1.064-0.544-2.119-0.544h-3.087v4.471h-2.901V71.968h6.668c1.462,0,2.526,0.065,3.475,0.578
					c0.912,0.557,1.485,1.32,1.485,2.717c0,1.953-1.287,2.951-2.047,3.256C84.759,78.759,85.286,79.189,85.532,79.546z M97.405,74.5
					h-6.764v2.225h6.599v2.497h-6.599v2.435l6.764,0.012v2.539h-9.639V71.968h9.639V74.5z M104.76,84.207h-5.625v-2.625h5.604
					c0.548,0,0.936-0.072,1.18-0.304c0.197-0.188,0.341-0.464,0.341-0.796c0-0.357-0.154-0.641-0.353-0.811
					c-0.222-0.188-0.525-0.271-1.028-0.271c-2.701-0.092-6.084,0.084-6.084-3.789c0-1.775,1.102-3.643,4.129-3.643h5.791v2.605
					h-5.298c-0.525,0-0.867,0.02-1.158,0.22c-0.315,0.199-0.434,0.492-0.434,0.882c0,0.461,0.27,0.775,0.632,0.912
					c0.306,0.106,0.632,0.137,1.124,0.137l1.556,0.045c1.567,0.037,2.644,0.313,3.298,0.983c0.563,0.588,0.863,1.332,0.863,2.591
					C109.297,82.977,107.674,84.207,104.76,84.207z M119.625,83.025c-0.761,0.779-1.988,1.182-3.589,1.182h-5.578v-2.625h5.555
					c0.552,0,0.938-0.072,1.17-0.304c0.201-0.188,0.341-0.464,0.341-0.796c0-0.357-0.14-0.641-0.353-0.811
					c-0.209-0.188-0.514-0.271-1.018-0.271c-2.712-0.092-6.095,0.084-6.095-3.789c0-1.775,1.112-3.643,4.144-3.643h5.643v2.604
					h-5.153c-0.524,0-0.874,0.021-1.169,0.221c-0.305,0.198-0.422,0.492-0.422,0.88c0,0.463,0.257,0.775,0.632,0.912
					c0.306,0.108,0.632,0.139,1.112,0.139l1.565,0.043c1.58,0.039,2.635,0.314,3.276,0.985c0.117,0.093,0.188,0.198,0.27,0.302
					c-0.033-0.043-0.065-0.084-0.099-0.127c0.5,0.67,0.801,1.503,0.801,2.408C120.658,81.373,120.263,82.314,119.625,83.025z
					 M50.359,74.5l3.16,3.566l-3.3,3.59h-7.102v-2.435h6.341v-2.497h-6.341V74.5H50.359z M57.237,78.108l4.435-4.825v9.811
					L57.237,78.108z M70.081,76c0,1.061-0.691,1.616-1.801,1.616h-3.732V74.5h3.767C69.356,74.5,70.081,74.929,70.081,76z
					 M82.971,75.822c0,0.523-0.224,0.945-0.599,1.174c-0.386,0.232-0.864,0.252-1.425,0.252h-3.51V74.5h3.556
					c0.515,0,1.03,0.011,1.379,0.221C82.748,74.918,82.971,75.297,82.971,75.822z"/>
			</g>
		</g>
	</g>
</g>
</svg>
