<?xml version="1.0" encoding="utf-8"?>
<!-- Generator: Adobe Illustrator 16.0.0, SVG Export Plug-In . SVG Version: 6.00 Build 0)  -->
<!DOCTYPE svg PUBLIC "-//W3C//DTD SVG 1.1//EN" "http://www.w3.org/Graphics/SVG/1.1/DTD/svg11.dtd">
<svg version="1.1" id="Layer_1" xmlns="http://www.w3.org/2000/svg" xmlns:xlink="http://www.w3.org/1999/xlink" x="0px" y="0px"
	 width="136.833px" height="136.833px" viewBox="0 0 136.833 136.833" style="enable-background:new 0 0 136.833 136.833;"
	 xml:space="preserve">
<style type="text/css">
<![CDATA[
	.st0{fill:#E0E0E0;}
	.st1{fill:#B41F36;}
	.st2{fill:#1A5B80;}
	.st3{fill:#862165;}
	.st4{fill:#1B7EC1;}
	.st5{fill:#EA2227;}
	.st6{fill:#EE3725;}
	.st7{fill:#EE3B3F;}
	.st8{fill-rule:evenodd;clip-rule:evenodd;fill:#E0EFFA;}
	.st9{fill-rule:evenodd;clip-rule:evenodd;fill:#E2E4D5;}
	.st10{fill:#BA6D71;}
	.st11{fill-rule:evenodd;clip-rule:evenodd;fill:#E92F30;}
	.st12{fill:#203D74;}
	.st13{fill:#F16622;}
	.st14{fill:#F16823;}
	.st15{fill:#231F20;}
	.st16{fill:#F26E21;}
	.st17{fill:#F3F2F2;}
	.st18{fill:#F4C82E;}
	.st19{fill-rule:evenodd;clip-rule:evenodd;fill:#1A5B80;}
	.st20{fill-rule:evenodd;clip-rule:evenodd;fill:#1A80AD;}
	.st21{fill:#F5E11C;}
	.st22{fill:#27ADE4;}
	.st23{fill-rule:evenodd;clip-rule:evenodd;fill:#EA2230;}
	.st24{fill-rule:evenodd;clip-rule:evenodd;fill:#EAF3F8;}
	.st25{fill:#F7981D;}
	.st26{fill:#F7AB1B;}
	.st27{fill:#293688;}
	.st28{fill-rule:evenodd;clip-rule:evenodd;fill:#ED1C2E;}
	.st29{fill-rule:evenodd;clip-rule:evenodd;fill:#505F7C;}
	.st30{fill:#931B1D;}
	.st31{fill:#2D78BC;}
	.st32{fill-rule:evenodd;clip-rule:evenodd;fill:#BC202A;}
	.st33{fill-rule:evenodd;clip-rule:evenodd;}
	.st34{fill:#FFDF1B;}
	.st35{fill:#FFFFFF;}
	.st36{fill-rule:evenodd;clip-rule:evenodd;fill:#231F20;}
	.st37{fill:#65B1E2;}
	.st38{fill-rule:evenodd;clip-rule:evenodd;fill:#F4C82E;}
	.st39{fill:#9A847A;}
	.st40{fill:#CA3092;}
	.st41{fill:#CB2026;}
	.st42{fill:#686969;}
	.st43{fill-rule:evenodd;clip-rule:evenodd;fill:#F7981D;}
	.st44{fill:#CC1B69;}
	.st45{fill:#305499;}
	.st46{fill:#329947;}
	.st47{fill:#6BB745;}
	.st48{fill:#003473;}
	.st49{fill:#00529E;}
	.st50{fill:#005595;}
	.st51{fill:#005B84;}
	.st52{fill:#005E88;}
	.st53{fill:#0063A6;}
	.st54{fill:#008061;}
	.st55{fill:#0095C3;}
	.st56{fill:#009DA5;}
	.st57{fill:#00A051;}
	.st58{fill:#D0D1D1;}
	.st59{fill-rule:evenodd;clip-rule:evenodd;fill:#FFFFFF;}
	.st60{fill:#D19EA0;}
	.st61{fill:#0356A2;}
	.st62{fill:#D29EA1;}
	.st63{fill:#0468B2;}
	.st64{fill:#D32259;}
	.st65{fill:#055D77;}
	.st66{fill-rule:evenodd;clip-rule:evenodd;fill:#65B1E2;}
	.st67{fill:#0683C2;}
	.st68{fill:#0872B9;}
	.st69{fill:#3C80AD;}
	.st70{fill-rule:evenodd;clip-rule:evenodd;fill:#32357F;}
	.st71{fill:#A23C42;}
	.st72{fill:#0B161F;}
	.st73{fill:#0C4875;}
	.st74{fill:#0F549D;}
	.st75{fill-rule:evenodd;clip-rule:evenodd;fill:#005595;}
	.st76{fill-rule:evenodd;clip-rule:evenodd;fill:#009DDD;}
	.st77{fill:#DEBBBC;}
	.st78{fill:#43567E;}
	.st79{fill-rule:evenodd;clip-rule:evenodd;fill:#D2D2D2;}
]]>
</style>
<g>
	<g>
		<g>
			<circle class="st54" cx="68.416" cy="68.417" r="63.333"/>
		</g>
	</g>
	<g>
		<path class="st9" d="M119.462,64.535c0-4.367-3.391-12.517-14.355-12.55c-4.756-0.015-8.34,2.084-9.988,3.466v-3.1l-7.334-0.003
			v3.103c-1.797-1.552-3.98-2.951-6.178-3.282c-2.336-0.353-4.672-0.247-7.561,0.623c-2.402,0.724-3.934,1.792-5.416,3.464
			c-3.063-3.424-7.9-4.107-11.756-4.248c-4.389-0.16-8.814,0.381-12.264,2.898c-3.324-1.698-7.525-3.032-12.188-3.006
			c-4.1,0.023-8.027,0.947-10.811,3.349c-1.004,0.866-1.453,1.554-1.951,2.782c-0.984,2.434-0.574,5.244,0.523,6.711
			c2.047,2.736,4.342,3.799,8.461,4.262c3.619,0.406,6.152,0.408,8.83,0.901c1.266,0.231,2.426,1.167,2.426,2.554
			c0,1.618-2.264,4.27-7.73,3.914c-4.555-0.296-6.275-0.938-10.559-3.722l-4.836,3.907c0,0,0.824,0.658,1.387,1.027
			c0.543,0.355,1.105,0.69,1.688,1.003h0.014c4.877,2.63,11.049,3.73,16.637,2.836c2.742-0.439,5.342-1.357,7.578-2.812
			c1.809,1.236,4.199,3.355,9.984,3.096c3.641-0.164,6.344-0.033,8.871-2.938v2.902h7.084l-0.002-2.902c0,0,1.117,0.902,1.902,1.373
			c4.498,2.697,11.652,1.677,15.883-1.54l0.01,3.755c-0.121,2.316-2.25,3.902-4.488,4.796c-3.865,1.541-7.387,0.159-10.531-2.057
			l-5.367,3.586c1.449,1.45,2.773,2.297,4.838,3.242c5.805,2.655,12.596,1.75,17.281-1.027c3.09-1.832,4.285-4.078,5.031-7.531
			c0.396-1.836,0.436-3.18,0.496-4.786l0,0c0.002-0.047,0.002-0.089,0.004-0.13c0.063,0.044,0.125,0.087,0.186,0.13
			c1.494,1.042,2.816,1.814,4.838,2.429c3.264,0.991,6.977,1.036,11.121-0.045c1.928-0.504,3.631-1.309,5.15-2.384h0.004
			c0.822-0.585,1.592-1.247,2.316-1.982l-4.629-3.293c-1.568,1.278-3.902,2.568-6.563,2.904c-3.072,0.389-6.557-0.166-8.443-2.21
			c-1.02-1.104-1.375-1.452-1.375-4.25l21.781,0.024V64.535z M73.083,66.568c0.059-1.609,0.211-3.329,0.383-5.019
			c0.084-0.824,1.08-1.819,2.48-2.583c1.271-0.692,2.877-1.193,4.436-1.201c1.186-0.007,2.402,0.217,3.479,0.632
			c1.877,0.722,3.332,2.02,3.482,3.681c0.139,1.547,0.299,3.01,0.371,4.411c0.09,1.751,0.047,3.408-0.334,5.015
			c-0.244,1.022-0.752,1.891-1.801,2.722c-1.186,0.938-3.021,1.771-5.197,1.648c-3.045-0.17-5.768-1.376-6.572-3.062
			C73.134,71.392,72.991,69.121,73.083,66.568z M60.155,75.937c-1.52,0.475-3.945,0.718-6.529,0.405
			c-2.15-0.259-4.199-0.411-5.037-2.342c-0.453-1.046-0.357-2.007,0.348-2.9c1.109-1.403,3.678-1.677,5.217-1.692h8.436
			C62.813,71.603,63.517,74.886,60.155,75.937z M35.101,63.948c-3.381-0.181-6.492-0.246-8.182-1.598
			c-0.973-0.778-0.781-3.018,0.582-3.829c1.963-1.167,4.336-1.128,5.703-1.057c2.77,0.143,5.957,1.047,8.469,2.719l2.938-2.719
			c0,0,3.102,2.84,3.102,2.719c3.617-2.518,4.895-2.523,8.264-2.521c4.607,0.004,5.93,0.898,6.607,1.91
			c0.428,0.639,0.006,4.537,0.006,4.537s-4.068,0.125-7.002-0.021c-2.33-0.117-3.635-0.126-5.979,0.256
			c-2.098,0.342-3.537,0.955-4.998,2.164c0,0-1.25-0.873-2.611-1.496C39.524,63.88,37.753,64.089,35.101,63.948z M97.851,64.453
			c0-1.756,0.461-3.162,1.219-4.254c1.514-2.18,4.213-3.114,6.809-3.109c2.555,0.006,5.188,0.923,6.754,2.92
			c0.885,1.127,1.43,2.599,1.43,4.443H97.851z"/>
	</g>
</g>
</svg>
