<?xml version="1.0" encoding="utf-8"?>
<!-- Generator: Adobe Illustrator 16.0.0, SVG Export Plug-In . SVG Version: 6.00 Build 0)  -->
<!DOCTYPE svg PUBLIC "-//W3C//DTD SVG 1.1//EN" "http://www.w3.org/Graphics/SVG/1.1/DTD/svg11.dtd">
<svg version="1.1" id="Layer_1" xmlns="http://www.w3.org/2000/svg" xmlns:xlink="http://www.w3.org/1999/xlink" x="0px" y="0px"
	 width="136.833px" height="136.833px" viewBox="0 0 136.833 136.833" style="enable-background:new 0 0 136.833 136.833;"
	 xml:space="preserve">
<style type="text/css">
<![CDATA[
	.st0{fill:#E0E0E0;}
	.st1{fill:#B41F36;}
	.st2{fill:#1A5B80;}
	.st3{fill:#862165;}
	.st4{fill:#1B7EC1;}
	.st5{fill:#EA2227;}
	.st6{fill:#EE3725;}
	.st7{fill:#EE3B3F;}
	.st8{fill-rule:evenodd;clip-rule:evenodd;fill:#E0EFFA;}
	.st9{fill-rule:evenodd;clip-rule:evenodd;fill:#E2E4D5;}
	.st10{fill:#BA6D71;}
	.st11{fill-rule:evenodd;clip-rule:evenodd;fill:#E92F30;}
	.st12{fill:#203D74;}
	.st13{fill:#F16622;}
	.st14{fill:#F16823;}
	.st15{fill:#231F20;}
	.st16{fill:#F26E21;}
	.st17{fill:#F3F2F2;}
	.st18{fill:#F4C82E;}
	.st19{fill-rule:evenodd;clip-rule:evenodd;fill:#1A5B80;}
	.st20{fill-rule:evenodd;clip-rule:evenodd;fill:#1A80AD;}
	.st21{fill:#F5E11C;}
	.st22{fill:#27ADE4;}
	.st23{fill-rule:evenodd;clip-rule:evenodd;fill:#EA2230;}
	.st24{fill-rule:evenodd;clip-rule:evenodd;fill:#EAF3F8;}
	.st25{fill:#F7981D;}
	.st26{fill:#F7AB1B;}
	.st27{fill:#293688;}
	.st28{fill-rule:evenodd;clip-rule:evenodd;fill:#ED1C2E;}
	.st29{fill-rule:evenodd;clip-rule:evenodd;fill:#505F7C;}
	.st30{fill:#931B1D;}
	.st31{fill:#2D78BC;}
	.st32{fill-rule:evenodd;clip-rule:evenodd;fill:#BC202A;}
	.st33{fill-rule:evenodd;clip-rule:evenodd;}
	.st34{fill:#FFDF1B;}
	.st35{fill:#FFFFFF;}
	.st36{fill-rule:evenodd;clip-rule:evenodd;fill:#231F20;}
	.st37{fill:#65B1E2;}
	.st38{fill-rule:evenodd;clip-rule:evenodd;fill:#F4C82E;}
	.st39{fill:#9A847A;}
	.st40{fill:#CA3092;}
	.st41{fill:#CB2026;}
	.st42{fill:#686969;}
	.st43{fill-rule:evenodd;clip-rule:evenodd;fill:#F7981D;}
	.st44{fill:#CC1B69;}
	.st45{fill:#305499;}
	.st46{fill:#329947;}
	.st47{fill:#6BB745;}
	.st48{fill:#003473;}
	.st49{fill:#00529E;}
	.st50{fill:#005595;}
	.st51{fill:#005B84;}
	.st52{fill:#005E88;}
	.st53{fill:#0063A6;}
	.st54{fill:#008061;}
	.st55{fill:#0095C3;}
	.st56{fill:#009DA5;}
	.st57{fill:#00A051;}
	.st58{fill:#D0D1D1;}
	.st59{fill-rule:evenodd;clip-rule:evenodd;fill:#FFFFFF;}
	.st60{fill:#D19EA0;}
	.st61{fill:#0356A2;}
	.st62{fill:#D29EA1;}
	.st63{fill:#0468B2;}
	.st64{fill:#D32259;}
	.st65{fill:#055D77;}
	.st66{fill-rule:evenodd;clip-rule:evenodd;fill:#65B1E2;}
	.st67{fill:#0683C2;}
	.st68{fill:#0872B9;}
	.st69{fill:#3C80AD;}
	.st70{fill-rule:evenodd;clip-rule:evenodd;fill:#32357F;}
	.st71{fill:#A23C42;}
	.st72{fill:#0B161F;}
	.st73{fill:#0C4875;}
	.st74{fill:#0F549D;}
	.st75{fill-rule:evenodd;clip-rule:evenodd;fill:#005595;}
	.st76{fill-rule:evenodd;clip-rule:evenodd;fill:#009DDD;}
	.st77{fill:#DEBBBC;}
	.st78{fill:#43567E;}
	.st79{fill-rule:evenodd;clip-rule:evenodd;fill:#D2D2D2;}
]]>
</style>
<g>
	<g>
		<g>
			<circle class="st48" cx="68.416" cy="68.417" r="63.333"/>
		</g>
	</g>
	<g>
		<g>
			<path class="st76" d="M66.763,87.479c5.508-4.972,8.984-12.191,8.984-20.209c0-8.02-3.477-15.235-8.984-20.262
				c-4.813-4.383-11.225-7.057-18.283-7.057c-15.074,0-27.32,12.244-27.32,27.318c0,15.078,12.246,27.266,27.32,27.266
				C55.538,94.536,61.95,91.864,66.763,87.479L66.763,87.479z"/>
		</g>
		<g>
			<path class="st76" d="M66.763,87.479c5.508-4.972,8.984-12.191,8.984-20.209c0-8.02-3.477-15.235-8.984-20.262V87.479
				L66.763,87.479z"/>
		</g>
		<g>
			<path class="st28" d="M85.103,39.952c-7.059,0-13.475,2.674-18.34,7.057c-0.961,0.908-1.869,1.871-2.727,2.889h5.506
				c0.75,0.906,1.445,1.924,2.086,2.885H61.95c-0.586,0.963-1.121,1.927-1.604,2.887h12.832c0.43,0.961,0.855,1.927,1.176,2.888
				H59.228c-0.322,0.962-0.59,1.927-0.803,2.94h16.732c0.373,1.818,0.59,3.797,0.59,5.773c0,2.994-0.484,5.936-1.393,8.662H59.228
				c0.318,0.961,0.693,1.925,1.119,2.887h12.832c-0.48,0.963-0.963,1.978-1.551,2.887H61.95c0.645,1.016,1.338,1.978,2.086,2.887
				h5.506c-0.854,1.016-1.764,1.979-2.779,2.887c4.865,4.385,11.281,7.057,18.34,7.057c15.076,0,27.266-12.188,27.266-27.266
				C112.368,52.196,100.179,39.952,85.103,39.952L85.103,39.952z"/>
		</g>
		<g>
			<path class="st59" d="M102.956,73.151c0-0.482,0.43-0.855,0.91-0.855c0.482,0,0.855,0.373,0.855,0.855
				c0,0.483-0.373,0.91-0.855,0.91C103.386,74.061,102.956,73.634,102.956,73.151L102.956,73.151z M103.866,73.847
				c0.373,0,0.641-0.321,0.641-0.696c0-0.374-0.268-0.642-0.641-0.642c-0.375,0-0.693,0.268-0.693,0.642
				C103.173,73.526,103.491,73.847,103.866,73.847L103.866,73.847z M103.759,73.526h-0.213v-0.749h0.32c0.105,0,0.16,0,0.215,0.054
				c0.053,0.053,0.105,0.105,0.105,0.16c0,0.108-0.053,0.215-0.16,0.215l0.16,0.32h-0.215l-0.105-0.268h-0.107V73.526
				L103.759,73.526z M103.759,73.099h0.107c0,0,0.053,0,0.105,0c0,0,0-0.055,0-0.108v-0.055c-0.053,0-0.105,0-0.158,0h-0.055V73.099
				L103.759,73.099z"/>
		</g>
		<g>
			<polygon class="st59" points="45.058,74.061 41.638,74.061 43.669,63.422 39.019,74.061 35.915,74.061 35.382,63.475 
				33.351,74.061 30.249,74.061 32.87,60.215 38.214,60.215 38.481,68.767 42.228,60.215 47.729,60.215 45.058,74.061 			"/>
		</g>
		<g>
			<path class="st59" d="M83.017,73.902c-0.963,0.265-1.658,0.372-2.461,0.372c-1.709,0-2.674-0.855-2.674-2.457
				c0-0.322,0.055-0.644,0.107-1.018l0.213-1.123l0.164-0.854l1.549-8.606h3.367l-0.479,2.564h1.762l-0.48,2.729h-1.764
				l-0.855,4.703c-0.055,0.214-0.107,0.375-0.107,0.481c0,0.589,0.375,0.854,1.178,0.854c0.373,0,0.691-0.053,0.908-0.106
				L83.017,73.902L83.017,73.902z"/>
		</g>
		<g>
			<path class="st59" d="M92.907,62.889c-0.268-0.109-0.32-0.109-0.373-0.109c-0.162-0.055-0.268-0.055-0.268-0.106
				c-0.109,0-0.215,0-0.373,0c-1.125,0-1.926,0.481-2.943,1.816l0.32-1.71h-3.102l-2.084,11.281h3.422
				c1.229-6.899,1.711-8.127,3.367-8.127c0.107,0,0.27,0.054,0.428,0.054l0.375,0.106L92.907,62.889L92.907,62.889z"/>
		</g>
		<g>
			<path class="st59" d="M69.542,66.361c0,1.391,0.803,2.406,2.621,3.103c1.391,0.586,1.605,0.748,1.605,1.283
				c0,0.694-0.643,1.016-1.979,1.016c-1.016,0-1.98-0.161-3.102-0.48l-0.428,2.62h0.162l0.586,0.159
				c0.213,0,0.533,0.054,0.908,0.054c0.803,0.105,1.445,0.105,1.926,0.105c3.582,0,5.293-1.176,5.293-3.741
				c0-1.551-0.695-2.459-2.459-3.154c-1.445-0.535-1.604-0.695-1.604-1.23c0-0.586,0.588-0.908,1.711-0.908
				c0.641,0,1.602,0.055,2.457,0.159l0.482-2.565c-0.908-0.158-2.244-0.213-2.994-0.213C70.88,62.567,69.542,64.277,69.542,66.361
				L69.542,66.361z"/>
		</g>
		<g>
			<path class="st59" d="M56.071,74.061H53.29l0.055-1.178c-0.855,0.91-2.031,1.337-3.582,1.337c-1.816,0-3.1-1.229-3.1-3.047
				c0-2.728,2.189-4.331,5.988-4.331c0.371,0,0.854,0,1.389,0.055c0.107-0.374,0.107-0.536,0.107-0.695
				c0-0.748-0.59-1.016-2.193-1.016c-0.963,0-2.029,0.107-2.779,0.268l-0.48,0.161l-0.322,0.052l0.48-2.512
				c1.713-0.43,2.781-0.588,4.066-0.588c2.938,0,4.436,1.121,4.436,3.259c0,0.589-0.053,1.017-0.266,2.247l-0.695,4.01l-0.107,0.694
				l-0.109,0.59l-0.053,0.372L56.071,74.061L56.071,74.061z M53.612,69.034c-0.377-0.053-0.535-0.053-0.748-0.053
				c-1.926,0-2.887,0.588-2.887,1.712c0,0.694,0.426,1.176,1.174,1.176C52.544,71.869,53.558,70.693,53.612,69.034L53.612,69.034z"
				/>
		</g>
		<g>
			<path class="st59" d="M67.243,73.793c-1.174,0.321-2.297,0.48-3.475,0.48c-3.791,0-5.773-1.765-5.773-5.079
				c0-3.85,2.514-6.683,5.936-6.683c2.779,0,4.547,1.604,4.547,4.063c0,0.854-0.109,1.66-0.375,2.781H61.31c0,0.213,0,0.266,0,0.375
				c0,1.283,0.963,1.977,2.941,1.977c1.23,0,2.352-0.213,3.527-0.693L67.243,73.793L67.243,73.793z M65.427,67.112
				c0-0.215,0-0.43,0-0.589c0-0.908-0.59-1.445-1.604-1.445c-1.07,0-1.818,0.748-2.141,2.034H65.427L65.427,67.112z"/>
		</g>
		<g>
			<path class="st59" d="M103.491,68.928c-0.535,3.74-3.154,5.398-6.631,5.398c-3.793,0-5.342-2.297-5.342-5.184
				c0-3.957,2.617-6.686,6.68-6.686c3.529,0,5.4,2.246,5.4,5.08C103.599,68.235,103.599,68.287,103.491,68.928L103.491,68.928z
				 M99.964,67.483c0-1.176-0.482-2.242-1.869-2.242c-1.715,0-2.783,2.029-2.783,3.848c0,1.498,0.75,2.513,1.926,2.513
				c0.748,0,2.352-1.015,2.619-2.726C99.964,68.446,99.964,67.967,99.964,67.483L99.964,67.483z"/>
		</g>
	</g>
</g>
</svg>
