<?xml version="1.0" encoding="utf-8"?>
<!-- Generator: Adobe Illustrator 16.0.0, SVG Export Plug-In . SVG Version: 6.00 Build 0)  -->
<!DOCTYPE svg PUBLIC "-//W3C//DTD SVG 1.1//EN" "http://www.w3.org/Graphics/SVG/1.1/DTD/svg11.dtd">
<svg version="1.1" id="Layer_1" xmlns="http://www.w3.org/2000/svg" xmlns:xlink="http://www.w3.org/1999/xlink" x="0px" y="0px"
	 width="136.833px" height="136.834px" viewBox="0 0 136.833 136.834" style="enable-background:new 0 0 136.833 136.834;"
	 xml:space="preserve">
<style type="text/css">
<![CDATA[
	.st0{fill:#E0E0E0;}
	.st1{fill:#B41F36;}
	.st2{fill:#1A5B80;}
	.st3{fill:#862165;}
	.st4{fill:#1B7EC1;}
	.st5{fill:#EA2227;}
	.st6{fill:#EE3725;}
	.st7{fill:#EE3B3F;}
	.st8{fill-rule:evenodd;clip-rule:evenodd;fill:#E0EFFA;}
	.st9{fill-rule:evenodd;clip-rule:evenodd;fill:#E2E4D5;}
	.st10{fill:#BA6D71;}
	.st11{fill-rule:evenodd;clip-rule:evenodd;fill:#E92F30;}
	.st12{fill:#203D74;}
	.st13{fill:#F16622;}
	.st14{fill:#F16823;}
	.st15{fill:#231F20;}
	.st16{fill:#F26E21;}
	.st17{fill:#F3F2F2;}
	.st18{fill:#F4C82E;}
	.st19{fill-rule:evenodd;clip-rule:evenodd;fill:#1A5B80;}
	.st20{fill-rule:evenodd;clip-rule:evenodd;fill:#1A80AD;}
	.st21{fill:#F5E11C;}
	.st22{fill:#27ADE4;}
	.st23{fill-rule:evenodd;clip-rule:evenodd;fill:#EA2230;}
	.st24{fill-rule:evenodd;clip-rule:evenodd;fill:#EAF3F8;}
	.st25{fill:#F7981D;}
	.st26{fill:#F7AB1B;}
	.st27{fill:#293688;}
	.st28{fill-rule:evenodd;clip-rule:evenodd;fill:#ED1C2E;}
	.st29{fill-rule:evenodd;clip-rule:evenodd;fill:#505F7C;}
	.st30{fill:#931B1D;}
	.st31{fill:#2D78BC;}
	.st32{fill-rule:evenodd;clip-rule:evenodd;fill:#BC202A;}
	.st33{fill-rule:evenodd;clip-rule:evenodd;}
	.st34{fill:#FFDF1B;}
	.st35{fill:#FFFFFF;}
	.st36{fill-rule:evenodd;clip-rule:evenodd;fill:#231F20;}
	.st37{fill:#65B1E2;}
	.st38{fill-rule:evenodd;clip-rule:evenodd;fill:#F4C82E;}
	.st39{fill:#9A847A;}
	.st40{fill:#CA3092;}
	.st41{fill:#CB2026;}
	.st42{fill:#686969;}
	.st43{fill-rule:evenodd;clip-rule:evenodd;fill:#F7981D;}
	.st44{fill:#CC1B69;}
	.st45{fill:#305499;}
	.st46{fill:#329947;}
	.st47{fill:#6BB745;}
	.st48{fill:#003473;}
	.st49{fill:#00529E;}
	.st50{fill:#005595;}
	.st51{fill:#005B84;}
	.st52{fill:#005E88;}
	.st53{fill:#0063A6;}
	.st54{fill:#008061;}
	.st55{fill:#0095C3;}
	.st56{fill:#009DA5;}
	.st57{fill:#00A051;}
	.st58{fill:#D0D1D1;}
	.st59{fill-rule:evenodd;clip-rule:evenodd;fill:#FFFFFF;}
	.st60{fill:#D19EA0;}
	.st61{fill:#0356A2;}
	.st62{fill:#D29EA1;}
	.st63{fill:#0468B2;}
	.st64{fill:#D32259;}
	.st65{fill:#055D77;}
	.st66{fill-rule:evenodd;clip-rule:evenodd;fill:#65B1E2;}
	.st67{fill:#0683C2;}
	.st68{fill:#0872B9;}
	.st69{fill:#3C80AD;}
	.st70{fill-rule:evenodd;clip-rule:evenodd;fill:#32357F;}
	.st71{fill:#A23C42;}
	.st72{fill:#0B161F;}
	.st73{fill:#0C4875;}
	.st74{fill:#0F549D;}
	.st75{fill-rule:evenodd;clip-rule:evenodd;fill:#005595;}
	.st76{fill-rule:evenodd;clip-rule:evenodd;fill:#009DDD;}
	.st77{fill:#DEBBBC;}
	.st78{fill:#43567E;}
	.st79{fill-rule:evenodd;clip-rule:evenodd;fill:#D2D2D2;}
]]>
</style>
<g>
	<g>
		<g>
			<circle class="st17" cx="68.416" cy="68.417" r="63.333"/>
		</g>
	</g>
	<g>
		<g>
			<g>
				<g>
					<path class="st15" d="M55.444,60.355h7.08v0.766h-2.264l4.75,13.621h0.072l2.764-8.089l-1.844-5.532h-2.125v-0.766h8.783v0.766
						h-3.328l4.678,13.621h0.07l4.82-13.621h-2.904v-0.766h4.744v0.766h-0.779l-6.234,17.376h-1.842l-3.545-10.489h-0.07
						l-3.686,10.489h-1.771L56.79,61.121h-1.346V60.355z"/>
				</g>
			</g>
			<g>
				<g>
					<path class="st15" d="M81.511,66.425v-5.742c0.922-0.375,1.82-0.68,2.691-0.914c0.873-0.232,1.781-0.348,2.727-0.348
						c1.109,0,2.066,0.137,2.867,0.408c0.803,0.272,1.469,0.621,2.002,1.046c0.531,0.427,0.922,0.908,1.168,1.454
						c0.248,0.542,0.371,1.086,0.371,1.632v13.257h1.701v0.766h-4.799v-3.111h-0.092c-0.426,1.109-1.113,2.002-2.057,2.676
						c-0.945,0.672-2.057,1.011-3.33,1.011c-1.611,0-2.91-0.433-3.902-1.295c-0.994-0.862-1.488-2.075-1.488-3.637
						c0-1.04,0.182-1.872,0.547-2.499c0.369-0.627,0.859-1.123,1.477-1.488c0.617-0.367,1.307-0.639,2.078-0.816
						c0.77-0.176,1.557-0.338,2.361-0.48c0.805-0.141,1.594-0.3,2.361-0.479c0.77-0.177,1.451-0.442,2.045-0.797v-3.725
						c0-1.135-0.281-1.942-0.836-2.428c-0.559-0.486-1.311-0.729-2.258-0.729c-0.615,0-1.137,0.096-1.563,0.283
						c-0.428,0.189-0.814,0.516-1.156,0.979c-0.344,0.459-0.682,1.097-1.014,1.91c-0.332,0.816-0.711,1.84-1.137,3.066H81.511z
						 M90.239,67.994c-0.996,0.475-1.936,0.795-2.822,0.959c-0.887,0.166-1.662,0.386-2.326,0.656
						c-0.662,0.273-1.189,0.69-1.578,1.261c-0.391,0.567-0.586,1.491-0.586,2.769c0,1.35,0.244,2.295,0.727,2.84
						c0.486,0.545,1.201,0.816,2.15,0.816c1.346-0.047,2.422-0.669,3.227-1.863c0.805-1.195,1.209-2.773,1.209-4.739V67.994z"/>
				</g>
			</g>
			<g>
				<g>
					<path class="st15" d="M93.038,60.346h7.578v0.768H97.96l5.186,12.371l4.266-12.371h-3.084v-0.768h5.666v0.768h-1.598
						l-6.5,18.671c-0.33,0.99-0.658,1.793-0.977,2.408c-0.322,0.615-0.656,1.092-1.012,1.436c-0.355,0.343-0.732,0.573-1.137,0.69
						c-0.404,0.118-0.854,0.177-1.35,0.177c-1.279,0-2.18-0.279-2.699-0.836v-5.527h0.766l0.957,3.436
						c0.262,0.922,0.525,1.513,0.797,1.773c0.273,0.258,0.551,0.39,0.832,0.39c0.355,0,0.693-0.144,1.012-0.425
						c0.318-0.284,0.621-0.674,0.904-1.17c0.281-0.497,0.549-1.083,0.795-1.755c0.248-0.673,0.48-1.39,0.693-2.146l-7.111-17.122
						h-1.328V60.346z"/>
				</g>
			</g>
			<g id="Shape_2_3_">
				<g>
					<circle class="st36" cx="36.935" cy="64.469" r="19.558"/>
				</g>
			</g>
			<g id="e_Clipping_Path_3_">
				<path class="st17" d="M40.548,72.052c-0.594,0.434-1.506,0.545-3.156,0.545c-2.213,0-3.521-0.809-4.449-1.792
					c-0.973-1.034-1.455-1.699-1.48-4.429h18.977c0.018-0.507-0.01-1.715-0.01-1.971c0-4.16-1.498-8.037-3.756-10.329
					c-2.254-2.292-5.914-3.306-9.471-3.306c-3.676,0-7.555,1.242-9.859,3.583c-2.307,2.342-3.627,6.079-3.627,10.319
					c0,4.1,1.48,7.967,3.76,10.24c2.279,2.271,6.084,3.268,9.979,3.268c3.086,0,6.244-0.779,8.23-2.199
					c1.986-1.422,3.725-3.621,4.459-6.197l-7.689-0.103C41.972,70.839,41.698,71.211,40.548,72.052z M33.374,57.905
					c0.973-0.884,2.148-1.341,3.664-1.341c1.594,0,3.314,0.753,4.195,1.801c0.457,0.54,1.359,1.369,1.354,3.442H31.724
					C31.704,60.066,32.296,58.886,33.374,57.905z"/>
			</g>
			<g id="Shape_1_3_">
				<g>
					<path class="st36" d="M64.804,81.438c-20.547,0.196-38.805,3.216-50.82,8.983c0,0,12.674-4.304,50.84-4.304
						c20.453,0,27.494,0.271,50.795,4.145C115.831,90.296,97.101,81.132,64.804,81.438z"/>
				</g>
			</g>
		</g>
		<g>
			<g>
				<path class="st15" d="M112.216,60.958h-0.992v-0.613h2.715v0.613h-0.994v2.7h-0.729V60.958z"/>
			</g>
			<g>
				<path class="st15" d="M114.319,60.344h1.025l0.775,2.28h0.01l0.732-2.28h1.027v3.313h-0.684v-2.347h-0.01l-0.811,2.347h-0.563
					l-0.813-2.324h-0.01v2.324h-0.682V60.344z"/>
			</g>
		</g>
	</g>
</g>
</svg>
