<?xml version="1.0" encoding="utf-8"?>
<!-- Generator: Adobe Illustrator 16.0.0, SVG Export Plug-In . SVG Version: 6.00 Build 0)  -->
<!DOCTYPE svg PUBLIC "-//W3C//DTD SVG 1.1//EN" "http://www.w3.org/Graphics/SVG/1.1/DTD/svg11.dtd">
<svg version="1.1" id="Layer_1" xmlns="http://www.w3.org/2000/svg" xmlns:xlink="http://www.w3.org/1999/xlink" x="0px" y="0px"
	 width="136.833px" height="136.834px" viewBox="0 0 136.833 136.834" style="enable-background:new 0 0 136.833 136.834;"
	 xml:space="preserve">
<style type="text/css">
<![CDATA[
	.st0{fill:#E0E0E0;}
	.st1{fill:#B41F36;}
	.st2{fill:#1A5B80;}
	.st3{fill:#862165;}
	.st4{fill:#1B7EC1;}
	.st5{fill:#EA2227;}
	.st6{fill:#EE3725;}
	.st7{fill:#EE3B3F;}
	.st8{fill-rule:evenodd;clip-rule:evenodd;fill:#E0EFFA;}
	.st9{fill-rule:evenodd;clip-rule:evenodd;fill:#E2E4D5;}
	.st10{fill:#BA6D71;}
	.st11{fill-rule:evenodd;clip-rule:evenodd;fill:#E92F30;}
	.st12{fill:#203D74;}
	.st13{fill:#F16622;}
	.st14{fill:#F16823;}
	.st15{fill:#231F20;}
	.st16{fill:#F26E21;}
	.st17{fill:#F3F2F2;}
	.st18{fill:#F4C82E;}
	.st19{fill-rule:evenodd;clip-rule:evenodd;fill:#1A5B80;}
	.st20{fill-rule:evenodd;clip-rule:evenodd;fill:#1A80AD;}
	.st21{fill:#F5E11C;}
	.st22{fill:#27ADE4;}
	.st23{fill-rule:evenodd;clip-rule:evenodd;fill:#EA2230;}
	.st24{fill-rule:evenodd;clip-rule:evenodd;fill:#EAF3F8;}
	.st25{fill:#F7981D;}
	.st26{fill:#F7AB1B;}
	.st27{fill:#293688;}
	.st28{fill-rule:evenodd;clip-rule:evenodd;fill:#ED1C2E;}
	.st29{fill-rule:evenodd;clip-rule:evenodd;fill:#505F7C;}
	.st30{fill:#931B1D;}
	.st31{fill:#2D78BC;}
	.st32{fill-rule:evenodd;clip-rule:evenodd;fill:#BC202A;}
	.st33{fill-rule:evenodd;clip-rule:evenodd;}
	.st34{fill:#FFDF1B;}
	.st35{fill:#FFFFFF;}
	.st36{fill-rule:evenodd;clip-rule:evenodd;fill:#231F20;}
	.st37{fill:#65B1E2;}
	.st38{fill-rule:evenodd;clip-rule:evenodd;fill:#F4C82E;}
	.st39{fill:#9A847A;}
	.st40{fill:#CA3092;}
	.st41{fill:#CB2026;}
	.st42{fill:#686969;}
	.st43{fill-rule:evenodd;clip-rule:evenodd;fill:#F7981D;}
	.st44{fill:#CC1B69;}
	.st45{fill:#305499;}
	.st46{fill:#329947;}
	.st47{fill:#6BB745;}
	.st48{fill:#003473;}
	.st49{fill:#00529E;}
	.st50{fill:#005595;}
	.st51{fill:#005B84;}
	.st52{fill:#005E88;}
	.st53{fill:#0063A6;}
	.st54{fill:#008061;}
	.st55{fill:#0095C3;}
	.st56{fill:#009DA5;}
	.st57{fill:#00A051;}
	.st58{fill:#D0D1D1;}
	.st59{fill-rule:evenodd;clip-rule:evenodd;fill:#FFFFFF;}
	.st60{fill:#D19EA0;}
	.st61{fill:#0356A2;}
	.st62{fill:#D29EA1;}
	.st63{fill:#0468B2;}
	.st64{fill:#D32259;}
	.st65{fill:#055D77;}
	.st66{fill-rule:evenodd;clip-rule:evenodd;fill:#65B1E2;}
	.st67{fill:#0683C2;}
	.st68{fill:#0872B9;}
	.st69{fill:#3C80AD;}
	.st70{fill-rule:evenodd;clip-rule:evenodd;fill:#32357F;}
	.st71{fill:#A23C42;}
	.st72{fill:#0B161F;}
	.st73{fill:#0C4875;}
	.st74{fill:#0F549D;}
	.st75{fill-rule:evenodd;clip-rule:evenodd;fill:#005595;}
	.st76{fill-rule:evenodd;clip-rule:evenodd;fill:#009DDD;}
	.st77{fill:#DEBBBC;}
	.st78{fill:#43567E;}
	.st79{fill-rule:evenodd;clip-rule:evenodd;fill:#D2D2D2;}
]]>
</style>
<g>
	<g>
		<g>
			<circle class="st34" cx="68.417" cy="68.417" r="63.333"/>
		</g>
	</g>
	<g>
		<g>
			<g>
				<g>
					<polyline points="13.912,56.255 17.787,56.255 18.707,63.123 18.736,63.123 19.751,56.255 24.23,56.255 25.244,63.123 
						25.273,63.123 26.199,56.255 30.07,56.255 27.708,67.179 23.019,67.179 22.005,60.098 21.974,60.098 20.962,67.179 
						16.273,67.179 13.912,56.255 					"/>
				</g>
				<g>
					<polyline points="32.72,56.255 41.025,56.255 41.025,59.099 36.865,59.099 36.865,60.264 40.708,60.264 40.708,63.109 
						36.865,63.109 36.865,64.333 41.162,64.333 41.162,67.179 32.72,67.179 32.72,56.255 					"/>
				</g>
				<g>
					<path d="M50.013,59.357c-0.016-0.682-0.393-0.908-0.955-0.908c-0.695,0-0.998,0.302-0.998,0.637
						c0,0.391,0.258,0.559,0.711,0.694c0.834,0.241,2.359,0.546,3.465,1.015c1.377,0.574,1.982,1.557,1.982,2.874
						c0,2.679-2.18,3.797-5.266,3.797c-2.631,0-5.053-0.817-5.053-3.662h4.146c0,0.304,0.061,0.608,0.227,0.833
						c0.164,0.213,0.439,0.346,0.846,0.346c0.637,0,1.045-0.406,1.045-0.891c0-0.408-0.318-0.621-0.727-0.74l-3.072-0.909
						c-1.68-0.499-2.268-1.513-2.268-2.919c0-2.27,1.83-3.555,5.021-3.555c2.725,0,4.766,0.847,4.766,3.389H50.013"/>
				</g>
				<g>
					<polyline points="59.378,59.188 56.685,59.188 56.685,56.255 66.398,56.255 66.398,59.188 63.707,59.188 63.707,67.179 
						59.378,67.179 59.378,59.188 					"/>
				</g>
				<g>
					<polyline points="69.333,56.255 77.642,56.255 77.642,59.099 73.482,59.099 73.482,60.264 77.324,60.264 77.324,63.109 
						73.482,63.109 73.482,64.333 77.777,64.333 77.777,67.179 69.333,67.179 69.333,56.255 					"/>
				</g>
				<g>
					<path d="M80.986,56.255h6.461c2.344,0,3.719,0.711,3.719,2.768c0,1.258-0.527,2.208-2.164,2.604v0.029
						c1.061,0.09,1.637,0.561,1.85,1.393c0.24,0.938,0.211,2.481,0.709,4.131h-4.238c-0.256-0.818-0.391-2.197-0.541-3.133
						c-0.094-0.543-0.365-0.758-1.061-0.758h-0.498v3.891h-4.236V56.255 M85.585,60.81c0.83,0,1.436-0.288,1.436-1.105
						c0-0.803-0.561-0.969-1.406-0.969h-0.393v2.074H85.585z"/>
				</g>
				<g>
					<polyline points="94.57,56.255 99.759,56.255 102.074,62.867 102.105,62.867 102.105,56.255 105.615,56.255 105.615,67.179 
						100.427,67.179 98.113,60.522 98.082,60.522 98.082,67.179 94.57,67.179 94.57,56.255 					"/>
				</g>
				<g>
					<path d="M54.13,76.578c0,2.633-1.893,3.949-5.191,3.949c-3.297,0-5.189-1.316-5.189-3.949v-7.262h4.328v7.082
						c0,0.861,0.408,1.193,0.861,1.193c0.455,0,0.863-0.332,0.863-1.193v-7.082h4.328V76.578"/>
				</g>
				<g>
					<polyline points="57.714,69.316 62.904,69.316 65.218,75.928 65.248,75.928 65.248,69.316 68.759,69.316 68.759,80.239 
						63.568,80.239 61.253,73.582 61.226,73.582 61.226,80.239 57.714,80.239 57.714,69.316 					"/>
				</g>
				<g>
					<rect x="72.421" y="69.316" width="4.324" height="10.923"/>
				</g>
				<g>
					<path d="M85.66,69.029c3.768,0,5.641,2.344,5.641,5.749c0,3.403-1.873,5.749-5.641,5.749c-3.77,0-5.645-2.346-5.645-5.749
						C80.015,71.373,81.89,69.029,85.66,69.029 M85.66,77.683c0.664,0,1.164-0.379,1.164-2.905c0-2.468-0.471-2.906-1.164-2.906
						c-0.697,0-1.166,0.438-1.166,2.906C84.494,77.304,84.994,77.683,85.66,77.683z"/>
				</g>
				<g>
					<polyline points="94.57,69.316 99.759,69.316 102.074,75.928 102.105,75.928 102.105,69.316 105.615,69.316 105.615,80.239 
						100.427,80.239 98.113,73.582 98.082,73.582 98.082,80.239 94.57,80.239 94.57,69.316 					"/>
				</g>
				<g>
					<rect x="108.757" y="56.041" width="1.383" height="24.244"/>
				</g>
				<g>
					<rect x="118.546" y="56.265" width="1.381" height="23.99"/>
				</g>
				<g>
					<path d="M121.126,57.565c0-0.801,0.652-1.453,1.457-1.453s1.453,0.652,1.453,1.453c0,0.807-0.648,1.458-1.453,1.458
						S121.126,58.372,121.126,57.565 M123.806,57.565c0-0.708-0.514-1.259-1.223-1.259c-0.707,0-1.227,0.551-1.227,1.259
						c0,0.714,0.52,1.268,1.227,1.268C123.292,58.833,123.806,58.279,123.806,57.565z M123.31,58.379h-0.238l-0.465-0.751h-0.365
						v0.751h-0.197v-1.626h0.707c0.432,0,0.578,0.162,0.578,0.43c0,0.318-0.223,0.438-0.51,0.445L123.31,58.379z M122.546,57.472
						c0.232,0,0.57,0.038,0.57-0.291c0-0.255-0.209-0.285-0.408-0.285h-0.467v0.576H122.546z"/>
				</g>
			</g>
		</g>
	</g>
</g>
</svg>
