<?xml version="1.0" encoding="utf-8"?>
<!-- Generator: Adobe Illustrator 16.0.0, SVG Export Plug-In . SVG Version: 6.00 Build 0)  -->
<!DOCTYPE svg PUBLIC "-//W3C//DTD SVG 1.1//EN" "http://www.w3.org/Graphics/SVG/1.1/DTD/svg11.dtd">
<svg version="1.1" id="Layer_1" xmlns="http://www.w3.org/2000/svg" xmlns:xlink="http://www.w3.org/1999/xlink" x="0px" y="0px"
	 width="136.833px" height="136.834px" viewBox="0 0 136.833 136.834" style="enable-background:new 0 0 136.833 136.834;"
	 xml:space="preserve">
<style type="text/css">
<![CDATA[
	.st0{fill:#E0E0E0;}
	.st1{fill:#B41F36;}
	.st2{fill:#1A5B80;}
	.st3{fill:#862165;}
	.st4{fill:#1B7EC1;}
	.st5{fill:#EA2227;}
	.st6{fill:#EE3725;}
	.st7{fill:#EE3B3F;}
	.st8{fill-rule:evenodd;clip-rule:evenodd;fill:#E0EFFA;}
	.st9{fill-rule:evenodd;clip-rule:evenodd;fill:#E2E4D5;}
	.st10{fill:#BA6D71;}
	.st11{fill-rule:evenodd;clip-rule:evenodd;fill:#E92F30;}
	.st12{fill:#203D74;}
	.st13{fill:#F16622;}
	.st14{fill:#F16823;}
	.st15{fill:#231F20;}
	.st16{fill:#F26E21;}
	.st17{fill:#F3F2F2;}
	.st18{fill:#F4C82E;}
	.st19{fill-rule:evenodd;clip-rule:evenodd;fill:#1A5B80;}
	.st20{fill-rule:evenodd;clip-rule:evenodd;fill:#1A80AD;}
	.st21{fill:#F5E11C;}
	.st22{fill:#27ADE4;}
	.st23{fill-rule:evenodd;clip-rule:evenodd;fill:#EA2230;}
	.st24{fill-rule:evenodd;clip-rule:evenodd;fill:#EAF3F8;}
	.st25{fill:#F7981D;}
	.st26{fill:#F7AB1B;}
	.st27{fill:#293688;}
	.st28{fill-rule:evenodd;clip-rule:evenodd;fill:#ED1C2E;}
	.st29{fill-rule:evenodd;clip-rule:evenodd;fill:#505F7C;}
	.st30{fill:#931B1D;}
	.st31{fill:#2D78BC;}
	.st32{fill-rule:evenodd;clip-rule:evenodd;fill:#BC202A;}
	.st33{fill-rule:evenodd;clip-rule:evenodd;}
	.st34{fill:#FFDF1B;}
	.st35{fill:#FFFFFF;}
	.st36{fill-rule:evenodd;clip-rule:evenodd;fill:#231F20;}
	.st37{fill:#65B1E2;}
	.st38{fill-rule:evenodd;clip-rule:evenodd;fill:#F4C82E;}
	.st39{fill:#9A847A;}
	.st40{fill:#CA3092;}
	.st41{fill:#CB2026;}
	.st42{fill:#686969;}
	.st43{fill-rule:evenodd;clip-rule:evenodd;fill:#F7981D;}
	.st44{fill:#CC1B69;}
	.st45{fill:#305499;}
	.st46{fill:#329947;}
	.st47{fill:#6BB745;}
	.st48{fill:#003473;}
	.st49{fill:#00529E;}
	.st50{fill:#005595;}
	.st51{fill:#005B84;}
	.st52{fill:#005E88;}
	.st53{fill:#0063A6;}
	.st54{fill:#008061;}
	.st55{fill:#0095C3;}
	.st56{fill:#009DA5;}
	.st57{fill:#00A051;}
	.st58{fill:#D0D1D1;}
	.st59{fill-rule:evenodd;clip-rule:evenodd;fill:#FFFFFF;}
	.st60{fill:#D19EA0;}
	.st61{fill:#0356A2;}
	.st62{fill:#D29EA1;}
	.st63{fill:#0468B2;}
	.st64{fill:#D32259;}
	.st65{fill:#055D77;}
	.st66{fill-rule:evenodd;clip-rule:evenodd;fill:#65B1E2;}
	.st67{fill:#0683C2;}
	.st68{fill:#0872B9;}
	.st69{fill:#3C80AD;}
	.st70{fill-rule:evenodd;clip-rule:evenodd;fill:#32357F;}
	.st71{fill:#A23C42;}
	.st72{fill:#0B161F;}
	.st73{fill:#0C4875;}
	.st74{fill:#0F549D;}
	.st75{fill-rule:evenodd;clip-rule:evenodd;fill:#005595;}
	.st76{fill-rule:evenodd;clip-rule:evenodd;fill:#009DDD;}
	.st77{fill:#DEBBBC;}
	.st78{fill:#43567E;}
	.st79{fill-rule:evenodd;clip-rule:evenodd;fill:#D2D2D2;}
]]>
</style>
<g>
	<g>
		<g>
			<circle class="st17" cx="68.417" cy="68.417" r="63.333"/>
		</g>
	</g>
	<g>
		<path class="st73" d="M27.91,63.104c0,1.666-0.523,2.105-1.588,2.105h-4.173v-4.213h4.173
			C27.386,60.997,27.91,61.437,27.91,63.104 M31.317,63.104c0-2.563-0.776-4.066-2.173-4.625c-0.645-0.254-1.441-0.287-2.42-0.287
			h-7.26c-0.385,0-0.693,0.311-0.693,0.693v12.467c0,0.375,0.309,0.689,0.693,0.689h2.008c0.375,0,0.677-0.314,0.677-0.689v-3.336
			h4.575c0.979,0,1.775-0.033,2.42-0.291C30.541,67.169,31.317,65.669,31.317,63.104 M34.408,57.124v15.98
			c0,0.969-0.799,1.764-1.771,1.764H16.658c-0.969,0-1.757-0.795-1.757-1.764v-15.98c0-0.961,0.788-1.758,1.757-1.758h15.979
			C33.609,55.366,34.408,56.163,34.408,57.124 M39.822,61.007c0-0.379-0.305-0.689-0.689-0.689h-2.005
			c-0.384,0-0.695,0.311-0.695,0.689v10.348c0,0.373,0.312,0.689,0.695,0.689h2.005c0.385,0,0.689-0.316,0.689-0.689V61.007z
			 M46.652,62.981c0.957-0.043,2.034,0.076,2.602,0.135c0.521,0.043,0.708-0.146,0.708-0.588v-1.287c0-0.459-0.194-0.68-0.638-0.793
			c-0.301-0.08-1.193-0.275-2.672-0.27c-4.59,0.021-4.869,4.225-4.937,5.014c-0.058,0.721-0.052,1.311,0,1.996
			c0.055,0.787,0.347,4.996,4.937,5.014c1.479,0.006,2.425-0.205,2.672-0.268c0.443-0.105,0.638-0.338,0.638-0.799v-1.281
			c0-0.49-0.236-0.648-0.759-0.588c-0.7,0.076-1.824,0.158-2.551,0.133c-1.064-0.035-1.594-0.643-1.707-2.291
			c-0.037-0.605-0.037-1.236,0-1.838C45.058,63.626,45.587,63.024,46.652,62.981 M61.417,72.044h-2.547
			c-0.432,0-0.719-0.328-0.853-0.512l-2.896-3.941v3.748c0,0.377-0.324,0.705-0.712,0.705h-1.952c-0.391,0-0.715-0.328-0.715-0.705
			V57.114c0-0.377,0.313-0.689,0.715-0.689h1.952c0.393,0,0.712,0.313,0.712,0.689v7.502l3.205-3.957
			c0.213-0.254,0.415-0.342,0.711-0.342h2.279c0.516,0,0.771,0.338,0.408,0.844l-4.041,4.752l4.131,5.404
			C62.158,71.774,61.852,72.044,61.417,72.044"/>
	</g>
	<g>
		<path class="st64" d="M76.191,64.349v6.979c0,0.377-0.307,0.689-0.697,0.689h-1.99c-0.381,0-0.693-0.313-0.693-0.689V64.45
			c0-0.873-0.123-1.416-1.82-1.416c-0.882,0-1.342,0.109-1.967,0.209v8.111c0,0.373-0.305,0.689-0.686,0.689h-2.009
			c-0.387,0-0.688-0.316-0.688-0.689v-9.818c0-0.217,0.017-0.574,0.484-0.721c0.814-0.254,2.723-0.65,4.645-0.65
			C74.815,60.165,76.191,61.69,76.191,64.349 M124.611,71.108c0,3.658-1.508,5.328-5.348,5.328c-1.428,0-2.734-0.186-3.666-0.484
			c-0.437-0.127-0.613-0.377-0.613-0.764v-1.152c0-0.389,0.251-0.66,0.678-0.576c1.008,0.205,2.226,0.328,3.393,0.328
			c1.88,0,2.167-0.453,2.167-1.943c-0.691,0.123-1.425,0.213-2.158,0.213c-3.44,0-4.821-1.107-4.821-4.197v-6.873
			c0-0.381,0.311-0.688,0.688-0.688h2c0.384,0,0.693,0.307,0.693,0.688v6.93c0,1.104,0.593,1.529,1.963,1.529
			c0.566,0,1.18-0.127,1.638-0.242v-8.217c0-0.381,0.309-0.688,0.689-0.688h1.999c0.384,0,0.699,0.307,0.699,0.688V71.108z
			 M94.988,67.726c-0.643,0.258-1.445,0.291-2.424,0.291h-4.572v3.336c0,0.375-0.302,0.689-0.682,0.689h-2.002
			c-0.384,0-0.697-0.314-0.697-0.689V58.886c0-0.383,0.313-0.693,0.697-0.693h7.256c0.979,0,1.781,0.033,2.424,0.287
			c1.391,0.559,2.176,2.063,2.176,4.625C97.164,65.669,96.378,67.169,94.988,67.726 M98.48,55.366H82.498
			c-0.969,0-1.756,0.797-1.756,1.758v15.98c0,0.969,0.787,1.764,1.756,1.764H98.48c0.969,0,1.765-0.795,1.765-1.764v-15.98
			C100.245,56.163,99.449,55.366,98.48,55.366 M92.162,60.997h-4.17v4.213h4.17c1.064,0,1.586-0.439,1.586-2.105
			C93.748,61.437,93.226,60.997,92.162,60.997 M108.744,69.562c-0.263,0.045-1.248,0.096-1.614,0.096
			c-1.3,0-1.809-0.408-1.809-1.457c0-0.914,0.629-1.252,1.394-1.365c0.533-0.084,1.359-0.068,2.029-0.025V69.562z M107.237,60.147
			c-1.372,0-2.636,0.195-3.443,0.414c-0.444,0.113-0.622,0.352-0.622,0.705v1.156c0,0.49,0.293,0.701,0.775,0.629
			c0.854-0.119,1.895-0.252,3.015-0.252c1.534,0,1.782,0.426,1.782,1.258v0.475c-1.123-0.051-2.483-0.051-3.543,0.166
			c-1.893,0.387-3.073,1.488-3.073,3.756c0,2.613,1.509,3.73,4.928,3.717c1.851,0,3.354-0.123,4.38-0.35
			c0.348-0.074,0.598-0.416,0.598-0.871v-6.707C112.033,62.034,111.637,60.147,107.237,60.147"/>
	</g>
	<g>
		<g>
			<path class="st73" d="M15.977,87.72H15.56c-0.373,0-0.586-0.127-0.586-0.527v-5.49c0-0.469,0.369-0.496,0.586-0.496h0.417
				c0.419,0,0.526,0.244,0.526,0.496v5.49C16.503,87.532,16.339,87.72,15.977,87.72"/>
		</g>
		<g>
			<path class="st73" d="M21.613,87.72h-0.351c-0.388,0-0.623-0.078-0.623-0.527v-2.408c0-0.439-0.02-0.684-0.263-0.684
				c-0.392,0-0.732,0.186-1.094,0.467v2.625c0,0.293-0.117,0.527-0.497,0.527h-0.351c-0.391,0-0.624-0.078-0.624-0.527v-3.627
				c0-0.383,0.195-0.518,0.536-0.518h0.438c0.214,0,0.331,0.098,0.409,0.215c0.4-0.234,0.819-0.359,1.297-0.359
				c1.287,0,1.619,0.77,1.619,1.404v2.885C22.111,87.485,21.994,87.72,21.613,87.72"/>
		</g>
		<g>
			<path class="st73" d="M25.153,87.849c-0.633,0-1.101-0.021-1.413-0.063c-0.264-0.027-0.371-0.049-0.371-0.547
				c0-0.281-0.05-0.709,0.391-0.709c0.077,0,0.674,0.115,1.531,0.115c0.304,0,0.379-0.039,0.379-0.254c0-0.107,0-0.205-0.037-0.234
				c-0.186-0.174-1.552-0.32-2.029-0.75c-0.234-0.215-0.34-0.557-0.34-0.965c0-1.482,1.022-1.539,2.331-1.539
				c0.252,0,0.485,0,0.729,0.016c0.4,0.031,0.597,0.129,0.597,0.568c0,0.369-0.01,0.691-0.47,0.691
				c-0.214,0-0.622-0.078-1.297-0.078c-0.38,0-0.458,0.01-0.458,0.275c0,0.174,0.078,0.184,0.742,0.377
				c0.994,0.295,1.666,0.346,1.666,1.543C27.103,87.513,26.597,87.849,25.153,87.849"/>
		</g>
		<g>
			<path class="st73" d="M31.239,84.335c-0.03-0.146-0.128-0.225-0.273-0.225c-0.302,0-0.819,0.234-1.188,0.449v1.971
				c0.254,0.068,0.525,0.107,0.799,0.107c0.205,0,0.301-0.02,0.399-0.063c0.167-0.064,0.36-0.252,0.36-1.176
				C31.335,85.067,31.288,84.53,31.239,84.335 M32.526,86.892c-0.362,0.652-1.091,0.957-1.969,0.957
				c-0.245,0-0.519-0.021-0.78-0.072v1.436c0,0.301-0.119,0.545-0.498,0.545h-0.353c-0.389,0-0.622-0.078-0.622-0.545v-5.639
				c0-0.391,0.195-0.525,0.535-0.525h0.439c0.234,0,0.361,0.117,0.43,0.254c0.418-0.207,0.896-0.398,1.412-0.398
				c1.483,0,1.698,1.297,1.698,2.465C32.819,86.157,32.75,86.489,32.526,86.892"/>
		</g>
		<g>
			<path class="st73" d="M34.905,87.72h-0.368c-0.391,0-0.625-0.09-0.625-0.547v-3.588c0-0.391,0.194-0.537,0.535-0.537h0.458
				c0.391,0,0.509,0.332,0.509,0.537v3.588C35.414,87.476,35.287,87.72,34.905,87.72 M34.905,82.403h-0.368
				c-0.391,0-0.625-0.076-0.625-0.535v-0.332c0-0.391,0.194-0.525,0.535-0.525h0.458c0.391,0,0.509,0.32,0.509,0.525v0.332
				C35.414,82.171,35.287,82.403,34.905,82.403"/>
		</g>
		<g>
			<path class="st73" d="M39.353,84.188c-0.596,0-0.859,0.146-1.209,0.361v2.643c0,0.293-0.127,0.527-0.509,0.527h-0.37
				c-0.391,0-0.624-0.078-0.624-0.527v-3.627c0-0.383,0.196-0.518,0.536-0.518h0.458c0.244,0,0.382,0.117,0.449,0.254
				c0.341-0.168,0.75-0.398,1.199-0.398c0.233,0,0.547,0.096,0.547,0.426v0.324C39.831,83.886,39.761,84.188,39.353,84.188"/>
		</g>
		<g>
			<path class="st73" d="M43.341,84.626c0-0.438-0.089-0.623-0.654-0.623c-0.624,0-0.752,0.273-0.761,0.857h1.415 M44.208,85.825
				h-2.293c-0.029,0.635,0.099,0.916,0.821,0.916c0.437,0,0.856-0.076,1.277-0.166c0.117-0.027,0.203-0.047,0.253-0.047
				c0.38,0,0.399,0.389,0.399,0.664c0,0.244-0.069,0.467-0.449,0.525c-0.485,0.078-1.063,0.127-1.492,0.127
				c-1.832,0-2.243-0.828-2.243-2.439c0-1.539,0.304-2.504,2.195-2.504c1.765,0,2.057,0.955,2.057,2.252
				C44.734,85.788,44.617,85.825,44.208,85.825"/>
		</g>
		<g>
			<path class="st73" d="M48.562,84.272c-0.313-0.07-0.623-0.107-0.85-0.107c-0.196,0-0.262,0.02-0.34,0.061
				c-0.166,0.084-0.343,0.389-0.343,1.393c0,0.418,0.062,1.074,0.606,1.074c0.242,0,0.604-0.127,0.926-0.373 M49.527,87.784h-0.34
				c-0.244,0-0.43-0.031-0.539-0.168c-0.438,0.195-0.816,0.283-1.218,0.283c-1.267,0-1.881-0.955-1.881-2.4
				c0-1.695,0.7-2.543,2.203-2.543c0.253,0,0.556,0.027,0.81,0.059v-1.424c0-0.391,0.195-0.527,0.536-0.527h0.429
				c0.391,0,0.508,0.322,0.508,0.527v5.646C50.035,87.54,49.907,87.784,49.527,87.784"/>
		</g>
		<g>
			<path class="st73" d="M56.373,84.448c-0.049-0.215-0.098-0.283-0.486-0.283c-0.217,0-0.588,0.051-0.898,0.107v2.352
				c0.225,0.037,0.488,0.068,0.691,0.068c0.459,0,0.615-0.139,0.673-0.314c0.069-0.205,0.108-0.611,0.108-1.063
				C56.46,84.966,56.439,84.741,56.373,84.448 M55.66,87.901c-0.418,0-0.994-0.029-1.58-0.115c-0.311-0.053-0.564-0.18-0.564-0.539
				v-5.656c0-0.391,0.194-0.525,0.536-0.525h0.438c0.391,0,0.498,0.32,0.498,0.525v1.443c0.322-0.039,0.731-0.076,1.092-0.076
				c1.375,0,1.873,0.711,1.873,2.377C57.953,87.13,57.328,87.901,55.66,87.901"/>
		</g>
		<g>
			<path class="st73" d="M63.256,83.669l-2.154,5.75c-0.107,0.297-0.272,0.361-0.585,0.361h-0.488c-0.195,0-0.449-0.055-0.449-0.361
				c0-0.096,0.039-0.184,0.078-0.271l0.723-1.617l-1.601-3.861c-0.027-0.08-0.037-0.139-0.037-0.193
				c0-0.238,0.263-0.373,0.446-0.373h0.441c0.477,0,0.572,0.086,0.652,0.342l0.78,2.426l0.722-2.32
				c0.107-0.342,0.292-0.447,0.643-0.447h0.431c0.175,0,0.437,0.086,0.437,0.391L63.256,83.669"/>
		</g>
		<g>
			<path class="st73" d="M70.318,83.669l-2.154,5.75c-0.107,0.297-0.274,0.361-0.586,0.361h-0.488c-0.195,0-0.447-0.055-0.447-0.361
				c0-0.096,0.039-0.184,0.077-0.271l0.722-1.617l-1.6-3.861c-0.029-0.08-0.039-0.139-0.039-0.193c0-0.238,0.263-0.373,0.449-0.373
				h0.439c0.477,0,0.574,0.086,0.652,0.342l0.78,2.426l0.722-2.32c0.105-0.342,0.293-0.447,0.643-0.447h0.43
				c0.176,0,0.439,0.086,0.439,0.391L70.318,83.669"/>
		</g>
		<g>
			<path class="st73" d="M73.992,84.409c-0.086-0.154-0.146-0.244-0.701-0.244c-0.556,0-0.623,0.09-0.713,0.244
				c-0.097,0.184-0.166,0.479-0.166,1.025c0,0.539,0.059,0.846,0.166,1.023c0.09,0.146,0.157,0.234,0.713,0.234
				c0.555,0,0.615-0.088,0.701-0.234c0.107-0.178,0.167-0.484,0.167-1.023C74.159,84.888,74.099,84.593,73.992,84.409
				 M73.291,87.901c-1.707,0-2.359-0.955-2.359-2.467s0.652-2.477,2.359-2.477s2.35,0.965,2.35,2.477S74.998,87.901,73.291,87.901"
				/>
		</g>
		<g>
			<path class="st73" d="M80.263,87.774h-0.439c-0.203,0-0.33-0.127-0.409-0.244c-0.399,0.234-0.817,0.371-1.296,0.371
				c-1.278,0-1.619-0.781-1.619-1.414v-2.859c0-0.291,0.117-0.525,0.496-0.525h0.352c0.391,0,0.624,0.08,0.624,0.525v2.381
				c0,0.428,0.03,0.684,0.253,0.684c0.391,0,0.665-0.158,1.103-0.467v-2.598c0-0.291,0.118-0.525,0.497-0.525h0.353
				c0.39,0,0.624,0.08,0.624,0.525v3.629C80.8,87.638,80.605,87.774,80.263,87.774"/>
		</g>
	</g>
</g>
</svg>
