<?xml version="1.0" encoding="utf-8"?>
<!-- Generator: Adobe Illustrator 16.0.0, SVG Export Plug-In . SVG Version: 6.00 Build 0)  -->
<!DOCTYPE svg PUBLIC "-//W3C//DTD SVG 1.1//EN" "http://www.w3.org/Graphics/SVG/1.1/DTD/svg11.dtd">
<svg version="1.1" id="Layer_1" xmlns="http://www.w3.org/2000/svg" xmlns:xlink="http://www.w3.org/1999/xlink" x="0px" y="0px"
	 width="136.833px" height="136.834px" viewBox="0 0 136.833 136.834" style="enable-background:new 0 0 136.833 136.834;"
	 xml:space="preserve">
<style type="text/css">
<![CDATA[
	.st0{fill:#E0E0E0;}
	.st1{fill:#B41F36;}
	.st2{fill:#1A5B80;}
	.st3{fill:#862165;}
	.st4{fill:#1B7EC1;}
	.st5{fill:#EA2227;}
	.st6{fill:#EE3725;}
	.st7{fill:#EE3B3F;}
	.st8{fill-rule:evenodd;clip-rule:evenodd;fill:#E0EFFA;}
	.st9{fill-rule:evenodd;clip-rule:evenodd;fill:#E2E4D5;}
	.st10{fill:#BA6D71;}
	.st11{fill-rule:evenodd;clip-rule:evenodd;fill:#E92F30;}
	.st12{fill:#203D74;}
	.st13{fill:#F16622;}
	.st14{fill:#F16823;}
	.st15{fill:#231F20;}
	.st16{fill:#F26E21;}
	.st17{fill:#F3F2F2;}
	.st18{fill:#F4C82E;}
	.st19{fill-rule:evenodd;clip-rule:evenodd;fill:#1A5B80;}
	.st20{fill-rule:evenodd;clip-rule:evenodd;fill:#1A80AD;}
	.st21{fill:#F5E11C;}
	.st22{fill:#27ADE4;}
	.st23{fill-rule:evenodd;clip-rule:evenodd;fill:#EA2230;}
	.st24{fill-rule:evenodd;clip-rule:evenodd;fill:#EAF3F8;}
	.st25{fill:#F7981D;}
	.st26{fill:#F7AB1B;}
	.st27{fill:#293688;}
	.st28{fill-rule:evenodd;clip-rule:evenodd;fill:#ED1C2E;}
	.st29{fill-rule:evenodd;clip-rule:evenodd;fill:#505F7C;}
	.st30{fill:#931B1D;}
	.st31{fill:#2D78BC;}
	.st32{fill-rule:evenodd;clip-rule:evenodd;fill:#BC202A;}
	.st33{fill-rule:evenodd;clip-rule:evenodd;}
	.st34{fill:#FFDF1B;}
	.st35{fill:#FFFFFF;}
	.st36{fill-rule:evenodd;clip-rule:evenodd;fill:#231F20;}
	.st37{fill:#65B1E2;}
	.st38{fill-rule:evenodd;clip-rule:evenodd;fill:#F4C82E;}
	.st39{fill:#9A847A;}
	.st40{fill:#CA3092;}
	.st41{fill:#CB2026;}
	.st42{fill:#686969;}
	.st43{fill-rule:evenodd;clip-rule:evenodd;fill:#F7981D;}
	.st44{fill:#CC1B69;}
	.st45{fill:#305499;}
	.st46{fill:#329947;}
	.st47{fill:#6BB745;}
	.st48{fill:#003473;}
	.st49{fill:#00529E;}
	.st50{fill:#005595;}
	.st51{fill:#005B84;}
	.st52{fill:#005E88;}
	.st53{fill:#0063A6;}
	.st54{fill:#008061;}
	.st55{fill:#0095C3;}
	.st56{fill:#009DA5;}
	.st57{fill:#00A051;}
	.st58{fill:#D0D1D1;}
	.st59{fill-rule:evenodd;clip-rule:evenodd;fill:#FFFFFF;}
	.st60{fill:#D19EA0;}
	.st61{fill:#0356A2;}
	.st62{fill:#D29EA1;}
	.st63{fill:#0468B2;}
	.st64{fill:#D32259;}
	.st65{fill:#055D77;}
	.st66{fill-rule:evenodd;clip-rule:evenodd;fill:#65B1E2;}
	.st67{fill:#0683C2;}
	.st68{fill:#0872B9;}
	.st69{fill:#3C80AD;}
	.st70{fill-rule:evenodd;clip-rule:evenodd;fill:#32357F;}
	.st71{fill:#A23C42;}
	.st72{fill:#0B161F;}
	.st73{fill:#0C4875;}
	.st74{fill:#0F549D;}
	.st75{fill-rule:evenodd;clip-rule:evenodd;fill:#005595;}
	.st76{fill-rule:evenodd;clip-rule:evenodd;fill:#009DDD;}
	.st77{fill:#DEBBBC;}
	.st78{fill:#43567E;}
	.st79{fill-rule:evenodd;clip-rule:evenodd;fill:#D2D2D2;}
]]>
</style>
<g>
	<g>
		<g>
			<circle class="st17" cx="68.417" cy="68.417" r="63.333"/>
		</g>
	</g>
	<g>
		<g>
			<g>
				<path class="st20" d="M97.924,57.777c-2.635,0-4.719,0.699-6.313,1.018l-0.49,4.006c0.797-0.383,3.31-1.08,5.394-1.146
					c2.085-0.063,3.31,0.382,2.881,2.163c-6.19,0-10.359,1.27-11.217,5.276c-1.227,6.867,6.313,6.677,9.317,3.688l-0.367,1.652
					h5.516l2.39-10.937C106.014,58.857,101.786,57.714,97.924,57.777z M98.292,68.967c-0.306,1.462-1.47,2.098-2.88,2.163
					c-1.226,0.063-2.329-1.02-1.532-2.291c0.613-1.08,2.33-1.334,3.371-1.334c0.429,0,0.92,0,1.35,0
					C98.476,68.013,98.414,68.458,98.292,68.967z"/>
			</g>
			<g>
				<polygon class="st20" points="109.754,53.453 105.19,74.435 110.793,74.435 115.414,53.453 109.754,53.453 109.754,53.453 				
					"/>
			</g>
			<g>
				<path class="st20" d="M84.009,53.517H73.75l-4.546,20.918h5.958l1.537-6.93h4.238c4.178,0,7.618-2.543,8.539-6.867
					C90.521,55.742,86.958,53.517,84.009,53.517z M83.827,60.638c-0.369,1.589-1.967,2.86-3.504,2.86h-2.764l1.229-5.722h2.948
					C83.273,57.777,84.194,59.048,83.827,60.638z"/>
			</g>
		</g>
		<g>
			<g>
				<path class="st19" d="M44.2,57.777c-2.604,0-4.663,0.699-6.178,1.018L37.54,62.8c0.727-0.383,3.209-1.08,5.268-1.146
					c2.059-0.063,3.27,0.382,2.905,2.163c-6.114,0-10.231,1.27-11.079,5.276c-1.212,6.867,6.235,6.677,9.142,3.688l-0.362,1.652
					h5.51l2.361-10.937C52.252,58.857,48.013,57.714,44.2,57.777z M44.624,68.967c-0.304,1.462-1.516,2.098-2.906,2.163
					c-1.211,0.063-2.241-1.02-1.453-2.291c0.604-1.08,2.3-1.334,3.269-1.334c0.485,0,0.908,0,1.394,0
					C44.804,68.013,44.684,68.458,44.624,68.967z"/>
			</g>
			<g>
				<polygon class="st19" points="53.684,58.079 59.194,58.079 60.083,67.82 65.473,58.079 71.159,58.079 58.068,81.392 
					51.908,81.392 55.934,74.539 53.684,58.079 53.684,58.079 				"/>
			</g>
			<g>
				<path class="st19" d="M30.496,53.517H20.21l-4.558,20.918h6.036l1.478-6.93h4.311c4.127,0,7.576-2.543,8.5-6.867
					C37.024,55.742,33.514,53.517,30.496,53.517z M30.311,60.638c-0.369,1.589-1.908,2.86-3.449,2.86h-2.833l1.294-5.722h2.956
					C29.757,57.777,30.742,59.048,30.311,60.638z"/>
			</g>
		</g>
		<g>
			<g>
				<path class="st2" d="M116.624,56.166v-2.475h-0.923v-0.332h2.224v0.332h-0.928v2.475H116.624z"/>
			</g>
			<g>
				<path class="st2" d="M118.292,56.166v-2.807h0.557l0.665,1.986c0.062,0.185,0.105,0.322,0.134,0.413
					c0.032-0.101,0.082-0.251,0.148-0.448l0.675-1.951h0.499v2.807h-0.357v-2.35l-0.818,2.35h-0.333l-0.813-2.389v2.389H118.292z"/>
			</g>
		</g>
	</g>
</g>
</svg>
