<?xml version="1.0" encoding="utf-8"?>
<!-- Generator: Adobe Illustrator 16.0.0, SVG Export Plug-In . SVG Version: 6.00 Build 0)  -->
<!DOCTYPE svg PUBLIC "-//W3C//DTD SVG 1.1//EN" "http://www.w3.org/Graphics/SVG/1.1/DTD/svg11.dtd">
<svg version="1.1" id="Layer_1" xmlns="http://www.w3.org/2000/svg" xmlns:xlink="http://www.w3.org/1999/xlink" x="0px" y="0px"
	 width="136.833px" height="136.834px" viewBox="0 0 136.833 136.834" style="enable-background:new 0 0 136.833 136.834;"
	 xml:space="preserve">
<style type="text/css">
<![CDATA[
	.st0{fill:#E0E0E0;}
	.st1{fill:#B41F36;}
	.st2{fill:#1A5B80;}
	.st3{fill:#862165;}
	.st4{fill:#1B7EC1;}
	.st5{fill:#EA2227;}
	.st6{fill:#EE3725;}
	.st7{fill:#EE3B3F;}
	.st8{fill-rule:evenodd;clip-rule:evenodd;fill:#E0EFFA;}
	.st9{fill-rule:evenodd;clip-rule:evenodd;fill:#E2E4D5;}
	.st10{fill:#BA6D71;}
	.st11{fill-rule:evenodd;clip-rule:evenodd;fill:#E92F30;}
	.st12{fill:#203D74;}
	.st13{fill:#F16622;}
	.st14{fill:#F16823;}
	.st15{fill:#231F20;}
	.st16{fill:#F26E21;}
	.st17{fill:#F3F2F2;}
	.st18{fill:#F4C82E;}
	.st19{fill-rule:evenodd;clip-rule:evenodd;fill:#1A5B80;}
	.st20{fill-rule:evenodd;clip-rule:evenodd;fill:#1A80AD;}
	.st21{fill:#F5E11C;}
	.st22{fill:#27ADE4;}
	.st23{fill-rule:evenodd;clip-rule:evenodd;fill:#EA2230;}
	.st24{fill-rule:evenodd;clip-rule:evenodd;fill:#EAF3F8;}
	.st25{fill:#F7981D;}
	.st26{fill:#F7AB1B;}
	.st27{fill:#293688;}
	.st28{fill-rule:evenodd;clip-rule:evenodd;fill:#ED1C2E;}
	.st29{fill-rule:evenodd;clip-rule:evenodd;fill:#505F7C;}
	.st30{fill:#931B1D;}
	.st31{fill:#2D78BC;}
	.st32{fill-rule:evenodd;clip-rule:evenodd;fill:#BC202A;}
	.st33{fill-rule:evenodd;clip-rule:evenodd;}
	.st34{fill:#FFDF1B;}
	.st35{fill:#FFFFFF;}
	.st36{fill-rule:evenodd;clip-rule:evenodd;fill:#231F20;}
	.st37{fill:#65B1E2;}
	.st38{fill-rule:evenodd;clip-rule:evenodd;fill:#F4C82E;}
	.st39{fill:#9A847A;}
	.st40{fill:#CA3092;}
	.st41{fill:#CB2026;}
	.st42{fill:#686969;}
	.st43{fill-rule:evenodd;clip-rule:evenodd;fill:#F7981D;}
	.st44{fill:#CC1B69;}
	.st45{fill:#305499;}
	.st46{fill:#329947;}
	.st47{fill:#6BB745;}
	.st48{fill:#003473;}
	.st49{fill:#00529E;}
	.st50{fill:#005595;}
	.st51{fill:#005B84;}
	.st52{fill:#005E88;}
	.st53{fill:#0063A6;}
	.st54{fill:#008061;}
	.st55{fill:#0095C3;}
	.st56{fill:#009DA5;}
	.st57{fill:#00A051;}
	.st58{fill:#D0D1D1;}
	.st59{fill-rule:evenodd;clip-rule:evenodd;fill:#FFFFFF;}
	.st60{fill:#D19EA0;}
	.st61{fill:#0356A2;}
	.st62{fill:#D29EA1;}
	.st63{fill:#0468B2;}
	.st64{fill:#D32259;}
	.st65{fill:#055D77;}
	.st66{fill-rule:evenodd;clip-rule:evenodd;fill:#65B1E2;}
	.st67{fill:#0683C2;}
	.st68{fill:#0872B9;}
	.st69{fill:#3C80AD;}
	.st70{fill-rule:evenodd;clip-rule:evenodd;fill:#32357F;}
	.st71{fill:#A23C42;}
	.st72{fill:#0B161F;}
	.st73{fill:#0C4875;}
	.st74{fill:#0F549D;}
	.st75{fill-rule:evenodd;clip-rule:evenodd;fill:#005595;}
	.st76{fill-rule:evenodd;clip-rule:evenodd;fill:#009DDD;}
	.st77{fill:#DEBBBC;}
	.st78{fill:#43567E;}
	.st79{fill-rule:evenodd;clip-rule:evenodd;fill:#D2D2D2;}
]]>
</style>
<g>
	<g>
		<g>
			<circle class="st78" cx="68.416" cy="68.417" r="63.333"/>
		</g>
	</g>
	<g>
		<g>
			<g>
				<path class="st32" d="M40.282,56.984c0.99,0,1.98,0,2.973,0c0,0.99,0,1.98,0,2.972c-0.992,0-1.982,0-2.973,0
					C40.282,58.964,40.282,57.974,40.282,56.984z"/>
			</g>
		</g>
		<g>
			<path class="st59" d="M118.233,56.984c0,6.484,0,12.969,0,19.453c-0.99,0-1.98,0-2.973,0c0-0.584,0-1.17,0-1.756
				c-1,2.499-6.334,2.594-8.51,0.945c-3.244-2.454-3.396-9.58-0.27-12.294c1.986-1.724,6.83-1.995,8.646,0.812
				c0-2.387,0-4.774,0-7.16C116.161,56.984,117.198,56.984,118.233,56.984z M108.776,73.601c1.465,1.286,3.877,0.987,5,0
				c3.055-2.688,1.74-10.163-3.379-9.053C107.046,65.277,106.177,71.315,108.776,73.601z"/>
		</g>
		<g>
			<path class="st59" d="M53.251,61.982c0,0.991,0,1.983,0,2.972c-6.139-1.104-5.15,5.993-5.135,11.483c-1.035,0-2.072,0-3.105,0
				c0-4.683,0-9.365,0-14.049c0.99,0,1.979,0,2.971,0c0,0.899,0,1.801,0,2.701C48.837,63.152,50.239,61.761,53.251,61.982z"/>
		</g>
		<g>
			<path class="st59" d="M66.22,70.222c-3.467,0-6.934,0-10.4,0c-0.859,4.643,6.316,5.548,7.295,1.893c0.945,0,1.891,0,2.836,0
				c-0.668,4.705-7.463,6.099-10.807,3.377c-4.742-3.855-2.406-12.869,3.512-13.51C63.843,61.42,66.278,65.142,66.22,70.222z
				 M55.819,68.197c2.432,0,4.861,0,7.295,0C63.511,63.363,55.392,63.208,55.819,68.197z"/>
		</g>
		<g>
			<path class="st59" d="M80.405,66.982c-0.945,0-1.891,0-2.836,0c-0.668-0.916-0.842-1.869-1.758-2.297
				c-7.131-3.344-7.662,11.81-0.674,9.591c1.225-0.389,1.877-1.297,2.16-3.107c1.037,0,2.072,0,3.107,0
				c-0.551,2.394-1.338,4.296-3.107,4.999c-4.824,1.914-9.563-0.521-10.131-5.133c-0.861-6.977,5.174-11.267,10.672-8.241
				C79.138,63.507,80.095,64.899,80.405,66.982z"/>
		</g>
		<g>
			<path class="st59" d="M94.052,74.14c0.234,0.352,0.896,0.275,1.484,0.271c0,0.676,0,1.351,0,2.025
				c-1.479,0.689-4.191,0.604-4.322-1.215c-2.264,1.73-7.035,2.625-9.053,0c-1.43-1.863-0.787-4.898,0.945-5.945
				c2.391-1.439,8.553-0.15,7.971-3.377c-0.469-2.625-6.334-1.657-6.213,0.676c-0.945,0-1.891,0-2.838,0
				c-0.316-5.416,9.684-6.098,11.619-2.297C95.005,66.945,93.476,70.576,94.052,74.14z M84.458,72.791
				c0.277,1.98,4.762,2.299,6.08,0.404c0.66-0.947,0.436-2.115,0.27-3.781C88.774,70.548,84.001,69.504,84.458,72.791z"/>
		</g>
		<g>
			<path class="st59" d="M104.858,62.119c0,0.945,0,1.891,0,2.835c-6.195-1.163-5.146,5.995-5.135,11.483c-1.033,0-2.07,0-3.105,0
				c0-4.683,0-9.365,0-14.049c0.945,0,1.893,0,2.836,0c0,0.899,0,1.801,0,2.701C100.331,63.261,102.011,61.526,104.858,62.119z"/>
		</g>
		<g>
			<path class="st59" d="M18.396,62.388c1.08,0,2.16,0,3.242,0c0.881,3.531,1.889,6.938,2.703,10.536
				c1.225-3.232,1.791-7.122,2.836-10.536c1.037,0,2.07,0,3.107,0c0.84,3.527,1.631,7.104,2.566,10.536
				c1.09-3.413,1.898-7.106,2.973-10.536c1.035,0,2.072,0,3.107,0c-1.557,4.612-2.941,9.395-4.459,14.049c-1.035,0-2.072,0-3.107,0
				c-0.891-3.432-1.811-6.835-2.566-10.4c-1.359,3.053-1.766,7.059-2.836,10.4c-1.082,0-2.162,0-3.242,0
				C21.313,71.718,19.823,67.083,18.396,62.388z"/>
		</g>
		<g>
			<path class="st59" d="M43.255,62.388c0,4.684,0,9.366,0,14.049c-0.992,0-1.982,0-2.973,0c0.088-4.638-0.18-9.637,0.135-14.049
				C41.362,62.388,42.308,62.388,43.255,62.388z"/>
		</g>
	</g>
</g>
</svg>
