<?xml version="1.0" encoding="utf-8"?>
<!-- Generator: Adobe Illustrator 16.0.0, SVG Export Plug-In . SVG Version: 6.00 Build 0)  -->
<!DOCTYPE svg PUBLIC "-//W3C//DTD SVG 1.1//EN" "http://www.w3.org/Graphics/SVG/1.1/DTD/svg11.dtd">
<svg version="1.1" id="Layer_1" xmlns="http://www.w3.org/2000/svg" xmlns:xlink="http://www.w3.org/1999/xlink" x="0px" y="0px"
	 width="136.833px" height="136.834px" viewBox="0 0 136.833 136.834" style="enable-background:new 0 0 136.833 136.834;"
	 xml:space="preserve">
<style type="text/css">
<![CDATA[
	.st0{fill:#E0E0E0;}
	.st1{fill:#B41F36;}
	.st2{fill:#1A5B80;}
	.st3{fill:#862165;}
	.st4{fill:#1B7EC1;}
	.st5{fill:#EA2227;}
	.st6{fill:#EE3725;}
	.st7{fill:#EE3B3F;}
	.st8{fill-rule:evenodd;clip-rule:evenodd;fill:#E0EFFA;}
	.st9{fill-rule:evenodd;clip-rule:evenodd;fill:#E2E4D5;}
	.st10{fill:#BA6D71;}
	.st11{fill-rule:evenodd;clip-rule:evenodd;fill:#E92F30;}
	.st12{fill:#203D74;}
	.st13{fill:#F16622;}
	.st14{fill:#F16823;}
	.st15{fill:#231F20;}
	.st16{fill:#F26E21;}
	.st17{fill:#F3F2F2;}
	.st18{fill:#F4C82E;}
	.st19{fill-rule:evenodd;clip-rule:evenodd;fill:#1A5B80;}
	.st20{fill-rule:evenodd;clip-rule:evenodd;fill:#1A80AD;}
	.st21{fill:#F5E11C;}
	.st22{fill:#27ADE4;}
	.st23{fill-rule:evenodd;clip-rule:evenodd;fill:#EA2230;}
	.st24{fill-rule:evenodd;clip-rule:evenodd;fill:#EAF3F8;}
	.st25{fill:#F7981D;}
	.st26{fill:#F7AB1B;}
	.st27{fill:#293688;}
	.st28{fill-rule:evenodd;clip-rule:evenodd;fill:#ED1C2E;}
	.st29{fill-rule:evenodd;clip-rule:evenodd;fill:#505F7C;}
	.st30{fill:#931B1D;}
	.st31{fill:#2D78BC;}
	.st32{fill-rule:evenodd;clip-rule:evenodd;fill:#BC202A;}
	.st33{fill-rule:evenodd;clip-rule:evenodd;}
	.st34{fill:#FFDF1B;}
	.st35{fill:#FFFFFF;}
	.st36{fill-rule:evenodd;clip-rule:evenodd;fill:#231F20;}
	.st37{fill:#65B1E2;}
	.st38{fill-rule:evenodd;clip-rule:evenodd;fill:#F4C82E;}
	.st39{fill:#9A847A;}
	.st40{fill:#CA3092;}
	.st41{fill:#CB2026;}
	.st42{fill:#686969;}
	.st43{fill-rule:evenodd;clip-rule:evenodd;fill:#F7981D;}
	.st44{fill:#CC1B69;}
	.st45{fill:#305499;}
	.st46{fill:#329947;}
	.st47{fill:#6BB745;}
	.st48{fill:#003473;}
	.st49{fill:#00529E;}
	.st50{fill:#005595;}
	.st51{fill:#005B84;}
	.st52{fill:#005E88;}
	.st53{fill:#0063A6;}
	.st54{fill:#008061;}
	.st55{fill:#0095C3;}
	.st56{fill:#009DA5;}
	.st57{fill:#00A051;}
	.st58{fill:#D0D1D1;}
	.st59{fill-rule:evenodd;clip-rule:evenodd;fill:#FFFFFF;}
	.st60{fill:#D19EA0;}
	.st61{fill:#0356A2;}
	.st62{fill:#D29EA1;}
	.st63{fill:#0468B2;}
	.st64{fill:#D32259;}
	.st65{fill:#055D77;}
	.st66{fill-rule:evenodd;clip-rule:evenodd;fill:#65B1E2;}
	.st67{fill:#0683C2;}
	.st68{fill:#0872B9;}
	.st69{fill:#3C80AD;}
	.st70{fill-rule:evenodd;clip-rule:evenodd;fill:#32357F;}
	.st71{fill:#A23C42;}
	.st72{fill:#0B161F;}
	.st73{fill:#0C4875;}
	.st74{fill:#0F549D;}
	.st75{fill-rule:evenodd;clip-rule:evenodd;fill:#005595;}
	.st76{fill-rule:evenodd;clip-rule:evenodd;fill:#009DDD;}
	.st77{fill:#DEBBBC;}
	.st78{fill:#43567E;}
	.st79{fill-rule:evenodd;clip-rule:evenodd;fill:#D2D2D2;}
]]>
</style>
<g>
	<g>
		<g>
			<circle class="st17" cx="68.416" cy="68.417" r="63.333"/>
		</g>
	</g>
	<g>
		<g>
			<g>
				<path class="st71" d="M37.27,102.506c-0.524,0.269-1.618,0.54-3,0.54c-3.2,0-5.592-2.022-5.592-5.762
					c0-3.57,2.408-5.963,5.929-5.963c1.398,0,2.309,0.303,2.696,0.506l-0.37,1.196c-0.539-0.271-1.331-0.472-2.274-0.472
					c-2.661,0-4.43,1.701-4.43,4.683c0,2.796,1.6,4.565,4.346,4.565c0.907,0,1.819-0.186,2.408-0.472L37.27,102.506z"/>
			</g>
			<g>
				<path class="st71" d="M39.106,91.507h1.482v10.124h4.852v1.229h-6.334V91.507z"/>
			</g>
			<g>
				<path class="st71" d="M48.539,91.507v11.354h-1.482V91.507H48.539z"/>
			</g>
			<g>
				<path class="st71" d="M59.015,102.506c-0.523,0.269-1.615,0.54-2.999,0.54c-3.2,0-5.592-2.022-5.592-5.762
					c0-3.57,2.41-5.963,5.931-5.963c1.399,0,2.307,0.303,2.694,0.506l-0.37,1.196c-0.539-0.271-1.331-0.472-2.272-0.472
					c-2.663,0-4.433,1.701-4.433,4.683c0,2.796,1.603,4.565,4.347,4.565c0.909,0,1.819-0.186,2.408-0.472L59.015,102.506z"/>
			</g>
			<g>
				<path class="st71" d="M60.868,91.507h1.467v5.475h0.049c0.305-0.438,0.607-0.842,0.892-1.212l3.472-4.263h1.818l-4.107,4.818
					l4.43,6.535H67.15l-3.722-5.576l-1.094,1.245v4.331h-1.467V91.507z"/>
			</g>
			<g>
				<path class="st39" d="M69.999,91.676c0.638-0.153,1.667-0.253,2.678-0.253c1.465,0,2.411,0.253,3.099,0.824
					c0.589,0.438,0.962,1.112,0.962,2.006c0,1.113-0.742,2.072-1.921,2.492v0.052c1.077,0.253,2.341,1.144,2.341,2.83
					c0,0.977-0.387,1.732-0.978,2.272c-0.774,0.727-2.054,1.063-3.906,1.063c-1.014,0-1.785-0.067-2.274-0.136V91.676z
					 M71.466,96.325h1.329c1.532,0,2.443-0.826,2.443-1.921c0-1.313-0.995-1.853-2.478-1.853c-0.673,0-1.061,0.05-1.295,0.102
					V96.325z M71.466,101.75c0.302,0.05,0.706,0.065,1.229,0.065c1.515,0,2.913-0.555,2.913-2.205c0-1.534-1.331-2.188-2.932-2.188
					h-1.211V101.75z"/>
			</g>
			<g>
				<path class="st39" d="M80.964,99.29l-1.178,3.57H78.27l3.875-11.354h1.751l3.875,11.354h-1.566l-1.212-3.57H80.964z
					 M84.703,98.144l-1.126-3.268c-0.255-0.742-0.422-1.415-0.591-2.071h-0.034c-0.169,0.656-0.336,1.362-0.573,2.056l-1.11,3.283
					H84.703z"/>
			</g>
			<g>
				<path class="st39" d="M89.436,102.86V91.507h1.618l3.622,5.746c0.828,1.329,1.499,2.524,2.022,3.688l0.052-0.019
					c-0.136-1.515-0.169-2.897-0.169-4.665v-4.75h1.381v11.354h-1.482l-3.604-5.762c-0.792-1.261-1.551-2.559-2.107-3.791
					l-0.05,0.018c0.086,1.432,0.102,2.797,0.102,4.684v4.852H89.436z"/>
			</g>
			<g>
				<path class="st39" d="M100.521,91.507h1.467v5.475h0.05c0.305-0.438,0.607-0.842,0.894-1.212l3.472-4.263h1.818l-4.109,4.818
					l4.428,6.535h-1.733l-3.726-5.576l-1.093,1.245v4.331h-1.467V91.507z"/>
			</g>
		</g>
		<g>
			<g>
				<g>
					<path class="st10" d="M50.834,38.783c11.48-0.003,22.961-0.006,34.438,0l0.001,0.126c-11.478,0-22.958,0.003-34.438-0.003
						V38.783z"/>
				</g>
			</g>
			<g>
				<g>
					<path class="st62" d="M46.16,44.37l0.123-0.004c0.006,9.747,0.006,19.495,0,29.243H46.16
						C46.153,63.861,46.153,54.115,46.16,44.37z"/>
				</g>
			</g>
			<g>
				<g>
					<g>
						<path class="st71" d="M46.283,44.366c0.138-2.494,1.944-5.158,4.551-5.46c11.48,0.006,22.961,0.003,34.438,0.003
							c2.888,0.454,4.728,3.594,4.55,6.367c-0.009,6.023,0.011,12.041-0.009,18.061c-2.159,0.013-4.32,0.006-6.479,0.003
							c1.114-3.989,0.403-8.42-1.961-11.825c-2.473-3.74-6.715-6.202-11.166-6.657c-4.776-0.594-9.848,1.168-13.106,4.739
							c-2.29,2.234-3.635,5.353-3.967,8.511c-0.133,0.927-0.137,1.876-0.014,2.805c0.295,2.707,1.321,5.373,3.045,7.494
							c2.635,3.463,6.858,5.546,11.17,5.864c0.006,1.641,0.006,3.281,0,4.923c-5.238,0.009-10.482,0-15.722,0
							c-2.933,0.032-5.209-2.788-5.331-5.584C46.289,63.861,46.289,54.113,46.283,44.366z"/>
					</g>
				</g>
				<g>
					<g>
						<g>
							<path class="st39" d="M64.046,49.774c3.939-1.722,8.82-0.892,12.006,1.992c1.856,1.702,3.199,4.092,3.375,6.634
								c0,0.737,0,1.474,0,2.217c-0.356,5.259-5.355,9.515-10.547,9.485c-0.219,0-0.654,0.004-0.871,0.004
								c-2.241,0.04-4.417-0.86-6.251-2.098c-2.387-1.7-4.048-4.464-4.294-7.4C56.807,56.058,59.822,51.416,64.046,49.774z"/>
						</g>
					</g>
					<g>
						<path class="st39" d="M75.915,70.88c1.307-2.623,5.249-3.053,7.311-1.073c1.314,1.077,1.569,3.174,0.59,4.555
							c-0.688,1.146-2.043,1.787-3.347,1.849c-0.351-0.003-0.699-0.006-1.042,0c-1.33-0.062-2.688-0.796-3.369-1.96
							C75.426,73.262,75.286,71.901,75.915,70.88z"/>
					</g>
				</g>
			</g>
			<g>
				<g>
					<path class="st77" d="M53.121,60.912c-0.123-0.929-0.119-1.878,0.014-2.805C53.153,59.041,53.262,59.986,53.121,60.912z"/>
				</g>
			</g>
			<g>
				<g>
					<path class="st58" d="M79.427,58.4l0.127,0.006c0,0.731,0.019,1.468-0.003,2.202l-0.124,0.009
						C79.427,59.874,79.427,59.138,79.427,58.4z"/>
				</g>
			</g>
			<g>
				<g>
					<path class="st0" d="M68.009,70.106c0.217,0,0.652-0.004,0.871-0.004C68.774,70.338,68.113,70.338,68.009,70.106z"/>
				</g>
				<g>
					<path class="st0" d="M79.427,76.21c0.343-0.006,0.691-0.003,1.042,0c-0.123,0.283-0.729,0.063-1.042,0.122V76.21z"/>
				</g>
			</g>
			<g>
				<g>
					<path class="st60" d="M67.336,74.271l0.128-0.018c0.006,1.647,0.019,3.296,0,4.94h-0.128
						C67.342,77.552,67.342,75.911,67.336,74.271z"/>
				</g>
			</g>
			<g>
				<g>
					<path class="st39" d="M86.225,76.26c1.07-0.103,2.328,0.362,2.808,1.383c0.515,0.793,0.342,1.98-0.343,2.633
						c-0.994,1.135-2.962,1.264-4.067,0.222c-0.811-0.667-1.079-1.954-0.518-2.86C84.44,76.788,85.373,76.363,86.225,76.26z"/>
				</g>
			</g>
		</g>
	</g>
</g>
</svg>
