<?xml version="1.0" encoding="utf-8"?>
<!-- Generator: Adobe Illustrator 16.0.0, SVG Export Plug-In . SVG Version: 6.00 Build 0)  -->
<!DOCTYPE svg PUBLIC "-//W3C//DTD SVG 1.1//EN" "http://www.w3.org/Graphics/SVG/1.1/DTD/svg11.dtd">
<svg version="1.1" id="Layer_1" xmlns="http://www.w3.org/2000/svg" xmlns:xlink="http://www.w3.org/1999/xlink" x="0px" y="0px"
	 width="136.833px" height="136.834px" viewBox="0 0 136.833 136.834" style="enable-background:new 0 0 136.833 136.834;"
	 xml:space="preserve">
<style type="text/css">
<![CDATA[
	.st0{fill:#E0E0E0;}
	.st1{fill:#B41F36;}
	.st2{fill:#1A5B80;}
	.st3{fill:#862165;}
	.st4{fill:#1B7EC1;}
	.st5{fill:#EA2227;}
	.st6{fill:#EE3725;}
	.st7{fill:#EE3B3F;}
	.st8{fill-rule:evenodd;clip-rule:evenodd;fill:#E0EFFA;}
	.st9{fill-rule:evenodd;clip-rule:evenodd;fill:#E2E4D5;}
	.st10{fill:#BA6D71;}
	.st11{fill-rule:evenodd;clip-rule:evenodd;fill:#E92F30;}
	.st12{fill:#203D74;}
	.st13{fill:#F16622;}
	.st14{fill:#F16823;}
	.st15{fill:#231F20;}
	.st16{fill:#F26E21;}
	.st17{fill:#F3F2F2;}
	.st18{fill:#F4C82E;}
	.st19{fill-rule:evenodd;clip-rule:evenodd;fill:#1A5B80;}
	.st20{fill-rule:evenodd;clip-rule:evenodd;fill:#1A80AD;}
	.st21{fill:#F5E11C;}
	.st22{fill:#27ADE4;}
	.st23{fill-rule:evenodd;clip-rule:evenodd;fill:#EA2230;}
	.st24{fill-rule:evenodd;clip-rule:evenodd;fill:#EAF3F8;}
	.st25{fill:#F7981D;}
	.st26{fill:#F7AB1B;}
	.st27{fill:#293688;}
	.st28{fill-rule:evenodd;clip-rule:evenodd;fill:#ED1C2E;}
	.st29{fill-rule:evenodd;clip-rule:evenodd;fill:#505F7C;}
	.st30{fill:#931B1D;}
	.st31{fill:#2D78BC;}
	.st32{fill-rule:evenodd;clip-rule:evenodd;fill:#BC202A;}
	.st33{fill-rule:evenodd;clip-rule:evenodd;}
	.st34{fill:#FFDF1B;}
	.st35{fill:#FFFFFF;}
	.st36{fill-rule:evenodd;clip-rule:evenodd;fill:#231F20;}
	.st37{fill:#65B1E2;}
	.st38{fill-rule:evenodd;clip-rule:evenodd;fill:#F4C82E;}
	.st39{fill:#9A847A;}
	.st40{fill:#CA3092;}
	.st41{fill:#CB2026;}
	.st42{fill:#686969;}
	.st43{fill-rule:evenodd;clip-rule:evenodd;fill:#F7981D;}
	.st44{fill:#CC1B69;}
	.st45{fill:#305499;}
	.st46{fill:#329947;}
	.st47{fill:#6BB745;}
	.st48{fill:#003473;}
	.st49{fill:#00529E;}
	.st50{fill:#005595;}
	.st51{fill:#005B84;}
	.st52{fill:#005E88;}
	.st53{fill:#0063A6;}
	.st54{fill:#008061;}
	.st55{fill:#0095C3;}
	.st56{fill:#009DA5;}
	.st57{fill:#00A051;}
	.st58{fill:#D0D1D1;}
	.st59{fill-rule:evenodd;clip-rule:evenodd;fill:#FFFFFF;}
	.st60{fill:#D19EA0;}
	.st61{fill:#0356A2;}
	.st62{fill:#D29EA1;}
	.st63{fill:#0468B2;}
	.st64{fill:#D32259;}
	.st65{fill:#055D77;}
	.st66{fill-rule:evenodd;clip-rule:evenodd;fill:#65B1E2;}
	.st67{fill:#0683C2;}
	.st68{fill:#0872B9;}
	.st69{fill:#3C80AD;}
	.st70{fill-rule:evenodd;clip-rule:evenodd;fill:#32357F;}
	.st71{fill:#A23C42;}
	.st72{fill:#0B161F;}
	.st73{fill:#0C4875;}
	.st74{fill:#0F549D;}
	.st75{fill-rule:evenodd;clip-rule:evenodd;fill:#005595;}
	.st76{fill-rule:evenodd;clip-rule:evenodd;fill:#009DDD;}
	.st77{fill:#DEBBBC;}
	.st78{fill:#43567E;}
	.st79{fill-rule:evenodd;clip-rule:evenodd;fill:#D2D2D2;}
]]>
</style>
<g>
	<g>
		<g>
			<circle class="st52" cx="68.417" cy="68.417" r="63.333"/>
		</g>
	</g>
	<g>
		<g>
			<path class="st51" d="M100.583,95.251v14.479c0,2.477-2.008,4.484-4.482,4.484H44.093c-2.477,0-4.484-2.008-4.484-4.484V95.251
				H100.583z"/>
		</g>
		<g>
			<path class="st35" d="M100.583,95.251v14.479c0,2.477-2.008,4.484-4.482,4.484H44.093c-2.477,0-4.484-2.008-4.484-4.484V95.251
				H100.583z"/>
		</g>
		<g>
			<g>
				<path class="st52" d="M45.987,97.562h1.109l2.342,5.504h-1.256l-0.501-1.225h-2.31l-0.501,1.225h-1.226L45.987,97.562z
					 M47.253,100.776l-0.725-1.771l-0.727,1.771H47.253z"/>
			</g>
			<g>
				<path class="st52" d="M49.689,100.349v-0.016c0-1.555,1.17-2.826,2.849-2.826c1.029,0,1.648,0.344,2.154,0.844l-0.764,0.881
					c-0.422-0.383-0.852-0.615-1.398-0.615c-0.92,0-1.586,0.766-1.586,1.703v0.014c0,0.938,0.649,1.719,1.586,1.719
					c0.625,0,1.007-0.25,1.438-0.641l0.764,0.773c-0.563,0.6-1.186,0.975-2.24,0.975C50.882,103.159,49.689,101.919,49.689,100.349z
					"/>
			</g>
			<g>
				<path class="st52" d="M55.294,100.349v-0.016c0-1.555,1.17-2.826,2.848-2.826c1.031,0,1.648,0.344,2.158,0.844l-0.768,0.881
					c-0.422-0.383-0.851-0.615-1.396-0.615c-0.921,0-1.586,0.766-1.586,1.703v0.014c0,0.938,0.65,1.719,1.586,1.719
					c0.624,0,1.008-0.25,1.436-0.641l0.766,0.773c-0.563,0.6-1.186,0.975-2.24,0.975C56.487,103.159,55.294,101.919,55.294,100.349z
					"/>
			</g>
			<g>
				<path class="st52" d="M61.296,97.601h2.5c0.693,0,1.232,0.195,1.591,0.555c0.305,0.305,0.47,0.732,0.47,1.248v0.016
					c0,0.883-0.477,1.438-1.172,1.695l1.335,1.951h-1.405l-1.171-1.748h-0.015h-0.932v1.748h-1.201V97.601z M63.718,100.255
					c0.584,0,0.92-0.313,0.92-0.773v-0.016c0-0.516-0.36-0.781-0.945-0.781h-1.195v1.57H63.718z"/>
			</g>
			<g>
				<path class="st52" d="M66.939,97.601h4.123v1.07h-2.929v1.109h2.577v1.07h-2.577v1.145h2.968v1.07h-4.162V97.601z"/>
			</g>
			<g>
				<path class="st52" d="M72.169,97.601h2.133c1.717,0,2.904,1.178,2.904,2.719v0.014c0,1.537-1.188,2.732-2.904,2.732h-2.133
					V97.601z M74.302,101.979c0.982,0,1.647-0.662,1.647-1.631v-0.016c0-0.967-0.665-1.648-1.647-1.648h-0.931v3.295H74.302z"/>
			</g>
			<g>
				<path class="st52" d="M78.328,97.601h1.202v5.465h-1.202V97.601z"/>
			</g>
			<g>
				<path class="st52" d="M82.169,98.71h-1.662v-1.109h4.528v1.109h-1.664v4.355h-1.202V98.71z"/>
			</g>
			<g>
				<path class="st52" d="M85.954,97.601h4.123v1.07h-2.929v1.109h2.577v1.07h-2.577v1.145h2.968v1.07h-4.162V97.601z"/>
			</g>
			<g>
				<path class="st52" d="M91.185,97.601h2.131c1.719,0,2.904,1.178,2.904,2.719v0.014c0,1.537-1.186,2.732-2.904,2.732h-2.131
					V97.601z M93.315,101.979c0.984,0,1.648-0.662,1.648-1.631v-0.016c0-0.967-0.664-1.648-1.648-1.648h-0.929v3.295H93.315z"/>
			</g>
			<g>
				<path class="st52" d="M50.468,104.974h2.54c0.624,0,1.114,0.17,1.428,0.482c0.249,0.25,0.374,0.555,0.374,0.93v0.018
					c0,0.615-0.328,0.959-0.719,1.178c0.633,0.242,1.021,0.609,1.021,1.344v0.014c0,1-0.809,1.5-2.044,1.5h-2.601V104.974z
					 M52.749,107.183c0.53,0,0.866-0.172,0.866-0.578v-0.016c0-0.359-0.282-0.561-0.788-0.561H51.64v1.154H52.749z M53.068,109.386
					c0.531,0,0.853-0.189,0.853-0.594v-0.016c0-0.367-0.275-0.594-0.891-0.594H51.64v1.203H53.068z"/>
			</g>
			<g>
				<path class="st52" d="M56.019,108.095v-3.121h1.203v3.092c0,0.889,0.443,1.35,1.177,1.35c0.735,0,1.181-0.445,1.181-1.311
					v-3.131h1.202v3.082c0,1.654-0.931,2.469-2.396,2.469C56.916,110.524,56.019,109.706,56.019,108.095z"/>
			</g>
			<g>
				<path class="st52" d="M61.63,109.642l0.711-0.85c0.492,0.404,1.008,0.662,1.633,0.662c0.492,0,0.787-0.195,0.787-0.516v-0.014
					c0-0.305-0.188-0.461-1.1-0.695c-1.1-0.283-1.813-0.586-1.813-1.67v-0.018c0-0.992,0.797-1.646,1.915-1.646
					c0.796,0,1.474,0.248,2.028,0.693l-0.625,0.906c-0.482-0.336-0.961-0.539-1.42-0.539c-0.46,0-0.703,0.213-0.703,0.477v0.018
					c0,0.359,0.234,0.475,1.18,0.717c1.107,0.287,1.734,0.688,1.734,1.639v0.016c0,1.086-0.83,1.693-2.008,1.693
					C63.122,110.515,62.288,110.226,61.63,109.642z"/>
			</g>
			<g>
				<path class="st52" d="M67.057,104.974h1.202v5.465h-1.202V104.974z"/>
			</g>
			<g>
				<path class="st52" d="M69.626,104.974h1.106l2.561,3.365v-3.365h1.188v5.465h-1.022l-2.647-3.475v3.475h-1.185V104.974z"/>
			</g>
			<g>
				<path class="st52" d="M75.791,104.974h4.122v1.068h-2.928v1.109h2.575v1.068h-2.575v1.148h2.967v1.07h-4.161V104.974z"/>
			</g>
			<g>
				<path class="st52" d="M80.646,109.642l0.711-0.85c0.492,0.404,1.008,0.662,1.631,0.662c0.494,0,0.789-0.195,0.789-0.516v-0.014
					c0-0.305-0.187-0.461-1.101-0.695c-1.103-0.283-1.812-0.586-1.812-1.67v-0.018c0-0.992,0.798-1.646,1.912-1.646
					c0.798,0,1.477,0.248,2.031,0.693l-0.625,0.906c-0.484-0.336-0.961-0.539-1.422-0.539c-0.46,0-0.702,0.213-0.702,0.477v0.018
					c0,0.359,0.235,0.475,1.18,0.717c1.108,0.287,1.731,0.688,1.731,1.639v0.016c0,1.086-0.826,1.693-2.006,1.693
					C82.137,110.515,81.302,110.226,80.646,109.642z"/>
			</g>
			<g>
				<path class="st52" d="M85.565,109.642l0.707-0.85c0.494,0.404,1.008,0.662,1.633,0.662c0.492,0,0.788-0.195,0.788-0.516v-0.014
					c0-0.305-0.187-0.461-1.101-0.695c-1.1-0.283-1.811-0.586-1.811-1.67v-0.018c0-0.992,0.797-1.646,1.913-1.646
					c0.795,0,1.477,0.248,2.029,0.693l-0.624,0.906c-0.485-0.336-0.96-0.539-1.42-0.539c-0.462,0-0.703,0.213-0.703,0.477v0.018
					c0,0.359,0.232,0.475,1.178,0.717c1.109,0.287,1.732,0.688,1.732,1.639v0.016c0,1.086-0.826,1.693-2.006,1.693
					C87.056,110.515,86.218,110.226,85.565,109.642z"/>
			</g>
		</g>
		<g>
			<g>
				<polygon class="st35" points="84.892,61.919 56.081,61.919 55.034,65.364 62.712,65.364 64.178,70.114 76.8,70.114 
					78.261,65.364 85.938,65.364 				"/>
			</g>
			<g>
				<g>
					<g>
						<path class="st35" d="M60.781,42.575c-1.066,1.473-1.497,3.271-1.212,5.066c0.289,1.799,1.259,3.375,2.728,4.443l6.896,5.008
							c0.37,0.268,0.611,0.662,0.683,1.111s-0.037,0.9-0.304,1.27l1.041,0.752l3.641-5.025c0.854-1.176,1.299-2.559,1.299-3.984
							c0-0.359-0.029-0.721-0.084-1.084c-0.289-1.795-1.258-3.375-2.729-4.441l-6.896-5.01c-0.368-0.27-0.611-0.662-0.681-1.111
							c-0.016-0.09-0.023-0.182-0.023-0.273c0-0.357,0.111-0.703,0.322-0.994l0.004-0.002l-1.037-0.75L60.781,42.575z"/>
					</g>
				</g>
				<g>
					<g>
						<path class="st35" d="M64.938,22.437c-1.236,1.705-1.883,3.713-1.883,5.779c0,0.523,0.039,1.047,0.125,1.574
							c0.414,2.605,1.82,4.891,3.956,6.439l8.667,6.277c1.145,0.828,1.896,2.055,2.119,3.451c0.046,0.281,0.068,0.563,0.068,0.842
							c0,1.107-0.348,2.184-1.011,3.098l0,0l0.83,0.602l6.828-9.436c1.55-2.135,2.173-4.746,1.757-7.354
							c-0.414-2.604-1.818-4.893-3.953-6.439l-10.467-7.604c-0.658-0.479-1.092-1.186-1.221-1.986
							c-0.126-0.803,0.066-1.607,0.543-2.268l-0.831-0.602L64.938,22.437z"/>
					</g>
				</g>
			</g>
			<g>
				<g>
					<path class="st35" d="M47.235,72.989h7.894c1.941,0,3.473,0.533,4.444,1.506c0.776,0.777,1.166,1.725,1.166,2.891v0.049
						c0,1.918-1.021,2.986-2.234,3.666c1.966,0.754,3.182,1.895,3.182,4.18v0.047c0,3.107-2.526,4.664-6.364,4.664h-8.087V72.989z
						 M54.327,79.862c1.652,0,2.695-0.535,2.695-1.797v-0.047c0-1.119-0.875-1.748-2.453-1.748h-3.691v3.592H54.327z M55.322,86.71
						c1.652,0,2.648-0.582,2.648-1.844v-0.049c0-1.143-0.851-1.848-2.769-1.848h-4.324v3.74H55.322z"/>
				</g>
				<g>
					<path class="st35" d="M63.313,72.989h7.894c1.944,0,3.473,0.533,4.444,1.506c0.776,0.777,1.166,1.725,1.166,2.891v0.049
						c0,1.918-1.021,2.986-2.234,3.666c1.966,0.754,3.182,1.895,3.182,4.18v0.047c0,3.107-2.525,4.664-6.364,4.664h-8.087V72.989z
						 M70.405,79.862c1.652,0,2.697-0.535,2.697-1.797v-0.047c0-1.119-0.875-1.748-2.457-1.748h-3.691v3.592H70.405z M71.4,86.71
						c1.652,0,2.647-0.582,2.647-1.844v-0.049c0-1.143-0.848-1.848-2.768-1.848h-4.326v3.74H71.4z"/>
				</g>
				<g>
					<path class="st35" d="M79.392,72.989h7.893c1.943,0,3.472,0.533,4.445,1.506c0.776,0.777,1.165,1.725,1.165,2.891v0.049
						c0,1.918-1.021,2.986-2.234,3.666c1.968,0.754,3.183,1.895,3.183,4.18v0.047c0,3.107-2.526,4.664-6.365,4.664h-8.086V72.989z
						 M86.483,79.862c1.65,0,2.695-0.535,2.695-1.797v-0.047c0-1.119-0.875-1.748-2.453-1.748h-3.693v3.592H86.483z M87.478,86.71
						c1.651,0,2.647-0.582,2.647-1.844v-0.049c0-1.143-0.849-1.848-2.769-1.848h-4.324v3.74H87.478z"/>
				</g>
			</g>
		</g>
	</g>
</g>
</svg>
