<?xml version="1.0" encoding="utf-8"?>
<!-- Generator: Adobe Illustrator 16.0.0, SVG Export Plug-In . SVG Version: 6.00 Build 0)  -->
<!DOCTYPE svg PUBLIC "-//W3C//DTD SVG 1.1//EN" "http://www.w3.org/Graphics/SVG/1.1/DTD/svg11.dtd">
<svg version="1.1" id="Layer_1" xmlns="http://www.w3.org/2000/svg" xmlns:xlink="http://www.w3.org/1999/xlink" x="0px" y="0px"
	 width="136.833px" height="136.834px" viewBox="0 0 136.833 136.834" style="enable-background:new 0 0 136.833 136.834;"
	 xml:space="preserve">
<style type="text/css">
<![CDATA[
	.st0{fill:#E0E0E0;}
	.st1{fill:#B41F36;}
	.st2{fill:#1A5B80;}
	.st3{fill:#862165;}
	.st4{fill:#1B7EC1;}
	.st5{fill:#EA2227;}
	.st6{fill:#EE3725;}
	.st7{fill:#EE3B3F;}
	.st8{fill-rule:evenodd;clip-rule:evenodd;fill:#E0EFFA;}
	.st9{fill-rule:evenodd;clip-rule:evenodd;fill:#E2E4D5;}
	.st10{fill:#BA6D71;}
	.st11{fill-rule:evenodd;clip-rule:evenodd;fill:#E92F30;}
	.st12{fill:#203D74;}
	.st13{fill:#F16622;}
	.st14{fill:#F16823;}
	.st15{fill:#231F20;}
	.st16{fill:#F26E21;}
	.st17{fill:#F3F2F2;}
	.st18{fill:#F4C82E;}
	.st19{fill-rule:evenodd;clip-rule:evenodd;fill:#1A5B80;}
	.st20{fill-rule:evenodd;clip-rule:evenodd;fill:#1A80AD;}
	.st21{fill:#F5E11C;}
	.st22{fill:#27ADE4;}
	.st23{fill-rule:evenodd;clip-rule:evenodd;fill:#EA2230;}
	.st24{fill-rule:evenodd;clip-rule:evenodd;fill:#EAF3F8;}
	.st25{fill:#F7981D;}
	.st26{fill:#F7AB1B;}
	.st27{fill:#293688;}
	.st28{fill-rule:evenodd;clip-rule:evenodd;fill:#ED1C2E;}
	.st29{fill-rule:evenodd;clip-rule:evenodd;fill:#505F7C;}
	.st30{fill:#931B1D;}
	.st31{fill:#2D78BC;}
	.st32{fill-rule:evenodd;clip-rule:evenodd;fill:#BC202A;}
	.st33{fill-rule:evenodd;clip-rule:evenodd;}
	.st34{fill:#FFDF1B;}
	.st35{fill:#FFFFFF;}
	.st36{fill-rule:evenodd;clip-rule:evenodd;fill:#231F20;}
	.st37{fill:#65B1E2;}
	.st38{fill-rule:evenodd;clip-rule:evenodd;fill:#F4C82E;}
	.st39{fill:#9A847A;}
	.st40{fill:#CA3092;}
	.st41{fill:#CB2026;}
	.st42{fill:#686969;}
	.st43{fill-rule:evenodd;clip-rule:evenodd;fill:#F7981D;}
	.st44{fill:#CC1B69;}
	.st45{fill:#305499;}
	.st46{fill:#329947;}
	.st47{fill:#6BB745;}
	.st48{fill:#003473;}
	.st49{fill:#00529E;}
	.st50{fill:#005595;}
	.st51{fill:#005B84;}
	.st52{fill:#005E88;}
	.st53{fill:#0063A6;}
	.st54{fill:#008061;}
	.st55{fill:#0095C3;}
	.st56{fill:#009DA5;}
	.st57{fill:#00A051;}
	.st58{fill:#D0D1D1;}
	.st59{fill-rule:evenodd;clip-rule:evenodd;fill:#FFFFFF;}
	.st60{fill:#D19EA0;}
	.st61{fill:#0356A2;}
	.st62{fill:#D29EA1;}
	.st63{fill:#0468B2;}
	.st64{fill:#D32259;}
	.st65{fill:#055D77;}
	.st66{fill-rule:evenodd;clip-rule:evenodd;fill:#65B1E2;}
	.st67{fill:#0683C2;}
	.st68{fill:#0872B9;}
	.st69{fill:#3C80AD;}
	.st70{fill-rule:evenodd;clip-rule:evenodd;fill:#32357F;}
	.st71{fill:#A23C42;}
	.st72{fill:#0B161F;}
	.st73{fill:#0C4875;}
	.st74{fill:#0F549D;}
	.st75{fill-rule:evenodd;clip-rule:evenodd;fill:#005595;}
	.st76{fill-rule:evenodd;clip-rule:evenodd;fill:#009DDD;}
	.st77{fill:#DEBBBC;}
	.st78{fill:#43567E;}
	.st79{fill-rule:evenodd;clip-rule:evenodd;fill:#D2D2D2;}
]]>
</style>
<g>
	<g>
		<g>
			<circle class="st69" cx="68.417" cy="68.417" r="63.333"/>
		</g>
	</g>
	<g>
		<g>
			<path class="st30" d="M47.717,37.683c-15.981,0.101-28.92,13.131-28.92,29.169c0,16.101,13.039,29.167,29.107,29.167
				c7.537,0,14.411-2.879,19.583-7.6l-0.001-0.001h0.004c1.061-0.967,2.049-2.013,2.956-3.124h-5.962
				c-0.797-0.963-1.521-1.969-2.171-3.006h10.283c0.628-1.002,1.192-2.043,1.697-3.121H60.617c-0.467-1.002-0.872-2.023-1.217-3.064
				h16.11c0.973-2.908,1.498-6.02,1.498-9.251c0-2.146-0.233-4.234-0.67-6.248H58.545c0.222-1.037,0.499-2.06,0.829-3.063h16.118
				c-0.36-1.07-0.779-2.111-1.255-3.123H60.615c0.491-1.053,1.048-2.074,1.669-3.064h10.277c-0.685-1.093-1.441-2.137-2.258-3.121
				h-5.73c0.887-1.047,1.861-2.032,2.918-2.945c-5.17-4.723-12.045-7.604-19.586-7.604C47.84,37.683,47.778,37.683,47.717,37.683z"
				/>
		</g>
		<g>
			<path class="st13" d="M116.051,66.861c0.003,16.107-13.021,29.168-29.1,29.173C70.879,96.039,57.845,82.983,57.84,66.873v-0.012
				c-0.005-16.112,13.023-29.174,29.098-29.178c16.074-0.006,29.109,13.051,29.113,29.162
				C116.051,66.845,116.051,66.852,116.051,66.861z"/>
		</g>
		<g>
			<path class="st25" d="M116.051,67.183c0.003,16.108-13.021,29.171-29.1,29.174C70.879,96.363,57.845,83.305,57.84,67.198v-0.015
				c-0.005-16.109,13.023-29.172,29.098-29.176c16.074-0.006,29.109,13.051,29.113,29.161
				C116.051,67.168,116.051,67.177,116.051,67.183z"/>
		</g>
		<g>
			<path class="st41" d="M47.717,38.014c-15.981,0.103-28.92,13.13-28.92,29.169c0,16.102,13.039,29.169,29.107,29.169
				c7.537,0,14.411-2.881,19.583-7.601l-0.001-0.003h0.004c1.061-0.966,2.049-2.009,2.956-3.124h-5.962
				c-0.797-0.961-1.521-1.965-2.171-3.002h10.283c0.628-1.003,1.192-2.047,1.697-3.124H60.617c-0.467-1.003-0.872-2.024-1.217-3.063
				h16.11c0.973-2.91,1.498-6.021,1.498-9.252c0-2.145-0.233-4.234-0.67-6.247H58.545c0.222-1.036,0.499-2.061,0.829-3.063h16.118
				c-0.36-1.071-0.779-2.112-1.255-3.125H60.615c0.491-1.049,1.048-2.074,1.669-3.063h10.277c-0.685-1.092-1.441-2.135-2.258-3.123
				h-5.73c0.887-1.045,1.861-2.03,2.918-2.945c-5.17-4.722-12.045-7.603-19.586-7.603C47.84,38.014,47.778,38.014,47.717,38.014z"/>
		</g>
		<g>
			<g>
				<path class="st35" d="M58.369,74.609l0.389-2.639c-0.212,0-0.524,0.09-0.799,0.09c-1.078,0-1.198-0.574-1.128-0.999l0.871-5.387
					h1.639l0.396-2.921h-1.545l0.315-1.814h-3.1c-0.067,0.068-1.83,10.213-1.83,11.446c0,1.829,1.023,2.644,2.469,2.632
					C57.176,75.006,58.059,74.693,58.369,74.609z"/>
			</g>
			<g>
				<path class="st35" d="M59.352,69.576c0,4.389,2.889,5.433,5.352,5.433c2.274,0,3.273-0.511,3.273-0.511l0.547-2.996
					c0,0-1.729,0.768-3.291,0.768c-3.327,0-2.744-2.488-2.744-2.488h6.299c0,0,0.405-2.014,0.405-2.834
					c0-2.045-1.018-4.539-4.419-4.539C61.657,62.41,59.352,65.773,59.352,69.576z M64.787,65.189c1.748,0,1.425,1.97,1.425,2.129
					h-3.44C62.771,67.115,63.096,65.189,64.787,65.189z"/>
			</g>
			<g>
				<path class="st35" d="M84.409,74.609l0.555-3.389c0,0-1.521,0.768-2.564,0.768c-2.198,0-3.079-1.686-3.079-3.49
					c0-3.668,1.891-5.686,3.998-5.686c1.578,0,2.846,0.89,2.846,0.89l0.505-3.288c0,0-1.879-0.764-3.489-0.764
					c-3.578,0-7.06,3.107-7.06,8.953c0,3.87,1.881,6.431,5.579,6.431C82.745,75.034,84.409,74.609,84.409,74.609z"/>
			</g>
			<g>
				<path class="st35" d="M41.325,62.457c-2.125,0-3.754,0.683-3.754,0.683l-0.449,2.676c0,0,1.346-0.546,3.377-0.546
					c1.154,0,1.997,0.129,1.997,1.07c0,0.57-0.103,0.781-0.103,0.781s-0.909-0.077-1.331-0.077c-2.679,0-5.495,1.146-5.495,4.604
					c0,2.722,1.846,3.348,2.991,3.348c2.187,0,3.127-1.421,3.179-1.427l-0.102,1.188h2.728l1.218-8.555
					C45.581,62.574,42.422,62.457,41.325,62.457z M41.99,69.419c0.059,0.523-0.328,2.973-2.194,2.973
					c-0.962,0-1.213-0.738-1.213-1.174c0-0.849,0.461-1.87,2.733-1.87C41.843,69.348,41.9,69.406,41.99,69.419z"/>
			</g>
			<g>
				<path class="st35" d="M48.482,74.931c0.697,0,4.687,0.179,4.687-3.947c0-3.858-3.693-3.097-3.693-4.647
					c0-0.769,0.602-1.015,1.702-1.015c0.437,0,2.118,0.141,2.118,0.141l0.392-2.744c0,0-1.088-0.242-2.858-0.242
					c-2.295,0-4.62,0.914-4.62,4.053c0,3.559,3.88,3.199,3.88,4.697c0,1-1.085,1.082-1.921,1.082c-1.444,0-2.745-0.497-2.751-0.474
					l-0.413,2.713C45.077,74.573,45.881,74.931,48.482,74.931z"/>
			</g>
			<g>
				<path class="st35" d="M110.078,59.996l-0.667,4.156c0,0-1.167-1.613-2.992-1.613c-2.841,0-5.207,3.43-5.207,7.373
					c0,2.545,1.261,5.036,3.843,5.036c1.857,0,2.884-1.297,2.884-1.297l-0.135,1.107h3.014l2.369-14.769L110.078,59.996z
					 M108.64,68.103c0,1.639-0.812,3.828-2.491,3.828c-1.116,0-1.637-0.938-1.637-2.41c0-2.406,1.078-3.998,2.438-3.998
					C108.067,65.523,108.64,66.293,108.64,68.103z"/>
			</g>
			<g>
				<path class="st35" d="M24.544,74.771l1.889-11.15l0.275,11.15h2.136l3.983-11.15l-1.765,11.15h3.172l2.445-14.785h-4.907
					l-3.055,9.07l-0.159-9.07h-4.521l-2.479,14.785H24.544z"/>
			</g>
			<g>
				<path class="st35" d="M72.292,74.792c0.902-5.139,1.069-9.314,3.223-8.553c0.377-1.988,0.74-2.757,1.15-3.6
					c0,0-0.192-0.041-0.598-0.041c-1.385,0-2.414,1.9-2.414,1.9l0.274-1.744h-2.886L69.11,74.792H72.292z"/>
			</g>
			<g>
				<path class="st35" d="M91.559,62.457c-2.125,0-3.753,0.683-3.753,0.683l-0.448,2.676c0,0,1.343-0.546,3.376-0.546
					c1.153,0,1.998,0.129,1.998,1.07c0,0.57-0.104,0.781-0.104,0.781s-0.909-0.077-1.334-0.077c-2.68,0-5.493,1.146-5.493,4.604
					c0,2.722,1.847,3.348,2.991,3.348c2.187,0,3.128-1.421,3.178-1.427l-0.101,1.188h2.73l1.217-8.555
					C95.817,62.574,92.659,62.457,91.559,62.457z M92.225,69.419c0.059,0.523-0.326,2.973-2.195,2.973
					c-0.961,0-1.21-0.738-1.21-1.174c0-0.849,0.461-1.87,2.729-1.87C92.079,69.348,92.134,69.406,92.225,69.419z"/>
			</g>
			<g>
				<path class="st35" d="M98.308,74.792c0.903-5.139,1.07-9.314,3.224-8.553c0.377-1.988,0.74-2.757,1.152-3.6
					c0,0-0.195-0.041-0.599-0.041c-1.389,0-2.415,1.9-2.415,1.9l0.276-1.744h-2.888l-1.932,12.037H98.308z"/>
			</g>
		</g>
	</g>
</g>
</svg>
