<?xml version="1.0" encoding="utf-8"?>
<!-- Generator: Adobe Illustrator 16.0.0, SVG Export Plug-In . SVG Version: 6.00 Build 0)  -->
<!DOCTYPE svg PUBLIC "-//W3C//DTD SVG 1.1//EN" "http://www.w3.org/Graphics/SVG/1.1/DTD/svg11.dtd">
<svg version="1.1" id="Layer_1" xmlns="http://www.w3.org/2000/svg" xmlns:xlink="http://www.w3.org/1999/xlink" x="0px" y="0px"
	 width="136.833px" height="136.833px" viewBox="0 0 136.833 136.833" style="enable-background:new 0 0 136.833 136.833;"
	 xml:space="preserve">
<style type="text/css">
<![CDATA[
	.st0{fill:#E0E0E0;}
	.st1{fill:#B41F36;}
	.st2{fill:#1A5B80;}
	.st3{fill:#862165;}
	.st4{fill:#1B7EC1;}
	.st5{fill:#EA2227;}
	.st6{fill:#EE3725;}
	.st7{fill:#EE3B3F;}
	.st8{fill-rule:evenodd;clip-rule:evenodd;fill:#E0EFFA;}
	.st9{fill-rule:evenodd;clip-rule:evenodd;fill:#E2E4D5;}
	.st10{fill:#BA6D71;}
	.st11{fill-rule:evenodd;clip-rule:evenodd;fill:#E92F30;}
	.st12{fill:#203D74;}
	.st13{fill:#F16622;}
	.st14{fill:#F16823;}
	.st15{fill:#231F20;}
	.st16{fill:#F26E21;}
	.st17{fill:#F3F2F2;}
	.st18{fill:#F4C82E;}
	.st19{fill-rule:evenodd;clip-rule:evenodd;fill:#1A5B80;}
	.st20{fill-rule:evenodd;clip-rule:evenodd;fill:#1A80AD;}
	.st21{fill:#F5E11C;}
	.st22{fill:#27ADE4;}
	.st23{fill-rule:evenodd;clip-rule:evenodd;fill:#EA2230;}
	.st24{fill-rule:evenodd;clip-rule:evenodd;fill:#EAF3F8;}
	.st25{fill:#F7981D;}
	.st26{fill:#F7AB1B;}
	.st27{fill:#293688;}
	.st28{fill-rule:evenodd;clip-rule:evenodd;fill:#ED1C2E;}
	.st29{fill-rule:evenodd;clip-rule:evenodd;fill:#505F7C;}
	.st30{fill:#931B1D;}
	.st31{fill:#2D78BC;}
	.st32{fill-rule:evenodd;clip-rule:evenodd;fill:#BC202A;}
	.st33{fill-rule:evenodd;clip-rule:evenodd;}
	.st34{fill:#FFDF1B;}
	.st35{fill:#FFFFFF;}
	.st36{fill-rule:evenodd;clip-rule:evenodd;fill:#231F20;}
	.st37{fill:#65B1E2;}
	.st38{fill-rule:evenodd;clip-rule:evenodd;fill:#F4C82E;}
	.st39{fill:#9A847A;}
	.st40{fill:#CA3092;}
	.st41{fill:#CB2026;}
	.st42{fill:#686969;}
	.st43{fill-rule:evenodd;clip-rule:evenodd;fill:#F7981D;}
	.st44{fill:#CC1B69;}
	.st45{fill:#305499;}
	.st46{fill:#329947;}
	.st47{fill:#6BB745;}
	.st48{fill:#003473;}
	.st49{fill:#00529E;}
	.st50{fill:#005595;}
	.st51{fill:#005B84;}
	.st52{fill:#005E88;}
	.st53{fill:#0063A6;}
	.st54{fill:#008061;}
	.st55{fill:#0095C3;}
	.st56{fill:#009DA5;}
	.st57{fill:#00A051;}
	.st58{fill:#D0D1D1;}
	.st59{fill-rule:evenodd;clip-rule:evenodd;fill:#FFFFFF;}
	.st60{fill:#D19EA0;}
	.st61{fill:#0356A2;}
	.st62{fill:#D29EA1;}
	.st63{fill:#0468B2;}
	.st64{fill:#D32259;}
	.st65{fill:#055D77;}
	.st66{fill-rule:evenodd;clip-rule:evenodd;fill:#65B1E2;}
	.st67{fill:#0683C2;}
	.st68{fill:#0872B9;}
	.st69{fill:#3C80AD;}
	.st70{fill-rule:evenodd;clip-rule:evenodd;fill:#32357F;}
	.st71{fill:#A23C42;}
	.st72{fill:#0B161F;}
	.st73{fill:#0C4875;}
	.st74{fill:#0F549D;}
	.st75{fill-rule:evenodd;clip-rule:evenodd;fill:#005595;}
	.st76{fill-rule:evenodd;clip-rule:evenodd;fill:#009DDD;}
	.st77{fill:#DEBBBC;}
	.st78{fill:#43567E;}
	.st79{fill-rule:evenodd;clip-rule:evenodd;fill:#D2D2D2;}
]]>
</style>
<g>
	<g>
		<g>
			<circle class="st17" cx="68.417" cy="68.417" r="63.333"/>
		</g>
	</g>
	<g>
		<g>
			<g>
				<path class="st15" d="M29.545,65.498v-6.135c0-0.799-0.413-1.68-2.424-1.68V57.16h7.649v0.523c-2.008,0-2.42,0.881-2.42,1.68
					v13.813c0,0.797,0.412,1.679,2.42,1.679v0.522h-7.649v-0.522c2.011,0,2.424-0.882,2.424-1.679v-6.549h-8.339v6.549
					c0,0.797,0.412,1.679,2.423,1.679v0.522h-7.65v-0.522c2.009,0,2.422-0.882,2.422-1.679V59.363c0-0.799-0.413-1.68-2.422-1.68
					V57.16h7.65v0.523c-2.011,0-2.423,0.881-2.423,1.68v6.135H29.545"/>
			</g>
			<g>
				<path class="st15" d="M35.417,69.847h0.632c0.855,2.559,2.78,4.871,5.698,4.871c2.228,0,3.74-1.928,3.109-4.074
					c-1.13-3.852-8.64-4.018-8.64-9.273c0-2.725,2.172-4.595,4.87-4.595c2.916,0,4.236,2.035,4.896,0h0.577l0.605,5.862h-0.687
					c-0.634-2.561-2.45-4.733-5.009-4.733c-1.651,0-2.889,0.906-2.889,2.643c0,1.595,1.733,2.722,2.915,3.437
					c3.742,2.258,6.273,3.44,6.273,6.742c0,2.478-2.063,5.036-5.803,5.036c-2.863,0-4.844-2.007-5.121,0h-0.604L35.417,69.847"/>
			</g>
			<g>
				<path class="st15" d="M56.867,65.306c2.779,0,4.402-1.184,4.402-3.412c0-2.093-1.319-3.221-3.245-3.576
					c-2.533-0.166-3.414-0.221-3.414,0.742v6.246H56.867 M54.61,72.9c0,0.965,0.249,1.459,2.257,1.459
					c2.862,0,4.98-0.854,4.98-4.072c0-3.275-3.275-3.881-5.861-3.881H54.61V72.9z M51.803,59.363c0-0.799-0.412-1.68-2.641-1.68
					V57.16h7.373c4.238,0,7.541,1.13,7.541,4.652c0,2.311-1.542,3.494-3.659,3.963v0.055c2.365,0.439,4.593,1.896,4.593,4.54
					c0,3.302-2.859,5.007-7.181,5.007h-8.667v-0.522c2.229,0,2.641-0.882,2.641-1.679V59.363z"/>
			</g>
			<g>
				<path class="st15" d="M81.526,62.828h-0.66c-0.797-3.029-2.805-5.092-5.943-5.092c-4.539,0-6.492,3.66-6.492,8.612
					c0,3.853,2.008,8.006,6.521,8.006c2.696,0,4.54-0.881,6.438-2.751l0.468,0.551c-1.678,2.064-4.513,3.44-7.154,3.44
					c-5.364,0-9.465-3.44-9.465-9.468c0-5.475,3.879-9.521,9.411-9.521c3.769,0,5.146,2.259,6.056,0.029h0.575L81.526,62.828"/>
			</g>
			<g>
				<rect x="96.389" y="56.666" class="st35" width="18.506" height="18.506"/>
			</g>
			<g>
				<polyline class="st6" points="96.389,56.651 114.895,56.651 105.642,65.904 96.389,56.651 				"/>
			</g>
			<g>
				<polyline class="st6" points="96.389,75.157 114.895,75.157 105.642,65.904 96.389,75.157 				"/>
			</g>
			<g>
				<polyline class="st6" points="96.389,56.651 96.389,75.157 87.134,65.904 96.389,56.651 				"/>
			</g>
			<g>
				<polyline class="st6" points="114.895,56.651 114.895,75.157 124.149,65.904 114.895,56.651 				"/>
			</g>
		</g>
	</g>
</g>
</svg>
