<?xml version="1.0" encoding="utf-8"?>
<!-- Generator: Adobe Illustrator 16.0.0, SVG Export Plug-In . SVG Version: 6.00 Build 0)  -->
<!DOCTYPE svg PUBLIC "-//W3C//DTD SVG 1.1//EN" "http://www.w3.org/Graphics/SVG/1.1/DTD/svg11.dtd">
<svg version="1.1" id="Layer_1" xmlns="http://www.w3.org/2000/svg" xmlns:xlink="http://www.w3.org/1999/xlink" x="0px" y="0px"
	 width="136.833px" height="136.834px" viewBox="0 0 136.833 136.834" style="enable-background:new 0 0 136.833 136.834;"
	 xml:space="preserve">
<style type="text/css">
<![CDATA[
	.st0{fill:#E0E0E0;}
	.st1{fill:#B41F36;}
	.st2{fill:#1A5B80;}
	.st3{fill:#862165;}
	.st4{fill:#1B7EC1;}
	.st5{fill:#EA2227;}
	.st6{fill:#EE3725;}
	.st7{fill:#EE3B3F;}
	.st8{fill-rule:evenodd;clip-rule:evenodd;fill:#E0EFFA;}
	.st9{fill-rule:evenodd;clip-rule:evenodd;fill:#E2E4D5;}
	.st10{fill:#BA6D71;}
	.st11{fill-rule:evenodd;clip-rule:evenodd;fill:#E92F30;}
	.st12{fill:#203D74;}
	.st13{fill:#F16622;}
	.st14{fill:#F16823;}
	.st15{fill:#231F20;}
	.st16{fill:#F26E21;}
	.st17{fill:#F3F2F2;}
	.st18{fill:#F4C82E;}
	.st19{fill-rule:evenodd;clip-rule:evenodd;fill:#1A5B80;}
	.st20{fill-rule:evenodd;clip-rule:evenodd;fill:#1A80AD;}
	.st21{fill:#F5E11C;}
	.st22{fill:#27ADE4;}
	.st23{fill-rule:evenodd;clip-rule:evenodd;fill:#EA2230;}
	.st24{fill-rule:evenodd;clip-rule:evenodd;fill:#EAF3F8;}
	.st25{fill:#F7981D;}
	.st26{fill:#F7AB1B;}
	.st27{fill:#293688;}
	.st28{fill-rule:evenodd;clip-rule:evenodd;fill:#ED1C2E;}
	.st29{fill-rule:evenodd;clip-rule:evenodd;fill:#505F7C;}
	.st30{fill:#931B1D;}
	.st31{fill:#2D78BC;}
	.st32{fill-rule:evenodd;clip-rule:evenodd;fill:#BC202A;}
	.st33{fill-rule:evenodd;clip-rule:evenodd;}
	.st34{fill:#FFDF1B;}
	.st35{fill:#FFFFFF;}
	.st36{fill-rule:evenodd;clip-rule:evenodd;fill:#231F20;}
	.st37{fill:#65B1E2;}
	.st38{fill-rule:evenodd;clip-rule:evenodd;fill:#F4C82E;}
	.st39{fill:#9A847A;}
	.st40{fill:#CA3092;}
	.st41{fill:#CB2026;}
	.st42{fill:#686969;}
	.st43{fill-rule:evenodd;clip-rule:evenodd;fill:#F7981D;}
	.st44{fill:#CC1B69;}
	.st45{fill:#305499;}
	.st46{fill:#329947;}
	.st47{fill:#6BB745;}
	.st48{fill:#003473;}
	.st49{fill:#00529E;}
	.st50{fill:#005595;}
	.st51{fill:#005B84;}
	.st52{fill:#005E88;}
	.st53{fill:#0063A6;}
	.st54{fill:#008061;}
	.st55{fill:#0095C3;}
	.st56{fill:#009DA5;}
	.st57{fill:#00A051;}
	.st58{fill:#D0D1D1;}
	.st59{fill-rule:evenodd;clip-rule:evenodd;fill:#FFFFFF;}
	.st60{fill:#D19EA0;}
	.st61{fill:#0356A2;}
	.st62{fill:#D29EA1;}
	.st63{fill:#0468B2;}
	.st64{fill:#D32259;}
	.st65{fill:#055D77;}
	.st66{fill-rule:evenodd;clip-rule:evenodd;fill:#65B1E2;}
	.st67{fill:#0683C2;}
	.st68{fill:#0872B9;}
	.st69{fill:#3C80AD;}
	.st70{fill-rule:evenodd;clip-rule:evenodd;fill:#32357F;}
	.st71{fill:#A23C42;}
	.st72{fill:#0B161F;}
	.st73{fill:#0C4875;}
	.st74{fill:#0F549D;}
	.st75{fill-rule:evenodd;clip-rule:evenodd;fill:#005595;}
	.st76{fill-rule:evenodd;clip-rule:evenodd;fill:#009DDD;}
	.st77{fill:#DEBBBC;}
	.st78{fill:#43567E;}
	.st79{fill-rule:evenodd;clip-rule:evenodd;fill:#D2D2D2;}
]]>
</style>
<g>
	<g>
		<g>
			<circle class="st12" cx="68.417" cy="68.417" r="63.333"/>
		</g>
	</g>
	<g>
		<g>
			<path class="st35" d="M36.996,78.563h-3.697l-3.174-11.51c-0.333-1.131-0.525-2.318-0.719-3.506h-0.027
				c-0.138,1.16-0.358,2.291-0.662,3.451l-3.147,11.564h-3.532l-4.83-18.631h3.202l2.87,11.316c0.331,1.242,0.552,2.428,0.718,3.67
				h0.027c0.193-1.213,0.414-2.4,0.745-3.531l3.174-11.455h3.285l3.257,11.482c0.275,0.994,0.551,2.234,0.744,3.422h0.029
				c0.192-1.16,0.385-2.236,0.661-3.256l2.899-11.648h3.008L36.996,78.563"/>
		</g>
		<g>
			<path class="st35" d="M47.256,78.839c-3.809,0-6.294-2.123-6.294-6.955c0-4.141,2.678-7.314,6.846-7.314
				c3.671,0,6.267,2.043,6.267,6.873C54.075,75.665,51.313,78.839,47.256,78.839 M47.56,67.054c-1.796,0-3.532,1.381-3.532,4.527
				c0,3.09,1.214,4.721,3.504,4.721c1.904,0,3.505-1.492,3.505-4.666C51.037,68.71,49.906,67.054,47.56,67.054z"/>
		</g>
		<g>
			<path class="st35" d="M62.743,67.495c-2.732-0.523-4.058,1.381-4.058,5.492v5.576h-2.953V64.845h2.814
				c0,0.773-0.081,1.988-0.275,3.037h0.054c0.608-1.85,1.988-3.561,4.556-3.283L62.743,67.495"/>
		</g>
		<g>
			<rect x="64.458" y="59.757" class="st35" width="2.954" height="18.807"/>
		</g>
		<g>
			<path class="st35" d="M78.617,78.563c0-0.719,0.056-1.795,0.193-2.566h-0.056c-0.744,1.684-2.346,2.842-4.471,2.842
				c-3.367,0-5.052-2.484-5.052-6.459c0-4.719,2.733-7.756,7.177-7.756c0.662,0,1.324,0.057,2.07,0.111v-4.979h2.925v18.807H78.617
				 M78.479,67.22c-0.746-0.166-1.463-0.248-2.181-0.248c-2.346,0-3.946,1.436-3.946,5.133c0,2.76,0.855,4.307,2.732,4.307
				c2.181,0,3.395-2.596,3.395-4.941V67.22z"/>
		</g>
		<g>
			<path class="st35" d="M87.948,71.747c-0.414,0-0.91,0-1.382-0.057v6.873h-3.007V59.935c1.437-0.057,3.036-0.111,4.775-0.111
				c4.415,0,6.844,2.152,6.844,5.602C95.178,69.042,92.282,71.747,87.948,71.747 M88.114,62.278c-0.58,0-1.049,0-1.548,0.057v6.816
				c0.415,0.057,0.885,0.111,1.325,0.111c2.513-0.029,4.168-1.408,4.168-3.59C92.059,63.548,90.817,62.278,88.114,62.278z"/>
		</g>
		<g>
			<path class="st35" d="M103.686,78.563c0-0.883,0.028-1.795,0.138-2.539l-0.027-0.027c-0.662,1.627-2.373,2.842-4.554,2.842
				c-2.347,0-3.836-1.572-3.836-3.809c0-3.09,3.062-4.775,8.087-4.775v-0.799c0-1.686-0.718-2.596-2.872-2.596
				c-1.269,0-2.815,0.414-3.919,0.994l-0.579-2.373c1.38-0.525,3.229-0.912,4.996-0.912c4.167,0,5.327,1.822,5.327,4.555v5.686
				c0,1.188,0.027,2.596,0.082,3.754H103.686 M103.494,72.243c-4.113,0-5.244,1.131-5.244,2.428c0,1.049,0.718,1.85,1.876,1.85
				c2.015,0,3.368-1.932,3.368-3.891V72.243z"/>
		</g>
		<g>
			<path class="st35" d="M114.429,79.528c-1.711,4.582-3.533,5.99-6.65,5.99c-0.524,0-1.269-0.082-1.739-0.166l0.33-2.566
				c0.472,0.139,1.133,0.221,1.685,0.221c1.297,0,2.512-0.635,3.423-3.092l0.496-1.352l-5.132-13.719h3.312l2.234,6.266
				c0.441,1.215,0.773,2.43,1.077,3.59h0.026c0.277-1.105,0.857-2.898,1.354-4.279l1.959-5.576h3.174L114.429,79.528"/>
		</g>
		<g>
			<polyline class="st35" points="115.428,60.007 114.449,60.007 114.449,59.651 116.815,59.651 116.815,60.007 115.825,60.007 
				115.825,62.64 115.428,62.64 115.428,60.007 			"/>
		</g>
		<g>
			<path class="st35" d="M117.225,59.651h0.593l0.705,2.115c0.1,0.297,0.117,0.355,0.138,0.443h0.008
				c0.051-0.164,0.063-0.195,0.159-0.48l0.714-2.078h0.526v2.988h-0.376v-2.5h-0.009l-0.86,2.5h-0.354l-0.856-2.541h-0.012v2.541
				h-0.376V59.651"/>
		</g>
	</g>
</g>
</svg>
