<?xml version="1.0" encoding="utf-8"?>
<!-- Generator: Adobe Illustrator 16.0.0, SVG Export Plug-In . SVG Version: 6.00 Build 0)  -->
<!DOCTYPE svg PUBLIC "-//W3C//DTD SVG 1.1//EN" "http://www.w3.org/Graphics/SVG/1.1/DTD/svg11.dtd">
<svg version="1.1" id="Layer_1" xmlns="http://www.w3.org/2000/svg" xmlns:xlink="http://www.w3.org/1999/xlink" x="0px" y="0px"
	 width="136.833px" height="136.834px" viewBox="0 0 136.833 136.834" style="enable-background:new 0 0 136.833 136.834;"
	 xml:space="preserve">
<style type="text/css">
<![CDATA[
	.st0{fill:#E0E0E0;}
	.st1{fill:#B41F36;}
	.st2{fill:#1A5B80;}
	.st3{fill:#862165;}
	.st4{fill:#1B7EC1;}
	.st5{fill:#EA2227;}
	.st6{fill:#EE3725;}
	.st7{fill:#EE3B3F;}
	.st8{fill-rule:evenodd;clip-rule:evenodd;fill:#E0EFFA;}
	.st9{fill-rule:evenodd;clip-rule:evenodd;fill:#E2E4D5;}
	.st10{fill:#BA6D71;}
	.st11{fill-rule:evenodd;clip-rule:evenodd;fill:#E92F30;}
	.st12{fill:#203D74;}
	.st13{fill:#F16622;}
	.st14{fill:#F16823;}
	.st15{fill:#231F20;}
	.st16{fill:#F26E21;}
	.st17{fill:#F3F2F2;}
	.st18{fill:#F4C82E;}
	.st19{fill-rule:evenodd;clip-rule:evenodd;fill:#1A5B80;}
	.st20{fill-rule:evenodd;clip-rule:evenodd;fill:#1A80AD;}
	.st21{fill:#F5E11C;}
	.st22{fill:#27ADE4;}
	.st23{fill-rule:evenodd;clip-rule:evenodd;fill:#EA2230;}
	.st24{fill-rule:evenodd;clip-rule:evenodd;fill:#EAF3F8;}
	.st25{fill:#F7981D;}
	.st26{fill:#F7AB1B;}
	.st27{fill:#293688;}
	.st28{fill-rule:evenodd;clip-rule:evenodd;fill:#ED1C2E;}
	.st29{fill-rule:evenodd;clip-rule:evenodd;fill:#505F7C;}
	.st30{fill:#931B1D;}
	.st31{fill:#2D78BC;}
	.st32{fill-rule:evenodd;clip-rule:evenodd;fill:#BC202A;}
	.st33{fill-rule:evenodd;clip-rule:evenodd;}
	.st34{fill:#FFDF1B;}
	.st35{fill:#FFFFFF;}
	.st36{fill-rule:evenodd;clip-rule:evenodd;fill:#231F20;}
	.st37{fill:#65B1E2;}
	.st38{fill-rule:evenodd;clip-rule:evenodd;fill:#F4C82E;}
	.st39{fill:#9A847A;}
	.st40{fill:#CA3092;}
	.st41{fill:#CB2026;}
	.st42{fill:#686969;}
	.st43{fill-rule:evenodd;clip-rule:evenodd;fill:#F7981D;}
	.st44{fill:#CC1B69;}
	.st45{fill:#305499;}
	.st46{fill:#329947;}
	.st47{fill:#6BB745;}
	.st48{fill:#003473;}
	.st49{fill:#00529E;}
	.st50{fill:#005595;}
	.st51{fill:#005B84;}
	.st52{fill:#005E88;}
	.st53{fill:#0063A6;}
	.st54{fill:#008061;}
	.st55{fill:#0095C3;}
	.st56{fill:#009DA5;}
	.st57{fill:#00A051;}
	.st58{fill:#D0D1D1;}
	.st59{fill-rule:evenodd;clip-rule:evenodd;fill:#FFFFFF;}
	.st60{fill:#D19EA0;}
	.st61{fill:#0356A2;}
	.st62{fill:#D29EA1;}
	.st63{fill:#0468B2;}
	.st64{fill:#D32259;}
	.st65{fill:#055D77;}
	.st66{fill-rule:evenodd;clip-rule:evenodd;fill:#65B1E2;}
	.st67{fill:#0683C2;}
	.st68{fill:#0872B9;}
	.st69{fill:#3C80AD;}
	.st70{fill-rule:evenodd;clip-rule:evenodd;fill:#32357F;}
	.st71{fill:#A23C42;}
	.st72{fill:#0B161F;}
	.st73{fill:#0C4875;}
	.st74{fill:#0F549D;}
	.st75{fill-rule:evenodd;clip-rule:evenodd;fill:#005595;}
	.st76{fill-rule:evenodd;clip-rule:evenodd;fill:#009DDD;}
	.st77{fill:#DEBBBC;}
	.st78{fill:#43567E;}
	.st79{fill-rule:evenodd;clip-rule:evenodd;fill:#D2D2D2;}
]]>
</style>
<g>
	<g>
		<g>
			<circle class="st4" cx="68.416" cy="68.417" r="63.333"/>
		</g>
	</g>
	<g>
		<g>
			<path class="st24" d="M13.157,59.286c1.846-0.193,4.049-0.029,6.033-0.082c0.709,3.807,1.461,7.574,2.148,11.404
				c1.215-3.689,2.146-7.66,3.305-11.404c1.957,0,3.914,0,5.869,0c1.01,3.838,2.145,7.549,3.141,11.404
				c0.896-3.648,1.527-7.563,2.229-11.404c2.012,0,4.023,0,6.035,0c-1.545,6.855-3.027,13.775-4.545,20.66c-2.039,0-4.078,0-6.115,0
				c-1.16-4.215-2.477-8.268-3.719-12.396c-1.328,4.045-2.441,8.303-3.721,12.396c-2.037,0-4.076,0-6.115,0
				C16.249,72.944,14.728,66.089,13.157,59.286z"/>
		</g>
		<g>
			<path class="st24" d="M53.405,59.204c0.578,0,1.158,0,1.734,0c7.139,0.326,10.521,4.408,10.248,12.146c-4.85,0-9.697,0-14.545,0
				c0.043,3.115,2.523,4.85,5.207,3.801c1.248-0.488,1.898-1.484,1.898-1.484l6.861,0.66c0.02,0.377-0.252,0.797-0.496,1.156
				c-1.744,2.57-4.625,4.324-8.926,4.381c-0.662,0-1.32,0-1.982,0c-5.813-0.252-9.541-3.559-9.92-9.174
				C43.015,63.665,47.007,59.667,53.405,59.204z M52.163,64.493c-0.813,0.725-1.17,1.832-1.32,3.307c2.395,0,4.793,0,7.189,0
				C58.353,64.349,54.481,62.431,52.163,64.493z"/>
		</g>
		<g>
			<path class="st24" d="M69.106,59.368c0,0,11.662-1.139,14.959,0.99c1.582,1.025,2.395,2.98,2.395,5.209
				c0,5.549-4.563,7.164-10.908,6.609l-0.082,7.521h-6.363V59.368z M80.347,65.733c-0.01-2.164-2.299-2.498-4.795-2.314
				c-0.191,1.375-0.029,3.111-0.082,4.625C77.958,68.231,80.354,67.899,80.347,65.733z"/>
		</g>
		<g>
			<path class="st24" d="M92.327,59.368h6.859l7.604,20.248l-6.609,0.082l-0.91-3.305h-7.189l-1.074,3.305h-6.363L92.327,59.368z
				 M93.401,72.013h4.465l-2.316-7.357L93.401,72.013z"/>
		</g>
		<g>
			<polygon class="st24" points="103.731,59.452 110.509,59.368 114.726,66.228 118.938,59.368 125.634,59.368 117.948,71.187 
				117.948,79.698 111.583,79.698 111.583,71.269 			"/>
		</g>
	</g>
</g>
</svg>
