<?xml version="1.0" encoding="utf-8"?>
<!-- Generator: Adobe Illustrator 16.0.0, SVG Export Plug-In . SVG Version: 6.00 Build 0)  -->
<!DOCTYPE svg PUBLIC "-//W3C//DTD SVG 1.1//EN" "http://www.w3.org/Graphics/SVG/1.1/DTD/svg11.dtd">
<svg version="1.1" id="Layer_1" xmlns="http://www.w3.org/2000/svg" xmlns:xlink="http://www.w3.org/1999/xlink" x="0px" y="0px"
	 width="136.833px" height="136.833px" viewBox="0 0 136.833 136.833" style="enable-background:new 0 0 136.833 136.833;"
	 xml:space="preserve">
<style type="text/css">
<![CDATA[
	.st0{fill:#E0E0E0;}
	.st1{fill:#B41F36;}
	.st2{fill:#1A5B80;}
	.st3{fill:#862165;}
	.st4{fill:#1B7EC1;}
	.st5{fill:#EA2227;}
	.st6{fill:#EE3725;}
	.st7{fill:#EE3B3F;}
	.st8{fill-rule:evenodd;clip-rule:evenodd;fill:#E0EFFA;}
	.st9{fill-rule:evenodd;clip-rule:evenodd;fill:#E2E4D5;}
	.st10{fill:#BA6D71;}
	.st11{fill-rule:evenodd;clip-rule:evenodd;fill:#E92F30;}
	.st12{fill:#203D74;}
	.st13{fill:#F16622;}
	.st14{fill:#F16823;}
	.st15{fill:#231F20;}
	.st16{fill:#F26E21;}
	.st17{fill:#F3F2F2;}
	.st18{fill:#F4C82E;}
	.st19{fill-rule:evenodd;clip-rule:evenodd;fill:#1A5B80;}
	.st20{fill-rule:evenodd;clip-rule:evenodd;fill:#1A80AD;}
	.st21{fill:#F5E11C;}
	.st22{fill:#27ADE4;}
	.st23{fill-rule:evenodd;clip-rule:evenodd;fill:#EA2230;}
	.st24{fill-rule:evenodd;clip-rule:evenodd;fill:#EAF3F8;}
	.st25{fill:#F7981D;}
	.st26{fill:#F7AB1B;}
	.st27{fill:#293688;}
	.st28{fill-rule:evenodd;clip-rule:evenodd;fill:#ED1C2E;}
	.st29{fill-rule:evenodd;clip-rule:evenodd;fill:#505F7C;}
	.st30{fill:#931B1D;}
	.st31{fill:#2D78BC;}
	.st32{fill-rule:evenodd;clip-rule:evenodd;fill:#BC202A;}
	.st33{fill-rule:evenodd;clip-rule:evenodd;}
	.st34{fill:#FFDF1B;}
	.st35{fill:#FFFFFF;}
	.st36{fill-rule:evenodd;clip-rule:evenodd;fill:#231F20;}
	.st37{fill:#65B1E2;}
	.st38{fill-rule:evenodd;clip-rule:evenodd;fill:#F4C82E;}
	.st39{fill:#9A847A;}
	.st40{fill:#CA3092;}
	.st41{fill:#CB2026;}
	.st42{fill:#686969;}
	.st43{fill-rule:evenodd;clip-rule:evenodd;fill:#F7981D;}
	.st44{fill:#CC1B69;}
	.st45{fill:#305499;}
	.st46{fill:#329947;}
	.st47{fill:#6BB745;}
	.st48{fill:#003473;}
	.st49{fill:#00529E;}
	.st50{fill:#005595;}
	.st51{fill:#005B84;}
	.st52{fill:#005E88;}
	.st53{fill:#0063A6;}
	.st54{fill:#008061;}
	.st55{fill:#0095C3;}
	.st56{fill:#009DA5;}
	.st57{fill:#00A051;}
	.st58{fill:#D0D1D1;}
	.st59{fill-rule:evenodd;clip-rule:evenodd;fill:#FFFFFF;}
	.st60{fill:#D19EA0;}
	.st61{fill:#0356A2;}
	.st62{fill:#D29EA1;}
	.st63{fill:#0468B2;}
	.st64{fill:#D32259;}
	.st65{fill:#055D77;}
	.st66{fill-rule:evenodd;clip-rule:evenodd;fill:#65B1E2;}
	.st67{fill:#0683C2;}
	.st68{fill:#0872B9;}
	.st69{fill:#3C80AD;}
	.st70{fill-rule:evenodd;clip-rule:evenodd;fill:#32357F;}
	.st71{fill:#A23C42;}
	.st72{fill:#0B161F;}
	.st73{fill:#0C4875;}
	.st74{fill:#0F549D;}
	.st75{fill-rule:evenodd;clip-rule:evenodd;fill:#005595;}
	.st76{fill-rule:evenodd;clip-rule:evenodd;fill:#009DDD;}
	.st77{fill:#DEBBBC;}
	.st78{fill:#43567E;}
	.st79{fill-rule:evenodd;clip-rule:evenodd;fill:#D2D2D2;}
]]>
</style>
<g>
	<g>
		<g>
			<circle class="st17" cx="68.417" cy="68.417" r="63.333"/>
		</g>
	</g>
	<g>
		<g>
			<g>
				<path class="st43" d="M56.65,78.197c-4.211,3.109-10.314,4.762-15.57,4.762c-7.365,0-13.998-2.724-19.02-7.257
					c-0.393-0.354-0.041-0.842,0.432-0.565c5.416,3.15,12.113,5.049,19.031,5.049c4.666,0,9.795-0.969,14.516-2.971
					C56.75,76.914,57.347,77.683,56.65,78.197z"/>
			</g>
			<g>
				<path class="st43" d="M58.402,76.199c-0.539-0.689-3.561-0.326-4.918-0.166c-0.408,0.05-0.473-0.307-0.104-0.568
					c2.41-1.693,6.359-1.204,6.818-0.637c0.463,0.572-0.121,4.529-2.381,6.42c-0.348,0.29-0.678,0.134-0.521-0.25
					C57.802,79.729,58.941,76.888,58.402,76.199z"/>
			</g>
		</g>
		<g>
			<g>
				<path class="st33" d="M53.58,63.506v-1.645c0.002-0.251,0.189-0.417,0.418-0.417l7.371-0.001c0.236,0,0.426,0.173,0.426,0.417
					v1.408c-0.002,0.237-0.201,0.547-0.555,1.037l-3.818,5.451c1.418-0.033,2.916,0.18,4.203,0.903
					c0.291,0.163,0.369,0.404,0.393,0.642v1.756c0,0.241-0.264,0.521-0.543,0.377c-2.27-1.191-5.281-1.32-7.789,0.013
					c-0.258,0.136-0.525-0.138-0.525-0.381v-1.669c0-0.266,0.004-0.724,0.275-1.131l4.424-6.346l-3.854-0.001
					C53.771,63.92,53.582,63.753,53.58,63.506z"/>
			</g>
			<g>
				<path class="st33" d="M26.691,73.779h-2.242c-0.215-0.014-0.385-0.174-0.4-0.378V61.89c0-0.23,0.193-0.414,0.434-0.414h2.088
					c0.219,0.01,0.395,0.176,0.408,0.386v1.503h0.041c0.545-1.453,1.57-2.132,2.953-2.132c1.402,0,2.281,0.679,2.91,2.132
					c0.543-1.453,1.779-2.132,3.098-2.132c0.941,0,1.967,0.388,2.596,1.26c0.711,0.969,0.566,2.374,0.566,3.608l-0.004,7.264
					c0,0.23-0.193,0.414-0.432,0.414h-2.24c-0.225-0.014-0.402-0.193-0.402-0.412v-6.103c0-0.484,0.041-1.696-0.064-2.157
					c-0.166-0.774-0.67-0.992-1.318-0.992c-0.545,0-1.109,0.363-1.34,0.945s-0.209,1.551-0.209,2.204v6.101
					c0,0.23-0.195,0.414-0.434,0.414H30.46c-0.225-0.014-0.402-0.193-0.402-0.412l-0.004-6.103c0-1.284,0.211-3.173-1.381-3.173
					c-1.611,0-1.549,1.84-1.549,3.173l-0.002,6.101C27.123,73.595,26.931,73.779,26.691,73.779z"/>
			</g>
			<g>
				<path class="st33" d="M68.142,61.233c3.326,0,5.127,2.858,5.127,6.491c0,3.512-1.988,6.297-5.127,6.297
					c-3.268,0-5.047-2.857-5.047-6.418C63.095,64.017,64.896,61.233,68.142,61.233z M68.162,63.582
					c-1.654,0-1.758,2.254-1.758,3.658s-0.021,4.408,1.738,4.408c1.736,0,1.818-2.422,1.818-3.898c0-0.97-0.041-2.133-0.334-3.053
					C69.376,63.897,68.873,63.582,68.162,63.582z"/>
			</g>
			<g>
				<path class="st33" d="M77.585,73.779h-2.234c-0.225-0.014-0.4-0.193-0.4-0.412l-0.006-11.516
					c0.021-0.209,0.205-0.375,0.432-0.375h2.08c0.195,0.01,0.357,0.143,0.398,0.322v1.76h0.043c0.627-1.574,1.506-2.325,3.055-2.325
					c1.006,0,1.988,0.362,2.617,1.355c0.586,0.921,0.586,2.472,0.586,3.585v7.243c-0.025,0.204-0.207,0.362-0.428,0.362H81.48
					c-0.209-0.014-0.377-0.166-0.4-0.362v-6.249c0-1.261,0.146-3.101-1.402-3.101c-0.545,0-1.047,0.364-1.297,0.92
					c-0.316,0.703-0.357,1.405-0.357,2.181v6.197C78.017,73.595,77.826,73.779,77.585,73.779z"/>
			</g>
			<g>
				<ellipse class="st33" cx="86.667" cy="72.866" rx="1.103" ry="1.048"/>
			</g>
			<g>
				<path d="M109.322,73.783c-0.232-0.007-0.416-0.189-0.416-0.414V61.856c0.016-0.203,0.186-0.364,0.4-0.378h0.824
					c0.227,0,0.412,0.166,0.43,0.378v1.679c0.584-1.329,1.676-2.371,3.055-2.371l0.086,0.002l0.084-0.002
					c1.463,0,2.531,1.078,2.93,2.646c0.619-1.548,1.787-2.646,3.326-2.646l0.08,0.002l0.09-0.002c1.088,0,2.135,0.703,2.68,1.768
					c0.523,1.018,0.502,2.375,0.502,3.513v6.926c0,0.221-0.178,0.399-0.402,0.413h-0.986c-0.211-0.007-0.385-0.158-0.412-0.357
					v-6.981c0-0.823,0.039-1.696-0.295-2.446c-0.342-0.768-0.994-1.246-1.695-1.281c-0.781,0.039-1.5,0.607-1.965,1.379
					c-0.607,0.992-0.586,1.887-0.586,3.051v6.283c-0.029,0.19-0.193,0.34-0.398,0.354h-0.98c-0.232-0.007-0.42-0.189-0.42-0.414
					l-0.004-7.387c0-0.676-0.043-1.475-0.355-2.082c-0.361-0.697-1.012-1.148-1.693-1.184c-0.705,0.039-1.42,0.578-1.844,1.207
					c-0.543,0.8-0.648,1.793-0.648,2.813v6.634c0,0.221-0.178,0.399-0.402,0.413H109.322z"/>
			</g>
			<g>
				<path d="M102.566,74.025c-3.182,0-4.607-3.246-4.607-6.492c0-3.414,1.676-6.369,4.879-6.369h0.08h0.09
					c3.117,0,4.668,3.148,4.668,6.395c0,3.439-1.719,6.467-4.941,6.467l-0.082-0.001L102.566,74.025z M102.8,72.449
					c1.045-0.033,1.871-0.682,2.361-1.766c0.438-0.971,0.521-2.084,0.521-3.15c0-1.162-0.125-2.373-0.668-3.365
					c-0.488-0.87-1.328-1.42-2.221-1.453c-0.99,0.037-1.873,0.707-2.322,1.743c-0.396,0.896-0.521,2.083-0.521,3.075
					c0,1.113,0.146,2.398,0.607,3.367C101.005,71.818,101.867,72.416,102.8,72.449z"/>
			</g>
			<g>
				<path d="M92.623,72.4c1.426-0.045,2.176-1.189,2.488-2.672c0.061-0.186,0.201-0.329,0.412-0.329l0.943-0.003
					c0.223,0.011,0.428,0.182,0.412,0.39c-0.438,2.524-1.961,4.239-4.135,4.239l-0.086-0.001l-0.082,0.001
					c-3.16,0-4.521-3.174-4.521-6.395c0-3.197,1.381-6.467,4.543-6.467h0.082h0.088c2.193,0,3.758,1.689,4.098,4.217
					c0,0.188-0.176,0.352-0.383,0.377l-0.988-0.012c-0.207-0.029-0.342-0.209-0.373-0.407c-0.238-1.41-1.049-2.53-2.398-2.575
					c-2.148,0.068-2.762,2.715-2.762,4.746C89.96,69.47,90.472,72.329,92.623,72.4z"/>
			</g>
			<g>
				<path class="st33" d="M47.705,68.283c0,0.873,0.02,1.602-0.42,2.379c-0.357,0.631-0.924,1.02-1.553,1.02
					c-0.859,0-1.363-0.656-1.363-1.627c0-1.91,1.713-2.258,3.336-2.258V68.283z M49.966,73.75c-0.148,0.133-0.363,0.144-0.531,0.053
					c-0.746-0.617-0.877-0.905-1.285-1.494c-1.23,1.254-2.104,1.631-3.697,1.631c-1.889,0-3.357-1.166-3.357-3.497
					c0-1.819,0.986-3.058,2.391-3.665c1.219-0.533,2.918-0.631,4.219-0.776v-0.292c0-0.534,0.043-1.164-0.273-1.625
					c-0.273-0.412-0.797-0.583-1.258-0.583c-0.855,0-1.617,0.438-1.803,1.347c-0.039,0.202-0.188,0.402-0.391,0.412l-2.172-0.234
					c-0.186-0.043-0.389-0.189-0.336-0.469c0.5-2.638,2.881-3.435,5.016-3.435c1.09,0,2.518,0.291,3.377,1.116
					c1.092,1.021,0.986,2.379,0.986,3.861v3.492c0,1.052,0.438,1.512,0.846,2.078c0.143,0.205,0.178,0.447-0.006,0.598
					c-0.457,0.383-1.273,1.089-1.721,1.488L49.966,73.75z"/>
			</g>
			<g>
				<path class="st33" d="M18.304,68.283c0,0.873,0.021,1.602-0.42,2.379c-0.355,0.631-0.922,1.02-1.551,1.02
					c-0.861,0-1.365-0.656-1.365-1.627c0-1.91,1.715-2.258,3.336-2.258V68.283z M20.566,73.75c-0.148,0.133-0.363,0.144-0.531,0.053
					c-0.744-0.617-0.877-0.905-1.285-1.494c-1.229,1.254-2.102,1.631-3.697,1.631c-1.887,0-3.355-1.166-3.355-3.497
					c0-1.819,0.986-3.058,2.391-3.665c1.217-0.533,2.916-0.631,4.217-0.776v-0.292c0-0.534,0.043-1.164-0.271-1.625
					c-0.273-0.412-0.797-0.583-1.26-0.583c-0.855,0-1.615,0.438-1.803,1.347c-0.039,0.202-0.186,0.402-0.391,0.412l-2.172-0.234
					c-0.184-0.043-0.387-0.189-0.336-0.469c0.5-2.638,2.881-3.435,5.016-3.435c1.092,0,2.518,0.291,3.379,1.116
					c1.09,1.021,0.984,2.379,0.984,3.861v3.492c0,1.052,0.438,1.512,0.848,2.078c0.143,0.205,0.176,0.447-0.008,0.598
					c-0.457,0.383-1.271,1.089-1.719,1.488L20.566,73.75z"/>
			</g>
		</g>
	</g>
</g>
</svg>
