<?xml version="1.0" encoding="utf-8"?>
<!-- Generator: Adobe Illustrator 16.0.0, SVG Export Plug-In . SVG Version: 6.00 Build 0)  -->
<!DOCTYPE svg PUBLIC "-//W3C//DTD SVG 1.1//EN" "http://www.w3.org/Graphics/SVG/1.1/DTD/svg11.dtd">
<svg version="1.1" id="Layer_1" xmlns="http://www.w3.org/2000/svg" xmlns:xlink="http://www.w3.org/1999/xlink" x="0px" y="0px"
	 width="136.833px" height="136.833px" viewBox="0 0 136.833 136.833" style="enable-background:new 0 0 136.833 136.833;"
	 xml:space="preserve">
<style type="text/css">
<![CDATA[
	.st0{fill:#E0E0E0;}
	.st1{fill:#B41F36;}
	.st2{fill:#1A5B80;}
	.st3{fill:#862165;}
	.st4{fill:#1B7EC1;}
	.st5{fill:#EA2227;}
	.st6{fill:#EE3725;}
	.st7{fill:#EE3B3F;}
	.st8{fill-rule:evenodd;clip-rule:evenodd;fill:#E0EFFA;}
	.st9{fill-rule:evenodd;clip-rule:evenodd;fill:#E2E4D5;}
	.st10{fill:#BA6D71;}
	.st11{fill-rule:evenodd;clip-rule:evenodd;fill:#E92F30;}
	.st12{fill:#203D74;}
	.st13{fill:#F16622;}
	.st14{fill:#F16823;}
	.st15{fill:#231F20;}
	.st16{fill:#F26E21;}
	.st17{fill:#F3F2F2;}
	.st18{fill:#F4C82E;}
	.st19{fill-rule:evenodd;clip-rule:evenodd;fill:#1A5B80;}
	.st20{fill-rule:evenodd;clip-rule:evenodd;fill:#1A80AD;}
	.st21{fill:#F5E11C;}
	.st22{fill:#27ADE4;}
	.st23{fill-rule:evenodd;clip-rule:evenodd;fill:#EA2230;}
	.st24{fill-rule:evenodd;clip-rule:evenodd;fill:#EAF3F8;}
	.st25{fill:#F7981D;}
	.st26{fill:#F7AB1B;}
	.st27{fill:#293688;}
	.st28{fill-rule:evenodd;clip-rule:evenodd;fill:#ED1C2E;}
	.st29{fill-rule:evenodd;clip-rule:evenodd;fill:#505F7C;}
	.st30{fill:#931B1D;}
	.st31{fill:#2D78BC;}
	.st32{fill-rule:evenodd;clip-rule:evenodd;fill:#BC202A;}
	.st33{fill-rule:evenodd;clip-rule:evenodd;}
	.st34{fill:#FFDF1B;}
	.st35{fill:#FFFFFF;}
	.st36{fill-rule:evenodd;clip-rule:evenodd;fill:#231F20;}
	.st37{fill:#65B1E2;}
	.st38{fill-rule:evenodd;clip-rule:evenodd;fill:#F4C82E;}
	.st39{fill:#9A847A;}
	.st40{fill:#CA3092;}
	.st41{fill:#CB2026;}
	.st42{fill:#686969;}
	.st43{fill-rule:evenodd;clip-rule:evenodd;fill:#F7981D;}
	.st44{fill:#CC1B69;}
	.st45{fill:#305499;}
	.st46{fill:#329947;}
	.st47{fill:#6BB745;}
	.st48{fill:#003473;}
	.st49{fill:#00529E;}
	.st50{fill:#005595;}
	.st51{fill:#005B84;}
	.st52{fill:#005E88;}
	.st53{fill:#0063A6;}
	.st54{fill:#008061;}
	.st55{fill:#0095C3;}
	.st56{fill:#009DA5;}
	.st57{fill:#00A051;}
	.st58{fill:#D0D1D1;}
	.st59{fill-rule:evenodd;clip-rule:evenodd;fill:#FFFFFF;}
	.st60{fill:#D19EA0;}
	.st61{fill:#0356A2;}
	.st62{fill:#D29EA1;}
	.st63{fill:#0468B2;}
	.st64{fill:#D32259;}
	.st65{fill:#055D77;}
	.st66{fill-rule:evenodd;clip-rule:evenodd;fill:#65B1E2;}
	.st67{fill:#0683C2;}
	.st68{fill:#0872B9;}
	.st69{fill:#3C80AD;}
	.st70{fill-rule:evenodd;clip-rule:evenodd;fill:#32357F;}
	.st71{fill:#A23C42;}
	.st72{fill:#0B161F;}
	.st73{fill:#0C4875;}
	.st74{fill:#0F549D;}
	.st75{fill-rule:evenodd;clip-rule:evenodd;fill:#005595;}
	.st76{fill-rule:evenodd;clip-rule:evenodd;fill:#009DDD;}
	.st77{fill:#DEBBBC;}
	.st78{fill:#43567E;}
	.st79{fill-rule:evenodd;clip-rule:evenodd;fill:#D2D2D2;}
]]>
</style>
<g>
	<g>
		<g>
			<circle class="st21" cx="68.416" cy="68.417" r="63.333"/>
		</g>
	</g>
	<g>
		<g>
			<g>
				<path class="st61" d="M22.899,59.774c0.602-0.25,1.299-0.351,1.949-0.351c1.297,0,2.396,0.4,3.195,1.199
					c0.85,0.799,1.301,1.948,1.447,3.346c0.102,1,0,2.098-0.299,3.246c-0.25,1.148-0.648,2.146-1.199,2.997
					c-0.598,1.048-1.396,1.848-2.396,2.396c-0.799,0.499-1.697,0.749-2.697,0.849V71.46c0.352-0.102,0.699-0.25,1-0.4
					c0.65-0.4,1.199-0.999,1.648-1.797c0.449-0.8,0.799-1.648,1.049-2.598c0.248-0.949,0.299-1.848,0.248-2.697
					c-0.1-0.898-0.398-1.598-0.898-2.146c-0.549-0.55-1.248-0.799-2.047-0.799c-0.35,0-0.699,0.049-1,0.15V59.774z M14.062,78.25
					l3.445-15.131c0.102-0.599,0.199-1.147,0.299-1.747c0.051-0.6,0.102-1.15,0.15-1.748h2.398l-0.201,2.047
					c0.75-0.748,1.5-1.349,2.248-1.697c0.15-0.102,0.35-0.15,0.498-0.2v1.399c-0.348,0.099-0.697,0.299-1.049,0.498
					c-0.646,0.449-1.197,1.1-1.598,1.898c-0.449,0.799-0.799,1.746-1.047,2.795c-0.25,1.1-0.301,1.947-0.25,2.648
					c0.049,0.798,0.35,1.396,0.848,1.896c0.5,0.449,1.15,0.699,1.947,0.699c0.4,0,0.801-0.05,1.148-0.148v1.996
					c-0.148,0-0.299,0-0.449,0c-0.947,0-1.697-0.199-2.396-0.549c-0.648-0.35-1.248-0.9-1.748-1.599l-1.598,6.941H14.062z"/>
			</g>
			<g>
				<path class="st61" d="M86.972,61.771c-0.299,0-0.549,0.051-0.848,0.1v-1.947c0.148-0.051,0.248-0.1,0.35-0.149
					c0.697-0.351,1.498-0.5,2.346-0.5c1.299,0,2.348,0.399,3.096,1.149c0.75,0.75,1.199,1.848,1.299,3.295
					c0.25,2.697-0.25,4.994-1.549,6.842c-1.248,1.898-2.945,2.847-5.043,2.847c-0.148,0-0.35-0.05-0.498-0.05V70.76
					c0.299-0.049,0.598-0.2,0.848-0.399c0.449-0.35,0.799-0.849,1.148-1.549c0.35-0.749,0.65-1.598,0.85-2.496
					c0.199-0.899,0.25-1.648,0.199-2.297c-0.049-0.749-0.299-1.299-0.648-1.648C88.12,61.972,87.62,61.771,86.972,61.771z
					 M86.124,61.871c-0.801,0.25-1.5,0.9-2.049,1.848c-0.799,1.348-1.1,2.848-0.947,4.495c0.098,0.849,0.299,1.499,0.748,1.946
					c0.398,0.451,0.949,0.701,1.646,0.701c0.201,0,0.4-0.051,0.602-0.101v2.597c-0.75-0.049-1.4-0.25-1.949-0.549
					c-0.699-0.35-1.248-0.949-1.646-1.697l-1.6,7.14h-4.145l3.197-14.48c0.398-1.849,0.648-3.247,0.748-4.146h3.746l-0.1,1.647
					c0.598-0.55,1.146-0.999,1.748-1.349V61.871z"/>
			</g>
			<g>
				<path class="st61" d="M102.552,66.715c-0.1-0.05-0.199-0.05-0.299-0.05c-0.15,0-0.25,0-0.449,0c-0.65,0-1.248,0.05-1.748,0.199
					v-2.197c0.549-0.05,1.199-0.05,1.848-0.05c0.299,0,0.549,0,0.699,0s0.299,0,0.449,0c0.1-0.499,0.199-0.848,0.199-1.149
					c0.051-0.25,0.051-0.447,0.051-0.648c-0.051-0.4-0.199-0.699-0.5-0.898c-0.25-0.199-0.648-0.301-1.148-0.301
					c-0.6,0-1.049,0.15-1.348,0.4c-0.102,0.1-0.199,0.149-0.25,0.301v-2.798c0.5-0.101,1.049-0.101,1.598-0.101
					c1.748,0,3.047,0.25,3.996,0.85c0.898,0.6,1.398,1.449,1.498,2.597c0.051,0.349,0.051,0.7,0,1.099
					c-0.051,0.35-0.15,0.799-0.252,1.25l-1.047,4.593c-0.15,0.55-0.199,1.099-0.301,1.699c-0.049,0.598-0.049,1.147-0.049,1.747
					h-3.795c0-0.299,0-0.6,0-0.949s0.049-0.648,0.049-0.999c-0.498,0.698-1.098,1.249-1.697,1.549V70.76
					c0.4-0.2,0.799-0.499,1.199-0.949C101.903,69.013,102.353,67.963,102.552,66.715z M100.056,66.865
					c-0.549,0.15-0.998,0.35-1.398,0.649c-0.85,0.549-1.197,1.249-1.1,2.048c0,0.449,0.15,0.799,0.451,1.049
					c0.25,0.25,0.598,0.35,1.049,0.35c0.35,0,0.699-0.051,0.998-0.2v2.098l-0.102,0.05c-0.646,0.35-1.348,0.549-2.195,0.549
					c-1.199,0-2.148-0.35-2.896-0.998c-0.75-0.649-1.148-1.498-1.248-2.598c-0.15-1.697,0.498-2.996,1.896-3.895
					c1.098-0.699,2.598-1.148,4.545-1.299V66.865L100.056,66.865z M100.056,59.524v2.798c-0.199,0.249-0.299,0.598-0.4,0.998h-3.943
					c0.1-1.25,0.699-2.197,1.697-2.896C98.157,59.974,99.007,59.673,100.056,59.524z"/>
			</g>
			<g>
				<polygon class="st61" points="107.847,78.202 111.142,73.208 108.745,59.524 112.841,59.524 113.989,68.914 119.282,59.524 
					123.179,59.524 114.688,73.757 112.241,78.202 				"/>
			</g>
			<g>
				<path class="st61" d="M37.333,60.923c-0.35,0-0.65,0.049-0.998,0.148v-1.746c0.398-0.052,0.848-0.052,1.297-0.052
					c1.598,0,2.848,0.399,3.797,1.149c0.998,0.799,1.498,1.898,1.646,3.295c0.102,1.1,0,2.299-0.35,3.546
					c-0.299,1.249-0.748,2.347-1.348,3.246c-0.699,1.049-1.498,1.798-2.496,2.247c-0.701,0.35-1.549,0.551-2.547,0.649V71.66
					c0.398-0.101,0.799-0.25,1.098-0.449c0.6-0.35,1.1-0.9,1.547-1.648c0.5-0.85,0.852-1.799,1.1-2.847
					c0.25-1.099,0.35-1.997,0.301-2.797c-0.102-1.049-0.4-1.798-0.9-2.247C38.979,61.173,38.282,60.923,37.333,60.923z
					 M36.335,61.072c-0.352,0.102-0.75,0.25-1.1,0.45c-0.6,0.45-1.148,1.049-1.598,1.848c-0.449,0.749-0.801,1.647-1.049,2.745
					c-0.25,1.1-0.301,2.049-0.25,2.848c0.049,0.898,0.398,1.548,0.898,2.048c0.551,0.5,1.25,0.749,2.146,0.749
					c0.35,0,0.65-0.051,0.951-0.1v1.747c-0.352,0-0.75,0.05-1.15,0.05c-1.598,0-2.896-0.398-3.844-1.248
					c-1-0.799-1.549-1.947-1.648-3.396c-0.1-1.197,0-2.396,0.398-3.694c0.352-1.299,0.85-2.397,1.549-3.347
					c0.648-0.848,1.447-1.448,2.447-1.898c0.65-0.248,1.449-0.449,2.248-0.547V61.072z"/>
			</g>
			<g>
				<path class="st61" d="M45.823,68.763c-0.1,0.25-0.152,0.449-0.152,0.648c-0.049,0.199-0.049,0.35,0,0.5
					c0.053,0.55,0.252,0.949,0.65,1.199c0.398,0.299,0.949,0.399,1.748,0.399c1.049,0,1.848-0.201,2.447-0.601
					c0.6-0.448,0.85-0.998,0.801-1.646c0-0.4-0.201-0.75-0.553-1.05c-0.348-0.3-1.047-0.699-2.146-1.198
					c-1.398-0.65-2.396-1.248-2.947-1.797c-0.598-0.5-0.896-1.149-0.947-1.849c-0.1-1.199,0.35-2.147,1.299-2.946
					c1-0.75,2.348-1.149,4.045-1.149c1.549,0,2.697,0.25,3.445,0.7c0.799,0.449,1.199,1.098,1.299,2.047c0,0.149,0,0.301,0,0.5
					c0,0.148,0,0.398-0.051,0.749h-2.447c0-0.15,0-0.3,0-0.4c0-0.099,0-0.249,0-0.349c-0.049-0.5-0.248-0.9-0.648-1.148
					c-0.348-0.25-0.9-0.4-1.648-0.4c-0.848,0-1.498,0.201-1.947,0.55c-0.498,0.349-0.699,0.849-0.65,1.448
					c0.051,0.35,0.201,0.699,0.551,0.948c0.299,0.3,1.049,0.699,2.197,1.248c1.598,0.75,2.697,1.399,3.146,1.899
					c0.449,0.497,0.748,1.147,0.799,1.896c0.1,1.249-0.398,2.347-1.598,3.197c-1.148,0.848-2.697,1.297-4.596,1.297
					c-1.498,0-2.646-0.3-3.545-0.799c-0.85-0.55-1.299-1.299-1.398-2.297c-0.049-0.201-0.049-0.449,0-0.75
					c0.051-0.25,0.1-0.549,0.15-0.848H45.823z"/>
			</g>
			<g>
				<path class="st61" d="M62.251,73.257c-0.498,0.051-0.947,0.1-1.348,0.149c-0.398,0-0.799,0.05-1.148,0.05
					c-0.998,0-1.746-0.148-2.197-0.498c-0.498-0.301-0.748-0.851-0.799-1.6c-0.049-0.248,0-0.699,0.051-1.248
					c0.049-0.599,0.199-1.197,0.299-1.848l1.549-6.791h-2.498l0.449-1.748h2.447l0.699-3.096l2.646-0.65l-0.797,3.746h2.945
					l-0.398,1.748h-2.947l-1.498,7.092c-0.15,0.547-0.25,0.948-0.25,1.197c-0.051,0.3-0.1,0.5-0.051,0.648
					c0,0.4,0.15,0.65,0.4,0.801c0.25,0.199,0.699,0.3,1.299,0.3c0.199,0,0.5-0.05,0.799-0.101c0.248,0,0.549-0.101,0.799-0.15
					L62.251,73.257z"/>
			</g>
			<g>
				<path class="st61" d="M70.892,64.868h3.395c0.051-0.45,0.102-0.799,0.102-1.049c0.051-0.249,0.051-0.449,0-0.649
					c-0.051-0.75-0.35-1.299-0.85-1.697c-0.549-0.4-1.248-0.649-2.146-0.649c-0.15,0-0.35,0.05-0.5,0.05v-1.647
					c0.201,0,0.35,0,0.549,0c1.748,0,3.096,0.349,3.996,0.997c0.848,0.65,1.396,1.699,1.498,3.147c0.051,0.499,0.051,1.048,0,1.599
					c0,0.549-0.102,1.146-0.25,1.747h-5.793V64.868L70.892,64.868z M70.892,73.357v-2.048c0.299-0.099,0.6-0.249,0.848-0.399
					c0.6-0.399,1.049-0.998,1.299-1.746h2.947c-0.35,1.347-1.098,2.396-2.248,3.145C72.938,72.858,71.989,73.208,70.892,73.357z
					 M67.396,64.868h3.496v1.848h-3.945c-0.15,0.399-0.199,0.749-0.25,1.149c-0.049,0.349-0.049,0.699-0.049,0.998
					c0.1,0.85,0.398,1.498,0.898,1.947c0.549,0.449,1.248,0.7,2.197,0.7c0.398,0,0.797-0.05,1.148-0.201v2.048
					c-0.449,0.05-0.949,0.1-1.449,0.1c-1.598,0-2.846-0.398-3.795-1.148c-0.898-0.749-1.447-1.847-1.547-3.246
					c-0.102-1.049,0-2.246,0.35-3.596c0.299-1.298,0.799-2.445,1.348-3.396c0.6-0.896,1.398-1.646,2.346-2.096
					c0.801-0.45,1.699-0.648,2.748-0.749v1.647c-0.799,0.1-1.498,0.399-2.047,0.998C68.144,62.521,67.646,63.52,67.396,64.868z"/>
			</g>
		</g>
	</g>
</g>
</svg>
