<?xml version="1.0" encoding="utf-8"?>
<!-- Generator: Adobe Illustrator 16.0.0, SVG Export Plug-In . SVG Version: 6.00 Build 0)  -->
<!DOCTYPE svg PUBLIC "-//W3C//DTD SVG 1.1//EN" "http://www.w3.org/Graphics/SVG/1.1/DTD/svg11.dtd">
<svg version="1.1" id="Layer_1" xmlns="http://www.w3.org/2000/svg" xmlns:xlink="http://www.w3.org/1999/xlink" x="0px" y="0px"
	 width="136.833px" height="136.833px" viewBox="0 0 136.833 136.833" style="enable-background:new 0 0 136.833 136.833;"
	 xml:space="preserve">
<style type="text/css">
<![CDATA[
	.st0{fill:#E0E0E0;}
	.st1{fill:#B41F36;}
	.st2{fill:#1A5B80;}
	.st3{fill:#862165;}
	.st4{fill:#1B7EC1;}
	.st5{fill:#EA2227;}
	.st6{fill:#EE3725;}
	.st7{fill:#EE3B3F;}
	.st8{fill-rule:evenodd;clip-rule:evenodd;fill:#E0EFFA;}
	.st9{fill-rule:evenodd;clip-rule:evenodd;fill:#E2E4D5;}
	.st10{fill:#BA6D71;}
	.st11{fill-rule:evenodd;clip-rule:evenodd;fill:#E92F30;}
	.st12{fill:#203D74;}
	.st13{fill:#F16622;}
	.st14{fill:#F16823;}
	.st15{fill:#231F20;}
	.st16{fill:#F26E21;}
	.st17{fill:#F3F2F2;}
	.st18{fill:#F4C82E;}
	.st19{fill-rule:evenodd;clip-rule:evenodd;fill:#1A5B80;}
	.st20{fill-rule:evenodd;clip-rule:evenodd;fill:#1A80AD;}
	.st21{fill:#F5E11C;}
	.st22{fill:#27ADE4;}
	.st23{fill-rule:evenodd;clip-rule:evenodd;fill:#EA2230;}
	.st24{fill-rule:evenodd;clip-rule:evenodd;fill:#EAF3F8;}
	.st25{fill:#F7981D;}
	.st26{fill:#F7AB1B;}
	.st27{fill:#293688;}
	.st28{fill-rule:evenodd;clip-rule:evenodd;fill:#ED1C2E;}
	.st29{fill-rule:evenodd;clip-rule:evenodd;fill:#505F7C;}
	.st30{fill:#931B1D;}
	.st31{fill:#2D78BC;}
	.st32{fill-rule:evenodd;clip-rule:evenodd;fill:#BC202A;}
	.st33{fill-rule:evenodd;clip-rule:evenodd;}
	.st34{fill:#FFDF1B;}
	.st35{fill:#FFFFFF;}
	.st36{fill-rule:evenodd;clip-rule:evenodd;fill:#231F20;}
	.st37{fill:#65B1E2;}
	.st38{fill-rule:evenodd;clip-rule:evenodd;fill:#F4C82E;}
	.st39{fill:#9A847A;}
	.st40{fill:#CA3092;}
	.st41{fill:#CB2026;}
	.st42{fill:#686969;}
	.st43{fill-rule:evenodd;clip-rule:evenodd;fill:#F7981D;}
	.st44{fill:#CC1B69;}
	.st45{fill:#305499;}
	.st46{fill:#329947;}
	.st47{fill:#6BB745;}
	.st48{fill:#003473;}
	.st49{fill:#00529E;}
	.st50{fill:#005595;}
	.st51{fill:#005B84;}
	.st52{fill:#005E88;}
	.st53{fill:#0063A6;}
	.st54{fill:#008061;}
	.st55{fill:#0095C3;}
	.st56{fill:#009DA5;}
	.st57{fill:#00A051;}
	.st58{fill:#D0D1D1;}
	.st59{fill-rule:evenodd;clip-rule:evenodd;fill:#FFFFFF;}
	.st60{fill:#D19EA0;}
	.st61{fill:#0356A2;}
	.st62{fill:#D29EA1;}
	.st63{fill:#0468B2;}
	.st64{fill:#D32259;}
	.st65{fill:#055D77;}
	.st66{fill-rule:evenodd;clip-rule:evenodd;fill:#65B1E2;}
	.st67{fill:#0683C2;}
	.st68{fill:#0872B9;}
	.st69{fill:#3C80AD;}
	.st70{fill-rule:evenodd;clip-rule:evenodd;fill:#32357F;}
	.st71{fill:#A23C42;}
	.st72{fill:#0B161F;}
	.st73{fill:#0C4875;}
	.st74{fill:#0F549D;}
	.st75{fill-rule:evenodd;clip-rule:evenodd;fill:#005595;}
	.st76{fill-rule:evenodd;clip-rule:evenodd;fill:#009DDD;}
	.st77{fill:#DEBBBC;}
	.st78{fill:#43567E;}
	.st79{fill-rule:evenodd;clip-rule:evenodd;fill:#D2D2D2;}
]]>
</style>
<g>
	<g>
		<g>
			<circle class="st17" cx="68.417" cy="68.417" r="63.333"/>
		</g>
	</g>
	<g>
		<g>
			<polygon class="st70" points="64.862,54.082 56.699,54.082 56.699,93.996 64.862,93.996 64.862,54.082 			"/>
		</g>
		<g>
			<path class="st70" d="M72.344,54.148v7.483h6.872v22.518c0,3.106,0.854,5.602,2.494,7.484c1.641,1.946,3.829,2.91,6.586,2.976
				c2.736,0.064,5.165-0.547,7.222-1.815l0.132-0.066v-0.132l1.947-7.593l-0.481,0.306c-2.188,1.336-4.202,1.992-6.04,1.992
				c-2.538,0-3.829-1.511-3.829-4.486V61.631h8.339v-7.483h-8.339V41.674l-8.03,4.312v8.162H72.344L72.344,54.148z"/>
		</g>
		<g>
			<polygon class="st70" points="111.843,54.082 103.615,54.082 103.615,93.996 111.843,93.996 111.843,54.082 			"/>
		</g>
		<g>
			<path class="st70" d="M52.016,60.363l-0.175-0.131c-3.764-4.574-8.468-6.807-14.114-6.807c-5.907,0-10.767,1.816-14.661,5.406
				c-4.136,3.785-6.215,8.883-6.215,15.273c0,6.389,2.079,11.445,6.215,15.273c3.83,3.589,8.754,5.361,14.661,5.361
				c5.646,0,10.394-2.254,14.114-6.762l0.175-0.131l-4.617-5.58l-0.175,0.174c-2.997,2.977-6.215,4.509-9.672,4.509
				c-3.611,0-6.586-1.226-8.95-3.655c-2.386-2.385-3.522-5.471-3.522-9.189c0-3.721,1.137-6.827,3.522-9.256
				c2.364-2.364,5.339-3.59,8.95-3.59c3.457,0,6.675,1.531,9.672,4.508l0.175,0.176L52.016,60.363L52.016,60.363z"/>
		</g>
		<g>
			<path class="st23" d="M60.725,47.519c3.217-3.283,6.806-5.778,10.897-7.551c3.938-1.707,8.141-2.539,12.473-2.539
				c4.312,0,8.513,0.832,12.539,2.539c4.004,1.772,7.594,4.268,10.811,7.551l0.131,0.108h9.365l-0.351-0.548
				c-3.72-5.229-8.533-9.365-14.311-12.385c-5.776-2.997-11.794-4.465-18.185-4.465c-6.323,0-12.429,1.468-18.206,4.465
				c-5.776,3.02-10.59,7.156-14.288,12.385l-0.373,0.548h9.432L60.725,47.519L60.725,47.519z"/>
		</g>
		<g>
			<polygon class="st70" points="64.862,54.082 56.699,54.082 56.699,93.996 64.862,93.996 64.862,54.082 			"/>
		</g>
		<g>
			<path class="st70" d="M72.344,54.148v7.483h6.872v22.518c0,3.106,0.854,5.602,2.494,7.484c1.641,1.946,3.829,2.91,6.586,2.976
				c2.736,0.064,5.165-0.547,7.222-1.815l0.132-0.066v-0.132l1.947-7.593l-0.481,0.306c-2.188,1.336-4.202,1.992-6.04,1.992
				c-2.538,0-3.829-1.511-3.829-4.486V61.631h8.339v-7.483h-8.339V41.674l-8.03,4.312v8.162H72.344L72.344,54.148z"/>
		</g>
		<g>
			<polygon class="st70" points="111.843,54.082 103.615,54.082 103.615,93.996 111.843,93.996 111.843,54.082 			"/>
		</g>
		<g>
			<path class="st70" d="M52.016,60.363l-0.175-0.131c-3.764-4.574-8.468-6.807-14.114-6.807c-5.907,0-10.767,1.816-14.661,5.406
				c-4.136,3.785-6.215,8.883-6.215,15.273c0,6.389,2.079,11.445,6.215,15.273c3.83,3.589,8.754,5.361,14.661,5.361
				c5.646,0,10.394-2.254,14.114-6.762l0.175-0.131l-4.617-5.58l-0.175,0.174c-2.997,2.977-6.215,4.509-9.672,4.509
				c-3.611,0-6.586-1.226-8.95-3.655c-2.386-2.385-3.522-5.471-3.522-9.189c0-3.721,1.137-6.827,3.522-9.256
				c2.364-2.364,5.339-3.59,8.95-3.59c3.457,0,6.675,1.531,9.672,4.508l0.175,0.176L52.016,60.363L52.016,60.363z"/>
		</g>
		<g>
			<path class="st11" d="M60.725,47.519c3.217-3.283,6.806-5.778,10.897-7.551c3.938-1.707,8.141-2.539,12.473-2.539
				c4.312,0,8.513,0.832,12.539,2.539c4.004,1.772,7.594,4.268,10.811,7.551l0.131,0.108h9.365l-0.351-0.548
				c-3.72-5.229-8.533-9.365-14.311-12.385c-5.776-2.997-11.794-4.465-18.185-4.465c-6.323,0-12.429,1.468-18.206,4.465
				c-5.776,3.02-10.59,7.156-14.288,12.385l-0.373,0.548h9.432L60.725,47.519L60.725,47.519z"/>
		</g>
	</g>
</g>
</svg>
