<?xml version="1.0" encoding="utf-8"?>
<!-- Generator: Adobe Illustrator 16.0.0, SVG Export Plug-In . SVG Version: 6.00 Build 0)  -->
<!DOCTYPE svg PUBLIC "-//W3C//DTD SVG 1.1//EN" "http://www.w3.org/Graphics/SVG/1.1/DTD/svg11.dtd">
<svg version="1.1" id="Layer_1" xmlns="http://www.w3.org/2000/svg" xmlns:xlink="http://www.w3.org/1999/xlink" x="0px" y="0px"
	 width="136.833px" height="136.834px" viewBox="0 0 136.833 136.834" style="enable-background:new 0 0 136.833 136.834;"
	 xml:space="preserve">
<style type="text/css">
<![CDATA[
	.st0{fill:#E0E0E0;}
	.st1{fill:#B41F36;}
	.st2{fill:#1A5B80;}
	.st3{fill:#862165;}
	.st4{fill:#1B7EC1;}
	.st5{fill:#EA2227;}
	.st6{fill:#EE3725;}
	.st7{fill:#EE3B3F;}
	.st8{fill-rule:evenodd;clip-rule:evenodd;fill:#E0EFFA;}
	.st9{fill-rule:evenodd;clip-rule:evenodd;fill:#E2E4D5;}
	.st10{fill:#BA6D71;}
	.st11{fill-rule:evenodd;clip-rule:evenodd;fill:#E92F30;}
	.st12{fill:#203D74;}
	.st13{fill:#F16622;}
	.st14{fill:#F16823;}
	.st15{fill:#231F20;}
	.st16{fill:#F26E21;}
	.st17{fill:#F3F2F2;}
	.st18{fill:#F4C82E;}
	.st19{fill-rule:evenodd;clip-rule:evenodd;fill:#1A5B80;}
	.st20{fill-rule:evenodd;clip-rule:evenodd;fill:#1A80AD;}
	.st21{fill:#F5E11C;}
	.st22{fill:#27ADE4;}
	.st23{fill-rule:evenodd;clip-rule:evenodd;fill:#EA2230;}
	.st24{fill-rule:evenodd;clip-rule:evenodd;fill:#EAF3F8;}
	.st25{fill:#F7981D;}
	.st26{fill:#F7AB1B;}
	.st27{fill:#293688;}
	.st28{fill-rule:evenodd;clip-rule:evenodd;fill:#ED1C2E;}
	.st29{fill-rule:evenodd;clip-rule:evenodd;fill:#505F7C;}
	.st30{fill:#931B1D;}
	.st31{fill:#2D78BC;}
	.st32{fill-rule:evenodd;clip-rule:evenodd;fill:#BC202A;}
	.st33{fill-rule:evenodd;clip-rule:evenodd;}
	.st34{fill:#FFDF1B;}
	.st35{fill:#FFFFFF;}
	.st36{fill-rule:evenodd;clip-rule:evenodd;fill:#231F20;}
	.st37{fill:#65B1E2;}
	.st38{fill-rule:evenodd;clip-rule:evenodd;fill:#F4C82E;}
	.st39{fill:#9A847A;}
	.st40{fill:#CA3092;}
	.st41{fill:#CB2026;}
	.st42{fill:#686969;}
	.st43{fill-rule:evenodd;clip-rule:evenodd;fill:#F7981D;}
	.st44{fill:#CC1B69;}
	.st45{fill:#305499;}
	.st46{fill:#329947;}
	.st47{fill:#6BB745;}
	.st48{fill:#003473;}
	.st49{fill:#00529E;}
	.st50{fill:#005595;}
	.st51{fill:#005B84;}
	.st52{fill:#005E88;}
	.st53{fill:#0063A6;}
	.st54{fill:#008061;}
	.st55{fill:#0095C3;}
	.st56{fill:#009DA5;}
	.st57{fill:#00A051;}
	.st58{fill:#D0D1D1;}
	.st59{fill-rule:evenodd;clip-rule:evenodd;fill:#FFFFFF;}
	.st60{fill:#D19EA0;}
	.st61{fill:#0356A2;}
	.st62{fill:#D29EA1;}
	.st63{fill:#0468B2;}
	.st64{fill:#D32259;}
	.st65{fill:#055D77;}
	.st66{fill-rule:evenodd;clip-rule:evenodd;fill:#65B1E2;}
	.st67{fill:#0683C2;}
	.st68{fill:#0872B9;}
	.st69{fill:#3C80AD;}
	.st70{fill-rule:evenodd;clip-rule:evenodd;fill:#32357F;}
	.st71{fill:#A23C42;}
	.st72{fill:#0B161F;}
	.st73{fill:#0C4875;}
	.st74{fill:#0F549D;}
	.st75{fill-rule:evenodd;clip-rule:evenodd;fill:#005595;}
	.st76{fill-rule:evenodd;clip-rule:evenodd;fill:#009DDD;}
	.st77{fill:#DEBBBC;}
	.st78{fill:#43567E;}
	.st79{fill-rule:evenodd;clip-rule:evenodd;fill:#D2D2D2;}
]]>
</style>
<g>
	<g>
		<g>
			<circle class="st12" cx="68.417" cy="68.417" r="63.333"/>
		</g>
	</g>
	<g>
		<g>
			<g>
				<path class="st5" d="M58.928,5.794C28.453,10.372,5.083,36.663,5.083,68.417c0,21.66,10.882,40.773,27.469,52.193L58.358,7.323
					C58.477,6.798,58.674,6.286,58.928,5.794z"/>
			</g>
			<g>
				<path class="st68" d="M58.928,5.794c-0.254,0.492-0.451,1.004-0.57,1.529L32.552,120.61c8.563,5.896,18.642,9.744,29.539,10.824
					L90.006,8.864c-6.738-2.443-14.008-3.781-21.591-3.781C65.191,5.083,62.024,5.329,58.928,5.794z"/>
			</g>
			<g>
				<path class="st56" d="M68.416,131.751c34.979,0,63.334-28.357,63.334-63.334c0-27.396-17.396-50.725-41.743-59.553
					l-27.915,122.57C64.171,131.642,66.281,131.751,68.416,131.751z"/>
			</g>
		</g>
		<g>
			<path class="st35" d="M61.475,75.808h0.496c0.459,0,0.766-0.156,0.91-0.459l1.293-1.936h3.465l-0.723,1.271h4.152l-0.526,1.951
				H65.6c-0.568,0.857-1.27,1.26-2.111,1.213h-2.574L61.475,75.808 M60.905,78.601h9.1l-0.58,2.119h-3.659l-0.559,2.047h3.562
				l-0.58,2.117h-3.561l-0.828,3.023c-0.204,0.506,0.064,0.732,0.805,0.68h2.9l-0.537,1.971h-5.571
				c-1.056,0-1.419-0.605-1.087-1.816l1.057-3.857H59.09l0.578-2.117h2.276l0.558-2.047h-2.175L60.905,78.601z M75.428,73.397
				l-0.143,1.24c0,0,1.715-1.287,3.274-1.287h5.761l-2.203,7.973c-0.184,0.912-0.967,1.365-2.35,1.365h-6.529l-1.529,5.6
				c-0.088,0.299,0.037,0.453,0.366,0.453h1.284l-0.472,1.738h-3.267c-1.253,0-1.774-0.377-1.567-1.135l4.321-15.947H75.428z
				 M80.305,75.651h-5.141l-0.615,2.152c0,0,0.856-0.619,2.287-0.641c1.428-0.021,3.056,0,3.056,0L80.305,75.651z M78.443,80.644
				c0.38,0.051,0.593-0.1,0.618-0.455l0.315-1.133h-5.149l-0.432,1.588H78.443z M74.97,83.22h2.968l-0.055,1.283h0.79
				c0.399,0,0.597-0.127,0.597-0.379l0.234-0.832h2.467l-0.33,1.211c-0.277,1.012-1.018,1.537-2.217,1.59h-1.581l-0.007,2.195
				c-0.029,0.352,0.289,0.531,0.943,0.531h1.486l-0.48,1.738h-3.564c-0.998,0.047-1.488-0.43-1.479-1.439L74.97,83.22z"/>
		</g>
		<g>
			<path class="st35" d="M87.584,75.894l0.688-2.422h3.48l-0.15,0.889c0,0,1.778-0.889,3.06-0.889c1.28,0,4.304,0,4.304,0
				l-0.685,2.422h-0.677l-3.246,11.424h0.677l-0.644,2.27h-0.678l-0.281,0.984h-3.371l0.282-0.984h-6.649l0.648-2.27h0.666
				l3.249-11.424H87.584 M91.338,75.894l-0.885,3.092c0,0,1.515-0.582,2.821-0.746c0.289-1.08,0.666-2.346,0.666-2.346H91.338z
				 M90.043,80.435l-0.889,3.238c0,0,1.679-0.824,2.832-0.896c0.332-1.252,0.666-2.342,0.666-2.342H90.043z M90.695,87.317
				l0.666-2.35h-2.599l-0.669,2.35H90.695z M99.112,73.321h3.271l0.139,1.207c-0.021,0.307,0.161,0.453,0.549,0.453h0.578
				l-0.585,2.047h-2.405c-0.918,0.047-1.391-0.303-1.434-1.063L99.112,73.321z M98.153,77.708h10.598l-0.623,2.195h-3.373
				l-0.578,2.043h3.37l-0.626,2.191h-3.754l-0.85,1.285h1.838l0.424,2.572c0.051,0.256,0.278,0.381,0.666,0.381h0.57l-0.6,2.117
				h-2.02c-1.047,0.053-1.588-0.299-1.633-1.057l-0.486-2.35l-1.672,2.5c-0.396,0.707-1.004,1.035-1.822,0.984h-3.086l0.601-2.119
				h0.962c0.396,0,0.725-0.176,1.021-0.531l2.617-3.783h-3.375l0.626-2.191h3.659l0.582-2.043h-3.662L98.153,77.708z"/>
		</g>
		<g>
			<path class="st35" d="M39.006,62.774c-0.403,1.973-1.336,3.486-2.783,4.563c-1.435,1.059-3.285,1.588-5.55,1.588
				c-2.132,0-3.694-0.541-4.691-1.627c-0.691-0.773-1.036-1.754-1.036-2.939c0-0.49,0.059-1.018,0.176-1.584l2.414-11.637h3.645
				l-2.381,11.504c-0.073,0.32-0.103,0.615-0.099,0.883c-0.004,0.59,0.144,1.074,0.438,1.451c0.433,0.559,1.133,0.836,2.108,0.836
				c1.122,0,2.046-0.273,2.763-0.826c0.718-0.551,1.186-1.328,1.396-2.344l2.388-11.504h3.626L39.006,62.774"/>
		</g>
		<g>
			<path class="st35" d="M42.364,58.192h2.574l-0.295,1.5l0.369-0.426c0.835-0.895,1.849-1.338,3.045-1.338
				c1.083,0,1.864,0.314,2.355,0.949c0.482,0.633,0.613,1.508,0.386,2.631l-1.418,7.076h-2.646l1.28-6.414
				c0.132-0.662,0.095-1.156-0.108-1.475c-0.201-0.318-0.586-0.477-1.139-0.477c-0.682,0-1.254,0.213-1.721,0.633
				c-0.469,0.426-0.777,1.014-0.93,1.764l-1.18,5.969h-2.651L42.364,58.192"/>
		</g>
		<g>
			<path class="st35" d="M71.885,58.192h2.576l-0.293,1.5l0.366-0.426c0.835-0.895,1.853-1.338,3.045-1.338
				c1.083,0,1.866,0.314,2.353,0.949c0.48,0.633,0.619,1.508,0.385,2.631l-1.412,7.076h-2.65l1.281-6.414
				c0.132-0.662,0.095-1.156-0.105-1.475c-0.209-0.318-0.586-0.477-1.139-0.477c-0.681,0-1.252,0.213-1.724,0.633
				c-0.468,0.426-0.78,1.014-0.926,1.764l-1.186,5.969h-2.647L71.885,58.192"/>
		</g>
		<g>
			<path class="st35" d="M54.313,58.196h2.854l-2.236,10.385h-2.849L54.313,58.196 M55.211,54.413h2.88l-0.538,2.521h-2.88
				L55.211,54.413z"/>
		</g>
		<g>
			<path class="st35" d="M59.694,67.792c-0.746-0.715-1.123-1.676-1.127-2.898c0-0.209,0.013-0.447,0.04-0.707
				c0.028-0.264,0.063-0.52,0.112-0.758c0.338-1.686,1.059-3.025,2.17-4.014c1.108-0.992,2.446-1.49,4.012-1.49
				c1.283,0,2.301,0.359,3.045,1.076c0.745,0.723,1.118,1.695,1.118,2.934c0,0.211-0.017,0.457-0.044,0.719
				c-0.033,0.268-0.073,0.523-0.119,0.775c-0.331,1.662-1.05,2.986-2.16,3.957c-1.111,0.977-2.445,1.465-4,1.465
				C61.453,68.851,60.439,68.497,59.694,67.792 M65.133,65.735c0.504-0.547,0.863-1.373,1.084-2.475
				c0.033-0.172,0.062-0.352,0.08-0.531c0.018-0.176,0.025-0.338,0.025-0.49c0-0.639-0.162-1.137-0.49-1.488
				c-0.326-0.355-0.788-0.531-1.387-0.531c-0.79,0-1.435,0.277-1.939,0.834c-0.509,0.557-0.869,1.398-1.096,2.518
				c-0.031,0.172-0.057,0.346-0.08,0.514c-0.02,0.172-0.024,0.332-0.021,0.479c0,0.637,0.164,1.127,0.491,1.475
				c0.325,0.348,0.786,0.52,1.392,0.52C63.987,66.558,64.631,66.284,65.133,65.735"/>
		</g>
		<g>
			<path class="st35" d="M84.62,51.753h7.48c1.438,0,2.551,0.324,3.315,0.965c0.761,0.648,1.142,1.578,1.142,2.789v0.037
				c0,0.23-0.015,0.49-0.037,0.771c-0.036,0.277-0.084,0.561-0.146,0.854c-0.328,1.602-1.094,2.891-2.275,3.867
				c-1.186,0.973-2.591,1.463-4.209,1.463h-4.01l-1.241,6.086h-3.473L84.62,51.753 M86.491,59.573h3.326
				c0.867,0,1.555-0.203,2.057-0.6c0.498-0.404,0.826-1.02,1.01-1.854c0.029-0.152,0.047-0.293,0.069-0.42
				c0.011-0.121,0.025-0.242,0.025-0.359c0-0.596-0.212-1.027-0.636-1.299c-0.426-0.275-1.092-0.406-2.014-0.406h-2.825
				L86.491,59.573z"/>
		</g>
		<g>
			<path class="st35" d="M112.102,70.595c-1.098,2.334-2.145,3.695-2.759,4.328c-0.615,0.627-1.833,2.082-4.769,1.973l0.252-1.781
				c2.471-0.762,3.807-4.191,4.567-5.709l-0.907-11.182l1.91-0.027H112l0.173,7.016l3.004-7.016h3.041L112.102,70.595"/>
		</g>
		<g>
			<path class="st35" d="M103.598,59.042l-1.208,0.83c-1.263-0.988-2.415-1.6-4.64-0.566c-3.03,1.404-5.563,12.182,2.781,8.633
				l0.475,0.563l3.283,0.084l2.155-9.793L103.598,59.042 M101.731,64.396c-0.526,1.555-1.705,2.584-2.627,2.291
				c-0.922-0.285-1.252-1.787-0.717-3.346c0.527-1.559,1.713-2.582,2.627-2.291C101.936,61.337,102.27,62.837,101.731,64.396"/>
		</g>
	</g>
</g>
</svg>
