<?xml version="1.0" encoding="utf-8"?>
<!-- Generator: Adobe Illustrator 16.0.0, SVG Export Plug-In . SVG Version: 6.00 Build 0)  -->
<!DOCTYPE svg PUBLIC "-//W3C//DTD SVG 1.1//EN" "http://www.w3.org/Graphics/SVG/1.1/DTD/svg11.dtd">
<svg version="1.1" id="Layer_1" xmlns="http://www.w3.org/2000/svg" xmlns:xlink="http://www.w3.org/1999/xlink" x="0px" y="0px"
	 width="136.833px" height="136.834px" viewBox="0 0 136.833 136.834" style="enable-background:new 0 0 136.833 136.834;"
	 xml:space="preserve">
<style type="text/css">
<![CDATA[
	.st0{fill:#E0E0E0;}
	.st1{fill:#B41F36;}
	.st2{fill:#1A5B80;}
	.st3{fill:#862165;}
	.st4{fill:#1B7EC1;}
	.st5{fill:#EA2227;}
	.st6{fill:#EE3725;}
	.st7{fill:#EE3B3F;}
	.st8{fill-rule:evenodd;clip-rule:evenodd;fill:#E0EFFA;}
	.st9{fill-rule:evenodd;clip-rule:evenodd;fill:#E2E4D5;}
	.st10{fill:#BA6D71;}
	.st11{fill-rule:evenodd;clip-rule:evenodd;fill:#E92F30;}
	.st12{fill:#203D74;}
	.st13{fill:#F16622;}
	.st14{fill:#F16823;}
	.st15{fill:#231F20;}
	.st16{fill:#F26E21;}
	.st17{fill:#F3F2F2;}
	.st18{fill:#F4C82E;}
	.st19{fill-rule:evenodd;clip-rule:evenodd;fill:#1A5B80;}
	.st20{fill-rule:evenodd;clip-rule:evenodd;fill:#1A80AD;}
	.st21{fill:#F5E11C;}
	.st22{fill:#27ADE4;}
	.st23{fill-rule:evenodd;clip-rule:evenodd;fill:#EA2230;}
	.st24{fill-rule:evenodd;clip-rule:evenodd;fill:#EAF3F8;}
	.st25{fill:#F7981D;}
	.st26{fill:#F7AB1B;}
	.st27{fill:#293688;}
	.st28{fill-rule:evenodd;clip-rule:evenodd;fill:#ED1C2E;}
	.st29{fill-rule:evenodd;clip-rule:evenodd;fill:#505F7C;}
	.st30{fill:#931B1D;}
	.st31{fill:#2D78BC;}
	.st32{fill-rule:evenodd;clip-rule:evenodd;fill:#BC202A;}
	.st33{fill-rule:evenodd;clip-rule:evenodd;}
	.st34{fill:#FFDF1B;}
	.st35{fill:#FFFFFF;}
	.st36{fill-rule:evenodd;clip-rule:evenodd;fill:#231F20;}
	.st37{fill:#65B1E2;}
	.st38{fill-rule:evenodd;clip-rule:evenodd;fill:#F4C82E;}
	.st39{fill:#9A847A;}
	.st40{fill:#CA3092;}
	.st41{fill:#CB2026;}
	.st42{fill:#686969;}
	.st43{fill-rule:evenodd;clip-rule:evenodd;fill:#F7981D;}
	.st44{fill:#CC1B69;}
	.st45{fill:#305499;}
	.st46{fill:#329947;}
	.st47{fill:#6BB745;}
	.st48{fill:#003473;}
	.st49{fill:#00529E;}
	.st50{fill:#005595;}
	.st51{fill:#005B84;}
	.st52{fill:#005E88;}
	.st53{fill:#0063A6;}
	.st54{fill:#008061;}
	.st55{fill:#0095C3;}
	.st56{fill:#009DA5;}
	.st57{fill:#00A051;}
	.st58{fill:#D0D1D1;}
	.st59{fill-rule:evenodd;clip-rule:evenodd;fill:#FFFFFF;}
	.st60{fill:#D19EA0;}
	.st61{fill:#0356A2;}
	.st62{fill:#D29EA1;}
	.st63{fill:#0468B2;}
	.st64{fill:#D32259;}
	.st65{fill:#055D77;}
	.st66{fill-rule:evenodd;clip-rule:evenodd;fill:#65B1E2;}
	.st67{fill:#0683C2;}
	.st68{fill:#0872B9;}
	.st69{fill:#3C80AD;}
	.st70{fill-rule:evenodd;clip-rule:evenodd;fill:#32357F;}
	.st71{fill:#A23C42;}
	.st72{fill:#0B161F;}
	.st73{fill:#0C4875;}
	.st74{fill:#0F549D;}
	.st75{fill-rule:evenodd;clip-rule:evenodd;fill:#005595;}
	.st76{fill-rule:evenodd;clip-rule:evenodd;fill:#009DDD;}
	.st77{fill:#DEBBBC;}
	.st78{fill:#43567E;}
	.st79{fill-rule:evenodd;clip-rule:evenodd;fill:#D2D2D2;}
]]>
</style>
<g>
	<g>
		<g>
			<circle class="st17" cx="68.417" cy="68.417" r="63.333"/>
		</g>
	</g>
	<g>
		<g>
			<circle class="st16" cx="72.526" cy="64.488" r="8.333"/>
		</g>
		<g>
			<path class="st72" d="M27.648,68.48c-0.982,0.879-2.249,1.26-4.261,1.26h-0.835V59.278h0.835c2.012,0,3.229,0.356,4.261,1.28
				c1.076,0.949,1.718,2.418,1.718,3.936C29.366,66.013,28.724,67.534,27.648,68.48L27.648,68.48z M24.011,56.599h-4.572v15.818
				h4.549c2.414,0,4.159-0.566,5.69-1.826c1.816-1.494,2.894-3.747,2.894-6.076C32.572,59.845,29.054,56.599,24.011,56.599"/>
		</g>
		<g>
			<polyline class="st72" points="34.007,72.417 37.115,72.417 37.115,56.599 34.007,56.599 34.007,72.417 			"/>
		</g>
		<g>
			<path class="st72" d="M44.724,62.667c-1.868-0.687-2.418-1.139-2.418-1.989c0-0.997,0.979-1.756,2.32-1.756
				c0.933,0,1.697,0.379,2.514,1.278l1.623-2.108c-1.338-1.164-2.94-1.756-4.688-1.756c-2.82,0-4.974,1.945-4.974,4.527
				c0,2.185,1.003,3.299,3.923,4.345c1.22,0.425,1.84,0.708,2.152,0.901c0.621,0.404,0.934,0.971,0.934,1.635
				c0,1.283-1.029,2.23-2.418,2.23c-1.483,0-2.678-0.734-3.396-2.11l-2.006,1.923c1.432,2.084,3.154,3.013,5.524,3.013
				c3.228,0,5.499-2.138,5.499-5.196C49.314,65.088,48.264,63.949,44.724,62.667"/>
		</g>
		<g>
			<path class="st72" d="M50.294,64.515c0,4.654,3.684,8.259,8.42,8.259c1.34,0,2.486-0.263,3.899-0.923v-3.633
				c-1.245,1.235-2.346,1.732-3.757,1.732c-3.133,0-5.358-2.254-5.358-5.457c0-3.035,2.296-5.432,5.216-5.432
				c1.48,0,2.606,0.521,3.899,1.779V57.21c-1.362-0.686-2.489-0.969-3.829-0.969C54.074,56.242,50.294,59.919,50.294,64.515"/>
		</g>
		<g>
			<polyline class="st72" points="87.82,67.224 83.562,56.599 80.166,56.599 86.937,72.822 88.609,72.822 95.499,56.599 
				92.126,56.599 87.82,67.224 			"/>
		</g>
		<g>
			<polyline class="st72" points="96.912,72.417 105.736,72.417 105.736,69.74 100.021,69.74 100.021,65.466 105.517,65.466 
				105.517,62.789 100.021,62.789 100.021,59.278 105.736,59.278 105.736,56.599 96.912,56.599 96.912,72.417 			"/>
		</g>
		<g>
			<path class="st72" d="M111.808,63.88h-0.906v-4.794h0.955c1.941,0,2.994,0.81,2.994,2.349
				C114.851,63.023,113.798,63.88,111.808,63.88L111.808,63.88z M118.05,61.267c0-2.963-2.055-4.668-5.645-4.668h-4.615v15.818
				h3.111V66.06h0.408l4.302,6.357h3.827l-5.025-6.664C116.761,65.279,118.05,63.688,118.05,61.267"/>
		</g>
	</g>
	<g>
		<g>
			<path d="M42.134,87.119V78.22l6.076,6.357v-5.791h1.258v8.84l-6.076-6.342v5.834H42.134z"/>
		</g>
		<g>
			<path d="M56.063,79.968h-3.341v2.002h3.244v1.183h-3.244v2.784h3.341v1.182h-4.598v-8.332h4.598V79.968z"/>
		</g>
		<g>
			<path d="M60.013,79.968v7.15h-1.258v-7.15H56.84v-1.182h5.084v1.182H60.013z"/>
		</g>
		<g>
			<path d="M63.953,78.787l2.17,5.569l2.268-5.974l2.169,5.974l2.304-5.569h1.366l-3.724,8.861l-2.143-5.904l-2.234,5.91
				l-3.541-8.867H63.953z"/>
		</g>
		<g>
			<path d="M74.471,82.916c0-1.174,0.431-2.181,1.29-3.022c0.856-0.842,1.886-1.263,3.088-1.263c1.187,0,2.205,0.424,3.054,1.273
				c0.853,0.85,1.278,1.869,1.278,3.061c0,1.197-0.428,2.214-1.283,3.049c-0.86,0.838-1.898,1.258-3.114,1.258
				c-1.075,0-2.042-0.373-2.898-1.117C74.943,85.33,74.471,84.25,74.471,82.916z M75.74,82.929c0,0.92,0.31,1.676,0.928,2.27
				c0.615,0.594,1.326,0.89,2.133,0.89c0.873,0,1.611-0.302,2.212-0.905c0.601-0.611,0.901-1.355,0.901-2.232
				c0-0.889-0.297-1.633-0.891-2.232c-0.59-0.604-1.32-0.906-2.191-0.906c-0.867,0-1.599,0.302-2.195,0.906
				C76.039,81.314,75.74,82.052,75.74,82.929z"/>
		</g>
		<g>
			<path d="M87.585,83.568l2.58,3.551h-1.538l-2.38-3.41h-0.227v3.41h-1.258v-8.332h1.473c1.102,0,1.896,0.207,2.386,0.621
				c0.54,0.46,0.81,1.068,0.81,1.824c0,0.59-0.169,1.097-0.508,1.521C88.585,83.177,88.14,83.45,87.585,83.568z M86.021,82.613
				h0.398c1.191,0,1.787-0.455,1.787-1.365c0-0.853-0.579-1.279-1.738-1.279h-0.447V82.613z"/>
		</g>
		<g>
			<path d="M92.675,82.111l3.243-3.324h1.679L93.83,82.56l3.789,4.559h-1.684l-3.001-3.707l-0.259,0.26v3.447h-1.258v-8.332h1.258
				V82.111z"/>
		</g>
	</g>
	<g>
		<g>
			<path class="st16" d="M131.553,73.171c-11.911,15.086-39.558,41.149-88.724,53.18c7.826,3.462,16.478,5.399,25.586,5.399
				C101.792,131.75,129.12,105.925,131.553,73.171z"/>
		</g>
	</g>
</g>
</svg>
