<?xml version="1.0" encoding="utf-8"?>
<!-- Generator: Adobe Illustrator 16.0.0, SVG Export Plug-In . SVG Version: 6.00 Build 0)  -->
<!DOCTYPE svg PUBLIC "-//W3C//DTD SVG 1.1//EN" "http://www.w3.org/Graphics/SVG/1.1/DTD/svg11.dtd">
<svg version="1.1" id="Layer_1" xmlns="http://www.w3.org/2000/svg" xmlns:xlink="http://www.w3.org/1999/xlink" x="0px" y="0px"
	 width="136.833px" height="136.834px" viewBox="0 0 136.833 136.834" style="enable-background:new 0 0 136.833 136.834;"
	 xml:space="preserve">
<style type="text/css">
<![CDATA[
	.st0{fill:#E0E0E0;}
	.st1{fill:#B41F36;}
	.st2{fill:#1A5B80;}
	.st3{fill:#862165;}
	.st4{fill:#1B7EC1;}
	.st5{fill:#EA2227;}
	.st6{fill:#EE3725;}
	.st7{fill:#EE3B3F;}
	.st8{fill-rule:evenodd;clip-rule:evenodd;fill:#E0EFFA;}
	.st9{fill-rule:evenodd;clip-rule:evenodd;fill:#E2E4D5;}
	.st10{fill:#BA6D71;}
	.st11{fill-rule:evenodd;clip-rule:evenodd;fill:#E92F30;}
	.st12{fill:#203D74;}
	.st13{fill:#F16622;}
	.st14{fill:#F16823;}
	.st15{fill:#231F20;}
	.st16{fill:#F26E21;}
	.st17{fill:#F3F2F2;}
	.st18{fill:#F4C82E;}
	.st19{fill-rule:evenodd;clip-rule:evenodd;fill:#1A5B80;}
	.st20{fill-rule:evenodd;clip-rule:evenodd;fill:#1A80AD;}
	.st21{fill:#F5E11C;}
	.st22{fill:#27ADE4;}
	.st23{fill-rule:evenodd;clip-rule:evenodd;fill:#EA2230;}
	.st24{fill-rule:evenodd;clip-rule:evenodd;fill:#EAF3F8;}
	.st25{fill:#F7981D;}
	.st26{fill:#F7AB1B;}
	.st27{fill:#293688;}
	.st28{fill-rule:evenodd;clip-rule:evenodd;fill:#ED1C2E;}
	.st29{fill-rule:evenodd;clip-rule:evenodd;fill:#505F7C;}
	.st30{fill:#931B1D;}
	.st31{fill:#2D78BC;}
	.st32{fill-rule:evenodd;clip-rule:evenodd;fill:#BC202A;}
	.st33{fill-rule:evenodd;clip-rule:evenodd;}
	.st34{fill:#FFDF1B;}
	.st35{fill:#FFFFFF;}
	.st36{fill-rule:evenodd;clip-rule:evenodd;fill:#231F20;}
	.st37{fill:#65B1E2;}
	.st38{fill-rule:evenodd;clip-rule:evenodd;fill:#F4C82E;}
	.st39{fill:#9A847A;}
	.st40{fill:#CA3092;}
	.st41{fill:#CB2026;}
	.st42{fill:#686969;}
	.st43{fill-rule:evenodd;clip-rule:evenodd;fill:#F7981D;}
	.st44{fill:#CC1B69;}
	.st45{fill:#305499;}
	.st46{fill:#329947;}
	.st47{fill:#6BB745;}
	.st48{fill:#003473;}
	.st49{fill:#00529E;}
	.st50{fill:#005595;}
	.st51{fill:#005B84;}
	.st52{fill:#005E88;}
	.st53{fill:#0063A6;}
	.st54{fill:#008061;}
	.st55{fill:#0095C3;}
	.st56{fill:#009DA5;}
	.st57{fill:#00A051;}
	.st58{fill:#D0D1D1;}
	.st59{fill-rule:evenodd;clip-rule:evenodd;fill:#FFFFFF;}
	.st60{fill:#D19EA0;}
	.st61{fill:#0356A2;}
	.st62{fill:#D29EA1;}
	.st63{fill:#0468B2;}
	.st64{fill:#D32259;}
	.st65{fill:#055D77;}
	.st66{fill-rule:evenodd;clip-rule:evenodd;fill:#65B1E2;}
	.st67{fill:#0683C2;}
	.st68{fill:#0872B9;}
	.st69{fill:#3C80AD;}
	.st70{fill-rule:evenodd;clip-rule:evenodd;fill:#32357F;}
	.st71{fill:#A23C42;}
	.st72{fill:#0B161F;}
	.st73{fill:#0C4875;}
	.st74{fill:#0F549D;}
	.st75{fill-rule:evenodd;clip-rule:evenodd;fill:#005595;}
	.st76{fill-rule:evenodd;clip-rule:evenodd;fill:#009DDD;}
	.st77{fill:#DEBBBC;}
	.st78{fill:#43567E;}
	.st79{fill-rule:evenodd;clip-rule:evenodd;fill:#D2D2D2;}
]]>
</style>
<g>
	<g>
		<g>
			<circle class="st65" cx="68.416" cy="68.417" r="63.333"/>
		</g>
	</g>
	<g>
		<g>
			<path class="st35" d="M18.405,63.606h0.057l1.43,4.08h-2.902L18.405,63.606 M20.146,72.978h5.422V72.36
				c-1.049-0.131-1.369-0.211-2.055-2.082c-0.75-2.002-1.625-4.367-2.455-6.703l-1.303-3.682l-0.973,0.268l-4.002,10.18
				c-0.691,1.783-0.949,1.877-2.133,2.02v0.617h4.461V72.36l-0.488-0.055c-0.916-0.104-0.951-0.313-0.662-1.311
				c0.258-0.857,0.518-1.727,0.76-2.305h3.508c0.299,0.727,0.678,1.762,0.934,2.42c0.334,0.852,0.232,1.07-0.496,1.176l-0.518,0.074
				V72.978z"/>
		</g>
		<g>
			<path class="st35" d="M31.237,66.095c0-0.723-0.096-0.852-0.609-0.938l-0.613-0.098v-0.574c0.99-0.051,2.713-0.242,3.645-0.369
				v6.727c0,0.822,0.08,1.041,0.709,1.041h0.617v0.613c-1.189,0.17-2.457,0.447-3.59,0.734l-0.158-0.135v-1.27
				c-0.373,0.277-0.707,0.529-1.145,0.795c-0.611,0.373-1.109,0.58-1.734,0.58c-1.652,0-2.564-1.098-2.564-2.619v-4.488
				c0-0.723-0.096-0.852-0.607-0.938l-0.537-0.098v-0.574c0.912-0.051,2.535-0.242,3.568-0.369v5.975
				c0,1.164,0.592,1.621,1.336,1.621c0.557,0,1.109-0.26,1.684-0.76V66.095"/>
		</g>
		<g>
			<path class="st35" d="M38.542,70.06c0,1.52,0.748,1.803,1.107,1.803c0.314,0,0.654-0.104,1.031-0.318l0.273,0.592l-1.703,0.859
				c-0.314,0.15-0.611,0.207-0.75,0.207c-1.529,0-2.379-0.664-2.379-2.424v-5.5h-1.27l-0.139-0.252l0.635-0.758h0.773V63.06
				l2.076-1.564l0.344,0.168v2.605h1.957c0.256,0.217,0.221,0.848-0.137,1.01h-1.82V70.06"/>
		</g>
		<g>
			<path class="st35" d="M44.948,65.304c0.668-0.662,1.668-1.268,2.703-1.268c1.801,0,2.795,1.127,2.795,2.994v4.014
				c0,1.109,0.1,1.186,1.193,1.316v0.617h-4.65V72.36c0.959-0.131,1.035-0.207,1.035-1.316v-3.797c0-1.223-0.686-1.744-1.51-1.744
				c-0.547,0-1.121,0.201-1.566,0.65v4.891c0,1.109,0.094,1.186,0.92,1.316v0.617h-4.768V72.36c1.322-0.131,1.424-0.207,1.424-1.316
				v-9.566c0-1.172-0.039-1.199-1.293-1.275v-0.57c0.879-0.137,2.404-0.42,3.717-0.697V65.304"/>
		</g>
		<g>
			<path class="st35" d="M54.7,68.046c0-2.143,0.838-3.193,1.646-3.193c1.268,0,2.027,1.527,2.027,4.172
				c0,2.865-0.889,3.355-1.607,3.355C55.495,72.38,54.7,70.536,54.7,68.046 M56.647,64.036c-2.225,0-4.682,1.668-4.682,4.807
				c0,2.117,1.527,4.359,4.578,4.359c2.281,0,4.563-1.549,4.563-4.779C61.106,66.12,59.401,64.036,56.647,64.036z"/>
		</g>
		<g>
			<path class="st35" d="M65.345,71.044c0,1.105,0.096,1.186,1.621,1.316v0.617h-5.391V72.36c1.244-0.131,1.346-0.211,1.346-1.316
				v-4.393c0-1.209-0.037-1.223-1.311-1.367v-0.535c1.158-0.162,2.426-0.426,3.734-0.713v1.969h0.041
				c0.252-0.402,0.553-0.875,0.924-1.268c0.379-0.402,0.814-0.701,1.311-0.701c0.752,0,1.328,0.551,1.328,1.209
				s-0.438,1.232-0.938,1.406c-0.256,0.109-0.449,0.035-0.611-0.08c-0.33-0.268-0.674-0.418-0.988-0.418
				c-0.334,0-0.732,0.15-1.066,0.977V71.044"/>
		</g>
		<g>
			<path class="st35" d="M70.509,66.651c0-1.209-0.037-1.223-1.305-1.367v-0.535c1.164-0.162,2.477-0.426,3.729-0.713v6.982
				c0,1.131,0.1,1.211,1.359,1.342v0.617h-5.146V72.36c1.268-0.131,1.363-0.211,1.363-1.342V66.651 M72.993,60.911
				c0,0.803-0.635,1.43-1.438,1.43c-0.77,0-1.441-0.627-1.441-1.43c0-0.807,0.672-1.441,1.441-1.441
				C72.358,59.47,72.993,60.104,72.993,60.911z"/>
		</g>
		<g>
			<path class="st35" d="M82.169,64.265l0.174,0.283l-4.553,7.588h1.566c1.363,0,1.893-0.246,2.559-1.373l0.291-0.49l0.713,0.264
				c-0.355,0.984-0.611,1.717-0.912,2.441h-7.148l-0.197-0.289l4.695-7.586h-1.391c-1.311,0-1.662,0.301-2.115,1.277l-0.281,0.607
				l-0.711-0.268c0.232-0.748,0.547-2.004,0.73-2.869h0.438c0.102,0.289,0.314,0.414,1.068,0.414H82.169"/>
		</g>
		<g>
			<path class="st35" d="M85.206,67.315c0.119-1.344,0.852-2.371,1.582-2.371c0.754,0,1.385,1.039,1.385,1.842
				c0,0.385-0.076,0.469-0.369,0.469L85.206,67.315 M90.12,70.685c-0.797,0.535-1.41,0.768-2.143,0.768
				c-1.508,0-2.857-1.025-2.857-3.244c1.969-0.078,4.605-0.262,4.881-0.318c0.395-0.076,0.453-0.121,0.453-0.863
				c0-1.531-1.369-2.984-3.088-2.984c-2.414,0-4.551,2.127-4.551,4.982c0,2.219,1.539,4.178,4.211,4.178
				c0.691,0,2.24-0.398,3.369-2.123L90.12,70.685z"/>
		</g>
		<g>
			<path class="st35" d="M91.093,71.651c0-0.893,0.65-1.549,1.498-1.549c0.867,0,1.52,0.656,1.52,1.549
				c0,0.926-0.652,1.551-1.52,1.551C91.743,73.202,91.093,72.577,91.093,71.651"/>
		</g>
		<g>
			<path class="st35" d="M106.89,73.122h-1.205l-7.869-9.662h-0.043v4.102c0,2.084,0.119,3.18,0.195,3.797
				c0.105,0.688,0.602,0.947,1.914,1.002v0.617h-4.916V72.36c0.992-0.037,1.465-0.314,1.559-1.002
				c0.09-0.617,0.207-1.713,0.207-3.797v-3.93c0-1.262,0-1.75-0.361-2.221c-0.377-0.48-0.873-0.605-1.682-0.672v-0.623h3.445
				l7.666,8.918h0.041v-3.496c0-2.078-0.113-3.168-0.197-3.791c-0.1-0.699-0.598-0.941-1.91-1.008v-0.623h4.918v0.623
				c-0.996,0.039-1.465,0.309-1.564,1.008c-0.082,0.623-0.197,1.713-0.197,3.791V73.122"/>
		</g>
		<g>
			<path class="st35" d="M109.952,67.315c0.113-1.344,0.85-2.371,1.578-2.371c0.752,0,1.385,1.039,1.385,1.842
				c0,0.385-0.072,0.469-0.377,0.469L109.952,67.315 M114.866,70.685c-0.799,0.535-1.41,0.768-2.15,0.768
				c-1.5,0-2.846-1.025-2.846-3.244c1.959-0.078,4.596-0.262,4.873-0.318c0.395-0.076,0.453-0.121,0.453-0.863
				c0-1.531-1.363-2.984-3.088-2.984c-2.416,0-4.557,2.127-4.557,4.982c0,2.219,1.547,4.178,4.215,4.178
				c0.697,0,2.244-0.398,3.371-2.123L114.866,70.685z"/>
		</g>
		<g>
			<path class="st35" d="M119.052,70.06c0,1.52,0.748,1.803,1.111,1.803c0.311,0,0.65-0.104,1.023-0.318l0.279,0.592l-1.705,0.859
				c-0.313,0.15-0.604,0.207-0.752,0.207c-1.52,0-2.385-0.664-2.385-2.424v-5.5h-1.26l-0.139-0.252l0.637-0.758h0.762V63.06
				l2.088-1.564l0.34,0.168v2.605h1.959c0.26,0.217,0.213,0.848-0.139,1.01h-1.82V70.06"/>
		</g>
		<g>
			<path class="st35" d="M121.407,63.546c-0.174,0-0.338-0.043-0.488-0.131c-0.154-0.084-0.275-0.205-0.369-0.359
				c-0.092-0.156-0.137-0.324-0.137-0.506c0-0.178,0.045-0.344,0.133-0.498s0.211-0.277,0.367-0.365
				c0.154-0.088,0.32-0.133,0.494-0.133c0.178,0,0.342,0.045,0.496,0.133c0.156,0.088,0.277,0.211,0.365,0.365
				c0.09,0.154,0.137,0.32,0.137,0.498c0,0.182-0.049,0.35-0.139,0.506c-0.094,0.154-0.215,0.275-0.367,0.359
				C121.747,63.503,121.583,63.546,121.407,63.546 M121.407,63.394c0.148,0,0.287-0.035,0.416-0.109
				c0.131-0.072,0.236-0.174,0.314-0.307c0.076-0.129,0.115-0.273,0.115-0.426s-0.039-0.293-0.111-0.424
				c-0.076-0.133-0.18-0.234-0.311-0.309c-0.135-0.076-0.275-0.113-0.424-0.113s-0.287,0.037-0.416,0.113
				c-0.137,0.074-0.24,0.176-0.314,0.309c-0.072,0.131-0.111,0.271-0.111,0.424s0.039,0.297,0.113,0.426
				c0.082,0.133,0.184,0.234,0.314,0.307C121.12,63.358,121.261,63.394,121.407,63.394z M121.222,63.144h-0.195v-1.205h0.389
				c0.092,0,0.166,0.014,0.215,0.043c0.047,0.027,0.084,0.066,0.113,0.117c0.025,0.053,0.041,0.109,0.041,0.168
				c0,0.072-0.02,0.139-0.057,0.201c-0.041,0.064-0.098,0.113-0.176,0.148c0.039,0.025,0.084,0.084,0.135,0.174l0.188,0.354h-0.219
				l-0.156-0.297l-0.037-0.076c-0.047-0.08-0.078-0.119-0.1-0.119h-0.141V63.144z M121.222,62.503h0.131
				c0.088,0,0.146-0.023,0.182-0.07c0.033-0.047,0.051-0.098,0.051-0.156c0-0.033-0.006-0.064-0.02-0.094
				c-0.014-0.027-0.037-0.051-0.063-0.068c-0.027-0.02-0.074-0.027-0.141-0.027h-0.141V62.503z"/>
		</g>
	</g>
</g>
</svg>
