<?xml version="1.0" encoding="utf-8"?>
<!-- Generator: Adobe Illustrator 16.0.0, SVG Export Plug-In . SVG Version: 6.00 Build 0)  -->
<!DOCTYPE svg PUBLIC "-//W3C//DTD SVG 1.1//EN" "http://www.w3.org/Graphics/SVG/1.1/DTD/svg11.dtd">
<svg version="1.1" id="Layer_1" xmlns="http://www.w3.org/2000/svg" xmlns:xlink="http://www.w3.org/1999/xlink" x="0px" y="0px"
	 width="136.833px" height="136.834px" viewBox="0 0 136.833 136.834" style="enable-background:new 0 0 136.833 136.834;"
	 xml:space="preserve">
<style type="text/css">
<![CDATA[
	.st0{fill-rule:evenodd;clip-rule:evenodd;fill:#D62127;}
	.st1{fill:#AAAAAA;}
	.st2{fill:#ABD0C8;}
	.st3{fill:#49A0AE;}
	.st4{fill-rule:evenodd;clip-rule:evenodd;fill:#3F3F3E;}
	.st5{fill:#AEAEAF;}
	.st6{fill:#E0F1EF;}
	.st7{fill:#E13F41;}
	.st8{fill:#E27660;}
	.st9{fill:#E27F76;}
	.st10{fill:#E2BE28;}
	.st11{fill:#E2DCBF;}
	.st12{fill:#E3E1C6;}
	.st13{fill:#E4AB6E;}
	.st14{fill:#E4B076;}
	.st15{fill:#E4DFBC;}
	.st16{fill:#E4E4E4;}
	.st17{fill:#4ABC96;}
	.st18{fill:#E6E2C5;}
	.st19{fill:#E7474A;}
	.st20{fill:#E7E2C3;}
	.st21{fill:#E7E4B9;}
	.st22{fill:#E84849;}
	.st23{fill:#4EBFB0;}
	.st24{fill:#E9B82B;}
	.st25{fill:#E9C29C;}
	.st26{fill:#E9E4CC;}
	.st27{fill:#4F7678;}
	.st28{fill:#80BAAE;}
	.st29{fill:#B0DFE0;}
	.st30{fill:#B3DCD2;}
	.st31{fill:#84CEC5;}
	.st32{fill:#86BBB1;}
	.st33{fill:#B6DBD4;}
	.st34{fill:#87C3B7;}
	.st35{fill:#EB9682;}
	.st36{fill:#EBB677;}
	.st37{fill:#EC6666;}
	.st38{fill:#ED3432;}
	.st39{fill:#B9B9BA;}
	.st40{fill:#EDC92C;}
	.st41{fill:#EE4646;}
	.st42{fill:#EF5353;}
	.st43{fill:#EFECEC;}
	.st44{fill:none;stroke:#E84849;stroke-miterlimit:10;}
	.st45{fill:#555C49;}
	.st46{fill-rule:evenodd;clip-rule:evenodd;fill:#F1EDCD;stroke:#E9D8B8;stroke-width:0.25;stroke-miterlimit:10;}
	.st47{fill:#8B8B8C;}
	.st48{fill:#BADDD6;}
	.st49{fill:none;stroke:#BBBCBB;stroke-width:0.5;stroke-miterlimit:10;}
	.st50{fill:#8D734F;}
	.st51{fill:#BCE2DD;}
	.st52{fill:#BDE3DB;}
	.st53{fill:#202121;}
	.st54{fill-rule:evenodd;clip-rule:evenodd;fill:#E9E3C4;}
	.st55{fill:#F06465;}
	.st56{fill:#BFBEBE;}
	.st57{fill-rule:evenodd;clip-rule:evenodd;fill:#82725A;}
	.st58{fill-rule:evenodd;clip-rule:evenodd;fill:#82786D;}
	.st59{fill:#F1EDCD;}
	.st60{fill:#F37C2A;}
	.st61{fill-rule:evenodd;clip-rule:evenodd;fill:#847D77;}
	.st62{fill:#255259;}
	.st63{fill:#F3F2D9;}
	.st64{fill:none;stroke:#FBD5D4;stroke-width:2.5;stroke-linecap:round;stroke-linejoin:round;stroke-miterlimit:10;}
	.st65{fill:#F49396;}
	.st66{fill:#F5EFD8;}
	.st67{fill:#F7F2F3;}
	.st68{fill:#5D919F;}
	.st69{fill:#5E5F5E;}
	.st70{fill:#5E9598;}
	.st71{fill:#90BABA;}
	.st72{fill:#C0BEB1;}
	.st73{fill:#C0C0C0;}
	.st74{fill:#C1E4DD;}
	.st75{fill:#939292;}
	.st76{fill:#C2A681;}
	.st77{fill:#C6C5C5;}
	.st78{fill:#FBF0E6;}
	.st79{fill:#996B33;}
	.st80{fill:#608C3D;}
	.st81{fill-rule:evenodd;clip-rule:evenodd;fill:#8F8376;}
	.st82{fill:#FFFFFF;}
	.st83{fill-rule:evenodd;clip-rule:evenodd;fill:#F1EDCD;}
	.st84{fill:#63998F;}
	.st85{fill:none;}
	.st86{fill:#65A844;}
	.st87{fill-rule:evenodd;clip-rule:evenodd;fill:#5B4F3F;}
	.st88{fill:#CAE8E4;}
	.st89{fill:#CC4028;}
	.st90{fill:#9DDAEC;}
	.st91{fill:#CDCCCB;}
	.st92{fill:#CEE9E4;}
	.st93{fill-rule:evenodd;clip-rule:evenodd;fill:#938980;}
	.st94{fill:#343433;}
	.st95{fill:#357180;}
	.st96{fill:#35878C;}
	.st97{fill:#367A82;}
	.st98{fill:#D0D1D1;}
	.st99{fill:#D1D1D1;}
	.st100{fill:#D62127;}
	.st101{fill:#3BAE85;}
	.st102{fill:#D7AD8C;}
	.st103{fill:#3D929A;}
	.st104{fill:#3F9099;}
	.st105{fill:#3F98A1;}
	.st106{fill:#A19F9F;}
	.st107{fill:#72C8BF;}
	.st108{fill:#74A0A3;}
	.st109{fill:#74BB4D;}
	.st110{fill:#A46434;}
	.st111{fill:#A5A9B6;}
	.st112{fill:#A77640;}
	.st113{fill:#DBDDE1;}
	.st114{fill:#DC3735;}
	.st115{fill:#DCD5B1;}
	.st116{fill:#DD9081;}
	.st117{fill:#DDA166;}
	.st118{fill:#DDF0EE;}
	.st119{fill:#459CA5;}
]]>
</style>
<g>
	<g>
		<path class="st17" d="M5.083,68.418c0-34.981,28.355-63.334,63.332-63.334c34.979,0,63.334,28.353,63.334,63.334
			c0,34.976-28.355,63.332-63.334,63.332C33.439,131.75,5.083,103.394,5.083,68.418z"/>
	</g>
	<g>
		<path class="st81" d="M104.54,52.022h-7.953V33.427c0-1.465-1.188-2.651-2.652-2.651H68.175H42.898
			c-1.464,0-2.651,1.187-2.651,2.651v18.596h-7.953c-1.465,0-2.651,1.187-2.651,2.65v51.037c0,1.464,1.187,2.65,2.651,2.65h35.882
			h36.364c1.465,0,2.651-1.187,2.651-2.65V54.673C107.191,53.209,106.004,52.022,104.54,52.022z"/>
		<path class="st93" d="M68.175,30.775H42.898c-1.464,0-2.651,1.187-2.651,2.651v18.596h-7.953c-1.465,0-2.651,1.187-2.651,2.65
			v51.037c0,1.464,1.187,2.65,2.651,2.65h35.882V30.775z"/>
		<path class="st58" d="M55.154,110.524c-0.537,0-0.973-0.436-0.973-0.975V90.813c0-0.538,0.436-0.975,0.973-0.975h13.146h13.38
			c0.537,0,0.973,0.437,0.973,0.975v18.736c0,0.539-0.436,0.975-0.973,0.975H68.474H55.154z"/>
		<path class="st61" d="M55.154,110.524c-0.537,0-0.973-0.436-0.973-0.975V90.813c0-0.538,0.436-0.975,0.973-0.975h13.021v20.686
			H55.154z"/>
		<path class="st83" d="M51.625,68.284c0,0.594-0.481,1.076-1.076,1.076H39.113c-0.594,0-1.075-0.482-1.075-1.076v-6.053
			c0-0.596,0.481-1.078,1.075-1.078h11.436c0.595,0,1.076,0.482,1.076,1.078V68.284z"/>
		<path class="st83" d="M75.266,68.284c0,0.594-0.482,1.076-1.076,1.076H62.754c-0.594,0-1.075-0.482-1.075-1.076v-6.053
			c0-0.596,0.481-1.078,1.075-1.078H74.19c0.594,0,1.076,0.482,1.076,1.078V68.284z"/>
		<path class="st83" d="M98.024,68.284c0,0.594-0.482,1.076-1.076,1.076H85.512c-0.594,0-1.076-0.482-1.076-1.076v-6.053
			c0-0.596,0.482-1.078,1.076-1.078h11.436c0.594,0,1.076,0.482,1.076,1.078V68.284z"/>
		<path class="st83" d="M51.625,83.886c0,0.594-0.481,1.076-1.076,1.076H39.113c-0.594,0-1.075-0.482-1.075-1.076v-6.055
			c0-0.594,0.481-1.076,1.075-1.076h11.436c0.595,0,1.076,0.482,1.076,1.076V83.886z"/>
		<path class="st83" d="M75.266,83.886c0,0.594-0.482,1.076-1.076,1.076H62.754c-0.594,0-1.075-0.482-1.075-1.076v-6.055
			c0-0.594,0.481-1.076,1.075-1.076H74.19c0.594,0,1.076,0.482,1.076,1.076V83.886z"/>
		<path class="st83" d="M98.024,83.886c0,0.594-0.482,1.076-1.076,1.076H85.512c-0.594,0-1.076-0.482-1.076-1.076v-6.055
			c0-0.594,0.482-1.076,1.076-1.076h11.436c0.594,0,1.076,0.482,1.076,1.076V83.886z"/>
		<g>
			<circle class="st83" cx="68.34" cy="32.749" r="13.44"/>
			<path class="st0" d="M71.063,40.919c0,0.873-0.707,1.582-1.581,1.582h-2.283c-0.873,0-1.582-0.709-1.582-1.582V24.58
				c0-0.874,0.709-1.581,1.582-1.581h2.283c0.874,0,1.581,0.707,1.581,1.581V40.919z"/>
			<path class="st0" d="M60.17,35.472c-0.873,0-1.581-0.707-1.581-1.58v-2.283c0-0.873,0.708-1.582,1.581-1.582h16.34
				c0.873,0,1.582,0.709,1.582,1.582v2.283c0,0.873-0.709,1.58-1.582,1.58H60.17z"/>
		</g>
		<path class="st83" d="M62.407,110.521V95.06c0-0.826,0.671-1.496,1.497-1.496h8.416c0.827,0,1.496,0.67,1.496,1.496v15.461H62.407
			z"/>
		<path class="st54" d="M62.407,110.521V95.06c0-0.826,0.671-1.496,1.497-1.496h4.284l0.036,16.957H62.407z"/>
	</g>
</g>
</svg>
