<?xml version="1.0" encoding="utf-8"?>
<!-- Generator: Adobe Illustrator 16.0.0, SVG Export Plug-In . SVG Version: 6.00 Build 0)  -->
<!DOCTYPE svg PUBLIC "-//W3C//DTD SVG 1.1//EN" "http://www.w3.org/Graphics/SVG/1.1/DTD/svg11.dtd">
<svg version="1.1" id="Layer_1" xmlns="http://www.w3.org/2000/svg" xmlns:xlink="http://www.w3.org/1999/xlink" x="0px" y="0px"
	 width="136.833px" height="136.833px" viewBox="0 0 136.833 136.833" style="enable-background:new 0 0 136.833 136.833;"
	 xml:space="preserve">
<style type="text/css">
<![CDATA[
	.st0{fill-rule:evenodd;clip-rule:evenodd;fill:#D62127;}
	.st1{fill:#AAAAAA;}
	.st2{fill:#ABD0C8;}
	.st3{fill:#49A0AE;}
	.st4{fill-rule:evenodd;clip-rule:evenodd;fill:#3F3F3E;}
	.st5{fill:#AEAEAF;}
	.st6{fill:#E0F1EF;}
	.st7{fill:#E13F41;}
	.st8{fill:#E27660;}
	.st9{fill:#E27F76;}
	.st10{fill:#E2BE28;}
	.st11{fill:#E2DCBF;}
	.st12{fill:#E3E1C6;}
	.st13{fill:#E4AB6E;}
	.st14{fill:#E4B076;}
	.st15{fill:#E4DFBC;}
	.st16{fill:#E4E4E4;}
	.st17{fill:#4ABC96;}
	.st18{fill:#E6E2C5;}
	.st19{fill:#E7474A;}
	.st20{fill:#E7E2C3;}
	.st21{fill:#E7E4B9;}
	.st22{fill:#E84849;}
	.st23{fill:#4EBFB0;}
	.st24{fill:#E9B82B;}
	.st25{fill:#E9C29C;}
	.st26{fill:#E9E4CC;}
	.st27{fill:#4F7678;}
	.st28{fill:#80BAAE;}
	.st29{fill:#B0DFE0;}
	.st30{fill:#B3DCD2;}
	.st31{fill:#84CEC5;}
	.st32{fill:#86BBB1;}
	.st33{fill:#B6DBD4;}
	.st34{fill:#87C3B7;}
	.st35{fill:#EB9682;}
	.st36{fill:#EBB677;}
	.st37{fill:#EC6666;}
	.st38{fill:#ED3432;}
	.st39{fill:#B9B9BA;}
	.st40{fill:#EDC92C;}
	.st41{fill:#EE4646;}
	.st42{fill:#EF5353;}
	.st43{fill:#EFECEC;}
	.st44{fill:none;stroke:#E84849;stroke-miterlimit:10;}
	.st45{fill:#555C49;}
	.st46{fill-rule:evenodd;clip-rule:evenodd;fill:#F1EDCD;stroke:#E9D8B8;stroke-width:0.25;stroke-miterlimit:10;}
	.st47{fill:#8B8B8C;}
	.st48{fill:#BADDD6;}
	.st49{fill:none;stroke:#BBBCBB;stroke-width:0.5;stroke-miterlimit:10;}
	.st50{fill:#8D734F;}
	.st51{fill:#BCE2DD;}
	.st52{fill:#BDE3DB;}
	.st53{fill:#202121;}
	.st54{fill-rule:evenodd;clip-rule:evenodd;fill:#E9E3C4;}
	.st55{fill:#F06465;}
	.st56{fill:#BFBEBE;}
	.st57{fill-rule:evenodd;clip-rule:evenodd;fill:#82725A;}
	.st58{fill-rule:evenodd;clip-rule:evenodd;fill:#82786D;}
	.st59{fill:#F1EDCD;}
	.st60{fill:#F37C2A;}
	.st61{fill-rule:evenodd;clip-rule:evenodd;fill:#847D77;}
	.st62{fill:#255259;}
	.st63{fill:#F3F2D9;}
	.st64{fill:none;stroke:#FBD5D4;stroke-width:2.5;stroke-linecap:round;stroke-linejoin:round;stroke-miterlimit:10;}
	.st65{fill:#F49396;}
	.st66{fill:#F5EFD8;}
	.st67{fill:#F7F2F3;}
	.st68{fill:#5D919F;}
	.st69{fill:#5E5F5E;}
	.st70{fill:#5E9598;}
	.st71{fill:#90BABA;}
	.st72{fill:#C0BEB1;}
	.st73{fill:#C0C0C0;}
	.st74{fill:#C1E4DD;}
	.st75{fill:#939292;}
	.st76{fill:#C2A681;}
	.st77{fill:#C6C5C5;}
	.st78{fill:#FBF0E6;}
	.st79{fill:#996B33;}
	.st80{fill:#608C3D;}
	.st81{fill-rule:evenodd;clip-rule:evenodd;fill:#8F8376;}
	.st82{fill:#FFFFFF;}
	.st83{fill-rule:evenodd;clip-rule:evenodd;fill:#F1EDCD;}
	.st84{fill:#63998F;}
	.st85{fill:none;}
	.st86{fill:#65A844;}
	.st87{fill-rule:evenodd;clip-rule:evenodd;fill:#5B4F3F;}
	.st88{fill:#CAE8E4;}
	.st89{fill:#CC4028;}
	.st90{fill:#9DDAEC;}
	.st91{fill:#CDCCCB;}
	.st92{fill:#CEE9E4;}
	.st93{fill-rule:evenodd;clip-rule:evenodd;fill:#938980;}
	.st94{fill:#343433;}
	.st95{fill:#357180;}
	.st96{fill:#35878C;}
	.st97{fill:#367A82;}
	.st98{fill:#D0D1D1;}
	.st99{fill:#D1D1D1;}
	.st100{fill:#D62127;}
	.st101{fill:#3BAE85;}
	.st102{fill:#D7AD8C;}
	.st103{fill:#3D929A;}
	.st104{fill:#3F9099;}
	.st105{fill:#3F98A1;}
	.st106{fill:#A19F9F;}
	.st107{fill:#72C8BF;}
	.st108{fill:#74A0A3;}
	.st109{fill:#74BB4D;}
	.st110{fill:#A46434;}
	.st111{fill:#A5A9B6;}
	.st112{fill:#A77640;}
	.st113{fill:#DBDDE1;}
	.st114{fill:#DC3735;}
	.st115{fill:#DCD5B1;}
	.st116{fill:#DD9081;}
	.st117{fill:#DDA166;}
	.st118{fill:#DDF0EE;}
	.st119{fill:#459CA5;}
]]>
</style>
<g>
	<g>
		<g>
			<circle class="st95" cx="68.417" cy="68.417" r="63.333"/>
		</g>
		<g>
			<g>
				<path class="st17" d="M80.773,55.623c-11.798-11.799-30.926-11.799-42.724,0c-11.8,11.801-11.8,30.928,0,42.727
					c11.798,11.797,30.926,11.797,42.724,0C92.572,86.55,92.572,67.423,80.773,55.623z M72.651,90.228
					c-7.311,7.313-19.168,7.313-26.482,0c-7.313-7.314-7.313-19.17,0-26.482c7.314-7.314,19.172-7.314,26.482,0
					C79.965,71.058,79.965,82.914,72.651,90.228z"/>
			</g>
			<g>
				<path class="st17" d="M72.633,63.574c4.459,4.455,9.507-2.913,12.3-5.704c2.669-2.669,9.313-9.312,11.984-11.985
					c0.247,2.795,0.734,13.613,1.143,16.379c0.653,4.395,6.098,6.035,8.102,2.166c0.208-0.275,0.34-0.621,0.395-1.027
					c0.092-0.371,0.093-0.717,0.021-1.024c-0.072-3.621-0.362-15.268-0.437-18.892c-0.068-3.527,0.409-7.366-0.884-10.682
					c-0.049-0.186-0.117-0.379-0.215-0.57c-0.262-0.523-0.908-1.001-1.534-1.14c-3.055-1.155-6.439-0.771-9.706-0.838
					c-4.059-0.081-16.09-0.182-20.146-0.263c-4.695-0.096-4.856,5.933-1.435,7.941c1.713,0.996,12.435,0.907,14.338,1.1
					c1.218,0.126,2.442,0.242,3.664,0.361c-2.652,2.652-9.276,9.277-11.931,11.931C75.504,54.114,68.19,59.128,72.633,63.574z"/>
			</g>
		</g>
		<g>
			<path class="st85" d="M46.168,90.228c7.314,7.313,19.172,7.313,26.482,0c7.314-7.314,7.314-19.17,0-26.482
				c-0.021-0.021-0.043-0.038-0.064-0.057L46.111,90.164C46.131,90.183,46.148,90.207,46.168,90.228z"/>
			<path class="st101" d="M103.507,31.094c-3.055-1.155-6.439-0.771-9.706-0.838c-4.059-0.081-16.09-0.182-20.146-0.263
				c-4.695-0.096-4.856,5.933-1.435,7.941c1.713,0.996,12.435,0.907,14.338,1.1c1.218,0.126,2.442,0.242,3.664,0.361
				c-2.652,2.652-9.276,9.277-11.931,11.931c-0.349,0.349-0.768,0.731-1.226,1.145c-11.808-8.527-28.387-7.479-39.017,3.151
				c-11.779,11.78-11.798,30.859-0.061,42.662l8.122-8.121c-7.251-7.318-7.234-19.126,0.058-26.418
				c7.294-7.294,19.103-7.311,26.418-0.057l0.082-0.082l8.042-8.043l23.881-23.88C104.284,31.405,103.897,31.18,103.507,31.094z"/>
		</g>
	</g>
</g>
</svg>
