<?xml version="1.0" encoding="utf-8"?>
<!-- Generator: Adobe Illustrator 16.0.0, SVG Export Plug-In . SVG Version: 6.00 Build 0)  -->
<!DOCTYPE svg PUBLIC "-//W3C//DTD SVG 1.1//EN" "http://www.w3.org/Graphics/SVG/1.1/DTD/svg11.dtd">
<svg version="1.1" id="Layer_1" xmlns="http://www.w3.org/2000/svg" xmlns:xlink="http://www.w3.org/1999/xlink" x="0px" y="0px"
	 width="136.833px" height="136.834px" viewBox="0 0 136.833 136.834" style="enable-background:new 0 0 136.833 136.834;"
	 xml:space="preserve">
<style type="text/css">
<![CDATA[
	.st0{fill-rule:evenodd;clip-rule:evenodd;fill:#D62127;}
	.st1{fill:#AAAAAA;}
	.st2{fill:#ABD0C8;}
	.st3{fill:#49A0AE;}
	.st4{fill-rule:evenodd;clip-rule:evenodd;fill:#3F3F3E;}
	.st5{fill:#AEAEAF;}
	.st6{fill:#E0F1EF;}
	.st7{fill:#E13F41;}
	.st8{fill:#E27660;}
	.st9{fill:#E27F76;}
	.st10{fill:#E2BE28;}
	.st11{fill:#E2DCBF;}
	.st12{fill:#E3E1C6;}
	.st13{fill:#E4AB6E;}
	.st14{fill:#E4B076;}
	.st15{fill:#E4DFBC;}
	.st16{fill:#E4E4E4;}
	.st17{fill:#4ABC96;}
	.st18{fill:#E6E2C5;}
	.st19{fill:#E7474A;}
	.st20{fill:#E7E2C3;}
	.st21{fill:#E7E4B9;}
	.st22{fill:#E84849;}
	.st23{fill:#4EBFB0;}
	.st24{fill:#E9B82B;}
	.st25{fill:#E9C29C;}
	.st26{fill:#E9E4CC;}
	.st27{fill:#4F7678;}
	.st28{fill:#80BAAE;}
	.st29{fill:#B0DFE0;}
	.st30{fill:#B3DCD2;}
	.st31{fill:#84CEC5;}
	.st32{fill:#86BBB1;}
	.st33{fill:#B6DBD4;}
	.st34{fill:#87C3B7;}
	.st35{fill:#EB9682;}
	.st36{fill:#EBB677;}
	.st37{fill:#EC6666;}
	.st38{fill:#ED3432;}
	.st39{fill:#B9B9BA;}
	.st40{fill:#EDC92C;}
	.st41{fill:#EE4646;}
	.st42{fill:#EF5353;}
	.st43{fill:#EFECEC;}
	.st44{fill:none;stroke:#E84849;stroke-miterlimit:10;}
	.st45{fill:#555C49;}
	.st46{fill-rule:evenodd;clip-rule:evenodd;fill:#F1EDCD;stroke:#E9D8B8;stroke-width:0.25;stroke-miterlimit:10;}
	.st47{fill:#8B8B8C;}
	.st48{fill:#BADDD6;}
	.st49{fill:none;stroke:#BBBCBB;stroke-width:0.5;stroke-miterlimit:10;}
	.st50{fill:#8D734F;}
	.st51{fill:#BCE2DD;}
	.st52{fill:#BDE3DB;}
	.st53{fill:#202121;}
	.st54{fill-rule:evenodd;clip-rule:evenodd;fill:#E9E3C4;}
	.st55{fill:#F06465;}
	.st56{fill:#BFBEBE;}
	.st57{fill-rule:evenodd;clip-rule:evenodd;fill:#82725A;}
	.st58{fill-rule:evenodd;clip-rule:evenodd;fill:#82786D;}
	.st59{fill:#F1EDCD;}
	.st60{fill:#F37C2A;}
	.st61{fill-rule:evenodd;clip-rule:evenodd;fill:#847D77;}
	.st62{fill:#255259;}
	.st63{fill:#F3F2D9;}
	.st64{fill:none;stroke:#FBD5D4;stroke-width:2.5;stroke-linecap:round;stroke-linejoin:round;stroke-miterlimit:10;}
	.st65{fill:#F49396;}
	.st66{fill:#F5EFD8;}
	.st67{fill:#F7F2F3;}
	.st68{fill:#5D919F;}
	.st69{fill:#5E5F5E;}
	.st70{fill:#5E9598;}
	.st71{fill:#90BABA;}
	.st72{fill:#C0BEB1;}
	.st73{fill:#C0C0C0;}
	.st74{fill:#C1E4DD;}
	.st75{fill:#939292;}
	.st76{fill:#C2A681;}
	.st77{fill:#C6C5C5;}
	.st78{fill:#FBF0E6;}
	.st79{fill:#996B33;}
	.st80{fill:#608C3D;}
	.st81{fill-rule:evenodd;clip-rule:evenodd;fill:#8F8376;}
	.st82{fill:#FFFFFF;}
	.st83{fill-rule:evenodd;clip-rule:evenodd;fill:#F1EDCD;}
	.st84{fill:#63998F;}
	.st85{fill:none;}
	.st86{fill:#65A844;}
	.st87{fill-rule:evenodd;clip-rule:evenodd;fill:#5B4F3F;}
	.st88{fill:#CAE8E4;}
	.st89{fill:#CC4028;}
	.st90{fill:#9DDAEC;}
	.st91{fill:#CDCCCB;}
	.st92{fill:#CEE9E4;}
	.st93{fill-rule:evenodd;clip-rule:evenodd;fill:#938980;}
	.st94{fill:#343433;}
	.st95{fill:#357180;}
	.st96{fill:#35878C;}
	.st97{fill:#367A82;}
	.st98{fill:#D0D1D1;}
	.st99{fill:#D1D1D1;}
	.st100{fill:#D62127;}
	.st101{fill:#3BAE85;}
	.st102{fill:#D7AD8C;}
	.st103{fill:#3D929A;}
	.st104{fill:#3F9099;}
	.st105{fill:#3F98A1;}
	.st106{fill:#A19F9F;}
	.st107{fill:#72C8BF;}
	.st108{fill:#74A0A3;}
	.st109{fill:#74BB4D;}
	.st110{fill:#A46434;}
	.st111{fill:#A5A9B6;}
	.st112{fill:#A77640;}
	.st113{fill:#DBDDE1;}
	.st114{fill:#DC3735;}
	.st115{fill:#DCD5B1;}
	.st116{fill:#DD9081;}
	.st117{fill:#DDA166;}
	.st118{fill:#DDF0EE;}
	.st119{fill:#459CA5;}
]]>
</style>
<g>
	<g>
		<g>
			<circle class="st3" cx="68.416" cy="68.417" r="63.333"/>
		</g>
		<g>
			<g>
				<path class="st24" d="M55.165,69.468c0,0,7.568,7.651,3.361,18.801C54.47,99.021,46.87,107.776,46.87,107.776
					c-10.951-10.951-10.951-28.707,0-39.66C57.823,57.162,55.165,69.468,55.165,69.468z"/>
				<path class="st24" d="M85.759,69.468c0,0-7.57,7.651-3.361,18.801c4.055,10.752,11.656,19.507,11.656,19.507
					c10.949-10.951,10.951-28.707-0.002-39.66C83.099,57.162,85.759,69.468,85.759,69.468z"/>
				<path class="st25" d="M97.806,72.863c0,15.495-12.555,28.051-28.045,28.051c-15.488,0-28.045-12.556-28.045-28.051
					c0-15.485,12.557-28.043,28.045-28.043C85.251,44.82,97.806,57.377,97.806,72.863z"/>
				<path class="st59" d="M96.47,67.732c0,0,8.811-45.822-26.709-45.822S43.056,67.732,43.056,67.732
					c0-12.643,14.059-22.897,26.705-22.897S96.47,55.089,96.47,67.732z"/>
				<path class="st10" d="M88.962,65.487c0,0-5.078,5.132-2.254,12.609c2.721,7.212,7.818,13.085,7.818,13.085
					c7.346-7.346,7.346-19.256,0-26.603C87.179,57.231,88.962,65.487,88.962,65.487z"/>
				<path class="st10" d="M49.741,67.136c0,0,5.078,5.134,2.256,12.611c-2.721,7.213-7.818,13.085-7.818,13.085
					c-7.344-7.346-7.346-19.257,0.002-26.603C51.526,58.882,49.741,67.136,49.741,67.136z"/>
				<ellipse class="st94" cx="61.355" cy="77.034" rx="3.843" ry="4.059"/>
				<ellipse class="st94" cx="78.008" cy="77.034" rx="3.843" ry="4.059"/>
				<path class="st82" d="M80.741,75.494c0,0.895-0.686,1.625-1.535,1.625c-0.846,0-1.533-0.73-1.533-1.625
					c0-0.898,0.688-1.623,1.533-1.623C80.056,73.871,80.741,74.595,80.741,75.494z"/>
				<path class="st82" d="M64.052,75.494c0,0.895-0.688,1.625-1.539,1.625c-0.848,0-1.535-0.73-1.535-1.625
					c0-0.898,0.688-1.623,1.535-1.623C63.364,73.871,64.052,74.595,64.052,75.494z"/>
				<path class="st40" d="M97.806,72.863L78.685,55.66c0,0-4.074,6.744-14.932,11.653c-10.473,4.735-22.037,5.55-22.037,5.55
					c0-15.485,12.557-28.043,28.045-28.043C85.251,44.82,97.806,57.377,97.806,72.863z"/>
			</g>
			<g>
				<circle class="st46" cx="70.128" cy="35.164" r="8.715"/>
				<path class="st0" d="M71.892,40.458c0,0.567-0.457,1.029-1.023,1.029h-1.482c-0.564,0-1.023-0.462-1.023-1.029v-10.59
					c0-0.57,0.459-1.027,1.023-1.027h1.482c0.566,0,1.023,0.457,1.023,1.027V40.458z"/>
				<path class="st0" d="M64.831,36.931c-0.566,0-1.025-0.459-1.025-1.027v-1.482c0-0.564,0.459-1.025,1.025-1.025h10.594
					c0.564,0,1.023,0.461,1.023,1.025v1.482c0,0.568-0.459,1.027-1.023,1.027H64.831z"/>
			</g>
		</g>
	</g>
</g>
</svg>
