<?xml version="1.0" encoding="utf-8"?>
<!-- Generator: Adobe Illustrator 16.0.0, SVG Export Plug-In . SVG Version: 6.00 Build 0)  -->
<!DOCTYPE svg PUBLIC "-//W3C//DTD SVG 1.1//EN" "http://www.w3.org/Graphics/SVG/1.1/DTD/svg11.dtd">
<svg version="1.1" id="Layer_1" xmlns="http://www.w3.org/2000/svg" xmlns:xlink="http://www.w3.org/1999/xlink" x="0px" y="0px"
	 width="136.833px" height="136.834px" viewBox="0 0 136.833 136.834" style="enable-background:new 0 0 136.833 136.834;"
	 xml:space="preserve">
<style type="text/css">
<![CDATA[
	.st0{fill-rule:evenodd;clip-rule:evenodd;fill:#D62127;}
	.st1{fill:#AAAAAA;}
	.st2{fill:#ABD0C8;}
	.st3{fill:#49A0AE;}
	.st4{fill-rule:evenodd;clip-rule:evenodd;fill:#3F3F3E;}
	.st5{fill:#AEAEAF;}
	.st6{fill:#E0F1EF;}
	.st7{fill:#E13F41;}
	.st8{fill:#E27660;}
	.st9{fill:#E27F76;}
	.st10{fill:#E2BE28;}
	.st11{fill:#E2DCBF;}
	.st12{fill:#E3E1C6;}
	.st13{fill:#E4AB6E;}
	.st14{fill:#E4B076;}
	.st15{fill:#E4DFBC;}
	.st16{fill:#E4E4E4;}
	.st17{fill:#4ABC96;}
	.st18{fill:#E6E2C5;}
	.st19{fill:#E7474A;}
	.st20{fill:#E7E2C3;}
	.st21{fill:#E7E4B9;}
	.st22{fill:#E84849;}
	.st23{fill:#4EBFB0;}
	.st24{fill:#E9B82B;}
	.st25{fill:#E9C29C;}
	.st26{fill:#E9E4CC;}
	.st27{fill:#4F7678;}
	.st28{fill:#80BAAE;}
	.st29{fill:#B0DFE0;}
	.st30{fill:#B3DCD2;}
	.st31{fill:#84CEC5;}
	.st32{fill:#86BBB1;}
	.st33{fill:#B6DBD4;}
	.st34{fill:#87C3B7;}
	.st35{fill:#EB9682;}
	.st36{fill:#EBB677;}
	.st37{fill:#EC6666;}
	.st38{fill:#ED3432;}
	.st39{fill:#B9B9BA;}
	.st40{fill:#EDC92C;}
	.st41{fill:#EE4646;}
	.st42{fill:#EF5353;}
	.st43{fill:#EFECEC;}
	.st44{fill:none;stroke:#E84849;stroke-miterlimit:10;}
	.st45{fill:#555C49;}
	.st46{fill-rule:evenodd;clip-rule:evenodd;fill:#F1EDCD;stroke:#E9D8B8;stroke-width:0.25;stroke-miterlimit:10;}
	.st47{fill:#8B8B8C;}
	.st48{fill:#BADDD6;}
	.st49{fill:none;stroke:#BBBCBB;stroke-width:0.5;stroke-miterlimit:10;}
	.st50{fill:#8D734F;}
	.st51{fill:#BCE2DD;}
	.st52{fill:#BDE3DB;}
	.st53{fill:#202121;}
	.st54{fill-rule:evenodd;clip-rule:evenodd;fill:#E9E3C4;}
	.st55{fill:#F06465;}
	.st56{fill:#BFBEBE;}
	.st57{fill-rule:evenodd;clip-rule:evenodd;fill:#82725A;}
	.st58{fill-rule:evenodd;clip-rule:evenodd;fill:#82786D;}
	.st59{fill:#F1EDCD;}
	.st60{fill:#F37C2A;}
	.st61{fill-rule:evenodd;clip-rule:evenodd;fill:#847D77;}
	.st62{fill:#255259;}
	.st63{fill:#F3F2D9;}
	.st64{fill:none;stroke:#FBD5D4;stroke-width:2.5;stroke-linecap:round;stroke-linejoin:round;stroke-miterlimit:10;}
	.st65{fill:#F49396;}
	.st66{fill:#F5EFD8;}
	.st67{fill:#F7F2F3;}
	.st68{fill:#5D919F;}
	.st69{fill:#5E5F5E;}
	.st70{fill:#5E9598;}
	.st71{fill:#90BABA;}
	.st72{fill:#C0BEB1;}
	.st73{fill:#C0C0C0;}
	.st74{fill:#C1E4DD;}
	.st75{fill:#939292;}
	.st76{fill:#C2A681;}
	.st77{fill:#C6C5C5;}
	.st78{fill:#FBF0E6;}
	.st79{fill:#996B33;}
	.st80{fill:#608C3D;}
	.st81{fill-rule:evenodd;clip-rule:evenodd;fill:#8F8376;}
	.st82{fill:#FFFFFF;}
	.st83{fill-rule:evenodd;clip-rule:evenodd;fill:#F1EDCD;}
	.st84{fill:#63998F;}
	.st85{fill:none;}
	.st86{fill:#65A844;}
	.st87{fill-rule:evenodd;clip-rule:evenodd;fill:#5B4F3F;}
	.st88{fill:#CAE8E4;}
	.st89{fill:#CC4028;}
	.st90{fill:#9DDAEC;}
	.st91{fill:#CDCCCB;}
	.st92{fill:#CEE9E4;}
	.st93{fill-rule:evenodd;clip-rule:evenodd;fill:#938980;}
	.st94{fill:#343433;}
	.st95{fill:#357180;}
	.st96{fill:#35878C;}
	.st97{fill:#367A82;}
	.st98{fill:#D0D1D1;}
	.st99{fill:#D1D1D1;}
	.st100{fill:#D62127;}
	.st101{fill:#3BAE85;}
	.st102{fill:#D7AD8C;}
	.st103{fill:#3D929A;}
	.st104{fill:#3F9099;}
	.st105{fill:#3F98A1;}
	.st106{fill:#A19F9F;}
	.st107{fill:#72C8BF;}
	.st108{fill:#74A0A3;}
	.st109{fill:#74BB4D;}
	.st110{fill:#A46434;}
	.st111{fill:#A5A9B6;}
	.st112{fill:#A77640;}
	.st113{fill:#DBDDE1;}
	.st114{fill:#DC3735;}
	.st115{fill:#DCD5B1;}
	.st116{fill:#DD9081;}
	.st117{fill:#DDA166;}
	.st118{fill:#DDF0EE;}
	.st119{fill:#459CA5;}
]]>
</style>
<g>
	<g>
		<circle class="st95" cx="68.417" cy="68.417" r="63.333"/>
	</g>
	<g>
		<path class="st84" d="M68.417,15.327c-1.772,0-4.584,1.416-4.584,5.211c0,2.916,2.592,4.289,3.75,4.756v8.789
			c0,0.459,0.374,0.832,0.834,0.832s0.834-0.373,0.834-0.832v-9.377c0-0.373-0.25-0.703-0.608-0.805
			c-0.031-0.008-3.143-0.93-3.143-3.363c0-2.6,1.745-3.543,2.917-3.543c2.752,0,4.584,0.639,4.584,3.752
			c0,0.459,0.373,0.832,0.834,0.832c0.459,0,0.833-0.373,0.833-0.832C74.667,17.151,72.564,15.327,68.417,15.327z"/>
		<g>
			<path class="st22" d="M68.463,121.507c-0.604,0-1.092-0.488-1.092-1.092V80.183c0-0.604,0.488-1.094,1.092-1.094
				c0.604,0,1.093,0.49,1.093,1.094v40.232C69.556,121.019,69.068,121.507,68.463,121.507z"/>
		</g>
		<g>
			<path class="st7" d="M68.463,121.507c-0.604,0-1.092-0.488-1.092-1.092V80.183c0-0.604,0.488-1.094,1.092-1.094V121.507z"/>
		</g>
		<path class="st88" d="M49.806,39.167v25.467c0,8.678,5.952,13.604,13.989,14.928v7.963c0,2.578,2.091,4.668,4.668,4.668
			c2.578,0,4.669-2.09,4.669-4.668v-7.98c7.98-1.354,13.874-6.275,13.874-14.91V39.167H68.462H49.806z"/>
		<path class="st51" d="M49.806,39.167v25.467c0,8.678,5.952,13.604,13.989,14.928v7.963c0,2.578,2.091,4.668,4.668,4.668
			l-0.001-53.025H49.806z"/>
		<path class="st34" d="M90.087,36.019c0,2.178-1.765,3.941-3.94,3.941H50.686c-2.176,0-3.94-1.764-3.94-3.941l0,0
			c0-2.178,1.765-3.939,3.94-3.939h35.461C88.323,32.079,90.087,33.841,90.087,36.019L90.087,36.019z"/>
		<path class="st28" d="M68.466,39.96h-17.78c-2.176,0-3.94-1.764-3.94-3.941l0,0c0-2.178,1.765-3.939,3.94-3.939h17.815
			L68.466,39.96z"/>
		<path class="st22" d="M50.758,58.056v6.316c0,8.477,5.978,13.191,13.946,14.277v7.512c0,2.072,1.684,3.758,3.759,3.758
			s3.759-1.686,3.759-3.758v-7.529c7.911-1.117,13.832-5.824,13.832-14.26v-6.316H68.462H50.758z"/>
		<path class="st7" d="M50.758,58.056v6.316c0,8.477,5.978,13.191,13.946,14.277v7.512c0,2.072,1.684,3.758,3.759,3.758
			l-0.001-31.863H50.758z"/>
		<path class="st34" d="M73.5,86.618H63.208c-1.783,0-3.23,1.445-3.23,3.229s1.447,3.229,3.23,3.229H73.5
			c1.783,0,3.229-1.445,3.229-3.229S75.284,86.618,73.5,86.618z"/>
		<path class="st28" d="M68.4,86.618h-5.191c-1.783,0-3.23,1.445-3.23,3.229s1.447,3.229,3.23,3.229h5.236L68.4,86.618z"/>
	</g>
	<g>
		<circle class="st37" cx="56.708" cy="60.542" r="1"/>
		<circle class="st37" cx="64.957" cy="65.292" r="1.416"/>
		<circle class="st37" cx="67.623" cy="77.876" r="1"/>
		<circle class="st37" cx="79.708" cy="61.96" r="1.417"/>
		<circle class="st37" cx="58.042" cy="69.21" r="0.917"/>
		<circle class="st37" cx="72.333" cy="70.167" r="1.417"/>
		<circle class="st37" cx="71.959" cy="59.376" r="1.417"/>
	</g>
</g>
</svg>
