<?xml version="1.0" encoding="utf-8"?>
<!-- Generator: Adobe Illustrator 16.0.0, SVG Export Plug-In . SVG Version: 6.00 Build 0)  -->
<!DOCTYPE svg PUBLIC "-//W3C//DTD SVG 1.1//EN" "http://www.w3.org/Graphics/SVG/1.1/DTD/svg11.dtd">
<svg version="1.1" id="Layer_1" xmlns="http://www.w3.org/2000/svg" xmlns:xlink="http://www.w3.org/1999/xlink" x="0px" y="0px"
	 width="136.833px" height="136.833px" viewBox="0 0 136.833 136.833" style="enable-background:new 0 0 136.833 136.833;"
	 xml:space="preserve">
<style type="text/css">
<![CDATA[
	.st0{fill-rule:evenodd;clip-rule:evenodd;fill:#D62127;}
	.st1{fill:#AAAAAA;}
	.st2{fill:#ABD0C8;}
	.st3{fill:#49A0AE;}
	.st4{fill-rule:evenodd;clip-rule:evenodd;fill:#3F3F3E;}
	.st5{fill:#AEAEAF;}
	.st6{fill:#E0F1EF;}
	.st7{fill:#E13F41;}
	.st8{fill:#E27660;}
	.st9{fill:#E27F76;}
	.st10{fill:#E2BE28;}
	.st11{fill:#E2DCBF;}
	.st12{fill:#E3E1C6;}
	.st13{fill:#E4AB6E;}
	.st14{fill:#E4B076;}
	.st15{fill:#E4DFBC;}
	.st16{fill:#E4E4E4;}
	.st17{fill:#4ABC96;}
	.st18{fill:#E6E2C5;}
	.st19{fill:#E7474A;}
	.st20{fill:#E7E2C3;}
	.st21{fill:#E7E4B9;}
	.st22{fill:#E84849;}
	.st23{fill:#4EBFB0;}
	.st24{fill:#E9B82B;}
	.st25{fill:#E9C29C;}
	.st26{fill:#E9E4CC;}
	.st27{fill:#4F7678;}
	.st28{fill:#80BAAE;}
	.st29{fill:#B0DFE0;}
	.st30{fill:#B3DCD2;}
	.st31{fill:#84CEC5;}
	.st32{fill:#86BBB1;}
	.st33{fill:#B6DBD4;}
	.st34{fill:#87C3B7;}
	.st35{fill:#EB9682;}
	.st36{fill:#EBB677;}
	.st37{fill:#EC6666;}
	.st38{fill:#ED3432;}
	.st39{fill:#B9B9BA;}
	.st40{fill:#EDC92C;}
	.st41{fill:#EE4646;}
	.st42{fill:#EF5353;}
	.st43{fill:#EFECEC;}
	.st44{fill:none;stroke:#E84849;stroke-miterlimit:10;}
	.st45{fill:#555C49;}
	.st46{fill-rule:evenodd;clip-rule:evenodd;fill:#F1EDCD;stroke:#E9D8B8;stroke-width:0.25;stroke-miterlimit:10;}
	.st47{fill:#8B8B8C;}
	.st48{fill:#BADDD6;}
	.st49{fill:none;stroke:#BBBCBB;stroke-width:0.5;stroke-miterlimit:10;}
	.st50{fill:#8D734F;}
	.st51{fill:#BCE2DD;}
	.st52{fill:#BDE3DB;}
	.st53{fill:#202121;}
	.st54{fill-rule:evenodd;clip-rule:evenodd;fill:#E9E3C4;}
	.st55{fill:#F06465;}
	.st56{fill:#BFBEBE;}
	.st57{fill-rule:evenodd;clip-rule:evenodd;fill:#82725A;}
	.st58{fill-rule:evenodd;clip-rule:evenodd;fill:#82786D;}
	.st59{fill:#F1EDCD;}
	.st60{fill:#F37C2A;}
	.st61{fill-rule:evenodd;clip-rule:evenodd;fill:#847D77;}
	.st62{fill:#255259;}
	.st63{fill:#F3F2D9;}
	.st64{fill:none;stroke:#FBD5D4;stroke-width:2.5;stroke-linecap:round;stroke-linejoin:round;stroke-miterlimit:10;}
	.st65{fill:#F49396;}
	.st66{fill:#F5EFD8;}
	.st67{fill:#F7F2F3;}
	.st68{fill:#5D919F;}
	.st69{fill:#5E5F5E;}
	.st70{fill:#5E9598;}
	.st71{fill:#90BABA;}
	.st72{fill:#C0BEB1;}
	.st73{fill:#C0C0C0;}
	.st74{fill:#C1E4DD;}
	.st75{fill:#939292;}
	.st76{fill:#C2A681;}
	.st77{fill:#C6C5C5;}
	.st78{fill:#FBF0E6;}
	.st79{fill:#996B33;}
	.st80{fill:#608C3D;}
	.st81{fill-rule:evenodd;clip-rule:evenodd;fill:#8F8376;}
	.st82{fill:#FFFFFF;}
	.st83{fill-rule:evenodd;clip-rule:evenodd;fill:#F1EDCD;}
	.st84{fill:#63998F;}
	.st85{fill:none;}
	.st86{fill:#65A844;}
	.st87{fill-rule:evenodd;clip-rule:evenodd;fill:#5B4F3F;}
	.st88{fill:#CAE8E4;}
	.st89{fill:#CC4028;}
	.st90{fill:#9DDAEC;}
	.st91{fill:#CDCCCB;}
	.st92{fill:#CEE9E4;}
	.st93{fill-rule:evenodd;clip-rule:evenodd;fill:#938980;}
	.st94{fill:#343433;}
	.st95{fill:#357180;}
	.st96{fill:#35878C;}
	.st97{fill:#367A82;}
	.st98{fill:#D0D1D1;}
	.st99{fill:#D1D1D1;}
	.st100{fill:#D62127;}
	.st101{fill:#3BAE85;}
	.st102{fill:#D7AD8C;}
	.st103{fill:#3D929A;}
	.st104{fill:#3F9099;}
	.st105{fill:#3F98A1;}
	.st106{fill:#A19F9F;}
	.st107{fill:#72C8BF;}
	.st108{fill:#74A0A3;}
	.st109{fill:#74BB4D;}
	.st110{fill:#A46434;}
	.st111{fill:#A5A9B6;}
	.st112{fill:#A77640;}
	.st113{fill:#DBDDE1;}
	.st114{fill:#DC3735;}
	.st115{fill:#DCD5B1;}
	.st116{fill:#DD9081;}
	.st117{fill:#DDA166;}
	.st118{fill:#DDF0EE;}
	.st119{fill:#459CA5;}
]]>
</style>
<g>
	<g>
		<circle class="st3" cx="68.417" cy="68.417" r="63.333"/>
	</g>
	<g>
		<path class="st11" d="M30.762,58.364h48.719c1.365,0,2.471,11.018,2.471,12.016c0,1.001-1.105,1.811-2.471,1.811
			c0,0-51.189-8.504-51.189-12.016C28.292,59.079,29.399,58.364,30.762,58.364z"/>
		<path class="st11" d="M28.1,59.97l-3.391-5.923c-0.684-1.18-0.533-2.544,0.333-3.043c0.866-0.5,2.119,0.052,2.802,1.232
			l3.391,5.922c0.683,1.18,0.533,2.543-0.334,3.045C30.036,61.704,28.783,61.151,28.1,59.97z"/>
		<path class="st97" d="M39.713,51.697l34.667,2.471l34.777-2.471c1.944,0,3.52,0.812,3.52,1.811c0,1.002-1.575,1.812-3.52,1.812
			H39.713c-1.944,0-3.521-0.81-3.521-1.812C36.193,52.508,37.769,51.697,39.713,51.697z"/>
		<path class="st11" d="M72.167,58.309h24.018c5.693,0,11.693,4.617,13.403,10.311l2.405,8.018
			c1.708,5.695-1.521,10.311-7.217,10.311H80.758c-5.693,0-11.694-4.615-13.402-10.311l-4.717-15.092L72.167,58.309z"/>
		<path class="st71" d="M95.793,61.987c9.604,0,13.266,12.234,11.391,12.234H95.793V61.987z"/>
		<g>
			<circle class="st83" cx="80.905" cy="71.172" r="9.08"/>
			<path class="st0" d="M79.066,76.692c0,0.59,0.479,1.068,1.069,1.068h1.541c0.591,0,1.07-0.479,1.07-1.068V65.653
				c0-0.59-0.479-1.066-1.07-1.066h-1.541c-0.591,0-1.069,0.477-1.069,1.066V76.692z"/>
			<path class="st0" d="M86.426,73.01c0.589,0,1.068-0.475,1.068-1.066v-1.542c0-0.591-0.479-1.068-1.068-1.068h-11.04
				c-0.589,0-1.067,0.478-1.067,1.068v1.542c0,0.592,0.479,1.066,1.067,1.066H86.426z"/>
		</g>
		<g>
			<g>
				<path class="st97" d="M25.912,46.893c-2.264,0-1.781,11.509,0,11.509C27.692,58.402,28.172,46.893,25.912,46.893z"/>
			</g>
			<g>
				<path class="st97" d="M20.156,52.645c0,2.266,11.511,1.785,11.511,0C31.667,50.868,20.156,50.386,20.156,52.645z"/>
			</g>
			<path class="st62" d="M25.946,53.766c0.609-0.003,1.099-0.494,1.1-1.099c0-0.607-0.492-1.101-1.1-1.101
				c-0.604,0-1.097,0.493-1.099,1.101C24.847,53.272,25.343,53.763,25.946,53.766z"/>
		</g>
		<path class="st11" d="M73.173,59.489c0,0.758,0.614,1.371,1.372,1.371l0,0c0.758,0,1.37-0.613,1.37-1.371v-4.5
			c0-0.757-0.612-1.369-1.37-1.369l0,0c-0.758,0-1.372,0.612-1.372,1.369V59.489z"/>
		<g>
			<path class="st11" d="M100.88,83.165c0.758,0,1.372,0.613,1.372,1.371v4.5c0,0.758-0.614,0.656-1.372,0.656
				c-0.757,0-1.371,0.102-1.371-0.656v-4.5C99.509,83.778,100.124,83.165,100.88,83.165z"/>
			<path class="st11" d="M82.858,83.165c0.758,0,1.371,0.613,1.371,1.371v4.5c0,0.758-0.613,0.74-1.371,0.74
				c-0.759,0-1.373,0.018-1.373-0.74v-4.5C81.485,83.778,82.099,83.165,82.858,83.165z"/>
		</g>
		<g>
			<path class="st11" d="M105.6,90.94H77.124c-0.552,0-1-0.447-1-1c0-0.552,0.448-1,1-1H105.6c2.913,0,4.124-1.322,4.135-1.336
				c0.357-0.42,0.988-0.471,1.41-0.111c0.42,0.357,0.47,0.989,0.112,1.409C111.186,88.985,109.473,90.94,105.6,90.94z"/>
		</g>
	</g>
</g>
</svg>
