<?xml version="1.0" encoding="utf-8"?>
<!-- Generator: Adobe Illustrator 16.0.0, SVG Export Plug-In . SVG Version: 6.00 Build 0)  -->
<!DOCTYPE svg PUBLIC "-//W3C//DTD SVG 1.1//EN" "http://www.w3.org/Graphics/SVG/1.1/DTD/svg11.dtd">
<svg version="1.1" id="Layer_1" xmlns="http://www.w3.org/2000/svg" xmlns:xlink="http://www.w3.org/1999/xlink" x="0px" y="0px"
	 width="136.833px" height="136.834px" viewBox="0 0 136.833 136.834" style="enable-background:new 0 0 136.833 136.834;"
	 xml:space="preserve">
<style type="text/css">
<![CDATA[
	.st0{fill-rule:evenodd;clip-rule:evenodd;fill:#D62127;}
	.st1{fill:#AAAAAA;}
	.st2{fill:#ABD0C8;}
	.st3{fill:#49A0AE;}
	.st4{fill-rule:evenodd;clip-rule:evenodd;fill:#3F3F3E;}
	.st5{fill:#AEAEAF;}
	.st6{fill:#E0F1EF;}
	.st7{fill:#E13F41;}
	.st8{fill:#E27660;}
	.st9{fill:#E27F76;}
	.st10{fill:#E2BE28;}
	.st11{fill:#E2DCBF;}
	.st12{fill:#E3E1C6;}
	.st13{fill:#E4AB6E;}
	.st14{fill:#E4B076;}
	.st15{fill:#E4DFBC;}
	.st16{fill:#E4E4E4;}
	.st17{fill:#4ABC96;}
	.st18{fill:#E6E2C5;}
	.st19{fill:#E7474A;}
	.st20{fill:#E7E2C3;}
	.st21{fill:#E7E4B9;}
	.st22{fill:#E84849;}
	.st23{fill:#4EBFB0;}
	.st24{fill:#E9B82B;}
	.st25{fill:#E9C29C;}
	.st26{fill:#E9E4CC;}
	.st27{fill:#4F7678;}
	.st28{fill:#80BAAE;}
	.st29{fill:#B0DFE0;}
	.st30{fill:#B3DCD2;}
	.st31{fill:#84CEC5;}
	.st32{fill:#86BBB1;}
	.st33{fill:#B6DBD4;}
	.st34{fill:#87C3B7;}
	.st35{fill:#EB9682;}
	.st36{fill:#EBB677;}
	.st37{fill:#EC6666;}
	.st38{fill:#ED3432;}
	.st39{fill:#B9B9BA;}
	.st40{fill:#EDC92C;}
	.st41{fill:#EE4646;}
	.st42{fill:#EF5353;}
	.st43{fill:#EFECEC;}
	.st44{fill:none;stroke:#E84849;stroke-miterlimit:10;}
	.st45{fill:#555C49;}
	.st46{fill-rule:evenodd;clip-rule:evenodd;fill:#F1EDCD;stroke:#E9D8B8;stroke-width:0.25;stroke-miterlimit:10;}
	.st47{fill:#8B8B8C;}
	.st48{fill:#BADDD6;}
	.st49{fill:none;stroke:#BBBCBB;stroke-width:0.5;stroke-miterlimit:10;}
	.st50{fill:#8D734F;}
	.st51{fill:#BCE2DD;}
	.st52{fill:#BDE3DB;}
	.st53{fill:#202121;}
	.st54{fill-rule:evenodd;clip-rule:evenodd;fill:#E9E3C4;}
	.st55{fill:#F06465;}
	.st56{fill:#BFBEBE;}
	.st57{fill-rule:evenodd;clip-rule:evenodd;fill:#82725A;}
	.st58{fill-rule:evenodd;clip-rule:evenodd;fill:#82786D;}
	.st59{fill:#F1EDCD;}
	.st60{fill:#F37C2A;}
	.st61{fill-rule:evenodd;clip-rule:evenodd;fill:#847D77;}
	.st62{fill:#255259;}
	.st63{fill:#F3F2D9;}
	.st64{fill:none;stroke:#FBD5D4;stroke-width:2.5;stroke-linecap:round;stroke-linejoin:round;stroke-miterlimit:10;}
	.st65{fill:#F49396;}
	.st66{fill:#F5EFD8;}
	.st67{fill:#F7F2F3;}
	.st68{fill:#5D919F;}
	.st69{fill:#5E5F5E;}
	.st70{fill:#5E9598;}
	.st71{fill:#90BABA;}
	.st72{fill:#C0BEB1;}
	.st73{fill:#C0C0C0;}
	.st74{fill:#C1E4DD;}
	.st75{fill:#939292;}
	.st76{fill:#C2A681;}
	.st77{fill:#C6C5C5;}
	.st78{fill:#FBF0E6;}
	.st79{fill:#996B33;}
	.st80{fill:#608C3D;}
	.st81{fill-rule:evenodd;clip-rule:evenodd;fill:#8F8376;}
	.st82{fill:#FFFFFF;}
	.st83{fill-rule:evenodd;clip-rule:evenodd;fill:#F1EDCD;}
	.st84{fill:#63998F;}
	.st85{fill:none;}
	.st86{fill:#65A844;}
	.st87{fill-rule:evenodd;clip-rule:evenodd;fill:#5B4F3F;}
	.st88{fill:#CAE8E4;}
	.st89{fill:#CC4028;}
	.st90{fill:#9DDAEC;}
	.st91{fill:#CDCCCB;}
	.st92{fill:#CEE9E4;}
	.st93{fill-rule:evenodd;clip-rule:evenodd;fill:#938980;}
	.st94{fill:#343433;}
	.st95{fill:#357180;}
	.st96{fill:#35878C;}
	.st97{fill:#367A82;}
	.st98{fill:#D0D1D1;}
	.st99{fill:#D1D1D1;}
	.st100{fill:#D62127;}
	.st101{fill:#3BAE85;}
	.st102{fill:#D7AD8C;}
	.st103{fill:#3D929A;}
	.st104{fill:#3F9099;}
	.st105{fill:#3F98A1;}
	.st106{fill:#A19F9F;}
	.st107{fill:#72C8BF;}
	.st108{fill:#74A0A3;}
	.st109{fill:#74BB4D;}
	.st110{fill:#A46434;}
	.st111{fill:#A5A9B6;}
	.st112{fill:#A77640;}
	.st113{fill:#DBDDE1;}
	.st114{fill:#DC3735;}
	.st115{fill:#DCD5B1;}
	.st116{fill:#DD9081;}
	.st117{fill:#DDA166;}
	.st118{fill:#DDF0EE;}
	.st119{fill:#459CA5;}
]]>
</style>
<g>
	<g>
		<g>
			<circle class="st40" cx="68.417" cy="68.418" r="63.333"/>
		</g>
		<g>
			<circle class="st3" cx="34.911" cy="97.735" r="6.271"/>
			<circle class="st104" cx="34.911" cy="97.735" r="3.716"/>
			<circle class="st3" cx="100.871" cy="97.735" r="6.271"/>
			<circle class="st104" cx="100.871" cy="97.735" r="3.716"/>
			<path class="st70" d="M36.537,97.503c0,0.898-0.728,1.626-1.626,1.626l0,0c-0.897,0-1.625-0.728-1.625-1.626V68.007
				c0-0.898,0.728-1.625,1.625-1.625l0,0c0.898,0,1.626,0.727,1.626,1.625V97.503z"/>
			<path class="st70" d="M102.498,97.503c0,0.898-0.729,1.626-1.627,1.626l0,0c-0.897,0-1.625-0.728-1.625-1.626V68.007
				c0-0.898,0.728-1.625,1.625-1.625l0,0c0.897,0,1.627,0.727,1.627,1.625V97.503z"/>
			<path class="st29" d="M107.873,66.098c1.649,0,2.985,1.336,2.985,2.986v6.347c0,1.647-1.336,2.985-2.985,2.985H27.677
				c-1.649,0-2.985-1.338-2.985-2.985v-6.347c0-1.65,1.336-2.986,2.985-2.986H107.873z"/>
			<path class="st96" d="M30.917,66.916c0,0.46-0.373,0.834-0.834,0.834l0,0c-0.46,0-0.833-0.374-0.833-0.834V55.25
				c0-0.461,0.373-0.834,0.833-0.834l0,0c0.461,0,0.834,0.373,0.834,0.834V66.916z"/>
			<path class="st29" d="M28.191,53.965c-1.293-1.024-1.51-2.901-0.485-4.194l0,0c1.023-1.291,2.902-1.509,4.194-0.483l20.31,16.104
				c1.291,1.025,1.508,2.903,0.483,4.194l0,0c-1.024,1.293-2.902,1.509-4.194,0.484L28.191,53.965z"/>
			<g>
				<path class="st70" d="M59.75,43.959c-0.257,0-0.464-0.207-0.464-0.463V22.418c0-0.259,0.207-0.466,0.464-0.466
					s0.465,0.207,0.465,0.466v21.078C60.215,43.752,60.007,43.959,59.75,43.959z"/>
			</g>
			<g>
				<path class="st27" d="M63.938,50.088h-8.375c-0.185,0-0.362-0.073-0.492-0.204c-0.423-0.423-0.656-0.985-0.656-1.585
					c0-0.599,0.233-1.162,0.656-1.585l3.095-3.094c0.424-0.423,0.986-0.657,1.585-0.657s1.162,0.234,1.585,0.657l3.096,3.094
					c0.423,0.423,0.656,0.986,0.656,1.585c0,0.6-0.233,1.162-0.656,1.585C64.3,50.015,64.123,50.088,63.938,50.088z M55.905,48.695
					h7.692c0.063-0.121,0.098-0.256,0.098-0.396c0-0.227-0.089-0.439-0.249-0.6l-3.096-3.094c-0.32-0.321-0.879-0.321-1.199,0
					l-3.095,3.094c-0.16,0.16-0.249,0.373-0.249,0.6C55.807,48.439,55.841,48.574,55.905,48.695z"/>
			</g>
			<g>
				<path class="st108" d="M109.734,62.126h-1.65V68.5c0,0.782-0.635,1.416-1.417,1.416s-1.417-0.634-1.417-1.416v-6.374h-3.833
					V68.5c0,0.782-0.635,1.416-1.417,1.416s-1.417-0.634-1.417-1.416v-6.374h-4.499V68.5c0,0.782-0.635,1.416-1.417,1.416
					S91.25,69.282,91.25,68.5v-6.374h-3.833V68.5c0,0.782-0.635,1.416-1.417,1.416s-1.417-0.634-1.417-1.416v-6.374h-4.665V68.5
					c0,0.782-0.635,1.416-1.417,1.416s-1.417-0.634-1.417-1.416v-6.374H73.25V68.5c0,0.782-0.635,1.416-1.417,1.416
					s-1.417-0.634-1.417-1.416v-6.374h-4.499V68.5c0,0.782-0.635,1.416-1.417,1.416s-1.417-0.634-1.417-1.416v-6.374H59.25V68.5
					c0,0.782-0.635,1.416-1.417,1.416s-1.417-0.634-1.417-1.416v-6.374h-4.499V68.5c0,0.782-0.635,1.416-1.417,1.416
					s-1.417-0.634-1.417-1.416v-6.374H45.25V68.5c0,0.782-0.635,1.416-1.417,1.416s-1.417-0.634-1.417-1.416v-6.374h-4.499V68.5
					c0,0.782-0.635,1.416-1.417,1.416s-1.417-0.634-1.417-1.416v-6.374H31.25V68.5c0,0.782-0.635,1.416-1.417,1.416
					s-1.417-0.634-1.417-1.416v-6.374h-2.601c-1.726,0-3.124,1.397-3.124,3.124v12.043c0,1.724,1.398,3.123,3.124,3.123h83.918
					c1.726,0,3.124-1.399,3.124-3.123V65.25C112.858,63.523,111.459,62.126,109.734,62.126z"/>
			</g>
			<path class="st104" d="M113.042,63.084c0,0.517-0.354,0.937-0.792,0.937H23.334c-0.438,0-0.793-0.42-0.793-0.937l0,0
				c0-0.519,0.354-0.938,0.793-0.938h88.915C112.687,62.146,113.042,62.565,113.042,63.084L113.042,63.084z"/>
		</g>
	</g>
</g>
</svg>
