<?xml version="1.0" encoding="utf-8"?>
<!-- Generator: Adobe Illustrator 16.0.0, SVG Export Plug-In . SVG Version: 6.00 Build 0)  -->
<!DOCTYPE svg PUBLIC "-//W3C//DTD SVG 1.1//EN" "http://www.w3.org/Graphics/SVG/1.1/DTD/svg11.dtd">
<svg version="1.1" id="Layer_1" xmlns="http://www.w3.org/2000/svg" xmlns:xlink="http://www.w3.org/1999/xlink" x="0px" y="0px"
	 width="136.833px" height="136.834px" viewBox="0 0 136.833 136.834" style="enable-background:new 0 0 136.833 136.834;"
	 xml:space="preserve">
<style type="text/css">
<![CDATA[
	.st0{fill-rule:evenodd;clip-rule:evenodd;fill:#D62127;}
	.st1{fill:#AAAAAA;}
	.st2{fill:#ABD0C8;}
	.st3{fill:#49A0AE;}
	.st4{fill-rule:evenodd;clip-rule:evenodd;fill:#3F3F3E;}
	.st5{fill:#AEAEAF;}
	.st6{fill:#E0F1EF;}
	.st7{fill:#E13F41;}
	.st8{fill:#E27660;}
	.st9{fill:#E27F76;}
	.st10{fill:#E2BE28;}
	.st11{fill:#E2DCBF;}
	.st12{fill:#E3E1C6;}
	.st13{fill:#E4AB6E;}
	.st14{fill:#E4B076;}
	.st15{fill:#E4DFBC;}
	.st16{fill:#E4E4E4;}
	.st17{fill:#4ABC96;}
	.st18{fill:#E6E2C5;}
	.st19{fill:#E7474A;}
	.st20{fill:#E7E2C3;}
	.st21{fill:#E7E4B9;}
	.st22{fill:#E84849;}
	.st23{fill:#4EBFB0;}
	.st24{fill:#E9B82B;}
	.st25{fill:#E9C29C;}
	.st26{fill:#E9E4CC;}
	.st27{fill:#4F7678;}
	.st28{fill:#80BAAE;}
	.st29{fill:#B0DFE0;}
	.st30{fill:#B3DCD2;}
	.st31{fill:#84CEC5;}
	.st32{fill:#86BBB1;}
	.st33{fill:#B6DBD4;}
	.st34{fill:#87C3B7;}
	.st35{fill:#EB9682;}
	.st36{fill:#EBB677;}
	.st37{fill:#EC6666;}
	.st38{fill:#ED3432;}
	.st39{fill:#B9B9BA;}
	.st40{fill:#EDC92C;}
	.st41{fill:#EE4646;}
	.st42{fill:#EF5353;}
	.st43{fill:#EFECEC;}
	.st44{fill:none;stroke:#E84849;stroke-miterlimit:10;}
	.st45{fill:#555C49;}
	.st46{fill-rule:evenodd;clip-rule:evenodd;fill:#F1EDCD;stroke:#E9D8B8;stroke-width:0.25;stroke-miterlimit:10;}
	.st47{fill:#8B8B8C;}
	.st48{fill:#BADDD6;}
	.st49{fill:none;stroke:#BBBCBB;stroke-width:0.5;stroke-miterlimit:10;}
	.st50{fill:#8D734F;}
	.st51{fill:#BCE2DD;}
	.st52{fill:#BDE3DB;}
	.st53{fill:#202121;}
	.st54{fill-rule:evenodd;clip-rule:evenodd;fill:#E9E3C4;}
	.st55{fill:#F06465;}
	.st56{fill:#BFBEBE;}
	.st57{fill-rule:evenodd;clip-rule:evenodd;fill:#82725A;}
	.st58{fill-rule:evenodd;clip-rule:evenodd;fill:#82786D;}
	.st59{fill:#F1EDCD;}
	.st60{fill:#F37C2A;}
	.st61{fill-rule:evenodd;clip-rule:evenodd;fill:#847D77;}
	.st62{fill:#255259;}
	.st63{fill:#F3F2D9;}
	.st64{fill:none;stroke:#FBD5D4;stroke-width:2.5;stroke-linecap:round;stroke-linejoin:round;stroke-miterlimit:10;}
	.st65{fill:#F49396;}
	.st66{fill:#F5EFD8;}
	.st67{fill:#F7F2F3;}
	.st68{fill:#5D919F;}
	.st69{fill:#5E5F5E;}
	.st70{fill:#5E9598;}
	.st71{fill:#90BABA;}
	.st72{fill:#C0BEB1;}
	.st73{fill:#C0C0C0;}
	.st74{fill:#C1E4DD;}
	.st75{fill:#939292;}
	.st76{fill:#C2A681;}
	.st77{fill:#C6C5C5;}
	.st78{fill:#FBF0E6;}
	.st79{fill:#996B33;}
	.st80{fill:#608C3D;}
	.st81{fill-rule:evenodd;clip-rule:evenodd;fill:#8F8376;}
	.st82{fill:#FFFFFF;}
	.st83{fill-rule:evenodd;clip-rule:evenodd;fill:#F1EDCD;}
	.st84{fill:#63998F;}
	.st85{fill:none;}
	.st86{fill:#65A844;}
	.st87{fill-rule:evenodd;clip-rule:evenodd;fill:#5B4F3F;}
	.st88{fill:#CAE8E4;}
	.st89{fill:#CC4028;}
	.st90{fill:#9DDAEC;}
	.st91{fill:#CDCCCB;}
	.st92{fill:#CEE9E4;}
	.st93{fill-rule:evenodd;clip-rule:evenodd;fill:#938980;}
	.st94{fill:#343433;}
	.st95{fill:#357180;}
	.st96{fill:#35878C;}
	.st97{fill:#367A82;}
	.st98{fill:#D0D1D1;}
	.st99{fill:#D1D1D1;}
	.st100{fill:#D62127;}
	.st101{fill:#3BAE85;}
	.st102{fill:#D7AD8C;}
	.st103{fill:#3D929A;}
	.st104{fill:#3F9099;}
	.st105{fill:#3F98A1;}
	.st106{fill:#A19F9F;}
	.st107{fill:#72C8BF;}
	.st108{fill:#74A0A3;}
	.st109{fill:#74BB4D;}
	.st110{fill:#A46434;}
	.st111{fill:#A5A9B6;}
	.st112{fill:#A77640;}
	.st113{fill:#DBDDE1;}
	.st114{fill:#DC3735;}
	.st115{fill:#DCD5B1;}
	.st116{fill:#DD9081;}
	.st117{fill:#DDA166;}
	.st118{fill:#DDF0EE;}
	.st119{fill:#459CA5;}
]]>
</style>
<g>
	<g>
		<g>
			<circle class="st3" cx="68.416" cy="68.417" r="63.333"/>
		</g>
		<g>
			<polygon class="st25" points="69.751,77.67 64.427,71.348 69.751,71.348 76.015,71.348 			"/>
			<path class="st66" d="M91.317,108.167c0,5.483-4.047,9.93-9.041,9.93h-24.67c-4.992,0-9.039-4.446-9.039-9.93
				c0,0,2.07-21.511,3.766-26.892c1.695-5.375,4.047-9.928,9.041-9.928h3.053l5.324,5.535l6.264-5.535h3.25
				c4.992,0,7.721,3.309,9.039,9.928C89.622,87.897,91.317,108.167,91.317,108.167z"/>
			<path class="st25" d="M91.317,108.167c0,5.483-4.047,9.93-9.041,9.93l-1.328-9.925L91.317,108.167z"/>
			<path class="st66" d="M91.317,108.167l-10.359,0.002l-4.943-36.821h3.25c4.992,0,7.721,3.309,9.039,9.928
				C89.622,87.897,91.317,108.167,91.317,108.167z"/>
			<path class="st25" d="M57.606,118.097c-4.992,0-9.039-4.446-9.039-9.93l10.906,0.03L57.606,118.097z"/>
			<g>
				<path class="st25" d="M87.938,50.729c0,10.066-8.156,18.222-18.219,18.222s-18.219-8.155-18.219-18.222
					c0-10.061,8.156-18.218,18.219-18.218S87.938,40.668,87.938,50.729z"/>
				<path class="st59" d="M87.069,47.395c0,0,5.725-29.767-17.35-29.767S52.37,47.395,52.37,47.395
					c0-8.213,9.133-14.874,17.35-14.874C77.935,32.521,87.069,39.182,87.069,47.395z"/>
				<path class="st110" d="M87.938,50.729L75.517,39.552c0,0-2.646,4.382-9.701,7.571c-6.803,3.075-14.314,3.605-14.314,3.605
					c0-10.061,8.156-18.218,18.219-18.218S87.938,40.668,87.938,50.729z"/>
				<ellipse class="st94" cx="64.259" cy="53.438" rx="2.496" ry="2.636"/>
				<ellipse class="st94" cx="75.076" cy="53.438" rx="2.497" ry="2.636"/>
				<ellipse class="st82" cx="75.855" cy="52.438" rx="0.997" ry="1.055"/>
				<ellipse class="st82" cx="65.013" cy="52.438" rx="0.998" ry="1.055"/>
			</g>
			<path class="st66" d="M48.567,108.167c0,0,2.07-21.511,3.766-26.892c1.695-5.375,4.047-9.928,9.041-9.928l3.053-0.012
				l-4.953,36.861L48.567,108.167z"/>
			<line class="st49" x1="69.751" y1="118.131" x2="69.751" y2="76.651"/>
			<g>
				<circle class="st46" cx="69.957" cy="26.239" r="5.661"/>
				<path class="st0" d="M71.104,29.678c0,0.367-0.299,0.668-0.666,0.668h-0.963c-0.367,0-0.666-0.301-0.666-0.668v-6.879
					c0-0.37,0.299-0.668,0.666-0.668h0.963c0.367,0,0.666,0.298,0.666,0.668V29.678z"/>
				<path class="st0" d="M66.517,27.386c-0.367,0-0.666-0.298-0.666-0.667v-0.963c0-0.367,0.299-0.666,0.666-0.666h6.881
					c0.369,0,0.666,0.299,0.666,0.666v0.963c0,0.369-0.297,0.667-0.666,0.667H66.517z"/>
			</g>
		</g>
	</g>
</g>
</svg>
