<?xml version="1.0" encoding="utf-8"?>
<!-- Generator: Adobe Illustrator 16.0.0, SVG Export Plug-In . SVG Version: 6.00 Build 0)  -->
<!DOCTYPE svg PUBLIC "-//W3C//DTD SVG 1.1//EN" "http://www.w3.org/Graphics/SVG/1.1/DTD/svg11.dtd">
<svg version="1.1" id="Layer_1" xmlns="http://www.w3.org/2000/svg" xmlns:xlink="http://www.w3.org/1999/xlink" x="0px" y="0px"
	 width="136.833px" height="136.834px" viewBox="0 0 136.833 136.834" style="enable-background:new 0 0 136.833 136.834;"
	 xml:space="preserve">
<style type="text/css">
<![CDATA[
	.st0{fill-rule:evenodd;clip-rule:evenodd;fill:#D62127;}
	.st1{fill:#AAAAAA;}
	.st2{fill:#ABD0C8;}
	.st3{fill:#49A0AE;}
	.st4{fill-rule:evenodd;clip-rule:evenodd;fill:#3F3F3E;}
	.st5{fill:#AEAEAF;}
	.st6{fill:#E0F1EF;}
	.st7{fill:#E13F41;}
	.st8{fill:#E27660;}
	.st9{fill:#E27F76;}
	.st10{fill:#E2BE28;}
	.st11{fill:#E2DCBF;}
	.st12{fill:#E3E1C6;}
	.st13{fill:#E4AB6E;}
	.st14{fill:#E4B076;}
	.st15{fill:#E4DFBC;}
	.st16{fill:#E4E4E4;}
	.st17{fill:#4ABC96;}
	.st18{fill:#E6E2C5;}
	.st19{fill:#E7474A;}
	.st20{fill:#E7E2C3;}
	.st21{fill:#E7E4B9;}
	.st22{fill:#E84849;}
	.st23{fill:#4EBFB0;}
	.st24{fill:#E9B82B;}
	.st25{fill:#E9C29C;}
	.st26{fill:#E9E4CC;}
	.st27{fill:#4F7678;}
	.st28{fill:#80BAAE;}
	.st29{fill:#B0DFE0;}
	.st30{fill:#B3DCD2;}
	.st31{fill:#84CEC5;}
	.st32{fill:#86BBB1;}
	.st33{fill:#B6DBD4;}
	.st34{fill:#87C3B7;}
	.st35{fill:#EB9682;}
	.st36{fill:#EBB677;}
	.st37{fill:#EC6666;}
	.st38{fill:#ED3432;}
	.st39{fill:#B9B9BA;}
	.st40{fill:#EDC92C;}
	.st41{fill:#EE4646;}
	.st42{fill:#EF5353;}
	.st43{fill:#EFECEC;}
	.st44{fill:none;stroke:#E84849;stroke-miterlimit:10;}
	.st45{fill:#555C49;}
	.st46{fill-rule:evenodd;clip-rule:evenodd;fill:#F1EDCD;stroke:#E9D8B8;stroke-width:0.25;stroke-miterlimit:10;}
	.st47{fill:#8B8B8C;}
	.st48{fill:#BADDD6;}
	.st49{fill:none;stroke:#BBBCBB;stroke-width:0.5;stroke-miterlimit:10;}
	.st50{fill:#8D734F;}
	.st51{fill:#BCE2DD;}
	.st52{fill:#BDE3DB;}
	.st53{fill:#202121;}
	.st54{fill-rule:evenodd;clip-rule:evenodd;fill:#E9E3C4;}
	.st55{fill:#F06465;}
	.st56{fill:#BFBEBE;}
	.st57{fill-rule:evenodd;clip-rule:evenodd;fill:#82725A;}
	.st58{fill-rule:evenodd;clip-rule:evenodd;fill:#82786D;}
	.st59{fill:#F1EDCD;}
	.st60{fill:#F37C2A;}
	.st61{fill-rule:evenodd;clip-rule:evenodd;fill:#847D77;}
	.st62{fill:#255259;}
	.st63{fill:#F3F2D9;}
	.st64{fill:none;stroke:#FBD5D4;stroke-width:2.5;stroke-linecap:round;stroke-linejoin:round;stroke-miterlimit:10;}
	.st65{fill:#F49396;}
	.st66{fill:#F5EFD8;}
	.st67{fill:#F7F2F3;}
	.st68{fill:#5D919F;}
	.st69{fill:#5E5F5E;}
	.st70{fill:#5E9598;}
	.st71{fill:#90BABA;}
	.st72{fill:#C0BEB1;}
	.st73{fill:#C0C0C0;}
	.st74{fill:#C1E4DD;}
	.st75{fill:#939292;}
	.st76{fill:#C2A681;}
	.st77{fill:#C6C5C5;}
	.st78{fill:#FBF0E6;}
	.st79{fill:#996B33;}
	.st80{fill:#608C3D;}
	.st81{fill-rule:evenodd;clip-rule:evenodd;fill:#8F8376;}
	.st82{fill:#FFFFFF;}
	.st83{fill-rule:evenodd;clip-rule:evenodd;fill:#F1EDCD;}
	.st84{fill:#63998F;}
	.st85{fill:none;}
	.st86{fill:#65A844;}
	.st87{fill-rule:evenodd;clip-rule:evenodd;fill:#5B4F3F;}
	.st88{fill:#CAE8E4;}
	.st89{fill:#CC4028;}
	.st90{fill:#9DDAEC;}
	.st91{fill:#CDCCCB;}
	.st92{fill:#CEE9E4;}
	.st93{fill-rule:evenodd;clip-rule:evenodd;fill:#938980;}
	.st94{fill:#343433;}
	.st95{fill:#357180;}
	.st96{fill:#35878C;}
	.st97{fill:#367A82;}
	.st98{fill:#D0D1D1;}
	.st99{fill:#D1D1D1;}
	.st100{fill:#D62127;}
	.st101{fill:#3BAE85;}
	.st102{fill:#D7AD8C;}
	.st103{fill:#3D929A;}
	.st104{fill:#3F9099;}
	.st105{fill:#3F98A1;}
	.st106{fill:#A19F9F;}
	.st107{fill:#72C8BF;}
	.st108{fill:#74A0A3;}
	.st109{fill:#74BB4D;}
	.st110{fill:#A46434;}
	.st111{fill:#A5A9B6;}
	.st112{fill:#A77640;}
	.st113{fill:#DBDDE1;}
	.st114{fill:#DC3735;}
	.st115{fill:#DCD5B1;}
	.st116{fill:#DD9081;}
	.st117{fill:#DDA166;}
	.st118{fill:#DDF0EE;}
	.st119{fill:#459CA5;}
]]>
</style>
<g>
	<g>
		<g>
			<circle class="st40" cx="68.417" cy="68.417" r="63.333"/>
		</g>
		<g>
			<path class="st118" d="M37.215,72.902l-0.208,0.207c-2.02,2.02,25.15,29.189,27.17,27.17l0.207-0.207
				C64.384,100.072,37.007,73.109,37.215,72.902z"/>
			<path class="st92" d="M37.215,72.902l-0.208,0.207c-1.01,1.01,5.278,8.309,12.07,15.1l1.645-1.645
				C43.877,79.771,37.111,73.005,37.215,72.902z"/>
			<path class="st118" d="M91.495,45.792c-3.517-3.517-9.22-3.517-12.736,0L43.073,81.477l12.735,12.737l35.687-35.688
				C95.011,55.009,95.01,49.308,91.495,45.792z"/>
			<path class="st92" d="M91.495,45.792c-3.517-3.517-9.22-3.517-12.736,0L42.823,81.727l6.367,6.367L91.495,45.792z"/>
			<path class="st52" d="M90.748,46.568c-3.105-3.121-8.139-3.119-11.242,0.007l-20.56,20.722l11.245,11.299l20.561-20.721
				C93.855,54.75,93.853,49.687,90.748,46.568z"/>
			<path class="st33" d="M90.748,46.568c-3.105-3.121-8.139-3.119-11.242,0.007L58.939,67.302l5.537,5.494L90.748,46.568z"/>
			<path class="st3" d="M36.57,106.761L66.697,76.63l-6.042-6.04l-30.063,30.065c-1.006-1.045-1.694-1.77-1.694-1.77l-0.234,0.233
				c-1.143,1.144,0.57,4.184,2.947,6.561s5.418,4.088,6.561,2.945l0.234-0.234C38.34,108.456,37.604,107.779,36.57,106.761z"/>
			<path class="st105" d="M63.684,73.62l-3.029-3.029l-30.063,30.065c-1.006-1.045-1.694-1.77-1.694-1.77l-0.234,0.233
				c-1.143,1.144,0.57,4.184,2.947,6.561L63.684,73.62z"/>
			<path class="st16" d="M107.953,28.844L92.31,44.158c-0.228,0.228,0.591,1.045,0.817,0.818l15.316-15.641
				c0,0,0.02-0.256-0.121-0.381S107.953,28.844,107.953,28.844z"/>
			<path class="st3" d="M93.559,43.726c-0.739-0.738-1.938-0.74-2.68,0.002l-0.938,0.936l2.68,2.68l0.938-0.938
				C94.301,45.666,94.299,44.466,93.559,43.726z"/>
		</g>
		<g>
			
				<rect x="62.762" y="63.324" transform="matrix(0.7071 -0.7071 0.7071 0.7071 -30.0349 65.0431)" class="st32" width="1.469" height="10.905"/>
			
				<rect x="67.178" y="58.909" transform="matrix(0.7068 -0.7074 0.7074 0.7068 -25.6177 66.9163)" class="st32" width="1.469" height="10.904"/>
			
				<rect x="71.865" y="54.221" transform="matrix(0.7071 -0.7071 0.7071 0.7071 -20.9313 68.8139)" class="st32" width="1.469" height="10.905"/>
			
				<rect x="76.668" y="49.419" transform="matrix(0.7071 -0.7071 0.7071 0.7071 -16.1294 70.8032)" class="st32" width="1.469" height="10.904"/>
			
				<rect x="81.043" y="45.044" transform="matrix(0.7071 -0.7071 0.7071 0.7071 -11.7544 72.6154)" class="st32" width="1.469" height="10.904"/>
		</g>
	</g>
</g>
</svg>
