<?xml version="1.0" encoding="utf-8"?>
<!-- Generator: Adobe Illustrator 16.0.0, SVG Export Plug-In . SVG Version: 6.00 Build 0)  -->
<!DOCTYPE svg PUBLIC "-//W3C//DTD SVG 1.1//EN" "http://www.w3.org/Graphics/SVG/1.1/DTD/svg11.dtd">
<svg version="1.1" id="Layer_1" xmlns="http://www.w3.org/2000/svg" xmlns:xlink="http://www.w3.org/1999/xlink" x="0px" y="0px"
	 width="136.833px" height="136.834px" viewBox="0 0 136.833 136.834" style="enable-background:new 0 0 136.833 136.834;"
	 xml:space="preserve">
<style type="text/css">
<![CDATA[
	.st0{fill-rule:evenodd;clip-rule:evenodd;fill:#D62127;}
	.st1{fill:#AAAAAA;}
	.st2{fill:#ABD0C8;}
	.st3{fill:#49A0AE;}
	.st4{fill-rule:evenodd;clip-rule:evenodd;fill:#3F3F3E;}
	.st5{fill:#AEAEAF;}
	.st6{fill:#E0F1EF;}
	.st7{fill:#E13F41;}
	.st8{fill:#E27660;}
	.st9{fill:#E27F76;}
	.st10{fill:#E2BE28;}
	.st11{fill:#E2DCBF;}
	.st12{fill:#E3E1C6;}
	.st13{fill:#E4AB6E;}
	.st14{fill:#E4B076;}
	.st15{fill:#E4DFBC;}
	.st16{fill:#E4E4E4;}
	.st17{fill:#4ABC96;}
	.st18{fill:#E6E2C5;}
	.st19{fill:#E7474A;}
	.st20{fill:#E7E2C3;}
	.st21{fill:#E7E4B9;}
	.st22{fill:#E84849;}
	.st23{fill:#4EBFB0;}
	.st24{fill:#E9B82B;}
	.st25{fill:#E9C29C;}
	.st26{fill:#E9E4CC;}
	.st27{fill:#4F7678;}
	.st28{fill:#80BAAE;}
	.st29{fill:#B0DFE0;}
	.st30{fill:#B3DCD2;}
	.st31{fill:#84CEC5;}
	.st32{fill:#86BBB1;}
	.st33{fill:#B6DBD4;}
	.st34{fill:#87C3B7;}
	.st35{fill:#EB9682;}
	.st36{fill:#EBB677;}
	.st37{fill:#EC6666;}
	.st38{fill:#ED3432;}
	.st39{fill:#B9B9BA;}
	.st40{fill:#EDC92C;}
	.st41{fill:#EE4646;}
	.st42{fill:#EF5353;}
	.st43{fill:#EFECEC;}
	.st44{fill:none;stroke:#E84849;stroke-miterlimit:10;}
	.st45{fill:#555C49;}
	.st46{fill-rule:evenodd;clip-rule:evenodd;fill:#F1EDCD;stroke:#E9D8B8;stroke-width:0.25;stroke-miterlimit:10;}
	.st47{fill:#8B8B8C;}
	.st48{fill:#BADDD6;}
	.st49{fill:none;stroke:#BBBCBB;stroke-width:0.5;stroke-miterlimit:10;}
	.st50{fill:#8D734F;}
	.st51{fill:#BCE2DD;}
	.st52{fill:#BDE3DB;}
	.st53{fill:#202121;}
	.st54{fill-rule:evenodd;clip-rule:evenodd;fill:#E9E3C4;}
	.st55{fill:#F06465;}
	.st56{fill:#BFBEBE;}
	.st57{fill-rule:evenodd;clip-rule:evenodd;fill:#82725A;}
	.st58{fill-rule:evenodd;clip-rule:evenodd;fill:#82786D;}
	.st59{fill:#F1EDCD;}
	.st60{fill:#F37C2A;}
	.st61{fill-rule:evenodd;clip-rule:evenodd;fill:#847D77;}
	.st62{fill:#255259;}
	.st63{fill:#F3F2D9;}
	.st64{fill:none;stroke:#FBD5D4;stroke-width:2.5;stroke-linecap:round;stroke-linejoin:round;stroke-miterlimit:10;}
	.st65{fill:#F49396;}
	.st66{fill:#F5EFD8;}
	.st67{fill:#F7F2F3;}
	.st68{fill:#5D919F;}
	.st69{fill:#5E5F5E;}
	.st70{fill:#5E9598;}
	.st71{fill:#90BABA;}
	.st72{fill:#C0BEB1;}
	.st73{fill:#C0C0C0;}
	.st74{fill:#C1E4DD;}
	.st75{fill:#939292;}
	.st76{fill:#C2A681;}
	.st77{fill:#C6C5C5;}
	.st78{fill:#FBF0E6;}
	.st79{fill:#996B33;}
	.st80{fill:#608C3D;}
	.st81{fill-rule:evenodd;clip-rule:evenodd;fill:#8F8376;}
	.st82{fill:#FFFFFF;}
	.st83{fill-rule:evenodd;clip-rule:evenodd;fill:#F1EDCD;}
	.st84{fill:#63998F;}
	.st85{fill:none;}
	.st86{fill:#65A844;}
	.st87{fill-rule:evenodd;clip-rule:evenodd;fill:#5B4F3F;}
	.st88{fill:#CAE8E4;}
	.st89{fill:#CC4028;}
	.st90{fill:#9DDAEC;}
	.st91{fill:#CDCCCB;}
	.st92{fill:#CEE9E4;}
	.st93{fill-rule:evenodd;clip-rule:evenodd;fill:#938980;}
	.st94{fill:#343433;}
	.st95{fill:#357180;}
	.st96{fill:#35878C;}
	.st97{fill:#367A82;}
	.st98{fill:#D0D1D1;}
	.st99{fill:#D1D1D1;}
	.st100{fill:#D62127;}
	.st101{fill:#3BAE85;}
	.st102{fill:#D7AD8C;}
	.st103{fill:#3D929A;}
	.st104{fill:#3F9099;}
	.st105{fill:#3F98A1;}
	.st106{fill:#A19F9F;}
	.st107{fill:#72C8BF;}
	.st108{fill:#74A0A3;}
	.st109{fill:#74BB4D;}
	.st110{fill:#A46434;}
	.st111{fill:#A5A9B6;}
	.st112{fill:#A77640;}
	.st113{fill:#DBDDE1;}
	.st114{fill:#DC3735;}
	.st115{fill:#DCD5B1;}
	.st116{fill:#DD9081;}
	.st117{fill:#DDA166;}
	.st118{fill:#DDF0EE;}
	.st119{fill:#459CA5;}
]]>
</style>
<g>
	<g>
		<circle class="st22" cx="68.417" cy="68.417" r="63.333"/>
	</g>
	<g>
		<path class="st56" d="M113.281,52.852c2.674,2.675,2.674,7.012,0,9.686L89.846,89.233l-26.409,23.148
			c-2.675,2.675-7.012,2.675-9.687,0L27.316,85.946c-2.674-2.675-2.674-7.011,0-9.687l25.982-22.72l23.86-27.123
			c2.675-2.674,7.013-2.674,9.687,0L113.281,52.852z"/>
		<path class="st75" d="M108.92,53.966c2.325,2.324,2.325,6.093,0,8.417l-21.525,24.36l-24.044,21.211
			c-2.325,2.323-6.094,2.323-8.418,0L31.958,84.979c-2.325-2.324-2.325-6.093,0-8.417l23.673-20.839l21.896-24.73
			c2.325-2.326,6.094-2.326,8.418,0L108.92,53.966z"/>
		<path class="st47" d="M43.445,96.466L31.958,84.979c-2.325-2.324-2.325-6.093,0-8.417l23.673-20.839l21.896-24.73
			c2.325-2.326,6.094-2.326,8.418,0l11.127,11.366L43.445,96.466z"/>
		<g>
			<g>
				<path class="st15" d="M48.843,88.94c1.204-1.205,1.204-3.157,0-4.36l-8.204-8.203c-1.203-1.204-3.156-1.204-4.359,0
					c-1.204,1.203-1.204,3.154,0,4.358l8.204,8.205C45.688,90.143,47.639,90.143,48.843,88.94z"/>
				<path class="st38" d="M48.843,88.94c1.204-1.205,1.204-3.157,0-4.36l-4.147-4.148l-4.359,4.359l4.147,4.148
					C45.688,90.143,47.639,90.143,48.843,88.94z"/>
			</g>
			<path class="st59" d="M44.697,80.432l-4.058-4.055c-1.203-1.204-3.156-1.204-4.359,0l6.236,6.235L44.697,80.432z"/>
			<path class="st41" d="M48.843,88.94c1.204-1.205,1.204-3.157,0-4.36l-4.147-4.148l-2.18,2.181L48.843,88.94z"/>
		</g>
		<g>
			<g>
				<path class="st15" d="M90.509,47.274c1.204-1.204,1.204-3.157,0-4.36l-8.204-8.203c-1.203-1.204-3.156-1.204-4.359,0
					c-1.204,1.204-1.204,3.154,0,4.359l8.204,8.204C87.354,48.478,89.305,48.479,90.509,47.274z"/>
				<path class="st38" d="M90.509,47.274c1.204-1.204,1.204-3.157,0-4.36l-4.147-4.146l-4.359,4.359l4.147,4.147
					C87.354,48.478,89.305,48.479,90.509,47.274z"/>
			</g>
			<path class="st59" d="M86.362,38.768l-4.058-4.057c-1.203-1.204-3.156-1.204-4.359,0l6.236,6.235L86.362,38.768z"/>
			<path class="st41" d="M90.509,47.274c1.204-1.204,1.204-3.157,0-4.36l-4.147-4.146l-2.18,2.18L90.509,47.274z"/>
		</g>
		<g>
			<g>
				<path class="st15" d="M70.341,69.914c1.205-1.205,1.205-3.156,0-4.359l-8.203-8.204c-1.203-1.205-3.155-1.205-4.359,0
					c-1.204,1.205-1.204,3.155,0,4.36l8.204,8.203C67.186,71.117,69.138,71.118,70.341,69.914z"/>
				<path class="st38" d="M70.341,69.914c1.205-1.205,1.205-3.156,0-4.359l-4.146-4.147l-4.359,4.359l4.147,4.147
					C67.186,71.117,69.138,71.118,70.341,69.914z"/>
			</g>
			<path class="st59" d="M66.195,61.407l-4.057-4.056c-1.203-1.205-3.155-1.205-4.359,0l6.236,6.235L66.195,61.407z"/>
			<path class="st41" d="M70.341,69.914c1.205-1.205,1.205-3.156,0-4.359l-4.146-4.147l-2.18,2.181L70.341,69.914z"/>
		</g>
		<g>
			<g>
				<path class="st15" d="M80.33,58.594c1.204-1.205,1.204-3.156,0-4.359l-8.204-8.203c-1.203-1.205-3.155-1.205-4.359,0
					c-1.204,1.203-1.204,3.154,0,4.359l8.203,8.203C77.174,59.797,79.126,59.797,80.33,58.594z"/>
				<path class="st38" d="M80.33,58.594c1.204-1.205,1.204-3.156,0-4.359l-4.147-4.147l-4.358,4.359l4.146,4.148
					C77.174,59.797,79.126,59.797,80.33,58.594z"/>
			</g>
			<path class="st59" d="M76.183,50.087l-4.057-4.056c-1.203-1.205-3.155-1.205-4.359,0l6.236,6.236L76.183,50.087z"/>
			<path class="st41" d="M80.33,58.594c1.204-1.205,1.204-3.156,0-4.359l-4.147-4.147l-2.18,2.18L80.33,58.594z"/>
		</g>
		<g>
			<g>
				<path class="st15" d="M59.497,79.237c1.204-1.204,1.204-3.156,0-4.359l-8.203-8.205c-1.203-1.203-3.155-1.203-4.359,0
					c-1.205,1.205-1.205,3.156,0,4.36l8.203,8.204C56.341,80.44,58.293,80.441,59.497,79.237z"/>
				<path class="st38" d="M59.497,79.237c1.204-1.204,1.204-3.156,0-4.359L55.35,70.73l-4.359,4.359l4.146,4.147
					C56.341,80.44,58.293,80.441,59.497,79.237z"/>
			</g>
			<path class="st59" d="M55.35,70.73l-4.057-4.057c-1.203-1.203-3.155-1.203-4.359,0l6.235,6.236L55.35,70.73z"/>
			<path class="st41" d="M59.497,79.237c1.204-1.204,1.204-3.156,0-4.359L55.35,70.73l-2.181,2.18L59.497,79.237z"/>
		</g>
		<g>
			<g>
				<path class="st15" d="M63.302,103.4c1.205-1.206,1.205-3.158,0-4.361l-8.203-8.203c-1.203-1.204-3.156-1.204-4.36,0
					c-1.203,1.203-1.203,3.154,0,4.36l8.205,8.204C60.147,104.602,62.099,104.602,63.302,103.4z"/>
				<path class="st38" d="M63.302,103.4c1.205-1.206,1.205-3.158,0-4.361l-4.146-4.148l-4.359,4.359l4.147,4.149
					C60.147,104.602,62.099,104.602,63.302,103.4z"/>
			</g>
			<path class="st59" d="M59.156,94.891l-4.057-4.055c-1.203-1.204-3.156-1.204-4.36,0l6.237,6.235L59.156,94.891z"/>
			<path class="st41" d="M63.302,103.4c1.205-1.206,1.205-3.158,0-4.361l-4.146-4.148l-2.18,2.181L63.302,103.4z"/>
		</g>
		<g>
			<g>
				<path class="st56" d="M104.968,61.733c1.205-1.204,1.205-3.156,0-4.36l-8.203-8.203c-1.203-1.204-3.156-1.204-4.36,0
					s-1.204,3.154,0,4.359l8.204,8.204C101.813,62.937,103.765,62.938,104.968,61.733z"/>
				<path class="st5" d="M104.968,61.733c1.205-1.204,1.205-3.156,0-4.36l-4.146-4.146l-4.359,4.359l4.146,4.147
					C101.813,62.937,103.765,62.938,104.968,61.733z"/>
			</g>
			<path class="st91" d="M100.821,53.227l-4.057-4.057c-1.203-1.204-3.156-1.204-4.36,0l6.237,6.235L100.821,53.227z"/>
			<path class="st77" d="M104.968,61.733c1.205-1.204,1.205-3.156,0-4.36l-4.146-4.146l-2.18,2.18L104.968,61.733z"/>
		</g>
		<g>
			<g>
				<path class="st56" d="M84.801,84.373c1.204-1.205,1.204-3.156,0-4.359l-8.203-8.203c-1.204-1.205-3.155-1.205-4.36,0
					c-1.204,1.204-1.204,3.154,0,4.359l8.204,8.203C81.646,85.576,83.598,85.577,84.801,84.373z"/>
				<path class="st5" d="M84.801,84.373c1.204-1.205,1.204-3.156,0-4.359l-4.147-4.147l-4.358,4.359l4.146,4.147
					C81.646,85.576,83.598,85.577,84.801,84.373z"/>
			</g>
			<path class="st91" d="M80.655,75.866l-4.057-4.056c-1.204-1.205-3.155-1.205-4.36,0l6.236,6.234L80.655,75.866z"/>
			<path class="st77" d="M84.801,84.373c1.204-1.205,1.204-3.156,0-4.359l-4.147-4.147l-2.18,2.181L84.801,84.373z"/>
		</g>
		<g>
			<g>
				<path class="st56" d="M94.79,73.053c1.204-1.205,1.204-3.156,0-4.359l-8.205-8.203c-1.203-1.205-3.154-1.205-4.358,0
					c-1.204,1.203-1.204,3.154,0,4.359l8.203,8.203C91.634,74.256,93.585,74.256,94.79,73.053z"/>
				<path class="st5" d="M94.79,73.053c1.204-1.205,1.204-3.156,0-4.359l-4.147-4.147l-4.359,4.359l4.147,4.148
					C91.634,74.256,93.585,74.256,94.79,73.053z"/>
			</g>
			<path class="st91" d="M90.643,64.546l-4.058-4.056c-1.203-1.205-3.154-1.205-4.358,0l6.236,6.236L90.643,64.546z"/>
			<path class="st77" d="M94.79,73.053c1.204-1.205,1.204-3.156,0-4.359l-4.147-4.147l-2.18,2.18L94.79,73.053z"/>
		</g>
		<g>
			<g>
				<path class="st15" d="M73.957,93.695c1.204-1.203,1.204-3.154,0-4.358l-8.204-8.205c-1.203-1.203-3.154-1.203-4.359,0
					c-1.204,1.205-1.204,3.156,0,4.36l8.204,8.203C70.801,94.899,72.752,94.9,73.957,93.695z"/>
				<path class="st38" d="M73.957,93.695c1.204-1.203,1.204-3.154,0-4.358l-4.147-4.147l-4.359,4.36l4.147,4.146
					C70.801,94.899,72.752,94.9,73.957,93.695z"/>
			</g>
			<path class="st59" d="M69.81,85.189l-4.058-4.057c-1.203-1.203-3.154-1.203-4.359,0l6.236,6.236L69.81,85.189z"/>
			<path class="st41" d="M73.957,93.695c1.204-1.203,1.204-3.154,0-4.358l-4.147-4.147l-2.18,2.18L73.957,93.695z"/>
		</g>
	</g>
</g>
</svg>
