<?xml version="1.0" encoding="utf-8"?>
<!-- Generator: Adobe Illustrator 16.0.0, SVG Export Plug-In . SVG Version: 6.00 Build 0)  -->
<!DOCTYPE svg PUBLIC "-//W3C//DTD SVG 1.1//EN" "http://www.w3.org/Graphics/SVG/1.1/DTD/svg11.dtd">
<svg version="1.1" id="Layer_1" xmlns="http://www.w3.org/2000/svg" xmlns:xlink="http://www.w3.org/1999/xlink" x="0px" y="0px"
	 width="136.833px" height="136.833px" viewBox="0 0 136.833 136.833" style="enable-background:new 0 0 136.833 136.833;"
	 xml:space="preserve">
<style type="text/css">
<![CDATA[
	.st0{fill-rule:evenodd;clip-rule:evenodd;fill:#D62127;}
	.st1{fill:#AAAAAA;}
	.st2{fill:#ABD0C8;}
	.st3{fill:#49A0AE;}
	.st4{fill-rule:evenodd;clip-rule:evenodd;fill:#3F3F3E;}
	.st5{fill:#AEAEAF;}
	.st6{fill:#E0F1EF;}
	.st7{fill:#E13F41;}
	.st8{fill:#E27660;}
	.st9{fill:#E27F76;}
	.st10{fill:#E2BE28;}
	.st11{fill:#E2DCBF;}
	.st12{fill:#E3E1C6;}
	.st13{fill:#E4AB6E;}
	.st14{fill:#E4B076;}
	.st15{fill:#E4DFBC;}
	.st16{fill:#E4E4E4;}
	.st17{fill:#4ABC96;}
	.st18{fill:#E6E2C5;}
	.st19{fill:#E7474A;}
	.st20{fill:#E7E2C3;}
	.st21{fill:#E7E4B9;}
	.st22{fill:#E84849;}
	.st23{fill:#4EBFB0;}
	.st24{fill:#E9B82B;}
	.st25{fill:#E9C29C;}
	.st26{fill:#E9E4CC;}
	.st27{fill:#4F7678;}
	.st28{fill:#80BAAE;}
	.st29{fill:#B0DFE0;}
	.st30{fill:#B3DCD2;}
	.st31{fill:#84CEC5;}
	.st32{fill:#86BBB1;}
	.st33{fill:#B6DBD4;}
	.st34{fill:#87C3B7;}
	.st35{fill:#EB9682;}
	.st36{fill:#EBB677;}
	.st37{fill:#EC6666;}
	.st38{fill:#ED3432;}
	.st39{fill:#B9B9BA;}
	.st40{fill:#EDC92C;}
	.st41{fill:#EE4646;}
	.st42{fill:#EF5353;}
	.st43{fill:#EFECEC;}
	.st44{fill:none;stroke:#E84849;stroke-miterlimit:10;}
	.st45{fill:#555C49;}
	.st46{fill-rule:evenodd;clip-rule:evenodd;fill:#F1EDCD;stroke:#E9D8B8;stroke-width:0.25;stroke-miterlimit:10;}
	.st47{fill:#8B8B8C;}
	.st48{fill:#BADDD6;}
	.st49{fill:none;stroke:#BBBCBB;stroke-width:0.5;stroke-miterlimit:10;}
	.st50{fill:#8D734F;}
	.st51{fill:#BCE2DD;}
	.st52{fill:#BDE3DB;}
	.st53{fill:#202121;}
	.st54{fill-rule:evenodd;clip-rule:evenodd;fill:#E9E3C4;}
	.st55{fill:#F06465;}
	.st56{fill:#BFBEBE;}
	.st57{fill-rule:evenodd;clip-rule:evenodd;fill:#82725A;}
	.st58{fill-rule:evenodd;clip-rule:evenodd;fill:#82786D;}
	.st59{fill:#F1EDCD;}
	.st60{fill:#F37C2A;}
	.st61{fill-rule:evenodd;clip-rule:evenodd;fill:#847D77;}
	.st62{fill:#255259;}
	.st63{fill:#F3F2D9;}
	.st64{fill:none;stroke:#FBD5D4;stroke-width:2.5;stroke-linecap:round;stroke-linejoin:round;stroke-miterlimit:10;}
	.st65{fill:#F49396;}
	.st66{fill:#F5EFD8;}
	.st67{fill:#F7F2F3;}
	.st68{fill:#5D919F;}
	.st69{fill:#5E5F5E;}
	.st70{fill:#5E9598;}
	.st71{fill:#90BABA;}
	.st72{fill:#C0BEB1;}
	.st73{fill:#C0C0C0;}
	.st74{fill:#C1E4DD;}
	.st75{fill:#939292;}
	.st76{fill:#C2A681;}
	.st77{fill:#C6C5C5;}
	.st78{fill:#FBF0E6;}
	.st79{fill:#996B33;}
	.st80{fill:#608C3D;}
	.st81{fill-rule:evenodd;clip-rule:evenodd;fill:#8F8376;}
	.st82{fill:#FFFFFF;}
	.st83{fill-rule:evenodd;clip-rule:evenodd;fill:#F1EDCD;}
	.st84{fill:#63998F;}
	.st85{fill:none;}
	.st86{fill:#65A844;}
	.st87{fill-rule:evenodd;clip-rule:evenodd;fill:#5B4F3F;}
	.st88{fill:#CAE8E4;}
	.st89{fill:#CC4028;}
	.st90{fill:#9DDAEC;}
	.st91{fill:#CDCCCB;}
	.st92{fill:#CEE9E4;}
	.st93{fill-rule:evenodd;clip-rule:evenodd;fill:#938980;}
	.st94{fill:#343433;}
	.st95{fill:#357180;}
	.st96{fill:#35878C;}
	.st97{fill:#367A82;}
	.st98{fill:#D0D1D1;}
	.st99{fill:#D1D1D1;}
	.st100{fill:#D62127;}
	.st101{fill:#3BAE85;}
	.st102{fill:#D7AD8C;}
	.st103{fill:#3D929A;}
	.st104{fill:#3F9099;}
	.st105{fill:#3F98A1;}
	.st106{fill:#A19F9F;}
	.st107{fill:#72C8BF;}
	.st108{fill:#74A0A3;}
	.st109{fill:#74BB4D;}
	.st110{fill:#A46434;}
	.st111{fill:#A5A9B6;}
	.st112{fill:#A77640;}
	.st113{fill:#DBDDE1;}
	.st114{fill:#DC3735;}
	.st115{fill:#DCD5B1;}
	.st116{fill:#DD9081;}
	.st117{fill:#DDA166;}
	.st118{fill:#DDF0EE;}
	.st119{fill:#459CA5;}
]]>
</style>
<g>
	<g>
		<circle class="st95" cx="68.417" cy="68.417" r="63.333"/>
	</g>
	<g>
		<g>
			<g>
				<path class="st3" d="M88.877,50.86c-8.577-8.576-22.483-8.576-31.061,0c-8.578,8.58-8.578,22.486,0,31.063
					c8.577,8.578,22.483,8.578,31.061,0C97.455,73.346,97.455,59.44,88.877,50.86z M82.973,76.02
					c-5.315,5.314-13.936,5.314-19.253,0c-5.316-5.318-5.316-13.938,0-19.254c5.317-5.318,13.938-5.318,19.253,0
					C88.29,62.083,88.29,70.702,82.973,76.02z"/>
			</g>
			<g>
				<path class="st3" d="M82.96,56.641c3.241,3.238,6.911-2.117,8.941-4.146c1.94-1.941,6.771-6.77,8.713-8.713
					c0.18,2.031,0.534,9.896,0.831,11.906c0.475,3.195,4.433,4.389,5.89,1.574c0.151-0.199,0.247-0.451,0.287-0.746
					c0.066-0.27,0.067-0.521,0.015-0.744c-0.053-2.633-0.264-11.1-0.317-13.734c-0.05-2.564,0.298-5.355-0.643-7.766
					c-0.035-0.135-0.085-0.275-0.156-0.416c-0.19-0.379-0.66-0.727-1.115-0.828c-2.221-0.84-4.682-0.561-7.057-0.609
					c-2.95-0.059-11.697-0.131-14.646-0.189c-3.413-0.07-3.53,4.313-1.043,5.773c1.245,0.723,9.04,0.658,10.424,0.799
					c0.886,0.092,1.775,0.176,2.664,0.262c-1.929,1.93-6.744,6.746-8.674,8.674C85.047,49.764,79.729,53.409,82.96,56.641z"/>
			</g>
		</g>
		<g>
			<path class="st85" d="M63.72,56.766c-5.309,5.309-5.315,13.91-0.021,19.229l19.25-19.252C77.63,51.45,69.029,51.456,63.72,56.766
				z"/>
			<path class="st119" d="M63.72,56.766c5.31-5.311,13.91-5.316,19.229-0.023l23.271-23.268l0.003-0.006
				c-0.227-0.211-0.524-0.377-0.816-0.441c-2.221-0.84-4.682-0.561-7.057-0.609c-2.95-0.059-11.697-0.131-14.646-0.189
				c-3.413-0.07-3.53,4.313-1.043,5.773c1.245,0.723,9.04,0.658,10.424,0.799c0.886,0.092,1.775,0.176,2.664,0.262
				c-1.929,1.93-6.744,6.746-8.674,8.674c-0.257,0.26-0.568,0.543-0.908,0.85c-8.585-6.193-20.623-5.453-28.349,2.273
				c-8.569,8.572-8.576,22.459-0.022,31.039l5.904-5.904C58.404,70.676,58.411,62.075,63.72,56.766z"/>
		</g>
		<g>
			<g>
				<path class="st35" d="M41.303,91.829c-0.759-0.758-3.673-3.742-3.62-3.689c0.011-0.012,5.584-5.514,5.584-5.514
					s3.14-2.773,4.329-5.438c0.096-0.215-3.657-3.688-3.657-3.688c-2.686,1.188-5.499,4.367-5.499,4.367
					c-1.843,1.842-5.549,5.479-5.549,5.479c-1.383-1.383-2.684-2.684-3.484-3.484c-2.025-2.025-4.211-5.883-7.442-2.652
					c-3.239,3.24,0.655,5.449,2.686,7.479c0.759,0.76,3.414,3.484,3.414,3.484c-1.416,1.416-0.402,0.402-1.219,1.221
					c-2.026,2.025-7.32,5.645-4.09,8.875c3.241,3.242,6.887-2.088,8.916-4.119c0.813-0.811-0.217,0.217,1.184-1.184
					c1.461,1.463,2.851,2.852,3.692,3.693c2.025,2.025,4.21,5.883,7.442,2.65C47.228,96.071,43.333,93.86,41.303,91.829z"/>
				<g>
					<path class="st35" d="M71.326,49.639c-8.577-8.578-22.483-8.578-31.062,0c-8.577,8.578-8.577,22.484,0,31.061
						c8.578,8.578,22.484,8.578,31.062,0C79.904,72.124,79.904,58.217,71.326,49.639z M65.425,74.793
						c-5.316,5.316-13.936,5.316-19.253,0s-5.317-13.938,0-19.254s13.937-5.316,19.253,0S70.741,69.477,65.425,74.793z"/>
				</g>
			</g>
		</g>
		<g>
			<g>
				<path class="st3" d="M65.688,86.983c0.521,0.195,8.201-6.977,7.658-6.977c-3.414,0-6.829-1.277-9.467-3.83
					c-0.02-0.02-0.08-0.078-0.06-0.059c0.125,0.121-2.312,1.451-4.048,2.023c-2.098,0.693-4.586,0.613-4.586,0.613
					c0.762,1.115,1.639,2.178,2.63,3.168C60.124,84.231,62.817,85.917,65.688,86.983z"/>
			</g>
			<path class="st119" d="M62.582,74.694c-2.695,1.068-5.513,1.873-8.423,2.383c0.275,0.496,0.567,0.984,0.885,1.461
				c0.789,1.188,1.706,2.314,2.75,3.361l5.904-5.904c-0.075-0.076-0.149-0.15-0.222-0.229
				C63.151,75.424,62.864,75.061,62.582,74.694z"/>
		</g>
		<g>
			<path class="st85" d="M46.172,74.793c5.317,5.316,13.937,5.316,19.253,0s5.316-13.938,0-19.254
				c-0.022-0.021-0.047-0.039-0.069-0.063L46.11,74.723C46.132,74.747,46.149,74.77,46.172,74.793z"/>
			<path class="st116" d="M46.172,55.54c5.295-5.295,13.862-5.313,19.184-0.063l5.901-5.9c-8.582-8.512-22.436-8.494-30.992,0.063
				c-7.784,7.783-8.479,19.941-2.137,28.537c-1.916,1.912-5.237,5.17-5.237,5.17c-1.383-1.383-2.684-2.684-3.484-3.484
				c-2.025-2.025-4.211-5.883-7.442-2.652c-3.239,3.24,0.655,5.449,2.686,7.479c0.759,0.76,3.414,3.484,3.414,3.484
				c-1.416,1.416-0.402,0.402-1.219,1.221c-2.005,2.004-7.193,5.568-4.176,8.773L46.11,74.723
				C40.858,69.403,40.876,60.834,46.172,55.54z"/>
		</g>
	</g>
</g>
</svg>
