<?xml version="1.0" encoding="utf-8"?>
<!-- Generator: Adobe Illustrator 16.0.0, SVG Export Plug-In . SVG Version: 6.00 Build 0)  -->
<!DOCTYPE svg PUBLIC "-//W3C//DTD SVG 1.1//EN" "http://www.w3.org/Graphics/SVG/1.1/DTD/svg11.dtd">
<svg version="1.1" id="Layer_1" xmlns="http://www.w3.org/2000/svg" xmlns:xlink="http://www.w3.org/1999/xlink" x="0px" y="0px"
	 width="136.833px" height="136.834px" viewBox="0 0 136.833 136.834" style="enable-background:new 0 0 136.833 136.834;"
	 xml:space="preserve">
<style type="text/css">
<![CDATA[
	.st0{fill-rule:evenodd;clip-rule:evenodd;fill:#D62127;}
	.st1{fill:#AAAAAA;}
	.st2{fill:#ABD0C8;}
	.st3{fill:#49A0AE;}
	.st4{fill-rule:evenodd;clip-rule:evenodd;fill:#3F3F3E;}
	.st5{fill:#AEAEAF;}
	.st6{fill:#E0F1EF;}
	.st7{fill:#E13F41;}
	.st8{fill:#E27660;}
	.st9{fill:#E27F76;}
	.st10{fill:#E2BE28;}
	.st11{fill:#E2DCBF;}
	.st12{fill:#E3E1C6;}
	.st13{fill:#E4AB6E;}
	.st14{fill:#E4B076;}
	.st15{fill:#E4DFBC;}
	.st16{fill:#E4E4E4;}
	.st17{fill:#4ABC96;}
	.st18{fill:#E6E2C5;}
	.st19{fill:#E7474A;}
	.st20{fill:#E7E2C3;}
	.st21{fill:#E7E4B9;}
	.st22{fill:#E84849;}
	.st23{fill:#4EBFB0;}
	.st24{fill:#E9B82B;}
	.st25{fill:#E9C29C;}
	.st26{fill:#E9E4CC;}
	.st27{fill:#4F7678;}
	.st28{fill:#80BAAE;}
	.st29{fill:#B0DFE0;}
	.st30{fill:#B3DCD2;}
	.st31{fill:#84CEC5;}
	.st32{fill:#86BBB1;}
	.st33{fill:#B6DBD4;}
	.st34{fill:#87C3B7;}
	.st35{fill:#EB9682;}
	.st36{fill:#EBB677;}
	.st37{fill:#EC6666;}
	.st38{fill:#ED3432;}
	.st39{fill:#B9B9BA;}
	.st40{fill:#EDC92C;}
	.st41{fill:#EE4646;}
	.st42{fill:#EF5353;}
	.st43{fill:#EFECEC;}
	.st44{fill:none;stroke:#E84849;stroke-miterlimit:10;}
	.st45{fill:#555C49;}
	.st46{fill-rule:evenodd;clip-rule:evenodd;fill:#F1EDCD;stroke:#E9D8B8;stroke-width:0.25;stroke-miterlimit:10;}
	.st47{fill:#8B8B8C;}
	.st48{fill:#BADDD6;}
	.st49{fill:none;stroke:#BBBCBB;stroke-width:0.5;stroke-miterlimit:10;}
	.st50{fill:#8D734F;}
	.st51{fill:#BCE2DD;}
	.st52{fill:#BDE3DB;}
	.st53{fill:#202121;}
	.st54{fill-rule:evenodd;clip-rule:evenodd;fill:#E9E3C4;}
	.st55{fill:#F06465;}
	.st56{fill:#BFBEBE;}
	.st57{fill-rule:evenodd;clip-rule:evenodd;fill:#82725A;}
	.st58{fill-rule:evenodd;clip-rule:evenodd;fill:#82786D;}
	.st59{fill:#F1EDCD;}
	.st60{fill:#F37C2A;}
	.st61{fill-rule:evenodd;clip-rule:evenodd;fill:#847D77;}
	.st62{fill:#255259;}
	.st63{fill:#F3F2D9;}
	.st64{fill:none;stroke:#FBD5D4;stroke-width:2.5;stroke-linecap:round;stroke-linejoin:round;stroke-miterlimit:10;}
	.st65{fill:#F49396;}
	.st66{fill:#F5EFD8;}
	.st67{fill:#F7F2F3;}
	.st68{fill:#5D919F;}
	.st69{fill:#5E5F5E;}
	.st70{fill:#5E9598;}
	.st71{fill:#90BABA;}
	.st72{fill:#C0BEB1;}
	.st73{fill:#C0C0C0;}
	.st74{fill:#C1E4DD;}
	.st75{fill:#939292;}
	.st76{fill:#C2A681;}
	.st77{fill:#C6C5C5;}
	.st78{fill:#FBF0E6;}
	.st79{fill:#996B33;}
	.st80{fill:#608C3D;}
	.st81{fill-rule:evenodd;clip-rule:evenodd;fill:#8F8376;}
	.st82{fill:#FFFFFF;}
	.st83{fill-rule:evenodd;clip-rule:evenodd;fill:#F1EDCD;}
	.st84{fill:#63998F;}
	.st85{fill:none;}
	.st86{fill:#65A844;}
	.st87{fill-rule:evenodd;clip-rule:evenodd;fill:#5B4F3F;}
	.st88{fill:#CAE8E4;}
	.st89{fill:#CC4028;}
	.st90{fill:#9DDAEC;}
	.st91{fill:#CDCCCB;}
	.st92{fill:#CEE9E4;}
	.st93{fill-rule:evenodd;clip-rule:evenodd;fill:#938980;}
	.st94{fill:#343433;}
	.st95{fill:#357180;}
	.st96{fill:#35878C;}
	.st97{fill:#367A82;}
	.st98{fill:#D0D1D1;}
	.st99{fill:#D1D1D1;}
	.st100{fill:#D62127;}
	.st101{fill:#3BAE85;}
	.st102{fill:#D7AD8C;}
	.st103{fill:#3D929A;}
	.st104{fill:#3F9099;}
	.st105{fill:#3F98A1;}
	.st106{fill:#A19F9F;}
	.st107{fill:#72C8BF;}
	.st108{fill:#74A0A3;}
	.st109{fill:#74BB4D;}
	.st110{fill:#A46434;}
	.st111{fill:#A5A9B6;}
	.st112{fill:#A77640;}
	.st113{fill:#DBDDE1;}
	.st114{fill:#DC3735;}
	.st115{fill:#DCD5B1;}
	.st116{fill:#DD9081;}
	.st117{fill:#DDA166;}
	.st118{fill:#DDF0EE;}
	.st119{fill:#459CA5;}
]]>
</style>
<g>
	<g>
		<circle class="st17" cx="68.417" cy="68.417" r="63.333"/>
	</g>
	<g>
		<path class="st63" d="M100.344,44.206c0-19.734-14.295-29.178-31.928-29.178s-31.928,9.443-31.928,29.178
			c0,7.82,2.976,7.402,2.976,20.934c0,13.533-2.976,13.111-2.976,20.932c0,19.736,12.192,35.734,31.928,35.734
			s31.928-15.998,31.928-35.734c0-7.82-2.976-11.205-2.976-20.932S100.344,52.026,100.344,44.206z"/>
		<g>
			<path class="st21" d="M68.826,63.997c-11.825,0-21.446-9.621-21.446-21.449c0-11.826,9.621-21.445,21.446-21.445
				c11.826,0,21.447,9.619,21.447,21.445C90.273,54.376,80.652,63.997,68.826,63.997z M68.826,22.37
				c-11.126,0-20.178,9.051-20.178,20.178c0,11.128,9.052,20.182,20.178,20.182c11.127,0,20.179-9.054,20.179-20.182
				C89.004,31.421,79.953,22.37,68.826,22.37z"/>
		</g>
		<polygon class="st102" points="58.902,60.064 77.649,60.347 68.627,68.382 		"/>
		<g>
			<path class="st21" d="M68.627,69.862c-0.116,0-0.234-0.032-0.34-0.1c-0.296-0.188-0.383-0.58-0.195-0.877
				c2.015-3.164,9.77-8.879,10.099-9.121c0.281-0.207,0.679-0.146,0.886,0.137c0.207,0.281,0.147,0.678-0.136,0.887
				c-0.078,0.057-7.89,5.814-9.778,8.78C69.042,69.758,68.837,69.862,68.627,69.862z"/>
		</g>
		<g>
			<path class="st21" d="M86.6,99.745c-0.35,0-0.634-0.283-0.634-0.635c0-17.866-29.677-39.794-29.977-40.014
				c-0.283-0.207-0.345-0.604-0.137-0.887c0.206-0.282,0.604-0.344,0.887-0.137c1.244,0.91,30.495,22.533,30.495,41.037
				C87.235,99.462,86.951,99.745,86.6,99.745z"/>
		</g>
		<g>
			<path class="st25" d="M89.216,42.548c0,11.266-9.129,20.393-20.391,20.393c-11.263,0-20.39-9.127-20.39-20.393
				c0-11.261,9.127-20.391,20.39-20.391C80.087,22.157,89.216,31.287,89.216,42.548z"/>
			<g>
				<ellipse class="st94" cx="77.135" cy="41.21" rx="3.863" ry="4.078"/>
				<path class="st82" d="M79.884,39.662c0,0.899-0.688,1.632-1.544,1.632c-0.85,0-1.541-0.732-1.541-1.632
					c0-0.903,0.691-1.632,1.541-1.632C79.196,38.03,79.884,38.759,79.884,39.662z"/>
			</g>
			<g>
				<ellipse class="st94" cx="60.399" cy="41.21" rx="3.862" ry="4.078"/>
				<ellipse class="st82" cx="61.564" cy="39.662" rx="1.544" ry="1.632"/>
			</g>
			<g>
				<path class="st110" d="M68.632,30.22c-0.35,0-0.634-0.283-0.634-0.635v-1.137c-0.339-0.208-0.668-0.467-0.987-0.777
					c-1.685-1.644-0.533-3.686,0.924-6.271c0.096-0.22,0.019-1.218-0.165-2.083c-0.073-0.343,0.146-0.68,0.488-0.752
					c0.342-0.072,0.68,0.145,0.753,0.488c0.141,0.658,0.425,2.27,0.029,2.97c-1.438,2.551-2.088,3.817-1.144,4.738
					c0.034,0.032,0.068,0.064,0.102,0.097v-0.627c0-1.084,0.633-2.125,1.576-2.588c0.55-0.272,1.677-0.568,3.041,0.482
					c0.749,0.574,1.106,1.492,0.96,2.457c-0.155,1.008-0.829,1.848-1.759,2.188c-0.892,0.327-1.744,0.396-2.549,0.208v0.605
					C69.268,29.937,68.983,30.22,68.632,30.22z M69.268,27.667c0.652,0.23,1.339,0.195,2.112-0.086
					c0.495-0.183,0.856-0.639,0.94-1.19c0.037-0.239,0.064-0.843-0.478-1.26c-0.618-0.476-1.208-0.595-1.708-0.35
					c-0.503,0.247-0.867,0.858-0.867,1.45V27.667z"/>
			</g>
			<circle class="st3" cx="69.05" cy="52.03" r="4.651"/>
			<circle class="st103" cx="69.051" cy="52.03" r="2.538"/>
			<circle class="st95" cx="69.05" cy="52.03" r="1.551"/>
			<g>
				<path class="st95" d="M68.999,58.796c-1.457,0-2.328-0.288-2.744-0.906c-0.596-0.886-0.095-2.112,0.538-3.667
					c0.313-0.765,0.666-1.63,0.897-2.512c0.06-0.227,0.295-0.36,0.518-0.301c0.226,0.06,0.36,0.29,0.3,0.517
					c-0.245,0.936-0.609,1.827-0.931,2.615c-0.496,1.216-0.965,2.363-0.621,2.875c0.238,0.354,0.926,0.533,2.043,0.533
					c1.153,0,1.869-0.199,2.127-0.594c0.41-0.628-0.186-1.99-0.817-3.434c-0.276-0.629-0.562-1.281-0.81-1.959
					c-0.079-0.221,0.034-0.463,0.254-0.543c0.218-0.08,0.462,0.034,0.542,0.253c0.238,0.654,0.518,1.292,0.788,1.909
					c0.757,1.731,1.411,3.227,0.75,4.236C71.397,58.485,70.497,58.796,68.999,58.796z"/>
			</g>
			<circle class="st25" cx="88.187" cy="41.986" r="3.489"/>
			<circle class="st25" cx="48.436" cy="41.986" r="3.489"/>
		</g>
	</g>
</g>
</svg>
