<?xml version="1.0" encoding="utf-8"?>
<!-- Generator: Adobe Illustrator 16.0.0, SVG Export Plug-In . SVG Version: 6.00 Build 0)  -->
<!DOCTYPE svg PUBLIC "-//W3C//DTD SVG 1.1//EN" "http://www.w3.org/Graphics/SVG/1.1/DTD/svg11.dtd">
<svg version="1.1" id="Layer_1" xmlns="http://www.w3.org/2000/svg" xmlns:xlink="http://www.w3.org/1999/xlink" x="0px" y="0px"
	 width="136.833px" height="136.833px" viewBox="0 0 136.833 136.833" style="enable-background:new 0 0 136.833 136.833;"
	 xml:space="preserve">
<style type="text/css">
<![CDATA[
	.st0{fill-rule:evenodd;clip-rule:evenodd;fill:#D62127;}
	.st1{fill:#AAAAAA;}
	.st2{fill:#ABD0C8;}
	.st3{fill:#49A0AE;}
	.st4{fill-rule:evenodd;clip-rule:evenodd;fill:#3F3F3E;}
	.st5{fill:#AEAEAF;}
	.st6{fill:#E0F1EF;}
	.st7{fill:#E13F41;}
	.st8{fill:#E27660;}
	.st9{fill:#E27F76;}
	.st10{fill:#E2BE28;}
	.st11{fill:#E2DCBF;}
	.st12{fill:#E3E1C6;}
	.st13{fill:#E4AB6E;}
	.st14{fill:#E4B076;}
	.st15{fill:#E4DFBC;}
	.st16{fill:#E4E4E4;}
	.st17{fill:#4ABC96;}
	.st18{fill:#E6E2C5;}
	.st19{fill:#E7474A;}
	.st20{fill:#E7E2C3;}
	.st21{fill:#E7E4B9;}
	.st22{fill:#E84849;}
	.st23{fill:#4EBFB0;}
	.st24{fill:#E9B82B;}
	.st25{fill:#E9C29C;}
	.st26{fill:#E9E4CC;}
	.st27{fill:#4F7678;}
	.st28{fill:#80BAAE;}
	.st29{fill:#B0DFE0;}
	.st30{fill:#B3DCD2;}
	.st31{fill:#84CEC5;}
	.st32{fill:#86BBB1;}
	.st33{fill:#B6DBD4;}
	.st34{fill:#87C3B7;}
	.st35{fill:#EB9682;}
	.st36{fill:#EBB677;}
	.st37{fill:#EC6666;}
	.st38{fill:#ED3432;}
	.st39{fill:#B9B9BA;}
	.st40{fill:#EDC92C;}
	.st41{fill:#EE4646;}
	.st42{fill:#EF5353;}
	.st43{fill:#EFECEC;}
	.st44{fill:none;stroke:#E84849;stroke-miterlimit:10;}
	.st45{fill:#555C49;}
	.st46{fill-rule:evenodd;clip-rule:evenodd;fill:#F1EDCD;stroke:#E9D8B8;stroke-width:0.25;stroke-miterlimit:10;}
	.st47{fill:#8B8B8C;}
	.st48{fill:#BADDD6;}
	.st49{fill:none;stroke:#BBBCBB;stroke-width:0.5;stroke-miterlimit:10;}
	.st50{fill:#8D734F;}
	.st51{fill:#BCE2DD;}
	.st52{fill:#BDE3DB;}
	.st53{fill:#202121;}
	.st54{fill-rule:evenodd;clip-rule:evenodd;fill:#E9E3C4;}
	.st55{fill:#F06465;}
	.st56{fill:#BFBEBE;}
	.st57{fill-rule:evenodd;clip-rule:evenodd;fill:#82725A;}
	.st58{fill-rule:evenodd;clip-rule:evenodd;fill:#82786D;}
	.st59{fill:#F1EDCD;}
	.st60{fill:#F37C2A;}
	.st61{fill-rule:evenodd;clip-rule:evenodd;fill:#847D77;}
	.st62{fill:#255259;}
	.st63{fill:#F3F2D9;}
	.st64{fill:none;stroke:#FBD5D4;stroke-width:2.5;stroke-linecap:round;stroke-linejoin:round;stroke-miterlimit:10;}
	.st65{fill:#F49396;}
	.st66{fill:#F5EFD8;}
	.st67{fill:#F7F2F3;}
	.st68{fill:#5D919F;}
	.st69{fill:#5E5F5E;}
	.st70{fill:#5E9598;}
	.st71{fill:#90BABA;}
	.st72{fill:#C0BEB1;}
	.st73{fill:#C0C0C0;}
	.st74{fill:#C1E4DD;}
	.st75{fill:#939292;}
	.st76{fill:#C2A681;}
	.st77{fill:#C6C5C5;}
	.st78{fill:#FBF0E6;}
	.st79{fill:#996B33;}
	.st80{fill:#608C3D;}
	.st81{fill-rule:evenodd;clip-rule:evenodd;fill:#8F8376;}
	.st82{fill:#FFFFFF;}
	.st83{fill-rule:evenodd;clip-rule:evenodd;fill:#F1EDCD;}
	.st84{fill:#63998F;}
	.st85{fill:none;}
	.st86{fill:#65A844;}
	.st87{fill-rule:evenodd;clip-rule:evenodd;fill:#5B4F3F;}
	.st88{fill:#CAE8E4;}
	.st89{fill:#CC4028;}
	.st90{fill:#9DDAEC;}
	.st91{fill:#CDCCCB;}
	.st92{fill:#CEE9E4;}
	.st93{fill-rule:evenodd;clip-rule:evenodd;fill:#938980;}
	.st94{fill:#343433;}
	.st95{fill:#357180;}
	.st96{fill:#35878C;}
	.st97{fill:#367A82;}
	.st98{fill:#D0D1D1;}
	.st99{fill:#D1D1D1;}
	.st100{fill:#D62127;}
	.st101{fill:#3BAE85;}
	.st102{fill:#D7AD8C;}
	.st103{fill:#3D929A;}
	.st104{fill:#3F9099;}
	.st105{fill:#3F98A1;}
	.st106{fill:#A19F9F;}
	.st107{fill:#72C8BF;}
	.st108{fill:#74A0A3;}
	.st109{fill:#74BB4D;}
	.st110{fill:#A46434;}
	.st111{fill:#A5A9B6;}
	.st112{fill:#A77640;}
	.st113{fill:#DBDDE1;}
	.st114{fill:#DC3735;}
	.st115{fill:#DCD5B1;}
	.st116{fill:#DD9081;}
	.st117{fill:#DDA166;}
	.st118{fill:#DDF0EE;}
	.st119{fill:#459CA5;}
]]>
</style>
<g>
	<g>
		<circle class="st60" cx="68.416" cy="68.417" r="63.333"/>
	</g>
	<g>
		<path class="st74" d="M70.278,16.135c-0.484-0.241-0.996-0.376-1.523-0.377h-0.678c-0.529,0.001-1.039,0.138-1.523,0.376
			c-5.084,0.441-7.949,3.585-7.947,7.404l-0.002,82.041c0,1.53,0.986,4.564,4.047,5.856v0.808c0,5.133,2.43,9.283,5.424,9.283
			l0.68,0.01c2.996,0,5.426-4.16,5.428-9.293l-0.002-0.809c3.061-1.291,4.047-3.945,4.045-5.855l0.002-82.041
			C78.228,19.719,75.362,16.578,70.278,16.135z"/>
		<path class="st6" d="M69.946,17.371c-0.398-0.236-0.816-0.367-1.252-0.368h-0.557c-0.436,0-0.854,0.134-1.252,0.368
			c-4.18,0.43-7.424,3.5-7.424,7.229v80.123c0.002,2.695,1.697,5.041,4.215,6.303v0.789c0,5.014,1.996,9.076,4.461,9.076h0.559
			c2.461,0,4.459-4.063,4.459-9.076v-0.789c2.518-1.26,4.215-3.607,4.215-6.303V24.599C77.37,20.871,74.126,17.801,69.946,17.371z"
			/>
		<rect x="60.278" y="38.364" class="st12" width="16.152" height="68.442"/>
		<g>
			<path class="st30" d="M71.601,56.144c-0.002,0.545-0.488,0.984-1.084,0.984l-10.299,0.001v-1.972h10.297
				C71.114,55.158,71.599,55.599,71.601,56.144L71.601,56.144z"/>
			<path class="st30" d="M71.599,70.705c0,0.544-0.484,0.985-1.084,0.985l-10.297-0.001v-1.971l10.297-0.001
				C71.114,69.718,71.599,70.158,71.599,70.705L71.599,70.705z"/>
			<path class="st30" d="M66.647,63.24c0,0.543-0.484,0.986-1.086,0.984h-5.32l0.002-1.971h5.318
				C66.161,62.253,66.647,62.695,66.647,63.24L66.647,63.24z"/>
			<path class="st30" d="M71.599,41.703c0,0.543-0.484,0.984-1.084,0.984H60.218v-1.971h10.299
				C71.114,40.716,71.599,41.158,71.599,41.703L71.599,41.703z"/>
			<path class="st30" d="M66.647,48.798c0,0.543-0.486,0.984-1.084,0.984h-5.32l-0.002-1.972l5.322,0.001
				C66.163,47.812,66.647,48.253,66.647,48.798L66.647,48.798z"/>
			<path class="st30" d="M71.599,85.042c0.002,0.545-0.484,0.984-1.084,0.984H60.218v-1.971h10.299
				C71.114,84.056,71.599,84.498,71.599,85.042L71.599,85.042z"/>
			<path class="st30" d="M66.647,77.578c-0.002,0.543-0.486,0.984-1.084,0.986l-5.32-0.002v-1.971h5.32
				C66.161,76.591,66.647,77.033,66.647,77.578L66.647,77.578z"/>
			<path class="st30" d="M71.599,99.75c0,0.542-0.486,0.983-1.084,0.984l-10.297,0.001v-1.973h10.297
				C71.114,98.765,71.599,99.205,71.599,99.75L71.599,99.75z"/>
			<path class="st30" d="M66.647,92.287c0,0.542-0.484,0.984-1.084,0.984h-5.32V91.3l5.32-0.001
				C66.163,91.3,66.647,91.74,66.647,92.287L66.647,92.287z"/>
		</g>
		<rect x="67.407" y="17.002" class="st91" width="2.018" height="46.452"/>
		<rect x="67.407" y="17.002" class="st98" width="0.984" height="46.452"/>
		<path class="st22" d="M69.425,63.455h-1.08h-0.938v47.819l-2.936,1.374c0,4.091,1.631,7.408,3.641,7.408h0.193h0.262
			c2.01-0.001,3.641-3.316,3.641-7.407l-2.783-1.353V63.455z"/>
		<path class="st114" d="M69.425,63.455h-1.08l-0.039,56.602h0.262c2.01-0.001,3.641-3.316,3.641-7.407l-2.783-1.353V63.455z"/>
		<path class="st1" d="M57.597,25.359c0-4.861,4.559-10.063,10.184-10.063h0.586h0.686c5.623-0.002,10.184,5.201,10.184,10.063
			H68.278H57.597z"/>
		<path class="st56" d="M57.597,25.359c0-4.861,4.559-10.063,10.184-10.063h0.586l-0.088,10.063H57.597z"/>
	</g>
</g>
</svg>
