<?xml version="1.0" encoding="utf-8"?>
<!-- Generator: Adobe Illustrator 16.0.0, SVG Export Plug-In . SVG Version: 6.00 Build 0)  -->
<!DOCTYPE svg PUBLIC "-//W3C//DTD SVG 1.1//EN" "http://www.w3.org/Graphics/SVG/1.1/DTD/svg11.dtd">
<svg version="1.1" id="Layer_1" xmlns="http://www.w3.org/2000/svg" xmlns:xlink="http://www.w3.org/1999/xlink" x="0px" y="0px"
	 width="136.833px" height="136.833px" viewBox="0 0 136.833 136.833" style="enable-background:new 0 0 136.833 136.833;"
	 xml:space="preserve">
<style type="text/css">
<![CDATA[
	.st0{fill-rule:evenodd;clip-rule:evenodd;fill:#D62127;}
	.st1{fill:#AAAAAA;}
	.st2{fill:#ABD0C8;}
	.st3{fill:#49A0AE;}
	.st4{fill-rule:evenodd;clip-rule:evenodd;fill:#3F3F3E;}
	.st5{fill:#AEAEAF;}
	.st6{fill:#E0F1EF;}
	.st7{fill:#E13F41;}
	.st8{fill:#E27660;}
	.st9{fill:#E27F76;}
	.st10{fill:#E2BE28;}
	.st11{fill:#E2DCBF;}
	.st12{fill:#E3E1C6;}
	.st13{fill:#E4AB6E;}
	.st14{fill:#E4B076;}
	.st15{fill:#E4DFBC;}
	.st16{fill:#E4E4E4;}
	.st17{fill:#4ABC96;}
	.st18{fill:#E6E2C5;}
	.st19{fill:#E7474A;}
	.st20{fill:#E7E2C3;}
	.st21{fill:#E7E4B9;}
	.st22{fill:#E84849;}
	.st23{fill:#4EBFB0;}
	.st24{fill:#E9B82B;}
	.st25{fill:#E9C29C;}
	.st26{fill:#E9E4CC;}
	.st27{fill:#4F7678;}
	.st28{fill:#80BAAE;}
	.st29{fill:#B0DFE0;}
	.st30{fill:#B3DCD2;}
	.st31{fill:#84CEC5;}
	.st32{fill:#86BBB1;}
	.st33{fill:#B6DBD4;}
	.st34{fill:#87C3B7;}
	.st35{fill:#EB9682;}
	.st36{fill:#EBB677;}
	.st37{fill:#EC6666;}
	.st38{fill:#ED3432;}
	.st39{fill:#B9B9BA;}
	.st40{fill:#EDC92C;}
	.st41{fill:#EE4646;}
	.st42{fill:#EF5353;}
	.st43{fill:#EFECEC;}
	.st44{fill:none;stroke:#E84849;stroke-miterlimit:10;}
	.st45{fill:#555C49;}
	.st46{fill-rule:evenodd;clip-rule:evenodd;fill:#F1EDCD;stroke:#E9D8B8;stroke-width:0.25;stroke-miterlimit:10;}
	.st47{fill:#8B8B8C;}
	.st48{fill:#BADDD6;}
	.st49{fill:none;stroke:#BBBCBB;stroke-width:0.5;stroke-miterlimit:10;}
	.st50{fill:#8D734F;}
	.st51{fill:#BCE2DD;}
	.st52{fill:#BDE3DB;}
	.st53{fill:#202121;}
	.st54{fill-rule:evenodd;clip-rule:evenodd;fill:#E9E3C4;}
	.st55{fill:#F06465;}
	.st56{fill:#BFBEBE;}
	.st57{fill-rule:evenodd;clip-rule:evenodd;fill:#82725A;}
	.st58{fill-rule:evenodd;clip-rule:evenodd;fill:#82786D;}
	.st59{fill:#F1EDCD;}
	.st60{fill:#F37C2A;}
	.st61{fill-rule:evenodd;clip-rule:evenodd;fill:#847D77;}
	.st62{fill:#255259;}
	.st63{fill:#F3F2D9;}
	.st64{fill:none;stroke:#FBD5D4;stroke-width:2.5;stroke-linecap:round;stroke-linejoin:round;stroke-miterlimit:10;}
	.st65{fill:#F49396;}
	.st66{fill:#F5EFD8;}
	.st67{fill:#F7F2F3;}
	.st68{fill:#5D919F;}
	.st69{fill:#5E5F5E;}
	.st70{fill:#5E9598;}
	.st71{fill:#90BABA;}
	.st72{fill:#C0BEB1;}
	.st73{fill:#C0C0C0;}
	.st74{fill:#C1E4DD;}
	.st75{fill:#939292;}
	.st76{fill:#C2A681;}
	.st77{fill:#C6C5C5;}
	.st78{fill:#FBF0E6;}
	.st79{fill:#996B33;}
	.st80{fill:#608C3D;}
	.st81{fill-rule:evenodd;clip-rule:evenodd;fill:#8F8376;}
	.st82{fill:#FFFFFF;}
	.st83{fill-rule:evenodd;clip-rule:evenodd;fill:#F1EDCD;}
	.st84{fill:#63998F;}
	.st85{fill:none;}
	.st86{fill:#65A844;}
	.st87{fill-rule:evenodd;clip-rule:evenodd;fill:#5B4F3F;}
	.st88{fill:#CAE8E4;}
	.st89{fill:#CC4028;}
	.st90{fill:#9DDAEC;}
	.st91{fill:#CDCCCB;}
	.st92{fill:#CEE9E4;}
	.st93{fill-rule:evenodd;clip-rule:evenodd;fill:#938980;}
	.st94{fill:#343433;}
	.st95{fill:#357180;}
	.st96{fill:#35878C;}
	.st97{fill:#367A82;}
	.st98{fill:#D0D1D1;}
	.st99{fill:#D1D1D1;}
	.st100{fill:#D62127;}
	.st101{fill:#3BAE85;}
	.st102{fill:#D7AD8C;}
	.st103{fill:#3D929A;}
	.st104{fill:#3F9099;}
	.st105{fill:#3F98A1;}
	.st106{fill:#A19F9F;}
	.st107{fill:#72C8BF;}
	.st108{fill:#74A0A3;}
	.st109{fill:#74BB4D;}
	.st110{fill:#A46434;}
	.st111{fill:#A5A9B6;}
	.st112{fill:#A77640;}
	.st113{fill:#DBDDE1;}
	.st114{fill:#DC3735;}
	.st115{fill:#DCD5B1;}
	.st116{fill:#DD9081;}
	.st117{fill:#DDA166;}
	.st118{fill:#DDF0EE;}
	.st119{fill:#459CA5;}
]]>
</style>
<g>
	<g>
		<g>
			<circle class="st95" cx="68.417" cy="68.417" r="63.333"/>
		</g>
		<g>
			<g>
				<g>
					<path class="st8" d="M57.93,95.139c-1.044-1.043-5.052-5.148-4.979-5.076c0.015-0.014,7.681-7.584,7.681-7.584
						S64.95,78.665,66.585,75c0.132-0.295-5.03-5.072-5.03-5.072c-3.694,1.633-7.564,6.008-7.564,6.008
						c-2.535,2.533-7.632,7.535-7.632,7.535c-1.902-1.902-3.691-3.691-4.793-4.793c-2.786-2.785-5.792-8.092-10.237-3.648
						c-4.456,4.457,0.901,7.496,3.694,10.289c1.044,1.043,4.696,4.791,4.696,4.791c-1.948,1.947-0.554,0.553-1.677,1.678
						c-2.787,2.787-10.069,7.766-5.625,12.209c4.458,4.459,9.473-2.873,12.264-5.666c1.118-1.117-0.298,0.299,1.628-1.629
						c2.009,2.012,3.921,3.922,5.079,5.08c2.786,2.787,5.791,8.092,10.237,3.646C66.079,100.973,60.722,97.932,57.93,95.139z"/>
					<g>
						<path class="st8" d="M99.227,37.107c-11.798-11.8-30.926-11.8-42.725,0c-11.798,11.8-11.798,30.927,0,42.724
							c11.799,11.801,30.927,11.801,42.725,0C111.026,68.034,111.026,48.907,99.227,37.107z M91.109,71.707
							c-7.313,7.313-19.168,7.313-26.482,0c-7.314-7.313-7.314-19.169,0-26.482c7.314-7.313,19.17-7.313,26.482,0
							C98.422,52.538,98.422,64.394,91.109,71.707z"/>
					</g>
				</g>
			</g>
			<g>
				<path class="st85" d="M64.627,45.224c-7.306,7.305-7.313,19.143-0.023,26.457l26.48-26.48
					C83.769,37.912,71.933,37.919,64.627,45.224z"/>
				<path class="st9" d="M44.681,98.331c1.118-1.117-0.298,0.299,1.628-1.629c2.009,2.012,3.921,3.922,5.079,5.08
					c2.786,2.787,5.791,8.092,10.237,3.646c4.454-4.455-0.903-7.496-3.695-10.289c-1.044-1.043-5.052-5.148-4.979-5.076
					c0.012-0.012,5.553-5.482,7.207-7.115c11.812,8.568,28.424,7.531,39.069-3.117c11.799-11.797,11.799-30.924,0-42.724
					c-0.008-0.008-0.017-0.016-0.025-0.023l-8.118,8.117c0.008,0.008,0.018,0.016,0.026,0.023c7.313,7.313,7.313,19.17,0,26.482
					c-7.313,7.313-19.168,7.313-26.482,0c-0.008-0.008-0.015-0.017-0.023-0.025L32.355,103.93c0.022,0.021,0.039,0.043,0.062,0.066
					C36.875,108.456,41.89,101.124,44.681,98.331z"/>
			</g>
		</g>
	</g>
</g>
</svg>
