<?xml version="1.0" encoding="utf-8"?>
<!-- Generator: Adobe Illustrator 16.0.0, SVG Export Plug-In . SVG Version: 6.00 Build 0)  -->
<!DOCTYPE svg PUBLIC "-//W3C//DTD SVG 1.1//EN" "http://www.w3.org/Graphics/SVG/1.1/DTD/svg11.dtd">
<svg version="1.1" id="Layer_1" xmlns="http://www.w3.org/2000/svg" xmlns:xlink="http://www.w3.org/1999/xlink" x="0px" y="0px"
	 width="136.833px" height="136.833px" viewBox="0 0 136.833 136.833" style="enable-background:new 0 0 136.833 136.833;"
	 xml:space="preserve">
<style type="text/css">
<![CDATA[
	.st0{fill-rule:evenodd;clip-rule:evenodd;fill:#D62127;}
	.st1{fill:#AAAAAA;}
	.st2{fill:#ABD0C8;}
	.st3{fill:#49A0AE;}
	.st4{fill-rule:evenodd;clip-rule:evenodd;fill:#3F3F3E;}
	.st5{fill:#AEAEAF;}
	.st6{fill:#E0F1EF;}
	.st7{fill:#E13F41;}
	.st8{fill:#E27660;}
	.st9{fill:#E27F76;}
	.st10{fill:#E2BE28;}
	.st11{fill:#E2DCBF;}
	.st12{fill:#E3E1C6;}
	.st13{fill:#E4AB6E;}
	.st14{fill:#E4B076;}
	.st15{fill:#E4DFBC;}
	.st16{fill:#E4E4E4;}
	.st17{fill:#4ABC96;}
	.st18{fill:#E6E2C5;}
	.st19{fill:#E7474A;}
	.st20{fill:#E7E2C3;}
	.st21{fill:#E7E4B9;}
	.st22{fill:#E84849;}
	.st23{fill:#4EBFB0;}
	.st24{fill:#E9B82B;}
	.st25{fill:#E9C29C;}
	.st26{fill:#E9E4CC;}
	.st27{fill:#4F7678;}
	.st28{fill:#80BAAE;}
	.st29{fill:#B0DFE0;}
	.st30{fill:#B3DCD2;}
	.st31{fill:#84CEC5;}
	.st32{fill:#86BBB1;}
	.st33{fill:#B6DBD4;}
	.st34{fill:#87C3B7;}
	.st35{fill:#EB9682;}
	.st36{fill:#EBB677;}
	.st37{fill:#EC6666;}
	.st38{fill:#ED3432;}
	.st39{fill:#B9B9BA;}
	.st40{fill:#EDC92C;}
	.st41{fill:#EE4646;}
	.st42{fill:#EF5353;}
	.st43{fill:#EFECEC;}
	.st44{fill:none;stroke:#E84849;stroke-miterlimit:10;}
	.st45{fill:#555C49;}
	.st46{fill-rule:evenodd;clip-rule:evenodd;fill:#F1EDCD;stroke:#E9D8B8;stroke-width:0.25;stroke-miterlimit:10;}
	.st47{fill:#8B8B8C;}
	.st48{fill:#BADDD6;}
	.st49{fill:none;stroke:#BBBCBB;stroke-width:0.5;stroke-miterlimit:10;}
	.st50{fill:#8D734F;}
	.st51{fill:#BCE2DD;}
	.st52{fill:#BDE3DB;}
	.st53{fill:#202121;}
	.st54{fill-rule:evenodd;clip-rule:evenodd;fill:#E9E3C4;}
	.st55{fill:#F06465;}
	.st56{fill:#BFBEBE;}
	.st57{fill-rule:evenodd;clip-rule:evenodd;fill:#82725A;}
	.st58{fill-rule:evenodd;clip-rule:evenodd;fill:#82786D;}
	.st59{fill:#F1EDCD;}
	.st60{fill:#F37C2A;}
	.st61{fill-rule:evenodd;clip-rule:evenodd;fill:#847D77;}
	.st62{fill:#255259;}
	.st63{fill:#F3F2D9;}
	.st64{fill:none;stroke:#FBD5D4;stroke-width:2.5;stroke-linecap:round;stroke-linejoin:round;stroke-miterlimit:10;}
	.st65{fill:#F49396;}
	.st66{fill:#F5EFD8;}
	.st67{fill:#F7F2F3;}
	.st68{fill:#5D919F;}
	.st69{fill:#5E5F5E;}
	.st70{fill:#5E9598;}
	.st71{fill:#90BABA;}
	.st72{fill:#C0BEB1;}
	.st73{fill:#C0C0C0;}
	.st74{fill:#C1E4DD;}
	.st75{fill:#939292;}
	.st76{fill:#C2A681;}
	.st77{fill:#C6C5C5;}
	.st78{fill:#FBF0E6;}
	.st79{fill:#996B33;}
	.st80{fill:#608C3D;}
	.st81{fill-rule:evenodd;clip-rule:evenodd;fill:#8F8376;}
	.st82{fill:#FFFFFF;}
	.st83{fill-rule:evenodd;clip-rule:evenodd;fill:#F1EDCD;}
	.st84{fill:#63998F;}
	.st85{fill:none;}
	.st86{fill:#65A844;}
	.st87{fill-rule:evenodd;clip-rule:evenodd;fill:#5B4F3F;}
	.st88{fill:#CAE8E4;}
	.st89{fill:#CC4028;}
	.st90{fill:#9DDAEC;}
	.st91{fill:#CDCCCB;}
	.st92{fill:#CEE9E4;}
	.st93{fill-rule:evenodd;clip-rule:evenodd;fill:#938980;}
	.st94{fill:#343433;}
	.st95{fill:#357180;}
	.st96{fill:#35878C;}
	.st97{fill:#367A82;}
	.st98{fill:#D0D1D1;}
	.st99{fill:#D1D1D1;}
	.st100{fill:#D62127;}
	.st101{fill:#3BAE85;}
	.st102{fill:#D7AD8C;}
	.st103{fill:#3D929A;}
	.st104{fill:#3F9099;}
	.st105{fill:#3F98A1;}
	.st106{fill:#A19F9F;}
	.st107{fill:#72C8BF;}
	.st108{fill:#74A0A3;}
	.st109{fill:#74BB4D;}
	.st110{fill:#A46434;}
	.st111{fill:#A5A9B6;}
	.st112{fill:#A77640;}
	.st113{fill:#DBDDE1;}
	.st114{fill:#DC3735;}
	.st115{fill:#DCD5B1;}
	.st116{fill:#DD9081;}
	.st117{fill:#DDA166;}
	.st118{fill:#DDF0EE;}
	.st119{fill:#459CA5;}
]]>
</style>
<g>
	<g>
		<g>
			<circle class="st3" cx="68.417" cy="68.417" r="63.333"/>
		</g>
		<g>
			<g>
				<g>
					<path class="st67" d="M102.068,79.149c0,3.232-6.768,5.853-9.999,5.853l-20.486-0.091V53.938c0-3.232,2.33-5.778,6.341-5.854
						s9.686,3.59,12.511,6.175C98.268,61.427,102.068,79.149,102.068,79.149z"/>
					<path class="st90" d="M93.851,64.677L75.6,64.724V54.386c0-2.637,1.598-3.729,3.633-3.345c2.035,0.386,6.853,2.818,9.201,5.302
						C92.768,60.927,93.851,64.677,93.851,64.677z"/>
					<path class="st67" d="M75.699,86.288H28.183c-4.294,0-4.965-3.482-4.965-7.775V48.838c0-4.295,3.481-5.718,7.775-5.718h36.93
						c4.294,0,7.775,1.423,7.775,5.718V86.288z"/>
					<path class="st40" d="M67.934,43.063h-4V39.73c0-1.105,0.896-2.002,2-2.002l0,0c1.104,0,2,0.896,2,2.002V43.063z"/>
					<path class="st60" d="M65.997,43.063h-2.063V39.73c0-1.105,0.896-2.002,2-2.002l0,0L65.997,43.063z"/>
					<path class="st67" d="M116.474,81.715c0,2.524-2.048,4.572-4.573,4.572H85.417c-2.525,0-4.573-2.048-4.573-4.572V69.47
						c0-2.524,2.048-4.572,4.573-4.572l26.483,2.978c2.525,0,4.573,2.049,4.573,4.572V81.715z"/>
					<path class="st43" d="M116.432,84.098c0,1.333-1.081,2.414-2.413,2.414H26.017c-1.333,0-2.413-1.081-2.413-2.414v-1.339
						c0-1.332,92.828-1.332,92.828,0V84.098z"/>
					<g>
						<g>
							<circle class="st53" cx="45.24" cy="85.728" r="8.072"/>
						</g>
						<circle class="st69" cx="45.241" cy="85.728" r="4.803"/>
						<circle class="st106" cx="45.24" cy="85.728" r="1.795"/>
					</g>
					<g>
						<g>
							<circle class="st53" cx="101.619" cy="85.728" r="8.072"/>
						</g>
						<circle class="st69" cx="101.62" cy="85.728" r="4.803"/>
						<circle class="st106" cx="101.619" cy="85.728" r="1.795"/>
					</g>
				</g>
				<rect x="23.046" y="73.542" class="st100" width="93.471" height="2.7"/>
			</g>
			<g>
				<path class="st100" d="M41.597,50.389L41.2,50.391l-0.397-0.002c-0.666,0-1.907,0-1.907,1.42v15.735
					c0,1.421,1.241,1.421,1.907,1.421l0.397-0.002l0.396,0.002c0.443,0,0.87-0.015,1.226-0.188c0.312-0.151,0.684-0.488,0.684-1.232
					V51.809C43.505,50.389,42.216,50.389,41.597,50.389z"/>
				<path class="st100" d="M49.707,55.927l-0.178-0.354l-0.174-0.359c-0.295-0.597-0.844-1.709-2.116-1.082l-14.114,6.955
					c-1.274,0.629-0.726,1.742-0.432,2.339l0.178,0.356l0.173,0.357c0.196,0.396,0.398,0.772,0.712,1.015
					c0.273,0.214,0.74,0.398,1.407,0.069l14.113-6.957C50.55,57.638,49.98,56.481,49.707,55.927z"/>
				<path class="st100" d="M49.328,64.194l0.176-0.355l0.179-0.354c0.299-0.597,0.854-1.705-0.415-2.342l-14.066-7.049
					c-1.271-0.639-1.827,0.472-2.125,1.065l-0.178,0.358L32.72,55.87c-0.198,0.396-0.377,0.785-0.381,1.18
					c-0.005,0.348,0.13,0.832,0.795,1.164l14.067,7.05C48.472,65.901,49.049,64.747,49.328,64.194z"/>
			</g>
		</g>
	</g>
</g>
</svg>
