<?xml version="1.0" encoding="utf-8"?>
<!-- Generator: Adobe Illustrator 16.0.0, SVG Export Plug-In . SVG Version: 6.00 Build 0)  -->
<!DOCTYPE svg PUBLIC "-//W3C//DTD SVG 1.1//EN" "http://www.w3.org/Graphics/SVG/1.1/DTD/svg11.dtd">
<svg version="1.1" id="Layer_1" xmlns="http://www.w3.org/2000/svg" xmlns:xlink="http://www.w3.org/1999/xlink" x="0px" y="0px"
	 width="136.833px" height="136.834px" viewBox="0 0 136.833 136.834" style="enable-background:new 0 0 136.833 136.834;"
	 xml:space="preserve">
<style type="text/css">
<![CDATA[
	.st0{fill-rule:evenodd;clip-rule:evenodd;fill:#D62127;}
	.st1{fill:#AAAAAA;}
	.st2{fill:#ABD0C8;}
	.st3{fill:#49A0AE;}
	.st4{fill-rule:evenodd;clip-rule:evenodd;fill:#3F3F3E;}
	.st5{fill:#AEAEAF;}
	.st6{fill:#E0F1EF;}
	.st7{fill:#E13F41;}
	.st8{fill:#E27660;}
	.st9{fill:#E27F76;}
	.st10{fill:#E2BE28;}
	.st11{fill:#E2DCBF;}
	.st12{fill:#E3E1C6;}
	.st13{fill:#E4AB6E;}
	.st14{fill:#E4B076;}
	.st15{fill:#E4DFBC;}
	.st16{fill:#E4E4E4;}
	.st17{fill:#4ABC96;}
	.st18{fill:#E6E2C5;}
	.st19{fill:#E7474A;}
	.st20{fill:#E7E2C3;}
	.st21{fill:#E7E4B9;}
	.st22{fill:#E84849;}
	.st23{fill:#4EBFB0;}
	.st24{fill:#E9B82B;}
	.st25{fill:#E9C29C;}
	.st26{fill:#E9E4CC;}
	.st27{fill:#4F7678;}
	.st28{fill:#80BAAE;}
	.st29{fill:#B0DFE0;}
	.st30{fill:#B3DCD2;}
	.st31{fill:#84CEC5;}
	.st32{fill:#86BBB1;}
	.st33{fill:#B6DBD4;}
	.st34{fill:#87C3B7;}
	.st35{fill:#EB9682;}
	.st36{fill:#EBB677;}
	.st37{fill:#EC6666;}
	.st38{fill:#ED3432;}
	.st39{fill:#B9B9BA;}
	.st40{fill:#EDC92C;}
	.st41{fill:#EE4646;}
	.st42{fill:#EF5353;}
	.st43{fill:#EFECEC;}
	.st44{fill:none;stroke:#E84849;stroke-miterlimit:10;}
	.st45{fill:#555C49;}
	.st46{fill-rule:evenodd;clip-rule:evenodd;fill:#F1EDCD;stroke:#E9D8B8;stroke-width:0.25;stroke-miterlimit:10;}
	.st47{fill:#8B8B8C;}
	.st48{fill:#BADDD6;}
	.st49{fill:none;stroke:#BBBCBB;stroke-width:0.5;stroke-miterlimit:10;}
	.st50{fill:#8D734F;}
	.st51{fill:#BCE2DD;}
	.st52{fill:#BDE3DB;}
	.st53{fill:#202121;}
	.st54{fill-rule:evenodd;clip-rule:evenodd;fill:#E9E3C4;}
	.st55{fill:#F06465;}
	.st56{fill:#BFBEBE;}
	.st57{fill-rule:evenodd;clip-rule:evenodd;fill:#82725A;}
	.st58{fill-rule:evenodd;clip-rule:evenodd;fill:#82786D;}
	.st59{fill:#F1EDCD;}
	.st60{fill:#F37C2A;}
	.st61{fill-rule:evenodd;clip-rule:evenodd;fill:#847D77;}
	.st62{fill:#255259;}
	.st63{fill:#F3F2D9;}
	.st64{fill:none;stroke:#FBD5D4;stroke-width:2.5;stroke-linecap:round;stroke-linejoin:round;stroke-miterlimit:10;}
	.st65{fill:#F49396;}
	.st66{fill:#F5EFD8;}
	.st67{fill:#F7F2F3;}
	.st68{fill:#5D919F;}
	.st69{fill:#5E5F5E;}
	.st70{fill:#5E9598;}
	.st71{fill:#90BABA;}
	.st72{fill:#C0BEB1;}
	.st73{fill:#C0C0C0;}
	.st74{fill:#C1E4DD;}
	.st75{fill:#939292;}
	.st76{fill:#C2A681;}
	.st77{fill:#C6C5C5;}
	.st78{fill:#FBF0E6;}
	.st79{fill:#996B33;}
	.st80{fill:#608C3D;}
	.st81{fill-rule:evenodd;clip-rule:evenodd;fill:#8F8376;}
	.st82{fill:#FFFFFF;}
	.st83{fill-rule:evenodd;clip-rule:evenodd;fill:#F1EDCD;}
	.st84{fill:#63998F;}
	.st85{fill:none;}
	.st86{fill:#65A844;}
	.st87{fill-rule:evenodd;clip-rule:evenodd;fill:#5B4F3F;}
	.st88{fill:#CAE8E4;}
	.st89{fill:#CC4028;}
	.st90{fill:#9DDAEC;}
	.st91{fill:#CDCCCB;}
	.st92{fill:#CEE9E4;}
	.st93{fill-rule:evenodd;clip-rule:evenodd;fill:#938980;}
	.st94{fill:#343433;}
	.st95{fill:#357180;}
	.st96{fill:#35878C;}
	.st97{fill:#367A82;}
	.st98{fill:#D0D1D1;}
	.st99{fill:#D1D1D1;}
	.st100{fill:#D62127;}
	.st101{fill:#3BAE85;}
	.st102{fill:#D7AD8C;}
	.st103{fill:#3D929A;}
	.st104{fill:#3F9099;}
	.st105{fill:#3F98A1;}
	.st106{fill:#A19F9F;}
	.st107{fill:#72C8BF;}
	.st108{fill:#74A0A3;}
	.st109{fill:#74BB4D;}
	.st110{fill:#A46434;}
	.st111{fill:#A5A9B6;}
	.st112{fill:#A77640;}
	.st113{fill:#DBDDE1;}
	.st114{fill:#DC3735;}
	.st115{fill:#DCD5B1;}
	.st116{fill:#DD9081;}
	.st117{fill:#DDA166;}
	.st118{fill:#DDF0EE;}
	.st119{fill:#459CA5;}
]]>
</style>
<g>
	<g>
		<circle class="st95" cx="68.417" cy="68.417" r="63.333"/>
	</g>
	<g>
		<g>
			<path class="st73" d="M68.583,43.74c8.77,0,16.683,3.647,22.321,9.5H76.583h-3.411c-1.482-0.316-3.013-0.5-4.589-0.5
				c-12.15,0-22,9.85-22,22s9.85,22,22,22c9.888,0,18.251-6.523,21.022-15.5h9.289c-2.987,14-15.42,24.5-30.312,24.5
				c-17.121,0-31-13.879-31-31S51.462,43.74,68.583,43.74z"/>
		</g>
		<g>
			<path class="st111" d="M81.805,67.963c1.21,1.384,3.061,1.74,4.135,0.8l9.558-8.372c1.073-0.939,0.964-2.822-0.247-4.203
				L63.028,19.215c-1.209-1.381-3.061-1.739-4.133-0.799l-9.559,8.371c-1.074,0.941-0.963,2.821,0.247,4.203L81.805,67.963z"/>
			<path class="st111" d="M86.586,69.062c0.836,0.955,2.117,1.203,2.859,0.553l6.609-5.789c0.742-0.65,0.666-1.951-0.171-2.907
				L69.071,30.306c-0.838-0.955-2.117-1.203-2.859-0.553l-6.609,5.788c-0.742,0.651-0.666,1.951,0.171,2.907L86.586,69.062z"/>
			<path class="st111" d="M93.151,71.314c0.244,0.277,0.713,0.266,1.047-0.025l2.971-2.604c0.334-0.292,0.407-0.755,0.162-1.033
				l-7.824-8.934c-0.244-0.279-0.713-0.269-1.047,0.023l-2.971,2.604c-0.335,0.293-0.408,0.754-0.163,1.033L93.151,71.314z"/>
			<path class="st111" d="M64.848,40.662c0.498,0.568,1.26,0.717,1.702,0.329l3.935-3.446c0.441-0.387,0.396-1.162-0.102-1.73
				L54.42,17.591c-0.498-0.569-1.26-0.716-1.701-0.328l-3.936,3.444c-0.441,0.39-0.396,1.162,0.102,1.73L64.848,40.662z"/>
			<circle class="st113" cx="64.25" cy="48.74" r="7.334"/>
			<circle class="st111" cx="64.25" cy="48.74" r="4.074"/>
		</g>
		<path class="st111" d="M78.583,79.99c0,1.242,1.007,2.25,2.25,2.25h27.5c1.243,0,2.25-1.008,2.25-2.25l0,0
			c0-1.242-1.007-2.25-2.25-2.25h-27.5C79.59,77.74,78.583,78.748,78.583,79.99L78.583,79.99z"/>
		<path class="st73" d="M41.25,107.99c0,2.096,1.699,3.797,3.797,3.797h46.406c2.097,0,3.797-1.701,3.797-3.797l0,0
			c0-2.096-1.7-3.797-3.797-3.797H45.047C42.95,104.193,41.25,105.895,41.25,107.99L41.25,107.99z"/>
		<path class="st73" d="M61.333,97.74h14.5c4.004,0,7.25,2.426,7.25,5.416c0,2.992-3.246,5.417-7.25,5.417h-14.5
			c-4.004,0-7.25-2.425-7.25-5.417C54.083,100.166,57.33,97.74,61.333,97.74z"/>
	</g>
</g>
</svg>
