<?xml version="1.0" encoding="utf-8"?>
<!-- Generator: Adobe Illustrator 16.0.0, SVG Export Plug-In . SVG Version: 6.00 Build 0)  -->
<!DOCTYPE svg PUBLIC "-//W3C//DTD SVG 1.1//EN" "http://www.w3.org/Graphics/SVG/1.1/DTD/svg11.dtd">
<svg version="1.1" id="Layer_1" xmlns="http://www.w3.org/2000/svg" xmlns:xlink="http://www.w3.org/1999/xlink" x="0px" y="0px"
	 width="136.833px" height="136.833px" viewBox="0 0 136.833 136.833" style="enable-background:new 0 0 136.833 136.833;"
	 xml:space="preserve">
<style type="text/css">
<![CDATA[
	.st0{fill-rule:evenodd;clip-rule:evenodd;fill:#D62127;}
	.st1{fill:#AAAAAA;}
	.st2{fill:#ABD0C8;}
	.st3{fill:#49A0AE;}
	.st4{fill-rule:evenodd;clip-rule:evenodd;fill:#3F3F3E;}
	.st5{fill:#AEAEAF;}
	.st6{fill:#E0F1EF;}
	.st7{fill:#E13F41;}
	.st8{fill:#E27660;}
	.st9{fill:#E27F76;}
	.st10{fill:#E2BE28;}
	.st11{fill:#E2DCBF;}
	.st12{fill:#E3E1C6;}
	.st13{fill:#E4AB6E;}
	.st14{fill:#E4B076;}
	.st15{fill:#E4DFBC;}
	.st16{fill:#E4E4E4;}
	.st17{fill:#4ABC96;}
	.st18{fill:#E6E2C5;}
	.st19{fill:#E7474A;}
	.st20{fill:#E7E2C3;}
	.st21{fill:#E7E4B9;}
	.st22{fill:#E84849;}
	.st23{fill:#4EBFB0;}
	.st24{fill:#E9B82B;}
	.st25{fill:#E9C29C;}
	.st26{fill:#E9E4CC;}
	.st27{fill:#4F7678;}
	.st28{fill:#80BAAE;}
	.st29{fill:#B0DFE0;}
	.st30{fill:#B3DCD2;}
	.st31{fill:#84CEC5;}
	.st32{fill:#86BBB1;}
	.st33{fill:#B6DBD4;}
	.st34{fill:#87C3B7;}
	.st35{fill:#EB9682;}
	.st36{fill:#EBB677;}
	.st37{fill:#EC6666;}
	.st38{fill:#ED3432;}
	.st39{fill:#B9B9BA;}
	.st40{fill:#EDC92C;}
	.st41{fill:#EE4646;}
	.st42{fill:#EF5353;}
	.st43{fill:#EFECEC;}
	.st44{fill:none;stroke:#E84849;stroke-miterlimit:10;}
	.st45{fill:#555C49;}
	.st46{fill-rule:evenodd;clip-rule:evenodd;fill:#F1EDCD;stroke:#E9D8B8;stroke-width:0.25;stroke-miterlimit:10;}
	.st47{fill:#8B8B8C;}
	.st48{fill:#BADDD6;}
	.st49{fill:none;stroke:#BBBCBB;stroke-width:0.5;stroke-miterlimit:10;}
	.st50{fill:#8D734F;}
	.st51{fill:#BCE2DD;}
	.st52{fill:#BDE3DB;}
	.st53{fill:#202121;}
	.st54{fill-rule:evenodd;clip-rule:evenodd;fill:#E9E3C4;}
	.st55{fill:#F06465;}
	.st56{fill:#BFBEBE;}
	.st57{fill-rule:evenodd;clip-rule:evenodd;fill:#82725A;}
	.st58{fill-rule:evenodd;clip-rule:evenodd;fill:#82786D;}
	.st59{fill:#F1EDCD;}
	.st60{fill:#F37C2A;}
	.st61{fill-rule:evenodd;clip-rule:evenodd;fill:#847D77;}
	.st62{fill:#255259;}
	.st63{fill:#F3F2D9;}
	.st64{fill:none;stroke:#FBD5D4;stroke-width:2.5;stroke-linecap:round;stroke-linejoin:round;stroke-miterlimit:10;}
	.st65{fill:#F49396;}
	.st66{fill:#F5EFD8;}
	.st67{fill:#F7F2F3;}
	.st68{fill:#5D919F;}
	.st69{fill:#5E5F5E;}
	.st70{fill:#5E9598;}
	.st71{fill:#90BABA;}
	.st72{fill:#C0BEB1;}
	.st73{fill:#C0C0C0;}
	.st74{fill:#C1E4DD;}
	.st75{fill:#939292;}
	.st76{fill:#C2A681;}
	.st77{fill:#C6C5C5;}
	.st78{fill:#FBF0E6;}
	.st79{fill:#996B33;}
	.st80{fill:#608C3D;}
	.st81{fill-rule:evenodd;clip-rule:evenodd;fill:#8F8376;}
	.st82{fill:#FFFFFF;}
	.st83{fill-rule:evenodd;clip-rule:evenodd;fill:#F1EDCD;}
	.st84{fill:#63998F;}
	.st85{fill:none;}
	.st86{fill:#65A844;}
	.st87{fill-rule:evenodd;clip-rule:evenodd;fill:#5B4F3F;}
	.st88{fill:#CAE8E4;}
	.st89{fill:#CC4028;}
	.st90{fill:#9DDAEC;}
	.st91{fill:#CDCCCB;}
	.st92{fill:#CEE9E4;}
	.st93{fill-rule:evenodd;clip-rule:evenodd;fill:#938980;}
	.st94{fill:#343433;}
	.st95{fill:#357180;}
	.st96{fill:#35878C;}
	.st97{fill:#367A82;}
	.st98{fill:#D0D1D1;}
	.st99{fill:#D1D1D1;}
	.st100{fill:#D62127;}
	.st101{fill:#3BAE85;}
	.st102{fill:#D7AD8C;}
	.st103{fill:#3D929A;}
	.st104{fill:#3F9099;}
	.st105{fill:#3F98A1;}
	.st106{fill:#A19F9F;}
	.st107{fill:#72C8BF;}
	.st108{fill:#74A0A3;}
	.st109{fill:#74BB4D;}
	.st110{fill:#A46434;}
	.st111{fill:#A5A9B6;}
	.st112{fill:#A77640;}
	.st113{fill:#DBDDE1;}
	.st114{fill:#DC3735;}
	.st115{fill:#DCD5B1;}
	.st116{fill:#DD9081;}
	.st117{fill:#DDA166;}
	.st118{fill:#DDF0EE;}
	.st119{fill:#459CA5;}
]]>
</style>
<g>
	<g>
		<circle class="st17" cx="68.417" cy="68.417" r="63.333"/>
	</g>
	<g>
		<path class="st48" d="M73.448,77.74c0,3.498-2.833,6.334-6.332,6.334l-7.74,0.006c-3.496,0-6.334-2.834-6.334-6.334l-0.013-27.762
			c-0.001-3.497,2.835-6.333,6.331-6.333l7.741-0.004c3.498,0,6.333,2.832,6.335,6.332L73.448,77.74z"/>
		<path class="st68" d="M84.072,84.068c-1.154-2.869-1.05-5.613,0.236-6.133l2.844-1.147c1.286-0.52,3.267,1.386,4.422,4.255
			l7.845,19.497c0.528,1.313-0.379,3.788-2.039,4.586c-1.966,0.945-4.836-0.009-5.462-1.564L84.072,84.068z"/>
		<g>
			<path class="st47" d="M84.871,92.199c0.018,2.709-0.479,5.424-1.493,7.992l-0.008-0.008c-0.949,2.376-2.338,4.625-4.182,6.615
				c-8.037,8.674-21.583,9.187-30.256,1.147c-8.669-8.038-9.185-21.581-1.146-30.253c0.795-0.856,1.644-1.637,2.538-2.333
				l-0.001-5.731c-2.184,1.269-4.219,2.88-6.025,4.831c-9.825,10.597-9.196,27.15,1.401,36.975
				c10.6,9.825,27.155,9.196,36.979-1.401c1.784-1.927,3.219-4.047,4.315-6.291l0.016,0.011c0.513-1.056,0.95-2.141,1.313-3.239
				L84.871,92.199z"/>
		</g>
		<g>
			<path class="st39" d="M84.871,92.199c0.018,2.709-0.479,5.424-1.493,7.992l-0.008-0.008c-0.949,2.376-2.338,4.625-4.182,6.615
				c-8.037,8.674-21.583,9.187-30.256,1.147c-5.632-5.22-7.772-12.652-6.413-19.677c0.733-3.787,2.45-7.537,5.267-10.576
				c0.795-0.856,1.644-1.637,2.538-2.333l-0.001-2.956c0,0-6.401,4.965-9.655,12.691c-3.173,7.537-0.096,18.605,6.348,24.596
				c9.389,8.728,20.67,6.505,27.239,3.702c9.918-4.231,12.488-16.684,12.488-16.684L84.871,92.199z"/>
		</g>
		<path class="st68" d="M58.879,84.126c-3.093,0-5.833-1.754-5.833-4.627l-0.042-3.69h31.19c3.092,0,5.134,1.124,5.134,2.513v3.068
			c0,1.385-2.042,2.508-5.134,2.508L58.879,84.126z"/>
		<g>
			<path class="st25" d="M75.098,30.385c0,6.611-5.355,11.967-11.965,11.967c-6.607,0-11.963-5.355-11.963-11.967
				c0-6.604,5.355-11.963,11.963-11.963C69.743,18.422,75.098,23.782,75.098,30.385z"/>
			<path class="st110" d="M65.682,31.499c-1.404,3.039-12.504,5.363-12.504,5.363c-1.641-1.725-2.008-6.477-2.008-6.477
				c0-6.604,5.355-11.963,11.963-11.963c3.069,0,6.339,0.912,9.581,4.771C72.714,23.193,67.708,27.12,65.682,31.499z"/>
			<path class="st94" d="M73.979,30.854c0,0.953-0.735,1.728-1.64,1.728c-0.905,0-1.638-0.774-1.638-1.728
				c0-0.958,0.732-1.734,1.638-1.734C73.244,29.12,73.979,29.896,73.979,30.854z"/>
			<ellipse class="st82" cx="72.852" cy="30.196" rx="0.655" ry="0.693"/>
		</g>
		<path class="st2" d="M68.323,47.94c-0.155-1.338-1.326-2.387-2.665-2.387c-0.111,0-0.222,0.008-0.366,0.027L39.43,50.381
			c-0.71,0.084-1.347,0.473-1.744,1.064c-0.401,0.592-0.522,1.327-0.335,2.014l6.124,22.457c0.29,1.062,1.262,1.806,2.363,1.806
			c0.22,0,0.437-0.029,0.646-0.088c0.632-0.17,1.158-0.579,1.483-1.147c0.324-0.568,0.408-1.229,0.236-1.861l-5.387-19.744
			l23.143-3.951c0.718-0.083,1.356-0.441,1.805-1.008C68.209,49.357,68.408,48.651,68.323,47.94z"/>
	</g>
</g>
</svg>
