<?xml version="1.0" encoding="utf-8"?>
<!-- Generator: Adobe Illustrator 16.0.0, SVG Export Plug-In . SVG Version: 6.00 Build 0)  -->
<!DOCTYPE svg PUBLIC "-//W3C//DTD SVG 1.1//EN" "http://www.w3.org/Graphics/SVG/1.1/DTD/svg11.dtd">
<svg version="1.1" id="Layer_1" xmlns="http://www.w3.org/2000/svg" xmlns:xlink="http://www.w3.org/1999/xlink" x="0px" y="0px"
	 width="136.833px" height="136.833px" viewBox="0 0 136.833 136.833" style="enable-background:new 0 0 136.833 136.833;"
	 xml:space="preserve">
<style type="text/css">
<![CDATA[
	.st0{fill:#AA7435;}
	.st1{fill:#AA7853;}
	.st2{fill:#49341B;}
	.st3{fill:#AC7753;}
	.st4{fill:#49A0AE;}
	.st5{fill:#ACDDDE;}
	.st6{fill:#AD6227;}
	.st7{fill:#AE7C31;}
	.st8{fill:#AE8038;}
	.st9{fill:#AF7B59;}
	.st10{fill:#E0E8EA;}
	.st11{fill:#E17A2D;}
	.st12{fill:#159F57;}
	.st13{fill:#15AA63;}
	.st14{fill:#4B3937;}
	.st15{fill:#4CB648;}
	.st16{fill:#E79E2D;}
	.st17{fill:#E7E6E6;}
	.st18{fill:#4D8353;}
	.st19{fill:#E97E88;}
	.st20{fill:#4F412F;}
	.st21{fill:#805C26;}
	.st22{fill:#82623E;}
	.st23{fill:#82766E;}
	.st24{fill:#B28D5D;}
	.st25{fill:none;stroke:#49341B;stroke-width:5;stroke-linecap:round;stroke-linejoin:round;stroke-miterlimit:10;}
	.st26{fill:#B38669;}
	.st27{fill:#84654F;}
	.st28{fill:#84B340;}
	.st29{fill:#B58C4F;}
	.st30{fill:#1AAA5B;}
	.st31{fill:#886A4B;}
	.st32{fill:#1D1D1D;}
	.st33{fill:#896852;}
	.st34{fill:#ECEBE9;}
	.st35{fill:#B9803D;}
	.st36{fill:#1EAE64;}
	.st37{fill:#B9CD33;}
	.st38{fill:#EDC92C;}
	.st39{fill:#EF4F29;}
	.st40{fill:#EFEFEF;}
	.st41{fill:#53431F;}
	.st42{fill:#564635;}
	.st43{fill:#8A6638;}
	.st44{fill:#57564E;}
	.st45{fill:#57803A;}
	.st46{fill:#8B7363;}
	.st47{fill:#BB996C;}
	.st48{fill:#8C6D4A;}
	.st49{fill:#8C7B69;}
	.st50{fill:#BBBBBB;}
	.st51{fill:#8D6341;}
	.st52{fill:#8E6E56;}
	.st53{fill:#BE9041;}
	.st54{fill:#232323;}
	.st55{fill:#F3CED1;}
	.st56{fill:#F48C92;}
	.st57{fill:#F4C6C8;}
	.st58{fill:#F4DF81;}
	.st59{fill:#F4E028;}
	.st60{fill:#F5F3E2;}
	.st61{fill:#F5F6F7;}
	.st62{fill:#28B467;}
	.st63{fill:#5D2611;}
	.st64{fill:#F8F1E4;}
	.st65{fill:#C04727;}
	.st66{fill:#91722F;}
	.st67{fill:#917853;}
	.st68{fill:#C0BDBB;}
	.st69{fill:#C15832;}
	.st70{fill:#926D3E;}
	.st71{fill:#927352;}
	.st72{fill:#C28B4F;}
	.st73{fill:#937A5E;}
	.st74{fill:#C39269;}
	.st75{fill:#946F3B;}
	.st76{fill:#966439;}
	.st77{fill:#98732B;}
	.st78{fill:#99806D;}
	.st79{fill:#99AEB2;}
	.st80{fill:#2E2010;}
	.st81{opacity:0.8;}
	.st82{fill:#FFFFFF;}
	.st83{fill:#643014;}
	.st84{fill:#65A844;}
	.st85{fill:#66472A;}
	.st86{fill:#666866;}
	.st87{fill:#9A652D;}
	.st88{fill:#9ACA42;}
	.st89{fill-rule:evenodd;clip-rule:evenodd;fill:#F5F3E2;}
	.st90{fill:#CAB252;}
	.st91{fill:#9C653E;}
	.st92{fill:#9C7B2F;}
	.st93{fill:#CBB5A2;}
	.st94{fill:#693215;}
	.st95{fill:#9E6D46;}
	.st96{fill:#9E8166;}
	.st97{fill:#30251A;}
	.st98{fill:#9F7150;}
	.st99{fill:#9F7235;}
	.st100{fill:#9F772B;}
	.st101{fill:#31312F;}
	.st102{fill:#344E5D;}
	.st103{fill:#357180;}
	.st104{fill:#6A5D56;}
	.st105{fill:#6F4D21;}
	.st106{fill:#6F933D;}
	.st107{fill:#D2D2D2;}
	.st108{fill:#D65228;}
	.st109{fill-rule:evenodd;clip-rule:evenodd;fill:#CAB252;}
	.st110{fill:#D7DABA;}
	.st111{fill:#3D3123;}
	.st112{fill:#3E3940;}
	.st113{fill:#A07649;}
	.st114{fill:#717272;}
	.st115{fill:#A0D2DC;}
	.st116{fill:#73903C;}
	.st117{fill:#A2D4DE;}
	.st118{fill:#A38876;}
	.st119{fill:#744A20;}
	.st120{fill:#A45B26;}
	.st121{fill:#A47E2D;}
	.st122{fill:#A48131;}
	.st123{fill:#763517;}
	.st124{fill:#765422;}
	.st125{fill:#A66C41;}
	.st126{fill:#A67F52;}
	.st127{fill:#775625;}
	.st128{fill:#A6BEC4;}
	.st129{fill:#DBB281;}
	.st130{fill:#795B25;}
	.st131{fill:#DCD478;}
	.st132{fill:#DCDCDB;}
	.st133{fill:#0E9554;}
	.st134{fill:#A9714A;}
	.st135{fill:#A9A9A8;}
	.st136{fill:#DFDEDD;}
]]>
</style>
<g>
	<g>
		<g>
			<path class="st58" d="M5.083,68.417c0-34.98,28.357-63.334,63.332-63.334c34.979,0,63.334,28.354,63.334,63.334
				c0,34.977-28.355,63.332-63.334,63.332C33.44,131.75,5.083,103.394,5.083,68.417z"/>
		</g>
	</g>
	<g>
		<g>
			<g>
				<path class="st3" d="M36.659,50.71c0,0,8.357,12.703,20.393,1.003c0,0,4.346-12.702,14.373-12.702
					c0,0,8.025-15.045,20.727,1.002c0,0,20.727,6.686,10.699,23.735c0,0-18.721,18.722-36.439,4.012l-6.352-2.005
					c0,0-13.371,8.357-25.74-3.345c0,0-4.012-2.339-5.35-8.357L36.659,50.71z"/>
			</g>
		</g>
		<g>
			<g>
				<path class="st134" d="M57.052,51.713c0,0,4.346-12.702,14.373-12.702c0,0,8.025-15.045,20.727,1.002
					c0,0,20.727,6.686,10.699,23.735c0,0-18.721,18.722-36.439,4.012l-6.352-2.005C60.06,65.755,57.587,57.655,57.052,51.713z"/>
			</g>
		</g>
		<g>
			<g>
				<path class="st91" d="M101.417,110.105h5.945c0,0-0.445-5.498-0.299-8.768c0.15-3.268,2.23-10.25,2.23-10.25
					s-1.188-6.984-1.041-12.334c0,0,0.445-8.914,1.336-19.166c0,0,1.041-13.223-12.627-17.234c0,0-3.863,21.692,2.229,26.893
					c0,0,4.457,5.051,5.348,10.695c0,0,1.486,12.184,0.596,17.533c0,0,1.486,9.064-3.121,11.74
					C102.013,109.214,100.44,109.326,101.417,110.105z"/>
			</g>
		</g>
		<g>
			<g>
				<path class="st9" d="M106.136,80.388c0,0,0.111-28.526-3.678-33.209c0,0,2.826-0.535,4.531,5.945
					c1.422,5.395,1.709,16.52,2.268,28.824C109.257,81.949,106.581,81.835,106.136,80.388z"/>
			</g>
		</g>
		<g>
			<g>
				<path class="st134" d="M60.706,61.074l0.297,9.656l6.389,15.752c0,0,0,4.307,1.041,5.496l0.445,14.266
					c0,0-5.496,2.377-3.268,3.268l7.727,0.445l-1.338-18.574c0,0-0.148-4.605-1.486-6.092l-4.16-14.857l1.635-7.726L60.706,61.074z"
					/>
			</g>
		</g>
		<g>
			<g>
				<path class="st95" d="M73.485,69.691l0.742,35.064c0,0,1.783,3.418,0.297,3.865c-1.486,0.443-2.822-0.299-2.822-0.299
					s-3.121-2.078,0.594-3.27l-1.783-19.762l-1.781-17.234L73.485,69.691z"/>
			</g>
		</g>
		<g>
			<g>
				<path class="st125" d="M94.999,43.392c0,0-6.598,2.697-3.447,23.684c0,0,2.246,9.145,2.697,10.643l0.449,12.893l-7.795,16.188
					c0,0-5.098,2.248-5.098,2.998c0,0-1.887,1.314,6.596,1.199c0,0,1.35-4.646,2.25-5.545l8.695-13.191
					c0,0-0.301-17.988,2.098-21.137C101.444,71.123,112.388,44.441,94.999,43.392z"/>
			</g>
		</g>
	</g>
	<g>
		<g>
			<path class="st6" d="M50.288,92.697c8.613,0,16.625-9.201,17.066-9.629l-0.5-0.518c-0.123,0.119-11.502,12.523-20.691,8.617
				c-6.809-2.895-17.588-17.07-17.588-35.097h-0.721c0,18.343,10.926,32.743,18.027,35.761
				C47.306,92.437,48.792,92.697,50.288,92.697z"/>
		</g>
	</g>
	<g>
		<g>
			<g>
				<g>
					<g>
						<path class="st129" d="M62.19,116.445c0,0,6.564,1.969,7.074,2.223c0.51,0.256,0.297,0.467,0.297,0.467l-8.813-1.203
							l-2.885-38.045l-5.148,0.557l0.617,37.674l-10.039,1.91c0,0,0-0.467,0.51-0.678c0.51-0.213,7.883-2.531,7.883-2.531
							l-2.678-41.199l11.328,0.186L62.19,116.445z"/>
					</g>
				</g>
				<g>
					<g>
						<g>
							<path class="st129" d="M48.36,67.862c-0.162-0.298-0.459-0.451-0.793-0.5c-0.309-0.048-0.465,0.416-0.857,0.634
								c-0.295,0.188-1.117,0.475-0.996,0.756c0.258,0.604,1.109,0.883,1.906,0.883c0.795,0,1.492-0.318,1.492-0.883
								C49.112,68.367,48.958,67.778,48.36,67.862z"/>
						</g>
					</g>
					<g>
						<g>
							<path class="st129" d="M66.938,79.021c0,0,0.682,2.455,0.93,2.945c0.248,0.486-0.211,2.369-0.211,2.369
								s-0.58-1.232-0.895-1.506c-0.316-0.271-0.15-1.971-0.93-3.67L66.938,79.021z"/>
						</g>
					</g>
					<g>
						<g>
							<polygon class="st10" points="68.122,82.017 66.896,77.849 59.296,57.009 55.806,57.248 51.481,57.988 49.009,58.917 
								34.798,66.155 41.95,68.228 46.181,71.23 46.485,67.92 39.743,65.468 49.153,62.735 49.024,74.318 48.999,115.236 
								64.321,114.746 60.249,74.49 58.56,60.688 63.585,80.302 64.321,83.242 							"/>
						</g>
					</g>
				</g>
				<g>
					<g>
						<g>
							<g>
								<path class="st129" d="M56.187,54.285c0.268,1.418-0.764,2.707-2.305,2.881l0,0c-1.541,0.172-3.008-0.837-3.273-2.256
									l-1.125-5.938c-0.268-1.418,0.764-2.707,2.305-2.88l0,0c1.541-0.173,3.008,0.836,3.275,2.255L56.187,54.285z"/>
							</g>
						</g>
						<g>
							<g>
								<path class="st129" d="M55.45,58.585c0.016,0.858-0.73,1.527-1.668,1.496l0,0c-0.938-0.03-1.709-0.746-1.725-1.604
									l-0.064-3.582c-0.014-0.855,0.732-1.525,1.67-1.496l0,0c0.938,0.03,1.709,0.748,1.725,1.604L55.45,58.585z"/>
							</g>
						</g>
					</g>
					<g>
						<g>
							<path class="st63" d="M49.69,50.72l2.592-1.189l3.256,0.002l-0.623-2.188c0,0-0.58-2.182-3.547-1.652
								C49.081,46.101,48.591,46.917,49.69,50.72z"/>
						</g>
					</g>
				</g>
			</g>
			<g>
				<polygon class="st120" points="60.755,117.91 60.931,119.191 69.562,119.134 65.181,118.537 65.343,117.394 64.198,116.904 
					63.708,118.046 60.552,116.289 				"/>
			</g>
			<g>
				<polygon class="st120" points="53.669,118.125 53.493,119.404 43.294,120.027 49.243,118.75 49.079,117.605 50.224,117.117 
					50.714,118.259 53.495,116.416 				"/>
			</g>
		</g>
		<g>
			<g>
				<g>
					<path class="st39" d="M53.093,45.028c-0.066-0.05-0.129-0.091-0.193-0.122c-0.021-0.007-0.039-0.014-0.057-0.02l0.088,0.313
						C52.931,45.199,53.005,45.095,53.093,45.028z"/>
				</g>
				<g>
					<path class="st39" d="M52.839,44.876l0.004,0.01c0.018,0.006,0.035,0.013,0.057,0.02C52.88,44.896,52.86,44.884,52.839,44.876z
						"/>
				</g>
				<g>
					<path class="st39" d="M52.899,44.906c0.064,0.031,0.127,0.072,0.193,0.122c0.014-0.014,0.029-0.024,0.045-0.034
						C53.044,44.958,52.964,44.929,52.899,44.906z"/>
				</g>
				<g>
					<path class="st39" d="M53.138,44.994c0.041-0.021,0.082-0.036,0.119-0.026c-0.135-0.036-0.273-0.068-0.418-0.091
						c0.021,0.008,0.041,0.02,0.061,0.029C52.964,44.929,53.044,44.958,53.138,44.994z"/>
				</g>
				<g>
					<path class="st39" d="M53.138,44.994c-0.016,0.01-0.031,0.021-0.045,0.034c0.229,0.171,0.455,0.44,0.674,0.782
						c0.123-0.09,0.256-0.169,0.381-0.219C53.749,45.266,53.394,45.095,53.138,44.994z"/>
				</g>
				<g>
					<path class="st82" d="M53.138,44.994c0.256,0.102,0.611,0.272,1.01,0.598c0.15-0.061,0.293-0.076,0.396-0.002
						c-0.385-0.275-0.813-0.488-1.287-0.622C53.22,44.958,53.179,44.972,53.138,44.994z"/>
				</g>
				<g>
					<path class="st82" d="M53.767,45.81c-0.219-0.342-0.445-0.611-0.674-0.782c-0.088,0.067-0.162,0.171-0.162,0.171l0.299,1.07
						C53.229,46.269,53.476,46.017,53.767,45.81z"/>
				</g>
				<g>
					<path class="st82" d="M54.147,45.591c-0.125,0.05-0.258,0.129-0.381,0.219c0.262,0.41,0.514,0.922,0.75,1.49l0.711-0.477
						C54.86,46.265,54.487,45.871,54.147,45.591z"/>
				</g>
				<g>
					<path class="st39" d="M54.147,45.591c0.34,0.279,0.713,0.674,1.08,1.232l0.352-0.232c-0.305-0.383-0.648-0.723-1.035-1.002
						C54.44,45.515,54.298,45.531,54.147,45.591z"/>
				</g>
				<g>
					<path class="st39" d="M53.767,45.81c-0.291,0.207-0.537,0.459-0.537,0.459l0.445,1.596l0.842-0.564
						C54.28,46.732,54.028,46.22,53.767,45.81z"/>
				</g>
				<g>
					<path class="st82" d="M54.517,47.3l-0.842,0.564l0.568,2.032l1.096-0.279C55.093,48.821,54.817,48.017,54.517,47.3z"/>
				</g>
				<g>
					<path class="st82" d="M56.382,49.353l0.568-0.146c-0.324-0.925-0.768-1.853-1.371-2.616l-0.352,0.232
						C55.634,47.441,56.034,48.259,56.382,49.353z"/>
				</g>
				<g>
					<path class="st39" d="M55.228,46.824L54.517,47.3c0.301,0.717,0.576,1.521,0.822,2.317l1.043-0.265
						C56.034,48.259,55.634,47.441,55.228,46.824z"/>
				</g>
				<g>
					<path class="st39" d="M56.874,51.29l0.605-0.167c-0.125-0.598-0.297-1.256-0.529-1.915l-0.568,0.146
						C56.563,49.921,56.729,50.564,56.874,51.29z"/>
				</g>
				<g>
					<path class="st39" d="M55.339,49.618l-1.096,0.279l0.549,1.968l1.096-0.303C55.731,50.957,55.546,50.291,55.339,49.618z"/>
				</g>
				<g>
					<path class="st82" d="M56.382,49.353l-1.043,0.265c0.207,0.673,0.393,1.339,0.549,1.944l0.986-0.272
						C56.729,50.564,56.563,49.921,56.382,49.353z"/>
				</g>
				<g>
					<path class="st82" d="M57.122,52.742l0.615-0.103c-0.053-0.41-0.135-0.935-0.258-1.517l-0.605,0.167
						C56.966,51.741,57.048,52.224,57.122,52.742z"/>
				</g>
				<g>
					<path class="st82" d="M56.216,52.894c-0.088-0.381-0.199-0.836-0.328-1.332l-1.096,0.303l0.582,2.081l-0.244-0.869
						L56.216,52.894z"/>
				</g>
				<g>
					<path class="st39" d="M55.888,51.562c0.129,0.496,0.24,0.951,0.328,1.332l0.906-0.152c-0.074-0.518-0.156-1.001-0.248-1.452
						L55.888,51.562z"/>
				</g>
				<g>
					<path class="st39" d="M57.737,52.639L57.737,52.639c0,0.009,0.002,0.019,0.002,0.027
						C57.739,52.656,57.739,52.648,57.737,52.639z"/>
				</g>
				<g>
					<path class="st39" d="M55.13,53.077l0.244,0.869l1.039-0.174c-0.043-0.203-0.109-0.506-0.197-0.878L55.13,53.077z"/>
				</g>
				<g>
					<path class="st82" d="M57.122,52.742l-0.906,0.152c0.088,0.372,0.154,0.675,0.197,0.878l0.822-0.136
						C57.2,53.326,57.161,53.031,57.122,52.742z"/>
				</g>
				<g>
					<path class="st39" d="M57.235,53.636l0.59-0.1v-0.013c-0.002-0.003-0.002-0.011-0.002-0.011c0-0.012,0-0.02,0-0.02
						c-0.002-0.017-0.002-0.028-0.004-0.039c0-0.011,0-0.023-0.002-0.037c-0.002-0.012-0.002-0.025-0.004-0.042
						c0-0.014-0.002-0.03-0.004-0.048c0-0.018-0.002-0.035-0.004-0.056c-0.004-0.017-0.004-0.035-0.006-0.054
						c-0.002-0.022-0.004-0.047-0.006-0.074c-0.004-0.018-0.006-0.035-0.006-0.055c-0.004-0.031-0.006-0.059-0.01-0.092
						c0-0.004-0.002-0.011-0.002-0.017c-0.008-0.078-0.018-0.162-0.029-0.255c-0.002-0.02-0.004-0.039-0.008-0.06
						c0-0.009-0.002-0.019-0.002-0.027l-0.615,0.103C57.161,53.031,57.2,53.326,57.235,53.636z"/>
				</g>
			</g>
			<g>
				<g>
					<path class="st82" d="M53.778,45.309c-0.07-0.055-0.145-0.105-0.219-0.154c0.027,0.056,0.057,0.111,0.084,0.169
						C53.688,45.319,53.733,45.314,53.778,45.309z"/>
				</g>
				<g>
					<path class="st39" d="M54.571,47.637c0.225-0.008,0.447-0.008,0.668-0.002c-0.195-0.626-0.633-1.685-1.461-2.326
						c-0.045,0.005-0.09,0.01-0.135,0.015C53.989,46.001,54.354,46.831,54.571,47.637z"/>
				</g>
				<g>
					<path class="st82" d="M52.712,45.461c-0.133-0.257-0.262-0.491-0.375-0.689c-0.34-0.016-0.719,0.03-1.135,0.159
						c-0.063,0.021-0.119,0.039-0.18,0.059c0.119,0.195,0.283,0.476,0.465,0.813C51.858,45.669,52.269,45.551,52.712,45.461z"/>
				</g>
				<g>
					<path class="st39" d="M53.644,45.324c-0.027-0.058-0.057-0.113-0.084-0.169c-0.346-0.216-0.75-0.36-1.223-0.383
						c0.113,0.198,0.242,0.433,0.375,0.689C53.007,45.403,53.317,45.356,53.644,45.324z"/>
				</g>
				<g>
					<path class="st39" d="M51.487,45.803c0.307,0.573,0.662,1.309,0.926,2.062c0.402-0.068,0.814-0.126,1.229-0.166
						c-0.234-0.791-0.598-1.591-0.93-2.237C52.269,45.551,51.858,45.669,51.487,45.803z"/>
				</g>
				<g>
					<path class="st82" d="M52.712,45.461c0.332,0.646,0.695,1.446,0.93,2.237c0.311-0.031,0.623-0.053,0.93-0.062
						c-0.217-0.807-0.582-1.636-0.928-2.313C53.317,45.356,53.007,45.403,52.712,45.461z"/>
				</g>
				<g>
					<path class="st82" d="M50.028,46.492c0.256,0.531,0.51,1.13,0.689,1.728c0.518-0.128,1.092-0.253,1.695-0.354
						c-0.264-0.753-0.619-1.488-0.926-2.062C50.921,46.005,50.437,46.247,50.028,46.492z"/>
				</g>
				<g>
					<path class="st39" d="M49.13,47.119c0.219,0.373,0.441,0.838,0.592,1.366c0.293-0.085,0.631-0.177,0.996-0.266
						c-0.18-0.598-0.434-1.196-0.689-1.728C49.667,46.707,49.368,46.923,49.13,47.119z"/>
				</g>
				<g>
					<path class="st39" d="M51.487,45.803c-0.182-0.338-0.346-0.618-0.465-0.813c-0.625,0.207-1.082,0.434-1.412,0.686
						c0.131,0.242,0.275,0.519,0.418,0.816C50.437,46.247,50.921,46.005,51.487,45.803z"/>
				</g>
				<g>
					<path class="st39" d="M48.868,48.744c0.02,0.25,0.039,0.514,0.051,0.791c0,0,0.385-0.022,0.973-0.077
						c-0.021-0.342-0.082-0.669-0.17-0.973C49.366,48.585,49.075,48.677,48.868,48.744z"/>
				</g>
				<g>
					<path class="st82" d="M52.413,47.865c0.139,0.396,0.254,0.797,0.32,1.182c0.387-0.079,0.77-0.17,1.131-0.274
						c-0.037-0.346-0.115-0.708-0.223-1.073C53.228,47.739,52.815,47.796,52.413,47.865z"/>
				</g>
				<g>
					<path class="st39" d="M50.718,48.219c0.117,0.38,0.203,0.759,0.242,1.118c0.553-0.071,1.168-0.166,1.773-0.291
						c-0.066-0.385-0.182-0.785-0.32-1.182C51.81,47.966,51.235,48.091,50.718,48.219z"/>
				</g>
				<g>
					<path class="st39" d="M53.642,47.699c0.107,0.365,0.186,0.728,0.223,1.073c0.311-0.091,0.605-0.192,0.873-0.304
						c-0.033-0.27-0.09-0.549-0.166-0.831C54.265,47.646,53.952,47.667,53.642,47.699z"/>
				</g>
				<g>
					<path class="st82" d="M55.239,47.635c-0.221-0.006-0.443-0.006-0.668,0.002c0.076,0.282,0.133,0.562,0.166,0.831
						c0.236-0.1,0.451-0.207,0.637-0.324C55.374,48.144,55.335,47.944,55.239,47.635z"/>
				</g>
				<g>
					<path class="st82" d="M49.722,48.485c0.088,0.304,0.148,0.631,0.17,0.973c0.309-0.03,0.672-0.069,1.068-0.12
						c-0.039-0.359-0.125-0.738-0.242-1.118C50.353,48.308,50.015,48.4,49.722,48.485z"/>
				</g>
				<g>
					<path class="st39" d="M48.88,46.722c-0.057,0.216-0.082,0.447-0.088,0.691c0.096-0.089,0.209-0.188,0.338-0.295
						C49.044,46.972,48.96,46.838,48.88,46.722z"/>
				</g>
				<g>
					<path class="st82" d="M49.13,47.119c-0.129,0.107-0.242,0.206-0.338,0.295c-0.008,0.4,0.037,0.842,0.076,1.33
						c0.207-0.066,0.498-0.158,0.854-0.259C49.571,47.957,49.349,47.492,49.13,47.119z"/>
				</g>
				<g>
					<path class="st82" d="M50.028,46.492c-0.143-0.298-0.287-0.574-0.418-0.816c-0.406,0.31-0.625,0.654-0.73,1.047
						c0.08,0.116,0.164,0.25,0.25,0.396C49.368,46.923,49.667,46.707,50.028,46.492z"/>
				</g>
			</g>
		</g>
	</g>
	<g>
		<g>
			<g>
				<g>
					<path class="st1" d="M37.046,43.741c-0.02-0.052-0.041-0.103-0.064-0.151l-4.693-4.158c-0.701-0.329-1.623,0.168-2.543,0.168
						s-1.84-0.497-2.543-0.168l-4.693,4.158c-0.027,0.061-0.055,0.126-0.078,0.193c0.336,0.271,0.559,0.738,0.559,1.272
						c0,0.435-0.15,0.827-0.387,1.103l0.281,4.855l2.617,3.757c2.348,0.66,6.152,0.66,8.498,0l2.432-3.349l0.432-5.213
						c-0.264-0.275-0.432-0.689-0.432-1.153C36.431,44.492,36.679,44.001,37.046,43.741z"/>
				</g>
			</g>
			<g>
				<g>
					<path class="st33" d="M22.431,43.783c-0.236,0.661-0.211,1.596,0.078,2.195l0.094,0.18c0.236-0.275,0.961-0.668,0.961-1.103
						C23.563,44.521,22.767,44.054,22.431,43.783z"/>
				</g>
			</g>
			<g>
				<g>
					<path class="st33" d="M37.046,43.741c-0.367,0.261-1.262,0.751-1.262,1.314c0,0.464,0.814,0.878,1.078,1.153l0.119-0.23
						C37.278,45.367,37.3,44.405,37.046,43.741z"/>
				</g>
			</g>
			<g>
				<g>
					<g>
						<path class="st108" d="M29.839,56.096c-0.012,0-0.023-0.001-0.035-0.003c0,0-3.477-0.092-4.299-0.533
							c-0.82-0.441-2.711-3.548-3.037-4.828s-0.299-3.74-0.299-3.74c-0.02-0.141,0.066-0.275,0.203-0.313
							c0,0,5.037-2.396,7.299-2.396c2.264,0,7.189,2.396,7.189,2.396c0.133,0.039,0.215,0.174,0.193,0.311
							c0,0,0.174,2.289,0.006,3.334s-1.941,3.266-3.117,4.113s-3.998,1.638-3.998,1.638C29.909,56.089,29.876,56.096,29.839,56.096z
							 M25.708,55.025c0.727,0.385,3.213,0.589,4.094,0.508c0.883-0.081,3.045-0.999,3.859-1.582s2.613-3.067,2.859-3.783
							s0.291-2.438-0.023-2.931c-0.313-0.494-3.756-1.923-6.826-1.923s-6.217,1.39-6.686,1.951s-0.064,2.638,0.025,3.328
							C23.101,51.285,24.983,54.64,25.708,55.025z"/>
					</g>
				</g>
			</g>
		</g>
		<g>
			<g>
				<path class="st1" d="M23.749,42.859c0,0-2.492-7.189,3.803-2.351L23.749,42.859z"/>
			</g>
		</g>
		<g>
			<g>
				<path class="st1" d="M35.704,42.783c0,0,2.49-7.189-3.803-2.352L35.704,42.783z"/>
			</g>
		</g>
		<g>
			<g>
				<path class="st26" d="M25.724,53.92c0,0,0.684,2.095,1.467,2.729c0.785,0.635,1.664,0.738,2.461,0.744
					c0.857,0.011,1.803-0.129,2.668-0.744s1.449-2.729,1.449-2.729c0.041-0.106,0.213-1.872-0.666-3.285
					c-1.055-1.696-2.422-3.059-3.543-3.059c-1.168,0-2.93,1.52-3.707,3.274C25.263,52.179,25.685,53.821,25.724,53.92z"/>
			</g>
		</g>
		<g>
			<g>
				<path class="st98" d="M26.55,52.901l1.117,2.337c0.551,0.227,1.27,0.738,1.994,0.747c0.779,0.009,1.566-0.504,2.164-0.747
					l1.117-2.337c0.07-0.235-1.717-6.757-3.586-6.757C27.487,46.142,26.479,52.666,26.55,52.901z"/>
			</g>
		</g>
		<g>
			<g>
				<path class="st26" d="M26.442,51.359c0,0,0.279,2.076,1.094,2.73s2.191-0.407,2.191-0.407s1.426,0.92,2.191,0.407
					s1.131-2.73,1.131-2.73c0.059-0.186-1.219-3.417-2.594-5.014c-0.354-0.412-1.801-0.363-2.131,0.115
					C27.177,48.123,26.386,51.177,26.442,51.359z"/>
			</g>
		</g>
		<g>
			<g>
				<g>
					<path class="st98" d="M29.728,54.201c-0.09,0-0.164-0.072-0.166-0.162l-0.113-3.612c-0.002-0.092,0.07-0.169,0.162-0.173
						c0.096,0.006,0.168,0.07,0.17,0.162l0.113,3.614c0.004,0.091-0.068,0.167-0.16,0.171H29.728z"/>
				</g>
			</g>
		</g>
		<g>
			<g>
				<path class="st98" d="M27.159,48.005l1.117,2.09c0.371,0.166,0.852,0.506,1.338,0.521c0.576,0.016,1.162-0.326,1.602-0.521
					l1.115-2.09c0.029-0.087-0.332-0.681-0.861-1.84l-3.734,0.069C27.354,47.37,27.132,47.921,27.159,48.005z"/>
			</g>
		</g>
		<g>
			<g>
				<path class="st1" d="M27.159,47.095l1.117,2.091c0.371,0.165,0.852,0.508,1.34,0.521c0.574,0.016,1.16-0.326,1.6-0.521
					l1.115-2.091c0.02-0.061-0.154-0.273-0.449-1.03l-2.32-0.507l-2.127,0.597C27.241,46.869,27.142,47.037,27.159,47.095z"/>
			</g>
		</g>
	</g>
</g>
</svg>
