<?xml version="1.0" encoding="utf-8"?>
<!-- Generator: Adobe Illustrator 16.0.0, SVG Export Plug-In . SVG Version: 6.00 Build 0)  -->
<!DOCTYPE svg PUBLIC "-//W3C//DTD SVG 1.1//EN" "http://www.w3.org/Graphics/SVG/1.1/DTD/svg11.dtd">
<svg version="1.1" id="Layer_1" xmlns="http://www.w3.org/2000/svg" xmlns:xlink="http://www.w3.org/1999/xlink" x="0px" y="0px"
	 width="136.833px" height="136.833px" viewBox="0 0 136.833 136.833" style="enable-background:new 0 0 136.833 136.833;"
	 xml:space="preserve">
<style type="text/css">
<![CDATA[
	.st0{fill:#AA7435;}
	.st1{fill:#AA7853;}
	.st2{fill:#49341B;}
	.st3{fill:#AC7753;}
	.st4{fill:#49A0AE;}
	.st5{fill:#ACDDDE;}
	.st6{fill:#AD6227;}
	.st7{fill:#AE7C31;}
	.st8{fill:#AE8038;}
	.st9{fill:#AF7B59;}
	.st10{fill:#E0E8EA;}
	.st11{fill:#E17A2D;}
	.st12{fill:#159F57;}
	.st13{fill:#15AA63;}
	.st14{fill:#4B3937;}
	.st15{fill:#4CB648;}
	.st16{fill:#E79E2D;}
	.st17{fill:#E7E6E6;}
	.st18{fill:#4D8353;}
	.st19{fill:#E97E88;}
	.st20{fill:#4F412F;}
	.st21{fill:#805C26;}
	.st22{fill:#82623E;}
	.st23{fill:#82766E;}
	.st24{fill:#B28D5D;}
	.st25{fill:none;stroke:#49341B;stroke-width:5;stroke-linecap:round;stroke-linejoin:round;stroke-miterlimit:10;}
	.st26{fill:#B38669;}
	.st27{fill:#84654F;}
	.st28{fill:#84B340;}
	.st29{fill:#B58C4F;}
	.st30{fill:#1AAA5B;}
	.st31{fill:#886A4B;}
	.st32{fill:#1D1D1D;}
	.st33{fill:#896852;}
	.st34{fill:#ECEBE9;}
	.st35{fill:#B9803D;}
	.st36{fill:#1EAE64;}
	.st37{fill:#B9CD33;}
	.st38{fill:#EDC92C;}
	.st39{fill:#EF4F29;}
	.st40{fill:#EFEFEF;}
	.st41{fill:#53431F;}
	.st42{fill:#564635;}
	.st43{fill:#8A6638;}
	.st44{fill:#57564E;}
	.st45{fill:#57803A;}
	.st46{fill:#8B7363;}
	.st47{fill:#BB996C;}
	.st48{fill:#8C6D4A;}
	.st49{fill:#8C7B69;}
	.st50{fill:#BBBBBB;}
	.st51{fill:#8D6341;}
	.st52{fill:#8E6E56;}
	.st53{fill:#BE9041;}
	.st54{fill:#232323;}
	.st55{fill:#F3CED1;}
	.st56{fill:#F48C92;}
	.st57{fill:#F4C6C8;}
	.st58{fill:#F4DF81;}
	.st59{fill:#F4E028;}
	.st60{fill:#F5F3E2;}
	.st61{fill:#F5F6F7;}
	.st62{fill:#28B467;}
	.st63{fill:#5D2611;}
	.st64{fill:#F8F1E4;}
	.st65{fill:#C04727;}
	.st66{fill:#91722F;}
	.st67{fill:#917853;}
	.st68{fill:#C0BDBB;}
	.st69{fill:#C15832;}
	.st70{fill:#926D3E;}
	.st71{fill:#927352;}
	.st72{fill:#C28B4F;}
	.st73{fill:#937A5E;}
	.st74{fill:#C39269;}
	.st75{fill:#946F3B;}
	.st76{fill:#966439;}
	.st77{fill:#98732B;}
	.st78{fill:#99806D;}
	.st79{fill:#99AEB2;}
	.st80{fill:#2E2010;}
	.st81{opacity:0.8;}
	.st82{fill:#FFFFFF;}
	.st83{fill:#643014;}
	.st84{fill:#65A844;}
	.st85{fill:#66472A;}
	.st86{fill:#666866;}
	.st87{fill:#9A652D;}
	.st88{fill:#9ACA42;}
	.st89{fill-rule:evenodd;clip-rule:evenodd;fill:#F5F3E2;}
	.st90{fill:#CAB252;}
	.st91{fill:#9C653E;}
	.st92{fill:#9C7B2F;}
	.st93{fill:#CBB5A2;}
	.st94{fill:#693215;}
	.st95{fill:#9E6D46;}
	.st96{fill:#9E8166;}
	.st97{fill:#30251A;}
	.st98{fill:#9F7150;}
	.st99{fill:#9F7235;}
	.st100{fill:#9F772B;}
	.st101{fill:#31312F;}
	.st102{fill:#344E5D;}
	.st103{fill:#357180;}
	.st104{fill:#6A5D56;}
	.st105{fill:#6F4D21;}
	.st106{fill:#6F933D;}
	.st107{fill:#D2D2D2;}
	.st108{fill:#D65228;}
	.st109{fill-rule:evenodd;clip-rule:evenodd;fill:#CAB252;}
	.st110{fill:#D7DABA;}
	.st111{fill:#3D3123;}
	.st112{fill:#3E3940;}
	.st113{fill:#A07649;}
	.st114{fill:#717272;}
	.st115{fill:#A0D2DC;}
	.st116{fill:#73903C;}
	.st117{fill:#A2D4DE;}
	.st118{fill:#A38876;}
	.st119{fill:#744A20;}
	.st120{fill:#A45B26;}
	.st121{fill:#A47E2D;}
	.st122{fill:#A48131;}
	.st123{fill:#763517;}
	.st124{fill:#765422;}
	.st125{fill:#A66C41;}
	.st126{fill:#A67F52;}
	.st127{fill:#775625;}
	.st128{fill:#A6BEC4;}
	.st129{fill:#DBB281;}
	.st130{fill:#795B25;}
	.st131{fill:#DCD478;}
	.st132{fill:#DCDCDB;}
	.st133{fill:#0E9554;}
	.st134{fill:#A9714A;}
	.st135{fill:#A9A9A8;}
	.st136{fill:#DFDEDD;}
]]>
</style>
<g>
	<g>
		<g>
			<circle class="st103" cx="68.417" cy="67.559" r="63.333"/>
		</g>
	</g>
	<g>
		<g>
			<g>
				<path class="st65" d="M44.028,57.321c6.132-6.133,17.624-10.87,21.79-6.704c4.166,4.165-0.572,15.657-6.704,21.789
					c-6.133,6.133-11.339,4.585-15.505,0.42C39.443,68.66,37.896,63.454,44.028,57.321z"/>
			</g>
		</g>
		<g>
			<g>
				<path class="st65" d="M92.623,38.897c-6.133,6.133-17.625,10.87-21.79,6.705c-4.166-4.166,0.572-15.657,6.705-21.79
					c6.132-6.133,11.339-4.585,15.504-0.419C97.207,27.558,98.755,32.764,92.623,38.897z"/>
			</g>
		</g>
		<g>
			<g>
				<path class="st65" d="M78.009,72.524c-6.133-6.133-10.871-17.623-6.705-21.789s15.657,0.571,21.79,6.704
					c6.132,6.133,4.585,11.339,0.419,15.505C89.347,77.109,84.141,78.657,78.009,72.524z"/>
			</g>
		</g>
		<g>
			<g>
				<path class="st65" d="M59.585,23.93c6.133,6.133,10.871,17.623,6.705,21.789s-15.657-0.571-21.79-6.704
					c-6.133-6.133-4.585-11.339-0.419-15.505C48.247,19.345,53.453,17.797,59.585,23.93z"/>
			</g>
		</g>
		<g>
			<g>
				<path class="st69" d="M89.025,38.914c-4.708,4.708-13.529,8.345-16.728,5.146c-3.198-3.198,0.438-12.019,5.146-16.727
					s8.705-3.521,11.902-0.322C92.545,30.208,93.733,34.206,89.025,38.914z"/>
			</g>
		</g>
		<g>
			<g>
				<path class="st69" d="M47.381,57.394c4.708-4.708,13.529-8.345,16.728-5.146c3.198,3.199-0.439,12.02-5.147,16.728
					c-4.708,4.708-8.704,3.521-11.902,0.322C43.861,66.099,42.673,62.102,47.381,57.394z"/>
			</g>
		</g>
		<g>
			<g>
				<path class="st69" d="M77.444,68.975c-4.708-4.708-8.345-13.528-5.146-16.728c3.198-3.198,12.019,0.438,16.727,5.146
					s3.521,8.705,0.321,11.903C86.148,72.496,82.152,73.683,77.444,68.975z"/>
			</g>
		</g>
		<g>
			<g>
				<path class="st69" d="M58.962,27.333c4.708,4.708,8.345,13.528,5.147,16.728c-3.199,3.198-12.02-0.438-16.728-5.148
					c-4.708-4.706-3.521-8.703-0.321-11.901C50.258,23.812,54.254,22.625,58.962,27.333z"/>
			</g>
		</g>
		<g>
			<g>
				<path class="st15" d="M70.703,117.074c0,2.623-1.455,4.75-3.25,4.75l0,0c-1.795,0-3.25-2.127-3.25-4.75V84.237
					c0-2.623,1.455-4.75,3.25-4.75l0,0c1.795,0,3.25,2.127,3.25,4.75V117.074z"/>
			</g>
		</g>
		<g>
			<g>
				<g>
					<g>
						<path class="st15" d="M44.042,92.449c8.472,3.979,13.451,1.984,18.521,6.887c3.794,3.666,4.405,9.191,1.365,12.336
							c-3.042,3.146-8.583,2.723-12.376-0.944C44.555,103.963,44.042,92.449,44.042,92.449z"/>
					</g>
				</g>
			</g>
		</g>
		<g>
			<g>
				<g>
					<g>
						<path class="st15" d="M90.847,92.449c-8.472,3.979-13.451,1.984-18.521,6.887c-3.794,3.666-4.405,9.191-1.365,12.336
							c3.042,3.146,8.583,2.723,12.376-0.944C90.334,103.963,90.847,92.449,90.847,92.449z"/>
					</g>
				</g>
			</g>
		</g>
		<g>
			<g>
				<path class="st65" d="M57.536,72.098c0-8.673,4.776-20.148,10.667-20.148S78.87,63.425,78.87,72.098s-4.776,11.26-10.667,11.26
					S57.536,80.771,57.536,72.098z"/>
			</g>
		</g>
		<g>
			<g>
				<path class="st65" d="M78.87,24.709c0,8.673-4.776,20.148-10.667,20.148S57.536,33.382,57.536,24.709s4.776-11.26,10.667-11.26
					S78.87,16.037,78.87,24.709z"/>
			</g>
		</g>
		<g>
			<g>
				<path class="st65" d="M92.314,58.821c-8.673,0-20.148-4.775-20.148-10.667s11.476-10.667,20.148-10.667
					s11.26,4.775,11.26,10.667S100.987,58.821,92.314,58.821z"/>
			</g>
		</g>
		<g>
			<g>
				<path class="st65" d="M44.926,37.487c8.673,0,20.148,4.775,20.148,10.667S53.599,58.821,44.926,58.821
					s-11.26-4.775-11.26-10.667S36.253,37.487,44.926,37.487z"/>
			</g>
		</g>
		<g>
			<g>
				<path class="st69" d="M89.46,56.343c-6.658,0-15.467-3.666-15.466-8.189c0-4.523,8.809-8.188,15.466-8.188
					c6.658,0,8.645,3.665,8.645,8.188C98.105,52.677,96.118,56.343,89.46,56.343z"/>
			</g>
		</g>
		<g>
			<g>
				<path class="st69" d="M46.946,39.964c6.658,0,15.467,3.666,15.467,8.189c-0.001,4.523-8.81,8.188-15.468,8.188
					c-6.658,0-8.644-3.665-8.644-8.188S40.288,39.964,46.946,39.964z"/>
			</g>
		</g>
		<g>
			<g>
				<path class="st69" d="M60.015,69.411c0-6.658,3.665-15.467,8.189-15.467c4.523,0,8.189,8.809,8.189,15.467
					s-3.666,8.645-8.19,8.645C63.68,78.055,60.015,76.069,60.015,69.411z"/>
			</g>
		</g>
		<g>
			<g>
				<path class="st69" d="M76.392,26.897c0,6.658-3.665,15.467-8.188,15.468c-4.523-0.001-8.189-8.81-8.188-15.47
					c-0.001-6.656,3.665-8.643,8.188-8.643C72.726,18.252,76.392,20.239,76.392,26.897z"/>
			</g>
		</g>
		<g>
			<g>
				<circle class="st38" cx="68.703" cy="48.487" r="14.333"/>
			</g>
		</g>
		<g>
			<g>
				<circle class="st16" cx="68.703" cy="48.487" r="5.5"/>
			</g>
		</g>
	</g>
</g>
</svg>
