<?xml version="1.0" encoding="utf-8"?>
<!-- Generator: Adobe Illustrator 16.0.0, SVG Export Plug-In . SVG Version: 6.00 Build 0)  -->
<!DOCTYPE svg PUBLIC "-//W3C//DTD SVG 1.1//EN" "http://www.w3.org/Graphics/SVG/1.1/DTD/svg11.dtd">
<svg version="1.1" id="Layer_1" xmlns="http://www.w3.org/2000/svg" xmlns:xlink="http://www.w3.org/1999/xlink" x="0px" y="0px"
	 width="136.833px" height="136.833px" viewBox="0 0 136.833 136.833" style="enable-background:new 0 0 136.833 136.833;"
	 xml:space="preserve">
<style type="text/css">
<![CDATA[
	.st0{fill:#AA7435;}
	.st1{fill:#AA7853;}
	.st2{fill:#49341B;}
	.st3{fill:#AC7753;}
	.st4{fill:#49A0AE;}
	.st5{fill:#ACDDDE;}
	.st6{fill:#AD6227;}
	.st7{fill:#AE7C31;}
	.st8{fill:#AE8038;}
	.st9{fill:#AF7B59;}
	.st10{fill:#E0E8EA;}
	.st11{fill:#E17A2D;}
	.st12{fill:#159F57;}
	.st13{fill:#15AA63;}
	.st14{fill:#4B3937;}
	.st15{fill:#4CB648;}
	.st16{fill:#E79E2D;}
	.st17{fill:#E7E6E6;}
	.st18{fill:#4D8353;}
	.st19{fill:#E97E88;}
	.st20{fill:#4F412F;}
	.st21{fill:#805C26;}
	.st22{fill:#82623E;}
	.st23{fill:#82766E;}
	.st24{fill:#B28D5D;}
	.st25{fill:none;stroke:#49341B;stroke-width:5;stroke-linecap:round;stroke-linejoin:round;stroke-miterlimit:10;}
	.st26{fill:#B38669;}
	.st27{fill:#84654F;}
	.st28{fill:#84B340;}
	.st29{fill:#B58C4F;}
	.st30{fill:#1AAA5B;}
	.st31{fill:#886A4B;}
	.st32{fill:#1D1D1D;}
	.st33{fill:#896852;}
	.st34{fill:#ECEBE9;}
	.st35{fill:#B9803D;}
	.st36{fill:#1EAE64;}
	.st37{fill:#B9CD33;}
	.st38{fill:#EDC92C;}
	.st39{fill:#EF4F29;}
	.st40{fill:#EFEFEF;}
	.st41{fill:#53431F;}
	.st42{fill:#564635;}
	.st43{fill:#8A6638;}
	.st44{fill:#57564E;}
	.st45{fill:#57803A;}
	.st46{fill:#8B7363;}
	.st47{fill:#BB996C;}
	.st48{fill:#8C6D4A;}
	.st49{fill:#8C7B69;}
	.st50{fill:#BBBBBB;}
	.st51{fill:#8D6341;}
	.st52{fill:#8E6E56;}
	.st53{fill:#BE9041;}
	.st54{fill:#232323;}
	.st55{fill:#F3CED1;}
	.st56{fill:#F48C92;}
	.st57{fill:#F4C6C8;}
	.st58{fill:#F4DF81;}
	.st59{fill:#F4E028;}
	.st60{fill:#F5F3E2;}
	.st61{fill:#F5F6F7;}
	.st62{fill:#28B467;}
	.st63{fill:#5D2611;}
	.st64{fill:#F8F1E4;}
	.st65{fill:#C04727;}
	.st66{fill:#91722F;}
	.st67{fill:#917853;}
	.st68{fill:#C0BDBB;}
	.st69{fill:#C15832;}
	.st70{fill:#926D3E;}
	.st71{fill:#927352;}
	.st72{fill:#C28B4F;}
	.st73{fill:#937A5E;}
	.st74{fill:#C39269;}
	.st75{fill:#946F3B;}
	.st76{fill:#966439;}
	.st77{fill:#98732B;}
	.st78{fill:#99806D;}
	.st79{fill:#99AEB2;}
	.st80{fill:#2E2010;}
	.st81{opacity:0.8;}
	.st82{fill:#FFFFFF;}
	.st83{fill:#643014;}
	.st84{fill:#65A844;}
	.st85{fill:#66472A;}
	.st86{fill:#666866;}
	.st87{fill:#9A652D;}
	.st88{fill:#9ACA42;}
	.st89{fill-rule:evenodd;clip-rule:evenodd;fill:#F5F3E2;}
	.st90{fill:#CAB252;}
	.st91{fill:#9C653E;}
	.st92{fill:#9C7B2F;}
	.st93{fill:#CBB5A2;}
	.st94{fill:#693215;}
	.st95{fill:#9E6D46;}
	.st96{fill:#9E8166;}
	.st97{fill:#30251A;}
	.st98{fill:#9F7150;}
	.st99{fill:#9F7235;}
	.st100{fill:#9F772B;}
	.st101{fill:#31312F;}
	.st102{fill:#344E5D;}
	.st103{fill:#357180;}
	.st104{fill:#6A5D56;}
	.st105{fill:#6F4D21;}
	.st106{fill:#6F933D;}
	.st107{fill:#D2D2D2;}
	.st108{fill:#D65228;}
	.st109{fill-rule:evenodd;clip-rule:evenodd;fill:#CAB252;}
	.st110{fill:#D7DABA;}
	.st111{fill:#3D3123;}
	.st112{fill:#3E3940;}
	.st113{fill:#A07649;}
	.st114{fill:#717272;}
	.st115{fill:#A0D2DC;}
	.st116{fill:#73903C;}
	.st117{fill:#A2D4DE;}
	.st118{fill:#A38876;}
	.st119{fill:#744A20;}
	.st120{fill:#A45B26;}
	.st121{fill:#A47E2D;}
	.st122{fill:#A48131;}
	.st123{fill:#763517;}
	.st124{fill:#765422;}
	.st125{fill:#A66C41;}
	.st126{fill:#A67F52;}
	.st127{fill:#775625;}
	.st128{fill:#A6BEC4;}
	.st129{fill:#DBB281;}
	.st130{fill:#795B25;}
	.st131{fill:#DCD478;}
	.st132{fill:#DCDCDB;}
	.st133{fill:#0E9554;}
	.st134{fill:#A9714A;}
	.st135{fill:#A9A9A8;}
	.st136{fill:#DFDEDD;}
]]>
</style>
<g>
	<g>
		<g>
			<circle class="st115" cx="72.692" cy="70.953" r="63.333"/>
		</g>
	</g>
	<g>
		<path class="st60" d="M72.65,134.322c26.934,0,49.926-16.822,59.083-40.525c-16.535-9.967-38.036-14.697-61.544-14.697
			c-21.617,0-41.535,4.002-57.458,12.396C21.255,116.406,44.853,134.322,72.65,134.322z"/>
	</g>
	<g>
		<g>
			<path class="st61" d="M71.661,57.613c0,0,26.217-6.02,36.725,3.832l-4.597,26.49c0,0-11.569,5.088-29.756-2.492
				S71.661,57.613,71.661,57.613z"/>
		</g>
		<g>
			<path class="st40" d="M71.661,57.613c0,0,26.217-6.02,36.725,3.832l-1.895,10.921c0,0-42.101-0.133-39.438-6.65
				C68.94,61.099,71.661,57.613,71.661,57.613z"/>
		</g>
		<g>
			<path class="st132" d="M54.586,68.121c2.706,0.813,0.164,19.539-1.149,25.615c-1.313,6.074-3.447,6.73-3.447,6.73l-8.538-0.984
				c-2.135-0.986,1.971-3.119,1.971-3.119c3.611-1.805,3.283-20.689,2.462-24.629C45.884,71.734,51.303,67.137,54.586,68.121z"/>
		</g>
		<g>
			<path class="st17" d="M71.661,57.613c-9.85-0.985-23.149-5.91-23.149-5.91s-4.769,6.982-10.18,7.551
				c-6.239,0.658-12.051-2.354-15.433-2.873c-1.087-0.166-1.123,1.463-0.763,2.386c0.568,1.456,8.149,2.951,15.54,5.578
				c3.162,2.752,7.638,8.635,8.81,9.108c4.784,2.492,17.776,9.518,18.444,12.73c0.82,3.939,0.82,11.492-2.79,13.299
				c0,0-4.106,2.133-1.972,3.119l8.538,0.984c0,0,2.135-0.656,3.448-6.73c0.752-3.484,1.666-7.936,1.878-11.412
				C85.894,88.851,71.661,57.613,71.661,57.613z"/>
		</g>
		<g>
			<path class="st114" d="M22.735,51.375c0,0-2.494,0.729-0.907,3.135C21.828,54.51,24.258,53.429,22.735,51.375z"/>
		</g>
		<g>
			<path class="st61" d="M56.393,54.289c0,0-16.694-7.822-22.987-6.69c-6.293,1.13-10.671,3.776-10.671,3.776
				s0.574,1.396-0.907,3.135c0,0-1.118,5.841,10.594,4.966C32.421,59.476,44.46,63.305,56.393,54.289z"/>
		</g>
		<g>
			<path class="st86" d="M33.616,50.371c-0.009,0.398-0.654,0.789-1.155,0.778c-0.502-0.008-1.233-0.28-1.226-0.682
				c0.008-0.399,0.752-0.774,1.253-0.766C32.99,49.711,33.624,49.971,33.616,50.371z"/>
		</g>
		<g>
			<path class="st34" d="M103.049,60.914c6.077-1.123,10.852,3.577,11.795,8.192c0,0,0.656,13.463-1.313,18.061
				c0,0-0.985,15.434-0.328,17.732c0,0-7.717,2.463-11.001,2.463c0,0-0.82-4.105,3.776-6.402c0,0-4.72-3.268-8.135-8.48
				c-2.211-3.375-3.874-7.563-3.358-12.209C94.485,80.271,95.851,62.243,103.049,60.914z"/>
		</g>
	</g>
</g>
</svg>
