<?xml version="1.0" encoding="utf-8"?>
<!-- Generator: Adobe Illustrator 16.0.0, SVG Export Plug-In . SVG Version: 6.00 Build 0)  -->
<!DOCTYPE svg PUBLIC "-//W3C//DTD SVG 1.1//EN" "http://www.w3.org/Graphics/SVG/1.1/DTD/svg11.dtd">
<svg version="1.1" id="Layer_1" xmlns="http://www.w3.org/2000/svg" xmlns:xlink="http://www.w3.org/1999/xlink" x="0px" y="0px"
	 width="136.833px" height="136.834px" viewBox="0 0 136.833 136.834" style="enable-background:new 0 0 136.833 136.834;"
	 xml:space="preserve">
<style type="text/css">
<![CDATA[
	.st0{fill:#AA7435;}
	.st1{fill:#AA7853;}
	.st2{fill:#49341B;}
	.st3{fill:#AC7753;}
	.st4{fill:#49A0AE;}
	.st5{fill:#ACDDDE;}
	.st6{fill:#AD6227;}
	.st7{fill:#AE7C31;}
	.st8{fill:#AE8038;}
	.st9{fill:#AF7B59;}
	.st10{fill:#E0E8EA;}
	.st11{fill:#E17A2D;}
	.st12{fill:#159F57;}
	.st13{fill:#15AA63;}
	.st14{fill:#4B3937;}
	.st15{fill:#4CB648;}
	.st16{fill:#E79E2D;}
	.st17{fill:#E7E6E6;}
	.st18{fill:#4D8353;}
	.st19{fill:#E97E88;}
	.st20{fill:#4F412F;}
	.st21{fill:#805C26;}
	.st22{fill:#82623E;}
	.st23{fill:#82766E;}
	.st24{fill:#B28D5D;}
	.st25{fill:none;stroke:#49341B;stroke-width:5;stroke-linecap:round;stroke-linejoin:round;stroke-miterlimit:10;}
	.st26{fill:#B38669;}
	.st27{fill:#84654F;}
	.st28{fill:#84B340;}
	.st29{fill:#B58C4F;}
	.st30{fill:#1AAA5B;}
	.st31{fill:#886A4B;}
	.st32{fill:#1D1D1D;}
	.st33{fill:#896852;}
	.st34{fill:#ECEBE9;}
	.st35{fill:#B9803D;}
	.st36{fill:#1EAE64;}
	.st37{fill:#B9CD33;}
	.st38{fill:#EDC92C;}
	.st39{fill:#EF4F29;}
	.st40{fill:#EFEFEF;}
	.st41{fill:#53431F;}
	.st42{fill:#564635;}
	.st43{fill:#8A6638;}
	.st44{fill:#57564E;}
	.st45{fill:#57803A;}
	.st46{fill:#8B7363;}
	.st47{fill:#BB996C;}
	.st48{fill:#8C6D4A;}
	.st49{fill:#8C7B69;}
	.st50{fill:#BBBBBB;}
	.st51{fill:#8D6341;}
	.st52{fill:#8E6E56;}
	.st53{fill:#BE9041;}
	.st54{fill:#232323;}
	.st55{fill:#F3CED1;}
	.st56{fill:#F48C92;}
	.st57{fill:#F4C6C8;}
	.st58{fill:#F4DF81;}
	.st59{fill:#F4E028;}
	.st60{fill:#F5F3E2;}
	.st61{fill:#F5F6F7;}
	.st62{fill:#28B467;}
	.st63{fill:#5D2611;}
	.st64{fill:#F8F1E4;}
	.st65{fill:#C04727;}
	.st66{fill:#91722F;}
	.st67{fill:#917853;}
	.st68{fill:#C0BDBB;}
	.st69{fill:#C15832;}
	.st70{fill:#926D3E;}
	.st71{fill:#927352;}
	.st72{fill:#C28B4F;}
	.st73{fill:#937A5E;}
	.st74{fill:#C39269;}
	.st75{fill:#946F3B;}
	.st76{fill:#966439;}
	.st77{fill:#98732B;}
	.st78{fill:#99806D;}
	.st79{fill:#99AEB2;}
	.st80{fill:#2E2010;}
	.st81{opacity:0.8;}
	.st82{fill:#FFFFFF;}
	.st83{fill:#643014;}
	.st84{fill:#65A844;}
	.st85{fill:#66472A;}
	.st86{fill:#666866;}
	.st87{fill:#9A652D;}
	.st88{fill:#9ACA42;}
	.st89{fill-rule:evenodd;clip-rule:evenodd;fill:#F5F3E2;}
	.st90{fill:#CAB252;}
	.st91{fill:#9C653E;}
	.st92{fill:#9C7B2F;}
	.st93{fill:#CBB5A2;}
	.st94{fill:#693215;}
	.st95{fill:#9E6D46;}
	.st96{fill:#9E8166;}
	.st97{fill:#30251A;}
	.st98{fill:#9F7150;}
	.st99{fill:#9F7235;}
	.st100{fill:#9F772B;}
	.st101{fill:#31312F;}
	.st102{fill:#344E5D;}
	.st103{fill:#357180;}
	.st104{fill:#6A5D56;}
	.st105{fill:#6F4D21;}
	.st106{fill:#6F933D;}
	.st107{fill:#D2D2D2;}
	.st108{fill:#D65228;}
	.st109{fill-rule:evenodd;clip-rule:evenodd;fill:#CAB252;}
	.st110{fill:#D7DABA;}
	.st111{fill:#3D3123;}
	.st112{fill:#3E3940;}
	.st113{fill:#A07649;}
	.st114{fill:#717272;}
	.st115{fill:#A0D2DC;}
	.st116{fill:#73903C;}
	.st117{fill:#A2D4DE;}
	.st118{fill:#A38876;}
	.st119{fill:#744A20;}
	.st120{fill:#A45B26;}
	.st121{fill:#A47E2D;}
	.st122{fill:#A48131;}
	.st123{fill:#763517;}
	.st124{fill:#765422;}
	.st125{fill:#A66C41;}
	.st126{fill:#A67F52;}
	.st127{fill:#775625;}
	.st128{fill:#A6BEC4;}
	.st129{fill:#DBB281;}
	.st130{fill:#795B25;}
	.st131{fill:#DCD478;}
	.st132{fill:#DCDCDB;}
	.st133{fill:#0E9554;}
	.st134{fill:#A9714A;}
	.st135{fill:#A9A9A8;}
	.st136{fill:#DFDEDD;}
]]>
</style>
<g>
	<g>
		<g>
			<g>
				<circle class="st88" cx="68.417" cy="68.417" r="63.333"/>
			</g>
		</g>
	</g>
	<g>
		<g>
			<g>
				<g>
					<g>
						<polygon class="st27" points="16.733,104.986 16.723,104.984 16.731,104.996 						"/>
					</g>
				</g>
				<g>
					<g>
						<path class="st52" d="M79.41,81.013l-20.604-1.057l-6.065,14.633c-10.591,8.088-36.008,10.396-36.008,10.396l-0.002,0.01
							c11.473,16.182,30.338,26.755,51.685,26.755c2.931,0,5.811-0.216,8.636-0.602C96.395,109.833,79.41,81.013,79.41,81.013z"/>
					</g>
				</g>
			</g>
			<g>
				<g>
					<path class="st118" d="M79.41,81.013c0,0,15.373,27.191-4.845,48.563c0,0-28.805-6.923-21.824-34.986l6.065-14.633
						L79.41,81.013z"/>
				</g>
			</g>
			<g>
				<g>
					<path class="st78" d="M76.962,80.749c0,0,11.477,22.715-3.647,38.702c0,0-21.524-7.554-16.303-28.549l4.538-10.945
						L76.962,80.749z"/>
				</g>
			</g>
			<g>
				<g>
					<path class="st46" d="M75.315,80.576c0,0,7.545,17.809-3.75,29.75c0,0-15.848-6.514-11.949-22.193l3.389-8.176L75.315,80.576z"
						/>
				</g>
			</g>
		</g>
		<g>
			<g>
				<g>
					<path class="st67" d="M80.535,71.234c0,0,3.246-4.111,6.49-4.544l7.571-2.811c0,0-0.433,4.325-2.378,7.354
						c-1.949,3.028-4.545,7.572-8.222,6.921l-5.625,4.544l-1.947-10.816L80.535,71.234z"/>
				</g>
			</g>
			<g>
				<g>
					<g>
						<polygon class="st14" points="72.917,67.553 96.066,50.896 103.854,38.348 101.473,32.506 101.69,24.501 107.098,37.266 
							114.021,28.829 108.614,40.943 102.772,52.625 78.758,70.798 						"/>
					</g>
				</g>
				<g>
					<g>
						<polygon class="st14" points="94.552,47.65 91.955,54.574 94.983,52.625 						"/>
					</g>
				</g>
				<g>
					<g>
						<polygon class="st14" points="78.542,65.39 84.381,52.625 75.944,65.822 						"/>
					</g>
				</g>
			</g>
			<g>
				<g>
					<path class="st67" d="M59.165,71.4c0,0-3.244-4.111-6.489-4.544l-7.572-2.811c0,0,0.434,4.325,2.381,7.354
						c1.946,3.028,4.544,7.572,8.221,6.921l5.623,4.544l1.947-10.816L59.165,71.4z"/>
				</g>
			</g>
			<g>
				<g>
					<g>
						<polygon class="st14" points="65.784,67.553 42.636,50.896 34.847,38.348 37.227,32.506 37.011,24.501 31.602,37.266 
							24.679,28.829 30.088,40.943 35.927,52.625 59.942,70.798 						"/>
					</g>
				</g>
				<g>
					<g>
						<polygon class="st14" points="44.151,47.65 46.747,54.574 43.718,52.625 						"/>
					</g>
				</g>
				<g>
					<g>
						<polygon class="st14" points="60.159,65.39 54.319,52.625 62.754,65.822 						"/>
					</g>
				</g>
			</g>
			<g>
				<g>
					<path class="st48" d="M79.735,71.645c-1.944-5.843-10.22-4.382-10.22-4.382l-0.329,0.008v-0.008c0,0-8.275-1.461-10.223,4.382
						c0,0-5.353,11.679,2.922,21.901c0,0,0.911,0.91,7.129,2.73l0.015,0.191c0.109-0.033,0.215-0.064,0.321-0.095
						c0.108,0.03,0.213,0.062,0.322,0.095l-0.004-0.188c6.235-1.822,7.147-2.734,7.147-2.734
						C85.092,83.324,79.735,71.645,79.735,71.645z"/>
				</g>
			</g>
			<g>
				<g>
					<g>
						<path class="st96" d="M74.865,93.567c0,5.083-2.472,4.462-5.814,4.462c-3.346,0-6.302,0.08-6.302-4.462
							c0-3.345,2.712-4.813,6.058-4.813C72.153,88.753,74.865,90.222,74.865,93.567z"/>
					</g>
				</g>
				<g>
					<g>
						<path class="st73" d="M74.865,92.352c0,3.345-2.388,4.216-5.733,4.216s-6.383-0.871-6.383-4.216s2.712-4.651,6.058-4.651
							C72.153,87.701,74.865,89.007,74.865,92.352z"/>
					</g>
				</g>
				<g>
					<g>
						<path class="st96" d="M75.374,92.941c0,1.436-2.589,3.168-6.215,3.168c-3.628,0-6.92-2.273-6.92-3.168
							c0-3.627,2.941-5.485,6.567-5.485C72.433,87.456,75.374,89.314,75.374,92.941z"/>
					</g>
				</g>
				<g>
					<g>
						<path class="st112" d="M72.681,90.365c0,0-2.171-0.873-3.982-0.873c-1.81,0-3.984,0.873-3.984,0.873
							c-0.622,0.53-0.622,1.389,0,1.92l2.854,2.428c0.623,0.529,1.636,0.529,2.259,0l2.854-2.428
							C73.307,91.753,73.307,90.895,72.681,90.365z"/>
					</g>
				</g>
				<g>
					<g>
						<g>
							<g>
								<path class="st96" d="M77.243,78.962c0,0.629-1.161,1.139-2.597,1.139c-1.432,0-2.594-0.51-2.594-1.139
									c0-0.625,1.162-1.135,2.594-1.135C76.082,77.828,77.243,78.337,77.243,78.962z"/>
							</g>
						</g>
						<g>
							<g>
								<path class="st112" d="M76.163,78.962c0,0.51-0.582,0.923-1.298,0.923c-0.718,0-1.298-0.413-1.298-0.923
									c0-0.506,0.58-0.919,1.298-0.919C75.581,78.043,76.163,78.457,76.163,78.962z"/>
							</g>
						</g>
					</g>
					<g>
						<g>
							<g>
								<path class="st96" d="M61.126,78.962c0,0.629,1.162,1.139,2.595,1.139c1.436,0,2.598-0.51,2.598-1.139
									c0-0.625-1.162-1.135-2.598-1.135C62.289,77.828,61.126,78.337,61.126,78.962z"/>
							</g>
						</g>
						<g>
							<g>
								<path class="st112" d="M62.208,78.962c0,0.51,0.583,0.923,1.3,0.923c0.716,0,1.298-0.413,1.298-0.923
									c0-0.506-0.582-0.919-1.298-0.919C62.791,78.043,62.208,78.457,62.208,78.962z"/>
							</g>
						</g>
					</g>
				</g>
			</g>
		</g>
	</g>
</g>
</svg>
