<?xml version="1.0" encoding="utf-8"?>
<!-- Generator: Adobe Illustrator 16.0.0, SVG Export Plug-In . SVG Version: 6.00 Build 0)  -->
<!DOCTYPE svg PUBLIC "-//W3C//DTD SVG 1.1//EN" "http://www.w3.org/Graphics/SVG/1.1/DTD/svg11.dtd">
<svg version="1.1" id="Layer_1" xmlns="http://www.w3.org/2000/svg" xmlns:xlink="http://www.w3.org/1999/xlink" x="0px" y="0px"
	 width="136.833px" height="136.834px" viewBox="0 0 136.833 136.834" style="enable-background:new 0 0 136.833 136.834;"
	 xml:space="preserve">
<style type="text/css">
<![CDATA[
	.st0{fill:#AA7435;}
	.st1{fill:#AA7853;}
	.st2{fill:#49341B;}
	.st3{fill:#AC7753;}
	.st4{fill:#49A0AE;}
	.st5{fill:#ACDDDE;}
	.st6{fill:#AD6227;}
	.st7{fill:#AE7C31;}
	.st8{fill:#AE8038;}
	.st9{fill:#AF7B59;}
	.st10{fill:#E0E8EA;}
	.st11{fill:#E17A2D;}
	.st12{fill:#159F57;}
	.st13{fill:#15AA63;}
	.st14{fill:#4B3937;}
	.st15{fill:#4CB648;}
	.st16{fill:#E79E2D;}
	.st17{fill:#E7E6E6;}
	.st18{fill:#4D8353;}
	.st19{fill:#E97E88;}
	.st20{fill:#4F412F;}
	.st21{fill:#805C26;}
	.st22{fill:#82623E;}
	.st23{fill:#82766E;}
	.st24{fill:#B28D5D;}
	.st25{fill:none;stroke:#49341B;stroke-width:5;stroke-linecap:round;stroke-linejoin:round;stroke-miterlimit:10;}
	.st26{fill:#B38669;}
	.st27{fill:#84654F;}
	.st28{fill:#84B340;}
	.st29{fill:#B58C4F;}
	.st30{fill:#1AAA5B;}
	.st31{fill:#886A4B;}
	.st32{fill:#1D1D1D;}
	.st33{fill:#896852;}
	.st34{fill:#ECEBE9;}
	.st35{fill:#B9803D;}
	.st36{fill:#1EAE64;}
	.st37{fill:#B9CD33;}
	.st38{fill:#EDC92C;}
	.st39{fill:#EF4F29;}
	.st40{fill:#EFEFEF;}
	.st41{fill:#53431F;}
	.st42{fill:#564635;}
	.st43{fill:#8A6638;}
	.st44{fill:#57564E;}
	.st45{fill:#57803A;}
	.st46{fill:#8B7363;}
	.st47{fill:#BB996C;}
	.st48{fill:#8C6D4A;}
	.st49{fill:#8C7B69;}
	.st50{fill:#BBBBBB;}
	.st51{fill:#8D6341;}
	.st52{fill:#8E6E56;}
	.st53{fill:#BE9041;}
	.st54{fill:#232323;}
	.st55{fill:#F3CED1;}
	.st56{fill:#F48C92;}
	.st57{fill:#F4C6C8;}
	.st58{fill:#F4DF81;}
	.st59{fill:#F4E028;}
	.st60{fill:#F5F3E2;}
	.st61{fill:#F5F6F7;}
	.st62{fill:#28B467;}
	.st63{fill:#5D2611;}
	.st64{fill:#F8F1E4;}
	.st65{fill:#C04727;}
	.st66{fill:#91722F;}
	.st67{fill:#917853;}
	.st68{fill:#C0BDBB;}
	.st69{fill:#C15832;}
	.st70{fill:#926D3E;}
	.st71{fill:#927352;}
	.st72{fill:#C28B4F;}
	.st73{fill:#937A5E;}
	.st74{fill:#C39269;}
	.st75{fill:#946F3B;}
	.st76{fill:#966439;}
	.st77{fill:#98732B;}
	.st78{fill:#99806D;}
	.st79{fill:#99AEB2;}
	.st80{fill:#2E2010;}
	.st81{opacity:0.8;}
	.st82{fill:#FFFFFF;}
	.st83{fill:#643014;}
	.st84{fill:#65A844;}
	.st85{fill:#66472A;}
	.st86{fill:#666866;}
	.st87{fill:#9A652D;}
	.st88{fill:#9ACA42;}
	.st89{fill-rule:evenodd;clip-rule:evenodd;fill:#F5F3E2;}
	.st90{fill:#CAB252;}
	.st91{fill:#9C653E;}
	.st92{fill:#9C7B2F;}
	.st93{fill:#CBB5A2;}
	.st94{fill:#693215;}
	.st95{fill:#9E6D46;}
	.st96{fill:#9E8166;}
	.st97{fill:#30251A;}
	.st98{fill:#9F7150;}
	.st99{fill:#9F7235;}
	.st100{fill:#9F772B;}
	.st101{fill:#31312F;}
	.st102{fill:#344E5D;}
	.st103{fill:#357180;}
	.st104{fill:#6A5D56;}
	.st105{fill:#6F4D21;}
	.st106{fill:#6F933D;}
	.st107{fill:#D2D2D2;}
	.st108{fill:#D65228;}
	.st109{fill-rule:evenodd;clip-rule:evenodd;fill:#CAB252;}
	.st110{fill:#D7DABA;}
	.st111{fill:#3D3123;}
	.st112{fill:#3E3940;}
	.st113{fill:#A07649;}
	.st114{fill:#717272;}
	.st115{fill:#A0D2DC;}
	.st116{fill:#73903C;}
	.st117{fill:#A2D4DE;}
	.st118{fill:#A38876;}
	.st119{fill:#744A20;}
	.st120{fill:#A45B26;}
	.st121{fill:#A47E2D;}
	.st122{fill:#A48131;}
	.st123{fill:#763517;}
	.st124{fill:#765422;}
	.st125{fill:#A66C41;}
	.st126{fill:#A67F52;}
	.st127{fill:#775625;}
	.st128{fill:#A6BEC4;}
	.st129{fill:#DBB281;}
	.st130{fill:#795B25;}
	.st131{fill:#DCD478;}
	.st132{fill:#DCDCDB;}
	.st133{fill:#0E9554;}
	.st134{fill:#A9714A;}
	.st135{fill:#A9A9A8;}
	.st136{fill:#DFDEDD;}
]]>
</style>
<g>
	<g>
		<g>
			<g>
				<g>
					<circle class="st5" cx="68.416" cy="68.396" r="63.333"/>
				</g>
			</g>
		</g>
		<g>
			<g>
				<path class="st88" d="M68.413,131.771c26.934,0,49.926-16.822,59.082-40.525C110.96,81.277,89.46,76.547,65.952,76.547
					c-21.617,0-41.535,4.004-57.459,12.398C17.019,113.854,40.616,131.771,68.413,131.771z"/>
			</g>
		</g>
	</g>
	<g>
		<path class="st25" d="M69.156,87.017"/>
	</g>
	<g>
		<g>
			<g>
				<path class="st28" d="M29.435,61.739c0-10.802,6.521-19.561,19.561-19.561s19.561,8.758,19.561,19.561
					s-7.063,19.56-19.561,19.56S29.435,72.542,29.435,61.739z"/>
			</g>
		</g>
		<g>
			<g>
				<path class="st28" d="M45.623,46.9c0-11.548,6.971-20.91,20.909-20.91c13.939,0,20.909,9.361,20.909,20.91
					c0,11.548-7.55,20.909-20.909,20.909S45.623,58.448,45.623,46.9z"/>
			</g>
		</g>
		<g>
			<g>
				<path class="st28" d="M40.227,63.763c0-11.548,8.769-20.91,26.306-20.91c17.536,0,26.306,9.361,26.306,20.91
					c0,11.548-9.499,20.909-26.306,20.909C49.725,84.672,40.227,75.311,40.227,63.763z"/>
			</g>
		</g>
		<g>
			<g>
				<path class="st28" d="M73.952,60.728c0-9.127,5.509-16.525,16.524-16.525s16.525,7.398,16.525,16.525
					s-5.968,16.525-16.525,16.525S73.952,69.854,73.952,60.728z"/>
			</g>
		</g>
		<g>
			<g>
				<path class="st25" d="M71.107,48.705"/>
			</g>
		</g>
		<g>
			<g>
				<path class="st25" d="M69.904,89.394"/>
			</g>
		</g>
		<g>
			<g>
				<g>
					<path class="st2" d="M67.432,109.63l1.097-62.14c0-1.257,1.019-2.276,2.276-2.276c1.257,0,2.276,1.02,2.276,2.276l1.096,62.14
						C74.177,111.492,67.432,111.492,67.432,109.63z"/>
				</g>
			</g>
		</g>
		<g>
			<g>
				<g>
					<path class="st2" d="M71.025,85.737c-0.401,0-0.809-0.094-1.188-0.292c-1.271-0.659-1.764-2.218-1.107-3.487
						c0,0,11.155-8.974,12.236-12.657c1.08-3.684,2.47-14.074,2.47-14.074c0.472-0.908,1.59-1.262,2.495-0.792
						c0.907,0.472,1.342,14.049-1.524,17.758c-2.866,3.71-11.081,12.145-11.081,12.145C72.864,85.227,71.96,85.737,71.025,85.737z"
						/>
				</g>
			</g>
		</g>
		<g>
			<g>
				<g>
					<path class="st2" d="M70.048,87.742c-0.975,0-1.932-0.474-2.511-1.35c0,0-9.099-12.063-12.111-15.467
						c-2.505-2.829-12.074-9.476-11.152-10.086c0.92-0.611,1.688-1.012,3.374-0.674c0,0,7.308,4.048,11.129,8.094
						c3.645,3.857,13.777,14.817,13.777,14.817c0.917,1.384,0.537,3.25-0.85,4.167C71.194,87.581,70.617,87.742,70.048,87.742z"/>
				</g>
			</g>
		</g>
	</g>
</g>
</svg>
