<?xml version="1.0" encoding="utf-8"?>
<!-- Generator: Adobe Illustrator 16.0.0, SVG Export Plug-In . SVG Version: 6.00 Build 0)  -->
<!DOCTYPE svg PUBLIC "-//W3C//DTD SVG 1.1//EN" "http://www.w3.org/Graphics/SVG/1.1/DTD/svg11.dtd">
<svg version="1.1" id="Layer_1" xmlns="http://www.w3.org/2000/svg" xmlns:xlink="http://www.w3.org/1999/xlink" x="0px" y="0px"
	 width="136.833px" height="136.834px" viewBox="0 0 136.833 136.834" style="enable-background:new 0 0 136.833 136.834;"
	 xml:space="preserve">
<style type="text/css">
<![CDATA[
	.st0{fill:#AA7435;}
	.st1{fill:#AA7853;}
	.st2{fill:#49341B;}
	.st3{fill:#AC7753;}
	.st4{fill:#49A0AE;}
	.st5{fill:#ACDDDE;}
	.st6{fill:#AD6227;}
	.st7{fill:#AE7C31;}
	.st8{fill:#AE8038;}
	.st9{fill:#AF7B59;}
	.st10{fill:#E0E8EA;}
	.st11{fill:#E17A2D;}
	.st12{fill:#159F57;}
	.st13{fill:#15AA63;}
	.st14{fill:#4B3937;}
	.st15{fill:#4CB648;}
	.st16{fill:#E79E2D;}
	.st17{fill:#E7E6E6;}
	.st18{fill:#4D8353;}
	.st19{fill:#E97E88;}
	.st20{fill:#4F412F;}
	.st21{fill:#805C26;}
	.st22{fill:#82623E;}
	.st23{fill:#82766E;}
	.st24{fill:#B28D5D;}
	.st25{fill:none;stroke:#49341B;stroke-width:5;stroke-linecap:round;stroke-linejoin:round;stroke-miterlimit:10;}
	.st26{fill:#B38669;}
	.st27{fill:#84654F;}
	.st28{fill:#84B340;}
	.st29{fill:#B58C4F;}
	.st30{fill:#1AAA5B;}
	.st31{fill:#886A4B;}
	.st32{fill:#1D1D1D;}
	.st33{fill:#896852;}
	.st34{fill:#ECEBE9;}
	.st35{fill:#B9803D;}
	.st36{fill:#1EAE64;}
	.st37{fill:#B9CD33;}
	.st38{fill:#EDC92C;}
	.st39{fill:#EF4F29;}
	.st40{fill:#EFEFEF;}
	.st41{fill:#53431F;}
	.st42{fill:#564635;}
	.st43{fill:#8A6638;}
	.st44{fill:#57564E;}
	.st45{fill:#57803A;}
	.st46{fill:#8B7363;}
	.st47{fill:#BB996C;}
	.st48{fill:#8C6D4A;}
	.st49{fill:#8C7B69;}
	.st50{fill:#BBBBBB;}
	.st51{fill:#8D6341;}
	.st52{fill:#8E6E56;}
	.st53{fill:#BE9041;}
	.st54{fill:#232323;}
	.st55{fill:#F3CED1;}
	.st56{fill:#F48C92;}
	.st57{fill:#F4C6C8;}
	.st58{fill:#F4DF81;}
	.st59{fill:#F4E028;}
	.st60{fill:#F5F3E2;}
	.st61{fill:#F5F6F7;}
	.st62{fill:#28B467;}
	.st63{fill:#5D2611;}
	.st64{fill:#F8F1E4;}
	.st65{fill:#C04727;}
	.st66{fill:#91722F;}
	.st67{fill:#917853;}
	.st68{fill:#C0BDBB;}
	.st69{fill:#C15832;}
	.st70{fill:#926D3E;}
	.st71{fill:#927352;}
	.st72{fill:#C28B4F;}
	.st73{fill:#937A5E;}
	.st74{fill:#C39269;}
	.st75{fill:#946F3B;}
	.st76{fill:#966439;}
	.st77{fill:#98732B;}
	.st78{fill:#99806D;}
	.st79{fill:#99AEB2;}
	.st80{fill:#2E2010;}
	.st81{opacity:0.8;}
	.st82{fill:#FFFFFF;}
	.st83{fill:#643014;}
	.st84{fill:#65A844;}
	.st85{fill:#66472A;}
	.st86{fill:#666866;}
	.st87{fill:#9A652D;}
	.st88{fill:#9ACA42;}
	.st89{fill-rule:evenodd;clip-rule:evenodd;fill:#F5F3E2;}
	.st90{fill:#CAB252;}
	.st91{fill:#9C653E;}
	.st92{fill:#9C7B2F;}
	.st93{fill:#CBB5A2;}
	.st94{fill:#693215;}
	.st95{fill:#9E6D46;}
	.st96{fill:#9E8166;}
	.st97{fill:#30251A;}
	.st98{fill:#9F7150;}
	.st99{fill:#9F7235;}
	.st100{fill:#9F772B;}
	.st101{fill:#31312F;}
	.st102{fill:#344E5D;}
	.st103{fill:#357180;}
	.st104{fill:#6A5D56;}
	.st105{fill:#6F4D21;}
	.st106{fill:#6F933D;}
	.st107{fill:#D2D2D2;}
	.st108{fill:#D65228;}
	.st109{fill-rule:evenodd;clip-rule:evenodd;fill:#CAB252;}
	.st110{fill:#D7DABA;}
	.st111{fill:#3D3123;}
	.st112{fill:#3E3940;}
	.st113{fill:#A07649;}
	.st114{fill:#717272;}
	.st115{fill:#A0D2DC;}
	.st116{fill:#73903C;}
	.st117{fill:#A2D4DE;}
	.st118{fill:#A38876;}
	.st119{fill:#744A20;}
	.st120{fill:#A45B26;}
	.st121{fill:#A47E2D;}
	.st122{fill:#A48131;}
	.st123{fill:#763517;}
	.st124{fill:#765422;}
	.st125{fill:#A66C41;}
	.st126{fill:#A67F52;}
	.st127{fill:#775625;}
	.st128{fill:#A6BEC4;}
	.st129{fill:#DBB281;}
	.st130{fill:#795B25;}
	.st131{fill:#DCD478;}
	.st132{fill:#DCDCDB;}
	.st133{fill:#0E9554;}
	.st134{fill:#A9714A;}
	.st135{fill:#A9A9A8;}
	.st136{fill:#DFDEDD;}
]]>
</style>
<g>
	<g>
		<g>
			<circle class="st88" cx="68.417" cy="68.417" r="63.333"/>
		</g>
	</g>
	<g>
		<g>
			<polygon class="st105" points="50.109,58.936 43.659,65.352 31.806,62.473 29.142,63.257 28.013,65.329 29.218,67.057 
				44.791,73.127 57.887,67.647 			"/>
		</g>
		<g>
			<g>
				<path class="st0" d="M32.997,63.114c-0.559,3.117-3.944,6.355-7.298,5.754c-3.354-0.6-5.406-4.813-4.849-7.931
					c0.559-3.118,3.362-3.106,6.717-2.505S33.555,59.995,32.997,63.114z"/>
			</g>
			<g>
				<path class="st35" d="M25.699,68.868c-3.354-0.6-5.406-4.813-4.849-7.931c0.559-3.118,3.362-3.106,6.717-2.505
					S29.052,69.469,25.699,68.868z"/>
			</g>
			<g>
				<path class="st72" d="M25.699,68.868c-3.354-0.6-5.406-4.813-4.849-7.931c0.735-4.105,6.717-2.505,6.717-2.505
					C24.803,62.528,25.699,68.868,25.699,68.868z"/>
			</g>
		</g>
		<g>
			<path class="st47" d="M62.549,74.036c5.248,1.697,23,38.008,7.523,27.262c-5.192-3.604-11.123-9.754-17.704-19.746l-2.887-6.334
				C49.482,75.217,57.299,72.337,62.549,74.036z"/>
		</g>
		<g>
			<path class="st21" d="M55.259,48.499c0,0,6.76,1.716,13.333,8.698c0,0,5.224,0.431,10.474,2.128
				c5.248,1.697,23.368,13.271,15.396,40.871c0,0-8.913,11.848-24.39,1.102c-5.192-3.604-3.278-10.094-8.378-14.037
				c-5.099-3.942-12.232-12.035-12.232-12.035l-5.61-12.362L55.259,48.499z"/>
		</g>
		<g>
			<path class="st21" d="M109.664,42.086c0,0-16.479-5.221-21.002,7.346C84.19,61.86,97.58,68.698,97.792,81.608
				c0.154,9.47-0.512,8.49-4.084,10.123C86.328,95.1,79.21,105.037,79.21,105.037s40.281,8.04,36.628-22.721
				c-1.409-11.863-16.003-17.758-13.135-25.321c2.869-7.563,6.745-3.84,10.729-2.117C118.531,57.083,115.691,43.67,109.664,42.086z"
				/>
		</g>
		<g>
			<path class="st47" d="M100.853,54.643c-5.053,12.205,7.314,14.996,11.807,27.104c2.098,5.654,2.246,10.011,1.098,13.354
				l0.059,0.733c1.848-3.348,2.709-7.752,2.022-13.519c-1.409-11.863-16.003-17.758-13.135-25.321
				c2.869-7.563,6.745-3.84,10.729-2.117c1.876,0.813,2.677-0.49,2.64-2.541C116.072,52.336,103.966,47.125,100.853,54.643z"/>
		</g>
		<g>
			<polygon class="st21" points="47.765,63.564 41.316,69.98 29.463,67.101 26.798,67.887 25.671,69.957 26.876,71.686 
				42.448,77.755 55.544,72.276 			"/>
		</g>
		<g>
			<path class="st21" d="M71.963,79.255c-5.254-0.544-11.389,12.853-1.941,22.116c0,0-1.92,0.327-2.577,0.296
				c-0.657-0.03-2.074-0.448-2.074-0.448l-2.667,0.834l-0.5,2.332c0,0,5.496,1.904,10.165,2.202s15.47,1.003,18.609-5.25
				C94.117,95.084,78.654,79.949,71.963,79.255z"/>
		</g>
		<g>
			<g>
				<g>
					<path class="st124" d="M53.814,37.016c2.305-2.973,6.943-3.237,7.738-2.621c1.022,0.792,1.153,4.752-1.151,7.725
						c-2.302,2.975-4.326,2.79-5.995,1.498C52.738,42.325,51.511,39.989,53.814,37.016z"/>
				</g>
			</g>
			<g>
				<g>
					<path class="st21" d="M46.552,61.411c-10.67-1.91-17.54-13.404-17.029-16.258c0.657-3.668,10.593-9.294,21.264-7.383
						c10.669,1.91,12.906,7.32,11.835,13.309C61.548,57.067,57.223,63.323,46.552,61.411z"/>
				</g>
			</g>
			<g>
				<g>
					<path class="st124" d="M29.845,47.152c-0.293-0.843-0.404-1.534-0.322-1.999c0.138-0.768,0.68-1.618,1.548-2.469
						C34.362,39.463,31.347,51.491,29.845,47.152z"/>
				</g>
			</g>
			<g>
				<g>
					<path class="st75" d="M46.394,48.047c-2.565-0.459-4.17-3.479-4.034-4.236c0.175-0.977,2.595-2.512,5.161-2.053
						c2.564,0.461,3.08,1.885,2.795,3.477C50.03,46.83,48.959,48.507,46.394,48.047z"/>
				</g>
			</g>
			<g>
				<g>
					<path class="st101" d="M46.418,47.181c-2.077-0.374-3.413-2.61-3.313-3.164c0.128-0.714,2.061-1.809,4.138-1.437
						c2.075,0.371,2.511,1.424,2.302,2.59C49.336,46.335,48.495,47.551,46.418,47.181z"/>
				</g>
			</g>
			<g>
				<g>
					<path class="st32" d="M45.766,47.065c-2.076-0.373-1.253-4.973,0.824-4.602c2.075,0.371,2.511,1.424,2.302,2.59
						C48.684,46.219,47.842,47.436,45.766,47.065z"/>
				</g>
			</g>
			<g>
				<g>
					<path class="st21" d="M50.37,35.184c1.434-3.75,6.091-5.453,7.094-5.07c1.288,0.494,2.646,4.498,1.212,8.248
						c-1.434,3.75-3.558,4.189-5.661,3.385C50.91,40.94,48.934,38.934,50.37,35.184z"/>
				</g>
			</g>
		</g>
	</g>
</g>
</svg>
