<?xml version="1.0" encoding="utf-8"?>
<!-- Generator: Adobe Illustrator 16.0.0, SVG Export Plug-In . SVG Version: 6.00 Build 0)  -->
<!DOCTYPE svg PUBLIC "-//W3C//DTD SVG 1.1//EN" "http://www.w3.org/Graphics/SVG/1.1/DTD/svg11.dtd">
<svg version="1.1" id="Layer_1" xmlns="http://www.w3.org/2000/svg" xmlns:xlink="http://www.w3.org/1999/xlink" x="0px" y="0px"
	 width="136.833px" height="136.833px" viewBox="0 0 136.833 136.833" style="enable-background:new 0 0 136.833 136.833;"
	 xml:space="preserve">
<style type="text/css">
<![CDATA[
	.st0{fill:#AA7435;}
	.st1{fill:#AA7853;}
	.st2{fill:#49341B;}
	.st3{fill:#AC7753;}
	.st4{fill:#49A0AE;}
	.st5{fill:#ACDDDE;}
	.st6{fill:#AD6227;}
	.st7{fill:#AE7C31;}
	.st8{fill:#AE8038;}
	.st9{fill:#AF7B59;}
	.st10{fill:#E0E8EA;}
	.st11{fill:#E17A2D;}
	.st12{fill:#159F57;}
	.st13{fill:#15AA63;}
	.st14{fill:#4B3937;}
	.st15{fill:#4CB648;}
	.st16{fill:#E79E2D;}
	.st17{fill:#E7E6E6;}
	.st18{fill:#4D8353;}
	.st19{fill:#E97E88;}
	.st20{fill:#4F412F;}
	.st21{fill:#805C26;}
	.st22{fill:#82623E;}
	.st23{fill:#82766E;}
	.st24{fill:#B28D5D;}
	.st25{fill:none;stroke:#49341B;stroke-width:5;stroke-linecap:round;stroke-linejoin:round;stroke-miterlimit:10;}
	.st26{fill:#B38669;}
	.st27{fill:#84654F;}
	.st28{fill:#84B340;}
	.st29{fill:#B58C4F;}
	.st30{fill:#1AAA5B;}
	.st31{fill:#886A4B;}
	.st32{fill:#1D1D1D;}
	.st33{fill:#896852;}
	.st34{fill:#ECEBE9;}
	.st35{fill:#B9803D;}
	.st36{fill:#1EAE64;}
	.st37{fill:#B9CD33;}
	.st38{fill:#EDC92C;}
	.st39{fill:#EF4F29;}
	.st40{fill:#EFEFEF;}
	.st41{fill:#53431F;}
	.st42{fill:#564635;}
	.st43{fill:#8A6638;}
	.st44{fill:#57564E;}
	.st45{fill:#57803A;}
	.st46{fill:#8B7363;}
	.st47{fill:#BB996C;}
	.st48{fill:#8C6D4A;}
	.st49{fill:#8C7B69;}
	.st50{fill:#BBBBBB;}
	.st51{fill:#8D6341;}
	.st52{fill:#8E6E56;}
	.st53{fill:#BE9041;}
	.st54{fill:#232323;}
	.st55{fill:#F3CED1;}
	.st56{fill:#F48C92;}
	.st57{fill:#F4C6C8;}
	.st58{fill:#F4DF81;}
	.st59{fill:#F4E028;}
	.st60{fill:#F5F3E2;}
	.st61{fill:#F5F6F7;}
	.st62{fill:#28B467;}
	.st63{fill:#5D2611;}
	.st64{fill:#F8F1E4;}
	.st65{fill:#C04727;}
	.st66{fill:#91722F;}
	.st67{fill:#917853;}
	.st68{fill:#C0BDBB;}
	.st69{fill:#C15832;}
	.st70{fill:#926D3E;}
	.st71{fill:#927352;}
	.st72{fill:#C28B4F;}
	.st73{fill:#937A5E;}
	.st74{fill:#C39269;}
	.st75{fill:#946F3B;}
	.st76{fill:#966439;}
	.st77{fill:#98732B;}
	.st78{fill:#99806D;}
	.st79{fill:#99AEB2;}
	.st80{fill:#2E2010;}
	.st81{opacity:0.8;}
	.st82{fill:#FFFFFF;}
	.st83{fill:#643014;}
	.st84{fill:#65A844;}
	.st85{fill:#66472A;}
	.st86{fill:#666866;}
	.st87{fill:#9A652D;}
	.st88{fill:#9ACA42;}
	.st89{fill-rule:evenodd;clip-rule:evenodd;fill:#F5F3E2;}
	.st90{fill:#CAB252;}
	.st91{fill:#9C653E;}
	.st92{fill:#9C7B2F;}
	.st93{fill:#CBB5A2;}
	.st94{fill:#693215;}
	.st95{fill:#9E6D46;}
	.st96{fill:#9E8166;}
	.st97{fill:#30251A;}
	.st98{fill:#9F7150;}
	.st99{fill:#9F7235;}
	.st100{fill:#9F772B;}
	.st101{fill:#31312F;}
	.st102{fill:#344E5D;}
	.st103{fill:#357180;}
	.st104{fill:#6A5D56;}
	.st105{fill:#6F4D21;}
	.st106{fill:#6F933D;}
	.st107{fill:#D2D2D2;}
	.st108{fill:#D65228;}
	.st109{fill-rule:evenodd;clip-rule:evenodd;fill:#CAB252;}
	.st110{fill:#D7DABA;}
	.st111{fill:#3D3123;}
	.st112{fill:#3E3940;}
	.st113{fill:#A07649;}
	.st114{fill:#717272;}
	.st115{fill:#A0D2DC;}
	.st116{fill:#73903C;}
	.st117{fill:#A2D4DE;}
	.st118{fill:#A38876;}
	.st119{fill:#744A20;}
	.st120{fill:#A45B26;}
	.st121{fill:#A47E2D;}
	.st122{fill:#A48131;}
	.st123{fill:#763517;}
	.st124{fill:#765422;}
	.st125{fill:#A66C41;}
	.st126{fill:#A67F52;}
	.st127{fill:#775625;}
	.st128{fill:#A6BEC4;}
	.st129{fill:#DBB281;}
	.st130{fill:#795B25;}
	.st131{fill:#DCD478;}
	.st132{fill:#DCDCDB;}
	.st133{fill:#0E9554;}
	.st134{fill:#A9714A;}
	.st135{fill:#A9A9A8;}
	.st136{fill:#DFDEDD;}
]]>
</style>
<g>
	<g>
		<g>
			<path class="st58" d="M5.084,68.417c0-34.98,28.356-63.334,63.331-63.334c34.979,0,63.334,28.354,63.334,63.334
				c0,34.977-28.355,63.332-63.334,63.332C33.44,131.75,5.084,103.394,5.084,68.417z"/>
		</g>
	</g>
	<g>
		<g>
			<path class="st109" d="M66.801,73.739c-9.986,0-11.727-32.436-7.25-36.912c0,0,4.523,3.232,7.25,3.232
				c2.828,0,7.47-2.941,7.47-2.941C80.178,43.025,76.789,73.739,66.801,73.739z"/>
		</g>
		<g>
			<path class="st109" d="M66.801,30.704c-0.503,0-1.937-1.966-2.385-1.966c-4.907,0-5.916,5.983-4.865,7.035
				c0,0,4.523,3.539,7.25,3.539c2.828,0,7.47-3.187,7.47-3.187c0.975-0.976-0.282-7.359-5.027-7.359
				C68.703,28.765,67.426,30.704,66.801,30.704z"/>
		</g>
		<g>
			<path class="st90" d="M94.179,35.255c-0.054-0.079-0.148-0.119-0.241-0.104l-6.757,1.147c-0.093,0.016-0.168,0.084-0.193,0.176
				l-1.52,5.729l-11.756-0.237c-0.063,0-0.135,0.026-0.182,0.076c-0.046,0.05-0.069,0.117-0.063,0.185l0.241,2.896
				c0.01,0.117,0.102,0.209,0.219,0.22l13.151,1.206c0.008,0.001,0.015,0.001,0.022,0.001c0.082,0,0.159-0.042,0.204-0.112
				l6.877-10.92C94.233,35.438,94.231,35.334,94.179,35.255z"/>
		</g>
		<g>
			<path class="st109" d="M90.277,25.956c0,0,2.03,5.725-0.218,7.113c-2.248,1.387-6.357-3.053-6.357-3.053
				c-0.533,3.2,1.547,6.57,4.646,7.528c3.1,0.957,6.044-0.86,6.577-4.06C95.458,30.284,93.377,26.913,90.277,25.956z"/>
		</g>
		<g>
			<g>
				<path class="st90" d="M40.27,35.255c0.052-0.079,0.147-0.119,0.241-0.104l6.756,1.147c0.094,0.016,0.169,0.084,0.193,0.176
					l1.52,5.729l11.756-0.237c0.063,0,0.135,0.026,0.181,0.076c0.048,0.05,0.071,0.117,0.065,0.185l-0.242,2.896
					c-0.009,0.117-0.101,0.209-0.218,0.22l-13.152,1.206c-0.008,0.001-0.015,0.001-0.021,0.001c-0.083,0-0.16-0.042-0.205-0.112
					l-6.877-10.92C40.215,35.438,40.216,35.334,40.27,35.255z"/>
			</g>
			<g>
				<path class="st109" d="M44.17,25.956c0,0-2.03,5.725,0.218,7.113c2.249,1.387,6.358-3.053,6.358-3.053
					c0.533,3.2-1.547,6.57-4.646,7.528c-3.1,0.957-6.044-0.86-6.576-4.06C38.99,30.284,41.07,26.913,44.17,25.956z"/>
			</g>
		</g>
		<g>
			<circle class="st109" cx="53.405" cy="98.305" r="5.654"/>
		</g>
		<g>
			<path class="st109" d="M48.769,95.634c0,0,2.228-8.307,6.078-9.522c0,0-3.444,5.47,2.43,10.534L48.769,95.634z"/>
		</g>
		<g>
			
				<ellipse transform="matrix(0.9205 -0.3908 0.3908 0.9205 -22.0049 32.0994)" class="st90" cx="67.874" cy="70.121" rx="8.003" ry="7.359"/>
		</g>
		<g>
			
				<ellipse transform="matrix(0.8521 -0.5234 0.5234 0.8521 -33.1406 51.2868)" class="st90" cx="74.179" cy="84.284" rx="6.817" ry="9.923"/>
		</g>
		<g>
			
				<ellipse transform="matrix(0.9372 0.3488 -0.3488 0.9372 38.8961 -20.9412)" class="st90" cx="77.605" cy="97.55" rx="5.495" ry="5.856"/>
		</g>
		<g>
			
				<ellipse transform="matrix(0.0657 0.9978 -0.9978 0.0657 172.1684 27.1651)" class="st90" cx="71.578" cy="105.523" rx="5.149" ry="5.329"/>
		</g>
		<g>
			
				<ellipse transform="matrix(-0.4099 0.9121 -0.9121 -0.4099 190.7746 95.5432)" class="st90" cx="64.483" cy="109.479" rx="4.113" ry="4.234"/>
		</g>
		<g>
			<path class="st90" d="M56.168,108.623c-1.704-1.203-2.106-3.567-0.897-5.28c1.208-1.711,3.569-2.124,5.274-0.92
				c1.704,1.201,2.106,3.566,0.897,5.278C60.234,109.413,57.873,109.826,56.168,108.623z"/>
		</g>
		<g>
			<g>
				<path class="st90" d="M68.489,50.09c1.744-0.35,3.484-0.547,5.226-0.705c1.741-0.153,3.481-0.245,5.222-0.29
					c1.738-0.043,3.477-0.05,5.216-0.003c1.737,0.043,3.476,0.125,5.214,0.263l-0.842,0.44c0.317-0.391,0.641-0.777,0.971-1.159
					c0.332-0.381,0.668-0.758,1.016-1.129c0.693-0.74,1.41-1.466,2.21-2.135c-0.321,0.992-0.729,1.927-1.156,2.847
					c-0.215,0.46-0.439,0.914-0.67,1.362c-0.231,0.449-0.47,0.893-0.714,1.333c-0.144,0.261-0.407,0.415-0.686,0.431l-0.155,0.009
					c-1.739,0.093-3.479,0.131-5.218,0.131c-1.74,0.003-3.477-0.048-5.216-0.136c-1.737-0.088-3.475-0.224-5.211-0.422
					C71.959,50.726,70.224,50.484,68.489,50.09z"/>
			</g>
			<g>
				<path class="st90" d="M69.565,52.79c1.774-0.125,3.527-0.1,5.273-0.035c1.746,0.069,3.483,0.199,5.214,0.375
					c1.731,0.179,3.457,0.393,5.175,0.661c1.719,0.265,3.432,0.567,5.139,0.924l-0.891,0.33c0.364-0.348,0.733-0.689,1.11-1.026
					c0.378-0.336,0.759-0.668,1.15-0.991c0.783-0.646,1.586-1.274,2.465-1.837c-0.446,0.943-0.969,1.819-1.51,2.678
					c-0.271,0.429-0.553,0.849-0.838,1.266c-0.286,0.416-0.579,0.826-0.877,1.231c-0.177,0.24-0.458,0.359-0.735,0.34l-0.155-0.011
					c-1.738-0.129-3.469-0.313-5.192-0.534c-1.725-0.218-3.442-0.49-5.156-0.797c-1.711-0.309-3.417-0.665-5.115-1.081
					C72.927,53.861,71.236,53.401,69.565,52.79z"/>
			</g>
			<g>
				<path class="st90" d="M69.599,56.229c1.777,0.032,3.52,0.211,5.255,0.431c1.733,0.223,3.452,0.505,5.16,0.834
					c1.709,0.331,3.409,0.696,5.097,1.114c1.689,0.415,3.369,0.868,5.036,1.374l-0.915,0.25c0.393-0.314,0.792-0.622,1.196-0.924
					c0.405-0.301,0.814-0.598,1.233-0.885c0.836-0.574,1.691-1.13,2.617-1.612c-0.527,0.9-1.126,1.726-1.741,2.534
					c-0.308,0.403-0.624,0.797-0.945,1.187c-0.321,0.39-0.649,0.772-0.982,1.149c-0.198,0.223-0.486,0.318-0.761,0.275l-0.155-0.026
					c-1.72-0.282-3.427-0.616-5.125-0.989c-1.699-0.37-3.386-0.792-5.065-1.25c-1.678-0.458-3.346-0.964-4.999-1.528
					C72.852,57.594,71.207,56.987,69.599,56.229z"/>
			</g>
			<g>
				<path class="st90" d="M69.706,59.109c1.755,0.286,3.453,0.714,5.139,1.178c1.684,0.469,3.345,0.996,4.988,1.565
					c1.644,0.573,3.273,1.177,4.884,1.833c1.612,0.651,3.21,1.341,4.787,2.082l-0.941,0.116c0.435-0.255,0.873-0.503,1.316-0.743
					c0.444-0.24,0.893-0.475,1.347-0.7c0.911-0.449,1.837-0.875,2.822-1.22c-0.651,0.815-1.361,1.546-2.087,2.257
					c-0.361,0.355-0.732,0.7-1.105,1.04c-0.374,0.338-0.754,0.67-1.137,0.996c-0.228,0.193-0.527,0.245-0.792,0.163l-0.149-0.048
					c-1.662-0.524-3.305-1.1-4.931-1.713c-1.629-0.61-3.238-1.27-4.834-1.962c-1.595-0.694-3.173-1.433-4.729-2.229
					C72.729,60.925,71.189,60.088,69.706,59.109z"/>
			</g>
			<g>
				<path class="st90" d="M65.199,50.09c-1.734,0.394-3.471,0.636-5.207,0.837c-1.735,0.198-3.473,0.333-5.21,0.422
					c-1.738,0.087-3.477,0.139-5.216,0.136c-1.738,0-3.478-0.038-5.218-0.131l-0.15-0.009c-0.298-0.016-0.554-0.19-0.69-0.431
					c-0.245-0.44-0.483-0.884-0.714-1.333c-0.229-0.449-0.455-0.902-0.669-1.362c-0.43-0.92-0.835-1.855-1.158-2.847
					c0.8,0.668,1.517,1.395,2.212,2.135c0.347,0.371,0.683,0.748,1.014,1.129c0.332,0.382,0.654,0.769,0.972,1.159l-0.841-0.44
					c1.737-0.137,3.475-0.22,5.213-0.263c1.738-0.047,3.478-0.04,5.217,0.003c1.74,0.045,3.479,0.137,5.22,0.29
					C61.714,49.542,63.455,49.74,65.199,50.09z"/>
			</g>
			<g>
				<path class="st90" d="M64.122,52.79c-1.669,0.611-3.36,1.072-5.058,1.494c-1.696,0.416-3.402,0.771-5.115,1.081
					c-1.712,0.307-3.429,0.579-5.155,0.797c-1.725,0.222-3.454,0.405-5.191,0.534l-0.15,0.011c-0.298,0.022-0.573-0.118-0.739-0.34
					c-0.299-0.405-0.593-0.815-0.878-1.231c-0.286-0.417-0.565-0.836-0.837-1.266c-0.542-0.858-1.065-1.734-1.511-2.678
					c0.879,0.563,1.681,1.191,2.465,1.837c0.392,0.323,0.773,0.655,1.149,0.991c0.377,0.336,0.747,0.678,1.111,1.026l-0.89-0.33
					c1.705-0.357,3.418-0.659,5.137-0.924c1.718-0.268,3.444-0.481,5.176-0.661c1.729-0.176,3.468-0.307,5.214-0.375
					C60.597,52.69,62.35,52.665,64.122,52.79z"/>
			</g>
			<g>
				<path class="st90" d="M64.091,56.229c-1.609,0.757-3.253,1.364-4.905,1.933c-1.655,0.564-3.322,1.07-5.001,1.528
					c-1.679,0.457-3.366,0.88-5.064,1.25c-1.699,0.373-3.406,0.707-5.126,0.989l-0.148,0.024c-0.294,0.048-0.582-0.067-0.767-0.273
					c-0.333-0.377-0.661-0.759-0.982-1.149c-0.321-0.389-0.639-0.783-0.946-1.187c-0.615-0.808-1.213-1.634-1.74-2.534
					c0.925,0.482,1.779,1.038,2.617,1.612c0.418,0.287,0.828,0.584,1.232,0.885c0.405,0.302,0.803,0.61,1.197,0.924l-0.916-0.25
					c1.668-0.506,3.348-0.959,5.036-1.374c1.688-0.418,3.388-0.783,5.097-1.114c1.709-0.329,3.428-0.612,5.161-0.834
					C60.569,56.441,62.313,56.262,64.091,56.229z"/>
			</g>
			<g>
				<path class="st90" d="M63.983,59.109c-1.484,0.979-3.024,1.816-4.578,2.616c-1.557,0.796-3.134,1.535-4.729,2.229
					c-1.597,0.692-3.205,1.352-4.834,1.962c-1.628,0.613-3.269,1.188-4.93,1.713l-0.145,0.045c-0.285,0.091-0.585,0.018-0.798-0.16
					c-0.383-0.325-0.764-0.657-1.137-0.996c-0.374-0.34-0.743-0.685-1.106-1.04c-0.725-0.711-1.435-1.442-2.086-2.257
					c0.984,0.345,1.91,0.771,2.82,1.22c0.456,0.225,0.904,0.459,1.348,0.7c0.444,0.24,0.883,0.488,1.317,0.743l-0.941-0.116
					c1.577-0.741,3.174-1.43,4.787-2.082c1.609-0.656,3.241-1.261,4.883-1.833c1.645-0.569,3.306-1.097,4.988-1.565
					C60.528,59.823,62.228,59.395,63.983,59.109z"/>
			</g>
		</g>
	</g>
</g>
</svg>
