<?xml version="1.0" encoding="utf-8"?>
<!-- Generator: Adobe Illustrator 16.0.0, SVG Export Plug-In . SVG Version: 6.00 Build 0)  -->
<!DOCTYPE svg PUBLIC "-//W3C//DTD SVG 1.1//EN" "http://www.w3.org/Graphics/SVG/1.1/DTD/svg11.dtd">
<svg version="1.1" id="Layer_1" xmlns="http://www.w3.org/2000/svg" xmlns:xlink="http://www.w3.org/1999/xlink" x="0px" y="0px"
	 width="136.833px" height="136.834px" viewBox="0 0 136.833 136.834" style="enable-background:new 0 0 136.833 136.834;"
	 xml:space="preserve">
<style type="text/css">
<![CDATA[
	.st0{fill:#AA7435;}
	.st1{fill:#AA7853;}
	.st2{fill:#49341B;}
	.st3{fill:#AC7753;}
	.st4{fill:#49A0AE;}
	.st5{fill:#ACDDDE;}
	.st6{fill:#AD6227;}
	.st7{fill:#AE7C31;}
	.st8{fill:#AE8038;}
	.st9{fill:#AF7B59;}
	.st10{fill:#E0E8EA;}
	.st11{fill:#E17A2D;}
	.st12{fill:#159F57;}
	.st13{fill:#15AA63;}
	.st14{fill:#4B3937;}
	.st15{fill:#4CB648;}
	.st16{fill:#E79E2D;}
	.st17{fill:#E7E6E6;}
	.st18{fill:#4D8353;}
	.st19{fill:#E97E88;}
	.st20{fill:#4F412F;}
	.st21{fill:#805C26;}
	.st22{fill:#82623E;}
	.st23{fill:#82766E;}
	.st24{fill:#B28D5D;}
	.st25{fill:none;stroke:#49341B;stroke-width:5;stroke-linecap:round;stroke-linejoin:round;stroke-miterlimit:10;}
	.st26{fill:#B38669;}
	.st27{fill:#84654F;}
	.st28{fill:#84B340;}
	.st29{fill:#B58C4F;}
	.st30{fill:#1AAA5B;}
	.st31{fill:#886A4B;}
	.st32{fill:#1D1D1D;}
	.st33{fill:#896852;}
	.st34{fill:#ECEBE9;}
	.st35{fill:#B9803D;}
	.st36{fill:#1EAE64;}
	.st37{fill:#B9CD33;}
	.st38{fill:#EDC92C;}
	.st39{fill:#EF4F29;}
	.st40{fill:#EFEFEF;}
	.st41{fill:#53431F;}
	.st42{fill:#564635;}
	.st43{fill:#8A6638;}
	.st44{fill:#57564E;}
	.st45{fill:#57803A;}
	.st46{fill:#8B7363;}
	.st47{fill:#BB996C;}
	.st48{fill:#8C6D4A;}
	.st49{fill:#8C7B69;}
	.st50{fill:#BBBBBB;}
	.st51{fill:#8D6341;}
	.st52{fill:#8E6E56;}
	.st53{fill:#BE9041;}
	.st54{fill:#232323;}
	.st55{fill:#F3CED1;}
	.st56{fill:#F48C92;}
	.st57{fill:#F4C6C8;}
	.st58{fill:#F4DF81;}
	.st59{fill:#F4E028;}
	.st60{fill:#F5F3E2;}
	.st61{fill:#F5F6F7;}
	.st62{fill:#28B467;}
	.st63{fill:#5D2611;}
	.st64{fill:#F8F1E4;}
	.st65{fill:#C04727;}
	.st66{fill:#91722F;}
	.st67{fill:#917853;}
	.st68{fill:#C0BDBB;}
	.st69{fill:#C15832;}
	.st70{fill:#926D3E;}
	.st71{fill:#927352;}
	.st72{fill:#C28B4F;}
	.st73{fill:#937A5E;}
	.st74{fill:#C39269;}
	.st75{fill:#946F3B;}
	.st76{fill:#966439;}
	.st77{fill:#98732B;}
	.st78{fill:#99806D;}
	.st79{fill:#99AEB2;}
	.st80{fill:#2E2010;}
	.st81{opacity:0.8;}
	.st82{fill:#FFFFFF;}
	.st83{fill:#643014;}
	.st84{fill:#65A844;}
	.st85{fill:#66472A;}
	.st86{fill:#666866;}
	.st87{fill:#9A652D;}
	.st88{fill:#9ACA42;}
	.st89{fill-rule:evenodd;clip-rule:evenodd;fill:#F5F3E2;}
	.st90{fill:#CAB252;}
	.st91{fill:#9C653E;}
	.st92{fill:#9C7B2F;}
	.st93{fill:#CBB5A2;}
	.st94{fill:#693215;}
	.st95{fill:#9E6D46;}
	.st96{fill:#9E8166;}
	.st97{fill:#30251A;}
	.st98{fill:#9F7150;}
	.st99{fill:#9F7235;}
	.st100{fill:#9F772B;}
	.st101{fill:#31312F;}
	.st102{fill:#344E5D;}
	.st103{fill:#357180;}
	.st104{fill:#6A5D56;}
	.st105{fill:#6F4D21;}
	.st106{fill:#6F933D;}
	.st107{fill:#D2D2D2;}
	.st108{fill:#D65228;}
	.st109{fill-rule:evenodd;clip-rule:evenodd;fill:#CAB252;}
	.st110{fill:#D7DABA;}
	.st111{fill:#3D3123;}
	.st112{fill:#3E3940;}
	.st113{fill:#A07649;}
	.st114{fill:#717272;}
	.st115{fill:#A0D2DC;}
	.st116{fill:#73903C;}
	.st117{fill:#A2D4DE;}
	.st118{fill:#A38876;}
	.st119{fill:#744A20;}
	.st120{fill:#A45B26;}
	.st121{fill:#A47E2D;}
	.st122{fill:#A48131;}
	.st123{fill:#763517;}
	.st124{fill:#765422;}
	.st125{fill:#A66C41;}
	.st126{fill:#A67F52;}
	.st127{fill:#775625;}
	.st128{fill:#A6BEC4;}
	.st129{fill:#DBB281;}
	.st130{fill:#795B25;}
	.st131{fill:#DCD478;}
	.st132{fill:#DCDCDB;}
	.st133{fill:#0E9554;}
	.st134{fill:#A9714A;}
	.st135{fill:#A9A9A8;}
	.st136{fill:#DFDEDD;}
]]>
</style>
<g>
	<g>
		<g>
			<g>
				<g>
					<circle class="st5" cx="68.416" cy="68.396" r="63.333"/>
				</g>
			</g>
		</g>
		<g>
			<g>
				<path class="st37" d="M68.413,131.771c26.934,0,49.926-16.822,59.082-40.525C110.96,81.277,89.46,76.547,65.952,76.547
					c-21.617,0-41.535,4.004-57.459,12.398C17.019,113.854,40.616,131.771,68.413,131.771z"/>
			</g>
		</g>
	</g>
	<g>
		<path class="st25" d="M69.156,87.017"/>
	</g>
	<g>
		<g>
			<g>
				<path class="st45" d="M26.229,56.98c0-4.444,3.761-8.047,11.284-8.047s11.284,3.604,11.284,8.047
					c0,4.445-4.076,8.049-11.284,8.049C30.305,65.029,26.229,61.425,26.229,56.98z"/>
			</g>
		</g>
		<g>
			<g>
				<path class="st45" d="M41.684,52.811c0-5.828,4.933-10.554,14.798-10.554c9.867,0,14.798,4.727,14.798,10.554
					c0,5.828-5.343,10.556-14.798,10.556S41.684,58.639,41.684,52.811z"/>
			</g>
		</g>
		<g>
			<g>
				<path class="st45" d="M59.274,52.663c0-6.587,5.575-11.928,16.725-11.928c11.15,0,16.725,5.341,16.725,11.928
					s-6.04,11.929-16.725,11.929S59.274,59.25,59.274,52.663z"/>
			</g>
		</g>
		<g>
			<g>
				<path class="st45" d="M81.427,61.982c0-6.929,5.864-12.547,17.593-12.547s17.594,5.618,17.594,12.547
					c0,6.929-6.354,12.547-17.594,12.547C87.782,74.529,81.427,68.911,81.427,61.982z"/>
			</g>
		</g>
		<g>
			<g>
				<path class="st25" d="M83.338,52.112"/>
			</g>
		</g>
		<g>
			<g>
				<path class="st25" d="M69.335,84.466"/>
			</g>
		</g>
		<g>
			<g>
				<g>
					<path class="st2" d="M50.473,104.246c0,0-4.089-8.622,0.159-15.088c4.249-6.466,10.798-10.018,16.525-16.482
						s14.422-24.501,15.839-24.501s2.567,1.15,2.567,2.567c0,0-7.775,16.221-12.002,23.072
						c-4.227,6.851-10.692,12.682-11.834,15.725c-1.141,3.043,0.155,14.708,0.155,14.708
						C61.883,106.347,50.473,106.347,50.473,104.246z"/>
				</g>
			</g>
		</g>
		<g>
			<g>
				<g>
					<path class="st2" d="M67.215,80.702c-1.1,0-2.18-0.535-2.832-1.521L35.9,55.389c-0.687-1.04-0.403-2.441,0.637-3.129
						c1.037-0.689,33.504,23.179,33.504,23.179c1.034,1.562,0.606,3.666-0.959,4.699C68.508,80.521,67.856,80.702,67.215,80.702z"/>
				</g>
			</g>
		</g>
		<g>
			<g>
				<g>
					<path class="st2" d="M45.245,60.855c0-0.708,0.345-1.404,0.979-1.824l7.771-8.582c0.67-0.441,1.572-0.258,2.015,0.41
						c0.444,0.669-7.377,11.815-7.377,11.815c-1.005,0.667-2.36,0.391-3.025-0.617C45.361,61.687,45.245,61.268,45.245,60.855z"/>
				</g>
			</g>
		</g>
		<g>
			<g>
				<g>
					<path class="st2" d="M58.563,88.793c1.104,0.437,2.399,0.33,3.446-0.398l43.421-20.352c1.101-0.768,1.369-2.282,0.597-3.385
						c-0.769-1.101-48.225,17.748-48.225,17.748c-1.655,1.153-2.059,3.428-0.895,5.084C57.334,88.099,57.916,88.539,58.563,88.793z"
						/>
				</g>
			</g>
		</g>
		<g>
			<g>
				<g>
					<path class="st2" d="M98.081,68.575c0-0.709-0.345-1.404-0.979-1.825l-7.771-8.582c-0.67-0.441-1.571-0.258-2.015,0.41
						c-0.444,0.668,7.376,11.814,7.376,11.814c1.007,0.667,2.361,0.391,3.027-0.617C97.966,69.407,98.081,68.988,98.081,68.575z"/>
				</g>
			</g>
		</g>
		<g>
			<g>
				<g>
					<path class="st2" d="M69.289,71.09c-0.713-0.716-3.918-21.776-3.918-21.776c0.232-1.12,1.325-1.844,2.442-1.615
						c1.12,0.224,6.721,21.808,6.721,21.808c-0.344,1.685-1.985,2.772-3.671,2.428C70.243,71.811,69.705,71.505,69.289,71.09z"/>
				</g>
			</g>
		</g>
	</g>
</g>
</svg>
