<?xml version="1.0" encoding="utf-8"?>
<!-- Generator: Adobe Illustrator 16.0.0, SVG Export Plug-In . SVG Version: 6.00 Build 0)  -->
<!DOCTYPE svg PUBLIC "-//W3C//DTD SVG 1.1//EN" "http://www.w3.org/Graphics/SVG/1.1/DTD/svg11.dtd">
<svg version="1.1" id="Layer_1" xmlns="http://www.w3.org/2000/svg" xmlns:xlink="http://www.w3.org/1999/xlink" x="0px" y="0px"
	 width="136.833px" height="136.834px" viewBox="0 0 136.833 136.834" style="enable-background:new 0 0 136.833 136.834;"
	 xml:space="preserve">
<style type="text/css">
<![CDATA[
	.st0{fill:#AA7435;}
	.st1{fill:#AA7853;}
	.st2{fill:#49341B;}
	.st3{fill:#AC7753;}
	.st4{fill:#49A0AE;}
	.st5{fill:#ACDDDE;}
	.st6{fill:#AD6227;}
	.st7{fill:#AE7C31;}
	.st8{fill:#AE8038;}
	.st9{fill:#AF7B59;}
	.st10{fill:#E0E8EA;}
	.st11{fill:#E17A2D;}
	.st12{fill:#159F57;}
	.st13{fill:#15AA63;}
	.st14{fill:#4B3937;}
	.st15{fill:#4CB648;}
	.st16{fill:#E79E2D;}
	.st17{fill:#E7E6E6;}
	.st18{fill:#4D8353;}
	.st19{fill:#E97E88;}
	.st20{fill:#4F412F;}
	.st21{fill:#805C26;}
	.st22{fill:#82623E;}
	.st23{fill:#82766E;}
	.st24{fill:#B28D5D;}
	.st25{fill:none;stroke:#49341B;stroke-width:5;stroke-linecap:round;stroke-linejoin:round;stroke-miterlimit:10;}
	.st26{fill:#B38669;}
	.st27{fill:#84654F;}
	.st28{fill:#84B340;}
	.st29{fill:#B58C4F;}
	.st30{fill:#1AAA5B;}
	.st31{fill:#886A4B;}
	.st32{fill:#1D1D1D;}
	.st33{fill:#896852;}
	.st34{fill:#ECEBE9;}
	.st35{fill:#B9803D;}
	.st36{fill:#1EAE64;}
	.st37{fill:#B9CD33;}
	.st38{fill:#EDC92C;}
	.st39{fill:#EF4F29;}
	.st40{fill:#EFEFEF;}
	.st41{fill:#53431F;}
	.st42{fill:#564635;}
	.st43{fill:#8A6638;}
	.st44{fill:#57564E;}
	.st45{fill:#57803A;}
	.st46{fill:#8B7363;}
	.st47{fill:#BB996C;}
	.st48{fill:#8C6D4A;}
	.st49{fill:#8C7B69;}
	.st50{fill:#BBBBBB;}
	.st51{fill:#8D6341;}
	.st52{fill:#8E6E56;}
	.st53{fill:#BE9041;}
	.st54{fill:#232323;}
	.st55{fill:#F3CED1;}
	.st56{fill:#F48C92;}
	.st57{fill:#F4C6C8;}
	.st58{fill:#F4DF81;}
	.st59{fill:#F4E028;}
	.st60{fill:#F5F3E2;}
	.st61{fill:#F5F6F7;}
	.st62{fill:#28B467;}
	.st63{fill:#5D2611;}
	.st64{fill:#F8F1E4;}
	.st65{fill:#C04727;}
	.st66{fill:#91722F;}
	.st67{fill:#917853;}
	.st68{fill:#C0BDBB;}
	.st69{fill:#C15832;}
	.st70{fill:#926D3E;}
	.st71{fill:#927352;}
	.st72{fill:#C28B4F;}
	.st73{fill:#937A5E;}
	.st74{fill:#C39269;}
	.st75{fill:#946F3B;}
	.st76{fill:#966439;}
	.st77{fill:#98732B;}
	.st78{fill:#99806D;}
	.st79{fill:#99AEB2;}
	.st80{fill:#2E2010;}
	.st81{opacity:0.8;}
	.st82{fill:#FFFFFF;}
	.st83{fill:#643014;}
	.st84{fill:#65A844;}
	.st85{fill:#66472A;}
	.st86{fill:#666866;}
	.st87{fill:#9A652D;}
	.st88{fill:#9ACA42;}
	.st89{fill-rule:evenodd;clip-rule:evenodd;fill:#F5F3E2;}
	.st90{fill:#CAB252;}
	.st91{fill:#9C653E;}
	.st92{fill:#9C7B2F;}
	.st93{fill:#CBB5A2;}
	.st94{fill:#693215;}
	.st95{fill:#9E6D46;}
	.st96{fill:#9E8166;}
	.st97{fill:#30251A;}
	.st98{fill:#9F7150;}
	.st99{fill:#9F7235;}
	.st100{fill:#9F772B;}
	.st101{fill:#31312F;}
	.st102{fill:#344E5D;}
	.st103{fill:#357180;}
	.st104{fill:#6A5D56;}
	.st105{fill:#6F4D21;}
	.st106{fill:#6F933D;}
	.st107{fill:#D2D2D2;}
	.st108{fill:#D65228;}
	.st109{fill-rule:evenodd;clip-rule:evenodd;fill:#CAB252;}
	.st110{fill:#D7DABA;}
	.st111{fill:#3D3123;}
	.st112{fill:#3E3940;}
	.st113{fill:#A07649;}
	.st114{fill:#717272;}
	.st115{fill:#A0D2DC;}
	.st116{fill:#73903C;}
	.st117{fill:#A2D4DE;}
	.st118{fill:#A38876;}
	.st119{fill:#744A20;}
	.st120{fill:#A45B26;}
	.st121{fill:#A47E2D;}
	.st122{fill:#A48131;}
	.st123{fill:#763517;}
	.st124{fill:#765422;}
	.st125{fill:#A66C41;}
	.st126{fill:#A67F52;}
	.st127{fill:#775625;}
	.st128{fill:#A6BEC4;}
	.st129{fill:#DBB281;}
	.st130{fill:#795B25;}
	.st131{fill:#DCD478;}
	.st132{fill:#DCDCDB;}
	.st133{fill:#0E9554;}
	.st134{fill:#A9714A;}
	.st135{fill:#A9A9A8;}
	.st136{fill:#DFDEDD;}
]]>
</style>
<g>
	<g>
		<g>
			<g>
				<circle class="st5" cx="68.417" cy="68.397" r="63.333"/>
			</g>
		</g>
	</g>
	<g>
		<g>
			<path class="st88" d="M68.413,131.771c26.934,0,49.926-16.822,59.083-40.525c-16.535-9.969-38.036-14.699-61.544-14.699
				c-21.617,0-41.535,4.004-57.458,12.398C17.018,113.854,40.616,131.771,68.413,131.771z"/>
		</g>
	</g>
	<g>
		<g>
			<g>
				<g>
					<path class="st99" d="M68.653,52.921c-0.74,0-1.34,0.6-1.34,1.339v23.296c0,0.738,0.6,1.338,1.34,1.338
						c0.739,0,1.339-0.6,1.339-1.338V54.26C69.992,53.521,69.392,52.921,68.653,52.921z"/>
				</g>
			</g>
			<g>
				<g>
					<path class="st24" d="M68.653,52.921c-0.74,0-1.34,0.6-1.34,1.339v23.296c0,0.738,0.6,1.338,1.34,1.338V52.921z"/>
				</g>
			</g>
		</g>
		<g>
			<g>
				<g>
					<path class="st133" d="M81.748,67.223c-0.743-1.22-11.654-14.448-11.654-14.448c-0.832-1.568-2.184-1.568-3.018,0
						c0,0-10.882,13.055-11.652,14.448c-0.772,1.392-0.725,4.337,0,5.675c1.297,2.404,24.391,2.523,26.324,0
						C82.685,71.676,82.492,68.442,81.748,67.223z"/>
				</g>
			</g>
			<g>
				<g>
					<path class="st12" d="M78.527,59.083l-8.802-12.821c-0.63-1.185-1.65-1.185-2.28,0l-8.801,12.821
						c-0.631,1.184-0.862,3.104-0.232,4.287h20.347C79.388,62.187,79.158,60.267,78.527,59.083z"/>
				</g>
			</g>
			<g>
				<g>
					<path class="st30" d="M61.523,54.455c-0.447-0.842-0.447-2.204,0-3.045l6.253-11.76c0.446-0.842,1.171-0.842,1.619,0
						l6.252,11.76c0.447,0.841,0.447,2.203,0,3.045H61.523z"/>
				</g>
			</g>
		</g>
	</g>
	<g>
		<g>
			<g>
				<g>
					<path class="st99" d="M92.329,60.248c-0.955,0-1.729,0.775-1.729,1.729v30.068c0,0.955,0.773,1.729,1.729,1.729
						s1.729-0.773,1.729-1.729V61.977C94.057,61.023,93.284,60.248,92.329,60.248z"/>
				</g>
			</g>
			<g>
				<g>
					<path class="st24" d="M92.329,60.248c-0.955,0-1.729,0.775-1.729,1.729v30.068c0,0.955,0.773,1.729,1.729,1.729V60.248z"/>
				</g>
			</g>
		</g>
		<g>
			<g>
				<g>
					<path class="st13" d="M109.231,78.709c-0.96-1.574-15.042-18.649-15.042-18.649c-1.075-2.025-2.819-2.025-3.896,0
						c0,0-14.045,16.85-15.041,18.649c-0.996,1.795-0.935,5.598,0,7.324c1.675,3.104,31.481,3.258,33.979,0
						C110.441,84.455,110.192,80.281,109.231,78.709z"/>
				</g>
			</g>
			<g>
				<g>
					<path class="st36" d="M105.075,68.203L93.713,51.654c-0.813-1.529-2.131-1.529-2.943,0L79.41,68.203
						c-0.813,1.526-1.112,4.006-0.299,5.532h26.262C106.184,72.209,105.887,69.729,105.075,68.203z"/>
				</g>
			</g>
			<g>
				<g>
					<path class="st62" d="M83.127,62.228c-0.578-1.086-0.578-2.846,0-3.932l8.069-15.177c0.577-1.088,1.513-1.088,2.09,0
						l8.069,15.177c0.578,1.086,0.578,2.846,0,3.932H83.127z"/>
				</g>
			</g>
		</g>
	</g>
	<g>
		<g>
			<g>
				<g>
					<path class="st99" d="M49.113,68.436c-1.105,0-2.002,0.896-2.002,2.002v34.816c0,1.105,0.896,2.002,2.002,2.002
						c1.106,0,2.002-0.896,2.002-2.002V70.438C51.115,69.333,50.219,68.436,49.113,68.436z"/>
				</g>
			</g>
			<g>
				<g>
					<path class="st24" d="M49.113,68.436c-1.105,0-2.002,0.896-2.002,2.002v34.816c0,1.105,0.896,2.002,2.002,2.002V68.436z"/>
				</g>
			</g>
		</g>
		<g>
			<g>
				<g>
					<path class="st13" d="M68.685,89.811c-1.111-1.822-17.418-21.593-17.418-21.593c-1.245-2.346-3.265-2.346-4.511,0
						c0,0-16.264,19.511-17.417,21.593c-1.153,2.08-1.082,6.482,0,8.482c1.939,3.592,36.455,3.773,39.346,0
						C70.085,96.467,69.797,91.633,68.685,89.811z"/>
				</g>
			</g>
			<g>
				<g>
					<path class="st36" d="M63.872,77.645L50.716,58.483c-0.941-1.771-2.467-1.771-3.408,0L34.154,77.645
						c-0.941,1.77-1.288,4.639-0.347,6.408h30.41C65.158,82.283,64.813,79.414,63.872,77.645z"/>
				</g>
			</g>
			<g>
				<g>
					<path class="st62" d="M38.458,70.729c-0.669-1.258-0.669-3.296,0-4.553l9.345-17.575c0.668-1.259,1.751-1.259,2.42,0
						l9.345,17.575c0.669,1.257,0.669,3.295,0,4.553H38.458z"/>
				</g>
			</g>
		</g>
	</g>
</g>
</svg>
