<?xml version="1.0" encoding="utf-8"?>
<!-- Generator: Adobe Illustrator 16.0.0, SVG Export Plug-In . SVG Version: 6.00 Build 0)  -->
<!DOCTYPE svg PUBLIC "-//W3C//DTD SVG 1.1//EN" "http://www.w3.org/Graphics/SVG/1.1/DTD/svg11.dtd">
<svg version="1.1" id="Layer_1" xmlns="http://www.w3.org/2000/svg" xmlns:xlink="http://www.w3.org/1999/xlink" x="0px" y="0px"
	 width="136.833px" height="136.833px" viewBox="0 0 136.833 136.833" style="enable-background:new 0 0 136.833 136.833;"
	 xml:space="preserve">
<style type="text/css">
<![CDATA[
	.st0{fill:#AA7435;}
	.st1{fill:#AA7853;}
	.st2{fill:#49341B;}
	.st3{fill:#AC7753;}
	.st4{fill:#49A0AE;}
	.st5{fill:#ACDDDE;}
	.st6{fill:#AD6227;}
	.st7{fill:#AE7C31;}
	.st8{fill:#AE8038;}
	.st9{fill:#AF7B59;}
	.st10{fill:#E0E8EA;}
	.st11{fill:#E17A2D;}
	.st12{fill:#159F57;}
	.st13{fill:#15AA63;}
	.st14{fill:#4B3937;}
	.st15{fill:#4CB648;}
	.st16{fill:#E79E2D;}
	.st17{fill:#E7E6E6;}
	.st18{fill:#4D8353;}
	.st19{fill:#E97E88;}
	.st20{fill:#4F412F;}
	.st21{fill:#805C26;}
	.st22{fill:#82623E;}
	.st23{fill:#82766E;}
	.st24{fill:#B28D5D;}
	.st25{fill:none;stroke:#49341B;stroke-width:5;stroke-linecap:round;stroke-linejoin:round;stroke-miterlimit:10;}
	.st26{fill:#B38669;}
	.st27{fill:#84654F;}
	.st28{fill:#84B340;}
	.st29{fill:#B58C4F;}
	.st30{fill:#1AAA5B;}
	.st31{fill:#886A4B;}
	.st32{fill:#1D1D1D;}
	.st33{fill:#896852;}
	.st34{fill:#ECEBE9;}
	.st35{fill:#B9803D;}
	.st36{fill:#1EAE64;}
	.st37{fill:#B9CD33;}
	.st38{fill:#EDC92C;}
	.st39{fill:#EF4F29;}
	.st40{fill:#EFEFEF;}
	.st41{fill:#53431F;}
	.st42{fill:#564635;}
	.st43{fill:#8A6638;}
	.st44{fill:#57564E;}
	.st45{fill:#57803A;}
	.st46{fill:#8B7363;}
	.st47{fill:#BB996C;}
	.st48{fill:#8C6D4A;}
	.st49{fill:#8C7B69;}
	.st50{fill:#BBBBBB;}
	.st51{fill:#8D6341;}
	.st52{fill:#8E6E56;}
	.st53{fill:#BE9041;}
	.st54{fill:#232323;}
	.st55{fill:#F3CED1;}
	.st56{fill:#F48C92;}
	.st57{fill:#F4C6C8;}
	.st58{fill:#F4DF81;}
	.st59{fill:#F4E028;}
	.st60{fill:#F5F3E2;}
	.st61{fill:#F5F6F7;}
	.st62{fill:#28B467;}
	.st63{fill:#5D2611;}
	.st64{fill:#F8F1E4;}
	.st65{fill:#C04727;}
	.st66{fill:#91722F;}
	.st67{fill:#917853;}
	.st68{fill:#C0BDBB;}
	.st69{fill:#C15832;}
	.st70{fill:#926D3E;}
	.st71{fill:#927352;}
	.st72{fill:#C28B4F;}
	.st73{fill:#937A5E;}
	.st74{fill:#C39269;}
	.st75{fill:#946F3B;}
	.st76{fill:#966439;}
	.st77{fill:#98732B;}
	.st78{fill:#99806D;}
	.st79{fill:#99AEB2;}
	.st80{fill:#2E2010;}
	.st81{opacity:0.8;}
	.st82{fill:#FFFFFF;}
	.st83{fill:#643014;}
	.st84{fill:#65A844;}
	.st85{fill:#66472A;}
	.st86{fill:#666866;}
	.st87{fill:#9A652D;}
	.st88{fill:#9ACA42;}
	.st89{fill-rule:evenodd;clip-rule:evenodd;fill:#F5F3E2;}
	.st90{fill:#CAB252;}
	.st91{fill:#9C653E;}
	.st92{fill:#9C7B2F;}
	.st93{fill:#CBB5A2;}
	.st94{fill:#693215;}
	.st95{fill:#9E6D46;}
	.st96{fill:#9E8166;}
	.st97{fill:#30251A;}
	.st98{fill:#9F7150;}
	.st99{fill:#9F7235;}
	.st100{fill:#9F772B;}
	.st101{fill:#31312F;}
	.st102{fill:#344E5D;}
	.st103{fill:#357180;}
	.st104{fill:#6A5D56;}
	.st105{fill:#6F4D21;}
	.st106{fill:#6F933D;}
	.st107{fill:#D2D2D2;}
	.st108{fill:#D65228;}
	.st109{fill-rule:evenodd;clip-rule:evenodd;fill:#CAB252;}
	.st110{fill:#D7DABA;}
	.st111{fill:#3D3123;}
	.st112{fill:#3E3940;}
	.st113{fill:#A07649;}
	.st114{fill:#717272;}
	.st115{fill:#A0D2DC;}
	.st116{fill:#73903C;}
	.st117{fill:#A2D4DE;}
	.st118{fill:#A38876;}
	.st119{fill:#744A20;}
	.st120{fill:#A45B26;}
	.st121{fill:#A47E2D;}
	.st122{fill:#A48131;}
	.st123{fill:#763517;}
	.st124{fill:#765422;}
	.st125{fill:#A66C41;}
	.st126{fill:#A67F52;}
	.st127{fill:#775625;}
	.st128{fill:#A6BEC4;}
	.st129{fill:#DBB281;}
	.st130{fill:#795B25;}
	.st131{fill:#DCD478;}
	.st132{fill:#DCDCDB;}
	.st133{fill:#0E9554;}
	.st134{fill:#A9714A;}
	.st135{fill:#A9A9A8;}
	.st136{fill:#DFDEDD;}
]]>
</style>
<g>
	<g>
		<g>
			<path class="st117" d="M5.083,68.418c0-34.981,28.357-63.334,63.332-63.334c34.979,0,63.334,28.354,63.334,63.334
				c0,34.976-28.355,63.332-63.334,63.332C33.44,131.75,5.083,103.394,5.083,68.418z"/>
		</g>
	</g>
	<g>
		<g>
			<path class="st58" d="M5.083,68.418h126.666c0,34.976-28.355,63.332-63.334,63.332C33.44,131.75,5.083,103.394,5.083,68.418z"/>
		</g>
	</g>
	<g>
		<g>
			<g>
				<polygon class="st94" points="21.028,82.312 28.54,84.386 66.327,96.316 90.356,91.476 103.483,87.863 106.288,86.068 
					110.677,84.855 115.778,84.427 68.581,72.253 				"/>
			</g>
		</g>
		<g>
			<g>
				<g>
					<polygon class="st49" points="87.401,57.522 87.331,57.503 87.331,77.007 87.401,77.027 100.599,80.671 100.599,61.168 					
						"/>
				</g>
			</g>
			<g>
				<g>
					<polygon class="st41" points="100.669,61.187 100.669,80.691 105.007,81.89 105.007,62.385 					"/>
				</g>
			</g>
		</g>
		<g>
			<g>
				<g>
					<path class="st43" d="M114.866,63.389L85.269,48.534L71.681,39.29c-1.484-1.482-3.945-1.426-5.5,0.129l-12.902,8.891
						l-31.08,15.08c-1.242,1.241-1.242,3.253,0,4.494l46.072,10.079l47.508-13.038C115.778,64.924,116.108,64.63,114.866,63.389z"/>
				</g>
			</g>
			<g>
				<g>
					<path class="st22" d="M75.757,42.063l-4.076-2.773c-1.484-1.482-3.945-1.426-5.5,0.129l-4.098,2.824l6.998,1.539L75.757,42.063
						z"/>
				</g>
			</g>
			<g>
				<g>
					<path class="st71" d="M75.757,42.063l-4.076-2.773c-0.74-0.742-1.729-1.098-2.723-1.074l0.123,5.566L75.757,42.063z"/>
				</g>
			</g>
			<g>
				<g>
					<path class="st22" d="M114.866,63.389L85.269,48.534l-16.094,4.54l-0.469,0.132l-15.428-4.896l-31.08,15.08
						c-1.242,1.241-1.242,3.253,0,4.494l46.072,10.079l47.508-13.038C115.778,64.924,116.108,64.63,114.866,63.389z"/>
				</g>
			</g>
			<g>
				<g>
					<path class="st31" d="M114.866,63.389l-14.059-7.057L68.612,64.27l-31.68-8.029l-14.734,7.148
						c-1.242,1.241-1.242,3.253,0,4.494l46.072,10.079l47.508-13.038C115.778,64.924,116.108,64.63,114.866,63.389z"/>
				</g>
			</g>
			<g>
				<g>
					<path class="st70" d="M53.278,48.309l-16.346,7.932l-14.734,7.148c-1.242,1.241-1.242,3.253,0,4.494l46.227,10.71l0.334-25.388
						L53.278,48.309z"/>
				</g>
			</g>
			<g>
				<g>
					<path class="st51" d="M68.612,64.27l-31.68-8.029l-14.734,7.148c-1.242,1.241-1.242,3.253,0,4.494l46.156,10.685L68.612,64.27z
						"/>
				</g>
			</g>
			<g>
				<g>
					<g>
						<polygon class="st104" points="68.448,77.896 68.271,77.962 68.271,97.466 68.425,97.509 72.679,96.339 72.698,76.74 						
							"/>
					</g>
				</g>
				<g>
					<g>
						<polygon class="st23" points="72.62,76.755 72.679,76.835 72.679,96.339 72.749,96.32 77.132,95.115 77.151,75.505 						"/>
					</g>
				</g>
				<g>
					<g>
						<polygon class="st74" points="77.151,75.505 77.155,95.107 81.54,93.9 81.464,74.318 						"/>
					</g>
				</g>
				<g>
					<g>
						<polygon class="st104" points="77.132,75.609 77.132,95.115 77.155,95.107 77.155,75.601 						"/>
					</g>
				</g>
				<g>
					<g>
						<line class="st23" x1="85.948" y1="92.689" x2="81.61" y2="93.882"/>
					</g>
				</g>
				<g>
					<g>
						<polygon class="st87" points="81.636,74.302 81.61,93.882 85.948,92.689 85.972,73.109 						"/>
					</g>
				</g>
				<g>
					<g>
						<line class="st23" x1="81.61" y1="93.882" x2="81.54" y2="93.9"/>
					</g>
				</g>
				<g>
					<g>
						<polygon class="st23" points="81.464,74.318 81.54,93.9 81.61,93.882 81.636,74.302 						"/>
					</g>
				</g>
				<g>
					<g>
						<line class="st104" x1="90.356" y1="91.476" x2="86.017" y2="92.669"/>
					</g>
				</g>
				<g>
					<g>
						<line class="st104" x1="86.017" y1="92.669" x2="85.948" y2="92.689"/>
					</g>
				</g>
				<g>
					<g>
						<polygon class="st41" points="85.948,73.099 85.948,73.183 85.948,92.689 86.017,92.669 90.356,91.476 90.37,71.896 						"/>
					</g>
				</g>
				<g>
					<g>
						<line class="st23" x1="90.425" y1="91.457" x2="90.356" y2="91.476"/>
					</g>
				</g>
				<g>
					<g>
						<polygon class="st93" points="90.37,71.896 90.417,72.193 90.356,91.476 90.425,91.457 84.2,93.125 						"/>
					</g>
				</g>
				<g>
					<g>
						<path class="st104" d="M94.833,90.244"/>
					</g>
				</g>
				<g>
					<g>
						<polygon class="st119" points="99.146,69.552 99.075,69.572 99.075,89.076 99.146,89.058 103.483,87.863 103.483,68.359 
													"/>
					</g>
				</g>
				<g>
					<g>
						<polygon class="st93" points="99.06,69.601 99.06,89.107 103.468,87.894 100.528,77.414 						"/>
					</g>
				</g>
				<g>
					<g>
						<polygon class="st85" points="106.218,85.416 107.722,67.147 103.384,68.34 103.384,87.845 106.288,86.068 106.288,85.416 
													"/>
					</g>
				</g>
				<g>
					<g>
						<polygon class="st94" points="115.778,84.427 115.778,64.924 112.179,65.915 110.677,84.855 						"/>
					</g>
				</g>
				<g>
					<g>
						<polygon class="st113" points="111.874,65.999 107.772,67.128 107.702,67.147 106.2,86.068 106.269,86.068 108.64,85.416 
							110.372,84.939 110.677,84.855 112.179,65.915 						"/>
					</g>
				</g>
				<g>
					<g>
						<polygon class="st104" points="24.198,65.788 24.157,83.175 28.54,84.386 28.583,67 						"/>
					</g>
				</g>
				<g>
					<g>
						<polygon class="st49" points="28.653,67.02 28.583,67 28.54,84.386 28.61,84.406 33.036,87.734 33.036,68.23 						"/>
					</g>
				</g>
				<g>
					<g>
						<polygon class="st94" points="24.175,65.782 21.069,64.924 21.028,82.312 24.134,83.169 24.157,83.175 24.198,65.788 						
							"/>
					</g>
				</g>
				<g>
					<g>
						<polygon class="st76" points="33.06,68.236 33.06,87.74 37.444,88.951 37.444,69.447 						"/>
					</g>
				</g>
				<g>
					<g>
						<polygon class="st104" points="33.036,68.23 32.995,85.617 33.06,87.74 33.06,68.236 						"/>
					</g>
				</g>
				<g>
					<g>
						<polygon class="st85" points="37.515,69.466 37.444,69.447 37.444,88.951 37.515,88.97 41.851,90.169 41.851,70.664 						"/>
					</g>
				</g>
				<g>
					<g>
						<polygon class="st41" points="41.761,70.662 41.851,90.169 46.358,90.197 46.259,71.882 						"/>
					</g>
				</g>
				<g>
					<g>
						<polygon class="st126" points="46.329,71.902 46.259,71.882 46.358,90.197 46.429,90.216 50.673,91.388 50.571,73.074 						
							"/>
					</g>
				</g>
				<g>
					<g>
						<polygon class="st123" points="50.735,73.119 50.571,73.074 50.673,91.388 50.837,91.433 55.079,92.605 54.978,74.291 						
							"/>
					</g>
				</g>
				<g>
					<g>
						<polygon class="st127" points="55.05,74.31 54.978,74.291 55.079,92.605 55.149,92.625 59.386,95.013 59.386,75.509 						"/>
					</g>
				</g>
				<g>
					<g>
						<polygon class="st83" points="59.456,75.529 59.456,95.033 63.794,96.23 63.794,76.726 						"/>
					</g>
				</g>
				<g>
					<g>
						<polygon class="st104" points="59.386,75.509 59.386,95.013 59.456,95.033 59.456,75.529 						"/>
					</g>
				</g>
				<g>
					<g>
						<polygon class="st80" points="63.864,76.744 63.794,76.726 63.794,96.23 63.864,96.25 68.271,97.466 68.271,77.962 						"/>
					</g>
				</g>
			</g>
		</g>
	</g>
</g>
</svg>
