<?xml version="1.0" encoding="utf-8"?>
<!-- Generator: Adobe Illustrator 16.0.0, SVG Export Plug-In . SVG Version: 6.00 Build 0)  -->
<!DOCTYPE svg PUBLIC "-//W3C//DTD SVG 1.1//EN" "http://www.w3.org/Graphics/SVG/1.1/DTD/svg11.dtd">
<svg version="1.1" id="Layer_1" xmlns="http://www.w3.org/2000/svg" xmlns:xlink="http://www.w3.org/1999/xlink" x="0px" y="0px"
	 width="136.833px" height="136.833px" viewBox="0 0 136.833 136.833" style="enable-background:new 0 0 136.833 136.833;"
	 xml:space="preserve">
<style type="text/css">
<![CDATA[
	.st0{fill:#AA7435;}
	.st1{fill:#AA7853;}
	.st2{fill:#49341B;}
	.st3{fill:#AC7753;}
	.st4{fill:#49A0AE;}
	.st5{fill:#ACDDDE;}
	.st6{fill:#AD6227;}
	.st7{fill:#AE7C31;}
	.st8{fill:#AE8038;}
	.st9{fill:#AF7B59;}
	.st10{fill:#E0E8EA;}
	.st11{fill:#E17A2D;}
	.st12{fill:#159F57;}
	.st13{fill:#15AA63;}
	.st14{fill:#4B3937;}
	.st15{fill:#4CB648;}
	.st16{fill:#E79E2D;}
	.st17{fill:#E7E6E6;}
	.st18{fill:#4D8353;}
	.st19{fill:#E97E88;}
	.st20{fill:#4F412F;}
	.st21{fill:#805C26;}
	.st22{fill:#82623E;}
	.st23{fill:#82766E;}
	.st24{fill:#B28D5D;}
	.st25{fill:none;stroke:#49341B;stroke-width:5;stroke-linecap:round;stroke-linejoin:round;stroke-miterlimit:10;}
	.st26{fill:#B38669;}
	.st27{fill:#84654F;}
	.st28{fill:#84B340;}
	.st29{fill:#B58C4F;}
	.st30{fill:#1AAA5B;}
	.st31{fill:#886A4B;}
	.st32{fill:#1D1D1D;}
	.st33{fill:#896852;}
	.st34{fill:#ECEBE9;}
	.st35{fill:#B9803D;}
	.st36{fill:#1EAE64;}
	.st37{fill:#B9CD33;}
	.st38{fill:#EDC92C;}
	.st39{fill:#EF4F29;}
	.st40{fill:#EFEFEF;}
	.st41{fill:#53431F;}
	.st42{fill:#564635;}
	.st43{fill:#8A6638;}
	.st44{fill:#57564E;}
	.st45{fill:#57803A;}
	.st46{fill:#8B7363;}
	.st47{fill:#BB996C;}
	.st48{fill:#8C6D4A;}
	.st49{fill:#8C7B69;}
	.st50{fill:#BBBBBB;}
	.st51{fill:#8D6341;}
	.st52{fill:#8E6E56;}
	.st53{fill:#BE9041;}
	.st54{fill:#232323;}
	.st55{fill:#F3CED1;}
	.st56{fill:#F48C92;}
	.st57{fill:#F4C6C8;}
	.st58{fill:#F4DF81;}
	.st59{fill:#F4E028;}
	.st60{fill:#F5F3E2;}
	.st61{fill:#F5F6F7;}
	.st62{fill:#28B467;}
	.st63{fill:#5D2611;}
	.st64{fill:#F8F1E4;}
	.st65{fill:#C04727;}
	.st66{fill:#91722F;}
	.st67{fill:#917853;}
	.st68{fill:#C0BDBB;}
	.st69{fill:#C15832;}
	.st70{fill:#926D3E;}
	.st71{fill:#927352;}
	.st72{fill:#C28B4F;}
	.st73{fill:#937A5E;}
	.st74{fill:#C39269;}
	.st75{fill:#946F3B;}
	.st76{fill:#966439;}
	.st77{fill:#98732B;}
	.st78{fill:#99806D;}
	.st79{fill:#99AEB2;}
	.st80{fill:#2E2010;}
	.st81{opacity:0.8;}
	.st82{fill:#FFFFFF;}
	.st83{fill:#643014;}
	.st84{fill:#65A844;}
	.st85{fill:#66472A;}
	.st86{fill:#666866;}
	.st87{fill:#9A652D;}
	.st88{fill:#9ACA42;}
	.st89{fill-rule:evenodd;clip-rule:evenodd;fill:#F5F3E2;}
	.st90{fill:#CAB252;}
	.st91{fill:#9C653E;}
	.st92{fill:#9C7B2F;}
	.st93{fill:#CBB5A2;}
	.st94{fill:#693215;}
	.st95{fill:#9E6D46;}
	.st96{fill:#9E8166;}
	.st97{fill:#30251A;}
	.st98{fill:#9F7150;}
	.st99{fill:#9F7235;}
	.st100{fill:#9F772B;}
	.st101{fill:#31312F;}
	.st102{fill:#344E5D;}
	.st103{fill:#357180;}
	.st104{fill:#6A5D56;}
	.st105{fill:#6F4D21;}
	.st106{fill:#6F933D;}
	.st107{fill:#D2D2D2;}
	.st108{fill:#D65228;}
	.st109{fill-rule:evenodd;clip-rule:evenodd;fill:#CAB252;}
	.st110{fill:#D7DABA;}
	.st111{fill:#3D3123;}
	.st112{fill:#3E3940;}
	.st113{fill:#A07649;}
	.st114{fill:#717272;}
	.st115{fill:#A0D2DC;}
	.st116{fill:#73903C;}
	.st117{fill:#A2D4DE;}
	.st118{fill:#A38876;}
	.st119{fill:#744A20;}
	.st120{fill:#A45B26;}
	.st121{fill:#A47E2D;}
	.st122{fill:#A48131;}
	.st123{fill:#763517;}
	.st124{fill:#765422;}
	.st125{fill:#A66C41;}
	.st126{fill:#A67F52;}
	.st127{fill:#775625;}
	.st128{fill:#A6BEC4;}
	.st129{fill:#DBB281;}
	.st130{fill:#795B25;}
	.st131{fill:#DCD478;}
	.st132{fill:#DCDCDB;}
	.st133{fill:#0E9554;}
	.st134{fill:#A9714A;}
	.st135{fill:#A9A9A8;}
	.st136{fill:#DFDEDD;}
]]>
</style>
<g>
	<g>
		<g>
			<circle class="st115" cx="68.417" cy="67.559" r="63.333"/>
		</g>
	</g>
	<g>
		<path class="st89" d="M34.103,30.997c2.427,1.368,4.854,2.734,7.28,4.103c2.114,1.193,4.265,2.363,5.711,4.397
			c0.696,0.98,1.282,2.054,1.801,3.142c0.942,1.98,1.796,4.002,2.688,6.005c0.092,0.206,0.197,0.404,0.296,0.607
			c0.939,1.934,1.783,2.528,3.876,2.175c1.735-0.292,3.207,0.018,4.614,0.995c0.5,0.346,1.06,0.607,1.695,0.965
			c-1.35,0.398-2.58,0.727-3.783,1.135c-0.365,0.124-0.654,0.468-0.979,0.711c0.255,0.31,0.458,0.691,0.772,0.916
			c1.355,0.963,2.748,1.871,4.117,2.813c1.693,1.165,2.981,2.663,3.658,4.626c1.287,3.738,2.554,7.483,3.688,11.426
			c-0.824-0.371-1.683-0.68-2.465-1.126c-2.687-1.53-4.676-3.669-5.666-6.662c-0.093-0.28-0.394-0.53-0.656-0.708
			c-3.189-2.172-6.39-4.327-9.586-6.487c-0.164-0.11-0.319-0.232-0.477-0.351c-1.024-0.773-1.292-0.758-1.949,0.383
			c-0.74,1.286-1.382,2.628-2.082,3.976c-2.762-0.563-4.84-2.034-5.739-4.663c-0.346-1.012-0.962-2.126-0.564-3.373
			c0.157-0.491,0.269-0.713,0.802-0.709c1.293,0.01,2.586-0.029,3.879-0.059c0.166-0.003,0.333-0.051,0.494-0.102
			c0.991-0.312,1.04-0.493,0.618-1.416c-1.938-4.242-3.846-8.497-5.794-12.734c-0.145-0.314-0.506-0.542-0.794-0.777
			c-0.578-0.47-1.185-0.905-1.757-1.382c-0.213-0.177-0.328-0.475-0.545-0.643c-1.906-1.473-2.599-3.602-3.183-5.798
			c-0.02-0.073-0.091-0.133-0.139-0.2C33.99,31.787,34.046,31.392,34.103,30.997z"/>
	</g>
	<g>
		<path class="st89" d="M69.158,101.107c-1.133-0.338-2.298-0.602-3.389-1.045c-0.622-0.252-1.124-0.799-1.693-1.223
			c0.945-1.817,2.93-2.997,2.983-5.239c-3.462-0.681-6.779-1.299-10.078-1.997c-1.592-0.337-3.157-0.803-4.721-1.257
			c-0.49-0.142-0.874-0.148-1.344,0.111c-0.503,0.278-1.09,0.458-1.661,0.544c-0.972,0.147-1.96,0.181-2.941,0.278
			c-1.545,0.154-5.184-0.942-6.32-1.956c1.158-0.491,2.281-0.97,3.404-1.444c1.942-0.82,3.895-1.617,5.825-2.465
			c3.228-1.417,6.521-1.524,9.909-0.674c2.262,0.567,4.548,1.042,6.829,1.53c1.912,0.41,2.828,0.133,3.759-1.563
			c0.897-1.635,2.124-2.684,3.876-3.212c0.534-0.161,1.036-0.432,1.734-0.729c-0.377,0.95-0.711,1.759-1.019,2.577
			c-0.168,0.445-0.331,0.899-0.429,1.362c-0.185,0.88,0.126,1.192,0.98,0.942c1.268-0.371,2.545-0.734,3.77-1.226
			c3.088-1.237,6.123-1.101,9.224,0.004c3.016,1.074,6.09,1.985,9.138,2.971c0.203,0.066,0.399,0.152,0.887,0.341
			c-1.102,0.56-1.958,1.088-2.88,1.446c-2.816,1.097-5.689,1.255-8.602,0.348c-0.265-0.082-0.605-0.053-0.877,0.034
			c-3.988,1.273-7.97,2.57-11.957,3.851c-0.973,0.313-1.167,0.579-0.735,1.507c0.544,1.171,1.153,2.319,1.823,3.423
			c0.369,0.608,0.269,0.992-0.295,1.285c-0.989,0.513-1.999,0.985-3,1.475C70.626,101.107,69.892,101.107,69.158,101.107z"/>
	</g>
	<g>
		<path class="st89" d="M113.019,79.6c-2.806,0.621-5.402-0.026-7.895-1.304c-0.075-0.038-0.175-0.049-0.229-0.105
			c-1.63-1.732-3.795-1.299-5.818-1.454c-1.537-0.118-3.081-0.207-4.604-0.432c-2.846-0.418-2.443-0.201-2.295,1.989
			c0.056,0.839,0.131,1.678,0.202,2.571c-2.063,0.622-4.05,0.77-5.825-0.574c-0.803-0.608-1.443-1.445-2.109-2.22
			c-0.351-0.407-0.28-0.762,0.259-1.075c0.948-0.551,1.851-1.182,2.754-1.805c0.894-0.618,0.85-0.997-0.072-1.608
			c-2.247-1.489-4.482-2.998-6.715-4.509c-0.301-0.205-0.57-0.459-0.84-0.705c-1.139-1.039-2.376-1.671-4.002-1.849
			c-2.703-0.294-4.838-1.801-6.605-3.903c0.128-0.095,0.189-0.179,0.25-0.179c2.933-0.002,5.868-0.076,8.797,0.026
			c3.14,0.11,5.892,1.246,8.236,3.411c1.007,0.93,2.186,1.684,3.337,2.44c1.593,1.049,2.442,0.99,4.005-0.127
			c1.632-1.168,2.644-1.343,4.682-0.797c-0.704,0.74-1.429,1.439-2.078,2.202c-0.575,0.676-0.458,0.944,0.405,1.051
			c1.843,0.226,3.697,0.377,5.532,0.652c1.335,0.2,2.481,0.865,3.492,1.767c2.146,1.913,4.302,3.815,6.459,5.716
			c0.207,0.184,0.451,0.321,0.678,0.481C113.019,79.374,113.019,79.486,113.019,79.6z"/>
	</g>
</g>
</svg>
