<?xml version="1.0" encoding="utf-8"?>
<!-- Generator: Adobe Illustrator 16.0.0, SVG Export Plug-In . SVG Version: 6.00 Build 0)  -->
<!DOCTYPE svg PUBLIC "-//W3C//DTD SVG 1.1//EN" "http://www.w3.org/Graphics/SVG/1.1/DTD/svg11.dtd">
<svg version="1.1" id="Layer_1" xmlns="http://www.w3.org/2000/svg" xmlns:xlink="http://www.w3.org/1999/xlink" x="0px" y="0px"
	 width="136.833px" height="136.834px" viewBox="0 0 136.833 136.834" style="enable-background:new 0 0 136.833 136.834;"
	 xml:space="preserve">
<style type="text/css">
<![CDATA[
	.st0{fill:#AA7435;}
	.st1{fill:#AA7853;}
	.st2{fill:#49341B;}
	.st3{fill:#AC7753;}
	.st4{fill:#49A0AE;}
	.st5{fill:#ACDDDE;}
	.st6{fill:#AD6227;}
	.st7{fill:#AE7C31;}
	.st8{fill:#AE8038;}
	.st9{fill:#AF7B59;}
	.st10{fill:#E0E8EA;}
	.st11{fill:#E17A2D;}
	.st12{fill:#159F57;}
	.st13{fill:#15AA63;}
	.st14{fill:#4B3937;}
	.st15{fill:#4CB648;}
	.st16{fill:#E79E2D;}
	.st17{fill:#E7E6E6;}
	.st18{fill:#4D8353;}
	.st19{fill:#E97E88;}
	.st20{fill:#4F412F;}
	.st21{fill:#805C26;}
	.st22{fill:#82623E;}
	.st23{fill:#82766E;}
	.st24{fill:#B28D5D;}
	.st25{fill:none;stroke:#49341B;stroke-width:5;stroke-linecap:round;stroke-linejoin:round;stroke-miterlimit:10;}
	.st26{fill:#B38669;}
	.st27{fill:#84654F;}
	.st28{fill:#84B340;}
	.st29{fill:#B58C4F;}
	.st30{fill:#1AAA5B;}
	.st31{fill:#886A4B;}
	.st32{fill:#1D1D1D;}
	.st33{fill:#896852;}
	.st34{fill:#ECEBE9;}
	.st35{fill:#B9803D;}
	.st36{fill:#1EAE64;}
	.st37{fill:#B9CD33;}
	.st38{fill:#EDC92C;}
	.st39{fill:#EF4F29;}
	.st40{fill:#EFEFEF;}
	.st41{fill:#53431F;}
	.st42{fill:#564635;}
	.st43{fill:#8A6638;}
	.st44{fill:#57564E;}
	.st45{fill:#57803A;}
	.st46{fill:#8B7363;}
	.st47{fill:#BB996C;}
	.st48{fill:#8C6D4A;}
	.st49{fill:#8C7B69;}
	.st50{fill:#BBBBBB;}
	.st51{fill:#8D6341;}
	.st52{fill:#8E6E56;}
	.st53{fill:#BE9041;}
	.st54{fill:#232323;}
	.st55{fill:#F3CED1;}
	.st56{fill:#F48C92;}
	.st57{fill:#F4C6C8;}
	.st58{fill:#F4DF81;}
	.st59{fill:#F4E028;}
	.st60{fill:#F5F3E2;}
	.st61{fill:#F5F6F7;}
	.st62{fill:#28B467;}
	.st63{fill:#5D2611;}
	.st64{fill:#F8F1E4;}
	.st65{fill:#C04727;}
	.st66{fill:#91722F;}
	.st67{fill:#917853;}
	.st68{fill:#C0BDBB;}
	.st69{fill:#C15832;}
	.st70{fill:#926D3E;}
	.st71{fill:#927352;}
	.st72{fill:#C28B4F;}
	.st73{fill:#937A5E;}
	.st74{fill:#C39269;}
	.st75{fill:#946F3B;}
	.st76{fill:#966439;}
	.st77{fill:#98732B;}
	.st78{fill:#99806D;}
	.st79{fill:#99AEB2;}
	.st80{fill:#2E2010;}
	.st81{opacity:0.8;}
	.st82{fill:#FFFFFF;}
	.st83{fill:#643014;}
	.st84{fill:#65A844;}
	.st85{fill:#66472A;}
	.st86{fill:#666866;}
	.st87{fill:#9A652D;}
	.st88{fill:#9ACA42;}
	.st89{fill-rule:evenodd;clip-rule:evenodd;fill:#F5F3E2;}
	.st90{fill:#CAB252;}
	.st91{fill:#9C653E;}
	.st92{fill:#9C7B2F;}
	.st93{fill:#CBB5A2;}
	.st94{fill:#693215;}
	.st95{fill:#9E6D46;}
	.st96{fill:#9E8166;}
	.st97{fill:#30251A;}
	.st98{fill:#9F7150;}
	.st99{fill:#9F7235;}
	.st100{fill:#9F772B;}
	.st101{fill:#31312F;}
	.st102{fill:#344E5D;}
	.st103{fill:#357180;}
	.st104{fill:#6A5D56;}
	.st105{fill:#6F4D21;}
	.st106{fill:#6F933D;}
	.st107{fill:#D2D2D2;}
	.st108{fill:#D65228;}
	.st109{fill-rule:evenodd;clip-rule:evenodd;fill:#CAB252;}
	.st110{fill:#D7DABA;}
	.st111{fill:#3D3123;}
	.st112{fill:#3E3940;}
	.st113{fill:#A07649;}
	.st114{fill:#717272;}
	.st115{fill:#A0D2DC;}
	.st116{fill:#73903C;}
	.st117{fill:#A2D4DE;}
	.st118{fill:#A38876;}
	.st119{fill:#744A20;}
	.st120{fill:#A45B26;}
	.st121{fill:#A47E2D;}
	.st122{fill:#A48131;}
	.st123{fill:#763517;}
	.st124{fill:#765422;}
	.st125{fill:#A66C41;}
	.st126{fill:#A67F52;}
	.st127{fill:#775625;}
	.st128{fill:#A6BEC4;}
	.st129{fill:#DBB281;}
	.st130{fill:#795B25;}
	.st131{fill:#DCD478;}
	.st132{fill:#DCDCDB;}
	.st133{fill:#0E9554;}
	.st134{fill:#A9714A;}
	.st135{fill:#A9A9A8;}
	.st136{fill:#DFDEDD;}
]]>
</style>
<g>
	<g>
		<g>
			<circle class="st84" cx="68.416" cy="67.559" r="63.333"/>
		</g>
	</g>
	<g>
		<g>
			<g>
				<path class="st111" d="M58.953,47.787c0-5.585,4.568-8.342,10.203-8.342s10.202,2.757,10.202,8.342
					c0,0.118-0.002,6.279-0.007,6.397l-20.393-0.05C58.955,54.033,58.953,47.888,58.953,47.787z"/>
			</g>
		</g>
		<g>
			<g>
				<g>
					<path class="st111" d="M93.066,57.862h-5.275c-0.776,0-1.406-0.63-1.406-1.406c0-0.777,0.63-1.406,1.406-1.406h3.868v-7.736
						c0-0.374,0.148-0.73,0.412-0.995c0,0,8.471-7.581,9.021-7.032c0.549,0.549-6.62,8.609-6.62,8.609v8.56
						C94.473,57.232,93.842,57.862,93.066,57.862z"/>
				</g>
			</g>
			<g>
				<g>
					<path class="st111" d="M104.67,77.201c-0.417,0-0.83-0.186-1.106-0.538l-7.313-9.308h-7.757c-0.776,0-1.406-0.629-1.406-1.406
						s0.63-1.407,1.406-1.407h8.439c0.431,0,0.84,0.199,1.106,0.538l6.892,8.772c0,0,7.089-4.441,7.55-3.815
						c0.46,0.625-6.979,6.889-6.979,6.889C105.252,77.111,104.96,77.201,104.67,77.201z"/>
				</g>
			</g>
			<g>
				<g>
					<path class="st111" d="M96.387,94.105c-0.301-0.25-0.484-0.614-0.506-1.005l-0.663-11.902l-7.783-4.541
						c-0.671-0.391-0.897-1.252-0.506-1.924c0.392-0.671,1.25-0.897,1.923-0.505l8.438,4.922c0.409,0.238,0.669,0.666,0.696,1.137
						l0.669,12.045c0,0,12.515,11.187,12.02,11.785C110.396,104.453,96.387,94.105,96.387,94.105z"/>
				</g>
			</g>
			<g>
				<g>
					<path class="st111" d="M50.872,57.862h-5.274c-0.775,0-1.406-0.63-1.406-1.406v-8.56c0,0-7.169-8.06-6.62-8.609
						c0.551-0.549,9.021,7.032,9.021,7.032c0.265,0.264,0.412,0.621,0.412,0.995v7.736h3.868c0.777,0,1.407,0.629,1.407,1.406
						C52.279,57.232,51.649,57.862,50.872,57.862z"/>
				</g>
			</g>
			<g>
				<g>
					<path class="st111" d="M33.995,77.201c-0.291,0-0.583-0.089-0.835-0.275c0,0-7.438-6.264-6.978-6.889
						c0.459-0.624,7.55,3.815,7.55,3.815l6.892-8.772c0.267-0.339,0.676-0.538,1.106-0.538h8.438c0.777,0,1.407,0.63,1.407,1.407
						s-0.63,1.406-1.407,1.406h-7.755l-7.313,9.308C34.824,77.015,34.411,77.201,33.995,77.201z"/>
				</g>
			</g>
			<g>
				<g>
					<path class="st111" d="M27.988,104.117c-0.493-0.599,12.021-11.785,12.021-11.785l0.668-12.045
						c0.027-0.471,0.288-0.899,0.696-1.137l8.438-4.922c0.674-0.392,1.532-0.166,1.924,0.505c0.393,0.672,0.166,1.533-0.505,1.924
						l-7.784,4.541l-0.663,11.902c-0.021,0.391-0.205,0.755-0.506,1.005C42.277,94.105,28.268,104.453,27.988,104.117z"/>
				</g>
			</g>
		</g>
		<g>
			<g>
				<path class="st111" d="M88.647,82.45c0,12.635-8.728,22.879-19.491,22.879s-19.49-10.245-19.49-22.879
					c0-0.269,0.003-29.54,0.011-29.807l38.963,0.115C88.645,52.986,88.647,82.22,88.647,82.45z"/>
			</g>
		</g>
		<g>
			<path class="st42" d="M89.079,52.792c-0.004-0.187-0.127-0.351-0.305-0.408c-0.114-0.036-11.395-3.652-20.181-3.652
				c-8.789,0-18.961,3.518-19.063,3.552c-0.171,0.061-0.288,0.222-0.295,0.404c-0.008,0.248-0.012,26.538-0.012,26.802
				c0,11.583,8.942,21.006,19.933,21.006s19.933-9.423,19.933-21.006C89.089,79.227,89.085,53.005,89.079,52.792z"/>
		</g>
		<g>
			<path class="st20" d="M68.594,48.732c-8.789,0-18.961,3.518-19.063,3.552c-0.171,0.061-0.288,0.222-0.295,0.404
				c-0.008,0.248-0.012,26.538-0.012,26.802c0,11.583,8.942,21.006,19.933,21.006L68.594,48.732z"/>
		</g>
		<g>
			<g>
				<path class="st111" d="M70.211,103.25c0,0.582-0.472,1.055-1.055,1.055l0,0c-0.583,0-1.055-0.473-1.055-1.055
					c0,0,0.472-26.167,1.055-26.167l0,0C69.739,77.083,70.211,103.25,70.211,103.25z"/>
			</g>
		</g>
		<g>
			<g>
				<g>
					<g>
						<path class="st97" d="M75.718,45.79c-0.24,0-0.486-0.063-0.71-0.195c-0.669-0.393-0.895-1.253-0.5-1.923
							c0.403-0.688,10.03-16.835,23.521-17.57c0.758-0.044,1.439,0.552,1.481,1.329c0.044,0.775-0.553,1.438-1.326,1.48
							c-11.979,0.654-21.159,16.03-21.25,16.185C76.67,45.542,76.2,45.79,75.718,45.79z"/>
					</g>
				</g>
				<g>
					<g>
						<circle class="st97" cx="98.105" cy="27.505" r="2.109"/>
					</g>
				</g>
			</g>
			<g>
				<g>
					<g>
						<path class="st97" d="M63.181,45.79c-0.482,0-0.952-0.248-1.215-0.694c-0.091-0.155-9.271-15.531-21.251-16.185
							c-0.773-0.042-1.368-0.706-1.327-1.48c0.043-0.777,0.704-1.373,1.483-1.329c13.49,0.735,23.117,16.882,23.521,17.57
							c0.394,0.669,0.169,1.53-0.501,1.923C63.668,45.727,63.422,45.79,63.181,45.79z"/>
					</g>
				</g>
				<g>
					<g>
						<circle class="st97" cx="39.973" cy="27.505" r="2.109"/>
					</g>
				</g>
			</g>
		</g>
	</g>
</g>
</svg>
