<?xml version="1.0" encoding="utf-8"?>
<!-- Generator: Adobe Illustrator 16.0.0, SVG Export Plug-In . SVG Version: 6.00 Build 0)  -->
<!DOCTYPE svg PUBLIC "-//W3C//DTD SVG 1.1//EN" "http://www.w3.org/Graphics/SVG/1.1/DTD/svg11.dtd">
<svg version="1.1" id="Layer_1" xmlns="http://www.w3.org/2000/svg" xmlns:xlink="http://www.w3.org/1999/xlink" x="0px" y="0px"
	 width="136.833px" height="136.834px" viewBox="0 0 136.833 136.834" style="enable-background:new 0 0 136.833 136.834;"
	 xml:space="preserve">
<style type="text/css">
<![CDATA[
	.st0{fill:#AA7435;}
	.st1{fill:#AA7853;}
	.st2{fill:#49341B;}
	.st3{fill:#AC7753;}
	.st4{fill:#49A0AE;}
	.st5{fill:#ACDDDE;}
	.st6{fill:#AD6227;}
	.st7{fill:#AE7C31;}
	.st8{fill:#AE8038;}
	.st9{fill:#AF7B59;}
	.st10{fill:#E0E8EA;}
	.st11{fill:#E17A2D;}
	.st12{fill:#159F57;}
	.st13{fill:#15AA63;}
	.st14{fill:#4B3937;}
	.st15{fill:#4CB648;}
	.st16{fill:#E79E2D;}
	.st17{fill:#E7E6E6;}
	.st18{fill:#4D8353;}
	.st19{fill:#E97E88;}
	.st20{fill:#4F412F;}
	.st21{fill:#805C26;}
	.st22{fill:#82623E;}
	.st23{fill:#82766E;}
	.st24{fill:#B28D5D;}
	.st25{fill:none;stroke:#49341B;stroke-width:5;stroke-linecap:round;stroke-linejoin:round;stroke-miterlimit:10;}
	.st26{fill:#B38669;}
	.st27{fill:#84654F;}
	.st28{fill:#84B340;}
	.st29{fill:#B58C4F;}
	.st30{fill:#1AAA5B;}
	.st31{fill:#886A4B;}
	.st32{fill:#1D1D1D;}
	.st33{fill:#896852;}
	.st34{fill:#ECEBE9;}
	.st35{fill:#B9803D;}
	.st36{fill:#1EAE64;}
	.st37{fill:#B9CD33;}
	.st38{fill:#EDC92C;}
	.st39{fill:#EF4F29;}
	.st40{fill:#EFEFEF;}
	.st41{fill:#53431F;}
	.st42{fill:#564635;}
	.st43{fill:#8A6638;}
	.st44{fill:#57564E;}
	.st45{fill:#57803A;}
	.st46{fill:#8B7363;}
	.st47{fill:#BB996C;}
	.st48{fill:#8C6D4A;}
	.st49{fill:#8C7B69;}
	.st50{fill:#BBBBBB;}
	.st51{fill:#8D6341;}
	.st52{fill:#8E6E56;}
	.st53{fill:#BE9041;}
	.st54{fill:#232323;}
	.st55{fill:#F3CED1;}
	.st56{fill:#F48C92;}
	.st57{fill:#F4C6C8;}
	.st58{fill:#F4DF81;}
	.st59{fill:#F4E028;}
	.st60{fill:#F5F3E2;}
	.st61{fill:#F5F6F7;}
	.st62{fill:#28B467;}
	.st63{fill:#5D2611;}
	.st64{fill:#F8F1E4;}
	.st65{fill:#C04727;}
	.st66{fill:#91722F;}
	.st67{fill:#917853;}
	.st68{fill:#C0BDBB;}
	.st69{fill:#C15832;}
	.st70{fill:#926D3E;}
	.st71{fill:#927352;}
	.st72{fill:#C28B4F;}
	.st73{fill:#937A5E;}
	.st74{fill:#C39269;}
	.st75{fill:#946F3B;}
	.st76{fill:#966439;}
	.st77{fill:#98732B;}
	.st78{fill:#99806D;}
	.st79{fill:#99AEB2;}
	.st80{fill:#2E2010;}
	.st81{opacity:0.8;}
	.st82{fill:#FFFFFF;}
	.st83{fill:#643014;}
	.st84{fill:#65A844;}
	.st85{fill:#66472A;}
	.st86{fill:#666866;}
	.st87{fill:#9A652D;}
	.st88{fill:#9ACA42;}
	.st89{fill-rule:evenodd;clip-rule:evenodd;fill:#F5F3E2;}
	.st90{fill:#CAB252;}
	.st91{fill:#9C653E;}
	.st92{fill:#9C7B2F;}
	.st93{fill:#CBB5A2;}
	.st94{fill:#693215;}
	.st95{fill:#9E6D46;}
	.st96{fill:#9E8166;}
	.st97{fill:#30251A;}
	.st98{fill:#9F7150;}
	.st99{fill:#9F7235;}
	.st100{fill:#9F772B;}
	.st101{fill:#31312F;}
	.st102{fill:#344E5D;}
	.st103{fill:#357180;}
	.st104{fill:#6A5D56;}
	.st105{fill:#6F4D21;}
	.st106{fill:#6F933D;}
	.st107{fill:#D2D2D2;}
	.st108{fill:#D65228;}
	.st109{fill-rule:evenodd;clip-rule:evenodd;fill:#CAB252;}
	.st110{fill:#D7DABA;}
	.st111{fill:#3D3123;}
	.st112{fill:#3E3940;}
	.st113{fill:#A07649;}
	.st114{fill:#717272;}
	.st115{fill:#A0D2DC;}
	.st116{fill:#73903C;}
	.st117{fill:#A2D4DE;}
	.st118{fill:#A38876;}
	.st119{fill:#744A20;}
	.st120{fill:#A45B26;}
	.st121{fill:#A47E2D;}
	.st122{fill:#A48131;}
	.st123{fill:#763517;}
	.st124{fill:#765422;}
	.st125{fill:#A66C41;}
	.st126{fill:#A67F52;}
	.st127{fill:#775625;}
	.st128{fill:#A6BEC4;}
	.st129{fill:#DBB281;}
	.st130{fill:#795B25;}
	.st131{fill:#DCD478;}
	.st132{fill:#DCDCDB;}
	.st133{fill:#0E9554;}
	.st134{fill:#A9714A;}
	.st135{fill:#A9A9A8;}
	.st136{fill:#DFDEDD;}
]]>
</style>
<g>
	<g>
		<g>
			<circle class="st102" cx="68.417" cy="68.397" r="63.333"/>
		</g>
	</g>
	<g>
		<path class="st18" d="M68.413,131.771c26.934,0,49.926-16.822,59.083-40.525c-16.535-9.968-38.036-14.699-61.544-14.699
			c-21.617,0-41.535,4.004-57.458,12.398C17.018,113.854,40.616,131.771,68.413,131.771z"/>
	</g>
	<g>
		<polygon class="st110" points="102.093,35.101 103.108,38.223 106.389,38.223 103.734,40.152 104.749,43.273 102.093,41.343 
			99.438,43.273 100.453,40.152 97.797,38.223 101.079,38.223 		"/>
	</g>
	<g>
		<polygon class="st110" points="86.323,24.037 87.026,26.2 89.299,26.2 87.459,27.536 88.163,29.698 86.323,28.362 84.483,29.698 
			85.186,27.536 83.346,26.2 85.62,26.2 		"/>
	</g>
	<g>
		<polygon class="st110" points="102.465,56.458 103.168,58.622 105.442,58.622 103.602,59.958 104.305,62.12 102.465,60.784 
			100.625,62.12 101.329,59.958 99.489,58.622 101.762,58.622 		"/>
	</g>
	<g>
		<g>
			<path class="st8" d="M46.288,89.159c-1.6,1.6-2.309,3.482-1.584,4.207l0,0c0.724,0.724,2.606,0.015,4.205-1.584l20.585-20.585
				c1.6-1.599,2.308-3.481,1.583-4.206l0,0c-0.723-0.725-2.605-0.016-4.205,1.584L46.288,89.159z"/>
		</g>
	</g>
	<g>
		<g>
			<path class="st53" d="M43.336,78.325c-2.263,0-4.096,0.83-4.096,1.855l0,0c0,1.022,1.833,1.853,4.094,1.853h29.111
				c2.262,0,4.094-0.83,4.094-1.854l0,0c0.002-1.023-1.832-1.854-4.094-1.854H43.336z"/>
		</g>
	</g>
	<g>
		<g>
			<path class="st29" d="M59.745,65.625c0-2.264-0.83-4.096-1.854-4.096l0,0c-1.023,0-1.854,1.832-1.854,4.094v29.111
				c0,2.262,0.83,4.094,1.854,4.094l0,0c1.023,0.002,1.854-1.832,1.854-4.094V65.625z"/>
		</g>
	</g>
	<g>
		<g>
			<path class="st7" d="M66.871,91.782c1.6,1.6,3.482,2.309,4.207,1.584l0,0c0.724-0.725,0.015-2.607-1.584-4.205L48.909,68.575
				c-1.6-1.6-3.481-2.307-4.206-1.582l0,0c-0.725,0.723-0.016,2.605,1.584,4.205L66.871,91.782z"/>
		</g>
	</g>
	<g>
		<g>
			<path class="st8" d="M66.121,89.159c-1.6,1.6-2.309,3.482-1.584,4.207l0,0c0.724,0.724,2.606,0.015,4.205-1.584l20.585-20.585
				c1.6-1.599,2.308-3.481,1.583-4.206l0,0c-0.723-0.725-2.605-0.016-4.205,1.584L66.121,89.159z"/>
		</g>
	</g>
	<g>
		<g>
			<path class="st53" d="M86.704,91.782c1.6,1.6,3.482,2.309,4.207,1.584l0,0c0.724-0.725,0.015-2.607-1.584-4.205L68.742,68.575
				c-1.6-1.6-3.481-2.307-4.206-1.582l0,0c-0.725,0.723-0.016,2.605,1.584,4.205L86.704,91.782z"/>
		</g>
	</g>
	<g>
		<g>
			<path class="st29" d="M92.278,82.034c2.262,0,4.094-0.83,4.094-1.855l0,0c0-1.023-1.833-1.854-4.094-1.854H63.167
				c-2.262,0-4.094,0.83-4.094,1.855l0,0c0,1.023,1.832,1.854,4.094,1.854H92.278z"/>
		</g>
	</g>
	<g>
		<g>
			<path class="st7" d="M75.868,94.735c0,2.262,0.83,4.094,1.855,4.094l0,0c1.023,0,1.854-1.832,1.854-4.094V65.624
				c0-2.262-0.83-4.094-1.855-4.094l0,0c-1.023,0-1.854,1.832-1.854,4.094V94.735z"/>
		</g>
	</g>
	<g>
		<g>
			<g>
				<path class="st11" d="M61.327,54.019c2.207-5.74,1.781-14.417,1.781-14.417s5.872,2.461,9.924,9.214
					c3.811,6.35,0.211,15.806,0.211,15.806c2.807-2.807,3.846-5.611,3.941-8.982c3.152,5.033,5.59,10.801,5.59,16.637
					c0,7.221-6.566,13.068-14.675,13.072c-8.104-0.004-14.674-5.852-14.674-13.072C53.425,65.247,58.725,60.788,61.327,54.019z"/>
			</g>
		</g>
		<g class="st81">
			<g>
				<g>
					<path class="st59" d="M64.208,66.316c1.212-3.481,0.979-8.743,0.979-8.743s11.626,8.848,10.799,19.816
						c-0.331,4.367-3.606,7.926-8.06,7.928c-4.449-0.002-8.057-3.549-8.057-7.928C59.87,73.126,62.778,70.422,64.208,66.316z"/>
				</g>
			</g>
		</g>
		<g class="st81">
			<g>
				<g>
					<path class="st82" d="M65.579,73.128c0.768-2.206,0.619-5.54,0.619-5.54s7.365,5.607,6.842,12.557
						c-0.209,2.766-2.284,5.021-5.105,5.021c-2.818,0-5.105-2.248-5.105-5.021C62.829,77.443,64.672,75.731,65.579,73.128z"/>
				</g>
			</g>
		</g>
	</g>
</g>
</svg>
