<?xml version="1.0" encoding="utf-8"?>
<!-- Generator: Adobe Illustrator 16.0.0, SVG Export Plug-In . SVG Version: 6.00 Build 0)  -->
<!DOCTYPE svg PUBLIC "-//W3C//DTD SVG 1.1//EN" "http://www.w3.org/Graphics/SVG/1.1/DTD/svg11.dtd">
<svg version="1.1" id="Layer_1" xmlns="http://www.w3.org/2000/svg" xmlns:xlink="http://www.w3.org/1999/xlink" x="0px" y="0px"
	 width="136.833px" height="136.833px" viewBox="0 0 136.833 136.833" style="enable-background:new 0 0 136.833 136.833;"
	 xml:space="preserve">
<style type="text/css">
<![CDATA[
	.st0{fill:#AA7435;}
	.st1{fill:#AA7853;}
	.st2{fill:#49341B;}
	.st3{fill:#AC7753;}
	.st4{fill:#49A0AE;}
	.st5{fill:#ACDDDE;}
	.st6{fill:#AD6227;}
	.st7{fill:#AE7C31;}
	.st8{fill:#AE8038;}
	.st9{fill:#AF7B59;}
	.st10{fill:#E0E8EA;}
	.st11{fill:#E17A2D;}
	.st12{fill:#159F57;}
	.st13{fill:#15AA63;}
	.st14{fill:#4B3937;}
	.st15{fill:#4CB648;}
	.st16{fill:#E79E2D;}
	.st17{fill:#E7E6E6;}
	.st18{fill:#4D8353;}
	.st19{fill:#E97E88;}
	.st20{fill:#4F412F;}
	.st21{fill:#805C26;}
	.st22{fill:#82623E;}
	.st23{fill:#82766E;}
	.st24{fill:#B28D5D;}
	.st25{fill:none;stroke:#49341B;stroke-width:5;stroke-linecap:round;stroke-linejoin:round;stroke-miterlimit:10;}
	.st26{fill:#B38669;}
	.st27{fill:#84654F;}
	.st28{fill:#84B340;}
	.st29{fill:#B58C4F;}
	.st30{fill:#1AAA5B;}
	.st31{fill:#886A4B;}
	.st32{fill:#1D1D1D;}
	.st33{fill:#896852;}
	.st34{fill:#ECEBE9;}
	.st35{fill:#B9803D;}
	.st36{fill:#1EAE64;}
	.st37{fill:#B9CD33;}
	.st38{fill:#EDC92C;}
	.st39{fill:#EF4F29;}
	.st40{fill:#EFEFEF;}
	.st41{fill:#53431F;}
	.st42{fill:#564635;}
	.st43{fill:#8A6638;}
	.st44{fill:#57564E;}
	.st45{fill:#57803A;}
	.st46{fill:#8B7363;}
	.st47{fill:#BB996C;}
	.st48{fill:#8C6D4A;}
	.st49{fill:#8C7B69;}
	.st50{fill:#BBBBBB;}
	.st51{fill:#8D6341;}
	.st52{fill:#8E6E56;}
	.st53{fill:#BE9041;}
	.st54{fill:#232323;}
	.st55{fill:#F3CED1;}
	.st56{fill:#F48C92;}
	.st57{fill:#F4C6C8;}
	.st58{fill:#F4DF81;}
	.st59{fill:#F4E028;}
	.st60{fill:#F5F3E2;}
	.st61{fill:#F5F6F7;}
	.st62{fill:#28B467;}
	.st63{fill:#5D2611;}
	.st64{fill:#F8F1E4;}
	.st65{fill:#C04727;}
	.st66{fill:#91722F;}
	.st67{fill:#917853;}
	.st68{fill:#C0BDBB;}
	.st69{fill:#C15832;}
	.st70{fill:#926D3E;}
	.st71{fill:#927352;}
	.st72{fill:#C28B4F;}
	.st73{fill:#937A5E;}
	.st74{fill:#C39269;}
	.st75{fill:#946F3B;}
	.st76{fill:#966439;}
	.st77{fill:#98732B;}
	.st78{fill:#99806D;}
	.st79{fill:#99AEB2;}
	.st80{fill:#2E2010;}
	.st81{opacity:0.8;}
	.st82{fill:#FFFFFF;}
	.st83{fill:#643014;}
	.st84{fill:#65A844;}
	.st85{fill:#66472A;}
	.st86{fill:#666866;}
	.st87{fill:#9A652D;}
	.st88{fill:#9ACA42;}
	.st89{fill-rule:evenodd;clip-rule:evenodd;fill:#F5F3E2;}
	.st90{fill:#CAB252;}
	.st91{fill:#9C653E;}
	.st92{fill:#9C7B2F;}
	.st93{fill:#CBB5A2;}
	.st94{fill:#693215;}
	.st95{fill:#9E6D46;}
	.st96{fill:#9E8166;}
	.st97{fill:#30251A;}
	.st98{fill:#9F7150;}
	.st99{fill:#9F7235;}
	.st100{fill:#9F772B;}
	.st101{fill:#31312F;}
	.st102{fill:#344E5D;}
	.st103{fill:#357180;}
	.st104{fill:#6A5D56;}
	.st105{fill:#6F4D21;}
	.st106{fill:#6F933D;}
	.st107{fill:#D2D2D2;}
	.st108{fill:#D65228;}
	.st109{fill-rule:evenodd;clip-rule:evenodd;fill:#CAB252;}
	.st110{fill:#D7DABA;}
	.st111{fill:#3D3123;}
	.st112{fill:#3E3940;}
	.st113{fill:#A07649;}
	.st114{fill:#717272;}
	.st115{fill:#A0D2DC;}
	.st116{fill:#73903C;}
	.st117{fill:#A2D4DE;}
	.st118{fill:#A38876;}
	.st119{fill:#744A20;}
	.st120{fill:#A45B26;}
	.st121{fill:#A47E2D;}
	.st122{fill:#A48131;}
	.st123{fill:#763517;}
	.st124{fill:#765422;}
	.st125{fill:#A66C41;}
	.st126{fill:#A67F52;}
	.st127{fill:#775625;}
	.st128{fill:#A6BEC4;}
	.st129{fill:#DBB281;}
	.st130{fill:#795B25;}
	.st131{fill:#DCD478;}
	.st132{fill:#DCDCDB;}
	.st133{fill:#0E9554;}
	.st134{fill:#A9714A;}
	.st135{fill:#A9A9A8;}
	.st136{fill:#DFDEDD;}
]]>
</style>
<g>
	<g>
		<g>
			<circle class="st103" cx="68.417" cy="67.559" r="63.333"/>
		</g>
	</g>
	<g>
		<g>
			<g>
				<path class="st56" d="M49.238,111.09c12.239-4.08,16.319-13.26,18.359-27.538c0,0-11.219,2.55-20.398,10.199
					S37,115.169,49.238,111.09z"/>
			</g>
		</g>
		<g>
			<g>
				<path class="st19" d="M50.527,107.377c8.848-2.949,11.797-9.586,13.271-19.907c0,0-8.11,1.843-14.746,7.373
					C42.417,100.373,41.68,110.327,50.527,107.377z"/>
			</g>
		</g>
		<g>
			<g>
				<path class="st57" d="M70.622,83.552c0,0,32.343,11.271,44.877-16.829c1.439-3.228,5.1-17.338,0.51-27.028
					c0,0-2.55-13.259-20.398,5.1C95.61,44.795,75.212,64.172,70.622,83.552z"/>
			</g>
		</g>
		<g>
			<g>
				<path class="st57" d="M67.747,83.552c0,0-32.343,11.271-44.877-16.829c-1.439-3.228-5.1-17.338-0.51-27.028
					c0,0,2.55-13.259,20.398,5.1C42.759,44.795,63.157,64.172,67.747,83.552z"/>
			</g>
		</g>
		<g>
			<g>
				<path class="st55" d="M75.549,81.074c0,0,25.894,6.754,36.777-15.789c0,0,3.887-13.215,0.389-20.6
					c0,0-1.944-10.105-15.547,3.887C97.167,48.572,79.047,66.304,75.549,81.074z"/>
			</g>
		</g>
		<g>
			<g>
				<path class="st56" d="M88.981,111.09c-12.239-4.08-16.319-13.26-18.359-27.538c0,0,11.219,2.55,20.398,10.199
					S101.22,115.169,88.981,111.09z"/>
			</g>
		</g>
		<g>
			<g>
				<path class="st44" d="M71.932,95.025c0,1.269-1.569,7.396-2.836,7.396l0,0c-1.267,0-2.836-6.127-2.836-7.396l1.721-17.178
					l-1.18-4.24c0-1.268,1.028-5.991,2.295-5.991l0,0c1.267,0,2.295,4.724,2.295,5.991l-1.18,4.145L71.932,95.025z"/>
			</g>
		</g>
		<g>
			<g>
				<path class="st19" d="M87.252,107.377c-8.848-2.949-11.797-9.586-13.271-19.907c0,0,8.11,1.843,14.746,7.373
					C95.362,100.373,96.1,110.327,87.252,107.377z"/>
			</g>
		</g>
		<g>
			<g>
				<path class="st55" d="M62.924,81.324c0,0-26.32,6.504-37.203-16.039c0,0-3.887-13.215-0.389-20.6c0,0,1.944-10.105,15.547,3.887
					C40.879,48.572,59.426,66.554,62.924,81.324z"/>
			</g>
		</g>
	</g>
</g>
</svg>
