<?xml version="1.0" encoding="utf-8"?>
<!-- Generator: Adobe Illustrator 16.0.0, SVG Export Plug-In . SVG Version: 6.00 Build 0)  -->
<!DOCTYPE svg PUBLIC "-//W3C//DTD SVG 1.1//EN" "http://www.w3.org/Graphics/SVG/1.1/DTD/svg11.dtd">
<svg version="1.1" id="Layer_1" xmlns="http://www.w3.org/2000/svg" xmlns:xlink="http://www.w3.org/1999/xlink" x="0px" y="0px"
	 width="136.833px" height="136.833px" viewBox="0 0 136.833 136.833" style="enable-background:new 0 0 136.833 136.833;"
	 xml:space="preserve">
<style type="text/css">
<![CDATA[
	.st0{fill:#AA7435;}
	.st1{fill:#AA7853;}
	.st2{fill:#49341B;}
	.st3{fill:#AC7753;}
	.st4{fill:#49A0AE;}
	.st5{fill:#ACDDDE;}
	.st6{fill:#AD6227;}
	.st7{fill:#AE7C31;}
	.st8{fill:#AE8038;}
	.st9{fill:#AF7B59;}
	.st10{fill:#E0E8EA;}
	.st11{fill:#E17A2D;}
	.st12{fill:#159F57;}
	.st13{fill:#15AA63;}
	.st14{fill:#4B3937;}
	.st15{fill:#4CB648;}
	.st16{fill:#E79E2D;}
	.st17{fill:#E7E6E6;}
	.st18{fill:#4D8353;}
	.st19{fill:#E97E88;}
	.st20{fill:#4F412F;}
	.st21{fill:#805C26;}
	.st22{fill:#82623E;}
	.st23{fill:#82766E;}
	.st24{fill:#B28D5D;}
	.st25{fill:none;stroke:#49341B;stroke-width:5;stroke-linecap:round;stroke-linejoin:round;stroke-miterlimit:10;}
	.st26{fill:#B38669;}
	.st27{fill:#84654F;}
	.st28{fill:#84B340;}
	.st29{fill:#B58C4F;}
	.st30{fill:#1AAA5B;}
	.st31{fill:#886A4B;}
	.st32{fill:#1D1D1D;}
	.st33{fill:#896852;}
	.st34{fill:#ECEBE9;}
	.st35{fill:#B9803D;}
	.st36{fill:#1EAE64;}
	.st37{fill:#B9CD33;}
	.st38{fill:#EDC92C;}
	.st39{fill:#EF4F29;}
	.st40{fill:#EFEFEF;}
	.st41{fill:#53431F;}
	.st42{fill:#564635;}
	.st43{fill:#8A6638;}
	.st44{fill:#57564E;}
	.st45{fill:#57803A;}
	.st46{fill:#8B7363;}
	.st47{fill:#BB996C;}
	.st48{fill:#8C6D4A;}
	.st49{fill:#8C7B69;}
	.st50{fill:#BBBBBB;}
	.st51{fill:#8D6341;}
	.st52{fill:#8E6E56;}
	.st53{fill:#BE9041;}
	.st54{fill:#232323;}
	.st55{fill:#F3CED1;}
	.st56{fill:#F48C92;}
	.st57{fill:#F4C6C8;}
	.st58{fill:#F4DF81;}
	.st59{fill:#F4E028;}
	.st60{fill:#F5F3E2;}
	.st61{fill:#F5F6F7;}
	.st62{fill:#28B467;}
	.st63{fill:#5D2611;}
	.st64{fill:#F8F1E4;}
	.st65{fill:#C04727;}
	.st66{fill:#91722F;}
	.st67{fill:#917853;}
	.st68{fill:#C0BDBB;}
	.st69{fill:#C15832;}
	.st70{fill:#926D3E;}
	.st71{fill:#927352;}
	.st72{fill:#C28B4F;}
	.st73{fill:#937A5E;}
	.st74{fill:#C39269;}
	.st75{fill:#946F3B;}
	.st76{fill:#966439;}
	.st77{fill:#98732B;}
	.st78{fill:#99806D;}
	.st79{fill:#99AEB2;}
	.st80{fill:#2E2010;}
	.st81{opacity:0.8;}
	.st82{fill:#FFFFFF;}
	.st83{fill:#643014;}
	.st84{fill:#65A844;}
	.st85{fill:#66472A;}
	.st86{fill:#666866;}
	.st87{fill:#9A652D;}
	.st88{fill:#9ACA42;}
	.st89{fill-rule:evenodd;clip-rule:evenodd;fill:#F5F3E2;}
	.st90{fill:#CAB252;}
	.st91{fill:#9C653E;}
	.st92{fill:#9C7B2F;}
	.st93{fill:#CBB5A2;}
	.st94{fill:#693215;}
	.st95{fill:#9E6D46;}
	.st96{fill:#9E8166;}
	.st97{fill:#30251A;}
	.st98{fill:#9F7150;}
	.st99{fill:#9F7235;}
	.st100{fill:#9F772B;}
	.st101{fill:#31312F;}
	.st102{fill:#344E5D;}
	.st103{fill:#357180;}
	.st104{fill:#6A5D56;}
	.st105{fill:#6F4D21;}
	.st106{fill:#6F933D;}
	.st107{fill:#D2D2D2;}
	.st108{fill:#D65228;}
	.st109{fill-rule:evenodd;clip-rule:evenodd;fill:#CAB252;}
	.st110{fill:#D7DABA;}
	.st111{fill:#3D3123;}
	.st112{fill:#3E3940;}
	.st113{fill:#A07649;}
	.st114{fill:#717272;}
	.st115{fill:#A0D2DC;}
	.st116{fill:#73903C;}
	.st117{fill:#A2D4DE;}
	.st118{fill:#A38876;}
	.st119{fill:#744A20;}
	.st120{fill:#A45B26;}
	.st121{fill:#A47E2D;}
	.st122{fill:#A48131;}
	.st123{fill:#763517;}
	.st124{fill:#765422;}
	.st125{fill:#A66C41;}
	.st126{fill:#A67F52;}
	.st127{fill:#775625;}
	.st128{fill:#A6BEC4;}
	.st129{fill:#DBB281;}
	.st130{fill:#795B25;}
	.st131{fill:#DCD478;}
	.st132{fill:#DCDCDB;}
	.st133{fill:#0E9554;}
	.st134{fill:#A9714A;}
	.st135{fill:#A9A9A8;}
	.st136{fill:#DFDEDD;}
]]>
</style>
<g>
	<g>
		<g>
			<path class="st58" d="M5.084,68.417c0-34.98,28.356-63.334,63.331-63.334c34.979,0,63.334,28.354,63.334,63.334
				c0,34.977-28.355,63.332-63.334,63.332C33.44,131.75,5.084,103.394,5.084,68.417z"/>
		</g>
	</g>
	<g>
		<g>
			<g>
				<g>
					<path class="st3" d="M125.435,96.009c-20.244-3.033-32.535-21.703-32.535-21.703L64.335,86.724
						c4.969,22.355,19.873,31.047,19.873,31.047c3.377,3.195,6.773,5.977,10.17,8.41
						C107.935,120.078,118.964,109.357,125.435,96.009z"/>
				</g>
			</g>
		</g>
		<g>
			<g>
				<g>
					<g>
						<path class="st1" d="M94.337,48.415c-0.072-0.193-0.152-0.382-0.242-0.563L76.661,32.405
							c-2.609-1.221-6.029,0.623-9.445,0.623c-3.422,0-6.84-1.844-9.449-0.623L40.335,47.851c-0.105,0.227-0.205,0.468-0.293,0.722
							c1.246,1.007,2.078,2.74,2.078,4.726c0,1.613-0.563,3.073-1.439,4.093l1.041,18.038l9.727,13.957
							c8.723,2.453,22.852,2.453,31.568,0l9.035-12.439l1.6-19.365c-0.977-1.022-1.6-2.561-1.6-4.283
							C92.052,51.206,92.968,49.382,94.337,48.415z"/>
					</g>
				</g>
				<g>
					<g>
						<path class="st33" d="M40.042,48.573c-0.881,2.45-0.787,5.925,0.293,8.153l0.346,0.665c0.877-1.02,3.57-2.479,3.57-4.093
							C44.251,51.313,41.288,49.58,40.042,48.573z"/>
					</g>
				</g>
				<g>
					<g>
						<path class="st33" d="M94.337,48.415c-1.369,0.968-4.691,2.791-4.691,4.884c0,1.723,3.029,3.261,4.006,4.283l0.443-0.855
							C95.196,54.454,95.276,50.876,94.337,48.415z"/>
					</g>
				</g>
			</g>
			<g>
				<g>
					<path class="st1" d="M44.94,45.138c0,0-9.262-26.706,14.127-8.73L44.94,45.138z"/>
				</g>
			</g>
			<g>
				<g>
					<path class="st1" d="M89.351,44.855c0,0,9.252-26.707-14.129-8.736L89.351,44.855z"/>
				</g>
			</g>
			<g>
				<g>
					<path class="st26" d="M52.272,86.23c0,0,2.539,7.783,5.451,10.139c2.916,2.355,6.182,2.742,9.143,2.766
						c3.186,0.039,6.693-0.479,9.908-2.766c3.215-2.285,5.385-10.139,5.385-10.139c0.15-0.396,0.793-6.955-2.473-12.205
						c-3.916-6.301-8.996-11.36-13.164-11.36c-4.34,0-10.883,5.646-13.77,12.163C50.565,79.761,52.132,85.857,52.272,86.23z"/>
				</g>
			</g>
			<g>
				<g>
					<path class="st98" d="M55.347,82.441l4.148,8.684c2.047,0.84,4.717,2.742,7.404,2.775c2.898,0.033,5.822-1.873,8.043-2.775
						l4.148-8.684c0.262-0.873-6.377-25.1-13.32-25.1C58.827,57.335,55.081,81.568,55.347,82.441z"/>
				</g>
			</g>
			<g>
				<g>
					<path class="st26" d="M54.94,76.714c0,0,1.039,7.713,4.064,10.143c3.025,2.432,8.141-1.514,8.141-1.514
						s5.297,3.418,8.143,1.514c2.844-1.904,4.203-10.143,4.203-10.143c0.217-0.689-4.527-12.693-9.635-18.625
						c-1.313-1.53-6.691-1.35-7.92,0.429C57.673,64.694,54.731,76.039,54.94,76.714z"/>
				</g>
			</g>
			<g>
				<g>
					<g>
						<path class="st98" d="M67.146,87.271c-0.332,0-0.609-0.268-0.615-0.602l-0.422-13.422c-0.008-0.34,0.262-0.625,0.604-0.641
							c0.354,0.021,0.625,0.262,0.633,0.602l0.424,13.426c0.01,0.338-0.256,0.621-0.598,0.637
							C67.157,87.271,67.151,87.271,67.146,87.271z"/>
					</g>
				</g>
			</g>
			<g>
				<g>
					<path class="st98" d="M57.608,64.257l4.146,7.762c1.383,0.617,3.164,1.879,4.975,1.939c2.133,0.057,4.318-1.213,5.949-1.939
						l4.143-7.762c0.105-0.324-1.236-2.529-3.205-6.836l-13.865,0.254C58.331,61.896,57.507,63.946,57.608,64.257z"/>
				</g>
			</g>
			<g>
				<g>
					<path class="st1" d="M57.608,60.875l4.146,7.768c1.383,0.613,3.164,1.883,4.98,1.934c2.135,0.059,4.313-1.211,5.943-1.934
						l4.143-7.768c0.074-0.224-0.578-1.015-1.67-3.826l-8.621-1.883l-7.898,2.217C57.913,60.035,57.544,60.66,57.608,60.875z"/>
				</g>
			</g>
		</g>
	</g>
</g>
</svg>
