<?xml version="1.0" encoding="utf-8"?>
<!-- Generator: Adobe Illustrator 16.0.0, SVG Export Plug-In . SVG Version: 6.00 Build 0)  -->
<!DOCTYPE svg PUBLIC "-//W3C//DTD SVG 1.1//EN" "http://www.w3.org/Graphics/SVG/1.1/DTD/svg11.dtd">
<svg version="1.1" id="Layer_1" xmlns="http://www.w3.org/2000/svg" xmlns:xlink="http://www.w3.org/1999/xlink" x="0px" y="0px"
	 width="136.833px" height="136.834px" viewBox="0 0 136.833 136.834" style="enable-background:new 0 0 136.833 136.834;"
	 xml:space="preserve">
<style type="text/css">
<![CDATA[
	.st0{fill:#AA7435;}
	.st1{fill:#AA7853;}
	.st2{fill:#49341B;}
	.st3{fill:#AC7753;}
	.st4{fill:#49A0AE;}
	.st5{fill:#ACDDDE;}
	.st6{fill:#AD6227;}
	.st7{fill:#AE7C31;}
	.st8{fill:#AE8038;}
	.st9{fill:#AF7B59;}
	.st10{fill:#E0E8EA;}
	.st11{fill:#E17A2D;}
	.st12{fill:#159F57;}
	.st13{fill:#15AA63;}
	.st14{fill:#4B3937;}
	.st15{fill:#4CB648;}
	.st16{fill:#E79E2D;}
	.st17{fill:#E7E6E6;}
	.st18{fill:#4D8353;}
	.st19{fill:#E97E88;}
	.st20{fill:#4F412F;}
	.st21{fill:#805C26;}
	.st22{fill:#82623E;}
	.st23{fill:#82766E;}
	.st24{fill:#B28D5D;}
	.st25{fill:none;stroke:#49341B;stroke-width:5;stroke-linecap:round;stroke-linejoin:round;stroke-miterlimit:10;}
	.st26{fill:#B38669;}
	.st27{fill:#84654F;}
	.st28{fill:#84B340;}
	.st29{fill:#B58C4F;}
	.st30{fill:#1AAA5B;}
	.st31{fill:#886A4B;}
	.st32{fill:#1D1D1D;}
	.st33{fill:#896852;}
	.st34{fill:#ECEBE9;}
	.st35{fill:#B9803D;}
	.st36{fill:#1EAE64;}
	.st37{fill:#B9CD33;}
	.st38{fill:#EDC92C;}
	.st39{fill:#EF4F29;}
	.st40{fill:#EFEFEF;}
	.st41{fill:#53431F;}
	.st42{fill:#564635;}
	.st43{fill:#8A6638;}
	.st44{fill:#57564E;}
	.st45{fill:#57803A;}
	.st46{fill:#8B7363;}
	.st47{fill:#BB996C;}
	.st48{fill:#8C6D4A;}
	.st49{fill:#8C7B69;}
	.st50{fill:#BBBBBB;}
	.st51{fill:#8D6341;}
	.st52{fill:#8E6E56;}
	.st53{fill:#BE9041;}
	.st54{fill:#232323;}
	.st55{fill:#F3CED1;}
	.st56{fill:#F48C92;}
	.st57{fill:#F4C6C8;}
	.st58{fill:#F4DF81;}
	.st59{fill:#F4E028;}
	.st60{fill:#F5F3E2;}
	.st61{fill:#F5F6F7;}
	.st62{fill:#28B467;}
	.st63{fill:#5D2611;}
	.st64{fill:#F8F1E4;}
	.st65{fill:#C04727;}
	.st66{fill:#91722F;}
	.st67{fill:#917853;}
	.st68{fill:#C0BDBB;}
	.st69{fill:#C15832;}
	.st70{fill:#926D3E;}
	.st71{fill:#927352;}
	.st72{fill:#C28B4F;}
	.st73{fill:#937A5E;}
	.st74{fill:#C39269;}
	.st75{fill:#946F3B;}
	.st76{fill:#966439;}
	.st77{fill:#98732B;}
	.st78{fill:#99806D;}
	.st79{fill:#99AEB2;}
	.st80{fill:#2E2010;}
	.st81{opacity:0.8;}
	.st82{fill:#FFFFFF;}
	.st83{fill:#643014;}
	.st84{fill:#65A844;}
	.st85{fill:#66472A;}
	.st86{fill:#666866;}
	.st87{fill:#9A652D;}
	.st88{fill:#9ACA42;}
	.st89{fill-rule:evenodd;clip-rule:evenodd;fill:#F5F3E2;}
	.st90{fill:#CAB252;}
	.st91{fill:#9C653E;}
	.st92{fill:#9C7B2F;}
	.st93{fill:#CBB5A2;}
	.st94{fill:#693215;}
	.st95{fill:#9E6D46;}
	.st96{fill:#9E8166;}
	.st97{fill:#30251A;}
	.st98{fill:#9F7150;}
	.st99{fill:#9F7235;}
	.st100{fill:#9F772B;}
	.st101{fill:#31312F;}
	.st102{fill:#344E5D;}
	.st103{fill:#357180;}
	.st104{fill:#6A5D56;}
	.st105{fill:#6F4D21;}
	.st106{fill:#6F933D;}
	.st107{fill:#D2D2D2;}
	.st108{fill:#D65228;}
	.st109{fill-rule:evenodd;clip-rule:evenodd;fill:#CAB252;}
	.st110{fill:#D7DABA;}
	.st111{fill:#3D3123;}
	.st112{fill:#3E3940;}
	.st113{fill:#A07649;}
	.st114{fill:#717272;}
	.st115{fill:#A0D2DC;}
	.st116{fill:#73903C;}
	.st117{fill:#A2D4DE;}
	.st118{fill:#A38876;}
	.st119{fill:#744A20;}
	.st120{fill:#A45B26;}
	.st121{fill:#A47E2D;}
	.st122{fill:#A48131;}
	.st123{fill:#763517;}
	.st124{fill:#765422;}
	.st125{fill:#A66C41;}
	.st126{fill:#A67F52;}
	.st127{fill:#775625;}
	.st128{fill:#A6BEC4;}
	.st129{fill:#DBB281;}
	.st130{fill:#795B25;}
	.st131{fill:#DCD478;}
	.st132{fill:#DCDCDB;}
	.st133{fill:#0E9554;}
	.st134{fill:#A9714A;}
	.st135{fill:#A9A9A8;}
	.st136{fill:#DFDEDD;}
]]>
</style>
<g>
	<g>
		<g>
			<circle class="st102" cx="68.417" cy="68.397" r="63.333"/>
		</g>
	</g>
	<g>
		<path class="st18" d="M68.413,131.771c26.934,0,49.926-16.822,59.083-40.525c-16.535-9.968-38.036-14.699-61.544-14.699
			c-21.617,0-41.535,4.004-57.458,12.398C17.018,113.854,40.616,131.771,68.413,131.771z"/>
	</g>
	<g>
		<g>
			<path class="st66" d="M69.14,96.835l-0.083-68.669c0.018-0.318-0.228-0.591-0.547-0.606c-0.319-0.019-0.592,0.228-0.607,0.548
				l0.083,68.668c-0.018,0.317,0.228,0.591,0.546,0.608C68.852,97.399,69.124,97.154,69.14,96.835z"/>
		</g>
		<g>
			<path class="st131" d="M102.059,86.396c0,18.498-66.992,18.498-66.992,0c0-4.242,33.496-51.183,33.496-51.183
				S102.059,83.913,102.059,86.396z"/>
		</g>
		<g>
			<g>
				<path class="st66" d="M69.37,71.995c-4.983,0-9.021,9.684-9.021,21.628c0,2.192,0.137,4.31,0.389,6.306
					c5.679,0.504,11.673,0.449,17.285-0.163c0.238-1.946,0.369-4.009,0.369-6.143C78.391,81.678,74.352,71.995,69.37,71.995z"/>
			</g>
		</g>
		<g>
			<g>
				<path class="st130" d="M69.37,75.465c-4.372,0-7.915,8.494-7.915,18.973c0,1.924,0.12,3.78,0.343,5.531
					c4.981,0.443,10.24,0.396,15.162-0.143c0.211-1.709,0.324-3.516,0.324-5.389C77.284,83.959,73.741,75.465,69.37,75.465z"/>
			</g>
		</g>
		<g>
			<path class="st66" d="M104.041,87.856L66.075,30.639c-0.163-0.276-0.516-0.367-0.792-0.205c-0.275,0.162-0.367,0.516-0.205,0.791
				l37.967,57.219c0.162,0.275,0.516,0.368,0.792,0.206C104.111,88.487,104.203,88.131,104.041,87.856z"/>
		</g>
		<g>
			<path class="st66" d="M32.765,87.856l38.306-57.394c0.163-0.274,0.519-0.366,0.793-0.204c0.275,0.162,0.366,0.518,0.204,0.793
				L33.761,88.444c-0.161,0.275-0.516,0.368-0.792,0.206C32.695,88.487,32.602,88.131,32.765,87.856z"/>
		</g>
	</g>
	<g>
		<polygon class="st110" points="102.093,35.101 103.108,38.223 106.389,38.223 103.734,40.152 104.749,43.273 102.093,41.343 
			99.438,43.273 100.453,40.152 97.797,38.223 101.079,38.223 		"/>
	</g>
	<g>
		<polygon class="st110" points="86.323,24.037 87.026,26.2 89.299,26.2 87.459,27.536 88.163,29.698 86.323,28.362 84.483,29.698 
			85.186,27.536 83.346,26.2 85.62,26.2 		"/>
	</g>
	<g>
		<polygon class="st110" points="102.465,56.458 103.168,58.622 105.442,58.622 103.602,59.958 104.305,62.12 102.465,60.784 
			100.625,62.12 101.329,59.958 99.489,58.622 101.762,58.622 		"/>
	</g>
</g>
</svg>
