<?xml version="1.0" encoding="utf-8"?>
<!-- Generator: Adobe Illustrator 16.0.0, SVG Export Plug-In . SVG Version: 6.00 Build 0)  -->
<!DOCTYPE svg PUBLIC "-//W3C//DTD SVG 1.1//EN" "http://www.w3.org/Graphics/SVG/1.1/DTD/svg11.dtd">
<svg version="1.1" id="Layer_1" xmlns="http://www.w3.org/2000/svg" xmlns:xlink="http://www.w3.org/1999/xlink" x="0px" y="0px"
	 width="136.833px" height="136.834px" viewBox="0 0 136.833 136.834" style="enable-background:new 0 0 136.833 136.834;"
	 xml:space="preserve">
<style type="text/css">
<![CDATA[
	.st0{fill:#AA865B;}
	.st1{fill:#49A0AE;}
	.st2{fill:#E0E0E0;}
	.st3{fill:#E23942;}
	.st4{fill:#E4DFD6;}
	.st5{fill:#E4E4E4;}
	.st6{fill:#4C3E30;}
	.st7{fill:#E7E7E7;}
	.st8{fill:#4D4946;}
	.st9{fill:#E84849;}
	.st10{fill:#E8E8DF;}
	.st11{fill:#E8E8E8;}
	.st12{fill:#E9E9EA;}
	.st13{fill:#818282;}
	.st14{fill:#828282;}
	.st15{fill:#B1C635;}
	.st16{fill:#857856;}
	.st17{fill:#B5DDE1;}
	.st18{fill:#B7C133;}
	.st19{fill:#89932C;}
	.st20{fill:#1E1B18;}
	.st21{fill:#ECECEC;}
	.st22{fill:#51473A;}
	.st23{fill:#EFEFEF;}
	.st24{fill:#524F49;}
	.st25{fill:#585550;}
	.st26{fill:#8CB23F;}
	.st27{fill:#202121;}
	.st28{fill:#8EC0C8;}
	.st29{fill:#F3F4F5;}
	.st30{fill:#5B4F3F;}
	.st31{fill:#5C9340;}
	.st32{fill:#C02026;}
	.st33{fill:#C0C0C0;}
	.st34{fill:#93793D;}
	.st35{fill:#939292;}
	.st36{fill:#C4E7ED;}
	.st37{opacity:0.5;}
	.st38{opacity:0.7;}
	.st39{opacity:0.8;}
	.st40{fill:#FFA300;}
	.st41{fill:#FFCE00;}
	.st42{fill:#FFFFFF;}
	.st43{fill:#65A844;}
	.st44{fill:#665C51;}
	.st45{fill:#67B8CB;}
	.st46{fill:#9BD7D9;}
	.st47{fill:#CDCCCB;}
	.st48{fill:#344E5D;}
	.st49{fill:#6B4E15;}
	.st50{fill:#6B7D35;}
	.st51{fill:#D2D2D2;}
	.st52{fill:#3A2F22;}
	.st53{fill:#3B342D;}
	.st54{fill:#D6EFF2;}
	.st55{fill:#D7D7D7;}
	.st56{fill:#3E8540;}
	.st57{fill:#D9E3E4;}
	.st58{fill:#A0D2DC;}
	.st59{fill:#A19F9F;}
	.st60{fill:#737373;}
	.st61{fill:#A2D4DE;}
	.st62{fill:#A2DADB;}
	.st63{fill:#73BFCB;}
	.st64{fill:#766959;}
	.st65{fill:#77746F;}
	.st66{fill:#77913B;}
	.st67{fill:#A6B232;}
	.st68{fill:#A8A7A7;}
	.st69{fill:#DFDFDF;}
	.st70{fill:#423528;}
	.st71{fill:#43B665;}
	.st72{fill:#444341;}
	.st73{fill:#453F38;}
]]>
</style>
<g>
	<g>
		<g>
			<circle class="st9" cx="68.416" cy="68.417" r="63.333"/>
		</g>
	</g>
	<g>
		<g>
			<g>
				<path class="st32" d="M100.171,36.551c-4.217-4.129-9.266-7.371-14.717-9.533c-5.449-2.167-11.332-3.22-17.139-3.125
					c-5.846,0.09-11.627,1.328-16.945,3.639c-5.322,2.296-10.139,5.672-14.166,9.783c-8.088,8.213-12.76,19.621-12.674,31.103
					c0.018-5.731,1.162-11.455,3.377-16.733c2.213-5.281,5.523-10.078,9.592-14.074c4.074-3.996,8.963-7.124,14.23-9.213
					c5.268-2.092,10.951-3.105,16.566-3.011c5.654,0.091,11.236,1.29,16.373,3.523c5.141,2.222,9.795,5.483,13.682,9.462
					c7.813,7.941,12.313,18.953,12.234,30.045c0.078,11.092-4.428,22.099-12.238,30.039c-3.893,3.973-8.539,7.238-13.68,9.459
					c-5.131,2.234-10.725,3.435-16.359,3.526c-5.635,0.095-11.303-0.919-16.574-3.009c-5.27-2.088-10.154-5.217-14.232-9.209
					c-4.066-3.995-7.377-8.792-9.594-14.072c-2.215-5.279-3.359-11.002-3.377-16.733c-0.086,11.48,4.586,22.89,12.674,31.104
					c4.025,4.114,8.844,7.489,14.166,9.787c5.314,2.311,11.109,3.549,16.938,3.64c5.826,0.096,11.695-0.957,17.15-3.123
					c5.451-2.166,10.506-5.403,14.719-9.539c4.205-4.134,7.629-9.096,9.916-14.561c2.289-5.461,3.479-11.385,3.488-17.309
					c-0.016-5.924-1.199-11.848-3.49-17.309C107.796,45.647,104.378,40.684,100.171,36.551z"/>
			</g>
			<g>
				<path class="st32" d="M116.716,88.467c-2.648,6.33-6.604,12.088-11.473,16.885c-4.877,4.799-10.725,8.57-17.041,11.094
					c-6.316,2.527-13.135,3.764-19.885,3.669c-6.789-0.091-13.504-1.513-19.689-4.182c-6.189-2.655-11.803-6.562-16.492-11.343
					c-9.428-9.541-14.865-22.809-14.773-36.172C17.272,55.052,22.714,41.79,32.14,32.25c4.693-4.774,10.301-8.685,16.49-11.339
					c6.18-2.67,12.908-4.094,19.678-4.185c6.768-0.095,13.57,1.141,19.891,3.667c6.316,2.521,12.164,6.295,17.043,11.09
					c4.869,4.797,8.824,10.555,11.475,16.883c2.65,6.326,4.018,13.186,4.035,20.051c0.098-13.754-5.512-27.418-15.213-37.232
					c-4.828-4.916-10.605-8.936-16.977-11.667c-6.363-2.746-13.293-4.208-20.254-4.298c-6.963-0.096-13.967,1.18-20.469,3.781
					c-6.5,2.6-12.516,6.481-17.529,11.419c-5.008,4.937-9.076,10.858-11.797,17.372c-2.727,6.51-4.137,13.568-4.146,20.627
					c0.016,7.058,1.422,14.115,4.148,20.625c2.729,6.509,6.791,12.434,11.799,17.368c5.02,4.931,11.029,8.816,17.529,11.413
					c6.498,2.603,13.514,3.879,20.455,3.783c6.982-0.09,13.896-1.551,20.262-4.297c6.373-2.73,12.148-6.75,16.979-11.664
					c9.701-9.813,15.311-23.477,15.213-37.23C120.733,75.282,119.366,82.141,116.716,88.467z"/>
			</g>
		</g>
		<g>
			<g>
				<circle class="st46" cx="68.306" cy="68.417" r="33.443"/>
			</g>
		</g>
		<g>
			<g>
				<g>
					<path class="st31" d="M85.849,53.697c0,0-7.211,1.491-9.793,0.106c0,0-1.723-2.235-6.568-0.318c0,0-8.502,5.109-8.613,10.221
						c0,0-2.367,10.117,6.568,11.5c0,0,9.365-3.087,10.549,0.533c0,0,0.324,4.473,1.186,5.431c0,0,1.398,2.057,1.291,3.3
						c0,0-0.971,4.152,0.324,7.349c0,0,0.859,2.768,0.752,3.62c0,0,8.184-2.344,10.766-10.01c0,0,1.508-5.324,1.615-6.709
						c0,0,2.152-6.176,2.691-8.092c0,0,1.938-5.751-1.293-5.004c0,0-2.262-2.131-3.875-3.729
						C89.833,60.298,86.712,54.229,85.849,53.697z"/>
				</g>
				<g>
					<path class="st31" d="M93.062,61.684l-9.043-8.307c0,0,1.938-1.703,1.293-2.66c-0.645-0.96-2.045,0.318-3.23,0.318
						c-1.182,0-2.797,0.958-3.443,0.105c-0.646-0.852-1.076-0.639-1.723-0.105c-0.646,0.532-1.83,1.385-1.938,0.851
						c-0.107-0.532-2.045-0.318-2.152-0.851c-0.107-0.533,0.32-2.023-0.648-1.704c-0.965,0.318-2.367,1.386-2.582,1.917
						c-0.215,0.533-0.967,2.129-1.723,2.129c-0.754,0-2.691,0.426-3.014-0.213s-0.969-2.77-0.322-3.407
						c0.645-0.64,3.805,0.036,3.658-0.745c-0.145-0.78-0.518-2.494-0.043-2.738c0.477-0.242,1.766-3.012,2.629-3.331
						c0.859-0.319,3.121,0.852,3.445,0.106c0,0,0.107-2.236-0.324-2.556s-0.756-1.276-1.504-1.173
						c-0.758,0.107-1.08,0.854-0.541,1.173c0.541,0.319,0.969,1.597,0.646,1.597c-0.326,0-3.23,0.213-3.338-0.531
						c-0.109-0.746,0.322-2.557,1.289-3.195c0.973-0.638,3.016-0.533,3.662-0.213c0.648,0.319,1.4-0.32,1.617-0.852
						c0.213-0.531-3.061-2.314-4.031-2.314c0,0,25.512,1.904,29.891,27.987c0,0-2.717-8.955-4.547-9.487
						c0,0-0.969,0.639-1.615,0.532s-3.875-2.131-4.09-1.597c-0.217,0.532,1.506,2.342,3.34,2.554
						c1.826,0.214,1.936,0.427,2.041,1.386c0.109,0.957,0.432,2.449,0.219,3.406C96.722,60.724,95.431,63.6,93.062,61.684z"/>
				</g>
				<g>
					<path class="st31" d="M66.364,42.73c0,0-0.859,0.532-1.291,1.276c-0.432,0.746-0.432,1.385-0.432,1.385s0.547,0.318,1.098,0.32
						c0.553,0.002,2.025-0.531,2.025-1.277S66.364,42.73,66.364,42.73z"/>
				</g>
				<g>
					<path class="st31" d="M65.073,36.34c0,0-2.584,3.088-3.875,3.408c-1.293,0.32-3.445,1.383-3.982,1.811
						c-0.539,0.426-2.369-0.319-1.293-1.171c1.078-0.854,3.982-2.771,3.338-2.982c-0.646-0.212-3.553,1.812-4.736,2.663
						c-1.186,0.852-2.154,2.127-2.689,2.98c-0.541,0.852-0.432,3.088-1.615,3.514c-1.188,0.426-6.354,2.555-8.074,4.047
						c-1.723,1.49-3.578,2.59-4.334,4.081c-0.752,1.491,0.381-2.38,1.047-3.808c0,0,4.578-8.153,15.02-13.266
						C53.878,37.618,61.843,35.596,65.073,36.34z"/>
				</g>
				<g>
					<path class="st31" d="M34.933,73.823c0,0-1.078-5.751,0.105-6.283s1.541-0.645,2.586,0.426c1.039,1.07,2.473,2.875,3.01,3.834
						c0.543,0.957,2.48,2.128,2.48,2.873c0,0.746-0.432,2.557,0,3.408c0.428,0.852,1.074,0.959,2.045,1.385
						c0.969,0.425,2.799,1.063,3.873,2.023c1.076,0.959,2.586,2.129,2.262,3.407s-0.969,3.194-0.754,3.938
						c0.215,0.746,0.969,2.023,0.109,2.557c-0.863,0.532-1.508,0.427-1.4,1.383c0.109,0.959,1.188,3.938,1.51,4.47
						C50.759,97.244,37.337,91.532,34.933,73.823z"/>
				</g>
				<g>
					<path class="st31" d="M36.401,61.99c0.215-0.743,0.754-4.47,0.105-4.47c-1.264,4.658-1.217,4.599-1.723,8.092"/>
				</g>
			</g>
		</g>
	</g>
</g>
</svg>
