<?xml version="1.0" encoding="utf-8"?>
<!-- Generator: Adobe Illustrator 16.0.0, SVG Export Plug-In . SVG Version: 6.00 Build 0)  -->
<!DOCTYPE svg PUBLIC "-//W3C//DTD SVG 1.1//EN" "http://www.w3.org/Graphics/SVG/1.1/DTD/svg11.dtd">
<svg version="1.1" id="Layer_1" xmlns="http://www.w3.org/2000/svg" xmlns:xlink="http://www.w3.org/1999/xlink" x="0px" y="0px"
	 width="136.833px" height="136.833px" viewBox="0 0 136.833 136.833" style="enable-background:new 0 0 136.833 136.833;"
	 xml:space="preserve">
<style type="text/css">
<![CDATA[
	.st0{fill:#AA865B;}
	.st1{fill:#49A0AE;}
	.st2{fill:#E0E0E0;}
	.st3{fill:#E23942;}
	.st4{fill:#E4DFD6;}
	.st5{fill:#E4E4E4;}
	.st6{fill:#4C3E30;}
	.st7{fill:#E7E7E7;}
	.st8{fill:#4D4946;}
	.st9{fill:#E84849;}
	.st10{fill:#E8E8DF;}
	.st11{fill:#E8E8E8;}
	.st12{fill:#E9E9EA;}
	.st13{fill:#818282;}
	.st14{fill:#828282;}
	.st15{fill:#B1C635;}
	.st16{fill:#857856;}
	.st17{fill:#B5DDE1;}
	.st18{fill:#B7C133;}
	.st19{fill:#89932C;}
	.st20{fill:#1E1B18;}
	.st21{fill:#ECECEC;}
	.st22{fill:#51473A;}
	.st23{fill:#EFEFEF;}
	.st24{fill:#524F49;}
	.st25{fill:#585550;}
	.st26{fill:#8CB23F;}
	.st27{fill:#202121;}
	.st28{fill:#8EC0C8;}
	.st29{fill:#F3F4F5;}
	.st30{fill:#5B4F3F;}
	.st31{fill:#5C9340;}
	.st32{fill:#C02026;}
	.st33{fill:#C0C0C0;}
	.st34{fill:#93793D;}
	.st35{fill:#939292;}
	.st36{fill:#C4E7ED;}
	.st37{opacity:0.5;}
	.st38{opacity:0.7;}
	.st39{opacity:0.8;}
	.st40{fill:#FFA300;}
	.st41{fill:#FFCE00;}
	.st42{fill:#FFFFFF;}
	.st43{fill:#65A844;}
	.st44{fill:#665C51;}
	.st45{fill:#67B8CB;}
	.st46{fill:#9BD7D9;}
	.st47{fill:#CDCCCB;}
	.st48{fill:#344E5D;}
	.st49{fill:#6B4E15;}
	.st50{fill:#6B7D35;}
	.st51{fill:#D2D2D2;}
	.st52{fill:#3A2F22;}
	.st53{fill:#3B342D;}
	.st54{fill:#D6EFF2;}
	.st55{fill:#D7D7D7;}
	.st56{fill:#3E8540;}
	.st57{fill:#D9E3E4;}
	.st58{fill:#A0D2DC;}
	.st59{fill:#A19F9F;}
	.st60{fill:#737373;}
	.st61{fill:#A2D4DE;}
	.st62{fill:#A2DADB;}
	.st63{fill:#73BFCB;}
	.st64{fill:#766959;}
	.st65{fill:#77746F;}
	.st66{fill:#77913B;}
	.st67{fill:#A6B232;}
	.st68{fill:#A8A7A7;}
	.st69{fill:#DFDFDF;}
	.st70{fill:#423528;}
	.st71{fill:#43B665;}
	.st72{fill:#444341;}
	.st73{fill:#453F38;}
]]>
</style>
<g>
	<g>
		<g>
			<circle class="st10" cx="68.416" cy="68.411" r="63.333"/>
		</g>
	</g>
	<g>
		<g>
			<g>
				<path class="st19" d="M130.864,57.842c-3.26-19.38-15.229-35.54-31.522-44.679c-6.797,1.924-12.862,10.894-12.862,10.894
					l-11.803,13.46l-2.177-1.91c0,0-8.027-8.207-14.298-8.153c-6.266,0.055-12.418,9.165-12.418,9.165l-6.271,7.15
					c-1.145-1.122-7.135-6.757-11.952-6.716c-5.341,0.048-10.591,7.814-10.591,7.814L6.065,57.304
					c-0.02,0.102-0.034,0.205-0.051,0.307L130.864,57.842z"/>
			</g>
			<g>
				<path class="st0" d="M131.612,64.275c-0.143-2.179-0.395-4.325-0.748-6.434L6.015,57.61c-0.834,4.837-1.132,9.844-0.796,14.958
					c0.712,10.855,4.122,20.891,9.53,29.5c11.979,19.068,33.766,31.129,57.813,29.551c24.045-1.578,44.071-16.381,53.455-36.85
					C130.255,85.527,132.325,75.132,131.612,64.275z"/>
			</g>
		</g>
		<g>
			<g>
				<path class="st15" d="M105.374,61.524L40.04,61.545C51.702,47.708,63.035,44.37,73.7,44.367
					C85.032,44.363,97.37,48.36,105.374,61.524z"/>
			</g>
			<g>
				<path class="st62" d="M71.705,61.333l-26.333,0.008c9.123-10.823,17.986-13.434,26.33-13.436L71.705,61.333z"/>
			</g>
			<g>
				<path class="st62" d="M74.874,61.331l26.334-0.008c-9.129-10.818-17.996-13.422-26.339-13.42L74.874,61.331z"/>
			</g>
			<g>
				<path class="st15" d="M103.046,81.691c0,0-82.957,0.027-85.833,0.029c-2.001,0-2.169-4.002-2.169-4.002
					c-0.006-17.999,27.33-16.34,27.33-16.34l62.915-0.02c0,0,4.696,2.822,9.751,3.664c3.75,0.622,5.002,3.831,5.003,7.331
					C120.044,76.894,117.212,79.437,103.046,81.691z"/>
			</g>
			<g>
				<path class="st67" d="M63.745,80.205c-27.867-0.492-48.512-1.027-48.512-1.027s-0.029,0.314-0.124,1.188
					c-0.118,1.1,0.429,1.855,1.239,1.855l86.615-0.027l0.166-2.002C94.63,79.861,91.612,80.695,63.745,80.205z"/>
			</g>
			<g>
				<circle class="st27" cx="33.461" cy="78.798" r="10.25"/>
			</g>
			<g>
				<circle class="st27" cx="93.461" cy="78.779" r="10.25"/>
			</g>
			<g>
				<circle class="st13" cx="33.462" cy="78.798" r="5"/>
			</g>
			<g>
				<circle class="st13" cx="93.461" cy="78.778" r="5"/>
			</g>
		</g>
	</g>
</g>
</svg>
