<?xml version="1.0" encoding="utf-8"?>
<!-- Generator: Adobe Illustrator 16.0.0, SVG Export Plug-In . SVG Version: 6.00 Build 0)  -->
<!DOCTYPE svg PUBLIC "-//W3C//DTD SVG 1.1//EN" "http://www.w3.org/Graphics/SVG/1.1/DTD/svg11.dtd">
<svg version="1.1" id="Layer_1" xmlns="http://www.w3.org/2000/svg" xmlns:xlink="http://www.w3.org/1999/xlink" x="0px" y="0px"
	 width="136.833px" height="136.833px" viewBox="0 0 136.833 136.833" style="enable-background:new 0 0 136.833 136.833;"
	 xml:space="preserve">
<style type="text/css">
<![CDATA[
	.st0{fill:#AA865B;}
	.st1{fill:#49A0AE;}
	.st2{fill:#E0E0E0;}
	.st3{fill:#E23942;}
	.st4{fill:#E4DFD6;}
	.st5{fill:#E4E4E4;}
	.st6{fill:#4C3E30;}
	.st7{fill:#E7E7E7;}
	.st8{fill:#4D4946;}
	.st9{fill:#E84849;}
	.st10{fill:#E8E8DF;}
	.st11{fill:#E8E8E8;}
	.st12{fill:#E9E9EA;}
	.st13{fill:#818282;}
	.st14{fill:#828282;}
	.st15{fill:#B1C635;}
	.st16{fill:#857856;}
	.st17{fill:#B5DDE1;}
	.st18{fill:#B7C133;}
	.st19{fill:#89932C;}
	.st20{fill:#1E1B18;}
	.st21{fill:#ECECEC;}
	.st22{fill:#51473A;}
	.st23{fill:#EFEFEF;}
	.st24{fill:#524F49;}
	.st25{fill:#585550;}
	.st26{fill:#8CB23F;}
	.st27{fill:#202121;}
	.st28{fill:#8EC0C8;}
	.st29{fill:#F3F4F5;}
	.st30{fill:#5B4F3F;}
	.st31{fill:#5C9340;}
	.st32{fill:#C02026;}
	.st33{fill:#C0C0C0;}
	.st34{fill:#93793D;}
	.st35{fill:#939292;}
	.st36{fill:#C4E7ED;}
	.st37{opacity:0.5;}
	.st38{opacity:0.7;}
	.st39{opacity:0.8;}
	.st40{fill:#FFA300;}
	.st41{fill:#FFCE00;}
	.st42{fill:#FFFFFF;}
	.st43{fill:#65A844;}
	.st44{fill:#665C51;}
	.st45{fill:#67B8CB;}
	.st46{fill:#9BD7D9;}
	.st47{fill:#CDCCCB;}
	.st48{fill:#344E5D;}
	.st49{fill:#6B4E15;}
	.st50{fill:#6B7D35;}
	.st51{fill:#D2D2D2;}
	.st52{fill:#3A2F22;}
	.st53{fill:#3B342D;}
	.st54{fill:#D6EFF2;}
	.st55{fill:#D7D7D7;}
	.st56{fill:#3E8540;}
	.st57{fill:#D9E3E4;}
	.st58{fill:#A0D2DC;}
	.st59{fill:#A19F9F;}
	.st60{fill:#737373;}
	.st61{fill:#A2D4DE;}
	.st62{fill:#A2DADB;}
	.st63{fill:#73BFCB;}
	.st64{fill:#766959;}
	.st65{fill:#77746F;}
	.st66{fill:#77913B;}
	.st67{fill:#A6B232;}
	.st68{fill:#A8A7A7;}
	.st69{fill:#DFDFDF;}
	.st70{fill:#423528;}
	.st71{fill:#43B665;}
	.st72{fill:#444341;}
	.st73{fill:#453F38;}
]]>
</style>
<g>
	<g>
		<g>
			<circle class="st41" cx="68.417" cy="68.417" r="63.333"/>
		</g>
	</g>
	<g>
		<g>
			<path class="st40" d="M126.722,68.772c0,0.645-0.522,1.167-1.167,1.167h-27c-0.644,0-1.166-0.522-1.166-1.167l0,0
				c0-0.644,0.522-1.166,1.166-1.166h27C126.2,67.606,126.722,68.128,126.722,68.772L126.722,68.772z"/>
		</g>
		<g>
			<path class="st40" d="M40.722,68.772c0,0.645-0.522,1.167-1.167,1.167h-27c-0.644,0-1.166-0.522-1.166-1.167l0,0
				c0-0.644,0.522-1.166,1.166-1.166h27C40.2,67.606,40.722,68.128,40.722,68.772L40.722,68.772z"/>
		</g>
		<g>
			<path class="st40" d="M69.056,126.439c-0.645,0-1.167-0.522-1.167-1.167v-27c0-0.644,0.522-1.166,1.167-1.166l0,0
				c0.644,0,1.166,0.522,1.166,1.166v27C70.222,125.917,69.7,126.439,69.056,126.439L69.056,126.439z"/>
		</g>
		<g>
			<path class="st40" d="M69.056,40.439c-0.645,0-1.167-0.522-1.167-1.167l0.001-27c0-0.644,0.521-1.166,1.166-1.166l0,0
				c0.645,0,1.166,0.522,1.166,1.166v27C70.222,39.917,69.7,40.439,69.056,40.439L69.056,40.439z"/>
		</g>
		<g>
			<path class="st40" d="M28.279,109.549c-0.455-0.456-0.455-1.195,0-1.65l19.092-19.092c0.455-0.455,1.195-0.455,1.65,0l0,0
				c0.455,0.455,0.455,1.194,0,1.649l-19.092,19.092C29.473,110.004,28.734,110.004,28.279,109.549L28.279,109.549z"/>
		</g>
		<g>
			<path class="st40" d="M89.091,48.738c-0.457-0.456-0.457-1.194,0-1.65l19.092-19.091c0.455-0.455,1.193-0.456,1.648,0l0,0
				c0.457,0.455,0.455,1.193,0,1.648L90.74,48.737C90.285,49.193,89.546,49.193,89.091,48.738L89.091,48.738z"/>
		</g>
		<g>
			<path class="st40" d="M28.28,27.996c0.456-0.455,1.194-0.455,1.65,0l19.091,19.092c0.455,0.455,0.455,1.195,0,1.65l0,0
				c-0.455,0.455-1.194,0.455-1.649,0L28.281,29.646C27.825,29.19,27.825,28.451,28.28,27.996L28.28,27.996z"/>
		</g>
		<g>
			<path class="st40" d="M89.09,88.808c0.456-0.457,1.194-0.457,1.65,0l19.091,19.092c0.455,0.455,0.456,1.193,0,1.648l0,0
				c-0.455,0.457-1.193,0.455-1.648,0L89.091,90.457C88.635,90.001,88.635,89.263,89.09,88.808L89.09,88.808z"/>
		</g>
	</g>
	<g>
		<g>
			<path class="st40" d="M109.904,94.577c-0.289,0.456-0.892,0.592-1.349,0.305L89.431,82.799c-0.457-0.288-0.594-0.893-0.307-1.349
				l0,0c0.289-0.456,0.894-0.593,1.35-0.304l19.127,12.082C110.056,93.516,110.192,94.121,109.904,94.577L109.904,94.577z"/>
		</g>
		<g>
			<path class="st40" d="M48.986,56.094c-0.289,0.455-0.893,0.592-1.349,0.303l-19.125-12.08c-0.457-0.289-0.593-0.893-0.306-1.35
				l0,0c0.289-0.455,0.893-0.592,1.35-0.305l19.125,12.082C49.137,55.034,49.273,55.637,48.986,56.094L48.986,56.094z"/>
		</g>
		<g>
			<path class="st40" d="M43.251,109.621c-0.456-0.288-0.592-0.892-0.305-1.349l12.084-19.125c0.286-0.456,0.891-0.593,1.348-0.305
				l0,0c0.455,0.289,0.591,0.893,0.303,1.348L44.6,109.317C44.312,109.772,43.708,109.909,43.251,109.621L43.251,109.621z"/>
		</g>
		<g>
			<path class="st40" d="M81.735,48.703c-0.456-0.288-0.593-0.893-0.305-1.349l12.082-19.125c0.289-0.457,0.892-0.593,1.349-0.305
				l0,0c0.457,0.289,0.592,0.893,0.304,1.348L83.083,48.398C82.794,48.854,82.191,48.991,81.735,48.703L81.735,48.703z"/>
		</g>
		<g>
			<path class="st40" d="M21.925,79.411c-0.119-0.527,0.211-1.051,0.738-1.17l22.066-4.98c0.527-0.119,1.052,0.213,1.169,0.738l0,0
				c0.119,0.527-0.211,1.051-0.737,1.169l-22.067,4.981C22.568,80.266,22.042,79.936,21.925,79.411L21.925,79.411z"/>
		</g>
		<g>
			<path class="st40" d="M92.213,63.546c-0.121-0.527,0.212-1.05,0.738-1.169l22.066-4.98c0.526-0.118,1.05,0.211,1.167,0.738l0,0
				c0.12,0.527-0.211,1.049-0.738,1.168l-22.066,4.98C92.855,64.403,92.333,64.073,92.213,63.546L92.213,63.546z"/>
		</g>
		<g>
			<path class="st40" d="M58.419,21.642c0.525-0.119,1.049,0.212,1.17,0.738l4.979,22.065c0.119,0.527-0.213,1.051-0.738,1.17l0,0
				c-0.527,0.119-1.049-0.211-1.169-0.738l-4.979-22.066C57.562,22.284,57.893,21.76,58.419,21.642L58.419,21.642z"/>
		</g>
		<g>
			<path class="st40" d="M74.281,91.93c0.529-0.12,1.052,0.211,1.17,0.738l4.98,22.066c0.119,0.525-0.212,1.049-0.738,1.167l0,0
				c-0.527,0.12-1.049-0.211-1.167-0.737l-4.981-22.066C73.425,92.571,73.756,92.049,74.281,91.93L74.281,91.93z"/>
		</g>
	</g>
	<g>
		<g>
			<path class="st40" d="M116.527,77.772c-0.102,0.53-0.612,0.879-1.144,0.778l-22.225-4.214c-0.53-0.101-0.88-0.611-0.78-1.143l0,0
				c0.102-0.529,0.613-0.879,1.144-0.777l22.228,4.213C116.279,76.729,116.626,77.243,116.527,77.772L116.527,77.772z"/>
		</g>
		<g>
			<path class="st40" d="M45.732,64.35c-0.102,0.53-0.612,0.879-1.143,0.777l-22.226-4.213c-0.53-0.1-0.879-0.611-0.779-1.143l0,0
				c0.101-0.529,0.612-0.879,1.144-0.778l22.226,4.214C45.484,63.309,45.832,63.821,45.732,64.35L45.732,64.35z"/>
		</g>
		<g>
			<path class="st40" d="M60.056,116.243c-0.529-0.101-0.878-0.612-0.779-1.143l4.217-22.227c0.099-0.529,0.61-0.879,1.142-0.777
				l0,0c0.528,0.101,0.877,0.612,0.776,1.143l-4.213,22.226C61.098,115.995,60.587,116.343,60.056,116.243L60.056,116.243z"/>
		</g>
		<g>
			<path class="st40" d="M73.478,45.448c-0.529-0.1-0.879-0.611-0.778-1.143l4.214-22.226c0.102-0.53,0.611-0.878,1.143-0.778l0,0
				c0.531,0.102,0.879,0.613,0.777,1.143L74.621,44.67C74.519,45.201,74.008,45.549,73.478,45.448L73.478,45.448z"/>
		</g>
		<g>
			<path class="st40" d="M29.125,95.975c-0.304-0.445-0.189-1.054,0.257-1.358l18.695-12.737c0.447-0.303,1.057-0.188,1.359,0.258
				l0,0c0.304,0.447,0.189,1.055-0.257,1.358L30.484,96.233C30.038,96.536,29.427,96.42,29.125,95.975L29.125,95.975z"/>
		</g>
		<g>
			<path class="st40" d="M88.676,55.407c-0.307-0.445-0.188-1.055,0.257-1.359l18.695-12.735c0.447-0.304,1.055-0.188,1.357,0.258
				l0,0c0.305,0.446,0.188,1.053-0.258,1.357L90.033,55.665C89.587,55.967,88.981,55.852,88.676,55.407L88.676,55.407z"/>
		</g>
		<g>
			<path class="st40" d="M41.855,28.841c0.444-0.304,1.053-0.188,1.358,0.257l12.734,18.695c0.304,0.446,0.188,1.057-0.257,1.359
				l0,0c-0.447,0.305-1.053,0.188-1.358-0.257L41.597,30.2C41.292,29.753,41.408,29.145,41.855,28.841L41.855,28.841z"/>
		</g>
		<g>
			<path class="st40" d="M82.42,88.393c0.448-0.307,1.056-0.19,1.359,0.257l12.736,18.695c0.304,0.445,0.188,1.054-0.259,1.356l0,0
				c-0.445,0.307-1.053,0.189-1.355-0.256L82.165,89.75C81.861,89.303,81.976,88.696,82.42,88.393L82.42,88.393z"/>
		</g>
	</g>
	<g>
		<g>
			<path class="st40" d="M103.855,82.891c-0.157,0.389-0.6,0.576-0.988,0.418l-16.295-6.61c-0.388-0.157-0.576-0.601-0.418-0.989
				l0,0c0.158-0.389,0.602-0.576,0.989-0.419l16.294,6.61C103.827,82.059,104.013,82.502,103.855,82.891L103.855,82.891z"/>
		</g>
		<g>
			<path class="st40" d="M51.957,61.836c-0.158,0.389-0.601,0.576-0.989,0.418l-16.294-6.61c-0.389-0.157-0.576-0.601-0.418-0.989
				l0,0c0.157-0.389,0.601-0.576,0.988-0.419l16.295,6.61C51.927,61.004,52.115,61.448,51.957,61.836L51.957,61.836z"/>
		</g>
		<g>
			<path class="st40" d="M54.937,103.573c-0.389-0.158-0.576-0.601-0.418-0.989l6.609-16.294c0.158-0.389,0.602-0.576,0.99-0.418
				l0,0c0.389,0.157,0.576,0.601,0.418,0.988l-6.609,16.295C55.769,103.543,55.326,103.731,54.937,103.573L54.937,103.573z"/>
		</g>
		<g>
			<path class="st40" d="M75.992,51.674c-0.389-0.158-0.576-0.602-0.418-0.99l6.611-16.294c0.157-0.388,0.6-0.575,0.988-0.418l0,0
				c0.389,0.157,0.576,0.601,0.418,0.989l-6.609,16.294C76.824,51.644,76.381,51.832,75.992,51.674L75.992,51.674z"/>
		</g>
		<g>
			<path class="st40" d="M34.464,83.397c-0.162-0.387,0.018-0.832,0.404-0.996l16.195-6.848c0.387-0.162,0.833,0.019,0.996,0.404
				l0,0c0.163,0.387-0.018,0.833-0.403,0.996L35.46,83.801C35.074,83.964,34.627,83.784,34.464,83.397L34.464,83.397z"/>
		</g>
		<g>
			<path class="st40" d="M86.051,61.586c-0.164-0.387,0.017-0.832,0.403-0.995l16.197-6.847c0.385-0.164,0.831,0.017,0.994,0.402
				l0,0c0.164,0.388-0.018,0.832-0.404,0.996l-16.195,6.848C86.66,62.155,86.214,61.973,86.051,61.586L86.051,61.586z"/>
		</g>
		<g>
			<path class="st40" d="M54.431,34.182c0.387-0.164,0.832,0.018,0.996,0.404l6.847,16.195c0.163,0.385-0.019,0.832-0.404,0.995l0,0
				c-0.386,0.163-0.833-0.018-0.995-0.403l-6.848-16.195C53.865,34.792,54.045,34.345,54.431,34.182L54.431,34.182z"/>
		</g>
		<g>
			<path class="st40" d="M76.241,85.768c0.388-0.164,0.833,0.018,0.997,0.404l6.846,16.195c0.164,0.387-0.018,0.832-0.404,0.995l0,0
				c-0.387,0.165-0.83-0.018-0.994-0.403l-6.848-16.195C75.673,86.377,75.855,85.932,76.241,85.768L76.241,85.768z"/>
		</g>
	</g>
	<g>
		<g>
			<circle class="st40" cx="68.416" cy="68.417" r="24.333"/>
		</g>
	</g>
	<g>
		<g>
			<circle class="st41" cx="68.416" cy="68.417" r="20.684"/>
		</g>
	</g>
	<g>
		<g>
			<circle class="st40" cx="68.416" cy="68.417" r="11.647"/>
		</g>
	</g>
	<g>
		<g>
			<circle class="st41" cx="68.417" cy="68.417" r="3.466"/>
		</g>
	</g>
</g>
</svg>
