<?xml version="1.0" encoding="utf-8"?>
<!-- Generator: Adobe Illustrator 16.0.0, SVG Export Plug-In . SVG Version: 6.00 Build 0)  -->
<!DOCTYPE svg PUBLIC "-//W3C//DTD SVG 1.1//EN" "http://www.w3.org/Graphics/SVG/1.1/DTD/svg11.dtd">
<svg version="1.1" id="Layer_1" xmlns="http://www.w3.org/2000/svg" xmlns:xlink="http://www.w3.org/1999/xlink" x="0px" y="0px"
	 width="136.913px" height="136.914px" viewBox="0 0 136.913 136.914" enable-background="new 0 0 136.913 136.914"
	 xml:space="preserve">
<g>
	<g>
		<g>
			<g>
				<g>
					<circle fill="#4ABC96" cx="68.457" cy="68.457" r="63.333"/>
				</g>
			</g>
		</g>
	</g>
	<g>
		<path fill="#AF1F24" d="M118.043,88.736c0,3.983-3.843,7.21-8.581,7.21H37.961c-4.738,0-8.58-3.228-8.58-7.21l6.436-33.633
			c0-3.545,3.201-6.419,7.15-6.419h59.584c3.948,0,6.16,2.635,7.149,6.419L118.043,88.736z"/>
		<path fill="#D71F2E" d="M117.305,88.525c0.195,6.054-15.027,14.843-19.688,14.843l-59.061-7.813c-4.66,0-8.438-3.148-8.438-7.031
			L27.464,61.29c0-3.458,12.132-11.825,16.015-11.825h58.592c3.883,0,6.055,2.88,7.031,6.26L117.305,88.525z"/>
		<path fill="#AF1F24" d="M106.055,96.338c0,3.883-3.777,7.031-8.438,7.031H27.307c-4.658,0-8.438-3.147-8.438-7.031l8.203-33.657
			c0-3.459,3.148-6.261,7.031-6.261h58.592c3.883,0,7.031,2.802,7.031,6.261L106.055,96.338z"/>
		<path fill="#E61D36" d="M104.842,95.842c0,3.743-3.674,6.776-8.203,6.776H28.287c-4.53,0-8.202-3.033-8.202-6.776l8.06-32.479
			c0-3.333,3.062-6.035,6.836-6.035h56.96c3.774,0,6.835,2.702,6.835,6.035L104.842,95.842z"/>
		<path fill="#D71F2E" d="M87.423,92.04c0,2.614-4.07,4.914-7.227,4.914H35.917c-3.156,0-5.716-2.117-5.716-4.731l5.617-22.674
			c0.824-1.825,5.226-4.213,7.855-4.213h36.595c2.631,0,4.763,1.886,4.763,4.213L87.423,92.04z"/>
		<path fill="#E61D36" d="M83.791,91.961c0,2.323-2.259,4.204-5.046,4.204H36.707c-2.786,0-5.044-1.881-5.044-4.204l4.957-20.147
			c0-2.067,1.883-3.744,4.204-3.744h35.032c2.322,0,4.203,1.676,4.203,3.744L83.791,91.961z"/>
		<g>
			<path fill="#AF1F24" d="M84.262,49.032l5.505,0.051c-19.622-34.77-35.741-0.324-35.741-0.324l5.368,0.047
				C62.909,43.085,72.682,30.964,84.262,49.032z"/>
		</g>
		<g>
			<path fill="#AF1F24" d="M78.013,56.775l5.505,0.05C63.895,22.056,47.777,56.5,47.777,56.5l5.368,0.048
				C56.66,50.828,66.433,38.708,78.013,56.775z"/>
		</g>
		<g>
			<g>
				<path fill="#D98727" d="M94.233,54.844l0.176-0.402c-1.327-0.581-2.043-1.462-2.043-2.017c0-0.603,0.852-1.108,1.179-1.254
					l-0.175-0.403c-0.06,0.026-1.443,0.643-1.443,1.655C91.924,53.189,92.69,54.169,94.233,54.844z"/>
			</g>
			<g>
				<path fill="#BFC131" d="M88.821,54.046l-3.711,10.39c-0.502,1.404-0.043,2.375,1.363,2.877l5.513,1.969
					c1.405,0.501,2.462,0.071,2.964-1.333l3.71-10.388c0.503-1.406-3.024-7.077-3.024-7.077S89.323,52.642,88.821,54.046z
					 M93.071,53.97c0.195-0.546,0.796-0.831,1.343-0.636c0.546,0.197,0.831,0.796,0.637,1.344c-0.196,0.546-0.797,0.831-1.343,0.635
					C93.161,55.118,92.875,54.517,93.071,53.97z"/>
			</g>
			<g>
				<path fill="#D5DA24" d="M89.163,54.18l-3.622,10.141c-0.491,1.374-0.041,2.319,1.33,2.808l5.38,1.922
					c1.372,0.49,2.319,0.042,2.81-1.33l3.62-10.141c0.49-1.372-2.911-6.874-2.911-6.874S89.652,52.81,89.163,54.18z M93.31,54.107
					c0.19-0.533,0.778-0.812,1.311-0.622c0.533,0.19,0.812,0.778,0.622,1.311c-0.191,0.534-0.778,0.811-1.313,0.622
					C93.398,55.227,93.12,54.64,93.31,54.107z"/>
			</g>
			<g>
				<path fill="#D98727" d="M94.233,54.844c0.021,0.008,0.047,0.014,0.072,0.013c0.123,0,0.221-0.097,0.221-0.22
					c0-0.165-0.037-4.073-2.9-6.326c-1.99-1.564-4.832-1.919-8.443-1.05c-0.119,0.028-0.191,0.147-0.162,0.266
					c0.027,0.118,0.146,0.19,0.264,0.162c3.477-0.836,6.191-0.51,8.069,0.968c2.698,2.123,2.735,5.942,2.735,5.98
					C94.088,54.732,94.147,54.814,94.233,54.844z"/>
			</g>
			<path fill="#FFFFFF" d="M96.284,59.065c0.258-0.723-0.074-1.502-0.746-1.741l-3.99-1.426c-0.669-0.239-1.42,0.154-1.678,0.876
				l-2.608,7.301c-0.258,0.724,0.075,1.503,0.745,1.742l3.991,1.424c0.669,0.24,1.421-0.153,1.68-0.875L96.284,59.065z"/>
			<path fill="#E4E433" d="M95.327,58.132c0.211,0.076,0.322,0.309,0.246,0.522l-2.682,7.51c-0.076,0.212-0.31,0.321-0.521,0.246
				s-0.322-0.31-0.247-0.521l2.681-7.51C94.879,58.167,95.114,58.057,95.327,58.132z"/>
			<path fill="#E4E433" d="M93.67,57.542c0.213,0.074,0.322,0.308,0.246,0.521l-2.682,7.509c-0.075,0.214-0.309,0.324-0.521,0.247
				c-0.213-0.074-0.323-0.307-0.249-0.52l2.684-7.511C93.225,57.576,93.458,57.465,93.67,57.542z"/>
			<path fill="#E4E433" d="M92.014,56.949c0.213,0.076,0.322,0.31,0.248,0.521l-2.683,7.511c-0.076,0.211-0.31,0.322-0.522,0.246
				c-0.211-0.076-0.322-0.309-0.244-0.522l2.68-7.507C91.569,56.984,91.802,56.875,92.014,56.949z"/>
		</g>
	</g>
</g>
</svg>
