<?xml version="1.0" encoding="utf-8"?>
<!-- Generator: Adobe Illustrator 16.0.0, SVG Export Plug-In . SVG Version: 6.00 Build 0)  -->
<!DOCTYPE svg PUBLIC "-//W3C//DTD SVG 1.1//EN" "http://www.w3.org/Graphics/SVG/1.1/DTD/svg11.dtd">
<svg version="1.1" id="Layer_1" xmlns="http://www.w3.org/2000/svg" xmlns:xlink="http://www.w3.org/1999/xlink" x="0px" y="0px"
	 width="136px" height="136.914px" viewBox="0 0 136 136.914" enable-background="new 0 0 136 136.914" xml:space="preserve">
<g>
	<g>
		<g>
			<g>
				<g>
					<g>
						<circle fill="#FCB315" cx="68" cy="68.457" r="63.333"/>
					</g>
				</g>
			</g>
		</g>
	</g>
	<g>
		<path fill="#5E5F5E" d="M36.492,68.819c-3.795,0-6.869,3.075-6.869,6.869V90.91c0,3.794,3.074,5.504,6.869,5.504
			c3.793,0,6.868-1.71,6.868-5.504V75.688C43.36,71.895,40.285,68.819,36.492,68.819z"/>
		<path fill="#5E5F5E" d="M102.083,68.819c-3.794,0-6.868,3.075-6.868,6.869V90.91c0,3.794,3.074,5.504,6.868,5.504
			s6.868-1.71,6.868-5.504V75.688C108.951,71.895,105.877,68.819,102.083,68.819z"/>
		<path fill="#67B8CB" d="M107.521,51.998c-4.351-11.551-6.58-25.383-14.835-25.383c0,0-14.723-1.113-23.563-1.113
			c-8.332,0-23.583,1.113-23.583,1.113c-8.854,0-10.874,13.919-15.056,25.469c-6.328,2.735-11.523,10.286-10.762,16.361
			c0.992,7.92,1.803,24.504,13.115,24.504h72.558c11.313,0,12.713-20.049,13.084-24.504S113.956,54.687,107.521,51.998z"/>
		<path fill="#D0D1D1" d="M26.154,90.233c1.682,1.679,3.855,2.716,6.684,2.716h72.558c2.61,0,4.693-1.067,6.354-2.763
			c0.07-0.071-22.009-0.854-43.639-0.825C46.912,89.391,26.154,90.233,26.154,90.233z"/>
		<path fill="#67B8CB" d="M107.521,51.998c-4.351-11.551-6.58-25.383-14.835-25.383c0,0-14.723-1.113-23.563-1.113
			c-8.332,0-23.583,1.113-23.583,1.113c-8.854,0-10.874,13.919-15.056,25.469c-6.328,2.735-12.247,10.421-10.762,16.361
			c1.484,5.94,98.386,4.455,98.757,0S113.956,54.687,107.521,51.998z"/>
		<path fill="#67B8CB" d="M107.521,51.998c-4.351-11.551-6.58-25.383-14.835-25.383c0,0-14.723-1.113-23.563-1.113
			c-8.332,0-23.583,1.113-23.583,1.113c-8.854,0-10.874,13.919-15.056,25.469C24.156,54.819,113.956,54.687,107.521,51.998z"/>
		<path fill="#5EB1C0" d="M96.946,80.697c0,3.075-2.41,5.569-5.384,5.569H46.639c-2.973,0-5.383-2.494-5.383-5.569l0,0
			c0-3.074,2.41-5.568,5.383-5.568h44.924C94.536,75.129,96.946,77.623,96.946,80.697L96.946,80.697z"/>
		<path fill="#FFFFFF" d="M80.983,80.512c0,1.27-1.028,2.297-2.298,2.297h-19.17c-1.269,0-2.297-1.027-2.297-2.297l0,0
			c0-1.269,1.028-2.297,2.297-2.297h19.17C79.955,78.215,80.983,79.243,80.983,80.512L80.983,80.512z"/>
		<g>
			<path fill="#5EB1C0" d="M98.946,79.624c0,3.382,7.054,3.858,10.438,3.858c3.383,0,6.126-2.744,6.126-6.126
				c0-3.383-2.743-4.704-6.126-4.704C106,72.652,98.946,76.242,98.946,79.624z"/>
			<path fill="#FFFFFF" d="M100.173,79.288c0,2.883,6.01,3.286,8.892,3.286s5.218-2.335,5.218-5.218
				c0-2.881-2.336-3.713-5.218-3.713S100.173,76.407,100.173,79.288z"/>
		</g>
		<g>
			<path fill="#5EB1C0" d="M39.771,79.624c0,3.382-7.055,3.858-10.438,3.858s-6.126-2.744-6.126-6.126
				c0-3.383,2.742-4.704,6.126-4.704S39.771,76.242,39.771,79.624z"/>
			<path fill="#FFFFFF" d="M38.544,79.288c0,2.883-6.01,3.286-8.892,3.286s-5.219-2.335-5.219-5.218
				c0-2.881,2.337-3.713,5.219-3.713S38.544,76.407,38.544,79.288z"/>
		</g>
		<path opacity="0.8" fill="#B1D4D7" d="M48.644,28.755c0,0,13.241-0.909,20.474-0.909c7.675,0,20.453,0.909,20.453,0.909
			c7.272,0,9.305,11.129,13.049,20.576c1.794,4.521-68.903,4.508-67.174-0.026C39.049,39.862,40.871,28.755,48.644,28.755z"/>
		<path fill="#D3E0E1" d="M48.644,28.755c0,0,13.241-0.909,20.474-0.909c3.122,0,7.087,0.15,10.695,0.33L61.048,52.629
			c-14.173-0.302-26.331-1.409-25.603-3.324C39.049,39.862,40.871,28.755,48.644,28.755z"/>
	</g>
</g>
</svg>
