<?xml version="1.0" encoding="utf-8"?>
<!-- Generator: Adobe Illustrator 16.0.0, SVG Export Plug-In . SVG Version: 6.00 Build 0)  -->
<!DOCTYPE svg PUBLIC "-//W3C//DTD SVG 1.1//EN" "http://www.w3.org/Graphics/SVG/1.1/DTD/svg11.dtd">
<svg version="1.1" id="Layer_1" xmlns="http://www.w3.org/2000/svg" xmlns:xlink="http://www.w3.org/1999/xlink" x="0px" y="0px"
	 width="136.914px" height="136.913px" viewBox="0 0 136.914 136.913" enable-background="new 0 0 136.914 136.913"
	 xml:space="preserve">
<g>
	<g>
		<g>
			<g>
				<g>
					<g>
						<circle fill="#ECD9A9" cx="68.457" cy="68.457" r="63.333"/>
					</g>
				</g>
			</g>
		</g>
	</g>
	<g>
		<path fill="#C82127" d="M68.597,83.736h-0.159c-9.44,0.064-19.851-0.928-29.297-4.197v4.688c0,0,27.593,9.037,27.593,30.799
			c0,0,0.801,0.346,1.889,0.346s1.679-0.346,1.679-0.346c0-21.762,27.594-30.799,27.594-30.799v-4.688
			C88.448,82.809,78.038,83.801,68.597,83.736z"/>
	</g>
	<g>
		<path fill="#C82127" d="M46.339,45.414c0,0,15.542,2.559,20.421,15.734c1.674,4.52-1.004,14.395-18.914,10.795
			C47.846,71.943,32.278,68.178,46.339,45.414z"/>
		<polygon fill="#C82127" points="46.339,45.414 57.68,26.666 58.893,26.834 49.519,46.754 		"/>
		<path fill="#C82127" d="M93.107,45.414c0,0-15.543,2.559-20.422,15.734c-1.674,4.52,1.004,14.395,18.915,10.795
			C91.601,71.943,107.167,68.178,93.107,45.414z"/>
		<polygon fill="#C82127" points="93.107,45.414 81.766,26.666 80.553,26.834 89.927,46.754 		"/>
		<path fill="#C82127" d="M75.297,64.748c0,1.432-1.162,2.594-2.595,2.594h-6.695c-1.433,0-2.595-1.162-2.595-2.594l0,0
			c0-1.434,1.162-2.596,2.595-2.596h6.695C74.135,62.152,75.297,63.314,75.297,64.748L75.297,64.748z"/>
	</g>
</g>
</svg>
