<?xml version="1.0" encoding="utf-8"?>
<!-- Generator: Adobe Illustrator 16.0.0, SVG Export Plug-In . SVG Version: 6.00 Build 0)  -->
<!DOCTYPE svg PUBLIC "-//W3C//DTD SVG 1.1//EN" "http://www.w3.org/Graphics/SVG/1.1/DTD/svg11.dtd">
<svg version="1.1" id="Layer_1" xmlns="http://www.w3.org/2000/svg" xmlns:xlink="http://www.w3.org/1999/xlink" x="0px" y="0px"
	 width="136.913px" height="136.914px" viewBox="0 0 136.913 136.914" enable-background="new 0 0 136.913 136.914"
	 xml:space="preserve">
<g>
	<g>
		<g>
			<g>
				<g>
					<circle fill="#49A0AE" cx="68.457" cy="68.458" r="63.333"/>
				</g>
			</g>
		</g>
	</g>
	<g>
		<g>
			<g>
				<path fill="#786E57" d="M118.966,87.914c0,1.505-1.219,2.725-2.725,2.725h-95.35c-1.506,0-2.725-1.22-2.725-2.725V50.099
					c0-1.506,1.219-2.726,2.725-2.726h95.35c1.506,0,2.725,1.22,2.725,2.726V87.914z"/>
			</g>
			<g>
				<path fill="#B1D4D7" d="M107.181,87.211c0,1.505-1.221,2.725-2.727,2.725H20.306c-1.504,0-2.725-1.22-2.725-2.725V49.396
					c0-1.507,1.221-2.727,2.725-2.727h84.148c1.506,0,2.727,1.22,2.727,2.727V87.211z"/>
			</g>
			<g>
				<path fill="#E3E1DC" d="M118.073,87.211c0,1.505-1.221,2.725-2.727,2.725h-11.607V46.67h11.607c1.506,0,2.727,1.22,2.727,2.727
					V87.211z"/>
			</g>
			<g>
				<path fill="#9CC4C6" d="M81.688,56.227c0,1.067-0.865,1.933-1.932,1.933H68.862c-1.066,0-1.932-0.865-1.932-1.933l0,0
					c0-1.067,0.865-1.932,1.932-1.932h10.895C80.823,54.295,81.688,55.159,81.688,56.227L81.688,56.227z"/>
			</g>
			<g>
				<path fill="#9CC4C6" d="M99.962,56.227c0,1.067-0.867,1.933-1.934,1.933H87.136c-1.068,0-1.934-0.865-1.934-1.933l0,0
					c0-1.067,0.865-1.932,1.934-1.932h10.893C99.095,54.295,99.962,55.159,99.962,56.227L99.962,56.227z"/>
			</g>
			<g>
				<path fill="#9CC4C6" d="M81.688,80.414c0,1.067-0.865,1.933-1.932,1.933H68.862c-1.066,0-1.932-0.865-1.932-1.933l0,0
					c0-1.067,0.865-1.933,1.932-1.933h10.895C80.823,78.481,81.688,79.347,81.688,80.414L81.688,80.414z"/>
			</g>
			<g>
				<path fill="#9CC4C6" d="M99.962,80.414c0,1.067-0.867,1.933-1.934,1.933H87.136c-1.068,0-1.934-0.865-1.934-1.933l0,0
					c0-1.067,0.865-1.933,1.934-1.933h10.893C99.095,78.481,99.962,79.347,99.962,80.414L99.962,80.414z"/>
			</g>
			<g>
				<g>
					<path fill="#9CC4C6" d="M69.038,66.241h28.99c1.066,0,1.934-0.865,1.934-1.933s-0.867-1.933-1.934-1.933h-28.99
						c-1.066,0-1.932,0.865-1.932,1.933S67.972,66.241,69.038,66.241z"/>
				</g>
				<g>
					<path fill="#9CC4C6" d="M98.028,70.224h-28.99c-1.066,0-1.932,0.865-1.932,1.933s0.865,1.934,1.932,1.934h28.99
						c1.066,0,1.934-0.866,1.934-1.934S99.095,70.224,98.028,70.224z"/>
				</g>
			</g>
			<g>
				<g>
					<path fill="#786E57" d="M58.235,83.34c0,0-2.852-2.872-8.127-2.985l4.459-15.862l-6.418-0.764v-8.864h-5.088v-2.786
						c0-0.263-0.213-0.476-0.477-0.476H41.78h-0.855c-0.264,0-0.477,0.213-0.477,0.476v2.786h-5.291v8.882l-6.266,0.746l0.254,0.901
						l0,0l4.213,14.993c-2.875-0.1-6.096,0.593-9.178,2.979h18.49c0,0-0.014-0.01-0.037-0.025H58.235z"/>
				</g>
				<g>
					<rect x="36.304" y="56.011" fill="#B1D4D7" width="10.699" height="3.132"/>
				</g>
				<g>
					<path fill="#B1D4D7" d="M49.165,70.271l-0.604,0.795l0.35-0.015c-0.055,0.482-0.445,0.881-0.959,0.977l-0.102-2.56l0.463-0.019
						c0.1-0.005,0.174-0.098,0.17-0.213c-0.006-0.112-0.086-0.2-0.188-0.195l-0.461,0.018l-0.021-0.522
						c0.258-0.104,0.428-0.358,0.416-0.641c-0.014-0.367-0.33-0.655-0.701-0.639c-0.373,0.014-0.664,0.325-0.648,0.692
						c0.01,0.294,0.217,0.543,0.5,0.615l0.02,0.512l-0.414,0.018c-0.1,0.003-0.176,0.097-0.17,0.21
						c0.004,0.114,0.084,0.202,0.188,0.198l0.414-0.017l0.1,2.55c-0.494-0.077-0.885-0.434-0.973-0.889l0.326-0.014l-0.623-0.747
						l-0.604,0.796l0.373-0.015c0.148,0.752,0.781,1.309,1.559,1.369c0.041,0.073,0.109,0.118,0.184,0.114
						c0.074-0.001,0.137-0.049,0.174-0.123c0.791-0.098,1.414-0.719,1.506-1.495l0.352-0.015L49.165,70.271z M47.546,67.709
						c0.121-0.004,0.221,0.088,0.227,0.205c0.002,0.063-0.025,0.121-0.072,0.161c-0.078-0.063-0.193-0.052-0.26,0.022
						c-0.061-0.034-0.102-0.096-0.104-0.168C47.333,67.814,47.425,67.715,47.546,67.709z"/>
				</g>
			</g>
		</g>
		<g>
			<g>
				<path fill="#786E57" d="M118.087,55.349h-6.561c-0.84,0-1.521-0.683-1.521-1.522l0,0c0-0.842,0.682-1.523,1.521-1.523h6.561
					V55.349z"/>
			</g>
			<g>
				<path fill="#786E57" d="M118.087,61.146h-6.561c-0.84,0-1.521-0.683-1.521-1.522l0,0c0-0.841,0.682-1.523,1.521-1.523h6.561
					V61.146z"/>
			</g>
			<g>
				<path fill="#786E57" d="M118.087,67.296h-6.561c-0.84,0-1.521-0.683-1.521-1.523l0,0c0-0.841,0.682-1.522,1.521-1.522h6.561
					V67.296z"/>
			</g>
		</g>
		<g>
			<rect x="103.239" y="46.67" fill="#9CC4C6" width="1" height="43.266"/>
		</g>
		<g>
			<path fill="#786E57" d="M115.333,75.686c0.826,0,1.494,0.669,1.494,1.494v8.417c0,0.825-0.668,1.494-1.494,1.494l0,0
				c-0.824,0-1.492-0.669-1.492-1.494V77.18C113.841,76.354,114.509,75.686,115.333,75.686L115.333,75.686z"/>
		</g>
	</g>
</g>
</svg>
