<?xml version="1.0" encoding="utf-8"?>
<!-- Generator: Adobe Illustrator 16.0.0, SVG Export Plug-In . SVG Version: 6.00 Build 0)  -->
<!DOCTYPE svg PUBLIC "-//W3C//DTD SVG 1.1//EN" "http://www.w3.org/Graphics/SVG/1.1/DTD/svg11.dtd">
<svg version="1.1" id="Layer_1" xmlns="http://www.w3.org/2000/svg" xmlns:xlink="http://www.w3.org/1999/xlink" x="0px" y="0px"
	 width="136.913px" height="136.914px" viewBox="0 0 136.913 136.914" enable-background="new 0 0 136.913 136.914"
	 xml:space="preserve">
<g>
	<g>
		<g>
			<g>
				<g>
					<circle fill="#4ABC96" cx="68.457" cy="68.457" r="63.333"/>
				</g>
			</g>
		</g>
	</g>
	<g>
		<g>
			<path fill="#5E5F5E" d="M34.684,89.834c0,3.794-3.074,6.868-6.868,6.868l0,0c-3.794,0-6.869-3.074-6.869-6.868V74.612
				c0-3.794,3.075-6.868,6.869-6.868l0,0c3.794,0,6.868,3.074,6.868,6.868V89.834z"/>
			<path fill="#5E5F5E" d="M117.106,89.834c0,3.794-3.075,6.868-6.868,6.868l0,0c-3.795,0-6.869-3.074-6.869-6.868V74.612
				c0-3.794,3.074-6.868,6.869-6.868l0,0c3.793,0,6.868,3.074,6.868,6.868V89.834z"/>
			<path fill="#D32027" d="M108.003,52.41c-4.35-11.551-9.1-26.866-16.703-26.866c0,0-13.561-1.113-21.705-1.113
				c-7.675,0-21.724,1.113-21.724,1.113c-8.155,0-12.724,15.402-16.904,26.952c-6.329,2.735-12.247,10.421-10.763,16.361
				c1.485,5.94,7.979,24.503,17.821,24.503h63.115c9.842,0,17.45-20.048,17.821-24.503S114.439,55.099,108.003,52.41z"/>
			<path fill="#C82127" d="M51.632,29.753c0,0,11.609-0.986,17.949-0.986c6.731,0,17.936,0.986,17.936,0.986
				c6.377,0,13.52,13.736,17.477,23.958C106.887,58.604,101.833,78,94.167,78h-49.17c-7.665,0-12.786-19.407-10.96-24.313
				C37.841,43.464,44.814,29.753,51.632,29.753z"/>
			<path fill="#A81E22" d="M44.998,78c-7.665,0-12.786-19.407-10.96-24.313c0,0,1.872,9.237,4.236,14.058
				C41.369,74.057,44.998,78,44.998,78z"/>
			<path fill="#A81E22" d="M94.058,78c7.664,0,12.785-19.407,10.96-24.313c0,0-1.872,9.237-4.236,14.058
				C97.687,74.057,94.058,78,94.058,78z"/>
			<path fill="#C82127" d="M36.912,74.798c0,2.768-5.771,3.156-8.539,3.156s-5.012-2.245-5.012-5.013
				c0-2.767,2.243-5.012,5.012-5.012S36.912,72.031,36.912,74.798z"/>
			<path fill="#FFFFFF" d="M35.613,74.441c0,2.236-4.664,2.553-6.902,2.553c-2.237,0-4.051-1.816-4.051-4.053
				s1.813-4.051,4.051-4.051C30.949,68.891,35.613,72.205,35.613,74.441z"/>
			<path fill="#A81E22" d="M95.449,85.75c0,2.762-2.238,5.001-5,5.001h-41.73c-2.762,0-5-2.239-5-5.001l0,0c0-2.761,2.238-5,5-5
				h41.73C93.21,80.75,95.449,82.989,95.449,85.75L95.449,85.75z"/>
			<path fill="#C82127" d="M102.441,74.798c0,2.768,5.771,3.156,8.539,3.156s5.012-2.245,5.012-5.013
				c0-2.767-2.243-5.012-5.012-5.012S102.441,72.031,102.441,74.798z"/>
			<path fill="#FFFFFF" d="M103.445,74.522c0,2.358,4.916,2.688,7.273,2.688c2.359,0,4.27-1.911,4.27-4.27
				c0-2.356-1.91-4.27-4.27-4.27C108.361,68.672,103.445,72.166,103.445,74.522z"/>
			<circle fill="#F9F298" cx="29.61" cy="73.064" r="3.465"/>
			<circle fill="#F9F298" cx="109.804" cy="73.064" r="3.465"/>
		</g>
		<path opacity="0.8" fill="#B1D4D7" d="M49.125,29.167c0,0,13.241-0.909,20.474-0.909c7.675,0,20.453,0.909,20.453,0.909
			c7.272,0,9.305,11.129,13.05,20.576c1.793,4.521-68.904,4.508-67.176-0.026C39.53,40.274,41.353,29.167,49.125,29.167z"/>
		<path fill="#D3E0E1" d="M49.125,29.167c0,0,13.241-0.909,20.474-0.909c3.122,0,7.087,0.15,10.696,0.33L61.529,53.041
			c-14.172-0.302-26.331-1.409-25.604-3.324C39.53,40.274,41.353,29.167,49.125,29.167z"/>
		<g>
			<g>
				<path fill="#8D191C" d="M86.853,84.065H51.818c-0.373,0-0.674-0.301-0.674-0.673c0-0.373,0.301-0.673,0.674-0.673h35.035
					c0.373,0,0.675,0.3,0.675,0.673C87.528,83.765,87.226,84.065,86.853,84.065z"/>
			</g>
			<g>
				<path fill="#8D191C" d="M86.853,86.424H51.818c-0.373,0-0.674-0.301-0.674-0.674c0-0.371,0.301-0.673,0.674-0.673h35.035
					c0.373,0,0.675,0.302,0.675,0.673C87.528,86.123,87.226,86.424,86.853,86.424z"/>
			</g>
			<g>
				<path fill="#8D191C" d="M86.853,88.781H51.818c-0.373,0-0.674-0.3-0.674-0.673c0-0.371,0.301-0.673,0.674-0.673h35.035
					c0.373,0,0.675,0.302,0.675,0.673C87.528,88.481,87.226,88.781,86.853,88.781z"/>
			</g>
		</g>
		<g>
			<g>
				<g>
					<path fill="#F1E7A4" d="M76.421,71.635c-2.781,0.489-4.943,2.779-4.943,2.779v-0.003c-0.01,0.003-0.014,0.01-0.022,0.015
						c-0.776,0.435-1.687,0.284-2.038-0.337c-0.348-0.622-0.002-1.479,0.773-1.914C72.878,70.663,76.421,71.635,76.421,71.635z"/>
				</g>
				<g>
					<path fill="#F1E7A4" d="M75.298,73.012c-2.293,0.172-4.235,1.849-4.235,1.849l0,0c-0.006,0.003-0.011,0.007-0.018,0.009
						c-0.665,0.29-1.391,0.096-1.624-0.438c-0.232-0.533,0.117-1.197,0.781-1.489C72.505,71.937,75.298,73.012,75.298,73.012z"/>
				</g>
				<g>
					<path fill="#F1E7A4" d="M73.91,73.987c-1.715-0.078-3.303,0.992-3.303,0.992l-0.001-0.003
						c-0.005,0.001-0.011,0.003-0.015,0.004c-0.518,0.155-1.038-0.054-1.162-0.471c-0.125-0.415,0.195-0.876,0.713-1.033
						C71.937,72.94,73.91,73.987,73.91,73.987z"/>
				</g>
			</g>
			<g>
				<g>
					<path fill="#F1E7A4" d="M62.291,71.635c2.781,0.489,4.943,2.779,4.943,2.779v-0.003c0.009,0.003,0.014,0.01,0.021,0.015
						c0.776,0.435,1.688,0.284,2.038-0.337c0.349-0.622,0.003-1.479-0.772-1.914C65.833,70.663,62.291,71.635,62.291,71.635z"/>
				</g>
				<g>
					<path fill="#F1E7A4" d="M63.413,73.012c2.294,0.172,4.236,1.849,4.236,1.849l0,0c0.006,0.003,0.011,0.007,0.018,0.009
						c0.665,0.29,1.391,0.096,1.624-0.438c0.232-0.533-0.117-1.197-0.781-1.489C66.207,71.937,63.413,73.012,63.413,73.012z"/>
				</g>
				<g>
					<path fill="#F1E7A4" d="M64.802,73.987c1.714-0.078,3.302,0.992,3.302,0.992l0.001-0.003c0.005,0.001,0.011,0.003,0.016,0.004
						c0.518,0.155,1.038-0.054,1.161-0.471c0.126-0.415-0.194-0.876-0.712-1.033C66.775,72.94,64.802,73.987,64.802,73.987z"/>
				</g>
			</g>
			<circle fill="#A69C60" cx="69.198" cy="73.625" r="2.06"/>
			<circle fill="#FAF3D1" cx="69.198" cy="73.625" r="0.975"/>
		</g>
	</g>
</g>
</svg>
