<?xml version="1.0" encoding="utf-8"?>
<!-- Generator: Adobe Illustrator 16.0.0, SVG Export Plug-In . SVG Version: 6.00 Build 0)  -->
<!DOCTYPE svg PUBLIC "-//W3C//DTD SVG 1.1//EN" "http://www.w3.org/Graphics/SVG/1.1/DTD/svg11.dtd">
<svg version="1.1" id="Layer_1" xmlns="http://www.w3.org/2000/svg" xmlns:xlink="http://www.w3.org/1999/xlink" x="0px" y="0px"
	 width="136.914px" height="136.914px" viewBox="0 0 136.914 136.914" enable-background="new 0 0 136.914 136.914"
	 xml:space="preserve">
<g>
	<g>
		<g>
			<g>
				<g>
					<circle fill="#A2D4DE" cx="68.457" cy="68.457" r="63.333"/>
				</g>
			</g>
		</g>
	</g>
	<g>
		<g>
			<g>
				<polygon fill="#FFFFFF" points="88.802,37.895 86.328,35.639 20.253,49.998 28.13,65.795 				"/>
			</g>
		</g>
		<g>
			<path fill="#FFFFFF" d="M36.41,55.523c0.389-0.424,0.638-0.981,0.666-1.601c0.062-1.394-1.018-2.574-2.413-2.636
				c-0.561-0.025-1.087,0.137-1.52,0.429c-0.366-0.261-0.807-0.429-1.286-0.464c-0.41-0.751-1.189-1.277-2.106-1.318
				c-0.663-0.029-1.276,0.202-1.745,0.6c-0.407-0.333-0.918-0.545-1.483-0.57c-0.841-0.038-1.602,0.344-2.089,0.955
				c-0.854-0.9-2.042-1.487-3.38-1.546c-2.74-0.122-5.061,2.001-5.183,4.74c-0.007,0.156-0.005,0.308,0.002,0.459
				c-0.862,0.851-1.421,2.009-1.48,3.313c-0.096,2.168,1.216,4.071,3.125,4.833c0.142,2.514,2.168,4.563,4.738,4.678
				c0.693,0.03,1.359-0.083,1.97-0.313c0.675,0.396,1.452,0.639,2.288,0.676c2.303,0.102,4.304-1.383,4.958-3.484
				c2.464-0.192,4.454-2.193,4.567-4.727c0.017-0.378-0.013-0.747-0.077-1.105c0.422-0.43,0.695-1.008,0.724-1.658
				C36.706,56.331,36.604,55.9,36.41,55.523z"/>
		</g>
		<g>
			<g>
				<polygon fill="#FFFFFF" points="101.478,64.563 101.737,67.9 49.82,111.219 42.192,95.299 				"/>
			</g>
		</g>
		<g>
			<path fill="#FFFFFF" d="M56.775,95.714c0.583-0.048,1.185,0.103,1.699,0.467c1.156,0.819,1.428,2.421,0.607,3.579
				c-0.33,0.465-0.788,0.787-1.292,0.953c-0.02,0.457-0.162,0.913-0.432,1.319c0.347,0.8,0.283,1.75-0.257,2.513
				c-0.391,0.549-0.958,0.898-1.571,1.025c0.014,0.534-0.136,1.077-0.468,1.545c-0.496,0.698-1.276,1.072-2.07,1.08
				c0.189,1.248-0.083,2.567-0.87,3.677c-1.613,2.272-4.764,2.81-7.038,1.197c-0.129-0.092-0.25-0.189-0.367-0.289
				c-1.22,0.161-2.499-0.115-3.581-0.882c-1.8-1.277-2.506-3.516-1.925-5.523c-1.928-1.683-2.306-4.588-0.793-6.72
				c0.407-0.576,0.915-1.039,1.48-1.386c0.104-0.788,0.394-1.563,0.885-2.257c1.356-1.912,3.796-2.588,5.891-1.802
				c1.693-1.854,4.54-2.205,6.642-0.712c0.315,0.224,0.592,0.477,0.839,0.751c0.608-0.068,1.243,0.074,1.781,0.456
				C56.312,94.972,56.593,95.326,56.775,95.714z"/>
		</g>
		<g>
			<g>
				<g>
					<path fill="#ECC31B" d="M64.997,66.098c0,0-4.263,2.369-4.474,2.487c-0.21,0.12-0.458,0.088-0.669-0.1
						c-1.423-1.27-7.144-6.376-9.973-8.961c-0.29-0.266,1.088-0.876,1.528-0.907c2.741-0.186,12.045,6.161,13.576,7.219
						C65.123,65.934,64.997,66.098,64.997,66.098z"/>
				</g>
				<g>
					<path fill="#ECC31B" d="M110.397,40.313c0,0-9.908,5.504-10.398,5.782c-0.491,0.278-1.068,0.203-1.557-0.233
						c-3.309-2.952-16.604-14.82-23.181-20.831c-0.677-0.619,2.528-2.039,3.55-2.108c6.373-0.433,28,14.324,31.557,16.784
						C110.69,39.932,110.397,40.313,110.397,40.313z"/>
				</g>
				<g>
					<path fill="#ECC31B" d="M61.525,70.768c0,0-2.487-0.018-3.559-1.303c-1.072-1.286,1.148-3.532,1.148-3.532
						c-1.065-2.137,49.325-29.423,49.325-29.423c2.137-1.065,10.782-4.607,13.515,0.874c2.732,5.479-5.11,10.633-7.246,11.698
						C114.708,49.081,62.591,72.903,61.525,70.768z"/>
				</g>
				<g>
					<path fill="#ECC31B" d="M113.177,45.891c0,0-10.359,4.6-10.875,4.825c-0.517,0.223-0.805,0.73-0.75,1.383
						c0.366,4.419,1.843,22.18,2.685,31.05c0.088,0.912,3.15-0.793,3.82-1.567c4.181-4.829,5.411-30.982,5.587-35.303
						C113.659,45.886,113.177,45.891,113.177,45.891z"/>
				</g>
				<g>
					<path fill="#ECC31B" d="M64.979,66.063c0,0-4.457,1.979-4.678,2.076c-0.223,0.096-0.347,0.314-0.323,0.595
						c0.158,1.901,0.792,9.542,1.155,13.357c0.038,0.394,1.354-0.34,1.644-0.673c1.798-2.078,2.328-13.328,2.404-15.187
						C65.187,66.061,64.979,66.063,64.979,66.063z"/>
				</g>
			</g>
			<g>
				<path fill="#ECC31B" d="M98.754,30.654c1.088,2.475-0.033,5.364-2.508,6.453l-4.745,2.091c-2.474,1.089-5.363-0.035-6.453-2.508
					l0,0c-1.088-2.476,0.033-5.365,2.508-6.455l4.744-2.089C94.775,27.058,97.665,28.18,98.754,30.654L98.754,30.654z"/>
			</g>
			<g>
				<path fill="#ECC31B" d="M114.499,60.558c1.28,2.382,0.389,5.351-1.993,6.631l-4.567,2.457c-2.38,1.279-5.35,0.387-6.63-1.993
					l0,0c-1.28-2.383-0.389-5.352,1.993-6.631l4.566-2.456C110.25,57.285,113.219,58.177,114.499,60.558L114.499,60.558z"/>
			</g>
		</g>
		<g>
			<path fill="#F1CB2C" d="M114.708,49.081c2.136-1.065,9.979-6.219,7.246-11.698L57.966,69.464c0.532,0.639,1.414,0.964,2.167,1.13
				c0.256,3.071,0.713,8.476,1,11.496c0.038,0.394,1.354-0.34,1.644-0.673c1.233-1.424,1.869-7.159,2.172-11.225
				c7.301-2.324,24.681-9.884,36.835-15.294c0.152,1.823,0.349,4.178,0.569,6.795c-1.644,1.473-2.136,3.928-1.044,5.96
				c0.416,0.773,1.012,1.387,1.707,1.823c0.434,5.031,0.879,10.081,1.22,13.672c0.088,0.912,3.15-0.793,3.82-1.567
				c1.746-2.016,2.975-7.75,3.83-14.058l0.62-0.334c2.381-1.28,3.273-4.249,1.993-6.631c-0.406-0.756-0.984-1.361-1.659-1.795
				c0.307-3.516,0.513-6.75,0.642-9.124C114.271,49.281,114.708,49.081,114.708,49.081z"/>
		</g>
		<g>
			<path fill="#D3E0E1" d="M115.834,35.029l5.93,6.931C121.765,41.959,123.693,34.386,115.834,35.029z"/>
		</g>
	</g>
</g>
</svg>
