<?xml version="1.0" encoding="utf-8"?>
<!-- Generator: Adobe Illustrator 16.0.0, SVG Export Plug-In . SVG Version: 6.00 Build 0)  -->
<!DOCTYPE svg PUBLIC "-//W3C//DTD SVG 1.1//EN" "http://www.w3.org/Graphics/SVG/1.1/DTD/svg11.dtd">
<svg version="1.1" id="Layer_1" xmlns="http://www.w3.org/2000/svg" xmlns:xlink="http://www.w3.org/1999/xlink" x="0px" y="0px"
	 width="136.913px" height="136.913px" viewBox="0 0 136.913 136.913" enable-background="new 0 0 136.913 136.913"
	 xml:space="preserve">
<g>
	<g>
		<g>
			<g>
				<g>
					<circle fill="#A2D4DE" cx="68.456" cy="68.457" r="63.333"/>
				</g>
			</g>
		</g>
	</g>
	<g>
		<path fill="#D62127" d="M29.256,58.838l66.195,1.32C83.91,45.908,72.494,42.301,61.688,42.086
			C50.205,41.855,37.627,45.658,29.256,58.838z"/>
		<path fill="#A2DADB" d="M63.371,59.313l26.682,0.533c-9.029-11.148-17.957-13.967-26.41-14.137L63.371,59.313z"/>
		<path fill="#A2DADB" d="M60.162,59.248L33.48,58.717c9.465-10.779,18.498-13.242,26.955-13.074L60.162,59.248z"/>
		<path fill="#D62127" d="M31.213,79.316c0,0,84.049,1.68,86.963,1.738c2.025,0.039,2.277-4.012,2.277-4.012
			c0.363-18.236-27.365-17.1-27.365-17.1L29.346,58.67c0,0-4.814,2.766-9.955,3.518c-3.811,0.557-5.143,3.781-5.215,7.328
			C14.086,74.117,16.904,76.75,31.213,79.316z"/>
		<path fill="#818282" d="M71.061,78.592c28.244,0.057,49.172-0.072,49.172-0.072s0.023,0.316,0.102,1.205
			c0.098,1.117-0.471,1.871-1.293,1.854l-87.754-1.754l-0.131-2.029C39.773,77.629,42.816,78.535,71.061,78.592z"/>
		<path fill="#202121" d="M112.156,77.979c0.115-5.736-4.441-10.48-10.178-10.594S91.5,71.826,91.387,77.563
			c-0.115,5.736,4.441,10.479,10.176,10.594C107.301,88.268,112.041,83.713,112.156,77.979z"/>
		<circle fill="#202121" cx="40.981" cy="76.555" r="10.388"/>
		<circle fill="#818282" cx="101.771" cy="77.771" r="5.065"/>
		<circle fill="#818282" cx="40.981" cy="76.556" r="5.066"/>
	</g>
</g>
</svg>
