<?xml version="1.0" encoding="utf-8"?>
<!-- Generator: Adobe Illustrator 16.0.0, SVG Export Plug-In . SVG Version: 6.00 Build 0)  -->
<!DOCTYPE svg PUBLIC "-//W3C//DTD SVG 1.1//EN" "http://www.w3.org/Graphics/SVG/1.1/DTD/svg11.dtd">
<svg version="1.1" id="Layer_1" xmlns="http://www.w3.org/2000/svg" xmlns:xlink="http://www.w3.org/1999/xlink" x="0px" y="0px"
	 width="136.833px" height="136.834px" viewBox="0 0 136.833 136.834" style="enable-background:new 0 0 136.833 136.834;"
	 xml:space="preserve">
<style type="text/css">
<![CDATA[
	.st0{fill:#7A430B;}
	.st1{fill:#AA9A83;}
	.st2{fill:#AC4736;}
	.st3{fill:#499544;}
	.st4{fill:#7D3719;}
	.st5{fill:#AD842D;}
	.st6{fill:#AE8032;}
	.st7{fill:#AF5E27;}
	.st8{fill:#E0A925;}
	.st9{fill:#E0E0E0;}
	.st10{fill:#E1544A;}
	.st11{fill:#E1B623;}
	.st12{fill:#E37926;}
	.st13{fill:#E3DFC6;}
	.st14{fill:#E3E4E5;}
	.st15{fill:#E48225;}
	.st16{fill:#E4C88F;}
	.st17{fill:#E54526;}
	.st18{fill:#E55126;}
	.st19{fill:#4ABC96;}
	.st20{fill:#E5DBCF;}
	.st21{fill:#184166;}
	.st22{fill:#196935;}
	.st23{fill:#4D8741;}
	.st24{fill:#E89C23;}
	.st25{fill:#E8DADD;}
	.st26{fill:#E8EAEB;}
	.st27{fill:#E92C25;}
	.st28{fill:#E9683B;}
	.st29{fill:#E98F23;}
	.st30{fill:#E99323;}
	.st31{fill:#E9B14D;}
	.st32{fill:#E9D8CB;}
	.st33{fill:#E9EEEE;}
	.st34{fill:#B1C635;}
	.st35{fill:#B21F24;}
	.st36{opacity:0.25;}
	.st37{fill:#83B041;}
	.st38{fill:#846A35;}
	.st39{fill:#B3BB35;}
	.st40{fill:#85983A;}
	.st41{fill:#864F4F;}
	.st42{fill:#EA9F3C;}
	.st43{fill:#EAAE7A;}
	.st44{fill:#EAD760;}
	.st45{fill:#B73535;}
	.st46{fill:#B7567D;}
	.st47{fill:#B79051;}
	.st48{fill:#EB7623;}
	.st49{fill:#EB8123;}
	.st50{fill:#EB9682;}
	.st51{fill:#EB9C22;}
	.st52{fill:#1D9E49;}
	.st53{fill:#B88B3B;}
	.st54{fill:#B88C33;}
	.st55{fill:#EC1C24;}
	.st56{fill:#EC2224;}
	.st57{fill:#ECDE7A;}
	.st58{fill:#EDC92C;}
	.st59{fill:#EDEDED;}
	.st60{fill:#EEB760;}
	.st61{fill:#EEE26F;}
	.st62{fill:#EFCF8A;}
	.st63{fill:#EFCFA7;}
	.st64{fill:#EFEFEF;}
	.st65{fill:#EFF2F1;}
	.st66{fill:#543D18;}
	.st67{fill:#568D4D;}
	.st68{fill:#8B5122;}
	.st69{fill:#8BC53F;}
	.st70{fill:#BB6828;}
	.st71{fill:#BB9E70;}
	.st72{fill:#BDDA83;}
	.st73{fill:#BE6328;}
	.st74{fill:#8F8547;}
	.st75{fill:#F0A91E;}
	.st76{fill:#F0B234;}
	.st77{fill:#F1CE6A;}
	.st78{fill:#F1CF13;}
	.st79{fill:#F1E2A3;}
	.st80{fill:#F2BA2C;}
	.st81{fill:#F2CF3B;}
	.st82{fill:#F2E78A;}
	.st83{fill:#F2ECC6;}
	.st84{fill:#F37C2A;}
	.st85{fill:#F3B022;}
	.st86{fill:#F3C121;}
	.st87{fill:#F3C480;}
	.st88{fill:#F3E4CE;}
	.st89{fill:#F4BD1C;}
	.st90{fill:#F4CE9D;}
	.st91{fill:#264E6E;}
	.st92{fill:#F58721;}
	.st93{fill:#F5D1AF;}
	.st94{fill:#F5E11C;}
	.st95{fill:#F69220;}
	.st96{fill:#F6E6E8;}
	.st97{fill:#5C2A2A;}
	.st98{fill:#F7991F;}
	.st99{fill:#F7CC55;}
	.st100{fill:#F7E8DD;}
	.st101{fill:#F8DA02;}
	.st102{fill:#F8E37F;}
	.st103{fill:#F8F0E9;}
	.st104{fill:#F9A65C;}
	.st105{fill:#F9C74F;}
	.st106{fill:#F9C900;}
	.st107{fill:#F9CE82;}
	.st108{fill:#F9ECE0;}
	.st109{fill:#F9ECE4;}
	.st110{fill:#F9EDE4;}
	.st111{clip-path:url(#SVGID_2_);}
	.st112{clip-path:url(#SVGID_4_);}
	.st113{clip-path:url(#SVGID_6_);}
	.st114{clip-path:url(#SVGID_8_);}
	.st115{fill:#C13B3B;}
	.st116{fill:#C16028;}
	.st117{fill:#925A25;}
	.st118{fill:#C35328;}
	.st119{fill:#C42126;}
	.st120{fill:#952E25;}
	.st121{fill:#C4BEBA;}
	.st122{fill:#95C83D;}
	.st123{fill:#C6C3C2;}
	.st124{fill:#2CAEA1;}
	.st125{fill:#989897;}
	.st126{fill:#99B93C;}
	.st127{fill:#C9C9C9;}
	.st128{fill:#FDD300;}
	.st129{fill:#FDD600;}
	.st130{fill:#FDD842;}
	.st131{fill:#FDE500;}
	.st132{opacity:0.5;}
	.st133{opacity:0.6;}
	.st134{opacity:0.8;}
	.st135{fill:#FFDD4D;}
	.st136{fill:#FFEFAE;}
	.st137{fill:#FFFBF8;}
	.st138{fill:#FFFFFF;}
	.st139{fill:#CA2027;}
	.st140{fill:#CB7129;}
	.st141{fill:#CC3828;}
	.st142{fill:#9E4F23;}
	.st143{fill:#CECFD0;}
	.st144{fill:#CF4827;}
	.st145{fill:#39617D;}
	.st146{fill:#D1BAC0;}
	.st147{fill:#034F6D;}
	.st148{fill:#D2AE73;}
	.st149{fill:#D2B676;}
	.st150{fill:#D62127;}
	.st151{fill:#D62427;}
	.st152{fill:#D6AC60;}
	.st153{fill:#D6D0CC;}
	.st154{fill:#D7C527;}
	.st155{fill:#D7D7D7;}
	.st156{fill:#702313;}
	.st157{clip-path:url(#SVGID_10_);}
	.st158{clip-path:url(#SVGID_12_);}
	.st159{clip-path:url(#SVGID_14_);}
	.st160{clip-path:url(#SVGID_16_);}
	.st161{fill:#A31E22;}
	.st162{fill:#A46A28;}
	.st163{fill:#76692A;}
	.st164{fill:#DA1F26;}
	.st165{fill:#DB2F2C;}
	.st166{fill:#DBD0A1;}
	.st167{fill:#DBDDDC;}
	.st168{fill:#A81E22;}
	.st169{fill:#796027;}
	.st170{fill:#DC965F;}
	.st171{fill:#DD9328;}
	.st172{fill:#DD9454;}
	.st173{fill:#DDC97D;}
	.st174{fill:#DDDFE0;}
	.st175{fill:#DDE077;}
	.st176{fill:#DFE0E1;}
]]>
</style>
<g>
	<g>
		<g>
			<g>
				<g>
					<g>
						<circle class="st58" cx="68.417" cy="68.417" r="63.333"/>
					</g>
				</g>
			</g>
		</g>
	</g>
	<g>
		<g>
			<g>
				<path class="st6" d="M37.876,78.382l7.329,27.576c0,0,0.87,4.346,2.36,5.091s5.093,0.622,5.093,0.622h37.513
					c0,0,2.98,0.248,4.967-1.242c1.385-1.038,1.74-3.851,1.74-3.851l7.576-31.178L37.876,78.382z"/>
			</g>
		</g>
		<g>
			<g>
				<path class="st53" d="M40.821,79.212l6.681,25.138c0,0,0.793,3.962,2.151,4.642s4.643,0.567,4.643,0.567H88.49
					c0,0,2.718,0.227,4.529-1.132c1.262-0.947,1.585-3.512,1.585-3.512l6.907-28.42L40.821,79.212z"/>
			</g>
		</g>
		<g>
			<g>
				<polygon class="st6" points="81.516,111.763 67.321,111.489 59.149,83.793 56.415,83.564 57.266,109.962 54.268,110.06 
					53.307,80.295 61.444,80.975 69.577,108.532 78.932,108.712 82.536,84.157 90.428,83.501 96.398,107.382 93.488,108.108 
					88.137,86.702 85.159,86.95 				"/>
			</g>
		</g>
		<g>
			<g>
				<path class="st148" d="M121.783,56.335c0-8.063-6.861-14.598-15.328-14.598c-1.753,0-3.43,0.295-4.998,0.811
					c0.169-0.879,0.27-1.782,0.27-2.707c0-8.247-7.02-14.934-15.678-14.934c-6.447,0-11.98,3.71-14.389,9.008
					c-2.888-5.627-8.954-9.503-15.973-9.503c-9.813,0-17.768,7.575-17.768,16.922c0,2.88,0.758,5.59,2.089,7.964l-1.3,1.949
					c-2.338-2.416-5.678-3.94-9.4-3.94c-7.064,0-12.791,5.454-12.791,12.181c0,6.729,5.727,12.184,12.791,12.184
					c0.256,0,0.505-0.023,0.757-0.037c-1.312,1.528-2.101,3.479-2.101,5.607c0,4.896,4.166,8.863,9.307,8.863
					c3.961,0,7.334-2.36,8.679-5.682c2.252,6.203,8.433,10.659,15.71,10.659c6.016,0,11.283-3.043,14.202-7.6
					c0.417,6.331,5.923,11.344,12.675,11.344c3.594,0,6.834-1.425,9.146-3.709c1.344,0.459,2.783,0.722,4.292,0.722
					c7.023,0,12.716-5.42,12.716-12.111c0-3.709-1.756-7.023-4.513-9.245C116.841,68.897,121.783,63.174,121.783,56.335z"/>
			</g>
		</g>
		<g>
			<g>
				<path class="st173" d="M117.044,56.631c0-7.337-6.225-12.349-13.929-12.349c-1.595,0-3.12,0.268-4.548,0.736
					c0.154-0.8,0.226-2.556,0.226-3.397c0-7.505-6.388-13.588-14.267-13.588c-5.867,0-10.902,5.598-13.094,10.419
					c-2.627-5.121-8.146-10.869-14.533-10.869c-8.93,0-16.168,6.893-16.168,15.397c0,2.619,0.688,5.086,1.9,7.247l-2.718,4.075
					c-2.126-2.199-5.165-3.585-8.554-3.585c-6.428,0-10.104,2.66-10.104,8.783c0,6.122,5.21,11.085,11.64,11.085
					c0.232,0,0.459-0.021,0.688-0.033c-1.193,1.39-1.91,3.165-1.91,5.102c0,4.456,1.979,7.408,6.657,7.408
					c3.604,0,6.929-2.64,8.151-5.662c2.05,5.645,9.23,10.849,15.853,10.849c5.474,0,11.157-4.889,13.813-9.035
					c0.379,5.76,5.179,11.55,11.322,11.55c3.271,0,6.898-0.393,9.002-2.471c1.223,0.418,2.533,0.657,3.906,0.657
					c6.391,0,10.213-4.944,10.213-11.032c0-3.376-1.598-6.392-4.106-8.413C112.548,68.062,117.044,62.854,117.044,56.631z"/>
			</g>
		</g>
		<g>
			<g>
				<path class="st149" d="M71.433,38.452c-2.627-5.121-8.146-10.869-14.533-10.869c-8.93,0-16.168,6.893-16.168,15.397
					c0,2.619,0.688,5.086,1.9,7.247l-2.718,4.075c-2.126-2.199-5.165-3.585-8.554-3.585c-6.428,0-10.104,2.66-10.104,8.783
					c0,6.122,5.21,11.085,11.64,11.085c0.232,0,0.459-0.021,0.688-0.033c-1.193,1.39-1.91,3.165-1.91,5.102
					c0,4.456,1.979,7.408,6.657,7.408c3.604,0,6.929-2.64,8.151-5.662c2.05,5.645,9.23,10.849,15.853,10.849
					c5.474,0,11.157-4.889,13.813-9.035L71.433,38.452z"/>
			</g>
		</g>
		<g>
			<g>
				<path class="st170" d="M87.923,42.302c-0.906-1.813-5.209-5.66-7.699-1.584c-2.491,4.074-0.227,7.925,3.623,7.019
					C87.697,46.832,88.83,44.114,87.923,42.302z"/>
			</g>
		</g>
		<g>
			<g>
				<path class="st170" d="M72.496,59.737c-0.997-1.811-5.73-5.66-8.471-1.584c-2.742,4.076-0.25,7.926,3.985,7.02
					C72.246,64.268,73.492,61.551,72.496,59.737z"/>
			</g>
		</g>
		<g>
			<g>
				<path class="st170" d="M95.169,78.534c-0.905-1.813-5.207-5.661-7.699-1.586c-2.491,4.077-0.227,7.926,3.623,7.021
					C94.943,83.063,96.076,80.346,95.169,78.534z"/>
			</g>
		</g>
		<g>
			<g>
				<path class="st170" d="M41.275,61.323c-0.906-1.813-5.209-5.66-7.701-1.586c-2.49,4.076-0.226,7.926,3.625,7.021
					C41.047,65.852,42.179,63.135,41.275,61.323z"/>
			</g>
		</g>
		<g>
			<g>
				<path class="st54" d="M58.646,40.759c-1.535-1.322-6.986-3.218-7.717,1.501c-0.73,4.722,2.842,7.402,6.047,5.085
					C60.18,45.027,60.179,42.083,58.646,40.759z"/>
			</g>
		</g>
		<g>
			<g>
				<path class="st54" d="M57.937,76.199c1.26-1.587,2.932-7.111-1.814-7.647c-4.747-0.538-7.279,3.141-4.834,6.249
					C53.736,77.907,56.677,77.786,57.937,76.199z"/>
			</g>
		</g>
		<g>
			<g>
				<path class="st54" d="M93.132,59.513c-0.906-1.812-5.209-5.66-7.699-1.585c-2.492,4.075-0.227,7.926,3.622,7.02
					C92.906,64.042,94.039,61.324,93.132,59.513z"/>
			</g>
		</g>
		<g>
			<g>
				<path class="st54" d="M107.585,59.727c1.048-1.354,2.406-6.111-1.602-6.658c-4.01-0.547-6.113,2.597-4.02,5.33
					C104.056,61.132,106.538,61.078,107.585,59.727z"/>
			</g>
		</g>
	</g>
</g>
</svg>
