<?xml version="1.0" encoding="utf-8"?>
<!-- Generator: Adobe Illustrator 16.0.0, SVG Export Plug-In . SVG Version: 6.00 Build 0)  -->
<!DOCTYPE svg PUBLIC "-//W3C//DTD SVG 1.1//EN" "http://www.w3.org/Graphics/SVG/1.1/DTD/svg11.dtd">
<svg version="1.1" id="Layer_1" xmlns="http://www.w3.org/2000/svg" xmlns:xlink="http://www.w3.org/1999/xlink" x="0px" y="0px"
	 width="136.833px" height="136.834px" viewBox="0 0 136.833 136.834" style="enable-background:new 0 0 136.833 136.834;"
	 xml:space="preserve">
<style type="text/css">
<![CDATA[
	.st0{fill:#7A430B;}
	.st1{fill:#AA9A83;}
	.st2{fill:#AC4736;}
	.st3{fill:#499544;}
	.st4{fill:#7D3719;}
	.st5{fill:#AD842D;}
	.st6{fill:#AE8032;}
	.st7{fill:#AF5E27;}
	.st8{fill:#E0A925;}
	.st9{fill:#E0E0E0;}
	.st10{fill:#E1544A;}
	.st11{fill:#E1B623;}
	.st12{fill:#E37926;}
	.st13{fill:#E3DFC6;}
	.st14{fill:#E3E4E5;}
	.st15{fill:#E48225;}
	.st16{fill:#E4C88F;}
	.st17{fill:#E54526;}
	.st18{fill:#E55126;}
	.st19{fill:#4ABC96;}
	.st20{fill:#E5DBCF;}
	.st21{fill:#184166;}
	.st22{fill:#196935;}
	.st23{fill:#4D8741;}
	.st24{fill:#E89C23;}
	.st25{fill:#E8DADD;}
	.st26{fill:#E8EAEB;}
	.st27{fill:#E92C25;}
	.st28{fill:#E9683B;}
	.st29{fill:#E98F23;}
	.st30{fill:#E99323;}
	.st31{fill:#E9B14D;}
	.st32{fill:#E9D8CB;}
	.st33{fill:#E9EEEE;}
	.st34{fill:#B1C635;}
	.st35{fill:#B21F24;}
	.st36{opacity:0.25;}
	.st37{fill:#83B041;}
	.st38{fill:#846A35;}
	.st39{fill:#B3BB35;}
	.st40{fill:#85983A;}
	.st41{fill:#864F4F;}
	.st42{fill:#EA9F3C;}
	.st43{fill:#EAAE7A;}
	.st44{fill:#EAD760;}
	.st45{fill:#B73535;}
	.st46{fill:#B7567D;}
	.st47{fill:#B79051;}
	.st48{fill:#EB7623;}
	.st49{fill:#EB8123;}
	.st50{fill:#EB9682;}
	.st51{fill:#EB9C22;}
	.st52{fill:#1D9E49;}
	.st53{fill:#B88B3B;}
	.st54{fill:#B88C33;}
	.st55{fill:#EC1C24;}
	.st56{fill:#EC2224;}
	.st57{fill:#ECDE7A;}
	.st58{fill:#EDC92C;}
	.st59{fill:#EDEDED;}
	.st60{fill:#EEB760;}
	.st61{fill:#EEE26F;}
	.st62{fill:#EFCF8A;}
	.st63{fill:#EFCFA7;}
	.st64{fill:#EFEFEF;}
	.st65{fill:#EFF2F1;}
	.st66{fill:#543D18;}
	.st67{fill:#568D4D;}
	.st68{fill:#8B5122;}
	.st69{fill:#8BC53F;}
	.st70{fill:#BB6828;}
	.st71{fill:#BB9E70;}
	.st72{fill:#BDDA83;}
	.st73{fill:#BE6328;}
	.st74{fill:#8F8547;}
	.st75{fill:#F0A91E;}
	.st76{fill:#F0B234;}
	.st77{fill:#F1CE6A;}
	.st78{fill:#F1CF13;}
	.st79{fill:#F1E2A3;}
	.st80{fill:#F2BA2C;}
	.st81{fill:#F2CF3B;}
	.st82{fill:#F2E78A;}
	.st83{fill:#F2ECC6;}
	.st84{fill:#F37C2A;}
	.st85{fill:#F3B022;}
	.st86{fill:#F3C121;}
	.st87{fill:#F3C480;}
	.st88{fill:#F3E4CE;}
	.st89{fill:#F4BD1C;}
	.st90{fill:#F4CE9D;}
	.st91{fill:#264E6E;}
	.st92{fill:#F58721;}
	.st93{fill:#F5D1AF;}
	.st94{fill:#F5E11C;}
	.st95{fill:#F69220;}
	.st96{fill:#F6E6E8;}
	.st97{fill:#5C2A2A;}
	.st98{fill:#F7991F;}
	.st99{fill:#F7CC55;}
	.st100{fill:#F7E8DD;}
	.st101{fill:#F8DA02;}
	.st102{fill:#F8E37F;}
	.st103{fill:#F8F0E9;}
	.st104{fill:#F9A65C;}
	.st105{fill:#F9C74F;}
	.st106{fill:#F9C900;}
	.st107{fill:#F9CE82;}
	.st108{fill:#F9ECE0;}
	.st109{fill:#F9ECE4;}
	.st110{fill:#F9EDE4;}
	.st111{clip-path:url(#SVGID_2_);}
	.st112{clip-path:url(#SVGID_4_);}
	.st113{clip-path:url(#SVGID_6_);}
	.st114{clip-path:url(#SVGID_8_);}
	.st115{fill:#C13B3B;}
	.st116{fill:#C16028;}
	.st117{fill:#925A25;}
	.st118{fill:#C35328;}
	.st119{fill:#C42126;}
	.st120{fill:#952E25;}
	.st121{fill:#C4BEBA;}
	.st122{fill:#95C83D;}
	.st123{fill:#C6C3C2;}
	.st124{fill:#2CAEA1;}
	.st125{fill:#989897;}
	.st126{fill:#99B93C;}
	.st127{fill:#C9C9C9;}
	.st128{fill:#FDD300;}
	.st129{fill:#FDD600;}
	.st130{fill:#FDD842;}
	.st131{fill:#FDE500;}
	.st132{opacity:0.5;}
	.st133{opacity:0.6;}
	.st134{opacity:0.8;}
	.st135{fill:#FFDD4D;}
	.st136{fill:#FFEFAE;}
	.st137{fill:#FFFBF8;}
	.st138{fill:#FFFFFF;}
	.st139{fill:#CA2027;}
	.st140{fill:#CB7129;}
	.st141{fill:#CC3828;}
	.st142{fill:#9E4F23;}
	.st143{fill:#CECFD0;}
	.st144{fill:#CF4827;}
	.st145{fill:#39617D;}
	.st146{fill:#D1BAC0;}
	.st147{fill:#034F6D;}
	.st148{fill:#D2AE73;}
	.st149{fill:#D2B676;}
	.st150{fill:#D62127;}
	.st151{fill:#D62427;}
	.st152{fill:#D6AC60;}
	.st153{fill:#D6D0CC;}
	.st154{fill:#D7C527;}
	.st155{fill:#D7D7D7;}
	.st156{fill:#702313;}
	.st157{clip-path:url(#SVGID_10_);}
	.st158{clip-path:url(#SVGID_12_);}
	.st159{clip-path:url(#SVGID_14_);}
	.st160{clip-path:url(#SVGID_16_);}
	.st161{fill:#A31E22;}
	.st162{fill:#A46A28;}
	.st163{fill:#76692A;}
	.st164{fill:#DA1F26;}
	.st165{fill:#DB2F2C;}
	.st166{fill:#DBD0A1;}
	.st167{fill:#DBDDDC;}
	.st168{fill:#A81E22;}
	.st169{fill:#796027;}
	.st170{fill:#DC965F;}
	.st171{fill:#DD9328;}
	.st172{fill:#DD9454;}
	.st173{fill:#DDC97D;}
	.st174{fill:#DDDFE0;}
	.st175{fill:#DDE077;}
	.st176{fill:#DFE0E1;}
]]>
</style>
<g>
	<g>
		<g>
			<g>
				<g>
					<g>
						<circle class="st84" cx="68.416" cy="68.417" r="63.333"/>
					</g>
				</g>
			</g>
		</g>
	</g>
	<g>
		<g>
			<g>
				<path class="st37" d="M88.312,58.078c-3.326,2.117-5.729,5.541-7.051,9.563c-4.123-0.456-8.156,0.283-11.424,2.36
					c-8.754,5.566-12.299,19.628-0.416,30.618c10.689,9.89,20.818,14.408,29.568,8.84c2.432-1.547,5.217-3.994,5.744-5.275
					c1.609,0.007,4.607-1.479,6.971-2.979c8.748-5.568,8.947-16.658,4.52-30.533C111.304,55.256,97.063,52.51,88.312,58.078z"/>
			</g>
		</g>
		<g>
			<g>
				<path class="st4" d="M82.802,71.373c0,0-2.752-6.481-6.543-9.36c-3.791-2.877,2.219-0.822,2.219-0.822l5.109,9.874
					L82.802,71.373z"/>
			</g>
		</g>
		<g>
			<g>
				<polygon class="st4" points="102.71,103.482 103.364,105.499 104.149,104.139 105.333,104.64 105.323,103.391 106.603,103.049 
					104.142,101.783 				"/>
			</g>
		</g>
		<g>
			<g>
				<path class="st69" d="M88.575,59.872c-3.102,1.976-5.342,5.166-6.574,8.919c-3.85-0.428-7.607,0.264-10.654,2.202
					c-8.162,5.19-11.469,18.306-0.389,28.551c9.967,9.221,19.414,13.438,27.572,8.247c2.27-1.443,4.865-3.724,5.359-4.922
					c1.5,0.008,4.297-1.379,6.498-2.779c8.158-5.191,8.342-15.537,4.213-28.471C110.015,57.242,96.737,54.682,88.575,59.872z"/>
			</g>
		</g>
		<g>
			<g>
				<path class="st138" d="M92.259,67.031c0,0,7.045-1.477,12.396,2.977C104.655,70.008,100.853,58.484,92.259,67.031z"/>
			</g>
		</g>
	</g>
	<g>
		<g>
			<g>
				<g>
					<path class="st139" d="M88.173,32.687c-3.766-1.099-7.896-0.647-11.768,0.999c-2.365-3.383-5.559-5.912-9.256-6.987
						c-9.891-2.887-22.727,3.678-23.146,19.759c-0.383,14.469,2.879,24.999,12.775,27.887c2.75,0.805,6.404,1.279,7.709,0.832
						c1.051,1.209,4.125,2.477,6.795,3.254c9.896,2.89,18.311-4.231,25.775-16.637C105.354,48.014,98.065,35.574,88.173,32.687z"/>
				</g>
			</g>
			<g>
				<g>
					<path class="st4" d="M74.616,37.319c0,0,3.029-6.287,2.697-10.994c-0.332-4.71,2.066,1.114,2.066,1.114l-4.021,10.268
						L74.616,37.319z"/>
				</g>
			</g>
			<g>
				<g>
					<polygon class="st4" points="63.704,73.156 62.626,74.965 64.155,74.658 64.556,75.871 65.481,75.044 66.571,75.771 
						65.909,73.111 					"/>
				</g>
			</g>
			<g>
				<g>
					<defs>
						<path id="SVGID_15_" d="M86.964,34.104c-3.5-1.02-7.344-0.604-10.947,0.932c-2.199-3.148-5.17-5.498-8.607-6.498
							c-9.207-2.689-21.145,3.418-21.537,18.379c-0.352,13.462,2.682,23.255,11.887,25.941c2.559,0.749,5.957,1.191,7.17,0.775
							c0.98,1.127,3.84,2.303,6.324,3.027c9.203,2.688,17.035-3.937,23.98-15.475C102.948,48.363,96.171,36.791,86.964,34.104z"/>
					</defs>
					<clipPath id="SVGID_2_">
						<use xlink:href="#SVGID_15_"  style="overflow:visible;"/>
					</clipPath>
					<g class="st111">
						<rect x="45.521" y="25.848" class="st27" width="57.428" height="53.5"/>
					</g>
					<g class="st111">
						<path class="st27" d="M70.903,47.153c-1.623,14.769-14.912,25.425-29.68,23.802h3.297V24.848h12.758v-4.127
							c3.051,1.704,5.717,3.979,7.869,6.664C69.456,32.756,71.714,39.77,70.903,47.153z"/>
					</g>
					<g class="st111">
						<path class="st27" d="M57.532,45.684c-0.811,7.385-7.455,12.713-14.84,11.901h1.828V31.324h-4.209
							c1.674-0.501,3.475-0.682,5.32-0.479C53.017,31.656,58.345,38.301,57.532,45.684z"/>
					</g>
				</g>
			</g>
			<g>
				<g>
					<path class="st138" d="M86.147,40.963c0,0,4.965,3.729,5.123,9.734C91.271,50.697,96.583,41.674,86.147,40.963z"/>
				</g>
			</g>
		</g>
		<g>
			<g>
				<path class="st52" d="M68.858,23.467c-0.188,1.446,1.949,3.804,4.916,4.183c2.959,0.377,5.514-0.489,5.695-1.938
					C79.917,22.221,68.858,23.467,68.858,23.467z"/>
			</g>
		</g>
	</g>
	<g>
		<g>
			<g>
				<path class="st4" d="M57.421,70.474c0,0,6.26-3.958,8.604-8.38c2.344-4.424,1.232,2.162,1.232,2.162l-9.387,6.979L57.421,70.474
					z"/>
			</g>
		</g>
		<g>
			<g>
				<polygon class="st4" points="27.47,96.576 25.485,97.6 27.032,98.184 26.71,99.497 28.007,99.274 28.577,100.545 29.478,97.777 
									"/>
			</g>
		</g>
		<g>
			<g>
				<path class="st154" d="M70.335,74.515c-2.574-2.888-6.27-4.67-10.371-5.313c-0.213-4.067-1.564-7.851-4.094-10.685
					c-6.77-7.59-20.941-8.802-29.699,4.437c-7.879,11.911-10.654,22.427-3.881,30.017c1.881,2.109,4.689,4.416,6.016,4.725
					c0.248,1.562,2.158,4.231,3.986,6.277c6.771,7.591,17.537,6.025,30.266-0.453C76.704,96.32,77.104,82.102,70.335,74.515z"/>
			</g>
		</g>
		<g>
			<g>
				<path class="st138" d="M64.161,78.583c0,0,2.537,7.818-2.334,15.351C61.827,93.934,75.499,86.195,64.161,78.583z"/>
			</g>
		</g>
	</g>
</g>
</svg>
