<?xml version="1.0" encoding="utf-8"?>
<!-- Generator: Adobe Illustrator 16.0.0, SVG Export Plug-In . SVG Version: 6.00 Build 0)  -->
<!DOCTYPE svg PUBLIC "-//W3C//DTD SVG 1.1//EN" "http://www.w3.org/Graphics/SVG/1.1/DTD/svg11.dtd">
<svg version="1.1" id="Layer_1" xmlns="http://www.w3.org/2000/svg" xmlns:xlink="http://www.w3.org/1999/xlink" x="0px" y="0px"
	 width="136.833px" height="136.833px" viewBox="0 0 136.833 136.833" style="enable-background:new 0 0 136.833 136.833;"
	 xml:space="preserve">
<style type="text/css">
<![CDATA[
	.st0{fill:#7A430B;}
	.st1{fill:#AA9A83;}
	.st2{fill:#AC4736;}
	.st3{fill:#499544;}
	.st4{fill:#7D3719;}
	.st5{fill:#AD842D;}
	.st6{fill:#AE8032;}
	.st7{fill:#AF5E27;}
	.st8{fill:#E0A925;}
	.st9{fill:#E0E0E0;}
	.st10{fill:#E1544A;}
	.st11{fill:#E1B623;}
	.st12{fill:#E37926;}
	.st13{fill:#E3DFC6;}
	.st14{fill:#E3E4E5;}
	.st15{fill:#E48225;}
	.st16{fill:#E4C88F;}
	.st17{fill:#E54526;}
	.st18{fill:#E55126;}
	.st19{fill:#4ABC96;}
	.st20{fill:#E5DBCF;}
	.st21{fill:#184166;}
	.st22{fill:#196935;}
	.st23{fill:#4D8741;}
	.st24{fill:#E89C23;}
	.st25{fill:#E8DADD;}
	.st26{fill:#E8EAEB;}
	.st27{fill:#E92C25;}
	.st28{fill:#E9683B;}
	.st29{fill:#E98F23;}
	.st30{fill:#E99323;}
	.st31{fill:#E9B14D;}
	.st32{fill:#E9D8CB;}
	.st33{fill:#E9EEEE;}
	.st34{fill:#B1C635;}
	.st35{fill:#B21F24;}
	.st36{opacity:0.25;}
	.st37{fill:#83B041;}
	.st38{fill:#846A35;}
	.st39{fill:#B3BB35;}
	.st40{fill:#85983A;}
	.st41{fill:#864F4F;}
	.st42{fill:#EA9F3C;}
	.st43{fill:#EAAE7A;}
	.st44{fill:#EAD760;}
	.st45{fill:#B73535;}
	.st46{fill:#B7567D;}
	.st47{fill:#B79051;}
	.st48{fill:#EB7623;}
	.st49{fill:#EB8123;}
	.st50{fill:#EB9682;}
	.st51{fill:#EB9C22;}
	.st52{fill:#1D9E49;}
	.st53{fill:#B88B3B;}
	.st54{fill:#B88C33;}
	.st55{fill:#EC1C24;}
	.st56{fill:#EC2224;}
	.st57{fill:#ECDE7A;}
	.st58{fill:#EDC92C;}
	.st59{fill:#EDEDED;}
	.st60{fill:#EEB760;}
	.st61{fill:#EEE26F;}
	.st62{fill:#EFCF8A;}
	.st63{fill:#EFCFA7;}
	.st64{fill:#EFEFEF;}
	.st65{fill:#EFF2F1;}
	.st66{fill:#543D18;}
	.st67{fill:#568D4D;}
	.st68{fill:#8B5122;}
	.st69{fill:#8BC53F;}
	.st70{fill:#BB6828;}
	.st71{fill:#BB9E70;}
	.st72{fill:#BDDA83;}
	.st73{fill:#BE6328;}
	.st74{fill:#8F8547;}
	.st75{fill:#F0A91E;}
	.st76{fill:#F0B234;}
	.st77{fill:#F1CE6A;}
	.st78{fill:#F1CF13;}
	.st79{fill:#F1E2A3;}
	.st80{fill:#F2BA2C;}
	.st81{fill:#F2CF3B;}
	.st82{fill:#F2E78A;}
	.st83{fill:#F2ECC6;}
	.st84{fill:#F37C2A;}
	.st85{fill:#F3B022;}
	.st86{fill:#F3C121;}
	.st87{fill:#F3C480;}
	.st88{fill:#F3E4CE;}
	.st89{fill:#F4BD1C;}
	.st90{fill:#F4CE9D;}
	.st91{fill:#264E6E;}
	.st92{fill:#F58721;}
	.st93{fill:#F5D1AF;}
	.st94{fill:#F5E11C;}
	.st95{fill:#F69220;}
	.st96{fill:#F6E6E8;}
	.st97{fill:#5C2A2A;}
	.st98{fill:#F7991F;}
	.st99{fill:#F7CC55;}
	.st100{fill:#F7E8DD;}
	.st101{fill:#F8DA02;}
	.st102{fill:#F8E37F;}
	.st103{fill:#F8F0E9;}
	.st104{fill:#F9A65C;}
	.st105{fill:#F9C74F;}
	.st106{fill:#F9C900;}
	.st107{fill:#F9CE82;}
	.st108{fill:#F9ECE0;}
	.st109{fill:#F9ECE4;}
	.st110{fill:#F9EDE4;}
	.st111{clip-path:url(#SVGID_2_);}
	.st112{clip-path:url(#SVGID_4_);}
	.st113{clip-path:url(#SVGID_6_);}
	.st114{clip-path:url(#SVGID_8_);}
	.st115{fill:#C13B3B;}
	.st116{fill:#C16028;}
	.st117{fill:#925A25;}
	.st118{fill:#C35328;}
	.st119{fill:#C42126;}
	.st120{fill:#952E25;}
	.st121{fill:#C4BEBA;}
	.st122{fill:#95C83D;}
	.st123{fill:#C6C3C2;}
	.st124{fill:#2CAEA1;}
	.st125{fill:#989897;}
	.st126{fill:#99B93C;}
	.st127{fill:#C9C9C9;}
	.st128{fill:#FDD300;}
	.st129{fill:#FDD600;}
	.st130{fill:#FDD842;}
	.st131{fill:#FDE500;}
	.st132{opacity:0.5;}
	.st133{opacity:0.6;}
	.st134{opacity:0.8;}
	.st135{fill:#FFDD4D;}
	.st136{fill:#FFEFAE;}
	.st137{fill:#FFFBF8;}
	.st138{fill:#FFFFFF;}
	.st139{fill:#CA2027;}
	.st140{fill:#CB7129;}
	.st141{fill:#CC3828;}
	.st142{fill:#9E4F23;}
	.st143{fill:#CECFD0;}
	.st144{fill:#CF4827;}
	.st145{fill:#39617D;}
	.st146{fill:#D1BAC0;}
	.st147{fill:#034F6D;}
	.st148{fill:#D2AE73;}
	.st149{fill:#D2B676;}
	.st150{fill:#D62127;}
	.st151{fill:#D62427;}
	.st152{fill:#D6AC60;}
	.st153{fill:#D6D0CC;}
	.st154{fill:#D7C527;}
	.st155{fill:#D7D7D7;}
	.st156{fill:#702313;}
	.st157{clip-path:url(#SVGID_10_);}
	.st158{clip-path:url(#SVGID_12_);}
	.st159{clip-path:url(#SVGID_14_);}
	.st160{clip-path:url(#SVGID_16_);}
	.st161{fill:#A31E22;}
	.st162{fill:#A46A28;}
	.st163{fill:#76692A;}
	.st164{fill:#DA1F26;}
	.st165{fill:#DB2F2C;}
	.st166{fill:#DBD0A1;}
	.st167{fill:#DBDDDC;}
	.st168{fill:#A81E22;}
	.st169{fill:#796027;}
	.st170{fill:#DC965F;}
	.st171{fill:#DD9328;}
	.st172{fill:#DD9454;}
	.st173{fill:#DDC97D;}
	.st174{fill:#DDDFE0;}
	.st175{fill:#DDE077;}
	.st176{fill:#DFE0E1;}
]]>
</style>
<g>
	<g>
		<g>
			<g>
				<g>
					<g>
						<circle class="st106" cx="68.416" cy="68.417" r="63.333"/>
					</g>
				</g>
			</g>
		</g>
	</g>
	<g>
		<g>
			<g>
				<g>
					<path class="st91" d="M85.464,113.856c-0.189,3.309-31.799,2.853-31.873,0L47.96,41.277c0-2.27,2.271-1.713,5.074-1.713h32.986
						c2.803,0,5.076-0.557,5.076,1.713L85.464,113.856z"/>
				</g>
			</g>
		</g>
		<g>
			<g>
				<g>
					<path class="st145" d="M53.591,113.856L47.96,41.277c0-2.27,2.271-1.713,5.074-1.713h32.986c2.803,0,5.076-0.557,5.076,1.713
						C91.097,41.277,53.665,116.708,53.591,113.856z"/>
				</g>
			</g>
		</g>
		<g>
			<g>
				<g>
					<g>
						<ellipse class="st96" cx="69.349" cy="40.655" rx="23.215" ry="2.209"/>
					</g>
				</g>
			</g>
			<g>
				<g>
					<g>
						<path class="st25" d="M92.563,42.132c0,1.219-10.395,2.209-23.217,2.209c-12.82,0-23.213-0.99-23.213-2.209
							c0-0.232,0.178-2.938,0.178-2.938c2.982-0.893,12.67-0.745,23.035-0.745c10.982,0,20.801-0.29,23.217,0.686
							C92.563,39.134,92.563,41.958,92.563,42.132z"/>
					</g>
				</g>
			</g>
			<g>
				<g>
					<g>
						<ellipse class="st96" cx="69.349" cy="39.134" rx="23.215" ry="2.209"/>
					</g>
				</g>
			</g>
			<g>
				<g>
					<g>
						<ellipse class="st146" cx="69.348" cy="39.134" rx="4.419" ry="0.515"/>
					</g>
				</g>
			</g>
			<g>
				<g>
					<g>
						<g>
							<path class="st123" d="M92.515,24.271l-4.627-2.064L74.915,16.51l-0.975-0.419c-0.107-0.036-0.211-0.075-0.318-0.106
								c-0.596-0.171-1.23-0.263-1.887-0.263c-3.537,0-6.404,2.661-6.404,5.942c0,0.588,0.094,1.152,0.264,1.686l2.426,16.254
								c0,0,0.848,0.063,1.605,0.059c0.758-0.005,1.545-0.049,1.545-0.049l-1.805-12.433l-0.588-3.823
								c-0.641-4.348,3.633-4.235,5.777-3.576l3.566,1.533l8.484,3.767l0.014-0.027l4.625,2.064c0.701,0.312,1.551-0.073,1.9-0.859
								C93.497,25.473,93.214,24.582,92.515,24.271z"/>
						</g>
					</g>
				</g>
			</g>
			<g>
				<g>
					<g>
						<g>
							<path class="st125" d="M73.257,19.426c-0.068,0-0.135-0.027-0.186-0.081c-0.094-0.103-0.088-0.262,0.014-0.355
								c1.029-0.955,0.373-2.419,0.346-2.481c-0.059-0.126-0.004-0.276,0.123-0.334c0.125-0.061,0.275-0.004,0.334,0.123
								c0.035,0.074,0.84,1.857-0.461,3.062C73.38,19.404,73.317,19.426,73.257,19.426z"/>
						</g>
					</g>
				</g>
				<g>
					<g>
						<g>
							<path class="st125" d="M72.384,19.274c-0.055,0-0.111-0.018-0.156-0.055c-0.109-0.088-0.127-0.246-0.039-0.355
								c0.883-1.099-0.014-2.488-0.023-2.503c-0.076-0.116-0.043-0.271,0.072-0.35c0.115-0.075,0.271-0.044,0.35,0.073
								c0.045,0.069,1.104,1.714-0.006,3.096C72.53,19.243,72.458,19.274,72.384,19.274z"/>
						</g>
					</g>
				</g>
				<g>
					<g>
						<g>
							<path class="st125" d="M71.376,19.296c-0.041,0-0.084-0.012-0.125-0.035c-0.121-0.069-0.162-0.224-0.092-0.344
								c0.703-1.221-0.395-2.459-0.406-2.472c-0.092-0.104-0.086-0.263,0.02-0.355c0.102-0.092,0.262-0.086,0.355,0.019
								c0.055,0.062,1.354,1.524,0.467,3.061C71.548,19.25,71.464,19.296,71.376,19.296z"/>
						</g>
					</g>
				</g>
				<g>
					<g>
						<g>
							<path class="st125" d="M70.255,19.527c-0.025,0-0.053-0.004-0.08-0.013c-0.131-0.045-0.203-0.188-0.158-0.318
								c0.445-1.337-0.877-2.331-0.891-2.341c-0.111-0.083-0.137-0.241-0.053-0.353c0.082-0.111,0.238-0.136,0.352-0.053
								c0.066,0.049,1.631,1.224,1.07,2.905C70.46,19.459,70.36,19.527,70.255,19.527z"/>
						</g>
					</g>
				</g>
				<g>
					<g>
						<g>
							<path class="st125" d="M69.325,20.156c-0.139,0-0.252-0.112-0.252-0.252c-0.006-1.339-1.213-2.258-1.225-2.267
								c-0.111-0.083-0.135-0.24-0.051-0.353c0.082-0.11,0.24-0.134,0.352-0.051c0.059,0.042,1.42,1.072,1.428,2.669
								c0,0.14-0.111,0.253-0.25,0.253C69.325,20.156,69.325,20.156,69.325,20.156z"/>
						</g>
					</g>
				</g>
				<g>
					<g>
						<g>
							<path class="st125" d="M68.733,20.916c-0.107,0-0.205-0.068-0.24-0.175c-0.42-1.3-1.813-1.816-1.826-1.821
								c-0.131-0.049-0.197-0.191-0.15-0.322c0.049-0.132,0.191-0.199,0.322-0.152c0.066,0.024,1.639,0.61,2.133,2.141
								c0.043,0.133-0.029,0.274-0.162,0.317C68.784,20.912,68.759,20.916,68.733,20.916z"/>
						</g>
					</g>
				</g>
				<g>
					<g>
						<g>
							<path class="st125" d="M68.356,21.759c-0.082,0-0.16-0.04-0.209-0.112c-0.756-1.133-2.148-1.525-2.162-1.53
								c-0.133-0.037-0.213-0.176-0.176-0.311c0.037-0.134,0.174-0.21,0.309-0.176c0.066,0.019,1.588,0.449,2.449,1.736
								c0.076,0.116,0.045,0.272-0.07,0.351C68.454,21.746,68.405,21.759,68.356,21.759z"/>
						</g>
					</g>
				</g>
				<g>
					<g>
						<g>
							<path class="st125" d="M68.339,22.628c-0.059,0-0.119-0.021-0.168-0.065c-0.977-0.879-2.43-0.921-2.445-0.922
								c-0.139-0.002-0.248-0.117-0.246-0.257c0.004-0.137,0.115-0.247,0.252-0.247c0.002,0,0.004,0,0.006,0
								c0.066,0.002,1.65,0.045,2.771,1.053c0.104,0.093,0.111,0.252,0.018,0.355C68.478,22.6,68.409,22.628,68.339,22.628z"/>
						</g>
					</g>
				</g>
			</g>
		</g>
		<g>
			<g>
				<g>
					<circle class="st138" cx="70.555" cy="73.458" r="11.298"/>
				</g>
			</g>
		</g>
		<g>
			<g>
				<g>
					<circle class="st21" cx="71.353" cy="74.256" r="7.703"/>
				</g>
			</g>
		</g>
		<g>
			<g>
				<g>
					<circle class="st55" cx="70.391" cy="73.487" r="5.007"/>
				</g>
			</g>
		</g>
	</g>
</g>
</svg>
