<?xml version="1.0" encoding="utf-8"?>
<!-- Generator: Adobe Illustrator 16.0.0, SVG Export Plug-In . SVG Version: 6.00 Build 0)  -->
<!DOCTYPE svg PUBLIC "-//W3C//DTD SVG 1.1//EN" "http://www.w3.org/Graphics/SVG/1.1/DTD/svg11.dtd">
<svg version="1.1" id="Layer_1" xmlns="http://www.w3.org/2000/svg" xmlns:xlink="http://www.w3.org/1999/xlink" x="0px" y="0px"
	 width="136.833px" height="136.834px" viewBox="0 0 136.833 136.834" style="enable-background:new 0 0 136.833 136.834;"
	 xml:space="preserve">
<style type="text/css">
<![CDATA[
	.st0{fill:#7A430B;}
	.st1{fill:#AA9A83;}
	.st2{fill:#AC4736;}
	.st3{fill:#499544;}
	.st4{fill:#7D3719;}
	.st5{fill:#AD842D;}
	.st6{fill:#AE8032;}
	.st7{fill:#AF5E27;}
	.st8{fill:#E0A925;}
	.st9{fill:#E0E0E0;}
	.st10{fill:#E1544A;}
	.st11{fill:#E1B623;}
	.st12{fill:#E37926;}
	.st13{fill:#E3DFC6;}
	.st14{fill:#E3E4E5;}
	.st15{fill:#E48225;}
	.st16{fill:#E4C88F;}
	.st17{fill:#E54526;}
	.st18{fill:#E55126;}
	.st19{fill:#4ABC96;}
	.st20{fill:#E5DBCF;}
	.st21{fill:#184166;}
	.st22{fill:#196935;}
	.st23{fill:#4D8741;}
	.st24{fill:#E89C23;}
	.st25{fill:#E8DADD;}
	.st26{fill:#E8EAEB;}
	.st27{fill:#E92C25;}
	.st28{fill:#E9683B;}
	.st29{fill:#E98F23;}
	.st30{fill:#E99323;}
	.st31{fill:#E9B14D;}
	.st32{fill:#E9D8CB;}
	.st33{fill:#E9EEEE;}
	.st34{fill:#B1C635;}
	.st35{fill:#B21F24;}
	.st36{opacity:0.25;}
	.st37{fill:#83B041;}
	.st38{fill:#846A35;}
	.st39{fill:#B3BB35;}
	.st40{fill:#85983A;}
	.st41{fill:#864F4F;}
	.st42{fill:#EA9F3C;}
	.st43{fill:#EAAE7A;}
	.st44{fill:#EAD760;}
	.st45{fill:#B73535;}
	.st46{fill:#B7567D;}
	.st47{fill:#B79051;}
	.st48{fill:#EB7623;}
	.st49{fill:#EB8123;}
	.st50{fill:#EB9682;}
	.st51{fill:#EB9C22;}
	.st52{fill:#1D9E49;}
	.st53{fill:#B88B3B;}
	.st54{fill:#B88C33;}
	.st55{fill:#EC1C24;}
	.st56{fill:#EC2224;}
	.st57{fill:#ECDE7A;}
	.st58{fill:#EDC92C;}
	.st59{fill:#EDEDED;}
	.st60{fill:#EEB760;}
	.st61{fill:#EEE26F;}
	.st62{fill:#EFCF8A;}
	.st63{fill:#EFCFA7;}
	.st64{fill:#EFEFEF;}
	.st65{fill:#EFF2F1;}
	.st66{fill:#543D18;}
	.st67{fill:#568D4D;}
	.st68{fill:#8B5122;}
	.st69{fill:#8BC53F;}
	.st70{fill:#BB6828;}
	.st71{fill:#BB9E70;}
	.st72{fill:#BDDA83;}
	.st73{fill:#BE6328;}
	.st74{fill:#8F8547;}
	.st75{fill:#F0A91E;}
	.st76{fill:#F0B234;}
	.st77{fill:#F1CE6A;}
	.st78{fill:#F1CF13;}
	.st79{fill:#F1E2A3;}
	.st80{fill:#F2BA2C;}
	.st81{fill:#F2CF3B;}
	.st82{fill:#F2E78A;}
	.st83{fill:#F2ECC6;}
	.st84{fill:#F37C2A;}
	.st85{fill:#F3B022;}
	.st86{fill:#F3C121;}
	.st87{fill:#F3C480;}
	.st88{fill:#F3E4CE;}
	.st89{fill:#F4BD1C;}
	.st90{fill:#F4CE9D;}
	.st91{fill:#264E6E;}
	.st92{fill:#F58721;}
	.st93{fill:#F5D1AF;}
	.st94{fill:#F5E11C;}
	.st95{fill:#F69220;}
	.st96{fill:#F6E6E8;}
	.st97{fill:#5C2A2A;}
	.st98{fill:#F7991F;}
	.st99{fill:#F7CC55;}
	.st100{fill:#F7E8DD;}
	.st101{fill:#F8DA02;}
	.st102{fill:#F8E37F;}
	.st103{fill:#F8F0E9;}
	.st104{fill:#F9A65C;}
	.st105{fill:#F9C74F;}
	.st106{fill:#F9C900;}
	.st107{fill:#F9CE82;}
	.st108{fill:#F9ECE0;}
	.st109{fill:#F9ECE4;}
	.st110{fill:#F9EDE4;}
	.st111{clip-path:url(#SVGID_2_);}
	.st112{clip-path:url(#SVGID_4_);}
	.st113{clip-path:url(#SVGID_6_);}
	.st114{clip-path:url(#SVGID_8_);}
	.st115{fill:#C13B3B;}
	.st116{fill:#C16028;}
	.st117{fill:#925A25;}
	.st118{fill:#C35328;}
	.st119{fill:#C42126;}
	.st120{fill:#952E25;}
	.st121{fill:#C4BEBA;}
	.st122{fill:#95C83D;}
	.st123{fill:#C6C3C2;}
	.st124{fill:#2CAEA1;}
	.st125{fill:#989897;}
	.st126{fill:#99B93C;}
	.st127{fill:#C9C9C9;}
	.st128{fill:#FDD300;}
	.st129{fill:#FDD600;}
	.st130{fill:#FDD842;}
	.st131{fill:#FDE500;}
	.st132{opacity:0.5;}
	.st133{opacity:0.6;}
	.st134{opacity:0.8;}
	.st135{fill:#FFDD4D;}
	.st136{fill:#FFEFAE;}
	.st137{fill:#FFFBF8;}
	.st138{fill:#FFFFFF;}
	.st139{fill:#CA2027;}
	.st140{fill:#CB7129;}
	.st141{fill:#CC3828;}
	.st142{fill:#9E4F23;}
	.st143{fill:#CECFD0;}
	.st144{fill:#CF4827;}
	.st145{fill:#39617D;}
	.st146{fill:#D1BAC0;}
	.st147{fill:#034F6D;}
	.st148{fill:#D2AE73;}
	.st149{fill:#D2B676;}
	.st150{fill:#D62127;}
	.st151{fill:#D62427;}
	.st152{fill:#D6AC60;}
	.st153{fill:#D6D0CC;}
	.st154{fill:#D7C527;}
	.st155{fill:#D7D7D7;}
	.st156{fill:#702313;}
	.st157{clip-path:url(#SVGID_10_);}
	.st158{clip-path:url(#SVGID_12_);}
	.st159{clip-path:url(#SVGID_14_);}
	.st160{clip-path:url(#SVGID_16_);}
	.st161{fill:#A31E22;}
	.st162{fill:#A46A28;}
	.st163{fill:#76692A;}
	.st164{fill:#DA1F26;}
	.st165{fill:#DB2F2C;}
	.st166{fill:#DBD0A1;}
	.st167{fill:#DBDDDC;}
	.st168{fill:#A81E22;}
	.st169{fill:#796027;}
	.st170{fill:#DC965F;}
	.st171{fill:#DD9328;}
	.st172{fill:#DD9454;}
	.st173{fill:#DDC97D;}
	.st174{fill:#DDDFE0;}
	.st175{fill:#DDE077;}
	.st176{fill:#DFE0E1;}
]]>
</style>
<g>
	<g>
		<g>
			<g>
				<g>
					<g>
						<circle class="st54" cx="68.417" cy="68.417" r="63.333"/>
					</g>
				</g>
			</g>
		</g>
	</g>
	<g>
		<g>
			<g>
				<path class="st14" d="M95.864,102.748c0.031-0.192,0.051-0.388,0.051-0.588l-1.476-4.883l-3.832-56.066
					c0-2.066-1.43-3.743-3.195-3.743H45.883c-1.764,0-3.194,1.677-3.194,3.743l-3.806,55.667l-1.502,5.282
					c0,0.202,0.021,0.398,0.052,0.593c-0.141,0.333-0.214,0.671-0.214,1.015c0,4.633,13.837,7.817,29.43,7.817
					c15.594,0,29.432-3.185,29.432-7.817C96.081,103.423,96.005,103.082,95.864,102.748z"/>
			</g>
		</g>
		<g>
			<g>
				<path class="st81" d="M91.193,96.792c0.026-0.168,0.043-0.338,0.043-0.512l-2.941-57.23c0-1.827-43.708-1.827-43.708,0
					l-2.942,57.23c0,0.176,0.02,0.348,0.045,0.517c-0.119,0.288-0.182,0.583-0.182,0.882c0,4.032,11.162,7.302,24.935,7.302
					c13.771,0,24.936-3.27,24.936-7.302C91.377,97.38,91.313,97.083,91.193,96.792z"/>
			</g>
		</g>
		<g>
			<g>
				<path class="st135" d="M88.412,39.05c0-1.827-43.983-1.827-43.983,0l-2.784,57.23c0,0.176,0.02,0.348,0.045,0.517
					c-0.119,0.288-0.182,0.583-0.182,0.882C41.507,101.711,88.412,39.05,88.412,39.05z"/>
			</g>
		</g>
		<g>
			<g>
				<g>
					<path class="st14" d="M107.788,75.759c0-12.654-7.075-22.808-17.829-25.584l0.28,4.463
						c7.771,3.443,12.327,11.355,12.327,21.121c0,3.91-4.375,11.683-9.923,17.07l0.342,5.435
						C100.369,92.109,107.788,81.022,107.788,75.759z"/>
				</g>
			</g>
		</g>
		<g>
			<g>
				<path class="st167" d="M88.801,46.904l-0.448-7.292c0-2.033-43.924-2.033-43.924,0l-0.35,7.304c0,0,11.889-2.093,22.582-2.093
					C77.357,44.823,88.801,46.904,88.801,46.904z"/>
			</g>
		</g>
		<g>
			<g>
				<path class="st65" d="M88.646,45.813l-0.27-6.907c0-4.538-43.869-4.538-43.869,0l-0.35,6.917c0,0,11.811-1.98,22.504-1.98
					C77.357,43.843,88.646,45.813,88.646,45.813z"/>
			</g>
		</g>
		<g>
			<g>
				<path class="st167" d="M35.694,36.282c0,0-2.809,6.508,1.553,11.231c4.36,4.722,8.718-1.265,11.339-3.78
					C60.515,32.289,88.8,38.645,88.8,38.645c0.56-5.494-0.675-11.815-10.124-13.625c-8.066-1.547-13.236,1.452-16.041,1.09
					c-2.803-0.364-10.291-2.907-14.794-1.454C40.522,27.018,36.938,33.377,35.694,36.282z"/>
			</g>
		</g>
		<g>
			<g>
				<path class="st33" d="M35.694,35.659c0,0-2.809,6.506,1.553,11.229c4.36,4.725,8.821-1.16,11.339-3.78
					C59.788,31.458,88.8,38.021,88.8,38.021c0.56-5.497-0.675-11.815-10.124-13.627c-8.066-1.545-13.236,1.454-16.041,1.091
					c-2.803-0.365-10.291-2.906-14.794-1.453C40.522,26.393,36.938,32.752,35.694,35.659z"/>
			</g>
		</g>
		<g>
			<path class="st136" d="M61.081,74.901c-1.46,0-2.648-1.188-2.648-2.648s1.188-2.647,2.648-2.647s2.648,1.188,2.648,2.647
				S62.541,74.901,61.081,74.901z M61.081,70.355c-1.046,0-1.898,0.852-1.898,1.897c0,1.047,0.852,1.898,1.898,1.898
				s1.898-0.852,1.898-1.898C62.979,71.207,62.127,70.355,61.081,70.355z"/>
		</g>
		<g>
			<path class="st136" d="M65.945,81.436c-0.75,0-1.36-0.61-1.36-1.36s0.61-1.36,1.36-1.36s1.36,0.61,1.36,1.36
				S66.695,81.436,65.945,81.436z M65.945,79.465c-0.336,0-0.61,0.273-0.61,0.61s0.274,0.61,0.61,0.61s0.61-0.273,0.61-0.61
				S66.281,79.465,65.945,79.465z"/>
		</g>
		<g>
			<path class="st136" d="M68.834,73.301c-1.238,0-2.246-1.008-2.246-2.247c0-1.238,1.008-2.246,2.246-2.246
				s2.246,1.008,2.246,2.246C71.08,72.293,70.072,73.301,68.834,73.301z M68.834,69.558c-0.825,0-1.496,0.671-1.496,1.496
				s0.671,1.497,1.496,1.497s1.496-0.672,1.496-1.497S69.659,69.558,68.834,69.558z"/>
		</g>
		<g>
			<path class="st136" d="M70.026,63.805c-1.896,0-3.438-1.543-3.438-3.44c0-1.896,1.542-3.438,3.438-3.438s3.438,1.542,3.438,3.438
				C73.464,62.262,71.921,63.805,70.026,63.805z M70.026,57.677c-1.482,0-2.688,1.206-2.688,2.688c0,1.483,1.206,2.69,2.688,2.69
				s2.688-1.207,2.688-2.69C72.714,58.883,71.508,57.677,70.026,57.677z"/>
		</g>
		<g>
			<path class="st136" d="M69.071,92.489c-0.995,0-1.804-0.81-1.804-1.805c0-0.994,0.809-1.803,1.804-1.803
				c0.994,0,1.803,0.809,1.803,1.803C70.874,91.68,70.065,92.489,69.071,92.489z M69.071,89.632c-0.581,0-1.054,0.473-1.054,1.053
				c0,0.582,0.473,1.055,1.054,1.055c0.581,0,1.053-0.473,1.053-1.055C70.124,90.104,69.651,89.632,69.071,89.632z"/>
		</g>
		<g>
			<path class="st136" d="M65.517,99.669c-0.759,0-1.376-0.618-1.376-1.377c0-0.758,0.617-1.375,1.376-1.375
				s1.376,0.617,1.376,1.375C66.893,99.051,66.276,99.669,65.517,99.669z M65.517,97.667c-0.345,0-0.626,0.28-0.626,0.625
				c0,0.346,0.281,0.627,0.626,0.627s0.626-0.281,0.626-0.627C66.143,97.947,65.862,97.667,65.517,97.667z"/>
		</g>
		<g>
			<path class="st136" d="M70.026,86.451c-0.995,0-1.804-0.81-1.804-1.805c0-0.994,0.809-1.803,1.804-1.803
				c0.994,0,1.803,0.809,1.803,1.803C71.829,85.642,71.02,86.451,70.026,86.451z M70.026,83.594c-0.581,0-1.054,0.473-1.054,1.053
				c0,0.582,0.473,1.055,1.054,1.055c0.581,0,1.053-0.473,1.053-1.055C71.079,84.066,70.606,83.594,70.026,83.594z"/>
		</g>
	</g>
</g>
</svg>
