<?xml version="1.0" encoding="utf-8"?>
<!-- Generator: Adobe Illustrator 16.0.0, SVG Export Plug-In . SVG Version: 6.00 Build 0)  -->
<!DOCTYPE svg PUBLIC "-//W3C//DTD SVG 1.1//EN" "http://www.w3.org/Graphics/SVG/1.1/DTD/svg11.dtd">
<svg version="1.1" id="Layer_1" xmlns="http://www.w3.org/2000/svg" xmlns:xlink="http://www.w3.org/1999/xlink" x="0px" y="0px"
	 width="136.833px" height="136.834px" viewBox="0 0 136.833 136.834" style="enable-background:new 0 0 136.833 136.834;"
	 xml:space="preserve">
<style type="text/css">
<![CDATA[
	.st0{fill:#7A430B;}
	.st1{fill:#AA9A83;}
	.st2{fill:#AC4736;}
	.st3{fill:#499544;}
	.st4{fill:#7D3719;}
	.st5{fill:#AD842D;}
	.st6{fill:#AE8032;}
	.st7{fill:#AF5E27;}
	.st8{fill:#E0A925;}
	.st9{fill:#E0E0E0;}
	.st10{fill:#E1544A;}
	.st11{fill:#E1B623;}
	.st12{fill:#E37926;}
	.st13{fill:#E3DFC6;}
	.st14{fill:#E3E4E5;}
	.st15{fill:#E48225;}
	.st16{fill:#E4C88F;}
	.st17{fill:#E54526;}
	.st18{fill:#E55126;}
	.st19{fill:#4ABC96;}
	.st20{fill:#E5DBCF;}
	.st21{fill:#184166;}
	.st22{fill:#196935;}
	.st23{fill:#4D8741;}
	.st24{fill:#E89C23;}
	.st25{fill:#E8DADD;}
	.st26{fill:#E8EAEB;}
	.st27{fill:#E92C25;}
	.st28{fill:#E9683B;}
	.st29{fill:#E98F23;}
	.st30{fill:#E99323;}
	.st31{fill:#E9B14D;}
	.st32{fill:#E9D8CB;}
	.st33{fill:#E9EEEE;}
	.st34{fill:#B1C635;}
	.st35{fill:#B21F24;}
	.st36{opacity:0.25;}
	.st37{fill:#83B041;}
	.st38{fill:#846A35;}
	.st39{fill:#B3BB35;}
	.st40{fill:#85983A;}
	.st41{fill:#864F4F;}
	.st42{fill:#EA9F3C;}
	.st43{fill:#EAAE7A;}
	.st44{fill:#EAD760;}
	.st45{fill:#B73535;}
	.st46{fill:#B7567D;}
	.st47{fill:#B79051;}
	.st48{fill:#EB7623;}
	.st49{fill:#EB8123;}
	.st50{fill:#EB9682;}
	.st51{fill:#EB9C22;}
	.st52{fill:#1D9E49;}
	.st53{fill:#B88B3B;}
	.st54{fill:#B88C33;}
	.st55{fill:#EC1C24;}
	.st56{fill:#EC2224;}
	.st57{fill:#ECDE7A;}
	.st58{fill:#EDC92C;}
	.st59{fill:#EDEDED;}
	.st60{fill:#EEB760;}
	.st61{fill:#EEE26F;}
	.st62{fill:#EFCF8A;}
	.st63{fill:#EFCFA7;}
	.st64{fill:#EFEFEF;}
	.st65{fill:#EFF2F1;}
	.st66{fill:#543D18;}
	.st67{fill:#568D4D;}
	.st68{fill:#8B5122;}
	.st69{fill:#8BC53F;}
	.st70{fill:#BB6828;}
	.st71{fill:#BB9E70;}
	.st72{fill:#BDDA83;}
	.st73{fill:#BE6328;}
	.st74{fill:#8F8547;}
	.st75{fill:#F0A91E;}
	.st76{fill:#F0B234;}
	.st77{fill:#F1CE6A;}
	.st78{fill:#F1CF13;}
	.st79{fill:#F1E2A3;}
	.st80{fill:#F2BA2C;}
	.st81{fill:#F2CF3B;}
	.st82{fill:#F2E78A;}
	.st83{fill:#F2ECC6;}
	.st84{fill:#F37C2A;}
	.st85{fill:#F3B022;}
	.st86{fill:#F3C121;}
	.st87{fill:#F3C480;}
	.st88{fill:#F3E4CE;}
	.st89{fill:#F4BD1C;}
	.st90{fill:#F4CE9D;}
	.st91{fill:#264E6E;}
	.st92{fill:#F58721;}
	.st93{fill:#F5D1AF;}
	.st94{fill:#F5E11C;}
	.st95{fill:#F69220;}
	.st96{fill:#F6E6E8;}
	.st97{fill:#5C2A2A;}
	.st98{fill:#F7991F;}
	.st99{fill:#F7CC55;}
	.st100{fill:#F7E8DD;}
	.st101{fill:#F8DA02;}
	.st102{fill:#F8E37F;}
	.st103{fill:#F8F0E9;}
	.st104{fill:#F9A65C;}
	.st105{fill:#F9C74F;}
	.st106{fill:#F9C900;}
	.st107{fill:#F9CE82;}
	.st108{fill:#F9ECE0;}
	.st109{fill:#F9ECE4;}
	.st110{fill:#F9EDE4;}
	.st111{clip-path:url(#SVGID_2_);}
	.st112{clip-path:url(#SVGID_4_);}
	.st113{clip-path:url(#SVGID_6_);}
	.st114{clip-path:url(#SVGID_8_);}
	.st115{fill:#C13B3B;}
	.st116{fill:#C16028;}
	.st117{fill:#925A25;}
	.st118{fill:#C35328;}
	.st119{fill:#C42126;}
	.st120{fill:#952E25;}
	.st121{fill:#C4BEBA;}
	.st122{fill:#95C83D;}
	.st123{fill:#C6C3C2;}
	.st124{fill:#2CAEA1;}
	.st125{fill:#989897;}
	.st126{fill:#99B93C;}
	.st127{fill:#C9C9C9;}
	.st128{fill:#FDD300;}
	.st129{fill:#FDD600;}
	.st130{fill:#FDD842;}
	.st131{fill:#FDE500;}
	.st132{opacity:0.5;}
	.st133{opacity:0.6;}
	.st134{opacity:0.8;}
	.st135{fill:#FFDD4D;}
	.st136{fill:#FFEFAE;}
	.st137{fill:#FFFBF8;}
	.st138{fill:#FFFFFF;}
	.st139{fill:#CA2027;}
	.st140{fill:#CB7129;}
	.st141{fill:#CC3828;}
	.st142{fill:#9E4F23;}
	.st143{fill:#CECFD0;}
	.st144{fill:#CF4827;}
	.st145{fill:#39617D;}
	.st146{fill:#D1BAC0;}
	.st147{fill:#034F6D;}
	.st148{fill:#D2AE73;}
	.st149{fill:#D2B676;}
	.st150{fill:#D62127;}
	.st151{fill:#D62427;}
	.st152{fill:#D6AC60;}
	.st153{fill:#D6D0CC;}
	.st154{fill:#D7C527;}
	.st155{fill:#D7D7D7;}
	.st156{fill:#702313;}
	.st157{clip-path:url(#SVGID_10_);}
	.st158{clip-path:url(#SVGID_12_);}
	.st159{clip-path:url(#SVGID_14_);}
	.st160{clip-path:url(#SVGID_16_);}
	.st161{fill:#A31E22;}
	.st162{fill:#A46A28;}
	.st163{fill:#76692A;}
	.st164{fill:#DA1F26;}
	.st165{fill:#DB2F2C;}
	.st166{fill:#DBD0A1;}
	.st167{fill:#DBDDDC;}
	.st168{fill:#A81E22;}
	.st169{fill:#796027;}
	.st170{fill:#DC965F;}
	.st171{fill:#DD9328;}
	.st172{fill:#DD9454;}
	.st173{fill:#DDC97D;}
	.st174{fill:#DDDFE0;}
	.st175{fill:#DDE077;}
	.st176{fill:#DFE0E1;}
]]>
</style>
<g>
	<g>
		<g>
			<g>
				<g>
					<g>
						<circle class="st34" cx="68.416" cy="68.418" r="63.333"/>
					</g>
				</g>
			</g>
		</g>
	</g>
	<g>
		<g>
			<g>
				<path class="st89" d="M104.06,71.982c-0.398,19.723-16.582,32.469-36.215,32.069c-19.629-0.403-35.275-13.798-34.877-33.52
					c0.369-17.823,11.217-32.388,28.266-34.716c1.816-0.25,6.252,0.788,8.141,0.827c1.68,0.034,5.646-0.86,7.26-0.603
					C93.876,38.811,104.429,53.95,104.06,71.982z"/>
			</g>
		</g>
		<g>
			<g>
				<path class="st24" d="M102.677,71.229c-0.387,18.895-15.893,31.114-34.705,30.728C49.159,101.572,34.161,88.74,34.55,69.834
					c0.352-17.08,10.748-31.033,27.088-33.266c1.736-0.234,5.988,0.76,7.797,0.797c1.609,0.032,5.414-0.826,6.955-0.581
					C92.913,39.442,103.028,53.94,102.677,71.229z"/>
			</g>
		</g>
		<g>
			<g>
				<g>
					<path class="st171" d="M78.761,53.04c-0.01,0.646-0.461,1.152-1.004,1.144c-0.539-0.007-0.971-0.539-0.955-1.178
						c0.012-0.646,0.463-1.16,1.004-1.144C78.347,51.868,78.774,52.399,78.761,53.04z"/>
				</g>
			</g>
			<g>
				<g>
					<path class="st171" d="M88.556,64.891c-0.014,0.795-0.578,1.44-1.256,1.424c-0.672-0.014-1.209-0.676-1.191-1.477
						c0.014-0.805,0.578-1.443,1.252-1.432C88.04,63.422,88.571,64.083,88.556,64.891z"/>
				</g>
			</g>
			<g>
				<g>
					<path class="st171" d="M50.515,86.469c-0.016,0.801-0.58,1.438-1.256,1.426c-0.676-0.012-1.209-0.678-1.191-1.476
						c0.016-0.804,0.58-1.444,1.25-1.429C49.995,85.001,50.53,85.666,50.515,86.469z"/>
				</g>
			</g>
			<g>
				<g>
					<path class="st171" d="M57.97,66.594c-0.014,0.801-0.578,1.442-1.254,1.43c-0.676-0.016-1.209-0.677-1.193-1.479
						c0.018-0.806,0.576-1.446,1.252-1.431C57.448,65.129,57.985,65.791,57.97,66.594z"/>
				</g>
			</g>
			<g>
				<g>
					<path class="st171" d="M77.185,84.918c-0.016,0.8-0.578,1.441-1.254,1.428c-0.674-0.016-1.211-0.68-1.191-1.477
						c0.016-0.807,0.574-1.445,1.252-1.433C76.667,83.449,77.202,84.113,77.185,84.918z"/>
				</g>
			</g>
			<g>
				<g>
					<path class="st171" d="M73.405,68.539c-0.016,0.799-0.578,1.439-1.258,1.427c-0.674-0.015-1.209-0.679-1.193-1.476
						c0.02-0.804,0.58-1.448,1.254-1.434C72.888,67.07,73.421,67.734,73.405,68.539z"/>
				</g>
			</g>
			<g>
				<g>
					<path class="st171" d="M55.372,50.004c-0.016,0.805-0.578,1.441-1.252,1.43c-0.676-0.014-1.209-0.678-1.193-1.479
						c0.014-0.804,0.576-1.446,1.248-1.428C54.854,48.538,55.388,49.199,55.372,50.004z"/>
				</g>
			</g>
			<g>
				<g>
					<path class="st171" d="M46.11,71.942c-0.016,0.8-0.578,1.44-1.252,1.425c-0.678-0.014-1.211-0.672-1.195-1.475
						c0.016-0.805,0.578-1.447,1.252-1.435C45.593,70.475,46.128,71.137,46.11,71.942z"/>
				</g>
			</g>
			<g>
				<g>
					<path class="st171" d="M61.622,79.71c-0.014,0.798-0.576,1.438-1.256,1.427c-0.674-0.016-1.209-0.678-1.191-1.479
						c0.016-0.803,0.578-1.445,1.256-1.43C61.106,78.244,61.64,78.904,61.622,79.71z"/>
				</g>
			</g>
			<g>
				<g>
					<path class="st171" d="M63.087,94.18c-0.018,0.799-0.578,1.439-1.252,1.424c-0.678-0.014-1.211-0.678-1.195-1.474
						c0.016-0.808,0.578-1.446,1.254-1.433C62.567,92.711,63.103,93.373,63.087,94.18z"/>
				</g>
			</g>
			<g>
				<g>
					<path class="st171" d="M66.944,56.295c-0.014,0.799-0.578,1.438-1.256,1.425c-0.672-0.014-1.209-0.677-1.191-1.476
						c0.016-0.807,0.58-1.445,1.25-1.432C66.427,54.825,66.962,55.49,66.944,56.295z"/>
				</g>
			</g>
			<g>
				<g>
					<path class="st171" d="M91.032,77.984c-0.016,0.798-0.574,1.439-1.252,1.424c-0.676-0.014-1.211-0.68-1.195-1.477
						c0.02-0.806,0.578-1.446,1.252-1.434C90.515,76.512,91.05,77.179,91.032,77.984z"/>
				</g>
			</g>
			<g>
				<g>
					<path class="st171" d="M84.829,94.156c-0.016,0.799-0.58,1.439-1.256,1.426c-0.674-0.013-1.209-0.679-1.191-1.475
						c0.016-0.805,0.58-1.445,1.252-1.434C84.31,92.686,84.847,93.352,84.829,94.156z"/>
				</g>
			</g>
			<g>
				<g>
					<path class="st171" d="M90.263,48.391c-0.016,0.798-0.578,1.439-1.256,1.425c-0.672-0.014-1.209-0.677-1.191-1.476
						c0.016-0.807,0.578-1.447,1.252-1.43C89.745,46.921,90.278,47.586,90.263,48.391z"/>
				</g>
			</g>
			<g>
				<g>
					<path class="st171" d="M66.058,71.183c-0.014,0.638-0.463,1.15-1.004,1.143c-0.543-0.011-0.969-0.544-0.957-1.184
						c0.014-0.642,0.463-1.156,1.002-1.146C65.64,70.006,66.067,70.537,66.058,71.183z"/>
				</g>
			</g>
			<g>
				<g>
					<path class="st171" d="M46.151,57.967c-0.012,0.639-0.461,1.152-1.002,1.141c-0.541-0.014-0.969-0.543-0.957-1.18
						c0.014-0.646,0.465-1.16,1.004-1.146C45.739,56.791,46.163,57.322,46.151,57.967z"/>
				</g>
			</g>
			<g>
				<g>
					<path class="st171" d="M74.151,96.73c-0.012,0.641-0.459,1.151-1.004,1.142c-0.541-0.011-0.971-0.54-0.957-1.183
						c0.012-0.641,0.463-1.158,1.006-1.145C73.733,95.555,74.163,96.085,74.151,96.73z"/>
				</g>
			</g>
			<g>
				<g>
					<path class="st171" d="M91.39,86.834c-0.014,0.643-0.461,1.154-1,1.141c-0.543-0.012-0.969-0.54-0.957-1.179
						c0.012-0.645,0.459-1.157,1.004-1.149C90.978,85.66,91.405,86.189,91.39,86.834z"/>
				</g>
			</g>
			<g>
				<g>
					<path class="st171" d="M81.88,73.133c-0.012,0.643-0.463,1.152-1.006,1.143c-0.539-0.01-0.967-0.542-0.955-1.18
						c0.016-0.644,0.461-1.158,1.008-1.146C81.466,71.961,81.894,72.49,81.88,73.133z"/>
				</g>
			</g>
			<g>
				<g>
					<path class="st171" d="M100.667,64.199c-0.018,0.646-0.467,1.156-1.006,1.145c-0.539-0.01-0.969-0.539-0.955-1.181
						c0.014-0.646,0.461-1.156,1.006-1.143C100.251,63.026,100.681,63.559,100.667,64.199z"/>
				</g>
			</g>
			<g>
				<g>
					<path class="st171" d="M39.038,80.412c-0.014,0.638-0.465,1.15-1.006,1.141c-0.539-0.009-0.969-0.537-0.957-1.183
						c0.016-0.643,0.463-1.155,1.008-1.146C38.622,79.238,39.05,79.769,39.038,80.412z"/>
				</g>
			</g>
			<g>
				<g>
					<path class="st171" d="M67.825,42.107c-0.012,0.642-0.461,1.153-1.006,1.141c-0.539-0.012-0.967-0.543-0.955-1.18
						c0.012-0.646,0.463-1.158,1.004-1.148C67.407,40.93,67.837,41.463,67.825,42.107z"/>
				</g>
			</g>
		</g>
		<g>
			<g>
				<path class="st5" d="M73.394,37.792c-0.012,0.563-1.029,0.862-1.932,1.19c-0.742,0.264-1.268,0.609-2.32,0.582
					c-0.869-0.014-1.471-0.521-2.137-0.738c-1.111-0.357-2.043-0.563-2.027-1.208c0.008-0.595,0.699-0.804,1.686-1.13
					c0.725-0.234,1.625-0.372,2.604-0.35c0.871,0.016,1.471,0.352,2.143,0.566C72.522,37.059,73.403,37.152,73.394,37.792z"/>
			</g>
		</g>
	</g>
</g>
</svg>
