<?xml version="1.0" encoding="utf-8"?>
<!-- Generator: Adobe Illustrator 16.0.0, SVG Export Plug-In . SVG Version: 6.00 Build 0)  -->
<!DOCTYPE svg PUBLIC "-//W3C//DTD SVG 1.1//EN" "http://www.w3.org/Graphics/SVG/1.1/DTD/svg11.dtd">
<svg version="1.1" id="Layer_1" xmlns="http://www.w3.org/2000/svg" xmlns:xlink="http://www.w3.org/1999/xlink" x="0px" y="0px"
	 width="136.833px" height="136.833px" viewBox="0 0 136.833 136.833" style="enable-background:new 0 0 136.833 136.833;"
	 xml:space="preserve">
<style type="text/css">
<![CDATA[
	.st0{fill:#7A430B;}
	.st1{fill:#AA9A83;}
	.st2{fill:#AC4736;}
	.st3{fill:#499544;}
	.st4{fill:#7D3719;}
	.st5{fill:#AD842D;}
	.st6{fill:#AE8032;}
	.st7{fill:#AF5E27;}
	.st8{fill:#E0A925;}
	.st9{fill:#E0E0E0;}
	.st10{fill:#E1544A;}
	.st11{fill:#E1B623;}
	.st12{fill:#E37926;}
	.st13{fill:#E3DFC6;}
	.st14{fill:#E3E4E5;}
	.st15{fill:#E48225;}
	.st16{fill:#E4C88F;}
	.st17{fill:#E54526;}
	.st18{fill:#E55126;}
	.st19{fill:#4ABC96;}
	.st20{fill:#E5DBCF;}
	.st21{fill:#184166;}
	.st22{fill:#196935;}
	.st23{fill:#4D8741;}
	.st24{fill:#E89C23;}
	.st25{fill:#E8DADD;}
	.st26{fill:#E8EAEB;}
	.st27{fill:#E92C25;}
	.st28{fill:#E9683B;}
	.st29{fill:#E98F23;}
	.st30{fill:#E99323;}
	.st31{fill:#E9B14D;}
	.st32{fill:#E9D8CB;}
	.st33{fill:#E9EEEE;}
	.st34{fill:#B1C635;}
	.st35{fill:#B21F24;}
	.st36{opacity:0.25;}
	.st37{fill:#83B041;}
	.st38{fill:#846A35;}
	.st39{fill:#B3BB35;}
	.st40{fill:#85983A;}
	.st41{fill:#864F4F;}
	.st42{fill:#EA9F3C;}
	.st43{fill:#EAAE7A;}
	.st44{fill:#EAD760;}
	.st45{fill:#B73535;}
	.st46{fill:#B7567D;}
	.st47{fill:#B79051;}
	.st48{fill:#EB7623;}
	.st49{fill:#EB8123;}
	.st50{fill:#EB9682;}
	.st51{fill:#EB9C22;}
	.st52{fill:#1D9E49;}
	.st53{fill:#B88B3B;}
	.st54{fill:#B88C33;}
	.st55{fill:#EC1C24;}
	.st56{fill:#EC2224;}
	.st57{fill:#ECDE7A;}
	.st58{fill:#EDC92C;}
	.st59{fill:#EDEDED;}
	.st60{fill:#EEB760;}
	.st61{fill:#EEE26F;}
	.st62{fill:#EFCF8A;}
	.st63{fill:#EFCFA7;}
	.st64{fill:#EFEFEF;}
	.st65{fill:#EFF2F1;}
	.st66{fill:#543D18;}
	.st67{fill:#568D4D;}
	.st68{fill:#8B5122;}
	.st69{fill:#8BC53F;}
	.st70{fill:#BB6828;}
	.st71{fill:#BB9E70;}
	.st72{fill:#BDDA83;}
	.st73{fill:#BE6328;}
	.st74{fill:#8F8547;}
	.st75{fill:#F0A91E;}
	.st76{fill:#F0B234;}
	.st77{fill:#F1CE6A;}
	.st78{fill:#F1CF13;}
	.st79{fill:#F1E2A3;}
	.st80{fill:#F2BA2C;}
	.st81{fill:#F2CF3B;}
	.st82{fill:#F2E78A;}
	.st83{fill:#F2ECC6;}
	.st84{fill:#F37C2A;}
	.st85{fill:#F3B022;}
	.st86{fill:#F3C121;}
	.st87{fill:#F3C480;}
	.st88{fill:#F3E4CE;}
	.st89{fill:#F4BD1C;}
	.st90{fill:#F4CE9D;}
	.st91{fill:#264E6E;}
	.st92{fill:#F58721;}
	.st93{fill:#F5D1AF;}
	.st94{fill:#F5E11C;}
	.st95{fill:#F69220;}
	.st96{fill:#F6E6E8;}
	.st97{fill:#5C2A2A;}
	.st98{fill:#F7991F;}
	.st99{fill:#F7CC55;}
	.st100{fill:#F7E8DD;}
	.st101{fill:#F8DA02;}
	.st102{fill:#F8E37F;}
	.st103{fill:#F8F0E9;}
	.st104{fill:#F9A65C;}
	.st105{fill:#F9C74F;}
	.st106{fill:#F9C900;}
	.st107{fill:#F9CE82;}
	.st108{fill:#F9ECE0;}
	.st109{fill:#F9ECE4;}
	.st110{fill:#F9EDE4;}
	.st111{clip-path:url(#SVGID_2_);}
	.st112{clip-path:url(#SVGID_4_);}
	.st113{clip-path:url(#SVGID_6_);}
	.st114{clip-path:url(#SVGID_8_);}
	.st115{fill:#C13B3B;}
	.st116{fill:#C16028;}
	.st117{fill:#925A25;}
	.st118{fill:#C35328;}
	.st119{fill:#C42126;}
	.st120{fill:#952E25;}
	.st121{fill:#C4BEBA;}
	.st122{fill:#95C83D;}
	.st123{fill:#C6C3C2;}
	.st124{fill:#2CAEA1;}
	.st125{fill:#989897;}
	.st126{fill:#99B93C;}
	.st127{fill:#C9C9C9;}
	.st128{fill:#FDD300;}
	.st129{fill:#FDD600;}
	.st130{fill:#FDD842;}
	.st131{fill:#FDE500;}
	.st132{opacity:0.5;}
	.st133{opacity:0.6;}
	.st134{opacity:0.8;}
	.st135{fill:#FFDD4D;}
	.st136{fill:#FFEFAE;}
	.st137{fill:#FFFBF8;}
	.st138{fill:#FFFFFF;}
	.st139{fill:#CA2027;}
	.st140{fill:#CB7129;}
	.st141{fill:#CC3828;}
	.st142{fill:#9E4F23;}
	.st143{fill:#CECFD0;}
	.st144{fill:#CF4827;}
	.st145{fill:#39617D;}
	.st146{fill:#D1BAC0;}
	.st147{fill:#034F6D;}
	.st148{fill:#D2AE73;}
	.st149{fill:#D2B676;}
	.st150{fill:#D62127;}
	.st151{fill:#D62427;}
	.st152{fill:#D6AC60;}
	.st153{fill:#D6D0CC;}
	.st154{fill:#D7C527;}
	.st155{fill:#D7D7D7;}
	.st156{fill:#702313;}
	.st157{clip-path:url(#SVGID_10_);}
	.st158{clip-path:url(#SVGID_12_);}
	.st159{clip-path:url(#SVGID_14_);}
	.st160{clip-path:url(#SVGID_16_);}
	.st161{fill:#A31E22;}
	.st162{fill:#A46A28;}
	.st163{fill:#76692A;}
	.st164{fill:#DA1F26;}
	.st165{fill:#DB2F2C;}
	.st166{fill:#DBD0A1;}
	.st167{fill:#DBDDDC;}
	.st168{fill:#A81E22;}
	.st169{fill:#796027;}
	.st170{fill:#DC965F;}
	.st171{fill:#DD9328;}
	.st172{fill:#DD9454;}
	.st173{fill:#DDC97D;}
	.st174{fill:#DDDFE0;}
	.st175{fill:#DDE077;}
	.st176{fill:#DFE0E1;}
]]>
</style>
<g>
	<g>
		<g>
			<g>
				<g>
					<g>
						<circle class="st106" cx="68.416" cy="68.417" r="63.333"/>
					</g>
				</g>
			</g>
		</g>
	</g>
	<g>
		<g>
			<g>
				<g>
					<path class="st55" d="M83.714,116.313c-0.188,3.31-31.797,2.853-31.871,0l-5.635-72.579c0-2.27,2.273-1.713,5.076-1.713h32.986
						c2.803,0,5.074-0.557,5.074,1.713L83.714,116.313z"/>
				</g>
			</g>
		</g>
		<g>
			<g>
				<g>
					<path class="st56" d="M51.843,116.313l-5.635-72.579c0-2.27,2.273-1.713,5.076-1.713h32.986c2.803,0,5.074-0.557,5.074,1.713
						C89.345,43.734,51.917,119.166,51.843,116.313z"/>
				</g>
			</g>
		</g>
		<g>
			<g>
				<g>
					<path class="st138" d="M59.562,44.19c0,0,26.34,38.743-3.658,74.69h8.906c0,0,11.355-30.47,8.902-74.69H59.562z"/>
				</g>
			</g>
		</g>
		<g>
			<g>
				<g>
					<g>
						<ellipse class="st96" cx="67.599" cy="43.112" rx="23.215" ry="2.209"/>
					</g>
				</g>
			</g>
			<g>
				<g>
					<g>
						<path class="st25" d="M90.813,44.589c0,1.219-10.393,2.21-23.215,2.21c-12.82,0-23.215-0.991-23.215-2.21
							c0-0.232,0.178-2.938,0.178-2.938c2.982-0.893,12.67-0.745,23.037-0.745c10.98,0,20.801-0.29,23.215,0.686
							C90.813,41.591,90.813,44.415,90.813,44.589z"/>
					</g>
				</g>
			</g>
			<g>
				<g>
					<g>
						<ellipse class="st96" cx="67.599" cy="41.591" rx="23.215" ry="2.209"/>
					</g>
				</g>
			</g>
			<g>
				<g>
					<g>
						<ellipse class="st146" cx="67.599" cy="41.591" rx="4.418" ry="0.515"/>
					</g>
				</g>
			</g>
			<g>
				<g>
					<g>
						<g>
							<path class="st123" d="M90.765,26.728l-4.627-2.064l-12.971-5.696l-0.977-0.419c-0.107-0.036-0.211-0.075-0.316-0.106
								c-0.598-0.171-1.23-0.263-1.889-0.263c-3.537,0-6.404,2.661-6.404,5.942c0,0.588,0.094,1.152,0.264,1.686l2.426,16.254
								c0,0,0.848,0.063,1.605,0.059c0.758-0.005,1.545-0.049,1.545-0.049l-1.805-12.432l-0.586-3.823
								c-0.641-4.349,3.631-4.236,5.777-3.577l3.566,1.533l8.482,3.767l0.012-0.026l4.629,2.063c0.699,0.312,1.549-0.072,1.9-0.859
								C91.747,27.93,91.466,27.039,90.765,26.728z"/>
						</g>
					</g>
				</g>
			</g>
			<g>
				<g>
					<g>
						<g>
							<path class="st125" d="M71.507,21.883c-0.068,0-0.135-0.026-0.186-0.081c-0.094-0.103-0.088-0.262,0.016-0.355
								c1.027-0.954,0.373-2.419,0.344-2.481c-0.059-0.126-0.004-0.276,0.123-0.333c0.125-0.062,0.275-0.004,0.334,0.122
								c0.035,0.075,0.842,1.857-0.461,3.062C71.63,21.861,71.569,21.883,71.507,21.883z"/>
						</g>
					</g>
				</g>
				<g>
					<g>
						<g>
							<path class="st125" d="M70.636,21.731c-0.057,0-0.111-0.018-0.158-0.055c-0.107-0.087-0.125-0.246-0.039-0.354
								c0.879-1.094,0.014-2.447-0.023-2.504c-0.074-0.116-0.043-0.272,0.072-0.349c0.117-0.076,0.273-0.044,0.35,0.072
								c0.045,0.069,1.105,1.714-0.004,3.096C70.782,21.7,70.71,21.731,70.636,21.731z"/>
						</g>
					</g>
				</g>
				<g>
					<g>
						<g>
							<path class="st125" d="M69.628,21.753c-0.043,0-0.086-0.012-0.125-0.034c-0.121-0.07-0.162-0.225-0.094-0.345
								c0.705-1.221-0.393-2.459-0.404-2.472c-0.094-0.104-0.086-0.263,0.018-0.355c0.104-0.092,0.262-0.085,0.355,0.02
								c0.057,0.061,1.354,1.524,0.469,3.061C69.8,21.708,69.714,21.753,69.628,21.753z"/>
						</g>
					</g>
				</g>
				<g>
					<g>
						<g>
							<path class="st125" d="M68.505,21.984c-0.025,0-0.053-0.004-0.08-0.013c-0.131-0.045-0.203-0.188-0.158-0.318
								c0.447-1.337-0.877-2.331-0.891-2.341c-0.111-0.082-0.137-0.241-0.053-0.352c0.082-0.112,0.24-0.137,0.352-0.054
								c0.066,0.049,1.631,1.225,1.07,2.905C68.71,21.917,68.612,21.984,68.505,21.984z"/>
						</g>
					</g>
				</g>
				<g>
					<g>
						<g>
							<path class="st125" d="M67.575,22.613c-0.139,0-0.25-0.112-0.252-0.252c-0.006-1.345-1.211-2.258-1.225-2.266
								c-0.109-0.083-0.135-0.24-0.051-0.353c0.082-0.112,0.242-0.135,0.352-0.052c0.059,0.042,1.42,1.072,1.428,2.669
								c0.002,0.139-0.111,0.253-0.25,0.253C67.577,22.613,67.577,22.613,67.575,22.613z"/>
						</g>
					</g>
				</g>
				<g>
					<g>
						<g>
							<path class="st125" d="M66.983,23.373c-0.105,0-0.205-0.068-0.24-0.175c-0.418-1.292-1.813-1.816-1.824-1.821
								c-0.131-0.048-0.199-0.192-0.152-0.322c0.049-0.132,0.193-0.199,0.324-0.152c0.066,0.025,1.637,0.61,2.131,2.141
								c0.045,0.133-0.029,0.274-0.16,0.317C67.034,23.369,67.009,23.373,66.983,23.373z"/>
						</g>
					</g>
				</g>
				<g>
					<g>
						<g>
							<path class="st125" d="M66.608,24.217c-0.082,0-0.162-0.041-0.211-0.113c-0.756-1.133-2.146-1.525-2.162-1.53
								c-0.133-0.037-0.213-0.176-0.176-0.311c0.037-0.134,0.174-0.21,0.311-0.175c0.064,0.018,1.588,0.448,2.447,1.735
								c0.076,0.116,0.045,0.272-0.07,0.351C66.704,24.203,66.655,24.217,66.608,24.217z"/>
						</g>
					</g>
				</g>
				<g>
					<g>
						<g>
							<path class="st125" d="M66.591,25.086c-0.061,0-0.121-0.021-0.168-0.065c-0.979-0.88-2.432-0.922-2.445-0.923
								c-0.141-0.002-0.25-0.117-0.248-0.257c0.004-0.139,0.111-0.271,0.258-0.247c0.066,0.002,1.652,0.045,2.771,1.053
								c0.104,0.093,0.111,0.252,0.02,0.355C66.728,25.057,66.659,25.086,66.591,25.086z"/>
						</g>
					</g>
				</g>
			</g>
		</g>
	</g>
</g>
</svg>
