<?xml version="1.0" encoding="utf-8"?>
<!-- Generator: Adobe Illustrator 16.0.0, SVG Export Plug-In . SVG Version: 6.00 Build 0)  -->
<!DOCTYPE svg PUBLIC "-//W3C//DTD SVG 1.1//EN" "http://www.w3.org/Graphics/SVG/1.1/DTD/svg11.dtd">
<svg version="1.1" id="Layer_1" xmlns="http://www.w3.org/2000/svg" xmlns:xlink="http://www.w3.org/1999/xlink" x="0px" y="0px"
	 width="136.833px" height="136.834px" viewBox="0 0 136.833 136.834" style="enable-background:new 0 0 136.833 136.834;"
	 xml:space="preserve">
<style type="text/css">
<![CDATA[
	.st0{fill:#7A430B;}
	.st1{fill:#AA9A83;}
	.st2{fill:#AC4736;}
	.st3{fill:#499544;}
	.st4{fill:#7D3719;}
	.st5{fill:#AD842D;}
	.st6{fill:#AE8032;}
	.st7{fill:#AF5E27;}
	.st8{fill:#E0A925;}
	.st9{fill:#E0E0E0;}
	.st10{fill:#E1544A;}
	.st11{fill:#E1B623;}
	.st12{fill:#E37926;}
	.st13{fill:#E3DFC6;}
	.st14{fill:#E3E4E5;}
	.st15{fill:#E48225;}
	.st16{fill:#E4C88F;}
	.st17{fill:#E54526;}
	.st18{fill:#E55126;}
	.st19{fill:#4ABC96;}
	.st20{fill:#E5DBCF;}
	.st21{fill:#184166;}
	.st22{fill:#196935;}
	.st23{fill:#4D8741;}
	.st24{fill:#E89C23;}
	.st25{fill:#E8DADD;}
	.st26{fill:#E8EAEB;}
	.st27{fill:#E92C25;}
	.st28{fill:#E9683B;}
	.st29{fill:#E98F23;}
	.st30{fill:#E99323;}
	.st31{fill:#E9B14D;}
	.st32{fill:#E9D8CB;}
	.st33{fill:#E9EEEE;}
	.st34{fill:#B1C635;}
	.st35{fill:#B21F24;}
	.st36{opacity:0.25;}
	.st37{fill:#83B041;}
	.st38{fill:#846A35;}
	.st39{fill:#B3BB35;}
	.st40{fill:#85983A;}
	.st41{fill:#864F4F;}
	.st42{fill:#EA9F3C;}
	.st43{fill:#EAAE7A;}
	.st44{fill:#EAD760;}
	.st45{fill:#B73535;}
	.st46{fill:#B7567D;}
	.st47{fill:#B79051;}
	.st48{fill:#EB7623;}
	.st49{fill:#EB8123;}
	.st50{fill:#EB9682;}
	.st51{fill:#EB9C22;}
	.st52{fill:#1D9E49;}
	.st53{fill:#B88B3B;}
	.st54{fill:#B88C33;}
	.st55{fill:#EC1C24;}
	.st56{fill:#EC2224;}
	.st57{fill:#ECDE7A;}
	.st58{fill:#EDC92C;}
	.st59{fill:#EDEDED;}
	.st60{fill:#EEB760;}
	.st61{fill:#EEE26F;}
	.st62{fill:#EFCF8A;}
	.st63{fill:#EFCFA7;}
	.st64{fill:#EFEFEF;}
	.st65{fill:#EFF2F1;}
	.st66{fill:#543D18;}
	.st67{fill:#568D4D;}
	.st68{fill:#8B5122;}
	.st69{fill:#8BC53F;}
	.st70{fill:#BB6828;}
	.st71{fill:#BB9E70;}
	.st72{fill:#BDDA83;}
	.st73{fill:#BE6328;}
	.st74{fill:#8F8547;}
	.st75{fill:#F0A91E;}
	.st76{fill:#F0B234;}
	.st77{fill:#F1CE6A;}
	.st78{fill:#F1CF13;}
	.st79{fill:#F1E2A3;}
	.st80{fill:#F2BA2C;}
	.st81{fill:#F2CF3B;}
	.st82{fill:#F2E78A;}
	.st83{fill:#F2ECC6;}
	.st84{fill:#F37C2A;}
	.st85{fill:#F3B022;}
	.st86{fill:#F3C121;}
	.st87{fill:#F3C480;}
	.st88{fill:#F3E4CE;}
	.st89{fill:#F4BD1C;}
	.st90{fill:#F4CE9D;}
	.st91{fill:#264E6E;}
	.st92{fill:#F58721;}
	.st93{fill:#F5D1AF;}
	.st94{fill:#F5E11C;}
	.st95{fill:#F69220;}
	.st96{fill:#F6E6E8;}
	.st97{fill:#5C2A2A;}
	.st98{fill:#F7991F;}
	.st99{fill:#F7CC55;}
	.st100{fill:#F7E8DD;}
	.st101{fill:#F8DA02;}
	.st102{fill:#F8E37F;}
	.st103{fill:#F8F0E9;}
	.st104{fill:#F9A65C;}
	.st105{fill:#F9C74F;}
	.st106{fill:#F9C900;}
	.st107{fill:#F9CE82;}
	.st108{fill:#F9ECE0;}
	.st109{fill:#F9ECE4;}
	.st110{fill:#F9EDE4;}
	.st111{clip-path:url(#SVGID_2_);}
	.st112{clip-path:url(#SVGID_4_);}
	.st113{clip-path:url(#SVGID_6_);}
	.st114{clip-path:url(#SVGID_8_);}
	.st115{fill:#C13B3B;}
	.st116{fill:#C16028;}
	.st117{fill:#925A25;}
	.st118{fill:#C35328;}
	.st119{fill:#C42126;}
	.st120{fill:#952E25;}
	.st121{fill:#C4BEBA;}
	.st122{fill:#95C83D;}
	.st123{fill:#C6C3C2;}
	.st124{fill:#2CAEA1;}
	.st125{fill:#989897;}
	.st126{fill:#99B93C;}
	.st127{fill:#C9C9C9;}
	.st128{fill:#FDD300;}
	.st129{fill:#FDD600;}
	.st130{fill:#FDD842;}
	.st131{fill:#FDE500;}
	.st132{opacity:0.5;}
	.st133{opacity:0.6;}
	.st134{opacity:0.8;}
	.st135{fill:#FFDD4D;}
	.st136{fill:#FFEFAE;}
	.st137{fill:#FFFBF8;}
	.st138{fill:#FFFFFF;}
	.st139{fill:#CA2027;}
	.st140{fill:#CB7129;}
	.st141{fill:#CC3828;}
	.st142{fill:#9E4F23;}
	.st143{fill:#CECFD0;}
	.st144{fill:#CF4827;}
	.st145{fill:#39617D;}
	.st146{fill:#D1BAC0;}
	.st147{fill:#034F6D;}
	.st148{fill:#D2AE73;}
	.st149{fill:#D2B676;}
	.st150{fill:#D62127;}
	.st151{fill:#D62427;}
	.st152{fill:#D6AC60;}
	.st153{fill:#D6D0CC;}
	.st154{fill:#D7C527;}
	.st155{fill:#D7D7D7;}
	.st156{fill:#702313;}
	.st157{clip-path:url(#SVGID_10_);}
	.st158{clip-path:url(#SVGID_12_);}
	.st159{clip-path:url(#SVGID_14_);}
	.st160{clip-path:url(#SVGID_16_);}
	.st161{fill:#A31E22;}
	.st162{fill:#A46A28;}
	.st163{fill:#76692A;}
	.st164{fill:#DA1F26;}
	.st165{fill:#DB2F2C;}
	.st166{fill:#DBD0A1;}
	.st167{fill:#DBDDDC;}
	.st168{fill:#A81E22;}
	.st169{fill:#796027;}
	.st170{fill:#DC965F;}
	.st171{fill:#DD9328;}
	.st172{fill:#DD9454;}
	.st173{fill:#DDC97D;}
	.st174{fill:#DDDFE0;}
	.st175{fill:#DDE077;}
	.st176{fill:#DFE0E1;}
]]>
</style>
<g>
	<g>
		<g>
			<g>
				<g>
					<g>
						<circle class="st50" cx="68.417" cy="68.417" r="63.333"/>
					</g>
				</g>
			</g>
		</g>
	</g>
	<g>
		<g>
			<g>
				<g>
					<path class="st105" d="M109.583,91.331c-0.722-0.304-1.088-1.068-0.818-1.709l3.856-9.183c0.268-0.641,1.07-0.916,1.792-0.612
						l2.772,1.163c0.72,0.302,1.087,1.068,0.817,1.709l-3.855,9.184c-0.271,0.64-1.072,0.914-1.794,0.612L109.583,91.331z"/>
				</g>
			</g>
			<g class="st36">
				<g>
					<path class="st140" d="M84.261,81.511c0,0,8.371-0.645,13.64,1.884l19.779,7.944l1.681-2.663l0.697-2.633L96.765,75.127
						c-5.491-1.99-7.088-6.518-7.088-6.518c-2.739-7.793-8.345-9.515-8.345-9.515L32.731,38.568c0,0-6.809,2.603-9.707,9.507
						c-2.899,6.904,0,13.615,0,13.615l48.602,20.525C71.625,82.216,76.78,85.013,84.261,81.511z"/>
				</g>
			</g>
			<g>
				<g>
					<path class="st35" d="M84.261,81.511c1.792-0.84,8.371-0.645,13.64,1.884l19.779,7.944l1.681-2.663
						c-4.579-1.659-10.902-4.119-31.837-10.306c-4.172-1.233-64.5-16.68-64.5-16.68l48.602,20.525
						C71.625,82.216,77.474,84.69,84.261,81.511z"/>
				</g>
			</g>
			<g class="st133">
				<g>
					<path class="st140" d="M118.255,82.937c-1.495-0.629-17.04-7.154-17.04-7.154c-6.106-2.213-8.141-6.582-8.141-6.582
						C90.033,60.537,83.8,58.624,83.8,58.624L29.79,35.813c0,0-7.567,2.889-10.789,10.563c-3.222,7.675,0,15.13,0,15.13
						l54.013,22.813c0,0,5.728,3.107,14.044-0.785c0,0,4.544-1.608,10.397,1.201c0,0,15.546,6.525,17.041,7.153
						c1.493,0.628,3.485,0.062,4.865-3.213l0,0c0.002-0.002,0.003-0.005,0.005-0.01c0-0.001,0.002-0.003,0.002-0.003V88.66
						C120.74,85.381,119.749,83.563,118.255,82.937z"/>
				</g>
			</g>
			<g>
				<g>
					<path class="st20" d="M76.227,55.444L52.486,45.323c0,0-4.612,4.844-7.835,12.519c-3.22,7.674-2.953,13.179-2.953,13.179
						L65.44,81.138c0,0,0.545-7.156,3.222-13.534S76.227,55.444,76.227,55.444z"/>
				</g>
			</g>
			<g>
				<g>
					<path class="st80" d="M109.964,91.067c-0.601-0.253-0.883-0.942-0.632-1.543l3.614-8.611c0.253-0.6,0.944-0.883,1.545-0.63
						l2.312,0.969c0.6,0.253,0.882,0.943,0.631,1.545l-3.615,8.61c-0.251,0.601-0.943,0.882-1.544,0.631L109.964,91.067z"/>
				</g>
			</g>
		</g>
		<g>
			<g>
				<g>
					
						<ellipse transform="matrix(0.8822 -0.4708 0.4708 0.8822 -23.4128 33.912)" class="st46" cx="56.084" cy="63.759" rx="2.255" ry="1.593"/>
				</g>
			</g>
			<g>
				<g>
					<path class="st46" d="M59.688,59.957c-0.59,0.651-1.818,0.503-2.741-0.333c-0.923-0.834-1.191-2.043-0.601-2.693
						c0.591-0.652,1.819-0.506,2.741,0.33C60.013,58.098,60.28,59.305,59.688,59.957z"/>
				</g>
			</g>
			<g>
				<g>
					
						<ellipse transform="matrix(0.9941 0.1087 -0.1087 0.9941 7.467 -5.8475)" class="st46" cx="57.348" cy="65.539" rx="2.254" ry="1.594"/>
				</g>
			</g>
			<g>
				<g>
					
						<ellipse transform="matrix(0.994 0.1091 -0.1091 0.994 7.5069 -6.2396)" class="st46" cx="60.762" cy="65.467" rx="2.255" ry="1.595"/>
				</g>
			</g>
			<g>
				<g>
					
						<ellipse transform="matrix(0.9941 0.1087 -0.1087 0.9941 7.2731 -6.3764)" class="st46" cx="62.138" cy="63.54" rx="2.256" ry="1.595"/>
				</g>
			</g>
			<g>
				<g>
					
						<ellipse transform="matrix(0.9941 0.1087 -0.1087 0.9941 7.0393 -6.3775)" class="st46" cx="61.993" cy="61.353" rx="2.254" ry="1.596"/>
				</g>
			</g>
			<g>
				<g>
					<path class="st46" d="M61.531,62.098c-0.862,0.186-1.771-0.651-2.032-1.871c-0.258-1.219,0.231-2.354,1.093-2.537
						c0.859-0.184,1.771,0.654,2.027,1.873C62.88,60.78,62.391,61.917,61.531,62.098z"/>
				</g>
			</g>
			<g>
				<g>
					<path class="st46" d="M61.37,62.158c-0.184,1.667-1.777,2.861-3.562,2.666c-1.784-0.196-3.083-1.706-2.899-3.373
						c0.182-1.669,1.777-2.862,3.561-2.667C60.254,58.977,61.553,60.489,61.37,62.158z"/>
				</g>
			</g>
			<g>
				<g>
					
						<ellipse transform="matrix(0.4503 0.8929 -0.8929 0.4503 83.1196 -17.096)" class="st46" cx="55.445" cy="58.96" rx="2.255" ry="1.595"/>
				</g>
			</g>
			<g>
				<g>
					
						<ellipse transform="matrix(0.9599 -0.2804 0.2804 0.9599 -15.0684 17.6816)" class="st46" cx="54.258" cy="61.5" rx="2.255" ry="1.596"/>
				</g>
			</g>
			<g>
				<g>
					
						<ellipse transform="matrix(-0.6932 -0.7207 0.7207 -0.6932 46.6288 138.8895)" class="st46" cx="52.874" cy="59.521" rx="2.255" ry="1.596"/>
				</g>
			</g>
		</g>
	</g>
</g>
</svg>
