<?xml version="1.0" encoding="utf-8"?>
<!-- Generator: Adobe Illustrator 16.0.0, SVG Export Plug-In . SVG Version: 6.00 Build 0)  -->
<!DOCTYPE svg PUBLIC "-//W3C//DTD SVG 1.1//EN" "http://www.w3.org/Graphics/SVG/1.1/DTD/svg11.dtd">
<svg version="1.1" id="Layer_1" xmlns="http://www.w3.org/2000/svg" xmlns:xlink="http://www.w3.org/1999/xlink" x="0px" y="0px"
	 width="136.833px" height="136.834px" viewBox="0 0 136.833 136.834" style="enable-background:new 0 0 136.833 136.834;"
	 xml:space="preserve">
<style type="text/css">
<![CDATA[
	.st0{fill:#7A430B;}
	.st1{fill:#AA9A83;}
	.st2{fill:#AC4736;}
	.st3{fill:#499544;}
	.st4{fill:#7D3719;}
	.st5{fill:#AD842D;}
	.st6{fill:#AE8032;}
	.st7{fill:#AF5E27;}
	.st8{fill:#E0A925;}
	.st9{fill:#E0E0E0;}
	.st10{fill:#E1544A;}
	.st11{fill:#E1B623;}
	.st12{fill:#E37926;}
	.st13{fill:#E3DFC6;}
	.st14{fill:#E3E4E5;}
	.st15{fill:#E48225;}
	.st16{fill:#E4C88F;}
	.st17{fill:#E54526;}
	.st18{fill:#E55126;}
	.st19{fill:#4ABC96;}
	.st20{fill:#E5DBCF;}
	.st21{fill:#184166;}
	.st22{fill:#196935;}
	.st23{fill:#4D8741;}
	.st24{fill:#E89C23;}
	.st25{fill:#E8DADD;}
	.st26{fill:#E8EAEB;}
	.st27{fill:#E92C25;}
	.st28{fill:#E9683B;}
	.st29{fill:#E98F23;}
	.st30{fill:#E99323;}
	.st31{fill:#E9B14D;}
	.st32{fill:#E9D8CB;}
	.st33{fill:#E9EEEE;}
	.st34{fill:#B1C635;}
	.st35{fill:#B21F24;}
	.st36{opacity:0.25;}
	.st37{fill:#83B041;}
	.st38{fill:#846A35;}
	.st39{fill:#B3BB35;}
	.st40{fill:#85983A;}
	.st41{fill:#864F4F;}
	.st42{fill:#EA9F3C;}
	.st43{fill:#EAAE7A;}
	.st44{fill:#EAD760;}
	.st45{fill:#B73535;}
	.st46{fill:#B7567D;}
	.st47{fill:#B79051;}
	.st48{fill:#EB7623;}
	.st49{fill:#EB8123;}
	.st50{fill:#EB9682;}
	.st51{fill:#EB9C22;}
	.st52{fill:#1D9E49;}
	.st53{fill:#B88B3B;}
	.st54{fill:#B88C33;}
	.st55{fill:#EC1C24;}
	.st56{fill:#EC2224;}
	.st57{fill:#ECDE7A;}
	.st58{fill:#EDC92C;}
	.st59{fill:#EDEDED;}
	.st60{fill:#EEB760;}
	.st61{fill:#EEE26F;}
	.st62{fill:#EFCF8A;}
	.st63{fill:#EFCFA7;}
	.st64{fill:#EFEFEF;}
	.st65{fill:#EFF2F1;}
	.st66{fill:#543D18;}
	.st67{fill:#568D4D;}
	.st68{fill:#8B5122;}
	.st69{fill:#8BC53F;}
	.st70{fill:#BB6828;}
	.st71{fill:#BB9E70;}
	.st72{fill:#BDDA83;}
	.st73{fill:#BE6328;}
	.st74{fill:#8F8547;}
	.st75{fill:#F0A91E;}
	.st76{fill:#F0B234;}
	.st77{fill:#F1CE6A;}
	.st78{fill:#F1CF13;}
	.st79{fill:#F1E2A3;}
	.st80{fill:#F2BA2C;}
	.st81{fill:#F2CF3B;}
	.st82{fill:#F2E78A;}
	.st83{fill:#F2ECC6;}
	.st84{fill:#F37C2A;}
	.st85{fill:#F3B022;}
	.st86{fill:#F3C121;}
	.st87{fill:#F3C480;}
	.st88{fill:#F3E4CE;}
	.st89{fill:#F4BD1C;}
	.st90{fill:#F4CE9D;}
	.st91{fill:#264E6E;}
	.st92{fill:#F58721;}
	.st93{fill:#F5D1AF;}
	.st94{fill:#F5E11C;}
	.st95{fill:#F69220;}
	.st96{fill:#F6E6E8;}
	.st97{fill:#5C2A2A;}
	.st98{fill:#F7991F;}
	.st99{fill:#F7CC55;}
	.st100{fill:#F7E8DD;}
	.st101{fill:#F8DA02;}
	.st102{fill:#F8E37F;}
	.st103{fill:#F8F0E9;}
	.st104{fill:#F9A65C;}
	.st105{fill:#F9C74F;}
	.st106{fill:#F9C900;}
	.st107{fill:#F9CE82;}
	.st108{fill:#F9ECE0;}
	.st109{fill:#F9ECE4;}
	.st110{fill:#F9EDE4;}
	.st111{clip-path:url(#SVGID_2_);}
	.st112{clip-path:url(#SVGID_4_);}
	.st113{clip-path:url(#SVGID_6_);}
	.st114{clip-path:url(#SVGID_8_);}
	.st115{fill:#C13B3B;}
	.st116{fill:#C16028;}
	.st117{fill:#925A25;}
	.st118{fill:#C35328;}
	.st119{fill:#C42126;}
	.st120{fill:#952E25;}
	.st121{fill:#C4BEBA;}
	.st122{fill:#95C83D;}
	.st123{fill:#C6C3C2;}
	.st124{fill:#2CAEA1;}
	.st125{fill:#989897;}
	.st126{fill:#99B93C;}
	.st127{fill:#C9C9C9;}
	.st128{fill:#FDD300;}
	.st129{fill:#FDD600;}
	.st130{fill:#FDD842;}
	.st131{fill:#FDE500;}
	.st132{opacity:0.5;}
	.st133{opacity:0.6;}
	.st134{opacity:0.8;}
	.st135{fill:#FFDD4D;}
	.st136{fill:#FFEFAE;}
	.st137{fill:#FFFBF8;}
	.st138{fill:#FFFFFF;}
	.st139{fill:#CA2027;}
	.st140{fill:#CB7129;}
	.st141{fill:#CC3828;}
	.st142{fill:#9E4F23;}
	.st143{fill:#CECFD0;}
	.st144{fill:#CF4827;}
	.st145{fill:#39617D;}
	.st146{fill:#D1BAC0;}
	.st147{fill:#034F6D;}
	.st148{fill:#D2AE73;}
	.st149{fill:#D2B676;}
	.st150{fill:#D62127;}
	.st151{fill:#D62427;}
	.st152{fill:#D6AC60;}
	.st153{fill:#D6D0CC;}
	.st154{fill:#D7C527;}
	.st155{fill:#D7D7D7;}
	.st156{fill:#702313;}
	.st157{clip-path:url(#SVGID_10_);}
	.st158{clip-path:url(#SVGID_12_);}
	.st159{clip-path:url(#SVGID_14_);}
	.st160{clip-path:url(#SVGID_16_);}
	.st161{fill:#A31E22;}
	.st162{fill:#A46A28;}
	.st163{fill:#76692A;}
	.st164{fill:#DA1F26;}
	.st165{fill:#DB2F2C;}
	.st166{fill:#DBD0A1;}
	.st167{fill:#DBDDDC;}
	.st168{fill:#A81E22;}
	.st169{fill:#796027;}
	.st170{fill:#DC965F;}
	.st171{fill:#DD9328;}
	.st172{fill:#DD9454;}
	.st173{fill:#DDC97D;}
	.st174{fill:#DDDFE0;}
	.st175{fill:#DDE077;}
	.st176{fill:#DFE0E1;}
]]>
</style>
<g>
	<g>
		<g>
			<g>
				<g>
					<g>
						<circle class="st106" cx="68.416" cy="68.417" r="63.333"/>
					</g>
				</g>
			</g>
		</g>
	</g>
	<g>
		<g>
			<g>
				<g>
					<path class="st22" d="M113.456,64.578c-1.266,1.388-5.178,1.396-7.789-1.004s-3.699-5.463-2.43-6.848
						C106.304,53.387,113.456,64.578,113.456,64.578z"/>
				</g>
			</g>
			<g>
				<g>
					<path class="st22" d="M105.679,46.601c1.826,0.418,3.783,3.807,2.996,7.268c-0.783,3.458-2.906,5.926-4.736,5.508
						C99.519,58.373,105.679,46.601,105.679,46.601z"/>
				</g>
			</g>
			<g>
				<g>
					<path class="st52" d="M112.646,63.945c-1.107,1.21-4.525,1.221-6.813-0.875c-2.281-2.102-3.232-4.781-2.121-5.983
						C106.392,54.166,112.646,63.945,112.646,63.945z"/>
				</g>
			</g>
			<g>
				<g>
					<path class="st52" d="M106.001,47.823c1.594,0.364,3.305,3.327,2.619,6.349s-2.541,5.184-4.145,4.814
						C100.612,58.111,106.001,47.823,106.001,47.823z"/>
				</g>
			</g>
			<g>
				<g>
					<g>
						<path class="st168" d="M90.151,89.589C72.821,91.424,49.31,76.716,48.173,64.18c-0.832-9.167,18.406-31.794,35.74-33.624
							c15.711-1.66,19.805,6.803,21.766,20.936c0.053,0.412-0.145,4.004,0.127,6.597c0.131,1.202,1.086,4.655,1.184,5.823
							C108.185,78.576,106.208,87.891,90.151,89.589z"/>
					</g>
				</g>
				<g>
					<g>
						<defs>
							<path id="SVGID_1_" d="M90.231,88.209C73.69,89.957,51.265,75.927,50.177,63.967c-0.791-8.745,17.559-30.33,34.1-32.081
								c14.988-1.58,18.893,6.498,20.766,19.977c0.049,0.395-0.137,3.822,0.125,6.293c0.121,1.146,1.033,4.443,1.129,5.559
								C107.433,77.702,105.546,86.59,90.231,88.209z"/>
						</defs>
						<clipPath id="SVGID_2_">
							<use xlink:href="#SVGID_1_"  style="overflow:visible;"/>
						</clipPath>
						<g class="st111">
							<rect x="49.386" y="30.306" class="st27" width="58.047" height="59.65"/>
						</g>
						<g class="st111">
							<circle class="st27" cx="77.939" cy="61.033" r="16.871"/>
						</g>
						<g class="st111">
							<circle class="st27" cx="77.94" cy="61.033" r="8.436"/>
						</g>
					</g>
				</g>
				<g>
					<g>
						<path class="st168" d="M93.954,45.901c-1.518,0.159-3.479-0.224-3.504-0.659c-0.023-0.32,1.773-1.217,3.287-1.377
							c1.514-0.158,1.744,0.277,1.805,0.838C95.603,45.267,95.466,45.738,93.954,45.901z"/>
					</g>
				</g>
				<g>
					<g>
						<path class="st168" d="M84.276,40.848c-1.514,0.159-3.473-0.224-3.5-0.659c-0.021-0.315,1.773-1.214,3.283-1.373
							c1.52-0.159,1.752,0.273,1.809,0.834C85.929,40.214,85.792,40.687,84.276,40.848z"/>
					</g>
				</g>
				<g>
					<g>
						<path class="st168" d="M93.835,37.497c-1.516,0.159-3.475-0.228-3.502-0.66c-0.02-0.317,1.77-1.217,3.287-1.374
							c1.518-0.164,1.744,0.271,1.803,0.836C95.485,36.86,95.349,37.337,93.835,37.497z"/>
					</g>
				</g>
				<g>
					<g>
						<path class="st168" d="M99.632,56.529c-1.512,0.16-3.473-0.227-3.502-0.662c-0.02-0.314,1.773-1.217,3.287-1.376
							c1.516-0.163,1.746,0.276,1.807,0.837C101.284,55.892,101.149,56.368,99.632,56.529z"/>
					</g>
				</g>
				<g>
					<g>
						<path class="st168" d="M90.974,52.628c-1.516,0.16-3.471-0.227-3.502-0.66c-0.023-0.316,1.77-1.22,3.287-1.379
							c1.512-0.159,1.746,0.281,1.807,0.842C92.622,51.993,92.487,52.466,90.974,52.628z"/>
					</g>
				</g>
				<g>
					<g>
						<path class="st168" d="M82.698,49.358c-1.512,0.163-3.477-0.228-3.506-0.656c-0.02-0.317,1.777-1.221,3.291-1.384
							c1.512-0.158,1.742,0.277,1.803,0.846C84.347,48.725,84.21,49.199,82.698,49.358z"/>
					</g>
				</g>
				<g>
					<g>
						<path class="st168" d="M86.216,59.21c-1.512,0.158-3.473-0.229-3.498-0.664c-0.023-0.314,1.773-1.215,3.283-1.376
							c1.516-0.159,1.75,0.276,1.807,0.839C87.87,58.57,87.731,59.05,86.216,59.21z"/>
					</g>
				</g>
				<g>
					<g>
						<path class="st168" d="M92.952,73.452c-1.516,0.159-3.473-0.224-3.502-0.659c-0.023-0.315,1.77-1.217,3.285-1.377
							c1.514-0.158,1.746,0.277,1.807,0.838C94.599,72.819,94.466,73.29,92.952,73.452z"/>
					</g>
				</g>
				<g>
					<g>
						<path class="st168" d="M98.358,80.271c-1.516,0.16-3.477-0.227-3.504-0.658c-0.018-0.319,1.771-1.222,3.287-1.381
							c1.514-0.159,1.744,0.281,1.805,0.842C100.007,79.635,99.872,80.112,98.358,80.271z"/>
					</g>
				</g>
				<g>
					<g>
						<path class="st168" d="M84.724,68.915c-1.518,0.158-3.477-0.228-3.504-0.66c-0.023-0.313,1.77-1.22,3.287-1.379
							c1.516-0.159,1.748,0.28,1.803,0.841C86.372,68.281,86.235,68.755,84.724,68.915z"/>
					</g>
				</g>
				<g>
					<g>
						<path class="st168" d="M74.196,44.433c-1.514,0.162-3.473-0.227-3.504-0.656c-0.018-0.313,1.773-1.221,3.287-1.383
							c1.516-0.16,1.748,0.28,1.809,0.842C75.849,43.8,75.712,44.274,74.196,44.433z"/>
					</g>
				</g>
				<g>
					<g>
						<path class="st168" d="M69.544,49.792c-1.516,0.161-3.471-0.219-3.502-0.657c-0.023-0.313,1.77-1.214,3.287-1.374
							c1.516-0.162,1.746,0.273,1.807,0.834C71.192,49.162,71.058,49.635,69.544,49.792z"/>
					</g>
				</g>
				<g>
					<g>
						<path class="st168" d="M76.062,54.794c-1.51,0.158-3.473-0.225-3.504-0.66c-0.02-0.314,1.779-1.217,3.291-1.377
							c1.512-0.159,1.744,0.277,1.805,0.838C77.712,54.162,77.577,54.634,76.062,54.794z"/>
					</g>
				</g>
				<g>
					<g>
						<path class="st168" d="M63.642,55.412c-1.514,0.159-3.473-0.227-3.502-0.66c-0.023-0.31,1.775-1.213,3.285-1.372
							c1.518-0.164,1.748,0.273,1.811,0.835C65.292,54.775,65.157,55.252,63.642,55.412z"/>
					</g>
				</g>
				<g>
					<g>
						<path class="st168" d="M57.476,63.506c-1.514,0.162-3.473-0.229-3.5-0.657c-0.023-0.318,1.77-1.221,3.283-1.379
							c1.516-0.16,1.752,0.275,1.809,0.841C59.128,62.873,58.991,63.345,57.476,63.506z"/>
					</g>
				</g>
				<g>
					<g>
						<path class="st168" d="M71.349,60.058c-1.514,0.161-3.473-0.227-3.498-0.658c-0.027-0.318,1.77-1.221,3.285-1.381
							c1.514-0.158,1.744,0.281,1.805,0.842C73.001,59.422,72.864,59.898,71.349,60.058z"/>
					</g>
				</g>
				<g>
					<g>
						<path class="st168" d="M64.616,65.867c-1.512,0.16-3.473-0.228-3.498-0.66c-0.023-0.313,1.773-1.217,3.283-1.38
							c1.52-0.158,1.752,0.281,1.809,0.843C66.269,65.23,66.132,65.708,64.616,65.867z"/>
					</g>
				</g>
				<g>
					<g>
						<path class="st168" d="M78.81,64.138c-1.514,0.16-3.473-0.227-3.5-0.66c-0.025-0.318,1.771-1.221,3.283-1.379
							c1.518-0.164,1.748,0.273,1.807,0.842C80.462,63.501,80.325,63.975,78.81,64.138z"/>
					</g>
				</g>
				<g>
					<g>
						<path class="st168" d="M73.255,69.589c-1.512,0.16-3.471-0.229-3.498-0.658c-0.021-0.32,1.771-1.223,3.283-1.381
							c1.52-0.16,1.746,0.279,1.807,0.841C74.909,68.953,74.772,69.425,73.255,69.589z"/>
					</g>
				</g>
				<g>
					<g>
						<path class="st168" d="M71.392,75.783c-1.514,0.16-3.475-0.226-3.504-0.659c-0.02-0.319,1.775-1.22,3.287-1.379
							c1.516-0.159,1.746,0.28,1.809,0.841C73.04,75.146,72.907,75.625,71.392,75.783z"/>
					</g>
				</g>
				<g>
					<g>
						<path class="st168" d="M62.202,72.38c-1.518,0.158-3.477-0.229-3.502-0.662c-0.023-0.318,1.77-1.218,3.285-1.379
							c1.516-0.159,1.748,0.277,1.805,0.843C63.851,71.744,63.718,72.22,62.202,72.38z"/>
					</g>
				</g>
				<g>
					<g>
						<path class="st168" d="M75.825,81.932c-1.516,0.159-3.475-0.221-3.502-0.659c-0.023-0.318,1.775-1.223,3.285-1.38
							c1.514-0.159,1.748,0.28,1.809,0.841C77.476,81.294,77.339,81.773,75.825,81.932z"/>
					</g>
				</g>
				<g>
					<g>
						<path class="st168" d="M87.028,82.19c-1.518,0.159-3.477-0.228-3.508-0.66c-0.02-0.317,1.775-1.212,3.291-1.375
							c1.514-0.159,1.748,0.276,1.805,0.837C88.677,81.56,88.54,82.031,87.028,82.19z"/>
					</g>
				</g>
				<g>
					<g>
						<path class="st168" d="M81.997,75.511c-1.52,0.162-3.475-0.225-3.506-0.661c-0.02-0.313,1.77-1.216,3.289-1.379
							c1.514-0.159,1.748,0.28,1.809,0.842C83.646,74.876,83.507,75.351,81.997,75.511z"/>
					</g>
				</g>
				<g>
					<g>
						<path class="st168" d="M94.636,63.41c-1.514,0.159-3.473-0.219-3.504-0.651c-0.021-0.321,1.775-1.222,3.289-1.38
							c1.514-0.16,1.746,0.273,1.807,0.842C96.288,62.781,96.151,63.25,94.636,63.41z"/>
					</g>
				</g>
				<g>
					<g>
						<path class="st168" d="M100.626,68.907c-1.514,0.159-3.477-0.22-3.504-0.659c-0.021-0.311,1.773-1.213,3.287-1.372
							c1.516-0.164,1.748,0.272,1.805,0.833C102.274,68.275,102.142,68.748,100.626,68.907z"/>
					</g>
				</g>
			</g>
			<g>
				<g>
					<path class="st22" d="M113.911,51.232c0.963,1.613-0.139,5.362-3.191,7.182c-3.039,1.816-6.285,1.986-7.252,0.372
						C101.144,54.896,113.911,51.232,113.911,51.232z"/>
				</g>
			</g>
			<g>
				<g>
					<path class="st52" d="M113.476,51.836c0.842,1.41-0.121,4.688-2.785,6.282c-2.662,1.584-5.5,1.736-6.342,0.326
						C102.315,55.041,113.476,51.836,113.476,51.836z"/>
				</g>
			</g>
		</g>
		<g>
			<g>
				<g>
					<path class="st22" d="M27.323,84.396c0.818-1.198,3.813-1.623,6.068-0.068c2.26,1.555,3.42,3.779,2.594,4.975
						C34.003,92.186,27.323,84.396,27.323,84.396z"/>
				</g>
			</g>
			<g>
				<g>
					<path class="st22" d="M35.208,97.306c-1.445-0.117-3.307-2.5-3.074-5.23c0.227-2.732,1.584-4.852,3.033-4.724
						C38.657,87.64,35.208,97.306,35.208,97.306z"/>
				</g>
			</g>
			<g>
				<g>
					<path class="st52" d="M28.013,84.79c0.717-1.046,3.332-1.42,5.303-0.063c1.98,1.369,2.99,3.313,2.271,4.355
						C33.851,91.602,28.013,84.79,28.013,84.79z"/>
				</g>
			</g>
			<g>
				<g>
					<path class="st52" d="M34.833,96.414c-1.262-0.107-2.889-2.191-2.693-4.58c0.201-2.389,1.393-4.238,2.654-4.128
						C37.847,87.96,34.833,96.414,34.833,96.414z"/>
				</g>
			</g>
			<g>
				<g>
					<g>
						<path class="st168" d="M42.468,62.75c13.066-3.267,32.635,5.46,34.852,14.929c1.623,6.921-10.664,26.303-23.73,29.576
							c-11.846,2.955-15.887-3.088-18.904-13.686c-0.086-0.312-0.322-3.078-0.811-5.035c-0.225-0.908-1.332-3.444-1.533-4.328
							C29.854,73.115,30.366,65.775,42.468,62.75z"/>
					</g>
				</g>
				<g>
					<g>
						<defs>
							<path id="SVGID_3_" d="M42.558,63.812c12.465-3.115,31.133,5.213,33.25,14.242c1.549,6.614-10.176,25.1-22.639,28.215
								c-11.301,2.828-15.156-2.934-18.041-13.049c-0.08-0.299-0.303-2.941-0.77-4.807c-0.215-0.864-1.27-3.287-1.463-4.131
								C30.522,73.706,31.011,66.697,42.558,63.812z"/>
						</defs>
						<clipPath id="SVGID_4_">
							<use xlink:href="#SVGID_3_"  style="overflow:visible;"/>
						</clipPath>
						<g class="st112">
							<rect x="30.522" y="60.697" class="st27" width="46.834" height="48.4"/>
						</g>
						<g class="st112">
							<circle class="st27" cx="54.881" cy="83.287" r="13.036"/>
						</g>
						<g class="st112">
							<circle class="st27" cx="54.881" cy="83.287" r="6.519"/>
						</g>
					</g>
				</g>
				<g>
					<g>
						<path class="st168" d="M44.255,96.591c1.143-0.289,2.686-0.201,2.754,0.125c0.049,0.242-1.229,1.121-2.369,1.41
							c-1.141,0.285-1.365-0.031-1.467-0.447C43.062,97.247,43.116,96.876,44.255,96.591z"/>
					</g>
				</g>
				<g>
					<g>
						<path class="st168" d="M52.204,99.415c1.139-0.283,2.682-0.204,2.75,0.129c0.045,0.235-1.229,1.118-2.369,1.403
							c-1.141,0.283-1.365-0.023-1.471-0.449C51.009,100.074,51.062,99.703,52.204,99.415z"/>
					</g>
				</g>
				<g>
					<g>
						<path class="st168" d="M45.249,103.007c1.141-0.287,2.684-0.199,2.752,0.131c0.047,0.242-1.225,1.121-2.369,1.402
							c-1.141,0.287-1.363-0.023-1.471-0.448C44.06,103.669,44.108,103.296,45.249,103.007z"/>
					</g>
				</g>
				<g>
					<g>
						<path class="st168" d="M38.767,89.066c1.143-0.288,2.686-0.199,2.752,0.129c0.049,0.239-1.229,1.123-2.365,1.41
							c-1.145,0.281-1.369-0.021-1.475-0.451C37.573,89.73,37.622,89.351,38.767,89.066z"/>
					</g>
				</g>
				<g>
					<g>
						<path class="st168" d="M45.81,91.121c1.146-0.283,2.684-0.205,2.754,0.129c0.053,0.242-1.225,1.122-2.367,1.41
							c-1.141,0.281-1.367-0.031-1.471-0.454C44.62,91.781,44.673,91.408,45.81,91.121z"/>
					</g>
				</g>
				<g>
					<g>
						<path class="st168" d="M52.497,92.731c1.143-0.282,2.68-0.2,2.752,0.126c0.049,0.242-1.227,1.126-2.365,1.41
							c-1.145,0.287-1.369-0.021-1.475-0.447C51.304,93.395,51.356,93.016,52.497,92.731z"/>
					</g>
				</g>
				<g>
					<g>
						<path class="st168" d="M48.745,85.57c1.137-0.283,2.68-0.195,2.752,0.131c0.045,0.242-1.229,1.121-2.369,1.409
							c-1.141,0.283-1.365-0.022-1.475-0.447C47.55,86.238,47.601,85.859,48.745,85.57z"/>
					</g>
				</g>
				<g>
					<g>
						<path class="st168" d="M42.062,75.396c1.141-0.283,2.68-0.204,2.748,0.131c0.053,0.236-1.223,1.121-2.365,1.404
							c-1.141,0.289-1.365-0.025-1.471-0.442C40.868,76.056,40.921,75.681,42.062,75.396z"/>
					</g>
				</g>
				<g>
					<g>
						<path class="st168" d="M37.19,70.764c1.141-0.288,2.684-0.204,2.752,0.122c0.047,0.242-1.225,1.129-2.369,1.414
							c-1.141,0.284-1.365-0.027-1.471-0.451C35.995,71.424,36.05,71.044,37.19,70.764z"/>
					</g>
				</g>
				<g>
					<g>
						<path class="st168" d="M48.847,77.982c1.141-0.285,2.684-0.197,2.748,0.129c0.055,0.239-1.225,1.122-2.363,1.41
							c-1.143,0.289-1.365-0.031-1.473-0.447C47.653,78.649,47.702,78.27,48.847,77.982z"/>
					</g>
				</g>
				<g>
					<g>
						<path class="st168" d="M59.534,95.583c1.141-0.284,2.68-0.2,2.748,0.126c0.049,0.242-1.225,1.129-2.367,1.417
							c-1.141,0.28-1.367-0.03-1.475-0.455C58.335,96.247,58.39,95.867,59.534,95.583z"/>
					</g>
				</g>
				<g>
					<g>
						<path class="st168" d="M62.517,90.985c1.141-0.284,2.68-0.206,2.752,0.128c0.045,0.235-1.229,1.123-2.369,1.406
							c-1.141,0.285-1.367-0.025-1.475-0.449C61.323,91.644,61.372,91.273,62.517,90.985z"/>
					</g>
				</g>
				<g>
					<g>
						<path class="st168" d="M56.989,87.861c1.141-0.288,2.684-0.205,2.752,0.129c0.049,0.243-1.229,1.123-2.369,1.402
							c-1.141,0.289-1.365-0.022-1.471-0.447C55.796,88.529,55.849,88.148,56.989,87.861z"/>
					</g>
				</g>
				<g>
					<g>
						<path class="st168" d="M66.429,86.048c1.141-0.284,2.682-0.201,2.748,0.13c0.053,0.237-1.229,1.121-2.365,1.405
							c-1.145,0.285-1.369-0.027-1.471-0.451C65.235,86.712,65.284,86.333,66.429,86.048z"/>
					</g>
				</g>
				<g>
					<g>
						<path class="st168" d="M70.276,79.195c1.141-0.289,2.68-0.201,2.748,0.129c0.053,0.238-1.225,1.121-2.365,1.404
							c-1.141,0.287-1.369-0.025-1.471-0.449C69.079,79.863,69.136,79.484,70.276,79.195z"/>
					</g>
				</g>
				<g>
					<g>
						<path class="st168" d="M60.03,83.328c1.141-0.284,2.68-0.205,2.752,0.125c0.049,0.242-1.225,1.125-2.369,1.41
							c-1.143,0.284-1.365-0.027-1.471-0.448C58.837,83.986,58.888,83.612,60.03,83.328z"/>
					</g>
				</g>
				<g>
					<g>
						<path class="st168" d="M64.556,78.157c1.143-0.28,2.684-0.206,2.752,0.129c0.049,0.234-1.227,1.118-2.369,1.402
							c-1.141,0.288-1.365-0.019-1.471-0.444C63.362,78.824,63.411,78.441,64.556,78.157z"/>
					</g>
				</g>
				<g>
					<g>
						<path class="st168" d="M53.884,81.007c1.143-0.288,2.682-0.197,2.75,0.121c0.049,0.242-1.225,1.13-2.369,1.418
							c-1.143,0.284-1.365-0.03-1.471-0.455C52.687,81.673,52.741,81.288,53.884,81.007z"/>
					</g>
				</g>
				<g>
					<g>
						<path class="st168" d="M57.548,76.239c1.137-0.288,2.678-0.204,2.746,0.128c0.051,0.243-1.223,1.123-2.365,1.412
							c-1.141,0.278-1.367-0.027-1.475-0.457C56.349,76.898,56.401,76.527,57.548,76.239z"/>
					</g>
				</g>
				<g>
					<g>
						<path class="st168" d="M58.31,71.294c1.141-0.283,2.68-0.196,2.748,0.13c0.049,0.242-1.225,1.122-2.365,1.409
							c-1.143,0.284-1.365-0.029-1.471-0.447C57.11,71.962,57.167,71.583,58.31,71.294z"/>
					</g>
				</g>
				<g>
					<g>
						<path class="st168" d="M65.704,72.91c1.145-0.287,2.684-0.196,2.752,0.133c0.055,0.242-1.223,1.126-2.365,1.406
							c-1.145,0.288-1.367-0.022-1.475-0.447C64.511,73.578,64.563,73.199,65.704,72.91z"/>
					</g>
				</g>
				<g>
					<g>
						<path class="st168" d="M54.253,67.064c1.141-0.283,2.684-0.201,2.752,0.129c0.053,0.242-1.225,1.131-2.369,1.414
							c-1.141,0.285-1.365-0.026-1.471-0.451C53.058,67.732,53.112,67.353,54.253,67.064z"/>
					</g>
				</g>
				<g>
					<g>
						<path class="st168" d="M45.655,68.074c1.141-0.281,2.68-0.198,2.752,0.129c0.049,0.242-1.225,1.121-2.369,1.41
							c-1.143,0.289-1.365-0.027-1.471-0.448C44.462,68.736,44.515,68.361,45.655,68.074z"/>
					</g>
				</g>
				<g>
					<g>
						<path class="st168" d="M50.224,72.644c1.145-0.288,2.68-0.197,2.752,0.13c0.049,0.242-1.225,1.122-2.369,1.402
							c-1.143,0.288-1.369-0.022-1.475-0.447C49.024,73.304,49.083,72.932,50.224,72.644z"/>
					</g>
				</g>
				<g>
					<g>
						<path class="st168" d="M41.853,83.259c1.137-0.283,2.676-0.199,2.748,0.129c0.053,0.242-1.225,1.121-2.369,1.409
							c-1.141,0.284-1.363-0.022-1.471-0.455C40.655,83.925,40.708,83.546,41.853,83.259z"/>
					</g>
				</g>
				<g>
					<g>
						<path class="st168" d="M36.679,79.699c1.137-0.283,2.684-0.199,2.748,0.129c0.053,0.238-1.225,1.127-2.365,1.406
							c-1.145,0.288-1.369-0.026-1.471-0.446C35.483,80.363,35.534,79.987,36.679,79.699z"/>
					</g>
				</g>
			</g>
			<g>
				<g>
					<path class="st22" d="M28.411,94.654c-0.91-1.129-0.471-4.117,1.668-5.842c2.133-1.718,4.598-2.186,5.512-1.058
						C37.784,90.48,28.411,94.654,28.411,94.654z"/>
				</g>
			</g>
			<g>
				<g>
					<path class="st52" d="M28.677,94.146c-0.793-0.985-0.41-3.602,1.463-5.103c1.861-1.509,4.018-1.926,4.814-0.937
						C36.872,90.492,28.677,94.146,28.677,94.146z"/>
				</g>
			</g>
		</g>
	</g>
</g>
</svg>
