<?xml version="1.0" encoding="utf-8"?>
<!-- Generator: Adobe Illustrator 16.0.0, SVG Export Plug-In . SVG Version: 6.00 Build 0)  -->
<!DOCTYPE svg PUBLIC "-//W3C//DTD SVG 1.1//EN" "http://www.w3.org/Graphics/SVG/1.1/DTD/svg11.dtd">
<svg version="1.1" id="Layer_1" xmlns="http://www.w3.org/2000/svg" xmlns:xlink="http://www.w3.org/1999/xlink" x="0px" y="0px"
	 width="136.833px" height="136.834px" viewBox="0 0 136.833 136.834" style="enable-background:new 0 0 136.833 136.834;"
	 xml:space="preserve">
<style type="text/css">
<![CDATA[
	.st0{fill:#7A430B;}
	.st1{fill:#AA9A83;}
	.st2{fill:#AC4736;}
	.st3{fill:#499544;}
	.st4{fill:#7D3719;}
	.st5{fill:#AD842D;}
	.st6{fill:#AE8032;}
	.st7{fill:#AF5E27;}
	.st8{fill:#E0A925;}
	.st9{fill:#E0E0E0;}
	.st10{fill:#E1544A;}
	.st11{fill:#E1B623;}
	.st12{fill:#E37926;}
	.st13{fill:#E3DFC6;}
	.st14{fill:#E3E4E5;}
	.st15{fill:#E48225;}
	.st16{fill:#E4C88F;}
	.st17{fill:#E54526;}
	.st18{fill:#E55126;}
	.st19{fill:#4ABC96;}
	.st20{fill:#E5DBCF;}
	.st21{fill:#184166;}
	.st22{fill:#196935;}
	.st23{fill:#4D8741;}
	.st24{fill:#E89C23;}
	.st25{fill:#E8DADD;}
	.st26{fill:#E8EAEB;}
	.st27{fill:#E92C25;}
	.st28{fill:#E9683B;}
	.st29{fill:#E98F23;}
	.st30{fill:#E99323;}
	.st31{fill:#E9B14D;}
	.st32{fill:#E9D8CB;}
	.st33{fill:#E9EEEE;}
	.st34{fill:#B1C635;}
	.st35{fill:#B21F24;}
	.st36{opacity:0.25;}
	.st37{fill:#83B041;}
	.st38{fill:#846A35;}
	.st39{fill:#B3BB35;}
	.st40{fill:#85983A;}
	.st41{fill:#864F4F;}
	.st42{fill:#EA9F3C;}
	.st43{fill:#EAAE7A;}
	.st44{fill:#EAD760;}
	.st45{fill:#B73535;}
	.st46{fill:#B7567D;}
	.st47{fill:#B79051;}
	.st48{fill:#EB7623;}
	.st49{fill:#EB8123;}
	.st50{fill:#EB9682;}
	.st51{fill:#EB9C22;}
	.st52{fill:#1D9E49;}
	.st53{fill:#B88B3B;}
	.st54{fill:#B88C33;}
	.st55{fill:#EC1C24;}
	.st56{fill:#EC2224;}
	.st57{fill:#ECDE7A;}
	.st58{fill:#EDC92C;}
	.st59{fill:#EDEDED;}
	.st60{fill:#EEB760;}
	.st61{fill:#EEE26F;}
	.st62{fill:#EFCF8A;}
	.st63{fill:#EFCFA7;}
	.st64{fill:#EFEFEF;}
	.st65{fill:#EFF2F1;}
	.st66{fill:#543D18;}
	.st67{fill:#568D4D;}
	.st68{fill:#8B5122;}
	.st69{fill:#8BC53F;}
	.st70{fill:#BB6828;}
	.st71{fill:#BB9E70;}
	.st72{fill:#BDDA83;}
	.st73{fill:#BE6328;}
	.st74{fill:#8F8547;}
	.st75{fill:#F0A91E;}
	.st76{fill:#F0B234;}
	.st77{fill:#F1CE6A;}
	.st78{fill:#F1CF13;}
	.st79{fill:#F1E2A3;}
	.st80{fill:#F2BA2C;}
	.st81{fill:#F2CF3B;}
	.st82{fill:#F2E78A;}
	.st83{fill:#F2ECC6;}
	.st84{fill:#F37C2A;}
	.st85{fill:#F3B022;}
	.st86{fill:#F3C121;}
	.st87{fill:#F3C480;}
	.st88{fill:#F3E4CE;}
	.st89{fill:#F4BD1C;}
	.st90{fill:#F4CE9D;}
	.st91{fill:#264E6E;}
	.st92{fill:#F58721;}
	.st93{fill:#F5D1AF;}
	.st94{fill:#F5E11C;}
	.st95{fill:#F69220;}
	.st96{fill:#F6E6E8;}
	.st97{fill:#5C2A2A;}
	.st98{fill:#F7991F;}
	.st99{fill:#F7CC55;}
	.st100{fill:#F7E8DD;}
	.st101{fill:#F8DA02;}
	.st102{fill:#F8E37F;}
	.st103{fill:#F8F0E9;}
	.st104{fill:#F9A65C;}
	.st105{fill:#F9C74F;}
	.st106{fill:#F9C900;}
	.st107{fill:#F9CE82;}
	.st108{fill:#F9ECE0;}
	.st109{fill:#F9ECE4;}
	.st110{fill:#F9EDE4;}
	.st111{clip-path:url(#SVGID_2_);}
	.st112{clip-path:url(#SVGID_4_);}
	.st113{clip-path:url(#SVGID_6_);}
	.st114{clip-path:url(#SVGID_8_);}
	.st115{fill:#C13B3B;}
	.st116{fill:#C16028;}
	.st117{fill:#925A25;}
	.st118{fill:#C35328;}
	.st119{fill:#C42126;}
	.st120{fill:#952E25;}
	.st121{fill:#C4BEBA;}
	.st122{fill:#95C83D;}
	.st123{fill:#C6C3C2;}
	.st124{fill:#2CAEA1;}
	.st125{fill:#989897;}
	.st126{fill:#99B93C;}
	.st127{fill:#C9C9C9;}
	.st128{fill:#FDD300;}
	.st129{fill:#FDD600;}
	.st130{fill:#FDD842;}
	.st131{fill:#FDE500;}
	.st132{opacity:0.5;}
	.st133{opacity:0.6;}
	.st134{opacity:0.8;}
	.st135{fill:#FFDD4D;}
	.st136{fill:#FFEFAE;}
	.st137{fill:#FFFBF8;}
	.st138{fill:#FFFFFF;}
	.st139{fill:#CA2027;}
	.st140{fill:#CB7129;}
	.st141{fill:#CC3828;}
	.st142{fill:#9E4F23;}
	.st143{fill:#CECFD0;}
	.st144{fill:#CF4827;}
	.st145{fill:#39617D;}
	.st146{fill:#D1BAC0;}
	.st147{fill:#034F6D;}
	.st148{fill:#D2AE73;}
	.st149{fill:#D2B676;}
	.st150{fill:#D62127;}
	.st151{fill:#D62427;}
	.st152{fill:#D6AC60;}
	.st153{fill:#D6D0CC;}
	.st154{fill:#D7C527;}
	.st155{fill:#D7D7D7;}
	.st156{fill:#702313;}
	.st157{clip-path:url(#SVGID_10_);}
	.st158{clip-path:url(#SVGID_12_);}
	.st159{clip-path:url(#SVGID_14_);}
	.st160{clip-path:url(#SVGID_16_);}
	.st161{fill:#A31E22;}
	.st162{fill:#A46A28;}
	.st163{fill:#76692A;}
	.st164{fill:#DA1F26;}
	.st165{fill:#DB2F2C;}
	.st166{fill:#DBD0A1;}
	.st167{fill:#DBDDDC;}
	.st168{fill:#A81E22;}
	.st169{fill:#796027;}
	.st170{fill:#DC965F;}
	.st171{fill:#DD9328;}
	.st172{fill:#DD9454;}
	.st173{fill:#DDC97D;}
	.st174{fill:#DDDFE0;}
	.st175{fill:#DDE077;}
	.st176{fill:#DFE0E1;}
]]>
</style>
<g>
	<g>
		<g>
			<g>
				<g>
					<g>
						<circle class="st19" cx="68.417" cy="68.417" r="63.333"/>
					</g>
				</g>
			</g>
		</g>
	</g>
	<g>
		<g>
			<g>
				<g>
					<circle class="st82" cx="36.78" cy="45.006" r="3.173"/>
				</g>
			</g>
			<g>
				<g>
					<ellipse class="st82" cx="38.632" cy="45.193" rx="3.741" ry="3.061"/>
				</g>
			</g>
			<g>
				<g>
					<path class="st82" d="M42.702,48.056c-1.295,1.144-3.197,1.106-4.248-0.079c-1.047-1.19-0.848-3.081,0.446-4.226
						c1.296-1.142,3.196-1.105,4.245,0.082C44.194,45.023,43.997,46.912,42.702,48.056z"/>
				</g>
			</g>
			<g>
				<g>
					
						<ellipse transform="matrix(0.3147 0.9492 -0.9492 0.3147 69.4424 -2.5594)" class="st82" cx="36.494" cy="46.812" rx="2.87" ry="3.13"/>
				</g>
			</g>
		</g>
		<g>
			<g>
				<g>
					<path class="st82" d="M45.069,43.659c-1.301-1.174-1.405-3.181-0.232-4.484c1.174-1.301,3.181-1.404,4.482-0.229
						c1.301,1.172,1.404,3.181,0.232,4.481C48.377,44.729,46.37,44.832,45.069,43.659z"/>
				</g>
			</g>
			<g>
				<g>
					<path class="st61" d="M43.308,45.326c-1.254-1.129-1.149-3.291,0.233-4.825c1.383-1.536,3.521-1.859,4.777-0.729
						c1.256,1.131,1.151,3.294-0.231,4.829C46.704,46.133,44.563,46.462,43.308,45.326z"/>
				</g>
			</g>
			<g>
				<g>
					
						<ellipse transform="matrix(-1 -0.0099 0.0099 -1 87.2368 87.8014)" class="st82" cx="43.835" cy="43.686" rx="2.871" ry="3.13"/>
				</g>
			</g>
			<g>
				<g>
					<path class="st82" d="M43.415,38.726c0.693-1.582,2.436-2.348,3.888-1.713c1.451,0.641,2.065,2.439,1.372,4.018
						c-0.696,1.582-2.437,2.351-3.888,1.713C43.335,42.104,42.721,40.31,43.415,38.726z"/>
				</g>
			</g>
		</g>
		<g>
			<g>
				<g>
					<circle class="st61" cx="54.15" cy="42.669" r="3.174"/>
				</g>
			</g>
			<g>
				<g>
					
						<ellipse transform="matrix(-0.9877 0.1561 -0.1561 -0.9877 110.6185 76.8561)" class="st61" cx="52.292" cy="42.771" rx="3.741" ry="3.059"/>
				</g>
			</g>
			<g>
				<g>
					<path class="st82" d="M47.825,40.583c1.1-1.333,2.986-1.594,4.207-0.589c1.223,1.015,1.32,2.914,0.22,4.243
						c-1.1,1.331-2.983,1.593-4.205,0.583C46.823,43.812,46.725,41.913,47.825,40.583z"/>
				</g>
			</g>
			<g>
				<g>
					<path class="st82" d="M52.833,38.29c1.535-0.792,3.371-0.293,4.1,1.115c0.725,1.409,0.07,3.193-1.463,3.986
						s-3.369,0.293-4.097-1.116S51.299,39.084,52.833,38.29z"/>
				</g>
			</g>
		</g>
		<g>
			<g>
				<g>
					<path class="st61" d="M57.94,41.761c1.325-1.146,3.329-0.998,4.475,0.328c1.147,1.326,1.001,3.33-0.324,4.476
						c-1.329,1.145-3.332,1-4.477-0.329C56.465,44.912,56.612,42.907,57.94,41.761z"/>
				</g>
			</g>
			<g>
				<g>
					
						<ellipse transform="matrix(-0.6538 -0.7567 0.7567 -0.6538 65.2245 115.1188)" class="st61" cx="58.947" cy="42.639" rx="3.742" ry="3.061"/>
				</g>
			</g>
			<g>
				<g>
					<path class="st61" d="M58.452,37.688c1.71,0.229,2.927,1.694,2.716,3.263c-0.214,1.574-1.776,2.66-3.487,2.428
						c-1.713-0.233-2.928-1.695-2.713-3.267C55.178,38.541,56.739,37.456,58.452,37.688z"/>
				</g>
			</g>
			<g>
				<g>
					<path class="st61" d="M63.04,40.733c1.483,0.883,2.027,2.707,1.218,4.068c-0.817,1.361-2.679,1.747-4.16,0.864
						c-1.483-0.887-2.028-2.71-1.216-4.07C59.696,40.233,61.555,39.848,63.04,40.733z"/>
				</g>
			</g>
		</g>
		<g>
			<g>
				<g>
					<circle class="st61" cx="69.011" cy="40.622" r="3.174"/>
				</g>
			</g>
			<g>
				<g>
					
						<ellipse transform="matrix(-0.6695 0.7428 -0.7428 -0.6695 144.0131 19.673)" class="st61" cx="67.63" cy="41.872" rx="3.741" ry="3.059"/>
				</g>
			</g>
			<g>
				<g>
					<path class="st61" d="M62.781,42.979c0.017-1.728,1.318-3.116,2.901-3.102c1.586,0.02,2.857,1.434,2.84,3.159
						c-0.019,1.727-1.318,3.115-2.902,3.099C64.034,46.119,62.762,44.704,62.781,42.979z"/>
				</g>
			</g>
			<g>
				<g>
					
						<ellipse transform="matrix(-0.9157 -0.4018 0.4018 -0.9157 114.2493 102.3655)" class="st61" cx="67.86" cy="39.201" rx="2.871" ry="3.13"/>
				</g>
			</g>
		</g>
		<g>
			<g>
				<g>
					<circle class="st61" cx="75.967" cy="41.992" r="3.173"/>
				</g>
			</g>
			<g>
				<g>
					<path class="st61" d="M70.415,42.677c-0.265-1.665,1.178-3.281,3.216-3.604c2.04-0.324,3.911,0.769,4.175,2.437
						c0.262,1.669-1.178,3.285-3.219,3.609C72.546,45.439,70.676,44.347,70.415,42.677z"/>
				</g>
			</g>
			<g>
				<g>
					
						<ellipse transform="matrix(-0.7712 -0.6366 0.6366 -0.7712 100.6988 119.6595)" class="st61" cx="71.855" cy="41.731" rx="2.871" ry="3.13"/>
				</g>
			</g>
			<g>
				<g>
					<path class="st61" d="M74.649,37.612c1.535-0.795,3.371-0.295,4.1,1.113c0.725,1.409,0.072,3.196-1.462,3.986
						c-1.534,0.795-3.37,0.294-4.097-1.114C72.462,40.188,73.117,38.407,74.649,37.612z"/>
				</g>
			</g>
		</g>
		<g>
			<g>
				<g>
					<path class="st61" d="M101.102,46.599c-0.274-1.729,0.907-3.354,2.64-3.628c1.731-0.274,3.356,0.908,3.63,2.639
						c0.272,1.732-0.908,3.356-2.641,3.63C103.002,49.514,101.375,48.331,101.102,46.599z"/>
				</g>
			</g>
			<g>
				<g>
					<path class="st61" d="M98.683,46.792c-0.264-1.669,1.178-3.285,3.218-3.605c2.04-0.324,3.91,0.769,4.173,2.438
						s-1.179,3.284-3.219,3.608C100.817,49.554,98.948,48.462,98.683,46.792z"/>
				</g>
			</g>
			<g>
				<g>
					<path class="st61" d="M97.913,44.018c1.098-1.333,2.984-1.593,4.206-0.585c1.222,1.011,1.32,2.911,0.22,4.24
						c-1.101,1.331-2.983,1.592-4.205,0.583C96.911,47.248,96.813,45.35,97.913,44.018z"/>
				</g>
			</g>
			<g>
				<g>
					<path class="st61" d="M102.919,41.726c1.535-0.791,3.372-0.293,4.1,1.115c0.725,1.407,0.069,3.194-1.462,3.986
						c-1.535,0.793-3.371,0.296-4.098-1.116C100.733,44.303,101.385,42.519,102.919,41.726z"/>
				</g>
			</g>
		</g>
		<g>
			<g>
				<g>
					<circle class="st61" cx="81.832" cy="43.484" r="3.173"/>
				</g>
			</g>
			<g>
				<g>
					
						<ellipse transform="matrix(-0.6541 -0.7564 0.7564 -0.6541 101.8494 130.4951)" class="st61" cx="80.763" cy="41.959" rx="3.741" ry="3.061"/>
				</g>
			</g>
			<g>
				<g>
					<path class="st61" d="M80.268,37.011c1.711,0.229,2.928,1.694,2.715,3.264c-0.213,1.571-1.775,2.656-3.484,2.427
						c-1.713-0.234-2.928-1.694-2.715-3.267C76.995,37.862,78.555,36.776,80.268,37.011z"/>
				</g>
			</g>
			<g>
				<g>
					<path class="st61" d="M84.855,40.054c1.485,0.885,2.028,2.707,1.218,4.069c-0.816,1.36-2.678,1.747-4.157,0.863
						c-1.483-0.886-2.03-2.707-1.216-4.069C81.512,39.555,83.372,39.17,84.855,40.054z"/>
				</g>
			</g>
		</g>
		<g>
			<g>
				<g>
					<circle class="st61" cx="92.063" cy="42.898" r="3.174"/>
				</g>
			</g>
			<g>
				<g>
					<path class="st61" d="M86.508,43.583c-0.264-1.665,1.18-3.283,3.219-3.604c2.041-0.323,3.908,0.769,4.173,2.438
						c0.264,1.668-1.178,3.286-3.218,3.608C88.641,46.347,86.774,45.253,86.508,43.583z"/>
				</g>
			</g>
			<g>
				<g>
					
						<ellipse transform="matrix(-0.7711 -0.6367 0.6367 -0.7711 128.6245 131.5165)" class="st79" cx="87.952" cy="42.639" rx="2.87" ry="3.129"/>
				</g>
			</g>
			<g>
				<g>
					<path class="st61" d="M90.745,38.52c1.535-0.795,3.371-0.295,4.102,1.113c0.724,1.409,0.068,3.195-1.463,3.986
						c-1.536,0.794-3.37,0.294-4.1-1.114C88.557,41.097,89.211,39.313,90.745,38.52z"/>
				</g>
			</g>
		</g>
		<g>
			<g>
				<g>
					<circle class="st61" cx="98.38" cy="44.391" r="3.174"/>
				</g>
			</g>
			<g>
				<g>
					
						<ellipse transform="matrix(-0.6538 -0.7567 0.7567 -0.6538 128.5012 144.5243)" class="st61" cx="97.313" cy="42.866" rx="3.741" ry="3.06"/>
				</g>
			</g>
			<g>
				<g>
					<path class="st61" d="M96.817,37.917c1.711,0.229,2.928,1.694,2.717,3.266c-0.215,1.57-1.775,2.655-3.486,2.426
						c-1.714-0.235-2.929-1.695-2.716-3.268C93.544,38.77,95.104,37.685,96.817,37.917z"/>
				</g>
			</g>
			<g>
				<g>
					<path class="st61" d="M101.404,40.962c1.485,0.884,2.028,2.706,1.218,4.068c-0.815,1.362-2.678,1.747-4.158,0.864
						c-1.484-0.888-2.027-2.708-1.216-4.07C98.061,40.462,99.92,40.076,101.404,40.962z"/>
				</g>
			</g>
		</g>
		<g>
			<g>
				<g>
					<circle class="st82" cx="47" cy="47.179" r="3.173"/>
				</g>
			</g>
			<g>
				<g>
					
						<ellipse transform="matrix(-0.6696 0.7427 -0.7427 -0.6696 112.1375 46.9716)" class="st61" cx="45.622" cy="48.427" rx="3.742" ry="3.06"/>
				</g>
			</g>
			<g>
				<g>
					<path class="st82" d="M40.77,49.535c0.018-1.729,1.319-3.116,2.903-3.103c1.586,0.019,2.856,1.433,2.839,3.159
						c-0.017,1.729-1.316,3.115-2.903,3.099C42.023,52.675,40.753,51.261,40.77,49.535z"/>
				</g>
			</g>
			<g>
				<g>
					<path class="st82" d="M43.222,44.604c0.694-1.582,2.437-2.349,3.887-1.714c1.453,0.641,2.065,2.439,1.372,4.02
						c-0.695,1.581-2.435,2.349-3.887,1.711S42.53,46.185,43.222,44.604z"/>
				</g>
			</g>
		</g>
		<g>
			<g>
				<g>
					<circle class="st61" cx="53.958" cy="48.546" r="3.174"/>
				</g>
			</g>
			<g>
				<g>
					<path class="st61" d="M48.405,49.232c-0.265-1.667,1.178-3.282,3.217-3.604c2.041-0.324,3.909,0.769,4.174,2.436
						c0.263,1.672-1.178,3.286-3.219,3.61C50.537,51.996,48.669,50.904,48.405,49.232z"/>
				</g>
			</g>
			<g>
				<g>
					
						<ellipse transform="matrix(-0.771 -0.6368 0.6368 -0.771 57.5297 117.2608)" class="st82" cx="49.846" cy="48.288" rx="2.87" ry="3.13"/>
				</g>
			</g>
			<g>
				<g>
					<path class="st82" d="M52.639,44.168c1.535-0.795,3.372-0.294,4.102,1.112c0.725,1.411,0.07,3.196-1.463,3.988
						c-1.534,0.793-3.369,0.294-4.099-1.116C50.452,46.744,51.106,44.96,52.639,44.168z"/>
				</g>
			</g>
		</g>
		<g>
			<g>
				<g>
					<path class="st61" d="M57.747,47.638c1.326-1.145,3.331-1,4.477,0.327c1.146,1.326,1,3.333-0.326,4.475
						c-1.328,1.147-3.331,1.003-4.477-0.324C56.274,50.789,56.42,48.783,57.747,47.638z"/>
				</g>
			</g>
			<g>
				<g>
					<path class="st61" d="M56.309,45.685c1.279-1.104,3.41-0.733,4.76,0.83c1.352,1.561,1.409,3.727,0.133,4.832
						c-1.279,1.104-3.413,0.732-4.764-0.829C55.088,48.953,55.03,46.79,56.309,45.685z"/>
				</g>
			</g>
			<g>
				<g>
					<path class="st61" d="M58.258,43.566c1.711,0.23,2.928,1.695,2.717,3.263c-0.215,1.573-1.775,2.66-3.486,2.427
						c-1.713-0.231-2.928-1.693-2.714-3.265C54.987,44.417,56.545,43.334,58.258,43.566z"/>
				</g>
			</g>
			<g>
				<g>
					<path class="st61" d="M62.845,46.61c1.485,0.884,2.03,2.708,1.218,4.069c-0.814,1.359-2.676,1.747-4.156,0.862
						c-1.485-0.887-2.029-2.709-1.217-4.07S61.362,45.726,62.845,46.61z"/>
				</g>
			</g>
		</g>
		<g>
			<g>
				<g>
					<circle class="st61" cx="68.818" cy="46.5" r="3.173"/>
				</g>
			</g>
			<g>
				<g>
					
						<ellipse transform="matrix(-0.6698 0.7426 -0.7426 -0.6698 148.0625 29.6512)" class="st61" cx="67.438" cy="47.749" rx="3.741" ry="3.06"/>
				</g>
			</g>
			<g>
				<g>
					<path class="st61" d="M62.588,48.855c0.017-1.727,1.318-3.117,2.9-3.101c1.587,0.018,2.859,1.434,2.842,3.157
						c-0.019,1.729-1.319,3.115-2.904,3.101C63.84,51.996,62.571,50.582,62.588,48.855z"/>
				</g>
			</g>
			<g>
				<g>
					<path class="st61" d="M65.039,43.925c0.694-1.582,2.437-2.349,3.89-1.713c1.45,0.641,2.064,2.44,1.371,4.02
						c-0.695,1.581-2.436,2.348-3.889,1.71C64.959,47.304,64.346,45.507,65.039,43.925z"/>
				</g>
			</g>
		</g>
		<g>
			<g>
				<g>
					<circle class="st61" cx="75.774" cy="47.869" r="3.173"/>
				</g>
			</g>
			<g>
				<g>
					
						<ellipse transform="matrix(-0.9878 0.156 -0.156 -0.9878 154.4104 83.8266)" class="st61" cx="73.917" cy="47.971" rx="3.741" ry="3.061"/>
				</g>
			</g>
			<g>
				<g>
					
						<ellipse transform="matrix(-0.7711 -0.6367 0.6367 -0.7711 96.6092 129.949)" class="st61" cx="71.663" cy="47.609" rx="2.87" ry="3.131"/>
				</g>
			</g>
			<g>
				<g>
					
						<ellipse transform="matrix(-0.4591 -0.8884 0.8884 -0.4591 69.6678 134.4955)" class="st79" cx="75.776" cy="46.04" rx="2.871" ry="3.13"/>
				</g>
			</g>
		</g>
		<g>
			<g>
				<g>
					<path class="st61" d="M79.214,49.724c-0.273-1.731,0.907-3.355,2.64-3.629c1.73-0.275,3.356,0.908,3.629,2.638
						c0.275,1.733-0.908,3.356-2.639,3.631S79.487,51.456,79.214,49.724z"/>
				</g>
			</g>
			<g>
				<g>
					<path class="st61" d="M76.795,49.915c-0.264-1.669,1.178-3.284,3.217-3.607c2.041-0.321,3.91,0.772,4.176,2.439
						c0.262,1.669-1.178,3.285-3.219,3.608C78.928,52.676,77.059,51.585,76.795,49.915z"/>
				</g>
			</g>
			<g>
				<g>
					
						<ellipse transform="matrix(-0.7713 -0.6365 0.6365 -0.7713 107.4082 136.5384)" class="st79" cx="78.238" cy="48.97" rx="2.87" ry="3.131"/>
				</g>
			</g>
			<g>
				<g>
					
						<ellipse transform="matrix(-0.4592 -0.8883 0.8883 -0.4592 78.0591 142.3217)" class="st79" cx="82.35" cy="47.401" rx="2.871" ry="3.13"/>
				</g>
			</g>
		</g>
		<g>
			<g>
				<g>
					<circle class="st79" cx="85.266" cy="47.094" r="3.174"/>
				</g>
			</g>
			<g>
				<g>
					<path class="st79" d="M81.752,42.738c1.279-1.103,3.411-0.731,4.761,0.83c1.352,1.563,1.409,3.728,0.132,4.832
						c-1.278,1.104-3.413,0.733-4.764-0.829C80.534,46.008,80.474,43.846,81.752,42.738z"/>
				</g>
			</g>
			<g>
				<g>
					<path class="st79" d="M83.703,40.621c1.712,0.229,2.928,1.694,2.718,3.264c-0.217,1.572-1.777,2.657-3.488,2.427
						c-1.712-0.233-2.927-1.696-2.715-3.267C80.43,41.473,81.99,40.389,83.703,40.621z"/>
				</g>
			</g>
			<g>
				<g>
					<path class="st79" d="M88.29,43.665c1.485,0.883,2.029,2.709,1.218,4.07c-0.814,1.36-2.677,1.745-4.157,0.862
						c-1.484-0.886-2.029-2.71-1.216-4.07C84.946,43.166,86.805,42.779,88.29,43.665z"/>
				</g>
			</g>
		</g>
		<g>
			<g>
				<g>
					<circle class="st61" cx="92.324" cy="48.775" r="3.173"/>
				</g>
			</g>
			<g>
				<g>
					
						<ellipse transform="matrix(-0.9877 0.1561 -0.1561 -0.9877 187.4547 83.0313)" class="st61" cx="90.466" cy="48.878" rx="3.74" ry="3.06"/>
				</g>
			</g>
			<g>
				<g>
					<path class="st79" d="M85.999,46.688c1.1-1.33,2.986-1.593,4.207-0.586c1.222,1.011,1.32,2.911,0.221,4.242
						c-1.102,1.332-2.984,1.592-4.207,0.584C84.997,49.917,84.899,48.017,85.999,46.688z"/>
				</g>
			</g>
			<g>
				<g>
					<path class="st79" d="M90.438,43.83c1.537-0.794,3.373-0.294,4.102,1.114c0.725,1.409,0.07,3.194-1.462,3.986
						c-1.536,0.793-3.37,0.294-4.099-1.115C88.25,46.407,88.905,44.624,90.438,43.83z"/>
				</g>
			</g>
		</g>
		<g>
			<g>
				<g>
					<circle class="st61" cx="98.188" cy="50.269" r="3.174"/>
				</g>
			</g>
			<g>
				<g>
					
						<ellipse transform="matrix(-0.6537 -0.7567 0.7567 -0.6537 123.7261 154.1027)" class="st61" cx="97.12" cy="48.744" rx="3.741" ry="3.06"/>
				</g>
			</g>
			<g>
				<g>
					<path class="st61" d="M96.625,43.794c1.71,0.229,2.928,1.695,2.715,3.264c-0.215,1.572-1.776,2.658-3.486,2.428
						c-1.712-0.234-2.927-1.696-2.715-3.267S94.913,43.562,96.625,43.794z"/>
				</g>
			</g>
			<g>
				<g>
					<path class="st61" d="M101.211,46.838c1.486,0.885,2.029,2.709,1.218,4.071c-0.815,1.359-2.677,1.746-4.157,0.862
						c-1.484-0.887-2.029-2.709-1.215-4.072C97.87,46.339,99.728,45.954,101.211,46.838z"/>
				</g>
			</g>
		</g>
		<g>
			<g>
				<g>
					<circle class="st79" cx="79.826" cy="46.868" r="3.175"/>
				</g>
			</g>
			<g>
				<g>
					
						<ellipse transform="matrix(-0.6539 -0.7565 0.7565 -0.6539 95.9567 134.5777)" class="st79" cx="78.757" cy="45.343" rx="3.741" ry="3.06"/>
				</g>
			</g>
			<g>
				<g>
					
						<ellipse transform="matrix(0.1343 -0.9909 0.9909 0.1343 24.5694 114.6011)" class="st79" cx="77.876" cy="43.238" rx="2.872" ry="3.129"/>
				</g>
			</g>
			<g>
				<g>
					<path class="st79" d="M82.85,43.438c1.484,0.884,2.027,2.709,1.217,4.07c-0.816,1.36-2.678,1.747-4.158,0.863
						c-1.482-0.888-2.029-2.709-1.215-4.07C79.506,42.938,81.366,42.554,82.85,43.438z"/>
				</g>
			</g>
		</g>
		<g>
			<g>
				<g>
					<circle class="st61" cx="64.637" cy="47.547" r="3.173"/>
				</g>
			</g>
			<g>
				<g>
					
						<ellipse transform="matrix(-0.6538 -0.7567 0.7567 -0.6538 70.3069 124.2152)" class="st61" cx="63.569" cy="46.024" rx="3.741" ry="3.059"/>
				</g>
			</g>
			<g>
				<g>
					
						<ellipse transform="matrix(0.134 -0.991 0.991 0.134 10.7665 100.1561)" class="st61" cx="62.688" cy="43.918" rx="2.872" ry="3.13"/>
				</g>
			</g>
			<g>
				<g>
					
						<ellipse transform="matrix(0.5119 -0.859 0.859 0.5119 -7.7115 79.5965)" class="st61" cx="66.19" cy="46.584" rx="2.871" ry="3.129"/>
				</g>
			</g>
		</g>
		<g>
			<g>
				<g>
					<circle class="st79" cx="72.845" cy="49.712" r="2.923"/>
				</g>
			</g>
			<g>
				<g>
					
						<ellipse transform="matrix(-0.9877 0.1562 -0.1562 -0.9877 149.172 87.8936)" class="st57" cx="71.133" cy="49.807" rx="3.446" ry="2.818"/>
				</g>
			</g>
			<g>
				<g>
					
						<ellipse transform="matrix(-0.771 -0.6369 0.6369 -0.771 90.7906 131.5975)" class="st79" cx="69.059" cy="49.473" rx="2.644" ry="2.882"/>
				</g>
			</g>
			<g>
				<g>
					<path class="st79" d="M71.631,45.679c1.414-0.73,3.104-0.27,3.775,1.027c0.668,1.298,0.066,2.941-1.346,3.671
						c-1.415,0.729-3.105,0.271-3.775-1.028C69.616,48.053,70.219,46.41,71.631,45.679z"/>
				</g>
			</g>
		</g>
		<g>
			<g>
				<g>
					<circle class="st61" cx="40.094" cy="50.4" r="2.923"/>
				</g>
			</g>
			<g>
				<g>
					<ellipse class="st61" cx="41.798" cy="50.574" rx="3.445" ry="2.819"/>
				</g>
			</g>
			<g>
				<g>
					
						<ellipse transform="matrix(0.6623 0.7493 -0.7493 0.6623 53.1743 -15.5139)" class="st61" cx="43.796" cy="51.228" rx="2.644" ry="2.883"/>
				</g>
			</g>
			<g>
				<g>
					
						<ellipse transform="matrix(0.3148 0.9492 -0.9492 0.3148 76.7086 -2.1294)" class="st61" cx="39.829" cy="52.064" rx="2.645" ry="2.882"/>
				</g>
			</g>
		</g>
		<g>
			<g>
				<g>
					<path class="st164" d="M57.958,108.959L53.428,50.61c-2.074-0.241-4.082-0.507-5.975-0.776l5.081,58.417
						C54.296,108.526,56.102,108.768,57.958,108.959z"/>
				</g>
			</g>
			<g>
				<g>
					<path class="st164" d="M78.174,109.277l0.993-58.054c-1.865,0.147-3.724,0.266-5.542,0.343l-2.066,57.984
						C73.807,109.521,76.014,109.429,78.174,109.277z"/>
				</g>
			</g>
			<g>
				<g>
					<path class="st164" d="M67.897,109.546l-1.438-57.928c-1.906-0.055-3.85-0.163-5.793-0.309l0.992,57.965
						C63.697,109.418,65.779,109.511,67.897,109.546z"/>
				</g>
			</g>
			<g>
				<g>
					<path class="st164" d="M40.008,48.649c-3.739-0.65-6.105-1.148-6.105-1.148s-0.896-0.78-0.396,2.24
						c1.98,12,7.127,43.173,9.283,56.432c1.889,0.524,3.876,0.992,5.949,1.405L40.008,48.649z"/>
				</g>
			</g>
			<g>
				<g>
					<path class="st164" d="M97.432,106.071l9.242-56.326l-0.4-2.244c0,0-2.383,0.463-6.127,1.078l-8.732,58.941
						C93.514,107.097,95.524,106.611,97.432,106.071z"/>
				</g>
			</g>
			<g>
				<g>
					<path class="st164" d="M87.615,108.205l5.087-58.493c-1.991,0.275-4.107,0.549-6.291,0.802l-4.538,58.449
						C83.84,108.761,85.752,108.503,87.615,108.205z"/>
				</g>
			</g>
			<g>
				<g>
					<path class="st83" d="M52.535,108.251l-5.081-58.417c-2.797-0.403-5.34-0.818-7.445-1.185l8.73,58.929
						C49.975,107.823,51.241,108.046,52.535,108.251z"/>
				</g>
			</g>
			<g>
				<g>
					<path class="st83" d="M91.415,107.521l8.732-58.941c-2.109,0.348-4.648,0.742-7.445,1.133l-5.087,58.493
						C88.911,107.999,90.178,107.77,91.415,107.521z"/>
				</g>
			</g>
			<g>
				<g>
					<path class="st83" d="M69.934,109.568c0.544,0,1.083-0.011,1.625-0.018l2.066-57.984c-1.484,0.061-2.942,0.096-4.352,0.096
						c-0.924,0-1.866-0.016-2.814-0.044l1.438,57.928C68.573,109.557,69.251,109.568,69.934,109.568z"/>
				</g>
			</g>
			<g>
				<g>
					<path class="st83" d="M81.873,108.963l4.538-58.449c-2.367,0.272-4.809,0.516-7.243,0.71l-0.993,58.054
						C79.422,109.191,80.659,109.088,81.873,108.963z"/>
				</g>
			</g>
			<g>
				<g>
					<path class="st83" d="M61.659,109.274L60.667,51.31c-2.441-0.182-4.88-0.425-7.238-0.699l4.529,58.349
						C59.172,109.084,60.409,109.188,61.659,109.274z"/>
				</g>
			</g>
			<g>
				<g>
					<path class="st164" d="M52.535,108.251l0.073,0.837c1.759,0.276,3.564,0.516,5.414,0.708l-0.064-0.837
						C56.102,108.768,54.296,108.526,52.535,108.251z"/>
				</g>
			</g>
			<g>
				<g>
					<path class="st164" d="M71.559,109.551l-0.031,0.835c2.253-0.029,4.465-0.122,6.633-0.274l0.014-0.834
						C76.014,109.429,73.807,109.521,71.559,109.551z"/>
				</g>
			</g>
			<g>
				<g>
					<path class="st164" d="M61.659,109.274l0.014,0.834c2.041,0.144,4.125,0.238,6.246,0.272l-0.021-0.835
						C65.779,109.511,63.697,109.418,61.659,109.274z"/>
				</g>
			</g>
			<g>
				<g>
					<path class="st164" d="M48.739,107.578c-2.073-0.413-4.061-0.881-5.949-1.405c0.049,0.297,0.096,0.583,0.141,0.862
						c1.889,0.52,3.871,0.987,5.936,1.396L48.739,107.578z"/>
				</g>
			</g>
			<g>
				<g>
					<path class="st164" d="M91.415,107.521l-0.127,0.851c2.09-0.421,4.096-0.9,6.002-1.435l0.143-0.865
						C95.524,106.611,93.514,107.097,91.415,107.521z"/>
				</g>
			</g>
			<g>
				<g>
					<path class="st164" d="M81.873,108.963l-0.065,0.835c1.963-0.202,3.874-0.457,5.734-0.755l0.073-0.838
						C85.752,108.503,83.84,108.761,81.873,108.963z"/>
				</g>
			</g>
			<g>
				<g>
					<path class="st164" d="M48.739,107.578l0.127,0.853c1.217,0.241,2.47,0.459,3.742,0.657l-0.073-0.837
						C51.241,108.046,49.975,107.823,48.739,107.578z"/>
				</g>
			</g>
			<g>
				<g>
					<path class="st164" d="M87.542,109.043c1.275-0.203,2.527-0.427,3.746-0.672l0.127-0.851c-1.236,0.249-2.504,0.479-3.8,0.685
						L87.542,109.043z"/>
				</g>
			</g>
			<g>
				<g>
					<path class="st164" d="M69.934,109.568c-0.683,0-1.361-0.012-2.037-0.022l0.021,0.835c0.669,0.012,1.339,0.022,2.016,0.022
						c0.535,0,1.064-0.011,1.594-0.018l0.031-0.835C71.017,109.558,70.478,109.568,69.934,109.568z"/>
				</g>
			</g>
			<g>
				<g>
					<path class="st164" d="M78.174,109.277l-0.014,0.834c1.231-0.087,2.449-0.189,3.646-0.313l0.065-0.835
						C80.659,109.088,79.422,109.191,78.174,109.277z"/>
				</g>
			</g>
			<g>
				<g>
					<path class="st164" d="M57.958,108.959l0.064,0.837c1.199,0.123,2.418,0.225,3.65,0.313l-0.014-0.834
						C60.409,109.188,59.172,109.084,57.958,108.959z"/>
				</g>
			</g>
		</g>
		<g>
			<g>
				<g>
					<g>
						<path class="st13" d="M32.881,52.073l0.091-5.684c0,0,20.292,4.268,36.282,4.268c15.992,0,37.954-4.268,37.954-4.268
							l0.725,5.69c0,0-20.769,4.385-38.345,4.385C52.013,56.465,32.881,52.073,32.881,52.073z"/>
					</g>
				</g>
			</g>
		</g>
	</g>
</g>
</svg>
