<?xml version="1.0" encoding="utf-8"?>
<!-- Generator: Adobe Illustrator 16.0.0, SVG Export Plug-In . SVG Version: 6.00 Build 0)  -->
<!DOCTYPE svg PUBLIC "-//W3C//DTD SVG 1.1//EN" "http://www.w3.org/Graphics/SVG/1.1/DTD/svg11.dtd">
<svg version="1.1" id="Layer_1" xmlns="http://www.w3.org/2000/svg" xmlns:xlink="http://www.w3.org/1999/xlink" x="0px" y="0px"
	 width="136.833px" height="136.834px" viewBox="0 0 136.833 136.834" style="enable-background:new 0 0 136.833 136.834;"
	 xml:space="preserve">
<style type="text/css">
<![CDATA[
	.st0{fill:#7A430B;}
	.st1{fill:#AA9A83;}
	.st2{fill:#AC4736;}
	.st3{fill:#499544;}
	.st4{fill:#7D3719;}
	.st5{fill:#AD842D;}
	.st6{fill:#AE8032;}
	.st7{fill:#AF5E27;}
	.st8{fill:#E0A925;}
	.st9{fill:#E0E0E0;}
	.st10{fill:#E1544A;}
	.st11{fill:#E1B623;}
	.st12{fill:#E37926;}
	.st13{fill:#E3DFC6;}
	.st14{fill:#E3E4E5;}
	.st15{fill:#E48225;}
	.st16{fill:#E4C88F;}
	.st17{fill:#E54526;}
	.st18{fill:#E55126;}
	.st19{fill:#4ABC96;}
	.st20{fill:#E5DBCF;}
	.st21{fill:#184166;}
	.st22{fill:#196935;}
	.st23{fill:#4D8741;}
	.st24{fill:#E89C23;}
	.st25{fill:#E8DADD;}
	.st26{fill:#E8EAEB;}
	.st27{fill:#E92C25;}
	.st28{fill:#E9683B;}
	.st29{fill:#E98F23;}
	.st30{fill:#E99323;}
	.st31{fill:#E9B14D;}
	.st32{fill:#E9D8CB;}
	.st33{fill:#E9EEEE;}
	.st34{fill:#B1C635;}
	.st35{fill:#B21F24;}
	.st36{opacity:0.25;}
	.st37{fill:#83B041;}
	.st38{fill:#846A35;}
	.st39{fill:#B3BB35;}
	.st40{fill:#85983A;}
	.st41{fill:#864F4F;}
	.st42{fill:#EA9F3C;}
	.st43{fill:#EAAE7A;}
	.st44{fill:#EAD760;}
	.st45{fill:#B73535;}
	.st46{fill:#B7567D;}
	.st47{fill:#B79051;}
	.st48{fill:#EB7623;}
	.st49{fill:#EB8123;}
	.st50{fill:#EB9682;}
	.st51{fill:#EB9C22;}
	.st52{fill:#1D9E49;}
	.st53{fill:#B88B3B;}
	.st54{fill:#B88C33;}
	.st55{fill:#EC1C24;}
	.st56{fill:#EC2224;}
	.st57{fill:#ECDE7A;}
	.st58{fill:#EDC92C;}
	.st59{fill:#EDEDED;}
	.st60{fill:#EEB760;}
	.st61{fill:#EEE26F;}
	.st62{fill:#EFCF8A;}
	.st63{fill:#EFCFA7;}
	.st64{fill:#EFEFEF;}
	.st65{fill:#EFF2F1;}
	.st66{fill:#543D18;}
	.st67{fill:#568D4D;}
	.st68{fill:#8B5122;}
	.st69{fill:#8BC53F;}
	.st70{fill:#BB6828;}
	.st71{fill:#BB9E70;}
	.st72{fill:#BDDA83;}
	.st73{fill:#BE6328;}
	.st74{fill:#8F8547;}
	.st75{fill:#F0A91E;}
	.st76{fill:#F0B234;}
	.st77{fill:#F1CE6A;}
	.st78{fill:#F1CF13;}
	.st79{fill:#F1E2A3;}
	.st80{fill:#F2BA2C;}
	.st81{fill:#F2CF3B;}
	.st82{fill:#F2E78A;}
	.st83{fill:#F2ECC6;}
	.st84{fill:#F37C2A;}
	.st85{fill:#F3B022;}
	.st86{fill:#F3C121;}
	.st87{fill:#F3C480;}
	.st88{fill:#F3E4CE;}
	.st89{fill:#F4BD1C;}
	.st90{fill:#F4CE9D;}
	.st91{fill:#264E6E;}
	.st92{fill:#F58721;}
	.st93{fill:#F5D1AF;}
	.st94{fill:#F5E11C;}
	.st95{fill:#F69220;}
	.st96{fill:#F6E6E8;}
	.st97{fill:#5C2A2A;}
	.st98{fill:#F7991F;}
	.st99{fill:#F7CC55;}
	.st100{fill:#F7E8DD;}
	.st101{fill:#F8DA02;}
	.st102{fill:#F8E37F;}
	.st103{fill:#F8F0E9;}
	.st104{fill:#F9A65C;}
	.st105{fill:#F9C74F;}
	.st106{fill:#F9C900;}
	.st107{fill:#F9CE82;}
	.st108{fill:#F9ECE0;}
	.st109{fill:#F9ECE4;}
	.st110{fill:#F9EDE4;}
	.st111{clip-path:url(#SVGID_2_);}
	.st112{clip-path:url(#SVGID_4_);}
	.st113{clip-path:url(#SVGID_6_);}
	.st114{clip-path:url(#SVGID_8_);}
	.st115{fill:#C13B3B;}
	.st116{fill:#C16028;}
	.st117{fill:#925A25;}
	.st118{fill:#C35328;}
	.st119{fill:#C42126;}
	.st120{fill:#952E25;}
	.st121{fill:#C4BEBA;}
	.st122{fill:#95C83D;}
	.st123{fill:#C6C3C2;}
	.st124{fill:#2CAEA1;}
	.st125{fill:#989897;}
	.st126{fill:#99B93C;}
	.st127{fill:#C9C9C9;}
	.st128{fill:#FDD300;}
	.st129{fill:#FDD600;}
	.st130{fill:#FDD842;}
	.st131{fill:#FDE500;}
	.st132{opacity:0.5;}
	.st133{opacity:0.6;}
	.st134{opacity:0.8;}
	.st135{fill:#FFDD4D;}
	.st136{fill:#FFEFAE;}
	.st137{fill:#FFFBF8;}
	.st138{fill:#FFFFFF;}
	.st139{fill:#CA2027;}
	.st140{fill:#CB7129;}
	.st141{fill:#CC3828;}
	.st142{fill:#9E4F23;}
	.st143{fill:#CECFD0;}
	.st144{fill:#CF4827;}
	.st145{fill:#39617D;}
	.st146{fill:#D1BAC0;}
	.st147{fill:#034F6D;}
	.st148{fill:#D2AE73;}
	.st149{fill:#D2B676;}
	.st150{fill:#D62127;}
	.st151{fill:#D62427;}
	.st152{fill:#D6AC60;}
	.st153{fill:#D6D0CC;}
	.st154{fill:#D7C527;}
	.st155{fill:#D7D7D7;}
	.st156{fill:#702313;}
	.st157{clip-path:url(#SVGID_10_);}
	.st158{clip-path:url(#SVGID_12_);}
	.st159{clip-path:url(#SVGID_14_);}
	.st160{clip-path:url(#SVGID_16_);}
	.st161{fill:#A31E22;}
	.st162{fill:#A46A28;}
	.st163{fill:#76692A;}
	.st164{fill:#DA1F26;}
	.st165{fill:#DB2F2C;}
	.st166{fill:#DBD0A1;}
	.st167{fill:#DBDDDC;}
	.st168{fill:#A81E22;}
	.st169{fill:#796027;}
	.st170{fill:#DC965F;}
	.st171{fill:#DD9328;}
	.st172{fill:#DD9454;}
	.st173{fill:#DDC97D;}
	.st174{fill:#DDDFE0;}
	.st175{fill:#DDE077;}
	.st176{fill:#DFE0E1;}
]]>
</style>
<g>
	<g>
		<g>
			<g>
				<g>
					<g>
						<circle class="st107" cx="68.417" cy="68.417" r="63.333"/>
					</g>
				</g>
			</g>
		</g>
	</g>
	<g>
		<g>
			<g>
				<path class="st95" d="M20.279,89.791c-2.83-3.635,17.641-25.173,29.83-23.248c3.916,0.618,16.484,6.172,4.689,13.659
					c0,0-7.967,2.043-12.154,1.809C42.644,82.01,23.109,93.426,20.279,89.791z"/>
			</g>
		</g>
		<g>
			<g>
				<path class="st138" d="M103.435,40.014c0,0-1.076-9.683,1.344-8.607c0,0,2.422,0.806,4.305,0.806c0,0,2.959,0,1.613,2.69
					c0,0-3.496,5.918-3.766,7.532L103.435,40.014z"/>
			</g>
		</g>
		<g>
			<g>
				<path class="st138" d="M64.667,32.545c0,0-0.928-8.356,1.162-7.428c0,0,1.551,1.179,3.174,1.179c0,0,3.092-0.482,1.932,1.839
					c0,0-3.018,5.106-3.248,6.499L64.667,32.545z"/>
			</g>
		</g>
		<g>
			<g>
				<path class="st15" d="M63.222,32.281c0.807-1.614,4.033-1.614,5.648-0.604c1.613,1.008,1.613,1.815,1.816,4.236
					c0.201,2.42,2.219,10.691,2.219,10.691l-22.393,5.447c0,0-0.809-2.421,4.035-7.464C59.388,39.543,61.07,36.585,63.222,32.281z"
					/>
			</g>
		</g>
		<g>
			<g>
				<path class="st12" d="M30.541,79.555c0,0,4.438-26.093,33.488-33.354c0,0,19.77-8.473,31.672,4.64
					c0,0,24.613,9.684,1.816,39.138c0,0-27.639,14.929-50.031,15.938c0,0-8.506,1.03-15.029-3.281
					C27.439,99.317,28.435,92.098,30.541,79.555z"/>
			</g>
		</g>
		<g>
			<g>
				<path class="st15" d="M32.693,73.637c0,0,9.414-23.132,33.082-28.049c0,0,15.334-7.457,29.859,4.647
					c0,0-9.912,5.535-12.641,14.524c-2.496,8.218,0.348,17.978-0.809,19.904c-2.42,4.035-11.889,6.28-29.191,7.061
					C52.994,91.725,28.951,95.926,32.693,73.637z"/>
			</g>
		</g>
		<g>
			<g>
				<path class="st98" d="M34.576,69.603c0,0,8.607-20.443,30.543-24.368c0,0,16.797-5.49,27.287,2.58c0,0-9.832,4.657-14.523,13.18
					c-2.918,5.3-1.266,14.946-1.885,17.215c-1.613,5.918-7.061,5.328-21.672,5.985C54.326,84.195,31.417,88.424,34.576,69.603z"/>
			</g>
		</g>
		<g>
			<g>
				<path class="st15" d="M96.509,49.63c0,0-5.045,2.623-6.658,4.034c0,0-7.262,5.648-7.666,13.719c0,0-1.816,20.576,4.842,22.998
					c0,0,14.627,12.415,21.787-24.814c1.008-5.245-0.402-11.095-0.605-13.113c0,0,0.605-5.646,0.807-7.464
					c0,0,0.404-5.648-5.648-6.253C103.367,38.737,100.14,37.728,96.509,49.63z"/>
			</g>
		</g>
		<g>
			<g>
				<g>
					<path class="st95" d="M83.261,67.383c0.402-8.07,7.666-13.719,7.666-13.719c1.613-1.411,6.656-4.034,6.656-4.034
						c2.564-8.407,4.926-10.37,6.094-10.8c-0.096-0.048-0.195-0.083-0.311-0.094c0,0-3.227-1.009-6.857,10.894
						c0,0-5.045,2.623-6.658,4.034c0,0-7.262,5.648-7.666,13.719c0,0-1.816,20.576,4.842,22.998c0,0,0.07-0.163,0.197-0.454
						C81.611,86.083,83.261,67.383,83.261,67.383z"/>
				</g>
			</g>
		</g>
		<g>
			<g>
				<path class="st49" d="M59.322,106.184c0.85,3.647,30.738,0.047,36.178-8.741c1.748-2.825,4.438-13.518-8.473-9.28
					c0,0-6.254,4.236-8.473,7.061C78.554,95.223,58.177,101.275,59.322,106.184z"/>
			</g>
		</g>
		<g>
			<g>
				<path class="st95" d="M60.66,104.501c1.227,3.188,28.018,0.042,32.977-7.968c1.594-2.573,4.045-12.319-7.723-8.458
					c0,0-5.701,3.861-7.723,6.437C78.191,94.512,59.435,101.315,60.66,104.501z"/>
			</g>
		</g>
	</g>
</g>
</svg>
