<?xml version="1.0" encoding="utf-8"?>
<!-- Generator: Adobe Illustrator 16.0.0, SVG Export Plug-In . SVG Version: 6.00 Build 0)  -->
<!DOCTYPE svg PUBLIC "-//W3C//DTD SVG 1.1//EN" "http://www.w3.org/Graphics/SVG/1.1/DTD/svg11.dtd">
<svg version="1.1" id="Layer_1" xmlns="http://www.w3.org/2000/svg" xmlns:xlink="http://www.w3.org/1999/xlink" x="0px" y="0px"
	 width="136.833px" height="136.833px" viewBox="0 0 136.833 136.833" style="enable-background:new 0 0 136.833 136.833;"
	 xml:space="preserve">
<style type="text/css">
<![CDATA[
	.st0{fill:#7A430B;}
	.st1{fill:#AA9A83;}
	.st2{fill:#AC4736;}
	.st3{fill:#499544;}
	.st4{fill:#7D3719;}
	.st5{fill:#AD842D;}
	.st6{fill:#AE8032;}
	.st7{fill:#AF5E27;}
	.st8{fill:#E0A925;}
	.st9{fill:#E0E0E0;}
	.st10{fill:#E1544A;}
	.st11{fill:#E1B623;}
	.st12{fill:#E37926;}
	.st13{fill:#E3DFC6;}
	.st14{fill:#E3E4E5;}
	.st15{fill:#E48225;}
	.st16{fill:#E4C88F;}
	.st17{fill:#E54526;}
	.st18{fill:#E55126;}
	.st19{fill:#4ABC96;}
	.st20{fill:#E5DBCF;}
	.st21{fill:#184166;}
	.st22{fill:#196935;}
	.st23{fill:#4D8741;}
	.st24{fill:#E89C23;}
	.st25{fill:#E8DADD;}
	.st26{fill:#E8EAEB;}
	.st27{fill:#E92C25;}
	.st28{fill:#E9683B;}
	.st29{fill:#E98F23;}
	.st30{fill:#E99323;}
	.st31{fill:#E9B14D;}
	.st32{fill:#E9D8CB;}
	.st33{fill:#E9EEEE;}
	.st34{fill:#B1C635;}
	.st35{fill:#B21F24;}
	.st36{opacity:0.25;}
	.st37{fill:#83B041;}
	.st38{fill:#846A35;}
	.st39{fill:#B3BB35;}
	.st40{fill:#85983A;}
	.st41{fill:#864F4F;}
	.st42{fill:#EA9F3C;}
	.st43{fill:#EAAE7A;}
	.st44{fill:#EAD760;}
	.st45{fill:#B73535;}
	.st46{fill:#B7567D;}
	.st47{fill:#B79051;}
	.st48{fill:#EB7623;}
	.st49{fill:#EB8123;}
	.st50{fill:#EB9682;}
	.st51{fill:#EB9C22;}
	.st52{fill:#1D9E49;}
	.st53{fill:#B88B3B;}
	.st54{fill:#B88C33;}
	.st55{fill:#EC1C24;}
	.st56{fill:#EC2224;}
	.st57{fill:#ECDE7A;}
	.st58{fill:#EDC92C;}
	.st59{fill:#EDEDED;}
	.st60{fill:#EEB760;}
	.st61{fill:#EEE26F;}
	.st62{fill:#EFCF8A;}
	.st63{fill:#EFCFA7;}
	.st64{fill:#EFEFEF;}
	.st65{fill:#EFF2F1;}
	.st66{fill:#543D18;}
	.st67{fill:#568D4D;}
	.st68{fill:#8B5122;}
	.st69{fill:#8BC53F;}
	.st70{fill:#BB6828;}
	.st71{fill:#BB9E70;}
	.st72{fill:#BDDA83;}
	.st73{fill:#BE6328;}
	.st74{fill:#8F8547;}
	.st75{fill:#F0A91E;}
	.st76{fill:#F0B234;}
	.st77{fill:#F1CE6A;}
	.st78{fill:#F1CF13;}
	.st79{fill:#F1E2A3;}
	.st80{fill:#F2BA2C;}
	.st81{fill:#F2CF3B;}
	.st82{fill:#F2E78A;}
	.st83{fill:#F2ECC6;}
	.st84{fill:#F37C2A;}
	.st85{fill:#F3B022;}
	.st86{fill:#F3C121;}
	.st87{fill:#F3C480;}
	.st88{fill:#F3E4CE;}
	.st89{fill:#F4BD1C;}
	.st90{fill:#F4CE9D;}
	.st91{fill:#264E6E;}
	.st92{fill:#F58721;}
	.st93{fill:#F5D1AF;}
	.st94{fill:#F5E11C;}
	.st95{fill:#F69220;}
	.st96{fill:#F6E6E8;}
	.st97{fill:#5C2A2A;}
	.st98{fill:#F7991F;}
	.st99{fill:#F7CC55;}
	.st100{fill:#F7E8DD;}
	.st101{fill:#F8DA02;}
	.st102{fill:#F8E37F;}
	.st103{fill:#F8F0E9;}
	.st104{fill:#F9A65C;}
	.st105{fill:#F9C74F;}
	.st106{fill:#F9C900;}
	.st107{fill:#F9CE82;}
	.st108{fill:#F9ECE0;}
	.st109{fill:#F9ECE4;}
	.st110{fill:#F9EDE4;}
	.st111{clip-path:url(#SVGID_2_);}
	.st112{clip-path:url(#SVGID_4_);}
	.st113{clip-path:url(#SVGID_6_);}
	.st114{clip-path:url(#SVGID_8_);}
	.st115{fill:#C13B3B;}
	.st116{fill:#C16028;}
	.st117{fill:#925A25;}
	.st118{fill:#C35328;}
	.st119{fill:#C42126;}
	.st120{fill:#952E25;}
	.st121{fill:#C4BEBA;}
	.st122{fill:#95C83D;}
	.st123{fill:#C6C3C2;}
	.st124{fill:#2CAEA1;}
	.st125{fill:#989897;}
	.st126{fill:#99B93C;}
	.st127{fill:#C9C9C9;}
	.st128{fill:#FDD300;}
	.st129{fill:#FDD600;}
	.st130{fill:#FDD842;}
	.st131{fill:#FDE500;}
	.st132{opacity:0.5;}
	.st133{opacity:0.6;}
	.st134{opacity:0.8;}
	.st135{fill:#FFDD4D;}
	.st136{fill:#FFEFAE;}
	.st137{fill:#FFFBF8;}
	.st138{fill:#FFFFFF;}
	.st139{fill:#CA2027;}
	.st140{fill:#CB7129;}
	.st141{fill:#CC3828;}
	.st142{fill:#9E4F23;}
	.st143{fill:#CECFD0;}
	.st144{fill:#CF4827;}
	.st145{fill:#39617D;}
	.st146{fill:#D1BAC0;}
	.st147{fill:#034F6D;}
	.st148{fill:#D2AE73;}
	.st149{fill:#D2B676;}
	.st150{fill:#D62127;}
	.st151{fill:#D62427;}
	.st152{fill:#D6AC60;}
	.st153{fill:#D6D0CC;}
	.st154{fill:#D7C527;}
	.st155{fill:#D7D7D7;}
	.st156{fill:#702313;}
	.st157{clip-path:url(#SVGID_10_);}
	.st158{clip-path:url(#SVGID_12_);}
	.st159{clip-path:url(#SVGID_14_);}
	.st160{clip-path:url(#SVGID_16_);}
	.st161{fill:#A31E22;}
	.st162{fill:#A46A28;}
	.st163{fill:#76692A;}
	.st164{fill:#DA1F26;}
	.st165{fill:#DB2F2C;}
	.st166{fill:#DBD0A1;}
	.st167{fill:#DBDDDC;}
	.st168{fill:#A81E22;}
	.st169{fill:#796027;}
	.st170{fill:#DC965F;}
	.st171{fill:#DD9328;}
	.st172{fill:#DD9454;}
	.st173{fill:#DDC97D;}
	.st174{fill:#DDDFE0;}
	.st175{fill:#DDE077;}
	.st176{fill:#DFE0E1;}
]]>
</style>
<g>
	<g>
		<g>
			<g>
				<g>
					<g>
						<circle class="st147" cx="68.416" cy="68.417" r="63.333"/>
					</g>
				</g>
			</g>
		</g>
	</g>
	<g>
		<g>
			<g>
				<g>
					<polygon class="st94" points="42.354,69.236 38.755,69.509 33.728,33.516 37.327,33.243 					"/>
				</g>
			</g>
			<g>
				<g>
					<polygon class="st94" points="46.659,71.552 43.052,71.552 40.755,35.283 44.364,35.283 					"/>
				</g>
			</g>
			<g>
				<g>
					<polygon class="st94" points="51.874,68.152 48.265,68.152 45.968,31.882 49.577,31.882 					"/>
				</g>
			</g>
			<g>
				<g>
					<polygon class="st94" points="57.315,70.645 53.706,70.645 51.409,34.375 55.019,34.375 					"/>
				</g>
			</g>
			<g>
				<g>
					<polygon class="st94" points="61.8,68.152 58.19,68.152 55.894,31.882 59.503,31.882 					"/>
				</g>
			</g>
			<g>
				<g>
					<polygon class="st94" points="72.81,67.926 69.2,67.926 66.903,31.656 70.513,31.656 					"/>
				</g>
			</g>
			<g>
				<g>
					<polygon class="st94" points="66.915,65.206 63.308,65.206 61.009,28.935 64.618,28.935 					"/>
				</g>
			</g>
			<g>
				<g>
					<polygon class="st94" points="78.478,70.418 74.868,70.418 72.569,34.15 76.181,34.15 					"/>
				</g>
			</g>
			<g>
				<g>
					<polygon class="st94" points="87.321,70.32 83.735,69.732 84.554,33.341 88.138,33.929 					"/>
				</g>
			</g>
			<g>
				<g>
					<polygon class="st94" points="81.616,69.642 78.032,69.052 78.849,32.663 82.433,33.251 					"/>
				</g>
			</g>
			<g>
				<g>
					<polygon class="st94" points="91.979,69.438 88.823,67.015 99.565,33.768 102.72,36.191 					"/>
				</g>
			</g>
			<g>
				<g>
					<polygon class="st94" points="88.79,71.688 85.362,70.119 91.44,34.693 94.868,36.261 					"/>
				</g>
			</g>
		</g>
		<g>
			<g>
				<g>
					<path class="st164" d="M92.905,109.409c0,0-11.658-1.587-25.404-1.587s-25.363,1.587-25.363,1.587
						c0-0.386-7.443-45.493-9.891-60.307c-0.482-2.912,0.383-2.159,0.383-2.159s2.682,0.033,7.244,0.033
						c0,0,11.83,8.481,26.863,8.481c15.031,0,29.568-8.484,29.568-8.484c4.563,0,6.109-0.03,6.109-0.03l0.385,2.164L92.905,109.409z
						"/>
				</g>
			</g>
		</g>
		<g>
			<g>
				<g>
					<path class="st165" d="M67.501,107.822c-13.746,0-25.363,1.587-25.363,1.587c0-0.463-10.166-62-10.166-62
						s2.742-0.564,7.289-0.564c0,0,12.488,8.613,27.477,8.613L67.501,107.822z"/>
				</g>
			</g>
		</g>
		<g>
			<g>
				<g>
					<path class="st86" d="M35.165,66.792c0.27,1.631,0.545,3.299,0.824,4.986h63.09l0.82-4.986H35.165z"/>
				</g>
			</g>
		</g>
		<g>
			<g>
				<g>
					<path class="st99" d="M35.165,66.792c0.27,1.631,0.545,3.299,0.824,4.986h31.004l-0.084-5.001L35.165,66.792z"/>
				</g>
			</g>
		</g>
		<g>
			<g>
				<g>
					<path class="st86" d="M66.712,57.611c15.527,0,30.545-8.484,30.545-8.484c2.934,0,4.658-0.012,5.543-0.021l0.766-4.657
						c0,0-1.598,0.032-6.309,0.032c0,0-15.018,8.482-30.545,8.482c-15.529,0-27.75-8.48-27.75-8.48
						c-4.713,0-7.484-0.034-7.484-0.034s0.289,1.747,0.77,4.654c1.129,0.012,3.457,0.026,6.715,0.026
						C38.962,49.129,51.183,57.611,66.712,57.611z"/>
				</g>
			</g>
		</g>
		<g>
			<g>
				<g>
					<path class="st99" d="M66.712,57.611v-4.647c-15.529,0-27.75-8.48-27.75-8.48c-4.713,0-7.484-0.034-7.484-0.034
						s0.289,1.747,0.77,4.654c1.129,0.012,3.457,0.026,6.715,0.026C38.962,49.129,51.183,57.611,66.712,57.611z"/>
				</g>
			</g>
		</g>
	</g>
</g>
</svg>
