<?xml version="1.0" encoding="utf-8"?>
<!-- Generator: Adobe Illustrator 16.0.0, SVG Export Plug-In . SVG Version: 6.00 Build 0)  -->
<!DOCTYPE svg PUBLIC "-//W3C//DTD SVG 1.1//EN" "http://www.w3.org/Graphics/SVG/1.1/DTD/svg11.dtd">
<svg version="1.1" id="Layer_1" xmlns="http://www.w3.org/2000/svg" xmlns:xlink="http://www.w3.org/1999/xlink" x="0px" y="0px"
	 width="136.833px" height="136.834px" viewBox="0 0 136.833 136.834" style="enable-background:new 0 0 136.833 136.834;"
	 xml:space="preserve">
<style type="text/css">
<![CDATA[
	.st0{fill:#7A430B;}
	.st1{fill:#AA9A83;}
	.st2{fill:#AC4736;}
	.st3{fill:#499544;}
	.st4{fill:#7D3719;}
	.st5{fill:#AD842D;}
	.st6{fill:#AE8032;}
	.st7{fill:#AF5E27;}
	.st8{fill:#E0A925;}
	.st9{fill:#E0E0E0;}
	.st10{fill:#E1544A;}
	.st11{fill:#E1B623;}
	.st12{fill:#E37926;}
	.st13{fill:#E3DFC6;}
	.st14{fill:#E3E4E5;}
	.st15{fill:#E48225;}
	.st16{fill:#E4C88F;}
	.st17{fill:#E54526;}
	.st18{fill:#E55126;}
	.st19{fill:#4ABC96;}
	.st20{fill:#E5DBCF;}
	.st21{fill:#184166;}
	.st22{fill:#196935;}
	.st23{fill:#4D8741;}
	.st24{fill:#E89C23;}
	.st25{fill:#E8DADD;}
	.st26{fill:#E8EAEB;}
	.st27{fill:#E92C25;}
	.st28{fill:#E9683B;}
	.st29{fill:#E98F23;}
	.st30{fill:#E99323;}
	.st31{fill:#E9B14D;}
	.st32{fill:#E9D8CB;}
	.st33{fill:#E9EEEE;}
	.st34{fill:#B1C635;}
	.st35{fill:#B21F24;}
	.st36{opacity:0.25;}
	.st37{fill:#83B041;}
	.st38{fill:#846A35;}
	.st39{fill:#B3BB35;}
	.st40{fill:#85983A;}
	.st41{fill:#864F4F;}
	.st42{fill:#EA9F3C;}
	.st43{fill:#EAAE7A;}
	.st44{fill:#EAD760;}
	.st45{fill:#B73535;}
	.st46{fill:#B7567D;}
	.st47{fill:#B79051;}
	.st48{fill:#EB7623;}
	.st49{fill:#EB8123;}
	.st50{fill:#EB9682;}
	.st51{fill:#EB9C22;}
	.st52{fill:#1D9E49;}
	.st53{fill:#B88B3B;}
	.st54{fill:#B88C33;}
	.st55{fill:#EC1C24;}
	.st56{fill:#EC2224;}
	.st57{fill:#ECDE7A;}
	.st58{fill:#EDC92C;}
	.st59{fill:#EDEDED;}
	.st60{fill:#EEB760;}
	.st61{fill:#EEE26F;}
	.st62{fill:#EFCF8A;}
	.st63{fill:#EFCFA7;}
	.st64{fill:#EFEFEF;}
	.st65{fill:#EFF2F1;}
	.st66{fill:#543D18;}
	.st67{fill:#568D4D;}
	.st68{fill:#8B5122;}
	.st69{fill:#8BC53F;}
	.st70{fill:#BB6828;}
	.st71{fill:#BB9E70;}
	.st72{fill:#BDDA83;}
	.st73{fill:#BE6328;}
	.st74{fill:#8F8547;}
	.st75{fill:#F0A91E;}
	.st76{fill:#F0B234;}
	.st77{fill:#F1CE6A;}
	.st78{fill:#F1CF13;}
	.st79{fill:#F1E2A3;}
	.st80{fill:#F2BA2C;}
	.st81{fill:#F2CF3B;}
	.st82{fill:#F2E78A;}
	.st83{fill:#F2ECC6;}
	.st84{fill:#F37C2A;}
	.st85{fill:#F3B022;}
	.st86{fill:#F3C121;}
	.st87{fill:#F3C480;}
	.st88{fill:#F3E4CE;}
	.st89{fill:#F4BD1C;}
	.st90{fill:#F4CE9D;}
	.st91{fill:#264E6E;}
	.st92{fill:#F58721;}
	.st93{fill:#F5D1AF;}
	.st94{fill:#F5E11C;}
	.st95{fill:#F69220;}
	.st96{fill:#F6E6E8;}
	.st97{fill:#5C2A2A;}
	.st98{fill:#F7991F;}
	.st99{fill:#F7CC55;}
	.st100{fill:#F7E8DD;}
	.st101{fill:#F8DA02;}
	.st102{fill:#F8E37F;}
	.st103{fill:#F8F0E9;}
	.st104{fill:#F9A65C;}
	.st105{fill:#F9C74F;}
	.st106{fill:#F9C900;}
	.st107{fill:#F9CE82;}
	.st108{fill:#F9ECE0;}
	.st109{fill:#F9ECE4;}
	.st110{fill:#F9EDE4;}
	.st111{clip-path:url(#SVGID_2_);}
	.st112{clip-path:url(#SVGID_4_);}
	.st113{clip-path:url(#SVGID_6_);}
	.st114{clip-path:url(#SVGID_8_);}
	.st115{fill:#C13B3B;}
	.st116{fill:#C16028;}
	.st117{fill:#925A25;}
	.st118{fill:#C35328;}
	.st119{fill:#C42126;}
	.st120{fill:#952E25;}
	.st121{fill:#C4BEBA;}
	.st122{fill:#95C83D;}
	.st123{fill:#C6C3C2;}
	.st124{fill:#2CAEA1;}
	.st125{fill:#989897;}
	.st126{fill:#99B93C;}
	.st127{fill:#C9C9C9;}
	.st128{fill:#FDD300;}
	.st129{fill:#FDD600;}
	.st130{fill:#FDD842;}
	.st131{fill:#FDE500;}
	.st132{opacity:0.5;}
	.st133{opacity:0.6;}
	.st134{opacity:0.8;}
	.st135{fill:#FFDD4D;}
	.st136{fill:#FFEFAE;}
	.st137{fill:#FFFBF8;}
	.st138{fill:#FFFFFF;}
	.st139{fill:#CA2027;}
	.st140{fill:#CB7129;}
	.st141{fill:#CC3828;}
	.st142{fill:#9E4F23;}
	.st143{fill:#CECFD0;}
	.st144{fill:#CF4827;}
	.st145{fill:#39617D;}
	.st146{fill:#D1BAC0;}
	.st147{fill:#034F6D;}
	.st148{fill:#D2AE73;}
	.st149{fill:#D2B676;}
	.st150{fill:#D62127;}
	.st151{fill:#D62427;}
	.st152{fill:#D6AC60;}
	.st153{fill:#D6D0CC;}
	.st154{fill:#D7C527;}
	.st155{fill:#D7D7D7;}
	.st156{fill:#702313;}
	.st157{clip-path:url(#SVGID_10_);}
	.st158{clip-path:url(#SVGID_12_);}
	.st159{clip-path:url(#SVGID_14_);}
	.st160{clip-path:url(#SVGID_16_);}
	.st161{fill:#A31E22;}
	.st162{fill:#A46A28;}
	.st163{fill:#76692A;}
	.st164{fill:#DA1F26;}
	.st165{fill:#DB2F2C;}
	.st166{fill:#DBD0A1;}
	.st167{fill:#DBDDDC;}
	.st168{fill:#A81E22;}
	.st169{fill:#796027;}
	.st170{fill:#DC965F;}
	.st171{fill:#DD9328;}
	.st172{fill:#DD9454;}
	.st173{fill:#DDC97D;}
	.st174{fill:#DDDFE0;}
	.st175{fill:#DDE077;}
	.st176{fill:#DFE0E1;}
]]>
</style>
<g>
	<g>
		<g>
			<g>
				<g>
					<g>
						<circle class="st34" cx="68.416" cy="68.418" r="63.333"/>
					</g>
				</g>
			</g>
		</g>
	</g>
	<g>
		<g>
			<g>
				<g>
					<path class="st73" d="M105.329,71.6c-0.35,17.246-17.133,28.336-37.545,27.92c-20.408-0.414-36.721-12.184-36.371-29.428
						c0.32-15.583,11.553-28.281,29.27-30.26c1.887-0.212,6.502,0.709,8.465,0.751c1.748,0.034,5.867-0.733,7.545-0.503
						C94.626,42.56,105.651,55.834,105.329,71.6z"/>
				</g>
			</g>
			<g>
				<g>
					<path class="st92" d="M103.888,70.936c-0.34,16.522-16.42,27.154-35.979,26.754c-19.561-0.4-35.193-11.672-34.855-28.2
						c0.309-14.935,11.07-27.103,28.049-28.999c1.805-0.199,6.23,0.686,8.111,0.723c1.674,0.034,5.625-0.704,7.227-0.484
						C93.63,43.108,104.194,55.821,103.888,70.936z"/>
				</g>
			</g>
			<g>
				<g>
					<path class="st104" d="M78.964,54.953c-0.012,0.563-0.477,1.006-1.041,0.994c-0.561-0.006-1.01-0.473-0.996-1.031
						c0.008-0.567,0.475-1.015,1.039-0.999C78.526,53.926,78.974,54.392,78.964,54.953z"/>
				</g>
			</g>
			<g>
				<g>
					<path class="st104" d="M89.187,65.348c-0.014,0.696-0.598,1.258-1.301,1.24c-0.699-0.015-1.26-0.594-1.246-1.297
						c0.014-0.701,0.598-1.258,1.297-1.245C88.644,64.061,89.2,64.641,89.187,65.348z"/>
				</g>
			</g>
			<g>
				<g>
					<path class="st104" d="M49.708,84.087c-0.014,0.701-0.596,1.257-1.301,1.243c-0.701-0.014-1.258-0.595-1.242-1.294
						c0.014-0.704,0.598-1.263,1.293-1.245C49.163,82.803,49.722,83.386,49.708,84.087z"/>
				</g>
			</g>
			<g>
				<g>
					<path class="st104" d="M57.392,66.734c-0.012,0.699-0.594,1.258-1.297,1.244c-0.703-0.016-1.26-0.596-1.248-1.295
						c0.018-0.707,0.596-1.264,1.297-1.248S57.405,66.031,57.392,66.734z"/>
				</g>
			</g>
			<g>
				<g>
					<path class="st104" d="M77.431,82.82c-0.014,0.701-0.596,1.259-1.299,1.244c-0.701-0.015-1.26-0.598-1.244-1.293
						c0.014-0.707,0.592-1.262,1.297-1.249S77.446,82.119,77.431,82.82z"/>
				</g>
			</g>
			<g>
				<g>
					<path class="st104" d="M73.446,68.486c-0.014,0.698-0.596,1.258-1.303,1.244c-0.701-0.016-1.26-0.598-1.246-1.295
						c0.02-0.705,0.598-1.265,1.299-1.249C72.903,67.201,73.458,67.781,73.446,68.486z"/>
				</g>
			</g>
			<g>
				<g>
					<path class="st104" d="M54.636,52.22c-0.014,0.7-0.596,1.257-1.297,1.245c-0.701-0.016-1.26-0.598-1.246-1.299
						s0.596-1.262,1.293-1.244C54.093,50.936,54.647,51.516,54.636,52.22z"/>
				</g>
			</g>
			<g>
				<g>
					<path class="st104" d="M45.083,71.371c-0.016,0.697-0.6,1.257-1.301,1.242c-0.703-0.016-1.26-0.594-1.246-1.295
						c0.014-0.704,0.596-1.264,1.297-1.25C44.536,70.086,45.095,70.668,45.083,71.371z"/>
				</g>
			</g>
			<g>
				<g>
					<path class="st104" d="M61.235,78.215c-0.014,0.697-0.596,1.256-1.303,1.244c-0.701-0.018-1.26-0.598-1.242-1.297
						c0.012-0.702,0.596-1.264,1.299-1.248C60.692,76.931,61.247,77.51,61.235,78.215z"/>
				</g>
			</g>
			<g>
				<g>
					<path class="st104" d="M62.806,90.872c-0.014,0.698-0.596,1.257-1.297,1.241c-0.705-0.014-1.262-0.596-1.248-1.295
						c0.014-0.703,0.596-1.26,1.301-1.246C62.261,89.586,62.821,90.168,62.806,90.872z"/>
				</g>
			</g>
			<g>
				<g>
					<path class="st104" d="M66.688,57.757c-0.012,0.699-0.598,1.256-1.301,1.242c-0.699-0.013-1.26-0.597-1.244-1.294
						c0.014-0.705,0.598-1.262,1.297-1.247C66.146,56.472,66.702,57.055,66.688,57.757z"/>
				</g>
			</g>
			<g>
				<g>
					<path class="st104" d="M91.804,76.805c-0.014,0.697-0.594,1.256-1.297,1.24c-0.701-0.014-1.26-0.598-1.246-1.294
						c0.016-0.704,0.594-1.263,1.297-1.249S91.819,76.1,91.804,76.805z"/>
				</g>
			</g>
			<g>
				<g>
					<path class="st104" d="M85.409,90.926c-0.014,0.699-0.598,1.256-1.301,1.242c-0.701-0.014-1.26-0.598-1.244-1.293
						c0.014-0.705,0.598-1.262,1.297-1.25C84.864,89.638,85.423,90.223,85.409,90.926z"/>
				</g>
			</g>
			<g>
				<g>
					<path class="st104" d="M90.903,50.924c-0.014,0.699-0.596,1.258-1.299,1.242c-0.699-0.013-1.26-0.596-1.246-1.293
						c0.016-0.705,0.598-1.264,1.299-1.248C90.36,49.639,90.917,50.221,90.903,50.924z"/>
				</g>
			</g>
			<g>
				<g>
					<path class="st104" d="M65.815,70.773c-0.01,0.557-0.475,1.005-1.039,0.995c-0.564-0.012-1.012-0.478-0.998-1.038
						c0.012-0.561,0.477-1.008,1.037-0.998C65.38,69.744,65.823,70.21,65.815,70.773z"/>
				</g>
			</g>
			<g>
				<g>
					<path class="st104" d="M45.075,59.15c-0.008,0.559-0.473,1.006-1.039,0.995c-0.561-0.017-1.008-0.479-0.996-1.038
						c0.012-0.564,0.479-1.012,1.039-0.996C44.644,58.121,45.087,58.586,45.075,59.15z"/>
				</g>
			</g>
			<g>
				<g>
					<path class="st104" d="M74.315,93.139c-0.01,0.563-0.473,1.008-1.039,0.996c-0.561-0.012-1.012-0.477-0.998-1.037
						c0.012-0.561,0.477-1.01,1.041-0.998C73.88,92.111,74.327,92.574,74.315,93.139z"/>
				</g>
			</g>
			<g>
				<g>
					<path class="st104" d="M92.206,84.545c-0.014,0.561-0.477,1.007-1.037,0.994c-0.564-0.014-1.008-0.477-0.998-1.034
						c0.01-0.565,0.473-1.011,1.039-1.001C91.771,83.518,92.22,83.98,92.206,84.545z"/>
				</g>
			</g>
			<g>
				<g>
					<path class="st104" d="M82.271,72.531c-0.01,0.563-0.477,1.007-1.039,0.996c-0.561-0.01-1.008-0.477-0.998-1.034
						c0.014-0.563,0.477-1.012,1.043-1.001C81.837,71.506,82.284,71.969,82.271,72.531z"/>
				</g>
			</g>
			<g>
				<g>
					<path class="st104" d="M101.774,64.783c-0.016,0.564-0.48,1.009-1.043,0.996c-0.561-0.008-1.008-0.475-0.998-1.035
						c0.016-0.564,0.477-1.009,1.043-0.994C101.339,63.757,101.784,64.225,101.774,64.783z"/>
				</g>
			</g>
			<g>
				<g>
					<path class="st104" d="M37.757,78.752c-0.014,0.559-0.479,1.004-1.043,0.995c-0.561-0.011-1.008-0.475-0.996-1.038
						c0.012-0.561,0.475-1.01,1.041-0.998C37.321,77.726,37.769,78.191,37.757,78.752z"/>
				</g>
			</g>
			<g>
				<g>
					<path class="st104" d="M67.556,45.354c-0.012,0.562-0.475,1.009-1.039,0.994c-0.563-0.013-1.01-0.478-1-1.034
						c0.012-0.564,0.477-1.01,1.041-1C67.118,44.324,67.565,44.791,67.556,45.354z"/>
				</g>
			</g>
		</g>
		<g>
			<g>
				<g>
					<path class="st73" d="M60.966,56.436c-1.41-11.693,15.654-16.169,16.383-16.354l0.246,0.969
						c-0.17,0.043-16.941,4.443-15.635,15.265L60.966,56.436z"/>
				</g>
			</g>
		</g>
		<g>
			<g>
				<path class="st5" d="M73.329,41.6c-0.008,0.492-1.066,0.751-2.004,1.035c-0.77,0.227-1.314,0.529-2.408,0.503
					c-0.904-0.017-1.531-0.464-2.225-0.655c-1.156-0.313-2.125-0.499-2.111-1.063c0.008-0.52,0.725-0.701,1.748-0.982
					c0.752-0.202,1.686-0.319,2.705-0.298c0.904,0.02,1.531,0.314,2.23,0.506C72.423,40.956,73.339,41.041,73.329,41.6z"/>
			</g>
		</g>
	</g>
</g>
</svg>
