<?xml version="1.0" encoding="utf-8"?>
<!-- Generator: Adobe Illustrator 16.0.0, SVG Export Plug-In . SVG Version: 6.00 Build 0)  -->
<!DOCTYPE svg PUBLIC "-//W3C//DTD SVG 1.1//EN" "http://www.w3.org/Graphics/SVG/1.1/DTD/svg11.dtd">
<svg version="1.1" id="Layer_1" xmlns="http://www.w3.org/2000/svg" xmlns:xlink="http://www.w3.org/1999/xlink" x="0px" y="0px"
	 width="136.833px" height="136.834px" viewBox="0 0 136.833 136.834" style="enable-background:new 0 0 136.833 136.834;"
	 xml:space="preserve">
<style type="text/css">
<![CDATA[
	.st0{fill:#7A430B;}
	.st1{fill:#AA9A83;}
	.st2{fill:#AC4736;}
	.st3{fill:#499544;}
	.st4{fill:#7D3719;}
	.st5{fill:#AD842D;}
	.st6{fill:#AE8032;}
	.st7{fill:#AF5E27;}
	.st8{fill:#E0A925;}
	.st9{fill:#E0E0E0;}
	.st10{fill:#E1544A;}
	.st11{fill:#E1B623;}
	.st12{fill:#E37926;}
	.st13{fill:#E3DFC6;}
	.st14{fill:#E3E4E5;}
	.st15{fill:#E48225;}
	.st16{fill:#E4C88F;}
	.st17{fill:#E54526;}
	.st18{fill:#E55126;}
	.st19{fill:#4ABC96;}
	.st20{fill:#E5DBCF;}
	.st21{fill:#184166;}
	.st22{fill:#196935;}
	.st23{fill:#4D8741;}
	.st24{fill:#E89C23;}
	.st25{fill:#E8DADD;}
	.st26{fill:#E8EAEB;}
	.st27{fill:#E92C25;}
	.st28{fill:#E9683B;}
	.st29{fill:#E98F23;}
	.st30{fill:#E99323;}
	.st31{fill:#E9B14D;}
	.st32{fill:#E9D8CB;}
	.st33{fill:#E9EEEE;}
	.st34{fill:#B1C635;}
	.st35{fill:#B21F24;}
	.st36{opacity:0.25;}
	.st37{fill:#83B041;}
	.st38{fill:#846A35;}
	.st39{fill:#B3BB35;}
	.st40{fill:#85983A;}
	.st41{fill:#864F4F;}
	.st42{fill:#EA9F3C;}
	.st43{fill:#EAAE7A;}
	.st44{fill:#EAD760;}
	.st45{fill:#B73535;}
	.st46{fill:#B7567D;}
	.st47{fill:#B79051;}
	.st48{fill:#EB7623;}
	.st49{fill:#EB8123;}
	.st50{fill:#EB9682;}
	.st51{fill:#EB9C22;}
	.st52{fill:#1D9E49;}
	.st53{fill:#B88B3B;}
	.st54{fill:#B88C33;}
	.st55{fill:#EC1C24;}
	.st56{fill:#EC2224;}
	.st57{fill:#ECDE7A;}
	.st58{fill:#EDC92C;}
	.st59{fill:#EDEDED;}
	.st60{fill:#EEB760;}
	.st61{fill:#EEE26F;}
	.st62{fill:#EFCF8A;}
	.st63{fill:#EFCFA7;}
	.st64{fill:#EFEFEF;}
	.st65{fill:#EFF2F1;}
	.st66{fill:#543D18;}
	.st67{fill:#568D4D;}
	.st68{fill:#8B5122;}
	.st69{fill:#8BC53F;}
	.st70{fill:#BB6828;}
	.st71{fill:#BB9E70;}
	.st72{fill:#BDDA83;}
	.st73{fill:#BE6328;}
	.st74{fill:#8F8547;}
	.st75{fill:#F0A91E;}
	.st76{fill:#F0B234;}
	.st77{fill:#F1CE6A;}
	.st78{fill:#F1CF13;}
	.st79{fill:#F1E2A3;}
	.st80{fill:#F2BA2C;}
	.st81{fill:#F2CF3B;}
	.st82{fill:#F2E78A;}
	.st83{fill:#F2ECC6;}
	.st84{fill:#F37C2A;}
	.st85{fill:#F3B022;}
	.st86{fill:#F3C121;}
	.st87{fill:#F3C480;}
	.st88{fill:#F3E4CE;}
	.st89{fill:#F4BD1C;}
	.st90{fill:#F4CE9D;}
	.st91{fill:#264E6E;}
	.st92{fill:#F58721;}
	.st93{fill:#F5D1AF;}
	.st94{fill:#F5E11C;}
	.st95{fill:#F69220;}
	.st96{fill:#F6E6E8;}
	.st97{fill:#5C2A2A;}
	.st98{fill:#F7991F;}
	.st99{fill:#F7CC55;}
	.st100{fill:#F7E8DD;}
	.st101{fill:#F8DA02;}
	.st102{fill:#F8E37F;}
	.st103{fill:#F8F0E9;}
	.st104{fill:#F9A65C;}
	.st105{fill:#F9C74F;}
	.st106{fill:#F9C900;}
	.st107{fill:#F9CE82;}
	.st108{fill:#F9ECE0;}
	.st109{fill:#F9ECE4;}
	.st110{fill:#F9EDE4;}
	.st111{clip-path:url(#SVGID_2_);}
	.st112{clip-path:url(#SVGID_4_);}
	.st113{clip-path:url(#SVGID_6_);}
	.st114{clip-path:url(#SVGID_8_);}
	.st115{fill:#C13B3B;}
	.st116{fill:#C16028;}
	.st117{fill:#925A25;}
	.st118{fill:#C35328;}
	.st119{fill:#C42126;}
	.st120{fill:#952E25;}
	.st121{fill:#C4BEBA;}
	.st122{fill:#95C83D;}
	.st123{fill:#C6C3C2;}
	.st124{fill:#2CAEA1;}
	.st125{fill:#989897;}
	.st126{fill:#99B93C;}
	.st127{fill:#C9C9C9;}
	.st128{fill:#FDD300;}
	.st129{fill:#FDD600;}
	.st130{fill:#FDD842;}
	.st131{fill:#FDE500;}
	.st132{opacity:0.5;}
	.st133{opacity:0.6;}
	.st134{opacity:0.8;}
	.st135{fill:#FFDD4D;}
	.st136{fill:#FFEFAE;}
	.st137{fill:#FFFBF8;}
	.st138{fill:#FFFFFF;}
	.st139{fill:#CA2027;}
	.st140{fill:#CB7129;}
	.st141{fill:#CC3828;}
	.st142{fill:#9E4F23;}
	.st143{fill:#CECFD0;}
	.st144{fill:#CF4827;}
	.st145{fill:#39617D;}
	.st146{fill:#D1BAC0;}
	.st147{fill:#034F6D;}
	.st148{fill:#D2AE73;}
	.st149{fill:#D2B676;}
	.st150{fill:#D62127;}
	.st151{fill:#D62427;}
	.st152{fill:#D6AC60;}
	.st153{fill:#D6D0CC;}
	.st154{fill:#D7C527;}
	.st155{fill:#D7D7D7;}
	.st156{fill:#702313;}
	.st157{clip-path:url(#SVGID_10_);}
	.st158{clip-path:url(#SVGID_12_);}
	.st159{clip-path:url(#SVGID_14_);}
	.st160{clip-path:url(#SVGID_16_);}
	.st161{fill:#A31E22;}
	.st162{fill:#A46A28;}
	.st163{fill:#76692A;}
	.st164{fill:#DA1F26;}
	.st165{fill:#DB2F2C;}
	.st166{fill:#DBD0A1;}
	.st167{fill:#DBDDDC;}
	.st168{fill:#A81E22;}
	.st169{fill:#796027;}
	.st170{fill:#DC965F;}
	.st171{fill:#DD9328;}
	.st172{fill:#DD9454;}
	.st173{fill:#DDC97D;}
	.st174{fill:#DDDFE0;}
	.st175{fill:#DDE077;}
	.st176{fill:#DFE0E1;}
]]>
</style>
<g>
	<g>
		<g>
			<g>
				<g>
					<g>
						<circle class="st19" cx="68.417" cy="68.417" r="63.333"/>
					</g>
				</g>
			</g>
		</g>
	</g>
	<g>
		<g>
			<g>
				<g>
					<g>
						<path class="st32" d="M124.78,74.723c0,2.563-19.406,7.553-55.287,7.553c-35.883,0-57.246-4.99-57.246-7.553
							c0-2.563,21.363-1.728,57.246-1.728C105.374,72.996,124.78,72.16,124.78,74.723z"/>
					</g>
				</g>
			</g>
			<g>
				<g>
					<g>
						<path class="st100" d="M124.78,74.833c0,2.563-19.406,10.719-55.287,10.719c-35.883,0-57.246-8.155-57.246-10.719
							c0-0.11,20.802,4.004,56.685,4.004C104.813,78.837,124.78,74.833,124.78,74.833z"/>
					</g>
				</g>
			</g>
			<g>
				<g>
					<g>
						<path class="st100" d="M35.084,84.904c0-3.397,9.215-3.883,34.453-3.883c25.237,0,34.361,0.972,34.361,3.883
							c0,1.359-15.404,1.699-34.406,1.699C50.49,86.603,35.084,86.263,35.084,84.904z"/>
					</g>
				</g>
			</g>
		</g>
		<g>
			<g>
				<g>
					<path class="st31" d="M54.999,77.533c-5.945,0-11.461-2.231-14.049-5.684c-0.624-0.832-0.771-1.818-0.4-2.707
						c1.025-2.455,6.203-3.516,9.197-3.929c0.906-0.126,1.729,0.505,1.853,1.403c0.124,0.898-0.503,1.729-1.401,1.854
						c-2.605,0.359-5.348,1.135-6.338,1.752c1.806,2.061,5.818,4.023,11.139,4.023c14.109,0,16.068-1.799,16.24-1.994
						c0.334-0.82,1.266-1.229,2.098-0.918c0.849,0.319,1.279,1.266,0.961,2.116C73.542,75.468,70.657,77.533,54.999,77.533z"/>
				</g>
			</g>
		</g>
		<g>
			<g>
				<g>
					<path class="st60" d="M68.774,79.543c-7.874,0-15.123-3.923-18.473-9.995c-0.698-1.264-0.759-2.584-0.179-3.817
						c1.836-3.89,10.005-5.602,11.624-5.905c0.892-0.168,1.751,0.42,1.918,1.312c0.168,0.893-0.419,1.751-1.311,1.919
						c-3.248,0.611-8.437,2.331-9.259,4.078c-0.087,0.184-0.151,0.4,0.084,0.826c2.11,3.828,7.462,8.296,15.595,8.296
						c15.496,0,21.629-2.306,22.173-4.28c0.242-0.874,1.144-1.387,2.021-1.146c0.876,0.241,1.389,1.146,1.148,2.021
						C93.66,74.505,92.269,79.543,68.774,79.543z"/>
				</g>
			</g>
		</g>
		<g>
			<g>
				<g>
					<path class="st31" d="M27.995,76.888c-2.647,0-3.31-0.262-4.805-2.311c-0.132-0.181-0.28-0.383-0.448-0.607
						c-0.488-0.651-0.619-1.441-0.37-2.225c1.015-3.168,10.698-6.674,16.379-8.481c0.861-0.274,1.79,0.202,2.064,1.067
						c0.275,0.865-0.203,1.789-1.068,2.064c-6.499,2.069-12.567,4.731-14.007,6.1c0.035,0.049,0.07,0.098,0.104,0.146
						c0.275,0.378,0.589,0.807,0.701,0.876c0.216,0.104,1.292,0.091,2.426,0.076c0.619-0.008,1.354-0.018,2.233-0.018
						c14.112,0,16.069-1.8,16.241-1.994c0.334-0.82,1.266-1.229,2.098-0.918c0.85,0.319,1.279,1.266,0.961,2.116
						c-0.755,2.019-3.641,4.083-19.3,4.083c-0.863,0-1.584,0.01-2.19,0.017C28.643,76.884,28.304,76.888,27.995,76.888z"/>
				</g>
			</g>
		</g>
		<g>
			<g>
				<g>
					<path class="st60" d="M44.982,78.873c-7.876,0-15.127-3.923-18.474-9.994c-0.433-0.783-0.404-1.674,0.075-2.382
						c0.767-1.134,2.05-3.031,26.487-1.005c11.638,0.965,23.127,2.385,23.242,2.398c0.9,0.112,1.54,0.934,1.428,1.834
						c-0.11,0.9-0.93,1.544-1.832,1.429c-2.053-0.255-4.124-0.501-6.198-0.735c0.535,0.391,0.799,1.086,0.612,1.762
						C69.867,73.835,68.477,78.873,44.982,78.873z M29.958,68.224c2.417,3.583,7.543,7.361,15.024,7.361
						c15.495,0,21.628-2.306,22.172-4.279c0.139-0.499,0.49-0.88,0.931-1.071C50.992,68.345,34.263,67.244,29.958,68.224z"/>
				</g>
			</g>
		</g>
		<g>
			<g>
				<g>
					<path class="st87" d="M45.149,80.884c-7.875,0-15.124-3.924-18.474-9.994c-0.432-0.784-0.404-1.676,0.075-2.383
						c0.768-1.133,2.053-3.031,26.487-1.004c11.639,0.963,23.129,2.385,23.243,2.398c0.9,0.111,1.54,0.933,1.428,1.834
						c-0.11,0.9-0.93,1.541-1.832,1.428c-2.052-0.254-4.126-0.5-6.2-0.736c0.535,0.393,0.8,1.087,0.613,1.764
						C70.034,75.845,68.644,80.884,45.149,80.884z M30.125,70.236c2.417,3.583,7.544,7.361,15.024,7.361
						c15.495,0,21.628-2.307,22.173-4.28c0.137-0.499,0.489-0.88,0.93-1.071C51.159,70.356,34.428,69.255,30.125,70.236z"/>
				</g>
			</g>
		</g>
		<g>
			<g>
				<g>
					<path class="st87" d="M72.993,74.183c-3.82,0-9.268-0.25-17.084-0.9c-11.638-0.969-23.127-2.395-23.241-2.408
						c-0.901-0.112-1.54-0.934-1.428-1.834c0.111-0.9,0.931-1.543,1.833-1.428c2.052,0.256,4.123,0.502,6.197,0.738
						c-0.534-0.393-0.799-1.087-0.611-1.763c0.457-1.653,1.849-6.684,25.279-6.684c0.022,0,0.043,0,0.065,0
						c7.873,0.003,15.123,3.929,18.469,10.001c0.433,0.784,0.403,1.675-0.075,2.383C81.875,73.058,81.113,74.183,72.993,74.183z
						 M40.896,68.533c17.092,1.896,33.82,3.004,38.126,2.026c-2.415-3.584-7.539-7.364-15.02-7.368c-0.02,0-0.042,0-0.062,0
						c-15.452,0-21.57,2.301-22.114,4.272C41.689,67.96,41.335,68.341,40.896,68.533z"/>
				</g>
			</g>
		</g>
		<g>
			<g>
				<g>
					<path class="st87" d="M100.137,76.863c-3.82,0-9.269-0.249-17.084-0.898c-11.638-0.97-23.127-2.395-23.241-2.409
						c-0.901-0.112-1.54-0.934-1.428-1.835c0.111-0.898,0.93-1.539,1.833-1.427c2.05,0.256,4.123,0.503,6.196,0.737
						c-0.534-0.391-0.798-1.085-0.611-1.762c0.457-1.653,1.85-6.684,25.293-6.684c0.019,0,0.034,0,0.053,0
						c7.873,0.004,15.123,3.93,18.468,10.001c0.434,0.784,0.404,1.675-0.075,2.382C109.019,75.74,108.257,76.863,100.137,76.863z
						 M68.042,71.214c17.089,1.896,33.82,3.004,38.125,2.025c-2.417-3.584-7.54-7.365-15.02-7.367c-0.017,0-0.035,0-0.051,0
						c-15.459,0-21.581,2.301-22.125,4.271C68.833,70.642,68.481,71.023,68.042,71.214z"/>
				</g>
			</g>
		</g>
		<g>
			<g>
				<g>
					<path class="st90" d="M89.576,74.685c-3.819,0-9.264-0.248-17.081-0.9c-11.637-0.968-23.126-2.393-23.239-2.406
						c-0.901-0.113-1.542-0.934-1.428-1.835c0.111-0.9,0.93-1.536,1.832-1.428c2.052,0.256,4.126,0.503,6.2,0.739
						c-0.535-0.393-0.8-1.088-0.612-1.764c0.456-1.654,1.849-6.684,25.278-6.684c0.023,0,0.042,0,0.065,0
						c7.874,0.003,15.123,3.928,18.469,9.999c0.432,0.784,0.402,1.675-0.075,2.382C98.461,73.56,97.699,74.685,89.576,74.685z
						 M57.483,69.037c17.095,1.896,33.823,3.002,38.127,2.023c-2.415-3.584-7.539-7.363-15.02-7.365c-0.021,0-0.043,0-0.063,0
						c-15.451,0-21.568,2.299-22.113,4.271C58.278,68.464,57.923,68.845,57.483,69.037z"/>
				</g>
			</g>
		</g>
		<g>
			<g>
				<g>
					<path class="st62" d="M96.111,74.852c-3.818,0-9.265-0.248-17.08-0.898c-11.638-0.97-23.126-2.395-23.241-2.409
						c-0.9-0.111-1.54-0.932-1.428-1.833c0.113-0.9,0.933-1.539,1.834-1.428c2.051,0.255,4.126,0.502,6.199,0.738
						c-0.534-0.392-0.801-1.087-0.613-1.763c0.457-1.654,1.85-6.684,25.279-6.684c0.022,0,0.042,0,0.065,0
						c7.873,0.002,15.123,3.928,18.468,10c0.434,0.784,0.404,1.675-0.076,2.383C104.997,73.728,104.236,74.852,96.111,74.852z
						 M64.018,69.205c17.095,1.896,33.824,3.003,38.127,2.023c-2.415-3.583-7.54-7.363-15.02-7.366c-0.021,0-0.043,0-0.063,0
						c-15.451,0-21.568,2.3-22.112,4.271C64.813,68.632,64.459,69.013,64.018,69.205z"/>
				</g>
			</g>
		</g>
		<g>
			<g>
				<g>
					<path class="st62" d="M101.987,75.699c-3.761,0-9.069-0.168-16.603-0.58c-11.779-0.646-23.545-1.617-23.663-1.627
						c-0.904-0.075-1.577-0.869-1.503-1.773c0.075-0.904,0.869-1.572,1.773-1.502c1.86,0.154,3.738,0.304,5.618,0.447
						c-0.052-0.299-0.022-0.615,0.102-0.914c0.579-1.393,1.935-4.65,25.198-4.65c0.026,0,0.053,0,0.079,0
						c7.755,0.003,14.935,2.625,18.296,6.678c0.527,0.636,0.63,1.464,0.266,2.16C111.097,74.808,110.629,75.699,101.987,75.699z
						 M70.853,70.905c15.56,1.128,30.603,1.802,36.177,1.38c-2.875-2.115-7.813-3.896-14.042-3.899c-0.024,0-0.054,0-0.077,0
						C74.9,68.385,71.451,70.375,70.853,70.905z"/>
				</g>
			</g>
		</g>
		<g>
			<g>
				<g>
					<path class="st62" d="M54.357,76.349c-10.479,0-19.881-1.924-24.657-5.148c-0.902-0.609-1.006-1.525-0.821-2.125
						c0.491-1.594,0.878-2.852,40.808-3.406c19.16-0.268,38.465-0.198,38.659-0.197c0.906,0.004,1.641,0.742,1.637,1.648
						c-0.003,0.906-0.739,1.637-1.644,1.637c-0.001,0-0.003,0-0.007,0c-3.2-0.012-6.637-0.016-10.214-0.012
						c0.1,0.414,0.043,0.865-0.193,1.256c-0.813,1.349-2.717,4.507-39.469,6.25C57.077,76.318,55.708,76.349,54.357,76.349z
						 M35.001,70.188c5.001,1.893,13.188,3.26,23.299,2.782c26.556-1.262,34.003-3.248,36.085-4.218
						C71.722,68.814,44.785,69.214,35.001,70.188z"/>
				</g>
			</g>
		</g>
		<g>
			<g>
				<g>
					<path class="st90" d="M33.25,77.402c-3.477,0-7.089-2.842-9.333-7.502c-0.469-0.973-0.417-1.984,0.143-2.85
						c2.289-3.535,15.288-3.569,20.771-3.42c0.905,0.024,1.623,0.779,1.597,1.688c-0.023,0.892-0.754,1.598-1.642,1.598
						c-0.014,0-0.03,0-0.046,0c-0.417-0.012-0.835-0.02-1.251-0.026c0.287,0.258,0.484,0.616,0.533,1.029
						c0.309,2.593-0.496,7.251-9.356,9.322C34.2,77.349,33.726,77.402,33.25,77.402z M26.982,68.685
						c1.848,3.693,4.675,5.885,6.935,5.355c3.34-0.781,7.238-2.409,6.841-5.734c-0.065-0.555,0.154-1.08,0.544-1.424
						C34.422,66.931,28.316,67.675,26.982,68.685z"/>
				</g>
			</g>
		</g>
		<g>
			<g>
				<g>
					<path class="st90" d="M50.459,76.212c-5.047,0-12.49-1.94-16.234-3.02c-0.872-0.25-1.376-1.16-1.124-2.033
						c0.249-0.871,1.162-1.375,2.033-1.125c0.401,0.116,0.805,0.229,1.208,0.34c-0.261-0.322-0.401-0.742-0.359-1.187
						c0.243-2.599,2.01-6.985,11.105-7.146c4.549-0.055,7.457,5.256,8.669,10.277c0.253,1.049-0.022,2.055-0.757,2.758
						C54.148,75.896,52.5,76.212,50.459,76.212z M38.222,70.871c6.573,1.668,12.636,2.512,14.271,1.941
						c-1.117-4.372-3.321-7.484-5.311-7.484c-0.012,0-0.023,0.001-0.034,0.001c-3.429,0.061-7.582,0.833-7.892,4.165
						C39.195,70.132,38.779,70.65,38.222,70.871z"/>
				</g>
			</g>
		</g>
		<g>
			<g>
				<g>
					<path class="st90" d="M78.521,73.87c-1.313,0-2.729-0.013-4.263-0.038c-0.908-0.016-1.631-0.764-1.615-1.672
						c0.015-0.907,0.782-1.639,1.672-1.615c0.375,0.008,0.755,0.013,1.136,0.016c0.001-0.002,0.001-0.004,0.001-0.006
						c0.241-2.797,3.598-4.538,10.563-5.482c3.558-0.48,7.107,1.225,9.045,4.346c0.399,0.645,0.421,1.413,0.055,2.058
						C94.694,72.214,93.753,73.87,78.521,73.87z M87.24,68.275c-0.255,0-0.517,0.018-0.784,0.055
						c-5.077,0.688-6.988,1.717-7.542,2.236c5.027-0.035,9.918-0.265,12.305-0.678C90.25,68.989,88.885,68.275,87.24,68.275z"/>
				</g>
			</g>
		</g>
		<g>
			<g>
				<g>
					<path class="st31" d="M70.414,74.851c-5.945,0-11.459-2.23-14.048-5.684c-0.624-0.832-0.771-1.818-0.4-2.705
						c1.022-2.457,6.203-3.517,9.197-3.93c0.902-0.125,1.727,0.504,1.853,1.402c0.124,0.898-0.503,1.729-1.402,1.854
						c-2.604,0.36-5.347,1.136-6.338,1.752c1.807,2.062,5.819,4.024,11.139,4.024c14.108,0,16.068-1.799,16.24-1.995
						c0.335-0.819,1.266-1.229,2.098-0.916c0.85,0.318,1.28,1.266,0.962,2.115C88.957,72.789,86.073,74.851,70.414,74.851z"/>
				</g>
			</g>
		</g>
		<g>
			<g>
				<g>
					<path class="st60" d="M84.188,76.863c-7.873,0-15.124-3.923-18.473-9.994c-1.014-1.84-0.529-2.902,0.059-3.471
						c0.691-0.671,2.135-2.065,11.848,3.706c0.779,0.464,1.036,1.472,0.572,2.252c-0.463,0.78-1.471,1.038-2.253,0.573
						c-2.359-1.4-4.815-2.645-6.505-3.329c2.518,3.464,7.541,6.976,14.752,6.976c15.495,0,21.63-2.306,22.174-4.279
						c0.24-0.875,1.144-1.391,2.021-1.148c0.876,0.242,1.389,1.146,1.146,2.021C109.074,71.825,107.685,76.863,84.188,76.863z"/>
				</g>
			</g>
		</g>
		<g>
			<g>
				<g>
					<path class="st31" d="M46.622,74.181c-5.946,0-11.461-2.23-14.049-5.684c-0.624-0.832-0.771-1.818-0.4-2.707
						c1.023-2.456,6.203-3.516,9.197-3.93c0.907-0.125,1.728,0.506,1.853,1.404c0.124,0.898-0.503,1.728-1.402,1.853
						c-2.604,0.36-5.349,1.136-6.337,1.753c1.805,2.061,5.817,4.023,11.139,4.023c14.11,0,16.068-1.799,16.238-1.994
						c0.335-0.82,1.264-1.229,2.097-0.918c0.852,0.319,1.282,1.266,0.964,2.115C65.164,72.117,62.28,74.181,46.622,74.181z"/>
				</g>
			</g>
		</g>
		<g>
			<g>
				<g>
					<path class="st60" d="M60.395,76.193c-7.872,0-15.124-3.924-18.473-9.995c-0.835-1.515-0.202-2.56,0.109-2.938
						c0.897-1.091,2.722-2.042,13.088,0.514c5.108,1.26,10.046,2.827,10.096,2.844c0.865,0.275,1.342,1.199,1.066,2.064
						s-1.201,1.34-2.063,1.066c-7.203-2.293-15.706-4.354-18.853-4.354c-0.031,0-0.062,0-0.093,0
						c2.374,3.627,7.538,7.512,15.122,7.512c15.495,0,21.631-2.307,22.175-4.281c0.24-0.875,1.144-1.387,2.021-1.146
						c0.875,0.241,1.388,1.146,1.146,2.021C85.281,71.155,83.891,76.193,60.395,76.193z"/>
				</g>
			</g>
		</g>
		<g>
			<g>
				<g>
					<path class="st60" d="M104.46,77.416c-3.817,0-9.255-0.246-17.049-0.893c-11.638-0.965-23.129-2.386-23.242-2.399
						c-0.9-0.112-1.542-0.933-1.429-1.833c0.111-0.901,0.933-1.541,1.833-1.429c2.051,0.254,4.125,0.501,6.198,0.735
						c-0.535-0.391-0.799-1.086-0.612-1.763c0.455-1.655,1.846-6.692,25.341-6.692c7.873,0,15.125,3.922,18.474,9.994
						c0.432,0.783,0.405,1.674-0.075,2.381C113.375,76.29,112.613,77.416,104.46,77.416z M72.397,71.779
						c17.093,1.89,33.821,2.992,38.128,2.012c-2.418-3.584-7.545-7.362-15.024-7.362c-15.495,0-21.628,2.306-22.173,4.28
						C73.191,71.207,72.838,71.587,72.397,71.779z"/>
				</g>
			</g>
		</g>
		<g>
			<g>
				<g>
					<path class="st31" d="M75.093,79.498c-0.81,0-1.513-0.596-1.627-1.419c-0.124-0.899,0.504-1.728,1.403-1.853
						c2.604-0.361,5.347-1.136,6.336-1.753c-1.806-2.061-5.817-4.024-11.139-4.024c-14.111,0-16.068,1.8-16.239,1.996
						c-0.335,0.819-1.263,1.229-2.098,0.916c-0.851-0.319-1.281-1.267-0.962-2.116c0.757-2.019,3.642-4.082,19.299-4.082
						c5.944,0,11.46,2.231,14.05,5.685c0.624,0.832,0.77,1.818,0.399,2.706c-1.024,2.456-6.202,3.517-9.197,3.929
						C75.242,79.492,75.167,79.498,75.093,79.498z"/>
				</g>
			</g>
		</g>
		<g>
			<g>
				<g>
					<path class="st60" d="M73.055,79.264c-1.49,0-4.341-0.875-10.194-4.354c-0.779-0.463-1.037-1.471-0.572-2.252
						c0.464-0.779,1.473-1.037,2.253-0.572c2.358,1.401,4.815,2.645,6.504,3.328c-2.518-3.463-7.541-6.975-14.752-6.975
						c-15.495,0-21.63,2.307-22.175,4.281c-0.241,0.874-1.146,1.387-2.021,1.146c-0.874-0.241-1.388-1.146-1.146-2.021
						c0.457-1.655,1.847-6.693,25.343-6.693c7.874,0,15.125,3.924,18.473,9.995c1.014,1.84,0.527,2.902-0.058,3.47
						C74.433,78.883,74.04,79.264,73.055,79.264z"/>
				</g>
			</g>
		</g>
		<g>
			<g>
				<g>
					<path class="st60" d="M95.119,79.871c-1.888,0-4.876-0.426-9.756-1.629c-5.109-1.26-10.047-2.828-10.096-2.843
						c-0.865-0.275-1.344-1.2-1.067-2.064c0.273-0.865,1.201-1.341,2.063-1.067c7.274,2.314,15.874,4.379,18.945,4.354
						c-2.375-3.627-7.538-7.512-15.122-7.512c-15.495,0-21.63,2.307-22.174,4.281c-0.241,0.873-1.148,1.386-2.021,1.146
						c-0.876-0.241-1.39-1.146-1.148-2.021c0.457-1.654,1.846-6.691,25.343-6.691c7.874,0,15.124,3.922,18.473,9.992
						c0.835,1.515,0.201,2.561-0.109,2.939C97.975,79.333,97.242,79.871,95.119,79.871z"/>
				</g>
			</g>
		</g>
		<g>
			<g>
				<g>
					<path class="st60" d="M60.603,75.689c-0.064,0-0.127-0.004-0.192-0.012c-0.902-0.106-1.548-0.922-1.44-1.824
						c0.2-1.705,0.81-6.895,24.035-10.454c7.781-1.188,15.544,1.588,19.773,7.081c1.055,1.371,0.586,2.5,0.337,2.922
						c-0.72,1.215-2.382,2.431-13.015,1.475c-5.241-0.471-10.358-1.272-10.41-1.28c-0.896-0.142-1.509-0.982-1.366-1.88
						c0.141-0.895,0.979-1.507,1.878-1.367c7.542,1.188,16.36,1.939,19.387,1.434c-2.896-3.226-8.591-6.285-16.086-5.135
						c-15.317,2.348-21.031,5.555-21.27,7.589C62.135,75.073,61.425,75.689,60.603,75.689z"/>
				</g>
			</g>
		</g>
		<g>
			<g>
				<g>
					<path class="st18" d="M40.924,62.486c0,0,23.793-16.086,35.186-12.064c11.395,4.021,21.722,10.189,21.448,12.398
						c-0.272,2.21-0.249,6.291-10.054,5.027c-10.388-1.342-26.993,3.851-39.209,0C45.923,67.099,40.588,65.501,40.924,62.486z"/>
				</g>
			</g>
		</g>
		<g>
			<g>
				<g>
					<path class="st144" d="M40.924,62.486c0,0,23.793-16.086,35.186-12.064c11.395,4.021,21.199,18.689,11.395,17.426
						c-10.388-1.342-26.993,3.851-39.209,0C45.923,67.099,40.588,65.501,40.924,62.486z"/>
				</g>
			</g>
		</g>
		<g>
			<g>
				<g>
					<path class="st118" d="M40.924,62.486c0,0,17.228-11.648,29.385-12.643c2.129-0.175,7.202,18.049,1.331,18.646
						c-7.893,0.802-16.339,1.567-23.345-0.642C45.923,67.099,40.588,65.501,40.924,62.486z"/>
				</g>
			</g>
		</g>
		<g>
			<g>
				<g>
					<path class="st142" d="M93.202,60.356c0,1.743,0.092,2.631-1.689,2.631s-3.226-0.536-3.226-2.281s0.982-2.634,2.765-2.634
						C92.833,58.072,93.202,58.61,93.202,60.356z"/>
				</g>
			</g>
		</g>
		<g>
			<g>
				<g>
					<path class="st142" d="M70.436,54.021c-2.025,0.794-3.014,1.305-3.825-0.764c-0.81-2.067-0.844-3.988,1.184-4.781
						c2.025-0.794,3.502-0.057,4.312,2.011C72.917,52.554,72.461,53.228,70.436,54.021z"/>
				</g>
			</g>
		</g>
		<g>
			<g>
				<g>
					<path class="st142" d="M72.857,60.494c1.379-1.684,1.989-2.612,3.71-1.207c1.719,1.406,2.687,3.064,1.311,4.749
						c-1.378,1.683-3.026,1.765-4.745,0.358C71.413,62.988,71.48,62.179,72.857,60.494z"/>
				</g>
			</g>
		</g>
		<g>
			<g>
				<g>
					<path class="st142" d="M82.686,57.558c-2.026,0.794-3.015,1.304-3.824-0.764c-0.811-2.068-0.845-3.988,1.181-4.781
						c2.027-0.795,3.504-0.058,4.313,2.01C85.167,56.091,84.712,56.765,82.686,57.558z"/>
				</g>
			</g>
		</g>
		<g>
			<g>
				<g>
					<path class="st142" d="M55.597,57.986c-0.76,2.168-1.033,3.313-3.248,2.536s-3.777-2.073-3.016-4.242
						c0.76-2.171,2.368-2.845,4.584-2.068C56.132,54.987,56.356,55.816,55.597,57.986z"/>
				</g>
			</g>
		</g>
		<g>
			<g>
				<g>
					<path class="st142" d="M66.262,63.901c-1.302,1.831-2.127,2.681-4.265,1.163c-2.135-1.52-3.467-3.313-2.165-5.145
						c1.301-1.832,3.238-2.661,5.375-1.143C67.345,60.296,67.564,62.069,66.262,63.901z"/>
				</g>
			</g>
		</g>
		<g>
			<g>
				<g>
					<path class="st23" d="M69.89,56.148c0,0,0.314-5.008,1.364-4.11c1.051,0.896,0.561,1.468,0.561,1.468s1.001-3.105,1.98-3.094
						c0.979,0.013,0.655,1.551,0.655,1.551s0.396-5.104,1.719-4.142c1.322,0.964,0.183,2.3,0.183,2.3s2.427-4.195,2.579-3.408
						c0.15,0.789-0.254,2.422-0.254,2.422s2.186-1.596,2.365-0.453c0.179,1.142-1.273,1.881-1.273,1.881s1.767-0.141,1.483,0.771
						c-0.283,0.913-2.214,1.244-2.214,1.244s1.335,1.139,0.192,1.317c-1.143,0.181-2.542,0.47-2.542,0.47s1.308,0.785,0.208,1.495
						c-1.101,0.711-2.639,0.388-2.639,0.388s2.082,0.459,0.438,1.033s-2.992,0.415-2.992,0.415S68.834,58.546,69.89,56.148z"/>
				</g>
			</g>
		</g>
		<g>
			<g>
				<g>
					<path class="st3" d="M67.219,57.804c0,0-4.86,1.239-4.33-0.035c0.53-1.275,1.225-0.984,1.225-0.984s-3.262,0.002-3.554-0.934
						c-0.288-0.936,1.273-1.102,1.273-1.102s-4.977,1.191-4.467-0.361c0.51-1.555,2.132-0.881,2.132-0.881s-4.737-1.021-4.033-1.406
						c0.703-0.387,2.381-0.503,2.381-0.503s-2.19-1.591-1.158-2.112s2.18,0.635,2.18,0.635s-0.676-1.639,0.28-1.65
						c0.955-0.01,1.862,1.727,1.862,1.727s0.676-1.621,1.196-0.59c0.522,1.032,1.229,2.276,1.229,2.276s0.345-1.485,1.359-0.658
						c1.014,0.831,1.178,2.394,1.178,2.394s-0.204-2.123,0.85-0.734c1.053,1.389,1.313,2.72,1.313,2.72S69.826,58.074,67.219,57.804
						z"/>
				</g>
			</g>
		</g>
		<g>
			<g>
				<g>
					<path class="st67" d="M74.41,49.113c0,0-0.19,5.014-1.262,4.145c-1.072-0.869-0.599-1.453-0.599-1.453s-0.921,3.129-1.9,3.141
						c-0.979,0.014-0.695-1.532-0.695-1.532s-0.269,5.111-1.613,4.182c-1.346-0.93-0.24-2.293-0.24-2.293s-2.319,4.256-2.49,3.471
						c-0.171-0.784,0.192-2.427,0.192-2.427s-2.146,1.65-2.354,0.514c-0.208-1.138,1.227-1.914,1.227-1.914
						s-1.764,0.187-1.503-0.733c0.261-0.919,2.185-1.298,2.185-1.298s-1.366-1.105-0.229-1.313c1.137-0.209,2.529-0.532,2.529-0.532
						s-1.326-0.753-0.244-1.491c1.083-0.738,2.629-0.452,2.629-0.452s-2.094-0.406-0.465-1.023c1.631-0.615,2.981-0.489,2.981-0.489
						S75.404,46.691,74.41,49.113z"/>
				</g>
			</g>
		</g>
	</g>
</g>
</svg>
