<?xml version="1.0" encoding="utf-8"?>
<!-- Generator: Adobe Illustrator 16.0.0, SVG Export Plug-In . SVG Version: 6.00 Build 0)  -->
<!DOCTYPE svg PUBLIC "-//W3C//DTD SVG 1.1//EN" "http://www.w3.org/Graphics/SVG/1.1/DTD/svg11.dtd">
<svg version="1.1" id="Layer_1" xmlns="http://www.w3.org/2000/svg" xmlns:xlink="http://www.w3.org/1999/xlink" x="0px" y="0px"
	 width="136.833px" height="136.833px" viewBox="0 0 136.833 136.833" style="enable-background:new 0 0 136.833 136.833;"
	 xml:space="preserve">
<style type="text/css">
<![CDATA[
	.st0{fill:#7A430B;}
	.st1{fill:#AA9A83;}
	.st2{fill:#AC4736;}
	.st3{fill:#499544;}
	.st4{fill:#7D3719;}
	.st5{fill:#AD842D;}
	.st6{fill:#AE8032;}
	.st7{fill:#AF5E27;}
	.st8{fill:#E0A925;}
	.st9{fill:#E0E0E0;}
	.st10{fill:#E1544A;}
	.st11{fill:#E1B623;}
	.st12{fill:#E37926;}
	.st13{fill:#E3DFC6;}
	.st14{fill:#E3E4E5;}
	.st15{fill:#E48225;}
	.st16{fill:#E4C88F;}
	.st17{fill:#E54526;}
	.st18{fill:#E55126;}
	.st19{fill:#4ABC96;}
	.st20{fill:#E5DBCF;}
	.st21{fill:#184166;}
	.st22{fill:#196935;}
	.st23{fill:#4D8741;}
	.st24{fill:#E89C23;}
	.st25{fill:#E8DADD;}
	.st26{fill:#E8EAEB;}
	.st27{fill:#E92C25;}
	.st28{fill:#E9683B;}
	.st29{fill:#E98F23;}
	.st30{fill:#E99323;}
	.st31{fill:#E9B14D;}
	.st32{fill:#E9D8CB;}
	.st33{fill:#E9EEEE;}
	.st34{fill:#B1C635;}
	.st35{fill:#B21F24;}
	.st36{opacity:0.25;}
	.st37{fill:#83B041;}
	.st38{fill:#846A35;}
	.st39{fill:#B3BB35;}
	.st40{fill:#85983A;}
	.st41{fill:#864F4F;}
	.st42{fill:#EA9F3C;}
	.st43{fill:#EAAE7A;}
	.st44{fill:#EAD760;}
	.st45{fill:#B73535;}
	.st46{fill:#B7567D;}
	.st47{fill:#B79051;}
	.st48{fill:#EB7623;}
	.st49{fill:#EB8123;}
	.st50{fill:#EB9682;}
	.st51{fill:#EB9C22;}
	.st52{fill:#1D9E49;}
	.st53{fill:#B88B3B;}
	.st54{fill:#B88C33;}
	.st55{fill:#EC1C24;}
	.st56{fill:#EC2224;}
	.st57{fill:#ECDE7A;}
	.st58{fill:#EDC92C;}
	.st59{fill:#EDEDED;}
	.st60{fill:#EEB760;}
	.st61{fill:#EEE26F;}
	.st62{fill:#EFCF8A;}
	.st63{fill:#EFCFA7;}
	.st64{fill:#EFEFEF;}
	.st65{fill:#EFF2F1;}
	.st66{fill:#543D18;}
	.st67{fill:#568D4D;}
	.st68{fill:#8B5122;}
	.st69{fill:#8BC53F;}
	.st70{fill:#BB6828;}
	.st71{fill:#BB9E70;}
	.st72{fill:#BDDA83;}
	.st73{fill:#BE6328;}
	.st74{fill:#8F8547;}
	.st75{fill:#F0A91E;}
	.st76{fill:#F0B234;}
	.st77{fill:#F1CE6A;}
	.st78{fill:#F1CF13;}
	.st79{fill:#F1E2A3;}
	.st80{fill:#F2BA2C;}
	.st81{fill:#F2CF3B;}
	.st82{fill:#F2E78A;}
	.st83{fill:#F2ECC6;}
	.st84{fill:#F37C2A;}
	.st85{fill:#F3B022;}
	.st86{fill:#F3C121;}
	.st87{fill:#F3C480;}
	.st88{fill:#F3E4CE;}
	.st89{fill:#F4BD1C;}
	.st90{fill:#F4CE9D;}
	.st91{fill:#264E6E;}
	.st92{fill:#F58721;}
	.st93{fill:#F5D1AF;}
	.st94{fill:#F5E11C;}
	.st95{fill:#F69220;}
	.st96{fill:#F6E6E8;}
	.st97{fill:#5C2A2A;}
	.st98{fill:#F7991F;}
	.st99{fill:#F7CC55;}
	.st100{fill:#F7E8DD;}
	.st101{fill:#F8DA02;}
	.st102{fill:#F8E37F;}
	.st103{fill:#F8F0E9;}
	.st104{fill:#F9A65C;}
	.st105{fill:#F9C74F;}
	.st106{fill:#F9C900;}
	.st107{fill:#F9CE82;}
	.st108{fill:#F9ECE0;}
	.st109{fill:#F9ECE4;}
	.st110{fill:#F9EDE4;}
	.st111{clip-path:url(#SVGID_2_);}
	.st112{clip-path:url(#SVGID_4_);}
	.st113{clip-path:url(#SVGID_6_);}
	.st114{clip-path:url(#SVGID_8_);}
	.st115{fill:#C13B3B;}
	.st116{fill:#C16028;}
	.st117{fill:#925A25;}
	.st118{fill:#C35328;}
	.st119{fill:#C42126;}
	.st120{fill:#952E25;}
	.st121{fill:#C4BEBA;}
	.st122{fill:#95C83D;}
	.st123{fill:#C6C3C2;}
	.st124{fill:#2CAEA1;}
	.st125{fill:#989897;}
	.st126{fill:#99B93C;}
	.st127{fill:#C9C9C9;}
	.st128{fill:#FDD300;}
	.st129{fill:#FDD600;}
	.st130{fill:#FDD842;}
	.st131{fill:#FDE500;}
	.st132{opacity:0.5;}
	.st133{opacity:0.6;}
	.st134{opacity:0.8;}
	.st135{fill:#FFDD4D;}
	.st136{fill:#FFEFAE;}
	.st137{fill:#FFFBF8;}
	.st138{fill:#FFFFFF;}
	.st139{fill:#CA2027;}
	.st140{fill:#CB7129;}
	.st141{fill:#CC3828;}
	.st142{fill:#9E4F23;}
	.st143{fill:#CECFD0;}
	.st144{fill:#CF4827;}
	.st145{fill:#39617D;}
	.st146{fill:#D1BAC0;}
	.st147{fill:#034F6D;}
	.st148{fill:#D2AE73;}
	.st149{fill:#D2B676;}
	.st150{fill:#D62127;}
	.st151{fill:#D62427;}
	.st152{fill:#D6AC60;}
	.st153{fill:#D6D0CC;}
	.st154{fill:#D7C527;}
	.st155{fill:#D7D7D7;}
	.st156{fill:#702313;}
	.st157{clip-path:url(#SVGID_10_);}
	.st158{clip-path:url(#SVGID_12_);}
	.st159{clip-path:url(#SVGID_14_);}
	.st160{clip-path:url(#SVGID_16_);}
	.st161{fill:#A31E22;}
	.st162{fill:#A46A28;}
	.st163{fill:#76692A;}
	.st164{fill:#DA1F26;}
	.st165{fill:#DB2F2C;}
	.st166{fill:#DBD0A1;}
	.st167{fill:#DBDDDC;}
	.st168{fill:#A81E22;}
	.st169{fill:#796027;}
	.st170{fill:#DC965F;}
	.st171{fill:#DD9328;}
	.st172{fill:#DD9454;}
	.st173{fill:#DDC97D;}
	.st174{fill:#DDDFE0;}
	.st175{fill:#DDE077;}
	.st176{fill:#DFE0E1;}
]]>
</style>
<g>
	<g>
		<g>
			<g>
				<g>
					<g>
						<circle class="st106" cx="68.416" cy="68.417" r="63.333"/>
					</g>
				</g>
			</g>
		</g>
	</g>
	<g>
		<g>
			<g>
				<g>
					<path class="st63" d="M69.772,24.513c-27.021,0-48.496,20.983-48.496,46.686c0,25.705,19.684,44.75,46.705,44.75
						s51.313-19.045,51.313-44.75C119.294,45.497,96.792,24.513,69.772,24.513z M67.981,89.709
						c-11.785,0-19.119-7.298-19.119-18.511c0-11.21,9.125-20.443,20.91-20.443s21.936,9.233,21.936,20.443
						C91.708,82.412,79.769,89.709,67.981,89.709z"/>
				</g>
			</g>
		</g>
		<g>
			<g>
				<g>
					<path class="st7" d="M69.772,27.353c-25.373,0-45.514,19.712-45.514,43.846c0,24.138,18.35,41.914,43.723,41.914
						c25.375,0,48.33-17.776,48.33-41.914C116.312,47.065,95.146,27.353,69.772,27.353z M67.981,89.116
						c-11.441,0-18.494-7.032-18.494-17.917c0-10.883,8.844-19.852,20.285-19.852s21.313,8.969,21.313,19.852
						C91.085,82.083,79.423,89.116,67.981,89.116z"/>
				</g>
			</g>
		</g>
		<g>
			<g>
				<g>
					<path class="st162" d="M39.827,40.494c-17.811,17.811-18.111,45.784-1.17,62.724c16.943,16.941,42.299,16.539,60.109-1.269
						c17.813-17.812,21.447-46.403,4.506-63.345C86.329,21.663,57.638,22.684,39.827,40.494z M81.923,85.103
						c-8.029,8.029-17.918,8.047-25.557,0.407c-7.641-7.641-7.729-20.142,0.303-28.174c8.031-8.033,21.256-8.666,28.896-1.026
						C93.204,63.949,89.954,77.073,81.923,85.103z"/>
				</g>
			</g>
		</g>
		<g>
			<g>
				<g>
					<path class="st70" d="M33.657,86.176c9.756,23.217,34.551,34.487,55.428,25.714c20.877-8.772,29.195-32.026,19.439-55.246
						c-9.756-23.222-33.959-37.77-54.838-28.996C32.81,36.419,23.899,62.955,33.657,86.176z M87.767,65.366
						c4.4,10.47,1.031,19.482-8.383,23.438c-9.412,3.957-20.572-0.879-24.973-11.348c-4.402-10.472-0.439-22.766,8.975-26.724
						C72.802,46.776,83.368,54.894,87.767,65.366z"/>
				</g>
			</g>
		</g>
		<g>
			<g>
				<g>
					<g>
						<path class="st7" d="M67.981,104.255c-18.492-1.842-32.951-14.251-34.139-34.574c-1.242-21.262,14.721-36.595,34.533-36.595
							c20.377,0,39.773,17.817,39.773,37.998C108.149,90.148,89.347,104.255,67.981,104.255z M67.931,44.419
							c-13.93,0-23.725,11.239-23.422,25.262c0.313,14.513,9.826,25.179,23.867,25.179c12.887,0,30.443-10.221,28.441-24.221
							C94.868,56.988,82.183,44.419,67.931,44.419z"/>
					</g>
				</g>
			</g>
		</g>
		<g>
			<g>
				<g>
					<path class="st40" d="M102.888,84.027c0,0.33-0.268,0.598-0.598,0.598l0,0c-0.33,0-0.598-0.268-0.598-0.598v-4.773
						c0-0.329,0.268-0.596,0.598-0.596l0,0c0.33,0,0.598,0.267,0.598,0.596V84.027z"/>
				</g>
			</g>
			<g>
				<g>
					<path class="st28" d="M92.048,45.543c0,0.329-0.266,0.595-0.598,0.595l0,0c-0.328,0-0.596-0.266-0.596-0.595V40.77
						c0-0.33,0.268-0.599,0.596-0.599l0,0c0.332,0,0.598,0.269,0.598,0.599V45.543z"/>
				</g>
			</g>
			<g>
				<g>
					<path class="st17" d="M46.503,50.715c0,0.327-0.268,0.596-0.598,0.596l0,0c-0.33,0-0.596-0.269-0.596-0.596V45.94
						c0-0.329,0.266-0.597,0.596-0.597l0,0c0.33,0,0.598,0.268,0.598,0.597V50.715z"/>
				</g>
			</g>
			<g>
				<g>
					<path class="st28" d="M46.104,98.049c0,0.33-0.268,0.597-0.598,0.597l0,0c-0.33,0-0.596-0.267-0.596-0.597v-4.774
						c0-0.327,0.266-0.596,0.596-0.596l0,0c0.33,0,0.598,0.269,0.598,0.596V98.049z"/>
				</g>
			</g>
			<g>
				<g>
					<path class="st40" d="M75.54,106.005c0,0.328-0.268,0.596-0.596,0.596l0,0c-0.33,0-0.598-0.268-0.598-0.596v-4.773
						c0-0.33,0.268-0.599,0.598-0.599l0,0c0.328,0,0.596,0.269,0.596,0.599V106.005z"/>
				</g>
			</g>
		</g>
		<g>
			<g>
				<g>
					<path class="st8" d="M100.417,54.468c0.244,0.246,0.246,0.647,0,0.893l0,0c-0.248,0.247-0.648,0.247-0.895,0l-3.576-3.576
						c-0.246-0.245-0.246-0.645,0-0.893l0,0c0.246-0.247,0.648-0.247,0.895,0L100.417,54.468z"/>
				</g>
			</g>
			<g>
				<g>
					<path class="st8" d="M65.407,37.038c0.246,0.247,0.246,0.648,0,0.896l0,0c-0.246,0.248-0.646,0.246-0.893,0l-3.576-3.578
						c-0.246-0.244-0.246-0.646,0-0.892l0,0c0.246-0.246,0.646-0.246,0.893,0L65.407,37.038z"/>
				</g>
			</g>
			<g>
				<g>
					<path class="st8" d="M35.167,75.027c0.246,0.247,0.248,0.645,0,0.893l0,0c-0.248,0.246-0.648,0.246-0.895,0l-3.574-3.574
						c-0.246-0.248-0.246-0.648,0-0.895l0,0c0.246-0.248,0.646-0.248,0.893,0L35.167,75.027z"/>
				</g>
			</g>
			<g>
				<g>
					<path class="st8" d="M70.323,110.779c0.246,0.247,0.248,0.647,0,0.895l0,0c-0.248,0.246-0.646,0.246-0.895,0l-3.574-3.577
						c-0.246-0.245-0.246-0.645,0-0.893l0,0c0.248-0.247,0.648-0.247,0.893,0L70.323,110.779z"/>
				</g>
			</g>
			<g>
				<g>
					<path class="st8" d="M91.099,99.389c0.246,0.247,0.248,0.647,0,0.896l0,0c-0.246,0.245-0.646,0.244-0.893,0l-3.576-3.577
						c-0.246-0.247-0.246-0.648,0-0.893l0,0c0.248-0.248,0.648-0.248,0.895,0L91.099,99.389z"/>
				</g>
			</g>
		</g>
		<g>
			<g>
				<g>
					<path class="st124" d="M75.282,43.108c0.32-0.067,0.637,0.137,0.705,0.46l0,0c0.068,0.323-0.137,0.641-0.459,0.708
						l-4.672,0.984c-0.32,0.068-0.639-0.14-0.705-0.461l0,0c-0.068-0.323,0.137-0.641,0.459-0.706L75.282,43.108z"/>
				</g>
			</g>
			<g>
				<g>
					<path class="st40" d="M43.45,61.809c0.322-0.067,0.639,0.139,0.707,0.462l0,0c0.07,0.322-0.139,0.639-0.459,0.707l-4.674,0.983
						c-0.32,0.07-0.639-0.138-0.705-0.459l0,0c-0.068-0.322,0.137-0.64,0.459-0.707L43.45,61.809z"/>
				</g>
			</g>
			<g>
				<g>
					<path class="st124" d="M57.903,105.308c0.322-0.067,0.641,0.138,0.709,0.461l0,0c0.066,0.322-0.141,0.641-0.463,0.709
						l-4.668,0.982c-0.324,0.07-0.639-0.137-0.709-0.46l0,0c-0.068-0.323,0.139-0.64,0.461-0.707L57.903,105.308z"/>
				</g>
			</g>
			<g>
				<g>
					<path class="st17" d="M104.304,95.934c0.32-0.065,0.639,0.139,0.705,0.462l0,0c0.07,0.322-0.137,0.639-0.459,0.707
						l-4.672,0.983c-0.32,0.068-0.637-0.137-0.707-0.459l0,0c-0.066-0.323,0.141-0.64,0.461-0.709L104.304,95.934z"/>
				</g>
			</g>
			<g>
				<g>
					<path class="st124" d="M106.017,65.492c0.322-0.068,0.639,0.137,0.707,0.462l0,0c0.068,0.321-0.139,0.638-0.461,0.705
						l-4.67,0.985c-0.324,0.066-0.641-0.137-0.707-0.463l0,0c-0.068-0.322,0.137-0.638,0.461-0.705L106.017,65.492z"/>
				</g>
			</g>
		</g>
	</g>
</g>
</svg>
