<?xml version="1.0" encoding="utf-8"?>
<!-- Generator: Adobe Illustrator 16.0.0, SVG Export Plug-In . SVG Version: 6.00 Build 0)  -->
<!DOCTYPE svg PUBLIC "-//W3C//DTD SVG 1.1//EN" "http://www.w3.org/Graphics/SVG/1.1/DTD/svg11.dtd">
<svg version="1.1" id="Layer_1" xmlns="http://www.w3.org/2000/svg" xmlns:xlink="http://www.w3.org/1999/xlink" x="0px" y="0px"
	 width="136.833px" height="136.833px" viewBox="0 0 136.833 136.833" style="enable-background:new 0 0 136.833 136.833;"
	 xml:space="preserve">
<style type="text/css">
<![CDATA[
	.st0{fill:#7A430B;}
	.st1{fill:#AA9A83;}
	.st2{fill:#AC4736;}
	.st3{fill:#499544;}
	.st4{fill:#7D3719;}
	.st5{fill:#AD842D;}
	.st6{fill:#AE8032;}
	.st7{fill:#AF5E27;}
	.st8{fill:#E0A925;}
	.st9{fill:#E0E0E0;}
	.st10{fill:#E1544A;}
	.st11{fill:#E1B623;}
	.st12{fill:#E37926;}
	.st13{fill:#E3DFC6;}
	.st14{fill:#E3E4E5;}
	.st15{fill:#E48225;}
	.st16{fill:#E4C88F;}
	.st17{fill:#E54526;}
	.st18{fill:#E55126;}
	.st19{fill:#4ABC96;}
	.st20{fill:#E5DBCF;}
	.st21{fill:#184166;}
	.st22{fill:#196935;}
	.st23{fill:#4D8741;}
	.st24{fill:#E89C23;}
	.st25{fill:#E8DADD;}
	.st26{fill:#E8EAEB;}
	.st27{fill:#E92C25;}
	.st28{fill:#E9683B;}
	.st29{fill:#E98F23;}
	.st30{fill:#E99323;}
	.st31{fill:#E9B14D;}
	.st32{fill:#E9D8CB;}
	.st33{fill:#E9EEEE;}
	.st34{fill:#B1C635;}
	.st35{fill:#B21F24;}
	.st36{opacity:0.25;}
	.st37{fill:#83B041;}
	.st38{fill:#846A35;}
	.st39{fill:#B3BB35;}
	.st40{fill:#85983A;}
	.st41{fill:#864F4F;}
	.st42{fill:#EA9F3C;}
	.st43{fill:#EAAE7A;}
	.st44{fill:#EAD760;}
	.st45{fill:#B73535;}
	.st46{fill:#B7567D;}
	.st47{fill:#B79051;}
	.st48{fill:#EB7623;}
	.st49{fill:#EB8123;}
	.st50{fill:#EB9682;}
	.st51{fill:#EB9C22;}
	.st52{fill:#1D9E49;}
	.st53{fill:#B88B3B;}
	.st54{fill:#B88C33;}
	.st55{fill:#EC1C24;}
	.st56{fill:#EC2224;}
	.st57{fill:#ECDE7A;}
	.st58{fill:#EDC92C;}
	.st59{fill:#EDEDED;}
	.st60{fill:#EEB760;}
	.st61{fill:#EEE26F;}
	.st62{fill:#EFCF8A;}
	.st63{fill:#EFCFA7;}
	.st64{fill:#EFEFEF;}
	.st65{fill:#EFF2F1;}
	.st66{fill:#543D18;}
	.st67{fill:#568D4D;}
	.st68{fill:#8B5122;}
	.st69{fill:#8BC53F;}
	.st70{fill:#BB6828;}
	.st71{fill:#BB9E70;}
	.st72{fill:#BDDA83;}
	.st73{fill:#BE6328;}
	.st74{fill:#8F8547;}
	.st75{fill:#F0A91E;}
	.st76{fill:#F0B234;}
	.st77{fill:#F1CE6A;}
	.st78{fill:#F1CF13;}
	.st79{fill:#F1E2A3;}
	.st80{fill:#F2BA2C;}
	.st81{fill:#F2CF3B;}
	.st82{fill:#F2E78A;}
	.st83{fill:#F2ECC6;}
	.st84{fill:#F37C2A;}
	.st85{fill:#F3B022;}
	.st86{fill:#F3C121;}
	.st87{fill:#F3C480;}
	.st88{fill:#F3E4CE;}
	.st89{fill:#F4BD1C;}
	.st90{fill:#F4CE9D;}
	.st91{fill:#264E6E;}
	.st92{fill:#F58721;}
	.st93{fill:#F5D1AF;}
	.st94{fill:#F5E11C;}
	.st95{fill:#F69220;}
	.st96{fill:#F6E6E8;}
	.st97{fill:#5C2A2A;}
	.st98{fill:#F7991F;}
	.st99{fill:#F7CC55;}
	.st100{fill:#F7E8DD;}
	.st101{fill:#F8DA02;}
	.st102{fill:#F8E37F;}
	.st103{fill:#F8F0E9;}
	.st104{fill:#F9A65C;}
	.st105{fill:#F9C74F;}
	.st106{fill:#F9C900;}
	.st107{fill:#F9CE82;}
	.st108{fill:#F9ECE0;}
	.st109{fill:#F9ECE4;}
	.st110{fill:#F9EDE4;}
	.st111{clip-path:url(#SVGID_2_);}
	.st112{clip-path:url(#SVGID_4_);}
	.st113{clip-path:url(#SVGID_6_);}
	.st114{clip-path:url(#SVGID_8_);}
	.st115{fill:#C13B3B;}
	.st116{fill:#C16028;}
	.st117{fill:#925A25;}
	.st118{fill:#C35328;}
	.st119{fill:#C42126;}
	.st120{fill:#952E25;}
	.st121{fill:#C4BEBA;}
	.st122{fill:#95C83D;}
	.st123{fill:#C6C3C2;}
	.st124{fill:#2CAEA1;}
	.st125{fill:#989897;}
	.st126{fill:#99B93C;}
	.st127{fill:#C9C9C9;}
	.st128{fill:#FDD300;}
	.st129{fill:#FDD600;}
	.st130{fill:#FDD842;}
	.st131{fill:#FDE500;}
	.st132{opacity:0.5;}
	.st133{opacity:0.6;}
	.st134{opacity:0.8;}
	.st135{fill:#FFDD4D;}
	.st136{fill:#FFEFAE;}
	.st137{fill:#FFFBF8;}
	.st138{fill:#FFFFFF;}
	.st139{fill:#CA2027;}
	.st140{fill:#CB7129;}
	.st141{fill:#CC3828;}
	.st142{fill:#9E4F23;}
	.st143{fill:#CECFD0;}
	.st144{fill:#CF4827;}
	.st145{fill:#39617D;}
	.st146{fill:#D1BAC0;}
	.st147{fill:#034F6D;}
	.st148{fill:#D2AE73;}
	.st149{fill:#D2B676;}
	.st150{fill:#D62127;}
	.st151{fill:#D62427;}
	.st152{fill:#D6AC60;}
	.st153{fill:#D6D0CC;}
	.st154{fill:#D7C527;}
	.st155{fill:#D7D7D7;}
	.st156{fill:#702313;}
	.st157{clip-path:url(#SVGID_10_);}
	.st158{clip-path:url(#SVGID_12_);}
	.st159{clip-path:url(#SVGID_14_);}
	.st160{clip-path:url(#SVGID_16_);}
	.st161{fill:#A31E22;}
	.st162{fill:#A46A28;}
	.st163{fill:#76692A;}
	.st164{fill:#DA1F26;}
	.st165{fill:#DB2F2C;}
	.st166{fill:#DBD0A1;}
	.st167{fill:#DBDDDC;}
	.st168{fill:#A81E22;}
	.st169{fill:#796027;}
	.st170{fill:#DC965F;}
	.st171{fill:#DD9328;}
	.st172{fill:#DD9454;}
	.st173{fill:#DDC97D;}
	.st174{fill:#DDDFE0;}
	.st175{fill:#DDE077;}
	.st176{fill:#DFE0E1;}
]]>
</style>
<g>
	<g>
		<g>
			<g>
				<g>
					<g>
						<circle class="st106" cx="68.417" cy="68.418" r="63.333"/>
					</g>
				</g>
			</g>
		</g>
	</g>
	<g>
		<g>
			<g>
				<path class="st117" d="M99.514,49.085c-1.438-5.737-3.771-6.13-8.99-6.13c-5.219,0-9.685,2.045-9.685,2.045
					s-3.771-2.788-9.875-2.973c-1.761-0.176-3.277,0.027-4.548,0.467c-9.199,0.997-29.449,4.174-34.527,4.019
					c-5.279-0.528-8.359,2.406-9.035,4.784c-1.766,6.207,0.706,19.396,0.706,19.396l-0.706,16.328c0,1.215,0.951,2.199,2.124,2.199
					L48,89.744l9.916-0.523c1.01,0,28.047-2.385,38.254-3.822l1.188-0.063c0.464,0,0.891-0.152,1.242-0.408
					c0.125-0.051,0.193-0.098,0.193-0.141l0.002-0.023c0.439-0.408,0.718-0.998,0.718-1.658l-0.718-15.257
					C98.795,67.848,100.952,54.822,99.514,49.085z"/>
			</g>
		</g>
		<g>
			<g>
				<g>
					<path class="st16" d="M57.387,84.324c0,1.041-0.816,1.885-1.822,1.885l-8.232,0.471l-20.027-0.471
						c-1.008,0-1.823-0.844-1.823-1.885l0.606-14.01c0,0-2.122-11.316-0.606-16.642c0.58-2.039,3.222-4.557,7.752-4.104
						c5.165,0.156,8.354,2.514,8.354,2.514s3.777-1.728,8.194-1.728c4.415,0,6.39,0.333,7.605,5.184
						c1.216,4.855-0.923,15.607-0.923,15.607L57.387,84.324z"/>
					<path class="st16" d="M57.387,84.324c0,1.041-0.816,1.885-1.822,1.885l-8.232,0.471l-20.027-0.471
						c-1.008,0-1.823-0.844-1.823-1.885l0.606-14.01c0,0-2.122-11.316-0.606-16.642c0.58-2.039,3.222-4.557,7.752-4.104
						c5.165,0.156,8.354,2.514,8.354,2.514s3.777-1.728,8.194-1.728c4.415,0,6.39,0.333,7.605,5.184
						c1.216,4.855-0.923,15.607-0.923,15.607L57.387,84.324z"/>
					<path class="st16" d="M57.387,84.324c0,1.041-0.816,1.885-1.822,1.885l-8.232,0.471l-20.027-0.471
						c-1.008,0-1.823-0.844-1.823-1.885l0.606-14.01c0,0-2.122-11.316-0.606-16.642c0.58-2.039,3.222-4.557,7.752-4.104
						c5.165,0.156,8.354,2.514,8.354,2.514s3.777-1.728,8.194-1.728c4.415,0,6.39,0.333,7.605,5.184
						c1.216,4.855-0.923,15.607-0.923,15.607L57.387,84.324z"/>
					<path class="st16" d="M57.387,84.324c0,1.041-0.816,1.885-1.822,1.885l-8.232,0.471l-20.027-0.471
						c-1.008,0-1.823-0.844-1.823-1.885l0.606-14.01c0,0-2.122-11.316-0.606-16.642c0.58-2.039,3.222-4.557,7.752-4.104
						c5.165,0.156,8.354,2.514,8.354,2.514s3.777-1.728,8.194-1.728c4.415,0,6.39,0.333,7.605,5.184
						c1.216,4.855-0.923,15.607-0.923,15.607L57.387,84.324z"/>
				</g>
			</g>
		</g>
		<g>
			<g>
				<g>
					<path class="st117" d="M80.84,92.257c0.016,1.109,0.875,1.98,1.919,1.945l8.837,0.176l20.495-1.182
						c1.045-0.035,1.881-0.963,1.866-2.072l-0.836-14.908c0,0,2.036-12.136,0.384-17.758c-0.633-2.153-3.412-4.743-8.106-4.099
						c-5.359,0.351-8.635,2.977-8.635,2.977s-3.945-1.709-8.529-1.552s-6.628,0.582-7.818,5.798
						c-1.192,5.217,0.863,16.894,0.863,16.894L80.84,92.257z"/>
				</g>
			</g>
			<g>
				<g>
					<path class="st68" d="M79.528,92.49c0.015,1.125,0.887,2.01,1.945,1.973l8.963,0.18l20.784-1.197
						c1.06-0.037,1.905-0.979,1.89-2.104l-0.847-15.119c0,0,2.064-12.306,0.39-18.006c-0.641-2.185-3.459-4.811-8.221-4.157
						c-5.435,0.356-8.758,3.019-8.758,3.019s-4.002-1.731-8.649-1.575c-4.649,0.161-6.721,0.592-7.929,5.881
						c-1.207,5.289,0.876,17.134,0.876,17.134L79.528,92.49z"/>
				</g>
			</g>
			<g>
				<g>
					<path class="st16" d="M82.607,90.31c0.013,0.988,0.779,1.766,1.712,1.734l7.625,0.188l18.533-1.084
						c0.932-0.031,1.676-0.857,1.662-1.85l-0.744-13.295c0,0,1.814-10.823,0.342-15.835c-0.563-1.922-3.041-4.229-7.229-3.656
						c-4.779,0.313-7.701,2.655-7.701,2.655s-3.52-1.524-7.607-1.384c-4.088,0.14-5.911,0.52-6.973,5.17
						c-1.062,4.651,1.061,14.802,1.061,14.802L82.607,90.31z"/>
				</g>
			</g>
		</g>
		<g class="st132">
			<circle class="st117" cx="88.442" cy="67.997" r="1.121"/>
		</g>
		<g class="st132">
			<circle class="st117" cx="94.92" cy="73.208" r="1.376"/>
		</g>
		<g class="st132">
			<circle class="st117" cx="105.848" cy="75.416" r="1.983"/>
		</g>
		<g class="st132">
			<circle class="st117" cx="102.18" cy="63.047" r="1.055"/>
		</g>
		<g class="st132">
			<circle class="st117" cx="94.92" cy="86.444" r="1.055"/>
		</g>
		<g class="st132">
			<circle class="st117" cx="109.985" cy="85.737" r="0.722"/>
		</g>
		<g class="st132">
			<circle class="st117" cx="54.591" cy="74.316" r="1.282"/>
		</g>
		<g class="st132">
			<circle class="st117" cx="46.372" cy="69.532" r="1.574"/>
		</g>
		<g class="st132">
			<circle class="st117" cx="33.636" cy="68.908" r="2.268"/>
		</g>
		<g class="st132">
			<circle class="st117" cx="39.902" cy="82.268" r="1.207"/>
		</g>
		<g class="st132">
			<circle class="st117" cx="44.105" cy="54.564" r="1.206"/>
		</g>
		<g class="st132">
			<circle class="st117" cx="27.189" cy="57.945" r="0.826"/>
		</g>
	</g>
</g>
<g>
	<g>
		<path class="st68" d="M43.111,49.105c4.78-1.819,9.879-2.271,13.772,1.515c3.193,3.104,2.971,8.361,2.475,12.353
			c-0.49,3.947-1.172,6.841-0.686,10.826c0.464,3.805,1.558,8.032,0.397,11.774c-0.234,0.755,2.619,0.36,2.872-0.457
			c1.42-4.575-0.16-9.843-0.64-14.498c-0.62-5.999,2.356-11.405,0.446-17.474c-2.691-8.549-13.183-7.371-19.692-4.893
			C40.138,48.982,41.935,49.553,43.111,49.105L43.111,49.105z"/>
	</g>
</g>
</svg>
