<?xml version="1.0" encoding="utf-8"?>
<!-- Generator: Adobe Illustrator 16.0.0, SVG Export Plug-In . SVG Version: 6.00 Build 0)  -->
<!DOCTYPE svg PUBLIC "-//W3C//DTD SVG 1.1//EN" "http://www.w3.org/Graphics/SVG/1.1/DTD/svg11.dtd">
<svg version="1.1" id="Layer_1" xmlns="http://www.w3.org/2000/svg" xmlns:xlink="http://www.w3.org/1999/xlink" x="0px" y="0px"
	 width="136.833px" height="136.834px" viewBox="0 0 136.833 136.834" style="enable-background:new 0 0 136.833 136.834;"
	 xml:space="preserve">
<style type="text/css">
<![CDATA[
	.st0{fill:#7A430B;}
	.st1{fill:#AA9A83;}
	.st2{fill:#AC4736;}
	.st3{fill:#499544;}
	.st4{fill:#7D3719;}
	.st5{fill:#AD842D;}
	.st6{fill:#AE8032;}
	.st7{fill:#AF5E27;}
	.st8{fill:#E0A925;}
	.st9{fill:#E0E0E0;}
	.st10{fill:#E1544A;}
	.st11{fill:#E1B623;}
	.st12{fill:#E37926;}
	.st13{fill:#E3DFC6;}
	.st14{fill:#E3E4E5;}
	.st15{fill:#E48225;}
	.st16{fill:#E4C88F;}
	.st17{fill:#E54526;}
	.st18{fill:#E55126;}
	.st19{fill:#4ABC96;}
	.st20{fill:#E5DBCF;}
	.st21{fill:#184166;}
	.st22{fill:#196935;}
	.st23{fill:#4D8741;}
	.st24{fill:#E89C23;}
	.st25{fill:#E8DADD;}
	.st26{fill:#E8EAEB;}
	.st27{fill:#E92C25;}
	.st28{fill:#E9683B;}
	.st29{fill:#E98F23;}
	.st30{fill:#E99323;}
	.st31{fill:#E9B14D;}
	.st32{fill:#E9D8CB;}
	.st33{fill:#E9EEEE;}
	.st34{fill:#B1C635;}
	.st35{fill:#B21F24;}
	.st36{opacity:0.25;}
	.st37{fill:#83B041;}
	.st38{fill:#846A35;}
	.st39{fill:#B3BB35;}
	.st40{fill:#85983A;}
	.st41{fill:#864F4F;}
	.st42{fill:#EA9F3C;}
	.st43{fill:#EAAE7A;}
	.st44{fill:#EAD760;}
	.st45{fill:#B73535;}
	.st46{fill:#B7567D;}
	.st47{fill:#B79051;}
	.st48{fill:#EB7623;}
	.st49{fill:#EB8123;}
	.st50{fill:#EB9682;}
	.st51{fill:#EB9C22;}
	.st52{fill:#1D9E49;}
	.st53{fill:#B88B3B;}
	.st54{fill:#B88C33;}
	.st55{fill:#EC1C24;}
	.st56{fill:#EC2224;}
	.st57{fill:#ECDE7A;}
	.st58{fill:#EDC92C;}
	.st59{fill:#EDEDED;}
	.st60{fill:#EEB760;}
	.st61{fill:#EEE26F;}
	.st62{fill:#EFCF8A;}
	.st63{fill:#EFCFA7;}
	.st64{fill:#EFEFEF;}
	.st65{fill:#EFF2F1;}
	.st66{fill:#543D18;}
	.st67{fill:#568D4D;}
	.st68{fill:#8B5122;}
	.st69{fill:#8BC53F;}
	.st70{fill:#BB6828;}
	.st71{fill:#BB9E70;}
	.st72{fill:#BDDA83;}
	.st73{fill:#BE6328;}
	.st74{fill:#8F8547;}
	.st75{fill:#F0A91E;}
	.st76{fill:#F0B234;}
	.st77{fill:#F1CE6A;}
	.st78{fill:#F1CF13;}
	.st79{fill:#F1E2A3;}
	.st80{fill:#F2BA2C;}
	.st81{fill:#F2CF3B;}
	.st82{fill:#F2E78A;}
	.st83{fill:#F2ECC6;}
	.st84{fill:#F37C2A;}
	.st85{fill:#F3B022;}
	.st86{fill:#F3C121;}
	.st87{fill:#F3C480;}
	.st88{fill:#F3E4CE;}
	.st89{fill:#F4BD1C;}
	.st90{fill:#F4CE9D;}
	.st91{fill:#264E6E;}
	.st92{fill:#F58721;}
	.st93{fill:#F5D1AF;}
	.st94{fill:#F5E11C;}
	.st95{fill:#F69220;}
	.st96{fill:#F6E6E8;}
	.st97{fill:#5C2A2A;}
	.st98{fill:#F7991F;}
	.st99{fill:#F7CC55;}
	.st100{fill:#F7E8DD;}
	.st101{fill:#F8DA02;}
	.st102{fill:#F8E37F;}
	.st103{fill:#F8F0E9;}
	.st104{fill:#F9A65C;}
	.st105{fill:#F9C74F;}
	.st106{fill:#F9C900;}
	.st107{fill:#F9CE82;}
	.st108{fill:#F9ECE0;}
	.st109{fill:#F9ECE4;}
	.st110{fill:#F9EDE4;}
	.st111{clip-path:url(#SVGID_2_);}
	.st112{clip-path:url(#SVGID_4_);}
	.st113{clip-path:url(#SVGID_6_);}
	.st114{clip-path:url(#SVGID_8_);}
	.st115{fill:#C13B3B;}
	.st116{fill:#C16028;}
	.st117{fill:#925A25;}
	.st118{fill:#C35328;}
	.st119{fill:#C42126;}
	.st120{fill:#952E25;}
	.st121{fill:#C4BEBA;}
	.st122{fill:#95C83D;}
	.st123{fill:#C6C3C2;}
	.st124{fill:#2CAEA1;}
	.st125{fill:#989897;}
	.st126{fill:#99B93C;}
	.st127{fill:#C9C9C9;}
	.st128{fill:#FDD300;}
	.st129{fill:#FDD600;}
	.st130{fill:#FDD842;}
	.st131{fill:#FDE500;}
	.st132{opacity:0.5;}
	.st133{opacity:0.6;}
	.st134{opacity:0.8;}
	.st135{fill:#FFDD4D;}
	.st136{fill:#FFEFAE;}
	.st137{fill:#FFFBF8;}
	.st138{fill:#FFFFFF;}
	.st139{fill:#CA2027;}
	.st140{fill:#CB7129;}
	.st141{fill:#CC3828;}
	.st142{fill:#9E4F23;}
	.st143{fill:#CECFD0;}
	.st144{fill:#CF4827;}
	.st145{fill:#39617D;}
	.st146{fill:#D1BAC0;}
	.st147{fill:#034F6D;}
	.st148{fill:#D2AE73;}
	.st149{fill:#D2B676;}
	.st150{fill:#D62127;}
	.st151{fill:#D62427;}
	.st152{fill:#D6AC60;}
	.st153{fill:#D6D0CC;}
	.st154{fill:#D7C527;}
	.st155{fill:#D7D7D7;}
	.st156{fill:#702313;}
	.st157{clip-path:url(#SVGID_10_);}
	.st158{clip-path:url(#SVGID_12_);}
	.st159{clip-path:url(#SVGID_14_);}
	.st160{clip-path:url(#SVGID_16_);}
	.st161{fill:#A31E22;}
	.st162{fill:#A46A28;}
	.st163{fill:#76692A;}
	.st164{fill:#DA1F26;}
	.st165{fill:#DB2F2C;}
	.st166{fill:#DBD0A1;}
	.st167{fill:#DBDDDC;}
	.st168{fill:#A81E22;}
	.st169{fill:#796027;}
	.st170{fill:#DC965F;}
	.st171{fill:#DD9328;}
	.st172{fill:#DD9454;}
	.st173{fill:#DDC97D;}
	.st174{fill:#DDDFE0;}
	.st175{fill:#DDE077;}
	.st176{fill:#DFE0E1;}
]]>
</style>
<g>
	<g>
		<g>
			<g>
				<g>
					<g>
						<circle class="st34" cx="68.416" cy="68.417" r="63.333"/>
					</g>
				</g>
			</g>
		</g>
	</g>
	<g>
		<g>
			<g>
				<g>
					<g>
						<path class="st128" d="M54.798,24.058c2.627,1.182,6.049,24.633,21.107,37.504c12.398,10.598,34.615,12.693,41.865,14.072
							c1.375,0.26,1.623,0.734,1.754,0.998c0.398,0.797,0.645,1.545-0.188,2.578c-2.584,3.232-11.055,7.379-15.477,7.535
							c-16.416,0.582-51.016-8.158-56.959-38.033C44.929,38.802,49.554,21.685,54.798,24.058z"/>
					</g>
				</g>
				<g>
					<g>
						<path class="st128" d="M49.888,28.017c0,0,3.197-8.564,2.301-10.402c-0.896-1.836,3.574,0.426,3.574,0.426
							S54.999,25.5,55.63,27.3C56.255,29.101,49.888,28.017,49.888,28.017z"/>
					</g>
				</g>
				<g>
					<g>
						<path class="st78" d="M54.964,26.121c2.516,1.137,5.793,23.607,20.225,35.941c14.133,12.08,41.574,12.633,42.361,14.211
							c1.57,3.162-8.893,9.314-14.486,9.514c-15.727,0.557-49.234-8.055-54.93-36.68C46.243,39.607,49.935,23.849,54.964,26.121z"/>
					</g>
				</g>
				<g>
					<g>
						<path class="st5" d="M51.481,16.371c0,0,4.332,0.852,4.281,1.67c-0.047,0.688-3.961-0.299-4.191-0.918
							C51.485,16.898,51.481,16.605,51.481,16.371z"/>
					</g>
				</g>
				<g>
					<g>
						<path class="st5" d="M117.673,75.603c1.336,0.23,1.777,0.744,1.943,1.207c0.248,0.686,0.686,0.83,0.303,1.541
							c-0.143,0.266-0.387,0.555-0.582,0.859c0,0-0.904-1.158-0.988-1.879C118.272,76.708,117.673,75.603,117.673,75.603z"/>
					</g>
				</g>
			</g>
			<g>
				<g>
					<path class="st128" d="M105.259,79.349c-16.422,0-29.262-4.44-38.277-13.263C50.55,50.009,52.841,24.66,52.866,24.406
						l0.994,0.098c-0.023,0.25-2.264,25.137,13.826,40.874c11.008,10.767,27.906,14.863,50.23,12.17l0.119,0.993
						C113.563,79.08,109.302,79.349,105.259,79.349z"/>
				</g>
			</g>
		</g>
		<g>
			<g>
				<g>
					<g>
						<path class="st128" d="M54.616,28.826c2.49,1.51,3.043,25.473,16.576,40.244c11.145,12.162,33.191,16.994,40.303,19.268
							c1.346,0.432,1.535,0.938,1.637,1.219c0.303,0.852,0.455,1.633-0.504,2.566c-2.994,2.926-10.818,5.762-15.277,5.373
							c-16.545-1.432-50.539-14.75-52.838-45.469C43.753,41.835,49.642,25.802,54.616,28.826z"/>
					</g>
				</g>
				<g>
					<g>
						<path class="st128" d="M49.198,32.197c0,0,4.264-8.205,3.59-10.158c-0.674-1.955,3.533,0.865,3.533,0.865
							s-1.684,7.395-1.271,9.277C55.458,34.068,49.198,32.197,49.198,32.197z"/>
					</g>
				</g>
				<g>
					<g>
						<path class="st101" d="M54.528,30.917c2.385,1.449,2.916,24.41,15.885,38.564c12.703,13.863,40.184,17.789,40.779,19.473
							c1.191,3.367-10.07,8.256-15.713,7.77C79.624,95.351,47.048,82.587,44.847,53.15C44.118,43.386,49.761,28.021,54.528,30.917z"
							/>
					</g>
				</g>
				<g>
					<g>
						<path class="st5" d="M52.231,20.701c0,0,4.244,1.389,4.09,2.203c-0.059,0.316-0.906,0.172-1.811-0.137
							c-1.059-0.361-2.199-0.947-2.283-1.297C52.171,21.232,52.2,20.937,52.231,20.701z"/>
					</g>
				</g>
				<g>
					<g>
						<path class="st5" d="M111.397,88.3c1.314,0.393,1.693,0.961,1.805,1.445c0.164,0.721,0.586,0.918,0.111,1.588
							c-0.174,0.246-0.453,0.506-0.686,0.789c0,0-0.768-1.275-0.764-2.01C111.866,89.48,111.397,88.3,111.397,88.3z"/>
					</g>
				</g>
			</g>
			<g>
				<g>
					<path class="st128" d="M111.405,91.283c-23.064-0.041-39.793-6.357-49.721-18.773c-14.516-18.156-9.102-43.316-9.045-43.568
						l0.975,0.218c-0.055,0.247-5.361,24.956,8.857,42.731c9.729,12.164,26.193,18.352,48.936,18.393L111.405,91.283z"/>
				</g>
			</g>
		</g>
		<g>
			<g>
				<g>
					<g>
						<path class="st128" d="M54.034,26.05c2.434,2.166-1.789,28.639,10.119,47.619c9.811,15.629,33.09,25.395,40.453,29.332
							c1.396,0.746,1.504,1.34,1.557,1.67c0.16,0.998,0.174,1.885-1.074,2.723c-3.883,2.615-13.061,4.154-17.887,2.83
							C69.286,105.312,34.567,83.8,38.239,49.541C39.454,38.171,49.169,21.718,54.034,26.05z"/>
					</g>
				</g>
				<g>
					<g>
						<path class="st128" d="M47.392,28.667c0,0,6.346-8.166,6-10.453c-0.35-2.287,3.711,1.664,3.711,1.664s-3.342,7.797-3.27,9.955
							C53.901,31.988,47.392,28.667,47.392,28.667z"/>
					</g>
				</g>
				<g>
					<g>
						<path class="st101" d="M53.513,28.335c2.332,2.074-1.715,27.443,9.699,45.631c11.18,17.818,40.623,27.678,40.939,29.654
							c0.629,3.941-12.746,7.051-18.854,5.377c-17.17-4.709-50.438-25.324-46.92-58.152C39.546,39.953,48.853,24.185,53.513,28.335z
							"/>
					</g>
				</g>
				<g>
					<g>
						<path class="st5" d="M53.046,16.63c0,0,4.391,2.383,4.057,3.248c-0.277,0.729-4.174-1.656-4.215-2.404
							C52.876,17.203,52.966,16.882,53.046,16.63z"/>
					</g>
				</g>
				<g>
					<g>
						<path class="st5" d="M104.513,102.939c1.361,0.697,1.666,1.4,1.689,1.955c0.037,0.826,0.459,1.127-0.195,1.77
							c-0.242,0.238-0.604,0.463-0.918,0.73c0,0-0.584-1.559-0.434-2.367C104.788,104.332,104.513,102.939,104.513,102.939z"/>
					</g>
				</g>
			</g>
			<g>
				<g>
					<path class="st128" d="M103.925,106.165C78.575,101.47,61.458,91.156,53.05,75.51c-12.295-22.88-1.273-49.446-1.162-49.712
						l0.922,0.391c-0.111,0.262-10.945,26.402,1.125,48.855c8.26,15.361,25.141,25.501,50.172,30.137L103.925,106.165z"/>
				</g>
			</g>
		</g>
		<g>
			<g>
				<g>
					<g>
						<path class="st128" d="M52.796,25.361c1.949,2.609-7.521,27.691,0.326,48.682c6.461,17.285,27.297,31.537,33.717,36.877
							c1.215,1.01,1.203,1.615,1.188,1.949c-0.043,1.008-0.211,1.883-1.6,2.449c-4.328,1.779-15.566,1.475-20.027-0.795
							c-16.561-8.422-45.131-36.539-34.637-69.361C35.245,34.275,48.903,20.138,52.796,25.361z"/>
					</g>
				</g>
				<g>
					<g>
						<path class="st128" d="M45.763,26.587c0,0,7.861-6.725,7.98-9.035c0.121-2.307,3.303,2.379,3.303,2.379
							s-4.844,6.965-5.207,9.092C51.47,31.15,45.763,26.587,45.763,26.587z"/>
					</g>
				</g>
				<g>
					<g>
						<path class="st131" d="M51.827,27.494c1.867,2.502-7.207,26.535,0.311,46.65c7.363,19.703,34.221,35.289,34.131,37.285
							c-0.178,3.992-13.904,4.344-19.551,1.473c-15.869-8.068-44.305-34.959-34.248-66.408
							C35.806,36.058,48.095,22.488,51.827,27.494z"/>
					</g>
				</g>
				<g>
					<g>
						<path class="st5" d="M53.728,15.935c0,0,3.818,3.217,3.318,3.996c-0.422,0.658-3.756-2.463-3.645-3.203
							C53.442,16.46,53.597,16.166,53.728,15.935z"/>
					</g>
				</g>
				<g>
					<g>
						<path class="st5" d="M86.757,110.837c1.197,0.959,1.352,1.707,1.264,2.258c-0.131,0.816,0.223,1.195-0.547,1.691
							c-0.287,0.182-0.686,0.334-1.047,0.531c0,0-0.26-1.645,0.053-2.402C86.747,112.257,86.757,110.837,86.757,110.837z"/>
					</g>
				</g>
			</g>
			<g>
				<g>
					<path class="st128" d="M85.532,113.88C61.649,104.177,46.96,90.628,41.874,73.61c-7.438-24.886,8.707-48.688,8.871-48.925
						l0.822,0.568c-0.16,0.232-16.037,23.656-8.732,48.078c4.996,16.711,19.488,30.041,43.074,39.622L85.532,113.88z"/>
				</g>
			</g>
		</g>
	</g>
</g>
</svg>
