<?xml version="1.0" encoding="utf-8"?>
<!-- Generator: Adobe Illustrator 16.0.0, SVG Export Plug-In . SVG Version: 6.00 Build 0)  -->
<!DOCTYPE svg PUBLIC "-//W3C//DTD SVG 1.1//EN" "http://www.w3.org/Graphics/SVG/1.1/DTD/svg11.dtd">
<svg version="1.1" id="Layer_1" xmlns="http://www.w3.org/2000/svg" xmlns:xlink="http://www.w3.org/1999/xlink" x="0px" y="0px"
	 width="136.833px" height="136.834px" viewBox="0 0 136.833 136.834" style="enable-background:new 0 0 136.833 136.834;"
	 xml:space="preserve">
<style type="text/css">
<![CDATA[
	.st0{fill:#7A430B;}
	.st1{fill:#AA9A83;}
	.st2{fill:#AC4736;}
	.st3{fill:#499544;}
	.st4{fill:#7D3719;}
	.st5{fill:#AD842D;}
	.st6{fill:#AE8032;}
	.st7{fill:#AF5E27;}
	.st8{fill:#E0A925;}
	.st9{fill:#E0E0E0;}
	.st10{fill:#E1544A;}
	.st11{fill:#E1B623;}
	.st12{fill:#E37926;}
	.st13{fill:#E3DFC6;}
	.st14{fill:#E3E4E5;}
	.st15{fill:#E48225;}
	.st16{fill:#E4C88F;}
	.st17{fill:#E54526;}
	.st18{fill:#E55126;}
	.st19{fill:#4ABC96;}
	.st20{fill:#E5DBCF;}
	.st21{fill:#184166;}
	.st22{fill:#196935;}
	.st23{fill:#4D8741;}
	.st24{fill:#E89C23;}
	.st25{fill:#E8DADD;}
	.st26{fill:#E8EAEB;}
	.st27{fill:#E92C25;}
	.st28{fill:#E9683B;}
	.st29{fill:#E98F23;}
	.st30{fill:#E99323;}
	.st31{fill:#E9B14D;}
	.st32{fill:#E9D8CB;}
	.st33{fill:#E9EEEE;}
	.st34{fill:#B1C635;}
	.st35{fill:#B21F24;}
	.st36{opacity:0.25;}
	.st37{fill:#83B041;}
	.st38{fill:#846A35;}
	.st39{fill:#B3BB35;}
	.st40{fill:#85983A;}
	.st41{fill:#864F4F;}
	.st42{fill:#EA9F3C;}
	.st43{fill:#EAAE7A;}
	.st44{fill:#EAD760;}
	.st45{fill:#B73535;}
	.st46{fill:#B7567D;}
	.st47{fill:#B79051;}
	.st48{fill:#EB7623;}
	.st49{fill:#EB8123;}
	.st50{fill:#EB9682;}
	.st51{fill:#EB9C22;}
	.st52{fill:#1D9E49;}
	.st53{fill:#B88B3B;}
	.st54{fill:#B88C33;}
	.st55{fill:#EC1C24;}
	.st56{fill:#EC2224;}
	.st57{fill:#ECDE7A;}
	.st58{fill:#EDC92C;}
	.st59{fill:#EDEDED;}
	.st60{fill:#EEB760;}
	.st61{fill:#EEE26F;}
	.st62{fill:#EFCF8A;}
	.st63{fill:#EFCFA7;}
	.st64{fill:#EFEFEF;}
	.st65{fill:#EFF2F1;}
	.st66{fill:#543D18;}
	.st67{fill:#568D4D;}
	.st68{fill:#8B5122;}
	.st69{fill:#8BC53F;}
	.st70{fill:#BB6828;}
	.st71{fill:#BB9E70;}
	.st72{fill:#BDDA83;}
	.st73{fill:#BE6328;}
	.st74{fill:#8F8547;}
	.st75{fill:#F0A91E;}
	.st76{fill:#F0B234;}
	.st77{fill:#F1CE6A;}
	.st78{fill:#F1CF13;}
	.st79{fill:#F1E2A3;}
	.st80{fill:#F2BA2C;}
	.st81{fill:#F2CF3B;}
	.st82{fill:#F2E78A;}
	.st83{fill:#F2ECC6;}
	.st84{fill:#F37C2A;}
	.st85{fill:#F3B022;}
	.st86{fill:#F3C121;}
	.st87{fill:#F3C480;}
	.st88{fill:#F3E4CE;}
	.st89{fill:#F4BD1C;}
	.st90{fill:#F4CE9D;}
	.st91{fill:#264E6E;}
	.st92{fill:#F58721;}
	.st93{fill:#F5D1AF;}
	.st94{fill:#F5E11C;}
	.st95{fill:#F69220;}
	.st96{fill:#F6E6E8;}
	.st97{fill:#5C2A2A;}
	.st98{fill:#F7991F;}
	.st99{fill:#F7CC55;}
	.st100{fill:#F7E8DD;}
	.st101{fill:#F8DA02;}
	.st102{fill:#F8E37F;}
	.st103{fill:#F8F0E9;}
	.st104{fill:#F9A65C;}
	.st105{fill:#F9C74F;}
	.st106{fill:#F9C900;}
	.st107{fill:#F9CE82;}
	.st108{fill:#F9ECE0;}
	.st109{fill:#F9ECE4;}
	.st110{fill:#F9EDE4;}
	.st111{clip-path:url(#SVGID_2_);}
	.st112{clip-path:url(#SVGID_4_);}
	.st113{clip-path:url(#SVGID_6_);}
	.st114{clip-path:url(#SVGID_8_);}
	.st115{fill:#C13B3B;}
	.st116{fill:#C16028;}
	.st117{fill:#925A25;}
	.st118{fill:#C35328;}
	.st119{fill:#C42126;}
	.st120{fill:#952E25;}
	.st121{fill:#C4BEBA;}
	.st122{fill:#95C83D;}
	.st123{fill:#C6C3C2;}
	.st124{fill:#2CAEA1;}
	.st125{fill:#989897;}
	.st126{fill:#99B93C;}
	.st127{fill:#C9C9C9;}
	.st128{fill:#FDD300;}
	.st129{fill:#FDD600;}
	.st130{fill:#FDD842;}
	.st131{fill:#FDE500;}
	.st132{opacity:0.5;}
	.st133{opacity:0.6;}
	.st134{opacity:0.8;}
	.st135{fill:#FFDD4D;}
	.st136{fill:#FFEFAE;}
	.st137{fill:#FFFBF8;}
	.st138{fill:#FFFFFF;}
	.st139{fill:#CA2027;}
	.st140{fill:#CB7129;}
	.st141{fill:#CC3828;}
	.st142{fill:#9E4F23;}
	.st143{fill:#CECFD0;}
	.st144{fill:#CF4827;}
	.st145{fill:#39617D;}
	.st146{fill:#D1BAC0;}
	.st147{fill:#034F6D;}
	.st148{fill:#D2AE73;}
	.st149{fill:#D2B676;}
	.st150{fill:#D62127;}
	.st151{fill:#D62427;}
	.st152{fill:#D6AC60;}
	.st153{fill:#D6D0CC;}
	.st154{fill:#D7C527;}
	.st155{fill:#D7D7D7;}
	.st156{fill:#702313;}
	.st157{clip-path:url(#SVGID_10_);}
	.st158{clip-path:url(#SVGID_12_);}
	.st159{clip-path:url(#SVGID_14_);}
	.st160{clip-path:url(#SVGID_16_);}
	.st161{fill:#A31E22;}
	.st162{fill:#A46A28;}
	.st163{fill:#76692A;}
	.st164{fill:#DA1F26;}
	.st165{fill:#DB2F2C;}
	.st166{fill:#DBD0A1;}
	.st167{fill:#DBDDDC;}
	.st168{fill:#A81E22;}
	.st169{fill:#796027;}
	.st170{fill:#DC965F;}
	.st171{fill:#DD9328;}
	.st172{fill:#DD9454;}
	.st173{fill:#DDC97D;}
	.st174{fill:#DDDFE0;}
	.st175{fill:#DDE077;}
	.st176{fill:#DFE0E1;}
]]>
</style>
<g>
	<g>
		<g>
			<g>
				<g>
					<g>
						<circle class="st107" cx="68.417" cy="68.417" r="63.333"/>
					</g>
				</g>
			</g>
		</g>
	</g>
	<g>
		<g>
			<g>
				<path class="st2" d="M117.708,76.095c-0.506,13.094-26.507,23.237-50.176,23.237c-25.17,0-49.125-14.619-45.177-28.723
					c0.274-0.976-2.208-13.221,0.258-14.254c7.396-3.102,24.245,9.396,44.426,9.396c21.732,0,40.396-17.572,49.38-11.521
					C118.559,55.673,117.776,74.303,117.708,76.095z"/>
			</g>
		</g>
		<g>
			<g>
				<path class="st43" d="M116.418,54.231c7.898,14.951-21.813,30.616-48.722,30.616S15.081,65.883,23.583,51.269
					c10.534-18.105,16.546-1.976,43.455-1.976C93.947,49.293,107.201,36.785,116.418,54.231z"/>
			</g>
		</g>
		<g>
			<g>
				<path class="st120" d="M114.498,54.625c7.573,14.335-20.915,29.354-46.714,29.354c-25.798,0-50.445-18.182-42.293-32.193
					c10.1-17.36,15.864-1.895,41.663-1.895C92.952,49.89,105.659,37.896,114.498,54.625z"/>
			</g>
		</g>
		<g>
			<defs>
				<path id="SVGID_5_" d="M116.418,54.231c7.898,14.951-21.813,30.616-48.722,30.616S15.081,65.883,23.583,51.269
					c10.534-18.105,16.546-1.976,43.455-1.976C93.947,49.293,107.201,36.785,116.418,54.231z"/>
			</defs>
			<use xlink:href="#SVGID_5_"  style="overflow:visible;fill:#933526;"/>
			<clipPath id="SVGID_2_">
				<use xlink:href="#SVGID_5_"  style="overflow:visible;"/>
			</clipPath>
			<g class="st111">
				<g>
					<path class="st156" d="M89.204,57.743c0,1.759-2.554,3.183-5.704,3.183c-3.151,0-5.706-1.424-5.706-3.183
						c0-1.758,3.552-2.364,6.703-2.364C87.647,55.378,89.204,55.985,89.204,57.743z"/>
				</g>
			</g>
			<g class="st111">
				<g>
					<path class="st156" d="M50.688,47.427c0,0,5.926,2.963,2.963,8.451c0,0,4.938-2.963,6.584-6.585L50.688,47.427z"/>
				</g>
			</g>
			<g class="st111">
				<g>
					<g>
						<g>
							<path class="st156" d="M92.646,80.897l-1.909-0.192c0.961-9.62,12.371-37.766,12.856-38.959l1.777,0.724
								C105.252,42.758,93.581,71.549,92.646,80.897z"/>
						</g>
					</g>
				</g>
				<g>
					<g>
						<g>
							<path class="st156" d="M104.158,83.455l-1.909-0.191c0.963-9.62,12.371-37.766,12.857-38.96l1.776,0.725
								C116.764,45.317,105.092,74.109,104.158,83.455z"/>
						</g>
					</g>
				</g>
				<g>
					<g>
						<g>
							<path class="st156" d="M43.081,82.495l-1.908-0.191c0.961-9.619,12.371-37.765,12.855-38.958l1.777,0.723
								C55.688,44.357,44.016,73.149,43.081,82.495z"/>
						</g>
					</g>
				</g>
				<g>
					<g>
						<g>
							<path class="st156" d="M30.928,80.576l-1.908-0.189c0.961-9.62,12.371-37.766,12.856-38.959l1.778,0.723
								C43.536,42.438,31.863,71.23,30.928,80.576z"/>
						</g>
					</g>
				</g>
				<g>
					<g>
						<g>
							<path class="st156" d="M22.616,78.337l-1.91-0.19c0.963-9.62,12.371-37.766,12.856-38.958l1.778,0.722
								C35.222,40.201,23.549,68.991,22.616,78.337z"/>
						</g>
					</g>
				</g>
				<g>
					<g>
						<g>
							<path class="st156" d="M65.144,87.932l-1.909-0.191c0.963-9.623,13.907-41.145,14.458-42.48l1.774,0.731
								C79.333,46.316,66.08,78.586,65.144,87.932z"/>
						</g>
					</g>
				</g>
				<g>
					<g>
						<g>
							<path class="st156" d="M51.714,89.531l-1.909-0.192c0.962-9.621,13.907-41.143,14.458-42.479l1.773,0.729
								C65.903,47.915,52.649,80.185,51.714,89.531z"/>
						</g>
					</g>
				</g>
				<g>
					<g>
						<g>
							<path class="st156" d="M79.214,85.374l-1.909-0.191c0.961-9.615,13.289-40.825,13.813-42.149l1.784,0.707
								C92.776,44.062,80.151,76.023,79.214,85.374z"/>
						</g>
					</g>
				</g>
			</g>
		</g>
	</g>
</g>
</svg>
