<?xml version="1.0" encoding="utf-8"?>
<!-- Generator: Adobe Illustrator 16.0.0, SVG Export Plug-In . SVG Version: 6.00 Build 0)  -->
<!DOCTYPE svg PUBLIC "-//W3C//DTD SVG 1.1//EN" "http://www.w3.org/Graphics/SVG/1.1/DTD/svg11.dtd">
<svg version="1.1" id="Layer_1" xmlns="http://www.w3.org/2000/svg" xmlns:xlink="http://www.w3.org/1999/xlink" x="0px" y="0px"
	 width="136.833px" height="136.833px" viewBox="0 0 136.833 136.833" style="enable-background:new 0 0 136.833 136.833;"
	 xml:space="preserve">
<style type="text/css">
<![CDATA[
	.st0{fill:#7A430B;}
	.st1{fill:#AA9A83;}
	.st2{fill:#AC4736;}
	.st3{fill:#499544;}
	.st4{fill:#7D3719;}
	.st5{fill:#AD842D;}
	.st6{fill:#AE8032;}
	.st7{fill:#AF5E27;}
	.st8{fill:#E0A925;}
	.st9{fill:#E0E0E0;}
	.st10{fill:#E1544A;}
	.st11{fill:#E1B623;}
	.st12{fill:#E37926;}
	.st13{fill:#E3DFC6;}
	.st14{fill:#E3E4E5;}
	.st15{fill:#E48225;}
	.st16{fill:#E4C88F;}
	.st17{fill:#E54526;}
	.st18{fill:#E55126;}
	.st19{fill:#4ABC96;}
	.st20{fill:#E5DBCF;}
	.st21{fill:#184166;}
	.st22{fill:#196935;}
	.st23{fill:#4D8741;}
	.st24{fill:#E89C23;}
	.st25{fill:#E8DADD;}
	.st26{fill:#E8EAEB;}
	.st27{fill:#E92C25;}
	.st28{fill:#E9683B;}
	.st29{fill:#E98F23;}
	.st30{fill:#E99323;}
	.st31{fill:#E9B14D;}
	.st32{fill:#E9D8CB;}
	.st33{fill:#E9EEEE;}
	.st34{fill:#B1C635;}
	.st35{fill:#B21F24;}
	.st36{opacity:0.25;}
	.st37{fill:#83B041;}
	.st38{fill:#846A35;}
	.st39{fill:#B3BB35;}
	.st40{fill:#85983A;}
	.st41{fill:#864F4F;}
	.st42{fill:#EA9F3C;}
	.st43{fill:#EAAE7A;}
	.st44{fill:#EAD760;}
	.st45{fill:#B73535;}
	.st46{fill:#B7567D;}
	.st47{fill:#B79051;}
	.st48{fill:#EB7623;}
	.st49{fill:#EB8123;}
	.st50{fill:#EB9682;}
	.st51{fill:#EB9C22;}
	.st52{fill:#1D9E49;}
	.st53{fill:#B88B3B;}
	.st54{fill:#B88C33;}
	.st55{fill:#EC1C24;}
	.st56{fill:#EC2224;}
	.st57{fill:#ECDE7A;}
	.st58{fill:#EDC92C;}
	.st59{fill:#EDEDED;}
	.st60{fill:#EEB760;}
	.st61{fill:#EEE26F;}
	.st62{fill:#EFCF8A;}
	.st63{fill:#EFCFA7;}
	.st64{fill:#EFEFEF;}
	.st65{fill:#EFF2F1;}
	.st66{fill:#543D18;}
	.st67{fill:#568D4D;}
	.st68{fill:#8B5122;}
	.st69{fill:#8BC53F;}
	.st70{fill:#BB6828;}
	.st71{fill:#BB9E70;}
	.st72{fill:#BDDA83;}
	.st73{fill:#BE6328;}
	.st74{fill:#8F8547;}
	.st75{fill:#F0A91E;}
	.st76{fill:#F0B234;}
	.st77{fill:#F1CE6A;}
	.st78{fill:#F1CF13;}
	.st79{fill:#F1E2A3;}
	.st80{fill:#F2BA2C;}
	.st81{fill:#F2CF3B;}
	.st82{fill:#F2E78A;}
	.st83{fill:#F2ECC6;}
	.st84{fill:#F37C2A;}
	.st85{fill:#F3B022;}
	.st86{fill:#F3C121;}
	.st87{fill:#F3C480;}
	.st88{fill:#F3E4CE;}
	.st89{fill:#F4BD1C;}
	.st90{fill:#F4CE9D;}
	.st91{fill:#264E6E;}
	.st92{fill:#F58721;}
	.st93{fill:#F5D1AF;}
	.st94{fill:#F5E11C;}
	.st95{fill:#F69220;}
	.st96{fill:#F6E6E8;}
	.st97{fill:#5C2A2A;}
	.st98{fill:#F7991F;}
	.st99{fill:#F7CC55;}
	.st100{fill:#F7E8DD;}
	.st101{fill:#F8DA02;}
	.st102{fill:#F8E37F;}
	.st103{fill:#F8F0E9;}
	.st104{fill:#F9A65C;}
	.st105{fill:#F9C74F;}
	.st106{fill:#F9C900;}
	.st107{fill:#F9CE82;}
	.st108{fill:#F9ECE0;}
	.st109{fill:#F9ECE4;}
	.st110{fill:#F9EDE4;}
	.st111{clip-path:url(#SVGID_2_);}
	.st112{clip-path:url(#SVGID_4_);}
	.st113{clip-path:url(#SVGID_6_);}
	.st114{clip-path:url(#SVGID_8_);}
	.st115{fill:#C13B3B;}
	.st116{fill:#C16028;}
	.st117{fill:#925A25;}
	.st118{fill:#C35328;}
	.st119{fill:#C42126;}
	.st120{fill:#952E25;}
	.st121{fill:#C4BEBA;}
	.st122{fill:#95C83D;}
	.st123{fill:#C6C3C2;}
	.st124{fill:#2CAEA1;}
	.st125{fill:#989897;}
	.st126{fill:#99B93C;}
	.st127{fill:#C9C9C9;}
	.st128{fill:#FDD300;}
	.st129{fill:#FDD600;}
	.st130{fill:#FDD842;}
	.st131{fill:#FDE500;}
	.st132{opacity:0.5;}
	.st133{opacity:0.6;}
	.st134{opacity:0.8;}
	.st135{fill:#FFDD4D;}
	.st136{fill:#FFEFAE;}
	.st137{fill:#FFFBF8;}
	.st138{fill:#FFFFFF;}
	.st139{fill:#CA2027;}
	.st140{fill:#CB7129;}
	.st141{fill:#CC3828;}
	.st142{fill:#9E4F23;}
	.st143{fill:#CECFD0;}
	.st144{fill:#CF4827;}
	.st145{fill:#39617D;}
	.st146{fill:#D1BAC0;}
	.st147{fill:#034F6D;}
	.st148{fill:#D2AE73;}
	.st149{fill:#D2B676;}
	.st150{fill:#D62127;}
	.st151{fill:#D62427;}
	.st152{fill:#D6AC60;}
	.st153{fill:#D6D0CC;}
	.st154{fill:#D7C527;}
	.st155{fill:#D7D7D7;}
	.st156{fill:#702313;}
	.st157{clip-path:url(#SVGID_10_);}
	.st158{clip-path:url(#SVGID_12_);}
	.st159{clip-path:url(#SVGID_14_);}
	.st160{clip-path:url(#SVGID_16_);}
	.st161{fill:#A31E22;}
	.st162{fill:#A46A28;}
	.st163{fill:#76692A;}
	.st164{fill:#DA1F26;}
	.st165{fill:#DB2F2C;}
	.st166{fill:#DBD0A1;}
	.st167{fill:#DBDDDC;}
	.st168{fill:#A81E22;}
	.st169{fill:#796027;}
	.st170{fill:#DC965F;}
	.st171{fill:#DD9328;}
	.st172{fill:#DD9454;}
	.st173{fill:#DDC97D;}
	.st174{fill:#DDDFE0;}
	.st175{fill:#DDE077;}
	.st176{fill:#DFE0E1;}
]]>
</style>
<g>
	<g>
		<g>
			<g>
				<g>
					<g>
						<circle class="st106" cx="68.416" cy="68.417" r="63.333"/>
					</g>
				</g>
			</g>
		</g>
	</g>
	<g>
		<g>
			<g>
				<path class="st152" d="M84.087,56.382H53.845c-0.496,1.794-0.496,4.703,0,6.496l14.223,51.258c0.496,1.794,1.303,1.796,1.801,0
					l14.219-51.258C84.587,61.085,84.587,58.176,84.087,56.382z"/>
			</g>
		</g>
		<g>
			<g>
				<g class="st133">
					<path class="st47" d="M66.104,96.674c-0.729,0-1.367-0.53-1.48-1.272l-4.256-27.727c-0.127-0.818,0.436-1.585,1.254-1.71
						c0.814-0.125,1.586,0.435,1.711,1.255l4.256,27.727c0.125,0.818-0.436,1.585-1.256,1.71
						C66.257,96.668,66.181,96.674,66.104,96.674z"/>
				</g>
			</g>
			<g>
				<g class="st133">
					<path class="st47" d="M71.39,96.674c-0.076,0-0.152-0.006-0.23-0.018c-0.818-0.125-1.381-0.891-1.254-1.71l4.254-27.727
						c0.125-0.82,0.895-1.38,1.711-1.255c0.818,0.125,1.381,0.891,1.254,1.71L72.87,95.402
						C72.757,96.144,72.116,96.674,71.39,96.674z"/>
				</g>
			</g>
			<g>
				<g class="st133">
					<path class="st47" d="M68.747,95.443c-0.828,0-1.5-0.672-1.5-1.5V65.997c0-0.828,0.672-1.5,1.5-1.5s1.5,0.672,1.5,1.5v27.946
						C70.247,94.771,69.575,95.443,68.747,95.443z"/>
				</g>
			</g>
		</g>
		<g>
			<g>
				<ellipse class="st172" cx="68.766" cy="59.78" rx="15.681" ry="2.75"/>
			</g>
		</g>
		<g>
			<g>
				<g>
					<path class="st108" d="M65.854,30.988c0,0-6.041,4.093-4.023,10.471c2.018,6.38,7.057,10.794,9.215,11.938
						c2.16,1.146,11.141,2.76,12.006,5.54c0,0-1.934-5.708-8.41-10.612S64.708,34.915,65.854,30.988z"/>
				</g>
			</g>
			<g>
				<g>
					<path class="st137" d="M84.519,45.438c-6.848-8.17-17.205-20.89-15.697-26.042c0,0-4.631,4.716-7.359,10.301
						c-3.713,3.196-9.328,8.789-9.021,13.116c-1.887,2.528-3.441,5.594-2.986,8.494c1.174,7.482,5.879,9.672,8.037,10.814
						c2,1.061,7.965,2.921,14.9-1.585c4.156,1.38,9.113,2.212,11.982-0.134C89.214,56.443,90.79,52.921,84.519,45.438z"/>
				</g>
			</g>
			<g>
				<g>
					<path class="st103" d="M68.489,28.427c0,0-2.945,4.581-2.559,11.275c0.389,6.697,2.369,8.758,3.254,10.024
						c0.883,1.267,3.318,4.537,3.48,7.453c0,0-1.738-5.66-4.271-10.987C65.86,40.865,67.642,32.462,68.489,28.427z"/>
				</g>
			</g>
		</g>
	</g>
</g>
</svg>
