<?xml version="1.0" encoding="utf-8"?>
<!-- Generator: Adobe Illustrator 16.0.0, SVG Export Plug-In . SVG Version: 6.00 Build 0)  -->
<!DOCTYPE svg PUBLIC "-//W3C//DTD SVG 1.1//EN" "http://www.w3.org/Graphics/SVG/1.1/DTD/svg11.dtd">
<svg version="1.1" id="Layer_1" xmlns="http://www.w3.org/2000/svg" xmlns:xlink="http://www.w3.org/1999/xlink" x="0px" y="0px"
	 width="136.833px" height="136.833px" viewBox="0 0 136.833 136.833" style="enable-background:new 0 0 136.833 136.833;"
	 xml:space="preserve">
<style type="text/css">
<![CDATA[
	.st0{fill:#7A430B;}
	.st1{fill:#AA9A83;}
	.st2{fill:#AC4736;}
	.st3{fill:#499544;}
	.st4{fill:#7D3719;}
	.st5{fill:#AD842D;}
	.st6{fill:#AE8032;}
	.st7{fill:#AF5E27;}
	.st8{fill:#E0A925;}
	.st9{fill:#E0E0E0;}
	.st10{fill:#E1544A;}
	.st11{fill:#E1B623;}
	.st12{fill:#E37926;}
	.st13{fill:#E3DFC6;}
	.st14{fill:#E3E4E5;}
	.st15{fill:#E48225;}
	.st16{fill:#E4C88F;}
	.st17{fill:#E54526;}
	.st18{fill:#E55126;}
	.st19{fill:#4ABC96;}
	.st20{fill:#E5DBCF;}
	.st21{fill:#184166;}
	.st22{fill:#196935;}
	.st23{fill:#4D8741;}
	.st24{fill:#E89C23;}
	.st25{fill:#E8DADD;}
	.st26{fill:#E8EAEB;}
	.st27{fill:#E92C25;}
	.st28{fill:#E9683B;}
	.st29{fill:#E98F23;}
	.st30{fill:#E99323;}
	.st31{fill:#E9B14D;}
	.st32{fill:#E9D8CB;}
	.st33{fill:#E9EEEE;}
	.st34{fill:#B1C635;}
	.st35{fill:#B21F24;}
	.st36{opacity:0.25;}
	.st37{fill:#83B041;}
	.st38{fill:#846A35;}
	.st39{fill:#B3BB35;}
	.st40{fill:#85983A;}
	.st41{fill:#864F4F;}
	.st42{fill:#EA9F3C;}
	.st43{fill:#EAAE7A;}
	.st44{fill:#EAD760;}
	.st45{fill:#B73535;}
	.st46{fill:#B7567D;}
	.st47{fill:#B79051;}
	.st48{fill:#EB7623;}
	.st49{fill:#EB8123;}
	.st50{fill:#EB9682;}
	.st51{fill:#EB9C22;}
	.st52{fill:#1D9E49;}
	.st53{fill:#B88B3B;}
	.st54{fill:#B88C33;}
	.st55{fill:#EC1C24;}
	.st56{fill:#EC2224;}
	.st57{fill:#ECDE7A;}
	.st58{fill:#EDC92C;}
	.st59{fill:#EDEDED;}
	.st60{fill:#EEB760;}
	.st61{fill:#EEE26F;}
	.st62{fill:#EFCF8A;}
	.st63{fill:#EFCFA7;}
	.st64{fill:#EFEFEF;}
	.st65{fill:#EFF2F1;}
	.st66{fill:#543D18;}
	.st67{fill:#568D4D;}
	.st68{fill:#8B5122;}
	.st69{fill:#8BC53F;}
	.st70{fill:#BB6828;}
	.st71{fill:#BB9E70;}
	.st72{fill:#BDDA83;}
	.st73{fill:#BE6328;}
	.st74{fill:#8F8547;}
	.st75{fill:#F0A91E;}
	.st76{fill:#F0B234;}
	.st77{fill:#F1CE6A;}
	.st78{fill:#F1CF13;}
	.st79{fill:#F1E2A3;}
	.st80{fill:#F2BA2C;}
	.st81{fill:#F2CF3B;}
	.st82{fill:#F2E78A;}
	.st83{fill:#F2ECC6;}
	.st84{fill:#F37C2A;}
	.st85{fill:#F3B022;}
	.st86{fill:#F3C121;}
	.st87{fill:#F3C480;}
	.st88{fill:#F3E4CE;}
	.st89{fill:#F4BD1C;}
	.st90{fill:#F4CE9D;}
	.st91{fill:#264E6E;}
	.st92{fill:#F58721;}
	.st93{fill:#F5D1AF;}
	.st94{fill:#F5E11C;}
	.st95{fill:#F69220;}
	.st96{fill:#F6E6E8;}
	.st97{fill:#5C2A2A;}
	.st98{fill:#F7991F;}
	.st99{fill:#F7CC55;}
	.st100{fill:#F7E8DD;}
	.st101{fill:#F8DA02;}
	.st102{fill:#F8E37F;}
	.st103{fill:#F8F0E9;}
	.st104{fill:#F9A65C;}
	.st105{fill:#F9C74F;}
	.st106{fill:#F9C900;}
	.st107{fill:#F9CE82;}
	.st108{fill:#F9ECE0;}
	.st109{fill:#F9ECE4;}
	.st110{fill:#F9EDE4;}
	.st111{clip-path:url(#SVGID_2_);}
	.st112{clip-path:url(#SVGID_4_);}
	.st113{clip-path:url(#SVGID_6_);}
	.st114{clip-path:url(#SVGID_8_);}
	.st115{fill:#C13B3B;}
	.st116{fill:#C16028;}
	.st117{fill:#925A25;}
	.st118{fill:#C35328;}
	.st119{fill:#C42126;}
	.st120{fill:#952E25;}
	.st121{fill:#C4BEBA;}
	.st122{fill:#95C83D;}
	.st123{fill:#C6C3C2;}
	.st124{fill:#2CAEA1;}
	.st125{fill:#989897;}
	.st126{fill:#99B93C;}
	.st127{fill:#C9C9C9;}
	.st128{fill:#FDD300;}
	.st129{fill:#FDD600;}
	.st130{fill:#FDD842;}
	.st131{fill:#FDE500;}
	.st132{opacity:0.5;}
	.st133{opacity:0.6;}
	.st134{opacity:0.8;}
	.st135{fill:#FFDD4D;}
	.st136{fill:#FFEFAE;}
	.st137{fill:#FFFBF8;}
	.st138{fill:#FFFFFF;}
	.st139{fill:#CA2027;}
	.st140{fill:#CB7129;}
	.st141{fill:#CC3828;}
	.st142{fill:#9E4F23;}
	.st143{fill:#CECFD0;}
	.st144{fill:#CF4827;}
	.st145{fill:#39617D;}
	.st146{fill:#D1BAC0;}
	.st147{fill:#034F6D;}
	.st148{fill:#D2AE73;}
	.st149{fill:#D2B676;}
	.st150{fill:#D62127;}
	.st151{fill:#D62427;}
	.st152{fill:#D6AC60;}
	.st153{fill:#D6D0CC;}
	.st154{fill:#D7C527;}
	.st155{fill:#D7D7D7;}
	.st156{fill:#702313;}
	.st157{clip-path:url(#SVGID_10_);}
	.st158{clip-path:url(#SVGID_12_);}
	.st159{clip-path:url(#SVGID_14_);}
	.st160{clip-path:url(#SVGID_16_);}
	.st161{fill:#A31E22;}
	.st162{fill:#A46A28;}
	.st163{fill:#76692A;}
	.st164{fill:#DA1F26;}
	.st165{fill:#DB2F2C;}
	.st166{fill:#DBD0A1;}
	.st167{fill:#DBDDDC;}
	.st168{fill:#A81E22;}
	.st169{fill:#796027;}
	.st170{fill:#DC965F;}
	.st171{fill:#DD9328;}
	.st172{fill:#DD9454;}
	.st173{fill:#DDC97D;}
	.st174{fill:#DDDFE0;}
	.st175{fill:#DDE077;}
	.st176{fill:#DFE0E1;}
]]>
</style>
<g>
	<g>
		<g>
			<g>
				<g>
					<g>
						<circle class="st34" cx="68.417" cy="68.417" r="63.333"/>
					</g>
				</g>
			</g>
		</g>
	</g>
	<g>
		<g>
			<g class="st132">
				<g>
					<path class="st138" d="M78.14,43.99c-8.441-8.547-7.453-14.604-7.453-14.604c-3.938,5.697-1.059,9.74,2.028,13.404
						c12.746,15.131-0.138,23.367-0.138,23.367l0.076,0.193c5.381-2.143,8.602-4.744,9.813-7.965
						C84.248,53.648,83.193,49.109,78.14,43.99z"/>
				</g>
			</g>
			<g class="st132">
				<g>
					<path class="st138" d="M67.534,67.179c6.673-10.844,1.808-16.543-4.448-23.492c-9.148-10.166,7.785-19.465,7.785-19.465
						s-16.055,0.813-14.875,15.85c0.556,7.09,7.367,7.785,10.148,14.873C68.613,61.244,67.534,67.179,67.534,67.179z"/>
				</g>
			</g>
			<g class="st132">
				<g>
					<path class="st138" d="M62.141,65.251c1.878-9.707-3.22-12.516-9.67-15.854c-9.433-4.879,0.324-16.275,0.324-16.275
						s-11.444,4.986-6.468,15.592c2.348,5,7.488,3.639,11.451,8.029C61.299,60.644,62.141,65.251,62.141,65.251z"/>
				</g>
			</g>
			<g>
				<g>
					<path class="st64" d="M97.527,81.583c0-4.174-2.065-7.783-5.622-9.559c-0.001-0.434-0.003-0.854-0.003-1.25H44.344
						c0,9.955-0.853,31.689,23.779,31.689c11.157,0,17.085-4.459,20.233-10.264C94.057,91.458,97.527,86.994,97.527,81.583z
						 M89.76,89.062c1.657-4.545,2.041-9.523,2.124-13.697c1.682,1.473,2.574,3.711,2.574,6.219
						C94.458,84.994,92.804,87.9,89.76,89.062z"/>
				</g>
			</g>
			<g>
				<g>
					<path class="st175" d="M46.377,75.958c0.157,9.906,2.011,25.158,21.746,25.158c18.472,0,21.292-14.486,21.692-25.15
						C89.867,74.611,46.356,74.554,46.377,75.958z"/>
				</g>
			</g>
			<g class="st132">
				<g>
					<path class="st1" d="M79.693,70.054c-0.475-0.283-1.089-0.127-1.37,0.348c-0.271,0.455-4.146,11.131-4.851,15.357
						c-0.004,0.022,0.005,0.043,0.002,0.064h-0.709c-0.554,0.001-3.51,2.896-3.51,3.81v6.55c0,1.107,0.897,2.004,2.005,2.004h6.014
						c1.107,0,2.005-0.896,2.005-2.004v-6.55c0-0.913-2.954-3.809-3.508-3.81h-0.273c0.867-4.059,4.48-14.294,4.544-14.4
						C80.324,70.949,80.167,70.335,79.693,70.054z"/>
				</g>
			</g>
			<g>
				<g>
					<path class="st59" d="M100.339,99.751c0,5.1-20.455,6.633-32.473,6.633c-9.716,0-31.959-2.045-31.959-6.633H100.339z"/>
				</g>
			</g>
		</g>
		<g>
			<g>
				<g>
					<g>
						<g>
							<path class="st1" d="M86.251,82.195c-0.055,0-0.109-0.004-0.165-0.014c-0.545-0.091-0.913-0.605-0.822-1.15
								c0.429-2.571-3.838-7.33-6.627-9.727c-0.419-0.359-0.467-0.99-0.107-1.41c0.359-0.418,0.99-0.467,1.41-0.107
								c0.826,0.709,8.05,7.057,7.297,11.572C87.156,81.848,86.732,82.195,86.251,82.195z"/>
						</g>
					</g>
				</g>
				<g>
					<g>
						<path class="st122" d="M90.466,88.881c0,0.928-0.752,1.679-1.68,1.679h-5.039c-0.928,0-1.68-0.751-1.68-1.679v-5.488
							c0-0.766,2.477-3.191,2.94-3.192h2.519c0.464,0.001,2.939,2.427,2.939,3.192V88.881z"/>
					</g>
				</g>
				<g>
					<g>
						<path class="st72" d="M89.207,84.327c0,0.321-0.261,0.581-0.581,0.581H84.24c-0.32,0-0.58-0.26-0.58-0.581l0,0
							c0-0.319,0.26-0.579,0.58-0.579h4.386C88.946,83.748,89.207,84.007,89.207,84.327L89.207,84.327z"/>
					</g>
				</g>
				<g>
					<g>
						<path class="st72" d="M89.207,86.52c0,0.32-0.261,0.581-0.581,0.581H84.24c-0.32,0-0.58-0.261-0.58-0.581l0,0
							c0-0.321,0.26-0.581,0.58-0.581h4.386C88.946,85.939,89.207,86.199,89.207,86.52L89.207,86.52z"/>
					</g>
				</g>
				<g>
					<g>
						<path class="st72" d="M89.207,88.841c0,0.32-0.261,0.58-0.581,0.58H84.24c-0.32,0-0.58-0.26-0.58-0.58l0,0
							c0-0.32,0.26-0.58,0.58-0.58h4.386C88.946,88.261,89.207,88.521,89.207,88.841L89.207,88.841z"/>
					</g>
				</g>
			</g>
			<g>
				<g>
					<ellipse class="st1" cx="86.339" cy="81.183" rx="0.512" ry="0.383"/>
				</g>
			</g>
		</g>
	</g>
</g>
</svg>
