<?xml version="1.0" encoding="utf-8"?>
<!-- Generator: Adobe Illustrator 16.0.0, SVG Export Plug-In . SVG Version: 6.00 Build 0)  -->
<!DOCTYPE svg PUBLIC "-//W3C//DTD SVG 1.1//EN" "http://www.w3.org/Graphics/SVG/1.1/DTD/svg11.dtd">
<svg version="1.1" id="Layer_1" xmlns="http://www.w3.org/2000/svg" xmlns:xlink="http://www.w3.org/1999/xlink" x="0px" y="0px"
	 width="136.833px" height="136.833px" viewBox="0 0 136.833 136.833" style="enable-background:new 0 0 136.833 136.833;"
	 xml:space="preserve">
<style type="text/css">
<![CDATA[
	.st0{fill:#7A430B;}
	.st1{fill:#AA9A83;}
	.st2{fill:#AC4736;}
	.st3{fill:#499544;}
	.st4{fill:#7D3719;}
	.st5{fill:#AD842D;}
	.st6{fill:#AE8032;}
	.st7{fill:#AF5E27;}
	.st8{fill:#E0A925;}
	.st9{fill:#E0E0E0;}
	.st10{fill:#E1544A;}
	.st11{fill:#E1B623;}
	.st12{fill:#E37926;}
	.st13{fill:#E3DFC6;}
	.st14{fill:#E3E4E5;}
	.st15{fill:#E48225;}
	.st16{fill:#E4C88F;}
	.st17{fill:#E54526;}
	.st18{fill:#E55126;}
	.st19{fill:#4ABC96;}
	.st20{fill:#E5DBCF;}
	.st21{fill:#184166;}
	.st22{fill:#196935;}
	.st23{fill:#4D8741;}
	.st24{fill:#E89C23;}
	.st25{fill:#E8DADD;}
	.st26{fill:#E8EAEB;}
	.st27{fill:#E92C25;}
	.st28{fill:#E9683B;}
	.st29{fill:#E98F23;}
	.st30{fill:#E99323;}
	.st31{fill:#E9B14D;}
	.st32{fill:#E9D8CB;}
	.st33{fill:#E9EEEE;}
	.st34{fill:#B1C635;}
	.st35{fill:#B21F24;}
	.st36{opacity:0.25;}
	.st37{fill:#83B041;}
	.st38{fill:#846A35;}
	.st39{fill:#B3BB35;}
	.st40{fill:#85983A;}
	.st41{fill:#864F4F;}
	.st42{fill:#EA9F3C;}
	.st43{fill:#EAAE7A;}
	.st44{fill:#EAD760;}
	.st45{fill:#B73535;}
	.st46{fill:#B7567D;}
	.st47{fill:#B79051;}
	.st48{fill:#EB7623;}
	.st49{fill:#EB8123;}
	.st50{fill:#EB9682;}
	.st51{fill:#EB9C22;}
	.st52{fill:#1D9E49;}
	.st53{fill:#B88B3B;}
	.st54{fill:#B88C33;}
	.st55{fill:#EC1C24;}
	.st56{fill:#EC2224;}
	.st57{fill:#ECDE7A;}
	.st58{fill:#EDC92C;}
	.st59{fill:#EDEDED;}
	.st60{fill:#EEB760;}
	.st61{fill:#EEE26F;}
	.st62{fill:#EFCF8A;}
	.st63{fill:#EFCFA7;}
	.st64{fill:#EFEFEF;}
	.st65{fill:#EFF2F1;}
	.st66{fill:#543D18;}
	.st67{fill:#568D4D;}
	.st68{fill:#8B5122;}
	.st69{fill:#8BC53F;}
	.st70{fill:#BB6828;}
	.st71{fill:#BB9E70;}
	.st72{fill:#BDDA83;}
	.st73{fill:#BE6328;}
	.st74{fill:#8F8547;}
	.st75{fill:#F0A91E;}
	.st76{fill:#F0B234;}
	.st77{fill:#F1CE6A;}
	.st78{fill:#F1CF13;}
	.st79{fill:#F1E2A3;}
	.st80{fill:#F2BA2C;}
	.st81{fill:#F2CF3B;}
	.st82{fill:#F2E78A;}
	.st83{fill:#F2ECC6;}
	.st84{fill:#F37C2A;}
	.st85{fill:#F3B022;}
	.st86{fill:#F3C121;}
	.st87{fill:#F3C480;}
	.st88{fill:#F3E4CE;}
	.st89{fill:#F4BD1C;}
	.st90{fill:#F4CE9D;}
	.st91{fill:#264E6E;}
	.st92{fill:#F58721;}
	.st93{fill:#F5D1AF;}
	.st94{fill:#F5E11C;}
	.st95{fill:#F69220;}
	.st96{fill:#F6E6E8;}
	.st97{fill:#5C2A2A;}
	.st98{fill:#F7991F;}
	.st99{fill:#F7CC55;}
	.st100{fill:#F7E8DD;}
	.st101{fill:#F8DA02;}
	.st102{fill:#F8E37F;}
	.st103{fill:#F8F0E9;}
	.st104{fill:#F9A65C;}
	.st105{fill:#F9C74F;}
	.st106{fill:#F9C900;}
	.st107{fill:#F9CE82;}
	.st108{fill:#F9ECE0;}
	.st109{fill:#F9ECE4;}
	.st110{fill:#F9EDE4;}
	.st111{clip-path:url(#SVGID_2_);}
	.st112{clip-path:url(#SVGID_4_);}
	.st113{clip-path:url(#SVGID_6_);}
	.st114{clip-path:url(#SVGID_8_);}
	.st115{fill:#C13B3B;}
	.st116{fill:#C16028;}
	.st117{fill:#925A25;}
	.st118{fill:#C35328;}
	.st119{fill:#C42126;}
	.st120{fill:#952E25;}
	.st121{fill:#C4BEBA;}
	.st122{fill:#95C83D;}
	.st123{fill:#C6C3C2;}
	.st124{fill:#2CAEA1;}
	.st125{fill:#989897;}
	.st126{fill:#99B93C;}
	.st127{fill:#C9C9C9;}
	.st128{fill:#FDD300;}
	.st129{fill:#FDD600;}
	.st130{fill:#FDD842;}
	.st131{fill:#FDE500;}
	.st132{opacity:0.5;}
	.st133{opacity:0.6;}
	.st134{opacity:0.8;}
	.st135{fill:#FFDD4D;}
	.st136{fill:#FFEFAE;}
	.st137{fill:#FFFBF8;}
	.st138{fill:#FFFFFF;}
	.st139{fill:#CA2027;}
	.st140{fill:#CB7129;}
	.st141{fill:#CC3828;}
	.st142{fill:#9E4F23;}
	.st143{fill:#CECFD0;}
	.st144{fill:#CF4827;}
	.st145{fill:#39617D;}
	.st146{fill:#D1BAC0;}
	.st147{fill:#034F6D;}
	.st148{fill:#D2AE73;}
	.st149{fill:#D2B676;}
	.st150{fill:#D62127;}
	.st151{fill:#D62427;}
	.st152{fill:#D6AC60;}
	.st153{fill:#D6D0CC;}
	.st154{fill:#D7C527;}
	.st155{fill:#D7D7D7;}
	.st156{fill:#702313;}
	.st157{clip-path:url(#SVGID_10_);}
	.st158{clip-path:url(#SVGID_12_);}
	.st159{clip-path:url(#SVGID_14_);}
	.st160{clip-path:url(#SVGID_16_);}
	.st161{fill:#A31E22;}
	.st162{fill:#A46A28;}
	.st163{fill:#76692A;}
	.st164{fill:#DA1F26;}
	.st165{fill:#DB2F2C;}
	.st166{fill:#DBD0A1;}
	.st167{fill:#DBDDDC;}
	.st168{fill:#A81E22;}
	.st169{fill:#796027;}
	.st170{fill:#DC965F;}
	.st171{fill:#DD9328;}
	.st172{fill:#DD9454;}
	.st173{fill:#DDC97D;}
	.st174{fill:#DDDFE0;}
	.st175{fill:#DDE077;}
	.st176{fill:#DFE0E1;}
]]>
</style>
<g>
	<g>
		<g>
			<g>
				<g>
					<g>
						<circle class="st166" cx="68.417" cy="68.417" r="63.333"/>
					</g>
				</g>
			</g>
		</g>
	</g>
	<g>
		<g>
			<g>
				<g>
					<path class="st153" d="M126.876,72.421c0,2.272-25.8,19.145-57.623,19.145c-31.825,0-57.624-16.872-57.624-19.145
						c0-2.273,25.799,10.914,57.624,10.914C101.077,83.335,126.876,70.148,126.876,72.421z"/>
				</g>
			</g>
			<g>
				<g>
					<path class="st110" d="M126.876,72.519c0,2.273-25.8,21.953-57.623,21.953c-31.825,0-57.624-19.68-57.624-21.953
						S36.93,88.517,68.754,88.517S126.876,70.246,126.876,72.519z"/>
				</g>
			</g>
			<g>
				<g>
					<path class="st110" d="M38.737,93.898c0-3.014,8.174-3.443,30.557-3.443s30.476,0.861,30.476,3.443
						c0,1.203-13.663,1.506-30.516,1.506C52.399,95.404,38.737,95.101,38.737,93.898z"/>
				</g>
			</g>
		</g>
		<g>
			<g>
				<g>
					<path class="st89" d="M102.898,73.666c-0.116,5.709-4.801,9.397-10.484,9.282c-5.683-0.116-10.21-3.993-10.096-9.702
						c0.106-5.16,3.247-9.375,8.183-10.049c0.525-0.072,1.809,0.229,2.357,0.239c0.484,0.009,1.633-0.249,2.101-0.175
						C99.95,64.062,103.004,68.445,102.898,73.666z"/>
				</g>
			</g>
			<g>
				<g>
					<path class="st24" d="M102.497,73.447c-0.111,5.469-4.601,9.006-10.046,8.895s-9.787-3.826-9.675-9.298
						c0.102-4.944,3.111-8.983,7.84-9.63c0.504-0.067,1.735,0.22,2.259,0.23c0.466,0.01,1.566-0.239,2.013-0.168
						C99.67,64.246,102.597,68.443,102.497,73.447z"/>
				</g>
			</g>
			<g>
				<g>
					<g>
						
							<ellipse transform="matrix(0.9998 0.0189 -0.0189 0.9998 1.3054 -1.7885)" class="st171" cx="95.291" cy="68.177" rx="0.284" ry="0.336"/>
					</g>
				</g>
				<g>
					<g>
						<path class="st171" d="M98.41,71.613c-0.005,0.229-0.169,0.416-0.364,0.412c-0.194-0.004-0.35-0.195-0.346-0.428
							c0.006-0.233,0.168-0.418,0.363-0.414C98.259,71.187,98.414,71.378,98.41,71.613z"/>
					</g>
				</g>
				<g>
					<g>
						
							<ellipse transform="matrix(0.9998 0.018 -0.018 0.9998 1.4117 -1.5501)" class="st171" cx="87.043" cy="77.851" rx="0.354" ry="0.421"/>
					</g>
				</g>
				<g>
					<g>
						
							<ellipse transform="matrix(0.9998 0.0193 -0.0193 0.9998 1.4066 -1.7064)" class="st171" cx="89.201" cy="72.098" rx="0.355" ry="0.421"/>
					</g>
				</g>
				<g>
					<g>
						<path class="st171" d="M95.118,77.41c-0.005,0.231-0.167,0.417-0.363,0.412c-0.195-0.004-0.35-0.195-0.344-0.426
							c0.004-0.234,0.166-0.418,0.361-0.416C94.968,76.984,95.124,77.176,95.118,77.41z"/>
					</g>
				</g>
				<g>
					<g>
						
							<ellipse transform="matrix(0.9998 0.0193 -0.0193 0.9998 1.4163 -1.79)" class="st171" cx="93.669" cy="72.661" rx="0.355" ry="0.421"/>
					</g>
				</g>
				<g>
					<g>
						
							<ellipse transform="matrix(0.9998 0.022 -0.022 0.9998 1.5042 -1.9325)" class="st171" cx="88.449" cy="67.296" rx="0.355" ry="0.42"/>
					</g>
				</g>
				<g>
					<g>
						<path class="st171" d="M86.124,73.654c-0.006,0.229-0.168,0.416-0.364,0.412c-0.194-0.004-0.35-0.195-0.345-0.426
							c0.004-0.234,0.166-0.42,0.362-0.417C85.972,73.229,86.127,73.419,86.124,73.654z"/>
					</g>
				</g>
				<g>
					<g>
						
							<ellipse transform="matrix(0.9998 0.022 -0.022 0.9998 1.6941 -1.9703)" class="st171" cx="90.259" cy="75.894" rx="0.355" ry="0.421"/>
					</g>
				</g>
				<g>
					<g>
						
							<ellipse transform="matrix(0.9998 0.0221 -0.0221 0.9998 1.789 -1.9813)" class="st171" cx="90.683" cy="80.083" rx="0.354" ry="0.419"/>
					</g>
				</g>
				<g>
					<g>
						<path class="st171" d="M92.155,69.124c-0.006,0.231-0.169,0.416-0.365,0.413c-0.194-0.004-0.35-0.197-0.344-0.427
							c0.003-0.233,0.166-0.42,0.361-0.415C92.003,68.699,92.159,68.891,92.155,69.124z"/>
					</g>
				</g>
				<g>
					<g>
						
							<ellipse transform="matrix(0.9998 0.0221 -0.0221 0.9998 1.6899 -2.1639)" class="st171" cx="98.772" cy="75.394" rx="0.354" ry="0.42"/>
					</g>
				</g>
				<g>
					<g>
						<path class="st171" d="M97.331,80.083c-0.004,0.23-0.168,0.416-0.364,0.412c-0.194-0.002-0.35-0.196-0.345-0.426
							c0.004-0.234,0.168-0.418,0.363-0.416C97.18,79.658,97.334,79.851,97.331,80.083z"/>
					</g>
				</g>
				<g>
					<g>
						
							<ellipse transform="matrix(0.9998 0.0207 -0.0207 0.9998 1.4015 -2.0214)" class="st171" cx="98.548" cy="66.828" rx="0.355" ry="0.421"/>
					</g>
				</g>
				<g>
					<g>
						
							<ellipse transform="matrix(0.9998 0.0206 -0.0206 0.9998 1.5331 -1.8729)" class="st171" cx="91.613" cy="73.427" rx="0.284" ry="0.337"/>
					</g>
				</g>
				<g>
					<g>
						
							<ellipse transform="matrix(0.9997 0.0224 -0.0224 0.9997 1.5784 -1.903)" class="st171" cx="85.851" cy="69.602" rx="0.284" ry="0.336"/>
					</g>
				</g>
				<g>
					<g>
						
							<ellipse transform="matrix(0.9998 0.0206 -0.0206 0.9998 1.689 -1.9229)" class="st171" cx="93.955" cy="80.823" rx="0.284" ry="0.337"/>
					</g>
				</g>
				<g>
					<g>
						
							<ellipse transform="matrix(0.9998 0.0207 -0.0207 0.9998 1.6338 -2.03)" class="st171" cx="98.946" cy="77.958" rx="0.283" ry="0.336"/>
					</g>
				</g>
				<g>
					<g>
						<path class="st171" d="M96.477,73.999c-0.004,0.186-0.135,0.333-0.291,0.329c-0.156,0-0.281-0.156-0.277-0.34
							c0.005-0.188,0.135-0.336,0.291-0.332C96.356,73.658,96.481,73.812,96.477,73.999z"/>
					</g>
				</g>
				<g>
					<g>
						
							<ellipse transform="matrix(0.9998 0.0189 -0.0189 0.9998 1.3675 -1.9078)" class="st171" cx="101.63" cy="71.406" rx="0.284" ry="0.336"/>
					</g>
				</g>
				<g>
					<g>
						
							<ellipse transform="matrix(0.9998 0.0206 -0.0206 0.9998 1.5893 -1.714)" class="st171" cx="83.791" cy="76.099" rx="0.284" ry="0.337"/>
					</g>
				</g>
				<g>
					<g>
						<path class="st171" d="M92.409,65.017c-0.004,0.186-0.134,0.334-0.291,0.33c-0.156-0.003-0.281-0.157-0.277-0.341
							c0.004-0.188,0.135-0.335,0.291-0.333C92.288,64.676,92.411,64.831,92.409,65.017z"/>
					</g>
				</g>
			</g>
			<g>
				<g>
					<path class="st5" d="M94.02,63.768c-0.004,0.162-0.298,0.249-0.559,0.345c-0.215,0.076-0.367,0.176-0.673,0.168
						c-0.251-0.004-0.425-0.15-0.618-0.213c-0.322-0.104-0.591-0.164-0.586-0.351c0.002-0.173,0.201-0.232,0.488-0.327
						c0.209-0.068,0.47-0.107,0.753-0.102c0.253,0.006,0.426,0.103,0.62,0.164C93.768,63.556,94.024,63.583,94.02,63.768z"/>
				</g>
			</g>
		</g>
		<g>
			<g>
				<g>
					<path class="st104" d="M95.348,77.848c0.538,3.35-2.32,6.087-6.285,6.724c-3.965,0.638-7.536-1.066-8.075-4.417
						c-0.485-3.028,1.241-5.88,4.601-6.886c0.359-0.107,1.283-0.092,1.666-0.152c0.338-0.056,1.109-0.349,1.443-0.363
						C92.256,72.603,94.856,74.785,95.348,77.848z"/>
				</g>
			</g>
			<g>
				<g>
					<path class="st92" d="M95.045,77.771c0.516,3.209-2.223,5.832-6.023,6.442s-7.222-1.021-7.738-4.233
						c-0.466-2.9,1.189-5.635,4.409-6.599c0.343-0.103,1.23-0.087,1.596-0.146c0.325-0.053,1.063-0.334,1.382-0.348
						C92.082,72.744,94.574,74.833,95.045,77.771z"/>
				</g>
			</g>
			<g>
				<g>
					<circle class="st104" cx="89.461" cy="75.585" r="0.2"/>
				</g>
			</g>
			<g>
				<g>
					<circle class="st104" cx="91.756" cy="77.244" r="0.251"/>
				</g>
			</g>
			<g>
				<g>
					<circle class="st104" cx="84.773" cy="82.261" r="0.25"/>
				</g>
			</g>
			<g>
				<g>
					<circle class="st104" cx="85.651" cy="78.631" r="0.25"/>
				</g>
			</g>
			<g>
				<g>
					<circle class="st104" cx="90.095" cy="81.04" r="0.25"/>
				</g>
			</g>
			<g>
				<g>
					<circle class="st104" cx="88.819" cy="78.406" r="0.251"/>
				</g>
			</g>
			<g>
				<g>
					<circle class="st104" cx="84.607" cy="75.918" r="0.25"/>
				</g>
			</g>
			<g>
				<g>
					<circle class="st104" cx="83.431" cy="79.961" r="0.251"/>
				</g>
			</g>
			<g>
				<g>
					<circle class="st104" cx="86.798" cy="80.718" r="0.25"/>
				</g>
			</g>
			<g>
				<g>
					<circle class="st104" cx="87.547" cy="83.113" r="0.25"/>
				</g>
			</g>
			<g>
				<g>
					<circle class="st104" cx="87.134" cy="76.567" r="0.25"/>
				</g>
			</g>
			<g>
				<g>
					<circle class="st104" cx="92.666" cy="79.37" r="0.25"/>
				</g>
			</g>
			<g>
				<g>
					<circle class="st104" cx="91.924" cy="82.329" r="0.251"/>
				</g>
			</g>
			<g>
				<g>
					<circle class="st104" cx="91.582" cy="74.392" r="0.25"/>
				</g>
			</g>
			<g>
				<g>
					<circle class="st104" cx="87.473" cy="79.108" r="0.2"/>
				</g>
			</g>
			<g>
				<g>
					<circle class="st104" cx="83.049" cy="77.588" r="0.2"/>
				</g>
			</g>
			<g>
				<g>
					<circle class="st104" cx="89.905" cy="83.139" r="0.2"/>
				</g>
			</g>
			<g>
				<g>
					<circle class="st104" cx="93.065" cy="80.847" r="0.2"/>
				</g>
			</g>
			<g>
				<g>
					<circle class="st104" cx="90.72" cy="78.871" r="0.2"/>
				</g>
			</g>
			<g>
				<g>
					<circle class="st104" cx="94.222" cy="76.686" r="0.201"/>
				</g>
			</g>
			<g>
				<g>
					<circle class="st104" cx="82.322" cy="81.64" r="0.201"/>
				</g>
			</g>
			<g>
				<g>
					<circle class="st104" cx="86.916" cy="74.128" r="0.201"/>
				</g>
			</g>
		</g>
		<g>
			<g>
				<g>
					<path class="st104" d="M102.934,76.519c0.498,3.098-2.145,5.626-5.809,6.215c-3.664,0.59-6.965-0.986-7.463-4.082
						c-0.449-2.799,1.147-5.434,4.252-6.365c0.332-0.098,1.187-0.082,1.539-0.139c0.313-0.053,1.025-0.322,1.334-0.336
						C100.075,71.673,102.478,73.689,102.934,76.519z"/>
				</g>
			</g>
			<g>
				<g>
					<path class="st92" d="M102.655,76.449c0.476,2.965-2.056,5.391-5.567,5.954c-3.512,0.564-6.675-0.944-7.15-3.911
						c-0.431-2.683,1.099-5.208,4.075-6.1c0.315-0.094,1.136-0.08,1.474-0.135c0.301-0.047,0.983-0.309,1.277-0.32
						C99.915,71.804,102.218,73.734,102.655,76.449z"/>
				</g>
			</g>
			<g>
				<g>
					<circle class="st104" cx="97.494" cy="74.429" r="0.185"/>
				</g>
			</g>
			<g>
				<g>
					<circle class="st104" cx="99.614" cy="75.962" r="0.231"/>
				</g>
			</g>
			<g>
				<g>
					<circle class="st104" cx="93.162" cy="80.598" r="0.23"/>
				</g>
			</g>
			<g>
				<g>
					<circle class="st104" cx="93.973" cy="77.244" r="0.231"/>
				</g>
			</g>
			<g>
				<g>
					<circle class="st104" cx="98.079" cy="79.47" r="0.231"/>
				</g>
			</g>
			<g>
				<g>
					<path class="st104" d="M97.129,77c0.02,0.125-0.066,0.244-0.193,0.265c-0.125,0.02-0.244-0.067-0.266-0.19
						c-0.019-0.129,0.066-0.247,0.193-0.267C96.99,76.787,97.108,76.873,97.129,77z"/>
				</g>
			</g>
			<g>
				<g>
					<circle class="st104" cx="93.008" cy="74.737" r="0.231"/>
				</g>
			</g>
			<g>
				<g>
					<circle class="st104" cx="91.92" cy="78.473" r="0.231"/>
				</g>
			</g>
			<g>
				<g>
					<circle class="st104" cx="95.034" cy="79.172" r="0.231"/>
				</g>
			</g>
			<g>
				<g>
					<circle class="st104" cx="95.725" cy="81.386" r="0.231"/>
				</g>
			</g>
			<g>
				<g>
					<circle class="st104" cx="95.344" cy="75.336" r="0.231"/>
				</g>
			</g>
			<g>
				<g>
					<circle class="st104" cx="100.455" cy="77.926" r="0.231"/>
				</g>
			</g>
			<g>
				<g>
					<circle class="st104" cx="99.77" cy="80.661" r="0.231"/>
				</g>
			</g>
			<g>
				<g>
					<circle class="st104" cx="99.453" cy="73.327" r="0.231"/>
				</g>
			</g>
			<g>
				<g>
					<circle class="st104" cx="95.656" cy="77.685" r="0.185"/>
				</g>
			</g>
			<g>
				<g>
					<circle class="st104" cx="91.568" cy="76.28" r="0.185"/>
				</g>
			</g>
			<g>
				<g>
					<circle class="st104" cx="97.904" cy="81.41" r="0.185"/>
				</g>
			</g>
			<g>
				<g>
					<circle class="st104" cx="100.825" cy="79.291" r="0.185"/>
				</g>
			</g>
			<g>
				<g>
					<circle class="st104" cx="98.657" cy="77.465" r="0.186"/>
				</g>
			</g>
			<g>
				<g>
					<circle class="st104" cx="101.893" cy="75.445" r="0.186"/>
				</g>
			</g>
			<g>
				<g>
					<circle class="st104" cx="90.895" cy="80.023" r="0.186"/>
				</g>
			</g>
			<g>
				<g>
					<circle class="st104" cx="95.141" cy="73.082" r="0.185"/>
				</g>
			</g>
		</g>
		<g>
			<g>
				<g>
					<g>
						<path class="st128" d="M28.15,50.659c1.424,0.081,7.161,10.319,16.405,13.603c7.609,2.705,18.256-0.264,21.852-0.91
							c0.682-0.122,0.883,0.053,0.988,0.15c0.326,0.299,0.572,0.602,0.371,1.227c-0.623,1.951-3.807,5.371-5.823,6.225
							c-7.486,3.18-25.035,5.268-33.077-7.493C26.198,59.226,25.303,50.492,28.15,50.659z"/>
					</g>
				</g>
				<g>
					<g>
						<path class="st128" d="M26.581,53.361c0,0-0.039-4.527-0.778-5.219c-0.74-0.691,1.726-0.436,1.726-0.436
							s0.97,3.584,1.58,4.305C29.717,52.733,26.581,53.361,26.581,53.361z"/>
					</g>
				</g>
				<g>
					<g>
						<path class="st78" d="M28.592,51.583c1.365,0.08,6.862,9.891,15.719,13.037c8.676,3.082,21.464-1.525,22.107-0.934
							c1.287,1.183-2.461,5.883-5.014,6.965c-7.173,3.045-24.193,4.998-31.899-7.229C26.949,59.365,25.864,51.425,28.592,51.583z"/>
					</g>
				</g>
				<g>
					<g>
						<path class="st5" d="M25.254,47.692c0,0,2.154-0.374,2.274,0.015c0.102,0.326-1.882,0.563-2.1,0.317
							C25.35,47.935,25.296,47.8,25.254,47.692z"/>
					</g>
				</g>
				<g>
					<g>
						<path class="st5" d="M66.357,63.355c0.658-0.131,0.954,0.028,1.112,0.213c0.236,0.274,0.464,0.264,0.412,0.66
							c-0.018,0.148-0.08,0.325-0.115,0.5c0,0-0.625-0.377-0.791-0.693C66.83,63.759,66.357,63.355,66.357,63.355z"/>
					</g>
				</g>
			</g>
			<g>
				<g>
					<path class="st128" d="M49.75,69.898c-3.076,0-5.954-0.576-8.621-1.731c-10.557-4.571-14.021-16.814-14.055-16.938l0.964-0.265
						c0.033,0.119,3.38,11.912,13.495,16.287c6.926,2.997,15.391,1.896,25.163-3.265l0.467,0.884
						C60.823,68.219,54.999,69.898,49.75,69.898z"/>
				</g>
			</g>
		</g>
		<g>
			<g>
				<g>
					<path class="st4" d="M58.069,57.498c0,0,1.198-1.275,1.474-2.428c0.276-1.151,0.411,0.424,0.411,0.424L58.44,57.79
						L58.069,57.498z"/>
				</g>
			</g>
			<g>
				<g>
					<path class="st126" d="M55.991,67.067c-0.035,5.137-4.077,8.494-7.572,7.497c-1.881-0.537-3.28-1.794-4.054-2.551
						c-2.913-2.852-1.317-8.561,4.993-10.34c1.547-0.436,5.67-6.566,8.656-4.453c0.123,0.086,0.163,0.279,0.27,0.367
						c0.104,0.089,0.271,0.07,0.358,0.16C61.375,60.511,56.013,63.708,55.991,67.067z"/>
				</g>
			</g>
			<g>
				<g>
					<path class="st34" d="M55.183,67.455c-0.032,4.641-3.685,7.677-6.843,6.773c-1.698-0.484-2.964-1.619-3.662-2.305
						c-2.633-2.576-1.191-7.734,4.512-9.345c1.398-0.394,5.79-6.927,8.487-5.018C61.358,60.167,55.206,64.225,55.183,67.455z"/>
				</g>
			</g>
			<g>
				<g>
					<path class="st39" d="M52.627,71.857c-0.488,0.732-1.332,1.031-1.881,0.662c-0.551-0.367-1.262-1.702-0.771-2.436
						c0.49-0.732,2.217-0.917,2.767-0.55C53.292,69.902,53.118,71.125,52.627,71.857z"/>
				</g>
			</g>
			<g>
				<g>
					<path class="st39" d="M50.073,65.271c-0.49,0.732-1.332,1.027-1.882,0.66s-0.321-1.074,0.169-1.807
						c0.488-0.733,2.217-0.918,2.767-0.551C51.675,63.943,50.563,64.538,50.073,65.271z"/>
				</g>
			</g>
			<g>
				<g>
					<path class="st39" d="M57.485,61.516c-0.268,0.841-0.996,1.358-1.626,1.155c-0.63-0.202-0.038-0.777,0.231-1.617
						s0.426-1.771,1.055-1.57C57.776,59.685,57.754,60.677,57.485,61.516z"/>
				</g>
			</g>
		</g>
		<g>
			<g>
				<g>
					<g>
						<path class="st128" d="M28.911,52.897c1.418,0.257,5.92,11.239,14.795,15.673c7.309,3.648,18.359,1.977,22.05,1.768
							c0.7-0.039,0.878,0.162,0.975,0.274c0.289,0.339,0.499,0.673,0.222,1.275c-0.867,1.884-3.982,4.581-6.113,5.19
							c-7.904,2.271-25.984,2.135-32.489-11.663C26.192,60.836,26.074,52.379,28.911,52.897z"/>
					</g>
				</g>
				<g>
					<g>
						<path class="st128" d="M27.002,55.416c0,0,0.518-4.551-0.14-5.334c-0.658-0.784,1.787-0.227,1.787-0.227
							s0.531,3.719,1.055,4.516C30.229,55.171,27.002,55.416,27.002,55.416z"/>
					</g>
				</g>
				<g>
					<g>
						<path class="st101" d="M29.241,53.878c1.359,0.248,5.672,10.771,14.178,15.02c8.33,4.159,21.734,1.105,22.307,1.779
							c1.148,1.346-3.193,5.603-5.89,6.377c-7.575,2.174-24.899,2.044-31.133-11.18C26.636,61.49,26.522,53.384,29.241,53.878z"/>
					</g>
				</g>
				<g>
					<g>
						<path class="st5" d="M26.368,49.562c0,0,2.208-0.109,2.282,0.293c0.028,0.157-0.388,0.24-0.861,0.258
							c-0.554,0.021-1.186-0.047-1.286-0.195C26.435,49.818,26.396,49.675,26.368,49.562z"/>
					</g>
				</g>
				<g>
					<g>
						<path class="st5" d="M65.705,70.337c0.677-0.051,0.953,0.145,1.091,0.35c0.203,0.303,0.434,0.319,0.332,0.714
							c-0.036,0.146-0.12,0.313-0.176,0.486c0,0-0.582-0.454-0.711-0.794C66.129,70.799,65.705,70.337,65.705,70.337z"/>
					</g>
				</g>
			</g>
			<g>
				<g>
					<path class="st128" d="M51.481,75.052c-4.385,0-8.291-0.997-11.689-2.99c-10.033-5.885-12.006-18.598-12.024-18.726
						l0.989-0.146c0.018,0.123,1.93,12.377,11.549,18.013c6.584,3.859,15.221,3.795,25.664-0.186l0.357,0.934
						C60.904,74.019,55.945,75.052,51.481,75.052z"/>
				</g>
			</g>
		</g>
		<g>
			<g>
				<g>
					<g>
						<path class="st128" d="M28.149,51.715c1.509,0.57,4.248,13.562,13.117,20.228c7.306,5.488,19.8,5.88,23.902,6.396
							c0.777,0.099,0.934,0.354,1.017,0.497c0.25,0.434,0.413,0.842-0.015,1.45c-1.332,1.896-5.304,4.233-7.77,4.477
							c-9.156,0.904-29.021-2.894-33.394-19.387C23.555,59.904,25.131,50.575,28.149,51.715z"/>
					</g>
				</g>
				<g>
					<g>
						<path class="st128" d="M25.542,54.103c0,0,1.488-4.901,0.922-5.896c-0.567-0.996,2.012,0.111,2.012,0.111
							s-0.165,4.197,0.25,5.184C29.141,54.486,25.542,54.103,25.542,54.103z"/>
					</g>
				</g>
				<g>
					<g>
						<path class="st101" d="M28.314,52.865c1.446,0.547,4.069,12.994,12.568,19.383c8.327,6.258,23.688,5.601,24.185,6.457
							c0.99,1.713-4.645,5.521-7.766,5.827c-8.772,0.865-27.809-2.772-31.998-18.577C23.913,60.711,25.422,51.771,28.314,52.865z"/>
					</g>
				</g>
				<g>
					<g>
						<path class="st5" d="M26.024,47.535c0,0,2.453,0.324,2.452,0.783c0,0.387-2.224-0.027-2.376-0.365
							C26.046,47.83,26.031,47.666,26.024,47.535z"/>
					</g>
				</g>
				<g>
					<g>
						<path class="st5" d="M65.114,78.327c0.754,0.081,1.02,0.353,1.129,0.605c0.163,0.374,0.412,0.438,0.223,0.853
							c-0.07,0.152-0.197,0.321-0.295,0.501c0,0-0.547-0.618-0.619-1.019C65.489,78.921,65.114,78.327,65.114,78.327z"/>
					</g>
				</g>
			</g>
			<g>
				<g>
					<path class="st128" d="M55.323,81.171c-7.854,0-14.229-2.079-19.029-6.22c-9.831-8.479-9.438-22.837-9.432-22.981l0.999,0.035
						c-0.005,0.14-0.375,14.034,9.092,22.195c6.479,5.584,16.008,7.262,28.325,4.987l0.182,0.982
						C61.848,80.838,58.467,81.171,55.323,81.171z"/>
				</g>
			</g>
		</g>
		<g>
			<g>
				<g>
					<path class="st22" d="M35.692,75.087c0.146-0.213,0.676-0.288,1.075-0.012c0.4,0.274,0.605,0.668,0.46,0.881
						C36.875,76.467,35.692,75.087,35.692,75.087z"/>
				</g>
			</g>
			<g>
				<g>
					<path class="st22" d="M37.088,77.375c-0.255-0.021-0.585-0.443-0.545-0.926c0.041-0.485,0.281-0.861,0.539-0.838
						C37.7,75.662,37.088,77.375,37.088,77.375z"/>
				</g>
			</g>
			<g>
				<g>
					<path class="st52" d="M35.815,75.156c0.127-0.184,0.59-0.251,0.939-0.011c0.35,0.243,0.529,0.587,0.402,0.772
						C36.848,76.364,35.815,75.156,35.815,75.156z"/>
				</g>
			</g>
			<g>
				<g>
					<path class="st52" d="M37.022,77.214c-0.223-0.018-0.511-0.387-0.477-0.811c0.036-0.422,0.246-0.75,0.471-0.73
						C37.556,75.718,37.022,77.214,37.022,77.214z"/>
				</g>
			</g>
			<g>
				<g>
					<g>
						<path class="st168" d="M38.375,71.253c2.315-0.579,5.781,0.966,6.175,2.643c0.287,1.227-1.89,4.66-4.205,5.24
							c-2.098,0.523-2.813-0.547-3.348-2.424c-0.016-0.056-0.057-0.545-0.145-0.893c-0.039-0.16-0.235-0.609-0.271-0.767
							C36.141,73.089,36.231,71.789,38.375,71.253z"/>
					</g>
				</g>
				<g>
					<g>
						<defs>
							<path id="SVGID_7_" d="M38.391,71.441c2.208-0.552,5.516,0.923,5.89,2.523c0.274,1.172-1.802,4.444-4.011,4.996
								c-2.002,0.502-2.684-0.518-3.195-2.311c-0.014-0.054-0.054-0.521-0.137-0.852c-0.037-0.152-0.225-0.582-0.258-0.73
								C36.259,73.194,36.345,71.952,38.391,71.441z"/>
						</defs>
						<clipPath id="SVGID_2_">
							<use xlink:href="#SVGID_7_"  style="overflow:visible;"/>
						</clipPath>
						<g class="st111">
							<rect x="36.259" y="70.889" class="st27" width="8.296" height="8.573"/>
						</g>
						<g class="st111">
							<circle class="st27" cx="40.574" cy="74.89" r="2.309"/>
						</g>
						<g class="st111">
							<circle class="st27" cx="40.574" cy="74.89" r="1.155"/>
						</g>
					</g>
				</g>
				<g>
					<g>
						<path class="st168" d="M38.692,77.248c0.201-0.053,0.476-0.035,0.487,0.021c0.009,0.043-0.218,0.199-0.419,0.25
							c-0.203,0.05-0.242-0.005-0.261-0.08C38.481,77.363,38.49,77.297,38.692,77.248z"/>
					</g>
				</g>
				<g>
					<g>
						<path class="st168" d="M40.1,77.748c0.201-0.051,0.475-0.037,0.486,0.023c0.008,0.041-0.217,0.197-0.42,0.248
							c-0.201,0.051-0.241-0.004-0.26-0.08C39.888,77.865,39.897,77.798,40.1,77.748z"/>
					</g>
				</g>
				<g>
					<g>
						<path class="st168" d="M38.868,78.384c0.201-0.051,0.475-0.035,0.487,0.023c0.008,0.043-0.217,0.197-0.42,0.248
							c-0.2,0.051-0.241-0.004-0.26-0.08C38.657,78.501,38.666,78.435,38.868,78.384z"/>
					</g>
				</g>
				<g>
					<g>
						<path class="st168" d="M37.719,75.914c0.202-0.051,0.477-0.035,0.488,0.023c0.008,0.043-0.219,0.199-0.419,0.25
							c-0.204,0.049-0.243-0.004-0.263-0.08C37.508,76.032,37.516,75.964,37.719,75.914z"/>
					</g>
				</g>
				<g>
					<g>
						<path class="st168" d="M38.967,76.279c0.203-0.051,0.476-0.037,0.487,0.023c0.009,0.041-0.217,0.197-0.419,0.248
							s-0.242-0.006-0.26-0.08C38.756,76.394,38.765,76.33,38.967,76.279z"/>
					</g>
				</g>
				<g>
					<g>
						<path class="st168" d="M40.152,76.563c0.202-0.05,0.475-0.035,0.487,0.022c0.009,0.043-0.217,0.201-0.419,0.25
							c-0.202,0.051-0.242-0.004-0.262-0.079C39.94,76.681,39.95,76.614,40.152,76.563z"/>
					</g>
				</g>
				<g>
					<g>
						<path class="st168" d="M39.487,75.295c0.201-0.05,0.475-0.034,0.488,0.022c0.008,0.043-0.219,0.198-0.422,0.249
							c-0.201,0.051-0.24-0.003-0.26-0.077C39.276,75.414,39.284,75.345,39.487,75.295z"/>
					</g>
				</g>
				<g>
					<g>
						<path class="st168" d="M38.303,73.493c0.201-0.05,0.475-0.036,0.486,0.022c0.01,0.043-0.217,0.199-0.418,0.25
							c-0.203,0.051-0.242-0.006-0.261-0.079C38.091,73.611,38.101,73.543,38.303,73.493z"/>
					</g>
				</g>
				<g>
					<g>
						<path class="st168" d="M37.44,72.671c0.203-0.051,0.477-0.036,0.487,0.023c0.009,0.042-0.216,0.199-0.419,0.25
							c-0.202,0.049-0.242-0.004-0.262-0.08C37.228,72.789,37.239,72.722,37.44,72.671z"/>
					</g>
				</g>
				<g>
					<g>
						<path class="st168" d="M39.506,73.951c0.2-0.051,0.475-0.035,0.485,0.022c0.01,0.043-0.217,0.198-0.419,0.251
							c-0.202,0.051-0.241-0.006-0.261-0.08C39.293,74.069,39.303,74.001,39.506,73.951z"/>
					</g>
				</g>
				<g>
					<g>
						<path class="st168" d="M41.398,77.068c0.202-0.051,0.476-0.035,0.487,0.021c0.008,0.045-0.217,0.201-0.42,0.253
							c-0.201,0.05-0.242-0.005-0.261-0.081C41.185,77.185,41.196,77.12,41.398,77.068z"/>
					</g>
				</g>
				<g>
					<g>
						<path class="st168" d="M41.926,76.255c0.202-0.051,0.475-0.038,0.488,0.021c0.008,0.041-0.219,0.199-0.42,0.25
							c-0.203,0.05-0.242-0.006-0.262-0.08C41.715,76.371,41.723,76.306,41.926,76.255z"/>
					</g>
				</g>
				<g>
					<g>
						<path class="st168" d="M40.948,75.701c0.201-0.051,0.476-0.036,0.488,0.022c0.008,0.044-0.219,0.198-0.42,0.249
							c-0.203,0.051-0.242-0.004-0.262-0.08C40.736,75.818,40.746,75.751,40.948,75.701z"/>
					</g>
				</g>
				<g>
					<g>
						<path class="st168" d="M42.619,75.38c0.202-0.051,0.476-0.035,0.487,0.022c0.01,0.042-0.217,0.198-0.419,0.249
							c-0.202,0.05-0.241-0.004-0.26-0.08C42.408,75.498,42.417,75.429,42.619,75.38z"/>
					</g>
				</g>
				<g>
					<g>
						<path class="st168" d="M43.301,74.166c0.202-0.051,0.475-0.035,0.486,0.022c0.01,0.043-0.217,0.198-0.419,0.249
							s-0.242-0.004-0.261-0.08C43.089,74.284,43.098,74.216,43.301,74.166z"/>
					</g>
				</g>
				<g>
					<g>
						<path class="st168" d="M41.487,74.897c0.201-0.05,0.474-0.035,0.486,0.022c0.01,0.043-0.217,0.2-0.419,0.25
							c-0.202,0.051-0.241-0.004-0.261-0.078C41.274,75.014,41.284,74.948,41.487,74.897z"/>
					</g>
				</g>
				<g>
					<g>
						<path class="st168" d="M42.288,73.982c0.201-0.05,0.477-0.037,0.487,0.022c0.009,0.042-0.217,0.198-0.42,0.249
							c-0.201,0.051-0.241-0.004-0.26-0.079S42.085,74.033,42.288,73.982z"/>
					</g>
				</g>
				<g>
					<g>
						<path class="st168" d="M40.397,74.486c0.203-0.051,0.476-0.034,0.487,0.021c0.009,0.044-0.218,0.201-0.42,0.252
							c-0.202,0.05-0.241-0.006-0.26-0.081C40.186,74.604,40.195,74.536,40.397,74.486z"/>
					</g>
				</g>
				<g>
					<g>
						<path class="st168" d="M41.046,73.642c0.202-0.051,0.475-0.035,0.486,0.023c0.01,0.042-0.218,0.199-0.419,0.249
							c-0.202,0.05-0.242-0.005-0.262-0.081C40.834,73.759,40.842,73.693,41.046,73.642z"/>
					</g>
				</g>
				<g>
					<g>
						<path class="st168" d="M41.18,72.766c0.203-0.05,0.476-0.034,0.488,0.022c0.008,0.043-0.217,0.199-0.419,0.251
							c-0.202,0.05-0.243-0.006-0.261-0.08C40.969,72.884,40.979,72.817,41.18,72.766z"/>
					</g>
				</g>
				<g>
					<g>
						<path class="st168" d="M42.492,73.052c0.202-0.051,0.476-0.035,0.487,0.023c0.009,0.043-0.217,0.199-0.42,0.249
							c-0.203,0.052-0.242-0.004-0.261-0.079C42.28,73.169,42.289,73.103,42.492,73.052z"/>
					</g>
				</g>
				<g>
					<g>
						<path class="st168" d="M40.462,72.016c0.202-0.049,0.476-0.034,0.488,0.024c0.009,0.041-0.218,0.199-0.42,0.25
							c-0.202,0.05-0.242-0.006-0.261-0.08C40.25,72.134,40.261,72.068,40.462,72.016z"/>
					</g>
				</g>
				<g>
					<g>
						<path class="st168" d="M38.94,72.196c0.201-0.051,0.475-0.035,0.487,0.022c0.009,0.043-0.218,0.199-0.42,0.25
							s-0.242-0.004-0.26-0.079C38.729,72.313,38.737,72.248,38.94,72.196z"/>
					</g>
				</g>
				<g>
					<g>
						<path class="st168" d="M39.749,73.005c0.203-0.051,0.475-0.035,0.488,0.023c0.008,0.043-0.218,0.199-0.42,0.248
							c-0.203,0.051-0.242-0.004-0.262-0.08C39.536,73.123,39.547,73.056,39.749,73.005z"/>
					</g>
				</g>
				<g>
					<g>
						<path class="st168" d="M38.266,74.886c0.201-0.051,0.475-0.035,0.486,0.021c0.01,0.044-0.216,0.199-0.42,0.25
							c-0.201,0.051-0.241-0.004-0.26-0.08C38.055,75.003,38.063,74.937,38.266,74.886z"/>
					</g>
				</g>
				<g>
					<g>
						<path class="st168" d="M37.35,74.255c0.201-0.051,0.475-0.037,0.486,0.021c0.01,0.043-0.217,0.201-0.418,0.25
							c-0.204,0.051-0.243-0.005-0.262-0.08C37.137,74.373,37.147,74.306,37.35,74.255z"/>
					</g>
				</g>
			</g>
			<g>
				<g>
					<path class="st22" d="M35.885,76.904c-0.162-0.199-0.084-0.729,0.295-1.035c0.378-0.305,0.815-0.387,0.977-0.188
						C37.545,76.164,35.885,76.904,35.885,76.904z"/>
				</g>
			</g>
			<g>
				<g>
					<path class="st52" d="M35.932,76.814c-0.141-0.174-0.072-0.638,0.26-0.904c0.329-0.266,0.711-0.34,0.852-0.166
						C37.383,76.167,35.932,76.814,35.932,76.814z"/>
				</g>
			</g>
		</g>
		<g>
			<g>
				<g>
					<path class="st22" d="M45.863,71.253c0.222,0.131,0.329,0.656,0.078,1.072c-0.25,0.416-0.632,0.645-0.852,0.512
						C44.559,72.519,45.863,71.253,45.863,71.253z"/>
				</g>
			</g>
			<g>
				<g>
					<path class="st22" d="M43.667,72.787c0.004-0.257,0.405-0.611,0.891-0.6c0.486,0.011,0.875,0.228,0.869,0.484
						C45.412,73.292,43.667,72.787,43.667,72.787z"/>
				</g>
			</g>
			<g>
				<g>
					<path class="st52" d="M45.801,71.379c0.193,0.115,0.287,0.573,0.068,0.937c-0.221,0.365-0.554,0.565-0.746,0.449
						C44.661,72.485,45.801,71.379,45.801,71.379z"/>
				</g>
			</g>
			<g>
				<g>
					<path class="st52" d="M43.82,72.71c0.005-0.225,0.356-0.535,0.78-0.525c0.426,0.011,0.766,0.2,0.76,0.424
						C45.347,73.152,43.82,72.71,43.82,72.71z"/>
				</g>
			</g>
			<g>
				<g>
					<g>
						<path class="st168" d="M49.855,73.698c0.718,2.274-0.614,5.828-2.264,6.323c-1.207,0.361-4.766-1.602-5.485-3.877
							c-0.651-2.063,0.373-2.842,2.215-3.49c0.055-0.02,0.541-0.092,0.881-0.199c0.158-0.048,0.596-0.271,0.75-0.316
							C47.886,71.579,49.188,71.59,49.855,73.698z"/>
					</g>
				</g>
				<g>
					<g>
						<defs>
							<path id="SVGID_9_" d="M49.667,73.724c0.686,2.172-0.587,5.561-2.159,6.033c-1.152,0.346-4.548-1.528-5.233-3.699
								c-0.622-1.967,0.355-2.711,2.112-3.33c0.053-0.017,0.518-0.085,0.842-0.188c0.151-0.048,0.566-0.26,0.715-0.303
								C47.788,71.704,49.033,71.714,49.667,73.724z"/>
						</defs>
						<clipPath id="SVGID_4_">
							<use xlink:href="#SVGID_9_"  style="overflow:visible;"/>
						</clipPath>
						<g class="st112">
							<rect x="41.653" y="71.704" class="st27" width="8.7" height="8.399"/>
						</g>
						<g class="st112">
							<circle class="st27" cx="46.357" cy="76.114" r="2.309"/>
						</g>
						<g class="st112">
							<circle class="st27" cx="46.357" cy="76.114" r="1.154"/>
						</g>
					</g>
				</g>
				<g>
					<g>
						<path class="st168" d="M43.891,74.378c0.063,0.199,0.064,0.473,0.006,0.488c-0.041,0.012-0.211-0.205-0.274-0.403
							c-0.063-0.2-0.009-0.241,0.063-0.265C43.762,74.174,43.828,74.179,43.891,74.378z"/>
					</g>
				</g>
				<g>
					<g>
						<path class="st168" d="M43.476,75.814c0.063,0.199,0.065,0.472,0.007,0.488c-0.041,0.011-0.21-0.205-0.273-0.404
							c-0.063-0.199-0.011-0.241,0.063-0.266C43.347,75.609,43.413,75.616,43.476,75.814z"/>
					</g>
				</g>
				<g>
					<g>
						<path class="st168" d="M42.766,74.625c0.063,0.197,0.064,0.472,0.007,0.488c-0.042,0.01-0.212-0.206-0.272-0.404
							c-0.064-0.2-0.012-0.242,0.063-0.266C42.636,74.421,42.704,74.424,42.766,74.625z"/>
					</g>
				</g>
				<g>
					<g>
						<path class="st168" d="M45.161,73.327c0.064,0.198,0.064,0.474,0.008,0.488c-0.042,0.011-0.212-0.206-0.275-0.403
							c-0.062-0.199-0.011-0.242,0.064-0.266C45.032,73.124,45.098,73.127,45.161,73.327z"/>
					</g>
				</g>
				<g>
					<g>
						<path class="st168" d="M44.874,74.595c0.063,0.199,0.065,0.473,0.008,0.486c-0.043,0.014-0.213-0.203-0.275-0.402
							c-0.062-0.198-0.009-0.242,0.065-0.266C44.745,74.39,44.811,74.396,44.874,74.595z"/>
					</g>
				</g>
				<g>
					<g>
						<path class="st168" d="M44.661,75.794c0.063,0.197,0.065,0.472,0.008,0.487c-0.042,0.013-0.211-0.204-0.273-0.402
							c-0.064-0.2-0.012-0.243,0.063-0.266C44.531,75.591,44.599,75.595,44.661,75.794z"/>
					</g>
				</g>
				<g>
					<g>
						<path class="st168" d="M45.887,75.053c0.063,0.198,0.063,0.472,0.007,0.487c-0.042,0.012-0.212-0.205-0.275-0.403
							c-0.062-0.198-0.011-0.241,0.063-0.265S45.825,74.855,45.887,75.053z"/>
					</g>
				</g>
				<g>
					<g>
						<path class="st168" d="M47.614,73.761c0.063,0.199,0.065,0.471,0.008,0.487c-0.043,0.013-0.213-0.203-0.275-0.403
							c-0.063-0.197-0.01-0.24,0.063-0.264C47.483,73.558,47.551,73.563,47.614,73.761z"/>
					</g>
				</g>
				<g>
					<g>
						<path class="st168" d="M48.381,72.851c0.063,0.198,0.064,0.471,0.008,0.487c-0.043,0.011-0.215-0.204-0.276-0.403
							s-0.01-0.242,0.063-0.266C48.25,72.646,48.318,72.652,48.381,72.851z"/>
					</g>
				</g>
				<g>
					<g>
						<path class="st168" d="M47.23,74.99c0.062,0.198,0.063,0.473,0.007,0.486c-0.042,0.014-0.211-0.203-0.275-0.402
							c-0.063-0.199-0.009-0.241,0.064-0.265C47.1,74.785,47.167,74.791,47.23,74.99z"/>
					</g>
				</g>
				<g>
					<g>
						<path class="st168" d="M44.233,77.068c0.063,0.199,0.064,0.473,0.008,0.488c-0.043,0.012-0.213-0.205-0.275-0.403
							c-0.063-0.198-0.01-0.242,0.063-0.265C44.104,76.864,44.17,76.869,44.233,77.068z"/>
					</g>
				</g>
				<g>
					<g>
						<path class="st168" d="M45.079,77.546c0.063,0.198,0.066,0.472,0.006,0.488c-0.04,0.012-0.211-0.205-0.273-0.403
							c-0.063-0.2-0.01-0.243,0.064-0.267C44.948,77.342,45.015,77.348,45.079,77.546z"/>
					</g>
				</g>
				<g>
					<g>
						<path class="st168" d="M45.571,76.537c0.064,0.198,0.065,0.471,0.008,0.487c-0.043,0.011-0.212-0.205-0.274-0.405
							c-0.063-0.197-0.011-0.24,0.063-0.264S45.507,76.337,45.571,76.537z"/>
					</g>
				</g>
				<g>
					<g>
						<path class="st168" d="M45.994,78.185c0.063,0.198,0.063,0.471,0.007,0.488c-0.043,0.012-0.212-0.207-0.274-0.404
							c-0.063-0.199-0.011-0.241,0.063-0.266C45.862,77.982,45.931,77.986,45.994,78.185z"/>
					</g>
				</g>
				<g>
					<g>
						<path class="st168" d="M47.247,78.792c0.063,0.197,0.064,0.471,0.008,0.486c-0.043,0.012-0.213-0.204-0.274-0.402
							c-0.063-0.199-0.011-0.242,0.063-0.266C47.116,78.587,47.184,78.593,47.247,78.792z"/>
					</g>
				</g>
				<g>
					<g>
						<path class="st168" d="M46.406,77.024c0.063,0.199,0.065,0.472,0.007,0.488c-0.043,0.012-0.211-0.203-0.274-0.403
							c-0.063-0.199-0.011-0.242,0.063-0.266C46.276,76.821,46.342,76.826,46.406,77.024z"/>
					</g>
				</g>
				<g>
					<g>
						<path class="st168" d="M47.369,77.769c0.062,0.199,0.065,0.471,0.007,0.487c-0.041,0.012-0.211-0.203-0.273-0.403
							c-0.063-0.198-0.012-0.241,0.063-0.264C47.239,77.565,47.306,77.569,47.369,77.769z"/>
					</g>
				</g>
				<g>
					<g>
						<path class="st168" d="M46.75,75.914c0.063,0.198,0.063,0.472,0.009,0.486c-0.043,0.012-0.213-0.204-0.277-0.403
							c-0.063-0.198-0.008-0.241,0.064-0.265C46.62,75.708,46.688,75.712,46.75,75.914z"/>
					</g>
				</g>
				<g>
					<g>
						<path class="st168" d="M47.632,76.509c0.063,0.198,0.064,0.472,0.007,0.486c-0.043,0.012-0.213-0.203-0.275-0.402
							c-0.061-0.199-0.009-0.242,0.064-0.266C47.503,76.304,47.569,76.309,47.632,76.509z"/>
					</g>
				</g>
				<g>
					<g>
						<path class="st168" d="M48.514,76.59c0.063,0.198,0.064,0.472,0.008,0.487c-0.043,0.012-0.213-0.205-0.275-0.403
							s-0.01-0.241,0.063-0.265C48.383,76.386,48.451,76.392,48.514,76.59z"/>
					</g>
				</g>
				<g>
					<g>
						<path class="st168" d="M48.309,77.916c0.063,0.199,0.063,0.473,0.006,0.488c-0.043,0.013-0.213-0.205-0.273-0.403
							c-0.064-0.2-0.012-0.243,0.063-0.265C48.178,77.71,48.245,77.716,48.309,77.916z"/>
					</g>
				</g>
				<g>
					<g>
						<path class="st168" d="M49.219,75.828c0.062,0.199,0.063,0.473,0.006,0.488c-0.041,0.012-0.213-0.205-0.275-0.404
							s-0.01-0.242,0.064-0.266S49.155,75.629,49.219,75.828z"/>
					</g>
				</g>
				<g>
					<g>
						<path class="st168" d="M48.948,74.318c0.062,0.199,0.063,0.472,0.006,0.488c-0.041,0.012-0.211-0.205-0.273-0.404
							c-0.063-0.197-0.012-0.242,0.063-0.265C48.818,74.115,48.883,74.12,48.948,74.318z"/>
					</g>
				</g>
				<g>
					<g>
						<path class="st168" d="M48.189,75.175c0.063,0.199,0.063,0.471,0.007,0.487c-0.043,0.011-0.212-0.204-0.273-0.403
							c-0.064-0.199-0.012-0.241,0.063-0.266C48.059,74.97,48.125,74.976,48.189,75.175z"/>
					</g>
				</g>
				<g>
					<g>
						<path class="st168" d="M46.221,73.81c0.063,0.197,0.064,0.471,0.007,0.487c-0.042,0.012-0.212-0.205-0.274-0.403
							c-0.063-0.199-0.011-0.242,0.064-0.266C46.09,73.607,46.159,73.611,46.221,73.81z"/>
					</g>
				</g>
				<g>
					<g>
						<path class="st168" d="M46.795,72.857c0.062,0.197,0.064,0.473,0.006,0.486c-0.041,0.012-0.212-0.204-0.273-0.401
							c-0.063-0.2-0.01-0.243,0.063-0.267C46.665,72.652,46.731,72.658,46.795,72.857z"/>
					</g>
				</g>
			</g>
			<g>
				<g>
					<path class="st22" d="M44.061,71.555c0.191-0.172,0.724-0.126,1.051,0.233c0.328,0.359,0.438,0.788,0.248,0.963
						C44.901,73.168,44.061,71.555,44.061,71.555z"/>
				</g>
			</g>
			<g>
				<g>
					<path class="st52" d="M44.155,71.598c0.166-0.151,0.632-0.111,0.918,0.203c0.287,0.313,0.383,0.689,0.217,0.842
						C44.889,73.007,44.155,71.598,44.155,71.598z"/>
				</g>
			</g>
		</g>
		<g>
			<g>
				<g>
					<path class="st22" d="M53.754,76.764c0.08,0.245-0.185,0.711-0.646,0.86c-0.461,0.148-0.899,0.071-0.979-0.174
						C51.939,76.861,53.754,76.764,53.754,76.764z"/>
				</g>
			</g>
			<g>
				<g>
					<path class="st22" d="M51.09,76.477c0.172-0.19,0.707-0.194,1.066,0.133s0.51,0.747,0.335,0.937
						C52.075,78.005,51.09,76.477,51.09,76.477z"/>
				</g>
			</g>
			<g>
				<g>
					<path class="st52" d="M53.625,76.82c0.069,0.213-0.16,0.62-0.563,0.75c-0.406,0.131-0.788,0.063-0.857-0.152
						C52.038,76.902,53.625,76.82,53.625,76.82z"/>
				</g>
			</g>
			<g>
				<g>
					<path class="st52" d="M51.256,76.521c0.15-0.166,0.619-0.168,0.934,0.117c0.313,0.285,0.445,0.652,0.293,0.818
						C52.118,77.857,51.256,76.521,51.256,76.521z"/>
				</g>
			</g>
			<g>
				<g>
					<g>
						<path class="st168" d="M55.157,81.228c-0.951,2.188-4.291,3.992-5.86,3.282c-1.146-0.521-2.541-4.339-1.589-6.526
							c0.864-1.983,2.149-1.897,3.965-1.176c0.052,0.02,0.467,0.287,0.794,0.43c0.151,0.066,0.626,0.184,0.772,0.252
							C55.065,78.338,56.04,79.204,55.157,81.228z"/>
					</g>
				</g>
				<g>
					<g>
						<defs>
							<path id="SVGID_11_" d="M54.999,81.126c-0.908,2.087-4.095,3.809-5.592,3.131c-1.096-0.498-2.424-4.141-1.516-6.227
								c0.824-1.893,2.049-1.812,3.781-1.125c0.051,0.022,0.445,0.276,0.758,0.413c0.145,0.063,0.598,0.177,0.738,0.24
								C54.909,78.369,55.841,79.194,54.999,81.126z"/>
						</defs>
						<clipPath id="SVGID_6_">
							<use xlink:href="#SVGID_11_"  style="overflow:visible;"/>
						</clipPath>
						<g class="st113">
							<rect x="46.983" y="76.138" class="st27" width="8.858" height="8.797"/>
						</g>
						<g class="st113">
							<circle class="st27" cx="50.934" cy="80.753" r="2.309"/>
						</g>
						<g class="st113">
							<circle class="st27" cx="50.934" cy="80.753" r="1.155"/>
						</g>
					</g>
				</g>
				<g>
					<g>
						<path class="st168" d="M50.213,77.824c-0.083,0.193-0.262,0.399-0.314,0.374c-0.039-0.021-0.025-0.294,0.058-0.485
							s0.151-0.188,0.222-0.157C50.25,77.586,50.297,77.634,50.213,77.824z"/>
					</g>
				</g>
				<g>
					<g>
						<path class="st168" d="M48.958,78.636c-0.083,0.189-0.261,0.397-0.315,0.371c-0.038-0.02-0.025-0.292,0.059-0.483
							c0.084-0.192,0.151-0.19,0.223-0.158C48.995,78.396,49.042,78.443,48.958,78.636z"/>
					</g>
				</g>
				<g>
					<g>
						<path class="st168" d="M49.206,77.271c-0.084,0.191-0.263,0.398-0.316,0.372c-0.039-0.019-0.025-0.292,0.06-0.483
							c0.083-0.191,0.15-0.189,0.222-0.158C49.241,77.033,49.288,77.08,49.206,77.271z"/>
					</g>
				</g>
				<g>
					<g>
						<path class="st168" d="M51.863,77.867c-0.083,0.191-0.263,0.399-0.316,0.373c-0.038-0.02-0.024-0.295,0.058-0.484
							c0.086-0.191,0.152-0.19,0.223-0.158C51.899,77.626,51.947,77.675,51.863,77.867z"/>
					</g>
				</g>
				<g>
					<g>
						<path class="st168" d="M50.813,78.634c-0.084,0.19-0.261,0.398-0.315,0.371c-0.04-0.019-0.025-0.291,0.058-0.482
							c0.084-0.191,0.152-0.189,0.223-0.158C50.85,78.396,50.895,78.443,50.813,78.634z"/>
					</g>
				</g>
				<g>
					<g>
						<path class="st168" d="M49.865,79.398c-0.083,0.191-0.261,0.399-0.314,0.375c-0.04-0.021-0.026-0.297,0.058-0.486
							c0.083-0.191,0.15-0.189,0.221-0.158C49.901,79.16,49.949,79.207,49.865,79.398z"/>
					</g>
				</g>
				<g>
					<g>
						<path class="st168" d="M51.276,79.644c-0.083,0.191-0.262,0.4-0.316,0.373c-0.039-0.019-0.024-0.293,0.059-0.484
							c0.082-0.191,0.15-0.189,0.223-0.158C51.311,79.406,51.358,79.453,51.276,79.644z"/>
					</g>
				</g>
				<g>
					<g>
						<path class="st168" d="M53.426,79.806c-0.084,0.191-0.262,0.397-0.315,0.371c-0.04-0.018-0.026-0.293,0.059-0.483
							c0.083-0.19,0.151-0.188,0.221-0.159C53.462,79.567,53.508,79.616,53.426,79.806z"/>
					</g>
				</g>
				<g>
					<g>
						<path class="st168" d="M54.602,79.623c-0.082,0.19-0.262,0.398-0.314,0.373c-0.04-0.02-0.025-0.295,0.058-0.486
							c0.083-0.189,0.151-0.188,0.222-0.156C54.639,79.384,54.686,79.431,54.602,79.623z"/>
					</g>
				</g>
				<g>
					<g>
						<path class="st168" d="M52.331,80.479c-0.084,0.191-0.264,0.398-0.315,0.372c-0.04-0.018-0.025-0.293,0.058-0.484
							c0.082-0.191,0.151-0.188,0.221-0.158C52.366,80.24,52.413,80.289,52.331,80.479z"/>
					</g>
				</g>
				<g>
					<g>
						<path class="st168" d="M48.705,80.079c-0.083,0.19-0.261,0.398-0.313,0.372c-0.041-0.02-0.027-0.293,0.055-0.484
							c0.084-0.191,0.152-0.189,0.223-0.158C48.741,79.838,48.788,79.888,48.705,80.079z"/>
					</g>
				</g>
				<g>
					<g>
						<path class="st168" d="M49.028,80.995c-0.083,0.19-0.26,0.397-0.314,0.372c-0.039-0.02-0.026-0.295,0.058-0.484
							c0.083-0.191,0.151-0.189,0.222-0.158C49.064,80.754,49.111,80.803,49.028,80.995z"/>
					</g>
				</g>
				<g>
					<g>
						<path class="st168" d="M50.063,80.556c-0.082,0.191-0.262,0.398-0.314,0.373c-0.04-0.021-0.025-0.295,0.059-0.485
							c0.082-0.191,0.15-0.189,0.222-0.158C50.098,80.316,50.147,80.364,50.063,80.556z"/>
					</g>
				</g>
				<g>
					<g>
						<path class="st168" d="M49.299,82.076c-0.084,0.191-0.263,0.398-0.316,0.373c-0.039-0.019-0.024-0.294,0.059-0.484
							c0.084-0.191,0.15-0.188,0.223-0.158C49.334,81.835,49.382,81.885,49.299,82.076z"/>
					</g>
				</g>
				<g>
					<g>
						<path class="st168" d="M49.845,83.357c-0.083,0.191-0.262,0.397-0.315,0.372c-0.039-0.019-0.024-0.294,0.059-0.483
							c0.083-0.192,0.15-0.19,0.223-0.158C49.879,83.117,49.928,83.166,49.845,83.357z"/>
					</g>
				</g>
				<g>
					<g>
						<path class="st168" d="M50.372,81.472c-0.084,0.191-0.26,0.398-0.314,0.372c-0.04-0.02-0.026-0.292,0.058-0.485
							c0.083-0.19,0.151-0.188,0.222-0.158C50.408,81.233,50.455,81.281,50.372,81.472z"/>
					</g>
				</g>
				<g>
					<g>
						<path class="st168" d="M50.608,82.666c-0.084,0.191-0.26,0.399-0.314,0.373c-0.039-0.019-0.025-0.293,0.059-0.484
							c0.082-0.191,0.15-0.189,0.222-0.158C50.644,82.427,50.692,82.474,50.608,82.666z"/>
					</g>
				</g>
				<g>
					<g>
						<path class="st168" d="M51.362,80.86c-0.084,0.191-0.263,0.397-0.314,0.372c-0.039-0.018-0.026-0.293,0.057-0.486
							c0.084-0.189,0.152-0.188,0.222-0.156C51.397,80.619,51.445,80.668,51.362,80.86z"/>
					</g>
				</g>
				<g>
					<g>
						<path class="st168" d="M51.635,81.889c-0.084,0.19-0.262,0.397-0.315,0.372c-0.04-0.019-0.025-0.293,0.058-0.484
							c0.084-0.191,0.151-0.189,0.224-0.158C51.672,81.65,51.717,81.697,51.635,81.889z"/>
					</g>
				</g>
				<g>
					<g>
						<path class="st168" d="M52.247,82.53c-0.084,0.19-0.262,0.397-0.314,0.372c-0.039-0.02-0.025-0.293,0.057-0.484
							c0.084-0.191,0.152-0.189,0.223-0.158C52.283,82.291,52.33,82.338,52.247,82.53z"/>
					</g>
				</g>
				<g>
					<g>
						<path class="st168" d="M51.221,83.394c-0.084,0.191-0.264,0.398-0.316,0.371c-0.04-0.018-0.025-0.293,0.059-0.484
							s0.151-0.188,0.222-0.158C51.256,83.155,51.303,83.203,51.221,83.394z"/>
					</g>
				</g>
				<g>
					<g>
						<path class="st168" d="M53.279,82.417c-0.084,0.191-0.263,0.398-0.315,0.372c-0.04-0.019-0.027-0.293,0.059-0.484
							c0.082-0.192,0.15-0.19,0.221-0.157C53.315,82.177,53.362,82.226,53.279,82.417z"/>
					</g>
				</g>
				<g>
					<g>
						<path class="st168" d="M54.066,81.101c-0.085,0.191-0.262,0.397-0.315,0.373c-0.04-0.02-0.025-0.295,0.058-0.485
							s0.151-0.189,0.222-0.157C54.101,80.862,54.149,80.911,54.066,81.101z"/>
					</g>
				</g>
				<g>
					<g>
						<path class="st168" d="M52.93,81.249c-0.083,0.192-0.262,0.397-0.315,0.373c-0.04-0.02-0.024-0.294,0.06-0.484
							c0.082-0.191,0.15-0.19,0.223-0.159C52.967,81.009,53.013,81.058,52.93,81.249z"/>
					</g>
				</g>
				<g>
					<g>
						<path class="st168" d="M52.344,78.926c-0.082,0.191-0.261,0.398-0.315,0.374c-0.039-0.02-0.024-0.295,0.059-0.486
							s0.15-0.189,0.223-0.156C52.379,78.688,52.428,78.735,52.344,78.926z"/>
					</g>
				</g>
				<g>
					<g>
						<path class="st168" d="M53.403,78.585c-0.082,0.191-0.262,0.398-0.314,0.371c-0.039-0.018-0.025-0.293,0.058-0.482
							c0.085-0.192,0.151-0.189,0.222-0.159C53.439,78.345,53.487,78.394,53.403,78.585z"/>
					</g>
				</g>
			</g>
			<g>
				<g>
					<path class="st22" d="M52.196,75.808c0.258-0.004,0.629,0.379,0.641,0.866c0.012,0.485-0.189,0.882-0.447,0.888
						C51.77,77.578,52.196,75.808,52.196,75.808z"/>
				</g>
			</g>
			<g>
				<g>
					<path class="st52" d="M52.239,75.901c0.225-0.005,0.551,0.333,0.559,0.757c0.012,0.425-0.163,0.773-0.389,0.777
						C51.868,77.447,52.239,75.901,52.239,75.901z"/>
				</g>
			</g>
		</g>
		<g>
			<g>
				<g>
					<g>
						<path class="st128" d="M27.455,49.679c1.363,0.861,1.428,14.138,8.775,22.453c6.05,6.85,18.211,9.747,22.126,11.079
							c0.74,0.251,0.842,0.534,0.894,0.69c0.159,0.475,0.237,0.909-0.306,1.417c-1.686,1.59-6.938,3.438-9.402,3.18
							c-9.149-0.96-27.342-8.9-28.305-25.937C20.918,56.911,24.729,47.954,27.455,49.679z"/>
					</g>
				</g>
				<g>
					<g>
						<path class="st128" d="M24.42,51.494c0,0,2.443-4.504,2.089-5.592c-0.354-1.09,1.948,0.514,1.948,0.514
							s-1.005,4.08-0.797,5.127C27.868,52.59,24.42,51.494,24.42,51.494z"/>
					</g>
				</g>
				<g>
					<g>
						<path class="st131" d="M27.385,50.837c1.306,0.826,1.368,13.548,8.408,21.517C42.69,80.161,57.87,82.61,58.182,83.548
							c0.625,1.877-5.66,4.472-8.779,4.146c-8.768-0.919-26.681-8.317-27.604-24.64C21.494,57.637,24.772,49.183,27.385,50.837z"/>
					</g>
				</g>
				<g>
					<g>
						<path class="st5" d="M26.215,45.156c0,0,2.336,0.811,2.243,1.26c-0.078,0.379-2.172-0.473-2.252-0.835
							C26.177,45.45,26.195,45.285,26.215,45.156z"/>
					</g>
				</g>
				<g>
					<g>
						<path class="st5" d="M58.303,83.188c0.725,0.231,0.928,0.55,0.984,0.819c0.084,0.4,0.315,0.514,0.046,0.879
							c-0.1,0.137-0.258,0.277-0.39,0.433c0,0-0.41-0.715-0.4-1.12C58.55,83.846,58.303,83.188,58.303,83.188z"/>
					</g>
				</g>
			</g>
			<g>
				<g>
					<path class="st128" d="M58.272,85.064c-12.844-0.256-22.104-3.952-27.52-10.984c-7.921-10.285-4.646-24.27-4.611-24.41
						l0.972,0.236c-0.033,0.136-3.193,13.671,4.438,23.57c5.223,6.776,14.22,10.338,26.741,10.588L58.272,85.064z"/>
				</g>
			</g>
		</g>
		<g>
			<g>
				<g>
					<path class="st4" d="M63.34,54.515c0,0,0.432-1.861,0.061-3.099s0.619,0.175,0.619,0.175l-0.168,2.996L63.34,54.515z"/>
				</g>
			</g>
			<g>
				<g>
					<path class="st126" d="M66.625,64.684c2.784,4.866,0.812,10.25-3.034,11.226c-2.069,0.523-4.078,0.105-5.223-0.186
						c-4.313-1.093-5.936-7.354-0.958-12.494c1.219-1.26,1.75-9.302,5.726-8.945c0.164,0.014,0.31,0.174,0.456,0.199
						s0.296-0.082,0.428-0.048C68.113,55.548,64.806,61.503,66.625,64.684z"/>
				</g>
			</g>
			<g>
				<g>
					<path class="st34" d="M66.077,65.492c2.516,4.396,0.733,9.264-2.742,10.145c-1.869,0.474-3.686,0.096-4.719-0.167
						c-3.897-0.987-5.365-6.646-0.867-11.292c1.104-1.137,1.664-9.71,5.258-9.387C67.907,55.23,64.328,62.433,66.077,65.492z"/>
				</g>
			</g>
			<g>
				<g>
					<path class="st39" d="M66.08,71.048c-0.061,0.959-0.692,1.701-1.413,1.656s-2.123-0.916-2.063-1.875
						c0.061-0.961,1.59-2.082,2.311-2.037C65.633,68.839,66.141,70.089,66.08,71.048z"/>
				</g>
			</g>
			<g>
				<g>
					<path class="st39" d="M60.057,66.234c-0.061,0.959-0.693,1.701-1.412,1.655c-0.721-0.046-0.895-0.837-0.833-1.797
						s1.589-2.081,2.31-2.036S60.118,65.274,60.057,66.234z"/>
				</g>
			</g>
			<g>
				<g>
					<path class="st39" d="M64.993,58.626c0.207,0.939-0.195,1.827-0.9,1.982c-0.704,0.155-0.461-0.713-0.668-1.652
						c-0.205-0.939-0.57-1.905,0.135-2.061C64.263,56.742,64.788,57.688,64.993,58.626z"/>
				</g>
			</g>
		</g>
		<g>
			<g>
				<g>
					<g>
						<path class="st37" d="M76.265,73.572c-0.835,0.531-1.437,1.391-1.77,2.4c-1.034-0.114-2.047,0.071-2.868,0.594
							c-2.196,1.396-3.086,4.926-0.104,7.686c2.684,2.481,5.226,3.615,7.423,2.219c0.61-0.389,1.309-1.004,1.441-1.326
							c0.404,0.004,1.156-0.369,1.75-0.746c2.195-1.398,2.246-4.183,1.135-7.664C82.037,72.863,78.462,72.175,76.265,73.572z"/>
					</g>
				</g>
				<g>
					<g>
						<path class="st4" d="M74.881,76.91c0,0-0.689-1.627-1.641-2.35c-0.952-0.723,0.557-0.207,0.557-0.207l1.281,2.479
							L74.881,76.91z"/>
					</g>
				</g>
				<g>
					<g>
						<polygon class="st4" points="79.879,84.969 80.043,85.476 80.241,85.133 80.538,85.259 80.536,84.946 80.856,84.861 
							80.239,84.542 						"/>
					</g>
				</g>
				<g>
					<g>
						<path class="st69" d="M76.333,74.023c-0.779,0.494-1.342,1.297-1.65,2.238c-0.967-0.107-1.91,0.065-2.676,0.553
							c-2.049,1.303-2.878,4.594-0.098,7.166c2.503,2.314,4.873,3.373,6.922,2.07c0.569-0.362,1.221-0.936,1.346-1.234
							c0.376,0,1.078-0.348,1.631-0.698c2.048-1.304,2.094-3.899,1.058-7.146C81.713,73.361,78.38,72.718,76.333,74.023z"/>
					</g>
				</g>
				<g>
					<g>
						<path class="st138" d="M77.256,75.82c0,0,1.768-0.371,3.111,0.746C80.368,76.566,79.414,73.675,77.256,75.82z"/>
					</g>
				</g>
			</g>
			<g>
				<g>
					<g>
						<g>
							<path class="st139" d="M76.23,67.199c-0.944-0.276-1.981-0.163-2.954,0.25c-0.593-0.849-1.395-1.483-2.322-1.754
								c-2.482-0.725-5.704,0.924-5.811,4.961c-0.096,3.631,0.724,6.275,3.207,6.999c0.691,0.201,1.607,0.321,1.935,0.21
								c0.264,0.303,1.036,0.62,1.706,0.816c2.484,0.725,4.596-1.063,6.471-4.176C80.543,71.046,78.713,67.923,76.23,67.199z"/>
						</g>
					</g>
					<g>
						<g>
							<path class="st4" d="M72.828,68.361c0,0,0.761-1.576,0.677-2.76c-0.082-1.182,0.52,0.279,0.52,0.279l-1.01,2.578
								L72.828,68.361z"/>
						</g>
					</g>
					<g>
						<g>
							<polygon class="st4" points="70.088,77.356 69.818,77.811 70.201,77.734 70.303,78.038 70.535,77.831 70.807,78.013 
								70.642,77.347 							"/>
						</g>
					</g>
					<g>
						<g>
							<defs>
								<path id="SVGID_13_" d="M75.926,67.554c-0.877-0.256-1.843-0.152-2.748,0.233c-0.551-0.79-1.297-1.38-2.159-1.632
									c-2.312-0.674-5.308,0.859-5.407,4.615c-0.088,3.378,0.674,5.836,2.984,6.511c0.643,0.188,1.496,0.299,1.8,0.194
									c0.246,0.283,0.964,0.578,1.587,0.761c2.311,0.673,4.275-0.988,6.02-3.886C79.94,71.132,78.239,68.228,75.926,67.554z"/>
							</defs>
							<clipPath id="SVGID_8_">
								<use xlink:href="#SVGID_13_"  style="overflow:visible;"/>
							</clipPath>
							<g class="st114">
								<rect x="65.524" y="65.482" class="st27" width="14.416" height="13.428"/>
							</g>
							<g class="st114">
								<path class="st27" d="M71.895,70.829c-0.407,3.707-3.742,6.382-7.449,5.975h0.078v-7.449h-6.053
									c0.407-3.707,3.742-6.382,7.449-5.975S72.302,67.123,71.895,70.829z"/>
							</g>
							<g class="st114">
								<circle class="st27" cx="65.183" cy="70.091" r="3.377"/>
							</g>
						</g>
					</g>
					<g>
						<g>
							<path class="st138" d="M75.723,69.276c0,0,1.245,0.937,1.285,2.442C77.008,71.718,78.341,69.455,75.723,69.276z"/>
						</g>
					</g>
				</g>
				<g>
					<g>
						<path class="st52" d="M71.381,64.884c-0.046,0.363,0.49,0.955,1.234,1.051c0.744,0.094,1.385-0.123,1.431-0.488
							C74.159,64.571,71.381,64.884,71.381,64.884z"/>
					</g>
				</g>
			</g>
			<g>
				<g>
					<g>
						<path class="st4" d="M68.51,76.683c0,0,1.572-0.993,2.161-2.103c0.589-1.11,0.31,0.542,0.31,0.542l-2.357,1.752L68.51,76.683z
							"/>
					</g>
				</g>
				<g>
					<g>
						<polygon class="st4" points="60.993,83.236 60.497,83.494 60.883,83.64 60.802,83.968 61.128,83.913 61.272,84.231 
							61.498,83.538 						"/>
					</g>
				</g>
				<g>
					<g>
						<path class="st154" d="M71.752,77.697c-0.646-0.723-1.572-1.171-2.603-1.332c-0.054-1.021-0.392-1.971-1.027-2.684
							c-1.7-1.904-5.257-2.208-7.456,1.115c-1.977,2.989-2.674,5.629-0.973,7.534c0.471,0.53,1.177,1.108,1.509,1.186
							c0.063,0.392,0.542,1.062,1.001,1.575c1.699,1.906,4.401,1.514,7.597-0.113C73.351,83.171,73.452,79.603,71.752,77.697z"/>
					</g>
				</g>
				<g>
					<g>
						<path class="st138" d="M70.204,78.718c0,0,0.637,1.963-0.586,3.854C69.618,82.572,73.049,80.63,70.204,78.718z"/>
					</g>
				</g>
			</g>
		</g>
	</g>
</g>
</svg>
