<?xml version="1.0" encoding="utf-8"?>
<!-- Generator: Adobe Illustrator 16.0.0, SVG Export Plug-In . SVG Version: 6.00 Build 0)  -->
<!DOCTYPE svg PUBLIC "-//W3C//DTD SVG 1.1//EN" "http://www.w3.org/Graphics/SVG/1.1/DTD/svg11.dtd">
<svg version="1.1" id="Layer_1" xmlns="http://www.w3.org/2000/svg" xmlns:xlink="http://www.w3.org/1999/xlink" x="0px" y="0px"
	 width="136.834px" height="136.833px" viewBox="0 0 136.834 136.833" style="enable-background:new 0 0 136.834 136.833;"
	 xml:space="preserve">
<style type="text/css">
<![CDATA[
	.st0{fill:#49A0AE;}
	.st1{fill:#E1E1E1;}
	.st2{fill:#E2DDD0;}
	.st3{fill:#4ABC96;}
	.st4{fill:#E7E7D6;}
	.st5{fill:#E7E7E7;}
	.st6{fill:#E84849;}
	.st7{fill:#E8E8E8;}
	.st8{fill:#B42928;}
	.st9{fill:#EAE8E4;}
	.st10{fill:#EBEDEF;}
	.st11{fill:#B9B9BA;}
	.st12{fill:#1FA85B;}
	.st13{fill:#EFC849;}
	.st14{fill:#BB5538;}
	.st15{fill:#BC2C2A;}
	.st16{fill:#F06668;}
	.st17{fill:#F3F0ED;}
	.st18{fill:#F3F4F5;}
	.st19{fill:#F4E028;}
	.st20{fill:#F4F5F5;}
	.st21{fill:#27636D;}
	.st22{fill:#F5F5F5;}
	.st23{fill:#5C9942;}
	.st24{fill:#F7D98B;}
	.st25{fill:#F8E349;}
	.st26{fill:#90C7CF;}
	.st27{fill:#C0B8AA;}
	.st28{fill:#C6C5C5;}
	.st29{fill:#C9C9C8;}
	.st30{opacity:0.7;}
	.st31{fill:#60C3B6;}
	.st32{fill:#FFFFFF;}
	.st33{fill:#626463;}
	.st34{fill:#62C4B5;}
	.st35{fill:none;}
	.st36{fill:#67B8CB;}
	.st37{fill:#CBBD7D;}
	.st38{fill:#CC2027;}
	.st39{fill:#CC3432;}
	.st40{fill:#9ED8D8;}
	.st41{fill:#357180;}
	.st42{fill:#367A82;}
	.st43{fill:#6CC077;}
	.st44{fill:#6FBD44;}
	.st45{fill:#D0B82B;}
	.st46{fill:#3CB881;}
	.st47{fill:#D7D7BF;}
	.st48{fill:#A07238;}
	.st49{fill:#A2D8D4;}
	.st50{fill:#DAC425;}
	.st51{fill:#DBF0F5;}
	.st52{fill:#DCDDD8;}
	.st53{fill:#0EA24A;}
	.st54{fill:#DDA027;}
	.st55{fill:#DFD48A;}
	.st56{fill:#42A392;}
]]>
</style>
<g>
	<g>
		<g>
			<g>
				<circle class="st13" cx="68.417" cy="68.417" r="63.333"/>
			</g>
		</g>
	</g>
	<g>
		<g>
			<g>
				<path class="st5" d="M75.599,82.064c0,1.672-1.354,3.025-3.025,3.025H37.777c-1.67,0-3.025-1.354-3.025-3.025V33.653
					c0-1.672,1.355-3.025,3.025-3.025h34.796c1.671,0,3.025,1.354,3.025,3.025V82.064z"/>
			</g>
		</g>
		<g>
			<g>
				<path class="st29" d="M71.342,43.813c0,0.521-0.423,0.943-0.944,0.943H40.179c-0.521,0-0.944-0.422-0.944-0.943l0,0
					c0-0.521,0.423-0.945,0.944-0.945h30.219C70.919,42.868,71.342,43.292,71.342,43.813L71.342,43.813z"/>
			</g>
		</g>
		<g>
			<g>
				<path class="st29" d="M71.342,48.771c0,0.521-0.423,0.945-0.944,0.945H40.179c-0.521,0-0.944-0.424-0.944-0.945l0,0
					c0-0.521,0.423-0.945,0.944-0.945h30.219C70.919,47.825,71.342,48.249,71.342,48.771L71.342,48.771z"/>
			</g>
		</g>
		<g>
			<g>
				<path class="st29" d="M71.342,38.854c0,0.521-0.423,0.945-0.944,0.945H40.179c-0.521,0-0.944-0.424-0.944-0.945l0,0
					c0-0.521,0.423-0.943,0.944-0.943h30.219C70.919,37.911,71.342,38.333,71.342,38.854L71.342,38.854z"/>
			</g>
		</g>
		<g>
			<g>
				<path class="st29" d="M71.342,53.728c0,0.523-0.423,0.945-0.944,0.945H40.179c-0.521,0-0.944-0.422-0.944-0.945l0,0
					c0-0.521,0.423-0.943,0.944-0.943h30.219C70.919,52.784,71.342,53.206,71.342,53.728L71.342,53.728z"/>
			</g>
		</g>
		<g>
			<g>
				<path class="st29" d="M71.342,58.45c0,0.521-0.423,0.945-0.944,0.945H40.179c-0.521,0-0.944-0.424-0.944-0.945l0,0
					c0-0.521,0.423-0.945,0.944-0.945h30.219C70.919,57.505,71.342,57.929,71.342,58.45L71.342,58.45z"/>
			</g>
		</g>
		<g>
			<g>
				<path class="st29" d="M71.342,63.407c0,0.521-0.423,0.945-0.944,0.945H40.179c-0.521,0-0.944-0.424-0.944-0.945l0,0
					c0-0.521,0.423-0.943,0.944-0.943h30.219C70.919,62.464,71.342,62.886,71.342,63.407L71.342,63.407z"/>
			</g>
		</g>
	</g>
	<g>
		<g>
			<g>
				<path class="st18" d="M107.099,90.564c0,1.672-1.354,3.025-3.025,3.025H69.277c-1.67,0-3.025-1.354-3.025-3.025V42.153
					c0-1.672,1.355-3.025,3.025-3.025h34.796c1.671,0,3.025,1.354,3.025,3.025V90.564z"/>
			</g>
		</g>
		<g>
			<g>
				<path class="st29" d="M102.842,52.313c0,0.521-0.423,0.943-0.944,0.943H71.679c-0.521,0-0.944-0.422-0.944-0.943l0,0
					c0-0.521,0.423-0.945,0.944-0.945h30.219C102.419,51.368,102.842,51.792,102.842,52.313L102.842,52.313z"/>
			</g>
		</g>
		<g>
			<g>
				<path class="st29" d="M102.842,57.271c0,0.521-0.423,0.945-0.944,0.945H71.679c-0.521,0-0.944-0.424-0.944-0.945l0,0
					c0-0.521,0.423-0.945,0.944-0.945h30.219C102.419,56.325,102.842,56.749,102.842,57.271L102.842,57.271z"/>
			</g>
		</g>
		<g>
			<g>
				<path class="st29" d="M102.842,47.354c0,0.521-0.423,0.945-0.944,0.945H71.679c-0.521,0-0.944-0.424-0.944-0.945l0,0
					c0-0.521,0.423-0.943,0.944-0.943h30.219C102.419,46.411,102.842,46.833,102.842,47.354L102.842,47.354z"/>
			</g>
		</g>
		<g>
			<g>
				<path class="st29" d="M102.842,62.228c0,0.523-0.423,0.945-0.944,0.945H71.679c-0.521,0-0.944-0.422-0.944-0.945l0,0
					c0-0.521,0.423-0.943,0.944-0.943h30.219C102.419,61.284,102.842,61.706,102.842,62.228L102.842,62.228z"/>
			</g>
		</g>
		<g>
			<g>
				<path class="st29" d="M102.842,66.95c0,0.521-0.423,0.945-0.944,0.945H71.679c-0.521,0-0.944-0.424-0.944-0.945l0,0
					c0-0.521,0.423-0.945,0.944-0.945h30.219C102.419,66.005,102.842,66.429,102.842,66.95L102.842,66.95z"/>
			</g>
		</g>
		<g>
			<g>
				<path class="st29" d="M102.842,71.908c0,0.521-0.423,0.945-0.944,0.945H71.679c-0.521,0-0.944-0.424-0.944-0.945l0,0
					c0-0.521,0.423-0.943,0.944-0.943h30.219C102.419,70.964,102.842,71.386,102.842,71.908L102.842,71.908z"/>
			</g>
		</g>
	</g>
	<g>
		<g>
			<g>
				<g>
					<path class="st22" d="M53.629,53.103c-1.671,0-3.025,1.355-3.025,3.025v48.411c0,1.672,1.354,3.027,3.025,3.027h34.796
						c1.671,0,3.025-1.355,3.025-3.027V67.114L76.865,53.103H53.629z"/>
				</g>
			</g>
		</g>
		<g>
			<g>
				<path class="st1" d="M91.45,67.114h-11.56c-1.671,0-3.025-1.354-3.025-3.025V53.103L91.45,67.114z"/>
			</g>
		</g>
		<g>
			<g>
				<path class="st29" d="M87.193,71.248c0,0.521-0.423,0.943-0.944,0.943H56.03c-0.521,0-0.945-0.422-0.945-0.943l0,0
					c0-0.521,0.424-0.945,0.945-0.945h30.219C86.771,70.302,87.193,70.726,87.193,71.248L87.193,71.248z"/>
			</g>
		</g>
		<g>
			<g>
				<path class="st29" d="M87.193,76.205c0,0.521-0.423,0.945-0.944,0.945H56.03c-0.521,0-0.945-0.424-0.945-0.945l0,0
					c0-0.521,0.424-0.945,0.945-0.945h30.219C86.771,75.259,87.193,75.683,87.193,76.205L87.193,76.205z"/>
			</g>
		</g>
		<g>
			<g>
				<path class="st29" d="M87.193,80.925c0,0.521-0.423,0.945-0.944,0.945H56.03c-0.521,0-0.945-0.424-0.945-0.945l0,0
					c0-0.521,0.424-0.943,0.945-0.943h30.219C86.771,79.982,87.193,80.404,87.193,80.925L87.193,80.925z"/>
			</g>
		</g>
		<g>
			<g>
				<path class="st29" d="M87.193,85.884c0,0.521-0.423,0.943-0.944,0.943H56.03c-0.521,0-0.945-0.422-0.945-0.943l0,0
					c0-0.521,0.424-0.945,0.945-0.945h30.219C86.771,84.939,87.193,85.363,87.193,85.884L87.193,85.884z"/>
			</g>
		</g>
		<g>
			<g>
				<path class="st29" d="M71.849,89.898H56.03c-0.521,0-0.945,0.422-0.945,0.943s0.424,0.945,0.945,0.945h15.818
					c0.521,0,0.944-0.424,0.944-0.945S72.37,89.898,71.849,89.898z"/>
			</g>
		</g>
	</g>
</g>
</svg>
