<?xml version="1.0" encoding="utf-8"?>
<!-- Generator: Adobe Illustrator 16.0.0, SVG Export Plug-In . SVG Version: 6.00 Build 0)  -->
<!DOCTYPE svg PUBLIC "-//W3C//DTD SVG 1.1//EN" "http://www.w3.org/Graphics/SVG/1.1/DTD/svg11.dtd">
<svg version="1.1" id="Layer_1" xmlns="http://www.w3.org/2000/svg" xmlns:xlink="http://www.w3.org/1999/xlink" x="0px" y="0px"
	 width="136.834px" height="136.833px" viewBox="0 0 136.834 136.833" style="enable-background:new 0 0 136.834 136.833;"
	 xml:space="preserve">
<style type="text/css">
<![CDATA[
	.st0{fill:#49A0AE;}
	.st1{fill:#E1E1E1;}
	.st2{fill:#E2DDD0;}
	.st3{fill:#4ABC96;}
	.st4{fill:#E7E7D6;}
	.st5{fill:#E7E7E7;}
	.st6{fill:#E84849;}
	.st7{fill:#E8E8E8;}
	.st8{fill:#B42928;}
	.st9{fill:#EAE8E4;}
	.st10{fill:#EBEDEF;}
	.st11{fill:#B9B9BA;}
	.st12{fill:#1FA85B;}
	.st13{fill:#EFC849;}
	.st14{fill:#BB5538;}
	.st15{fill:#BC2C2A;}
	.st16{fill:#F06668;}
	.st17{fill:#F3F0ED;}
	.st18{fill:#F3F4F5;}
	.st19{fill:#F4E028;}
	.st20{fill:#F4F5F5;}
	.st21{fill:#27636D;}
	.st22{fill:#F5F5F5;}
	.st23{fill:#5C9942;}
	.st24{fill:#F7D98B;}
	.st25{fill:#F8E349;}
	.st26{fill:#90C7CF;}
	.st27{fill:#C0B8AA;}
	.st28{fill:#C6C5C5;}
	.st29{fill:#C9C9C8;}
	.st30{opacity:0.7;}
	.st31{fill:#60C3B6;}
	.st32{fill:#FFFFFF;}
	.st33{fill:#626463;}
	.st34{fill:#62C4B5;}
	.st35{fill:none;}
	.st36{fill:#67B8CB;}
	.st37{fill:#CBBD7D;}
	.st38{fill:#CC2027;}
	.st39{fill:#CC3432;}
	.st40{fill:#9ED8D8;}
	.st41{fill:#357180;}
	.st42{fill:#367A82;}
	.st43{fill:#6CC077;}
	.st44{fill:#6FBD44;}
	.st45{fill:#D0B82B;}
	.st46{fill:#3CB881;}
	.st47{fill:#D7D7BF;}
	.st48{fill:#A07238;}
	.st49{fill:#A2D8D4;}
	.st50{fill:#DAC425;}
	.st51{fill:#DBF0F5;}
	.st52{fill:#DCDDD8;}
	.st53{fill:#0EA24A;}
	.st54{fill:#DDA027;}
	.st55{fill:#DFD48A;}
	.st56{fill:#42A392;}
]]>
</style>
<g>
	<g>
		<g>
			<circle class="st46" cx="68.417" cy="68.418" r="63.333"/>
		</g>
	</g>
	<g>
		<g>
			<g>
				<g>
					<path class="st37" d="M102.113,34.514c1.482,1.484,1.635,3.734,0.34,5.031L90.297,51.701c-1.295,1.293-3.547,1.143-5.03-0.34
						l0,0c-1.483-1.484-1.635-3.738-0.341-5.031l12.156-12.156C98.377,32.877,100.63,33.031,102.113,34.514L102.113,34.514z"/>
				</g>
				<g>
					<g>
						<path class="st27" d="M96.364,39.227c-1.946-1.947-25.132-2.875-29.128,1.121L28.001,79.582
							c-3.995,3.996-3.751,8.311,0.245,12.305l15.676,15.678c3.996,3.996,8.064,3.994,12.061-0.002l39.235-39.234
							C99.213,64.332,98.311,41.172,96.364,39.227z M82.958,53.656c-1.555-1.555-1.555-4.074,0-5.629
							c1.554-1.553,4.073-1.553,5.628,0.002c1.554,1.553,1.554,4.072,0,5.627C87.031,55.211,84.512,55.211,82.958,53.656z"/>
					</g>
				</g>
				<g>
					<g>
						<path class="st2" d="M95.384,39.127c-1.554-1.553-24.35-2.723-28.25,1.178l-38.53,38.531c-3.899,3.898-3.899,7.871,0,11.77
							l15.302,15.303c3.9,3.9,7.872,3.898,11.771,0l38.53-38.531C98.107,63.477,96.938,40.682,95.384,39.127z M82.24,53.057
							c-1.518-1.516-1.518-3.975-0.002-5.492c1.518-1.518,3.979-1.518,5.496,0c1.516,1.516,1.516,3.977-0.003,5.494
							C86.215,54.574,83.756,54.572,82.24,53.057z"/>
					</g>
				</g>
				<g>
					<g>
						<path class="st35" d="M87.731,53.059c1.519-1.518,1.519-3.979,0.003-5.494c-0.435-0.436-0.949-0.73-1.494-0.916
							c-1.529,1.422-3.204,3.002-4.98,4.697c0.173,0.625,0.488,1.221,0.98,1.711C83.756,54.572,86.215,54.574,87.731,53.059z"/>
					</g>
					<g>
						<path class="st9" d="M86.24,46.648c0.545,0.186,1.06,0.48,1.494,0.916c1.516,1.516,1.516,3.977-0.003,5.494
							c-1.517,1.516-3.976,1.514-5.491-0.002c-0.492-0.49-0.808-1.086-0.98-1.711c-17.839,17.01-46.201,45.717-46.201,45.717
							l8.847,8.846c3.9,3.9,7.872,3.898,11.771,0l38.53-38.531c3.9-3.9,2.73-26.695,1.177-28.25
							C95.017,38.76,91.459,41.797,86.24,46.648z"/>
					</g>
				</g>
			</g>
		</g>
		<g>
			<path class="st27" d="M62.268,61.637c0.879,0.879,0.879,2.303,0,3.182L41.055,86.031c-0.879,0.879-2.303,0.879-3.182,0l0,0
				c-0.879-0.879-0.879-2.303,0-3.182l21.213-21.213C59.965,60.758,61.389,60.758,62.268,61.637L62.268,61.637z"/>
		</g>
		<g>
			<path class="st27" d="M67.925,67.293c0.879,0.879,0.878,2.305,0,3.182L46.712,91.688c-0.879,0.879-2.304,0.879-3.183,0l0,0
				c-0.879-0.879-0.878-2.303,0-3.182l21.214-21.213C65.621,66.414,67.046,66.414,67.925,67.293L67.925,67.293z"/>
		</g>
		<g>
			<path class="st27" d="M73.582,72.949c0.879,0.879,0.878,2.305,0,3.184L52.368,97.346c-0.878,0.877-2.303,0.879-3.182,0l0,0
				c-0.879-0.879-0.878-2.305,0-3.182l21.213-21.215C71.278,72.072,72.703,72.07,73.582,72.949L73.582,72.949z"/>
		</g>
	</g>
	<g>
		<g>
			<g>
				<circle class="st53" cx="93.702" cy="101.98" r="15.25"/>
			</g>
		</g>
		<g>
			<g>
				<path class="st32" d="M103.948,101.936c0,1.328-1.075,2.404-2.405,2.404h-15.65c-1.327,0-2.404-1.076-2.404-2.404l0,0
					c0-1.328,1.077-2.404,2.404-2.404h15.65C102.873,99.531,103.948,100.607,103.948,101.936L103.948,101.936z"/>
			</g>
		</g>
		<g>
			<g>
				<path class="st32" d="M93.718,112.166c-1.327,0-2.403-1.076-2.403-2.406v-15.65c0-1.326,1.076-2.404,2.403-2.404l0,0
					c1.328,0,2.405,1.078,2.405,2.404v15.65C96.123,111.09,95.046,112.166,93.718,112.166L93.718,112.166z"/>
			</g>
		</g>
	</g>
	<g>
		<g>
			<path class="st17" d="M85.033,44.846c-3.016,0-5.464,2.447-5.464,5.463c0,3.018,2.448,5.465,5.464,5.465
				c3.018,0,5.461-2.447,5.461-5.465C90.494,47.293,88.051,44.846,85.033,44.846z M85.033,54.189c-2.143,0-3.881-1.738-3.881-3.881
				s1.738-3.881,3.881-3.881s3.879,1.738,3.879,3.881S87.176,54.189,85.033,54.189z"/>
		</g>
	</g>
	<g>
		<path class="st55" d="M102.664,35.066c1.3,1.299,1.3,3.406,0,4.707L90.451,51.986c-1.299,1.299-3.406,1.299-4.707-0.002l0,0
			c-1.3-1.299-1.301-3.408-0.001-4.707l12.213-12.213C99.256,33.764,101.363,33.766,102.664,35.066L102.664,35.066z"/>
	</g>
</g>
</svg>
