<?xml version="1.0" encoding="utf-8"?>
<!-- Generator: Adobe Illustrator 16.0.0, SVG Export Plug-In . SVG Version: 6.00 Build 0)  -->
<!DOCTYPE svg PUBLIC "-//W3C//DTD SVG 1.1//EN" "http://www.w3.org/Graphics/SVG/1.1/DTD/svg11.dtd">
<svg version="1.1" id="Layer_1" xmlns="http://www.w3.org/2000/svg" xmlns:xlink="http://www.w3.org/1999/xlink" x="0px" y="0px"
	 width="136.833px" height="136.834px" viewBox="0 0 136.833 136.834" style="enable-background:new 0 0 136.833 136.834;"
	 xml:space="preserve">
<style type="text/css">
<![CDATA[
	.st0{fill:#49A0AE;}
	.st1{fill:#E1E1E1;}
	.st2{fill:#E2DDD0;}
	.st3{fill:#4ABC96;}
	.st4{fill:#E7E7D6;}
	.st5{fill:#E7E7E7;}
	.st6{fill:#E84849;}
	.st7{fill:#E8E8E8;}
	.st8{fill:#B42928;}
	.st9{fill:#EAE8E4;}
	.st10{fill:#EBEDEF;}
	.st11{fill:#B9B9BA;}
	.st12{fill:#1FA85B;}
	.st13{fill:#EFC849;}
	.st14{fill:#BB5538;}
	.st15{fill:#BC2C2A;}
	.st16{fill:#F06668;}
	.st17{fill:#F3F0ED;}
	.st18{fill:#F3F4F5;}
	.st19{fill:#F4E028;}
	.st20{fill:#F4F5F5;}
	.st21{fill:#27636D;}
	.st22{fill:#F5F5F5;}
	.st23{fill:#5C9942;}
	.st24{fill:#F7D98B;}
	.st25{fill:#F8E349;}
	.st26{fill:#90C7CF;}
	.st27{fill:#C0B8AA;}
	.st28{fill:#C6C5C5;}
	.st29{fill:#C9C9C8;}
	.st30{opacity:0.7;}
	.st31{fill:#60C3B6;}
	.st32{fill:#FFFFFF;}
	.st33{fill:#626463;}
	.st34{fill:#62C4B5;}
	.st35{fill:none;}
	.st36{fill:#67B8CB;}
	.st37{fill:#CBBD7D;}
	.st38{fill:#CC2027;}
	.st39{fill:#CC3432;}
	.st40{fill:#9ED8D8;}
	.st41{fill:#357180;}
	.st42{fill:#367A82;}
	.st43{fill:#6CC077;}
	.st44{fill:#6FBD44;}
	.st45{fill:#D0B82B;}
	.st46{fill:#3CB881;}
	.st47{fill:#D7D7BF;}
	.st48{fill:#A07238;}
	.st49{fill:#A2D8D4;}
	.st50{fill:#DAC425;}
	.st51{fill:#DBF0F5;}
	.st52{fill:#DCDDD8;}
	.st53{fill:#0EA24A;}
	.st54{fill:#DDA027;}
	.st55{fill:#DFD48A;}
	.st56{fill:#42A392;}
]]>
</style>
<g>
	<g>
		<g>
			<g>
				<circle class="st13" cx="68.417" cy="68.417" r="63.333"/>
			</g>
		</g>
	</g>
	<g>
		<g>
			<g>
				<g>
					<g>
						<path class="st22" d="M43.68,30.156c-2.357,0-4.271,1.913-4.271,4.272v68.351c0,2.359,1.914,4.272,4.271,4.272h49.129
							c2.359,0,4.271-1.913,4.271-4.272V49.939L76.488,30.156H43.68z"/>
					</g>
				</g>
			</g>
			<g>
				<g>
					<path class="st1" d="M97.08,49.939H80.76c-2.359,0-4.271-1.913-4.271-4.272V30.156L97.08,49.939z"/>
				</g>
			</g>
			<g>
				<g>
					<path class="st29" d="M91.07,55.772c0,0.736-0.598,1.333-1.334,1.333H47.07c-0.736,0-1.334-0.597-1.334-1.333l0,0
						c0-0.736,0.598-1.333,1.334-1.333h42.666C90.473,54.439,91.07,55.036,91.07,55.772L91.07,55.772z"/>
				</g>
			</g>
			<g>
				<g>
					<path class="st29" d="M91.07,62.772c0,0.736-0.598,1.333-1.334,1.333H47.07c-0.736,0-1.334-0.597-1.334-1.333l0,0
						c0-0.736,0.598-1.333,1.334-1.333h42.666C90.473,61.439,91.07,62.036,91.07,62.772L91.07,62.772z"/>
				</g>
			</g>
			<g>
				<g>
					<path class="st29" d="M91.07,69.439c0,0.736-0.598,1.333-1.334,1.333H47.07c-0.736,0-1.334-0.597-1.334-1.333l0,0
						c0-0.736,0.598-1.333,1.334-1.333h42.666C90.473,68.105,91.07,68.703,91.07,69.439L91.07,69.439z"/>
				</g>
			</g>
			<g>
				<g>
					<path class="st29" d="M91.07,76.439c0,0.736-0.598,1.333-1.334,1.333H47.07c-0.736,0-1.334-0.597-1.334-1.333l0,0
						c0-0.736,0.598-1.333,1.334-1.333h42.666C90.473,75.105,91.07,75.703,91.07,76.439L91.07,76.439z"/>
				</g>
			</g>
			<g>
				<g>
					<path class="st29" d="M69.404,82.105H47.07c-0.736,0-1.334,0.597-1.334,1.333s0.598,1.333,1.334,1.333h22.334
						c0.736,0,1.334-0.597,1.334-1.333S70.141,82.105,69.404,82.105z"/>
				</g>
			</g>
		</g>
		<g>
			<g>
				<g>
					<g>
						<circle class="st0" cx="92.805" cy="100.77" r="15.25"/>
					</g>
				</g>
			</g>
			<g>
				<g>
					<g>
						<g>
							<path class="st48" d="M87.954,105.801c-0.956-0.957-2.092-1.372-2.537-0.928l-4.9,4.901c0.973,1.325,2.149,2.488,3.491,3.439
								l4.873-4.874C89.327,107.893,88.914,106.756,87.954,105.801z"/>
						</g>
					</g>
				</g>
				<g>
					<g>
						<circle class="st31" cx="93.18" cy="100.578" r="9.365"/>
					</g>
				</g>
				<g>
					<g>
						<path class="st48" d="M84.949,105.297l-1.333,1.332c0,0,1.216,2.686,3.831,3.098l0.969-0.966v-1.25L84.949,105.297z"/>
					</g>
				</g>
				<g>
					<g>
						<g>
							<path class="st10" d="M85.919,93.319c-4.008,4.009-4.008,10.51,0,14.517c4.013,4.011,10.509,4.011,14.517,0.001
								c4.009-4.008,4.009-10.509,0-14.518C96.428,89.31,89.932,89.31,85.919,93.319z M98.607,106.008
								c-2.996,2.996-7.857,2.998-10.857,0c-2.999-2.999-2.999-7.861,0-10.859c3-2.999,7.861-2.999,10.857-0.001
								C101.607,98.147,101.606,103.01,98.607,106.008z"/>
						</g>
					</g>
				</g>
				<g class="st30">
					<g>
						<path class="st20" d="M88.096,99.574c-0.189,0.419-0.007,0.918,0.412,1.11c0.418,0.196,0.918,0.009,1.111-0.407
							c0,0,0.007-0.02,0.047-0.094c0.291-0.531,1.691-2.789,4.651-3.063c0.358-0.035,0.641-0.29,0.728-0.62
							c0.023-0.092,0.035-0.192,0.023-0.294c-0.044-0.46-0.453-0.798-0.912-0.752C89.794,95.901,88.14,99.488,88.096,99.574z"/>
					</g>
				</g>
			</g>
		</g>
	</g>
</g>
</svg>
