<?xml version="1.0" encoding="utf-8"?>
<!-- Generator: Adobe Illustrator 16.0.0, SVG Export Plug-In . SVG Version: 6.00 Build 0)  -->
<!DOCTYPE svg PUBLIC "-//W3C//DTD SVG 1.1//EN" "http://www.w3.org/Graphics/SVG/1.1/DTD/svg11.dtd">
<svg version="1.1" id="Layer_1" xmlns="http://www.w3.org/2000/svg" xmlns:xlink="http://www.w3.org/1999/xlink" x="0px" y="0px"
	 width="136.833px" height="136.834px" viewBox="0 0 136.833 136.834" style="enable-background:new 0 0 136.833 136.834;"
	 xml:space="preserve">
<style type="text/css">
<![CDATA[
	.st0{fill:#49A0AE;}
	.st1{fill:#E1E1E1;}
	.st2{fill:#E2DDD0;}
	.st3{fill:#4ABC96;}
	.st4{fill:#E7E7D6;}
	.st5{fill:#E7E7E7;}
	.st6{fill:#E84849;}
	.st7{fill:#E8E8E8;}
	.st8{fill:#B42928;}
	.st9{fill:#EAE8E4;}
	.st10{fill:#EBEDEF;}
	.st11{fill:#B9B9BA;}
	.st12{fill:#1FA85B;}
	.st13{fill:#EFC849;}
	.st14{fill:#BB5538;}
	.st15{fill:#BC2C2A;}
	.st16{fill:#F06668;}
	.st17{fill:#F3F0ED;}
	.st18{fill:#F3F4F5;}
	.st19{fill:#F4E028;}
	.st20{fill:#F4F5F5;}
	.st21{fill:#27636D;}
	.st22{fill:#F5F5F5;}
	.st23{fill:#5C9942;}
	.st24{fill:#F7D98B;}
	.st25{fill:#F8E349;}
	.st26{fill:#90C7CF;}
	.st27{fill:#C0B8AA;}
	.st28{fill:#C6C5C5;}
	.st29{fill:#C9C9C8;}
	.st30{opacity:0.7;}
	.st31{fill:#60C3B6;}
	.st32{fill:#FFFFFF;}
	.st33{fill:#626463;}
	.st34{fill:#62C4B5;}
	.st35{fill:none;}
	.st36{fill:#67B8CB;}
	.st37{fill:#CBBD7D;}
	.st38{fill:#CC2027;}
	.st39{fill:#CC3432;}
	.st40{fill:#9ED8D8;}
	.st41{fill:#357180;}
	.st42{fill:#367A82;}
	.st43{fill:#6CC077;}
	.st44{fill:#6FBD44;}
	.st45{fill:#D0B82B;}
	.st46{fill:#3CB881;}
	.st47{fill:#D7D7BF;}
	.st48{fill:#A07238;}
	.st49{fill:#A2D8D4;}
	.st50{fill:#DAC425;}
	.st51{fill:#DBF0F5;}
	.st52{fill:#DCDDD8;}
	.st53{fill:#0EA24A;}
	.st54{fill:#DDA027;}
	.st55{fill:#DFD48A;}
	.st56{fill:#42A392;}
]]>
</style>
<g>
	<g>
		<g>
			<g>
				<circle class="st13" cx="68.417" cy="68.417" r="63.333"/>
			</g>
		</g>
	</g>
	<g>
		<g>
			<g>
				<g>
					<g>
						<path class="st22" d="M43.68,30.156c-2.357,0-4.271,1.913-4.271,4.272v68.351c0,2.359,1.914,4.272,4.271,4.272h49.129
							c2.359,0,4.271-1.913,4.271-4.272V49.939L76.488,30.156H43.68z"/>
					</g>
				</g>
			</g>
			<g>
				<g>
					<path class="st1" d="M97.08,49.939H80.76c-2.359,0-4.271-1.913-4.271-4.272V30.156L97.08,49.939z"/>
				</g>
			</g>
			<g>
				<g>
					<path class="st29" d="M91.07,55.772c0,0.736-0.598,1.333-1.334,1.333H47.07c-0.736,0-1.334-0.597-1.334-1.333l0,0
						c0-0.736,0.598-1.333,1.334-1.333h42.666C90.473,54.439,91.07,55.036,91.07,55.772L91.07,55.772z"/>
				</g>
			</g>
			<g>
				<g>
					<path class="st29" d="M91.07,62.772c0,0.736-0.598,1.333-1.334,1.333H47.07c-0.736,0-1.334-0.597-1.334-1.333l0,0
						c0-0.736,0.598-1.333,1.334-1.333h42.666C90.473,61.439,91.07,62.036,91.07,62.772L91.07,62.772z"/>
				</g>
			</g>
			<g>
				<g>
					<path class="st29" d="M91.07,69.439c0,0.736-0.598,1.333-1.334,1.333H47.07c-0.736,0-1.334-0.597-1.334-1.333l0,0
						c0-0.736,0.598-1.333,1.334-1.333h42.666C90.473,68.105,91.07,68.703,91.07,69.439L91.07,69.439z"/>
				</g>
			</g>
			<g>
				<g>
					<path class="st29" d="M91.07,76.439c0,0.736-0.598,1.333-1.334,1.333H47.07c-0.736,0-1.334-0.597-1.334-1.333l0,0
						c0-0.736,0.598-1.333,1.334-1.333h42.666C90.473,75.105,91.07,75.703,91.07,76.439L91.07,76.439z"/>
				</g>
			</g>
			<g>
				<g>
					<path class="st29" d="M69.404,82.105H47.07c-0.736,0-1.334,0.597-1.334,1.333s0.598,1.333,1.334,1.333h22.334
						c0.736,0,1.334-0.597,1.334-1.333S70.141,82.105,69.404,82.105z"/>
				</g>
			</g>
		</g>
		<g>
			<g>
				<g>
					<g>
						<circle class="st3" cx="92.805" cy="100.77" r="15.25"/>
					</g>
				</g>
			</g>
		</g>
		<g>
			<g>
				<g>
					<g>
						<path class="st19" d="M87.781,93.952l0.828-0.95l-0.268-1.234l1.242,0.437c1.65-1.129,3.721-1.557,5.611-0.855
							c3.271,1.213,4.752,5.344,3.514,8.681l2.066,0.766c1.671-4.501-0.387-9.92-4.796-11.557c-3.801-1.41-8.104,0.452-10.291,3.873
							c0,0-0.212,0.812,0.642,1.19C87.184,94.68,87.781,93.952,87.781,93.952z"/>
					</g>
				</g>
				<g>
					<g>
						<path class="st19" d="M101.623,108.855c0,1.005-0.833,1.821-1.862,1.821h-13.34c-1.025,0-1.86-0.816-1.86-1.821V98.077
							c0-1.006,17.063-1.006,17.063,0V108.855z"/>
					</g>
				</g>
				<g>
					<g>
						<path class="st50" d="M95.064,102.443c0-1.05-0.853-1.901-1.901-1.901c-1.05,0-1.902,0.851-1.902,1.901
							c0,0.802,0.496,1.485,1.196,1.765v1.754c0,0.372,0.302,0.674,0.674,0.674s0.674-0.302,0.674-0.674v-1.73
							C94.537,103.969,95.064,103.268,95.064,102.443z"/>
					</g>
				</g>
				<g>
					<g>
						<path class="st45" d="M91.189,102.443c0-1.05,0.853-1.901,1.902-1.901c0,0-1.325,0.883-1.325,1.934c0,1.07,1,1.705,1,1.705
							v1.801c0,0.372,0.356,0.654,0.356,0.654c-0.371,0-0.673-0.302-0.673-0.674v-1.73
							C91.716,103.969,91.189,103.268,91.189,102.443z"/>
					</g>
				</g>
			</g>
			<g>
				<g>
					<polygon class="st25" points="98.519,110.677 96.143,110.677 96.143,97.366 98.519,97.485 					"/>
				</g>
			</g>
			<g>
				<g>
					<g>
						<path class="st25" d="M96.143,89.295v2.523c0.98,0.622,1.801,1.691,2.376,2.743v-3.776
							C97.814,90.143,97.012,89.669,96.143,89.295z"/>
					</g>
				</g>
			</g>
		</g>
	</g>
</g>
</svg>
