<?xml version="1.0" encoding="utf-8"?>
<!-- Generator: Adobe Illustrator 16.0.0, SVG Export Plug-In . SVG Version: 6.00 Build 0)  -->
<!DOCTYPE svg PUBLIC "-//W3C//DTD SVG 1.1//EN" "http://www.w3.org/Graphics/SVG/1.1/DTD/svg11.dtd">
<svg version="1.1" id="Layer_1" xmlns="http://www.w3.org/2000/svg" xmlns:xlink="http://www.w3.org/1999/xlink" x="0px" y="0px"
	 width="136.834px" height="136.833px" viewBox="0 0 136.834 136.833" style="enable-background:new 0 0 136.834 136.833;"
	 xml:space="preserve">
<style type="text/css">
<![CDATA[
	.st0{fill:#49A0AE;}
	.st1{fill:#E1E1E1;}
	.st2{fill:#E2DDD0;}
	.st3{fill:#4ABC96;}
	.st4{fill:#E7E7D6;}
	.st5{fill:#E7E7E7;}
	.st6{fill:#E84849;}
	.st7{fill:#E8E8E8;}
	.st8{fill:#B42928;}
	.st9{fill:#EAE8E4;}
	.st10{fill:#EBEDEF;}
	.st11{fill:#B9B9BA;}
	.st12{fill:#1FA85B;}
	.st13{fill:#EFC849;}
	.st14{fill:#BB5538;}
	.st15{fill:#BC2C2A;}
	.st16{fill:#F06668;}
	.st17{fill:#F3F0ED;}
	.st18{fill:#F3F4F5;}
	.st19{fill:#F4E028;}
	.st20{fill:#F4F5F5;}
	.st21{fill:#27636D;}
	.st22{fill:#F5F5F5;}
	.st23{fill:#5C9942;}
	.st24{fill:#F7D98B;}
	.st25{fill:#F8E349;}
	.st26{fill:#90C7CF;}
	.st27{fill:#C0B8AA;}
	.st28{fill:#C6C5C5;}
	.st29{fill:#C9C9C8;}
	.st30{opacity:0.7;}
	.st31{fill:#60C3B6;}
	.st32{fill:#FFFFFF;}
	.st33{fill:#626463;}
	.st34{fill:#62C4B5;}
	.st35{fill:none;}
	.st36{fill:#67B8CB;}
	.st37{fill:#CBBD7D;}
	.st38{fill:#CC2027;}
	.st39{fill:#CC3432;}
	.st40{fill:#9ED8D8;}
	.st41{fill:#357180;}
	.st42{fill:#367A82;}
	.st43{fill:#6CC077;}
	.st44{fill:#6FBD44;}
	.st45{fill:#D0B82B;}
	.st46{fill:#3CB881;}
	.st47{fill:#D7D7BF;}
	.st48{fill:#A07238;}
	.st49{fill:#A2D8D4;}
	.st50{fill:#DAC425;}
	.st51{fill:#DBF0F5;}
	.st52{fill:#DCDDD8;}
	.st53{fill:#0EA24A;}
	.st54{fill:#DDA027;}
	.st55{fill:#DFD48A;}
	.st56{fill:#42A392;}
]]>
</style>
<g>
	<g>
		<g>
			<circle class="st0" cx="68.417" cy="68.417" r="63.333"/>
		</g>
		<g>
			<g>
				<path class="st0" d="M31.305,39.08h73.748c5.961,0,10.792,4.832,10.792,10.793v60.496c9.891-11.174,15.905-25.857,15.905-41.951
					c0-34.98-28.355-63.334-63.334-63.334c-34.977,0-63.332,28.354-63.332,63.334c0,15.832,5.824,30.297,15.429,41.4V49.873
					C20.513,43.912,25.344,39.08,31.305,39.08z"/>
			</g>
			<g>
				<path class="st7" d="M68.416,131.75c18.883,0,35.825-8.273,47.429-21.381V49.873c0-5.961-4.831-10.793-10.792-10.793H31.305
					c-5.961,0-10.792,4.832-10.792,10.793v59.945C32.126,123.244,49.272,131.75,68.416,131.75z"/>
			</g>
		</g>
	</g>
	<g>
		<g>
			<polygon class="st15" points="45.325,36.458 45.325,96.273 67.751,80.33 90.179,96.273 90.18,36.458 			"/>
		</g>
		<g>
			<polygon class="st39" points="45.325,34.448 45.325,94.263 67.751,78.32 90.179,94.263 90.179,65.523 90.18,65.509 90.18,34.448 
							"/>
		</g>
		<g>
			<polygon class="st54" points="67.751,42.324 72.003,50.936 81.506,52.318 74.629,59.021 76.253,68.488 67.751,64.018 
				59.25,68.488 60.875,59.021 53.998,52.318 63.501,50.936 			"/>
			<path class="st54" d="M59.25,69.488c-0.207,0-0.414-0.064-0.588-0.191c-0.308-0.224-0.462-0.603-0.397-0.978l1.536-8.949
				L53.3,53.034c-0.272-0.266-0.37-0.663-0.253-1.025c0.118-0.362,0.431-0.626,0.808-0.681l8.982-1.306l4.018-8.141
				c0.336-0.683,1.457-0.683,1.793,0l4.02,8.141l8.982,1.306c0.377,0.055,0.689,0.319,0.808,0.681
				c0.117,0.362,0.02,0.759-0.253,1.025l-6.501,6.336l1.535,8.949c0.064,0.375-0.09,0.754-0.397,0.978
				c-0.308,0.225-0.716,0.253-1.054,0.076l-8.036-4.225l-8.035,4.225C59.569,69.45,59.409,69.488,59.25,69.488z M67.751,63.018
				c0.16,0,0.319,0.038,0.466,0.115l6.708,3.527l-1.281-7.47c-0.056-0.324,0.052-0.655,0.287-0.885l5.427-5.289l-7.498-1.09
				c-0.326-0.047-0.607-0.252-0.753-0.547l-3.355-6.796l-3.354,6.795c-0.146,0.295-0.427,0.5-0.753,0.547l-7.498,1.09l5.427,5.289
				c0.235,0.23,0.343,0.561,0.287,0.885l-1.282,7.47l6.707-3.527C67.432,63.056,67.591,63.018,67.751,63.018z"/>
		</g>
	</g>
	<g>
		<polygon class="st15" points="90.18,34.448 90.18,39.083 94.345,39.083 		"/>
	</g>
	<g>
		<polygon class="st15" points="45.344,34.448 45.344,39.083 41.179,39.083 		"/>
	</g>
</g>
</svg>
