<?xml version="1.0" encoding="utf-8"?>
<!-- Generator: Adobe Illustrator 16.0.0, SVG Export Plug-In . SVG Version: 6.00 Build 0)  -->
<!DOCTYPE svg PUBLIC "-//W3C//DTD SVG 1.1//EN" "http://www.w3.org/Graphics/SVG/1.1/DTD/svg11.dtd">
<svg version="1.1" id="Layer_1" xmlns="http://www.w3.org/2000/svg" xmlns:xlink="http://www.w3.org/1999/xlink" x="0px" y="0px"
	 width="136.834px" height="136.833px" viewBox="0 0 136.834 136.833" style="enable-background:new 0 0 136.834 136.833;"
	 xml:space="preserve">
<style type="text/css">
<![CDATA[
	.st0{fill:#49A0AE;}
	.st1{fill:#E1E1E1;}
	.st2{fill:#E2DDD0;}
	.st3{fill:#4ABC96;}
	.st4{fill:#E7E7D6;}
	.st5{fill:#E7E7E7;}
	.st6{fill:#E84849;}
	.st7{fill:#E8E8E8;}
	.st8{fill:#B42928;}
	.st9{fill:#EAE8E4;}
	.st10{fill:#EBEDEF;}
	.st11{fill:#B9B9BA;}
	.st12{fill:#1FA85B;}
	.st13{fill:#EFC849;}
	.st14{fill:#BB5538;}
	.st15{fill:#BC2C2A;}
	.st16{fill:#F06668;}
	.st17{fill:#F3F0ED;}
	.st18{fill:#F3F4F5;}
	.st19{fill:#F4E028;}
	.st20{fill:#F4F5F5;}
	.st21{fill:#27636D;}
	.st22{fill:#F5F5F5;}
	.st23{fill:#5C9942;}
	.st24{fill:#F7D98B;}
	.st25{fill:#F8E349;}
	.st26{fill:#90C7CF;}
	.st27{fill:#C0B8AA;}
	.st28{fill:#C6C5C5;}
	.st29{fill:#C9C9C8;}
	.st30{opacity:0.7;}
	.st31{fill:#60C3B6;}
	.st32{fill:#FFFFFF;}
	.st33{fill:#626463;}
	.st34{fill:#62C4B5;}
	.st35{fill:none;}
	.st36{fill:#67B8CB;}
	.st37{fill:#CBBD7D;}
	.st38{fill:#CC2027;}
	.st39{fill:#CC3432;}
	.st40{fill:#9ED8D8;}
	.st41{fill:#357180;}
	.st42{fill:#367A82;}
	.st43{fill:#6CC077;}
	.st44{fill:#6FBD44;}
	.st45{fill:#D0B82B;}
	.st46{fill:#3CB881;}
	.st47{fill:#D7D7BF;}
	.st48{fill:#A07238;}
	.st49{fill:#A2D8D4;}
	.st50{fill:#DAC425;}
	.st51{fill:#DBF0F5;}
	.st52{fill:#DCDDD8;}
	.st53{fill:#0EA24A;}
	.st54{fill:#DDA027;}
	.st55{fill:#DFD48A;}
	.st56{fill:#42A392;}
]]>
</style>
<g>
	<g>
		<circle class="st3" cx="68.417" cy="68.416" r="63.333"/>
	</g>
	<g>
		<g>
			<path class="st41" d="M18.201,38.787v-5.014h-2.793c-1.008,1.539-1.957,3.119-2.83,4.748L18.201,38.787z"/>
		</g>
		<g>
			<polygon class="st41" points="49.891,37.664 49.891,33.773 26.399,33.773 26.399,38.779 			"/>
		</g>
		<g>
			<path class="st41" d="M94.673,33.773H67.195v3.07l21.291-1.01v3.145h2.736V127.5c1.871-0.723,3.697-1.529,5.478-2.418V35.799
				C96.7,34.684,95.793,33.773,94.673,33.773z"/>
		</g>
		<g>
			<polygon class="st21" points="22.208,38.979 26.399,38.779 26.399,33.773 18.201,33.773 18.201,38.787 			"/>
		</g>
		<g>
			<path class="st47" d="M91.223,127.5V38.979h-2.736v89.506C89.408,128.176,90.32,127.85,91.223,127.5z"/>
		</g>
		<g>
			<path class="st4" d="M18.201,38.979v-0.191l-5.623-0.266c-0.082,0.15-0.155,0.305-0.234,0.457H18.201z"/>
		</g>
		<g>
			<polygon class="st4" points="18.349,38.979 22.208,38.979 18.201,38.787 18.201,38.979 			"/>
		</g>
		<g>
			<path class="st4" d="M12.344,38.979c-1.864,3.543-3.403,7.279-4.576,11.18l7.063,0.225c1.192,0.039,2.161,1.076,2.161,2.318
				s-0.969,2.217-2.161,2.178l-8.222-0.262c-0.343,1.541-0.635,3.102-0.863,4.684l9.085,0.291c1.192,0.039,2.161,1.074,2.161,2.316
				s-0.969,2.219-2.161,2.18l-9.56-0.305c-0.107,1.469-0.178,2.949-0.183,4.445l9.742,0.313c1.192,0.037,2.161,1.074,2.161,2.316
				s-0.969,2.219-2.161,2.18L5.246,72.73c0.107,1.592,0.268,3.17,0.49,4.727l9.095,0.291c1.192,0.039,2.161,1.074,2.161,2.314
				c0,1.244-0.969,2.221-2.161,2.182L6.555,81.98c0.361,1.65,0.779,3.281,1.267,4.881l7.01,0.225
				c1.192,0.039,2.161,1.074,2.161,2.316c0,1.24-0.969,2.217-2.161,2.178l-5.425-0.174c0.633,1.625,1.321,3.223,2.082,4.777
				l3.343,0.107c1.192,0.039,2.161,1.078,2.161,2.316c0,1.242-0.969,2.217-2.161,2.178l-0.864-0.027
				c1.289,2.166,2.705,4.244,4.234,6.232V38.979H12.344z"/>
		</g>
		<g>
			<path class="st4" d="M18.349,38.979h-0.147v68.012c0.049,0.063,0.099,0.125,0.147,0.188V38.979z"/>
		</g>
		<g>
			<path class="st4" d="M18.349,107.178c1.111,1.434,2.276,2.822,3.505,4.154V41.238h0.354v-2.26h-3.859V107.178z"/>
		</g>
		<g>
			<polygon class="st4" points="49.891,38.979 49.891,37.664 26.399,38.779 26.399,38.979 			"/>
		</g>
		<g>
			<polygon class="st4" points="88.486,38.979 88.486,35.834 67.195,36.844 67.195,38.979 			"/>
		</g>
		<g>
			<polygon class="st4" points="26.399,38.979 26.399,38.779 22.208,38.979 26.248,38.979 			"/>
		</g>
		<g>
			<polygon class="st4" points="62.525,95.25 60.238,90.611 57.928,90.686 55.181,95.484 			"/>
		</g>
		<g>
			<polygon class="st4" points="49.961,104.602 66.868,104.063 64.706,99.676 52.561,100.063 			"/>
		</g>
		<g>
			<path class="st4" d="M67.195,49.193l13.924-0.445c1.193-0.039,2.16,0.936,2.16,2.18c0,1.242-0.967,2.277-2.16,2.318
				l-13.924,0.443v4.713l13.924-0.445c1.193-0.039,2.16,0.936,2.16,2.178s-0.967,2.279-2.16,2.318l-13.924,0.445v4.451l13.924-0.443
				c1.193-0.041,2.16,0.936,2.16,2.178s-0.967,2.277-2.16,2.316l-13.924,0.445v4.713l13.924-0.445
				c1.193-0.039,2.16,0.934,2.16,2.176s-0.967,2.281-2.16,2.32l-13.924,0.445v4.842l13.924-0.445c1.193-0.039,2.16,0.936,2.16,2.178
				c0,1.238-0.967,2.277-2.16,2.316l-13.924,0.443v4.713l13.924-0.445c1.193-0.039,2.16,0.938,2.16,2.178
				c0,1.242-0.967,2.277-2.16,2.316l-13.924,0.445v4.455l13.924-0.443c1.193-0.041,2.16,0.936,2.16,2.176s-0.967,2.279-2.16,2.318
				l-51.17,1.635c-1.192,0.039-2.158-0.938-2.158-2.18c0-1.24,0.966-2.277,2.158-2.314l19.941-0.639v-4.455l-19.941,0.637
				c-1.192,0.039-2.158-0.936-2.158-2.178c0-1.238,0.966-2.277,2.158-2.316l19.941-0.637v-4.713L29.949,91.58
				c-1.192,0.039-2.158-0.938-2.158-2.178c0-1.242,0.966-2.277,2.158-2.316l19.941-0.637v-4.842l-19.941,0.637
				c-1.192,0.039-2.158-0.938-2.158-2.182c0-1.24,0.966-2.275,2.158-2.314l19.941-0.637v-4.713l-19.941,0.639
				c-1.192,0.039-2.158-0.938-2.158-2.18s0.966-2.279,2.158-2.316l19.941-0.639v-4.451l-19.941,0.637
				c-1.192,0.039-2.158-0.938-2.158-2.18s0.966-2.277,2.158-2.316l19.941-0.637v-4.713l-19.941,0.637
				c-1.192,0.039-2.158-0.936-2.158-2.178s0.966-2.279,2.158-2.318l19.941-0.637V38.979H26.399v76.809
				c0.467,0.414,0.937,0.826,1.416,1.227c-0.009-0.084-0.024-0.164-0.024-0.25c0-1.238,0.966-2.277,2.158-2.316l51.17-1.635
				c1.193-0.039,2.16,0.938,2.16,2.176c0,1.244-0.967,2.279-2.16,2.318l-50.894,1.627c10.618,8.039,23.845,12.816,38.19,12.816
				c7.018,0,13.762-1.158,20.07-3.266V38.979H67.195V49.193z"/>
		</g>
		<g>
			<path class="st4" d="M26.248,115.656c0.05,0.045,0.102,0.086,0.151,0.131V38.979h-0.151V115.656z"/>
		</g>
		<g>
			<path class="st4" d="M22.742,41.238v71.025c1.127,1.174,2.293,2.309,3.506,3.393V38.979h-4.04v2.26H22.742z"/>
		</g>
		<g>
			<path class="st52" d="M22.208,41.238h-0.354v70.094c0.116,0.127,0.237,0.246,0.354,0.371V41.238z"/>
		</g>
		<g>
			<path class="st52" d="M22.742,112.264V41.238h-0.534v70.465C22.385,111.893,22.563,112.078,22.742,112.264z"/>
		</g>
		<g>
			<path class="st11" d="M16.992,52.701c0-1.242-0.969-2.279-2.161-2.318l-7.063-0.225c-0.439,1.463-0.823,2.951-1.158,4.459
				l8.222,0.262C16.023,54.918,16.992,53.943,16.992,52.701z"/>
		</g>
		<g>
			<path class="st11" d="M16.992,61.908c0-1.242-0.969-2.277-2.161-2.316l-9.085-0.291c-0.213,1.479-0.366,2.975-0.475,4.482
				l9.56,0.305C16.023,64.127,16.992,63.15,16.992,61.908z"/>
		</g>
		<g>
			<path class="st11" d="M16.992,70.857c0-1.242-0.969-2.279-2.161-2.316l-9.742-0.313c-0.001,0.064-0.005,0.125-0.005,0.188
				c0,1.453,0.066,2.887,0.162,4.314l9.585,0.307C16.023,73.076,16.992,72.1,16.992,70.857z"/>
		</g>
		<g>
			<path class="st11" d="M16.992,80.063c0-1.24-0.969-2.275-2.161-2.314l-9.095-0.291c0.219,1.527,0.494,3.033,0.818,4.523
				l8.276,0.264C16.023,82.283,16.992,81.307,16.992,80.063z"/>
		</g>
		<g>
			<path class="st11" d="M16.992,89.402c0-1.242-0.969-2.277-2.161-2.316l-7.01-0.225c0.469,1.543,1.003,3.055,1.585,4.545
				l5.425,0.174C16.023,91.619,16.992,90.643,16.992,89.402z"/>
		</g>
		<g>
			<path class="st11" d="M16.992,98.607c0-1.238-0.969-2.277-2.161-2.316l-3.343-0.107c0.764,1.564,1.593,3.088,2.479,4.574
				l0.864,0.027C16.023,100.824,16.992,99.85,16.992,98.607z"/>
		</g>
		<g>
			<path class="st11" d="M29.949,50.383c-1.192,0.039-2.158,1.076-2.158,2.318s0.966,2.217,2.158,2.178l19.941-0.637v-4.496
				L29.949,50.383z"/>
		</g>
		<g>
			<path class="st11" d="M81.119,53.246c1.193-0.041,2.16-1.076,2.16-2.318c0-1.244-0.967-2.219-2.16-2.18l-13.924,0.445v4.496
				L81.119,53.246z"/>
		</g>
		<g>
			<path class="st11" d="M81.119,62.453c1.193-0.039,2.16-1.076,2.16-2.318s-0.967-2.217-2.16-2.178l-13.924,0.445v4.496
				L81.119,62.453z"/>
		</g>
		<g>
			<path class="st11" d="M29.949,59.592c-1.192,0.039-2.158,1.074-2.158,2.316s0.966,2.219,2.158,2.18l19.941-0.637v-4.496
				L29.949,59.592z"/>
		</g>
		<g>
			<path class="st11" d="M29.949,68.541c-1.192,0.037-2.158,1.074-2.158,2.316s0.966,2.219,2.158,2.18l19.941-0.639v-4.496
				L29.949,68.541z"/>
		</g>
		<g>
			<path class="st11" d="M81.119,71.4c1.193-0.039,2.16-1.074,2.16-2.316s-0.967-2.219-2.16-2.178L67.195,67.35v4.496L81.119,71.4z"
				/>
		</g>
		<g>
			<path class="st11" d="M81.119,80.609c1.193-0.039,2.16-1.078,2.16-2.32s-0.967-2.215-2.16-2.176l-13.924,0.445v4.496
				L81.119,80.609z"/>
		</g>
		<g>
			<path class="st11" d="M29.949,77.748c-1.192,0.039-2.158,1.074-2.158,2.314c0,1.244,0.966,2.221,2.158,2.182l19.941-0.637v-4.496
				L29.949,77.748z"/>
		</g>
		<g>
			<path class="st11" d="M81.119,89.945c1.193-0.039,2.16-1.078,2.16-2.316c0-1.242-0.967-2.217-2.16-2.178l-13.924,0.445v4.492
				L81.119,89.945z"/>
		</g>
		<g>
			<path class="st11" d="M29.949,87.086c-1.192,0.039-2.158,1.074-2.158,2.316c0,1.24,0.966,2.217,2.158,2.178l19.941-0.639v-4.492
				L29.949,87.086z"/>
		</g>
		<g>
			<polygon class="st11" points="59.189,88.482 57.928,90.686 60.238,90.611 			"/>
		</g>
		<g>
			<path class="st11" d="M81.119,99.15c1.193-0.039,2.16-1.074,2.16-2.316c0-1.24-0.967-2.217-2.16-2.178l-13.924,0.445v4.494
				L81.119,99.15z"/>
		</g>
		<g>
			<path class="st11" d="M29.949,96.291c-1.192,0.039-2.158,1.078-2.158,2.316c0,1.242,0.966,2.217,2.158,2.178l19.941-0.637v-4.494
				L29.949,96.291z"/>
		</g>
		<g>
			<polygon class="st11" points="52.561,100.063 64.706,99.676 62.525,95.25 55.181,95.484 			"/>
		</g>
		<g>
			<path class="st11" d="M66.868,104.063l-16.907,0.539l-0.07,0.125v-0.123l-19.941,0.639c-1.192,0.037-2.158,1.074-2.158,2.314
				c0,1.242,0.966,2.219,2.158,2.18l51.17-1.635c1.193-0.039,2.16-1.078,2.16-2.318s-0.967-2.217-2.16-2.176l-13.924,0.443v0.676
				L66.868,104.063z"/>
		</g>
		<g>
			<path class="st11" d="M29.949,118.941l0.276-0.008c-0.819-0.621-1.622-1.262-2.41-1.92
				C27.937,118.133,28.84,118.979,29.949,118.941z"/>
		</g>
		<g>
			<path class="st11" d="M81.119,117.307c1.193-0.039,2.16-1.074,2.16-2.318c0-1.238-0.967-2.215-2.16-2.176l-51.17,1.635
				c-1.192,0.039-2.158,1.078-2.158,2.316c0,0.086,0.016,0.166,0.024,0.25c0.788,0.658,1.591,1.299,2.41,1.92L81.119,117.307z"/>
		</g>
		<g>
			<rect x="49.891" y="33.734" class="st14" width="17.305" height="0.039"/>
		</g>
		<g>
			<polygon class="st14" points="67.195,36.844 67.195,33.773 49.891,33.773 49.891,37.664 			"/>
		</g>
		<g>
			<polygon class="st14" points="49.891,38.979 67.195,38.979 67.195,36.844 49.891,37.664 			"/>
		</g>
		<g>
			<polygon class="st14" points="57.928,90.686 49.891,90.941 49.891,95.654 55.181,95.484 			"/>
		</g>
		<g>
			<polygon class="st14" points="67.195,49.193 67.195,38.979 49.891,38.979 49.891,49.746 			"/>
		</g>
		<g>
			<polygon class="st14" points="49.891,67.902 67.195,67.35 67.195,62.898 49.891,63.451 			"/>
		</g>
		<g>
			<polygon class="st14" points="49.891,77.111 67.195,76.559 67.195,71.846 49.891,72.398 			"/>
		</g>
		<g>
			<polygon class="st14" points="49.891,58.955 67.195,58.402 67.195,53.689 49.891,54.242 			"/>
		</g>
		<g>
			<polygon class="st14" points="62.525,95.25 67.195,95.102 67.195,90.389 60.238,90.611 			"/>
		</g>
		<g>
			<polygon class="st14" points="52.561,100.063 49.891,100.148 49.891,104.604 49.961,104.602 			"/>
		</g>
		<g>
			<polygon class="st14" points="49.891,86.449 67.195,85.896 67.195,81.055 49.891,81.607 			"/>
		</g>
		<g>
			<polygon class="st14" points="66.868,104.063 67.195,104.051 67.195,99.596 64.706,99.676 			"/>
		</g>
		<g>
			<polygon class="st14" points="49.891,54.242 67.195,53.689 67.195,49.193 49.891,49.746 			"/>
		</g>
		<g>
			<polygon class="st14" points="49.891,63.451 67.195,62.898 67.195,58.402 49.891,58.955 			"/>
		</g>
		<g>
			<polygon class="st14" points="49.891,72.398 67.195,71.846 67.195,67.35 49.891,67.902 			"/>
		</g>
		<g>
			<polygon class="st14" points="49.891,81.607 67.195,81.055 67.195,76.559 49.891,77.111 			"/>
		</g>
		<g>
			<polygon class="st14" points="49.891,90.941 57.928,90.686 59.189,88.482 60.238,90.611 67.195,90.389 67.195,85.896 
				49.891,86.449 			"/>
		</g>
		<g>
			<polygon class="st14" points="64.706,99.676 67.195,99.596 67.195,95.102 62.525,95.25 			"/>
		</g>
		<g>
			<polygon class="st14" points="55.181,95.484 49.891,95.654 49.891,100.148 52.561,100.063 			"/>
		</g>
		<g>
			<polygon class="st14" points="49.961,104.602 49.891,104.604 49.891,104.727 			"/>
		</g>
		<g>
			<polygon class="st14" points="67.195,104.727 67.195,104.051 66.868,104.063 			"/>
		</g>
	</g>
</g>
</svg>
