<?xml version="1.0" encoding="utf-8"?>
<!-- Generator: Adobe Illustrator 16.0.0, SVG Export Plug-In . SVG Version: 6.00 Build 0)  -->
<!DOCTYPE svg PUBLIC "-//W3C//DTD SVG 1.1//EN" "http://www.w3.org/Graphics/SVG/1.1/DTD/svg11.dtd">
<svg version="1.1" id="Layer_1" xmlns="http://www.w3.org/2000/svg" xmlns:xlink="http://www.w3.org/1999/xlink" x="0px" y="0px"
	 width="136.834px" height="136.833px" viewBox="0 0 136.834 136.833" style="enable-background:new 0 0 136.834 136.833;"
	 xml:space="preserve">
<style type="text/css">
<![CDATA[
	.st0{fill:#49A0AE;}
	.st1{fill:#E1E1E1;}
	.st2{fill:#E2DDD0;}
	.st3{fill:#4ABC96;}
	.st4{fill:#E7E7D6;}
	.st5{fill:#E7E7E7;}
	.st6{fill:#E84849;}
	.st7{fill:#E8E8E8;}
	.st8{fill:#B42928;}
	.st9{fill:#EAE8E4;}
	.st10{fill:#EBEDEF;}
	.st11{fill:#B9B9BA;}
	.st12{fill:#1FA85B;}
	.st13{fill:#EFC849;}
	.st14{fill:#BB5538;}
	.st15{fill:#BC2C2A;}
	.st16{fill:#F06668;}
	.st17{fill:#F3F0ED;}
	.st18{fill:#F3F4F5;}
	.st19{fill:#F4E028;}
	.st20{fill:#F4F5F5;}
	.st21{fill:#27636D;}
	.st22{fill:#F5F5F5;}
	.st23{fill:#5C9942;}
	.st24{fill:#F7D98B;}
	.st25{fill:#F8E349;}
	.st26{fill:#90C7CF;}
	.st27{fill:#C0B8AA;}
	.st28{fill:#C6C5C5;}
	.st29{fill:#C9C9C8;}
	.st30{opacity:0.7;}
	.st31{fill:#60C3B6;}
	.st32{fill:#FFFFFF;}
	.st33{fill:#626463;}
	.st34{fill:#62C4B5;}
	.st35{fill:none;}
	.st36{fill:#67B8CB;}
	.st37{fill:#CBBD7D;}
	.st38{fill:#CC2027;}
	.st39{fill:#CC3432;}
	.st40{fill:#9ED8D8;}
	.st41{fill:#357180;}
	.st42{fill:#367A82;}
	.st43{fill:#6CC077;}
	.st44{fill:#6FBD44;}
	.st45{fill:#D0B82B;}
	.st46{fill:#3CB881;}
	.st47{fill:#D7D7BF;}
	.st48{fill:#A07238;}
	.st49{fill:#A2D8D4;}
	.st50{fill:#DAC425;}
	.st51{fill:#DBF0F5;}
	.st52{fill:#DCDDD8;}
	.st53{fill:#0EA24A;}
	.st54{fill:#DDA027;}
	.st55{fill:#DFD48A;}
	.st56{fill:#42A392;}
]]>
</style>
<g>
	<g>
		<g>
			<circle class="st46" cx="68.417" cy="68.418" r="63.333"/>
		</g>
	</g>
	<g>
		<g>
			<path class="st39" d="M77.613,108.934l-8.974-6.379l20.484,14.561c0.189,0.137,0.417,0.207,0.645,0.207
				c0.174,0,0.351-0.041,0.512-0.125c0.369-0.189,0.603-0.572,0.604-0.99L90.882,9.197c-4.227-1.604-8.666-2.771-13.269-3.441
				V108.934z"/>
		</g>
		<g>
			<path class="st39" d="M47.001,117.197c0.37,0.191,0.816,0.16,1.157-0.082l11.124-7.908V5.748
				c-4.462,0.645-8.774,1.75-12.885,3.273v107.186C46.397,116.625,46.632,117.006,47.001,117.197z"/>
		</g>
		<g>
			<polygon class="st8" points="59.282,109.207 68.64,102.555 59.282,109.207 			"/>
		</g>
		<g>
			<path class="st8" d="M77.613,5.756c-3.003-0.438-6.072-0.672-9.197-0.672c-3.103,0-6.15,0.232-9.134,0.664v103.459l9.357-6.652
				l8.974,6.379V5.756z"/>
		</g>
	</g>
	<g>
		<path class="st54" d="M84.933,59.893c-0.09-0.279-0.328-0.482-0.619-0.525l-10.352-1.504l-4.633-9.383
			c-0.256-0.523-1.119-0.523-1.379,0.002l-4.631,9.381l-10.352,1.504c-0.289,0.043-0.529,0.246-0.619,0.523
			c-0.092,0.279-0.018,0.584,0.192,0.789l7.493,7.301l-1.77,10.313c-0.049,0.287,0.068,0.58,0.307,0.754
			c0.236,0.17,0.551,0.193,0.811,0.057l9.259-4.869l9.261,4.869c0.113,0.059,0.234,0.088,0.357,0.088
			c0.157,0,0.316-0.049,0.451-0.146c0.238-0.172,0.355-0.463,0.306-0.752l-1.769-10.311l7.492-7.303
			C84.949,60.477,85.022,60.172,84.933,59.893z"/>
	</g>
</g>
</svg>
