<?xml version="1.0" encoding="utf-8"?>
<!-- Generator: Adobe Illustrator 16.0.0, SVG Export Plug-In . SVG Version: 6.00 Build 0)  -->
<!DOCTYPE svg PUBLIC "-//W3C//DTD SVG 1.1//EN" "http://www.w3.org/Graphics/SVG/1.1/DTD/svg11.dtd">
<svg version="1.1" id="Layer_1" xmlns="http://www.w3.org/2000/svg" xmlns:xlink="http://www.w3.org/1999/xlink" x="0px" y="0px"
	 width="136.833px" height="136.833px" viewBox="0 0 136.833 136.833" style="enable-background:new 0 0 136.833 136.833;"
	 xml:space="preserve">
<style type="text/css">
<![CDATA[
	.st0{fill:#49A0AE;}
	.st1{fill:#E1E1E1;}
	.st2{fill:#E2DDD0;}
	.st3{fill:#4ABC96;}
	.st4{fill:#E7E7D6;}
	.st5{fill:#E7E7E7;}
	.st6{fill:#E84849;}
	.st7{fill:#E8E8E8;}
	.st8{fill:#B42928;}
	.st9{fill:#EAE8E4;}
	.st10{fill:#EBEDEF;}
	.st11{fill:#B9B9BA;}
	.st12{fill:#1FA85B;}
	.st13{fill:#EFC849;}
	.st14{fill:#BB5538;}
	.st15{fill:#BC2C2A;}
	.st16{fill:#F06668;}
	.st17{fill:#F3F0ED;}
	.st18{fill:#F3F4F5;}
	.st19{fill:#F4E028;}
	.st20{fill:#F4F5F5;}
	.st21{fill:#27636D;}
	.st22{fill:#F5F5F5;}
	.st23{fill:#5C9942;}
	.st24{fill:#F7D98B;}
	.st25{fill:#F8E349;}
	.st26{fill:#90C7CF;}
	.st27{fill:#C0B8AA;}
	.st28{fill:#C6C5C5;}
	.st29{fill:#C9C9C8;}
	.st30{opacity:0.7;}
	.st31{fill:#60C3B6;}
	.st32{fill:#FFFFFF;}
	.st33{fill:#626463;}
	.st34{fill:#62C4B5;}
	.st35{fill:none;}
	.st36{fill:#67B8CB;}
	.st37{fill:#CBBD7D;}
	.st38{fill:#CC2027;}
	.st39{fill:#CC3432;}
	.st40{fill:#9ED8D8;}
	.st41{fill:#357180;}
	.st42{fill:#367A82;}
	.st43{fill:#6CC077;}
	.st44{fill:#6FBD44;}
	.st45{fill:#D0B82B;}
	.st46{fill:#3CB881;}
	.st47{fill:#D7D7BF;}
	.st48{fill:#A07238;}
	.st49{fill:#A2D8D4;}
	.st50{fill:#DAC425;}
	.st51{fill:#DBF0F5;}
	.st52{fill:#DCDDD8;}
	.st53{fill:#0EA24A;}
	.st54{fill:#DDA027;}
	.st55{fill:#DFD48A;}
	.st56{fill:#42A392;}
]]>
</style>
<g>
	<g>
		<g>
			<g>
				<g>
					<circle class="st13" cx="68.417" cy="68.417" r="63.333"/>
				</g>
			</g>
		</g>
		<g>
			<g>
				<g>
					<g>
						<g>
							<path class="st22" d="M43.681,30.155c-2.358,0-4.271,1.913-4.271,4.272v68.351c0,2.359,1.913,4.271,4.271,4.271h49.128
								c2.359,0,4.271-1.912,4.271-4.271v-52.84L76.488,30.155H43.681z"/>
						</g>
					</g>
				</g>
				<g>
					<g>
						<path class="st1" d="M97.08,49.938H80.76c-2.359,0-4.271-1.912-4.271-4.271V30.155L97.08,49.938z"/>
					</g>
				</g>
			</g>
		</g>
	</g>
	<g>
		<path class="st34" d="M88.013,61.105c-3.046,3.235-6.837,7.264-14.16,7.932c-2.372,0.217-7.008,1.417-9.776,2.136
			c-0.402,0.105-0.763,0.199-1.069,0.275c-6.701,1.711-9.843,3.148-13.992,10.615c-1.356,2.445-2.805,3.68-4.31,3.68
			c-0.031,0-0.061,0-0.091-0.002c-0.722-0.023-1.356-0.336-1.898-0.754v15.004c0,2.09,1.694,3.783,3.781,3.783h43.492
			c2.088,0,3.781-1.693,3.781-3.783V57.387C91.72,57.197,90.134,58.854,88.013,61.105z"/>
	</g>
	<g>
		<path class="st56" d="M88.064,59.89c-0.545-0.459-1.239-0.746-2.008-0.746c-1.73,0-3.131,1.402-3.131,3.131
			c0,0.744,0.269,1.418,0.701,1.955c-2.409,1.953-5.48,3.614-9.845,4.013c-0.115,0.011-0.257,0.033-0.381,0.048
			c-0.434-1.21-1.579-2.081-2.939-2.081c-1.729,0-3.132,1.402-3.132,3.132c0,0.061,0.014,0.117,0.018,0.176
			c-1.268,0.311-2.487,0.627-3.469,0.881c-0.401,0.105-0.761,0.199-1.066,0.277c-2.264,0.578-4.149,1.141-5.821,1.916
			c-0.574-0.641-1.398-1.051-2.325-1.051c-1.73,0-3.132,1.404-3.132,3.133c0,0.598,0.176,1.15,0.467,1.625
			c-1.225,1.369-2.417,3.1-3.683,5.379c-1.226,2.205-2.46,3.314-3.674,3.268c-0.745-0.025-1.402-0.479-1.927-1.016v0.551v0.508
			c0.542,0.418,1.177,0.73,1.898,0.754c0.03,0.002,0.06,0.002,0.091,0.002c1.505,0,2.954-1.234,4.31-3.68
			c1.209-2.176,2.333-3.828,3.483-5.135c0.563,0.539,1.324,0.875,2.166,0.875c1.73,0,3.133-1.4,3.133-3.131
			c0-0.514-0.136-0.992-0.355-1.42c1.584-0.717,3.384-1.248,5.565-1.805c0.306-0.076,0.667-0.17,1.069-0.275
			c0.968-0.252,2.169-0.563,3.417-0.869c0.409,1.256,1.575,2.17,2.966,2.17c1.731,0,3.133-1.402,3.133-3.133
			c0-0.091-0.02-0.178-0.027-0.268c0.092-0.011,0.201-0.028,0.287-0.036c4.627-0.422,7.843-2.187,10.353-4.245
			c0.52,0.384,1.155,0.617,1.851,0.617c1.73,0,3.133-1.401,3.133-3.135c0-0.672-0.216-1.291-0.577-1.801
			c1.83-1.918,3.307-3.258,5.159-3.087V56.97v-0.405C91.615,56.394,89.965,57.897,88.064,59.89z"/>
	</g>
	<g>
		<path class="st49" d="M48.842,94.306V50.87h-1.534v4.901h-2.032v1.616h2.032v3.214h-2.032v1.611h2.032v3.212h-2.032v1.615h2.032
			v3.213h-2.032v1.615h2.032v3.211h-2.032v1.615h2.032v3.213h-2.032v1.611h2.032v3.213h-2.032v1.615h2.032v3.213h-2.032v1.613h2.032
			v3.133h-3.613v1.533h3.613v3.713h1.534v-3.713h3.233v2.031h1.614v-2.031h3.212v2.031h1.614v-2.031h3.21v2.031h1.617v-2.031h3.21
			v2.031h1.614v-2.031h3.213v2.031h1.614v-2.031h3.213v2.031h1.611v-2.031h3.217v2.031h1.613v-2.031h3.211v2.031h1.616v-2.031h4.903
			v-1.533H48.842z"/>
	</g>
</g>
</svg>
