<?xml version="1.0" encoding="utf-8"?>
<!-- Generator: Adobe Illustrator 16.0.0, SVG Export Plug-In . SVG Version: 6.00 Build 0)  -->
<!DOCTYPE svg PUBLIC "-//W3C//DTD SVG 1.1//EN" "http://www.w3.org/Graphics/SVG/1.1/DTD/svg11.dtd">
<svg version="1.1" id="Layer_1" xmlns="http://www.w3.org/2000/svg" xmlns:xlink="http://www.w3.org/1999/xlink" x="0px" y="0px"
	 width="136.834px" height="136.833px" viewBox="0 0 136.834 136.833" style="enable-background:new 0 0 136.834 136.833;"
	 xml:space="preserve">
<style type="text/css">
<![CDATA[
	.st0{fill:#49A0AE;}
	.st1{fill:#E1E1E1;}
	.st2{fill:#E2DDD0;}
	.st3{fill:#4ABC96;}
	.st4{fill:#E7E7D6;}
	.st5{fill:#E7E7E7;}
	.st6{fill:#E84849;}
	.st7{fill:#E8E8E8;}
	.st8{fill:#B42928;}
	.st9{fill:#EAE8E4;}
	.st10{fill:#EBEDEF;}
	.st11{fill:#B9B9BA;}
	.st12{fill:#1FA85B;}
	.st13{fill:#EFC849;}
	.st14{fill:#BB5538;}
	.st15{fill:#BC2C2A;}
	.st16{fill:#F06668;}
	.st17{fill:#F3F0ED;}
	.st18{fill:#F3F4F5;}
	.st19{fill:#F4E028;}
	.st20{fill:#F4F5F5;}
	.st21{fill:#27636D;}
	.st22{fill:#F5F5F5;}
	.st23{fill:#5C9942;}
	.st24{fill:#F7D98B;}
	.st25{fill:#F8E349;}
	.st26{fill:#90C7CF;}
	.st27{fill:#C0B8AA;}
	.st28{fill:#C6C5C5;}
	.st29{fill:#C9C9C8;}
	.st30{opacity:0.7;}
	.st31{fill:#60C3B6;}
	.st32{fill:#FFFFFF;}
	.st33{fill:#626463;}
	.st34{fill:#62C4B5;}
	.st35{fill:none;}
	.st36{fill:#67B8CB;}
	.st37{fill:#CBBD7D;}
	.st38{fill:#CC2027;}
	.st39{fill:#CC3432;}
	.st40{fill:#9ED8D8;}
	.st41{fill:#357180;}
	.st42{fill:#367A82;}
	.st43{fill:#6CC077;}
	.st44{fill:#6FBD44;}
	.st45{fill:#D0B82B;}
	.st46{fill:#3CB881;}
	.st47{fill:#D7D7BF;}
	.st48{fill:#A07238;}
	.st49{fill:#A2D8D4;}
	.st50{fill:#DAC425;}
	.st51{fill:#DBF0F5;}
	.st52{fill:#DCDDD8;}
	.st53{fill:#0EA24A;}
	.st54{fill:#DDA027;}
	.st55{fill:#DFD48A;}
	.st56{fill:#42A392;}
]]>
</style>
<g>
	<g>
		<g>
			<g>
				<g>
					<circle class="st13" cx="68.417" cy="68.417" r="63.333"/>
				</g>
			</g>
		</g>
	</g>
	<g>
		<g>
			<g>
				<g>
					<g>
						<path class="st22" d="M43.681,30.155c-2.358,0-4.271,1.913-4.271,4.272v68.351c0,2.359,1.913,4.271,4.271,4.271h49.128
							c2.359,0,4.271-1.912,4.271-4.271v-52.84L76.488,30.155H43.681z"/>
					</g>
				</g>
				<g>
					<path class="st1" d="M97.08,49.938H80.76c-2.359,0-4.271-1.912-4.271-4.271V30.155L97.08,49.938z"/>
				</g>
			</g>
		</g>
		<g>
			<g>
				<path class="st23" d="M54.574,61.351c0,0.805-0.652,1.458-1.458,1.458h-7.085c-0.806,0-1.458-0.653-1.458-1.458v-7.652
					c0-0.806,0.652-1.458,1.458-1.458h7.085c0.806,0,1.458,0.652,1.458,1.458V61.351z"/>
			</g>
			<g>
				<path class="st23" d="M66.824,61.351c0,0.805-0.652,1.458-1.458,1.458h-7.085c-0.806,0-1.458-0.653-1.458-1.458v-7.652
					c0-0.806,0.652-1.458,1.458-1.458h7.085c0.806,0,1.458,0.652,1.458,1.458V61.351z"/>
			</g>
			<g>
				<path class="st23" d="M79.324,61.351c0,0.805-0.652,1.458-1.458,1.458h-7.085c-0.806,0-1.458-0.653-1.458-1.458v-7.652
					c0-0.806,0.652-1.458,1.458-1.458h7.085c0.806,0,1.458,0.652,1.458,1.458V61.351z"/>
			</g>
			<g>
				<path class="st23" d="M91.699,61.351c0,0.805-0.652,1.458-1.458,1.458h-7.085c-0.806,0-1.458-0.653-1.458-1.458v-7.652
					c0-0.806,0.652-1.458,1.458-1.458h7.085c0.806,0,1.458,0.652,1.458,1.458V61.351z"/>
			</g>
		</g>
		<g>
			<g>
				<path class="st44" d="M54.574,74.351c0,0.805-0.652,1.457-1.458,1.457h-7.085c-0.806,0-1.458-0.652-1.458-1.457v-7.653
					c0-0.806,0.652-1.458,1.458-1.458h7.085c0.806,0,1.458,0.652,1.458,1.458V74.351z"/>
			</g>
			<g>
				<path class="st44" d="M66.824,74.351c0,0.805-0.652,1.457-1.458,1.457h-7.085c-0.806,0-1.458-0.652-1.458-1.457v-7.653
					c0-0.806,0.652-1.458,1.458-1.458h7.085c0.806,0,1.458,0.652,1.458,1.458V74.351z"/>
			</g>
			<g>
				<path class="st44" d="M79.324,74.351c0,0.805-0.652,1.457-1.458,1.457h-7.085c-0.806,0-1.458-0.652-1.458-1.457v-7.653
					c0-0.806,0.652-1.458,1.458-1.458h7.085c0.806,0,1.458,0.652,1.458,1.458V74.351z"/>
			</g>
			<g>
				<path class="st44" d="M91.699,74.351c0,0.805-0.652,1.457-1.458,1.457h-7.085c-0.806,0-1.458-0.652-1.458-1.457v-7.653
					c0-0.806,0.652-1.458,1.458-1.458h7.085c0.806,0,1.458,0.652,1.458,1.458V74.351z"/>
			</g>
		</g>
		<g>
			<g>
				<path class="st44" d="M54.574,87.601c0,0.805-0.652,1.457-1.458,1.457h-7.085c-0.806,0-1.458-0.652-1.458-1.457v-7.652
					c0-0.807,0.652-1.459,1.458-1.459h7.085c0.806,0,1.458,0.652,1.458,1.459V87.601z"/>
			</g>
			<g>
				<path class="st44" d="M66.824,87.601c0,0.805-0.652,1.457-1.458,1.457h-7.085c-0.806,0-1.458-0.652-1.458-1.457v-7.652
					c0-0.807,0.652-1.459,1.458-1.459h7.085c0.806,0,1.458,0.652,1.458,1.459V87.601z"/>
			</g>
		</g>
		<g>
			<g>
				<path class="st44" d="M54.574,100.601c0,0.805-0.652,1.457-1.458,1.457h-7.085c-0.806,0-1.458-0.652-1.458-1.457v-7.652
					c0-0.807,0.652-1.459,1.458-1.459h7.085c0.806,0,1.458,0.652,1.458,1.459V100.601z"/>
			</g>
			<g>
				<path class="st44" d="M66.824,100.601c0,0.805-0.652,1.457-1.458,1.457h-7.085c-0.806,0-1.458-0.652-1.458-1.457v-7.652
					c0-0.807,0.652-1.459,1.458-1.459h7.085c0.806,0,1.458,0.652,1.458,1.459V100.601z"/>
			</g>
		</g>
		<g>
			<path class="st41" d="M73.645,89.142h-2.182c-1.087,0-1.963,0.873-1.974,1.955h-0.002v0.016c0,0.002-0.001,0.002-0.001,0.008
				c0,0.002,0.001,0.004,0.001,0.008v10.861h6.134V91.097H75.62C75.607,90.015,74.729,89.142,73.645,89.142z"/>
		</g>
		<g>
			<path class="st41" d="M83.623,86.337v-0.023h-0.002c-0.029-1.064-0.898-1.92-1.971-1.92h-2.183c-1.074,0-1.941,0.855-1.97,1.92
				h-0.01v15.676h6.135V86.402c0-0.01,0.002-0.02,0.002-0.035C83.625,86.359,83.623,86.347,83.623,86.337z"/>
		</g>
		<g>
			<path class="st41" d="M91.625,81.123c0-0.004-0.001-0.01-0.001-0.014v-0.055h-0.007c-0.036-1.059-0.9-1.908-1.969-1.908h-2.185
				c-1.068,0-1.933,0.85-1.969,1.908h-0.007v20.936h6.136V81.134C91.624,81.13,91.625,81.126,91.625,81.123z"/>
		</g>
		<g>
			<rect x="69.489" y="100.824" class="st41" width="22.128" height="1.248"/>
		</g>
	</g>
</g>
</svg>
