<?xml version="1.0" encoding="utf-8"?>
<!-- Generator: Adobe Illustrator 16.0.0, SVG Export Plug-In . SVG Version: 6.00 Build 0)  -->
<!DOCTYPE svg PUBLIC "-//W3C//DTD SVG 1.1//EN" "http://www.w3.org/Graphics/SVG/1.1/DTD/svg11.dtd">
<svg version="1.1" id="Layer_1" xmlns="http://www.w3.org/2000/svg" xmlns:xlink="http://www.w3.org/1999/xlink" x="0px" y="0px"
	 width="136.834px" height="136.833px" viewBox="0 0 136.834 136.833" style="enable-background:new 0 0 136.834 136.833;"
	 xml:space="preserve">
<style type="text/css">
<![CDATA[
	.st0{fill:#49A0AE;}
	.st1{fill:#E1E1E1;}
	.st2{fill:#E2DDD0;}
	.st3{fill:#4ABC96;}
	.st4{fill:#E7E7D6;}
	.st5{fill:#E7E7E7;}
	.st6{fill:#E84849;}
	.st7{fill:#E8E8E8;}
	.st8{fill:#B42928;}
	.st9{fill:#EAE8E4;}
	.st10{fill:#EBEDEF;}
	.st11{fill:#B9B9BA;}
	.st12{fill:#1FA85B;}
	.st13{fill:#EFC849;}
	.st14{fill:#BB5538;}
	.st15{fill:#BC2C2A;}
	.st16{fill:#F06668;}
	.st17{fill:#F3F0ED;}
	.st18{fill:#F3F4F5;}
	.st19{fill:#F4E028;}
	.st20{fill:#F4F5F5;}
	.st21{fill:#27636D;}
	.st22{fill:#F5F5F5;}
	.st23{fill:#5C9942;}
	.st24{fill:#F7D98B;}
	.st25{fill:#F8E349;}
	.st26{fill:#90C7CF;}
	.st27{fill:#C0B8AA;}
	.st28{fill:#C6C5C5;}
	.st29{fill:#C9C9C8;}
	.st30{opacity:0.7;}
	.st31{fill:#60C3B6;}
	.st32{fill:#FFFFFF;}
	.st33{fill:#626463;}
	.st34{fill:#62C4B5;}
	.st35{fill:none;}
	.st36{fill:#67B8CB;}
	.st37{fill:#CBBD7D;}
	.st38{fill:#CC2027;}
	.st39{fill:#CC3432;}
	.st40{fill:#9ED8D8;}
	.st41{fill:#357180;}
	.st42{fill:#367A82;}
	.st43{fill:#6CC077;}
	.st44{fill:#6FBD44;}
	.st45{fill:#D0B82B;}
	.st46{fill:#3CB881;}
	.st47{fill:#D7D7BF;}
	.st48{fill:#A07238;}
	.st49{fill:#A2D8D4;}
	.st50{fill:#DAC425;}
	.st51{fill:#DBF0F5;}
	.st52{fill:#DCDDD8;}
	.st53{fill:#0EA24A;}
	.st54{fill:#DDA027;}
	.st55{fill:#DFD48A;}
	.st56{fill:#42A392;}
]]>
</style>
<g>
	<g>
		<g>
			<g>
				<circle class="st0" cx="68.417" cy="68.417" r="63.333"/>
			</g>
			<g>
				<g>
					<path class="st0" d="M31.305,39.08h73.748c5.961,0,10.792,4.832,10.792,10.793v60.496
						c9.891-11.174,15.905-25.857,15.905-41.951c0-34.98-28.355-63.334-63.334-63.334c-34.977,0-63.332,28.354-63.332,63.334
						c0,15.832,5.824,30.297,15.429,41.4V49.873C20.513,43.912,25.344,39.08,31.305,39.08z"/>
				</g>
				<g>
					<path class="st7" d="M68.416,131.75c18.883,0,35.825-8.273,47.429-21.381V49.873c0-5.961-4.831-10.793-10.792-10.793H31.305
						c-5.961,0-10.792,4.832-10.792,10.793v59.945C32.126,123.244,49.272,131.75,68.416,131.75z"/>
				</g>
			</g>
		</g>
	</g>
	<g>
		<path class="st28" d="M105.238,85.742c-0.004,1.121-0.914,2.031-2.034,2.031H32.573c-1.122,0-2.03-0.91-2.028-2.033l0,0
			c0-1.119,0.906-2.025,2.026-2.025l70.635-0.004C104.326,83.712,105.234,84.621,105.238,85.742L105.238,85.742z"/>
	</g>
	<g>
		<path class="st28" d="M68.514,74.21l-35.942,0.004c-1.12,0-2.026,0.906-2.026,2.025c-0.002,1.123,0.906,2.033,2.028,2.033h35.938
			c1.12,0,2.03-0.91,2.034-2.031C70.542,75.121,69.634,74.212,68.514,74.21z"/>
	</g>
	<g>
		<g>
			<g>
				<polygon class="st15" points="118.43,93.218 61.712,36.414 61.663,36.44 56.887,39.052 62.47,39.052 115.682,92.355 
					115.682,97.935 				"/>
			</g>
		</g>
		<g>
			<g>
				<polygon class="st39" points="91.223,36.414 61.712,36.414 118.43,93.218 118.43,63.708 				"/>
			</g>
		</g>
	</g>
	<g>
		<path class="st54" d="M103.308,60.322l-2.824-3.783l1.516-4.472c0.064-0.188,0.017-0.396-0.124-0.536
			c-0.14-0.14-0.347-0.188-0.534-0.124l-4.473,1.517L93.086,50.1c-0.158-0.118-0.37-0.136-0.548-0.047
			c-0.176,0.091-0.287,0.272-0.282,0.47l0.06,4.721l-3.854,2.726c-0.162,0.115-0.245,0.311-0.214,0.506
			c0.03,0.196,0.17,0.356,0.357,0.416l4.511,1.401l1.401,4.509c0.058,0.189,0.219,0.329,0.414,0.359
			c0.027,0.005,0.056,0.007,0.082,0.007c0.167,0,0.326-0.082,0.424-0.221l2.727-3.854l4.721,0.06
			c0.188-0.016,0.381-0.106,0.47-0.283C103.444,60.693,103.426,60.48,103.308,60.322z"/>
	</g>
</g>
</svg>
