<?xml version="1.0" encoding="utf-8"?>
<!-- Generator: Adobe Illustrator 16.0.0, SVG Export Plug-In . SVG Version: 6.00 Build 0)  -->
<!DOCTYPE svg PUBLIC "-//W3C//DTD SVG 1.1//EN" "http://www.w3.org/Graphics/SVG/1.1/DTD/svg11.dtd">
<svg version="1.1" id="Layer_1" xmlns="http://www.w3.org/2000/svg" xmlns:xlink="http://www.w3.org/1999/xlink" x="0px" y="0px"
	 width="136.833px" height="136.833px" viewBox="0 0 136.833 136.833" style="enable-background:new 0 0 136.833 136.833;"
	 xml:space="preserve">
<style type="text/css">
<![CDATA[
	.st0{fill:#49A0AE;}
	.st1{fill:#E1E1E1;}
	.st2{fill:#E2DDD0;}
	.st3{fill:#4ABC96;}
	.st4{fill:#E7E7D6;}
	.st5{fill:#E7E7E7;}
	.st6{fill:#E84849;}
	.st7{fill:#E8E8E8;}
	.st8{fill:#B42928;}
	.st9{fill:#EAE8E4;}
	.st10{fill:#EBEDEF;}
	.st11{fill:#B9B9BA;}
	.st12{fill:#1FA85B;}
	.st13{fill:#EFC849;}
	.st14{fill:#BB5538;}
	.st15{fill:#BC2C2A;}
	.st16{fill:#F06668;}
	.st17{fill:#F3F0ED;}
	.st18{fill:#F3F4F5;}
	.st19{fill:#F4E028;}
	.st20{fill:#F4F5F5;}
	.st21{fill:#27636D;}
	.st22{fill:#F5F5F5;}
	.st23{fill:#5C9942;}
	.st24{fill:#F7D98B;}
	.st25{fill:#F8E349;}
	.st26{fill:#90C7CF;}
	.st27{fill:#C0B8AA;}
	.st28{fill:#C6C5C5;}
	.st29{fill:#C9C9C8;}
	.st30{opacity:0.7;}
	.st31{fill:#60C3B6;}
	.st32{fill:#FFFFFF;}
	.st33{fill:#626463;}
	.st34{fill:#62C4B5;}
	.st35{fill:none;}
	.st36{fill:#67B8CB;}
	.st37{fill:#CBBD7D;}
	.st38{fill:#CC2027;}
	.st39{fill:#CC3432;}
	.st40{fill:#9ED8D8;}
	.st41{fill:#357180;}
	.st42{fill:#367A82;}
	.st43{fill:#6CC077;}
	.st44{fill:#6FBD44;}
	.st45{fill:#D0B82B;}
	.st46{fill:#3CB881;}
	.st47{fill:#D7D7BF;}
	.st48{fill:#A07238;}
	.st49{fill:#A2D8D4;}
	.st50{fill:#DAC425;}
	.st51{fill:#DBF0F5;}
	.st52{fill:#DCDDD8;}
	.st53{fill:#0EA24A;}
	.st54{fill:#DDA027;}
	.st55{fill:#DFD48A;}
	.st56{fill:#42A392;}
]]>
</style>
<g>
	<g>
		<g>
			<g>
				<g>
					<circle class="st13" cx="68.417" cy="68.417" r="63.333"/>
				</g>
			</g>
		</g>
		<g>
			<g>
				<g>
					<g>
						<g>
							<path class="st22" d="M43.68,30.155c-2.358,0-4.271,1.913-4.271,4.272v68.351c0,2.359,1.913,4.271,4.271,4.271h49.128
								c2.359,0,4.271-1.912,4.271-4.271v-52.84L76.488,30.155H43.68z"/>
						</g>
					</g>
				</g>
				<g>
					<g>
						<path class="st1" d="M97.08,49.938h-16.32c-2.359,0-4.271-1.912-4.271-4.271V30.155L97.08,49.938z"/>
					</g>
				</g>
			</g>
		</g>
	</g>
	<g>
		<g>
			<path class="st51" d="M43.44,87.478l6.171-6.197c0,0,3.295-3.859,6.059-4.021c2.762-0.164,5.747,3.668,5.747,3.668l4.559,4.543
				l0.737-0.74c0,0,2.68-3.139,4.93-3.271c2.249-0.129,4.676,2.986,4.676,2.986l2.423,2.412c0.383-0.428,2.396-2.596,4.123-2.699
				c1.92-0.111,3.991,2.547,3.991,2.547l6.192,6.164V54.657L43.44,54.761V87.478z"/>
		</g>
		<g>
			<g>
				<path class="st43" d="M86.856,86.705c0,0-2.071-2.658-3.991-2.547c-1.727,0.104-3.74,2.271-4.123,2.699l-2.423-2.412
					c0,0-2.428-3.115-4.676-2.986c-2.25,0.133-4.93,3.271-4.93,3.271l-0.737,0.74l-4.559-4.543c0,0-2.985-3.832-5.747-3.668
					c-2.764,0.162-6.059,4.021-6.059,4.021l-6.171,6.197v11.896c0,0.24,0.027,0.473,0.07,0.699c0.037,0.191,0.097,0.371,0.163,0.551
					c0.291,0.801,0.846,1.465,1.565,1.895c0.551,0.33,1.188,0.531,1.876,0.531h42.26c0.595,0,1.149-0.156,1.646-0.406
					c0.861-0.436,1.52-1.193,1.827-2.121c0.06-0.18,0.11-0.363,0.141-0.555c0.031-0.193,0.06-0.391,0.06-0.594v-6.506L86.856,86.705
					z"/>
			</g>
		</g>
		<g>
			<g>
				<path class="st36" d="M71.268,72.896c0.007-0.059,0.047-0.111,0.045-0.174c-0.003-0.947-1.029-1.715-2.293-1.711
					c-0.166,0-0.313,0.047-0.47,0.07c-0.379-0.502-1.072-0.855-1.899-0.852c-1.072,0.002-1.921,0.584-2.121,1.346
					c-1.04,0.209-1.821,0.889-1.82,1.734c0.002,0.799,0.701,1.455,1.659,1.697c0.327,0.729,1.215,1.26,2.295,1.258
					c0.979,0,1.808-0.441,2.197-1.064c0.253,0.084,0.526,0.133,0.819,0.133c1.124-0.002,2.031-0.688,2.03-1.531
					C71.709,73.455,71.527,73.154,71.268,72.896z"/>
			</g>
			<g>
				<path class="st36" d="M81.974,75.029c-0.007-0.041-0.036-0.078-0.036-0.121c0-0.674,0.727-1.223,1.625-1.223
					c0.118-0.002,0.223,0.031,0.334,0.049c0.269-0.361,0.76-0.611,1.346-0.613c0.763-0.002,1.367,0.412,1.514,0.951
					c0.738,0.146,1.295,0.627,1.296,1.225c0.002,0.568-0.495,1.039-1.172,1.213c-0.228,0.518-0.861,0.9-1.628,0.902
					c-0.695,0.002-1.285-0.311-1.565-0.75c-0.179,0.059-0.375,0.096-0.582,0.096c-0.799,0.002-1.445-0.482-1.446-1.082
					C81.658,75.431,81.787,75.212,81.974,75.029z"/>
			</g>
		</g>
	</g>
</g>
</svg>
