<?xml version="1.0" encoding="utf-8"?>
<!-- Generator: Adobe Illustrator 16.0.0, SVG Export Plug-In . SVG Version: 6.00 Build 0)  -->
<!DOCTYPE svg PUBLIC "-//W3C//DTD SVG 1.1//EN" "http://www.w3.org/Graphics/SVG/1.1/DTD/svg11.dtd">
<svg version="1.1" id="Layer_1" xmlns="http://www.w3.org/2000/svg" xmlns:xlink="http://www.w3.org/1999/xlink" x="0px" y="0px"
	 width="136.834px" height="136.833px" viewBox="0 0 136.834 136.833" style="enable-background:new 0 0 136.834 136.833;"
	 xml:space="preserve">
<style type="text/css">
<![CDATA[
	.st0{fill:#49A0AE;}
	.st1{fill:#E1E1E1;}
	.st2{fill:#E2DDD0;}
	.st3{fill:#4ABC96;}
	.st4{fill:#E7E7D6;}
	.st5{fill:#E7E7E7;}
	.st6{fill:#E84849;}
	.st7{fill:#E8E8E8;}
	.st8{fill:#B42928;}
	.st9{fill:#EAE8E4;}
	.st10{fill:#EBEDEF;}
	.st11{fill:#B9B9BA;}
	.st12{fill:#1FA85B;}
	.st13{fill:#EFC849;}
	.st14{fill:#BB5538;}
	.st15{fill:#BC2C2A;}
	.st16{fill:#F06668;}
	.st17{fill:#F3F0ED;}
	.st18{fill:#F3F4F5;}
	.st19{fill:#F4E028;}
	.st20{fill:#F4F5F5;}
	.st21{fill:#27636D;}
	.st22{fill:#F5F5F5;}
	.st23{fill:#5C9942;}
	.st24{fill:#F7D98B;}
	.st25{fill:#F8E349;}
	.st26{fill:#90C7CF;}
	.st27{fill:#C0B8AA;}
	.st28{fill:#C6C5C5;}
	.st29{fill:#C9C9C8;}
	.st30{opacity:0.7;}
	.st31{fill:#60C3B6;}
	.st32{fill:#FFFFFF;}
	.st33{fill:#626463;}
	.st34{fill:#62C4B5;}
	.st35{fill:none;}
	.st36{fill:#67B8CB;}
	.st37{fill:#CBBD7D;}
	.st38{fill:#CC2027;}
	.st39{fill:#CC3432;}
	.st40{fill:#9ED8D8;}
	.st41{fill:#357180;}
	.st42{fill:#367A82;}
	.st43{fill:#6CC077;}
	.st44{fill:#6FBD44;}
	.st45{fill:#D0B82B;}
	.st46{fill:#3CB881;}
	.st47{fill:#D7D7BF;}
	.st48{fill:#A07238;}
	.st49{fill:#A2D8D4;}
	.st50{fill:#DAC425;}
	.st51{fill:#DBF0F5;}
	.st52{fill:#DCDDD8;}
	.st53{fill:#0EA24A;}
	.st54{fill:#DDA027;}
	.st55{fill:#DFD48A;}
	.st56{fill:#42A392;}
]]>
</style>
<g>
	<g>
		<g>
			<circle class="st12" cx="68.417" cy="68.417" r="63.333"/>
		</g>
	</g>
	<g>
		<g>
			<path class="st15" d="M68.641,87.328l33,23.459V17.164C91.98,11.199,80.604,7.75,68.416,7.75
				c-11.996,0-23.213,3.337-32.775,9.131v93.906L68.641,87.328z"/>
		</g>
	</g>
	<g>
		<g>
			<path class="st39" d="M68.641,84.66l33,23.461V14.498c-9.66-5.965-21.037-9.414-33.225-9.414
				c-11.996,0-23.213,3.336-32.775,9.131v93.906L68.641,84.66z"/>
		</g>
	</g>
	<g>
		<polygon class="st54" points="68.641,31.696 74.896,44.368 88.88,46.401 78.76,56.264 81.149,70.193 68.641,63.617 56.132,70.193 
			58.521,56.264 48.402,46.401 62.386,44.368 		"/>
		<path class="st54" d="M81.149,71.193c-0.159,0-0.319-0.038-0.466-0.115l-12.043-6.331l-12.043,6.331
			c-0.337,0.178-0.744,0.148-1.054-0.076c-0.308-0.224-0.462-0.603-0.397-0.978l2.301-13.411l-9.743-9.496
			c-0.272-0.266-0.37-0.663-0.253-1.025c0.118-0.362,0.431-0.626,0.808-0.681l13.463-1.958l6.022-12.2
			c0.336-0.683,1.457-0.683,1.793,0l6.023,12.201l13.463,1.958c0.377,0.055,0.689,0.319,0.808,0.681
			c0.117,0.362,0.02,0.76-0.253,1.025l-9.744,9.496l2.301,13.411c0.064,0.375-0.09,0.754-0.397,0.978
			C81.563,71.128,81.356,71.193,81.149,71.193z M68.641,62.617c0.16,0,0.319,0.038,0.466,0.115l10.715,5.633l-2.047-11.932
			c-0.056-0.324,0.052-0.655,0.287-0.885l8.669-8.449l-11.978-1.742c-0.326-0.047-0.607-0.252-0.753-0.547l-5.359-10.855
			L63.282,44.81c-0.146,0.295-0.427,0.5-0.753,0.547l-11.979,1.742l8.669,8.449c0.235,0.23,0.343,0.561,0.287,0.885L57.46,68.365
			l10.715-5.633C68.321,62.655,68.48,62.617,68.641,62.617z"/>
	</g>
</g>
</svg>
