<?xml version="1.0" encoding="utf-8"?>
<!-- Generator: Adobe Illustrator 16.0.0, SVG Export Plug-In . SVG Version: 6.00 Build 0)  -->
<!DOCTYPE svg PUBLIC "-//W3C//DTD SVG 1.1//EN" "http://www.w3.org/Graphics/SVG/1.1/DTD/svg11.dtd">
<svg version="1.1" id="Layer_1" xmlns="http://www.w3.org/2000/svg" xmlns:xlink="http://www.w3.org/1999/xlink" x="0px" y="0px"
	 width="136.834px" height="136.833px" viewBox="0 0 136.834 136.833" style="enable-background:new 0 0 136.834 136.833;"
	 xml:space="preserve">
<style type="text/css">
<![CDATA[
	.st0{fill:#49A0AE;}
	.st1{fill:#E1E1E1;}
	.st2{fill:#E2DDD0;}
	.st3{fill:#4ABC96;}
	.st4{fill:#E7E7D6;}
	.st5{fill:#E7E7E7;}
	.st6{fill:#E84849;}
	.st7{fill:#E8E8E8;}
	.st8{fill:#B42928;}
	.st9{fill:#EAE8E4;}
	.st10{fill:#EBEDEF;}
	.st11{fill:#B9B9BA;}
	.st12{fill:#1FA85B;}
	.st13{fill:#EFC849;}
	.st14{fill:#BB5538;}
	.st15{fill:#BC2C2A;}
	.st16{fill:#F06668;}
	.st17{fill:#F3F0ED;}
	.st18{fill:#F3F4F5;}
	.st19{fill:#F4E028;}
	.st20{fill:#F4F5F5;}
	.st21{fill:#27636D;}
	.st22{fill:#F5F5F5;}
	.st23{fill:#5C9942;}
	.st24{fill:#F7D98B;}
	.st25{fill:#F8E349;}
	.st26{fill:#90C7CF;}
	.st27{fill:#C0B8AA;}
	.st28{fill:#C6C5C5;}
	.st29{fill:#C9C9C8;}
	.st30{opacity:0.7;}
	.st31{fill:#60C3B6;}
	.st32{fill:#FFFFFF;}
	.st33{fill:#626463;}
	.st34{fill:#62C4B5;}
	.st35{fill:none;}
	.st36{fill:#67B8CB;}
	.st37{fill:#CBBD7D;}
	.st38{fill:#CC2027;}
	.st39{fill:#CC3432;}
	.st40{fill:#9ED8D8;}
	.st41{fill:#357180;}
	.st42{fill:#367A82;}
	.st43{fill:#6CC077;}
	.st44{fill:#6FBD44;}
	.st45{fill:#D0B82B;}
	.st46{fill:#3CB881;}
	.st47{fill:#D7D7BF;}
	.st48{fill:#A07238;}
	.st49{fill:#A2D8D4;}
	.st50{fill:#DAC425;}
	.st51{fill:#DBF0F5;}
	.st52{fill:#DCDDD8;}
	.st53{fill:#0EA24A;}
	.st54{fill:#DDA027;}
	.st55{fill:#DFD48A;}
	.st56{fill:#42A392;}
]]>
</style>
<g>
	<g>
		<g>
			<circle class="st0" cx="68.417" cy="68.417" r="63.333"/>
		</g>
	</g>
	<g>
		<g>
			<path class="st7" d="M131.75,68.417c0-8.498-1.685-16.598-4.72-24.001H39.535c-6.627,0-12,5.372-12,12v60.355
				c11.033,9.338,25.295,14.979,40.881,14.979C103.395,131.75,131.75,103.394,131.75,68.417z"/>
		</g>
	</g>
	<g>
		<g>
			<polygon class="st15" points="42.643,46.666 42.643,113.636 67.751,95.785 92.861,113.636 92.862,46.666 			"/>
		</g>
		<g>
			<path class="st39" d="M109.475,44.416c0-4.267-3.458-7.727-7.726-7.727h-51.38c-4.269,0-7.727,3.46-7.727,7.727v66.97
				l25.108-17.852l25.11,17.852V79.208c0-0.006,0.001-0.01,0.001-0.016V44.416H109.475z"/>
		</g>
		<g>
			<polygon class="st54" points="67.751,53.234 72.512,62.877 83.151,64.423 75.451,71.929 77.27,82.527 67.751,77.523 
				58.233,82.527 60.052,71.929 52.353,64.423 62.992,62.877 			"/>
			<path class="st54" d="M77.27,83.527c-0.159,0-0.319-0.038-0.465-0.115l-9.054-4.759l-9.052,4.759
				c-0.337,0.178-0.745,0.148-1.054-0.076c-0.308-0.224-0.462-0.603-0.397-0.978l1.729-10.08l-7.323-7.139
				c-0.272-0.266-0.37-0.663-0.253-1.025c0.118-0.362,0.431-0.626,0.808-0.681l10.119-1.471l4.526-9.171
				c0.336-0.683,1.457-0.683,1.793,0l4.528,9.171l10.119,1.471c0.377,0.055,0.689,0.319,0.808,0.681
				c0.117,0.362,0.02,0.759-0.253,1.025l-7.324,7.138l1.729,10.08c0.064,0.375-0.09,0.754-0.397,0.978
				C77.684,83.462,77.477,83.527,77.27,83.527z M67.751,76.523c0.16,0,0.319,0.038,0.465,0.115l7.726,4.061l-1.476-8.601
				c-0.056-0.324,0.052-0.655,0.287-0.885l6.25-6.092l-8.635-1.255c-0.326-0.047-0.607-0.252-0.753-0.547l-3.864-7.826l-3.862,7.826
				c-0.146,0.295-0.427,0.5-0.753,0.547l-8.635,1.255l6.249,6.092c0.235,0.229,0.343,0.561,0.287,0.885l-1.476,8.601l7.724-4.061
				C67.432,76.561,67.591,76.523,67.751,76.523z"/>
		</g>
	</g>
</g>
</svg>
