<?xml version="1.0" encoding="utf-8"?>
<!-- Generator: Adobe Illustrator 16.0.0, SVG Export Plug-In . SVG Version: 6.00 Build 0)  -->
<!DOCTYPE svg PUBLIC "-//W3C//DTD SVG 1.1//EN" "http://www.w3.org/Graphics/SVG/1.1/DTD/svg11.dtd">
<svg version="1.1" id="Layer_1" xmlns="http://www.w3.org/2000/svg" xmlns:xlink="http://www.w3.org/1999/xlink" x="0px" y="0px"
	 width="136.833px" height="136.833px" viewBox="0 0 136.833 136.833" style="enable-background:new 0 0 136.833 136.833;"
	 xml:space="preserve">
<style type="text/css">
<![CDATA[
	.st0{fill:#49A0AE;}
	.st1{fill:#E1E1E1;}
	.st2{fill:#E2DDD0;}
	.st3{fill:#4ABC96;}
	.st4{fill:#E7E7D6;}
	.st5{fill:#E7E7E7;}
	.st6{fill:#E84849;}
	.st7{fill:#E8E8E8;}
	.st8{fill:#B42928;}
	.st9{fill:#EAE8E4;}
	.st10{fill:#EBEDEF;}
	.st11{fill:#B9B9BA;}
	.st12{fill:#1FA85B;}
	.st13{fill:#EFC849;}
	.st14{fill:#BB5538;}
	.st15{fill:#BC2C2A;}
	.st16{fill:#F06668;}
	.st17{fill:#F3F0ED;}
	.st18{fill:#F3F4F5;}
	.st19{fill:#F4E028;}
	.st20{fill:#F4F5F5;}
	.st21{fill:#27636D;}
	.st22{fill:#F5F5F5;}
	.st23{fill:#5C9942;}
	.st24{fill:#F7D98B;}
	.st25{fill:#F8E349;}
	.st26{fill:#90C7CF;}
	.st27{fill:#C0B8AA;}
	.st28{fill:#C6C5C5;}
	.st29{fill:#C9C9C8;}
	.st30{opacity:0.7;}
	.st31{fill:#60C3B6;}
	.st32{fill:#FFFFFF;}
	.st33{fill:#626463;}
	.st34{fill:#62C4B5;}
	.st35{fill:none;}
	.st36{fill:#67B8CB;}
	.st37{fill:#CBBD7D;}
	.st38{fill:#CC2027;}
	.st39{fill:#CC3432;}
	.st40{fill:#9ED8D8;}
	.st41{fill:#357180;}
	.st42{fill:#367A82;}
	.st43{fill:#6CC077;}
	.st44{fill:#6FBD44;}
	.st45{fill:#D0B82B;}
	.st46{fill:#3CB881;}
	.st47{fill:#D7D7BF;}
	.st48{fill:#A07238;}
	.st49{fill:#A2D8D4;}
	.st50{fill:#DAC425;}
	.st51{fill:#DBF0F5;}
	.st52{fill:#DCDDD8;}
	.st53{fill:#0EA24A;}
	.st54{fill:#DDA027;}
	.st55{fill:#DFD48A;}
	.st56{fill:#42A392;}
]]>
</style>
<g>
	<g>
		<g>
			<g>
				<circle class="st13" cx="68.417" cy="68.417" r="63.333"/>
			</g>
		</g>
	</g>
	<g>
		<g>
			<g>
				<g>
					<g>
						<path class="st22" d="M43.68,30.155c-2.358,0-4.271,1.913-4.271,4.272v68.351c0,2.359,1.913,4.271,4.271,4.271h49.128
							c2.359,0,4.271-1.912,4.271-4.271v-52.84L76.488,30.155H43.68z"/>
					</g>
				</g>
			</g>
			<g>
				<g>
					<path class="st1" d="M97.08,49.938h-16.32c-2.359,0-4.271-1.912-4.271-4.271V30.155L97.08,49.938z"/>
				</g>
			</g>
			<g>
				<g>
					<path class="st29" d="M91.07,55.772c0,0.736-0.597,1.334-1.334,1.334H47.07c-0.736,0-1.333-0.598-1.333-1.334l0,0
						c0-0.736,0.597-1.334,1.333-1.334h42.666C90.473,54.438,91.07,55.036,91.07,55.772L91.07,55.772z"/>
				</g>
			</g>
			<g>
				<g>
					<path class="st29" d="M91.07,62.772c0,0.736-0.597,1.334-1.334,1.334H47.07c-0.736,0-1.333-0.598-1.333-1.334l0,0
						c0-0.736,0.597-1.334,1.333-1.334h42.666C90.473,61.438,91.07,62.036,91.07,62.772L91.07,62.772z"/>
				</g>
			</g>
			<g>
				<g>
					<path class="st29" d="M91.07,69.439c0,0.736-0.597,1.334-1.334,1.334H47.07c-0.736,0-1.333-0.598-1.333-1.334l0,0
						c0-0.737,0.597-1.333,1.333-1.333h42.666C90.473,68.105,91.07,68.702,91.07,69.439L91.07,69.439z"/>
				</g>
			</g>
			<g>
				<g>
					<path class="st29" d="M91.07,76.439c0,0.736-0.597,1.334-1.334,1.334H47.07c-0.736,0-1.333-0.598-1.333-1.334l0,0
						c0-0.736,0.597-1.334,1.333-1.334h42.666C90.473,75.105,91.07,75.703,91.07,76.439L91.07,76.439z"/>
				</g>
			</g>
			<g>
				<g>
					<path class="st29" d="M69.404,82.105H47.07c-0.736,0-1.333,0.598-1.333,1.334s0.597,1.334,1.333,1.334h22.334
						c0.737,0,1.334-0.598,1.334-1.334S70.141,82.105,69.404,82.105z"/>
				</g>
			</g>
		</g>
		<g>
			<g>
				<g>
					<g>
						<circle class="st0" cx="92.805" cy="100.769" r="15.25"/>
					</g>
				</g>
			</g>
			<g>
				<g>
					<g>
						<path class="st40" d="M101.12,97.839h-0.062c-0.137-0.42-0.309-0.826-0.507-1.217l0.042-0.045
							c0.738-0.736,0.692-2.086-0.253-3.029l-0.568-0.576c-0.951-0.945-2.241-1.049-3.033-0.252l-0.041,0.041
							c-0.391-0.197-0.807-0.365-1.224-0.506v-0.059c0-1.041-0.989-1.965-2.321-1.965h-0.813c-1.338,0-2.327,0.834-2.327,1.965
							v0.059c-0.417,0.141-0.827,0.309-1.217,0.506l-0.04-0.041c-0.63-0.621-2.084-0.693-3.034,0.252l-0.569,0.576
							c-0.945,0.943-0.936,2.35-0.259,3.029l0.048,0.045c-0.198,0.391-0.369,0.797-0.506,1.217h-0.063
							c-0.881,0-1.965,0.986-1.965,2.322v0.816c0,1.334,1.009,2.318,1.965,2.318h0.063c0.137,0.424,0.308,0.83,0.506,1.221
							l-0.048,0.041c-0.622,0.625-0.687,2.09,0.259,3.033l0.569,0.576c0.95,0.945,2.356,0.93,3.034,0.252l0.04-0.041
							c0.39,0.199,0.8,0.365,1.217,0.502v0.059c0,0.881,0.989,1.969,2.327,1.969h0.813c1.332,0,2.321-1.004,2.321-1.969v-0.055
							c0.417-0.141,0.833-0.307,1.224-0.506l0.041,0.041c0.737,0.738,2.082,0.693,3.033-0.252l0.568-0.576
							c0.945-0.943,1.053-2.232,0.253-3.033l-0.042-0.041c0.198-0.391,0.37-0.797,0.507-1.221h0.062
							c1.045,0,1.965-0.984,1.965-2.318v-0.816C103.085,98.826,102.247,97.839,101.12,97.839z M92.747,106.259
							c-3.14,0-5.689-2.545-5.689-5.689s2.55-5.693,5.689-5.693c3.141,0,5.689,2.549,5.689,5.693S95.888,106.259,92.747,106.259z"/>
					</g>
				</g>
			</g>
		</g>
	</g>
</g>
</svg>
