<?xml version="1.0" encoding="utf-8"?>
<!-- Generator: Adobe Illustrator 16.0.0, SVG Export Plug-In . SVG Version: 6.00 Build 0)  -->
<!DOCTYPE svg PUBLIC "-//W3C//DTD SVG 1.1//EN" "http://www.w3.org/Graphics/SVG/1.1/DTD/svg11.dtd">
<svg version="1.1" id="Layer_1" xmlns="http://www.w3.org/2000/svg" xmlns:xlink="http://www.w3.org/1999/xlink" x="0px" y="0px"
	 width="136.833px" height="136.833px" viewBox="0 0 136.833 136.833" style="enable-background:new 0 0 136.833 136.833;"
	 xml:space="preserve">
<style type="text/css">
<![CDATA[
	.st0{fill:#B6E2EA;}
	.st1{fill:#88CED7;}
	.st2{fill:#EDAC80;}
	.st3{fill:#EFEFEF;}
	.st4{fill:#F5B88E;}
	.st5{fill:#FBC096;}
	.st6{fill:#FDD7B3;}
	.st7{fill:none;}
]]>
</style>
<g>
	<g>
		<circle class="st3" cx="68.416" cy="68.418" r="63.333"/>
	</g>
	<g>
		<path class="st1" d="M72.024,18.382c-4.799,0-9.152,1.94-12.32,5.078c-1.621-0.496-3.34-0.766-5.122-0.766
			c-9.66,0-17.521,7.859-17.521,17.52c0,9.662,7.86,17.521,17.521,17.521c4.8,0,9.153-1.942,12.321-5.078
			c1.621,0.496,3.34,0.766,5.121,0.766c9.66,0,17.521-7.859,17.521-17.521C89.545,26.244,81.685,18.382,72.024,18.382z
			 M72.024,47.736c-0.533,0-1.055-0.046-1.569-0.115c-1.962-0.263-3.77-1.003-5.307-2.106c-0.872,1.73-2.15,3.215-3.716,4.332
			c-1.936,1.383-4.297,2.202-6.851,2.202c-6.525,0-11.833-5.308-11.833-11.834c0-6.524,5.308-11.832,11.833-11.832
			c0.534,0,1.055,0.048,1.569,0.115c1.962,0.263,3.771,1.003,5.308,2.104c0.871-1.728,2.149-3.215,3.716-4.33
			c1.935-1.381,4.296-2.202,6.85-2.202c6.525,0,11.834,5.308,11.834,11.832C83.858,42.428,78.55,47.736,72.024,47.736z"/>
		<circle class="st0" cx="54.583" cy="40.214" r="9.578"/>
		<path class="st0" d="M81.195,35.902c0,5.29-4.288,9.58-9.579,9.58c-5.289,0-9.576-4.29-9.576-9.58
			c0-5.288,4.287-9.575,9.576-9.575C76.907,26.327,81.195,30.614,81.195,35.902z"/>
		<g>
			<path class="st5" d="M48.681,71.225l-3.624,10.117c0,0-1.042,1.435-0.249,5.757c1.247,6.819,1.719,9.691,3.529,12.683
				c4.568,7.545,9.768,13.142,9.768,13.142L56.601,90.44c0,0-3.344-9.657-2.452-12.515c2.165-6.939-4.755-8.296-4.755-8.296
				L48.681,71.225z"/>
			<path class="st6" d="M46.787,76.456l2.177-6.685c0,0,1.549,0.974,1.675,2.115C50.776,73.146,48.647,76.436,46.787,76.456z"/>
			<g>
				<g>
					<g>
						<g>
							<path class="st5" d="M93.374,84.874c0.051,3.03-2.07,12.649-5.102,12.704l0,0c-3.027,0.052-5.525-2.362-5.579-5.391
								l-0.575-23.325c-0.053-3.027,1.331-5.435,4.361-5.486l0,0c3.028-0.053,4.174,1.65,4.79,5.393L93.374,84.874z"/>
							<path class="st2" d="M83.48,81.616l1.613-18.017c-1.958,0.418-3.006,3.021-2.976,4.75l-0.143,18.932
								C82.226,86.677,83.459,82.31,83.48,81.616z"/>
						</g>
						<path class="st5" d="M51.813,83.778v11.964c0.402,14.252,9.559,23.691,20.975,23.492
							c11.416-0.196,20.854-11.225,20.854-26.471l-0.281-8.258L51.813,83.778z"/>
						<g>
							<path class="st5" d="M83.763,97.837c0.055,3.028-2.359,5.524-5.391,5.578l0,0c-3.028,0.054-5.527-2.358-5.578-5.391
								l-0.577-33.176c-0.052-3.032,2.36-5.529,5.39-5.58l0,0c3.029-0.056,5.526,2.359,5.579,5.389L83.763,97.837z"/>
							<path class="st2" d="M73.574,75.923L76.065,59.7c-1.996,0-3.881,3.074-3.85,4.806v13.531
								C72.468,77.431,73.558,76.619,73.574,75.923z"/>
						</g>
						<g>
							<path class="st5" d="M73.133,82.031c0.145,3.357-3.467,6.195-6.484,5.917l0,0c-3.017-0.279-5.22-3.142-4.917-6.394
								l3.789-44.898c0.297-3.253,2.988-5.664,6.005-5.385l0,0c3.017,0.278,4.929,3.153,4.864,5.701l-3.271,45.256"/>
							<path class="st2" d="M62.152,78.037l2.37-19.296c0.272-13.693,0.789-19.458,0.619-17.597l-3.967,43.397
								C61.497,83.922,62.054,78.779,62.152,78.037z"/>
						</g>
						<path class="st5" d="M63.562,84.542c0.15,3.028-2.829,11.852-5.855,12l0,0c-3.025,0.152-6.098-13.731-6.188-15.433
							l-1.77-38.316c-0.21-4.347,2.121-6.925,5.148-7.074l0,0c3.025-0.148,5.6,2.184,5.749,5.208L63.562,84.542z"/>
						<path class="st6" d="M58.896,42.791l-0.138-2.697c-0.098-1.915-1.845-3.389-3.901-3.289c-2.058,0.101-3.646,1.732-3.549,3.649
							l0.136,2.7c0,0,1.087,0.598,3.562,0.455C58.077,43.431,58.146,43.162,58.896,42.791z"/>
						<path class="st6" d="M74.675,38.978l0.242-2.694c0.175-1.909-1.348-3.612-3.397-3.805c-2.052-0.191-3.854,1.201-4.028,3.114
							l-0.246,2.69c0,0,0.992,0.746,3.463,0.953C73.774,39.495,73.88,39.237,74.675,38.978z"/>
						<g>
							<path class="st6" d="M60.384,63.079c0.011,0.218-0.156,0.402-0.377,0.414l-6.894,0.342c-0.22,0.01-0.407-0.156-0.415-0.376
								l0,0c-0.011-0.221,0.156-0.405,0.375-0.415l6.896-0.341C60.188,62.691,60.374,62.859,60.384,63.079L60.384,63.079z"/>
							<path class="st6" d="M58.691,65.123c0.009,0.195-0.138,0.356-0.332,0.366l-3.409,0.17c-0.193,0.01-0.357-0.143-0.367-0.332
								l0,0c-0.009-0.194,0.142-0.356,0.332-0.37l3.408-0.168C58.519,64.781,58.683,64.929,58.691,65.123L58.691,65.123z"/>
						</g>
						<g>
							<path class="st6" d="M73.606,58.165c-0.023,0.218-0.218,0.374-0.438,0.351l-6.862-0.74c-0.22-0.025-0.377-0.219-0.352-0.437
								l0,0c0.024-0.218,0.22-0.376,0.436-0.351l6.865,0.74C73.474,57.751,73.631,57.948,73.606,58.165L73.606,58.165z"/>
							<path class="st6" d="M71.614,59.921c-0.021,0.19-0.191,0.329-0.385,0.309l-3.394-0.365c-0.192-0.021-0.331-0.196-0.311-0.386
								l0,0c0.021-0.194,0.195-0.329,0.386-0.312l3.393,0.366C71.497,59.554,71.638,59.726,71.614,59.921L71.614,59.921z"/>
						</g>
					</g>
				</g>
			</g>
			<path class="st2" d="M51.014,70.628l0.29,11.804l1.755,13.126l-2.579-9.919c0,0-0.926-2.768-0.358-5.163
				C50.56,78.625,51.014,70.628,51.014,70.628z"/>
			<path class="st6" d="M47.169,82.779c0.004,0.193-0.149,0.352-0.344,0.355l-1.769,0.06c-0.194,0.004-0.354-0.152-0.357-0.344l0,0
				c-0.003-0.194,0.152-0.353,0.344-0.358l1.771-0.06C47.008,82.43,47.167,82.584,47.169,82.779L47.169,82.779z"/>
			<path class="st6" d="M46.349,84.125c0.004,0.192-0.149,0.351-0.344,0.356l-0.948,0.058c-0.194,0.004-0.354-0.152-0.357-0.341l0,0
				c-0.003-0.195,0.152-0.354,0.344-0.359l0.948-0.062C46.187,83.778,46.347,83.93,46.349,84.125L46.349,84.125z"/>
			<g>
				<path class="st4" d="M60.652,82.088c0.349,1.23-0.228,2.473-1.45,2.916c-0.741,0.269-0.422,1.458,0.328,1.188
					c1.845-0.669,2.854-2.522,2.309-4.432C61.623,81,60.435,81.323,60.652,82.088L60.652,82.088z"/>
			</g>
			<g>
				<path class="st4" d="M70.789,79.914c0.4,2.16-0.812,4.028-2.933,4.578c-0.768,0.198-0.315,1.347,0.445,1.147
					c2.617-0.679,4.203-3.211,3.711-5.863C71.87,79.001,70.643,79.128,70.789,79.914L70.789,79.914z"/>
			</g>
			<g>
				<path class="st4" d="M80.354,81.827c0.307,1.523-0.531,2.964-2.047,3.379c-0.762,0.206-0.526,1.417,0.242,1.207
					c2.157-0.588,3.459-2.617,3.012-4.827C81.405,80.808,80.196,81.045,80.354,81.827L80.354,81.827z"/>
			</g>
			<g>
				<path class="st4" d="M90.812,83.647c0.191,1.13-0.405,2.239-1.564,2.519c-0.762,0.184-0.636,1.412,0.135,1.225
					c1.785-0.432,2.97-2.022,2.654-3.88C91.905,82.731,90.679,82.862,90.812,83.647L90.812,83.647z"/>
			</g>
		</g>
		<path class="st7" d="M61.459,30.602c-0.805,1.597-1.268,3.395-1.268,5.3c0,3.96,1.961,7.464,4.957,9.612
			c0.804-1.597,1.269-3.393,1.269-5.3C66.417,36.255,64.454,32.752,61.459,30.602z"/>
		<path class="st7" d="M72.103,40.214c0,2.646-0.594,5.155-1.647,7.406c0.515,0.069,1.036,0.115,1.569,0.115
			c6.525,0,11.834-5.308,11.834-11.834c0-6.524-5.309-11.832-11.834-11.832c-2.554,0-4.915,0.821-6.85,2.202
			C69.38,29.476,72.103,34.533,72.103,40.214z"/>
		<path class="st7" d="M54.505,35.902c0-2.644,0.592-5.153,1.646-7.404c-0.515-0.067-1.035-0.115-1.569-0.115
			c-6.525,0-11.833,5.308-11.833,11.832c0,6.526,5.308,11.834,11.833,11.834c2.554,0,4.915-0.819,6.851-2.202
			C57.227,46.642,54.505,41.585,54.505,35.902z"/>
	</g>
</g>
</svg>
