<?xml version="1.0" encoding="utf-8"?>
<!-- Generator: Adobe Illustrator 16.0.0, SVG Export Plug-In . SVG Version: 6.00 Build 0)  -->
<!DOCTYPE svg PUBLIC "-//W3C//DTD SVG 1.1//EN" "http://www.w3.org/Graphics/SVG/1.1/DTD/svg11.dtd">
<svg version="1.1" id="Layer_1" xmlns="http://www.w3.org/2000/svg" xmlns:xlink="http://www.w3.org/1999/xlink" x="0px" y="0px"
	 width="136.833px" height="136.833px" viewBox="0 0 136.833 136.833" style="enable-background:new 0 0 136.833 136.833;"
	 xml:space="preserve">
<style type="text/css">
<![CDATA[
	.st0{fill:#B6E2EA;}
	.st1{fill:#88CED7;}
	.st2{fill:#EDAC80;}
	.st3{fill:#EFEFEF;}
	.st4{fill:#F5B88E;}
	.st5{fill:#FBC096;}
	.st6{fill:#FDD7B3;}
	.st7{fill:none;}
]]>
</style>
<g>
	<g>
		<circle class="st3" cx="68.416" cy="68.418" r="63.333"/>
	</g>
	<g>
		<circle class="st0" cx="71.619" cy="40.429" r="9.486"/>
		<circle class="st0" cx="55.905" cy="62.798" r="9.486"/>
		<g>
			<path class="st5" d="M52.975,60.602l-3.108,7.738c0,0-0.819,2.766-1.298,7.091c-0.702,6.357-0.086,9.834,1.174,13.813
				c3.405,10.758,6.653,15.318,6.653,15.318l12.858-26.62l-2.657-5.121c0,0-0.298,3.296-2.153,4.247
				c-2.697,1.385-3.793,0.914-3.793,0.914s-1.972-0.979-2.986-4.422c-0.22-0.741-0.353-1.931-0.117-2.623
				c0.5-1.472,0.766-2.754,1.054-4.207c1.429-7.221-4.358-8.709-4.358-8.709L52.975,60.602z"/>
			<path class="st6" d="M52.537,61.524l1.363-3.606c0,0,1.629,0.261,0.955,1.887C54.412,60.873,54.039,61.727,52.537,61.524z"/>
			<g>
				<g>
					<g>
						<g>
							<path class="st5" d="M97.057,90.535c-0.681,3.583-6.532,11.23-9.316,10.528l0.784-3.163c-2.784-0.704-1.155-2.202-0.58-4.479
								l2.01-18.395c0.574-2.276,2.582-3.353,5.365-2.646l0,0c2.783,0.704,2.023,5.278,2.067,8.501L97.057,90.535z"/>
							<path class="st2" d="M91.931,85.805l1.304-4.881l0.534-8.756c-0.734,0.008-0.843-0.104-2.972,0.926l-2.76,16.485
								C88.39,89.188,91.769,86.319,91.931,85.805z"/>
						</g>
						<path class="st5" d="M61.052,82.871l-3.689,8.671c-5.163,3.901-3.085,16.162,6.968,19.689
							c10.212,3.583,20.235-4.269,28.639-13.545c0,0,1.542-1.493,2.109-2.989c1.887-4.979,1.763-6.382,1.763-6.382L61.052,82.871z"
							/>
						<g>
							<path class="st5" d="M93.817,90.286c-0.573,2.275-9.356,11.167-12.14,10.463l0,0c-2.784-0.704-4.574-3.118-3.998-5.395
								l4.435-25.433c0.576-2.275,2.555-4.314,6.152-2.914l0,0c2.783,0.702,4.762,4.683,4.563,7.391L93.817,90.286z"/>
							<path class="st2" d="M83.092,81.634l1.772-5.487l1.828-9.559c-1.516-0.194-2.704-0.281-3.031,1.019l-3.709,16.932
								C80.307,84.147,82.932,82.149,83.092,81.634z"/>
						</g>
						<g>
							<path class="st5" d="M84.548,86.276c-0.172,2.425-8.38,9.525-11.163,8.824l0,0c-2.782-0.706-4.574-3.121-3.998-5.395
								l6.303-24.918c0.573-2.278,3.296-3.553,6.081-2.849l0,0c2.785,0.706,3.682,2.343,3.595,5.246"/>
							<path class="st2" d="M79.244,77.508l0.103-4.408l0.59-11.343c-2.732,0.243-3.709,1.08-5.167,1.599l-3.108,15.531
								C72.016,78.498,79.086,78.024,79.244,77.508z"/>
						</g>
						<path class="st5" d="M70.924,91.873c0.051,2.872,0.257,5.143-2.613,5.192l0,0c-2.871,0.052-17.346,11.3-7.207-11.215
							l4.214-8.423c0,0,1.444-4.667,1.978-7.842c0.218-1.294,1.257-19.245,1.257-19.245c-0.837-4.354-0.727-13.935,2.427-13.962
							l0.572-0.021c2.002-0.145,3.396,0.813,3.897,3.979L77.73,60.55c0,0,1.855,12.817,1.797,15.227
							c-0.075,3.271-1.411,12.333-1.411,12.333L70.924,91.873z"/>
						<path class="st6" d="M75.123,39.717l-0.336-1.223c-0.036-0.779-1.371-1.782-2.783-1.745c-1.413,0.036-1.774,1.203-1.735,1.98
							l0.19,1.234c0,0-0.056,0.173,1.646,0.121C74.213,40.018,74.681,40.133,75.123,39.717z"/>
						<g>
							<path class="st6" d="M76.091,56.998c0.01,0.182-0.075,0.33-0.192,0.34l-3.679,0.208c-0.117,0.008-0.22-0.131-0.229-0.313l0,0
								c-0.011-0.18,0.075-0.33,0.191-0.338l3.68-0.21C75.978,56.677,76.081,56.818,76.091,56.998L76.091,56.998z"/>
							<path class="st6" d="M75.863,58.855c0.01,0.16-0.065,0.293-0.17,0.299l-1.818,0.104c-0.103,0.006-0.195-0.12-0.202-0.276l0,0
								c-0.01-0.16,0.067-0.291,0.169-0.301l1.817-0.104C75.765,58.574,75.855,58.697,75.863,58.855L75.863,58.855z"/>
						</g>
					</g>
				</g>
			</g>
			<path class="st6" d="M51.713,69.364c-0.037,0.15-0.189,0.237-0.341,0.199l-1.37-0.334c-0.15-0.039-0.239-0.193-0.201-0.34l0,0
				c0.04-0.15,0.192-0.236,0.341-0.2l1.372,0.334C51.664,69.061,51.755,69.215,51.713,69.364L51.713,69.364z"/>
			<path class="st6" d="M50.793,70.222c-0.037,0.148-0.189,0.239-0.34,0.198l-0.74-0.157c-0.148-0.039-0.237-0.191-0.201-0.338l0,0
				c0.04-0.152,0.193-0.239,0.341-0.202l0.742,0.156C50.744,69.921,50.834,70.074,50.793,70.222L50.793,70.222z"/>
			<g>
				<path class="st4" d="M80.882,85.059c0.177,0.726-0.504,1.27-1.686,1.254c-0.718-0.01-0.563,0.69,0.162,0.698
					c1.785,0.024,2.938-0.756,2.661-1.885C81.909,84.675,80.771,84.604,80.882,85.059L80.882,85.059z"/>
			</g>
			<g>
				<path class="st4" d="M88.983,86.59c0.146,1.321-1.103,1.958-3.027,1.574c-0.696-0.139-0.407,0.638,0.281,0.777
					c2.376,0.47,4.02-0.411,3.84-2.029C90.025,86.438,88.93,86.112,88.983,86.59L88.983,86.59z"/>
			</g>
			<g>
				<path class="st4" d="M94.6,88.855c0.207,0.881-0.649,1.529-2.083,1.5c-0.719-0.014-0.564,0.687,0.162,0.702
					c2.041,0.039,3.358-0.853,3.059-2.133C95.632,88.473,94.494,88.404,94.6,88.855L94.6,88.855z"/>
			</g>
			<g>
				<path class="st4" d="M74.101,81.609c0.206,0.88-0.65,1.527-2.083,1.499c-0.72-0.014-0.563,0.687,0.162,0.701
					c2.04,0.037,3.357-0.853,3.059-2.133C75.133,81.227,73.994,81.156,74.101,81.609L74.101,81.609z"/>
			</g>
		</g>
		<path class="st0" d="M56.635,37.609c-1.694-2.513-4.426-3.856-7.355-3.886c0.203-0.204,0.41-0.411,0.613-0.615
			c1.691-1.691-0.93-4.309-2.619-2.617c-1.313,1.312-2.625,2.623-3.938,3.937c-0.714,0.713-0.714,1.907,0,2.621
			c1.309,1.31,2.619,2.619,3.93,3.929c1.689,1.689,4.311-0.93,2.619-2.619c-0.278-0.278-0.557-0.556-0.834-0.836
			c3.828-0.105,6.633,3.996,4.572,7.517c-2.325,3.973-7.772,2.661-9.15-1.285c-0.805-2.31-4.256-0.717-3.455,1.582
			c2.393,6.858,11.677,7.876,15.687,1.927C58.631,44.404,58.544,40.442,56.635,37.609z"/>
	</g>
</g>
</svg>
