<?xml version="1.0" encoding="utf-8"?>
<!-- Generator: Adobe Illustrator 16.0.0, SVG Export Plug-In . SVG Version: 6.00 Build 0)  -->
<!DOCTYPE svg PUBLIC "-//W3C//DTD SVG 1.1//EN" "http://www.w3.org/Graphics/SVG/1.1/DTD/svg11.dtd">
<svg version="1.1" id="Layer_1" xmlns="http://www.w3.org/2000/svg" xmlns:xlink="http://www.w3.org/1999/xlink" x="0px" y="0px"
	 width="136.833px" height="136.833px" viewBox="0 0 136.833 136.833" style="enable-background:new 0 0 136.833 136.833;"
	 xml:space="preserve">
<style type="text/css">
<![CDATA[
	.st0{fill:#B6E2EA;}
	.st1{fill:#88CED7;}
	.st2{fill:#EDAC80;}
	.st3{fill:#EFEFEF;}
	.st4{fill:#F5B88E;}
	.st5{fill:#FBC096;}
	.st6{fill:#FDD7B3;}
	.st7{fill:none;}
]]>
</style>
<g>
	<g>
		<circle class="st3" cx="68.416" cy="68.418" r="63.333"/>
	</g>
	<g>
		<circle class="st0" cx="115.761" cy="62.698" r="9.578"/>
		<g>
			<path class="st5" d="M86.085,69.732L75.461,71.35c0,0-1.757-0.233-5.185,2.518c-5.406,4.337-7.711,6.119-9.482,9.132
				c-4.469,7.604-6.921,14.839-6.921,14.839l19.069-12.006c0,0,6.906-7.531,9.846-8.106c7.135-1.388,5.039-8.123,5.039-8.123
				L86.085,69.732z"/>
			<path class="st6" d="M80.583,70.552l6.916-1.26c0,0-0.12,1.824-1.066,2.479C85.392,72.491,81.483,72.18,80.583,70.552z"/>
			<g>
				<g>
					<g>
						<g>
							<path class="st5" d="M95.31,115.545c-2.639,1.482-12.112,4.187-13.6,1.546l0,0c-1.484-2.64-0.547-5.984,2.091-7.47
								l20.251-11.589c2.641-1.486,5.414-1.411,6.899,1.23l0,0c1.484,2.639,0.53,4.457-2.468,6.777L95.31,115.545z"/>
							<path class="st2" d="M91.144,106.42l18.096-8.938c-1.609-0.802-3.229-0.541-4.736,0.305l-16.725,8.87
								C88.428,106.592,90.522,106.735,91.144,106.42z"/>
						</g>
						<path class="st5" d="M76.526,78.456l-10.525,5.682c-12.351,7.128-16.305,19.67-10.705,29.62
							c5.598,9.951,19.785,13.016,33.2,5.772l7.134-4.172L76.526,78.456z"/>
						<g>
							<path class="st5" d="M79.337,113.246c-2.639,1.487-5.981,0.55-7.469-2.092l0,0c-1.486-2.639-0.551-5.985,2.093-7.468
								l28.919-16.272c2.641-1.486,5.984-0.55,7.47,2.091l0,0c1.487,2.641,0.55,5.984-2.091,7.47L79.337,113.246z"/>
							<path class="st2" d="M88.075,95.722l19.996-8.41c-1.49-0.599-3.383-0.91-4.892-0.063l-17.026,9.033
								C86.806,96.216,87.455,96.037,88.075,95.722z"/>
						</g>
						<g>
							<path class="st5" d="M78.17,101.975c-2.472,1.911-5.815,0.974-7.302-1.666l0,0c-1.484-2.643-0.549-5.986,2.092-7.468
								l28.921-16.272c2.64-1.488,5.985-0.553,7.472,2.089l0,0c1.484,2.641,0.549,5.986-2.262,7.048"/>
							<path class="st2" d="M87.075,84.877l20.174-8.315c-1.369-0.787-3.553-0.999-5.063-0.147l-17.032,9.021
								C85.806,85.372,86.455,85.192,87.075,84.877z"/>
						</g>
						<path class="st5" d="M75.442,91.628c-2.641,1.486-5.985,0.549-7.471-2.091l0,0c-1.486-2.639-0.549-5.986,0.935-6.827
							l43.603-24.297c3.797-2.13,7.143-1.196,8.627,1.446l0,0c1.486,2.641,0.55,5.984-2.091,7.47L75.442,91.628z"/>
						<path class="st6" d="M116.595,66.596l2.354-1.328c1.671-0.943,2.207-3.163,1.199-4.959c-1.008-1.798-3.178-2.49-4.85-1.547
							l-2.354,1.327c0,0-0.053,1.24,1.182,3.393C115.657,66.149,115.93,66.089,116.595,66.596z"/>
						<g>
							<path class="st6" d="M96.651,78.315c-0.191,0.107-0.431,0.04-0.54-0.15l-3.384-6.018c-0.107-0.191-0.042-0.432,0.151-0.54
								l0,0c0.19-0.106,0.431-0.038,0.538,0.152l3.385,6.02C96.909,77.967,96.843,78.208,96.651,78.315L96.651,78.315z"/>
							<path class="st6" d="M94.065,77.715c-0.169,0.094-0.381,0.034-0.477-0.136l-1.674-2.974
								c-0.096-0.168-0.033-0.382,0.133-0.477l0,0c0.17-0.096,0.383-0.032,0.479,0.131l1.674,2.977
								C94.295,77.407,94.235,77.621,94.065,77.715L94.065,77.715z"/>
						</g>
					</g>
				</g>
			</g>
			<path class="st2" d="M88.099,72.205l-21.746,12.2l7.904-6.24c0,0,2.616-2.215,4.992-2.851
				C81.088,74.82,88.099,72.205,88.099,72.205z"/>
			<path class="st6" d="M75.2,73.892c-0.168,0.097-0.379,0.037-0.477-0.133l-0.891-1.527c-0.097-0.17-0.035-0.384,0.131-0.477l0,0
				c0.17-0.099,0.383-0.034,0.479,0.131l0.894,1.53C75.43,73.585,75.37,73.799,75.2,73.892L75.2,73.892z"/>
			<path class="st6" d="M73.624,73.811c-0.167,0.095-0.38,0.035-0.477-0.135l-0.502-0.804c-0.096-0.17-0.033-0.384,0.131-0.477l0,0
				c0.172-0.099,0.383-0.035,0.48,0.131l0.504,0.807C73.854,73.502,73.795,73.717,73.624,73.811L73.624,73.811z"/>
			<g>
				<path class="st4" d="M80.89,85.991c-0.917,0.893-2.284,0.976-3.256,0.109c-0.588-0.524-1.484,0.322-0.891,0.853
					c1.467,1.306,3.576,1.312,4.997-0.071C82.31,86.329,81.46,85.435,80.89,85.991L80.89,85.991z"/>
			</g>
			<g>
				<path class="st4" d="M87.468,94.689c-1.473,1.632-3.692,1.803-5.418,0.455c-0.625-0.49-1.26,0.567-0.641,1.051
					c2.129,1.665,5.105,1.385,6.91-0.617C88.849,94.994,88.001,94.096,87.468,94.689L87.468,94.689z"/>
			</g>
			<g>
				<path class="st4" d="M90.836,103.782c-1.12,1.074-2.786,1.141-3.948,0.085c-0.584-0.532-1.479,0.316-0.891,0.851
					c1.654,1.505,4.064,1.517,5.691-0.048C92.26,104.12,91.409,103.229,90.836,103.782L90.836,103.782z"/>
			</g>
			<g>
				<path class="st4" d="M95.083,112.469c-0.781,0.838-2.023,1.039-2.951,0.287c-0.609-0.49-1.507,0.354-0.89,0.853
					c1.428,1.155,3.411,1.128,4.694-0.251C96.476,112.779,95.626,111.886,95.083,112.469L95.083,112.469z"/>
			</g>
		</g>
		<path class="st0" d="M60.024,16.56c-1.823,4.964,0.725,10.469,5.689,12.293c4.967,1.823,10.47-0.727,12.293-5.689
			c1.822-4.968-0.725-10.469-5.69-12.295C67.351,9.048,61.848,11.594,60.024,16.56z"/>
		<g>
			<path class="st5" d="M66.29,50.238l-0.086,10.746c0,0,0.482,1.705-1.75,5.493c-3.521,5.969-4.955,8.503-7.684,10.687
				c-6.891,5.51-13.699,8.97-13.699,8.97l9.16-20.588c0,0,6.467-7.913,6.615-10.902c0.359-7.262,7.322-6.148,7.322-6.148
				L66.29,50.238z"/>
			<path class="st6" d="M66.264,55.802l0.261-7.026c0,0-1.791,0.378-2.302,1.408C63.659,51.316,64.524,55.142,66.264,55.802z"/>
			<g>
				<g>
					<g>
						<g>
							<path class="st5" d="M19.63,47.648c-1.093,2.823-2.416,12.586,0.41,13.682l0,0c2.825,1.091,6.001-0.313,7.095-3.138
								l8.579-21.695c1.094-2.826,0.623-5.563-2.202-6.654l0,0c-2.825-1.094-4.488,0.112-6.355,3.41L19.63,47.648z"/>
							<path class="st2" d="M29.254,50.467l6.265-19.184c1.023,1.477,0.997,3.116,0.371,4.73l-6.389,17.82
								C29.472,53.181,29.034,51.128,29.254,50.467z"/>
						</g>
						<path class="st5" d="M59.021,60.944l-4.121,11.229c-5.291,13.24-17.14,18.944-27.788,14.823
							c-10.648-4.118-15.708-17.725-10.452-32.036l3.109-7.655L59.021,60.944z"/>
						<g>
							<path class="st5" d="M24.185,63.128c-1.096,2.822,0.311,5.998,3.137,7.094l0,0c2.824,1.096,6.003-0.309,7.094-3.138
								l11.978-30.945c1.093-2.827-0.31-6.002-3.138-7.095l0,0c-2.824-1.096-6,0.311-7.094,3.136L24.185,63.128z"/>
							<path class="st2" d="M40.281,51.979l5.47-20.992c0.805,1.388,1.385,3.217,0.761,4.833L40.003,53.96
								C39.976,53.304,40.058,52.637,40.281,51.979z"/>
						</g>
						<g>
							<path class="st5" d="M35.506,62.675c-1.538,2.72-0.133,5.894,2.692,6.987l0,0c2.826,1.092,6.004-0.311,7.094-3.138
								l11.977-30.946c1.096-2.826-0.309-6.002-3.135-7.094l0,0c-2.826-1.096-6.004,0.309-6.652,3.242"/>
							<path class="st2" d="M51.158,51.42l5.351-21.153c0.977,1.242,1.495,3.373,0.868,4.987L50.88,53.401
								C50.853,52.747,50.935,52.078,51.158,51.42z"/>
						</g>
						<path class="st5" d="M46.138,63.898c-1.095,2.825,0.31,6.002,3.137,7.096l0,0c2.823,1.094,6.003-0.313,6.623-1.901
							l17.823-46.623c1.565-4.062,0.162-7.242-2.663-8.333l0,0c-2.828-1.094-6.004,0.311-7.096,3.136L46.138,63.898z"/>
						<path class="st6" d="M65.038,19.592l0.979-2.52c0.694-1.789,2.816-2.636,4.736-1.896c1.924,0.741,2.918,2.791,2.224,4.581
							l-0.978,2.519c0,0-1.221,0.228-3.524-0.685C65.614,20.456,65.634,20.178,65.038,19.592z"/>
						<g>
							<path class="st6" d="M56.286,41.005c-0.08,0.202,0.021,0.433,0.227,0.511l6.438,2.49c0.205,0.081,0.436-0.02,0.514-0.226l0,0
								c0.077-0.204-0.023-0.432-0.227-0.511l-6.441-2.492C56.594,40.699,56.364,40.801,56.286,41.005L56.286,41.005z"/>
							<path class="st6" d="M57.25,43.478c-0.069,0.18,0.019,0.382,0.2,0.453l3.182,1.23c0.182,0.071,0.385-0.021,0.453-0.196l0,0
								c0.071-0.184-0.021-0.384-0.197-0.455l-3.184-1.234C57.521,43.208,57.317,43.296,57.25,43.478L57.25,43.478z"/>
						</g>
					</g>
				</g>
			</g>
			<path class="st2" d="M63.554,48.598l-8.97,23.266l5.047-8.716c0,0,1.818-2.904,2.11-5.348
				C61.968,55.91,63.554,48.598,63.554,48.598z"/>
			<path class="st6" d="M63.726,61.605c-0.071,0.18,0.019,0.38,0.199,0.451l1.641,0.666c0.182,0.071,0.385-0.021,0.453-0.199l0,0
				c0.07-0.181-0.02-0.384-0.199-0.455l-1.64-0.665C63.997,61.333,63.794,61.422,63.726,61.605L63.726,61.605z"/>
			<path class="st6" d="M64.032,63.152c-0.071,0.182,0.019,0.382,0.199,0.453l0.869,0.382c0.182,0.069,0.385-0.021,0.454-0.198l0,0
				c0.07-0.182-0.021-0.382-0.199-0.455l-0.869-0.384C64.304,62.879,64.101,62.97,64.032,63.152L64.032,63.152z"/>
			<g>
				<path class="st4" d="M50.94,57.702c-0.752,1.033-0.64,2.401,0.355,3.238c0.604,0.505-0.107,1.514-0.717,1.001
					c-1.502-1.264-1.81-3.351-0.642-4.955C50.403,56.344,51.408,57.057,50.94,57.702L50.94,57.702z"/>
			</g>
			<g>
				<path class="st4" d="M41.392,52.432c-1.405,1.689-1.258,3.912,0.322,5.428c0.574,0.548-0.381,1.329-0.947,0.783
					c-1.953-1.869-2.102-4.854-0.377-6.928C40.894,51.108,41.901,51.819,41.392,52.432L41.392,52.432z"/>
			</g>
			<g>
				<path class="st4" d="M31.911,50.398c-0.904,1.261-0.732,2.92,0.48,3.919c0.607,0.501-0.102,1.508-0.717,1.003
					c-1.725-1.424-2.08-3.808-0.766-5.64C31.371,49.035,32.376,49.75,31.911,50.398L31.911,50.398z"/>
			</g>
			<g>
				<path class="st4" d="M22.707,47.434c-0.719,0.891-0.739,2.15,0.135,2.96c0.573,0.532-0.134,1.543-0.716,1.003
					c-1.348-1.248-1.604-3.215-0.422-4.681C22.2,46.099,23.206,46.813,22.707,47.434L22.707,47.434z"/>
			</g>
		</g>
		<g>
			<path class="st0" d="M93.843,28.907c-3.03,0-6.061-0.002-9.092-0.002c-1.646,0-3.023,1.38-3.025,3.026
				c0.002,3.022,0.002,6.048,0.002,9.072c0,3.903,6.047,3.901,6.047,0c0-3.026,0-6.05,0-9.072c-1.008,1.007-2.016,2.016-3.023,3.022
				c3.031,0,6.062,0,9.093,0C97.747,34.954,97.747,28.907,93.843,28.907L93.843,28.907z"/>
		</g>
		<g>
			<path class="st0" d="M105.417,40.479c-0.002,3.031,0,6.062,0,9.094c0,1.646-1.377,3.021-3.025,3.023
				c-3.023-0.002-6.049,0-9.072-0.002c-3.902,0.002-3.903-6.046,0-6.048c3.023,0,6.049,0.002,9.072,0
				c-1.008,1.009-2.016,2.018-3.024,3.026c0.002-3.032,0.001-6.063,0.001-9.094C99.368,36.578,105.417,36.576,105.417,40.479
				L105.417,40.479z"/>
		</g>
	</g>
</g>
</svg>
