<?xml version="1.0" encoding="utf-8"?>
<!-- Generator: Adobe Illustrator 16.0.0, SVG Export Plug-In . SVG Version: 6.00 Build 0)  -->
<!DOCTYPE svg PUBLIC "-//W3C//DTD SVG 1.1//EN" "http://www.w3.org/Graphics/SVG/1.1/DTD/svg11.dtd">
<svg version="1.1" id="Layer_1" xmlns="http://www.w3.org/2000/svg" xmlns:xlink="http://www.w3.org/1999/xlink" x="0px" y="0px"
	 width="136.833px" height="136.833px" viewBox="0 0 136.833 136.833" style="enable-background:new 0 0 136.833 136.833;"
	 xml:space="preserve">
<style type="text/css">
<![CDATA[
	.st0{fill:#B6E2EA;}
	.st1{fill:#88CED7;}
	.st2{fill:#EDAC80;}
	.st3{fill:#EFEFEF;}
	.st4{fill:#F5B88E;}
	.st5{fill:#FBC096;}
	.st6{fill:#FDD7B3;}
	.st7{fill:none;}
]]>
</style>
<g>
	<g>
		<circle class="st3" cx="68.416" cy="68.418" r="63.333"/>
	</g>
	<g>
		<g>
			<circle class="st0" cx="54.122" cy="45.658" r="9.578"/>
			<circle class="st0" cx="71.157" cy="41.346" r="9.578"/>
			<g>
				<path class="st5" d="M48.22,76.667l-3.623,10.117c0,0-1.041,1.434-0.25,5.758c1.248,6.818,1.719,9.691,3.529,12.682
					c4.568,7.547,9.769,13.141,9.769,13.141l-1.504-22.482c0,0-3.345-9.656-2.452-12.516c2.165-6.939-4.755-8.295-4.755-8.295
					L48.22,76.667z"/>
				<path class="st6" d="M46.327,81.9l2.176-6.688c0,0,1.551,0.975,1.676,2.117C50.315,78.587,48.187,81.88,46.327,81.9z"/>
				<g>
					<g>
						<g>
							<g>
								<path class="st5" d="M92.913,90.318c0.053,3.027-2.07,12.648-5.102,12.701l0,0c-3.028,0.053-5.525-2.361-5.578-5.391
									l-0.575-23.324c-0.054-3.027,1.331-5.435,4.36-5.485l0,0c3.028-0.053,4.176,1.651,4.791,5.391L92.913,90.318z"/>
								<path class="st2" d="M83.021,87.058l1.612-18.017c-1.957,0.417-3.005,3.021-2.975,4.75l-0.144,18.932
									C81.765,92.119,82.999,87.753,83.021,87.058z"/>
							</g>
							<path class="st5" d="M51.353,89.222v11.961c0.403,14.254,9.56,23.691,20.975,23.492
								c11.417-0.195,20.855-11.225,20.855-26.471l-0.281-8.258L51.353,89.222z"/>
							<g>
								<path class="st5" d="M83.302,103.279c0.055,3.029-2.359,5.525-5.389,5.578l0,0c-3.03,0.057-5.528-2.357-5.58-5.391
									l-0.577-33.176c-0.052-3.03,2.361-5.528,5.392-5.58l0,0c3.027-0.054,5.525,2.358,5.578,5.388L83.302,103.279z"/>
								<path class="st2" d="M73.114,81.367l2.49-16.225c-1.996,0-3.88,3.076-3.85,4.805l0.001,13.533
									C72.008,82.875,73.097,82.062,73.114,81.367z"/>
							</g>
							<g>
								<path class="st5" d="M72.673,87.472c0.145,3.359-3.467,6.197-6.484,5.918l0,0c-3.016-0.279-5.221-3.141-4.916-6.393
									L65.061,42.1c0.298-3.255,2.988-5.664,6.005-5.385l0,0c3.017,0.278,4.929,3.151,4.864,5.701l-3.271,45.253"/>
								<path class="st2" d="M61.692,83.48l2.369-19.295c0.273-13.693,0.789-19.458,0.619-17.597l-3.965,43.398
									C61.036,89.367,61.595,84.222,61.692,83.48z"/>
							</g>
							<path class="st5" d="M63.101,89.986c0.152,3.027-2.828,11.85-5.855,12l0,0c-3.023,0.15-6.098-13.732-6.186-15.436
								l-1.771-38.314c-0.211-4.349,2.12-6.925,5.148-7.073l0,0c3.025-0.151,5.599,2.181,5.749,5.207L63.101,89.986z"/>
							<path class="st6" d="M58.436,48.235l-0.139-2.7c-0.097-1.915-1.845-3.387-3.899-3.289c-2.059,0.101-3.646,1.734-3.551,3.651
								l0.137,2.698c0,0,1.086,0.6,3.561,0.455C57.616,48.875,57.686,48.604,58.436,48.235z"/>
							<path class="st6" d="M74.214,44.418l0.244-2.69c0.174-1.911-1.349-3.614-3.398-3.805c-2.053-0.191-3.855,1.203-4.029,3.112
								l-0.244,2.69c0,0,0.991,0.748,3.462,0.955C73.313,44.937,73.421,44.679,74.214,44.418z"/>
							<g>
								<path class="st6" d="M59.924,68.521c0.011,0.22-0.157,0.402-0.377,0.416l-6.895,0.34c-0.22,0.01-0.405-0.156-0.415-0.376
									l0,0c-0.01-0.218,0.158-0.403,0.377-0.413l6.895-0.342C59.728,68.135,59.914,68.302,59.924,68.521L59.924,68.521z"/>
								<path class="st6" d="M58.231,70.564c0.009,0.193-0.137,0.359-0.332,0.369l-3.408,0.168c-0.195,0.01-0.357-0.141-0.369-0.332
									l0,0c-0.008-0.193,0.143-0.355,0.332-0.369l3.409-0.17C58.06,70.222,58.224,70.373,58.231,70.564L58.231,70.564z"/>
							</g>
							<g>
								<path class="st6" d="M73.146,63.606c-0.023,0.22-0.217,0.374-0.436,0.353l-6.863-0.742
									c-0.219-0.023-0.377-0.219-0.352-0.437l0,0c0.023-0.218,0.219-0.376,0.436-0.351l6.865,0.742
									C73.013,63.195,73.171,63.39,73.146,63.606L73.146,63.606z"/>
								<path class="st6" d="M71.154,65.361c-0.021,0.192-0.19,0.331-0.386,0.313l-3.393-0.367
									c-0.193-0.021-0.332-0.194-0.312-0.386l0,0c0.022-0.194,0.196-0.329,0.386-0.313l3.393,0.367
									C71.038,64.996,71.177,65.17,71.154,65.361L71.154,65.361z"/>
							</g>
						</g>
					</g>
				</g>
				<path class="st2" d="M50.554,76.072l0.289,11.803l1.756,13.127l-2.579-9.92c0,0-0.925-2.768-0.358-5.164
					C50.1,84.066,50.554,76.072,50.554,76.072z"/>
				<path class="st6" d="M46.709,88.22c0.005,0.193-0.149,0.352-0.345,0.357l-1.768,0.059c-0.195,0.004-0.354-0.152-0.357-0.342l0,0
					c-0.004-0.197,0.151-0.355,0.344-0.361l1.77-0.059C46.548,87.875,46.708,88.027,46.709,88.22L46.709,88.22z"/>
				<path class="st6" d="M45.888,89.568c0.004,0.193-0.148,0.352-0.344,0.355l-0.947,0.061c-0.195,0.004-0.354-0.152-0.357-0.344
					l0,0c-0.004-0.195,0.151-0.352,0.344-0.355l0.948-0.063C45.726,89.22,45.886,89.375,45.888,89.568L45.888,89.568z"/>
				<g>
					<path class="st4" d="M60.192,87.531c0.35,1.23-0.229,2.475-1.45,2.916c-0.741,0.27-0.422,1.459,0.327,1.189
						c1.845-0.668,2.854-2.521,2.31-4.432C61.163,86.441,59.974,86.767,60.192,87.531L60.192,87.531z"/>
				</g>
				<g>
					<path class="st4" d="M70.329,85.355c0.4,2.162-0.813,4.027-2.932,4.58c-0.769,0.197-0.316,1.346,0.443,1.146
						c2.618-0.68,4.203-3.211,3.711-5.861C71.409,84.445,70.182,84.572,70.329,85.355L70.329,85.355z"/>
				</g>
				<g>
					<path class="st4" d="M79.895,87.271c0.306,1.521-0.532,2.961-2.048,3.377c-0.761,0.207-0.525,1.416,0.242,1.209
						c2.158-0.59,3.459-2.617,3.012-4.83C80.944,86.25,79.736,86.49,79.895,87.271L79.895,87.271z"/>
				</g>
				<g>
					<path class="st4" d="M90.352,89.091c0.191,1.127-0.406,2.236-1.564,2.518c-0.761,0.184-0.636,1.412,0.136,1.225
						c1.783-0.432,2.968-2.023,2.652-3.879C91.446,88.175,90.22,88.304,90.352,89.091L90.352,89.091z"/>
				</g>
			</g>
		</g>
		<g>
			<path class="st0" d="M60.237,29.144c-1.531,1.531-3.063,3.063-4.594,4.594c-0.83,0.831-2.222,0.831-3.055,0
				c-1.526-1.527-3.055-3.057-4.582-4.584c-1.972-1.972,1.082-5.026,3.055-3.056c1.527,1.528,3.055,3.056,4.582,4.585
				c-1.018,0-2.035,0-3.055,0c1.532-1.531,3.063-3.063,4.594-4.594C59.154,24.117,62.21,27.173,60.237,29.144L60.237,29.144z"/>
		</g>
		<g>
			<path class="st0" d="M58.456,23.076c-1.085,1.084-2.17,2.17-3.254,3.253c-0.592,0.591-1.577,0.591-2.166,0
				c-1.084-1.082-2.166-2.165-3.249-3.247c-1.396-1.398,0.769-3.563,2.165-2.166c1.084,1.084,2.166,2.166,3.25,3.248
				c-0.724,0-1.443,0-2.166,0c1.085-1.084,2.17-2.17,3.256-3.256C57.688,19.512,59.854,21.678,58.456,23.076L58.456,23.076z"/>
		</g>
		<g>
			<path class="st0" d="M57.572,17.676c-0.864,0.862-1.728,1.727-2.591,2.59c-0.471,0.471-1.254,0.471-1.725,0
				c-0.861-0.86-1.725-1.724-2.584-2.586c-1.114-1.113,0.609-2.837,1.723-1.725c0.861,0.862,1.725,1.727,2.586,2.587
				c-0.576,0-1.149,0-1.725,0c0.864-0.862,1.729-1.727,2.592-2.591C56.961,14.839,58.685,16.563,57.572,17.676L57.572,17.676z"/>
		</g>
		<g>
			<path class="st0" d="M74.964,23.076c-1.086,1.084-2.172,2.17-3.256,3.253c-0.592,0.591-1.576,0.591-2.166,0
				c-1.082-1.082-2.166-2.165-3.248-3.247c-1.398-1.398,0.768-3.563,2.166-2.166c1.082,1.084,2.164,2.166,3.248,3.248
				c-0.723,0-1.445,0-2.166,0c1.085-1.084,2.17-2.17,3.256-3.256C74.194,19.512,76.36,21.678,74.964,23.076L74.964,23.076z"/>
		</g>
		<g>
			<path class="st0" d="M74.079,17.676c-0.864,0.862-1.729,1.727-2.592,2.59c-0.471,0.471-1.254,0.471-1.724,0
				c-0.861-0.86-1.724-1.724-2.586-2.586c-1.112-1.113,0.61-2.837,1.725-1.725c0.861,0.862,1.724,1.727,2.585,2.587
				c-0.574,0-1.148,0-1.724,0c0.863-0.862,1.728-1.727,2.591-2.591C73.467,14.839,75.192,16.563,74.079,17.676L74.079,17.676z"/>
		</g>
	</g>
</g>
</svg>
