<?xml version="1.0" encoding="utf-8"?>
<!-- Generator: Adobe Illustrator 16.0.0, SVG Export Plug-In . SVG Version: 6.00 Build 0)  -->
<!DOCTYPE svg PUBLIC "-//W3C//DTD SVG 1.1//EN" "http://www.w3.org/Graphics/SVG/1.1/DTD/svg11.dtd">
<svg version="1.1" id="Layer_1" xmlns="http://www.w3.org/2000/svg" xmlns:xlink="http://www.w3.org/1999/xlink" x="0px" y="0px"
	 width="136.833px" height="136.834px" viewBox="0 0 136.833 136.834" style="enable-background:new 0 0 136.833 136.834;"
	 xml:space="preserve">
<style type="text/css">
<![CDATA[
	.st0{fill:#B6E2EA;}
	.st1{fill:#88CED7;}
	.st2{fill:#EDAC80;}
	.st3{fill:#EFEFEF;}
	.st4{fill:#F5B88E;}
	.st5{fill:#FBC096;}
	.st6{fill:#FDD7B3;}
	.st7{fill:none;}
]]>
</style>
<g>
	<g>
		<path class="st3" d="M5.083,68.418c0-34.98,28.355-63.334,63.332-63.334c34.979,0,63.334,28.354,63.334,63.334
			c0,34.976-28.355,63.331-63.334,63.331C33.439,131.749,5.083,103.394,5.083,68.418z"/>
	</g>
	<g>
		<circle class="st0" cx="63.547" cy="21.438" r="9.27"/>
		<g>
			<path class="st5" d="M73.923,48.132l2.568,9.544c0,0-0.033,1.628,2.829,4.479c4.518,4.496,6.378,6.417,9.313,7.729
				c7.407,3.304,14.266,4.805,14.266,4.805L89.979,58.496c0,0-7.585-5.542-8.411-8.168c-2.002-6.377-7.939-3.773-7.939-3.773
				L73.923,48.132z"/>
			<path class="st6" d="M75.237,53.077l-1.859-6.193c0,0,1.681-0.075,2.374,0.722C76.515,48.48,76.632,52.086,75.237,53.077z"/>
			<g>
				<g>
					<g>
						<g>
							<path class="st5" d="M114.84,35.016c1.626,2.262,5.065,10.64,2.804,12.271l0,0c-2.26,1.626-5.412,1.111-7.038-1.147
								l-12.66-17.317c-1.63-2.26-1.845-4.802,0.417-6.431l0,0c2.261-1.627,4.02-0.94,6.444,1.563L114.84,35.016z"/>
							<path class="st2" d="M106.932,39.757l-10.02-15.619c-0.57,1.55-0.165,3.006,0.765,4.295l9.815,14.375
								C107.364,42.223,107.28,40.293,106.932,39.757z"/>
						</g>
						<path class="st5" d="M82.873,55.975l6.268,9.035c7.776,10.557,19.641,12.886,28.161,6.752
							c8.52-6.134,9.869-19.41,1.877-30.926l-4.541-6.09L82.873,55.975z"/>
						<g>
							<path class="st5" d="M114.375,49.847c1.628,2.258,1.113,5.41-1.148,7.037l0,0c-2.26,1.632-5.413,1.116-7.038-1.146
								l-17.827-24.76c-1.628-2.261-1.114-5.412,1.149-7.039l0,0c2.257-1.629,5.409-1.114,7.038,1.146L114.375,49.847z"/>
							<path class="st2" d="M97.468,43.657l-9.729-17.411c-0.396,1.422-0.487,3.183,0.442,4.473l9.995,14.636
								C98.048,44.765,97.821,44.189,97.468,43.657z"/>
						</g>
						<g>
							<path class="st5" d="M104.196,52.067c1.997,2.061,1.483,5.213-0.776,6.84l0,0c-2.261,1.628-5.414,1.114-7.04-1.146
								L78.556,32.999c-1.632-2.259-1.117-5.41,1.145-7.038l0,0c2.26-1.629,5.414-1.115,6.67,1.345"/>
							<path class="st2" d="M87.664,45.679L78,28.096c-0.581,1.331-0.549,3.347,0.383,4.641l9.985,14.64
								C88.241,46.788,88.013,46.213,87.664,45.679z"/>
						</g>
						<path class="st5" d="M95.02,55.618c1.627,2.26,1.115,5.412-1.146,7.04l0,0c-2.261,1.626-5.414,1.113-6.335-0.157L60.88,25.146
							c-2.334-3.252-1.824-6.403,0.44-8.033l0,0c2.26-1.627,5.412-1.113,7.039,1.149L95.02,55.618z"/>
						<path class="st6" d="M67.94,20.575l-1.456-2.015c-1.032-1.429-3.115-1.695-4.655-0.589c-1.537,1.105-1.949,3.161-0.916,4.591
							l1.453,2.015c0,0,1.139-0.08,2.979-1.426C67.627,21.478,67.546,21.235,67.94,20.575z"/>
						<g>
							<path class="st6" d="M80.686,37.599c0.118,0.164,0.081,0.39-0.083,0.509l-5.151,3.709c-0.165,0.117-0.392,0.082-0.509-0.083
								l0,0c-0.118-0.163-0.081-0.394,0.081-0.506l5.154-3.711C80.342,37.398,80.57,37.437,80.686,37.599L80.686,37.599z"/>
							<path class="st6" d="M80.401,40.024c0.104,0.144,0.074,0.344-0.074,0.446l-2.545,1.835c-0.145,0.104-0.347,0.07-0.449-0.07
								l0,0c-0.105-0.147-0.069-0.348,0.071-0.452l2.546-1.834C80.098,39.847,80.299,39.877,80.401,40.024L80.401,40.024z"/>
						</g>
					</g>
				</g>
			</g>
			<path class="st2" d="M75.979,46.04L89.35,64.66l-6.51-6.584c0,0-2.292-2.162-3.119-4.27C79.083,52.177,75.979,46.04,75.979,46.04
				z"/>
			<path class="st6" d="M78.839,57.652c0.104,0.143,0.072,0.344-0.073,0.449l-1.303,0.971c-0.147,0.104-0.348,0.068-0.451-0.073l0,0
				c-0.106-0.145-0.07-0.345,0.072-0.45l1.305-0.972C78.535,57.474,78.737,57.506,78.839,57.652L78.839,57.652z"/>
			<path class="st6" d="M78.927,59.101c0.104,0.143,0.071,0.343-0.076,0.449l-0.684,0.542c-0.144,0.104-0.347,0.069-0.451-0.073l0,0
				c-0.103-0.146-0.069-0.347,0.072-0.45l0.686-0.545C78.623,58.921,78.821,58.955,78.927,59.101L78.927,59.101z"/>
			<g>
				<path class="st4" d="M89.312,51.218c0.909,0.744,1.125,1.986,0.434,2.962c-0.419,0.59,0.445,1.323,0.869,0.726
					c1.043-1.472,0.833-3.401-0.577-4.558C89.474,49.886,88.745,50.754,89.312,51.218L89.312,51.218z"/>
			</g>
			<g>
				<path class="st4" d="M96.587,44.315c1.641,1.18,2.024,3.188,0.969,4.905c-0.384,0.62,0.647,1.092,1.026,0.477
					c1.303-2.115,0.743-4.805-1.27-6.251C96.724,43.021,95.991,43.89,96.587,44.315L96.587,44.315z"/>
			</g>
			<g>
				<path class="st4" d="M104.55,40.309c1.097,0.913,1.327,2.429,0.479,3.6c-0.425,0.587,0.441,1.319,0.871,0.726
					c1.205-1.665,0.97-3.869-0.626-5.195C104.714,38.973,103.987,39.841,104.55,40.309L104.55,40.309z"/>
			</g>
			<g>
				<path class="st4" d="M112.054,35.54c0.846,0.627,1.156,1.742,0.566,2.665c-0.389,0.607,0.477,1.344,0.868,0.726
					c0.909-1.42,0.682-3.231-0.71-4.261C112.196,34.234,111.465,35.103,112.054,35.54L112.054,35.54z"/>
			</g>
		</g>
		<circle class="st0" cx="61.38" cy="47.901" r="9.269"/>
		<g>
			<path class="st5" d="M65.687,75.152l2.268,9.614c0,0,0.803,1.42-0.364,5.289c-1.843,6.1-2.57,8.677-4.531,11.222
				c-4.952,6.425-10.279,11.001-10.279,11.001l3.691-20.387c0,0,4.049-8.479,3.528-11.182c-1.263-6.563,5.199-7.09,5.199-7.09
				L65.687,75.152z"/>
			<path class="st6" d="M66.877,80.126l-1.3-6.33c0,0-1.516,0.729-1.748,1.759C63.574,76.69,65.181,79.917,66.877,80.126z"/>
			<g>
				<g>
					<g>
						<g>
							<path class="st5" d="M23.447,83.02c-0.36,2.759,0.59,11.77,3.352,12.13l0,0c2.762,0.362,5.292-1.587,5.653-4.348
								l2.929-21.252c0.36-2.764-0.658-5.103-3.421-5.462l0,0c-2.762-0.361-3.982,1.077-4.931,4.432L23.447,83.02z"/>
							<path class="st2" d="M32.658,83.438l1.409-18.503c1.237,1.096,1.573,2.568,1.365,4.146l-1.819,17.31
								C33.446,85.815,32.606,84.074,32.658,83.438z"/>
						</g>
						<path class="st5" d="M61.532,86.3l-1.232,10.928c-1.835,12.981-11.174,20.662-21.583,19.305
							c-10.411-1.355-17.897-12.404-16.326-26.334l1.106-7.517L61.532,86.3z"/>
						<g>
							<path class="st5" d="M30.892,95.852c-0.361,2.763,1.588,5.291,4.35,5.652l0,0c2.763,0.362,5.294-1.585,5.652-4.351
								l3.946-30.251c0.361-2.764-1.586-5.293-4.35-5.655l0,0c-2.761-0.36-5.291,1.588-5.651,4.352L30.892,95.852z"/>
							<path class="st2" d="M42.837,82.381l0.306-19.941c1.021,1.065,1.939,2.569,1.733,4.15L43.02,84.213
								C42.853,83.634,42.782,83.018,42.837,82.381z"/>
						</g>
						<g>
							<path class="st5" d="M40.907,92.979c-0.781,2.76,1.166,5.29,3.928,5.652l0,0c2.763,0.358,5.295-1.589,5.653-4.35
								l3.943-30.256c0.362-2.763-1.586-5.292-4.349-5.65l0,0c-2.762-0.36-5.295,1.586-5.234,4.347"/>
							<path class="st2" d="M52.43,79.51l0.164-20.061c1.143,0.896,2.072,2.686,1.864,4.265L52.614,81.34
								C52.446,80.761,52.374,80.144,52.43,79.51z"/>
						</g>
						<path class="st5" d="M50.668,91.75c-0.361,2.764,1.586,5.291,4.348,5.653l0,0c2.762,0.36,5.296-1.59,5.503-3.144l5.745-45.532
							c0.514-3.969-1.434-6.5-4.198-6.861l0,0c-2.763-0.359-5.293,1.588-5.653,4.351L50.668,91.75z"/>
						<path class="st6" d="M57.883,48.055l0.325-2.464c0.23-1.75,1.939-2.968,3.817-2.729c1.878,0.244,3.214,1.86,2.986,3.608
							l-0.325,2.463c0,0-1.04,0.47-3.297,0.157C58.586,48.7,58.542,48.447,57.883,48.055z"/>
						<g>
							<path class="st6" d="M54.737,69.087c-0.025,0.2,0.113,0.382,0.315,0.41l6.292,0.819c0.201,0.024,0.385-0.114,0.41-0.314l0,0
								c0.025-0.199-0.116-0.382-0.314-0.406l-6.295-0.819C54.946,68.747,54.763,68.889,54.737,69.087L54.737,69.087z"/>
							<path class="st6" d="M56.138,71.087c-0.023,0.177,0.1,0.337,0.278,0.36l3.11,0.406c0.177,0.024,0.339-0.104,0.361-0.276l0,0
								c0.023-0.178-0.102-0.337-0.276-0.363L56.5,70.808C56.321,70.787,56.16,70.911,56.138,71.087L56.138,71.087z"/>
						</g>
					</g>
				</g>
			</g>
			<path class="st2" d="M62.887,74.284L59.95,97.02l2.606-8.883c0,0,0.99-2.991,0.721-5.238
				C63.065,81.161,62.887,74.284,62.887,74.284z"/>
			<path class="st6" d="M65.876,85.863c-0.023,0.176,0.102,0.338,0.278,0.361l1.611,0.238c0.176,0.021,0.337-0.105,0.36-0.279l0,0
				c0.024-0.178-0.103-0.339-0.276-0.364l-1.61-0.235C66.062,85.563,65.899,85.687,65.876,85.863L65.876,85.863z"/>
			<path class="st6" d="M66.488,87.179c-0.023,0.176,0.1,0.338,0.277,0.36l0.861,0.151c0.176,0.024,0.338-0.104,0.362-0.274l0,0
				c0.021-0.18-0.103-0.339-0.278-0.365l-0.861-0.152C66.672,86.879,66.51,87.002,66.488,87.179L66.488,87.179z"/>
			<g>
				<path class="st4" d="M53.605,85.168c-0.444,1.088-0.046,2.284,1.024,2.813c0.651,0.321,0.236,1.375-0.422,1.053
					c-1.616-0.802-2.347-2.601-1.654-4.287C52.832,84.071,53.885,84.491,53.605,85.168L53.605,85.168z"/>
			</g>
			<g>
				<path class="st4" d="M43.928,82.544c-0.885,1.816-0.269,3.77,1.472,4.775c0.632,0.367-0.05,1.271-0.675,0.909
					c-2.152-1.245-2.934-3.878-1.848-6.104C43.194,81.471,44.249,81.888,43.928,82.544L43.928,82.544z"/>
			</g>
			<g>
				<path class="st4" d="M35.018,82.796c-0.532,1.325-0.018,2.768,1.283,3.396c0.653,0.314,0.237,1.369-0.42,1.052
					c-1.852-0.893-2.689-2.946-1.915-4.869C34.237,81.697,35.292,82.116,35.018,82.796L35.018,82.796z"/>
			</g>
			<g>
				<path class="st4" d="M26.148,82.157c-0.447,0.953-0.19,2.083,0.768,2.615c0.629,0.349,0.216,1.408-0.421,1.052
					c-1.475-0.823-2.133-2.521-1.399-4.089C25.405,81.077,26.46,81.493,26.148,82.157L26.148,82.157z"/>
			</g>
		</g>
		<path class="st0" d="M52.814,28.724c-1.764-2.615-4.609-4.014-7.658-4.046c0.213-0.213,0.426-0.427,0.641-0.639
			c1.759-1.761-0.969-4.488-2.729-2.728c-1.367,1.368-2.733,2.733-4.1,4.101c-0.744,0.742-0.744,1.984,0,2.727
			c1.362,1.366,2.727,2.728,4.092,4.091c1.76,1.759,4.486-0.966,2.726-2.725c-0.289-0.292-0.579-0.581-0.868-0.87
			c3.986-0.112,6.904,4.16,4.762,7.824c-2.422,4.135-8.094,2.77-9.527-1.338c-0.839-2.405-4.431-0.745-3.598,1.646
			c2.492,7.14,12.157,8.201,16.332,2.006C54.892,35.798,54.801,31.674,52.814,28.724z"/>
	</g>
</g>
</svg>
