<?xml version="1.0" encoding="utf-8"?>
<!-- Generator: Adobe Illustrator 16.0.0, SVG Export Plug-In . SVG Version: 6.00 Build 0)  -->
<!DOCTYPE svg PUBLIC "-//W3C//DTD SVG 1.1//EN" "http://www.w3.org/Graphics/SVG/1.1/DTD/svg11.dtd">
<svg version="1.1" id="Layer_1" xmlns="http://www.w3.org/2000/svg" xmlns:xlink="http://www.w3.org/1999/xlink" x="0px" y="0px"
	 width="136.833px" height="136.833px" viewBox="0 0 136.833 136.833" style="enable-background:new 0 0 136.833 136.833;"
	 xml:space="preserve">
<style type="text/css">
<![CDATA[
	.st0{fill:#B6E2EA;}
	.st1{fill:#88CED7;}
	.st2{fill:#EDAC80;}
	.st3{fill:#EFEFEF;}
	.st4{fill:#F5B88E;}
	.st5{fill:#FBC096;}
	.st6{fill:#FDD7B3;}
	.st7{fill:none;}
]]>
</style>
<g>
	<g>
		<circle class="st3" cx="68.417" cy="68.418" r="63.333"/>
	</g>
	<g>
		<g>
			<circle class="st0" cx="64.774" cy="38.68" r="15.222"/>
			<g>
				<path class="st5" d="M49.837,69.645l-3.79,10.058c0,0-1.065,1.415-0.346,5.752c1.134,6.838,1.559,9.719,3.319,12.737
					c4.443,7.622,9.548,13.3,9.548,13.3l-1.13-22.503c0,0-3.184-9.709-2.245-12.554c2.28-6.903-4.616-8.372-4.616-8.372
					L49.837,69.645z"/>
				<path class="st6" d="M47.858,74.844l2.287-6.648c0,0,1.533,1,1.64,2.145C51.902,71.6,49.717,74.856,47.858,74.844z"/>
				<g>
					<g>
						<g>
							<g>
								<path class="st5" d="M94.298,84.034c0.002,3.028-2.279,12.613-5.311,12.615l0,0c-3.029,0.002-5.486-2.451-5.489-5.481
									l-0.188-23.33c-0.003-3.029,1.42-5.413,4.451-5.413l0,0c3.029-0.002,4.147,1.72,4.7,5.47L94.298,84.034z"/>
								<path class="st2" d="M84.46,80.612l1.116-17.692c-2.206,1.281-2.259,2.675-2.257,4.405l-0.458,18.927
									C83.123,85.652,84.428,81.308,84.46,80.612z"/>
							</g>
							<path class="st5" d="M52.761,82.25l-0.198,11.959c0.167,14.258,9.165,23.848,20.583,23.838
								c11.418-0.008,21.038-10.878,21.29-26.122l-0.144-8.261L52.761,82.25z"/>
							<g>
								<path class="st5" d="M84.473,96.834c0.005,3.029-2.45,5.486-5.481,5.488l0,0c-3.029,0.004-5.488-2.451-5.488-5.482
									l-0.026-33.18c-0.003-3.031,2.45-5.488,5.481-5.49l0,0c3.029-0.004,5.486,2.452,5.489,5.48L84.473,96.834z"/>
								<path class="st2" d="M74.65,74.756l1.509-15.815c-1.854,1.11-2.679,2.646-2.677,4.377l-0.225,13.529
									C73.519,76.248,74.622,75.45,74.65,74.756z"/>
							</g>
							<g>
								<path class="st5" d="M74.349,81.65c0.342,3.345-3.097,6.388-6.125,6.287l0,0c-3.028-0.102-5.396-2.829-5.285-6.092
									l1.148-45.044c0.107-3.266,2.652-5.83,5.681-5.729l0,0c3.028,0.102,5.104,2.858,5.19,5.406l-0.612,45.368"/>
								<path class="st2" d="M63.154,78.309l1.527-21.653c0.041-2.48-0.293-19.71-0.355-17.843L62.559,84.86
									C62.844,84.221,63.099,79.055,63.154,78.309z"/>
							</g>
							<path class="st5" d="M62.99,83.678c-0.144,3.026,0.432,12.641-2.596,12.498l-5.905,5.741
								c-3.026-0.143-2.306-21.276-2.229-22.979l1.02-38.148c0.211-4.349,2.779-6.688,5.809-6.545l0,0
								c3.025,0.145,5.361,2.715,5.219,5.74L62.99,83.678z"/>
							<path class="st6" d="M62.382,41.672l0.123-2.701c0.088-1.915-1.508-3.549-3.564-3.649c-2.058-0.101-3.797,1.373-3.886,3.289
								l-0.124,2.699c0,0,1.022,0.702,3.5,0.799C61.505,42.229,61.6,41.965,62.382,41.672z"/>
							<path class="st6" d="M73.363,38.58l0.086-2.7c0.061-1.918-1.559-3.528-3.615-3.601c-2.061-0.07-3.779,1.428-3.839,3.345
								l-0.088,2.701c0,0,1.033,0.688,3.511,0.749C72.496,39.15,72.585,38.886,73.363,38.58z"/>
							<g>
								<path class="st6" d="M61.902,62.006c-0.01,0.22-0.195,0.387-0.414,0.377l-6.896-0.328c-0.22-0.01-0.39-0.192-0.376-0.413
									l0,0c0.009-0.22,0.195-0.389,0.413-0.377l6.896,0.327C61.744,61.602,61.914,61.788,61.902,62.006L61.902,62.006z"/>
								<path class="st6" d="M60.02,63.878c-0.009,0.193-0.171,0.343-0.365,0.332l-3.411-0.16c-0.192-0.01-0.342-0.175-0.332-0.365
									l0,0c0.009-0.197,0.176-0.342,0.365-0.336l3.409,0.16C59.882,63.52,60.031,63.685,60.02,63.878L60.02,63.878z"/>
							</g>
							<g>
								<path class="st6" d="M73.421,57.796c-0.009,0.221-0.195,0.387-0.415,0.378l-6.894-0.338
									c-0.221-0.012-0.389-0.194-0.377-0.415l0,0c0.01-0.22,0.196-0.387,0.414-0.376l6.896,0.339
									C73.266,57.394,73.435,57.579,73.421,57.796L73.421,57.796z"/>
								<path class="st6" d="M71.538,59.667c-0.009,0.194-0.172,0.342-0.368,0.332l-3.407-0.165
									c-0.194-0.011-0.343-0.176-0.334-0.366l0,0c0.011-0.196,0.175-0.342,0.368-0.335l3.407,0.166
									C71.398,59.309,71.547,59.474,71.538,59.667L71.538,59.667z"/>
							</g>
						</g>
					</g>
				</g>
				<path class="st2" d="M52.5,69.924l-0.225,10.971l1.168,10.001l-2.045-6.809c0,0-0.88-2.782-0.272-5.167
					C51.594,77.076,52.5,69.924,52.5,69.924z"/>
				<path class="st6" d="M48.134,81.172c0.002,0.193-0.154,0.35-0.349,0.351l-1.769,0.028c-0.195,0.002-0.352-0.157-0.352-0.347l0,0
					c-0.002-0.196,0.157-0.351,0.35-0.354l1.77-0.029C47.979,80.821,48.136,80.978,48.134,81.172L48.134,81.172z"/>
				<path class="st6" d="M47.292,82.506c0,0.193-0.156,0.351-0.35,0.351L45.994,82.9c-0.195,0.001-0.352-0.159-0.352-0.348l0,0
					c0-0.196,0.158-0.352,0.35-0.354l0.949-0.045C47.135,82.156,47.292,82.313,47.292,82.506L47.292,82.506z"/>
				<g>
					<path class="st4" d="M60.047,79.36c0.329,1.235-0.269,2.468-1.499,2.891c-0.744,0.256-0.445,1.452,0.309,1.194
						c1.856-0.639,2.896-2.476,2.383-4.393C61.036,78.287,59.841,78.59,60.047,79.36L60.047,79.36z"/>
				</g>
				<g>
					<path class="st4" d="M71.799,78.701c0.364,2.166-0.879,4.012-3.007,4.529c-0.771,0.186-0.339,1.339,0.426,1.153
						c2.628-0.636,4.255-3.142,3.807-5.801C72.894,77.805,71.666,77.913,71.799,78.701L71.799,78.701z"/>
				</g>
				<g>
					<path class="st4" d="M81.332,80.772c0.281,1.526-0.58,2.955-2.103,3.344c-0.765,0.195-0.55,1.407,0.222,1.21
						c2.167-0.552,3.502-2.559,3.092-4.777C82.399,79.77,81.186,79.989,81.332,80.772L81.332,80.772z"/>
				</g>
				<g>
					<path class="st4" d="M91.757,82.765c0.172,1.133-0.441,2.232-1.607,2.492c-0.763,0.172-0.658,1.399,0.115,1.226
						c1.791-0.4,3.003-1.974,2.719-3.834C92.867,81.868,91.638,81.977,91.757,82.765L91.757,82.765z"/>
				</g>
			</g>
		</g>
		<g>
			<path class="st0" d="M46.839,44.434c-1.531,1.53-3.063,3.062-4.592,4.592c-0.832,0.833-2.223,0.833-3.057,0
				c-1.525-1.527-3.054-3.056-4.581-4.584c-1.972-1.97,1.081-5.025,3.054-3.055c1.527,1.528,3.055,3.056,4.584,4.583
				c-1.02,0-2.037,0-3.057,0c1.532-1.53,3.063-3.062,4.594-4.592C45.756,39.408,48.812,42.46,46.839,44.434L46.839,44.434z"/>
		</g>
		<g>
			<path class="st0" d="M45.058,37.36c-1.085,1.084-2.17,2.17-3.254,3.255c-0.59,0.59-1.576,0.59-2.166,0
				c-1.083-1.082-2.166-2.166-3.249-3.249c-1.396-1.397,0.769-3.562,2.166-2.165c1.083,1.083,2.166,2.166,3.249,3.248
				c-0.723,0-1.443,0-2.166,0c1.085-1.085,2.17-2.17,3.256-3.254C44.291,33.796,46.457,35.961,45.058,37.36L45.058,37.36z"/>
		</g>
		<g>
			<path class="st0" d="M44.15,31.422c-0.858,0.856-1.715,1.715-2.572,2.572c-0.467,0.466-1.246,0.466-1.711,0
				c-0.857-0.856-1.713-1.712-2.568-2.567c-1.104-1.104,0.607-2.814,1.711-1.71c0.857,0.855,1.712,1.712,2.568,2.565
				c-0.571,0-1.141,0-1.711,0c0.856-0.856,1.714-1.714,2.572-2.571C43.542,28.606,45.253,30.317,44.15,31.422L44.15,31.422z"/>
		</g>
		<g>
			<path class="st0" d="M43.365,26.713c-0.662,0.66-1.322,1.322-1.982,1.982c-0.359,0.358-0.961,0.358-1.318,0
				c-0.66-0.659-1.319-1.318-1.979-1.979c-0.852-0.851,0.468-2.169,1.318-1.317c0.66,0.658,1.318,1.319,1.979,1.978
				c-0.44,0-0.881,0-1.318,0c0.66-0.66,1.32-1.322,1.98-1.981C42.896,24.544,44.214,25.863,43.365,26.713L43.365,26.713z"/>
		</g>
	</g>
</g>
</svg>
