<?xml version="1.0" encoding="utf-8"?>
<!-- Generator: Adobe Illustrator 16.0.0, SVG Export Plug-In . SVG Version: 6.00 Build 0)  -->
<!DOCTYPE svg PUBLIC "-//W3C//DTD SVG 1.1//EN" "http://www.w3.org/Graphics/SVG/1.1/DTD/svg11.dtd">
<svg version="1.1" id="Layer_1" xmlns="http://www.w3.org/2000/svg" xmlns:xlink="http://www.w3.org/1999/xlink" x="0px" y="0px"
	 width="136.833px" height="136.834px" viewBox="0 0 136.833 136.834" style="enable-background:new 0 0 136.833 136.834;"
	 xml:space="preserve">
<style type="text/css">
<![CDATA[
	.st0{fill:#B6E2EA;}
	.st1{fill:#88CED7;}
	.st2{fill:#EDAC80;}
	.st3{fill:#EFEFEF;}
	.st4{fill:#F5B88E;}
	.st5{fill:#FBC096;}
	.st6{fill:#FDD7B3;}
	.st7{fill:none;}
]]>
</style>
<g>
	<g>
		<circle class="st3" cx="68.416" cy="68.418" r="63.333"/>
	</g>
	<g>
		<g>
			<circle class="st0" cx="89.324" cy="34.763" r="9.578"/>
			<g>
				<path class="st5" d="M62.903,49.996l-9.716,4.592c0,0-1.751,0.277-4.249,3.896c-3.938,5.703-5.637,8.069-6.472,11.464
					c-2.104,8.565-2.384,16.198-2.384,16.198l14.834-16.962c0,0,4.463-9.191,7.115-10.582c6.438-3.375,2.503-9.229,2.503-9.229
					L62.903,49.996z"/>
				<path class="st6" d="M57.865,52.356l6.267-3.188c0,0,0.407,1.783-0.313,2.683C63.028,52.835,59.194,53.658,57.865,52.356z"/>
				<g>
					<g>
						<g>
							<g>
								<path class="st5" d="M84.854,91.251c-2.104,2.178-10.408,7.481-12.589,5.375l0,0c-2.179-2.104-2.237-5.577-0.134-7.755
									l16.086-16.9c2.104-2.18,4.785-2.902,6.963-0.797l0,0c2.179,2.106,1.785,4.12-0.425,7.2L84.854,91.251z"/>
								<path class="st2" d="M78.251,83.704L93.03,69.959c-1.771-0.309-3.248,0.405-4.449,1.649L75.093,84.893
									C75.696,84.644,77.745,84.181,78.251,83.704z"/>
							</g>
							<path class="st5" d="M56.241,61.089l-8.458,8.457c-9.794,10.365-9.993,23.513-1.78,31.444
								c8.211,7.935,22.682,6.811,33.463-3.971l5.641-6.038L56.241,61.089z"/>
							<g>
								<path class="st5" d="M68.892,93.621c-2.102,2.18-5.574,2.239-7.756,0.134l0,0c-2.18-2.104-2.24-5.578-0.133-7.758
									l23.052-23.866c2.106-2.182,5.578-2.241,7.758-0.135l0,0c2.179,2.104,2.238,5.577,0.134,7.757L68.892,93.621z"/>
								<path class="st2" d="M72.249,74.329L89.001,60.55c-1.6-0.149-3.502,0.092-4.704,1.338L70.565,75.415
									C71.173,75.166,71.745,74.808,72.249,74.329z"/>
							</g>
							<g>
								<path class="st5" d="M64.547,83.156c-1.821,2.538-5.293,2.597-7.473,0.492l0,0c-2.179-2.106-2.239-5.577-0.134-7.755
									l23.055-23.867c2.104-2.183,5.576-2.242,7.756-0.137l0,0c2.18,2.104,2.24,5.58-0.15,7.398"/>
								<path class="st2" d="M68.187,64.226l16.949-13.744c-1.537-0.362-3.689,0.063-4.893,1.31L66.505,65.31
									C67.11,65.061,67.683,64.703,68.187,64.226z"/>
							</g>
							<path class="st5" d="M58.972,74.022c-2.104,2.18-5.576,2.239-7.756,0.135l0,0c-2.18-2.104-2.24-5.579-1.059-6.81
								l34.824-35.761c3.027-3.126,6.502-3.189,8.683-1.082l0,0c2.179,2.106,2.237,5.578,0.133,7.755L58.972,74.022z"/>
							<path class="st6" d="M91.239,38.26l1.875-1.947c1.331-1.381,1.209-3.663-0.27-5.096c-1.481-1.433-3.76-1.474-5.091-0.093
								l-1.876,1.946c0,0,0.307,1.201,2.104,2.91C90.212,38.101,90.457,37.965,91.239,38.26z"/>
							<g>
								<path class="st6" d="M75.484,55.195c-0.153,0.158-0.401,0.162-0.562,0.01l-4.964-4.795c-0.159-0.154-0.165-0.404-0.01-0.561
									l0,0c0.152-0.158,0.403-0.162,0.56-0.01l4.965,4.798C75.632,54.788,75.637,55.039,75.484,55.195L75.484,55.195z"/>
								<path class="st6" d="M72.833,55.361c-0.134,0.139-0.354,0.143-0.494,0.008l-2.455-2.372
									c-0.139-0.133-0.141-0.357-0.01-0.494l0,0c0.137-0.141,0.358-0.141,0.497-0.01l2.456,2.37
									C72.966,55.001,72.97,55.223,72.833,55.361L72.833,55.361z"/>
							</g>
						</g>
					</g>
				</g>
				<path class="st2" d="M65.541,51.789L48.196,69.702l5.787-8.24c0,0,1.873-2.87,3.967-4.162
					C59.57,56.301,65.541,51.789,65.541,51.789z"/>
				<path class="st6" d="M53.665,57.099c-0.133,0.14-0.354,0.143-0.494,0.008l-1.293-1.209c-0.141-0.135-0.143-0.356-0.011-0.494
					l0,0c0.136-0.143,0.357-0.143,0.497-0.011l1.293,1.209C53.796,56.736,53.802,56.96,53.665,57.099L53.665,57.099z"/>
				<path class="st6" d="M52.132,57.472c-0.133,0.139-0.355,0.143-0.495,0.007l-0.712-0.628c-0.14-0.136-0.142-0.357-0.011-0.496
					l0,0c0.136-0.141,0.356-0.141,0.497-0.01l0.713,0.629C52.263,57.11,52.268,57.332,52.132,57.472L52.132,57.472z"/>
				<g>
					<path class="st4" d="M62.577,67.063c-0.621,1.114-1.909,1.585-3.087,1.035c-0.714-0.335-1.33,0.733-0.608,1.072
						c1.777,0.832,3.802,0.233,4.767-1.5C64.034,66.978,62.966,66.366,62.577,67.063L62.577,67.063z"/>
				</g>
				<g>
					<path class="st4" d="M71.371,73.514c-0.944,1.984-3.022,2.783-5.062,1.984c-0.738-0.289-1.045,0.906-0.313,1.192
						c2.518,0.985,5.287-0.136,6.445-2.569C72.78,73.409,71.712,72.794,71.371,73.514L71.371,73.514z"/>
				</g>
				<g>
					<path class="st4" d="M77.2,81.261c-0.766,1.352-2.343,1.892-3.76,1.211c-0.711-0.341-1.326,0.728-0.608,1.072
						c2.017,0.967,4.329,0.288,5.438-1.676C78.663,81.178,77.591,80.566,77.2,81.261L77.2,81.261z"/>
				</g>
				<g>
					<path class="st4" d="M83.757,88.37c-0.509,1.025-1.643,1.573-2.745,1.12c-0.724-0.297-1.344,0.77-0.608,1.07
						c1.697,0.698,3.59,0.104,4.424-1.583C85.179,88.27,84.11,87.656,83.757,88.37L83.757,88.37z"/>
				</g>
			</g>
		</g>
		<g>
			<path class="st0" d="M68.896,37.684c1.531-1.531,3.062-3.063,4.592-4.592c0.832-0.831,0.832-2.222,0-3.056
				c-1.527-1.527-3.055-3.055-4.582-4.582c-1.973-1.971-5.027,1.082-3.056,3.053c1.528,1.529,3.057,3.058,4.583,4.585
				c0-1.021,0-2.037,0-3.056c-1.53,1.531-3.061,3.062-4.592,4.593C63.869,36.602,66.923,39.656,68.896,37.684L68.896,37.684z"/>
		</g>
		<g>
			<path class="st0" d="M62.826,35.903c1.085-1.086,2.171-2.17,3.255-3.256c0.59-0.59,0.59-1.575,0-2.165
				c-1.082-1.084-2.165-2.166-3.248-3.248c-1.396-1.398-3.563,0.768-2.166,2.164c1.084,1.084,2.168,2.168,3.249,3.249
				c0-0.723,0-1.442,0-2.165c-1.085,1.085-2.171,2.169-3.255,3.255C59.264,35.134,61.429,37.302,62.826,35.903L62.826,35.903z"/>
		</g>
	</g>
</g>
</svg>
