<?xml version="1.0" encoding="utf-8"?>
<!-- Generator: Adobe Illustrator 16.0.0, SVG Export Plug-In . SVG Version: 6.00 Build 0)  -->
<!DOCTYPE svg PUBLIC "-//W3C//DTD SVG 1.1//EN" "http://www.w3.org/Graphics/SVG/1.1/DTD/svg11.dtd">
<svg version="1.1" id="Layer_1" xmlns="http://www.w3.org/2000/svg" xmlns:xlink="http://www.w3.org/1999/xlink" x="0px" y="0px"
	 width="136.833px" height="136.834px" viewBox="0 0 136.833 136.834" style="enable-background:new 0 0 136.833 136.834;"
	 xml:space="preserve">
<style type="text/css">
<![CDATA[
	.st0{fill:#B6E2EA;}
	.st1{fill:#88CED7;}
	.st2{fill:#EDAC80;}
	.st3{fill:#EFEFEF;}
	.st4{fill:#F5B88E;}
	.st5{fill:#FBC096;}
	.st6{fill:#FDD7B3;}
	.st7{fill:none;}
]]>
</style>
<g>
	<g>
		<circle class="st3" cx="68.417" cy="68.418" r="63.333"/>
	</g>
	<g>
		<circle class="st0" cx="58.736" cy="33.837" r="9.582"/>
		<g>
			<path class="st5" d="M50.83,63.287l-3.624,10.117c0,0-1.041,1.435-0.25,5.759c1.248,6.817,1.719,9.691,3.529,12.682
				c4.568,7.545,9.768,13.14,9.768,13.14L58.75,82.502c0,0-3.344-9.655-2.452-12.515c2.165-6.938-4.754-8.295-4.754-8.295
				L50.83,63.287z"/>
			<path class="st6" d="M48.938,68.52l2.176-6.686c0,0,1.55,0.974,1.675,2.115C52.926,65.207,50.796,68.499,48.938,68.52z"/>
			<g>
				<g>
					<g>
						<g>
							<path class="st5" d="M95.523,76.938c0.052,3.028-2.07,12.649-5.101,12.701l0,0c-3.028,0.052-5.525-2.36-5.579-5.389
								l-0.575-23.325c-0.053-3.029,1.331-5.435,4.361-5.485l0,0c3.028-0.053,4.174,1.65,4.79,5.391L95.523,76.938z"/>
							<path class="st2" d="M85.517,76.269L86.249,56.1c-1.47,1.034-2.011,2.584-1.98,4.313l-0.144,18.932
								C84.375,78.74,85.496,76.965,85.517,76.269z"/>
						</g>
						<path class="st5" d="M53.963,75.842v11.963c0.403,14.252,9.559,23.691,20.975,23.492c11.417-0.196,20.854-11.225,20.854-26.47
							l-0.281-8.259L53.963,75.842z"/>
						<g>
							<path class="st5" d="M85.912,89.9c0.055,3.026-2.36,5.524-5.389,5.578l0,0c-3.029,0.054-5.528-2.36-5.579-5.391
								l-0.578-33.176c-0.052-3.031,2.361-5.528,5.39-5.581l0,0c3.028-0.054,5.527,2.359,5.579,5.39L85.912,89.9z"/>
							<path class="st2" d="M74.645,73.886l2.101-21.591c-1.235,1.026-2.411,2.543-2.38,4.273l-0.142,19.273
								C74.474,75.236,74.626,74.58,74.645,73.886z"/>
						</g>
						<g>
							<path class="st5" d="M75.44,85.573c0.506,3.081-1.907,5.577-4.936,5.631l0,0c-3.03,0.051-5.529-2.36-5.579-5.39L64.35,52.637
								c-0.055-3.029,2.358-5.529,5.388-5.58l0,0c3.03-0.054,5.531,2.36,5.126,5.337"/>
							<path class="st2" d="M64.627,69.612l2.267-21.701c-1.344,0.829-2.566,2.65-2.534,4.384l-0.156,19.272
								C64.457,70.964,64.609,70.307,64.627,69.612z"/>
						</g>
						<path class="st5" d="M65.039,83.056c0.052,3.03-2.36,5.528-5.39,5.58l0,0c-3.028,0.054-5.528-2.361-5.563-4.066l-0.661-49.91
							c-0.07-4.353,2.343-6.854,5.374-6.905l0,0c3.029-0.052,5.526,2.361,5.579,5.391L65.039,83.056z"/>
						<path class="st6" d="M62.566,34.952l-0.051-2.703c-0.035-1.918-1.733-3.445-3.793-3.411c-2.06,0.032-3.701,1.614-3.665,3.534
							l0.049,2.701c0,0,1.067,0.633,3.545,0.57C61.728,35.564,61.806,35.296,62.566,34.952z"/>
						<g>
							<path class="st6" d="M63.401,58.068c0.005,0.22-0.168,0.397-0.388,0.403l-6.902,0.119c-0.22,0.003-0.401-0.17-0.403-0.39l0,0
								c-0.003-0.219,0.17-0.399,0.389-0.402L63,57.68C63.218,57.676,63.399,57.849,63.401,58.068L63.401,58.068z"/>
							<path class="st6" d="M61.645,60.059c0.002,0.193-0.149,0.352-0.344,0.355l-3.413,0.059c-0.193,0.004-0.353-0.151-0.356-0.342
								l0,0c-0.004-0.196,0.152-0.353,0.343-0.359l3.412-0.06C61.483,59.71,61.643,59.864,61.645,60.059L61.645,60.059z"/>
						</g>
					</g>
				</g>
			</g>
			<path class="st2" d="M53.963,62.69l0.403,24.932l-1.736-9.92c0,0-0.705-3.354-0.138-5.749
				C52.931,70.102,53.963,62.69,53.963,62.69z"/>
			<path class="st6" d="M49.319,74.842c0.004,0.193-0.15,0.352-0.344,0.355l-1.769,0.06c-0.194,0.003-0.353-0.152-0.357-0.343l0,0
				c-0.004-0.195,0.152-0.353,0.344-0.359l1.77-0.059C49.157,74.493,49.318,74.647,49.319,74.842L49.319,74.842z"/>
			<path class="st6" d="M48.497,76.189c0.005,0.192-0.148,0.352-0.343,0.355l-0.948,0.059c-0.194,0.004-0.353-0.152-0.357-0.342l0,0
				c-0.004-0.196,0.152-0.353,0.344-0.358l0.948-0.062C48.335,75.841,48.496,75.995,48.497,76.189L48.497,76.189z"/>
			<g>
				<path class="st4" d="M62.667,75.585c0.35,1.229-0.228,2.473-1.451,2.916c-0.741,0.268-0.422,1.459,0.329,1.188
					c1.845-0.668,2.853-2.522,2.31-4.431C63.638,74.495,62.448,74.819,62.667,75.585L62.667,75.585z"/>
			</g>
			<g>
				<path class="st4" d="M73.446,73.929c0.737,2.07-0.168,4.105-2.175,4.982c-0.727,0.318-0.1,1.379,0.621,1.064
					c2.477-1.083,3.645-3.835,2.741-6.375C74.37,72.857,73.179,73.178,73.446,73.929L73.446,73.929z"/>
			</g>
			<g>
				<path class="st4" d="M83.046,75.286c0.414,1.496-0.319,2.993-1.802,3.515c-0.744,0.261-0.424,1.451,0.327,1.187
					c2.11-0.74,3.264-2.855,2.662-5.029C84.022,74.193,82.833,74.519,83.046,75.286L83.046,75.286z"/>
			</g>
			<g>
				<path class="st4" d="M92.708,75.675c0.367,1.086-0.047,2.276-1.147,2.735c-0.722,0.301-0.407,1.493,0.326,1.188
					c1.694-0.708,2.613-2.467,2.009-4.25C93.645,74.601,92.455,74.921,92.708,75.675L92.708,75.675z"/>
			</g>
		</g>
	</g>
</g>
</svg>
