<?xml version="1.0" encoding="utf-8"?>
<!-- Generator: Adobe Illustrator 16.0.0, SVG Export Plug-In . SVG Version: 6.00 Build 0)  -->
<!DOCTYPE svg PUBLIC "-//W3C//DTD SVG 1.1//EN" "http://www.w3.org/Graphics/SVG/1.1/DTD/svg11.dtd">
<svg version="1.1" id="Layer_1" xmlns="http://www.w3.org/2000/svg" xmlns:xlink="http://www.w3.org/1999/xlink" x="0px" y="0px"
	 width="136.833px" height="136.834px" viewBox="0 0 136.833 136.834" style="enable-background:new 0 0 136.833 136.834;"
	 xml:space="preserve">
<style type="text/css">
<![CDATA[
	.st0{fill:#B6E2EA;}
	.st1{fill:#88CED7;}
	.st2{fill:#EDAC80;}
	.st3{fill:#EFEFEF;}
	.st4{fill:#F5B88E;}
	.st5{fill:#FBC096;}
	.st6{fill:#FDD7B3;}
	.st7{fill:none;}
]]>
</style>
<g>
	<g>
		<circle class="st3" cx="68.416" cy="68.418" r="63.333"/>
	</g>
	<g>
		<circle class="st0" cx="73.006" cy="38.418" r="9.876"/>
		<circle class="st0" cx="56.645" cy="61.706" r="9.875"/>
		<g>
			<path class="st5" d="M53.596,59.419l-3.237,8.054c0,0-0.853,2.882-1.351,7.383c-0.731,6.619-0.089,10.239,1.222,14.382
				c3.545,11.198,6.927,15.948,6.927,15.948l13.386-27.715l-2.766-5.33c0,0-0.311,3.431-2.241,4.422
				c-2.808,1.44-3.948,0.951-3.948,0.951s-2.054-1.021-3.111-4.604c-0.228-0.77-0.365-2.012-0.121-2.731
				c0.521-1.531,0.799-2.868,1.098-4.378c1.488-7.518-4.538-9.068-4.538-9.068L53.596,59.419z"/>
			<path class="st6" d="M53.14,60.379l1.419-3.755c0,0,1.696,0.271,0.994,1.964C55.093,59.699,54.703,60.588,53.14,60.379z"/>
			<g>
				<g>
					<g>
						<g>
							<path class="st5" d="M99.487,90.581c-0.707,3.729-6.801,11.693-9.7,10.96l0.817-3.292c-2.898-0.732-1.203-2.293-0.604-4.66
								l2.094-19.152c0.599-2.369,2.688-3.489,5.586-2.754l0,0c2.897,0.73,2.105,5.492,2.15,8.85L99.487,90.581z"/>
							<path class="st2" d="M94.151,85.657l1.357-5.08l0.557-9.117c-0.766,0.008-0.88-0.107-3.096,0.965l-2.873,17.163
								C90.466,89.18,93.982,86.191,94.151,85.657z"/>
						</g>
						<path class="st5" d="M62.005,82.602l-3.844,9.027c-5.374,4.062-3.209,16.825,7.256,20.497
							c10.631,3.73,21.065-4.443,29.814-14.1c0,0,1.605-1.555,2.195-3.113c1.965-5.184,1.837-6.642,1.837-6.642L62.005,82.602z"/>
						<g>
							<path class="st5" d="M96.116,90.324c-0.599,2.366-9.742,11.622-12.641,10.889l0,0c-2.898-0.73-4.762-3.245-4.16-5.614
								l4.615-26.478c0.601-2.368,2.66-4.49,6.405-3.032l0,0c2.898,0.729,4.956,4.874,4.751,7.693L96.116,90.324z"/>
							<path class="st2" d="M84.948,81.315l1.846-5.713l1.902-9.949c-1.576-0.204-2.814-0.293-3.156,1.059l-3.86,17.626
								C82.05,83.932,84.782,81.851,84.948,81.315z"/>
						</g>
						<g>
							<path class="st5" d="M86.464,86.148c-0.177,2.524-8.723,9.917-11.621,9.185l0,0c-2.896-0.735-4.763-3.248-4.161-5.616
								l6.562-25.942c0.596-2.37,3.433-3.697,6.33-2.962l0,0c2.898,0.732,3.834,2.438,3.742,5.46"/>
							<path class="st2" d="M80.944,77.02l0.105-4.588l0.615-11.812c-2.846,0.253-3.862,1.127-5.379,1.665l-3.238,16.169
								C73.417,78.05,80.778,77.556,80.944,77.02z"/>
						</g>
						<path class="st5" d="M72.281,91.975c0.052,2.989,0.269,5.354-2.722,5.403l0,0c-2.988,0.054-18.057,11.765-7.502-11.674
							l4.387-8.768c0,0,1.504-4.86,2.06-8.166c0.226-1.346,1.309-20.034,1.309-20.034c-0.872-4.532-0.757-14.507,2.525-14.536
							l0.597-0.023c2.083-0.148,3.533,0.849,4.057,4.146l2.376,21.043c0,0,1.933,13.346,1.872,15.854
							c-0.08,3.403-1.47,12.838-1.47,12.838L72.281,91.975z"/>
						<path class="st6" d="M76.653,37.676l-0.35-1.273c-0.04-0.81-1.428-1.853-2.896-1.816c-1.473,0.039-1.848,1.254-1.809,2.063
							l0.199,1.285c0,0-0.058,0.177,1.711,0.123C75.705,37.989,76.192,38.11,76.653,37.676z"/>
						<g>
							<path class="st6" d="M77.66,55.667c0.012,0.188-0.078,0.343-0.2,0.353l-3.83,0.218c-0.121,0.008-0.229-0.137-0.238-0.325l0,0
								c-0.012-0.188,0.078-0.344,0.199-0.352l3.831-0.218C77.542,55.334,77.649,55.479,77.66,55.667L77.66,55.667z"/>
							<path class="st6" d="M77.423,57.601c0.011,0.165-0.067,0.305-0.176,0.311l-1.893,0.109c-0.107,0.006-0.203-0.125-0.212-0.287
								l0,0c-0.009-0.168,0.071-0.305,0.177-0.313l1.893-0.11C77.321,57.305,77.415,57.435,77.423,57.601L77.423,57.601z"/>
						</g>
					</g>
				</g>
			</g>
			<path class="st6" d="M52.281,68.54c-0.04,0.156-0.197,0.249-0.354,0.209l-1.426-0.348c-0.157-0.04-0.25-0.2-0.211-0.353l0,0
				c0.041-0.158,0.201-0.249,0.355-0.21l1.428,0.345C52.229,68.225,52.324,68.385,52.281,68.54L52.281,68.54z"/>
			<path class="st6" d="M51.323,69.435c-0.039,0.156-0.197,0.249-0.354,0.206l-0.771-0.164c-0.155-0.04-0.249-0.2-0.209-0.353l0,0
				c0.04-0.158,0.2-0.249,0.354-0.21l0.772,0.163C51.272,69.121,51.366,69.279,51.323,69.435L51.323,69.435z"/>
			<g>
				<path class="st4" d="M82.648,84.879c0.185,0.756-0.524,1.321-1.756,1.306c-0.747-0.01-0.587,0.72,0.17,0.729
					c1.858,0.023,3.058-0.788,2.771-1.961C83.718,84.482,82.532,84.409,82.648,84.879L82.648,84.879z"/>
			</g>
			<g>
				<path class="st4" d="M91.083,86.474c0.152,1.375-1.148,2.037-3.152,1.64c-0.725-0.145-0.424,0.665,0.294,0.808
					c2.474,0.492,4.184-0.426,3.997-2.111C92.167,86.316,91.026,85.977,91.083,86.474L91.083,86.474z"/>
			</g>
			<g>
				<path class="st4" d="M96.93,88.831c0.214,0.918-0.677,1.594-2.169,1.564c-0.749-0.016-0.588,0.714,0.169,0.729
					c2.124,0.04,3.497-0.888,3.185-2.22C98.005,88.436,96.819,88.361,96.93,88.831L96.93,88.831z"/>
			</g>
			<g>
				<path class="st4" d="M75.589,81.287c0.214,0.918-0.676,1.591-2.169,1.563c-0.749-0.016-0.587,0.714,0.169,0.729
					c2.125,0.04,3.496-0.888,3.184-2.22C76.663,80.891,75.479,80.816,75.589,81.287L75.589,81.287z"/>
			</g>
		</g>
		<path class="st0" d="M57.405,35.481c-1.764-2.615-4.609-4.013-7.658-4.044c0.213-0.214,0.427-0.426,0.641-0.641
			c1.759-1.761-0.969-4.487-2.727-2.727c-1.369,1.365-2.734,2.732-4.102,4.101c-0.742,0.742-0.742,1.984,0,2.729
			c1.363,1.361,2.728,2.726,4.092,4.089c1.76,1.759,4.486-0.967,2.727-2.728c-0.289-0.289-0.579-0.578-0.869-0.867
			c3.986-0.112,6.906,4.16,4.762,7.824c-2.421,4.135-8.092,2.77-9.526-1.339c-0.839-2.406-4.431-0.744-3.597,1.646
			c2.491,7.14,12.155,8.2,16.33,2.006C59.484,42.555,59.393,38.432,57.405,35.481z"/>
	</g>
</g>
</svg>
