<?xml version="1.0" encoding="utf-8"?>
<!-- Generator: Adobe Illustrator 16.0.0, SVG Export Plug-In . SVG Version: 6.00 Build 0)  -->
<!DOCTYPE svg PUBLIC "-//W3C//DTD SVG 1.1//EN" "http://www.w3.org/Graphics/SVG/1.1/DTD/svg11.dtd">
<svg version="1.1" id="Layer_1" xmlns="http://www.w3.org/2000/svg" xmlns:xlink="http://www.w3.org/1999/xlink" x="0px" y="0px"
	 width="136.833px" height="136.834px" viewBox="0 0 136.833 136.834" style="enable-background:new 0 0 136.833 136.834;"
	 xml:space="preserve">
<style type="text/css">
<![CDATA[
	.st0{fill:#B6E2EA;}
	.st1{fill:#88CED7;}
	.st2{fill:#EDAC80;}
	.st3{fill:#EFEFEF;}
	.st4{fill:#F5B88E;}
	.st5{fill:#FBC096;}
	.st6{fill:#FDD7B3;}
	.st7{fill:none;}
]]>
</style>
<g>
	<g>
		<circle class="st3" cx="68.417" cy="68.418" r="63.333"/>
	</g>
	<g>
		<circle class="st0" cx="61.921" cy="40.863" r="9.578"/>
		<g>
			<path class="st5" d="M54.012,70.318l-3.624,10.117c0,0-1.041,1.436-0.25,5.758c1.248,6.819,1.719,9.691,3.529,12.683
				c4.569,7.545,9.768,13.14,9.768,13.14l-1.504-22.482c0,0-3.344-9.656-2.452-12.515c2.165-6.938-4.755-8.294-4.755-8.294
				L54.012,70.318z"/>
			<path class="st6" d="M52.119,75.55l2.176-6.685c0,0,1.55,0.974,1.675,2.114C56.107,72.239,53.978,75.53,52.119,75.55z"/>
			<g>
				<g>
					<g>
						<g>
							<path class="st5" d="M98.705,83.968c0.052,3.029-2.07,12.649-5.102,12.703l0,0c-3.028,0.052-5.525-2.362-5.578-5.39
								L87.45,67.957c-0.054-3.03,1.331-5.436,4.36-5.487l0,0c3.028-0.052,4.175,1.65,4.79,5.392L98.705,83.968z"/>
							<path class="st2" d="M88.698,83.3l0.731-20.17c-1.47,1.035-2.011,2.584-1.979,4.313l-0.144,18.932
								C87.557,85.771,88.678,83.996,88.698,83.3z"/>
						</g>
						<path class="st5" d="M57.145,82.873v11.962c0.402,14.253,9.559,23.692,20.974,23.493
							c11.417-0.196,20.855-11.225,20.855-26.471l-0.281-8.259L57.145,82.873z"/>
						<g>
							<path class="st5" d="M89.093,96.932c0.055,3.026-2.36,5.524-5.389,5.578l0,0c-3.029,0.052-5.528-2.36-5.579-5.391
								l-0.578-33.177c-0.053-3.031,2.361-5.528,5.39-5.581l0,0c3.028-0.054,5.527,2.361,5.579,5.39L89.093,96.932z"/>
							<path class="st2" d="M77.826,80.916l2.101-21.59c-1.235,1.025-2.411,2.542-2.38,4.272l-0.142,19.274
								C77.656,82.268,77.808,81.612,77.826,80.916z"/>
						</g>
						<g>
							<path class="st5" d="M78.621,92.604c0.507,3.081-1.906,5.578-4.936,5.631l0,0c-3.03,0.052-5.529-2.36-5.579-5.39
								l-0.576-33.179c-0.055-3.029,2.358-5.528,5.388-5.58l0,0c3.03-0.052,5.531,2.36,5.126,5.339"/>
							<path class="st2" d="M67.809,76.644l2.268-21.702c-1.345,0.83-2.567,2.651-2.535,4.385L67.386,78.6
								C67.638,77.995,67.791,77.338,67.809,76.644z"/>
						</g>
						<path class="st5" d="M68.221,90.087c0.052,3.029-2.36,5.527-5.39,5.579l0,0c-3.028,0.055-5.528-2.36-5.563-4.066l-0.661-49.91
							c-0.07-4.353,2.343-6.853,5.374-6.904l0,0c3.029-0.052,5.526,2.36,5.579,5.391L68.221,90.087z"/>
						<path class="st6" d="M65.748,41.982l-0.051-2.701c-0.035-1.918-1.733-3.446-3.793-3.413c-2.061,0.033-3.701,1.614-3.666,3.534
							l0.05,2.701c0,0,1.066,0.635,3.545,0.569C64.909,42.596,64.987,42.327,65.748,41.982z"/>
						<g>
							<path class="st6" d="M66.583,65.099c0.005,0.221-0.169,0.399-0.389,0.403l-6.902,0.119c-0.22,0.004-0.401-0.169-0.403-0.389
								l0,0c-0.003-0.219,0.17-0.4,0.389-0.403l6.904-0.118C66.4,64.706,66.581,64.88,66.583,65.099L66.583,65.099z"/>
							<path class="st6" d="M64.826,67.089c0.003,0.192-0.149,0.352-0.344,0.355l-3.412,0.06c-0.193,0.004-0.353-0.153-0.356-0.343
								l0,0c-0.004-0.195,0.152-0.353,0.343-0.357l3.412-0.062C64.665,66.74,64.824,66.895,64.826,67.089L64.826,67.089z"/>
						</g>
					</g>
				</g>
			</g>
			<path class="st2" d="M57.145,69.722l0.402,24.931l-1.736-9.919c0,0-0.705-3.354-0.138-5.749
				C56.112,77.133,57.145,69.722,57.145,69.722z"/>
			<path class="st6" d="M52.5,81.873c0.005,0.193-0.149,0.351-0.344,0.354l-1.769,0.06c-0.194,0.004-0.353-0.151-0.357-0.343l0,0
				c-0.004-0.195,0.152-0.353,0.344-0.358l1.77-0.06C52.339,81.523,52.5,81.678,52.5,81.873L52.5,81.873z"/>
			<path class="st6" d="M51.679,83.22c0.005,0.192-0.148,0.351-0.343,0.355l-0.948,0.06c-0.194,0.004-0.353-0.152-0.357-0.342l0,0
				c-0.004-0.195,0.152-0.354,0.344-0.358l0.948-0.062C51.517,82.873,51.677,83.025,51.679,83.22L51.679,83.22z"/>
			<g>
				<path class="st4" d="M65.848,82.616c0.35,1.229-0.228,2.473-1.45,2.915c-0.74,0.268-0.422,1.46,0.329,1.188
					c1.845-0.668,2.853-2.523,2.31-4.431C66.819,81.525,65.63,81.851,65.848,82.616L65.848,82.616z"/>
			</g>
			<g>
				<path class="st4" d="M76.627,80.959c0.737,2.07-0.168,4.106-2.175,4.984c-0.727,0.316-0.1,1.379,0.621,1.063
					c2.477-1.082,3.645-3.833,2.742-6.374C77.551,79.889,76.36,80.209,76.627,80.959L76.627,80.959z"/>
			</g>
			<g>
				<path class="st4" d="M86.228,82.317c0.415,1.495-0.318,2.992-1.801,3.514c-0.744,0.263-0.424,1.451,0.327,1.188
					c2.11-0.742,3.264-2.857,2.662-5.031C87.204,81.224,86.015,81.55,86.228,82.317L86.228,82.317z"/>
			</g>
			<g>
				<path class="st4" d="M95.89,82.708c0.367,1.085-0.047,2.273-1.147,2.732c-0.722,0.302-0.406,1.495,0.327,1.188
					c1.694-0.708,2.613-2.467,2.009-4.25C96.826,81.63,95.636,81.951,95.89,82.708L95.89,82.708z"/>
			</g>
		</g>
		<g>
			<path class="st0" d="M31.215,49.112c2.143,2.143,4.286,4.286,6.429,6.43c1.165,1.165,3.112,1.165,4.277,0
				c2.138-2.138,4.277-4.277,6.415-6.417c2.76-2.76-1.516-7.035-4.277-4.275c-2.138,2.139-4.276,4.277-6.415,6.416
				c1.425,0,2.851,0,4.277,0c-2.144-2.144-4.286-4.288-6.43-6.431C32.732,42.075,28.456,46.353,31.215,49.112L31.215,49.112z"/>
		</g>
		<g>
			<path class="st0" d="M31.215,32.746c2.144-2.143,4.287-4.286,6.43-6.43c1.165-1.165,3.112-1.165,4.277,0
				c2.138,2.138,4.277,4.278,6.415,6.416c2.76,2.759-1.516,7.035-4.277,4.275c-2.138-2.138-4.276-4.277-6.415-6.414
				c1.425,0,2.851,0,4.277,0c-2.144,2.143-4.286,4.285-6.43,6.428C32.732,39.781,28.455,35.506,31.215,32.746L31.215,32.746z"/>
		</g>
	</g>
</g>
</svg>
