<?xml version="1.0" encoding="utf-8"?>
<!-- Generator: Adobe Illustrator 16.0.0, SVG Export Plug-In . SVG Version: 6.00 Build 0)  -->
<!DOCTYPE svg PUBLIC "-//W3C//DTD SVG 1.1//EN" "http://www.w3.org/Graphics/SVG/1.1/DTD/svg11.dtd">
<svg version="1.1" id="Layer_1" xmlns="http://www.w3.org/2000/svg" xmlns:xlink="http://www.w3.org/1999/xlink" x="0px" y="0px"
	 width="136.833px" height="136.833px" viewBox="0 0 136.833 136.833" style="enable-background:new 0 0 136.833 136.833;"
	 xml:space="preserve">
<style type="text/css">
<![CDATA[
	.st0{fill:#B6E2EA;}
	.st1{fill:#88CED7;}
	.st2{fill:#EDAC80;}
	.st3{fill:#EFEFEF;}
	.st4{fill:#F5B88E;}
	.st5{fill:#FBC096;}
	.st6{fill:#FDD7B3;}
	.st7{fill:none;}
]]>
</style>
<g>
	<g>
		<circle class="st3" cx="68.417" cy="68.418" r="63.333"/>
	</g>
	<g>
		<g>
			<circle class="st0" cx="58.842" cy="39.601" r="9.577"/>
			<circle class="st0" cx="75.877" cy="35.289" r="9.578"/>
			<g>
				<path class="st5" d="M52.94,70.612l-3.625,10.115c0,0-1.041,1.435-0.249,5.761c1.248,6.816,1.72,9.689,3.53,12.681
					c4.568,7.545,9.768,13.14,9.768,13.14L60.86,89.825c0,0-3.344-9.655-2.452-12.513c2.165-6.941-4.755-8.295-4.755-8.295
					L52.94,70.612z"/>
				<path class="st6" d="M51.047,75.842l2.177-6.685c0,0,1.549,0.974,1.674,2.115C55.036,72.531,52.906,75.823,51.047,75.842z"/>
				<g>
					<g>
						<g>
							<g>
								<path class="st5" d="M97.633,84.26c0.052,3.028-2.069,12.65-5.101,12.702l0,0c-3.028,0.052-5.525-2.36-5.579-5.389
									L86.378,68.25c-0.053-3.03,1.331-5.436,4.361-5.487l0,0c3.027-0.052,4.174,1.65,4.79,5.393L97.633,84.26z"/>
								<path class="st2" d="M87.74,81.001l1.613-18.018c-1.958,0.418-3.005,3.022-2.976,4.752l-0.143,18.932
									C86.485,86.064,87.718,81.697,87.74,81.001z"/>
							</g>
							<path class="st5" d="M56.073,83.165v11.964c0.402,14.252,9.559,23.691,20.975,23.492
								c11.416-0.196,20.854-11.225,20.854-26.472l-0.281-8.257L56.073,83.165z"/>
							<g>
								<path class="st5" d="M88.021,97.225c0.055,3.025-2.358,5.523-5.39,5.577l0,0c-3.029,0.054-5.527-2.36-5.578-5.391
									l-0.577-33.176c-0.052-3.032,2.36-5.529,5.39-5.582l0,0c3.029-0.054,5.527,2.361,5.579,5.391L88.021,97.225z"/>
								<path class="st2" d="M77.834,75.31l2.491-16.226c-1.996,0-3.881,3.076-3.85,4.808v13.531
									C76.728,76.818,77.816,76.006,77.834,75.31z"/>
							</g>
							<g>
								<path class="st5" d="M77.393,81.417c0.145,3.359-3.467,6.195-6.483,5.917l0,0c-3.017-0.279-5.221-3.14-4.918-6.394
									l3.789-44.898c0.297-3.253,2.987-5.664,6.005-5.385l0,0c3.017,0.278,4.929,3.153,4.864,5.701l-3.271,45.254"/>
								<path class="st2" d="M66.412,77.423l2.37-19.296c0.272-13.693,0.789-19.458,0.619-17.597l-3.967,43.398
									C65.757,83.31,66.313,78.166,66.412,77.423z"/>
							</g>
							<path class="st5" d="M67.821,83.929c0.15,3.027-2.829,11.849-5.856,11.999l0,0c-3.024,0.152-6.097-13.731-6.187-15.435
								l-1.77-38.313c-0.21-4.348,2.12-6.926,5.148-7.074l0,0c3.025-0.148,5.6,2.183,5.748,5.207L67.821,83.929z"/>
							<path class="st6" d="M63.155,42.18l-0.138-2.7c-0.098-1.915-1.845-3.389-3.901-3.289c-2.058,0.099-3.646,1.732-3.549,3.649
								l0.136,2.698c0,0,1.087,0.6,3.562,0.457C62.337,42.818,62.405,42.546,63.155,42.18z"/>
							<path class="st6" d="M78.935,38.363l0.242-2.692c0.175-1.911-1.348-3.614-3.397-3.803c-2.052-0.193-3.854,1.201-4.028,3.112
								l-0.246,2.69c0,0,0.992,0.747,3.463,0.953C78.034,38.882,78.14,38.622,78.935,38.363z"/>
							<g>
								<path class="st6" d="M64.644,62.463c0.01,0.22-0.156,0.403-0.377,0.416l-6.895,0.342c-0.219,0.01-0.406-0.158-0.414-0.378
									l0,0c-0.012-0.216,0.156-0.403,0.375-0.415l6.896-0.339C64.448,62.078,64.634,62.246,64.644,62.463L64.644,62.463z"/>
								<path class="st6" d="M62.951,64.509c0.009,0.193-0.138,0.357-0.332,0.368l-3.409,0.168c-0.193,0.01-0.357-0.141-0.367-0.332
									l0,0c-0.01-0.196,0.142-0.358,0.332-0.37l3.408-0.17C62.778,64.167,62.942,64.315,62.951,64.509L62.951,64.509z"/>
							</g>
							<g>
								<path class="st6" d="M77.866,57.549c-0.023,0.22-0.218,0.376-0.437,0.353l-6.864-0.742
									c-0.219-0.021-0.376-0.216-0.351-0.437l0,0c0.023-0.218,0.219-0.374,0.435-0.349l6.866,0.74
									C77.733,57.138,77.891,57.333,77.866,57.549L77.866,57.549z"/>
								<path class="st6" d="M75.874,59.306c-0.021,0.192-0.191,0.33-0.386,0.311l-3.393-0.366
									c-0.192-0.021-0.331-0.195-0.311-0.384l0,0c0.021-0.195,0.194-0.332,0.386-0.314l3.393,0.366
									C75.757,58.94,75.896,59.115,75.874,59.306L75.874,59.306z"/>
							</g>
						</g>
					</g>
				</g>
				<path class="st2" d="M55.272,70.013l0.29,11.806l1.755,13.126l-2.578-9.919c0,0-0.926-2.768-0.358-5.163
					C54.819,78.011,55.272,70.013,55.272,70.013z"/>
				<path class="st6" d="M51.429,82.164c0.005,0.195-0.148,0.354-0.344,0.357l-1.77,0.058c-0.193,0.004-0.352-0.15-0.356-0.341l0,0
					c-0.004-0.195,0.151-0.354,0.343-0.359l1.771-0.06C51.267,81.817,51.427,81.971,51.429,82.164L51.429,82.164z"/>
				<path class="st6" d="M50.607,83.512c0.005,0.192-0.149,0.353-0.343,0.356l-0.949,0.059c-0.193,0.004-0.352-0.152-0.356-0.342
					l0,0c-0.004-0.197,0.151-0.353,0.343-0.358l0.949-0.063C50.446,83.165,50.605,83.319,50.607,83.512L50.607,83.512z"/>
				<g>
					<path class="st4" d="M64.912,81.473c0.349,1.23-0.228,2.475-1.45,2.919c-0.741,0.268-0.422,1.457,0.328,1.186
						c1.845-0.667,2.854-2.521,2.31-4.43C65.883,80.386,64.693,80.708,64.912,81.473L64.912,81.473z"/>
				</g>
				<g>
					<path class="st4" d="M75.049,79.3c0.399,2.16-0.813,4.026-2.933,4.578c-0.768,0.199-0.315,1.345,0.445,1.147
						c2.617-0.679,4.203-3.213,3.711-5.862C76.13,78.388,74.902,78.517,75.049,79.3L75.049,79.3z"/>
				</g>
				<g>
					<path class="st4" d="M84.614,81.213c0.307,1.523-0.531,2.964-2.047,3.379c-0.762,0.208-0.527,1.417,0.242,1.207
						c2.156-0.588,3.458-2.619,3.012-4.827C85.665,80.193,84.456,80.434,84.614,81.213L84.614,81.213z"/>
				</g>
				<g>
					<path class="st4" d="M95.071,83.034c0.191,1.13-0.406,2.239-1.564,2.519c-0.761,0.186-0.637,1.412,0.135,1.225
						c1.785-0.432,2.969-2.024,2.654-3.88C96.165,82.118,94.938,82.247,95.071,83.034L95.071,83.034z"/>
				</g>
			</g>
		</g>
		<g>
			<path class="st0" d="M34.386,42.044c1.371,1.371,2.742,2.743,4.113,4.114c0.746,0.744,1.99,0.744,2.736,0
				c1.368-1.367,2.736-2.737,4.104-4.106c1.767-1.765-0.969-4.499-2.735-2.734c-1.368,1.367-2.736,2.736-4.104,4.104
				c0.912,0,1.824,0,2.736,0c-1.371-1.371-2.742-2.742-4.113-4.113C35.356,37.543,32.62,40.278,34.386,42.044L34.386,42.044z"/>
		</g>
		<g>
			<path class="st0" d="M34.386,31.573c1.371-1.372,2.742-2.743,4.113-4.112c0.746-0.744,1.99-0.744,2.736,0
				c1.368,1.367,2.736,2.736,4.104,4.104c1.767,1.765-0.969,4.501-2.735,2.736c-1.368-1.369-2.736-2.738-4.104-4.106
				c0.912,0,1.824,0,2.736,0c-1.371,1.372-2.742,2.743-4.113,4.114C35.356,36.076,32.62,33.339,34.386,31.573L34.386,31.573z"/>
		</g>
	</g>
</g>
</svg>
