<?xml version="1.0" encoding="utf-8"?>
<!-- Generator: Adobe Illustrator 16.0.0, SVG Export Plug-In . SVG Version: 6.00 Build 0)  -->
<!DOCTYPE svg PUBLIC "-//W3C//DTD SVG 1.1//EN" "http://www.w3.org/Graphics/SVG/1.1/DTD/svg11.dtd">
<svg version="1.1" id="Layer_1" xmlns="http://www.w3.org/2000/svg" xmlns:xlink="http://www.w3.org/1999/xlink" x="0px" y="0px"
	 width="136.833px" height="136.833px" viewBox="0 0 136.833 136.833" style="enable-background:new 0 0 136.833 136.833;"
	 xml:space="preserve">
<style type="text/css">
<![CDATA[
	.st0{fill:#B6E2EA;}
	.st1{fill:#88CED7;}
	.st2{fill:#EDAC80;}
	.st3{fill:#EFEFEF;}
	.st4{fill:#F5B88E;}
	.st5{fill:#FBC096;}
	.st6{fill:#FDD7B3;}
	.st7{fill:none;}
]]>
</style>
<g>
	<g>
		<circle class="st3" cx="68.417" cy="68.418" r="63.333"/>
	</g>
	<g>
		<g>
			<circle class="st0" cx="57.456" cy="39.263" r="9.578"/>
			<circle class="st0" cx="74.491" cy="34.95" r="9.578"/>
			<g>
				<path class="st5" d="M51.554,70.271L47.93,80.388c0,0-1.041,1.436-0.249,5.76c1.247,6.816,1.719,9.691,3.529,12.68
					c4.568,7.547,9.768,13.143,9.768,13.143l-1.504-22.484c0,0-3.344-9.654-2.451-12.514c2.164-6.939-4.756-8.294-4.756-8.294
					L51.554,70.271z"/>
				<path class="st6" d="M49.661,75.503l2.176-6.685c0,0,1.55,0.974,1.676,2.117C53.649,72.191,51.52,75.484,49.661,75.503z"/>
				<g>
					<g>
						<g>
							<g>
								<path class="st5" d="M96.247,83.921c0.052,3.027-2.07,12.648-5.102,12.703l0,0c-3.027,0.051-5.525-2.361-5.579-5.391
									L84.991,67.91c-0.053-3.029,1.332-5.437,4.361-5.486l0,0c3.028-0.053,4.175,1.65,4.79,5.392L96.247,83.921z"/>
								<path class="st2" d="M86.354,80.662l1.613-18.016c-1.958,0.418-3.005,3.021-2.976,4.752L84.849,86.33
									C85.099,85.724,86.333,81.359,86.354,80.662z"/>
							</g>
							<path class="st5" d="M54.687,82.826v11.963c0.402,14.254,9.559,23.689,20.975,23.494
								c11.417-0.197,20.854-11.225,20.854-26.471l-0.28-8.26L54.687,82.826z"/>
							<g>
								<path class="st5" d="M86.636,96.886c0.055,3.025-2.359,5.523-5.39,5.576l0,0c-3.03,0.055-5.528-2.359-5.579-5.389
									L75.09,63.895c-0.052-3.029,2.36-5.527,5.39-5.579l0,0c3.029-0.054,5.527,2.36,5.579,5.389L86.636,96.886z"/>
								<path class="st2" d="M76.447,74.97l2.491-16.225c-1.996,0-3.881,3.076-3.85,4.809l0.001,13.532
									C75.341,76.48,76.431,75.667,76.447,74.97z"/>
							</g>
							<g>
								<path class="st5" d="M76.007,81.08c0.145,3.357-3.468,6.193-6.485,5.914l0,0c-3.016-0.279-5.22-3.139-4.916-6.391
									l3.788-44.899c0.298-3.254,2.988-5.664,6.006-5.385l0,0c3.016,0.278,4.928,3.151,4.863,5.699l-3.271,45.254"/>
								<path class="st2" d="M65.026,77.085l2.369-19.296c0.272-13.693,0.789-19.458,0.619-17.597l-3.966,43.397
									C64.369,82.97,64.927,77.826,65.026,77.085z"/>
							</g>
							<path class="st5" d="M66.436,83.589c0.15,3.029-2.829,11.85-5.856,12l0,0c-3.024,0.15-6.098-13.73-6.188-15.434l-1.77-38.315
								c-0.21-4.349,2.121-6.926,5.148-7.076l0,0c3.025-0.146,5.6,2.186,5.75,5.21L66.436,83.589z"/>
							<path class="st6" d="M61.769,41.841l-0.138-2.702c-0.098-1.915-1.845-3.387-3.9-3.288c-2.058,0.101-3.647,1.734-3.55,3.651
								l0.137,2.698c0,0,1.086,0.6,3.561,0.457C60.95,42.479,61.02,42.208,61.769,41.841z"/>
							<path class="st6" d="M77.548,38.024l0.243-2.692c0.174-1.911-1.349-3.614-3.397-3.805c-2.053-0.191-3.855,1.203-4.029,3.114
								l-0.246,2.69c0,0,0.992,0.746,3.463,0.953C76.647,38.541,76.754,38.283,77.548,38.024z"/>
							<g>
								<path class="st6" d="M63.257,62.124c0.012,0.221-0.156,0.403-0.377,0.417l-6.894,0.342c-0.22,0.008-0.406-0.158-0.415-0.379
									l0,0c-0.011-0.218,0.157-0.402,0.376-0.414l6.896-0.34C63.062,61.736,63.247,61.906,63.257,62.124L63.257,62.124z"/>
								<path class="st6" d="M61.565,64.171c0.008,0.192-0.138,0.354-0.332,0.366l-3.408,0.17c-0.195,0.01-0.358-0.141-0.369-0.332
									l0,0c-0.008-0.196,0.143-0.358,0.332-0.37l3.408-0.17C61.393,63.827,61.557,63.976,61.565,64.171L61.565,64.171z"/>
							</g>
							<g>
								<path class="st6" d="M76.479,57.21c-0.023,0.219-0.218,0.376-0.437,0.354l-6.862-0.743
									c-0.219-0.022-0.377-0.218-0.352-0.436l0,0c0.023-0.218,0.219-0.374,0.436-0.349l6.865,0.74
									C76.347,56.8,76.504,56.994,76.479,57.21L76.479,57.21z"/>
								<path class="st6" d="M74.487,58.967c-0.02,0.193-0.19,0.33-0.385,0.311l-3.393-0.366c-0.193-0.021-0.332-0.194-0.312-0.384
									l0,0c0.022-0.194,0.196-0.331,0.386-0.314l3.393,0.367C74.371,58.601,74.51,58.774,74.487,58.967L74.487,58.967z"/>
							</g>
						</g>
					</g>
				</g>
				<path class="st2" d="M53.886,69.675l0.291,11.805l1.754,13.127l-2.578-9.92c0,0-0.925-2.77-0.358-5.164
					C53.433,77.671,53.886,69.675,53.886,69.675z"/>
				<path class="st6" d="M50.042,81.828c0.006,0.193-0.148,0.352-0.344,0.354L47.93,82.24c-0.194,0.004-0.353-0.15-0.358-0.342l0,0
					c-0.002-0.193,0.153-0.352,0.346-0.357l1.77-0.061C49.88,81.478,50.041,81.63,50.042,81.828L50.042,81.828z"/>
				<path class="st6" d="M49.221,83.173c0.005,0.193-0.148,0.354-0.343,0.357l-0.948,0.057c-0.194,0.004-0.353-0.152-0.358-0.34l0,0
					c-0.002-0.197,0.153-0.354,0.346-0.359l0.947-0.063C49.06,82.824,49.22,82.98,49.221,83.173L49.221,83.173z"/>
				<g>
					<path class="st4" d="M63.526,81.134c0.348,1.23-0.229,2.475-1.451,2.916c-0.741,0.27-0.422,1.461,0.328,1.189
						c1.846-0.668,2.854-2.521,2.31-4.432C64.496,80.046,63.308,80.369,63.526,81.134L63.526,81.134z"/>
				</g>
				<g>
					<path class="st4" d="M73.663,78.96c0.398,2.16-0.813,4.027-2.934,4.58c-0.768,0.197-0.315,1.344,0.445,1.146
						c2.617-0.678,4.203-3.213,3.711-5.863C74.743,78.048,73.516,78.179,73.663,78.96L73.663,78.96z"/>
				</g>
				<g>
					<path class="st4" d="M83.228,80.875c0.307,1.521-0.531,2.963-2.047,3.377c-0.762,0.209-0.527,1.42,0.242,1.209
						c2.157-0.59,3.458-2.619,3.012-4.828C84.278,79.855,83.069,80.095,83.228,80.875L83.228,80.875z"/>
				</g>
				<g>
					<path class="st4" d="M93.685,82.695c0.191,1.131-0.406,2.238-1.564,2.518c-0.761,0.186-0.636,1.412,0.135,1.227
						c1.785-0.432,2.969-2.025,2.654-3.881C94.779,81.779,93.552,81.908,93.685,82.695L93.685,82.695z"/>
				</g>
			</g>
		</g>
		<g>
			<path class="st0" d="M40.345,30.306c-1.646,1.647-3.293,3.292-4.938,4.939c-0.896,0.894-0.896,2.388,0,3.282
				c1.642,1.644,3.285,3.287,4.927,4.926c2.12,2.122,5.402-1.163,3.283-3.282c-1.642-1.644-3.284-3.284-4.927-4.926
				c0,1.094,0,2.188,0,3.282c1.646-1.645,3.293-3.292,4.938-4.935C45.748,31.471,42.464,28.188,40.345,30.306L40.345,30.306z"/>
		</g>
		<g>
			<path class="st0" d="M92.466,30.306c1.645,1.647,3.291,3.292,4.937,4.939c0.896,0.894,0.896,2.388,0,3.282
				c-1.642,1.644-3.284,3.287-4.927,4.926c-2.119,2.122-5.402-1.163-3.283-3.282c1.641-1.644,3.284-3.284,4.926-4.926
				c0,1.094,0,2.188,0,3.282c-1.646-1.645-3.291-3.292-4.938-4.935C87.062,31.471,90.346,28.188,92.466,30.306L92.466,30.306z"/>
		</g>
	</g>
</g>
</svg>
