<?xml version="1.0" encoding="utf-8"?>
<!-- Generator: Adobe Illustrator 16.0.0, SVG Export Plug-In . SVG Version: 6.00 Build 0)  -->
<!DOCTYPE svg PUBLIC "-//W3C//DTD SVG 1.1//EN" "http://www.w3.org/Graphics/SVG/1.1/DTD/svg11.dtd">
<svg version="1.1" id="Layer_1" xmlns="http://www.w3.org/2000/svg" xmlns:xlink="http://www.w3.org/1999/xlink" x="0px" y="0px"
	 width="136.833px" height="136.834px" viewBox="0 0 136.833 136.834" style="enable-background:new 0 0 136.833 136.834;"
	 xml:space="preserve">
<style type="text/css">
<![CDATA[
	.st0{fill:#B6E2EA;}
	.st1{fill:#88CED7;}
	.st2{fill:#EDAC80;}
	.st3{fill:#EFEFEF;}
	.st4{fill:#F5B88E;}
	.st5{fill:#FBC096;}
	.st6{fill:#FDD7B3;}
	.st7{fill:none;}
]]>
</style>
<g>
	<g>
		<circle class="st3" cx="68.417" cy="68.418" r="63.333"/>
	</g>
	<g>
		<g>
			<path class="st1" d="M57.877,50.486c-8.459,0-15.342-6.882-15.342-15.342c0-8.459,6.882-15.341,15.342-15.341
				s15.341,6.882,15.341,15.341C73.219,43.604,66.337,50.486,57.877,50.486z M57.877,24.783c-5.714,0-10.363,4.647-10.363,10.361
				c0,5.715,4.648,10.362,10.363,10.362c5.713,0,10.362-4.647,10.362-10.362C68.239,29.431,63.591,24.783,57.877,24.783z"/>
		</g>
		<g>
			<circle class="st0" cx="57.877" cy="35.146" r="8.227"/>
		</g>
		<g>
			<g>
				<path class="st5" d="M50.146,65.838l-3.623,10.117c0,0-1.042,1.435-0.25,5.759c1.248,6.817,1.72,9.691,3.53,12.682
					c4.568,7.545,9.768,13.14,9.768,13.14l-1.503-22.482c0,0-3.345-9.655-2.453-12.515c2.166-6.938-4.755-8.295-4.755-8.295
					L50.146,65.838z"/>
			</g>
			<g>
				<path class="st6" d="M48.254,71.07l2.176-6.686c0,0,1.55,0.974,1.675,2.115C52.243,67.758,50.113,71.05,48.254,71.07z"/>
			</g>
			<g>
				<g>
					<g>
						<g>
							<g>
								<path class="st5" d="M94.84,79.488c0.052,3.028-2.071,12.649-5.101,12.701l0,0c-3.028,0.052-5.526-2.36-5.579-5.389
									l-0.575-23.325c-0.054-3.029,1.331-5.435,4.36-5.485l0,0c3.03-0.053,4.175,1.65,4.791,5.391L94.84,79.488z"/>
							</g>
							<g>
								<path class="st2" d="M84.833,78.819l0.732-20.169c-1.47,1.034-2.01,2.584-1.98,4.313l-0.143,18.932
									C83.692,81.291,84.813,79.516,84.833,78.819z"/>
							</g>
						</g>
						<g>
							<path class="st5" d="M53.279,78.393v11.963c0.402,14.252,9.56,23.691,20.976,23.492c11.416-0.196,20.853-11.225,20.853-26.47
								l-0.281-8.259L53.279,78.393z"/>
						</g>
						<g>
							<g>
								<path class="st5" d="M85.229,92.451c0.054,3.026-2.36,5.524-5.39,5.578l0,0c-3.029,0.054-5.528-2.36-5.579-5.391
									l-0.577-33.176c-0.053-3.031,2.36-5.528,5.39-5.581l0,0c3.028-0.054,5.526,2.359,5.579,5.39L85.229,92.451z"/>
							</g>
							<g>
								<path class="st2" d="M73.961,76.437l2.101-21.591c-1.235,1.026-2.411,2.543-2.38,4.273l-0.143,19.273
									C73.792,77.787,73.943,77.131,73.961,76.437z"/>
							</g>
						</g>
						<g>
							<g>
								<path class="st5" d="M74.757,88.124c0.507,3.081-1.907,5.577-4.937,5.631l0,0c-3.029,0.051-5.528-2.36-5.579-5.39
									l-0.575-33.178c-0.055-3.029,2.359-5.529,5.388-5.58l0,0c3.029-0.054,5.53,2.36,5.126,5.337"/>
							</g>
							<g>
								<path class="st2" d="M63.944,72.163l2.268-21.701c-1.345,0.829-2.566,2.65-2.535,4.384l-0.156,19.272
									C63.773,73.515,63.926,72.857,63.944,72.163z"/>
							</g>
						</g>
						<g>
							<path class="st5" d="M64.355,85.606c0.053,3.03-2.359,5.528-5.39,5.58l0,0c-3.028,0.054-5.528-2.361-5.563-4.066
								l-0.662-49.91c-0.07-4.353,2.342-6.854,5.373-6.905l0,0c3.03-0.052,5.527,2.361,5.579,5.391L64.355,85.606z"/>
						</g>
						<g>
							<path class="st6" d="M61.884,37.503L61.833,34.8c-0.035-1.918-1.734-3.445-3.792-3.411c-2.061,0.032-3.702,1.614-3.666,3.534
								l0.049,2.701c0,0,1.067,0.633,3.545,0.57C61.044,38.115,61.122,37.847,61.884,37.503z"/>
						</g>
						<g>
							<g>
								<path class="st6" d="M62.719,60.619c0.004,0.22-0.169,0.397-0.389,0.403l-6.902,0.119c-0.22,0.003-0.401-0.17-0.403-0.39
									l0,0c-0.003-0.219,0.171-0.399,0.389-0.402l6.904-0.119C62.535,60.227,62.716,60.399,62.719,60.619L62.719,60.619z"/>
							</g>
							<g>
								<path class="st6" d="M60.961,62.609c0.003,0.193-0.149,0.352-0.344,0.355l-3.412,0.059
									c-0.194,0.004-0.354-0.151-0.357-0.342l0,0c-0.003-0.196,0.153-0.353,0.344-0.359l3.413-0.06
									C60.8,62.261,60.959,62.415,60.961,62.609L60.961,62.609z"/>
							</g>
						</g>
					</g>
				</g>
			</g>
			<g>
				<path class="st2" d="M53.279,65.241l0.402,24.932l-1.735-9.92c0,0-0.706-3.354-0.138-5.749
					C52.247,72.652,53.279,65.241,53.279,65.241z"/>
			</g>
			<g>
				<path class="st6" d="M48.635,77.393c0.005,0.193-0.149,0.352-0.343,0.355l-1.769,0.06c-0.195,0.003-0.354-0.152-0.358-0.343l0,0
					c-0.003-0.195,0.152-0.353,0.344-0.359l1.77-0.059C48.474,77.044,48.634,77.198,48.635,77.393L48.635,77.393z"/>
			</g>
			<g>
				<path class="st6" d="M47.814,78.74c0.004,0.192-0.149,0.352-0.343,0.355l-0.948,0.059c-0.195,0.004-0.354-0.152-0.358-0.342l0,0
					c-0.003-0.196,0.152-0.353,0.344-0.358l0.949-0.062C47.653,78.392,47.813,78.546,47.814,78.74L47.814,78.74z"/>
			</g>
			<g>
				<g>
					<path class="st4" d="M61.983,78.136c0.349,1.229-0.228,2.473-1.451,2.916c-0.741,0.268-0.421,1.459,0.328,1.188
						c1.845-0.668,2.854-2.522,2.31-4.431C62.954,77.046,61.765,77.37,61.983,78.136L61.983,78.136z"/>
				</g>
			</g>
			<g>
				<g>
					<path class="st4" d="M72.763,76.479c0.735,2.07-0.168,4.105-2.175,4.982c-0.727,0.318-0.1,1.379,0.621,1.064
						c2.478-1.083,3.645-3.835,2.742-6.375C73.686,75.408,72.495,75.729,72.763,76.479L72.763,76.479z"/>
				</g>
			</g>
			<g>
				<g>
					<path class="st4" d="M82.364,77.837c0.414,1.496-0.32,2.993-1.802,3.515c-0.745,0.261-0.424,1.451,0.327,1.187
						c2.11-0.74,3.264-2.855,2.662-5.029C83.339,76.744,82.15,77.069,82.364,77.837L82.364,77.837z"/>
				</g>
			</g>
			<g>
				<g>
					<path class="st4" d="M92.025,78.226c0.367,1.086-0.047,2.276-1.148,2.735c-0.722,0.301-0.405,1.493,0.327,1.188
						c1.694-0.708,2.613-2.467,2.009-4.25C92.961,77.151,91.771,77.472,92.025,78.226L92.025,78.226z"/>
				</g>
			</g>
		</g>
	</g>
</g>
</svg>
