<?xml version="1.0" encoding="utf-8"?>
<!-- Generator: Adobe Illustrator 16.0.0, SVG Export Plug-In . SVG Version: 6.00 Build 0)  -->
<!DOCTYPE svg PUBLIC "-//W3C//DTD SVG 1.1//EN" "http://www.w3.org/Graphics/SVG/1.1/DTD/svg11.dtd">
<svg version="1.1" id="Layer_1" xmlns="http://www.w3.org/2000/svg" xmlns:xlink="http://www.w3.org/1999/xlink" x="0px" y="0px"
	 width="136.833px" height="136.834px" viewBox="0 0 136.833 136.834" style="enable-background:new 0 0 136.833 136.834;"
	 xml:space="preserve">
<style type="text/css">
<![CDATA[
	.st0{fill:#B6E2EA;}
	.st1{fill:#88CED7;}
	.st2{fill:#EDAC80;}
	.st3{fill:#EFEFEF;}
	.st4{fill:#F5B88E;}
	.st5{fill:#FBC096;}
	.st6{fill:#FDD7B3;}
	.st7{fill:none;}
]]>
</style>
<g>
	<g>
		<circle class="st3" cx="68.417" cy="68.418" r="63.333"/>
	</g>
	<g>
		<g>
			<circle class="st0" cx="75.163" cy="35.315" r="9.875"/>
			<circle class="st0" cx="57.479" cy="57.518" r="9.875"/>
			<g>
				<path class="st5" d="M55.752,56.315l-3.236,8.056c0,0-0.853,2.88-1.352,7.383c-0.731,6.619-0.089,10.239,1.222,14.38
					c3.545,11.2,6.927,15.948,6.927,15.948l13.385-27.713l-2.766-5.33c0,0-0.311,3.431-2.241,4.422
					c-2.807,1.441-3.949,0.951-3.949,0.951s-2.053-1.021-3.111-4.604c-0.227-0.771-0.364-2.012-0.12-2.733
					c0.521-1.531,0.798-2.867,1.097-4.376c1.488-7.52-4.537-9.068-4.537-9.068L55.752,56.315z"/>
				<path class="st6" d="M55.297,57.276l1.419-3.753c0,0,1.696,0.27,0.994,1.961C57.25,56.598,56.86,57.486,55.297,57.276z"/>
				<g>
					<g>
						<g>
							<g>
								<path class="st5" d="M101.645,87.477c-0.708,3.731-6.801,11.695-9.7,10.96l0.816-3.29c-2.898-0.732-1.202-2.293-0.604-4.661
									l2.094-19.153c0.598-2.368,2.688-3.489,5.586-2.754l0,0c2.897,0.732,2.105,5.494,2.15,8.853L101.645,87.477z"/>
								<path class="st2" d="M96.309,82.555l1.357-5.082l0.557-9.114c-0.766,0.006-0.879-0.11-3.095,0.964l-2.873,17.161
									C92.623,86.078,96.14,83.089,96.309,82.555z"/>
							</g>
							<path class="st5" d="M64.162,79.5l-3.843,9.025c-5.375,4.062-3.209,16.825,7.256,20.498
								c10.631,3.731,21.065-4.442,29.813-14.099c0,0,1.606-1.555,2.197-3.112c1.965-5.185,1.836-6.645,1.836-6.645L64.162,79.5z"/>
							<g>
								<path class="st5" d="M98.273,87.22c-0.598,2.368-9.742,11.624-12.64,10.892l0,0c-2.9-0.733-4.763-3.246-4.162-5.614
									l4.616-26.48c0.6-2.368,2.66-4.489,6.405-3.031l0,0c2.898,0.73,4.957,4.875,4.75,7.694L98.273,87.22z"/>
								<path class="st2" d="M87.106,78.211l1.845-5.71l1.903-9.95c-1.577-0.204-2.814-0.295-3.156,1.059l-3.861,17.626
									C84.207,80.828,86.94,78.748,87.106,78.211z"/>
							</g>
							<g>
								<path class="st5" d="M88.622,83.045c-0.177,2.524-8.723,9.917-11.623,9.184l0,0c-2.896-0.734-4.762-3.246-4.161-5.614
									l6.563-25.941c0.597-2.372,3.432-3.697,6.33-2.965l0,0c2.898,0.735,3.834,2.439,3.742,5.46"/>
								<path class="st2" d="M83.102,73.918l0.106-4.59l0.615-11.809c-2.846,0.252-3.863,1.126-5.379,1.662l-3.238,16.172
									C75.575,74.948,82.935,74.454,83.102,73.918z"/>
							</g>
							<path class="st5" d="M74.438,88.873c0.053,2.989,0.269,5.352-2.72,5.403l0,0c-2.989,0.055-18.058,11.763-7.502-11.676
								l4.386-8.768c0,0,1.505-4.859,2.06-8.163c0.226-1.349,1.309-20.037,1.309-20.037c-0.873-4.53-0.757-14.505,2.525-14.536
								l0.595-0.021c2.084-0.15,3.535,0.849,4.058,4.143l2.376,21.045c0,0,1.931,13.344,1.872,15.852
								c-0.081,3.404-1.47,12.839-1.47,12.839L74.438,88.873z"/>
							<path class="st6" d="M78.81,34.574l-0.349-1.272c-0.041-0.811-1.427-1.855-2.897-1.817c-1.472,0.037-1.848,1.252-1.809,2.063
								l0.199,1.286c0,0-0.058,0.177,1.711,0.123C77.863,34.887,78.349,35.006,78.81,34.574z"/>
							<g>
								<path class="st6" d="M79.818,52.564c0.011,0.188-0.078,0.344-0.201,0.352l-3.83,0.22c-0.122,0.008-0.229-0.138-0.24-0.326
									l0,0c-0.011-0.188,0.08-0.346,0.2-0.351l3.832-0.221C79.7,52.23,79.808,52.377,79.818,52.564L79.818,52.564z"/>
								<path class="st6" d="M79.581,54.499c0.01,0.164-0.068,0.303-0.176,0.309l-1.893,0.11c-0.108,0.005-0.204-0.126-0.212-0.288
									l0,0c-0.009-0.168,0.071-0.305,0.176-0.313l1.893-0.109C79.479,54.204,79.573,54.333,79.581,54.499L79.581,54.499z"/>
							</g>
						</g>
					</g>
				</g>
				<path class="st6" d="M54.438,65.438c-0.039,0.156-0.197,0.246-0.353,0.208l-1.428-0.35c-0.157-0.038-0.25-0.2-0.21-0.353l0,0
					c0.042-0.158,0.201-0.249,0.355-0.21l1.429,0.347C54.386,65.124,54.481,65.282,54.438,65.438L54.438,65.438z"/>
				<path class="st6" d="M53.48,66.333c-0.039,0.154-0.197,0.247-0.352,0.206l-0.771-0.164c-0.157-0.04-0.25-0.2-0.211-0.353l0,0
					c0.042-0.158,0.201-0.249,0.355-0.21l0.772,0.162C53.43,66.017,53.523,66.177,53.48,66.333L53.48,66.333z"/>
				<g>
					<path class="st4" d="M84.806,81.775c0.185,0.758-0.525,1.323-1.755,1.308c-0.748-0.012-0.586,0.718,0.169,0.729
						c1.858,0.022,3.058-0.789,2.77-1.964C85.875,81.38,84.69,81.305,84.806,81.775L84.806,81.775z"/>
				</g>
				<g>
					<path class="st4" d="M93.24,83.372c0.152,1.375-1.149,2.037-3.152,1.638c-0.726-0.145-0.423,0.665,0.294,0.809
						c2.473,0.491,4.183-0.425,3.996-2.11C94.324,83.214,93.183,82.875,93.24,83.372L93.24,83.372z"/>
				</g>
				<g>
					<path class="st4" d="M99.087,85.729c0.213,0.918-0.676,1.591-2.168,1.563c-0.75-0.016-0.589,0.712,0.168,0.728
						c2.124,0.04,3.497-0.886,3.184-2.218C100.162,85.332,98.976,85.259,99.087,85.729L99.087,85.729z"/>
				</g>
				<g>
					<path class="st4" d="M77.746,78.185c0.214,0.918-0.676,1.591-2.169,1.562c-0.749-0.013-0.587,0.716,0.169,0.729
						c2.124,0.042,3.496-0.886,3.184-2.22C78.82,77.787,77.636,77.714,77.746,78.185L77.746,78.185z"/>
				</g>
			</g>
		</g>
		<g>
			<path class="st0" d="M51.841,43.945c0-2.166,0-4.331,0-6.497c0-1.177-0.983-2.16-2.161-2.16c-2.161,0-4.322,0-6.483,0.002
				c-2.79-0.002-2.789,4.32,0,4.32c2.161,0,4.321,0,6.483,0c-0.721-0.72-1.44-1.441-2.162-2.162c0,2.166,0,4.331,0,6.497
				C47.519,46.734,51.841,46.734,51.841,43.945L51.841,43.945z"/>
		</g>
		<g>
			<path class="st0" d="M60.662,34.692c-2.166,0-4.332,0-6.497,0c-1.176,0-2.16-0.984-2.161-2.16
				c0.001-2.16,0.001-4.322,0.001-6.484c0-2.787,4.32-2.789,4.321,0c0,2.162,0,4.324,0,6.484c-0.72-0.722-1.44-1.441-2.161-2.162
				c2.166,0.002,4.331,0.002,6.497,0.002C63.451,30.372,63.451,34.692,60.662,34.692L60.662,34.692z"/>
		</g>
	</g>
</g>
</svg>
