<?xml version="1.0" encoding="utf-8"?>
<!-- Generator: Adobe Illustrator 16.0.0, SVG Export Plug-In . SVG Version: 6.00 Build 0)  -->
<!DOCTYPE svg PUBLIC "-//W3C//DTD SVG 1.1//EN" "http://www.w3.org/Graphics/SVG/1.1/DTD/svg11.dtd">
<svg version="1.1" id="Layer_1" xmlns="http://www.w3.org/2000/svg" xmlns:xlink="http://www.w3.org/1999/xlink" x="0px" y="0px"
	 width="136.833px" height="136.834px" viewBox="0 0 136.833 136.834" style="enable-background:new 0 0 136.833 136.834;"
	 xml:space="preserve">
<style type="text/css">
<![CDATA[
	.st0{fill:#B6E2EA;}
	.st1{fill:#88CED7;}
	.st2{fill:#EDAC80;}
	.st3{fill:#EFEFEF;}
	.st4{fill:#F5B88E;}
	.st5{fill:#FBC096;}
	.st6{fill:#FDD7B3;}
	.st7{fill:none;}
]]>
</style>
<g>
	<g>
		<circle class="st3" cx="68.416" cy="68.418" r="63.333"/>
	</g>
	<g>
		<g>
			<circle class="st0" cx="67.77" cy="36.964" r="15.222"/>
			<g>
				<path class="st5" d="M52.833,67.93l-3.789,10.057c0,0-1.066,1.417-0.346,5.753c1.134,6.839,1.558,9.718,3.318,12.738
					c4.443,7.62,9.549,13.3,9.549,13.3l-1.131-22.503c0,0-3.184-9.711-2.244-12.554c2.279-6.904-4.616-8.372-4.616-8.372
					L52.833,67.93z"/>
				<path class="st6" d="M50.854,73.13l2.288-6.648c0,0,1.533,0.999,1.639,2.143C54.897,69.884,52.714,73.142,50.854,73.13z"/>
				<g>
					<g>
						<g>
							<g>
								<path class="st5" d="M97.294,82.319c0.002,3.028-2.279,12.611-5.312,12.615l0,0c-3.028,0.002-5.485-2.453-5.487-5.481
									l-0.189-23.33c-0.003-3.03,1.421-5.414,4.451-5.414l0,0c3.029-0.002,4.146,1.721,4.701,5.47L97.294,82.319z"/>
								<path class="st2" d="M87.456,78.896l1.117-17.691c-2.207,1.28-2.26,2.675-2.258,4.405l-0.458,18.925
									C86.118,83.936,87.424,79.593,87.456,78.896z"/>
							</g>
							<path class="st5" d="M55.757,80.535l-0.197,11.96c0.166,14.258,9.165,23.848,20.583,23.838
								c11.418-0.008,21.038-10.878,21.289-26.121l-0.144-8.263L55.757,80.535z"/>
							<g>
								<path class="st5" d="M87.47,95.122c0.004,3.027-2.451,5.482-5.482,5.486l0,0c-3.029,0.004-5.488-2.451-5.488-5.482
									l-0.026-33.183c-0.003-3.029,2.45-5.486,5.481-5.488l0,0c3.029-0.004,5.486,2.451,5.489,5.48L87.47,95.122z"/>
								<path class="st2" d="M77.646,73.041l1.51-15.816c-1.855,1.11-2.68,2.646-2.678,4.378l-0.225,13.529
									C76.516,74.531,77.618,73.735,77.646,73.041z"/>
							</g>
							<g>
								<path class="st5" d="M77.345,79.936c0.342,3.345-3.097,6.388-6.125,6.287l0,0c-3.029-0.102-5.395-2.829-5.285-6.094
									l1.149-45.043c0.106-3.266,2.651-5.83,5.68-5.729l0,0c3.028,0.101,5.104,2.858,5.19,5.406l-0.612,45.369"/>
								<path class="st2" d="M66.149,76.592l1.527-21.651c0.041-2.479-0.293-19.71-0.354-17.843l-1.767,46.047
									C65.84,82.507,66.095,77.34,66.149,76.592z"/>
							</g>
							<path class="st5" d="M65.985,81.963c-0.143,3.027,0.432,12.642-2.595,12.497l-5.905,5.744
								c-3.026-0.144-2.307-21.277-2.23-22.979l1.019-38.15c0.212-4.35,2.78-6.688,5.81-6.544l0,0
								c3.025,0.145,5.362,2.714,5.219,5.739L65.985,81.963z"/>
							<path class="st6" d="M65.378,39.957l0.123-2.7c0.089-1.917-1.507-3.55-3.564-3.65c-2.057-0.101-3.797,1.373-3.885,3.29
								l-0.126,2.698c0,0,1.024,0.704,3.5,0.799C64.501,40.515,64.597,40.25,65.378,39.957z"/>
							<path class="st6" d="M76.359,36.865l0.085-2.701c0.061-1.917-1.559-3.527-3.615-3.602c-2.061-0.069-3.779,1.428-3.839,3.347
								l-0.087,2.7c0,0,1.033,0.688,3.51,0.75C75.491,37.435,75.581,37.171,76.359,36.865z"/>
							<g>
								<path class="st6" d="M64.897,60.291c-0.011,0.22-0.195,0.388-0.414,0.378l-6.896-0.328c-0.22-0.012-0.39-0.194-0.376-0.415
									l0,0c0.009-0.218,0.195-0.387,0.413-0.376l6.896,0.326C64.739,59.888,64.909,60.073,64.897,60.291L64.897,60.291z"/>
								<path class="st6" d="M63.016,62.163c-0.009,0.193-0.171,0.344-0.365,0.332l-3.41-0.16c-0.193-0.008-0.343-0.175-0.333-0.364
									l0,0c0.01-0.197,0.175-0.344,0.366-0.336l3.409,0.16C62.878,61.805,63.026,61.969,63.016,62.163L63.016,62.163z"/>
							</g>
							<g>
								<path class="st6" d="M76.417,56.08c-0.008,0.221-0.194,0.389-0.414,0.379l-6.895-0.338c-0.221-0.01-0.389-0.196-0.377-0.415
									l0,0c0.011-0.22,0.197-0.388,0.414-0.376l6.896,0.338C76.262,55.68,76.431,55.862,76.417,56.08L76.417,56.08z"/>
								<path class="st6" d="M74.532,57.951c-0.008,0.193-0.171,0.342-0.367,0.332l-3.406-0.166
									c-0.195-0.01-0.344-0.176-0.335-0.364l0,0c0.011-0.197,0.176-0.342,0.368-0.336l3.407,0.166
									C74.394,57.593,74.544,57.759,74.532,57.951L74.532,57.951z"/>
							</g>
						</g>
					</g>
				</g>
				<path class="st2" d="M55.495,68.208L55.271,79.18l1.169,10.002l-2.046-6.809c0,0-0.879-2.782-0.272-5.168
					C54.59,75.359,55.495,68.208,55.495,68.208z"/>
				<path class="st6" d="M51.13,79.457c0.003,0.195-0.154,0.35-0.349,0.352l-1.769,0.029c-0.195,0-0.352-0.158-0.352-0.348l0,0
					c-0.001-0.196,0.157-0.353,0.35-0.354l1.77-0.029C50.975,79.106,51.133,79.263,51.13,79.457L51.13,79.457z"/>
				<path class="st6" d="M50.288,80.792c0,0.193-0.155,0.349-0.35,0.349l-0.949,0.043c-0.194,0.002-0.351-0.156-0.352-0.348l0,0
					c0-0.196,0.158-0.351,0.35-0.353l0.949-0.044C50.131,80.439,50.288,80.598,50.288,80.792L50.288,80.792z"/>
				<g>
					<path class="st4" d="M63.043,77.645c0.329,1.234-0.269,2.469-1.499,2.891c-0.744,0.257-0.445,1.453,0.309,1.194
						c1.856-0.639,2.896-2.475,2.383-4.394C64.032,76.57,62.838,76.875,63.043,77.645L63.043,77.645z"/>
				</g>
				<g>
					<path class="st4" d="M74.796,76.985c0.363,2.165-0.88,4.013-3.008,4.528c-0.771,0.187-0.338,1.34,0.426,1.155
						c2.628-0.637,4.256-3.142,3.807-5.802C75.89,76.09,74.661,76.198,74.796,76.985L74.796,76.985z"/>
				</g>
				<g>
					<path class="st4" d="M84.327,79.057c0.281,1.527-0.58,2.954-2.103,3.344c-0.764,0.195-0.55,1.408,0.223,1.211
						c2.166-0.553,3.501-2.559,3.091-4.776C85.396,78.054,84.182,78.273,84.327,79.057L84.327,79.057z"/>
				</g>
				<g>
					<path class="st4" d="M94.753,81.049c0.172,1.134-0.441,2.233-1.606,2.493c-0.763,0.17-0.659,1.4,0.115,1.227
						c1.791-0.4,3.002-1.973,2.718-3.834C95.862,80.151,94.634,80.262,94.753,81.049L94.753,81.049z"/>
				</g>
			</g>
		</g>
		<g>
			<path class="st0" d="M37.605,28.623c1.532-1.531,3.063-3.063,4.593-4.594c0.832-0.832,2.223-0.832,3.055,0
				c1.527,1.529,3.057,3.057,4.583,4.582c1.972,1.973-1.083,5.027-3.054,3.057c-1.529-1.529-3.056-3.057-4.584-4.584
				c1.02,0,2.037,0,3.055,0c-1.531,1.531-3.062,3.061-4.592,4.594C38.688,33.648,35.634,30.594,37.605,28.623L37.605,28.623z"/>
		</g>
		<g>
			<path class="st0" d="M39.386,35.697c1.086-1.086,2.17-2.172,3.254-3.256c0.592-0.59,1.577-0.59,2.168,0
				c1.082,1.082,2.166,2.164,3.247,3.248c1.397,1.396-0.769,3.563-2.165,2.164c-1.082-1.082-2.166-2.166-3.25-3.248
				c0.724,0,1.445,0,2.168,0c-1.086,1.084-2.171,2.17-3.256,3.256C40.154,39.259,37.987,37.094,39.386,35.697L39.386,35.697z"/>
		</g>
		<g>
			<path class="st0" d="M40.294,41.633c0.859-0.857,1.717-1.714,2.573-2.572c0.467-0.465,1.246-0.465,1.712,0
				c0.855,0.854,1.711,1.711,2.566,2.569c1.104,1.103-0.607,2.813-1.711,1.708c-0.855-0.854-1.712-1.71-2.567-2.566
				c0.571,0,1.142,0,1.712,0c-0.858,0.858-1.715,1.716-2.572,2.572C40.902,44.449,39.19,42.738,40.294,41.633L40.294,41.633z"/>
		</g>
		<g>
			<path class="st0" d="M41.081,46.341c0.661-0.659,1.322-1.321,1.981-1.982c0.36-0.356,0.96-0.356,1.319,0
				c0.66,0.659,1.319,1.319,1.979,1.979c0.85,0.851-0.469,2.17-1.318,1.319c-0.66-0.659-1.32-1.319-1.979-1.979
				c0.44,0,0.88,0,1.319,0c-0.661,0.661-1.321,1.323-1.982,1.982C41.55,48.511,40.23,47.191,41.081,46.341L41.081,46.341z"/>
		</g>
	</g>
</g>
</svg>
