<?xml version="1.0" encoding="utf-8"?>
<!-- Generator: Adobe Illustrator 16.0.0, SVG Export Plug-In . SVG Version: 6.00 Build 0)  -->
<!DOCTYPE svg PUBLIC "-//W3C//DTD SVG 1.1//EN" "http://www.w3.org/Graphics/SVG/1.1/DTD/svg11.dtd">
<svg version="1.1" id="Layer_1" xmlns="http://www.w3.org/2000/svg" xmlns:xlink="http://www.w3.org/1999/xlink" x="0px" y="0px"
	 width="136.833px" height="136.833px" viewBox="0 0 136.833 136.833" style="enable-background:new 0 0 136.833 136.833;"
	 xml:space="preserve">
<style type="text/css">
<![CDATA[
	.st0{fill:#B6E2EA;}
	.st1{fill:#88CED7;}
	.st2{fill:#EDAC80;}
	.st3{fill:#EFEFEF;}
	.st4{fill:#F5B88E;}
	.st5{fill:#FBC096;}
	.st6{fill:#FDD7B3;}
	.st7{fill:none;}
]]>
</style>
<g>
	<g>
		<circle class="st3" cx="68.416" cy="68.418" r="63.333"/>
	</g>
	<g>
		<g>
			<circle class="st1" cx="58.298" cy="47.715" r="9.578"/>
			<circle class="st1" cx="75.333" cy="43.403" r="9.578"/>
			<g>
				<path class="st5" d="M52.396,78.724l-3.623,10.117c0,0-1.041,1.436-0.25,5.759c1.248,6.82,1.72,9.691,3.529,12.683
					c4.569,7.545,9.769,13.14,9.769,13.14l-1.503-22.481c0,0-3.345-9.656-2.453-12.515c2.166-6.939-4.755-8.296-4.755-8.296
					L52.396,78.724z"/>
				<path class="st6" d="M50.503,83.957l2.176-6.685c0,0,1.551,0.974,1.676,2.115C54.492,80.645,52.362,83.937,50.503,83.957z"/>
				<g>
					<g>
						<g>
							<g>
								<path class="st5" d="M97.089,92.375c0.053,3.03-2.069,12.648-5.1,12.702l0,0c-3.029,0.052-5.527-2.36-5.579-5.389
									l-0.575-23.325c-0.054-3.029,1.33-5.435,4.359-5.486l0,0c3.029-0.052,4.176,1.65,4.791,5.391L97.089,92.375z"/>
								<path class="st2" d="M87.196,89.116L88.81,71.1c-1.957,0.419-3.005,3.021-2.975,4.75l-0.143,18.932
									C85.942,94.176,87.175,89.812,87.196,89.116z"/>
							</g>
							<path class="st5" d="M55.528,91.279v11.962c0.402,14.255,9.56,23.693,20.976,23.494c11.416-0.196,20.854-11.225,20.854-26.47
								l-0.281-8.261L55.528,91.279z"/>
							<g>
								<path class="st5" d="M87.478,105.339c0.055,3.025-2.359,5.523-5.389,5.577l0,0c-3.029,0.052-5.528-2.36-5.579-5.391
									l-0.577-33.178c-0.053-3.03,2.36-5.527,5.391-5.58l0,0c3.027-0.054,5.525,2.361,5.579,5.389L87.478,105.339z"/>
								<path class="st2" d="M77.291,83.424l2.491-16.224c-1.997,0-3.882,3.074-3.851,4.806v13.531
									C76.185,84.932,77.272,84.121,77.291,83.424z"/>
							</g>
							<g>
								<path class="st5" d="M76.849,89.532c0.145,3.358-3.467,6.195-6.484,5.917l0,0c-3.016-0.279-5.221-3.142-4.916-6.394
									l3.787-44.897c0.299-3.254,2.988-5.665,6.006-5.385l0,0c3.018,0.277,4.93,3.151,4.865,5.7l-3.271,45.254"/>
								<path class="st2" d="M65.868,85.538l2.369-19.296c0.273-13.693,0.79-19.458,0.62-17.597l-3.966,43.397
									C65.212,91.424,65.771,86.281,65.868,85.538z"/>
							</g>
							<path class="st5" d="M67.278,92.042c0.149,3.028-2.83,11.85-5.857,12l0,0c-3.023,0.15-6.097-13.731-6.187-15.433
								l-1.77-38.315c-0.21-4.35,2.12-6.926,5.147-7.074l0,0c3.027-0.148,5.6,2.181,5.75,5.207L67.278,92.042z"/>
							<path class="st6" d="M62.612,50.292l-0.139-2.698c-0.098-1.917-1.844-3.389-3.9-3.288c-2.059,0.1-3.647,1.731-3.551,3.648
								l0.137,2.698c0,0,1.088,0.6,3.562,0.457C61.793,50.932,61.861,50.661,62.612,50.292z"/>
							<path class="st6" d="M78.391,46.477l0.243-2.692c0.174-1.909-1.348-3.612-3.398-3.805c-2.053-0.191-3.855,1.201-4.028,3.114
								l-0.245,2.69c0,0,0.99,0.747,3.461,0.953C77.489,46.997,77.597,46.738,78.391,46.477z"/>
							<g>
								<path class="st6" d="M64.099,70.578c0.012,0.218-0.155,0.402-0.375,0.416l-6.895,0.34c-0.221,0.012-0.406-0.154-0.415-0.374
									l0,0c-0.011-0.22,0.157-0.405,0.375-0.415l6.896-0.343C63.903,70.192,64.091,70.36,64.099,70.578L64.099,70.578z"/>
								<path class="st6" d="M62.407,72.624c0.01,0.193-0.138,0.356-0.332,0.366l-3.408,0.168c-0.193,0.012-0.357-0.141-0.369-0.33
									l0,0c-0.008-0.196,0.143-0.356,0.333-0.37l3.409-0.169C62.235,72.281,62.399,72.429,62.407,72.624L62.407,72.624z"/>
							</g>
							<g>
								<path class="st6" d="M77.321,65.664c-0.021,0.22-0.217,0.376-0.436,0.353l-6.863-0.74c-0.219-0.025-0.377-0.218-0.352-0.438
									l0,0c0.023-0.218,0.219-0.374,0.436-0.351l6.865,0.742C77.189,65.25,77.347,65.447,77.321,65.664L77.321,65.664z"/>
								<path class="st6" d="M75.331,67.42c-0.021,0.192-0.191,0.331-0.387,0.311l-3.393-0.366c-0.193-0.02-0.331-0.195-0.311-0.386
									l0,0c0.021-0.193,0.195-0.328,0.386-0.313l3.393,0.366C75.213,67.054,75.353,67.227,75.331,67.42L75.331,67.42z"/>
							</g>
						</g>
					</g>
				</g>
				<path class="st2" d="M54.729,78.128l0.289,11.805l1.756,13.126l-2.578-9.919c0,0-0.926-2.77-0.359-5.162
					C54.276,86.126,54.729,78.128,54.729,78.128z"/>
				<path class="st6" d="M50.885,90.281c0.005,0.192-0.149,0.351-0.343,0.354l-1.77,0.058c-0.194,0.004-0.354-0.15-0.357-0.342l0,0
					c-0.004-0.196,0.152-0.353,0.344-0.358l1.77-0.06C50.724,89.931,50.884,90.085,50.885,90.281L50.885,90.281z"/>
				<path class="st6" d="M50.063,91.626c0.005,0.193-0.148,0.351-0.344,0.356l-0.947,0.059c-0.194,0.003-0.354-0.153-0.357-0.342
					l0,0c-0.004-0.196,0.152-0.354,0.344-0.358l0.949-0.063C49.901,91.279,50.062,91.431,50.063,91.626L50.063,91.626z"/>
				<g>
					<path class="st4" d="M64.368,89.589c0.35,1.23-0.229,2.473-1.45,2.916c-0.741,0.267-0.422,1.459,0.328,1.188
						c1.845-0.669,2.853-2.522,2.31-4.432C65.339,88.5,64.149,88.824,64.368,89.589L64.368,89.589z"/>
				</g>
				<g>
					<path class="st4" d="M74.505,87.415c0.4,2.16-0.813,4.026-2.932,4.578c-0.769,0.199-0.316,1.347,0.445,1.147
						c2.616-0.679,4.201-3.213,3.709-5.863C75.585,86.502,74.358,86.629,74.505,87.415L74.505,87.415z"/>
				</g>
				<g>
					<path class="st4" d="M84.071,89.328c0.306,1.521-0.531,2.964-2.049,3.379c-0.76,0.206-0.525,1.418,0.242,1.207
						c2.158-0.588,3.459-2.617,3.013-4.827C85.12,88.307,83.913,88.546,84.071,89.328L84.071,89.328z"/>
				</g>
				<g>
					<path class="st4" d="M94.528,91.148c0.19,1.131-0.406,2.239-1.566,2.519c-0.76,0.184-0.635,1.412,0.137,1.224
						c1.783-0.431,2.969-2.021,2.653-3.879C95.622,90.232,94.396,90.361,94.528,91.148L94.528,91.148z"/>
				</g>
			</g>
		</g>
		<g>
			<path class="st0" d="M59.842,31.425c1.142,1.143,2.283,2.284,3.426,3.427c0.621,0.619,1.657,0.619,2.278,0
				c1.14-1.14,2.278-2.28,3.419-3.419c1.471-1.472-0.808-3.75-2.279-2.279c-1.14,1.141-2.278,2.279-3.418,3.42
				c0.759,0,1.52,0,2.278,0c-1.142-1.142-2.284-2.285-3.427-3.428C60.65,27.675,58.37,29.954,59.842,31.425L59.842,31.425z"/>
		</g>
		<g>
			<path class="st0" d="M59.841,15.201c1.143-1.141,2.284-2.284,3.427-3.425c0.621-0.623,1.657-0.623,2.278,0
				c1.14,1.139,2.278,2.279,3.419,3.418c1.471,1.471-0.808,3.75-2.279,2.279c-1.14-1.14-2.278-2.279-3.418-3.419
				c0.759,0,1.52,0,2.278,0c-1.142,1.142-2.284,2.284-3.427,3.425C60.65,18.949,58.37,16.672,59.841,15.201L59.841,15.201z"/>
		</g>
		<g>
			<path class="st0" d="M56.275,18.871c-1.143,1.144-2.285,2.286-3.428,3.427c-0.62,0.619-0.62,1.657,0,2.277
				c1.14,1.14,2.28,2.279,3.42,3.419c1.472,1.471,3.749-0.809,2.278-2.279c-1.14-1.14-2.278-2.278-3.419-3.417
				c0,0.759,0,1.519,0,2.277c1.143-1.141,2.284-2.284,3.428-3.425C60.024,19.679,57.745,17.4,56.275,18.871L56.275,18.871z"/>
		</g>
		<g>
			<path class="st0" d="M72.024,18.545c1.142,1.142,2.285,2.283,3.427,3.427c0.62,0.619,0.62,1.657,0,2.278
				c-1.14,1.139-2.28,2.279-3.42,3.418c-1.471,1.471-3.749-0.809-2.278-2.279c1.14-1.139,2.279-2.279,3.419-3.417
				c0,0.759,0,1.518,0,2.278c-1.142-1.143-2.284-2.285-3.427-3.427C68.275,19.353,70.553,17.075,72.024,18.545L72.024,18.545z"/>
		</g>
		<circle class="st1" cx="64.463" cy="23.678" r="3.036"/>
	</g>
</g>
</svg>
