<?xml version="1.0" encoding="utf-8"?>
<!-- Generator: Adobe Illustrator 16.0.0, SVG Export Plug-In . SVG Version: 6.00 Build 0)  -->
<!DOCTYPE svg PUBLIC "-//W3C//DTD SVG 1.1//EN" "http://www.w3.org/Graphics/SVG/1.1/DTD/svg11.dtd">
<svg version="1.1" id="Layer_1" xmlns="http://www.w3.org/2000/svg" xmlns:xlink="http://www.w3.org/1999/xlink" x="0px" y="0px"
	 width="136.833px" height="136.834px" viewBox="0 0 136.833 136.834" style="enable-background:new 0 0 136.833 136.834;"
	 xml:space="preserve">
<style type="text/css">
<![CDATA[
	.st0{fill:#B6E2EA;}
	.st1{fill:#88CED7;}
	.st2{fill:#EDAC80;}
	.st3{fill:#EFEFEF;}
	.st4{fill:#F5B88E;}
	.st5{fill:#FBC096;}
	.st6{fill:#FDD7B3;}
	.st7{fill:none;}
]]>
</style>
<g>
	<g>
		<circle class="st3" cx="68.417" cy="68.418" r="63.333"/>
	</g>
	<g>
		<g>
			<circle class="st0" cx="73.341" cy="35.603" r="9.875"/>
			<circle class="st0" cx="55.657" cy="57.806" r="9.876"/>
			<g>
				<path class="st5" d="M53.931,56.603l-3.236,8.056c0,0-0.854,2.88-1.352,7.383c-0.731,6.619-0.088,10.239,1.222,14.38
					c3.545,11.2,6.927,15.948,6.927,15.948l13.386-27.713l-2.766-5.33c0,0-0.311,3.431-2.242,4.422
					c-2.807,1.441-3.948,0.951-3.948,0.951s-2.054-1.021-3.111-4.604c-0.227-0.771-0.364-2.012-0.12-2.733
					c0.521-1.531,0.797-2.867,1.097-4.376c1.488-7.52-4.537-9.068-4.537-9.068L53.931,56.603z"/>
				<path class="st6" d="M53.476,57.564l1.418-3.753c0,0,1.696,0.27,0.995,1.961C55.428,56.885,55.039,57.774,53.476,57.564z"/>
				<g>
					<g>
						<g>
							<g>
								<path class="st5" d="M99.823,87.764c-0.708,3.731-6.801,11.695-9.701,10.96l0.817-3.29
									c-2.898-0.732-1.203-2.293-0.604-4.661l2.093-19.153c0.599-2.368,2.688-3.489,5.586-2.754l0,0
									c2.897,0.732,2.106,5.494,2.151,8.853L99.823,87.764z"/>
								<path class="st2" d="M94.487,82.842l1.357-5.082l0.557-9.114c-0.766,0.006-0.879-0.11-3.096,0.964l-2.873,17.161
									C90.802,86.366,94.318,83.376,94.487,82.842z"/>
							</g>
							<path class="st5" d="M62.34,79.788l-3.843,9.025c-5.375,4.062-3.209,16.825,7.255,20.498
								c10.632,3.731,21.066-4.442,29.814-14.099c0,0,1.606-1.555,2.196-3.112c1.965-5.185,1.836-6.645,1.836-6.645L62.34,79.788z"
								/>
							<g>
								<path class="st5" d="M96.452,87.507c-0.599,2.368-9.742,11.624-12.64,10.892l0,0c-2.899-0.733-4.763-3.246-4.161-5.614
									l4.616-26.48c0.601-2.368,2.66-4.489,6.405-3.031l0,0c2.898,0.73,4.957,4.875,4.75,7.694L96.452,87.507z"/>
								<path class="st2" d="M85.284,78.499l1.846-5.71l1.903-9.95c-1.577-0.204-2.814-0.295-3.156,1.059l-3.861,17.626
									C82.385,81.116,85.119,79.036,85.284,78.499z"/>
							</g>
							<g>
								<path class="st5" d="M86.801,83.333c-0.178,2.524-8.723,9.917-11.623,9.184l0,0c-2.896-0.734-4.762-3.246-4.162-5.614
									L77.58,60.96c0.597-2.372,3.431-3.697,6.33-2.965l0,0c2.899,0.735,3.834,2.439,3.742,5.46"/>
								<path class="st2" d="M81.28,74.206l0.106-4.59l0.615-11.809c-2.846,0.252-3.863,1.126-5.379,1.662l-3.238,16.172
									C73.753,75.236,81.113,74.742,81.28,74.206z"/>
							</g>
							<path class="st5" d="M72.617,89.161c0.052,2.989,0.268,5.352-2.721,5.403l0,0c-2.99,0.055-18.059,11.763-7.502-11.676
								l4.386-8.768c0,0,1.505-4.859,2.06-8.163c0.226-1.349,1.309-20.037,1.309-20.037c-0.873-4.53-0.757-14.505,2.525-14.536
								l0.596-0.021c2.084-0.15,3.535,0.849,4.058,4.143l2.375,21.045c0,0,1.932,13.344,1.873,15.852
								c-0.081,3.404-1.47,12.839-1.47,12.839L72.617,89.161z"/>
							<path class="st6" d="M76.988,34.862l-0.349-1.272c-0.041-0.811-1.428-1.855-2.897-1.817
								c-1.473,0.037-1.848,1.252-1.809,2.063l0.199,1.286c0,0-0.057,0.177,1.712,0.123C76.042,35.174,76.528,35.293,76.988,34.862z
								"/>
							<g>
								<path class="st6" d="M77.997,52.852c0.011,0.188-0.078,0.344-0.201,0.352l-3.83,0.22c-0.122,0.008-0.229-0.138-0.24-0.326
									l0,0c-0.011-0.188,0.08-0.346,0.2-0.351l3.832-0.221C77.878,52.518,77.986,52.665,77.997,52.852L77.997,52.852z"/>
								<path class="st6" d="M77.759,54.787c0.01,0.164-0.068,0.303-0.176,0.309l-1.893,0.11c-0.108,0.005-0.204-0.126-0.212-0.288
									l0,0c-0.009-0.168,0.07-0.305,0.176-0.313l1.893-0.109C77.657,54.492,77.752,54.621,77.759,54.787L77.759,54.787z"/>
							</g>
						</g>
					</g>
				</g>
				<path class="st6" d="M52.617,65.726c-0.039,0.156-0.197,0.246-0.354,0.208l-1.427-0.35c-0.157-0.038-0.25-0.2-0.21-0.353l0,0
					c0.042-0.158,0.201-0.249,0.355-0.21l1.429,0.347C52.565,65.412,52.66,65.57,52.617,65.726L52.617,65.726z"/>
				<path class="st6" d="M51.659,66.621c-0.039,0.154-0.197,0.247-0.353,0.206l-0.771-0.164c-0.157-0.04-0.249-0.2-0.21-0.353l0,0
					c0.041-0.158,0.2-0.249,0.354-0.21l0.772,0.162C51.608,66.304,51.702,66.464,51.659,66.621L51.659,66.621z"/>
				<g>
					<path class="st4" d="M82.984,82.063c0.185,0.758-0.525,1.323-1.756,1.308c-0.748-0.012-0.585,0.718,0.169,0.729
						c1.859,0.022,3.059-0.789,2.771-1.964C84.054,81.667,82.869,81.592,82.984,82.063L82.984,82.063z"/>
				</g>
				<g>
					<path class="st4" d="M91.419,83.66c0.152,1.375-1.149,2.037-3.152,1.638c-0.726-0.145-0.423,0.665,0.294,0.809
						c2.473,0.491,4.183-0.425,3.996-2.11C92.502,83.501,91.361,83.163,91.419,83.66L91.419,83.66z"/>
				</g>
				<g>
					<path class="st4" d="M97.265,86.017c0.214,0.918-0.676,1.591-2.167,1.563c-0.75-0.016-0.589,0.712,0.167,0.728
						c2.124,0.04,3.497-0.886,3.184-2.218C98.34,85.62,97.154,85.546,97.265,86.017L97.265,86.017z"/>
				</g>
				<g>
					<path class="st4" d="M75.925,78.472c0.214,0.918-0.676,1.591-2.169,1.562c-0.749-0.013-0.587,0.716,0.169,0.729
						c2.124,0.042,3.497-0.886,3.184-2.22C76.998,78.075,75.814,78.001,75.925,78.472L75.925,78.472z"/>
				</g>
			</g>
		</g>
		<g>
			<path class="st0" d="M57.919,36.333c0-2.166,0-4.332,0-6.497c0-1.177-0.983-2.16-2.161-2.162
				c-2.161,0.002-4.323,0.002-6.483,0.002c-2.789,0-2.789,4.319,0,4.319c2.161,0,4.322,0,6.483,0c-0.72-0.719-1.44-1.44-2.161-2.159
				c0,2.165,0,4.331,0,6.497C53.599,39.123,57.919,39.123,57.919,36.333L57.919,36.333z"/>
		</g>
		<g>
			<path class="st0" d="M50.249,43.574c-2.166-0.002-4.331,0-6.498,0c-1.177,0-2.16-0.985-2.16-2.162c0-2.16,0-4.322,0-6.482
				c0-2.788,4.321-2.788,4.322,0c0,2.16-0.001,4.322,0,6.482c-0.721-0.72-1.44-1.44-2.162-2.16c2.167,0,4.332,0,6.497,0
				C53.037,39.251,53.037,43.572,50.249,43.574L50.249,43.574z"/>
		</g>
	</g>
</g>
</svg>
