<?xml version="1.0" encoding="utf-8"?>
<!-- Generator: Adobe Illustrator 16.0.0, SVG Export Plug-In . SVG Version: 6.00 Build 0)  -->
<!DOCTYPE svg PUBLIC "-//W3C//DTD SVG 1.1//EN" "http://www.w3.org/Graphics/SVG/1.1/DTD/svg11.dtd">
<svg version="1.1" id="Layer_1" xmlns="http://www.w3.org/2000/svg" xmlns:xlink="http://www.w3.org/1999/xlink" x="0px" y="0px"
	 width="136.833px" height="136.833px" viewBox="0 0 136.833 136.833" style="enable-background:new 0 0 136.833 136.833;"
	 xml:space="preserve">
<style type="text/css">
<![CDATA[
	.st0{fill:#B6E2EA;}
	.st1{fill:#88CED7;}
	.st2{fill:#EDAC80;}
	.st3{fill:#EFEFEF;}
	.st4{fill:#F5B88E;}
	.st5{fill:#FBC096;}
	.st6{fill:#FDD7B3;}
	.st7{fill:none;}
]]>
</style>
<g>
	<g>
		<circle class="st3" cx="68.417" cy="68.418" r="63.333"/>
	</g>
	<g>
		<g>
			<path class="st0" d="M61.244,37.503c3.307,7.729-0.281,16.677-8.01,19.982c-7.73,3.307-16.676-0.281-19.982-8.012
				c-3.306-7.728,0.28-16.675,8.01-19.98C48.991,26.187,57.938,29.773,61.244,37.503z"/>
			<g>
				<path class="st5" d="M46.262,77.855l0.647,10.729c0,0-0.394,1.725,2.034,5.391c3.829,5.777,5.393,8.234,8.232,10.273
					c7.168,5.141,14.148,8.238,14.148,8.238l-10.224-20.08c0,0-6.872-7.563-7.177-10.541c-0.738-7.232-7.633-5.756-7.633-5.756
					L46.262,77.855z"/>
				<path class="st6" d="M46.578,83.41l-0.627-7.002c0,0,1.808,0.285,2.372,1.285C48.944,78.796,48.28,82.66,46.578,83.41z"/>
				<g>
					<g>
						<g>
							<g>
								<path class="st5" d="M92.723,72.83c1.238,2.766,3.07,12.443,0.305,13.684l0,0c-2.764,1.24-6.01,0.004-7.249-2.762
									l-9.701-21.217c-1.24-2.765-0.913-5.521,1.851-6.76l0,0c2.766-1.238,4.488-0.124,6.525,3.073L92.723,72.83z"/>
								<path class="st2" d="M82.344,73.724l-6.207-16.605c-1.491,2.071-0.97,3.363-0.262,4.943l7.313,17.46
									C83.182,78.871,82.598,74.373,82.344,73.724z"/>
							</g>
							<path class="st5" d="M54.079,88.167l4.704,10.996c5.975,12.949,18.105,18.025,28.523,13.354
								c10.42-4.672,14.76-18.523,8.765-32.539l-3.506-7.482L54.079,88.167z"/>
							<g>
								<path class="st5" d="M88.982,88.527c1.24,2.764,0.004,6.008-2.762,7.248l0,0c-2.764,1.242-6.011,0.004-7.248-2.76
									L65.395,62.737c-1.24-2.766-0.004-6.012,2.762-7.251l0,0c2.764-1.241,6.01-0.004,7.248,2.761L88.982,88.527z"/>
								<path class="st2" d="M70.998,72.386l-5.082-15.053c-1.241,1.771-1.365,3.511-0.657,5.089l5.321,12.441
									C70.574,74.207,71.256,73.033,70.998,72.386z"/>
							</g>
							<g>
								<path class="st5" d="M73.539,78.802c1.678,2.912-0.218,7.096-3.023,8.24l0,0c-2.805,1.145-6.08-0.377-7.313-3.404
									L45.855,42.055c-1.238-3.024,0.037-6.404,2.844-7.548l0,0c2.806-1.146,5.827,0.522,6.945,2.813l17.973,41.662"/>
								<path class="st2" d="M61.955,80.324l-7.449-20.387c-0.977-2.281-8.318-17.873-7.611-16.143l17.193,42.752
									C64.088,85.849,62.209,81.027,61.955,80.324z"/>
							</g>
							<path class="st5" d="M63.999,85.292c1.105,2.822,5.556,11.361,2.735,12.467l-3.046,7.654
								c-2.819,1.105-10.794-18.48-11.421-20.064L37.616,50.11c-1.583-4.056-0.193-7.241,2.63-8.346l0,0
								c2.82-1.104,6.002,0.287,7.107,3.107L63.999,85.292z"/>
							<path class="st6" d="M46.287,47.197l-0.99-2.515c-0.701-1.785-2.826-2.625-4.744-1.876c-1.92,0.749-2.906,2.805-2.203,4.589
								l0.988,2.516c0,0,1.221,0.223,3.521-0.7C45.714,48.064,45.693,47.785,46.287,47.197z"/>
							<path class="st6" d="M55.048,39.891l-1.026-2.5c-0.727-1.776-2.862-2.586-4.77-1.811c-1.91,0.778-2.867,2.846-2.139,4.622
								l1.024,2.501c0,0,1.224,0.205,3.511-0.751C54.487,40.766,54.463,40.487,55.048,39.891z"/>
							<g>
								<path class="st6" d="M54.154,65.953c0.08,0.206-0.02,0.433-0.225,0.516l-6.428,2.518c-0.205,0.08-0.435-0.019-0.512-0.226
									l0,0c-0.081-0.203,0.019-0.434,0.223-0.512l6.428-2.518C53.846,65.651,54.075,65.751,54.154,65.953L54.154,65.953z"/>
								<path class="st6" d="M53.201,68.433c0.069,0.18-0.018,0.382-0.198,0.454l-3.179,1.244c-0.18,0.072-0.383-0.02-0.453-0.197
									l0,0c-0.071-0.182,0.021-0.383,0.197-0.455l3.178-1.247C52.928,68.162,53.131,68.251,53.201,68.433L53.201,68.433z"/>
							</g>
							<g>
								<path class="st6" d="M62.949,57.407c0.081,0.205-0.02,0.434-0.225,0.515l-6.431,2.507c-0.206,0.08-0.435-0.019-0.514-0.225
									l0,0c-0.079-0.204,0.021-0.435,0.226-0.513l6.433-2.51C62.643,57.103,62.871,57.203,62.949,57.407L62.949,57.407z"/>
								<path class="st6" d="M61.994,59.883c0.068,0.183-0.018,0.383-0.201,0.454l-3.178,1.241c-0.182,0.07-0.385-0.021-0.455-0.198
									l0,0c-0.07-0.184,0.021-0.382,0.199-0.456l3.179-1.24C61.721,59.613,61.924,59.702,61.994,59.883L61.994,59.883z"/>
							</g>
						</g>
					</g>
				</g>
				<path class="st2" d="M49.223,78.025l3.857,9.104l5.438,9.131l-4.933-5.857c0,0-1.94-2.182-2.36-4.607
					C50.9,83.919,49.223,78.025,49.223,78.025z"/>
				<path class="st6" d="M49.416,89.072c0.08,0.176,0,0.383-0.176,0.461l-1.603,0.752c-0.179,0.08-0.386,0-0.464-0.174l0,0
					c-0.08-0.178,0.001-0.385,0.175-0.465l1.604-0.752C49.13,88.816,49.338,88.894,49.416,89.072L49.416,89.072z"/>
				<path class="st6" d="M49.19,90.632c0.081,0.178,0.001,0.385-0.175,0.465l-0.85,0.426c-0.176,0.08-0.385-0.002-0.463-0.174l0,0
					c-0.08-0.178,0.002-0.385,0.176-0.463l0.848-0.432C48.906,90.378,49.112,90.455,49.19,90.632L49.19,90.632z"/>
				<g>
					<path class="st4" d="M59.549,82.552c0.805,0.992,0.763,2.363-0.188,3.252c-0.575,0.537,0.187,1.506,0.77,0.963
						c1.434-1.34,1.631-3.441,0.381-4.982C60.013,81.167,59.047,81.933,59.549,82.552L59.549,82.552z"/>
				</g>
				<g>
					<path class="st4" d="M70.006,77.148c1.219,1.83,0.838,4.023-0.895,5.365c-0.629,0.484,0.238,1.359,0.86,0.879
						c2.139-1.654,2.601-4.605,1.106-6.85C70.641,75.886,69.563,76.486,70.006,77.148L70.006,77.148z"/>
				</g>
				<g>
					<path class="st4" d="M79.553,75.148c0.881,1.279,0.679,2.934-0.553,3.912c-0.618,0.488,0.073,1.51,0.697,1.014
						c1.752-1.391,2.15-3.768,0.871-5.625C80.118,73.796,79.102,74.494,79.553,75.148L79.553,75.148z"/>
				</g>
				<g>
					<path class="st4" d="M89.885,72.708c0.619,0.963,0.508,2.219-0.449,2.932c-0.627,0.469-0.029,1.549,0.606,1.072
						c1.47-1.1,1.935-3.027,0.915-4.611C90.53,71.437,89.453,72.039,89.885,72.708L89.885,72.708z"/>
				</g>
			</g>
		</g>
		<g>
			<path class="st0" d="M71.69,47.501c-1.53-1.531-3.062-3.063-4.593-4.593c-0.832-0.831-0.832-2.223,0-3.055
				c1.528-1.528,3.057-3.056,4.584-4.582c1.971-1.973,5.025,1.081,3.055,3.054c-1.528,1.528-3.057,3.055-4.583,4.583
				c0-1.019,0-2.037,0-3.055c1.53,1.532,3.062,3.063,4.593,4.593C76.717,46.418,73.664,49.473,71.69,47.501L71.69,47.501z"/>
		</g>
		<g>
			<path class="st0" d="M77.76,45.72c-1.085-1.086-2.17-2.169-3.255-3.254c-0.591-0.592-0.591-1.577,0-2.167
				c1.083-1.082,2.165-2.166,3.248-3.248c1.397-1.396,3.563,0.769,2.165,2.166c-1.083,1.082-2.166,2.166-3.248,3.249
				c0-0.724,0-1.445,0-2.167c1.084,1.087,2.17,2.171,3.256,3.256C81.322,44.951,79.158,47.117,77.76,45.72L77.76,45.72z"/>
		</g>
	</g>
</g>
</svg>
