<?xml version="1.0" encoding="utf-8"?>
<!-- Generator: Adobe Illustrator 16.0.0, SVG Export Plug-In . SVG Version: 6.00 Build 0)  -->
<!DOCTYPE svg PUBLIC "-//W3C//DTD SVG 1.1//EN" "http://www.w3.org/Graphics/SVG/1.1/DTD/svg11.dtd">
<svg version="1.1" id="Layer_1" xmlns="http://www.w3.org/2000/svg" xmlns:xlink="http://www.w3.org/1999/xlink" x="0px" y="0px"
	 width="136.833px" height="136.834px" viewBox="0 0 136.833 136.834" style="enable-background:new 0 0 136.833 136.834;"
	 xml:space="preserve">
<style type="text/css">
<![CDATA[
	.st0{fill:#B6E2EA;}
	.st1{fill:#88CED7;}
	.st2{fill:#EDAC80;}
	.st3{fill:#EFEFEF;}
	.st4{fill:#F5B88E;}
	.st5{fill:#FBC096;}
	.st6{fill:#FDD7B3;}
	.st7{fill:none;}
]]>
</style>
<g>
	<g>
		<circle class="st3" cx="68.417" cy="68.418" r="63.333"/>
	</g>
	<g>
		<circle class="st0" cx="61.524" cy="38.02" r="9.578"/>
		<g>
			<path class="st5" d="M53.613,67.475L49.99,77.592c0,0-1.041,1.436-0.25,5.758c1.249,6.819,1.72,9.691,3.53,12.683
				c4.569,7.545,9.768,13.14,9.768,13.14l-1.503-22.482c0,0-3.344-9.656-2.453-12.515c2.166-6.938-4.754-8.294-4.754-8.294
				L53.613,67.475z"/>
			<path class="st6" d="M51.721,72.706l2.176-6.685c0,0,1.55,0.974,1.675,2.114C55.709,69.396,53.58,72.687,51.721,72.706z"/>
			<g>
				<g>
					<g>
						<g>
							<path class="st5" d="M98.307,81.124c0.051,3.029-2.07,12.649-5.101,12.703l0,0c-3.028,0.052-5.526-2.362-5.579-5.39
								l-0.575-23.324c-0.054-3.03,1.33-5.436,4.36-5.487l0,0c3.028-0.052,4.174,1.65,4.79,5.392L98.307,81.124z"/>
							<path class="st2" d="M88.3,80.456l0.732-20.17c-1.471,1.035-2.011,2.584-1.98,4.313l-0.144,18.932
								C87.159,82.927,88.279,81.152,88.3,80.456z"/>
						</g>
						<path class="st5" d="M56.746,80.029v11.962c0.402,14.253,9.559,23.692,20.975,23.493
							c11.416-0.196,20.854-11.225,20.854-26.471l-0.281-8.259L56.746,80.029z"/>
						<g>
							<path class="st5" d="M88.695,94.088c0.054,3.026-2.36,5.524-5.39,5.578l0,0c-3.029,0.052-5.528-2.36-5.579-5.391
								l-0.578-33.177c-0.052-3.031,2.361-5.528,5.391-5.581l0,0c3.028-0.054,5.526,2.361,5.579,5.39L88.695,94.088z"/>
							<path class="st2" d="M77.428,78.072l2.101-21.59c-1.235,1.025-2.41,2.542-2.38,4.272l-0.143,19.274
								C77.258,79.424,77.41,78.769,77.428,78.072z"/>
						</g>
						<g>
							<path class="st5" d="M78.223,89.761c0.507,3.081-1.906,5.578-4.936,5.631l0,0c-3.029,0.052-5.528-2.36-5.578-5.39
								l-0.575-33.179c-0.055-3.029,2.358-5.528,5.388-5.58l0,0c3.029-0.052,5.529,2.36,5.125,5.339"/>
							<path class="st2" d="M67.411,73.8l2.268-21.702c-1.345,0.83-2.567,2.651-2.535,4.385l-0.156,19.273
								C67.24,75.151,67.393,74.494,67.411,73.8z"/>
						</g>
						<path class="st5" d="M67.822,87.243c0.053,3.029-2.36,5.527-5.39,5.579l0,0c-3.028,0.055-5.528-2.36-5.563-4.066l-0.662-49.91
							c-0.07-4.353,2.342-6.853,5.373-6.904l0,0c3.029-0.052,5.527,2.36,5.579,5.391L67.822,87.243z"/>
						<path class="st6" d="M65.35,39.139l-0.051-2.701c-0.036-1.918-1.734-3.446-3.793-3.413c-2.061,0.033-3.701,1.614-3.665,3.534
							l0.049,2.701c0,0,1.067,0.635,3.545,0.569C64.512,39.752,64.588,39.483,65.35,39.139z"/>
						<g>
							<path class="st6" d="M66.186,62.255c0.004,0.221-0.169,0.399-0.389,0.403l-6.903,0.119c-0.22,0.004-0.401-0.169-0.402-0.389
								l0,0c-0.004-0.219,0.169-0.4,0.388-0.403l6.904-0.118C66.002,61.862,66.183,62.036,66.186,62.255L66.186,62.255z"/>
							<path class="st6" d="M64.428,64.245c0.003,0.192-0.149,0.352-0.344,0.355l-3.412,0.06c-0.193,0.004-0.353-0.153-0.356-0.343
								l0,0c-0.003-0.195,0.152-0.353,0.343-0.357l3.412-0.062C64.266,63.896,64.426,64.051,64.428,64.245L64.428,64.245z"/>
						</g>
					</g>
				</g>
			</g>
			<path class="st2" d="M56.746,66.878l0.402,24.931l-1.735-9.919c0,0-0.705-3.354-0.138-5.749
				C55.714,74.289,56.746,66.878,56.746,66.878z"/>
			<path class="st6" d="M52.102,79.029c0.005,0.193-0.148,0.351-0.343,0.354l-1.769,0.06c-0.194,0.004-0.353-0.151-0.357-0.343l0,0
				c-0.004-0.195,0.152-0.353,0.343-0.358l1.771-0.06C51.94,78.68,52.101,78.834,52.102,79.029L52.102,79.029z"/>
			<path class="st6" d="M51.281,80.376c0.005,0.192-0.149,0.351-0.343,0.355l-0.948,0.06c-0.194,0.004-0.353-0.152-0.357-0.342l0,0
				c-0.004-0.195,0.152-0.354,0.343-0.358l0.949-0.062C51.119,80.029,51.279,80.182,51.281,80.376L51.281,80.376z"/>
			<g>
				<path class="st4" d="M65.45,79.772c0.349,1.229-0.229,2.473-1.451,2.915c-0.741,0.268-0.422,1.46,0.328,1.188
					c1.846-0.668,2.854-2.523,2.31-4.431C66.42,78.682,65.232,79.007,65.45,79.772L65.45,79.772z"/>
			</g>
			<g>
				<path class="st4" d="M76.229,78.115c0.736,2.07-0.168,4.106-2.175,4.984c-0.727,0.316-0.1,1.379,0.621,1.063
					c2.477-1.082,3.645-3.833,2.741-6.374C77.153,77.045,75.961,77.365,76.229,78.115L76.229,78.115z"/>
			</g>
			<g>
				<path class="st4" d="M85.83,79.474c0.415,1.495-0.318,2.992-1.801,3.514c-0.745,0.263-0.424,1.451,0.327,1.188
					c2.11-0.742,3.264-2.857,2.662-5.031C86.806,78.38,85.617,78.706,85.83,79.474L85.83,79.474z"/>
			</g>
			<g>
				<path class="st4" d="M95.493,79.864c0.366,1.085-0.048,2.273-1.148,2.732c-0.722,0.302-0.406,1.495,0.327,1.188
					c1.694-0.708,2.613-2.467,2.009-4.25C96.428,78.786,95.238,79.107,95.493,79.864L95.493,79.864z"/>
			</g>
		</g>
		<g>
			<path class="st0" d="M45.289,29.275c-2.143,2.145-4.287,4.287-6.43,6.43c-1.164,1.165-1.164,3.113,0,4.277
				c2.139,2.138,4.278,4.276,6.416,6.415c2.761,2.76,7.036-1.517,4.276-4.277c-2.138-2.138-4.277-4.276-6.416-6.415
				c0,1.427,0,2.851,0,4.277c2.144-2.144,4.287-4.287,6.43-6.43C52.325,30.792,48.048,26.517,45.289,29.275L45.289,29.275z"/>
		</g>
		<g>
			<path class="st0" d="M78.461,29.275c2.143,2.145,4.286,4.287,6.429,6.43c1.165,1.165,1.165,3.113,0,4.277
				c-2.139,2.138-4.277,4.276-6.415,6.415c-2.76,2.76-7.037-1.517-4.277-4.277c2.138-2.138,4.278-4.276,6.415-6.415
				c0,1.427,0,2.851,0,4.277c-2.142-2.144-4.285-4.287-6.429-6.43C71.425,30.792,75.701,26.517,78.461,29.275L78.461,29.275z"/>
		</g>
	</g>
</g>
</svg>
