<?xml version="1.0" encoding="utf-8"?>
<!-- Generator: Adobe Illustrator 16.0.0, SVG Export Plug-In . SVG Version: 6.00 Build 0)  -->
<!DOCTYPE svg PUBLIC "-//W3C//DTD SVG 1.1//EN" "http://www.w3.org/Graphics/SVG/1.1/DTD/svg11.dtd">
<svg version="1.1" id="Layer_1" xmlns="http://www.w3.org/2000/svg" xmlns:xlink="http://www.w3.org/1999/xlink" x="0px" y="0px"
	 width="136.833px" height="136.834px" viewBox="0 0 136.833 136.834" style="enable-background:new 0 0 136.833 136.834;"
	 xml:space="preserve">
<style type="text/css">
<![CDATA[
	.st0{fill:#B6E2EA;}
	.st1{fill:#88CED7;}
	.st2{fill:#EDAC80;}
	.st3{fill:#EFEFEF;}
	.st4{fill:#F5B88E;}
	.st5{fill:#FBC096;}
	.st6{fill:#FDD7B3;}
	.st7{fill:none;}
]]>
</style>
<g>
	<g>
		<path class="st3" d="M5.083,68.418c0-34.98,28.355-63.334,63.332-63.334c34.979,0,63.334,28.354,63.334,63.334
			c0,34.976-28.355,63.331-63.334,63.331C33.439,131.749,5.083,103.394,5.083,68.418z"/>
	</g>
	<g>
		<circle class="st0" cx="113.982" cy="62.778" r="9.27"/>
		<g>
			<path class="st5" d="M85.387,72.05l-10.131,2.361c0,0-1.71-0.094-4.813,2.819c-4.89,4.591-6.979,6.481-8.462,9.522
				c-3.74,7.674-5.563,14.838-5.563,14.838l17.496-13.017c0,0,6.099-7.785,8.893-8.561c6.779-1.879,4.252-8.219,4.252-8.219
				L85.387,72.05z"/>
			<path class="st6" d="M80.14,73.256l6.579-1.736c0,0,0.021,1.771-0.842,2.474C84.925,74.765,81.13,74.76,80.14,73.256z"/>
			<g>
				<g>
					<g>
						<g>
							<path class="st5" d="M97.731,115.563c-2.437,1.63-11.373,4.95-13.007,2.514l0,0c-1.631-2.436-0.978-5.733,1.457-7.366
								l18.667-12.702c2.438-1.633,5.12-1.77,6.752,0.668l0,0c1.63,2.438,0.846,4.261-1.873,6.724L97.731,115.563z"/>
							<path class="st2" d="M93.027,107.073l16.787-9.985c-1.612-0.654-3.157-0.28-4.547,0.651l-15.473,9.814
								C90.418,107.441,92.45,107.421,93.027,107.073z"/>
						</g>
						<path class="st5" d="M76.82,81.186l-9.729,6.274c-11.382,7.806-14.255,20.204-8.106,29.385
							c6.151,9.182,20.07,11.073,32.471,3.074l6.568-4.561L76.82,81.186z"/>
						<g>
							<path class="st5" d="M82.146,114.546c-2.434,1.633-5.729,0.979-7.363-1.457l0,0c-1.635-2.436-0.981-5.735,1.458-7.365
								l26.68-17.874c2.438-1.633,5.735-0.981,7.367,1.458l0,0c1.632,2.434,0.979,5.731-1.457,7.362L82.146,114.546z"/>
							<path class="st2" d="M89.261,96.98l18.662-9.618c-1.483-0.465-3.332-0.626-4.724,0.306l-15.751,9.994
								C88.074,97.551,88.687,97.33,89.261,96.98z"/>
						</g>
						<g>
							<path class="st5" d="M80.172,103.758c-2.24,2.028-5.539,1.376-7.17-1.06l0,0c-1.632-2.436-0.98-5.734,1.457-7.364
								l26.683-17.872c2.436-1.637,5.733-0.983,7.365,1.453l0,0c1.634,2.436,0.981,5.737-1.652,6.97"/>
							<path class="st2" d="M87.481,86.59l18.84-9.539c-1.381-0.658-3.503-0.696-4.895,0.237l-15.757,9.984
								C86.292,87.16,86.906,86.941,87.481,86.59z"/>
						</g>
						<path class="st5" d="M76.764,93.979c-2.437,1.631-5.734,0.979-7.366-1.458l0,0c-1.633-2.435-0.98-5.734,0.389-6.657
							l40.246-26.721c3.503-2.341,6.802-1.69,8.436,0.747l0,0c1.631,2.438,0.978,5.733-1.458,7.366L76.764,93.979z"/>
						<path class="st6" d="M114.59,66.732l2.171-1.459c1.542-1.035,1.894-3.218,0.788-4.874c-1.11-1.657-3.256-2.163-4.798-1.129
							l-2.171,1.457c0,0,0.043,1.202,1.396,3.184C113.652,66.371,113.911,66.294,114.59,66.732z"/>
						<g>
							<path class="st6" d="M96.229,79.539c-0.177,0.118-0.414,0.07-0.533-0.105l-3.718-5.553c-0.118-0.176-0.072-0.413,0.106-0.53
								l0,0c0.176-0.117,0.414-0.069,0.53,0.104l3.719,5.554C96.451,79.184,96.405,79.422,96.229,79.539L96.229,79.539z"/>
							<path class="st6" d="M93.688,79.153c-0.155,0.102-0.364,0.063-0.469-0.094l-1.838-2.744c-0.105-0.156-0.063-0.365,0.091-0.47
								l0,0c0.158-0.104,0.367-0.061,0.471,0.091l1.839,2.746C93.885,78.839,93.844,79.05,93.688,79.153L93.688,79.153z"/>
						</g>
					</g>
				</g>
			</g>
			<path class="st2" d="M87.516,74.286L67.45,87.692l7.158-6.615c0,0,2.359-2.333,4.603-3.128
				C80.947,77.335,87.516,74.286,87.516,74.286z"/>
			<path class="st6" d="M75.196,76.884c-0.154,0.104-0.361,0.062-0.469-0.094l-0.975-1.405c-0.105-0.157-0.062-0.368,0.09-0.471l0,0
				c0.158-0.107,0.368-0.062,0.473,0.09l0.976,1.409C75.396,76.569,75.354,76.781,75.196,76.884L75.196,76.884z"/>
			<path class="st6" d="M73.67,76.923c-0.153,0.105-0.364,0.063-0.47-0.094l-0.544-0.74c-0.106-0.155-0.062-0.367,0.091-0.468l0,0
				c0.157-0.107,0.366-0.063,0.472,0.091l0.548,0.739C73.87,76.609,73.828,76.82,73.67,76.923L73.67,76.923z"/>
			<g>
				<path class="st4" d="M81.595,88.128c-0.816,0.932-2.131,1.114-3.132,0.353c-0.606-0.463-1.407,0.422-0.793,0.89
					c1.511,1.148,3.547,0.998,4.815-0.447C82.991,88.348,82.103,87.551,81.595,88.128L81.595,88.128z"/>
			</g>
			<g>
				<path class="st4" d="M88.598,96.028c-1.299,1.686-3.427,2.017-5.194,0.845c-0.64-0.425-1.173,0.643-0.54,1.063
					c2.18,1.446,5.03,0.953,6.621-1.113C89.953,96.217,89.067,95.417,88.598,96.028L88.598,96.028z"/>
			</g>
			<g>
				<path class="st4" d="M92.529,104.548c-0.998,1.121-2.602,1.312-3.804,0.379c-0.601-0.469-1.402,0.416-0.793,0.891
					c1.708,1.325,4.036,1.154,5.487-0.475C93.93,104.77,93.042,103.972,92.529,104.548L92.529,104.548z"/>
			</g>
			<g>
				<path class="st4" d="M97.282,112.611c-0.691,0.868-1.875,1.154-2.827,0.501c-0.624-0.428-1.428,0.455-0.795,0.889
					c1.465,1.008,3.377,0.831,4.511-0.596C98.648,112.806,97.762,112.009,97.282,112.611L97.282,112.611z"/>
			</g>
		</g>
		<circle class="st0" cx="79.059" cy="27.077" r="9.27"/>
		<g>
			<path class="st5" d="M66.514,53.668l-3.676,9.729c0,0-0.132,1.711-3.429,4.401c-5.195,4.241-7.345,6.064-10.554,7.132
				c-8.102,2.695-15.443,3.558-15.443,3.558L48.623,62.86c0,0,8.521-5.019,9.658-7.686c2.756-6.474,8.707-3.133,8.707-3.133
				L66.514,53.668z"/>
			<path class="st6" d="M64.627,58.71l2.589-6.291c0,0-1.752-0.255-2.562,0.508C63.764,53.767,63.269,57.528,64.627,58.71z"/>
			<g>
				<g>
					<g>
						<g>
							<path class="st5" d="M25.013,35.692c-1.939,2.197-6.41,10.62-4.209,12.561l0,0c2.199,1.938,5.554,1.725,7.492-0.474
								L43.352,30.95c1.94-2.199,2.429-4.84,0.228-6.779l0,0c-2.2-1.939-4.111-1.4-6.912,0.969L25.013,35.692z"/>
							<path class="st2" d="M32.805,41.474l12.114-15.322c0.435,1.684-0.139,3.166-1.247,4.42L31.902,44.614
								C32.097,44.012,32.386,42.002,32.805,41.474z"/>
						</g>
						<path class="st5" d="M56.329,60.955l-7.503,8.814c-9.239,10.253-21.907,11.465-30.197,4.157
							c-8.289-7.304-8.327-21.354,1.237-32.589l5.388-5.91L56.329,60.955z"/>
						<g>
							<path class="st5" d="M23.963,51.273c-1.939,2.198-1.726,5.554,0.473,7.492l0,0c2.198,1.941,5.554,1.729,7.493-0.475
								l21.238-24.088c1.939-2.2,1.729-5.555-0.472-7.494l0,0c-2.199-1.939-5.553-1.727-7.492,0.474L23.963,51.273z"/>
							<path class="st2" d="M42.314,46.539l11.998-17.229c0.265,1.53,0.18,3.385-0.928,4.641L41.398,48.245
								C41.592,47.641,41.891,47.062,42.314,46.539z"/>
						</g>
						<g>
							<path class="st5" d="M34.396,54.655c-2.306,1.953-2.095,5.306,0.106,7.244l0,0c2.199,1.938,5.555,1.73,7.492-0.473
								l21.236-24.09c1.943-2.199,1.731-5.555-0.47-7.494l0,0c-2.199-1.938-5.556-1.728-7.126,0.718"/>
							<path class="st2" d="M52.378,49.675L64.32,32.259c0.471,1.453,0.228,3.563-0.881,4.819L51.462,51.38
								C51.656,50.777,51.955,50.196,52.378,49.675z"/>
						</g>
						<path class="st5" d="M43.64,59.324c-1.939,2.198-1.729,5.552,0.473,7.492l0,0c2.198,1.939,5.556,1.729,6.65,0.492
							l31.798-36.367c2.783-3.164,2.573-6.521,0.372-8.46l0,0c-2.202-1.939-5.555-1.727-7.493,0.472L43.64,59.324z"/>
						<path class="st6" d="M75.639,25.42l1.733-1.958c1.229-1.394,3.44-1.452,4.936-0.136c1.498,1.317,1.715,3.512,0.486,4.906
							l-1.733,1.956c0,0-1.184-0.2-2.97-1.802C75.873,26.398,75.984,26.153,75.639,25.42z"/>
						<g>
							<path class="st6" d="M60.522,41.934c-0.14,0.159-0.125,0.399,0.034,0.543l5.012,4.416c0.161,0.141,0.403,0.126,0.542-0.034
								l0,0c0.14-0.16,0.125-0.4-0.035-0.54l-5.013-4.42C60.905,41.76,60.662,41.774,60.522,41.934L60.522,41.934z"/>
							<path class="st6" d="M60.568,44.503c-0.124,0.141-0.11,0.354,0.032,0.477l2.477,2.187c0.141,0.123,0.356,0.108,0.479-0.028
								l0,0c0.123-0.143,0.108-0.357-0.03-0.48l-2.477-2.186C60.906,44.349,60.693,44.362,60.568,44.503L60.568,44.503z"/>
						</g>
					</g>
				</g>
			</g>
			<path class="st2" d="M64.58,51.264L48.644,69.386l7.501-6.225c0,0,2.623-2.03,3.707-4.148
				C60.69,57.373,64.58,51.264,64.58,51.264z"/>
			<path class="st6" d="M60.379,63.131c-0.124,0.139-0.111,0.352,0.029,0.478l1.267,1.154c0.141,0.123,0.357,0.109,0.479-0.028l0,0
				c0.125-0.144,0.109-0.357-0.029-0.48L60.861,63.1C60.717,62.977,60.503,62.989,60.379,63.131L60.379,63.131z"/>
			<path class="st6" d="M60.139,64.639c-0.124,0.14-0.11,0.354,0.031,0.478l0.661,0.638c0.141,0.126,0.355,0.109,0.479-0.026l0,0
				c0.126-0.142,0.108-0.357-0.029-0.48l-0.661-0.641C60.477,64.482,60.263,64.499,60.139,64.639L60.139,64.639z"/>
			<g>
				<path class="st4" d="M50.077,55.306c-1.028,0.688-1.385,1.966-0.761,3.058c0.378,0.663-0.604,1.341-0.988,0.671
					c-0.939-1.65-0.519-3.648,1.078-4.714C50.043,53.892,50.719,54.877,50.077,55.306L50.077,55.306z"/>
			</g>
			<g>
				<path class="st4" d="M43.169,47.322c-1.84,1.064-2.451,3.132-1.522,5.037c0.336,0.689-0.794,1.078-1.124,0.395
					c-1.147-2.352-0.283-5.111,1.978-6.418C43.162,45.954,43.838,46.938,43.169,47.322L43.169,47.322z"/>
			</g>
			<g>
				<path class="st4" d="M35.245,42.301c-1.245,0.845-1.644,2.406-0.878,3.721c0.384,0.659-0.598,1.334-0.986,0.67
					c-1.091-1.87-0.614-4.153,1.193-5.376C35.209,40.884,35.882,41.87,35.245,42.301L35.245,42.301z"/>
			</g>
			<g>
				<path class="st4" d="M27.877,36.526c-0.951,0.569-1.391,1.707-0.868,2.737c0.342,0.673-0.639,1.354-0.986,0.668
					c-0.806-1.583-0.379-3.455,1.185-4.393C27.864,35.146,28.539,36.131,27.877,36.526L27.877,36.526z"/>
			</g>
		</g>
		<g>
			<path class="st0" d="M108.549,44.886c-2.934,0-5.867,0-8.801,0c-1.594,0-2.926,1.332-2.928,2.926
				c0.002,2.928,0.002,5.854,0.002,8.78c0,3.778,5.853,3.778,5.853,0c0-2.926,0-5.853,0-8.78c-0.976,0.978-1.951,1.951-2.927,2.928
				c2.934,0,5.867,0,8.801,0C112.326,50.739,112.326,44.886,108.549,44.886L108.549,44.886z"/>
		</g>
		<g>
			<path class="st0" d="M96.098,32.435c-0.002,2.934-0.001,5.866-0.001,8.8c0,1.594-1.333,2.926-2.927,2.926
				c-2.927,0-5.855,0-8.781,0c-3.777,0-3.777-5.854,0-5.854c2.926,0,5.854,0,8.781,0c-0.977,0.977-1.951,1.95-2.928,2.928
				c0.002-2.934,0.001-5.866,0.001-8.8C90.243,28.658,96.097,28.656,96.098,32.435L96.098,32.435z"/>
		</g>
	</g>
</g>
</svg>
