<?xml version="1.0" encoding="utf-8"?>
<!-- Generator: Adobe Illustrator 16.0.0, SVG Export Plug-In . SVG Version: 6.00 Build 0)  -->
<!DOCTYPE svg PUBLIC "-//W3C//DTD SVG 1.1//EN" "http://www.w3.org/Graphics/SVG/1.1/DTD/svg11.dtd">
<svg version="1.1" id="Layer_1" xmlns="http://www.w3.org/2000/svg" xmlns:xlink="http://www.w3.org/1999/xlink" x="0px" y="0px"
	 width="136.833px" height="136.833px" viewBox="0 0 136.833 136.833" style="enable-background:new 0 0 136.833 136.833;"
	 xml:space="preserve">
<style type="text/css">
<![CDATA[
	.st0{fill:#B6E2EA;}
	.st1{fill:#88CED7;}
	.st2{fill:#EDAC80;}
	.st3{fill:#EFEFEF;}
	.st4{fill:#F5B88E;}
	.st5{fill:#FBC096;}
	.st6{fill:#FDD7B3;}
	.st7{fill:none;}
]]>
</style>
<g>
	<g>
		<circle class="st3" cx="68.417" cy="68.418" r="63.333"/>
	</g>
	<g>
		<circle class="st0" cx="56.154" cy="38.529" r="9.578"/>
		<circle class="st0" cx="73.188" cy="34.217" r="9.578"/>
		<g>
			<path class="st5" d="M50.251,69.539l-3.623,10.119c0,0-1.042,1.434-0.25,5.756c1.247,6.82,1.72,9.693,3.53,12.684
				c4.568,7.545,9.768,13.139,9.768,13.139l-1.503-22.482c0,0-3.345-9.654-2.453-12.514c2.165-6.94-4.755-8.295-4.755-8.295
				L50.251,69.539z"/>
			<path class="st6" d="M48.357,74.771l2.178-6.686c0,0,1.55,0.974,1.674,2.116C52.348,71.458,50.219,74.751,48.357,74.771z"/>
			<g>
				<g>
					<g>
						<g>
							<path class="st5" d="M94.945,83.189c0.052,3.029-2.071,12.646-5.102,12.701l0,0c-3.027,0.053-5.525-2.361-5.578-5.389
								L83.69,67.178c-0.054-3.03,1.329-5.436,4.36-5.487l0,0c3.027-0.052,4.174,1.651,4.791,5.391L94.945,83.189z"/>
							<path class="st2" d="M85.051,79.931l1.613-18.018c-1.956,0.418-3.004,3.021-2.974,4.751l-0.144,18.931
								C83.797,84.992,85.031,80.625,85.051,79.931z"/>
						</g>
						<path class="st5" d="M53.384,82.093v11.961c0.402,14.254,9.56,23.691,20.976,23.494s20.854-11.225,20.854-26.471l-0.282-8.258
							L53.384,82.093z"/>
						<g>
							<path class="st5" d="M85.334,96.152c0.054,3.027-2.359,5.523-5.391,5.578l0,0c-3.028,0.055-5.527-2.361-5.578-5.391
								l-0.577-33.176c-0.052-3.03,2.36-5.529,5.39-5.58l0,0c3.029-0.055,5.527,2.359,5.58,5.39L85.334,96.152z"/>
							<path class="st2" d="M75.146,74.238l2.491-16.225c-1.997,0-3.882,3.076-3.851,4.808l0.001,13.531
								C74.039,75.746,75.129,74.933,75.146,74.238z"/>
						</g>
						<g>
							<path class="st5" d="M74.704,80.345c0.145,3.357-3.467,6.193-6.484,5.918l0,0c-3.017-0.281-5.221-3.141-4.917-6.395
								l3.788-44.898c0.298-3.253,2.988-5.664,6.007-5.385l0,0c3.016,0.277,4.928,3.152,4.863,5.701L74.69,80.542"/>
							<path class="st2" d="M63.725,76.351l2.368-19.295c0.274-13.694,0.79-19.457,0.62-17.598l-3.967,43.399
								C63.068,82.238,63.625,77.093,63.725,76.351z"/>
						</g>
						<path class="st5" d="M65.133,82.857c0.15,3.027-2.829,11.85-5.855,12l0,0c-3.025,0.152-6.098-13.732-6.188-15.434
							l-1.771-38.316c-0.209-4.348,2.12-6.925,5.149-7.074l0,0c3.025-0.148,5.6,2.183,5.75,5.208L65.133,82.857z"/>
						<path class="st6" d="M60.467,41.106l-0.138-2.699c-0.098-1.916-1.845-3.388-3.901-3.289c-2.059,0.101-3.646,1.733-3.549,3.65
							l0.136,2.698c0,0,1.087,0.601,3.562,0.456C59.648,41.746,59.717,41.475,60.467,41.106z"/>
						<path class="st6" d="M76.246,37.291L76.49,34.6c0.172-1.911-1.35-3.613-3.399-3.807c-2.052-0.19-3.855,1.203-4.028,3.115
							l-0.246,2.69c0,0,0.992,0.746,3.463,0.953C75.346,37.81,75.451,37.55,76.246,37.291z"/>
						<g>
							<path class="st6" d="M61.955,61.392c0.012,0.219-0.156,0.404-0.377,0.416l-6.895,0.34c-0.22,0.011-0.406-0.155-0.414-0.376
								l0,0c-0.011-0.218,0.156-0.403,0.376-0.414l6.895-0.342C61.76,61.005,61.945,61.173,61.955,61.392L61.955,61.392z"/>
							<path class="st6" d="M60.264,63.438c0.008,0.193-0.139,0.356-0.333,0.366l-3.409,0.17c-0.193,0.009-0.357-0.143-0.367-0.332
								l0,0c-0.01-0.195,0.143-0.356,0.332-0.369l3.408-0.171C60.09,63.095,60.254,63.243,60.264,63.438L60.264,63.438z"/>
						</g>
						<g>
							<path class="st6" d="M75.178,56.478c-0.023,0.219-0.219,0.375-0.436,0.354l-6.865-0.742
								c-0.219-0.024-0.377-0.218-0.351-0.437l0,0c0.023-0.217,0.22-0.375,0.435-0.352l6.865,0.742
								C75.045,56.065,75.201,56.261,75.178,56.478L75.178,56.478z"/>
							<path class="st6" d="M73.186,58.233c-0.021,0.193-0.191,0.331-0.385,0.311l-3.394-0.365
								c-0.192-0.021-0.331-0.195-0.311-0.386l0,0c0.021-0.194,0.194-0.33,0.386-0.312l3.393,0.364
								C73.068,57.868,73.209,58.041,73.186,58.233L73.186,58.233z"/>
						</g>
					</g>
				</g>
			</g>
			<path class="st2" d="M52.584,68.942l0.29,11.803l1.756,13.129l-2.579-9.92c0,0-0.926-2.77-0.358-5.164
				C52.131,76.939,52.584,68.942,52.584,68.942z"/>
			<path class="st6" d="M48.74,81.093c0.004,0.193-0.148,0.352-0.344,0.355l-1.769,0.061c-0.194,0.002-0.354-0.154-0.357-0.344l0,0
				c-0.003-0.195,0.151-0.354,0.344-0.359l1.771-0.061C48.579,80.744,48.738,80.898,48.74,81.093L48.74,81.093z"/>
			<path class="st6" d="M47.92,82.441c0.004,0.193-0.148,0.352-0.344,0.355l-0.948,0.059c-0.194,0.004-0.354-0.152-0.357-0.342l0,0
				c-0.003-0.195,0.151-0.354,0.344-0.357l0.949-0.063C47.758,82.093,47.918,82.246,47.92,82.441L47.92,82.441z"/>
			<g>
				<path class="st4" d="M62.224,80.404c0.349,1.23-0.229,2.473-1.45,2.916c-0.741,0.266-0.422,1.459,0.327,1.188
					c1.846-0.67,2.854-2.523,2.31-4.432C63.193,79.314,62.005,79.636,62.224,80.404L62.224,80.404z"/>
			</g>
			<g>
				<path class="st4" d="M72.359,78.228c0.401,2.16-0.812,4.027-2.932,4.578c-0.768,0.199-0.316,1.346,0.445,1.148
					c2.617-0.68,4.202-3.213,3.711-5.863C73.441,77.316,72.213,77.443,72.359,78.228L72.359,78.228z"/>
			</g>
			<g>
				<path class="st4" d="M81.926,80.14c0.307,1.523-0.531,2.965-2.047,3.379c-0.762,0.209-0.527,1.418,0.242,1.209
					c2.156-0.59,3.459-2.617,3.012-4.828C82.977,79.123,81.768,79.361,81.926,80.14L81.926,80.14z"/>
			</g>
			<g>
				<path class="st4" d="M92.383,81.962c0.19,1.129-0.406,2.238-1.564,2.518c-0.76,0.184-0.637,1.412,0.135,1.225
					c1.784-0.432,2.971-2.023,2.654-3.879C93.478,81.046,92.251,81.177,92.383,81.962L92.383,81.962z"/>
			</g>
		</g>
	</g>
</g>
</svg>
