<?xml version="1.0" encoding="utf-8"?>
<!-- Generator: Adobe Illustrator 16.0.0, SVG Export Plug-In . SVG Version: 6.00 Build 0)  -->
<!DOCTYPE svg PUBLIC "-//W3C//DTD SVG 1.1//EN" "http://www.w3.org/Graphics/SVG/1.1/DTD/svg11.dtd">
<svg version="1.1" id="Layer_1" xmlns="http://www.w3.org/2000/svg" xmlns:xlink="http://www.w3.org/1999/xlink" x="0px" y="0px"
	 width="136.833px" height="136.834px" viewBox="0 0 136.833 136.834" style="enable-background:new 0 0 136.833 136.834;"
	 xml:space="preserve">
<style type="text/css">
<![CDATA[
	.st0{fill:#B6E2EA;}
	.st1{fill:#88CED7;}
	.st2{fill:#EDAC80;}
	.st3{fill:#EFEFEF;}
	.st4{fill:#F5B88E;}
	.st5{fill:#FBC096;}
	.st6{fill:#FDD7B3;}
	.st7{fill:none;}
]]>
</style>
<g>
	<g>
		<circle class="st3" cx="68.416" cy="68.418" r="63.333"/>
	</g>
	<g>
		<circle class="st0" cx="76.222" cy="35.082" r="9.875"/>
		<circle class="st0" cx="59.863" cy="58.37" r="9.875"/>
		<g>
			<path class="st5" d="M56.813,56.084l-3.236,8.055c0,0-0.854,2.881-1.351,7.385c-0.732,6.617-0.09,10.236,1.222,14.379
				c3.544,11.2,6.926,15.948,6.926,15.948l13.386-27.714l-2.766-5.331c0,0-0.31,3.433-2.24,4.422
				c-2.809,1.441-3.948,0.953-3.948,0.953s-2.056-1.022-3.112-4.605c-0.227-0.77-0.365-2.012-0.121-2.731
				c0.521-1.531,0.799-2.867,1.098-4.378c1.488-7.518-4.537-9.068-4.537-9.068L56.813,56.084z"/>
			<path class="st6" d="M56.356,57.045l1.42-3.753c0,0,1.695,0.268,0.994,1.961C58.31,56.367,57.921,57.255,56.356,57.045z"/>
			<g>
				<g>
					<g>
						<g>
							<path class="st5" d="M102.704,87.246c-0.707,3.729-6.8,11.693-9.699,10.96l0.816-3.292c-2.898-0.732-1.203-2.293-0.604-4.661
								l2.094-19.151c0.597-2.368,2.688-3.489,5.585-2.754l0,0c2.898,0.73,2.106,5.494,2.15,8.851L102.704,87.246z"/>
							<path class="st2" d="M97.369,82.324l1.356-5.082l0.558-9.116c-0.767,0.008-0.88-0.108-3.097,0.964L93.313,86.25
								C93.683,85.845,97.2,82.858,97.369,82.324z"/>
						</g>
						<path class="st5" d="M65.222,79.269l-3.844,9.023c-5.374,4.063-3.209,16.825,7.258,20.5
							c10.629,3.731,21.064-4.444,29.813-14.101c0,0,1.605-1.555,2.195-3.112c1.965-5.185,1.838-6.643,1.838-6.643L65.222,79.269z"
							/>
						<g>
							<path class="st5" d="M99.333,86.989c-0.598,2.369-9.74,11.624-12.641,10.892l0,0c-2.896-0.733-4.763-3.248-4.16-5.616
								l4.616-26.479c0.601-2.368,2.659-4.489,6.405-3.033l0,0c2.898,0.732,4.956,4.875,4.75,7.695L99.333,86.989z"/>
							<path class="st2" d="M88.165,77.981l1.846-5.713l1.903-9.95c-1.577-0.204-2.813-0.295-3.156,1.06l-3.861,17.625
								C85.266,80.596,87.999,78.516,88.165,77.981z"/>
						</g>
						<g>
							<path class="st5" d="M89.682,82.814c-0.177,2.524-8.723,9.915-11.621,9.184l0,0c-2.897-0.734-4.763-3.248-4.161-5.616
								L80.46,60.44c0.598-2.371,3.433-3.695,6.33-2.963l0,0c2.898,0.733,3.836,2.438,3.742,5.46"/>
							<path class="st2" d="M84.161,73.685l0.106-4.588l0.615-11.811c-2.846,0.253-3.862,1.126-5.38,1.664l-3.238,16.17
								C76.634,74.715,83.996,74.221,84.161,73.685z"/>
						</g>
						<path class="st5" d="M75.498,88.642c0.052,2.989,0.269,5.352-2.722,5.401l0,0c-2.988,0.055-18.057,11.766-7.502-11.674
							l4.388-8.768c0,0,1.504-4.859,2.06-8.163c0.226-1.349,1.309-20.037,1.309-20.037c-0.873-4.53-0.758-14.507,2.525-14.536
							l0.596-0.022c2.084-0.148,3.535,0.851,4.057,4.145l2.376,21.043c0,0,1.933,13.347,1.873,15.854
							c-0.079,3.403-1.47,12.837-1.47,12.837L75.498,88.642z"/>
						<path class="st6" d="M79.87,34.343l-0.35-1.274c-0.039-0.811-1.427-1.854-2.896-1.817c-1.471,0.039-1.848,1.254-1.809,2.064
							l0.199,1.284c0,0-0.057,0.178,1.711,0.123C78.922,34.654,79.409,34.776,79.87,34.343z"/>
						<g>
							<path class="st6" d="M80.878,52.332c0.01,0.188-0.078,0.346-0.201,0.354l-3.829,0.218c-0.122,0.008-0.23-0.137-0.239-0.326
								l0,0c-0.011-0.186,0.079-0.344,0.2-0.35l3.831-0.22C80.759,52,80.867,52.147,80.878,52.332L80.878,52.332z"/>
							<path class="st6" d="M80.642,54.266c0.01,0.166-0.068,0.305-0.178,0.311l-1.893,0.108c-0.107,0.007-0.201-0.124-0.212-0.288
								l0,0c-0.009-0.166,0.071-0.303,0.177-0.311l1.893-0.109C80.538,53.973,80.633,54.1,80.642,54.266L80.642,54.266z"/>
						</g>
					</g>
				</g>
			</g>
			<path class="st6" d="M55.498,65.206c-0.038,0.158-0.196,0.248-0.354,0.208l-1.427-0.347c-0.156-0.041-0.248-0.201-0.209-0.354
				l0,0c0.04-0.158,0.199-0.249,0.354-0.21l1.427,0.345C55.446,64.891,55.54,65.051,55.498,65.206L55.498,65.206z"/>
			<path class="st6" d="M54.542,66.1c-0.039,0.154-0.197,0.249-0.354,0.206l-0.771-0.163c-0.157-0.041-0.248-0.199-0.21-0.354l0,0
				c0.041-0.156,0.2-0.247,0.354-0.208l0.773,0.162C54.489,65.786,54.583,65.944,54.542,66.1L54.542,66.1z"/>
			<g>
				<path class="st4" d="M85.866,81.544c0.186,0.756-0.524,1.321-1.756,1.308c-0.748-0.012-0.586,0.718,0.168,0.728
					c1.861,0.024,3.061-0.787,2.771-1.962C86.935,81.149,85.75,81.072,85.866,81.544L85.866,81.544z"/>
			</g>
			<g>
				<path class="st4" d="M94.3,83.141c0.152,1.375-1.148,2.035-3.151,1.638c-0.726-0.145-0.424,0.665,0.294,0.809
					c2.472,0.491,4.183-0.427,3.996-2.112C95.384,82.981,94.243,82.642,94.3,83.141L94.3,83.141z"/>
			</g>
			<g>
				<path class="st4" d="M100.146,85.497c0.215,0.92-0.676,1.593-2.167,1.563c-0.75-0.015-0.589,0.714,0.167,0.729
					c2.124,0.04,3.497-0.886,3.185-2.22C101.221,85.101,100.036,85.026,100.146,85.497L100.146,85.497z"/>
			</g>
			<g>
				<path class="st4" d="M78.806,77.954c0.215,0.916-0.676,1.591-2.168,1.563c-0.75-0.016-0.588,0.713,0.169,0.727
					c2.122,0.043,3.496-0.883,3.183-2.218C79.88,77.556,78.696,77.481,78.806,77.954L78.806,77.954z"/>
			</g>
		</g>
		<path class="st0" d="M60.623,32.147c-1.765-2.615-4.608-4.014-7.658-4.045c0.212-0.214,0.427-0.426,0.64-0.64
			c1.76-1.759-0.968-4.486-2.727-2.728c-1.368,1.365-2.734,2.733-4.102,4.101c-0.742,0.742-0.742,1.984,0,2.727
			c1.363,1.364,2.729,2.728,4.092,4.091c1.76,1.759,4.487-0.966,2.727-2.727c-0.289-0.29-0.579-0.579-0.869-0.868
			c3.986-0.112,6.906,4.16,4.762,7.824c-2.421,4.135-8.092,2.77-9.525-1.339c-0.84-2.404-4.432-0.744-3.598,1.647
			c2.492,7.138,12.155,8.198,16.33,2.004C62.702,39.221,62.61,35.097,60.623,32.147z"/>
	</g>
</g>
</svg>
