<?xml version="1.0" encoding="utf-8"?>
<!-- Generator: Adobe Illustrator 16.0.0, SVG Export Plug-In . SVG Version: 6.00 Build 0)  -->
<!DOCTYPE svg PUBLIC "-//W3C//DTD SVG 1.1//EN" "http://www.w3.org/Graphics/SVG/1.1/DTD/svg11.dtd">
<svg version="1.1" id="Layer_1" xmlns="http://www.w3.org/2000/svg" xmlns:xlink="http://www.w3.org/1999/xlink" x="0px" y="0px"
	 width="136.833px" height="136.833px" viewBox="0 0 136.833 136.833" style="enable-background:new 0 0 136.833 136.833;"
	 xml:space="preserve">
<style type="text/css">
<![CDATA[
	.st0{fill:#B6E2EA;}
	.st1{fill:#88CED7;}
	.st2{fill:#EDAC80;}
	.st3{fill:#EFEFEF;}
	.st4{fill:#F5B88E;}
	.st5{fill:#FBC096;}
	.st6{fill:#FDD7B3;}
	.st7{fill:none;}
]]>
</style>
<g>
	<g>
		<circle class="st3" cx="68.416" cy="68.418" r="63.333"/>
	</g>
	<g>
		<g>
			<circle class="st0" cx="55.77" cy="45.226" r="9.578"/>
			<circle class="st0" cx="72.804" cy="40.914" r="9.578"/>
			<g>
				<path class="st5" d="M49.867,76.235l-3.623,10.119c0,0-1.042,1.434-0.251,5.757c1.249,6.818,1.721,9.691,3.531,12.682
					c4.568,7.546,9.767,13.141,9.767,13.141L57.788,95.45c0,0-3.344-9.654-2.453-12.513c2.166-6.939-4.754-8.295-4.754-8.295
					L49.867,76.235z"/>
				<path class="st6" d="M47.974,81.467l2.176-6.685c0,0,1.551,0.974,1.676,2.115C51.964,78.156,49.835,81.448,47.974,81.467z"/>
				<g>
					<g>
						<g>
							<g>
								<path class="st5" d="M94.562,89.885c0.051,3.03-2.07,12.648-5.102,12.702l0,0c-3.028,0.053-5.526-2.362-5.578-5.389
									l-0.576-23.324c-0.053-3.03,1.33-5.436,4.359-5.487l0,0c3.029-0.052,4.176,1.651,4.792,5.391L94.562,89.885z"/>
								<path class="st2" d="M84.668,86.626l1.612-18.016c-1.957,0.417-3.005,3.021-2.975,4.75l-0.143,18.932
									C83.413,91.689,84.646,87.323,84.668,86.626z"/>
							</g>
							<path class="st5" d="M52.999,88.791v11.961c0.403,14.255,9.56,23.691,20.977,23.494c11.416-0.196,20.854-11.225,20.854-26.47
								l-0.281-8.259L52.999,88.791z"/>
							<g>
								<path class="st5" d="M84.95,102.85c0.053,3.025-2.36,5.523-5.391,5.577l0,0c-3.028,0.055-5.527-2.36-5.578-5.391
									l-0.578-33.176c-0.051-3.032,2.36-5.529,5.392-5.582l0,0c3.028-0.054,5.524,2.361,5.579,5.391L84.95,102.85z"/>
								<path class="st2" d="M74.763,80.935l2.49-16.226c-1.996,0-3.881,3.076-3.85,4.808v13.531
									C73.655,82.443,74.743,81.629,74.763,80.935z"/>
							</g>
							<g>
								<path class="st5" d="M74.319,87.041c0.145,3.36-3.465,6.195-6.483,5.919l0,0c-3.016-0.279-5.22-3.142-4.917-6.393
									l3.788-44.898c0.298-3.254,2.987-5.667,6.005-5.387l0,0c3.018,0.279,4.93,3.153,4.865,5.702L74.306,87.24"/>
								<path class="st2" d="M63.339,83.048l2.37-19.296c0.273-13.694,0.79-19.458,0.62-17.599l-3.967,43.4
									C62.685,88.935,63.241,83.792,63.339,83.048z"/>
							</g>
							<path class="st5" d="M64.749,89.554c0.15,3.027-2.83,11.85-5.856,12l0,0c-3.024,0.152-6.097-13.732-6.187-15.436
								l-1.771-38.313c-0.21-4.35,2.122-6.926,5.148-7.074l0,0c3.026-0.15,5.599,2.181,5.749,5.207L64.749,89.554z"/>
							<path class="st6" d="M60.083,47.803l-0.139-2.698c-0.097-1.917-1.844-3.389-3.9-3.29c-2.058,0.1-3.646,1.733-3.551,3.65
								l0.137,2.698c0,0,1.088,0.6,3.563,0.457C59.265,48.443,59.332,48.171,60.083,47.803z"/>
							<path class="st6" d="M75.862,43.988l0.243-2.691c0.174-1.912-1.349-3.613-3.399-3.806c-2.052-0.19-3.854,1.201-4.027,3.112
								l-0.245,2.693c0,0,0.99,0.746,3.461,0.952C74.962,44.505,75.067,44.247,75.862,43.988z"/>
							<g>
								<path class="st6" d="M61.571,68.088c0.01,0.22-0.156,0.405-0.377,0.417L54.3,68.844c-0.219,0.012-0.406-0.154-0.414-0.376
									l0,0c-0.012-0.218,0.156-0.403,0.375-0.415l6.896-0.341C61.374,67.703,61.562,67.871,61.571,68.088L61.571,68.088z"/>
								<path class="st6" d="M59.878,70.134c0.01,0.193-0.137,0.357-0.332,0.367l-3.408,0.167c-0.193,0.012-0.357-0.141-0.367-0.329
									l0,0c-0.01-0.195,0.141-0.357,0.332-0.371l3.408-0.169C59.706,69.792,59.87,69.94,59.878,70.134L59.878,70.134z"/>
							</g>
							<g>
								<path class="st6" d="M74.794,63.174c-0.023,0.22-0.218,0.374-0.437,0.353l-6.864-0.742
									c-0.219-0.023-0.377-0.216-0.352-0.436l0,0c0.025-0.217,0.22-0.375,0.436-0.352l6.865,0.742
									C74.66,62.763,74.818,62.958,74.794,63.174L74.794,63.174z"/>
								<path class="st6" d="M72.802,64.931c-0.021,0.193-0.191,0.33-0.387,0.309l-3.393-0.364c-0.191-0.02-0.33-0.195-0.311-0.386
									l0,0c0.021-0.195,0.195-0.33,0.387-0.313l3.393,0.364C72.685,64.565,72.824,64.738,72.802,64.931L72.802,64.931z"/>
							</g>
						</g>
					</g>
				</g>
				<path class="st2" d="M52.201,75.639l0.289,11.803l1.756,13.128l-2.579-9.919c0,0-0.926-2.769-0.358-5.164
					C51.747,83.635,52.201,75.639,52.201,75.639z"/>
				<path class="st6" d="M48.356,87.792c0.004,0.192-0.148,0.351-0.344,0.354l-1.769,0.06c-0.194,0.004-0.354-0.152-0.357-0.343l0,0
					c-0.004-0.197,0.151-0.354,0.343-0.359l1.77-0.06C48.194,87.442,48.354,87.596,48.356,87.792L48.356,87.792z"/>
				<path class="st6" d="M47.535,89.137c0.005,0.193-0.149,0.352-0.345,0.356l-0.946,0.059c-0.194,0.004-0.354-0.152-0.357-0.342
					l0,0c-0.004-0.196,0.151-0.354,0.343-0.358l0.949-0.062C47.374,88.791,47.532,88.943,47.535,89.137L47.535,89.137z"/>
				<g>
					<path class="st4" d="M61.839,87.101c0.351,1.229-0.227,2.473-1.449,2.914c-0.741,0.268-0.422,1.46,0.327,1.189
						c1.845-0.669,2.854-2.522,2.31-4.432C62.811,86.009,61.622,86.333,61.839,87.101L61.839,87.101z"/>
				</g>
				<g>
					<path class="st4" d="M71.976,84.923c0.401,2.162-0.813,4.029-2.931,4.58c-0.769,0.199-0.316,1.345,0.444,1.147
						c2.617-0.681,4.203-3.213,3.711-5.862C73.056,84.011,71.829,84.14,71.976,84.923L71.976,84.923z"/>
				</g>
				<g>
					<path class="st4" d="M81.542,86.838c0.307,1.521-0.531,2.964-2.047,3.377c-0.761,0.208-0.526,1.418,0.242,1.209
						c2.156-0.59,3.459-2.617,3.012-4.829C82.593,85.818,81.383,86.057,81.542,86.838L81.542,86.838z"/>
				</g>
				<g>
					<path class="st4" d="M92,88.659c0.189,1.129-0.407,2.239-1.566,2.52c-0.76,0.183-0.636,1.411,0.137,1.225
						c1.782-0.433,2.968-2.023,2.653-3.881C93.093,87.743,91.867,87.875,92,88.659L92,88.659z"/>
				</g>
			</g>
		</g>
		<g>
			<path class="st0" d="M49.653,19.842c1.532-1.532,3.063-3.065,4.594-4.595c0.832-0.833,2.223-0.833,3.055,0
				c1.527,1.527,3.056,3.056,4.582,4.585c1.973,1.969-1.082,5.023-3.054,3.055c-1.528-1.529-3.055-3.057-4.583-4.584
				c1.019,0,2.037,0,3.055,0c-1.531,1.531-3.063,3.061-4.592,4.594C50.737,24.866,47.683,21.813,49.653,19.842L49.653,19.842z"/>
		</g>
		<g>
			<path class="st0" d="M51.435,25.91c1.086-1.086,2.17-2.17,3.255-3.256c0.591-0.59,1.577-0.59,2.167,0
				c1.083,1.084,2.166,2.168,3.248,3.248c1.396,1.398-0.769,3.563-2.165,2.166c-1.083-1.082-2.167-2.166-3.25-3.248
				c0.724,0,1.444,0,2.167,0c-1.086,1.086-2.171,2.17-3.256,3.256C52.204,29.471,50.037,27.307,51.435,25.91L51.435,25.91z"/>
		</g>
		<g>
			<path class="st0" d="M52.319,31.309c0.863-0.863,1.727-1.728,2.592-2.592c0.469-0.469,1.253-0.469,1.724,0
				c0.86,0.862,1.724,1.725,2.585,2.587c1.113,1.112-0.611,2.837-1.725,1.724c-0.86-0.862-1.724-1.724-2.584-2.586
				c0.574,0,1.148,0,1.724,0c-0.864,0.863-1.729,1.728-2.592,2.592C52.931,34.146,51.206,32.422,52.319,31.309L52.319,31.309z"/>
		</g>
		<g>
			<path class="st0" d="M67.173,19.016c1.533-1.531,3.063-3.063,4.594-4.594c0.832-0.831,2.223-0.831,3.055,0
				c1.527,1.527,3.056,3.057,4.582,4.584c1.973,1.972-1.082,5.026-3.053,3.054c-1.529-1.525-3.056-3.054-4.584-4.583
				c1.019,0,2.036,0,3.055,0c-1.531,1.531-3.063,3.063-4.593,4.595C68.257,24.042,65.202,20.988,67.173,19.016L67.173,19.016z"/>
		</g>
		<g>
			<path class="st0" d="M68.954,25.083c1.086-1.084,2.171-2.169,3.255-3.253c0.591-0.593,1.577-0.593,2.167,0
				c1.083,1.082,2.166,2.166,3.248,3.247c1.396,1.396-0.769,3.563-2.165,2.166c-1.083-1.084-2.167-2.168-3.25-3.247
				c0.724,0,1.444,0,2.167,0c-1.086,1.083-2.171,2.167-3.256,3.253C69.724,28.648,67.556,26.482,68.954,25.083L68.954,25.083z"/>
		</g>
	</g>
</g>
</svg>
