<?xml version="1.0" encoding="utf-8"?>
<!-- Generator: Adobe Illustrator 16.0.0, SVG Export Plug-In . SVG Version: 6.00 Build 0)  -->
<!DOCTYPE svg PUBLIC "-//W3C//DTD SVG 1.1//EN" "http://www.w3.org/Graphics/SVG/1.1/DTD/svg11.dtd">
<svg version="1.1" id="Layer_1" xmlns="http://www.w3.org/2000/svg" xmlns:xlink="http://www.w3.org/1999/xlink" x="0px" y="0px"
	 width="136.833px" height="136.834px" viewBox="0 0 136.833 136.834" style="enable-background:new 0 0 136.833 136.834;"
	 xml:space="preserve">
<style type="text/css">
<![CDATA[
	.st0{fill:#B6E2EA;}
	.st1{fill:#88CED7;}
	.st2{fill:#EDAC80;}
	.st3{fill:#EFEFEF;}
	.st4{fill:#F5B88E;}
	.st5{fill:#FBC096;}
	.st6{fill:#FDD7B3;}
	.st7{fill:none;}
]]>
</style>
<g>
	<g>
		<circle class="st3" cx="68.416" cy="68.418" r="63.333"/>
	</g>
	<g>
		<circle class="st0" cx="64.84" cy="36.594" r="15.223"/>
		<g>
			<path class="st5" d="M50.418,67.803L46.795,77.92c0,0-1.042,1.435-0.25,5.759c1.248,6.818,1.72,9.691,3.53,12.681
				c4.568,7.547,9.768,13.142,9.768,13.142l-1.504-22.483c0,0-3.344-9.657-2.453-12.515c2.166-6.939-4.754-8.295-4.754-8.295
				L50.418,67.803z"/>
			<path class="st6" d="M48.524,73.036l2.177-6.687c0,0,1.55,0.974,1.675,2.117C52.515,69.724,50.384,73.016,48.524,73.036z"/>
			<g>
				<g>
					<g>
						<g>
							<path class="st5" d="M95.111,81.454c0.052,3.028-2.07,12.648-5.101,12.702l0,0c-3.028,0.052-5.525-2.36-5.58-5.391
								l-0.574-23.322c-0.053-3.03,1.331-5.438,4.36-5.487l0,0c3.028-0.054,4.175,1.65,4.79,5.391L95.111,81.454z"/>
							<path class="st2" d="M85.218,78.195l0.822-17.709c-2.185,1.319-2.214,2.712-2.184,4.441l-0.144,18.932
								C83.964,83.255,85.196,78.89,85.218,78.195z"/>
						</g>
						<path class="st5" d="M53.551,80.359V92.32c0.402,14.254,9.56,23.691,20.976,23.492c11.416-0.196,20.854-11.225,20.854-26.47
							l-0.281-8.259L53.551,80.359z"/>
						<g>
							<path class="st5" d="M85.5,94.417c0.054,3.027-2.359,5.525-5.39,5.577l0,0c-3.029,0.056-5.527-2.358-5.578-5.391
								l-0.578-33.176c-0.052-3.032,2.361-5.527,5.391-5.58l0,0c3.029-0.054,5.526,2.359,5.579,5.389L85.5,94.417z"/>
							<path class="st2" d="M75.313,72.503l1.247-15.84c-1.838,1.142-2.637,2.69-2.605,4.42v13.533
								C74.206,74.011,75.295,73.198,75.313,72.503z"/>
						</g>
						<g>
							<path class="st5" d="M75.126,79.402c0.396,3.338-2.991,6.438-6.021,6.386l0,0c-3.029-0.05-5.441-2.739-5.384-6.004
								l0.401-45.057c0.053-3.267,2.555-5.873,5.584-5.822l0,0c3.03,0.052,5.152,2.775,5.279,5.321l0.141,45.372"/>
							<path class="st2" d="M63.876,76.245l1.168-21.674c0-2.482-0.619-19.703-0.649-17.836L63.39,82.806
								C63.665,82.164,63.833,76.993,63.876,76.245z"/>
						</g>
						<path class="st5" d="M63.801,81.618c-0.093,3.028,0.642,12.633-2.388,12.538l-5.81,5.84
							c-3.027-0.093-2.658-21.236-2.61-22.941l0.387-38.159c0.14-4.352,2.67-6.733,5.699-6.641l0,0
							c3.027,0.095,5.406,2.625,5.313,5.653L63.801,81.618z"/>
						<path class="st6" d="M62.497,39.625l0.079-2.702c0.057-1.917-1.566-3.523-3.624-3.589c-2.06-0.067-3.775,1.435-3.831,3.354
							l-0.081,2.697c0,0,1.035,0.688,3.514,0.741C61.63,40.199,61.72,39.932,62.497,39.625z"/>
						<path class="st6" d="M73.427,36.353l0.039-2.702c0.029-1.919-1.615-3.502-3.674-3.541c-2.062-0.034-3.754,1.491-3.783,3.41
							l-0.043,2.7c0,0,1.045,0.671,3.523,0.69C72.566,36.937,72.653,36.671,73.427,36.353z"/>
						<g>
							<path class="st6" d="M62.354,59.965c-0.006,0.22-0.188,0.39-0.408,0.386l-6.9-0.215c-0.219-0.007-0.393-0.187-0.383-0.408
								l0,0c0.006-0.218,0.188-0.39,0.407-0.382l6.901,0.212C62.19,59.564,62.362,59.748,62.354,59.965L62.354,59.965z"/>
							<path class="st6" d="M60.503,61.869c-0.006,0.193-0.166,0.346-0.359,0.34l-3.412-0.106c-0.193-0.006-0.345-0.17-0.34-0.358
								l0,0c0.007-0.197,0.17-0.346,0.361-0.342l3.411,0.103C60.358,61.514,60.511,61.675,60.503,61.869L60.503,61.869z"/>
						</g>
						<g>
							<path class="st6" d="M73.803,55.566c-0.006,0.22-0.188,0.39-0.409,0.384l-6.898-0.224c-0.221-0.006-0.393-0.189-0.383-0.409
								l0,0c0.007-0.218,0.189-0.39,0.407-0.382l6.901,0.222C73.64,55.165,73.812,55.348,73.803,55.566L73.803,55.566z"/>
							<path class="st6" d="M71.949,57.467c-0.007,0.191-0.166,0.344-0.361,0.336l-3.411-0.108c-0.193-0.006-0.346-0.17-0.339-0.36
								l0,0c0.007-0.194,0.169-0.344,0.362-0.342l3.41,0.11C71.805,57.111,71.956,57.273,71.949,57.467L71.949,57.467z"/>
						</g>
					</g>
				</g>
			</g>
			<path class="st2" d="M52.954,68.162l0.087,10.849l1.755,13.128l-2.578-9.921c0,0-0.926-2.768-0.358-5.163
				C52.298,75.203,52.954,68.162,52.954,68.162z"/>
			<path class="st6" d="M48.907,79.357c0.004,0.193-0.149,0.352-0.344,0.357l-1.769,0.058c-0.194,0.004-0.354-0.152-0.358-0.341l0,0
				c-0.003-0.197,0.152-0.355,0.344-0.361l1.771-0.06C48.745,79.01,48.905,79.163,48.907,79.357L48.907,79.357z"/>
			<path class="st6" d="M48.086,80.706c0.005,0.192-0.149,0.351-0.344,0.354l-0.947,0.061c-0.194,0.004-0.354-0.152-0.358-0.344l0,0
				c-0.003-0.195,0.152-0.351,0.344-0.358l0.949-0.06C47.925,80.357,48.084,80.511,48.086,80.706L48.086,80.706z"/>
			<g>
				<path class="st4" d="M60.787,77.348c0.35,1.23-0.228,2.472-1.45,2.916c-0.741,0.266-0.422,1.458,0.328,1.188
					c1.846-0.669,2.854-2.522,2.311-4.432C61.758,76.258,60.569,76.581,60.787,77.348L60.787,77.348z"/>
			</g>
			<g>
				<path class="st4" d="M72.526,76.492c0.401,2.162-0.812,4.026-2.932,4.58c-0.768,0.197-0.315,1.345,0.445,1.146
					c2.617-0.679,4.203-3.211,3.711-5.86C73.607,75.58,72.38,75.708,72.526,76.492L72.526,76.492z"/>
			</g>
			<g>
				<path class="st4" d="M82.093,78.407c0.307,1.521-0.531,2.962-2.048,3.377c-0.761,0.208-0.526,1.417,0.242,1.209
					c2.157-0.59,3.459-2.619,3.013-4.829C83.144,77.386,81.934,77.625,82.093,78.407L82.093,78.407z"/>
			</g>
			<g>
				<path class="st4" d="M92.55,80.227c0.19,1.128-0.406,2.237-1.564,2.517c-0.761,0.186-0.637,1.412,0.135,1.227
					c1.784-0.432,2.969-2.024,2.654-3.88C93.644,79.311,92.418,79.44,92.55,80.227L92.55,80.227z"/>
			</g>
		</g>
	</g>
</g>
</svg>
