<?xml version="1.0" encoding="utf-8"?>
<!-- Generator: Adobe Illustrator 16.0.0, SVG Export Plug-In . SVG Version: 6.00 Build 0)  -->
<!DOCTYPE svg PUBLIC "-//W3C//DTD SVG 1.1//EN" "http://www.w3.org/Graphics/SVG/1.1/DTD/svg11.dtd">
<svg version="1.1" id="Layer_1" xmlns="http://www.w3.org/2000/svg" xmlns:xlink="http://www.w3.org/1999/xlink" x="0px" y="0px"
	 width="136.833px" height="136.834px" viewBox="0 0 136.833 136.834" style="enable-background:new 0 0 136.833 136.834;"
	 xml:space="preserve">
<style type="text/css">
<![CDATA[
	.st0{fill:#B6E2EA;}
	.st1{fill:#88CED7;}
	.st2{fill:#EDAC80;}
	.st3{fill:#EFEFEF;}
	.st4{fill:#F5B88E;}
	.st5{fill:#FBC096;}
	.st6{fill:#FDD7B3;}
	.st7{fill:none;}
]]>
</style>
<g>
	<g>
		<circle class="st3" cx="68.416" cy="68.418" r="63.333"/>
	</g>
	<g>
		<g>
			<circle class="st0" cx="43.718" cy="46.135" r="9.578"/>
			<g>
				<path class="st5" d="M48.456,76.261l0.799,10.718c0,0-0.369,1.733,2.11,5.363c3.911,5.725,5.509,8.156,8.378,10.154
					c7.24,5.039,14.264,8.038,14.264,8.038L63.499,90.603c0,0-6.979-7.464-7.324-10.439c-0.841-7.222-7.715-5.649-7.715-5.649
					L48.456,76.261z"/>
				<path class="st6" d="M48.851,81.812l-0.727-6.993c0,0,1.813,0.261,2.391,1.254C51.15,77.167,50.542,81.039,48.851,81.812z"/>
				<g>
					<g>
						<g>
							<g>
								<path class="st5" d="M94.841,70.58c1.277,2.747,3.246,12.397,0.498,13.678l0,0c-2.746,1.279-6.008,0.087-7.287-2.657
									L78.051,60.52c-1.28-2.746-0.991-5.508,1.755-6.785l0,0c2.748-1.278,4.486-0.187,6.568,2.982L94.841,70.58z"/>
								<path class="st2" d="M85.425,74.034l-7.525-18.729c-0.923,1.543-0.787,3.177-0.057,4.746l7.561,17.355
									C85.386,76.755,85.688,74.678,85.425,74.034z"/>
							</g>
							<path class="st5" d="M56.419,86.462l4.858,10.929c6.158,12.862,18.359,17.767,28.71,12.947
								c10.352-4.817,14.496-18.729,8.303-32.659l-3.611-7.433L56.419,86.462z"/>
							<g>
								<path class="st5" d="M91.323,86.329c1.28,2.745,0.088,6.006-2.66,7.287l0,0c-2.744,1.28-6.008,0.088-7.286-2.66
									L67.372,60.875c-1.279-2.748-0.089-6.009,2.66-7.29l0,0c2.744-1.278,6.008-0.087,7.286,2.66L91.323,86.329z"/>
								<path class="st2" d="M74.521,76.271l-6.852-20.58c-0.71,1.438-1.169,3.302-0.438,4.872l7.699,17.668
									C74.917,77.577,74.788,76.916,74.521,76.271z"/>
							</g>
							<g>
								<path class="st5" d="M79.997,86.627c1.715,2.609,0.523,5.873-2.224,7.151l0,0c-2.746,1.279-6.011,0.091-7.286-2.657
									L56.483,61.037c-1.281-2.746-0.091-6.009,2.656-7.286l0,0c2.746-1.28,6.013-0.091,6.853,2.793"/>
								<path class="st2" d="M63.632,76.437l-6.744-20.752c-0.891,1.304-1.268,3.466-0.535,5.035l7.688,17.675
									C64.026,77.741,63.897,77.08,63.632,76.437z"/>
							</g>
							<path class="st5" d="M69.47,88.554c1.279,2.747,0.09,6.01-2.658,7.289l0,0c-2.744,1.278-6.011,0.086-6.734-1.456
								L39.196,49.048c-1.833-3.949-0.644-7.213,2.105-8.491l0,0c2.746-1.279,6.009-0.089,7.288,2.657L69.47,88.554z"/>
							<path class="st6" d="M47.671,45.602l-1.146-2.449c-0.811-1.737-2.984-2.443-4.853-1.576
								c-1.869,0.868-2.726,2.979-1.913,4.718l1.143,2.447c0,0,1.232,0.146,3.471-0.918C47.151,46.502,47.113,46.225,47.671,45.602z
								"/>
							<g>
								<path class="st6" d="M57.823,66.385c0.093,0.2,0.006,0.434-0.191,0.528l-6.26,2.91c-0.198,0.093-0.436,0.01-0.525-0.19l0,0
									c-0.092-0.199-0.006-0.435,0.191-0.525l6.26-2.916C57.495,66.102,57.732,66.186,57.823,66.385L57.823,66.385z"/>
								<path class="st6" d="M57.026,68.917c0.081,0.176,0.007,0.384-0.17,0.467l-3.094,1.438c-0.176,0.083-0.385,0.006-0.466-0.168
									l0,0c-0.081-0.177-0.003-0.384,0.169-0.469l3.093-1.44C56.736,68.667,56.946,68.742,57.026,68.917L57.026,68.917z"/>
							</g>
						</g>
					</g>
				</g>
				<path class="st2" d="M51.075,74.445l10.496,22.617l-5.615-8.359c0,0-2.006-2.778-2.462-5.197
					C53.144,81.634,51.075,74.445,51.075,74.445z"/>
				<path class="st6" d="M51.769,87.434c0.084,0.176,0.006,0.382-0.168,0.465l-1.594,0.771c-0.178,0.083-0.385,0.006-0.465-0.166
					l0,0c-0.084-0.178-0.006-0.386,0.167-0.469l1.594-0.773C51.479,87.181,51.688,87.256,51.769,87.434L51.769,87.434z"/>
				<path class="st6" d="M51.565,88.999c0.084,0.175,0.007,0.382-0.169,0.465l-0.843,0.439c-0.176,0.083-0.384,0.004-0.465-0.168
					l0,0c-0.084-0.178-0.005-0.384,0.168-0.467l0.843-0.441C51.276,88.746,51.484,88.823,51.565,88.999L51.565,88.999z"/>
				<g>
					<path class="st4" d="M64.268,82.69c0.818,0.981,0.796,2.353-0.142,3.253c-0.568,0.548,0.208,1.507,0.782,0.955
						c1.415-1.361,1.584-3.466,0.31-4.987C64.712,81.301,63.757,82.079,64.268,82.69L64.268,82.69z"/>
				</g>
				<g>
					<path class="st4" d="M73.445,76.799c1.513,1.594,1.513,3.819,0.036,5.438c-0.535,0.584,0.469,1.3,1,0.717
						c1.822-1.994,1.771-4.983-0.086-6.938C73.853,75.446,72.894,76.221,73.445,76.799L73.445,76.799z"/>
				</g>
				<g>
					<path class="st4" d="M82.769,74.138c0.986,1.199,0.924,2.864-0.219,3.944c-0.574,0.54,0.201,1.498,0.781,0.95
						c1.627-1.533,1.822-3.937,0.389-5.676C83.216,72.744,82.261,73.525,82.769,74.138L82.769,74.138z"/>
				</g>
				<g>
					<path class="st4" d="M91.756,70.57c0.774,0.843,0.881,2.097,0.062,2.965c-0.537,0.568,0.236,1.529,0.781,0.952
						c1.262-1.334,1.385-3.314,0.11-4.699C92.174,69.205,91.216,69.982,91.756,70.57L91.756,70.57z"/>
				</g>
			</g>
		</g>
		<g>
			<path class="st0" d="M63.816,46.923c-1.53-1.531-3.062-3.063-4.592-4.592c-0.833-0.831-0.833-2.222,0-3.056
				c1.527-1.527,3.056-3.055,4.583-4.582c1.971-1.971,5.026,1.082,3.055,3.053c-1.527,1.529-3.056,3.058-4.583,4.585
				c0-1.021,0-2.037,0-3.056c1.53,1.531,3.062,3.062,4.593,4.593C68.843,45.841,65.789,48.896,63.816,46.923L63.816,46.923z"/>
		</g>
		<g>
			<path class="st0" d="M69.886,45.143c-1.084-1.086-2.17-2.17-3.256-3.256c-0.59-0.59-0.59-1.575,0-2.165
				c1.083-1.084,2.166-2.166,3.25-3.248c1.396-1.398,3.562,0.768,2.164,2.164c-1.083,1.084-2.166,2.168-3.248,3.249
				c0-0.723,0-1.442,0-2.165c1.085,1.085,2.17,2.169,3.256,3.255C73.448,44.374,71.284,46.542,69.886,45.143L69.886,45.143z"/>
		</g>
	</g>
</g>
</svg>
