<?xml version="1.0" encoding="utf-8"?>
<!-- Generator: Adobe Illustrator 16.0.0, SVG Export Plug-In . SVG Version: 6.00 Build 0)  -->
<!DOCTYPE svg PUBLIC "-//W3C//DTD SVG 1.1//EN" "http://www.w3.org/Graphics/SVG/1.1/DTD/svg11.dtd">
<svg version="1.1" id="Layer_1" xmlns="http://www.w3.org/2000/svg" xmlns:xlink="http://www.w3.org/1999/xlink" x="0px" y="0px"
	 width="136.833px" height="136.833px" viewBox="0 0 136.833 136.833" style="enable-background:new 0 0 136.833 136.833;"
	 xml:space="preserve">
<style type="text/css">
<![CDATA[
	.st0{fill:#B6E2EA;}
	.st1{fill:#88CED7;}
	.st2{fill:#EDAC80;}
	.st3{fill:#EFEFEF;}
	.st4{fill:#F5B88E;}
	.st5{fill:#FBC096;}
	.st6{fill:#FDD7B3;}
	.st7{fill:none;}
]]>
</style>
<g>
	<g>
		<circle class="st3" cx="68.417" cy="68.418" r="63.333"/>
	</g>
	<g>
		<g>
			<circle class="st0" cx="78.553" cy="42.11" r="15.222"/>
			<g>
				<path class="st5" d="M53.555,65.712l-7.128,8.044c0,0-1.5,0.942-2.374,5.25c-1.379,6.794-2.01,9.636-1.442,13.084
					c1.433,8.704,4.177,15.832,4.177,15.832l6.971-21.428c0,0,0.488-10.206,2.379-12.528c4.594-5.637-1.326-9.469-1.326-9.469
					L53.555,65.712z"/>
				<path class="st6" d="M49.852,69.863l4.506-5.395c0,0,1.077,1.48,0.769,2.588C54.786,68.274,51.584,70.539,49.852,69.863z"/>
				<g>
					<g>
						<g>
							<g>
								<path class="st5" d="M89.961,95.01c-1.079,2.831-6.628,10.971-9.461,9.893l0,0c-2.83-1.078-4.251-4.247-3.174-7.076
									l8.146-21.865c1.077-2.831,3.257-4.551,6.087-3.472l0,0c2.832,1.08,3.262,3.088,2.441,6.788L89.961,95.01z"/>
								<path class="st2" d="M81.99,88.304l7.352-16.129c-2.518,0.41-3.063,1.691-3.68,3.309l-7.178,17.519
									C78.941,92.536,81.711,88.943,81.99,88.304z"/>
							</g>
							<path class="st5" d="M51.791,78.532l-4.45,11.102c-4.93,13.381,0.058,25.547,10.728,29.612
								c10.67,4.063,23.533-2.661,29.206-16.813l2.812-7.769L51.791,78.532z"/>
							<g>
								<path class="st5" d="M76.216,103.467c-1.075,2.829-4.245,4.249-7.078,3.173l0,0c-2.831-1.076-4.253-4.247-3.172-7.08
									l11.808-31.01c1.079-2.832,4.248-4.253,7.08-3.173l0,0c2.831,1.076,4.251,4.247,3.173,7.078L76.216,103.467z"/>
								<path class="st2" d="M74.914,79.336l7.049-14.237c-2.129,0.373-3.447,1.517-4.063,3.134l-5.034,12.56
									C73.326,80.324,74.639,79.974,74.914,79.336z"/>
							</g>
							<g>
								<path class="st5" d="M72.174,85.669c-0.875,3.247-5.172,4.863-7.966,3.69l0,0c-2.792-1.177-4.031-4.568-2.763-7.578
									L78.581,40.11c1.265-3.013,4.557-4.501,7.351-3.326l0,0c2.793,1.174,3.749,4.491,2.92,6.902L72.1,85.852"/>
								<path class="st2" d="M62.906,78.554l9.148-19.683c0.923-2.304,6.755-18.52,6.031-16.797L60.014,84.463
									C60.508,83.969,62.588,79.232,62.906,78.554z"/>
							</g>
							<path class="st5" d="M60.837,83.513c-1.214,2.778-4.104,11.964-6.881,10.751l-7.565,3.258
								c-2.775-1.212,5.434-20.7,6.111-22.265L67.061,39.98c1.748-3.986,4.982-5.256,7.76-4.041l0,0
								c2.774,1.214,4.042,4.447,2.828,7.223L60.837,83.513z"/>
							<path class="st6" d="M75.25,44.052l1.078-2.479c0.767-1.76-0.143-3.854-2.027-4.682c-1.888-0.827-4.037-0.072-4.804,1.688
								l-1.08,2.477c0,0,0.706,1.021,2.985,1.994C74.232,44.259,74.414,44.047,75.25,44.052z"/>
							<path class="st6" d="M86.611,45.08l1.044-2.493c0.741-1.771-0.196-3.853-2.095-4.651c-1.898-0.802-4.039-0.016-4.778,1.755
								l-1.045,2.491c0,0,0.72,1.012,3.013,1.952C85.597,45.302,85.777,45.088,86.611,45.08z"/>
							<g>
								<path class="st6" d="M67.551,62.877c-0.088,0.202-0.32,0.292-0.522,0.206l-6.325-2.766c-0.202-0.089-0.294-0.32-0.204-0.522
									l0,0c0.087-0.199,0.321-0.291,0.521-0.203l6.326,2.765C67.547,62.445,67.639,62.678,67.551,62.877L67.551,62.877z"/>
								<path class="st6" d="M65.124,63.956c-0.077,0.178-0.282,0.259-0.46,0.182l-3.129-1.367
									c-0.177-0.076-0.258-0.286-0.181-0.459l0,0c0.079-0.181,0.286-0.258,0.462-0.183l3.128,1.364
									C65.122,63.572,65.203,63.78,65.124,63.956L65.124,63.956z"/>
							</g>
							<g>
								<path class="st6" d="M79.813,63.054c-0.087,0.201-0.32,0.291-0.522,0.203l-6.32-2.773c-0.202-0.088-0.295-0.32-0.204-0.522
									l0,0c0.089-0.2,0.322-0.29,0.522-0.203l6.322,2.775C79.812,62.622,79.902,62.855,79.813,63.054L79.813,63.054z"/>
								<path class="st6" d="M77.387,64.128c-0.078,0.178-0.283,0.259-0.463,0.18L73.8,62.937c-0.179-0.078-0.257-0.285-0.181-0.461
									l0,0c0.078-0.179,0.285-0.256,0.463-0.181l3.125,1.37C77.384,63.745,77.465,63.951,77.387,64.128L77.387,64.128z"/>
							</g>
						</g>
					</g>
				</g>
				<path class="st2" d="M55.942,66.921L51.819,77.09l-2.476,9.762l0.518-7.091c0,0,0.172-2.913,1.588-4.926
					C52.546,73.281,55.942,66.921,55.942,66.921z"/>
				<path class="st6" d="M47.853,75.875c-0.067,0.182-0.269,0.271-0.451,0.202l-1.663-0.604c-0.182-0.068-0.271-0.271-0.203-0.449
					l0,0c0.068-0.184,0.271-0.271,0.451-0.206l1.664,0.603C47.832,75.491,47.924,75.694,47.853,75.875L47.853,75.875z"/>
				<path class="st6" d="M46.59,76.82c-0.067,0.182-0.27,0.271-0.451,0.202l-0.902-0.297c-0.182-0.068-0.271-0.273-0.204-0.451l0,0
					c0.069-0.183,0.272-0.271,0.452-0.204l0.902,0.296C46.568,76.437,46.66,76.638,46.59,76.82L46.59,76.82z"/>
				<g>
					<path class="st4" d="M59.629,78.429c-0.134,1.271-1.132,2.209-2.432,2.166c-0.787-0.026-0.935,1.198-0.138,1.226
						c1.962,0.065,3.587-1.28,3.793-3.255C60.936,77.778,59.711,77.636,59.629,78.429L59.629,78.429z"/>
				</g>
				<g>
					<path class="st4" d="M70.844,82.003c-0.434,2.155-2.253,3.438-4.426,3.159c-0.787-0.102-0.794,1.132-0.014,1.23
						c2.682,0.344,5.097-1.417,5.625-4.062C72.186,81.558,70.999,81.222,70.844,82.003L70.844,82.003z"/>
				</g>
				<g>
					<path class="st4" d="M79.011,87.338c-0.282,1.527-1.597,2.554-3.157,2.374c-0.784-0.091-1.018,1.121-0.225,1.211
						c2.221,0.255,4.184-1.144,4.592-3.361C80.364,86.783,79.152,86.556,79.011,87.338L79.011,87.338z"/>
				</g>
				<g>
					<path class="st4" d="M88.039,92.917c-0.244,1.121-1.209,1.927-2.39,1.758c-0.774-0.114-1.114,1.072-0.33,1.186
						c1.817,0.265,3.509-0.773,3.907-2.613C89.396,92.476,88.209,92.141,88.039,92.917L88.039,92.917z"/>
				</g>
			</g>
		</g>
		<g>
			<path class="st0" d="M52.559,46.288c1.53-1.531,3.063-3.063,4.592-4.593c0.832-0.831,0.832-2.223,0-3.055
				c-1.527-1.528-3.055-3.056-4.582-4.582c-1.973-1.973-5.027,1.081-3.055,3.054c1.527,1.528,3.057,3.055,4.582,4.583
				c0-1.019,0-2.037,0-3.055c-1.529,1.532-3.061,3.063-4.592,4.593C47.533,45.205,50.586,48.259,52.559,46.288L52.559,46.288z"/>
		</g>
		<g>
			<path class="st0" d="M46.49,44.506c1.084-1.086,2.169-2.169,3.256-3.254c0.589-0.592,0.589-1.577,0-2.167
				c-1.084-1.082-2.168-2.166-3.25-3.248c-1.396-1.396-3.563,0.769-2.166,2.166c1.084,1.082,2.167,2.166,3.248,3.249
				c0-0.724,0-1.445,0-2.167c-1.084,1.087-2.17,2.171-3.254,3.256C42.926,43.738,45.092,45.904,46.49,44.506L46.49,44.506z"/>
		</g>
	</g>
</g>
</svg>
