<?xml version="1.0" encoding="utf-8"?>
<!-- Generator: Adobe Illustrator 16.0.0, SVG Export Plug-In . SVG Version: 6.00 Build 0)  -->
<!DOCTYPE svg PUBLIC "-//W3C//DTD SVG 1.1//EN" "http://www.w3.org/Graphics/SVG/1.1/DTD/svg11.dtd">
<svg version="1.1" id="Layer_1" xmlns="http://www.w3.org/2000/svg" xmlns:xlink="http://www.w3.org/1999/xlink" x="0px" y="0px"
	 width="136.833px" height="136.833px" viewBox="0 0 136.833 136.833" style="enable-background:new 0 0 136.833 136.833;"
	 xml:space="preserve">
<style type="text/css">
<![CDATA[
	.st0{fill:#AAB6B3;}
	.st1{fill:#49A0AE;}
	.st2{fill:#ADBAB5;}
	.st3{clip-path:url(#SVGID_6_);fill:#9A989D;}
	.st4{clip-path:url(#SVGID_6_);fill:#9B999E;}
	.st5{clip-path:url(#SVGID_6_);fill:#9B9A9E;}
	.st6{fill:#E1E1E1;}
	.st7{clip-path:url(#SVGID_6_);fill:#9D9B9F;}
	.st8{clip-path:url(#SVGID_6_);fill:#9E9CA1;}
	.st9{clip-path:url(#SVGID_6_);fill:#9F9CA2;}
	.st10{clip-path:url(#SVGID_6_);fill:#9F9DA3;}
	.st11{fill:#4ABC96;}
	.st12{fill:#E5E5E5;}
	.st13{clip-path:url(#SVGID_4_);fill:#A09EA4;}
	.st14{clip-path:url(#SVGID_4_);fill:#A29FA4;}
	.st15{clip-path:url(#SVGID_4_);fill:#A3A1A6;}
	.st16{clip-path:url(#SVGID_4_);fill:#A4A2A8;}
	.st17{fill:#1A1919;}
	.st18{clip-path:url(#SVGID_4_);fill:#A5A3A9;}
	.st19{clip-path:url(#SVGID_4_);fill:#A6A4A9;}
	.st20{clip-path:url(#SVGID_4_);fill:#A6A4AA;}
	.st21{fill:#EB9682;}
	.st22{fill:#B7CAC4;}
	.st23{clip-path:url(#SVGID_4_);fill:#A8A5AB;}
	.st24{clip-path:url(#SVGID_4_);fill:#A9A6AC;}
	.st25{fill:#EDEDED;}
	.st26{fill:#505252;}
	.st27{clip-path:url(#SVGID_6_);fill:#A09EA4;}
	.st28{clip-path:url(#SVGID_4_);fill:#AAA7AD;}
	.st29{clip-path:url(#SVGID_4_);fill:#AAA8AE;}
	.st30{clip-path:url(#SVGID_6_);fill:#A29FA4;}
	.st31{clip-path:url(#SVGID_4_);fill:#ABA9AF;}
	.st32{clip-path:url(#SVGID_4_);fill:#ACA9B0;}
	.st33{fill:#BCD0CA;}
	.st34{clip-path:url(#SVGID_6_);fill:#A3A1A6;}
	.st35{clip-path:url(#SVGID_4_);fill:#ADAAB1;}
	.st36{clip-path:url(#SVGID_6_);fill:#A4A2A8;}
	.st37{fill:#202121;}
	.st38{clip-path:url(#SVGID_4_);fill:#AEACB2;}
	.st39{clip-path:url(#SVGID_6_);fill:#A5A3A9;}
	.st40{clip-path:url(#SVGID_4_);fill:#AFACB3;}
	.st41{clip-path:url(#SVGID_6_);fill:#A6A4A9;}
	.st42{clip-path:url(#SVGID_6_);fill:#A6A4AA;}
	.st43{clip-path:url(#SVGID_6_);fill:#A8A5AB;}
	.st44{clip-path:url(#SVGID_6_);fill:#A9A6AC;}
	.st45{clip-path:url(#SVGID_2_);}
	.st46{clip-path:url(#SVGID_4_);fill:#B0ADB4;}
	.st47{clip-path:url(#SVGID_6_);fill:#AAA7AD;}
	.st48{clip-path:url(#SVGID_6_);fill:#AAA8AE;}
	.st49{clip-path:url(#SVGID_6_);fill:#ABA9AF;}
	.st50{clip-path:url(#SVGID_4_);fill:#B2AFB6;}
	.st51{clip-path:url(#SVGID_6_);fill:#ACA9B0;}
	.st52{clip-path:url(#SVGID_4_);fill:#B3B0B7;}
	.st53{clip-path:url(#SVGID_4_);fill:#B3B1B8;}
	.st54{clip-path:url(#SVGID_6_);fill:#ADAAB1;}
	.st55{clip-path:url(#SVGID_4_);fill:#B4B1B9;}
	.st56{clip-path:url(#SVGID_6_);fill:#AEACB2;}
	.st57{clip-path:url(#SVGID_4_);fill:#B5B2BA;}
	.st58{clip-path:url(#SVGID_6_);fill:#AFACB3;}
	.st59{clip-path:url(#SVGID_4_);fill:#B6B3BB;}
	.st60{clip-path:url(#SVGID_4_);fill:#B7B4BC;}
	.st61{clip-path:url(#SVGID_4_);fill:#B8B5BD;}
	.st62{clip-path:url(#SVGID_4_);fill:#B8B6BE;}
	.st63{clip-path:url(#SVGID_4_);fill:#B9B7BF;}
	.st64{opacity:0.3;}
	.st65{fill:#61A5B1;}
	.st66{fill:#FFFFFF;}
	.st67{clip-path:url(#SVGID_6_);fill:#B0ADB4;}
	.st68{fill:#676768;}
	.st69{clip-path:url(#SVGID_4_);fill:#BAB8C0;}
	.st70{fill:#67B8CB;}
	.st71{clip-path:url(#SVGID_4_);fill:#BBB8C1;}
	.st72{clip-path:url(#SVGID_6_);fill:#B2AFB6;}
	.st73{clip-path:url(#SVGID_4_);fill:#BCB9C2;}
	.st74{clip-path:url(#SVGID_6_);fill:#B3B0B7;}
	.st75{clip-path:url(#SVGID_6_);fill:#B3B1B8;}
	.st76{clip-path:url(#SVGID_4_);fill:#BDBAC3;}
	.st77{clip-path:url(#SVGID_4_);fill:#BDBBC4;}
	.st78{clip-path:url(#SVGID_6_);fill:#B4B1B9;}
	.st79{clip-path:url(#SVGID_4_);fill:#BEBCC5;}
	.st80{clip-path:url(#SVGID_6_);fill:#B5B2BA;}
	.st81{clip-path:url(#SVGID_4_);fill:#BFBDC6;}
	.st82{clip-path:url(#SVGID_6_);fill:#B6B3BB;}
	.st83{clip-path:url(#SVGID_6_);fill:#B7B4BC;}
	.st84{clip-path:url(#SVGID_6_);fill:#B8B5BD;}
	.st85{clip-path:url(#SVGID_6_);fill:#B8B6BE;}
	.st86{clip-path:url(#SVGID_6_);fill:#B9B7BF;}
	.st87{fill:#357180;}
	.st88{fill:#36858D;}
	.st89{clip-path:url(#SVGID_6_);fill:#BAB8C0;}
	.st90{clip-path:url(#SVGID_4_);fill:#C1BFC8;}
	.st91{clip-path:url(#SVGID_6_);fill:#BBB8C1;}
	.st92{clip-path:url(#SVGID_4_);fill:#C2C0C9;}
	.st93{clip-path:url(#SVGID_6_);fill:#BCB9C2;}
	.st94{clip-path:url(#SVGID_4_);fill:#949295;}
	.st95{clip-path:url(#SVGID_4_);fill:#C3C1C9;}
	.st96{clip-path:url(#SVGID_6_);fill:#BDBAC3;}
	.st97{clip-path:url(#SVGID_6_);fill:#BDBBC4;}
	.st98{clip-path:url(#SVGID_4_);fill:#959498;}
	.st99{clip-path:url(#SVGID_4_);fill:#C4C2CA;}
	.st100{clip-path:url(#SVGID_6_);fill:#BEBCC5;}
	.st101{clip-path:url(#SVGID_4_);fill:#969499;}
	.st102{clip-path:url(#SVGID_4_);fill:#C5C2CB;}
	.st103{clip-path:url(#SVGID_4_);fill:#C5C3CC;}
	.st104{clip-path:url(#SVGID_6_);fill:#BFBDC6;}
	.st105{clip-path:url(#SVGID_4_);fill:#97959A;}
	.st106{clip-path:url(#SVGID_4_);fill:#C6C4CD;}
	.st107{fill:#3CB881;}
	.st108{clip-path:url(#SVGID_4_);fill:#98969A;}
	.st109{clip-path:url(#SVGID_4_);fill:#C7C5CE;}
	.st110{clip-path:url(#SVGID_4_);fill:#99979C;}
	.st111{clip-path:url(#SVGID_4_);fill:#C8C5CF;}
	.st112{fill:#D8D8D8;}
	.st113{fill:#3E4141;}
	.st114{clip-path:url(#SVGID_4_);fill:#C9C6D0;}
	.st115{clip-path:url(#SVGID_4_);fill:#C9C7D1;}
	.st116{clip-path:url(#SVGID_4_);fill:#9A989D;}
	.st117{clip-path:url(#SVGID_4_);fill:#9B999E;}
	.st118{clip-path:url(#SVGID_4_);fill:#9B9A9E;}
	.st119{clip-path:url(#SVGID_4_);fill:#CAC7D1;}
	.st120{clip-path:url(#SVGID_6_);fill:#C1BFC8;}
	.st121{fill:#DBDBDA;}
	.st122{fill:#DBF0F4;}
	.st123{clip-path:url(#SVGID_6_);fill:#C2C0C9;}
	.st124{clip-path:url(#SVGID_4_);fill:#9D9B9F;}
	.st125{clip-path:url(#SVGID_6_);fill:#949295;}
	.st126{clip-path:url(#SVGID_6_);fill:#C3C1C9;}
	.st127{clip-path:url(#SVGID_4_);fill:#9E9CA1;}
	.st128{clip-path:url(#SVGID_6_);fill:#959498;}
	.st129{clip-path:url(#SVGID_4_);fill:#9F9CA2;}
	.st130{clip-path:url(#SVGID_4_);fill:#9F9DA3;}
	.st131{clip-path:url(#SVGID_6_);fill:#969499;}
	.st132{clip-path:url(#SVGID_6_);fill:#97959A;}
	.st133{fill:#DFF1ED;}
	.st134{clip-path:url(#SVGID_6_);fill:#98969A;}
	.st135{fill:#43B29B;}
	.st136{clip-path:url(#SVGID_6_);fill:#99979C;}
]]>
</style>
<g>
	<g>
		<g>
			<circle class="st107" cx="68.417" cy="68.417" r="63.333"/>
		</g>
	</g>
	<g>
		<g>
			<g>
				<g>
					<path class="st37" d="M89.895,28.562H47.304c-8.303,0-12.529,4.225-12.529,12.527v80.978c1.026,0.646,2.068,1.269,3.133,1.854
						V44.536h61.07v79.355c1.174-0.648,2.32-1.341,3.447-2.06V41.089C102.425,32.787,98.199,28.562,89.895,28.562z"/>
				</g>
				<g>
					<path class="st65" d="M98.978,123.891V44.536h-61.07v79.386c9.05,4.985,19.445,7.828,30.508,7.828
						C79.5,131.75,89.916,128.894,98.978,123.891z"/>
				</g>
			</g>
			<g>
				<path d="M76.533,37.958c0,0.808-0.654,1.461-1.459,1.461H62.127c-0.808,0-1.462-0.653-1.462-1.461l0,0
					c0-0.807,0.654-1.46,1.462-1.46h12.946C75.878,36.498,76.533,37.151,76.533,37.958L76.533,37.958z"/>
			</g>
		</g>
	</g>
	<g>
		<g>
			<g>
				<path class="st66" d="M120.956,87.964c0,3.274-2.657,5.931-5.933,5.931H70.046c-3.275,0-5.932-2.656-5.932-5.931V61.768
					c0-3.276,2.656-5.932,5.932-5.932h44.977c3.275,0,5.933,2.655,5.933,5.932V87.964z"/>
			</g>
			<g>
				<g>
					<path class="st22" d="M68.112,87.705c0,1.199,0.975,2.172,2.173,2.172h44.131c1.198,0,2.171-0.973,2.171-2.172l-0.042-23.069
						L92.511,77.836L68.115,64.678L68.112,87.705z"/>
				</g>
				<g>
					<path class="st22" d="M116.586,63.508c0-1.198-0.973-2.171-2.171-2.171H70.285c-1.198,0-2.173,0.973-2.173,2.171l24.399,13.038
						L116.586,63.508z"/>
				</g>
			</g>
			<g>
				<path class="st66" d="M78.648,101.877c-0.465,0.466-1.22,0.466-1.684,0l-5.685-8.028c-0.464-0.464-0.464-1.219,0-1.684h13.05
					c0.466,0.465,0.466,1.22,0,1.684L78.648,101.877z"/>
			</g>
		</g>
		<g>
			<circle class="st2" cx="110.71" cy="83.271" r="8.399"/>
		</g>
		<g>
			<circle class="st66" cx="110.708" cy="83.271" r="6.562"/>
		</g>
		<g>
			<g>
				<path class="st2" d="M110.088,87.71v-6.662c-1.239,0.951-2.071,1.427-2.503,1.427c-0.204,0-0.387-0.081-0.544-0.243
					c-0.16-0.166-0.238-0.355-0.238-0.569c0-0.249,0.078-0.433,0.235-0.55c0.157-0.115,0.431-0.268,0.825-0.454
					c0.59-0.278,1.063-0.569,1.418-0.878c0.351-0.307,0.666-0.651,0.94-1.032c0.273-0.38,0.45-0.614,0.533-0.703
					c0.086-0.088,0.241-0.132,0.469-0.132c0.259,0,0.467,0.101,0.624,0.301c0.153,0.2,0.232,0.476,0.232,0.826v8.385
					c0,0.98-0.334,1.473-1.002,1.473c-0.297,0-0.534-0.102-0.718-0.301C110.181,88.396,110.088,88.102,110.088,87.71z"/>
			</g>
		</g>
	</g>
</g>
</svg>
