<?xml version="1.0" encoding="utf-8"?>
<!-- Generator: Adobe Illustrator 16.0.0, SVG Export Plug-In . SVG Version: 6.00 Build 0)  -->
<!DOCTYPE svg PUBLIC "-//W3C//DTD SVG 1.1//EN" "http://www.w3.org/Graphics/SVG/1.1/DTD/svg11.dtd">
<svg version="1.1" id="Layer_1" xmlns="http://www.w3.org/2000/svg" xmlns:xlink="http://www.w3.org/1999/xlink" x="0px" y="0px"
	 width="136.833px" height="136.833px" viewBox="0 0 136.833 136.833" style="enable-background:new 0 0 136.833 136.833;"
	 xml:space="preserve">
<style type="text/css">
<![CDATA[
	.st0{fill:#AAB6B3;}
	.st1{fill:#49A0AE;}
	.st2{fill:#ADBAB5;}
	.st3{clip-path:url(#SVGID_6_);fill:#9A989D;}
	.st4{clip-path:url(#SVGID_6_);fill:#9B999E;}
	.st5{clip-path:url(#SVGID_6_);fill:#9B9A9E;}
	.st6{fill:#E1E1E1;}
	.st7{clip-path:url(#SVGID_6_);fill:#9D9B9F;}
	.st8{clip-path:url(#SVGID_6_);fill:#9E9CA1;}
	.st9{clip-path:url(#SVGID_6_);fill:#9F9CA2;}
	.st10{clip-path:url(#SVGID_6_);fill:#9F9DA3;}
	.st11{fill:#4ABC96;}
	.st12{fill:#E5E5E5;}
	.st13{clip-path:url(#SVGID_4_);fill:#A09EA4;}
	.st14{clip-path:url(#SVGID_4_);fill:#A29FA4;}
	.st15{clip-path:url(#SVGID_4_);fill:#A3A1A6;}
	.st16{clip-path:url(#SVGID_4_);fill:#A4A2A8;}
	.st17{fill:#1A1919;}
	.st18{clip-path:url(#SVGID_4_);fill:#A5A3A9;}
	.st19{clip-path:url(#SVGID_4_);fill:#A6A4A9;}
	.st20{clip-path:url(#SVGID_4_);fill:#A6A4AA;}
	.st21{fill:#EB9682;}
	.st22{fill:#B7CAC4;}
	.st23{clip-path:url(#SVGID_4_);fill:#A8A5AB;}
	.st24{clip-path:url(#SVGID_4_);fill:#A9A6AC;}
	.st25{fill:#EDEDED;}
	.st26{fill:#505252;}
	.st27{clip-path:url(#SVGID_6_);fill:#A09EA4;}
	.st28{clip-path:url(#SVGID_4_);fill:#AAA7AD;}
	.st29{clip-path:url(#SVGID_4_);fill:#AAA8AE;}
	.st30{clip-path:url(#SVGID_6_);fill:#A29FA4;}
	.st31{clip-path:url(#SVGID_4_);fill:#ABA9AF;}
	.st32{clip-path:url(#SVGID_4_);fill:#ACA9B0;}
	.st33{fill:#BCD0CA;}
	.st34{clip-path:url(#SVGID_6_);fill:#A3A1A6;}
	.st35{clip-path:url(#SVGID_4_);fill:#ADAAB1;}
	.st36{clip-path:url(#SVGID_6_);fill:#A4A2A8;}
	.st37{fill:#202121;}
	.st38{clip-path:url(#SVGID_4_);fill:#AEACB2;}
	.st39{clip-path:url(#SVGID_6_);fill:#A5A3A9;}
	.st40{clip-path:url(#SVGID_4_);fill:#AFACB3;}
	.st41{clip-path:url(#SVGID_6_);fill:#A6A4A9;}
	.st42{clip-path:url(#SVGID_6_);fill:#A6A4AA;}
	.st43{clip-path:url(#SVGID_6_);fill:#A8A5AB;}
	.st44{clip-path:url(#SVGID_6_);fill:#A9A6AC;}
	.st45{clip-path:url(#SVGID_2_);}
	.st46{clip-path:url(#SVGID_4_);fill:#B0ADB4;}
	.st47{clip-path:url(#SVGID_6_);fill:#AAA7AD;}
	.st48{clip-path:url(#SVGID_6_);fill:#AAA8AE;}
	.st49{clip-path:url(#SVGID_6_);fill:#ABA9AF;}
	.st50{clip-path:url(#SVGID_4_);fill:#B2AFB6;}
	.st51{clip-path:url(#SVGID_6_);fill:#ACA9B0;}
	.st52{clip-path:url(#SVGID_4_);fill:#B3B0B7;}
	.st53{clip-path:url(#SVGID_4_);fill:#B3B1B8;}
	.st54{clip-path:url(#SVGID_6_);fill:#ADAAB1;}
	.st55{clip-path:url(#SVGID_4_);fill:#B4B1B9;}
	.st56{clip-path:url(#SVGID_6_);fill:#AEACB2;}
	.st57{clip-path:url(#SVGID_4_);fill:#B5B2BA;}
	.st58{clip-path:url(#SVGID_6_);fill:#AFACB3;}
	.st59{clip-path:url(#SVGID_4_);fill:#B6B3BB;}
	.st60{clip-path:url(#SVGID_4_);fill:#B7B4BC;}
	.st61{clip-path:url(#SVGID_4_);fill:#B8B5BD;}
	.st62{clip-path:url(#SVGID_4_);fill:#B8B6BE;}
	.st63{clip-path:url(#SVGID_4_);fill:#B9B7BF;}
	.st64{opacity:0.3;}
	.st65{fill:#61A5B1;}
	.st66{fill:#FFFFFF;}
	.st67{clip-path:url(#SVGID_6_);fill:#B0ADB4;}
	.st68{fill:#676768;}
	.st69{clip-path:url(#SVGID_4_);fill:#BAB8C0;}
	.st70{fill:#67B8CB;}
	.st71{clip-path:url(#SVGID_4_);fill:#BBB8C1;}
	.st72{clip-path:url(#SVGID_6_);fill:#B2AFB6;}
	.st73{clip-path:url(#SVGID_4_);fill:#BCB9C2;}
	.st74{clip-path:url(#SVGID_6_);fill:#B3B0B7;}
	.st75{clip-path:url(#SVGID_6_);fill:#B3B1B8;}
	.st76{clip-path:url(#SVGID_4_);fill:#BDBAC3;}
	.st77{clip-path:url(#SVGID_4_);fill:#BDBBC4;}
	.st78{clip-path:url(#SVGID_6_);fill:#B4B1B9;}
	.st79{clip-path:url(#SVGID_4_);fill:#BEBCC5;}
	.st80{clip-path:url(#SVGID_6_);fill:#B5B2BA;}
	.st81{clip-path:url(#SVGID_4_);fill:#BFBDC6;}
	.st82{clip-path:url(#SVGID_6_);fill:#B6B3BB;}
	.st83{clip-path:url(#SVGID_6_);fill:#B7B4BC;}
	.st84{clip-path:url(#SVGID_6_);fill:#B8B5BD;}
	.st85{clip-path:url(#SVGID_6_);fill:#B8B6BE;}
	.st86{clip-path:url(#SVGID_6_);fill:#B9B7BF;}
	.st87{fill:#357180;}
	.st88{fill:#36858D;}
	.st89{clip-path:url(#SVGID_6_);fill:#BAB8C0;}
	.st90{clip-path:url(#SVGID_4_);fill:#C1BFC8;}
	.st91{clip-path:url(#SVGID_6_);fill:#BBB8C1;}
	.st92{clip-path:url(#SVGID_4_);fill:#C2C0C9;}
	.st93{clip-path:url(#SVGID_6_);fill:#BCB9C2;}
	.st94{clip-path:url(#SVGID_4_);fill:#949295;}
	.st95{clip-path:url(#SVGID_4_);fill:#C3C1C9;}
	.st96{clip-path:url(#SVGID_6_);fill:#BDBAC3;}
	.st97{clip-path:url(#SVGID_6_);fill:#BDBBC4;}
	.st98{clip-path:url(#SVGID_4_);fill:#959498;}
	.st99{clip-path:url(#SVGID_4_);fill:#C4C2CA;}
	.st100{clip-path:url(#SVGID_6_);fill:#BEBCC5;}
	.st101{clip-path:url(#SVGID_4_);fill:#969499;}
	.st102{clip-path:url(#SVGID_4_);fill:#C5C2CB;}
	.st103{clip-path:url(#SVGID_4_);fill:#C5C3CC;}
	.st104{clip-path:url(#SVGID_6_);fill:#BFBDC6;}
	.st105{clip-path:url(#SVGID_4_);fill:#97959A;}
	.st106{clip-path:url(#SVGID_4_);fill:#C6C4CD;}
	.st107{fill:#3CB881;}
	.st108{clip-path:url(#SVGID_4_);fill:#98969A;}
	.st109{clip-path:url(#SVGID_4_);fill:#C7C5CE;}
	.st110{clip-path:url(#SVGID_4_);fill:#99979C;}
	.st111{clip-path:url(#SVGID_4_);fill:#C8C5CF;}
	.st112{fill:#D8D8D8;}
	.st113{fill:#3E4141;}
	.st114{clip-path:url(#SVGID_4_);fill:#C9C6D0;}
	.st115{clip-path:url(#SVGID_4_);fill:#C9C7D1;}
	.st116{clip-path:url(#SVGID_4_);fill:#9A989D;}
	.st117{clip-path:url(#SVGID_4_);fill:#9B999E;}
	.st118{clip-path:url(#SVGID_4_);fill:#9B9A9E;}
	.st119{clip-path:url(#SVGID_4_);fill:#CAC7D1;}
	.st120{clip-path:url(#SVGID_6_);fill:#C1BFC8;}
	.st121{fill:#DBDBDA;}
	.st122{fill:#DBF0F4;}
	.st123{clip-path:url(#SVGID_6_);fill:#C2C0C9;}
	.st124{clip-path:url(#SVGID_4_);fill:#9D9B9F;}
	.st125{clip-path:url(#SVGID_6_);fill:#949295;}
	.st126{clip-path:url(#SVGID_6_);fill:#C3C1C9;}
	.st127{clip-path:url(#SVGID_4_);fill:#9E9CA1;}
	.st128{clip-path:url(#SVGID_6_);fill:#959498;}
	.st129{clip-path:url(#SVGID_4_);fill:#9F9CA2;}
	.st130{clip-path:url(#SVGID_4_);fill:#9F9DA3;}
	.st131{clip-path:url(#SVGID_6_);fill:#969499;}
	.st132{clip-path:url(#SVGID_6_);fill:#97959A;}
	.st133{fill:#DFF1ED;}
	.st134{clip-path:url(#SVGID_6_);fill:#98969A;}
	.st135{fill:#43B29B;}
	.st136{clip-path:url(#SVGID_6_);fill:#99979C;}
]]>
</style>
<g>
	<g>
		<g>
			<circle class="st11" cx="68.417" cy="68.417" r="63.333"/>
		</g>
	</g>
	<g>
		<g>
			<g>
				<path class="st133" d="M108.417,83.017c0,4.611-3.738,8.349-8.348,8.349H36.764c-4.609,0-8.348-3.737-8.348-8.349V46.148
					c0-4.61,3.738-8.348,8.348-8.348h63.305c4.609,0,8.348,3.737,8.348,8.348V83.017z"/>
			</g>
			<g>
				<path class="st133" d="M89.106,102.6c-0.655,0.655-1.716,0.655-2.37,0l-8-11.298c-0.653-0.654-0.653-1.716,0-2.371h18.369
					c0.654,0.655,0.654,1.717,0,2.371L89.106,102.6z"/>
			</g>
		</g>
	</g>
	<g>
		<g>
			<g>
				<path class="st22" d="M94.772,55.488L69.116,42.665L43.803,55.488c0,0.344,0,2.463,0,2.808l25.655,13.708l25.313-13.708
					C94.772,57.951,94.772,55.832,94.772,55.488z"/>
			</g>
		</g>
		<g>
			<g>
				<g>
					<path class="st66" d="M56.108,41.318c-0.918,0-1.662,0.744-1.662,1.664v33.354c0,0.918,0.744,1.663,1.662,1.663h24.953
						c0.92,0,1.665-0.745,1.665-1.663V47.701l-6.521-6.383H56.108z"/>
				</g>
			</g>
			<g>
				<path class="st121" d="M82.726,47.701h-3.843c-1.497,0-2.709-1.213-2.709-2.709l0.031-3.675L82.726,47.701z"/>
			</g>
			<g>
				<path class="st22" d="M79.108,51.236c0,0.465-0.377,0.84-0.84,0.84H58.653c-0.463,0-0.839-0.375-0.839-0.84l0,0
					c0-0.464,0.376-0.84,0.839-0.84h19.615C78.731,50.396,79.108,50.772,79.108,51.236L79.108,51.236z"/>
			</g>
			<g>
				<path class="st22" d="M79.108,54.854c0,0.464-0.377,0.84-0.84,0.84H58.653c-0.463,0-0.839-0.376-0.839-0.84l0,0
					c0-0.464,0.376-0.84,0.839-0.84h19.615C78.731,54.014,79.108,54.39,79.108,54.854L79.108,54.854z"/>
			</g>
			<g>
				<path class="st22" d="M79.108,58.606c0,0.464-0.377,0.84-0.84,0.84H58.653c-0.463,0-0.839-0.376-0.839-0.84l0,0
					c0-0.464,0.376-0.84,0.839-0.84h19.615C78.731,57.766,79.108,58.142,79.108,58.606L79.108,58.606z"/>
			</g>
			<g>
				<path class="st22" d="M68.683,62.606c0,0.464-0.377,0.84-0.84,0.84h-9.19c-0.463,0-0.839-0.376-0.839-0.84l0,0
					c0-0.464,0.376-0.84,0.839-0.84h9.19C68.306,61.766,68.683,62.142,68.683,62.606L68.683,62.606z"/>
			</g>
		</g>
		<g>
			<path class="st22" d="M43.807,59.525l-0.004,24.211c0,1.261,1.023,2.283,2.284,2.283h46.401c1.262,0,2.283-1.022,2.283-2.283
				L94.729,59.48L69.458,73.36L43.807,59.525"/>
		</g>
	</g>
</g>
</svg>
