<?xml version="1.0" encoding="utf-8"?>
<!-- Generator: Adobe Illustrator 16.0.0, SVG Export Plug-In . SVG Version: 6.00 Build 0)  -->
<!DOCTYPE svg PUBLIC "-//W3C//DTD SVG 1.1//EN" "http://www.w3.org/Graphics/SVG/1.1/DTD/svg11.dtd">
<svg version="1.1" id="Layer_1" xmlns="http://www.w3.org/2000/svg" xmlns:xlink="http://www.w3.org/1999/xlink" x="0px" y="0px"
	 width="136.833px" height="136.833px" viewBox="0 0 136.833 136.833" style="enable-background:new 0 0 136.833 136.833;"
	 xml:space="preserve">
<style type="text/css">
<![CDATA[
	.st0{fill-rule:evenodd;clip-rule:evenodd;fill:#08090B;}
	.st1{fill:#ABD9DF;}
	.st2{fill:#49A0AE;}
	.st3{fill:#ADA495;}
	.st4{fill:#AED1D5;}
	.st5{fill:#E1E0E0;}
	.st6{fill:#E1E2D4;}
	.st7{fill:#E4E1D3;}
	.st8{fill:#E4E4E4;}
	.st9{fill:#4ABC96;}
	.st10{fill:#E5DCD6;}
	.st11{fill:#E79E2D;}
	.st12{fill:#E7E0DC;}
	.st13{fill:#E7E4E2;}
	.st14{fill:#4D4C4C;}
	.st15{fill:#4D4D4D;}
	.st16{fill:#E84849;}
	.st17{fill:#E8C638;}
	.st18{fill:#B0DFE5;}
	.st19{fill:#B19353;}
	.st20{fill:#83725E;}
	.st21{fill:#B2B2B2;}
	.st22{fill:#83CECA;}
	.st23{fill:#B3932F;}
	.st24{fill:#1A7877;}
	.st25{fill:#868787;}
	.st26{fill:#87BCC0;}
	.st27{fill:#EB9682;}
	.st28{fill:#EBEDEF;}
	.st29{fill:#EBF3F6;}
	.st30{fill:#EDAC80;}
	.st31{fill:#1FA85B;}
	.st32{fill:#EFEAE9;}
	.st33{fill:#EFEDEC;}
	.st34{fill:#5399AA;}
	.st35{fill:#575757;}
	.st36{fill:#BAADAB;}
	.st37{fill:#BABEB5;}
	.st38{fill:#8BBEC0;}
	.st39{fill:#8BBEC3;}
	.st40{fill:#8CC3CC;}
	.st41{fill:#594E3C;}
	.st42{fill:#BDC0A7;}
	.st43{fill:#8FB5B6;}
	.st44{fill:#BF5537;}
	.st45{fill:#228080;}
	.st46{fill:#F1A977;}
	.st47{fill:#24986B;}
	.st48{opacity:0.5;fill:#FFFFFF;}
	.st49{fill:#F3F0ED;}
	.st50{fill:#F5B78C;}
	.st51{fill:#F5EE7D;}
	.st52{fill:#5B5B5B;}
	.st53{fill:#28898E;}
	.st54{fill:#5EACB4;}
	.st55{fill:#5F5E5E;}
	.st56{fill:#909090;}
	.st57{fill:#917C60;}
	.st58{fill:#C0B8AA;}
	.st59{fill:#C0C0C0;}
	.st60{fill:#C1AA9A;}
	.st61{fill:#C1D1B0;}
	.st62{fill:url(#SVGID_1_);}
	.st63{fill:url(#SVGID_2_);}
	.st64{fill:url(#SVGID_3_);}
	.st65{fill:url(#SVGID_4_);}
	.st66{fill:url(#SVGID_5_);}
	.st67{fill:#C2C099;}
	.st68{fill:#C3C3C3;}
	.st69{fill:#94C5C5;}
	.st70{fill:#958469;}
	.st71{fill:#95C3CC;}
	.st72{fill:#969595;}
	.st73{fill:#2C8484;}
	.st74{fill:#FBBF96;}
	.st75{fill:#98C7C8;}
	.st76{fill:#98C8D0;}
	.st77{fill:#99CA41;}
	.st78{fill:#C9C9C8;}
	.st79{fill:#FDD6B2;}
	.st80{opacity:0.7;}
	.st81{fill:#60C3B6;}
	.st82{fill:#616262;}
	.st83{fill:#FFFFFF;}
	.st84{fill:none;}
	.st85{fill:#9A856A;}
	.st86{fill:#9A8671;}
	.st87{fill:#676767;}
	.st88{fill:#67B8CB;}
	.st89{fill:#CADCBA;}
	.st90{fill:#CAE7DA;}
	.st91{fill:#CB774C;}
	.st92{fill:#9CD2D2;}
	.st93{fill:#CCC9B9;}
	.st94{fill:#9DC3C5;}
	.st95{fill:#CDC6C3;}
	.st96{fill:#CDCCCB;}
	.st97{fill:#CDCDCE;}
	.st98{fill:#9ECAD2;}
	.st99{fill:#30898E;}
	.st100{fill:#308A8E;}
	.st101{opacity:0.7;fill:#FFFFFF;}
	.st102{fill:#343433;}
	.st103{fill:#344E5D;}
	.st104{fill:#357180;}
	.st105{fill:#6A7872;}
	.st106{fill:#37848C;}
	.st107{fill:#37919B;}
	.st108{fill:#6C6C6B;}
	.st109{fill:#38A37C;}
	.st110{fill:#6CC077;}
	.st111{fill:#6D6868;}
	.st112{fill:#D0D1D1;}
	.st113{fill:#D0E3E5;}
	.st114{opacity:0.15;fill:#E3F3F7;}
	.st115{fill:#D4A160;}
	.st116{fill:#D4E1C4;}
	.st117{fill:#D5CEC9;}
	.st118{fill:#3B3838;}
	.st119{fill:#08090B;}
	.st120{fill:#3CB881;}
	.st121{fill:#D7B528;}
	.st122{fill:#D7D7D7;}
	.st123{fill:#3D4040;}
	.st124{fill:#D8D1CE;}
	.st125{fill:none;stroke:#75A9AB;stroke-linecap:round;stroke-linejoin:round;stroke-miterlimit:10;}
	.st126{fill:#A07238;}
	.st127{opacity:0.5;fill:#AED1D5;}
	.st128{fill:#A2D4DE;}
	.st129{fill:#74726A;}
	.st130{fill:#A69071;}
	.st131{fill:#776850;}
	.st132{fill:#A6CED1;}
	.st133{fill:#A78F7E;}
	.st134{fill:#787878;}
	.st135{fill:#DBD6D4;}
	.st136{fill:#DBDBDA;}
	.st137{fill:#DCB127;}
	.st138{fill:#DCD2CC;}
	.st139{fill:#DDD3CC;}
	.st140{fill:#DDDDDC;}
	.st141{fill:#418068;}
	.st142{fill:#41979F;}
]]>
</style>
<g>
	<g>
		<g>
			<circle class="st104" cx="68.417" cy="68.417" r="63.333"/>
		</g>
	</g>
	<g>
		<g>
			<path class="st85" d="M68.405,113.452c-1.507,0-2.729-1.222-2.729-2.73v-84.61c0-1.509,1.223-2.729,2.729-2.729
				c1.509,0,2.729,1.221,2.729,2.729v84.61C71.134,112.23,69.914,113.452,68.405,113.452z"/>
		</g>
		<g>
			<path class="st20" d="M68.405,113.452c-1.507,0-2.729-1.222-2.729-2.73v-84.61c0-1.509,1.223-2.729,2.729-2.729V113.452z"/>
		</g>
		<path class="st21" d="M35.43,32.417c0-2.395,1.94-4.333,4.334-4.333h57.298c2.393,0,4.334,1.938,4.334,4.333v11.978H35.43V32.417z
			"/>
		<path class="st44" d="M101.403,61.374c0,2.393-1.939,4.332-4.332,4.332H39.772c-2.393,0-4.331-1.939-4.331-4.332V38.329h65.962
			V61.374z"/>
		<g>
			<path class="st136" d="M45.2,50.055h-3.246v2.082h2.714c0.252,0,0.44,0.057,0.563,0.168c0.125,0.114,0.188,0.264,0.188,0.454
				c0,0.188-0.064,0.337-0.19,0.449c-0.125,0.112-0.313,0.167-0.561,0.167h-2.714v2.682c0,0.341-0.077,0.594-0.231,0.758
				c-0.153,0.166-0.351,0.246-0.592,0.246c-0.244,0-0.442-0.082-0.597-0.248c-0.154-0.167-0.23-0.419-0.23-0.756v-6.264
				c0-0.236,0.035-0.43,0.105-0.58c0.07-0.151,0.18-0.259,0.33-0.326c0.15-0.07,0.342-0.104,0.574-0.104H45.2
				c0.264,0,0.46,0.059,0.586,0.176c0.128,0.115,0.192,0.268,0.192,0.456c0,0.192-0.064,0.349-0.192,0.465
				C45.66,49.997,45.463,50.055,45.2,50.055z"/>
			<path class="st136" d="M50.788,48.645c0.844,0,1.566,0.17,2.173,0.512c0.605,0.344,1.063,0.832,1.374,1.462
				c0.313,0.63,0.468,1.373,0.468,2.223c0,0.631-0.086,1.202-0.257,1.717c-0.17,0.515-0.425,0.96-0.767,1.337
				c-0.339,0.377-0.758,0.668-1.253,0.868c-0.496,0.199-1.065,0.298-1.705,0.298c-0.639,0-1.208-0.102-1.711-0.307
				s-0.924-0.496-1.26-0.869c-0.337-0.374-0.592-0.823-0.764-1.35c-0.173-0.525-0.26-1.094-0.26-1.703
				c0-0.626,0.091-1.201,0.271-1.723c0.179-0.521,0.439-0.967,0.78-1.334c0.34-0.365,0.756-0.645,1.244-0.84
				C49.61,48.742,50.166,48.645,50.788,48.645z M53.129,52.833c0-0.596-0.096-1.113-0.289-1.55c-0.19-0.438-0.467-0.769-0.823-0.992
				s-0.768-0.337-1.229-0.337c-0.33,0-0.635,0.064-0.914,0.188s-0.52,0.305-0.722,0.541c-0.202,0.238-0.361,0.539-0.478,0.908
				c-0.117,0.369-0.175,0.783-0.175,1.242c0,0.463,0.058,0.88,0.175,1.254c0.116,0.373,0.28,0.685,0.494,0.93
				c0.213,0.246,0.457,0.432,0.732,0.553s0.579,0.184,0.908,0.184c0.422,0,0.811-0.105,1.162-0.316
				c0.354-0.211,0.637-0.537,0.846-0.977C53.025,54.018,53.129,53.476,53.129,52.833z"/>
			<path class="st136" d="M58.428,53.442H57.85v2.615c0,0.346-0.076,0.598-0.228,0.762c-0.151,0.162-0.351,0.242-0.595,0.242
				c-0.263,0-0.466-0.083-0.61-0.255c-0.145-0.169-0.216-0.419-0.216-0.749v-6.264c0-0.355,0.078-0.611,0.238-0.771
				c0.158-0.159,0.416-0.238,0.771-0.238h2.682c0.37,0,0.687,0.016,0.95,0.047c0.263,0.031,0.499,0.095,0.71,0.191
				c0.256,0.107,0.481,0.26,0.678,0.461c0.195,0.199,0.346,0.434,0.447,0.697s0.151,0.545,0.151,0.84
				c0,0.609-0.17,1.093-0.513,1.455c-0.342,0.363-0.861,0.621-1.557,0.773c0.291,0.156,0.572,0.384,0.838,0.688
				c0.267,0.304,0.504,0.627,0.714,0.971c0.208,0.341,0.372,0.65,0.488,0.926s0.175,0.465,0.175,0.57s-0.035,0.213-0.104,0.318
				c-0.067,0.105-0.161,0.188-0.279,0.25c-0.119,0.061-0.256,0.09-0.411,0.09c-0.186,0-0.341-0.042-0.466-0.129
				c-0.128-0.088-0.235-0.197-0.326-0.33c-0.091-0.135-0.213-0.33-0.369-0.589l-0.66-1.099c-0.237-0.404-0.449-0.711-0.636-0.923
				c-0.188-0.211-0.378-0.356-0.568-0.433C58.963,53.481,58.719,53.442,58.428,53.442z M59.371,50.022H57.85v2.237h1.478
				c0.396,0,0.729-0.034,0.999-0.103c0.27-0.068,0.477-0.187,0.619-0.35c0.142-0.166,0.213-0.391,0.213-0.68
				c0-0.227-0.057-0.427-0.172-0.598c-0.114-0.173-0.273-0.301-0.477-0.387C60.318,50.062,59.938,50.022,59.371,50.022z"/>
			<path class="st136" d="M73.419,54.48c0,0.493-0.128,0.935-0.38,1.327c-0.254,0.392-0.625,0.699-1.113,0.924
				c-0.488,0.221-1.068,0.33-1.737,0.33c-0.805,0-1.467-0.15-1.989-0.454c-0.37-0.218-0.67-0.511-0.901-0.874
				c-0.231-0.365-0.347-0.719-0.347-1.064c0-0.199,0.068-0.372,0.207-0.514c0.14-0.143,0.316-0.213,0.531-0.213
				c0.174,0,0.32,0.055,0.441,0.168c0.119,0.109,0.222,0.273,0.309,0.492c0.103,0.26,0.215,0.477,0.336,0.65
				c0.119,0.174,0.289,0.318,0.507,0.43c0.219,0.113,0.505,0.17,0.86,0.17c0.489,0,0.887-0.113,1.191-0.341s0.458-0.513,0.458-0.853
				c0-0.271-0.082-0.49-0.247-0.658s-0.377-0.297-0.639-0.385c-0.262-0.09-0.609-0.186-1.047-0.285
				c-0.584-0.136-1.074-0.297-1.467-0.48c-0.396-0.182-0.708-0.433-0.939-0.75c-0.231-0.315-0.348-0.709-0.348-1.178
				c0-0.449,0.123-0.847,0.366-1.195c0.245-0.349,0.599-0.614,1.062-0.802c0.463-0.188,1.007-0.28,1.632-0.28
				c0.5,0,0.933,0.061,1.297,0.186c0.365,0.124,0.667,0.287,0.908,0.493c0.239,0.206,0.415,0.422,0.527,0.647
				c0.111,0.226,0.166,0.447,0.166,0.662c0,0.195-0.068,0.373-0.208,0.529s-0.312,0.236-0.519,0.236
				c-0.189,0-0.333-0.047-0.431-0.141c-0.098-0.096-0.205-0.25-0.318-0.465c-0.148-0.308-0.327-0.547-0.534-0.721
				c-0.206-0.172-0.541-0.256-0.999-0.256c-0.426,0-0.77,0.094-1.029,0.281c-0.263,0.186-0.393,0.41-0.393,0.672
				c0,0.164,0.045,0.305,0.133,0.422c0.09,0.119,0.211,0.222,0.367,0.307c0.156,0.086,0.313,0.152,0.473,0.199
				c0.159,0.049,0.422,0.119,0.787,0.211c0.46,0.107,0.874,0.227,1.246,0.355c0.374,0.131,0.689,0.287,0.951,0.472
				c0.261,0.186,0.463,0.42,0.609,0.702C73.347,53.723,73.419,54.07,73.419,54.48z"/>
			<path class="st136" d="M80.027,56.001l-0.388-1.021h-3.31l-0.389,1.046c-0.151,0.404-0.28,0.68-0.39,0.822
				c-0.105,0.142-0.283,0.213-0.527,0.213c-0.206,0-0.39-0.074-0.55-0.227c-0.159-0.151-0.238-0.323-0.238-0.516
				c0-0.111,0.018-0.226,0.056-0.346c0.037-0.117,0.1-0.283,0.183-0.494l2.083-5.287c0.059-0.148,0.131-0.332,0.214-0.545
				s0.172-0.389,0.267-0.531c0.094-0.141,0.217-0.254,0.371-0.34c0.155-0.088,0.344-0.131,0.57-0.131
				c0.229,0,0.421,0.043,0.574,0.131c0.153,0.086,0.277,0.199,0.373,0.335c0.094,0.138,0.174,0.284,0.238,0.442
				c0.064,0.156,0.146,0.366,0.246,0.629l2.127,5.254c0.167,0.398,0.25,0.689,0.25,0.873c0,0.188-0.078,0.359-0.234,0.518
				c-0.158,0.158-0.349,0.234-0.571,0.234c-0.13,0-0.24-0.021-0.333-0.069c-0.092-0.044-0.17-0.107-0.232-0.188
				c-0.063-0.079-0.131-0.2-0.203-0.366S80.08,56.127,80.027,56.001z M76.762,53.743h2.433l-1.228-3.36L76.762,53.743z"/>
			<path class="st136" d="M84.614,49.645v5.924h3.343c0.267,0,0.472,0.064,0.614,0.193c0.142,0.131,0.213,0.293,0.213,0.489
				c0,0.2-0.069,0.362-0.21,0.487c-0.142,0.122-0.347,0.186-0.617,0.186h-3.98c-0.358,0-0.618-0.08-0.775-0.239
				s-0.235-0.417-0.235-0.772v-6.268c0-0.334,0.074-0.584,0.224-0.75c0.15-0.167,0.349-0.25,0.593-0.25
				c0.248,0,0.448,0.082,0.602,0.246C84.537,49.057,84.614,49.307,84.614,49.645z"/>
			<path class="st136" d="M95.23,50.055h-3.715v1.998h3.421c0.252,0,0.439,0.058,0.564,0.17c0.123,0.112,0.187,0.262,0.187,0.447
				c0,0.184-0.063,0.336-0.184,0.453c-0.122,0.117-0.313,0.174-0.567,0.174h-3.421v2.315h3.843c0.26,0,0.454,0.06,0.586,0.181
				s0.197,0.281,0.197,0.479c0,0.193-0.065,0.351-0.197,0.471c-0.132,0.121-0.326,0.182-0.586,0.182h-4.48
				c-0.358,0-0.617-0.08-0.775-0.239c-0.156-0.159-0.234-0.417-0.234-0.772v-6.119c0-0.236,0.034-0.43,0.105-0.58
				c0.07-0.151,0.18-0.259,0.33-0.326c0.149-0.07,0.34-0.104,0.574-0.104h4.353c0.264,0,0.459,0.059,0.587,0.176
				c0.127,0.115,0.191,0.268,0.191,0.456c0,0.192-0.064,0.349-0.191,0.465C95.689,49.997,95.494,50.055,95.23,50.055z"/>
		</g>
		<path class="st21" d="M91.236,40.922c0,0.463-0.374,0.836-0.836,0.836h-2.304c-0.463,0-0.839-0.373-0.839-0.836v-6.004
			c0-0.461,0.376-0.837,0.839-0.837H90.4c0.462,0,0.836,0.376,0.836,0.837V40.922z"/>
		<path class="st21" d="M50.167,40.922c0,0.463-0.374,0.836-0.836,0.836h-2.304c-0.463,0-0.839-0.373-0.839-0.836v-6.004
			c0-0.461,0.376-0.837,0.839-0.837h2.304c0.462,0,0.836,0.376,0.836,0.837V40.922z"/>
	</g>
</g>
</svg>
