<?xml version="1.0" encoding="utf-8"?>
<!-- Generator: Adobe Illustrator 16.0.0, SVG Export Plug-In . SVG Version: 6.00 Build 0)  -->
<!DOCTYPE svg PUBLIC "-//W3C//DTD SVG 1.1//EN" "http://www.w3.org/Graphics/SVG/1.1/DTD/svg11.dtd">
<svg version="1.1" id="Layer_1" xmlns="http://www.w3.org/2000/svg" xmlns:xlink="http://www.w3.org/1999/xlink" x="0px" y="0px"
	 width="136.833px" height="136.834px" viewBox="0 0 136.833 136.834" style="enable-background:new 0 0 136.833 136.834;"
	 xml:space="preserve">
<style type="text/css">
<![CDATA[
	.st0{fill-rule:evenodd;clip-rule:evenodd;fill:#08090B;}
	.st1{fill:#ABD9DF;}
	.st2{fill:#49A0AE;}
	.st3{fill:#ADA495;}
	.st4{fill:#AED1D5;}
	.st5{fill:#E1E0E0;}
	.st6{fill:#E1E2D4;}
	.st7{fill:#E4E1D3;}
	.st8{fill:#E4E4E4;}
	.st9{fill:#4ABC96;}
	.st10{fill:#E5DCD6;}
	.st11{fill:#E79E2D;}
	.st12{fill:#E7E0DC;}
	.st13{fill:#E7E4E2;}
	.st14{fill:#4D4C4C;}
	.st15{fill:#4D4D4D;}
	.st16{fill:#E84849;}
	.st17{fill:#E8C638;}
	.st18{fill:#B0DFE5;}
	.st19{fill:#B19353;}
	.st20{fill:#83725E;}
	.st21{fill:#B2B2B2;}
	.st22{fill:#83CECA;}
	.st23{fill:#B3932F;}
	.st24{fill:#1A7877;}
	.st25{fill:#868787;}
	.st26{fill:#87BCC0;}
	.st27{fill:#EB9682;}
	.st28{fill:#EBEDEF;}
	.st29{fill:#EBF3F6;}
	.st30{fill:#EDAC80;}
	.st31{fill:#1FA85B;}
	.st32{fill:#EFEAE9;}
	.st33{fill:#EFEDEC;}
	.st34{fill:#5399AA;}
	.st35{fill:#575757;}
	.st36{fill:#BAADAB;}
	.st37{fill:#BABEB5;}
	.st38{fill:#8BBEC0;}
	.st39{fill:#8BBEC3;}
	.st40{fill:#8CC3CC;}
	.st41{fill:#594E3C;}
	.st42{fill:#BDC0A7;}
	.st43{fill:#8FB5B6;}
	.st44{fill:#BF5537;}
	.st45{fill:#228080;}
	.st46{fill:#F1A977;}
	.st47{fill:#24986B;}
	.st48{opacity:0.5;fill:#FFFFFF;}
	.st49{fill:#F3F0ED;}
	.st50{fill:#F5B78C;}
	.st51{fill:#F5EE7D;}
	.st52{fill:#5B5B5B;}
	.st53{fill:#28898E;}
	.st54{fill:#5EACB4;}
	.st55{fill:#5F5E5E;}
	.st56{fill:#909090;}
	.st57{fill:#917C60;}
	.st58{fill:#C0B8AA;}
	.st59{fill:#C0C0C0;}
	.st60{fill:#C1AA9A;}
	.st61{fill:#C1D1B0;}
	.st62{fill:url(#SVGID_1_);}
	.st63{fill:url(#SVGID_2_);}
	.st64{fill:url(#SVGID_3_);}
	.st65{fill:url(#SVGID_4_);}
	.st66{fill:url(#SVGID_5_);}
	.st67{fill:#C2C099;}
	.st68{fill:#C3C3C3;}
	.st69{fill:#94C5C5;}
	.st70{fill:#958469;}
	.st71{fill:#95C3CC;}
	.st72{fill:#969595;}
	.st73{fill:#2C8484;}
	.st74{fill:#FBBF96;}
	.st75{fill:#98C7C8;}
	.st76{fill:#98C8D0;}
	.st77{fill:#99CA41;}
	.st78{fill:#C9C9C8;}
	.st79{fill:#FDD6B2;}
	.st80{opacity:0.7;}
	.st81{fill:#60C3B6;}
	.st82{fill:#616262;}
	.st83{fill:#FFFFFF;}
	.st84{fill:none;}
	.st85{fill:#9A856A;}
	.st86{fill:#9A8671;}
	.st87{fill:#676767;}
	.st88{fill:#67B8CB;}
	.st89{fill:#CADCBA;}
	.st90{fill:#CAE7DA;}
	.st91{fill:#CB774C;}
	.st92{fill:#9CD2D2;}
	.st93{fill:#CCC9B9;}
	.st94{fill:#9DC3C5;}
	.st95{fill:#CDC6C3;}
	.st96{fill:#CDCCCB;}
	.st97{fill:#CDCDCE;}
	.st98{fill:#9ECAD2;}
	.st99{fill:#30898E;}
	.st100{fill:#308A8E;}
	.st101{opacity:0.7;fill:#FFFFFF;}
	.st102{fill:#343433;}
	.st103{fill:#344E5D;}
	.st104{fill:#357180;}
	.st105{fill:#6A7872;}
	.st106{fill:#37848C;}
	.st107{fill:#37919B;}
	.st108{fill:#6C6C6B;}
	.st109{fill:#38A37C;}
	.st110{fill:#6CC077;}
	.st111{fill:#6D6868;}
	.st112{fill:#D0D1D1;}
	.st113{fill:#D0E3E5;}
	.st114{opacity:0.15;fill:#E3F3F7;}
	.st115{fill:#D4A160;}
	.st116{fill:#D4E1C4;}
	.st117{fill:#D5CEC9;}
	.st118{fill:#3B3838;}
	.st119{fill:#08090B;}
	.st120{fill:#3CB881;}
	.st121{fill:#D7B528;}
	.st122{fill:#D7D7D7;}
	.st123{fill:#3D4040;}
	.st124{fill:#D8D1CE;}
	.st125{fill:none;stroke:#75A9AB;stroke-linecap:round;stroke-linejoin:round;stroke-miterlimit:10;}
	.st126{fill:#A07238;}
	.st127{opacity:0.5;fill:#AED1D5;}
	.st128{fill:#A2D4DE;}
	.st129{fill:#74726A;}
	.st130{fill:#A69071;}
	.st131{fill:#776850;}
	.st132{fill:#A6CED1;}
	.st133{fill:#A78F7E;}
	.st134{fill:#787878;}
	.st135{fill:#DBD6D4;}
	.st136{fill:#DBDBDA;}
	.st137{fill:#DCB127;}
	.st138{fill:#DCD2CC;}
	.st139{fill:#DDD3CC;}
	.st140{fill:#DDDDDC;}
	.st141{fill:#418068;}
	.st142{fill:#41979F;}
]]>
</style>
<g>
	<g>
		<g>
			<circle class="st104" cx="68.416" cy="68.417" r="63.333"/>
		</g>
	</g>
	<g>
		<path class="st113" d="M112.155,38.157c-0.203-0.051-0.412-0.086-0.629-0.086H47.065c-0.73,0-1.387,0.303-1.857,0.785
			c-0.484,0.473-0.785,1.129-0.785,1.858v33.095c0,1.437,1.164,2.6,2.6,2.6s2.6-1.163,2.6-2.6V57.696h59.521v16.113
			c0,1.437,1.164,2.6,2.598,2.6c1.438,0,2.602-1.163,2.602-2.6V40.714C114.343,39.418,113.394,38.354,112.155,38.157z"/>
		<polygon class="st69" points="85.015,78.835 90.558,78.835 109.144,61.984 109.144,57.696 49.622,57.696 25.405,78.835 		"/>
		<polygon class="st38" points="85.015,78.835 90.558,78.835 109.144,61.984 109.144,57.696 		"/>
		<path class="st54" d="M51.095,57.672c0,0,3.514-3.681,12.867-3.681c9.355,0,9.02,0.848,14.438,3.681H51.095z"/>
		<path class="st54" d="M107.151,57.672c0,0-2.523-3.676-12.656-3.676c-10.131,0-9.137,0.793-14.648,3.676H107.151z"/>
		<path class="st24" d="M60.583,68.613c-19.365,0-31.191,7.406-31.191,7.406h61.992C91.384,76.019,79.946,68.613,60.583,68.613z"/>
		<g>
			<path class="st142" d="M89.001,75.342l-3.986,3.493h5.205L89.692,75.5C89.692,75.5,89.446,75.442,89.001,75.342z"/>
			<polygon class="st45" points="90.22,78.835 90.472,80.438 94.845,74.951 90.558,78.835 			"/>
			<path class="st53" d="M108.276,58.084c-34.74-2.729-60.084,0-60.084,0L29.001,76.149c12.078-10.992,54.123-2.114,60-0.807
				l18.303-16.034L108.276,58.084z"/>
			<path class="st45" d="M89.001,75.342c0.445,0.1,0.691,0.157,0.691,0.157l0.527,3.336h0.338l4.287-3.885l12.459-15.643
				L89.001,75.342z"/>
		</g>
		<g>
			<path class="st113" d="M87.831,59.428c1.436,0,2.6,1.163,2.6,2.6v33.096c0,1.436-1.164,2.6-2.6,2.6l0,0
				c-1.436,0-2.6-1.164-2.6-2.6V62.028C85.231,60.591,86.396,59.428,87.831,59.428L87.831,59.428z"/>
			<g>
				<path class="st113" d="M90.214,76.409c0,1.437-1.164,2.6-2.602,2.6H23.153c-1.436,0-2.6-1.163-2.6-2.6l0,0
					c0-1.435,1.164-2.6,2.6-2.6h64.459C89.05,73.809,90.214,74.974,90.214,76.409L90.214,76.409z"/>
				<path class="st113" d="M90.214,61.984c0,1.437-1.164,2.6-2.602,2.6H23.153c-1.436,0-2.6-1.163-2.6-2.6l0,0
					c0-1.435,1.164-2.6,2.6-2.6h64.459C89.05,59.384,90.214,60.549,90.214,61.984L90.214,61.984z"/>
				<path class="st113" d="M23.112,59.428c1.434,0,2.596,1.163,2.596,2.6v33.096c0,1.436-1.162,2.6-2.596,2.6l0,0
					c-1.438,0-2.602-1.164-2.602-2.6V62.028C20.511,60.591,21.675,59.428,23.112,59.428L23.112,59.428z"/>
				<g>
					<path class="st113" d="M40.136,59.428c0.574,0,1.041,1.164,1.041,2.6v13.344c0,1.434-0.467,2.598-1.041,2.598l0,0
						c-0.574,0-1.039-1.164-1.039-2.598V62.028C39.097,60.592,39.562,59.428,40.136,59.428L40.136,59.428z"/>
					<path class="st113" d="M29.782,59.428c0.572,0,1.037,1.164,1.037,2.6v13.344c0,1.434-0.465,2.598-1.037,2.598l0,0
						c-0.574,0-1.041-1.164-1.041-2.598V62.028C28.741,60.592,29.208,59.428,29.782,59.428L29.782,59.428z"/>
					<path class="st113" d="M34.937,59.428c0.574,0,1.041,1.164,1.041,2.6v13.344c0,1.434-0.467,2.598-1.041,2.598l0,0
						c-0.572,0-1.039-1.164-1.039-2.598V62.028C33.897,60.592,34.364,59.428,34.937,59.428L34.937,59.428z"/>
					<path class="st113" d="M45.116,59.428c0.576,0,1.039,1.164,1.039,2.6v13.344c0,1.434-0.463,2.598-1.039,2.598l0,0
						c-0.574,0-1.039-1.164-1.039-2.598V62.028C44.077,60.592,44.542,59.428,45.116,59.428L45.116,59.428z"/>
					<path class="st113" d="M50.272,59.428c0.576,0,1.039,1.164,1.039,2.6v13.344c0,1.434-0.463,2.598-1.039,2.598l0,0
						c-0.572,0-1.039-1.164-1.039-2.598V62.028C49.233,60.592,49.7,59.428,50.272,59.428L50.272,59.428z"/>
					<path class="st113" d="M60.192,59.428c0.574,0,1.039,1.164,1.039,2.6v13.344c0,1.434-0.465,2.598-1.039,2.598l0,0
						c-0.574,0-1.041-1.164-1.041-2.598V62.028C59.151,60.592,59.618,59.428,60.192,59.428L60.192,59.428z"/>
					<path class="st113" d="M65.349,59.428c0.572,0,1.039,1.164,1.039,2.6v13.344c0,1.434-0.467,2.598-1.039,2.598l0,0
						c-0.574,0-1.039-1.164-1.039-2.598V62.028C64.31,60.592,64.774,59.428,65.349,59.428L65.349,59.428z"/>
					<path class="st113" d="M75.786,59.428c0.576,0,1.041,1.164,1.041,2.6v13.344c0,1.434-0.465,2.598-1.041,2.598l0,0
						c-0.572,0-1.037-1.164-1.037-2.598V62.028C74.749,60.592,75.214,59.428,75.786,59.428L75.786,59.428z"/>
					<path class="st113" d="M80.944,59.428c0.574,0,1.039,1.164,1.039,2.6v13.344c0,1.434-0.465,2.598-1.039,2.598l0,0
						c-0.576,0-1.039-1.164-1.039-2.598V62.028C79.905,60.592,80.368,59.428,80.944,59.428L80.944,59.428z"/>
					<path class="st113" d="M55.343,59.428c0.572,0,1.039,1.164,1.039,2.6v13.344c0,1.434-0.467,2.598-1.039,2.598l0,0
						c-0.576,0-1.041-1.164-1.041-2.598V62.028C54.302,60.592,54.767,59.428,55.343,59.428L55.343,59.428z"/>
					<path class="st113" d="M70.677,59.428c0.572,0,1.041,1.164,1.041,2.6v13.344c0,1.434-0.469,2.598-1.041,2.598l0,0
						c-0.574,0-1.041-1.164-1.041-2.598V62.028C69.636,60.592,70.103,59.428,70.677,59.428L70.677,59.428z"/>
				</g>
			</g>
		</g>
	</g>
</g>
</svg>
