<?xml version="1.0" encoding="utf-8"?>
<!-- Generator: Adobe Illustrator 16.0.0, SVG Export Plug-In . SVG Version: 6.00 Build 0)  -->
<!DOCTYPE svg PUBLIC "-//W3C//DTD SVG 1.1//EN" "http://www.w3.org/Graphics/SVG/1.1/DTD/svg11.dtd">
<svg version="1.1" id="Layer_1" xmlns="http://www.w3.org/2000/svg" xmlns:xlink="http://www.w3.org/1999/xlink" x="0px" y="0px"
	 width="136.833px" height="136.833px" viewBox="0 0 136.833 136.833" style="enable-background:new 0 0 136.833 136.833;"
	 xml:space="preserve">
<style type="text/css">
<![CDATA[
	.st0{fill-rule:evenodd;clip-rule:evenodd;fill:#08090B;}
	.st1{fill:#ABD9DF;}
	.st2{fill:#49A0AE;}
	.st3{fill:#ADA495;}
	.st4{fill:#AED1D5;}
	.st5{fill:#E1E0E0;}
	.st6{fill:#E1E2D4;}
	.st7{fill:#E4E1D3;}
	.st8{fill:#E4E4E4;}
	.st9{fill:#4ABC96;}
	.st10{fill:#E5DCD6;}
	.st11{fill:#E79E2D;}
	.st12{fill:#E7E0DC;}
	.st13{fill:#E7E4E2;}
	.st14{fill:#4D4C4C;}
	.st15{fill:#4D4D4D;}
	.st16{fill:#E84849;}
	.st17{fill:#E8C638;}
	.st18{fill:#B0DFE5;}
	.st19{fill:#B19353;}
	.st20{fill:#83725E;}
	.st21{fill:#B2B2B2;}
	.st22{fill:#83CECA;}
	.st23{fill:#B3932F;}
	.st24{fill:#1A7877;}
	.st25{fill:#868787;}
	.st26{fill:#87BCC0;}
	.st27{fill:#EB9682;}
	.st28{fill:#EBEDEF;}
	.st29{fill:#EBF3F6;}
	.st30{fill:#EDAC80;}
	.st31{fill:#1FA85B;}
	.st32{fill:#EFEAE9;}
	.st33{fill:#EFEDEC;}
	.st34{fill:#5399AA;}
	.st35{fill:#575757;}
	.st36{fill:#BAADAB;}
	.st37{fill:#BABEB5;}
	.st38{fill:#8BBEC0;}
	.st39{fill:#8BBEC3;}
	.st40{fill:#8CC3CC;}
	.st41{fill:#594E3C;}
	.st42{fill:#BDC0A7;}
	.st43{fill:#8FB5B6;}
	.st44{fill:#BF5537;}
	.st45{fill:#228080;}
	.st46{fill:#F1A977;}
	.st47{fill:#24986B;}
	.st48{opacity:0.5;fill:#FFFFFF;}
	.st49{fill:#F3F0ED;}
	.st50{fill:#F5B78C;}
	.st51{fill:#F5EE7D;}
	.st52{fill:#5B5B5B;}
	.st53{fill:#28898E;}
	.st54{fill:#5EACB4;}
	.st55{fill:#5F5E5E;}
	.st56{fill:#909090;}
	.st57{fill:#917C60;}
	.st58{fill:#C0B8AA;}
	.st59{fill:#C0C0C0;}
	.st60{fill:#C1AA9A;}
	.st61{fill:#C1D1B0;}
	.st62{fill:url(#SVGID_1_);}
	.st63{fill:url(#SVGID_2_);}
	.st64{fill:url(#SVGID_3_);}
	.st65{fill:url(#SVGID_4_);}
	.st66{fill:url(#SVGID_5_);}
	.st67{fill:#C2C099;}
	.st68{fill:#C3C3C3;}
	.st69{fill:#94C5C5;}
	.st70{fill:#958469;}
	.st71{fill:#95C3CC;}
	.st72{fill:#969595;}
	.st73{fill:#2C8484;}
	.st74{fill:#FBBF96;}
	.st75{fill:#98C7C8;}
	.st76{fill:#98C8D0;}
	.st77{fill:#99CA41;}
	.st78{fill:#C9C9C8;}
	.st79{fill:#FDD6B2;}
	.st80{opacity:0.7;}
	.st81{fill:#60C3B6;}
	.st82{fill:#616262;}
	.st83{fill:#FFFFFF;}
	.st84{fill:none;}
	.st85{fill:#9A856A;}
	.st86{fill:#9A8671;}
	.st87{fill:#676767;}
	.st88{fill:#67B8CB;}
	.st89{fill:#CADCBA;}
	.st90{fill:#CAE7DA;}
	.st91{fill:#CB774C;}
	.st92{fill:#9CD2D2;}
	.st93{fill:#CCC9B9;}
	.st94{fill:#9DC3C5;}
	.st95{fill:#CDC6C3;}
	.st96{fill:#CDCCCB;}
	.st97{fill:#CDCDCE;}
	.st98{fill:#9ECAD2;}
	.st99{fill:#30898E;}
	.st100{fill:#308A8E;}
	.st101{opacity:0.7;fill:#FFFFFF;}
	.st102{fill:#343433;}
	.st103{fill:#344E5D;}
	.st104{fill:#357180;}
	.st105{fill:#6A7872;}
	.st106{fill:#37848C;}
	.st107{fill:#37919B;}
	.st108{fill:#6C6C6B;}
	.st109{fill:#38A37C;}
	.st110{fill:#6CC077;}
	.st111{fill:#6D6868;}
	.st112{fill:#D0D1D1;}
	.st113{fill:#D0E3E5;}
	.st114{opacity:0.15;fill:#E3F3F7;}
	.st115{fill:#D4A160;}
	.st116{fill:#D4E1C4;}
	.st117{fill:#D5CEC9;}
	.st118{fill:#3B3838;}
	.st119{fill:#08090B;}
	.st120{fill:#3CB881;}
	.st121{fill:#D7B528;}
	.st122{fill:#D7D7D7;}
	.st123{fill:#3D4040;}
	.st124{fill:#D8D1CE;}
	.st125{fill:none;stroke:#75A9AB;stroke-linecap:round;stroke-linejoin:round;stroke-miterlimit:10;}
	.st126{fill:#A07238;}
	.st127{opacity:0.5;fill:#AED1D5;}
	.st128{fill:#A2D4DE;}
	.st129{fill:#74726A;}
	.st130{fill:#A69071;}
	.st131{fill:#776850;}
	.st132{fill:#A6CED1;}
	.st133{fill:#A78F7E;}
	.st134{fill:#787878;}
	.st135{fill:#DBD6D4;}
	.st136{fill:#DBDBDA;}
	.st137{fill:#DCB127;}
	.st138{fill:#DCD2CC;}
	.st139{fill:#DDD3CC;}
	.st140{fill:#DDDDDC;}
	.st141{fill:#418068;}
	.st142{fill:#41979F;}
]]>
</style>
<g>
	<g>
		<g>
			<circle class="st2" cx="68.417" cy="68.417" r="63.333"/>
		</g>
	</g>
	<g>
		<path class="st1" d="M103.997,53.507h-71.16c-0.796,0-1.442,0.646-1.442,1.441v48.354c0,0.795,0.646,1.441,1.442,1.441h71.16
			c0.796,0,1.442-0.646,1.442-1.441V54.949C105.439,54.154,104.792,53.507,103.997,53.507z"/>
		<path class="st104" d="M110.382,55.845c-0.042-0.432-0.285-0.809-0.629-1.044l-18.117-15.34V28.835
			c0-0.797-0.646-1.441-1.442-1.441h-6.841c-0.797,0-1.442,0.645-1.442,1.441v2.393L68.308,19.71
			c-0.55-0.465-1.355-0.455-1.892,0.025L27.018,54.847c-0.056,0.045-0.108,0.092-0.156,0.143c-0.327,0.324-0.47,0.783-0.401,1.23
			v3.412c0,0.796,0.646,1.443,1.442,1.443h81.044c0.797,0,1.443-0.647,1.443-1.443v-3.521
			C110.395,56.023,110.394,55.933,110.382,55.845z"/>
	</g>
	<g>
		<path class="st35" d="M86.899,84.098c-0.183-0.004-0.357-0.105-0.442-0.281c-1.81-3.692-3.688-5.637-5.479-5.574
			c-2.676,0.072-4.542,4.385-4.562,4.43c-0.106,0.254-0.398,0.374-0.654,0.263c-0.255-0.107-0.373-0.401-0.265-0.654
			c0.085-0.201,2.144-4.949,5.454-5.038c2.221-0.049,4.381,2.005,6.402,6.135c0.121,0.248,0.02,0.547-0.229,0.668
			C87.052,84.083,86.975,84.098,86.899,84.098z"/>
	</g>
	<g>
		<g>
			<g>
				<g>
					<g>
						<path class="st58" d="M83.151,74.882c-1.328-1.327-17.138-1.961-19.862,0.765l-26.755,26.755
							c-2.725,2.724-2.559,5.666,0.165,8.39l10.69,10.69c2.727,2.727,5.5,2.723,8.225,0l26.755-26.756
							C85.091,92.001,84.477,76.209,83.151,74.882z M74.008,84.722c-1.061-1.061-1.061-2.777,0-3.838
							c1.06-1.06,2.778-1.061,3.838,0.001c1.06,1.06,1.06,2.774,0,3.837C76.786,85.783,75.068,85.783,74.008,84.722z"/>
					</g>
					<g>
						
							<radialGradient id="SVGID_1_" cx="65.7305" cy="101.4595" r="24.2629" gradientTransform="matrix(1 0 0 1 -6.5186 -3.375)" gradientUnits="userSpaceOnUse">
							<stop  offset="0" style="stop-color:#E8E2D3"/>
							<stop  offset="1" style="stop-color:#DCD8CD"/>
						</radialGradient>
						<path class="st62" d="M82.482,74.815c-1.06-1.058-16.605-1.858-19.264,0.803l-26.275,26.274
							c-2.658,2.659-2.659,5.367,0.001,8.026l10.433,10.434c2.661,2.661,5.37,2.659,8.028,0L81.678,94.08
							C84.339,91.417,83.541,75.875,82.482,74.815z M73.519,84.314c-1.035-1.035-1.035-2.712-0.002-3.746
							c1.035-1.035,2.714-1.034,3.748,0.001c1.034,1.033,1.034,2.711-0.001,3.746C76.23,85.348,74.552,85.347,73.519,84.314z"/>
					</g>
					<g>
						<path class="st84" d="M77.264,84.315c1.035-1.035,1.035-2.713,0.001-3.746c-0.297-0.298-0.648-0.499-1.02-0.625
							c-1.042,0.968-2.185,2.047-3.396,3.202c0.118,0.427,0.333,0.833,0.669,1.168C74.552,85.347,76.23,85.348,77.264,84.315z"/>
						
							<radialGradient id="SVGID_2_" cx="68.9282" cy="101.9458" r="22.4618" gradientTransform="matrix(1 0 0 1 -6.5186 -3.375)" gradientUnits="userSpaceOnUse">
							<stop  offset="0" style="stop-color:#E8E2D3"/>
							<stop  offset="1" style="stop-color:#DCD8CD"/>
						</radialGradient>
						<path class="st63" d="M76.246,79.944c0.371,0.126,0.723,0.327,1.02,0.625c1.034,1.033,1.034,2.711-0.001,3.746
							c-1.034,1.033-2.712,1.032-3.745-0.001c-0.336-0.335-0.551-0.741-0.669-1.168c-12.165,11.6-31.506,31.175-31.506,31.175
							l6.032,6.031c2.661,2.661,5.37,2.659,8.028,0L81.678,94.08c2.661-2.662,1.862-18.204,0.804-19.265
							C82.231,74.562,79.805,76.634,76.246,79.944z"/>
					</g>
				</g>
			</g>
		</g>
		<g>
			<path class="st49" d="M75.423,78.714c-2.057,0.001-3.726,1.668-3.726,3.727c0,2.057,1.669,3.726,3.726,3.726
				c2.059,0,3.724-1.669,3.724-3.726C79.146,80.383,77.481,78.714,75.423,78.714z M75.423,85.086c-1.461,0-2.646-1.185-2.646-2.646
				c0-1.463,1.185-2.646,2.646-2.646s2.645,1.184,2.645,2.645S76.884,85.085,75.423,85.086z"/>
		</g>
	</g>
	<g>
		<path class="st84" d="M106.653,76.207c2.835-4.992,0.113-11.66-1.214-14.119v15.758C105.9,77.333,106.318,76.794,106.653,76.207z"
			/>
		<path class="st35" d="M105.973,61.076h-0.534v1.012c1.327,2.459,4.049,9.127,1.214,14.119c-0.335,0.588-0.753,1.127-1.214,1.639
			c-4.322,4.791-14.185,6.197-29.416,4.155c-0.276-0.054-0.526,0.155-0.562,0.429c-0.037,0.273,0.155,0.525,0.429,0.562
			c4.553,0.611,8.641,0.916,12.263,0.916c8.146-0.001,13.917-1.549,17.286-4.62c1.24-1.13,2.165-2.461,2.748-4.006
			C110.314,69.647,107.179,63.083,105.973,61.076z"/>
	</g>
	<g>
		<path class="st129" d="M59.685,90.042c0.825,0.824,0.477,2.343,0.349,2.326c-1.502-0.111-3.298,0.477-4.507,1.685
			c-1.227,1.228-1.427,2.528-0.603,3.352c0.952,0.952,2.216,0.2,3.937-0.899c2.052-1.316,4.946-2.854,7.346-0.455
			c1.85,1.85,1.85,4.413,0.036,6.887l0.714,0.713c0.843,0.844,0.916,1.576,0.184,2.309l-0.091,0.092
			c-0.769,0.769-1.431,0.658-2.291-0.2l-0.677-0.679c-2.455,1.979-4.726,2.234-5.752,1.209c-0.787-0.788-0.476-2.235-0.329-2.234
			c1.539,0.145,3.589-0.513,5.019-1.943c1.301-1.3,1.502-2.601,0.679-3.424c-1.009-1.007-2.419-0.146-4.067,0.879
			c-1.959,1.264-4.727,2.747-7.143,0.331c-1.758-1.761-1.776-4.269-0.165-6.613l-0.678-0.679c-0.842-0.842-0.935-1.557-0.202-2.289
			l0.111-0.109c0.749-0.75,1.429-0.659,2.289,0.201l0.623,0.623C56.718,89.31,58.751,89.109,59.685,90.042z"/>
	</g>
</g>
</svg>
