<?xml version="1.0" encoding="utf-8"?>
<!-- Generator: Adobe Illustrator 16.0.0, SVG Export Plug-In . SVG Version: 6.00 Build 0)  -->
<!DOCTYPE svg PUBLIC "-//W3C//DTD SVG 1.1//EN" "http://www.w3.org/Graphics/SVG/1.1/DTD/svg11.dtd">
<svg version="1.1" id="Layer_1" xmlns="http://www.w3.org/2000/svg" xmlns:xlink="http://www.w3.org/1999/xlink" x="0px" y="0px"
	 width="136.833px" height="136.834px" viewBox="0 0 136.833 136.834" style="enable-background:new 0 0 136.833 136.834;"
	 xml:space="preserve">
<style type="text/css">
<![CDATA[
	.st0{fill-rule:evenodd;clip-rule:evenodd;fill:#08090B;}
	.st1{fill:#ABD9DF;}
	.st2{fill:#49A0AE;}
	.st3{fill:#ADA495;}
	.st4{fill:#AED1D5;}
	.st5{fill:#E1E0E0;}
	.st6{fill:#E1E2D4;}
	.st7{fill:#E4E1D3;}
	.st8{fill:#E4E4E4;}
	.st9{fill:#4ABC96;}
	.st10{fill:#E5DCD6;}
	.st11{fill:#E79E2D;}
	.st12{fill:#E7E0DC;}
	.st13{fill:#E7E4E2;}
	.st14{fill:#4D4C4C;}
	.st15{fill:#4D4D4D;}
	.st16{fill:#E84849;}
	.st17{fill:#E8C638;}
	.st18{fill:#B0DFE5;}
	.st19{fill:#B19353;}
	.st20{fill:#83725E;}
	.st21{fill:#B2B2B2;}
	.st22{fill:#83CECA;}
	.st23{fill:#B3932F;}
	.st24{fill:#1A7877;}
	.st25{fill:#868787;}
	.st26{fill:#87BCC0;}
	.st27{fill:#EB9682;}
	.st28{fill:#EBEDEF;}
	.st29{fill:#EBF3F6;}
	.st30{fill:#EDAC80;}
	.st31{fill:#1FA85B;}
	.st32{fill:#EFEAE9;}
	.st33{fill:#EFEDEC;}
	.st34{fill:#5399AA;}
	.st35{fill:#575757;}
	.st36{fill:#BAADAB;}
	.st37{fill:#BABEB5;}
	.st38{fill:#8BBEC0;}
	.st39{fill:#8BBEC3;}
	.st40{fill:#8CC3CC;}
	.st41{fill:#594E3C;}
	.st42{fill:#BDC0A7;}
	.st43{fill:#8FB5B6;}
	.st44{fill:#BF5537;}
	.st45{fill:#228080;}
	.st46{fill:#F1A977;}
	.st47{fill:#24986B;}
	.st48{opacity:0.5;fill:#FFFFFF;}
	.st49{fill:#F3F0ED;}
	.st50{fill:#F5B78C;}
	.st51{fill:#F5EE7D;}
	.st52{fill:#5B5B5B;}
	.st53{fill:#28898E;}
	.st54{fill:#5EACB4;}
	.st55{fill:#5F5E5E;}
	.st56{fill:#909090;}
	.st57{fill:#917C60;}
	.st58{fill:#C0B8AA;}
	.st59{fill:#C0C0C0;}
	.st60{fill:#C1AA9A;}
	.st61{fill:#C1D1B0;}
	.st62{fill:url(#SVGID_1_);}
	.st63{fill:url(#SVGID_2_);}
	.st64{fill:url(#SVGID_3_);}
	.st65{fill:url(#SVGID_4_);}
	.st66{fill:url(#SVGID_5_);}
	.st67{fill:#C2C099;}
	.st68{fill:#C3C3C3;}
	.st69{fill:#94C5C5;}
	.st70{fill:#958469;}
	.st71{fill:#95C3CC;}
	.st72{fill:#969595;}
	.st73{fill:#2C8484;}
	.st74{fill:#FBBF96;}
	.st75{fill:#98C7C8;}
	.st76{fill:#98C8D0;}
	.st77{fill:#99CA41;}
	.st78{fill:#C9C9C8;}
	.st79{fill:#FDD6B2;}
	.st80{opacity:0.7;}
	.st81{fill:#60C3B6;}
	.st82{fill:#616262;}
	.st83{fill:#FFFFFF;}
	.st84{fill:none;}
	.st85{fill:#9A856A;}
	.st86{fill:#9A8671;}
	.st87{fill:#676767;}
	.st88{fill:#67B8CB;}
	.st89{fill:#CADCBA;}
	.st90{fill:#CAE7DA;}
	.st91{fill:#CB774C;}
	.st92{fill:#9CD2D2;}
	.st93{fill:#CCC9B9;}
	.st94{fill:#9DC3C5;}
	.st95{fill:#CDC6C3;}
	.st96{fill:#CDCCCB;}
	.st97{fill:#CDCDCE;}
	.st98{fill:#9ECAD2;}
	.st99{fill:#30898E;}
	.st100{fill:#308A8E;}
	.st101{opacity:0.7;fill:#FFFFFF;}
	.st102{fill:#343433;}
	.st103{fill:#344E5D;}
	.st104{fill:#357180;}
	.st105{fill:#6A7872;}
	.st106{fill:#37848C;}
	.st107{fill:#37919B;}
	.st108{fill:#6C6C6B;}
	.st109{fill:#38A37C;}
	.st110{fill:#6CC077;}
	.st111{fill:#6D6868;}
	.st112{fill:#D0D1D1;}
	.st113{fill:#D0E3E5;}
	.st114{opacity:0.15;fill:#E3F3F7;}
	.st115{fill:#D4A160;}
	.st116{fill:#D4E1C4;}
	.st117{fill:#D5CEC9;}
	.st118{fill:#3B3838;}
	.st119{fill:#08090B;}
	.st120{fill:#3CB881;}
	.st121{fill:#D7B528;}
	.st122{fill:#D7D7D7;}
	.st123{fill:#3D4040;}
	.st124{fill:#D8D1CE;}
	.st125{fill:none;stroke:#75A9AB;stroke-linecap:round;stroke-linejoin:round;stroke-miterlimit:10;}
	.st126{fill:#A07238;}
	.st127{opacity:0.5;fill:#AED1D5;}
	.st128{fill:#A2D4DE;}
	.st129{fill:#74726A;}
	.st130{fill:#A69071;}
	.st131{fill:#776850;}
	.st132{fill:#A6CED1;}
	.st133{fill:#A78F7E;}
	.st134{fill:#787878;}
	.st135{fill:#DBD6D4;}
	.st136{fill:#DBDBDA;}
	.st137{fill:#DCB127;}
	.st138{fill:#DCD2CC;}
	.st139{fill:#DDD3CC;}
	.st140{fill:#DDDDDC;}
	.st141{fill:#418068;}
	.st142{fill:#41979F;}
]]>
</style>
<g>
	<g>
		<g>
			<circle class="st27" cx="68.417" cy="68.417" r="63.332"/>
		</g>
	</g>
	<g>
		<path class="st135" d="M57.351,78.344c0-2.32,5.324-4.199,6.012-4.199h10.1c0.689,0,6.008,1.879,6.008,4.199l6.967,34.813
			c0,2.32-1.592,4.203-3.557,4.203H53.944c-1.965,0-3.557-1.883-3.557-4.203L57.351,78.344z"/>
		<g>
			<path class="st12" d="M91.976,76.682c0,2.569-2.082,4.648-4.648,4.648h-37.83c-2.566,0-4.646-2.079-4.646-4.648V34.186
				c0-2.568,2.08-4.648,4.646-4.648h37.83c2.566,0,4.648,2.08,4.648,4.648V76.682z"/>
			<path class="st8" d="M91.976,68.459c0,2.568-2.082,4.648-4.648,4.648h-37.83c-2.566,0-4.646-2.08-4.646-4.648V34.186h47.125
				V68.459z"/>
		</g>
		<path class="st12" d="M75.522,113.16c0,2.321-0.631,4.2-1.406,4.2H62.708c-0.777,0-1.404-1.879-1.404-4.2l-13.25-34.812
			c0-2.32,1.799-4.203,4.018-4.203h32.682c2.219,0,4.018,1.883,4.018,4.203L75.522,113.16z"/>
		<path class="st13" d="M94.276,68.85c0,1.158-1.045,13.949-8.9,21.809c-3.965,3.967-7.801,14.857-17.006,14.857
			S55.411,94.52,51.409,90.52c-7.793-7.791-8.656-20.518-8.656-21.67l0,0c0-2.104,1.279-3.809,2.861-3.809h45.801
			C92.997,65.042,94.276,66.747,94.276,68.85L94.276,68.85z"/>
		<path class="st33" d="M94.276,68.85c0,1.158-1.045,13.949-8.9,21.809c-3.965,3.967-29.965,3.861-33.967-0.139
			c-7.793-7.791-8.656-20.518-8.656-21.67l0,0c0-2.104,1.279-3.809,2.861-3.809h45.801C92.997,65.042,94.276,66.747,94.276,68.85
			L94.276,68.85z"/>
		<path class="st124" d="M94.364,65.264c0,0.642-1.285,1.16-2.871,1.16H45.536c-1.588,0-2.873-0.519-2.873-1.16l0,0
			c0-0.64,1.285-1.158,2.873-1.158h45.957C93.079,64.106,94.364,64.625,94.364,65.264L94.364,65.264z"/>
		<g>
			<path class="st95" d="M89.663,46.393c0,5.414-1.273,13.549-3.463,17.76l-35.553,0.041c-2.205-4.221-3.486-12.372-3.486-17.801
				c0-14.799,9.516-26.793,21.252-26.793S89.663,31.594,89.663,46.393z"/>
			<path class="st36" d="M53.956,35.219c0,0.883-0.602,1.604-1.338,1.604c-0.734,0-1.332-0.721-1.332-1.604
				c0-0.89,0.598-1.606,1.332-1.606C53.354,33.613,53.956,34.33,53.956,35.219z"/>
			<path class="st36" d="M85.431,35.219c0,0.883-0.598,1.604-1.334,1.604s-1.336-0.721-1.336-1.604c0-0.89,0.6-1.606,1.336-1.606
				S85.431,34.33,85.431,35.219z"/>
		</g>
	</g>
</g>
</svg>
