<?xml version="1.0" encoding="utf-8"?>
<!-- Generator: Adobe Illustrator 16.0.0, SVG Export Plug-In . SVG Version: 6.00 Build 0)  -->
<!DOCTYPE svg PUBLIC "-//W3C//DTD SVG 1.1//EN" "http://www.w3.org/Graphics/SVG/1.1/DTD/svg11.dtd">
<svg version="1.1" id="Layer_1" xmlns="http://www.w3.org/2000/svg" xmlns:xlink="http://www.w3.org/1999/xlink" x="0px" y="0px"
	 width="136.833px" height="136.834px" viewBox="0 0 136.833 136.834" style="enable-background:new 0 0 136.833 136.834;"
	 xml:space="preserve">
<style type="text/css">
<![CDATA[
	.st0{fill-rule:evenodd;clip-rule:evenodd;fill:#08090B;}
	.st1{fill:#ABD9DF;}
	.st2{fill:#49A0AE;}
	.st3{fill:#ADA495;}
	.st4{fill:#AED1D5;}
	.st5{fill:#E1E0E0;}
	.st6{fill:#E1E2D4;}
	.st7{fill:#E4E1D3;}
	.st8{fill:#E4E4E4;}
	.st9{fill:#4ABC96;}
	.st10{fill:#E5DCD6;}
	.st11{fill:#E79E2D;}
	.st12{fill:#E7E0DC;}
	.st13{fill:#E7E4E2;}
	.st14{fill:#4D4C4C;}
	.st15{fill:#4D4D4D;}
	.st16{fill:#E84849;}
	.st17{fill:#E8C638;}
	.st18{fill:#B0DFE5;}
	.st19{fill:#B19353;}
	.st20{fill:#83725E;}
	.st21{fill:#B2B2B2;}
	.st22{fill:#83CECA;}
	.st23{fill:#B3932F;}
	.st24{fill:#1A7877;}
	.st25{fill:#868787;}
	.st26{fill:#87BCC0;}
	.st27{fill:#EB9682;}
	.st28{fill:#EBEDEF;}
	.st29{fill:#EBF3F6;}
	.st30{fill:#EDAC80;}
	.st31{fill:#1FA85B;}
	.st32{fill:#EFEAE9;}
	.st33{fill:#EFEDEC;}
	.st34{fill:#5399AA;}
	.st35{fill:#575757;}
	.st36{fill:#BAADAB;}
	.st37{fill:#BABEB5;}
	.st38{fill:#8BBEC0;}
	.st39{fill:#8BBEC3;}
	.st40{fill:#8CC3CC;}
	.st41{fill:#594E3C;}
	.st42{fill:#BDC0A7;}
	.st43{fill:#8FB5B6;}
	.st44{fill:#BF5537;}
	.st45{fill:#228080;}
	.st46{fill:#F1A977;}
	.st47{fill:#24986B;}
	.st48{opacity:0.5;fill:#FFFFFF;}
	.st49{fill:#F3F0ED;}
	.st50{fill:#F5B78C;}
	.st51{fill:#F5EE7D;}
	.st52{fill:#5B5B5B;}
	.st53{fill:#28898E;}
	.st54{fill:#5EACB4;}
	.st55{fill:#5F5E5E;}
	.st56{fill:#909090;}
	.st57{fill:#917C60;}
	.st58{fill:#C0B8AA;}
	.st59{fill:#C0C0C0;}
	.st60{fill:#C1AA9A;}
	.st61{fill:#C1D1B0;}
	.st62{fill:url(#SVGID_1_);}
	.st63{fill:url(#SVGID_2_);}
	.st64{fill:url(#SVGID_3_);}
	.st65{fill:url(#SVGID_4_);}
	.st66{fill:url(#SVGID_5_);}
	.st67{fill:#C2C099;}
	.st68{fill:#C3C3C3;}
	.st69{fill:#94C5C5;}
	.st70{fill:#958469;}
	.st71{fill:#95C3CC;}
	.st72{fill:#969595;}
	.st73{fill:#2C8484;}
	.st74{fill:#FBBF96;}
	.st75{fill:#98C7C8;}
	.st76{fill:#98C8D0;}
	.st77{fill:#99CA41;}
	.st78{fill:#C9C9C8;}
	.st79{fill:#FDD6B2;}
	.st80{opacity:0.7;}
	.st81{fill:#60C3B6;}
	.st82{fill:#616262;}
	.st83{fill:#FFFFFF;}
	.st84{fill:none;}
	.st85{fill:#9A856A;}
	.st86{fill:#9A8671;}
	.st87{fill:#676767;}
	.st88{fill:#67B8CB;}
	.st89{fill:#CADCBA;}
	.st90{fill:#CAE7DA;}
	.st91{fill:#CB774C;}
	.st92{fill:#9CD2D2;}
	.st93{fill:#CCC9B9;}
	.st94{fill:#9DC3C5;}
	.st95{fill:#CDC6C3;}
	.st96{fill:#CDCCCB;}
	.st97{fill:#CDCDCE;}
	.st98{fill:#9ECAD2;}
	.st99{fill:#30898E;}
	.st100{fill:#308A8E;}
	.st101{opacity:0.7;fill:#FFFFFF;}
	.st102{fill:#343433;}
	.st103{fill:#344E5D;}
	.st104{fill:#357180;}
	.st105{fill:#6A7872;}
	.st106{fill:#37848C;}
	.st107{fill:#37919B;}
	.st108{fill:#6C6C6B;}
	.st109{fill:#38A37C;}
	.st110{fill:#6CC077;}
	.st111{fill:#6D6868;}
	.st112{fill:#D0D1D1;}
	.st113{fill:#D0E3E5;}
	.st114{opacity:0.15;fill:#E3F3F7;}
	.st115{fill:#D4A160;}
	.st116{fill:#D4E1C4;}
	.st117{fill:#D5CEC9;}
	.st118{fill:#3B3838;}
	.st119{fill:#08090B;}
	.st120{fill:#3CB881;}
	.st121{fill:#D7B528;}
	.st122{fill:#D7D7D7;}
	.st123{fill:#3D4040;}
	.st124{fill:#D8D1CE;}
	.st125{fill:none;stroke:#75A9AB;stroke-linecap:round;stroke-linejoin:round;stroke-miterlimit:10;}
	.st126{fill:#A07238;}
	.st127{opacity:0.5;fill:#AED1D5;}
	.st128{fill:#A2D4DE;}
	.st129{fill:#74726A;}
	.st130{fill:#A69071;}
	.st131{fill:#776850;}
	.st132{fill:#A6CED1;}
	.st133{fill:#A78F7E;}
	.st134{fill:#787878;}
	.st135{fill:#DBD6D4;}
	.st136{fill:#DBDBDA;}
	.st137{fill:#DCB127;}
	.st138{fill:#DCD2CC;}
	.st139{fill:#DDD3CC;}
	.st140{fill:#DDDDDC;}
	.st141{fill:#418068;}
	.st142{fill:#41979F;}
]]>
</style>
<g>
	<g>
		<circle class="st9" cx="68.417" cy="68.417" r="63.333"/>
	</g>
	<g>
		<path class="st111" d="M56.764,103.121H23.518V41.039c0-2.25,1.823-4.072,4.071-4.072h25.104c2.248,0,4.071,1.822,4.071,4.072
			V103.121z"/>
		<path class="st55" d="M23.518,41.039c0-2.25,1.823-4.072,4.071-4.072h25.104c2.248,0,4.071,1.822,4.071,4.072H23.518z"/>
		<path class="st5" d="M29.378,101.664c-0.273,0-0.494-0.22-0.494-0.494v-3.055c0-0.271,0.221-0.494,0.494-0.494h7.058
			c0.273,0,0.496,0.223,0.496,0.494v3.055c0,0.274-0.223,0.494-0.496,0.494H29.378z"/>
		<path class="st5" d="M43.846,101.664c-0.273,0-0.495-0.22-0.495-0.494v-3.055c0-0.271,0.222-0.494,0.495-0.494h7.06
			c0.271,0,0.492,0.223,0.492,0.494v3.055c0,0.274-0.222,0.494-0.492,0.494H43.846z"/>
		<g>
			<path class="st5" d="M43.846,93.523c-0.273,0-0.495-0.221-0.495-0.494v-3.055c0-0.273,0.222-0.496,0.495-0.496h1.799
				c0.272,0,0.496,0.223,0.496,0.496v3.055c0,0.273-0.224,0.494-0.496,0.494H43.846z"/>
			<path class="st5" d="M49.104,93.523c-0.272,0-0.495-0.221-0.495-0.494v-3.055c0-0.273,0.223-0.496,0.495-0.496h1.802
				c0.271,0,0.492,0.223,0.492,0.496v3.055c0,0.273-0.222,0.494-0.492,0.494H49.104z"/>
			<path class="st5" d="M29.372,93.523c-0.273,0-0.495-0.221-0.495-0.494v-3.055c0-0.273,0.222-0.496,0.495-0.496h1.799
				c0.273,0,0.495,0.223,0.495,0.496v3.055c0,0.273-0.222,0.494-0.495,0.494H29.372z"/>
			<path class="st5" d="M34.629,93.523c-0.271,0-0.495-0.221-0.495-0.494v-3.055c0-0.273,0.224-0.496,0.495-0.496h1.799
				c0.274,0,0.496,0.223,0.496,0.496v3.055c0,0.273-0.222,0.494-0.496,0.494H34.629z"/>
		</g>
		<g>
			<path class="st5" d="M43.846,83.005c-0.273,0-0.495-0.221-0.495-0.494v-3.055c0-0.271,0.222-0.494,0.495-0.494h1.799
				c0.272,0,0.496,0.223,0.496,0.494v3.055c0,0.273-0.224,0.494-0.496,0.494H43.846z"/>
			<path class="st5" d="M49.104,83.005c-0.272,0-0.495-0.221-0.495-0.494v-3.055c0-0.271,0.223-0.494,0.495-0.494h1.802
				c0.271,0,0.492,0.223,0.492,0.494v3.055c0,0.273-0.222,0.494-0.492,0.494H49.104z"/>
			<path class="st5" d="M29.372,83.005c-0.273,0-0.495-0.221-0.495-0.494v-3.055c0-0.271,0.222-0.494,0.495-0.494h1.799
				c0.273,0,0.495,0.223,0.495,0.494v3.055c0,0.273-0.222,0.494-0.495,0.494H29.372z"/>
			<path class="st5" d="M34.629,83.005c-0.271,0-0.495-0.221-0.495-0.494v-3.055c0-0.271,0.224-0.494,0.495-0.494h1.799
				c0.274,0,0.496,0.223,0.496,0.494v3.055c0,0.273-0.222,0.494-0.496,0.494H34.629z"/>
		</g>
		<g>
			<path class="st5" d="M43.846,72.49c-0.273,0-0.495-0.223-0.495-0.494V68.94c0-0.271,0.222-0.495,0.495-0.495h1.799
				c0.272,0,0.496,0.224,0.496,0.495v3.056c0,0.271-0.224,0.494-0.496,0.494H43.846z"/>
			<path class="st5" d="M49.104,72.49c-0.272,0-0.495-0.223-0.495-0.494V68.94c0-0.271,0.223-0.495,0.495-0.495h1.802
				c0.271,0,0.492,0.224,0.492,0.495v3.056c0,0.271-0.222,0.494-0.492,0.494H49.104z"/>
			<path class="st5" d="M29.372,72.49c-0.273,0-0.495-0.223-0.495-0.494V68.94c0-0.271,0.222-0.495,0.495-0.495h1.799
				c0.273,0,0.495,0.224,0.495,0.495v3.056c0,0.271-0.222,0.494-0.495,0.494H29.372z"/>
			<path class="st5" d="M34.629,72.49c-0.271,0-0.495-0.223-0.495-0.494V68.94c0-0.271,0.224-0.495,0.495-0.495h1.799
				c0.274,0,0.496,0.224,0.496,0.495v3.056c0,0.271-0.222,0.494-0.496,0.494H34.629z"/>
		</g>
		<g>
			<path class="st5" d="M43.846,61.972c-0.273,0-0.495-0.222-0.495-0.492v-3.058c0-0.271,0.222-0.492,0.495-0.492h1.799
				c0.272,0,0.496,0.222,0.496,0.492v3.058c0,0.271-0.224,0.492-0.496,0.492H43.846z"/>
			<path class="st5" d="M49.104,61.972c-0.272,0-0.495-0.222-0.495-0.492v-3.058c0-0.271,0.223-0.492,0.495-0.492h1.802
				c0.271,0,0.492,0.222,0.492,0.492v3.058c0,0.271-0.222,0.492-0.492,0.492H49.104z"/>
			<path class="st5" d="M29.372,61.972c-0.273,0-0.495-0.222-0.495-0.492v-3.058c0-0.271,0.222-0.492,0.495-0.492h1.799
				c0.273,0,0.495,0.222,0.495,0.492v3.058c0,0.271-0.222,0.492-0.495,0.492H29.372z"/>
			<path class="st5" d="M34.629,61.972c-0.271,0-0.495-0.222-0.495-0.492v-3.058c0-0.271,0.224-0.492,0.495-0.492h1.799
				c0.274,0,0.496,0.222,0.496,0.492v3.058c0,0.271-0.222,0.492-0.496,0.492H34.629z"/>
		</g>
		<g>
			<path class="st5" d="M43.846,51.457c-0.273,0-0.495-0.221-0.495-0.494v-3.055c0-0.273,0.222-0.496,0.495-0.496h1.799
				c0.272,0,0.496,0.223,0.496,0.496v3.055c0,0.273-0.224,0.494-0.496,0.494H43.846z"/>
			<path class="st5" d="M49.104,51.457c-0.272,0-0.495-0.221-0.495-0.494v-3.055c0-0.273,0.223-0.496,0.495-0.496h1.802
				c0.271,0,0.492,0.223,0.492,0.496v3.055c0,0.273-0.222,0.494-0.492,0.494H49.104z"/>
			<path class="st5" d="M29.372,51.457c-0.273,0-0.495-0.221-0.495-0.494v-3.055c0-0.273,0.222-0.496,0.495-0.496h1.799
				c0.273,0,0.495,0.223,0.495,0.496v3.055c0,0.273-0.222,0.494-0.495,0.494H29.372z"/>
			<path class="st5" d="M34.629,51.457c-0.271,0-0.495-0.221-0.495-0.494v-3.055c0-0.273,0.224-0.496,0.495-0.496h1.799
				c0.274,0,0.496,0.223,0.496,0.496v3.055c0,0.273-0.222,0.494-0.496,0.494H34.629z"/>
		</g>
		<g>
			<path class="st14" d="M38.539,98c0-0.217,0.176-0.393,0.392-0.393h2.414c0.216,0,0.392,0.176,0.392,0.393v5.121h-3.197V98z"/>
			<circle class="st96" cx="39.039" cy="100.38" r="0.198"/>
		</g>
	</g>
	<g>
		<path class="st111" d="M111.976,103.121H78.731V41.039c0-2.25,1.823-4.072,4.069-4.072h25.105c2.248,0,4.07,1.822,4.07,4.072
			V103.121z"/>
		<path class="st55" d="M78.731,41.039c0-2.25,1.823-4.072,4.069-4.072h25.105c2.248,0,4.07,1.822,4.07,4.072H78.731z"/>
		<path class="st5" d="M84.589,101.664c-0.271,0-0.492-0.22-0.492-0.494v-3.055c0-0.271,0.221-0.494,0.492-0.494h7.058
			c0.274,0,0.497,0.223,0.497,0.494v3.055c0,0.274-0.223,0.494-0.497,0.494H84.589z"/>
		<path class="st5" d="M99.058,101.664c-0.273,0-0.495-0.22-0.495-0.494v-3.055c0-0.271,0.222-0.494,0.495-0.494h7.059
			c0.273,0,0.493,0.223,0.493,0.494v3.055c0,0.274-0.22,0.494-0.493,0.494H99.058z"/>
		<g>
			<path class="st5" d="M99.058,93.523c-0.273,0-0.495-0.221-0.495-0.494v-3.055c0-0.273,0.222-0.496,0.495-0.496h1.8
				c0.272,0,0.496,0.223,0.496,0.496v3.055c0,0.273-0.224,0.494-0.496,0.494H99.058z"/>
			<path class="st5" d="M104.317,93.523c-0.272,0-0.497-0.221-0.497-0.494v-3.055c0-0.273,0.225-0.496,0.497-0.496h1.8
				c0.273,0,0.493,0.223,0.493,0.496v3.055c0,0.273-0.22,0.494-0.493,0.494H104.317z"/>
			<path class="st5" d="M84.583,93.523c-0.272,0-0.494-0.221-0.494-0.494v-3.055c0-0.273,0.222-0.496,0.494-0.496h1.802
				c0.271,0,0.495,0.223,0.495,0.496v3.055c0,0.273-0.224,0.494-0.495,0.494H84.583z"/>
			<path class="st5" d="M89.841,93.523c-0.271,0-0.492-0.221-0.492-0.494v-3.055c0-0.273,0.221-0.496,0.492-0.496h1.8
				c0.273,0,0.496,0.223,0.496,0.496v3.055c0,0.273-0.223,0.494-0.496,0.494H89.841z"/>
		</g>
		<g>
			<path class="st5" d="M99.058,83.005c-0.273,0-0.495-0.221-0.495-0.494v-3.055c0-0.271,0.222-0.494,0.495-0.494h1.8
				c0.272,0,0.496,0.223,0.496,0.494v3.055c0,0.273-0.224,0.494-0.496,0.494H99.058z"/>
			<path class="st5" d="M104.317,83.005c-0.272,0-0.497-0.221-0.497-0.494v-3.055c0-0.271,0.225-0.494,0.497-0.494h1.8
				c0.273,0,0.493,0.223,0.493,0.494v3.055c0,0.273-0.22,0.494-0.493,0.494H104.317z"/>
			<path class="st5" d="M84.583,83.005c-0.272,0-0.494-0.221-0.494-0.494v-3.055c0-0.271,0.222-0.494,0.494-0.494h1.802
				c0.271,0,0.495,0.223,0.495,0.494v3.055c0,0.273-0.224,0.494-0.495,0.494H84.583z"/>
			<path class="st5" d="M89.841,83.005c-0.271,0-0.492-0.221-0.492-0.494v-3.055c0-0.271,0.221-0.494,0.492-0.494h1.8
				c0.273,0,0.496,0.223,0.496,0.494v3.055c0,0.273-0.223,0.494-0.496,0.494H89.841z"/>
		</g>
		<g>
			<path class="st5" d="M99.058,72.49c-0.273,0-0.495-0.223-0.495-0.494V68.94c0-0.271,0.222-0.495,0.495-0.495h1.8
				c0.272,0,0.496,0.224,0.496,0.495v3.056c0,0.271-0.224,0.494-0.496,0.494H99.058z"/>
			<path class="st5" d="M104.317,72.49c-0.272,0-0.497-0.223-0.497-0.494V68.94c0-0.271,0.225-0.495,0.497-0.495h1.8
				c0.273,0,0.493,0.224,0.493,0.495v3.056c0,0.271-0.22,0.494-0.493,0.494H104.317z"/>
			<path class="st5" d="M84.583,72.49c-0.272,0-0.494-0.223-0.494-0.494V68.94c0-0.271,0.222-0.495,0.494-0.495h1.802
				c0.271,0,0.495,0.224,0.495,0.495v3.056c0,0.271-0.224,0.494-0.495,0.494H84.583z"/>
			<path class="st5" d="M89.841,72.49c-0.271,0-0.492-0.223-0.492-0.494V68.94c0-0.271,0.221-0.495,0.492-0.495h1.8
				c0.273,0,0.496,0.224,0.496,0.495v3.056c0,0.271-0.223,0.494-0.496,0.494H89.841z"/>
		</g>
		<g>
			<path class="st5" d="M99.058,61.972c-0.273,0-0.495-0.222-0.495-0.492v-3.058c0-0.271,0.222-0.492,0.495-0.492h1.8
				c0.272,0,0.496,0.222,0.496,0.492v3.058c0,0.271-0.224,0.492-0.496,0.492H99.058z"/>
			<path class="st5" d="M104.317,61.972c-0.272,0-0.497-0.222-0.497-0.492v-3.058c0-0.271,0.225-0.492,0.497-0.492h1.8
				c0.273,0,0.493,0.222,0.493,0.492v3.058c0,0.271-0.22,0.492-0.493,0.492H104.317z"/>
			<path class="st5" d="M84.583,61.972c-0.272,0-0.494-0.222-0.494-0.492v-3.058c0-0.271,0.222-0.492,0.494-0.492h1.802
				c0.271,0,0.495,0.222,0.495,0.492v3.058c0,0.271-0.224,0.492-0.495,0.492H84.583z"/>
			<path class="st5" d="M89.841,61.972c-0.271,0-0.492-0.222-0.492-0.492v-3.058c0-0.271,0.221-0.492,0.492-0.492h1.8
				c0.273,0,0.496,0.222,0.496,0.492v3.058c0,0.271-0.223,0.492-0.496,0.492H89.841z"/>
		</g>
		<g>
			<path class="st5" d="M99.058,51.457c-0.273,0-0.495-0.221-0.495-0.494v-3.055c0-0.273,0.222-0.496,0.495-0.496h1.8
				c0.272,0,0.496,0.223,0.496,0.496v3.055c0,0.273-0.224,0.494-0.496,0.494H99.058z"/>
			<path class="st5" d="M104.317,51.457c-0.272,0-0.497-0.221-0.497-0.494v-3.055c0-0.273,0.225-0.496,0.497-0.496h1.8
				c0.273,0,0.493,0.223,0.493,0.496v3.055c0,0.273-0.22,0.494-0.493,0.494H104.317z"/>
			<path class="st5" d="M84.583,51.457c-0.272,0-0.494-0.221-0.494-0.494v-3.055c0-0.273,0.222-0.496,0.494-0.496h1.802
				c0.271,0,0.495,0.223,0.495,0.496v3.055c0,0.273-0.224,0.494-0.495,0.494H84.583z"/>
			<path class="st5" d="M89.841,51.457c-0.271,0-0.492-0.221-0.492-0.494v-3.055c0-0.273,0.221-0.496,0.492-0.496h1.8
				c0.273,0,0.496,0.223,0.496,0.496v3.055c0,0.273-0.223,0.494-0.496,0.494H89.841z"/>
		</g>
		<g>
			<path class="st14" d="M93.75,98c0-0.217,0.176-0.393,0.394-0.393h2.412c0.216,0,0.393,0.176,0.393,0.393v5.121H93.75V98z"/>
			<circle class="st96" cx="94.251" cy="100.38" r="0.199"/>
		</g>
	</g>
	<g>
		<path class="st25" d="M90.665,112.957H45.998V29.548c0-3.021,2.449-5.469,5.47-5.469h33.728c3.021,0,5.47,2.447,5.47,5.469
			V112.957z"/>
		<path class="st134" d="M45.998,29.548c0-3.021,2.449-5.469,5.47-5.469h33.728c3.021,0,5.47,2.447,5.47,5.469H45.998z"/>
		<path class="st5" d="M53.872,111.001c-0.367,0-0.665-0.297-0.665-0.664v-4.104c0-0.367,0.298-0.666,0.665-0.666h9.481
			c0.367,0,0.666,0.299,0.666,0.666v4.104c0,0.367-0.299,0.664-0.666,0.664H53.872z"/>
		<path class="st5" d="M73.308,111.001c-0.367,0-0.665-0.297-0.665-0.664v-4.104c0-0.367,0.298-0.666,0.665-0.666h9.482
			c0.367,0,0.665,0.299,0.665,0.666v4.104c0,0.367-0.298,0.664-0.665,0.664H73.308z"/>
		<g>
			<path class="st5" d="M73.308,100.063c-0.367,0-0.665-0.298-0.665-0.665v-4.104c0-0.367,0.298-0.666,0.665-0.666h2.418
				c0.367,0,0.665,0.299,0.665,0.666v4.104c0,0.367-0.298,0.665-0.665,0.665H73.308z"/>
			<path class="st5" d="M80.374,100.063c-0.367,0-0.666-0.298-0.666-0.665v-4.104c0-0.367,0.299-0.666,0.666-0.666h2.417
				c0.367,0,0.665,0.299,0.665,0.666v4.104c0,0.367-0.298,0.665-0.665,0.665H80.374z"/>
			<path class="st5" d="M53.862,100.063c-0.367,0-0.665-0.298-0.665-0.665v-4.104c0-0.367,0.298-0.666,0.665-0.666h2.417
				c0.367,0,0.666,0.299,0.666,0.666v4.104c0,0.367-0.299,0.665-0.666,0.665H53.862z"/>
			<path class="st5" d="M60.927,100.063c-0.367,0-0.666-0.298-0.666-0.665v-4.104c0-0.367,0.299-0.666,0.666-0.666h2.416
				c0.367,0,0.666,0.299,0.666,0.666v4.104c0,0.367-0.299,0.665-0.666,0.665H60.927z"/>
		</g>
		<g>
			<path class="st5" d="M73.308,85.933c-0.367,0-0.665-0.297-0.665-0.664v-4.104c0-0.367,0.298-0.666,0.665-0.666h2.418
				c0.367,0,0.665,0.299,0.665,0.666v4.104c0,0.367-0.298,0.664-0.665,0.664H73.308z"/>
			<path class="st5" d="M80.374,85.933c-0.367,0-0.666-0.297-0.666-0.664v-4.104c0-0.367,0.299-0.666,0.666-0.666h2.417
				c0.367,0,0.665,0.299,0.665,0.666v4.104c0,0.367-0.298,0.664-0.665,0.664H80.374z"/>
			<path class="st5" d="M53.862,85.933c-0.367,0-0.665-0.297-0.665-0.664v-4.104c0-0.367,0.298-0.666,0.665-0.666h2.417
				c0.367,0,0.666,0.299,0.666,0.666v4.104c0,0.367-0.299,0.664-0.666,0.664H53.862z"/>
			<path class="st5" d="M60.927,85.933c-0.367,0-0.666-0.297-0.666-0.664v-4.104c0-0.367,0.299-0.666,0.666-0.666h2.416
				c0.367,0,0.666,0.299,0.666,0.666v4.104c0,0.367-0.299,0.664-0.666,0.664H60.927z"/>
		</g>
		<g>
			<path class="st5" d="M73.308,71.804c-0.367,0-0.665-0.298-0.665-0.665v-4.103c0-0.368,0.298-0.666,0.665-0.666h2.418
				c0.367,0,0.665,0.298,0.665,0.666v4.103c0,0.367-0.298,0.665-0.665,0.665H73.308z"/>
			<path class="st5" d="M80.374,71.804c-0.367,0-0.666-0.298-0.666-0.665v-4.103c0-0.368,0.299-0.666,0.666-0.666h2.417
				c0.367,0,0.665,0.298,0.665,0.666v4.103c0,0.367-0.298,0.665-0.665,0.665H80.374z"/>
			<path class="st5" d="M53.862,71.804c-0.367,0-0.665-0.298-0.665-0.665v-4.103c0-0.368,0.298-0.666,0.665-0.666h2.417
				c0.367,0,0.666,0.298,0.666,0.666v4.103c0,0.367-0.299,0.665-0.666,0.665H53.862z"/>
			<path class="st5" d="M60.927,71.804c-0.367,0-0.666-0.298-0.666-0.665v-4.103c0-0.368,0.299-0.666,0.666-0.666h2.416
				c0.367,0,0.666,0.298,0.666,0.666v4.103c0,0.367-0.299,0.665-0.666,0.665H60.927z"/>
		</g>
		<g>
			<path class="st5" d="M73.308,57.675c-0.367,0-0.665-0.299-0.665-0.666v-4.104c0-0.367,0.298-0.664,0.665-0.664h2.418
				c0.367,0,0.665,0.297,0.665,0.664v4.104c0,0.367-0.298,0.666-0.665,0.666H73.308z"/>
			<path class="st5" d="M80.374,57.675c-0.367,0-0.666-0.299-0.666-0.666v-4.104c0-0.367,0.299-0.664,0.666-0.664h2.417
				c0.367,0,0.665,0.297,0.665,0.664v4.104c0,0.367-0.298,0.666-0.665,0.666H80.374z"/>
			<path class="st5" d="M53.862,57.675c-0.367,0-0.665-0.299-0.665-0.666v-4.104c0-0.367,0.298-0.664,0.665-0.664h2.417
				c0.367,0,0.666,0.297,0.666,0.664v4.104c0,0.367-0.299,0.666-0.666,0.666H53.862z"/>
			<path class="st5" d="M60.927,57.675c-0.367,0-0.666-0.299-0.666-0.666v-4.104c0-0.367,0.299-0.664,0.666-0.664h2.416
				c0.367,0,0.666,0.297,0.666,0.664v4.104c0,0.367-0.299,0.666-0.666,0.666H60.927z"/>
		</g>
		<g>
			<path class="st5" d="M73.308,43.545c-0.367,0-0.665-0.298-0.665-0.665v-4.104c0-0.367,0.298-0.665,0.665-0.665h2.418
				c0.367,0,0.665,0.298,0.665,0.665v4.104c0,0.367-0.298,0.665-0.665,0.665H73.308z"/>
			<path class="st5" d="M80.374,43.545c-0.367,0-0.666-0.298-0.666-0.665v-4.104c0-0.367,0.299-0.665,0.666-0.665h2.417
				c0.367,0,0.665,0.298,0.665,0.665v4.104c0,0.367-0.298,0.665-0.665,0.665H80.374z"/>
			<path class="st5" d="M53.862,43.545c-0.367,0-0.665-0.298-0.665-0.665v-4.104c0-0.367,0.298-0.665,0.665-0.665h2.417
				c0.367,0,0.666,0.298,0.666,0.665v4.104c0,0.367-0.299,0.665-0.666,0.665H53.862z"/>
			<path class="st5" d="M60.927,43.545c-0.367,0-0.666-0.298-0.666-0.665v-4.104c0-0.367,0.299-0.665,0.666-0.665h2.416
				c0.367,0,0.666,0.298,0.666,0.665v4.104c0,0.367-0.299,0.665-0.666,0.665H60.927z"/>
		</g>
		<g>
			<path class="st14" d="M66.178,106.076c0-0.289,0.235-0.525,0.526-0.525h3.242c0.291,0,0.526,0.236,0.526,0.525v6.881h-4.295
				V106.076z"/>
			<circle class="st96" cx="66.85" cy="109.273" r="0.266"/>
		</g>
	</g>
</g>
</svg>
