<?xml version="1.0" encoding="utf-8"?>
<!-- Generator: Adobe Illustrator 16.0.0, SVG Export Plug-In . SVG Version: 6.00 Build 0)  -->
<!DOCTYPE svg PUBLIC "-//W3C//DTD SVG 1.1//EN" "http://www.w3.org/Graphics/SVG/1.1/DTD/svg11.dtd">
<svg version="1.1" id="Layer_1" xmlns="http://www.w3.org/2000/svg" xmlns:xlink="http://www.w3.org/1999/xlink" x="0px" y="0px"
	 width="136.833px" height="136.833px" viewBox="0 0 136.833 136.833" style="enable-background:new 0 0 136.833 136.833;"
	 xml:space="preserve">
<style type="text/css">
<![CDATA[
	.st0{fill-rule:evenodd;clip-rule:evenodd;fill:#08090B;}
	.st1{fill:#ABD9DF;}
	.st2{fill:#49A0AE;}
	.st3{fill:#ADA495;}
	.st4{fill:#AED1D5;}
	.st5{fill:#E1E0E0;}
	.st6{fill:#E1E2D4;}
	.st7{fill:#E4E1D3;}
	.st8{fill:#E4E4E4;}
	.st9{fill:#4ABC96;}
	.st10{fill:#E5DCD6;}
	.st11{fill:#E79E2D;}
	.st12{fill:#E7E0DC;}
	.st13{fill:#E7E4E2;}
	.st14{fill:#4D4C4C;}
	.st15{fill:#4D4D4D;}
	.st16{fill:#E84849;}
	.st17{fill:#E8C638;}
	.st18{fill:#B0DFE5;}
	.st19{fill:#B19353;}
	.st20{fill:#83725E;}
	.st21{fill:#B2B2B2;}
	.st22{fill:#83CECA;}
	.st23{fill:#B3932F;}
	.st24{fill:#1A7877;}
	.st25{fill:#868787;}
	.st26{fill:#87BCC0;}
	.st27{fill:#EB9682;}
	.st28{fill:#EBEDEF;}
	.st29{fill:#EBF3F6;}
	.st30{fill:#EDAC80;}
	.st31{fill:#1FA85B;}
	.st32{fill:#EFEAE9;}
	.st33{fill:#EFEDEC;}
	.st34{fill:#5399AA;}
	.st35{fill:#575757;}
	.st36{fill:#BAADAB;}
	.st37{fill:#BABEB5;}
	.st38{fill:#8BBEC0;}
	.st39{fill:#8BBEC3;}
	.st40{fill:#8CC3CC;}
	.st41{fill:#594E3C;}
	.st42{fill:#BDC0A7;}
	.st43{fill:#8FB5B6;}
	.st44{fill:#BF5537;}
	.st45{fill:#228080;}
	.st46{fill:#F1A977;}
	.st47{fill:#24986B;}
	.st48{opacity:0.5;fill:#FFFFFF;}
	.st49{fill:#F3F0ED;}
	.st50{fill:#F5B78C;}
	.st51{fill:#F5EE7D;}
	.st52{fill:#5B5B5B;}
	.st53{fill:#28898E;}
	.st54{fill:#5EACB4;}
	.st55{fill:#5F5E5E;}
	.st56{fill:#909090;}
	.st57{fill:#917C60;}
	.st58{fill:#C0B8AA;}
	.st59{fill:#C0C0C0;}
	.st60{fill:#C1AA9A;}
	.st61{fill:#C1D1B0;}
	.st62{fill:url(#SVGID_1_);}
	.st63{fill:url(#SVGID_2_);}
	.st64{fill:url(#SVGID_3_);}
	.st65{fill:url(#SVGID_4_);}
	.st66{fill:url(#SVGID_5_);}
	.st67{fill:#C2C099;}
	.st68{fill:#C3C3C3;}
	.st69{fill:#94C5C5;}
	.st70{fill:#958469;}
	.st71{fill:#95C3CC;}
	.st72{fill:#969595;}
	.st73{fill:#2C8484;}
	.st74{fill:#FBBF96;}
	.st75{fill:#98C7C8;}
	.st76{fill:#98C8D0;}
	.st77{fill:#99CA41;}
	.st78{fill:#C9C9C8;}
	.st79{fill:#FDD6B2;}
	.st80{opacity:0.7;}
	.st81{fill:#60C3B6;}
	.st82{fill:#616262;}
	.st83{fill:#FFFFFF;}
	.st84{fill:none;}
	.st85{fill:#9A856A;}
	.st86{fill:#9A8671;}
	.st87{fill:#676767;}
	.st88{fill:#67B8CB;}
	.st89{fill:#CADCBA;}
	.st90{fill:#CAE7DA;}
	.st91{fill:#CB774C;}
	.st92{fill:#9CD2D2;}
	.st93{fill:#CCC9B9;}
	.st94{fill:#9DC3C5;}
	.st95{fill:#CDC6C3;}
	.st96{fill:#CDCCCB;}
	.st97{fill:#CDCDCE;}
	.st98{fill:#9ECAD2;}
	.st99{fill:#30898E;}
	.st100{fill:#308A8E;}
	.st101{opacity:0.7;fill:#FFFFFF;}
	.st102{fill:#343433;}
	.st103{fill:#344E5D;}
	.st104{fill:#357180;}
	.st105{fill:#6A7872;}
	.st106{fill:#37848C;}
	.st107{fill:#37919B;}
	.st108{fill:#6C6C6B;}
	.st109{fill:#38A37C;}
	.st110{fill:#6CC077;}
	.st111{fill:#6D6868;}
	.st112{fill:#D0D1D1;}
	.st113{fill:#D0E3E5;}
	.st114{opacity:0.15;fill:#E3F3F7;}
	.st115{fill:#D4A160;}
	.st116{fill:#D4E1C4;}
	.st117{fill:#D5CEC9;}
	.st118{fill:#3B3838;}
	.st119{fill:#08090B;}
	.st120{fill:#3CB881;}
	.st121{fill:#D7B528;}
	.st122{fill:#D7D7D7;}
	.st123{fill:#3D4040;}
	.st124{fill:#D8D1CE;}
	.st125{fill:none;stroke:#75A9AB;stroke-linecap:round;stroke-linejoin:round;stroke-miterlimit:10;}
	.st126{fill:#A07238;}
	.st127{opacity:0.5;fill:#AED1D5;}
	.st128{fill:#A2D4DE;}
	.st129{fill:#74726A;}
	.st130{fill:#A69071;}
	.st131{fill:#776850;}
	.st132{fill:#A6CED1;}
	.st133{fill:#A78F7E;}
	.st134{fill:#787878;}
	.st135{fill:#DBD6D4;}
	.st136{fill:#DBDBDA;}
	.st137{fill:#DCB127;}
	.st138{fill:#DCD2CC;}
	.st139{fill:#DDD3CC;}
	.st140{fill:#DDDDDC;}
	.st141{fill:#418068;}
	.st142{fill:#41979F;}
]]>
</style>
<g>
	<g>
		<g>
			<circle class="st9" cx="68.416" cy="68.417" r="63.333"/>
		</g>
	</g>
	<g>
		<path class="st7" d="M103.995,53.507h-71.16c-0.795,0-1.441,0.646-1.441,1.441v48.354c0,0.795,0.646,1.441,1.441,1.441h71.16
			c0.797,0,1.443-0.646,1.443-1.441V54.949C105.438,54.154,104.792,53.507,103.995,53.507z"/>
		<path class="st91" d="M110.382,55.845c-0.043-0.432-0.285-0.809-0.629-1.044l-18.117-15.34V28.835
			c0-0.797-0.646-1.441-1.443-1.441h-6.84c-0.797,0-1.443,0.645-1.443,1.441v2.393L68.308,19.71
			c-0.551-0.465-1.355-0.455-1.893,0.025L27.017,54.847c-0.055,0.045-0.107,0.092-0.156,0.143c-0.326,0.324-0.469,0.783-0.4,1.23
			v3.412c0,0.796,0.646,1.443,1.441,1.443h81.045c0.797,0,1.443-0.647,1.443-1.443v-3.521
			C110.394,56.023,110.394,55.933,110.382,55.845z"/>
	</g>
	<g>
		<g>
			<path class="st126" d="M47.239,98.146c-0.934,0.934-2.447,0.934-3.381,0l0,0c-0.936-0.936-0.936-2.448,0-3.382L61.36,77.261
				c0.932-0.932,2.445-0.932,3.381,0.002l0,0c0.934,0.932,0.934,2.445-0.002,3.381L47.239,98.146z"/>
			<path class="st115" d="M49.577,98.789c-0.818,0.814-2.904,0.055-4.66-1.701l0,0c-1.758-1.758-2.518-3.844-1.701-4.66
				l18.588-18.59c0.818-0.816,2.904-0.055,4.66,1.701l0,0c1.758,1.754,2.52,3.842,1.701,4.662L49.577,98.789z"/>
			<circle class="st81" cx="76.052" cy="65.951" r="17.19"/>
			<circle class="st22" cx="77.066" cy="67.607" r="13.505"/>
			<path class="st126" d="M60.942,74.615l-2.443,2.443c0,0,2.232,4.932,7.033,5.689l1.775-1.773v-2.293L60.942,74.615z"/>
			<g>
				<g>
					<path class="st28" d="M62.726,52.625c-7.359,7.359-7.359,19.293,0,26.651c7.361,7.362,19.293,7.362,26.654,0.003
						c7.359-7.361,7.359-19.295,0-26.654C82.019,45.264,70.087,45.264,62.726,52.625z M86.021,75.918
						c-5.504,5.504-14.43,5.505-19.936,0c-5.504-5.505-5.504-14.431,0-19.935c5.506-5.505,14.432-5.505,19.936,0
						C91.526,61.488,91.524,70.414,86.021,75.918z"/>
				</g>
			</g>
			<path class="st101" d="M66.726,64.107c-0.354,0.77-0.018,1.686,0.75,2.039c0.773,0.358,1.688,0.018,2.043-0.748
				c0,0,0.014-0.037,0.088-0.171c0.533-0.977,3.104-5.12,8.535-5.625c0.66-0.063,1.18-0.532,1.34-1.138
				c0.045-0.17,0.061-0.352,0.043-0.541c-0.084-0.844-0.832-1.465-1.678-1.381C69.837,57.367,66.804,63.952,66.726,64.107z"/>
		</g>
	</g>
</g>
</svg>
