<?xml version="1.0" encoding="utf-8"?>
<!-- Generator: Adobe Illustrator 16.0.0, SVG Export Plug-In . SVG Version: 6.00 Build 0)  -->
<!DOCTYPE svg PUBLIC "-//W3C//DTD SVG 1.1//EN" "http://www.w3.org/Graphics/SVG/1.1/DTD/svg11.dtd">
<svg version="1.1" id="Layer_1" xmlns="http://www.w3.org/2000/svg" xmlns:xlink="http://www.w3.org/1999/xlink" x="0px" y="0px"
	 width="136.833px" height="136.833px" viewBox="0 0 136.833 136.833" style="enable-background:new 0 0 136.833 136.833;"
	 xml:space="preserve">
<style type="text/css">
<![CDATA[
	.st0{fill-rule:evenodd;clip-rule:evenodd;fill:#08090B;}
	.st1{fill:#ABD9DF;}
	.st2{fill:#49A0AE;}
	.st3{fill:#ADA495;}
	.st4{fill:#AED1D5;}
	.st5{fill:#E1E0E0;}
	.st6{fill:#E1E2D4;}
	.st7{fill:#E4E1D3;}
	.st8{fill:#E4E4E4;}
	.st9{fill:#4ABC96;}
	.st10{fill:#E5DCD6;}
	.st11{fill:#E79E2D;}
	.st12{fill:#E7E0DC;}
	.st13{fill:#E7E4E2;}
	.st14{fill:#4D4C4C;}
	.st15{fill:#4D4D4D;}
	.st16{fill:#E84849;}
	.st17{fill:#E8C638;}
	.st18{fill:#B0DFE5;}
	.st19{fill:#B19353;}
	.st20{fill:#83725E;}
	.st21{fill:#B2B2B2;}
	.st22{fill:#83CECA;}
	.st23{fill:#B3932F;}
	.st24{fill:#1A7877;}
	.st25{fill:#868787;}
	.st26{fill:#87BCC0;}
	.st27{fill:#EB9682;}
	.st28{fill:#EBEDEF;}
	.st29{fill:#EBF3F6;}
	.st30{fill:#EDAC80;}
	.st31{fill:#1FA85B;}
	.st32{fill:#EFEAE9;}
	.st33{fill:#EFEDEC;}
	.st34{fill:#5399AA;}
	.st35{fill:#575757;}
	.st36{fill:#BAADAB;}
	.st37{fill:#BABEB5;}
	.st38{fill:#8BBEC0;}
	.st39{fill:#8BBEC3;}
	.st40{fill:#8CC3CC;}
	.st41{fill:#594E3C;}
	.st42{fill:#BDC0A7;}
	.st43{fill:#8FB5B6;}
	.st44{fill:#BF5537;}
	.st45{fill:#228080;}
	.st46{fill:#F1A977;}
	.st47{fill:#24986B;}
	.st48{opacity:0.5;fill:#FFFFFF;}
	.st49{fill:#F3F0ED;}
	.st50{fill:#F5B78C;}
	.st51{fill:#F5EE7D;}
	.st52{fill:#5B5B5B;}
	.st53{fill:#28898E;}
	.st54{fill:#5EACB4;}
	.st55{fill:#5F5E5E;}
	.st56{fill:#909090;}
	.st57{fill:#917C60;}
	.st58{fill:#C0B8AA;}
	.st59{fill:#C0C0C0;}
	.st60{fill:#C1AA9A;}
	.st61{fill:#C1D1B0;}
	.st62{fill:url(#SVGID_1_);}
	.st63{fill:url(#SVGID_2_);}
	.st64{fill:url(#SVGID_3_);}
	.st65{fill:url(#SVGID_4_);}
	.st66{fill:url(#SVGID_5_);}
	.st67{fill:#C2C099;}
	.st68{fill:#C3C3C3;}
	.st69{fill:#94C5C5;}
	.st70{fill:#958469;}
	.st71{fill:#95C3CC;}
	.st72{fill:#969595;}
	.st73{fill:#2C8484;}
	.st74{fill:#FBBF96;}
	.st75{fill:#98C7C8;}
	.st76{fill:#98C8D0;}
	.st77{fill:#99CA41;}
	.st78{fill:#C9C9C8;}
	.st79{fill:#FDD6B2;}
	.st80{opacity:0.7;}
	.st81{fill:#60C3B6;}
	.st82{fill:#616262;}
	.st83{fill:#FFFFFF;}
	.st84{fill:none;}
	.st85{fill:#9A856A;}
	.st86{fill:#9A8671;}
	.st87{fill:#676767;}
	.st88{fill:#67B8CB;}
	.st89{fill:#CADCBA;}
	.st90{fill:#CAE7DA;}
	.st91{fill:#CB774C;}
	.st92{fill:#9CD2D2;}
	.st93{fill:#CCC9B9;}
	.st94{fill:#9DC3C5;}
	.st95{fill:#CDC6C3;}
	.st96{fill:#CDCCCB;}
	.st97{fill:#CDCDCE;}
	.st98{fill:#9ECAD2;}
	.st99{fill:#30898E;}
	.st100{fill:#308A8E;}
	.st101{opacity:0.7;fill:#FFFFFF;}
	.st102{fill:#343433;}
	.st103{fill:#344E5D;}
	.st104{fill:#357180;}
	.st105{fill:#6A7872;}
	.st106{fill:#37848C;}
	.st107{fill:#37919B;}
	.st108{fill:#6C6C6B;}
	.st109{fill:#38A37C;}
	.st110{fill:#6CC077;}
	.st111{fill:#6D6868;}
	.st112{fill:#D0D1D1;}
	.st113{fill:#D0E3E5;}
	.st114{opacity:0.15;fill:#E3F3F7;}
	.st115{fill:#D4A160;}
	.st116{fill:#D4E1C4;}
	.st117{fill:#D5CEC9;}
	.st118{fill:#3B3838;}
	.st119{fill:#08090B;}
	.st120{fill:#3CB881;}
	.st121{fill:#D7B528;}
	.st122{fill:#D7D7D7;}
	.st123{fill:#3D4040;}
	.st124{fill:#D8D1CE;}
	.st125{fill:none;stroke:#75A9AB;stroke-linecap:round;stroke-linejoin:round;stroke-miterlimit:10;}
	.st126{fill:#A07238;}
	.st127{opacity:0.5;fill:#AED1D5;}
	.st128{fill:#A2D4DE;}
	.st129{fill:#74726A;}
	.st130{fill:#A69071;}
	.st131{fill:#776850;}
	.st132{fill:#A6CED1;}
	.st133{fill:#A78F7E;}
	.st134{fill:#787878;}
	.st135{fill:#DBD6D4;}
	.st136{fill:#DBDBDA;}
	.st137{fill:#DCB127;}
	.st138{fill:#DCD2CC;}
	.st139{fill:#DDD3CC;}
	.st140{fill:#DDDDDC;}
	.st141{fill:#418068;}
	.st142{fill:#41979F;}
]]>
</style>
<g>
	<g>
		<g>
			<circle class="st104" cx="68.417" cy="68.417" r="63.333"/>
		</g>
	</g>
	<g>
		<g>
			<path class="st85" d="M102.125,28.41c-1.508,0-2.73,1.221-2.73,2.729v92.514c1.882-1.058,3.702-2.21,5.459-3.447V31.138
				C104.853,29.63,103.631,28.41,102.125,28.41z"/>
		</g>
		<g>
			<path class="st130" d="M108.128,39.873H30.836c-1.509,0-2.729-1.223-2.729-2.73c0-1.507,1.221-2.728,2.729-2.728h77.292
				c1.508,0,2.729,1.221,2.729,2.728C110.858,38.65,109.636,39.873,108.128,39.873z"/>
		</g>
		<g>
			<circle class="st57" cx="102.022" cy="37.175" r="1.194"/>
			<circle class="st15" cx="102.021" cy="37.175" r="0.921"/>
		</g>
		<g>
			<path class="st21" d="M30.124,47.101c0-2.393,1.94-4.332,4.335-4.332H91.8c2.394,0,4.333,1.939,4.333,4.332v11.977h-66.01V47.101
				z"/>
			<path class="st44" d="M96.095,76.058c0,2.393-1.94,4.329-4.332,4.329H34.466c-2.395,0-4.334-1.937-4.334-4.329V53.011h65.963
				V76.058z"/>
			<g>
				<path class="st136" d="M39.861,64.716h-3.247v2.08h2.714c0.252,0,0.441,0.058,0.563,0.17c0.126,0.113,0.188,0.264,0.188,0.453
					c0,0.188-0.064,0.338-0.19,0.449c-0.125,0.111-0.313,0.166-0.561,0.166h-2.714v2.684c0,0.34-0.077,0.592-0.231,0.756
					c-0.153,0.166-0.35,0.248-0.592,0.248c-0.244,0-0.442-0.083-0.596-0.25c-0.154-0.166-0.231-0.418-0.231-0.754v-6.264
					c0-0.238,0.036-0.431,0.105-0.58c0.071-0.152,0.181-0.26,0.33-0.327c0.151-0.069,0.343-0.104,0.575-0.104h3.887
					c0.264,0,0.459,0.058,0.586,0.175c0.127,0.116,0.191,0.268,0.191,0.457c0,0.193-0.064,0.349-0.191,0.465
					S40.125,64.716,39.861,64.716z"/>
				<path class="st136" d="M45.449,63.304c0.843,0,1.566,0.172,2.172,0.514c0.605,0.344,1.063,0.83,1.375,1.461
					c0.313,0.631,0.467,1.373,0.467,2.223c0,0.631-0.086,1.203-0.256,1.717c-0.17,0.515-0.426,0.961-0.768,1.337
					c-0.339,0.378-0.758,0.669-1.253,0.868s-1.065,0.299-1.705,0.299c-0.638,0-1.208-0.102-1.71-0.308
					c-0.504-0.206-0.924-0.495-1.261-0.868c-0.337-0.375-0.591-0.824-0.763-1.352c-0.174-0.525-0.26-1.092-0.26-1.703
					c0-0.625,0.09-1.201,0.27-1.722c0.18-0.522,0.439-0.967,0.78-1.334c0.341-0.366,0.757-0.646,1.244-0.841
					C44.27,63.402,44.826,63.304,45.449,63.304z M47.791,67.492c0-0.596-0.097-1.112-0.289-1.549
					c-0.191-0.438-0.467-0.769-0.824-0.992c-0.355-0.224-0.768-0.336-1.229-0.336c-0.33,0-0.635,0.063-0.915,0.186
					c-0.279,0.124-0.52,0.306-0.722,0.541c-0.202,0.238-0.361,0.541-0.477,0.908c-0.117,0.369-0.176,0.783-0.176,1.242
					c0,0.463,0.059,0.881,0.176,1.254c0.115,0.373,0.279,0.686,0.492,0.932c0.214,0.245,0.459,0.43,0.733,0.551
					c0.275,0.123,0.579,0.184,0.908,0.184c0.422,0,0.811-0.105,1.163-0.316c0.354-0.211,0.636-0.537,0.845-0.977
					C47.685,68.678,47.791,68.136,47.791,67.492z"/>
				<path class="st136" d="M53.089,68.103h-0.578v2.615c0,0.344-0.076,0.598-0.229,0.761c-0.151,0.161-0.351,0.243-0.594,0.243
					c-0.264,0-0.467-0.084-0.611-0.256c-0.145-0.169-0.216-0.42-0.216-0.748v-6.264c0-0.357,0.078-0.612,0.238-0.772
					c0.159-0.159,0.417-0.238,0.772-0.238h2.681c0.37,0,0.687,0.015,0.95,0.046c0.264,0.032,0.499,0.096,0.711,0.192
					c0.255,0.107,0.48,0.259,0.677,0.461c0.196,0.199,0.346,0.433,0.447,0.696c0.103,0.264,0.151,0.546,0.151,0.842
					c0,0.607-0.17,1.092-0.512,1.455c-0.342,0.362-0.861,0.621-1.559,0.772c0.293,0.155,0.573,0.384,0.839,0.688
					c0.267,0.304,0.505,0.626,0.714,0.97c0.209,0.342,0.373,0.65,0.488,0.926c0.116,0.276,0.176,0.467,0.176,0.57
					c0,0.107-0.035,0.213-0.104,0.318s-0.162,0.189-0.279,0.25c-0.119,0.062-0.257,0.092-0.412,0.092
					c-0.186,0-0.34-0.043-0.466-0.131c-0.128-0.087-0.235-0.197-0.325-0.33c-0.092-0.133-0.214-0.328-0.369-0.588l-0.66-1.099
					c-0.238-0.403-0.449-0.711-0.637-0.923c-0.188-0.211-0.377-0.356-0.568-0.434C53.624,68.14,53.38,68.103,53.089,68.103z
					 M54.031,64.681h-1.52v2.238h1.477c0.396,0,0.729-0.033,0.999-0.104c0.271-0.067,0.477-0.186,0.619-0.349
					c0.142-0.166,0.214-0.392,0.214-0.681c0-0.227-0.057-0.426-0.172-0.597c-0.115-0.173-0.274-0.302-0.478-0.387
					C54.978,64.722,54.599,64.681,54.031,64.681z"/>
				<path class="st136" d="M68.08,69.14c0,0.492-0.127,0.934-0.381,1.328c-0.252,0.391-0.623,0.699-1.111,0.922
					c-0.488,0.222-1.068,0.332-1.738,0.332c-0.805,0-1.467-0.151-1.988-0.455c-0.371-0.219-0.671-0.51-0.902-0.874
					c-0.231-0.365-0.347-0.72-0.347-1.065c0-0.198,0.069-0.371,0.208-0.512c0.139-0.145,0.314-0.213,0.53-0.213
					c0.174,0,0.321,0.055,0.442,0.166c0.119,0.111,0.221,0.273,0.307,0.494c0.104,0.259,0.216,0.475,0.337,0.648
					c0.119,0.176,0.289,0.318,0.507,0.431c0.219,0.114,0.506,0.17,0.861,0.17c0.488,0,0.887-0.114,1.191-0.341
					c0.305-0.228,0.457-0.512,0.457-0.854c0-0.271-0.082-0.49-0.246-0.658c-0.166-0.167-0.378-0.297-0.639-0.385
					c-0.262-0.09-0.609-0.186-1.048-0.284c-0.584-0.136-1.074-0.298-1.467-0.481c-0.396-0.18-0.708-0.432-0.939-0.749
					c-0.231-0.315-0.347-0.71-0.347-1.178c0-0.449,0.122-0.847,0.365-1.196c0.245-0.348,0.599-0.613,1.063-0.801
					c0.462-0.188,1.006-0.281,1.631-0.281c0.5,0,0.933,0.062,1.297,0.186c0.365,0.125,0.668,0.289,0.908,0.494
					c0.24,0.207,0.416,0.422,0.527,0.647s0.166,0.446,0.166,0.662c0,0.194-0.068,0.373-0.208,0.529s-0.312,0.236-0.519,0.236
					c-0.189,0-0.332-0.048-0.431-0.142c-0.097-0.095-0.204-0.25-0.318-0.463c-0.147-0.309-0.327-0.549-0.534-0.721
					c-0.206-0.172-0.541-0.258-0.999-0.258c-0.427,0-0.769,0.094-1.029,0.281c-0.263,0.186-0.392,0.41-0.392,0.674
					c0,0.162,0.044,0.303,0.133,0.422c0.09,0.119,0.211,0.221,0.366,0.305c0.156,0.088,0.313,0.152,0.473,0.201
					c0.159,0.048,0.422,0.119,0.788,0.211c0.459,0.107,0.873,0.225,1.246,0.354c0.373,0.131,0.688,0.288,0.949,0.473
					c0.262,0.186,0.465,0.42,0.611,0.702C68.007,68.382,68.08,68.73,68.08,69.14z"/>
				<path class="st136" d="M74.687,70.662l-0.388-1.021h-3.31l-0.389,1.045c-0.151,0.406-0.28,0.68-0.39,0.823
					c-0.105,0.142-0.282,0.214-0.526,0.214c-0.207,0-0.391-0.076-0.551-0.227c-0.158-0.152-0.238-0.324-0.238-0.518
					c0-0.111,0.018-0.225,0.057-0.345c0.037-0.117,0.099-0.282,0.182-0.493l2.084-5.287c0.059-0.15,0.13-0.334,0.213-0.547
					c0.084-0.213,0.172-0.388,0.267-0.53c0.095-0.14,0.218-0.254,0.372-0.341s0.344-0.131,0.57-0.131
					c0.229,0,0.42,0.044,0.574,0.131c0.152,0.087,0.276,0.199,0.372,0.336c0.094,0.137,0.175,0.285,0.238,0.441
					c0.064,0.158,0.146,0.367,0.245,0.63l2.129,5.253c0.166,0.398,0.25,0.689,0.25,0.873c0,0.188-0.078,0.361-0.235,0.518
					c-0.158,0.158-0.349,0.236-0.571,0.236c-0.129,0-0.24-0.021-0.332-0.07c-0.092-0.045-0.17-0.107-0.232-0.188
					c-0.064-0.079-0.132-0.201-0.203-0.366C74.801,70.933,74.74,70.787,74.687,70.662z M71.423,68.402h2.432l-1.227-3.359
					L71.423,68.402z"/>
				<path class="st136" d="M79.275,64.304v5.924h3.342c0.268,0,0.472,0.066,0.614,0.194c0.142,0.131,0.214,0.293,0.214,0.489
					c0,0.2-0.07,0.361-0.211,0.487c-0.141,0.122-0.346,0.186-0.617,0.186h-3.98c-0.358,0-0.617-0.08-0.775-0.239
					c-0.156-0.159-0.234-0.416-0.234-0.773v-6.268c0-0.333,0.074-0.583,0.223-0.748c0.15-0.168,0.349-0.252,0.594-0.252
					c0.247,0,0.447,0.082,0.601,0.247S79.275,63.966,79.275,64.304z"/>
				<path class="st136" d="M89.89,64.716h-3.715v1.996h3.422c0.252,0,0.439,0.059,0.563,0.172c0.124,0.111,0.187,0.261,0.187,0.446
					c0,0.184-0.063,0.335-0.184,0.452c-0.122,0.117-0.313,0.174-0.566,0.174h-3.422v2.316h3.844c0.259,0,0.453,0.06,0.586,0.182
					c0.131,0.119,0.197,0.279,0.197,0.479c0,0.192-0.066,0.35-0.197,0.47c-0.133,0.12-0.327,0.182-0.586,0.182h-4.48
					c-0.359,0-0.617-0.08-0.775-0.239c-0.156-0.159-0.235-0.416-0.235-0.773v-6.117c0-0.238,0.034-0.431,0.105-0.58
					c0.07-0.152,0.181-0.26,0.331-0.327c0.148-0.069,0.34-0.104,0.574-0.104h4.352c0.264,0,0.459,0.058,0.587,0.175
					c0.128,0.116,0.192,0.268,0.192,0.457c0,0.193-0.064,0.349-0.192,0.465S90.154,64.716,89.89,64.716z"/>
			</g>
			<path class="st21" d="M44.861,45.736c0,0.461-0.375,0.836-0.836,0.836H41.72c-0.461,0-0.837-0.375-0.837-0.836V34.407
				c0-0.462,0.376-0.836,0.837-0.836h2.305c0.461,0,0.836,0.374,0.836,0.836V45.736z"/>
			<path class="st21" d="M85.93,45.736c0,0.461-0.376,0.836-0.837,0.836h-2.305c-0.461,0-0.836-0.375-0.836-0.836V34.407
				c0-0.462,0.375-0.836,0.836-0.836h2.305c0.461,0,0.837,0.374,0.837,0.836V45.736z"/>
		</g>
	</g>
</g>
</svg>
