<?xml version="1.0" encoding="utf-8"?>
<!-- Generator: Adobe Illustrator 16.0.0, SVG Export Plug-In . SVG Version: 6.00 Build 0)  -->
<!DOCTYPE svg PUBLIC "-//W3C//DTD SVG 1.1//EN" "http://www.w3.org/Graphics/SVG/1.1/DTD/svg11.dtd">
<svg version="1.1" id="Layer_1" xmlns="http://www.w3.org/2000/svg" xmlns:xlink="http://www.w3.org/1999/xlink" x="0px" y="0px"
	 width="136.833px" height="136.833px" viewBox="0 0 136.833 136.833" style="enable-background:new 0 0 136.833 136.833;"
	 xml:space="preserve">
<style type="text/css">
<![CDATA[
	.st0{fill-rule:evenodd;clip-rule:evenodd;fill:#08090B;}
	.st1{fill:#ABD9DF;}
	.st2{fill:#49A0AE;}
	.st3{fill:#ADA495;}
	.st4{fill:#AED1D5;}
	.st5{fill:#E1E0E0;}
	.st6{fill:#E1E2D4;}
	.st7{fill:#E4E1D3;}
	.st8{fill:#E4E4E4;}
	.st9{fill:#4ABC96;}
	.st10{fill:#E5DCD6;}
	.st11{fill:#E79E2D;}
	.st12{fill:#E7E0DC;}
	.st13{fill:#E7E4E2;}
	.st14{fill:#4D4C4C;}
	.st15{fill:#4D4D4D;}
	.st16{fill:#E84849;}
	.st17{fill:#E8C638;}
	.st18{fill:#B0DFE5;}
	.st19{fill:#B19353;}
	.st20{fill:#83725E;}
	.st21{fill:#B2B2B2;}
	.st22{fill:#83CECA;}
	.st23{fill:#B3932F;}
	.st24{fill:#1A7877;}
	.st25{fill:#868787;}
	.st26{fill:#87BCC0;}
	.st27{fill:#EB9682;}
	.st28{fill:#EBEDEF;}
	.st29{fill:#EBF3F6;}
	.st30{fill:#EDAC80;}
	.st31{fill:#1FA85B;}
	.st32{fill:#EFEAE9;}
	.st33{fill:#EFEDEC;}
	.st34{fill:#5399AA;}
	.st35{fill:#575757;}
	.st36{fill:#BAADAB;}
	.st37{fill:#BABEB5;}
	.st38{fill:#8BBEC0;}
	.st39{fill:#8BBEC3;}
	.st40{fill:#8CC3CC;}
	.st41{fill:#594E3C;}
	.st42{fill:#BDC0A7;}
	.st43{fill:#8FB5B6;}
	.st44{fill:#BF5537;}
	.st45{fill:#228080;}
	.st46{fill:#F1A977;}
	.st47{fill:#24986B;}
	.st48{opacity:0.5;fill:#FFFFFF;}
	.st49{fill:#F3F0ED;}
	.st50{fill:#F5B78C;}
	.st51{fill:#F5EE7D;}
	.st52{fill:#5B5B5B;}
	.st53{fill:#28898E;}
	.st54{fill:#5EACB4;}
	.st55{fill:#5F5E5E;}
	.st56{fill:#909090;}
	.st57{fill:#917C60;}
	.st58{fill:#C0B8AA;}
	.st59{fill:#C0C0C0;}
	.st60{fill:#C1AA9A;}
	.st61{fill:#C1D1B0;}
	.st62{fill:url(#SVGID_1_);}
	.st63{fill:url(#SVGID_2_);}
	.st64{fill:url(#SVGID_3_);}
	.st65{fill:url(#SVGID_4_);}
	.st66{fill:url(#SVGID_5_);}
	.st67{fill:#C2C099;}
	.st68{fill:#C3C3C3;}
	.st69{fill:#94C5C5;}
	.st70{fill:#958469;}
	.st71{fill:#95C3CC;}
	.st72{fill:#969595;}
	.st73{fill:#2C8484;}
	.st74{fill:#FBBF96;}
	.st75{fill:#98C7C8;}
	.st76{fill:#98C8D0;}
	.st77{fill:#99CA41;}
	.st78{fill:#C9C9C8;}
	.st79{fill:#FDD6B2;}
	.st80{opacity:0.7;}
	.st81{fill:#60C3B6;}
	.st82{fill:#616262;}
	.st83{fill:#FFFFFF;}
	.st84{fill:none;}
	.st85{fill:#9A856A;}
	.st86{fill:#9A8671;}
	.st87{fill:#676767;}
	.st88{fill:#67B8CB;}
	.st89{fill:#CADCBA;}
	.st90{fill:#CAE7DA;}
	.st91{fill:#CB774C;}
	.st92{fill:#9CD2D2;}
	.st93{fill:#CCC9B9;}
	.st94{fill:#9DC3C5;}
	.st95{fill:#CDC6C3;}
	.st96{fill:#CDCCCB;}
	.st97{fill:#CDCDCE;}
	.st98{fill:#9ECAD2;}
	.st99{fill:#30898E;}
	.st100{fill:#308A8E;}
	.st101{opacity:0.7;fill:#FFFFFF;}
	.st102{fill:#343433;}
	.st103{fill:#344E5D;}
	.st104{fill:#357180;}
	.st105{fill:#6A7872;}
	.st106{fill:#37848C;}
	.st107{fill:#37919B;}
	.st108{fill:#6C6C6B;}
	.st109{fill:#38A37C;}
	.st110{fill:#6CC077;}
	.st111{fill:#6D6868;}
	.st112{fill:#D0D1D1;}
	.st113{fill:#D0E3E5;}
	.st114{opacity:0.15;fill:#E3F3F7;}
	.st115{fill:#D4A160;}
	.st116{fill:#D4E1C4;}
	.st117{fill:#D5CEC9;}
	.st118{fill:#3B3838;}
	.st119{fill:#08090B;}
	.st120{fill:#3CB881;}
	.st121{fill:#D7B528;}
	.st122{fill:#D7D7D7;}
	.st123{fill:#3D4040;}
	.st124{fill:#D8D1CE;}
	.st125{fill:none;stroke:#75A9AB;stroke-linecap:round;stroke-linejoin:round;stroke-miterlimit:10;}
	.st126{fill:#A07238;}
	.st127{opacity:0.5;fill:#AED1D5;}
	.st128{fill:#A2D4DE;}
	.st129{fill:#74726A;}
	.st130{fill:#A69071;}
	.st131{fill:#776850;}
	.st132{fill:#A6CED1;}
	.st133{fill:#A78F7E;}
	.st134{fill:#787878;}
	.st135{fill:#DBD6D4;}
	.st136{fill:#DBDBDA;}
	.st137{fill:#DCB127;}
	.st138{fill:#DCD2CC;}
	.st139{fill:#DDD3CC;}
	.st140{fill:#DDDDDC;}
	.st141{fill:#418068;}
	.st142{fill:#41979F;}
]]>
</style>
<g>
	<g>
		<g>
			<circle class="st120" cx="68.417" cy="68.417" r="63.333"/>
		</g>
	</g>
	<g>
		<path class="st7" d="M103.996,53.507h-71.16c-0.795,0-1.441,0.646-1.441,1.441v48.354c0,0.795,0.646,1.441,1.441,1.441h71.16
			c0.797,0,1.443-0.646,1.443-1.441V54.949C105.439,54.154,104.793,53.507,103.996,53.507z"/>
		<path class="st91" d="M110.383,55.845c-0.043-0.432-0.285-0.809-0.629-1.044l-18.117-15.34V28.835
			c0-0.797-0.646-1.441-1.443-1.441h-6.84c-0.797,0-1.443,0.645-1.443,1.441v2.393L68.309,19.71
			c-0.551-0.465-1.355-0.455-1.893,0.025L27.018,54.847c-0.056,0.045-0.108,0.092-0.156,0.143c-0.327,0.324-0.47,0.783-0.401,1.23
			v3.412c0,0.796,0.646,1.443,1.442,1.443h81.044c0.797,0,1.443-0.647,1.443-1.443v-3.521
			C110.395,56.023,110.395,55.933,110.383,55.845z"/>
	</g>
	<g>
		<path class="st35" d="M86.898,84.098c-0.182-0.004-0.355-0.105-0.441-0.281c-1.811-3.692-3.689-5.637-5.479-5.574
			c-2.676,0.072-4.543,4.385-4.563,4.43c-0.105,0.254-0.398,0.374-0.654,0.263c-0.254-0.107-0.373-0.401-0.264-0.654
			c0.084-0.201,2.143-4.949,5.453-5.038c2.221-0.049,4.381,2.005,6.402,6.135c0.121,0.248,0.02,0.547-0.229,0.668
			C87.053,84.083,86.975,84.098,86.898,84.098z"/>
	</g>
	<g>
		<g>
			<g>
				<g>
					<g>
						<path class="st141" d="M83.15,74.882c-1.328-1.327-17.137-1.961-19.861,0.765l-26.756,26.755
							c-2.725,2.724-2.559,5.666,0.166,8.39l10.689,10.69c2.727,2.727,5.5,2.723,8.225,0l26.756-26.756
							C85.092,92.001,84.477,76.209,83.15,74.882z M74.008,84.722c-1.061-1.061-1.061-2.777,0-3.838
							c1.061-1.06,2.779-1.061,3.838,0.001c1.061,1.06,1.061,2.774,0,3.837C76.785,85.783,75.068,85.783,74.008,84.722z"/>
					</g>
					<g>
						<path class="st47" d="M82.482,74.815c-1.061-1.058-16.605-1.858-19.264,0.803l-26.275,26.274c-2.658,2.659-2.66,5.367,0,8.026
							l10.434,10.434c2.66,2.661,5.369,2.659,8.027,0L81.678,94.08C84.34,91.417,83.541,75.875,82.482,74.815z M73.52,84.314
							c-1.035-1.035-1.035-2.712-0.002-3.746c1.035-1.035,2.713-1.034,3.748,0.001c1.033,1.033,1.033,2.711-0.002,3.746
							C76.23,85.348,74.553,85.347,73.52,84.314z"/>
					</g>
					<g>
						<path class="st84" d="M77.264,84.315c1.035-1.035,1.035-2.713,0.002-3.746c-0.297-0.298-0.648-0.499-1.02-0.625
							c-1.043,0.968-2.186,2.047-3.396,3.202c0.119,0.427,0.334,0.833,0.67,1.168C74.553,85.347,76.23,85.348,77.264,84.315z"/>
						<path class="st109" d="M76.246,79.944c0.371,0.126,0.723,0.327,1.02,0.625c1.033,1.033,1.033,2.711-0.002,3.746
							c-1.033,1.033-2.711,1.032-3.744-0.001c-0.336-0.335-0.551-0.741-0.67-1.168c-12.164,11.6-31.506,31.175-31.506,31.175
							l6.033,6.031c2.66,2.661,5.369,2.659,8.027,0L81.678,94.08c2.662-2.662,1.863-18.204,0.805-19.265
							C82.23,74.562,79.805,76.634,76.246,79.944z"/>
					</g>
				</g>
			</g>
		</g>
		<g>
			<path class="st49" d="M75.424,78.714c-2.057,0.001-3.727,1.668-3.727,3.727c0,2.057,1.67,3.726,3.727,3.726
				c2.059,0,3.723-1.669,3.723-3.726C79.146,80.383,77.48,78.714,75.424,78.714z M75.424,85.086c-1.461,0-2.646-1.185-2.646-2.646
				c0-1.463,1.186-2.646,2.646-2.646s2.645,1.184,2.645,2.645S76.885,85.085,75.424,85.086z"/>
		</g>
	</g>
	<g>
		<path class="st84" d="M106.652,76.207c2.836-4.992,0.113-11.66-1.213-14.119v15.758C105.9,77.333,106.318,76.794,106.652,76.207z"
			/>
		<path class="st35" d="M105.973,61.076h-0.533v1.012c1.326,2.459,4.049,9.127,1.213,14.119c-0.334,0.588-0.752,1.127-1.213,1.639
			c-4.322,4.791-14.186,6.197-29.416,4.155c-0.277-0.054-0.527,0.155-0.563,0.429c-0.037,0.273,0.156,0.525,0.43,0.562
			c4.553,0.611,8.641,0.916,12.262,0.916c8.146-0.001,13.918-1.549,17.287-4.62c1.24-1.13,2.164-2.461,2.748-4.006
			C110.314,69.647,107.18,63.083,105.973,61.076z"/>
	</g>
	<g>
		<path class="st90" d="M45.031,104.344l-0.188-0.19c-2.174-2.173-2.078-5.324,0.238-7.637c2.314-2.314,5.391-2.386,7.564-0.215
			l0.189,0.191c2.172,2.172,2.076,5.321-0.215,7.613C50.307,106.419,47.207,106.516,45.031,104.344z M57.178,113.96
			c-0.402-0.406-0.547-0.881-0.57-1.861l-1.6-25.604c0-0.287,1.791-1.22,2.648-0.359c0.334,0.334,0.574,0.908,0.621,1.861
			l1.576,25.63C59.877,113.89,58.014,114.794,57.178,113.96z M50.615,98.903l-0.355-0.356c-1.098-1.098-2.459-1.075-3.365-0.168
			c-0.932,0.93-0.932,2.219,0.191,3.34l0.357,0.359c1.1,1.096,2.434,1.096,3.365,0.166C51.715,101.337,51.715,100,50.615,98.903z
			 M62.287,103.748l-0.191-0.189c-2.17-2.172-2.076-5.321,0.238-7.639c2.291-2.289,5.393-2.386,7.564-0.213l0.191,0.189
			c2.17,2.172,2.074,5.324-0.215,7.613C67.561,105.824,64.459,105.919,62.287,103.748z M67.869,98.306l-0.357-0.357
			c-1.098-1.098-2.48-1.098-3.389-0.191c-0.932,0.932-0.906,2.243,0.215,3.365l0.357,0.357c1.074,1.073,2.41,1.073,3.342,0.144
			C68.922,100.742,68.967,99.404,67.869,98.306z"/>
	</g>
</g>
</svg>
