<?xml version="1.0" encoding="utf-8"?>
<!-- Generator: Adobe Illustrator 16.0.0, SVG Export Plug-In . SVG Version: 6.00 Build 0)  -->
<!DOCTYPE svg PUBLIC "-//W3C//DTD SVG 1.1//EN" "http://www.w3.org/Graphics/SVG/1.1/DTD/svg11.dtd">
<svg version="1.1" id="Layer_1" xmlns="http://www.w3.org/2000/svg" xmlns:xlink="http://www.w3.org/1999/xlink" x="0px" y="0px"
	 width="136.833px" height="136.833px" viewBox="0 0 136.833 136.833" style="enable-background:new 0 0 136.833 136.833;"
	 xml:space="preserve">
<style type="text/css">
<![CDATA[
	.st0{fill-rule:evenodd;clip-rule:evenodd;fill:#08090B;}
	.st1{fill:#ABD9DF;}
	.st2{fill:#49A0AE;}
	.st3{fill:#ADA495;}
	.st4{fill:#AED1D5;}
	.st5{fill:#E1E0E0;}
	.st6{fill:#E1E2D4;}
	.st7{fill:#E4E1D3;}
	.st8{fill:#E4E4E4;}
	.st9{fill:#4ABC96;}
	.st10{fill:#E5DCD6;}
	.st11{fill:#E79E2D;}
	.st12{fill:#E7E0DC;}
	.st13{fill:#E7E4E2;}
	.st14{fill:#4D4C4C;}
	.st15{fill:#4D4D4D;}
	.st16{fill:#E84849;}
	.st17{fill:#E8C638;}
	.st18{fill:#B0DFE5;}
	.st19{fill:#B19353;}
	.st20{fill:#83725E;}
	.st21{fill:#B2B2B2;}
	.st22{fill:#83CECA;}
	.st23{fill:#B3932F;}
	.st24{fill:#1A7877;}
	.st25{fill:#868787;}
	.st26{fill:#87BCC0;}
	.st27{fill:#EB9682;}
	.st28{fill:#EBEDEF;}
	.st29{fill:#EBF3F6;}
	.st30{fill:#EDAC80;}
	.st31{fill:#1FA85B;}
	.st32{fill:#EFEAE9;}
	.st33{fill:#EFEDEC;}
	.st34{fill:#5399AA;}
	.st35{fill:#575757;}
	.st36{fill:#BAADAB;}
	.st37{fill:#BABEB5;}
	.st38{fill:#8BBEC0;}
	.st39{fill:#8BBEC3;}
	.st40{fill:#8CC3CC;}
	.st41{fill:#594E3C;}
	.st42{fill:#BDC0A7;}
	.st43{fill:#8FB5B6;}
	.st44{fill:#BF5537;}
	.st45{fill:#228080;}
	.st46{fill:#F1A977;}
	.st47{fill:#24986B;}
	.st48{opacity:0.5;fill:#FFFFFF;}
	.st49{fill:#F3F0ED;}
	.st50{fill:#F5B78C;}
	.st51{fill:#F5EE7D;}
	.st52{fill:#5B5B5B;}
	.st53{fill:#28898E;}
	.st54{fill:#5EACB4;}
	.st55{fill:#5F5E5E;}
	.st56{fill:#909090;}
	.st57{fill:#917C60;}
	.st58{fill:#C0B8AA;}
	.st59{fill:#C0C0C0;}
	.st60{fill:#C1AA9A;}
	.st61{fill:#C1D1B0;}
	.st62{fill:url(#SVGID_1_);}
	.st63{fill:url(#SVGID_2_);}
	.st64{fill:url(#SVGID_3_);}
	.st65{fill:url(#SVGID_4_);}
	.st66{fill:url(#SVGID_5_);}
	.st67{fill:#C2C099;}
	.st68{fill:#C3C3C3;}
	.st69{fill:#94C5C5;}
	.st70{fill:#958469;}
	.st71{fill:#95C3CC;}
	.st72{fill:#969595;}
	.st73{fill:#2C8484;}
	.st74{fill:#FBBF96;}
	.st75{fill:#98C7C8;}
	.st76{fill:#98C8D0;}
	.st77{fill:#99CA41;}
	.st78{fill:#C9C9C8;}
	.st79{fill:#FDD6B2;}
	.st80{opacity:0.7;}
	.st81{fill:#60C3B6;}
	.st82{fill:#616262;}
	.st83{fill:#FFFFFF;}
	.st84{fill:none;}
	.st85{fill:#9A856A;}
	.st86{fill:#9A8671;}
	.st87{fill:#676767;}
	.st88{fill:#67B8CB;}
	.st89{fill:#CADCBA;}
	.st90{fill:#CAE7DA;}
	.st91{fill:#CB774C;}
	.st92{fill:#9CD2D2;}
	.st93{fill:#CCC9B9;}
	.st94{fill:#9DC3C5;}
	.st95{fill:#CDC6C3;}
	.st96{fill:#CDCCCB;}
	.st97{fill:#CDCDCE;}
	.st98{fill:#9ECAD2;}
	.st99{fill:#30898E;}
	.st100{fill:#308A8E;}
	.st101{opacity:0.7;fill:#FFFFFF;}
	.st102{fill:#343433;}
	.st103{fill:#344E5D;}
	.st104{fill:#357180;}
	.st105{fill:#6A7872;}
	.st106{fill:#37848C;}
	.st107{fill:#37919B;}
	.st108{fill:#6C6C6B;}
	.st109{fill:#38A37C;}
	.st110{fill:#6CC077;}
	.st111{fill:#6D6868;}
	.st112{fill:#D0D1D1;}
	.st113{fill:#D0E3E5;}
	.st114{opacity:0.15;fill:#E3F3F7;}
	.st115{fill:#D4A160;}
	.st116{fill:#D4E1C4;}
	.st117{fill:#D5CEC9;}
	.st118{fill:#3B3838;}
	.st119{fill:#08090B;}
	.st120{fill:#3CB881;}
	.st121{fill:#D7B528;}
	.st122{fill:#D7D7D7;}
	.st123{fill:#3D4040;}
	.st124{fill:#D8D1CE;}
	.st125{fill:none;stroke:#75A9AB;stroke-linecap:round;stroke-linejoin:round;stroke-miterlimit:10;}
	.st126{fill:#A07238;}
	.st127{opacity:0.5;fill:#AED1D5;}
	.st128{fill:#A2D4DE;}
	.st129{fill:#74726A;}
	.st130{fill:#A69071;}
	.st131{fill:#776850;}
	.st132{fill:#A6CED1;}
	.st133{fill:#A78F7E;}
	.st134{fill:#787878;}
	.st135{fill:#DBD6D4;}
	.st136{fill:#DBDBDA;}
	.st137{fill:#DCB127;}
	.st138{fill:#DCD2CC;}
	.st139{fill:#DDD3CC;}
	.st140{fill:#DDDDDC;}
	.st141{fill:#418068;}
	.st142{fill:#41979F;}
]]>
</style>
<g>
	<g>
		<g>
			<circle class="st103" cx="68.417" cy="68.417" r="63.333"/>
		</g>
	</g>
	<g>
		<g>
			<path class="st85" d="M101.759,28.41c-1.508,0-2.73,1.221-2.73,2.729v92.725c1.881-1.041,3.701-2.179,5.459-3.399V31.138
				C104.488,29.63,103.266,28.41,101.759,28.41z"/>
		</g>
		<g>
			<path class="st130" d="M107.763,39.873H30.47c-1.508,0-2.729-1.223-2.729-2.73c0-1.507,1.222-2.728,2.729-2.728h77.293
				c1.508,0,2.729,1.221,2.729,2.728C110.493,38.65,109.271,39.873,107.763,39.873z"/>
		</g>
		<g>
			<circle class="st57" cx="101.657" cy="37.175" r="1.194"/>
			<circle class="st15" cx="101.655" cy="37.175" r="0.921"/>
		</g>
		<g>
			<path class="st21" d="M29.757,47.101c0-2.393,1.941-4.332,4.336-4.332h57.342c2.394,0,4.333,1.939,4.333,4.332v11.977H29.757
				V47.101z"/>
			<path class="st44" d="M95.73,76.058c0,2.393-1.94,4.329-4.332,4.329H34.101c-2.395,0-4.334-1.937-4.334-4.329V53.011H95.73
				V76.058z"/>
			<path class="st21" d="M44.496,45.736c0,0.461-0.375,0.836-0.836,0.836h-2.305c-0.462,0-0.837-0.375-0.837-0.836V34.407
				c0-0.462,0.375-0.836,0.837-0.836h2.305c0.461,0,0.836,0.374,0.836,0.836V45.736z"/>
			<path class="st21" d="M85.565,45.736c0,0.461-0.376,0.836-0.837,0.836h-2.305c-0.462,0-0.836-0.375-0.836-0.836V34.407
				c0-0.462,0.374-0.836,0.836-0.836h2.305c0.461,0,0.837,0.374,0.837,0.836V45.736z"/>
			<g>
				<path class="st136" d="M39.494,64.734h-3.138v2.01h2.622c0.242,0,0.426,0.055,0.545,0.163c0.119,0.11,0.179,0.257,0.179,0.438
					c0,0.182-0.06,0.327-0.181,0.436c-0.122,0.106-0.303,0.159-0.543,0.159h-2.622v2.591c0,0.329-0.073,0.573-0.223,0.731
					c-0.147,0.16-0.337,0.238-0.57,0.238c-0.236,0-0.429-0.08-0.577-0.24c-0.147-0.161-0.223-0.404-0.223-0.729v-6.05
					c0-0.228,0.034-0.414,0.103-0.561c0.069-0.144,0.175-0.249,0.319-0.315c0.145-0.065,0.329-0.098,0.554-0.098h3.755
					c0.252,0,0.441,0.055,0.566,0.169c0.121,0.111,0.184,0.259,0.184,0.442c0,0.185-0.063,0.335-0.184,0.444
					C39.935,64.677,39.746,64.734,39.494,64.734z"/>
				<path class="st136" d="M44.888,63.371c0.813,0,1.516,0.166,2.098,0.496c0.586,0.331,1.027,0.801,1.328,1.411
					c0.301,0.609,0.449,1.324,0.449,2.146c0,0.608-0.08,1.161-0.246,1.657c-0.164,0.496-0.409,0.929-0.74,1.293
					c-0.327,0.364-0.732,0.642-1.211,0.836c-0.479,0.191-1.027,0.289-1.646,0.289c-0.615,0-1.164-0.099-1.65-0.297
					s-0.893-0.478-1.218-0.84c-0.325-0.361-0.571-0.795-0.738-1.302c-0.165-0.509-0.249-1.057-0.249-1.647
					c0-0.603,0.086-1.157,0.261-1.662c0.174-0.504,0.423-0.934,0.754-1.285c0.329-0.355,0.729-0.627,1.2-0.814
					C43.751,63.464,44.288,63.371,44.888,63.371z M47.15,67.414c0-0.575-0.092-1.074-0.277-1.496
					c-0.186-0.42-0.451-0.741-0.798-0.957c-0.344-0.217-0.74-0.322-1.187-0.322c-0.318,0-0.612,0.059-0.883,0.179
					c-0.27,0.119-0.502,0.294-0.697,0.522c-0.194,0.229-0.348,0.521-0.461,0.877c-0.113,0.354-0.17,0.756-0.17,1.197
					c0,0.447,0.057,0.853,0.17,1.213c0.113,0.361,0.271,0.66,0.478,0.896c0.207,0.239,0.442,0.418,0.706,0.533
					c0.269,0.121,0.56,0.178,0.878,0.178c0.407,0,0.781-0.102,1.124-0.305c0.342-0.203,0.613-0.518,0.814-0.943
					C47.049,68.559,47.15,68.037,47.15,67.414z"/>
				<path class="st136" d="M52.267,68.004h-0.559v2.525c0,0.333-0.073,0.577-0.22,0.735c-0.146,0.156-0.339,0.234-0.573,0.234
					c-0.255,0-0.451-0.083-0.589-0.245c-0.142-0.165-0.211-0.407-0.211-0.725v-6.05c0-0.342,0.075-0.592,0.231-0.744
					c0.152-0.154,0.401-0.229,0.745-0.229h2.589c0.357,0,0.663,0.015,0.918,0.044c0.252,0.031,0.48,0.093,0.686,0.186
					c0.246,0.104,0.465,0.251,0.654,0.445c0.189,0.191,0.334,0.418,0.434,0.672c0.096,0.256,0.146,0.527,0.146,0.813
					c0,0.588-0.168,1.055-0.496,1.404c-0.331,0.353-0.833,0.601-1.505,0.747c0.284,0.149,0.552,0.373,0.81,0.664
					c0.258,0.294,0.486,0.605,0.689,0.937c0.201,0.33,0.359,0.629,0.472,0.895c0.112,0.268,0.169,0.451,0.169,0.551
					c0,0.104-0.033,0.205-0.1,0.307c-0.066,0.104-0.156,0.184-0.27,0.242c-0.116,0.061-0.246,0.088-0.396,0.088
					c-0.18,0-0.331-0.041-0.451-0.125c-0.123-0.084-0.227-0.191-0.314-0.319c-0.086-0.13-0.207-0.318-0.356-0.568l-0.638-1.062
					c-0.229-0.391-0.434-0.688-0.615-0.889c-0.18-0.205-0.362-0.344-0.549-0.42C52.783,68.042,52.548,68.004,52.267,68.004z
					 M53.177,64.702h-1.469v2.159h1.428c0.381,0,0.701-0.033,0.965-0.099c0.26-0.066,0.458-0.179,0.596-0.337
					c0.139-0.158,0.209-0.378,0.209-0.657c0-0.218-0.057-0.41-0.168-0.577c-0.111-0.166-0.266-0.289-0.461-0.373
					C54.091,64.741,53.724,64.702,53.177,64.702z"/>
				<path class="st136" d="M62.911,68.004h-0.56v2.525c0,0.333-0.073,0.577-0.219,0.735c-0.146,0.156-0.338,0.234-0.576,0.234
					c-0.25,0-0.449-0.083-0.588-0.245c-0.139-0.165-0.209-0.407-0.209-0.725v-6.05c0-0.342,0.077-0.592,0.23-0.744
					c0.153-0.154,0.402-0.229,0.746-0.229h2.59c0.357,0,0.664,0.015,0.915,0.044c0.255,0.031,0.484,0.093,0.688,0.186
					c0.247,0.104,0.466,0.251,0.655,0.445c0.188,0.191,0.332,0.418,0.432,0.672c0.099,0.256,0.146,0.527,0.146,0.813
					c0,0.588-0.165,1.055-0.495,1.404c-0.331,0.353-0.833,0.601-1.503,0.747c0.281,0.149,0.551,0.373,0.809,0.664
					c0.256,0.294,0.486,0.605,0.688,0.937c0.203,0.33,0.361,0.629,0.473,0.895c0.112,0.268,0.169,0.451,0.169,0.551
					c0,0.104-0.032,0.205-0.099,0.307c-0.066,0.104-0.156,0.184-0.271,0.242c-0.114,0.061-0.247,0.088-0.396,0.088
					c-0.179,0-0.329-0.041-0.451-0.125s-0.226-0.191-0.313-0.319c-0.088-0.13-0.207-0.318-0.355-0.568l-0.639-1.062
					c-0.23-0.391-0.434-0.688-0.615-0.889c-0.18-0.205-0.364-0.344-0.549-0.42C63.427,68.042,63.193,68.004,62.911,68.004z
					 M63.822,64.702h-1.471v2.159h1.428c0.383,0,0.704-0.033,0.967-0.099c0.26-0.066,0.459-0.179,0.597-0.337
					s0.206-0.378,0.206-0.657c0-0.218-0.057-0.41-0.166-0.577c-0.111-0.166-0.265-0.289-0.461-0.373
					C64.735,64.741,64.369,64.702,63.822,64.702z"/>
				<path class="st136" d="M73.849,64.734h-3.588v1.93h3.304c0.243,0,0.426,0.055,0.544,0.164c0.12,0.109,0.181,0.253,0.181,0.433
					c0,0.177-0.061,0.322-0.179,0.435c-0.117,0.113-0.299,0.17-0.546,0.17h-3.304v2.236h3.711c0.251,0,0.438,0.059,0.564,0.175
					c0.127,0.116,0.19,0.271,0.19,0.463c0,0.185-0.063,0.337-0.19,0.452c-0.126,0.117-0.313,0.174-0.564,0.174h-4.328
					c-0.346,0-0.597-0.076-0.748-0.229c-0.15-0.154-0.229-0.402-0.229-0.746v-5.91c0-0.228,0.035-0.414,0.102-0.561
					c0.07-0.144,0.176-0.249,0.32-0.315c0.146-0.065,0.33-0.098,0.555-0.098h4.205c0.254,0,0.441,0.055,0.566,0.169
					c0.121,0.111,0.184,0.259,0.184,0.442c0,0.185-0.063,0.335-0.184,0.444C74.291,64.677,74.103,64.734,73.849,64.734z"/>
				<path class="st136" d="M78.068,64.324l3.063,4.635v-4.676c0-0.305,0.066-0.531,0.195-0.684c0.13-0.152,0.307-0.229,0.528-0.229
					c0.229,0,0.409,0.076,0.543,0.229c0.132,0.152,0.198,0.379,0.198,0.684v6.184c0,0.689-0.287,1.033-0.859,1.033
					c-0.141,0-0.271-0.02-0.385-0.062c-0.115-0.042-0.224-0.105-0.322-0.194c-0.1-0.09-0.192-0.195-0.279-0.316
					c-0.084-0.117-0.17-0.24-0.258-0.365l-2.986-4.579v4.606c0,0.299-0.068,0.525-0.209,0.68c-0.141,0.155-0.316,0.23-0.537,0.23
					c-0.223,0-0.404-0.076-0.54-0.232s-0.204-0.382-0.204-0.678v-6.064c0-0.258,0.027-0.46,0.085-0.606
					c0.067-0.159,0.181-0.292,0.339-0.395c0.156-0.103,0.327-0.153,0.509-0.153c0.144,0,0.266,0.023,0.369,0.07
					c0.099,0.047,0.189,0.109,0.266,0.188c0.078,0.079,0.155,0.18,0.238,0.306C77.899,64.06,77.982,64.189,78.068,64.324z"/>
				<path class="st136" d="M89.442,64.818h-1.737v5.712c0,0.329-0.073,0.573-0.221,0.731c-0.146,0.16-0.336,0.238-0.567,0.238
					c-0.236,0-0.429-0.08-0.577-0.24c-0.148-0.161-0.221-0.404-0.221-0.729v-5.712h-1.736c-0.275,0-0.475-0.059-0.607-0.18
					c-0.133-0.119-0.199-0.277-0.199-0.475c0-0.202,0.068-0.363,0.207-0.482c0.137-0.118,0.336-0.175,0.6-0.175h5.06
					c0.275,0,0.481,0.059,0.614,0.181c0.133,0.121,0.201,0.281,0.201,0.477c0,0.197-0.068,0.355-0.203,0.475
					C89.917,64.759,89.714,64.818,89.442,64.818z"/>
			</g>
		</g>
	</g>
</g>
</svg>
