<?xml version="1.0" encoding="utf-8"?>
<!-- Generator: Adobe Illustrator 16.0.0, SVG Export Plug-In . SVG Version: 6.00 Build 0)  -->
<!DOCTYPE svg PUBLIC "-//W3C//DTD SVG 1.1//EN" "http://www.w3.org/Graphics/SVG/1.1/DTD/svg11.dtd">
<svg version="1.1" id="Layer_1" xmlns="http://www.w3.org/2000/svg" xmlns:xlink="http://www.w3.org/1999/xlink" x="0px" y="0px"
	 width="136.833px" height="136.833px" viewBox="0 0 136.833 136.833" style="enable-background:new 0 0 136.833 136.833;"
	 xml:space="preserve">
<style type="text/css">
<![CDATA[
	.st0{fill-rule:evenodd;clip-rule:evenodd;fill:#08090B;}
	.st1{fill:#ABD9DF;}
	.st2{fill:#49A0AE;}
	.st3{fill:#ADA495;}
	.st4{fill:#AED1D5;}
	.st5{fill:#E1E0E0;}
	.st6{fill:#E1E2D4;}
	.st7{fill:#E4E1D3;}
	.st8{fill:#E4E4E4;}
	.st9{fill:#4ABC96;}
	.st10{fill:#E5DCD6;}
	.st11{fill:#E79E2D;}
	.st12{fill:#E7E0DC;}
	.st13{fill:#E7E4E2;}
	.st14{fill:#4D4C4C;}
	.st15{fill:#4D4D4D;}
	.st16{fill:#E84849;}
	.st17{fill:#E8C638;}
	.st18{fill:#B0DFE5;}
	.st19{fill:#B19353;}
	.st20{fill:#83725E;}
	.st21{fill:#B2B2B2;}
	.st22{fill:#83CECA;}
	.st23{fill:#B3932F;}
	.st24{fill:#1A7877;}
	.st25{fill:#868787;}
	.st26{fill:#87BCC0;}
	.st27{fill:#EB9682;}
	.st28{fill:#EBEDEF;}
	.st29{fill:#EBF3F6;}
	.st30{fill:#EDAC80;}
	.st31{fill:#1FA85B;}
	.st32{fill:#EFEAE9;}
	.st33{fill:#EFEDEC;}
	.st34{fill:#5399AA;}
	.st35{fill:#575757;}
	.st36{fill:#BAADAB;}
	.st37{fill:#BABEB5;}
	.st38{fill:#8BBEC0;}
	.st39{fill:#8BBEC3;}
	.st40{fill:#8CC3CC;}
	.st41{fill:#594E3C;}
	.st42{fill:#BDC0A7;}
	.st43{fill:#8FB5B6;}
	.st44{fill:#BF5537;}
	.st45{fill:#228080;}
	.st46{fill:#F1A977;}
	.st47{fill:#24986B;}
	.st48{opacity:0.5;fill:#FFFFFF;}
	.st49{fill:#F3F0ED;}
	.st50{fill:#F5B78C;}
	.st51{fill:#F5EE7D;}
	.st52{fill:#5B5B5B;}
	.st53{fill:#28898E;}
	.st54{fill:#5EACB4;}
	.st55{fill:#5F5E5E;}
	.st56{fill:#909090;}
	.st57{fill:#917C60;}
	.st58{fill:#C0B8AA;}
	.st59{fill:#C0C0C0;}
	.st60{fill:#C1AA9A;}
	.st61{fill:#C1D1B0;}
	.st62{fill:url(#SVGID_1_);}
	.st63{fill:url(#SVGID_2_);}
	.st64{fill:url(#SVGID_3_);}
	.st65{fill:url(#SVGID_4_);}
	.st66{fill:url(#SVGID_5_);}
	.st67{fill:#C2C099;}
	.st68{fill:#C3C3C3;}
	.st69{fill:#94C5C5;}
	.st70{fill:#958469;}
	.st71{fill:#95C3CC;}
	.st72{fill:#969595;}
	.st73{fill:#2C8484;}
	.st74{fill:#FBBF96;}
	.st75{fill:#98C7C8;}
	.st76{fill:#98C8D0;}
	.st77{fill:#99CA41;}
	.st78{fill:#C9C9C8;}
	.st79{fill:#FDD6B2;}
	.st80{opacity:0.7;}
	.st81{fill:#60C3B6;}
	.st82{fill:#616262;}
	.st83{fill:#FFFFFF;}
	.st84{fill:none;}
	.st85{fill:#9A856A;}
	.st86{fill:#9A8671;}
	.st87{fill:#676767;}
	.st88{fill:#67B8CB;}
	.st89{fill:#CADCBA;}
	.st90{fill:#CAE7DA;}
	.st91{fill:#CB774C;}
	.st92{fill:#9CD2D2;}
	.st93{fill:#CCC9B9;}
	.st94{fill:#9DC3C5;}
	.st95{fill:#CDC6C3;}
	.st96{fill:#CDCCCB;}
	.st97{fill:#CDCDCE;}
	.st98{fill:#9ECAD2;}
	.st99{fill:#30898E;}
	.st100{fill:#308A8E;}
	.st101{opacity:0.7;fill:#FFFFFF;}
	.st102{fill:#343433;}
	.st103{fill:#344E5D;}
	.st104{fill:#357180;}
	.st105{fill:#6A7872;}
	.st106{fill:#37848C;}
	.st107{fill:#37919B;}
	.st108{fill:#6C6C6B;}
	.st109{fill:#38A37C;}
	.st110{fill:#6CC077;}
	.st111{fill:#6D6868;}
	.st112{fill:#D0D1D1;}
	.st113{fill:#D0E3E5;}
	.st114{opacity:0.15;fill:#E3F3F7;}
	.st115{fill:#D4A160;}
	.st116{fill:#D4E1C4;}
	.st117{fill:#D5CEC9;}
	.st118{fill:#3B3838;}
	.st119{fill:#08090B;}
	.st120{fill:#3CB881;}
	.st121{fill:#D7B528;}
	.st122{fill:#D7D7D7;}
	.st123{fill:#3D4040;}
	.st124{fill:#D8D1CE;}
	.st125{fill:none;stroke:#75A9AB;stroke-linecap:round;stroke-linejoin:round;stroke-miterlimit:10;}
	.st126{fill:#A07238;}
	.st127{opacity:0.5;fill:#AED1D5;}
	.st128{fill:#A2D4DE;}
	.st129{fill:#74726A;}
	.st130{fill:#A69071;}
	.st131{fill:#776850;}
	.st132{fill:#A6CED1;}
	.st133{fill:#A78F7E;}
	.st134{fill:#787878;}
	.st135{fill:#DBD6D4;}
	.st136{fill:#DBDBDA;}
	.st137{fill:#DCB127;}
	.st138{fill:#DCD2CC;}
	.st139{fill:#DDD3CC;}
	.st140{fill:#DDDDDC;}
	.st141{fill:#418068;}
	.st142{fill:#41979F;}
]]>
</style>
<g>
	<g>
		<g>
			<circle class="st103" cx="68.417" cy="68.417" r="63.333"/>
		</g>
	</g>
	<g>
		<g>
			<path class="st85" d="M68.405,113.452c-1.508,0-2.729-1.222-2.729-2.73v-84.61c0-1.509,1.222-2.729,2.729-2.729
				c1.509,0,2.729,1.221,2.729,2.729v84.61C71.134,112.23,69.914,113.452,68.405,113.452z"/>
		</g>
		<g>
			<path class="st20" d="M68.405,113.452c-1.508,0-2.729-1.222-2.729-2.73v-84.61c0-1.509,1.222-2.729,2.729-2.729V113.452z"/>
		</g>
		<path class="st21" d="M35.43,32.417c0-2.395,1.94-4.333,4.334-4.333h57.293c2.393,0,4.334,1.938,4.334,4.333v11.978H35.43V32.417z
			"/>
		<path class="st44" d="M101.403,61.374c0,2.393-1.939,4.332-4.333,4.332H39.771c-2.392,0-4.33-1.939-4.33-4.332V38.329h65.962
			V61.374z"/>
		<path class="st21" d="M91.236,40.922c0,0.463-0.374,0.836-0.836,0.836h-2.305c-0.462,0-0.838-0.373-0.838-0.836v-6.004
			c0-0.461,0.376-0.837,0.838-0.837H90.4c0.462,0,0.836,0.376,0.836,0.837V40.922z"/>
		<g>
			<path class="st136" d="M45.165,50.051h-3.137v2.009h2.623c0.242,0,0.426,0.056,0.544,0.163c0.12,0.111,0.179,0.257,0.179,0.438
				c0,0.182-0.059,0.327-0.182,0.436c-0.121,0.107-0.303,0.16-0.541,0.16h-2.623v2.59c0,0.33-0.074,0.573-0.223,0.732
				c-0.147,0.158-0.338,0.238-0.57,0.238c-0.236,0-0.428-0.08-0.576-0.24c-0.148-0.162-0.222-0.405-0.222-0.73v-6.051
				c0-0.227,0.032-0.414,0.1-0.559c0.069-0.145,0.175-0.25,0.319-0.316c0.146-0.064,0.33-0.099,0.555-0.099h3.754
				c0.256,0,0.443,0.058,0.566,0.171c0.123,0.111,0.185,0.258,0.185,0.441c0,0.186-0.062,0.334-0.185,0.446
				C45.608,49.995,45.42,50.051,45.165,50.051z"/>
			<path class="st136" d="M50.559,48.687c0.814,0,1.516,0.167,2.1,0.497c0.586,0.332,1.027,0.801,1.328,1.41
				c0.299,0.608,0.45,1.323,0.45,2.148c0,0.605-0.083,1.16-0.247,1.656c-0.165,0.496-0.411,0.928-0.74,1.291
				c-0.328,0.365-0.732,0.646-1.211,0.836c-0.48,0.193-1.029,0.291-1.646,0.291c-0.615,0-1.165-0.1-1.652-0.297
				c-0.485-0.199-0.891-0.479-1.217-0.84s-0.57-0.795-0.738-1.301c-0.166-0.509-0.249-1.059-0.249-1.646
				c0-0.605,0.088-1.159,0.261-1.663c0.174-0.505,0.425-0.935,0.753-1.286c0.33-0.355,0.73-0.627,1.201-0.814
				C49.422,48.782,49.959,48.687,50.559,48.687z M52.823,52.733c0-0.578-0.093-1.076-0.278-1.498s-0.452-0.74-0.798-0.955
				c-0.344-0.219-0.741-0.326-1.188-0.326c-0.318,0-0.611,0.06-0.881,0.18c-0.27,0.121-0.502,0.293-0.698,0.522
				c-0.194,0.229-0.348,0.521-0.461,0.876c-0.111,0.356-0.167,0.755-0.167,1.201c0,0.443,0.056,0.849,0.167,1.211
				c0.113,0.361,0.272,0.658,0.478,0.896s0.441,0.418,0.708,0.534c0.267,0.118,0.559,0.177,0.876,0.177
				c0.408,0,0.782-0.102,1.124-0.306s0.614-0.518,0.815-0.942C52.721,53.877,52.823,53.353,52.823,52.733z"/>
			<path class="st136" d="M57.939,53.321h-0.56v2.525c0,0.334-0.072,0.578-0.219,0.735c-0.147,0.157-0.34,0.235-0.574,0.235
				c-0.254,0-0.451-0.082-0.588-0.246c-0.141-0.164-0.211-0.406-0.211-0.725v-6.051c0-0.341,0.076-0.589,0.23-0.742
				c0.154-0.155,0.402-0.231,0.745-0.231h2.59c0.357,0,0.664,0.015,0.917,0.044c0.256,0.032,0.483,0.094,0.687,0.188
				c0.247,0.104,0.465,0.252,0.653,0.443c0.19,0.195,0.335,0.418,0.433,0.673c0.099,0.257,0.147,0.527,0.147,0.813
				c0,0.587-0.164,1.055-0.496,1.405c-0.33,0.351-0.832,0.599-1.504,0.747c0.281,0.148,0.553,0.368,0.811,0.664
				c0.257,0.293,0.485,0.604,0.689,0.934c0.201,0.332,0.358,0.629,0.471,0.896c0.113,0.267,0.169,0.449,0.169,0.551
				s-0.034,0.204-0.099,0.308c-0.066,0.101-0.156,0.183-0.271,0.24c-0.113,0.06-0.248,0.089-0.396,0.089
				c-0.179,0-0.329-0.043-0.451-0.127c-0.121-0.082-0.226-0.189-0.314-0.316c-0.086-0.131-0.206-0.32-0.356-0.57l-0.638-1.062
				c-0.229-0.39-0.434-0.686-0.614-0.89c-0.18-0.204-0.363-0.342-0.55-0.418C58.455,53.358,58.22,53.321,57.939,53.321z
				 M58.85,50.018h-1.471v2.161h1.428c0.383,0,0.704-0.034,0.965-0.099c0.261-0.068,0.459-0.18,0.598-0.34
				c0.137-0.158,0.207-0.377,0.207-0.656c0-0.217-0.056-0.408-0.166-0.576c-0.112-0.166-0.266-0.291-0.462-0.373
				C59.763,50.057,59.396,50.018,58.85,50.018z"/>
			<path class="st136" d="M68.583,53.321h-0.558v2.525c0,0.334-0.073,0.578-0.221,0.735c-0.146,0.157-0.337,0.235-0.573,0.235
				c-0.254,0-0.45-0.082-0.59-0.246c-0.141-0.164-0.21-0.406-0.21-0.725v-6.051c0-0.341,0.077-0.589,0.231-0.742
				c0.152-0.155,0.401-0.231,0.745-0.231h2.59c0.357,0,0.662,0.015,0.917,0.044c0.254,0.032,0.481,0.094,0.686,0.188
				c0.248,0.104,0.465,0.252,0.655,0.443c0.188,0.195,0.333,0.418,0.431,0.673c0.1,0.257,0.148,0.527,0.148,0.813
				c0,0.587-0.166,1.055-0.497,1.405c-0.33,0.351-0.831,0.599-1.503,0.747c0.282,0.148,0.552,0.368,0.81,0.664
				c0.258,0.293,0.487,0.604,0.688,0.934c0.202,0.332,0.36,0.629,0.473,0.896c0.112,0.267,0.168,0.449,0.168,0.551
				s-0.032,0.204-0.099,0.308c-0.065,0.101-0.156,0.183-0.271,0.24c-0.114,0.06-0.248,0.089-0.397,0.089
				c-0.178,0-0.329-0.043-0.451-0.127c-0.121-0.082-0.226-0.189-0.312-0.316c-0.089-0.131-0.207-0.32-0.357-0.57l-0.639-1.062
				c-0.229-0.39-0.434-0.686-0.613-0.89c-0.181-0.204-0.364-0.342-0.55-0.418C69.098,53.358,68.866,53.321,68.583,53.321z
				 M69.494,50.018h-1.469v2.161h1.427c0.382,0,0.703-0.034,0.964-0.099c0.261-0.068,0.46-0.18,0.599-0.34
				c0.139-0.158,0.207-0.377,0.207-0.656c0-0.217-0.057-0.408-0.167-0.576c-0.111-0.166-0.265-0.291-0.462-0.373
				C70.407,50.057,70.042,50.018,69.494,50.018z"/>
			<path class="st136" d="M79.52,50.051h-3.587v1.93h3.304c0.242,0,0.425,0.055,0.544,0.162c0.12,0.109,0.18,0.254,0.18,0.432
				c0,0.18-0.06,0.326-0.177,0.438c-0.119,0.111-0.3,0.169-0.547,0.169h-3.304v2.236h3.71c0.251,0,0.44,0.06,0.566,0.175
				c0.127,0.115,0.189,0.27,0.189,0.463c0,0.188-0.063,0.338-0.189,0.453c-0.126,0.117-0.315,0.174-0.566,0.174h-4.326
				c-0.346,0-0.596-0.076-0.749-0.23c-0.151-0.154-0.228-0.402-0.228-0.744v-5.912c0-0.227,0.034-0.414,0.104-0.559
				c0.066-0.145,0.174-0.25,0.318-0.316c0.145-0.064,0.33-0.099,0.555-0.099h4.203c0.255,0,0.443,0.058,0.566,0.171
				c0.123,0.111,0.186,0.258,0.186,0.441c0,0.186-0.063,0.334-0.186,0.446C79.963,49.995,79.775,50.051,79.52,50.051z"/>
			<path class="st136" d="M83.741,49.643l3.063,4.631v-4.675c0-0.303,0.063-0.532,0.193-0.683c0.132-0.154,0.308-0.229,0.528-0.229
				c0.229,0,0.41,0.075,0.542,0.229c0.132,0.15,0.199,0.38,0.199,0.683v6.185c0,0.689-0.286,1.033-0.858,1.033
				c-0.143,0-0.271-0.021-0.386-0.061c-0.114-0.043-0.222-0.108-0.322-0.197c-0.101-0.088-0.193-0.191-0.278-0.314
				c-0.086-0.119-0.171-0.242-0.258-0.366l-2.986-4.579v4.606c0,0.3-0.069,0.528-0.209,0.681s-0.318,0.23-0.536,0.23
				c-0.226,0-0.406-0.078-0.542-0.232s-0.203-0.383-0.203-0.679V49.84c0-0.258,0.027-0.459,0.085-0.605
				c0.067-0.161,0.182-0.291,0.337-0.395c0.158-0.1,0.328-0.153,0.511-0.153c0.143,0,0.265,0.024,0.366,0.07
				c0.104,0.046,0.193,0.108,0.27,0.188c0.076,0.078,0.154,0.18,0.236,0.305C83.573,49.375,83.657,49.507,83.741,49.643z"/>
			<path class="st136" d="M95.114,50.135h-1.737v5.711c0,0.33-0.073,0.573-0.221,0.732c-0.145,0.158-0.335,0.238-0.567,0.238
				c-0.236,0-0.428-0.08-0.575-0.24c-0.149-0.162-0.224-0.405-0.224-0.73v-5.711h-1.738c-0.271,0-0.473-0.06-0.605-0.179
				c-0.131-0.12-0.197-0.278-0.197-0.474c0-0.205,0.068-0.365,0.206-0.484c0.138-0.117,0.337-0.177,0.597-0.177h5.063
				c0.275,0,0.48,0.062,0.614,0.184c0.135,0.12,0.201,0.279,0.201,0.478c0,0.195-0.068,0.354-0.204,0.474
				C95.589,50.076,95.386,50.135,95.114,50.135z"/>
		</g>
		<path class="st21" d="M50.167,40.922c0,0.463-0.374,0.836-0.837,0.836h-2.304c-0.463,0-0.838-0.373-0.838-0.836v-6.004
			c0-0.461,0.375-0.837,0.838-0.837h2.304c0.463,0,0.837,0.376,0.837,0.837V40.922z"/>
	</g>
</g>
</svg>
