<?xml version="1.0" encoding="utf-8"?>
<!-- Generator: Adobe Illustrator 16.0.0, SVG Export Plug-In . SVG Version: 6.00 Build 0)  -->
<!DOCTYPE svg PUBLIC "-//W3C//DTD SVG 1.1//EN" "http://www.w3.org/Graphics/SVG/1.1/DTD/svg11.dtd">
<svg version="1.1" id="Layer_1" xmlns="http://www.w3.org/2000/svg" xmlns:xlink="http://www.w3.org/1999/xlink" x="0px" y="0px"
	 width="136.833px" height="136.834px" viewBox="0 0 136.833 136.834" style="enable-background:new 0 0 136.833 136.834;"
	 xml:space="preserve">
<style type="text/css">
<![CDATA[
	.st0{fill-rule:evenodd;clip-rule:evenodd;fill:#08090B;}
	.st1{fill:#ABD9DF;}
	.st2{fill:#49A0AE;}
	.st3{fill:#ADA495;}
	.st4{fill:#AED1D5;}
	.st5{fill:#E1E0E0;}
	.st6{fill:#E1E2D4;}
	.st7{fill:#E4E1D3;}
	.st8{fill:#E4E4E4;}
	.st9{fill:#4ABC96;}
	.st10{fill:#E5DCD6;}
	.st11{fill:#E79E2D;}
	.st12{fill:#E7E0DC;}
	.st13{fill:#E7E4E2;}
	.st14{fill:#4D4C4C;}
	.st15{fill:#4D4D4D;}
	.st16{fill:#E84849;}
	.st17{fill:#E8C638;}
	.st18{fill:#B0DFE5;}
	.st19{fill:#B19353;}
	.st20{fill:#83725E;}
	.st21{fill:#B2B2B2;}
	.st22{fill:#83CECA;}
	.st23{fill:#B3932F;}
	.st24{fill:#1A7877;}
	.st25{fill:#868787;}
	.st26{fill:#87BCC0;}
	.st27{fill:#EB9682;}
	.st28{fill:#EBEDEF;}
	.st29{fill:#EBF3F6;}
	.st30{fill:#EDAC80;}
	.st31{fill:#1FA85B;}
	.st32{fill:#EFEAE9;}
	.st33{fill:#EFEDEC;}
	.st34{fill:#5399AA;}
	.st35{fill:#575757;}
	.st36{fill:#BAADAB;}
	.st37{fill:#BABEB5;}
	.st38{fill:#8BBEC0;}
	.st39{fill:#8BBEC3;}
	.st40{fill:#8CC3CC;}
	.st41{fill:#594E3C;}
	.st42{fill:#BDC0A7;}
	.st43{fill:#8FB5B6;}
	.st44{fill:#BF5537;}
	.st45{fill:#228080;}
	.st46{fill:#F1A977;}
	.st47{fill:#24986B;}
	.st48{opacity:0.5;fill:#FFFFFF;}
	.st49{fill:#F3F0ED;}
	.st50{fill:#F5B78C;}
	.st51{fill:#F5EE7D;}
	.st52{fill:#5B5B5B;}
	.st53{fill:#28898E;}
	.st54{fill:#5EACB4;}
	.st55{fill:#5F5E5E;}
	.st56{fill:#909090;}
	.st57{fill:#917C60;}
	.st58{fill:#C0B8AA;}
	.st59{fill:#C0C0C0;}
	.st60{fill:#C1AA9A;}
	.st61{fill:#C1D1B0;}
	.st62{fill:url(#SVGID_1_);}
	.st63{fill:url(#SVGID_2_);}
	.st64{fill:url(#SVGID_3_);}
	.st65{fill:url(#SVGID_4_);}
	.st66{fill:url(#SVGID_5_);}
	.st67{fill:#C2C099;}
	.st68{fill:#C3C3C3;}
	.st69{fill:#94C5C5;}
	.st70{fill:#958469;}
	.st71{fill:#95C3CC;}
	.st72{fill:#969595;}
	.st73{fill:#2C8484;}
	.st74{fill:#FBBF96;}
	.st75{fill:#98C7C8;}
	.st76{fill:#98C8D0;}
	.st77{fill:#99CA41;}
	.st78{fill:#C9C9C8;}
	.st79{fill:#FDD6B2;}
	.st80{opacity:0.7;}
	.st81{fill:#60C3B6;}
	.st82{fill:#616262;}
	.st83{fill:#FFFFFF;}
	.st84{fill:none;}
	.st85{fill:#9A856A;}
	.st86{fill:#9A8671;}
	.st87{fill:#676767;}
	.st88{fill:#67B8CB;}
	.st89{fill:#CADCBA;}
	.st90{fill:#CAE7DA;}
	.st91{fill:#CB774C;}
	.st92{fill:#9CD2D2;}
	.st93{fill:#CCC9B9;}
	.st94{fill:#9DC3C5;}
	.st95{fill:#CDC6C3;}
	.st96{fill:#CDCCCB;}
	.st97{fill:#CDCDCE;}
	.st98{fill:#9ECAD2;}
	.st99{fill:#30898E;}
	.st100{fill:#308A8E;}
	.st101{opacity:0.7;fill:#FFFFFF;}
	.st102{fill:#343433;}
	.st103{fill:#344E5D;}
	.st104{fill:#357180;}
	.st105{fill:#6A7872;}
	.st106{fill:#37848C;}
	.st107{fill:#37919B;}
	.st108{fill:#6C6C6B;}
	.st109{fill:#38A37C;}
	.st110{fill:#6CC077;}
	.st111{fill:#6D6868;}
	.st112{fill:#D0D1D1;}
	.st113{fill:#D0E3E5;}
	.st114{opacity:0.15;fill:#E3F3F7;}
	.st115{fill:#D4A160;}
	.st116{fill:#D4E1C4;}
	.st117{fill:#D5CEC9;}
	.st118{fill:#3B3838;}
	.st119{fill:#08090B;}
	.st120{fill:#3CB881;}
	.st121{fill:#D7B528;}
	.st122{fill:#D7D7D7;}
	.st123{fill:#3D4040;}
	.st124{fill:#D8D1CE;}
	.st125{fill:none;stroke:#75A9AB;stroke-linecap:round;stroke-linejoin:round;stroke-miterlimit:10;}
	.st126{fill:#A07238;}
	.st127{opacity:0.5;fill:#AED1D5;}
	.st128{fill:#A2D4DE;}
	.st129{fill:#74726A;}
	.st130{fill:#A69071;}
	.st131{fill:#776850;}
	.st132{fill:#A6CED1;}
	.st133{fill:#A78F7E;}
	.st134{fill:#787878;}
	.st135{fill:#DBD6D4;}
	.st136{fill:#DBDBDA;}
	.st137{fill:#DCB127;}
	.st138{fill:#DCD2CC;}
	.st139{fill:#DDD3CC;}
	.st140{fill:#DDDDDC;}
	.st141{fill:#418068;}
	.st142{fill:#41979F;}
]]>
</style>
<g>
	<g>
		<g>
			<circle class="st128" cx="68.417" cy="68.417" r="63.332"/>
		</g>
	</g>
	<g>
		<g>
			<g>
				<g>
					<linearGradient id="SVGID_1_" gradientUnits="userSpaceOnUse" x1="50.5127" y1="55.9375" x2="60.8682" y2="55.9375">
						<stop  offset="0" style="stop-color:#959397"/>
						<stop  offset="0.2344" style="stop-color:#A6A4AA"/>
						<stop  offset="0.7312" style="stop-color:#C4C2CC"/>
						<stop  offset="1" style="stop-color:#D0CED9"/>
					</linearGradient>
					<path class="st62" d="M60.868,59.153c0,0.32-0.26,0.246-0.58,0.246h-9.197c-0.32,0-0.578,0.074-0.578-0.246v-0.395l1.354-2.031
						l-0.025-3.682c0-0.32,0.258-0.578,0.578-0.578h6.543c0.318,0,0.578,0.258,0.578,0.578l-0.021,3.691l1.35,2.021V59.153z"/>
					<linearGradient id="SVGID_2_" gradientUnits="userSpaceOnUse" x1="55.6904" y1="52.1377" x2="55.6904" y2="59.0137">
						<stop  offset="0.1152" style="stop-color:#959397"/>
						<stop  offset="0.1422" style="stop-color:#99989B"/>
						<stop  offset="0.3725" style="stop-color:#BABAB7"/>
						<stop  offset="0.497" style="stop-color:#C6C7C2"/>
						<stop  offset="0.6242" style="stop-color:#78767C"/>
						<stop  offset="1" style="stop-color:#97969E"/>
					</linearGradient>
					<path class="st63" d="M60.868,58.759c0,0.32-0.26,0.248-0.58,0.248h-9.197c-0.32,0-0.578,0.072-0.578-0.248l1.354-2.365
						l-0.025-3.678c0-0.32,0.258-0.578,0.578-0.578h6.543c0.318,0,0.578,0.258,0.578,0.578l-0.021,3.691L60.868,58.759z"/>
				</g>
				<g>
					<g>
						<linearGradient id="SVGID_3_" gradientUnits="userSpaceOnUse" x1="37.4658" y1="40.9746" x2="73.9146" y2="40.9746">
							<stop  offset="0" style="stop-color:#959397"/>
							<stop  offset="0.2344" style="stop-color:#A6A4AA"/>
							<stop  offset="0.7312" style="stop-color:#C4C2CC"/>
							<stop  offset="1" style="stop-color:#D0CED9"/>
						</linearGradient>
						<path class="st64" d="M73.915,51.72c0,1.201-0.975,2.176-2.176,2.176H39.642c-1.201,0-2.176-0.975-2.176-2.176v-21.49
							c0-1.201,0.975-2.176,2.176-2.176h32.097c1.201,0,2.176,0.975,2.176,2.176V51.72z"/>
						<path class="st119" d="M73.915,49.104H37.466V30.229c0-1.201,0.975-2.176,2.176-2.176h32.097c1.201,0,2.176,0.975,2.176,2.176
							V49.104z"/>
						<rect x="39.03" y="29.517" class="st87" width="33.253" height="18.121"/>
						<rect x="39.03" y="29.483" class="st102" width="33.253" height="0.115"/>
					</g>
					<g>
						<path class="st0" d="M56.31,50.091c0.033,0.186-0.055,0.338-0.15,0.439c-0.082,0.088-0.193,0.158-0.346,0.148
							c-0.029-0.32,0.227-0.547,0.492-0.588C56.308,50.091,56.308,50.091,56.31,50.091z"/>
						<path class="st0" d="M56.778,50.954c-0.168,0.121-0.289,0.277-0.27,0.543c0.016,0.23,0.164,0.383,0.342,0.465
							c-0.043,0.121-0.09,0.227-0.15,0.324c-0.078,0.125-0.193,0.311-0.359,0.346c-0.193,0.039-0.313-0.109-0.521-0.094
							c-0.16,0.012-0.305,0.143-0.465,0.088c-0.078-0.025-0.16-0.109-0.213-0.172c-0.162-0.195-0.316-0.5-0.354-0.793
							c-0.035-0.25,0-0.469,0.102-0.637c0.105-0.174,0.303-0.34,0.566-0.311c0.064,0.008,0.131,0.033,0.189,0.055
							c0.051,0.02,0.119,0.059,0.182,0.057c0.061,0,0.137-0.041,0.195-0.061c0.066-0.025,0.139-0.051,0.213-0.059
							C56.501,50.681,56.663,50.813,56.778,50.954z"/>
					</g>
					<g>
						<defs>
							<path id="SVGID_6_" d="M73.915,51.72c0,1.201-0.975,2.176-2.176,2.176H39.642c-1.201,0-2.176-0.975-2.176-2.176v-21.49
								c0-1.201,0.975-2.176,2.176-2.176h32.097c1.201,0,2.176,0.975,2.176,2.176V51.72z"/>
						</defs>
						<clipPath id="SVGID_4_">
							<use xlink:href="#SVGID_6_"  style="overflow:visible;"/>
						</clipPath>
					</g>
				</g>
			</g>
		</g>
		<g>
			<rect x="76.686" y="58.298" class="st41" width="29.547" height="14.195"/>
			<circle class="st3" cx="91.292" cy="68.521" r="1.667"/>
			<path class="st131" d="M108.963,60.886c1.533,0,2.775,1.246,2.775,2.777v32.941c0,1.531-1.242,2.775-2.775,2.775l0,0
				c-1.531,0-2.773-1.244-2.773-2.775V63.663C106.19,62.132,107.432,60.886,108.963,60.886L108.963,60.886z"/>
			<path class="st131" d="M29.457,60.886c1.53,0,2.774,1.246,2.774,2.777v32.941c0,1.531-1.244,2.775-2.774,2.775l0,0
				c-1.533,0-2.775-1.244-2.775-2.775V63.663C26.682,62.132,27.924,60.886,29.457,60.886L29.457,60.886z"/>
			<path class="st131" d="M115.456,61.271c0,1.988-1.615,3.6-3.602,3.6h-85.79c-1.988,0-3.6-1.611-3.6-3.6l0,0
				c0-1.988,1.611-3.602,3.6-3.602h85.79C113.84,57.669,115.456,59.282,115.456,61.271L115.456,61.271z"/>
		</g>
		<g>
			<path class="st105" d="M105.549,57.122l-4.313-2.309c-0.059-0.076-0.152-0.123-0.25-0.125c-0.092-0.002-0.189,0.043-0.248,0.121
				l-4.535,2.336c-0.078,0.096-0.094,0.229-0.041,0.338c0.053,0.111,0.166,0.182,0.287,0.182h8.871h0.002
				c0.176,0,0.318-0.143,0.318-0.32C105.641,57.259,105.606,57.179,105.549,57.122z"/>
			<g>
				<path class="st105" d="M101.043,56.515c-0.322,0-0.584-0.26-0.584-0.584v-9.629c0.004-0.078,0.217-3.01-1.631-5.012
					c-1.184-1.281-2.969-1.932-5.311-1.932c-0.322,0-0.584-0.26-0.584-0.584c0-0.322,0.262-0.584,0.584-0.584
					c2.686,0,4.764,0.779,6.178,2.316c2.191,2.389,1.941,5.703,1.93,5.842l0.002,9.582
					C101.627,56.255,101.366,56.515,101.043,56.515z"/>
			</g>
			<g>
				<path class="st105" d="M101.043,46.276c-0.561,0-1.014,0.455-1.014,1.014v8.117c0.01,0.135,2.045,0.158,2.023-0.086l0.002-8.031
					C102.055,46.731,101.606,46.276,101.043,46.276z"/>
			</g>
			<circle class="st94" cx="101.032" cy="56.308" r="0.549"/>
			<circle class="st43" cx="101.032" cy="56.308" r="0.361"/>
			<circle class="st51" cx="89.098" cy="42.94" r="1.352"/>
			<g>
				<path class="st83" d="M92.653,45.831l0.846-7c0.012-0.096-0.021-0.191-0.092-0.262c-0.064-0.068-0.164-0.102-0.26-0.092
					l-7.166,0.809c-0.123,0.014-0.227,0.098-0.266,0.213c-0.041,0.117-0.012,0.244,0.078,0.332l6.314,6.227
					c0.002,0,0.002,0.002,0.002,0.002c0.127,0.125,0.326,0.121,0.451-0.002C92.622,45.993,92.653,45.913,92.653,45.831z"/>
				<circle class="st83" cx="93.299" cy="38.8" r="1.023"/>
			</g>
		</g>
	</g>
</g>
</svg>
