<?xml version="1.0" encoding="utf-8"?>
<!-- Generator: Adobe Illustrator 16.0.0, SVG Export Plug-In . SVG Version: 6.00 Build 0)  -->
<!DOCTYPE svg PUBLIC "-//W3C//DTD SVG 1.1//EN" "http://www.w3.org/Graphics/SVG/1.1/DTD/svg11.dtd">
<svg version="1.1" id="Layer_1" xmlns="http://www.w3.org/2000/svg" xmlns:xlink="http://www.w3.org/1999/xlink" x="0px" y="0px"
	 width="136.833px" height="136.834px" viewBox="0 0 136.833 136.834" style="enable-background:new 0 0 136.833 136.834;"
	 xml:space="preserve">
<style type="text/css">
<![CDATA[
	.st0{fill-rule:evenodd;clip-rule:evenodd;fill:#08090B;}
	.st1{fill:#ABD9DF;}
	.st2{fill:#49A0AE;}
	.st3{fill:#ADA495;}
	.st4{fill:#AED1D5;}
	.st5{fill:#E1E0E0;}
	.st6{fill:#E1E2D4;}
	.st7{fill:#E4E1D3;}
	.st8{fill:#E4E4E4;}
	.st9{fill:#4ABC96;}
	.st10{fill:#E5DCD6;}
	.st11{fill:#E79E2D;}
	.st12{fill:#E7E0DC;}
	.st13{fill:#E7E4E2;}
	.st14{fill:#4D4C4C;}
	.st15{fill:#4D4D4D;}
	.st16{fill:#E84849;}
	.st17{fill:#E8C638;}
	.st18{fill:#B0DFE5;}
	.st19{fill:#B19353;}
	.st20{fill:#83725E;}
	.st21{fill:#B2B2B2;}
	.st22{fill:#83CECA;}
	.st23{fill:#B3932F;}
	.st24{fill:#1A7877;}
	.st25{fill:#868787;}
	.st26{fill:#87BCC0;}
	.st27{fill:#EB9682;}
	.st28{fill:#EBEDEF;}
	.st29{fill:#EBF3F6;}
	.st30{fill:#EDAC80;}
	.st31{fill:#1FA85B;}
	.st32{fill:#EFEAE9;}
	.st33{fill:#EFEDEC;}
	.st34{fill:#5399AA;}
	.st35{fill:#575757;}
	.st36{fill:#BAADAB;}
	.st37{fill:#BABEB5;}
	.st38{fill:#8BBEC0;}
	.st39{fill:#8BBEC3;}
	.st40{fill:#8CC3CC;}
	.st41{fill:#594E3C;}
	.st42{fill:#BDC0A7;}
	.st43{fill:#8FB5B6;}
	.st44{fill:#BF5537;}
	.st45{fill:#228080;}
	.st46{fill:#F1A977;}
	.st47{fill:#24986B;}
	.st48{opacity:0.5;fill:#FFFFFF;}
	.st49{fill:#F3F0ED;}
	.st50{fill:#F5B78C;}
	.st51{fill:#F5EE7D;}
	.st52{fill:#5B5B5B;}
	.st53{fill:#28898E;}
	.st54{fill:#5EACB4;}
	.st55{fill:#5F5E5E;}
	.st56{fill:#909090;}
	.st57{fill:#917C60;}
	.st58{fill:#C0B8AA;}
	.st59{fill:#C0C0C0;}
	.st60{fill:#C1AA9A;}
	.st61{fill:#C1D1B0;}
	.st62{fill:url(#SVGID_1_);}
	.st63{fill:url(#SVGID_2_);}
	.st64{fill:url(#SVGID_3_);}
	.st65{fill:url(#SVGID_4_);}
	.st66{fill:url(#SVGID_5_);}
	.st67{fill:#C2C099;}
	.st68{fill:#C3C3C3;}
	.st69{fill:#94C5C5;}
	.st70{fill:#958469;}
	.st71{fill:#95C3CC;}
	.st72{fill:#969595;}
	.st73{fill:#2C8484;}
	.st74{fill:#FBBF96;}
	.st75{fill:#98C7C8;}
	.st76{fill:#98C8D0;}
	.st77{fill:#99CA41;}
	.st78{fill:#C9C9C8;}
	.st79{fill:#FDD6B2;}
	.st80{opacity:0.7;}
	.st81{fill:#60C3B6;}
	.st82{fill:#616262;}
	.st83{fill:#FFFFFF;}
	.st84{fill:none;}
	.st85{fill:#9A856A;}
	.st86{fill:#9A8671;}
	.st87{fill:#676767;}
	.st88{fill:#67B8CB;}
	.st89{fill:#CADCBA;}
	.st90{fill:#CAE7DA;}
	.st91{fill:#CB774C;}
	.st92{fill:#9CD2D2;}
	.st93{fill:#CCC9B9;}
	.st94{fill:#9DC3C5;}
	.st95{fill:#CDC6C3;}
	.st96{fill:#CDCCCB;}
	.st97{fill:#CDCDCE;}
	.st98{fill:#9ECAD2;}
	.st99{fill:#30898E;}
	.st100{fill:#308A8E;}
	.st101{opacity:0.7;fill:#FFFFFF;}
	.st102{fill:#343433;}
	.st103{fill:#344E5D;}
	.st104{fill:#357180;}
	.st105{fill:#6A7872;}
	.st106{fill:#37848C;}
	.st107{fill:#37919B;}
	.st108{fill:#6C6C6B;}
	.st109{fill:#38A37C;}
	.st110{fill:#6CC077;}
	.st111{fill:#6D6868;}
	.st112{fill:#D0D1D1;}
	.st113{fill:#D0E3E5;}
	.st114{opacity:0.15;fill:#E3F3F7;}
	.st115{fill:#D4A160;}
	.st116{fill:#D4E1C4;}
	.st117{fill:#D5CEC9;}
	.st118{fill:#3B3838;}
	.st119{fill:#08090B;}
	.st120{fill:#3CB881;}
	.st121{fill:#D7B528;}
	.st122{fill:#D7D7D7;}
	.st123{fill:#3D4040;}
	.st124{fill:#D8D1CE;}
	.st125{fill:none;stroke:#75A9AB;stroke-linecap:round;stroke-linejoin:round;stroke-miterlimit:10;}
	.st126{fill:#A07238;}
	.st127{opacity:0.5;fill:#AED1D5;}
	.st128{fill:#A2D4DE;}
	.st129{fill:#74726A;}
	.st130{fill:#A69071;}
	.st131{fill:#776850;}
	.st132{fill:#A6CED1;}
	.st133{fill:#A78F7E;}
	.st134{fill:#787878;}
	.st135{fill:#DBD6D4;}
	.st136{fill:#DBDBDA;}
	.st137{fill:#DCB127;}
	.st138{fill:#DCD2CC;}
	.st139{fill:#DDD3CC;}
	.st140{fill:#DDDDDC;}
	.st141{fill:#418068;}
	.st142{fill:#41979F;}
]]>
</style>
<g>
	<g>
		<g>
			<circle class="st128" cx="68.417" cy="68.417" r="63.333"/>
		</g>
	</g>
	<g>
		<path class="st110" d="M126.693,43.588l-12.602-12.603c0,0-8.405-9.798-15.435-10.196c-7.026-0.398-14.599,9.361-14.599,9.361
			L72.484,41.726l-1.872-1.874c0,0-6.833-7.97-12.558-8.294c-5.721-0.325-11.879,7.616-11.879,7.616l-6.15,6.15
			c-0.977-1.092-6.105-6.592-10.504-6.843c-4.875-0.275-10.131,6.497-10.131,6.497L5.861,58.506
			c-0.508,3.229-0.777,6.538-0.777,9.91c0,10.303,2.477,20.021,6.841,28.62l112.983,0.002c4.365-8.6,6.842-18.318,6.842-28.622
			C131.75,59.603,129.946,51.212,126.693,43.588z"/>
	</g>
	<g>
		<path class="st67" d="M68.417,131.75c30.372,0,55.739-21.386,61.896-49.918c-10.999-2.228-33.8-5.962-63.106-5.962
			c-30.569,0-51.561,4.063-60.62,6.24C12.847,110.503,38.143,131.75,68.417,131.75z"/>
	</g>
	<g>
		<g>
			<path class="st1" d="M75.936,58.255H22.457c-0.587,0-1.063,0.475-1.063,1.061V94.96c0,0.586,0.477,1.063,1.063,1.063h53.479
				V58.255z"/>
			<path class="st18" d="M75.869,63.867v32.156h39.68c0.5,0,0.904-0.406,0.904-0.904V63.867H75.869z"/>
			<path class="st104" d="M118.418,59.978c-0.031-0.318-0.211-0.597-0.466-0.77L79.173,59.23c-0.008-0.006-0.012-0.016-0.012-0.016
				L65.799,47.9v-7.832c0-0.588-0.476-1.063-1.063-1.063h-5.042c-0.588,0-1.064,0.475-1.064,1.063v1.764l-10.026-8.49
				c-0.405-0.343-0.999-0.336-1.395,0.02L18.167,59.242c-0.041,0.033-0.08,0.068-0.115,0.105c-0.241,0.238-0.347,0.577-0.297,0.906
				v2.516c0,0.588,0.479,1.064,1.064,1.064h98.539c0.588,0,1.064-0.477,1.064-1.064C118.423,62.769,118.427,60.042,118.418,59.978z"
				/>
		</g>
		<g>
			<path class="st26" d="M112.595,73.109H79.889c-0.366,0-0.662,0.297-0.662,0.662v22.225h34.03V73.771
				C113.257,73.406,112.96,73.109,112.595,73.109z"/>
			<g>
				<line class="st125" x1="82.097" y1="92.834" x2="110.039" y2="92.834"/>
				<line class="st125" x1="82.097" y1="88.963" x2="110.039" y2="88.963"/>
				<line class="st125" x1="82.097" y1="85.137" x2="110.039" y2="85.137"/>
				<line class="st125" x1="82.097" y1="81.311" x2="110.039" y2="81.311"/>
				<line class="st125" x1="82.097" y1="77.574" x2="110.039" y2="77.574"/>
			</g>
		</g>
		<g>
			<path class="st14" d="M43.777,81.642c0-0.605,0.491-1.098,1.099-1.098h6.773c0.607,0,1.099,0.492,1.099,1.098v14.373h-8.971
				V81.642z"/>
			<circle class="st96" cx="45.179" cy="88.32" r="0.556"/>
		</g>
		<path class="st26" d="M67.611,80.526h-6.799h-0.638c-0.604,0-1.097,0.49-1.097,1.099v6.773c0,0.606,0.492,1.1,1.097,1.1h0.638
			h6.799c0.604,0,1.096-0.491,1.096-1.1v-6.773C68.707,81.018,68.214,80.526,67.611,80.526z"/>
		<path class="st26" d="M67.611,67.859h-6.799h-0.638c-0.604,0-1.097,0.49-1.097,1.099v6.773c0,0.606,0.492,1.099,1.097,1.099h0.638
			h6.799c0.604,0,1.096-0.49,1.096-1.099v-6.773C68.707,68.351,68.214,67.859,67.611,67.859z"/>
		<path class="st26" d="M36.611,80.526h-6.799h-0.638c-0.604,0-1.097,0.49-1.097,1.099v6.773c0,0.606,0.492,1.1,1.097,1.1h0.638
			h6.799c0.604,0,1.096-0.491,1.096-1.1v-6.773C37.707,81.018,37.214,80.526,36.611,80.526z"/>
		<path class="st26" d="M36.611,67.859h-6.799h-0.638c-0.604,0-1.097,0.49-1.097,1.099v6.773c0,0.606,0.492,1.099,1.097,1.099h0.638
			h6.799c0.604,0,1.096-0.49,1.096-1.099v-6.773C37.707,68.351,37.214,67.859,36.611,67.859z"/>
		<path class="st26" d="M52.111,67.859h-6.799h-0.638c-0.604,0-1.097,0.49-1.097,1.099v6.773c0,0.606,0.492,1.099,1.097,1.099h0.638
			h6.799c0.604,0,1.096-0.49,1.096-1.099v-6.773C53.207,68.351,52.714,67.859,52.111,67.859z"/>
	</g>
</g>
</svg>
