<?xml version="1.0" encoding="utf-8"?>
<!-- Generator: Adobe Illustrator 16.0.0, SVG Export Plug-In . SVG Version: 6.00 Build 0)  -->
<!DOCTYPE svg PUBLIC "-//W3C//DTD SVG 1.1//EN" "http://www.w3.org/Graphics/SVG/1.1/DTD/svg11.dtd">
<svg version="1.1" id="Layer_1" xmlns="http://www.w3.org/2000/svg" xmlns:xlink="http://www.w3.org/1999/xlink" x="0px" y="0px"
	 width="136.833px" height="136.833px" viewBox="0 0 136.833 136.833" style="enable-background:new 0 0 136.833 136.833;"
	 xml:space="preserve">
<style type="text/css">
<![CDATA[
	.st0{fill-rule:evenodd;clip-rule:evenodd;fill:#08090B;}
	.st1{fill:#ABD9DF;}
	.st2{fill:#49A0AE;}
	.st3{fill:#ADA495;}
	.st4{fill:#AED1D5;}
	.st5{fill:#E1E0E0;}
	.st6{fill:#E1E2D4;}
	.st7{fill:#E4E1D3;}
	.st8{fill:#E4E4E4;}
	.st9{fill:#4ABC96;}
	.st10{fill:#E5DCD6;}
	.st11{fill:#E79E2D;}
	.st12{fill:#E7E0DC;}
	.st13{fill:#E7E4E2;}
	.st14{fill:#4D4C4C;}
	.st15{fill:#4D4D4D;}
	.st16{fill:#E84849;}
	.st17{fill:#E8C638;}
	.st18{fill:#B0DFE5;}
	.st19{fill:#B19353;}
	.st20{fill:#83725E;}
	.st21{fill:#B2B2B2;}
	.st22{fill:#83CECA;}
	.st23{fill:#B3932F;}
	.st24{fill:#1A7877;}
	.st25{fill:#868787;}
	.st26{fill:#87BCC0;}
	.st27{fill:#EB9682;}
	.st28{fill:#EBEDEF;}
	.st29{fill:#EBF3F6;}
	.st30{fill:#EDAC80;}
	.st31{fill:#1FA85B;}
	.st32{fill:#EFEAE9;}
	.st33{fill:#EFEDEC;}
	.st34{fill:#5399AA;}
	.st35{fill:#575757;}
	.st36{fill:#BAADAB;}
	.st37{fill:#BABEB5;}
	.st38{fill:#8BBEC0;}
	.st39{fill:#8BBEC3;}
	.st40{fill:#8CC3CC;}
	.st41{fill:#594E3C;}
	.st42{fill:#BDC0A7;}
	.st43{fill:#8FB5B6;}
	.st44{fill:#BF5537;}
	.st45{fill:#228080;}
	.st46{fill:#F1A977;}
	.st47{fill:#24986B;}
	.st48{opacity:0.5;fill:#FFFFFF;}
	.st49{fill:#F3F0ED;}
	.st50{fill:#F5B78C;}
	.st51{fill:#F5EE7D;}
	.st52{fill:#5B5B5B;}
	.st53{fill:#28898E;}
	.st54{fill:#5EACB4;}
	.st55{fill:#5F5E5E;}
	.st56{fill:#909090;}
	.st57{fill:#917C60;}
	.st58{fill:#C0B8AA;}
	.st59{fill:#C0C0C0;}
	.st60{fill:#C1AA9A;}
	.st61{fill:#C1D1B0;}
	.st62{fill:url(#SVGID_1_);}
	.st63{fill:url(#SVGID_2_);}
	.st64{fill:url(#SVGID_3_);}
	.st65{fill:url(#SVGID_4_);}
	.st66{fill:url(#SVGID_5_);}
	.st67{fill:#C2C099;}
	.st68{fill:#C3C3C3;}
	.st69{fill:#94C5C5;}
	.st70{fill:#958469;}
	.st71{fill:#95C3CC;}
	.st72{fill:#969595;}
	.st73{fill:#2C8484;}
	.st74{fill:#FBBF96;}
	.st75{fill:#98C7C8;}
	.st76{fill:#98C8D0;}
	.st77{fill:#99CA41;}
	.st78{fill:#C9C9C8;}
	.st79{fill:#FDD6B2;}
	.st80{opacity:0.7;}
	.st81{fill:#60C3B6;}
	.st82{fill:#616262;}
	.st83{fill:#FFFFFF;}
	.st84{fill:none;}
	.st85{fill:#9A856A;}
	.st86{fill:#9A8671;}
	.st87{fill:#676767;}
	.st88{fill:#67B8CB;}
	.st89{fill:#CADCBA;}
	.st90{fill:#CAE7DA;}
	.st91{fill:#CB774C;}
	.st92{fill:#9CD2D2;}
	.st93{fill:#CCC9B9;}
	.st94{fill:#9DC3C5;}
	.st95{fill:#CDC6C3;}
	.st96{fill:#CDCCCB;}
	.st97{fill:#CDCDCE;}
	.st98{fill:#9ECAD2;}
	.st99{fill:#30898E;}
	.st100{fill:#308A8E;}
	.st101{opacity:0.7;fill:#FFFFFF;}
	.st102{fill:#343433;}
	.st103{fill:#344E5D;}
	.st104{fill:#357180;}
	.st105{fill:#6A7872;}
	.st106{fill:#37848C;}
	.st107{fill:#37919B;}
	.st108{fill:#6C6C6B;}
	.st109{fill:#38A37C;}
	.st110{fill:#6CC077;}
	.st111{fill:#6D6868;}
	.st112{fill:#D0D1D1;}
	.st113{fill:#D0E3E5;}
	.st114{opacity:0.15;fill:#E3F3F7;}
	.st115{fill:#D4A160;}
	.st116{fill:#D4E1C4;}
	.st117{fill:#D5CEC9;}
	.st118{fill:#3B3838;}
	.st119{fill:#08090B;}
	.st120{fill:#3CB881;}
	.st121{fill:#D7B528;}
	.st122{fill:#D7D7D7;}
	.st123{fill:#3D4040;}
	.st124{fill:#D8D1CE;}
	.st125{fill:none;stroke:#75A9AB;stroke-linecap:round;stroke-linejoin:round;stroke-miterlimit:10;}
	.st126{fill:#A07238;}
	.st127{opacity:0.5;fill:#AED1D5;}
	.st128{fill:#A2D4DE;}
	.st129{fill:#74726A;}
	.st130{fill:#A69071;}
	.st131{fill:#776850;}
	.st132{fill:#A6CED1;}
	.st133{fill:#A78F7E;}
	.st134{fill:#787878;}
	.st135{fill:#DBD6D4;}
	.st136{fill:#DBDBDA;}
	.st137{fill:#DCB127;}
	.st138{fill:#DCD2CC;}
	.st139{fill:#DDD3CC;}
	.st140{fill:#DDDDDC;}
	.st141{fill:#418068;}
	.st142{fill:#41979F;}
]]>
</style>
<g>
	<g>
		<circle class="st2" cx="68.417" cy="68.417" r="63.333"/>
	</g>
	<g>
		<g>
			<path class="st7" d="M98.969,67.017H39.863c-0.66,0-1.197,0.537-1.197,1.197v40.162c0,0.662,0.537,1.197,1.197,1.197h59.105
				c0.662,0,1.197-0.535,1.197-1.197V68.214C100.166,67.554,99.631,67.017,98.969,67.017z"/>
			<path class="st32" d="M104.273,68.959c-0.035-0.358-0.238-0.671-0.523-0.867L69.326,38.947c-0.457-0.387-1.127-0.379-1.572,0.021
				L35.031,68.13c-0.047,0.037-0.09,0.077-0.131,0.119c-0.271,0.27-0.389,0.65-0.332,1.021v2.834c0,0.662,0.535,1.199,1.197,1.199
				h67.314c0.662,0,1.199-0.537,1.199-1.199v-2.924C104.283,69.107,104.281,69.033,104.273,68.959z"/>
		</g>
		<path class="st32" d="M76.375,39.791l-5.092-8.197c-0.098-0.161-0.273-0.258-0.463-0.258h-0.383v-8.076h5.316
			c0.301,0,0.545-0.243,0.545-0.545v-3.271c0-0.302-0.244-0.546-0.545-0.546h-5.316v-5.314c0-0.302-0.244-0.545-0.545-0.545h-3.271
			c-0.301,0-0.545,0.243-0.545,0.545v5.314H60.76c-0.301,0-0.545,0.244-0.545,0.546v3.271c0,0.302,0.244,0.545,0.545,0.545h5.316
			v8.076H65.74c-0.189,0-0.365,0.097-0.463,0.258l-5.092,8.197c-0.053,0.086-0.082,0.186-0.082,0.287v21.289
			c0,0.302,0.244,0.547,0.545,0.547h15.264c0.301,0,0.545-0.245,0.545-0.547V40.078C76.457,39.976,76.428,39.876,76.375,39.791z"/>
		<g>
			<path class="st93" d="M63.6,95.632c0-0.785,5.861-6.167,5.861-6.167s5.775,5.382,5.775,6.167v13.902H63.6V95.632z"/>
		</g>
		<g>
			<path class="st14" d="M64.6,98.023c0-0.65,2.301-2.391,4.854-2.391s4.783,1.74,4.783,2.391v11.514H64.6V98.023z"/>
		</g>
		<g>
			<path class="st118" d="M64.6,98.023c0-0.65,2.301-2.391,4.854-2.391v13.904H64.6V98.023z"/>
		</g>
		<g>
			<path class="st75" d="M93.26,79.869c-1.508,0-2.729,1.222-2.729,2.73v18.758h5.461V82.599
				C95.992,81.09,94.768,79.869,93.26,79.869z"/>
			<path class="st92" d="M93.26,79.869l0.002,21.488h2.73V82.599C95.992,81.09,94.768,79.869,93.26,79.869z"/>
		</g>
		<g>
			<path class="st75" d="M82.721,79.869c-1.508,0-2.73,1.222-2.73,2.73v18.758h5.463V82.599
				C85.453,81.09,84.229,79.869,82.721,79.869z"/>
			<path class="st92" d="M82.721,79.869l0.002,21.488h2.73V82.599C85.453,81.09,84.229,79.869,82.721,79.869z"/>
		</g>
		<g>
			<path class="st75" d="M56.426,79.869c-1.508,0-2.729,1.222-2.729,2.73v18.758h5.461V82.599
				C59.158,81.09,57.934,79.869,56.426,79.869z"/>
			<path class="st92" d="M56.426,79.869l0.002,21.488h2.73V82.599C59.158,81.09,57.934,79.869,56.426,79.869z"/>
		</g>
		<g>
			<path class="st75" d="M45.887,79.869c-1.508,0-2.73,1.222-2.73,2.73v18.758h5.463V82.599
				C48.619,81.09,47.395,79.869,45.887,79.869z"/>
			<path class="st92" d="M45.887,79.869l0.002,21.488h2.73V82.599C48.619,81.09,47.395,79.869,45.887,79.869z"/>
		</g>
	</g>
</g>
</svg>
