<?xml version="1.0" encoding="utf-8"?>
<!-- Generator: Adobe Illustrator 16.0.0, SVG Export Plug-In . SVG Version: 6.00 Build 0)  -->
<!DOCTYPE svg PUBLIC "-//W3C//DTD SVG 1.1//EN" "http://www.w3.org/Graphics/SVG/1.1/DTD/svg11.dtd">
<svg version="1.1" id="Layer_1" xmlns="http://www.w3.org/2000/svg" xmlns:xlink="http://www.w3.org/1999/xlink" x="0px" y="0px"
	 width="136.833px" height="136.834px" viewBox="0 0 136.833 136.834" style="enable-background:new 0 0 136.833 136.834;"
	 xml:space="preserve">
<style type="text/css">
<![CDATA[
	.st0{fill-rule:evenodd;clip-rule:evenodd;fill:#08090B;}
	.st1{fill:#ABD9DF;}
	.st2{fill:#49A0AE;}
	.st3{fill:#ADA495;}
	.st4{fill:#AED1D5;}
	.st5{fill:#E1E0E0;}
	.st6{fill:#E1E2D4;}
	.st7{fill:#E4E1D3;}
	.st8{fill:#E4E4E4;}
	.st9{fill:#4ABC96;}
	.st10{fill:#E5DCD6;}
	.st11{fill:#E79E2D;}
	.st12{fill:#E7E0DC;}
	.st13{fill:#E7E4E2;}
	.st14{fill:#4D4C4C;}
	.st15{fill:#4D4D4D;}
	.st16{fill:#E84849;}
	.st17{fill:#E8C638;}
	.st18{fill:#B0DFE5;}
	.st19{fill:#B19353;}
	.st20{fill:#83725E;}
	.st21{fill:#B2B2B2;}
	.st22{fill:#83CECA;}
	.st23{fill:#B3932F;}
	.st24{fill:#1A7877;}
	.st25{fill:#868787;}
	.st26{fill:#87BCC0;}
	.st27{fill:#EB9682;}
	.st28{fill:#EBEDEF;}
	.st29{fill:#EBF3F6;}
	.st30{fill:#EDAC80;}
	.st31{fill:#1FA85B;}
	.st32{fill:#EFEAE9;}
	.st33{fill:#EFEDEC;}
	.st34{fill:#5399AA;}
	.st35{fill:#575757;}
	.st36{fill:#BAADAB;}
	.st37{fill:#BABEB5;}
	.st38{fill:#8BBEC0;}
	.st39{fill:#8BBEC3;}
	.st40{fill:#8CC3CC;}
	.st41{fill:#594E3C;}
	.st42{fill:#BDC0A7;}
	.st43{fill:#8FB5B6;}
	.st44{fill:#BF5537;}
	.st45{fill:#228080;}
	.st46{fill:#F1A977;}
	.st47{fill:#24986B;}
	.st48{opacity:0.5;fill:#FFFFFF;}
	.st49{fill:#F3F0ED;}
	.st50{fill:#F5B78C;}
	.st51{fill:#F5EE7D;}
	.st52{fill:#5B5B5B;}
	.st53{fill:#28898E;}
	.st54{fill:#5EACB4;}
	.st55{fill:#5F5E5E;}
	.st56{fill:#909090;}
	.st57{fill:#917C60;}
	.st58{fill:#C0B8AA;}
	.st59{fill:#C0C0C0;}
	.st60{fill:#C1AA9A;}
	.st61{fill:#C1D1B0;}
	.st62{fill:url(#SVGID_1_);}
	.st63{fill:url(#SVGID_2_);}
	.st64{fill:url(#SVGID_3_);}
	.st65{fill:url(#SVGID_4_);}
	.st66{fill:url(#SVGID_5_);}
	.st67{fill:#C2C099;}
	.st68{fill:#C3C3C3;}
	.st69{fill:#94C5C5;}
	.st70{fill:#958469;}
	.st71{fill:#95C3CC;}
	.st72{fill:#969595;}
	.st73{fill:#2C8484;}
	.st74{fill:#FBBF96;}
	.st75{fill:#98C7C8;}
	.st76{fill:#98C8D0;}
	.st77{fill:#99CA41;}
	.st78{fill:#C9C9C8;}
	.st79{fill:#FDD6B2;}
	.st80{opacity:0.7;}
	.st81{fill:#60C3B6;}
	.st82{fill:#616262;}
	.st83{fill:#FFFFFF;}
	.st84{fill:none;}
	.st85{fill:#9A856A;}
	.st86{fill:#9A8671;}
	.st87{fill:#676767;}
	.st88{fill:#67B8CB;}
	.st89{fill:#CADCBA;}
	.st90{fill:#CAE7DA;}
	.st91{fill:#CB774C;}
	.st92{fill:#9CD2D2;}
	.st93{fill:#CCC9B9;}
	.st94{fill:#9DC3C5;}
	.st95{fill:#CDC6C3;}
	.st96{fill:#CDCCCB;}
	.st97{fill:#CDCDCE;}
	.st98{fill:#9ECAD2;}
	.st99{fill:#30898E;}
	.st100{fill:#308A8E;}
	.st101{opacity:0.7;fill:#FFFFFF;}
	.st102{fill:#343433;}
	.st103{fill:#344E5D;}
	.st104{fill:#357180;}
	.st105{fill:#6A7872;}
	.st106{fill:#37848C;}
	.st107{fill:#37919B;}
	.st108{fill:#6C6C6B;}
	.st109{fill:#38A37C;}
	.st110{fill:#6CC077;}
	.st111{fill:#6D6868;}
	.st112{fill:#D0D1D1;}
	.st113{fill:#D0E3E5;}
	.st114{opacity:0.15;fill:#E3F3F7;}
	.st115{fill:#D4A160;}
	.st116{fill:#D4E1C4;}
	.st117{fill:#D5CEC9;}
	.st118{fill:#3B3838;}
	.st119{fill:#08090B;}
	.st120{fill:#3CB881;}
	.st121{fill:#D7B528;}
	.st122{fill:#D7D7D7;}
	.st123{fill:#3D4040;}
	.st124{fill:#D8D1CE;}
	.st125{fill:none;stroke:#75A9AB;stroke-linecap:round;stroke-linejoin:round;stroke-miterlimit:10;}
	.st126{fill:#A07238;}
	.st127{opacity:0.5;fill:#AED1D5;}
	.st128{fill:#A2D4DE;}
	.st129{fill:#74726A;}
	.st130{fill:#A69071;}
	.st131{fill:#776850;}
	.st132{fill:#A6CED1;}
	.st133{fill:#A78F7E;}
	.st134{fill:#787878;}
	.st135{fill:#DBD6D4;}
	.st136{fill:#DBDBDA;}
	.st137{fill:#DCB127;}
	.st138{fill:#DCD2CC;}
	.st139{fill:#DDD3CC;}
	.st140{fill:#DDDDDC;}
	.st141{fill:#418068;}
	.st142{fill:#41979F;}
]]>
</style>
<g>
	<g>
		<g>
			<circle class="st2" cx="68.417" cy="68.417" r="63.333"/>
		</g>
	</g>
	<g>
		<g>
			<g>
				<g>
					<path class="st138" d="M103.227,106.487c-0.021,0-0.041,0-0.063-0.002c-0.305-0.019-3.012-0.219-4.539-1.365
						c-1.514-1.136-2.547-3.646-2.66-3.929c-0.205-0.513,0.045-1.094,0.557-1.299c0.51-0.203,1.094,0.043,1.301,0.556
						c0.25,0.625,1.098,2.394,2.002,3.072c0.893,0.669,2.805,0.926,3.465,0.969c0.551,0.035,0.969,0.511,0.934,1.062
						C104.189,106.08,103.75,106.487,103.227,106.487z"/>
				</g>
				<g>
					<path class="st138" d="M31.891,106.487c-0.523,0-0.963-0.407-0.996-0.937c-0.035-0.551,0.383-1.026,0.934-1.062
						c0.662-0.043,2.572-0.3,3.465-0.969c0.904-0.679,1.754-2.447,2.004-3.072c0.205-0.513,0.787-0.759,1.301-0.556
						c0.512,0.205,0.762,0.786,0.557,1.299c-0.113,0.282-1.146,2.793-2.662,3.929c-1.527,1.146-4.234,1.347-4.537,1.365
						C31.934,106.487,31.912,106.487,31.891,106.487z"/>
				</g>
				<path class="st10" d="M100.002,101.489H35.115c-7.168,0-12.557-26.336-12.557-26.336h90.002
					C112.561,75.153,107.17,101.487,100.002,101.489z"/>
				<path class="st139" d="M112.191,71.95H23.094c-1.768,0-2.41,0.874-2.41,1.953c0,1.076,0.643,1.95,2.41,1.95h89.098
					c1.768,0,2.408-0.874,2.408-1.95C114.6,72.824,113.959,71.95,112.191,71.95z"/>
			</g>
			<g>
				<g>
					<path class="st10" d="M107.6,74.528c-0.828,0-1.5-0.672-1.5-1.5v-43c0-0.05,0.004-0.1,0.008-0.149
						c0.021-0.368-0.031-2.362-3.475-2.866c-0.82-0.12-1.387-0.882-1.268-1.701c0.121-0.819,0.891-1.382,1.701-1.268
						c5.096,0.746,6.172,4.234,6.033,6.049v42.936C109.1,73.856,108.428,74.528,107.6,74.528z"/>
				</g>
				<path class="st10" d="M101.996,32.885l1.58-7.987c0.119-0.598-0.27-0.987-0.869-0.868l-7.988,1.583
					c-0.596,0.118-1.178,0.698-1.297,1.297l7.275,7.274C101.295,34.067,101.877,33.485,101.996,32.885z"/>
				<path class="st117" d="M101.996,32.885l-7.277-7.272c-0.596,0.118-1.178,0.698-1.297,1.297l7.275,7.274
					C101.295,34.067,101.877,33.485,101.996,32.885z"/>
			</g>
		</g>
		<g>
			<g>
				<path class="st128" d="M75.016,61.439c0,0-2.213,0.178-3.498,1.404c-0.561,0.534-0.582,1.42-0.047,1.98
					c0.533,0.56,1.42,0.581,1.98,0.047C74.074,64.278,75.016,61.439,75.016,61.439z"/>
				<path class="st40" d="M73.438,64.449c-0.008,0.337-0.666,0.604-1.002,0.595c-0.338-0.008-0.9-0.27-0.891-0.605
					C71.553,64.101,73.445,64.113,73.438,64.449z"/>
			</g>
			<g>
				<path class="st128" d="M67.168,61.613c0,0-2.213,0.177-3.5,1.404c-0.559,0.535-0.58,1.421-0.047,1.981
					c0.533,0.558,1.422,0.579,1.98,0.046C66.225,64.45,67.168,61.613,67.168,61.613z"/>
				<path class="st40" d="M65.59,64.623c-0.01,0.336-0.668,0.604-1.004,0.594c-0.336-0.006-0.898-0.268-0.889-0.604
					C63.703,64.275,65.598,64.286,65.59,64.623z"/>
			</g>
			<g>
				<path class="st128" d="M90.842,61.439c0,0-2.215,0.178-3.5,1.404c-0.561,0.534-0.582,1.42-0.047,1.98
					c0.533,0.56,1.42,0.581,1.98,0.047C89.898,64.278,90.842,61.439,90.842,61.439z"/>
				<path class="st40" d="M89.262,64.449c-0.008,0.337-0.666,0.604-1.002,0.595c-0.338-0.008-0.9-0.27-0.891-0.605
					C87.377,64.101,89.27,64.113,89.262,64.449z"/>
			</g>
			<g>
				<path class="st128" d="M82.668,61.613c0,0-2.213,0.177-3.5,1.404c-0.561,0.535-0.58,1.421-0.049,1.981
					c0.535,0.558,1.424,0.579,1.982,0.046C81.725,64.45,82.668,61.613,82.668,61.613z"/>
				<path class="st40" d="M81.09,64.623c-0.01,0.336-0.668,0.604-1.004,0.594c-0.336-0.006-0.898-0.268-0.891-0.604
					C79.203,64.275,81.096,64.286,81.09,64.623z"/>
			</g>
			<g>
				<path class="st128" d="M74.594,53.677c0,0-2.215,0.176-3.5,1.404c-0.561,0.533-0.582,1.419-0.047,1.979
					c0.533,0.56,1.422,0.58,1.982,0.046C73.65,56.513,74.594,53.677,74.594,53.677z"/>
				<path class="st40" d="M73.014,56.685c-0.008,0.338-0.666,0.604-1.002,0.596s-0.898-0.27-0.891-0.605
					C71.129,56.337,73.021,56.349,73.014,56.685z"/>
			</g>
			<g>
				<path class="st128" d="M66.871,53.85c0,0-2.213,0.178-3.5,1.404c-0.561,0.534-0.58,1.421-0.049,1.982
					c0.535,0.557,1.424,0.577,1.982,0.045C65.928,56.687,66.871,53.85,66.871,53.85z"/>
				<path class="st40" d="M65.293,56.86c-0.01,0.336-0.668,0.604-1.004,0.595c-0.336-0.008-0.898-0.27-0.889-0.605
					C63.406,56.512,65.299,56.523,65.293,56.86z"/>
			</g>
			<g>
				<path class="st128" d="M91.139,53.677c0,0-2.213,0.176-3.5,1.404c-0.561,0.533-0.58,1.419-0.047,1.979
					c0.535,0.56,1.422,0.58,1.982,0.046C90.195,56.513,91.139,53.677,91.139,53.677z"/>
				<path class="st40" d="M89.561,56.685c-0.01,0.338-0.666,0.604-1.004,0.596c-0.336-0.008-0.898-0.27-0.889-0.605
					C87.674,56.337,89.566,56.349,89.561,56.685z"/>
			</g>
			<g>
				<path class="st128" d="M81.902,53.85c0,0-2.215,0.178-3.502,1.404c-0.559,0.534-0.58,1.421-0.047,1.982
					c0.535,0.557,1.422,0.577,1.98,0.045C80.957,56.687,81.902,53.85,81.902,53.85z"/>
				<path class="st40" d="M80.322,56.86c-0.01,0.336-0.666,0.604-1.002,0.595c-0.338-0.008-0.9-0.27-0.891-0.605
					C78.438,56.512,80.33,56.523,80.322,56.86z"/>
			</g>
			<g>
				<path class="st128" d="M80.688,46.362c0,0-2.215,0.175-3.5,1.403c-0.561,0.533-0.582,1.419-0.047,1.979
					c0.533,0.56,1.42,0.58,1.98,0.046C79.744,49.197,80.688,46.362,80.688,46.362z"/>
				<path class="st40" d="M79.107,49.369c-0.008,0.338-0.666,0.604-1.002,0.596c-0.338-0.008-0.9-0.269-0.891-0.605
					C77.223,49.021,79.115,49.033,79.107,49.369z"/>
			</g>
			<g>
				<path class="st128" d="M73.303,46.533c0,0-2.213,0.178-3.5,1.405c-0.559,0.534-0.58,1.421-0.047,1.981
					c0.533,0.558,1.422,0.578,1.98,0.046C72.359,49.371,73.303,46.533,73.303,46.533z"/>
				<path class="st40" d="M71.725,49.543c-0.01,0.336-0.668,0.604-1.004,0.595c-0.336-0.008-0.898-0.27-0.887-0.605
					C69.838,49.196,71.732,49.207,71.725,49.543z"/>
			</g>
			<g>
				<path class="st128" d="M95.33,46.362c0,0-2.215,0.175-3.5,1.403c-0.561,0.533-0.58,1.419-0.047,1.979
					c0.535,0.56,1.422,0.58,1.982,0.046C94.387,49.197,95.33,46.362,95.33,46.362z"/>
				<path class="st40" d="M93.75,49.369c-0.008,0.338-0.666,0.604-1,0.596c-0.338-0.008-0.9-0.269-0.893-0.605
					C91.865,49.021,93.758,49.033,93.75,49.369z"/>
			</g>
			<g>
				<path class="st128" d="M87.705,46.533c0,0-2.213,0.178-3.5,1.405c-0.561,0.534-0.58,1.421-0.049,1.981
					c0.535,0.558,1.424,0.578,1.982,0.046C86.762,49.371,87.705,46.533,87.705,46.533z"/>
				<path class="st40" d="M86.127,49.543c-0.01,0.336-0.668,0.604-1.002,0.595c-0.338-0.008-0.9-0.27-0.891-0.605
					C84.24,49.196,86.133,49.207,86.127,49.543z"/>
			</g>
			<g>
				<path class="st128" d="M86.139,38.669c0,0-2.215,0.177-3.5,1.404c-0.561,0.533-0.582,1.42-0.047,1.98
					c0.533,0.559,1.422,0.58,1.982,0.046C85.195,41.506,86.139,38.669,86.139,38.669z"/>
				<path class="st40" d="M84.559,41.678c-0.008,0.337-0.666,0.604-1.002,0.595c-0.336-0.008-0.898-0.27-0.891-0.605
					C82.674,41.331,84.566,41.342,84.559,41.678z"/>
			</g>
			<g>
				<path class="st128" d="M79.434,38.843c0,0-2.213,0.176-3.5,1.404c-0.559,0.534-0.58,1.42-0.047,1.98
					c0.533,0.559,1.422,0.579,1.98,0.047C78.49,41.679,79.434,38.843,79.434,38.843z"/>
				<path class="st40" d="M77.855,41.853c-0.01,0.336-0.668,0.604-1.004,0.594c-0.336-0.007-0.898-0.269-0.889-0.604
					C75.969,41.505,77.861,41.515,77.855,41.853z"/>
			</g>
			<g>
				<path class="st128" d="M99.385,38.273c0,0-2.215,0.177-3.5,1.404c-0.561,0.533-0.582,1.42-0.047,1.98
					c0.533,0.559,1.42,0.581,1.98,0.047C98.441,41.11,99.385,38.273,99.385,38.273z"/>
				<path class="st40" d="M97.805,41.282c-0.008,0.337-0.666,0.604-1.002,0.595c-0.338-0.008-0.9-0.27-0.891-0.605
					C95.92,40.934,97.813,40.946,97.805,41.282z"/>
			</g>
			<g>
				<path class="st128" d="M92.727,38.843c0,0-2.215,0.176-3.502,1.404c-0.559,0.534-0.58,1.42-0.047,1.98
					c0.535,0.559,1.422,0.579,1.98,0.047C91.781,41.679,92.727,38.843,92.727,38.843z"/>
				<path class="st40" d="M91.146,41.853c-0.01,0.336-0.668,0.604-1.004,0.594c-0.336-0.007-0.898-0.269-0.889-0.604
					C89.262,41.505,91.154,41.515,91.146,41.853z"/>
			</g>
			<g>
				<path class="st128" d="M87.518,32.173c0,0-2.215,0.176-3.5,1.404c-0.561,0.534-0.582,1.419-0.047,1.979
					c0.533,0.56,1.422,0.58,1.98,0.046C86.574,35.009,87.518,32.173,87.518,32.173z"/>
				<path class="st40" d="M85.938,35.181c-0.008,0.338-0.666,0.604-1.002,0.597c-0.336-0.009-0.898-0.271-0.891-0.606
					C84.053,34.833,85.945,34.845,85.938,35.181z"/>
			</g>
			<g>
				<path class="st128" d="M93.709,32.148c0,0-2.215,0.177-3.502,1.404c-0.559,0.535-0.58,1.422-0.047,1.981
					c0.535,0.558,1.424,0.579,1.98,0.046C92.764,34.985,93.709,32.148,93.709,32.148z"/>
				<path class="st40" d="M92.129,35.158c-0.01,0.336-0.668,0.604-1.004,0.595c-0.336-0.007-0.898-0.269-0.889-0.604
					C90.244,34.81,92.137,34.822,92.129,35.158z"/>
			</g>
		</g>
	</g>
</g>
</svg>
