<?xml version="1.0" encoding="utf-8"?>
<!-- Generator: Adobe Illustrator 16.0.0, SVG Export Plug-In . SVG Version: 6.00 Build 0)  -->
<!DOCTYPE svg PUBLIC "-//W3C//DTD SVG 1.1//EN" "http://www.w3.org/Graphics/SVG/1.1/DTD/svg11.dtd">
<svg version="1.1" id="Layer_1" xmlns="http://www.w3.org/2000/svg" xmlns:xlink="http://www.w3.org/1999/xlink" x="0px" y="0px"
	 width="136.833px" height="136.834px" viewBox="0 0 136.833 136.834" style="enable-background:new 0 0 136.833 136.834;"
	 xml:space="preserve">
<style type="text/css">
<![CDATA[
	.st0{fill-rule:evenodd;clip-rule:evenodd;fill:#08090B;}
	.st1{fill:#ABD9DF;}
	.st2{fill:#49A0AE;}
	.st3{fill:#ADA495;}
	.st4{fill:#AED1D5;}
	.st5{fill:#E1E0E0;}
	.st6{fill:#E1E2D4;}
	.st7{fill:#E4E1D3;}
	.st8{fill:#E4E4E4;}
	.st9{fill:#4ABC96;}
	.st10{fill:#E5DCD6;}
	.st11{fill:#E79E2D;}
	.st12{fill:#E7E0DC;}
	.st13{fill:#E7E4E2;}
	.st14{fill:#4D4C4C;}
	.st15{fill:#4D4D4D;}
	.st16{fill:#E84849;}
	.st17{fill:#E8C638;}
	.st18{fill:#B0DFE5;}
	.st19{fill:#B19353;}
	.st20{fill:#83725E;}
	.st21{fill:#B2B2B2;}
	.st22{fill:#83CECA;}
	.st23{fill:#B3932F;}
	.st24{fill:#1A7877;}
	.st25{fill:#868787;}
	.st26{fill:#87BCC0;}
	.st27{fill:#EB9682;}
	.st28{fill:#EBEDEF;}
	.st29{fill:#EBF3F6;}
	.st30{fill:#EDAC80;}
	.st31{fill:#1FA85B;}
	.st32{fill:#EFEAE9;}
	.st33{fill:#EFEDEC;}
	.st34{fill:#5399AA;}
	.st35{fill:#575757;}
	.st36{fill:#BAADAB;}
	.st37{fill:#BABEB5;}
	.st38{fill:#8BBEC0;}
	.st39{fill:#8BBEC3;}
	.st40{fill:#8CC3CC;}
	.st41{fill:#594E3C;}
	.st42{fill:#BDC0A7;}
	.st43{fill:#8FB5B6;}
	.st44{fill:#BF5537;}
	.st45{fill:#228080;}
	.st46{fill:#F1A977;}
	.st47{fill:#24986B;}
	.st48{opacity:0.5;fill:#FFFFFF;}
	.st49{fill:#F3F0ED;}
	.st50{fill:#F5B78C;}
	.st51{fill:#F5EE7D;}
	.st52{fill:#5B5B5B;}
	.st53{fill:#28898E;}
	.st54{fill:#5EACB4;}
	.st55{fill:#5F5E5E;}
	.st56{fill:#909090;}
	.st57{fill:#917C60;}
	.st58{fill:#C0B8AA;}
	.st59{fill:#C0C0C0;}
	.st60{fill:#C1AA9A;}
	.st61{fill:#C1D1B0;}
	.st62{fill:url(#SVGID_1_);}
	.st63{fill:url(#SVGID_2_);}
	.st64{fill:url(#SVGID_3_);}
	.st65{fill:url(#SVGID_4_);}
	.st66{fill:url(#SVGID_5_);}
	.st67{fill:#C2C099;}
	.st68{fill:#C3C3C3;}
	.st69{fill:#94C5C5;}
	.st70{fill:#958469;}
	.st71{fill:#95C3CC;}
	.st72{fill:#969595;}
	.st73{fill:#2C8484;}
	.st74{fill:#FBBF96;}
	.st75{fill:#98C7C8;}
	.st76{fill:#98C8D0;}
	.st77{fill:#99CA41;}
	.st78{fill:#C9C9C8;}
	.st79{fill:#FDD6B2;}
	.st80{opacity:0.7;}
	.st81{fill:#60C3B6;}
	.st82{fill:#616262;}
	.st83{fill:#FFFFFF;}
	.st84{fill:none;}
	.st85{fill:#9A856A;}
	.st86{fill:#9A8671;}
	.st87{fill:#676767;}
	.st88{fill:#67B8CB;}
	.st89{fill:#CADCBA;}
	.st90{fill:#CAE7DA;}
	.st91{fill:#CB774C;}
	.st92{fill:#9CD2D2;}
	.st93{fill:#CCC9B9;}
	.st94{fill:#9DC3C5;}
	.st95{fill:#CDC6C3;}
	.st96{fill:#CDCCCB;}
	.st97{fill:#CDCDCE;}
	.st98{fill:#9ECAD2;}
	.st99{fill:#30898E;}
	.st100{fill:#308A8E;}
	.st101{opacity:0.7;fill:#FFFFFF;}
	.st102{fill:#343433;}
	.st103{fill:#344E5D;}
	.st104{fill:#357180;}
	.st105{fill:#6A7872;}
	.st106{fill:#37848C;}
	.st107{fill:#37919B;}
	.st108{fill:#6C6C6B;}
	.st109{fill:#38A37C;}
	.st110{fill:#6CC077;}
	.st111{fill:#6D6868;}
	.st112{fill:#D0D1D1;}
	.st113{fill:#D0E3E5;}
	.st114{opacity:0.15;fill:#E3F3F7;}
	.st115{fill:#D4A160;}
	.st116{fill:#D4E1C4;}
	.st117{fill:#D5CEC9;}
	.st118{fill:#3B3838;}
	.st119{fill:#08090B;}
	.st120{fill:#3CB881;}
	.st121{fill:#D7B528;}
	.st122{fill:#D7D7D7;}
	.st123{fill:#3D4040;}
	.st124{fill:#D8D1CE;}
	.st125{fill:none;stroke:#75A9AB;stroke-linecap:round;stroke-linejoin:round;stroke-miterlimit:10;}
	.st126{fill:#A07238;}
	.st127{opacity:0.5;fill:#AED1D5;}
	.st128{fill:#A2D4DE;}
	.st129{fill:#74726A;}
	.st130{fill:#A69071;}
	.st131{fill:#776850;}
	.st132{fill:#A6CED1;}
	.st133{fill:#A78F7E;}
	.st134{fill:#787878;}
	.st135{fill:#DBD6D4;}
	.st136{fill:#DBDBDA;}
	.st137{fill:#DCB127;}
	.st138{fill:#DCD2CC;}
	.st139{fill:#DDD3CC;}
	.st140{fill:#DDDDDC;}
	.st141{fill:#418068;}
	.st142{fill:#41979F;}
]]>
</style>
<g>
	<g>
		<g>
			<circle class="st77" cx="68.417" cy="68.417" r="63.333"/>
		</g>
	</g>
	<g>
		<path class="st42" d="M34.406,55.612l67.354-0.002l19.244,48.106c1.059-1.575,2.046-3.201,2.963-4.872l-18.95-47.371
			c-0.409-1.023-1.295-1.678-2.269-1.678H33.416c-0.975,0-1.86,0.656-2.27,1.68L12.5,98.159c0.904,1.697,1.887,3.346,2.938,4.945
			L34.406,55.612z"/>
		<path class="st128" d="M34.406,53.405l-18.969,49.699c3.08,4.696,6.766,8.957,10.949,12.674l11.539-41.962l59.818-0.003
			l11.784,42.759c4.38-3.743,8.251-8.062,11.476-12.855L101.76,53.403L34.406,53.405z"/>
		<path class="st71" d="M109.528,116.572L97.744,73.653H37.926l-11.539,42.125c11.183,9.931,25.896,15.973,42.029,15.973
			C84.111,131.75,98.463,126.028,109.528,116.572z"/>
	</g>
	<polygon class="st98" points="101.76,53.497 34.498,53.497 38.036,73.653 97.744,73.653 	"/>
	<g>
		<g>
			<path class="st84" d="M75.305,47.571c-1.043,0-2.168,0.729-2.168,1.906v0.336h3.91c-0.053-0.102-0.09-0.213-0.09-0.336
				C76.957,47.756,75.801,47.571,75.305,47.571z"/>
			<path class="st84" d="M65.784,47.571c-1.042,0-2.167,0.729-2.167,1.906v0.336h3.911c-0.054-0.102-0.091-0.213-0.091-0.336
				C67.438,47.756,66.281,47.571,65.784,47.571z"/>
			<path class="st140" d="M65.784,46.092c-1.752,0-3.646,1.293-3.646,3.385v0.336v15.281c0,0.41,0.33,0.742,0.738,0.742
				c0.409,0,0.74-0.332,0.74-0.742V49.813v-0.336c0-1.178,1.125-1.906,2.167-1.906c0.497,0,1.653,0.186,1.653,1.906
				c0,0.123,0.037,0.234,0.091,0.336h1.298c0.053-0.102,0.09-0.213,0.09-0.336C68.916,47.139,67.344,46.092,65.784,46.092z"/>
			<path class="st140" d="M75.305,46.092c-1.754,0-3.646,1.293-3.646,3.385v0.336v15.281c0,0.41,0.33,0.742,0.74,0.742
				c0.406,0,0.738-0.332,0.738-0.742V49.813v-0.336c0-1.178,1.125-1.906,2.168-1.906c0.496,0,1.652,0.186,1.652,1.906
				c0,0.123,0.037,0.234,0.09,0.336h1.299c0.053-0.102,0.09-0.213,0.09-0.336C78.436,47.139,76.863,46.092,75.305,46.092z"/>
		</g>
		<g>
			<g>
				<path class="st140" d="M72.488,60.567h-9.701c-0.409,0-0.74-0.33-0.74-0.738c0-0.409,0.331-0.739,0.74-0.739h9.701
					c0.41,0,0.74,0.33,0.74,0.739C73.229,60.237,72.898,60.567,72.488,60.567z"/>
			</g>
			<g>
				<path class="st140" d="M72.488,57.055h-9.701c-0.409,0-0.74-0.331-0.74-0.74c0-0.408,0.331-0.739,0.74-0.739h9.701
					c0.41,0,0.74,0.331,0.74,0.739C73.229,56.724,72.898,57.055,72.488,57.055z"/>
			</g>
			<g>
				<path class="st140" d="M72.488,53.497h-9.701c-0.409,0-0.74-0.33-0.74-0.738c0-0.41,0.331-0.739,0.74-0.739h9.701
					c0.41,0,0.74,0.329,0.74,0.739C73.229,53.167,72.898,53.497,72.488,53.497z"/>
			</g>
			<g>
				<path class="st140" d="M72.488,64.079h-9.701c-0.409,0-0.74-0.33-0.74-0.739s0.331-0.739,0.74-0.739h9.701
					c0.41,0,0.74,0.33,0.74,0.739S72.898,64.079,72.488,64.079z"/>
			</g>
		</g>
	</g>
	<g class="st80">
		<path class="st48" d="M68.416,131.75c21.207,0,39.967-10.436,51.461-26.439L101.249,55.57H35.082l-18.534,49.168
			C28.003,121.066,46.956,131.75,68.416,131.75z"/>
	</g>
	<g>
		<path class="st128" d="M68.416,5.083c-20.936,0-39.49,10.163-51.021,25.819h102.042C107.906,15.247,89.352,5.083,68.416,5.083z"/>
	</g>
</g>
</svg>
