<?xml version="1.0" encoding="utf-8"?>
<!-- Generator: Adobe Illustrator 16.0.0, SVG Export Plug-In . SVG Version: 6.00 Build 0)  -->
<!DOCTYPE svg PUBLIC "-//W3C//DTD SVG 1.1//EN" "http://www.w3.org/Graphics/SVG/1.1/DTD/svg11.dtd">
<svg version="1.1" id="Layer_1" xmlns="http://www.w3.org/2000/svg" xmlns:xlink="http://www.w3.org/1999/xlink" x="0px" y="0px"
	 width="136.913px" height="136.914px" viewBox="0 0 136.913 136.914" enable-background="new 0 0 136.913 136.914"
	 xml:space="preserve">
<g>
	<g>
		<g>
			<g>
				<g>
					<circle fill="#D7DABA" cx="68.456" cy="68.457" r="63.333"/>
				</g>
			</g>
		</g>
		<g>
			<g>
				<path fill="#D62127" d="M99.279,101.473c0,0-12.498,3.038-29.52,3.038c-17.023,0-32.125-3.038-32.125-3.038
					c0-24.935,13.799-60.557,30.822-60.557C85.479,40.916,99.279,76.538,99.279,101.473z"/>
			</g>
			<g>
				<g>
					<path fill="#E84344" d="M69.76,83.459c-13.834,0-25.965-2.008-30.113-2.758c-0.959,5.25-2.012,15.898-2.012,20.771
						c0,0,15.102,3.038,32.125,3.038c17.021,0,29.52-3.038,29.52-3.038c0-4.858-1.049-15.49-2.002-20.725
						C93.551,81.532,83.314,83.459,69.76,83.459z"/>
				</g>
			</g>
			<g>
				<circle fill="#E84344" cx="68.457" cy="37.876" r="10.635"/>
			</g>
			<g>
				<g>
					<path fill="#E84344" d="M50.658,88.231c-0.055,0-0.111-0.007-0.166-0.021c-0.35-0.094-0.557-0.45-0.463-0.797l8.248-31.04
						c0.092-0.347,0.449-0.554,0.797-0.462c0.348,0.093,0.555,0.447,0.463,0.797l-8.248,31.038
						C51.211,88.039,50.947,88.231,50.658,88.231z"/>
				</g>
			</g>
			<g>
				<g>
					<path fill="#E84344" d="M86.689,88.231c-0.289,0-0.553-0.192-0.631-0.484l-8.246-31.038c-0.092-0.35,0.115-0.704,0.461-0.797
						c0.348-0.092,0.705,0.115,0.797,0.462l8.25,31.04c0.092,0.347-0.115,0.703-0.465,0.797
						C86.801,88.225,86.744,88.231,86.689,88.231z"/>
				</g>
			</g>
			<g>
				<g>
					<path fill="#E84344" d="M69.326,88.231c-0.357,0-0.648-0.288-0.65-0.647l-0.219-31.037c-0.002-0.359,0.287-0.654,0.648-0.656
						c0,0,0.002,0,0.004,0c0.355,0,0.648,0.287,0.65,0.646l0.217,31.039c0.004,0.359-0.285,0.653-0.646,0.655H69.326z"/>
				</g>
			</g>
		</g>
	</g>
	<g>
		<g>
			<circle fill="#F4F5F5" cx="28.91" cy="95.406" r="2.184"/>
		</g>
		<g>
			<path fill="#F4F5F5" d="M17.373,82.188c-1.209,0-2.186,0.979-2.186,2.185s0.975,2.187,2.186,2.186
				c1.205,0.001,2.182-0.979,2.182-2.186S18.578,82.188,17.373,82.188z"/>
		</g>
		<g>
			<circle fill="#F4F5F5" cx="43.303" cy="81.014" r="2.184"/>
		</g>
		<g>
			<circle fill="#F4F5F5" cx="31.766" cy="69.98" r="2.186"/>
		</g>
		<g>
			<path fill="#F4F5F5" d="M56.078,66.055c-1.207,0-2.184,0.979-2.184,2.184c0,1.203,0.977,2.184,2.184,2.184
				s2.186-0.98,2.186-2.184C58.264,67.033,57.285,66.055,56.078,66.055z"/>
		</g>
		<g>
			<circle fill="#F4F5F5" cx="44.541" cy="57.204" r="2.185"/>
		</g>
		<g>
			<path fill="#F4F5F5" d="M7.637,71.95c0-1.206-0.975-2.185-2.184-2.185c-0.102,0-0.197,0.018-0.295,0.03
				c0.029,1.456,0.104,2.901,0.23,4.331c0.023,0.001,0.043,0.007,0.064,0.007C6.662,74.134,7.637,73.154,7.637,71.95z"/>
		</g>
		<g>
			<circle fill="#F4F5F5" cx="19.846" cy="57.557" r="2.184"/>
		</g>
		<g>
			<path fill="#F4F5F5" d="M10.492,46.523c0-0.679-0.316-1.277-0.803-1.679c-0.51,1.268-0.98,2.555-1.408,3.861
				c0.01,0,0.018,0.003,0.027,0.003C9.516,48.71,10.492,47.729,10.492,46.523z"/>
		</g>
		<g>
			<path fill="#F4F5F5" d="M32.621,42.598c-1.207,0-2.182,0.979-2.182,2.184c0,1.204,0.975,2.186,2.182,2.184
				c1.209,0,2.186-0.979,2.186-2.184C34.807,43.576,33.83,42.598,32.621,42.598z"/>
		</g>
		<g>
			<circle fill="#F4F5F5" cx="21.084" cy="33.748" r="2.186"/>
		</g>
		<g>
			<path fill="#F4F5F5" d="M63.262,128.076c-1.209-0.001-2.186,0.979-2.186,2.185c0,0.414,0.121,0.798,0.322,1.129
				c1.16,0.128,2.326,0.231,3.506,0.296c0.33-0.384,0.539-0.878,0.539-1.425C65.443,129.055,64.469,128.075,63.262,128.076z"/>
		</g>
		<g>
			<path fill="#F4F5F5" d="M89.191,124.719c-1.209,0-2.186,0.979-2.186,2.184c0,0.752,0.383,1.418,0.963,1.811
				c1.115-0.36,2.213-0.754,3.301-1.174c0.063-0.203,0.105-0.414,0.105-0.637C91.375,125.697,90.396,124.719,89.191,124.719z"/>
		</g>
		<g>
			<circle fill="#F4F5F5" cx="77.652" cy="115.869" r="2.185"/>
		</g>
		<g>
			<path fill="#F4F5F5" d="M101.967,111.941c-1.209,0-2.184,0.979-2.184,2.186c0,1.203,0.975,2.184,2.184,2.184
				c1.207,0,2.184-0.98,2.184-2.184C104.15,112.921,103.174,111.941,101.967,111.941z"/>
		</g>
		<g>
			<circle fill="#F4F5F5" cx="90.43" cy="103.092" r="2.185"/>
		</g>
		<g>
			<path fill="#F4F5F5" d="M51.838,116.15c-1.207,0-2.182,0.979-2.182,2.186c0,1.203,0.975,2.184,2.182,2.184
				c1.209,0,2.186-0.98,2.186-2.184C54.023,117.129,53.047,116.15,51.838,116.15z"/>
		</g>
		<g>
			<circle fill="#F4F5F5" cx="40.301" cy="107.301" r="2.185"/>
		</g>
		<g>
			<path fill="#F4F5F5" d="M66.232,101.759c-1.209,0-2.186,0.979-2.186,2.185c0,1.203,0.977,2.184,2.186,2.184
				c1.207,0,2.184-0.98,2.184-2.184C68.416,102.738,67.439,101.759,66.232,101.759z"/>
		</g>
		<g>
			<circle fill="#F4F5F5" cx="54.693" cy="92.909" r="2.185"/>
		</g>
		<g>
			<path fill="#F4F5F5" d="M79.006,88.982c-1.205,0-2.182,0.979-2.182,2.185c0,1.204,0.977,2.185,2.182,2.185
				c1.209,0,2.186-0.98,2.186-2.185C81.191,89.961,80.215,88.982,79.006,88.982z"/>
		</g>
		<g>
			<circle fill="#F4F5F5" cx="67.469" cy="80.133" r="2.186"/>
		</g>
		<g>
			<path fill="#F4F5F5" d="M68.154,53.979c-1.207,0-2.184,0.979-2.184,2.184c0,1.203,0.977,2.184,2.184,2.184
				s2.186-0.98,2.186-2.184C70.34,54.957,69.361,53.979,68.154,53.979z"/>
		</g>
		<g>
			<circle fill="#F4F5F5" cx="56.617" cy="45.128" r="2.185"/>
		</g>
		<g>
			<circle fill="#F4F5F5" cx="80.932" cy="43.386" r="2.185"/>
		</g>
		<g>
			<path fill="#F4F5F5" d="M69.393,30.167c-1.209-0.001-2.184,0.979-2.184,2.185s0.975,2.186,2.184,2.186
				c1.207,0,2.184-0.98,2.184-2.186S70.6,30.166,69.393,30.167z"/>
		</g>
		<g>
			<path fill="#F4F5F5" d="M95.322,26.809c-1.207,0-2.184,0.979-2.184,2.186c0,1.203,0.979,2.184,2.184,2.184
				c1.207,0,2.186-0.98,2.186-2.184C97.508,27.788,96.529,26.809,95.322,26.809z"/>
		</g>
		<g>
			<path fill="#F4F5F5" d="M83.785,15.774c-1.209,0-2.186,0.979-2.186,2.186c0,1.205,0.977,2.187,2.188,2.185
				c1.205,0.002,2.18-0.979,2.18-2.185C85.967,16.754,84.992,15.774,83.785,15.774z"/>
		</g>
		<g>
			<path fill="#F4F5F5" d="M44.697,30.521c-1.207,0-2.182,0.979-2.182,2.184c0,1.204,0.975,2.185,2.182,2.184
				c1.209,0,2.186-0.979,2.186-2.184C46.883,31.5,45.906,30.521,44.697,30.521z"/>
		</g>
		<g>
			<circle fill="#F4F5F5" cx="33.16" cy="21.672" r="2.186"/>
		</g>
		<g>
			<path fill="#F4F5F5" d="M57.475,17.745c-1.207,0-2.184,0.979-2.184,2.185c0,1.203,0.977,2.184,2.184,2.184
				s2.184-0.98,2.184-2.184C59.658,18.724,58.682,17.745,57.475,17.745z"/>
		</g>
		<g>
			<path fill="#F4F5F5" d="M45.938,11.081c1.205,0.001,2.182-0.98,2.182-2.186c0-0.138-0.016-0.271-0.039-0.402
				c-1.359,0.462-2.703,0.956-4.02,1.507C44.439,10.645,45.133,11.082,45.938,11.081z"/>
		</g>
		<g>
			<path fill="#F4F5F5" d="M71.867,7.721c1.205,0,2.184-0.979,2.184-2.184c0-0.053-0.012-0.103-0.016-0.154
				c-1.426-0.125-2.863-0.199-4.314-0.228c-0.021,0.124-0.037,0.251-0.037,0.382C69.684,6.741,70.658,7.721,71.867,7.721z"/>
		</g>
		<g>
			<path fill="#F4F5F5" d="M114.043,99.865c-1.209,0-2.184,0.979-2.184,2.185c0,1.204,0.977,2.185,2.184,2.185
				s2.184-0.98,2.184-2.185C116.227,100.845,115.25,99.865,114.043,99.865z"/>
		</g>
		<g>
			<circle fill="#F4F5F5" cx="102.504" cy="91.016" r="2.185"/>
		</g>
		<g>
			<path fill="#F4F5F5" d="M126.818,87.09c-1.207,0-2.184,0.979-2.184,2.186c0,1.202,0.977,2.184,2.184,2.182
				c0.244,0,0.475-0.049,0.693-0.123c0.412-1.06,0.797-2.132,1.152-3.219C128.277,87.502,127.598,87.09,126.818,87.09z"/>
		</g>
		<g>
			<circle fill="#F4F5F5" cx="115.281" cy="78.24" r="2.186"/>
		</g>
		<g>
			<path fill="#F4F5F5" d="M129.672,61.664c-1.207-0.002-2.184,0.979-2.184,2.184c-0.002,1.205,0.977,2.187,2.186,2.186
				c0.895,0.001,1.66-0.539,1.998-1.31c-0.041-0.683-0.094-1.361-0.156-2.038C131.129,62.073,130.451,61.663,129.672,61.664z"/>
		</g>
		<g>
			<circle fill="#F4F5F5" cx="91.084" cy="79.09" r="2.184"/>
		</g>
		<g>
			<circle fill="#F4F5F5" cx="79.545" cy="68.057" r="2.185"/>
		</g>
		<g>
			<circle fill="#F4F5F5" cx="103.859" cy="66.315" r="2.184"/>
		</g>
		<g>
			<circle fill="#F4F5F5" cx="92.322" cy="55.281" r="2.186"/>
		</g>
		<g>
			<path fill="#F4F5F5" d="M118.252,49.738c-1.207,0-2.184,0.979-2.184,2.185c0,1.203,0.977,2.184,2.184,2.183
				c1.205,0,2.184-0.979,2.184-2.183C120.436,50.717,119.457,49.738,118.252,49.738z"/>
		</g>
		<g>
			<circle fill="#F4F5F5" cx="106.715" cy="40.889" r="2.186"/>
		</g>
		<g>
			<path fill="#F4F5F5" d="M118.938,30.219c-0.531-0.7-1.07-1.395-1.629-2.071C117.324,29.145,118.01,29.977,118.938,30.219z"/>
		</g>
	</g>
</g>
</svg>
