<?xml version="1.0" encoding="utf-8"?>
<!-- Generator: Adobe Illustrator 16.0.0, SVG Export Plug-In . SVG Version: 6.00 Build 0)  -->
<!DOCTYPE svg PUBLIC "-//W3C//DTD SVG 1.1//EN" "http://www.w3.org/Graphics/SVG/1.1/DTD/svg11.dtd">
<svg version="1.1" id="Layer_1" xmlns="http://www.w3.org/2000/svg" xmlns:xlink="http://www.w3.org/1999/xlink" x="0px" y="0px"
	 width="136.914px" height="136.914px" viewBox="0 0 136.914 136.914" enable-background="new 0 0 136.914 136.914"
	 xml:space="preserve">
<g>
	<g>
		<g>
			<g>
				<g>
					<g>
						<circle fill="#E3AA24" cx="68.457" cy="68.457" r="63.333"/>
					</g>
				</g>
			</g>
		</g>
	</g>
	<g>
		<g>
			<g>
				<path fill="#65A844" d="M73.132,91.279c-3.592-0.16-6.971-1.822-8.859-3.372c-2.26-1.851-3.701-7.534-3.701-7.534
					c-6.105-0.051-8.383-0.744-11.467-2.787c-2.055-1.36-4.414-5.955-4.414-5.955c-7.883-0.947-13.877-2.385-13.877-2.385
					l0.01,0.057c0,0,1.291,6.553,2.479,13.721c0,0,5.486,2.482,6.957,4.459c2.207,2.969,3.285,6.094,3.301,10.926
					c0,0,5.904,1.197,7.877,3.354c1.65,1.803,3.348,5.49,3.566,8.352c0,0,8.512,0.1,13.635-4.172l-0.039-0.037
					C72.563,100.555,73.132,91.279,73.132,91.279z"/>
			</g>
			<g>
				<path fill="#7CC142" d="M66.534,106.105c-4.115-6.547-35.711-36.803-35.711-36.803L66.534,106.105z"/>
			</g>
		</g>
		<g>
			<g>
				<path fill="#65A844" d="M84.587,109.785c-0.275-3.586,0.967-7.141,2.275-9.203c1.564-2.467,7.031-4.586,7.031-4.586
					c-0.688-6.065-0.275-8.41,1.381-11.72c1.102-2.203,5.377-5.102,5.377-5.102c-0.014-7.939,0.689-14.063,0.689-14.063
					l-0.055,0.018c0,0-6.35,2.073-13.32,4.119c0,0-1.801,5.747-3.586,7.445c-2.68,2.551-5.652,3.999-10.447,4.599
					c0,0-0.475,6.007-2.375,8.225c-1.59,1.856-5.045,3.987-7.859,4.55c0,0,0.932,8.463,5.791,13.029l0.031-0.043
					C75.31,110.342,84.587,109.785,84.587,109.785z"/>
			</g>
			<g>
				<path fill="#7CC142" d="M69.071,105.027c6-4.875,32.215-39.898,32.215-39.898L69.071,105.027z"/>
			</g>
		</g>
		<g>
			<g>
				<g>
					<path fill="#F7EFF1" d="M74.823,92.414c0,0-2.367,2.719-6.77,2.719c-4.4,0-6.482-2.719-6.482-2.719v-43.93
						c0,0,3.48-2.838,6.514-2.838s6.738,2.838,6.738,2.838V92.414z"/>
				</g>
				<g>
					<path fill="#F7EFF1" d="M61.571,48.484c0,0,1.293-2.838,6.514-2.838s6.738,2.838,6.738,2.838s-0.326,2.084-6.73,2.084
						C61.687,50.568,61.571,48.484,61.571,48.484z"/>
				</g>
				<g>
					<path fill="#E9E9E8" d="M62.72,48.42c0,0,1.068-2.346,5.385-2.346s5.57,2.346,5.57,2.346s-0.27,1.723-5.564,1.723
						S62.72,48.42,62.72,48.42z"/>
				</g>
				<g>
					<path fill="#D7D7D6" d="M63.78,48.359c0,0,0.861-1.893,4.342-1.893s4.492,1.893,4.492,1.893s-0.217,1.389-4.486,1.389
						S63.78,48.359,63.78,48.359z"/>
				</g>
				<g>
					<path fill="#D1CFCE" d="M65.46,48.553c0,0,0.535-1.172,2.691-1.172s2.783,1.172,2.783,1.172s-0.135,0.861-2.781,0.861
						C65.509,49.414,65.46,48.553,65.46,48.553z"/>
				</g>
			</g>
			<g>
				<g>
					<path fill="#676768" d="M69.214,48.242c0,0-0.355,0.553-1.066,0.553c-0.709,0-0.961-0.434-0.961-0.434l-0.063-3.635l0.74-4.951
						l1.033,1.047l0.033,3.928L69.214,48.242z"/>
				</g>
				<g>
					<g opacity="0.8">
						<g>
							<path fill="#FDF49C" d="M65.53,31.396c0.773-2.629,0.625-6.602,0.625-6.602s2.057,1.127,3.479,4.219
								c1.334,2.908,3.414,8.072,3.414,10.744c0,3.307-2.301,5.984-5.145,5.986c-2.84-0.002-5.145-2.68-5.145-5.986
								C62.759,36.539,64.616,34.498,65.53,31.396z"/>
						</g>
					</g>
					<g opacity="0.6">
						<g>
							<path fill="#F1E288" d="M66.177,34.537c0.566-2.121,0.977-5.24,0.977-5.24s4.904,5.303,4.518,11.986
								c-0.154,2.662-1.682,4.83-3.758,4.832c-2.076-0.002-3.76-2.164-3.76-4.832C64.153,38.686,65.511,37.039,66.177,34.537z"/>
						</g>
					</g>
					<g opacity="0.5">
						<g>
							<path fill="#FFFFFF" d="M66.817,38.688c0.357-1.344,1.047-3.352,1.047-3.352s2.678,3.393,2.434,7.627
								c-0.098,1.686-1.066,3.061-2.383,3.061c-1.314,0-2.381-1.371-2.381-3.061C65.534,41.316,66.394,40.273,66.817,38.688z"/>
						</g>
					</g>
				</g>
			</g>
		</g>
		<g>
			<g>
				<path fill="#65A844" d="M67.653,86.49c-3.119,1.791-6.861,2.199-9.287,1.904c-2.9-0.352-7.164-4.375-7.164-4.375
					c-5.182,3.232-7.475,3.867-11.174,3.797c-2.463-0.047-6.92-2.659-6.92-2.659c-7.16,3.427-12.992,5.428-12.992,5.428l0.039,0.042
					c0,0,4.604,4.838,9.449,10.252c0,0,5.963-0.846,8.264,0.033c3.457,1.322,6.041,3.383,8.646,7.453c0,0,5.625-2.156,8.445-1.395
					c2.359,0.637,5.77,2.84,7.488,5.139c0,0,7.24-4.482,9.273-10.834l-0.055-0.01C72.147,94.625,67.653,86.49,67.653,86.49z"/>
			</g>
			<g>
				<path fill="#7CC142" d="M70.032,102.541c-6.982-3.318-49.877-11.914-49.877-11.914L70.032,102.541z"/>
			</g>
		</g>
		<g>
			<g>
				<path fill="#65A844" d="M71.313,113.879c1.846-3.086,4.912-5.27,7.174-6.197c2.701-1.109,8.389,0.318,8.389,0.318
					c2.941-5.348,4.633-7.023,7.896-8.768c2.172-1.162,7.336-1.059,7.336-1.059c4.576-6.487,8.688-11.08,8.688-11.08l-0.055-0.018
					c0,0-6.379-1.975-13.252-4.334c0,0-4.789,3.651-7.227,4.006c-3.662,0.533-6.924-0.001-11.184-2.281c0,0-3.859,4.629-6.691,5.34
					c-2.369,0.598-6.422,0.34-9.045-0.827c0,0-4.127,7.446-2.801,13.981l0.051-0.018C63.419,108.973,71.313,113.879,71.313,113.879z
					"/>
			</g>
			<g>
				<path fill="#7CC142" d="M61.397,101.031c7.713-0.512,49.344-13.955,49.344-13.955L61.397,101.031z"/>
			</g>
		</g>
		<g>
			<g>
				<g>
					<circle fill="#D72128" cx="64.797" cy="97" r="7.222"/>
				</g>
				<g>
					<circle fill="#E33441" cx="62.234" cy="94.611" r="2.62"/>
				</g>
			</g>
			<g>
				<g>
					<circle fill="#D72128" cx="71.524" cy="103.203" r="6.959"/>
				</g>
				<g>
					<circle fill="#E33441" cx="68.886" cy="100.447" r="2.256"/>
				</g>
			</g>
			<g>
				<g>
					<circle fill="#D72128" cx="76.067" cy="95.514" r="6.436"/>
				</g>
				<g>
					<path fill="#E33441" d="M75.675,93.018c0,1.133-0.918,2.051-2.051,2.051c-1.131,0-2.049-0.918-2.049-2.051
						c0-1.129,0.918-2.049,2.049-2.049C74.757,90.969,75.675,91.889,75.675,93.018z"/>
				</g>
			</g>
		</g>
	</g>
</g>
</svg>
