<?xml version="1.0" encoding="utf-8"?>
<!-- Generator: Adobe Illustrator 16.0.0, SVG Export Plug-In . SVG Version: 6.00 Build 0)  -->
<!DOCTYPE svg PUBLIC "-//W3C//DTD SVG 1.1//EN" "http://www.w3.org/Graphics/SVG/1.1/DTD/svg11.dtd">
<svg version="1.1" id="Layer_1" xmlns="http://www.w3.org/2000/svg" xmlns:xlink="http://www.w3.org/1999/xlink" x="0px" y="0px"
	 width="136.914px" height="136.914px" viewBox="0 0 136.914 136.914" enable-background="new 0 0 136.914 136.914"
	 xml:space="preserve">
<g>
	<g>
		<g>
			<g>
				<g>
					<g>
						<circle fill="#49A0AE" cx="68.457" cy="68.458" r="63.333"/>
					</g>
				</g>
			</g>
			<g>
				<g>
					<path fill="#4A86C5" d="M128.776,87.784c0.232-0.724,0.443-1.457,0.65-2.192C129.22,86.328,129.003,87.06,128.776,87.784z"/>
				</g>
				<g>
					<polygon fill="#377CA5" points="129.431,85.578 129.431,85.578 129.427,85.592 					"/>
				</g>
			</g>
		</g>
	</g>
	<g>
		<g>
			<g>
				<path fill="#F1F1F1" d="M96.153,65.415c-0.889-0.233-3.674-1.422-7.082,2.345c-2.855,3.157-1.662,6.223-0.744,7.687
					c5.076,13.425,9.387,13.306,9.537,9.743c4.41,3.643,9.686,6.812,14.043,5.986c0.961-0.184,0.281-1.088-0.854-2.126
					c2.182,0.867,4.326,1.252,6.27,0.838c0.992-0.209,0.211-1.149-1.016-2.203c1.754,0.427,3.447,0.512,4.98,0.099
					c0.943-0.253,0.209-1.09-0.992-2.025C101.681,66.145,96.153,65.415,96.153,65.415z"/>
			</g>
			<g>
				<path fill="#F1F1F1" d="M40.985,66.889c0.902-0.287,3.762-1.641,6.957,1.933c2.676,2.996,1.305,6.135,0.297,7.657
					c-5.865,13.744-10.176,13.878-10.117,10.317c-4.629,3.907-10.098,7.391-14.416,6.819c-0.953-0.127-0.217-1.073,0.979-2.179
					c-2.234,0.995-4.406,1.507-6.33,1.207c-0.979-0.151-0.145-1.14,1.146-2.268c-1.781,0.53-3.48,0.715-4.994,0.391
					c-0.932-0.198-0.146-1.079,1.111-2.088C35.403,67.942,40.985,66.889,40.985,66.889z"/>
			</g>
			<g>
				<g>
					<g>
						<g>
							<path fill="#E9C29C" d="M93.272,70.598c0,13.822-11.199,25.022-25.018,25.022c-13.816,0-25.016-11.2-25.016-25.022
								c0-13.814,11.199-25.017,25.016-25.017C82.073,45.581,93.272,56.783,93.272,70.598z"/>
						</g>
					</g>
					<g>
						<g>
							<ellipse fill="#343433" cx="60.757" cy="72.101" rx="3.428" ry="3.621"/>
						</g>
						<g>
							<path fill="#343433" d="M79.04,72.101c0,2.001-1.539,3.621-3.432,3.621c-1.891,0-3.424-1.62-3.424-3.621
								c0-2,1.533-3.625,3.424-3.625C77.501,68.476,79.04,70.101,79.04,72.101z"/>
						</g>
						<g>
							<path fill="#FFFFFF" d="M78.05,70.727c0,0.798-0.609,1.45-1.369,1.45c-0.754,0-1.367-0.652-1.367-1.45
								c0-0.801,0.613-1.447,1.367-1.447C77.44,69.279,78.05,69.926,78.05,70.727z"/>
						</g>
						<g>
							<path fill="#FFFFFF" d="M63.163,70.727c0,0.798-0.613,1.45-1.373,1.45c-0.756,0-1.369-0.652-1.369-1.45
								c0-0.801,0.613-1.447,1.369-1.447C62.55,69.279,63.163,69.926,63.163,70.727z"/>
						</g>
						<g>
							<polygon fill="#703116" points="55.616,65.64 55.952,67 63.81,67.854 64.313,65.359 							"/>
						</g>
						<g>
							<polygon fill="#703116" points="80.966,65.64 80.63,67 72.772,67.854 72.267,65.359 							"/>
						</g>
						<g>
							<path fill="#C4916B" d="M70.442,75.515c0,0,4.014,3.79,2.738,5.914c-1.273,2.124-8.799,2.199-9.877,0
								c-1.08-2.198,2.742-5.914,2.742-5.914H70.442z"/>
						</g>
						<g>
							<path fill="#E9C29C" d="M70.255,75.254c0,0,3.666,3.716,2.502,5.798s-8.037,2.154-9.023,0
								c-0.988-2.154,2.506-5.798,2.506-5.798H70.255z"/>
						</g>
					</g>
				</g>
			</g>
			<g>
				<path fill="#703116" d="M81.897,53.351c2.518,6.2,10.896,15.248,16.498,7.345c0,0-2.34,0.153-6.199-2.752
					c0.266-0.723,0.49-1.62,0.615-2.736c0.072-0.64-1.133-1.353-2.574-1.969c0.047-0.275,0.09-0.564,0.125-0.871
					c0.096-0.856-2.102-1.846-4.086-2.557c-0.037-0.285-0.088-0.582-0.148-0.895c-0.135-0.67-1.664-0.979-3.34-1.114
					c-0.043-0.334-0.096-0.685-0.172-1.059c-0.25-1.253-5.383-1.244-7.225-1.2c-0.064-0.188-0.133-0.381-0.211-0.579
					c-0.42-1.085-4.65-0.441-6.768-0.046l-0.232-0.276c0,0-7.318-1.982-7.945-0.558c-0.232,0.521-0.412,1.005-0.551,1.456
					c-1.977-0.04-6.799-0.011-7.041,1.203c-0.076,0.374-0.131,0.725-0.172,1.059c-1.676,0.136-3.205,0.444-3.34,1.114
					c-0.063,0.313-0.111,0.609-0.15,0.894c-1.982,0.712-4.18,1.701-4.084,2.558c0.035,0.307,0.076,0.596,0.125,0.871
					c-1.441,0.616-2.648,1.329-2.576,1.969c0.232,2.052,0.791,3.369,1.346,4.201c-3.48,2.429-5.563,2.291-5.563,2.291
					c5.482,7.734,12.516,0.827,15.174-5.283c0.09-0.046,0.176-0.09,0.26-0.132c0.729,3.062,2.313,3.668,2.313,3.668
					c0.332-2.395,1.963-4.166,3.582-5.366c0.779,1.836,1.844,2.243,1.844,2.243c0.248-1.792,1.23-3.23,2.385-4.341
					c0.588,3.867,2.477,4.593,2.477,4.593c0.207-1.491,0.922-2.737,1.822-3.754c0.145,0.386,0.252,0.794,0.311,1.226
					c0,0,1.402-0.537,2.059-3.241c0.098-0.063,0.195-0.127,0.293-0.188c0.992,0.986,1.82,2.248,2.037,3.804
					c0,0,1.311-0.502,1.99-2.978c1.348,1.072,2.627,2.592,2.902,4.591c0,0,2.203-0.844,2.395-5.719
					c0.064,0.023,0.127,0.046,0.191,0.07c0.561,0.555,1.047,1.206,1.412,1.971"/>
			</g>
			<g>
				<g>
					<path fill="#C39574" d="M68.571,88.147c-0.033,0-0.063-0.001-0.094-0.001c-4.582-0.05-7.871-3.767-8.01-3.925
						c-0.15-0.173-0.133-0.436,0.041-0.587c0.172-0.149,0.434-0.132,0.586,0.04c0.031,0.037,3.191,3.598,7.396,3.641
						c0.027,0.001,0.053,0.001,0.078,0.001c2.488,0,4.865-1.228,7.07-3.647c0.154-0.169,0.418-0.182,0.588-0.028
						c0.17,0.155,0.182,0.418,0.027,0.588C73.886,86.829,71.302,88.147,68.571,88.147z"/>
				</g>
			</g>
		</g>
		<g>
			<g>
				<g>
					<path fill="#F6E7BE" d="M67.938,30.37c-9.721,0-17.602,2.445-17.602,5.462s7.881,5.463,17.602,5.463s17.6-2.446,17.6-5.463
						S77.659,30.37,67.938,30.37z M67.938,38.769c-6.09,0-11.027-1.531-11.027-3.422s4.938-3.423,11.027-3.423
						s11.027,1.532,11.027,3.423S74.028,38.769,67.938,38.769z"/>
				</g>
			</g>
			<g>
				<defs>
					<path id="SVGID_1_" d="M67.938,30.37c-9.721,0-17.602,2.445-17.602,5.462s7.881,5.463,17.602,5.463s17.6-2.446,17.6-5.463
						S77.659,30.37,67.938,30.37z M67.938,38.81c-6.162,0-11.158-1.551-11.158-3.463s4.996-3.462,11.158-3.462
						s11.156,1.55,11.156,3.462S74.101,38.81,67.938,38.81z"/>
				</defs>
				<clipPath id="SVGID_2_">
					<use xlink:href="#SVGID_1_"  overflow="visible"/>
				</clipPath>
				<g clip-path="url(#SVGID_2_)">
					
						<rect x="62.986" y="23.934" transform="matrix(0.7071 0.7071 -0.7071 0.7071 45.0782 -37.8107)" fill="#F2DCA4" width="10.388" height="23.149"/>
				</g>
			</g>
		</g>
	</g>
</g>
</svg>
