<?xml version="1.0" encoding="utf-8"?>
<!-- Generator: Adobe Illustrator 16.0.0, SVG Export Plug-In . SVG Version: 6.00 Build 0)  -->
<!DOCTYPE svg PUBLIC "-//W3C//DTD SVG 1.1//EN" "http://www.w3.org/Graphics/SVG/1.1/DTD/svg11.dtd">
<svg version="1.1" id="Layer_1" xmlns="http://www.w3.org/2000/svg" xmlns:xlink="http://www.w3.org/1999/xlink" x="0px" y="0px"
	 width="136.914px" height="136.914px" viewBox="0 0 136.914 136.914" enable-background="new 0 0 136.914 136.914"
	 xml:space="preserve">
<g>
	<g>
		<circle fill="#497336" cx="68.457" cy="68.458" r="63.333"/>
	</g>
	<g>
		<g>
			<g>
				<path fill="#E3E5E3" d="M37.817,95.74c0,0-7.174,3.312-11.531,2.538c-3.219-0.572-4.094-3.869-3.588-9.815
					C22.698,88.463,37.72,95.381,37.817,95.74z"/>
			</g>
			<g>
				<path fill="#D72128" d="M47.894,92.975c0,0-8.768,2.303-15.625-5.038c0,0-1.484-2.033-4.918-1.488
					c-2.199,0.35-4.652,2.015-4.652,2.015s4.07,7.128,10.809,7.533C40.243,96.401,47.894,92.975,47.894,92.975z"/>
			</g>
			<g>
				<path fill="#F1F1F1" d="M55.013,90.853c0,0-8.52,2.519-15.18-5.721c0,0-2.074-1.246-5.514-0.763
					c-2.205,0.311-3.551,2.396-3.551,2.396s5.104,6.141,11.818,6.667C49.302,93.96,55.013,90.853,55.013,90.853z"/>
			</g>
			<g>
				<path fill="#D72128" d="M61.81,88.946c0,0-8.109,2.353-15.127-5.642c0,0-2.131-1.177-5.559-0.583
					c-2.195,0.381-3.23,1.912-3.23,1.912s5.143,6.544,11.895,6.854S61.81,88.946,61.81,88.946z"/>
			</g>
			<g>
				<path fill="#F1F1F1" d="M69.261,85.847c0,0-7.615,1.224-15.615-6.004c0,0-1.381-0.24-4.746,0.666
					c-2.154,0.58-3.379,2.386-3.379,2.386s5.186,6.909,11.992,6.581C64.319,89.15,69.261,85.847,69.261,85.847z"/>
			</g>
			<g>
				<path fill="#D72128" d="M75.763,85.21c0,0-7.559,1.968-13.797-5.547c0,0-1.365-2.065-4.34-1.649
					c-1.902,0.268-3.98,1.829-3.98,1.829s3.801,7.203,9.688,7.845C69.218,88.33,75.763,85.21,75.763,85.21z"/>
			</g>
			<g>
				<path fill="#F1F1F1" d="M81.888,83.366c0,0-7.332,2.186-13.432-6.209c0,0-1.85-1.308-4.832-0.951
					c-1.908,0.227-3.008,2.242-3.008,2.242s4.668,6.264,10.539,7.026C77.024,86.237,81.888,83.366,81.888,83.366z"/>
			</g>
			<g>
				<path fill="#D72128" d="M87.743,81.722c0,0-6.982,2.039-13.383-6.128c0,0-1.898-1.239-4.865-0.774
					c-1.898,0.297-2.746,1.775-2.746,1.775s4.715,6.664,10.611,7.211C83.253,84.354,87.743,81.722,87.743,81.722z"/>
			</g>
			<g>
				<path fill="#F1F1F1" d="M94.124,78.92c0,0-6.729,2.767-13.957-4.675c0,0-2.02-1.033-4.918-0.258
					c-1.859,0.498-1.916,1.16-1.916,1.16s4.766,7.023,10.686,6.945C89.938,82.013,94.124,78.92,94.124,78.92z"/>
			</g>
			<g>
				<path fill="#D72128" d="M101.116,74.887c0,0-7.344,1.82-12.457-2.853c0,0-2.137-0.754-4.908,0.402
					c-1.775,0.74-4.797,1.434-4.797,1.434s6.715,6.379,12.57,5.51S101.116,74.887,101.116,74.887z"/>
			</g>
			<g>
				<path fill="#F1F1F1" d="M110.413,66.745c0,0-5.979,3.06-12.479,0.873c0,0-7.643,2.322-9.275,4.416c0,0,4.273,5.652,16.08,2.363
					C104.739,74.397,107.839,74.112,110.413,66.745z"/>
			</g>
			<g>
				<path fill="#D72128" d="M97.935,67.618c0,0,6.316,2.434,12.479-0.873c0,0,6.096-4.59,3.117-12.339c0,0-5.68,8.137-13.152,10.218
					C98.411,65.173,97.935,67.618,97.935,67.618z"/>
			</g>
			<g>
				<path fill="#F1F1F1" d="M99.618,64.837c0,0,7.748-0.038,13.912-10.431c0,0-1.26-7.985-5.936-9.719c0,0,1.551,5.736-3.453,14.069
					C104.142,58.757,102.052,61.122,99.618,64.837z"/>
			</g>
			<g>
				<path fill="#D72128" d="M99.114,39.676c0,0,5.582,6.542,3.75,11.39c0,0,1.383,7.035,1.277,7.691c0,0,5.148-7.458,3.453-14.069
					C107.595,44.688,106.026,41.655,99.114,39.676z"/>
			</g>
			<g>
				<path fill="#F1F1F1" d="M90.071,38.87c0,0,4.43,1.369,9.848,9.401l2.945,2.794c0,0,2.561-5.34-4.512-12.045
					C98.353,39.021,91.13,37.997,90.071,38.87z"/>
			</g>
			<g>
				<path fill="#D72128" d="M86.077,39.983c0,0,0.232,3.55,1.389,5.107c1.156,1.557,12.453,3.181,12.453,3.181
					s-4.137-7.78-9.313-9.551C88.882,38.131,86.077,39.983,86.077,39.983z"/>
			</g>
		</g>
		<g>
			<g>
				<path fill="#EE3B48" d="M112.288,62.785c-0.826,1.411-1.648,2.586-2.412,2.139c-0.766-0.448,1.646-5.628,2.523-5.504
					C114.063,59.656,113.114,61.374,112.288,62.785z"/>
			</g>
			<g>
				<path fill="#EE3B48" d="M94.415,78.334c-1.553,0.511-2.947,0.848-3.225,0.006c-0.275-0.841,4.963-3.128,5.537-2.454
					C97.817,77.165,95.968,77.822,94.415,78.334z"/>
			</g>
			<g>
				<path fill="#EE3B48" d="M92.263,45.796c-2.02-0.321-3.764-0.748-3.588-1.842c0.174-1.094,7.313-0.634,7.564,0.445
					C96.72,46.448,94.284,46.121,92.263,45.796z"/>
			</g>
			<g>
				<path fill="#EE3B48" d="M78.981,83.539c-1.219,0.087-2.291,0.077-2.338-0.583c-0.047-0.661,4.166-1.363,4.459-0.77
					C81.659,83.313,80.198,83.452,78.981,83.539z"/>
			</g>
			<g>
				<path fill="#EE3B48" d="M66.642,87.343c-1.219,0.086-2.291,0.076-2.336-0.585c-0.049-0.659,4.164-1.361,4.459-0.769
					C69.321,87.115,67.86,87.255,66.642,87.343z"/>
			</g>
			<g>
				<path fill="#EE3B48" d="M52.228,91.142c-1.219,0.088-2.291,0.077-2.336-0.583c-0.049-0.66,4.166-1.362,4.459-0.769
					C54.907,90.916,53.446,91.055,52.228,91.142z"/>
			</g>
			<g>
				<path fill="#EE3B48" d="M34.243,95.214c-1.41,0.102-2.652,0.089-2.705-0.676c-0.057-0.766,4.822-1.578,5.162-0.892
					C37.347,94.952,35.655,95.114,34.243,95.214z"/>
			</g>
			<g>
				<path fill="#EE3B48" d="M105.003,54.573c-0.674,0.049-1.268,0.003-1.316-0.668c-0.047-0.672,2.266-1.246,2.447-0.635
					C106.481,54.433,105.675,54.525,105.003,54.573z"/>
			</g>
		</g>
	</g>
</g>
</svg>
