<?xml version="1.0" encoding="utf-8"?>
<!-- Generator: Adobe Illustrator 16.0.0, SVG Export Plug-In . SVG Version: 6.00 Build 0)  -->
<!DOCTYPE svg PUBLIC "-//W3C//DTD SVG 1.1//EN" "http://www.w3.org/Graphics/SVG/1.1/DTD/svg11.dtd">
<svg version="1.1" id="Layer_1" xmlns="http://www.w3.org/2000/svg" xmlns:xlink="http://www.w3.org/1999/xlink" x="0px" y="0px"
	 width="136.913px" height="136.914px" viewBox="0 0 136.913 136.914" enable-background="new 0 0 136.913 136.914"
	 xml:space="preserve">
<g>
	<g>
		<circle fill="#65A844" cx="68.457" cy="73.677" r="63.333"/>
	</g>
	<g>
		<g>
			<g>
				<g>
					<g>
						<path fill="#D72128" d="M97.701,63.184c0.301-1.559-0.721-3.065-2.281-3.365l-32.109-6.162c-1.559-0.3-3.064,0.722-3.365,2.28
							l-6.551,34.139c-11.701,5.326-18.75,15.009-16.158,23.102c2.924,9.135,17.025,12.782,31.492,8.148
							c10.785-3.455,19.475-8.652,21.457-18.975L97.701,63.184z"/>
					</g>
					<g>
						<path fill="#F1F1F1" d="M99.449,66.4c-0.979,5.098-5.904,8.438-11.002,7.459l-26.059-5.001
							c-5.096-0.979-8.438-5.904-7.459-11.003l0.592-3.076c0.979-5.099,5.904-8.438,11.002-7.46l26.057,5.002
							c5.098,0.979,8.438,5.904,7.461,11.003L99.449,66.4z"/>
					</g>
				</g>
				<g>
					<path fill="#E3E5E3" d="M58.834,54.014c0,0,15.186,12.288,37.367,5.844C96.201,59.857,83.135,46.297,58.834,54.014z"/>
				</g>
			</g>
			<g>
				<g>
					<path fill="#D72128" d="M87.156,55.667c0,0-2.623,3.985-8.527,3.131c0,0-1.465-0.379-2.643,1.027
						c-0.229,0.273-0.418,0.608-0.566,0.941c0,0,6.213,1.447,7.113,1.111C85.92,60.61,87.156,55.667,87.156,55.667z"/>
				</g>
				<g>
					<path fill="#F1F1F1" d="M89.18,52.324c0,0-2.43,3.992-8.631,2.682c0,0-1.377,0.163-2.582,1.545
						c-0.773,0.884-0.447,2.248-0.447,2.248s4.68,0.93,7.654-1.126C88.148,55.615,89.18,52.324,89.18,52.324z"/>
				</g>
				<g>
					<path fill="#D72128" d="M91.164,49.183c0,0-2.334,3.781-8.578,2.697c0,0-1.369,0.215-2.523,1.639
						c-0.74,0.912-0.52,1.93-0.52,1.93s4.865,1.093,7.764-1.071C90.203,52.214,91.164,49.183,91.164,49.183z"/>
				</g>
				<g>
					<path fill="#F1F1F1" d="M92.912,45.301c0,0-1.92,4.008-8.246,3.591c0,0-1.338,0.357-2.336,1.896
						c-0.639,0.985-0.393,1.309-0.393,1.309s5.035,1.236,7.688-1.222C92.277,48.416,92.912,45.301,92.912,45.301z"/>
				</g>
				<g>
					<path fill="#D72128" d="M94.432,40.61c0,0-2.586,3.831-6.816,3.804c0,0-1.279,0.532-2.063,2.191
						c-0.502,1.063-1.59,2.612-1.59,2.612s5.656,0.146,7.957-2.645S94.432,40.61,94.432,40.61z"/>
				</g>
				<g>
					<path fill="#F1F1F1" d="M95.316,33.113c0,0-2.379,5.341-5.303,5.502c0,0-2.516,4.181-2.398,5.799c0,0,4.25,0.815,8.26-5.507
						C95.875,38.907,97.164,37.507,95.316,33.113z"/>
				</g>
				<g>
					<path fill="#D72128" d="M90.014,38.615c0,0,3.859-1.48,5.303-5.502c0,0,0.887-4.576-3.635-6.872c0,0,0.754,6.016-1.785,10.017
						C89.229,37.312,90.014,38.615,90.014,38.615z"/>
				</g>
				<g>
					<path fill="#F1F1F1" d="M89.639,36.666c0,0,3.498-3.188,2.043-10.425c0,0-3.84-3.106-6.67-1.979c0,0,3.051,1.968,4.191,7.795
						C89.203,32.058,89.225,33.984,89.639,36.666z"/>
				</g>
				<g>
					<path fill="#D72128" d="M79.115,25.46c0,0,5.209,0.684,6.361,3.631c0,0,3.506,2.625,3.727,2.967c0,0-0.717-5.49-4.191-7.795
						C85.012,24.263,83.059,23.528,79.115,25.46z"/>
				</g>
				<g>
					<path fill="#F1F1F1" d="M74.684,28.795c0,0,2.57-1.191,8.314,0.234l2.479,0.062c0,0-1.023-3.47-6.975-3.616
						C78.502,25.475,74.807,27.966,74.684,28.795z"/>
				</g>
				<g>
					<path fill="#D72128" d="M73.328,30.935c0,0,1.557,1.514,2.719,1.747c1.162,0.232,6.951-3.652,6.951-3.652
						s-5.061-1.837-8.133-0.521C73.842,28.946,73.328,30.935,73.328,30.935z"/>
				</g>
			</g>
		</g>
		<g>
			<g>
				<path fill="#F2F2F2" d="M56.33,52.372c-0.369,0.744-0.645,1.551-0.809,2.407l-0.592,3.076
					c-0.979,5.099,2.363,10.024,7.459,11.003l26.059,5.001c5.098,0.979,10.023-2.361,11.002-7.459l0.592-3.076
					c0.305-1.593,0.188-3.17-0.271-4.614l-3.568,1.147c-22.182,6.444-37.367-5.844-37.367-5.844L56.33,52.372z"/>
			</g>
		</g>
	</g>
</g>
</svg>
