<?xml version="1.0" encoding="utf-8"?>
<!-- Generator: Adobe Illustrator 16.0.0, SVG Export Plug-In . SVG Version: 6.00 Build 0)  -->
<!DOCTYPE svg PUBLIC "-//W3C//DTD SVG 1.1//EN" "http://www.w3.org/Graphics/SVG/1.1/DTD/svg11.dtd">
<svg version="1.1" id="Layer_1" xmlns="http://www.w3.org/2000/svg" xmlns:xlink="http://www.w3.org/1999/xlink" x="0px" y="0px"
	 width="136.913px" height="136.914px" viewBox="0 0 136.913 136.914" enable-background="new 0 0 136.913 136.914"
	 xml:space="preserve">
<g>
	<g>
		<g>
			<g>
				<g>
					<g>
						<circle fill="#357180" cx="68.456" cy="68.457" r="63.333"/>
					</g>
				</g>
			</g>
		</g>
	</g>
	<g>
		<g>
			<g>
				<circle fill="#FFFFFF" cx="68.456" cy="64.13" r="38.331"/>
			</g>
			<g>
				<path fill="#B6E3F2" d="M31.68,64.13c0-20.313,16.465-36.778,36.775-36.778c20.314,0,36.777,16.466,36.777,36.778
					c0,20.312-16.463,36.778-36.777,36.778C48.145,100.908,31.68,84.441,31.68,64.13z"/>
			</g>
			<g>
				<path fill="#FCD74D" d="M36.432,85.216c0,0,11.775,7.771,32.021,7.771c20.25,0,32.02-7.771,32.02-7.771
					c0,1.75,3.063,10.162,2.834,11.847c0,8.032-16.354,14.053-34.854,14.053c-18.586,0-34.896-6.281-34.896-14.31
					C33.354,95.205,36.432,86.877,36.432,85.216z"/>
			</g>
			<g>
				<ellipse fill="#F4F5F5" cx="68.456" cy="88.268" rx="31.921" ry="11.817"/>
			</g>
			<g>
				<g>
					<path fill="#F3C83C" d="M68.453,103.151c-15.873,0-30.078-4.583-33.887-10.923c-0.602,2.049-1.094,3.907-1.01,4.577
						c0,8.028,16.311,14.31,34.896,14.31c18.5,0,34.854-6.021,34.854-14.053c0.096-0.702-0.385-2.58-0.973-4.653
						C98.572,98.728,84.303,103.151,68.453,103.151z"/>
				</g>
				<g>
					<path fill="#FCD74D" d="M68.453,103.151c15.85,0,30.119-4.424,33.881-10.742c-0.824-2.894-1.861-6.173-1.861-7.193
						c0,0-11.77,7.771-32.02,7.771c-20.246,0-32.021-7.771-32.021-7.771c0,0.964-1.037,4.175-1.865,7.013
						C38.375,98.568,52.58,103.151,68.453,103.151z"/>
				</g>
			</g>
			<g>
				<g>
					<g>
						<g>
							<g>
								<rect x="78.525" y="54.967" fill="#D72128" width="4.912" height="7.097"/>
							</g>
						</g>
						<g>
							<g>
								<path fill="#F1F1F1" d="M81.441,57.343c2.039-0.091,3.631-0.057,3.572-1.464c-0.141-3.114-1.668-1.581-3.705-1.491
									c-2.037,0.091-3.814-1.295-3.678,1.82C77.701,57.769,79.402,57.435,81.441,57.343z"/>
							</g>
						</g>
						<g>
							<g>
								<polygon fill="#D72128" points="88.045,81.996 67.668,83.88 67.668,68.05 88.045,68.05 								"/>
							</g>
						</g>
						<g>
							<g>
								<path fill="#D4A074" d="M66.697,52.706c-1.455,0-10.188,12.129-10.188,12.129h20.377
									C76.887,64.835,68.152,52.706,66.697,52.706z"/>
							</g>
						</g>
						<g>
							<g>
								<polygon fill="#CC2128" points="56.51,78.785 67.668,83.88 67.668,68.05 56.51,64.835 								"/>
							</g>
						</g>
						<g>
							<g>
								<polygon fill="#D4A074" points="76.887,64.835 88.045,68.05 67.668,68.05 56.51,64.835 								"/>
							</g>
						</g>
						<g>
							<g>
								<path fill="#D72128" d="M77.859,55.922c-1.455,0-10.191,12.128-10.191,12.128h20.377
									C88.045,68.05,79.313,55.922,77.859,55.922z"/>
							</g>
						</g>
						<g>
							<defs>
								<path id="SVGID_3_" d="M79.594,59.032c-1.453-0.687-1.979,0.366-1.979,0.366c-3.512,6.223-6.285,8.14-8.004,8.651h16.463
									C83.035,66.168,80.736,59.569,79.594,59.032z"/>
							</defs>
							<clipPath id="SVGID_2_">
								<use xlink:href="#SVGID_3_"  overflow="visible"/>
							</clipPath>
							<g clip-path="url(#SVGID_2_)">
								<g>
									<polygon fill="#C12227" points="84.406,66.532 71.064,66.21 71.064,66.087 84.406,66.412 									"/>
								</g>
							</g>
							<g clip-path="url(#SVGID_2_)">
								<g>
									<polygon fill="#C12227" points="84.406,64.654 71.064,64.328 71.064,64.207 84.406,64.531 									"/>
								</g>
							</g>
							<g clip-path="url(#SVGID_2_)">
								<g>
									<polygon fill="#C12227" points="84.406,62.772 71.064,62.45 71.064,62.327 84.406,62.653 									"/>
								</g>
							</g>
							<g clip-path="url(#SVGID_2_)">
								<g>
									<g>
										<polygon fill="#C12227" points="84.406,60.893 71.064,60.57 71.064,60.45 84.406,60.773 										"/>
									</g>
								</g>
							</g>
						</g>
						<g>
							<defs>
								<polygon id="SVGID_5_" points="88.045,81.996 67.668,83.88 67.668,68.05 88.045,68.05 								"/>
							</defs>
							<clipPath id="SVGID_4_">
								<use xlink:href="#SVGID_5_"  overflow="visible"/>
							</clipPath>
							<g clip-path="url(#SVGID_4_)">
								<g>
									
										<rect x="67.425" y="70.042" transform="matrix(0.9999 0.0157 -0.0157 0.9999 1.1079 -1.2099)" fill="#C12227" width="20.622" height="0.062"/>
								</g>
							</g>
							<g clip-path="url(#SVGID_4_)">
								<g>
									
										<rect x="67.424" y="68.163" transform="matrix(0.9999 0.0158 -0.0158 0.9999 1.085 -1.2174)" fill="#C12227" width="20.622" height="0.061"/>
								</g>
							</g>
							<g clip-path="url(#SVGID_4_)">
								<g>
									
										<rect x="67.425" y="71.921" transform="matrix(0.9999 0.0157 -0.0157 0.9999 1.1408 -1.2133)" fill="#C12227" width="20.622" height="0.062"/>
								</g>
							</g>
							<g clip-path="url(#SVGID_4_)">
								<g>
									
										<rect x="67.425" y="73.801" transform="matrix(0.9999 0.0157 -0.0157 0.9999 1.1668 -1.2094)" fill="#C12227" width="20.622" height="0.061"/>
								</g>
							</g>
							<g clip-path="url(#SVGID_4_)">
								<g>
									
										<rect x="67.425" y="75.68" transform="matrix(0.9999 0.0156 -0.0156 0.9999 1.1927 -1.2056)" fill="#C12227" width="20.622" height="0.063"/>
								</g>
							</g>
							<g clip-path="url(#SVGID_4_)">
								<g>
									
										<rect x="67.425" y="77.56" transform="matrix(0.9999 0.0156 -0.0156 0.9999 1.2221 -1.2053)" fill="#C12227" width="20.622" height="0.063"/>
								</g>
							</g>
							<g clip-path="url(#SVGID_4_)">
								<g>
									
										<rect x="67.425" y="79.441" transform="matrix(0.9999 0.0156 -0.0156 0.9999 1.2514 -1.2051)" fill="#C12227" width="20.622" height="0.061"/>
								</g>
							</g>
							<g clip-path="url(#SVGID_4_)">
								<g>
									
										<rect x="67.425" y="81.321" transform="matrix(0.9999 0.0156 -0.0156 0.9999 1.2769 -1.2013)" fill="#C12227" width="20.622" height="0.062"/>
								</g>
							</g>
							<g clip-path="url(#SVGID_4_)">
								<g>
									
										<rect x="67.425" y="83.201" transform="matrix(0.9999 0.0157 -0.0157 0.9999 1.3182 -1.2119)" fill="#C12227" width="20.622" height="0.063"/>
								</g>
							</g>
						</g>
						<g>
							<g>
								<path fill="#BD2227" d="M85.943,77.313c0,0.398-0.326,0.723-0.723,0.723h-4.377c-0.4,0-0.723-0.324-0.723-0.723v-4.377
									c0-0.399,0.322-0.723,0.723-0.723h4.377c0.396,0,0.723,0.323,0.723,0.723V77.313z"/>
							</g>
						</g>
						<g>
							<g>
								<path fill="#E5D0C0" d="M85.398,76.905c0,0.322-0.264,0.585-0.588,0.585h-3.557c-0.324,0-0.588-0.263-0.588-0.585v-3.558
									c0-0.325,0.264-0.587,0.588-0.587h3.557c0.324,0,0.588,0.262,0.588,0.587V76.905z"/>
							</g>
						</g>
						<g>
							<g>
								<path fill="#BD2227" d="M78.182,82.86l-7.035,0.703V72.966c0-0.481,0.391-0.874,0.871-0.874h5.289
									c0.484,0,0.875,0.393,0.875,0.874V82.86z"/>
							</g>
						</g>
						<g>
							<g>
								<path fill="#DB2127" d="M77.633,82.356l-5.941,0.449v-9.42c0-0.407,0.33-0.736,0.736-0.736h4.471
									c0.404,0,0.734,0.329,0.734,0.736V82.356z"/>
							</g>
						</g>
						<g>
							<g>
								<circle fill="#BD2227" cx="76.554" cy="77.239" r="0.454"/>
							</g>
						</g>
						<g>
							<g>
								<rect x="82.861" y="72.661" fill="#D72128" width="0.461" height="4.97"/>
							</g>
						</g>
						<g>
							<g>
								<rect x="80.242" y="74.996" fill="#D72128" width="5.5" height="0.465"/>
							</g>
						</g>
						<g>
							<g>
								<path fill="#F1F1F1" d="M78.826,56.324c0,0-0.26-0.236-0.631-0.313c0.018-0.007,0.025-0.009,0.025-0.009
									s-10.672-3.438-11.117-3.479c-0.447-0.039-0.646,0.203-0.646,0.203s-0.863-0.361-9.213,11.077
									c-0.514,0.324-0.875,0.847-1.018,1.62c0,0,6.613,3.924,12.5,2.785c1.541-0.085,4.691-1.37,8.889-8.811
									c0,0,0.525-1.053,1.979-0.366c1.457,0.689,4.813,11.28,9.18,9.261C88.773,68.293,88.855,65.382,78.826,56.324z"/>
							</g>
						</g>
					</g>
				</g>
				<g opacity="0.4">
					<g>
						<path fill="#EBEBEC" d="M84.715,46.884c-0.211-0.941-0.916-1.643-1.781-1.891c0.072-0.371,0.068-0.763-0.02-1.154
							c-0.344-1.531-1.861-2.495-3.393-2.15c-1.529,0.344-2.492,1.862-2.15,3.393c0.135,0.609,0.461,1.129,0.896,1.515
							c-0.348,0.469-0.5,1.082-0.361,1.698c0.096,0.436,0.32,0.806,0.627,1.085c-0.336,0.466-0.477,1.067-0.344,1.672
							c0.254,1.126,1.373,1.837,2.5,1.583c0.094-0.021,0.18-0.049,0.266-0.082c0.457,0.303,1.029,0.424,1.605,0.295
							c1.129-0.254,1.838-1.372,1.586-2.499c-0.076-0.323-0.219-0.61-0.414-0.852C84.525,48.916,84.947,47.905,84.715,46.884z"/>
					</g>
				</g>
				<g opacity="0.4">
					<g>
						<path fill="#EBEBEC" d="M85.68,50.21c0.48-0.882,0.154-1.986-0.729-2.47c-0.539-0.292-1.162-0.286-1.672-0.03
							c-0.014-0.021-0.025-0.038-0.039-0.057c0.137-0.126,0.252-0.276,0.348-0.449c0.48-0.882,0.158-1.985-0.725-2.468
							s-1.986-0.157-2.471,0.725c-0.338,0.623-0.273,1.355,0.1,1.904c-0.133,0.125-0.252,0.275-0.348,0.449
							c-0.33,0.606-0.279,1.319,0.074,1.863c-0.09,0.099-0.166,0.208-0.234,0.328c-0.48,0.883-0.154,1.988,0.729,2.468
							c0.883,0.483,1.984,0.157,2.467-0.725c0.127-0.23,0.199-0.478,0.217-0.725C84.244,51.37,85.23,51.031,85.68,50.21z"/>
					</g>
				</g>
			</g>
			<g>
				<g>
					<g>
						<path fill="#BB813C" d="M55.305,80.503c0,1.056-0.096,1.912-0.807,1.912h-0.91c-0.709,0-0.803-0.856-0.803-1.912v-6.194
							c0-1.057,0.094-1.912,0.803-1.912h0.91c0.711,0,0.807,0.855,0.807,1.912V80.503z"/>
					</g>
					<g>
						<path fill="#C58540" d="M54.047,82.415h-0.459c-0.709,0-0.803-0.856-0.803-1.912v-6.194c0-1.057,0.094-1.912,0.803-1.912
							h0.494L54.047,82.415z"/>
					</g>
					<g>
						<polygon fill="#65A844" points="58.848,72.042 61.727,72.042 56.576,65.104 58.152,65.104 54.074,58.623 54.061,58.597 
							54.041,58.625 49.965,65.104 51.541,65.104 46.393,72.042 49.268,72.042 43.904,79.18 64.213,79.18 						"/>
					</g>
				</g>
				<g>
					<polygon fill="#EDC92C" points="54.686,57.69 55.322,57.069 54.447,56.944 54.049,56.146 53.662,56.944 52.781,57.069 
						53.42,57.69 53.266,58.565 53.869,58.249 53.791,59.017 54.33,59.017 54.252,58.258 54.84,58.565 					"/>
				</g>
				<g>
					<polygon fill="#FDDA47" points="54.049,56.146 53.662,56.944 52.781,57.069 53.42,57.69 53.266,58.565 53.869,58.249 
						53.791,59.017 54.072,59.017 					"/>
				</g>
			</g>
			<g>
				<g>
					<circle fill="#F4F5F5" cx="60.747" cy="45.588" r="1.554"/>
				</g>
				<g>
					<circle fill="#F4F5F5" cx="60.747" cy="57.631" r="1.554"/>
				</g>
				<g>
					<circle fill="#F4F5F5" cx="52.071" cy="40.797" r="1.554"/>
				</g>
				<g>
					<circle fill="#F4F5F5" cx="52.72" cy="52.321" r="1.554"/>
				</g>
				<g>
					<circle fill="#F4F5F5" cx="69.815" cy="40.797" r="1.554"/>
				</g>
				<g>
					<circle fill="#F4F5F5" cx="69.944" cy="52.321" r="1.554"/>
				</g>
				<g>
					<circle fill="#F4F5F5" cx="69.944" cy="75.373" r="1.554"/>
				</g>
				<g>
					<circle fill="#F4F5F5" cx="88.073" cy="40.797" r="1.554"/>
				</g>
				<g>
					<circle fill="#F4F5F5" cx="88.202" cy="52.321" r="1.554"/>
				</g>
				<g>
					<circle fill="#F4F5F5" cx="88.073" cy="63.588" r="1.554"/>
				</g>
				<g>
					<circle fill="#F4F5F5" cx="88.202" cy="75.112" r="1.554"/>
				</g>
				<g>
					<circle fill="#F4F5F5" cx="37.567" cy="52.321" r="1.554"/>
				</g>
				<g>
					<circle fill="#F4F5F5" cx="37.438" cy="63.588" r="1.554"/>
				</g>
				<g>
					<circle fill="#F4F5F5" cx="52.459" cy="63.588" r="1.555"/>
				</g>
				<g>
					<circle fill="#F4F5F5" cx="37.567" cy="75.112" r="1.554"/>
				</g>
				<g>
					<circle fill="#F4F5F5" cx="98.045" cy="46.105" r="1.555"/>
				</g>
				<g>
					<circle fill="#F4F5F5" cx="98.174" cy="57.63" r="1.555"/>
				</g>
				<g>
					<circle fill="#F4F5F5" cx="98.174" cy="69.026" r="1.555"/>
				</g>
				<g>
					<circle fill="#F4F5F5" cx="98.174" cy="81.198" r="1.555"/>
				</g>
				<g>
					<circle fill="#F4F5F5" cx="44.302" cy="46.105" r="1.554"/>
				</g>
				<g>
					<circle fill="#F4F5F5" cx="44.431" cy="57.63" r="1.554"/>
				</g>
				<g>
					<circle fill="#F4F5F5" cx="44.431" cy="69.026" r="1.554"/>
				</g>
				<g>
					<circle fill="#F4F5F5" cx="60.358" cy="33.932" r="1.554"/>
				</g>
				<g>
					<circle fill="#F4F5F5" cx="78.488" cy="45.588" r="1.555"/>
				</g>
				<g>
					<circle fill="#F4F5F5" cx="78.1" cy="33.932" r="1.555"/>
				</g>
				<g>
					<circle fill="#F4F5F5" cx="78.488" cy="69.676" r="1.555"/>
				</g>
				<g>
					<circle fill="#F4F5F5" cx="78.1" cy="58.021" r="1.555"/>
				</g>
			</g>
		</g>
		<g opacity="0.2">
			<g>
				<path fill="#CAEAF2" d="M42.451,90.136c-14.363-14.363-14.363-37.649-0.002-52.012C56.814,23.76,80.1,23.761,94.463,38.125
					C108.824,52.487,56.814,104.497,42.451,90.136z"/>
			</g>
		</g>
	</g>
</g>
</svg>
