<?xml version="1.0" encoding="utf-8"?>
<!-- Generator: Adobe Illustrator 16.0.0, SVG Export Plug-In . SVG Version: 6.00 Build 0)  -->
<!DOCTYPE svg PUBLIC "-//W3C//DTD SVG 1.1//EN" "http://www.w3.org/Graphics/SVG/1.1/DTD/svg11.dtd">
<svg version="1.1" id="Layer_1" xmlns="http://www.w3.org/2000/svg" xmlns:xlink="http://www.w3.org/1999/xlink" x="0px" y="0px"
	 width="136.913px" height="136.914px" viewBox="0 0 136.913 136.914" enable-background="new 0 0 136.913 136.914"
	 xml:space="preserve">
<g>
	<g>
		<circle fill="#D7DABA" cx="68.457" cy="68.458" r="63.333"/>
	</g>
	<g>
		<g>
			<g>
				<g>
					<g>
						<path fill="#A61E22" d="M64.397,41.636c0,0-7.842,4.227,2.271,13.045C66.668,54.681,49.938,46.147,64.397,41.636z"/>
					</g>
					<g>
						<g>
							<path fill="#C82127" d="M57.452,43.659c-2.725,4.955,7.975,11.715,7.975,11.715l1.242-0.693
								c-1.205-0.832-8.361-5.977-7.031-9.584c1.318-3.578,5.883-2.721,7.264,0.689c1.219,3.016,2.299,6.572,2.248,7.502l1.09-0.611
								c0,0,0.861-4.225-1.045-8.939C67.286,39.024,60,39.017,57.452,43.659z"/>
						</g>
					</g>
				</g>
				<g>
					<g>
						<path fill="#A61E22" d="M76.153,42.712c0,0,6.951,4.643-1.895,14.713C74.258,57.425,88.944,47.583,76.153,42.712z"/>
					</g>
					<g>
						<g>
							<path fill="#C82127" d="M82.297,44.888c2.441,5.539-6.938,13.301-6.938,13.301l-1.102-0.764
								c1.055-0.953,7.324-6.846,6.123-10.885c-1.193-4.01-5.213-2.979-6.402,0.879c-1.049,3.41-1.973,7.432-1.92,8.475
								l-0.967-0.672c0,0-0.795-4.742,0.848-10.074S80.01,39.7,82.297,44.888z"/>
						</g>
					</g>
				</g>
				<g>
					<g>
						<path fill="#A61E22" d="M73.387,36.202c0,0-10.789-0.045-5.133,15.613C68.254,51.815,55.393,32.534,73.387,36.202z"/>
					</g>
					<g>
						<g>
							<path fill="#C82127" d="M64.827,34.28c-5.766,3.799,1.703,17.557,1.703,17.557l1.725-0.021
								c-0.801-1.625-5.438-11.508-1.936-14.66c3.475-3.129,7.836,0.525,7.33,5.074c-0.447,4.021-1.359,8.555-1.951,9.541
								l1.514-0.021c0,0,3.363-4.104,4.063-10.393S70.227,30.722,64.827,34.28z"/>
						</g>
					</g>
				</g>
				<g>
					<g>
						<g>
							<g>
								<path fill="#C82127" d="M90.918,55.915c-3.799,5.766-17.557-1.703-17.557-1.703l0.021-1.725
									c1.625,0.801,11.328,5.27,14.66,1.938c1.109-1.111-1.539-7.27-5.074-7.332c-4.047-0.07-9.264,1.309-13.682,8.559
									l0.021-4.156c0,0,8.244-7.328,14.533-8.027S94.477,50.517,90.918,55.915z"/>
							</g>
						</g>
					</g>
					<g>
						<path fill="#A61E22" d="M69.288,55.651c0,0,4.984-9.477,14.801-8.344c0,0-4.273-1.203-6.871-0.662
							c-1.359,0.283-5.607,2.549-7.908,4.85L69.288,55.651z"/>
					</g>
				</g>
				<g>
					<g>
						<g>
							<g>
								<path fill="#C82127" d="M50.176,57.728c4.744,5.016,16.992-4.732,16.992-4.732L66.846,51.3
									c-1.461,1.072-10.238,7.16-14.1,4.459c-1.285-0.9,0.25-7.426,3.721-8.102c3.975-0.775,9.352-0.324,14.963,6.045
									l-0.744-4.088c0,0-9.395-5.781-15.709-5.375S45.731,53.03,50.176,57.728z"/>
							</g>
						</g>
					</g>
					<g>
						<path fill="#A61E22" d="M71.43,53.702c0,0-6.557-8.465-16.027-5.641c0,0,4-1.928,6.652-1.848
							c1.387,0.043,5.965,1.535,8.631,3.4L71.43,53.702z"/>
					</g>
				</g>
			</g>
			<g>
				<path fill="#65A844" d="M102.864,61.075H34.049c-1.182,0-2.141,0.959-2.141,2.143v38.556c0,1.182,0.959,2.141,2.141,2.141
					h34.338h0.141h34.336c1.184,0,2.141-0.958,2.141-2.141V63.218C105.004,62.036,104.047,61.075,102.864,61.075z"/>
			</g>
			<g>
				<path fill="#5D9340" d="M102.864,61.075H68.532l0.006,42.839h34.326c1.184,0,2.141-0.958,2.141-2.141V63.218
					C105.004,62.036,104.047,61.075,102.864,61.075z"/>
			</g>
			<g>
				<path fill="#55893E" d="M105.209,58.597l-36.678-6.994v-0.029l-0.074,0.014l-0.076-0.014v0.029l-36.678,6.994
					c-1.262,0-2.287,1.023-2.287,2.287v6.752c0,1.262,1.025,2.287,2.287,2.287l36.754-7.01l36.752,7.01
					c1.264,0,2.287-1.023,2.287-2.287v-6.752C107.497,59.62,106.473,58.597,105.209,58.597z"/>
			</g>
			<g>
				<path fill="#5D9340" d="M107.497,66.39c0,1.264,0.076,2.363-0.83,2.287l-38.285-7.023V50.327l36.828,7.023
					c1.264,0,2.287,1.023,2.287,2.287V66.39z"/>
			</g>
			<g>
				<path fill="#65A844" d="M29.417,59.638c0-1.264,1.025-2.287,2.287-2.287l36.828-7.023v11.326l-38.436,7.326
					c-0.68,0-0.68-1.328-0.68-2.59V59.638z"/>
			</g>
			<g>
				<g>
					<polygon fill="#C82127" points="93.301,103.883 82.426,103.883 82.426,65.562 83.106,64.524 94.057,66.563 93.301,67.601 					
						"/>
				</g>
				<g>
					<polygon fill="#BE2026" points="82.426,65.562 83.106,64.524 94.057,66.563 93.301,67.599 					"/>
				</g>
				<g>
					<polygon fill="#C82127" points="94.057,55.198 83.106,53.083 83.106,64.524 94.057,66.563 					"/>
				</g>
			</g>
			<g>
				<g>
					<polygon fill="#D62127" points="43.143,103.883 54.016,103.883 54.016,65.62 53.336,64.524 42.387,66.562 43.143,67.657 					
						"/>
				</g>
				<g>
					<polygon fill="#BE2026" points="54.016,65.62 53.336,64.524 42.387,66.562 43.143,67.657 					"/>
				</g>
				<g>
					<polygon fill="#D62127" points="42.387,55.312 53.364,53.216 53.336,64.524 42.387,66.562 					"/>
				</g>
			</g>
		</g>
	</g>
</g>
</svg>
