<?xml version="1.0" encoding="utf-8"?>
<!-- Generator: Adobe Illustrator 16.0.0, SVG Export Plug-In . SVG Version: 6.00 Build 0)  -->
<!DOCTYPE svg PUBLIC "-//W3C//DTD SVG 1.1//EN" "http://www.w3.org/Graphics/SVG/1.1/DTD/svg11.dtd">
<svg version="1.1" id="Layer_1" xmlns="http://www.w3.org/2000/svg" xmlns:xlink="http://www.w3.org/1999/xlink" x="0px" y="0px"
	 width="136.913px" height="136.914px" viewBox="0 0 136.913 136.914" enable-background="new 0 0 136.913 136.914"
	 xml:space="preserve">
<g>
	<g>
		<circle fill="#D62127" cx="68.457" cy="68.458" r="63.333"/>
	</g>
	<g>
		<g>
			<g>
				<path fill="#EAE744" d="M68.194,28.39c-4.408,0-7.982,3.574-7.982,7.982s3.574,7.98,7.982,7.98c4.406,0,7.98-3.572,7.98-7.98
					S72.6,28.39,68.194,28.39z M68.305,42.019c-2.682,0-4.857-2.174-4.857-4.855s2.176-4.855,4.857-4.855s4.857,2.174,4.857,4.855
					S70.987,42.019,68.305,42.019z"/>
			</g>
		</g>
		<g>
			<path fill="#E3A93F" d="M34.983,99.546c0,0,13.482,8.979,33.211,8.979c19.727,0,33.855-8.979,33.855-8.979
				S84.004,93.22,68.194,93.22C52.379,93.22,34.983,99.546,34.983,99.546z"/>
		</g>
		<g>
			<path fill="#DDD555" d="M75.27,98.415c0,4.076-3.301,7.379-7.379,7.379c-4.074,0-7.379-3.303-7.379-7.379
				s3.305-7.379,7.379-7.379C71.969,91.036,75.27,94.339,75.27,98.415z"/>
		</g>
		<g>
			<path fill="#EAE744" d="M68.258,39.341c-24.445,0-21.51,22.301-25.693,38.783c-0.164,0.643-4.061,3.027-6.07,7.344
				c-2.012,4.32-1.658,14.078-1.512,14.078c0.613,0,20.861-4.818,33.211-4.818c12.346,0,33.855,5.131,33.855,5.131
				s0.035-10.988-1.953-14.506c-1.986-3.516-5.73-6.189-5.908-6.883C89.918,61.858,92.706,39.341,68.258,39.341z"/>
		</g>
		<g>
			<g>
				<path fill="#F7F189" d="M69.289,46.322v2.948l4.422-2.456v2.358l-4.422,2.653v2.652l4.422-2.554v5.207l2.358-1.375v-5.209
					l2.162-1.179v5.209l2.948-1.771l1.081,1.868l-3.046,1.768l4.52,2.555l-1.965,1.18l-4.716-2.652l-2.358,1.473l4.618,2.556
					l-4.618,2.653l2.358,1.375l4.816-2.456l1.866,1.081l-4.52,2.652l3.046,1.67l-0.982,1.77l-3.046-1.77v5.111l-2.162-1.081v-5.111
					l-2.358-1.472v5.108l-4.422-2.456v2.751l4.422,2.555v2.261l-4.422-2.653v3.438h-2.26v-3.438l-4.519,2.653v-2.261l4.519-2.555
					v-2.751l-4.619,2.456v-5.108l-2.357,1.472v5.111l-1.965,1.081v-5.111l-3.145,1.77l-0.982-1.77l3.045-1.67l-4.422-2.652
					l1.769-1.081l4.815,2.456l2.358-1.375l-4.618-2.653l4.618-2.556l-2.358-1.473l-4.815,2.652l-1.966-1.18l4.521-2.555
					l-2.849-1.768l0.983-1.868l3.046,1.771v-5.209l1.965,1.179v5.209l2.357,1.375v-5.207l4.619,2.554v-2.652l-4.519-2.653v-2.358
					l4.519,2.456v-2.948H69.289z M61.231,61.554l2.456,1.376l2.457-1.376l-2.457-1.277L61.231,61.554z M64.474,55.953v2.652
					l2.554,1.376v-2.948L64.474,55.953z M64.474,67.253l2.554-1.081v-2.947l-2.554,1.277V67.253z M69.289,57.033v2.948l2.457-1.573
					v-2.455L69.289,57.033z M69.289,66.172l2.457,1.081v-2.456l-2.457-1.572V66.172z M70.468,61.554l2.357,1.376l2.457-1.376
					l-2.457-1.277L70.468,61.554z"/>
			</g>
		</g>
	</g>
</g>
</svg>
