<?xml version="1.0" encoding="utf-8"?>
<!-- Generator: Adobe Illustrator 16.0.0, SVG Export Plug-In . SVG Version: 6.00 Build 0)  -->
<!DOCTYPE svg PUBLIC "-//W3C//DTD SVG 1.1//EN" "http://www.w3.org/Graphics/SVG/1.1/DTD/svg11.dtd">
<svg version="1.1" id="Layer_1" xmlns="http://www.w3.org/2000/svg" xmlns:xlink="http://www.w3.org/1999/xlink" x="0px" y="0px"
	 width="136.914px" height="136.914px" viewBox="0 0 136.914 136.914" enable-background="new 0 0 136.914 136.914"
	 xml:space="preserve">
<g>
	<g>
		<g>
			<circle fill="#49A0AE" cx="68.457" cy="68.457" r="63.333"/>
		</g>
	</g>
	<g>
		<g>
			<g>
				<path fill="#E5E0CE" d="M100.194,82.198c0,18.693-14.343,33.842-32.039,33.842c-17.695,0-32.039-15.148-32.039-33.842
					c0-18.682,14.344-33.832,32.039-33.832C85.852,48.366,100.194,63.517,100.194,82.198z"/>
			</g>
			<g>
				<path fill="#E9C29C" d="M98.241,69.198c0,16.623-13.469,30.093-30.086,30.093s-30.087-13.47-30.087-30.093
					c0-16.613,13.47-30.085,30.087-30.085S98.241,52.585,98.241,69.198z"/>
			</g>
			<g>
				<path fill="#E5E0CE" d="M65.91,51.09c0,0-7.771,10.447-14.952,15.132c-6.927,4.52-15.061,6.372-15.061,6.372
					c-1.702-11.014,5.845-21.324,16.86-23.027C63.773,47.862,65.91,51.09,65.91,51.09z"/>
			</g>
			<g>
				<path fill="#E5E0CE" d="M61.976,51.448c0,0,16.799,10.089,23.98,14.773c6.927,4.52,15.061,6.372,15.061,6.372
					c1.702-11.014-5.845-21.324-16.86-23.027C73.141,47.862,61.976,51.448,61.976,51.448z"/>
			</g>
			<g>
				<ellipse fill="#343433" cx="59.138" cy="73.672" rx="4.122" ry="4.354"/>
			</g>
			<g>
				<ellipse fill="#343433" cx="77.001" cy="73.672" rx="4.123" ry="4.354"/>
			</g>
			<g>
				<path fill="#FFFFFF" d="M79.935,72.02c0,0.96-0.735,1.744-1.647,1.744c-0.906,0-1.645-0.784-1.645-1.744
					c0-0.963,0.738-1.74,1.645-1.74C79.199,70.279,79.935,71.057,79.935,72.02z"/>
			</g>
			<g>
				<path fill="#FFFFFF" d="M62.029,72.02c0,0.96-0.736,1.744-1.649,1.744c-0.91,0-1.647-0.784-1.647-1.744
					c0-0.963,0.737-1.74,1.647-1.74C61.293,70.279,62.029,71.057,62.029,72.02z"/>
			</g>
			<g>
				<path fill="#E5E0CE" d="M80.712,94.584c0,0-5.44-1.526-8.015-3.011c-2.572-1.482-4.556-3.941-4.556-3.941
					s-1.023,1.999-4.381,4.205c-3.358,2.207-8.162,2.747-8.162,2.747c0-6.933,5.622-12.556,12.557-12.556
					C75.091,82.028,80.712,87.651,80.712,94.584z"/>
			</g>
		</g>
		<g>
			<path fill="#D62127" d="M45.079,49.213l47.203,1.877c0,0-15.438-13.896-12.962-16.627c2.637-2.906,13.816,6.815,14.169,6.079
				c0.353-0.737-1.832-6.795-11.846-13.231c-6.75-4.339-18.126-6.148-23.064-2.325C50.265,31.422,45.079,49.213,45.079,49.213z"/>
		</g>
		<g>
			<path fill="#F1EDCD" d="M95.411,56.453c0,0-2.104-15.019-27.516-15.019S41.081,56.453,41.081,56.453s14.418-4.111,26.814-4.111
				C80.29,52.342,95.411,56.453,95.411,56.453z"/>
		</g>
		<g>
			<circle fill="#F1EDCD" cx="94.965" cy="41.973" r="3.844"/>
		</g>
		<g>
			<polygon fill="#E5E0CE" points="52.955,65.901 53.358,67.538 62.807,68.565 63.414,65.564 			"/>
		</g>
		<g>
			<polygon fill="#E5E0CE" points="83.439,65.901 83.035,67.538 73.588,68.565 72.979,65.564 			"/>
		</g>
		<g>
			<path fill="#DDB391" d="M70.783,77.777c0,0,4.829,4.559,3.295,7.113c-1.532,2.554-10.581,2.645-11.879,0
				c-1.299-2.644,3.3-7.113,3.3-7.113H70.783z"/>
		</g>
		<g>
			<path fill="#E9C29C" d="M70.559,77.464c0,0,4.41,4.469,3.01,6.974c-1.4,2.504-9.666,2.591-10.853,0
				c-1.187-2.592,3.015-6.974,3.015-6.974H70.559z"/>
		</g>
	</g>
</g>
</svg>
