<?xml version="1.0" encoding="utf-8"?>
<!-- Generator: Adobe Illustrator 16.0.0, SVG Export Plug-In . SVG Version: 6.00 Build 0)  -->
<!DOCTYPE svg PUBLIC "-//W3C//DTD SVG 1.1//EN" "http://www.w3.org/Graphics/SVG/1.1/DTD/svg11.dtd">
<svg version="1.1" id="Layer_1" xmlns="http://www.w3.org/2000/svg" xmlns:xlink="http://www.w3.org/1999/xlink" x="0px" y="0px"
	 width="136.913px" height="136.914px" viewBox="0 0 136.913 136.914" enable-background="new 0 0 136.913 136.914"
	 xml:space="preserve">
<g>
	<g>
		<g>
			<g>
				<g>
					<g>
						<circle fill="#D62127" cx="68.457" cy="68.457" r="63.335"/>
					</g>
				</g>
			</g>
		</g>
	</g>
	<g>
		<g>
			<path fill="#BB813C" d="M106.228,63.838c0-6.624-6.463-9.362-21.119-10.303c1.371-2.675,2.152-5.701,2.152-8.914
				c0-10.794-8.752-19.546-19.547-19.546s-19.545,8.752-19.545,19.546c0,3.252,0.799,6.314,2.203,9.012
				c-13.645,1.025-19.688,3.801-19.688,10.205c0,6.237,5.729,9.03,18.629,10.119l-6.27,20.178c0,0-12.539-4.921-11.492,8.021
				C32.599,115.1,61.3,113.447,62.29,106.62l3.463-15.401h3.355l2.137,15.401c0.988,6.827,29.691,8.479,30.736-4.464
				c1.045-12.942-11.492-8.021-11.492-8.021l-5.928-19.96C99.603,73.269,106.228,70.542,106.228,63.838z"/>
		</g>
		<g>
			<g>
				<g>
					<ellipse fill="#D19656" cx="60.653" cy="41.292" rx="4.115" ry="4.347"/>
				</g>
				<g>
					<ellipse fill="#D19656" cx="74.425" cy="41.292" rx="4.115" ry="4.347"/>
				</g>
				<g>
					<path fill="#754D29" d="M76.819,41.284c0,1.324-1.016,2.403-2.271,2.403c-1.248,0-2.266-1.079-2.266-2.403
						c0-1.325,1.018-2.394,2.266-2.394C75.804,38.891,76.819,39.959,76.819,41.284z"/>
				</g>
				<g>
					<path fill="#754D29" d="M63.134,41.284c0,1.324-1.016,2.403-2.273,2.403c-1.256,0-2.273-1.079-2.273-2.403
						c0-1.325,1.018-2.394,2.273-2.394C62.118,38.891,63.134,39.959,63.134,41.284z"/>
				</g>
			</g>
		</g>
		<g>
			<g>
				<path fill="#754D29" d="M67.101,53.285c-3.602,0-5.904-3.153-6.002-3.286c-0.338-0.471-0.23-1.128,0.242-1.466
					c0.471-0.337,1.125-0.23,1.463,0.238c0.031,0.04,1.797,2.412,4.297,2.412c2.533,0,4.746-2.466,4.768-2.491
					c0.383-0.435,1.047-0.476,1.482-0.093c0.436,0.382,0.479,1.044,0.096,1.48C73.331,50.21,70.591,53.285,67.101,53.285z"/>
			</g>
		</g>
		<g>
			<path fill="#D62127" d="M62.64,55.014c1.023-0.704,9.342,6.207,10.238,5.12c0.896-1.09,0.928-3.938-0.064-4.929
				c-0.99-0.992-8.895,5.312-9.92,4.799C61.87,59.493,61.614,55.716,62.64,55.014z"/>
		</g>
		<g>
			<g>
				<g>
					<circle fill="#754D29" cx="67.374" cy="63" r="1.217"/>
				</g>
				<g>
					<circle fill="#A87D50" cx="67.374" cy="63" r="0.541"/>
				</g>
			</g>
			<g>
				<g>
					<circle fill="#754D29" cx="67.374" cy="66.448" r="1.217"/>
				</g>
				<g>
					<circle fill="#A87D50" cx="67.374" cy="66.448" r="0.541"/>
				</g>
			</g>
			<g>
				<g>
					<circle fill="#754D29" cx="67.374" cy="69.963" r="1.217"/>
				</g>
				<g>
					<circle fill="#A87D50" cx="67.374" cy="69.963" r="0.541"/>
				</g>
			</g>
		</g>
		<g>
			<g>
				<path fill="#FFFFFF" d="M48.099,110.385c-3.953,0-7.605-0.803-10.285-2.263c-3.252-1.771-4.973-4.447-4.973-7.732
					c0-4.53,2.449-5.479,4.502-5.479c2.381,0,5.047,1.277,6.211,1.906l7.629-24.251c-5.258-0.495-9.881-1.021-13.285-2.145
					c-3.955-1.305-5.877-3.384-5.877-6.353c0-6.743,8.625-8.066,20.035-8.953c-1.188-2.554-2.283-6.324-2.283-9.262
					c0-10.866,7.689-19.064,17.885-19.064c10.246,0,17.971,8.198,17.971,19.064c0,2.976-1.285,6.087-2.414,8.375
					c12.93,0.889,21.486,2.958,21.486,9.84c0,6.659-8.602,7.829-21.791,8.724l6.645,23.691c1.018-0.318,3.289-0.939,5.51-0.939
					c3.619,0,5.611,1.72,5.611,4.846c0,7.194-7.973,9.746-14.797,9.746c-5.875,0-12.244-1.842-13.055-5.363l-2.82-15.706
					l-5.268,0.188l-4.064,15.97C59.892,108.607,53.757,110.385,48.099,110.385z M37.343,95.986c-2.305,0-3.424,1.44-3.424,4.403
					c0,6.582,7.637,8.919,14.18,8.919c6.002,0,10.955-1.864,11.525-4.34l4.268-16.76l7.008-0.251l2.979,16.598
					c0.578,2.514,5.852,4.504,12,4.504c6.328,0,13.719-2.271,13.719-8.67c0-2.536-1.482-3.77-4.533-3.77
					c-2.732,0-5.662,1.047-5.693,1.058l-0.547,0.196l-0.152-0.558l-7.156-25.51l0.662-0.047c12.955-0.858,21.445-1.858,21.445-7.691
					c0-5.295-6.166-7.85-21.289-8.818l-0.818-0.052l0.373-0.731c1.143-2.227,2.662-5.543,2.662-8.613
					c0-10.253-7.262-17.987-16.893-17.987c-9.582,0-16.809,7.734-16.809,17.987c0,3.057,1.266,7.089,2.518,9.489l0.377,0.725
					l-0.814,0.061c-13.152,0.991-19.832,2.49-19.832,7.94c0,5.333,7.463,6.427,18.85,7.487l0.664,0.062l-8.436,26.81l-0.586-0.356
					C43.554,98.049,40.126,95.986,37.343,95.986z"/>
			</g>
		</g>
	</g>
</g>
</svg>
