<?xml version="1.0" encoding="utf-8"?>
<!-- Generator: Adobe Illustrator 16.0.0, SVG Export Plug-In . SVG Version: 6.00 Build 0)  -->
<!DOCTYPE svg PUBLIC "-//W3C//DTD SVG 1.1//EN" "http://www.w3.org/Graphics/SVG/1.1/DTD/svg11.dtd">
<svg version="1.1" id="Layer_1" xmlns="http://www.w3.org/2000/svg" xmlns:xlink="http://www.w3.org/1999/xlink" x="0px" y="0px"
	 width="136.914px" height="136.914px" viewBox="0 0 136.914 136.914" enable-background="new 0 0 136.914 136.914"
	 xml:space="preserve">
<g>
	<g>
		<g>
			<circle fill="#D7DABA" cx="68.457" cy="68.457" r="63.333"/>
		</g>
	</g>
	<g>
		<g>
			<g>
				<g>
					<path fill="#F1EDCD" d="M98.544,80.924c0,16.623-13.469,30.093-30.087,30.093c-16.616,0-30.086-13.47-30.086-30.093
						c0-16.613,13.47-30.085,30.086-30.085C85.075,50.839,98.544,64.311,98.544,80.924z"/>
				</g>
				<g>
					<ellipse fill="#343433" cx="59.439" cy="78.397" rx="4.122" ry="4.354"/>
				</g>
				<g>
					<ellipse fill="#343433" cx="77.304" cy="78.397" rx="4.122" ry="4.354"/>
				</g>
				<g>
					<path fill="#FFFFFF" d="M80.237,76.745c0,0.96-0.735,1.744-1.648,1.744c-0.905,0-1.645-0.784-1.645-1.744
						c0-0.963,0.739-1.74,1.645-1.74C79.502,75.005,80.237,75.782,80.237,76.745z"/>
				</g>
				<g>
					<path fill="#FFFFFF" d="M62.332,76.745c0,0.96-0.736,1.744-1.65,1.744c-0.909,0-1.647-0.784-1.647-1.744
						c0-0.963,0.738-1.74,1.647-1.74C61.596,75.005,62.332,75.782,62.332,76.745z"/>
				</g>
			</g>
		</g>
		<g>
			<g>
				<circle fill="#343433" cx="61.635" cy="98.565" r="1.25"/>
			</g>
			<g>
				<circle fill="#343433" cx="75.302" cy="98.565" r="1.25"/>
			</g>
			<g>
				<circle fill="#343433" cx="68.468" cy="100.856" r="1.25"/>
			</g>
			<g>
				<circle fill="#343433" cx="71.968" cy="100.169" r="1.25"/>
			</g>
			<g>
				<circle fill="#343433" cx="64.968" cy="100.169" r="1.25"/>
			</g>
		</g>
		<g>
			<path fill="#343433" d="M87.931,58.277c0,4.55-4.456,2.746-9.954,2.746H57.793c-5.498,0-9.954,1.804-9.954-2.746l-4.454-27.92
				c0-4.55,5.446-4.459,12.165-4.459h24.67c6.719,0,12.165-0.091,12.165,4.459L87.931,58.277z"/>
		</g>
		<g>
			<path fill="#343433" d="M95.714,68.179c0,0,9.671-14.952-21.709-14.952c-1.999-0.044-4.821-0.066-5.808-0.066
				c-1.092,0-5.075,0.027-7.265,0.08c-31.215,0-19.55,14.938-19.55,14.938s14.418-4.111,26.814-4.111
				C80.593,64.067,95.714,68.179,95.714,68.179z"/>
		</g>
		<g>
			<g>
				<path fill="#D62127" d="M68.197,53.16c0.986,0,3.809,0.022,5.808,0.066c6.38,0,11.063,0.618,14.476,1.603l0.612-3.494
					c-3.492-1.028-8.549-1.679-15.088-1.679c-1.999-0.044-4.821-0.066-5.808-0.066c-1.092,0-5.075,0.027-7.265,0.08
					c-6.179,0-10.98,0.587-14.278,1.525l0.613,3.5c3.222-0.897,7.643-1.455,13.665-1.455C63.122,53.188,67.105,53.16,68.197,53.16z"
					/>
			</g>
		</g>
		<g>
			<g>
				<circle fill="#F37C2A" cx="68.51" cy="88.023" r="5.708"/>
			</g>
			<g>
				<circle fill="#EC722F" cx="68.51" cy="88.023" r="3.625"/>
			</g>
			<g>
				<circle fill="#E56E2B" cx="68.51" cy="88.023" r="1.042"/>
			</g>
		</g>
	</g>
</g>
</svg>
