<?xml version="1.0" encoding="utf-8"?>
<!-- Generator: Adobe Illustrator 16.0.0, SVG Export Plug-In . SVG Version: 6.00 Build 0)  -->
<!DOCTYPE svg PUBLIC "-//W3C//DTD SVG 1.1//EN" "http://www.w3.org/Graphics/SVG/1.1/DTD/svg11.dtd">
<svg version="1.1" id="Layer_1" xmlns="http://www.w3.org/2000/svg" xmlns:xlink="http://www.w3.org/1999/xlink" x="0px" y="0px"
	 width="136.913px" height="136.914px" viewBox="0 0 136.913 136.914" enable-background="new 0 0 136.913 136.914"
	 xml:space="preserve">
<g>
	<g>
		<g>
			<polygon fill="none" points="51.25,7.508 51.25,7.508 51.25,7.508 			"/>
		</g>
	</g>
	<g>
		<g>
			<g>
				<circle fill="#357180" cx="68.457" cy="68.457" r="63.332"/>
			</g>
			<g>
				<path fill="#EFF8F9" d="M49.554,108.357c3.678,0.072,7.428,1.361,10.625,4.137c4.928-3.488,11.709-4.525,17.898-1.551
					c3.539-2.316,7.996-3.311,12.373-2.469c2.867-2.258,6.457-3.629,10.201-3.828c5.496-2.412,12.361-1.971,17.811,2.652
					c2.305-2.965,4.354-6.137,6.109-9.486c-2.602-1.82-5.365-2.855-8.104-3.223c-5.684-6.436-13.623-7.328-19.816-4.609
					c-3.744,0.197-7.334,1.57-10.201,3.826c-4.377-0.84-8.834,0.152-12.373,2.471c-6.189-2.975-12.971-1.939-17.898,1.549
					c-3.197-2.773-6.947-4.064-10.625-4.137c-9.688-9.592-22.998-6.119-28.402,2.57c-0.691,0.266-1.365,0.57-2.016,0.916
					c-1.414-1.189-2.914-2.104-4.457-2.785c2.695,5.992,6.285,11.494,10.613,16.322C26.783,102.184,39.949,98.846,49.554,108.357z"
					/>
			</g>
			<g>
				<g>
					<g>
						<g>
							<rect x="81.98" y="46.641" fill="#D72128" width="11.057" height="15.971"/>
						</g>
						<g>
							<path fill="#F1F1F1" d="M88.542,51.986c4.586-0.203,8.18-0.129,8.039-3.297c-0.313-7.01-3.748-3.557-8.336-3.354
								c-4.588,0.205-8.588-2.916-8.275,4.092C80.126,52.949,83.955,52.191,88.542,51.986z"/>
						</g>
						<g>
							<polygon fill="#D72128" points="103.412,107.486 57.542,111.717 57.542,76.088 103.412,76.088 							"/>
						</g>
						<g>
							<path fill="#D4A074" d="M55.359,41.551c-3.275,0-22.934,27.303-22.934,27.303h45.867
								C78.292,68.854,58.636,41.551,55.359,41.551z"/>
						</g>
						<g>
							<polygon fill="#CC2128" points="32.425,100.25 57.542,111.717 57.542,76.088 32.425,68.854 							"/>
						</g>
						<g>
							<polygon fill="#D4A074" points="78.292,68.854 103.412,76.088 57.542,76.088 32.425,68.854 							"/>
						</g>
						<g>
							<path fill="#D72128" d="M80.478,48.785c-3.277,0-22.936,27.303-22.936,27.303h45.869
								C103.412,76.088,83.753,48.785,80.478,48.785z"/>
						</g>
						<g>
							<defs>
								<path id="SVGID_7_" d="M84.39,55.793c-3.275-1.547-4.459,0.818-4.459,0.818c-7.898,14.008-14.15,18.326-18.018,19.477H98.97
									C92.132,71.852,86.953,57.004,84.39,55.793z"/>
							</defs>
							<clipPath id="SVGID_2_">
								<use xlink:href="#SVGID_7_"  overflow="visible"/>
							</clipPath>
							<g clip-path="url(#SVGID_2_)">
								<polygon fill="#C12227" points="95.22,72.676 65.187,71.947 65.189,71.674 95.224,72.402 								"/>
							</g>
							<g clip-path="url(#SVGID_2_)">
								<polygon fill="#C12227" points="95.22,68.443 65.187,67.715 65.189,67.441 95.224,68.17 								"/>
							</g>
							<g clip-path="url(#SVGID_2_)">
								<polygon fill="#C12227" points="95.22,64.211 65.187,63.482 65.189,63.209 95.224,63.938 								"/>
							</g>
							<g clip-path="url(#SVGID_2_)">
								<g>
									<polygon fill="#C12227" points="95.22,59.979 65.187,59.25 65.189,58.979 95.224,59.707 									"/>
								</g>
							</g>
						</g>
						<g>
							<defs>
								<polygon id="SVGID_9_" points="103.412,107.486 57.542,111.717 57.542,76.088 103.412,76.088 								"/>
							</defs>
							<clipPath id="SVGID_4_">
								<use xlink:href="#SVGID_9_"  overflow="visible"/>
							</clipPath>
							<g clip-path="url(#SVGID_4_)">
								
									<rect x="56.995" y="80.138" transform="matrix(0.9999 0.0157 -0.0157 0.9999 1.2754 -1.2488)" fill="#C12227" width="46.42" height="1"/>
							</g>
							<g clip-path="url(#SVGID_4_)">
								
									<rect x="56.995" y="75.906" transform="matrix(0.9999 0.0157 -0.0157 0.9999 1.2057 -1.246)" fill="#C12227" width="46.42" height="1"/>
							</g>
							<g clip-path="url(#SVGID_4_)">
								
									<rect x="56.995" y="84.37" transform="matrix(0.9999 0.0157 -0.0157 0.9999 1.3418 -1.2483)" fill="#C12227" width="46.42" height="1"/>
							</g>
							<g clip-path="url(#SVGID_4_)">
								
									<rect x="56.995" y="88.602" transform="matrix(0.9999 0.0157 -0.0157 0.9999 1.4044 -1.2444)" fill="#C12227" width="46.42" height="1"/>
							</g>
							<g clip-path="url(#SVGID_4_)">
								
									<rect x="56.995" y="92.835" transform="matrix(0.9999 0.0157 -0.0157 0.9999 1.4747 -1.2472)" fill="#C12227" width="46.42" height="1"/>
							</g>
							<g clip-path="url(#SVGID_4_)">
								
									<rect x="56.995" y="97.065" transform="matrix(0.9999 0.0157 -0.0157 0.9999 1.5411 -1.2467)" fill="#C12227" width="46.42" height="1"/>
							</g>
							<g clip-path="url(#SVGID_4_)">
								
									<rect x="56.995" y="101.298" transform="matrix(0.9999 0.0157 -0.0157 0.9999 1.6075 -1.2462)" fill="#C12227" width="46.42" height="1"/>
							</g>
							<g clip-path="url(#SVGID_4_)">
								
									<rect x="56.995" y="105.529" transform="matrix(0.9999 0.0157 -0.0157 0.9999 1.6694 -1.2424)" fill="#C12227" width="46.42" height="1"/>
							</g>
							<g clip-path="url(#SVGID_4_)">
								
									<rect x="56.995" y="109.761" transform="matrix(0.9999 0.0157 -0.0157 0.9999 1.7403 -1.2452)" fill="#C12227" width="46.42" height="1"/>
							</g>
						</g>
						<g>
							<path fill="#BD2227" d="M98.679,96.939c0,0.898-0.729,1.627-1.627,1.627h-9.852c-0.898,0-1.627-0.729-1.627-1.627v-9.852
								c0-0.898,0.729-1.627,1.627-1.627h9.852c0.898,0,1.627,0.729,1.627,1.627V96.939z"/>
						</g>
						<g>
							<path fill="#E5D0C0" d="M97.451,96.016c0,0.73-0.592,1.322-1.322,1.322h-8.004c-0.73,0-1.322-0.592-1.322-1.322v-8.004
								c0-0.729,0.592-1.32,1.322-1.32h8.004c0.73,0,1.322,0.592,1.322,1.32V96.016z"/>
						</g>
						<g>
							<path fill="#BD2227" d="M81.205,108.83l-15.834,1.295V87.154c0-1.086,0.879-1.965,1.965-1.965H79.24
								c1.086,0,1.965,0.879,1.965,1.965V108.83z"/>
						</g>
						<g>
							<path fill="#DB2127" d="M79.976,107.508l-13.377,1.572V88.102c0-0.918,0.744-1.662,1.66-1.662h10.057
								c0.918,0,1.66,0.744,1.66,1.662V107.508z"/>
						</g>
						<g>
							<circle fill="#BD2227" cx="77.542" cy="96.77" r="1.023"/>
						</g>
						<g>
							<rect x="91.738" y="86.467" fill="#D72128" width="1.043" height="11.184"/>
						</g>
						<g>
							<rect x="85.847" y="91.725" fill="#D72128" width="12.377" height="1.043"/>
						</g>
						<g>
							<path fill="#F1F1F1" d="M82.662,49.695c0,0-0.586-0.531-1.426-0.705c0.041-0.016,0.061-0.023,0.061-0.023
								s-24.025-7.734-25.027-7.826c-1-0.092-1.455,0.455-1.455,0.455s-1.938-0.813-20.73,24.932
								c-1.164,0.736-1.977,1.908-2.295,3.645c0,0,14.885,8.84,28.133,6.277c3.475-0.193,10.564-3.088,20.01-19.838
								c0,0,1.184-2.365,4.459-0.818c3.277,1.547,10.83,25.391,20.66,20.84C105.05,76.633,105.232,70.08,82.662,49.695z"/>
						</g>
					</g>
				</g>
				<g opacity="0.4">
					<path fill="#EBEBEC" d="M95.916,28.445c-0.475-2.117-2.064-3.695-4.012-4.256c0.16-0.836,0.156-1.717-0.043-2.6
						c-0.771-3.445-4.189-5.613-7.635-4.84c-3.447,0.771-5.613,4.191-4.842,7.635c0.309,1.375,1.037,2.543,2.02,3.406
						c-0.787,1.061-1.129,2.441-0.816,3.834c0.219,0.973,0.725,1.807,1.408,2.434c-0.75,1.053-1.07,2.404-0.766,3.764
						c0.568,2.537,3.086,4.133,5.625,3.564c0.207-0.045,0.404-0.109,0.6-0.182c1.027,0.676,2.316,0.951,3.611,0.662
						c2.537-0.57,4.135-3.088,3.566-5.627c-0.164-0.725-0.49-1.371-0.928-1.916C95.488,33.02,96.431,30.74,95.916,28.445z"/>
				</g>
				<g opacity="0.4">
					<path fill="#EBEBEC" d="M98.082,35.932c1.082-1.984,0.352-4.473-1.633-5.555c-1.215-0.664-2.617-0.645-3.77-0.078
						c-0.027-0.041-0.057-0.08-0.084-0.119c0.303-0.289,0.57-0.627,0.781-1.014c1.084-1.984,0.352-4.473-1.635-5.557
						c-1.984-1.082-4.473-0.352-5.555,1.633c-0.766,1.402-0.623,3.051,0.223,4.283c-0.303,0.287-0.568,0.625-0.779,1.012
						c-0.748,1.367-0.631,2.973,0.16,4.193c-0.195,0.225-0.373,0.471-0.521,0.742c-1.084,1.984-0.352,4.473,1.633,5.557
						c1.986,1.084,4.475,0.352,5.557-1.633c0.285-0.521,0.441-1.078,0.486-1.633C94.849,38.539,97.074,37.779,98.082,35.932z"/>
				</g>
			</g>
		</g>
		<g>
			<g>
				<g>
					<path fill="#A2D4DE" d="M28.197,117.348c-0.422-0.363-0.846-0.729-1.26-1.088C27.357,116.623,27.769,116.996,28.197,117.348z"
						/>
				</g>
				<g>
					<polygon fill="#EFF8F9" points="26.937,116.26 26.937,116.26 26.937,116.26 					"/>
				</g>
			</g>
			<g>
				<path fill="#EFF8F9" d="M100.652,104.646c-3.744,0.199-7.334,1.57-10.201,3.828c-4.377-0.842-8.834,0.152-12.373,2.469
					c-6.189-2.975-12.971-1.938-17.898,1.551c-3.197-2.775-6.947-4.064-10.625-4.137c-9.605-9.512-22.771-6.174-28.262,2.355
					c1.764,1.967,3.652,3.814,5.645,5.547c0.414,0.359,0.838,0.725,1.26,1.088c10.943,9.023,24.969,14.443,40.258,14.443
					s29.313-5.418,40.256-14.439c0.426-0.365,0.85-0.73,1.264-1.092c3.111-2.705,5.955-5.705,8.488-8.961
					C113.013,102.676,106.148,102.234,100.652,104.646z"/>
			</g>
		</g>
	</g>
	<g>
		<g>
			<path fill="#F3F4F5" d="M18.978,92.707c-1.48,0-2.678,1.199-2.678,2.68c0,1.477,1.197,2.678,2.678,2.678s2.68-1.201,2.68-2.678
				C21.658,93.906,20.458,92.707,18.978,92.707z"/>
		</g>
		<g>
			<path fill="#F3F4F5" d="M6.105,79.514c0.236,1.34,0.51,2.668,0.83,3.979c0.352-0.455,0.57-1.018,0.57-1.639
				C7.505,80.84,6.935,79.969,6.105,79.514z"/>
		</g>
		<g>
			<circle fill="#F3F4F5" cx="36.628" cy="77.736" r="2.678"/>
		</g>
		<g>
			<path fill="#F3F4F5" d="M22.48,61.525c-1.484,0-2.682,1.201-2.682,2.68s1.197,2.68,2.682,2.68c1.479,0,2.676-1.201,2.676-2.68
				S23.958,61.525,22.48,61.525z"/>
		</g>
		<g>
			<path fill="#F3F4F5" d="M52.296,59.391c-1.482,0-2.678,1.199-2.678,2.678c0,1.477,1.195,2.678,2.678,2.678
				c1.48,0,2.68-1.201,2.68-2.678C54.976,60.59,53.777,59.391,52.296,59.391z"/>
		</g>
		<g>
			<path fill="#F3F4F5" d="M38.146,45.857c-1.48,0-2.68,1.201-2.68,2.678c0,1.479,1.197,2.682,2.68,2.68
				c1.48,0.002,2.678-1.201,2.678-2.68C40.824,47.059,39.626,45.857,38.146,45.857z"/>
		</g>
		<g>
			<path fill="#F3F4F5" d="M10.541,48.971c0-1.064-0.627-1.977-1.527-2.408c-0.607,1.646-1.133,3.332-1.604,5.041
				c0.146,0.025,0.297,0.045,0.451,0.045C9.343,51.648,10.541,50.447,10.541,48.971z"/>
		</g>
		<g>
			<path fill="#F3F4F5" d="M23.529,30.623c-1.48,0-2.676,1.201-2.676,2.68c0,1.477,1.195,2.68,2.676,2.678
				c1.482,0,2.682-1.201,2.682-2.678C26.21,31.824,25.011,30.623,23.529,30.623z"/>
		</g>
		<g>
			<path fill="#F3F4F5" d="M78.753,117.801c-1.48-0.002-2.68,1.201-2.68,2.68c0,1.477,1.199,2.68,2.68,2.68s2.678-1.203,2.678-2.68
				C81.431,119.002,80.234,117.799,78.753,117.801z"/>
		</g>
		<g>
			<path fill="#F3F4F5" d="M105.892,118.344c0,0.369,0.076,0.721,0.211,1.039c1.379-1.021,2.707-2.105,3.998-3.232
				c-0.434-0.305-0.959-0.486-1.529-0.486C107.089,115.664,105.892,116.865,105.892,118.344z"/>
		</g>
		<g>
			<path fill="#F3F4F5" d="M94.421,102.133c-1.482,0-2.68,1.201-2.68,2.68c0,1.477,1.197,2.68,2.68,2.68
				c1.48,0,2.676-1.203,2.676-2.68C97.097,103.334,95.902,102.133,94.421,102.133z"/>
		</g>
		<g>
			<path fill="#F3F4F5" d="M47.095,120.826c-1.479,0-2.676,1.199-2.676,2.68c0,1.477,1.197,2.678,2.676,2.678
				c1.482,0,2.682-1.201,2.682-2.678C49.777,122.025,48.578,120.826,47.095,120.826z"/>
		</g>
		<g>
			<path fill="#F3F4F5" d="M32.947,107.295c-1.48,0-2.68,1.201-2.68,2.678c-0.002,1.479,1.197,2.682,2.68,2.682
				c1.48,0,2.676-1.203,2.678-2.682C35.625,108.496,34.427,107.295,32.947,107.295z"/>
		</g>
		<g>
			<path fill="#F3F4F5" d="M64.748,103.176c-1.48,0-2.68,1.201-2.68,2.68c0,1.477,1.199,2.678,2.68,2.678s2.678-1.201,2.678-2.678
				C67.425,104.377,66.228,103.176,64.748,103.176z"/>
		</g>
		<g>
			<path fill="#F3F4F5" d="M50.597,89.645c-1.48,0-2.68,1.201-2.68,2.68c0,1.477,1.197,2.682,2.68,2.68
				c1.48,0.002,2.678-1.203,2.678-2.68C53.275,90.846,52.078,89.645,50.597,89.645z"/>
		</g>
		<g>
			<path fill="#F3F4F5" d="M80.414,87.508c-1.479,0-2.676,1.201-2.676,2.68c0,1.477,1.197,2.68,2.676,2.68
				c1.482,0,2.68-1.203,2.68-2.68C83.093,88.709,81.896,87.508,80.414,87.508z"/>
		</g>
		<g>
			<path fill="#F3F4F5" d="M66.265,73.975c-1.48,0-2.68,1.203-2.68,2.682c0,1.477,1.197,2.68,2.68,2.68
				c1.48,0,2.678-1.203,2.678-2.68C68.943,75.178,67.746,73.975,66.265,73.975z"/>
		</g>
		<g>
			<path fill="#F3F4F5" d="M67.105,44.58c-1.48,0-2.678,1.201-2.678,2.68c0,1.475,1.197,2.678,2.678,2.678s2.68-1.203,2.68-2.678
				C69.785,45.781,68.585,44.58,67.105,44.58z"/>
		</g>
		<g>
			<circle fill="#F3F4F5" cx="52.957" cy="33.729" r="2.68"/>
		</g>
		<g>
			<path fill="#F3F4F5" d="M82.775,28.912c-1.482,0-2.68,1.199-2.68,2.678c0,1.477,1.197,2.68,2.68,2.68
				c1.479,0,2.678-1.203,2.678-2.68C85.453,30.111,84.253,28.912,82.775,28.912z"/>
		</g>
		<g>
			<circle fill="#F3F4F5" cx="68.623" cy="18.059" r="2.68"/>
		</g>
		<g>
			<path fill="#F3F4F5" d="M100.423,16.619c1.01,0,1.877-0.566,2.334-1.389c-1.492-0.965-3.021-1.873-4.596-2.711
				c-0.26,0.414-0.416,0.898-0.416,1.422C97.746,15.416,98.945,16.619,100.423,16.619z"/>
		</g>
		<g>
			<path fill="#F3F4F5" d="M38.337,15.814c-1.479,0-2.676,1.199-2.676,2.678c0,1.477,1.197,2.68,2.676,2.678
				c1.482,0,2.682-1.201,2.682-2.678C41.019,17.014,39.82,15.814,38.337,15.814z"/>
		</g>
		<g>
			<path fill="#F3F4F5" d="M120.703,103.533c0,0.209,0.029,0.412,0.076,0.607c0.721-1.055,1.406-2.133,2.064-3.23
				C121.621,101.158,120.703,102.24,120.703,103.533z"/>
		</g>
		<g>
			<circle fill="#F3F4F5" cx="109.23" cy="90.002" r="2.68"/>
		</g>
		<g>
			<path fill="#F3F4F5" d="M124.9,71.654c-1.48,0-2.68,1.203-2.68,2.68c0,1.479,1.199,2.682,2.68,2.682s2.676-1.203,2.676-2.682
				C127.576,72.857,126.38,71.654,124.9,71.654z"/>
		</g>
		<g>
			<circle fill="#F3F4F5" cx="95.226" cy="75.377" r="2.678"/>
		</g>
		<g>
			<path fill="#F3F4F5" d="M81.076,59.166c-1.482,0-2.68,1.201-2.68,2.68s1.195,2.682,2.68,2.68c1.479,0.002,2.678-1.201,2.678-2.68
				S82.554,59.166,81.076,59.166z"/>
		</g>
		<g>
			<path fill="#F3F4F5" d="M110.892,57.031c-1.48,0-2.678,1.199-2.678,2.678c0,1.477,1.197,2.68,2.678,2.68s2.68-1.203,2.68-2.68
				C113.572,58.23,112.373,57.031,110.892,57.031z"/>
		</g>
		<g>
			<circle fill="#F3F4F5" cx="96.744" cy="46.179" r="2.681"/>
		</g>
		<g>
			<path fill="#F3F4F5" d="M126.976,44.223c-0.342-0.826-0.707-1.641-1.082-2.449c-0.012,0.096-0.029,0.189-0.029,0.287
				C125.865,42.951,126.306,43.736,126.976,44.223z"/>
		</g>
		<g>
			<path fill="#F3F4F5" d="M111.714,28.527c0,1.479,1.197,2.682,2.68,2.682c1.479,0,2.676-1.203,2.676-2.682
				c0-0.285-0.057-0.555-0.139-0.813c-0.451-0.537-0.91-1.07-1.379-1.592c-0.352-0.172-0.742-0.275-1.158-0.275
				C112.912,25.848,111.714,27.049,111.714,28.527z"/>
		</g>
	</g>
</g>
</svg>
