<?xml version="1.0" encoding="utf-8"?>
<!-- Generator: Adobe Illustrator 16.0.0, SVG Export Plug-In . SVG Version: 6.00 Build 0)  -->
<!DOCTYPE svg PUBLIC "-//W3C//DTD SVG 1.1//EN" "http://www.w3.org/Graphics/SVG/1.1/DTD/svg11.dtd">
<svg version="1.1" id="Layer_1" xmlns="http://www.w3.org/2000/svg" xmlns:xlink="http://www.w3.org/1999/xlink" x="0px" y="0px"
	 width="136.914px" height="136.914px" viewBox="0 0 136.914 136.914" enable-background="new 0 0 136.914 136.914"
	 xml:space="preserve">
<g>
	<g>
		<circle fill="#D7DABA" cx="68.457" cy="68.457" r="63.333"/>
	</g>
	<g>
		<g>
			<g>
				<path fill="#466A32" d="M109.576,66.777c0.781-12.225-5.201-16.387-5.201-16.387c-1.301-8.322-10.664-11.965-10.664-11.965
					c-4.943-9.363-11.186-5.982-11.186-5.982c-7.542-8.063-15.605-3.381-15.605-3.381c-9.104-3.643-18.988,5.201-18.988,5.201
					c-12.745,1.561-11.965,9.885-11.965,9.885c-5.982,2.861-6.242,10.404-6.242,10.404c-5.982,5.463-3.313,16.145-3.313,16.145
					c-3.053,3.918,3.313,15.59,3.313,15.59c0.78,10.664,6.763,11.445,6.763,11.445c2.601,7.543,9.624,8.322,9.624,8.322
					c3.121,5.463,13.266,5.463,13.266,5.463c7.022,3.902,14.826,0.26,14.826,0.26c9.623,1.041,14.564-5.201,14.564-5.201
					c6.504,0.26,9.885-7.545,9.885-7.545c5.982-3.641,5.463-7.803,5.463-7.803c5.723-4.682,4.682-11.443,4.682-11.443
					C113.998,73.02,109.576,66.777,109.576,66.777z M95.568,78.092c0,0-0.498,8.965-6.6,11.58c0,0-1.619,6.1-9.088,5.85
					c0,0-1.371,4.607-8.219,2.49c0,0-6.224,2.74-10.83-0.623c0,0-4.858,0.873-10.337-5.352c0,0-5.104-0.873-5.852-6.6
					c0,0-3.735-2.738-3.236-7.721c0,0-2.24-1.744-1.121-6.35c0,0-2.116-5.354,1.121-8.342c0,0-0.622-5.355,4.481-9.463
					c0,0,1.993-5.48,7.223-6.973c0,0,4.856-4.855,8.964-3.736c0,0,3.736-2.988,8.592-0.623c0,0,3.237-2.49,8.716,2.242
					c0,0,8.633,2.539,9.047,5.875c0,0,6.391,3.836,6.143,9.314c0,0,3.486,3.736,1.99,7.969
					C96.563,67.631,100.922,71.242,95.568,78.092z"/>
			</g>
		</g>
		<g>
			<g>
				<path fill="#497336" d="M109.576,66.777c0.781-12.225-5.201-16.387-5.201-16.387c-1.301-8.322-10.664-11.965-10.664-11.965
					c-4.943-9.363-11.186-5.982-11.186-5.982c-7.542-8.063-15.605-3.381-15.605-3.381c-9.104-3.643-18.988,5.201-18.988,5.201
					c-12.745,1.561-11.965,9.885-11.965,9.885c-5.982,2.861-6.242,10.404-6.242,10.404c-5.982,5.463-3.313,16.145-3.313,16.145
					c-3.053,3.918,3.313,15.59,3.313,15.59c0.78,10.664,6.763,11.445,6.763,11.445c2.601,7.543,9.624,8.322,9.624,8.322
					c3.121,5.463,13.266,5.463,13.266,5.463c7.022,3.902,14.826,0.26,14.826,0.26c9.623,1.041,14.564-5.201,14.564-5.201
					c6.504,0.26,9.885-7.545,9.885-7.545c5.982-3.641,5.463-7.803,5.463-7.803c5.723-4.682,4.682-11.443,4.682-11.443
					C113.998,73.02,109.576,66.777,109.576,66.777z M102.434,78.322c0,0,0.877,5.697-3.943,9.641c0,0,0.438,3.504-4.602,6.572
					c0,0-2.848,6.572-8.324,6.352c0,0-4.162,5.26-12.268,4.383c0,0-6.573,3.066-12.487-0.219c0,0-8.545,0-11.174-4.602
					c0,0-5.915-0.656-8.105-7.01c0,0-5.039-0.658-5.696-9.641c0,0-5.361-9.83-2.79-13.131c0,0-2.248-8.996,2.79-13.598
					c0,0,0.22-6.354,5.258-8.762c0,0-0.657-7.012,10.077-8.326c0,0,8.325-7.449,15.994-4.381c0,0,6.791-3.943,13.145,2.848
					c0,0,5.257-2.848,9.419,5.039c0,0,7.887,3.066,8.982,10.078c0,0,5.039,3.504,4.381,13.803
					C103.09,67.369,106.814,72.625,102.434,78.322z"/>
			</g>
		</g>
		<g>
			<g>
				<g>
					<path fill="#598E3F" d="M81.997,42.387c1.175-0.676,2.585-0.832,3.499-0.723c1.094,0.133,2.703,1.646,2.703,1.646
						c1.949-1.221,2.814-1.461,4.209-1.436c0.93,0.016,2.609,0.998,2.609,0.998c2.697-1.295,4.895-2.053,4.895-2.053l-0.014-0.016
						c0,0-1.74-1.82-3.568-3.859c0,0-2.246,0.322-3.113-0.01c-1.305-0.496-2.279-1.271-3.264-2.803c0,0-2.119,0.814-3.182,0.527
						c-0.891-0.238-2.178-1.066-2.826-1.932c0,0-2.726,1.691-3.489,4.088l0.02,0.004C80.3,39.324,81.997,42.387,81.997,42.387z"/>
				</g>
				<g>
					<path fill="#7CC142" d="M81.093,36.336c2.632,1.25,18.806,4.469,18.806,4.469L81.093,36.336z"/>
				</g>
			</g>
			<g>
				<g>
					<path fill="#598E3F" d="M83.527,44.107c0.563-1.232,1.619-2.18,2.428-2.623c0.965-0.527,3.156-0.232,3.156-0.232
						c0.877-2.127,1.439-2.826,2.59-3.617c0.764-0.525,2.703-0.705,2.703-0.705c1.439-2.623,2.787-4.514,2.787-4.514l-0.021-0.008
						c0,0-2.475-0.469-5.146-1.063c0,0-1.639,1.566-2.537,1.803c-1.352,0.354-2.594,0.289-4.287-0.383c0,0-1.248,1.895-2.281,2.279
						c-0.862,0.324-2.391,0.398-3.421,0.07c0,0-1.235,2.963-0.462,5.355l0.019-0.008C80.366,42.602,83.527,44.107,83.527,44.107z"/>
				</g>
				<g>
					<path fill="#7CC142" d="M79.272,39.711c2.87-0.514,17.897-7.303,17.897-7.303L79.272,39.711z"/>
				</g>
			</g>
			<g>
				<g>
					<path fill="#5E9842" d="M81.134,44.014c1.321-0.299,2.714-0.033,3.558,0.34c1.004,0.449,2.098,2.369,2.098,2.369
						c2.223-0.594,3.121-0.568,4.445-0.135c0.883,0.289,2.201,1.721,2.201,1.721c2.961-0.441,5.281-0.521,5.281-0.521l-0.01-0.018
						c0,0-1.125-2.254-2.273-4.738c0,0-2.242-0.354-2.973-0.926c-1.1-0.857-1.805-1.885-2.293-3.639c0,0-2.268,0.156-3.199-0.432
						c-0.779-0.49-1.766-1.658-2.131-2.68c0,0-3.104,0.816-4.538,2.881l0.019,0.01C80.413,40.588,81.134,44.014,81.134,44.014z"/>
				</g>
				<g>
					<path fill="#7CC142" d="M82.05,37.967c2.147,1.969,16.657,9.803,16.657,9.803L82.05,37.967z"/>
				</g>
			</g>
			<g>
				<g>
					<path fill="#65A844" d="M79.252,41.178c1.244,0.535,2.214,1.572,2.673,2.371c0.55,0.953,0.301,3.15,0.301,3.15
						c2.144,0.83,2.856,1.379,3.671,2.512c0.543,0.754,0.762,2.688,0.762,2.688c2.652,1.385,4.572,2.691,4.572,2.691l0.004-0.02
						c0,0,0.418-2.482,0.957-5.168c0,0-1.602-1.607-1.857-2.5c-0.383-1.342-0.346-2.586,0.293-4.293c0,0-1.92-1.211-2.328-2.232
						c-0.342-0.857-0.447-2.381-0.143-3.422c0,0-2.988-1.168-5.365-0.346l0.01,0.018C80.69,37.982,79.252,41.178,79.252,41.178z"/>
				</g>
				<g>
					<path fill="#7CC142" d="M83.557,36.832c0.576,2.855,7.678,17.738,7.678,17.738L83.557,36.832z"/>
				</g>
			</g>
		</g>
		<g>
			<g>
				<g>
					<path fill="#598E3F" d="M53.866,43.564c-1.174-0.676-2.584-0.832-3.5-0.723c-1.092,0.133-2.701,1.646-2.701,1.646
						c-1.951-1.221-2.815-1.461-4.211-1.436c-0.929,0.016-2.609,0.998-2.609,0.998c-2.697-1.295-4.893-2.053-4.893-2.053
						l0.013-0.016c0,0,1.739-1.82,3.567-3.859c0,0,2.246,0.322,3.114-0.01c1.304-0.496,2.279-1.271,3.264-2.803
						c0,0,2.118,0.814,3.181,0.527c0.892-0.238,2.178-1.066,2.826-1.932c0,0,2.727,1.691,3.49,4.088l-0.02,0.004
						C55.563,40.5,53.866,43.564,53.866,43.564z"/>
				</g>
				<g>
					<path fill="#7CC142" d="M54.771,37.514c-2.632,1.25-18.806,4.469-18.806,4.469L54.771,37.514z"/>
				</g>
			</g>
			<g>
				<g>
					<path fill="#598E3F" d="M49.679,46.514c-0.366-1.305-1.264-2.402-1.995-2.965c-0.872-0.672-3.081-0.717-3.081-0.717
						c-0.54-2.236-0.989-3.014-2.003-3.971c-0.675-0.639-2.563-1.113-2.563-1.113c-1.02-2.813-2.059-4.891-2.059-4.891l0.021-0.002
						c0,0,2.517-0.084,5.249-0.26c0,0,1.38,1.801,2.231,2.172c1.278,0.559,2.518,0.688,4.294,0.281c0,0,0.942,2.066,1.901,2.604
						c0.804,0.453,2.303,0.762,3.371,0.598c0,0,0.764,3.117-0.367,5.363l-0.018-0.012C53.034,45.514,49.679,46.514,49.679,46.514z"
						/>
				</g>
				<g>
					<path fill="#7CC142" d="M54.56,42.824c-2.756-0.949-16.561-9.969-16.561-9.969L54.56,42.824z"/>
				</g>
			</g>
			<g>
				<g>
					<path fill="#5E9842" d="M53.299,46.102c-1.321-0.297-2.715-0.033-3.558,0.34c-1.005,0.449-2.098,2.369-2.098,2.369
						c-2.224-0.592-3.12-0.566-4.446-0.135c-0.882,0.289-2.201,1.721-2.201,1.721c-2.959-0.441-5.28-0.52-5.28-0.52l0.01-0.02
						c0,0,1.125-2.254,2.272-4.738c0,0,2.242-0.354,2.974-0.926c1.1-0.857,1.805-1.885,2.294-3.639c0,0,2.267,0.156,3.198-0.432
						c0.779-0.49,1.766-1.658,2.131-2.68c0,0,3.103,0.816,4.538,2.883l-0.018,0.008C54.021,42.676,53.299,46.102,53.299,46.102z"/>
				</g>
				<g>
					<path fill="#7CC142" d="M52.383,40.055c-2.148,1.969-16.657,9.803-16.657,9.803L52.383,40.055z"/>
				</g>
			</g>
			<g>
				<g>
					<path fill="#65A844" d="M56.222,41.186c-1.244,0.535-2.214,1.57-2.673,2.371c-0.551,0.951-0.301,3.148-0.301,3.148
						c-2.144,0.832-2.856,1.381-3.671,2.514c-0.543,0.752-0.763,2.686-0.763,2.686c-2.651,1.387-4.573,2.693-4.573,2.693
						l-0.003-0.02c0,0-0.418-2.484-0.957-5.17c0,0,1.603-1.605,1.857-2.5c0.382-1.342,0.347-2.584-0.292-4.291
						c0,0,1.92-1.211,2.328-2.234c0.342-0.855,0.447-2.381,0.143-3.42c0,0,2.988-1.17,5.363-0.348l-0.008,0.02
						C54.783,37.99,56.222,41.186,56.222,41.186z"/>
				</g>
				<g>
					<path fill="#7CC142" d="M51.917,36.84c-0.576,2.854-7.679,17.738-7.679,17.738L51.917,36.84z"/>
				</g>
			</g>
		</g>
		<g>
			<g>
				<g>
					<path fill="#ED2329" d="M72.339,29.121c0,0,11.985-8.76,17.362-8.299c0,0,5.531-1.535,1.076,9.066c0,0-0.768,1.535-0.615,3.842
						c0,0,3.074,15.211-5.992,12.752c0,0-3.226-0.154-6.913-3.381c-3.688-3.227-5.225-5.531-5.225-5.531L72.339,29.121z"/>
				</g>
				<g>
					<path fill="#D61F27" d="M74.491,37.57c0,0,11.831,4.764,10.755,7.375c0,0-8.758-2.766-10.141-5.531
						C75.105,39.414,74.184,38.646,74.491,37.57z"/>
				</g>
				<g>
					<g>
						<path fill="#ED2329" d="M67.884,39.414c0,0,0,7.99,3.534,16.902c0,0,5.378,13.674,7.99,19.053l0.461-10.143
							c0,0,2.458,3.229,9.219,3.842c0,0-7.837-7.375-10.756-16.746c0,0-2.151-10.295-5.993-13.521L67.884,39.414z"/>
					</g>
					<g>
						<path fill="#D61F27" d="M71.36,40.52c0,0,0.97,2.334,2.448,4.811c0,0-1.036-0.086-1.757-1.324c0,0-0.23,3.342,5.128,15
							c0,0-3.947-3.496-7.059-18.227L71.36,40.52z"/>
					</g>
				</g>
			</g>
			<g>
				<g>
					<path fill="#ED2329" d="M63.857,29.121c0,0-11.985-8.76-17.363-8.299c0,0-5.531-1.535-1.075,9.066c0,0,0.769,1.535,0.615,3.842
						c0,0-3.074,15.211,5.991,12.752c0,0,3.228-0.154,6.914-3.381c3.688-3.227,5.225-5.531,5.225-5.531L63.857,29.121z"/>
				</g>
				<g>
					<path fill="#D61F27" d="M61.705,37.57c0,0-11.83,4.764-10.755,7.375c0,0,8.759-2.766,10.142-5.531
						C61.092,39.414,62.014,38.646,61.705,37.57z"/>
				</g>
				<g>
					<g>
						<path fill="#ED2329" d="M68.313,39.414c0,0,0,7.99-3.533,16.902c0,0-5.378,13.674-7.99,19.053l-0.462-10.143
							c0,0-2.457,3.229-9.218,3.842c0,0,7.836-7.375,10.756-16.746c0,0,2.15-10.295,5.992-13.521L68.313,39.414z"/>
					</g>
					<g>
						<path fill="#D61F27" d="M64.837,40.52c0,0-0.971,2.334-2.448,4.811c0,0,1.036-0.086,1.756-1.324c0,0,0.231,3.342-5.128,15
							c0,0,3.947-3.496,7.059-18.227L64.837,40.52z"/>
					</g>
				</g>
			</g>
			<g>
				<path fill="#D61F27" d="M72.954,37.023c0,1.564-1.27,2.834-2.834,2.834h-3.857c-1.566,0-2.835-1.27-2.835-2.834v-6.297
					c0-1.566,1.269-2.836,2.835-2.836h3.857c1.564,0,2.834,1.27,2.834,2.836V37.023z"/>
			</g>
			<g>
				<path fill="#ED2329" d="M72.466,36.518c0,1.506-1.14,2.725-2.544,2.725h-3.461c-1.404,0-2.544-1.219-2.544-2.725v-6.055
					c0-1.506,1.14-2.725,2.544-2.725h3.461c1.404,0,2.544,1.219,2.544,2.725V36.518z"/>
			</g>
		</g>
		<g>
			<g>
				<g>
					<path fill="#E7CE1B" d="M92.066,82.004c-0.904,0.512-1.223,1.66-0.713,2.564c0.514,0.902,1.66,1.219,2.564,0.709
						c0.902-0.512,1.223-1.658,0.709-2.563C94.117,81.811,92.969,81.494,92.066,82.004z M93.67,84.785
						c-0.551,0.311-1.248,0.117-1.559-0.432c-0.311-0.551-0.117-1.248,0.432-1.561c0.551-0.311,1.248-0.117,1.559,0.434
						C94.414,83.775,94.221,84.475,93.67,84.785z"/>
				</g>
			</g>
			<g>
				<path fill="#D9BB27" d="M93.512,100.447c0,0,3.807,0.277,7.852-2.012s5.9-5.77,5.9-5.77s-4.434,0.797-7.676,2.631
					C96.346,97.133,93.512,100.447,93.512,100.447z"/>
			</g>
			<g>
				<circle fill="#DDD555" cx="100.128" cy="96.397" r="1.738"/>
			</g>
			<g>
				<path fill="#E7CE1B" d="M93.348,84.242c-3.123,1.768-1.82,7.068-0.768,10.934c0.043,0.15-0.479,1.09-0.393,2.211
					c0.09,1.119,1.295,3.078,1.324,3.061c0.127-0.07,3.719-3.408,6.252-4.842c2.529-1.432,7.537-2.875,7.537-2.875
					s-1.27-2.258-2.084-2.748c-0.816-0.49-1.895-0.605-2.01-0.727C100.404,86.346,96.484,82.467,93.348,84.242z"/>
			</g>
			<g>
				<path fill="#F3D633" d="M92.037,88.25c-0.619-1.096,0.084-2.67,1.572-3.512c1.488-0.844,3.197-0.637,3.818,0.461
					C98.051,86.297,92.658,89.348,92.037,88.25z"/>
			</g>
		</g>
		<g>
			<g>
				<g>
					<circle fill="#D72128" cx="39.315" cy="94.658" r="6.879"/>
				</g>
				<g>
					<g>
						<path fill="#ED2E3A" d="M36.898,93.229c1.436-2.428,4.271-3.514,6.872-2.842c-0.391-0.414-0.842-0.783-1.355-1.086
							c-2.941-1.74-6.735-0.764-8.476,2.178c-1.739,2.941-0.766,6.736,2.176,8.475c0.514,0.305,1.054,0.523,1.604,0.666
							C35.879,98.664,35.463,95.656,36.898,93.229z"/>
					</g>
				</g>
				<g opacity="0.5">
					<path fill="#EE4452" d="M44.85,94.193c-0.743,1.256-3.072,1.254-5.201-0.004c-2.128-1.26-3.251-3.301-2.51-4.555
						c0.743-1.26,3.071-1.256,5.201,0.004C44.468,90.896,45.592,92.936,44.85,94.193z"/>
				</g>
				<g>
					<path fill="#F9C6CD" d="M44.231,94.863c-0.403,0.682-1.282,0.906-1.963,0.504c-0.682-0.402-0.906-1.281-0.504-1.961
						c0.402-0.684,1.28-0.91,1.963-0.506C44.408,93.305,44.634,94.182,44.231,94.863z"/>
				</g>
			</g>
			<g>
				<g>
					<path fill="#B39648" d="M44.314,89.752l0.326-1.16l-2.563-1.49l-0.845,0.824c-0.065,0.039-0.118,0.088-0.154,0.15
						c-0.238,0.402,0.281,1.148,1.159,1.668c0.877,0.52,1.783,0.615,2.02,0.211C44.294,89.895,44.312,89.826,44.314,89.752z"/>
				</g>
				<g>
					
						<ellipse transform="matrix(0.8607 0.5091 -0.5091 0.8607 50.7688 -9.8267)" fill="#BAA060" cx="43.344" cy="87.872" rx="1.483" ry="0.387"/>
				</g>
				<g>
					<g>
						<path fill="#BAA060" d="M44.43,89.34l0.108-0.387c0,0-0.528,0.225-1.593-0.404c-1.068-0.633-1.19-1.133-1.19-1.133
							l-0.263,0.256c0,0,0.479,0.803,1.232,1.248C43.477,89.365,44.43,89.34,44.43,89.34z"/>
					</g>
				</g>
				<g>
					<g>
						<path fill="#B39648" d="M44.86,85.463c-0.689-0.408-1.581-0.18-1.988,0.512c-0.407,0.689-0.18,1.58,0.51,1.988
							c0.69,0.408,1.581,0.178,1.988-0.512C45.779,86.762,45.551,85.871,44.86,85.463z M43.403,87.928
							c-0.554-0.328-0.735-1.043-0.408-1.596c0.326-0.553,1.039-0.736,1.593-0.408c0.553,0.326,0.737,1.039,0.409,1.594
							C44.671,88.068,43.956,88.254,43.403,87.928z"/>
					</g>
				</g>
			</g>
		</g>
		<g>
			<g>
				<polygon fill="#E7CE1B" points="104.422,79.744 100.424,76.713 95.658,78.289 97.307,73.549 94.336,69.506 99.352,69.607 
					102.281,65.533 103.734,70.336 108.514,71.861 104.395,74.727 				"/>
			</g>
			<g>
				<polygon fill="#DCBE25" points="100.424,76.713 95.658,78.289 97.307,73.549 94.336,69.506 99.352,69.607 102.281,65.533 				
					"/>
			</g>
		</g>
		<g>
			<g>
				<polygon fill="#E7CE1B" points="64.906,105.205 61.149,105.723 59.445,109.111 57.793,105.699 54.045,105.123 56.78,102.498 
					56.169,98.754 59.511,100.545 62.882,98.805 62.212,102.539 				"/>
			</g>
			<g>
				<polygon fill="#DCBE25" points="61.149,105.723 59.445,109.111 57.793,105.699 54.045,105.123 56.78,102.498 56.169,98.754 				
					"/>
			</g>
		</g>
		<g>
			<g>
				<g>
					<g>
						<path fill="#E3E5E3" d="M85.717,112.953c0,0,0.527,1.643,0.244,2.563c-0.209,0.684-0.945,0.785-2.219,0.518
							C83.742,116.033,85.637,112.965,85.717,112.953z"/>
					</g>
					<g>
						<path fill="#D72128" d="M85.387,110.701c0,0,0.266,1.957-1.504,3.246c0,0-0.48,0.27-0.453,1.027
							c0.02,0.482,0.313,1.059,0.313,1.059s1.65-0.693,1.916-2.139C85.924,112.447,85.387,110.701,85.387,110.701z"/>
					</g>
					<g>
						<path fill="#F1F1F1" d="M85.117,109.105c0,0,0.318,1.908-1.641,3.131c0,0-0.324,0.416-0.313,1.174
							c0.008,0.484,0.424,0.83,0.424,0.83s1.465-0.939,1.756-2.379C85.637,110.422,85.117,109.105,85.117,109.105z"/>
					</g>
					<g>
						<path fill="#D72128" d="M84.883,107.582c0,0,0.293,1.818-1.621,3.125c0,0-0.311,0.43-0.273,1.188
							c0.023,0.484,0.328,0.748,0.328,0.748s1.553-0.938,1.799-2.391S84.883,107.582,84.883,107.582z"/>
					</g>
					<g>
						<path fill="#F1F1F1" d="M84.412,105.889c0,0,0.061,1.68-1.715,3.219c0,0-0.088,0.293,0.018,1.045
							c0.068,0.482,0.426,0.795,0.426,0.795s1.633-0.939,1.744-2.422C84.994,107.045,84.412,105.889,84.412,105.889z"/>
					</g>
					<g>
						<path fill="#D72128" d="M84.443,104.465c0,0,0.227,1.688-1.563,2.84c0,0-0.484,0.238-0.475,0.893
							c0.008,0.42,0.291,0.91,0.291,0.91s1.66-0.631,1.955-1.887C84.945,105.965,84.443,104.465,84.443,104.465z"/>
					</g>
					<g>
						<path fill="#F1F1F1" d="M84.209,103.092c0,0,0.277,1.645-1.701,2.74c0,0-0.33,0.367-0.333,1.021
							c0,0.418,0.405,0.711,0.405,0.711s1.479-0.846,1.801-2.096C84.699,104.221,84.209,103.092,84.209,103.092z"/>
					</g>
					<g>
						<path fill="#D72128" d="M84.008,101.779c0,0,0.256,1.566-1.681,2.734c0,0-0.319,0.379-0.297,1.033
							c0.016,0.418,0.312,0.641,0.312,0.641s1.568-0.844,1.842-2.105S84.008,101.779,84.008,101.779z"/>
					</g>
					<g>
						<path fill="#F1F1F1" d="M83.57,100.324c0,0,0.42,1.531-1.38,2.896c0,0-0.279,0.41-0.187,1.059
							c0.058,0.416,0.2,0.445,0.2,0.445s1.644-0.848,1.784-2.129S83.57,100.324,83.57,100.324z"/>
					</g>
					<g>
						<path fill="#D72128" d="M82.883,98.703c0,0,0.199,1.641-0.947,2.623c0,0-0.219,0.441-0.042,1.072
							c0.112,0.404,0.183,1.074,0.183,1.074s1.557-1.283,1.525-2.572C83.568,99.609,82.883,98.703,82.883,98.703z"/>
					</g>
					<g>
						<path fill="#F1F1F1" d="M81.369,96.479c0,0,0.503,1.377-0.144,2.721c0,0,0.301,1.717,0.71,2.127c0,0,1.336-0.775,0.938-3.418
							C82.873,97.908,82.893,97.232,81.369,96.479z"/>
					</g>
					<g>
						<path fill="#D72128" d="M81.226,99.199c0,0,0.695-1.301,0.144-2.721c0,0-0.833-1.441-2.588-1.002c0,0,1.61,1.447,1.862,3.117
							C80.71,99.033,81.226,99.199,81.226,99.199z"/>
					</g>
					<g>
						<path fill="#F1F1F1" d="M80.669,98.764c0,0,0.197-1.68-1.888-3.287c0,0-1.762,0.061-2.262,1.027c0,0,1.283-0.184,2.953,1.121
							C79.473,97.625,79.929,98.139,80.669,98.764z"/>
					</g>
					<g>
						<path fill="#D72128" d="M75.213,98.205c0,0,1.562-1.035,2.562-0.51c0,0,1.56-0.111,1.698-0.07c0,0-1.476-1.314-2.953-1.121
							C76.52,96.504,75.822,96.764,75.213,98.205z"/>
					</g>
					<g>
						<path fill="#F1F1F1" d="M74.798,100.141c0,0,0.413-0.922,2.296-1.881l0.681-0.564c0,0-1.086-0.693-2.726,0.658
							C75.049,98.354,74.637,99.891,74.798,100.141z"/>
					</g>
					<g>
						<path fill="#D72128" d="M74.934,101.035c0,0,0.772,0.045,1.14-0.164c0.37-0.211,1.021-2.611,1.021-2.611
							s-1.795,0.689-2.313,1.762C74.606,100.379,74.934,101.035,74.934,101.035z"/>
					</g>
				</g>
				<g>
					<g>
						<path fill="#EE3B48" d="M80.561,95.967c0.283,0.217,0.516,0.428,0.399,0.58c-0.117,0.154-1.175-0.506-1.124-0.693
							C79.929,95.5,80.276,95.75,80.561,95.967z"/>
					</g>
					<g>
						<path fill="#EE3B48" d="M83.453,100.246c0.066,0.35,0.104,0.662-0.086,0.697c-0.189,0.039-0.545-1.154-0.385-1.262
							C83.287,99.479,83.383,99.896,83.453,100.246z"/>
					</g>
					<g>
						<path fill="#EE3B48" d="M76.354,99.852c-0.124,0.426-0.261,0.793-0.493,0.727s0.056-1.6,0.296-1.625
							C76.613,98.904,76.478,99.422,76.354,99.852z"/>
					</g>
					<g>
						<path fill="#EE3B48" d="M84.168,103.725c-0.012,0.266-0.043,0.498-0.188,0.49s-0.186-0.938-0.049-0.986
							C84.189,103.139,84.182,103.459,84.168,103.725z"/>
					</g>
					<g>
						<path fill="#EE3B48" d="M84.664,106.494c-0.014,0.266-0.045,0.498-0.188,0.49c-0.145-0.006-0.186-0.938-0.049-0.984
							C84.686,105.908,84.68,106.229,84.664,106.494z"/>
					</g>
					<g>
						<path fill="#EE3B48" d="M85.104,109.715c-0.012,0.266-0.043,0.498-0.188,0.49c-0.145-0.006-0.184-0.938-0.049-0.986
							C85.127,109.127,85.119,109.449,85.104,109.715z"/>
					</g>
					<g>
						<path fill="#EE3B48" d="M85.51,113.713c-0.016,0.309-0.051,0.578-0.219,0.568c-0.166-0.008-0.213-1.086-0.055-1.141
							C85.535,113.035,85.525,113.404,85.51,113.713z"/>
					</g>
					<g>
						<path fill="#EE3B48" d="M78.589,97.326c-0.006,0.146-0.031,0.275-0.178,0.268c-0.147-0.008-0.208-0.523-0.072-0.545
							C78.599,97.004,78.599,97.182,78.589,97.326z"/>
					</g>
				</g>
			</g>
			<g>
				<path fill="#466A32" d="M73.77,103.021c0,0,3.522-1.063,4.477-5.225c0,0-1.74,0.879-4.694,0.848
					C73.552,98.645,74.464,102.33,73.77,103.021z"/>
			</g>
		</g>
		<g>
			<g>
				<g>
					<circle fill="#D72128" cx="101.195" cy="54.924" r="4.308"/>
				</g>
				<g>
					<g>
						<path fill="#ED2E3A" d="M99.484,55.324c-0.402-1.719,0.408-3.439,1.877-4.262c-0.357-0.018-0.719,0.012-1.084,0.098
							c-2.084,0.486-3.377,2.57-2.891,4.656c0.486,2.082,2.572,3.377,4.656,2.891c0.363-0.086,0.703-0.221,1.014-0.396
							C101.377,58.225,99.887,57.045,99.484,55.324z"/>
					</g>
				</g>
				<g opacity="0.5">
					
						<ellipse transform="matrix(0.9737 -0.2278 0.2278 0.9737 -9.413 24.342)" fill="#EE4452" cx="100.766" cy="52.957" rx="2.804" ry="1.655"/>
				</g>
				<g>
					<circle fill="#F9C6CD" cx="102.634" cy="53.092" r="0.898"/>
				</g>
			</g>
			<g>
				<g>
					<path fill="#B39648" d="M101.332,50.539l-0.355-0.666l-1.805,0.438l-0.027,0.738c-0.01,0.047-0.012,0.092-0.004,0.135
						c0.068,0.285,0.625,0.396,1.25,0.252c0.619-0.145,1.07-0.494,1.004-0.777C101.385,50.613,101.363,50.574,101.332,50.539z"/>
				</g>
				<g>
					
						<ellipse transform="matrix(0.9736 -0.2282 0.2282 0.9736 -8.7935 24.1556)" fill="#BAA060" cx="100.078" cy="50.11" rx="0.929" ry="0.242"/>
				</g>
				<g>
					<g>
						<path fill="#BAA060" d="M101.205,50.305l-0.117-0.221c0,0-0.143,0.328-0.896,0.504c-0.756,0.178-1.029,0.006-1.029,0.006
							l-0.01,0.227c0,0,0.566,0.156,1.1,0.031S101.205,50.305,101.205,50.305z"/>
					</g>
				</g>
				<g>
					<g>
						<path fill="#B39648" d="M99.721,48.363c-0.488,0.113-0.793,0.604-0.678,1.094c0.115,0.486,0.604,0.791,1.094,0.678
							c0.488-0.115,0.791-0.604,0.678-1.092C100.699,48.553,100.211,48.25,99.721,48.363z M100.129,50.109
							c-0.391,0.092-0.785-0.152-0.877-0.545c-0.09-0.391,0.152-0.783,0.545-0.875s0.783,0.152,0.877,0.545
							C100.764,49.625,100.52,50.018,100.129,50.109z"/>
					</g>
				</g>
			</g>
		</g>
		<g>
			<g>
				<g>
					<path fill="#E7CE1B" d="M35.873,56.031c-0.771-0.211-1.565,0.244-1.776,1.014c-0.209,0.77,0.246,1.564,1.015,1.773
						c0.771,0.211,1.564-0.242,1.774-1.014C37.096,57.035,36.642,56.24,35.873,56.031z M35.243,58.416
						c-0.469-0.127-0.745-0.611-0.616-1.078c0.128-0.469,0.61-0.746,1.078-0.617c0.47,0.127,0.746,0.611,0.618,1.08
						C36.194,58.268,35.711,58.545,35.243,58.416z"/>
				</g>
			</g>
			<g>
				<path fill="#D9BB27" d="M26.682,66.879c0,0,1.928,2.209,5.375,3.148c3.446,0.941,6.34,0.045,6.34,0.045s-2.85-1.963-5.611-2.717
					C30.022,66.602,26.682,66.879,26.682,66.879z"/>
			</g>
			<g>
				<circle fill="#DDD555" cx="32.484" cy="68.248" r="1.336"/>
			</g>
			<g>
				<path fill="#E7CE1B" d="M35.361,57.945c-2.661-0.725-4.818,2.873-6.335,5.553c-0.059,0.104-0.853,0.336-1.41,0.994
					c-0.557,0.658-0.96,2.379-0.935,2.387c0.108,0.027,3.874,0.15,6.031,0.74c2.156,0.586,5.669,2.508,5.669,2.508
					s0.529-1.918,0.35-2.627s-0.706-1.354-0.703-1.482C38.073,62.912,38.032,58.674,35.361,57.945z"/>
			</g>
			<g>
				<path fill="#F3D633" d="M32.478,59.426c0.255-0.936,1.489-1.414,2.758-1.068c1.27,0.346,2.089,1.385,1.834,2.318
					C36.814,61.611,32.222,60.359,32.478,59.426z"/>
			</g>
		</g>
	</g>
</g>
</svg>
