<?xml version="1.0" encoding="utf-8"?>
<!-- Generator: Adobe Illustrator 16.0.0, SVG Export Plug-In . SVG Version: 6.00 Build 0)  -->
<!DOCTYPE svg PUBLIC "-//W3C//DTD SVG 1.1//EN" "http://www.w3.org/Graphics/SVG/1.1/DTD/svg11.dtd">
<svg version="1.1" id="Layer_1" xmlns="http://www.w3.org/2000/svg" xmlns:xlink="http://www.w3.org/1999/xlink" x="0px" y="0px"
	 width="136.913px" height="136.914px" viewBox="0 0 136.913 136.914" enable-background="new 0 0 136.913 136.914"
	 xml:space="preserve">
<g>
	<g>
		<g>
			<g>
				<g>
					<g>
						<circle fill="#D62127" cx="68.457" cy="68.457" r="63.333"/>
					</g>
				</g>
			</g>
		</g>
	</g>
	<g>
		<g>
			<g>
				<path fill="#BB813C" d="M72.891,108.47c0,3.755-0.334,6.801-2.867,6.801h-3.248c-2.531,0-2.865-3.046-2.865-6.801V86.371
					c0-3.755,0.334-6.799,2.865-6.799h3.248c2.533,0,2.867,3.044,2.867,6.798V108.47z"/>
			</g>
			<g>
				<path fill="#C58540" d="M68.418,115.271h-1.643c-2.531,0-2.865-3.046-2.865-6.801V86.371c0-3.755,0.334-6.799,2.865-6.799h1.768
					L68.418,115.271z"/>
			</g>
			<g>
				<polygon fill="#65A844" points="85.528,78.298 95.786,78.298 77.436,53.574 83.043,53.574 68.508,30.464 68.458,30.38 
					68.395,30.482 53.872,53.574 59.479,53.574 41.129,78.298 51.387,78.298 32.262,103.74 104.653,103.74 				"/>
			</g>
			<g>
				<g>
					<path fill="#7FBB42" d="M100.834,98.66L85.528,78.298h10.258L85.739,64.761C67.614,64.579,60.5,52.137,58.241,46.629
						l-4.369,6.945h5.607l-8.158,10.989c1.322,3.558,4.031,9.554,8.908,15.496C70.063,92.044,83.725,98.286,100.834,98.66z"/>
				</g>
				<g>
					<path fill="#9BCA3B" d="M84.229,62.728l-6.793-9.153h5.607l-14.535-23.11l-0.051-0.084l-0.063,0.103l-8.832,14.045
						C60.778,48.286,66.385,61.818,84.229,62.728z"/>
				</g>
				<g>
					<path fill="#65A844" d="M104.653,103.74l-2.293-3.05c-23.027-0.031-36.488-10.58-43.73-19.434
						c-4.537-5.547-7.234-11.048-8.725-14.783l-8.775,11.824h10.258L32.262,103.74H104.653z"/>
				</g>
				<g>
					<path fill="#EDC92C" d="M85.739,64.761l-1.51-2.033c-17.844-0.909-23.451-14.441-24.666-18.2l-1.322,2.102
						C60.5,52.137,67.614,64.579,85.739,64.761z"/>
				</g>
				<g>
					<path fill="#EDC92C" d="M102.36,100.69l-1.525-2.03c-17.109-0.374-30.771-6.616-40.605-18.601
						c-4.877-5.942-7.586-11.938-8.908-15.496l-1.416,1.91c1.49,3.735,4.188,9.236,8.725,14.783
						C65.872,90.11,79.333,100.659,102.36,100.69z"/>
				</g>
			</g>
			<g>
				<g>
					<circle fill="#C32126" cx="56.736" cy="64.819" r="2.62"/>
				</g>
				<g>
					<path fill="#D62127" d="M58.588,66.671c-1.025,1.024-2.684,1.024-3.705,0c-1.025-1.024,2.682-4.729,3.705-3.704
						C59.61,63.99,59.61,65.646,58.588,66.671z"/>
				</g>
			</g>
			<g>
				<g>
					<circle fill="#C32126" cx="68.043" cy="49.187" r="2.621"/>
				</g>
				<g>
					<path fill="#D62127" d="M69.897,51.039c-1.025,1.022-2.684,1.022-3.707,0s2.682-4.728,3.707-3.705
						C70.918,48.358,70.918,50.017,69.897,51.039z"/>
				</g>
			</g>
			<g>
				<g>
					<circle fill="#C32126" cx="40.877" cy="99.374" r="2.62"/>
				</g>
				<g>
					<path fill="#D62127" d="M42.731,101.226c-1.025,1.022-2.684,1.022-3.707,0c-1.023-1.021,2.684-4.728,3.707-3.704
						C43.752,98.544,43.752,100.204,42.731,101.226z"/>
				</g>
			</g>
			<g>
				<g>
					<circle fill="#C32126" cx="84.798" cy="70.204" r="2.62"/>
				</g>
				<g>
					<path fill="#D62127" d="M86.651,72.057c-1.023,1.021-2.682,1.021-3.705,0.001c-1.023-1.024,2.682-4.729,3.705-3.706
						S87.674,71.033,86.651,72.057z"/>
				</g>
			</g>
			<g>
				<g>
					<circle fill="#C32126" cx="56.841" cy="88.731" r="2.62"/>
				</g>
				<g>
					<path fill="#D62127" d="M58.694,90.584c-1.023,1.021-2.682,1.021-3.705,0c-1.023-1.023,2.682-4.728,3.705-3.706
						C59.715,87.902,59.715,89.561,58.694,90.584z"/>
				</g>
			</g>
			<g>
				<g>
					<circle fill="#C32126" cx="70.478" cy="99.152" r="2.62"/>
				</g>
				<g>
					<path fill="#D62127" d="M72.331,101.004c-1.023,1.023-2.682,1.023-3.705,0c-1.023-1.022,2.682-4.728,3.705-3.704
						C73.352,98.323,73.352,99.981,72.331,101.004z"/>
				</g>
			</g>
			<g>
				<g>
					<circle fill="#C32126" cx="85.179" cy="88.534" r="2.62"/>
				</g>
				<g>
					<path fill="#D62127" d="M87.032,90.386c-1.023,1.024-2.684,1.024-3.705,0.001c-1.023-1.024,2.682-4.728,3.705-3.705
						C88.053,87.705,88.053,89.362,87.032,90.386z"/>
				</g>
			</g>
			<g>
				<g>
					<circle fill="#C32126" cx="71.542" cy="76.006" r="2.62"/>
				</g>
				<g>
					<path fill="#D62127" d="M73.395,77.858c-1.023,1.023-2.682,1.023-3.705,0.001c-1.023-1.024,2.682-4.729,3.705-3.705
						C74.417,75.177,74.417,76.835,73.395,77.858z"/>
				</g>
			</g>
		</g>
		<g>
			<polygon fill="#EDC92C" points="70.698,27.147 72.965,24.937 69.833,24.481 68.43,21.642 67.03,24.481 63.897,24.937 
				66.165,27.147 65.629,30.268 67.784,29.136 67.502,31.879 69.426,31.879 69.141,29.168 71.233,30.268 			"/>
		</g>
		<g>
			<polygon fill="#FDDA47" points="68.43,21.642 67.03,24.481 63.897,24.937 66.165,27.147 65.629,30.268 67.784,29.136 
				67.502,31.879 68.5,31.879 			"/>
		</g>
	</g>
</g>
</svg>
