<?xml version="1.0" encoding="utf-8"?>
<!-- Generator: Adobe Illustrator 16.0.0, SVG Export Plug-In . SVG Version: 6.00 Build 0)  -->
<!DOCTYPE svg PUBLIC "-//W3C//DTD SVG 1.1//EN" "http://www.w3.org/Graphics/SVG/1.1/DTD/svg11.dtd">
<svg version="1.1" id="Layer_1" xmlns="http://www.w3.org/2000/svg" xmlns:xlink="http://www.w3.org/1999/xlink" x="0px" y="0px"
	 width="136.914px" height="136.914px" viewBox="0 0 136.914 136.914" enable-background="new 0 0 136.914 136.914"
	 xml:space="preserve">
<g>
	<g>
		<g>
			<g>
				<g>
					<g>
						<circle fill="#49A0AE" cx="68.457" cy="65.888" r="63.333"/>
					</g>
				</g>
			</g>
		</g>
	</g>
	<g>
		<g>
			<g>
				<g>
					<g>
						<path fill="#E9C29C" d="M98.924,73.991c0,16.623-13.469,30.093-30.085,30.093c-16.617,0-30.087-13.47-30.087-30.093
							c0-16.613,13.47-30.085,30.087-30.085C85.455,43.906,98.924,57.378,98.924,73.991z"/>
					</g>
				</g>
				<g>
					<g>
						<path fill="#C39574" d="M69.027,95.201c-0.038,0-0.075-0.001-0.112-0.001c-5.511-0.061-9.467-4.53-9.633-4.721
							c-0.182-0.208-0.159-0.523,0.049-0.705c0.208-0.181,0.523-0.159,0.705,0.048c0.037,0.044,3.838,4.326,8.896,4.378
							c0.031,0.001,0.063,0.001,0.094,0.001c2.991,0,5.852-1.476,8.502-4.387c0.187-0.203,0.504-0.218,0.707-0.033
							c0.204,0.187,0.219,0.503,0.033,0.707C75.42,93.615,72.312,95.201,69.027,95.201z"/>
					</g>
				</g>
				<g>
					<g>
						<ellipse fill="#343433" cx="59.821" cy="75.799" rx="4.122" ry="4.354"/>
					</g>
					<g>
						<ellipse fill="#343433" cx="77.686" cy="75.799" rx="4.122" ry="4.354"/>
					</g>
					<g>
						<path fill="#FFFFFF" d="M80.618,74.146c0,0.96-0.734,1.744-1.647,1.744c-0.905,0-1.645-0.784-1.645-1.744
							c0-0.963,0.739-1.74,1.645-1.74C79.884,72.406,80.618,73.184,80.618,74.146z"/>
					</g>
					<g>
						<path fill="#FFFFFF" d="M62.714,74.146c0,0.96-0.736,1.744-1.65,1.744c-0.91,0-1.647-0.784-1.647-1.744
							c0-0.963,0.737-1.74,1.647-1.74C61.978,72.406,62.714,73.184,62.714,74.146z"/>
					</g>
					<g>
						<path fill="#703116" d="M81.396,96.711c0,0-5.44-1.526-8.014-3.011c-2.573-1.482-4.557-3.941-4.557-3.941
							s-1.023,1.999-4.381,4.205c-3.357,2.207-8.162,2.747-8.162,2.747c0-6.933,5.622-12.556,12.557-12.556
							C75.774,84.155,81.396,89.778,81.396,96.711z"/>
					</g>
					<g>
						<polygon fill="#703116" points="53.639,68.028 54.042,69.665 63.491,70.692 64.099,67.691 						"/>
					</g>
					<g>
						<polygon fill="#703116" points="84.123,68.028 83.719,69.665 74.271,70.692 73.663,67.691 						"/>
					</g>
					<g>
						<path fill="#DDB391" d="M71.468,79.904c0,0,4.828,4.559,3.295,7.113c-1.533,2.554-10.582,2.645-11.88,0
							c-1.298-2.644,3.3-7.113,3.3-7.113H71.468z"/>
					</g>
					<g>
						<path fill="#E9C29C" d="M71.242,79.591c0,0,4.411,4.469,3.011,6.974c-1.401,2.504-9.667,2.591-10.854,0
							c-1.187-2.592,3.016-6.974,3.016-6.974H71.242z"/>
					</g>
				</g>
			</g>
			<g>
				<path fill="#E9C29C" d="M95.266,64.798l9.334-5.334c0,0,1.5,9.166-6.5,14L95.266,64.798z"/>
			</g>
			<g>
				<path fill="#E9C29C" d="M42.544,64.798l-9.334-5.334c0,0-1.5,9.166,6.5,14L42.544,64.798z"/>
			</g>
		</g>
		<g>
			<path fill="#703116" d="M84.721,60.353c3.027,7.456,13.105,18.337,19.84,8.833c0,0-2.813,0.185-7.455-3.311
				c0.32-0.868,0.842-1.9,0.994-3.243c0.086-0.77-13-6.667-26.5-8c-17.833,1.5-29.894,6.283-29.835,6.614
				c-1.733,0.741-4.576,0.569-4.489,1.339c0.28,2.468,0.952,4.052,1.618,5.052c-4.185,2.921-6.69,2.756-6.69,2.756
				c6.594,9.302,15.054,0.995,18.249-6.354c0.107-0.056,0.213-0.108,0.313-0.159c0.876,3.683,2.781,4.412,2.781,4.412
				c0.398-2.88,2.359-5.011,4.308-6.454c0.937,2.208,2.217,2.697,2.217,2.697c0.298-2.154,1.479-3.885,2.869-5.22
				c0.705,4.65,2.979,5.523,2.979,5.523c0.248-1.794,1.107-3.292,2.19-4.515c0.174,0.464,0.303,0.955,0.373,1.474
				c0,0,1.688-0.646,2.477-3.897c0.118-0.077,0.234-0.153,0.353-0.226c1.192,1.186,2.189,2.703,2.448,4.574
				c0,0,1.577-0.604,2.395-3.581c1.62,1.29,3.16,3.117,3.491,5.521c0,0,2.649-1.015,2.878-6.877c0.078,0.028,0.154,0.055,0.23,0.084
				c0.674,0.668,1.26,1.451,1.699,2.37"/>
		</g>
		<g>
			<path fill="#65A844" d="M45.763,54.006l47.202,1.877c0,0-15.437-13.896-12.961-16.627c2.637-2.906,13.816,6.815,14.168,6.079
				c0.354-0.737-1.832-6.795-11.846-13.231c-6.749-4.339-18.124-6.148-23.063-2.325C50.948,36.215,45.763,54.006,45.763,54.006z"/>
		</g>
		<g>
			<path fill="#F1EDCD" d="M96.094,61.246c0,0-2.104-15.019-27.515-15.019S41.765,61.246,41.765,61.246s14.418-4.111,26.814-4.111
				C80.974,57.135,96.094,61.246,96.094,61.246z"/>
		</g>
		<g>
			<circle fill="#F1EDCD" cx="95.648" cy="46.766" r="3.844"/>
		</g>
	</g>
</g>
</svg>
