<?xml version="1.0" encoding="utf-8"?>
<!-- Generator: Adobe Illustrator 16.0.0, SVG Export Plug-In . SVG Version: 6.00 Build 0)  -->
<!DOCTYPE svg PUBLIC "-//W3C//DTD SVG 1.1//EN" "http://www.w3.org/Graphics/SVG/1.1/DTD/svg11.dtd">
<svg version="1.1" id="Layer_1" xmlns="http://www.w3.org/2000/svg" xmlns:xlink="http://www.w3.org/1999/xlink" x="0px" y="0px"
	 width="136.914px" height="136.914px" viewBox="0 0 136.914 136.914" enable-background="new 0 0 136.914 136.914"
	 xml:space="preserve">
<g>
	<g>
		<circle fill="#65A844" cx="68.457" cy="68.458" r="63.333"/>
	</g>
	<g>
		<g>
			<g>
				<circle fill="#D72128" cx="51.498" cy="89.813" r="21.128"/>
			</g>
			<g>
				<g>
					<path fill="#ED2E3A" d="M42.871,89.813c0-8.665,5.8-15.969,13.727-18.258c-1.678-0.484-3.446-0.75-5.28-0.75
						c-10.496,0-19.006,8.509-19.006,19.008c0,10.496,8.51,19.004,19.006,19.004c1.834,0,3.603-0.264,5.28-0.748
						C48.671,105.78,42.871,98.476,42.871,89.813z"/>
				</g>
			</g>
			<g opacity="0.5">
				<ellipse fill="#EE4452" cx="51.645" cy="79.932" rx="13.757" ry="8.119"/>
			</g>
			<g>
				<circle fill="#F9C6CD" cx="60.414" cy="82.672" r="4.401"/>
			</g>
		</g>
		<g>
			<g>
				<path fill="#B39648" d="M57.044,69.029l-0.952-3.579l-9.106,0.068l-0.946,3.498c-0.112,0.204-0.173,0.418-0.173,0.638
					c0,1.437,2.539,2.601,5.673,2.601c3.133,0,5.673-1.164,5.673-2.601C57.212,69.438,57.153,69.229,57.044,69.029z"/>
			</g>
			<g>
				<ellipse fill="#BAA060" cx="51.539" cy="65.575" rx="4.553" ry="1.187"/>
			</g>
			<g>
				<g>
					<path fill="#BAA060" d="M56.707,67.759l-0.317-1.189c0,0-1.045,1.419-4.851,1.419c-3.807,0-4.914-1.136-4.914-1.136
						l-0.294,1.086c0,0,2.524,1.376,5.209,1.376C54.226,69.314,56.707,67.759,56.707,67.759z"/>
				</g>
			</g>
			<g>
				<g>
					<path fill="#B39648" d="M51.782,56.833c-2.463,0-4.459,1.997-4.459,4.46c0,2.462,1.996,4.459,4.459,4.459
						c2.462,0,4.459-1.997,4.459-4.459C56.241,58.83,54.244,56.833,51.782,56.833z M51.782,65.625c-1.975,0-3.574-1.6-3.574-3.574
						c0-1.974,1.6-3.572,3.574-3.572c1.974,0,3.573,1.599,3.573,3.572C55.355,64.025,53.756,65.625,51.782,65.625z"/>
				</g>
			</g>
		</g>
	</g>
	<g>
		<g>
			<g>
				<g>
					<circle fill="#D72128" cx="90.248" cy="68.014" r="15.878"/>
				</g>
				<g>
					<g>
						<path fill="#ED2E3A" d="M83.765,68.014c0-6.512,4.358-12.001,10.315-13.721c-1.261-0.364-2.59-0.563-3.968-0.563
							c-7.889,0-14.283,6.395-14.283,14.284c0,7.888,6.395,14.282,14.283,14.282c1.378,0,2.707-0.198,3.968-0.563
							C88.123,80.013,83.765,74.524,83.765,68.014z"/>
					</g>
				</g>
				<g opacity="0.5">
					<ellipse fill="#EE4452" cx="90.358" cy="60.588" rx="10.338" ry="6.102"/>
				</g>
				<g>
					<circle fill="#F9C6CD" cx="96.948" cy="62.646" r="3.308"/>
				</g>
			</g>
			<g>
				<g>
					<path fill="#B39648" d="M94.416,52.395l-0.716-2.69l-6.844,0.052l-0.711,2.629c-0.085,0.153-0.13,0.313-0.13,0.479
						c0,1.079,1.908,1.954,4.263,1.954s4.264-0.875,4.264-1.954C94.542,52.701,94.498,52.545,94.416,52.395z"/>
				</g>
				<g>
					<ellipse fill="#BAA060" cx="90.278" cy="49.798" rx="3.422" ry="0.893"/>
				</g>
				<g>
					<g>
						<path fill="#BAA060" d="M94.163,51.439l-0.239-0.895c0,0-0.785,1.066-3.646,1.066s-3.692-0.854-3.692-0.854l-0.221,0.816
							c0,0,1.896,1.034,3.914,1.034C92.298,52.608,94.163,51.439,94.163,51.439z"/>
					</g>
				</g>
				<g>
					<g>
						<path fill="#B39648" d="M90.462,43.229c-1.852,0-3.352,1.501-3.352,3.352s1.5,3.351,3.352,3.351c1.85,0,3.351-1.5,3.351-3.351
							S92.312,43.229,90.462,43.229z M90.462,49.836c-1.484,0-2.687-1.202-2.687-2.687c0-1.483,1.202-2.685,2.687-2.685
							c1.482,0,2.685,1.201,2.685,2.685C93.146,48.634,91.944,49.836,90.462,49.836z"/>
					</g>
				</g>
			</g>
		</g>
		<g>
			<g>
				<path fill="#E5E5E4" d="M52.282,58.479V7.216c-0.336,0.089-0.666,0.19-1,0.284v50.979H52.282z"/>
			</g>
			<g>
				<path fill="#E5E5E4" d="M90.837,44.465V9.205c-0.251-0.095-0.498-0.196-0.751-0.288v35.548H90.837z"/>
			</g>
		</g>
	</g>
</g>
</svg>
