<?xml version="1.0" encoding="utf-8"?>
<!-- Generator: Adobe Illustrator 16.0.0, SVG Export Plug-In . SVG Version: 6.00 Build 0)  -->
<!DOCTYPE svg PUBLIC "-//W3C//DTD SVG 1.1//EN" "http://www.w3.org/Graphics/SVG/1.1/DTD/svg11.dtd">
<svg version="1.1" id="Layer_1" xmlns="http://www.w3.org/2000/svg" xmlns:xlink="http://www.w3.org/1999/xlink" x="0px" y="0px"
	 width="136.914px" height="136.914px" viewBox="0 0 136.914 136.914" enable-background="new 0 0 136.914 136.914"
	 xml:space="preserve">
<g>
	<g>
		<g>
			<circle fill="#D7DABA" cx="68.457" cy="68.457" r="63.333"/>
		</g>
	</g>
	<g>
		<g>
			<g>
				<g>
					<path fill="#BB813C" d="M98.843,81.029c0,19.699-11.401,28.41-31.095,28.41c-19.691,0-31.094-8.711-31.094-28.41
						c0-19.688,11.402-35.652,31.094-35.652C87.441,45.377,98.843,61.342,98.843,81.029z"/>
				</g>
				<g>
					<g>
						<path fill="#B17938" d="M62.857,75.369c0,3.385-2.592,6.123-5.796,6.123c-3.2,0-5.796-2.738-5.796-6.123
							c0-3.381,2.596-6.129,5.796-6.129C60.266,69.24,62.857,71.988,62.857,75.369z"/>
					</g>
					<g>
						<path fill="#B17938" d="M84.114,75.369c0,3.385-2.593,6.123-5.796,6.123c-3.199,0-5.795-2.738-5.795-6.123
							c0-3.381,2.596-6.129,5.795-6.129C81.521,69.24,84.114,71.988,84.114,75.369z"/>
					</g>
					<g>
						<ellipse fill="#343433" cx="78.232" cy="75.369" rx="4.885" ry="5.16"/>
					</g>
					<g>
						<path fill="#FFFFFF" d="M81.707,73.41c0,1.139-0.871,2.068-1.952,2.068c-1.073,0-1.948-0.93-1.948-2.068
							c0-1.141,0.875-2.061,1.948-2.061C80.836,71.35,81.707,72.27,81.707,73.41z"/>
					</g>
					<g>
						<ellipse fill="#343433" cx="57.062" cy="75.369" rx="4.885" ry="5.16"/>
					</g>
					<g>
						<path fill="#FFFFFF" d="M60.489,73.41c0,1.139-0.872,2.068-1.955,2.068c-1.078,0-1.952-0.93-1.952-2.068
							c0-1.141,0.874-2.061,1.952-2.061C59.617,71.35,60.489,72.27,60.489,73.41z"/>
					</g>
				</g>
			</g>
			<g>
				<polygon fill="#A46D2F" points="49.735,64.283 50.213,66.223 61.41,67.441 62.131,63.885 				"/>
			</g>
			<g>
				<polygon fill="#A46D2F" points="85.861,64.283 85.382,66.223 74.187,67.441 73.466,63.885 				"/>
			</g>
			<g>
				<path fill="#A36528" d="M98.246,30.59c-0.059-0.174-0.192-0.311-0.364-0.369l-12.659-4.416c-0.297-0.104-0.621,0.043-0.74,0.334
					L73.077,53.199c-0.093,0.23-0.032,0.492,0.151,0.658c0.11,0.102,0.252,0.152,0.395,0.152c0.094,0,0.188-0.021,0.275-0.068
					l2.502-1.326c0.092-0.047,0.169-0.117,0.225-0.207l7.184-12.221h5.855c0.258,0,0.486-0.168,0.563-0.412l0.736-2.355
					c0.049-0.158,0.029-0.33-0.054-0.473c-0.084-0.145-0.224-0.244-0.386-0.279l-4.225-0.896l2.229-4.031l7.881,1.383
					c0.23,0.037,0.463-0.059,0.592-0.254l1.178-1.766C98.278,30.951,98.304,30.762,98.246,30.59z"/>
			</g>
			<g>
				<path fill="#A36528" d="M38.105,30.59c0.059-0.174,0.192-0.311,0.364-0.369l12.659-4.416c0.297-0.104,0.621,0.043,0.74,0.334
					l11.404,27.061c0.094,0.23,0.033,0.492-0.15,0.658c-0.11,0.102-0.252,0.152-0.395,0.152c-0.094,0-0.188-0.021-0.275-0.068
					l-2.502-1.326c-0.092-0.047-0.169-0.117-0.225-0.207l-7.184-12.221h-5.855c-0.258,0-0.486-0.168-0.563-0.412l-0.736-2.355
					c-0.05-0.158-0.029-0.33,0.054-0.473c0.085-0.145,0.225-0.244,0.387-0.279l4.224-0.896l-2.229-4.031l-7.881,1.383
					c-0.229,0.037-0.462-0.059-0.592-0.254l-1.178-1.766C38.073,30.951,38.048,30.762,38.105,30.59z"/>
			</g>
			<g>
				<path fill="#BB813C" d="M81.383,61.279c0,0,7.273-19.484,25.5-10.689C106.883,50.59,103.197,70.98,81.383,61.279z"/>
			</g>
			<g>
				<path fill="#BB813C" d="M55.531,61.279c0,0-7.274-19.484-25.501-10.689C30.03,50.59,33.717,70.98,55.531,61.279z"/>
			</g>
			<g>
				<path fill="#B17938" d="M37.179,57.555c0,0,1.173,5.182,8.116,2.717C45.295,60.271,42.98,55.318,37.179,57.555z"/>
			</g>
			<g>
				<path fill="#B17938" d="M99.461,57.555c0,0-1.173,5.182-8.117,2.717C91.344,60.271,93.66,55.318,99.461,57.555z"/>
			</g>
		</g>
		<g>
			<path fill="#B17938" d="M83.555,95.584c0,7.547-7.077,13.658-15.807,13.658c-8.729,0-15.807-6.111-15.807-13.658
				c0-7.541,7.078-13.656,15.807-13.656C76.478,81.928,83.555,88.043,83.555,95.584z"/>
		</g>
		<g>
			<path fill="#BB813C" d="M82.203,97.439c0,7.568-6.471,13.701-14.455,13.701c-7.982,0-14.455-6.133-14.455-13.701
				c0-7.564,6.473-13.693,14.455-13.693C75.732,83.746,82.203,89.875,82.203,97.439z"/>
		</g>
		<g>
			<g>
				<path fill="#B17938" d="M75.081,104.592c-3.938,0-6.741-2.594-7.463-4.826c-0.548,2.248-2.847,4.826-6.89,4.826
					c-4.959,0-7.824-4.373-7.844-4.418c-0.059-0.131,0.039-0.271,0.219-0.314c0.178-0.045,0.372,0.029,0.431,0.16
					c0.018,0.041,2.701,4.072,7.194,4.072c4.467,0,6.591-8.133,6.606-8.215c0.021-0.115,0.119-0.199,0.235-0.203
					c0.123,0.021,0.221,0.072,0.252,0.184c0.021,0.084,2.897,8.234,7.259,8.234c4.362,0,6.922-4.027,6.938-4.066
					c0.055-0.133,0.246-0.203,0.426-0.168c0.182,0.041,0.283,0.18,0.229,0.313C82.655,100.213,79.919,104.592,75.081,104.592z"/>
			</g>
		</g>
		<g>
			<g>
				<path fill="#C42627" d="M77.753,93.557c-2.592,3.527-17.888,3.65-20.085,0c-2.195-3.652,7.158-9.58,10.088-9.58
					C70.688,83.977,80.346,90.027,77.753,93.557z"/>
			</g>
		</g>
	</g>
</g>
</svg>
