<?xml version="1.0" encoding="utf-8"?>
<!-- Generator: Adobe Illustrator 16.0.0, SVG Export Plug-In . SVG Version: 6.00 Build 0)  -->
<!DOCTYPE svg PUBLIC "-//W3C//DTD SVG 1.1//EN" "http://www.w3.org/Graphics/SVG/1.1/DTD/svg11.dtd">
<svg version="1.1" id="Layer_1" xmlns="http://www.w3.org/2000/svg" xmlns:xlink="http://www.w3.org/1999/xlink" x="0px" y="0px"
	 width="136.833px" height="136.834px" viewBox="0 0 136.833 136.834" style="enable-background:new 0 0 136.833 136.834;"
	 xml:space="preserve">
<style type="text/css">
<![CDATA[
	.st0{fill:#E59C31;}
	.st1{fill:#E5CE27;}
	.st2{fill:#E84849;}
	.st3{fill:#E8F5F4;}
	.st4{opacity:0.15;}
	.st5{fill:#857856;}
	.st6{fill:#EDB04E;}
	.st7{fill:#EFDE0E;}
	.st8{fill-rule:evenodd;clip-rule:evenodd;fill:#4B4A4B;}
	.st9{fill-rule:evenodd;clip-rule:evenodd;fill:#4C4D4D;}
	.st10{fill:#8CC3CC;}
	.st11{fill-rule:evenodd;clip-rule:evenodd;fill:#E84849;}
	.st12{fill:#F06668;}
	.st13{fill:#F1EB75;}
	.st14{fill:#F2BE3E;}
	.st15{fill:#F3ED73;}
	.st16{fill:#F4E028;}
	.st17{fill:#F59C9E;}
	.st18{fill:#F6A2A3;}
	.st19{clip-path:url(#SVGID_9_);}
	.st20{fill:#C0D5D7;}
	.st21{fill:url(#SVGID_1_);}
	.st22{fill:url(#SVGID_2_);}
	.st23{fill:url(#SVGID_3_);}
	.st24{fill:url(#SVGID_4_);}
	.st25{fill:url(#SVGID_5_);}
	.st26{fill:url(#SVGID_6_);}
	.st27{fill:url(#SVGID_7_);}
	.st28{fill:#C7E3E7;}
	.st29{fill:#2F8442;}
	.st30{fill-rule:evenodd;clip-rule:evenodd;fill:#F06668;}
	.st31{fill:#FFFFFF;}
	.st32{fill:#664219;}
	.st33{fill:#67B8CB;}
	.st34{fill:#9CBDBF;}
	.st35{fill:#69C6D4;}
	.st36{fill:#9F77AA;}
	.st37{fill:#344E5D;}
	.st38{fill:#357180;}
	.st39{fill:#6CC077;}
	.st40{fill-rule:evenodd;clip-rule:evenodd;fill:#FFFFFF;}
	.st41{fill-rule:evenodd;clip-rule:evenodd;fill:#626463;}
	.st42{fill:#D3E9D0;}
	.st43{fill:#717171;}
	.st44{fill:#A2D4DE;}
	.st45{fill:#A3D4AA;}
	.st46{fill:#DEA027;}
]]>
</style>
<g>
	<g>
		<g>
			<g>
				<circle class="st20" cx="68.417" cy="68.417" r="63.333"/>
			</g>
		</g>
	</g>
	<g>
		<g>
			<g>
				<path class="st31" d="M110.049,51.917c0.066-0.476,0.377-0.886,0.377-1.381c0-7.54-8.156-13.655-18.219-13.655
					c-1.316,0-2.488,0.365-3.73,0.566c-3.016-4.008-8.518-6.828-15.1-6.828c-8.52,0-15.291,4.635-16.891,10.677
					c-8.264,1.64-14.498,7.034-14.498,13.752c0,6.362,5.557,11.601,13.164,13.542c2.576,5.8,9.643,10.05,18.225,10.05
					c7.787,0,14.387-3.487,17.504-8.437c2.002,0.668,4.188,1.064,6.518,1.064c8.922,0,16.16-5.429,16.16-12.135
					C113.559,56.378,112.116,53.956,110.049,51.917z"/>
				<g>
					
						<image style="overflow:visible;opacity:0.15;" width="207" height="147" xlink:href="2254EA83.png"  transform="matrix(0.24 0 0 0.24 18.6782 38.4556)">
					</image>
					<g>
						<path class="st31" d="M62.022,53.393c0.039-0.289,0.229-0.539,0.229-0.839c0-4.581-4.955-8.296-11.068-8.296
							c-0.799,0-1.51,0.223-2.266,0.345c-1.83-2.435-5.174-4.147-9.172-4.147c-5.176,0-9.289,2.814-10.26,6.484
							c-5.02,0.998-8.807,4.273-8.807,8.354c0,3.864,3.375,7.046,7.994,8.226c1.566,3.523,5.859,6.105,11.072,6.105
							c4.73,0,8.74-2.118,10.633-5.125c1.217,0.405,2.543,0.646,3.959,0.646c5.42,0,9.818-3.299,9.818-7.371
							C64.155,56.102,63.276,54.631,62.022,53.393z"/>
					</g>
				</g>
				<g>
					
						<image style="overflow:visible;opacity:0.15;" width="176" height="127" xlink:href="2254EA81.png"  transform="matrix(0.24 0 0 0.24 78.0122 52.4556)">
					</image>
					<g>
						<path class="st31" d="M81.784,67.95c-0.033,0.24-0.189,0.449-0.189,0.697c0,3.809,4.119,6.896,9.201,6.896
							c0.664,0,1.256-0.185,1.883-0.286c1.523,2.024,4.303,3.448,7.625,3.448c4.303,0,7.725-2.34,8.531-5.392
							c4.172-0.829,7.32-3.552,7.32-6.944c0-3.213-2.807-5.858-6.646-6.84c-1.303-2.928-4.869-5.074-9.205-5.074
							c-3.932,0-7.264,1.76-8.838,4.26c-1.012-0.336-2.115-0.537-3.293-0.537c-4.504,0-8.16,2.742-8.16,6.127
							C80.012,65.698,80.741,66.92,81.784,67.95z"/>
					</g>
				</g>
				<path class="st40" d="M49.586,83.757l-0.33-0.572h-1.459l0.637-1.104l-0.332-0.573h-0.66l-0.967,1.677h-2.164l1.082-1.874h1.934
					l0.33-0.572l-0.33-0.572h-1.273l0.73-1.266l-0.33-0.572h-0.66l-0.73,1.265l-0.639-1.103h-0.66l-0.33,0.572l0.967,1.676
					l-1.082,1.873l-1.082-1.873l0.967-1.676l-0.328-0.572h-0.662l-0.637,1.103l-0.73-1.265h-0.66l-0.332,0.572l0.73,1.266h-1.273
					l-0.33,0.572l0.33,0.572h1.936l1.082,1.874h-2.166l-0.967-1.677h-0.66l-0.33,0.573l0.637,1.104h-1.461l-0.33,0.572l0.33,0.572
					h1.461l-0.637,1.103l0.33,0.573l0.66-0.001l0.967-1.675h2.166l-1.082,1.874h-1.936l-0.33,0.572l0.33,0.572h1.273l-0.73,1.265
					l0.332,0.573h0.66l0.73-1.266l0.637,1.104h0.662l0.328-0.572l-0.967-1.676l1.082-1.874l1.082,1.874l-0.967,1.676l0.33,0.572
					h0.66l0.639-1.104l0.73,1.266h0.66l0.33-0.573l-0.73-1.265h1.273l0.33-0.572l-0.33-0.572h-1.934l-1.082-1.874h2.164l0.967,1.675
					h0.66l0.332-0.572l-0.637-1.103h1.459L49.586,83.757z"/>
				<path class="st40" d="M51.393,101.45l-0.33-0.572h-1.461l0.637-1.104l-0.33-0.572h-0.662l-0.967,1.676h-2.162l1.082-1.874h1.934
					l0.33-0.572l-0.33-0.571H47.86l0.729-1.266l-0.328-0.572h-0.662l-0.73,1.264l-0.637-1.103h-0.66l-0.332,0.572l0.969,1.676
					l-1.082,1.874l-1.082-1.874l0.967-1.676l-0.33-0.572h-0.66l-0.637,1.103l-0.73-1.264h-0.662l-0.33,0.572l0.73,1.266h-1.273
					l-0.332,0.571l0.332,0.572h1.934l1.082,1.874h-2.164l-0.967-1.676h-0.66l-0.332,0.572l0.637,1.104h-1.459l-0.332,0.572
					l0.332,0.572h1.459l-0.637,1.104l0.332,0.572h0.66l0.967-1.676h2.164l-1.082,1.874h-1.934l-0.332,0.572l0.332,0.572h1.273
					l-0.73,1.265l0.33,0.573h0.662l0.73-1.266l0.637,1.103h0.66l0.33-0.572l-0.967-1.675l1.082-1.874l1.082,1.874l-0.967,1.675
					l0.33,0.572h0.66l0.637-1.102l0.73,1.265h0.662l0.328-0.573l-0.729-1.265h1.273l0.33-0.572l-0.33-0.572H47.2l-1.082-1.874h2.162
					l0.967,1.676h0.662l0.33-0.572l-0.637-1.104h1.461L51.393,101.45z"/>
				<path class="st40" d="M68.143,89.757l-0.33-0.572h-1.461l0.637-1.104l-0.332-0.573h-0.66l-0.967,1.677h-2.164l1.082-1.874h1.934
					l0.332-0.572l-0.332-0.572h-1.273l0.73-1.266l-0.33-0.572h-0.66l-0.73,1.266l-0.637-1.104h-0.662l-0.33,0.572l0.967,1.676
					l-1.082,1.873l-1.082-1.873l0.967-1.676l-0.328-0.572h-0.66l-0.639,1.104l-0.73-1.266h-0.66l-0.33,0.572l0.729,1.266h-1.273
					l-0.33,0.572l0.33,0.572h1.936l1.082,1.874h-2.164l-0.967-1.677H57.09l-0.33,0.573l0.637,1.104h-1.459l-0.332,0.572l0.332,0.572
					h1.459l-0.637,1.104l0.33,0.573l0.662-0.001l0.967-1.676h2.164l-1.082,1.874h-1.936l-0.33,0.572l0.33,0.572h1.273l-0.729,1.265
					l0.33,0.573h0.66l0.73-1.266l0.639,1.104h0.66l0.33-0.572l-0.969-1.676l1.082-1.873l1.082,1.873l-0.967,1.676l0.33,0.572h0.662
					l0.637-1.104l0.73,1.266h0.66l0.33-0.573l-0.73-1.265h1.273l0.332-0.572l-0.332-0.572h-1.934l-1.082-1.874h2.164l0.967,1.676
					h0.66l0.332-0.572l-0.637-1.104h1.461L68.143,89.757z"/>
				<path class="st40" d="M89.19,92.739l-0.33-0.572h-1.461l0.637-1.104l-0.332-0.572h-0.66l-0.967,1.676h-2.164l1.082-1.874h1.934
					l0.332-0.572l-0.332-0.571h-1.273l0.73-1.266l-0.33-0.572h-0.66l-0.73,1.264l-0.637-1.102h-0.662l-0.33,0.572l0.967,1.675
					l-1.082,1.874l-1.082-1.874l0.967-1.675l-0.328-0.572h-0.66l-0.639,1.102l-0.73-1.264h-0.66l-0.33,0.572l0.729,1.266h-1.273
					l-0.33,0.571l0.33,0.572h1.936l1.082,1.874h-2.164l-0.967-1.676h-0.662l-0.33,0.572l0.637,1.104h-1.459l-0.332,0.572
					l0.332,0.572h1.459l-0.637,1.104l0.33,0.572h0.662l0.967-1.676h2.164l-1.082,1.874h-1.936l-0.33,0.571l0.33,0.574h1.273
					l-0.729,1.264l0.33,0.573h0.66l0.73-1.267l0.639,1.104h0.66l0.33-0.572l-0.969-1.676l1.082-1.873l1.082,1.873l-0.967,1.676
					l0.33,0.572h0.662l0.637-1.102l0.73,1.265h0.66l0.33-0.573l-0.73-1.264h1.273l0.332-0.574l-0.332-0.571h-1.934l-1.082-1.874
					h2.164l0.967,1.676h0.66l0.332-0.572l-0.637-1.104h1.461L89.19,92.739z"/>
				<path class="st40" d="M75.243,109.474l-0.33-0.572h-1.461l0.637-1.104l-0.33-0.573h-0.662l-0.967,1.677h-2.164l1.082-1.874
					h1.934l0.332-0.572l-0.332-0.572h-1.271l0.729-1.266l-0.328-0.572h-0.662l-0.73,1.265l-0.637-1.103h-0.66l-0.332,0.572
					l0.969,1.676l-1.082,1.873l-1.082-1.873l0.965-1.676l-0.328-0.572h-0.66l-0.639,1.103l-0.73-1.265h-0.66l-0.33,0.572
					l0.729,1.266h-1.271l-0.332,0.572l0.332,0.572h1.934l1.082,1.874h-2.164l-0.967-1.677H64.19l-0.33,0.573l0.637,1.104h-1.459
					l-0.332,0.572l0.332,0.572h1.459l-0.637,1.104l0.33,0.572h0.662l0.967-1.676h2.164l-1.082,1.874h-1.934l-0.332,0.572
					l0.332,0.572h1.271l-0.729,1.265l0.33,0.573h0.66l0.73-1.266l0.639,1.104h0.66l0.33-0.572l-0.967-1.676l1.082-1.874l1.082,1.874
					l-0.967,1.676l0.33,0.572h0.66l0.637-1.104l0.73,1.266h0.662l0.328-0.573l-0.729-1.265h1.271l0.332-0.572l-0.332-0.572h-1.934
					l-1.082-1.874h2.164l0.967,1.676h0.662l0.33-0.572l-0.637-1.104h1.461L75.243,109.474z"/>
				<path class="st40" d="M97.116,107.852l-0.33-0.572h-1.461l0.637-1.104l-0.33-0.572h-0.662l-0.965,1.676H91.84l1.082-1.875h1.934
					l0.33-0.571l-0.33-0.571h-1.273l0.73-1.267l-0.33-0.572h-0.66l-0.732,1.265l-0.637-1.103h-0.66l-0.33,0.572l0.967,1.676
					l-1.082,1.874l-1.082-1.874l0.967-1.676l-0.328-0.572h-0.662l-0.637,1.103l-0.73-1.265h-0.66l-0.332,0.572l0.73,1.267H86.84
					l-0.33,0.571l0.33,0.571h1.934l1.082,1.875h-2.164l-0.967-1.676h-0.66l-0.332,0.572l0.637,1.104h-1.459l-0.33,0.572l0.33,0.572
					h1.459l-0.637,1.104l0.332,0.572h0.66l0.967-1.676h2.164l-1.082,1.873H86.84l-0.33,0.572l0.33,0.573h1.273l-0.73,1.265
					l0.332,0.572h0.66l0.73-1.266l0.637,1.104h0.662l0.328-0.572l-0.967-1.676l1.082-1.873l1.082,1.873l-0.967,1.676l0.33,0.572
					h0.66l0.637-1.102l0.732,1.264h0.66l0.33-0.572l-0.73-1.265h1.273l0.33-0.573l-0.33-0.572h-1.934l-1.082-1.873h2.164
					l0.965,1.676h0.662l0.33-0.572l-0.637-1.104h1.461L97.116,107.852z"/>
				<path class="st40" d="M110.938,87.424l-0.33-0.572h-1.461l0.637-1.104l-0.332-0.572h-0.66l-0.967,1.676h-2.164l1.082-1.875
					h1.934l0.332-0.572l-0.332-0.57h-1.273l0.73-1.267l-0.328-0.572h-0.662l-0.73,1.265l-0.637-1.103h-0.66l-0.332,0.572
					l0.967,1.675l-1.082,1.875l-1.082-1.875l0.967-1.675l-0.328-0.572h-0.66l-0.639,1.103l-0.73-1.265h-0.66l-0.33,0.572
					l0.729,1.267h-1.271l-0.332,0.57l0.332,0.572h1.934l1.082,1.875h-2.164l-0.967-1.676h-0.662l-0.33,0.572l0.637,1.104h-1.459
					l-0.332,0.572l0.332,0.572h1.459L99.555,89.1l0.33,0.572h0.662l0.967-1.676h2.164l-1.082,1.873h-1.934l-0.332,0.572l0.332,0.573
					h1.271l-0.729,1.265l0.33,0.572h0.66l0.73-1.266l0.639,1.104h0.66l0.33-0.572l-0.969-1.676l1.082-1.873l1.082,1.873
					l-0.967,1.676l0.332,0.572h0.66l0.637-1.102l0.73,1.264h0.662l0.328-0.572l-0.73-1.265h1.273l0.332-0.573l-0.332-0.572h-1.934
					l-1.082-1.873h2.164l0.967,1.676h0.66l0.332-0.572l-0.637-1.104h1.461L110.938,87.424z"/>
			</g>
		</g>
	</g>
</g>
</svg>
