<?xml version="1.0" encoding="utf-8"?>
<!-- Generator: Adobe Illustrator 16.0.0, SVG Export Plug-In . SVG Version: 6.00 Build 0)  -->
<!DOCTYPE svg PUBLIC "-//W3C//DTD SVG 1.1//EN" "http://www.w3.org/Graphics/SVG/1.1/DTD/svg11.dtd">
<svg version="1.1" id="Layer_1" xmlns="http://www.w3.org/2000/svg" xmlns:xlink="http://www.w3.org/1999/xlink" x="0px" y="0px"
	 width="136.833px" height="136.834px" viewBox="0 0 136.833 136.834" style="enable-background:new 0 0 136.833 136.834;"
	 xml:space="preserve">
<style type="text/css">
<![CDATA[
	.st0{fill:#E59C31;}
	.st1{fill:#E5CE27;}
	.st2{fill:#E84849;}
	.st3{fill:#E8F5F4;}
	.st4{opacity:0.15;}
	.st5{fill:#857856;}
	.st6{fill:#EDB04E;}
	.st7{fill:#EFDE0E;}
	.st8{fill-rule:evenodd;clip-rule:evenodd;fill:#4B4A4B;}
	.st9{fill-rule:evenodd;clip-rule:evenodd;fill:#4C4D4D;}
	.st10{fill:#8CC3CC;}
	.st11{fill-rule:evenodd;clip-rule:evenodd;fill:#E84849;}
	.st12{fill:#F06668;}
	.st13{fill:#F1EB75;}
	.st14{fill:#F2BE3E;}
	.st15{fill:#F3ED73;}
	.st16{fill:#F4E028;}
	.st17{fill:#F59C9E;}
	.st18{fill:#F6A2A3;}
	.st19{clip-path:url(#SVGID_9_);}
	.st20{fill:#C0D5D7;}
	.st21{fill:url(#SVGID_1_);}
	.st22{fill:url(#SVGID_2_);}
	.st23{fill:url(#SVGID_3_);}
	.st24{fill:url(#SVGID_4_);}
	.st25{fill:url(#SVGID_5_);}
	.st26{fill:url(#SVGID_6_);}
	.st27{fill:url(#SVGID_7_);}
	.st28{fill:#C7E3E7;}
	.st29{fill:#2F8442;}
	.st30{fill-rule:evenodd;clip-rule:evenodd;fill:#F06668;}
	.st31{fill:#FFFFFF;}
	.st32{fill:#664219;}
	.st33{fill:#67B8CB;}
	.st34{fill:#9CBDBF;}
	.st35{fill:#69C6D4;}
	.st36{fill:#9F77AA;}
	.st37{fill:#344E5D;}
	.st38{fill:#357180;}
	.st39{fill:#6CC077;}
	.st40{fill-rule:evenodd;clip-rule:evenodd;fill:#FFFFFF;}
	.st41{fill-rule:evenodd;clip-rule:evenodd;fill:#626463;}
	.st42{fill:#D3E9D0;}
	.st43{fill:#717171;}
	.st44{fill:#A2D4DE;}
	.st45{fill:#A3D4AA;}
	.st46{fill:#DEA027;}
]]>
</style>
<g>
	<g>
		<g>
			<circle class="st28" cx="68.416" cy="68.417" r="63.333"/>
		</g>
	</g>
	<g>
		<g>
			<g>
				<path class="st41" d="M57.569,83.397L38.577,102.39l-3.127-2.459l19.326-19.326L57.569,83.397z"/>
				<path class="st9" d="M39.052,102.74c-4.998,6.002-12,3.499-13.25-2.749c-0.49-2.453,3.25-5.751,4.5-3.5
					c-1,8.5,4.971,2.968,4.971,2.968s1.582,0.278,2.553,1.248S39.052,102.74,39.052,102.74z"/>
				<g>
					<path class="st11" d="M75.249,62.499c21.85,21.851,0.01,49.027,0.01,49.027c-0.303-7.964-7.84-15.5-15.5-15.5
						c0,0-1.652-6.564-6.441-11.352c-4.787-4.786-10.748-5.838-10.748-5.838c0.395-7.267-6.592-14.949-15.297-15.297
						C27.272,63.54,53.399,40.649,75.249,62.499z"/>
					<path class="st30" d="M75.249,62.499c4.174,4.174-12.275,29.46-15.49,33.527c0,0-1.652-6.564-6.441-11.352
						c-4.787-4.786-10.748-5.838-10.748-5.838C46.278,75.264,72.181,59.43,75.249,62.499z"/>
					
						<ellipse transform="matrix(0.7072 0.707 -0.707 0.7072 66.3401 -34.6117)" class="st8" cx="74.958" cy="62.789" rx="2.546" ry="1.627"/>
				</g>
			</g>
			<path class="st31" d="M90.044,15.717c0,0-6.83,2.572-7.453,3.195c-1.176,1.177-1.176,3.082,0,4.258
				c1.178,1.177,3.082,1.177,4.26,0C87.474,22.548,90.044,15.717,90.044,15.717z"/>
			<path class="st31" d="M61.702,12.395c0,0-6.828,2.572-7.451,3.194c-1.178,1.177-1.178,3.082-0.002,4.259
				c1.178,1.176,3.084,1.176,4.262,0C59.134,19.225,61.702,12.395,61.702,12.395z"/>
			<path class="st31" d="M60.237,35.044c0,0-6.83,2.571-7.453,3.194c-1.176,1.177-1.176,3.082,0,4.258
				c1.178,1.177,3.084,1.177,4.26,0C57.665,41.875,60.237,35.044,60.237,35.044z"/>
			<path class="st31" d="M110.128,26.883c0,0-6.83,2.571-7.453,3.194c-1.176,1.177-1.176,3.082,0,4.259
				c1.178,1.176,3.082,1.176,4.26,0C107.558,33.713,110.128,26.883,110.128,26.883z"/>
			<path class="st31" d="M99.851,55.675c0,0-6.828,2.572-7.453,3.195c-1.176,1.177-1.176,3.083,0,4.258
				c1.178,1.177,3.084,1.177,4.26,0C97.28,62.505,99.851,55.675,99.851,55.675z"/>
			<path class="st31" d="M123.575,46.606c0,0-6.832,2.572-7.455,3.195c-1.176,1.177-1.176,3.081,0,4.258
				c1.178,1.177,3.084,1.177,4.26,0C121.003,53.436,123.575,46.606,123.575,46.606z"/>
			<path class="st31" d="M121.353,71.172c0,0-6.828,2.572-7.453,3.194c-1.176,1.177-1.176,3.083,0,4.259
				c1.178,1.177,3.084,1.177,4.26,0C118.782,78.002,121.353,71.172,121.353,71.172z"/>
		</g>
		<path class="st31" d="M100.083,74.75c0,0-6.828,2.573-7.451,3.195c-1.178,1.177-1.178,3.082-0.002,4.258
			c1.178,1.176,3.084,1.176,4.262,0C97.515,81.58,100.083,74.75,100.083,74.75z"/>
		<path class="st31" d="M83.083,39.494c0,0-6.828,2.573-7.451,3.195c-1.178,1.177-1.178,3.082-0.002,4.258
			c1.178,1.176,3.084,1.176,4.262,0C80.515,46.324,83.083,39.494,83.083,39.494z"/>
	</g>
</g>
</svg>
