<?xml version="1.0" encoding="utf-8"?>
<!-- Generator: Adobe Illustrator 16.0.0, SVG Export Plug-In . SVG Version: 6.00 Build 0)  -->
<!DOCTYPE svg PUBLIC "-//W3C//DTD SVG 1.1//EN" "http://www.w3.org/Graphics/SVG/1.1/DTD/svg11.dtd">
<svg version="1.1" id="Layer_1" xmlns="http://www.w3.org/2000/svg" xmlns:xlink="http://www.w3.org/1999/xlink" x="0px" y="0px"
	 width="136.833px" height="136.833px" viewBox="0 0 136.833 136.833" style="enable-background:new 0 0 136.833 136.833;"
	 xml:space="preserve">
<style type="text/css">
<![CDATA[
	.st0{fill:#E59C31;}
	.st1{fill:#E5CE27;}
	.st2{fill:#E84849;}
	.st3{fill:#E8F5F4;}
	.st4{opacity:0.15;}
	.st5{fill:#857856;}
	.st6{fill:#EDB04E;}
	.st7{fill:#EFDE0E;}
	.st8{fill-rule:evenodd;clip-rule:evenodd;fill:#4B4A4B;}
	.st9{fill-rule:evenodd;clip-rule:evenodd;fill:#4C4D4D;}
	.st10{fill:#8CC3CC;}
	.st11{fill-rule:evenodd;clip-rule:evenodd;fill:#E84849;}
	.st12{fill:#F06668;}
	.st13{fill:#F1EB75;}
	.st14{fill:#F2BE3E;}
	.st15{fill:#F3ED73;}
	.st16{fill:#F4E028;}
	.st17{fill:#F59C9E;}
	.st18{fill:#F6A2A3;}
	.st19{clip-path:url(#SVGID_9_);}
	.st20{fill:#C0D5D7;}
	.st21{fill:url(#SVGID_1_);}
	.st22{fill:url(#SVGID_2_);}
	.st23{fill:url(#SVGID_3_);}
	.st24{fill:url(#SVGID_4_);}
	.st25{fill:url(#SVGID_5_);}
	.st26{fill:url(#SVGID_6_);}
	.st27{fill:url(#SVGID_7_);}
	.st28{fill:#C7E3E7;}
	.st29{fill:#2F8442;}
	.st30{fill-rule:evenodd;clip-rule:evenodd;fill:#F06668;}
	.st31{fill:#FFFFFF;}
	.st32{fill:#664219;}
	.st33{fill:#67B8CB;}
	.st34{fill:#9CBDBF;}
	.st35{fill:#69C6D4;}
	.st36{fill:#9F77AA;}
	.st37{fill:#344E5D;}
	.st38{fill:#357180;}
	.st39{fill:#6CC077;}
	.st40{fill-rule:evenodd;clip-rule:evenodd;fill:#FFFFFF;}
	.st41{fill-rule:evenodd;clip-rule:evenodd;fill:#626463;}
	.st42{fill:#D3E9D0;}
	.st43{fill:#717171;}
	.st44{fill:#A2D4DE;}
	.st45{fill:#A3D4AA;}
	.st46{fill:#DEA027;}
]]>
</style>
<g>
	<g>
		<g>
			<g>
				<circle class="st34" cx="68.416" cy="68.416" r="63.333"/>
			</g>
		</g>
	</g>
	<g>
		<g>
			<path class="st28" d="M71.997,23.746v8.592l12.887-7.158v6.873l-12.887,7.73v7.73l12.887-7.441v15.174l6.871-4.008v-15.18
				l6.301-3.434v15.178l8.59-5.158l3.15,5.445l-8.877,5.15l13.17,7.445l-5.727,3.438l-13.744-7.73l-6.871,4.293l13.457,7.447
				l-13.457,7.73l6.871,4.008l14.033-7.158l5.438,3.15l-13.17,7.73l8.877,4.867l-2.863,5.156l-8.877-5.156v14.893l-6.301-3.15V85.31
				l-6.871-4.291v14.887L71.997,88.75v8.018l12.887,7.443v6.588l-12.887-7.732v10.021h-6.586v-10.021l-13.17,7.732v-6.588
				l13.17-7.443V88.75l-13.459,7.156V81.019l-6.871,4.291v14.893l-5.727,3.15V88.46l-9.164,5.156l-2.861-5.156l8.875-4.867
				l-12.887-7.73l5.154-3.15l14.031,7.158l6.871-4.008l-13.457-7.73l13.457-7.447l-6.871-4.293l-14.031,7.73l-5.729-3.438
				l13.174-7.445l-8.303-5.15l2.863-5.445l8.877,5.158V32.625l5.727,3.434v15.18l6.871,4.008V40.072l13.459,7.441v-7.73l-13.17-7.73
				V25.18l13.17,7.158v-8.592H71.997z M48.519,68.133l7.156,4.007l7.16-4.007l-7.16-3.723L48.519,68.133z M57.968,51.811v7.73
				l7.443,4.01v-8.592L57.968,51.811z M57.968,84.74l7.443-3.15V73l-7.443,3.723V84.74z M71.997,54.959v8.592l7.16-4.584v-7.156
				L71.997,54.959z M71.997,81.589l7.16,3.15v-7.158L71.997,73V81.589z M75.435,68.133l6.871,4.007l7.16-4.007l-7.16-3.723
				L75.435,68.133z"/>
		</g>
	</g>
</g>
</svg>
