<?xml version="1.0" encoding="utf-8"?>
<!-- Generator: Adobe Illustrator 16.0.0, SVG Export Plug-In . SVG Version: 6.00 Build 0)  -->
<!DOCTYPE svg PUBLIC "-//W3C//DTD SVG 1.1//EN" "http://www.w3.org/Graphics/SVG/1.1/DTD/svg11.dtd">
<svg version="1.1" id="Layer_1" xmlns="http://www.w3.org/2000/svg" xmlns:xlink="http://www.w3.org/1999/xlink" x="0px" y="0px"
	 width="136.833px" height="136.834px" viewBox="0 0 136.833 136.834" style="enable-background:new 0 0 136.833 136.834;"
	 xml:space="preserve">
<style type="text/css">
<![CDATA[
	.st0{fill:#E59C31;}
	.st1{fill:#E5CE27;}
	.st2{fill:#E84849;}
	.st3{fill:#E8F5F4;}
	.st4{opacity:0.15;}
	.st5{fill:#857856;}
	.st6{fill:#EDB04E;}
	.st7{fill:#EFDE0E;}
	.st8{fill-rule:evenodd;clip-rule:evenodd;fill:#4B4A4B;}
	.st9{fill-rule:evenodd;clip-rule:evenodd;fill:#4C4D4D;}
	.st10{fill:#8CC3CC;}
	.st11{fill-rule:evenodd;clip-rule:evenodd;fill:#E84849;}
	.st12{fill:#F06668;}
	.st13{fill:#F1EB75;}
	.st14{fill:#F2BE3E;}
	.st15{fill:#F3ED73;}
	.st16{fill:#F4E028;}
	.st17{fill:#F59C9E;}
	.st18{fill:#F6A2A3;}
	.st19{clip-path:url(#SVGID_9_);}
	.st20{fill:#C0D5D7;}
	.st21{fill:url(#SVGID_1_);}
	.st22{fill:url(#SVGID_2_);}
	.st23{fill:url(#SVGID_3_);}
	.st24{fill:url(#SVGID_4_);}
	.st25{fill:url(#SVGID_5_);}
	.st26{fill:url(#SVGID_6_);}
	.st27{fill:url(#SVGID_7_);}
	.st28{fill:#C7E3E7;}
	.st29{fill:#2F8442;}
	.st30{fill-rule:evenodd;clip-rule:evenodd;fill:#F06668;}
	.st31{fill:#FFFFFF;}
	.st32{fill:#664219;}
	.st33{fill:#67B8CB;}
	.st34{fill:#9CBDBF;}
	.st35{fill:#69C6D4;}
	.st36{fill:#9F77AA;}
	.st37{fill:#344E5D;}
	.st38{fill:#357180;}
	.st39{fill:#6CC077;}
	.st40{fill-rule:evenodd;clip-rule:evenodd;fill:#FFFFFF;}
	.st41{fill-rule:evenodd;clip-rule:evenodd;fill:#626463;}
	.st42{fill:#D3E9D0;}
	.st43{fill:#717171;}
	.st44{fill:#A2D4DE;}
	.st45{fill:#A3D4AA;}
	.st46{fill:#DEA027;}
]]>
</style>
<g>
	<g>
		<g>
			<g>
				<circle class="st44" cx="68.417" cy="68.417" r="63.333"/>
			</g>
		</g>
		<g>
			<path class="st44" d="M127.624,90.911c2.658-6.992,4.126-14.57,4.126-22.494c0-34.98-28.355-63.334-63.333-63.334
				S5.083,33.437,5.083,68.417c0,7.589,1.339,14.865,3.787,21.608c16.104-8.806,36.456-12.999,58.585-12.999
				C90.316,77.026,111.28,81.499,127.624,90.911z"/>
			<path class="st39" d="M68.417,131.751c27.053,0,50.132-16.971,59.207-40.84c-16.344-9.412-37.308-13.885-60.168-13.885
				c-22.13,0-42.481,4.193-58.585,12.999C17.704,114.362,41.028,131.751,68.417,131.751z"/>
		</g>
	</g>
	<g>
		<g>
			<g>
				<path class="st29" d="M100.624,95.024c-0.667-6.332-17.666-12.666-30,9.334C70.624,104.358,102.719,114.927,100.624,95.024z"/>
				<path class="st45" d="M96.208,96.257c-0.545-5.168-14.418-10.336-24.483,7.617C71.724,103.874,97.917,112.499,96.208,96.257z"/>
			</g>
			<g>
				<path class="st29" d="M35.759,102.726c-0.916,6.301,16.996,19.633,34.375,1.354C70.134,104.079,38.637,82.923,35.759,102.726z"
					/>
				<path class="st45" d="M40.342,102.62c-0.746,5.143,14.423,16.574,28.606,1.658C68.949,104.278,42.692,86.458,40.342,102.62z"/>
			</g>
		</g>
		<path class="st29" d="M64.874,81.942c0,0-0.996,4.754-0.415,11.092c1.831,19.992,19.415,25.658,19.415,25.658s-15.75-9.5-14-35.75
			S64.874,81.942,64.874,81.942z"/>
		<g>
			<g>
				<path class="st18" d="M82.125,32.929c0,9.09-4.999,18.221-11.167,18.221c-6.167,0-11.167-9.131-11.167-18.221
					c0-9.088,5-14.691,11.167-14.691C77.125,18.237,82.125,23.841,82.125,32.929z"/>
				<path class="st2" d="M79.333,36.146c0,6.664-3.664,12.947-8.186,12.947s-8.188-6.283-8.188-12.947
					c0-6.662,3.666-11.182,8.188-11.182S79.333,29.483,79.333,36.146z"/>
			</g>
			<g>
				<path class="st18" d="M96.1,48.593c-6.426,6.426-16.417,9.348-20.778,4.986s-1.44-14.354,4.986-20.779
					c6.427-6.428,13.925-6.854,18.286-2.494C102.956,34.667,102.527,42.165,96.1,48.593z"/>
				<path class="st2" d="M91.852,48.892c-4.712,4.711-11.745,6.564-14.942,3.367s-1.347-10.232,3.364-14.943
					s10.5-5.316,13.697-2.119S96.563,44.181,91.852,48.892z"/>
			</g>
			<g>
				<path class="st18" d="M66.616,80.927c-3.55-8.367-2.515-18.725,3.163-21.133c5.679-2.41,13.848,4.043,17.396,12.408
					c3.551,8.369,1.135,15.479-4.542,17.889C76.956,92.501,70.166,89.292,66.616,80.927z"/>
				<path class="st2" d="M67.929,76.876c-2.603-6.135-1.684-13.35,2.479-15.115c4.162-1.766,9.99,2.586,12.594,8.719
					c2.603,6.133,0.993,11.727-3.171,13.492C75.669,85.739,70.532,83.009,67.929,76.876z"/>
			</g>
			<g>
				<path class="st18" d="M45.559,48.548c9.087-0.111,18.278,4.777,18.353,10.945c0.074,6.166-8.994,11.277-18.082,11.387
					c-9.089,0.111-14.752-4.824-14.827-10.99S36.472,48.657,45.559,48.548z"/>
				<path class="st2" d="M48.809,51.3c6.662-0.082,12.99,3.508,13.043,8.027c0.056,4.523-6.183,8.264-12.845,8.346
					c-6.662,0.08-11.226-3.531-11.28-8.053C37.671,55.099,42.147,51.38,48.809,51.3z"/>
			</g>
			<g>
				<path class="st18" d="M59.996,31.47c6.503,6.348,9.547,16.303,5.237,20.717c-4.309,4.412-14.334,1.613-20.838-4.734
					c-6.505-6.348-7.021-13.842-2.714-18.256C45.989,24.782,53.493,25.122,59.996,31.47z"/>
				<path class="st2" d="M60.346,35.716c4.77,4.65,6.707,11.664,3.547,14.896c-3.158,3.238-10.214,1.473-14.983-3.182
					c-4.768-4.654-5.441-10.434-2.282-13.67C49.786,30.524,55.58,31.06,60.346,35.716z"/>
			</g>
			<g>
				<path class="st18" d="M91.309,76.966c-9.059-0.738-17.754-6.461-17.254-12.607c0.501-6.148,10.006-10.391,19.064-9.654
					c9.06,0.738,14.238,6.176,13.739,12.322C106.359,73.175,100.367,77.702,91.309,76.966z"/>
				<path class="st2" d="M88.33,73.923c-6.641-0.541-12.606-4.703-12.239-9.209c0.366-4.508,6.926-7.652,13.566-7.111
					c6.641,0.539,10.849,4.561,10.481,9.068C99.772,71.177,94.97,74.462,88.33,73.923z"/>
			</g>
			<g>
				<path class="st18" d="M46.693,73.142c3.406-8.426,11.462-15.018,17.181-12.707c5.719,2.313,6.933,12.65,3.526,21.076
					c-3.406,8.428-10.143,11.748-15.86,9.438C45.821,88.638,43.288,81.567,46.693,73.142z"/>
				<path class="st2" d="M50.487,71.206c2.496-6.178,8.249-10.631,12.44-8.934c4.192,1.693,5.236,8.893,2.74,15.07
					c-2.497,6.176-7.589,8.992-11.782,7.297C49.693,82.946,47.99,77.384,50.487,71.206z"/>
			</g>
			<ellipse class="st16" cx="68.291" cy="59.024" rx="14.667" ry="12.998"/>
			<ellipse class="st1" cx="68.291" cy="59.024" rx="9.667" ry="8.566"/>
		</g>
	</g>
</g>
</svg>
