<?xml version="1.0" encoding="utf-8"?>
<!-- Generator: Adobe Illustrator 16.0.0, SVG Export Plug-In . SVG Version: 6.00 Build 0)  -->
<!DOCTYPE svg PUBLIC "-//W3C//DTD SVG 1.1//EN" "http://www.w3.org/Graphics/SVG/1.1/DTD/svg11.dtd">
<svg version="1.1" id="Layer_1" xmlns="http://www.w3.org/2000/svg" xmlns:xlink="http://www.w3.org/1999/xlink" x="0px" y="0px"
	 width="136.833px" height="136.833px" viewBox="0 0 136.833 136.833" style="enable-background:new 0 0 136.833 136.833;"
	 xml:space="preserve">
<style type="text/css">
<![CDATA[
	.st0{fill:#E59C31;}
	.st1{fill:#E5CE27;}
	.st2{fill:#E84849;}
	.st3{fill:#E8F5F4;}
	.st4{opacity:0.15;}
	.st5{fill:#857856;}
	.st6{fill:#EDB04E;}
	.st7{fill:#EFDE0E;}
	.st8{fill-rule:evenodd;clip-rule:evenodd;fill:#4B4A4B;}
	.st9{fill-rule:evenodd;clip-rule:evenodd;fill:#4C4D4D;}
	.st10{fill:#8CC3CC;}
	.st11{fill-rule:evenodd;clip-rule:evenodd;fill:#E84849;}
	.st12{fill:#F06668;}
	.st13{fill:#F1EB75;}
	.st14{fill:#F2BE3E;}
	.st15{fill:#F3ED73;}
	.st16{fill:#F4E028;}
	.st17{fill:#F59C9E;}
	.st18{fill:#F6A2A3;}
	.st19{clip-path:url(#SVGID_9_);}
	.st20{fill:#C0D5D7;}
	.st21{fill:url(#SVGID_1_);}
	.st22{fill:url(#SVGID_2_);}
	.st23{fill:url(#SVGID_3_);}
	.st24{fill:url(#SVGID_4_);}
	.st25{fill:url(#SVGID_5_);}
	.st26{fill:url(#SVGID_6_);}
	.st27{fill:url(#SVGID_7_);}
	.st28{fill:#C7E3E7;}
	.st29{fill:#2F8442;}
	.st30{fill-rule:evenodd;clip-rule:evenodd;fill:#F06668;}
	.st31{fill:#FFFFFF;}
	.st32{fill:#664219;}
	.st33{fill:#67B8CB;}
	.st34{fill:#9CBDBF;}
	.st35{fill:#69C6D4;}
	.st36{fill:#9F77AA;}
	.st37{fill:#344E5D;}
	.st38{fill:#357180;}
	.st39{fill:#6CC077;}
	.st40{fill-rule:evenodd;clip-rule:evenodd;fill:#FFFFFF;}
	.st41{fill-rule:evenodd;clip-rule:evenodd;fill:#626463;}
	.st42{fill:#D3E9D0;}
	.st43{fill:#717171;}
	.st44{fill:#A2D4DE;}
	.st45{fill:#A3D4AA;}
	.st46{fill:#DEA027;}
]]>
</style>
<g>
	<g>
		<g>
			<g>
				<circle class="st37" cx="68.417" cy="68.416" r="63.333"/>
			</g>
		</g>
	</g>
	<g>
		<g>
			<radialGradient id="SVGID_1_" cx="68.4165" cy="68.4165" r="31.9305" gradientUnits="userSpaceOnUse">
				<stop  offset="0.8182" style="stop-color:#D8D5DB"/>
				<stop  offset="1" style="stop-color:#D8D5DB"/>
			</radialGradient>
			<path class="st21" d="M100.347,68.416c0-10.141-4.734-19.172-12.106-25.021c3.633,7.574,5.67,16.06,5.67,25.021
				c0,8.961-2.037,17.448-5.67,25.022C95.613,87.59,100.347,78.559,100.347,68.416z"/>
			<path class="st43" d="M88.24,43.396c-5.447-4.321-12.331-6.909-19.824-6.909c-17.635,0-31.93,14.296-31.93,31.93
				c0,17.635,14.295,31.932,31.93,31.932c7.493,0,14.377-2.588,19.824-6.91c3.633-7.574,5.67-16.061,5.67-25.022
				C93.911,59.455,91.874,50.97,88.24,43.396z"/>
		</g>
	</g>
</g>
</svg>
