<?xml version="1.0" encoding="utf-8"?>
<!-- Generator: Adobe Illustrator 16.0.0, SVG Export Plug-In . SVG Version: 6.00 Build 0)  -->
<!DOCTYPE svg PUBLIC "-//W3C//DTD SVG 1.1//EN" "http://www.w3.org/Graphics/SVG/1.1/DTD/svg11.dtd">
<svg version="1.1" id="Layer_1" xmlns="http://www.w3.org/2000/svg" xmlns:xlink="http://www.w3.org/1999/xlink" x="0px" y="0px"
	 width="136.833px" height="136.834px" viewBox="0 0 136.833 136.834" style="enable-background:new 0 0 136.833 136.834;"
	 xml:space="preserve">
<style type="text/css">
<![CDATA[
	.st0{fill:#E59C31;}
	.st1{fill:#E5CE27;}
	.st2{fill:#E84849;}
	.st3{fill:#E8F5F4;}
	.st4{opacity:0.15;}
	.st5{fill:#857856;}
	.st6{fill:#EDB04E;}
	.st7{fill:#EFDE0E;}
	.st8{fill-rule:evenodd;clip-rule:evenodd;fill:#4B4A4B;}
	.st9{fill-rule:evenodd;clip-rule:evenodd;fill:#4C4D4D;}
	.st10{fill:#8CC3CC;}
	.st11{fill-rule:evenodd;clip-rule:evenodd;fill:#E84849;}
	.st12{fill:#F06668;}
	.st13{fill:#F1EB75;}
	.st14{fill:#F2BE3E;}
	.st15{fill:#F3ED73;}
	.st16{fill:#F4E028;}
	.st17{fill:#F59C9E;}
	.st18{fill:#F6A2A3;}
	.st19{clip-path:url(#SVGID_9_);}
	.st20{fill:#C0D5D7;}
	.st21{fill:url(#SVGID_1_);}
	.st22{fill:url(#SVGID_2_);}
	.st23{fill:url(#SVGID_3_);}
	.st24{fill:url(#SVGID_4_);}
	.st25{fill:url(#SVGID_5_);}
	.st26{fill:url(#SVGID_6_);}
	.st27{fill:url(#SVGID_7_);}
	.st28{fill:#C7E3E7;}
	.st29{fill:#2F8442;}
	.st30{fill-rule:evenodd;clip-rule:evenodd;fill:#F06668;}
	.st31{fill:#FFFFFF;}
	.st32{fill:#664219;}
	.st33{fill:#67B8CB;}
	.st34{fill:#9CBDBF;}
	.st35{fill:#69C6D4;}
	.st36{fill:#9F77AA;}
	.st37{fill:#344E5D;}
	.st38{fill:#357180;}
	.st39{fill:#6CC077;}
	.st40{fill-rule:evenodd;clip-rule:evenodd;fill:#FFFFFF;}
	.st41{fill-rule:evenodd;clip-rule:evenodd;fill:#626463;}
	.st42{fill:#D3E9D0;}
	.st43{fill:#717171;}
	.st44{fill:#A2D4DE;}
	.st45{fill:#A3D4AA;}
	.st46{fill:#DEA027;}
]]>
</style>
<g>
	<g>
		<g>
			<g>
				<circle class="st28" cx="68.416" cy="68.417" r="63.333"/>
			</g>
		</g>
	</g>
	<g>
		<g>
			<g>
				<path class="st12" d="M68.417,19.751c-26.879,0-48.666,21.788-48.666,48.666s21.787,48.666,48.666,48.666
					c26.877,0,48.666-21.788,48.666-48.666S95.294,19.751,68.417,19.751z M68.417,102.665c-18.914,0-34.248-15.333-34.248-34.247
					S49.503,34.17,68.417,34.17s34.246,15.333,34.246,34.247S87.331,102.665,68.417,102.665z"/>
			</g>
			<g>
				<g>
					<path class="st14" d="M68.417,24.708c-24.141,0-43.709,19.568-43.709,43.709c0,24.14,19.568,43.709,43.709,43.709
						c24.139,0,43.709-19.569,43.709-43.709C112.126,44.277,92.556,24.708,68.417,24.708z"/>
				</g>
			</g>
			<g>
				<g>
					<path class="st16" d="M68.417,29.15c-21.688,0-39.268,17.58-39.268,39.268c0,21.687,17.58,39.268,39.268,39.268
						s39.266-17.581,39.266-39.268C107.683,46.73,90.104,29.15,68.417,29.15z"/>
				</g>
			</g>
			<g>
				<path class="st39" d="M68.417,32.933c-19.598,0-35.484,15.887-35.484,35.484s15.887,35.484,35.484,35.484
					s35.484-15.887,35.484-35.484S88.015,32.933,68.417,32.933z"/>
			</g>
			<g>
				<path class="st33" d="M68.501,36.873c-17.375,0-31.461,14.086-31.461,31.461s14.086,31.461,31.461,31.461
					s31.461-14.086,31.461-31.461S85.876,36.873,68.501,36.873z"/>
			</g>
			<g>
				<path class="st36" d="M68.417,40.932c-15.18,0-27.484,12.306-27.484,27.485s12.305,27.485,27.484,27.485
					s27.484-12.306,27.484-27.485S83.597,40.932,68.417,40.932z"/>
			</g>
			<g>
				<path class="st44" d="M68.919,46.333c-12.752,0-23.09,10.337-23.09,23.09c0,12.752,10.338,23.09,23.09,23.09
					c12.754,0,23.092-10.338,23.092-23.09C92.011,56.67,81.673,46.333,68.919,46.333z"/>
			</g>
			<g>
				<path class="st31" d="M68.919,46.333c-12.752,0-23.09,10.337-23.09,23.09c0,12.752,10.338,23.09,23.09,23.09
					c12.754,0,23.092-10.338,23.092-23.09C92.011,56.67,81.673,46.333,68.919,46.333z"/>
			</g>
		</g>
	</g>
</g>
</svg>
