<?xml version="1.0" encoding="utf-8"?>
<!-- Generator: Adobe Illustrator 16.0.0, SVG Export Plug-In . SVG Version: 6.00 Build 0)  -->
<!DOCTYPE svg PUBLIC "-//W3C//DTD SVG 1.1//EN" "http://www.w3.org/Graphics/SVG/1.1/DTD/svg11.dtd">
<svg version="1.1" id="Layer_1" xmlns="http://www.w3.org/2000/svg" xmlns:xlink="http://www.w3.org/1999/xlink" x="0px" y="0px"
	 width="136.833px" height="136.834px" viewBox="0 0 136.833 136.834" style="enable-background:new 0 0 136.833 136.834;"
	 xml:space="preserve">
<style type="text/css">
<![CDATA[
	.st0{fill:#E59C31;}
	.st1{fill:#E5CE27;}
	.st2{fill:#E84849;}
	.st3{fill:#E8F5F4;}
	.st4{opacity:0.15;}
	.st5{fill:#857856;}
	.st6{fill:#EDB04E;}
	.st7{fill:#EFDE0E;}
	.st8{fill-rule:evenodd;clip-rule:evenodd;fill:#4B4A4B;}
	.st9{fill-rule:evenodd;clip-rule:evenodd;fill:#4C4D4D;}
	.st10{fill:#8CC3CC;}
	.st11{fill-rule:evenodd;clip-rule:evenodd;fill:#E84849;}
	.st12{fill:#F06668;}
	.st13{fill:#F1EB75;}
	.st14{fill:#F2BE3E;}
	.st15{fill:#F3ED73;}
	.st16{fill:#F4E028;}
	.st17{fill:#F59C9E;}
	.st18{fill:#F6A2A3;}
	.st19{clip-path:url(#SVGID_9_);}
	.st20{fill:#C0D5D7;}
	.st21{fill:url(#SVGID_1_);}
	.st22{fill:url(#SVGID_2_);}
	.st23{fill:url(#SVGID_3_);}
	.st24{fill:url(#SVGID_4_);}
	.st25{fill:url(#SVGID_5_);}
	.st26{fill:url(#SVGID_6_);}
	.st27{fill:url(#SVGID_7_);}
	.st28{fill:#C7E3E7;}
	.st29{fill:#2F8442;}
	.st30{fill-rule:evenodd;clip-rule:evenodd;fill:#F06668;}
	.st31{fill:#FFFFFF;}
	.st32{fill:#664219;}
	.st33{fill:#67B8CB;}
	.st34{fill:#9CBDBF;}
	.st35{fill:#69C6D4;}
	.st36{fill:#9F77AA;}
	.st37{fill:#344E5D;}
	.st38{fill:#357180;}
	.st39{fill:#6CC077;}
	.st40{fill-rule:evenodd;clip-rule:evenodd;fill:#FFFFFF;}
	.st41{fill-rule:evenodd;clip-rule:evenodd;fill:#626463;}
	.st42{fill:#D3E9D0;}
	.st43{fill:#717171;}
	.st44{fill:#A2D4DE;}
	.st45{fill:#A3D4AA;}
	.st46{fill:#DEA027;}
]]>
</style>
<g>
	<g>
		<g>
			<circle class="st44" cx="68.417" cy="68.417" r="63.333"/>
		</g>
	</g>
	<g>
		<g>
			<path class="st44" d="M131.663,71.738c0.057-1.101,0.087-2.207,0.087-3.321c0-34.98-28.355-63.334-63.333-63.334
				S5.083,33.437,5.083,68.417c0,1.809,0.094,3.594,0.243,5.364c16.916-11.373,39.701-16.755,64.771-16.755
				C93.615,57.026,115.125,61.762,131.663,71.738z"/>
			<path class="st35" d="M70.097,75.026c22.113,0,42.451,4.187,58.55,12.979c1.679-5.165,2.724-10.615,3.016-16.268
				c-16.538-9.977-38.048-14.712-61.566-14.712c-25.069,0-47.855,5.382-64.771,16.755c0.462,5.51,1.624,10.819,3.406,15.838
				C25.244,79.725,46.673,75.026,70.097,75.026z"/>
			<path class="st15" d="M8.732,89.619c8.721,24.548,32.145,42.132,59.684,42.132c28.139,0,51.978-18.358,60.23-43.745
				c-16.099-8.793-36.437-12.979-58.55-12.979C46.673,75.026,25.244,79.725,8.732,89.619z"/>
		</g>
		<g>
			<defs>
				<circle id="SVGID_8_" cx="69.956" cy="62.026" r="30"/>
			</defs>
			<clipPath id="SVGID_1_">
				<use xlink:href="#SVGID_8_"  style="overflow:visible;"/>
			</clipPath>
			<g style="clip-path:url(#SVGID_1_);">
				<path class="st38" d="M59.867,32.499c0,0-5.138,2.029-2.84,18.93L52.7,54.538l-11.896-3.109
					C40.805,51.429,45.534,36.421,59.867,32.499z"/>
				<path class="st39" d="M40.805,51.429l12.573,3.109l0.135,6.219c0,0-9.734,11.355-10.411,17.576
					C43.102,78.333,35.395,67.786,40.805,51.429z"/>
				<path class="st7" d="M53.956,59.901l6.046,2.209c0,0,4.462,24.064,12.843,29.473c0,0-22.038,3.109-29.743-13.25
					C43.102,78.333,45.032,69.364,53.956,59.901z"/>
				<path class="st2" d="M59.46,61.974c0,0,4.868,23.66,13.385,29.609c0,0,18.928,3.648,27.176-23.119L63.247,58.052L59.46,61.974z"
					/>
				<path class="st39" d="M63.247,58.052L99.886,69.14c0,0,4.461-15.412-10.95-31.502c0,0-17.982-0.674-27.175,14.873L63.247,58.052
					z"/>
				<path class="st7" d="M57.027,51.429c0,0-2.976-14.736,2.299-18.658c0,0,15.817-4.596,30.012,5.408
					c0,0-12.708-2.027-27.577,14.332L57.027,51.429z"/>
			</g>
			<g style="clip-path:url(#SVGID_1_);">
				<ellipse class="st31" cx="58.623" cy="56.858" rx="5.98" ry="6.156"/>
				<ellipse class="st31" cx="58.623" cy="56.858" rx="5.98" ry="6.156"/>
				<ellipse class="st31" cx="58.623" cy="56.858" rx="5.98" ry="6.156"/>
			</g>
		</g>
		<ellipse class="st4" cx="70.623" cy="107.36" rx="19.584" ry="7.531"/>
	</g>
</g>
</svg>
