<?xml version="1.0" encoding="utf-8"?>
<!-- Generator: Adobe Illustrator 16.0.0, SVG Export Plug-In . SVG Version: 6.00 Build 0)  -->
<!DOCTYPE svg PUBLIC "-//W3C//DTD SVG 1.1//EN" "http://www.w3.org/Graphics/SVG/1.1/DTD/svg11.dtd">
<svg version="1.1" id="Layer_1" xmlns="http://www.w3.org/2000/svg" xmlns:xlink="http://www.w3.org/1999/xlink" x="0px" y="0px"
	 width="136.833px" height="136.834px" viewBox="0 0 136.833 136.834" style="enable-background:new 0 0 136.833 136.834;"
	 xml:space="preserve">
<style type="text/css">
<![CDATA[
	.st0{fill:#E59C31;}
	.st1{fill:#E5CE27;}
	.st2{fill:#E84849;}
	.st3{fill:#E8F5F4;}
	.st4{opacity:0.15;}
	.st5{fill:#857856;}
	.st6{fill:#EDB04E;}
	.st7{fill:#EFDE0E;}
	.st8{fill-rule:evenodd;clip-rule:evenodd;fill:#4B4A4B;}
	.st9{fill-rule:evenodd;clip-rule:evenodd;fill:#4C4D4D;}
	.st10{fill:#8CC3CC;}
	.st11{fill-rule:evenodd;clip-rule:evenodd;fill:#E84849;}
	.st12{fill:#F06668;}
	.st13{fill:#F1EB75;}
	.st14{fill:#F2BE3E;}
	.st15{fill:#F3ED73;}
	.st16{fill:#F4E028;}
	.st17{fill:#F59C9E;}
	.st18{fill:#F6A2A3;}
	.st19{clip-path:url(#SVGID_9_);}
	.st20{fill:#C0D5D7;}
	.st21{fill:url(#SVGID_1_);}
	.st22{fill:url(#SVGID_2_);}
	.st23{fill:url(#SVGID_3_);}
	.st24{fill:url(#SVGID_4_);}
	.st25{fill:url(#SVGID_5_);}
	.st26{fill:url(#SVGID_6_);}
	.st27{fill:url(#SVGID_7_);}
	.st28{fill:#C7E3E7;}
	.st29{fill:#2F8442;}
	.st30{fill-rule:evenodd;clip-rule:evenodd;fill:#F06668;}
	.st31{fill:#FFFFFF;}
	.st32{fill:#664219;}
	.st33{fill:#67B8CB;}
	.st34{fill:#9CBDBF;}
	.st35{fill:#69C6D4;}
	.st36{fill:#9F77AA;}
	.st37{fill:#344E5D;}
	.st38{fill:#357180;}
	.st39{fill:#6CC077;}
	.st40{fill-rule:evenodd;clip-rule:evenodd;fill:#FFFFFF;}
	.st41{fill-rule:evenodd;clip-rule:evenodd;fill:#626463;}
	.st42{fill:#D3E9D0;}
	.st43{fill:#717171;}
	.st44{fill:#A2D4DE;}
	.st45{fill:#A3D4AA;}
	.st46{fill:#DEA027;}
]]>
</style>
<g>
	<g>
		<g>
			<g>
				<circle class="st14" cx="68.416" cy="68.417" r="63.333"/>
			</g>
		</g>
	</g>
	<g>
		<g>
			<g>
				<path class="st31" d="M76.079,80.663V25.125c0-4.23-3.43-7.664-7.662-7.664c-4.234,0-7.664,3.434-7.664,7.664v55.537
					C53.444,83.68,48.3,90.867,48.3,99.258c0,11.107,9.01,20.113,20.117,20.113c11.105,0,20.115-9.006,20.115-20.113
					C88.532,90.867,83.384,83.676,76.079,80.663z"/>
				<path class="st2" d="M73.64,93.608V55.754c0-2.883-2.34-5.224-5.223-5.224s-5.225,2.341-5.225,5.224v37.854
					C58.214,95.665,78.616,95.663,73.64,93.608z"/>
				<circle class="st2" cx="68.431" cy="99.549" r="18.213"/>
				<g>
					<path class="st17" d="M63.206,26.885v2.785h6.699v-2.785H63.206z M63.206,38.966h8.699v-2.787h-8.699V38.966z M63.206,48.263
						h6.699v-2.79h-6.699V48.263z"/>
					<path class="st17" d="M63.206,57.633h8.699v-2.787h-8.699V57.633z M63.206,76.633h8.699v-2.787h-8.699V76.633z M63.206,66.93
						h6.699v-2.791h-6.699V66.93z"/>
				</g>
			</g>
			<path class="st17" d="M55.11,101.179c-2.639-2.636,0.258-9.938,2.895-12.574s9.021-5.14,11.656-2.503
				C72.298,88.739,57.747,103.816,55.11,101.179z"/>
		</g>
	</g>
</g>
</svg>
