<?xml version="1.0" encoding="utf-8"?>
<!-- Generator: Adobe Illustrator 16.0.0, SVG Export Plug-In . SVG Version: 6.00 Build 0)  -->
<!DOCTYPE svg PUBLIC "-//W3C//DTD SVG 1.1//EN" "http://www.w3.org/Graphics/SVG/1.1/DTD/svg11.dtd">
<svg version="1.1" id="Layer_1" xmlns="http://www.w3.org/2000/svg" xmlns:xlink="http://www.w3.org/1999/xlink" x="0px" y="0px"
	 width="136.833px" height="136.834px" viewBox="0 0 136.833 136.834" style="enable-background:new 0 0 136.833 136.834;"
	 xml:space="preserve">
<style type="text/css">
<![CDATA[
	.st0{fill:#E59C31;}
	.st1{fill:#E5CE27;}
	.st2{fill:#E84849;}
	.st3{fill:#E8F5F4;}
	.st4{opacity:0.15;}
	.st5{fill:#857856;}
	.st6{fill:#EDB04E;}
	.st7{fill:#EFDE0E;}
	.st8{fill-rule:evenodd;clip-rule:evenodd;fill:#4B4A4B;}
	.st9{fill-rule:evenodd;clip-rule:evenodd;fill:#4C4D4D;}
	.st10{fill:#8CC3CC;}
	.st11{fill-rule:evenodd;clip-rule:evenodd;fill:#E84849;}
	.st12{fill:#F06668;}
	.st13{fill:#F1EB75;}
	.st14{fill:#F2BE3E;}
	.st15{fill:#F3ED73;}
	.st16{fill:#F4E028;}
	.st17{fill:#F59C9E;}
	.st18{fill:#F6A2A3;}
	.st19{clip-path:url(#SVGID_9_);}
	.st20{fill:#C0D5D7;}
	.st21{fill:url(#SVGID_1_);}
	.st22{fill:url(#SVGID_2_);}
	.st23{fill:url(#SVGID_3_);}
	.st24{fill:url(#SVGID_4_);}
	.st25{fill:url(#SVGID_5_);}
	.st26{fill:url(#SVGID_6_);}
	.st27{fill:url(#SVGID_7_);}
	.st28{fill:#C7E3E7;}
	.st29{fill:#2F8442;}
	.st30{fill-rule:evenodd;clip-rule:evenodd;fill:#F06668;}
	.st31{fill:#FFFFFF;}
	.st32{fill:#664219;}
	.st33{fill:#67B8CB;}
	.st34{fill:#9CBDBF;}
	.st35{fill:#69C6D4;}
	.st36{fill:#9F77AA;}
	.st37{fill:#344E5D;}
	.st38{fill:#357180;}
	.st39{fill:#6CC077;}
	.st40{fill-rule:evenodd;clip-rule:evenodd;fill:#FFFFFF;}
	.st41{fill-rule:evenodd;clip-rule:evenodd;fill:#626463;}
	.st42{fill:#D3E9D0;}
	.st43{fill:#717171;}
	.st44{fill:#A2D4DE;}
	.st45{fill:#A3D4AA;}
	.st46{fill:#DEA027;}
]]>
</style>
<g>
	<g>
		<g>
			<circle class="st34" cx="68.416" cy="68.417" r="63.333"/>
		</g>
	</g>
	<g>
		<g>
			<path class="st31" d="M80.013,57.931c0,0-12.1,4.559-13.205,5.662c-2.084,2.086-2.084,5.463-0.002,7.545
				c2.088,2.086,5.465,2.086,7.549,0C75.458,70.036,80.013,57.931,80.013,57.931z"/>
			<path class="st31" d="M42.237,95.493c0,0-12.1,4.559-13.203,5.66c-2.088,2.086-2.088,5.461-0.004,7.547
				c2.088,2.084,5.463,2.084,7.551,0C37.685,107.597,42.237,95.493,42.237,95.493z"/>
			<path class="st31" d="M117.206,81.7c0,0-12.102,4.557-13.205,5.66c-2.086,2.084-2.086,5.461-0.002,7.545
				c2.086,2.084,5.465,2.084,7.549,0C112.649,93.802,117.206,81.7,117.206,81.7z"/>
			<path class="st31" d="M118.28,40.571c0,0-12.102,4.557-13.207,5.66c-2.082,2.086-2.082,5.461-0.002,7.547
				c2.09,2.084,5.463,2.084,7.549,0C113.724,52.675,118.28,40.571,118.28,40.571z"/>
			<path class="st31" d="M93.403,18.925c0,0-12.1,4.559-13.205,5.662c-2.084,2.086-2.084,5.463-0.002,7.545
				c2.088,2.084,5.465,2.084,7.547,0C88.851,31.028,93.403,18.925,93.403,18.925z"/>
			<path class="st31" d="M43.442,59.521c0,0-12.104,4.559-13.209,5.662c-2.082,2.086-2.082,5.459-0.002,7.545
				c2.088,2.086,5.465,2.086,7.549,0C38.884,71.624,43.442,59.521,43.442,59.521z"/>
		</g>
		<path class="st31" d="M81.147,93.39c0,0-12.1,4.559-13.203,5.662c-2.086,2.084-2.086,5.461-0.004,7.545
			c2.088,2.084,5.463,2.084,7.551,0C76.595,105.493,81.147,93.39,81.147,93.39z"/>
		<path class="st31" d="M48.659,25.872c0,0-12.1,4.559-13.203,5.662c-2.086,2.084-2.086,5.461-0.004,7.545
			c2.088,2.084,5.463,2.084,7.551,0C44.106,37.976,48.659,25.872,48.659,25.872z"/>
	</g>
</g>
</svg>
