<?xml version="1.0" encoding="utf-8"?>
<!-- Generator: Adobe Illustrator 16.0.0, SVG Export Plug-In . SVG Version: 6.00 Build 0)  -->
<!DOCTYPE svg PUBLIC "-//W3C//DTD SVG 1.1//EN" "http://www.w3.org/Graphics/SVG/1.1/DTD/svg11.dtd">
<svg version="1.1" id="Layer_1" xmlns="http://www.w3.org/2000/svg" xmlns:xlink="http://www.w3.org/1999/xlink" x="0px" y="0px"
	 width="136.833px" height="136.833px" viewBox="0 0 136.833 136.833" style="enable-background:new 0 0 136.833 136.833;"
	 xml:space="preserve">
<style type="text/css">
<![CDATA[
	.st0{fill:#E59C31;}
	.st1{fill:#E5CE27;}
	.st2{fill:#E84849;}
	.st3{fill:#E8F5F4;}
	.st4{opacity:0.15;}
	.st5{fill:#857856;}
	.st6{fill:#EDB04E;}
	.st7{fill:#EFDE0E;}
	.st8{fill-rule:evenodd;clip-rule:evenodd;fill:#4B4A4B;}
	.st9{fill-rule:evenodd;clip-rule:evenodd;fill:#4C4D4D;}
	.st10{fill:#8CC3CC;}
	.st11{fill-rule:evenodd;clip-rule:evenodd;fill:#E84849;}
	.st12{fill:#F06668;}
	.st13{fill:#F1EB75;}
	.st14{fill:#F2BE3E;}
	.st15{fill:#F3ED73;}
	.st16{fill:#F4E028;}
	.st17{fill:#F59C9E;}
	.st18{fill:#F6A2A3;}
	.st19{clip-path:url(#SVGID_9_);}
	.st20{fill:#C0D5D7;}
	.st21{fill:url(#SVGID_1_);}
	.st22{fill:url(#SVGID_2_);}
	.st23{fill:url(#SVGID_3_);}
	.st24{fill:url(#SVGID_4_);}
	.st25{fill:url(#SVGID_5_);}
	.st26{fill:url(#SVGID_6_);}
	.st27{fill:url(#SVGID_7_);}
	.st28{fill:#C7E3E7;}
	.st29{fill:#2F8442;}
	.st30{fill-rule:evenodd;clip-rule:evenodd;fill:#F06668;}
	.st31{fill:#FFFFFF;}
	.st32{fill:#664219;}
	.st33{fill:#67B8CB;}
	.st34{fill:#9CBDBF;}
	.st35{fill:#69C6D4;}
	.st36{fill:#9F77AA;}
	.st37{fill:#344E5D;}
	.st38{fill:#357180;}
	.st39{fill:#6CC077;}
	.st40{fill-rule:evenodd;clip-rule:evenodd;fill:#FFFFFF;}
	.st41{fill-rule:evenodd;clip-rule:evenodd;fill:#626463;}
	.st42{fill:#D3E9D0;}
	.st43{fill:#717171;}
	.st44{fill:#A2D4DE;}
	.st45{fill:#A3D4AA;}
	.st46{fill:#DEA027;}
]]>
</style>
<g>
	<g>
		<g>
			<g>
				<circle class="st14" cx="68.416" cy="68.417" r="63.333"/>
			</g>
		</g>
	</g>
	<g>
		<g>
			<g>
				<g>
					<path class="st46" d="M101.544,74.254l10.02,3.028c-0.674,2.811-1.732,5.157-3.18,7.042c-1.447,1.884-3.244,3.307-5.391,4.265
						c-2.145,0.96-4.875,1.44-8.189,1.44c-4.02,0-7.307-0.585-9.855-1.753c-2.549-1.169-4.75-3.225-6.6-6.167
						c-1.852-2.944-2.777-6.71-2.777-11.302c0-6.12,1.629-10.825,4.885-14.11c3.256-3.29,7.863-4.932,13.818-4.932
						c4.662,0,8.324,0.942,10.992,2.826c2.666,1.885,4.648,4.779,5.943,8.683l-10.096,2.246c-0.354-1.128-0.723-1.952-1.109-2.473
						c-0.641-0.875-1.422-1.548-2.35-2.02c-0.924-0.472-1.959-0.707-3.102-0.707c-2.592,0-4.578,1.043-5.959,3.126
						c-1.043,1.546-1.564,3.975-1.564,7.286c0,4.101,0.623,6.91,1.867,8.432c1.246,1.522,2.996,2.281,5.25,2.281
						c2.188,0,3.842-0.613,4.961-1.842C100.226,78.376,101.038,76.592,101.544,74.254z"/>
				</g>
			</g>
			<g>
				<path class="st46" d="M67.743,44.229c-4.256,0-7.707,3.45-7.707,7.707c0,4.258,3.451,7.708,7.707,7.708s7.707-3.45,7.707-7.708
					C75.45,47.679,71.999,44.229,67.743,44.229z M67.743,56.962c-2.775,0-5.025-2.25-5.025-5.026s2.25-5.026,5.025-5.026
					s5.027,2.25,5.027,5.026S70.519,56.962,67.743,56.962z"/>
			</g>
		</g>
		<g>
			<g>
				<path class="st31" d="M49.651,79.164V30.424c0-3.713-3.01-6.727-6.727-6.727c-3.715,0-6.725,3.014-6.725,6.727v48.739
					c-6.414,2.648-10.93,8.955-10.93,16.32c0,9.748,7.906,17.651,17.654,17.651c9.746,0,17.654-7.903,17.654-17.651
					C60.579,88.119,56.06,81.809,49.651,79.164z"/>
				<path class="st2" d="M47.509,90.525V57.304c0-2.53-2.053-4.584-4.584-4.584c-2.529,0-4.584,2.054-4.584,4.584v33.221
					C33.972,92.33,51.878,92.328,47.509,90.525z"/>
				<circle class="st2" cx="42.938" cy="95.739" r="15.983"/>
				<g>
					<path class="st17" d="M38.353,31.968v2.444h5.879v-2.444H38.353z M38.353,42.571h7.635v-2.446h-7.635V42.571z M38.353,50.73
						h5.879v-2.449h-5.879V50.73z"/>
					<path class="st17" d="M38.353,58.953h7.635v-2.445h-7.635V58.953z M38.353,75.627h7.635v-2.445h-7.635V75.627z M38.353,67.112
						h5.879v-2.449h-5.879V67.112z"/>
				</g>
			</g>
			<path class="st17" d="M31.249,97.169c-2.316-2.313,0.225-8.722,2.539-11.035c2.314-2.314,7.916-4.511,10.23-2.196
				C46.333,86.251,33.562,99.484,31.249,97.169z"/>
		</g>
	</g>
</g>
</svg>
