<?xml version="1.0" encoding="utf-8"?>
<!-- Generator: Adobe Illustrator 16.0.0, SVG Export Plug-In . SVG Version: 6.00 Build 0)  -->
<!DOCTYPE svg PUBLIC "-//W3C//DTD SVG 1.1//EN" "http://www.w3.org/Graphics/SVG/1.1/DTD/svg11.dtd">
<svg version="1.1" id="Layer_1" xmlns="http://www.w3.org/2000/svg" xmlns:xlink="http://www.w3.org/1999/xlink" x="0px" y="0px"
	 width="136.833px" height="136.834px" viewBox="0 0 136.833 136.834" style="enable-background:new 0 0 136.833 136.834;"
	 xml:space="preserve">
<style type="text/css">
<![CDATA[
	.st0{fill:#E59C31;}
	.st1{fill:#E5CE27;}
	.st2{fill:#E84849;}
	.st3{fill:#E8F5F4;}
	.st4{opacity:0.15;}
	.st5{fill:#857856;}
	.st6{fill:#EDB04E;}
	.st7{fill:#EFDE0E;}
	.st8{fill-rule:evenodd;clip-rule:evenodd;fill:#4B4A4B;}
	.st9{fill-rule:evenodd;clip-rule:evenodd;fill:#4C4D4D;}
	.st10{fill:#8CC3CC;}
	.st11{fill-rule:evenodd;clip-rule:evenodd;fill:#E84849;}
	.st12{fill:#F06668;}
	.st13{fill:#F1EB75;}
	.st14{fill:#F2BE3E;}
	.st15{fill:#F3ED73;}
	.st16{fill:#F4E028;}
	.st17{fill:#F59C9E;}
	.st18{fill:#F6A2A3;}
	.st19{clip-path:url(#SVGID_9_);}
	.st20{fill:#C0D5D7;}
	.st21{fill:url(#SVGID_1_);}
	.st22{fill:url(#SVGID_2_);}
	.st23{fill:url(#SVGID_3_);}
	.st24{fill:url(#SVGID_4_);}
	.st25{fill:url(#SVGID_5_);}
	.st26{fill:url(#SVGID_6_);}
	.st27{fill:url(#SVGID_7_);}
	.st28{fill:#C7E3E7;}
	.st29{fill:#2F8442;}
	.st30{fill-rule:evenodd;clip-rule:evenodd;fill:#F06668;}
	.st31{fill:#FFFFFF;}
	.st32{fill:#664219;}
	.st33{fill:#67B8CB;}
	.st34{fill:#9CBDBF;}
	.st35{fill:#69C6D4;}
	.st36{fill:#9F77AA;}
	.st37{fill:#344E5D;}
	.st38{fill:#357180;}
	.st39{fill:#6CC077;}
	.st40{fill-rule:evenodd;clip-rule:evenodd;fill:#FFFFFF;}
	.st41{fill-rule:evenodd;clip-rule:evenodd;fill:#626463;}
	.st42{fill:#D3E9D0;}
	.st43{fill:#717171;}
	.st44{fill:#A2D4DE;}
	.st45{fill:#A3D4AA;}
	.st46{fill:#DEA027;}
]]>
</style>
<g>
	<g>
		<g>
			<circle class="st34" cx="68.416" cy="68.417" r="63.333"/>
		</g>
	</g>
	<g>
		<path class="st41" d="M71.591,70.01L44.304,97.296l-4.492-3.531l27.766-27.768L71.591,70.01z"/>
		<path class="st9" d="M44.985,97.798c-7.182,8.625-17.241,5.029-19.035-3.947c-0.705-3.525,4.668-8.265,6.465-5.028
			c-1.437,12.212,7.14,4.263,7.14,4.263s2.274,0.4,3.667,1.792C44.617,96.272,44.985,97.798,44.985,97.798z"/>
		<g>
			<path class="st11" d="M96.99,39.985c31.391,31.392,0.016,70.438,0.016,70.438c-0.438-11.443-11.267-22.27-22.271-22.27
				c0,0-2.375-9.431-9.254-16.309c-6.877-6.877-15.441-8.388-15.441-8.388c0.565-10.44-9.472-21.478-21.978-21.978
				C28.063,41.48,65.598,8.593,96.99,39.985z"/>
			<path class="st30" d="M96.99,39.985c5.996,5.997-17.636,42.325-22.255,48.169c0,0-2.375-9.431-9.254-16.309
				c-6.877-6.877-15.441-8.388-15.441-8.388C55.368,58.326,92.581,35.577,96.99,39.985z"/>
			<path class="st8" d="M99.158,42.987c-0.911,0.916-2.81,0.497-4.239-0.931c-1.429-1.429-1.847-3.328-0.934-4.24
				c0.914-0.911,2.811-0.495,4.238,0.934C99.654,40.179,100.07,42.077,99.158,42.987z"/>
		</g>
	</g>
</g>
</svg>
