<?xml version="1.0" encoding="utf-8"?>
<!-- Generator: Adobe Illustrator 16.0.0, SVG Export Plug-In . SVG Version: 6.00 Build 0)  -->
<!DOCTYPE svg PUBLIC "-//W3C//DTD SVG 1.1//EN" "http://www.w3.org/Graphics/SVG/1.1/DTD/svg11.dtd">
<svg version="1.1" id="Layer_1" xmlns="http://www.w3.org/2000/svg" xmlns:xlink="http://www.w3.org/1999/xlink" x="0px" y="0px"
	 width="136.833px" height="136.834px" viewBox="0 0 136.833 136.834" style="enable-background:new 0 0 136.833 136.834;"
	 xml:space="preserve">
<style type="text/css">
<![CDATA[
	.st0{fill:#E59C31;}
	.st1{fill:#E5CE27;}
	.st2{fill:#E84849;}
	.st3{fill:#E8F5F4;}
	.st4{opacity:0.15;}
	.st5{fill:#857856;}
	.st6{fill:#EDB04E;}
	.st7{fill:#EFDE0E;}
	.st8{fill-rule:evenodd;clip-rule:evenodd;fill:#4B4A4B;}
	.st9{fill-rule:evenodd;clip-rule:evenodd;fill:#4C4D4D;}
	.st10{fill:#8CC3CC;}
	.st11{fill-rule:evenodd;clip-rule:evenodd;fill:#E84849;}
	.st12{fill:#F06668;}
	.st13{fill:#F1EB75;}
	.st14{fill:#F2BE3E;}
	.st15{fill:#F3ED73;}
	.st16{fill:#F4E028;}
	.st17{fill:#F59C9E;}
	.st18{fill:#F6A2A3;}
	.st19{clip-path:url(#SVGID_9_);}
	.st20{fill:#C0D5D7;}
	.st21{fill:url(#SVGID_1_);}
	.st22{fill:url(#SVGID_2_);}
	.st23{fill:url(#SVGID_3_);}
	.st24{fill:url(#SVGID_4_);}
	.st25{fill:url(#SVGID_5_);}
	.st26{fill:url(#SVGID_6_);}
	.st27{fill:url(#SVGID_7_);}
	.st28{fill:#C7E3E7;}
	.st29{fill:#2F8442;}
	.st30{fill-rule:evenodd;clip-rule:evenodd;fill:#F06668;}
	.st31{fill:#FFFFFF;}
	.st32{fill:#664219;}
	.st33{fill:#67B8CB;}
	.st34{fill:#9CBDBF;}
	.st35{fill:#69C6D4;}
	.st36{fill:#9F77AA;}
	.st37{fill:#344E5D;}
	.st38{fill:#357180;}
	.st39{fill:#6CC077;}
	.st40{fill-rule:evenodd;clip-rule:evenodd;fill:#FFFFFF;}
	.st41{fill-rule:evenodd;clip-rule:evenodd;fill:#626463;}
	.st42{fill:#D3E9D0;}
	.st43{fill:#717171;}
	.st44{fill:#A2D4DE;}
	.st45{fill:#A3D4AA;}
	.st46{fill:#DEA027;}
]]>
</style>
<g>
	<circle class="st44" cx="68.417" cy="68.417" r="63.333"/>
</g>
<g>
	<g>
		<g>
			<path class="st44" d="M127.5,91.226c2.735-7.08,4.25-14.766,4.25-22.809c0-34.98-28.355-63.334-63.333-63.334
				S5.083,33.437,5.083,68.417c0,7.18,1.212,14.072,3.414,20.508C24.42,80.53,44.338,76.526,65.956,76.526
				C89.464,76.526,110.964,81.257,127.5,91.226z"/>
			<path class="st39" d="M68.417,131.751c26.934,0,49.926-16.822,59.083-40.525c-16.535-9.969-38.036-14.699-61.543-14.699
				c-21.618,0-41.536,4.004-57.458,12.398C17.021,113.833,40.619,131.751,68.417,131.751z"/>
		</g>
		<path class="st5" d="M68.109,78.751c0,0,2.574,32.43-14.415,36.291h3.089c16.988-3.861,14.415-36.291,14.415-36.291H68.109z"/>
		<path class="st6" d="M114.508,47.335c-1.687,0.832-9.667,7.291-11.965-1.002c0,0-9.366,9.736-11.812-0.342
			c0,0-1.559,3.107-6.134,7.178c1.353-8.777,2.84-13.525,2.84-13.525c-9.531,9.949-10.436-11.188-10.436-11.188
			c-6.991,2.646-7.276-8.834-7.698-10.947c0,0-0.506,13.572-7.95,10.49c0,0,0.988,16.395-10.687,10.951
			c0,0,1.485,4.449,2.689,13.244c-4.291-4.199-5.673-6.203-5.673-6.203c-2.446,10.078-11.812,0.342-11.812,0.342
			c-2.298,8.293-10.278,1.834-11.965,1.002c0,0,8.941,8.447,2.478,13.816c0,0,10.521,7.889,3.108,13.564
			c0,0,22.409,5.994,13.441,18.246c0,0,17.273,1.814,22.018-1.83c1.179-0.904,2.55-3.391,3.755-3.355
			c1.329,0.039,4.21,1.975,5.239,3.568c3.261,5.057,21.536,1.617,21.536,1.617c-8.968-12.252,13.441-18.246,13.441-18.246
			c-7.413-5.676,3.108-13.564,3.108-13.564C105.567,55.782,114.508,47.335,114.508,47.335z"/>
	</g>
	<path class="st0" d="M68.206,87.983c0,0,2.375-28.645,1.125-69.895c0,0,3.75,61.188,1.792,70.688
		C71.123,88.776,68.831,87.192,68.206,87.983z"/>
	<polygon class="st0" points="114.508,47.335 69.706,76.526 70.206,79.776 	"/>
	<polygon class="st0" points="25.206,48.276 68.578,83.706 69.456,81.026 	"/>
</g>
</svg>
