<?xml version="1.0" encoding="utf-8"?>
<!-- Generator: Adobe Illustrator 16.0.0, SVG Export Plug-In . SVG Version: 6.00 Build 0)  -->
<!DOCTYPE svg PUBLIC "-//W3C//DTD SVG 1.1//EN" "http://www.w3.org/Graphics/SVG/1.1/DTD/svg11.dtd">
<svg version="1.1" id="Layer_1" xmlns="http://www.w3.org/2000/svg" xmlns:xlink="http://www.w3.org/1999/xlink" x="0px" y="0px"
	 width="136.833px" height="136.834px" viewBox="0 0 136.833 136.834" style="enable-background:new 0 0 136.833 136.834;"
	 xml:space="preserve">
<style type="text/css">
<![CDATA[
	.st0{fill:#E59C31;}
	.st1{fill:#E5CE27;}
	.st2{fill:#E84849;}
	.st3{fill:#E8F5F4;}
	.st4{opacity:0.15;}
	.st5{fill:#857856;}
	.st6{fill:#EDB04E;}
	.st7{fill:#EFDE0E;}
	.st8{fill-rule:evenodd;clip-rule:evenodd;fill:#4B4A4B;}
	.st9{fill-rule:evenodd;clip-rule:evenodd;fill:#4C4D4D;}
	.st10{fill:#8CC3CC;}
	.st11{fill-rule:evenodd;clip-rule:evenodd;fill:#E84849;}
	.st12{fill:#F06668;}
	.st13{fill:#F1EB75;}
	.st14{fill:#F2BE3E;}
	.st15{fill:#F3ED73;}
	.st16{fill:#F4E028;}
	.st17{fill:#F59C9E;}
	.st18{fill:#F6A2A3;}
	.st19{clip-path:url(#SVGID_9_);}
	.st20{fill:#C0D5D7;}
	.st21{fill:url(#SVGID_1_);}
	.st22{fill:url(#SVGID_2_);}
	.st23{fill:url(#SVGID_3_);}
	.st24{fill:url(#SVGID_4_);}
	.st25{fill:url(#SVGID_5_);}
	.st26{fill:url(#SVGID_6_);}
	.st27{fill:url(#SVGID_7_);}
	.st28{fill:#C7E3E7;}
	.st29{fill:#2F8442;}
	.st30{fill-rule:evenodd;clip-rule:evenodd;fill:#F06668;}
	.st31{fill:#FFFFFF;}
	.st32{fill:#664219;}
	.st33{fill:#67B8CB;}
	.st34{fill:#9CBDBF;}
	.st35{fill:#69C6D4;}
	.st36{fill:#9F77AA;}
	.st37{fill:#344E5D;}
	.st38{fill:#357180;}
	.st39{fill:#6CC077;}
	.st40{fill-rule:evenodd;clip-rule:evenodd;fill:#FFFFFF;}
	.st41{fill-rule:evenodd;clip-rule:evenodd;fill:#626463;}
	.st42{fill:#D3E9D0;}
	.st43{fill:#717171;}
	.st44{fill:#A2D4DE;}
	.st45{fill:#A3D4AA;}
	.st46{fill:#DEA027;}
]]>
</style>
<g>
	<g>
		<g>
			<g>
				<circle class="st44" cx="68.417" cy="68.416" r="63.333"/>
			</g>
		</g>
	</g>
	<g>
		<g>
			<circle class="st13" cx="48.951" cy="72.322" r="27.352"/>
			<path class="st31" d="M89.829,92.578c0.058-0.416,0.329-0.773,0.329-1.207c0-6.586-7.125-11.93-15.917-11.93
				c-1.15,0-2.173,0.32-3.259,0.496c-2.634-3.502-7.441-5.967-13.191-5.967c-7.443,0-13.359,4.049-14.757,9.328
				c-7.219,1.434-12.666,6.146-12.666,12.016c0,5.557,4.855,10.135,11.501,11.832c2.25,5.066,8.424,8.779,15.922,8.779
				c6.803,0,12.569-3.047,15.292-7.371c1.748,0.582,3.659,0.93,5.693,0.93c7.795,0,14.119-4.742,14.119-10.6
				C92.896,96.477,91.635,94.359,89.829,92.578z"/>
		</g>
		<g>
			<g>
				<path class="st33" d="M105.214,50.934l10.02,3.029c-0.673,2.809-1.733,5.156-3.18,7.041c-1.447,1.885-3.243,3.307-5.39,4.266
					c-2.145,0.959-4.875,1.439-8.19,1.439c-4.021,0-7.307-0.584-9.855-1.752c-2.549-1.17-4.75-3.225-6.6-6.168
					c-1.852-2.943-2.777-6.709-2.777-11.301c0-6.121,1.628-10.826,4.884-14.111c3.256-3.289,7.862-4.932,13.819-4.932
					c4.662,0,8.324,0.943,10.992,2.826c2.666,1.885,4.648,4.779,5.943,8.684l-10.095,2.246c-0.354-1.129-0.724-1.953-1.11-2.475
					c-0.641-0.875-1.422-1.547-2.349-2.018c-0.925-0.473-1.959-0.707-3.103-0.707c-2.592,0-4.578,1.043-5.958,3.125
					c-1.043,1.547-1.565,3.975-1.565,7.287c0,4.1,0.622,6.91,1.868,8.432c1.245,1.521,2.995,2.281,5.25,2.281
					c2.187,0,3.84-0.613,4.96-1.842C103.896,55.055,104.709,53.271,105.214,50.934z"/>
			</g>
			<g>
				<path class="st33" d="M71.413,20.908c-4.255,0-7.707,3.451-7.707,7.707c0,4.258,3.451,7.709,7.707,7.709
					c4.256,0,7.707-3.451,7.707-7.709C79.12,24.359,75.669,20.908,71.413,20.908z M71.413,33.641c-2.775,0-5.025-2.248-5.025-5.025
					c0-2.775,2.25-5.025,5.025-5.025c2.776,0,5.027,2.25,5.027,5.025C76.44,31.393,74.189,33.641,71.413,33.641z"/>
			</g>
		</g>
	</g>
</g>
</svg>
