<?xml version="1.0" encoding="utf-8"?>
<!-- Generator: Adobe Illustrator 16.0.0, SVG Export Plug-In . SVG Version: 6.00 Build 0)  -->
<!DOCTYPE svg PUBLIC "-//W3C//DTD SVG 1.1//EN" "http://www.w3.org/Graphics/SVG/1.1/DTD/svg11.dtd">
<svg version="1.1" id="Layer_1" xmlns="http://www.w3.org/2000/svg" xmlns:xlink="http://www.w3.org/1999/xlink" x="0px" y="0px"
	 width="136.833px" height="136.834px" viewBox="0 0 136.833 136.834" style="enable-background:new 0 0 136.833 136.834;"
	 xml:space="preserve">
<style type="text/css">
<![CDATA[
	.st0{fill:#E59C31;}
	.st1{fill:#E5CE27;}
	.st2{fill:#E84849;}
	.st3{fill:#E8F5F4;}
	.st4{opacity:0.15;}
	.st5{fill:#857856;}
	.st6{fill:#EDB04E;}
	.st7{fill:#EFDE0E;}
	.st8{fill-rule:evenodd;clip-rule:evenodd;fill:#4B4A4B;}
	.st9{fill-rule:evenodd;clip-rule:evenodd;fill:#4C4D4D;}
	.st10{fill:#8CC3CC;}
	.st11{fill-rule:evenodd;clip-rule:evenodd;fill:#E84849;}
	.st12{fill:#F06668;}
	.st13{fill:#F1EB75;}
	.st14{fill:#F2BE3E;}
	.st15{fill:#F3ED73;}
	.st16{fill:#F4E028;}
	.st17{fill:#F59C9E;}
	.st18{fill:#F6A2A3;}
	.st19{clip-path:url(#SVGID_9_);}
	.st20{fill:#C0D5D7;}
	.st21{fill:url(#SVGID_1_);}
	.st22{fill:url(#SVGID_2_);}
	.st23{fill:url(#SVGID_3_);}
	.st24{fill:url(#SVGID_4_);}
	.st25{fill:url(#SVGID_5_);}
	.st26{fill:url(#SVGID_6_);}
	.st27{fill:url(#SVGID_7_);}
	.st28{fill:#C7E3E7;}
	.st29{fill:#2F8442;}
	.st30{fill-rule:evenodd;clip-rule:evenodd;fill:#F06668;}
	.st31{fill:#FFFFFF;}
	.st32{fill:#664219;}
	.st33{fill:#67B8CB;}
	.st34{fill:#9CBDBF;}
	.st35{fill:#69C6D4;}
	.st36{fill:#9F77AA;}
	.st37{fill:#344E5D;}
	.st38{fill:#357180;}
	.st39{fill:#6CC077;}
	.st40{fill-rule:evenodd;clip-rule:evenodd;fill:#FFFFFF;}
	.st41{fill-rule:evenodd;clip-rule:evenodd;fill:#626463;}
	.st42{fill:#D3E9D0;}
	.st43{fill:#717171;}
	.st44{fill:#A2D4DE;}
	.st45{fill:#A3D4AA;}
	.st46{fill:#DEA027;}
]]>
</style>
<g>
	<g>
		<g>
			<g>
				<circle class="st44" cx="68.417" cy="68.417" r="63.333"/>
			</g>
		</g>
	</g>
	<g>
		<g>
			<circle class="st13" cx="50.79" cy="72.323" r="27.352"/>
			<path class="st31" d="M91.667,92.579c0.059-0.416,0.329-0.775,0.329-1.207c0-6.588-7.124-11.93-15.916-11.93
				c-1.15,0-2.174,0.318-3.26,0.494c-2.634-3.502-7.44-5.965-13.19-5.965c-7.443,0-13.36,4.049-14.758,9.328
				c-7.219,1.434-12.666,6.145-12.666,12.014c0,5.559,4.854,10.135,11.501,11.832c2.251,5.066,8.424,8.779,15.923,8.779
				c6.803,0,12.569-3.045,15.292-7.369c1.748,0.582,3.658,0.93,5.693,0.93c7.796,0,14.119-4.744,14.119-10.602
				C94.735,96.476,93.474,94.36,91.667,92.579z"/>
		</g>
		<g>
			<g>
				<path class="st33" d="M73.251,20.909c-4.255,0-7.706,3.449-7.706,7.705c0,4.258,3.451,7.709,7.706,7.709
					c4.257,0,7.708-3.451,7.708-7.709C80.959,24.358,77.508,20.909,73.251,20.909z M73.251,33.642c-2.774,0-5.024-2.25-5.024-5.027
					c0-2.775,2.25-5.025,5.024-5.025c2.776,0,5.027,2.25,5.027,5.025C78.279,31.392,76.028,33.642,73.251,33.642z"/>
			</g>
		</g>
		<g>
			<path class="st33" d="M86.039,30.593h27.357v7.693H97.153v6.254h13.874v7.23H97.153v14.631H86.039V30.593z"/>
		</g>
	</g>
</g>
</svg>
