<?xml version="1.0" encoding="utf-8"?>
<!-- Generator: Adobe Illustrator 16.0.0, SVG Export Plug-In . SVG Version: 6.00 Build 0)  -->
<!DOCTYPE svg PUBLIC "-//W3C//DTD SVG 1.1//EN" "http://www.w3.org/Graphics/SVG/1.1/DTD/svg11.dtd">
<svg version="1.1" id="Layer_1" xmlns="http://www.w3.org/2000/svg" xmlns:xlink="http://www.w3.org/1999/xlink" x="0px" y="0px"
	 width="136.833px" height="136.834px" viewBox="0 0 136.833 136.834" style="enable-background:new 0 0 136.833 136.834;"
	 xml:space="preserve">
<style type="text/css">
<![CDATA[
	.st0{fill:#E59C31;}
	.st1{fill:#E5CE27;}
	.st2{fill:#E84849;}
	.st3{fill:#E8F5F4;}
	.st4{opacity:0.15;}
	.st5{fill:#857856;}
	.st6{fill:#EDB04E;}
	.st7{fill:#EFDE0E;}
	.st8{fill-rule:evenodd;clip-rule:evenodd;fill:#4B4A4B;}
	.st9{fill-rule:evenodd;clip-rule:evenodd;fill:#4C4D4D;}
	.st10{fill:#8CC3CC;}
	.st11{fill-rule:evenodd;clip-rule:evenodd;fill:#E84849;}
	.st12{fill:#F06668;}
	.st13{fill:#F1EB75;}
	.st14{fill:#F2BE3E;}
	.st15{fill:#F3ED73;}
	.st16{fill:#F4E028;}
	.st17{fill:#F59C9E;}
	.st18{fill:#F6A2A3;}
	.st19{clip-path:url(#SVGID_9_);}
	.st20{fill:#C0D5D7;}
	.st21{fill:url(#SVGID_1_);}
	.st22{fill:url(#SVGID_2_);}
	.st23{fill:url(#SVGID_3_);}
	.st24{fill:url(#SVGID_4_);}
	.st25{fill:url(#SVGID_5_);}
	.st26{fill:url(#SVGID_6_);}
	.st27{fill:url(#SVGID_7_);}
	.st28{fill:#C7E3E7;}
	.st29{fill:#2F8442;}
	.st30{fill-rule:evenodd;clip-rule:evenodd;fill:#F06668;}
	.st31{fill:#FFFFFF;}
	.st32{fill:#664219;}
	.st33{fill:#67B8CB;}
	.st34{fill:#9CBDBF;}
	.st35{fill:#69C6D4;}
	.st36{fill:#9F77AA;}
	.st37{fill:#344E5D;}
	.st38{fill:#357180;}
	.st39{fill:#6CC077;}
	.st40{fill-rule:evenodd;clip-rule:evenodd;fill:#FFFFFF;}
	.st41{fill-rule:evenodd;clip-rule:evenodd;fill:#626463;}
	.st42{fill:#D3E9D0;}
	.st43{fill:#717171;}
	.st44{fill:#A2D4DE;}
	.st45{fill:#A3D4AA;}
	.st46{fill:#DEA027;}
]]>
</style>
<g>
	<g>
		<g>
			<g>
				<g>
					<circle class="st37" cx="68.416" cy="68.417" r="63.333"/>
				</g>
			</g>
		</g>
	</g>
	<g>
		<g>
			<path class="st31" d="M110.05,50.158c0.064-0.476,0.375-0.886,0.375-1.381c0-7.54-8.154-13.655-18.217-13.655
				c-1.316,0-2.488,0.365-3.73,0.566c-3.016-4.008-8.52-6.828-15.1-6.828c-8.521,0-15.293,4.635-16.893,10.677
				c-8.264,1.64-14.498,7.034-14.498,13.752c0,6.362,5.559,11.601,13.164,13.542c2.578,5.8,9.643,10.05,18.227,10.05
				c7.787,0,14.387-3.487,17.504-8.437c2,0.668,4.188,1.064,6.518,1.064c8.922,0,16.16-5.429,16.16-12.135
				C113.56,54.619,112.114,52.196,110.05,50.158z"/>
			<g>
				
					<image style="overflow:visible;opacity:0.15;" width="207" height="147" xlink:href="96719315.png"  transform="matrix(0.24 0 0 0.24 18.6768 36.6958)">
				</image>
				<g>
					<path class="st31" d="M62.022,51.633c0.039-0.289,0.227-0.539,0.227-0.839c0-4.581-4.953-8.296-11.066-8.296
						c-0.801,0-1.512,0.223-2.266,0.345c-1.832-2.435-5.174-4.147-9.172-4.147c-5.176,0-9.291,2.814-10.262,6.484
						c-5.02,0.998-8.807,4.273-8.807,8.354c0,3.864,3.377,7.046,7.996,8.226c1.566,3.523,5.857,6.105,11.072,6.105
						c4.73,0,8.738-2.118,10.631-5.125c1.217,0.405,2.545,0.646,3.961,0.646c5.418,0,9.816-3.299,9.816-7.371
						C64.153,54.342,63.276,52.872,62.022,51.633z"/>
				</g>
			</g>
			<g>
				
					<image style="overflow:visible;opacity:0.15;" width="176" height="127" xlink:href="96719317.png"  transform="matrix(0.24 0 0 0.24 78.0107 50.6958)">
				</image>
				<g>
					<path class="st31" d="M81.784,66.19c-0.033,0.24-0.189,0.449-0.189,0.697c0,3.809,4.119,6.896,9.201,6.896
						c0.664,0,1.256-0.185,1.883-0.286c1.521,2.024,4.301,3.448,7.625,3.448c4.303,0,7.723-2.34,8.529-5.392
						c4.174-0.829,7.322-3.552,7.322-6.944c0-3.213-2.807-5.858-6.646-6.84c-1.303-2.928-4.871-5.074-9.205-5.074
						c-3.934,0-7.266,1.76-8.838,4.26c-1.012-0.336-2.115-0.537-3.293-0.537c-4.506,0-8.162,2.742-8.162,6.127
						C80.011,63.938,80.741,65.161,81.784,66.19z"/>
				</g>
			</g>
		</g>
		<path class="st31" d="M42.062,77.157c0,0-7.182,2.705-7.838,3.359c-1.236,1.238-1.236,3.242,0,4.479
			c1.238,1.237,3.242,1.237,4.479,0C39.358,84.34,42.062,77.157,42.062,77.157z"/>
		<path class="st31" d="M42.562,92.491c0,0-7.182,2.704-7.838,3.359c-1.236,1.236-1.236,3.24,0,4.478
			c1.238,1.237,3.242,1.237,4.479,0C39.858,99.672,42.562,92.491,42.562,92.491z"/>
		<path class="st31" d="M59.226,78.305c0,0-7.182,2.704-7.836,3.359c-1.238,1.236-1.238,3.24-0.002,4.478
			c1.238,1.237,3.242,1.237,4.48,0C56.522,85.487,59.226,78.305,59.226,78.305z"/>
		<polygon class="st13" points="86.026,96.222 80.146,91.344 97.161,82.925 81.987,79.554 68.692,89.316 73.675,90.849 
			62.22,99.862 66.673,100.957 57.118,107.973 77.337,103.957 73.706,100.944 		"/>
	</g>
</g>
</svg>
