<?xml version="1.0" encoding="utf-8"?>
<!-- Generator: Adobe Illustrator 16.0.0, SVG Export Plug-In . SVG Version: 6.00 Build 0)  -->
<!DOCTYPE svg PUBLIC "-//W3C//DTD SVG 1.1//EN" "http://www.w3.org/Graphics/SVG/1.1/DTD/svg11.dtd">
<svg version="1.1" id="Layer_1" xmlns="http://www.w3.org/2000/svg" xmlns:xlink="http://www.w3.org/1999/xlink" x="0px" y="0px"
	 width="136.833px" height="136.834px" viewBox="0 0 136.833 136.834" style="enable-background:new 0 0 136.833 136.834;"
	 xml:space="preserve">
<style type="text/css">
<![CDATA[
	.st0{fill:#E59C31;}
	.st1{fill:#E5CE27;}
	.st2{fill:#E84849;}
	.st3{fill:#E8F5F4;}
	.st4{opacity:0.15;}
	.st5{fill:#857856;}
	.st6{fill:#EDB04E;}
	.st7{fill:#EFDE0E;}
	.st8{fill-rule:evenodd;clip-rule:evenodd;fill:#4B4A4B;}
	.st9{fill-rule:evenodd;clip-rule:evenodd;fill:#4C4D4D;}
	.st10{fill:#8CC3CC;}
	.st11{fill-rule:evenodd;clip-rule:evenodd;fill:#E84849;}
	.st12{fill:#F06668;}
	.st13{fill:#F1EB75;}
	.st14{fill:#F2BE3E;}
	.st15{fill:#F3ED73;}
	.st16{fill:#F4E028;}
	.st17{fill:#F59C9E;}
	.st18{fill:#F6A2A3;}
	.st19{clip-path:url(#SVGID_9_);}
	.st20{fill:#C0D5D7;}
	.st21{fill:url(#SVGID_1_);}
	.st22{fill:url(#SVGID_2_);}
	.st23{fill:url(#SVGID_3_);}
	.st24{fill:url(#SVGID_4_);}
	.st25{fill:url(#SVGID_5_);}
	.st26{fill:url(#SVGID_6_);}
	.st27{fill:url(#SVGID_7_);}
	.st28{fill:#C7E3E7;}
	.st29{fill:#2F8442;}
	.st30{fill-rule:evenodd;clip-rule:evenodd;fill:#F06668;}
	.st31{fill:#FFFFFF;}
	.st32{fill:#664219;}
	.st33{fill:#67B8CB;}
	.st34{fill:#9CBDBF;}
	.st35{fill:#69C6D4;}
	.st36{fill:#9F77AA;}
	.st37{fill:#344E5D;}
	.st38{fill:#357180;}
	.st39{fill:#6CC077;}
	.st40{fill-rule:evenodd;clip-rule:evenodd;fill:#FFFFFF;}
	.st41{fill-rule:evenodd;clip-rule:evenodd;fill:#626463;}
	.st42{fill:#D3E9D0;}
	.st43{fill:#717171;}
	.st44{fill:#A2D4DE;}
	.st45{fill:#A3D4AA;}
	.st46{fill:#DEA027;}
]]>
</style>
<g>
	<g>
		<g>
			<circle class="st44" cx="68.417" cy="68.417" r="63.333"/>
		</g>
	</g>
	<g>
		<path class="st44" d="M128.187,89.363c2.299-6.559,3.563-13.604,3.563-20.946c0-34.98-28.355-63.334-63.333-63.334
			S5.083,33.437,5.083,68.417c0,7.898,1.458,15.453,4.1,22.426c16.435-9.67,37.647-14.266,60.811-14.266
			C91.944,76.577,112.145,80.702,128.187,89.363z"/>
		<path class="st42" d="M68.417,131.751c27.634,0,51.121-17.707,59.771-42.388c-16.042-8.661-36.243-12.786-58.193-12.786
			c-23.163,0-44.376,4.596-60.811,14.266C18.239,114.749,41.337,131.751,68.417,131.751z"/>
	</g>
	<g>
		<circle class="st3" cx="70.161" cy="67.243" r="21"/>
		<circle class="st3" cx="70.16" cy="45.911" r="16.667"/>
		<circle class="st3" cx="70.16" cy="91.245" r="29"/>
		<g>
			<path class="st18" d="M85.342,52.761c-2.614,5.785-8.422,9.816-15.182,9.816c-6.761,0-12.568-4.031-15.183-9.816
				c0,0-1.403,0.502-2.339,1.504c-0.875,0.938-0.382,2.025-0.382,2.025c-0.581,1.754,8.231,10.398,17.566,10.449
				c9.576,0.053,19.294-8.707,18.328-10.305c0,0-0.138-1.295-0.95-2.107C86.452,53.577,85.342,52.761,85.342,52.761z"/>
		</g>
		<path class="st18" d="M87.077,81.14c0,0-0.875,0.875-2.375,0.875s-2.375-0.875-2.375-0.875s1-8.561,1-14.061
			c0-5.502-1.104-9.668-1.104-9.668s1.021-1.041,1.646-2.021c0.729-1.229,1.474-2.629,1.474-2.629s1.339,2.463,1.734,4.129
			c0.396,1.668,1,5.188,1,10.688S87.077,81.14,87.077,81.14z"/>
		<circle class="st43" cx="78.077" cy="43.827" r="2.75"/>
		<circle class="st32" cx="70.161" cy="72.897" r="3.281"/>
		<circle class="st32" cx="70.161" cy="84.179" r="3.281"/>
		<circle class="st32" cx="70.161" cy="94.591" r="3.281"/>
		<circle class="st0" cx="70.16" cy="51.245" r="2.75"/>
		<polygon class="st0" points="67.827,50.161 65.577,55.661 65.911,56.411 71.244,53.745 72.661,50.077 		"/>
		<circle class="st6" cx="65.911" cy="55.911" r="0.5"/>
		<g>
			<path class="st43" d="M85.161,30.577c0,1.842-1.492,3.334-3.333,3.334h-24c-1.842,0-3.334-1.492-3.334-3.334l0,0
				c0-1.84,1.492-3.332,3.334-3.332h24C83.668,27.245,85.161,28.737,85.161,30.577L85.161,30.577z"/>
			<path class="st43" d="M70.494,30.577c-4.487,0-8.125-0.957-8.125-2.137V13.048c0-1.18,3.638-2.137,8.125-2.137l0,0
				c4.486,0,8.125,0.957,8.125,2.137V28.44C78.619,29.62,74.98,30.577,70.494,30.577L70.494,30.577z"/>
		</g>
		<circle class="st43" cx="63.077" cy="43.827" r="2.75"/>
	</g>
	<path class="st40" d="M37.346,81.937l-0.658-1.141h-2.911l1.271-2.201l-0.661-1.143h-1.318l-1.928,3.344h-4.313l2.157-3.738h3.856
		l0.658-1.141l-0.658-1.139H30.3l1.455-2.527l-0.656-1.141h-1.318l-1.456,2.521l-1.272-2.197h-1.315l-0.661,1.141l1.93,3.342
		l-2.157,3.736l-2.158-3.736l1.929-3.342l-0.657-1.141h-1.318l-1.271,2.197l-1.458-2.521h-1.315l-0.66,1.141l1.457,2.527h-2.541
		l-0.659,1.139l0.659,1.141h3.858l2.158,3.738h-4.318l-1.927-3.344H15.31l-0.661,1.143l1.27,2.201h-2.911l-0.66,1.141l0.66,1.141
		h2.911l-1.27,2.199l0.661,1.143h1.316l1.927-3.342h4.318l-2.158,3.736h-3.858l-0.659,1.141l0.659,1.143h2.541l-1.457,2.521
		l0.66,1.143h1.315l1.458-2.523l1.271,2.201h1.318l0.657-1.143l-1.929-3.342l2.158-3.734l2.157,3.734l-1.928,3.342l0.659,1.143
		h1.315l1.272-2.199l1.456,2.521h1.318l0.656-1.143L30.3,89.097h2.54l0.658-1.143l-0.658-1.141h-3.856l-2.157-3.736h4.313
		l1.928,3.342h1.318l0.661-1.143l-1.271-2.199h2.911L37.346,81.937z"/>
</g>
</svg>
