<?xml version="1.0" encoding="utf-8"?>
<!-- Generator: Adobe Illustrator 16.0.0, SVG Export Plug-In . SVG Version: 6.00 Build 0)  -->
<!DOCTYPE svg PUBLIC "-//W3C//DTD SVG 1.1//EN" "http://www.w3.org/Graphics/SVG/1.1/DTD/svg11.dtd">
<svg version="1.1" id="Layer_1" xmlns="http://www.w3.org/2000/svg" xmlns:xlink="http://www.w3.org/1999/xlink" x="0px" y="0px"
	 width="136.833px" height="136.834px" viewBox="0 0 136.833 136.834" style="enable-background:new 0 0 136.833 136.834;"
	 xml:space="preserve">
<style type="text/css">
<![CDATA[
	.st0{fill:#46898D;}
	.st1{fill:#48888C;}
	.st2{fill:#48A1AF;}
	.st3{fill-rule:evenodd;clip-rule:evenodd;fill:#3F3E3D;}
	.st4{fill:#7F807D;}
	.st5{fill:#E26917;}
	.st6{fill:#E2A976;}
	.st7{fill:#E57428;}
	.st8{fill:#4ABC96;}
	.st9{fill:#E5AA17;}
	.st10{fill:#E5BDA1;}
	.st11{fill-rule:evenodd;clip-rule:evenodd;fill:#DAECEF;}
	.st12{fill:#4C4B49;}
	.st13{fill:#4D4C4C;}
	.st14{fill:#B16227;}
	.st15{fill:#B2723A;}
	.st16{fill:#1A5B37;}
	.st17{fill:#EA4949;}
	.st18{fill:#EAC2A0;}
	.st19{fill:#EACE57;}
	.st20{fill:#EACF60;}
	.st21{fill:#509BA3;}
	.st22{fill:#EE6D6D;}
	.st23{fill:#EED877;}
	.st24{fill:#557F0D;}
	.st25{fill:#BA7842;}
	.st26{fill:#8B401E;}
	.st27{fill:#BE7C3F;}
	.st28{fill:#22A85B;}
	.st29{fill-rule:evenodd;clip-rule:evenodd;fill:#827159;}
	.st30{fill:#F47C2C;}
	.st31{fill:#F4C82E;}
	.st32{fill:#F4E12B;}
	.st33{fill:#5A8AA3;}
	.st34{fill:#F5C82D;}
	.st35{fill:#F69656;}
	.st36{fill:#F7A1A1;}
	.st37{fill:#5D250E;}
	.st38{fill:#F98646;}
	.st39{fill:#C17E42;}
	.st40{fill:#93783D;}
	.st41{fill:#C4C3B7;}
	.st42{fill:#C68A4F;}
	.st43{fill:#2D734E;}
	.st44{opacity:0.6;}
	.st45{fill:#2FA379;}
	.st46{fill:#FFFFFF;}
	.st47{fill:#64A80D;}
	.st48{fill:none;}
	.st49{fill:#66321C;}
	.st50{fill-rule:evenodd;clip-rule:evenodd;fill:#5B4F3F;}
	.st51{fill:#9B7542;}
	.st52{fill:#CD9251;}
	.st53{fill:#9E7640;}
	.st54{fill:#9EDADA;}
	.st55{fill:#CE0202;}
	.st56{fill:#CE945F;}
	.st57{fill:#9F6029;}
	.st58{fill:#CEA16F;}
	.st59{fill:#CEA272;}
	.st60{fill:#333333;}
	.st61{fill:#337180;}
	.st62{fill:#36160D;}
	.st63{fill:#6EBD44;}
	.st64{fill:#6EC9AB;}
	.st65{fill:#00A31F;}
	.st66{fill:#D5C427;}
	.st67{fill:#D69D61;}
	.st68{fill:#D6A972;}
	.st69{fill:#D78628;}
	.st70{fill:#3F3E40;}
	.st71{fill:#A2A29B;}
	.st72{fill:#A3D5E0;}
	.st73{fill:#A47E46;}
	.st74{fill:#77B7B7;}
	.st75{fill:#DB6414;}
	.st76{fill:#DBA375;}
	.st77{fill:#DCB282;}
	.st78{fill:#DCEFED;}
	.st79{fill:#A9D5D0;}
	.st80{fill:#DDAA7C;}
	.st81{fill:#DE6A35;}
	.st82{fill:#DFC65F;}
	.st83{fill:#444343;}
	.st84{fill:#448A96;}
]]>
</style>
<g>
	<g>
		<circle class="st0" cx="68.417" cy="68.417" r="63.333"/>
	</g>
	<g>
		<g>
			<g>
				<path class="st58" d="M78.12,87.626c-0.317,3.902-4.025,6.612-8.278,6.052l0,0c-4.256-0.56-7.447-4.179-7.129-8.082
					l1.334-16.345c0.316-3.903,4.023-6.613,8.279-6.053l0,0c4.256,0.559,7.445,4.178,7.128,8.08L78.12,87.626z"/>
				<path class="st68" d="M83.555,62.776c0.579,6.579-4.705,11.981-11.8,12.069l0,0c-7.098,0.088-13.316-5.174-13.896-11.753
					l-2.418-27.554c-0.578-6.578,4.705-11.982,11.802-12.07l0,0c7.095-0.087,13.315,5.174,13.894,11.752L83.555,62.776z"/>
			</g>
		</g>
		<g>
			<path class="st68" d="M108.345,98.846l-9.885,4.417l7.574,16.1c2.296-1.697,4.466-3.552,6.509-5.537L108.345,98.846z"/>
			<polygon class="st68" points="95.101,96.124 95.826,97.662 95.033,95.095 			"/>
			<path class="st68" d="M26.849,116.178l15.746-10.155L32.424,99.06l-11.31,11.453C22.904,112.522,24.822,114.412,26.849,116.178z"
				/>
			<path class="st61" d="M103.415,76.119l-24.405,4.538l-19.796,3.397l-17.049,2.814l-10.75,11.5l1.01,0.691l10.171,6.963
				l1.604,1.098l4.364-3.252l-0.266,24.6c6.322,2.117,13.082,3.282,20.117,3.282c10.299,0,20.015-2.474,28.611-6.836l-1.926-28.791
				l2.563,7.495l0.796-0.355l9.885-4.417l1.069-0.478L103.415,76.119z"/>
		</g>
		<path class="st26" d="M54.542,35.292c0,0,0.393,20.078,2.115,15.64c9.409-24.253,32.037-12.938,33.055-15.837l-5.633-1.122
			c0,0,5.928-1.257,6.412-4.058C90.492,29.916,58.615,9.806,54.542,35.292z"/>
	</g>
</g>
</svg>
