<?xml version="1.0" encoding="utf-8"?>
<!-- Generator: Adobe Illustrator 16.0.0, SVG Export Plug-In . SVG Version: 6.00 Build 0)  -->
<!DOCTYPE svg PUBLIC "-//W3C//DTD SVG 1.1//EN" "http://www.w3.org/Graphics/SVG/1.1/DTD/svg11.dtd">
<svg version="1.1" id="Layer_1" xmlns="http://www.w3.org/2000/svg" xmlns:xlink="http://www.w3.org/1999/xlink" x="0px" y="0px"
	 width="136.833px" height="136.833px" viewBox="0 0 136.833 136.833" style="enable-background:new 0 0 136.833 136.833;"
	 xml:space="preserve">
<style type="text/css">
<![CDATA[
	.st0{fill:#46898D;}
	.st1{fill:#48888C;}
	.st2{fill:#48A1AF;}
	.st3{fill-rule:evenodd;clip-rule:evenodd;fill:#3F3E3D;}
	.st4{fill:#7F807D;}
	.st5{fill:#E26917;}
	.st6{fill:#E2A976;}
	.st7{fill:#E57428;}
	.st8{fill:#4ABC96;}
	.st9{fill:#E5AA17;}
	.st10{fill:#E5BDA1;}
	.st11{fill-rule:evenodd;clip-rule:evenodd;fill:#DAECEF;}
	.st12{fill:#4C4B49;}
	.st13{fill:#4D4C4C;}
	.st14{fill:#B16227;}
	.st15{fill:#B2723A;}
	.st16{fill:#1A5B37;}
	.st17{fill:#EA4949;}
	.st18{fill:#EAC2A0;}
	.st19{fill:#EACE57;}
	.st20{fill:#EACF60;}
	.st21{fill:#509BA3;}
	.st22{fill:#EE6D6D;}
	.st23{fill:#EED877;}
	.st24{fill:#557F0D;}
	.st25{fill:#BA7842;}
	.st26{fill:#8B401E;}
	.st27{fill:#BE7C3F;}
	.st28{fill:#22A85B;}
	.st29{fill-rule:evenodd;clip-rule:evenodd;fill:#827159;}
	.st30{fill:#F47C2C;}
	.st31{fill:#F4C82E;}
	.st32{fill:#F4E12B;}
	.st33{fill:#5A8AA3;}
	.st34{fill:#F5C82D;}
	.st35{fill:#F69656;}
	.st36{fill:#F7A1A1;}
	.st37{fill:#5D250E;}
	.st38{fill:#F98646;}
	.st39{fill:#C17E42;}
	.st40{fill:#93783D;}
	.st41{fill:#C4C3B7;}
	.st42{fill:#C68A4F;}
	.st43{fill:#2D734E;}
	.st44{opacity:0.6;}
	.st45{fill:#2FA379;}
	.st46{fill:#FFFFFF;}
	.st47{fill:#64A80D;}
	.st48{fill:none;}
	.st49{fill:#66321C;}
	.st50{fill-rule:evenodd;clip-rule:evenodd;fill:#5B4F3F;}
	.st51{fill:#9B7542;}
	.st52{fill:#CD9251;}
	.st53{fill:#9E7640;}
	.st54{fill:#9EDADA;}
	.st55{fill:#CE0202;}
	.st56{fill:#CE945F;}
	.st57{fill:#9F6029;}
	.st58{fill:#CEA16F;}
	.st59{fill:#CEA272;}
	.st60{fill:#333333;}
	.st61{fill:#337180;}
	.st62{fill:#36160D;}
	.st63{fill:#6EBD44;}
	.st64{fill:#6EC9AB;}
	.st65{fill:#00A31F;}
	.st66{fill:#D5C427;}
	.st67{fill:#D69D61;}
	.st68{fill:#D6A972;}
	.st69{fill:#D78628;}
	.st70{fill:#3F3E40;}
	.st71{fill:#A2A29B;}
	.st72{fill:#A3D5E0;}
	.st73{fill:#A47E46;}
	.st74{fill:#77B7B7;}
	.st75{fill:#DB6414;}
	.st76{fill:#DBA375;}
	.st77{fill:#DCB282;}
	.st78{fill:#DCEFED;}
	.st79{fill:#A9D5D0;}
	.st80{fill:#DDAA7C;}
	.st81{fill:#DE6A35;}
	.st82{fill:#DFC65F;}
	.st83{fill:#444343;}
	.st84{fill:#448A96;}
]]>
</style>
<g>
	<g>
		<circle class="st8" cx="68.416" cy="68.417" r="63.333"/>
	</g>
	<g>
		<path class="st64" d="M68.415,131.75c20.988,0,39.584-10.215,51.107-25.939c-2.141-3.068-10.563-12.033-38.91-18.854
			c0-6.436-0.641-10.291-0.641-10.291s8.363-11.582,9.004-27.664c0-2.557,1.256-20.695-20.582-21.516c0-0.008,0-0.021,0-0.027
			c-0.055,0-0.102,0.012-0.162,0.012c-0.055,0-0.102-0.012-0.158-0.012c0,0.006,0,0.02,0,0.027
			c-21.836,0.82-20.584,18.959-20.584,21.516c0.641,16.082,9.004,27.664,9.004,27.664s-0.646,3.855-0.646,10.291
			c-27.596,6.641-36.305,15.313-38.719,18.596C28.636,121.421,47.315,131.75,68.415,131.75z"/>
	</g>
	<g>
		<g>
			<circle class="st2" cx="93.88" cy="102.244" r="15.25"/>
		</g>
	</g>
	<g>
		<path class="st54" d="M102.438,99.57h-0.061c-0.137-0.42-0.309-0.826-0.508-1.217l0.043-0.045
			c0.738-0.738,0.691-2.086-0.254-3.029l-0.568-0.576c-0.951-0.945-2.24-1.049-3.033-0.252l-0.041,0.041
			c-0.391-0.199-0.807-0.367-1.223-0.506v-0.059c0-1.043-0.99-1.965-2.322-1.965h-0.813c-1.338,0-2.326,0.834-2.326,1.965v0.059
			c-0.418,0.139-0.828,0.307-1.217,0.506l-0.041-0.041c-0.629-0.623-2.084-0.693-3.033,0.252l-0.57,0.576
			c-0.945,0.943-0.936,2.35-0.258,3.029l0.047,0.045c-0.197,0.391-0.369,0.797-0.506,1.217h-0.063c-0.881,0-1.965,0.986-1.965,2.32
			v0.818c0,1.332,1.01,2.318,1.965,2.318h0.063c0.137,0.424,0.309,0.83,0.506,1.221l-0.047,0.041
			c-0.623,0.625-0.688,2.088,0.258,3.033l0.57,0.576c0.949,0.945,2.355,0.93,3.033,0.252l0.041-0.041
			c0.389,0.197,0.799,0.365,1.217,0.502v0.059c0,0.881,0.988,1.969,2.326,1.969h0.813c1.332,0,2.322-1.006,2.322-1.969v-0.055
			c0.416-0.141,0.832-0.309,1.223-0.506l0.041,0.041c0.738,0.738,2.082,0.691,3.033-0.252l0.568-0.576
			c0.945-0.945,1.053-2.234,0.254-3.033l-0.043-0.041c0.199-0.391,0.371-0.797,0.508-1.221h0.061c1.045,0,1.965-0.986,1.965-2.318
			v-0.818C104.403,100.556,103.565,99.57,102.438,99.57z M94.065,107.99c-3.139,0-5.689-2.545-5.689-5.689s2.551-5.693,5.689-5.693
			c3.141,0,5.689,2.549,5.689,5.693S97.206,107.99,94.065,107.99z"/>
	</g>
</g>
</svg>
