<?xml version="1.0" encoding="utf-8"?>
<!-- Generator: Adobe Illustrator 16.0.0, SVG Export Plug-In . SVG Version: 6.00 Build 0)  -->
<!DOCTYPE svg PUBLIC "-//W3C//DTD SVG 1.1//EN" "http://www.w3.org/Graphics/SVG/1.1/DTD/svg11.dtd">
<svg version="1.1" id="Layer_1" xmlns="http://www.w3.org/2000/svg" xmlns:xlink="http://www.w3.org/1999/xlink" x="0px" y="0px"
	 width="136.833px" height="136.834px" viewBox="0 0 136.833 136.834" style="enable-background:new 0 0 136.833 136.834;"
	 xml:space="preserve">
<style type="text/css">
<![CDATA[
	.st0{fill:#46898D;}
	.st1{fill:#48888C;}
	.st2{fill:#48A1AF;}
	.st3{fill-rule:evenodd;clip-rule:evenodd;fill:#3F3E3D;}
	.st4{fill:#7F807D;}
	.st5{fill:#E26917;}
	.st6{fill:#E2A976;}
	.st7{fill:#E57428;}
	.st8{fill:#4ABC96;}
	.st9{fill:#E5AA17;}
	.st10{fill:#E5BDA1;}
	.st11{fill-rule:evenodd;clip-rule:evenodd;fill:#DAECEF;}
	.st12{fill:#4C4B49;}
	.st13{fill:#4D4C4C;}
	.st14{fill:#B16227;}
	.st15{fill:#B2723A;}
	.st16{fill:#1A5B37;}
	.st17{fill:#EA4949;}
	.st18{fill:#EAC2A0;}
	.st19{fill:#EACE57;}
	.st20{fill:#EACF60;}
	.st21{fill:#509BA3;}
	.st22{fill:#EE6D6D;}
	.st23{fill:#EED877;}
	.st24{fill:#557F0D;}
	.st25{fill:#BA7842;}
	.st26{fill:#8B401E;}
	.st27{fill:#BE7C3F;}
	.st28{fill:#22A85B;}
	.st29{fill-rule:evenodd;clip-rule:evenodd;fill:#827159;}
	.st30{fill:#F47C2C;}
	.st31{fill:#F4C82E;}
	.st32{fill:#F4E12B;}
	.st33{fill:#5A8AA3;}
	.st34{fill:#F5C82D;}
	.st35{fill:#F69656;}
	.st36{fill:#F7A1A1;}
	.st37{fill:#5D250E;}
	.st38{fill:#F98646;}
	.st39{fill:#C17E42;}
	.st40{fill:#93783D;}
	.st41{fill:#C4C3B7;}
	.st42{fill:#C68A4F;}
	.st43{fill:#2D734E;}
	.st44{opacity:0.6;}
	.st45{fill:#2FA379;}
	.st46{fill:#FFFFFF;}
	.st47{fill:#64A80D;}
	.st48{fill:none;}
	.st49{fill:#66321C;}
	.st50{fill-rule:evenodd;clip-rule:evenodd;fill:#5B4F3F;}
	.st51{fill:#9B7542;}
	.st52{fill:#CD9251;}
	.st53{fill:#9E7640;}
	.st54{fill:#9EDADA;}
	.st55{fill:#CE0202;}
	.st56{fill:#CE945F;}
	.st57{fill:#9F6029;}
	.st58{fill:#CEA16F;}
	.st59{fill:#CEA272;}
	.st60{fill:#333333;}
	.st61{fill:#337180;}
	.st62{fill:#36160D;}
	.st63{fill:#6EBD44;}
	.st64{fill:#6EC9AB;}
	.st65{fill:#00A31F;}
	.st66{fill:#D5C427;}
	.st67{fill:#D69D61;}
	.st68{fill:#D6A972;}
	.st69{fill:#D78628;}
	.st70{fill:#3F3E40;}
	.st71{fill:#A2A29B;}
	.st72{fill:#A3D5E0;}
	.st73{fill:#A47E46;}
	.st74{fill:#77B7B7;}
	.st75{fill:#DB6414;}
	.st76{fill:#DBA375;}
	.st77{fill:#DCB282;}
	.st78{fill:#DCEFED;}
	.st79{fill:#A9D5D0;}
	.st80{fill:#DDAA7C;}
	.st81{fill:#DE6A35;}
	.st82{fill:#DFC65F;}
	.st83{fill:#444343;}
	.st84{fill:#448A96;}
]]>
</style>
<g>
	<g>
		<circle class="st8" cx="68.417" cy="68.417" r="63.333"/>
	</g>
	<g>
		<g>
			<g>
				<path class="st42" d="M80.196,88.399c-0.317,3.902-4.025,6.612-8.278,6.052l0,0c-4.256-0.561-7.447-4.179-7.129-8.082
					l1.334-16.345c0.316-3.903,4.023-6.612,8.279-6.053l0,0c4.256,0.559,7.445,4.178,7.128,8.08L80.196,88.399z"/>
				<path class="st52" d="M85.631,63.548c0.579,6.579-4.705,11.981-11.8,12.07l0,0c-7.098,0.087-13.316-5.175-13.896-11.754
					l-2.418-27.554c-0.578-6.578,4.705-11.982,11.802-12.07l0,0c7.095-0.087,13.315,5.174,13.894,11.753L85.631,63.548z"/>
			</g>
			<path class="st26" d="M56.066,37.082c0,0-0.746,10.238,2.842,7.697c1.584-1.123,2.953-6.912,5.528-7.763
				c2.976-0.984,10.718,8.596,13.976,7.85c6.86-1.572,9.652-8.355,10.07-9.801l-5.254-0.742c0,0,5.403-1.469,5.699-4.075
				C88.927,30.248,58.492,13.372,56.066,37.082z"/>
			<g>
				<path class="st43" d="M84.328,30.073c0.213,3.915-6.47,7.462-14.926,7.921c-8.456,0.461-15.483-2.341-15.697-6.257
					c-0.212-3.915,4.322-13.229,12.779-13.688C74.939,17.588,84.115,26.157,84.328,30.073z"/>
				
					<ellipse transform="matrix(0.9985 -0.0543 0.0543 0.9985 -1.6673 4.3108)" class="st43" cx="78.494" cy="32.837" rx="24.692" ry="4.655"/>
			</g>
			<path class="st16" d="M69.486,18.28c0.034,0.633-1.045,1.205-2.412,1.28c-1.368,0.074-2.504-0.379-2.539-1.011
				c-0.035-0.635,0.699-2.141,2.066-2.215S69.453,17.646,69.486,18.28z"/>
		</g>
		<g>
			<path class="st52" d="M113.995,112.367l-9.345-33.345l-15.082,1.699l0.006,0.013l1.879-0.153l5.656,15.288l0.069,1.027
				l10.114,21.5C109.668,116.544,111.907,114.531,113.995,112.367z"/>
			<path class="st52" d="M28.253,117.384l22.26-14.356l-0.535-14.805l0.931-0.279l-5.644,0.987l-22.778,23.066
				C24.299,113.907,26.217,115.712,28.253,117.384z"/>
			<path class="st45" d="M97.178,96.896l-0.069-1.027l-5.656-15.288l-1.879,0.153l-8.488,0.695L61.29,84.828l-10.381,3.116
				l-0.931,0.279l0.535,14.805l0.127,3.518l-0.253,22.586c5.716,1.696,11.763,2.619,18.028,2.619
				c11.087,0,21.503-2.856,30.566-7.861L97.178,96.896z"/>
		</g>
	</g>
</g>
</svg>
