<?xml version="1.0" encoding="utf-8"?>
<!-- Generator: Adobe Illustrator 16.0.0, SVG Export Plug-In . SVG Version: 6.00 Build 0)  -->
<!DOCTYPE svg PUBLIC "-//W3C//DTD SVG 1.1//EN" "http://www.w3.org/Graphics/SVG/1.1/DTD/svg11.dtd">
<svg version="1.1" id="Layer_1" xmlns="http://www.w3.org/2000/svg" xmlns:xlink="http://www.w3.org/1999/xlink" x="0px" y="0px"
	 width="136.833px" height="136.834px" viewBox="0 0 136.833 136.834" style="enable-background:new 0 0 136.833 136.834;"
	 xml:space="preserve">
<style type="text/css">
<![CDATA[
	.st0{fill:#46898D;}
	.st1{fill:#48888C;}
	.st2{fill:#48A1AF;}
	.st3{fill-rule:evenodd;clip-rule:evenodd;fill:#3F3E3D;}
	.st4{fill:#7F807D;}
	.st5{fill:#E26917;}
	.st6{fill:#E2A976;}
	.st7{fill:#E57428;}
	.st8{fill:#4ABC96;}
	.st9{fill:#E5AA17;}
	.st10{fill:#E5BDA1;}
	.st11{fill-rule:evenodd;clip-rule:evenodd;fill:#DAECEF;}
	.st12{fill:#4C4B49;}
	.st13{fill:#4D4C4C;}
	.st14{fill:#B16227;}
	.st15{fill:#B2723A;}
	.st16{fill:#1A5B37;}
	.st17{fill:#EA4949;}
	.st18{fill:#EAC2A0;}
	.st19{fill:#EACE57;}
	.st20{fill:#EACF60;}
	.st21{fill:#509BA3;}
	.st22{fill:#EE6D6D;}
	.st23{fill:#EED877;}
	.st24{fill:#557F0D;}
	.st25{fill:#BA7842;}
	.st26{fill:#8B401E;}
	.st27{fill:#BE7C3F;}
	.st28{fill:#22A85B;}
	.st29{fill-rule:evenodd;clip-rule:evenodd;fill:#827159;}
	.st30{fill:#F47C2C;}
	.st31{fill:#F4C82E;}
	.st32{fill:#F4E12B;}
	.st33{fill:#5A8AA3;}
	.st34{fill:#F5C82D;}
	.st35{fill:#F69656;}
	.st36{fill:#F7A1A1;}
	.st37{fill:#5D250E;}
	.st38{fill:#F98646;}
	.st39{fill:#C17E42;}
	.st40{fill:#93783D;}
	.st41{fill:#C4C3B7;}
	.st42{fill:#C68A4F;}
	.st43{fill:#2D734E;}
	.st44{opacity:0.6;}
	.st45{fill:#2FA379;}
	.st46{fill:#FFFFFF;}
	.st47{fill:#64A80D;}
	.st48{fill:none;}
	.st49{fill:#66321C;}
	.st50{fill-rule:evenodd;clip-rule:evenodd;fill:#5B4F3F;}
	.st51{fill:#9B7542;}
	.st52{fill:#CD9251;}
	.st53{fill:#9E7640;}
	.st54{fill:#9EDADA;}
	.st55{fill:#CE0202;}
	.st56{fill:#CE945F;}
	.st57{fill:#9F6029;}
	.st58{fill:#CEA16F;}
	.st59{fill:#CEA272;}
	.st60{fill:#333333;}
	.st61{fill:#337180;}
	.st62{fill:#36160D;}
	.st63{fill:#6EBD44;}
	.st64{fill:#6EC9AB;}
	.st65{fill:#00A31F;}
	.st66{fill:#D5C427;}
	.st67{fill:#D69D61;}
	.st68{fill:#D6A972;}
	.st69{fill:#D78628;}
	.st70{fill:#3F3E40;}
	.st71{fill:#A2A29B;}
	.st72{fill:#A3D5E0;}
	.st73{fill:#A47E46;}
	.st74{fill:#77B7B7;}
	.st75{fill:#DB6414;}
	.st76{fill:#DBA375;}
	.st77{fill:#DCB282;}
	.st78{fill:#DCEFED;}
	.st79{fill:#A9D5D0;}
	.st80{fill:#DDAA7C;}
	.st81{fill:#DE6A35;}
	.st82{fill:#DFC65F;}
	.st83{fill:#444343;}
	.st84{fill:#448A96;}
]]>
</style>
<g>
	<g>
		<circle class="st9" cx="68.417" cy="68.417" r="63.333"/>
	</g>
	<g>
		<g>
			<g>
				<path class="st51" d="M76.883,87.718c-0.087,3.915-3.628,6.839-7.907,6.531l0,0c-4.281-0.309-7.681-3.732-7.593-7.648
					l0.366-16.395c0.086-3.914,3.626-6.838,7.906-6.53l0,0c4.281,0.306,7.68,3.729,7.594,7.645L76.883,87.718z"/>
				<path class="st73" d="M80.841,62.59c0.967,6.533-3.988,12.239-11.066,12.745l0,0c-7.08,0.507-13.6-4.378-14.565-10.912
					L51.167,37.06c-0.967-6.531,3.989-12.238,11.068-12.745l0,0c7.077-0.506,13.598,4.378,14.563,10.911L80.841,62.59z"/>
			</g>
		</g>
		<path class="st53" d="M85.585,66.048c0,0-3.587-11.43,3.413-21.43l1.064,17.514L85.585,66.048z"/>
		<g>
			<g>
				<ellipse class="st13" cx="67.907" cy="52.805" rx="8.247" ry="8.542"/>
				<ellipse class="st13" cx="84.899" cy="49.306" rx="8.247" ry="8.541"/>
				<polygon class="st13" points="66.071,44.88 69.591,41.183 78.773,39.287 83.796,40.994 87.21,57.382 78.402,54.009 
					68.843,61.131 				"/>
				<g>
					<ellipse class="st70" cx="87.24" cy="50.305" rx="7.658" ry="7.933"/>
					<ellipse class="st13" cx="89.301" cy="50.619" rx="5.59" ry="5.789"/>
					<ellipse class="st70" cx="90.551" cy="50.869" rx="4.686" ry="4.853"/>
					<ellipse class="st78" cx="91.086" cy="50.869" rx="3.088" ry="3.364"/>
					<path class="st79" d="M91.085,54.233c-1.705,0-3.088-1.507-3.088-3.364c0-1.858,1.383-3.365,3.088-3.365
						C92.792,47.503,92.792,54.233,91.085,54.233z"/>
				</g>
				<g>
					<ellipse class="st70" cx="71.906" cy="53.305" rx="7.658" ry="7.933"/>
					<ellipse class="st13" cx="73.967" cy="53.619" rx="5.591" ry="5.789"/>
					<ellipse class="st70" cx="75.218" cy="53.869" rx="4.686" ry="4.853"/>
					<ellipse class="st78" cx="75.752" cy="53.869" rx="3.089" ry="3.364"/>
					<path class="st79" d="M75.752,57.233c-1.706,0-3.089-1.507-3.089-3.364c0-1.858,1.383-3.365,3.089-3.365
						S77.458,57.233,75.752,57.233z"/>
				</g>
			</g>
		</g>
		<path class="st62" d="M49.763,37.916c0,0-0.139,10.265,3.293,7.517c1.515-1.215,2.539-7.074,5.06-8.076
			c2.913-1.158,11.207,7.948,14.415,7.011c6.756-1.975,9.143-8.911,9.474-10.379l-5.288-0.43c0,0,5.307-1.785,5.449-4.405
			C82.166,29.153,50.785,14.105,49.763,37.916z"/>
		<g>
			<path class="st53" d="M66.327,72.798c0,0,3.587-11.43-3.413-21.43l-1.064,17.514L66.327,72.798z"/>
			<g>
				<path class="st73" d="M47.904,87.625l-2.581,0.441l-6.159,1.053l-3.912,33.254c0.089,0.056,0.175,0.115,0.265,0.17
					l10.436-17.033l0.546-0.891l1.613-3.755L47.904,87.625z"/>
				<path class="st73" d="M96.903,97.421l-4.191,1.773l0.041,0.615l10.436,21.533c0.635-0.418,1.26-0.852,1.879-1.292L96.903,97.421
					z"/>
				<polygon class="st73" points="92.752,99.81 92.711,99.195 92.498,99.285 				"/>
			</g>
		</g>
		<g>
			<path class="st63" d="M92.665,99.628l8.831-2.121l-5.487-17.133l-9.75-1l-9.859,1.064l-13.676,2.346L46.469,127.84
				c6.839,2.526,14.23,3.91,21.946,3.91c9.307,0,18.136-2.024,26.095-5.63L92.752,99.81L92.665,99.628z"/>
			<polygon class="st63" points="49.33,101.619 49.347,97.986 55.251,84.242 48.761,86.191 39.654,87.125 34.167,104.257 
				48.164,107.619 			"/>
		</g>
	</g>
	<path class="st53" d="M61.849,68.882l-6.598,15.359l-7.141,16.622l-1.613,3.755l-0.546,0.891l-10.436,17.033
		c2.873,1.75,5.901,3.266,9.051,4.547c0.378,0.154,0.759,0.303,1.141,0.45c0.255,0.099,0.506,0.206,0.762,0.301l16.254-45.056
		l3.604-9.986L61.849,68.882z"/>
	<path class="st53" d="M105.416,97.869L90.063,62.132l-4.478,3.916l11.317,31.373l8.164,22.63c3.156-2.244,6.097-4.767,8.787-7.537
		c0.109-0.112,0.216-0.228,0.324-0.341L105.416,97.869z"/>
</g>
</svg>
