<?xml version="1.0" encoding="utf-8"?>
<!-- Generator: Adobe Illustrator 16.0.0, SVG Export Plug-In . SVG Version: 6.00 Build 0)  -->
<!DOCTYPE svg PUBLIC "-//W3C//DTD SVG 1.1//EN" "http://www.w3.org/Graphics/SVG/1.1/DTD/svg11.dtd">
<svg version="1.1" id="Layer_1" xmlns="http://www.w3.org/2000/svg" xmlns:xlink="http://www.w3.org/1999/xlink" x="0px" y="0px"
	 width="136.833px" height="136.834px" viewBox="0 0 136.833 136.834" style="enable-background:new 0 0 136.833 136.834;"
	 xml:space="preserve">
<style type="text/css">
<![CDATA[
	.st0{fill:#46898D;}
	.st1{fill:#48888C;}
	.st2{fill:#48A1AF;}
	.st3{fill-rule:evenodd;clip-rule:evenodd;fill:#3F3E3D;}
	.st4{fill:#7F807D;}
	.st5{fill:#E26917;}
	.st6{fill:#E2A976;}
	.st7{fill:#E57428;}
	.st8{fill:#4ABC96;}
	.st9{fill:#E5AA17;}
	.st10{fill:#E5BDA1;}
	.st11{fill-rule:evenodd;clip-rule:evenodd;fill:#DAECEF;}
	.st12{fill:#4C4B49;}
	.st13{fill:#4D4C4C;}
	.st14{fill:#B16227;}
	.st15{fill:#B2723A;}
	.st16{fill:#1A5B37;}
	.st17{fill:#EA4949;}
	.st18{fill:#EAC2A0;}
	.st19{fill:#EACE57;}
	.st20{fill:#EACF60;}
	.st21{fill:#509BA3;}
	.st22{fill:#EE6D6D;}
	.st23{fill:#EED877;}
	.st24{fill:#557F0D;}
	.st25{fill:#BA7842;}
	.st26{fill:#8B401E;}
	.st27{fill:#BE7C3F;}
	.st28{fill:#22A85B;}
	.st29{fill-rule:evenodd;clip-rule:evenodd;fill:#827159;}
	.st30{fill:#F47C2C;}
	.st31{fill:#F4C82E;}
	.st32{fill:#F4E12B;}
	.st33{fill:#5A8AA3;}
	.st34{fill:#F5C82D;}
	.st35{fill:#F69656;}
	.st36{fill:#F7A1A1;}
	.st37{fill:#5D250E;}
	.st38{fill:#F98646;}
	.st39{fill:#C17E42;}
	.st40{fill:#93783D;}
	.st41{fill:#C4C3B7;}
	.st42{fill:#C68A4F;}
	.st43{fill:#2D734E;}
	.st44{opacity:0.6;}
	.st45{fill:#2FA379;}
	.st46{fill:#FFFFFF;}
	.st47{fill:#64A80D;}
	.st48{fill:none;}
	.st49{fill:#66321C;}
	.st50{fill-rule:evenodd;clip-rule:evenodd;fill:#5B4F3F;}
	.st51{fill:#9B7542;}
	.st52{fill:#CD9251;}
	.st53{fill:#9E7640;}
	.st54{fill:#9EDADA;}
	.st55{fill:#CE0202;}
	.st56{fill:#CE945F;}
	.st57{fill:#9F6029;}
	.st58{fill:#CEA16F;}
	.st59{fill:#CEA272;}
	.st60{fill:#333333;}
	.st61{fill:#337180;}
	.st62{fill:#36160D;}
	.st63{fill:#6EBD44;}
	.st64{fill:#6EC9AB;}
	.st65{fill:#00A31F;}
	.st66{fill:#D5C427;}
	.st67{fill:#D69D61;}
	.st68{fill:#D6A972;}
	.st69{fill:#D78628;}
	.st70{fill:#3F3E40;}
	.st71{fill:#A2A29B;}
	.st72{fill:#A3D5E0;}
	.st73{fill:#A47E46;}
	.st74{fill:#77B7B7;}
	.st75{fill:#DB6414;}
	.st76{fill:#DBA375;}
	.st77{fill:#DCB282;}
	.st78{fill:#DCEFED;}
	.st79{fill:#A9D5D0;}
	.st80{fill:#DDAA7C;}
	.st81{fill:#DE6A35;}
	.st82{fill:#DFC65F;}
	.st83{fill:#444343;}
	.st84{fill:#448A96;}
]]>
</style>
<g>
	<g>
		<circle class="st34" cx="68.416" cy="68.417" r="63.333"/>
	</g>
	<g>
		<g>
			<g>
				<g>
					<path class="st39" d="M83.536,81.496l0.004,0.008l4.893-0.217l7.471,11.687l1.328,11.308l-2.074,4.529l5.906,13.882
						c2.18-1.313,4.266-2.765,6.264-4.323l-9.969-37.516L83.536,81.496z"/>
					<path class="st39" d="M46.099,104.615l4.18-18.021l1.371-0.383l-9.686,1.691l-11.35,31.332
						c2.484,1.851,5.111,3.521,7.857,4.997l7.668-19.538L46.099,104.615z"/>
					<path class="st0" d="M95.903,92.973l-7.471-11.687l-4.893,0.217l-5.5,0.243l-19.91,2.654l-6.48,1.81l-1.371,0.383l-4.18,18.021
						l0.041,0.078l3.736,7.012l3.359,7.188l1.145,11.276c4.518,1.023,9.209,1.581,14.035,1.581c7.23,0,14.168-1.228,20.641-3.459
						l1.908-10.32l4.193-9.161l2.074-4.529L95.903,92.973z"/>
				</g>
				<g>
					<g>
						<path class="st83" d="M72.694,29.848c0,0-3.15,39.283,20.045,47.159c0,0-1.361-2.136-3.389-11.471
							c0,0,1.977,5.093,7.146,4.685c0,0-7.275-10.494-7.656-18.337c0,0-0.131,3.779,7.326,5.146c0,0-7.631-11.42-8.377-20.188
							C87.79,36.842,81.671,26.895,72.694,29.848z"/>
						<path class="st25" d="M70.329,61.332c4.291-0.08,7.984,3.022,8.252,6.931l1.113,16.363c0.266,3.905-15.271,4.191-15.537,0.283
							l-1.113-16.36C62.776,64.642,66.038,61.41,70.329,61.332z"/>
						<path class="st60" d="M69.886,54.584c0,0-7.309,36.87-23.074,40.654c0,0,1.553-2,4.436-11.107c0,0-2.439,4.889-7.549,4.003
							c0,0,8.211-9.776,9.318-17.55c0,0-0.221,3.775-7.771,4.445c0,0,8.654-10.664,10.205-19.325
							C55.45,55.705,61.222,50.814,69.886,54.584z"/>
						<path class="st60" d="M70.888,60.133c0,0,4.527,37.313,19.965,42.268c0,0-1.398-2.11-3.59-11.407c0,0,2.066,5.056,7.227,4.557
							c0,0-7.457-10.365-7.979-18.2c0,0-0.063,3.782,7.416,5.016c0,0-7.83-11.282-8.729-20.036
							C85.198,62.33,79.81,57.022,70.888,60.133z"/>
						<path class="st39" d="M84.862,64.301c0.324,6.596-5.164,11.791-12.258,11.605l0,0c-7.094-0.188-13.107-5.685-13.432-12.281
							l-1.354-27.627c-0.322-6.595,5.166-11.791,12.26-11.605l0,0c7.092,0.188,13.105,5.685,13.43,12.28L84.862,64.301z"/>
					</g>
				</g>
			</g>
			<path class="st12" d="M75.021,24.423c0,0-7.309,36.869-23.076,40.654c0,0,1.555-2,4.438-11.107c0,0-2.441,4.887-7.549,4.003
				c0,0,8.211-9.777,9.318-17.551c0,0-0.221,3.775-7.771,4.446c0,0,8.654-10.664,10.205-19.327
				C60.585,25.542,66.356,20.652,75.021,24.423z"/>
			<path class="st12" d="M72.626,29.479c0,0,6.957,10.92,13.91,13.15c0,0-3.477-0.494-2.738-9.431c0,0-0.002-7.449-7.449-9.927
				C76.349,23.272,71.382,23.274,72.626,29.479z"/>
		</g>
	</g>
</g>
</svg>
