<?xml version="1.0" encoding="utf-8"?>
<!-- Generator: Adobe Illustrator 16.0.0, SVG Export Plug-In . SVG Version: 6.00 Build 0)  -->
<!DOCTYPE svg PUBLIC "-//W3C//DTD SVG 1.1//EN" "http://www.w3.org/Graphics/SVG/1.1/DTD/svg11.dtd">
<svg version="1.1" id="Layer_1" xmlns="http://www.w3.org/2000/svg" xmlns:xlink="http://www.w3.org/1999/xlink" x="0px" y="0px"
	 width="136.833px" height="136.833px" viewBox="0 0 136.833 136.833" style="enable-background:new 0 0 136.833 136.833;"
	 xml:space="preserve">
<style type="text/css">
<![CDATA[
	.st0{fill:#46898D;}
	.st1{fill:#48888C;}
	.st2{fill:#48A1AF;}
	.st3{fill-rule:evenodd;clip-rule:evenodd;fill:#3F3E3D;}
	.st4{fill:#7F807D;}
	.st5{fill:#E26917;}
	.st6{fill:#E2A976;}
	.st7{fill:#E57428;}
	.st8{fill:#4ABC96;}
	.st9{fill:#E5AA17;}
	.st10{fill:#E5BDA1;}
	.st11{fill-rule:evenodd;clip-rule:evenodd;fill:#DAECEF;}
	.st12{fill:#4C4B49;}
	.st13{fill:#4D4C4C;}
	.st14{fill:#B16227;}
	.st15{fill:#B2723A;}
	.st16{fill:#1A5B37;}
	.st17{fill:#EA4949;}
	.st18{fill:#EAC2A0;}
	.st19{fill:#EACE57;}
	.st20{fill:#EACF60;}
	.st21{fill:#509BA3;}
	.st22{fill:#EE6D6D;}
	.st23{fill:#EED877;}
	.st24{fill:#557F0D;}
	.st25{fill:#BA7842;}
	.st26{fill:#8B401E;}
	.st27{fill:#BE7C3F;}
	.st28{fill:#22A85B;}
	.st29{fill-rule:evenodd;clip-rule:evenodd;fill:#827159;}
	.st30{fill:#F47C2C;}
	.st31{fill:#F4C82E;}
	.st32{fill:#F4E12B;}
	.st33{fill:#5A8AA3;}
	.st34{fill:#F5C82D;}
	.st35{fill:#F69656;}
	.st36{fill:#F7A1A1;}
	.st37{fill:#5D250E;}
	.st38{fill:#F98646;}
	.st39{fill:#C17E42;}
	.st40{fill:#93783D;}
	.st41{fill:#C4C3B7;}
	.st42{fill:#C68A4F;}
	.st43{fill:#2D734E;}
	.st44{opacity:0.6;}
	.st45{fill:#2FA379;}
	.st46{fill:#FFFFFF;}
	.st47{fill:#64A80D;}
	.st48{fill:none;}
	.st49{fill:#66321C;}
	.st50{fill-rule:evenodd;clip-rule:evenodd;fill:#5B4F3F;}
	.st51{fill:#9B7542;}
	.st52{fill:#CD9251;}
	.st53{fill:#9E7640;}
	.st54{fill:#9EDADA;}
	.st55{fill:#CE0202;}
	.st56{fill:#CE945F;}
	.st57{fill:#9F6029;}
	.st58{fill:#CEA16F;}
	.st59{fill:#CEA272;}
	.st60{fill:#333333;}
	.st61{fill:#337180;}
	.st62{fill:#36160D;}
	.st63{fill:#6EBD44;}
	.st64{fill:#6EC9AB;}
	.st65{fill:#00A31F;}
	.st66{fill:#D5C427;}
	.st67{fill:#D69D61;}
	.st68{fill:#D6A972;}
	.st69{fill:#D78628;}
	.st70{fill:#3F3E40;}
	.st71{fill:#A2A29B;}
	.st72{fill:#A3D5E0;}
	.st73{fill:#A47E46;}
	.st74{fill:#77B7B7;}
	.st75{fill:#DB6414;}
	.st76{fill:#DBA375;}
	.st77{fill:#DCB282;}
	.st78{fill:#DCEFED;}
	.st79{fill:#A9D5D0;}
	.st80{fill:#DDAA7C;}
	.st81{fill:#DE6A35;}
	.st82{fill:#DFC65F;}
	.st83{fill:#444343;}
	.st84{fill:#448A96;}
]]>
</style>
<g>
	<g>
		<circle class="st8" cx="68.416" cy="68.417" r="63.333"/>
	</g>
	<path class="st11" d="M67.993,36.362c4.703,0,9.494-4.447,9.494-9.152c0-4.699-4.563-9.487-9.268-9.487
		c-4.701,0-9.377,4.903-9.377,9.603C58.843,32.03,63.288,36.362,67.993,36.362z M86.519,49.485c0-4.615,0.305-4.172,0-7.057
		c-1.178-3.527-3.529-4.701-5.881-4.701c-5.025,0-6.695,0-10.58,0c-4.721,0-7.014-0.014-11.719-0.014
		c-2.352,0-3.883-0.16-5.629,1.43c-2.375,2.691-2.139,2.932-2.139,10.457c0,3.715,0,10.207,0,14.357
		c0,3.713-0.629,9.492,3.094,9.492c3.527,0,3.496-2.516,3.496-6.271c0-5.297-0.014-6.672-0.014-9.803
		c0-3.426-0.197-4.006,0.492-4.006c0.695,0,0.689,0.045,0.689,3.684c0,3.367-0.025,50.83-0.025,53.572
		c0,2.352,1.252,4.867,4.793,4.867c3.531,0,5.006-2.063,5.006-4.418c0-4.236,0-22.684,0-24.689c0-2.354,0.08-3.49,0.66-3.49
		c0.594,0,0.514,1.137,0.514,3.49c0,2.121,0,20.346,0,24.689c0,1.461,1.553,4.643,5.082,4.643c2.35,0,4.514-3.025,4.514-4.594
		c0-9.4,0.053-51.252,0.053-54.213c0-1.602-0.137-3.643,0.463-3.643s0.59,0.555,0.59,2.863c0,2.654,0,5.342,0,9.057
		c0,6.186,0.961,7.813,3.313,7.813c3.527,0,3.229-6.041,3.229-9.406C86.519,59.006,86.519,54.149,86.519,49.485z"/>
	<g>
		<g>
			<rect x="66.642" y="80.795" class="st3" width="33.664" height="8.803"/>
			<g>
				<path class="st29" d="M66.647,81.284c0,0,9.584,3.768,16.758,3.768c7.838,0,16.896-3.803,16.896-3.803v-4.635
					c0-2.352-2.316-2.246-2.316-2.246H68.847c-2.281,0-2.199,2.246-2.199,2.246V81.284z M85.698,83.952l-4.529-0.035
					c0,0,0.035-0.502,0.035-1.123s0.504-1.125,1.123-1.125h2.248c0.621,0,1.123,0.504,1.123,1.125S85.698,83.952,85.698,83.952z
					 M100.302,93.418V82.547c0,0-7.291,3.639-16.945,3.639c-8.881,0-16.709-3.744-16.709-3.744v10.977
					c0,2.281,2.164,2.248,2.164,2.248h29.209C100.44,95.667,100.302,93.418,100.302,93.418z M85.661,88.446
					c0,0.619-0.502,1.086-1.121,1.086h-2.248c-0.619,0-1.123-0.467-1.123-1.086c0-0.623,0-1.16,0-1.16l4.529-0.035
					C85.698,87.25,85.661,87.823,85.661,88.446z"/>
			</g>
			<g>
				<path class="st50" d="M66.647,81.284c0,0,9.584,3.768,16.758,3.768c7.838,0,16.896-3.803,16.896-3.803v-4.635
					c0-2.352-2.316-2.246-2.316-2.246H68.847c-2.281,0-2.199,2.246-2.199,2.246V81.284z M85.698,83.952l-4.529-0.035
					c0,0,0.035-0.502,0.035-1.123s0.504-1.125,1.123-1.125h2.248c0.621,0,1.123,0.504,1.123,1.125S85.698,83.952,85.698,83.952z"/>
			</g>
		</g>
		<path class="st3" d="M89.032,74.368v-2.281c0-2.318-2.176-2.211-2.176-2.211h-6.811c-2.141,0-2.213,2.248-2.213,2.248v2.244
			H89.032z M80.046,73.172c0-1.016,1.123-1.086,1.123-1.086h4.529c1.193,0,1.123,1.227,1.123,1.227l-0.035,1.055h-6.74V73.172z"/>
	</g>
</g>
</svg>
