<?xml version="1.0" encoding="utf-8"?>
<!-- Generator: Adobe Illustrator 16.0.0, SVG Export Plug-In . SVG Version: 6.00 Build 0)  -->
<!DOCTYPE svg PUBLIC "-//W3C//DTD SVG 1.1//EN" "http://www.w3.org/Graphics/SVG/1.1/DTD/svg11.dtd">
<svg version="1.1" id="Layer_1" xmlns="http://www.w3.org/2000/svg" xmlns:xlink="http://www.w3.org/1999/xlink" x="0px" y="0px"
	 width="136.833px" height="136.834px" viewBox="0 0 136.833 136.834" style="enable-background:new 0 0 136.833 136.834;"
	 xml:space="preserve">
<style type="text/css">
<![CDATA[
	.st0{fill:#46898D;}
	.st1{fill:#48888C;}
	.st2{fill:#48A1AF;}
	.st3{fill-rule:evenodd;clip-rule:evenodd;fill:#3F3E3D;}
	.st4{fill:#7F807D;}
	.st5{fill:#E26917;}
	.st6{fill:#E2A976;}
	.st7{fill:#E57428;}
	.st8{fill:#4ABC96;}
	.st9{fill:#E5AA17;}
	.st10{fill:#E5BDA1;}
	.st11{fill-rule:evenodd;clip-rule:evenodd;fill:#DAECEF;}
	.st12{fill:#4C4B49;}
	.st13{fill:#4D4C4C;}
	.st14{fill:#B16227;}
	.st15{fill:#B2723A;}
	.st16{fill:#1A5B37;}
	.st17{fill:#EA4949;}
	.st18{fill:#EAC2A0;}
	.st19{fill:#EACE57;}
	.st20{fill:#EACF60;}
	.st21{fill:#509BA3;}
	.st22{fill:#EE6D6D;}
	.st23{fill:#EED877;}
	.st24{fill:#557F0D;}
	.st25{fill:#BA7842;}
	.st26{fill:#8B401E;}
	.st27{fill:#BE7C3F;}
	.st28{fill:#22A85B;}
	.st29{fill-rule:evenodd;clip-rule:evenodd;fill:#827159;}
	.st30{fill:#F47C2C;}
	.st31{fill:#F4C82E;}
	.st32{fill:#F4E12B;}
	.st33{fill:#5A8AA3;}
	.st34{fill:#F5C82D;}
	.st35{fill:#F69656;}
	.st36{fill:#F7A1A1;}
	.st37{fill:#5D250E;}
	.st38{fill:#F98646;}
	.st39{fill:#C17E42;}
	.st40{fill:#93783D;}
	.st41{fill:#C4C3B7;}
	.st42{fill:#C68A4F;}
	.st43{fill:#2D734E;}
	.st44{opacity:0.6;}
	.st45{fill:#2FA379;}
	.st46{fill:#FFFFFF;}
	.st47{fill:#64A80D;}
	.st48{fill:none;}
	.st49{fill:#66321C;}
	.st50{fill-rule:evenodd;clip-rule:evenodd;fill:#5B4F3F;}
	.st51{fill:#9B7542;}
	.st52{fill:#CD9251;}
	.st53{fill:#9E7640;}
	.st54{fill:#9EDADA;}
	.st55{fill:#CE0202;}
	.st56{fill:#CE945F;}
	.st57{fill:#9F6029;}
	.st58{fill:#CEA16F;}
	.st59{fill:#CEA272;}
	.st60{fill:#333333;}
	.st61{fill:#337180;}
	.st62{fill:#36160D;}
	.st63{fill:#6EBD44;}
	.st64{fill:#6EC9AB;}
	.st65{fill:#00A31F;}
	.st66{fill:#D5C427;}
	.st67{fill:#D69D61;}
	.st68{fill:#D6A972;}
	.st69{fill:#D78628;}
	.st70{fill:#3F3E40;}
	.st71{fill:#A2A29B;}
	.st72{fill:#A3D5E0;}
	.st73{fill:#A47E46;}
	.st74{fill:#77B7B7;}
	.st75{fill:#DB6414;}
	.st76{fill:#DBA375;}
	.st77{fill:#DCB282;}
	.st78{fill:#DCEFED;}
	.st79{fill:#A9D5D0;}
	.st80{fill:#DDAA7C;}
	.st81{fill:#DE6A35;}
	.st82{fill:#DFC65F;}
	.st83{fill:#444343;}
	.st84{fill:#448A96;}
]]>
</style>
<g>
	<g>
		<circle class="st34" cx="68.417" cy="68.417" r="63.333"/>
	</g>
	<g>
		<g>
			<g>
				<path class="st58" d="M78.536,88.793c-0.317,3.902-4.025,6.612-8.278,6.052l0,0c-4.256-0.561-7.447-4.179-7.129-8.082
					l1.334-16.345c0.316-3.903,4.023-6.613,8.279-6.053l0,0c4.256,0.559,7.445,4.178,7.128,8.08L78.536,88.793z"/>
				<path class="st68" d="M83.972,63.943c0.579,6.579-4.705,11.981-11.8,12.069l0,0c-7.098,0.088-13.316-5.174-13.896-11.753
					l-2.418-27.554c-0.578-6.578,4.705-11.982,11.802-12.07l0,0c7.095-0.087,13.315,5.174,13.894,11.752L83.972,63.943z"/>
			</g>
		</g>
		<g>
			<path class="st68" d="M108.762,100.013l-9.885,4.417l7.059,15.003c2.357-1.736,4.586-3.636,6.679-5.676L108.762,100.013z"/>
			<polygon class="st68" points="95.518,97.291 96.242,98.829 95.449,96.262 			"/>
			<path class="st68" d="M27.799,117.001l15.213-9.812l-10.171-6.963l-10.978,11.116C23.718,113.355,25.7,115.246,27.799,117.001z"
				/>
			<path class="st81" d="M103.831,77.287l-24.405,4.537L59.63,85.221l-17.049,2.815l-10.75,11.5l1.01,0.69l10.171,6.963l1.604,1.098
				l4.364-3.251l-0.255,23.576c6.199,2.027,12.813,3.138,19.689,3.138c10.431,0,20.263-2.537,28.938-7.004l-1.836-27.456
				l2.563,7.496l0.796-0.356l9.885-4.417l1.069-0.477L103.831,77.287z"/>
		</g>
		<path class="st49" d="M82.86,36.758l-5.102,3.403L67.76,50.463l-3.159,7.09l-3.16-5.568l-3.848,14.576l-2.826-4.502l-1.854,5.273
			L51.7,40.049c0,0,1.561-27.463,20.842-17.937C94.756,33.088,83.935,28.24,82.86,36.758z"/>
	</g>
</g>
</svg>
