<?xml version="1.0" encoding="utf-8"?>
<!-- Generator: Adobe Illustrator 16.0.0, SVG Export Plug-In . SVG Version: 6.00 Build 0)  -->
<!DOCTYPE svg PUBLIC "-//W3C//DTD SVG 1.1//EN" "http://www.w3.org/Graphics/SVG/1.1/DTD/svg11.dtd">
<svg version="1.1" id="Layer_1" xmlns="http://www.w3.org/2000/svg" xmlns:xlink="http://www.w3.org/1999/xlink" x="0px" y="0px"
	 width="136.833px" height="136.834px" viewBox="0 0 136.833 136.834" style="enable-background:new 0 0 136.833 136.834;"
	 xml:space="preserve">
<style type="text/css">
<![CDATA[
	.st0{fill:#46898D;}
	.st1{fill:#48888C;}
	.st2{fill:#48A1AF;}
	.st3{fill-rule:evenodd;clip-rule:evenodd;fill:#3F3E3D;}
	.st4{fill:#7F807D;}
	.st5{fill:#E26917;}
	.st6{fill:#E2A976;}
	.st7{fill:#E57428;}
	.st8{fill:#4ABC96;}
	.st9{fill:#E5AA17;}
	.st10{fill:#E5BDA1;}
	.st11{fill-rule:evenodd;clip-rule:evenodd;fill:#DAECEF;}
	.st12{fill:#4C4B49;}
	.st13{fill:#4D4C4C;}
	.st14{fill:#B16227;}
	.st15{fill:#B2723A;}
	.st16{fill:#1A5B37;}
	.st17{fill:#EA4949;}
	.st18{fill:#EAC2A0;}
	.st19{fill:#EACE57;}
	.st20{fill:#EACF60;}
	.st21{fill:#509BA3;}
	.st22{fill:#EE6D6D;}
	.st23{fill:#EED877;}
	.st24{fill:#557F0D;}
	.st25{fill:#BA7842;}
	.st26{fill:#8B401E;}
	.st27{fill:#BE7C3F;}
	.st28{fill:#22A85B;}
	.st29{fill-rule:evenodd;clip-rule:evenodd;fill:#827159;}
	.st30{fill:#F47C2C;}
	.st31{fill:#F4C82E;}
	.st32{fill:#F4E12B;}
	.st33{fill:#5A8AA3;}
	.st34{fill:#F5C82D;}
	.st35{fill:#F69656;}
	.st36{fill:#F7A1A1;}
	.st37{fill:#5D250E;}
	.st38{fill:#F98646;}
	.st39{fill:#C17E42;}
	.st40{fill:#93783D;}
	.st41{fill:#C4C3B7;}
	.st42{fill:#C68A4F;}
	.st43{fill:#2D734E;}
	.st44{opacity:0.6;}
	.st45{fill:#2FA379;}
	.st46{fill:#FFFFFF;}
	.st47{fill:#64A80D;}
	.st48{fill:none;}
	.st49{fill:#66321C;}
	.st50{fill-rule:evenodd;clip-rule:evenodd;fill:#5B4F3F;}
	.st51{fill:#9B7542;}
	.st52{fill:#CD9251;}
	.st53{fill:#9E7640;}
	.st54{fill:#9EDADA;}
	.st55{fill:#CE0202;}
	.st56{fill:#CE945F;}
	.st57{fill:#9F6029;}
	.st58{fill:#CEA16F;}
	.st59{fill:#CEA272;}
	.st60{fill:#333333;}
	.st61{fill:#337180;}
	.st62{fill:#36160D;}
	.st63{fill:#6EBD44;}
	.st64{fill:#6EC9AB;}
	.st65{fill:#00A31F;}
	.st66{fill:#D5C427;}
	.st67{fill:#D69D61;}
	.st68{fill:#D6A972;}
	.st69{fill:#D78628;}
	.st70{fill:#3F3E40;}
	.st71{fill:#A2A29B;}
	.st72{fill:#A3D5E0;}
	.st73{fill:#A47E46;}
	.st74{fill:#77B7B7;}
	.st75{fill:#DB6414;}
	.st76{fill:#DBA375;}
	.st77{fill:#DCB282;}
	.st78{fill:#DCEFED;}
	.st79{fill:#A9D5D0;}
	.st80{fill:#DDAA7C;}
	.st81{fill:#DE6A35;}
	.st82{fill:#DFC65F;}
	.st83{fill:#444343;}
	.st84{fill:#448A96;}
]]>
</style>
<g>
	<g>
		<circle class="st28" cx="68.417" cy="68.417" r="63.333"/>
	</g>
	<g>
		<g>
			<g>
				<path class="st48" d="M48.188,130.189l0.127-1.715c-1.805-0.604-3.574-1.283-5.302-2.041L48.188,130.189z"/>
				<path class="st48" d="M18.479,108.628l2.699,1.959c-0.677-0.757-1.334-1.53-1.974-2.318L18.479,108.628z"/>
				<path class="st77" d="M37.41,99.236l-2.06-9.109l-19.371,13.813c1.013,1.491,2.093,2.933,3.226,4.33L37.41,99.236z"/>
				<path class="st77" d="M109.969,101.001l8.288,6.467c1.641-2.092,3.16-4.283,4.533-6.576l-9.049-9.664L109.969,101.001z"/>
				<path class="st33" d="M109.816,101.398l0.153-0.396L95.322,89.571l0.949-12.932l4.917,1.181l12.554,13.408l0.286-0.743
					L101.98,76.201l-20.563-2.468l-19.189,2.072l-11.104,3.396l-16.617,7.194l0.844,3.731l6.641-4.734l7.234-4.636l-0.668,12.949
					l-11.147,5.53l0.087,0.385l13.213-3.624l-2.395,32.478c6.317,2.113,13.071,3.276,20.101,3.276
					c9.896,0,19.262-2.273,27.605-6.321L95.79,90.521L109.816,101.398z"/>
				<polygon class="st33" points="49.225,80.756 41.991,85.392 35.35,90.126 37.41,99.236 48.557,93.706 				"/>
				<polygon class="st33" points="96.271,76.639 95.322,89.571 109.969,101.001 113.742,91.228 101.188,77.82 				"/>
			</g>
			<g>
				<g>
					<path class="st77" d="M83.904,60.838c0.787,6.298-4.095,11.674-10.906,12.011l0,0c-6.812,0.333-12.972-4.5-13.759-10.798
						L55.94,35.677c-0.788-6.298,4.096-11.675,10.906-12.011l0,0c6.813-0.335,12.971,4.498,13.758,10.795L83.904,60.838z"/>
					<path class="st77" d="M79.494,79.517c-0.167,3.761-3.631,6.494-7.737,6.107l0,0c-4.105-0.39-7.3-3.751-7.131-7.511
						l0.702-15.745c0.167-3.759,3.63-6.493,7.736-6.105l0,0c4.106,0.388,7.3,3.75,7.13,7.508L79.494,79.517z"/>
					<g>
						<polygon class="st37" points="58.172,66.878 58.625,57.292 68.293,67.587 79.614,66.064 83.056,54.913 87.301,61.025 
							88.445,69.748 83.549,77.096 77.713,80.737 69.727,79.65 62.027,75.591 						"/>
					</g>
				</g>
				<path class="st37" d="M54.573,36.467c0,0,30.069,0.887,31.061-3.084l-5.072-0.526c0,0,5.137-1.602,5.329-4.113l-5.667,1.28
					c0,0,1.994-3.64,1.613-6.344l-3.933,2.286C77.904,25.966,56.065,13.613,54.573,36.467z"/>
			</g>
		</g>
		<g>
			<g>
				<g>
					<g>
						<path class="st13" d="M80.579,39.761c-2.745,0.943-4.107,4.228-3.039,7.339c1.066,3.109,4.159,4.865,6.905,3.922
							c2.747-0.943,4.109-4.227,3.042-7.338C86.418,40.574,83.327,38.818,80.579,39.761z M83.893,49.413
							c-1.962,0.673-4.172-0.58-4.934-2.801s0.211-4.567,2.173-5.241c1.962-0.673,4.171,0.582,4.933,2.803
							S85.855,48.74,83.893,49.413z"/>
					</g>
					<g>
						<path class="st13" d="M68.034,41.1c-2.746,0.943-4.107,4.228-3.04,7.339c1.066,3.108,4.158,4.865,6.905,3.922
							s4.108-4.228,3.041-7.337C73.874,41.914,70.782,40.157,68.034,41.1z M71.347,50.751c-1.962,0.673-4.171-0.58-4.933-2.801
							c-0.763-2.221,0.209-4.567,2.172-5.241c1.962-0.673,4.17,0.581,4.933,2.802C74.282,47.733,73.31,50.079,71.347,50.751z"/>
					</g>
				</g>
				<g>
					<polygon class="st13" points="65.588,47.372 57.186,45.673 57.093,44.822 65.76,46.508 					"/>
				</g>
				<g>
					
						<rect x="75.752" y="45.07" transform="matrix(0.0731 0.9973 -0.9973 0.0731 116.7889 -33.082)" class="st13" width="0.881" height="2.444"/>
				</g>
				<g>
					<polygon class="st13" points="86.918,45.251 81.893,44.497 81.765,43.608 87.049,44.381 					"/>
				</g>
			</g>
			<g class="st44">
				<path class="st78" d="M86.065,44.173c-0.762-2.221-2.971-3.476-4.933-2.803c0,0,1.026,1.82,1.709,3.849
					c0.683,2.027,1.052,4.193,1.052,4.193C85.855,48.74,86.827,46.394,86.065,44.173z"/>
				<path class="st79" d="M81.132,41.371c-1.962,0.674-2.935,3.021-2.173,5.241s2.972,3.474,4.934,2.801
					c0,0-0.369-2.166-1.052-4.193C82.159,43.191,81.132,41.371,81.132,41.371z"/>
			</g>
			<g class="st44">
				<path class="st78" d="M73.52,45.484c-0.763-2.221-2.972-3.476-4.934-2.802c0,0,1.028,1.82,1.71,3.849
					c0.682,2.027,1.052,4.192,1.052,4.192C73.309,50.051,74.282,47.706,73.52,45.484z"/>
				<path class="st79" d="M68.586,42.682c-1.962,0.674-2.935,3.021-2.172,5.241c0.761,2.221,2.972,3.474,4.934,2.8
					c0,0-0.37-2.165-1.052-4.192C69.615,44.502,68.586,42.682,68.586,42.682z"/>
			</g>
		</g>
	</g>
</g>
</svg>
