<?xml version="1.0" encoding="utf-8"?>
<!-- Generator: Adobe Illustrator 16.0.0, SVG Export Plug-In . SVG Version: 6.00 Build 0)  -->
<!DOCTYPE svg PUBLIC "-//W3C//DTD SVG 1.1//EN" "http://www.w3.org/Graphics/SVG/1.1/DTD/svg11.dtd">
<svg version="1.1" id="Layer_1" xmlns="http://www.w3.org/2000/svg" xmlns:xlink="http://www.w3.org/1999/xlink" x="0px" y="0px"
	 width="136.833px" height="136.834px" viewBox="0 0 136.833 136.834" style="enable-background:new 0 0 136.833 136.834;"
	 xml:space="preserve">
<style type="text/css">
<![CDATA[
	.st0{fill:#46898D;}
	.st1{fill:#48888C;}
	.st2{fill:#48A1AF;}
	.st3{fill-rule:evenodd;clip-rule:evenodd;fill:#3F3E3D;}
	.st4{fill:#7F807D;}
	.st5{fill:#E26917;}
	.st6{fill:#E2A976;}
	.st7{fill:#E57428;}
	.st8{fill:#4ABC96;}
	.st9{fill:#E5AA17;}
	.st10{fill:#E5BDA1;}
	.st11{fill-rule:evenodd;clip-rule:evenodd;fill:#DAECEF;}
	.st12{fill:#4C4B49;}
	.st13{fill:#4D4C4C;}
	.st14{fill:#B16227;}
	.st15{fill:#B2723A;}
	.st16{fill:#1A5B37;}
	.st17{fill:#EA4949;}
	.st18{fill:#EAC2A0;}
	.st19{fill:#EACE57;}
	.st20{fill:#EACF60;}
	.st21{fill:#509BA3;}
	.st22{fill:#EE6D6D;}
	.st23{fill:#EED877;}
	.st24{fill:#557F0D;}
	.st25{fill:#BA7842;}
	.st26{fill:#8B401E;}
	.st27{fill:#BE7C3F;}
	.st28{fill:#22A85B;}
	.st29{fill-rule:evenodd;clip-rule:evenodd;fill:#827159;}
	.st30{fill:#F47C2C;}
	.st31{fill:#F4C82E;}
	.st32{fill:#F4E12B;}
	.st33{fill:#5A8AA3;}
	.st34{fill:#F5C82D;}
	.st35{fill:#F69656;}
	.st36{fill:#F7A1A1;}
	.st37{fill:#5D250E;}
	.st38{fill:#F98646;}
	.st39{fill:#C17E42;}
	.st40{fill:#93783D;}
	.st41{fill:#C4C3B7;}
	.st42{fill:#C68A4F;}
	.st43{fill:#2D734E;}
	.st44{opacity:0.6;}
	.st45{fill:#2FA379;}
	.st46{fill:#FFFFFF;}
	.st47{fill:#64A80D;}
	.st48{fill:none;}
	.st49{fill:#66321C;}
	.st50{fill-rule:evenodd;clip-rule:evenodd;fill:#5B4F3F;}
	.st51{fill:#9B7542;}
	.st52{fill:#CD9251;}
	.st53{fill:#9E7640;}
	.st54{fill:#9EDADA;}
	.st55{fill:#CE0202;}
	.st56{fill:#CE945F;}
	.st57{fill:#9F6029;}
	.st58{fill:#CEA16F;}
	.st59{fill:#CEA272;}
	.st60{fill:#333333;}
	.st61{fill:#337180;}
	.st62{fill:#36160D;}
	.st63{fill:#6EBD44;}
	.st64{fill:#6EC9AB;}
	.st65{fill:#00A31F;}
	.st66{fill:#D5C427;}
	.st67{fill:#D69D61;}
	.st68{fill:#D6A972;}
	.st69{fill:#D78628;}
	.st70{fill:#3F3E40;}
	.st71{fill:#A2A29B;}
	.st72{fill:#A3D5E0;}
	.st73{fill:#A47E46;}
	.st74{fill:#77B7B7;}
	.st75{fill:#DB6414;}
	.st76{fill:#DBA375;}
	.st77{fill:#DCB282;}
	.st78{fill:#DCEFED;}
	.st79{fill:#A9D5D0;}
	.st80{fill:#DDAA7C;}
	.st81{fill:#DE6A35;}
	.st82{fill:#DFC65F;}
	.st83{fill:#444343;}
	.st84{fill:#448A96;}
]]>
</style>
<g>
	<g>
		<circle class="st28" cx="68.416" cy="68.417" r="63.333"/>
	</g>
	<g>
		<g>
			<g>
				<path class="st6" d="M83.409,80.658l0.004,0.009l4.895-0.217l7.471,11.687l1.326,11.308l-2.072,4.528l6.217,14.613
					c2.143-1.301,4.191-2.741,6.158-4.28L97.233,80.016L83.409,80.658z"/>
				<path class="st6" d="M45.974,103.778l4.178-18.021l1.373-0.384l-9.688,1.692l-11.559,31.911
					c2.473,1.867,5.082,3.561,7.816,5.054l7.908-20.144L45.974,103.778z"/>
				<path class="st69" d="M95.778,92.136L88.308,80.45l-4.895,0.217l-5.5,0.243l-19.908,2.654l-6.48,1.809l-1.373,0.384
					l-4.178,18.021l0.029,0.108l1.986,7.318l5.121,6.852l1.227,12.105c4.531,1.027,9.238,1.589,14.078,1.589
					c7.119,0,13.955-1.192,20.342-3.357l2.08-11.259l4.195-9.162l2.072-4.528L95.778,92.136z"/>
			</g>
			<g>
				<path class="st14" d="M73.425,96.588l-0.998,0.057c0.016,0.273,0.92,16.81,0.727,34.911c0.334-0.025,0.668-0.047,1-0.076
					C74.343,113.367,73.44,96.862,73.425,96.588z"/>
			</g>
			<g>
				<g>
					<path class="st20" d="M72.569,29.011c0,0-3.152,39.283,20.045,47.159c0,0-1.363-2.136-3.391-11.471
						c0,0,1.977,5.093,7.146,4.685c0,0-7.273-10.494-7.656-18.337c0,0-0.129,3.78,7.326,5.146c0,0-7.631-11.42-8.375-20.188
						C87.665,36.005,81.544,26.058,72.569,29.011z"/>
					<path class="st76" d="M70.202,60.496c4.291-0.081,7.986,3.021,8.252,6.93l1.113,16.363c0.268,3.905-2.242,14.254-6.529,14.334
						C68.745,98.2,64.296,87.98,64.03,84.072l-1.113-16.36C62.651,63.805,65.911,60.573,70.202,60.496z"/>
					<path class="st82" d="M69.761,53.748c0,0-7.311,36.871-23.076,40.654c0,0,1.553-2,4.436-11.107c0,0-2.439,4.889-7.549,4.003
						c0,0,8.213-9.776,9.318-17.55c0,0-0.219,3.775-7.77,4.445c0,0,8.654-10.664,10.203-19.326
						C55.323,54.867,61.095,49.977,69.761,53.748z"/>
					<path class="st82" d="M70.761,59.296c0,0,4.527,37.313,19.967,42.268c0,0-1.4-2.109-3.592-11.408c0,0,2.066,5.057,7.229,4.558
						c0,0-7.457-10.365-7.979-18.2c0,0-0.064,3.782,7.416,5.016c0,0-7.832-11.282-8.729-20.035
						C85.073,61.494,79.683,56.185,70.761,59.296z"/>
					<path class="st6" d="M84.735,63.464c0.326,6.596-5.162,11.791-12.256,11.605l0,0c-7.096-0.188-13.107-5.685-13.432-12.281
						l-1.354-27.627c-0.324-6.595,5.164-11.791,12.258-11.605l0,0c7.094,0.188,13.107,5.685,13.43,12.28L84.735,63.464z"/>
				</g>
			</g>
		</g>
		<path class="st23" d="M74.896,23.586c0,0-7.311,36.869-23.076,40.653c0,0,1.553-2,4.436-11.106c0,0-2.439,4.887-7.549,4.003
			c0,0,8.213-9.777,9.318-17.551c0,0-0.219,3.775-7.77,4.446c0,0,8.654-10.665,10.203-19.327
			C60.458,24.705,66.229,19.815,74.896,23.586z"/>
		<path class="st23" d="M72.499,28.642c0,0,6.959,10.92,13.91,13.15c0,0-3.477-0.494-2.736-9.431c0,0-0.004-7.449-7.451-9.927
			C76.222,22.435,71.255,22.437,72.499,28.642z"/>
	</g>
</g>
</svg>
