<?xml version="1.0" encoding="utf-8"?>
<!-- Generator: Adobe Illustrator 16.0.0, SVG Export Plug-In . SVG Version: 6.00 Build 0)  -->
<!DOCTYPE svg PUBLIC "-//W3C//DTD SVG 1.1//EN" "http://www.w3.org/Graphics/SVG/1.1/DTD/svg11.dtd">
<svg version="1.1" id="Layer_1" xmlns="http://www.w3.org/2000/svg" xmlns:xlink="http://www.w3.org/1999/xlink" x="0px" y="0px"
	 width="136.833px" height="136.834px" viewBox="0 0 136.833 136.834" style="enable-background:new 0 0 136.833 136.834;"
	 xml:space="preserve">
<style type="text/css">
<![CDATA[
	.st0{fill:#46898D;}
	.st1{fill:#48888C;}
	.st2{fill:#48A1AF;}
	.st3{fill-rule:evenodd;clip-rule:evenodd;fill:#3F3E3D;}
	.st4{fill:#7F807D;}
	.st5{fill:#E26917;}
	.st6{fill:#E2A976;}
	.st7{fill:#E57428;}
	.st8{fill:#4ABC96;}
	.st9{fill:#E5AA17;}
	.st10{fill:#E5BDA1;}
	.st11{fill-rule:evenodd;clip-rule:evenodd;fill:#DAECEF;}
	.st12{fill:#4C4B49;}
	.st13{fill:#4D4C4C;}
	.st14{fill:#B16227;}
	.st15{fill:#B2723A;}
	.st16{fill:#1A5B37;}
	.st17{fill:#EA4949;}
	.st18{fill:#EAC2A0;}
	.st19{fill:#EACE57;}
	.st20{fill:#EACF60;}
	.st21{fill:#509BA3;}
	.st22{fill:#EE6D6D;}
	.st23{fill:#EED877;}
	.st24{fill:#557F0D;}
	.st25{fill:#BA7842;}
	.st26{fill:#8B401E;}
	.st27{fill:#BE7C3F;}
	.st28{fill:#22A85B;}
	.st29{fill-rule:evenodd;clip-rule:evenodd;fill:#827159;}
	.st30{fill:#F47C2C;}
	.st31{fill:#F4C82E;}
	.st32{fill:#F4E12B;}
	.st33{fill:#5A8AA3;}
	.st34{fill:#F5C82D;}
	.st35{fill:#F69656;}
	.st36{fill:#F7A1A1;}
	.st37{fill:#5D250E;}
	.st38{fill:#F98646;}
	.st39{fill:#C17E42;}
	.st40{fill:#93783D;}
	.st41{fill:#C4C3B7;}
	.st42{fill:#C68A4F;}
	.st43{fill:#2D734E;}
	.st44{opacity:0.6;}
	.st45{fill:#2FA379;}
	.st46{fill:#FFFFFF;}
	.st47{fill:#64A80D;}
	.st48{fill:none;}
	.st49{fill:#66321C;}
	.st50{fill-rule:evenodd;clip-rule:evenodd;fill:#5B4F3F;}
	.st51{fill:#9B7542;}
	.st52{fill:#CD9251;}
	.st53{fill:#9E7640;}
	.st54{fill:#9EDADA;}
	.st55{fill:#CE0202;}
	.st56{fill:#CE945F;}
	.st57{fill:#9F6029;}
	.st58{fill:#CEA16F;}
	.st59{fill:#CEA272;}
	.st60{fill:#333333;}
	.st61{fill:#337180;}
	.st62{fill:#36160D;}
	.st63{fill:#6EBD44;}
	.st64{fill:#6EC9AB;}
	.st65{fill:#00A31F;}
	.st66{fill:#D5C427;}
	.st67{fill:#D69D61;}
	.st68{fill:#D6A972;}
	.st69{fill:#D78628;}
	.st70{fill:#3F3E40;}
	.st71{fill:#A2A29B;}
	.st72{fill:#A3D5E0;}
	.st73{fill:#A47E46;}
	.st74{fill:#77B7B7;}
	.st75{fill:#DB6414;}
	.st76{fill:#DBA375;}
	.st77{fill:#DCB282;}
	.st78{fill:#DCEFED;}
	.st79{fill:#A9D5D0;}
	.st80{fill:#DDAA7C;}
	.st81{fill:#DE6A35;}
	.st82{fill:#DFC65F;}
	.st83{fill:#444343;}
	.st84{fill:#448A96;}
]]>
</style>
<g>
	<g>
		<circle class="st2" cx="68.416" cy="68.417" r="63.333"/>
	</g>
	<g>
		<circle class="st20" cx="85.792" cy="39.537" r="5.5"/>
		<circle class="st20" cx="90.376" cy="46.787" r="5.5"/>
		<circle class="st20" cx="94.458" cy="49.371" r="5.5"/>
		<circle class="st20" cx="90.792" cy="62.869" r="5.5"/>
		<circle class="st20" cx="84.792" cy="67.369" r="5.5"/>
		<circle class="st20" cx="79.292" cy="67.369" r="5.5"/>
		<circle class="st20" cx="94.792" cy="56.953" r="5.5"/>
		<circle class="st20" cx="84.792" cy="61.869" r="5.5"/>
	</g>
	<g>
		<circle class="st82" cx="67.406" cy="62.537" r="5.236"/>
		<circle class="st82" cx="60.207" cy="63.524" r="5.236"/>
		<circle class="st82" cx="50.956" cy="65.866" r="5.237"/>
		<circle class="st82" cx="51.15" cy="73.809" r="5.236"/>
		<circle class="st82" cx="51.65" cy="81.476" r="5.236"/>
		<circle class="st82" cx="62.65" cy="78.642" r="5.236"/>
		<circle class="st82" cx="58.814" cy="83.2" r="5.235"/>
		<circle class="st82" cx="63.605" cy="85.313" r="5.236"/>
		<circle class="st82" cx="61.631" cy="70.916" r="5.236"/>
		<circle class="st82" cx="57.093" cy="75.742" r="5.238"/>
	</g>
	<g>
		<circle class="st82" cx="80.695" cy="86.015" r="5.442"/>
		<circle class="st82" cx="86.648" cy="81.372" r="5.441"/>
		<circle class="st82" cx="90.73" cy="70.397" r="5.441"/>
		<circle class="st82" cx="89.23" cy="77.064" r="5.441"/>
		<circle class="st82" cx="84.021" cy="66.732" r="5.442"/>
		<path class="st82" d="M77.028,57.559c-2.988,0.332-5.139,3.022-4.807,6.009c0.334,2.986,3.023,5.137,6.012,4.805
			c2.984-0.334,5.137-3.023,4.803-6.009C82.704,59.378,80.015,57.226,77.028,57.559z"/>
		<circle class="st82" cx="72.223" cy="63.568" r="5.44"/>
		<circle class="st82" cx="81.511" cy="75.472" r="5.442"/>
		<circle class="st82" cx="78.232" cy="68.374" r="5.441"/>
	</g>
	<g>
		<circle class="st20" cx="65.216" cy="39.967" r="6.484"/>
		<circle class="st20" cx="56.546" cy="42.379" r="6.484"/>
		<circle class="st20" cx="51.105" cy="50.628" r="6.485"/>
		<path class="st20" d="M50.995,65.931c3.441,0.99,7.035-0.998,8.027-4.438c0.988-3.441-1-7.035-4.441-8.025
			c-3.439-0.99-7.033,0.997-8.025,4.438C45.567,61.346,47.554,64.94,50.995,65.931z"/>
		<circle class="st20" cx="58.118" cy="66.754" r="6.483"/>
		<circle class="st20" cx="64.35" cy="68.547" r="6.482"/>
		<path class="st20" d="M57.733,57.443c3.438,0.99,7.031-0.998,8.023-4.441c0.99-3.438-0.998-7.032-4.438-8.021
			c-3.441-0.992-7.035,0.996-8.025,4.437C52.306,52.859,54.29,56.455,57.733,57.443z"/>
		<circle class="st20" cx="59.911" cy="60.522" r="6.484"/>
	</g>
	<g>
		<path class="st74" d="M82.001,85.732l-7.176-3.557l-9.705,1.294l-1.953,1.274l3.5,46.963c0.582,0.016,1.162,0.044,1.748,0.044
			c4.854,0,9.572-0.564,14.113-1.599l-1.068-23.365L82.001,85.732z"/>
		<polygon class="st74" points="77.661,81.796 88.433,81.287 78.04,81.747 		"/>
		<polygon class="st4" points="74.376,81.953 74.825,82.175 77.661,81.796 		"/>
		<path class="st4" d="M94.694,111.533"/>
		<path class="st4" d="M96.376,82.371l-18.715-0.574l-2.836,0.379l7.176,3.557l-0.541,21.055l1.068,23.365
			c2.223-0.506,4.4-1.127,6.527-1.86c0.313-0.107,0.627-0.204,0.938-0.317l0.809-6.998l3.893-9.443l0,0l5.031,11.93
			c3.195-1.822,6.227-3.902,9.045-6.234L96.376,82.371z"/>
		<path class="st4" d="M63.167,84.744l1.953-1.274l1.174-0.767l-20,3.75l-4.654,1.556l-11.412,30.928
			c3.035,2.298,6.285,4.318,9.711,6.047l6.916-23.626l0.076,2.004l0.084,2.262l0.281,1.238l5.172,22.861
			c0.631,0.164,1.273,0.303,1.912,0.447c3.967,0.898,8.074,1.422,12.287,1.537L63.167,84.744z"/>
	</g>
	<g>
		<g>
			<g>
				<g>
					<g>
						<g>
							<g>
								<path class="st56" d="M70.329,61.332c4.291-0.08,7.984,3.022,8.252,6.931l1.113,16.363
									c0.266,3.905-15.271,4.191-15.537,0.283l-1.113-16.36C62.776,64.642,66.038,61.41,70.329,61.332z"/>
								<path class="st67" d="M84.862,64.301c0.324,6.596-5.164,11.791-12.258,11.605l0,0c-7.094-0.188-13.107-5.685-13.432-12.281
									l-1.354-27.627c-0.322-6.595,5.166-11.791,12.26-11.605l0,0c7.092,0.188,13.105,5.685,13.43,12.28L84.862,64.301z"/>
							</g>
						</g>
					</g>
				</g>
			</g>
		</g>
		<g>
			<path class="st19" d="M61.325,40.599c1.982,1.543,4.846,1.188,6.391-0.797c1.549-1.986,1.193-4.85-0.791-6.395
				c-1.988-1.547-4.852-1.192-6.396,0.793C58.979,36.188,59.335,39.05,61.325,40.599z"/>
			<path class="st19" d="M58.661,38.902c1.988,1.548,4.85,1.191,6.396-0.797c1.547-1.984,1.189-4.846-0.797-6.395
				c-1.984-1.545-4.848-1.188-6.393,0.799C56.321,34.492,56.679,37.357,58.661,38.902z"/>
			<circle class="st19" cx="52.13" cy="38.137" r="4.559"/>
			<path class="st19" d="M46.929,47.343c1.984,1.543,4.852,1.188,6.396-0.797c1.545-1.986,1.189-4.851-0.797-6.396
				c-1.984-1.546-4.846-1.188-6.395,0.796C44.589,42.929,44.944,45.794,46.929,47.343z"/>
			<path class="st19" d="M53.312,55.21c1.988,1.551,4.848,1.191,6.395-0.791c1.547-1.987,1.191-4.848-0.797-6.396
				c-1.984-1.546-4.85-1.191-6.393,0.794C50.972,50.801,51.327,53.666,53.312,55.21z"/>
			<path class="st19" d="M52.587,59.937c1.982,1.547,4.85,1.189,6.395-0.795c1.547-1.986,1.188-4.849-0.797-6.396
				c-1.982-1.544-4.846-1.19-6.396,0.794C50.245,55.527,50.603,58.392,52.587,59.937z"/>
			<path class="st19" d="M57.419,45.193c1.984,1.547,4.85,1.188,6.396-0.797c1.543-1.984,1.188-4.848-0.797-6.395
				s-4.846-1.189-6.396,0.795C55.079,40.785,55.433,43.646,57.419,45.193z"/>
			<path class="st19" d="M55.108,51.282c1.99,1.55,4.852,1.192,6.396-0.794c1.549-1.986,1.191-4.852-0.795-6.396
				s-4.848-1.188-6.395,0.797C52.769,46.875,53.124,49.739,55.108,51.282z"/>
		</g>
		<g>
			<path class="st20" d="M80.716,39.716c-1.982,1.543-4.848,1.188-6.393-0.797c-1.549-1.986-1.193-4.85,0.791-6.395
				c1.988-1.547,4.852-1.192,6.396,0.793C83.06,35.305,82.704,38.167,80.716,39.716z"/>
			<path class="st20" d="M70.444,39.818c-5.037,0.006-8.357-2.078-7.402-4.653c0.953-2.58,5.816-4.675,10.859-4.682
				c5.053-0.005,8.371,2.078,7.416,4.654C80.364,37.717,75.499,39.812,70.444,39.818z"/>
			<path class="st20" d="M84.378,38.769c-1.986,1.548-4.85,1.191-6.396-0.797c-1.545-1.984-1.189-4.846,0.797-6.395
				c1.984-1.545,4.848-1.188,6.393,0.799C86.718,34.359,86.36,37.224,84.378,38.769z"/>
			<circle class="st20" cx="91.284" cy="37.004" r="4.559"/>
			<path class="st20" d="M96.819,46.71c-1.984,1.543-4.852,1.188-6.396-0.797c-1.545-1.986-1.189-4.851,0.797-6.396
				c1.984-1.546,4.846-1.188,6.395,0.796C99.159,42.296,98.804,45.162,96.819,46.71z"/>
			<path class="st20" d="M91.312,58.078c-1.988,1.551-4.848,1.191-6.395-0.791c-1.547-1.987-1.191-4.848,0.797-6.396
				c1.984-1.546,4.85-1.191,6.393,0.794C93.651,53.668,93.296,56.533,91.312,58.078z"/>
			<path class="st20" d="M86.745,44.31c-1.984,1.547-4.848,1.188-6.396-0.797c-1.543-1.984-1.188-4.848,0.797-6.395
				s4.846-1.189,6.396,0.795C89.085,39.901,88.731,42.763,86.745,44.31z"/>
			<path class="st20" d="M89.265,50.15c-1.99,1.55-4.852,1.192-6.396-0.794c-1.549-1.985-1.191-4.852,0.795-6.396
				s4.848-1.188,6.395,0.797C91.604,45.744,91.249,48.607,89.265,50.15z"/>
			<path class="st20" d="M90.015,53.775c-1.99,1.55-4.852,1.192-6.396-0.794c-1.549-1.985-1.191-4.852,0.795-6.396
				s4.848-1.188,6.395,0.797C92.354,49.369,91.999,52.232,90.015,53.775z"/>
		</g>
		<g>
			<path class="st20" d="M60.306,32.229c0.354,2.487-1.379,4.796-3.869,5.15c-2.494,0.356-4.801-1.375-5.156-3.865
				c-0.354-2.494,1.377-4.803,3.869-5.156C57.644,28.002,59.95,29.733,60.306,32.229z"/>
			<path class="st20" d="M65.882,27.158c0.355,2.494-1.377,4.801-3.871,5.154c-2.49,0.355-4.795-1.377-5.152-3.87
				c-0.354-2.489,1.379-4.797,3.871-5.149C63.218,22.935,65.526,24.669,65.882,27.158z"/>
			<path class="st20" d="M72.485,24.839c0.357,2.491-1.377,4.798-3.867,5.154c-2.494,0.354-4.801-1.377-5.158-3.869
				c-0.354-2.491,1.381-4.8,3.869-5.152C69.821,20.619,72.132,22.349,72.485,24.839z"/>
			<path class="st20" d="M78.304,26.227c0.354,2.489-1.379,4.8-3.869,5.153c-2.492,0.354-4.801-1.378-5.154-3.869
				c-0.355-2.49,1.377-4.796,3.869-5.154C75.638,22.002,77.946,23.736,78.304,26.227z"/>
			<path class="st20" d="M85.567,28.123c0.357,2.496-1.375,4.799-3.865,5.155c-2.492,0.354-4.797-1.377-5.154-3.871
				c-0.355-2.49,1.377-4.8,3.867-5.152C82.905,23.9,85.214,25.632,85.567,28.123z"/>
			<path class="st20" d="M90.097,31.003c0.355,2.488-1.379,4.798-3.869,5.152c-2.492,0.355-4.797-1.38-5.152-3.869
				c-0.355-2.488,1.375-4.798,3.867-5.156C87.433,26.779,89.741,28.513,90.097,31.003z"/>
			<path class="st20" d="M71.741,30.09c0.355,2.491-1.379,4.798-3.871,5.155c-2.49,0.352-4.797-1.38-5.152-3.871
				c-0.357-2.49,1.375-4.796,3.869-5.154C69.077,25.869,71.386,27.598,71.741,30.09z"/>
			<path class="st20" d="M78.183,31.262c0.355,2.497-1.377,4.803-3.867,5.155c-2.494,0.356-4.803-1.378-5.156-3.869
				s1.379-4.797,3.871-5.152S77.831,28.773,78.183,31.262z"/>
		</g>
	</g>
</g>
</svg>
